<svg xmlns="http://www.w3.org/2000/svg" viewBox="0 0 91.18 91.18"><!-- Source: https://football-logos.cc --><path fill="none" stroke="#fff" stroke-miterlimit="10" stroke-width="1.141" d="M45.563.57a45.021 45.021 0 1 1-31.805 13.186A44.87 44.87 0 0 1 45.563.57Z" data-name="Path 752" data-source="https://football-logos.cc"></path><path fill="#fff" d="M65.206 25.932a27.759 27.759 0 1 0 8.14 19.638 27.7 27.7 0 0 0-8.14-19.638M45.563 71.6a26.048 26.048 0 1 1 18.406-7.628A25.9 25.9 0 0 1 45.563 71.6" data-name="Path 753"></path><path fill="#fff" d="M70.936 44.641a8.85 8.85 0 0 0-2.9 3.634c-1.955-4.261-4.932-6.494-8.594-7.34a12.24 12.24 0 0 0 2.67-11.018 8.8 8.8 0 0 0 4.406 1.226 25.5 25.5 0 0 0-13.864-10.055 9 9 0 0 0 2.495 3.736 12.12 12.12 0 0 0-9.586 5.969 12.15 12.15 0 0 0-9.586-5.969 9 9 0 0 0 2.495-3.736 25.3 25.3 0 0 0-10.855 6.435 25.5 25.5 0 0 0-3.006 3.619 8.8 8.8 0 0 0 4.406-1.226 12.28 12.28 0 0 0 2.67 11.018c-3.677.846-6.639 3.079-8.594 7.34a8.85 8.85 0 0 0-2.9-3.634c-.015.277-.015.555-.015.846A25.3 25.3 0 0 0 25.545 61.1a9 9 0 0 0 .2-4.582 12.03 12.03 0 0 0 11.235.846 12.23 12.23 0 0 0 4.275 10.492 9.04 9.04 0 0 0-4.2 1.547 25.52 25.52 0 0 0 17.012 0 9.04 9.04 0 0 0-4.2-1.547 12.25 12.25 0 0 0 4.275-10.492 12.03 12.03 0 0 0 11.235-.846 9 9 0 0 0 .2 4.582 25.25 25.25 0 0 0 5.369-15.614c.005-.275.005-.553-.01-.845M50.86 52.58H40.471L37 42.321l8.667-6.348 8.667 6.348Z" data-name="Path 754" data-source="https://football-logos.cc"></path><g fill="#fff" data-name="Group 99" data-source="https://football-logos.cc"><path fill-rule="evenodd" d="m45.824 80.176.741 1.683 1.811.185-1.354 1.212.385 1.8-1.583-.927-1.568.927.385-1.8-1.359-1.215 1.811-.185Z" data-name="Path 755"></path><path d="m36.943 14.3.2.756-1.44.385-.2-.756a4.33 4.33 0 0 1-2.723-.271 2.75 2.75 0 0 1-1.44-1.854 2.8 2.8 0 0 1 .385-2.381 4.1 4.1 0 0 1 2.167-1.568l-.185-.67 1.44-.385.185.67a4.08 4.08 0 0 1 2.681.274 2.76 2.76 0 0 1 1.483 1.868 2.9 2.9 0 0 1-.314 2.438 3.9 3.9 0 0 1-2.239 1.5ZM35.66 9.525l.927 3.465c1.24-.456 1.725-1.212 1.454-2.253S36.972 9.3 35.66 9.525m-1.44.385c-1.24.456-1.725 1.212-1.44 2.253s1.069 1.44 2.367 1.212Z" data-name="Path 756"></path><path d="m50.417 6.331 4.206.741-.24 1.44-1.4-.242-1.084 6.217-1.469-.257L51.515 8l-1.355-.228Z" data-name="Path 757"></path><path d="M68.684 12.975a3.82 3.82 0 0 1 1.629 2.61 4 4 0 0 1-.7 3.066 3.86 3.86 0 0 1-2.6 1.683A4.053 4.053 0 0 1 62.339 17a4 4 0 0 1 .7-3.023 3.9 3.9 0 0 1 1.61-1.377 4.06 4.06 0 0 1 2.053-.371 4.3 4.3 0 0 1 1.982.741Zm-.841 1.183a2.42 2.42 0 0 0-1.911-.428 2.58 2.58 0 0 0-1.683 1.141 2.54 2.54 0 0 0-.413 2.21 2.5 2.5 0 0 0 1.012 1.426 2.35 2.35 0 0 0 1.9.4 2.5 2.5 0 0 0 1.665-1.112 2.6 2.6 0 0 0 .471-1.968 2.5 2.5 0 0 0-1.041-1.668Z" data-name="Path 758"></path><path d="m72.006 27.175 3.108-5.219-5.475 2.239-.984-1.212 7.571-2.923.941 1.166-4.163 7.172Z" data-name="Path 759"></path><path d="m80.661 26.62 1.953 3.764-1.283.67-1.269-2.467-1.326.7 1.269 2.467-1.255.656-1.269-2.467-1.725.9 1.269 2.452-1.283.67-1.939-3.764Z" data-name="Path 760"></path><path d="m84.011 34.081.344 1.464-2.837.67.6 2.538 2.837-.684.342 1.454-7.529 1.8-.342-1.454 3.308-.784-.6-2.538-3.308.784-.342-1.454Z" data-name="Path 761"></path><path d="m44.127 11.421-2.481-5.233 1.668-.029 1.625 3.764L46.622 6.1l1.511-.029-3.55 7.913-1.711.029Z" data-name="Path 762"></path><path d="m54.755 15.043 2.467-7.372 3.836 1.3-.456 1.369-2.439-.83-.471 1.412a5.7 5.7 0 0 1 1.754.827 2.29 2.29 0 0 1 .656 2.581 2.47 2.47 0 0 1-.7 1.126 2.58 2.58 0 0 1-2.581.271l-2.067-.684Zm2.5-2.795-.656 1.939.342.114c.228.071.428.114.6.157.556.114.97.014 1.169-.585.351-1.04-.69-1.373-1.46-1.625Z" data-name="Path 763"></path><path d="m31.697 75.1-3.707 6.83-3.55-1.953.684-1.269 2.253 1.24.71-1.307a5.9 5.9 0 0 1-1.583-1.112 2.57 2.57 0 0 1 .684-3.65 2.6 2.6 0 0 1 2.6.185zm-2.952 2.324.984-1.8-.328-.171a4 4 0 0 0-.57-.257c-.528-.214-.955-.185-1.255.371-.516.959.454 1.458 1.167 1.857Z" data-name="Path 764"></path><path d="m17.866 62.181-3.508 4.976 5.917-1.383.884 1.3-8.085 1.868-.841-1.24 4.748-6.83Z" data-name="Path 765"></path><path d="m9.525 62.769-1.383-3.608 1.358-.513.841 2.239 5.889-2.267.513 1.369Z" data-name="Path 766"></path><path d="m6.673 53.723-.257-1.483 7.1-4.306.271 1.511-1.469.884.542 3.123 1.683.342.271 1.511zm1.882-1.112 2.795.556-.356-2.025Z" data-name="Path 767"></path><path d="m5.846 45.237.143-1.568a5.1 5.1 0 0 1 .411-1.811 1.86 1.86 0 0 1 .841-.813 2.23 2.23 0 0 1 1.283-.2 2.13 2.13 0 0 1 1.3.556 2.16 2.16 0 0 1 .627 1.226 6.5 6.5 0 0 1-.029 1.568l3.265.314-.143 1.469-7.7-.741ZM9 44.054l.043-.471a3.3 3.3 0 0 0 0-.77.78.78 0 0 0-.228-.371.83.83 0 0 0-.428-.171.71.71 0 0 0-.684.285 2.05 2.05 0 0 0-.242.927l-.043.413Z" data-name="Path 768"></path><path d="m10.737 26.784.813-1.255 2.224 1.469-1.084-3.235.97-1.5 1.412 4.178 5.219-.157-.955 1.469-4.178.143 2.88 1.882-.813 1.255Z" data-name="Path 769"></path><path d="m20.019 15.285 5.276 5.689-1.069 1.012-3.308-3.565 1.182 5.548-.927.884-5.273-5.69 1.069-1.012 3.408 3.679-1.269-5.689Z" data-name="Path 770"></path><path fill-rule="evenodd" d="M11.207 39.001a4.07 4.07 0 0 1-3.75-4.349 4.01 4.01 0 0 1 3.394-3.565l-.4 1.526a2.61 2.61 0 0 0-1.6 2.167 2.714 2.714 0 0 0 5.4.485 2.57 2.57 0 0 0-.642-1.939l.442-1.454a3.968 3.968 0 0 1-2.844 7.129" data-name="Path 771"></path><path d="m25.592 71.179-4.28 4.72 1.283 1.169-.927 1.027-2.367-2.167 1.968-2.167-.242-.228a4.6 4.6 0 0 1-.984-1.183 2.4 2.4 0 0 1 .385-2.709 2.35 2.35 0 0 1 1.2-.741 2.25 2.25 0 0 1 1.2.029 3.3 3.3 0 0 1 1.155.77l1.611 1.483Zm-3.436 1.611 1.412-1.549-.271-.257a2.35 2.35 0 0 0-1.027-.642.84.84 0 0 0-.8.342c-.5.542-.342 1.183.456 1.911Z" data-name="Path 772"></path><path d="m75.314 59.187 5.661 2.894.78-1.554 1.226.627-1.454 2.866-2.6-1.326-.143.3a4.6 4.6 0 0 1-.884 1.269 2.26 2.26 0 0 1-1.212.585 2.53 2.53 0 0 1-2.51-1.226 2.2 2.2 0 0 1-.285-1.169 3.7 3.7 0 0 1 .428-1.326l.984-1.939Zm2.452 2.923-1.868-.955-.171.328a2.6 2.6 0 0 0-.342 1.155.84.84 0 0 0 .528.684q.984.492 1.711-.941Z" data-name="Path 773"></path><path d="m74.615 70.067-.713.7a5 5 0 0 1 .442 2.98 4.2 4.2 0 0 1-1.141 2.053 4.03 4.03 0 0 1-5.718-.157 3.96 3.96 0 0 1-1.155-2.894 3.9 3.9 0 0 1 1.212-2.823 4.13 4.13 0 0 1 2.6-1.169 3.54 3.54 0 0 1 2.766.97l.713-.7-2.353-2.452 1.055-1.027 5.375 5.6-1.055 1.027-2.025-2.11Zm-6.074 4.548a2.6 2.6 0 0 0 1.8.827 2.34 2.34 0 0 0 1.854-.7 2.45 2.45 0 0 0 .77-1.782 2.57 2.57 0 0 0-.784-1.911 2.44 2.44 0 0 0-1.868-.827 2.55 2.55 0 0 0-1.782.727 2.41 2.41 0 0 0-.756 1.8 2.75 2.75 0 0 0 .766 1.866" data-name="Path 774"></path><path d="M63.303 75.541a1.7 1.7 0 0 0-1.782-.014 1.132 1.132 0 0 0 .285 1.982c.5.171 1.141-.228 1.583-.456l.6 1.183c-.6.314-1.3.77-.884 1.568a.81.81 0 0 0 .528.471 1.11 1.11 0 0 0 1.326-1.1l1.126-.542a2.34 2.34 0 0 1-1.255 2.837 2.3 2.3 0 0 1-1.668.228 1.86 1.86 0 0 1-1.255-1.041 1.82 1.82 0 0 1 .1-1.911 2.335 2.335 0 0 1-2.3-3.123 2.892 2.892 0 0 1 4.791-.8Z" data-name="Path 775"></path><path fill-rule="evenodd" d="M80.932 49.982a3.983 3.983 0 0 1 1.055 7.856l.257-1.554a2.61 2.61 0 0 0-1.312-4.919 2.675 2.675 0 0 0-2.71 2.639 2.58 2.58 0 0 0 .813 1.868l-.314 1.5a3.97 3.97 0 0 1-1.9-3.365 4.045 4.045 0 0 1 4.111-4.025" data-name="Path 776"></path></g><!-- source: https://football-logos.cc --></svg>