<svg xmlns="http://www.w3.org/2000/svg" viewBox="111.99 0 180.63 180.49"><!-- Source: https://football-logos.cc --><g style="display:inline" data-source="https://football-logos.cc"><path d="M-6862.522-3.555c-6.39 8.567-20.467 5.33-26.405-.575-14.219-14.154-10.898-33.174-23.257-47.872-4.781-5.692-11.693-11.312-24.459-14.671 11.506-2.229 33.588.569 52.666 13.476 17.778 12.023 33.477 33.53 21.454 49.642m17.895-30.667c-5.194-12.12-13.664-21.636-24.336-29.189-29.97-21.228-72.629-20.498-102.043 1.654-2.28 1.712-4.464 3.553-6.693 5.337.071.116.149.239.213.355.698-.188 1.395-.388 2.1-.55 15.608-3.61 29.097.188 40.203 11.804 4.703 4.916 7.637 10.99 10.207 17.217 2.63 6.396 5.06 12.876 7.798 19.226 3.205 7.41 7.462 14.078 13.825 19.285 19.13 15.628 48.841 8.76 59.088-13.71 4.8-10.53 4.096-21.041-.362-31.43" style="fill:#01112b;fill-rule:evenodd" transform="translate(7123.543 78.864)"></path><path d="M-6962.925-29.842c10.623 1.168 14.965 14.945 12.882 23.055-4.999 19.431-23.08 26.204-29.488 44.307-2.486 7.005-3.829 15.812-.258 28.52-7.75-8.79-16.527-29.245-15.064-52.233 1.357-21.42 11.945-45.851 31.928-43.649m-35.507.11c-7.817 10.619-11.73 22.742-12.834 35.77-3.118 36.594 19.125 73.002 53.127 87.138 2.632 1.098 5.325 2.047 7.992 3.066.064-.12.13-.249.198-.364-.515-.507-1.041-1.007-1.537-1.531-11.022-11.628-14.581-25.182-10.194-40.642 1.856-6.546 5.606-12.151 9.672-17.523 4.182-5.508 8.538-10.885 12.625-16.465 4.765-6.517 8.356-13.565 9.621-21.69 3.782-24.41-17.193-46.546-41.756-43.995-11.51 1.196-20.216 7.13-26.914 16.236" style="fill:#01112b;fill-rule:evenodd" transform="translate(7123.543 78.864)"></path><path d="M-6934.59 71.058c-4.504-9.691 5.028-20.544 13.044-22.965 19.21-5.794 34.371 6.16 53.175 2.262 7.278-1.504 15.508-4.92 24.526-14.56-3.502 11.185-16.45 29.29-36.868 39.952-19.023 9.938-45.405 13.542-53.876-4.69m18.494 30.31c13.132 1.184 25.529-1.751 37.243-7.558 32.914-16.296 52.527-54.185 46.997-90.591-.424-2.82-1.007-5.616-1.518-8.424-.136.007-.281.017-.414.018-.167.704-.322 1.413-.514 2.11-4.232 15.45-13.98 25.518-29.477 29.777-6.56 1.805-13.297 1.502-20 .808-6.876-.722-13.733-1.662-20.623-2.266-8.043-.698-15.932-.118-23.536 3.01-22.837 9.415-30.9 38.825-15.991 58.511 6.988 9.225 16.574 13.596 27.833 14.606" style="fill:#01112b;fill-rule:evenodd" transform="translate(7123.543 78.864)"></path></g><!-- source: https://football-logos.cc --></svg>