<svg xmlns="http://www.w3.org/2000/svg" viewBox="0 0 404.6 304.94"><!-- Source: https://football-logos.cc --><g style="display:inline" data-source="https://football-logos.cc"><g style="display:inline"><path d="M-6862.522-3.555c-6.39 8.567-20.467 5.33-26.405-.575-14.219-14.154-10.898-33.174-23.257-47.872-4.781-5.692-11.693-11.312-24.459-14.671 11.506-2.229 33.588.569 52.666 13.476 17.778 12.023 33.477 33.53 21.454 49.642m17.895-30.667c-5.194-12.12-13.664-21.636-24.336-29.189-29.97-21.228-72.629-20.498-102.043 1.654-2.28 1.712-4.464 3.553-6.693 5.337.071.116.149.239.213.355.698-.188 1.395-.388 2.1-.55 15.608-3.61 29.097.188 40.203 11.804 4.703 4.916 7.637 10.99 10.207 17.217 2.63 6.396 5.06 12.876 7.798 19.226 3.205 7.41 7.462 14.078 13.825 19.285 19.13 15.628 48.841 8.76 59.088-13.71 4.8-10.53 4.096-21.041-.362-31.43" style="fill:#fff;fill-rule:evenodd" transform="translate(7123.543 78.864)"></path><path d="M-6962.925-29.842c10.623 1.168 14.965 14.945 12.882 23.055-4.999 19.431-23.08 26.204-29.488 44.307-2.486 7.005-3.829 15.812-.258 28.52-7.75-8.79-16.527-29.245-15.064-52.233 1.357-21.42 11.945-45.851 31.928-43.649m-35.507.11c-7.817 10.619-11.73 22.742-12.834 35.77-3.118 36.594 19.125 73.002 53.127 87.138 2.632 1.098 5.325 2.047 7.992 3.066.064-.12.13-.249.198-.364-.515-.507-1.041-1.007-1.537-1.531-11.022-11.628-14.581-25.182-10.194-40.642 1.856-6.546 5.606-12.151 9.672-17.523 4.182-5.508 8.538-10.885 12.625-16.465 4.765-6.517 8.356-13.565 9.621-21.69 3.782-24.41-17.193-46.546-41.756-43.995-11.51 1.196-20.216 7.13-26.914 16.236" style="fill:#fff;fill-rule:evenodd" transform="translate(7123.543 78.864)"></path><path d="M-6934.59 71.058c-4.504-9.691 5.028-20.544 13.044-22.965 19.21-5.794 34.371 6.16 53.175 2.262 7.278-1.504 15.508-4.92 24.526-14.56-3.502 11.185-16.45 29.29-36.868 39.952-19.023 9.938-45.405 13.542-53.876-4.69m18.494 30.31c13.132 1.184 25.529-1.751 37.243-7.558 32.914-16.296 52.527-54.185 46.997-90.591-.424-2.82-1.007-5.616-1.518-8.424-.136.007-.281.017-.414.018-.167.704-.322 1.413-.514 2.11-4.232 15.45-13.98 25.518-29.477 29.777-6.56 1.805-13.297 1.502-20 .808-6.876-.722-13.733-1.662-20.623-2.266-8.043-.698-15.932-.118-23.536 3.01-22.837 9.415-30.9 38.825-15.991 58.511 6.988 9.225 16.574 13.596 27.833 14.606" style="fill:#fff;fill-rule:evenodd" transform="translate(7123.543 78.864)"></path></g><path d="M-7120.89 159.611q0 19.383 20.34 19.383 11.056 0 16.656-5.601 5.16-5.085 5.16-13.93v-34.858h-10.318v34.416q0 11.424-10.76 11.424-6.044 0-8.55-3.095-2.21-2.875-2.21-8.402v-34.343h-12.971q.957.737 1.769 2.948.885 2.358.884 4.864zm48.788 18.793 32.648-.074 3.538-8.843-14.813.073h-6.707000000000001q-1.032 0-1.658.037a14 14 0 0 0-1.142.11 45 45 0 0 0 1.584-2.21 62 62 0 0 0 1.437-2.211l19.825-32.427v-8.254h-33.533v8.696h17.246q1.253 0 2.1-.037.847-.036 1.474-.074.627-.036 1.29-.036a47 47 0 0 0-1.769 2.468q-.81 1.216-1.621 2.617l-19.899 32.353zm68.023-28.742q3.686-1.4 5.97-4.717 2.285-3.242 2.285-7.296 0-13.044-17.54-13.044h-20.268q1.253.663 2.064 3.316.663 2.137.663 4.422v38.397q.001 1.106-.184 2.247a19 19 0 0 1-.479 2.175q-.81 2.58-2.064 3.242h17.91q10.906 0 16.286-5.38 4.57-4.422 4.57-11.202 0-4.275-2.285-7.59-2.431-3.39-6.928-4.423zm-10.98-16.361q8.622 0 8.622 5.97 0 3.758-2.358 5.453-1.18.81-3.206 1.29t-4.827.479h-3.759v-13.192zm-5.528 36.26v-14.888h4.053q5.307 0 7.96 1.4 3.021 1.695 3.021 5.97 0 3.538-2.579 5.528t-7.296 1.99zm58.074 8.843 3.685-8.77h-18.72v-14.666h15.404v-8.622h-15.403v-12.971h17.466v-8.77h-30.658q1.327.663 2.137 3.242.369 1.032.553 2.174.184 1.143.184 2.248v38.397q0 2.285-.958 4.79a8.2 8.2 0 0 1-.885 1.806q-.515.773-.958 1.142zm19.604-23.51h1.474q1.547 0 3.021 2.58l11.35 20.93h12.086l-15.329-25.794q-.737-1.253-1.363-2.027-.627-.774-.995-1.068l17.098-24.91h-11.94l-15.402 23.583v-23.583h-13.045q1.327.663 2.137 3.242.369 1.032.553 2.211t.184 2.211v38.47q.001 1.107-.184 2.248a12.3 12.3 0 0 1-.553 2.175q-.81 2.358-2.137 3.242h13.045zm43.04-30.29h-13.193q1.327.664 2.137 3.243.369 1.032.553 2.211t.185 2.211v46.135h10.317zm17.982 54.316q9.654 0 14.96-4.643 5.012-4.422 5.012-12.16 0-6.413-3.612-10.244-1.179-1.253-3.132-2.432t-4.606-2.285a85 85 0 0 1-4.127-1.805q-1.62-.774-2.284-1.29-2.802-1.99-2.801-5.233 0-2.948 2.21-4.643 2.286-1.62 6.413-1.621a32.7 32.7 0 0 1 9.654 1.769v-9.065a47 47 0 0 0-4.938-.848 58 58 0 0 0-4.053-.331q-8.991-.37-14.297 3.98-5.307 4.274-5.307 11.496 0 7.518 4.348 11.276 1.18.958 3.317 2.137t5.454 2.432q1.842.738 3.132 1.474 1.29.738 2.1 1.327 2.137 1.916 2.137 5.011 0 6.78-9.212 6.78-7.885 0-11.718-1.547l3.98 9.507q1.548.958 7.37.958m47.608-45.545h11.792l3.538-8.77h-38.913v8.77h13.487v45.03h10.096zm39.06 12.307a80 80 0 0 0 1.4-4.643q.59-2.211.959-4.274h.074q.368 2.137.958 4.385t1.326 4.385l4.643 13.781h-13.855zm27.563 32.722q-1.03-.737-2.063-2.58-1.032-1.842-2.064-4.937l-15.697-46.282h-10.54l-15.697 46.282q-2.063 6.264-4.127 7.517h12.234l3.464-10.907h18.793l3.537 10.907zm15.403-19.309q0-6.706-.147-11.755a705 705 0 0 0-.295-8.585 243 243 0 0 0 2.874 6.596q1.328 2.91 2.432 4.974l14.961 28.08h13.487v-53.8h-10.318v16.655q0 7.665.148 13.303.147 5.638.442 9.175a166 166 0 0 0-3.096-6.3 1487 1487 0 0 1-3.242-6.302l-14.15-26.531h-16.214q1.252.663 2.064 3.242.368 1.032.552 2.211t.185 2.211v38.47q0 1.107-.185 2.248a12.2 12.2 0 0 1-.552 2.175q-.369 1.179-.921 2.026-.554.847-1.143 1.216h13.118zM-7045.322 225.948q5.548 0 8.598-2.669 2.88-2.54 2.88-6.988 0-3.686-2.075-5.888-.678-.72-1.8-1.397-1.122-.678-2.648-1.313-1.44-.594-2.371-1.038-.932-.446-1.313-.741-1.61-1.144-1.61-3.008 0-1.694 1.27-2.668 1.314-.932 3.686-.932a18.8 18.8 0 0 1 5.548 1.017v-5.21a27 27 0 0 0-2.838-.487 34 34 0 0 0-2.33-.19q-5.166-.213-8.216 2.287-3.05 2.456-3.05 6.607 0 4.32 2.5 6.48.677.55 1.905 1.229 1.23.678 3.135 1.398a14.5 14.5 0 0 1 1.8.847q.74.423 1.207.762 1.228 1.101 1.228 2.88 0 3.897-5.294 3.897-4.532 0-6.735-.89l2.287 5.464q.89.55 4.236.55m15.375-11.097q0 11.14 11.69 11.14 6.353 0 9.572-3.22 2.965-2.923 2.965-8.005v-20.034h-5.93v19.78q0 6.565-6.183 6.565-3.474 0-4.914-1.779-1.27-1.651-1.27-4.829v-19.737h-7.455q.55.423 1.016 1.694.51 1.356.509 2.796zm27.658-20.12q.762.382 1.228 1.865.212.592.318 1.25.105.656.106 1.29v22.068q0 1.356-.55 2.71-.212.594-.51 1.06-.295.465-.55.677h7.54v-10.673h1.185q5.676 0 8.937-3.135 3.092-2.922 3.092-7.581 0-4.532-3.092-7.031-3.007-2.5-8.682-2.5zm7.582 4.872h1.27q5.802 0 5.803 5.04 0 2.456-1.737 3.94-1.695 1.44-4.447 1.44h-.89zm31.597 26.048 2.117-5.04h-10.758v-8.429h8.852v-4.955h-8.852v-7.455h10.038v-5.04h-17.62q.763.38 1.229 1.864.211.592.317 1.25.106.656.106 1.29v22.068q0 1.313-.55 2.753-.211.593-.509 1.038-.295.444-.55.656zm20.542-11.86q-.847-1.524-1.567-1.863 2.414-.762 4.023-3.007 1.653-2.287 1.652-5.549 0-8.64-11.14-8.64h-9.74q.761.38 1.227 1.864.213.592.318 1.25.106.655.106 1.249v22.067q0 .677-.148 1.376-.15.698-.36 1.334-.466 1.314-1.101 1.78h7.539v-12.665h.805q1.27 0 1.99 1.525l5.252 11.14h7.328zm-9.191-14.273h1.567q5.55 0 5.549 4.447 0 2.203-1.568 3.431-1.524 1.27-4.15 1.27h-1.398zm32.02 26.133 2.118-5.04h-10.292v-25.88h-7.582q.72.425 1.186 1.865.211.592.318 1.25.105.656.106 1.29v22.068q0 .677-.149 1.377-.149.698-.36 1.376-.21.593-.508 1.038-.297.444-.55.656zm19.441 0 2.118-5.04h-10.758v-8.429h8.852v-4.955h-8.852v-7.455h10.038v-5.04h-17.62q.763.38 1.229 1.864.211.592.317 1.25.106.656.106 1.29v22.068q0 1.313-.55 2.753-.212.593-.509 1.038-.295.444-.55.656zm15.884-18.806q.465-1.396.804-2.668.34-1.27.551-2.456h.042q.212 1.227.55 2.52.339 1.29.763 2.52l2.669 7.92h-7.963zm15.84 18.806q-.593-.423-1.185-1.482-.594-1.059-1.186-2.838l-9.022-26.6h-6.057l-9.022 26.6q-1.185 3.6-2.372 4.32h7.032l1.99-6.268h10.8l2.034 6.268zm21.517-5.464q-.762.255-1.758.403a15 15 0 0 1-2.181.148q-4.701 0-7.158-2.71-2.499-2.754-2.499-7.625 0-5.251 2.88-8.047 2.71-2.67 7.413-2.669 4.363 0 7.75 1.991v-5.887q-3.43-1.398-7.37-1.398-8.047 0-12.621 4.363-4.49 4.278-4.49 11.647 0 3.6 1.017 6.438t3.05 4.914q4.192 4.32 11.35 4.32 5.845 0 10.505-2.5v-13.214h-7.455q.297.212.55.678.255.465.509 1.059.508 1.354.508 2.753zm10.42-5.336q0 11.14 11.69 11.14 6.353 0 9.572-3.22 2.964-2.923 2.965-8.005v-20.034h-5.93v19.78q0 6.565-6.184 6.565-3.473 0-4.913-1.779-1.27-1.651-1.27-4.829v-19.737h-7.455q.55.423 1.016 1.694.51 1.356.509 2.796zm43.88 10.8 2.117-5.04h-10.758v-8.429h8.852v-4.955h-8.852v-7.455h10.038v-5.04h-17.62q.763.38 1.229 1.864.212.592.318 1.25.105.656.105 1.29v22.068q0 1.313-.55 2.753-.211.593-.508 1.038-.297.444-.55.656z" style="fill:#fff;fill-rule:evenodd" transform="translate(7123.543 78.864)"></path></g><!-- source: https://football-logos.cc --></svg>