<svg xmlns="http://www.w3.org/2000/svg" viewBox="140 140.05 800 799.9"><!-- Source: https://football-logos.cc --><path fill="#FFF" d="M932.11 540c0 216.563-175.547 392.11-392.11 392.11-216.562 0-392.11-175.547-392.11-392.11 0-216.562 175.548-392.11 392.11-392.11S932.11 323.439 932.11 540" data-source="https://football-logos.cc"></path><path fill="#ED1C24" d="M540.05 140.05C319.696 140 140.103 319.442 140 539.798c-.102 220.558 179.441 400.152 400 400.152 220.355.051 399.95-179.39 400-399.746 0-220.61-179.34-400.05-399.95-400.152m-.253 782.097C329 921.793 157.953 750.746 157.902 540.152c-.05-210.797 171.149-382.097 381.946-382.148 210.75-.102 382.25 171.2 382.398 381.844.106 210.644-171.902 382.601-382.45 382.3"></path><path fill="#ED1C24" d="M781.145 580.766c-.051 1.718-1.774 7.23-2.125 8.949-27.211 130.84-157.29 215.703-287.875 187.687-96.348-20.636-171.301-99.687-189.86-196.636-38.133.101-120.117.199-121.332.25 16.387 164.875 157.34 317.511 352.613 322.367 193.45 4.804 350.133-140.903 370.211-322.567 0 0-83.55.051-121.632-.05M230.582 619c-.508-1.922-.96-3.492-1.52-5.512 9.31-2.582 18.41-5.058 28.07-7.742 1.415 5.465 3.036 10.469 3.946 15.578.961 5.008-2.629 9.559-7.789 10.875-5.059 1.262-9.965-1.113-11.887-6.07-1.113-2.832-1.82-5.867-2.78-9.203-2.68.707-5.259 1.363-8.04 2.074m24.68 41.926a2626 2626 0 0 1-5.817 11.277c-2.328-3.437-3.39-6.371-.91-9.71.91-1.165 1.262-2.68 2.125-3.946 1.82-2.68 1.922-5.258-.61-8.192-2.679 1.063-5.46 2.125-8.445 3.29-.757-1.774-1.363-3.29-2.175-5.262 9.054-3.692 17.855-7.23 27.007-10.926 1.973 5.11 4.098 9.813 5.665 14.668 1.367 4.297-.504 8.547-4.047 10.773-3.844 2.426-8.04 2.024-11.63-1.011-.304-.305-.655-.559-1.163-.961m2.883 26.449c-.051-7.586 7.382-14.617 15.578-14.766 8.09-.152 15.12 7.032 15.12 15.473 0 7.992-7.433 14.871-16.132 14.871-7.84 0-14.516-7.129-14.566-15.578m20.48 35.504c-1.16-1.465-2.172-2.832-3.488-4.55a15322 15322 0 0 1 23.52-16.993c4.144 5.664 8.14 11.176 12.288 16.941-1.52 1.063-2.832 2.075-4.402 3.239a3385 3385 0 0 1-9-12.192 447 447 0 0 1-6.02 4.352c2.832 3.894 5.461 7.636 8.344 11.582-1.363 1.012-2.629 1.972-4.246 3.187a1830 1830 0 0 1-8.496-11.633c-2.883 2.07-5.516 3.942-8.5 6.067m34.95 34.039c-1.368 1.266-2.63 2.426-4.15 3.844a5840 5840 0 0 1-14.562-16.285c7.23-6.477 14.262-12.747 21.645-19.372 4.906 5.415 9.61 10.723 14.566 16.235-1.469 1.316-2.73 2.43-4.148 3.691-3.64-4.043-7.082-7.789-10.723-11.785-1.566 1.317-3.035 2.582-4.703 3.996 3.492 3.895 6.777 7.586 10.32 11.582a390 390 0 0 1-3.945 3.59 3882 3882 0 0 1-10.371-11.476c-1.567 1.312-2.93 2.578-4.55 3.992 3.538 3.996 6.929 7.84 10.62 11.988m22.809 3.742c.66 1.367 1.922 2.528 2.781 3.844 1.266 1.77 2.633 3.488 3.492 5.46 1.922 4.45-.91 9.966-5.613 11.079-5.414 1.266-9.309-1.57-12.695-5.16-3.137-3.29-5.11-7.082-3.34-11.785 0-.102.152-.2.61-.606 1.362.356 2.78.707 4.347 1.113-.555 4.704 1.52 8.043 5.363 10.317 1.77 1.012 3.992 1.719 5.156-.305.707-1.262.508-3.539-.152-4.957-1.062-2.07-2.934-3.742-4.297-5.762-2.883-4.25-2.781-7.789.102-10.875 2.832-3.035 7.027-3.289 11.328-.808 5.664 3.336 8.344 8.293 7.281 13.605-2.629.25-4.297-.101-5.41-3.34-.758-2.43-3.34-4.296-5.461-6.02-.61-.503-2.785.052-3.543.813-.555.555-.402 2.375.05 3.387m24.833 20.332c1.367 1.922 3.289 3.488 4.855 5.258 2.125 2.43 4.2 5.008 3.543 8.547-.96 5.21-5.867 8.297-11.027 7.031-8.043-1.973-13.402-9.004-11.836-16.234 1.672.304 3.238.558 4.855.808-.101 5.11 2.48 8.246 6.88 9.711 1.316.407 3.742 0 4.452-.96.708-.91.403-3.286-.355-4.5-1.418-2.126-3.59-3.794-5.258-5.817-3.289-4.047-3.492-7.434-.863-10.824 2.48-3.137 6.578-3.844 10.926-1.922 6.12 2.73 9.558 7.586 8.8 12.945-2.578.254-4.351.254-5.664-3.031-.91-2.277-3.843-3.844-6.171-5.363-.606-.403-2.63.203-3.188 1.011-.555.711-.504 2.532.05 3.34m10.118 29.637c5.059-8.297 9.914-16.336 15.121-24.832 1.719 1.113 3.137 1.973 4.856 3.031-5.11 8.348-10.016 16.442-15.07 24.735-1.77-1.063-3.188-1.922-4.907-2.934m34.441 17.652c-8.343.098-15.68-6.629-15.78-14.414-.048-8.902 6.827-16.289 15.124-16.289 8.09 0 15.223 6.781 15.274 14.567.05 8.296-6.98 16.085-14.618 16.136m43.09 17.043c-3.238-.152-4.855-1.469-5.765-4.25-1.973-6.168-4.301-12.238-6.88-19.37-2.222 6.323-4.097 11.734-6.116 17.5-1.82-.556-3.391-1.063-5.313-1.669.457-1.62.86-3.035 1.316-4.351 2.223-6.625 4.45-13.2 6.778-19.774.402-1.113 1.363-2.883 2.12-2.933 1.923-.051 3.544.859 4.25 3.136 1.821 5.664 3.946 11.176 5.919 16.79.355.91.707 1.87 1.367 3.542 2.172-6.172 4.094-11.734 6.168-17.55 1.77.554 3.336 1.062 5.36 1.77-3.133 9.202-6.169 18.206-9.204 27.16m35.504 5.003c-.101-.91-1.566-2.121-2.629-2.426-2.379-.757-4.957-.91-7.336-1.617-3.132-.91-5.41-.808-7.586 2.375-.808 1.164-4.043.707-6.168.961a10 10 0 0 1-.355-1.164q5.161-7.2 10.316-14.414c2.024-2.832 4.149-5.512 5.97-8.395 1.265-2.074 2.73-2.628 5.058-2.12 2.226.452 3.136 1.515 3.64 3.742 1.871 9.152 4.047 18.207 6.223 27.765-3.844-.152-6.727-.508-7.133-4.707m38.133 7.942c-6.926-.606-13.453-1.211-20.48-1.82.91-9.763 1.718-19.118 2.628-28.93 2.024.203 3.743.355 5.715.558-.707 7.942-1.316 15.422-2.023 23.414 5.008.559 9.61 1.012 14.515 1.52-.101 1.82-.203 3.336-.355 5.258m40.816-16.286c.098 1.672.204 3.086.305 5.008-4.656.305-9.156.606-13.96.91v10.368h-5.563a579 579 0 0 1-.762-13.25c-.25-4.196-.3-8.446-.606-12.645-.152-2.023.457-2.883 2.582-2.883 4.7-.101 9.356-.406 14.06-.605 4.905-.153 4.956-.051 4.198 5.36-4.754.253-9.613.456-14.465.706v7.031Zm24.426 13.301c-8.394.05-14.312-6.27-14.414-15.324-.101-8.547 6.473-15.07 15.223-15.07 8.195-.051 14.515 6.625 14.617 15.324.102 9.055-6.07 15.02-15.426 15.07m38.692-8.797c-7.993.047-14.364-6.781-14.516-15.527-.102-8.297 6.828-15.024 15.477-15.024 8.043 0 14.617 7.083 14.668 15.883.101 8.344-6.575 14.617-15.63 14.668m35.856-12.496c-3.133-7.23-6.168-14.308-9.406-21.695-2.832 1.113-5.41 2.125-8.344 3.289a249 249 0 0 1-2.074-4.707c7.332-3.133 14.414-6.219 21.95-9.457.757 1.723 1.366 3.035 2.124 4.754-2.781 1.265-5.41 2.48-8.242 3.742 3.082 7.336 6.117 14.414 9.203 21.75-1.82.809-3.336 1.516-5.21 2.324m37.831-19.015c-4.55 2.882-9.254 5.414-14.21 8.347-4.806-8.5-9.458-16.742-14.415-25.492 5.16-2.73 10.012-5.715 15.172-7.937 6.219-2.735 12.492 3.59 10.066 9.91 4.246.71 6.774 2.832 7.536 6.828.707 3.793-1.266 6.472-4.149 8.344m32.32-25.844c-.66-.504-2.48-.254-3.289.304-2.984 1.922-5.867 3.997-8.547 6.27-.812.61-1.52 2.277-1.214 3.086 1.566 4.098-1.012 5.516-4.352 7.184-.656-3.036-1.363-5.817-1.969-8.649-1.418-6.473-2.734-12.95-4.199-19.371-.504-2.125.102-3.387 1.871-4.602 1.567-1.062 2.832-1.773 4.856-.558 8.242 4.855 16.59 9.457 25.136 14.363-2.734 2.785-4.957 4.656-8.293 1.973m16.485-8.848c-6.574-7.133-12.996-14.164-19.723-21.394 1.516-1.317 2.73-2.43 4.246-3.844a2814 2814 0 0 1 16.035 17.348c3.743-3.34 7.23-6.528 10.973-9.864a249 249 0 0 1 3.54 3.895c-5.005 4.601-9.86 9.054-15.071 13.86m22.203-21.243c-7.281-6.473-14.363-12.848-21.695-19.422 1.363-1.465 2.476-2.73 3.843-4.25 5.918 5.262 11.633 10.371 17.649 15.73 3.34-3.69 6.574-7.183 9.914-10.874 1.363 1.265 2.527 2.277 3.945 3.543-4.55 5.105-8.953 10.011-13.656 15.273m25.137-36.566c-7.993 1.363-16.942-5.516-17.852-13.809-.101-.656-.101-1.367-.05-2.023 0-.305.05-.555.05-.86.047-.25.098-.555.149-.86 0-.202.05-.402.101-.554l.152-.61.153-.605c.101-.254.203-.504.25-.758.105-.203.203-.457.304-.656.051-.254.153-.457.254-.71.153-.204.254-.454.356-.657s.25-.457.351-.66c.153-.25.254-.504.407-.707.203-.254.355-.504.504-.758.304-.406.558-.758.859-1.113.203-.254.457-.504.66-.758.504-.555 1.063-1.012 1.566-1.469.102-.097.204-.148.305-.25.102-.05.254-.152.352-.254.203-.101.355-.203.558-.355.102-.051.203-.149.301-.2a.8.8 0 0 0 .356-.203c.253-.152.507-.253.761-.355.098-.05.2-.102.352-.152 1.113-.453 2.226-.707 3.336-.707l.203.406c.101.2.203.351.254.555.152.203.203.457.304.656.051.152.051.304.102.457.047.152.047.254.047.402.05.106.05.254.05.406 0 .102 0 .254-.05.356 0 .101 0 .2-.047.305 0 .097-.05.199-.05.3a.4.4 0 0 0-.102.203c-.051.051-.051.102-.102.153 0 .05-.05.101-.05.152-.102.098-.204.25-.305.403a.4.4 0 0 0-.2.203 5 5 0 0 0-.203.203c-.152.101-.304.25-.507.402a9.7 9.7 0 0 1-1.317.758c-4.043 1.976-5.664 7.285-4.297 11.23 1.465 4.094 6.219 7.18 10.469 6.828 4.148-.355 8.246-4.148 8.344-8.648.152-3.996 2.176-4.402 5.465-4.148 1.617 8.144-4.504 17.093-12.543 18.46m21.242-26.25c-8.598-4.55-16.996-8.949-25.64-13.554.91-1.77 1.667-3.235 2.628-5.106 7.129 3.793 13.906 7.282 20.887 10.973 2.375-4.398 4.652-8.547 7.078-12.945 1.57.91 2.988 1.617 4.605 2.527-3.187 6.02-6.273 11.836-9.558 18.106m19.168-39.043c-2.531 6.27-8.094 9.66-14.11 7.89-6.07-1.824-11.937-4.402-18.261-6.777.91-2.125 1.52-3.594 2.226-5.363 5.211 2.074 10.168 3.996 15.172 5.968 2.934 1.114 5.817 1.418 8.297-.96 3.844-3.692 2.984-9.255-1.973-11.532-4.25-1.972-8.648-3.59-13-5.308a81 81 0 0 0-3.285-1.418c.758-1.82 1.363-3.391 2.172-5.313 6.274 2.633 12.39 4.758 18.16 7.692 5.664 2.93 7.13 8.8 4.602 15.12m12.39-41.218c-1.164 5.058-2.48 10.113-3.843 15.625-9.508-2.477-18.715-4.903-28.325-7.383 1.57-5.613 2.883-10.875 4.653-16.031.96-2.883 3.187-4.957 6.578-5.211 3.437-.254 5.41.86 7.785 4.555 3.34-2.782 6.781-3.036 10.168-.711 3.29 2.226 3.742 5.613 2.984 9.156"></path><path fill="#ED1C24" d="M761.066 495.848C736.687 376.69 619.707 294.762 494.18 321.414 366.93 348.371 289.805 477.133 325.156 602.31c8.801 31.152 23.82 59.02 44.707 83.754 1.164 1.363 2.024 2.882 4.453 1.617 15.172-7.637 29.082-16.89 40.055-30.043 13.504-16.082 19.219-35.403 15.93-53.254-9.305 13.656-23.922 24.226-32.621 23.719 13-17.043 19.828-36.567 23.316-57.957-13.453 4.703-26.148 9.101-38.84 13.503-.203-.304-.355-.66-.558-1.015 1.367-2.223 2.578-4.551 4.097-6.625 5.461-7.485 11.278-14.766 16.59-22.301 6.774-9.61 13.453-19.32 19.621-29.285 2.477-3.945 3.492-8.8 5.211-13.2-.305-.202-.61-.406-.91-.554-12.14 5.46-24.277 10.922-36.465 16.383 13.047-16.336 24.176-33.633 35.805-51.739-16.688 7.993-24.68 9.36-32.215 5.211 6.727-6.523 13.352-12.796 19.875-19.218 6.422-6.32 12.695-12.797 19.016-19.22-.149-.253-.301-.554-.453-.808H418.62c1.11-1.617 2.375-2.73 3.84-3.441 11.078-5.41 22.156-10.82 33.281-16.133 17.45-8.394 36.567-11.48 54.926-16.992 11.531-3.438 23.21-3.488 34.945-.91 2.633.605 5.262 1.215 8.094 1.82 1.012-8.851 4.297-16.488 9.05-24.226 3.34 7.992 6.528 15.324 9.458 22.71 2.125 5.31 5.465 9.61 9.863 13.352 5.309 4.5 10.469 9.203 15.324 14.211 1.973 2.023 3.188 4.906 4.301 7.586 1.871 4.5 2.73 9.508 5.055 13.707 5.312 9.61 12.949 17.348 21.699 23.973 2.73 2.074 5.41 4.246 7.688 6.828 4.097 4.601 4.398 9.05 1.566 14.515-6.727 12.793-26.5 21.797-40.512 18.407-1.21-.301-2.781-1.465-3.183-2.579-3.594-10.722-11.786-16.738-21.446-21.242-1.316-.605-2.933-.453-4.351-.707-3.59-.61-7.383-.66-10.668-2.023-6.07-2.528-11.836-5.867-17.754-8.852-1.063-.554-2.074-1.21-3.54-2.023-.706 2.328-1.468 4.097-1.769 5.969-1.215 7.28 1.012 14.058 3.692 20.636 5.562 13.403 13.554 25.387 21.644 37.325 7.739 11.48 15.578 22.859 23.317 34.34 5.058 7.534 7.082 15.98 7.082 25.034-.051 11.934-2.782 23.313-6.727 34.493-1.773 5.058-3.894 10.062-5.414 14.008 6.578-5.157 13.656-11.075 21.191-16.438 5.465-3.89 11.836-5.965 18.766-5.46 4.5.355 7.938 1.87 10.621 6.12 9.153 14.668 18.762 29.031 28.219 43.442 4.754 7.285 8.195 15.023 9.156 23.77.606 5.616.098 11.077-1.922 16.792-9.71-6.371-19.02-12.492-28.73-18.863 2.734-1.922 1.87-3.442.508-5.211-5.512-7.028-10.875-14.11-16.336-21.192-1.973-2.628-3.996-5.207-6.121-7.988-.758.758-1.262 1.211-1.668 1.77-14.817 18.761-29.637 37.476-44.352 56.289-2.078 2.629-4.504 4.25-7.84 4.25-2.379 0-4.808-.051-7.133-.457-5.714-1.012-10.925-3.086-15.476-6.88-5.41-4.398-11.125-8.343-16.738-12.491-.153.152-.254.304-.407.457a5523 5523 0 0 0 16.844 21.441c-15.883 9.762-31.309 19.168-47.187 28.879 25.234 5.969 50.117 7.387 75.253 4.805 25.137-2.578 49.16-9.254 72.274-20.328-5.309-8.348-10.367-16.235-15.477-24.329 3.239-4.296 6.422-8.597 9.762-13.046 10.215 6.722 20.078 13.199 30.043 19.773a781 781 0 0 1-3.187 6.168c1.16-.656 1.668-.91 2.175-1.211 79.2-49.414 119.508-143.734 100.746-235.277m-77.785 159.718c-2.781-3.136-4.957-5.714-7.336-8.144-4.297-4.45-8.648-8.8-13.097-13.098-1.418-1.418-1.871-2.582-.91-4.453 1.82-3.539 3.386-7.23 5.21-11.226 9.606 6.27 18.914 12.39 29.028 19.015-4.25 5.918-8.242 11.43-12.895 17.906m15.375-24.988c-9.761-6.371-19.02-12.437-28.625-18.71 3.235-3.743.606-5.665-2.027-7.74-12.188-9.66-24.324-19.37-36.512-29.081-.61-.504-1.265-.86-2.176-1.465-10.925 14.11-21.8 28.168-32.671 42.23-.254-.101-.508-.152-.707-.253.148-1.618.253-3.286.453-4.907 1.265-12.39-.102-24.226-6.727-35.047-.91-1.418-1.262-2.43.102-3.843 9.457-10.114 18.613-20.535 28.273-30.446 9.809-10.117 14.563-9.964 24.578.149 13.504 13.605 27.008 27.312 40.36 41.117 6.32 6.527 11.785 13.656 15.222 22.203 3.239 8.297 3.438 16.64.457 25.793" data-source="https://football-logos.cc"></path><path fill="#ED1C24" d="M874.254 522.703h30.598c-2.532-51.789-15.075-100.644-38.387-146.617-31.711-62.563-77.637-112.227-137.77-148.387-120.972-72.832-273.558-69.594-389.883 9.758-100.09 68.277-152.484 164.473-161.64 285.246h27.465c9.558-108.23 58.465-193.5 146.922-256.668 3.64 5.36 6.824 10.063 10.214 14.969-40.511 27.715-73.082 62.512-97.41 104.894-24.324 42.329-38.031 87.95-41.468 136.805h19.62c9.005-94.324 51.84-168.871 128.817-224.402 3.64 5.308 6.879 10.012 10.063 14.668-71.918 51.84-112.125 121.531-120.973 209.734h38.336c5.105-60.793 28.574-113.086 71.867-155.82 43.441-42.84 96.04-66.203 156.934-69.746 53.457-3.086 103.171 9.914 147.629 39.957 65.699 44.402 101.203 107.015 108.835 185.558h34.395c-8.852-88.304-49.11-157.945-120.926-209.683 3.285-4.809 6.473-9.457 10.063-14.668 77.027 55.582 119.812 130.23 128.816 224.351h19.926c-9.356-102.16-55.684-182.476-138.98-241.902 3.238-4.754 6.421-9.457 9.964-14.715 88.559 63.219 137.41 148.488 146.973 256.668M408.554 298.2c-7.183-13.707-14.21-27.008-21.445-40.715-5.207 2.735-10.214 5.313-15.523 8.094-1.57-2.883-2.984-5.562-4.656-8.7 13.605-7.128 27.007-14.16 40.715-21.394 1.566 2.883 2.984 5.567 4.652 8.653-5.106 2.73-10.113 5.41-15.527 8.293 7.082 13.504 14.113 26.855 21.343 40.71-3.34 1.77-6.32 3.34-9.558 5.06m77.633-42.231c-1.317 10.316-8.7 17.55-19.926 19.773-13.555 2.684-24.074-3.437-28.121-16.687-3.188-10.47-5.97-21.09-9.051-32.168 3.64-.961 6.777-1.871 10.316-2.832a743 743 0 0 1 3.035 10.62c1.973 6.93 3.743 13.86 5.766 20.79 2.172 7.383 6.977 11.074 13.555 10.82 10.164-.453 15.625-7.637 13.097-17.547-2.328-9.207-5.007-18.308-7.484-27.465-.406-1.363-.762-2.832-1.215-4.601 3.488-.961 6.727-1.871 10.418-2.883 3.188 11.988 6.32 23.668 9.258 35.352.555 2.175.605 4.601.351 6.828m58.567 7.433v.051c2.832 2.985-13.856.707 0-.05-3.39-3.54-9.813-10.216-12.996-13.958-2.176-2.629-2.735-3.34-2.735-3.34s-8.796.051-10.62.051v18.563c-2.833.203-5.762.605-8.645.457-.711-.051-1.922 0-1.922 0s-.559-13.91-.762-19.524c-.453-11.18-.808-22.355-1.312-33.582-.102-2.023 0-2.933 0-2.933s20.23-.86 28.976-.707c13.301.25 21.649 12.441 17.551 24.98-1.719 5.11-3.844 7.133-11.984 11.18 5.715 5.969 11.379 12.644 17.144 18.613-5.816 0-9.914.05-12.695.2m56.441 8.042c-17.953-.304-29.937-11.785-29.789-28.523.153-17.195 12.543-30.094 28.727-29.992 16.945.152 29.133 12.187 29.031 28.625-.101 16.843-12.543 30.144-27.969 29.89m79.809 29.082c-8.242-6.222-10.063-7.636-10.266-7.789.102 0 .403.25.403.25s-5.766-27.511-9.051-41.367c-5.414 11.43-10.469 22-15.68 33.024-3.234-1.567-6.32-2.985-9.762-4.602 7.993-16.941 15.832-33.582 23.72-50.273 5.26 1.417 8.296 3.44 8.296 3.44s7.23 32.063 10.418 45.872c5.461-11.48 10.57-22.254 15.828-33.379 3.34 1.567 6.375 2.984 9.813 4.602-8.09 17.043-15.93 33.632-23.72 50.222"></path><path fill="#ED1C24" d="M544.754 263.402v.051c2.832 2.985-13.856.707 0-.05M556.691 613.586c-2.277-15.828-12.492-23.266-33.027-23.77 5.008-6.02 7.688-12.695 7.133-20.332-.559-7.636-3.746-14.058-9.66-19.015-9.762-8.242-24.227-8.446-34.192-.453-5.105 4.043-8.445 9.304-9.71 15.726-1.72 8.953.609 16.946 6.628 24.074-19.523.356-29.386 6.88-32.57 21.09A26.855 26.855 0 0 0 465.805 641c7.285 3.488 14.77 3.691 22.254.707 7.636-3.035 12.39-8.902 15.628-16.488 8.243 15.578 20.532 21.644 34.29 17.297 12.39-3.946 20.535-16.54 18.714-28.93m-52.902-5.863c-1.922-3.137-3.844-6.325-5.867-9.66h11.633c-1.973 3.285-3.793 6.421-5.766 9.66M791.004 692.84l-.2-.406c.098.152.15.304.2.406M695.621 811.488c-2.277 1.418-4.703 2.68-7.437 4.196a440 440 0 0 1-3.438-6.016c2.68-1.52 5.11-3.387 7.84-4.2 1.566-.503 4.45 0 5.36 1.114 1.57 2.074-.555 3.793-2.325 4.906M691.574 796.617c-.508 1.317-.605 3.188-1.52 3.899-2.324 1.765-5.054 3.03-7.835 4.597-1.063-1.87-2.024-3.488-3.086-5.41 2.832-1.566 5.308-3.234 7.992-4.195 1.21-.406 2.98.656 4.45 1.11M843.504 616.164c-.61 2.633-1.317 5.313-2.125 8.5-2.48-.71-4.555-1.215-6.777-1.82.808-3.035 1.164-5.969 2.425-8.45.758-1.515 3.035-3.285 4.453-3.183 2.426.254 2.579 2.781 2.024 4.953M831.668 613.234c-.559 2.73-1.316 5.41-2.074 8.344-2.227-.61-4.047-1.062-5.969-1.617.762-2.883 1.113-5.664 2.227-8.043.605-1.367 2.578-2.934 3.894-2.883 2.375.05 2.324 2.328 1.922 4.2M264.113 658.344c-2.531.965-4.504.054-5.566-2.426-1.059-2.375-2.02-4.805-3.184-7.688 2.782-1.16 5.309-2.226 8.14-3.386 1.114 2.832 2.227 5.36 3.087 7.89.91 2.528.05 4.602-2.477 5.61M414.727 811.895c.046 5.664-4.657 10.972-9.66 10.87-5.262-.1-9.258-3.995-9.31-8.949 0-5.918 4.352-10.824 9.61-10.824 5.11 0 9.258 3.946 9.36 8.903M597.504 840.719c-.05 5.664-3.793 9.308-9.66 9.308-5.11 0-8.903-4.5-8.801-10.57.05-5.562 3.742-9.105 9.355-9.105 5.262 0 9.106 4.402 9.106 10.367M636.344 832.121c-.051 5.363-4.246 9.207-9.86 9.055-4.804-.102-8.953-5.207-8.902-10.774.102-5.257 4.098-9 9.61-9 5.109.047 9.257 4.907 9.152 10.72M283.48 687.527c0 5.11-5.105 9.711-10.87 9.762-4.805 0-8.954-4.2-9.106-9.254-.102-4.754 5.562-9.914 10.875-9.812 4.805.05 9.055 4.449 9.101 9.304M482.852 842.492c-3.543-.71-6.426-1.316-9.864-2.023 2.375-3.39 4.5-6.422 7.13-10.215.96 4.398 1.773 8.039 2.734 12.238M725.66 785.09c-2.781 2.07-5.156 3.844-8.039 5.965-.96-4.149-1.77-7.739-2.883-12.29 3.996 2.278 7.18 4.15 10.922 6.325M252.074 626.535c-2.476.809-4.703-.05-5.664-2.43-1.113-2.68-1.719-5.562-2.578-8.648 3.336-.91 6.27-1.719 9.406-2.578.809 2.832 1.668 5.41 2.227 8.094.555 2.73-.762 4.703-3.39 5.562M542.426 227.242c0 4.098-2.68 7.84-6.727 8.293-5.863.66-11.781.711-18.156 1.063v-17.75c6.07 0 12.34-.305 18.562.101 3.692.25 6.32 4.297 6.32 8.293M618.39 241.402c-.199 11.532-7.738 20.028-17.648 19.88-11.531-.153-18.715-7.235-18.613-18.259.101-11.785 7.84-20.28 18.308-20.128 10.926.101 18.157 7.585 17.954 18.507M188.402 553.555l18.965.101v-5.816l-18.965.25-.101-5.309h20.18v-6.472h-26.758v28.93h26.957v-6.473l-20.38-.153ZM239.379 549.05c-1.668-.655-3.844-1.058-6.574-1.312l-5.766-.61c-1.113-.097-1.973-.25-2.629-.452-.605-.203-1.062-.508-1.316-.809-.301-.304-.403-.71-.403-1.215 0-.605.204-1.113.707-1.515.457-.457 1.114-.762 2.024-.961.86-.203 1.922-.305 3.086-.305 1.312 0 2.476.102 3.437.406.961.25 1.72.657 2.278 1.164.554.504.859 1.059.96 1.766h8.141c-.152-1.871-.808-3.539-2.07-5.004q-1.898-2.127-5.16-3.34-3.263-1.211-7.434-1.21c-2.832 0-5.312.35-7.437 1.109-2.125.707-3.743 1.77-4.903 3.187-1.164 1.367-1.722 3.035-1.722 5.008 0 1.668.355 3.133 1.164 4.297.808 1.215 2.023 2.176 3.691 2.883 1.672.707 3.844 1.215 6.524 1.468l5.363.454c1.164.152 2.125.304 2.781.507.707.254 1.164.504 1.465.86.254.355.406.758.406 1.265 0 .657-.254 1.164-.758 1.618-.507.457-1.214.808-2.175 1.011-.961.254-2.075.352-3.387.352-1.367 0-2.633-.149-3.695-.453-1.012-.356-1.872-.758-2.477-1.364-.605-.609-1.012-1.316-1.113-2.125h-8.14c.05 2.02.757 3.793 2.019 5.31 1.316 1.519 3.086 2.73 5.363 3.589q3.415 1.216 7.89 1.215c2.883 0 5.41-.403 7.637-1.215 2.176-.86 3.895-2.02 5.106-3.54 1.215-1.515 1.824-3.288 1.824-5.308 0-1.672-.406-3.035-1.113-4.148-.758-1.113-1.973-1.973-3.594-2.582M277.465 543.39v-7.081h-30.043v7.082h11.023v21.847h7.993v-21.847ZM283.633 557.348c-.656-.407-1.414-.606-2.223-.606q-1.293-.001-2.277.606c-.656.402-1.215.91-1.617 1.617a4.7 4.7 0 0 0-.559 2.226c0 .809.203 1.567.559 2.223.402.711.96 1.215 1.617 1.621q.983.607 2.277.606c.809 0 1.567-.2 2.223-.606.66-.406 1.215-.91 1.62-1.62a4.7 4.7 0 0 0 .556-2.224c0-.808-.204-1.57-.555-2.226-.406-.707-.961-1.215-1.621-1.617M802.941 556.992c2.782-1.363 5.008-2.629 6.676-3.844 1.719-1.214 2.934-2.476 3.742-3.742q1.214-1.896 1.215-4.097c0-1.918-.558-3.59-1.668-5.055-1.113-1.418-2.683-2.582-4.703-3.39-2.027-.81-4.351-1.216-6.98-1.216-2.785 0-5.313.457-7.54 1.368-2.222.91-4.042 2.175-5.359 3.843-1.316 1.668-2.074 3.59-2.226 5.868h7.992c.05-.961.355-1.77.86-2.528.507-.71 1.265-1.316 2.277-1.722.96-.454 2.226-.657 3.691-.657 1.215 0 2.227.153 3.086.508.86.3 1.465.758 1.922 1.363.402.61.656 1.266.656 2.075 0 .707-.254 1.414-.656 2.023-.457.656-1.164 1.313-2.227 2.074-1.011.758-2.578 1.668-4.601 2.832l-12.391 6.98v5.563h28.625v-6.324h-16.234ZM845.676 537.523c-2.426-1.214-5.309-1.875-8.547-1.875-3.234 0-6.067.66-8.547 1.875-2.426 1.262-4.348 3.032-5.664 5.309-1.363 2.277-2.023 4.906-2.023 7.941 0 2.985.66 5.664 2.023 7.942 1.316 2.273 3.238 4.043 5.664 5.258 2.48 1.265 5.313 1.87 8.547 1.87 3.238 0 6.121-.605 8.547-1.87 2.48-1.215 4.351-2.985 5.715-5.258 1.316-2.278 1.972-4.957 1.972-7.942 0-3.035-.656-5.664-1.972-7.941-1.364-2.277-3.235-4.047-5.715-5.309m-1.262 17.903c-.66 1.261-1.57 2.273-2.836 2.933-1.21.657-2.676 1.012-4.45 1.012-1.718 0-3.183-.355-4.448-1.012-1.215-.66-2.176-1.672-2.832-2.933-.657-1.317-.961-2.832-.961-4.653s.304-3.39.96-4.656a6.6 6.6 0 0 1 2.833-2.93c1.265-.707 2.73-1.011 4.449-1.011 1.773 0 3.238.304 4.45 1.011 1.265.657 2.175 1.618 2.835 2.93.656 1.266 1.008 2.836 1.008 4.656s-.352 3.336-1.008 4.653M857.664 538.531v6.172l8.75-1.515v22.05h7.938v-28.93h-5.918ZM879.969 536.309v6.32h18.761l-14.464 22.61h9.101l14.113-22.56v-6.37Zm0 0" data-source="https://football-logos.cc"></path><!-- source: https://football-logos.cc --></svg>