<svg xmlns="http://www.w3.org/2000/svg" xml:space="preserve" viewBox="335.63 186.67 768.75 1066.67"><!-- Source: https://football-logos.cc --><defs data-source="https://football-logos.cc"><clipPath id="a" clipPathUnits="userSpaceOnUse"><path d="M0 1080h1080V0H0Z"></path></clipPath></defs><g clip-path="url(#a)" transform="matrix(1.33333 0 0 -1.33333 0 1440)" data-source="https://football-logos.cc"><path d="M0 0s-7.669 7.374-38.542 22.172C-69.416 36.92-119.708 41.59-184.797 61.746c-65.04 20.108-75.807 46.261-89.867 71.087-14.109 24.827-10.078 102.305-10.078 102.305L-288.281 800h576.562l-3.54-564.862s4.031-77.478-10.078-102.305c-14.059-24.826-24.826-50.979-89.866-71.087C119.707 41.59 69.416 36.92 38.542 22.172 7.719 7.374 0 0 0 0" style="fill:#000;fill-opacity:1;fill-rule:evenodd;stroke:none" transform="translate(540 140)"></path><path d="M0 0s-12.585-7.03-21.287-19.124c0 0-5.85-3.195-14.6 12.241 0 0-4.867-11.7 4.719-32.545 0 0-2.802-6.685-11.848-14.551l20.894-.59L.344-77.036-1.18-52.554s19.468 1.672 32.545 1.327c0 0-12.044 12.93-30.873 17.797 0 0-3.835 2.311-.492 33.43m194.826-.345s12.585-7.079 21.286-19.123c0 0 5.9-3.195 14.602 12.241 0 0 4.867-11.75-4.671-32.544 0 0 2.753-6.686 11.799-14.601l-20.894-.59-22.467-22.467 1.525 24.483s-19.468 1.671-32.545 1.327c0 0 12.094 12.929 30.873 17.796 0 0 3.835 2.36.492 33.478M95.914 175.112l15.78-24.531 36.232-.295-24.482-19.468 8.407-32.889-36.232 18.779L62.73 97.29l6.735 31.856-24.826 18.436 37.903 1.327zm-.983 34.855s18.09-27.825 29.496-39.574c0 0 7.08-8.21 64.401-19.124 0 0 1.672-6.391-45.277-29.153l17.108-67.104L95.914 94.93 34.561 56.339l12.732 63.762-45.277 31.856 64.057 15.093ZM278.4 68.973s-8.357 35.445-21.188 51.177C244.43 135.881 89.867 478.043 89.867 478.043L-103.238 43.95v189.861h29.054l18.878 63.712h-121.035l3.048-323.922s-23.302-161.888 157.66-227.666c0 0 43.999-21.68 115.971-16.764 97.88-2.458 159.724 37.313 214.982 98.518 55.257 61.158 50.341 146.895 50.341 146.895v322.939h-120.1l18.828-70.054h23.942V48.079c-4.622 15.093-9.931 15.535-9.931 15.535 16.223-77.723-17.304-128.556-17.304-128.556-2.803 8.357-15.093 28.759-15.093 28.759 16.174 43.557 7.521 74.922 7.521 74.922-20.647-29.89-36.035-35.79-36.035-35.79-4.227 7.523-46.949 44.934-53.635 48.277 1.229-4.769 13.421-72.562 4.278-76.692l-65.778-29.546c7.571-4.031 61.402-18.779 66.76-19.467 5.36-.639-2.015-49.948-2.015-49.948 2.36.344 48.817 45.13 48.817 45.13l39.575-1.18s-5.211-4.228-4.72-7.571c.541-3.343 8.751-24.335 8.751-24.335-57.027-83.819-159.184-82.148-159.184-82.148S8.112-207.264-69.71-112.038l11.602 25.662-4.523 5.899 41.738.492 49.309-45.425s-6.687 46.604-4.032 49.603c2.704 3.048 44.933 15.093 70.104 19.812L24.729-25.466s.982 40.214 6.046 75.807c0 0-30.381-14.601-53.831-47.146 0 0-10.078-3.342-35.544 34.905 0 0-7.374-19.123 8.357-73.152 0 0-13.076-22.811-16.075-30.185 0 0-35.003 49.8-15.682 133.67 0 0 9.438-4.819 24.531-22.221l-1.475 68.973 47.342 33.527s-12.339 4.425-18.239 8.604c0 0 39.575 42.426 89.13 48.964l34.068 81.755s26.351-56.043 32.447-78.707c0 0 62.041-8.308 98.322-50.931 0 0-3.147-4.424-19.91-8.996 0 0 29.349-22.86 49.26-32.938 0 0-3.098-64.058-.541-72.808 0 0 17.845 21.336 25.465 25.318m90.555 275.254h-31.267l-10.914 22.466q-3.76 8.038-5.899 10.029c-1.376 1.327-3.343 2.016-5.85 2.016v-34.511h-27.727v87.31h27.727v-33.528q3.613.147 5.605 2.507c1.376 1.524 3.49 5.998 6.342 13.323 2.064 5.408 4.178 9.34 6.292 11.7s5.555 4.031 10.324 5.064c4.817 1.032 12.29 1.523 22.467 1.523V413.74h-1.377c-4.769 0-8.259-.885-10.521-2.654-2.31-1.721-4.178-4.572-5.653-8.456-1.475-3.933-3.048-6.834-4.72-8.8q-2.581-2.875-6.931-4.572c3.982-1.278 7.472-3.49 10.421-6.588 2.999-3.146 6.146-8.013 9.489-14.6zm-200.233 87.31h36.575l13.962-53.143 13.962 53.143h36.428v-87.31h-22.712v66.564l-17.501-66.564h-20.55l-17.452 66.564v-66.564h-22.712ZM21.729 410.103h-43.261v-65.827h-27.629v87.31h70.89zm-118.92-32.545-9.784 31.414-9.832-31.414zm5.85-18.878h-31.365l-4.474-14.404h-28.267l33.724 87.31h30.284l33.527-87.31h-28.956zm244.036-520.371s-49.063-19.812-109.433-1.033l-9.39 35.495S85-152.842 100.338-152.842c15.339 0 59.976 24.679 59.976 24.679z" style="fill:#f3d541;fill-opacity:1;fill-rule:evenodd;stroke:none" transform="translate(448.068 459.843)"></path><path d="M0 0h-10.569l-3.688 7.768c-.835 1.868-1.523 3.047-2.015 3.49-.443.492-1.13.688-1.966.688V0h-9.341v30.333h9.341V18.681c.836 0 1.474.296 1.917.836.442.541 1.179 2.114 2.114 4.621.737 1.918 1.426 3.245 2.163 4.081.689.835 1.868 1.426 3.49 1.769 1.574.345 4.13.541 7.571.541v-6.391h-.492c-1.573 0-2.753-.295-3.539-.934q-1.18-.885-1.918-2.95c-.491-1.327-1.032-2.359-1.573-3.047-.59-.64-1.376-1.18-2.359-1.574 1.327-.442 2.507-1.229 3.54-2.31.982-1.082 2.064-2.753 3.195-5.064zm-54.47 9.39v12.536q-2.066-.59-3.392-2.36a6.9 6.9 0 0 1-1.279-4.031c0-1.426.443-2.655 1.279-3.785q1.253-1.696 3.392-2.36m8.505.098c1.474.393 2.605 1.18 3.441 2.262.836 1.081 1.229 2.409 1.229 3.933 0 1.474-.443 2.802-1.278 3.982a6.56 6.56 0 0 1-3.392 2.408zm269.157-122.46h-37.117v9.635h37.117zm-42.131 0h-9.095v9.635h9.095zm5.014-7.129h7.817v-6.636h14.994c3.097 0 4.867.098 5.359.196.491.147.934.443 1.229.885.344.443.492.983.492 1.622 0 .886-.295 2.163-.935 3.884l7.62.787c.984-2.213 1.475-4.769 1.475-7.571 0-1.721-.295-3.294-.885-4.67-.59-1.426-1.377-2.409-2.31-3.098q-1.401-.958-3.835-1.327c-1.18-.197-3.491-.295-6.981-.295h-16.223v-4.425h-7.817v4.425h-7.374l-5.801 9.587h13.175zm19.37-36.035c.443-1.229.934-3.196 1.524-5.85.59-2.704 1.131-4.425 1.72-5.26.885-1.229 2.065-1.868 3.442-1.868q2.064 0 3.54 1.474c1.032 1.033 1.523 2.311 1.523 3.884 0 1.721-.59 3.392-1.72 4.965-.934 1.131-1.967 1.918-3.294 2.262-.835.246-2.409.393-4.769.393zm-7.915-12.929-1.573-8.702c-3.639.983-6.342 2.704-8.062 5.064-1.721 2.409-2.606 5.997-2.606 10.717 0 4.277.491 7.522 1.523 9.635 1.083 2.065 2.361 3.54 3.983 4.425 1.573.836 4.522 1.279 8.751 1.279l11.454-.148q4.941 0 7.227.442c1.573.344 3.195.885 4.965 1.721v-9.537c-.639-.246-1.573-.541-2.851-.935-.59-.147-.984-.245-1.131-.344 1.622-1.622 2.852-3.392 3.687-5.26s1.229-3.834 1.229-5.998c0-3.687-1.032-6.636-3.097-8.799s-4.671-3.245-7.866-3.245c-2.064 0-3.982.492-5.604 1.475s-2.901 2.359-3.786 4.129c-.836 1.77-1.622 4.327-2.261 7.669-.885 4.474-1.671 7.621-2.408 9.341h-.984c-1.918 0-3.294-.442-4.13-1.376-.786-.934-1.179-2.655-1.179-5.212q0-2.58 1.032-3.982 1.032-1.474 3.687-2.359m25.662-17.305v-9.635h-18.927c-3.982 0-6.587-.197-7.768-.591-1.18-.442-2.064-1.081-2.703-2.015-.689-.983-.983-2.065-.983-3.392 0-1.672.442-3.196 1.376-4.523.934-1.376 2.163-2.262 3.687-2.753 1.573-.492 4.375-.738 8.554-.738h16.764v-9.635h-37.117v8.898h5.457c-4.178 3.195-6.243 7.227-6.243 12.094 0 2.114.393 4.08 1.18 5.85s1.769 3.097 2.949 4.031a11.3 11.3 0 0 0 4.13 1.868c1.573.345 3.736.541 6.588.541zm0-53.045h-37.117v9.586h37.117zm-42.131 0h-9.095v9.586h9.095zm22.86-34.265c3.835 0 6.735.59 8.554 1.819 2.605 1.671 3.933 3.883 3.933 6.637 0 2.163-.934 3.932-2.803 5.456s-4.768 2.262-8.799 2.262c-4.228 0-7.276-.786-9.194-2.262-1.868-1.524-2.801-3.44-2.801-5.801 0-2.359.884-4.276 2.752-5.801 1.82-1.524 4.622-2.31 8.358-2.31m19.271-9.488h-51.226v9.635h18.485c-3.441 2.999-5.162 6.49-5.162 10.57 0 4.424 1.622 8.112 4.916 11.012s7.964 4.326 14.109 4.326c6.342 0 11.258-1.475 14.7-4.424 3.391-2.95 5.112-6.588 5.112-10.767q0-3.17-1.622-6.194c-1.082-2.016-2.654-3.737-4.769-5.211h5.457zm-38.543-61.157.443 8.8 5.063-.246c-3.735 3.393-5.506 7.227-5.259 11.651.098 2.311.688 4.327 1.769 5.949 1.082 1.671 2.606 2.999 4.621 3.982-1.868 1.721-3.244 3.539-4.129 5.407a12.7 12.7 0 0 0-1.179 5.998c.147 2.704.786 4.916 2.015 6.736 1.18 1.769 2.901 3.048 5.064 3.883 1.622.59 4.178.787 7.717.59l23.697-1.229-.492-9.586-21.189 1.081c-3.638.197-6.047 0-7.128-.639-1.475-.836-2.213-2.163-2.31-3.982-.099-1.376.294-2.654 1.032-3.884.786-1.228 1.966-2.163 3.539-2.753 1.623-.639 4.13-1.032 7.62-1.18l17.797-.934-.492-9.586-20.304 1.032c-3.588.148-5.948.099-6.981-.147-1.081-.295-1.868-.786-2.409-1.475-.59-.688-.884-1.672-.933-2.9-.049-1.475.246-2.852 1.032-4.081.737-1.229 1.868-2.114 3.393-2.704 1.474-.589 4.03-.983 7.57-1.179l17.993-.935-.492-9.586zm10.03-30.824c3.589-.983 6.538-.934 8.848.196 2.361 1.131 3.884 2.852 4.573 5.31.688 2.409.295 4.72-1.131 6.883s-3.933 3.736-7.522 4.768c-3.49.935-6.44.885-8.8-.196-2.359-1.131-3.835-2.9-4.522-5.31s-.296-4.719 1.13-6.882 3.884-3.786 7.424-4.769m-3.147-9.39c-3.146.885-5.998 2.507-8.505 4.818-2.506 2.36-4.178 5.162-4.916 8.357-.787 3.245-.688 6.539.295 9.98 1.475 5.309 4.474 9.144 8.899 11.553 4.473 2.409 9.389 2.851 14.797 1.376 5.408-1.523 9.39-4.522 11.996-8.947s3.195-9.193 1.72-14.404A20.3 20.3 0 0 0 211-380.36c-2.311-2.508-5.063-4.13-8.406-4.818-3.245-.738-6.982-.54-11.062.639m2.065-39.083-45.916 22.664 4.227 8.652 24.384-12.045-6.734 15.88 5.259 10.668 6.686-17.157 27.039 1.523-4.621-9.291-19.124-.836 2.409-6.194 10.668-5.261zm-36.92-17.698c-.54-1.18-1.475-2.95-2.901-5.358-1.376-2.311-2.163-4.031-2.31-4.966-.196-1.573.246-2.802 1.229-3.736q1.549-1.4 3.687-1.328c1.377.05 2.655.64 3.687 1.77 1.18 1.278 1.868 2.901 2.114 4.867.147 1.426-.098 2.753-.835 3.884q-.665 1.106-3.245 3.54zm-14.601-4.08-7.079-5.309c-2.016 3.195-2.803 6.243-2.458 9.193s2.163 6.144 5.358 9.635c2.95 3.146 5.506 5.162 7.718 5.998 2.164.786 4.13.983 5.9.541 1.72-.443 4.178-2.115 7.325-5.015l8.26-7.915q3.612-3.318 5.603-4.572c1.328-.835 2.95-1.524 4.818-2.114l-6.489-7.03c-.639.295-1.573.689-2.753 1.279-.541.294-.884.491-1.032.541.049-2.311-.246-4.425-.886-6.392-.687-1.917-1.719-3.687-3.195-5.211-2.507-2.753-5.31-4.179-8.259-4.375-2.999-.147-5.653.835-7.964 2.999q-2.286 2.138-3.097 4.866c-.541 1.868-.541 3.737.05 5.605.54 1.917 1.719 4.277 3.539 7.177 2.409 3.884 3.932 6.736 4.572 8.505l-.737.689c-1.377 1.278-2.705 1.868-3.884 1.769-1.23-.147-2.704-1.131-4.474-2.999-1.131-1.278-1.819-2.458-1.967-3.637-.147-1.18.246-2.606 1.131-4.228m-43.36-23.45 7.816 6.637 23.745-14.405-10.569 25.614 7.62 6.439 13.322-35.543 2.41-6.44c.737-2.163 1.228-3.982 1.376-5.31a10.9 10.9 0 0 0-.246-3.834c-.294-1.18-.885-2.409-1.72-3.638q-1.327-1.917-3.393-3.687a25.5 25.5 0 0 0-4.572-3.048l-5.604 5.26a20 20 0 0 1 3.441 2.31c1.72 1.476 2.556 3.048 2.508 4.769-.05 1.721-.541 3.589-1.426 5.507zm11.16-36.576-21.041 30.578 7.915 5.457 21.04-30.578zm-23.893 34.708-5.162 7.521 7.915 5.457 5.162-7.521zm-15.781-34.413c1.721-3.539 3.639-5.801 5.802-6.785q3.244-1.474 6.194 0c2.065 1.033 3.441 2.753 4.08 5.114q.959 3.613-1.474 8.553c-1.672 3.442-3.639 5.654-5.851 6.637-2.212 1.032-4.375.984-6.489-.049-2.065-1.032-3.393-2.704-3.933-4.965-.541-2.311 0-5.113 1.671-8.505m1.771-23.253 10.47 3.637c.787-1.13 1.525-1.769 2.361-1.917 1.13-.246 2.605.099 4.375.934q3.391 1.697 4.572 3.54c.54.836.737 1.868.639 3.097-.099.836-.639 2.261-1.622 4.228l-2.311 4.916c-.836-4.916-3.245-8.357-7.178-10.274-4.425-2.163-8.848-1.967-13.224.54-3.491 2.016-6.342 5.261-8.505 9.685-2.753 5.604-3.49 10.52-2.311 14.748 1.23 4.228 3.786 7.326 7.719 9.243 4.031 1.966 8.259 1.819 12.684-.541l-2.311 4.768 8.063 3.934 14.649-29.891c1.918-3.932 3.049-7.03 3.344-9.291.343-2.262.147-4.228-.444-5.899-.589-1.672-1.719-3.294-3.342-4.867-1.622-1.574-3.884-3.097-6.833-4.523-5.556-2.704-9.931-3.639-13.225-2.851-3.294.835-5.605 2.704-7.079 5.702-.148.295-.344.639-.491 1.082m-17.896-3.196-9.242-2.753-10.766 35.495 8.554 2.605 1.524-5.063c.738 2.851 1.573 4.817 2.556 5.899.935 1.131 2.163 1.868 3.639 2.359 2.113.59 4.326.64 6.637.049l-.394-9.045c-1.868.54-3.441.639-4.769.197-1.327-.394-2.31-1.081-2.999-2.065-.638-.983-.983-2.508-.884-4.572.048-2.065.983-6.096 2.801-12.143zm-27.579-6.784-.737 5.506c-1.081-2.163-2.606-3.933-4.573-5.408-2.015-1.475-4.178-2.359-6.538-2.654q-3.687-.517-6.784.737c-2.064.836-3.687 2.163-4.818 4.031s-1.917 4.523-2.408 7.964l-3.147 23.352 9.537 1.278 2.311-16.911c.688-5.211 1.278-8.358 1.819-9.489.491-1.13 1.278-1.966 2.311-2.506.983-.541 2.212-.739 3.686-.541 1.623.196 2.999.884 4.179 1.966s1.918 2.36 2.213 3.736c.295 1.426.097 4.769-.64 10.078l-2.064 15.535 9.537 1.278 4.966-36.772zm-43.803-3.736-.836 51.225 9.636.148.787-51.226zm-19.91-.442-2.998 51.126 9.635.591 2.999-51.177zm-18.534 17.648c-1.278-.344-3.244-.737-5.948-1.229q-4.055-.663-5.309-1.475c-1.279-.835-1.967-1.966-2.065-3.343-.049-1.376.393-2.605 1.376-3.638.934-1.032 2.213-1.622 3.737-1.671 1.77-.098 3.441.442 5.063 1.524 1.229.836 2.016 1.868 2.458 3.146.295.787.492 2.409.59 4.769zm-12.536 8.554-8.652 1.966q1.697 5.384 5.457 7.817c2.458 1.623 6.096 2.31 10.815 2.114 4.277-.196 7.473-.885 9.538-2.015 2.015-1.131 3.441-2.507 4.228-4.13q1.18-2.433.884-8.849l-.688-11.405q-.22-4.941.148-7.227c.245-1.573.737-3.245 1.474-5.063l-9.537.442a41 41 0 0 0-.786 2.9c-.148.59-.246.984-.295 1.131-1.721-1.524-3.54-2.704-5.408-3.441-1.917-.737-3.933-1.032-6.047-.935-3.736.148-6.637 1.327-8.701 3.492-2.065 2.162-2.999 4.817-2.852 8.012.099 2.065.688 3.933 1.721 5.506 1.081 1.623 2.507 2.803 4.326 3.589 1.77.787 4.375 1.426 7.719 1.917 4.571.688 7.718 1.328 9.487 2.016l.05.983c.098 1.918-.345 3.294-1.18 4.13-.885.885-2.606 1.327-5.162 1.474-1.721.05-3.048-.196-4.031-.884q-1.55-.96-2.508-3.54m-8.849 12.241-1.376-7.669-6.49 1.18-2.703-14.797q-.812-4.499-.737-5.31c0-.492.245-.934.589-1.377.393-.392.885-.638 1.524-.737.885-.196 2.213-.098 4.032.197l-.59-7.62c-2.36-.59-4.966-.59-7.719-.099-1.72.295-3.195.885-4.474 1.721-1.277.836-2.113 1.77-2.605 2.802-.442 1.082-.688 2.409-.639 4.031 0 1.181.344 3.491.934 6.883l2.901 16.026-4.326.787 1.376 7.669 4.375-.786 1.278 7.227 10.521 3.981-2.36-12.928zm-33.38-8.898c.836 2.704.836 5.014.049 6.833-.836 1.869-2.163 3.098-4.031 3.737-1.966.638-3.884.491-5.703-.59-1.77-1.032-3.097-2.852-3.933-5.358zm-3.736-9.242 8.603-4.671c-2.311-2.999-5.063-4.965-8.161-5.849-3.146-.935-6.588-.787-10.373.491-5.998 2.064-9.783 5.556-11.307 10.52-1.18 3.983-.934 8.407.688 13.323 1.967 5.801 5.015 9.882 9.144 12.192 4.081 2.262 8.407 2.654 12.979 1.081 5.162-1.72 8.603-4.817 10.422-9.291 1.77-4.425 1.426-10.225-1.131-17.305l-22.86 7.718c-.836-2.802-.836-5.161.05-7.177.884-2.015 2.359-3.392 4.473-4.081 1.426-.491 2.753-.491 3.982-.048 1.229.491 2.409 1.524 3.491 3.097m-63.172 56.486 7.816-4.179-2.409-4.474c4.671 1.967 8.898 1.868 12.782-.196 2.065-1.081 3.589-2.458 4.671-4.13q1.548-2.507 1.622-5.899c2.311.983 4.572 1.475 6.637 1.425 2.114 0 4.08-.491 5.948-1.474 2.36-1.278 4.081-2.852 5.211-4.67 1.082-1.868 1.524-3.934 1.328-6.293-.148-1.672-1.082-4.08-2.753-7.227l-11.209-20.893-8.456 4.572 9.98 18.632c1.77 3.294 2.606 5.506 2.507 6.784-.148 1.622-1.032 2.9-2.655 3.785-1.18.64-2.507.885-3.932.689-1.476-.197-2.803-.836-4.032-2.016s-2.655-3.294-4.326-6.391l-8.407-15.682-8.455 4.522 9.586 17.945c1.721 3.146 2.655 5.309 2.851 6.39q.296 1.623-.295 2.803-.59 1.18-2.212 2.064c-1.327.689-2.704.984-4.129.787-1.426-.148-2.704-.787-3.884-1.869-1.18-1.129-2.655-3.244-4.326-6.39l-8.505-15.879-8.456 4.572zm-28.022-6.785 6.047 7.67 14.896-11.75-6.047-7.669zm-15.535-5.063-6.785 6.834 13.422 13.322c2.851 2.852 4.522 4.818 5.063 5.9.59 1.13.737 2.261.541 3.392-.197 1.13-.738 2.163-1.672 3.097a7.9 7.9 0 0 1-4.178 2.212c-1.622.295-3.146.05-4.572-.639-1.426-.737-3.638-2.557-6.588-5.506l-11.897-11.799-6.784 6.833 26.35 26.155 6.293-6.342-3.884-3.835c5.212.64 9.488-.737 12.93-4.179 1.524-1.523 2.605-3.195 3.293-4.965.689-1.819.934-3.491.738-4.965-.246-1.524-.787-2.901-1.623-4.228-.835-1.377-2.261-3.048-4.276-5.063zm-26.744 63.418q-4.719-2.875-5.899-6.637c-.787-2.458-.492-4.768.835-6.931 1.279-2.115 3.245-3.392 5.802-3.835 2.556-.393 5.407.344 8.603 2.31 3.097 1.918 5.063 4.081 5.801 6.588.787 2.458.54 4.769-.787 6.883-1.327 2.163-3.244 3.441-5.801 3.884-2.605.442-5.457-.344-8.554-2.262m-4.769 8.702c2.803 1.721 5.9 2.703 9.341 2.949 3.442.295 6.588-.393 9.439-2.015 2.9-1.622 5.26-3.933 7.129-6.981 2.9-4.72 3.736-9.488 2.458-14.404s-4.277-8.85-9.046-11.75c-4.769-2.949-9.685-3.884-14.7-2.802s-8.947 3.933-11.749 8.554c-1.77 2.803-2.753 5.948-3.048 9.341-.246 3.391.442 6.538 2.163 9.438s4.376 5.457 8.013 7.67m-29.005 25.515 48.129 17.549 3.294-9.044-25.564-9.341 16.174-6.097 4.031-11.159-16.96 7.03-17.6-20.598-3.54 9.783 12.586 14.354-6.096 2.557-11.16-4.08zm12.782 38.542c3.786.196 6.588 1.131 8.358 2.753 1.818 1.622 2.605 3.54 2.507 5.85-.148 2.311-1.18 4.179-3.147 5.654s-5.014 2.064-9.144 1.868c-4.08-.246-7.029-1.131-8.75-2.753-1.721-1.573-2.556-3.491-2.409-5.703.098-2.212 1.229-4.08 3.343-5.654 2.114-1.524 5.211-2.212 9.242-2.015m-29.693-1.279 15.191.787c-1.721 1.18-3.097 2.704-4.179 4.523s-1.671 3.835-1.77 5.998c-.246 4.129 1.18 7.619 4.179 10.471 3.54 3.342 8.505 5.211 14.846 5.555 5.949.295 10.668-.934 14.208-3.736q5.237-4.13 5.604-10.767c.099-2.409-.295-4.522-1.229-6.39-.934-1.82-2.408-3.49-4.473-4.966l5.506.295.442-8.849-47.784-2.556zm10.865 44.245 37.166.344.048-9.635-37.116-.344zm42.18.394 9.046.049.098-9.586-9.095-.099zm-42.328 19.517 51.226.442.049-9.586-51.226-.492zm17.55 19.517c-.442 1.229-.934 3.196-1.572 5.85-.591 2.655-1.181 4.425-1.77 5.211-.885 1.278-2.065 1.868-3.442 1.868-1.376 0-2.556-.54-3.539-1.524-1.033-1.032-1.524-2.31-1.475-3.883 0-1.721.59-3.393 1.77-4.966.885-1.131 1.966-1.868 3.294-2.261.835-.197 2.408-.345 4.768-.295zm7.817 12.979 1.475 8.75q5.457-1.401 8.112-5.014c1.769-2.36 2.654-5.949 2.703-10.669.05-4.276-.442-7.521-1.474-9.635-.984-2.114-2.311-3.589-3.884-4.473-1.573-.886-4.523-1.328-8.8-1.377l-11.405.049c-3.294-.049-5.703-.197-7.227-.54-1.573-.295-3.196-.885-4.965-1.771l-.099 9.587c.639.246 1.623.541 2.852.934.59.147.983.294 1.18.344-1.672 1.622-2.95 3.392-3.786 5.26a14.4 14.4 0 0 0-1.278 5.949c-.049 3.736.983 6.686 3.048 8.849 2.016 2.212 4.621 3.294 7.817 3.343 2.064 0 3.932-.492 5.604-1.426q2.508-1.475 3.835-4.129c.885-1.721 1.671-4.277 2.359-7.62.885-4.474 1.721-7.62 2.458-9.341h1.033c1.868.049 3.245.491 4.031 1.426.836.933 1.229 2.654 1.18 5.211 0 1.72-.344 3.048-1.082 4.031-.688.934-1.917 1.721-3.687 2.262m10.766 70.841.099-8.85-5.064-.048c3.933-3.147 5.899-6.883 5.949-11.308.049-2.31-.443-4.326-1.377-6.046q-1.475-2.582-4.424-4.277c2.015-1.573 3.49-3.294 4.474-5.113 1.032-1.868 1.524-3.835 1.524-5.948.048-2.656-.492-4.917-1.574-6.785-1.081-1.868-2.704-3.293-4.867-4.228-1.524-.639-4.129-1.032-7.669-1.032l-23.696-.246-.098 9.635 21.189.197c3.687.05 6.095.393 7.128 1.082q2.065 1.327 2.065 4.13c0 1.327-.443 2.605-1.278 3.785-.885 1.179-2.115 2.064-3.737 2.556s-4.178.737-7.669.688l-17.796-.147-.099 9.635 20.353.197c3.589 0 5.899.197 6.932.541 1.082.393 1.868.885 2.36 1.622q.737 1.106.737 2.95c0 1.475-.443 2.802-1.278 3.982q-1.254 1.77-3.54 2.507c-1.523.541-4.08.737-7.669.737l-17.993-.196-.098 9.635zm-37.313 18.877 51.226.443.099-9.587-51.226-.491zm25.22 46.802c-5.801-.049-10.177-1.377-13.175-4.08-2.95-2.655-4.425-5.998-4.376-10.029.05-4.081 1.574-7.375 4.523-9.98 3.048-2.556 7.522-3.835 13.471-3.785 5.85.049 10.225 1.376 13.076 3.932 2.901 2.557 4.326 5.949 4.277 10.128-.049 4.178-1.524 7.571-4.474 10.127-2.998 2.507-7.423 3.785-13.322 3.687m-.443 10.471c5.261.049 9.636-.688 13.225-2.163a24.8 24.8 0 0 0 7.079-4.621c2.065-1.967 3.638-4.13 4.67-6.44 1.377-3.146 2.065-6.735 2.114-10.864.099-7.424-2.212-13.373-6.882-17.846-4.621-4.523-11.16-6.784-19.517-6.883-8.26-.049-14.798 2.065-19.468 6.44-4.769 4.375-7.128 10.275-7.227 17.649-.049 7.522 2.212 13.47 6.833 17.944q6.932 6.71 19.173 6.784M-45.965 27.973c9.193-.983 13.814-5.113 13.814-12.389 0-7.472-4.621-11.602-13.814-12.487V0h-8.505v3.195c-9.194.787-13.815 4.917-13.815 12.389 0 7.325 4.621 11.455 13.815 12.389v2.36h8.505z" style="fill:#000;fill-opacity:1;fill-rule:nonzero;stroke:none" transform="translate(575.937 750.828)"></path></g><!-- source: https://football-logos.cc --></svg>