<svg xmlns="http://www.w3.org/2000/svg" fill="none" viewBox="0 0 54.66 54.16"><!-- Source: https://football-logos.cc --><path fill="#fff" d="M22.672 8.046c3.8-.915 7.79-.692 11.463.64a19.74 19.74 0 0 1 9.17 6.847 19.46 19.46 0 0 1 3.779 10.741 19.44 19.44 0 0 1-2.886 11.01 19.5 19.5 0 0 1-5.216 5.626 19.9 19.9 0 0 1-7.947 3.414 19.95 19.95 0 0 1-8.657-.279 19.8 19.8 0 0 1-7.707-3.919 19.6 19.6 0 0 1-5.275-6.806 19.44 19.44 0 0 1 .13-16.747 19.6 19.6 0 0 1 5.38-6.725 19.85 19.85 0 0 1 7.766-3.802" data-source="https://football-logos.cc"></path><path fill="#202A5A" fill-rule="evenodd" d="M22.872 8.815a19.17 19.17 0 0 1 10.117.368 19 19 0 0 1 8.49 5.462 18.75 18.75 0 0 1 4.453 9.006c.634 3.346.341 6.8-.849 9.994a18.83 18.83 0 0 1-5.91 8.143 19.1 19.1 0 0 1-9.291 3.98c-3.404.47-6.872.016-10.036-1.312a18.97 18.97 0 0 1-7.932-6.233 18.6 18.6 0 0 1-3.108-6.664 18.6 18.6 0 0 1-.31-7.352 18.7 18.7 0 0 1 2.56-6.908 18.9 18.9 0 0 1 5.039-5.406 19.1 19.1 0 0 1 6.747-3.078zM41.6 3.97A27.4 27.4 0 0 0 31.581.323 27.5 27.5 0 0 0 20.917.77a27.4 27.4 0 0 0-9.693 4.439 27.1 27.1 0 0 0-7.23 7.787 26.88 26.88 0 0 0-3.97 15.219 26.9 26.9 0 0 0 5.234 14.839 27.3 27.3 0 0 0 12.674 9.457 27.58 27.58 0 0 0 15.843.888 27.4 27.4 0 0 0 13.67-7.982 26.97 26.97 0 0 0 6.889-14.16 26.85 26.85 0 0 0-2.214-15.566A27.16 27.16 0 0 0 41.55 3.97z" clip-rule="evenodd"></path><path fill="#FAED24" fill-rule="evenodd" d="M36.546 12.084a17.8 17.8 0 0 0-6.482-2.354 17.9 17.9 0 0 0-6.901.282 17.8 17.8 0 0 0-6.277 2.86A17.5 17.5 0 0 0 12.2 17.89a17.3 17.3 0 0 0-2.38 6.408 17.321 17.321 0 0 0 3.21 13.022 17.6 17.6 0 0 0 5.113 4.614 17.9 17.9 0 0 0 13.388 2.055 17.7 17.7 0 0 0 10.938-7.894 17.3 17.3 0 0 0 2.081-13.22 17.5 17.5 0 0 0-7.994-10.8" clip-rule="evenodd"></path><path fill="#fff" fill-rule="evenodd" d="M24.366 15.327a12.33 12.33 0 0 1 6.644.245 12.3 12.3 0 0 1 5.544 3.659 12.209 12.209 0 0 1 2.09 12.587c-2.4 1.873-5.59 4.364-9.719 5.57-2.736.675-5.591.72-8.348.13a12.22 12.22 0 0 1-5.269-7.404 12.4 12.4 0 0 1-.2-4.783 12.3 12.3 0 0 1 3.124-6.372 12.35 12.35 0 0 1 6.134-3.593" clip-rule="evenodd"></path><path fill="#202A5A" fill-rule="evenodd" d="M43.794 33.655q.482-1.195.783-2.448l-.904-.129c-2.14-.317-7.03 4.222-14.633 6.283l1.195-.268a71 71 0 0 0 8.939-3.22c.904-.327 2.52-.169 4.62-.258zm-1.416 2.705.09-.129c.231-.386.452-.763.643-1.16a17.6 17.6 0 0 0-3.013.744c-3.847 1.496-7.704 2.874-11.711 3.964l.843-.139a92.6 92.6 0 0 0 13.168-3.28zm-22.82 5.629 1.869-.496-1.617.298zm1.075-3.023a20 20 0 0 1 2.41-.822h-2.791q.227.394.381.822m-5.825-1.308a5.2 5.2 0 0 0-1.105.605 18 18 0 0 0 2.14 2.15 25 25 0 0 1-1.035-2.755" clip-rule="evenodd"></path><path fill="#fff" fill-rule="evenodd" d="M20.32 43.189c6.56-.55 13.05-1.737 19.375-3.54l-.24.236c-6.401 1.913-11.743 3.274-16.234 4.29a18 18 0 0 1-2.9-.986" clip-rule="evenodd" data-source="https://football-logos.cc"></path><path fill="#202A5A" fill-rule="evenodd" d="M37.053 23.748c.5.487 1.303.695 1.614-.09.832-2.064 1.493-3.811 3.298-5.459.316.237.573.543.752.893.41.745.12 1.38.892 1.559.14.12 0 .457-.371.774l-.36.348c-.161.476.56 1.509.891 1.985.782-1.36 1.003-1.23.903-2.859.731-.992.38-.665-.903-2.144a20 20 0 0 0-1.674-1.985 1.8 1.8 0 0 0-1.002-.14.86.86 0 0 0-.522.328c-.2.229-.35.546-.531.785a8 8 0 0 1-2.125 2.094c-.492.318-1.003 0-1.444-.278a5.2 5.2 0 0 0-1.263-1.37c-1.805-1.39-3.94-.883-5.865-2.223.411-.019.814-.12 1.183-.298.138-.066.289-.1.441-.1.157-.002.311.032.452.1.17.06.33.347.5.556.171.208.241.327.582.317h.09a.14.14 0 0 0 .08-.05c.07-.069.472-.486.702-.664a.16.16 0 0 0 .07-.09.14.14 0 0 0 0-.109 3 3 0 0 1-.07-.735c0-.079-.06-.129-.18-.188a8.2 8.2 0 0 1-2.336-1.985 1.7 1.7 0 0 1-.501-.705.4.4 0 0 0-.07-.11.3.3 0 0 0-.11-.079 4 4 0 0 0-1.003-.278c.15-.457 0-.993.31-1.4a1.5 1.5 0 0 0-.882.358 1.5 1.5 0 0 0-.48.814h-.412a1.635 1.635 0 0 1 .692-1.152 6.46 6.46 0 0 0-3.88 1.47 5.55 5.55 0 0 0-1.925 3.633 50 50 0 0 0-4.32-2.135l-.893-.436-.772.526c-.25.188-.741.595-1.102.893l.32.159c-3.338-.993-4.872-1.559-6.646-4.06a5.178 5.178 0 0 0-.592 5.599 6.05 6.05 0 0 0 1.885 1.985 4.4 4.4 0 0 0 .612 2.82 4.42 4.42 0 0 0 2.225 1.856c.752 1.985 2.216 3.712 4.501 3.663A4.13 4.13 0 0 0 20 27.213c.825.437 1.77.603 2.697.476a8 8 0 0 0-2.577 2.522 7.1 7.1 0 0 0-3.25 1.954 7 7 0 0 0-1.762 3.337c-.301 1.776.46 2.978.892 4.357q.152.433.23.884.986.799 2.076 1.45a4.4 4.4 0 0 0 .13-1.807 4.5 4.5 0 0 0-.622-1.708 4.14 4.14 0 0 1 .892 3.723c.221.129.442.238.672.357a4.2 4.2 0 0 0 .792-1.856 4.36 4.36 0 0 0-.17-1.986c-.602-1.786-2.286-2.6-2.286-4.457.02-.652.218-1.288.57-1.84.353-.55.848-.999 1.435-1.297a4.1 4.1 0 0 0 .2 2.502c.592 1.26 2.377 2.353 2.768 3.812a5.44 5.44 0 0 1-.682 3.286c-.672 1.449 0 1.44.581 2.58.14.249.24.457.341.626l.23.06q.711.18 1.434.287a5 5 0 0 1-.39-1.141c-.422-1.986-.08-2.522 1.002-4.17a7.7 7.7 0 0 0 1.002-2.392 6.4 6.4 0 0 1-1.132 3.366.74.74 0 0 0-.13.426.7.7 0 0 0 .13.417 27 27 0 0 1 3.137 3.296l.231.367q1.246-.084 2.466-.347a1.4 1.4 0 0 0-.28-.258c-1.003-.715-2.166-.755-3.208-2.472a2.41 2.41 0 0 1-.311-2.373c.631-1.518-.522-3.236 0-5.34.206-.476.514-.903.902-1.251 1.794-1.45 4.17-.596 6.847-4.507.511.447.662 1.49 1.083 1.598.165.08.352.1.531.06.18-.046.34-.15.451-.298 1.474-1.628 3.299-3.286 5.243-3.782.172.342.258.72.251 1.102 0 .893-.541 1.28 0 1.787.06.169-.26.367-.702.496l-.481.14c-.37.346-.23 1.597-.11 2.173 1.333-.834 1.433-.635 2.195-2.094 1.103-.517.642-.398.26-2.284-.109-.87-.28-1.733-.51-2.58a1.6 1.6 0 0 0-.792-.586.84.84 0 0 0-.622 0c-.29.109-.571.317-.842.446a8.2 8.2 0 0 1-2.877.884c-.502 0-.842-.457-1.003-1.231" clip-rule="evenodd"></path><path fill="#FAED24" d="m5.3 32.283.511-.1-.41-1.985-2.565.526.42 1.986.522-.11-.29-1.38.51-.109.26 1.211.511-.099-.26-1.211.51-.11zm39.86 9.928-.641-.526.32-.388a.5.5 0 0 1 .12-.129.477.477 0 0 1 .33-.06q.09.03.161.09a.8.8 0 0 1 .11.14c.04.108.04.228 0 .337a.5.5 0 0 1-.11.139zm1.552.09.471-.577-1.001-.119a.89.89 0 0 0-.341-.893c-.45-.368-1.002-.268-1.392.258l-.742.893 2.004 1.648.43-.516-.58-.456.32-.388zm2.695-4.17-2.264-1.281-.36.625 1.001 1.38-1.713-.159-.36.636 2.324 1.27.28-.506-1.492-.844 1.552.16.21-.378-.94-1.241 1.482.824zm.651-17.99-1.923-.477.16.635 1.252.308-.941.894.16.635 1.493-1.37.801-.198-.16-.636zm-.61 2.511-.532.09.36 2.184.522-.08-.1-.734 2.003-.328-.12-.685-2.004.328zm2.463 2.979-2.604.179v.655l2.614-.189zm-2.594 2.73c-.02.178 0 .358.06.526.05.17.14.326.26.457a1.365 1.365 0 0 0 1.463.387c.166-.06.32-.15.45-.268a1.4 1.4 0 0 0 .311-.417c.076-.159.117-.331.12-.506.007-.2-.027-.4-.1-.586a1.7 1.7 0 0 0-.33-.506l-.42.367c.17.18.266.418.27.665a.7.7 0 0 1-.07.278.7.7 0 0 1-.18.239.72.72 0 0 1-.552.168.7.7 0 0 1-.28-.06.7.7 0 0 1-.24-.168.6.6 0 0 1-.161-.248.7.7 0 0 1 0-.288.8.8 0 0 1 .12-.358.9.9 0 0 1 .25-.268l-.41-.436c-.292.255-.478.609-.521.992zm.13 2.85-.41-.11-.551 2.155.52.129.331-1.281 1.262 1.777.41.1.572-2.225-.511-.119-.33 1.35zm-.731 3.097-.491-.189-.731 1.897 2.444.893.741-1.936-.49-.188-.501 1.32-.501-.189.45-1.141-.49-.189-.441 1.142-.481-.07zm-5.39 8.578-.37-.367-1.473 1.44 1.793 1.866 1.513-1.43-.36-.377-1.002.993-.37-.378.9-.883-.36-.377-.901.893-.361-.377zm-2.093 1.926-.31-.437-1.794 1.251.31.447.642-.447 1.182 1.708.54-.378-1.221-1.667zm-4.488 3.673c.26-.109.45-.07.541.13.09.198 0 .377-.27.486q-.406.165-.541-.12c-.09-.188 0-.337.25-.456zm-.44-.992c.22-.1.38-.06.46.109s0 .328-.22.417c-.22.09-.391.07-.471-.1-.08-.168 0-.297.21-.397zm-.181-.398c-.52.229-.751.616-.581.993.055.1.134.186.23.248a.262.262 0 0 1 .375.172.255.255 0 0 1-.148.293.3.3 0 0 1-.117.022.7.7 0 0 0 0 .427c.19.417.692.516 1.293.248.6-.268.851-.705.66-1.132a.71.71 0 0 0-.69-.407.65.65 0 0 0 .12-.298.6.6 0 0 0 0-.327c-.2-.348-.641-.447-1.162-.209zM33.91 49.37a.24.24 0 0 1 .14 0h.15a.5.5 0 0 1 .11.1q.046.056.06.128.015.075 0 .15.02.074 0 .148a.4.4 0 0 1-.11.11.35.35 0 0 1-.14.059q-.075.015-.15 0a.3.3 0 0 1-.14 0 .3.3 0 0 1-.12-.1.3.3 0 0 1-.06-.128.36.36 0 0 1 .05-.268.36.36 0 0 1 .22-.16zm-.28-1.38q-.25.075-.451.238a1.22 1.22 0 0 0-.45.894c-.004.174.03.346.1.506.015.16.07.313.16.447.086.139.203.257.34.347.136.09.29.151.45.18q.242.044.482 0a.86.86 0 0 0 .34-.14.75.75 0 0 0 .26-.268.9.9 0 0 0 .131-.347q.03-.184 0-.368a.8.8 0 0 0-.13-.308 1.1 1.1 0 0 0-.25-.228.768.768 0 0 0-.661-.05.8.8 0 0 0-.321.15.7.7 0 0 0-.2.287.58.58 0 0 1 0-.516.54.54 0 0 1 .16-.208.7.7 0 0 1 .24-.11 1 1 0 0 1 .581 0l.11-.506c-.29-.05-.59-.03-.871.06zm-2.885 1.916a.38.38 0 0 1-.29-.06.27.27 0 0 1-.101-.109.6.6 0 0 1 0-.139.37.37 0 0 1 .06-.288.6.6 0 0 1 .12-.099q.075-.014.15 0h.281a.4.4 0 0 1 .11.11q.006.074 0 .148.015.08 0 .16a.5.5 0 0 1-.07.158.4.4 0 0 1-.13.1.27.27 0 0 1-.17 0zm.09 1.39a1.18 1.18 0 0 0 .851-.506c.101-.14.17-.299.2-.467a1.2 1.2 0 0 0 0-.496c-.12-.794-.61-1.221-1.302-1.122a.9.9 0 0 0-.36.09 1 1 0 0 0-.29.238.8.8 0 0 0-.171.327.9.9 0 0 0 0 .367q.015.168.09.318.087.145.22.248c.091.07.198.118.311.14.108.029.222.029.33 0a.62.62 0 0 0 .341-.11.7.7 0 0 0 .24-.248c.07.417-.09.705-.51.764a.9.9 0 0 1-.561-.079l-.19.486c.26.1.544.13.82.09zm-2.214.209-.22-2.522-1.133.09v.525h.481l.15 2.065zm-4.798-2.224.11-.507-2.004-.437-.54 2.542 2.003.437.11-.506-1.392-.298.12-.517 1.222.269.1-.507-1.222-.258.11-.506zm-4.068-1.619a1.3 1.3 0 0 0-.52-.129q-.269 0-.521.09a1.3 1.3 0 0 0-.451.288c-.266.264-.417.62-.42.992-.003.18.032.36.1.527.076.165.18.317.31.446.133.123.29.217.46.278.38.15.803.15 1.183 0l-.2-.516a1 1 0 0 1-.732 0 .813.813 0 0 1-.39-.417 1 1 0 0 1-.05-.288.7.7 0 0 1 .07-.278.64.64 0 0 1 .15-.248.727.727 0 0 1 .821-.169.8.8 0 0 1 .29.229.76.76 0 0 1 .18.327l.532-.268a1.58 1.58 0 0 0-.791-.834zm-3.706 1.251 1.302-2.253-.54-.308-.802 1.39-.27-1.986-.471-.298-1.323 2.254.541.318.802-1.39.25 1.985zm-3.005-1.886 1.492-2.125-.59-.337-1.503 2.124zm-.641-3.902c-.461-.427-1.002-.496-1.293-.149-.64.675.551 1.41.24 1.787-.11.1-.25.07-.4-.07-.23-.248-.38-.56-.43-.893l-.532.199c.068.423.272.813.581 1.112.421.397.952.516 1.313.129.64-.675-.541-1.43-.23-1.777.08-.1.22-.07.34 0 .194.223.341.483.43.764l.532-.198c-.09-.386-.301-.733-.602-.993zM8.716 39.74l.26.367q.091.12.12.268a.56.56 0 0 1 0 .288.65.65 0 0 1-.12.268.7.7 0 0 1-.21.209.9.9 0 0 1-.28.168.7.7 0 0 1-.31 0 .64.64 0 0 1-.301-.109.7.7 0 0 1-.23-.228l-.271-.377zm0-.834-2.113 1.519.64.893q.147.23.371.388a1.36 1.36 0 0 0 1.032.208c.176-.033.34-.108.48-.218.15-.098.277-.227.372-.378q.135-.237.18-.506a1.3 1.3 0 0 0 0-.526 1.4 1.4 0 0 0-.25-.467zm-1.002-.576.491-.238-1.001-1.986-.471.238.35.685-1.863.894.3.586 1.854-.894zm-1.152-3.912c-.19-.595-.61-.893-1.071-.744-.902.288-.19 1.499-.632 1.638a.3.3 0 0 1-.32-.248c-.082-.331-.054-.68.08-.993l-.57-.09c-.131.407-.131.844 0 1.251.18.546.59.894 1.08.745.903-.288.231-1.519.662-1.648.12 0 .22 0 .26.208.08.293.08.601 0 .894l.582.07c.074-.354.05-.722-.07-1.063zM44.3 14.968l3.27-2.773-.652-.762-2.006 1.703.733-3.189-.633-.733-3.28 2.773.672.763 2.007-1.694-.773 3.189zM40.55 6.976q.2.14.34.337.136.206.181.446c.03.157.03.318 0 .475a1.15 1.15 0 0 1-.2.436c-.082.141-.191.266-.322.366-.13.093-.276.163-.43.208-.163.03-.33.03-.492 0a1.1 1.1 0 0 1-.452-.168 1.19 1.19 0 0 1-.521-.792c-.059-.32.01-.65.19-.921q.13-.21.331-.357a1.2 1.2 0 0 1 .431-.218c.163-.034.33-.034.492 0 .163.023.32.077.462.159zm.481-.772a2.2 2.2 0 0 0-.803-.356 2.3 2.3 0 0 0-.892 0 2.3 2.3 0 0 0-.823.326 2.3 2.3 0 0 0-.622.624c-.16.25-.27.53-.32.822-.056.291-.056.59 0 .881.07.287.2.557.38.793.181.235.406.433.662.584.25.168.529.29.823.356.291.06.592.06.883 0 .3-.053.585-.169.836-.34.25-.17.461-.392.618-.65.165-.247.271-.528.311-.822a1.95 1.95 0 0 0 0-.871 2.2 2.2 0 0 0-.38-.792 2.3 2.3 0 0 0-.673-.575zm-5.598 1.773 1.194-4.08-1.093-.357-.482 1.674-1.715-.485.492-1.674-1.004-.287-1.203 4.08 1.003.307.471-1.595 1.716.495-.472 1.585zm-6.43-1.407 1.304.05-1.594-2.545 1.665-1.693-1.264-.06-1.726 1.753V2.184h-1.093l-.17 4.248 1.083.05v-1.05l.602-.595zM21.63 5.174l-.29-1.327.812-.178a.7.7 0 0 1 .29 0c.1 0 .197.028.282.08q.132.075.22.197a.7.7 0 0 1 .11.278q.032.143 0 .287a.53.53 0 0 1-.11.257.658.658 0 0 1-.502.277zm1.896 1.693 1.214-.257-1.174-1.188c.22-.177.38-.415.462-.684a1.32 1.32 0 0 0 0-.812c-.19-.89-.953-1.317-2.067-1.079l-1.876.386.893 4.17 1.074-.229-.251-1.168.812-.178zm-6.019-2.663-1.003.485 1.114 2.208q.091.152.11.327a.9.9 0 0 1 0 .356.9.9 0 0 1-.17.307.9.9 0 0 1-.271.228q-.163.075-.341.09a.9.9 0 0 1-.361-.05 1 1 0 0 1-.311-.188.85.85 0 0 1-.211-.287L14.938 5.47l-1.003.485 1.124 2.199c.102.235.256.445.451.614.197.162.426.284.672.356.246.079.507.1.763.06a1.9 1.9 0 0 0 .722-.268c.235-.092.447-.234.622-.416a1.7 1.7 0 0 0 .491-1.376 1.6 1.6 0 0 0-.22-.713zm-6.81 4.228c-.783.664-1.004 1.485-.462 2.08 1.003 1.148 2.427-.654 2.929-.09.16.189.08.426-.18.644a2.77 2.77 0 0 1-1.616.515l.23.881a3.2 3.2 0 0 0 1.947-.742c.732-.614 1.003-1.446.451-2.1-1.003-1.158-2.457.614-2.949.06-.13-.159 0-.357.15-.535a3.2 3.2 0 0 1 1.345-.554l-.23-.882a3.1 3.1 0 0 0-1.616.674zm-5.88 7.526a2.3 2.3 0 0 0-.25.842 2.3 2.3 0 0 0 .11.861c.1.276.249.53.442.753.405.434.967.694 1.565.723.297.008.593-.038.872-.139.275-.108.526-.266.743-.465.21-.207.378-.452.491-.723a2.57 2.57 0 0 0 0-1.98l-.903.306c.15.379.15.8 0 1.179a1.1 1.1 0 0 1-.28.386 1.258 1.258 0 0 1-1.374.168 1.2 1.2 0 0 1-.402-.267 1.2 1.2 0 0 1-.26-.396 1.1 1.1 0 0 1-.081-.466c.002-.16.04-.32.11-.465a1.5 1.5 0 0 1 1.003-.733l-.421-.891c-.612.24-1.103.71-1.364 1.307m-.711 4.06-.833-.198-.752 3.07 4.213.99.26-1.05-1.544-.366.451-1.862-.863-.208-.461 1.852-1.003-.228z"></path><path fill="#fff" fill-rule="evenodd" d="M27.245 25.198c1.216-.396 2.704-2.13 2.312-3.478-.443-1.595-2.634-2.903-3.609-4.508a4.16 4.16 0 0 1-.653-2.328c.08-2.368 2.573-3.428 3.196-2.665 1.005 0 1.448.089 1.448.406s-.724.267-1.186.247c.17.133.37.224.583.268.211.038.43.021.633-.05.824-.158 2.01 1.278 3.075 1.715-.462.079-.402.326-.16.594.24.268.2.248 0 .476-.124.131-.22.286-.282.455-.432.07-.532-.743-.794-1.06a.995.995 0 0 0-1.055-.465.9.9 0 0 0-.372.158c-.53.347-1.17.488-1.8.396a1.8 1.8 0 0 1-.813-.564 1.7 1.7 0 0 1-.362-.912 1.76 1.76 0 0 0-.06 1.09c.101.357.312.676.602.911 2.071 1.883 5.569.991 7.489 3.547a5.32 5.32 0 0 1 1.085 3.33 4.45 4.45 0 0 0-1.449-1.25 4.5 4.5 0 0 0-1.848-.534 5.3 5.3 0 0 1 1.86 1.684c.473.706.763 1.516.844 2.358.015.372.17.725.432.991.503.377 2.07-.436 3.016-.148a25.6 25.6 0 0 0-2.634 2.774.71.71 0 0 1-.904-.238 8.5 8.5 0 0 0-.804-.892c-.593-.545-1.619-.515-3.016-1.436 1.116 1.526 1.005 2.665-.11 3.448-1.257.891-3.408 1.416-4.503 2.279A3.54 3.54 0 0 0 26.3 33.51c-.613 1.685-.512 3.23-1.85 5.014a7.2 7.2 0 0 0-.904 1.595c.24-.889.282-1.819.12-2.725-.431-1.773-2.01-2.19-2.804-3.874a3.7 3.7 0 0 1-.17-2.348c.281-1.436 1.799-2.665 3.608-3.963-.864.25-1.78.268-2.654.05.402-.227.719-.574.905-.991a3.7 3.7 0 0 1-1.709.426 3.6 3.6 0 0 1-1.698-.426 4.38 4.38 0 0 0 1.799-2.051 5.5 5.5 0 0 1-3.699 1.248 4.5 4.5 0 0 1-1.795-.885 4.4 4.4 0 0 1-1.22-1.572 9.05 9.05 0 0 0 5.267-.892 12.15 12.15 0 0 1-5.408 0 3.932 3.932 0 0 1-2.965-3.547c1.88.991 5.025 1.12 7.498.783-3.076-.218-7.75-.812-9.458-3.765a4.3 4.3 0 0 1 0-4.032c2.171 3.23 8.845 3.675 12.162 5.618.422.21.793.51 1.083.878s.494.796.595 1.252c1.337 4.438 2.764 6.995 5.478 7.926-.07.892-.904 1.387-1.9 1.496.338.042.68.015 1.006-.08.333-.106.64-.278.904-.505.263-.227.472-.507.613-.822.147-.31.222-.648.222-.99a5.5 5.5 0 0 1-2.111-.991zm0-.535q.368-.357.633-.793c.162-.265.258-.563.282-.872a1.96 1.96 0 0 0-.131-.901c-.452-1.249-2.191-2.457-3.267-4.043a4.5 4.5 0 0 1-.774-1.803 4.6 4.6 0 0 1 .09-1.982 3.95 3.95 0 0 1 2.061-2.397 4.1 4.1 0 0 0-1.325 1.365 4.06 4.06 0 0 0-.564 1.805c-.1 3.438 3.417 4.766 4.11 6.936.423 1.317-.28 2.348-1.145 3.24-.12-.08-.221-.179-.332-.268l.362-.357z" clip-rule="evenodd"></path><path fill="#FAED24" fill-rule="evenodd" d="M30.565 14.47c-.493.316-1.09.43-1.667.317a2.25 2.25 0 0 1-1.417-.922c.033.331.161.646.37.908.207.262.487.46.805.57.63.099 1.276-.04 1.808-.387.111-.08.238-.138.372-.169a1.01 1.01 0 0 1 .773.159q.166.121.271.298c.261.327.362 1.13.794 1.061.064-.168.16-.323.28-.456.222-.219.182-.268 0-.466l-.08-.1c0 .209-.14.278-.22.189-.422-.486-1.487-1.32-2.09-.992zm-.894 3.194c-1.527-.645-2.27-1.557-2.27-2.758.103.383.316.727.613.992 2.059 1.885 5.554.992 7.472 3.562a5.3 5.3 0 0 1 1.095 3.323 8.85 8.85 0 0 0-2.28-3.165c-1.376-1.17-2.642-1.071-4.61-1.924zm3.605 3.274a7.5 7.5 0 0 1 1.878 3.095c.392 1.399-.442 2.321.904 2.837.703.268 1.798-1.15 3.164-1.12-.894-.09-2.26.545-2.702.207a1.58 1.58 0 0 1-.432-.992 5.16 5.16 0 0 0-.885-2.363 5.24 5.24 0 0 0-1.907-1.674zm-7.944 12.51a2.85 2.85 0 0 1 .291-1.102 3 3 0 0 1 .693-.903c1.376-1.329 4.309-1.984 5.293-3.035.29-.308.49-.689.573-1.101a2.1 2.1 0 0 0-.121-1.24c1.125 1.517.954 2.668-.1 3.452-1.266.883-3.405 1.409-4.51 2.272a3.6 3.6 0 0 0-1.105 1.716c-.612 1.686-.502 3.244-1.848 5.02-.13.178-.25.337-.351.495a14 14 0 0 0 1.185-5.575m3.194-6.4c-.07.894-.904 1.37-1.798 1.489.793-.992.281-1.19-.23-1.518-3.888-2.55-4.29-7.043-5.153-8.343-1.958-2.976-10.867-1.786-12.052-7.281 2.17 3.243 8.838 3.68 12.152 5.624.423.212.794.514 1.085.883.29.367.493.795.592 1.25 1.266 4.474 2.722 7.004 5.404 7.897" clip-rule="evenodd" data-source="https://football-logos.cc"></path><!-- source: https://football-logos.cc --></svg>