<svg xmlns="http://www.w3.org/2000/svg" xml:space="preserve" style="shape-rendering:geometricPrecision;text-rendering:geometricPrecision;image-rendering:optimizeQuality;fill-rule:evenodd;clip-rule:evenodd" viewBox="64.13 24.82 2723 3385.76"><!-- Source: https://football-logos.cc --><defs data-source="https://football-logos.cc"><style>.fil7{fill:#000}.fil4{fill:#00aeef}.fil6{fill:#1d1d1e}.fil2{fill:#2e3092}.fil1{fill:#fff100}.fil3{fill:#fff}</style></defs><g id="Слой_x0020_1" data-source="https://football-logos.cc"><g id="_105553190271936"><path d="M0-.01h8044.66v3426.37H0z" style="fill:none"></path><g id="_105553202350656"><path d="m64.14 2042.86.83 53.84c-.01 7.84.89 12.34.81 19.89-.04 4.74.51 6.43.79 9.98.3 3.51-.21 6.97.27 10.5l3.11 39.14c1.54 27.93 10.15 83.08 15.11 111.63 9.63 55.39 24.14 117.21 41.71 169.54 3.68 10.98 6.41 21.3 10.38 31.87 15.2 40.57 29.36 81.83 48.22 120.79 1.22 2.54 1.88 4.61 3.01 6.93 8.2 16.65 15.83 33.67 24.6 49.96l45.16 81.59 32.81 51.69c29.73 44.59 46.82 65.95 80.51 109.18l9.77 11.78c3.33 3.81 6.06 7.58 9.5 11.2 8.68 9.11 15.92 19.33 24.86 28.16l14.89 16.6c3.73 3.76 7.46 6.88 10.58 10.96 7.39 9.68 37.02 37.4 47.86 47.41l33.13 30.66c2.38 2.22 3.26 2.92 5.75 5.01 3.7 3.1 7.24 6.89 10.9 9.82 4.12 3.3 7.65 6.66 11.72 9.82 2.06 1.6 3.15 2.68 5.45 4.5l17.63 14.67c19.32 15.74 39.36 31.1 59.76 45.44 4.2 2.95 8.42 5.7 12.66 8.89 2.16 1.62 3.63 2.46 5.9 4.03l38.1 25.7c22.33 14.94 67.64 42.24 92.71 54.73l107.78 52.11 75.52 29.7c31.18 12.05 80.28 27.16 113.02 35.27 63.47 15.72 110.8 25.46 177.02 34.22l38.01 4.24c25.64 3.63 95.03 6.27 121.3 6.27l62.14-.82c7.16.04 12.17-.71 19.9-.8l59.27-4.52c25.06-3.55 49.62-5.23 74.44-9.23l71.65-12.86c90.7-18.77 169.89-44.9 255.92-80.4 9.75-4.03 19.31-8.61 29.35-12.9 2.61-1.11 4.11-2.1 6.66-3.28 2.87-1.33 4.65-1.88 7.46-3.3 4.92-2.48 9.17-4.15 14.08-6.63l69.14-36.06 59.46-34.98c2.51-1.54 3.99-2.74 6.5-4.28 34.6-21.09 66.88-44.76 99.18-68.99 16.73-12.54 54.19-42 69.26-56.66 7.18-6.99 15.38-12.74 22.37-19.88 6.93-7.06 14.97-13.26 21.96-20.29l51.98-52.4c3.19-4.18 7.13-6.96 10.53-11.01l34.46-39.27c1.84-2.19 3.06-3.52 4.97-5.8l37.5-46.17c1.69-2.16 2.65-3.54 4.25-5.69l13.84-18.46c17.62-24.5 35.59-48.68 51.36-74.56l24.16-38.81c10.31-17.54 21.13-35.22 30.18-53.49l21.53-42.25c2.32-4.62 4.57-8.91 6.92-13.8 25.62-53.38 47.94-108.67 65.89-165.23l27.91-98.84c5.05-23.16 10.54-44.88 14.66-69.01 4.12-24.1 8.37-48.28 11.62-72.88 3.15-23.92 6.03-50.25 7.98-75.69 3.09-40.37 3.37-83.73 3.37-125.04 0-72.82-9.74-157.77-22.85-228.16-4.39-23.57-8.95-45.81-14.76-68.91-10.18-40.48-23.22-90.22-38.26-129.08-11.39-29.4-21.83-62.2-35.42-90.5l-12.97-29.29c-4.66-9.46-15.51-33.98-20.24-41.88l-36.97-68.24c-5.04-8.75-10.14-17.09-15.43-25.98l-67.12-100.21-27.22-35.75c-8.83-11.22-32.64-41.38-42.41-51.2-2.27-2.29-2.78-3.58-4.96-5.82-14-14.39-26.22-29.53-40.59-43.9-1.75-1.74-3.38-3.15-4.94-5-11.13-13.31-24.68-24.61-36.9-36.83-13.86-13.85-28.79-27.16-43.5-40.16l-39.61-33.3c-33.52-26.18-66.98-52.07-102.42-75.7-4.37-2.91-7.9-5.45-12.52-8.18L2062.8 846.1c-53.58-27.2-101.71-51.58-159.08-72.05-5.48-1.95-9.52-3.7-15.13-5.58-26.21-8.84-52.54-18.6-79.18-26.02l-82.82-21.55c-53.21-12.46-106.93-20.77-161.52-26.54-12.73-1.34-26.51-3.18-38.79-3.46-5.42-.14-14.22-.3-19.67-1.05-16.05-2.2-109.46-3.43-121.06-2.13l-59.78 3.18c-13.03.31-43.53 3.81-57.39 5.56-67.43 8.56-131.71 19.32-194.78 37.17-5.8 1.65-11.02 2.84-16.32 4.39-66.11 19.45-131.02 41.83-193.47 70.8-26.07 12.08-51.83 24.52-77.04 38.1l-40.92 22.88c-4.38 2.65-8.57 4.95-13.05 7.66-52.03 31.4-101.71 65.66-149.62 103.04l-35.08 28.72c-5.48 4.88-11.66 9.24-16.97 14.51l-11.15 9.56c-2.13 1.78-3.31 3.53-5.46 5.31l-27.72 25.3c-15.6 15.78-32.16 30.93-47.22 47.21-1.96 2.12-2.4 3.26-4.53 5.42l-30.66 33.13c-2.04 2.31-2.69 3.42-4.98 5.79-6.94 7.12-13.01 15.22-19.41 22.84a862 862 0 0 0-18.95 23.3l-87.51 122.91-16.05 26.2c-10.6 17.64-21.56 35.32-30.73 53.76-9.39 18.83-19.91 36.84-28.45 56.06l-13.51 28.73c-8.98 19.28-16.97 38.46-25.05 58.61-33.74 84.09-59.12 172.95-74.68 262.49-4.28 24.54-8.87 48.79-10.98 73.52-1.59 18.7-5.35 38.45-5.83 57.14-.15 5.93-.72 14.94-1.43 20.11-.45 3.29 0 6.42-.27 9.67-.29 3.55-.82 5.25-.79 9.98.06 7.93-.82 12.64-.81 20.72.01 14.07-.83 26.63-.83 41.42z" class="fil1"></path><path d="M105.56 2029.6c0 46.1.25 78.97 4.1 125.93 9.35 114.21 33.73 227.5 71.6 334.36 13.77 38.85 29.25 78.85 47.53 115.73 22.35 45.08 45.08 89.26 71.06 131.87 32.51 53.3 70.18 106.36 110.46 153.77 17.1 20.13 34.2 40.35 52.29 59.54 14.03 14.9 31.21 32.88 45.57 46.4l10.77 9.93c2.08 2.07 3.12 3.24 4.97 4.98l16.15 14.5c12.87 13.06 29.37 25.89 43.4 37.78 14.76 12.54 29.67 24.35 45.19 35.99 76.76 57.61 164.74 113.14 254.6 152.1 37.82 16.4 75.09 32.47 116.28 46.15 41.13 13.64 81.96 25.83 126.82 36.42 194.69 45.93 403.95 45.54 598.64.03 42.81-10.01 84.64-21.89 126.86-36.38 135.06-46.36 257.43-113.14 371.37-198.56 23.13-17.34 45.84-36.05 67.65-54.94l31.93-28.55c3.54-3.2 6.86-7.39 10.48-10.24 11.3-8.91 30-29.4 41.3-40.71l29.23-31.25c6.39-8.25 21.06-23.53 28.68-32.61 49.76-59.22 94.8-122.71 135.22-191.15 86.27-146.1 144.78-317.81 166.71-485.38 15.68-119.92 15.87-230.73.21-351.03-11.29-86.72-32.91-179.97-62.65-261.41-7.34-20.07-14.51-39.66-22.29-58.91-23.03-56.99-50.19-110.43-79.82-162.88-9.98-17.66-20.24-33.79-30.66-50.54-25.8-41.49-55.1-79.68-84.99-117.95l-18.29-22.31c-3.12-3.43-5.95-7.4-9.13-10.76l-28.98-32.31c-18.13-21.98-67.17-68.33-85.76-85.71l-16.24-14.44c-7.32-6.31-14.41-12.15-21.85-18.71-23.19-20.45-66.13-53.48-91.79-70.56-24.64-16.41-48.15-32.81-73.65-48.15-114.78-69.03-239.49-123.46-372.71-154.23-89.37-20.64-195-36.83-288.26-36.83-72.5 0-121.27 1.52-194.48 11.3-47.21 6.31-91.92 14.58-136.97 25.46-110.34 26.65-199.19 61.7-295.38 110.56-35.54 18.04-69.92 37.75-103 59.4-61.23 40.09-84.19 58.27-140.37 103.17l-32.4 28.09c-1.89 1.72-3.24 3.43-5.04 4.88l-16.09 14.59c-13.19 12.75-42.64 40.02-51.68 51.03-8.83 10.78-19.72 20.62-29.06 31.39-1.93 2.24-2.35 3.23-4.54 5.42-8 8-16.92 18.61-23.86 27.49-6.05 7.74-12.01 14.45-18.31 22.29-18.16 22.59-35.91 45.17-52.28 69.47-32.97 48.91-65.55 98.45-91.87 151.66-17.96 36.31-35.98 73.25-51.17 111.23-58.96 147.39-95.54 310.66-95.54 473.61h.01z" class="fil2"></path><path d="M553.31 2029.6c0 85.55 4.51 137.18 23.12 219.26 16.61 73.25 53.32 168.9 91.68 232.15 22.85 37.7 37.33 61.4 64.58 96.97 3.85 5.04 7.69 10.16 11.58 14.94 4.09 5.04 8.12 9.67 12.36 14.94 8.33 10.37 16.57 19.22 24.94 28.94l54.23 54.3c2.63 2.63 4.49 3.63 7.05 6.2 15.98 15.97 64.09 53.34 82.47 65.84 67.05 45.58 135.97 83.39 213.99 109.9 87.51 29.73 179.86 48.36 275.14 48.36 33.09 0 48.57.11 82.93-2.81 155.89-13.23 305.15-67.3 431.09-157.09l74.56-58.84 61.26-59.68c2.33-2.86 3.48-4.33 6.24-7.02 13.07-12.81 49.03-58.05 59.93-73.44 1.73-2.43 3.79-5.01 5.58-7.68 19.55-28.88 28.19-40.95 47.3-73.66 70.31-120.33 115.03-278.43 115.03-420.11 0-48.39-1.15-76.49-7.39-125.24-3.91-30.57-9.6-61.9-16.84-90.81-6.98-27.84-14.48-55.06-24.52-83.13-27.14-75.88-62.84-148.22-109.75-213.35-16.66-23.14-28.1-38.46-46.86-60.81-4.28-5.1-7.94-9.55-12.12-14.39-11.69-13.52-33-35.42-45.95-48.5l-64.33-56.63c-18.75-15.18-41.69-31.91-62.09-45.6-135.8-91.06-308.22-146.29-473.37-146.29-79.77 0-135.29 6.57-209.47 23.34-135.7 30.71-277.78 105.58-378.7 197.02l-14.13 13.23c-22.1 18.93-65.3 65.69-84.19 89.77-4.09 5.19-7.89 9.74-12.1 15.23-94.18 122.26-153.34 259.76-175.24 415.31-4.19 29.81-8.02 67.64-8.02 99.35v.01z" class="fil1"></path><path d="M594.32 2030.43c0 51.5.01 76.76 7.51 130.74 11.02 79.3 34.99 165.51 69.04 235.97 23.75 49.12 43.37 84.83 74.37 128.52 57.1 80.51 122.33 145.97 202.77 203.16 9.61 6.83 20.02 13.62 30.23 20.31 10.77 7.05 20.54 12.56 31.32 19.19 20.89 12.86 44.03 23.84 66.92 34.96 90.81 44.14 225.1 77.09 328.85 77.09 54.52 0 76.57.12 133.96-7.62 67.13-9.06 138.4-28.15 200.46-53.98 12.55-5.22 23.47-10.37 35.66-15.67 44.14-19.21 90.49-48.64 128.99-74.82 17.18-11.68 41.72-31.12 57.3-44.56l33.46-29.51c9.48-8.55 35.44-35.79 44.34-45.1 35.37-37.05 84-104.97 107.69-147.44 20.54-36.82 33.82-63.1 49.95-102.47 36.3-88.63 60.21-200.39 60.21-297.29 0-82.39-5.39-129.56-23.31-208.21-17.31-76.03-49.76-152.94-87.71-218.85-26.66-46.28-71.22-109.23-108.93-147.84l-78.28-74.99-28.44-22.9c-23.14-16.92-35.4-26.17-60.47-42.28-126.2-81.08-284.62-129.49-435.06-129.49-73.78 0-131.68 5.95-200.8 22.4-81.38 19.37-149.52 47.29-219.68 86.91-27.08 15.3-51.87 31.78-76.94 49.8-50.08 35.98-107.2 89.05-145.99 135.66-83.19 99.97-140.78 207.17-173.34 337.79-13.08 52.44-24.09 125.66-24.09 180.52z" class="fil2"></path><path d="M832.7 2299.66c47.59-6.59 110.69-5.92 160.12-3.03 80.25 4.7 208.9 19.64 285.9 48.47 39.93 14.95 57.01 21.2 88.63 46.4 9.62 7.66 9.22 10.63 15.62 16.89 0-32.5-.16-63.48 2.25-94.61 6.27-81.12 22.98-148.86 58.43-220.11 2-4.02 2.22-5.9 5.17-8.35-4.93 49.85 11.03 116.2 28.61 161.34 18.23 46.8 37.14 98.07 30.21 157.6 2.34-1.64 2.92-3.36 4.77-5.8 1.44-1.9 3.1-3.47 4.75-5.17 9.53-9.85 22.63-17.84 35.37-24.3 84-42.64 228.36-65.03 322.89-74.87 40.27-4.19 90.98-7.3 132.16-7.3 6.43 0 14.66 1.16 20.71-.04 1.44-4.22 8.39-14.85 11-19.21 10.34-17.27 23.31-39.01 32.35-57.09 14.2-28.39 24.6-56.56 28.94-91.09 10.99-87.44-18.14-165.67-70.23-225.2l-14.48-15.35c-68.46-68.21-173.36-96.74-269.16-71.97-6.69 1.73-17.74 5.94-23.68 6.52.58-12.95 2.93-24.18 2.9-38.11-.22-80.5-24.78-144.89-77.46-203.37-12.13-13.46-27.23-26.14-42.82-37.56-14.51-10.63-32.4-21.46-50.88-29.53-42.93-18.72-81.05-27.03-133.68-25.28-84.69 2.83-162.97 48.34-211.95 109.52-38.05 47.52-63.22 111.75-63.12 177.94.03 18.67 2.6 53.59 7.88 70.83-3.31-.07-17.83-7.11-22.54-8.97-24.14-9.55-49.48-15.86-75.74-18.43-71.29-7.01-140.52 14.34-194.69 55.02-19.75 14.84-32.09 27.47-48.33 46.12-4.43 5.1-9.4 11.72-13.57 17.93-69.96 104.09-66.93 233.98 9.49 331.57 22.72 29.02 25.9 20.75 24.16 38.6h-.01z" class="fil3"></path><path d="M878.46 1467.1c2.29-.94 8.38-6.86 10.77-9.12 10.88-10.29 69.88-57.84 80.77-63.15v403.54c34.08-9.28 88.76-6.64 125.48 1.83 16.94 3.91 23.58 7.27 36.89 10.91-14.2-88.54 18.88-176.09 61.51-229.89 32.76-41.35 75.7-75.65 126.72-96.12 19.15-7.69 36.18-12.18 57.81-17.19v-17.79c10.58-2.29 83.52-2.4 94.45 0v14.47c10.49 2.25 21.64 3.36 32.01 5.73 25.87 5.93 58.55 17.92 80.69 31.15 23.64 14.12 35.04 22.05 54.18 38.56 35.07 30.23 67.56 78.74 83.58 121.87 13.39 36.06 22.87 84.73 18.56 128.9 25.53-4.36 36.88-9.14 66.89-9.33 21.47-.15 33.91.4 54.35 3.37 5.22.76 11.7 2.4 17.38 2.85l.14-392.88c3.29 1.31 15.31 10.49 18.79 13.11 20.66 15.47 44.57 33.89 63.43 51.73l8.73 7.84c4.61 4.49 3.31 4.38 3.28 12.85-.06 30.34-.89 337.97.32 345.18 2.35 2.26 28.09 18.45 47.72 37.15l21.02 21.23c3.23 4.16 6.57 7.61 9.78 11.77 28.49 36.79 51.13 79.26 60.43 131.84 8.86 50.06 6.43 104.87-10.1 149.06-15.46 41.29-37.91 76.98-58.84 111.32 23.18 1.75 56.7 3.17 75.69 11.14l-21.61 9.46c-27.69 13.89-50.82 32.92-74 51.91l-37.96 32.45c-2.52 2.29-11.91 10.07-12.35 12v195.51c0 5.35 1.54 24.02-1.11 27.15-1.05 2.85-29.13 25.96-33 29.54-9.42 8.71-35.91 28.94-47.57 37.76-3.75 2.83-8.83 7.32-12.65 9.1l-.27-219.74-40.9 30.07c-72.75 51.71-151.45 92.27-239.61 116.56-28.02 7.72-67.5 5.91-97.48.83-10.15-1.72-19.78-5.12-29.43-6.63l-.02 43.53-15.52.41-75.59.11-3.22.45-.26-42.23c-47.17 6.19-87.26 9.2-134.7 1.35-56.12-9.29-85.09-16.41-134.44-46.06-7.45-4.48-14.79-9.43-22.15-14.29-7.14-4.72-14.62-10.28-21.1-15.38-25.58-20.09-54.37-45.6-77.29-68.52-4.86-4.86-13.47-14.53-18.35-18.01l-1.69 237c-8.36-6.04-15.54-11.92-23.66-17.87-13.14-9.64-33.37-27.1-46.54-37.99l-21.81-20h-1.26c1.08 3.87 14.8 14.42 18.45 17.99 6.51 6.38 12.97 11.23 19.9 17.39 23.87 21.25 80.15 60.44 108.43 76.32 7.9 4.43 15.83 8.86 23.87 13.44 30.62 17.44 67.46 33.51 101.89 46.38 203.31 76 430.44 62.97 615.6-25.18 25.2-11.99 48.74-24.23 72.01-38.23 7.89-4.75 15.75-9.43 22.97-14.32 7.38-4.99 15.05-9.73 21.87-14.6l42.73-31.79 39.75-33.98c11.06-10.76 28.99-25.02 37.97-36.6l17.95-19.35c16.3-16.09 53.41-64.59 65.57-82.74 19.73-29.44 38.08-58.34 55.08-92.41 55.19-110.6 86.51-228.08 86.51-357.88 0-195.46-68.62-365.87-170.31-495.32l-51-59.19c-5.05-6.38-29.18-29.06-37.57-36.99-1.94-1.83-3.01-2.31-4.99-4.12l-14.88-13.29c-6.65-5.98-12.82-10.98-19.82-16.63l-31.45-24.07c-41.41-30.27-79.64-52.9-128.22-76.4-222.36-107.56-492.96-102.65-716.88 16.82-33.88 18.07-62.98 36.76-91.43 56.94-14.91 10.58-28.21 21.13-41.62 32.1a499 499 0 0 0-9.89 8.32c-4.79 4.14-27.72 23.22-29.37 26.97z" class="fil4"></path><path d="m832.7 2299.66-16.47 2.38c-13.93 1.27-40.68 8.13-50.83 14.61 12.38 2.84 21.3 4.35 33.26 9.01 24.81 9.66 44.69 23.22 65.18 39.19 3.61 2.81 8.03 7.05 11.66 8.96l-.15 253.72h1.26c-1.68-7.41-.48-167.19-.48-189.52 0-11.97-.59-55.4.2-63.59 1.34 1.41 3.35 2.76 5.48 4.76 8.85 8.33 21.15 18.32 30.28 27.71 3.98 4.1 7.49 7.57 11.55 11.63 15.31 15.31 30.28 31.29 46.08 45.99-1.12 18.86-.24 40.42-.24 59.65 0 56.32-.61 115.4.02 171.49.01 1.09.1 3.18.01 4.17-.15 1.74.14-.16-.2 1.53-.49 2.43-.25 1.25-.69 2.03l1.69-237c4.88 3.48 13.49 13.15 18.35 18.01 22.91 22.92 51.7 48.43 77.28 68.52 6.48 5.1 13.98 10.66 21.1 15.38 7.37 4.87 14.71 9.82 22.15 14.29 49.36 29.66 78.32 36.77 134.45 46.06 47.44 7.84 87.53 4.84 134.7-1.35l.25 42.23 3.23-.45-2.85-.08-.03-42.52c6.42-.29 17.39-3.05 24.06-4.46 8.23-1.72 15.93-3.48 24.12-5.7 12.88-3.48 10.36-4.89 22.78 0 7.09 2.79 15.13 5.13 22.14 7.68l.27 44.19c-3.22 0-12.38-.62-14.91.79l15.51-.41.03-43.53c9.64 1.51 19.29 4.91 29.43 6.63 29.97 5.08 69.46 6.88 97.48-.83 88.14-24.29 166.86-64.85 239.6-116.56l40.9-30.07.27 219.74.36-221.19c10.55-10.18 43.33-34.41 58.61-48.93l23.19-19.92c3.63-3.11 8.03-7.82 11.54-10.07v167.57c0 11.48 1.49 47.48-.48 56.14 2.64-3.14 1.11-21.8 1.11-27.15v-195.51c.43-1.93 9.83-9.71 12.35-12l37.95-32.45c23.18-18.99 46.31-38.02 74.01-51.91l21.61-9.46c-18.99-7.97-52.5-9.39-75.69-11.14-3.2.21-6.25.22-9.46.06-.79-.04-3.48-.17-4.14-.25-3.42-.45-1.19.43-3.29-.94-6.04 1.2-14.28.04-20.71.04-41.17.01-91.88 3.11-132.16 7.3-94.53 9.84-238.88 32.23-322.89 74.87-12.73 6.46-25.83 14.46-35.37 24.3-1.65 1.7-3.3 3.27-4.75 5.17-1.85 2.44-2.42 4.16-4.77 5.8 6.94-59.52-11.98-110.8-30.21-157.6-17.58-45.13-33.53-111.49-28.61-161.34-2.96 2.45-3.18 4.33-5.17 8.35-35.45 71.25-52.16 138.99-58.43 220.11-2.41 31.13-2.25 62.12-2.25 94.61-6.41-6.26-6.01-9.22-15.61-16.89-31.62-25.2-48.71-31.45-88.64-46.4-77-28.82-205.65-43.77-285.89-48.47-49.44-2.88-112.53-3.56-160.12 3.03h-.01z" style="fill:#d79831"></path><path d="m875.34 2627.53.15-253.72c-3.62-1.91-8.04-6.15-11.66-8.96-20.49-15.97-40.37-29.53-65.18-39.19-11.95-4.66-20.87-6.17-33.27-9.01 10.17-6.48 36.92-13.34 50.83-14.61.36-6.83 1.31-5.57-7.36-14.79-24.49-26.07-44.58-59.67-57.61-93.96-31.5-82.93-23.45-169.6 18.14-247.94 17.25-32.5 41.19-59.12 68.44-83.11 15.11-13.3 25.8-18.2 36.1-26.13.96-.74.8-.61 1.54-1.39 1.54-29.29.11-62.82.11-92.58l-.05-266.81c-.02-6.97 1.17-4.17 2.95-8.22-4.91 2.49-21.6 20.51-26.09 25.27-3.95 4.19-8.98 8.39-12.83 12.86l-12.4 14.12c-4.67 4.77-7.54 8.88-12 13.67-21.82 23.44-59.55 79-75.66 105.76-73.01 121.28-113.68 263.55-113.68 406.55 0 65.36 6.61 127.54 21.15 186.81 29.01 118.24 79.52 222.45 152.98 314.22 4.11 5.12 7.49 9.52 11.48 14.21 12.49 14.63 56.83 64.61 63.95 66.94v.01z" class="fil4"></path><path d="M525.56 352.89c2.24 3.36 5.32 5.25 7.93 8.64 4.33 5.6 19.63 20.28 25.08 27.11 3.61 4.53 7.35 6.88 12.43 13.25l37.59 40.28c2.91 3.16 5.81 5.52 8.72 8.68l16.54 18.25c2.96 3.07 5.94 5.54 8.71 8.69 1.67 1.9 1.85 2.63 3.72 4.56 1.67 1.74 2.87 2.84 4.57 4.54 11.53 11.45 8.63 8.07 5 32.76-1.18 8.04-2.39 15.74-3.41 23.09-2.2 15.61-4.18 31.03-6.77 46.25-2.59 15.2-4.59 30.71-6.77 46.26-1.24 8.79-6.49 39.78-6.49 46.53l32.29-14.93c23.24-11.44 53.31-24.08 76.23-35.61 7.28-3.66 14.36-6.63 22.1-10.21l43.91-20.81c2.65-1.27 2.03-1.27 4.68 0l144.71 71.61c7.12 3.57 14.52 7.06 21.54 10.77 0-7.8-18.45-149.97-20.86-169.67-.91-7.38-2.54-16.74-3.17-24.18 3.8-5.67 11.33-10.88 16.09-17.05 5.71-7.4 29.29-28.53 37.13-37.43 11.69-13.27 24.68-25.64 37.29-38.1 3.16-3.12 4.71-5.58 7.87-8.7l24.85-24.85c4.27-4.27 7.36-5.99 7.66-9.73-6.94 0-131.86-25.21-151.12-28.65l-37.62-7.12c-4.54-1.07-3.11-.84-7.04-8.7-11.13-22.31-24.79-46.23-35.91-68.47l-41.53-79.41c-1.75-2.87-4.35-7.23-5.13-10.61-3.26 2.19-3.8 5.56-5.84 9.08l-7.98 14.38c-1.15 2.06-1.72 2.69-2.77 4.7l-24 43.93c-1.11 2.13-1.85 2.97-3.05 5.24-3.65 6.85-6.79 12.44-10.48 19.33l-37.81 68.24c-2.6 4.53-1.36 6.31-7.55 7.36-9.02 1.51-17.32 2.82-26.33 4.32L525.54 352.9zM1768.19 352.89c4.01 6 59.98 63.12 66.62 71.73 3.51 4.53 29.58 30.79 37.17 39.86 1.46 1.74 2.9 2.98 4.52 4.59l8.3 9.11c19.13 21.72 17.79 11.66 15.24 29.76l-25.81 173.83c4.84-.4 103.59-48.46 119.53-55.27l55.27-26c4.13-1.88 2.14-1.75 10.21 2.29 3.79 1.9 6.95 3.47 10.49 5.25l43.36 21.26c7.51 3.76 14.03 7.02 21.54 10.77 14.51 7.25 28.02 14.02 42.52 21.26 7.2 3.6 14.29 7.63 21.58 10.74 7.85 3.36 14.6 6.74 21.77 10.54l-23.28-187.99c-.93-7.3-1.55-5.66 3.2-10.21 3.02-2.89 4.39-5.27 7.44-8.29l112.53-114.46c2.38-3.07 5.96-4.98 6.98-8.76-6.58 0-95.48-17.85-101.14-18.98-24.49-4.91-64.8-11.36-87.6-16.79-3.77-.9-3.56-.86-7.33-8.4-19.53-39.15-42.26-79.59-61.83-118.76-1.85-3.7-3.36-5.82-5.26-9.65-3.56-7.18-14.21-26.19-15.19-30.38h-1.66c-.97 4.2-22.23 40.88-26.23 48.32-12.07 22.48-26.25 46.69-37.54 68.5l-24.29 43.63c-1.7 3.03-3.9 9.68-7.06 11.16-1.13.54-1.58.48-3.4.75l-154.48 26.12c-8.93 1.62-17.88 2.55-26.16 4.49h.01zM1332.44 196.32c-6.68 0-37.31 5.95-46.38 7.46-15.45 2.54-30.49 4.94-46.18 7.66l-80.7 13.75c-3.94.65-8.3 1.77-12.31 1.77.67 2.48 13.37 15.48 15.94 18.02l117.44 125.29c0 7.54-2.1 16.73-3.07 23.45-5.39 37.31-11.03 79.25-17.05 115.49-1.22 7.31-6.39 41.36-6.39 47.47 11.39-6.04 31.36-14.36 43.35-20.44l21.51-9.98c18.77-8.01 45.39-22.1 65.44-30.66l43.39-20.46c4.55-2.26 6.7.24 10.77 2.28l160.99 79.25-23.28-187.99c-.94-7.33-1.55-5.64 3.19-10.22l26.48-26.54c7.95-9.51 17.35-18.1 26.13-26.88 2.68-2.69 4.77-4.77 7.45-7.46 3.2-3.19 4.57-4.74 7.5-8.25l52.15-53.05c2.57-2.57 6.26-4.78 7.25-8.49-7.06-.59-81.08-15.87-95.99-18.34-7.75-1.29-15.28-2.96-23.66-4.51-8.42-1.57-15.85-2.99-24.3-4.7-5.2-1.06-43.75-8.91-48.25-8.91-1.05-4.47-17.79-34.74-21.26-41.7-7.14-14.29-14.41-27.11-21.54-41.42l-37.84-72.35c-2.07-4.19-4.78-7.89-5.52-11.04h-1.66c-.71 3.02-9.5 18.01-11.56 21.58l-55.89 101.5c-3.67 6.15-25.36 44.97-26.16 48.41z" class="fil1"></path><path d="M2326.13 1973.26c0 36.22 9.97 71.12 29.1 98.91l18.52 22.89c14.15 14.55 29.33 24.68 47.03 34.92 14.34 8.29 46.96 17.41 63.35 18.84 56.29 4.96 90.61-12.89 122.38-39.73 28.68-24.25 53.87-69.64 53.87-110.98 0-50.58-13.2-88.74-43.97-125.86-1.88-2.26-3.57-3.49-5.19-5.55-9.74-12.3-34.21-29.76-48.58-36.76-33.73-16.42-53.41-17.8-88.64-17.8-29.86 0-62.65 13.15-85.25 30.33-3.93 2.98-6.88 5.81-10.37 8.66-15.83 13-31.44 37.73-39.52 57.39-7.51 18.3-12.73 42.78-12.73 64.74M332.76 1813.18c-43.61 5.31-81 26.79-105.75 61.97-24.08 34.25-37.83 83.7-27.57 135.05 4.1 20.49 13.93 44.46 24.1 59.67 22.91 34.26 56.69 59.91 96.35 71.53 32.99 9.66 72.3 12.57 106.63-1.26 72.82-29.34 117.54-104.06 100.02-186.13-17.46-81.77-91.8-153.26-193.78-140.83" class="fil6"></path><path d="m1830.32 373.6 39.35 42.66c2.05 2.09 4.02 4.05 6.22 6.2 3.07 2.99 5.46 6.62 11.16 12.05l11.61 12.4c4.31 4.3 7.05 7.85 11.6 12.43l22.85 24.41c2.98 3.57-.07 14.65-.88 20.01l-12.28 82.99c-1.86 12.69-5.56 30.18-5.95 42.42 4.49-1.41 12.84-5.69 17.38-7.94 37.85-18.75 79.59-36.55 118.5-55.57 3.92-1.92 8.91 2.05 16 5.6 15.13 7.56 111.41 55.94 116.52 57.51l-18.73-150.76c-.2-1.97 15.22-16.18 18.32-19.47l57.16-58.84c6.15-6.14 21.96-20.52 25.47-26.91l-117.23-22.24c-6.62-1.27-12.58-2.45-19.46-3.75-3.19-.6-6.27-1.12-9.72-1.83-4.77-.98-4.31-2.13-6.23-6.14-2.4-5.01-61.79-119.73-64.81-122.61-2.77 3.75-5.65 9.96-8.26 14.67-12.87 23.29-29.9 52.92-41.52 75.33l-20.9 37.89c-4.39 8.35-3.94 5.72-25.45 9.3-13.03 2.17-26.7 4.5-40.41 6.82-13.46 2.28-25.78 4.43-39.64 6.75l-40.66 6.64zM588.12 373.6l22.76 24.85c2.61 2.49 3.21 3.6 5.43 6.19l46.34 48.92c8.36 9.75 20.9 21.8 28.64 31.02 2.59 3.07-.8 14.39-1.53 19.33l-12.26 83.01c-1.98 13.87-5 28.96-6.12 42.24l135.86-63.5c3.62-1.7 4.53-.2 7.72 1.43 17.86 9.13 118.41 59.33 125.02 61.45-3.67-37.97-10.47-85.12-15.47-124.4-.9-7.08-1.68-13.87-2.59-20.62-.62-4.65-1.54-5.81.79-8.45 1.96-2.22 4.16-4.08 6.29-6.21 16.16-16.16 30.24-31.07 46.39-47.23 4-4 7.75-7.49 11.6-11.58l11.59-12.44c5.37-5.37 20.14-18.83 23.5-24.02-2.4-1.44-6.75-1.85-9.55-2.4l-127.16-24.44c-16-3.18-11.77-.83-15.87-8.15-5.49-9.77-10.71-20.42-15.94-30.47l-40.05-76.76c-1.91-3.67-6.51-13.5-9.17-15.38-3 7.64-26.44 48.18-32.65 59.88l-37.37 67.88c-1.94 3.46-1.96 5.26-5.33 6.23l-140.86 23.61zM1209.63 248.11c1.21 2.81 10.07 11.91 12.63 14.48l51.78 55.09c7.92 7.84 33.83 37.8 39.55 41.63l-21.09 144.33 67.56-31.25c22.48-10.91 45.32-20.6 67.63-31.82 4.89-2.45 7.83.65 16.6 5.04l49.98 24.64c10.25 5.13 60.82 31.11 66.82 33-.35-10.66-8.29-68.11-10.25-83.67l-7.85-62.62c-.81-5.89-.84-5.32 7.75-14.44 7.38-7.84 15.29-15.29 23.19-23.18l69.8-71.45c-9.11-2.97-121.78-23.27-146.54-28.36-4.78-.98-4.4-2.05-6.33-6.06l-64.8-123.18c-4.81 9.82-10.98 19.64-16.52 29.81-5.42 9.96-11.01 20.71-16.76 30.47L1359.55 211c-9.06 17.09-5.99 12.86-29.47 16.84-12.91 2.19-112.15 19.67-120.43 20.27z" class="fil2"></path><path d="M1084.88 900.25c.6 5 16.71 60.21 18.08 61.95l14.02-3.98 10.87 38.3c-3.11 2.13-44.79 13.79-50.57 14.85-2.26-3.06-10.29-32.6-11.39-38.01 3.09-2.38 9.33-3.46 13.67-4.34l-17.5-62.38-103.01 29.67c-2.49.71-4.55 1.31-7.09 2.04-2.78.8-5.41 1.16-7.43 2.91l17.27 61.2 17.26-4.62 38.32 133.91c-3.76.64-14.28 3.56-16.73 5.03 1.76 7.16 16.23 58.52 18.02 61.52l117.42-33.6-17.69-61.71-14.38 3.62c-2.21-7.32-11.94-37.24-11.4-41.68l50.07-14.55c2.17 3.02 11.24 36.29 12.47 41.87l-14.26 3.83 17.63 62.02 118-34.16c-4.59-10.5-14.37-55.12-18.22-61.52l-16.52 4.73-38.29-133.91c3.62-.64 14.38-3.61 16.7-5.01l-17.57-61.59zM2424.57 1487.5l6.87 16.72c-1.57 1.9-110.58 48.55-127.27 54.73-2.03-1.98-3.08-5.65-4.12-8.17l-3.78-7.99c-.08-.12-.25-.34-.39-.51l-58.74 24.77 49.07 116.36 59.31-24.9-6.27-15.61c2.32-2.8 35.56-16.35 41.33-17.97l10.6 25.98-75.79 83.42c-2.35 2.43-3.62 3-5.01 5.52 1.86 6.03 5.2 12.66 7.81 18.88l25.12 58.39c6.81-3.87 21.1-9.03 29.14-12.46 6.14-2.63 25.92-10.09 29.9-13.03-1.32-2.3-2.87-6.55-4.1-9.36-2.57-5.91-2.49-5.56.93-9.72 6.02-7.32 36.88-44.1 39.61-48.84 3.7 1.51 5.65 3.58 9.79 5.74 25.49 13.27 59.13 6.53 79.98-9.79 24.78-19.4 36.04-45.33 24.88-86-8.4-30.63-37.7-96.41-51.57-128.97-3-7.06-15.94-38.58-18.34-42.16l-58.96 24.96zM2092.1 1358.59c0 49.62 29.87 92.48 71.62 116.46 35.95 20.63 82.94 16.18 119.2-1.02 7.97-3.78 16.23-9.3 22.59-13.83 7.39-5.25 13.35-11.1 19.37-17.1 38.25-38.18 57.17-99.1 31.28-151.35-5.93-11.97-13.46-22.18-22.16-31.75-1.7-1.86-1.96-2.68-3.74-4.56-20.86-22.16-53-39.34-84.92-39.34-26.16 0-43.56 2.98-67.67 15.13-13.19 6.65-21.16 12.27-32.04 21.03l-13.4 13.11c-4.74 5.55-5.04 4.42-12.34 14.16-16.36 21.8-27.81 49.63-27.81 79.06h.01zM268.33 1711.08c2.05 1.36 53.64 22.94 60.07 24.43 1.6-5.66 5.66-15.55 8.28-20.5l128.54 51.76-8 20.73c3.22 2.36 53.46 22.41 60.07 24.43l50.72-126.27-59.75-23.88-8.85 21.15-34.27-13.38c1.59-6.43 13.7-34.18 17.42-44.17 6.41-17.27 11.95-34.34 11.95-53.91 0-21.94-13.26-42.55-24.47-52.16-10.72-9.2-35.09-22.39-54.64-22.39-19.06 0-25.91.18-44.12 10.52-9.26 5.26-17.39 13.34-22.93 21.02-20.21 27.95-40.37 85.25-54.93 120.71l-25.07 61.91zM423.77 1383.44 474.2 1423c4.5-4.38 8.85-11.96 11.8-13.67l61.93 89.22c6.67 9.92 13.46 19.82 20.5 29.67-2.15 4.92-7.94 9.48-10.36 14.28l50.33 39.56 56.76-72.5-46.19-36.24c-1.92 1.7-10.4 12.45-11.19 14.51-3.28-2.42-19.45-26.36-20.29-28.17 2.11-3.51 5.81-7.92 8.65-11.43l18.17-23.27c2.76-3.7 6.93-8.09 8.8-11.69l31.64 13.34c-2.58 5.3-9.14 11-11.97 16.06l46.4 36.46c6.41-7.9 12.42-15.68 18.62-23.64 9.4-12.06 50.59-63.82 55.94-72.05-1.91-2.51-31.83-24.99-37.25-29.45-2.74-2.26-11.21-8.15-12.68-10.31-2.52 1.87-9.61 10.96-10.77 13.26l-137.08-50.59c2.58-4.79 8.8-9.9 10.85-14.85-3.67-4-42.89-32.91-50.23-39.36-1.33.78-101.02 127.36-102.83 131.31zM1618.82 930.25c5.38.89 13.89 1.87 17.64 4.19-1.21 3.79-6.19 11.64-8.45 15.6l-26.82 47.74c-4.73 8.31-32.96 60.59-36.18 63.2l-16.18-3.43c-2.65 4.42-10.62 51.98-13.86 62.46 1.32.94 83.27 18.94 89.9 19.48l12.64-57.55-18-3.86c1.39-5.33 12.54-22.54 15.92-30.55l57.98 12.24 1.63 34.14-19.56-3.85-12.47 57.64 118.77 25.33 13.41-62.73-16.51-4-14.39-144.9 17.77 3.39c1.98-4 12.52-54.99 13.58-62.64-5.06-2.76-157.94-32.93-162.9-35.22l-13.9 63.33z" class="fil1"></path><path d="M1378.41 1467.91c-21.63 5-38.66 9.5-57.81 17.19-51.02 20.47-93.96 54.77-126.72 96.12-42.63 53.8-75.71 141.34-61.51 229.89-13.3-3.63-19.94-7-36.89-10.91-36.73-8.47-91.41-11.11-125.48-1.83-17.8 3.37-35.41 8.93-50.82 15.13-7.94 3.2-15.74 6.46-23.06 10.16-4.19 2.12-17.98 10.52-20.66 11.06-.74.78-.58.65-1.54 1.39-10.29 7.93-20.99 12.83-36.1 26.13-27.25 23.99-51.19 50.61-68.44 83.11-41.59 78.34-49.64 165.01-18.14 247.94 13.03 34.29 33.12 67.89 57.61 93.96 8.67 9.22 7.72 7.96 7.36 14.79l16.48-2.38c1.74-17.85-1.44-9.58-24.16-38.6-76.42-97.59-79.45-227.48-9.49-331.57 4.17-6.21 9.13-12.83 13.57-17.93 16.24-18.65 28.58-31.28 48.33-46.12 54.18-40.69 123.39-62.03 194.69-55.02 26.26 2.58 51.59 8.88 75.74 18.43 4.71 1.87 19.22 8.9 22.54 8.97-5.28-17.24-7.84-52.16-7.88-70.83-.1-66.19 25.07-130.42 63.12-177.94 48.98-61.18 127.27-106.69 211.96-109.52 52.62-1.74 90.74 6.57 133.67 25.28 18.48 8.07 36.37 18.9 50.88 29.53 15.59 11.42 30.69 24.1 42.82 37.56 52.69 58.48 77.24 122.87 77.46 203.37.03 13.94-2.32 25.16-2.9 38.11 5.95-.58 16.99-4.79 23.68-6.52 95.8-24.77 200.69 3.76 269.16 71.97l14.48 15.35c52.09 59.53 81.22 137.76 70.23 225.2-4.34 34.53-14.74 62.7-28.94 91.09-9.04 18.08-22.01 39.82-32.35 57.09-2.61 4.36-9.56 14.99-11 19.21 2.1 1.37-.13.49 3.29.93.65.1 3.35.22 4.14.26 3.21.16 6.26.15 9.46-.07 20.92-34.32 43.38-70.02 58.83-111.31 16.54-44.19 18.96-99 10.11-149.07-9.3-52.56-31.94-95.04-60.43-131.84-3.22-4.15-6.55-7.6-9.78-11.76l-21.03-21.23c-19.62-18.7-45.36-34.89-47.72-37.15-4.72-1.63-31.65-19.19-68.97-30.89l-25.71-6.95c-5.68-.45-12.16-2.09-17.39-2.85-20.44-2.97-32.86-3.52-54.34-3.37-30.01.19-41.36 4.97-66.89 9.33 4.31-44.18-5.17-92.85-18.57-128.9-16.02-43.14-48.5-91.65-83.57-121.87-19.14-16.5-30.54-24.44-54.18-38.56-22.15-13.24-54.82-25.22-80.69-31.15-10.37-2.38-21.52-3.48-32.02-5.73-6.92-.05-16.05-1.34-23.6-1.7-8.6-.41-17.07-.54-25.7-.05-16.82.95-29.49 2.65-45.14 5.07z" class="fil7"></path><path d="m403.84 2415.32 15.27 32.22 16.69-7.87 15.89 33.72c-9.88-1.71-25.58-7.26-35.6-10.38-12.14-3.79-24.12-7.31-36.33-10.94-5.27-1.57-32.74-10.5-35.68-10.52-1.98-.01-28.93 12.7-32.14 14.67l63.68 137.41 49.58-22.95c-.42-2.73-13.44-30.2-15.19-32.88l-18.59 8.61c-3.36-5.86-5.92-12.5-9.1-18.96-2.98-6.06-6.76-13.87-8.96-19.88 7.93 1.05 24.09 7.05 32.48 9.56 11.36 3.41 22.03 6.66 33.07 10 5.77 1.74 45.29 15.07 49.39 13.61 4.72-1.67 9.63-5.08 15.12-6.87-2.81 3.26-17.47 12.25-21.34 15.32 1.73 2.42 5.86 8.13 6.84 11.19-17.91 13.11-45.55 30.14-65.03 43.91-2.38-1.74-6.09-7.95-7.45-10.57-4.32 1.86-26.65 17.28-30.96 20.71l47.63 70.91c13.24 19.45 35.46 55.84 62.65 55.84 12.37 0 21.56-4.09 28.62-11.15 14.25-14.26 10.56-27.61 8.6-43.58 5.63 2.25 11.26 9.59 25.74 9.59 14.89 0 31.07-17.03 31.07-31.9v-7.45c0-19.37-41.25-74.9-54.91-95.44L514.56 2531c-1.53-3.87 1.74-.42-6.3-16.8-13.56-27.58-26.56-58.5-40.32-86.44l-15.88-34.72-48.2 22.25zM1305.1 960.95h43.91v-48.87h26.52l-.02 139.17-20.31.3.02 63.91c5.53.94 122.63.99 130.91.12l-.01-63.91c-5.93-1.01-14.47-.44-20.71-.41V912.09h26.08l.01 48.87h43.91v-113.5H1305.1v113.5h.01zM878.46 1467.1c-1.77 4.05-2.97 1.26-2.95 8.22l.05 266.81c0 29.76 1.44 63.29-.11 92.58 2.68-.55 16.47-8.94 20.66-11.06 7.32-3.7 15.12-6.96 23.06-10.16 15.41-6.2 33.02-11.76 50.82-15.13v-403.54c-10.88 5.31-69.89 52.86-80.77 63.15-2.39 2.26-8.48 8.18-10.77 9.12zM2355.11 2457.48l34.27 14.78 4.32-11.24 38.34 15.78-4.61 1.75c-1.92.44-3.57.68-5.49 1.06-3.74.77-7.53 1.59-10.94 2.3l-65.06 13.66c-10.82 2.12-8.46 2.92-12.67 12.97l-23.71 56.21 34.33 14.19 4.89-11.99c4.88 1.07 70.66 29.1 73.02 30.94l-4.95 12.44 33.9 13.99 24.99-57.83-33.78-14.74c-2.27 3.15-3.41 9.34-6.07 11.97-7.87-2.76-16.05-6.67-23.84-9.93-3.41-1.43-20.99-8.4-23.79-10.78 12.23-1.5 28.34-5.75 40.73-8.37l61.65-12.94c8.68-1.67 6.17.12 11.81-13.01l14.62-35.06-108.63-46.41 4.93-12.38 29.3 5.16 6.52-28.58-26.96-6.05 3.63-16.81 77.1 17.79-2.49 12.67 35.6 8.58c2.21-4.36 12.28-51.14 14.86-62.46 1.52-6.65 3.87-14.84 4.76-21.45l-35.74-8.68-3.18 12.8-77.4-17.48 3.65-16.44 27.34 5.98 6.39-27.99-62.83-14.95c-2.22 3.74-10.78 44.18-12.55 52.12-1.4 6.31-19.27 87.41-21.9 91.56l-24.39 56.87zM1880.5 1787.71l25.72 6.94c37.32 11.71 64.24 29.26 68.97 30.9-1.2-7.22-.38-314.85-.32-345.19.03-8.46 1.33-8.36-3.28-12.85l-8.73-7.84c-18.86-17.84-42.77-36.26-63.43-51.73-3.48-2.62-15.5-11.8-18.79-13.11zv.01zM620.83 1156.25c1.71 4.04 15.26 20.86 19.03 25.89 3.3 4.41 6.23 8.31 9.59 12.78 1.62 2.14 3.16 4.21 5 6.61l5.31 6.5c5.14-3.36 9.2-6.92 14.08-10.15l72.9 96.09c2 2.66 8.49 11.93 10.77 13.67l-13.67 11.58 38.95 51.38c26.01-18.35 60.37-45.6 87.87-66.2 2.95-2.22 10.39-7.2 12.48-9.61l-38.64-51.27c-3.19 1.5-11.18 7.98-14.08 10.46-3.28-2.5-7.74-9.31-10.63-13.16l-73.13-97.63c2.11-2.02 11.82-9.65 14.19-10.56-1.71-3.63-24.43-32.81-28.76-38.56-3.46-4.6-6.57-9.39-10.19-13.23-6.51 3.38-96.99 73.83-101.06 75.39zM1917.3 1010.86c4.74 2.38 10.01 6.49 14.71 9.73-4.44 8.5-13.35 19.92-19.19 28.65l-58.28 86.28c-4.65-1.37-10.47-6.93-14.69-9.32l-26.83 39.49c-2.41 3.57-7.4 10.37-9.02 13.95 2.73 3.11 20.16 13.88 25.47 17.42l78.7 52.89 36.04-53.12c-3.73-3.85-11.33-6.77-14.51-10.57 2.6-5.45 75.1-111.83 77.25-114.94 3.63 2.26 11.96 8.64 15.74 9.73 4.86-9.34 32.61-47.26 35.21-53.02-2.76-2.8-8.64-6.45-12.38-8.95l-39.6-26.67c-17.56-11.69-34.64-23.6-52.4-35.22-2.21 2.6-34.36 49.13-36.24 53.65z" class="fil1"></path><path d="M741.58 1065.11c1.65 6.19 34.33 44.89 38.1 52.41 4.65-2.19 10.31-7.8 14.92-10.57.45 8.34-8.63 75.57-8.48 82.99.07 3.59 3.9 3.6 7.58 4.9 9.97 3.54 74.76 25.12 77.93 27.88l-7.87 6.63 35.84 47.59c1.7 2.27.65 1.64 2.88 3.15l83.91-62.91c3.58-2.67 9.42-6.53 11.89-9.36-6.24-8.31-12.82-17.04-19-25.42-3.36-4.55-6.07-8.14-9.56-12.81-2.43-3.23-7.53-10.82-10.06-12.93-12.7 6.63-1.66 9.32-25.38 1.13-9.72-3.36-18.48-6.41-28.2-9.9-9.1-3.27-18.43-6.59-27.61-9.69-8.93-3.02-19.54-7.47-28.37-9.7l7.35-68.44c.76-1.7 11.75-9.47 13.98-11.5l-38.52-51.16c-4.89 1.88-84.91 64.95-91.33 67.73zM2042.38 1095.36l12.9 8.55c.16.15.34.35.46.5l.93 1.09c-12.85 3.59-28.41 6.6-41.61 9.62-2.76.63-40.73 8.2-41.44 10.68l-.53 89.67-8.56-5.11-36.27 52.96 99.62 67.52 35.74-53.44c-11.88-11.68-9.46 7.95-9.22-55.5l.44-57.57c8.57-.74 58.46-14.4 65.76-15.04 4.52-.4 10.21 6.62 17.25 9.65 1.24-3.66 6.02-9.79 8.7-13.45 3.38-4.61 25.94-37.92 26.72-40.6-2.99-1.01-41.63-27.53-47.73-31.62L2078 1041.3l-17.76 27.01c-3.83 5.77-15.78 22.22-17.86 27.06h-.01zM876.59 2627.53l21.82 20c13.16 10.88 33.39 28.35 46.54 37.99 8.11 5.95 15.3 11.83 23.66 17.87.43-.78.2.4.69-2.03.34-1.69.05.21.2-1.53.08-.99 0-3.08-.01-4.17-.63-56.09-.02-115.17-.02-171.49 0-19.22-.88-40.79.24-59.65-15.8-14.7-30.77-30.68-46.08-45.99-4.06-4.06-7.57-7.54-11.55-11.63-9.13-9.4-21.43-19.38-30.28-27.71-2.13-2.01-4.14-3.35-5.48-4.76-.79 8.18-.2 51.61-.2 63.59 0 22.34-1.2 182.11.48 189.52zM2042.18 2871.27l20.09 30.45c3.49-1.35 5.07-3.34 8.49-4.76 2.74 6.07 9.64 13.28 11.59 19.05-2.28 2.15-26.56 17.91-28.99 18.84-2.57-3.51-10.79-15.76-11.9-18.84 2.19-2.35 4.77-3.7 7.56-4.96-1.38-4.02-16.74-25.83-19.68-31.49-3.24 1.4-5.82 3.44-8.94 5.34l-42.63 27.78c-5.85 3.87-11.55 7-16.99 11.2 1.2 1.29 3.38 5.3 4.55 7.06 1.71 2.54 3.49 5.25 5.29 7.94 2.99 4.5 7.12 12.36 10.46 15.76 3.71-1.62 5.62-4.15 10.35-5.9 2.02 4.79 31.64 48.69 36.92 57.5 1.84 3.04 4.4 5.5 5.33 9.6-2.41 1.01-7.35 4.06-9.11 5.8 3.08 4.79 6.49 9.79 9.73 15.11 1.84 3.02 8.77 14.03 10.57 15.67 6.07-4.11 64.37-41.02 67.73-44.44l-19.68-30.65c-3.19 1.06-5.45 3.28-8.28 4.76-2.31-1.59-12.24-17.2-13.67-20.7 5.86-2.29 23.53-16.11 29.81-18.43 2.93 6.97 9.15 13.1 12.43 20.29-.15.17-.39.18-.48.48l-.94.91c-3.14 2.61-4.09 1.97-6.25 4.41 3.45 6.66 15.31 23.23 20.1 31.07 14.73-10.91 56.66-35.55 67.94-44.52-3.25-4.54-6.49-10.19-9.84-15.21l-10.03-14.99c-.08-.11-.27-.32-.43-.45-3.55 1.94-6.14 3.53-9.12 5.8-2.88-2.54-8.45-12.48-10.93-16.19-4.59-6.88-31.34-47.13-32.35-50.9 3.18-1.22 6.84-3.81 9.11-5.6-2.13-4.72-6.85-10.99-9.88-15.57-3.41-5.16-6.46-10.66-10.21-15.51-4.84 3.64-11.47 7.2-16.7 10.66-6.08 4.03-11.25 7.38-17.01 11.12l-32.64 21.25c-1.02.86-.61.42-1.37 1.3zM769.21 2872.92c2.1 1.94 7.37 5.23 7.76 6.83l-50.94 5.64.36 54.21c-3.09-1.41-3.45-2.19-5.95-3.52-3.48 4.98-7.34 9.86-10.97 14.71l-10.77 14.92c6.07 5.15 61.35 45.98 62.75 48.05l22.57-29.82c-2.16-1.84-3.29-2.59-5.58-4.35-.84-8.66-.65-23.06-.63-32.1.01-3.89-1.01-28.6 1.05-31.88l39.14-4.2c3.29-.27 8.8 5.43 11.6 6.89 2.32-3.07 9.23-13.71 12.63-15.74-1.96 6.27-7.85 12.99-9.73 18.84 2.38 1.49 3.67 2.09 5.84 3.31l5.75 3.73c-1.33 4.02-7.16 13.67-9.37 17.58l-18.92 34.08c-2.79 5.3-7.21 11.86-9.4 17.3-4.77-1.4-7.65-4.47-12.42-6.22-3.07 3.12-6.53 11.21-9.28 15.84-3.08 5.22-5.71 11.18-8.74 15.86l1.21 1.16c.11.08.33.25.44.35l75.18 41.57c1.47-4.04 6.47-12.29 8.71-16.19 2.95-5.11 6.45-10.98 8.69-16.12l-11.52-6.77c1.11-4.76 15.29-28.5 18.8-34.88l19.01-34.56c4.06 1.11 8.28 4.52 12.44 6.22 1.91-2.21 17.28-29.81 17.8-32.94-4.6-1.47-73.49-40.02-75.57-42.05l-3.56-3.09c-2.79-2.09-5.26-3.89-7.99-6.08-5.52-4.43-10.49-7.96-16.05-12.12l-32.07-24.06c-2.31 1.71-9.21 11.5-11.25 14.24-2.76 3.67-9.94 12.05-11.01 15.38zM1880.62 2703.93c3.83-1.78 8.9-6.27 12.65-9.1 11.67-8.83 38.15-29.05 47.57-37.76 3.87-3.58 31.96-26.69 33-29.54 1.97-8.67.49-44.67.49-56.14v-167.57c-3.51 2.25-7.91 6.96-11.55 10.07l-23.18 19.92c-15.29 14.53-48.08 38.76-58.62 48.93l-.35 221.19zM1448.62 3055.76c-.79 1.18-.4.1-.83 2.02-.2.89-.24 1.4-.29 2.32-.07 1.3.11 3.67.2 5.03l.7 19.89c-.02 8.84-.91 8.51 12.85 7.34l1.37 41.73c-2.28-1.67-3.94-4.47-5.8-6.95-2.06-2.76-3.64-4.86-5.68-7.58-9.88-13.19-37.4-51.21-45.06-60.19-2.95-3.46-4.34-1.79-9.81-1.7-20.83.35-44.55 2.06-64.26 2.06-1.2 7.13.02 15.74.37 22.8.79 16.4-3.41 14.93 13.71 13.95l2.91 79.64-12.85.48c-1.2 6.87.41 28.87.71 36.41 7.82 1.27 52.49-1.26 63.09-1.66.44-4.51-.27-34.52-1.45-36.68l-13.05-.11-1.87-51.87c2.47 1.71 6.94 8.3 8.83 10.82l25.2 33.61c5.76 7.69 10.8 14.39 16.69 22.24l16.37 22.37 40.76-1.67c13.6-.13 10.4 5.05 9.18-30.62-.49-14.18-.86-27.17-1.28-41.37-.48-16.03-1.65-30.24-1.65-46.87l13.27-.68-1.31-37.02-61.05 2.24zM1214.6 3073.61c-.6 2.62-38.26 71.5-40.38 73.72l-10.79-1.32c-1.31 1.68-6.07 32.25-6.2 36.34 6.06 1.6 57.23 9.86 60.48 9.11.59-7.3 2.24-15.29 3.36-22.27 2.7-16.83 2.17-8.29-9.58-12.65-.88-2.82 6.53-13.69 8.29-17.69l38.51 6.2 2.64 19.45-12.59-1.97c-1.81 3.14-4.1 22.61-5.03 28.03-1.26 7.32-.63 5.69 7.31 6.84 4.92.73 9.13 1.46 14.31 2.28 9.7 1.53 19.12 2.98 28.58 4.53 5.81.96 23.52 4.49 28.59 4.02l5.66-35.86-11.02-2.16-16.38-82.67 12.23 1.58c.18-4.71 5.8-34.71 5.09-35.97-.99-1.75-30.9-5.73-35.45-6.47-9.74-1.59-69.19-11.86-73.62-10.97-3.09 37.92-13.57 35.02 6.01 37.91zM1727.45 3016.49l8.69 35.98 11.72-2.6-8.26 83.17-11.6 3.73c1.51 3.09 3.6 13.79 4.6 17.82l5.14 17.81 58.61-14.52-8.08-32.97-12.19 2.82 1.66-17.24c.05-.23.11-.45.17-.68l.53-1.36c.63-1.68 32.77-8.84 36.92-9.88l8.88 16.89c-.73.35-.83.44-1.71.74-2.63.89-6.69 1.15-9.41 2.76.63 4.43 7.06 30.34 8.49 32.73l77.46-19.51c-.94-5.47-7.56-32.93-9.31-36l-10.47 2.57c-4.35-5.19-8.5-12.31-12.01-17.56-3.84-5.72-7.62-11.12-11.74-17.24l-23.55-35.28 11.38-2.73-8.69-35.95-107.22 26.51zM579.73 2697.84c2.25 3.99 6.13 5.39 8.16 9.6-5.09 3.41-46.31 47.16-55.71 55.1-3.17-2.54-5.31-6.46-9.31-8.08l-25.37 25.58c1.49 3.82 68.56 69.59 77.35 78.39 4.68 4.69 22.39 23.53 26.3 25.69 11.98-10.69 23.3-23.6 35.01-34.8-5.96-4.9-24.54-26.7-29.62-28.59l-7.97 8.18c-4.16-3.53-8.15-7.95-12.11-11.91s-8.38-7.96-11.81-12.01l17.09-17.28 21.36 21.09c2.95-1.66 20.65-19.36 22.24-22.23l-21-21.27 15.64-15.87c3.62 1.67 19.51 19.05 24.09 23.26-1.71 3.66-5.61 5.36-7.76 9.11 1.68 2.93 25.72 27.02 28.57 28.59 11.99-10.69 23.31-23.6 35.02-34.79l-103.98-103.78-26.18 26.02zM2229.09 2688.19l31.39 20.09c1.06-3.59 3.91-5.95 5.38-9.73 5.01 1.78 26.79 17.1 33.42 21.07 5.68 3.41 11.19 7.54 16.56 10.77 4.52 2.71 12.77 9.13 16.89 10.41-.95 4-3.79 7.45-6 10.35l31.07 20.51c12.42-17.97 27.46-42.36 39.82-61.26 6.63-10.15 13.14-20.67 19.88-30.66l20.04-31.51c-2.99-1.01-16.96-10.59-20.71-13.07-4.11-2.71-17.48-11.9-20.71-13.04-3.98 4.5-16.68 26.19-21.96 33.56l9.8 6.75c-1.25 3.58-16.19 26.13-18.5 28.45-6.81-3.06-14.24-10.05-20.28-12.43 1.18-3.33 5.88-10.08 8.04-13.29 2.14-3.16 6.85-9.54 7.79-12.58-2.3-2.28-9.73-6.8-12.66-8.6-4.17-2.57-9.25-6.31-13.34-8.39-5.41 6.79-11.4 19.24-16.76 24.65-6.48-2.91-12.9-8.87-19.06-11.8 3.12-6.55 16.14-24.42 18.23-28.99 4.1 1.88 7.03 4.74 10.77 6.42l20.86-34.65-40.75-25.62c-5.76 7.59-32.97 51.11-39.78 61.31-2.63 3.95-38.52 58.36-39.44 61.31zM371.88 2249.13l3.2 10.75c-18.58 5.33-59.87 17.22-74.87 25.62-23.67 13.26-29.37 37.92-20.11 70.74 6.95 24.61 23.22 47.89 52.36 47.4 24.41-.4 56.92-16.35 79.61-20.71l2.39 5.51c.59 1.98 1.14 3.82 1.55 5.67l35.62-10.98-16.85-55.2c-4.97 1.01-32.94 9.5-35.56 11.09l2.19 7.01c-14.5 4.65-28.92 8.85-43.24 13.22-13.67 4.16-35.85 13.99-40.57-3.28-4.67-17.03 17.64-21.26 30.36-25.16l44.24-13.31 2.73 6.68 35.17-10.93c-.68-3.25-20.84-71.36-23.19-75.31-4.9 1.21-32.93 9.52-35.02 11.19zM1560.66 3048.96c-.36 3.55 7.83 61.14 9.11 64.63l28.18-4.12-3.45-26.76c2.31-2.15 13.84-3.01 17.11-3.09l10.85 78.67c-15.11.4-13.33.74-11.59 12.86 1.19 8.33 2.15 17.28 3.63 25.27l85.33-11.66-4.71-36.79-13.48 1.81-10.96-77.84c2.5-2.25 12.99-2.88 16.31-2.88 2.6 5.1 3.07 20.62 4.55 27.13l28.57-3.87-8.8-64.05c-5.93-.62-138.97 19.3-150.65 20.69M1028.88 3053.13l28.24 7.96 7.08-26.98 16.37 4.38c-.56 5.28-19.06 73.68-20.69 76.54l-12.05-2.98-9.89 35.29c1.7.99 74.29 21.27 83.24 22.58l9.75-35.19-12.63-3.84 20.17-76.72 16.51 4.33-7 26.27c1.73 1.53 3.63 1.71 6.57 2.45 2.7.69 4.65 1.19 7.2 1.91 4.32 1.19 9.97 2.23 13.89 3.75 3.77-6.61 12.67-50.88 17.19-62.34-4.4-2.51-28.84-8.17-36.1-10.09-12.08-3.21-24.78-6.61-37.21-9.98l-73.74-19.59-16.92 62.26zM925.28 3048.56c-1.75-1.74-28.22-12.73-31.9-13.99l-19.53 45.03c2.74 1.83 28.55 13.03 31.96 13.59l3.82-8.32c28.24 47.24 101.12 35.27 97.63-20.37-1.9-30.21-39.33-56.41-43.23-68.49-3.73-11.56 12.14-18.11 23.29-3.29 7.6 10.1-.41 15.92 7.7 19.68 1.22.56 2.65 1.05 4.14 1.66l23.88 10.06c2.68-3.89 6.71-14.83 8.93-20.07 2.5-5.89 5.62-14.54 8.47-19.91-2.92-2.53-26.31-11.45-31.69-13.87-2.32 2.26-1.51 3.24-3.96 6.76-.07.12-.24.34-.39.5-7.93-9.91-8.98-13.72-22.63-20.72-9.83-5.04-22.05-8.18-34.94-5.53-24.48 5.03-37.28 29.14-34.12 50.73 3.31 22.61 24.14 38.75 34.67 52.23 2.95 3.79 7.85 8 6.76 15.07-1 6.44-7.02 9.02-13.78 6.87-9.6-3.03-18.65-14.88-15.05-27.6zM1919.89 2945.82l3.46 7.55-11.85-.92c-24.43 0-51.78 21.49-51.78 44.73 0 15.42 6.17 30.16 17.83 38.94 28.69 21.57 74.45.99 82.61 16.78 3.41 6.59-.8 11.19-5.62 13.79-13.82 7.47-23.41-.83-30.62-7.26l-31.07 15.21 19.92 41.34c.16.3.59 1.1.91 1.54.64.93.63.87 1.13 1.35l31.06-15.26-4.18-8.34c18.51 1.52 37.13-1.34 50.6-13.99 33.61-31.56 14.45-80.08-31.04-83.35-15.14-1.08-49.26 1.19-53.91-4.05-11.67-13.19 16.61-27.51 31.28-9.12l31.56-14.96-18.83-39.66c-4.58 1.74-11.26 5.1-15.84 7.4-2.51 1.27-13.71 6.36-15.64 8.29zM2108.66 2817.21c1.37 3.7 21.84 22.7 26.1 27.14l7.87-7.88c1.56.71 50.5 48.45 56.13 55.5l-7.73 8.01c2.13 3.51 23.18 24.62 26.36 26.37 16.71-14.91 41.07-41.63 59.04-58.81-5.57-4.58-22.23-24.28-27.14-26.11l-7.26 7.54c-1.41-.65-50.54-48.63-56.1-55.58l7.95-8.2-26.29-26.49c-12.1 10.26-49.44 50.95-58.92 58.51z" class="fil1"></path><path d="M689.38 2812.45c1.88 2.76 6.08 4.9 8.79 7.45l-11.67 15.97c-3.6 4.8-32.27 44.09-35.85 46.98-3.01-1.6-6.29-4.57-9.12-6.42l-22.05 29.62c1.64 1.89 5.49 4.37 7.74 6.05l58.64 44.08c2.45-4.02 17.42-21.53 22.17-29.42-.14-.16-.36-.6-.43-.45-.06.14-.34-.37-.43-.45-.18-.18-1.28-1.17-1.35-1.24-1.15-.95-1.38-1.03-2.38-1.76-1.58-1.17-3.3-2.38-4.52-3.55 7.49-11.4 31.4-41.86 41.45-55.27l6.39-7.69c3.08 2.04 6.04 4.67 9.11 6.52 2.72-2.25 20.87-26.59 22.37-29.93-10.85-7.09-45.85-34.24-58.58-43.95-2.42-1.85-6.27-4.32-8.12-5.98l-22.15 29.42zM2179.18 2746.9c1.92 4.91 20.61 20.64 25.37 26.61 3.89-1.44 5.51-5.46 9.31-7.66l-1.94 51.99 53.94 7.24c-1.73 1.74-3.11 2.71-4.36 4.96l25.99 26.21 56.34-56.13-26.12-26.3c-10.2 5.7 5.15 6.67-31.52 2.01-12.75-1.63-24.43-3.19-37.11-4.81 0-9.88.53-19.46.86-28.98.53-15.15-1.86-11.49 9.09-21.96-5.57-4.58-22.22-24.28-27.14-26.1l-52.7 52.91z" class="fil1"></path><path d="M2477.51 1954.42c3.83 11.9 11.81 27.12 17.8 38.13 3.4 6.23 6.42 12.42 13.71 14.44 14.9 4.14 39.2 3.14 55.27 3.14 8.95 0 14.13-9.06 20.14-17.54 11.73-16.51 20.16-20.94 10.2-43.87-4.66-10.71-11.34-23.76-17.69-32.01-12.39-16.09-32.63-15.11-51.58-15.11-9.87 0-21.36 16.26-26.61 23.5-5.88 8.11-14.97 22.54-21.23 29.31zM347.45 1953.38c.81 6.89 13.63 31.9 17.59 38.77 3.27 5.68 6.56 12.77 13.38 14.78 14.16 4.18 40.78 3.2 56.03 3.2 7.19 0 9.33-3.67 12.18-7.28l16.11-21.99c2.43-3.59 6.49-7.95 6.49-13.39 0-12.76-17.1-51.38-32.45-59.48-14.4-7.59-25.4-6.38-41.25-6.38-7.18 0-11.59 4.61-15.59 9.7-3.65 4.66-7.61 8.47-11.12 13.7-3.55 5.3-6.67 9.61-10.25 14.6-2.1 2.92-7.51 12.59-11.12 13.77M251.36 1901.61c.67 6.66 14.13 26.51 17.91 32.23 12.82 19.36 13.93 22.44 30.14 22.44 10.04 0 32.28-1.81 40.2-4.97 3.56-1.44 25.83-32.04 29.83-37.26 11.97-15.62 13.48-12.68 5.12-27.57-5.98-10.64-11.85-17.27-20.07-25.47-4.93-4.92-5.12-7.54-15.26-7-14.35.76-27.22 1.75-41.26 4.27-23.07 4.12-21.97 7.69-36.99 30.15-1.93 2.9-7.13 12.53-9.63 13.18zM2381.21 1903.27l28.8 45.34c5.77 7.7 7.82 7.68 20.08 7.68 8.69 0 33.85-2.09 39.98-5.18 3.7-1.86 28.99-36.78 34.35-43.5 1.29-1.6 4.14-4.94 5.05-6.63 3.92-7.24-18.17-33.49-25.09-40.81-4.14-4.37-7.19-6.69-16.06-6.09-9.97.69-51.01 3.23-58.55 9.41-6.28 5.14-14.18 18.4-19.08 25.64l-7.94 11.9c-.16.2-.64.86-.78 1.05l-.76 1.2z" class="fil3"></path><path d="M1451.73 2743.49c10.71.98 20.95 2.02 30.88 3.09 9.94 1.07 4.95 1.01 11.88-2.35 9.67-4.72 28.14-3.71 38.16-.26 5.22 1.81 8.77 3.74 7.72 10.91-3.19 2.25-3.87 3.58-8.38 5.3-11.34 4.31-41.45 5.44-44.44-9.85l-43.7.04c3.09 16.04 10.19 22.01 24.09 27.68 15.66 6.39 29.97 8.31 48.39 8.31 26.08 0 66-9.82 70.03-31.38 4.99-26.79-43.89-38.06-69.19-36.96l-16.8 1.45c.61-2.42.82-4.76 3.54-4.76h64.62l-.31-22.8-95.37.02c-1.88 2.84-20.72 48.44-21.13 51.57zM1665.47 2785.94c18.6 0 34.11-.22 51.49-7.33 48.69-19.91 22.79-58.53-32.64-58.53l4.79-4.14c5.9-4.21 31.66-20.17 34.55-24.03h-35.01c-19.15 0-14.91-1.26-27.83 7.37l-41.88 28.54c-14.52 10.86-28.07 26.14-8.12 42.37 11.11 9.03 36.34 15.75 54.63 15.75h.01zM1291.43 2723.81c0 25.13 39.03 32.72 58.83 32.72-11.3 9.35-29.53 19.18-39.98 27.54l51.16.21c2.43 0 34.58-22.49 39.59-25.83 11.79-7.85 32.06-19.5 32.06-35.47 0-20.9-39.96-32.31-61.72-32.31h-18.22c-22.39 0-61.72 12.46-61.72 33.14" class="fil7"></path><path d="M2462.39 2058.6c0 8.78 7.46 47.33 14.97 52.13 11.47 7.33 44.1 3.43 55.18-1.85 6.65-3.17 27.99-20.77 34.29-27.05 8.04-8.01 12.54-8.1 12.17-18.89-.35-9.86-9.34-42.81-16.87-45.3-4.22-1.4-21.77-1.25-27.67-1.29-39.46-.3-27.06-5.7-41.84 8.69l-16.14 15.33c-1.95 1.84-3.35 2.71-5.98 4.8-3.94 3.11-8.12 6.33-8.12 13.42zM332.54 2057.76c0 12.12 3.66 27.02 7.76 39.46 5.81 17.63 9.08 17.28 36.97 17.28 30 0 46.59-22.87 66.64-38.99 11.43-9.2.98-33.58-2.91-43.38-6.94-17.46-5.04-14.96-27.27-15.38l-39.77-1.51c-3.35.44-12.08 10.95-16.14 14.77-2.24 2.11-3.55 2.68-5.82 4.95-9.45 9.43-19.46 13.76-19.46 22.79z" class="fil3"></path><path d="m1323.75 1323.38-.2 98.58c-5.67 0-10.95-1.15-12.58 3.79-1.36 4.15-.92 11.53 2.13 13.51 2.59 1.7 26.5.5 31.77.5 7.04 0 27.36 2.09 30.64-1.65 2.26-2.59 2.55-10.63.38-13.62-2.58-3.54-9.2-2.53-14.86-2.53v-37.7c26.01.05 14.43 13.95 23.63 17.41 4.57 1.72 12-1.01 13.02-5.2.82-3.4-.56-15.3-.62-19.63-.08-6.61.52-12.9.5-19.08-.04-7.28-4.22-9.46-11.97-8.2-6.61 1.07-4.59 7.42-8.25 12.47-3.86 5.37-8.36 4.85-16.3 4.85v-44.33c11.28 1.2 23.79-1.21 30.73 5.73 10.87 10.91 12.13 14.45 16.9 19.54 3.34 3.55 8.83 1.93 12.4-.86 4.39-3.41 2.42-7.46 1.2-12.8-8.15-35.68-5.93-29.66-23.54-29.03l-53.85.43c-5.9 0-31.38-1.34-34.33.44-3.52 2.13-4.04 10.58-1.94 14.27 2.34 4.15 9.77 3.09 15.16 3.09zM1420.66 1370.18c0 17.12 2.66 29.63 11.83 44.07 1.9 3 5.09 7.44 7.23 9.34 16.67 14.76 30.07 18.67 55.08 18.67 11.48 0 24.38-5.37 32.35-10.72 5.67-3.8 18.49-15.46 21.17-22 2.47-6.06-7.84-17.2-14.18-9.98l-4.93 5.86c-20.7 20.69-63.28 19.64-69.48-32.69-2.67-22.55 5-51.01 28.44-51.01 20 0 33.27 13.41 39.02 29.31 2.31 6.38 3.82 10.33 12.05 8.11 8.17-2.22 6.95-5.16 5.87-13.74-3.95-31.24.31-40.81-13.04-40.75-5.28.02-5.7.48-7.03 4.43-21.67-3.86-9.06-6-41-6-34.53 0-63.38 34.22-63.38 67.09z" class="fil7"></path><path d="M245.76 1910.1c-6.85-.45-15.42 3.78-20.25 6.71-3.83 2.33-13.03 8.74-15.17 11.29-5.83 6.88-8.45 32.76-9.29 43.87-1.46 19.29 5.35 57.65 21.43 70.79 3.45 2.82 4.53 2.86 8.98.92 45.77-19.89 36.38-14.35 43.49-62.66.82-5.61 4.77-17.74 2.72-23.22l-10.41-16.17c-3.54-5.3-6.98-10.83-10.46-16.07-3.83-5.76-7.89-10.74-11.04-15.46M2369.4 1910.72c-8.31 2.52-11.87 4.93-17.85 8.86-4.96 3.26-11.62 7.21-13.5 13.02-9.09 28.17-10.07 63.31 1.81 91.14 3.03 7.11 5.82 11.91 10.27 16.23 7.66 7.43 5.96 6.04 17.03 1.25 8.59-3.72 18.48-8.55 26.32-13.46 3.06-1.92 4.75-3.1 5.75-7.5 3.38-14.83 3.47-32.38 7.05-46.01 1.05-3.98 1.67-6.69 2.03-11.38.51-6.64-9.85-19.53-13.68-25.39l-15.99-23.76c-2.52-3.51-4.08-4.55-9.23-2.99z" class="fil3"></path><path d="M2167.9 1387.58c0 17.7 19.58 31.62 42.79 17.5 23.38-14.22 61.19-47.57 75.03-68.25 14.24-21.3 5.22-42.85-18.82-42.85-19.27 0-70.54 47.18-82.32 61.83-5.41 6.72-16.68 18.84-16.68 31.77" class="fil2"></path><path d="M1364.95 2751.57c-2.43 3.24-37.73 26.28-40.79 28.37 8.63.77 19.3.17 28.17.21 11.29.04 7.87.55 20.38-7.79 10.81-7.21 22.49-15 33.65-22.68 7.41-5.1 27.65-18.42 21.35-31.63-14.35-30.06-107.67-30.77-127.88-3.66-11.37 15.26 3.37 25.7 15.75 31.32 16.48 7.49 30.57 6.63 49.39 5.86zM1666.29 2781.8c17.94 0 31.85-.35 49.06-7.25 46.97-18.86 15.34-52.16-35.8-50.33l-10.56.76c2.54-3.67 36.02-24.14 39.77-27.8l1.02-1.13c-10.37 0-20.73.01-31.09-.04-7.72-.03-13.25 5.45-21.19 10.73l-37.27 25.68c-13.1 9.54-24.21 23.79-3.81 36.32 12.72 7.81 32.18 13.07 49.86 13.07zM336.68 2108.3c0-5.6-9.07-39.91-13.22-48.07-2.11-4.17-2.35-3.77-6.66-5.77l-33.41-16.25c-9.75-4.72-12.24-7.11-17.51-4.88-8.88 3.74-26.73 12.81-31.94 17.78-5.62 5.38 1.16 19.21 4.76 26.77 4.52 9.47 23.56 23.6 31.97 30.16 21.57 16.84 28.29 20.92 52.71 11.78 5.77-2.16 13.3-5.33 13.3-11.53zM2361.74 2056.94c0 10.5 8.96 25.05 15.73 31.9 3.57 3.62 7.95 7.33 12.39 10.78 28.47 22.16 34.33 30.95 64 20.01 7.22-2.66 12.68-4.69 12.68-12.15 0-5.54-8.12-34.17-10.23-40.3-3.47-10.1-2.81-9.59-11.87-13.83l-34.52-16.79c-9.74-4.79-8.64-5.68-18.2-1.35-5.83 2.65-11.66 5.63-16.9 8.72-5.09 3-13.08 6.14-13.08 13.01M1457.94 2739.97c13.6.25 26.19 4.96 33.9.79 15.97-8.64 62.33-3.54 52.22 15.71-8.02 15.26-56.16 13.99-59.81-2.01h-35.21c6.14 29.23 74.37 32.79 106.73 21.22 53.07-18.97 19.68-53.53-35.28-53.53l-26.95 2.64 5.56-14.18 65.3-.06-.31-14.52-88.16.02c-1.57 1.95-17.92 41.54-17.99 43.91zM1426.05 1371.01c0 19.55 5.35 36.65 17.11 48.33 1.92 1.91 5.51 4.86 8.17 6.76 19.53 13.98 52.42 14.88 72.98.92 5.17-3.51 17.4-14.1 19.27-20.39-1.95-2.21-1.57-2.85-4.87-3.62-6.08 4.58-13.89 20.19-42.25 20.19-51.53 0-58.56-106.86-8.29-106.86 25.02 0 37.78 16.71 45.77 37.91l6.25-.72-3.96-43.2c-5.66-.42-6.49-1.2-8.09 6.01-11.49-2.42-8.07-6.15-35.3-8.09-11.86-.83-25.99 2.39-35 7.62-16.13 9.39-31.8 29.11-31.8 55.14zM1350.66 1310.79l-37.48-.44c-.26 3.77-.56 4.22.41 7.44 15.28 1.48 15.53-2.8 15.53 15.11 0 10.83.92 86.71-1.46 93.81l-11.59.83-.05 7.05c6.88.53 5.41.03 11.44-.23l44.12.55.04-7.58c-13.04.01-15.99 2.36-15.99-9.93l.31-38.53c17.8.01 26.72 1.19 30.14 17.83 10.63-.38 5.07-1.3 5.6-28.18l.52-13.25-5.91-.62c-4.17 5.94-1.83 9.91-9.09 14.77-5.3 3.54-14.46 3.21-21.56 3.25 0-13.06-.58-43.98.41-55.09 4.67-1.01 29.51-.35 36.71 4.71 4.95 3.48 16.84 17.05 19.84 22.42l5.83-2.02c-.01-5.55-5.72-26.21-7.47-32.79l-60.28.89z" class="fil3"></path><path d="M1158.47 2712.62h32.72l.51 2.89-.09 68.78h43.49v-92.37h-76.68z" class="fil7"></path><path d="m1378.41 2843.1.32 3.12c36.9 2.16 51.51 1.73 87.11.04 2.77-.14 7.02.4 7.02-2.33v-45.98h-94.43v45.14h-.01zM1381.81 2669.07l75.59-.11c2.52-1.41 11.69-.79 14.91-.79l-.27-44.19c-7.01-2.54-15.04-4.89-22.14-7.68-12.43-4.89-9.91-3.48-22.78 0-8.19 2.22-15.89 3.98-24.12 5.7-6.68 1.4-17.64 4.17-24.06 4.46l.03 42.52 2.85.08z" class="fil1"></path><path d="M2641.33 1972.44c2.57-5.16 8.29-13.8 8.29-19.06 0-14.47-21.1-58.83-35.99-73.36-6.68-6.53-13.65-11.55-26.97-11.55-2.39 0-2.23-1.03-4.09 7.15-.72 3.17-1.26 5.95-1.85 8.94-5.56 28.15-3.99 13.64 5.19 32.36l14.24 29.6c2.22 5.23 3.41 11.45 6.52 15.84 3.95 5.56 8.42 4.51 16.02 6.37 6.32 1.54 12.38 3.65 18.63 3.72zM511.28 1972.24c2.4-4.49 5.5-9.66 7.43-14.2 4.65-10.87-16.13-51.53-23.03-62.58-2.9-4.67-6.38-8.56-9.64-12.73-6.06-7.75-14.97-14.17-30.07-14.25-4.21 2.69-4.43 11.8-5.38 16.65-5.1 25.89-4.87 12.55 5.38 31.82l14.17 29.79c2.65 5.74 2.73 11.03 6.52 15.83 4.28 5.42 9.34 4.51 16.15 6.2 5.83 1.45 12.37 3.99 18.45 3.48z" class="fil3"></path><path d="m1378.4 1251.85.03 45.64 94.43 1.29v-46.64l-24.44-1.22-42.25-.03z" class="fil1"></path><path d="M1162.69 2708.49h33.07v71.65l35.22-.05c0-25.59-.29-50.97 0-76.18.13-10.77 3.27-7.85-29.41-7.85h-38.53l-.34 12.44zM2534.26 2114.72c-.31 4.68 1.26 14.39 2.28 18.84 19.35 4.81 53.34-19.31 67.45-31.95 4.91-4.4 13.58-12.74 17.22-17.6 3.19-4.24 6.69-8.32 9.45-13.77 1.78-3.54 8.25-16.67 3.26-18.33-5.46.24-24.3 8.15-30.37 10.29-18.43 6.52-9.37 1.01-18.92 10.93-11.7 12.18-32.1 35.73-50.37 41.57zM404.2 2115.34l2.13 18.27c24.45 5.49 70.7-30.95 84.55-49.25 3.56-4.71 6.06-7.7 9.23-13.14 1.9-3.25 5.46-13.74 5.77-17.81-4.84-3-7.27-.23-13.97 2.17l-30.63 10.82c-2.08 1.01-8.7 8.65-10.57 10.94-6.26 7.66-13.6 14.22-21.29 20.98-3.49 3.07-7.59 6.2-11.72 8.96-4.37 2.93-9.43 5.31-13.51 8.06zM267.3 1846.52c8.26 10.37 13.52 7.99 28.65 5.74 10.6-1.58 23.64-3.14 35.1-3.64 17.05-.75 13.61 2.3 32.33-4.42 9.43-3.38 17.58-8.12 26.32-12.18-1.36-17.31-51.61-13.24-66.37-10.5-18.71 3.47-43.85 10.59-56.03 25.01zM2397.57 1847.56c10.85 7.26 4.17 8.59 29.67 4.5 10.54-1.7 23.69-3.01 34.44-3.44 16.08-.65 16.93 1.11 32.16-4.62 9.32-3.51 17.65-8.73 25.93-11.97-.51-4.46.19-2.9-2.11-5.15-8.93-8.72-28.47-7.69-40.34-7.69-22.22 0-71.17 10.56-79.74 28.38z" class="fil3"></path><path d="M2425.54 1605.25c2.25 7.97 9.82 23.78 13.77 30.81 13.41 23.87 50.99 8.35 45.34-17.11-2.51-11.32-8.61-22.54-12.32-32.75-7.7 1.22-35.78 15.95-46.79 19.06zM365.47 1629.48l45.86 18.3c2.64-4.31 10.14-24.61 11.35-30.93 2.96-15.47-2.26-20.86-14.23-25.99-11.81-5.05-22.91-3.16-29.93 8.37-3.24 5.32-11.53 23.2-13.05 30.26z" class="fil2"></path><path d="M1359.78 2739.13c45.91 0 44.57-29.81 0-29.81-37.52 0-38.16 29.81 0 29.81M1675.4 2737.48c-49.05 0-42.93 29.31-4.14 29.7 42.42.42 39.82-29.7 4.14-29.7" class="fil7"></path><path d="m1651.79 1016.45 39.74 8.37-3.71-74.65z" class="fil2"></path><path d="M1378.41 1467.91c15.67-2.42 28.34-4.12 45.14-5.07 8.63-.49 17.09-.36 25.7.05 7.56.36 16.68 1.65 23.61 1.7v-14.47c-10.92-2.4-83.87-2.29-94.45 0z" class="fil1"></path><path d="M566.36 1431.27c3.48-3.35 21.58-28.49 24.65-31.06l-68.55-29.82zM454.95 2655.88c1.3 3.82 9.67 15.39 12.16 17.87 5.36 5.36 10.83 11.38 20.64 3.97 7.36-5.56 7.58-11.32 3.05-20.21-2.45-4.8-8.58-15.04-12.45-17.99-3.34 2.84-7.78 5.53-11.6 8.08-3.21 2.14-9.01 5.53-11.8 8.28" class="fil2"></path><path d="M1360.6 2734.99c6.65 0 12.77-.67 18.56-2.57 4.12-1.36 10.52-4.29 10.05-8.37-1.53-13.19-50.72-14.2-53.29-.83-1.62 8.4 16.84 11.77 24.68 11.77M1661.53 2742.66c-8.94 1.66-24.96 7.35-11.79 15.14 8.3 4.91 20.8 6.19 31.86 4.41 8.73-1.41 25.73-8.49 12.01-16.03-8.33-4.58-21.39-5.5-32.08-3.53z" class="fil4"></path><path d="M502.99 2623.57c2.8 5.93 7.58 11.6 11.2 16.35 3.87 5.09 10.18 9.36 18.26 4.56 16.33-9.72-2.62-27.05-6.48-36.23-4.21 1.55-20.5 12.86-22.98 15.32" class="fil2"></path><path d="M2596.6 1863.09c-2.88-6.26-22.9-18.39-29.77-22.47-8.94-5.3-26.78-13.38-37.53-14.81 2.36 4.11 23.1 19.07 30 22.46 11.7 5.72 23.65 13.49 37.3 14.82M466.54 1862.89c-4.23-4.3-7.78-7.84-13.42-11.89-13.12-9.42-38.51-23.64-54.1-25.19 12.7 13.03 50.41 36.91 67.51 37.08z" class="fil3"></path><path d="m1229.09 3120.42 26.29 4.41-4.53-31.85c-.21-1.69-.44-3.7-.65-5.16l-1.43-5.3c-5.53 12.65-14.31 25.47-19.68 37.9M1782.89 3045.86l-3.86 41.63 25.57-6.37c-1.19-4.1-8.11-14.39-10.65-18.6-1.84-3.06-3.41-5.69-5.28-8.79-1.14-1.89-1.54-2.69-2.77-4.74-1.24-2.07-1.68-3.28-3.01-3.12z" class="fil2"></path><path d="M506.31 2047c2.34.97 1.19.56 3.52 1.96l4.7-8.03c4.02-8.67 7.08-19.08 8.39-28.98 1.29-9.73 1.84-37.52-.87-46.14-7.25 11.15-3.93 22.84-6.08 41.94-2.69 23.8-8.98 33.74-9.66 39.24zM2636.37 2046.16l3.33 3.09c5.76-5.63 11.81-27.1 13.21-37.09 2.49-17.79-.26-29.55-.38-46.77-7.68 9.42-4.09 20.9-6.39 41.56-1.1 9.88-3.14 20.98-6.33 30.21-1.01 2.95-2.71 6.11-3.43 8.98z" class="fil3"></path></g></g></g><!-- source: https://football-logos.cc --></svg>