<svg xmlns="http://www.w3.org/2000/svg" viewBox="140 218.57 800 642.85"><!-- Source: https://football-logos.cc --><path fill="#FFF" d="M861.531 539.773c0 176.735-143.285 320.016-320.02 320.016-176.73 0-320.015-143.281-320.015-320.016 0-176.73 143.285-320.015 320.016-320.015 176.734 0 320.02 143.285 320.02 320.015" data-source="https://football-logos.cc"></path><path fill="#3F5C91" d="M767.355 312.707c-60.683-60.727-141.402-94.133-227.273-94.133s-166.59 33.406-227.273 94.133c-60.727 60.723-94.176 141.441-94.176 227.313 0 85.832 33.449 166.55 94.176 227.277 60.722 60.723 141.402 94.129 227.273 94.129s166.59-33.406 227.273-94.13c60.727-60.726 94.176-141.444 94.176-227.276 0-85.872-33.449-166.59-94.176-227.313M540.082 847.031c-169.289 0-307.012-137.722-307.012-307.011s137.723-307.012 307.012-307.012c169.29 0 307.012 137.722 307.012 307.012 0 169.289-137.723 307.011-307.012 307.011"></path><path fill="#FFF" d="M540.082 233.008c-169.293 0-307.012 137.722-307.012 307.012 0 169.289 137.72 307.015 307.012 307.015 169.29 0 307.012-137.726 307.012-307.015 0-169.29-137.723-307.012-307.012-307.012m0 608.504c-166.266 0-301.492-135.266-301.492-301.492 0-166.262 135.226-301.536 301.492-301.536S841.574 373.758 841.574 540.02c0 166.226-135.226 301.492-301.492 301.492"></path><path fill="#3F5C91" d="M540.082 343.496c-108.363 0-196.523 88.16-196.523 196.524 0 108.363 88.16 196.527 196.523 196.527s196.523-88.164 196.523-196.527c0-108.364-88.16-196.524-196.523-196.524m0 374.277c-98.016 0-177.754-79.738-177.754-177.753 0-98.016 79.738-177.793 177.754-177.793s177.754 79.777 177.754 177.793c0 98.015-79.738 177.753-177.754 177.753"></path><path fill="#3F5C91" d="M540.082 238.488c-166.266 0-301.492 135.266-301.492 301.532 0 166.222 135.226 301.492 301.492 301.492s301.492-135.27 301.492-301.492c0-166.266-135.226-301.532-301.492-301.532m0 503.496c-111.348 0-201.96-90.617-201.96-201.964 0-111.387 90.612-202.004 201.96-202.004s201.961 90.617 201.961 202.004c0 111.347-90.613 201.964-201.961 201.964"></path><path fill="#FFF" d="M540.082 338.016c-111.348 0-201.96 90.617-201.96 202.004 0 111.347 90.612 201.964 201.96 201.964s201.961-90.617 201.961-201.964c0-111.387-90.613-202.004-201.961-202.004m0 398.527c-108.363 0-196.523-88.16-196.523-196.523 0-108.36 88.16-196.524 196.523-196.524S736.605 431.66 736.605 540.02c0 108.363-88.16 196.523-196.523 196.523"></path><path fill="#3F5C91" d="M381.3 579.031h62.196v92.293c-31.16-23.597-52.258-54.058-62.195-92.293M449.957 644.867h27.848l-27.848 20.2ZM449.996 639.344l3.149-125.739h22.043l3.148 125.7s-28.34.082-28.34.039M477.273 491.113v19.301h-8.628V497.25a5.43 5.43 0 0 0-4.336-2.168c-1.84 0-3.473.898-4.414 2.29v13.042h-8.672v-19.3c0-3.56 1.8-6.704 4.539-8.587a16.4 16.4 0 0 1 7.73-1.922c3.11-.043 4.988-.125 7.809 1.106l1.472.816c2.7 1.883 4.5 5.028 4.5 8.586M492.32 641.348l-41.382 35.168c8.628 5.726 17.214 10.183 25.804 13.332l33.695-48.5ZM698.21 579.031h-62.155v92.293c31.117-23.597 52.218-54.058 62.156-92.293M631.023 644.867h-27.886l27.886 20.2ZM629.512 639.344l-3.149-125.739h-22.039l-3.152 125.7s28.34.082 28.34.039M602.234 491.113v19.301h8.633V497.25a5.45 5.45 0 0 1 4.375-2.168c1.797 0 3.434.898 4.414 2.29v13.042h8.63v-19.3c0-3.56-1.759-6.704-4.54-8.587a16.4 16.4 0 0 0-7.73-1.922c-3.106-.043-4.989-.125-7.809 1.106l-1.434.816c-2.738 1.883-4.539 5.028-4.539 8.586M588.621 641.348l41.383 35.168c-8.629 5.726-17.219 10.183-25.766 13.332l-33.691-48.5ZM754.23 600.5l185.77.816-32.71-66.57 32.628-67.02-185.645-.288 1.348 6.132c8.793 40.485 8.793 81.13 0 120.793Zm169.575-122.676-27.762 56.922 27.723 56.39-157.024-.698c7.442-37.168 7.442-75.075 0-112.86Zm0 0"></path><path fill="#FFF" d="m896.043 534.746 27.723 56.387-157.024-.692c7.446-37.171 7.446-75.078 0-112.863l157.067.246Zm0 0"></path><path fill="#3F5C91" d="m325.73 600.5-1.351-6.137c-8.465-38.394-8.465-79.082.043-120.875l1.226-6.05-185.609.289 32.676 67.02L140 601.316ZM156.191 477.824l157.149-.246c-7.156 38.848-7.2 76.754-.082 112.86l-157.024.699 27.723-56.39Zm0 0"></path><path fill="#FFF" d="m313.258 590.441-157.024.692 27.723-56.387-27.766-56.922 157.149-.246c-7.156 38.848-7.2 76.754-.082 112.863M342.945 415.383l-30.629-20.73 3.067-4.743-14.395-9.613-21.918 32.223 14.559 9.898 3.027-4.828 30.707 20.773-3.105 4.582 14.351 9.649 21.672-32.305-14.27-9.61Zm0 0"></path><path fill="#FFF" d="m371.035 373.797-2.043 3.027-29.851 1.84-3.067-19.793 3.11-4.375-14.274-9.73-19.625 29.316 14.106 9.61 3.476-4.743 3.68 24.371 25.598-1.593-1.922 2.863 14.312 9.73 20.856-30.832ZM532.844 321.25l-2.864-15.21-4.414.737-12.882-9.203 7.687-10.875 5.399-1.066-2.739-13.328-31.285 6.254 2.332 12.187 9.04-1.879-12.72 18.563-9.488-49.028-32.058 6.094 2.824 15.863 6.379-1.39 7.808 39.297-6.254 1.187 2.985 15.945 31.933-6.5-4.047-20.894 24.004 17.05ZM612.707 318.266l3.063-17.133c1.843-12.676-6.09-22.367-35.985-25.477-14.023-1.183-22.61 2.047-27.476 8.344l20.035 6.094c8.59-7.77 22.574-1.067 17.133 10.629-21.547-9.73-36.758-7.32-40.645 6.011-2.004 17.664 21.02 23.512 35.984 18.688l-.367 3.598 31.813 5.89 2.781-15.582Zm-25.723-2.004c-8.586 3.148-14.394.082-13.578-7.239 1.68-6.171 8.59-6.214 15.172-1.757ZM704.914 350.367l-9.648 14.555 4.988 3.476-8.668 13.168-26.742-17.625c6.5-9.691 13.738-20.242 15.742-24.863 2.453-5.234-1.227-8.012-9.57-8.914l-8.996 12.922 6.296 4.254-8.793 13.25-33.039-21.961 8.668-13.246 5.563 3.472 9.894-15.332-5.558-3.476 8.914-13.25 27.152 18.074-3.804 5.195c7.484-.285 14.148 1.02 19.914 4.332 10.347 6.301 14.273 14.52 7.687 25.97M798.066 408.965l-17.953-27.07-13.289 8.75 3.395 5.152-7.278 5.031c-3.843-25.273-22.492-34.066-40.566-25.476-21.305 12.39-15.25 38.601 4.047 49.437l-2.902 2.004 17.953 26.863 13.289-8.543-3.64-5.523Zm-52.832 3.637c-5.644 3.804-10.714 4.21-14.722-1.184-2.86-5.645-.57-9.488 5.152-13.086 4.95-2.617 10.14-3.64 13.496 1.473 2.578 4.09 2.086 8.3-3.926 12.797M438.14 318.102c-10.796-13.329-25.597-11.735-40.933-3.434-19.34 11.816-27.191 27.191-16.602 43.55 12.145 13.821 27.07 11.653 43.223 1.962 17.91-11.942 23.512-27.438 14.313-42.078m-23.758 30.59c-4.621 2.042-8.914 0-12.965-6.833-3.68-6.828-2.41-11.488 2.086-14.187 4.785-1.965 9.445-.367 13.617 6.46 4.172 7.485 2.332 11.9-2.738 14.56"></path><path fill="#3F5C91" d="M810.414 541.86v9.937h24.371v-9.406h-5.476V509.68h-6.176c-2.863 3.312-7.238 4.867-12.594 5.355l-.043 8.711 5.809-.531v18.644ZM870.934 538.918h8.382v12.633h-32.425l.203-5.356c.574-7.77 6.34-12.27 14.843-18.195 4.989-3.559 5.973-8.262 1.758-10.594-3.23-1.02-6.215.98-5.968 5.602H846.89c.613-9.934 7.277-14.106 19.18-13.29 10.015 1.473 16.312 7.813 11.57 17.626-2.946 4.742-9.407 7.484-15.457 10.468-1.922 1.145-3.27 2.657-4.172 4.497h12.965ZM205.098 541.941v9.61h24.332v-9.61h-5.48V509.68h-6.216c-2.984 3.515-7.277 5.07-12.675 5.07v9.117c2.332-.488 4.293-.652 5.847-.324v18.398ZM275.352 529.063c-1.227-12.922-7.73-19.262-19.22-19.383-9.652.734-14.804 5.601-15.417 14.558.41 10.836 11 16.11 21.43 10.344.69 5.969-1.434 8.465-4.747 9.445-2.453.532-4.539-.613-6.253-3.066l-10.184 1.023c3.312 8.098 9.937 10.715 18.687 9.73 9.649-2.452 16.438-8.218 15.704-22.652m-12.758-1.882c-1.227 1.105-2.7 1.675-4.457 1.758-2.985.289-5.032-1.555-5.153-5.235-.125-2.902.489-5.234 3.473-5.926 4.215-.453 6.34 2.532 6.137 9.403"></path><path fill="#FFF" d="M749.555 691.563h.008l.265.078c5.426 1.863 11.8 1.812 17.442-.274l.273-.09a26.66 26.66 0 0 0 12.168-9.359l.207-.332a26.34 26.34 0 0 0 4.734-15.086c0-.172.008-.375-.02-.547l-.019-.195c-.152-5.434-1.914-10.594-5.097-14.93l-.098-.117c-3.215-4.313-7.758-7.602-12.797-9.27l-.98-.34c-4.774-1.41-10.227-1.402-14.934-.015l-.227.059c-2.148.668-4.128 1.546-5.894 2.613-2.906 1.746-5.496 4.066-7.492 6.715l-.461.57c-3.055 4.242-4.758 9.207-4.934 14.398l-.039 1.059c0 5.727 1.793 11.172 5.195 15.746l.282.41c3.199 4.125 7.586 7.27 12.418 8.907m8.601 4.296c-3.156 0-6.203-.484-9.062-1.445l-.219-.059c-5.613-1.843-10.7-5.523-14.316-10.355l-.286-.434c-3.586-4.988-5.476-10.879-5.476-17.066l.066-1.723c.313-5.816 2.348-11.347 5.907-16.03l.48-.567a29.5 29.5 0 0 1 7.86-6.871c2.019-1.223 4.288-2.223 6.738-2.965l.254-.063c5.445-1.562 11.718-1.46 17.16.328h1.199l.012.45c5.175 1.921 9.82 5.394 13.175 9.855l.106.129c3.558 4.805 5.535 10.527 5.719 16.555.035.293.043.617.043.902 0 5.84-1.723 11.484-4.989 16.348v.007l-.257.41a29.55 29.55 0 0 1-13.97 10.786l-.28.09a29 29 0 0 1-9.864 1.718"></path><path fill="#FFF" d="M767.234 669.277a51.5 51.5 0 0 0-6.87-2.492 4.97 4.97 0 0 0-4.333.856c-1.965 1.515-3.847 3.191-5.644 4.949-.41.45-.657 1.023-.614 1.637.164 3.027.778 5.804 1.84 8.34.203.492.532.859 1.024 1.105 2.574 1.226 5.52 2.004 8.75 2.332.574.039 1.144-.125 1.554-.492a57 57 0 0 0 6.012-5.766c.45-.45.61-1.105.527-1.715l-1.02-7.156c-.124-.7-.573-1.312-1.226-1.598M756.645 656.316c-3.149-2.086-6.22-2.863-9.774-3.68-3.598 1.634-5.36 3.72-7.402 6.38.039 3.515-.164 6.336.613 9.609 3.352 2.086 5.93 3.066 9.078 3.434a59.6 59.6 0 0 0 7.973-6.38ZM769.32 668.992a183 183 0 0 0 4.293-7.605 1.265 1.265 0 0 1 1.39-.657q2.697.434 5.028 1.106c.328.125.614.328.778.652 1.351 2.453 2.168 4.785 2.046 6.871v.246c-.656 4.13-2.25 7.36-4.5 9.977-.285.29-.695.45-1.101.45a28.4 28.4 0 0 1-5.89-.856c-.532-.125-.942-.617-.981-1.188a73 73 0 0 0-1.227-8.054 1.48 1.48 0 0 1 .164-.942M774.43 659.465c1.718.57 3.558 1.062 5.48 1.555.41.082.86-.125 1.024-.536.57-1.879.406-4.414-.532-7.48-1.023-3.477-4.582-6.422-9.367-9.078a.8.8 0 0 0-.328-.082c-1.84-.246-3.27 0-3.965 1.105-.12.121-.164.328-.164.489l.164 5.07c0 .207.082.41.207.574 2.7 2.863 5.11 5.602 7.074 8.137a.8.8 0 0 0 .407.246M748.383 652.023c2.535.938 5.234 1.676 8.015 2.25.286.079.614.04.899-.043 2.82-.98 5.437-2.085 7.73-3.515.489-.29.735-.778.778-1.309l.078-4.988c0-.492-.16-.941-.531-1.227-1.473-1.187-3.352-1.8-5.399-2.168-.121-.043-.203-.043-.285-.043l-4.047-.082c-.289 0-.574.043-.816.164a78 78 0 0 0-6.34 3.68c-.328.207-.613.535-.695.899-.41 1.515-.532 3.191-.45 4.992.04.613.45 1.183 1.063 1.39M739.059 668.707c-.368 2.453-1.02 5.11-1.84 7.89-1.637-.367-3.149-1.593-4.496-3.964-.45-3.356-.614-6.625-.368-9.613.489-2.696 1.348-4.946 2.942-6.336 1.637-.04 2.906.41 3.723 1.511-.614 3.438-.532 6.953.039 10.512M744.047 686.086c-.078.816-.04 1.512.289 2.004 2.695 2.043 6.012 3.472 10.305 3.965 3.187.246 6.172.41 7.765-.41.246-1.594-.203-3.106-1.43-4.66a94 94 0 0 1-9.078-2.579c-2.78.574-5.437 1.106-7.851 1.68M743.23 685.102c.204.859.286 1.718.204 2.578-4.907-4.051-8.668-8.137-9.61-12.309.98.98 2.13 1.676 3.356 2.207Zm0 0"></path><path fill="#FFF" d="M776.188 684.816c2.535-4.66 5.316-8.504 7.156-13.492.492 5.356-2.985 10.426-7.157 13.492M744.336 644.703l3.105-.285 6.79-3.723c-3.965.328-7.403 1.473-9.895 4.008M736.156 652.594c-.367 1.965-1.226 3.722-2.574 5.195.367-1.965 1.223-3.723 2.574-5.195M317.168 691.563h.008l.265.078c5.414 1.859 11.754 1.816 17.489-.274 5.144-1.898 9.504-5.265 12.605-9.738l.11-.14c3.023-4.466 4.62-9.645 4.62-14.989v-.781c-.144-5.36-1.925-10.52-5.136-14.89l-.098-.118c-3.215-4.313-7.758-7.602-12.797-9.27l-.98-.347c-4.84-1.403-10.254-1.387-14.93-.008a28 28 0 0 0-6.137 2.68c-2.863 1.718-5.382 3.98-7.488 6.714-3.297 4.293-5.16 9.47-5.387 14.973-.042.453-.039.766-.039 1.047 0 5.727 1.797 11.172 5.196 15.746l.285.41c3.195 4.125 7.582 7.27 12.414 8.907m8.602 4.296c-3.153 0-6.2-.484-9.06-1.445l-.218-.059c-5.617-1.843-10.703-5.523-14.316-10.359l-.285-.43c-3.59-4.988-5.48-10.879-5.48-17.066 0-.367.003-.781.046-1.195.273-6.145 2.34-11.84 5.973-16.567 2.324-3.023 5.113-5.523 8.293-7.43a30.8 30.8 0 0 1 6.78-2.964c5.579-1.645 11.977-1.547 17.634.34l.98.386c5.164 1.926 9.801 5.39 13.145 9.844l.11.129c3.597 4.863 5.589 10.617 5.757 16.637v.82c0 5.965-1.797 11.746-5.195 16.71l-.122.157c-3.433 4.906-8.234 8.598-13.898 10.684a29.5 29.5 0 0 1-10.144 1.808"></path><path fill="#FFF" d="M334.848 669.277a51.5 51.5 0 0 0-6.871-2.492c-1.473-.41-3.067-.082-4.332.856-1.965 1.515-3.805 3.191-5.645 4.949-.41.45-.652 1.023-.613 1.637.164 3.027.777 5.804 1.84 8.34.207.492.574.859 1.023 1.105 2.574 1.226 5.52 2.004 8.75 2.332a2.26 2.26 0 0 0 1.594-.492 66 66 0 0 0 6.011-5.766c.41-.45.614-1.105.493-1.715l-1.024-7.156c-.082-.7-.574-1.312-1.226-1.598M324.258 656.316c-3.11-2.086-6.215-2.863-9.774-3.68-3.558 1.634-5.359 3.72-7.363 6.38.043 3.515-.203 6.336.574 9.609 3.352 2.086 5.93 3.066 9.121 3.434a62 62 0 0 0 7.93-6.38ZM336.934 668.992c1.226-2.047 2.699-4.62 4.293-7.605.285-.492.859-.778 1.39-.657q2.701.434 5.028 1.106c.328.125.617.328.78.652 1.387 2.453 2.165 4.785 2.083 6.871-.04.082-.04.164-.04.246-.656 4.13-2.206 7.36-4.5 9.977-.284.29-.695.45-1.1.45a28.4 28.4 0 0 1-5.891-.856c-.532-.125-.942-.617-.98-1.188-.247-2.617-.614-5.316-1.188-8.054a1.25 1.25 0 0 1 .125-.942M342.043 659.465c1.719.57 3.559 1.062 5.523 1.555.407.082.856-.125.98-.536.614-1.879.411-4.414-.491-7.48-1.063-3.477-4.578-6.422-9.403-9.078a.8.8 0 0 0-.328-.082c-1.8-.246-3.23 0-3.969 1.105a.54.54 0 0 0-.12.489l.12 5.07c0 .207.082.41.207.574 2.7 2.863 5.153 5.602 7.075 8.137a.8.8 0 0 0 .406.246M315.996 652.023c2.535.938 5.234 1.676 8.055 2.25.289.079.574.04.86-.043 2.823-.98 5.437-2.085 7.769-3.515.449-.29.738-.778.738-1.309l.078-4.988c0-.492-.16-.941-.531-1.227-1.43-1.187-3.309-1.8-5.395-2.168-.082-.043-.207-.043-.289-.043l-4.047-.082c-.285 0-.53.043-.777.164a72 72 0 0 0-6.379 3.68 1.7 1.7 0 0 0-.695.899c-.41 1.515-.488 3.191-.41 4.992 0 .613.41 1.183 1.023 1.39M306.672 668.707c-.324 2.453-.98 5.11-1.84 7.89-1.633-.367-3.148-1.593-4.496-3.964-.41-3.356-.613-6.625-.367-9.613.488-2.696 1.347-4.946 2.984-6.336 1.594-.04 2.902.41 3.719 1.511-.652 3.438-.57 6.953 0 10.512M311.703 686.086c-.121.816-.082 1.512.246 2.004 2.7 2.043 6.012 3.472 10.305 3.965 3.187.246 6.215.41 7.77-.41.285-1.594-.208-3.106-1.434-4.66a94 94 0 0 1-9.078-2.579c-2.778.574-5.395 1.106-7.809 1.68M310.844 685.102c.246.859.289 1.718.246 2.578-4.95-4.051-8.711-8.137-9.61-12.309.98.98 2.086 1.676 3.313 2.207Zm0 0" data-source="https://football-logos.cc"></path><path fill="#FFF" d="M343.8 684.816c2.54-4.66 5.36-8.504 7.157-13.492.492 5.356-2.984 10.426-7.156 13.492M311.95 644.703l3.105-.285 6.789-3.723c-3.965.328-7.403 1.473-9.895 4.008M303.77 652.594c-.368 1.965-1.184 3.722-2.536 5.195a10.05 10.05 0 0 1 2.536-5.195M364.7 712.379l-4.54 4.332 5.52 5.77-4.047 3.882-5.524-5.726-9.035 8.672-4.254-4.418 21.836-20.977 10.348 10.793-4.211 4.05ZM373.531 740.96l6.5-8.464c3.969-5.11 9.242-5.93 14.11-2.168s5.437 9.04 1.472 14.192l-6.504 8.421c-3.964 5.153-9.242 5.93-14.105 2.207-4.867-3.757-5.438-9.078-1.473-14.187m10.551 8.098 6.5-8.426c1.719-2.246 1.719-4.168-.082-5.602-1.84-1.39-3.68-.898-5.398 1.352l-6.54 8.465c-1.718 2.246-1.718 4.168.083 5.558 1.84 1.39 3.68.903 5.437-1.347M404.855 763.246l5.11-9.363c3.11-5.684 8.18-7.32 13.574-4.375 5.399 2.941 6.79 8.094 3.684 13.781l-5.114 9.363c-3.105 5.684-8.175 7.32-13.574 4.375s-6.789-8.097-3.68-13.78m11.696 6.339 5.066-9.324c1.395-2.535 1.106-4.414-.937-5.52-2.004-1.105-3.762-.328-5.114 2.207l-5.109 9.324c-1.352 2.497-1.062 4.414.938 5.52 2.003 1.062 3.765.328 5.156-2.207M460.262 772.406l-5.563-2.043-8.465 22.938-5.925-2.164 8.46-22.985-5.558-2.043 2.004-5.48 17.05 6.297ZM489.457 795.594c-1.184 5.273-5.602 8.054-10.672 6.91l-9.324-2.047 6.504-29.562 9.2 2.003c4.581 1.02 7.073 5.11 5.972 10.141-.492 2.246-1.922 4.414-3.805 5.48 1.922 1.758 2.7 4.415 2.125 7.075m-6.172-1.395c.488-2.164-.492-3.515-2.742-4.004l-2.41-.53-1.434 6.456 2.29.492c2.374.532 3.847-.285 4.296-2.414m-2.578-16.355-1.348 6.176 2.371.53c1.676.368 2.82-.53 3.27-2.616.45-1.961-.164-3.192-2.125-3.598ZM517.14 802.992l-6.378-.531-1.43 4.906-6.34-.531 9.856-29.563 6.543.532 4.66 30.832-6.336-.574Zm-.695-5.93-.406-3.515c-.207-2.168-.41-5.887-.492-8.383h-.164c-.531 2.414-1.309 6.055-1.922 8.18l-.98 3.394ZM557.012 802.379l.242 5.848-15.129.574-1.184-30.301 6.172-.207.903 24.414ZM589.355 798.086l.942 5.766-14.965 2.414-4.828-29.895 6.05-.98 3.887 24.129ZM620.148 786.473l-4.09-11.04c-2.25-6.011-.206-10.468 5.356-12.515 5.684-2.125 10.059-.04 12.473 5.89l-5.766 2.126c-1.105-2.536-2.496-3.23-4.66-2.41-1.758.652-2.332 2.167-1.434 4.66l4.133 11.039c.899 2.453 2.29 3.23 4.086 2.578 2.211-.86 2.863-2.29 2.086-4.867l5.766-2.125c2.086 6.011 0 10.425-5.766 12.554-5.52 2.086-9.977.082-12.184-5.89M669.137 768.152l2.738 5.153-13.332 7.156-14.27-26.742 5.399-2.903 11.531 21.59ZM683.363 754.66l-12.226-16.52 5.156-3.804 12.223 16.52c1.68 2.207 3.437 2.78 5.195 1.515 1.719-1.308 1.676-3.148.043-5.398l-12.23-16.52 5.156-3.805 12.222 16.52c3.805 5.152 3.192 10.387-1.675 13.984-4.868 3.602-10.016 2.66-13.864-2.492M729.328 715.445c3.883 3.762 3.883 8.996.242 12.676l-6.664 6.871-21.672-21.144 6.582-6.785c3.274-3.313 8.059-3.313 11.739.285 1.633 1.636 2.738 4.007 2.656 6.175 2.496-.695 5.152 0 7.117 1.922m-19.672-1.965 4.54 4.418 1.679-1.718c1.227-1.266 1.063-2.7-.492-4.172-1.43-1.43-2.781-1.512-4.168-.121Zm15.215 6.461c-1.555-1.554-3.23-1.43-4.824.207l-1.762 1.758 4.746 4.621 1.637-1.68c1.715-1.714 1.758-3.39.203-4.906"></path><path fill="#3F5C91" d="m598.434 510.414-4.907 128.113H577.09V580.79s.98-17.625-16.48-29.195c-17.419-11.614-19.794-12.39-19.794-12.39s-28.132 15.128-31.648 24.616c0 0-4.54 7.157-4.703 14.067 0 0 .246 61.703-.121 61.379l-17.137-.207-5.07-128.684h2.293v-4.5s3.597-.777 5.234 2.824c.899-1.762 2.7-2.945 4.781-2.945 1.883 0 3.559 1.023 4.5 2.535a5.35 5.35 0 0 1 4.54-2.535 5.22 5.22 0 0 1 4.495 2.535 5.35 5.35 0 0 1 4.54-2.535 5.34 5.34 0 0 1 4.539 2.535c.941-1.512 2.617-2.535 4.5-2.535a5.35 5.35 0 0 1 4.539 2.535 5.35 5.35 0 0 1 4.539-2.535c2.086 0 3.883 1.226 4.742 2.984.86-1.758 2.66-2.984 4.742-2.984 1.883 0 3.477.941 4.457 2.41a5.23 5.23 0 0 1 4.418-2.41 5.28 5.28 0 0 1 4.867 3.187v.043s0-.043.04-.043c.777-1.878 2.66-3.187 4.827-3.187a5.35 5.35 0 0 1 4.782 2.984c-.04.082-.082.121-.121.203h.203c-.04-.082-.04-.12-.082-.203.86-1.758 2.66-2.984 4.742-2.984a5.34 5.34 0 0 1 4.539 2.535c.941-1.512 2.621-2.535 4.5-2.535a5.35 5.35 0 0 1 4.539 2.535 5.35 5.35 0 0 1 4.54-2.535c2.124 0 3.964 1.266 4.823 3.105.082-.488.735-2.82 3.723-3.023v4.578Zm0 0"></path><path fill="#FFF" d="M503.934 526.281c-.735.492-1.391-1.144-2.332.98v-2.37c.449-.164.859-.246 1.308-.328l-.57.695.613.656.735-.695-.735-.657c1.145-.203 2.41-.285 4.414-1.55-.12.242-.203.61-.246 1.062a25 25 0 0 0 0 3.434c.371-.164.535-.613.535-1.27.121-1.43.203-2.902.04-3.433a28 28 0 0 0 2.699-2.086l-.04-.614c-4.582 1.801-.695 2.13-8.507 3.598l-.04-.898c-.328.125-.53.41-.656.86l-.734.12-.207-.898-.324.941c-.657.082-1.188-.043-1.598-.367-.285-.082-.45.039-.57.406-.207.328-.41.41-.735.371-.656-.328-.941.285-1.066 1.223.246-.242.531-.406.902-.242.489.039.856-.246.98-.98.407.613 1.106.816 2.087.734.816 3.105-.207 4.172-1.883 4.539-2.043.039-2.492-1.473-2.125-3.762-1.106 1.555-.82 4.988 1.96 4.824 1.884-.285 3.231-1.719 2.618-5.601h.656v2.617c.328 2.207 2.41.734 2.82-1.309m-2.124 1.266c-.082-.45.449-.938.855-.817.246 0 .453 0 .656.043-.328.735-1.347 1.227-1.511.774M496.98 522.559l.043-2.125c-.285.12-.53.328-.613.652-.043 1.066-.043 2.004.121 2.25.246-.082.371-.328.45-.777M497.922 521.906c.738 0 .941-.328.777-.86-.449.165-.777.122-.941-.573-.16.082-.285.246-.367.453l.043 2.289c.367-.207.613-.531.488-1.309"></path><path fill="#FFF" d="M498.781 523.172c.653-.531 1.227-1.102 1.39-1.961.04.816.411 1.43 1.024 1.96.16-.323.325-.651.368-.98-.575-.367-1.024-.941-1.43-1.8-.246.777-.738 1.351-1.637 1.718-.043.41.082.739.285 1.063M502.707 522.887c.328-.696.816-1.27 1.39-1.594a2.16 2.16 0 0 0-.492-1.023c-.406.285-.734.777-.859 1.593-.121-.777-.531-1.183-1.43-1.308a2.16 2.16 0 0 0 0 1.023c.739.121 1.27.45 1.391 1.309M505.938 530.086l-.653-.656-.617.734.656.656.613-.613.614.57.695-.691-.738-.695ZM509.129 524.195l.652.653.696-.692-.739-.695ZM515.465 530.371l-.653-.656-.613.738.614.652.652-.613.574.574.734-.695-.734-.695ZM522.54 529.469l-.653-.653-.614.735.653.656.613-.613.574.613.696-.695-.696-.696ZM550.55 521.906l.653.532.613-.817-.816-.574-.492.734-.696-.531-.53.777.695.575ZM568.46 529.266l-.651-.653-.657.696.614.695.695-.613.57.613.739-.656-.696-.735ZM579.543 528.16l.855.29.329-.942-.98-.285Zm0 0"></path><path fill="#FFF" d="m521.887 530.41.652.695.695-.734-.734-.695ZM504.875 525.871c-.738 3.11-1.922 2.29-1.922 3.23 1.024-.038 1.961-.328 2.043-3.23ZM505.445 524.563c-.12 1.308-.12 2.578.043 3.761.367.656 1.227.531 1.184-1.062-.285.449-.692.492-.774-.121 0-1.145.04-2.211.16-3.23-.285.163-.488.366-.613.652M557.133 524.688c.12-1.434.246-2.907.043-3.356-.367.125-.614.574-.696 1.309-.082 1.062-.043 2.168.04 3.23.41-.121.613-.57.613-1.183M560.078 525.094c.45-.121.613-.57.652-1.184.082-1.351.247-2.781 0-3.23-.367.12-.57.53-.652 1.265-.121 1.067-.082 2.086 0 3.149M562.406 521.578c.082-.695.125-1.43 0-1.637-.203.043-.324.246-.367.657q-.058.796 0 1.593c.246-.039.367-.285.367-.613M509.781 526.281c-.734-.125-1.144.285-1.023 1.39.492-.327.207-1.226 1.39-.612-.777 1.226-2.086 1.062-1.718-.86-.285 1.145-.98 2.004-2.043 2.578.164.285 1.105.203 1.636-.574.368.899 1.676.899 2.168-.328l.57-1.309ZM553.863 526.402c.57-.324.242-1.226 1.594-.613-.941 1.227-2.453 1.063-2.004-.86-.246.739-.613 1.352-1.226 1.84 0-.449 0-.816-.125-1.019-.368.082-.57.492-.653 1.184-.039.125-.039.289-.039.41-.082.039-.207.12-.328.164.04.082.164.12.328.12-.043.778 0 1.556.082 2.294.406-.125.57-.492.61-1.106.043-.449.082-.898.082-1.308.289-.125.574-.285.78-.574.45.941 1.962.902 2.575-.325l.652-1.308-1.144-.29c-.899-.12-1.348.29-1.184 1.391M511.867 527.059c.492.816.98.816 1.473-.043.242-.489.45-.368.613.289.082.285.406.285.652-.41 1.516 1.308 8.055-.532 11.942-5.153l-1.719-.039 1.8-.617c.778-.242.86-.57.122-.98-.531-.325-.695.042-.855.492l-1.516.898c-.367.328-.328.531.082.695l1.023.082c-4.539 3.516-9.734 4.704-11.492 3.149-.12.328-.367.492-.695.531-1.309 1.8-1.184-.816-1.309-.816-.367.039.29 1.347-1.633 2.535.692.367 1.227.203 1.512-.613M519.188 520.352l-2.25.859-.329.777 2.414-.902Zm0 0"></path><path fill="#FFF" d="M517.918 523.379c.082.246.246.406.492.367 1.309-.328.04-1.8.04-1.8l-.45.41.285.285c.207.492-.16.53-.488.082-.328.53-.531.613-.492-.368-1.024.817-.04 2.168.613 1.024M547.809 523.46c.125.243.289.407.53.368 1.313-.328.044-1.8.044-1.8l-.45.37.247.325c.242.492-.125.492-.453.043-.325.53-.528.652-.489-.328-1.023.816-.039 2.125.57 1.023M562.164 523.172c.121.246.285.41.488.41 1.309-.367.082-1.8.082-1.8l-.449.37.246.285c.246.489-.164.532-.449.083-.328.53-.531.613-.531-.368-1.024.817 0 2.164.613 1.02M527.281 523.621l-.039-.57c-4.703 3.8-9.039 5.722-12.676 4.539-.859 1.308-1.39 1.43-1.472-.082-.246.816-.817 1.39-1.594 1.84.613.246 1.102.285 1.43-.285.53.859 1.472.57 1.472-.614 1.43 1.555 7.485.57 12.88-4.828"></path><path fill="#FFF" d="M518.695 530.043c-.203-.285.082-.328.328-.121-.082-.492-.285-.656-.613-.531-.41.242-.41.57.04.98.37.242.245.324-.122.285.164.45.98.328.695-.285ZM528.715 525.625c-.285-.164 0-.734.285-1.309l-.121-4.25c-.207.082-.41.325-.492.778l-.04 4.129c-.37.777-.452 1.511.083 1.554.488.04.734.246.691.653-.324 1.636-1.101 2.535-2.371 2.66-1.84-.29-1.922-1.922-1.266-4.38-1.187 2.25-1.308 4.09.45 5.24.98.53 3.558.241 3.515-4.458 0-.492-.285-.617-.734-.617M535.625 524.234l-.082 4.582c.246-.207.492-.449.656-.98l.078-4.5c-.285.207-.488.492-.652.898M532.926 529.063v.164c2.125-.329 2.004-1.68 2.043-2.946-.324 1.063-1.266 2.414-2.043 2.782M544.95 522.07c-.286 1.102-1.15 2.492-1.923 2.903l.04.164c2.085-.45 1.921-1.801 1.882-3.067M533.375 525.055l.082 1.84c0 .492-.328.816-1.062.898-.493.125-.98.164-1.512.207-.371.04-.617-.125-.86-.371.082.941.532 1.39 1.43 1.226 1.43-.12 2.25-.652 2.371-2.164v-2.21c0-.45 1.188-1.31 2.535-2.208.043-.246.125-.492.125-.695l-2.289 1.719c-.574.406-.82 1.02-.82 1.758"></path><path fill="#FFF" d="M532.352 525.75c-.489.492-.938.57-1.02-.082.04-.574.695-.492 1.063-.328 0-1.145-1.676-.492-1.434 1.062-.16.043-.324-.039-.324-.367l-.043-.816.164-2.985c-.04.082-.082.121-.164 0-.04.692-.121 1.309-.328 1.84-.04.98-.04 1.88.043 2.41.246.98 1.144 1.68 2.043-.734M551.45 525.914c.41-.941-.204-1.023-1.02-.695.367-.285.734-.574 1.347-.41.489.125 1.188-.575 1.227-1.676l.039-1.922c-.285.039-.45.285-.531.777l.043 1.39c-.082.696-.41.938-.82.981.859-.492.777-1.8-.083-1.84-.98-.124-1.55 1.555-.773 1.961-.246.082-.45.29-.574.532.164-1.676-1.555-.407-2.004 1.308-3.313 1.27-5.602.903-5.438-1.715l.04-3.843c-.204.082-.368.285-.45.613l-.121 3.395c-.328 4.332 3.844 3.8 6.746 1.921.98-.125 2.086-.125 2.371-.777m-.531-2.496c.203-.285.531-.367.777-.203s.285.531.121.816c-.203.246-.53.367-.773.203-.246-.16-.29-.527-.125-.816m-2.453 2.945c.574-.898 1.062-1.511 1.39-1.351l.082.082c.325.37-.492.82-1.472 1.27m2.535-.493c-.121.41-.98.45-1.676.613.531-.613 1.02-1.183 1.43-.98q.31.063.246.367"></path><path fill="#FFF" d="m548.465 520.598-.653-.45-1.68 1.102v.777ZM570.055 520.352l-.653-.45-1.675 1.102.039.777ZM584.285 520.188l-.57-.368-1.516.98v.696ZM582.242 529.758l2.207-1.063.082-.738-2.21 1.106ZM575.82 529.512l.04.695 2.128-1.39-.039-.696ZM565.555 520.148l-1.797.86-.082.773 2.496-1.101ZM552.184 519.984l-.61-.367-2.293 1.266.657.367ZM558.402 520.105l-.53-.57-2.25 1.266.448.574ZM556.969 529.02l.449.574 2.371-1.27-.57-.57ZM552.965 529.145l.445.53 2.375-1.226-.574-.574ZM560.281 528.816l.45.532 2.37-1.227-.57-.574Zm0 0"></path><path fill="#FFF" d="m555.008 521.703-.043 1.758c.41-.613.695-1.352.695-2.293-.039-.816-.937-.816-1.308-.242-.57 1.062.535 1.55.656.777M573.203 521.54l-.039 1.757c.45-.613.734-1.352.734-2.293-.082-.817-.98-.856-1.347-.242-.574 1.062.57 1.511.652.777M576.8 521.129l-.038 1.758c.406-.614.734-1.348.734-2.29-.082-.816-.98-.816-1.348-.245-.574 1.062.532 1.554.653.777M565.8 522.11l.208.042c.12-.289.531-.289.613.04s-.371.367-.613.081h-.164c.203.614 1.226.614 1.144-.285-.164-.695-.98-.531-1.187.121M570.176 520.434c.082-.164.328-.164.41.039.043.246-.246.246-.41.082l-.121-.04c.12.45.816.45.777-.202-.125-.454-.656-.329-.816.12ZM559.996 520.762c.121.203-.121.324-.328.203l-.082.039c.246.328.82.082.574-.45-.246-.324-.695-.081-.656.372l.125-.043c.039-.164.246-.285.367-.121M553.207 521.09c0-.29.328-.41.492-.207.203.285-.164.492-.449.328l-.164.039c.367.492 1.266.125.898-.652-.41-.493-1.02-.125-.98.53ZM558.809 525.543c.328-.16.53-.691.738-1.512.039-1.02.039-2.004-.082-2.902-.246.203-.45.45-.574.86 0 .98 0 1.96-.04 2.945-.449-.739-.898-.86-1.308-.246-.574 1.226-.207 1.468.367 1.468-.613.574-1.43.942-1.308 1.067.816 0 1.636-.082 2.207-1.68M562.613 524.688l.367.57c.082.695-.57.738-1.062.289-.328.734-.98.57-.777-.86-.203 1.266-1.473 2.247-2.125 2.493.816.082 1.43-.082 1.675-.817.286.98.817.942 1.27.328.816.856 2.371-1.433 1.348-2.824-.368.328-.735.696-.696.82M566.375 525.586q0-.37.246-.734c.121-.82-1.308-.942-1.308-.454l-.083.41c-1.226.45-1.593 1.227-1.511 2.25l.203 2.942c.082.207.203.328.367.371l-.203-3.558c.324-.86 1.101-1.31 2.289-1.227M570.137 525.137c.328-.246.613-.614.734-1.024l.082-2.984-.652.652Zm0 0"></path><path fill="#FFF" d="M567.602 525.383c-.778.531-1.801 1.144-1.473 1.308.941.04 1.8-.164 2.168-2.617 1.023.57 1.39-.207 1.594-1.308l.125-2.047c-.368.125-.614.449-.739 1.105v1.84c-.53-.656-.98-.45-1.308.531-.367-.367-.696-.492-1.063.04-.367.984 0 1.269.696 1.148"></path><path fill="#FFF" d="M576.883 525.055c-.45 2.535 1.226 2.738 1.148.898.324.246.57.246.817-.082.203-.45.488-.734.898-.613.328.41.656.289.777-.41.043-.325-.164-.57-.41-.614.164-.324.246-.691.29-1.062.12-.57.12-1.266.081-2.043-.164.039-.37.285-.617.613l.082 1.637c.043.203-.039.531-.164.816-.285.04-.613.246-.773.653-.125.453-.492.492-.696 0v-.899l.121-.203.208-.941c-.329 0-.536.285-.7.738l-.16 2.289c.04.531-.453.45-.328-.125l.04-1.922c.042-1.02.448-1.55 1.066-1.758l3.226-2.043v-.574c-3.473 2.168-4.621 2.496-4.621 4.293-.16 2.945-8.422 3.477-12.387 3.23-.246 1.965 11.164 1.352 12.102-1.878"></path><path fill="#FFF" d="m582.078 522.11.082-2.044c-.367.204-.656.532-.82 1.348.043.41.043.98.043 1.555l-.164 1.308c.41-.41.777-.98.86-2.168"></path><path fill="#FFF" d="M583.059 525.422c.12-.246.328-.328.57-.121.41.246 1.023-.207.82-.492-.367-.407-.531-.778-.082-1.024.45-.937.41-2.328.246-3.762-.449.207-.656.82-.613 1.758.328 2.086-.246 2.496-.86 2.824l-1.511.817-.082 2.371c-1.555 2.496-3.969.902-3.027-1.39l-.122-.122c-.859 2.453-.289 3.516 1.184 3.723 1.84-.125 2.66-1.473 2.453-4.008.41-.082.778-.246 1.024-.574" data-source="https://football-logos.cc"></path><!-- source: https://football-logos.cc --></svg>