<svg xmlns="http://www.w3.org/2000/svg" xmlns:xlink="http://www.w3.org/1999/xlink" viewBox="19.28 19.35 510.6 718.3"><!-- Source: https://football-logos.cc --><g transform="matrix(1.25 0 0 -1.25 -93.634 707.422)" data-source="https://football-logos.cc"><defs><path id="a" d="M-207.3-124.9h2823.1v767.5H-207.3z"></path></defs><clipPath id="b"><use xlink:href="#a" overflow="visible"></use></clipPath></g><path d="M630.6 1205.2c7.9-6.2 13.7-9.3 26.9-14.1 70.9-26 208.6-41.4 208.6-136.4V511.9H367.5v542.8c0 93.3 134.2 111.8 206.8 135.7 0 0 16.2 6.5 22.9 11.1 9.5 6.5 19.1 16.7 19.1 16.7s9-8.9 14.3-13" style="fill:#64c5e8" transform="translate(-342.22 -486.55)"></path><path d="M630.6 1205.2c7.9-6.2 13.7-9.3 26.9-14.1 70.9-26 208.6-41.4 208.6-136.4V511.9H367.5v542.8c0 93.3 134.2 111.8 206.8 135.7 0 0 16.2 6.5 22.9 11.1 9.5 6.5 19.1 16.7 19.1 16.7s9-8.9 14.3-13z" style="fill:none;stroke:#7b003d;stroke-width:12;stroke-miterlimit:6" transform="translate(-342.22 -486.55)"></path><path d="m480.7 683.1 8.1 16.6 18 2.7-13 12.9 3.1 18.2-16.1-8.6-16.1 8.6 3.1-18.2-13-12.9 18-2.7z" style="fill:#fff" transform="translate(-342.22 -486.55)" data-source="https://football-logos.cc"></path><path d="M464.6 545.5c-.4 0-1.2.5-2.1 1.3l-7.1 5.2c-1.5 1.1-2.7 3.2-3.7 6.3-.9 3.1-1.7 6-2.4 8.6L431 621.1c-2.5 7.2-4.8 12.4-6.8 15.4s-5 4.4-8.9 4.4c-1.4 0-2.4.8-2.4 2.1v2.4c0 .8.6 1.3 1.6 1.3.6 0 2.9-.3 6.5-.5q5.55-.3 8.1-.3c1.7 0 4.2 0 7.6.3 3.5.2 5.8.5 6.8.5 1.7 0 2.6-.5 2.6-1.3v-2.6c0-1.1-.6-1.8-1.8-1.8-6.5 0-9.7-1.8-9.7-5.5 0-1.5.5-3.8 1.6-6.8l6.5-19.6h28.5l6.8 16c1.5 3.8 2.5 6.4 2.9 7.6.4 1.1.8 2.1.8 3.1 0 3.5-2.8 5.2-8.4 5.2-1.5 0-2.4.8-2.4 2.1v2.4c0 .7.5 1.3 1.3 1.3 1.1 0 4.2-.3 9.7-.5s9.3-.3 11.3-.3c2.4 0 5.5 0 9.4.3 4 .2 6.8.5 8.4.5 1 0 1.6-.6 1.6-1.8v-2.4c0-.8-.6-1.4-1.8-1.6-3.5-.5-6-1.2-7.3-2.6-1.4-1.4-3-4.4-4.7-8.6l-33-82.2c-.5-1.3-.9-2.1-1.2-2.1m316 2.1c-15.5 0-28.7 4.6-39.3 14.1s-15.7 21.1-15.7 34.5c0 16.9 5.4 29.9 16 39s23.5 13.6 39.3 13.6c12.1 0 22.9-2.3 32.2-7.1l4.2-17.3c.3-1.1.5-1.8.5-2.1 0-.5-.7-1.1-2.1-1.6s-2.5-.8-3.1-.8c-.5 0-1 1-1.8 2.9q-4.5 10.05-10.2 14.7c-3.7 3-9.4 4.4-17.3 4.4-10.8 0-19.8-4.3-27-12.8-7.2-8.6-10.7-19.1-10.7-31.7 0-12.5 3.3-22.7 9.9-30.9s15.2-12.3 25.9-12.3c7.2 0 13 2 17.5 6s7.7 8.6 9.4 13.9c.2.8.4 1.5.5 1.8.2.3.3.3.8.3.7 0 1.9 0 3.1-.3 1.3-.3 2.1-.7 2.1-1 0-.6-.4-3.6-1-8.9-.7-5.4-1.3-8.2-1.6-8.9-.7-1.6-4.2-3.6-11-6-6.7-2.2-13.6-3.5-20.6-3.5M512 550c-1.1 0-1.6.5-1.6 1.6v2.4c0 1 .6 1.6 2.1 1.6 3.7 0 6.6.6 8.6 2.1s4 4.7 5.8 8.9l32.5 80.4c.4.9.6 1.5 1 1.8s1.2.3 2.4.3h2.4c.8 0 1.4 0 1.8-.3s.7-.8 1-1.6l32.2-79.8c1.9-4.8 3.3-8.2 4.4-9.7s3.4-2.1 6.5-2.1c1.2 0 1.6-.7 1.6-1.8v-2.1c0-1.1-.6-1.6-1.6-1.6s-2.7 0-5.5.3q-4.2.3-6.3.3c-1.8 0-5.1 0-9.4-.3-4.3-.2-6.7-.3-7.6-.3-1.1 0-1.6.5-1.6 1.6v2.1c0 1.2.6 1.8 2.1 1.8 3.8 0 6.5.2 7.9.8q2.1.9 2.1 3.9c0 2.1-.3 4.6-1.3 7.1l-21.7 56.8-23.8-58.5c-1.2-3.1-1.6-5.3-1.6-6.5s.7-2.3 2.1-2.9 3.9-.8 7.3-.8c1.3 0 1.8-.5 1.8-1.6v-2.4c0-1.1-.6-1.6-2.1-1.6-1.1 0-4.7 0-10.7.3-6 .2-10.3.3-12.6.3-2.7 0-6.1 0-10.5-.3-4.1-.2-6.7-.2-7.7-.2m123.6 0c-1.6 0-2.6.4-2.6 1.3v2.6c0 1 1.1 1.6 2.9 1.6 4 0 6.5.9 7.9 2.9s2.1 5.7 2.1 11v59.9c0 3.9-.9 6.9-2.6 8.9s-4.3 2.9-7.9 2.9c-1.5 0-2.4.6-2.4 1.6v2.6c0 1 .8 1.6 2.4 1.6.9 0 4.4-.3 10.2-.5 5.9-.2 9.5-.3 11.3-.3 1.9 0 5.2 0 9.7.3 4.6.2 7.4.5 8.1.5 1.5 0 2.1-.5 2.1-1.3v-3.1c0-.7-.6-1.3-2.1-1.3-3.7 0-6.4-.9-8.1-2.6s-2.6-4.8-2.6-9.2v-31.7h18.8c4 0 7 .9 8.9 2.6 2 1.7 3.5 4.6 4.4 8.6.2 1.2.8 1.6 1.6 1.6h2.9c.7 0 .8-.5.8-1.8 0-.9 0-3-.3-6-.2-3-.3-5-.3-6.3 0-1.8.1-4.6.3-7.9s.3-5.2.3-6c0-1-.4-1.6-1.3-1.6h-2.6c-.7 0-1.1.3-1.3 1.3-.8 3.8-2 6.4-3.4 7.6q-2.1 1.8-8.4 1.8H664v-27c0-3.4 1.1-5.6 2.9-6.8 1.9-1.2 5.3-1.6 10.5-1.6h4.2q10.95 0 14.7 2.1c2.5 1.4 4.4 3.9 5.8 7.6l1.6 3.9c.5 1.4.9 2.1 1.8 2.1h2.1c.9 0 1.3-.4 1.3-1.6v-19.1c0-1-.3-1.3-1.3-1.3-1.3 0-8.6 0-21.5.3-12.8.2-20.8.3-24.1.3-4 0-9.1 0-15.4-.3-6.6-.2-10.2-.2-11-.2m-180.1 21.2 12.8 31.1h-22.8zm65.4 534.2c-4.8-.3-9.4.5-9.4.5v35.1h5v-18.3s14.1-3.3 14.1-11.5c0-4.2-4.9-5.5-9.7-5.8m25.7 0c-4.8-.3-9.7.5-9.7.5v35.1h5.2v-18.3s2.6-.8 5.5-2.1c.4.6 2 3.4 4.4 9.2 2.7 6.4 3.4 11.3 3.4 11.3h5s-1.2-6.4-3.4-12c-1.9-4.8-4.7-8.9-5.5-10.2 2.6-1.8 4.7-4.4 4.7-7.6.1-4.3-4.8-5.6-9.6-5.9m54.9 0c-4.8-.3-9.7.5-9.7.5v35.1h5.2v-18.3s14.1-3.3 14.1-11.5c.1-4.2-4.8-5.5-9.6-5.8m52.4 0c-4.8-.3-9.7.5-9.7.5v35.1h5v-18.3s2.6-.8 5.5-2.1c.4.6 2.3 3.4 4.7 9.2 2.7 6.4 3.1 11.3 3.1 11.3h5s-1.2-6.4-3.4-12c-2-5-4.5-9.4-5.2-10.5 2.5-1.8 4.4-4.2 4.4-7.3 0-4.3-4.6-5.6-9.4-5.9m47.1 0c-2.1.1-3.7.5-3.7.5v35.1h5.2s17 .3 17-21.5c.1-13.4-12.3-14.5-18.5-14.1m-133 .5v35.1h15.4v-4.2H573v-16h7.1v-3.9H573v-7.1h10.5v-3.9zm53.2 0-11 35.1h5.5l5.8-20.2h6.8l5.8 20.2h5.2l-10.7-35.1zm52.3 0v35.1H689v-4.2h-10.2v-16h6.8v-3.9h-6.8v-7.1H689v-3.9zm-48.7 2.9 2.4 8.1h-4.7zm-103.9.5c2.2.1 4.4.6 4.4 1.8 0 4.7-8.9 6.5-8.9 6.5v-8.1c.1.1 2.3-.2 4.5-.2m25.7 0c2.2.1 4.2.6 4.2 1.8 0 4.7-8.6 6.5-8.6 6.5v-8.1c-.1.1 2.2-.2 4.4-.2m54.9 0c2.2.1 4.4.6 4.4 1.8 0 4.7-8.9 6.5-8.9 6.5v-8.1c.1.1 2.3-.2 4.5-.2m52.1 0c2.2.1 4.4.6 4.4 1.8 0 4.7-8.9 6.5-8.9 6.5v-8.1c.1.1 2.3-.2 4.5-.2m50.3.5c3.5-.2 10.5.5 10.5 9.9 0 15.7-8.8 17.6-11.8 17.8V1110c.3 0 .5-.1 1.3-.2" style="fill:#7b003d" transform="translate(-342.22 -486.55)"></path><path d="M631.3 697.7c-2.9 4.5-10.4 7.3-10.4 7.3s-1.7-.1-.4-3.2c1.2-2.8 1.7-4.2 1.7-4.2l-6.1 2.2s2.1-1.9 3-5c.8-3.1.6-5.1.6-5.1s-.8 2.6-3.8 3.9c-2.4 1-7.2 1.5-7.2 1.5s5.8-12 14.8-11.2c9 .9 10.7 9.3 7.8 13.8m-40.7 13.2c-1.1 2.6-3.7 5.3-6.7 6.1-2.5.6-4.7.6-6.5-.1-4.5-1.6-5.4-4.8-5.4-4.8l4.8-2.3c.8 2.4 2.5 3.8 4.5 3.9s3.5-.9 4.1-2.6c.3-1 .1-2.5.1-2.5s-.6 1.4-1.8 1.4c-.9 0-2.3-.6-1.8-2.7l10.8-5.2c0 .1-.3 4.6-2.1 8.8m215.9 36.3s-10 13.7-20.7 15.9c-7.5 1.6-12.7.8-12.7.8s2.8-.2 4.9-1.9c2.5-1.9 3.9-5.2 3.9-5.2s-4.5 2.3-12 .3c-3.4-.9-10.8-1.6-16.7.6-4.5 1.6-9.8 6.2-9.8 6.2s1.7-1.8 2.6-3.9c1.1-2.7.5-5.7.5-5.7s-.6 2.9-4.3 4.5c-2.2.9-7 3-9.1 6.2-2.8 4.2-2.5 9.3-3.6 10.5-.9 1-28.1 13.3-30 38.4-1.8 25 16.8 44.3 22.9 51.4s32 37.3 36.2 44.1c3.4 5.4 6.2 11.1 3 18.1-1.9 4.1-8.4 8.9-18 4.4-9.8-4.6-16.4-11-26.7-15.5-8.2-3.7-17.8-6.3-19.9-7.7-1.6-1.1-15.9-10.2-17.2-26.8-1.1-12.9 4.1-33.1 4.9-47.1 1.1-19.3-4.5-27.6-4.6-28.4-.2-1.3 4.9.3 7 4.1 3 5.3 2.6 7.4 2.6 7.4s6.6-12.3 3.8-27.9c-3.2-17.7-14.1-19.9-14.2-21.2-.1-1 3.3-1.7 6.7-.6 9.6 3 11.3 12.3 11.3 12.3s4.1-13-1.6-26.2c-5.2-12.1-13-13.2-13.2-14.6-.1-.7 2.4-1.9 7.6-.6 8 2 9.8 8.8 9.8 8.8s1.9-11.3-1.5-20.9c-6.1-17.2-18.5-19-18.6-20.3 0-.8 3.5-1.8 7.1-.8 6 1.7 6.8 3.4 6.8 3.4s-.3-4.2-3.6-10.5c-3.6-6.9-12.4-16.1-16-18.2-20.2-12.1-31.2-9.7-34.8-9.9-1-.1-3.1-1.8-2.1-4.8 1.4-4.5 4.5-6.1 4.5-6.1s-8.5-.3-16.2 2.6c-9 3.4-13.6 8.4-14.7 8.4-.9 0-2-1.6-2-3.8.1-3.3 1.2-4.3 1.2-4.3s-10.6 3.5-15.7 7.3c-3.6 2.6-9 6.8-11.8 13.3-2.2 5.1-3.3 11.7-3.3 11.7s-2.4-1.8-5.8.6c-3.5 2.5-7.3 7.4-9.3 10.3-1.8 2.8-4.6 5.7-6.4 6.4-2.1.8-14 5-16.4 6.4-2.1 1.3-3 5.7-2.6 7.5.2.8 1 2.8 2.9 4.9 1 1.1 1.7.2 2.3-1.1.3-.7.8-1.1 1.2-.9 2.5 1.3.3 7 .9 8.6.8 2 2.6 3.7 4.7 5.1 2.7 1.8 8.2 3.5 8.2 3.5s-.8-2.5.2-4c.8-1.2 3.1-3 5.4-3.3 4.3-.6 10.9-.2 14.3 2.7 4.8 4.1 4.1 9.5 4.1 9.5s-8.5 3.3-12.6 3.9-7.2.6-10.2-.5-5.6-4.2-5.6-4.2-.9 4.8-1.3 5.4c-.3.4-2.5 1.5-2.3 2.9.4 2.7 4.2 2.9 4.6 3.7.5.9-2.4 3.7-.4 7.9 1.1 2.3 3.4 4.2 5.6 5.4 2.4 1.3 4.6 1.8 4.6 1.8s-.8-3.3 1.1-5.7c1-1.4 3.1-1.8 3.4-1.6.6.3.6 1.5 3 2.8 2.5 1.4 5.7.9 5.7.9s-2.4-3-.3-5.6c1.5-1.8 4.6-2.5 5.2-2.3.7.2 3.4 3.4 10 5.3 3 .9 7.8 1.3 10.1 0 5.5-3 5.6-5.4 11.2-6.5 0 0-3 1.4-5.9 8.6-2.6 6.4-9.6 8.8-14 10.2-5.4 1.7-11.4 2.9-16.8 5.4-3.6 1.7-8.2 4.6-12.3 8.3s-7.9 9.6-9.9 10.8c-2.1 1.2-20.3 3.5-37.4-2.3-17.1-5.7-23.5-14.4-30.7-23.7-7.5-9.7-14.4-16.8-19.2-18.5-4.4-1.6-7.3-2.4-11.3-1.6-3 .6-5.4 2.5-6.2 5.3-1.3 4.5-.4 6.7.7 8.1 1.3 1.6 5.1 2.9 5.1 2.9s-4.6-.8-7.2 1.7c-2.5 2.4-3.2 10.4.4 13.4 3 2.5 5.9 2.5 5.9 2.5s-1.9.1-2.6 1.4c-1.2 2.3-2.2 6-.5 8.5 4.3 6.3 8.6 3.9 13.3 4.8 6.5 1.4 9 1.8 13.7 4.1 7.3 3.6 14.4 10.4 21.4 17.3 8.3 8.2 15.4 12.6 17.7 14.4 19 15.2 38.3 13.4 38.3 13.4s-1.5-.7-4-2.1c-1.8-1-3.3-2.3-2.6-2.4 1.3-.2 5.7 1.2 11.8.9 6-.3 8.7-1.8 9.3-1.6 1 .2-.6 10.1-7.1 16-6.4 5.8-10.4 7-17.5 7.5-5.9.4-26.9 2.9-31.5 2.2s-12.2-4.2-15.2-4.7c-3.1-.5-5.4-1.1-8.7 1.8s-6.4 10.2-4.7 13.9c1.6 3.6 6.9 4 6.9 4s-7.2 0-9.8 3.8c-2.2 3.2-3.5 7.3-.6 13.7 1.6 3.7 5.9 6.8 8.8 6.4 2.8-.4 6.3-3.3 6.3-3.3s-4 4.9-2.2 7.7 7.2 5.3 11.7 5c4.4-.2 8.9-6.8 11.8-11 3.1-4.6 7.6-6.2 12.5-8.3 5.6-2.3 40.1-6.6 45.4-5.7 5.5.9 5.4 1.2 8.5 1.9 0 0-.3-1.7-1.6-3.8-1.6-2.6-3.2-4-2.8-4.4.5-.7 7.9-.7 13.9.6 7 1.6 12.6 6.1 12.6 6.1s-5-1.5-10.1-1.1c-3.4.3-6.3 1.2-6.3 1.2.5.8.6 1.3 1 2.4.9 2.4 1.6 5.6 1.2 5.6-.7 0-3.5-.9-6.9-1.6-4.2-.8-5.7-1.5-9.3-1.2-2.2.2-26.3 6.2-33.7 20.2-7 13.2-3.4 20.8-1.2 24.8 2.2 4.1 8.9 9.9 11.1 11.6 3.4 2.7 15.4 8.1 15.3 9.3-.1 1.1-7.9 3.9-16.7 4.9-8.9 1-21.7-2.2-25.7-6.7-2.6-2.9-7.9-12.1-11.2-15.7-3.2-3.6-11.4-7.4-16.7-5.3-3.5 1.4-5.3 4.3-6.7 7.2s-.1 5.4.9 6.3c.7.6 2.8 1.9 2.8 1.9s-2.2-.6-4.7 1.5c-2.1 1.8-3.5 3.9-3.9 8.9-.4 4.4 1 7 3 8.7s4.7 1.3 4.7 1.3-4.1 1.3-4.2 4.3 1.7 7.8 5.5 9.7c3.8 1.8 17.3-.4 23.4-1.1 4.5-.5 12.6.6 16.9 3.4 2.9 1.9 4.9 5.1 7.5 7.1 1.9 1.5 5.4 1.9 7.7.2 2-1.4 2.1-3.1 3.3-4.1s2-1.6 11-2.3c7.5-.6 10.5 2.4 11.6 4.2.5.7.7-.1 1 2.3.4 3.4-.7 4.7-.7 4.7s4.2-.2 7.3-2.2c1.8-1.1 4.1-2.9 4.6-3.3.5-.5 1.8-1.1 2.2.6.5 2.1-.3 2.7-.3 2.7s4.1-.5 7.1-2.5c3.4-2.2 4.4-3.4 5.5-3.6.7-.1 1.1.7.5 3.1 0 0 13.3-2.6 11.9-17.2-1.9-19.2-3.9-26.9-2-34.6s8.8-15.2 8.8-15.2l2.9 4.4s-5.2 7.1-5.8 16.4c-.4 5.6 1.4 16.8 3.1 22 2.1 6.2 5.5 11.5 7.2 13.5 3.4 4.2 6 4.5 6 4.5s0-1.1.6-2.9c.4-1.4 1.6-1.5 1.8-1.4.6.2 1 2.2 3.3 4.2 2.6 2.2 9.4 3.2 9.4 3.2s-.5-1-.4-2.6c.1-1.5 1-2.6 1.5-2.5.7.2 0 1.3 4.1 3.3 3.9 1.9 8 1 8 1s-.8-1.1-.8-2.2c0-1.4.8-2.5 1.2-2.6.6-.1-.2.5 4.7 1.5 4.6 1 7.6-2 7.6-2s-2-2-3.1-4.1c-.7-1.2-.3-2.6.3-3.3.7-.8 6.8-.9 9.8 3.2 2.6 3.6 4.6 20.2 3.7 29.4-.6 6.8-7 19-16.2 24.6-8 4.9-10.8 2.8-13.6.8-3.3-2.4-9-7.3-12.7-7.8-3.7-.6-7.5-.6-10.4.1-2.4.6-1.3.1-5.7 1.3-3 .8-8 2.4-10 6.3-1.8 3.4-1.6 9.5 1.3 11.6 2.7 2.1 5.3 2.6 6.6 1.3 0 0-1.5 1.2-2.6 3.3-1.7 2.9-1.7 5.5 1.1 9.8 2.4 3.7 6.3 5.2 8.2 5.3 3 .2 4.8-.6 4.8-.6s.7-.2 2.3-2.2c0 0-3.5 5.2-1.4 8.8 1 1.7 4.2 3.6 7.8 3.6 5 0 9.6-.8 11.8-2.1 3.5-2 6.6-4.3 9.2-6.6 4.7-4.1 8.9-9 15.2-13 3.4-2.2 17.1-9.4 23.5-10.7 3.7-.7 5.4-1.1 7.6-3.2 2.2-2 4.2-7.3 2.1-12-2.2-4.7-.4-11.3 1.4-20.3s4-14.9 6.9-17c2.8-2.1 6.1-1.8 11.8-5.5 6.1-3.9 5.4-10.6 5.4-10.6s-1.7.8-6.3-1.6c-3.9-2-3.4-4.4-3.3-5.3.2-1.1 1.2-1 4.6-4 3.9-3.5 2.8-12 2.8-12s-1.3 1.8-5.4 1.8c-2.9-.1-5.7-.3-6.2-2.8-.6-2.6 1.6-3.1 2.1-6.6.6-4.4-1.7-7.3-1.7-7.3s-1.7 3-9 3.5c-4.6.3-6.9-.4-8.9-1.2-2.8-1.2-6-4.6-6.7-8.2-1.3-7 1.2-10.3 1.9-11.1 2.7-3 9.1-1.7 17.1 3.9 9 6.3 26.6 15.1 40.8 9.2 13.2-5.4 25.3-29.2 11.4-49.3-12.3-17.9-47.7-55.9-51.6-62.2-3.5-5.5-9.2-14.9-7.9-24.1 1-7.8 4.6-13 8.2-16 3.5-3 7.9-5.1 9.2-5.2 1.2-.2 10.9 5.6 19.2 6.6 7.9.9 15-2.6 20.6-5.7 4.5-2.5 8.5-2 8.5-2-2-1.2-1.4-1.3-3.6-2.2-1.3-.5-4.3-.4-4.3-.4s12.3-3.7 18.8-11c11-12.2 12.8-32.2 12.8-32.2" style="fill:#ffe600" transform="translate(-342.22 -486.55)" data-source="https://football-logos.cc"></path><!-- source: https://football-logos.cc --></svg>