<svg xmlns="http://www.w3.org/2000/svg" xml:space="preserve" viewBox="0 0 712.83 599.04"><!-- Source: https://football-logos.cc --><path d="M5346.25 2225.85V0H0v2225.85l1137.18-.03c-75.61 189.5-117.19 396.26-117.19 612.73 0 913.63 740.64 1654.26 1654.25 1654.26 913.62 0 1654.26-740.63 1654.26-1654.26 0-216.45-41.56-423.2-117.17-612.69z" style="fill:#c11b7e;fill-opacity:1;fill-rule:nonzero;stroke:none" transform="matrix(.13333 0 0 -.13333 0 599.04)" data-source="https://football-logos.cc"></path><path d="M1549.83 3067.81c.8 4.11-1.94 7.78-6.11 8.17 0 0-89 8.21-152.75 15.04 70.13-23.78 121.39-40.28 153.72-49.51zm-230.33 97.97c.81 4.11 4.88 7.31 9.06 7.13l370.21-16.31c4.18-.18 6.95-3.7 6.15-7.8l-16.5-84.44c-.81-4.1-4.86-7.08-9.01-6.59l-53.4 6.15c-4.16.48-8.22-2.49-9.02-6.59l-4.06-20.81c-.81-4.11 1.83-8.38 5.86-9.52l51.77-14.55c4.02-1.13 6.66-5.42 5.86-9.52l-16.73-85.68c-.81-4.09-4.7-6.36-8.67-5.02l-350.26 118.28c-3.96 1.33-6.56 5.79-5.75 9.89zM1550.07 3468.4c3.81-1.75 5.5-6.28 3.76-10.09l-32.04-70.04c-1.75-3.81-6.28-5.49-10.08-3.75l-12.15 5.56c-3.81 1.74-10.11 4.41-14 5.94 0 0-13.27 5.22-17.58 4.59-4.29-.63-7.59-3.45-9.89-8.45-2.48-5.45-2.15-10.59.99-15.39 3.15-4.81 9.21-9.27 18.18-13.37 11.55-5.29 20.98-7.67 28.29-7.12 7.25.37 18.25 5.66 33 15.86 42.42 29.14 73.68 45.43 93.78 48.88 20.11 3.44 47.2-2.62 81.27-18.21 24.78-11.33 41.7-22.6 50.78-33.78 9.09-11.19 13.79-26.92 14.11-47.22.33-20.28-4.56-41.48-14.67-63.58-11.11-24.26-25.16-42.88-42.17-55.84-17.02-12.96-33.83-18.86-50.44-17.69-16.61 1.18-37.95 7.75-64.02 19.67l-15.85 7.25c-3.81 1.75-5.5 6.28-3.76 10.08l32.05 70.05c1.74 3.8 6.27 5.49 10.08 3.75l28.58-13.08c3.8-1.74 10.1-4.41 14-5.94 0 0 14.92-5.85 19.75-5.16 4.83.67 8.62 4.07 11.4 10.14 2.79 6.08 2.48 11.69-.9 16.82-3.38 5.14-9.74 9.85-19.1 14.13-20.53 9.4-35.24 12.78-44.1 10.18-8.9-2.78-25.82-12.05-50.77-27.84-25.08-15.74-42.65-25.71-52.72-29.92-10.06-4.21-22.12-5.99-36.21-5.34-14.06.64-30.34 5.19-48.81 13.65-26.64 12.17-44.55 24.48-53.75 36.92-9.21 12.42-13.81 27.81-13.81 46.16-.01 18.35 4.9 38.26 14.71 59.73 10.74 23.47 23.69 41.72 38.87 54.78s29.76 19.62 43.78 19.7c14 .08 34.87-6.22 62.58-18.89zM1600.79 3735.54c2.49 3.36 7.27 4.09 10.64 1.6l49.14-36.29c3.37-2.49 4.09-7.27 1.6-10.64l-26.82-36.32c-2.49-3.37-1.77-8.16 1.59-10.64l233.28-172.28c3.37-2.49 4.09-7.27 1.6-10.64l-49.74-67.36c-2.48-3.36-7.27-4.09-10.63-1.6l-233.29 172.29c-3.36 2.48-8.15 1.76-10.64-1.61l-25.83-34.97c-2.49-3.37-7.26-4.09-10.64-1.6l-49.13 36.29c-3.37 2.49-4.09 7.27-1.6 10.64zM1803.35 3793.65c-2.86 3.06-7.6 7.98-10.56 10.95 0 0-15.24 15.28-20.1 17.54-4.85 2.26-9.58 1.26-14.16-3.01-3.9-3.61-5.5-7.86-4.83-12.72.68-4.86 7.74-14.49 21.14-28.91l116.52-125.21c2.85-3.06 7.59-8.01 10.51-11 0 0 19.83-20.24 24.73-22.78 4.89-2.55 9.81-1.51 14.77 3.1 5.06 4.71 6.26 9.9 3.59 15.61-2.66 5.69-11.67 16.79-27.01 33.28zm147.69-13.48c2.86-3.07 7.49-8.1 10.29-11.21 0 0 38.93-42.99 48.48-55.92 9.56-12.93 15.36-27.48 17.39-43.63 2.04-16.16-.43-32.36-7.47-48.56-7.04-16.21-18.44-31.67-34.2-46.35-14.98-13.93-30.7-23.98-47.16-30.18-16.47-6.19-32.9-7.77-49.26-4.72-16.36 3.04-30.6 9.69-42.7 19.92s-31.55 29.75-58.37 58.57l-39.38 42.31c-2.84 3.06-7.48 8.1-10.29 11.21 0 0-38.9 42.98-48.48 55.91-9.55 12.93-15.35 27.47-17.39 43.62-2.04 16.17.46 32.36 7.48 48.58 7.04 16.21 18.43 31.66 34.21 46.35 14.96 13.92 30.69 23.98 47.15 30.18 16.48 6.18 32.89 7.75 49.26 4.71 16.36-3.05 30.61-9.68 42.7-19.91 12.12-10.25 31.56-29.76 58.37-58.57zM2077.01 4100.59c3.64 2.07 8.31.78 10.36-2.86l180.94-318.5c2.07-3.65.78-8.3-2.87-10.37l-61.86-35.16c-3.63-2.06-9.08-1.38-12.1 1.51l-119.88 114.62c-3.03 2.89-3.81 2.28-1.74-1.37l78.15-137.57c2.06-3.64.77-8.3-2.86-10.37l-58.95-33.48c-3.64-2.08-8.3-.79-10.37 2.85l-180.93 318.5c-2.07 3.64-.78 8.3 2.85 10.37l58.96 33.49c3.64 2.06 9.13 1.44 12.22-1.39l121.76-111.75c3.07-2.82 3.91-2.16 1.84 1.47l-77.33 136.15c-2.07 3.63-.79 8.3 2.86 10.37zM2581.99 4233.01c4.14.63 7.58-2.26 7.67-6.44l7.67-369.56c.09-4.19-3.22-8.13-7.36-8.76l-133.72-20.54c-4.15-.63-8.55 2.11-9.79 6.11L2336.5 4187.7c-1.23 4 1.13 7.78 5.27 8.42l88.55 13.6c4.15.64 8.4-2.15 9.45-6.2 0 0 47.6-181.44 63.93-253.03-6.06 73.96-10.44 139.6-13.12 196.89l-4.18 63.29c-.27 4.17 2.89 8.1 7.03 8.74zM2747.85 4228.92c4.17-.12 7.49-3.64 7.36-7.82l-10.55-366.15c-.11-4.19-3.64-7.51-7.81-7.4l-83.7 2.42c-4.17.12-7.49 3.64-7.37 7.83l10.54 366.15c.12 4.18 3.65 7.5 7.83 7.38zM2932.28 4204.77c4.12-.75 6.87-4.72 6.12-8.84l-51.82-285.35c-.74-4.11 2.01-8.09 6.12-8.83l44.44-8.07c4.11-.75 6.87-4.73 6.13-8.84l-10.92-60.12c-.74-4.11-4.73-6.87-8.85-6.11l-141.79 25.74c-4.11.76-6.85 4.73-6.11 8.85l65.45 360.4c.74 4.12 4.73 6.88 8.83 6.13zM3172.79 4138.83c3.92-1.44 5.96-5.84 4.52-9.76l-100.04-272.21c-1.44-3.93.6-8.32 4.52-9.76l42.39-15.58c3.93-1.45 5.96-5.84 4.52-9.77l-21.06-57.33c-1.45-3.94-5.83-5.96-9.76-4.52l-135.27 49.7c-3.92 1.44-5.96 5.83-4.51 9.76l126.34 343.83c1.42 3.93 5.83 5.96 9.75 4.52zM3313.22 3790.15c3.48-2.29 7.93-1.12 9.85 2.59 0 0 41.17 79.34 71.52 135.82-48.46-56.01-83.06-97.26-103.81-123.72zm177.58 176.4c3.48-2.29 4.93-7.28 3.18-11.07l-154.69-336.75c-1.74-3.8-6.03-5.03-9.53-2.74l-71.99 47.1c-3.5 2.3-4.73 7.18-2.72 10.84l25.84 47.15c2.01 3.67.78 8.54-2.71 10.83l-17.74 11.6c-3.49 2.3-8.45 1.46-11.02-1.84l-32.99-42.46c-2.58-3.3-7.53-4.13-11.03-1.83l-73.04 47.79c-3.51 2.29-4.13 6.76-1.41 9.92l241.61 279.83c2.73 3.16 7.84 3.88 11.34 1.59zM3736.43 3729.94c3.34 2.51 8.14 1.83 10.65-1.52l91.53-121.95c2.51-3.35 1.83-8.14-1.51-10.65l-48.85-36.68c-3.35-2.51-8.14-1.83-10.65 1.52l-32.14 42.82c-2.52 3.34-7.31 4.02-10.65 1.52l-45.53-34.16c-3.33-2.51-4.01-7.3-1.5-10.65l27.62-36.78c2.51-3.36 1.82-8.14-1.52-10.65l-46.18-34.67c-3.34-2.51-8.13-1.82-10.65 1.53l-27.61 36.77c-2.51 3.35-7.32 4.03-10.66 1.52l-115.91-87.01c-3.34-2.51-8.14-1.83-10.64 1.51l-50.25 66.96c-2.53 3.35-1.84 8.15 1.5 10.65zM3891.42 3073.14c-4.01-1.18-8.27 1.14-9.43 5.15l-23.58 80.36c-1.18 4.01 1.17 8.26 5.17 9.43l49.2 14.43c4 1.17 10.55 3.21 14.52 4.52 0 0 22.58 7.49 26.58 10.93 3.98 3.43 4.93 8.7 2.85 15.79-2.34 8.02-6.64 12.29-12.88 12.81q-9.33.78-37.2-7.41l-163.24-47.86c-4.01-1.18-10.54-3.22-14.51-4.54 0 0-21.96-7.31-26.78-11.07-4.8-3.76-6.1-9.41-3.86-16.97 2.12-7.25 6.25-11.2 12.4-11.82 6.13-.64 19.35 2.02 39.65 7.98l39.14 11.48c4.01 1.17 8.25-1.15 9.43-5.16l23.58-80.35c1.16-4.02-1.1-8.24-5.05-9.41-3.94-1.15-10.48-2.92-14.54-3.93 0 0-58.54-14.58-76.06-13.89-17.52.67-34.94 8.44-52.3 23.26-17.39 14.82-30 35.67-37.89 62.54-8.19 27.93-9.87 52.44-5.07 73.5q7.2 31.635 31.47 48.33c16.16 11.14 42.21 21.97 78.18 32.51l99.86 29.28c4 1.18 10.6 3.04 14.63 4.15 0 0 39.18 10.65 52.93 12.71 13.75 2.07 28.05.41 42.92-4.98 14.86-5.4 28.15-15.03 39.84-28.9 11.69-13.86 20.58-31.14 26.64-51.82 8.24-28.07 9.6-52.84 4.1-74.29-5.5-21.44-15.51-37.41-30.04-47.9-14.53-10.48-38.91-20.75-73.14-30.79z" style="fill:#fff;fill-opacity:1;fill-rule:nonzero;stroke:none" transform="matrix(.13333 0 0 -.13333 0 599.04)"></path><path d="M1341.86 2040h91.58l-44.76 79.9c-122.32 218.31-186.97 466.82-186.97 718.65 0 811.96 660.58 1472.53 1472.53 1472.53 811.98 0 1472.55-660.57 1472.55-1472.53 0-251.89-64.67-500.42-187.02-718.76l-44.77-79.9s1147.59.06 1245.61.07V183.859H183.949V2039.96c98.024 0 1157.911.04 1157.911.04m-247.48 798.55c0-239.96 55.01-477.01 159.24-691.22-151.7-.02-1176.999-.04-1176.999-.04V76.531H5267.93V2147.29s-1021.45-.05-1173.09-.07c104.25 214.24 159.28 451.33 159.28 691.33 0 871.14-708.72 1579.86-1579.88 1579.86-871.13 0-1579.86-708.72-1579.86-1579.86" style="fill:#fff;fill-opacity:1;fill-rule:nonzero;stroke:none" transform="matrix(.13333 0 0 -.13333 0 599.04)"></path><path d="M1830.51 2838.55c0 465.24 378.49 843.74 843.73 843.74s843.74-378.5 843.74-843.74-378.5-843.75-843.74-843.75-843.73 378.51-843.73 843.75m-107.33 0c0-524.43 426.64-951.08 951.06-951.08 524.43 0 951.08 426.65 951.08 951.08 0 524.42-426.65 951.07-951.08 951.07-524.42 0-951.06-426.65-951.06-951.07M3777.71 2930.22c0-24.08-19.52-43.6-43.6-43.6s-43.61 19.52-43.61 43.6c0 24.09 19.53 43.61 43.61 43.61s43.6-19.52 43.6-43.61M3653.61 3338.3c0-24.08-19.51-43.6-43.6-43.6-24.08 0-43.6 19.52-43.6 43.6s19.52 43.6 43.6 43.6c24.09 0 43.6-19.52 43.6-43.6" style="fill:#fff;fill-opacity:1;fill-rule:nonzero;stroke:none" transform="matrix(.13333 0 0 -.13333 0 599.04)"></path><path d="M2539.53 3317.62c-16.78-15.09-60.38-20.13-90.57-31.86-30.06-11.7-73.79-6.71-85.52 0-11.75 6.71-43.6 16.77-63.73 31.86-20.12 15.09-46.95 48.63-46.95 82.17s10.06 60.38 23.48 67.09c13.4 6.7 28.5-11.75 50.3-35.22 21.8-23.48 51.99-46.96 87.21-51.99 21-3 48.63 0 60.37 8.38 9.16 6.54 16.77 3.36 30.19-1.68 13.42-5.02 42.41-20.02 50.3-31.85 13.42-20.13 1.68-21.81-15.08-36.9" style="fill:#fff;fill-opacity:1;fill-rule:nonzero;stroke:none" transform="matrix(.13333 0 0 -.13333 0 599.04)"></path><path d="M2469.1 3398.12c8.38 3.35 25.14 15.09 55.34-1.68 30.17-16.77 50.3-30.19 62.04-41.92 11.74-11.74 0-23.48-15.09-38.58-15.1-15.09-46.95-30.18-60.37-36.89s-18.46-1.68-23.49-1.68c-5.02 0-8.38-13.41-10.05-30.19-1.68-16.76 5.03-60.36 36.88-57.01 31.88 3.35 57.03 15.09 80.51 35.21 23.47 20.13 46.94 28.51 43.6 16.77-3.36-11.73-13.42-36.89-43.6-60.37-30.19-23.48-73.8-25.15-78.82-55.34-5.03-30.18-13.42-68.76-26.84-95.59-13.41-26.83-38.56-36.89-55.34-50.31-16.77-13.41 10.07-26.83 43.61-28.51 33.54-1.67 57.01 11.75 68.76 20.13 11.72 8.38 18.44 6.71 28.5 0s3.35-10.07-20.13-18.45c-23.46-8.39-45.28-20.12-73.78-21.8-28.51-1.68-62.05-11.74-90.56-15.09-28.52-3.36-50.31-26.84-60.37-26.84s-51.99 15.1-67.08 25.16-45.29 43.6-82.17 40.25c-36.9-3.36-53.67-28.51-50.32-57.02l3.36-28.51s-38.58 0-57.02-28.51-31.86-65.4-20.12-93.91 30.18-60.37 48.63-65.41c18.45-5.02 28.51 8.39 35.22 23.49 6.7 15.09 15.09 23.47 31.86-5.03 16.77-28.51 43.59-48.64 78.82-33.54 35.22 15.08 57.02 40.24 63.73 51.98s11.73 23.48 25.15 13.42c13.41-10.07 31.86-38.57 48.63-35.22 16.78 3.36 78.82 41.93 119.07 58.7s77.52 39.68 120.74 21.79c48.64-20.12 69.25-34.9 135.84-72.1 57.02-31.87 51.53-68.72 50.31-83.85-3.35-41.93-23.48-70.44-30.19-119.07-7.57-54.92-8.47-97.87 31.87-127.45 25.15-18.44 46.96-36.89 70.43-40.25 23.48-3.35 48.63-28.5 48.63-43.59 0-15.1-20.12-48.64-38.57-48.64-18.44 0-33.53 20.13-48.63 40.25s-65.4 51.98-107.32 31.86c-41.93-20.12-38.09-43.86-33.54-62.05 5.03-20.13 25.14-19 22.91-41.38-2.22-22.34-23.47-25.73-35.77-44.72-12.3-19-20.14-52.54 5.58-61.48 25.72-8.96 46.97-3.38 64.86 4.46 17.88 7.83 35.76 6.71 44.71-11.16 8.95-17.9 23.46-39.15 41.36-39.15 17.89 0 54.78 8.96 57.02 27.96s16.76 39.12 40.25 59.24c23.48 20.13 106.2 72.66 110.67 97.27 4.5 24.61-10.05 59.27-39.12 96.17-29.06 36.89-46.95 57.02-43.59 92.78 3.36 35.77 14.53 48.74 31.96 59.48 17.44 10.72 20.15 24.14 38.92 24.14 18.78 0 76.46 13.44 100.61 38.92s46.95 61.7 48.29 144.88c1.35 83.18 0 123.43 10.74 161 10.74 37.56 22.81 26.83 29.52 42.93s.01 67.08-41.58 67.08c-41.61 0-53.68-22.81-53.68-48.3 0-25.48 1.34-59.03 1.34-77.81s-10.74-5.37-22.8 22.8c-12.07 28.18-29.51 115.39-29.51 162.34 0 46.96 4.02 95.25 28.17 105.98 24.14 10.74 45.62 12.08 65.74-8.04s40.25-53.67 73.79-50.98c33.54 2.68 33.54 22.81 21.46 44.27-12.07 21.46-18.79 37.56-5.37 29.52 13.41-8.06 30.86-38.92 46.96-33.54 16.09 5.36 38.91 36.21 8.06 65.73-30.86 29.52-76.5 85.87-169.05 85.87-76.46 0-146.24-63.06-154.29-158.31-7.81-92.25 25.48-197.23 46.95-266.98 21.47-69.76 60.38-150.26 36.23-182.45-24.14-32.21-59.04-21.46-83.18 6.71-24.14 28.16-63.05 84.5-73.78 115.36-10.75 30.86-40.25 100.63-56.34 127.45-16.11 26.84-18.78 60.38-26.84 71.11s-22.82 45.62-10.74 50.98c12.08 5.37 25.5-6.71 38.92-2.68 13.4 4.03 33.52 9.39 34.87 53.66 1.35 44.28 1.34 69.76-10.73 79.16-12.06 9.39-16.11 18.77-4.03 14.75s22.83-10.73 32.21-1.34c9.39 9.4 2.68 22.81-5.37 44.28-8.05 21.46-17.45 34.88-12.08 45.61s13.43-21.46 28.17-24.15c14.76-2.68 28.17 13.42 18.78 40.25-9.38 26.84-30.86 85.86-68.42 119.4-37.55 33.54-45.6 57.68-55 96.59-9.39 38.92-17.44 46.97-42.93 55.01-25.49 8.06-29.52 4.03-38.9-9.38-9.41-13.42-20.55-7.3-61.72 9.38-49.65 20.13-61.72 17.44-97.94 12.08-36.22-5.37-42.92-20.12-42.92-33.54s-4.57-23.67-8.07-28.17c-9.38-12.08-30.85-20.13-55-26.83-24.14-6.71-41.59-12.08-36.22-45.63 3.56-22.19 17.79-33.19 17.79-33.19" style="fill:#fff;fill-opacity:1;fill-rule:nonzero;stroke:none" transform="matrix(.13333 0 0 -.13333 0 599.04)" data-source="https://football-logos.cc"></path><path d="M2596.2 3471.56c-3.21-2.4 5.37-6.7 18.8-17.44 8.44-6.75 10.73-18.78 29.51-18.78 18.77 0 26.84 6.7 36.22 10.74 9.38 4.02 12.09 14.75-9.39 20.12-21.47 5.36-30.86 21.46-45.61 20.13-12.02-1.1-18.79-6.71-29.53-14.77" style="fill:#c11b7e;fill-opacity:1;fill-rule:nonzero;stroke:none" transform="matrix(.13333 0 0 -.13333 0 599.04)"></path><path d="M2380.21 3184.46c-40.25 13.42-85.86 36.23-105.99 52.32-20.12 16.1-33.53 48.31-59.03 65.75-25.49 17.44-68.42 10.73-93.92-8.05-25.48-18.78-13.4-72.45-13.4-72.45s-30.85 10.73-64.4-5.37c-33.54-16.1-36.22-49.64-29.51-79.15 6.7-29.52 64.39-36.22 64.39-36.22l-10.74-6.71c-10.72-6.71-33.53-33.54-32.19-56.35s21.47-42.93 67.08-46.96c45.61-4.02 80.49 9.4 112.69 33.54 32.21 24.15 30.86 21.47 53.67 0s49.64-24.14 64.4-13.41c14.74 10.73 18.79 5.36 32.2-5.37s26.83-20.12 40.25-14.76c13.41 5.37 28.16 16.11 53.65 41.59 25.5 25.5 30.86 84.44 30.86 95.26 0 16.1-69.76 42.92-110.01 56.34M2345.33 2379.5c9.38-18.76 1.34-41.58-9.39-53.66-10.74-12.05-14.75-34.88-10.74-50.99 4.02-16.09 29.52-45.59 53.66-52.3s36.23 12.05 45.62 20.12c9.38 8.05 26.83 0 45.62-18.79 18.79-18.78 30.85-38.91 49.63-38.91 18.79 0 37.58 0 49.64 17.45 12.08 17.43 29.52 28.17 52.32 45.6 22.82 17.45 69.77 57.7 83.19 76.48 13.42 18.76-1.36 89.88-4.03 139.53-2.66 49.63 20.13 77.8 41.59 97.94 21.46 20.11 26.83 45.61 26.83 61.71 0 28.46-26.83 44.26-46.96 59.03-20.12 14.75-52.31 30.85-75.12 40.25-22.81 9.39-38.04-4.54-56.35-24.15-18.78-20.13-52.32-63.06-56.35-104.65-4.91-50.76 8.06-87.21 34.88-123.42 26.83-36.24 38.91-53.66 25.5-69.78-13.42-16.08-49.64-14.75-72.45-1.33-22.82 13.41-41.59 33.54-46.96 49.63-5.36 16.11-55 49.65-72.44 48.31-17.45-1.36-56.18-17.94-69.76-49.65-12.07-28.17 2.68-49.63 12.07-68.42" style="fill:#fff;fill-opacity:1;fill-rule:nonzero;stroke:none" transform="matrix(.13333 0 0 -.13333 0 599.04)"></path><path d="M2368.22 1344.74c59.89 190.55-119.77 190.55-119.77 190.55-250.45 10.88-424.67-108.89-424.67-108.89-114.33 228.67-521.3 25.19-521.3 25.19-3.75-1.87-6.11-.04-5.26 4.04l10.5 50.46c.85 4.08-1.87 7.44-6.05 7.44H720.719c-4.188 0-9.211-3.03-11.184-6.71l-82.68-155.37c-1.968-3.68-.152-6.71 4.028-6.71h148.125c4.183 0 6.273-3.16 4.652-7.01L405.738 441.648c-1.629-3.847.469-7 4.649-7H851.25c4.184 0 8.945 3.153 10.574 7l359.396 849.082c12.29 29.09 45.81 42.73 74.92 30.45 29.07-12.27 42.71-45.81 30.41-74.91L986.188 441.648c-1.622-3.847.46-7 4.648-7h422.444c4.19 0 8.94 3.153 10.56 7l358.17 849.082c12.28 29.09 45.81 42.73 74.89 30.45 29.09-12.27 42.72-45.81 30.44-74.91l-311.3-737.25c-31.4-87.161 93.16-75.122 93.16-75.122 4.17.411 11 .75 15.18.75h447.57c4.19 0 9 3.133 10.71 6.942l64.57 144.871c1.71 3.82-.32 6.949-4.5 6.949h-106.72c-50.36-5.41-19.85 53.149-19.85 53.149 1.92 3.711 4.82 9.902 6.43 13.773zM2806.59 441.711c-1.56-3.891-6.24-7.063-10.43-7.063h-433.38c-81.67 5.422-103.45 49.872-103.45 49.872-48.99 54.472 12.94 178.289 12.94 178.289 1.87 3.75 4.74 9.972 6.35 13.82l282.65 672.001c1.63 3.86-.47 7.01-4.66 7.01h-110c-4.18 0-6.12 3.08-4.3 6.86l69.6 144.18c1.83 3.77 6.73 6.85 10.92 6.85h572.79c4.19 0 6.26-3.15 4.61-7l-353.35-824.44c-1.65-3.852-4.54-10.051-6.42-13.789 0 0-36.71-72.832 30.66-69.422h90.39c4.19 0 6.35-3.18 4.79-7.059zM3307.69 1520.51c-1.66-3.84-6.44-6.98-10.63-6.98h-99.12c-4.19 0-9.1-3.08-10.91-6.85l-69.62-144.18c-1.81-3.78.11-6.86 4.3-6.86h110c4.2 0 6.29-3.15 4.67-7.01l-282.66-672.001c-1.63-3.848-4.49-10.07-6.36-13.82 0 0-61.9-123.817-12.93-178.289 0 0 21.8-44.45 103.47-49.872h433.39c4.19 0 8.88 3.172 10.42 7.063l59.7 150.109c1.55 3.879-.59 7.059-4.79 7.059h-90.39c-74.54-2.438-31.14 69.711-31.14 69.711 2.14 3.57 5.26 9.648 6.89 13.5l282.81 664.12c1.63 3.85 6.4 6.99 10.59 6.99h147.88c4.19 0 8.9 3.17 10.48 7.06l59.61 146.22c1.57 3.88-.56 7.05-4.74 7.05h-142.67c-4.2 0-6.37 3.19-4.88 7.1l157.87 410.46c1.49 3.9-.58 6.22-4.63 5.15L3437.23 1804c-4.04-1.07-8.71-5.09-10.38-8.93z" style="fill:#fff;fill-opacity:1;fill-rule:evenodd;stroke:none" transform="matrix(.13333 0 0 -.13333 0 599.04)"></path><path d="M4845.42 1513.53c152.47-16.35 68.83-178.38 68.83-178.38-1.91-3.72-4.78-9.93-6.36-13.81L4633.1 647.879c-27.21-43.578 8.97-52.629 8.97-52.629 4.05-1.02 10.79-1.84 14.98-1.84h120.9c4.19 0 6.32-3.168 4.72-7.039l-59.55-144.691c-1.6-3.871-6.31-7.032-10.51-7.032h-972.38c-179.68 48.993-136.12 251.332-136.12 251.332 76.22 315.75 272.2 419.23 272.2 419.23 196.03 136.08 542.32 109.46 542.32 109.46 4.18-.31 8.93 2.56 10.58 6.42l29.67 69.22c27.23 76.19-74.14 61.01-74.14 61.01-4.13-.61-10.93-1.13-15.13-1.13h-404c-4.19 0-6.24 3.14-4.58 6.99l64.74 149.37c1.67 3.83 6.43 6.98 10.63 6.98z" style="fill:#fff;fill-opacity:1;fill-rule:evenodd;stroke:none" transform="matrix(.13333 0 0 -.13333 0 599.04)"></path><path d="M4206.39 993.559c-110.24-185.739-123.16-323.938-123.16-323.938-6.83-52.383 14.27-67.359 14.27-67.359 55.13-25.172 69.96 11.32 69.96 11.32 1.58 3.879 4.11 10.238 5.63 14.137l171.48 439.341c-98-4.04-138.18-73.501-138.18-73.501" style="fill:#c11b7e;fill-opacity:1;fill-rule:nonzero;stroke:none" transform="matrix(.13333 0 0 -.13333 0 599.04)" data-source="https://football-logos.cc"></path><!-- source: https://football-logos.cc --></svg>