<svg xmlns="http://www.w3.org/2000/svg" viewBox="43.96 199.48 697.42 768.58"><!-- Source: https://football-logos.cc --><path d="M291.229 687.068c-4.099-5.118-26.407-30.646-63.271-30.646-35.25 0-49.472 18.118-52.99 23.672l-3.019 4.764-92.86-81.253 3.22-3.637c4.049-4.58 24.25-28.907 24.25-58.302 0-30.396-10.029-49.71-19.727-68.388l-5.843-11.489c-5.462-11.21-8.573-26.407-8.573-41.768 0-18.481 4.4-45.586 25.364-69.775 16.235-18.733 39.398-28.162 57.763-34.284l8.115-2.67c17.75-5.802 36.094-11.8 63.216-26.088 33.119-17.45 60.05-38.475 65.113-42.511L295 242.29l3.013 2.402c5.063 4.036 31.995 25.06 65.114 42.51 27.121 14.29 45.466 20.287 63.207 26.088l8.105 2.667c18.383 6.126 41.546 15.555 57.781 34.288 20.963 24.189 25.363 51.294 25.363 69.775 0 15.36-3.11 30.558-8.537 41.694l-5.859 11.525c-9.717 18.716-19.746 38.03-19.746 68.426 0 29.395 20.201 53.723 24.25 58.302l3.219 3.638-92.858 81.25-3.02-4.762c-3.518-5.554-17.74-23.672-52.99-23.672-36.864 0-59.172 25.528-63.27 30.646l-3.772 4.71Z" style="fill:#231f20;fill-opacity:1;fill-rule:nonzero;stroke:none" transform="matrix(1.33333 0 0 -1.33333 -.667 1121.853)" data-source="https://football-logos.cc"></path><path d="M458.454 314c-6.493-6.467-30.382-29.12-65.61-49.442-32.482-18.74-67.231-29.06-97.844-29.06s-65.362 10.32-97.845 29.06c-35.227 20.322-59.116 42.975-65.599 49.433-2.062 2.044-5.843 3.077-9.743-.706-5.826-5.65-26.108-25.282-42.444-40.681l-6.48-5.964c-4.806-4.393-10.253-9.373-12.208-11.377-4.084-4.185-6.35-10.011-6.35-16.196q0-.867.06-1.742c.327-4.778 1.877-12.207 10.34-22.759-5.24-6.386-20.71-25.253-23.018-28.283-4.043-5.306-5.875-8.07-6.76-10.196q-1.485-3.57-1.485-7.245c0-7.174 4.24-14.63 12.68-22.251 10.738-9.7 31.832-25.51 38.041-30.124.007 0 4.21-1.102 4.223-1.106 0 .048 3.363 2.207 3.363 2.207 2.17 3.102 6.386 9.298 10.27 16.004 3.7 6.392 6.676 12.946 8.52 17.318l.299.773 1.798-.428c10.687-1.971 18.05-.646 21.996 3.918 1.285 1.486 13.889 17.546 19.62 24.856 9.446-5.632 18.873-10.66 28.074-14.895C220.178 147.7 255.972 139.59 295 139.59s74.822 8.111 112.648 25.525c9.201 4.236 18.628 9.263 28.073 14.895 5.732-7.31 18.336-23.37 19.622-24.857 3.944-4.563 11.308-5.888 21.887-3.938.04.007.872.204 1.906.45.08-.21.298-.77.298-.77 1.845-4.376 4.821-10.93 8.521-17.321 3.884-6.707 8.1-12.903 10.266-15.999.004-.006 3.458-2.222 3.468-2.23 0 .045 4.125 1.125 4.125 1.125 6.206 4.611 27.299 20.421 38.038 30.122 8.44 7.623 12.68 15.077 12.68 22.251q.001 3.675-1.484 7.244c-.886 2.127-2.718 4.89-6.76 10.197-2.328 3.053-17.975 22.136-22.715 27.912l-.302.374c8.462 10.55 10.01 17.976 10.339 22.756q.06.875.06 1.742c0 6.185-2.267 12.01-6.352 16.196-1.954 2.004-7.401 6.984-12.207 11.377l-6.48 5.964c-16.335 15.399-36.618 35.032-42.445 40.682-3.899 3.782-7.68 2.749-9.732.714" style="fill:#231f20;fill-opacity:1;fill-rule:nonzero;stroke:none" transform="matrix(1.33333 0 0 -1.33333 -.667 1121.853)"></path><path d="M295 155.293c36.68 0 70.387 7.653 106.081 24.084 56.918 26.205 100.923 72.356 101.36 72.82l.11.113a24 24 0 0 0 3.561 3.037s-2.853 2.757-4.328 4.129c-13.098 12.189-28.519 27.049-38.565 36.761-.194.03-.529.007-.683-.05-10.457-9.616-32.314-28.196-61.843-45.232C365.86 230.86 328.325 219.793 295 219.793s-70.86 11.067-105.693 31.162c-29.53 17.036-51.388 35.616-61.843 45.232-.155.057-.49.08-.683.05-10.046-9.712-25.468-24.572-38.566-36.761-1.474-1.372-4.328-4.129-4.328-4.129a24 24 0 0 0 3.563-3.037l.108-.114c.438-.463 44.442-46.614 101.36-72.819 35.695-16.43 69.403-24.084 106.082-24.084" style="fill:#8ebde8;fill-opacity:1;fill-rule:nonzero;stroke:none" transform="matrix(1.33333 0 0 -1.33333 -.667 1121.853)"></path><path d="M295 684.048c4.834-6.038 28.21-32.458 67.042-32.458 38.108 0 53.621 20.472 57.072 25.917l84.958-74.339c-4.375-4.946-25.462-30.403-25.462-61.502 0-31.577 10.305-51.423 20.271-70.617l5.822-11.45c4.543-9.325 8.048-23.521 8.048-39.578 0-21.269-6.148-45.802-24.183-66.61-15.465-17.846-37.858-26.938-55.639-32.864l-8.096-2.664c-17.932-5.862-36.476-11.925-63.958-26.404-33.683-17.747-61.216-39.293-65.875-43.009-4.66 3.716-32.193 25.262-65.875 43.009-27.482 14.479-46.025 20.541-63.958 26.403l-8.096 2.665c-17.781 5.926-40.174 15.018-55.64 32.864-18.034 20.808-24.182 45.341-24.182 66.61 0 16.057 3.505 30.253 8.048 39.578l5.822 11.45c9.966 19.194 20.271 39.04 20.271 70.617 0 31.099-21.087 56.556-25.462 61.502 1.78 1.56 82.85 72.494 84.958 74.34 3.45-5.446 18.964-25.918 57.072-25.918 38.832 0 62.208 26.42 67.042 32.458m-.794-21.523c-13.284-11.601-35.56-25.431-66.248-25.431-29.098 0-47.351 10.528-57.54 19.36l-.794.688-63.92-55.932.592-.882c8.937-13.304 19.59-34.28 19.59-58.662 0-35.116-11.636-57.525-21.903-77.296l-5.646-11.101c-4.305-8.838-6.77-20.963-6.77-33.284 0-15.082 3.612-37.226 20.818-57.08 13.084-15.098 32.249-22.933 49.27-28.607l8.015-2.636c18.509-6.052 37.644-12.308 66.212-27.36 24.299-12.801 45.169-27.196 58.398-37.017l.72-.535.72.535c13.23 9.821 34.1 24.216 58.4 37.017 28.56 15.051 47.695 21.305 66.2 27.355l8.017 2.638c17.03 5.677 36.195 13.513 49.277 28.61 17.207 19.854 20.82 41.998 20.82 57.08 0 12.32-2.466 24.446-6.763 33.266l-5.65 11.11c-10.27 19.78-21.907 42.189-21.907 77.305 0 24.381 10.654 45.358 19.59 58.662l.593.882-63.922 55.932-.795-.69c-10.186-8.83-28.439-19.358-57.538-19.358-30.688 0-52.964 13.83-66.248 25.431l-.794.694Z" style="fill:#9f8c42;fill-opacity:1;fill-rule:nonzero;stroke:none" transform="matrix(1.33333 0 0 -1.33333 -.667 1121.853)"></path><path d="M85.47 131.144c-3.004 2.397-9.917 7.832-22.477 17.29-13.604 10.242-17.145 16.362-17.384 20.532-.128 2.233.247 3.187 1.533 4.498 2.542 2.595 15.113 2.072 36.31-8.949 5.146-2.674 10.527-5.064 15.8-6.998-5.207-13.353-11.443-23.435-13.407-26.459l-.1-.121c-.012.026-.105.071-.276.207M131.094 173.604c-3.247 4.218-8.409 9.01-15.744 14.683-25.275 19.55-41.98 36.192-44.687 44.515-2.21 6.798-1.35 11.404 1.045 12.466 1.71.759 3.92.142 6.2-2.206.337-.356 26.834-28.204 65.655-53.546zM56.658 184.894c3.58-.367 7.55-1.32 11.855-2.868 6.369-2.289 13.811-5.609 21.007-8.818 7.335-3.272 14.263-6.363 19.017-7.88 7.294-2.328 12.358-2.39 14.142-1.42.238.13.4.275.43.386.397 1.455-1.238 2.941-6.465 7.423l-6.968 5.641c-7.332 5.83-18.411 14.64-31.311 26.393a143 143 0 0 0-3.516 3.31zM504.255 130.937l-.1.121c-1.964 3.024-8.2 13.106-13.408 26.459 5.273 1.934 10.655 4.324 15.8 6.998 21.198 11.021 33.768 11.544 36.311 8.949 1.285-1.311 1.662-2.265 1.533-4.498-.239-4.17-3.781-10.29-17.385-20.532-12.56-9.458-19.472-14.893-22.476-17.29-.17-.136-.263-.18-.275-.207M446.436 189.516c38.822 25.342 65.319 53.19 65.655 53.546 2.281 2.348 4.492 2.965 6.201 2.206 2.395-1.062 3.256-5.668 1.044-12.466-2.706-8.323-19.411-24.964-44.686-44.515-7.335-5.674-12.498-10.465-15.745-14.683zM533.34 184.894c-3.578-.367-7.549-1.32-11.853-2.868-6.37-2.289-13.811-5.609-21.008-8.818-7.334-3.272-14.263-6.363-19.016-7.88-7.294-2.328-12.358-2.39-14.143-1.42-.237.13-.4.275-.43.386-.396 1.455 1.239 2.941 6.466 7.423l6.968 5.641c7.332 5.83 18.41 14.64 31.311 26.393a142 142 0 0 1 3.515 3.31z" style="fill:#8ebde8;fill-opacity:1;fill-rule:nonzero;stroke:none" transform="matrix(1.33333 0 0 -1.33333 -.667 1121.853)"></path><path d="M70.924 214.655c-9.664 10.933-11.383 18.191-11.713 23-.379 5.53 1.503 10.722 4.928 14.233 2.93 3.002 14.774 13.645 18.545 17.2 15.912 15 35.34 33.793 42.494 40.73 1.885 1.828 2.698 1.016 2.968.749 6.59-6.565 30.87-29.584 66.595-50.194 33.204-19.157 68.81-29.708 100.259-29.708s67.055 10.55 100.26 29.708c35.725 20.61 60.005 43.63 66.594 50.194.27.267 1.083 1.079 2.968-.75 7.154-6.936 26.582-25.73 42.494-40.73 3.77-3.554 15.616-14.197 18.545-17.199 3.426-3.51 5.307-8.702 4.928-14.232-.33-4.818-2.056-12.092-11.762-23.056 0 0 2-2.483 2.811-3.47 4.632-5.643 20.347-24.812 22.606-27.776 3.623-4.756 5.45-7.456 6.143-9.124 3.048-7.324-.164-15.193-9.974-24.053-10.604-9.579-31.526-25.256-37.685-29.833-.267-.198-.442-.236-.502-.224-.047.007-.138.07-.247.224-2.122 3.034-6.249 9.1-10.042 15.65-3.515 6.072-6.366 12.307-8.25 16.775-.327.775-1.764 4.57-1.764 4.57a109 109 0 0 0-5.769-1.374c-8.346-1.538-14.614-.824-17.356 2.348-1.542 1.784-22.095 28.021-22.095 28.021-9.82-6.028-20.31-11.783-31.276-16.831C368.458 152.39 333.306 144.42 295 144.42s-73.458 7.97-110.627 25.082c-10.965 5.048-21.456 10.803-31.276 16.831 0 0-20.552-26.237-22.095-28.022-2.742-3.171-9.01-3.885-17.356-2.347-2.007.418-3.964.893-5.769 1.374 0 0-1.437-3.795-1.763-4.57-1.885-4.468-4.735-10.703-8.25-16.775-3.794-6.55-7.921-12.616-10.043-15.65-.109-.154-.2-.218-.247-.224-.06-.012-.235.026-.502.224-6.16 4.577-27.082 20.254-37.685 29.833-9.81 8.86-13.023 16.73-9.974 24.053.694 1.668 2.52 4.368 6.143 9.124 2.384 3.128 19.746 24.292 23.266 28.58.4.488 2.102 2.721 2.102 2.721M295 152.877c37.04 0 71.07 7.723 107.09 24.307 57.339 26.397 101.667 72.886 102.108 73.353l.095.1c2.021 2.08 4.106 3.481 6.157 4.35l.245.089c-4.455 3.829-8.747 7.446-9.632 8.282-12.444 11.737-26.907 25.665-36.316 34.763-.85.82-2.965.656-3.755-.073-10.348-9.524-32.097-28.034-61.506-45-34.471-19.886-71.579-30.839-104.486-30.839s-70.015 10.953-104.486 30.839c-29.409 16.966-51.159 35.476-61.506 45-.79.729-2.905.893-3.755.073-9.41-9.098-23.872-23.026-36.316-34.763-.886-.836-5.178-4.453-9.632-8.282l.245-.089c2.05-.869 4.136-2.27 6.157-4.35l.095-.1c.44-.467 44.768-46.956 102.107-73.353C223.93 160.6 257.959 152.877 295 152.877m164.037 16.66c2.745 4.575 8.339 10.068 17.09 16.838 12.314 9.526 41.398 33.044 45.507 45.678 1.152 3.54 1.923 6.978 1.387 9.6-1.377 6.73-5.103 6.83-7.584 6.264-1.675-.381-3.424-1.47-5.09-3.185-.35-.37-27.682-29.091-67.44-54.625zm56.344 41.161a134 134 0 0 0-5.372-5.16c-12.841-11.7-23.882-20.48-31.19-26.289l-7.036-5.699c-5.85-5.016-8.041-6.893-7.224-9.89.146-.537.544-1.297 1.608-1.876 2.812-1.528 8.805-1.062 16.031 1.243 4.88 1.557 11.867 4.674 19.265 7.974 7.157 3.192 14.557 6.493 20.84 8.75 6.162 2.215 11.541 3.156 15.952 2.845l-20.318 24.995zM72.144 207.69l-20.4-25.093c4.411.311 9.79-.63 15.952-2.845 6.284-2.257 13.684-5.558 20.84-8.75 7.398-3.3 14.385-6.417 19.266-7.974 7.226-2.305 13.219-2.77 16.031-1.243 1.064.58 1.462 1.339 1.608 1.876.817 2.997-1.373 4.874-7.224 9.89l-7.037 5.699c-7.307 5.81-18.348 14.59-31.188 26.289a134 134 0 0 0-5.371 5.158zm417.04-52.797c4.935-12.233 10.51-21.4 12.946-25.15.555-.857 1.231-1.126 1.7-1.201.724-.117 1.467.124 2.208.716 2.993 2.388 9.886 7.806 22.421 17.246 16.874 12.706 21.95 21.752 16.363 28.242-4.265 4.957-19.998 1.996-39.39-8.085-5.358-2.787-10.592-5.096-15.515-6.898-.59-.221-1.431-.469-2.304-.756 0 0 1.328-3.513 1.572-4.114m-342.093 35.215c-39.756 25.534-67.089 54.255-67.438 54.625-1.667 1.716-3.416 2.804-5.09 3.185-2.482.567-6.207.465-7.584-6.265-.537-2.62.234-6.058 1.386-9.599 4.109-12.634 33.193-36.152 45.506-45.678 8.753-6.77 14.346-12.263 17.09-16.837zm-44.705-31.101c-.873.287-1.714.535-2.305.756-4.922 1.802-10.156 4.11-15.515 6.898-19.39 10.081-35.124 13.042-39.39 8.085-5.585-6.49-.51-15.536 16.363-28.242 12.536-9.44 19.43-14.858 22.422-17.246.741-.592 1.484-.833 2.209-.716.468.075 1.144.344 1.7 1.2 2.435 3.75 8.01 12.918 12.944 25.15.244.602 1.572 4.115 1.572 4.115" style="fill:#9f8c42;fill-opacity:1;fill-rule:nonzero;stroke:none" transform="matrix(1.33333 0 0 -1.33333 -.667 1121.853)" data-source="https://football-logos.cc"></path><path d="M184.131 233.834 168.15 204.43l8.6-4.675 6.128 11.27 1.698-.922c6.14-3.337 12.281-1.496 15.644 4.69 1.714 3.153 2.194 6.256 1.39 8.976-.775 2.62-2.648 4.752-5.567 6.34l-10.757 5.847zm5.662-10.084.666-.362c1.228-.667 1.793-1.232 1.793-2.04 0-.52-.234-1.142-.676-1.954-.361-.667-.952-1.508-1.715-1.733-.663-.197-1.412.091-1.918.37l-.972.528zM223.328 182.498c-.079.865-.151 1.26.113 2.34l2.067 5.869q.766 2.265.766 4.13c0 1.034-.24 1.94-.593 2.788 2.16 1.074 3.99 3.088 5.122 6.04.615 1.602.916 3.13.916 4.553 0 3.988-2.359 7.157-6.79 8.857l-12.49 4.788-.864-2.256-11.982-31.247 9.14-3.505 4.828 12.587 1.52-.583c1.019-.39 1.516-.58 1.516-1.304 0-.398-.15-.957-.45-1.8l-1.947-5.713c-.224-.845-.422-1.762-.422-2.671 0-.553.073-1.103.258-1.633l.37-1.057 9.663-3.705s-.59 1.861-.741 3.522m-4.816 27.856 1.683-.645c.991-.38 1.58-.736 1.58-1.634 0-.412-.124-.94-.392-1.637-.66-1.72-1.651-2.182-3.314-1.544l-1.44.552zM242.053 208.676l-7.241-32.672 21.445-4.753 1.949 8.794-11.889 2.635 1.1 4.963 10.87-2.41 1.948 8.794-10.868 2.408.818 3.69 11.548-2.561 1.948 8.794-21.106 4.677zM271.36 202.903l-2.07-33.4 9.77-.606.794 12.803 1.929-.118c6.975-.433 11.763 3.83 12.199 10.857.443 7.163-3.39 11.694-10.253 12.12l-12.22.755zm9.39-6.75.757-.047c2.068-.128 2.723-.668 2.723-2.508q0-.297-.023-.641c-.047-.757-.228-1.768-.823-2.293-.519-.459-1.317-.513-1.895-.478l-1.104.07zM314.943 205.196l-8.147-.658-7.281-36.587 10.203.824 1.382 7.746c1.735.141 3.575.29 5.324.43.7-2.06 2.52-7.431 2.52-7.431l10.16.82-12.304 35.005zm-2.428-12.53c.378-1.18 2.011-6.702 2.265-7.499l-3.12-.252c.131.832.661 6.524.855 7.752M362.948 180.989c-.61.558-1.158 1.207-1.45 2.204l-1.45 5.17-.224.824c-.814 2.78-2.122 4.61-3.806 5.696.725 1.316 1.145 2.852 1.145 4.585a14 14 0 0 1-.436 3.368c-1.582 6.329-6.258 9.174-12.507 7.612l-12.976-3.244 8.703-34.81 9.497 2.374-3.27 13.08 1.58.393c1.64.41 1.982.495 2.655-1.93l.602-2.167 1.081-3.63c.483-1.319 1.13-2.752 2.335-3.618l.909-.655 10.165 2.542s-1.346 1.097-2.553 2.206m-18.38 20.71c1.505.377 2.277.302 2.85-1.996q.15-.59.15-1.062c0-1.118-.63-1.767-1.977-2.104l-1.495-.374-1.276 5.1zM379.768 222.97l-17.78-7.254 13.558-33.222 20.338 8.298-3.403 8.34-11.274-4.6-1.92 4.706 10.306 4.205-3.402 8.34-10.307-4.206-1.427 3.498 10.951 4.47-3.404 8.339zM399.066 232.928l-9.77-5.566 17.759-31.177 9.77 5.564c3.658 2.084 5.837 4.553 6.658 7.551 1.33 4.847-1.325 10.108-3.916 14.658s-5.762 9.516-10.61 10.846c-2.998.821-6.233.208-9.891-1.876m4.432-7.34c1.371.78 2.927 1.666 7.563-6.475 2.336-4.101 3.083-6.37 3.083-7.708 0-1.318-.726-1.732-1.373-2.1l-1.452-.827-9.275 16.281z" style="fill:#231f20;fill-opacity:1;fill-rule:nonzero;stroke:none" transform="matrix(1.33333 0 0 -1.33333 -.667 1121.853)"></path><path d="m186.254 232.68 8.635-4.694c5.235-2.845 5.74-7.377 3.207-12.038-2.658-4.89-7.248-6.504-12.367-3.721l-3.82 2.076-6.128-11.27-4.355 2.367zm-2.56-15.09 3.096-1.683c2.33-1.267 5.04-1.106 6.91 2.332 1.597 2.942 1.39 5.382-2.087 7.272l-2.79 1.515zM213.831 218.742l10.232-3.923c4.06-1.557 6.571-4.848 4.485-10.29-1.433-3.735-4.202-5.98-7.557-5.252l-.03-.082c2.773-1.39 3.668-3.549 2.274-7.672-.676-1.883-1.507-4.172-2.095-5.95-.465-1.452-.038-2.406.415-3.046l-5.238 2.008c-.244.699-.105 1.671.21 2.855.506 1.807 1.17 3.416 1.898 5.558 1.133 3.199.688 4.953-2.479 6.167l-3.777 1.448-4.825-12.586-4.63 1.774zm3.373-16.103c2.964-1.137 5.314.011 6.435 2.934 1.183 3.087.465 5.224-2.58 6.393l-3.938 1.51-3.612-9.42zM244.412 208.154l16.388-3.632-.904-4.076-11.547 2.56-1.864-8.407 10.869-2.409-.903-4.076-10.87 2.41-2.144-9.68 11.887-2.636-.903-4.075-16.728 3.707zM273.77 202.754l9.81-.607c5.946-.37 8.318-4.263 7.99-9.559-.344-5.555-3.822-8.956-9.638-8.595l-4.34.268-.794-12.803-4.947.306zm4.052-14.76 3.516-.218c2.647-.164 5.036 1.126 5.278 5.033.207 3.341-1.012 5.465-4.962 5.71l-3.168.196zM308.81 202.277l6.328.51 10.647-30.29-5.158-.417-2.52 7.431-9.058-.731-1.382-7.747-5.158-.416zm8.156-18.888-4.785 14.97-.087-.006-2.453-15.555zM334.173 205.447l10.632 2.657c4.219 1.055 8.164-.2 9.577-5.854.97-3.88-.01-7.309-3.174-8.638l.02-.084c3.07.453 5.042-.801 6.266-4.978.527-1.93 1.16-4.282 1.698-6.075.454-1.456 1.35-1.994 2.088-2.257l-5.442-1.361c-.602.432-1.045 1.308-1.466 2.457-.622 1.772-1.002 3.47-1.635 5.643-.907 3.27-2.278 4.451-5.569 3.628l-3.923-.98 3.27-13.08-4.81-1.201zm12.004-11.254c3.079.77 4.345 3.058 3.586 6.096-.802 3.206-2.616 4.545-5.78 3.754l-4.093-1.022 2.448-9.788zM365.139 214.392l15.542 6.342 1.577-3.865-10.951-4.47 3.253-7.971 10.307 4.205 1.577-3.865-10.307-4.206 3.746-9.18 11.274 4.6 1.577-3.865-15.864-6.473zM392.591 226.46l7.67 4.369c8.465 4.82 12.665-.094 17.206-8.067s6.627-14.093-1.838-18.914l-7.67-4.369zm17.824-21.276 3.552 2.022c3.552 2.024 3.691 5.206-.807 13.103-4.327 7.596-7.117 9.51-10.859 7.379l-3.551-2.024z" style="fill:#9f8c42;fill-opacity:1;fill-rule:nonzero;stroke:none" transform="matrix(1.33333 0 0 -1.33333 -.667 1121.853)"></path><path d="M295 660.033c13.678-11.73 36.192-25.355 67.042-25.355 29.113 0 47.673 10.32 58.311 19.273l60.772-53.176c-9-13.617-19.426-34.634-19.426-59.11 0-35.705 11.78-58.392 22.174-78.409l5.636-11.082c4.133-8.483 6.508-20.223 6.508-32.19 0-14.67-3.51-36.206-20.228-55.497-12.702-14.656-31.497-22.327-48.207-27.897l.187.03c-.392-.097-1.758-.546-8.192-2.664-18.608-6.083-37.841-12.37-66.585-27.516-24.023-12.657-44.666-26.832-57.992-36.689-13.326 9.857-33.97 24.032-57.992 36.69-28.749 15.146-47.983 21.434-66.584 27.516l-8.009 2.634c-16.706 5.57-35.502 13.24-48.204 27.896-16.718 19.29-20.228 40.828-20.228 55.498 0 11.966 2.375 23.706 6.517 32.208l5.631 11.073c10.39 20.007 22.17 42.694 22.17 78.4 0 24.476-10.425 45.492-19.426 59.11l60.771 53.175c10.64-8.954 29.2-19.273 58.312-19.273 30.85 0 53.364 13.625 67.042 25.355m96.624-155.615c.422-5.919 2.747-10.147 5.707-13.318s9.3-4.016 13.529-5.919c4.227-1.902 7.61-.845 8.455.846.846 1.69 3.595 3.171 3.595 3.171.421 3.805-1.27 6.765-5.286 11.626-4.016 4.864-2.96 9.09-6.553 15.01-3.593 5.918-11.416 8.244-11.416 8.244s-8.243 9.09-18.602 9.724c-14.794.906-24.944-6.342-27.692-20.717-2.676-13.998 8.033-34.88 19.025-50.523 10.943-15.57 11.627-24.31 8.878-31.074-2.748-6.764-11.837-7.4-16.911-3.17-5.074 4.227-8.667 12.683-13.952 18.601-5.284 5.92-12.683 10.571-18.814 17.97-6.13 7.398-8.456 18.18-9.089 26.634-.634 8.456.211 15.01 2.536 18.814 1.516 2.48 2.044 5.68 2.228 7.606.097 1.03.472 1.028 1.096.034 1.132-1.8 3.088-4.674 5.131-6.582 2.707-2.525 7.656-.906 9.96.062.77.322 1.245 1.19 1.146 2.375-.133 1.589-.443 4.198-1.17 7.71-1.268 6.13-.212 9.09-.212 9.09s3.171 0 6.342 2.96c1.989 1.855 3.312 4.042 4.022 5.416.423.818.418 1.558-.154 2.15-.71.733-1.974 2.049-4.08 4.27-3.803 4.017-3.803 7.4-3.803 7.4s3.804.422 7.398 2.537c2.695 1.585 4.083 4.003 4.607 5.113.176.37.255.594-.265 1.522l-2.44 4.356c-2.96 5.285-4.016 12.262-4.016 12.262 4.016 3.382 4.65 6.764 4.65 6.764-1.056 2.536-3.804 5.285-7.821 8.456s-5.919 7.61-7.61 9.724c-1.269 1.586-6.698 4.598-9.334 6.005-.879.47-1.447 1.84-1.449 2.398-.022 6.336-.29 14.09-3.592 15.061-3.593 1.058-6.553 1.48-10.57-2.113-3.15-2.819-8.121-7.98-10.119-10.074-.55-.576-1.223-.877-1.857-.816-2.514.236-9.47.742-16.561-.103-8.879-1.057-11.204-2.749-12.895-6.342-1.692-3.593-4.44-4.65-12.895-6.13-8.456-1.48-15.432-3.171-17.546-5.92-2.114-2.747-2.325-9.089.423-15.642 1.883-4.491 4.858-6.897 6.545-7.967.774-.49 1.108-1.332 1.016-2.426-.115-1.357-.114-3.426.472-5.885 1.057-4.439 4.227-7.399 8.244-6.341s8.879 3.381 15.22 2.536c4.54-.604 10.488-3.917 13.501-5.752 1.197-.728 1.536-1.58.625-2.188-1.194-.799-3.276-2.034-6.516-3.475-5.707-2.536-10.502-4.59-19.236-11.415-6.765-5.286-10.57-8.244-12.473-8.244-1.902 0-4.861 2.748-7.61 4.016-2.748 1.269-9.512 5.497-18.602 13.952s-11.415 12.472-11.415 12.472-1.48 6.13-2.748 9.724c-1.27 3.594-4.651 7.611-9.513 9.302s-9.09 1.902-11.205-1.692c-2.113-3.594-2.958-9.09-1.903-13.952.71-3.254.848-7.077.863-9.249.008-1.073.486-1.616 1.311-1.656 1.313-.063 3.441-.545 5.65-2.623 3.592-3.383 2.113-8.878 1.267-13.741-.479-2.754-1.365-4.287-2.042-5.098-.52-.622-.559-1.255.064-1.903 1.457-1.522 4.361-4.222 7.474-5.26 0 0 2.325-5.496 6.342-7.398 4.017-1.903 5.707-4.44 8.244-7.4s5.285-4.862 14.798-4.862c5.863 0 9.156.161 10.82.284 1.036.077 1.35-.41 1.237-1.345a61 61 0 0 1-.38-4.65c-.031-.738-.248-3.015-2.04-3.948-1.904-.993-5.614-2.255-12.808-3.236-13.952-1.903-24.52-3.17-30.651.846-6.131 4.017-8.246 5.073-15.01 4.862s-11.203-3.17-13.105-6.13c-1.904-2.96-3.383-6.766 1.056-9.725 4.44-2.959 13.106-7.61 17.123-9.512s7.61-3.171 7.61-3.171 2.748-2.748 5.074-7.187c2.325-4.44 6.341-7.822 13.317-3.171 0 0 3.382 2.114 5.708-.423s5.92-3.805 10.359-3.594c0 0 1.69 3.382 4.86 4.017 3.172.634 6.554-.212 10.148-.635 3.594-.422 8.878.635 10.993 2.115 2.114 1.48 5.919-.422 9.09-3.171 3.17-2.749 4.438-7.822 4.438-7.822s-8.455.635-14.374.846-19.322-2.328-28.115-13.106c-6.553-8.033-6.305-19.492-3.171-26.002 5.496-11.415 6.342-16.7 5.707-20.294s-4.016-5.073-8.033-2.325-12.05 7.4-16.276 10.993c-4.228 3.593-12.262 3.805-16.489.634s-7.188-7.399-5.074-10.57 6.13-7.61 8.879-10.78c2.748-3.172 5.708-6.765 10.993-6.554 5.284.21 11.202-4.017 20.504-8.456 9.301-4.44 15.432-8.245 19.66-6.553s8.033 5.707 7.822 12.895c-.212 7.188 2.324 19.449 8.455 25.58 5.869 5.868 11.932 7.087 24.31 7.18.55.003 1.722-.622 1.865-1.667.39-2.837 1.614-8.757 5.322-13.547 5.074-6.554 10.782-12.473 20.506-15.221s14.163-7.609 13.74-14.163c-.423-6.553-3.172-12.684-5.073-17.335-1.903-4.65-2.748-7.187-7.187-6.975-4.44.21-10.782-1.48-13.53-5.92s-.633-7.61 2.326-9.512 4.861-2.748 10.358-2.113c5.496.634 12.26-1.27 15.22-1.27s7.61.635 10.78 3.806c3.172 3.171 7.188 5.496 8.246 8.455a76 76 0 0 0 2.113 5.285s5.496 4.652 5.496 8.668-.845 7.187-.845 7.187 4.228 4.65 3.382 8.244c-.845 3.595-5.496 5.919-8.667 13.318s-5.497 16.277-2.326 23.465 8.668 19.024 8.668 19.024 6.764-3.804 15.431-3.17c8.668.634 19.026 5.497 24.733 15.643s3.514 27.925-9.934 47.352c-15.22 21.984-18.636 29.192-17.97 39.53.424 6.553 4.018 10.142 9.936 10.782 7.821.845 13.318-4.44 13.318-4.44s.635-6.342 1.058-12.261" style="fill:#8ebde8;fill-opacity:1;fill-rule:nonzero;stroke:none" transform="matrix(1.33333 0 0 -1.33333 -.667 1121.853)"></path><path d="M244 505.665c-.028-.003-2.847-.4-11.979-.4-9.056 0-11.247 1.739-13.353 4.196l-1.06 1.263c-2.064 2.477-4.012 4.817-7.814 6.618-3.299 1.562-5.385 6.375-5.406 6.423l-.336.787-.813.274c-2.552.852-5.012 3.058-6.41 4.478.819 1.098 1.702 2.863 2.187 5.652l.262 1.447c.39 2.114.803 4.352.803 6.515 0 2.753-.669 5.386-2.904 7.49-2.377 2.237-4.697 2.9-6.368 3.066-.017 2.269-.162 6.096-.899 9.482a18.7 18.7 0 0 0-.407 3.944c0 3.158.737 6.336 2.09 8.639.833 1.415 2.663 3.042 8.94.859 4.604-1.602 7.372-5.385 8.343-8.137 1.22-3.46 2.68-9.478 2.693-9.538l.065-.268.138-.239c.101-.174 2.574-4.36 11.766-12.912 8.616-8.014 15.674-12.704 19.1-14.286.958-.443 2.012-1.131 3.032-1.799 1.88-1.23 3.658-2.393 5.376-2.393 2.576 0 6.044 2.71 13.644 8.648 8.333 6.51 13.005 8.585 18.416 10.989l.422.186c5.915 2.63 8.226 4.679 8.322 4.765l1.81 1.629-2.019 1.362c-.386.26-9.538 6.39-16.245 7.284-5.396.72-9.792-.673-13.325-1.793l-2.63-.79c-1.104-.29-2.123-.162-3.03.382-1.329.797-2.38 2.46-2.88 4.561-.533 2.24-.527 4.11-.428 5.283.157 1.833-.516 3.32-1.891 4.193-1.442.916-4.114 3.053-5.81 7.097-2.483 5.922-2.29 11.64-.668 13.747 2.08 2.705 12.458 4.522 16.365 5.206 8.26 1.446 12.109 2.563 14.287 7.193 1.213 2.575 2.585 4.214 11.4 5.262 6.863.818 13.585.342 16.156.098 1.213-.114 2.458.395 3.414 1.398 1.975 2.072 6.904 7.19 10.01 9.969 3.362 3.008 5.555 2.65 8.766 1.707.995-.294 2.19-2.829 2.225-13.244.004-1.159.86-3.217 2.456-4.07 5.582-2.98 8.2-4.834 8.744-5.514l1.498-2.245c1.411-2.26 3.344-5.358 6.42-7.784 3.772-2.978 5.96-5.265 6.95-7.178-.352-.963-1.326-2.989-3.826-5.094l-.815-.687.159-1.053c.046-.299 1.144-7.383 4.237-12.906l2.482-4.43c-.507-.985-1.629-2.781-3.689-3.993-3.175-1.868-6.614-2.282-6.648-2.286l-1.685-.195-.003-1.695c0-.424.122-4.27 4.327-8.708l3.969-4.142c-.624-1.223-1.834-3.277-3.675-4.996-2.53-2.36-4.964-2.445-5.066-2.449l-1.306-.03-.464-1.232c-.078-.22-.525-1.586-.525-4.152 0-1.547.162-3.53.665-5.963.808-3.901 1.067-6.538 1.162-7.943-2.218-.932-6.157-2.087-7.936-.427-2.911 2.716-5.74 7.732-5.77 7.783l-3.244 4.989s0-2.003-.317-5.916c0-.05-.036-5.024-2.045-8.312-2.51-4.106-3.482-11.004-2.812-19.949.5-6.659 2.402-19.113 9.522-27.707 3.5-4.225 7.32-7.508 11.013-10.683 2.868-2.466 5.576-4.795 7.847-7.339 2.236-2.503 4.203-5.555 6.106-8.507 2.567-3.981 4.991-7.742 8.048-10.29 3.263-2.719 7.903-3.755 12.108-2.702 3.656.913 6.42 3.265 7.783 6.62 3.554 8.745.752 18.887-9.084 32.884-13.83 19.68-20.825 38.024-18.714 49.071 2.53 13.225 11.66 20.035 25.708 19.175 9.438-.577 17.234-9.02 17.311-9.105l.863-.543c.072-.022 7.177-2.208 10.334-7.409 1.52-2.503 2.145-4.715 2.75-6.854.758-2.677 1.54-5.446 3.963-8.378 3.622-4.386 4.912-6.756 4.912-9.297v-.012c-1.074-.691-2.697-1.909-3.456-3.428-.298-.595-2.586-1.485-5.973.039-1.53.688-3.291 1.24-4.994 1.773-3.1.971-6.305 1.974-7.925 3.709-3.157 3.383-4.858 7.359-5.2 12.156l-1.125 13.027-.512.47c-.251.24-6.236 5.89-14.84 4.959-7.028-.76-11.158-5.217-11.63-12.55-.694-10.757 2.556-17.99 18.302-40.736 11.846-17.11 15.709-34.906 9.842-45.337-5.614-9.98-15.673-14.125-23.214-14.678-7.95-.582-14.3 2.899-14.364 2.933l-1.801 1.005-.853-1.863-8.682-19.059c-2.825-6.4-2.045-14.805 2.316-24.981 1.839-4.29 4.112-6.944 5.938-9.075 1.311-1.531 2.346-2.74 2.626-3.93.446-1.894-1.567-5.01-2.94-6.53l-.69-.766.261-1c.008-.03.782-3.005.782-6.7 0-2.27-2.958-5.63-4.824-7.216l-.36-.306-2.315-5.79c-.531-1.486-2.393-3.045-4.365-4.694l-3.433-3.056c-2.826-2.826-7.125-3.247-9.435-3.247-.91 0-2.395.233-4.112.504-3.36.53-7.54 1.188-11.327.75-5.094-.586-6.549.18-9.112 1.825-3.856 2.48-2.837 5.132-1.735 6.912 2.203 3.56 7.614 5.219 11.82 5.019 5.606-.267 7.023 3.21 8.817 7.612l.724 1.762c1.917 4.637 4.302 10.407 4.71 16.714.341 5.306-2.004 12.41-15.123 16.117-8.764 2.477-14.14 7.61-19.518 14.554-3.39 4.38-4.551 9.8-4.941 12.643-.295 2.147-2.414 3.32-3.766 3.31-12.22-.093-19.174-1.274-25.64-7.74-6.94-6.939-9.211-20.23-9.012-26.979.213-7.242-4.06-10.046-6.627-11.073-2.72-1.088-7.298 1.175-13.633 4.307l-4.5 2.196-6.905 3.498c-5.674 2.97-10.157 5.317-14.496 5.143-4.228-.169-6.67 2.654-9.257 5.642l-1.69 1.94c-2.483 2.837-5.572 6.367-7.264 8.907-1.388 2.08 1.326 5.513 4.631 7.991 3.607 2.707 10.599 2.428 14.115-.56 2.97-2.525 7.572-5.438 11.632-8.01l4.803-3.104c2.566-1.756 5.182-2.216 7.367-1.298 1.892.796 3.21 2.568 3.615 4.862.838 4.752-.916 11.168-5.868 21.45-2.99 6.213-2.98 16.727 2.932 23.974 8.374 10.265 21.044 12.604 26.572 12.407 5.813-.207 14.217-.835 14.3-.841l2.628-.197-.64 2.556c-.056.23-1.454 5.69-5.038 8.797-2.167 1.879-7.617 5.959-11.427 3.293-1.61-1.127-6.392-2.17-9.68-1.784l-2.483.342c-2.714.401-5.521.815-8.258.268-2.82-.563-4.657-2.691-5.55-3.993-3.39.024-6.11 1.043-7.896 2.991-2.685 2.929-6.484 1.772-8.118.75-2.465-1.642-4.554-2.238-6.257-1.804-1.642.42-3.112 1.848-4.366 4.244-2.433 4.645-5.294 7.53-5.414 7.65l-.306.306-.406.143a88 88 0 0 0-7.43 3.096c-3.966 1.878-12.515 6.467-16.881 9.377-2.198 1.464-3.05 3.165-.512 7.112 1.552 2.416 5.406 5.065 11.565 5.256 6.11.192 7.833-.571 13.908-4.55 6.476-4.244 16.392-3.262 31.95-1.14 13.211 1.801 15.928 4.673 16.371 6.225l.073.523c0 4.422.601 8.106.609 8.143.29 1.933-.886 2.387-2.16 2.193m30.378 96.937c-.625-.856-1.07-2.64-.999-3.424.07-.785.999-.857 1.855.071.857.928 1.57 1.856 1.784.928s1.641-1.498 4.494-.857c2.854.642 4.423.5 2.568 1.784s-7.775 4.138-9.702 1.498m47.75 20.144c-2.714 0-5.39-2.695-7.769-5.55-2.379-2.853.475-2.695 3.964-3.17 3.487-.476 5.708.317 5.865 3.33.16 3.012-.475 5.39-2.06 5.39" style="fill:#e11155;fill-opacity:1;fill-rule:nonzero;stroke:none" transform="matrix(1.33333 0 0 -1.33333 -.667 1121.853)" data-source="https://football-logos.cc"></path><!-- source: https://football-logos.cc --></svg>