<svg xmlns="http://www.w3.org/2000/svg" xml:space="preserve" viewBox="86.72 64.32 645.54 687.9"><!-- Source: https://football-logos.cc --><path d="M4801.17 5471.68c-26.71 7.34-55.58 7.84-82.42 1.51-61.92-31.27-112.56-93.31-115.35-164.6 4.56-30.51 43.3-48.49 70.27-32.54 46.09 29.76 47.23 94.97 88.38 128.65 39.63 16.84 83.95-4.18 125.47 2.91-20.63 30.26-51.14 53.3-86.35 64.07m-336.41-46.34c-22.79-.89-48.37 2.91-67.74-12.04-36.85-25.32-72.04-59.25-84.83-103.19-8.61-44.31-7.47-90.65 2.02-134.72 10.51-16.46 29.38-24.68 47.11-30.76 21.77 12.28 41.02 30.76 49.12 54.95-2.15 44.95-16.59 89.51-9.49 134.71 12.15 35.84 42.66 60.78 63.81 91.04zm-1906.06-32.29-5.57 8.99c-35.08-68-31.41-146.62-17.86-219.68-41.9 34.44-71.91 80.02-109.52 118.64-1.9-30.01-4.05-60.27.64-90.02 11.64-36.6 36.33-67.24 49.75-103.07-96.1 15.45-191.31 49.5-289.94 36.34-8.36-82.17-5.57-168.02 29.12-244.37 17.34-53.81 69.13-82.05 108.13-118.38-48.63-32.67-112.31-45.59-147.76-95.6-32.67-45.07-63.31-100.02-52.17-157.76 11.14-88 41.16-180.68 9.12-267.66-6.21-22.54-30.64-30.9-50.27-38.24-39.63 10.51-59.76 48.87-86.73 76.09-8.74-17.47-26.84-35.45-18.99-56.47 13.55-50.01 39.24-103.06 88.25-126.36 32.42-17.22 70.27-4.43 100.78 10.38 44.45 24.95 84.46 59.26 113.83 100.92 11.9 63.68 12.15 129.14 23.81 192.83 14.68 58.12 47.09 110.41 83.18 157.51 6.46-.38 19.5-1.14 26.09-1.52-.89-46.84-38.5-80.53-55.59-121.8-25.45-48.11-20.38-103.7-23.68-156.12-11.02-96.35 19.88-190.68 46.98-281.84 19.75 31.02 22.79 68.49 33.04 102.94 39.51 145.6 85.09 296.91 188.41 411.36a220 220 0 0 0 25.82-27.34c-43.93-64.58-90.52-128.77-116.23-203.35-25.57-73.3-48.49-147.38-69.25-222.2-11.28-40.02 14.68-77.49 26.84-114.09 31.65-71.28 50.39-152.7 110.15-207.14 56.1-53.68 106.36-117.75 179.04-150.16 34.56-16.34 73.18-18.99 110.79-17.48-28.11 35.58-63.19 65.47-88.13 103.7-41.15 60.53-52.8 135.73-95.47 195.5-50.9 73.56-80.27 160.16-93.44 248.16-5.83 35.58 7.72 70.27 19.62 103.06 5.2-59.88-2.78-121.8 17.98-179.53 32.92-100.03 86.48-194.74 159.28-271.08 78.89-65.34 182.46-87.12 279.07-112.95 66.98-14.43 128.63-45.58 188.14-78.63 24.7-13.04 37.61-38.87 55.84-58.87 16.34 38.36 16.46 82.55 7.22 122.69-13.93 33.93-41.91 59.38-68.12 83.94-42.29 40.77-105.09 38.88-157.38 57.61-45.58 11.78-78.38 47.61-109.02 80.91-61.53 72.17-114.08 156.63-125.6 252.6-7.72 76.35-28.23 154.34-10.26 230.81 6.97 33.18 24.19 62.55 37.74 93.2-29.63 16.33-63.06 25.32-91.42 44.31-30.26 23.05-56.6 57.99-55.2 97.75-.77 30.89 20.38 55.46 31.53 82.67-46.09 22.16-96.36 43.18-126.49 86.86-34.95 50.27-71.03 101.3-91.3 159.54 1.91 4.81 5.96 14.68 7.86 19.62 47.73-68.75 74.95-154.85 146.11-204.73 84.71-66.85 200.18-40.9 297.54-70.02 16.46-3.54 19.38-23.8 28.24-35.58-64.07 6.46-126.74 23.93-191.31 25.45-27.35 1.52-54.32-10-73.69-29-5.32-30.63-7.98-67.99 19.24-89.51 45.83-52.17 118.39-60.4 178.15-88.76-.26-26.58-10.01-53.3-5.19-79.89 13.8-33.55 36.08-66.98 70.9-81.54 31.53-15.7 67.99-11.14 102.05-12.29 73.44 1.9 147.38-4.3 220.31 7.6 50.52 7.1 102.31 10.01 153.08 2.91 7.97-26.96 9.5-56.34 23.42-81.28 16.21-23.55 38.24-42.29 60.78-59.38 8.1 23.17 12.4 47.6 20.64 70.77 29.12 10.26 60.39 13.42 89.13 25.07 4.69 39.64 9.76 84.71-14.31 119.53-24.81 23.68-57.61 37.35-89.25 49.51-51.92 16.84-105.1-6.72-157.52-5.2-52.92 10.01-101.92 37.48-139.27 76.1-34.19 35.07-79.14 70.4-79.64 124.21-3.42 54.06-9.63 117.75 29.62 161.18 26.22 30.26 55.46 59.76 92.43 76.6 20.64-35.2 35.2-74.32 62.17-105.47 18.1-13.93 40.9-19.37 62.17-26.21 56.47-15.32 113.32-37.35 172.96-30.39 33.17.76 52.8 33.43 68.24 58.62 26.34 41.92 8.86 93.07 2.41 138.02-43.68 19.75-93.82 27.85-131.31 59.5-24.68 16.85-23.55 65.34 8.62 73.06 64.95-15.44 98.37-75.21 141.68-119.4 30.64 38.25 31.78 92.68 16.33 137.25-16.84 47.48-75.46 44.57-116.48 51.03-44.2 9.5-85.47-13.3-128.65-17.35-72.67-6.7-148.64 4.31-213.09 39.76-62.67 36.09-122.56 80.53-194.6 96.23-65.34 18.87-133.46 13.67-200.44 17.22-92.3 11.02-188.53 13.55-274.37 52.92-38.11 26.34-34.57 80.4-59.76 116.23zm544.57-263.87c28.11-11.27 61.15-24.18 73.31-54.45 9.87-18.73 3.67-40.51 1.9-60.39-6.21-34.44-5.44-72.29-26.21-102.18-21.65-38.86-64.19-57.48-103.32-73.69-51.66-20.26-112.56-33.43-163.59-4.05-25.57 21.4-42.91 50.78-63.05 77.11-16.08 21.78-26.59 51.91-13.93 77.74 14.94 22.41 35.71 40.27 57.61 55.71 26.46-26.21-19.12-38.11-32.41-56.97-12.67-27.22-5.83-75.21 33.17-71.42 25.7 16.97 40.52 45.34 64.07 64.58 22.16 18.99 49.5 30.89 78 36.59 44.94 4.81 88.75-16.46 133.82-9.37 23.3 15.2 23.81 56.09.38 71.29-24.18 18.86-53.93 28.48-80.14 44.06 12.91 8.61 26.46 10.38 40.39 5.44m-759.57-50.64c60.14-5.07 105.98-49.89 128.77-103.2-22.67-7.59-46.21-12.79-68.11-22.79-7.86-27.6-1.4-60.65-21.03-83.69-19.11-2.78-38.74-2.4-57.99.13-8.73 21.9-7.08 45.83-10.38 68.75-16.83 4.69-34.31 7.47-51.15 12.28-26.97 37.74-16.97 88-14.69 131.3 31.4 3.29 63.44 3.16 94.58-2.79zm2225.26 256.26c-32.92 10.39-47.22-26.21-55.07-51.4-3.43-46.85 48.36-84.58 32.79-132.31-24.82-86.48-58.37-171.57-107.5-247.29-44.19-60.39-86.73-123.44-144.97-171.55-66.35-55.97-145.99-97.37-200.31-166.63-81.66-108-138.64-231.58-213.6-343.89-58.24-83.82-148.39-134.71-224.61-199.55 23.55-27.09 51.53-50.01 79.77-72.16 68.88-53.81 124.2-123.07 169.79-197.27 25.45-40.52 35.83-88.5 61.15-128.89 43.81-27.98 96.6-37.23 143.71-58.5 71.66-25.32 138.9-64.07 213.73-79.39 4.05 38.62-13.17 74.71-36.34 104.33-53.43 66.22-103.32 135.73-169.04 190.56 67.49-5.95 98.26-76.86 143.71-117.88 61.92 51.15 99.53 124.34 133.83 195.5 7.09 17.72 18.75 35.82 14.95 55.7-42.54 16.59-88.89 13.68-133.07 21.53-53.06 34.82-86.11 93.06-104.46 152.57 35.07-17.35 46.84-56.98 71.03-84.83 23.29-27.98 52.93-57.23 91.79-58.25 58.37-2.53 120.03-12.79 166.76-50.64 22.54-28.11 40.38-64.32 35.83-101.29-12.92-21.91-35.96-35.33-52.67-54.07 34.06.51 72.29 6.84 93.69 36.34 23.68 33.93 35.45 75.84 35.96 116.99 2.4 59.51-35.33 113.45-81.54 147.38-43.05 32.67-98.89 39.63-143.33 69.52 27.22 11.26 54.58-4.44 82.05-6.72 24.18 15.2 45.2 36.34 60.14 60.78 5.07 22.79 5.7 46.34 9.37 69.26 6.21 49.38 73.95 73.18 59.51 127.63-15.32 87.74-77.74 157.5-102.3 242.08 8.86-.88 26.71-2.53 35.58-3.42 44.94-57.98 56.71-140.66 121.42-183.08 22.79.13 45.33 5.44 67.61 9.87-10.51 21.4-23.8 41.41-32.54 63.57 1.14 25.57 15.57 48.62 29.63 69.38 24.56 16.59 56.21 15.7 83.94 24.06-1.26 19.37-7.47 37.98-16.71 54.95-54.19 7.98-106.99-14.18-161.18-10.51.38 7.98 1.14 23.81 1.52 31.65 31.65 7.86 64.44 11.4 95.21 22.92 12.79 28.75 22.29 61.03 15.19 92.43-27.59 25.83-84.58 33.04-74.82 81.79 55.32-11.9 102.05-64.32 161.56-49.5 17.85 13.67 29.63 33.42 38.86 53.68-19.11 8.74-38.86 15.95-57.48 25.45-15.06 43.56 11.91 82.43 29.63 119.78-6.71 8.99-14.31 17.22-22.54 24.68-62.29-25.06-94.96-89.26-149.02-125.85-6.33 3.93-19.12 11.78-25.58 15.71 27.47 35.95 63.81 64.06 91.42 99.89-3.55 3.8-10.64 11.14-14.18 14.81-25.83-20.12-47.48-45.32-74.58-63.68-9.37 9.37-18.23 19.37-25.95 30.01 32.53 27.73 70.39 50.64 95.21 86.35 15.95 31.53-5.06 62.8-18.74 90.4 24.19 22.16 63.94 20.01 83.7 47.86 4.68 18.49 4.17 37.86.88 56.47-11.14 11.14-25.45 18.61-40.64 22.41-17.23-17.6-32.16-37.47-51.16-53.3-30.25-10.01-66.09-6.46-91.92 13.29-10.76 22.41-16.71 46.85-25.07 70.27m-73.56-889.59c10.25-15.19-2.03-32.54-5.19-47.99-24.31-64.7-48.62-131.43-93.95-184.86-32.16-38.61-84.71-47.98-130.79-60.14-20.52-3.29-47.49-13.55-63.06 6.46 55.59 23.55 124.59 20 169.41 65.2 67.87 60.78 76.86 156.88 117.75 233.86zm-2924.18 886.43c-25.82 8.99-49.75-9.62-71.66-20.51-29.37-14.69-42.54-46.22-53.93-74.96 25.95 13.42 48.49 38.62 79.64 37.73 34.56 4.44 63.68-24.06 76.09-53.43 4.81-68.62-48.87-124.97-99.26-164.59-59.64-27.86-129.65-30.14-185.5-67.62-42.92-20.26-73.81-56.22-101.04-93.95-20.51 33.81-34.31 71.16-51.53 106.74-17.6 35.2-50.14 58.88-77.99 85.46-38.49 36.72-88.001 64.7-141.556 70.28-52.8-10.64-103.949-44.32-124.086-95.99 1.899-3.28 5.446-10.12 7.348-13.54 22.535 19.76 40.766 47.99 72.168 54.06 21.27 8.49 43.684-2.14 62.926-11.14 59.38-39.25 101.42-108.38 101.04-180.3-21.02-109.9-91.544-202.2-118.384-310.33-7.723-36.97-2.785-75.72 11.774-110.41 31.527-75.46 62.17-152.32 110.41-218.91 28.61-38.37 72.8-59.39 108.76-89.52-22.67-20.13-46.34 6.84-66.09 18.23-60.15 39.13-91.67 105.73-125.604 166.25-24.82 45.33-65.965 79.13-109.902 105.09-42.672 25.07-96.227 33.3-142.442 12.53-27.98-18.49-45.957-47.99-62.925-75.97-21.907-36.84-28.239-88.25-1.137-123.95 13.035 35.83 19.621 75.84 44.058 106.23 27.602 25.95 68.625 25.45 103.825 22.66 29.121-2.02 57.101-18.49 68.75-45.83 34.187-53.56 11.144-119.28 24.816-177.65 22.285-49.75 58.246-93.82 101.421-126.99 35.07-23.55 76.09 10 113.83.89 40.26-7.85 75.96-33.05 98.12-67.49-2.28-3.67-6.96-11.01-9.24-14.81-26.21 23.17-51.4 49.89-85.72 60.77-22.92 8.99-46.47-2.4-68.37-8.99 59.76-55.2 101.67-125.35 146.87-192.07 27.98-41.02 46.47-88.51 52.17-137.88 5.57-34.95-18.36-65.21-43.31-86.74-21.01 34.95-33.17 77.62-67.35 102.81-48.75 34.45-106.61 53.69-164.983 64.2-26.715 6.84-60.645 10.76-73.563 39.25-12.664 28.49-23.805 61.41-13.926 92.43 12.407 28.36 40.133 44.95 60.649 66.85-14.438 7.72-29.887 17.72-46.723 9.75-81.035-13.42-120.535-124.97-70.016-188.28 27.727-27.72 63.684-46.59 87.11-78.62 7.34-16.21 4.555-34.95.383-51.54-61.922-23.04-123.957-51.27-170.805-99.26-31.152-33.56-45.582-79.64-41.785-125.22 40.898 31.52 71.918 75.33 118.258 99.64 48.875 26.08 103.57 49.76 160.293 40.64 72.298-11.64 149.408-34.05 197.648-92.8 36.97-46.34 80.53-91.04 96.48-149.79-51.03 40.26-77.74 102.31-125.1 146.36-35.07 38.62-86.35 54.32-135.22 66.98-60.019 14.69-124.207 2.54-176.879-28.86-53.816-33.05-109.144-72.68-134.34-132.95-.89-41.15 23.676-81.67 53.809-108.63 44.188-8.49 99.27-12.03 125.477 32.28-28.614 2.54-59.762-6.84-86.856 5.7-58.121 31.41-26.211 126.36 31.395 138.27 55.711 14.68 116.871 29.5 171.944 3.79 81.03-26.58 169.79-89.38 172.07-182.83 5.45-91.41-8.1-183.34-33.55-270.95-31.66-91.17-73.69-178.15-112.43-266.4-50.019-124.47-108.64-246.27-141.937-376.81-7.976-53.81.375-108.51-5.195-162.57-2.535-33.55-11.898-66.6-9.496-100.54 13.926-108.63 71.668-206.38 142.448-288.04 59.63-52.42 145.35-63.44 221.69-52.04 52.3 11.65 95.85 45.2 140.17 73.43 54.95 31.15 76.6 94.21 110.53 143.84 23.93 42.92 73.82 61.28 100.92 101.42 17.09 30.77 24.43 65.46 37.09 98 3.68-4.69 11.15-14.06 14.82-18.74-2.54-37.35-19.5-73.06-39.76-104.21-29.38-33.67-73.06-53.68-95.97-93.44-16.08-27.73-32.54-56.72-38.36-88.75 16.58-64.71 66.85-119.4 64.44-189.42 4.3-72.93-5.82-164.98-77.24-203.73-20 2.92-39.62 9.12-57.73 18.11-16.97 17.98-28.49 40.14-43.3 59.77-29.88-42.3 2.28-90.28 31.78-122.19 35.95-20.13 83.57-28.24 120.41-5.83 38.23 22.8 81.28 48.63 96.73 92.94 7.85 36.22 5.95 73.57 4.94 110.28-1.26 66.73-39.76 124.85-49.89 189.8-3.67 33.17-3.03 66.73.64 99.9 5.31 0 15.95.25 21.27.25 3.79-41.15-.51-82.8 5.44-123.83 18.36-74.2 64.45-140.92 128.01-183.59-3.67 52.16-4.18 104.58-5.07 156.75-.5 59.51-37.35 114.97-23.04 175.11 11.27 38.87 34.32 73.06 60.14 103.7 2.41-4.18 7.35-12.54 9.76-16.84-11.79-30.39-33.81-55.84-44.7-86.73-9.12-44.95 5.82-89.52 15.7-132.95 13.29-51.15 4.3-104.46 9.75-156.5 6.58-36.21 23.92-69.25 34.19-104.33-49.51 23.81-92.18 58.5-136.5 90.54-1.02-29.38.38-58.88-1.9-88.26-1.9-30.64-17.09-58.37-22.91-88.38 12.53-65.45 57.36-121.54 62.04-189.29 7.72-75.59-11.65-157.88-66.22-212.96-31.91-32.67-80.65-24.82-121.68-32.54l-3.8-8.86c17.73-24.69 41.4-57.995 76.6-49.382 44.32 7.344 95.09 15.696 124.72 53.172 23.93 28.88 26.46 74.32 63.43 91.55-6.96-62.05-48.49-109.15-82.42-158.018 4.55-49.25 16.46-99.012 6.45-148.52-31.14-35.195-82.29-25.703-123.95-31.781 8.23-15.699 17.21-31.145 28.74-44.821 69.13-17.343 135.35 16.333 192.2 52.043-4.18 40.258-22.41 79.258-15.95 120.153 5.57 31.656 14.81 62.676 27.35 92.304 3.54-4.05 10.89-12.031 14.43-15.953-4.56-29.121-15.83-56.855-18.74-86.355-3.92-39.504 6.46-79.891 25.7-114.328 19.5-30.516 49.64-52.168 70.91-81.289 9.75-16.082 5.06-36.465 2.79-54.192-24.06-18.359-53.06-27.859-79.14-42.925 26.58-36.711 77.24-24.942 115.85-21.524 16.59 15.324 21.91 38.871 23.93 60.399-7.97 76.601-53.05 142.566-68.12 217.269.51 38.492 14.06 76.598 36.22 108 17.72-39.879-21.53-78.879-12.54-119.902 8.48-35.071 25.96-66.723 38.87-100.153 13.55-34.691 19.5-71.664 29.5-107.367 27.73 36.969 45.84 82.297 44.45 128.895 0 42.797-13.93 84.195-13.43 126.992-2.28 17.473 12.79 29.246 21.78 41.785 3.17-94.328 21.65-187.644 45.97-278.555 46.97-18.484 98.88-14.433 146.61-30.261-26.21-50.012-84.32-89.391-75.08-152.192 38.11 5.824 73.06 28.489 112.06 26.461 20.76-10.379 34.69-30.133 51.53-45.707 16.97 14.563 34.06 29.883 45.07 49.508.64 22.535-3.54 45.074-1.01 67.488 9.24 43.176 37.35 79.508 69.01 109.012 6.33-60.902-9-128.516 24.31-183.461 26.33-20.387 60.77-24.945 92.42-31.148 5.58 31.019-4.43 66.472 16.59 93.058 32.79 20.262 71.79 24.942 108 35.711-36.71 79.891-134.97 92.676-195.11 148.77 51.65 14.054 105.22 24.687 158.9 23.047 53.05-1.903 97.37-40.012 150.67-39.762 25.58 22.664 55.33 60.394 24.82 91.922-17.47 2.406-35.83 1.011-52.54 7.851-25.71 21.02-40.4 56.473-34.19 89.516 13.29 23.551 33.42 42.164 48.75 64.199-15.83 10.761-32.67 20.131-50.4 27.601-31.78-31.273-54.44-73.316-95.59-93.949-40.02-21.527-80.91-43.812-125.73-53.05-42.42 54.945-72.3 119.398-121.81 168.899-42.79 47.86-101.54 84.2-166.37 89.9-7.97-19.75-13.04-40.9-23.8-59.64-33.93-26.46-84.07-37.73-121.93-12.03l.25 9.75c31.66 5.96 66.98-2.91 95.09 16.21 14.44 11.15 32.8 25.7 29.75 46.21-31.02 1.4-61.66-3.41-92.29-7.47-32.93-5.18-65.34 7.73-94.46 22.03 34.57 15.58 71.92-4.05 107.75 1.52 33.93 5.19 69.26 9.75 99.39 26.85 29.62 21.65 51.78 52.92 66.47 86.09 10.14 40.9-10.63 79.65-32.16 112.82-24.31-35.71-40.39-80.4-80.14-102.43-66.73-43.43-157.64-31.4-218.03 17.72 34.56 31.66 93.06 1.14 126.1 36.47 28.11 35.45 45.84 79.38 53.18 123.7-5.06 38.75-32.66 69.89-48.24 104.84l30.39-9.12c25.96-38.49 49.63-87.49 32.03-134.08-13.17-61.66-56.72-112.06-114.08-137.38 45.96-20.77 97.62 0 137.89 24.18 28.73 24.32 45.7 60.27 56.85 95.6 11.9 33.42-2.66 68.11-2.28 102.18 5.57 5.69 16.71 17.22 22.16 22.91 27.6-54.19 40.64-114.33 63.81-170.29 20.76-48.75 65.97-79.39 109.77-105.85-10.13 31.77-24.44 62.41-31.4 95.08-6.2 40.65-.25 82.05-6.07 122.57-11.53 27.85-31.28 51.03-45.46 77.36 4.81 2.79 14.56 8.23 19.37 11.01 19.37-23.93 37.73-49.63 49.25-78.5 12.03-50.77-2.4-104.33 10.39-155.1 16.2-42.79 36.97-87.36 74.7-115.35 50.39-15.07 106.61 1.27 137.76 44.19-33.3 3.17-66.98 1.52-100.03 6.96-21.02 13.68-34.69 36.85-40.64 60.91-8.74 54.44 16.59 107.37 10.51 161.69-25.71 73.56-105.09 116.74-125.6 191.69 8.35-1.01 25.07-2.91 33.42-3.8 41.53-34.94 64.2-88.5 110.92-118 25.07-12.29 53.43-21.53 81.66-17.23 33.69 8.87 61.28 33.69 79.52 62.56l-3.42 10.25c-27.73-1.52-55.08-8.73-83.19-7.85-43.18 44.06-61.78 106.23-103.95 151.18-27.22 20.01-61.91 28.23-86.6 52.17-39.25 36.71-75.08 76.98-114.21 113.82-36.47 35.83-77.62 73.18-88.88 125.35-7.72 77.61-9.75 160.93 30.13 230.82 40.9 91.67 133.33 139.78 212.97 192.45 84.07 52.04 170.04 100.92 256.4 149.16 75.58 42.41 159.66 65.71 236.51 105.21 44.7 23.05 91.16 42.67 133.45 69.76-31.65 39.39-62.8 79.9-99.39 114.98-47.1-31.53-72.43-83.44-105.59-127.38-4.95 2.79-14.82 8.61-19.76 11.4 24.69 51.53 69.76 87.86 105.47 130.79 7.85 27.98 10.13 57.23 18.11 85.08 12.41 47.86 37.6 91.29 50.39 139.02-6.96 14.95-18.99 26.59-30.13 38.37-9.5-73.82-39.26-142.31-78-205.12-11.14 45.34-12.66 93.7-33.3 136.24-55.71 26.08-121.55 21.53-175.87 51.91-66.09 37.74-108.76 103.32-166.75 150.93-44.57-16.08-73.18-56.6-106.73-87.87-54.45-51.15-92.94-117.5-153.08-163.08-51.03-37.1-91.29-86.1-139.41-126.49-77.48-61.28-145.1-134.08-207.9-210.18-93.57-93.7-158.77-210.44-215.49-328.95-39.13-72.04-77.11-147.25-137.89-203.97-79.52-76.86-155.11-157.64-236.77-232.21-35.84-33.93-91.29-28.11-135.73-18.87-45.2 22.03-98.51 50.65-110.91 103.83-19.25 70.9-27.36 145.73-17.48 218.66 13.8 47.48 39.76 91.92 75.59 126.11 36.72 37.6 95.47 49.25 145.35 36.21 32.16-14.43 74.96-41.79 67.36-82.68-14.05-23.93-34.31-43.3-50.89-65.59 31.65 1.27 71.28-7.6 93.31 21.53 24.94 18.99 22.92 52.42 22.03 80.52.25 45.46-32.03 85.22-69.51 107.5-30.51 10.64-62.8 15.2-93.82 24.31-.64 7.98-2.03 24.18-2.79 32.29 50.52.5 100.03-18.74 150.55-10.51 43.8 9.75 84.7 30.26 121.67 55.33 64.45 35.32 60.4 140.03 2.91 180.05-37.09 8.36-83.56 10.13-107.62-25.2 20.13-11.9 42.42-21.4 58.5-38.75 6.07-19.37 5.82-44.57-13.17-56.72-42.67-34.44-99.26-52.42-154.09-46.6-39.38 2.54-79.26-2.02-117.37-12.15-52.67-32.03-50.39-109.14-102.81-139.78 13.42 84.33 77.99 145.35 111.67 220.94 33.3 71.54 74.07 139.78 102.3 213.73 25.2 73.31 51.16 146.49 69.4 221.82 20.63 87.5 55.83 172.33 111.54 243.36 20.39 27.86 53.43 41.15 83.19 56.47 43.42 20.39 89.64 43.18 139.02 36.59 44.44-6.33 92.68-19.37 122.44-55.2 15.06-31.91 24.56-69.89 13.92-104.58-36.59-60.78-114.58-52.68-175.23-58.75 11.01-45.33 60.65-68 103.44-71.92 73.57 1.39 141.94 52.17 172.2 118.01 8.61 46.96 8.48 96.48 0 143.45-22.28 50.14-68.25 86.1-114.71 112.94-37.99 13.8-79.01-1.77-118.26-2.15-5.57 5.32-16.71 16.08-22.28 21.52 47.98 27.6 108.5 30.52 149.4 70.65 51.02 43.18 89.77 116.74 62.3 183.21-16.72 49-44.45 98.13-90.92 124.21-27.85 13.68-58.62 21.4-89.39 24.44-51.91-3.54-93.44-43.18-114.58-88.63 2.65-3.04 7.85-9.24 10.51-12.28 19.11 11.77 36.21 26.59 56.09 37.1 45.32 11.65 101.92-11.78 114.46-59.39 12.03-34.69 21.14-81.03-11.27-107.62-34.19-40.64-88.38-50.14-135.73-67.36-56.22-18.48-97.37-63.81-147.64-93.19 17.73 96.23 14.31 194.35 13.17 291.6-2.03 59.76-23.67 116.23-42.16 172.32-26.59 80.4-69.77 154.22-120.67 221.57-43.43 57.11-84.83 119.15-99.9 190.31-6.2 45.33-5.18 91.41-1.89 136.99 5.44 57.87 46.59 102.69 79.89 147.26 20.89 29.75 57.48 50.39 94.45 42.16 35.96-10.51 65.09-37.48 86.36-67.49 18.1-36.59-7.1-74.32-38.37-92.93-25.07-2.91-50.01 3.04-74.95 4.56 10.25-21.65 24.69-42.42 45.83-54.82 56.47-10.77 120.16-9.25 168.53 25.82 43.17 26.34 39.5 87.87 24.81 129.78-27.98 45.33-77.36 69.01-120.16 97.75 3.04 4.43 8.87 13.42 11.91 17.98 53.93-24.94 108.5-59.13 132.56-116.11 6.84-27.22 5.7-55.58 9.11-83.31 51.41 22.67 89.15 71.92 98.14 127.12 3.16 46.09-14.31 96.99-55.08 122.18-26.72 14.7-57.99 16.47-87.12 23.93 50.14 33.69 116.75 43.43 155.23 93.2 67.24 78.12 47.74 210.69-36.71 268.92-2.79-42.16.76-84.7-4.69-126.74-13.29-73.69-60.27-141.55-127.63-175.61-59.88-31.02-124.97-52.3-191.69-62.67 8.35 12.91 16.21 28.1 33.05 30.38 76.34 22.04 158.27 43.43 215.62 102.18 32.41 45.58 48.37 101.42 56.98 156.12-2.28 39.51-12.03 80.15-31.53 114.71-28.11 21.52-62.17 34.31-95.97 43.81zm937.72-2074.71c31.27-39.76 59.88-82.43 79.89-129.15-49.51 21.78-72.17 74.95-98.88 118.38 4.81 2.79 14.3 8.11 18.99 10.77m-64.2-66.22c31.65-21.15 56.47-51.66 68.5-87.87-42.04 14.81-69.01 53.18-78.88 95.46zm-37.73-59.39c10.63-25.32 39.63-54.69 18.74-81.91-15.07 21.27-28.23 44.18-37.1 68.75 4.56 3.29 13.68 9.87 18.36 13.16m-50.65-55.33c17.86-20.51 30.52-45.2 32.17-72.67-23.68 17.09-63.94 49.5-38.87 80.65zm462.4-219.42c-21.65-29.88-49.24-54.83-74.32-81.92-29.76-31.52-49.89-70.77-80.91-101.17.13 48.25 35.33 83.82 62.68 119.65 24.56 28.75 50.77 63.82 92.56 63.44zm-146.49-69.26 6.46-7.09c-42.67-55.33-82.68-112.31-117.25-173.08-2.15 4.81-6.58 14.56-8.86 19.5 26.46 61.91 63.69 121.29 112.06 168.52zm-148.9-78.5c3.29-1.65 10.01-5.07 13.42-6.71-26.08-40.64-60.52-76.47-78.37-122.06-10.01-29.49-7.72-61.28-12.79-91.79-5.2-.12-15.45-.26-20.51-.38-11.27 85.21 38.61 162.32 91.92 223.73zM1914.48 1306.3l.13-6.08-6.08-.13-.12 6.08zm2567.75 3935.95c-11.27 7.09-23.93 8.36-38.11 3.8-7.73-27.73-9.62-57.48-23.05-83.32-14.05-20.89-36.96-34.57-60.77-41.52-27.98 2.91-50.14 23.79-75.59 34.43-8.36-13.04-15.7-27.98-10.25-43.8 35.58-34.95 86.98-38.5 133.07-48.12 22.02-14.18 36.59-36.72 54.82-54.95 22.92 51.92 51.28 104.71 52.29 162.7 2.41 27.73-14.81 51.41-32.41 70.78m-1416.95-251.84c-8.74 1.02-26.33 3.04-35.07 4.05 2.53-15.95-4.18-39.25 15.83-45.83 14.68.25 29.5.88 44.06 1.9 20.64-34.19-27.6-54.07-54.7-42.04-34.06 12.29-45.2 50.52-67.1 76.1-11.27-54.32 37.98-100.15 88.63-105.47 45.83 7.09 88.88 49.38 78.25 98.63-23.18 4.81-46.47 8.86-69.89 12.66zm1847.95-13.04c-17.48 5.95-36.46 6.59-54.57 3.04-26.72-18.48-35.2-51.91-26.97-82.43 38.24-7.47 88.12-5.44 107.11-47.48 5.58-28.61 4.31-58.11 7.73-86.98 24.05 6.71 44.19 23.55 57.1 44.69 9.62 30.39 8.23 63.81 1.39 94.58-14.05 39.76-53.05 63.69-91.79 74.58m-1977.09-23.93c-21.15-23.67-40.64-49-58.5-75.33 32.79-45.21 95.47-41.79 141.93-22.54-17.34 12.41-36.21 23.04-52.03 37.47-13.43 18.49-21.02 40.27-31.4 60.4m1072.04-275.9c-55.96 7.48-117.24-3.54-157-46.84-31.78-34.19-16.84-83.82-26.21-125.35-14.31-19.12-31.65-43.56-58.36-42.42-88.89-10.13-162.32 49.76-241.97 78.12 17.22-28.86 32.04-63.3 64.07-78.62 34.56-16.34 68.88-33.43 104.08-48.24 32.66-6.33 66.34-4.31 99.52-4.18 59.38-2.28 114.58 34.44 147.63 81.66 8.1 42.8 6.08 88 23.55 128.65 13.04 20.51 30.39 37.73 44.69 57.22m-447.45-15.06c-4.94 1.77-14.82 5.31-19.76 7.09 1.91-34.82 9.25-70.53 30.9-98.89 11.26 24.31 21.27 50.39 17.98 77.74-7.35 3.55-21.91 10.51-29.12 14.06m1425.3-102.68c-41.65-37.35-94.58-71.29-153.33-58.38-19.5 15.46-34.57 35.83-53.81 51.67-38.75 7.34-57.99-32.04-64.19-63.57 26.08-47.48 75.71-80.27 128.51-90.02 80.78 5.7 141.18 81.66 142.82 160.29zm-1507.86-9.88c-52.54 4.43-106.98 5.19-156.74-15.06 1.14-20.14 16.08-34.57 30.76-46.35 36.34-3.8 72.17 7.47 107.12 15.95 9.24 13.81 14.82 29.5 18.86 45.46m32.17-53.94-10.64 9.24a358 358 0 0 1 0-57.1c15.82.63 30.76 4.43 45.08 11.27-10.64 12.91-21.78 25.57-34.44 36.59m-586.99-63.94-3.17 11.91c-38.61-40.65-53.3-98.52-47.1-153.47 3.67-31.39 6.2-62.93 7.72-94.58 4.06-83.69 30.39-167.26 80.4-235.12 28.24-38.37 55.59-79.39 95.48-106.99 64.06-48.24 154.59-34.95 216.76-87.11 61.41-48.5 104.08-137 72.68-213.86-11.78-36.33-24.32-73.18-45.58-105.21-27.48 45.45-23.93 117.37-82.43 137-69.39 30.63-138.9 62.54-213.73 77.61-70.9 14.69-136.49 45.58-201.95 75.46-3.42-1.52-10-4.68-13.42-6.33 30.64-57.86 78.75-105.47 138.01-133.32 22.79-14.94 64.45-23.3 55.07-59.39-66.72 5.32-133.19 15.71-198.65 29.89-52.42 11.39-95.09 45.83-137 77.48-71.03 52.42-126.61 124.34-163.46 204.11-22.28 47.73-36.59 99.01-63.18 144.84-11.78-28.11-21.02-57.23-33.81-84.95-37.98 93.56-57.22 193.34-85.21 290.07-37.98-35.32-77.99-68.62-114.46-105.47 12.79-100.91 40.52-200.93 35.84-303.49-2.03-64.07-19.63-126.24-24.7-190.05-1.01-66.98 40.52-123.33 74.45-177.52 36.59-54.19 77.24-112.43 139.54-138.51 37.34 16.07 67.99 43.55 103.19 63.3 56.34-65.58 114.71-132.44 192.2-173.59 49.12-24.3 108.25-18.61 155.86-46.34 16.08-18.23 28.11-39.5 42.03-59.25 11.4 24.18 23.81 49.25 25.45 76.34-5.06 44.07-23.67 88.89-60.64 115.48-45.97 34.31-83.44 80.78-136.87 104.2-45.71 22.92-98.89 42.42-125.35 89.39-16.21 39.88-20.51 83.44-17.22 125.98 36.21-30.77 15.95-86.6 46.21-121.42 37.86-50.9 102.31-66.73 152.95-100.53 53.94-33.3 90.28-87.37 141.31-124.47 28.61-22.53 60.9-40.76 85.84-67.74 15.32-74.7-52.93-136.36-48.75-210.93-2.15-50.78 41.66-84.46 73.06-117.88 32.03-34.69 72.55-60.53 117.5-74.83-19.76 35.83-46.72 67.61-62.55 105.59 8.23 67.37 70.27 105.22 107.75 155.49 8.23 32.41 10.89 65.84 15.45 98.88 7.47 49-9.62 97.49-29.89 141.43-17.47 35.08-36.71 72.05-70.27 94.46-64.95 44.69-142.57 63.81-213.47 96.1 3.8 3.67 11.27 10.76 14.94 14.3 69.26-21.01 137.51-47.35 200.56-83.43 57.23-34.06 89.52-96.61 105.85-159.16 12.79-50.77 37.1-100.91 30.01-154.59-7.72-76.61 17.34-157.26 70.9-213.22 52.55-44.96 118.14-74.83 163.34-128.26 24.18-27.73 27.73-67.11 20.76-101.93-15.32-27.35-37.73-50.02-53.81-76.98 47.61 15.2 93.57 42.67 118.76 87.36 30.9 56.22 31.02 124.09 21.66 186-27.73 37.35-73.19 54.57-107.37 84.71-8.74 28.11-2.16 57.98 10.25 83.81 40.01 86.23 55.59 190.94 13.3 279.32-18.75 51.4-59.01 90.65-80.53 140.54 28.61-18.87 54.82-42.29 72.43-72.04 25.07-38.87 32.28-85.47 51.02-127 13.04-23.8 36.34-39.38 56.98-56.09 41.02-30.51 79.89-67.61 100.15-115.6 10.76-55.08-21.27-106.36-22.03-160.55 9.75-49.88 37.48-94.45 70.52-132.31 34.06-39.5 84.96-57.74 133.96-70.53-18.61 35.97-45.46 67.11-61.92 104.21-9.87 34.69-7.59 71.92-3.29 107.37 9 43.93 54.45 65.96 72.43 104.46 11.14 80.02-13.68 162.95-59.51 228.54-30.01 43.17-82.17 65.58-108.76 111.29 38.48-14.69 74.57-36.59 103.95-65.59 26.84-26.33 39.12-62.92 59.63-93.56 30.01-5.83 60.78-3.93 90.65-10.13 26.73-7.73 48.38-27.6 64.07-50.02 7.47-27.98-4.3-56.85-5.31-85.33 18.48 5.06 36.84 11.01 54.06 19.24 19.12 25.7 36.85 58.11 26.21 90.91-16.71 75.08-35.71 155.99-92.81 211.7-38.36 40.01-95.84 53.31-134.08 93.69-52.8 53.31-114.08 104.97-137.51 178.91-14.81 49.51-25.83 101.29-23.16 153.21 5.31-.13 15.69-.51 21.01-.76 8.74-63.44 7.6-131.81 41.79-188.4 33.29-55.84 77.11-108.39 135.47-138.9 7.98 32.79 17.6 66.09 16.08 100.15-3.8 33.17-18.87 63.69-32.92 93.57-34.56 68.37-64.57 141.68-121.3 195.36-57.99 56.1-111.42 117.76-177.64 164.6-111.29 89.39-262.59 99.02-380.85 176-35.84 22.54-64.83 54.7-102.43 74.7-34.07 8.11-69.77 3.29-103.96 10.77-31.9 10.12-64.19 27.47-81.28 57.35-20.51 33.18-22.79 72.81-32.16 109.65m1091.04-861.99-27.85 7.08c-5.58-45.07-15.71-90.27-14.57-135.85 23.17-24.06 52.17-41.53 76.48-64.45 59-50.65 85.97-127.5 103.95-200.81 11.9-44.7 9.24-94.96-15.7-134.97-28.87-36.09-82.68-32.42-117.25-59.51 31.53-91.41 118.77-155.74 213.73-166.75-3.8 59.89-43.68 124.97-8.99 181.56 28.24-23.55 42.17-58.75 66.72-85.34 43.69-36.71 95.47-67.73 153.59-71.92-13.04 37.36-16.59 76.61-5.19 114.98 46.98-26.6 85.21-66.1 131.8-93.07 23.8 14.56 45.2 32.67 70.02 45.45a235 235 0 0 0 26.59-23.54c-20.13-20.01-43.68-36.59-61.53-58.88-18.62-23.17-6.84-54.07-.13-79.51 12.79-18.74 36.34-25.2 56.85-31.53 21.02 30.64 38.62 70.78 79.77 77.49 36.84 3.04 56.85-31.41 71.79-59.26 22.28 19.88 45.7 42.92 51.91 73.31-3.54 33.05-10.89 67.11-28.36 95.72-23.3 25.83-53.81 43.81-77.11 69.77 13.04 8.1 26.47 15.7 41.15 20.13 27.48-18.36 48.49-44.57 68.5-70.52 31.02-40.9 23.55-97.75 51.03-140.17 49.63-9.37 106.35 15.58 128 62.3-8.73 17.98-20.26 34.44-28.11 52.79-8.35 30.14 6.21 61.66 26.72 83.32 27.35 27.98 68.37 30.38 103.95 40.51-18.23 13.42-35.96 29.25-57.86 36.21-57.49 9.37-115.35-1.39-172.7-5.06-12.92 10.13-33.05 23.81-27.86 42.67 45.32 4.43 91.16.89 136.36 6.96 42.8 6.08 86.23 12.54 129.66 8.11 30.38-2.91 57.73-17.6 87.36-23.68 24.31 5.7 46.34 20.51 61.16 40.52 5.82 22.53 4.43 46.46.88 69.26-32.16 18.23-72.8-5.96-107.49 6.45-17.35 12.54-35.58 27.73-42.55 48.62-1.77 32.29 13.68 62.04 20.64 92.81-47.48-26.21-63.94-80.53-95.47-120.91-21.39-20.64-47.1-38.37-75.96-46.34-24.94 6.7-48.37 17.59-72.18 27.21-304.5 129.66-614.58 245.89-921.75 368.84m1218.41-72.93c-40.39 12.91-83.81 9.36-125.22 3.79-49.63-4.68-97.87-49.75-90.9-102.3-2.41-20.13 13.29-32.03 29.12-40.39 49.5 12.79 81.66 55.58 123.83 81.16 27.98 17.98 61.91 20.51 93.43 28.23-9.11 10.77-18.99 21.02-30.26 29.51m-245.37-57.36c-38.88-12.92-40.52-57.74-44.57-91.8-2.16-35.96-21.27-67.1-33.18-100.28 30.26-16.83 62.55-31.65 96.73-38.23 37.36 8.6 62.18 39.88 81.04 70.9 20.76 34.69 49 63.94 73.06 96.1-39.13-10.51-74.2-32.79-114.08-40.77-17.98 5.7-36.22 14.06-48.5 28.87-13.67 22.79-7.34 50.26-10.5 75.21m406.93-71.41c-57.98 13.67-128.25 12.66-172.82-33.05-26.21-23.42-57.11-69.51-22.54-99.39 13.04-20.01 38.87-16.21 59.38-14.44 26.46 16.34 44.82 42.8 71.54 58.75 56.47 17.6 110.53-10.76 160.92-32.79 9.75 61.28-45.2 102.81-96.48 120.91zm-1416.94-226.51c-18.87 7.59-43.81 6.96-56.22-11.53 4.18-37.73 16.33-74.2 20.89-111.93 4.31-61.28-90.15-83.94-72.43-146.87 36.6-20.51 78.26-30.89 120.17-31.27-9.38 41.91-27.35 83.69-20.39 127.37 19.12 43.43 54.83 79.26 64.58 126.87-11.4 22.79-33.06 38.75-56.6 47.36m-393.52-2.16c-3.8 1.9-11.4 5.57-15.2 7.47-5.31-56.09-15.57-111.29-28.61-165.99 45.96 12.03 91.67 26.08 135.86 43.81.25 4.56 1.01 13.55 1.39 18.1-18.11 42.29-54.57 73.57-93.44 96.61m-355.28-151.55-4.69 9.36c-31.53-24.69-63.3-51.91-82.55-87.74-13.55-24.44-12.15-56.09 4.69-78.63 39.75 16.33 82.04 32.04 114.45 61.03-6.2 33.17-18.11 65.21-31.9 95.98m1900.61-11.15c-27.09 16.21-57.6-11.65-72.3-33.55-15.57-20-22.02-60.14 6.21-72.17 59.76-12.16 130.29 9.37 181.31-33.18 21.15-15.06 26.72-41.53 44.19-59.5 3.04 13.55 7.98 28.1 1.52 41.53-26.34 74.57-98.89 115.21-160.93 156.87m-367.94-214.61c-16.33 13.04-38.11-5.32-49-18.11-21.02-33.55-34.95-83.06-7.85-117.24 15.7-22.16 37.48-40.77 63.06-50.52 25.7-5.32 52.16-2.66 78.11-.51-19.11 23.68-42.28 43.81-60.39 68.37-8.86 34.57-2.53 70.91-7.84 105.98-3.93 2.91-12.04 8.99-16.09 12.03m-948.47-190.68c-36.47 11.39-75.59 3.42-110.03-11.02 23.55-22.54 52.04-40.14 72.8-65.46 10.64-33.42 4.56-72.42-19.37-98.76-33.68-37.99-69.01-75.08-108.38-107.24-36.97 2.03-72.17 15.45-108.39 22.16-62.41 15.45-127.24 11.77-191.05 11.64-59.39.51-117.63-17.34-168.91-46.85-35.83-17.72-68.75-44.43-109.02-51.02-47.6 8.49-92.17 29-134.46 51.91-55.84 31.15-116.87 51.03-174.98 77.62-32.67 13.29-63.94 30.76-97.88 41.15-29.63-2.28-57.22-15.2-85.33-23.8-52.42-18.87-109.27-27.48-156.5-58.88-71.92-45.07-124.21-113.96-172.07-182.71-16.71-24.81-35.32-49-46.97-76.85 3.92-45.83 36.84-82.05 66.72-114.34 40.65-39.63 79.52-80.9 120.54-120.15 24.82-24.06 59.51-32.67 87.49-51.91 26.08-20.9 41.53-51.54 65.59-74.33 74.57 4.43 148.39 19.76 222.97 25.33 83.94 14.43 169.15 8.1 253.86 9.75 38.74-.38 78.76 2.28 116.1-10.52 56.85-16.96 98.89-64.7 125.22-116.1 24.19-46.97 47.36-97.24 49.13-150.8-8.35-41.4-49.25-61.41-76.47-89.14 34.94-28.86 78.88-4.56 110.91 16.09 43.3 28.48 45.59 85.46 59.64 130.41 44.31-24.18 92.43-75.21 146.11-45.2-18.99 26.59-44.19 48.99-58.11 79.01-12.29 39.37-4.56 83.05 19.75 116.23 24.94-47.48 41.15-103.57 87.23-136.12 37.99-27.34 92.56-44.94 102.06-97.49-4.81-21.39-9.75-44.94-25.83-60.9-20.89-12.28-44.19-19.25-66.09-29.38 22.53-33.3 67.99-28.61 102.05-20.38 32.03 23.17 56.97 55.21 75.08 90.02 9.75 26.59 7.22 55.97 6.08 83.7-2.28 40.89-30.65 74.06-37.86 113.69-2.53 21.28-1.4 42.68.88 63.82 7.22-.89 21.53-2.79 28.62-3.67 13.29-42.04 29-84.45 60.26-116.87 18.24 29.13 30.27 62.81 31.41 97.24-14.18 9.88-29.37 17.98-43.3 27.98-2.53 15.7-3.3 31.4-2.28 47.11 32.28-5.96 61.28-23.43 85.97-44.45 12.41-63.68-32.29-122.31-23.55-186.75 33.8 26.71 62.54 60.77 102.43 78.88 18.86-15.58 34.06-34.95 52.04-51.41 24.81 9.62 49.51 24.69 62.17 49 20.26 31.4 7.09 69.52 2.78 103.32-6.2 28.87-7.21 64.07-32.54 83.7-26.46 20-60.9 11.89-91.54 14.17 13.93 9.25 26.84 22.03 43.81 25.08 66.22-9.25 114.46-60.53 154.85-109.4 21.02-35.33 21.15-78.63 36.21-116.36 20.13 11.4 52.8 19.24 52.8 47.48 3.42 36.21 10.25 76.1 39.63 100.91 28.36 23.55 65.08 6.08 97.62 6.33.51 14.94-.64 29.5-3.54 43.94-26.97 33.55-66.48 53.05-101.43 77.1-26.08 22.04-61.28 11.27-92.17 12.79 19.38 13.81 41.02 36.22 67.1 26.59 16.21-8.22 30.9-19.37 46.73-28.23 24.94 6.33 47.35 19.75 72.04 26.97 44.57-5.19 87.37-31.66 133.2-19.88 23.05 40.52 32.03 87.61 30.64 133.95-22.16-11.14-42.79-25.07-66.09-33.8-22.41-2.15-43.31 13.04-59.26 27.35-17.09 54.32 14.44 102.05 37.1 148.39-12.54 29.25-42.79 47.23-74.45 37.1-29.63-35.45-30.51-85.46-56.72-122.56-29.38-24.69-67.11-35.96-101.8-51.03-37.61-13.8-76.98-34.69-118.13-23.68-52.67 8.61-102.56 31.54-156.37 33.81-42.29 1.65-84.84 2.28-127.12-1.01-22.41-1.14-44.95-10.38-59.89-27.6-52.55-63.06-65.34-149.91-120.16-211.45-11.52 7.85-22.42 16.58-32.16 26.34 18.23 34.81 45.96 64.32 59.51 101.54 4.55 28.36-5.07 56.6-16.71 82.05-17.61 35.2-59.89 41.4-91.29 58.49 25.19 16.34 54.44 3.17 78.75-7.72 30.77-17.1 36.09-55.97 51.66-84.45 8.73 13.04 17.85 26.21 23.3 40.89-5.07 36.34-19.88 71.92-42.29 100.92-19.76 13.67-46.85 10.51-69.39 17.6 17.6 12.02 40.64 28.35 61.92 14.43 27.98-21.02 47.6-50.39 71.66-75.46 8.48 13.55 16.08 27.73 21.52 42.79-.75 28.62-20 54.45-41.52 71.92-34.95 6.96-70.78-8.99-105.47.76 34.56 32.54 91.41 39.25 130.03 10.25 14.56-16.83 24.56-36.97 37.48-55.07 55.96 16.46 53.81 94.08 17.72 129.78-38.62-11.65-77.87-25.33-118.89-18.49 22.66 23.05 56.22 23.93 85.09 33.93 40.38 12.54 79 41.41 91.66 83.2 12.16 44.56 23.93 92.29 9.63 137.87-7.6 40.27-29.38 82.43-71.79 94.21m-1203.22-75.72c-31.28 7.85-64.96 4.81-92.56-12.79-81.41-47.1-163.46-95.59-232.59-160.17-52.93-54.94-93.57-128.38-88.13-206.88 33.43 35.96 56.6 80.27 91.67 114.83 31.65 31.79 62.05 64.83 96.49 93.32 55.95 40.77 123.95 59.01 189.66 76.86 44.32 12.02 90.79 26.71 122.69 61.66-26.33 17.34-56.47 27.09-87.23 33.17m1765.26-208.66c-40.26.76-82.81-3.29-116.48-27.48-36.09-23.42-51.79-78.12-22.42-112.81 27.99 5.69 48.88 25.57 61.42 50.39 18.98 35.58 49 62.42 77.48 89.9m-182.83-54.57c-36.21 5.95-80.65 4.94-96.35-34.95 11.39-26.71 30.51-49.88 38.49-78.12-3.55-41.91-42.42-68.25-64.2-101.42 86.48-37.98 181.19 3.3 252.09 54.95 3.67 26.72-4.56 53.05-12.4 78.25-31.15-7.47-65.59-41.15-95.72-14.94-18.37 28.62-14.94 64.32-21.91 96.23m445.43-128.26c-43.56 11.27-90.02 10.89-133.58.13-36.72-23.81-47.23-70.15-41.4-111.3 45.33-18.61 76.22 25.32 114.97 37.73 53.68.76 94.95-35.7 127.37-74.2 12.28 57.11-6.33 128.27-67.36 147.64m-268.93-405.8c-20.13 14.55-41.78-10.77-51.78-26.72-9.37-17.47-30.02-42.92-9.25-60.02 45.2-41.02 106.23-67.36 168.02-62.8-14.69 23.17-32.04 44.57-44.95 68.75-16.46 29.76-30.89 63.57-62.04 80.79m-373.64-160.05c-23.43-14.81-45.71-32.66-61.41-55.83-13.42-36.22 6.71-74.71 34.32-98.26 21.39-18.23 51.91-13.04 77.86-13.54 15.2-1.14 27.48 6.71 36.22 18.23-25.58 22.92-58.38 40.65-74.58 72.3-6.46 25.32-2.53 52.54-12.41 77.1M2788.25 1156c-57.11 10.64-121.93-3.79-160.04-50.39-15.2-12.28-15.44-32.29-16.21-50.26 51.53-11.27 78.88 41.65 120.29 59.88 32.66 5.83 65.96 3.42 98.76 6.97-13.17 12.53-26.59 25.19-42.8 33.8m-192.84-33.68c-42.28 1.27-77.48-30.77-94.32-67.23 4.68-46.59 11.64-93.313 4.18-140.156 64.82 14.175 128.13 49.504 157.76 111.546-23.3 7.34-54.07.76-71.28 21.27-15.71 23.42.5 50.14 3.66 74.57m317.81-159.406c-57.99 8.488-133.07 20.262-176.38-29.625-23.04-23.297.51-57.105 17.98-76.476 51.91 8.105 101.8 49.886 155.49 27.984 37.35-10.004 56.98-45.582 83.44-70.527.75 28.617 5.82 58.492-2.54 86.351-19.87 26.844-44.95 52.926-77.99 62.293M2623.9 571.039l-7.21 4.941c-26.34-9.746-57.74-22.031-66.85-51.66 4.55-21.015 8.61-48.113 30.63-57.988 31.53-14.684 65.97-22.789 100.16-28.359 3.16 2.148 9.62 6.328 12.91 8.355-16.08 44.442-30.39 94.961-69.64 124.711m-381.36-87.488c-58.37 20.387-109.14-54.949-79.9-106.098 28.62-36.973 75.47-56.598 121.43-59.133-10.64 23.68-25.45 45.203-34.69 69.383-2.03 28.363 7.97 55.84 9.75 83.82-4.06 3.04-12.41 8.993-16.59 12.028" style="fill:#ed1c24;fill-opacity:1;fill-rule:evenodd;stroke:none" transform="matrix(.13333 0 0 -.13333 0 794.667)" data-source="https://football-logos.cc"></path><!-- source: https://football-logos.cc --></svg>