<svg xmlns="http://www.w3.org/2000/svg" viewBox="35.32 120.6 710.34 710.34"><!-- Source: https://football-logos.cc --><path d="M559.748 484.56c0-147.116-119.263-266.379-266.378-266.379-147.117 0-266.38 119.263-266.38 266.379s119.263 266.379 266.38 266.379c147.115 0 266.378-119.263 266.378-266.38" style="fill:#231f20;fill-opacity:1;fill-rule:nonzero;stroke:none" transform="matrix(1.33333 0 0 -1.33333 -.667 1121.853)" data-source="https://football-logos.cc"></path><path d="M45.671 470.372c-.608 10.195 1.371 20.755 14.297 21.526 4.902.293 9.869-1.724 11.704-6.24l.446.028c1.812 5.855 6.053 9.751 12.738 10.15 11.515.687 16.053-9.133 16.603-18.35l1.448-24.265a1.79 1.79 0 0 0-1.676-1.888l-52.449-3.13a1.79 1.79 0 0 0-1.888 1.676zm21.71-1.508c-.167 2.794-.651 5.918-4.514 5.688-4.16-.248-3.65-3.792-3.484-6.585l.079-1.327 8.023.479zm21.201-.486-.129 2.165c-.187 3.142-.532 7.676-5.138 7.401-4.68-.278-4.314-5.162-4.13-8.235l.112-1.886zM51.542 532.504c-.903.385-1.513 1.493-1.354 2.461l2.648 16.223c.159.969.988 1.368 1.845.888l48.973-27.457c.856-.48 1.427-1.666 1.268-2.635l-2.04-12.493c-.158-.97-1.077-1.912-2.041-2.094l-55.164-10.452c-.964-.182-1.624.461-1.466 1.43l2.65 16.222c.158.968 1.088 1.834 2.066 1.924l31.271 2.848c.978.09 1.039.477.136.862zM72.527 597.704c4.635 9.1 11.685 17.207 23.224 11.331 4.377-2.228 7.64-6.48 6.938-11.304l.398-.203c4.526 4.133 10.155 5.348 16.124 2.309 10.28-5.234 9.223-16 5.033-24.23l-11.03-21.66a1.79 1.79 0 0 0-2.401-.78l-46.821 23.841a1.79 1.79 0 0 0-.78 2.401zm17.962-12.287c1.27 2.494 2.433 5.434-1.015 7.19-3.714 1.891-5.067-1.423-6.337-3.917l-.603-1.184 7.162-3.647zm18.04-11.149.984 1.933c1.429 2.805 3.426 6.89-.686 8.984-4.178 2.128-6.334-2.27-7.73-5.013l-.857-1.683zM149.49 653.376c13.379-12.055 12.64-28.996 1.87-40.95-10.77-11.953-27.544-14.447-40.923-2.393-13.103 11.807-12.813 29.249-2.091 41.15s28.04 14 41.144 2.193m-25.907-29.198c4.754-4.284 10.732-4.21 14.618.105 3.886 4.313 3.341 10.266-1.414 14.55-4.423 3.986-10.656 4.517-14.73-.005-4.073-4.521-2.898-10.666 1.526-14.65zM209.688 661.078c.894-.41.952-1.184.13-1.722l-15.507-10.153c-.821-.538-2.176-.555-3.01-.038 0 0-15.437 9.486-15.518 9.433-.08-.053 8.741-13.67 8.741-13.67a1.79 1.79 0 0 0-.515-2.471l-12.698-8.314a1.79 1.79 0 0 0-2.471.516l-28.782 43.958a1.79 1.79 0 0 0 .516 2.47l17.878 11.706c9.949 6.515 21.312 7.55 29.057-4.28 4.647-7.097 4.03-11.772-.555-17.797l.245-.373c1.268-.15 2.752-.245 4.527-1.04zm-41.308 8.506 1.113.728c2.633 1.725 4.982 3.885 2.699 7.372-2.365 3.61-5.05 2.475-7.8.674l-1.23-.804zM190.901 709.935a1.79 1.79 0 0 0 1.116 2.264l14.767 5.021a1.79 1.79 0 0 0 2.265-1.115l9.487-27.903c1.413-4.156 2.79-7.775 7.626-6.132 4.834 1.645 3.721 5.353 2.308 9.51l-9.487 27.902a1.79 1.79 0 0 0 1.115 2.265l14.767 5.021a1.79 1.79 0 0 0 2.265-1.115l10.11-29.735c5.27-15.5-1.475-25.654-15.449-30.405s-25.51-.813-30.78 14.687zM294.32 680.483c5.263-2.95 11.586-5.107 17.305-5.688 11.343-1.152 23.426 4.278 24.78 17.605.963 9.476-4.417 14.66-12.295 17.406l-4.21 1.474c-1.423.52-3.76 1.056-3.55 3.129.234 2.295 2.737 2.714 4.408 2.544 3.188-.324 6.05-1.685 8.532-3.618 1.949-1.517 2.367-1.182 3.04.225l4.714 9.83c.75 1.699.253 2.596-1.66 3.875-4.079 2.725-8.602 4.187-13.525 4.686-11.413 1.16-23.51-5.092-24.856-18.345-.887-8.736 4.903-14.037 12.206-16.2l3.753-1.13c1.703-.546 4.185-1.023 3.93-3.54s-3.331-3.027-5.21-2.837c-3.881.395-7.362 2.565-10.278 5.25-1.078 1.022-2.363 1.332-3.151-.373l-5.16-10.515c-1.019-2.067-.486-2.818 1.227-3.778M349.098 724.722a1.79 1.79 0 0 0 2.192 1.252l15.046-4.11a1.79 1.79 0 0 0 1.25-2.191l-13.838-50.687a1.79 1.79 0 0 0-2.193-1.251l-15.047 4.109a1.79 1.79 0 0 0-1.251 2.192zM379.508 664.13l-3.472-4.108c-.634-.75-1.864-.988-2.731-.53l-14.787 7.795c-.869.458-1.003 1.392-.298 2.076l39.818 38.603c.704.684 1.99.869 2.86.41l15.592-8.219c.869-.458 1.449-1.625 1.291-2.594l-8.947-54.89c-.157-.968-.997-1.386-1.865-.928l-14.789 7.796c-.867.458-1.388 1.613-1.154 2.566l1.291 5.27zm16.052 6.597s4.576 15.887 4.888 16.772l-.618.326-11.077-13.51zM465.917 624.231c-11.787-11.996-26.992-14.793-38.617-3.368s-9.094 26.675 2.694 38.67c11.162 11.36 26.511 13.805 37.887 2.626s9.2-26.57-1.964-37.928m-23.216 22.084c-3.026-3.078-7.61-9.84-3.769-13.615s10.524.927 13.548 4.006c3.234 3.291 7.287 9.012 3.196 13.032-4.092 4.02-9.74-.131-12.975-3.423M457.748 583.813l-10.063 16.341c-1.24 1.873-.668 2.612.96 2.065l18.956-5.169-1.632 2.364c-6.265 9.04-1.956 19.499 7.55 25.351 12.357 7.609 25.02 1.523 31.548-9.08 7.153-11.616 7.398-25.923-6.227-34.313-7.16-4.41-13.69-4.733-21.447-3.349l-15.385 2.762c-2.086.534-3.256 1.373-4.26 3.028m22.405 15.134c1.797-2.919 5.889-3.603 8.931-1.73 3.104 1.912 4.437 5.853 2.602 8.831-1.797 2.92-5.819 4.057-8.987 2.106-3.359-2.068-4.49-6.05-2.546-9.207M494.96 517.249c-1.307.055-2.543.424-3.72.845-6.76 2.41-11.424 9.134-13.176 15.677-3.02 11.285.394 23.278 13.549 26.8 12.652 3.388 23.02-3.685 26.078-15.105 2.697-10.074-.514-19.928-9.127-25.09a24 24 0 0 0-4.821-2.19c-1.962-.81-3.309-.789-4.21 2.73l-5.357 20.012c-.258.94-.696 1.731-2.201 1.201-2.462-.866-4.496-2.372-3.703-5.336.367-1.368 1.416-2.335 2.735-2.567 1.138-.201 1.507-.576 1.823-1.796l3.63-13.558c.356-1.51.026-1.687-1.5-1.623m8.847 19.358c2.588.693 4.49 3.085 3.82 5.586-.706 2.636-3.35 3.303-6.01 2.591zM539.289 467.613c.944-.269 1.689-1.29 1.654-2.27l-.582-16.428c-.035-.98-.808-1.482-1.718-1.114l-52.045 21.06c-.91.37-1.626 1.473-1.59 2.454l.447 12.652c.036.98.827 2.032 1.762 2.334l53.403 17.326c.935.303 1.67-.252 1.635-1.232l-.582-16.428c-.036-.98-.849-1.957-1.807-2.168l-30.662-6.77c-.959-.212-.971-.605-.026-.873zM76.34 350.977a1.79 1.79 0 0 0 .363 2.498l42.1 31.437c.787.587 1.911.424 2.498-.363l10.61-14.208c10.589-14.18 12.089-29.996-4.43-42.33-13.356-9.974-28.436-7.44-37.686 4.947zm23.876-3.865.712-.952c3.809-5.1 9.243-7.155 15.146-2.746 6.321 4.719 6.451 10.142 2.266 15.747l-.711.953zM179.42 287.301c-10.939-14.305-27.885-14.932-40.665-5.157-12.781 9.772-16.617 26.291-5.677 40.597 10.714 14.01 28.122 15.125 40.847 5.394s16.21-26.823 5.496-40.834m-31.187 23.475c-3.888-5.084-3.332-11.036 1.28-14.563s10.502-2.505 14.39 2.58c3.617 4.729 3.644 10.984-1.19 14.681s-10.864 2.032-14.48-2.698M222.876 240.803c.172-.967-.433-1.454-1.342-1.084l-17.168 6.985c-.91.37-1.694 1.475-1.742 2.456 0 0-.972 18.092-1.061 18.128-.09.036-6.277-14.962-6.277-14.962a1.79 1.79 0 0 0-2.326-.98l-14.06 5.72a1.79 1.79 0 0 0-.98 2.326l19.803 48.666c.37.91 1.417 1.35 2.326.98l19.794-8.053c11.015-4.481 18.326-13.241 12.997-26.338-3.197-7.857-7.394-10.006-14.957-9.661l-.168-.414c.598-1.127 1.363-2.403 1.718-4.314zm-16.483 38.82 1.231-.5c2.917-1.187 6.028-1.891 7.599 1.97 1.627 3.998-.834 5.56-3.88 6.8l-1.36.555zM239.364 274.473l2.58 16.244a1.79 1.79 0 0 0 2.043 1.484l36.269-5.763a1.79 1.79 0 0 0 1.483-2.042l-2.58-16.244-10.35 2.171-6.025-37.925-18.93 3.007 6.024 37.925zM326.64 234.579c-.17-.967-1.108-1.845-2.084-1.951l-7.58-.82c-.976-.107-2.074.551-2.441 1.463l-10.6 26.31c-.368.911-.652.853-.632-.128l.529-27.282c.018-.982-.765-1.87-1.74-1.977l-14.881-1.611c-.976-.106-1.74.61-1.698 1.59l2.288 53.138c.042.98.875 1.87 1.851 1.976l16.063 1.74c.976.107 2.05-.562 2.387-1.485l9.183-25.16c.337-.923.731-.883.878.088l4.013 26.605c.146.97 1.064 1.85 2.04 1.957l15.855 1.718c.976.105 1.983-.584 2.236-1.532l13.745-51.405c.253-.947-.338-1.81-1.314-1.916l-14.88-1.61c-.976-.107-1.937.594-2.134 1.556l-5.513 26.741c-.197.961-.499.958-.668-.01zM376.199 302.96a1.79 1.79 0 0 0 .943 2.342l14.353 6.107a1.79 1.79 0 0 0 2.34-.943l12.295-28.9c6.41-15.065.44-25.692-13.142-31.47-13.582-5.78-25.378-2.71-31.787 12.354l-12.296 28.9a1.79 1.79 0 0 0 .944 2.34l14.352 6.107a1.79 1.79 0 0 0 2.342-.943l11.537-27.12c1.72-4.04 3.363-7.546 8.063-5.546 4.697 1.999 3.311 5.614 1.592 9.654zM446.136 283.937a1.79 1.79 0 0 0-.258-2.511l-11.443-9.32a1.79 1.79 0 0 0-2.511.258l-33.179 40.741a1.79 1.79 0 0 0 .257 2.512l11.498 9.363c.76.62 2.13.828 3.04.462l28.341-11.388c.91-.366 1.142-.048.512.706l-16.835 20.18a1.764 1.764 0 0 0 .24 2.497l11.443 9.32c.762.619 1.892.504 2.512-.257l33.178-40.742a1.79 1.79 0 0 0-.257-2.51l-11.444-9.32c-.76-.62-2.132-.838-3.05-.485l-27.155 10.462c-.917.353-1.158.018-.54-.743zM453.165 368.031c10.08 14.547 24.6 20.996 41.544 9.256 13.7-9.495 16.091-24.599 7.286-37.306l-12.81-18.484a1.79 1.79 0 0 0-2.483-.452l-43.186 29.93a1.79 1.79 0 0 0-.45 2.483zm32.097-22.668.678.978c3.626 5.232 3.846 11.037-2.21 15.233-6.484 4.494-11.667 2.894-15.651-2.856l-.678-.977zM233.747 559.61c-9.923-6.107-14.501-14.756-17.555-21.372-3.052-6.614-8.141-11.448-13.23-13.738-5.087-2.29-1.526-5.598 2.29-8.396s1.018-6.615-8.142-15.01c-9.159-8.396-18.572-14.758-31.04-26.716-12.466-11.957-14.246-13.23-16.79-12.721-2.545.509-2.29 5.343-1.527 11.96.763 6.614 1.781 8.649 5.851 11.193s2.8 4.58 0 4.58-7.378-2.545-9.414-2.29.255 5.597 5.09 10.431c4.834 4.835 6.614 8.396 11.957 14.757s13.993 12.212 20.1 14.248c6.106 2.035 10.685 1.526 11.194 3.307s-.254 4.325-.254 4.325-10.533-.687-19.693 4.809c-9.159 5.495-16.257 17.402-16.486 35.491-.228 18.09 12.594 29.997 21.066 35.721 16.127 10.897 36.942 7.748 49.918.687 12.975-7.06 20.47-16.793 22.211-24.042.703-2.93.497-5.76.127-7.823-.352-1.97-.125-2.791.997-2.552a6.1 6.1 0 0 0 3.227-.16c2.378-.792 3.526-2.952 4.053-4.467.32-.918-.49-1.882-2-2.4-4.526-1.557-14.508-5.243-21.95-9.823m-46.305 17.556c-2.414-.804-3.815-3.562-3.307-9.16.509-5.596 1.272-8.396 5.852-8.141 4.579.255 7.378-5.597 4.579-5.851-2.798-.255-7.632-2.29-7.632-5.852s4.325-6.361 7.124-6.615 9.922 1.527 9.667 9.413c-.254 7.888 3.309 13.23 9.669 16.538s12.466 4.326 14.502 7.378 2.036 13.484-5.343 22.898-18.064 9.668-26.206 7.633c-8.141-2.036-11.194-3.562-10.431-5.597s1.78-1.526 8.142-.255c6.36 1.272 11.194 0 12.721-4.07s2.8-7.125 4.58-8.651 4.579-6.105 1.271-8.396c-3.307-2.29-4.325.763-6.87 3.816-2.543 3.054-6.614 2.036-6.868-.508s2.29-5.598 1.017-8.65c-1.272-3.054-4.07-3.054-6.106.508s-4.07 4.325-6.36 3.562M203.217 419.932c-1.757.293-7.378-8.904-14.248-18.063-6.87-9.16-11.704-18.318-12.72-26.206-1.019-7.888 1.526-13.485 7.378-20.354 5.851-6.87 9.159-10.94 12.212-6.615s2.543 12.467 8.141 21.118 6.107 18.064 5.343 30.53-4.58 19.335-6.106 19.59M189.478 455.042c-3 1.394-12.467-3.562-20.1-9.159-7.632-5.597-12.975-13.993-12.975-25.95 0-11.959 2.798-24.68 1.781-32.82-1.018-8.142-2.798-8.651-6.615-12.213-3.816-3.563-3.307-6.361 2.29-6.361s14.502 4.325 18.573 11.449 2.799 13.738 2.035 21.626c-.763 7.887-1.018 13.993 3.562 8.905s7.887-6.615 10.177.254c2.29 6.87 4.58 17.555 5.597 22.898s2.799 18.064-4.325 21.371M144.445 450.718c-2.774.37-8.65-7.38-10.94-15.775-2.29-8.396.254-18.064 3.053-26.205 2.798-8.142 8.65-10.687 10.177-9.923s6.106 1.527 6.615 15.011 2.544 35.365-8.905 36.892" style="fill:#f8db35;fill-opacity:1;fill-rule:nonzero;stroke:none" transform="matrix(1.33333 0 0 -1.33333 -.667 1121.853)"></path><path d="M149.788 549.688c-1.08-4.678 2.799-4.834 9.922-5.853 7.124-1.018 6.616-7.632 5.853-10.685-.764-3.053-4.58-8.396-10.178-16.283-5.597-7.887-13.23-13.485-19.59-24.17s.763-11.958 4.326-11.958 3.816-2.545 1.78-12.466c-2.036-9.922-6.126-15.107-10.43-20.608-4.58-5.853-7.888-9.415-9.415-4.835s-4.07 14.247-4.07 24.424c0 10.178 1.78 14.248 3.56 20.863 1.782 6.615-1.271 7.125-5.088 6.87-3.815-.255-7.887 4.071.255 12.721s16.538 15.774 19.082 18.064-2.29 3.307-6.615 2.035-6.106 1.526-2.544 5.597 4.07 4.072-1.018 6.107-6.615 6.615-1.526 7.124c5.088.508 5.343.508 5.343 9.413s3.307 15.775 11.957 24.68 12.466 10.43 9.668 3.816c-2.799-6.615-5.342-10.687-5.088-14.249.254-3.56 5.23-4.352 6.36-8.65 1.272-4.833-1.78-8.65-2.544-11.958M429.653 506.69c-10.236 3.656-16.028 3.816-15.52-.763.509-4.58 5.598-7.888 9.16-15.775 3.56-7.886 6.614-15.775 7.123-25.696.508-9.922 1.273-17.557-4.834-13.23-6.106 4.325-12.211 8.14-11.449 2.29s2.289-9.415 7.632-14.248 9.413-3.053 9.16-9.922c-.255-6.87 2.035-10.685 6.106-16.029 4.072-5.343 9.158-8.651 8.905-3.053-.103 2.274-.165 4.38-.2 6.08-.054 2.483 1.125 4.51 2.916 5.307 1.929.859 4.568 2.164 7.206 3.88 5.088 3.306 7.377 3.56-.255 8.395s-11.957 7.378-5.342 9.667c6.615 2.29 9.668 6.616 5.597 9.924-2.734 2.22-7.767 7.43-10.775 10.608-1.469 1.553-2.535 4.035-2.65 6.186a901 901 0 0 0-.405 8.387c-.06 1.375 1.064 4.69 2.766 5.587 1.763.927 4.034 2.158 5.976 3.323 3.816 2.29 3.561 6.36-2.544 10.177s-11.449 6.362-18.573 8.905M370.88 511.842c-2.146 0-6.44-1.144-8.014-4.722s-.572-8.015 2.577-10.447c3.148-2.433 8.586-3.15 11.592-1.431 2.515 1.438 5.724 4.15 6.869 8.443 1.145 4.294-2.433 4.723-4.15 6.297s-4.437 2.147-4.723-.715c-.286-2.863-2.29-5.295-2.433-2.147s-.143 4.722-1.717 4.722" style="fill:#f8db35;fill-opacity:1;fill-rule:nonzero;stroke:none" transform="matrix(1.33333 0 0 -1.33333 -.667 1121.853)" data-source="https://football-logos.cc"></path><path d="M386.4 334.702c-2.035-3.054-4.833-2.544-9.159-.509-4.325 2.035-4.833-3.307-5.343-8.142s-4.58-1.781-9.16 1.019c-4.578 2.8-6.613-2.036-9.92-6.616-3.308-4.58-5.853-4.07-9.924 1.273s-6.36 2.034-10.94 2.034-5.342 3.561-8.395 6.36c-3.054 2.798-8.396-2.544-11.704-7.378-3.31-4.834-8.65-1.526-11.703 4.326s-3.053 9.667-7.125 9.412c-4.07-.254-6.614 2.545-7.886 7.888-1.587 6.663-3.562 4.325-6.616.255-3.052-4.071-8.141-5.344-10.43-5.089-2.29.255-.764 6.361.254 15.265s.255 15.775.255 15.775-8.284-5.686-13.485-18.573c-5.852-14.502-2.544-18.064-4.325-21.88-1.781-3.818-6.154-.76-6.367 1.533-.215 2.292-.342 5.345.006 8.389 1.018 8.904 3.308 14.756 7.887 22.643 4.58 7.887 9.668 13.485 9.668 13.485-12.467-4.58-20.1-10.686-26.969-19.59-3.946-5.117-7.22-8.973-9.293-11.33-1.534-1.743-3.033-1.005-2.49 2.182.309 1.803.735 4.607 2.115 7.366 3.817 7.633 12.212 15.265 19.59 20.355a985 985 0 0 0 11.959 8.14c-17.301-2.035-25.443-8.904-31.803-15.265-3.18-3.18-5.661-5.089-7.347-6.2-1.685-1.114-2.156 1.307-1.83 2.534 1.465 5.532 4.757 9.469 13.502 16.133 10.686 8.141 25.442 8.905 25.442 8.905 4.071 4.58.509 9.922.509 9.922s-11.703-1.271-19.59-7.633c-3.652-2.943-6.617-6.078-8.814-8.541-3.226-3.617-5.857-5.044-7.68-5.566-1.825-.521-1.734 2.254-.782 3.732 3.365 5.22 9.688 12.318 15.24 16.481 7.123 5.344 18.318 11.195 18.318 11.195s-2.29 1.781-6.105 1.527-5.09.254-4.835 6.106-.763 8.905-4.07 8.65-2.545-7.124-6.87-13.994c-4.325-6.869-8.905-6.614-10.177-6.105s-2.035 14.756-2.544 29.004c-.51 14.247-.763 24.17-2.544 24.17s-2.545-2.799-4.834-6.87c-2.29-4.07-5.851-9.668-8.65-8.65s-3.817 8.142-3.562 16.537c.254 8.396-.255 13.485-3.308 13.485s-4.325-3.053-7.378-9.414-8.141-7.633-10.94-7.633c-2.8 0-4.07 8.397-1.018 14.249 3.053 5.851 8.905 15.265 17.555 23.406 7.08 6.664 11.195 9.668 19.082 13.74 8.23 4.247 10.686 16.536 16.283 25.95s12.975 14.502 16.792 15.01c3.815.51 5.088 5.09 2.035 6.361-3.054 1.272-2.799 1.781-.763 3.308s4.58 4.325 9.413 5.088c4.835.764 9.414 1.272 15.012 6.87 5.597 5.598 8.395 11.449 11.703 17.555s6.106 8.141 9.413 8.141 3.053-2.544 3.562-10.176c.509-7.633 7.125-11.704 11.195-14.757s2.799-11.958 2.799-20.1c0-8.141 4.324-10.685 7.123-10.685s6.87.509 8.905-4.07c2.036-4.58 3.308-8.143 5.597-10.178s3.053 2.29.764 7.887c-2.29 5.598-2.036 12.467-2.036 16.792s5.852 8.396 8.905 10.432c3.054 2.035 3.308 6.105 2.036 4.833-1.273-1.271-5.344-1.272-8.396-2.035s-1.528 4.834-.764 11.195c.764 6.36-4.58 4.834-8.395 1.526-2.192-1.9-3.563 1.782-3.563 6.87s-3.815 7.124-8.395 7.124-3.309 5.597-4.07 11.703c-.764 6.106-3.055 8.141-7.379 5.597-4.325-2.544-5.852-1.272-5.343 2.036.508 3.307 2.29 6.106.508 7.887-1.781 1.781-3.307-1.527-8.905-9.414s-9.922-10.177-12.72-10.177-5.597.254-4.325 3.308 3.815 7.632 5.851 14.756.509 13.739-4.326 19.336c-4.834 5.597-7.632 5.852-7.123 2.544.509-3.307 2.544-13.484 2.29-22.898s-1.018-10.94-3.562-10.176-5.088 3.053-5.343 8.65-4.834 8.396-7.124 8.396-3.816-1.018-3.561-5.343 1.017-8.141-1.527-6.87c-2.544 1.273-6.474 6.466-20.354 11.704-13.485 5.088-28.762 4.222-32.82 3.817-2.545-.255-3.816 3.816 6.36 8.65 10.177 4.833 16.283 4.326 24.425 3.562s7.887-1.272 7.887 2.799-.255 5.85 5.596 4.834c5.853-1.018 9.669 0 9.669 5.343s2.036 7.632 11.958 8.141 21.117 2.29 30.276-7.632c9.16-9.923 11.194-15.011 12.975-13.485 1.781 1.527 4.581 1.526 3.817 11.958-.763 10.431-1.27 15.774 2.29 14.248 3.561-1.527 4.58-2.799 6.36-6.615s4.833-4.326 8.65-.51c3.817 3.817 7.38 6.36 7.888 4.58.51-1.78.51-5.343-2.545-9.16-3.053-3.815-5.596-5.596-5.596-12.974s-.255-11.449-4.835-13.739-5.088-6.106-2.29-12.976 6.616-10.686 8.397-8.65c1.78 2.035 1.272 6.615 5.088 6.615s3.561-6.87 5.342-3.817c1.782 3.053 2.035 8.396 2.29 22.898s3.307 20.355 6.87 23.408c3.562 3.053 5.85.254 6.87-4.071 1.017-4.326 3.052-9.923 9.413-4.58 6.36 5.343 9.414 5.852 9.16-1.272-.256-7.124.253-10.431 5.596-8.141 5.344 2.29 9.16 5.342 9.16-1.527 0-6.87 2.799-8.396 9.923-7.887 7.123.509 14.247-2.29 15.264-5.598 1.018-3.307 1.273-6.614-2.798-10.685-4.071-4.07-7.633-8.397.509-8.651s15.011-2.035 20.354-8.142c5.342-6.106 5.597-11.958 6.614-15.52 1.018-3.56 4.58-4.58 7.378-6.106 2.8-1.526 6.36-5.597 10.177-16.282s4.325-20.354 3.563-23.916c-.764-3.562-2.545-3.816-6.362-2.544-3.816 1.272-5.343-.254-1.017-5.089 4.326-4.834 6.107-10.94 4.835-16.028-1.273-5.089-6.107-3.561-11.196 2.544s-10.685 13.738-16.537 17.81c-5.852 4.07-7.632 7.633-13.992 15.265s-11.96 13.23-5.599 13.23 9.668-3.816 15.012-7.633c5.342-3.816 9.923-4.58 10.94-3.053s1.271 3.562-8.142 13.23-14.756 11.958-18.063 14.248c-3.308 2.29-3.816 5.088 2.798 7.124 6.615 2.035 8.65 3.052 4.071 6.36s-7.378 1.527-10.431-.509c-3.054-2.035-4.835-.254-8.65 2.036-3.817 2.29-9.67 4.07-9.924 9.16-.254 5.087.256 8.395 3.308 9.921 3.053 1.527 3.815 7.888-1.527 7.888s-7.633-3.308-11.45-4.835c-3.815-1.526-4.832 0-5.596 3.308s-3.817 1.78-7.633 1.272c-3.816-.509-5.343 1.018-5.597 5.089-.254 4.07-4.58 6.106-5.597 0s-4.834-13.994-2.544-17.301 4.58-2.545 7.379.509 5.341-.51 5.341-3.307c0-2.8 1.781-2.545 5.852-2.545s5.597-4.326 5.597-8.142 1.783-4.07 4.835-4.07 3.815-5.852 4.834-7.633 6.105-3.308 9.667-8.905 4.58-11.195 5.344-17.81c.763-6.614 3.816-12.211 7.378-17.3 3.562-5.088 4.325-15.01 4.58-24.425.254-9.413 0-17.3-3.308-21.371s-6.104-7.885-4.325-15.774c1.78-7.887 2.544-13.23 3.817-21.88 1.272-8.65 1.272-15.521-1.781-15.775s-9.414.254-9.668-2.29c-.255-2.543.508-3.307 2.798-5.597s2.035-9.159 2.035-9.159 8.142 3.562 17.3 2.29c9.16-1.273 17.81-6.106 26.461-17.555 0 0 7.151-3.093 13.198-7.424.89-.638 2.67-3.704 1.522-5.036-.73-.844-5.118-.609-7.335.766-3.552 2.205-10.016 5.566-19.598 8.132-14.247 3.816-26.205 5.852-31.802-1.526 0 0 7.378 1.526 20.862-.255 9.467-1.25 17.038-4.13 22.472-7.003 1.714-.905 4.03-4.303 2.728-5.476-.952-.855-7.037.036-9.064.974-3.236 1.498-8.003 3.483-16.136 4.89-13.23 2.29-18.571.761-20.098-.51-1.528-1.27-2.036-2.543 3.816-3.816 4.828-1.05 12.944-3.83 19.351-8.628 1.36-1.017 3.8-5.409 1.932-6.609-.904-.58-5.502.403-7.698 2.052a57.6 57.6 0 0 1-7.988 5.044c-6.87 3.562-13.739 3.817-13.739 3.817s-1.634-9.493-16.792-11.45c-15.774-2.035-22.388 0-24.17 4.072-1.781 4.07-3.053 10.43 8.396 16.79 11.449 6.362 16.792 11.45 21.372 16.03s4.071 11.957 2.29 14.502-3.308-1.526-6.361-4.58c-3.053-3.053-6.87-2.8-8.905-.764s-4.579 1.02-8.14-.762c-3.563-1.781-12.468-2.036-17.557-.255s-7.887 2.799-11.449-.509-7.123-5.597-10.685-1.017-6.869 6.868-7.887 2.543c-1.019-4.324-5.09-6.615 3.561-11.957s16.539-11.957 22.135-17.3c5.597-5.343 6.361-11.194 2.799-16.028-3.562-4.835-18.065-7.635-28.75-6.107s-17.047 5.087-21.88 7.886c-4.834 2.8-9.159.254-6.87-4.58s5.343-5.597 8.65-4.579 9.415 0 18.065-2.29 18.827-1.525 25.187 1.528c6.362 3.052 8.395 4.58 12.213 4.58 3.816 0 6.106-1.782 11.195-3.055 5.088-1.272 10.939.256 18.572 2.037s9.158 1.526 14.247-1.781 4.827-11.957 3.817-17.81c-1.272-7.38-5.597-7.632-7.632-10.685m11.448 71.746s6.616 3.307 28.241-1.781c0 0-4.834 6.107-14.502 7.124-9.668 1.018-14.248-1.272-13.739-5.343m-19.335 27.224c-3.308 0-3.561-3.818-1.018-4.071 2.544-.254 4.833 0 4.325 1.78-.509 1.782-1.781 2.29-3.307 2.29m-63.351 17.048c-2.013.402-2.546-5.344-3.308-10.178-.763-4.833-1.527-11.195 2.036-13.738 3.562-2.544 5.851-1.017 5.851 1.527s-4.58 3.816-4.58 9.413 1.273 12.722 0 12.976m-33.328-22.644c-2.21 1.473-3.054-4.07-2.036-8.396 1.017-4.325 4.833-7.888 5.851-4.834 1.018 3.053.764 10.176-3.815 13.23m10.94-22.39c-1.8 1.44-2.291-2.288-1.019-3.052 1.272-.763 3.563 1.017 1.018 3.053m10.431-5.088c-1.797.064-3.816-2.8-1.527-4.072 2.29-1.272 2.591.245 2.8 1.273.286 1.414.03 2.751-1.273 2.799m8.858-13.407c-1.898-.211-1.718-1.144-.287-1.86s2.576.143 2.29.858c-.286.716-.716 1.146-2.003 1.002m11.735-2.29c-1.528-.38-1.289-1.716 0-2.146 1.287-.429 2.29-.143 1.717 1.002s-.573 1.431-1.717 1.145m-30.77 170.447c3.865 1.176 5.009 3.578-.143 6.153-5.152 2.577-12.165 3.436-17.03-.858s-9.016-9.875-9.446-10.876c-.43-1.002 1.002-2.29 4.437-1.432 3.434.859 6.726 4.293 8.587 5.868 1.86 1.574 10.303.143 13.595 1.145m2.72-15.027c-1.134 1.482-2.72-3.578-7.156-7.585-4.437-4.007-8.015-5.867-14.168-5.581-6.154.286-10.59-2.147-10.162-3.578.43-1.432 5.439-1.574 6.584-3.578s1.001-5.152 3.434-5.152 2.164-1.865 2.004-4.58c-.286-4.866.716-3.291 2.576-.286 1.278 2.065 4.15 1.717 6.01 1.717 1.862 0 3.292-4.293 1.862-7.727-1.432-3.435-6.44-7.586-12.165-6.298s-7.299 4.15-7.728 8.015c-.43 3.864.858 5.867 1.574 7.012s-2.004 1.288-5.295.144c-3.292-1.146-7.013-3.435-11.306-5.725s-8.444-3.578-11.592-6.44c-3.149-2.863-4.866-5.581-4.58-7.442s1.145-3.578 4.437-1.86c3.291 1.717 4.436 7.155 8.014 9.016s9.016 1.717 12.021.286 5.868-3.006 10.448-5.296c4.579-2.29 8.586-3.005 12.307-1.287s5.868 1.43 8.444-.573 3.291-4.866 3.434-8.157 1.432-5.439 3.578-5.725 3.15 2.147 1.86 6.726c-1.287 4.58-2.575 7.013-5.294 10.591-2.72 3.578-2.433 6.726-2.433 9.159s-1.288 6.297-4.007 8.444c-2.72 2.147-1.574 4.58-.143 6.583 1.43 2.003-.573 5.725 3.434 9.445 4.008 3.722 5.868 7.3 4.008 9.732m65.974-7.728c-2.284-.158-1.43-3.72-2.147-5.724-.715-2.004-2.003-6.012-5.295-6.012s-7.012.573-2.576-3.577c4.437-4.15 6.011-10.304 4.723-13.024-1.288-2.718-4.865-4.293-8.3-2.861-3.435 1.43-6.011 2.861-5.725.715s3.005-2.004 6.727-4.58c3.72-2.575 7.441-7.87 8.013-12.737.573-4.866-.715-9.445 1.146-11.162s4.865-5.868 5.295-8.015.43-8.3 1.86-6.726 2.862 6.87-.286 10.304-4.723 6.154-4.723 9.16c0 3.004 1.002 4.15 3.864 3.72 2.863-.429 6.154-2.576 8.3-6.583 2.148-4.007 2.863-6.583 3.15-12.594.285-6.01 1.144-9.588 3.29-4.866 2.148 4.723 2.72 4.866 4.724 5.438s-.143 4.008-2.29 6.44-3.72 5.868-8.015 10.162c-4.293 4.293-6.44 4.579-6.44 7.585 0 3.005-.286 4.436 3.435 4.293s7.728-.143 13.31 5.295c5.58 5.438 5.438 9.732 6.726 11.02s.286 3.72-2.147 6.01-5.438 2.147-8.014 2.004-3.149.716-3.149 4.15.716 5.153-.715 4.723-3.292-4.15-6.87-6.44-4.293-5.152-5.58-6.297c-1.29-1.144-3.435-1.574-4.724.143-1.288 1.717-2.575 3.005-.286 6.297s6.87 14.025 2.72 13.74m12.164 32.485c-2.573.198-4.294-2.29-4.294-4.866s1.145-4.865 4.15-7.012 3.865-6.011 5.725-8.157 3.578-4.866 5.01-3.578c1.43 1.288 1.43 5.152.571 6.87-.858 1.717-4.15 3.72-6.01 5.724s-1.718 4.293-2.004 6.87c-.286 2.575-1.288 4.007-3.148 4.15M502.162 502.97a9.255 9.255 0 1 0-18.51 0 9.255 9.255 0 0 0 18.51 0M500.35 452.117a9.255 9.255 0 1 0-18.51 0 9.255 9.255 0 0 0 18.51 0M253.644 676.46c5.755-1.81 12.386-2.628 18.103-2.026 11.338 1.193 22.055 8.981 20.653 22.303-.997 9.473-7.324 13.447-15.596 14.521l-4.423.583c-1.5.217-3.897.263-4.114 2.335-.242 2.294 2.123 3.217 3.793 3.392 3.186.336 6.266-.411 9.09-1.795 2.22-1.085 2.56-.673 2.932.842l2.602 10.588c.385 1.815-.284 2.593-2.42 3.452-4.548 1.833-9.274 2.338-14.197 1.82-11.407-1.2-21.968-9.796-20.574-23.044.919-8.733 7.671-12.736 15.262-13.36l3.906-.337c1.777-.186 4.305-.144 4.57-2.66s-2.641-3.646-4.52-3.844c-3.878-.408-7.73 1.004-11.133 3.035-1.265.78-2.586.82-3.008-1.01l-2.9-11.349c-.574-2.23.101-2.857 1.974-3.446" style="fill:#f8db35;fill-opacity:1;fill-rule:nonzero;stroke:none" transform="matrix(1.33333 0 0 -1.33333 -.667 1121.853)" data-source="https://football-logos.cc"></path><!-- source: https://football-logos.cc --></svg>