<svg xmlns="http://www.w3.org/2000/svg" viewBox="26.53 115.48 736.22 848.18"><!-- Source: https://football-logos.cc --><path d="M294.489 751.991c-.389-.544-39.995-54.803-133.747-84.017-80.16-24.98-136.449-15.06-137.008-14.957l-2.688.496-.2-2.726c-.03-.391-2.774-39.817 5.723-98.368 7.838-54.005 27.118-135.88 74.456-219.234 46.86-82.511 97.134-136.247 131.056-166.796 36.838-33.175 62.207-46.597 63.268-47.152l1.135-.593 1.136.593c1.061.555 26.43 13.977 63.267 47.152 33.922 30.55 84.195 84.285 131.055 166.796 47.339 83.355 66.619 165.229 74.456 219.234 8.498 58.551 5.753 97.977 5.724 98.368l-.2 2.726-2.689-.496c-.559-.103-56.847-10.022-137.008 14.957-93.75 29.214-133.358 83.473-133.747 84.017l-1.994 2.79z" style="fill:#604c39;fill-opacity:1;fill-rule:nonzero;stroke:none" transform="matrix(1.33333 0 0 -1.33333 -.667 1121.853)" data-source="https://football-logos.cc"></path><path d="M162.2 663.296c83.712 26.085 125.106 72.024 134.283 83.296 9.178-11.272 50.573-57.21 134.284-83.296 71.414-22.254 124.31-17.165 136.611-15.508.127-2.784.292-7.703.292-14.478 0-16.822-1.015-45.064-6.143-80.339-7.785-53.552-26.916-134.732-73.845-217.367-46.48-81.842-96.3-135.13-129.908-165.424-32.175-29.002-55.996-43.01-61.29-45.976-5.294 2.965-29.114 16.974-61.29 45.976-33.609 30.293-83.427 83.582-129.908 165.424-46.93 82.635-66.06 163.815-73.846 217.367-5.128 35.275-6.142 63.517-6.142 80.339 0 6.775.164 11.694.291 14.478 12.301-1.657 65.197-6.746 136.611 15.508M80.884 407.078h430.914l.272-.034c23.208 56.526 34.576 108.595 40.138 146.539 5.084 34.689 6.152 62.504 6.152 79.73l-.021 4.127-2.6-.17c-22.369-1.496-68.71-1.256-127.741 17.137-70.443 21.951-111.526 57.12-129.746 76.128l-1.769 1.846-1.769-1.846c-18.219-19.01-59.301-54.177-129.744-76.128-59.031-18.394-105.373-18.633-127.742-17.137l-2.6.173-.02-4.13c0-17.226 1.067-45.041 6.152-79.73 5.538-37.781 16.832-89.565 39.84-145.81zm4.08-9.697c8.082-18.751 17.484-37.925 28.418-57.178 45.597-80.289 94.368-132.624 127.251-162.391 25.008-22.637 44.918-36.04 54.56-42.015l1.291-.8 1.29.8c9.643 5.975 29.553 19.378 54.56 42.015 32.884 29.766 81.654 82.1 127.252 162.39 11.012 19.39 20.47 38.7 28.59 57.578l-.543-.012H84.805Z" style="fill:#9d8750;fill-opacity:1;fill-rule:nonzero;stroke:none" transform="matrix(1.33333 0 0 -1.33333 -.667 1121.853)"></path><path d="M92.318 392.868h407.965l.39-.009a577 577 0 0 0-25.348-50.237c-45.277-79.724-93.662-131.653-126.28-161.177-23.67-21.427-42.648-34.437-52.56-40.674-9.914 6.237-28.892 19.248-52.563 40.674-32.618 29.525-81.004 81.455-126.28 161.177a577 577 0 0 0-25.16 49.815z" style="fill:#792e29;fill-opacity:1;fill-rule:nonzero;stroke:none" transform="matrix(1.33333 0 0 -1.33333 -.667 1121.853)"></path><path d="M84.194 411.938C62 466.845 51.027 517.325 45.608 554.294c-4.94 33.694-6.053 60.8-6.096 77.933 23.571-1.32 69.294-.453 126.916 17.502 69.385 21.621 110.72 55.923 130.055 75.618 19.335-19.695 60.672-53.997 130.057-75.618 57.623-17.956 103.344-18.821 126.916-17.502-.044-17.132-1.157-44.24-6.097-77.933-5.417-36.959-16.385-87.42-38.566-142.308l-.424-.008H84.723z" style="fill:#c5683e;fill-opacity:1;fill-rule:nonzero;stroke:none" transform="matrix(1.33333 0 0 -1.33333 -.667 1121.853)"></path><path d="M390.25 423.858c-9.664-.633-15.368-.158-15.368-.158-.633-3.644-3.168-3.802-6.495-3.169-3.327.634-7.13 4.437-7.13 4.437s-4.12-2.377-9.036-1.337-5.54 2.763-8.55 2.763-6.337 2.217-5.229 4.753c1.11 2.535 2.694 4.119-1.425 3.96-4.12-.158-5.704-.158-9.506.317s-6.18-.475-6.18-.475-.158-1.426 1.744-3.802c1.9-2.377.792-4.12-3.17-6.497-3.96-2.376-7.129-2.692-10.139-1.108s-2.852 5.386-2.852 5.386c-3.96 3.961-12.833 13.468-13.466 17.428-.634 3.961 2.218 6.654 7.287 9.823 5.07 3.168 5.862 7.763 5.862 7.763s-3.168-2.852-7.604-3.485c-4.436-.635-4.753-.16-5.704 1.9s-.792 7.447 1.109 13.468c1.901 6.02 4.968 11.632 4.968 11.632-1.192 1.648-2.596 4.193-2.596 7.123q0 .173.007.348c.239 6.236 3.91 10.9 10.072 12.795 6.842 2.105 12.558.868 16.035-3.242a8.4 8.4 0 0 0 1.786-.375c-.555.856-1.022 1.776-1.022 2.776 0 .372.064.754.212 1.147.418 1.118 1.424 1.906 2.76 2.162 2.25.431 5.159-.579 6.768-2.349.476-.523.978-1.174 1.462-1.843.396.783 1.33 1.967 3.569 2.14 2.342.18 3.005-.084 5.439-1.228l1.05-.492c2.799-1.297 4.318-3.694 5.786-6.012.726-1.144 1.475-2.328 2.386-3.39.167-.195.264-.276.377-.382.298.443.655 1.103.9 1.56l.298.552c1.674 3.068 4.966 4.94 9.27 5.272a7.1 7.1 0 0 1 2.554.696c-.192.697-.324 1.588-.69 2.229-1.488 2.6-1.205 7.38-.413 9.44s.792 3.96-1.901 7.446-7.922 3.644-7.922 3.644-1.901-3.644-5.387-8.556-5.387-3.01-8.555.476-4.912 7.288-5.862 7.288-7.288.158-7.288.158-.634-3.486-4.753-11.566c-4.12-8.08-6.813-4.277-9.506-1.108s-5.545 11.09-5.545 11.09-10.932.474-12.2-.476-2.376-4.911-7.13-12.516c-4.752-7.605-6.178-5.387-8.871-2.535s-7.288 9.981-7.288 9.981-3.169-17.269-9.152-41.082c-2.084-8.294-3.779-15.368-5.37-20.455-.967-3.094-1.966-6.291-1.966-7.337q0-.054.003-.1.02-.261.02-.533c0-2.484-1.212-5.58-2.386-8.58-.541-1.383-1.053-2.69-1.262-3.528l-.456-2.59c-.544-3.556-1.29-8.427-3.971-11.109-2.305-2.304-5.612-2.785-8.531-3.21-1.499-.218-2.914-.423-3.799-.832-3.735-1.724-10.178-1.138-13.448 2.46-1.224 1.347-1.725 2.66-1.847 3.835-1.067.11-2.352.309-3.864.687-1.342.335-3.213.988-3.959 2.77-.206.492-.298.979-.298 1.472 0 1.607.985 3.276 2.237 5.395l.311.528c2.514 4.272 4.198 6.55 8.78 8.975 2.399 1.27 2.542 1.347 2.922 11.107l.092 2.337c.199 4.87.371 9.974.371 15.65 0 7.05-.266 14.984-1.077 24.45a512 512 0 0 1-3.363 29.038c-7.916 3.856-33.583 15.585-39.666 16.843-6.535 1.352-21.165 2.09-26.85 2.09-6.217 0-9.19 2.005-13.14 6.217-4.457 4.753-8.665 13.395-11.257 23.115-1.275 4.784-1.68 9.582-1.68 13.74 0 6.532.998 11.484 1.178 12.323l.383 1.685c.199.844.44 1.87.44 2.317 0 .031-.003.053-.006.078-1.554 1.599-2.238 3.76-2.238 6.14 0 4.002 1.905 8.612 4.74 12.155a162 162 0 0 0 7.49 8.697l2.073 2.212 1.652-2.543c.135-.206 3.302-5.112 4.809-10.385.768-2.69 1.76-4.52 2.402-5.525 1.791.147 5.345.356 11.235.356 4.748 0 7.776.07 9.576.133.099 1.96.337 4.9.932 7.724 1.096 5.207 4.161 8.042 4.292 8.16l.852.775 1.136-.189c3.54-.59 6.871-2.19 12.528-8.34 2.702-2.937 3.506-6.165 3.506-8.967 0-1.683-.293-3.193-.637-4.413 8.013-1.524 15.29-1.72 32.364-1.064 18.598.715 26.928.02 45.99-2.152 18.258-2.08 32.117-2.587 49.703-3.075 9.844-.273 42.837-1.237 54.072-2.146l.614-.05c16.462-1.331 23.275-1.882 35.883-8.024 11.578-5.641 21.408-11.58 24.423-27.194 1.154-5.971 1.904-10.587 2.565-14.66.902-5.554 1.614-9.94 2.958-15.492l1.409-6.172c1.653-7.468 3.214-14.523 7.484-24.16l.404-.912c5.198-11.737 6.95-15.69 10.762-19.22 5.03-4.658 6.5-8.633 5.821-15.754-.672-7.058-3.134-22.209-5.268-32.422-2.2-10.531-3.728-16.046-11.869-16.463-5.773-.296-11.564.474-14.752 1.963-3.361 1.568-3.98 5.744-1.654 11.169 1.903 4.442 6.23 5.16 8.31 5.504 0 0 .137.023.161.02.12.096 1.179 1.164 1.318 9.108q.025 1.47.025 2.844c0 5.539-.28 9.783-.416 11.53-.845.933-1.999 2.635-3.636 5.91-.858 1.715-1.403 3.141-1.885 4.4-1.067 2.789-1.91 4.993-5.832 9.327-6.001 6.633-8.505 10.044-13.16 16.527-2.19 3.051-4.328 5.553-6.193 7.437.522-2.378 1.255-5.204 2.284-8.11 2.505-7.073 4.772-11.453 7.824-15.114 2.056-2.469 2.89-4.687 2.89-7.413 0-2.492-.697-5.408-1.793-9.326-3.257-11.63-5.823-19.74-7.846-24.798-2.16-5.4-2.558-7.237-2.558-8.575 0-.23.011-.444.028-.659a4 4 0 0 0 .012-.318c0-1.124-.457-2.232-1.307-3.15-1.693-1.828-4.949-2.894-9.363-3.22-2.742-4.448-6.763-5.06-16.427-5.694m-64.165 70.345c-1.76 1.406-1.585-.159-1.585-1.901 0-1.743 1.11-1.427 3.169-2.377s3.485-.95 1.583 1.268c-1.9 2.217-1.583 1.742-3.167 3.01m35.647-15.369c.488 4.89.317 6.813-.95 6.813-1.268 0-2.06-2.535-4.754-4.12-2.693-1.583-5.703-1.109-7.605 2.853-1.9 3.96-5.07 8.08-6.179 9.19-1.109 1.108-3.01.792-.316-2.377 2.693-3.17 5.545-7.288 5.07-10.299s-1.427-6.02-5.863-6.337-6.178-.159-9.347 2.06c0 0-.317-7.13.158-12.2.476-5.07 1.585-10.14 1.585-10.14s1.109-.475 6.812-2.376 9.982-4.12 9.982-4.12.475-.158-1.585 6.655-3.802 9.981-3.01 12.516 3.168 3.485 8.713 5.07c5.546 1.584 6.496 1.901 6.496 1.901s.476 1.743.793 4.911m14.417-25.982c-1.425-2.219-4.561-3.67-7.763-1.584s-4.278 4.753-5.228 3.485 0-2.535.317-6.813-.951-6.496 2.06-6.496c3.01 0 5.544.317 7.92-.158 2.378-.475 5.704-.95 4.754 2.693-.95 3.645-2.06 8.873-2.06 8.873m23.29 32.479s1.9-8.397-1.901-11.249c-3.803-2.852-5.703-1.585-7.288 1.584s-3.803 2.377-3.486-.634 3.01-8.238 4.753-13.625c1.743-5.386 2.377-12.2 2.377-12.2s5.228.793 7.288.793 3.485 1.267 4.436 9.189c.95 7.922.792 13.625-.634 18.378s-5.545 7.764-5.545 7.764" style="fill:#000;fill-opacity:1;fill-rule:nonzero;stroke:none" transform="matrix(1.33333 0 0 -1.33333 -.667 1121.853)"></path><path d="M378.209 596.075c1.42.203 4.912-.475 5.07.475.158.951-1.584 1.268-4.594 1.268s-5.704-.475-6.971-1.109-5.07.95-7.605 1.109-15.21.475-18.537.634c-3.327.158-7.605-1.109-1.743-1.267 5.862-.16 18.062-1.11 20.596-1.268 2.535-.158 3.17-2.535 4.12-2.218s2.376-.951 1.267-1.584-1.267-1.427.476-2.694 1.901-3.169 1.901-4.278 2.06-5.387 2.693-7.13c.634-1.742.317-3.326 1.584-4.277 1.268-.95 1.743-2.059.159-3.169s-.476-1.742.634-1.742 1.267-1.9.475-3.01-.95-2.694.475-2.536c1.426.159 1.427-.633.317-1.425-1.109-.792-1.109-2.219.475-1.902 1.585.318.317-1.425 1.743-2.535 1.426-1.108 3.17-2.06 4.277-4.277 1.11-2.218 1.427-5.862-1.584-2.535-3.01 3.328-13.466 4.753-19.962 5.387s-13.15-1.584-15.843-2.852c-2.694-1.267-5.387-4.595-7.763-4.12-2.377.476-2.852.793-2.377 2.219s.634 3.169.317 4.753-1.11-2.377-1.584-4.12c-.475-1.742-2.377-2.218-2.219 0 .159 2.218-2.376 2.693-3.01.95-.634-1.741-2.218.951-3.485-.474-1.268-1.426-6.338-3.01-4.912-.951 1.426 2.06.159 4.12-.792 3.01-.95-1.109-2.693-2.059-4.594-3.802s-4.12-1.584-2.219.317c1.902 1.9-.158 2.693-.95 1.9-.793-.791-.634 3.012-2.06 1.11-1.425-1.901-4.753-3.803-3.96-2.06.791 1.743-1.743 3.486-2.536 2.694s-4.278-.951-5.703-.317-1.585 3.486-3.01 2.535c-1.426-.95-2.852-1.426-4.437-2.851-1.584-1.427-3.802-.952-2.376.316 1.426 1.267 1.426 2.693.316 2.376-1.108-.316-2.217.476-4.435 0-2.218-.475-1.902-2.06-3.17-3.01-1.267-.95-1.584 1.902-3.168-.158s-1.267-3.961-2.376-5.07c-1.11-1.109-3.01-.634-3.802.317-.793.95-.159 3.327 1.109 3.802 1.267.475 1.267 1.902-.16 2.852-1.425.95-4.752 2.218-4.752 3.644s.634 1.584 2.535 1.109 2.06 2.218.317 3.168-4.595.159-4.595-2.534c0-2.694-1.109-3.803-1.742-6.655-.634-2.851-1.11-4.436-.634-6.337.475-1.901-.634-3.01-.634-5.07 0-2.059-.159-6.971-1.268-7.13-1.108-.157-2.218 1.585-2.851 4.912-.634 3.327-.951 8.239-.951 12.358 0 4.12-2.535 2.852-2.535 0s-1.583-8.239-2.376-11.09c-.792-2.852-4.436-4.277-5.228-3.01-.793 1.267-5.07 2.851-3.01 3.96 2.059 1.11.95 4.278-.793 3.803s-2.218 1.901-2.693 4.595c-.476 2.692.316 2.535 1.584 1.9 1.267-.633 1.584 2.06-.476 3.961s-2.534 4.278-2.534 6.813-2.06 8.08-3.169 9.348c-1.11 1.267-1.426 3.168-1.267 4.752.158 1.585 0 1.585-1.585 2.06s-4.277.159-2.851-.792c1.425-.95 2.217-1.901 2.376-4.595s-.475-4.594.95-6.812c1.426-2.218-.95-3.01-2.376-1.901s-3.96 1.742-3.01 3.168 1.109 2.219 0 2.536c-1.109.315-2.376-2.377-1.268-3.487 1.11-1.108-1.108-2.534-2.217-2.217-1.11.316-.951 1.9-.476 2.693.476.792-.95 1.268-2.376 1.743s-2.06 3.01-1.268 3.802c.793.793.158 2.376-.792 2.376s-1.268.318-2.693 1.744c-1.427 1.426-1.902-1.268-.635-2.535 1.268-1.268 2.219-2.694 2.219-4.12s-3.169-3.327-.792-3.168 3.643-.793 3.643-1.901c0-1.11-3.485-3.17-4.119-3.17s-2.218-1.9-3.168-3.168-2.852-1.743-3.803-1.743c-.95 0-2.376-1.743-3.802-2.693s-3.01-.318-2.219.95c.793 1.268 3.328 3.01 4.595 3.645 1.268.633 5.229 2.692 4.437 3.96-.793 1.268-3.01 3.169-.951 3.169 2.06 0 3.01.95 3.01 3.485s-1.742 2.695-1.901.635c-.158-2.06-2.851-1.902-3.169-.476-.317 1.426-2.376 3.485-2.852 2.218-.475-1.267.792-2.218 1.585-3.961s.475-4.278-.317-5.07-.158-2.852-1.585-3.96c-1.425-1.11-5.544-1.902-6.02-1.902-.475 0-.158 2.377 1.426 2.852s.475 3.01-.317 3.01-2.376-.317-2.851.951-4.595 1.268-2.694.158c1.901-1.109 2.535-3.01 2.535-4.594s-.95-2.693-1.901-.159c-.95 2.536-1.267 3.961-2.377 4.278s-1.9 1.742-1.9 2.693c0 .95-1.11-.317-2.536-.633-1.426-.318-3.803-2.06-3.327-3.327.475-1.268.317-2.06-1.109-1.427-1.426.634-1.743-.474-.792-1.584.95-1.109-.475-2.218-1.585-1.109-1.108 1.11-2.218-.316-2.534-1.109-.317-.792-2.853-.475-2.06 1.109.792 1.585 1.901 2.853 2.06 3.486.158.634 3.644-.475 2.534.95-1.108 1.426-.95 2.536.634 2.852 1.585.317.95.792 0 1.585s.159 1.267 1.268 1.108.95 1.109 0 1.426-1.11 1.427.158.95c1.267-.475 2.852-.158 1.11.952-1.744 1.109-2.536 1.9-.476 1.742s1.9.476.316 1.743-1.9 1.743.317 1.584c2.22-.158 1.267.318.159 1.426-1.109 1.11-2.535 1.902.158 2.219s2.377.95.635 1.426c-1.744.475-2.377 1.108-.635 1.267 1.743.158 1.585.95.317 1.267-1.267.317-2.218 2.06-.317 2.218 1.902.159 1.743 1.426.635 1.585-1.11.158-2.694 1.585-1.269 1.742 1.427.16 3.804 1.11.793 1.585s-3.803 1.584-1.901 1.584c1.9 0 2.535.95 0 1.426-2.535.475-3.17 1.109-1.585 2.377s-.317 1.742-.633 3.168c-.317 1.426.475 2.219-.476 3.327-.95 1.109-1.743 2.219-2.376 2.852-.634.634 1.426 1.901.634 2.535-.793.634-2.694-1.901-3.01-.475-.318 1.425-1.11 4.436-.476 6.812.633 2.377-.792 3.01-1.584 4.437-.793 1.425-.634 3.643 1.426 6.337s0 4.594 1.426 4.594 3.96-1.585 6.178-3.644 5.545-5.703 5.545-9.03c0-3.328-1.425-7.604-3.01-8.872s-1.743-.317-3.327.95-3.644.475-1.109-1.901 2.377-5.862 3.644-5.862 1.268 1.743 1.743 3.961 1.585 3.168 4.12 2.693c2.534-.475 2.534-2.852 3.327-3.168.792-.317.633 2.375 2.06 1.267 1.424-1.11 3.326-1.743 3.326-.634 0 1.11 1.426.95 2.535.95s2.852-1.901 4.278-1.267 1.9 1.426 3.168 1.426 4.594-.95 7.288-.475 5.703.475 13.625.475 14.26 1.108 19.488 0 11.09-2.218 12.2-2.06c1.108.159 2.693.634 6.654-.158s8.714-1.584 10.456-2.218c1.743-.633 3.168-.95 2.535 0-.634.95 3.96 1.109 6.495.159 2.535-.951 5.387-2.535 5.229-1.268s1.9 1.584 3.802 1.11c1.902-.477 3.17-1.269 4.595-.793 1.426.475 3.327.316 6.18.316 2.85 0 3.485-.791 4.91-.157 1.427.633 4.595 0 6.971-.951 2.377-.95 3.645-.793 4.595-.16.95.635 3.169 0 5.862-.474 2.693-.475 2.535.475 3.96.475 1.427 0 3.803-.95 5.229-1.109 1.426-.158 1.743.476 3.01.476 1.268 0 6.813-.475 8.714-.634 1.901-.158 3.644-.158 4.278.158.634.317 4.436.792 19.012.159 14.576-.634 21.388-2.694 27.25-4.595s12.358-6.02 17.586-11.249c5.229-5.228 9.982-9.664 12.834-22.18s1.742-24.24 3.96-31.211c2.219-6.972 6.18-19.013 10.933-28.043s6.495-11.724 10.456-16.478c3.96-4.753 5.386-8.714 5.228-10.931-.158-2.218-.95-13.309-3.168-25.191s-3.486-15.21-4.436-14.417c-.951.792-1.268.474-4.595.157s-5.545-2.058-4.595-4.118 1.268-1.743 1.426 0c.159 1.742 2.852 1.901 4.594 2.06 1.744.158-.633-5.229-2.217-5.387-1.585-.159-3.168-1.585-6.496-1.268-3.327.317-6.02 1.426-6.971 2.694-.95 1.267.792 5.228 1.743 6.495.95 1.268 3.96 2.218 2.535.793-1.426-1.426-2.536-5.07-1.901-6.338.633-1.267 4.118-3.01 2.693-1.267s-1.585 5.703.158 6.336c1.743.635 2.852 2.219 3.802 4.595s1.585 6.02 2.694 6.972c1.11.95 1.267 9.19 1.11 11.407-.16 2.217-.16 3.644 0 6.654.157 3.01-.476 4.752 2.058 5.545 2.536.792 1.268 1.901-.791 2.218s-6.18-3.01-7.447-.792-3.01 7.288-4.753 9.981c-1.743 2.694-3.327 4.754-7.446 9.03-4.12 4.279-4.12 5.388-2.06 4.12s5.703-4.753 9.03-9.823c3.328-5.07 4.279-6.179 5.229-6.179s-.475 3.327-2.693 5.704-8.556 11.25-10.773 13.942c-2.219 2.693-4.437 8.713-5.387 10.298s-3.169 2.06-2.694 3.96c.476 1.902-1.109 1.743-2.535 2.695-1.426.95-2.535 3.168-3.96 5.545-1.427 2.377-3.17 2.692-3.645 5.07-.475 2.376-2.217 3.96-3.802 4.594s-1.742 2.218-1.426 3.327c.317 1.11-.792 2.694-2.693 3.17-1.901.474-.95 2.217-2.376 2.692-1.427.475-2.06 2.535-3.645 3.644s-4.911 2.377-5.07 3.644c-.158 1.267-1.584 4.753-3.168 6.02-1.585 1.268-2.852 3.803-2.852 5.387s-1.585 3.486-2.694 5.387-1.425 3.96-3.01 6.654-1.267 5.228-2.851 6.813-4.436 6.813-6.18 8.397c-1.742 1.584-1.742 3.96-1.9 5.228-.16 1.268 1.742 2.693 3.96 3.01" style="fill:#9d8750;fill-opacity:1;fill-rule:nonzero;stroke:none" transform="matrix(1.33333 0 0 -1.33333 -.667 1121.853)"></path><path d="M412.59 569.459c-1.534-.512-2.853-2.377-.951-2.377 1.901 0 4.911 2.218 6.02 3.169 1.11.95 1.902 3.486.475 2.218-1.426-1.268-3.643-2.377-5.545-3.01M411.164 570.251c1.48.493 3.168.633 3.802 2.535.634 1.9-.158 2.376-1.11 1.267-.95-1.109-2.06-2.376-3.327-2.852-1.267-.475-1.742-1.742.635-.95M412.272 574.053c2.17 1.395 2.536 4.279.159 2.218s-4.278-3.01-3.644-3.168 1.268-.476 3.485.95M409.896 577.855c.15 1.648.476 2.377-1.426 0s-1.11-3.802.158-2.851c1.268.95 1.11 1.109 1.268 2.851M418.451 568.35c-2.986-1.173-5.387-1.426-5.703-2.377s.633-1.9 2.376-1.109c1.743.792 7.764 5.228 3.327 3.486M418.768 564.705c-3.384.148-6.18-1.267-4.912-2.217s1.11-1.902 3.01-1.11c1.902.792 3.487 1.268 4.437 1.426.95.159 1.11 1.743-2.535 1.901M420.67 560.903c-3.327-.166-5.862-.95-5.546-1.901.317-.95 2.218-2.218 4.12-1.109 1.901 1.109 5.069 0 5.545.792.475.792-.951 2.377-4.12 2.218M419.402 556.309c-3.167-.118-4.436-.634-3.01-1.585 1.426-.95 5.228-.791 6.654-.634 1.426.159.634 2.378-3.644 2.219M420.036 552.665c-2.849.15-6.813-.317-4.753-1.426 2.06-1.11 3.802-1.268 6.02-.95 2.218.316 1.742 2.217-1.267 2.376M419.085 549.02c-2.865.392-4.594-1.109-3.01-1.9 1.584-.792 3.01-.793 4.91-.476 1.903.317 1.585 1.901-1.9 2.377M418.768 545.377c-2.795 1.118-4.436-1.269-2.535-1.585s2.06-.475 3.96-.158c1.902.317 1.744.475-1.425 1.743M374.882 565.815c-.67 1.786-2.06.475-2.06-.476 0-.95-2.376-1.901-5.07-1.901-2.692 0-5.703-.475-6.97-.475s-6.021-1.901-5.387-2.218c.633-.317 3.01-.793 4.911.158 1.902.951 4.912.634 7.764.951 2.851.316 3.01-3.327 4.119-2.535s-.792 1.9.475 3.485c1.268 1.585 2.693 1.743 2.218 3.01M342.72 592.907c-3.275 2.182-.792-1.427.634-3.486s4.12-9.19 4.595-12.04c.475-2.853.633-5.704 2.06-3.962 1.425 1.743 2.376 7.447.316 9.507s-4.119 5.544-4.753 6.97-1.901 2.377-2.852 3.011M335.115 584.035c-1.501 2.252-2.535.475-1.426-.951s2.694-6.179 2.536-8.556c-.159-2.376-.16-7.445.158-9.664.317-2.218-.317-4.278.95-5.228 1.268-.95 2.377-.793 2.377 3.486 0 4.277-.793 9.347-1.268 11.724-.475 2.376-2.376 7.762-3.327 9.189M327.035 577.222c-1.403 1.804-1.9-.95-.792-2.694 1.11-1.742 2.218-6.178 2.377-8.555s-.951-7.764.158-7.446c1.11.316 1.584 2.376 1.901 4.436.318 2.06.318 3.643-.317 4.911-.633 1.268.793 3.01-.792 4.912-1.584 1.9-1.425 3.01-2.535 4.436M318.796 571.36c.567-1.98 1.268-4.911 1.268-6.813 0-1.901-1.9-4.119-1.743-1.584.159 2.535-.316 3.486-.316 6.18 0 2.691-.159 5.544.791 2.216M304.538 579.44c-1.288 2.206-2.219 1.268-1.426.159.792-1.11 1.742-7.605 2.06-10.3.316-2.693.158-10.456.792-11.406.633-.95 2.851-2.693 2.851.317s-2.217 6.02-1.108 7.921-1.268 4.12-1.426 6.18c-.159 2.06-.635 5.228-1.743 7.129M294.715 575.32c-1.167 2.189-1.585 2.219-.475-1.742s1.584-9.981 1.584-12.358 2.376-3.327 2.376-1.743c0 1.585.317 4.595-.316 6.496-.634 1.901-1.902 6.971-3.17 9.348M269.524 565.022c1.829-.305 5.07 0 3.485.793-1.584.791-3.96 1.742-4.435 1.742-.476 0-1.902-2.06.95-2.535M270.792 571.994c-1.707.853-2.536 3.802-2.377 1.109s1.267-2.536 2.693-3.327c1.426-.793 3.169.475-.317 2.218" style="fill:#604c39;fill-opacity:1;fill-rule:nonzero;stroke:none" transform="matrix(1.33333 0 0 -1.33333 -.667 1121.853)"></path><path d="M271.742 576.588c-1.846 2.11-2.852 4.912-.634 2.693s5.229-3.643 4.12-2.376c-1.11 1.268-4.436 2.535-1.744 3.01 2.694.476 2.694 1.109 2.694 2.852s1.901 2.376 1.743-.476c-.159-2.851-1.901-3.168-1.267-5.386.633-2.218 0-2.535-.318-3.01-.316-.476.16-1.743.318-3.644s-1.585-2.693-2.694-2.535-.95.634.317 1.901.317 2.06-.317 3.644c-.633 1.585-1.109 2.06-2.218 3.327" style="fill:#604c39;fill-opacity:1;fill-rule:nonzero;stroke:none" transform="matrix(1.33333 0 0 -1.33333 -.667 1121.853)"></path><path d="M271.584 586.253c-1.724 1.293-3.328.475-1.427-1.902 1.902-2.376 3.011-3.169 3.17-2.06.157 1.11-1.11 3.486-1.743 3.962M272.851 588.63c-1.127.187-1.426 0-.159-1.427 1.268-1.426 1.902-3.802 2.536-2.376.633 1.426.475 3.327-2.377 3.802M278.872 599.085c0-1.46.792-3.485.158-5.386s-2.535-2.535-1.426-4.436c1.11-1.902 0-4.595-.475-2.852s-2.693 3.802-1.426 5.386 2.376 2.852 1.584 4.753 1.585 5.547 1.585 2.535M270.95 594.016c-1.326 1.535-2.06.158-.95-1.426 1.108-1.585 3.96-2.06.95 1.426" style="fill:#604c39;fill-opacity:1;fill-rule:nonzero;stroke:none" transform="matrix(1.33333 0 0 -1.33333 -.667 1121.853)"></path><path d="M272.692 595.759c-2.338 1.04-2.85 0 .16-1.426s4.119-.476-.16 1.426M272.851 600.353c-1.592 1.592-3.327.476-1.268-1.584s4.278-1.427 1.268 1.584M272.376 603.521c-2.868.11-3.486-.792-.792-.792s4.752-2.376 5.862-.95c1.109 1.426-.95 1.585-5.07 1.742M197.278 603.245c-1.396 1.57-2.257.237-1.069-1.307s2.97-.832 1.07 1.307M235.184 587.56c-2.4 2.132-3.684.831-2.14-1.188s2.734-1.783 3.566-1.545c.831.237.713.832-1.426 2.733M227.104 575.796c-1.565.853-2.377.119-1.07-1.307s1.782-2.139 3.09-1.07c1.307 1.07.594.951-2.02 2.377M215.102 577.816c-1.494.703-2.495.119-1.188-1.188s1.664-2.139 2.614-1.426.594 1.663-1.426 2.614M208.805 568.786c.335 2.125-1.07 3.208-1.427 2.257-.356-.95-1.306-4.872-.237-5.704s1.307-2.138 1.901-.713c.594 1.426-.594 1.901-.237 4.16M203.695 568.548c-1.35.337-1.782-.832.118-1.426 1.902-.595 1.783.95-.118 1.426M199.417 569.142c1.796.1.832 1.663 0 2.852s-.594 2.376-2.139 2.376-2.97 1.545-3.089.238c-.12-1.307-.12-2.733 1.426-2.495 1.545.237 1.663-3.09 3.802-2.97M199.061 578.41c-1.814 0-3.803-.832-2.14-1.426 1.664-.594 3.566-.356 3.803-1.663s.238-2.02 1.545-1.783 1.664 1.07.594 2.496-.594 4.634-1.188 3.683c-.594-.95-.95-1.307-2.614-1.307M205.359 573.182c-.665.195-2.614-1.307-1.546-2.139 1.07-.832 3.565 1.545 1.546 2.139M207.26 576.034c-1.207.2-1.782-.475-.95-1.188.83-.714 1.781-1.664 2.851-.832s1.901 2.138.713 1.663-1.188.119-2.614.357M209.28 578.53c-1.85-.436-2.377-1.308-.713-1.308s2.495-1.07 3.09-.119c.593.951-.357 1.901-2.377 1.426M205.953 582.094c-1.383-.087-2.615-.714-1.545-1.545 1.07-.832 1.426-1.07 2.97-.713 1.545.356.476 2.377-1.425 2.258M200.724 584.114c-1.9.065-2.97-1.188-.95-1.664 2.02-.475 4.396 1.545.95 1.664M195.734 581.975c-1.423.089-3.209-1.426-1.188-1.663s3.089 1.544 1.188 1.663M195.853 588.154c-1.693.17-.951-1.664-.357-2.377s1.188-.713 2.02.12c.832.831.713 2.019-1.663 2.257M197.992 592.432c-2.016-.126-3.209-2.02-.238-1.664s2.139 1.783.238 1.664M194.902 600.987c-1.381 1.274-2.02.713-1.426-.832s1.307-2.614 1.782-1.782 1.189 1.188-.356 2.614M193.713 595.283c-1.075.807-1.9-.356-1.188-1.544.713-1.188 2.14-1.188 2.02-.357-.118.832.12 1.188-.832 1.901M196.922 596.59c-1.07.595-1.664.595-1.07-1.069.595-1.664 1.426-2.258 1.545-1.188.12 1.069.595 1.664-.475 2.257M199.417 598.254c-.632.579-1.9-.238-.95-1.188s1.307-2.02 2.614-1.901c1.307.118-.238 1.782-1.664 3.089M203.22 591.362c-1.145 1.002-1.783-.832-1.07-1.545s1.901-1.426 2.852-1.188.12 1.07-1.782 2.733M202.032 586.847c-1.237.33-.951-.95.356-1.426s3.208.475-.356 1.426M208.686 585.896c-2.008.223-2.377-.356-.832-.95 1.545-.595 2.97.713.832.95M208.686 591.005c-.665 1.273-1.308-.593-1.07-1.781.238-1.19 2.495-.952 1.07 1.781M205.24 596.234c-1.427.95-2.139.119-.357-1.782 1.783-1.901 2.495-1.545 2.495-.713 0 .831-.356 1.306-2.138 2.495M201.913 602.77c-.968 1.209-2.14.594-1.426-1.308.713-1.901 1.545-2.614 2.495-2.257s-.119 2.376-1.07 3.565M204.051 605.265c-1.032.451-1.426-.951-.356-1.783s2.258.951.356 1.783M208.21 601.7c-1.389 1.76-1.426.831-1.426-.713s2.02-2.614 3.09-2.614.119 1.07-1.664 3.327M213.438 600.274c-1.072.976-1.425-.357-.712-1.664.712-1.307.95-2.613 2.257-2.257s1.664.95.357 1.9c-1.307.952-.594.832-1.902 2.02M211.418 596.472c-1.08.45-1.307-.357-.237-1.07s1.664.476.237 1.07M210.587 593.501c-1.012 1.012-1.07-.119-.713-1.307.356-1.189.713-2.257 1.9-2.139 1.19.119.476 1.782-1.187 3.446M213.201 588.391c-.733.857-1.783.12-.594-1.425 1.188-1.545 2.02-.238.594 1.425M211.3 582.094c-1.163.952-2.139-.357-.95-1.189 1.187-.831 2.495-1.544 3.801-.593 1.308.95.713 1.9-.237 1.188-.95-.713-1.307-.476-2.614.594M217.241 584.589c-1.795 1.047-2.139.238-1.307-1.07.832-1.306 2.139-2.257 3.209-2.139 1.069.12 1.9 1.546.356 1.427s-.833.95-2.258 1.782M217.122 594.095c0 1.585-1.901 0-1.544-.594.356-.594.831-2.496 1.9-2.258 1.07.238-.356 1.308-.356 2.852M216.29 603.364c-1.06.824-2.614-.833-1.544-1.426 1.07-.595 1.782-1.308 2.614-1.07s0 1.663-1.07 2.496M219.499 605.978c-1.792.149-1.308-1.545-.356-1.545.95 0 3.207 1.307.356 1.545M223.54 602.65c-1.607.562-2.259-1.544-.595-1.663s2.97.832.594 1.663M219.736 598.967c-1.361.454-1.901-.713-.95-1.307.95-.594 1.426-1.901 2.257-1.188s.12 2.02-1.307 2.495M224.252 599.68c-1.174.587-1.426-.951.119-1.426s1.306.713-.12 1.426M224.964 595.402c-1.163.753-2.138-.237-.95-1.426 1.188-1.188 2.97.12.95 1.426M221.281 589.224c-1.912.503-1.901-.357-.356-1.07s2.851-1.782 3.09-.713c.237 1.07-.476 1.188-2.734 1.783M221.4 586.49c-1.882.295-1.901-.713 0-1.426s3.802.832 0 1.426M224.608 582.45c-1.388.082-2.258-.95-.356-1.545 1.901-.593 3.09-1.07 2.852.12-.238 1.188-.476 1.307-2.496 1.425M229.242 583.4c-.553 1.383-1.9.12-1.188-1.068.713-1.189 1.545-2.496 2.495-1.902s-.593 1.189-1.307 2.97M226.628 589.342c-1.307 1.307-1.782-.832-.594-1.782s2.614-.238.594 1.782M229.956 595.402c-1.1.916-2.377.832-1.308-.594 1.07-1.426 1.901-2.614 3.09-2.376 1.188.237 2.376 1.544.713 1.307-1.664-.238-1.07.475-2.495 1.663M228.767 599.68c-1.486.577-2.495-.595-.475-1.307 2.02-.713 2.614.475.475 1.307M226.272 606.215c-1.259.593-.832-1.425.238-1.663s1.782.713-.238 1.663M236.49 599.561c-1.932 1.012-3.326-.476-.594-2.139s3.09.832.594 2.139M235.421 593.026c-1.206.804-1.307-.594-.119-1.426s2.971-.475.12 1.426" style="fill:#604c39;fill-opacity:1;fill-rule:nonzero;stroke:none" transform="matrix(1.33333 0 0 -1.33333 -.667 1121.853)"></path><path d="M138.816 619.643c.959 2.874.595 2.495-.475 2.138-1.07-.356-3.683-2.733-4.397-5.703-.713-2.971-.118-4.515.833-4.635.95-.118 2.02-.831 3.09-.831s4.277 2.02 5.821 2.852c1.545.831 1.308-.595.713-1.545-.594-.95-2.495-1.188-3.921-2.02s-2.495-1.545-3.565-1.307c-1.07.237-.356-1.426.476-2.02s2.257-1.902 2.614-.357.713 2.614 2.02 2.852 2.257-.119 2.614-2.02 1.07-2.852 2.139-4.516c1.07-1.663 1.783-3.446 2.852-2.02s1.069 2.734-.12 4.754c-1.187 2.02-1.426 3.564-1.306 4.634s1.782-.476 2.376-.832c.594-.357 1.189-1.307.832-6.536s-.832-7.604-2.258-7.96c-1.426-.357-2.733-1.545-4.396-4.397-1.664-2.852-2.139-5.466-1.07-5.229 1.07.239 2.02 2.377 2.852 1.07s2.258.475 5.348-.713 5.346-2.852 6.297-4.159.356-3.208-.832-4.278-2.258-3.327-.119-2.02 2.733 2.614 3.446 4.16c.713 1.544 2.14 1.544 2.14.594s.83-2.258 1.9-.713 1.783.95 1.664 0c-.119-.951 1.307-1.427 2.614 0 1.307 1.426 3.09 1.426 1.545-.12-1.545-1.544-3.327-1.9-4.397-2.614-1.07-.713-2.02-2.257-.118-1.663 1.9.594 4.753 1.663 5.703 2.852s3.921 2.733 2.97 3.564c-.95.832-2.97 1.664-3.089 2.852s-1.663 2.733-2.614 2.615c-.95-.12-.238-1.427-.95-.12-.714 1.308-2.377 1.902-2.734 3.328-.356 1.425-.119 3.09.951 1.545s3.565-2.734 5.585-3.684 3.683-2.02 4.753-3.446 1.188-2.258 2.376-1.07c1.189 1.189 3.208 2.14 4.516 3.328s1.188 2.614-.595 1.307-2.732-1.426-2.613-.357c.118 1.07 3.565 1.307 2.376 2.614-1.188 1.308-1.426 2.139-2.139 3.922-.713 1.782-1.188 1.188-2.495-.357s-2.733-2.495-3.565-1.782-2.377.95-3.446.832c-1.07-.119-1.07 1.307-.95 2.97.119 1.664.831 3.803.119 4.159-.713.356-1.545-.713-1.783-2.97s-1.545-3.209-1.545-.594c0 2.613.951 5.703 3.209 6.773s4.752 1.188 6.654-.12c1.901-1.307 3.921-2.138 5.465-1.069 1.545 1.07 1.665 2.97-.237 4.753-1.901 1.782-4.278 3.09-5.823 3.921-1.544.832.238 2.377.714 1.545.475-.832.95-1.782 1.9-1.901.951-.12.951.594.595 2.733-.357 2.139-1.782 2.851-3.446 2.495-1.663-.356-2.376-2.139-3.208-2.852s-1.664-.594-.595.594c1.07 1.189.357 1.902-1.069 1.664s-2.852-2.97-2.97-1.783c-.12 1.189-1.07 1.783-1.664 1.189s-1.901-.832-2.02 0-.357.832-2.02.832-2.495-2.615-2.852-1.664c-.356.95-1.783 1.07-3.564 1.07-1.783 0-1.902-1.902-2.971-1.783s-.594 2.258-1.308 1.426c-.712-.832-3.208-.95-1.9-.237 1.306.712 1.306 2.376-.238 2.495-1.545.118-2.377-1.545-3.802-.713-1.427.831-3.446 1.782-4.278 2.852s-2.852-.357-2.852-1.902.594-3.683-.119-3.802c-.712-.119-1.545 1.782-1.426 3.446s1.307 2.258 1.782 3.684" style="fill:#9d8750;fill-opacity:1;fill-rule:nonzero;stroke:none" transform="matrix(1.33333 0 0 -1.33333 -.667 1121.853)"></path><path d="M148.917 584.945c-1.74-.408-3.921-2.02-1.545-2.376s5.229-.832 4.99-1.782c-.237-.951-1.9-.713-3.801 0s-4.635-1.308-4.279-2.258c.357-.95-.475-1.664-.831-.594-.357 1.07-2.258-1.188-.713-3.09 1.544-1.9 2.852-2.376 6.416-2.257s5.941 1.782 4.991 2.495.237 2.376 1.426 3.684c1.188 1.307.832 2.733-.95 4.277s-3.684 2.377-5.704 1.901" style="fill:#9d8750;fill-opacity:1;fill-rule:nonzero;stroke:none" transform="matrix(1.33333 0 0 -1.33333 -.667 1121.853)"></path><path d="M152.838 589.937c-2.817.444-5.585-.595-4.754-1.308.833-.713 2.14.119 3.565.119 1.427 0 3.803-2.495 4.04-1.307.239 1.188-.594 2.14-2.851 2.496M163.65 588.748c-1.18-.131-3.088-2.495-2.138-2.614s1.664-1.189 1.664-1.902.475.12 1.544 1.07c1.07.95.475 1.545-.356 1.426-.832-.119.356 2.14-.713 2.02M159.136 588.867c-.495-1.06-.238-2.139.475-1.426s2.495 3.564 3.208 4.04c.713.475.475 2.139.357 3.208-.119 1.07-.951.12-1.189-.95-.237-1.07-2.376-1.783-2.613-.357s-.357 2.733-1.545 2.615c-1.189-.12-2.02 0-.476 3.92 1.545 3.922 3.446 5.941 3.446 4.278s-.594-3.683-.475-4.871 1.782-.714 2.139 1.188c.356 1.9 3.565 3.921 4.159 5.941s3.208 2.02 4.396 1.901 1.544-1.426 4.04-2.852 4.159-1.188 2.258.12c-1.901 1.306-3.565 3.088-6.417 4.158s-3.565.832-4.515-.119c-.95-.95-2.614.714-3.683-.832-1.07-1.544-1.664-1.663-2.734-.831-1.069.831-1.545.475-2.97-.238s-2.258-.356-2.258-2.97 0-6.417-.713-8.556-1.901-3.921-.357-3.921 1.545.594 2.734 0c1.188-.595 2.614-.951 3.327-1.07.713-.118.237-.594-.594-2.376" style="fill:#604c39;fill-opacity:1;fill-rule:nonzero;stroke:none" transform="matrix(1.33333 0 0 -1.33333 -.667 1121.853)"></path><path d="M173.039 601.819c-1.917 0-3.09-.95-1.783-1.426s1.901-.95 2.851-.12c.951.833.832 1.546-1.068 1.546M172.206 595.997c-.392-.294-1.9-1.07-1.188-2.02.713-.951 2.733-1.545 2.614-.238-.118 1.306 1.545 2.02 1.783.831.237-1.188.712-1.663 1.663-.356.95 1.307.476 2.02-.713 2.139-1.188.119-2.733.713-4.159-.356" style="fill:#9d8750;fill-opacity:1;fill-rule:nonzero;stroke:none" transform="matrix(1.33333 0 0 -1.33333 -.667 1121.853)" data-source="https://football-logos.cc"></path><path d="M187.654 624.633c-.938 1.295-1.783-.237-.951-2.02s2.257-2.495.95-3.802-2.613-3.803-1.188-4.04c1.427-.238 2.14-.238 3.684 2.02s0 4.396-2.495 7.842" style="fill:#604c39;fill-opacity:1;fill-rule:nonzero;stroke:none" transform="matrix(1.33333 0 0 -1.33333 -.667 1121.853)"></path><path d="M145.827 628.673c-1.008 1.872-1.782-.237-2.851-2.852-1.07-2.614-2.852-4.753-.951-6.416s2.733-2.614 3.565-2.495.237 1.663 1.07 2.495c.83.831 1.663 1.426.83 2.139-.83.713-.118 1.663-.594 3.327-.475 1.663-.237 2.257-1.069 3.802M137.153 604.908c-.745.803-1.545-.831-1.307-2.138.237-1.308 2.852.475 1.307 2.138M142.263 599.917c-1.571 1.31-3.447.238-2.496-.593.95-.832 1.783-1.189 1.783-1.783s-1.07-.475-1.783.238-1.188-.594-.475-1.426 2.733-2.496 2.852-.951 1.544 3.327.119 4.515M156.046 568.31c-1.613.101-3.565.594-4.158-.119-.595-.712-.714-.712-1.902 0-1.188.713-1.188-.356-1.069-1.307.119-.95 2.257-.594 5.465-.713 3.209-.119 5.348-.119 6.417.832 1.07.95.357 2.02-.713 2.02s-2.139-.832-4.04-.713M169.83 574.727c-1.873-1.124-3.446-1.902-2.14-2.02 1.308-.12.714-.594-.356-1.188-1.069-.595-1.306-1.665-1.306-2.377 0-.713-1.426-.238-1.902-.238-.475 0-1.663-1.782-.237-1.425 1.425.356 4.04.475 5.465.831 1.427.357 4.873.476 6.417.476 1.545 0 1.783-2.14 2.97-.832 1.189 1.307-.95 2.257-1.782 2.851-.832.595-1.307-.475-3.445-.594-2.14-.119-4.16.476-2.258.713 1.901.238 2.733 1.664 1.07 1.545s0 .594.95 1.901-1.664 1.426-3.446.357M161.393 564.983c-1.275-.283-1.307-1.782-2.257-2.97s-.476-2.615.356-3.565 2.495-.95 2.614 1.544c.119 2.496.357 5.229-.713 4.99M148.084 561.775c-1.289 1.09-2.494.713-1.544-1.189.95-1.9 1.307-3.445 2.377-2.376 1.07 1.07.713 2.258-.833 3.565M150.937 555.24c-1.68 0-2.14.83-1.07 1.425s1.253 1.166 1.902 2.14c.475.712 1.188.83 2.495.712 1.307-.12 2.495-1.663 4.158-2.257s1.189-1.427-.237-1.783-2.37-.657-3.684 0c-.712.356.594 1.426-.119 2.139s-.831-.356-.95-1.189c-.119-.831-1.663-1.188-2.495-1.188M165.79 562.488c-1.703-.71-2.733-2.614-2.733-3.684s1.901-.95 2.852 0 4.872 2.733 6.06 2.614 2.97-1.069 3.446-1.544c.475-.476 3.208 0 3.208.832 0 .831-1.307.593-2.377 2.138s-3.327 1.426-5.228 1.307c-1.901-.118-3.802-1.07-5.228-1.663M268.574 525.415c-.757 2.268-1.189 4.633-2.971 4.99-1.783.356-3.446 1.188-4.397 1.07-.95-.12-.356-1.308.713-1.783 1.07-.475 2.971-2.495.832-1.426s-3.09 1.426-2.97.119c.118-1.307-2.02-1.782-3.328-3.09s-1.9-1.663-3.446-2.614c-1.544-.95-2.495.713-.356 1.545s3.09 2.377 3.208 2.733-.594 1.307-2.257.238c-1.664-1.07-3.447-2.614-3.209-4.16.238-1.544 1.783-3.207.119-6.772s-2.614-4.397-1.426-5.704.12-1.9-.237-3.208c-.357-1.307-1.308-.95-2.258-.95s-.594-2.496-2.02-3.566-3.327-2.852-1.902-3.089c1.427-.238 1.427-1.782.595-2.02-.832-.237-1.664-1.307-1.07-2.14.594-.83.475-2.85-.118-6.416-.595-3.564.118-9.505-.713-14.021-.832-4.515-.832-11.882-.95-16.398-.12-4.515.118-6.654-.833-7.723-.95-1.07-1.188-3.446-1.307-5.585s-.475-4.159-3.327-6.654-6.179-4.516-6.179-4.99c0-.476.713-.12 3.208 1.069 2.496 1.188 4.278.237 1.783-.713-2.496-.951-3.921-2.733-2.614-2.852s1.425-1.188-.713-3.327c-2.14-2.14-2.258-4.278-.119-4.396 2.139-.12 4.872-.12 5.584.712.714.832 5.348.95 6.18 2.258.831 1.307 1.663 3.327 1.663 1.307s.475-2.852 1.663-1.663-.356 2.376.357 4.99 1.307 2.733 1.545 1.426 0-2.733.713.357c.712 3.089.832 4.396-.713 3.564s-1.189 2.614 1.307 4.872 4.99 5.11 4.634 9.506c-.356 4.397 2.02 8.318 4.396 20.081s4.16 20.914 5.11 28.043c.95 7.13 2.496 11.645 1.07 12.833s2.138 2.02.356 2.614c-1.782.595-2.376-1.545-3.327-.832-.95.714-2.376 2.02-2.14.832.239-1.188.714-1.782-1.069-1.188s-2.614 2.496-1.069 3.208 2.615 1.307 3.09 2.733 1.663 2.139 2.376.832 2.733-1.663 3.09-.237c.356 1.425.831 2.02 2.02 2.02 1.187 0 2.376.712 1.426 3.565" style="fill:#9d8750;fill-opacity:1;fill-rule:nonzero;stroke:none" transform="matrix(1.33333 0 0 -1.33333 -.667 1121.853)"></path><path d="M226.985 443.9c-3.223-2.255-6.654-4.515-5.229-4.634 1.427-.119.951-1.07-1.307-2.97s-3.208-4.397-1.426-4.397 2.733-.832 4.278-1.188c1.545-.357 1.188-.357 2.258.95 1.07 1.308 2.139 2.97-.12 1.664-2.256-1.307-1.663-.238-1.068 1.782.593 2.02 1.663 2.971 1.901 1.902s2.732-1.902 4.99 0c2.258 1.9 4.516 4.634 5.348 6.297.831 1.664.713 6.179 0 4.397-.714-1.783-1.308-2.971-3.446-2.02-2.14.95-3.803-.119-6.18-1.783M231.144 493.332c.477-6.047.594-16.992.95-22.34.357-5.346.475-10.1 1.189-11.526.713-1.425 1.544-2.257 1.426-3.683-.12-1.426.95-1.307.95-2.495s-1.783-2.971-1.188-4.04c.594-1.07 1.782-.12 2.852 1.663s.593 10.219 1.306 19.131-.593 10.575.238 11.882c.832 1.307.832 1.783.832 4.516s-.357 4.753-.594 6.297c-.238 1.545-.476 2.615.119 3.327.593.714.593 2.615.118 3.09s.238.356.238 2.258c0 1.9-.95 4.396-.831 5.822.118 1.426.237 6.298-.713 7.605-.951 1.307-3.09.475-2.02-.714 1.069-1.187 1.544-1.544 1.663-4.277s0-3.921-.594-4.634c-.595-.713-.713-.594.119-1.545.832-.95 1.188-2.02.119-1.663-1.07.356-3.684 0-1.664-1.426s2.733-3.09 1.307-2.614c-1.426.475-2.97 2.02-3.327 2.852s-2.02 1.425-1.307-.476-1.545-2.495-1.188-7.01" style="fill:#9d8750;fill-opacity:1;fill-rule:nonzero;stroke:none" transform="matrix(1.33333 0 0 -1.33333 -.667 1121.853)"></path><path d="M255.384 481.687c-.953 1.524-1.07-1.188-2.139-5.585-1.07-4.397-4.278-10.932-3.09-11.883 1.189-.95 1.07.595 2.02 3.446.951 2.852 4.991 11.17 3.209 14.022M236.729 429.285c-.288 2.013-2.377 2.257-2.258.594s-2.258-3.09-.951-3.802c1.307-.714 3.565.713 3.209 3.208M230.193 440.573c-2.312-.877-3.446-2.495-1.545-2.376 1.901.118 4.991 3.683 1.545 2.376M235.896 494.639c-2.028 1.936-1.187-2.496-.237-2.733s2.852.237.237 2.733M237.204 490.48c-1.605.437-1.308-1.426 0-2.733 1.307-1.307 2.613 2.02 0 2.733M465.348 473.924c0 4.119-1.901 4.277-1.901 1.426s-1.585-12.042-2.218-16.32c-.634-4.277-1.11-9.822-1.902-12.198s-.317-4.913.95-2.536c1.268 2.377 1.902 6.972 3.17 15.052 1.267 8.08 1.9 10.774 1.9 14.576" style="fill:#604c39;fill-opacity:1;fill-rule:nonzero;stroke:none" transform="matrix(1.33333 0 0 -1.33333 -.667 1121.853)"></path><path d="M411.797 493.094c-3.138 2.354-3.961 3.327-6.496 2.851-2.534-.475-6.178-2.376-3.644-2.376 2.535 0-1.742-2.376.16-2.376 1.9 0 2.375-.951 2.058-2.218-.316-1.267-.316-2.06 1.426-1.902 1.743.16 1.427-.633 1.268-2.06-.158-1.425 1.584-.474 1.743-1.584.158-1.109-.634-3.01 1.109-3.168s2.218-3.17 3.485-4.753c1.268-1.584.635-1.901-.158-4.436-.792-2.535-1.268-4.595-1.268-7.288s-.95-9.348-1.743-11.724c-.791-2.377-.95-5.704-3.96-5.704s-5.229.317-6.496.317-3.961-1.585-5.228-3.01c-1.268-1.426-.793-3.644.475-2.377 1.267 1.268 2.376 3.802 4.119 3.802s1.584-.474 0-2.059-2.218-2.693-1.267-4.12c.95-1.425 3.169-1.9 4.436.16 1.267 2.058 3.327 5.862 2.851 3.01-.475-2.852.634-2.695.792-3.962.16-1.267-.95-1.426-2.217-1.426s-2.06-1.109 1.11-.95c3.168.158 8.08.95 5.544.158-2.535-.792-7.446-1.742-6.337-2.217s5.703.316 7.288.95 2.217 2.693 2.217 4.12c0 1.425-2.217 2.375-.475 3.802 1.743 1.425 2.694 2.852 5.862 11.407 3.17 8.556 4.12 14.734 3.486 16.001s3.01 2.536 1.584 4.12-2.535 1.584-1.584 2.852c.95 1.267.95 2.218-.792 2.852-1.743.633-1.11.792-.792 1.425.316.634.475 2.694-2.06 3.328s0 3.327-1.585 3.169c-1.584-.16-3.485-.793-3.01 1.267s0 2.693-1.901 4.119M384.428 464.338c-2.142 0-3.209-1.307-2.139-1.782s1.426-1.307.832-1.902c-.594-.593-2.02-.713-.713-1.663s1.069-2.377.119-3.327c-.951-.95-1.426-1.664-.476-2.02.951-.356-1.307-1.782-.118-2.139 1.188-.356.713-1.782.118-2.257-.594-.476 0-1.308.713-2.258s1.07-3.208.12-3.922c-.951-.713-.951-2.138.593-2.257s.95 1.544 2.02 2.733c1.07 1.188 1.545.832 1.189-.832-.357-1.663-1.783-3.446.237-2.257 2.02 1.188 1.426 3.327 2.139 4.04s2.257.713 2.02 3.445c-.238 2.733-1.07 7.368-2.139 8.556-1.07 1.188-3.683 2.614-2.376 2.733s2.139 1.544 1.069 2.02c-1.07.475-.713 1.544-.832 2.495-.118.95-.594.594-2.376.594M393.577 493.332c-.416 1.977-1.306 1.069-1.306-.476s-.476-1.9-1.308-2.257-2.02 1.307-2.138.237c-.12-1.069 1.306-1.307 1.663-3.327.356-2.02 1.544-2.02 3.327-.238s2.733 2.853 2.733 6.06c0 3.209-1.664 3.447-1.664 1.426s-.831-3.683-1.307-1.425M388.468 487.51c-.584 1.326-2.02.593-2.258-.595-.237-1.188-1.545-.594-1.545-2.02s.833-2.852 2.14-1.782c1.306 1.07 2.97 1.426 1.663 4.396M379.556 473.25c-1.913-.112-2.377-.594-2.614-1.545-.238-.95.475-2.851 1.545-1.426s3.089 3.09 1.07 2.971M374.685 467.665c-1.185 1.1-2.852-1.426-2.734-2.851.12-1.426 1.545-.713 2.852-.833 1.307-.118 1.545 2.14-.118 3.684M373.971 457.684c-.956 1.366-2.495 2.852-2.614 1.664s-1.901-2.02-.95-3.446c.95-1.426 1.426-2.02 2.614-1.189 1.187.832 1.782 1.783.95 2.971M363.396 469.091c-1.783 1.901-4.16 2.02-3.09.595 1.07-1.427 2.614-3.328 3.209-4.872.594-1.545 1.307-3.09 1.663-2.14.357.951 0 4.516-1.782 6.417M357.692 469.21c-1.457.19-2.02-1.545-4.158-1.782-2.14-.238-.951-2.971-.595-3.922.356-.95.238-3.208 1.426-3.089s.238-1.664 3.09-2.02 3.327.476 2.851 1.307c-.475.832 1.545 2.733 1.902 3.565.356.832-1.783 5.585-4.516 5.941M350.325 465.526c-1.387.578-1.426-1.069-.475-2.376.95-1.307 1.901 1.783.475 2.376M354.959 458.397c-.746.513-1.544.95-1.425.238.118-.713-.951 0-.595-2.02s1.07-2.615 1.07-4.397.95-2.733 1.782-3.09-1.307-2.257 0-2.851.475-1.07-.238-.832-4.04-1.425-1.306-2.377c2.732-.95 3.92-2.97 5.346-2.613 1.427.356 2.496 2.376 1.783 3.445-.713 1.07-1.07 4.753-2.02 5.941-.95 1.189-3.328 2.377-2.377 3.803.95 1.426 2.496 3.327 1.307 3.327-1.188 0-1.426.119-3.327 1.426M364.228 439.147c-2.21.582-3.922-.594-2.615-1.663 1.307-1.07 2.377-2.377 3.922-2.496 1.544-.118 2.02.951 2.02 1.783s-1.07 1.782-3.327 2.376M369.575 438.79c-1.145.86-1.307-.355-.832-1.781s1.188-2.614 3.208-2.377 1.782 1.544 1.426 2.495-.356 1.07-1.426.713c-1.07-.356-.95-.118-2.376.95M311.588 460.417c-2.125 1.798-2.97.95-2.495-1.188.475-2.14 1.901-3.327 3.09-4.278s2.851-2.733 3.92-2.258c1.07.475.357 2.02-.712 3.209-1.07 1.188-2.258 3.208-3.803 4.515M301.963 451.624c-1.868-.35-3.565-1.664-3.327-3.09s3.327-4.04 3.327-5.347.238-2.376 1.188-2.851c.952-.476 1.07-3.09 2.496-3.922 1.426-.831.832-2.614 2.97-2.852 2.139-.237 2.852-.593 2.852-1.9 0-1.308.357-1.783 2.02-.595s3.565.475 1.783-.713-4.872-4.277-2.733-4.158 3.802 1.782 4.753 3.327c.95 1.544.237 4.159-1.783 6.297s-2.376 4.516-4.04 6.417c-1.663 1.901-2.97 4.872-4.634 5.11-1.664.237-1.9.831-2.02 2.138-.119 1.307-.95 2.495-2.852 2.139M303.39 468.854c-1.27-.741-4.872-1.545-2.971-2.02s3.92-.951 5.347-.12c1.425.832 2.852 2.972 1.069 2.496-1.782-.475-2.02.476-3.446-.356M347.949 432.73c-1.545 1.03-2.852.952-4.16-.237-1.307-1.188-2.138-2.614.12-2.614s4.396-.237 5.465-1.307c1.07-1.07 3.209-1.426 4.16-1.545.95-.119.593 1.188-.951 1.783-1.545.594-3.921 3.445-4.634 3.92M342.086 503.709c-2.709 1.192-4.594-.634-2.376-1.11 2.218-.474 5.07-1.9 3.486-1.9s-3.486-.475-5.704-.475-1.584-2.377-.317-2.694 4.278-.158 5.704-.158 2.376-1.584 3.485-.16c1.11 1.427-.317 4.754-4.278 6.497M391.32 439.503c-1.258-.503-4.99-2.02-7.724-1.781-2.733.237-5.347 1.188-7.13 1.306-1.781.119-2.138-1.306-1.781-2.614.356-1.307.475-2.139 2.613-2.139s2.495-1.426 2.495-2.257-.593-.357-1.782.237c-1.188.594-2.97-.118-3.208-1.069-.238-.95-.595-3.327-.595-3.327s-.118-.119 4.397 0 12.714-.95 16.28.238c3.564 1.188 6.654 1.307 7.01 2.376.356 1.07-.356 2.496-1.544 3.802-1.189 1.308-4.278 1.426-4.754 2.734-.475 1.306-1.9 3.446-4.278 2.494M379.08 522.087c-2.1.42-3.564-1.545-2.02-1.545s1.07-1.307-.831-1.188c-1.901.12-2.377-1.307-2.733-1.782s-.594-2.258.237-1.901c.832.356 2.14 1.188 2.377.475.238-.713-1.307-.475-1.188-1.544.119-1.07.238-2.615-.119-2.852-.357-.238-2.614-1.07-2.97.831s-1.189 2.258-1.783 2.97c-.594.714-1.901-1.544-1.663-2.732.237-1.188 1.544-2.852 2.851-3.446s2.733-.594 3.684-1.188c.95-.594 2.495 0 3.802.356s2.733 1.188 3.209 2.02c.475.832 1.069 1.426 1.663 1.189.594-.238 1.069.118.119 2.257s-.95 3.802-2.02 4.515-2.97 1.426-1.902 2.02c1.07.594 1.07 1.189-.712 1.545" style="fill:#9d8750;fill-opacity:1;fill-rule:nonzero;stroke:none" transform="matrix(1.33333 0 0 -1.33333 -.667 1121.853)"></path><path d="M383.953 519.235c-1.57 1.277-2.139.713-.595-1.663 1.545-2.377 2.971-4.516 2.971-5.704s-.95-1.188-1.901-.95c-.951.237-1.664-1.664-.713-2.14.95-.474 1.663-3.326.594-2.732-1.07.594-2.852 1.663-3.208.119s-2.496-2.733-3.328-2.14c-.831.595-2.376.952-2.376-1.306s-.712-4.278-2.139-2.615c-1.425 1.664-2.495 2.02-4.515 1.426-2.02-.593-4.753-1.306-6.06-2.495-1.307-1.188-1.426-2.733-3.208-3.683-1.783-.951-4.16-2.02-5.348-2.971-1.188-.95-3.089-3.802-1.663-4.159s2.851-.475 4.515 0 5.11 2.258 5.823 3.208 1.901 1.188 1.901-.237c0-1.426 1.188-2.614 2.614-2.377s2.02-.475 1.07-1.782c-.951-1.307-.951-2.852.118-2.615 1.07.238.357 0-.118-1.069-.476-1.07.475-2.258.831-2.376.357-.119.357-.832.475-2.14.119-1.306-.118-2.376.832-3.207.951-.833 2.258-1.07 3.565-.595s1.188 1.308.595 2.02c-.595.713 1.306-.118 3.088-.356s2.14 1.901 1.07 2.733-.594 3.09.475 3.565c1.07.475.595 2.376-.95 2.97s-3.803 2.495-2.615 2.258c1.189-.238 3.565-.95 4.991-.475s4.754 2.257 5.229 3.446c.475 1.188 2.495 3.208 2.613 4.159.12.95 3.328 1.426 1.783 2.97s-3.327 1.426-4.634 2.14c-1.307.712-.832 3.207.119 3.564.95.356 2.376 1.307 2.495 3.683s.95 4.516-.238 6.536-2.257 3.445-4.158 4.99M329.53 450.198c-1.09-.787-3.801-3.446-6.297-4.04s-3.684-1.545-4.99.238c-1.308 1.782-4.04 4.04-4.397 4.872s-3.209 3.565-4.753 4.515-4.278 1.069-4.397.238c-.118-.832 1.307-1.308 3.327-1.902s3.684-2.495 2.496-2.495-2.733.832-3.565 1.426-3.921-.119-2.614-1.07c1.307-.95 4.278-2.257 4.396-3.683s1.545-1.783 3.209-2.614c1.663-.832 4.277-1.901 5.465-3.446 1.19-1.545.595-2.377.238-3.446-.356-1.07 1.783-1.782 2.852-.713 1.07 1.069 1.664 2.139.594 3.565-1.07 1.425-.357 2.733.594 1.425.95-1.307.713-3.802 2.02-3.565s1.783 1.308 1.07 2.258c-.714.95.475 1.664.95.832.476-.832.832-.832 2.258 0s.594 2.258 1.663 2.733c1.07.475 1.901 2.377 1.901.475 0-1.9 1.783-1.07 1.783-2.614s2.377-2.257 3.565-1.188.831-.119 1.426-1.07c.593-.95 1.901-.356 2.733.357.831.713.118.238.237-.95.12-1.189.357-1.664 1.545-.713 1.188.95 4.04.118 4.99-.476s1.308-2.02 1.426-3.327c.119-1.307.475-3.327 1.783-2.376 1.307.95 2.139.238 3.09-.475.95-.714 1.069-2.14 3.446-2.496 2.376-.356 4.04-.831 5.584-2.02 1.545-1.188 2.377-1.782 3.565-.832s1.901 2.97.237 2.97c-1.663 0-4.515 2.258-6.178 4.04s-5.704 5.824-7.724 6.299-2.02 3.09-4.634 3.565-4.753 1.069-5.704 2.257-3.446 1.664-5.228 2.14c-1.782.474-3.446 0-4.396.118-.951.118-1.427 2.733-3.565 1.188M303.151 485.132c-1.679-1.527-2.257-4.158-2.613-5.465-.357-1.308-2.02-3.565-2.14-4.991-.118-1.426-2.614-5.11.238-4.515 2.852.594 3.446 1.188 5.229 1.188s4.871.118 3.683 1.664c-1.188 1.544-1.545 3.208-1.782 4.277-.238 1.07-.475 2.733.237 4.159.713 1.426 1.783 3.921 3.565 4.396s6.654.238 5.704-.95-3.209-1.664-4.516-1.188c-1.307.475-3.683-2.14-1.545-2.971 2.14-.832 1.308-3.802 3.328-3.683 2.02.118 4.871 2.138 4.99.712s-1.663-1.663-2.851-2.614c-1.189-.95-.238-.713-.714-2.495-.475-1.782.238-3.446 1.545-4.278s1.07-2.614.357-3.802-.713-3.684.119-4.159c.831-.476 2.139-.832 2.97-2.139s1.664-2.614 3.803-3.445c2.138-.833 3.09-1.308 4.634.118s1.307 4.397 1.307 7.249-.595 8.198-.357 11.05 0 5.584-.238 7.01c-.237 1.427-.356 1.783-2.138 2.971s-4.396 2.614-3.208 2.971 1.782-.238 3.683-1.901 4.516-2.377 6.298-3.446 3.09-2.496 6.416-2.496 4.16 1.427 4.278 3.209c.12 1.782-2.139 6.416-4.278 9.387s-3.565 4.872-3.802 6.773-.832 4.278-2.257 4.159c-1.427-.119-.595-1.07-1.427-2.377-.831-1.307-2.138-1.782-4.396-.713-2.258 1.07-4.278 1.07-2.377-.713 1.902-1.782 3.803-2.852 5.704-2.852s2.733.713 2.733-2.257 1.307-5.228 2.377-5.941 2.257-2.733 3.564-3.208c1.308-.476.595-4.04-.95-2.615-1.545 1.427-3.327 4.516-5.585 4.516s-4.753.713-7.486 2.495-4.634 2.258-6.535 2.139c-1.902-.119-2.733 1.307-4.516 1.545-1.782.237-3.565-.95-5.11-1.782-1.544-.833-.712-2.258-2.257-2.615-1.544-.356-2.376-1.188-3.684-2.377" style="fill:#9d8750;fill-opacity:1;fill-rule:nonzero;stroke:none" transform="matrix(1.33333 0 0 -1.33333 -.667 1121.853)"></path><path d="M319.55 495.827c-1.15.383-2.971-1.188-4.278-1.188-1.308 0-2.02-1.188-1.189-1.545.833-.357 2.733-1.07 4.16-.95 1.425.118 3.683-.832 3.683.356s-.95 2.852-2.377 3.327M319.787 498.916c.924.925 1.307 2.852-.238 4.278s-4.871 2.376-7.01 2.139c-2.14-.238-4.753-1.188-6.06-2.258-1.308-1.07-1.426-3.565.356-2.138 1.783 1.425 3.446 1.069 2.376-.238-1.069-1.307-.95-3.09.832-3.208 1.783-.12 2.615.237 3.446.95.832.713.357 2.614 1.189 3.208.831.594 1.663 1.426 1.663-.475 0-1.902 2.495-3.208 3.446-2.258M303.983 497.61c.19 1.906-2.733 1.069-3.089-.238-.356-1.308-.832-4.278-.119-5.704s1.426-2.02 2.614-2.377c1.189-.356 1.307-.237 2.139 1.545s.95 2.733-.475 3.565c-1.427.831-1.188 2.02-1.07 3.208" style="fill:#9d8750;fill-opacity:1;fill-rule:nonzero;stroke:none" transform="matrix(1.33333 0 0 -1.33333 -.667 1121.853)"></path><path d="M382.883 432.969c-.713.95-1.782.356-1.069-1.07s3.207-1.782 1.07 1.07M387.517 433.919c-2.289.458-2.614-1.07-1.544-1.901 1.069-.832 1.425.95 2.733.356 1.307-.594-.832-2.614 1.9-1.188 2.734 1.426 1.545 2.614.832 2.496-.712-.12-2.138-.12-3.92.237M397.617 434.395c-1.657.143-2.733-1.07-2.851-2.377-.12-1.307 1.188-1.545 1.545-.357.356 1.188 4.04 2.496 1.306 2.734M381.576 503.075c-.955-.827-2.852-2.733-1.783-2.733 1.07 0 2.021.12 2.734 1.545s.831 2.733-.951 1.188M379.437 497.372c-2.22-.412-3.92-1.902-1.426-1.427 2.495.476 4.278.833 5.822 0 1.545-.831 2.853.476 1.308 1.07s-2.495.95-5.704.357M367.792 497.134c-2.657 0-5.703-2.258-3.921-2.495s2.139.118 2.852.831 1.664-.118 3.089-.238c1.426-.118 1.426 1.902-2.02 1.902M324.184 477.884c-2.246.205-2.258-.119-2.971-1.544s-.95-2.734.95-1.308c1.901 1.426 4.635 2.614 2.02 2.852M323.114 471.943c.798.797-.594.832-1.664.832s-2.257-1.901-1.188-3.209c1.07-1.307 1.308-4.04 1.308-5.941s.594-4.99.95-.713-.237 8.2.594 9.031M326.917 461.01c-1.555.312-1.426-.593-1.426-2.494s.594-2.614.95-.951c.357 1.664 1.663 3.208.476 3.446M255.265 574.37c-1.11-3.216-3.169-7.446-4.753-5.228s-.317 6.654-1.11 8.555c-.791 1.902-2.217 0-2.059-1.11.158-1.108-2.534-1.108-1.584-2.217.95-1.11-.158-3.168 1.11-4.753 1.267-1.585 1.108-5.545 2.693-7.13s1.9-3.96 1.426-5.703c-.476-1.743-.159-2.535.95-1.901 1.109.633.792 4.119 1.426 8.239.634 4.118 1.584 5.386 2.693 8.08s.793 7.763-.792 3.168M249.244 591.64c0 2.376-.316 3.96-1.583 3.643-1.268-.317-3.328-3.168-2.22-4.119 1.11-.95 1.11-2.06 0-2.852-1.108-.792-.791-.95.16-1.901.95-.95-.476-1.902.633-3.169 1.11-1.267 2.694-3.168 2.694.159s.316 4.911.316 8.238" style="fill:#604c39;fill-opacity:1;fill-rule:nonzero;stroke:none" transform="matrix(1.33333 0 0 -1.33333 -.667 1121.853)"></path><path d="M229.956 565.22c-1.877-.098-3.328-1.9-.476-1.9s2.733 2.02.476 1.9M227.223 562.725c-1.9.087-2.615-1.307-.476-1.663s3.09 1.544.476 1.663M226.985 559.636c-2.143 0-3.565.118-2.258-.594 1.307-.713 1.664-1.426 3.446-.95 1.783.474.831 1.544-1.188 1.544M232.57 562.488c-2.257.055-2.496-.594-1.664-1.782s6.535 1.663 1.663 1.782M232.45 557.616c-2.374.365-2.376-.832-.831-1.426s3.921.95.832 1.426M230.074 555.358c-1.578.143-1.426-.237-1.426-1.782s.12-3.565 1.189-3.803c1.069-.237.712 1.308.475 2.02-.238.713.95 1.07 1.07 1.902.118.831 0 1.544-1.308 1.663M234.233 551.318c-1.49.407-3.208-.237-2.139-1.307s1.664-3.446 2.733-2.852 2.02 3.446-.594 4.16M231.975 546.565c-1.554.444-2.614-1.188-1.188-1.9 1.426-.714 2.852 1.424 1.188 1.9M236.253 543.832c-.718.718-4.04.95-2.02-.594s4.04-1.426 2.02.594M225.796 552.625c-2.005.24-3.089-.832-1.188-1.188s4.16.832 1.188 1.188M225.084 548.229c-2.077.878-3.209-.238-1.308-1.307 1.901-1.07 4.397 0 1.307 1.307M218.905 547.753c-1.887.236-2.377-1.307-.594-1.664 1.782-.356 2.495 1.427.594 1.664M253.958 529.335c1.881.363 4.634.951 2.495 1.783-2.139.831-2.97.237-3.802-.594-.832-.832-1.782-1.782 1.307-1.189M220.093 559.517c-1.907-.182-2.97-1.782-1.426-2.02 1.545-.237 3.921 2.257 1.426 2.02M216.29 555.952c-2.376 0-3.445-1.663-2.02-2.257 1.426-.595 8.318 2.257 2.02 2.257M211.894 553.338c-1.153.288-.95-1.664-2.495-1.664s-3.565-1.663-.95-2.138c2.613-.476 3.683-.832 3.92 1.07.238 1.9.476 2.494-.475 2.732M283.308 528.266c-1.737.631-3.169.158-1.426-1.268s0-3.168 2.535-4.119 3.644.158 4.753 1.901-.317 3.01-1.426 1.902c-1.109-1.11-2.693.95-4.436 1.584M344.938 530.325c-1.448-.643-3.327-.475-3.802-.316s-.159-2.852 1.742-3.644 2.219-.635 3.645 1.742 1.267 3.486-1.585 2.218M345.889 537.455c-1.995-.19-2.693-.316-3.485-1.584-.793-1.267-.318-3.169 2.534-1.267 2.852 1.9 4.278 3.168.95 2.851M319.272 527.95c-1.894.164-5.545-1.11-2.535-1.268 3.01-.16 6.179.95 2.535 1.267M304.934 534.326c-1.667-.044-2.496-1.07-1.426-1.544 1.07-.476 5.941 1.663 1.426 1.544M302.914 547.635c-2.051 0-2.733-.357-1.545-1.07s1.307-1.07 3.209-.356c1.9.713.593 1.426-1.664 1.426M300.894 543.832c-1.992 0-2.852-.237-2.02-.832.832-.594 2.258-1.426 3.327-.713s.119 1.545-1.307 1.545M302.438 539.555c-1.425 0-2.376-1.545-.475-1.664 1.902-.119 3.565 1.664.475 1.664M298.042 537.178c-3.142.661-2.852-1.426-.832-1.545s3.09 1.07.832 1.545M289.962 537.653c-1.999.56-2.258-1.069-.713-1.544s3.683.712.713 1.544M295.428 550.249c-1.901 0-2.852-.833-.713-1.308s3.565 1.308.713 1.308M280.813 540.861c-1.396.38-3.328-.237-1.545-1.188 1.782-.95 4.159.475 1.545 1.188M294.121 542.168c-2.251-.166-3.09-1.663-1.545-1.782 1.545-.118 4.753 2.02 1.545 1.782M294.002 546.565c-2.377 0-2.97-1.9-.713-2.02 2.258-.119 3.09 2.02.713 2.02M286.991 548.704c-1.68-.046-3.564-1.663-1.426-2.258 2.14-.594 5.823 2.377 1.426 2.258M286.04 543.476c-2.539 0-2.851-1.573-.95-1.783s4.159 1.783.95 1.783M333.434 531.718c-1.665.09-2.573-.867-1.544-1.426 1.027-.559 6.054 1.185 1.544 1.426M332.481 545.146c-2.044.163-2.752-.138-1.625-.944 1.128-.805 1.218-1.17 3.17-.61s.706 1.373-1.545 1.554M330.165 541.517c-1.986.158-2.862-.01-2.08-.668.782-.66 2.137-1.602 3.26-.977s.241 1.53-1.18 1.645M331.364 537.13c-1.422.113-2.492-1.351-.607-1.621s3.686 1.374.607 1.62M326.792 535.11c-3.08.91-2.957-1.193-.953-1.473s3.165.82.953 1.473M318.775 536.229c-1.947.717-2.336-.886-.834-1.483s3.729.417.834 1.483M325.229 548.348c-1.896.152-2.91-.601-.815-1.246 2.093-.644 3.657 1.02.815 1.246M309.91 540.157c-1.359.49-3.335.028-1.634-1.061 1.701-1.09 4.183.141 1.635 1.06M323.28 540.398c-2.257.014-3.212-1.412-1.681-1.653 1.53-.242 4.9 1.634 1.682 1.653M323.513 544.79c-2.369.19-3.113-1.658-.871-1.956 2.24-.3 3.24 1.767.87 1.956M316.695 547.481c-1.678.09-3.686-1.374-1.601-2.136 2.084-.763 5.993 1.905 1.601 2.136M315.33 542.345c-2.532.203-2.968-1.34-1.089-1.7 1.878-.36 4.288 1.445 1.09 1.7M309.45 546.209c-1.786-.062-3.21-1.308-.832-1.308 2.376 0 4.277 1.427.831 1.308M312.539 534.801c-2.15.098-3.446-1.188-1.07-1.663s3.684 1.545 1.07 1.663M289.011 533.019c-1.655.752-3.208-.95-.831-1.545 2.376-.594 2.138.951.831 1.545M296.616 532.425c-1.664.115-2.376-1.664-.594-1.782 1.783-.12 4.04 1.545.594 1.782M280.575 535.99c-3.072.329-4.04-1.427-.832-1.664 3.209-.238 4.159 1.307.832 1.664M274.396 546.446c-2.016.275-3.09-1.901-1.188-2.02 1.9-.118 3.802 1.663 1.188 2.02M272.97 541.456c-1.625.375-1.901-1.07-.356-1.426 1.544-.357 3.446.713.356 1.426M271.306 536.703c-1.82.469-3.446-.832-.713-1.427 2.734-.593 4.397.476.713 1.427M268.574 549.536c-1.66.721-2.14-1.783-.714-2.02s3.446.832.714 2.02M338.917 542.05c-2.97 0-4.633-1.426-1.663-1.426 2.971 0 4.872 1.426 1.663 1.426M346.84 550.446c-2.597-1.19-4.278-3.643-1.902-3.01 2.376.634 5.704 4.753 1.901 3.01M354.127 550.13c-2.547-.196-4.752-1.902-2.693-2.535 2.06-.634 2.852-.317 4.278.95 1.426 1.268.475 1.744-1.585 1.585M360.148 549.02c-2.06.318-2.852-.95-3.803-1.584-.95-.633.476-1.584 2.218-.633 1.743.95 3.645 1.9 1.585 2.218M367.436 547.278c-2.267.098-4.753-.159-2.693-.634 2.06-.476 6.337.476 2.693.634M357.138 539.673c-2.662.444-2.377-1.109-.475-1.742 1.9-.634 2.376 1.426.475 1.742M361.574 543c-3.173 0-2.693-1.109-.634-1.743 2.06-.633 3.169 1.743.634 1.743M368.07 544.109c-2.06 0-2.06-1.109-.634-1.743 1.426-.633 2.376-1.742 4.594.159s1.584 3.803 0 2.376c-1.584-1.425-1.584-.792-3.96-.792M365.376 539.673c-3.165.159-1.9-1.426-.476-1.426 1.427 0 3.644 1.268.476 1.426M372.981 539.356c-2.523.252-7.288-.476-4.436-1.267 2.852-.792 4.277-1.426 6.02-.792s1.584 1.742-1.584 2.06M368.07 536.187c-2.37.238-1.902-1.583-1.11-2.692s2.06-.952 3.644.791-.95 1.743-2.534 1.901M370.921 531.118c-2.54 0-2.376-1.427-1.584-2.06.792-.634.792-.793 3.644 0 2.852.792 3.485 3.01 1.426 1.901s-1.267.159-3.486.159M400.046 522.26c-1.503.723-2.675.252-1.925-.63.75-.88 5.993-1.333 1.925.63M403.812 534.032c-1.826.935-2.595.93-1.863-.247s.676-1.548 2.692-1.781 1.18.997-.83 2.028M399.21 530.738c-1.772.909-2.647 1.09-2.177.182s1.358-2.299 2.635-2.153c1.277.147.81 1.32-.459 1.971M401.84 525.962c-1.599.82-3.368-.009-1.292-1.207 2.076-1.197 4.752-.567 1.291 1.207M394.706 526.95c-2.494 2.022-3.189.032-1.446-.995 1.744-1.028 3.238-.458 1.446.995M387.732 531.06c-1.523 1.409-2.496.078-1.339-1.05 1.158-1.127 3.603-1.047 1.339 1.05M398.343 539.773c-1.692.868-2.917.561-1.23-.837 1.686-1.4 3.768-.464 1.23.837M381.054 538.089c-1.067.974-3.069 1.306-1.916-.353 1.152-1.659 3.918-1.474 1.916.353M393.493 533.18c-2.08.879-3.508-.071-2.187-.881 1.32-.811 5.15-.372 2.187.88M395.394 537.146c-2.116 1.084-3.511-.336-1.557-1.472s3.671.388 1.557 1.472M390.13 542.248c-1.515.726-3.93.146-2.298-1.358s6.265-.542 2.299 1.358M386.9 538.029c-2.26 1.16-3.256-.098-1.66-1.152 1.597-1.053 4.515-.311 1.66 1.152M399.147 501.76c-.934 1.381-2.243 1.527-2.068.37s4.599-4.112 2.068-.37M409.277 510.625c-1.103 1.729-1.77 2.111-1.732.726s-.198-1.677 1.426-2.896c1.624-1.22 1.522.266.306 2.17M404.985 510.28c-1.072 1.68-1.735 2.276-1.788 1.256-.053-1.021.013-2.671 1.19-3.188 1.176-.518 1.366.731.598 1.933M402.211 506.676c-.767 1.202-2.58 1.172-1.658-.495.924-1.665 3.321-2.108 1.658.495M397.842 509.103c-1.133 3.004-2.736 1.636-1.75-.13.988-1.766 2.565-2.029 1.75.13M393.895 516.169c-.604 1.985-2.117 1.328-1.687-.23.432-1.558 2.584-2.722 1.687.23M407.452 518.34c-1.023 1.603-2.236 1.957-1.486-.101s3.02-2.302 1.486.101M389.588 524.633c-.43 1.38-1.99 2.677-1.833.662.159-2.013 2.639-3.25 1.833-.662M399.938 515.094c-1.352 1.807-3.064 1.708-2.333.343.73-1.366 4.26-2.92 2.333-.343M403.58 517.56c-1.28 2.003-3.201 1.48-2.086-.487 1.114-1.966 3.364-1.516 2.086.487M406.395 527.675c-.937 1.395-3.13 2.232-2.41.154.718-2.08 4.863-3.803 2.41-.154M395.156 521.627c-1.367 2.14-2.858 1.559-2.011-.157s3.737-2.548 2.01.157M380.031 543.832c-1.596.852-1.782-.237-.475-1.07 1.307-.831 4.04-.831.475 1.07M379.556 549.06c-1.708 1.249-2.852-.237-.832-1.425s3.922-.832.832 1.425M371.833 551.2c-2.302.69-3.328-1.07-.713-1.307 2.613-.239 3.088.593.713 1.306M362.802 552.625c-1.732.42-1.426-1.188.237-1.426 1.664-.237 3.684.475-.237 1.426M348.542 544.901c-3.682.148-4.99-1.069-1.9-1.306 3.088-.238 4.871 1.188 1.9 1.306M353.771 542.882c-1.9.067-3.327-1.902-1.545-1.783s4.872 1.664 1.545 1.783M353.177 536.109c-1.841.119-2.614-1.664-.594-1.902 2.02-.237 4.277 1.664.594 1.902M362.089 534.92c-1.974.43-4.753-.237-1.426-1.188 3.327-.95 4.159.594 1.426 1.188M379.913 533.97c-2.595.48-3.684-.595-1.189-1.307 2.495-.714 4.397.712 1.189 1.307M409.143 503.669c-.831 2.14-2.614 2.14-1.544.357s2.377-2.496 1.544-.357" style="fill:#9d8750;fill-opacity:1;fill-rule:nonzero;stroke:none" transform="matrix(1.33333 0 0 -1.33333 -.667 1121.853)"></path><path d="M379.2 517.69c-1.145.318-2.615-1.425-.595-1.425s2.733.831.595 1.425M379.556 514.245c-1.426.042-2.02-.357-2.258-1.07-.237-.713 1.07-.594 1.426-.237.357.356 4.872 1.187.832 1.307M245.321 192.948v96.631l-.532.063h-37.688l-.214-.001c-1.724-15.112-2.384-27.401-2.541-30.706h-22.561999999999998s1.802 46.845 11.433 81.34c12.495 44.753 48.265 44.917 86.567 44.754v-65.13l.04-.857h36.366c20.88 0 35.688-13.975 38.433-36.878l.11-.688h31.87c5.266.081 6.858.653 6.858 10.29 0 5.879-1.633 8.656-8.496 11.753l-51.41 24.61c-14.172 6.639-17.024 11.82-16.86 25.213v10.126c-.001 16.497 5.226 21.56 21.722 21.56h62.72c11.924.164 14.864-5.225 14.864-14.863v-16.5h-22.54c.123 7.919-1.347 8.865-7.227 8.824h-39.485c-5.555 0-7.678-.327-7.515-5.553-.163-5.064.702-6.918 5.006-8.931l58.706-28.104c11.422-5.432 13.055-8.864 13.055-20.623v-19.6c0-16.659-5.39-20.906-23.03-20.742h-39.83l-.089-.386c-3.53-12.806-11.779-23.308-25.668-26.968l.134-.213 23.524-38.417-.209-.003h-26.03l-.188-.002-22.672 37.025-.16.217H267.86v-37.24zm11.923 126.7v42.456c-25.506-1.356-36.492-7.025-42.317-27.891-1.935-6.932-3.533-14.485-4.847-22.053l.226.021h35.015v6.86h11.902zm10.618-60.754v-6.165h48.262c7.3.021 10.208 2.588 11.926 4.82q.459.6.876 1.274l.205.375c-9.32 1.001-12.574 5.05-12.436 15.418v15.356h12.314l-.312.4c-2.468 3.651-6.395 6.13-12.506 6.13h-36.426l.02-.552v-37.015h-11.352z" style="fill:#604c39;fill-opacity:1;fill-rule:nonzero;stroke:none" transform="matrix(1.33333 0 0 -1.33333 -.667 1121.853)"></path><path d="M263.452 300.906v-52.593l.345.005h52.326c9.335.027 13.271 3.747 15.421 6.542.937 1.218 1.76 2.605 2.465 4.137l.816-.062h13.722l-.122-.451c-3.728-12.143-12.393-22.18-28.173-23.69l.145-.243 22.777-37.194h-15.901l-.187-.001-22.806 37.243h-40.503l-.325.008v-37.249h-13.456l-.265.017v117.257h66.46c18.652 0 31.444-12.598 34.008-32.7l.063-.457h-5.31c-4.533.041-5.758 2.164-5.718 8.496h-5.264l-.298.532c-3.412 6.746-9.39 10.408-17.482 10.408h-52.474z" style="fill:#9d8750;fill-opacity:1;fill-rule:nonzero;stroke:none" transform="matrix(1.33333 0 0 -1.33333 -.667 1121.853)"></path><path d="M397.871 291.765c0 7.95-2.902 12.077-11.092 15.774l-51.319 24.568c-12.825 6.007-14.496 9.696-14.356 21.181v10.18c0 7.14 1.06 11.524 3.334 13.799 2.318 2.318 6.63 3.352 13.98 3.352h62.72c4.154.056 6.953-.628 8.376-2.032 1.418-1.398 2.077-4.073 2.077-8.422v-12.09h-13.913c-.294 2.568-.996 4.634-2.567 6.218-2.423 2.444-5.73 2.627-8.908 2.605H346.75c-3.333 0-7.11 0-9.644-2.614-1.956-2.018-2.29-4.72-2.29-6.795 0-.192.004-.373.01-.553a33 33 0 0 1-.018-.98c0-5.346 1.422-9.074 7.565-11.946l58.67-28.087c9.833-4.677 10.549-6.626 10.549-16.646v-19.6c0-6.925-.961-10.965-3.116-13.1-2.334-2.313-7.103-3.31-15.463-3.232h-58.188c-6.33 0-10.058.792-11.733 2.49-.863.874-1.991 2.668-1.991 8.162q-.001.273.004.56v11.005h13.965c.609-3.979 2.703-8.432 9.842-8.497h41.692c9.592.148 11.268 4.858 11.268 14.7zM275.374 295.92v-32.575h-6.86l-.653-.04v32.737l.02.46h7.533zM275.374 319.594v61.037c-36.008.092-66.686-1.342-77.91-41.542-7.645-27.385-10.306-63.2-11.037-75.744h13.745a513 513 0 0 0 2.807 30.726l.263-.02h42.079v13.721h-40.426l.022.17c1.477 9.342 3.364 18.867 5.762 27.457 6.825 24.445 21.549 29.792 46.33 31.11l4.645.246v-47.03l.04-.683h13.66z" style="fill:#9d8750;fill-opacity:1;fill-rule:nonzero;stroke:none" transform="matrix(1.33333 0 0 -1.33333 -.667 1121.853)" data-source="https://football-logos.cc"></path><!-- source: https://football-logos.cc --></svg>