<svg xmlns="http://www.w3.org/2000/svg" viewBox="11.68 46.41 234.33 166"><!-- Source: https://football-logos.cc --><path d="M1234.66 1197.59H561.137V797.309c-31.094-9.489-49.621-11.692-49.84-11.692l-20.953-2.207 1.543-20.949 3.086-39.477 22.054 2.426c15.219 1.543 30.879 4.192 46.754 7.719 1.989-16.981 5.735-39.477 12.352-65.059-9.926-14.996-165.844-249.429-165.844-249.429s51.824-9.707 67.484-12.793V374.09h528.857c-.88-5.512-1.55-11.027-1.55-11.027h256.27v54.253h-200.69c38.15 16.539 76.97 42.563 112.7 75.426 96.15 88.656 154.15 207.969 154.15 303.242 0 29.11-5.51 55.797-16.76 78.731-12.13 24.922-30.87 43.89-54.47 55.797v267.078zM616.051 548.539v-5.297c0-29.328 5.293-55.355 16.32-77.629a124.2 124.2 0 0 1 12.352-20.289h-95.055c20.512 31.535 43.445 67.266 66.383 103.215" style="fill:#31589d;fill-opacity:1;fill-rule:evenodd;stroke:none" transform="matrix(.13333 0 0 -.13333 0 258.667)" data-source="https://football-logos.cc"></path><path d="M1168.5 498.035c58.23 53.59 104.54 121.516 130.34 190.985 14.12 38.156 21.39 74.765 21.39 107.406 0 28.226-5.29 53.59-15.87 75.203-12.13 24.918-31.1 43.445-55.36 54.473v264.428H568.414V792.234c-34.844-11.25-56.238-13.671-56.457-13.671l-13.894-1.547 1.105-13.891 2.422-32.199 14.777 1.543c17.422 1.765 35.508 5.074 53.59 9.484 1.984-17.867 5.734-44.332 14.113-75.207-6.836-10.144-161.875-243.035-161.875-243.035s48.52-9.262 62.633-11.906v-1.106l-.883-1.32h.883v-28.012h529.962c-.66-4.851-1.55-11.246-1.55-11.246h241.05v39.918h-205.54c2.21 8.379 3.97 11.024 5.07 11.91 38.6 16.321 78.29 42.563 114.68 76.086m-529.734-29.336c5.734-11.687 13.011-21.832 21.613-30.652H536.656c18.746 29.113 67.043 104.535 85.129 132.543.879-1.543 1.766-3.086 2.426-4.629-.66-7.719-1.102-15.438-1.102-22.719 0-28.226 5.293-53.148 15.657-74.543" style="fill:#fff;fill-opacity:1;fill-rule:evenodd;stroke:none" transform="matrix(.13333 0 0 -.13333 0 258.667)"></path><path d="M735.805 586.25s34.183-30.215 77.629-54.254v294.422c-3.309-3.527-6.614-6.836-9.704-10.367-50.945-56.016-87.554-127.692-102.992-193.633 10.145-12.57 21.614-24.922 35.067-36.168M784.543 831.711a416 416 0 0 0 28.891 24.48v39.696l-64.84-101.008c11.25 12.793 23.156 25.141 35.949 36.832M633.914 778.34c2.207-13.012 5.512-28.891 10.586-46.313l53.594 80.496s-24.262-17.199-64.18-34.183M813.434 915.516v112.914H630.168V815.832s0-5.516.879-14.777c49.398 22.496 110.711 58.004 176.875 114.461zM1075.21 865.234c35.51-72.339 2.87-191.429-73.44-291.554v-39.477c41.69 23.598 73.89 52.047 73.89 52.047 104.53 89.539 105.64 229.582 105.64 229.582v81.602c-30.44 5.511-67.71-5.516-106.09-32.2M1022.07 850.234c-5.3 11.692-12.14 21.395-20.3 28.891v-46.531c6.84 6.172 13.46 12.129 20.3 17.64M1030 826.637c-3.3-3.528-6.83-7.055-10.14-10.586-6.18-7.059-12.35-14.113-18.09-21.391V645.574c28.68 64.84 40.14 131.442 28.23 181.063M1065.73 881.332c40.36 25.141 80.28 39.035 115.57 41.684v105.414h-179.53V921.027c26.25-4.851 48.3-18.082 63.96-39.695" style="fill:#00adef;fill-opacity:1;fill-rule:evenodd;stroke:none" transform="matrix(.13333 0 0 -.13333 0 258.667)"></path><path d="m513.5 764.227 1.32-17.426c46.539 4.633 87.778 18.086 119.094 31.539-1.324 9.043-2.207 16.762-2.867 22.715-71.234-32.2-117.547-36.828-117.547-36.828" style="fill:#d0aa09;fill-opacity:1;fill-rule:evenodd;stroke:none" transform="matrix(.13333 0 0 -.13333 0 258.667)"></path><path d="M814.539 857.074v-29.773c69.91 71.012 144.231 90.199 186.351 52.707v41.242c-52.042 9.484-119.972-12.57-186.351-64.176" style="fill:#00adef;fill-opacity:1;fill-rule:evenodd;stroke:none" transform="matrix(.13333 0 0 -.13333 0 258.667)"></path><path d="M668.539 672.039a60 60 0 0 1-2.426-5.516l2.867 4.633c0 .223-.218.664-.441.883" style="fill:#31589d;fill-opacity:1;fill-rule:evenodd;stroke:none" transform="matrix(.13333 0 0 -.13333 0 258.667)"></path><path d="M1000.89 831.711h-.22C898.781 737.758 840.559 604.332 856.219 512.59c15.437-5.516 31.316-9.043 46.094-9.485.882 0 1.761-.218 2.644-.218h1.324c3.309 0 6.395.218 9.703.66 1.102-3.309 2.204-6.617 3.309-9.703.664-1.324 1.324-2.426 1.766-3.75 7.054 5.734 14.113 11.91 21.171 18.304l.219.223c21.614 19.848 41.024 41.461 58.441 63.953v70.793c-19.183-42.344-45.429-83.801-77.628-119.09-3.305-3.75-6.614-7.277-10.145-10.586-18.086 75.868 18.305 191.653 87.773 279.645z" style="fill:#00adef;fill-opacity:1;fill-rule:evenodd;stroke:none" transform="matrix(.13333 0 0 -.13333 0 258.667)"></path><path d="M87.637 1591.91s49.843-76.09 134.75-76.09c0 0 20.73-48.52 97.48-48.52 0 0 12.129-43.22 74.762-43.22 0 0 10.809-32.2 70.133-32.2 0 0 5.293-21.61 53.808-21.61 0 0 28.231-32.42 76.09-32.42 0 0 10.805-21.39 48.516-21.39 0 0 17.422-21.62 42.344-21.62 0 0 14.996-21.61 37.714-21.61 0 0 18.301-32.86 92.407-32.86 0 0-16.985-20.29-47.2-20.29 0 0 1.985-12.13 14.118-15.44 0 0-9.485-12.13-26.907-12.13 0 0 11.469-26.9 43.668-26.9 32.418 0 24.258 9.48 48.52 0 0 0 16.098-13.46-4.633-26.25 0 0 15.438-4.41 32.199 20.73 0 0 8.821-9.92-1.324-20.73 0 0 18.746-2.65 32.418 26.25 0 0 21.613-10.15 0-26.25 0 0 23.156-2.65 32.859 26.25 0 0 18.969 7.5 32.422 0 12.129-6.84-11.468-25.59-11.468-25.59s25.582-8.82 33.082 25.59c0 0 24.915.66 9.925-26.25 0 0 22.27-.66 22.27 26.25 0 0 35.07.88 14.78-24.26 0 0 29.77-.66 27.79 43 0 0-2.87 16.99-20.96 16.99 0 0 34.41 7.27 48.53 39.69 0 0 25.58-12.79 53.15 0 0 0 33.74-3.53 49.17 26.91 0 0 27.58-3.31 43.01 26.9 0 0 31.1-2.64 54.03 26.91 0 0 28.67-1.98 44.77 21.61 0 0 52.05-3.31 68.37 26.91 0 0 46.97-6.84 65.28 26.91 0 0 43.67-5.3 64.62 32.41 0 0 50.5-4.85 80.05 37.71 0 0 61.31-6.17 91.53 43.01 0 0 88.22-9.48 135.41 81.6h-615.53s-72.55 2.64-123.72-48.52c0 0-79.62-91.74-142.249-91.74 0 0-31.535-8.6-104.976 64.84 0 0-65.942 75.42-155.481 75.42z" style="fill:#d0aa09;fill-opacity:1;fill-rule:evenodd;stroke:none" transform="matrix(.13333 0 0 -.13333 0 258.667)" data-source="https://football-logos.cc"></path><path d="M842.984 1182.15s13.899-4.42 13.899-14.78c0 0 8.156 11.69-3.973 19.63zM874.082 1182.59s18.305-6.18 18.305-16.54c0 0 3.527 13.45-8.379 21.61zM972.223 1182.15s12.129-3.53 12.129-13.9c0 0 9.925 10.81-2.204 18.75zM907.164 1181.71s20.066-7.28 12.57-15.22c0 0 22.055 11.24-2.207 21.17zM1004.2 1182.15s11.47-3.97 11.47-13.9c0 0 11.69 11.25-.88 24.26 0 0-11.03-3.97-10.59-10.36M1031.11 1182.15s16.54-3.97 15.21-9.49c0 0 9.49 8.16.45 19.85 0 0-12.57 1.77-15.66-10.36M923.262 1192.96l16.097 15.65s7.719-5.29 37.274-5.29c0 0 2.426-10.36-53.371-10.36M788.512 1192.96l14.113 12.56s-2.422-2.64 39.48-2.64c0 0-3.308-9.92-53.593-9.92M810.125 1215.01l43.227 26.02s39.035 21.4 59.105 21.4c0 0 29.773 1.1 29.773-21.4 0 0-.882-26.46-64.175-26.46 0 0-66.164-3.31-67.93.44M957.004 1215.01l75.426 53.37s8.82 5.73 24.7 5.73c0 0 15.66 0 15.66-11.24 0 0 4.41-43.45-78.513-51.17 0 0-22.496-2.2-37.273 3.31M966.488 1267.5s36.612-2.21 43.002 22.05c0 0-2.2-6.84-29.107-7.28zM907.164 1274.11l5.734 9.93s22.497-1.77 26.461 10.8l21.172-10.8s0-27.79-53.367-9.93M842.543 1273.67l10.809 15.88h20.953s1.761-5.07 16.316-5.07c0 0 .883-16.1-48.078-10.81M1025.15 1284.48s16.1 10.36 16.1 31.98l-15.66-5.51s-11.24-24.71-.44-26.47M960.531 1305.65s3.532-24.26 48.079-5.07l-4.41 10.37zM879.375 1327.26s.883-5.07 10.809-5.51c0 0-3.75-17.42-31.098-15.66 0 0 2.207 13.89 20.289 21.17M885.551 1300.14s12.129-12.13 48.074.44l-10.805 15.44s-29.55-1.77-37.269-15.88M918.852 1342.48s6.175-5.07 19.187-5.07c0 0-24.262-26.03-41.684-4.86zM944.875 1316.9s36.391-4.63 48.078 15.65l-16.32 10.81s-31.758-12.13-31.758-26.46M1041.91 1284.48s22.28-.88 42.57 21.61c0 0-.44 8.16-10.37 10.37 0 0-8.6.44-15.66-5.51 0 0-15.21-20.52-16.54-26.47M1047.2 1348.21s5.3-5.29 5.3-26.02h21.17s-14.33 9.49-16.1 26.47zM1035.96 1348.66s.44-11.7 5.29-15.66c0 0-7.5-14.34-36.61-10.81l10.15 15.66zM999.129 1349.1l10.361 15.88s15.22-2.87 31.76 5.29c0 0-3.09-21.17-42.121-21.17M1004.64 1386.37l10.15 10.81s2.42-5.3 26.46-5.3c0 0-24.48-31.97-36.61-5.51M982.586 1375.56l10.367-10.14s-5.515-16.32-53.594-16.32l5.516 15.88s32.641-3.75 37.711 10.58M745.508 1397.18s3.086-12.14 15.66-15.66h167.168s15.656-13.02 53.812 0c0 0 10.805 2.2 16.098 21.17 0 0-6.176-1.99-10.808 11.02 0 0-23.817.45-43.004-16.53zM718.16 1397.18c7.5-12.14 16.543-15.66 16.543-15.66H524.305s-18.082.44-31.977 15.66zM761.168 1370.27c2.203-12.57 10.805-15.66 10.805-15.66H578.559s-12.129-.88-21.61 15.66zM788.953 1370.27s3.309-12.13 15.438-15.66h87.113l-5.953-10.81s34.183-3.53 42.785 26.47zM621.563 1343.36s10.808-13.01 21.613-15.66h172.023s-9.926 2.65-15.437 15.66zM821.375 1343.36s1.32-9.48 15.215-15.66h21.613c11.246 3.98 10.809 15.66 10.809 15.66zM670.086 1316.46s2.203-5.96 10.359-10.37h166.953s5.512 2.65 5.512 10.37zM707.355 1294.4s-.882-4.41 5.735-9.92h118.207c6.176 0 5.734 10.36 5.734 10.36zM745.949 1273.23s4.852-8.82 16.098-10.36h47.637c6.839 3.31 5.515 10.36 5.515 10.36zM1020.3 1446.13h268.84s18.96 4.86 27.34 21.17h-231.56l27.79 27.35H1365s20.73 2.65 31.98 21.17H1143.8s27.35 27.35 46.09 27.35l277-.22s21.17 2.87 32.42 26.69h-290.89s-51.17-3.53-101.89-53.82c0 0-44.1-51.38-86.23-69.69M1526.22 1569.64s-3.09-16.76-26.47-26.91l252.74-.22s28.23 6.84 37.71 27.13zM1424.33 1515.82s.44-10.36-21.62-21.17h241.93s24.27 2.65 32.43 21.17zM1343.39 1467.3s1.11-11.24-20.95-21.17h220.32s24.26-2.64 42.78 21.17zM1241.06 1434.89s5.51-8.6 5.51-21.62h215.03s31.32-3.52 48.96 21.62zM427.711 1429.59s3.086-12.57 21.609-15.88h215.469s-9.039 3.31-16.758 15.88zM352.285 1466.86s9.485-20.73 32.199-20.73h225.832s-16.097 8.17-20.953 21.17zM255.246 1516.27s12.574-21.62 32.422-21.62h241.93s-15.215 5.3-21.61 21.17zM147.625 1569.64s12.129-26.47 37.711-26.47h247.227s-18.305 10.37-21.391 26.47z" style="fill:#fff;fill-opacity:1;fill-rule:evenodd;stroke:none" transform="matrix(.13333 0 0 -.13333 0 258.667)"></path><path d="M982.148 1434.89v-15.66s-31.98.44-37.273-10.81h-6.836s-7.937-1.76-9.703 5.29H702.504s-15.879.45-21.613 15.88h215.464l-16.539 16.54H648.91s-20.508 3.09-27.347 21.17h232.23l-28.008 27.35H573.047s-20.512 1.77-27.348 21.17h248.328s-24.261 27.35-47.195 27.35H470.715s-26.906 1.77-32.199 26.47h285.379s52.046.88 118.21-64.62c0 0 65.942-70.13 103.211-70.13zM1316.93 1396.73s5.07-3.09 5.07-15.21h96.38s13.89.44 21.61 15.66zM1316.48 1354.61s9.93 4.85 11.25 15.66h52.93s.45-12.57-16.1-15.66zM1127.93 1327.7s12.56 3.09 21.61 15.66h161.65s-8.6-15.66-27.78-15.66zM1101.46 1306.09s7.28 1.32 10.36 10.37h150.85s-2.64-10.37-10.8-10.37zM1079.63 1284.48s6.17.44 10.58 10.36h134.31s-2.64-9.92-10.81-10.36zM1111.82 1273.23s4.41-3.09 5.3-10.8H1176s.88 5.95 5.51 10.8z" style="fill:#fff;fill-opacity:1;fill-rule:evenodd;stroke:none" transform="matrix(.13333 0 0 -.13333 0 258.667)"></path><path d="M1229.81 1403.13s3.75 31.76-31.31 31.76H999.129s3.081-31.76 43.661-31.76h36.84s-22.06-7.72-26.69-21.61h10.81s-10.81-8.61-10.81-21.61h21.17s-11.68-11.7 0-21.62c0 0 16.98-19.19 59.33 11.25 0 0 17.86 11.69 27.35 10.37 0 0 8.16.88 10.8-5.3h128.36s-7.72 15.66-30.88 19.63h-82.26v8.38l97.48.22s17.42-.88 21.39-12.13c0 0-2.43 31.98-29.11 31.98h-46.53s-16.33-16.32-31.99-16.32c0 0-16.54-.44-16.54 11.25h-42.78s2.2 5.51 12.13 5.51z" style="fill:#fff;fill-opacity:1;fill-rule:evenodd;stroke:none" transform="matrix(.13333 0 0 -.13333 0 258.667)"></path><path d="m718.824 1127.01-6.394-26.68h-1.989c-.218 3.97-1.101 7.49-1.984 9.92-1.543 3.53-3.746 6.4-6.176 8.38-2.644 1.99-5.511 2.87-8.379 2.87s-5.515-1.1-7.5-3.31c-2.203-2.42-3.308-4.85-3.308-7.94 0-2.64.66-5.51 2.207-8.38 1.543-2.64 5.07-6.83 10.804-12.35 4.411-4.41 7.5-8.16 9.043-11.47a23.1 23.1 0 0 0 2.426-10.36c0-4.19-1.101-7.94-3.308-11.47-2.203-3.53-5.289-6.4-9.262-8.16-4.191-1.99-8.82-3.09-14.113-3.09-3.09 0-7.059.66-11.911 1.55-4.851 1.1-8.16 1.54-9.707 1.54q-1.98 0-3.304-.66c-1.106-.44-2.207-1.1-3.75-2.43h-2.203l6.613 29.99h1.984c.66-5.29 1.547-9.7 3.09-13.45s3.969-6.61 6.836-8.6q4.3-3.3 9.926-3.3 5.624 0 9.262 3.96c2.425 2.43 3.746 5.52 3.746 8.82 0 2.87-.879 5.74-2.203 8.39-1.321 2.64-4.629 6.39-9.485 11.46-5.07 5.08-8.597 9.71-10.363 13.68-1.324 3.08-1.984 6.17-1.984 9.48 0 5.96 1.984 10.81 6.394 15.22 4.41 4.19 10.367 6.39 17.426 6.39 3.086 0 7.496-.88 12.566-2.2 3.09-.88 5.297-1.33 6.617-1.33 1.102 0 1.989.22 2.868.67.882.44 1.765 1.32 2.867 2.86zM723.672 1064.16c2.648 0 4.855-.88 6.621-2.87 1.762-1.76 2.645-3.97 2.645-6.61 0-2.65-.883-5.07-2.645-6.84-1.988-1.77-3.973-2.87-6.621-2.87-2.422 0-4.629 1.1-6.395 2.87-1.761 1.98-2.644 4.19-2.644 6.84 0 2.64.883 4.85 2.644 6.61 1.766 1.99 3.973 2.87 6.395 2.87M810.566 1127.01l-6.394-26.68h-1.984c-.442 3.97-1.102 7.49-2.208 9.92-1.542 3.53-3.527 6.4-6.175 8.38-2.422 1.99-5.293 2.87-8.157 2.87-2.871 0-5.515-1.1-7.718-3.31-1.989-2.42-3.09-4.85-3.09-7.94 0-2.64.66-5.51 2.203-8.38 1.547-2.64 5.074-6.83 10.809-12.35 4.41-4.41 7.5-8.16 9.043-11.47a23.1 23.1 0 0 0 2.425-10.36c0-4.19-1.105-7.94-3.308-11.47-2.207-3.53-5.293-6.4-9.485-8.16-3.968-1.99-8.597-3.09-13.894-3.09-3.086 0-7.278.66-11.906 1.55-4.856 1.1-8.164 1.54-9.704 1.54-1.324 0-2.429-.22-3.531-.66-.883-.44-2.207-1.1-3.527-2.43h-2.207l6.617 29.99h1.984c.442-5.29 1.543-9.7 3.09-13.45 1.539-3.75 3.746-6.61 6.836-8.6q4.3-3.3 9.926-3.3c3.523 0 6.613 1.32 9.258 3.96 2.429 2.43 3.531 5.52 3.531 8.82 0 2.87-.66 5.74-1.984 8.39-1.325 2.64-4.633 6.39-9.703 11.46-4.852 5.08-8.383 9.71-10.145 13.68-1.547 3.08-2.207 6.17-2.207 9.48 0 5.96 2.207 10.81 6.617 15.22 4.41 4.19 10.145 6.39 17.422 6.39 3.086 0 7.277-.88 12.57-2.2 3.086-.88 5.293-1.33 6.618-1.33 1.101 0 1.984.22 2.863.67.883.44 1.769 1.32 2.871 2.86zM815.418 1064.16c2.648 0 4.633-.88 6.617-2.87 1.762-1.76 2.649-3.97 2.649-6.61 0-2.65-.887-5.07-2.871-6.84-1.762-1.77-3.969-2.87-6.395-2.87-2.648 0-4.629 1.1-6.395 2.87-1.765 1.98-2.648 4.19-2.648 6.84 0 2.64.883 4.85 2.648 6.61 1.766 1.99 3.747 2.87 6.395 2.87M892.605 1046.73h-60.203l.661 1.99c3.527 0 6.171.89 7.718 2.21 1.762 1.54 3.309 4.85 4.633 9.92l13.891 50.51c.883 2.64 1.324 4.85 1.324 6.61 0 1.55-.66 2.65-1.762 3.53-1.105 1.1-3.308 1.54-6.617 1.76l.66 1.99h36.168l-.66-1.99c-3.309-.22-5.953-.88-7.719-2.42-1.765-1.77-3.308-4.86-4.633-9.71l-12.57-46.09c-1.766-5.73-2.426-9.48-2.426-10.59 0-.88.223-1.54 1.102-2.2.883-.66 2.207-1.1 3.969-1.1 6.179 0 12.132 1.54 17.867 4.41q8.601 4.305 14.555 13.23h2.425zM932.523 1076.95l20.512 25.36-1.324-25.36zm18.528-14.78c-.223-4.41-.664-7.49-1.543-9.04-.883-1.76-1.766-3.09-2.867-3.52-.442-.23-2.207-.45-5.512-.89l-.664-1.99h32.64l.661 1.99c-2.426.22-3.969.89-5.071 2.21-1.105 1.1-1.547 3.09-1.547 5.73 0 .66 0 2.65.223 5.96l2.649 64.39h-2.649l-53.148-66.38c-3.969-4.85-6.84-8.16-8.825-9.7-1.543-1.11-3.527-1.77-5.511-2.21l-.442-1.99h22.274v1.99c-2.207.22-3.746.66-4.633 1.32-.883.89-1.543 1.77-1.543 2.65s.223 1.76.66 2.65c.445 1.32 1.324 2.42 2.207 3.97l5.293 6.61 4.852 5.96h23.156zM1058.68 1123.04l-57.79-71.89h4.41c9.05 0 16.32 1.32 21.62 4.19 5.51 2.86 10.58 7.5 15.21 13.89h2.43l-7.94-22.5h-58.663v2.21l57.563 71.68h-7.06c-8.82 0-15.66-1.1-20.07-3.53-4.19-2.21-7.94-6.18-11.027-11.91h-2.203l6.39 20.07h57.13zM1066.61 1123.26l.66 1.99h36.84l-.66-1.99c-3.31 0-5.96-.88-7.72-2.42-1.77-1.55-3.31-4.86-4.64-9.71l-13.89-50.28c-.88-3.53-1.54-5.95-1.54-7.28 0-1.32.66-2.42 1.76-3.09 1.32-1.1 3.75-1.54 7.5-1.76l-.66-1.99h-37.28l.67 1.99c3.74 0 6.39.89 8.16 2.21 1.76 1.54 3.31 4.85 4.63 9.92l13.89 50.28c.88 3.09 1.33 5.52 1.33 7.06 0 1.33-.45 2.65-1.55 3.31-1.1.88-3.53 1.32-7.5 1.76M1156.15 1118.63c1.77-2.2 2.87-6.17 2.87-11.47 0-8.38-1.98-17.86-5.51-28.66-3.53-10.81-8.16-18.97-13.68-24.48-2.87-2.87-6.17-4.41-10.37-4.41-3.08 0-5.51 1.32-7.49 3.74-1.99 2.43-2.87 5.96-2.87 10.59 0 5.51.88 12.35 3.09 20.51 1.99 8.38 3.97 14.78 6.4 19.63 2.2 4.85 4.41 8.38 6.61 11.03 2.21 2.64 4.41 4.41 6.4 5.51 1.98 1.1 4.63 1.76 7.5 1.76 2.64 0 5.07-1.32 7.05-3.75m-8.38-68.59c7.5 4.19 14.12 11.47 20.07 21.17 5.95 9.71 8.82 19.42 8.82 29.34 0 4.19-1.1 8.6-3.3 12.79-2.21 4.19-5.52 7.72-9.49 9.92-4.19 2.43-8.38 3.75-13.01 3.75-7.72 0-15.66-2.65-23.6-7.94s-14.33-12.12-18.97-20.73c-4.63-8.82-7.05-17.2-7.05-25.8 0-4.19.88-8.6 2.87-13.01 1.76-4.41 4.63-7.94 8.37-10.59 3.75-2.64 8.61-3.97 14.56-3.97 8.16 0 15.22 1.76 20.73 5.07" style="fill:#31589d;fill-opacity:1;fill-rule:evenodd;stroke:none" transform="matrix(.13333 0 0 -.13333 0 258.667)"></path><path d="M1158.8 508.621c116.89 107.844 176.43 267.516 132.76 356.613-20.95 42.563-61.09 61.309-110.26 57.782v-25.582c25.8-4.856 46.75-21.618 58.88-51.168 33.08-80.496-12.13-224.508-100.57-321.989-87.11-95.711-183.926-110.488-218.551-34.183-.442 1.324-1.102 2.426-1.766 3.75-1.105 3.086-2.207 6.394-3.309 9.703a72 72 0 0 0-9.703-.66h-1.324c-.883 0-1.762.218-2.644.218-14.778.442-30.657 3.969-46.094 9.485 2.203-13.453 6.176-26.242 11.687-37.711-71.011-49.402-138.5-44.992-164.742 18.965-14.113 34.183-13.894 79.836-2.426 128.574-12.789 15.879-23.156 32.418-31.758 48.738l-2.867-4.633c-31.097-71.671-38.375-142.246-14.336-191.644 12.571-25.586 32.2-42.566 56.68-51.168H510.41l149.75 233.332c6.617 11.246 7.496 13.23 8.379 14.996-10.586 20.731-18.305 41.238-24.039 59.988L439.398 423.711h-29.996v-76.746h851.948v76.746h-246.12c45.65 12.129 95.71 40.801 143.57 84.91m-281.191-49.625c12.133-16.98 28.231-28.668 47.196-35.285H798.879c25.141 6.84 51.824 18.523 78.73 35.285" style="fill:#d0aa09;fill-opacity:1;fill-rule:evenodd;stroke:none" transform="matrix(.13333 0 0 -.13333 0 258.667)"></path><path d="M456.602 397.688v10.808h19.625v-48.738h-12.789v37.93zM558.711 400.336c4.41 0 8.16-3.531 8.16-7.941s-3.75-7.942-8.16-7.942a7.91 7.91 0 0 0-7.941 7.942 7.91 7.91 0 0 0 7.941 7.941m2.203-40.578 10.367 13.672c4.192 5.511 7.719 12.347 7.719 19.406 0 5.07-2.426 10.144-6.398 13.453-3.747 2.867-9.258 4.191-13.891 4.191-11.246 0-20.949-6.617-20.949-18.523 0-9.043 5.949-17.207 15.656-17.207 2.426 0 4.633.664 6.836 1.547v-.223l-13.895-16.316zM662.367 399.23c6.613 0 8.156-10.367 8.156-14.996 0-4.851-1.543-15.218-8.156-15.218-6.398 0-7.941 10.367-7.941 15.218 0 4.629 1.543 14.996 7.941 14.996m0 11.25c-14.336 0-20.512-13.675-20.512-26.464 0-12.571 5.954-26.246 20.512-26.246 14.555 0 20.727 13.675 20.727 26.246 0 12.789-6.172 26.464-20.727 26.464M758.078 399.23c6.399 0 7.938-10.367 7.938-14.996 0-4.851-1.539-15.218-7.938-15.218-6.617 0-8.16 10.367-8.16 15.218 0 4.629 1.543 14.996 8.16 14.996m0 11.25c-14.555 0-20.73-13.675-20.73-26.464 0-12.571 6.175-26.246 20.73-26.246s20.512 13.675 20.512 26.246c0 12.789-6.176 26.464-20.512 26.464M951.273 370.563v-10.805h-39.257l19.847 21.609c2.867 3.086 5.512 7.496 5.512 11.91 0 3.09-2.203 6.399-5.512 6.399s-5.293-2.649-5.293-5.957c0-.66 0-1.324.223-1.985h-13.895c.219 11.028 7.497 18.746 18.965 18.746 10.145 0 18.746-6.839 18.746-17.421 0-6.84-2.867-11.032-7.941-15.442l-7.496-7.054zM1027.58 399.23c6.62 0 8.16-10.367 8.16-14.996 0-4.851-1.54-15.218-8.16-15.218s-8.16 10.367-8.16 15.218c0 4.629 1.54 14.996 8.16 14.996m0 11.25c-14.56 0-20.73-13.675-20.73-26.464 0-12.571 6.17-26.246 20.73-26.246 14.55 0 20.73 13.675 20.73 26.246 0 12.789-6.18 26.464-20.73 26.464M1124.84 399.23c6.61 0 8.16-10.367 8.16-14.996 0-4.851-1.55-15.218-8.16-15.218-6.62 0-8.16 10.367-8.16 15.218 0 4.629 1.54 14.996 8.16 14.996m0 11.25c-14.56 0-20.73-13.675-20.73-26.464 0-12.571 6.17-26.246 20.73-26.246 14.55 0 20.73 13.675 20.73 26.246 0 12.789-6.18 26.464-20.73 26.464M1222.09 399.23c6.62 0 8.16-10.367 8.16-14.996 0-4.851-1.54-15.218-8.16-15.218-6.61 0-8.16 10.367-8.16 15.218 0 4.629 1.55 14.996 8.16 14.996m0 11.25c-14.55 0-20.73-13.675-20.73-26.464 0-12.571 6.18-26.246 20.73-26.246 14.56 0 20.73 13.675 20.73 26.246 0 12.789-6.17 26.464-20.73 26.464" style="fill:#fff;fill-opacity:1;fill-rule:evenodd;stroke:none" transform="matrix(.13333 0 0 -.13333 0 258.667)"></path><path d="M852.473 385.559c0-5.516-4.633-10.145-10.149-10.145-5.734 0-10.363 4.41-10.363 10.145a10.35 10.35 0 0 0 10.363 10.363c5.516 0 10.149-4.629 10.149-10.363" style="fill:#231f20;fill-opacity:1;fill-rule:evenodd;stroke:none" transform="matrix(.13333 0 0 -.13333 0 258.667)" data-source="https://football-logos.cc"></path><!-- source: https://football-logos.cc --></svg>