<svg xmlns="http://www.w3.org/2000/svg" xml:space="preserve" viewBox="0 0 720 870"><!-- Source: https://football-logos.cc --><path d="M96.985 652c-13.193-.186-21.608-7.548-26.377-17.402-16.377-33.288-29.595-65.751-39.957-97.64l-.013-.044-.006-.01c-8.239-24.102-15.06-51.924-20.1-81.406l-.006-.057C3.092 413.899.124 370.009.538 325.75c-.414-44.259 2.554-88.149 9.988-129.69l.007-.058c5.039-29.482 11.86-57.304 20.1-81.407l.005-.009.013-.044c10.362-31.889 23.58-64.352 39.957-97.64C75.377 7.048 83.792-.314 96.985-.5h346.347c13.193.186 21.609 7.548 26.377 17.402 16.378 33.288 29.595 65.752 39.957 97.642l.019.051c8.239 24.103 15.06 51.925 20.1 81.407 7.55 41.97 10.94 85.68 10.703 129.748.236 44.07-3.152 87.778-10.704 129.748-5.039 29.482-11.86 57.304-20.1 81.407l-.018.052c-10.362 31.89-23.58 64.353-39.957 97.641-4.768 9.853-13.184 17.216-26.377 17.402H158.521Z" style="opacity:1;vector-effect:none;fill:#fd5;fill-opacity:1;stroke:none;stroke-width:1.125;stroke-linecap:butt;stroke-linejoin:miter;stroke-miterlimit:4;stroke-dasharray:none;stroke-dashoffset:0;stroke-opacity:1;paint-order:fill markers stroke" transform="matrix(1.33333 0 0 -1.33333 -.667 869.333)" data-source="https://football-logos.cc"></path><path d="M102.646 618.25c-17.992-34.426-32.114-75.318-42.782-108.006-32.84-122.078-35.439-254.26 0-368.99 10.668-32.687 24.79-73.578 42.782-108.004H437.35c18.001 34.443 32.13 75.348 42.8 108.05 30.896 118.545 39.764 249.572 0 368.898-13.063 36.474-27.888 79.317-42.8 108.052H106.21Z" style="opacity:1;vector-effect:none;fill:#2a7fff;fill-opacity:1;stroke:none;stroke-width:1.125;stroke-linecap:butt;stroke-linejoin:miter;stroke-miterlimit:4;stroke-dasharray:none;stroke-dashoffset:0;stroke-opacity:1;paint-order:fill markers stroke" transform="matrix(1.33333 0 0 -1.33333 -.667 869.333)" data-source="https://football-logos.cc"></path><path d="M143.156 163c-.68.432.803 1.812 5.664 5.96 10.095 8.613 15.52 16.07 17.302 23.782.45 1.949.692 48.971.703 136.457l.017 133.483L150.75 488.5h60.504l65.72-109.88 65.72-109.881s.137 22.784 0 94.882l-.182 95.145-1.58 3.715c-2.285 5.369-7.274 10.345-13.995 18.306l-6.511 7.713h75.433c0-.426-3.442-4.654-7.65-8.982-8.268-8.508-11.94-14.276-13.343-20.954-.536-2.558-.745-38.415-.725-124.407l.03-120.815L402.5 163h-74.755l-64.743 107.3-64.743 107.3s-.144-20.457 0-92.163c.172-85.658.272-92.686 1.364-95.874 2.41-7.03 9.037-15.15 18.375-22.508 2.16-1.702 3.816-3.652 3.681-4.055h-36.911Z" style="fill:#fd5;fill-opacity:1;stroke:none;stroke-width:1.125;stroke-miterlimit:4;stroke-dasharray:none" transform="matrix(1.33333 0 0 -1.33333 -.667 869.333)" data-source="https://football-logos.cc"></path><!-- source: https://football-logos.cc --></svg>