<svg xmlns="http://www.w3.org/2000/svg" style="shape-rendering:geometricPrecision;text-rendering:geometricPrecision;image-rendering:optimizeQuality;fill-rule:evenodd;clip-rule:evenodd" viewBox="-0.5 -0.5 445 537"><!-- Source: https://football-logos.cc --><path fill="#a60a12" d="M199.5-.5h45q56.151 38.514 123 55.5 36.435 6.549 73 8 2.776 1.034 4 3.5v72a6557 6557 0 0 1-6 129h-8q-5.293 55.617-32.5 104-22.968 37.737-54.5 69-54.54 51.849-120.5 87-86.892-43.498-150-118-50.267-62.08-60.5-142h-7a6552 6552 0 0 1-6-129v-72q1.225-2.466 4-3.5 55.346-1.191 108-18a575 575 0 0 0 65-30 643 643 0 0 0 23-15.5" style="opacity:1" data-source="https://football-logos.cc"></path><path fill="#eea925" d="M430.5 267.5q-208.446.107-417 0A5730 5730 0 0 1 6.5 93 91 91 0 0 1 8 74.5a9.5 9.5 0 0 1 2.5-1.5 382 382 0 0 0 68-10 744 744 0 0 0 58-20 808 808 0 0 0 68-34 343 343 0 0 1 37 0Q331.144 64.548 436 74.5a91 91 0 0 1 1.5 18.5 5730 5730 0 0 1-7 174.5" style="opacity:1"></path><path fill="#a60a12" d="M204.5 17.5q16.507-.25 33 .5 52.856 32.667 113 50a305.3 305.3 0 0 0 79 12.5 2636 2636 0 0 1-7 181h-28q5.64-87.909-60-145.5-41.474-34.93-95-45.5-.424 40.394 1 81a757 757 0 0 1-31.5-2q-2.549 1.359-5.5 1a1603 1603 0 0 1-1-76q-12.074 1.775-23 7.5Q102.872 119.95 71 199.5q-10.2 29.642-10.5 61h-39a2583 2583 0 0 1-7-180q85.042-5.004 160-44.5a72.6 72.6 0 0 1 17-9 69.2 69.2 0 0 0 13-9.5" style="opacity:1"></path><path fill="#a60a12" d="M267.5 110.5q9.178 2.087 17 7.5 53.892 38.883 78.5 100.5 4.051 20.4 2.5 41a1145 1145 0 0 1-95.5 0 938 938 0 0 1 .5-75 145 145 0 0 1 15 6 93.8 93.8 0 0 0 8-21 360 360 0 0 1-24.5-9 807 807 0 0 1-1.5-50M170.5 118.5q.925.166 1.5 1 1 18 0 36-42.58 17.58-52 63a1285 1285 0 0 0-4.5 41h-20q-5.925-82.103 58-132.5 8.304-5.152 17-8.5M204.5 174.5a171.6 171.6 0 0 1 35.5 3 2053 2053 0 0 1 2.5 67.5 57.3 57.3 0 0 1-1.5 14.5q-18.47.362-37.5-1 .474-40.038-1-80 .378-2.36 2-4" style="opacity:1"></path><path fill="#a60a12" d="M169.5 183.5h3q.25 37.004-.5 74a9.5 9.5 0 0 1-2.5 1.5 100.2 100.2 0 0 1-20 0 9.5 9.5 0 0 1-2.5-1.5q-10.074-43.753 22.5-74" style="opacity:1" data-source="https://football-logos.cc"></path><path fill="#eeb42b" d="M5.5 267.5h7q10.233 79.92 60.5 142 63.108 74.502 150 118 65.96-35.151 120.5-87 31.532-31.263 54.5-69 27.207-48.383 32.5-104h8q-1.833 35.871-15.5 70-29.626 67.41-83.5 117.5-51.342 46.578-113 78.5l-8 1q-75.162-39.42-134.5-100-39.35-43.145-63-97-13.667-34.129-15.5-70" style="opacity:1"></path><path fill="#eea925" d="M22.5 275.5a416 416 0 0 1 40.5 1q5.901 40.964 27.5 76 8.5-7.5 16-16a1815 1815 0 0 1-14.5-39 80.5 80.5 0 0 1-2-21q16.658-1.98 33.5 0 7.95 16.21 23 26.5a275 275 0 0 0 27 8.5 614 614 0 0 1 1 49h28q-.25-21.506.5-43a3.94 3.94 0 0 1 2-1 2400 2400 0 0 0 39.5 6 821 821 0 0 1 2 38 207.5 207.5 0 0 0 28.5-1q.597-10.755-.5-21.5l1-8.5 2-1q26.3 10.581 23.5 39-25.143 46.981-78.5 53.5-35.814.92-65-20a373 373 0 0 1-22.5-23.5L120.5 392a79.9 79.9 0 0 0 15 15 1021 1021 0 0 0 35 25q36.249 16.163 74 5 39.55-14.434 67.5-46.5 33.866-67.749-39-86-.75-14.492-.5-29 10.548-.495 21 1 23.736 38.465 47.5 77a255 255 0 0 0 18.5-19.5 1720 1720 0 0 0-37-57.5q49.49-1.5 99-1-4.526 38.562-20.5 74-28.263 54.757-73.5 96.5-47.853 42.931-105 72.5-85.294-43.004-146.5-117a342 342 0 0 1-36-60 683 683 0 0 1-12-33 213 213 0 0 1-5.5-33" style="opacity:1"></path><path fill="#eea925" d="M153.5 275.5h20a61 61 0 0 1-.5 11q-13.046.597-19.5-11M202.5 275.5h42v25a495 495 0 0 1-39.5-6q-1.418-.608-2-2a145 145 0 0 1-.5-17" style="opacity:1"></path><path fill="#e99553" d="m226.5 533.5-2 3h-5l-1-2z" style="opacity:1" data-source="https://football-logos.cc"></path><!-- source: https://football-logos.cc --></svg>