<svg xmlns="http://www.w3.org/2000/svg" xml:space="preserve" viewBox="0.19 0.19 719.63 719.63"><!-- Source: https://football-logos.cc --><path d="M270.5 538.938c-148.569 0-269.437-120.87-269.437-269.44C1.063 120.932 121.93.064 270.499.064S539.938 120.93 539.938 269.499c0 148.569-120.87 269.439-269.439 269.439z" style="fill:#fd5;fill-opacity:1;fill-rule:nonzero;stroke:#000;stroke-width:1.125;stroke-miterlimit:4;stroke-dasharray:none" transform="matrix(1.33333 0 0 -1.33333 -.667 719.333)" data-source="https://football-logos.cc"></path><path d="M270.499 501.437c-127.89 0-231.937-104.047-231.936-231.939 0-127.89 104.046-231.935 231.936-231.935 127.889 0 231.939 104.045 231.939 231.935 0 127.892-104.05 231.94-231.939 231.94z" style="fill:#2a7fff;fill-opacity:1;fill-rule:nonzero;stroke:#000;stroke-width:1.125;stroke-miterlimit:4;stroke-dasharray:none" transform="matrix(1.33333 0 0 -1.33333 -.667 719.333)"></path><path d="M184.916 169.563c-.448.285.53 1.197 3.732 3.94 6.651 5.697 10.225 10.628 11.4 15.727.296 1.289.456 32.385.463 90.237l.01 88.27-10.602 17.074h39.864l43.302-72.663 43.3-72.662s.091 15.067 0 62.744l-.119 62.918-1.041 2.457c-1.505 3.55-4.792 6.84-9.22 12.105l-4.29 5.1h49.7c0-.281-2.268-3.077-5.04-5.94-5.448-5.625-7.868-9.44-8.791-13.856-.354-1.69-.492-25.403-.478-82.268l.018-79.893 18.666-33.29h-49.254l-42.657 70.955-42.658 70.956s-.094-13.528 0-60.945c.113-56.645.18-61.293.9-63.4 1.587-4.65 5.954-10.019 12.106-14.885 1.423-1.125 2.514-2.415 2.425-2.681h-24.32Z" style="fill:#fd5;fill-opacity:1;stroke:#000;stroke-width:1.12499952;stroke-miterlimit:4;stroke-dasharray:none" transform="matrix(1.33333 0 0 -1.33333 -.667 719.333)"></path><g style="stroke-width:1.16038262;stroke:#000;stroke-miterlimit:4;stroke-dasharray:none;fill:#fd5;fill-opacity:1"><g style="font-style:normal;font-variant:normal;font-weight:400;font-stretch:normal;font-size:100px;line-height:1.25;font-family:Arial;-inkscape-font-specification:Arial;letter-spacing:0;word-spacing:0;fill:#fd5;fill-opacity:1;stroke:#000;stroke-width:1.16038262;stroke-miterlimit:4;stroke-dasharray:none"><path d="m45.367-158.309 11.572-1.367q1.953 13.72 12.793 13.72 5.371 0 8.447-2.782 3.076-2.832 3.076-6.983 0-2.441-1.074-4.15t-3.271-2.783q-2.198-1.123-10.645-3.711-7.568-2.295-11.084-4.98t-5.615-7.032q-2.05-4.394-2.05-9.424 0-5.86 2.636-10.547 2.685-4.687 7.373-7.08 4.687-2.392 11.572-2.392 10.352 0 16.162 5.615t6.153 16.064l-11.866.635q-.78-5.762-3.369-8.057-2.588-2.294-7.373-2.294t-7.373 2.002q-2.588 2.001-2.588 4.98 0 2.93 2.344 4.932t10.791 4.394q8.936 2.588 12.89 5.469 4.005 2.832 6.104 7.373 2.1 4.492 2.1 10.937 0 9.327-5.762 15.674-5.713 6.348-17.92 6.348-21.582 0-24.023-24.56z" aria-label="S" style="font-style:normal;font-variant:normal;font-weight:700;font-stretch:condensed;font-family:Arial;-inkscape-font-specification:&quot;Arial Bold Condensed&quot;;letter-spacing:-9.75px;stroke-width:1.16038262;stroke:#000;stroke-miterlimit:4;stroke-dasharray:none;fill:#fd5;fill-opacity:1" transform="matrix(.55365 1.36688 -1.0502 .42538 -83.35 435.018)"></path></g></g><g style="stroke-width:1.16038262;stroke:#000;stroke-miterlimit:4;stroke-dasharray:none;fill:#fd5;fill-opacity:1"><g style="font-style:normal;font-variant:normal;font-weight:400;font-stretch:normal;font-size:100px;line-height:1.25;font-family:Arial;-inkscape-font-specification:Arial;letter-spacing:0;word-spacing:0;fill:#fd5;fill-opacity:1;stroke:#000;stroke-width:1.16038262;stroke-miterlimit:4;stroke-dasharray:none"><path d="m45.367-158.309 11.572-1.367q1.953 13.72 12.793 13.72 5.371 0 8.447-2.782 3.076-2.832 3.076-6.983 0-2.441-1.074-4.15t-3.271-2.783q-2.198-1.123-10.645-3.711-7.568-2.295-11.084-4.98t-5.615-7.032q-2.05-4.394-2.05-9.424 0-5.86 2.636-10.547 2.685-4.687 7.373-7.08 4.687-2.392 11.572-2.392 10.352 0 16.162 5.615t6.153 16.064l-11.866.635q-.78-5.762-3.369-8.057-2.588-2.294-7.373-2.294t-7.373 2.002q-2.588 2.001-2.588 4.98 0 2.93 2.344 4.932t10.791 4.394q8.936 2.588 12.89 5.469 4.005 2.832 6.104 7.373 2.1 4.492 2.1 10.937 0 9.327-5.762 15.674-5.713 6.348-17.92 6.348-21.582 0-24.023-24.56z" aria-label="S" style="font-style:normal;font-variant:normal;font-weight:700;font-stretch:condensed;font-family:Arial;-inkscape-font-specification:&quot;Arial Bold Condensed&quot;;letter-spacing:-9.75px;stroke-width:1.16038262;stroke:#000;stroke-miterlimit:4;stroke-dasharray:none;fill:#fd5;fill-opacity:1" transform="matrix(.8372 1.21407 -.9328 .64324 -39.62 549.265)"></path></g></g><g style="stroke-width:1.16537619;stroke:#000;stroke-miterlimit:4;stroke-dasharray:none;fill:#fd5;fill-opacity:1"><g style="font-style:normal;font-variant:normal;font-weight:400;font-stretch:normal;font-size:100px;line-height:1.25;font-family:Arial;-inkscape-font-specification:Arial;letter-spacing:0;word-spacing:0;fill:#fd5;fill-opacity:1;stroke:#000;stroke-width:1.16537619;stroke-miterlimit:4;stroke-dasharray:none"><path d="m201.476 102.226 12.923-.838c-.358 10.15-2.91 19.645-9.135 24.974-4.434 3.737-9.905 5.452-14.048 5.505q-11.474 0-18.603-8.838-8.205-10.205-8.204-27.54 0-18.309 8.252-28.662 7.179-8.985 19.288-8.984c3.518.228 6.688 1.48 9.443 3.47 5.299 3.828 9.062 10.392 10.814 17.677l-11.719 3.418c-1.327-5.2-3.915-8.721-6.97-10.37-4.063-2.192-8.953-1.07-12.799 3.823q-4.101 5.665-4.102 18.7 0 13.526 4.004 19.24c3.144 3.825 6.805 5.65 10.315 5.462 7.05-.767 11.381-7.765 10.54-17.037z" aria-label="C" style="letter-spacing:-9.75px;stroke-width:1.16537619;stroke:#000;stroke-miterlimit:4;stroke-dasharray:none;fill:#fd5;fill-opacity:1" transform="matrix(1.15576 .89558 -.69403 .89566 87.952 317.158)"></path></g></g><g style="stroke-width:1.16018272;stroke:#000;stroke-miterlimit:4;stroke-dasharray:none;fill:#fd5;fill-opacity:1" data-source="https://football-logos.cc"><g style="font-style:normal;font-variant:normal;font-weight:400;font-stretch:normal;font-size:100px;line-height:1.25;font-family:Arial;-inkscape-font-specification:Arial;letter-spacing:0;word-spacing:0;fill:#fd5;fill-opacity:1;stroke:#000;stroke-width:1.16018272;stroke-miterlimit:4;stroke-dasharray:none"><path d="M162.394 332.164v-71.582h11.523l24.024 47.803v-47.803h11.035v71.582h-11.914l-23.633-46.68v46.68z" aria-label="N" style="letter-spacing:-4.5px;stroke-width:1.16018272;stroke:#000;stroke-miterlimit:4;stroke-dasharray:none;fill:#fd5;fill-opacity:1" transform="matrix(1.47386 .06211 -.04771 1.13215 78.636 255.377)"></path></g></g><path d="M102.34-158.01a6.94 6.94 0 0 1-6.937 6.938 6.94 6.94 0 0 1-6.937-6.937 6.94 6.94 0 0 1 6.937-6.938 6.94 6.94 0 0 1 6.938 6.938zM146.55-109.966a6.94 6.94 0 0 1-6.938 6.937 6.94 6.94 0 0 1-6.938-6.937 6.94 6.94 0 0 1 6.938-6.938 6.94 6.94 0 0 1 6.937 6.938zM208.35-74.78a6.94 6.94 0 0 1-6.937 6.937 6.94 6.94 0 0 1-6.937-6.937 6.94 6.94 0 0 1 6.937-6.938 6.94 6.94 0 0 1 6.938 6.938z" style="opacity:1;vector-effect:none;fill:#fd5;fill-opacity:1;stroke:#000;stroke-width:1.12500003;stroke-linecap:butt;stroke-linejoin:miter;stroke-miterlimit:4;stroke-dasharray:none;stroke-dashoffset:0;stroke-opacity:1;paint-order:fill markers stroke" transform="matrix(1.33333 0 0 1.33333 -.667 719.333)"></path><g style="stroke-width:1.27921363;stroke:#000;stroke-miterlimit:4;stroke-dasharray:none;fill:#fd5;fill-opacity:1"><g style="font-style:normal;font-variant:normal;font-weight:400;font-stretch:normal;font-size:110.20684814px;line-height:1.25;font-family:Arial;-inkscape-font-specification:Arial;letter-spacing:0;word-spacing:0;fill:#fd5;fill-opacity:1;stroke:#000;stroke-width:1.27921361;stroke-miterlimit:4;stroke-dasharray:none"><path d="M347.318 175.692H333.11l-5.65-17.919h-25.83l-5.327 17.92H282.42l25.184-78.889h13.83zm-24.054-31.21-8.88-29.274-8.77 29.274z" aria-label="A" style="letter-spacing:-4.95930815px;stroke-width:1.27921361;stroke:#000;stroke-miterlimit:4;stroke-dasharray:none;fill:#fd5;fill-opacity:1" transform="matrix(1.30859 -.27541 .21176 1.00616 -32.523 547.268)"></path></g></g><g style="stroke-width:1.2788725;stroke:#000;stroke-miterlimit:4;stroke-dasharray:none;fill:#fd5;fill-opacity:1"><g style="font-style:normal;font-variant:normal;font-weight:400;font-stretch:normal;font-size:110.23931885px;line-height:1.25;font-family:Arial;-inkscape-font-specification:Arial;letter-spacing:0;word-spacing:0;fill:#fd5;fill-opacity:1;stroke:#000;stroke-width:1.2788725;stroke-miterlimit:4;stroke-dasharray:none"><path d="M341.555 133.906V54.995h20.993c7.823 0 9.948.377 12.352 1.13q5.76 1.83 9.474 7.805 3.768 5.975 3.768 15.395 0 8.558-3.23 14.372-3.23 5.76-8.074 8.128c-3.23 1.543-5.803 2.314-13.698 2.314h-8.558v29.767zm13.027-65.562v22.392h7.213c4.844 0 5.139-.34 6.861-1.022q2.638-1.023 4.307-3.66 1.668-2.692 1.668-6.568 0-3.93-1.722-6.62-1.722-2.692-4.253-3.607c-1.686-.61-2.268-.915-7.723-.915z" aria-label="P" style="letter-spacing:4.96076918px;stroke-width:1.2788725;stroke:#000;stroke-miterlimit:4;stroke-dasharray:none;fill:#fd5;fill-opacity:1" transform="matrix(1.18094 -.62977 .48368 .907 -4.293 720.116)"></path></g></g><g style="stroke-width:1.27888914;stroke:#000;stroke-miterlimit:4;stroke-dasharray:none;fill:#fd5;fill-opacity:1"><g style="font-style:normal;font-variant:normal;font-weight:400;font-stretch:normal;font-size:115.69071198px;line-height:1.25;font-family:Arial;-inkscape-font-specification:Arial;letter-spacing:0;word-spacing:0;fill:#fd5;fill-opacity:1;stroke:#000;stroke-width:1.27888917;stroke-miterlimit:4;stroke-dasharray:none"><path d="M278.574 52.714v-82.136h13.67v68.183h27v13.953z" aria-label="L" style="letter-spacing:-4.33840179px;stroke-width:1.27888917;stroke:#000;stroke-miterlimit:4;stroke-dasharray:none;fill:#fd5;fill-opacity:1" transform="matrix(.70914 -1.21234 .84545 .49454 352.242 832.791)"></path></g></g><g style="stroke-width:1.34281153;stroke:#000;stroke-miterlimit:4;stroke-dasharray:none;fill:#fd5;fill-opacity:1"><g style="font-style:normal;font-variant:normal;font-weight:400;font-stretch:normal;font-size:115.69071198px;line-height:1.25;font-family:Arial;-inkscape-font-specification:Arial;letter-spacing:0;word-spacing:0;fill:#fd5;fill-opacity:1;stroke:#000;stroke-width:1.34281155;stroke-miterlimit:4;stroke-dasharray:none"><path d="M164.474 41.968v-82.814h13.67v82.814z" aria-label="I" style="font-style:normal;font-variant:normal;font-weight:700;font-stretch:condensed;font-size:115.69071198px;font-family:Arial;-inkscape-font-specification:&quot;Arial Bold Condensed&quot;;letter-spacing:0;word-spacing:0;fill:#fd5;fill-opacity:1;stroke:#000;stroke-width:1.34281155;stroke-miterlimit:4;stroke-dasharray:none" transform="matrix(.50533 -1.16947 .89912 .3885 504.362 640.173)"></path></g></g><g style="stroke-width:1.41705352;stroke:#000;stroke-miterlimit:4;stroke-dasharray:none;fill:#fd5;fill-opacity:1" data-source="https://football-logos.cc"><g style="font-style:normal;font-variant:normal;font-weight:400;font-stretch:normal;font-size:115.68960571px;line-height:1.25;font-family:Arial;-inkscape-font-specification:Arial;letter-spacing:0;word-spacing:0;fill:#fd5;fill-opacity:1;stroke:#000;stroke-width:1.41705352;stroke-miterlimit:4;stroke-dasharray:none"><path d="M167.799 81.015q0-14.8 4.35-24.347 4.406-9.603 11.467-14.291t17.116-4.689q14.575 0 23.725 11.128 9.208 11.13 9.208 31.69 0 20.789-9.716 32.482-8.53 10.338-23.16 10.337-14.744 0-23.274-10.224-9.716-11.693-9.716-32.086zm15.692-.565q0 14.292 5.423 21.466c3.615 4.745 6.527 7.118 11.874 7.118 5.386 0 8.279-2.354 11.819-7.061q5.31-7.119 5.31-21.805 0-14.404-5.197-21.297c-3.427-4.594-6.358-6.891-11.932-6.891-5.573 0-8.541 2.316-12.044 6.948q-5.253 6.948-5.253 21.522z" aria-label="O" style="letter-spacing:5.20603275px;stroke-width:1.41705352;stroke:#000;stroke-miterlimit:4;stroke-dasharray:none;fill:#fd5;fill-opacity:1" transform="matrix(.73538 -.87639 .75028 .62956 322.778 658.892)"></path></g></g><!-- source: https://football-logos.cc --></svg>