<svg xmlns="http://www.w3.org/2000/svg" viewBox="29.53 19.45 734.64 755.91"><!-- Source: https://football-logos.cc --><path d="M3335.89 5674.42 5417.2 3984.25c262.68-213.95 314.07-380.24 314.07-666.84v-670.5c0-332.92-70.08-478.33-321.65-679.56L3331.54 277.703c-219.55-180.265-509.46-173.574-719.74-1.64L543.137 1967.35c-249.457 203.96-321.649 346.62-321.649 679.56v670.5c0 286.6 51.391 452.89 314.075 666.84L2626.58 5687.37c206.24 167.99 478.59 174.26 709.31-12.95" style="fill:#255795;fill-opacity:1;fill-rule:evenodd;stroke:none" transform="matrix(.13333 0 0 -.13333 0 794.667)" data-source="https://football-logos.cc"></path><path d="M3232.39 5546.88c-156.33 126.84-343.25 142.5-502.08 13.14L639.285 3856.9c-206.445-168.16-253.543-278.78-253.543-539.49v-670.5c0-277.87 47.039-377.17 261.363-552.41L2715.77 403.211c154.46-126.289 357.37-125.137 512 1.809l2078.99 1690.39c215.95 172.73 260.26 274.81 260.26 551.5v670.5c0 260.71-47.06 371.31-253.41 539.38z" style="fill:#fff;fill-opacity:1;fill-rule:evenodd;stroke:none" transform="matrix(.13333 0 0 -.13333 0 794.667)"></path><path d="M860.043 2391.29c-223.547 0-273.543 47.96-375.176 158.59-6.281-127.69 50.942-242.61 207.512-370.62L2774.25 474.746c120.68-98.801 274.75-96.953 395.14 1.891L5248.9 2167.43c145.46 116.36 219.23 223.86 228.48 382.45-67.39-99.25-136.91-158.59-283.11-158.59z" style="fill:#a2dcf7;fill-opacity:1;fill-rule:evenodd;stroke:none" transform="matrix(.13333 0 0 -.13333 0 794.667)" data-source="https://football-logos.cc"></path><path d="m537.84 3428.18 1783.87-.02c201.76 0 174.84-131.3 131.81-202.1-75.14-123.66-210.98-333.33-238.88-412.27-40.51-114.69 46.46-179.45 169.69-68.59 194.39 174.82 307.26 403.73 490.85 589.82 41.78 42.36 121.09 90.76 228.93 90.65l324.77-.37c229.62-.25 343.01-183.22 237.17-331.11-31.12 62.81-101.32 80.01-142.89 77.22-53.43-3.62-98.23-43.28-131.14-92.05-47.8-70.83-138.14-222.79-114.07-304.81 22.46-76.56 92.53-140.95 213.57-60.07 132.61 88.61 199.56 203.79 407.12 496.88 85.8 121.2 234.08 216.73 382.69 216.75l1142.29.07c-67.59-136.54-223.98-185.77-292.45-185.77h-629.83c-26.36 0-78.98-23.3-94.75-66.16h1017.03c-26.4-111.75-192.09-194.1-296.86-194.1h-949.65c-26.36 0-78.99-23.31-94.75-66.15h1341.26c-74.83-169.37-232.07-185.28-292.45-185.28H3916.03c-26.37 0-78.99-23.29-94.75-66.13l1602.34-.02c-52.82-147.16-236.03-194.23-296.89-194.23H834.727c-60.813 0-244.059 47.07-296.887 194.23l1395.39.02c-15.77 42.84-68.39 66.13-94.75 66.13H830.289c-60.383 0-217.613 15.91-292.449 185.28h1430.62c-15.76 42.84-68.39 66.15-94.75 66.15H834.707c-104.773 0-270.465 82.35-296.867 194.1h1397.61c-15.77 42.86-68.4 66.16-94.76 66.16H830.289c-68.469 0-224.859 49.23-292.449 185.77m2718.49-75.5h200.35l-96.88-57.34z" style="fill:#255795;fill-opacity:1;fill-rule:evenodd;stroke:none" transform="matrix(.13333 0 0 -.13333 0 794.667)"></path><path d="M2349.57 4161.54h-120.09c-74.67 0-125.76 22.12-153.25 66.32-17.92 29.28-26.87 72.58-26.87 129.95v431.06h132.63v-424.8c0-33.45 8.95-55.25 26.88-65.41 9.56-5.38 28.39-8.07 56.46-8.07h84.24zM2806.62 4161.54h-132.63v224.05h-136.21v125.46h136.21v60.94c0 32.26-7.45 57.35-22.4 75.27-14.93 17.92-36.14 26.9-63.63 26.9-27.47 0-48.68-8.98-63.62-26.9-14.93-17.92-22.41-43.01-22.41-75.27v-410.45H2369.3v402.38c0 74.08 21.52 132.64 64.53 175.65 40.02 40.04 91.4 60.04 154.13 60.04 61.54 0 112.62-20 153.25-60.04 43.61-43.01 65.41-101.57 65.41-175.65zM3275.32 4161.54h-326.21c-22.11 0-40.32 3.6-54.67 10.76-25.09 12.55-37.64 34.95-37.64 67.2 0 14.36 3 29 8.97 43.92q5.37 13.455 19.71 35.85l212.41 344.13h-210.62v125.47h268.86c29.87 0 52.57-3.6 68.11-10.76 25.68-11.95 38.53-34.35 38.53-67.22 0-12.55-1.5-22.71-4.47-30.47-3-7.76-13.16-26.28-30.47-55.56l-205.24-337.84h252.73zM3431.24 4161.54H3298.6v627.33h132.64zM4106.93 4475.21c0-90.22-31.5-166.84-94.52-229.88-63.04-63.03-139.66-94.54-229.88-94.54-90.21 0-166.84 31.51-229.87 94.54-63.03 63.04-94.55 139.66-94.55 229.88 0 90.21 31.52 166.84 94.55 229.87 63.03 63.01 139.66 94.53 229.87 94.53 90.22 0 166.84-31.52 229.88-94.53 63.02-63.03 94.52-139.66 94.52-229.87m-132.61 0c0 53.77-18.52 99.76-55.58 138.01-37.04 38.23-82.44 57.35-136.21 57.35s-99.17-18.83-136.23-56.46c-37.03-37.64-55.55-83.94-55.55-138.9 0-53.78 18.52-99.78 55.55-138.02 37.06-38.23 82.46-57.34 136.23-57.34s99.17 18.81 136.21 56.44c37.06 37.66 55.58 83.95 55.58 138.92" style="fill:#255795;fill-opacity:1;fill-rule:nonzero;stroke:none" transform="matrix(.13333 0 0 -.13333 0 794.667)" data-source="https://football-logos.cc"></path><!-- source: https://football-logos.cc --></svg>