<svg xmlns="http://www.w3.org/2000/svg" viewBox="60.07 225.45 641.46 765.78"><!-- Source: https://football-logos.cc --><path d="M497.84 373.049c30.837 106.412 13.441 196.736 13.441 196.736s-58.994 1.034-114.884 21.735c-66.604 24.667-110.534 65.205-110.534 65.205s-43.454-40.538-110.059-65.205c-55.89-20.7-114.885-21.735-114.885-21.735S43.501 479.343 74.422 372.84z" style="fill:#f4a81e;fill-opacity:1;fill-rule:nonzero;stroke:none" transform="matrix(1.33333 0 0 -1.33333 -.667 1119.333)" data-source="https://football-logos.cc"></path><path d="M268.891 388.248c-2.324-3.227-4.147-5.53-6.221-5.701-2.073-.174-5.357 2.592-6.393 4.146-1.037 1.555-2.765 2.938-4.493 2.075-1.728-.865-2.592-1.21-3.802-1.038-1.209.173-2.419.346-1.9 1.9.426 1.281 1.293 2.33 2.764 3.803 1.728 1.728 3.11 2.937 4.148 2.42 1.036-.52 1.21-1.557 5.01-2.248 1.674-.304 2.938-.863 3.975-1.381.789-.394.864 3.109 1.037 5.184.172 2.072-1.037 4.665-1.556 7.256-.518 2.592 1.383 5.703 2.766 7.43 1.382 1.728 1.382 5.36 1.21 7.604-.178 2.3 1.036 3.975-.692 3.802s-5.703-.69-8.64.173c-2.938.864-5.011 4.147-5.703 6.393-.691 2.247.173 7.085.865 10.023.69 2.938.69 4.32.69 6.22 0 1.901-.863 3.284.346 5.185s4.148 2.591 5.702.173c.754-1.173-.345-3.975.174-3.11.518.863.864.863.864-.347s-2.074-2.765-2.592-4.838c-.469-1.874-.864-5.875-.173-8.294s2.937-5.012 5.183-4.666 4.148 1.555 5.357 1.728 2.074.691 2.074 1.555-1.21 1.901-1.728 2.765-.518 3.11-.346 4.32.927 2.952 1.556 4.147c1.728 3.283 3.291 4.423 6.047 4.147 1.728-.173 3.802.691 4.148-.691.346-1.383 2.765-1.9 2.938-2.938.172-1.036 1.555-2.937.864-3.628-.692-.692.518-2.247-.173-3.63-.691-1.382-1.729-2.937-2.593-4.146s-1.554-2.247-.345-2.247 5.702-.345 6.74-.345c1.036 0 2.937 1.728 3.973 2.592s1.037 3.801 1.037 5.702-.172 3.802-1.555 5.875c-1.382 2.074-.864 3.111-.173 3.111s.865 1.555 2.42 1.555 3.11 0 3.455-3.456.346-6.912.519-9.677.518-7.776-1.902-10.54c-3.002-3.434-5.356-2.074-7.602-2.074s-2.419-1.556-2.938-2.592c-.518-1.037 1.121-4.549.346-8.812-.69-3.803-2.592-5.358-.518-6.049s5.529-1.728 5.875-3.456c.345-1.728 0-4.492-.346-7.95-.345-3.454-.345-6.91.346-8.294.691-1.382 1.9-2.245 2.765-3.455.863-1.21 0-2.42-2.593-2.42-2.591 0-3.455 1.555-4.492 1.728s-2.074 2.593-1.383 3.63-.345 3.801-1.382 6.22c-1.037 2.42-.518 4.321-.345 5.703.172 1.383-1.038 1.383-2.592 1.728-1.556.345-2.766 2.074-3.975.518s-2.938-8.468-6.048-12.788" style="fill:#e9b12e;fill-opacity:1;fill-rule:nonzero;stroke:none" transform="matrix(1.33333 0 0 -1.33333 -.667 1119.333)"></path><path d="M276.168 412.556c-.869-.109-.615-1.152-.46-1.536.153-.385.998-.155 1.229.69.23.846.46 1-.769.846" style="fill:#5a4210;fill-opacity:1;fill-rule:nonzero;stroke:none" transform="matrix(1.33333 0 0 -1.33333 -.667 1119.333)"></path><path d="M249.672 388.058s-.768.23-1.075.613c-.307.384 0 .768.23 1.228.232.462.922 1.921 1.767 2.305s1.458-.614 1.996-.077c.538.538.692.846.692 1.536 0 .692.845.076 1.997.076s1.152-1.305 1.535-1.382c.385-.076 1.614-.689 2.15-1.458.538-.768 1.844-.922 2.613-.538.767.384 2.918.998 2.841 1.996-.077 1 .768 2.075.768 3.533 0 1.46.768 2.151.691 3.84s-.538 2.228-1.536 3.149c-.998.922-1.996 3.15-.768 4.226 1.229 1.074 2.303 1.38 2.842 2.533.538 1.153 2.073.691 2.457 1.227.384.54.538 2.154-.077 3.15-.614.999-.843 2.151-.767 3.302.076 1.153 2.227 1.537 2.764 1.537.538 0 1.767.691.922 1.843s-1.076 2.842-1.767 3.917-1.996.922-2.687.69c-.692-.23-2.305-.383-3.226-.306-.922.076-2.688.23-3.686.076-.999-.153-1.46-.614-2.535-.614s-.922 1.766-2.073 2.688c-1.152.922-2.996 1.92-3.303 3.072s.078 3.303-.384 4.378c-.46 1.075.263 3.172.537 4.684.308 1.69.385 3.456.616 6.145.119 1.379.152 2.073.152 3.148s.23 2.151.615 2.151c.384 0 .307.614.998.692.691.076.615.46 1.23.076.613-.384 1.205-1.354.92-2.15-.768-2.151.385-1.92.155-2.074s-1.828-1.985-2.074-3.38c-.46-2.61-.921-4.838-1.076-5.76-.153-.92.46-1.996.615-3.302.154-1.305 1.459-2.227 1.69-3.532s1.92-2.919 3.379-2.919 2.764.461 4.224.384 2.303-1.075 3.072.154c.768 1.228.538 2.38 2.227 2.611 1.69.23 2.995-.308 2.995.768 0 1.075-.767 1.459-1.612 2.227s-.231 1.613-.538 2.534c-.307.922.615 2.074.307 2.688-.307.615.844.307 1.766.692s1.383.537 1.767.921.998-.767.998-1.306c0-.538-.614-1.92.231-1.92.844 0 .615.615.768 1.998.153 1.382.768 1.382 1.613 1.382.844 0 1.996.077 1.305.69-.691.616-.922.923-1.843.923-.922 0-1.536-.538-2.534-.461-.998.076-1.92.845-1.076 1.843.845.998 1.229-.077 1.69-.077h1.536c.615 0 1.612-.46 1.766-.844.154-.385.538-.616.922-1.076s.692-1.306.077-1.92-.384-.845-.384-1.69c0-.844-.999-.845-.691-1.613.307-.767-.614 0-.768-.767-.154-.768-.615-.922-1.383-1.076-.768-.153-1.152-.998-.46-1.305.69-.307 1.15-.845 0-1-1.152-.153-1.691-.843-.385-.843s1.536-.077 1.46-1.152.768-1.843 1.92-1.843-.384-1.92 1.305-1.46 2.995.922 3.84.999 1.614-.922 2.073-.538c.46.384 1.92-.077 2.535 1.382.615 1.46 2.073.692 2.381 1.997s-.231 3.917-.231 3.917-1.997-3.763-3.84-3.763-2.688-.077-4.915-.077-4.531.23-2.995 1.997c1.536 1.766 3.763 4.224 3.456 5.99s.614 2.688-.307 4.455c-.922 1.766-1.92 1.613-2.688 2.995s-1.382 2.073-3.072 2.073-4.762-.153-5.453-.69c-.69-.538-3.61-5.3-3.994-7.22s0-4.377.999-5.76c.998-1.382 1.92-2.765-1.767-3.763s-5.452-2.073-7.372-.307-4.147 5.683-2.765 9.139.692 4.684 1.69 5.76 1.613 1.305 1.075 2.457c-.538 1.153 0 3.61-1.843 3.917-1.844.307-4.685.46-5.07-2.304-.383-2.764.46-3.225-.307-8.294s-2.074-9.523-1.114-12.135c.961-2.61 2.38-5.721 5.703-6.393 3.322-.672 5.318-.288 7.162-.288 1.843 0 2.534-.23 2.534-1.92s.077-3.763-.691-6.528-2.535-5.223-3.149-6.681c-.614-1.46-.461-3.687.307-6.375.769-2.688 1.076-6.604.692-7.91s-.538-1.69-3.38-.69c-2.842.996-3.61.767-5.3 1.764-1.689 1-2.764 1.308-4.453-.46-1.69-1.767-4.147-4.378-3.994-5.376s1.075-1.613 1.92-1.613 1.92.462 1.92.462" style="fill:#5a4210;fill-opacity:1;fill-rule:nonzero;stroke:none" transform="matrix(1.33333 0 0 -1.33333 -.667 1119.333)"></path><path d="M254.204 389.209s1.152-.154 1.69-.154c.537 0 1.15-.768 1.92-1.382.767-.614 1.305-.692 1.535-1.843s1.305-1.92 2.534-1.613 1.613.614 1.767 1.996 1.076.692 1.997 1.46c.921.767 2.304 1.766 2.304 2.918s-.077 1.766.921 2.458c.999.69 1.69 1.536 1.69 2.611s-1.229 2.996-.153 3.533c1.075.537.383 2.687.69 3.84.308 1.153.923-.385 2.074-.307 1.152.077 2.074.154 2.381.921.307.768.691 1.152 1.383 1.844.69.69 1.996 0 2.073-1.076.077-1.074.383-2.15 1.613-2.457s2.688-.153 2.764-.691c.077-.538-.844-1.614.154-2.918.999-1.306.23-1.537-.077-2.842s-.46-2.918.384-3.994c.845-1.075.921-1.69.921-2.534 0-.845-.306-1.383.462-1.766.767-.386 1.613-1.075.46-1.307-1.151-.23-1.69-.614-1.228-1.151.46-.538 1.46-1.076 2.15-1.076.691 0 1-.384 1.844-.384s.614.999.307 1.613-.846 1.535-1.076 2.765c-.296 1.584.308 4.839.308 4.839s.307-2.918.921-4.532 2.842-3.38 2.996-4.454c.152-1.076-.385-1.92-2.458-1.92s-2.84.383-4.147.998c-1.306.615-2.074 1.459-2.15 2.764-.078 1.308.23 1.997-.078 3.841-.307 1.844-.845 3.917-1.382 5.376-.538 1.459.307 4.762-.692 5.376s-1.843.615-3.071 1.228c-1.229.615-2.996.769-3.61-.92-.615-1.69-2.689-7.757-4.838-10.984-2.15-3.225-5.109-6.796-6.817-6.738-1.708.056-3.321 1.056-4.857 2.515-1.535 1.459-3.225 3.533-3.225 3.533zM288.61 396.274s-.692.692-.768 1.767.46 2.15-.308 2.765c-.767.614.538 1.151-.767 2.073s-1.767 2.15-2.996 2.15c-1.228 0-1.304.385-1.92.922-.614.537-1.075.921-1.766.921s-1 1-.153 2.151c.844 1.153 1.228 1.382 1.536 2.612.307 1.227 1.383 2.073 1.46 3.455.075 1.383-.231 3.994-.769 4.762s-1.152-.077-1.69 1.152c-.537 1.228-.384 1.382.537 1.996.922.615 1.845.692 1.921 1.69s.615 1.229 2.074 1.229 4.608-.921 5.53-.23c.921.69 1.304 1.228 2.149 2.61.845 1.383.46 2.535.999 3.073.537.537 1.305 1.459.922 2.995-.385 1.535-.461 2.918-.461 4.3 0 1.383-.154 2.919-.307 4.225-.154 1.305.614 4.377 0 5.222-.615.844-2.305.537-1.768-.614.54-1.152-.307-2.074-.767-1.537-.46.538-.461-.23.307-1.228.768-.999.692-.922.615-3.303s.076-4.07.076-5.299c0-1.228-1.766-.922-1.766-.922s.537 4.608.23 6.605-1.92 4.532-1.996 5.453 1.304 2.689 1.536 2.996c.23.307 2.764-.154 3.379-.23.614-.078 1.92-2.459 1.92-5.608s.23-11.365-.155-14.13c-.382-2.765-2.918-5.914-4.53-5.914s-5.913.23-6.604-.538-1.23-1.613-1.076-3.686 1.076-5.53 0-8.601c-1.075-3.074-2.151-4.377 1.459-5.3 3.61-.922 4.915-1.229 3.917-9.984" style="fill:#5a4210;fill-opacity:1;fill-rule:nonzero;stroke:none" transform="matrix(1.33333 0 0 -1.33333 -.667 1119.333)"></path><path d="M328.68 383.14c-3.628-1.244-4.838-.71-6.394 0-1.263.578-2.074 4.44-2.419 6.216-.346 1.777-2.42 5.862-2.937 6.574-.518.709-2.592.886-5.358 1.596-2.764.711-4.146-2.308-5.183-5.683s.518-3.907.518-5.33c0-1.42.173-3.018-.518-3.728-.69-.71-1.21-.355-2.766-.71-1.554-.355-4.32 0-5.701.71-1.383.71-.864 3.019 1.21 3.552 2.072.533 2.419 1.777 2.072 5.862-.345 4.084-.69 5.86 0 10.479.692 4.618 5.185 4.086 7.43 4.086 2.248 0 2.42 1.776 2.42 4.084 0 2.31.518 6.039.864 8.348s-.519 4.796-2.592 5.328c-2.074.534-4.146.71-5.703 2.132-1.554 1.42-.863 3.552 0 8.348.864 4.796-.17 7.104-.17 8.526 0 1.42 0 4.263.862 4.795.865.533 1.9 1.421 3.11 1.421s2.247-.533 2.247-1.42c0-2.133.173-3.375 1.037-3.198s.863.355.346-1.42c-.52-1.777-1.902-2.843-1.902-4.086s-.69-3.374-.69-5.684 1.037-3.375 2.419-3.197 3.456 1.243 4.665 1.777c1.21.532.865 2.13.518 3.196-.345 1.066-1.381 1.954-1.21 3.198.174 1.243.346 1.953.346 3.196s.174 2.31 1.211 2.843c1.035.532.345 1.953 1.035 2.486.693.533 2.42 1.244 3.456 1.066s1.902-.355 2.939 0c1.036.355 2.246-.71 2.246-1.243s1.383-1.244 2.073-1.422c.692-.177 2.42-.887 2.074-2.13-.345-1.244.345-2.132.69-2.665.347-.533.693-1.954-.518-3.197-1.209-1.243-2.072-2.664-2.246-3.197-.172-.533-1.382-1.244-2.073-1.244s-1.382-1.42-1.21-2.13c.174-.712 2.074-1.421 3.63-1.777 1.555-.355 3.8-1.954 3.973-4.085s1.038-4.263 1.728-5.151c.691-.888 1.21-2.842 1.21-3.908s0-4.262-1.382-5.862c-1.382-1.597-3.283-1.597-3.63-3.552-.345-1.953-.864-2.84-1.382-3.374-.517-.533-.517-2.308-.172-4.973.345-2.663-.173-4.974-.345-6.75-.173-1.777.172-2.131 2.072-.533 1.901 1.6 2.939 2.132 3.975 2.841 1.037.711.173 2.132 1.555 2.843s2.68.175 3.284-1.064c1.037-2.134 3.801-3.554 3.456-4.797-.347-1.243-1.382-1.777-3.11-1.067-1.728.712-2.593 1.244-4.494-1.242-1.9-2.487-2.937-4.44-6.566-5.684" style="fill:#e9b12e;fill-opacity:1;fill-rule:nonzero;stroke:none" transform="matrix(1.33333 0 0 -1.33333 -.667 1119.333)"></path><path d="M308.75 400.547a1.49 1.49 0 0 1-1.324-1.362c-.058-.77-.059-1.125-.29-1.835-.229-.711-.286-.89-.518-1.897-.23-1.006-.346-3.077-.346-3.077s1.5 3.908 2.708 4.56c1.21.65 1.67 1.004 2.708.77 1.038-.238 2.075-.416 2.592-.416.518 0-.691.475-1.728.888-1.036.415-1.439.71-1.728 1.422-.289.71-1.324 1.005-2.074.947" style="fill:#5a4210;fill-opacity:1;fill-rule:nonzero;stroke:none" transform="matrix(1.33333 0 0 -1.33333 -.667 1119.333)"></path><path d="M311.572 410.315s.309-1.736.846-2.841c.237-.489.767-1.48 1.63-1.54.865-.059.636-1.244 1.499-1.303.865-.058 1.037-.356.634-1.065-.404-.71-.346-.533-1.67.356-1.326.888-1.44.531-2.363 1.124-.92.593-1.9.355-2.822.355-.92 0-2.016-.65-2.937-.65s-1.614-.12-2.189-.178c-.577-.06-1.44-.415-1.728-1.066-.287-.652-.576-3.73-.519-4.973.058-1.244-.057-1.894-.057-3.02 0-1.124.172-4.914.403-5.388s.576-1.54.46-2.071c-.114-.534-.287-.65-1.093-1.422-.807-.77-2.679-1.196-2.937-1.836-.29-.71 0-.947.172-1.006.173-.059 1.382-.474 2.246-.296s1.269 0 1.902-.178c.633-.177 1.843-.59 2.245 0 .404.592.289.711-.172 1.245-.462.532-1.268 1.183-.231 1.42s.46 1.183.115 2.012c-.346.83.52 2.724.807 2.843.289.117.921-3.316.921-5.151 0-1.836.518-3.671-1.9-3.671s-4.724-.413-6.28.177c-1.554.593-1.612 2.074-.69 3.199.922 1.123 2.939 1.539 2.939 2.84 0 1.303.343 3.079.286 6.1-.057 3.019-.92 8.466.577 9.944 1.497 1.483 2.132 2.842 5.01 2.665 2.88-.176 4.205.059 4.262 1.6.06 1.538.634 1.775.634 1.775M316.872 431.393c-.884-.414-2.766-.395-3.84-.948s0-1.5 1.382-1.815c1.384-.316 1.154-1.184-.767-.632s-2.304-.632-2.074-1.5 1.92-1.894 2.918-3.157c1-1.263.232-2.763-.614-3.947-.845-1.184-1.69-3.552-1.996-5.369l-.308-1.815s.385 6.946.385 8.368c0 1.42-.463 3.631-2.382 4.026-1.92.394-4.3 1.026-5.222 1.815-.922.79-1.381 2.29-1.381 3.552s.92 7.263 1.073 8.684c.155 1.42-.921 4.974-.46 6.632.46 1.657.614 2.367 1.843 3.473s1.69 1.421 2.919.947c1.228-.474 1.382-2.368 1.382-3 0-.631.345-1.42.979-1.579.634-.158 1.632-.08.249-1.736-1.382-1.658-1.69-4.026-1.69-4.026s-.613 1.736-.306 2.368 1.382 1.816.998 2.29c-.384.473-.845-.159-1.305-.238-.462-.078.23 3.158-.538 3.948-.767.789-1.152.473-1.23.237-.075-.237-.458-.159-.92-.159-.461 0-.23-.158-.384-.394s-.383.316-.614 0c-.232-.316-.308-1.027-.308-1.342 0-.317-.153-1.342-.153-1.658s1.382-.79.92-3.236c-.46-2.447.155-3.395.155-6.08 0-2.683-.923-2.683-1.075-4.026-.154-1.341-.076-2.367.844-2.92.921-.552 2.996-1.895 3.994-1.658s.845.711 1.23 1.737c.382 1.026-.231.71-1.46 1.421-1.23.71-1.997 1.42-2.074 3.868s1.767 4.658 1.767 4.658-.923-5.132-.154-6.158c.768-1.026 1.843-1.263 3.072-.868 1.228.394 3.302.947 4.07 1.579.768.631.768 1.104.46 2.289-.307 1.184-1.152 2.604-1.152 3.237 0 .632.232 2.683.308 3.867.077 1.185.155 1.737.691 2.527.538.79.538 2.17 1.343 2.782.807.612 1.422 1.007 2.65 1.086 1.23.079 1.92-.08 3.15.079 1.229.158 2.227-.316 2.688-1.105.46-.79.998-1.185 2.303-1.421 1.306-.237 1.997-.79 1.92-1.816-.076-1.026.077-1.262.538-2.368.46-1.105.538-1.342.23-2.368-.306-1.027-.997-2.132-1.689-3-.69-.868-1.765-2.606-2.534-2.606s-1.151-.552-1.383-1.105c-.23-.552-.306.08.078 1.027.383.947.538 1.816.383 2.21-.154.395.23.868.845.947.614.08 1.459.948.92 1.738-.536.789-.459 1.657-.152 2.289.307.63-.782 1.597-1.46 1.736-5.76 1.184-.614-.237-1.152-1.658-.275-.728-2.301.158-2.457-.631-.08-.417-.614-1.027-.308-2.21.177-.682.153-.823-.614-.869-1.305-.079-.998 1.343-.843 2.368.152 1.027-.615 1.342-1.383 1.422-.769.078-.768 1.34.384 1.34 1.151 0 1.69.476.537 1.264-1.153.79-1.382.158-2.073-.316-.692-.472-1.23-1.815-.845-2.368.383-.552 1.228-.868 1.152-1.736-.078-.869-.922-1.422-.23-2.369.691-.947.076-2.289.383-2.525.308-.238 1.076-.948 2.227-.948 1.152 0 1.152-.631.846-1.105-.308-.474-.998-.632-1.768-.395-.767.237-1.228.158-2.918-.631" style="fill:#5a4210;fill-opacity:1;fill-rule:nonzero;stroke:none" transform="matrix(1.33333 0 0 -1.33333 -.667 1119.333)"></path><path d="M325.014 430.919s-.538-1.658.23-2.21c.768-.553 2.072-.869 3.149-1.263 1.075-.395 1.996-.79 2.687-3.158s.769-3.868 1.23-4.815.69-2.763.46-3.948c-.23-1.184.232-4.027-.768-4.894-1-.87-2.533-1.578-2.765-3.08-.23-1.5-.383-2.92-1.536-3.314-1.152-.395-.922 0-.922.394 0 .395-.383-.552-.998-.315s-.537.869-.844.788c-.307-.078-.921.396-.538.792.383.394-.691.63-.462 1.025.231.395.232 1.183-.229.947-.46-.236-.614.79.691 1.185s2.073.788 2.765 1.578c.69.79.997 1.025 1.074 2.132.077 1.104 1.536 1.895.846 2.999-.691 1.106-.768 1.816-.922 3.553s-.46 3.394-1.383 3.868c-.92.473-1.459-.237-1.997-1.5s-.69-2.132.077-2.132c.768 0-.23-.395 1-1.026 1.228-.63 1.075-.63 1.075-2.21 0-1.579-.922-1.816-1.614-2.92-.69-1.106 0-1.897-.844-2.448-.845-.553-1.844-.394-2.074-1.105-.23-.71-.691-2.131-.153-2.526s.69-.869.383-1.5-.308-1.105.154-1.185c.461-.078 1.075.159 1.075-.552 0-.71.615-1.183.998-1.183.385 0 1.46-.316 1.46-1.107 0-.789-1.075-2.13-.384-2.92.69-.79.922-1.343.844-2.367-.076-1.026-.153-2.526-.076-3.002.076-.473.23-1.025-.154-2.052-.384-1.026-.921-2.447-.46-2.682.46-.238.383-.79 1.535-.711 1.152.078 2.305.868 2.765 1.42.462.553.922 1.894 1.92 2.763.999.868-2.074-1.34-2.765-1.579-.69-.237-.997-.947-.997 2.211 0 3.156-.23 7.815-.077 8.605s1.765 2.761 1.842 3.788.615 2.923 1.537 3.473c.921.553 3.916 4.816 3.762 6.79-.153 1.973 0 2.684-1.383 4.894-1.381 2.21-1.765 4.737-2.15 6.236-.384 1.5-.922 2.527-3.071 2.842-2.15.316-3.993 1.421-3.993 1.421M315.874 401.395c-.708 0 .614-1.737 0-2.368s-1.037-1.816-1.594-1.737c-.557.08 1.365-.236 2.132-.947.768-.71 2.072-2.131 2.228-3.632.153-1.5.997-2.92 1.304-4.183.309-1.263.845-3.79 1.46-4.422.613-.63 1.69-.788 1.075.08s-1.075 3.553-.921 4.658 1.075 3.867.077 3.867c-1 0-2.074.395-2.074 1.736 0 1.343.92 3.87-.308 4.265s-1.92.946-1.996 1.814-.923.869-1.383.869M330.927 384.106s.076 1.659.922 2.527c.844.869 1.46 2.132 2.227 3.079s1.92 1.737 1.92 2.29.307.078 1.382 0c1.075-.08 2.15-.87 2.458-.395.307.473-.153.631-.922 1.816-.768 1.183-.614 2.209-1.536 1.893-.922-.315-.769-.393-.845-1.261-.077-.87-1.076-.79-1.383-.396-.307.396-.153 2.606.384 3 .54.395 2.69 1.342 3.61-.237.921-1.578 2.228-2.683 2.688-3.316.461-.631 1.613-1.499.538-2.92s-2.073-.474-3.225-.08c-1.153.395-1.767.79-3.149-1.026-1.383-1.815-4.454-5.052-5.07-4.974M316.104 412.684c-.689-.09-1.381-.711-1.15-1.659.229-.947.536-1.5 1.381-.789s.384 2.527-.23 2.448" style="fill:#5a4210;fill-opacity:1;fill-rule:nonzero;stroke:none" transform="matrix(1.33333 0 0 -1.33333 -.667 1119.333)"></path><path d="m304.457 449.259-.497-.325c-1.107-.682-1.2-3.044-1.2-5.404l.185-1.533c.254-1.483.602-3.515 0-6.863l-.337-1.807c-.698-3.68-1.082-5.705.557-7.202 1.368-1.25 3.077-1.629 4.73-1.995l1.263-.295c1.724-.442 2.357-2.665 2.076-4.53-.586-3.921-.87-6.688-.87-8.457 0-2.711-.34-3.374-1.73-3.374l-.626.008c-2.364.045-6.764.13-7.486-4.696-.608-4.057-.425-6.045-.148-9.054l.143-1.595c.357-4.234-.115-4.741-1.553-5.111-1.568-.403-2.379-1.63-2.491-2.67-.1-.948.335-1.793 1.14-2.206 1.533-.79 4.471-1.155 6.161-.769l1.277.178c.624.048 1.213.093 1.826.723.785.807.757 2.189.73 3.528l-.009.704c0 .638-.221 1.114-.434 1.575-.357.767-.724 1.56-.116 3.54 1.28 4.166 2.543 5.676 4.357 5.21l2.357-.543c1.13-.242 2.413-.517 2.615-.793.47-.647 2.488-4.616 2.812-6.287.803-4.127 1.672-6.201 2.817-6.726 1.601-.731 2.985-1.363 6.893-.023 3.356 1.15 4.668 2.924 6.187 4.978l.704.939c1.483 1.942 1.936 1.754 3.436 1.13l.256-.108c1.098-.45 2.033-.489 2.776-.114.607.306 1.042.876 1.256 1.646.302 1.089-.626 2.008-1.61 2.985-.691.686-1.474 1.462-1.892 2.323-.381.784-1.002 1.359-1.746 1.618-.782.276-1.633.193-2.465-.235-1.063-.546-1.206-1.464-1.3-2.07-.077-.49-.122-.673-.33-.816l-.798-.522c-.835-.537-1.784-1.146-3.23-2.36-.488-.41-.792-.62-.982-.733l-.002.025c0 .142.009.342.036.62l.157 1.292c.14 1.064.307 2.306.307 3.672 0 .625-.034 1.277-.121 1.95-.177 1.356-.234 2.298-.234 2.949 0 1.145.18 1.394.211 1.429.769.79 1.253 1.947 1.572 3.749.145.819.627 1.144 1.535 1.695.614.371 1.308.793 1.931 1.512 1.557 1.8 1.557 5.214 1.557 6.334 0 1.23-.56 3.32-1.361 4.35-.552.71-1.408 2.659-1.578 4.767-.21 2.564-2.817 4.332-4.515 4.72-1.766.403-2.967 1.02-3.121 1.293a.4.4 0 0 0-.006.069c0 .325.35 1.056.596 1.146.89-.005 2.408.85 2.691 1.724.137.421.95 1.757 2.081 2.92 1.434 1.475 1.147 3.255.604 4.093l-.092.14c-.33.495-.739 1.11-.509 1.935.136.492.076.987-.174 1.432-.604 1.077-2.103 1.509-2.398 1.584-.593.152-1.448.652-1.578.876l.029-.144c0 .722-.707 1.301-.924 1.462-.716.53-1.53.696-2.232.455-.822-.281-1.54-.157-2.45 0l-.156.027c-1.323.227-3.267-.646-3.984-1.198-.558-.43-.612-1.106-.65-1.599-.046-.587-.093-.725-.282-.82-1.401-.722-1.59-2.163-1.59-3.478 0-.883-.094-1.488-.214-2.253l-.127-.844c-.145-1.049.333-1.853.752-2.563l.487-.959c.641-1.978.057-2.234-.135-2.319l-.785-.358c-1.13-.522-2.678-1.237-3.695-1.366-.391-.05-.72.04-.974.271-.43.39-.667 1.179-.667 2.22 0 1.267.22 2.481.414 3.552.147.827.277 1.54.277 2.132 0 .449.334.97.722 1.576.411.644.878 1.374 1.15 2.306l.088.299c.317 1.078.436 1.482.078 1.879-.33.364-.755.268-1.096.19l-.17-.038c-.106.162-.252.688-.252 2.491 0 1.255-1.21 2.132-2.939 2.132-1.182 0-2.173-.664-2.968-1.198m7.289-38.411c0 1.697.28 4.392.854 8.24.382 2.55-.562 5.472-3.106 6.126l-1.307.305c-1.547.343-3.008.666-4.104 1.668-1 .912-.811 2.22-.119 5.867l.34 1.821c.649 3.6.259 5.868.001 7.368l-.163 1.287c0 3.308.332 4.043.53 4.188l.539.35c.709.476 1.443.968 2.214.968.843 0 1.555-.326 1.555-.71 0-1.887.127-3.087.78-3.637.164-.138.42-.28.772-.284l-.051-.191-.09-.303c-.213-.732-.603-1.343-.981-1.933-.489-.762-.948-1.483-.948-2.356 0-.46-.118-1.114-.255-1.872-.195-1.075-.436-2.414-.436-3.811 0-1.865.617-2.817 1.134-3.286.556-.505 1.27-.719 2.062-.617 1.222.157 2.81.891 4.087 1.48l.765.348c.888.392 1.765 1.416.901 4.076l-.616 1.25c-.345.578-.64 1.077-.563 1.621l.122.821c.123.794.23 1.481.23 2.477 0 1.315.216 1.892.826 2.206.923.474.993 1.379 1.042 1.977.013.172.041.531.102.577.6.464 2.152 1.066 2.928.933l.153-.026c1.013-.175 1.967-.34 3.115.053.547.187 1.26-.405 1.348-.647-.011-1.257 2.56-2.025 2.587-2.033.578-.148 1.312-.52 1.536-.916a.4.4 0 0 0 .04-.33c-.407-1.466.31-2.545.697-3.128l.084-.126c.188-.288.51-1.332-.433-2.3-1.192-1.226-2.181-2.758-2.413-3.475-.116-.226-.975-.758-1.418-.758-.458 0-.894-.257-1.262-.743-.428-.562-.802-1.511-.617-2.271.314-1.29 3.005-2.037 4.149-2.298 1.314-.3 3.293-1.701 3.435-3.45.184-2.264 1.104-4.543 1.876-5.536.572-.732 1.06-2.517 1.06-3.463 0-.989 0-3.993-1.208-5.39-.478-.552-1.049-.898-1.6-1.231-.904-.55-1.928-1.171-2.193-2.666-.344-1.946-.845-2.642-1.19-3-.685-.704-.792-2.317-.37-5.569.252-1.952.02-3.699-.185-5.241l-.163-1.345c-.085-.868-.116-1.827.576-2.208.689-.379 1.516.122 2.623 1.055a26 26 0 0 0 3.087 2.256l.833.546c.73.499.844 1.235.928 1.772.089.572.14.814.552 1.026.495.253.979.308 1.403.16.403-.14.733-.455.953-.91.525-1.077 1.4-1.944 2.17-2.71.492-.487 1.315-1.304 1.24-1.572-.104-.379-.285-.634-.534-.76-.372-.189-.945-.132-1.654.159l-.251.103c-1.808.754-3.019 1.08-5.042-1.568l-.717-.957c-1.494-2.02-2.573-3.48-5.526-4.491-3.398-1.163-4.445-.686-5.893-.025-.235.107-1.074.837-2.023 5.707-.373 1.913-2.518 6.115-3.062 6.858-.515.708-1.678.956-3.438 1.334l-2.304.528c-3.817.981-5.3-3.84-6.011-6.16-.772-2.51-.218-3.707.186-4.578.175-.377.3-.648.3-.964l.01-.734c.02-.992.042-2.114-.325-2.493-.243-.248-.373-.266-.951-.311l-1.475-.208c-1.388-.318-3.986.006-5.244.652-.366.188-.41.53-.383.781.059.55.53 1.21 1.452 1.447 2.657.682 2.94 2.508 2.593 6.613l-.142 1.603c-.277 3.01-.444 4.823.137 8.706.498 3.322 3.167 3.548 6.093 3.49l.655-.008c3.11 0 3.11 2.887 3.11 4.796zM255.333 453.907c-1.408-.003-2.827-.805-3.614-2.042-.98-1.54-.788-2.81-.603-4.037l.15-1.519c0-1.86 0-3.202-.673-6.062-.528-2.24-1.666-7.738-.852-10.384.821-2.668 3.101-5.951 6.168-6.853 2.836-.834 6.49-.45 8.456-.244l.447.046.184-.001v-.005c0-.198-.055-.55-.097-.822-.079-.509-.173-1.116-.173-1.8a7 7 0 0 1 .02-.538q.079-1.027.078-1.951c0-2.405-.396-4.24-1.138-5.167-.962-1.204-3.005-4.094-3.005-6.936 0-.355.031-.71.102-1.062l.747-2.835c.416-1.408.811-2.743.811-3.871a4 4 0 0 0-.014-.359l-.082-1.136c-.066-.97-.186-2.597-.386-3.283-.995.475-2.191.961-3.73 1.24-2.6.473-3.353 1.09-3.959 1.585l-.867.6c-1.48.74-3.049-.652-4.945-2.549-1.497-1.496-2.456-2.642-2.932-4.072-.234-.702-.208-1.294.079-1.758.479-.774 1.488-.919 2.38-1.045 1.403-.202 2.406.201 4.208 1.103 1.7.85 3.304-1.382 3.609-1.84 1.08-1.62 4.538-4.66 7.025-4.452 2.383.199 4.291 2.607 6.725 5.988 1.937 2.69 3.308 6.242 4.408 9.098.65 1.682 1.21 3.136 1.625 3.668.4.515.604.505 1.681-.087.467-.257.998-.548 1.598-.682l.662-.136c1.462-.287 1.448-.392 1.393-.83l-.085-.596c-.205-1.353-.488-3.204.482-5.465 1.666-3.888 1.704-5.173 1.443-5.567-.467-.699-.456-1.785.028-2.903.435-1.004 1.114-1.673 1.815-1.79.219-.036.51-.234.847-.464.792-.538 1.874-1.273 3.76-1.273 1.73 0 2.943.503 3.411 1.417.33.64.237 1.403-.256 2.094l-1.207 1.412c-.583.624-1.133 1.212-1.503 1.953-.549 1.097-.655 4.13-.276 7.916l.11 1.09c.31 3.028.554 5.42.226 7.063-.405 2.018-3.607 3.074-5.946 3.847l-.388.129c-.288.096-.422.196-.45.256-.101.21.176.945.42 1.593.334.886.749 1.988 1.009 3.42.484 2.661.078 4.993-.218 6.697-.131.76-.295 1.704-.19 1.93l.27.614c.378.926.651 1.596 2.05 1.596l1.389-.123c1.843-.239 4.137-.536 6.735 2.433 2.577 2.945 2.25 8.144 2.076 10.938l-.006.1-.145 3.245c-.073 1.987-.153 4.24-.377 6.458-.406 4.078-2.565 4.078-4.142 4.078-1.272 0-1.893-.797-2.263-1.274l-.265-.308.108.027c-.5 0-.942-.27-1.185-.721-.254-.475-.49-1.555.783-3.464 1.327-1.992 1.44-3.805 1.44-5.491 0-1.466 0-4.515-.79-5.172l-.398-.337c-.802-.68-2.47-2.095-3.133-2.095l-3.1.162-3.49.177c.186.358.568.893.759 1.161 1.167 1.634 2.058 3.06 2.648 4.24.22.44.293.89.293 1.315 0 .469-.088.91-.162 1.278-.041.204-.11.542-.11.732 0 .056.006.1.02.122.289.288.398.634.398 1.01 0 .652-.329 1.392-.633 2.074-.191.43-.388.873-.434 1.148-.132.792-.877 1.271-1.6 1.734-.577.373-1.233.794-1.35 1.258-.375 1.507-1.917 1.37-3.157 1.26-.538-.048-1.095-.098-1.59-.048-3.015.3-4.84-.923-6.729-4.513-.667-1.266-1.443-3.079-1.628-4.372-.152-1.066-.246-3.635.437-4.774l.75-1.008c.372-.455.88-1.077.88-1.4 0-.487-.765-.77-1.48-.871-.604-.087-1.284-.366-2.073-.688-.978-.402-2.088-.856-3.292-1.041-1.766-.272-3.787 1.979-4.414 4.172-.247.866-.347 1.983-.347 3.136 0 1.777.236 3.64.526 4.8.234.937.87 1.808 1.43 2.576.634.868 1.183 1.618 1.183 2.43 0 .423 0 1.411-.746 1.618-.021.006-.041.004-.062.008.019.199.043.395.043.602 0 .57-.092 1.15-.382 1.602-.776 1.207-1.932 1.87-3.254 1.867m.967-29.571c-2.752.81-4.64 3.992-5.237 5.933-.584 1.897.069 6.235.876 9.661.71 3.016.71 4.427.71 6.38l-.165 1.724c-.168 1.11-.3 1.985.402 3.089.54.85 1.502 1.4 2.451 1.401.59.001 1.43-.21 2.088-1.232.32-.497.09-1.761-.007-2.3-.083-.46-.187-1.03.385-1.245a.7.7 0 0 1 .386-.01c-.174-.338-.46-.74-.754-1.143-.636-.87-1.355-1.856-1.655-3.054-.3-1.204-.565-3.192-.565-5.137 0-1.266.112-2.513.398-3.515.803-2.81 3.387-5.554 5.954-5.159 1.365.21 2.608.719 3.606 1.128.703.288 1.31.537 1.744.599 1.669.238 2.666 1.075 2.666 2.239 0 .817-.604 1.558-1.19 2.275l-.636.846c-.367.61-.438 2.58-.254 3.866.16 1.12.898 2.814 1.482 3.923 1.635 3.106 2.94 4.024 5.368 3.781.627-.062 1.277-.004 1.851.047 1.275.114 1.623.07 1.695-.217.248-.996 1.148-1.575 1.943-2.085.356-.229.952-.612.983-.799.074-.449.298-.951.534-1.483.192-.431.592-1.329.505-1.57-.576-.567-.415-1.37-.273-2.079.119-.589.24-1.197-.011-1.703-.55-1.098-1.427-2.5-2.537-4.054-.722-1.011-1.403-1.965-1.008-2.733.143-.276.47-.607 1.225-.607l6.74-.346c1.08 0 2.463 1.098 4.026 2.423l.391.33c1.186.99 1.285 3.513 1.285 6.233 0 1.816-.13 3.946-1.671 6.26-.889 1.331-.782 1.968-.708 2.053.574-.018.925.433 1.207.796.359.46.606.74 1.172.74 1.495 0 2.485 0 2.768-2.833.219-2.175.299-4.403.37-6.37l.146-3.28.006-.103c.163-2.594.465-7.424-1.737-9.94-2.111-2.414-3.765-2.2-5.516-1.972l-1.566.134c-2.329 0-2.932-1.478-3.331-2.456l-.226-.518c-.31-.623-.162-1.483.065-2.785.278-1.602.659-3.793.22-6.213-.239-1.309-.63-2.346-.943-3.18-.423-1.122-.729-1.933-.375-2.675.21-.44.622-.76 1.26-.972l.393-.131c1.67-.55 4.778-1.576 5.024-2.806.287-1.44.052-3.738-.246-6.65l-.11-1.094c-.197-1.965-.55-6.744.415-8.672.46-.92 1.106-1.61 1.73-2.278l1.09-1.27c.13-.183.264-.447.154-.66-.159-.308-.825-.667-2.183-.667-1.46 0-2.268.55-2.981 1.034-.454.308-.88.598-1.399.684-.131.023-.493.331-.773.977-.312.72-.31 1.342-.147 1.588.82 1.23.065 3.64-1.322 6.875-.813 1.899-.576 3.46-.386 4.714l.09.631c.229 1.823-1.284 2.12-2.497 2.36l-.63.129c-.408.09-.826.32-1.231.542-.9.496-2.26 1.242-3.44-.274-.538-.694-1.076-2.089-1.822-4.021-1.072-2.78-2.407-6.24-4.24-8.788-2.145-2.978-3.928-5.267-5.718-5.417-1.644-.137-4.708 2.263-5.761 3.842-1.207 1.812-3.255 3.37-5.377 2.309-1.727-.863-2.42-1.11-3.395-.972-.502.073-1.26.182-1.399.405-.057.092-.036.315.056.594.39 1.171 1.248 2.182 2.598 3.531.924.924 2.644 2.642 3.35 2.29l.61-.432c.69-.567 1.635-1.339 4.586-1.875 1.59-.291 2.808-.831 3.79-1.322a.92.92 0 0 1 .879.018c.717.41.878 1.72 1.074 4.613l.08 1.114c.122 1.457-.349 3.05-.849 4.736l-.716 2.714c-.532 2.657 1.876 5.925 2.627 6.862 1.572 1.968 1.526 5.912 1.358 8.09-.057.745.048 1.422.14 2.02.13.824.24 1.537-.233 2.038-.445.469-1.13.4-1.356.378l-.455-.048c-1.869-.195-5.347-.561-7.92.196z" style="fill:#231f20;fill-opacity:1;fill-rule:nonzero;stroke:none" transform="matrix(1.33333 0 0 -1.33333 -.667 1119.333)"></path><path d="M240.84 452.454c-1.613-1.612-3.918-2.764-3.918-5.3 0-2.533-3.455-4.146-4.838-5.759-1.382-1.613-5.53-8.985-8.755-16.127-3.225-7.143-4.608-7.373-8.525-14.285-3.916-6.912-6.451-18.663-8.294-23.27-1.844-4.61-6.451-6.452-12.442-6.452-5.99 0-11.75-.23-13.362 1.612-1.104 1.263-2.766 2.535-2.766 5.3 0 1.629 0 2.764 1.383 5.99s3.916 4.378 9.907 4.378c3.03 0 3.917 8.294 6.452 14.976 2.533 6.68 4.147 17.971 5.99 24.192 1.843 6.22 1.382 12.672 1.382 17.74 0 5.07-1.383 10.6-1.843 12.903s-2.765 4.608-4.608 4.147-1.613.461-2.074 2.073c-.46 1.613-2.995 3.687-4.608 2.765s-2.534 2.535-2.995 4.378c-.46 1.843-2.534 2.535-3.455 1.843-.922-.691-2.765.922-3.227 2.304-.46 1.383-.69 3.917-2.073 3.917s-2.535 1.843-3.687 2.995-2.534 2.535-3.686 2.074c-1.152-.46-2.995-.922-2.995-.23 0 .69-.46 2.534-3.456 3.225s-10.368 1.844-14.515 2.765c-4.148.922-7.373 2.304-12.442 2.304-5.07 0-7.372 0-8.525 1.152-1.152 1.152.23 2.074-.69 2.995-.922.921-1.153 1.382-3.687 2.535-2.535 1.152-3.226 2.764-2.074 6.68s9.907 6.222 15.898 8.756 7.834 5.99 12.902 12.212c5.07 6.22 8.755 6.68 12.903 7.603 4.147.922 3.917 3.225 3.917 5.069 0 1.842-.692 4.837-.692 6.681s-.69 4.839-.922 8.295c-.23 3.456 1.614 2.764 4.148 1.843s5.76-3.917 8.063-8.295c2.305-4.377 2.996-5.76 4.379-5.76s1.382 0 1.843 2.996c.35 2.277 2.304 3.455 3.456 5.99.972 2.14 1.152 3.456 4.377 2.995 3.226-.46 2.765-4.147 3.917-8.525s2.995-8.986 2.995-11.29 3.522-4.168 9.677-6.22c2.073-.69 3.225-1.843 5.76-2.534 2.534-.692 6.912-1.843 11.29-2.304s10.828-1.843 12.671-2.765c1.844-.922 5.76-.461 10.6-1.613 4.838-1.152 10.828-3.455 13.823-4.377s9.676-2.996 11.98-2.535 11.29-.922 14.976-1.613 11.06-2.304 14.056-2.304 14.514-.69 18.662-.69c4.146 0 10.136.46 16.358 1.151 6.22.691 12.671 1.382 16.127 1.382s13.824.23 20.507-2.073c6.68-2.304 15.667-5.3 20.274-10.138 4.609-4.838 7.834-8.064 9.909-11.29 2.072-3.225 7.833-7.141 9.446-11.058s5.76-10.6 7.141-13.594c1.383-2.996 2.765-7.603 4.377-11.29 1.614-3.686 2.996-7.603 5.07-13.593 2.073-5.99 3.225-9.677 3.225-13.363s-.69-11.06-4.146-14.516-4.148-2.994-7.143 0-4.378 6.682-5.07 8.986l-.69 2.304s0-5.53-2.764-8.064c-2.766-2.534-4.84-5.76-6.912-9.446-2.074-3.687-4.609-8.063-5.069-11.06-.462-2.996-1.153-7.831-2.535-9.446-1.383-1.613-1.383-3.918-2.995-6.45-1.612-2.535-5.759-5.07-10.368-5.07-4.608 0-10.599-.46-11.98 1.383-1.383 1.842-1.59 7.804 1.842 9.676 2.535 1.383 5.28 1.862 8.526 3.687 3.686 2.073 3.686 5.991 4.838 8.524 1.15 2.534 3.456 9.447 4.377 13.824s-.921 8.986-.921 11.29-2.535 7.603-4.838 9.908c-3.917 3.916-9.447 5.529-11.751 6.22-.679.204.518-3.254 1.383-6.452.54-2 2.072-5.068 4.376-9.906s4.377-8.986.692-11.75c-3.687-2.765-4.952-5.263-8.525-11.291-3.686-6.22-6.22-11.978-6.22-14.284 0-2.305.92-6.22-.923-8.294s-2.304-2.535-8.524-2.535c-6.221 0-11.058.923-11.981 2.535-.922 1.612-1.383 5.299 2.534 7.834 3.917 2.533 8.294 6.911 10.138 12.67 1.844 5.762 3.871 16.124 3.686 17.972-.23 2.304-2.303 4.838-4.607 7.143-2.305 2.303-5.068 4.838-5.53 6.911-.461 2.074-3.455 5.99-5.069 8.295s-2.074 3.226-5.298 5.529c-2.769 1.978-3.457 5.3-8.526 5.3-5.07 0-5.991-2.534-8.295-4.839-2.303-2.303-5.067-4.838-9.445-.69-4.379 4.146-7.374 5.299-9.908 5.299s-6.22-.692-8.064-2.765c-1.843-2.074-3.227-5.07-6.452-5.07s-3.224 1.383-7.141 4.84c-2.109 1.86-3.687 2.534-5.53 2.534s-6.476-1.588-8.986-3.917c-3.226-2.995-4.608-2.995-6.45.922-1.317 2.796-4.378 3.686-5.3 3.686s-1.817.01-5.3-1.383c-2.304-.921-3.225-.69-5.99-.23-3.593.599-5.99.46-7.833-1.383" style="fill:#bd6047;fill-opacity:1;fill-rule:nonzero;stroke:none" transform="matrix(1.33333 0 0 -1.33333 -.667 1119.333)"></path><path d="M366.639 520.191c3.818-.288 8.295-1.612 14.63-3.686s8.41-3.686 11.06-5.299c2.648-1.613 7.026-6.106 8.983-8.18 1.96-2.073 3.803-5.183 7.605-8.87 3.802-3.685 6.451-8.409 9.1-13.017s7.143-14.515 9.215-19.7c2.076-5.184 6.454-17.97 7.72-22.463s.575-10.829-1.037-15.091-4.492-6.22-6.337-6.451c-1.843-.23-3.34 2.88-5.067 4.493-1.729 1.612.805 2.188 1.727 2.418.922.231.461 3.687 1.037 3.687s.345-2.995.345-4.147 1.729-1.844 2.881-1.383 2.419.807 1.843 3.917-.576 3.802 1.266 3.226c1.845-.577 1.614 2.073 1.614 3.225s-.346 2.42-1.497 1.844c-1.153-.576-1.844 2.073-2.766 2.073s-1.15.807-1.15 2.88.344 1.383-1.845 4.724c-2.189 3.34-.575 3.456-.346 5.183.23 1.728.346 3.34-1.382 3.457-1.727.115-2.19 3.224-1.383 4.147.808.921.23 2.88-.344 3.11-.577.23-.462 2.88-.23 4.262.23 1.383 0 3.34-1.267 3.34-1.269 0-1.384 1.844-1.384 3.687 0 1.844-1.843 4.263-3.11 5.876-1.269 1.612-2.765 2.419-3.34 1.843-.577-.576-1.614-2.88-.693-4.263.922-1.382 1.037-1.843 1.037-3.225s-1.842-1.959-1.842-3.456c0-1.498 2.188-.115 2.188-1.268 0-1.151-2.188-1.612-2.073-3.11s1.843.115 2.188-.921-1.266-.461-1.958-1.844c-.691-1.382.46-3.11 1.153-4.147.69-1.037 2.535 1.498 3.685-.46 1.152-1.959-1.497-2.535-1.728-4.033-.23-1.497 0-3.801 0-5.99s1.037-4.032 2.305-5.76.922-2.304.46-4.032c-.46-1.728.23-1.728 1.728-2.42 1.498-.69 1.844-1.612.807-2.534-1.038-.921-.231-2.188.345-3.225s.346-2.074.461-3.34c.116-1.268.115-1.959-.23-1.384s-1.152 3.11-1.843 5.184-.691-.921-1.498-3.225-1.957-3.34-3.687-4.954c-1.727-1.612-4.607-6.451-7.256-10.944s-2.996-7.142-3.11-10.021c-.115-2.88-1.153-5.762-2.42-6.798s.113-1.267-2.305-5.413c-2.418-4.149-4.377-4.378-7.372-5.877-3.413-1.706-10.026-.82-12.211-.46-3.644.598-3.76 1.887-4.263 2.534-.807 1.038-.461 4.838 1.382 7.143 1.842 2.303 10.484 5.184 10.484 5.184s-.576-1.958-3.686-3.34c-3.11-1.383-2.765-1.729-4.148-3.918s-.691-4.377 1.037-4.494c1.729-.114 3.456.232 3.341 1.615-.116 1.382 1.037 4.722 2.073 5.068s2.304.346.922-1.383c-1.384-1.727-.115-4.722 1.036-4.722s2.306 5.3 2.88 5.3c.576 0 1.498-1.038.808-2.536-.692-1.496-.808-3.456 0-3.456.805 0 1.958 1.151 2.764 2.189s-1.152 2.074-.806 3.11c.344 1.037-.462 3.11-1.383 4.955-.922 1.842-1.612 1.612-.922 2.419.692.806 2.42-.462 3.342-2.65.922-2.189 1.957-.461 3.34.46s2.65 2.996 2.764 5.3c.116 2.304.462 3.802 1.153 5.069s1.266 3.11 2.304 5.298c.97 2.046.23 3.226 1.728 4.955.3.346 2.305 1.266 2.995 3.11.691 1.843-.576 2.418-1.152 4.608-.575 2.189 1.036 3.456 2.534 3.801s3.342.576 4.264 1.382c.92.807.69 2.65.46 4.147-.23 1.499-2.189 3.226-3.917 3.226s-1.498 2.189-1.383 3.571 1.383 2.304-.345 2.19c-1.729-.115-3.802 3.225-3.342 5.068.462 1.843 2.074 1.959 1.96 4.378-.116 2.419-4.147 3.34-5.3 4.607-1.151 1.268.921 4.494 2.42 5.991 1.498 1.498 0 4.147-1.152 4.723-1.153.576-.23 4.033-2.19 5.3s.345 3.11.922 4.723.577 3.11-.46 3.571.23 2.765.345 4.723-.115 3.11-1.382 3.226-.377 1.762.92 2.304c1.383.576-.228 2.88-1.15 2.995-.923.115-3.112 1.382-3.342-.116s-.92-2.419-1.843-2.073c-.922.345-2.533.23-2.419 2.42.115 2.188 0 3.34-1.382 3.686-1.382.345-1.613.23-1.727 3.225-.116 2.995-3.572 4.378-4.955 4.838-1.382.462-2.65 1.383-4.839.462-2.188-.922-4.147-1.268-5.53 1.036-1.382 2.304-6.334 3.226-8.868 3.226-2.536 0-3.574-1.268-5.416-1.613-1.843-.346-3.11.807-4.493 1.613-1.382.806-3.8-.461-5.644-.461s-2.88 1.958-4.493 1.613c-1.613-.346-1.154-4.032-4.033-2.65-2.878 1.383-3.801 2.995-6.45 2.19-2.65-.807-3.802-2.305-5.184-1.96s-1.96 2.074-3.341 2.765c-1.383.691-2.766-1.036-3.341-2.303-.576-1.268-2.648-2.535-3.571.345-.922 2.88-4.262 2.074-5.99 2.074s-3.57 0-4.608-.807c-1.038-.806-3.226.576-4.953 1.267-1.73.691-2.19-1.036-3.572-1.727s-2.535-1.268-4.263.69c-1.728 1.96-3.916 1.037-4.838.23-.92-.806-1.843-1.266-3.916-.806-2.074.462-2.42 1.498-4.264 1.268-1.842-.23-4.377-.461-4.377-2.073 0-1.614-1.381-.808-3.34 1.15-1.96 1.96-5.76 3.572-7.834 2.766-2.074-.807-2.995-.807-4.032.922-1.037 1.727-4.148 1.497-5.99.46-1.844-1.037-4.61-1.382-5.53.461-.922 1.844-.345 4.262-.807 6.451-.46 2.19-2.534 2.534-3.916 2.766-1.383.23-3.917.345-4.263-.922-.346-1.268 2.189-3.456.23-3.456-1.958 0-2.073-1.498-1.843-3.226s.23-3.226-1.958-3.11c-2.189.115-3.802.69-4.954.23s-3.225-3.917-5.184-2.88c-1.958 1.037-3.11 2.65-4.723 1.613s-5.645-3.226-4.032-4.493 3.225-3.456 1.382-4.032c-1.842-.576-4.723-3.917-3.34-6.105 1.382-2.189 3.801-3.572 2.534-4.954s-2.074-.807-3.456-2.42-2.88-4.377-1.267-5.644 3.34-3.455 1.728-5.07c-1.613-1.612-3.11-4.376-1.958-5.528s.46-2.765 1.727-2.765 2.074-1.843.922-3.57c-1.152-1.73-2.535-3.227.23-5.07s4.723-2.765 3.917-3.802.23-2.88-2.765-2.88-7.948-.69-5.875-1.613c2.074-.921 4.608-1.727 5.99-1.727s1.153-.807.346-2.996-1.382-2.88-5.068-.576-5.99-1.037-1.383-2.765 7.027-2.189 6.336-3.226c-.692-1.036-4.608-2.188-5.645-1.612s-5.414 2.65-5.414 1.498 3.34-2.535 3.686-2.88c.346-.346 3.686-3.457 1.843-3.917s-2.534-.922-2.419-2.766c.116-1.842 2.419-3.686.576-5.183-1.843-1.498-3.225-2.304-2.88-3.686s1.843-1.728.576-3.456-2.535-3.571-4.147-3.802-2.304-2.766-1.843-4.493c.46-1.729.922-4.032.69-6.22-.23-2.19-.575-1.499-2.303-3.803s-2.42-2.763-2.42-4.607.347-2.65-2.303-2.65-5.184.921-5.991.921-2.879 0-5.76-.345-4.838-1.496-5.529-2.764-1.383-4.377-.461-5.53c.921-1.152 1.152-.69 2.189 1.958 1.037 2.65.92 3.457 3.34 4.148s1.613-.807.23-2.535c-1.382-1.728-2.419-3.225-1.958-4.262s3.226-1.153 3.687.806 1.497 5.299 3.917 5.874c2.419.577 2.88.232 2.88-.69s.114-.576-1.498-1.613-2.188-1.842-2.304-3.34 1.498-1.498 3.11-1.383c1.613.115 1.383.806 2.88 3.571 1.498 2.765 3.572 3.688 2.65 1.959-.921-1.728-1.497-4.032-1.152-5.068.346-1.038 1.958-.693 4.032 1.727s.692 3.571.922 5.645 0 1.728 1.728 3.224c1.728 1.5 1.037 2.881 2.074 5.3s2.764 4.84 3.34 5.415 1.267 2.65 2.074 4.492.921 2.88 2.42 3.226c1.497.346 3.225 2.765 3.34 4.723.115 1.96.69 2.42 1.843 3.226 1.152.806.576 4.493 1.843 5.99 1.267 1.498.576 2.535 1.958 3.572s2.765 3.225 3.341 4.838 1.498 1.728 2.304 3.456c.807 1.728.461 2.65 2.42 2.995s2.418 1.958 2.418 4.377c0 2.42-.92 3.918-2.418 3.918s-4.608 1.152-2.765 1.842 4.147 2.074 2.88 3.687-2.074 4.032-.577 5.3c1.499 1.266 2.997.345 3.227-1.498.23-1.844 1.497-2.765 3.11-1.614 1.613 1.153.9-2.887 3.686-1.958 2.074.691 2.42 2.765 2.65 3.686.23.922-1.037 1.268-2.073 2.19-1.038.921-2.766 2.765-1.614 4.723 1.153 1.959-.115 2.88-1.497 2.074-1.383-.807-6.682.46-3.226 2.073s3.917 3.34 2.534 3.456c-1.381.115-4.377 2.074-2.419 2.535 1.958.46 2.305 2.88 1.038 3.456s-3.11 1.036-2.42 2.764c.691 1.728 2.534.346 2.534 1.843 0 1.498-1.498 2.42-2.995 2.534-1.497.116-2.304.807-2.304 1.96 0 1.151 1.037.69 2.65 1.267 1.613.576-1.152 1.267 1.267 2.073 2.42.806.806-.69 2.88-.921s2.765-2.074 1.958-3.111c-.806-1.037-1.958-1.843 0-4.608 1.959-2.765 1.498-3.34 1.498-5.53 0-2.188 1.728-4.722 1.613-5.875-.116-1.152 1.036-4.378 1.958-4.262.922.115 2.304 1.498 3.687 2.88 1.382 1.382 2.188.23 2.88-.346.69-.575 4.263-2.188 2.304-2.188s-2.881 1.151-4.032-.692-1.614-5.414-.692-5.414 1.268 0 3.341 1.267 2.304 4.724 3.686 5.414c1.383.692 4.954.922 7.143 2.19s2.188-.692 1.727-2.074c-.46-1.383-.576-.691-2.764-.691-2.189 0-4.148.23-4.148-1.037s-.115-.46 2.765-1.613c2.88-1.152 2.881.46 4.379 1.382s1.15-1.152 1.267-2.764c.115-1.613.922-2.19 2.534-1.152 1.613 1.036 1.958 2.188 3.225 2.419s2.766.806 6.452.23 4.262-.806 6.451.692 3.226 1.381 4.838.806c1.613-.576 1.844-1.152 3.918-1.267 2.072-.116 2.879-.922 4.261-1.844s4.377-1.152 5.53-.46c1.153.69.46 1.843 3.341 1.843 2.88 0 2.189.46 4.032 1.958s3.112 1.267 3.917.46c.806-.806 1.152-4.146 3.916-3.455s2.42 1.728 1.614 3.917c-.808 2.189.345 2.189 3.225-.922 2.88-3.11 3.456-4.953 4.954-4.838s3.916-1.037 4.838.345c.921 1.383 2.073 1.728 3.686 1.498s2.88-.46 3.571 1.498 1.498 2.304 3.456 2.304 3.687-1.268 5.185 1.152 2.187 4.262 3.225 4.147c1.038-.116 1.843-2.074 2.88-3.456s2.304-1.498 2.996-.116c.691 1.383 1.842 3.572 3.225 3.687 1.382.115 2.305-1.152 3.341-.922s1.959.23 1.959-1.151c0-1.383.344-3.802 2.303-3.802s4.032-1.268 2.996-2.189c-1.036-.922-3.342-3.57-1.153-3.456 2.189.115 3.687.691 4.954-.576s1.844-1.497 1.037-2.995c-.806-1.498.691-4.954 1.959-4.954 1.266 0 2.764 1.613 3.917 2.996 1.15 1.382 1.497-.808.69-2.88-.807-2.075-1.958-5.876-1.497-6.337s2.188 3.111 2.534 4.839 2.072.921 1.497-1.728-.344-5.76.692-5.645-.692 2.65 2.88 2.42c3.57-.231 6.912-.116 5.183-.923-1.727-.806-3.571-2.304-3.11-3.57.46-1.268.46-2.65 2.304-2.42s3.916-1.498 1.728-2.304-2.88-1.843-2.188-3.225c.69-1.383-.116-2.996 1.266-2.996s2.075-.46 1.845-2.073c-.232-1.613.92-4.839 2.65-4.839 1.727 0 2.533-2.42 1.842-3.801-.69-1.383 1.152-3.686-.69-4.263-1.845-.576-3.688-3.225-3.688-4.722 0-1.5.806-2.19.115-3.803-.691-1.611-1.959-3.11-1.959-4.262s0-1.614-1.036-2.073c-1.037-.46-2.188-2.19-1.844-3.456.347-1.268-.46-1.843-1.381-1.959-.921-.115-1.036-1.152-1.613-2.073-.576-.922-2.19-1.152-2.19-1.152s3.457 7.027 4.61 11.059c1.15 4.032 3.687 12.556 2.764 15.667-.922 3.11-1.037 6.22-1.497 7.833-.462 1.613-3.111 7.028-5.646 8.756s-4.261 2.88-6.797 3.686c-2.534.807-4.261 2.189-4.146.116s1.267-4.494 2.65-7.72c1.381-3.225 2.187-6.22 3.454-8.524s2.766-4.262 2.536-6.566-2.19-3.802-3.687-5.185c-1.498-1.381-4.723-6.796-7.718-11.75s-5.069-9.215-5.184-11.058c-.115-1.844.345-5.415.115-6.912-.23-1.498-1.497-3.802-2.765-4.377-1.267-.577-4.378-1.038-7.835-1.038-3.455 0-6.91.575-8.294 1.152-1.382.576-2.763 1.037-2.878 3.571-.117 2.535 1.037 3.455 3.109 5.413 2.074 1.96 6.451 5.648 7.719 7.835 1.267 2.189 2.535 5.645 4.032 12.096s2.531 11.66.346 14.4c-1.931 2.419-4.263 4.925-5.56 5.961-1.295 1.038-2.85 4.32-3.628 5.79-.777 1.468-3.055 4.78-4.637 7.142-1.584 2.361-2.015 2.794-3.57 4.003-1.556 1.21-4.408 4.407-5.79 5.616-1.383 1.21-3.888 1.296-5.789 1.296s-4.233-1.641-6.738-4.32c-2.506-2.678-4.235-3.11-5.962-2.938-1.729.173-2.766 1.037-5.357 3.111-2.592 2.073-5.386 3.687-8.266 3.83s-6.508-.634-7.805-2.188c-1.295-1.556-3.542-5.357-6.308-5.357-2.764 0-4.923 2.16-7.343 4.32s-5.616 3.283-7.257 2.764c-1.642-.518-4.839-1.469-6.826-3.369s-3.11-2.506-4.06-2.506c-.951 0-2.161 1.642-3.111 3.542-.95 1.902-4.06 3.37-5.184 3.37-1.123 0-2.42-.086-4.406-1.123-1.988-1.037-2.938-1.037-5.876-.692-2.937.347-6.22.519-7.43-.431s-4.58-3.11-4.925-5.011-1.123-4.493-2.419-5.184c-1.296-.692-2.937-1.296-7.344-9.505-4.406-8.207-7.69-14.774-10.11-18.316-2.418-3.543-4.75-8.553-6.998-15.897-2.246-7.345-3.974-15.294-8.726-17.022s-17.28-1.986-19.526-.604-5.443 4.925-4.06 8.986c1.382 4.06 2.418 7.084 6.392 7.343s6.567-.259 7.431 3.283 5.962 19.267 7.344 25.402c1.382 6.134 5.357 23.847 3.542 32.313-1.814 8.468-2.333 12.442-4.406 12.96-2.074.519-3.197-.863-3.715 1.556-.519 2.419-2.506 4.32-3.974 3.888-1.47-.432-2.247-.519-3.025 1.728-.777 2.246-1.641 5.011-3.455 4.665-1.815-.345-1.901-1.468-3.284.778s-1.296 4.234-2.246 4.579c-.95.346-2.592 1.642-4.493 3.543-1.9 1.9-2.074 2.246-4.06 1.727-1.988-.518-2.333-.086-3.025 1.21s-2.764 1.901-6.22 2.592-12.701 2.506-15.812 3.37-8.64 1.21-11.578 1.296-5.183 0-5.183 1.382c0 1.383.691 3.024-1.988 4.234s-6.047 2.85-4.233 6.566 3.542 4.147 8.813 6.567c5.27 2.419 10.195 3.801 13.65 7.517 3.457 3.714 9.073 11.836 13.652 13.65 4.58 1.815 7.517 1.556 8.64 3.197s1.037 4.839.864 7.43c-.173 2.593-2.678 13.047-.777 13.652s6.825-.864 10.368-6.739c3.542-5.876 4.06-8.324 5.616-8.007 1.554.317 1.727 3.6 2.592 4.896.864 1.297 2.505 3.975 3.542 5.53s1.555 1.555 3.542 1.555c1.988 0 2.679-1.641 3.37-5.184.691-3.542 1.9-7.948 2.592-10.54.69-2.593 1.123-5.79 1.728-6.221.604-.433 9.331-4.234 11.75-5.443 2.42-1.21 13.738-3.111 18.23-3.889 4.494-.777 11.578-3.37 14.602-3.283s16.848-4.32 20.132-5.357c3.283-1.036 8.38-2.16 10.972-2.16s12.096-1.209 17.28-1.987 13.91-3.11 28.167-2.592c14.256.518 34.444 2.996 45.13 2.188" style="fill:#592b1d;fill-opacity:1;fill-rule:nonzero;stroke:none" transform="matrix(1.33333 0 0 -1.33333 -.667 1119.333)"></path><path d="M166.57 567.804c-.885-.664-.903-2.008-.839-2.96.117-1.754.349-3.374.552-4.804.198-1.38.368-2.572.368-3.445 0-.971.18-2.225.353-3.439.166-1.165.338-2.37.338-3.242l.001-.282c.011-1.726.02-3.358-3.376-4.113l-.763-.166c-3.918-.85-7.618-1.652-12.526-7.675l-2.454-3.085c-3.382-4.312-5.424-6.914-10.181-8.926l-4.243-1.658c-5.435-2.044-11.055-4.158-12.05-7.539-1.208-4.11-.544-6.144 2.451-7.506 2.084-.946 2.482-1.36 3.143-2.045l.342-.349c.157-.157.167-.244.082-.717-.102-.564-.255-1.414.609-2.278 1.354-1.354 3.754-1.354 9.013-1.354 3.589 0 6.22-.708 9.005-1.458l3.287-.83c2.163-.48 5.139-1.013 8.016-1.528 2.606-.466 5.067-.906 6.493-1.236 2.839-.654 2.92-2.36 2.92-2.551 0-.335.159-.633.434-.82.834-.565 2.733.097 3.51.408.729.292 2.06-1.04 2.94-1.92l.826-.908c.934-1.073 1.994-2.29 3.35-2.29.53 0 .88-1.4 1.11-2.327l.308-1.117c.407-1.222 1.639-2.498 2.745-2.843.582-.181 1.133-.11 1.55.205.21.157.624.165 1.031.02a2.1 2.1 0 0 0 1.34-1.479c.56-2.238 1.253-4.385 2.517-4.925.337-.143.87-.24 1.492.115.426.244.957.115 1.328-.036.988-.402 2.029-1.464 2.273-2.319l.19-.775c.162-.718.302-1.337.877-1.692.559-.345 1.276-.227 1.839-.087.564.141 1.153-.126 1.547-.375 1.057-.669 1.968-2 2.215-3.237l.266-1.262c.585-2.72 1.563-7.274 1.563-11.505l.025-2.557c.065-4.626.138-9.87-1.378-14.987-.758-2.558-1.472-5.939-2.228-9.517-1.112-5.268-2.262-10.714-3.746-14.626-.822-2.167-1.457-4.444-2.07-6.645-1.082-3.877-2.2-7.885-3.735-7.885-6.266 0-9.025-1.255-10.542-4.796-1.439-3.357-1.439-4.577-1.439-6.263 0-2.62 1.342-4.047 2.42-5.193l.516-.561c1.657-1.895 6.486-1.875 12.078-1.854l1.805.004c6.854 0 11.256 2.318 13.083 6.887.632 1.576 1.33 3.938 2.14 6.67 1.583 5.343 3.552 11.995 6.115 16.516 1.612 2.843 2.801 4.562 3.85 6.077 1.498 2.164 2.792 4.032 4.703 8.264 3.37 7.459 7.437 14.548 8.65 15.962.386.45.988.93 1.625 1.437 1.585 1.262 3.38 2.692 3.38 4.773 0 1.608 1.13 2.564 2.439 3.67l1.275 1.14q.004.003.002.001c1.497 1.496 3.457 1.817 7.23 1.189l.433-.073c2.45-.412 3.569-.6 5.927.343 3.333 1.333 4.192 1.333 5.023 1.333.709 0 3.516-.788 4.693-3.29 1.024-2.175 1.946-3.198 3.08-3.418 1.378-.267 2.783.72 4.468 2.285 2.454 2.278 6.971 3.732 8.515 3.732 1.724 0 3.146-.662 5.072-2.361l2.583-2.492c1.63-1.678 2.447-2.52 5.016-2.52 2.858 0 4.435 2.061 5.827 3.88l1.142 1.42c1.661 1.87 5.104 2.534 7.547 2.534 2.792 0 5.7-1.576 9.432-5.11 4.985-4.722 8.381-1.325 10.41.705l1.294 1.423c1.548 1.795 2.772 3.212 6.512 3.212 3.193 0 4.424-1.385 5.849-2.988.668-.751 1.356-1.527 2.275-2.182 2.81-2.008 3.437-2.914 4.687-4.72l.446-.644.856-1.203c1.582-2.21 3.749-5.237 4.105-6.845.455-2.044 2.738-4.302 4.945-6.486l.772-.765c1.781-1.781 4.178-4.417 4.407-6.722.163-1.618-1.754-11.747-3.656-17.692-2.158-6.745-7.612-10.85-9.855-12.301-4.159-2.692-3.928-6.712-2.758-8.757 1.487-2.603 9.292-2.884 12.58-2.884 6.36 0 7.012.484 9.04 2.767 1.069 1.2 1.328 2.866 1.328 4.522 0 .844-.068 1.686-.13 2.463l-.1 1.769c0 2.119 2.519 7.847 6.124 13.931l.922 1.56c2.872 4.875 4.18 7.1 7.422 9.53 1.667 1.249 2.291 2.742 2.291 4.397 0 2.387-1.299 5.111-2.64 7.928l-1.028 2.15c-1.799 3.761-2.987 6.247-3.44 7.916l-.652 2.305c-.306 1.062-.667 2.308-.824 3.07 2.526-.774 7.268-2.393 10.69-5.814 2.3-2.3 4.636-7.418 4.636-9.418 0-.845.214-1.913.464-3.15.33-1.636.715-3.552.715-5.505 0-.83-.07-1.668-.242-2.492-.946-4.486-3.243-11.285-4.331-13.68-.33-.726-.563-1.527-.808-2.376-.636-2.19-1.291-4.457-3.741-5.834-1.711-.962-3.274-1.537-4.783-2.094-1.301-.478-2.53-.93-3.734-1.588-1.467-.8-2.472-2.292-2.913-4.314a10.4 10.4 0 0 1-.225-2.178c0-1.676.385-3.288 1.074-4.205 1.366-1.823 5.65-1.755 10.184-1.684l2.349.024c4.938 0 9.247 2.712 10.951 5.39.83 1.301 1.252 2.539 1.625 3.63.37 1.08.689 2.015 1.313 2.743 1.453 1.694 2.134 6.15 2.632 9.404l.06.386c.417 2.714 2.67 6.712 4.658 10.239l.33.586c1.847 3.286 3.948 6.683 6.776 9.276 1.495 1.37 2.239 3.482 2.612 5.27 1.148-3.448 2.797-6.314 4.958-8.474 3.29-3.29 4.436-3.686 8.12 0 4.139 4.14 4.349 13.224 4.349 15.004 0 3.88-1.234 7.722-3.264 13.588-2.077 6-3.455 9.913-5.089 13.646-.782 1.79-1.512 3.806-2.22 5.755-.743 2.055-1.447 3.995-2.163 5.546-.585 1.27-1.662 3.195-2.8 5.233-1.596 2.852-3.404 6.084-4.331 8.335-.993 2.412-3.358 4.713-5.646 6.937-1.56 1.517-3.034 2.951-3.858 4.232-1.856 2.888-4.582 5.74-8.36 9.688l-1.628 1.705c-4.588 4.818-13.109 7.752-19.955 10.109l-.594.205c-6.301 2.172-15.804 2.131-19.862 2.114l-.87-.003c-3.44 0-9.628-.655-16.204-1.387-6.661-.74-12.443-1.147-16.282-1.147-2.226 0-6.7.205-10.647.387-3.406.156-6.625.304-8.015.304-2.317 0-7.491 1.025-11.269 1.774l-2.659.518c-2.54.477-12.569 2.146-15.239 1.61-2.099-.418-8.694 1.611-11.509 2.478l-.133.04-3.59 1.204c-3.091 1.065-6.937 2.39-10.277 3.186-2.465.587-4.71.765-6.515.908-1.75.139-3.131.249-3.934.651-2.071 1.034-8.755 2.396-12.909 2.834-4.052.426-8.103 1.444-11.18 2.283-1.337.365-2.286.874-3.203 1.368-.76.408-1.546.83-2.52 1.155-3.951 1.317-9.204 3.328-9.204 5.565 0 1.59-.764 4.028-1.649 6.85l-1.37 4.616-.651 3.171c-.51 2.924-.952 5.45-3.836 5.862-3.417.488-4.04-.95-4.831-2.774l-.274-.62c-.462-1.016-1.07-1.808-1.656-2.574-.836-1.092-1.626-2.122-1.854-3.597-.19-1.238-.34-2.215-.494-2.382-.066-.027-.399-.027-.665-.027-.89 0-1.527 1.134-3.595 5.066l-.172.325c-2.195 4.171-5.508 7.555-8.439 8.622-1.755.638-3.23 1.175-4.235.421m-2.067-69.286c-1.46.336-3.937.78-6.56 1.249-2.864.512-5.825 1.042-7.96 1.516l-3.228.816c-2.876.774-5.592 1.505-9.364 1.505-4.718 0-7.087 0-8.036.95-.217.217-.284.39-.284.599 0 .13.026.275.058.454.034.189.074.413.074.657 0 .401-.11.855-.54 1.284l-.323.332c-.72.747-1.243 1.287-3.565 2.343-1.407.64-2.212 1.366-2.212 3 0 .74.166 1.669.515 2.858.8 2.72 6.33 4.8 11.21 6.635l4.295 1.678c5.086 2.152 7.331 5.014 10.73 9.346l2.438 3.066c4.602 5.647 7.913 6.365 11.746 7.196l.77.168c4.262.948 4.461 3.423 4.461 5.196l-.002.548c0 .97-.18 2.225-.353 3.439-.166 1.165-.338 2.37-.338 3.243 0 .971-.177 2.208-.382 3.64-.2 1.406-.428 2.998-.542 4.7a8 8 0 0 0-.018.504c0 .917.207 1.184.307 1.259.405.304 1.725-.175 2.887-.598 2.04-.743 5.25-3.265 7.734-7.984l.17-.324c2.285-4.343 3.055-5.806 4.82-5.806 1.975 0 2.07.618 2.526 3.582.173 1.124.827 1.978 1.584 2.966.605.788 1.29 1.683 1.818 2.843l.283.642c.744 1.716.995 2.294 3.367 1.956 1.81-.26 2.144-1.72 2.67-4.732l.677-3.285 1.387-4.678c.815-2.6 1.585-5.057 1.585-6.436 0-2.481 2.94-4.473 10.15-6.876.86-.288 1.561-.664 2.302-1.062.986-.53 2.006-1.078 3.494-1.483 3.127-.854 7.248-1.889 11.4-2.325 4.335-.456 10.726-1.842 12.434-2.696 1.045-.522 2.545-.64 4.444-.792 1.756-.14 3.943-.313 6.304-.875 3.273-.78 7.084-2.092 10.146-3.148l3.635-1.217.132-.041c5.061-1.558 10.04-2.941 12.187-2.511 2.087.417 10.612-.845 14.713-1.615l2.645-.516c4.047-.801 9.084-1.8 11.538-1.8 1.36 0 4.562-.146 7.952-.302 3.96-.183 8.452-.389 10.71-.389 3.888 0 9.724.411 16.433 1.156 6.537.727 12.684 1.379 16.052 1.379l.877.003c3.987.017 13.326.057 19.403-2.039l.597-.206c6.35-2.186 15.047-5.18 19.404-9.755l1.63-1.707c3.722-3.892 6.413-6.704 8.197-9.48.909-1.413 2.438-2.9 4.056-4.476 2.187-2.126 4.446-4.324 5.331-6.472.96-2.326 2.787-5.597 4.402-8.483 1.126-2.014 2.189-3.916 2.753-5.137.692-1.498 1.384-3.411 2.119-5.437.713-1.97 1.45-4.009 2.253-5.84 1.61-3.686 2.983-7.575 5.048-13.543 1.984-5.73 3.189-9.473 3.189-13.136 0-1.684-.19-10.272-3.945-14.027-3.082-3.082-3.314-2.85-6.166 0-2.167 2.167-3.814 5.093-4.894 8.696l-.691 2.303a.691.691 0 0 1-1.355-.198c0-.053-.035-5.26-2.54-7.555-2.973-2.724-5.144-6.233-7.049-9.617l-.328-.585c-2.045-3.63-4.363-7.745-4.82-10.707l-.058-.388c-.42-2.738-1.123-7.318-2.32-8.715-.794-.928-1.171-2.03-1.57-3.194-.363-1.069-.742-2.172-1.481-3.335-1.465-2.303-5.393-4.75-9.785-4.75l-2.37-.024c-3.615-.057-8.115-.127-9.058 1.13-.65.87-1.066 3.127-.602 5.262.245 1.129.83 2.634 2.223 3.395 1.115.608 2.298 1.043 3.548 1.502 1.49.548 3.178 1.171 4.985 2.188 2.942 1.654 3.746 4.428 4.39 6.654.232.798.45 1.551.74 2.187 1.113 2.452 3.461 9.395 4.423 13.968.642 3.043.026 6.1-.47 8.556-.234 1.163-.436 2.169-.436 2.876 0 2.552-2.638 7.993-5.041 10.396-3.978 3.978-9.55 5.647-11.928 6.36l-.113.034a.81.81 0 0 1-.817-.194c-.501-.499-.332-1.3.689-4.819l.645-2.28c.485-1.792 1.694-4.323 3.527-8.153l1.025-2.148c2.438-5.116 3.78-8.366.769-10.625-3.461-2.596-4.905-5.047-7.784-9.933l-.92-1.557c-3.838-6.474-6.318-12.22-6.318-14.636l.106-1.88c.162-2.042.365-4.584-.854-5.955-1.733-1.952-2.046-2.303-8.007-2.303-6.96 0-10.778 1.133-11.381 2.185-.628 1.101-1.439 4.487 2.31 6.91 2.37 1.535 8.126 5.874 10.42 13.043 1.776 5.548 3.929 16.124 3.716 18.25-.275 2.746-2.875 5.631-4.807 7.563l-.775.77c-1.97 1.948-4.202 4.156-4.568 5.803-.418 1.884-2.588 4.915-4.33 7.35l-.847 1.19-.444.638c-1.297 1.877-2.012 2.91-5.02 5.059-.791.565-1.4 1.25-2.044 1.975-1.51 1.697-3.07 3.452-6.883 3.452-4.373 0-5.92-1.793-7.56-3.692l-1.224-1.348c-2.534-2.535-4.768-4.195-8.481-.678-4.007 3.796-7.21 5.489-10.383 5.489-2.86 0-6.615-.787-8.58-2.997l-1.207-1.5c-1.313-1.716-2.554-3.337-4.729-3.337-1.984 0-2.499.529-4.025 2.1l-2.66 2.565c-2.179 1.924-3.914 2.708-5.986 2.708-2.006 0-6.8-1.636-9.456-4.102-1.585-1.472-2.592-2.07-3.263-1.94-.635.123-1.3.965-2.092 2.65-1.467 3.116-4.856 4.083-5.925 4.083-.982 0-1.976 0-5.556-1.432-1.998-.8-2.802-.664-5.184-.263l-.436.073c-3.529.587-6.314.545-8.435-1.576.009.009-.01-.008 0 0l-1.191-1.063c-1.373-1.16-2.93-2.475-2.93-4.725 0-1.415-1.452-2.573-2.857-3.691-.69-.55-1.343-1.069-1.814-1.62-1.469-1.713-5.659-9.203-8.86-16.293-1.86-4.117-3.06-5.85-4.58-8.045-1.066-1.54-2.274-3.284-3.917-6.182-2.64-4.658-4.635-11.394-6.238-16.808-.799-2.698-1.49-5.029-2.097-6.547-1.597-3.992-5.567-6.017-11.8-6.017l-1.81-.004c-4.814-.02-9.79-.039-11.032 1.38l-.55.599c-1.005 1.069-2.045 2.173-2.045 4.246 0 1.579 0 2.622 1.327 5.718 1.269 2.96 3.608 3.958 9.272 3.958 2.585 0 3.68 3.927 5.066 8.897.605 2.17 1.232 4.417 2.032 6.524 1.521 4.013 2.683 9.513 3.806 14.832.75 3.551 1.458 6.905 2.2 9.41 1.576 5.32 1.501 10.675 1.436 15.399l-.025 2.538c0 4.378-.998 9.021-1.594 11.796l-.262 1.243c-.321 1.603-1.46 3.264-2.832 4.133-.892.565-1.8.754-2.622.548-.63-.158-.776-.078-.778-.077-.084.072-.186.521-.252.819l-.211.851c-.362 1.268-1.686 2.651-3.08 3.219-.94.383-1.816.367-2.536-.044-.156-.089-.22-.062-.263-.044-.535.229-1.114 1.571-1.719 3.99a3.48 3.48 0 0 1-2.219 2.447c-.863.306-1.73.224-2.321-.22-.075-.054-.242-.011-.31.01-.684.214-1.581 1.167-1.846 1.961l-.277 1.015c-.374 1.503-.84 3.374-2.452 3.374-.726 0-1.567.965-2.308 1.817l-.89.976c-1.273 1.273-2.856 2.857-4.432 2.227-.882-.353-1.693-.523-2.08-.532-.112.816-.714 2.81-3.959 3.56m76.826-46.553c-.006-.006 0 0 .002.001z" style="fill:#231f20;fill-opacity:1;fill-rule:nonzero;stroke:none" transform="matrix(1.33333 0 0 -1.33333 -.667 1119.333)"></path><path d="M406.975 486.473c-.02-.089-.478-2.239-.014-7.582l.262-3.198c.38-4.782.81-10.202 1.82-15.759.937-5.16 2.607-9.888 3.947-13.687.657-1.86 1.225-3.466 1.597-4.806 1.141-4.11 3.21-10.782 3.23-10.85a.693.693 0 0 1 1.322.41c-.022.068-2.084 6.72-3.22 10.81-.386 1.385-.96 3.012-1.624 4.897-1.324 3.752-2.974 8.422-3.893 13.473-.997 5.489-1.424 10.872-1.801 15.62l-.263 3.21c-.442 5.082-.018 7.144-.014 7.165a.69.69 0 0 1-1.35.297M357.603 454.53l-1.383-1.61-1.196-1.342c-1.636-1.857-3.492-3.962-4.514-3.962-1.155 0-3.116 1.087-3.777 1.505a.69.69 0 1 1-.74-1.166c.276-.176 2.754-1.721 4.517-1.721 1.646 0 3.457 2.053 5.552 4.43l1.18 1.325 1.421 1.654c1.792 2.143 3.824 4.572 5.901 4.572 1.744 0 3.024-1.998 4.508-4.313.65-1.016 1.324-2.068 2.095-3.03 4.388-5.485 6.107-5.87 6.644-5.78.36.06.576.388.535.753s-.396.63-.762.61l.12.007c-.057.008-1.447.26-5.457 5.273-.726.906-1.38 1.927-2.012 2.913-1.63 2.545-3.172 4.949-5.67 4.949-2.724 0-4.977-2.692-6.962-5.067z" style="fill:#231f20;fill-opacity:1;fill-rule:nonzero;stroke:none" transform="matrix(1.33333 0 0 -1.33333 -.667 1119.333)"></path><path d="M367.675 423.654c-.113-1.024-.806-2.533-.806-4.147 0-1.612-.462-2.304-.807-3.455-.345-1.154-.46-1.382 1.844-1.382 2.303 0 3.57-1.961 2.88-3.228-.692-1.265-1.959-2.88-2.074-4.837-.115-1.959-.923-3.572-1.96-4.494-1.035-.92-3.8-3.455-3.8-4.837s-.46-2.42-2.419-2.535c-1.958-.114-4.723-1.959-5.07-2.995-.345-1.037-1.842-.576-3.34-2.534-1.497-1.959-1.498-2.88-.23-2.88 1.267 0 2.303.346 2.88 1.728.576 1.382 1.727 2.764 2.42 2.764.69 0 .575-1.497-.808-3.11-1.382-1.612.115-1.958 1.383-1.958 1.267 0 .808 2.073 1.613 3.916.807 1.844 1.959 1.268 1.959.23 0-1.036-1.613-2.765-1.037-3.686.575-.921 3.455-1.036 4.146-.806.692.23.576 1.613.116 3.571-.461 1.96 2.188.117 2.304 1.96.115 1.841-1.037.69-1.383 3.109-.345 2.419-.691 2.764 1.729 4.378 2.419 1.612 3.224 3.34 4.954 6.681 1.727 3.341-.347 6.335 2.65 8.41 2.994 2.073-.923 3.917 2.187 5.184 3.111 1.267 4.148 2.534 2.765 4.953s-3.11 4.148-3.801 2.996-2.765-.116-3.917-.116-4.263-1.843-4.378-2.88" style="fill:#bd6047;fill-opacity:1;fill-rule:nonzero;stroke:none" transform="matrix(1.33333 0 0 -1.33333 -.667 1119.333)"></path><path d="M394.056 454.643c1.39.082 1.958 2.995 1.613 5.3-.346 2.303 2.995 1.15 2.766 3.916-.232 2.765.573 3.34-1.269 5.069-1.843 1.728-1.152 2.535.115 4.147 1.268 1.613 2.995 3.456.576 5.76s-.115 4.263-1.266 6.797c-1.153 2.534-2.19 2.419-4.147 2.534-1.959.115-3.227 1.267-3.457 2.765s-3.225 0-3.686-1.958c-.461-1.959 1.266-3.457-.461-3.917s-3.11-.23-5.185.922c-2.072 1.151-5.529 3.11-7.257 1.151s-5.76-3.225-6.681-1.728-4.031.46-4.263-1.728c-.23-2.189 1.037-3.686 4.149-3.225 3.109.46 7.255.921 5.989-.691-1.268-1.613-2.304-2.765-.921-3.687s2.304-3.571 3.916-3.571 3.572-2.304 2.419-2.88c-1.152-.576.807-3.686 2.995-3.686 2.19 0 2.074-1.383 2.074-2.88 0-1.498 1.613-.346 3.571-.461s2.074-.692 2.074-2.073c0-1.383.231-2.19 2.42-3.227s1.957-2.764 3.916-2.649M282.542 487.936c-.34-1.815-5.184-.23-4.147-1.844 1.037-1.612 2.648-3.225.46-4.147-2.188-.921-4.953-1.267-4.032-2.765.922-1.497 2.88-3.685 4.724-3.57 1.843.114.346-2.305 1.843-3.341 1.498-1.038 4.723-.23 6.45 1.036 1.729 1.267 2.766 2.42 4.264 1.267 1.498-1.151 2.88-2.65 4.493-1.151 1.612 1.497 5.184 3.686 5.875 2.303.691-1.382.115-2.764 2.88-2.764s6.45 1.612 4.607 2.995c-1.842 1.382.807 2.189 3.572 2.65s2.303-1.037 2.303-2.42c0-1.382.462-3.686 2.765-1.843 2.304 1.844 4.725 3.571 5.645 2.074.922-1.498 1.614-2.995 4.264-2.995 2.648 0 1.958-2.305 4.147-2.19 2.187.116 7.257-1.382 5.874 1.038-1.382 2.419 1.729 3.226 4.148 3.226s5.529-.577 6.336 1.036c.805 1.613-1.268 4.378-3.802 4.723-2.534.346.576 3.226 2.88 1.958 2.304-1.267 4.839-1.151 4.263.807s-6.337.806-4.033 2.88c2.305 2.074 6.222-1.037 7.373.921 1.152 1.96-1.498 3.572-3.572 3.572s.462 2.65-1.958 3.456-5.414-.23-5.299-2.65c.116-2.419-1.036-2.995-2.88-3.225s0 3.686-2.419 4.262-3.225-.922-3.225-3.11c0-2.189-1.958.806-4.032.921-2.074.116-4.608-.576-4.608-2.19 0-1.61-3.342-1.957-5.3.347s-1.498 5.415-3.57 5.3c-2.074-.116-3.803-1.383-2.997-2.88.808-1.498 1.268-4.148-1.382-4.148s-5.53-.116-5.414 2.304c.115 2.42-5.643 4.723-6.105 2.765-.461-1.959 2.995-2.074 1.612-3.456-1.382-1.382-5.875-2.534-6.912-.346-1.036 2.189-3.11 5.876-3.916 2.996-.808-2.881.228-3.342-.693-4.263s-4.952 0-5.759 2.65-4.377-.345-4.723-2.189" style="fill:#e27e5c;fill-opacity:1;fill-rule:nonzero;stroke:none" transform="matrix(1.33333 0 0 -1.33333 -.667 1119.333)"></path><path d="M352.122 462.822c-1.561.116-2.764-1.958-4.262-2.073s-3.11 1.036-3.8 2.418c-.693 1.383-2.881 1.268-4.956 1.268-2.072 0-4.49-.576-3.34-1.382 1.153-.807 3.688-.922 2.765-1.153-.922-.23-2.995-.115-2.534-.921.46-.807 1.382-1.152 2.995-1.152s4.493-1.267 3.342-1.497c-1.153-.231-.578-1.037-.116-1.843.46-.807 2.765-.807 2.765-1.383s-1.153-.23-1.382-1.037c-.232-.807 1.841-2.535 2.995-3.226 1.151-.691 2.879-.345 3.8-.345.922 0 .807-.806.578-1.613-.232-.807 1.382-.115 2.994 1.843 1.612 1.96 2.65 3.571 3.456 5.415.807 1.843 1.383 3.57.346 4.723-1.038 1.152-2.535 1.728-5.646 1.958M315.95 464.78c-1.02-.297-1.498-1.843-.691-1.843.806 0 1.038-1.152.116-1.498-.923-.345-1.383-1.151-1.383-1.728 0-.575 0-1.497 1.152-1.842 1.152-.346 1.613-.923 2.88-.461 1.267.461 2.073-2.42 1.382-2.995s-.807-1.959-.115-2.305c.691-.345-.346-1.843 1.037-1.843s2.879-.23 4.147.346c1.267.576 2.19 2.074 3.686 3.571 1.497 1.498-1.383 1.152-1.267 3.34.115 2.19 3.686 1.844 1.959 3.917-1.728 2.075-2.42 2.305-4.724 2.996s-5.414 1.152-8.18.346M289.223 466.509c-1.457-.876-2.418-.807-3.685-.807-1.268 0-2.42-1.382-2.766-2.419-.345-1.037-1.037-1.383.346-1.498 1.382-.115 2.073-.575 1.728-1.843-.346-1.267-.23-4.032 1.037-4.032s2.42-1.382 2.42-2.304c0-.92 1.151-1.037 2.648-.691 1.498.345 4.724-2.188 4.608-.23-.115 1.958.346 1.958 2.074 3.456s2.995 1.036 4.148 2.303 2.88.807 3.686 2.881c.805 2.073-1.958 4.838-2.88 3.57-.922-1.267-2.65-1.843-3.571-.23s-2.65 2.42-3.917 2.19c-1.268-.231-4.724.345-5.876-.346M269.524 453.03c1.135-.206 1.614-.115 3.226.807 1.613.921 2.42 2.073 3.917 2.418 1.498.347 2.073 1.844 1.498 3.456-.577 1.614.806 4.148-1.613 5.3s-4.263-.576-4.263-1.613-.921-2.764-2.65-2.073c-1.727.691-2.188.576-3.57 1.728-1.383 1.152-1.958 1.613-2.88.69-.922-.92-1.037-3.34-.115-3.34.92 0 .806-1.383.345-1.959-.461-.575 1.268-2.303 2.535-4.03 1.267-1.729 2.302-1.153 3.57-1.383M247.06 460.864c-1.55 0-1.957-1.843-1.843-2.88.116-1.037.23-1.729 2.189-1.729s4.032-.806 4.262 0c.23.807-.575 1.268-1.037 3.226-.46 1.958 2.42 2.19 2.535.807s-.23-1.728 1.959-1.383c2.188.346 2.073 1.383 4.146.461s3.917.576 1.153 2.189c-2.765 1.612-2.65 3.226-2.65 4.262 0 1.037-1.498 1.037-2.765-.23s-.92-3.34-2.534-2.65c-1.613.691-2.229-1.208-2.765-1.958-.576-.807-2.074-.115-2.65-.115M128.404 516.967c-1.134-1.135.174-1.095.519-2.247s.057-3.168.864-2.823 1.498.23 1.728-.69c.23-.923 1.843-.347 2.534.114.692.461 1.843.461 2.65.461s1.267.346 1.728-.806c.46-1.152 2.995-1.844 3.11-.692.116 1.153-.346 1.844 1.383 1.96 1.727.114 3.455-1.153 3.801-.923s-.23 1.613 1.613 1.728c1.843.116 2.074-1.267 2.074-1.958s2.073.46 4.032.46c1.958 0 4.723-.114 5.068-.345.346-.23 1.037-2.188-1.382-2.188s-2.765-1.729-2.765-1.729.231-1.267-1.958-1.267-7.718.115-9.331 0-4.262.346-5.184-.23-3.342 0-4.608 0c-1.267 0-.922-1.498 3.455-1.843 4.379-.346 7.028-1.037 9.102-1.037s3.8.115 5.414-.461c1.612-.576 5.415-.46 6.797-.46s1.728-1.499 4.032-1.844c2.304-.346 6.68.115 4.377 1.843s-3.571 2.074-2.419 3.917 3.687 2.189 2.996 3.917c-.692 1.728-.807 2.073 1.152 3.11 1.957 1.037 2.418 3.226 2.418 4.724 0 1.497 1.613-1.152 2.074-2.765s1.959-4.032 2.535-2.996c.575 1.037 1.727 2.42 1.382 4.954s-.576 3.57-.807 5.53c-.23 1.958-1.957 2.765-3.34 2.188-1.383-.575-4.723 0-5.875.23-1.153.231-3.456 1.037-4.148 0-.69-1.036-1.613-1.958-2.88-2.88-1.267-.92-2.88-1.036-3.687-.114-.806.921.577 1.612 1.498 2.764.922 1.153 2.19 2.765 3.802 2.88s2.42 1.095 2.535 2.823 1.727 1.555 4.493 2.592c1.988.745 4.838 1.21 7.257 1.037 2.281-.163 3.521-.782 4.838-.519 1.729.346 2.073-2.937 3.11-1.67s2.074.23 4.378 1.613c2.304 1.382.922 2.534-.115 2.765-1.036.23.346 1.727 2.42 2.65 2.073.92 1.612 3.455-.231 2.994s-4.378-.921-5.07.115c-.69 1.038-2.648 1.844-4.607 2.074-1.958.23-7.488.346-9.446.346-1.959 0-4.493.575-5.184-1.268s-1.037-3.456-2.65-3.11-1.267-1.383-1.152-1.728c.115-.346.461-.921-.576-1.728s-2.073-.345-3.571.691-6.681 1.037-3.456-1.267 1.727-3.225 1.152-3.917c-.576-.69-1.843.576-3.917 1.152s-1.958-3.11-.23-3.571 1.727-1.843-.692-1.728-4.031.807-3.686-.806c.346-1.614.23-2.65-2.303-2.765-2.535-.116-4.379-.691-5.991-2.305-1.613-1.612-2.535-1.497-4.609-1.612-2.073-.116-4.608-1.497-6.45-3.34M170.683 561.664c-.62 0-1.497-1.958-.576-2.996.922-1.036.922-2.073.69-3.456-.23-1.382-.805-1.728-.805-3.801s-.576-3.686 1.037-3.802c1.612-.115 4.492-1.382 4.607.23.115 1.614-.575 4.148-1.152 6.106-.575 1.959 2.65-1.152 2.996-3.225.345-2.074 1.268-2.304 1.843-.806s-.806 4.723-2.765 7.833c-1.958 3.11-4.608 3.917-5.875 3.917M191.073 562.816c-.62-.031-.922-1.843-2.189-3.341s-2.419-3.342-2.419-4.954-1.152-3.226-1.382-3.801.115-2.765 1.958-1.152 2.765.921 2.535-1.382c-.23-2.305-.116-3.802 2.073-3.456 2.19.345 3.686.691 2.074 3.34s-.691 3.917-.346 6.912c.346 2.995 0 7.949-2.304 7.834" style="fill:#bd6047;fill-opacity:1;fill-rule:nonzero;stroke:none" transform="matrix(1.33333 0 0 -1.33333 -.667 1119.333)" data-source="https://football-logos.cc"></path><path d="M184.968 528.025c-1.246-.861-3.226-2.303-1.614-3.456 1.614-1.152 2.42-3.225 1.499-4.492-.922-1.267-1.959-3.456-1.614-5.3.346-1.843.231-4.147-1.612-4.953s-4.147-1.844-3.11-3.11c1.036-1.268 1.612-2.19-.23-2.996-1.845-.806-.347-1.728 1.727-3.11s2.765-1.728 1.843-3.456c-.921-1.728 1.843-1.843.691-3.802-1.151-1.958-.115-2.764 1.959-1.037 2.074 1.729 2.65 3.802 1.958 5.415-.691 1.613 3.342.461 4.263 2.304s.576 2.419-.691 4.953c-1.268 2.536 1.497 2.304 2.419 5.07.92 2.764-3.34 2.88-2.765 6.335.576 3.456 4.838 4.032 3.456 6.106s-.922 3.456.46 5.184-5.644 2.42-8.64.345M203.745 539.315c-2.105.972-2.534-1.959-1.612-3.225.92-1.268 1.267-2.65-.23-3.802-1.498-1.152-2.765-3.11-1.498-4.724 1.266-1.612 4.377-2.995 3.11-4.262s-2.189-4.607.346-4.377c2.534.23 4.377.345 4.377 3.801s-3.801 5.184-.921 7.488 5.069 5.07 3.11 5.76c-1.959.692-5.184 2.65-6.682 3.341M170.236 531.481c-2.589-.09-3.758-1.461-3.887-2.36-.13-.899 1.814-2.472 5.054-2.247 3.24.224 4.665 1.461 4.536 2.472s-2.463 2.248-5.703 2.135" style="fill:#bd6047;fill-opacity:1;fill-rule:nonzero;stroke:none" transform="matrix(1.33333 0 0 -1.33333 -.667 1119.333)"></path><path d="M170.212 532.172c-3.04-.105-4.385-1.823-4.548-2.952-.068-.474.134-.991.568-1.459.818-.88 2.618-1.758 5.219-1.577 2.22.153 3.887.78 4.696 1.766.378.46.543.973.478 1.484-.205 1.598-3.141 2.852-6.413 2.738m-2.819-3.613c-.284.248-.356.433-.36.478.078.529.97 1.675 3.228 1.754 3.133.108 4.937-1.096 4.993-1.532.02-.164-.101-.341-.175-.432-.206-.25-1.081-1.08-3.725-1.264-1.927-.134-3.31.427-3.96.996" style="fill:#231f20;fill-opacity:1;fill-rule:nonzero;stroke:none" transform="matrix(1.33333 0 0 -1.33333 -.667 1119.333)"></path><path d="M169.3 531.366s-.575-1.037-.345-2.188c.231-1.153.576-1.959 1.613-1.959s1.613 1.353 1.728 2.62-.461 1.527-2.995 1.527" style="fill:#592b1d;fill-opacity:1;fill-rule:nonzero;stroke:none" transform="matrix(1.33333 0 0 -1.33333 -.667 1119.333)"></path><path d="M168.696 531.702c-.028-.051-.696-1.275-.419-2.66.15-.752.503-2.514 2.291-2.514 1.465 0 2.269 1.632 2.416 3.249.04.438.042 1.077-.398 1.559-.557.61-1.543.722-3.285.722a.69.69 0 0 1-.605-.356m.937-2.389a2 2 0 0 0-.041.427c0 .365.083.695.165.931.652-.01 1.614-.054 1.808-.267.015-.016.054-.077.054-.285q0-.09-.012-.216c-.1-1.117-.558-1.993-1.039-1.993-.383 0-.675.101-.935 1.403M155.635 510.511c-.79-.083-1.505-.37-2.262-.673-.892-.357-1.9-.76-3.285-.942-1.44-.188-13.33-.8-14.426-.8-7.619 0-9.454 1.33-9.472 1.343a.7.7 0 0 1-.963-.107.683.683 0 0 1 .075-.952c.197-.17 2.16-1.666 10.36-1.666 1.159 0 13.068.611 14.605.811 1.557.204 2.7.662 3.62 1.03.694.278 1.295.518 1.892.582a.69.69 0 1 1-.144 1.374" style="fill:#231f20;fill-opacity:1;fill-rule:nonzero;stroke:none" transform="matrix(1.33333 0 0 -1.33333 -.667 1119.333)"></path><path d="M151.906 521.574c-.304-1.818 2.073-2.073 2.073-2.995 0-.921 1.613.23 2.074-1.382.46-1.613 2.303-3.456 3.916-3.456s1.383.69-.92 2.994c-2.305 2.305-3.688 2.306-4.61 4.61-.92 2.303-2.303 1.612-2.533.229M167.573 533.9c-1.036.05-3.572-.46-3.917-1.036-.346-.576-.807 2.188.806 2.765 1.613.576 3.457-.461 4.263.69.806 1.153 1.612 1.153 2.88 1.498 1.267.346.806.346.806-.806s-2.42-3.225-4.838-3.11M170.337 539.891c2.306.769 2.766 2.65.807 2.65-1.958 0-2.535-1.382-3.34-2.189-.807-.807-2.42-3.571-.923-3.226 1.498.346 2.074 2.304 3.456 2.765M177.134 534.938c2.514-.838 3.572-.922 4.954-.231 1.383.691 1.613 2.995.46 3.11-1.151.116-1.842-1.151-2.764-1.151s-2.19.46-2.88 1.959c-.691 1.497-2.073 1.151-2.073 0 0-1.153.575-3.111 2.303-3.687M136.872 516.967c-1.9 0-.346-3.63 1.382-3.63s5.184-1.21 3.802.346c-1.382 1.555-2.764-.172-2.938 1.728-.172 1.901-.864 1.556-2.246 1.556M143.957 515.93c1.518.379.864.69-.519 2.764-1.382 2.074-3.456.346-2.592-.518s2.42-2.42 3.11-2.247M148.622 517.83c-1.471 1.472-.864 2.765-2.246 2.765s-.346-.691 0-2.246c.345-1.556 1.21-4.493 3.283-3.284s.345 1.383-1.037 2.766M156.571 504.87c1.545-.772 0-2.073-1.21-2.073s-3.11 2.246-1.382 2.246 2.247 0 2.592-.172M160.373 507.29c-.66-1.321.345-.519.518-1.9.173-1.383-.173-2.94 1.555-2.42 1.728.518-.173 1.9.346 3.628s-1.9 1.729-2.419.691M146.376 505.043c-2.074 0-2.42-1.382-.519-1.382s1.729 1.382.519 1.382M165.211 514.029c1.159 2.51 1.21 4.32-1.382 4.838s-3.11-2.42-1.728-2.42 1.555-1.036 1.037-2.245c-.519-1.21-1.383-2.765.345-3.284s.69.864 1.728 3.11" style="fill:#592b1d;fill-opacity:1;fill-rule:nonzero;stroke:none" transform="matrix(1.33333 0 0 -1.33333 -.667 1119.333)"></path><path d="M76.444 372.1H493.55" style="fill:#f4a81e;fill-opacity:1;fill-rule:nonzero;stroke:none" transform="matrix(1.33333 0 0 -1.33333 -.667 1119.333)"></path><path d="m76.021 370.893 417.87.737s-15.316-69.081-83.869-154.334c-68.546-85.251-125.421-107.402-125.421-107.402s-70.748 34.644-135.656 119.893c-64.903 85.255-72.924 141.106-72.924 141.106" style="fill:#ed1e2d;fill-opacity:1;fill-rule:nonzero;stroke:none" transform="matrix(1.33333 0 0 -1.33333 -.667 1119.333)"></path><path d="m283.615 206.102 21.92-29.04 25.262.023-24.018 32.514c16.518 7.586 27.899 26.088 27.899 42.527 0 23.156-17.653 43.47-37.779 43.47h-71.415v-24.753h20.7v4.053H296.9c6.798 0 17.079-9.082 17.079-22.77 0-11.072-11.167-25.357-23.03-25.357l-44.763-.003v15.268h-20.7v-64.976l20.667.008v29.067z" style="fill:#fff;fill-opacity:1;fill-rule:nonzero;stroke:none" transform="matrix(1.33333 0 0 -1.33333 -.667 1119.333)"></path><path d="M225.484 296.596a1 1 0 0 1-1-1v-24.753a1 1 0 0 1 1-1h20.7a1 1 0 0 1 1 1v3.053H296.9c6.4 0 16.079-8.683 16.079-21.77 0-10.636-10.683-24.357-22.03-24.357l-43.763-.003v14.268a1 1 0 0 1-1 1h-20.7a1 1 0 0 1-1-1v-64.976a1 1 0 0 1 1-1l20.667.008a1 1 0 0 1 1 1v28.066l35.965-.03 21.62-28.642a1 1 0 0 1 .8-.397l25.26.022a1 1 0 0 1 1 1 1 1 0 0 1-.195.594l-23.318 31.565c15.688 7.78 27.394 25.969 27.394 42.882 0 23.69-18.121 44.47-38.779 44.47zm71.415-2c19.592 0 36.779-19.846 36.779-42.47 0-16.574-11.743-34.467-27.316-41.618a1 1 0 0 1-.387-1.503l22.841-30.922-22.783-.02-21.62 28.641a1 1 0 0 1-.797.398l-37.464.03a1 1 0 0 1-1-1v-28.066l-18.668-.008v62.976h18.7v-14.268a1 1 0 0 1 1-1l44.764.003c12.377 0 24.03 14.848 24.03 26.357 0 14.289-10.881 23.77-18.079 23.77h-50.714a1 1 0 0 1-1-1v-3.053h-18.7v22.753z" style="fill:#231f20;fill-opacity:1;fill-rule:nonzero;stroke:none" transform="matrix(1.33333 0 0 -1.33333 -.667 1119.333)"></path><path d="m255.767 246.065-.008-15.244h20.7v40.022h-20.7v-3.71l-55.1.065c.272 20.24 4.534 32.732 15.38 45.504 9.9 11.661 19.162 17.824 26.782 17.824h12.938v-30.88l20.672.002.028 51.579h-33.638c-14.085 0-28.406-8.454-42.562-25.127-14.428-16.993-20.314-34.676-20.314-61.037 0-19.29 4.38-30.782 4.88-32.03l21.686.003-2.44 7.6c-.016.04-.734 1.912-1.506 5.434z" style="fill:#fff;fill-opacity:1;fill-rule:nonzero;stroke:none" transform="matrix(1.33333 0 0 -1.33333 -.667 1119.333)"></path><path d="M266.11 352.227h-23.29c-14.393 0-28.97-8.573-43.323-25.48-14.598-17.192-20.553-35.063-20.553-61.684 0-19.47 4.446-31.136 4.952-32.403a1 1 0 0 1 .929-.628l21.686.004a1 1 0 0 1 .952 1.306l-2.44 7.6c-.024.065-.558 1.52-1.19 4.128l50.933-.005-.008-14.244a1.003 1.003 0 0 1 1-1h20.7a1 1 0 0 1 1 1v40.022a1 1 0 0 1-1 1h-20.7a1 1 0 0 1-1-1v-2.71c-1.893.004-51.095.061-53.059.064.399 19.403 4.523 31.4 15.101 43.858 9.705 11.43 18.703 17.471 26.02 17.471h11.938v-29.88a1 1 0 0 1 1-1l20.672.002a1 1 0 0 1 1 1l.029 51.578a1 1 0 0 1-1 1zm-85.165-87.162c0 26.098 5.816 43.593 20.077 60.388 13.956 16.44 28.02 24.775 41.8 24.775h32.637c0-1.886-.026-47.695-.027-49.579l-18.673-.002v29.88a1 1 0 0 1-1 1H242.82c-7.923 0-17.448-6.285-27.544-18.176-10.966-12.914-15.345-25.85-15.618-46.138a1.004 1.004 0 0 1 1-1.014l55.1-.065a1 1 0 0 1 1 1v2.71h18.7V231.82h-18.7l.008 14.244a1.003 1.003 0 0 1-1 1l-53.201.005a1 1 0 0 1-.977-1.213c.801-3.658 1.545-5.568 1.552-5.586l2-6.235-19.625-.004c-1.025 2.796-4.57 13.703-4.57 31.032" style="fill:#231f20;fill-opacity:1;fill-rule:nonzero;stroke:none" transform="matrix(1.33333 0 0 -1.33333 -.667 1119.333)"></path><path d="M297.2 327.3c-.054-13.3 9.55-19.75 19.05-26.55 8.508-6.089 34.963-21.778 43.25-27.5 8.4-5.8 10.9-8.25 10.7-13.35-.165-4.197-4.81-7.15-7.867-7.15l-23.345-.022s.387-4.416-.738-9.54c-1.125-5.126-3.572-10.296-3.572-10.296l27.812-.017c4.31.024 15.86 2.385 23.61 11.925 5.2 6.4 5.5 11.8 5.5 16.3s-.71 14.306-11.3 22.1c-10.6 7.8-52.598 33.422-58.3 37.7-4.8 3.6-4.4 6-3.5 7.3s2.9 3.2 9.3 3.2h59.508l-.008 19.905-59.059-.005c-4.642-.1-30.941.6-31.041-24z" style="fill:#fff;fill-opacity:1;fill-rule:nonzero;stroke:none" transform="matrix(1.33333 0 0 -1.33333 -.667 1119.333)"></path><path d="m387.3 352.305-59.059-.005-.669-.01c-25.846-.318-31.326-13.763-31.372-24.987-.054-13.419 9.438-20.2 18.617-26.758l.851-.609c4.632-3.314 14.434-9.385 23.913-15.256 8.007-4.959 15.57-9.642 19.35-12.254 8.244-5.691 10.45-7.886 10.27-12.488-.139-3.531-4.263-6.188-6.868-6.188l-23.346-.023a1 1 0 0 1-.995-1.087c.004-.043.358-4.336-.719-9.238-1.086-4.95-3.475-10.032-3.5-10.083a1 1 0 0 1 .904-1.428l27.812-.016c4.029.022 16.25 2.275 24.388 12.294 5.281 6.5 5.723 11.928 5.723 16.93 0 9.483-3.939 17.19-11.707 22.906-5.979 4.399-21.722 14.33-35.612 23.092-10.845 6.841-20.212 12.75-22.681 14.602-2.217 1.664-4.586 4.043-3.278 5.931.475.685 1.918 2.769 8.478 2.769h59.508a1 1 0 0 1 1 1l-.008 19.905a1 1 0 0 1-1 1m-59.703-2.014.666.01 58.037.005.008-17.906H327.8c-6.82 0-9.042-2.07-10.122-3.63-.434-.626-.758-1.4-.758-2.316 0-1.664 1.067-3.794 4.48-6.353 2.534-1.902 11.932-7.83 22.815-14.695 13.861-8.743 29.572-18.654 35.492-23.01 7.228-5.319 10.893-12.484 10.893-21.295 0-4.643-.408-9.677-5.276-15.67-7.65-9.416-19.08-11.534-22.84-11.555l-26.27.016c.813 1.905 2.218 5.46 3.013 9.082.686 3.125.828 5.971.828 7.792 0 .372-.007.683-.016.963l22.295.022c3.401 0 8.674 3.234 8.865 8.11q.012.296.012.58c0 5.414-3.163 8.123-11.143 13.633-3.823 2.639-11.406 7.336-19.434 12.308-9.451 5.853-19.225 11.906-23.802 15.182l-.852.61c-9.143 6.531-17.78 12.702-17.78 25.016v.107c.06 15.018 9.951 22.755 29.397 22.994z" style="fill:#231f20;fill-opacity:1;fill-rule:nonzero;stroke:none" transform="matrix(1.33333 0 0 -1.33333 -.667 1119.333)"></path><path d="M279.512 663.54c-.421-.393-43.027-39.614-106.942-63.286-53.662-19.874-111.242-21.145-111.816-21.156l-7.548-.138-1.432-7.413c-1.124-5.838-26.691-144.534 46.458-282.473 77.047-145.292 179.754-188.77 184.093-190.553l3.53-1.448 3.528 1.445c4.355 1.779 107.535 45.256 184.59 190.556 73.146 137.936 47.582 276.635 46.458 282.473L519 578.96l-7.548.138c-.578.01-58.158 1.282-111.82 21.156-63.944 23.684-107.03 62.927-107.46 63.32l-6.342 5.837zM484.89 362.786c-6.904-21.377-15.85-43.247-27.376-64.982C391.602 173.51 304.28 126.276 285.87 117.394c-18.355 8.894-105.279 56.141-171.18 180.41-11.52 21.723-20.463 43.605-27.365 64.971zM81.775 381.42c-12.85 46.964-16.291 90.51-16.291 123.739 0 26.029 2.11 45.695 3.47 55.644 18.132 1.018 64.719 5.18 110.085 21.982 53.751 19.906 92.35 49.47 106.852 61.62 14.6-12.125 53.497-41.704 107.272-61.62 45.366-16.803 91.952-20.964 110.085-21.982 1.36-9.949 3.474-29.615 3.474-55.644 0-33.214-3.44-76.8-16.276-123.74z" style="fill:#bd6047;fill-opacity:1;fill-rule:nonzero;stroke:none" transform="matrix(1.33333 0 0 -1.33333 -.667 1119.333)"></path><path d="m285.15 670.143-6.32-5.872c-.42-.391-42.614-39.378-106.607-63.079-53.299-19.74-110.913-21.083-111.489-21.094l-7.546-.138a1 1 0 0 1-.964-.81l-1.432-7.414c-1.126-5.851-26.75-144.894 46.557-283.13 77.187-145.557 180.247-189.222 184.596-191.01l3.53-1.448a1 1 0 0 1 .758 0l3.529 1.444c4.367 1.784 107.86 45.375 185.095 191.013 73.306 138.24 47.682 277.28 46.556 283.13l-1.432 7.415a1 1 0 0 1-.962.81l-7.548.138c-.575.01-58.17 1.346-111.492 21.094-63.59 23.552-106.702 62.726-107.13 63.12l-6.342 5.834a1 1 0 0 1-1.358-.003m.684-2.094 5.663-5.21c.432-.396 43.835-39.835 107.788-63.522 53.637-19.864 111.57-21.208 112.149-21.219l6.739-.122 1.277-6.618c.469-2.438 5.211-28.108 5.211-67.228 0-54.322-9.143-134.58-51.57-214.587-76.9-145.006-179.745-188.326-184.086-190.1l-3.149-1.289-3.15 1.292c-4.322 1.777-106.737 45.171-183.59 190.097-42.427 80.004-51.57 160.262-51.57 214.585 0 39.122 4.742 64.792 5.211 67.23l1.278 6.617 6.738.123c.58.011 58.534 1.363 112.145 21.218 64.36 23.837 106.846 63.09 107.277 63.493zm-5.64-5.24-.001-.001" style="fill:#231f20;fill-opacity:1;fill-rule:nonzero;stroke:none" transform="matrix(1.33333 0 0 -1.33333 -.667 1119.333)"></path><path d="m484.89 363.786-397.565-.01a1.002 1.002 0 0 1-.952-1.308c7.349-22.75 16.58-44.663 27.435-65.133 66.35-125.12 154.608-172.595 171.626-180.842.275-.133.595-.133.87 0 17.098 8.25 105.75 55.737 172.094 180.842 10.873 20.502 20.106 42.419 27.444 65.144.098.304.045.637-.143.896-.188.258-.489.411-.808.411m-1.406-2c-7.232-22.142-16.247-43.513-26.854-63.514-65.552-123.612-152.826-171.037-170.76-179.764-17.854 8.727-104.738 56.14-170.297 179.764-10.59 19.971-19.602 41.337-26.845 63.503zM285.249 645.171c-14.142-11.847-52.833-41.552-106.558-61.448-45.253-16.762-91.857-20.914-109.794-21.922a1 1 0 0 1-.935-.863c-1.299-9.51-3.478-29.403-3.478-55.78 0-42.684 5.493-84.405 16.327-124.002a1 1 0 0 1 .964-.736l408.671-.001a1 1 0 0 1 .965.736c10.823 39.58 16.31 81.3 16.31 124.004 0 26.356-2.181 46.26-3.482 55.779a1 1 0 0 1-.935.863c-17.936 1.008-64.54 5.16-109.793 21.922-53.737 19.901-92.717 49.604-106.982 61.45a1 1 0 0 1-1.28-.001m-105.863-63.324c53.287 19.734 91.822 49.035 106.508 61.263 14.808-12.224 53.624-41.525 106.921-61.263 44.873-16.62 90.984-20.905 109.547-21.992 1.302-9.735 3.36-29.12 3.36-54.697 0-42.262-5.409-83.55-16.053-122.74l-407.117.001c-10.655 39.207-16.068 80.495-16.068 122.74 0 25.594 2.054 44.969 3.355 54.696 18.563 1.087 64.675 5.372 109.547 21.992" style="fill:#231f20;fill-opacity:1;fill-rule:nonzero;stroke:none" transform="matrix(1.33333 0 0 -1.33333 -.667 1119.333)" data-source="https://football-logos.cc"></path><!-- source: https://football-logos.cc --></svg>