<svg xmlns="http://www.w3.org/2000/svg" xml:space="preserve" viewBox="0 0 719.77 719.77"><!-- Source: https://football-logos.cc --><path d="M359.885 0C161.443 0 0 161.445 0 359.887 0 558.327 161.443 719.77 359.885 719.77S719.77 558.327 719.77 359.887C719.771 161.445 558.326 0 359.885 0" style="fill:#fff;fill-opacity:1;fill-rule:nonzero;stroke:none;stroke-width:1.33333325" data-source="https://football-logos.cc"></path><path d="M359.885 139.422c-121.564 0-220.463 98.9-220.463 220.465 0 121.562 98.899 220.46 220.463 220.46 121.562 0 220.465-98.898 220.465-220.46 0-121.565-98.903-220.465-220.465-220.465" style="fill:#519cdb;fill-opacity:1;fill-rule:nonzero;stroke:none;stroke-width:1.33333325"></path><path d="M320.223 373.64v4.913c0 .115.101.217.216.217h59.641a.223.223 0 0 0 .217-.217v-4.913a.22.22 0 0 0-.07-.16c-4.329-.009-9.848.861-15.318-4.471-4.327-4.219-7.395-9.262-7.455-16.47V159.043h-8.527c-3.975 0-6.277 1.422-10.267 6.338L200.963 333.755l-.382.471a1.618 1.618 0 0 1-2.879-1.018V188.419c.05-5.926 2.624-11.926 6.889-16.066 4.458-4.327 11.97-4.88 16.182-4.832.157-.083.2-.136.2-.215v-4.914a.22.22 0 0 0-.218-.216h-59.639c-.115 0-.217.1-.217.216v4.914c0 .079.043.132.07.158 4.328.01 9.847-.861 15.317 4.472 4.327 4.22 7.395 9.262 7.455 16.47V352.41c0 1.377-.657 3.219-1.53 4.285l-18.055 22.073 53.125.003c.52 0 1.418-.426 1.746-.829L340.42 229.5l.227-.264a1.621 1.621 0 0 1 2.846 1.06v122.229c-.05 5.926-2.625 11.927-6.89 16.067-4.456 4.327-11.97 4.879-16.181 4.831-.156.082-.2.137-.2.217" style="fill:#fff;fill-opacity:1;fill-rule:nonzero;stroke:none" transform="matrix(1.33333 0 0 -1.33333 -.667 719.103)" data-source="https://football-logos.cc"></path><path d="M89.47 351.663q5.4-1.913 7.39-7.403 2.057-5.63-.403-12.575-2.791-7.882-8.314-10.828-5.041-2.69-11.405-.862l2.284 9.97q7.627-2.196 9.82 3.995.991 2.8.253 4.95-.737 2.148-2.92 2.92-3.425 1.214-10.026-2.68a4325 4325 0 0 0-12.11-7.356q-7.373-3.66-12.6-1.808-5.19 1.838-7.29 7.569-2.102 5.73.276 12.447 2.392 6.75 7.525 9.49 4.621 2.492 10.175 1.15l-2.39-10.162q-6.41 1.842-8.221-3.272-.895-2.525-.025-4.466.771-1.79 2.777-2.5 3.669-1.3 10.181 2.57a3103 3103 0 0 1 11.958 7.263q7.392 3.597 13.066 1.588M105.407 382.453q5.67-3.243 7.068-8.482 1.517-5.77-2.599-12.967-8.106-14.172-20.908-6.847L65.37 367.654q-5.35 3.06-6.31 8.66t2.975 12.478q3.825 6.688 9.364 8.463 5.19 1.682 10.41-1.305zm-3.956-10.334-25.708 14.704q-4.777 2.734-7.484-1.997-2.723-4.762 2.054-7.495l25.708-14.705q4.81-2.752 7.534 2.01 2.704 4.73-2.104 7.483M129.007 410.883q4.988-4.227 5.41-9.635.442-5.955-4.918-12.278-10.557-12.454-21.808-2.917L86.955 403.63q-4.702 3.985-4.624 9.666t5.202 11.725q4.982 5.878 10.751 6.613 5.41.706 9.998-3.185l3.89-3.297-7.07-8.341q-.478.457-1.601 1.517a29 29 0 0 1-1.602 1.517q-5.29 4.484-8.962.15-3.557-4.193.643-7.752l22.593-19.15q4.226-3.584 7.773.601 3.525 4.157-.713 7.748l-5.526 4.684 7.07 8.342zM149.929 411.135l-8.055-7.275-35.563 39.371 8.055 7.275zM176.09 430.394l-22.704-15.95-30.497 43.414 22.705 15.95 4.424-6.297-14.023-9.85 7.961-11.334 10.14 7.124 4.424-6.297-10.14-7.124 9.125-12.991 14.023 9.85zM181.605 483.649l-9.851-4.929 20.293-40.567-9.49-4.747-20.293 40.568-9.852-4.93-3.443 6.883 29.194 14.604zM231.013 452.08l-10.334-3.31-5.605 10.283-10.146-3.249 1.245-11.678-9.94-3.183-5.377 53.987 13.213 4.23zm-19.471 13.752-10.215 19.982-.629-.2 3.118-22.256zM310.342 464.11q-.656-5.693-5.563-8.858-5.026-3.265-12.347-2.42-8.305.959-12.412 5.682-3.749 4.311-3.391 10.923l10.227.003q-.432-7.924 6.09-8.676 2.952-.34 4.881.86t2.195 3.5q.416 3.608-4.855 9.171a4233 4233 0 0 0-9.878 10.159q-5.217 6.367-4.58 11.876.63 5.471 5.747 8.8 5.115 3.328 12.193 2.512 7.114-.821 10.933-5.211 3.463-3.947 3.397-9.66l-10.44.058q.361 6.658-5.028 7.28-2.66.307-4.358-.975-1.573-1.152-1.816-3.265-.446-3.867 4.782-9.349 4.875-5.034 9.753-10.031 5.16-6.399 4.47-12.38M352.845 478.114q-1.89-6.18-5.91-9.406-5.17-4.101-12.435-1.88l-6.985 2.137-6.302-20.604-10.147 3.104 15.518 50.734 14.901-4.557q8.873-2.714 11.412-7.946 2.127-4.454-.052-11.582m-10.423 3.031q1.135 3.714.676 5.465-.705 2.706-4.976 4.014l-3.641 1.113-4.739-15.491 3.991-1.221q4.166-1.276 6.312.983 1.197 1.28 2.377 5.137M375.48 439.62q-2.968-5.817-8.133-7.466-5.693-1.79-13.076 1.98-14.542 7.421-7.837 20.557l12.357 24.213q2.8 5.49 8.349 6.716 5.548 1.226 12.606-2.377 6.861-3.502 8.9-8.95 1.927-5.101-.807-10.46zm-10.511 3.46 13.464 26.379q2.501 4.903-2.352 7.38-4.887 2.495-7.388-2.41L355.23 448.05q-2.52-4.935 2.367-7.428 4.853-2.478 7.372 2.458M398.223 405.675l-8.737 6.728 8.427 21.726-4.02 3.096-13.638-17.714-8.407 6.474 32.369 42.036 12.347-9.507q7.408-5.704 7.92-11.47.42-4.863-4.146-10.793-5.753-7.47-13.266-6.272zm13.709 37.448q2.378 3.09 2.284 5.187-.106 2.383-3.269 4.818l-3.016 2.323-9.341-12.129 3.307-2.547q3.394-2.614 6.077-1.413 1.598.7 3.958 3.76M450.022 416.051l-7.55 8.022-33.032-31.087-7.272 7.727 33.031 31.087-7.549 8.023 5.604 5.273 22.372-23.772zM422.51 376.528l-6.518 8.68 42.426 31.856 6.518-8.68zM487.062 371.978l-52.135-15.662-5.503 9.665 39.986 37 5.139-9.027-24.15-21.057q-4.361-3.833-9.862-6.925 6.666 3.417 11.026 4.884l30.341 10.18zM451.063 317.238l-3.787 10.169 10.01 6.078-3.719 9.983-11.607-1.788-3.644 9.78 53.677 7.892 4.843-13zm12.83 20.092 19.484 11.135-.23.62-22.085-4.154zM97.563 123.401q-5.287-3.844-10.642-2.975-5.89.98-10.765 7.683-9.602 13.205 2.326 21.878l21.985 15.99q4.984 3.624 10.486 2.204 5.5-1.42 10.161-7.83 4.532-6.23 3.88-12.01-.593-5.422-5.459-8.961l-4.124-3-6.432 8.845q.559.355 1.853 1.197 1.23.744 1.853 1.196 5.608 4.08 2.268 8.674-3.235 4.446-7.685 1.209l-23.954-17.42q-4.48-3.257-1.253-7.695 3.202-4.408 7.696-1.14l5.858 4.26 6.433-8.843zM117.07 85.102l-7.79 7.553 6.427 9.79-7.647 7.417-9.713-6.602-7.493 7.265 45.079 30.19 9.959-9.658zm2.952 23.654 12.808 18.427-.474.46-18.158-13.24zM145.343 65.017 123.244 80.68l30.68 43.285 8.656-6.136-26.23-37.007 13.443-9.527zM186.209 59.346q-2.875-5.871-8.014-7.609-5.662-1.89-13.11 1.755-14.662 7.176-8.179 20.423l11.95 24.417q2.709 5.536 8.237 6.855 5.525 1.317 12.643-2.166 6.921-3.385 9.048-8.8 2.013-5.069-.633-10.474l-2.24-4.579-9.823 4.807q.328.575 1.077 1.924.74 1.233 1.078 1.924 3.049 6.23-2.054 8.728-4.939 2.415-7.357-2.528l-13.02-26.601q-2.436-4.977 2.492-7.388 4.893-2.395 7.336 2.592l3.184 6.507 9.821-4.807zM199.997 40.835 189.7 44.269l16.782 50.33 10.297-3.433zM244.425 44.628q-1.212-6.416-5.705-9.452-4.958-3.321-13.104-1.782-16.043 3.028-13.306 17.52l5.042 26.713q1.141 6.055 6.122 8.794 4.977 2.737 12.764 1.267 7.57-1.428 11.06-6.083 3.285-4.351 2.169-10.264zm-11.06.36 5.493 29.104q1.022 5.409-4.335 6.419-5.39 1.017-6.41-4.39l-5.493-29.103q-1.028-5.447 4.361-6.463 5.356-1.011 6.384 4.433M326.98 36.475l-9.746-1.64-17.72 26.757q-1.998 3.012-3.166 5.311 2.117-5.451 2.384-7.043l4.604-27.363-9.744-1.639-8.803 52.319 9.387 1.579 18.623-28.996q1.247-1.953 2.943-5.246-2.065 5.195-2.345 6.86l-4.963 29.781 9.744 1.639zM369.688 51.118l-10.19-3.73-6.021 10.047-10.004-3.663 1.72-11.617-9.8-3.587-7.583 53.721 13.029 4.769zM349.67 64.062 338.647 83.61l-.62-.227 4.026-22.108zM386.04 103.589q3.223-5.604 2.833-10.742-.536-6.578-7.122-10.367l-6.332-3.641 10.743-18.677-9.198-5.29-26.452 45.99 13.508 7.77q8.041 4.625 13.598 2.907 4.706-1.49 8.421-7.95m-9.333-5.543q-1.935 3.366-3.53 4.226-2.457 1.336-6.328-.891l-3.303-1.9 8.078-14.043 3.62 2.083q3.775 2.171 3.592 5.28-.119 1.75-2.129 5.245M428.312 107.355q4.208-4.994 3.722-10.395-.557-5.94-6.897-11.283-12.482-10.524-21.988.754l-17.521 20.785q-3.971 4.71-2.95 10.3 1.024 5.589 7.082 10.696 5.89 4.965 11.703 4.73 5.45-.204 9.328-4.803zm-7.266-8.345-19.089 22.644q-3.548 4.207-7.714.696-4.195-3.537-.647-7.744l19.09-22.645q3.57-4.237 7.764-.7 4.167 3.51.596 7.749M462.385 126.024l-17.63-20.564-40.278 34.531 6.905 8.056 34.438-29.524 10.723 12.51zM471.589 140.097l-6.084-8.988-43.935 29.743 6.085 8.988zM220.01 488.53c.221-.338.41-.284.419.12l.323 15.267c.009.405-.302.644-.69.533l-8.11-2.324c-.389-.111-.525-.48-.304-.818z" style="fill:#231f20;fill-opacity:1;fill-rule:nonzero;stroke:none" transform="matrix(1.33333 0 0 -1.33333 -.667 719.103)"></path><path d="M359.885 0C161.443 0 0 161.445 0 359.887 0 558.327 161.443 719.77 359.885 719.77S719.77 558.327 719.77 359.887C719.771 161.445 558.326 0 359.885 0m0 8.64c193.677 0 351.246 157.569 351.246 351.247 0 193.677-157.57 351.244-351.246 351.244-193.679 0-351.246-157.567-351.246-351.244S166.206 8.64 359.885 8.64" style="fill:#000;fill-opacity:1;fill-rule:nonzero;stroke:none;stroke-width:1.33333325" data-source="https://football-logos.cc"></path><!-- source: https://football-logos.cc --></svg>