<svg xmlns="http://www.w3.org/2000/svg" xml:space="preserve" viewBox="0 0 640 800"><!-- Source: https://football-logos.cc --><path d="M237.801 1.827c-3.748 3.921-13.252 11.543-19.88 15.944-13.237 8.788-27.913 15.133-59.977 25.93C116.41 57.69 81.73 70.539 67.436 77.237c-40.027 18.756-57.897 43.7-64.356 89.828C.608 184.721.34 210.307.563 406.012L.785 599.5h479.43l.222-193.488c.224-195.705-.045-221.29-2.517-238.948-7.202-51.432-28.176-76.392-81.776-97.315-10.826-4.226-59.681-21.675-70.437-25.158-40.525-13.12-60.971-23.376-79.056-39.656-3.32-2.99-6.17-5.435-6.331-5.435S239.025.547 237.8 1.827" style="fill:#fd5;fill-opacity:1;stroke-width:.99999994" transform="matrix(1.33333 0 0 -1.33333 -.667 799.333)" data-source="https://football-logos.cc"></path><path d="M237.835 5.548c-3.701 3.872-13.087 11.4-19.632 15.745-13.07 8.678-27.563 14.943-59.227 25.606C117.96 60.712 83.715 73.4 69.6 80.014 30.073 98.536 12.426 123.168 6.05 168.72c-2.442 17.436-2.708 42.702-2.486 235.96l.219 192.57h473.436l.22-192.57c.22-193.258-.045-218.524-2.486-235.96-7.111-50.79-27.824-75.438-80.753-96.1-10.691-4.173-58.936-21.404-69.557-24.843-40.018-12.956-60.21-23.084-78.068-39.16-3.28-2.952-6.093-5.367-6.252-5.367-.16 0-1.279 1.034-2.487 2.298" style="fill:#fee46e;fill-opacity:1;stroke-width:1" transform="matrix(1.33333 0 0 -1.33333 -.667 799.333)"></path><path d="M237.869 9.269c-3.655 3.823-12.922 11.255-19.384 15.545-12.905 8.568-27.214 14.755-58.477 25.283C119.511 63.734 85.7 76.262 71.763 82.793 32.737 101.08 15.313 125.4 9.016 170.375c-2.41 17.216-2.673 42.162-2.454 232.974L6.778 593.5h467.444l.216-190.15c.218-190.813-.044-215.76-2.454-232.975-7.021-50.146-27.471-74.483-79.731-94.882-10.555-4.12-58.189-21.134-68.677-24.53-39.51-12.791-59.446-22.791-77.079-38.664C243.26 9.385 240.482 7 240.324 7c-.157 0-1.262 1.021-2.455 2.269" style="fill:#ffe98c;fill-opacity:1;stroke-width:1" transform="matrix(1.33333 0 0 -1.33333 -.667 799.333)"></path><path d="M237.903 12.99c-3.608 3.774-12.756 11.11-19.136 15.346-12.74 8.458-26.865 14.565-57.727 24.958-39.978 13.463-73.356 25.83-87.114 32.277C35.4 103.624 18.2 127.632 11.984 172.03c-2.38 16.994-2.64 41.62-2.423 229.987l.214 187.732h461.45l.214-187.732c.214-188.367-.043-212.993-2.423-229.987-6.93-49.504-27.119-73.528-78.709-93.667-10.42-4.067-57.443-20.862-67.796-24.214-39.004-12.628-58.684-22.5-76.09-38.169-3.197-2.877-5.94-5.231-6.095-5.231s-1.246 1.008-2.423 2.24" style="fill:#fee46e;fill-opacity:1;stroke-width:1" transform="matrix(1.33333 0 0 -1.33333 -.667 799.333)"></path><path d="M237.936 16.71c-3.56 3.726-12.59 10.967-18.887 15.148-12.574 8.348-26.516 14.376-56.977 24.634C122.613 69.78 89.67 81.986 76.09 88.349c-38.025 17.819-55.002 41.515-61.138 85.337-2.348 16.774-2.604 41.08-2.39 227L12.77 586H468.23l.21-185.313c.212-185.92-.042-210.227-2.39-227.001-6.841-48.86-26.767-72.573-77.687-92.45-10.285-4.014-56.697-20.591-66.916-23.9-38.498-12.464-57.922-22.207-75.103-37.673-3.154-2.84-5.86-5.163-6.014-5.163s-1.23.995-2.393 2.21" style="fill:#fd5;fill-opacity:1;stroke-width:.99999994" transform="matrix(1.33333 0 0 -1.33333 -.667 799.333)"></path><path d="M237.97 20.432c-3.514 3.676-12.424 10.822-18.638 14.947-12.41 8.239-26.168 14.187-56.228 24.31-38.94 13.113-71.45 25.159-84.852 31.439-37.524 17.583-54.278 40.968-60.333 84.213-2.318 16.554-2.57 40.54-2.36 224.014l.209 182.895h449.464l.209-182.895c.208-183.474-.042-207.46-2.36-224.014-6.751-48.217-26.415-71.618-76.665-91.233-10.15-3.962-55.95-20.32-66.035-23.585-37.992-12.3-57.16-21.915-74.115-37.178-3.113-2.802-5.784-5.095-5.935-5.095s-1.214.982-2.36 2.182" style="fill:#2a7fff;fill-opacity:1;stroke-width:1" transform="matrix(1.33333 0 0 -1.33333 -.667 799.333)"></path><path d="M106.25 439c-1.496.007-2.92-.185-4.84-.573-2.588-.523-5.255-1.238-5.928-1.59s-1.787-2.606-2.476-5.009c-2.587-9.032-8.477-15.222-15.076-15.842-3.494-.329-6.993.66-6.993 1.976 0 .329 1.526 1.669 3.388 2.978 3.96 2.783 7.014 8.176 6.271 11.073-1.234 4.814-10.866 6.495-17.014 2.969-4.962-2.846-6.86-6.397-6.832-12.785.036-8.242 4.164-14.22 12.267-17.764 6.019-2.633 12.64-2.368 19.15.769 2.834 1.365 8.252 3.867 8.371 3.723.12-.143-2.36-6.744-1.844-8.81.93-3.482 6.042-7.907 11.556-9.115 5.514 1.208 10.628 5.633 11.558 9.114.516 2.067-1.964 8.668-1.845 8.811.12.144 5.536-2.358 8.37-3.723 6.51-3.137 13.131-3.402 19.15-.77 8.103 3.545 12.231 9.523 12.267 17.765.028 6.388-1.87 9.939-6.832 12.785-6.148 3.526-15.78 1.845-17.014-2.97-.743-2.896 2.312-8.289 6.272-11.072 1.863-1.31 3.387-2.65 3.387-2.978 0-1.317-3.499-2.305-6.993-1.976-6.6.62-12.49 6.81-15.076 15.842-.689 2.403-1.803 4.656-2.476 5.008s-3.34 1.068-5.928 1.591c-1.92.388-3.344.58-4.84.573" style="fill:#fec459;fill-opacity:1;stroke-width:1" transform="matrix(1.33333 0 0 -1.33333 357.333 799.333)"></path><path d="M101.21 567.765c-3.345-1.795-8.308-8.918-10.664-15.299-5.843-15.825-7.238-27.125-4.689-37.958.81-3.44 1.222-6.254.919-6.254-.304 0-2.487 1.181-4.853 2.625-6.529 3.646-13.473 5.401-20.103 5.156-6.223-.23-12.168-2.223-17.232-6.07-7.293-5.647-11.186-14.1-11.086-24.074.96-7.944 4.522-14.698 9.503-18.907 5.598-3.77 11.381-5.09 16.433-3.904 4.569 1.073 8.54 4.195 11.234 9.408 1.8 3.621 1.654 11.29-.3 15.767-.854 1.956-1.204 3.908-1.204 3.908s5.35-.622 9.769-2.748c7.784-3.746 13.943-12.343 15.061-21.022.265-2.051.812-5.622 1.217-6.143H105.5v105.894c-1.482 1.274-3.138.238-4.29-.379" style="fill:#fd5;fill-opacity:1;stroke-width:.99999994" transform="matrix(1.33333 0 0 -1.33333 357.333 799.333)"></path><path d="M111.29 567.765c3.345-1.795 8.308-8.918 10.664-15.299 5.843-15.825 7.238-27.125 4.689-37.958-.81-3.44-1.222-6.254-.919-6.254.304 0 2.487 1.181 4.853 2.625 6.529 3.646 13.473 5.401 20.103 5.156 6.223-.23 12.168-2.223 17.233-6.07 7.292-5.647 11.185-14.1 11.085-24.074-.96-7.944-4.522-14.698-9.503-18.907-5.598-3.77-11.381-5.09-16.433-3.904-4.569 1.073-8.54 4.195-11.234 9.408-1.8 3.621-1.654 11.29.3 15.767.854 1.956 1.204 3.908 1.204 3.908s-5.35-.622-9.769-2.748c-7.784-3.746-13.943-12.343-15.061-21.022-.265-2.051-.812-5.622-1.217-6.143H107v105.894c1.482 1.274 3.138.238 4.29-.379" style="fill:#fec459;fill-opacity:1;stroke-width:.99999994" transform="matrix(1.33333 0 0 -1.33333 357.333 799.333)"></path><path d="M106.25 460.75c-15.054 0-15.85-.343-19.333-5.641-4.175-6.352-5.113-12.576-2.33-15.455 1.368-1.414 2.227-1.588 6.207-1.267 2.54.205 7.073.84 10.073 1.41 2.273.433 3.793.65 5.383.65s3.11-.216 5.383-.65c3-.57 7.532-1.205 10.073-1.41 3.98-.321 4.839-.147 6.206 1.267 2.784 2.88 1.846 9.103-2.329 15.455-3.482 5.298-4.28 5.641-19.333 5.641" style="fill:#fec459;fill-opacity:1;stroke-width:1" transform="matrix(1.33333 0 0 -1.33333 357.333 799.333)"></path><path d="M106.25 439c-1.496.007-2.92-.185-4.84-.573-2.588-.523-5.255-1.238-5.928-1.59s-1.787-2.606-2.476-5.009c-2.587-9.032-8.477-15.222-15.076-15.842-3.494-.329-6.993.66-6.993 1.976 0 .329 1.526 1.669 3.388 2.978 3.96 2.783 7.014 8.176 6.271 11.073-1.234 4.814-10.866 6.495-17.014 2.969-4.962-2.846-6.86-6.397-6.832-12.785.036-8.242 4.164-14.22 12.267-17.764 6.019-2.633 12.64-2.368 19.15.769 2.834 1.365 8.252 3.867 8.371 3.723.12-.143-2.36-6.744-1.844-8.81.93-3.482 6.042-7.907 11.556-9.115 5.514 1.208 10.628 5.633 11.558 9.114.516 2.067-1.964 8.668-1.845 8.811.12.144 5.536-2.358 8.37-3.723 6.51-3.137 13.131-3.402 19.15-.77 8.103 3.545 12.231 9.523 12.267 17.765.028 6.388-1.87 9.939-6.832 12.785-6.148 3.526-15.78 1.845-17.014-2.97-.743-2.896 2.312-8.289 6.272-11.072 1.863-1.31 3.387-2.65 3.387-2.978 0-1.317-3.499-2.305-6.993-1.976-6.6.62-12.49 6.81-15.076 15.842-.689 2.403-1.803 4.656-2.476 5.008s-3.34 1.068-5.928 1.591c-1.92.388-3.344.58-4.84.573" style="fill:#fd5;fill-opacity:1;stroke-width:1" transform="matrix(1.33333 0 0 -1.33333 357.333 799.333)"></path><path d="M101.21 566.265c-3.345-1.795-7.352-9.875-9.707-16.255-5.843-15.825-6.422-26.032-3.873-36.865.81-3.44 1.086-7.757.782-7.757-.303 0-3.306 2-5.672 3.444-6.529 3.646-12.79 5.948-19.42 5.703-6.223-.23-12.168-2.223-17.232-6.07-7.293-5.647-11.186-11.1-11.086-21.074.96-7.944 4.522-14.698 9.503-18.907 5.598-3.77 8.381-5.09 13.433-3.904 4.569 1.073 8.54 4.195 11.234 9.408 1.8 3.621 1.654 9.79-.3 14.267-.854 1.956-2.704 5.408-2.704 5.408s8.35-.622 12.769-2.748c7.784-3.746 15.443-13.843 16.561-22.522.265-2.051.812-4.122 1.217-4.643H104l-.544 39.255.544 63.639c-1.482 1.274-1.638.238-2.79-.379" style="fill:#fee46e;fill-opacity:1;stroke-width:.99999994" transform="matrix(1.33333 0 0 -1.33333 357.333 799.333)"></path><path d="M111.29 567.765c3.345-1.795 8.308-8.918 10.664-15.299 5.843-15.825 7.238-27.125 4.689-37.958-.81-3.44-1.222-6.254-.919-6.254.304 0 2.487 1.181 4.853 2.625 6.529 3.646 13.473 5.401 20.103 5.156 6.223-.23 12.168-2.223 17.233-6.07 7.292-5.647 11.185-14.1 11.085-24.074-.96-7.944-4.522-14.698-9.503-18.907-5.598-3.77-11.381-5.09-16.433-3.904-4.569 1.073-8.54 4.195-11.234 9.408-1.8 3.621-1.654 11.29.3 15.767.854 1.956 1.204 3.908 1.204 3.908s-5.35-.622-9.769-2.748c-7.784-3.746-13.943-12.343-15.061-21.022-.265-2.051-.812-5.622-1.217-6.143H107v105.894c1.482 1.274 3.138.238 4.29-.379" style="fill:#fd5;fill-opacity:1;stroke-width:.99999994" transform="matrix(1.33333 0 0 -1.33333 357.333 799.333)"></path><path d="M106.25 460.75c-15.054 0-15.85-.343-19.333-5.641-4.175-6.352-5.113-12.576-2.33-15.455 1.368-1.414 2.227-1.588 6.207-1.267 2.54.205 7.073.84 10.073 1.41 2.273.433 3.793.65 5.383.65s3.11-.216 5.383-.65c3-.57 7.532-1.205 10.073-1.41 3.98-.321 4.839-.147 6.206 1.267 2.784 2.88 1.846 9.103-2.329 15.455-3.482 5.298-4.28 5.641-19.333 5.641" style="fill:#fd5;fill-opacity:1;stroke-width:1" transform="matrix(1.33333 0 0 -1.33333 357.333 799.333)"></path><path d="M106.25 459.25c-15.054 0-14.35 1.157-17.833-4.141-4.175-6.352-5.113-12.576-2.33-15.455 1.368-1.414.727-.088 4.707.233 2.54.205 7.073.84 10.073 1.41 2.273.433 3.793.65 5.383.65s3.11-.217 5.383-.65c3-.57 7.532-1.205 10.073-1.41 3.98-.321 3.339-1.647 4.706-.233 2.784 2.88 1.846 9.103-2.329 15.455-3.482 5.298-2.78 4.141-17.833 4.141" style="fill:#fee46e;fill-opacity:1;stroke-width:1" transform="matrix(1.33333 0 0 -1.33333 357.333 799.333)"></path><path d="M106.25 457.75c-15.054 0-11.35 2.657-14.833-2.641-4.175-6.352-6.613-9.576-3.83-12.455 1.368-1.414-.773-1.588 3.207-1.267 2.54.205 7.073.84 10.073 1.41 2.273.434 3.793.65 5.383.65s3.11-.216 5.383-.65c3-.57 7.532-1.205 10.073-1.41 3.98-.321 1.839-.147 3.206 1.267 2.784 2.88 1.846 6.103-2.329 12.455-3.482 5.298-1.28 2.641-16.333 2.641" style="fill:#ffe98c;fill-opacity:1;stroke-width:1" transform="matrix(1.33333 0 0 -1.33333 357.333 799.333)"></path><path d="M102.3 563.396c-3.345-1.796-5.026-7.006-7.382-13.386-5.842-15.825-7.924-25.896-5.375-36.728.81-3.44 1.086-11.447.782-11.447-.303 0-5.63 3.094-7.995 4.538-6.529 3.646-12.79 5.948-19.42 5.703-6.223-.23-7.796 1.056-12.86-2.79-7.292-5.648-11.185-11.102-11.086-21.076.96-7.943 4.522-14.697 9.504-18.906 5.597-3.77 3.052-3.45 8.104-2.265 4.569 1.073 8.54 4.196 11.234 9.408 1.8 3.622-.67 7.468-2.624 11.945-.853 1.955-1.884 7.184-1.884 7.184s13.817-1.168 18.235-3.294c7.784-3.746 15.716-14.8 16.835-23.48.264-2.05.675-2.071 1.08-2.593l2.639.137-.817 39.118.544 48.473z" style="fill:#ffe98c;fill-opacity:1;stroke-width:.99999994" transform="matrix(1.33333 0 0 -1.33333 357.333 799.333)"></path><path d="M111.29 566.265c3.345-1.795 7.352-9.875 9.707-16.255 5.843-15.825 6.422-26.032 3.873-36.865-.81-3.44-1.086-7.757-.782-7.757.303 0 3.306 2 5.672 3.444 6.529 3.646 12.79 5.948 19.42 5.703 6.223-.23 12.168-2.223 17.232-6.07 7.293-5.647 11.186-11.1 11.086-21.074-.96-7.944-4.522-14.698-9.503-18.907-5.598-3.77-8.381-5.09-13.433-3.904-4.569 1.073-8.54 4.195-11.234 9.408-1.8 3.621-1.654 9.79.3 14.267.854 1.956 2.704 5.408 2.704 5.408s-8.35-.622-12.769-2.748c-7.784-3.746-15.443-13.843-16.561-22.522-.265-2.051-.812-4.122-1.217-4.643H108.5l.544 39.255-.544 63.639c1.482 1.274 1.638.238 2.79-.379" style="fill:#fee46e;fill-opacity:1;stroke-width:.99999994" transform="matrix(1.33333 0 0 -1.33333 357.333 799.333)"></path><path d="M110.2 563.396c3.345-1.796 5.026-7.006 7.382-13.386 5.842-15.825 7.924-25.896 5.375-36.728-.81-3.44-1.086-11.447-.782-11.447.303 0 5.63 3.094 7.995 4.538 6.529 3.646 12.79 5.948 19.42 5.703 6.223-.23 7.796 1.056 12.86-2.79 7.292-5.648 11.185-11.102 11.086-21.076-.96-7.943-4.522-14.697-9.504-18.906-5.597-3.77-3.052-3.45-8.104-2.265-4.569 1.073-8.54 4.196-11.234 9.408-1.8 3.622.67 7.468 2.624 11.945.853 1.955 1.884 7.184 1.884 7.184s-13.817-1.168-18.235-3.294c-7.784-3.746-15.716-14.8-16.835-23.48-.264-2.05-.675-2.071-1.08-2.593l-2.639.137.817 39.118-.544 48.473z" style="fill:#ffe98c;fill-opacity:1;stroke-width:.99999994" transform="matrix(1.33333 0 0 -1.33333 357.333 799.333)"></path><path d="M106.25 437.5c-1.496.007-2.92-.185-4.84-.573-2.588-.523-5.255-1.238-5.928-1.59s-.287-2.606-.976-5.009c-2.587-9.032-9.977-15.222-16.576-15.842-3.494-.329-8.493 2.16-8.493 3.476 0 .329 1.526 1.669 3.388 2.978 3.96 2.783 7.014 6.676 6.271 9.573-1.234 4.814-7.866 6.495-14.014 2.969-4.962-2.846-6.86-4.897-6.832-11.285.036-8.242 2.664-12.72 10.767-16.264 6.019-2.633 12.64-2.368 19.15.769 2.834 1.365 9.752 3.867 9.871 3.723.12-.143-2.36-8.244-1.844-10.31.93-3.482 4.542-6.407 10.056-7.615 5.514 1.208 9.128 4.133 10.058 7.614.516 2.067-1.964 10.168-1.845 10.311.12.144 7.036-2.358 9.87-3.723 6.51-3.137 13.131-3.402 19.15-.77 8.103 3.545 10.731 8.023 10.767 16.265.028 6.388-.37 8.439-5.332 11.285-6.148 3.526-14.28 3.345-15.514-1.47-.743-2.896.812-6.789 4.772-9.572 1.863-1.31 4.887-4.15 4.887-4.478 0-1.317-4.999-3.805-8.493-3.476-6.6.62-13.99 6.81-16.576 15.842-.689 2.403-.303 4.656-.976 5.008s-3.34 1.068-5.928 1.591c-1.92.388-3.344.58-4.84.573" style="fill:#fee46e;fill-opacity:1;stroke-width:1" transform="matrix(1.33333 0 0 -1.33333 357.333 799.333)"></path><path d="M106.25 436c-1.496.007-2.92-.185-4.84-.573-2.588-.523-3.755-1.238-4.428-1.59s-.287-2.606-.976-5.009c-2.587-9.032-12.977-15.222-19.576-15.842-3.494-.329-8.493 3.66-8.493 4.976 0 .329 3.026 3.169 4.888 4.478 3.96 2.783 5.514 5.176 4.771 8.073-1.234 4.814-6.366 4.995-12.514 1.469-4.962-2.846-5.36-3.397-5.332-9.785.036-8.242 1.164-11.22 9.267-14.764 6.019-2.633 12.64-2.368 19.15.769 2.834 1.365 11.252 3.867 11.371 3.723.12-.143-2.36-9.744-1.844-11.81.93-3.482 3.042-4.907 8.556-6.115 5.514 1.208 7.628 2.633 8.558 6.114.516 2.067-1.964 11.668-1.845 11.811.12.144 8.536-2.358 11.37-3.723 6.51-3.137 13.131-3.402 19.15-.77 8.103 3.545 9.231 6.523 9.267 14.765.028 6.388 1.13 6.939-3.832 9.785-6.148 3.526-12.78 4.845-14.014.03-.743-2.896-.688-5.289 3.272-8.072 1.863-1.31 6.387-5.65 6.387-5.978 0-1.317-6.499-5.305-9.993-4.976-6.6.62-15.49 6.81-18.076 15.842-.689 2.403-.303 4.656-.976 5.008s-1.84 1.068-4.428 1.591c-1.92.388-3.344.58-4.84.573" style="fill:#ffe98c;fill-opacity:1;stroke-width:1" transform="matrix(1.33333 0 0 -1.33333 357.333 799.333)"></path><path d="M273.985 397v-8.215c6.37.281 16.421-.815 15.85-9.454v-97.102L201.731 396.9h-47.534l15.763-22.07V237.67c-1.095-8.592-10.004-8.78-17.21-9.454V220.1l27.448.1 26.815-.2v8.215c-6.37-.281-16.42.815-15.848 9.454v44.334c.004 25.901.297 60.253.66 60.474L289.97 220h21.107v80.946c.285 57.704.607 77.21 1.29 78.385 1.095 8.592 8.676 8.78 15.882 9.454v8.115l-27.45-.1z" style="fill:#fd5;fill-opacity:1;stroke-width:1" transform="matrix(1.33333 0 0 -1.33333 -.667 799.333)"></path><path d="M106.25 439c-1.496.007-2.92-.185-4.84-.573-2.588-.523-5.255-1.238-5.928-1.59s-1.787-2.606-2.476-5.009c-2.587-9.032-8.477-15.222-15.076-15.842-3.494-.329-6.993.66-6.993 1.976 0 .329 1.526 1.669 3.388 2.978 3.96 2.783 7.014 8.176 6.271 11.073-1.234 4.814-10.866 6.495-17.014 2.969-4.962-2.846-6.86-6.397-6.832-12.785.036-8.242 4.164-14.22 12.267-17.764 6.019-2.633 12.64-2.368 19.15.769 2.834 1.365 8.252 3.867 8.371 3.723.12-.143-2.36-6.744-1.844-8.81.93-3.482 6.042-7.907 11.556-9.115 5.514 1.208 10.628 5.633 11.558 9.114.516 2.067-1.964 8.668-1.845 8.811.12.144 5.536-2.358 8.37-3.723 6.51-3.137 13.131-3.402 19.15-.77 8.103 3.545 12.231 9.523 12.267 17.765.028 6.388-1.87 9.939-6.832 12.785-6.148 3.526-15.78 1.845-17.014-2.97-.743-2.896 2.312-8.289 6.272-11.072 1.863-1.31 3.387-2.65 3.387-2.978 0-1.317-3.499-2.305-6.993-1.976-6.6.62-12.49 6.81-15.076 15.842-.689 2.403-1.803 4.656-2.476 5.008s-3.34 1.068-5.928 1.591c-1.92.388-3.344.58-4.84.573" style="fill:#fec459;fill-opacity:1;stroke-width:1" transform="matrix(1.33333 0 0 -1.33333 178.333 1263.333)"></path><path d="M101.21 567.765c-3.345-1.795-8.308-8.918-10.664-15.299-5.843-15.825-7.238-27.125-4.689-37.958.81-3.44 1.222-6.254.919-6.254-.304 0-2.487 1.181-4.853 2.625-6.529 3.646-13.473 5.401-20.103 5.156-6.223-.23-12.168-2.223-17.232-6.07-7.293-5.647-11.186-14.1-11.086-24.074.96-7.944 4.522-14.698 9.503-18.907 5.598-3.77 11.381-5.09 16.433-3.904 4.569 1.073 8.54 4.195 11.234 9.408 1.8 3.621 1.654 11.29-.3 15.767-.854 1.956-1.204 3.908-1.204 3.908s5.35-.622 9.769-2.748c7.784-3.746 13.943-12.343 15.061-21.022.265-2.051.812-5.622 1.217-6.143H105.5v105.894c-1.482 1.274-3.138.238-4.29-.379" style="fill:#fd5;fill-opacity:1;stroke-width:.99999994" transform="matrix(1.33333 0 0 -1.33333 178.333 1263.333)"></path><path d="M111.29 567.765c3.345-1.795 8.308-8.918 10.664-15.299 5.843-15.825 7.238-27.125 4.689-37.958-.81-3.44-1.222-6.254-.919-6.254.304 0 2.487 1.181 4.853 2.625 6.529 3.646 13.473 5.401 20.103 5.156 6.223-.23 12.168-2.223 17.233-6.07 7.292-5.647 11.185-14.1 11.085-24.074-.96-7.944-4.522-14.698-9.503-18.907-5.598-3.77-11.381-5.09-16.433-3.904-4.569 1.073-8.54 4.195-11.234 9.408-1.8 3.621-1.654 11.29.3 15.767.854 1.956 1.204 3.908 1.204 3.908s-5.35-.622-9.769-2.748c-7.784-3.746-13.943-12.343-15.061-21.022-.265-2.051-.812-5.622-1.217-6.143H107v105.894c1.482 1.274 3.138.238 4.29-.379" style="fill:#fec459;fill-opacity:1;stroke-width:.99999994" transform="matrix(1.33333 0 0 -1.33333 178.333 1263.333)"></path><path d="M106.25 460.75c-15.054 0-15.85-.343-19.333-5.641-4.175-6.352-5.113-12.576-2.33-15.455 1.368-1.414 2.227-1.588 6.207-1.267 2.54.205 7.073.84 10.073 1.41 2.273.433 3.793.65 5.383.65s3.11-.216 5.383-.65c3-.57 7.532-1.205 10.073-1.41 3.98-.321 4.839-.147 6.206 1.267 2.784 2.88 1.846 9.103-2.329 15.455-3.482 5.298-4.28 5.641-19.333 5.641" style="fill:#fec459;fill-opacity:1;stroke-width:1" transform="matrix(1.33333 0 0 -1.33333 178.333 1263.333)"></path><path d="M106.25 439c-1.496.007-2.92-.185-4.84-.573-2.588-.523-5.255-1.238-5.928-1.59s-1.787-2.606-2.476-5.009c-2.587-9.032-8.477-15.222-15.076-15.842-3.494-.329-6.993.66-6.993 1.976 0 .329 1.526 1.669 3.388 2.978 3.96 2.783 7.014 8.176 6.271 11.073-1.234 4.814-10.866 6.495-17.014 2.969-4.962-2.846-6.86-6.397-6.832-12.785.036-8.242 4.164-14.22 12.267-17.764 6.019-2.633 12.64-2.368 19.15.769 2.834 1.365 8.252 3.867 8.371 3.723.12-.143-2.36-6.744-1.844-8.81.93-3.482 6.042-7.907 11.556-9.115 5.514 1.208 10.628 5.633 11.558 9.114.516 2.067-1.964 8.668-1.845 8.811.12.144 5.536-2.358 8.37-3.723 6.51-3.137 13.131-3.402 19.15-.77 8.103 3.545 12.231 9.523 12.267 17.765.028 6.388-1.87 9.939-6.832 12.785-6.148 3.526-15.78 1.845-17.014-2.97-.743-2.896 2.312-8.289 6.272-11.072 1.863-1.31 3.387-2.65 3.387-2.978 0-1.317-3.499-2.305-6.993-1.976-6.6.62-12.49 6.81-15.076 15.842-.689 2.403-1.803 4.656-2.476 5.008s-3.34 1.068-5.928 1.591c-1.92.388-3.344.58-4.84.573" style="fill:#fd5;fill-opacity:1;stroke-width:1" transform="matrix(1.33333 0 0 -1.33333 178.333 1263.333)"></path><path d="M101.21 566.265c-3.345-1.795-7.352-9.875-9.707-16.255-5.843-15.825-6.422-26.032-3.873-36.865.81-3.44 1.086-7.757.782-7.757-.303 0-3.306 2-5.672 3.444-6.529 3.646-12.79 5.948-19.42 5.703-6.223-.23-12.168-2.223-17.232-6.07-7.293-5.647-11.186-11.1-11.086-21.074.96-7.944 4.522-14.698 9.503-18.907 5.598-3.77 8.381-5.09 13.433-3.904 4.569 1.073 8.54 4.195 11.234 9.408 1.8 3.621 1.654 9.79-.3 14.267-.854 1.956-2.704 5.408-2.704 5.408s8.35-.622 12.769-2.748c7.784-3.746 15.443-13.843 16.561-22.522.265-2.051.812-4.122 1.217-4.643H104l-.544 39.255.544 63.639c-1.482 1.274-1.638.238-2.79-.379" style="fill:#fee46e;fill-opacity:1;stroke-width:.99999994" transform="matrix(1.33333 0 0 -1.33333 178.333 1263.333)" data-source="https://football-logos.cc"></path><path d="M111.29 567.765c3.345-1.795 8.308-8.918 10.664-15.299 5.843-15.825 7.238-27.125 4.689-37.958-.81-3.44-1.222-6.254-.919-6.254.304 0 2.487 1.181 4.853 2.625 6.529 3.646 13.473 5.401 20.103 5.156 6.223-.23 12.168-2.223 17.233-6.07 7.292-5.647 11.185-14.1 11.085-24.074-.96-7.944-4.522-14.698-9.503-18.907-5.598-3.77-11.381-5.09-16.433-3.904-4.569 1.073-8.54 4.195-11.234 9.408-1.8 3.621-1.654 11.29.3 15.767.854 1.956 1.204 3.908 1.204 3.908s-5.35-.622-9.769-2.748c-7.784-3.746-13.943-12.343-15.061-21.022-.265-2.051-.812-5.622-1.217-6.143H107v105.894c1.482 1.274 3.138.238 4.29-.379" style="fill:#fd5;fill-opacity:1;stroke-width:.99999994" transform="matrix(1.33333 0 0 -1.33333 178.333 1263.333)"></path><path d="M106.25 460.75c-15.054 0-15.85-.343-19.333-5.641-4.175-6.352-5.113-12.576-2.33-15.455 1.368-1.414 2.227-1.588 6.207-1.267 2.54.205 7.073.84 10.073 1.41 2.273.433 3.793.65 5.383.65s3.11-.216 5.383-.65c3-.57 7.532-1.205 10.073-1.41 3.98-.321 4.839-.147 6.206 1.267 2.784 2.88 1.846 9.103-2.329 15.455-3.482 5.298-4.28 5.641-19.333 5.641" style="fill:#fd5;fill-opacity:1;stroke-width:1" transform="matrix(1.33333 0 0 -1.33333 178.333 1263.333)"></path><path d="M106.25 459.25c-15.054 0-14.35 1.157-17.833-4.141-4.175-6.352-5.113-12.576-2.33-15.455 1.368-1.414.727-.088 4.707.233 2.54.205 7.073.84 10.073 1.41 2.273.433 3.793.65 5.383.65s3.11-.217 5.383-.65c3-.57 7.532-1.205 10.073-1.41 3.98-.321 3.339-1.647 4.706-.233 2.784 2.88 1.846 9.103-2.329 15.455-3.482 5.298-2.78 4.141-17.833 4.141" style="fill:#fee46e;fill-opacity:1;stroke-width:1" transform="matrix(1.33333 0 0 -1.33333 178.333 1263.333)"></path><path d="M106.25 457.75c-15.054 0-11.35 2.657-14.833-2.641-4.175-6.352-6.613-9.576-3.83-12.455 1.368-1.414-.773-1.588 3.207-1.267 2.54.205 7.073.84 10.073 1.41 2.273.434 3.793.65 5.383.65s3.11-.216 5.383-.65c3-.57 7.532-1.205 10.073-1.41 3.98-.321 1.839-.147 3.206 1.267 2.784 2.88 1.846 6.103-2.329 12.455-3.482 5.298-1.28 2.641-16.333 2.641" style="fill:#ffe98c;fill-opacity:1;stroke-width:1" transform="matrix(1.33333 0 0 -1.33333 178.333 1263.333)"></path><path d="M102.3 563.396c-3.345-1.796-5.026-7.006-7.382-13.386-5.842-15.825-7.924-25.896-5.375-36.728.81-3.44 1.086-11.447.782-11.447-.303 0-5.63 3.094-7.995 4.538-6.529 3.646-12.79 5.948-19.42 5.703-6.223-.23-7.796 1.056-12.86-2.79-7.292-5.648-11.185-11.102-11.086-21.076.96-7.943 4.522-14.697 9.504-18.906 5.597-3.77 3.052-3.45 8.104-2.265 4.569 1.073 8.54 4.196 11.234 9.408 1.8 3.622-.67 7.468-2.624 11.945-.853 1.955-1.884 7.184-1.884 7.184s13.817-1.168 18.235-3.294c7.784-3.746 15.716-14.8 16.835-23.48.264-2.05.675-2.071 1.08-2.593l2.639.137-.817 39.118.544 48.473z" style="fill:#ffe98c;fill-opacity:1;stroke-width:.99999994" transform="matrix(1.33333 0 0 -1.33333 178.333 1263.333)"></path><path d="M111.29 566.265c3.345-1.795 7.352-9.875 9.707-16.255 5.843-15.825 6.422-26.032 3.873-36.865-.81-3.44-1.086-7.757-.782-7.757.303 0 3.306 2 5.672 3.444 6.529 3.646 12.79 5.948 19.42 5.703 6.223-.23 12.168-2.223 17.232-6.07 7.293-5.647 11.186-11.1 11.086-21.074-.96-7.944-4.522-14.698-9.503-18.907-5.598-3.77-8.381-5.09-13.433-3.904-4.569 1.073-8.54 4.195-11.234 9.408-1.8 3.621-1.654 9.79.3 14.267.854 1.956 2.704 5.408 2.704 5.408s-8.35-.622-12.769-2.748c-7.784-3.746-15.443-13.843-16.561-22.522-.265-2.051-.812-4.122-1.217-4.643H108.5l.544 39.255-.544 63.639c1.482 1.274 1.638.238 2.79-.379" style="fill:#fee46e;fill-opacity:1;stroke-width:.99999994" transform="matrix(1.33333 0 0 -1.33333 178.333 1263.333)"></path><path d="M110.2 563.396c3.345-1.796 5.026-7.006 7.382-13.386 5.842-15.825 7.924-25.896 5.375-36.728-.81-3.44-1.086-11.447-.782-11.447.303 0 5.63 3.094 7.995 4.538 6.529 3.646 12.79 5.948 19.42 5.703 6.223-.23 7.796 1.056 12.86-2.79 7.292-5.648 11.185-11.102 11.086-21.076-.96-7.943-4.522-14.697-9.504-18.906-5.597-3.77-3.052-3.45-8.104-2.265-4.569 1.073-8.54 4.196-11.234 9.408-1.8 3.622.67 7.468 2.624 11.945.853 1.955 1.884 7.184 1.884 7.184s-13.817-1.168-18.235-3.294c-7.784-3.746-15.716-14.8-16.835-23.48-.264-2.05-.675-2.071-1.08-2.593l-2.639.137.817 39.118-.544 48.473z" style="fill:#ffe98c;fill-opacity:1;stroke-width:.99999994" transform="matrix(1.33333 0 0 -1.33333 178.333 1263.333)"></path><path d="M106.25 437.5c-1.496.007-2.92-.185-4.84-.573-2.588-.523-5.255-1.238-5.928-1.59s-.287-2.606-.976-5.009c-2.587-9.032-9.977-15.222-16.576-15.842-3.494-.329-8.493 2.16-8.493 3.476 0 .329 1.526 1.669 3.388 2.978 3.96 2.783 7.014 6.676 6.271 9.573-1.234 4.814-7.866 6.495-14.014 2.969-4.962-2.846-6.86-4.897-6.832-11.285.036-8.242 2.664-12.72 10.767-16.264 6.019-2.633 12.64-2.368 19.15.769 2.834 1.365 9.752 3.867 9.871 3.723.12-.143-2.36-8.244-1.844-10.31.93-3.482 4.542-6.407 10.056-7.615 5.514 1.208 9.128 4.133 10.058 7.614.516 2.067-1.964 10.168-1.845 10.311.12.144 7.036-2.358 9.87-3.723 6.51-3.137 13.131-3.402 19.15-.77 8.103 3.545 10.731 8.023 10.767 16.265.028 6.388-.37 8.439-5.332 11.285-6.148 3.526-14.28 3.345-15.514-1.47-.743-2.896.812-6.789 4.772-9.572 1.863-1.31 4.887-4.15 4.887-4.478 0-1.317-4.999-3.805-8.493-3.476-6.6.62-13.99 6.81-16.576 15.842-.689 2.403-.303 4.656-.976 5.008s-3.34 1.068-5.928 1.591c-1.92.388-3.344.58-4.84.573" style="fill:#fee46e;fill-opacity:1;stroke-width:1" transform="matrix(1.33333 0 0 -1.33333 178.333 1263.333)"></path><path d="M106.25 436c-1.496.007-2.92-.185-4.84-.573-2.588-.523-3.755-1.238-4.428-1.59s-.287-2.606-.976-5.009c-2.587-9.032-12.977-15.222-19.576-15.842-3.494-.329-8.493 3.66-8.493 4.976 0 .329 3.026 3.169 4.888 4.478 3.96 2.783 5.514 5.176 4.771 8.073-1.234 4.814-6.366 4.995-12.514 1.469-4.962-2.846-5.36-3.397-5.332-9.785.036-8.242 1.164-11.22 9.267-14.764 6.019-2.633 12.64-2.368 19.15.769 2.834 1.365 11.252 3.867 11.371 3.723.12-.143-2.36-9.744-1.844-11.81.93-3.482 3.042-4.907 8.556-6.115 5.514 1.208 7.628 2.633 8.558 6.114.516 2.067-1.964 11.668-1.845 11.811.12.144 8.536-2.358 11.37-3.723 6.51-3.137 13.131-3.402 19.15-.77 8.103 3.545 9.231 6.523 9.267 14.765.028 6.388 1.13 6.939-3.832 9.785-6.148 3.526-12.78 4.845-14.014.03-.743-2.896-.688-5.289 3.272-8.072 1.863-1.31 6.387-5.65 6.387-5.978 0-1.317-6.499-5.305-9.993-4.976-6.6.62-15.49 6.81-18.076 15.842-.689 2.403-.303 4.656-.976 5.008s-1.84 1.068-4.428 1.591c-1.92.388-3.344.58-4.84.573" style="fill:#ffe98c;fill-opacity:1;stroke-width:1" transform="matrix(1.33333 0 0 -1.33333 178.333 1263.333)"></path><path d="M275.485 395.5v-5.215c6.37.281 16.421-2.315 15.85-10.954V277.729L200.231 395.4h-43.034l14.263-20.57V237.67c-1.095-8.592-10.004-10.28-17.21-10.954V221.6l25.948.1 25.315-.2v5.215c-6.37-.281-16.42 2.315-15.848 10.954v44.334c.004 25.901.297 64.753.66 64.974L291.47 221.5h18.107v79.446c.285 57.704.607 77.21 1.29 78.385 1.095 8.592 8.676 10.28 15.882 10.954v5.115l-25.95-.1z" style="fill:#fee46e;fill-opacity:1;stroke-width:1" transform="matrix(1.33333 0 0 -1.33333 -.667 799.333)"></path><path d="M276.985 394v-2.215c6.37.281 16.421-3.815 15.85-12.454V273.229L198.731 393.9h-38.534l12.763-19.07V237.67c-1.095-8.592-10.004-11.78-17.21-12.454V223.1l24.448.1 23.815-.2v2.215c-6.37-.281-16.42 3.815-15.848 12.454v44.334c.004 25.901.297 69.253.66 69.474L292.97 223h15.107v77.946c.285 57.704.607 77.21 1.29 78.385 1.095 8.592 8.676 11.78 15.882 12.454v2.115l-24.45-.1z" style="fill:#ffe98c;fill-opacity:1;stroke-width:1" transform="matrix(1.33333 0 0 -1.33333 -.667 799.333)"></path><path d="M106.25 439c-1.496.007-2.92-.185-4.84-.573-2.588-.523-5.255-1.238-5.928-1.59s-1.787-2.606-2.476-5.009c-2.587-9.032-8.477-15.222-15.076-15.842-3.494-.329-6.993.66-6.993 1.976 0 .329 1.526 1.669 3.388 2.978 3.96 2.783 7.014 8.176 6.271 11.073-1.234 4.814-10.866 6.495-17.014 2.969-4.962-2.846-6.86-6.397-6.832-12.785.036-8.242 4.164-14.22 12.267-17.764 6.019-2.633 12.64-2.368 19.15.769 2.834 1.365 8.252 3.867 8.371 3.723.12-.143-2.36-6.744-1.844-8.81.93-3.482 6.042-7.907 11.556-9.115 5.514 1.208 10.628 5.633 11.558 9.114.516 2.067-1.964 8.668-1.845 8.811.12.144 5.536-2.358 8.37-3.723 6.51-3.137 13.131-3.402 19.15-.77 8.103 3.545 12.231 9.523 12.267 17.765.028 6.388-1.87 9.939-6.832 12.785-6.148 3.526-15.78 1.845-17.014-2.97-.743-2.896 2.312-8.289 6.272-11.072 1.863-1.31 3.387-2.65 3.387-2.978 0-1.317-3.499-2.305-6.993-1.976-6.6.62-12.49 6.81-15.076 15.842-.689 2.403-1.803 4.656-2.476 5.008s-3.34 1.068-5.928 1.591c-1.92.388-3.344.58-4.84.573" style="fill:#fec459;fill-opacity:1;stroke-width:1" transform="matrix(1.33333 0 0 -1.33333 -.667 799.333)"></path><path d="M101.21 567.765c-3.345-1.795-8.308-8.918-10.664-15.299-5.843-15.825-7.238-27.125-4.689-37.958.81-3.44 1.222-6.254.919-6.254-.304 0-2.487 1.181-4.853 2.625-6.529 3.646-13.473 5.401-20.103 5.156-6.223-.23-12.168-2.223-17.232-6.07-7.293-5.647-11.186-14.1-11.086-24.074.96-7.944 4.522-14.698 9.503-18.907 5.598-3.77 11.381-5.09 16.433-3.904 4.569 1.073 8.54 4.195 11.234 9.408 1.8 3.621 1.654 11.29-.3 15.767-.854 1.956-1.204 3.908-1.204 3.908s5.35-.622 9.769-2.748c7.784-3.746 13.943-12.343 15.061-21.022.265-2.051.812-5.622 1.217-6.143H105.5v105.894c-1.482 1.274-3.138.238-4.29-.379" style="fill:#fd5;fill-opacity:1;stroke-width:.99999994" transform="matrix(1.33333 0 0 -1.33333 -.667 799.333)"></path><path d="M111.29 567.765c3.345-1.795 8.308-8.918 10.664-15.299 5.843-15.825 7.238-27.125 4.689-37.958-.81-3.44-1.222-6.254-.919-6.254.304 0 2.487 1.181 4.853 2.625 6.529 3.646 13.473 5.401 20.103 5.156 6.223-.23 12.168-2.223 17.233-6.07 7.292-5.647 11.185-14.1 11.085-24.074-.96-7.944-4.522-14.698-9.503-18.907-5.598-3.77-11.381-5.09-16.433-3.904-4.569 1.073-8.54 4.195-11.234 9.408-1.8 3.621-1.654 11.29.3 15.767.854 1.956 1.204 3.908 1.204 3.908s-5.35-.622-9.769-2.748c-7.784-3.746-13.943-12.343-15.061-21.022-.265-2.051-.812-5.622-1.217-6.143H107v105.894c1.482 1.274 3.138.238 4.29-.379" style="fill:#fec459;fill-opacity:1;stroke-width:.99999994" transform="matrix(1.33333 0 0 -1.33333 -.667 799.333)"></path><path d="M106.25 460.75c-15.054 0-15.85-.343-19.333-5.641-4.175-6.352-5.113-12.576-2.33-15.455 1.368-1.414 2.227-1.588 6.207-1.267 2.54.205 7.073.84 10.073 1.41 2.273.433 3.793.65 5.383.65s3.11-.216 5.383-.65c3-.57 7.532-1.205 10.073-1.41 3.98-.321 4.839-.147 6.206 1.267 2.784 2.88 1.846 9.103-2.329 15.455-3.482 5.298-4.28 5.641-19.333 5.641" style="fill:#fec459;fill-opacity:1;stroke-width:1" transform="matrix(1.33333 0 0 -1.33333 -.667 799.333)"></path><path d="M106.25 439c-1.496.007-2.92-.185-4.84-.573-2.588-.523-5.255-1.238-5.928-1.59s-1.787-2.606-2.476-5.009c-2.587-9.032-8.477-15.222-15.076-15.842-3.494-.329-6.993.66-6.993 1.976 0 .329 1.526 1.669 3.388 2.978 3.96 2.783 7.014 8.176 6.271 11.073-1.234 4.814-10.866 6.495-17.014 2.969-4.962-2.846-6.86-6.397-6.832-12.785.036-8.242 4.164-14.22 12.267-17.764 6.019-2.633 12.64-2.368 19.15.769 2.834 1.365 8.252 3.867 8.371 3.723.12-.143-2.36-6.744-1.844-8.81.93-3.482 6.042-7.907 11.556-9.115 5.514 1.208 10.628 5.633 11.558 9.114.516 2.067-1.964 8.668-1.845 8.811.12.144 5.536-2.358 8.37-3.723 6.51-3.137 13.131-3.402 19.15-.77 8.103 3.545 12.231 9.523 12.267 17.765.028 6.388-1.87 9.939-6.832 12.785-6.148 3.526-15.78 1.845-17.014-2.97-.743-2.896 2.312-8.289 6.272-11.072 1.863-1.31 3.387-2.65 3.387-2.978 0-1.317-3.499-2.305-6.993-1.976-6.6.62-12.49 6.81-15.076 15.842-.689 2.403-1.803 4.656-2.476 5.008s-3.34 1.068-5.928 1.591c-1.92.388-3.344.58-4.84.573" style="fill:#fd5;fill-opacity:1;stroke-width:1" transform="matrix(1.33333 0 0 -1.33333 -.667 799.333)"></path><path d="M101.21 566.265c-3.345-1.795-7.352-9.875-9.707-16.255-5.843-15.825-6.422-26.032-3.873-36.865.81-3.44 1.086-7.757.782-7.757-.303 0-3.306 2-5.672 3.444-6.529 3.646-12.79 5.948-19.42 5.703-6.223-.23-12.168-2.223-17.232-6.07-7.293-5.647-11.186-11.1-11.086-21.074.96-7.944 4.522-14.698 9.503-18.907 5.598-3.77 8.381-5.09 13.433-3.904 4.569 1.073 8.54 4.195 11.234 9.408 1.8 3.621 1.654 9.79-.3 14.267-.854 1.956-2.704 5.408-2.704 5.408s8.35-.622 12.769-2.748c7.784-3.746 15.443-13.843 16.561-22.522.265-2.051.812-4.122 1.217-4.643H104l-.544 39.255.544 63.639c-1.482 1.274-1.638.238-2.79-.379" style="fill:#fee46e;fill-opacity:1;stroke-width:.99999994" transform="matrix(1.33333 0 0 -1.33333 -.667 799.333)"></path><path d="M111.29 567.765c3.345-1.795 8.308-8.918 10.664-15.299 5.843-15.825 7.238-27.125 4.689-37.958-.81-3.44-1.222-6.254-.919-6.254.304 0 2.487 1.181 4.853 2.625 6.529 3.646 13.473 5.401 20.103 5.156 6.223-.23 12.168-2.223 17.233-6.07 7.292-5.647 11.185-14.1 11.085-24.074-.96-7.944-4.522-14.698-9.503-18.907-5.598-3.77-11.381-5.09-16.433-3.904-4.569 1.073-8.54 4.195-11.234 9.408-1.8 3.621-1.654 11.29.3 15.767.854 1.956 1.204 3.908 1.204 3.908s-5.35-.622-9.769-2.748c-7.784-3.746-13.943-12.343-15.061-21.022-.265-2.051-.812-5.622-1.217-6.143H107v105.894c1.482 1.274 3.138.238 4.29-.379" style="fill:#fd5;fill-opacity:1;stroke-width:.99999994" transform="matrix(1.33333 0 0 -1.33333 -.667 799.333)"></path><path d="M106.25 460.75c-15.054 0-15.85-.343-19.333-5.641-4.175-6.352-5.113-12.576-2.33-15.455 1.368-1.414 2.227-1.588 6.207-1.267 2.54.205 7.073.84 10.073 1.41 2.273.433 3.793.65 5.383.65s3.11-.216 5.383-.65c3-.57 7.532-1.205 10.073-1.41 3.98-.321 4.839-.147 6.206 1.267 2.784 2.88 1.846 9.103-2.329 15.455-3.482 5.298-4.28 5.641-19.333 5.641" style="fill:#fd5;fill-opacity:1;stroke-width:1" transform="matrix(1.33333 0 0 -1.33333 -.667 799.333)"></path><path d="M106.25 459.25c-15.054 0-14.35 1.157-17.833-4.141-4.175-6.352-5.113-12.576-2.33-15.455 1.368-1.414.727-.088 4.707.233 2.54.205 7.073.84 10.073 1.41 2.273.433 3.793.65 5.383.65s3.11-.217 5.383-.65c3-.57 7.532-1.205 10.073-1.41 3.98-.321 3.339-1.647 4.706-.233 2.784 2.88 1.846 9.103-2.329 15.455-3.482 5.298-2.78 4.141-17.833 4.141" style="fill:#fee46e;fill-opacity:1;stroke-width:1" transform="matrix(1.33333 0 0 -1.33333 -.667 799.333)"></path><path d="M106.25 457.75c-15.054 0-11.35 2.657-14.833-2.641-4.175-6.352-6.613-9.576-3.83-12.455 1.368-1.414-.773-1.588 3.207-1.267 2.54.205 7.073.84 10.073 1.41 2.273.434 3.793.65 5.383.65s3.11-.216 5.383-.65c3-.57 7.532-1.205 10.073-1.41 3.98-.321 1.839-.147 3.206 1.267 2.784 2.88 1.846 6.103-2.329 12.455-3.482 5.298-1.28 2.641-16.333 2.641" style="fill:#ffe98c;fill-opacity:1;stroke-width:1" transform="matrix(1.33333 0 0 -1.33333 -.667 799.333)"></path><path d="M102.3 563.396c-3.345-1.796-5.026-7.006-7.382-13.386-5.842-15.825-7.924-25.896-5.375-36.728.81-3.44 1.086-11.447.782-11.447-.303 0-5.63 3.094-7.995 4.538-6.529 3.646-12.79 5.948-19.42 5.703-6.223-.23-7.796 1.056-12.86-2.79-7.292-5.648-11.185-11.102-11.086-21.076.96-7.943 4.522-14.697 9.504-18.906 5.597-3.77 3.052-3.45 8.104-2.265 4.569 1.073 8.54 4.196 11.234 9.408 1.8 3.622-.67 7.468-2.624 11.945-.853 1.955-1.884 7.184-1.884 7.184s13.817-1.168 18.235-3.294c7.784-3.746 15.716-14.8 16.835-23.48.264-2.05.675-2.071 1.08-2.593l2.639.137-.817 39.118.544 48.473z" style="fill:#ffe98c;fill-opacity:1;stroke-width:.99999994" transform="matrix(1.33333 0 0 -1.33333 -.667 799.333)"></path><path d="M111.29 566.265c3.345-1.795 7.352-9.875 9.707-16.255 5.843-15.825 6.422-26.032 3.873-36.865-.81-3.44-1.086-7.757-.782-7.757.303 0 3.306 2 5.672 3.444 6.529 3.646 12.79 5.948 19.42 5.703 6.223-.23 12.168-2.223 17.232-6.07 7.293-5.647 11.186-11.1 11.086-21.074-.96-7.944-4.522-14.698-9.503-18.907-5.598-3.77-8.381-5.09-13.433-3.904-4.569 1.073-8.54 4.195-11.234 9.408-1.8 3.621-1.654 9.79.3 14.267.854 1.956 2.704 5.408 2.704 5.408s-8.35-.622-12.769-2.748c-7.784-3.746-15.443-13.843-16.561-22.522-.265-2.051-.812-4.122-1.217-4.643H108.5l.544 39.255-.544 63.639c1.482 1.274 1.638.238 2.79-.379" style="fill:#fee46e;fill-opacity:1;stroke-width:.99999994" transform="matrix(1.33333 0 0 -1.33333 -.667 799.333)"></path><path d="M110.2 563.396c3.345-1.796 5.026-7.006 7.382-13.386 5.842-15.825 7.924-25.896 5.375-36.728-.81-3.44-1.086-11.447-.782-11.447.303 0 5.63 3.094 7.995 4.538 6.529 3.646 12.79 5.948 19.42 5.703 6.223-.23 7.796 1.056 12.86-2.79 7.292-5.648 11.185-11.102 11.086-21.076-.96-7.943-4.522-14.697-9.504-18.906-5.597-3.77-3.052-3.45-8.104-2.265-4.569 1.073-8.54 4.196-11.234 9.408-1.8 3.622.67 7.468 2.624 11.945.853 1.955 1.884 7.184 1.884 7.184s-13.817-1.168-18.235-3.294c-7.784-3.746-15.716-14.8-16.835-23.48-.264-2.05-.675-2.071-1.08-2.593l-2.639.137.817 39.118-.544 48.473z" style="fill:#ffe98c;fill-opacity:1;stroke-width:.99999994" transform="matrix(1.33333 0 0 -1.33333 -.667 799.333)"></path><path d="M106.25 437.5c-1.496.007-2.92-.185-4.84-.573-2.588-.523-5.255-1.238-5.928-1.59s-.287-2.606-.976-5.009c-2.587-9.032-9.977-15.222-16.576-15.842-3.494-.329-8.493 2.16-8.493 3.476 0 .329 1.526 1.669 3.388 2.978 3.96 2.783 7.014 6.676 6.271 9.573-1.234 4.814-7.866 6.495-14.014 2.969-4.962-2.846-6.86-4.897-6.832-11.285.036-8.242 2.664-12.72 10.767-16.264 6.019-2.633 12.64-2.368 19.15.769 2.834 1.365 9.752 3.867 9.871 3.723.12-.143-2.36-8.244-1.844-10.31.93-3.482 4.542-6.407 10.056-7.615 5.514 1.208 9.128 4.133 10.058 7.614.516 2.067-1.964 10.168-1.845 10.311.12.144 7.036-2.358 9.87-3.723 6.51-3.137 13.131-3.402 19.15-.77 8.103 3.545 10.731 8.023 10.767 16.265.028 6.388-.37 8.439-5.332 11.285-6.148 3.526-14.28 3.345-15.514-1.47-.743-2.896.812-6.789 4.772-9.572 1.863-1.31 4.887-4.15 4.887-4.478 0-1.317-4.999-3.805-8.493-3.476-6.6.62-13.99 6.81-16.576 15.842-.689 2.403-.303 4.656-.976 5.008s-3.34 1.068-5.928 1.591c-1.92.388-3.344.58-4.84.573" style="fill:#fee46e;fill-opacity:1;stroke-width:1" transform="matrix(1.33333 0 0 -1.33333 -.667 799.333)"></path><path d="M106.25 436c-1.496.007-2.92-.185-4.84-.573-2.588-.523-3.755-1.238-4.428-1.59s-.287-2.606-.976-5.009c-2.587-9.032-12.977-15.222-19.576-15.842-3.494-.329-8.493 3.66-8.493 4.976 0 .329 3.026 3.169 4.888 4.478 3.96 2.783 5.514 5.176 4.771 8.073-1.234 4.814-6.366 4.995-12.514 1.469-4.962-2.846-5.36-3.397-5.332-9.785.036-8.242 1.164-11.22 9.267-14.764 6.019-2.633 12.64-2.368 19.15.769 2.834 1.365 11.252 3.867 11.371 3.723.12-.143-2.36-9.744-1.844-11.81.93-3.482 3.042-4.907 8.556-6.115 5.514 1.208 7.628 2.633 8.558 6.114.516 2.067-1.964 11.668-1.845 11.811.12.144 8.536-2.358 11.37-3.723 6.51-3.137 13.131-3.402 19.15-.77 8.103 3.545 9.231 6.523 9.267 14.765.028 6.388 1.13 6.939-3.832 9.785-6.148 3.526-12.78 4.845-14.014.03-.743-2.896-.688-5.289 3.272-8.072 1.863-1.31 6.387-5.65 6.387-5.978 0-1.317-6.499-5.305-9.993-4.976-6.6.62-15.49 6.81-18.076 15.842-.689 2.403-.303 4.656-.976 5.008s-1.84 1.068-4.428 1.591c-1.92.388-3.344.58-4.84.573" style="fill:#ffe98c;fill-opacity:1;stroke-width:1" transform="matrix(1.33333 0 0 -1.33333 -.667 799.333)" data-source="https://football-logos.cc"></path><!-- source: https://football-logos.cc --></svg>