<svg xmlns="http://www.w3.org/2000/svg" xml:space="preserve" viewBox="0 0.01 259.88 332.61"><!-- Source: https://football-logos.cc --><path d="M0 763.199c0-92.16 43.203-178.57 116.641-234.008L814.324 0l698.396 529.191c73.44 56.168 115.92 141.848 115.92 234.008V2084.39H0z" style="fill:#2151a8;fill-opacity:1;fill-rule:evenodd;stroke:none" transform="matrix(.15957 0 0 -.15957 0 332.616)" data-source="https://football-logos.cc"></path><path d="M46.086 763.199C46.8 685.43 82.8 612.719 144.723 565.91L814.324 57.59l670.316 508.32c61.92 46.809 97.93 119.52 97.93 197.289V2037.59H46.086z" style="fill:#2151a8;fill-opacity:1;fill-rule:evenodd;stroke:none" transform="matrix(.15957 0 0 -.15957 0 332.616)"></path><path d="m814.324 57.59 670.316 508.32c61.92 46.809 97.93 119.52 97.93 197.289V2037.59L144.004 565.91z" style="fill:#ee2722;fill-opacity:1;fill-rule:evenodd;stroke:none" transform="matrix(.15957 0 0 -.15957 0 332.616)"></path><path d="M1428.49 1879.92 1227.61 1674V370.801l200.88 152.629zm-355.69-363.61-200.874-205.2V101.512L1072.8 254.16zm-354.956-362.88-200.879-205.2V282.949l200.879-151.91zM362.883 789.84 144.004 565.91l218.879-165.601Zm-208.082 625.67-20.879-56.88-59.762-2.16 47.52-36.71-17.278-58.33 50.399 34.57 49.679-34.57-16.558 58.33 47.516 36.71-60.477 2.16zm780.48 199.45-20.152-56.88-60.488-1.44 47.515-36.72-16.558-58.32 49.683 33.83 50.403-33.83-17.278 58.32 48.234 36.72-61.202 1.44zm390.239 399.59-20.16-56.88-60.48-1.44 48.24-37.44-17.28-57.59 49.68 33.84 50.41-33.84-17.29 57.59 48.24 37.44-60.48 1.44zm-1170.719 0-20.879-56.88-59.762-1.44 47.52-37.44-17.278-57.59 50.399 33.84 49.679-33.84-16.558 57.59 47.516 37.44-60.477 1.44zm585.359 0L720 1957.67l-60.48-1.44 47.523-37.44-16.559-57.59 49.676 33.84 49.684-33.84-16.563 57.59 47.52 37.44-60.481 1.44zM154.801 816.469l-20.879-56.867-59.762-2.161 47.52-36.722-17.278-58.328 50.399 33.847 49.679-33.847-16.558 58.328 47.516 36.722-60.477 2.161zm390.961 399.611-20.879-56.88-60.481-2.16 48.239-36.73-17.282-57.59 50.403 33.83 49.676-33.83-16.555 57.59 47.519 36.73-60.48 2.16zM262.805 996.469V1821.6h806.405z" style="fill:#fff;fill-opacity:1;fill-rule:evenodd;stroke:none" transform="matrix(.15957 0 0 -.15957 0 332.616)"></path><path d="M468.723 1563.83c-2.883-8.64-7.2-41.76-7.922-45.36-1.442-4.31-11.52-5.75-16.559 0-5.762 5.04-15.121 30.96-26.64 45.36v-110.15c7.921-6.49 20.164-9.37 28.082-8.64 8.636-19.45 17.281-38.16 33.836-55.45-5.04-26.64 2.16-43.2 18.722-57.59 16.559-13.68 0-30.25-5.762-30.25-42.48-.71 55.442-12.23 56.165-7.92.714 5.04 4.32 11.53 2.156 16.56-8.637 23.77-10.801 37.45 2.164 58.32 24.476-3.6 28.797 15.12 15.84 30.96-7.922 19.45 2.156 19.45-16.563 42.48-18.722 23.04-30.957 81.36-16.558 105.13 11.519 20.16 20.156 33.11-7.918 30.24-7.203 5.76-12.243 12.95-20.164 15.11-7.204 2.17-12.957-3.59-20.161-1.43-11.519 2.88-23.039 30.23-31.679 3.6-2.157-8.65 15.84-22.32 12.961-30.97" style="fill:#000;fill-opacity:1;fill-rule:evenodd;stroke:none" transform="matrix(.15957 0 0 -.15957 0 332.616)" data-source="https://football-logos.cc"></path><path d="M423.363 1556.64v-226.8c.719-15.84 9.356-22.32 23.039-23.05l84.239-2.16h33.121l-15.117-15.84h-18.004l-218.161.73c-13.675 0-4.316 12.96 12.243 13.67l48.242 3.6c11.515.73 17.277 9.36 17.277 25.21v257.76c0 2.87-1.437 6.47-3.601 10.08 5.761-.72 12.242-.72 18.718-.72 7.204 0 15.125.72 22.321 1.43-2.157-2.88-4.317-7.19-4.317-10.79z" style="fill:#782d1e;fill-opacity:1;fill-rule:evenodd;stroke:none" transform="matrix(.15957 0 0 -.15957 0 332.616)"></path><path d="m475.922 1612.07-21.602-7.91c-15.117-4.32-31.679-6.49-48.961-6.49-74.875 0-135.359 43.21-135.359 97.21 0 53.28 60.484 96.47 135.359 96.47 74.161 0 135.364-43.19 135.364-96.47 0-35.29-25.922-66.25-64.801-82.81" style="fill:#00a363;fill-opacity:1;fill-rule:evenodd;stroke:none" transform="matrix(.15957 0 0 -.15957 0 332.616)"></path><path d="M383.762 1740.23c5.043 0 9.359 4.32 9.359 9.36s-4.316 8.64-9.359 8.64c-5.039 0-9.36-3.6-9.36-8.64s4.321-9.36 9.36-9.36m-58.324-25.92c5.046 0 9.363 4.32 9.363 8.64 0 5.76-4.317 9.37-9.363 9.37-5.04 0-9.352-3.61-9.352-9.37 0-4.32 4.312-8.64 9.352-8.64m50.402-60.48c5.043 0 9.359 4.33 9.359 9.37 0 5.03-4.316 9.35-9.359 9.35-5.039 0-8.637-4.32-8.637-9.35 0-5.04 3.598-9.37 8.637-9.37m86.402.72c5.039 0 9.36 4.32 9.36 9.37 0 5.04-4.321 9.36-9.36 9.36s-8.637-4.32-8.637-9.36c0-5.05 3.598-9.37 8.637-9.37m-38.16 43.21c5.039 0 9.359 3.59 9.359 8.63s-4.32 9.37-9.359 9.37-9.359-4.33-9.359-9.37 4.32-8.63 9.359-8.63m68.398 18c5.04 0 9.36 3.59 9.36 8.63s-4.32 9.36-9.36 9.36-9.359-4.32-9.359-9.36 4.32-8.63 9.359-8.63" style="fill:#ee2722;fill-opacity:1;fill-rule:evenodd;stroke:none" transform="matrix(.15957 0 0 -.15957 0 332.616)"></path><path d="M447.125 1487.52c1.434-.73 2.875-2.89.719-4.32-5.039-2.17-10.801 2.16-12.961 6.47 3.597-1.43 10.078 0 12.242-2.15m75.594-182.89v8.65c0 2.15 1.441 7.19 4.324 5.04 1.437-.73.723-5.04.723-7.21-.723-1.44-2.883-6.48-2.883-6.48z" style="fill:#fff;fill-opacity:1;fill-rule:evenodd;stroke:none" transform="matrix(.15957 0 0 -.15957 0 332.616)" data-source="https://football-logos.cc"></path><!-- source: https://football-logos.cc --></svg>