<svg xmlns="http://www.w3.org/2000/svg" xml:space="preserve" viewBox="1.33 1.33 942.9 708.62"><!-- Source: https://football-logos.cc --><path d="m353.589 531.464 111.217-40.904v-12.132h36.006l.023-12.285c0-15.753 10.12-32.128 42.101-29.883V192.663c-4.154-61.758-27.172-102.316-59.833-126.47C452.253 43.375 396.76 22.792 353.59 0c-43.171 22.794-98.665 43.376-129.514 66.192-32.661 24.155-55.679 64.713-59.833 126.471v174.252l49.308-42.76 34.187 19.396 41.129 89.83-2.871 33.181-43.623 17.415v6.583zm70.176-272.656 58.18-44.623.099 31.56-40.096 32.894zm37.147 79.985 35.462-5.99 24.2-29.232-58.704 8.386zm-296.67 80.681v16.786c12.777-.897 22.062 1.18 28.61 5l5.813-17.187zm42.122 57.972.002.982h2.6z" style="fill:#91bb4d;fill-opacity:1;fill-rule:evenodd;stroke:none" transform="matrix(1.33333 0 0 -1.33333 1.333 709.952)" data-source="https://football-logos.cc"></path><path d="M353.589 13.474c13.006 6.672 26.262 12.84 39.53 18.968 15.492 7.152 31.044 14.192 46.285 21.872 12.545 6.322 25.278 13.12 36.592 21.488 37.517 27.746 51.901 72.38 54.988 117.267v231.275c-10.565.842-20.912 3.987-29.009 11.163-8.858 7.85-13.072 18.91-13.093 30.614v.355h-36.03v15.745l-99.263 36.508-99.264-36.508v-15.746h-36.028v-.354c-.023-11.704-4.237-22.763-13.095-30.614-8.096-7.176-18.444-10.32-29.008-11.163V193.07c3.087-44.887 17.471-89.52 54.988-117.267 11.314-8.368 24.047-15.166 36.592-21.488 15.24-7.68 30.793-14.72 46.285-21.872 13.269-6.127 26.524-12.296 39.53-18.968m0-5.38c13.635 7.073 27.595 13.57 41.535 20.007 15.533 7.172 31.152 14.244 46.431 21.944 12.669 6.384 25.864 13.467 37.284 21.913 38.736 28.648 53.762 74.527 56.926 120.948v235.99c-11.016.207-22.237 2.761-30.618 10.19-7.836 6.943-11.465 16.719-11.484 27.044l-.01 5.127h-36.019v14.3L353.59 523.822l-104.045-38.267v-14.3h-36.02l-.008-5.126c-.02-10.325-3.649-20.1-11.484-27.045-8.381-7.428-19.602-9.982-30.618-10.188V192.906c3.164-46.421 18.19-92.3 56.926-120.948 11.42-8.446 24.615-15.53 37.283-21.913 15.28-7.7 30.899-14.772 46.432-21.944 13.94-6.437 27.9-12.935 41.535-20.007" style="fill:#fff;fill-opacity:1;fill-rule:evenodd;stroke:none" transform="matrix(1.33333 0 0 -1.33333 1.333 709.952)"></path><path d="m353.589 518.729 15.304-5.629V21.072l-15.304-7.598-15.304 7.598V513.1zM401.653 501.051l32.237-11.856V269.85l-10.125-11.043 10.125-7.766V51.57l-32.237-15.196ZM466.65 466.476h22.231c.055-10.648 3.246-20.256 9.729-27.585v-108.79l-2.236 2.701-29.724 5.021zm31.96-159.768V97.746c-9.742-12.693-21.18-21.666-31.96-28.338v156.508l15.295-11.731.099 31.56-15.394 12.629v52.9zM305.525 501.051l-32.237-11.856v-17.56l12.706-5.073 2.872-33.18-15.578-34.024V51.57l32.237-15.196zM208.568 328.476V97.746c9.742-12.693 21.18-21.666 31.96-28.338V339.46l-26.978-15.306z" style="fill:#313757;fill-opacity:1;fill-rule:evenodd;stroke:none" transform="matrix(1.33333 0 0 -1.33333 1.333 709.952)"></path><path d="M353.589 459.28c63.697 0 115.334-51.637 115.334-115.334s-51.637-115.334-115.334-115.334-115.334 51.637-115.334 115.334 51.637 115.333 115.334 115.333" style="fill:#fff;fill-opacity:1;fill-rule:evenodd;stroke:none" transform="matrix(1.33333 0 0 -1.33333 1.333 709.952)"></path><path d="M303.486 431.652c-.095 1.937-1.913 6.01 6.217 9.59 25.265 11.13 46.245 12.173 63.762 2.842 2.314-4.868 3.31-9.933 3.73-15.274-10.48-5.21-20.425-10.42-30.904-15.63l-35.167 2.664c-3.645.263-6.244 1.572-6.572 5.15-.355 3.553-.89 7.092-1.066 10.658m-4.128-25.189c4.017 3.616 8.445 4.967 13.122 4.952l26.614-3.219c3.236-.62 6.917-4.25 7.056-7.923-4.62 1.956-9.242 2.956-13.864 3.59l-14.112-26.243c-6.89 3.012-11.059 9.986-16.588 14.979 3.633 5.533 3.425 12.334-2.228 13.864m52.734 0c.083-3.053 1.156-6.107 1.981-9.16 17.167-7.053 32.143-18.49 45.678-32.805 4.65 9.65 8.68 19.565 11.018 30.205-4.741 10.771-14.777 19.557-30.081 26.367-8.124-1.945-19.563-8.907-28.596-14.607m25.996 37.756c1.33-3.714 2.425-7.428 3.095-11.141 1.266-4.387 3.81-6.259 8.418-8.913 11.364-7.001 20.119-13.754 26.738-23.52l27.358-7.551c1.643 5.891.791 11.315-2.848 16.216-11.404 14.404-25.36 25.333-42.583 33.671-6.908 2.782-13.6 2.748-20.178 1.238m28.064-81.844 13.166 31.901 20.592-4.895c4.201-.797 5.143-2.97 6.246-5.57l12.49-33.083c1.22-3.289 1.658-6.837-1.181-11.478l-44.224 6.92c-2.634 4.052-4.906 9.453-7.09 16.205m-148.713-67.05c12.36-24.99 31.949-43.32 60.136-53.732l1.093 8.122-8.903 19.525c-11.901 8.575-21.683 17.47-32.176 26.084zm64.197-23.586-1.406-13.59-3.28 6.092c-1.406 2.656-1.093 3.749.937 5.155zm-32.645 51.857 28.115-44.047c-2.853-1.01-5.789-1.855-9.06-2.031-10.687 3.934-19.77 13.04-26.709 29.053 1.537 4.053 4.034 9.64 7.654 17.025m-26.397 34.363 2.811 1.563 2.656-.313c-.088-6.394 2.219-10.634 10.465-9.528.602-4.215 1.583-8.177 3.436-11.558-1.77-10.882-3.54-21.295-5.31-32.177-.73-3.176-.521-5.102-5.936-5.31q-3.906-.158-7.81-.313c-3.48-.37-6.834.512-8.903 5.779-3.54 10.986-6.628 22.843-6.404 37.175 4.894 3.072 9.788 5.675 14.682 8.747zm19.993-5.467.937 2.031 11.871-3.28-7.498-11.246c-3.006 2.255-2.928 4.253-5.31 12.495m129.152-32.734 7.054-.847c5.347-6.677 9.608-13.355 12.697-20.033l-2.821-9.312-15.942 12.98c1.253 5.737 1.144 11.474-.988 17.212m37.387-5.502c-4.515-9.641-7.619-20.975-11.428-31.461l3.668-3.245c6.982 8.142 12.863 19.51 17.212 33.295zm-58.408-68.284c-.047-1.505-.094-2.445-.141-3.95 11.16 3.583 21.9 9.678 32.307 17.776l-6.207 5.22c-9.308-4.413-17.78-11.62-25.96-19.046m7.76 33.013-6.914-12.556q-.21-7.195-.423-14.39l5.361 6.066c1.848 2.886.083 4.92-2.257 10.581 7.389-2.17 14.605-4.083 18.2-.564zm-110.524 97.44 3.51-3.393-3.276.585z" style="fill:#dca838;fill-opacity:1;fill-rule:evenodd;stroke:none" transform="matrix(1.33333 0 0 -1.33333 1.333 709.952)"></path><path d="m176.375 502.499 42.03-16.53 2.224-8.223 2.054 5.952 26.657-11.24 5.654-13.81 2.053 10.597 23.112-9.313 4.509-57.627 2.95-3.1c3.29 4.103 6.676 5.803 10.241 3.032 2.479-2.684 1.872-6.011-2.248-10.07l16.847-17.102-5.84-5.578-11.851 3.037-7.53 7.76c-2.384 5.152-5.88 6.4-12.526 2.248-.32 2.069-.044 3.94 1.285 5.46l-2.914 3.98-6.86.698-7.374 9.12 4.738-.036c-8.236 9.24-15.423 20.054-21.46 32.594 11.739-5.953 23.003-13.236 33.366-23.039l-15.233 33.85-1.17-11.241-19.063 11.609-8.041-.333-9.944 9.92 6.09-26.506-32.89 54.94-.496-.74 20.86-55.635-9.622-1.205-6.902 18.077 4.467.06-5.074 5.149z" style="fill:#313757;fill-opacity:1;fill-rule:evenodd;stroke:none" transform="matrix(1.33333 0 0 -1.33333 1.333 709.952)"></path><path d="m124.62 405.422 45.154 7.073 6.63-6.048-1.297 6.245 28.595 4.172 11.859-8.485-3.593 9.785 24.201 4.086 34.274-47.362 3.449-.743c.208 5.088 3.59 7.55 6.799 6.712 3.467-.948 3.895-4.62 3.065-9.42l22.825-6.19-3.288-13.733-23.325 6.107c-.854-4.062-3.096-6.008-6.766-5.774-3.06.171-4.365 2.685-3.87 7.597l-4.338.439-51.645-24.81-9.503 8.292 6.958 4.933-12.543.12-23.211 17.99 3.869 2.32-7.103 1.844z" style="fill:#313757;fill-opacity:1;fill-rule:evenodd;stroke:none" transform="matrix(1.33333 0 0 -1.33333 1.333 709.952)"></path><path d="m150.485 398.71 58.541-31.056-20.243 20.804 14.25-3.827 5.674 4.408 23.04-.041-4.94 10.593 31.068-21.917c-12.156 2.89-25.799 3.616-40.464 2.854 11.352-7.733 23.132-13.431 35.397-16.828l-37.76-16.613z" style="fill:#fff;fill-opacity:1;fill-rule:evenodd;stroke:none" transform="matrix(1.33333 0 0 -1.33333 1.333 709.952)"></path><path d="m411.797 340.566 81.082-13.377 12.745-15.273-90.653 13.416zM314.919 371.892l-4.342-7.442-4.34-16.4-5.168 1.93-10.548-16.798c11.704-19.681 23.705-38.786 36.25-57.207-.345-11.944-1.74-23.888-4.135-35.832 23.804-7.86 44.006-7.745 60.638.276l1.102 27.7 11.05 20.422 80.458-61.766-.138 16.125-71.938 57.468c2.605 6.385 2.281 12.77.276 19.155l-15.298-15.71c-3.141-2.9-6.03-2.175-9.647 1.378l-27.011 25.358 3.445 7.373c-4.688-3.53-11.068-4.396-18.88-3.515l35.556-30.18c-5.831-1.43-11.12-3.946-15.849-7.58-1.155 18.744-13.733 29.72-35.9 34.177l5.414 12.955 9.539-.138c12.804-5.384 19.903-2.656 20.947 8.682zM334.943 396.72c6.366-1.54 13.23-4.184 20.404-7.879l-10.404-18.788c-1.415-1.784-2.828-3.064-4.243-4.848-6.882-.11-12.175 3.138-17.171 9.495 3.939 7.272 7.474 14.747 11.414 22.02M360.397 386.417l-13.03-23.636c10.619-5.416 14.095-7.986 14.95-12.02l18.282 22.02c-6.48 5.054-13.184 9.659-20.202 13.636" style="fill:#313757;fill-opacity:1;fill-rule:evenodd;stroke:none" transform="matrix(1.33333 0 0 -1.33333 1.333 709.952)"></path><path d="m384.746 369.402-25.429-33.238c-.285-6.799 5.665-10.48 13.64-13.15l25.412 30.676a82 82 0 0 1-13.623 15.712M374.746 318.06l26.927 32.91 2.186-2.876 4.028-19.907-22.094-21.058c-7.935.82-11.588 4.127-10.011 10.471z" style="fill:#313757;fill-opacity:1;fill-rule:evenodd;stroke:none" transform="matrix(1.33333 0 0 -1.33333 1.333 709.952)" data-source="https://football-logos.cc"></path><path d="M219.628 123.772c-9.631-15.709-5.981-26.412 6.743-33.18 36.896-19.626 73.54-38.397 109.241-57.596 5.993-2.803 14.291-8.09 17.977-8.23 3.686.14 11.985 5.427 17.977 8.23 35.7 19.199 72.345 37.97 109.241 57.596 12.724 6.768 16.374 17.471 6.742 33.18l-133.96 6.387z" style="fill:#fff;fill-opacity:1;fill-rule:evenodd;stroke:none" transform="matrix(1.33333 0 0 -1.33333 1.333 709.952)"></path><path d="m353.589 51.485-38.018.077 30.61-16.338c2.309-1.09 5.126-2.813 7.408-2.813s5.099 1.723 7.408 2.813l30.61 16.338zM0 125.549 70.104 93.07 29.637 27.02l170.24 52.096-13.041 43.257-92.778 32.793Z" style="fill:#333b60;fill-opacity:1;fill-rule:evenodd;stroke:none" transform="matrix(1.33333 0 0 -1.33333 1.333 709.952)"></path><path d="m105.454 98.187 94.423-19.07-10.802 35.829c-27.94-4.43-55.813-10.03-83.62-16.759" style="fill:#2a2e47;fill-opacity:1;fill-rule:evenodd;stroke:none" transform="matrix(1.33333 0 0 -1.33333 1.333 709.952)"></path><path d="M707.178 125.549 637.074 93.07l40.467-66.05-170.24 52.096 13.041 43.257 92.777 32.793z" style="fill:#333b60;fill-opacity:1;fill-rule:evenodd;stroke:none" transform="matrix(1.33333 0 0 -1.33333 1.333 709.952)"></path><path d="M601.724 98.187 507.3 79.117l10.802 35.829c27.94-4.43 55.814-10.03 83.622-16.759" style="fill:#2a2e47;fill-opacity:1;fill-rule:evenodd;stroke:none" transform="matrix(1.33333 0 0 -1.33333 1.333 709.952)"></path><path d="m635.214 197.262-33.49-99.075C519.012 118.652 436.3 127.2 353.589 127.2s-165.423-8.548-248.135-29.013l-33.49 99.075c94.34 22.782 187.285 32.568 281.625 32.568s187.285-9.786 281.624-32.568" style="fill:#313757;fill-opacity:1;fill-rule:evenodd;stroke:none" transform="matrix(1.33333 0 0 -1.33333 1.333 709.952)"></path><path d="m138.016 141.096-3.475 15.033-.2-.666a5 5 0 0 0-.177-.571 4 4 0 0 1-.155-.479l-3.676-10.89-7.83 8.231a8 8 0 0 1-.328.367l-.38.398q-.225.213-.462.468l3.455-14.948-7.978-1.844-6.794 29.394 7.349 1.698 9.962-10.57 4.567 13.928 7.306 1.689 6.794-29.394zm32.253 6.694-2.727 4.91-8.71-1.72-.656-5.578-8.456-1.67 5.021 31.744 7.188 1.42 16.543-27.485zm-9.079 17.274q-.194.313-.378.694-.186.38-.336.702-.203.356-.32.728l-.019-.795a30 30 0 0 0-.048-.756 15 15 0 0 1-.04-.799l-.592-7.234 4.947.977zm36.477-12.51-6.77 10.02-2.296-.38 1.795-10.843-8.079-1.338-4.928 29.764 11.353 1.88q2.253.372 4.308.101 2.055-.27 3.68-1.247 1.623-.976 2.753-2.646 1.128-1.67 1.53-4.093.513-3.105-.34-5.08a8.2 8.2 0 0 0-2.596-3.313l8.731-11.31zm-4.67 19.76q-.196 1.19-1.047 1.836-.85.645-2.762.329l-2.551-.423.886-5.357 2.552.422q1.913.316 2.52 1.138.606.822.402 2.055m40.532-2.174q.409-3.033-.274-5.539-.684-2.506-2.216-4.365a11.9 11.9 0 0 0-3.747-3.007q-2.215-1.146-4.821-1.499-2.648-.357-5.088.161-2.44.519-4.411 1.906-1.97 1.386-3.294 3.62-1.323 2.236-1.733 5.268l-2.388 17.683 8.116 1.095 2.421-17.938q.382-2.82 1.93-3.828 1.55-1.008 3.472-.749a5.8 5.8 0 0 1 1.756.52 3.74 3.74 0 0 1 1.372 1.12q.553.727.784 1.759.23 1.031.04 2.44l-2.422 17.94 8.115 1.095zm29.254-9.212-1.618 15.344-.28-.636a5 5 0 0 0-.245-.546 4 4 0 0 1-.212-.456l-4.975-10.362-6.769 9.123q-.105.163-.28.404-.179.24-.33.442-.198.24-.401.521l1.61-15.258-8.144-.86-3.164 30.003 7.5.792 8.602-11.704 6.228 13.267 7.458.787 3.164-30.002zm38.891 18.337q.28-3.652-.533-6.59-.812-2.936-2.464-5.072a12.1 12.1 0 0 0-4.042-3.379q-2.39-1.242-5.312-1.466-2.923-.225-5.474.64a12.1 12.1 0 0 0-4.51 2.723q-1.958 1.86-3.186 4.64-1.23 2.781-1.509 6.434-.28 3.652.511 6.587.792 2.935 2.445 5.05a12 12 0 0 0 4.045 3.336q2.392 1.22 5.314 1.444 2.922.225 5.472-.618a12 12 0 0 0 4.506-2.68q1.958-1.839 3.207-4.617 1.25-2.78 1.53-6.432m-8.079-.618q-.168 2.19-.736 3.682t-1.394 2.4q-.826.909-1.847 1.263-1.022.354-2.096.272a5 5 0 0 1-1.987-.584q-.955-.505-1.633-1.53-.679-1.025-1.012-2.585-.335-1.56-.167-3.751.171-2.236.741-3.747.57-1.513 1.396-2.422.825-.909 1.847-1.263a5 5 0 0 1 2.053-.275q1.074.081 2.03.587.954.506 1.633 1.53.678 1.025 1.01 2.606.333 1.582.162 3.817m48.946-6.935a15.25 15.25 0 0 0-4.67-4.73q-2.826-1.821-6.53-1.947-3.619-.123-6.185 1.148-2.566 1.272-4.256 3.414-1.69 2.141-2.516 4.873a21.6 21.6 0 0 0-.921 5.532q-.097 2.843.542 5.624.639 2.782 2.158 5.033 1.518 2.25 4.014 3.694 2.495 1.443 6.113 1.566a15.4 15.4 0 0 0 2.982-.179 11.3 11.3 0 0 0 2.788-.832q1.358-.6 2.684-1.59 1.328-.99 2.671-2.454l-5.748-4.68q-1.304 1.551-2.592 2.025t-2.538.43q-1.377-.046-2.347-.726a5 5 0 0 1-1.556-1.8q-.585-1.119-.839-2.594a15.4 15.4 0 0 1-.195-3.111q.045-1.335.289-2.793a9.7 9.7 0 0 1 .846-2.688 5.4 5.4 0 0 1 1.664-2.014q1.061-.782 2.698-.728 1.594.055 2.609.65t1.304.95l-.064 1.895-3.274-.111-.196 5.772 10.725.364zm23.085-5.684-1.754 5.335-8.878-.05-1.694-5.354-8.62-.05 10.906 30.232 7.327.041 11.074-30.106zm-5.665 18.673q-.132.344-.242.753t-.198.753a3.8 3.8 0 0 0-.177.775l-.167-.777q-.085-.344-.19-.734-.106-.388-.19-.776l-1.943-6.993 5.042.028zm16.203-18.69.259 30.168 8.188-.07-.197-22.927 11.076-.096-.062-7.24zm23.528-.36 1.129 30.149 8.183-.307-.858-22.912 11.069-.414-.271-7.236zm41.925-2.05-1.363 5.447-8.858.593-2.077-5.218-8.6.576 13.066 29.362 7.31-.49 8.865-30.83zm-4.298 19.034q-.105.352-.186.768a68 68 0 0 0-.143.765 3.8 3.8 0 0 0-.12.786l-.224-.763a27 27 0 0 0-.243-.718q-.132-.38-.245-.761l-2.444-6.834 5.031-.337zm34.834-21.57-7.937 14.976q-.189.279-.312.572-.124.294-.227.563a2 2 0 0 0-.203.583l-1.53-15.7-8.107.79 2.926 30.027 7.42-.723 7.903-14.887q.182-.364.326-.66.144-.294.248-.565.143-.316.203-.583l1.53 15.7 8.107-.79-2.926-30.027zm29.108 19.81-2.94-22.739-8.12 1.05 2.939 22.74-6.754.872.928 7.18 21.628-2.794-.928-7.181zm30.363-18.36q-.348-2.388-1.605-3.99a9.2 9.2 0 0 0-3.024-2.521q-1.767-.919-3.877-1.2a14.8 14.8 0 0 0-4.114.012q-2.176.317-3.925 1.16a15 15 0 0 0-3.091 1.954 16.5 16.5 0 0 0-2.318 2.32q-.978 1.209-1.524 2.247l6.312 3.565q1.36-2.027 2.884-3.077t2.888-1.248q1.493-.217 2.293.34.801.56.93 1.455.12.81-.79 1.596t-2.306 1.665-3.048 1.946a17.5 17.5 0 0 0-2.98 2.416 10.3 10.3 0 0 0-2.096 3.094q-.77 1.745-.44 4.005.292 2.005 1.366 3.547a8.6 8.6 0 0 0 2.695 2.503q1.62.961 3.719 1.309t4.443.006q2.26-.33 4.01-1.325 1.75-.996 2.99-2.047a16.2 16.2 0 0 0 2.48-2.713l-6.052-3.866q-.723.715-1.465 1.302-.663.532-1.51 1.005a5 5 0 0 1-1.74.602q-1.494.217-2.101-.217a1.67 1.67 0 0 1-.713-1.159q-.118-.81.797-1.553t2.333-1.625 3.05-1.926a17 17 0 0 0 2.98-2.416 10.3 10.3 0 0 0 2.113-3.139q.765-1.766.436-4.027zm25.701 9.583-.847-4.27 8.37-1.66-1.3-6.553-8.37 1.66-2.315-11.667-8.032 1.594 5.871 29.592 19.7-3.909-1.409-7.102zm35.773-25.447q-2.58-2.13-5.419-3.123-2.84-.994-6.04-.298-2.907.63-5.116 2.236a12.5 12.5 0 0 0-3.553 3.947q-1.344 2.342-1.73 5.337t.346 6.364q.741 3.411 2.339 5.997t3.802 4.202a12.8 12.8 0 0 0 4.888 2.202q2.685.585 5.591-.046 3.285-.713 5.393-2.582t3.563-4.92l-6.096-3.086a8.8 8.8 0 0 1-1.712 2.268q-1.024.972-2.498 1.292-1.39.303-2.572-.168a6 6 0 0 1-2.125-1.457q-.942-.988-1.625-2.404a13.6 13.6 0 0 1-1.03-3.018 12.7 12.7 0 0 1-.3-3.11q.045-1.51.529-2.74a5.9 5.9 0 0 1 1.394-2.11q.91-.882 2.259-1.174 1.473-.321 2.83.135 1.355.455 2.632 1.457z" style="fill:#fff;fill-opacity:1;fill-rule:nonzero;stroke:none" transform="matrix(1.33333 0 0 -1.33333 1.333 709.952)"></path><path d="M266.924 99.66q1.153 0 1.997.317a3.54 3.54 0 0 1 1.373.895q.534.575.795 1.385.257.807.255 1.773 0 1.319-.834 2.102-.833.784-2.735.784h-4.07l-.884-7.256zm-1.968 17.413-.884-7.172h3.203q2.236 0 3.447 1.051 1.208 1.05 1.206 3.219.002 1.519-.856 2.213-.86.69-2.68.69zm3.836 3.336q2.004.001 3.43-.39 1.428-.392 2.336-1.111a4.36 4.36 0 0 0 1.34-1.735q.433-1.017.433-2.268a7 7 0 0 0-.272-1.974 5.6 5.6 0 0 0-.862-1.745 6.3 6.3 0 0 0-1.484-1.435q-.9-.634-2.152-1.05 2.051-.516 3.053-1.674 1-1.16 1-2.947 0-1.666-.617-3.09a7 7 0 0 0-1.785-2.47q-1.166-1.042-2.84-1.634-1.678-.594-3.798-.595h-8.49l2.97 24.118zm20.3-9.707q-.233.018-.44.028-.21.008-.412.006a5.36 5.36 0 0 1-2.568-.634 6.5 6.5 0 0 1-2.04-1.707 8.3 8.3 0 0 1-1.352-2.502 9.2 9.2 0 0 1-.494-3.013q0-1.802.566-2.635.568-.835 1.552-.834.685 0 1.345.478.66.475 1.251 1.3.592.825 1.084 1.94.491 1.119.856 2.403zm-1.135-10.842q-1.133-1.751-2.558-2.785-1.427-1.034-3.113-1.034-.966 0-1.807.383-.841.386-1.468 1.146-.625.76-.984 1.901-.36 1.142-.361 2.674 0 1.535.383 2.986c.256.967.623 1.88 1.096 2.73q.707 1.274 1.707 2.34a11.017 11.017 0 0 0 4.931 3.03q1.442.424 3.041.423 1.152 0 2.313-.167a10 10 0 0 0 2.257-.6l-2.051-16.596h-2.185q-.783.001-1.057.395-.276.39-.278.973zm13.01 10.642q1.252 1.6 2.713 2.385 1.457.784 2.974.784 1.085 0 1.946-.434a3.63 3.63 0 0 0 1.406-1.257q.553-.825.779-2.034c.15-.806.155-1.73.022-2.763l-1.3-10.892h-4.104l1.284 10.892q.22 1.668-.172 2.401c-.261.49-.74.734-1.429.734q-.634.001-1.317-.356a5.2 5.2 0 0 1-1.318-1.017 8.6 8.6 0 0 1-1.184-1.596 11 11 0 0 1-.934-2.084l-1.085-8.974h-4.12l3.003 24.785h4.12zm12.258-14.21 3.003 24.784h4.07l-3.02-24.785zm19.248 14.41q-.231.018-.439.028-.21.008-.411.006a5.36 5.36 0 0 1-2.569-.634 6.5 6.5 0 0 1-2.04-1.707 8.3 8.3 0 0 1-1.351-2.502 9.2 9.2 0 0 1-.495-3.013q0-1.802.567-2.635.567-.835 1.551-.834.685 0 1.346.478.659.475 1.25 1.3.593.825 1.085 1.94.49 1.119.856 2.403zM331.34 99.86q-1.133-1.751-2.557-2.785-1.427-1.034-3.114-1.034-.966 0-1.807.383-.841.386-1.467 1.146-.625.76-.985 1.901t-.36 2.674q0 1.535.383 2.986a11.744 11.744 0 0 0 2.802 5.07 11.019 11.019 0 0 0 4.931 3.03q1.442.424 3.042.423 1.152 0 2.312-.167a10 10 0 0 0 2.258-.6l-2.052-16.596h-2.185q-.783.001-1.056.395-.277.39-.278.973zm11.659.434q.567-.617 1.3-.867a4.5 4.5 0 0 1 1.452-.25q1.1 0 2.001.683.902.684 1.546 1.785.64 1.103.99 2.48.35 1.374.35 2.757 0 1.803-.584 2.68-.584.875-1.635.873-.683.002-1.384-.456-.7-.459-1.35-1.267a11 11 0 0 1-1.207-1.913 15.6 15.6 0 0 1-.962-2.368zm1.2 9.724q1.203 1.685 2.68 2.669 1.476.984 3.142.984 1.067.002 1.934-.39a3.94 3.94 0 0 0 1.485-1.178q.617-.784.95-1.985.334-1.2.334-2.819 0-1.45-.3-2.852a14 14 0 0 0-.84-2.652 12 12 0 0 0-1.312-2.301 10 10 0 0 0-1.69-1.819 7.6 7.6 0 0 0-1.985-1.2 5.8 5.8 0 0 0-2.196-.434q-1.3.001-2.335.528-1.034.524-1.735 1.423l-.133-.567q-.183-.582-.484-.856-.3-.276-.967-.278h-2.235l3.002 24.785h4.037zm23.635.684q-.232.018-.44.028-.209.008-.41.006a5.36 5.36 0 0 1-2.57-.634 6.5 6.5 0 0 1-2.04-1.707 8.3 8.3 0 0 1-1.35-2.502 9.2 9.2 0 0 1-.496-3.013q0-1.802.567-2.635.568-.835 1.552-.834.685 0 1.345.478.66.475 1.251 1.3.592.825 1.084 1.94.491 1.119.856 2.403zm-1.134-10.842q-1.133-1.751-2.558-2.785-1.427-1.034-3.113-1.034-.966 0-1.807.383-.842.386-1.468 1.146-.625.76-.984 1.901-.36 1.142-.361 2.674 0 1.535.383 2.986a11.8 11.8 0 0 0 2.803 5.07 11.018 11.018 0 0 0 4.931 3.03q1.442.424 3.041.423 1.152 0 2.313-.167a10 10 0 0 0 2.257-.6l-2.051-16.596H367.9q-.783.001-1.057.395-.276.39-.278.973zm12.592 10.008q1.302 1.92 2.886 2.863 1.584.941 3.269.94 1.067 0 1.918-.434a3.66 3.66 0 0 0 1.401-1.257q.552-.825.778-2.034c.15-.806.156-1.73.023-2.763L388.28 96.29h-4.12l1.285 10.892q.218 1.669-.167 2.396-.384.724-1.4.722c-.457 0-.924-.127-1.402-.389q-.717-.392-1.384-1.117a9 9 0 0 1-1.223-1.735 10.5 10.5 0 0 1-.912-2.263l-.95-8.506h-4.12l2.05 17.13h2.086q.651 0 1.011-.318c.24-.21.356-.55.356-1.017zm21.55.9a3.56 3.56 0 0 1-1.551-.339 4.3 4.3 0 0 1-1.29-.961 6.1 6.1 0 0 1-1.001-1.474 9.2 9.2 0 0 1-.678-1.879q2.07.285 3.33.628 1.258.342 1.94.734.686.392.912.851.224.458.222.956a1.36 1.36 0 0 1-.439.995q-.224.21-.584.35a2.4 2.4 0 0 1-.861.14m-4.87-7.505q0-4.036 3.419-4.036a5.4 5.4 0 0 1 2.296.483q.426.201.767.45.343.251.634.45.29.202.572.346.284.14.618.139a.85.85 0 0 0 .394-.1q.191-.1.34-.267l1.05-1.268q-.883-.884-1.734-1.534a9.6 9.6 0 0 0-1.735-1.068 8.2 8.2 0 0 0-1.868-.617q-.984-.2-2.135-.2-1.5.001-2.719.512a6 6 0 0 0-2.084 1.434q-.866.925-1.34 2.235-.477 1.308-.479 2.924.001 1.35.295 2.652.291 1.3.84 2.469.55 1.167 1.35 2.151a9.2 9.2 0 0 0 1.813 1.702q1.01.717 2.218 1.117 1.209.4 2.591.4 1.337 0 2.346-.383 1.01-.382 1.685-.99.674-.61 1.006-1.362.334-.75.334-1.468.002-1.15-.456-2.101-.459-.95-1.634-1.702-1.177-.749-3.214-1.29c-1.357-.36-3.08-.65-5.17-.861zm23.984-2.969q.568-.617 1.3-.867a4.5 4.5 0 0 1 1.452-.25q1.101 0 2.001.683.902.684 1.546 1.785.64 1.103.99 2.48.35 1.374.35 2.757 0 1.803-.584 2.68-.584.875-1.634.873-.684.002-1.385-.456-.7-.459-1.35-1.267a11 11 0 0 1-1.207-1.913 15.6 15.6 0 0 1-.962-2.368zm1.2 9.724q1.204 1.685 2.68 2.669t3.142.984q1.067.002 1.935-.39a3.94 3.94 0 0 0 1.484-1.178q.617-.784.95-1.985.334-1.2.334-2.819 0-1.45-.3-2.852-.298-1.401-.84-2.652c-.36-.834-.8-1.601-1.311-2.301a10 10 0 0 0-1.69-1.819 7.6 7.6 0 0 0-1.985-1.2 5.8 5.8 0 0 0-2.197-.434q-1.3.001-2.334.528-1.035.524-1.735 1.423l-.134-.567q-.183-.582-.483-.856-.3-.276-.968-.278h-2.235l3.002 24.785h4.037zm23.635.684q-.231.018-.439.028-.21.008-.412.006a5.36 5.36 0 0 1-2.568-.634 6.5 6.5 0 0 1-2.04-1.707 8.3 8.3 0 0 1-1.352-2.502 9.2 9.2 0 0 1-.494-3.013q0-1.802.567-2.635.567-.835 1.551-.834.685 0 1.345.478.66.475 1.251 1.3.593.825 1.085 1.94.49 1.119.856 2.403zm-1.134-10.842q-1.133-1.751-2.557-2.785-1.427-1.034-3.114-1.034-.966 0-1.807.383-.841.386-1.468 1.146-.625.76-.984 1.901-.36 1.142-.361 2.674 0 1.535.384 2.986c.255.967.622 1.88 1.095 2.73q.707 1.274 1.707 2.34a11.019 11.019 0 0 0 4.931 3.03q1.442.424 3.041.423 1.152 0 2.313-.167a10 10 0 0 0 2.257-.6l-2.051-16.596h-2.185q-.783.001-1.056.395-.277.39-.278.973zM337.936 87.36l-2.97-24.117h-2.234q-.5 0-.823.178a1.8 1.8 0 0 0-.611.572l-9.34 16.48a89 89 0 0 0-.134-1.502l-1.902-15.728h-3.82l2.97 24.118h2.268q.285.001.478-.022.191-.025.34-.1.15-.077.266-.212.117-.133.25-.367l9.39-16.462a41 41 0 0 0 .167 1.801l1.885 15.362zm2.502-20.631v.277q0 .159.027.468.026.308.084.817.057.507.155 1.306l.951 7.673h-1.618q-.298 0-.489.216-.193.217-.128.651l.184 1.635 2.601.45 1.368 4.67q.117.334.35.517.234.184.584.184h2.202l-.667-5.388h4.136l-.35-2.935h-4.153l-.918-7.456-.133-1.084q-.049-.4-.072-.623a4 4 0 0 1-.028-.316v-.128q.001-.635.311-1.001.308-.367.873-.367.351.001.6.094.25.091.434.19.183.1.334.194.15.09.283.089.184.001.284-.09a.9.9 0 0 0 .183-.277l.884-2.001a6.6 6.6 0 0 0-2.024-1.135 6.9 6.9 0 0 0-2.262-.383q-1.816 0-2.874.984-1.061.984-1.113 2.769m35.226 13.626-7.072-17.112h-3.186q-.517 0-.634.733l-1.634 9.891q-.1.633-.15 1.285-.117-.333-.234-.657a20 20 0 0 0-.25-.661l-4.053-9.858q-.3-.733-.9-.733h-3.053l-2.902 17.112h3.135q.418 0 .684-.216a.92.92 0 0 0 .334-.55l1-9.141q.051-.75.084-1.434l.067-1.385q.251.7.528 1.385.274.684.556 1.434l3.72 9.174q.133.333.433.55t.684.217h1.751q.435 0 .7-.217a.79.79 0 0 0 .3-.55l1.419-9.174q.1-.748.194-1.44.09-.693.156-1.395.185.684.411 1.384.224.7.473 1.451l3.32 9.14q.116.334.416.55t.684.217zm11.108-2.702q-.231.018-.44.028-.209.007-.41.006a5.36 5.36 0 0 1-2.57-.634 6.5 6.5 0 0 1-2.04-1.707 8.3 8.3 0 0 1-1.35-2.502 9.2 9.2 0 0 1-.495-3.013q0-1.802.567-2.635.567-.834 1.55-.834.686 0 1.346.478.66.475 1.251 1.3.592.825 1.084 1.94.49 1.119.857 2.403zm-1.134-10.841q-1.133-1.752-2.558-2.785-1.427-1.034-3.113-1.034a4.3 4.3 0 0 0-1.807.383 4.1 4.1 0 0 0-1.468 1.145q-.625.759-.984 1.902-.36 1.14-.361 2.674 0 1.535.384 2.985.384 1.453 1.095 2.73a11.8 11.8 0 0 0 1.707 2.341 11.015 11.015 0 0 0 4.932 3.03q1.44.424 3.04.423 1.152 0 2.313-.167a10 10 0 0 0 2.257-.6l-2.051-16.596h-2.185q-.783.001-1.057.394-.276.391-.278.973z" style="fill:#313757;fill-opacity:1;fill-rule:nonzero;stroke:none" transform="matrix(1.33333 0 0 -1.33333 1.333 709.952)" data-source="https://football-logos.cc"></path><!-- source: https://football-logos.cc --></svg>