<svg xmlns="http://www.w3.org/2000/svg" viewBox="0 0 377.62 608.38"><!-- Source: https://football-logos.cc --><defs data-source="https://football-logos.cc"><style>.cls-1{fill:#fff}.cls-2{fill:#2863af}</style></defs><g id="Layer_2" data-name="Layer 2" data-source="https://football-logos.cc"><g id="Ñëîé_1" data-name="Ñëîé 1"><path d="M0 0h377.62L188.81 608.38z" class="cls-1"></path><path d="M188.81 559.75 358.06 14.41H19.56z" class="cls-2"></path><path d="M188.81 28.82H338.5c-9.91 31.92-127.32 410.24-149.69 482.31zm17.71 60.33H296l.07-.32 11.57-37.28H70l11.57 37.36.09.24H171v226.16h35.48V89.63Z" class="cls-1"></path><path d="M283.93 128h-38.58v23h31.45l-.42 1.29c-1.78 5.74-3.6 11.63-5.47 17.62l-.16.49h-25.4v23h18.29l-.13.35-5.79 18.64-.13.41H226V108.55h64Z" class="cls-2"></path><path d="M151.67 193.82v19H120l-.14-.42c-2.25-7.25-5.84-18.8-7.59-24.47l-.12-.42 17.5-59.07.1-.47H93.71l-.22-.65L87.8 109l-.15-.43h64v13.9l-.15.56-20.85 70.35h21.01Z" class="cls-1"></path></g></g><!-- source: https://football-logos.cc --></svg>