<svg xmlns="http://www.w3.org/2000/svg" xml:space="preserve" viewBox="41.95 11.66 173.1 234.33"><!-- Source: https://football-logos.cc --><path d="M964.648 1740.48c223.632-1.3 373.832 88.33 373.832 88.33L1602 1555.98V599.969s-82.07-131.551-304.7-301.899C1113.18 157.18 963.734 96.781 963.734 96.781s-149.355 60.356-333.476 201.246C407.633 468.379 325.563 599.926 325.563 599.926v956.024l263.511 272.82s150.203-89.63 373.832-88.33z" style="fill:#fff;fill-opacity:1;fill-rule:nonzero;stroke:none" transform="matrix(.13333 0 0 -.13333 0 257.333)" data-source="https://football-logos.cc"></path><path d="M964.691 1751.34c220.629-1.29 367.869 86.59 368.299 86.84l7.37 4.34 5.96-6.17 263.51-272.83 3.07-3.17V596.867l-1.7-2.691c-.25-.387-83.12-133.219-307.3-304.754C1118.58 147.621 968.262 86.863 967.824 86.687l-4.043-1.648-4.133 1.692c-.437.175-150.793 60.941-335.988 202.648-224.176 171.539-307.055 304.367-307.297 304.754l-1.703 2.691V1560.3l3.067 3.18 263.511 272.83 5.957 6.17 7.371-4.34c.43-.25 147.579-88.07 368.086-86.84l1.743.04zm371.779 63.91c-33.2-17.85-174.14-86.71-371.564-85.63l-1.742-.04h-.215c-197.57-1.15-338.636 67.77-371.859 85.63l-254.625-263.63V603.086c12.644-19.133 97.34-141.039 300.394-296.414 165.403-126.563 301.754-187.418 326.825-198.109 24.843 10.585 161.506 71.503 327.016 198.152 203.08 155.394 287.77 277.312 300.39 296.422v948.483z" style="fill:#2f9749;fill-opacity:1;fill-rule:nonzero;stroke:none" transform="matrix(.13333 0 0 -.13333 0 257.333)"></path><path d="M1537.55 993.863v-377l-2.56-3.082c-.29-.347-99.57-120.355-228.33-230.254-120.31-102.703-292.82-195.73-293.31-196l-16.061-8.679v630.91l2.602 3.074 158.989 188.058 3.24 3.83h375.43zm-21.81-369.246v358.387h-343.49L1019.1 801.852v-586.27c45.21 25.406 176.65 101.867 273.42 184.469 115.66 98.722 207.04 205.363 223.22 224.566M1537.24 1064.42l-.3 380.97-324.79-381.12zM392.77 1003.34V675.828l281.097 328.032zM926.559 1301.18l-198.36-234.09-3.285-3.88h-330.82v462.90000000000003l3.023 3.13 197.817 204.71 5.453 5.65 7.066-3.39c.172-.08 59.289-28.49 154.781-48.21 99.352-20.52 155.387-19.16 155.551-19.16l11.02.2.008-11.06.3-349.77v-4.01zm-211.68-216.16 192.512 227.19-.286 335.02c-21.39.61-73.207 3.79-149.214 19.48-78.586 16.23-133.703 38.43-152.614 46.66l-189.464-196.08v-432.27zM1283.17 1724.6l-288.303-342.81.305 287.03s49.058-1.28 128.598 13.38c118.21 21.81 159.4 42.4 159.4 42.4M929.156 728.582l.305-547.215s-54.512 23.012-162.32 93.274c-103.61 67.519-135.973 102.351-135.973 102.351zM1496.81 1530.29l-141.61 145.44L439.32 595.07c8.785-11.976 30.293-39.691 67.993-79.152 27.031-28.281 57.66-55.074 72-67.293zm-134.38 169.19 156.87-161.11 6.89-7.08-6.38-7.53L588.902 426.293l-6.976-8.219-8.274 6.856c-.125.109-44.254 36.398-82.097 76-52.836 55.297-75.016 88.566-75.078 88.664l-4.547 6.812 5.308 6.262L1346.33 1698.92l7.74 9.13z" style="fill:#2f9749;fill-opacity:1;fill-rule:nonzero;stroke:none" transform="matrix(.13333 0 0 -.13333 0 257.333)" data-source="https://football-logos.cc"></path><path d="M1253.41 600.055h-10.9c-2.58 0-4.61.035-6.07.113-2.31.078-3.71.113-4.19.113l-7.13-.226-1.89.179q-2.52.275-6.18.274c-2.31 0-6.25-.113-11.84-.34-2.66-.078-4.26-.113-4.82-.113l-10.59.226-16.97-.226h-6.71v6.906c9.93 12.203 17.4 20.73 22.4 25.574 5 4.848 12.12 12.903 21.35 24.16 6.44 7.731 10.86 14.641 13.28 20.746 2.41 6.098 3.62 11.387 3.62 15.868 0 5.019-.76 9.523-2.27 13.523-1.5 4-4.16 7.148-7.98 9.457q-5.73 3.462-12.45 3.461c-4.55 0-8.65-1.086-12.29-3.258q-5.46-3.259-7.98-8.246c-2.59-4.82-4.17-9.848-4.73-15.07h-7.72c-.15 2.926-.23 5.379-.23 7.351q0 9.902 7.86 18.989c8.11 9.39 19.54 14.089 34.28 14.089 12.3 0 21.98-3.382 29.03-10.136 7.06-6.762 10.6-15.274 10.6-25.531 0-4.075-.67-7.915-2-11.512-1.88-4.891-4.17-9.141-6.86-12.738q-4.035-5.403-22.17-23.028c-8.74-8.492-19.67-18.547-32.81-30.164l11.63-.226 19.06.433 11.11-.207c5.86 0 9.76.613 11.68 1.844 1.92 1.226 3.68 4.121 5.29 8.695.35 1.09.98 2.723 1.88 4.906l6.97.454 1.37-.454c.35-.543.52-1.05.52-1.523 0-1.086-.17-2.445-.52-4.07s-.76-4.305-1.21-8.032q-.69-5.59-3.42-22.261M1297.93 661.379c-2.1 2.578-3.82 4.609-5.15 6.101 12.76 9.012 21.27 16.356 25.55 22.028 2.81 3.621 4.21 7.547 4.21 11.781 0 4.371-1.62 8.164-4.84 11.375-3.22 3.207-6.91 4.816-11.04 4.816-8.55 0-16.34-5.152-23.34-15.445l-6.63 3.473c3.36 7.152 6.66 12.512 9.92 16.09 3.25 3.578 7.88 6.625 13.9 9.144 4.55 1.906 10.21 2.863 17 2.863 9.17 0 16.23-2.222 21.2-6.66 4.96-4.445 7.45-10.019 7.45-16.73 0-5.289-1.71-10.356-5.12-15.203-3.42-4.848-9.49-10.153-18.19-15.918h2.19c9.3 0 16.89-3.496 22.76-10.485 5.87-6.984 8.81-14.617 8.81-22.89q0-10.483-4.98-21.879c-3.32-7.598-9.42-13.992-18.29-19.18s-19.77-7.781-32.69-7.781c-12.51 0-22.04 2.129-28.61 6.383-4.19 2.699-6.28 5.875-6.28 9.527 0 2.563 1.01 4.797 3.04 6.688 2.03 1.89 4.61 2.836 7.76 2.836 2.66 0 5.1-.676 7.35-2.024 2.23-1.351 5.28-4.387 9.12-9.109q2.94-3.65 5.67-4.66c3.21-1.282 5.56-1.922 7.03-1.922 3.7 0 7.57 1.218 11.59 3.656q6.03 3.657 9.6 12.137 3.57 8.478 3.57 19.757c0 8.055-2.08 14.403-6.23 19.04-4.15 4.64-8.71 6.96-13.66 6.96-3.63 0-7.85-1.589-12.67-4.769M594.438 1454.08h18.823999999999998c.324-2.27.496-3.93.496-4.99 0-.36-.043-1.45-.121-3.3-.086-.99-.172-4.78-.246-11.37l-.25-16.04.121-10.1-.867-71.72v-6.05c0-2.13.531-3.65 1.593-4.58 1.067-.92 3.922-1.7 8.571-2.33 1.824-.21 5.48-.78 10.957-1.7.148-.73.23-1.42.23-2.06 0-.8-.082-2.54-.23-5.21h-4.891c-3.332 0-8.187.17-14.555.52-3.875.25-6.531.39-7.965.39-1.824 0-8.535-.22-20.136-.65a47 47 0 0 0-3.184-.13h-2.047l-3.3.26-3.075-.26-5.683.26c-.758 0-2.317-.14-4.66-.39-.161 1.59-.231 2.82-.231 3.69 0 .79.07 1.99.231 3.58 3.007.78 6.511 1.55 10.507 2.33 5.496 1.07 8.868 2.11 10.106 3.14 1.242 1.02 1.871 2.38 1.871 4.09l-.113 7.22.113 7.87v31.769999999999996c0 .92.144 3.79.453 8.61v14.23c0 1.07-.051 2.13-.152 3.2l-.301 2.65.453 7.22v9.25c0 2.4-.156 5.34-.453 8.82-5.289-3.75-11.316-7.51-18.086-11.26-.746-.45-4.098-2-10.043-4.66-2.387 3.23-3.914 5.65-4.578 7.27 8 3.98 13.437 6.91 16.305 8.8 4.753 3.18 9.882 7.18 15.39 11.96 2.336 2.1 5.321 5.32 8.946 9.67M660.102 1310.75c-1.207 1.35-1.805 2.66-1.805 3.94 0 1.2.379 2.15 1.133 2.86.367.49 2.547 1.45 6.527 2.87 7.809 2.82 14.523 6.24 20.156 10.24q8.448 6 14.188 14.55a57 57 0 0 1 8.172 18.48c1.613 6.61 2.492 11.84 2.644 15.66.074 1.28 1.692 17.2 1.692 22.3q0 27.075-6.961 37.17c-3.524 5.03-7.86 7.54-13.02 7.54-4.789 0-8.871-2.16-12.234-6.46-4.571-5.86-6.848-14.22-6.848-25.09 0-6.7.445-12.99 1.348-18.85.594-3.88 1.937-7.44 4.035-10.69 1.351-2.11 2.621-3.49 3.824-4.13 2.914-1.34 5.832-2.12 8.75-2.01 20.926.85 21.387 13.18 22.137 12.35.746-.82-2.422-12.96-2.422-14.53 0-2.74.488-4.32-12.113-7.88-4.934-1.39-9.953-1.29-15.602-1.29q-5.325 0-6.672.42c-7.09 2.4-11.508 4.21-13.238 5.42-4.371 2.96-7.707 5.99-10.008 9.07-2.297 3.08-4.015 6.6-5.144 10.57q-2.152 7.845-2.153 15.81c0 8.42 2.016 16.22 6.047 23.41 4.035 7.18 9.57 12.57 16.617 16.19 7.043 3.6 14.598 5.41 22.664 5.41 14.309 0 26.231-5.13 35.762-15.41 9.535-10.28 14.301-25.14 14.301-44.55 0-9.58-1.957-19.79-5.859-30.63q-1.47-4.05-8.243-15.15c-4.511-7.41-10.601-14.14-18.269-20.2q-11.503-9.105-24.254-13.35c-8.5-2.83-15.457-4.25-20.863-4.25-.981 0-2.407.07-4.289.21M592.914 514.605c.488 1.989 1.731 4.497 3.738 7.524 2.004 3.019 3.563 5.953 4.688 8.793q-1.161 1.677-1.766 2.324-.913 1.053-7.058 6.262l-16.778 14.09-8.804 7.843-7.09 5.774-3.93 3.566a796 796 0 0 1-15.105 13.172q-15.585 13.209-20.231 16.551l-4.89-3.945c-3.911-4.102-6.602-6.762-8.075-7.989l-4.703 3.692-.551 1.043q2.8 4.534 5.664 7.914a920 920 0 0 1 6.274 7.543c3.555 3.625 5.465 5.597 5.742 5.922l3.391 4.453 8.082 10.433c4.73 6.778 10.043 13.653 15.957 20.625q13.985 16.488 30.097 19.563c10.739 2.043 19.493.203 26.254-5.535 5.067-4.293 8.184-9.934 9.371-16.926 1.176-6.996-.25-14.996-4.277-24.016 1.594-.25 3.543-.437 5.852-.551q7.348-.445 12.265-1.027l30.293-3.633q11.766-1.697 14.332-1.316 2.571.374 8.082 3.707 4.335 2.535 7.235 3.391c1.109-.387 1.984-.844 2.621-1.391a28 28 0 0 0 1.625-1.512l-1.852-2.183-1.293-1.68-4.015-3.809-2.801-3.308q-2.508-2.32-5.719-6.106l-6.918-8.008q-.75-.883-4.332-6.027a540 540 0 0 1-2.629-3.738l-7.238 1.457c-5.633.922-9.754 1.707-12.367 2.363q-10.232 2.613-33.325 7.465-10.745 2.219-13.082 1.449c-2.406-.715-5.261-3.027-8.57-6.926q-1.358-1.6-4.469-5.574c1.25-1.461 2.879-3.035 4.875-4.73l17.079-13.586 13.582-12.551c2.117.797 4.418 2.219 6.914 4.266 4.351 3.527 8.343 6.343 11.984 8.441q3.738-3.176 5.379-5.117a81 81 0 0 1-1.719-1.871l-2.656-3.438q-16.172-16.107-18.902-19.336c-1.188-1.394-2.008-2.414-2.465-3.043l-8.797-11.679c-2.543-3.672-5-6.903-7.367-9.703l-2.946-3.469c-1.351.945-2.195 1.566-2.547 1.863-.554.469-1.253 1.211-2.109 2.234m-17.656 77.36q3.415 3.715 4.914 5.492c7.715 9.094 11.652 16.836 11.808 23.234q.237 9.598-7.449 16.114-4.745 4.025-10.105 6.175-5.366 2.143-9.156 1.801-5.443-.464-11.004-3.968-4.107-2.548-10.668-10.282c-2.075-2.449-3.727-4.656-4.965-6.621l1.289-1.387 10.312-8.453 5.934-5.523 8.309-6.848c2.183-2.113 5.07-4.761 8.671-7.945z" style="fill:#2f9749;fill-opacity:1;fill-rule:nonzero;stroke:none" transform="matrix(.13333 0 0 -.13333 0 257.333)"></path><path d="m687.754 616.863-4.965 4.508q.855 1.912 3.461 6.359c2.766 4.786 4.219 7.875 4.367 9.282q.228 2.09-1.601 6.976l-26.036 50-30.648 58.742q2.245 2.648 4.297 5.067l3.07 3.621 1.969-.426 42.887-12.344q13.889-3.631 26.394-7.738 12.504-4.118 20.696-6.367c3.269-.93 8.054-2.461 14.367-4.59q5.069-1.818 13.39-3.758 4.548-1.036 5.774-.66c1.586.348 3.449 1.528 5.578 3.531 2.137 2.008 4.742 3.914 7.828 5.727 1.883-1.133 3.223-2.035 4.023-2.719.352-.297.883-.789 1.586-1.484-3.375-3.981-7.269-8.219-11.671-12.711q-6.612-6.74-11.465-12.465c-3.602-4.246-6.153-7.363-7.641-9.336l-10.91-14.324-3.195-4.09a69 69 0 0 0-4.907 4.574l5.793 10.489q2.443 4.857 2.465 5.953c-.047.961-.394 1.722-1.043 2.273-.652.551-1.441.988-2.371 1.32l-10.086 3.051-20.113 6.188-26.133-30.824q2.152-4.754 11.621-21.989 2.685-4.91 4.117-6.125c1.305-1.105 2.547-1.515 3.739-1.23 2 .429 4.687 2.219 8.05 5.379.512.394 2.411 2.074 5.684 5.023a217 217 0 0 0 3.934-3.187 14 14 0 0 0 1.636-1.668c-2.828-3.336-10.05-10.899-21.664-22.68l-2.285-3.754c-2.785-4.488-5.703-8.535-8.762-12.144zm-10.133 73.844c10.797 12.426 17.149 19.762 19.059 22.02l1.629 2.078c-5.832 2.172-12.821 4.496-20.957 6.961q-12.207 3.697-18.922 5.246zM780.281 735.055c2.074 7.742 4.332 14.164 6.766 19.277.32 1.59.098 2.988-.652 4.184q-1.133 1.797-11.372 10.48-1.428 1.208-5.71 4.25l-1.809 1.531-15.887 13.621-11.367 9.485-3.164 2.988-3.016 2.551q-1.126.956-3.101 3.207l-3.742 2.301-.731.816q-1.084 1.32-2.812 2.785-7.986 6.767-12.942 8.699c-3.086-.824-7.07-3.031-11.953-6.605q-4.159-3.034-7.035-4.082l-4.008 4.375c.672 1 1.422 1.988 2.242 2.957q5.55 6.543 11.028 11.617 5.477 5.08 13.972 15.098l6.586 8.582c3.375 4.086 5.864 7.34 7.469 9.777 1.211 1.746 2.09 2.946 2.641 3.59a52 52 0 0 0 2.066 2.281 7.2 7.2 0 0 0 1.805-1.14c1.468-1.246 2.48-2.239 3.039-2.969-1.711-4.344-3.633-8.285-5.762-11.813-2.133-3.531-3.18-5.671-3.141-6.441.008-1.211.614-2.316 1.813-3.336l5.851-4.961q1.2-1.018 4.2-3.262c3.047-2.386 5.148-4.07 6.297-5.043q1.128-.96 4.882-4.433l5.7-4.836 5.254-4.754c.253-.215.625-.484 1.125-.805q.3 9.733-.829 27.34-.573 8.25-.632 12.879c-.055 1.246-.524 8.168-1.407 20.754-.929 4.574-1.554 7.137-1.871 7.68l-1.07-.196q-5.12-4.25-7.399-6.613c-1.011-1.086-2.937-2.594-5.769-4.527-.875.558-2.367 1.726-4.477 3.515l-.886.891 3 3.539q2.183 2.579 6.113 6.504c2.617 2.621 4.562 4.68 5.84 6.187l16.121 19.665a414 414 0 0 0 7.703 10.894l5.891-4.996q-.861-1.629-3.45-6.223-5.31-12.122-6.582-16.855c-.851-3.164-1.382-6.59-1.601-10.289-.215-3.699-.278-10.821-.192-21.387.114-14.297.305-22.957.59-25.976 1.969.085 4.297.234 6.985.464l4.82.5q1.366.084 3.383.184l32.949 1.516 28.523.257c3.274 0 5.489.024 6.641.063l2.449.148c1.899-.043 3.11.028 3.629.231.719.222 2.028.996 3.938 2.316q1.463 1.101 8.468 4.539 1.44-.939 2.161-1.551c.578-.496 1.382-1.363 2.406-2.593l-7.645-8.758c-.992-.918-2.48-2.469-4.484-4.649l-7.02-7.621-1.359-1.757-9.504-11.051c-.914-1.078-3.273-4.196-7.09-9.36-2.004-2.734-3.371-4.535-4.097-5.394a58 58 0 0 0-1.711-1.871c-1.032.375-1.789.769-2.282 1.187-.586.5-1.375 1.36-2.351 2.59a94 94 0 0 0 4.215 8.809c1.254 2.09 1.855 3.664 1.8 4.734-.05 1.067-.406 1.875-1.066 2.438q-1.026.181-1.687.328-2.371.76-6.008.801c-.805-.043-8.028-.403-21.656-1.083l-38.387-2.242c1.644-1.695 3.582-3.484 5.816-5.383 3.141-2.656 5.879-4.812 8.235-6.464q.737-.502 9.953-8.059l6.64-5.926 7.664-5.929c2.567.398 5.977 2.113 10.235 5.136 2.457 1.793 4.969 3.157 7.551 4.106 1.121-.68 1.933-1.219 2.421-1.641.399-.332.969-.91 1.715-1.726-2.051-2.622-3.672-4.629-4.859-6.036-1.281-1.507-2.375-2.757-3.293-3.738l-10.223-11.078a102 102 0 0 1-4.051-4.492c-1.324-1.563-2.921-3.598-4.781-6.098l-12.25-14.23c-.504-.59-2.597-3.219-6.289-7.875zM831.105 887.039c-6.21 5.27-11.359 11.844-15.437 19.734-2.914 5.704-4.82 11.832-5.711 18.407q-1.334 9.85.754 21.23c1.391 7.586 3.699 14.574 6.93 20.973 3.226 6.398 7.621 12.871 13.175 19.422q14.2 16.745 30.508 24.095c10.871 4.9 21.645 6.88 32.317 5.96 13.855-1.24 25.547-5.89 35.066-13.96 14.184-12.025 21.953-27.494 23.313-46.416 1.363-18.918-5.766-37.578-21.379-55.988-3.868-4.562-7.766-8.594-11.68-12.101-2.949-2.668-5.734-4.829-8.348-6.493-4.711-3.015-7.375-4.679-7.984-4.992q-12.1-4.828-21.492-6a65.3 65.3 0 0 0-18.699.352q-5.164.92-16.368 5.996-7.218 3.208-14.965 9.781m4.442 90.246q-5.955-7.02-7.496-15.012c-1.028-5.328-1.086-9.941-.184-13.851 1.563-6.598 4.262-12.629 8.102-18.109q5.765-8.214 16.363-17.2c4.305-3.652 7.551-6.082 9.719-7.273.695-.406 1.863-1.113 3.496-2.129 4.117-2.66 7.305-4.391 9.555-5.191 8.328-3.086 13.652-4.778 15.976-5.086 3.922-.551 8.485-.301 13.68.746 2.676.511 5.844 1.84 9.523 3.996 3.68 2.148 6.817 4.762 9.418 7.824 4.922 5.813 8.235 12.277 9.922 19.402 1.688 7.118.777 14.758-2.73 22.911q-5.263 12.23-19.848 24.601c-4.004 3.395-9.695 7.707-17.063 12.941l-1.769.809c-.539.18-1.793.777-3.766 1.801q-14.86 7.47-28.472 4.515c-9.078-1.964-17.223-7.195-24.426-15.695M973.859 1148.28c2.102-.58 7.602-2.8 16.5-6.64 4.036-1.76 7.883-4.14 11.541-7.16l-6.22-7.34c-11.215.65-20.637-.51-28.282-3.46-7.64-2.95-14.332-7.8-20.07-14.57-7.066-8.33-9.73-17.63-7.996-27.87q3.517-20.865 25.543-39.54c8.523-7.23 15.09-11.78 19.707-13.66 7.504-3.04 14.363-4.65 20.578-4.84 4.72-.12 9.46.94 14.21 3.19 6.27 2.82 11.68 6.92 16.24 12.29 5.02 5.91 8.15 13.07 9.41 21.47 1.27 8.39.66 17.99-1.82 28.77 1.35 2.3 3.37 5.09 6.07 8.37 1.71-1.82 3.37-3.84 5-6.05.66-.84 3.29-4.14 7.89-9.91l1.62-2.63 2.54-4.11c-.41-5.29-2.53-11.41-6.38-18.35s-9.44-14.74-16.77-23.39c-5.61-6.61-11.47-12.37-17.62-17.27-6.14-4.91-12.25-8.39-18.3-10.45-8.805-3.08-16.793-4.56-23.965-4.49q-10.759.12-20.351 3.9c-6.403 2.51-12.684 6.39-18.852 11.61-14.937 12.67-22.793 28.4-23.57 47.21-.774 18.8 5.785 36.4 19.683 52.79 5.649 6.66 11.274 12.67 16.891 18.02 5.609 5.36 11.199 10.06 16.773 14.11M1083.7 1083.82c-1.99 1.41-4.13 3.08-6.4 5.01-1.7 7.44-4.64 22.76-8.83 45.97l-1.7 9.88c-.17 1.72-.66 4.35-1.45 7.88q-1.83 7.92-3.69 19.8c-1.24 7.94-3.26 18.44-6.05 31.51-1.12 5.47-1.98 9.84-2.57 13.11q-1.125 6.9-1.92 9.93l-1.71-2.01-6.02-6.95c-5.1-6.02-10.9-13.59-17.4-22.72-6.49-9.13-10.47-15.56-11.94-19.3-1.12-2.84-1.66-5.61-1.64-8.31 0-5.26.35-9.2 1.04-11.82q.345-1.41.69-2.67c-1.52-2.3-2.39-3.59-2.62-3.85-.41-.48-1.08-1.07-2-1.76-1.68 1.98-8.42 11.76-20.201 29.34l3.77 5.14c5.125-1.38 8.141-1.95 9.061-1.71 1.73.48 3.83 2.17 6.29 5.07.47.54.84 1.05 1.16 1.53l.48.56c3.33 4.59 11.6 15.44 24.82 32.55 8.42 10.91 15.09 19.28 20.02 25.09l5.3 5.93 8.69 10.41c1.23-.87 2.37-1.7 3.41-2.48.46-.76 1.34-4.75 2.66-11.97.95-5.07 1.8-9.16 2.52-12.27l1.81-7.92.1-.51 8.42-45.87 6.87-35.67c1.81-9.86 3.54-18.36 5.17-25.48 3.38 2.87 7.21 6.84 11.51 11.9l4.65 5.5 3.12 3.32c5.52 6.5 9.68 12.02 12.5 16.57 2.82 4.54 4.72 8.77 5.72 12.68.98 3.92 1.4 7.91 1.23 11.98-.17 4.08-1.35 10.37-3.53 18.88 1.35 1.89 2.32 3.19 2.91 3.89l1.71 2.01 14.9-15.15.68-.57c1.01-.86 4.44-4.41 10.28-10.68l-28.34-31.47q-3.57-4.05-5.55-6.39l-7.95-9.36-7.81-9.07-1.44-1.69-17.98-22.77c-1.55-2.13-2.93-3.91-4.16-5.36-1.1-1.3-2.33-2.71-3.71-4.23-1.92-2.06-3.55-3.87-4.88-5.43M1179.45 1196.72l-5.36 4.54c.61 1.33 1.68 3.45 3.21 6.39 2.16 4.15 3.53 7.46 4.13 9.9-.73 2.28-2.47 4.6-5.23 6.94l-8.95 7.45-17.01 14.7-4.13 3.36c-9.64 8.77-14.61 13.28-14.91 13.54l-10.08 8.4-3.92 3.61-8.79 7.02-3.39 2.57c-.55.37-1.51.85-2.89 1.46-2.84-1.41-6.49-4.5-10.96-9.26-1.04-1.15-1.9-2.05-2.58-2.69l-6.73 5.41 20.44 22.3c2.52 2.77 4.07 4.5 4.66 5.2 2.69 3.17 6.8 8.42 12.33 15.74 3.08 4.13 5.03 6.73 5.84 7.8.99-.76 1.81-1.42 2.46-1.97.85-.72 1.91-1.69 3.17-2.92-1.13-2.75-2.58-5.78-4.32-9.09-1.75-3.31-3.06-6.13-3.92-8.46 1.03-1.43 2.77-3.18 5.23-5.27 2.15-1.83 3.97-3.23 5.46-4.22 8.34-7.35 14.8-12.96 19.36-16.83l19.93-16.76 9.95-8.71 15.11-12.67 2.86-2.43c.4-.34 1.05-.75 1.94-1.23 3.45 2.76 6.45 5.38 9 7.88.47.45 2.07 1.93 4.81 4.45 1.68-1.05 3.02-2 4.01-2.85.55-.46 1.38-1.21 2.48-2.23-.6-.7-1.02-1.26-1.3-1.68-1.35-1.8-2.15-2.84-2.38-3.11-.32-.37-.98-1.01-1.99-1.91-.74-.66-4.1-3.95-10.11-9.85l-12.25-14.15q-3.615-4.26-9.81-13.02c-2.71-3.78-4.51-6.23-5.37-7.35M1268.78 1301.02l-5.37 4.84c.76 1.41 2.05 3.69 3.89 6.87 1.83 3.18 3.59 6.42 5.27 9.73l.4 2.3q-2.37 3.3-5.52 5.97l-.45.39-17.59 14.43-7.23 6.25-11 8.81-12.63 11-25.99 20.37c-1.35-.25-4.23-2.3-8.63-6.15-1.11-.91-2.8-2.15-5.11-3.71l-2.29-1.39-5.24 4.44 9.36 10.31c6.02 5.95 14.33 15.16 24.91 27.65a578 578 0 0 1 16.17 20.01l1.22 1.6 3.42 3.87 1.29 1.68 2.86 3.37 11.74 14.79c.54.64 1.21 1.52 1.99 2.66.79 1.13 1.54 2.17 2.26 3.12 1.78-.95 3.47-2.02 5.07-3.18l15.19-10.8c1.5-1.28 2.53-2.42 3.06-3.41-1.42-2.19-2.53-3.74-3.31-4.67-.93-1.09-1.9-1.78-2.9-2.05-.57-.07-2.21.27-4.93 1.02-6.94 2.03-11.54 2.66-13.79 1.87q-3.39-1.185-12.54-11.97l-9.05-11.28c-3.93-4.73-6.81-8.64-8.67-11.74-.39-.68-.87-1.74-1.42-3.2q.855-2.505 3.57-4.8l9.1-7.42 10.09-8.86q7.845-6.645 10.11-7.62c.72.23 1.23.47 1.55.76l4.91 5.62 8.16 9.63c1.81 2.13 4.34 5.63 7.6 10.5 2.24 3.34 3.42 5.55 3.55 6.63.29 1.97.05 3.75-.7 5.36-.76 1.6-3.41 4.56-7.96 8.89.22.26.81 1.01 1.75 2.24.57.79.98 1.33 1.21 1.6.5.59 1.58 1.69 3.25 3.33l11.64-10.71c2.53-2.21 4.67-4.16 6.43-5.86l1.79-1.24c.55-.38 4.28-3.5 11.22-9.38.46-.38 1.19-1.05 2.19-1.99-.68-1.2-1.27-2.11-1.77-2.7-.37-.43-1.41-1.37-3.14-2.79-1.37.33-3.2.96-5.51 1.91-5.01 2.13-8.46 2.76-10.33 1.87-3.39-1.55-10.84-9.11-22.35-22.69-1.68-1.98-3.45-4.43-5.32-7.35 1.79-2.16 4.06-4.42 6.83-6.76l22.94-18.76c4.22-3.48 7.18-5.17 8.92-5.07 1.1.08 3.41 1.59 6.92 4.51l1.52 1.49c2.2 2.28 4.32 4.13 6.37 5.53l2.3 1.79c1.51-.91 2.62-1.67 3.33-2.27.76-.65 1.66-1.55 2.69-2.7l-1.37-1.47-2.05-2.57-10.33-10.95c-1.15-1.24-6.29-7.25-15.42-18.01a103 103 0 0 1-6.75-8.86c-3.16-4.63-4.89-7.13-5.21-7.51-2.97-3.5-5.03-5.87-6.17-7.12M1338.45 1578.24c2.09-.58 7.6-2.79 16.5-6.65 4.03-1.75 7.87-4.13 11.53-7.14l-6.22-7.34c-11.21.64-20.63-.52-28.28-3.47-7.64-2.94-14.33-7.8-20.07-14.57-7.06-8.33-9.73-17.62-7.99-27.87 2.34-13.91 10.86-27.08 25.54-39.54 8.52-7.22 15.09-11.78 19.7-13.66 7.51-3.04 14.37-4.64 20.59-4.84 4.72-.12 9.46.95 14.21 3.2 6.26 2.81 11.68 6.91 16.24 12.28 5.01 5.92 8.14 13.07 9.41 21.47 1.27 8.39.66 17.99-1.82 28.78 1.35 2.29 3.37 5.08 6.07 8.36 1.71-1.82 3.37-3.84 5-6.05.66-.84 3.28-4.14 7.89-9.91l1.61-2.63 2.54-4.11c-.4-5.29-2.52-11.41-6.37-18.35s-9.44-14.74-16.77-23.39c-5.61-6.61-11.48-12.36-17.62-17.27-6.15-4.91-12.25-8.39-18.3-10.45-8.81-3.07-16.79-4.57-23.97-4.48-7.17.07-13.95 1.37-20.35 3.89-6.41 2.51-12.69 6.38-18.85 11.61-14.94 12.67-22.79 28.41-23.57 47.21-.78 18.81 5.79 36.41 19.68 52.79q8.475 9.99 16.89 18.03c5.61 5.35 11.21 10.05 16.78 14.1M632.684 759.773l1.207 33.922-12.11-3.914-1.211-11.742zM828.914 989.926l1.215 33.924-12.117-3.92-1.207-11.74z" style="fill:#2f9749;fill-opacity:1;fill-rule:nonzero;stroke:none" transform="matrix(.13333 0 0 -.13333 0 257.333)" data-source="https://football-logos.cc"></path><!-- source: https://football-logos.cc --></svg>