<svg xmlns="http://www.w3.org/2000/svg" xml:space="preserve" viewBox="0 0 736.71 736.7"><!-- Source: https://football-logos.cc --><rect width="100%" height="100%" fill="none" data-source="https://football-logos.cc"></rect><g class="currentLayer" data-source="https://football-logos.cc"><g><path d="M736.714 368.354c0 203.439-164.913 368.35-368.359 368.35C164.913 736.704 0 571.793 0 368.354 0 164.917 164.913 0 368.355 0c203.446 0 368.359 164.917 368.359 368.354" style="fill:#bda86e;fill-opacity:1;fill-rule:nonzero;stroke:none"></path><path d="M593.014 368.354c0 124.077-100.578 224.655-224.659 224.655-124.076 0-224.656-100.578-224.656-224.655 0-124.075 100.58-224.657 224.656-224.657 124.081 0 224.66 100.582 224.66 224.657m-224.66 351.973c194.08 0 351.98-157.895 351.98-351.973 0-194.08-157.9-351.978-351.98-351.978S16.378 174.273 16.378 368.354c0 194.078 157.897 351.973 351.977 351.973" style="fill:#fff;fill-opacity:1;fill-rule:nonzero;stroke:none"></path><path d="m127.059 430.025-63.17 35.883-3.238-14.788 35.747-18.642 16.255-7.931-.066-.297-18.08-.406-40.245-1.897-3.174-14.49 72.43 6.395zM119.687 337.074l-.09 14.933-17.809 5.074-.12 20.319c3.55.833 14.199 4.15 17.749 5.083l-.088 14.527-69.36-21.444.109-17.776zM61.5 367.104l8.216 2.182 21.198 5.61.093-15.542-21.266 5.561-8.24 1.984zM109.965 298.222c-13.242-3.142-16.679 26.738-38.227 21.627-11.86-2.814-16.537-14.783-13.396-28.027 1.618-6.82 4.386-12.325 7.173-16.153l10.579 4.703c-2.426 3.182-5.274 8.146-6.704 14.175-1.48 6.227.817 10.634 4.97 11.618 12.156 2.885 15.959-27.221 37.902-22.015 11.959 2.837 18.004 13.876 14.16 30.089-1.594 6.719-5.105 14.03-8.141 17.59l-10.724-4.528c3.376-4.104 6.506-10.254 7.937-16.283 1.569-6.623-.388-11.576-5.53-12.796M158.79 230.84l-6.665 13.364-18.221-3.295-9.063 18.183c2.819 2.315 10.915 9.982 13.69 12.387l-6.481 13-52.808-49.818 7.933-15.911zm-65.467 1.304 6.412 5.581 16.555 14.382 6.935-13.911-21.539-4.38-8.273-1.853zM167.183 191.773c-10.503-8.66-26.762 16.642-43.846 2.553-9.407-7.755-8.327-20.56.334-31.062 4.46-5.409 9.37-9.127 13.56-11.334l7.42 8.884c-3.58 1.788-8.324 4.987-12.268 9.767-4.07 4.937-3.953 9.906-.662 12.62 9.638 7.95 26.327-17.396 43.727-3.047 9.484 7.821 10.044 20.396-.557 33.249-4.395 5.329-10.769 10.343-15.064 12.2l-7.63-8.792c4.84-2.198 10.36-6.336 14.304-11.117 4.33-5.25 4.759-10.561.682-13.92M223.698 96.971l-22.475 14.065 9.481 15.156 20.843-13.04 5.517 9.97-20.323 12.716 15.194 24.286-11.712 7.327-36.804-58.818 34.795-21.77zM254.329 114.85l-13.315-39.463 13.089-4.418 13.543 40.14c3.412 10.107 9.821 14.483 17.713 11.821 8.279-2.794 10.792-9.645 7.218-20.233l-13.543-40.14 13.092-4.416 12.632 37.443c6.53 19.348 1.596 32.055-16.116 38.03-15.979 5.392-28.046-.186-34.313-18.763M315.424 65.322l-.346-11.699 49.273-4.454.346 11.699-17.403 1.572 5.195 57.468-13.862 1.253-5.195-57.467zM386.624 50.401c5.103.152 12.71.731 20.062 1.688 15.315 1.992 25.871 7.463 24.13 20.86-.855 6.55-5.642 11.868-13.247 13.645l-.03.202c7.094 2.97 12.555 9.826 11.411 18.591-1.977 15.212-14.177 18.44-36.039 15.595-6.342-.825-11.346-1.782-15.145-2.481zm8.597 39.432L392.6 109.98c1.792.438 3.807.7 6.224 1.015 8.561 1.114 14.832-.631 15.83-8.287.902-6.951-4.118-10.883-11.47-11.84zm3.607-27.703-2.255 17.327 6.65.865c8.261 1.076 12.724-1.725 13.48-7.567.776-5.945-3.114-9.114-9.661-9.967a82 82 0 0 0-8.214-.658M486.208 147.098l-13.919-5.41 1.604-18.446-18.932-7.359c-2.05 3.02-8.94 11.785-11.08 14.767l-13.541-5.26 44.768-57.152 16.572 6.44zm-7.306-65.07-4.966 6.897-12.807 17.804 14.49 5.63 2.388-21.851 1.088-8.406zM542.221 101.733 509.88 149.64l23.401 15.803-7.07 9.2-34.266-23.137L530.774 94zM591.68 141.584l-41.186 40.56 19.816 20.121-8.747 7.62-29.016-29.459 49.433-48.686zM606.59 265.327c2.237 4.674 5.569 9.277 8.7 12.057l-9.47 6.106c-3-2.506-7.082-7.985-10.33-14.766-9.732-20.344-.672-36.953 17.106-45.458 19.614-9.383 38.594-3.6 47.758 15.554 3.246 6.78 4.727 13.168 4.702 16.894l-10.913 3.08c-.24-4.274-1.383-9.248-3.837-14.38-5.392-11.27-16.635-15.238-30.932-8.399-13.565 6.489-18.568 17.217-12.784 29.312M677.212 291.251l-56.3 13.102 6.403 27.506-11.441 1.933-9.374-40.27 67.58-15.726zM644.939 341.383h41.653v13.816H644.23c-10.666 0-16.866 4.675-16.866 13.005 0 8.735 5.694 13.306 16.866 13.306h42.363v13.817h-39.52c-20.418 0-30.88-8.736-30.88-27.43 0-16.862 9.14-26.514 28.747-26.514M682.035 423.642c-.745 5.05-2.213 12.538-4.022 19.728-3.776 14.974-10.444 24.816-23.546 21.514-6.403-1.61-11.128-6.99-12-14.752l-.192-.053c-3.783 6.696-11.232 11.313-19.806 9.155-14.874-3.746-16.649-16.243-11.262-37.618 1.565-6.207 3.098-11.056 4.24-14.751zm-40.164 3.918-19.703-4.964c-.643 1.723-1.142 3.694-1.737 6.058-2.11 8.373-1.112 14.806 6.379 16.69 6.794 1.715 11.286-2.81 13.101-10.002zm27.086 6.827-16.943-4.27-1.634 6.5c-2.039 8.078.222 12.837 5.934 14.276 5.814 1.465 9.415-2.026 11.027-8.428a81 81 0 0 0 1.616-8.078M172.393 534.805c3.98 3.195 9.7 8.242 14.992 13.441 11.018 10.82 16.144 21.544 6.677 31.186-4.626 4.711-11.652 6.07-18.795 2.901l-.142.145c3.87 6.646 4.092 15.406-2.1 21.713-10.748 10.947-22.427 6.166-38.156-9.277-4.567-4.484-7.978-8.262-10.591-11.11zm-16.907 36.647-14.235 14.496c1.164 1.428 2.613 2.85 4.35 4.557 6.163 6.052 12.217 8.439 17.629 2.932 4.91-5.002 3.274-11.165-2.017-16.364zm19.574-19.935-12.242 12.471 4.783 4.694c5.943 5.84 11.192 6.293 15.32 2.09 4.2-4.277 3.006-9.15-1.705-13.777a82 82 0 0 0-6.156-5.478M191.868 608.904l21.536-35.653 11.827 7.147-21.907 36.258c-5.517 9.13-4.72 16.85 2.408 21.157 7.48 4.516 14.334 2.013 20.112-7.551l21.907-36.26 11.827 7.144-20.437 33.823c-10.558 17.479-23.449 21.916-39.445 12.251-14.436-8.72-17.968-21.536-7.828-38.316M267.992 605.596c6.109 1.211 13.293 3.068 20.49 5.25 23.235 7.037 30.745 22.898 24.652 43.021-7.096 23.434-23.674 30.513-48.858 22.887-6.707-2.033-11.968-3.945-16.185-5.432zm10.191 14.019-13.75 45.405c1.305.605 3.246 1.194 5.094 1.753 14.293 4.329 24.52-.004 29.643-16.923 4.359-14.388-.451-24.444-13.382-28.358a74 74 0 0 0-7.605-1.877M379.167 694.353l-14.91-.856-4.154-18.045-20.283-1.163c-1.016 3.501-4.873 13.966-5.989 17.464l-14.502-.834 24.973-68.166 17.749 1.02zm-27.004-59.65-2.6 8.093-6.694 20.88 15.518.89-4.465-21.522-1.557-8.33zM409.151 664.45l4.275 25.757-13.425 2.23-11.273-67.845c5.127-1.367 11.478-2.835 19.49-4.166 14.535-2.414 28.055.282 30.738 16.416 2.435 14.632-6.487 24.146-21.753 26.477-1.107.182-6.933 1.05-8.052 1.13m-1.815-10.922c1.635-.065 3.253-.231 5.358-.583 8.64-1.332 13.852-5.904 12.583-13.52-1.263-7.617-6.343-9.654-14.358-8.324-3.006.5-5.393.999-7.064 1.483zM484.813 609.522l-24.976 9.77 6.03 15.423 23.275-9.107 3.482 10.857-22.607 8.844 6.77 17.312 26.87-10.509 3.48 10.854-39.074 15.285-25.277-64.617 38.413-15.026zM540.879 621.439c-7.371-11.448-30.561 7.707-42.544-10.914-6.602-10.25-1.67-22.119 9.77-29.489 5.899-3.792 11.708-5.84 16.366-6.666l4.365 10.72c-3.956.613-9.445 2.216-14.659 5.571-5.38 3.463-6.781 8.23-4.473 11.82 6.765 10.503 30.375-8.56 42.581 10.404 6.656 10.336 3.36 22.485-10.648 31.504-5.808 3.739-13.408 6.575-18.061 7.033l-4.594-10.694c5.278-.621 11.797-2.884 17.01-6.237 5.724-3.684 7.742-8.612 4.887-13.052M536.022 577.842l-7.612-8.89 35.552-34.4 7.612 8.89-12.554 12.15 40.12 41.47-10.005 9.676-40.12-41.467z" style="fill:#bda86e;fill-opacity:1;fill-rule:nonzero;stroke:none"></path><path d="M568.309 310.066c5.381 18.495 8.273 38.056 8.273 58.288 0 114.999-93.23 208.223-208.227 208.223-114.998 0-208.222-93.224-208.222-208.223 0-20.232 2.887-39.793 8.267-58.288z" style="fill:#265eb4;fill-opacity:1;fill-rule:nonzero;stroke:none"></path><path d="M568.309 310.066c-25.21-86.63-105.184-149.932-199.954-149.932-94.763 0-174.741 63.303-199.955 149.932z" style="fill:#ed1a2b;fill-opacity:1;fill-rule:nonzero;stroke:none"></path><path d="m294.029 277.872 7.203-18.03h8.387l-12.677 29.683h-5.982l-12.483-29.683h8.385zM325.011 284.37l-2.047 5.155h-8.189l11.418-29.683h8.426l11.177 29.683h-8.228l-1.927-5.156zm5.39-15.355h-.075l-3.186 9.45h6.415zM413.715 284.37l-2.05 5.155h-8.195l11.425-29.683h8.421l11.185 29.683h-8.231l-1.93-5.156zm5.393-15.355h-.078l-3.2 9.45h6.43zM457.095 267.479c-1.42-1.182-3.228-1.969-5.116-1.969-1.426 0-3.307.826-3.307 2.48 0 1.734 2.086 2.403 3.427 2.836l1.966.59c4.132 1.22 7.318 3.307 7.318 8.11 0 2.952-.698 5.985-3.068 7.99-2.319 1.971-5.433 2.798-8.423 2.798-3.74 0-7.401-1.26-10.431-3.385l3.307-6.222c1.923 1.694 4.214 3.072 6.848 3.072 1.805 0 3.746-.906 3.746-2.993 0-2.167-3.036-2.914-4.69-3.386-4.841-1.379-8.033-2.638-8.033-8.386 0-6.024 4.293-9.96 10.233-9.96 2.995 0 6.662.943 9.296 2.44zM425.116 468.898v-4.572h8.375v20.777h-5.401v-16.205zM443.326 485.103l5.923-6.999-.048-.057c-.938.414-1.822.637-2.922.637-4.077 0-6.667-3.502-6.667-7.332 0-5.102 4.184-7.856 8.927-7.856 2.01 0 4.323.494 5.922 1.792 1.685 1.353 2.785 3.553 2.785 5.73 0 3.005-1.545 5.901-3.332 8.274l-4.436 5.81zm1.9-13.92c0 1.905 1.438 3.418 3.343 3.418 1.895 0 3.44-1.513 3.44-3.418 0-1.9-1.545-3.41-3.44-3.41-1.905 0-3.342 1.51-3.342 3.41M462.92 468.898v-4.572h8.377v20.777h-5.4v-16.205zM479.702 468.898v-4.572h8.383v20.777h-5.4v-16.205z" style="fill:#bda86e;fill-opacity:1;fill-rule:nonzero;stroke:none"></path><path d="M359.42 191.195c-19.868 11.218-26.905 36.509-15.682 56.375l41.845 74.095c2.585 4.575 3.228 9.9 1.815 14.983-1.418 5.083-4.714 9.31-9.289 11.892-9.474 5.349-21.53 1.996-26.877-7.474l-1.028-1.824-18.855 10.648 1.027 1.819c11.22 19.868 36.512 26.908 56.382 15.683 9.614-5.428 16.534-14.285 19.499-24.942 2.963-10.655 1.61-21.82-3.818-31.432l-41.852-74.094c-5.342-9.47-1.987-21.528 7.478-26.877 9.474-5.348 21.53-1.994 26.875 7.476l1.029 1.822 18.855-10.646-1.028-1.822c-11.22-19.867-36.508-26.905-56.375-15.682" style="fill:#bda86e;fill-opacity:1;fill-rule:nonzero;stroke:none"></path><path d="M319.086 413.82c-15.654 14.416-25.463 35.086-25.463 58.046 0 43.562 35.317 78.881 78.885 78.881 30.42 0 56.816-17.224 69.978-42.445l-18.778-10.896c-9.398 18.768-28.824 31.69-51.2 31.69-31.56 0-57.231-25.677-57.231-57.23 0-15.23 5.976-29.082 15.705-39.346l.168-.142 33.658 52.847h25.014l124.074-225.883h-24.73L376.864 463.82l-28.057-44.035.186-.092a56.95 56.95 0 0 1 23.516-5.052c4.778 0 9.42.59 13.862 1.692l10.672-19.458c-7.714-2.526-15.97-3.89-24.534-3.89-12.649 0-24.604 2.972-35.198 8.268l-.247.104-90.476-142.015h-25.631l98.283 154.333z" style="fill:#bda86e;fill-opacity:1;fill-rule:nonzero;stroke:none"></path></g></g><!-- source: https://football-logos.cc --></svg>