<svg xmlns="http://www.w3.org/2000/svg" viewBox="0 0 513.82 589.72"><!-- Source: https://football-logos.cc --><defs data-source="https://football-logos.cc"><clipPath id="a"><path d="M0 0h513.82v589.719H0Zm0 0"></path></clipPath></defs><g clip-path="url(#a)"><path d="M256.914 589.719c-14.062-13.871-24.219-13.078-56.637-14.266-43.746-1.605-76.168-3.965-126.55-41.223-47.047-34.78-71.48-91.554-71.872-147.437-.39-55.887 21.094-91.953 35.153-113.75 14.062-21.8 21.484-39.238 21.484-60.246s-10.449-43.004-22.168-57.57S0 130.555 0 130.555L93.316-.004c48.922 12.438 104.57 19.469 163.598 19.469 59.024 0 114.676-7.031 163.594-19.469l93.316 130.559S489.22 140.66 477.5 155.227s-22.164 36.562-22.164 57.57 7.418 38.445 21.48 60.246c14.063 21.797 35.543 57.863 35.153 113.75-.387 55.883-24.824 112.656-71.867 147.437-50.387 37.258-82.805 39.618-126.555 41.223-32.418 1.188-42.574.395-56.633 14.266" style="stroke:none;fill-rule:nonzero;fill:#231f20;fill-opacity:1"></path></g><path d="M418.496 5.355c3.43 4.801 81.98 114.704 88.098 123.262-8.223 3.965-23.809 12.453-32.801 23.63-11.223 13.952-23.215 37.187-23.215 60.55 0 23.523 8.89 42.129 22.242 62.82 11.2 17.363 34.399 53.328 34.399 109.7 0 .48-.004.96-.004 1.44-.402 57.868-26.55 111.567-69.942 143.65-48.41 35.796-78.62 38.628-123.898 40.292l-7.191.25c-24.961.84-36.454 1.258-49.27 12.317-12.82-11.059-24.312-11.477-49.273-12.317l-7.192-.25c-45.277-1.664-75.488-4.496-123.898-40.289-43.387-32.086-69.535-85.785-69.938-143.652q-.007-.718-.008-1.438c0-56.375 23.204-92.34 34.399-109.703 13.351-20.691 22.242-39.297 22.242-62.82 0-23.367-11.992-46.598-23.215-60.55-8.992-11.177-24.574-19.665-32.8-23.63 6.117-8.558 84.667-118.46 88.101-123.262 49.695 12.32 105.457 18.868 161.582 18.868 56.121 0 111.883-6.547 161.582-18.868" style="stroke:none;fill-rule:nonzero;fill:#917b50;fill-opacity:1"></path><path d="m19.781 415.445 395.524-396.11.043.024 75.406 105.496-4.223 2.7c-9.027 5.773-16.12 11.824-21.074 17.984-15.473 19.234-24.922 43.348-25.547 64.98l-.015.114L110.98 540.03l-.05-.039c-8.696-4.758-17.907-10.715-28.016-18.187-33.398-24.696-55.902-63.145-63.113-106.27zM18.523 406.61 405.117 19.44l-.097.024c-46.766 10.258-96.56 15.457-148.106 15.457-53.71 0-105.516-5.645-153.976-16.774l-3.09-.71-76.774 107.417 4.219 2.7c9.031 5.773 16.121 11.828 21.074 17.984 16.02 19.91 25.582 45.055 25.582 67.258 0 27.68-11.511 49.34-23.953 68.625C33.02 307.742 17.31 338.535 17.31 385.23l.003 1.457c.047 6.665.454 13.27 1.208 19.786z" style="stroke:none;fill-rule:nonzero;fill:#231f20;fill-opacity:1"></path><path d="M24.898 417.05 414.703 26.669l.05.035c14.278 19.98 52.74 73.79 69.216 96.844-7.785 4.98-16.086 11.39-22.219 19.012-15.648 19.453-25.379 43.777-26.52 65.918l-.007.101L110.18 534.105l-.043-.03c-7.621-4.352-15.668-9.641-24.395-16.095-31.785-23.503-53.406-59.882-60.832-100.828z" style="stroke:none;fill-rule:nonzero;fill:#fff;fill-opacity:1"></path><path d="M117.613 543.488 440.18 220.445v.09c1.894 24.04 12.39 43.438 23.648 60.887 16.977 26.32 32.688 57.117 32.688 103.808l-.004 1.454c-.38 54.515-24.903 105.027-65.602 135.12-45.969 33.989-73.398 36.567-117.937 38.2l-7.149.25c-20.531.691-34.094 1.148-46.566 8.226l-2.344 1.329-2.348-1.329c-12.472-7.078-26.035-7.535-46.57-8.226l-7.152-.25c-32.153-1.18-55.39-2.852-83.13-16.484z" style="stroke:none;fill-rule:nonzero;fill:#231f20;fill-opacity:1"></path><path d="m152.16 147.496 47.977 47.977c1.965 1.964 5.183 1.964 7.148 0l7.145-7.145c1.965-1.965 1.965-5.183 0-7.148l-48.344-48.344 31.601-31.602 19.547 19.547c.985.985 2.59.985 3.575 0l7.32-7.32c.719-.719.805-1.645-.016-2.629-2.218-2.656-6.722-8.473-7.761-12.016-1.075-3.668-.536-7.785-.266-9.96.144-1.16.039-1.754-.68-2.473l-32.86-32.86a2.53 2.53 0 0 0-3.573 0l-14.711 14.711a2.53 2.53 0 0 0 0 3.575l15.136 15.136-.347.336-31.258 31.262-.445-.445-28.43-28.434-.344-.336 15.137-15.137c.984-.98.984-2.59 0-3.574l-14.715-14.71a2.527 2.527 0 0 0-3.57 0L86.563 88.765c-.715.718-.82 1.312-.68 2.476.27 2.172.812 6.29-.266 9.957-1.039 3.543-5.539 9.36-7.762 12.016-.82.984-.73 1.914-.015 2.629l7.32 7.32a2.537 2.537 0 0 0 3.578 0l19.547-19.547.313.317 28.418 28.414.484.488-45.957 45.96a5.064 5.064 0 0 0 0 7.15l7.14 7.144a5.076 5.076 0 0 0 7.153 0l45.957-45.961zM114.352 410.988l-1.993-1.992c-3.48-3.598-6.41-5.66-8.789-6.195q-3.564-.798-7.015 2.664c-2.274 2.273-3.305 4.648-3.102 7.12q.303 3.712 4.317 7.72c2.082 2.074 4.535 3.172 7.37 3.289q4.213.227 11.665-2.422 14.765-5.157 23.32-4.57 8.554.585 15.21 7.23 10.005 9.992 9.872 20.082-.133 10.094-10.402 20.375-11.196 11.217-20.317 11.406-9.117.195-19.242-9.914l-.617-.617-1.984-1.98 13.234-13.254 1.992 1.992q4.747 4.928 8.984 5.52c2.829.398 5.485-.653 7.973-3.141 2.426-2.43 3.516-4.965 3.262-7.613q-.375-3.967-4.77-8.356-3.258-3.257-7.84-3.39-4.536-.178-12.64 2.652c-9.406 3.316-16.856 4.765-22.34 4.344-5.453-.387-10.352-2.754-14.695-7.086q-9.675-9.662-9.375-19.586c.199-6.618 3.718-13.356 10.566-20.215q10.548-10.565 19.39-10.43c5.555.113 11.47 3.34 17.747 9.668l1.465 1.461 1.988 1.984z" style="stroke:none;fill-rule:nonzero;fill:#917b50;fill-opacity:1"></path><path d="M85.316 393.371c-7.257 7.27-11.046 14.61-11.265 21.82-.219 7.274 3.172 14.45 10.074 21.344 4.738 4.73 10.191 7.348 16.203 7.777 5.863.45 13.492-1.015 23.305-4.476 5.086-1.777 9.043-2.621 11.754-2.516 2.472.07 4.511.953 6.254 2.696 2.515 2.507 3.886 4.828 4.082 6.894.183 1.922-.66 3.79-2.578 5.707-1.946 1.953-3.895 2.758-5.958 2.469-2.273-.32-4.835-1.938-7.605-4.816l-2.023-2.024a2.4 2.4 0 0 0-1.684-.695c-.629 0-1.234.254-1.68.699l-13.234 13.254a2.37 2.37 0 0 0 .004 3.36l2.601 2.6c7.192 7.18 14.25 10.75 20.973 10.61 6.777-.14 13.957-4.101 21.95-12.101 7.265-7.282 11-14.688 11.097-22.028.094-7.363-3.461-14.695-10.57-21.797-4.832-4.824-10.461-7.488-16.727-7.918-6.09-.418-14.027 1.118-24.27 4.696-4.656 1.656-8.273 2.426-10.75 2.293-2.265-.094-4.16-.946-5.82-2.598-2.25-2.25-3.472-4.348-3.625-6.23-.144-1.758.645-3.477 2.414-5.246 2.528-2.536 4.25-2.149 4.817-2.024 1.308.293 3.687 1.492 7.593 5.527l2.024 2.024a2.36 2.36 0 0 0 1.683.691c.63 0 1.235-.25 1.68-.695l13.23-13.254c.93-.93.93-2.434 0-3.363l-3.452-3.446c-6.688-6.746-13.208-10.234-19.376-10.363-6.55-.097-13.652 3.649-21.12 11.13m15.363 46.194c-4.918-.347-9.23-2.441-13.196-6.398-5.933-5.93-8.855-11.926-8.68-17.832.18-5.961 3.505-12.223 9.876-18.606 6.527-6.535 12.472-9.808 17.672-9.734 4.878.106 10.293 3.121 16.09 8.965l1.78 1.777c-2.19 2.192-7.683 7.696-9.87 9.887l-.313-.312c-3.816-3.946-7.082-6.188-9.945-6.833-3.215-.718-6.317.391-9.223 3.301-2.773 2.781-4.05 5.809-3.789 9 .25 3.035 1.934 6.133 5.008 9.203 2.504 2.5 5.515 3.844 8.953 3.985 3.125.168 7.242-.668 12.559-2.559 9.476-3.308 17.003-4.805 22.363-4.437 5.16.355 9.637 2.496 13.691 6.543 6.164 6.156 9.25 12.34 9.172 18.367-.078 6.058-3.344 12.355-9.707 18.726-6.98 6.993-13.266 10.598-18.684 10.711-5.378.114-11.269-2.992-17.511-9.222l-.918-.918 9.87-9.887.31.309c3.546 3.68 6.937 5.714 10.34 6.195 3.593.504 6.952-.781 9.984-3.817 2.937-2.945 4.265-6.144 3.945-9.52-.3-3.194-2.137-6.495-5.453-9.812-2.606-2.597-5.785-3.972-9.453-4.082-3.332-.132-7.754.778-13.492 2.782-9.059 3.195-16.25 4.613-21.38 4.218" style="stroke:none;fill-rule:nonzero;fill:#231f20;fill-opacity:1"></path><path d="m149.02 334.828 6.667-6.676 13.106-13.12q11.25-11.267 18.973-11.712 7.715-.438 17.757 9.582l-1.328-1.324q10.179 10.167 9.336 18.113-.509 4.77-5.344 11.223c4.575-3.45 8.57-5.406 11.993-5.879 5.418-.707 11.398 2.203 17.937 8.738l-1.367-1.367q11.181 11.165 10.695 19.434-.485 8.268-13.082 20.883l-11.996 12.011-6.668 6.676zm41.106 14.371 2.695-2.703c3.97-3.973 5.938-7.289 5.907-9.957-.028-2.66-2.051-6.004-6.075-10.023l1.328 1.332q-5.226-5.218-9.058-5.188c-2.55.024-5.598 1.805-9.133 5.344l-3.441 3.445zm28.922 28.88 4.242-4.25c3.637-3.642 5.356-6.778 5.149-9.407-.204-2.629-2.442-6.082-6.723-10.356l1.37 1.372q-5.952-5.94-9.632-5.934-3.685.005-9.75 6.074l-3.59 3.598z" style="stroke:none;fill-rule:nonzero;fill:#917b50;fill-opacity:1"></path><path d="M187.629 300.95c-5.809.331-12.52 4.386-20.52 12.402l-19.77 19.796c-.929.93-.929 2.438 0 3.364l66.68 66.582c.45.445 1.051.695 1.684.695.629 0 1.234-.25 1.68-.695l18.664-18.692c8.906-8.922 13.41-16.254 13.773-22.425q.024-.424.024-.852c0-5.629-3.278-11.809-9.89-18.8-.06-.079-.087-.169-.157-.235l-1.367-1.367c-.082-.082-.188-.118-.278-.184-6.453-5.937-12.601-8.601-18.28-7.863-1.622.222-3.337.781-5.118 1.55.57-1.484.996-2.921 1.14-4.285q.083-.752.083-1.52c0-5.23-2.86-10.816-8.614-16.96-.062-.078-.09-.168-.16-.238l-1.328-1.325c-.07-.07-.16-.097-.234-.16-6.618-6.195-12.532-9.101-18.012-8.789m25.539 38.63c3.863-1.587 5.187-1.892 7.336-2.188 4.492-.586 9.715 2.027 15.5 7.675 6.008 6.223 9.086 11.63 9.086 16.075q-.001.282-.02.558c-.285 4.887-4.453 11.395-12.386 19.34 0 0-15.106 15.125-16.985 17.012-3.117-3.113-60.199-60.113-63.316-63.223 1.883-1.883 4.988-4.992 4.988-4.992l13.102-13.125c7.043-7.05 12.902-10.758 17.425-11.016 4.247-.242 9.383 2.586 15.239 8.254 5.32 5.485 8.082 10.367 8.082 14.516 0 .328-.02.652-.051.973-.23 2.132-.527 4.44-1.52 7.019-.828 2.148-3.02 6.242-3.02 6.242s3.048-1.691 6.54-3.12" style="stroke:none;fill-rule:nonzero;fill:#231f20;fill-opacity:1"></path><path d="M184.902 320.281c-3.234.031-6.765 2.008-10.793 6.043l-3.445 3.446a2.38 2.38 0 0 0-.691 1.683c0 .629.25 1.235.699 1.68l17.773 17.75a2.386 2.386 0 0 0 3.363-.004l2.696-2.703c4.441-4.45 6.601-8.235 6.601-11.574v-.086c-.027-2.871-1.777-6.13-5.105-9.844-.102-.176-.187-.36-.34-.508l-1.328-1.328c-.176-.176-.383-.281-.586-.39-3.21-2.766-6.129-4.188-8.844-4.165m-7.43 9.403c3.813-3.817 6.169-4.633 7.473-4.645 1.211-.012 3.348.695 6.684 3.852 4.027 4.203 4.71 6.605 4.723 7.675v.032c0 1.136-.692 3.687-5.211 8.218 0 0-.543.54-1.02 1.02a25020 25020 0 0 0-14.41-14.387c.883-.883 1.762-1.765 1.762-1.765M213.45 347.125c-3.184.004-6.817 2.156-11.427 6.773l-3.59 3.598c-.445.445-.699 1.05-.695 1.68 0 .633.25 1.234.696 1.68l18.933 18.906a2.38 2.38 0 0 0 3.363-.004l4.243-4.25c3.937-3.942 5.863-7.438 5.863-10.653 0-.207-.012-.414-.027-.617-.215-2.812-2.176-6.144-5.758-10.054-.09-.145-.16-.301-.285-.43l-1.371-1.371c-.149-.145-.329-.23-.5-.332-3.633-3.242-6.762-4.93-9.446-4.926m-8.062 10.133c4.672-4.676 7.058-5.375 8.066-5.375.957-.004 3.16.648 7.27 4.59 4.398 4.554 5.261 7.047 5.343 8.132q.012.117.012.239c0 1.344-.828 3.656-4.473 7.304 0 0-1.335 1.34-2.562 2.567a58349 58349 0 0 1-15.563-15.543z" style="stroke:none;fill-rule:nonzero;fill:#231f20;fill-opacity:1"></path><path d="m243.45 260.031-14.071 14.094-4.941-4.937-4.946-4.934 41.485-41.543 4.941 4.934 4.945 4.937-14.074 14.094 56.793 56.71-6.644 6.653-6.692 6.703z" style="stroke:none;fill-rule:nonzero;fill:#917b50;fill-opacity:1" data-source="https://football-logos.cc"></path><path d="M260.973 220.332c-.63 0-1.235.25-1.68.695l-41.484 41.547a2.38 2.38 0 0 0-.696 1.684c0 .629.254 1.23.7 1.68l9.886 9.87a2.377 2.377 0 0 0 3.363-.003l12.391-12.41 55.113 55.03c.446.446 1.051.696 1.68.696a2.4 2.4 0 0 0 1.684-.7l13.336-13.355a2.37 2.37 0 0 0 .695-1.68c0-.613-.234-1.218-.7-1.683l-55.109-55.031 12.391-12.41c.445-.446.695-1.051.695-1.68v-.004c0-.629-.25-1.234-.699-1.68l-9.883-9.87a2.38 2.38 0 0 0-1.683-.696m.004 5.742c1.464 1.461 5.058 5.047 6.52 6.512-2.606 2.605-12.392 12.41-12.392 12.41a2.36 2.36 0 0 0-.695 1.68c0 .605.235 1.219.7 1.68 0 0 51.94 51.867 55.109 55.03-1.875 1.88-8.09 8.106-9.977 9.993l-55.11-55.031a2.4 2.4 0 0 0-1.683-.696c-.629 0-1.234.254-1.68.7 0 0-9.789 9.8-12.394 12.41-1.465-1.461-5.055-5.047-6.52-6.512z" style="stroke:none;fill-rule:nonzero;fill:#231f20;fill-opacity:1"></path><path d="m370.621 200.824 1.984 1.98q11.9 11.513 12.446 20.934c.367 6.282-2.98 12.95-10.035 20.016-7.489 7.5-14.563 10.984-21.23 10.457q-10.002-.792-23.173-13.941l-20.527-20.5c-8.84-8.825-13.531-16.575-14.066-23.239-.536-6.668 2.933-13.75 10.421-21.25q9.746-9.762 19.508-9.445 9.149.264 18.39 9.586l1.27 1.266 1.98 1.98-13.335 13.355-1.98-1.976c-3.399-3.516-6.415-5.66-9.06-6.442q-3.96-1.17-6.792 1.665c-2.496 2.5-3.317 5.292-2.461 8.367q1.29 4.617 7.945 11.261l20.54 20.512c5.792 5.785 10.34 9.293 13.632 10.528 3.293 1.238 6.258.53 8.899-2.114 2.054-2.054 2.613-4.554 1.671-7.488q-1.416-4.406-7.375-10.172l-1.988-1.98z" style="stroke:none;fill-rule:nonzero;fill:#917b50;fill-opacity:1"></path><path d="M304.758 173.602c-7.965 7.976-11.703 15.753-11.11 23.12.59 7.317 5.418 15.407 14.758 24.731l20.528 20.5c9.277 9.266 17.347 14.05 24.664 14.629 7.363.582 15.132-3.168 23.101-11.148 7.524-7.532 11.13-14.88 10.727-21.836-.406-6.961-4.711-14.32-13.164-22.5l-1.961-1.957a2.375 2.375 0 0 0-3.36.004l-13.34 13.359a2.375 2.375 0 0 0 .004 3.36l1.989 1.984c3.695 3.578 5.972 6.668 6.789 9.214.668 2.09.336 3.657-1.09 5.083-1.988 1.992-3.957 2.476-6.383 1.566-2.031-.762-5.902-3.113-12.781-9.984l-20.543-20.508c-4.125-4.117-6.59-7.559-7.332-10.223-.625-2.234-.04-4.156 1.851-6.047 1.266-1.265 2.633-1.594 4.438-1.062 2.23.66 4.93 2.613 8.02 5.812l2.011 2.008c.93.926 2.434.926 3.36-.004l13.34-13.355a2.38 2.38 0 0 0-.004-3.364l-3.25-3.25c-6.567-6.62-13.301-10.082-20.004-10.277-7.153-.23-14.305 3.184-21.258 10.145m49.215 78.238c-6.059-.48-13.352-4.938-21.676-13.25l-20.531-20.5c-8.387-8.375-12.887-15.695-13.375-21.75-.477-5.91 2.796-12.43 9.734-19.375 5.984-5.996 11.953-8.942 17.746-8.754 5.45.16 11.094 3.148 16.777 8.883l1.579 1.574c-2.196 2.203-7.782 7.793-9.977 9.992l-.297-.297c-3.691-3.82-6.992-6.133-10.062-7.039-3.48-1.027-6.645-.242-9.153 2.266-3.09 3.097-4.152 6.793-3.066 10.683.98 3.516 3.777 7.54 8.555 12.309l20.539 20.512c6.093 6.082 10.828 9.703 14.476 11.07 4.172 1.566 8.117.645 11.418-2.656 1.863-1.867 2.809-4.086 2.809-6.531q-.001-1.625-.559-3.368c-1.07-3.343-3.683-6.992-7.984-11.152l-.278-.277c2.196-2.2 7.782-7.793 9.977-9.993l.3.301c7.481 7.239 11.427 13.75 11.755 19.387q.021.386.02.777c0 5.336-3.145 11.192-9.364 17.422-6.941 6.95-13.453 10.235-19.363 9.766" style="stroke:none;fill-rule:nonzero;fill:#231f20;fill-opacity:1"></path><path d="M194.68 418.7c0 4.976-4.032 9.01-9.008 9.01a9.01 9.01 0 1 1 0-18.023 9.006 9.006 0 0 1 9.008 9.012" style="stroke:none;fill-rule:nonzero;fill:#917b50;fill-opacity:1"></path><path d="M174.281 418.7c0 6.28 5.11 11.39 11.39 11.39 6.278 0 11.388-5.11 11.388-11.39 0-6.282-5.11-11.391-11.387-11.391-6.281 0-11.39 5.109-11.39 11.39m4.753 0a6.643 6.643 0 0 1 6.637-6.637c3.656 0 6.633 2.977 6.633 6.637a6.64 6.64 0 0 1-6.633 6.633c-3.66 0-6.637-2.977-6.637-6.633" style="stroke:none;fill-rule:nonzero;fill:#231f20;fill-opacity:1"></path><path d="M276.527 336.754a9.012 9.012 0 1 1-18.024-.001 9.012 9.012 0 0 1 18.024 0" style="stroke:none;fill-rule:nonzero;fill:#917b50;fill-opacity:1"></path><path d="M256.125 336.754c0 6.281 5.11 11.39 11.39 11.39 6.282 0 11.391-5.109 11.391-11.39 0-6.277-5.11-11.39-11.39-11.39-6.282 0-11.391 5.113-11.391 11.39m4.758 0a6.64 6.64 0 0 1 6.633-6.633 6.64 6.64 0 0 1 6.632 6.633c0 3.66-2.976 6.637-6.632 6.637-3.657 0-6.633-2.977-6.633-6.637" style="stroke:none;fill-rule:nonzero;fill:#231f20;fill-opacity:1"></path><path d="M336.176 276.906a9.012 9.012 0 1 1-18.025-.001 9.012 9.012 0 0 1 18.025.001" style="stroke:none;fill-rule:nonzero;fill:#917b50;fill-opacity:1"></path><path d="M315.773 276.906c0 6.281 5.11 11.39 11.391 11.39s11.39-5.108 11.39-11.39c0-6.281-5.109-11.39-11.39-11.39s-11.39 5.109-11.39 11.39m4.757 0a6.64 6.64 0 0 1 6.633-6.633 6.64 6.64 0 0 1 6.633 6.633 6.64 6.64 0 0 1-6.633 6.633 6.64 6.64 0 0 1-6.633-6.633" style="stroke:none;fill-rule:nonzero;fill:#231f20;fill-opacity:1"></path><path d="M412.078 201.203c0 4.98-4.035 9.016-9.012 9.016a9.014 9.014 0 0 1-9.015-9.016c0-4.976 4.035-9.012 9.015-9.012a9.01 9.01 0 0 1 9.012 9.012" style="stroke:none;fill-rule:nonzero;fill:#917b50;fill-opacity:1"></path><path d="M391.676 201.203c0 6.281 5.11 11.39 11.39 11.39 6.278 0 11.387-5.109 11.387-11.39 0-6.277-5.11-11.387-11.387-11.387-6.28 0-11.39 5.11-11.39 11.387m4.754 0c0-3.656 2.976-6.633 6.636-6.633a6.64 6.64 0 0 1 6.633 6.633c0 3.66-2.976 6.637-6.633 6.637a6.643 6.643 0 0 1-6.636-6.637" style="stroke:none;fill-rule:nonzero;fill:#231f20;fill-opacity:1" data-source="https://football-logos.cc"></path><!-- source: https://football-logos.cc --></svg>