<svg xmlns="http://www.w3.org/2000/svg" viewBox="0 0 271.79 300"><!-- Source: https://football-logos.cc --><path d="M45.42 34.313C72.167 10.99 102.91.138 133.23.001c30.319-.136 60.867 9.132 88.623 34.124V62.35c0 65.269-26.524 132.415-88.06 164.51-62.807-34.273-88.269-98.17-88.343-164.508Z" style="display:inline;fill:#6b4490;fill-rule:evenodd;stroke-width:.529193" data-source="https://football-logos.cc"></path><path d="m49.253 36.067.026 23.252h168.743V35.844c-24.179-21.28-52.42-32.157-84.774-32.011-31.405.14-60.263 12.016-83.995 32.234m42.11 151.851c11.552 13.428 25.64 25.135 42.47 34.584 58.453-31.524 84.188-96.244 84.189-160.153v-2.076z" style="display:inline;fill:#fff;fill-rule:evenodd;stroke-width:.529193"></path><path d="M18.72 34.728c.03-.59-1.042-.495-1.033.094.13 8.868-8.92 11.42-10.255 22.676-.582 4.913 1.476 12.423 7.15 17.857a166 166 0 0 0-.427 9.15 19 19 0 0 0-.675-1.697c-2.475-5.439-5.062-7.633-7.191-10.098-1.79-2.073-3.228-4.42-4.276-8.234-3.076 6.705-2.239 19.044-.078 24.577 1.94 4.966 5.641 9.267 12.709 11.38.263 5.766.493 11.453 1.452 17.136a19 19 0 0 0-.341-.523c-3.35-4.948-6.267-6.68-8.778-8.753-2.112-1.745-3.922-3.819-5.592-7.403-1.912 7.124.975 19.149 4.032 24.243 2.839 4.734 7.106 8.401 14.926 9.136.484 1.52.976 3.039 1.463 4.56a113 113 0 0 0 2.887 7.963 19 19 0 0 0-2.148-2.162c-2.089-1.79-3.65-3.054-5.318-3.825-1.954-.903-3.953-1.2-5.555-1.921-2.497-1.124-3.948-2.176-6.506-5.191.04 7.376 5.254 17.365 9.547 21.47 3.915 3.744 8.376 6.303 16.15 4.797 2.87 5.433 6.036 10.722 9.327 15.896-1.541-1.828-2.765-3.067-4.423-4.365-2.259-1.767-5.454-3.133-7.648-3.669-2.376-.58-4.284-.585-5.941-.929-2.5-.519-4.24-1.282-7.425-3.627 1.739 7.356 9.124 17.2 14.413 19.904 4.178 2.136 8.913 3.287 15.984.28 3.08 4.58 6.288 8.996 9.707 13.238a25 25 0 0 0-3.263-1.92c-2.571-1.272-5.977-1.96-8.234-2.039-2.445-.085-4.314.298-6.006.298-2.555.001-4.413-.393-8.008-2.041 3.199 6.849 12.43 14.986 18.159 16.558 4.294 1.179 9.367 1.575 14.468-2.62a149 149 0 0 0 5.947 5.977 129 129 0 0 0 4.735 4.263 25 25 0 0 0-3.38-1.463c-2.714-.95-6.18-1.196-8.429-.978-2.435.237-4.239.874-5.917 1.098-2.532.339-4.426.185-8.205-1.012 4.058 6.527 14.265 13.562 20.149 14.4 4.57.65 9.617.386 14.437-5.027 5.792 4.23 10.002 6.97 16.21 10.568-5.457-1.945-10.65-1.89-15.2-.307-2.258.786-3.829 1.817-5.372 2.419-2.327.908-4.16 1.19-8.01.887 5.302 5.429 16.552 9.948 22.322 9.421 4.563-.416 9.065-1.991 13.297-8.452a341 341 0 0 0 7.387 3.968c5.257 2.745 10.667 5.383 16.112 7.728 1.915.824 4.734 2.203 6.591 3.008 13.308 5.77 23.478 11.241 31.26 15.777 12.882 7.507 19.92 14.177 36.79 32.801l-2.212-22.345c-14.77-9.361-27.854-15.591-41.96-20.346-7.125-2.4-21.667-6.77-29.765-10.446-5.37-2.436-10.8-4.956-16.029-7.686a360 360 0 0 1-8.193-4.413c.128-.383.244-.607.428-1.372 1.661-6.89.508-11.018-.564-14.095a19.3 19.3 0 0 0-2.951-5.484c-2.02-2.653-4.685-5.046-6.847-7.862-1.98-2.575-3.81-5.72-5.292-9.738-.127-.343-.326-.756-.767-.584-.396.156-.3.67-.152.972 3.842 7.818-3.225 14.306 1.168 24.764 1.331 3.17 2.358 4.303 5.941 8.115-4.578-2.808-9.06-5.784-13.373-8.965 3.94-5.46 3.425-10.933 2.881-14.288-.916-5.649-4.134-9.951-6.528-15.214-1.346-2.957-2.418-6.434-2.954-10.684-.046-.362-.146-.81-.615-.74-.42.06-.443.584-.367.91 1.974 8.485-6.646 13.146-4.554 24.294.586 3.125 1.438 4.95 3.94 9.025-2.474-2.021-2.53-1.964-4.841-4.153-1.825-1.728-4.463-4.263-5.878-6.063 4.822-6.525 4.873-11.065 4.657-14.54-.356-5.712-3.135-10.31-5-15.784-1.048-3.074-1.773-6.64-1.889-10.922-.01-.365-.066-.82-.538-.798-.426.02-.499.539-.456.872 1.13 8.636-7.379 12.5-6.838 23.83.219 4.585 2.667 8.745 3.781 10.337-3.651-4.413-6.964-9.021-10.172-13.81 4.993-6.048 5.27-10.354 5.276-13.781.01-5.723-2.469-10.489-3.98-16.07-.85-3.136-1.345-6.74-1.186-11.021.013-.365-.014-.823-.487-.831-.426-.007-.532.505-.51.84.575 8.692-8.43 12.002-8.348 23.344.01 1.328.213 2.657.571 3.981a202 202 0 0 1-5.843-10.304c5.347-4.997 6.225-9.05 6.727-12.327.868-5.656-.868-10.74-1.526-16.486-.37-3.227-.32-6.865.479-11.074.067-.359.11-.815-.357-.894-.42-.07-.602.42-.63.755-.734 8.68-10.133 10.602-11.753 21.829a14.6 14.6 0 0 0-.144 2.248 108 108 0 0 1-1.62-4.685c-.615-1.928-1.241-3.851-1.848-5.78 6.713-4.3 8.292-8.36 9.338-11.65 1.734-5.454.806-10.746 1.047-16.524.135-3.245.748-6.831 2.19-10.865.123-.344.235-.789-.214-.939-.404-.135-.66.321-.74.648-2.07 8.46-11.653 8.904-14.994 19.744a15.3 15.3 0 0 0-.61 3.246c-.698-4.405-.85-8.772-1.115-13.234 7.523-3.542 9.335-7.576 10.786-10.786 2.358-5.214 2.054-10.579 2.965-16.289.513-3.207 1.446-6.98 3.348-10.817.162-.328.325-.757-.104-.958-.384-.18-.692.242-.81.557-1.586 4.257-4.76 5.923-8.263 8.193-3.044 1.973-6.291 4.731-8.478 9.188.077-2.266.198-4.532.374-6.795 4.203-5.423 5.041-9.492 5.412-12.687.659-5.684-1.511-10.727-2.654-16.395-.659-3.268-.563-7.133-.338-11.44" style="display:inline;fill:#6b4490;fill-rule:evenodd;stroke-width:.529193"></path><path d="M16.082 44.954c-3.278 3.83-5.867 7.59-6.49 12.838-.516 4.35.512 7.607 2.845 11.286 3.026-5.007 2.422-10.639 1.64-16.303-.198-1.433 1.427-2.113 1.686-.233.877 6.35 1.4 12.644-2.265 18.135.578.744 1.125 1.558 1.84 2.281 2.602-2.893 3.408-5.896 3.93-10.403.893-7.696-3.007-14.87-3.186-17.601m1.205 54.974c2.005-1.11 3.222-1.999 4.742-3.72 1.334-1.507 2.16-3.228 3.066-5 2.127-4.161 3.011-13.127 2.46-17.481-1.406.932-3.048 1.803-4.412 2.787-2.81 2.029-4.229 4.25-5.641 7.45-1.473 3.337-1.819 7.028-1.25 11.05 4.557-3.732 6.267-9.635 7.393-15.272.284-1.42 2.042-1.528 1.67.333-1.277 6.394-3.284 12.883-8.753 16.851.215 1.193.466 1.89.725 3.002M2.072 72.44c1.036 3.799.87 6.3 1.062 9.086.145 2.089.435 4.777 1.89 7.94 2.23 4.853 4.191 7.225 7.477 5.721.184-.169.346-.428.48-.765-3.018-3.049-5.143-6.853-6.643-11.073-.636-1.788.932-2.122 1.416-.758 1.307 3.672 3.083 7.203 5.605 10.021.066-.799.05-1.737-.072-2.774-.275-2.347-.374-3.226-1.357-5.386-1.063-2.337-1.405-3.688-3.043-5.665-1.224-1.477-4.267-4.195-6.815-6.347m.702 36.29c1.656 3.573 1.91 6.066 2.566 8.781.492 2.036 1.228 4.638 3.19 7.513 3.01 4.412 5.34 6.423 8.329 4.391.153-.198.27-.48.345-.835-3.485-2.501-6.216-5.898-8.4-9.806-.926-1.657.563-2.248 1.27-.985 1.9 3.402 4.242 6.587 7.2 8.943-.068-.798-.241-1.72-.535-2.723-.663-2.267-.907-3.118-2.238-5.084-1.439-2.126-2.002-3.4-3.948-5.076-1.452-1.251-4.907-3.422-7.78-5.118m5.148 31.875c2.542 3.008 3.352 4.782 4.702 7.228 1.012 1.833 2.41 4.147 5.063 6.402 4.07 3.459 6.849 4.97 9.193 2.22.11-.263.142-.636.1-1.089-4.017-1.492-7.544-4.043-10.681-7.232-1.331-1.353-.05-2.317.963-1.285 2.727 2.772 5.818 5.218 9.283 6.71a13.5 13.5 0 0 0-1.21-2.473c-1.237-2.011-1.699-2.768-3.501-4.312-1.95-1.67-2.83-2.75-5.15-3.852-1.731-.823-5.263-1.533-8.762-2.317m11.34 28.97c3.168 2.34 5.15 5.438 7.026 7.507 1.407 1.55 2.835 2.725 5.933 4.312 4.006 2.052 7.015 1.948 7.724-.329.043-.268-.007-.648-.139-1.103-3.903-.885-8.069-2.73-11.28-4.747-1.607-1.011-.583-2.244.641-1.474 2.764 1.737 6.459 3.506 9.907 4.474-.875-1.673-2.345-3.64-4.162-5.037-2.035-1.564-3.828-2.251-6.274-3.03-2.438-.777-6.136-.837-9.376-.573m15.782 26.67c3.577 1.648 6.147 4.28 8.406 5.923 1.692 1.231 3.33 2.091 6.685 3.016 4.34 1.195 7.265.481 7.496-1.892-.012-.272-.139-.634-.36-1.052-4-.073-8.455-1.032-12.01-2.355-1.779-.663-1.027-2.078.329-1.573 3.058 1.139 7.036 2.12 10.609 2.365-1.197-1.458-3.037-3.086-5.1-4.084-2.31-1.118-4.205-1.427-6.759-1.692-2.544-.265-6.178.428-9.296 1.344m18.011 21.147c3.76 1.199 6.649 3.528 9.101 4.897 1.837 1.026 3.572 1.682 7.02 2.176 4.457.638 7.265-.474 7.188-2.913-.048-.274-.22-.624-.494-1.02-3.977.456-8.517.073-12.214-.8-1.849-.436-1.286-1.972.123-1.639 3.18.751 7.251 1.219 10.826.996-1.376-1.322-3.41-2.73-5.584-3.47-2.437-.829-4.355-.89-6.922-.822-2.558.067-6.07 1.252-9.044 2.595m22.91 21.374c3.834.309 7.094 1.918 9.725 2.691 1.972.58 3.764.823 7.146.517 4.37-.395 7.071-2.024 6.455-4.382-.106-.255-.629-.651-.977-.973-3.672 1.35-8.067 2.013-11.769 2.007-1.852-.003-1.659-1.626-.248-1.624 3.186.005 7.153-.468 10.496-1.5-1.6-.974-3.844-1.88-6.072-2.105-2.496-.25-4.33.127-6.751.779-2.412.65-5.483 2.604-8.006 4.59M21.868 129.839c1.862-1.336 3.006-2.452 4.316-4.338 1.148-1.654 1.768-3.459 2.461-5.323 1.628-4.382 1.501-13.199.447-17.459-1.288 1.09-2.63 1.842-3.87 2.98-2.556 2.342-3.89 4.497-4.92 7.84-1.075 3.486-1.029 7.52.005 11.45 4.09-4.24 5.101-10.3 5.563-16.03.117-1.443 1.85-1.756 1.697.136-.523 6.499-1.76 13.177-6.73 17.756.353 1.159.644 1.912 1.031 2.988zm9.523 27.013c1.633-1.61 2.627-2.87 3.628-4.936.879-1.812 1.21-3.69 1.607-5.64.928-4.581-.57-13.25-2.273-17.295-1.103 1.277-2.457 2.413-3.506 3.728-2.16 2.71-3.19 5.101-3.69 8.564-.52 3.61.347 7.326 1.977 11.048 3.384-4.821 3.443-10.966 3.011-16.699-.109-1.443 1.555-2.021 1.698-.128.49 6.5.303 13.29-3.897 18.584.529 1.09.896 1.77 1.445 2.773zm14.635 23.47c1.373-1.834 2.207-3.292 2.887-5.485.597-1.922.644-3.83.743-5.817.232-4.669-2.552-12.979-4.841-16.723-.9 1.427-2.15 2.724-2.99 4.181-1.73 3.004-2.25 5.373-2.225 8.872.026 3.646 1.104 7.147 3.273 10.582 2.624-5.274 1.667-10.983.381-16.586-.324-1.411 1.234-2.231 1.66-.381 1.458 6.354 2.385 12.72-.974 18.583.686.999 1.393 1.865 2.086 2.774m16.401 20.305c1.253-1.919 2.162-3.314 2.7-5.546.474-1.957.398-3.864.37-5.853-.067-4.674-3.417-13.051-5.941-16.642-.807 1.482-1.685 2.838-2.43 4.346-1.535 3.108-2.153 5.81-1.904 9.301.259 3.638 1.857 7.206 4.242 10.495 2.28-5.43 1.03-11.447-.612-16.957-.413-1.386 1.09-2.305 1.632-.486 1.863 6.248 3.125 12.922.147 18.988.749.953 1.046 1.49 1.796 2.354m18.527 17.69c1.059-2.033 1.604-3.556 1.92-5.83.278-1.994.016-3.884-.208-5.862-.526-4.644-4.72-12.715-7.586-16.04-.657 1.554-1.387 3.177-1.98 4.751-1.223 3.244-1.646 5.909-1.055 9.357.615 3.595 2.658 6.952 5.354 9.99 1.736-5.629-.1-11.493-2.277-16.814-.547-1.34.858-2.402 1.576-.645 2.469 6.035 4.382 12.552 2.015 18.882.839.874 1.41 1.427 2.242 2.211zm22.192 13.602c1.236-4.8.674-7.16-.937-11.704-1.563-4.405-7.81-11.53-11.354-14.121-.288 1.661-.654 3.316-.876 4.984-.457 3.436-.204 6.402 1.151 9.628 1.412 3.362 4.456 6.198 7.77 8.548.418-5.875-2.696-11.173-6.019-15.864-.836-1.182.293-2.534 1.39-.985 3.768 5.32 7.105 11.237 6.23 17.938 1.014.662 1.658 1 2.645 1.577z" style="display:inline;fill:#fff;fill-rule:evenodd;stroke-width:.529193" data-source="https://football-logos.cc"></path><path d="M251.274 33.977c-.035-.59 1.101-.495 1.095.094-.094 8.868 9.602 10.012 11.073 21.268.64 4.913-.941 12.517-7.494 20.016.26 3.048.417 6.098.498 9.15 2.032-6.162 4.324-8.33 7.906-12.264 1.886-2.073 4.432-5.359 5.525-9.172 3.291 6.704 1.806 20.45-.457 25.984-2.031 4.965-5.278 8.329-12.759 10.441-.25 5.767-.374 11.172-1.363 16.855q.175-.264.36-.523c3.525-4.948 5.86-5.93 8.51-8.003 2.23-1.744 4.89-3.63 6.644-7.215 2.06 7.124-1.32 19.337-4.533 24.431-2.986 4.733-6.835 7.557-15.121 8.292-.505 1.52-1.77 4.071-2.279 5.592-.898 2.692-2.193 5.251-3.304 7.87a19.6 19.6 0 0 1 2.266-2.163c2.207-1.79 5.075-4.087 6.84-4.858 2.067-.903 4.185-1.2 5.88-1.92 2.64-1.124 4.172-2.177 6.87-5.192-.007 7.377-5.485 17.366-10.016 21.47-4.132 3.744-9.505 6.867-17.752 5.36-3.017 5.434-6.91 11.192-10.374 16.366 1.626-1.828 2.917-3.067 4.668-4.365 2.385-1.767 5.953-3.696 8.276-4.232 2.515-.58 4.35-.773 6.105-1.117 2.648-.518 6.554-1.657 9.261-3.908-1.808 7.356-9.964 17.481-15.556 20.186-4.419 2.135-9.714 3.662-17.224.654-3.242 4.58-7.372 9.372-10.976 13.614a27 27 0 0 1 3.45-1.92c2.72-1.273 6.326-1.96 8.718-2.039 2.59-.085 4.573.298 6.367.298 2.708 0 5.896-.956 9.699-2.604-3.358 6.849-13.855 15.737-19.919 17.309-4.545 1.178-10.109 1.386-15.535-2.807a153 153 0 0 1-6.276 5.976c-1.625 1.46-3.575 2.88-5.28 4.263a27 27 0 0 1 3.576-1.463c2.872-.95 6.546-1.196 8.93-.978 2.581.237 4.497.874 6.277 1.098 2.686.339 5.068.467 9.066-.73-4.27 6.527-15.43 13.28-21.661 14.117-4.841.65-10.099.668-15.233-4.745-6.12 4.23-10.756 6.971-17.32 10.568 5.776-1.945 11.468-1.609 16.3-.025 2.395.786 4.629 2.005 6.267 2.607 2.47.907 4.133 1.002 8.214.698-5.594 5.43-17.122 9.856-23.24 9.329-4.838-.417-11.308-1.43-14.791-8.453a367 367 0 0 1-7.811 3.968c-5.559 2.745-12.313 6.228-18.074 8.573-2.025.824-5.008 2.203-6.971 3.008-29.065 11.912-46.485 27.19-65.889 46.888l2.237-22.344c12.794-8.798 23.63-14.466 38.559-19.22 7.54-2.4 22.746-6.209 31.31-9.883 5.68-2.436 12.456-5.801 17.985-8.532 2.795-1.379 5.323-2.762 8.1-4.224a24 24 0 0 1-.553-1.841c-1.794-6.89-.029-11.206 1.092-14.283 1.196-3.278 2.976-5.643 5.538-8.05 1.667-1.567 3.476-3.072 4.972-4.92 2.085-2.576 4.01-5.72 5.562-9.74.132-.342.342-.755.81-.582.42.155.32.67.165.971-4.034 7.818 3.3 13.932-1.306 24.389-1.395 3.17-1.07 3.834-4.85 7.646 4.84-2.809 8.263-5.033 12.817-8.215-4.201-5.46-3.776-11.214-3.216-14.569.944-5.648 4.334-9.952 6.847-15.215 1.41-2.956 2.813-6.34 3.36-10.589.047-.363.152-.81.648-.74.447.06.473.583.394.91-2.052 8.484 6.826 13.052 4.663 24.2-.606 3.125-1.501 4.95-4.134 9.025 2.613-2.021 2.673-1.964 5.112-4.153 1.926-1.728 4.898-4.545 6.39-6.345-5.143-6.524-5.03-10.784-4.819-14.258.332-5.434 2.862-10.24 4.824-15.444 1.33-3.527 2.35-7.339 2.442-11.262.008-.364.066-.82.567-.798.451.02.532.538.487.872-1.156 8.636 8.069 11.749 7.55 23.079-.209 4.584-1.47 6.869-2.644 8.46 3.85-4.413 6.12-6.77 9.497-11.557-5.322-6.048-6.012-11.012-6.035-14.439-.038-5.722 2.191-9.457 3.766-15.038.885-3.135 1.393-6.74 1.205-11.02-.016-.366.01-.823.511-.831.451-.007.567.505.545.84-.568 8.692 9.18 10.875 9.618 21.279.056 1.326-.12 3.314-.492 4.638 2.146-3.379 4.023-5.873 5.955-9.365-5.691-4.997-7.017-9.427-7.566-12.703-.946-5.656 1.058-10.553 1.727-16.298.376-3.227.306-6.865-.56-11.073-.074-.36-.12-.816.373-.895.445-.07.64.42.672.755.85 9.012 12.99 11.413 12.35 24.64.603-1.549 1.45-2.923 1.976-4.498.643-1.927 2.049-4.883 2.682-6.812-6.667-2.985-9.204-7.89-10.33-11.181-1.863-5.453-1.563-10.276-1.845-16.054-.16-3.245-.826-7.582-2.373-11.616-.132-.343-.253-.79.222-.939.427-.135.7.321.787.648.545 2.01 1.938 4.047 3.95 5.629 5.053 3.975 11.014 7.692 13.451 16.892.718-4.405.764-8.491 1.024-12.953-7.522-2.697-10.4-6.825-11.954-10.035-2.524-5.213-2.415-10.39-3.41-16.1-.557-3.208-1.565-6.98-3.599-10.818-.173-.328-.348-.757.105-.958.407-.18.735.242.86.557 1.703 4.257 5.638 5.641 9.362 7.912 3.236 1.972 5.94 3.23 8.28 7.686-.092-2.266-.044-2.749-.241-5.012-4.482-5.423-5.671-10.337-6.079-13.531-.726-5.685 1.645-9.977 2.828-15.645.682-3.267.656-7.79.396-12.097" style="display:inline;fill:#6b4490;fill-rule:evenodd;stroke-width:.529193"></path><path d="M254.307 44.015c3.493 3.83 6.348 7.873 7.034 13.12.568 4.35-.412 7.232-2.867 10.91-3.231-5.006-2.712-10.263-1.91-15.926.202-1.434-1.523-2.114-1.789-.233-.899 6.35-1.33 12.267 2.582 17.759-.608.744-1.278 1.934-2.032 2.656-2.773-2.893-4.017-6.271-4.593-10.778-.982-7.697 2.834-14.776 3.575-17.508m-.638 55.257c-2.13-1.11-3.424-2-5.044-3.72-1.42-1.509-2.304-3.23-3.273-5-2.274-4.162-3.255-13.128-2.692-17.483 1.495.933 3.239 1.804 4.689 2.788 2.99 2.029 4.503 4.25 6.016 7.451 1.577 3.336 1.96 7.027 1.378 11.05-4.848-3.733-6.69-9.635-7.91-15.273-.307-1.42-2.171-1.528-1.768.334 1.384 6.393 3.542 12.882 9.36 16.85-.224 1.192-.486 1.89-.756 3.003m16.277-27.96c-1.08 3.8-.891 6.3-1.082 9.087-.143 2.09-.438 4.778-1.964 7.941-2.341 4.853-4.409 7.225-7.898 5.72-.196-.169-.37-.428-.513-.765 3.184-3.048 5.418-6.853 6.987-11.072.666-1.788-.997-2.122-1.504-.759-1.367 3.673-3.233 7.204-5.892 10.022a13.3 13.3 0 0 1 .063-2.775c.28-2.346.38-3.226 1.412-5.386 1.115-2.337 1.471-3.687 3.198-5.665 1.29-1.476 4.503-4.194 7.193-6.347m-.475 36.48c-1.74 3.572-1.809 6.441-2.49 9.156-.511 2.035-1.749 4.731-3.815 7.607-3.17 4.411-5.63 6.422-8.806 4.39-.165-.197-.289-.48-.37-.834 3.68-2.502 6.559-5.898 8.856-9.806.973-1.657-.609-2.248-1.35-.986-2 3.403-4.467 6.587-7.59 8.944.068-.798.248-1.72.554-2.724.691-2.267.947-3.117 2.348-5.083 1.514-2.126 2.48-4.151 4.535-5.827 1.533-1.251 5.092-3.14 8.128-4.837zm-5.21 32.063c-2.68 3.007-3.53 4.781-4.95 7.227-1.063 1.833-2.534 4.148-5.335 6.402-4.297 3.46-7.235 4.97-9.733 2.22-.116-.263-.154-.636-.112-1.088 4.25-1.493 7.978-4.043 11.287-7.233 1.404-1.352.043-2.316-1.028-1.285-2.876 2.772-6.141 5.218-9.806 6.71a13 13 0 0 1 1.27-2.473c1.303-2.011 1.788-2.767 3.69-4.311 2.06-1.67 2.988-2.75 5.44-3.853 1.832-.822 5.572-1.533 9.277-2.316m-11.88 29.062c-3.347 2.34-5.432 5.44-7.412 7.507-1.483 1.55-2.992 2.726-6.267 4.313-4.236 2.052-7.427 1.948-8.189-.329-.047-.269.004-.649.142-1.103 4.132-.885 8.54-2.73 11.934-4.748 1.698-1.01.607-2.242-.688-1.473-2.92 1.737-6.828 3.506-10.479 4.473.92-1.672 2.469-3.64 4.388-5.036 2.15-1.564 4.046-2.251 6.636-3.03 2.58-.777 6.5-.837 9.934-.574m-16.694 26.953c-3.784 1.648-6.59 4.749-8.975 6.392-1.788 1.231-3.331 2.185-6.884 3.11-4.593 1.194-8.636.293-8.893-2.08.012-.272.144-.634.377-1.052 4.24-.073 10.552-1.595 14.314-2.919 1.882-.662 1.078-2.077-.356-1.572-3.237 1.138-7.73 2.4-11.515 2.647.699-1.365 1.89-2.805 4.07-3.803 2.445-1.118 4.452-1.427 7.157-1.692 2.696-.265 7.395.053 10.705.97m-19.552 21.803c-3.98 1.199-6.75 3.435-9.341 4.803-1.943 1.026-4.06 1.777-7.711 2.27-4.722.638-7.704-.473-7.634-2.912.05-.274.23-.625.519-1.02 4.217.456 9.31-.21 13.223-1.082 1.958-.436 1.354-1.971-.138-1.639-3.368.75-7.962 1.5-11.752 1.278 1.452-1.322 3.601-2.73 5.903-3.47 2.578-.829 4.33-1.173 7.05-1.104 2.712.067 6.723 1.534 9.88 2.877zm-24.649 21.469c-4.063.309-7.51 1.918-10.296 2.69-2.088.58-3.986.824-7.571.518-4.636-.396-7.505-2.024-6.864-4.382.111-.256.663-.652 1.031-.974 3.9 1.35 8.56 2.013 12.484 2.007 1.963-.003 1.751-1.626.255-1.624-3.376.005-7.583-.467-11.132-1.5 1.69-.973 4.065-1.88 6.425-2.104 2.645-.251 4.592.127 7.16.778 2.56.65 5.824 2.605 8.508 4.59m57.756-109.84c-2.008-1.294-3.249-2.385-4.686-4.24-4.754-6.458-4.833-17.63-3.483-23.367 1.392 1.061 2.834 1.783 4.178 2.892 2.768 2.284 4.238 4.41 5.416 7.729 1.229 3.46 1.284 7.494.291 11.445-4.444-4.146-5.673-10.182-6.31-15.901-.161-1.44-2.006-1.714-1.795.175.723 6.485 2.206 13.134 7.592 17.6a80 80 0 0 1-1.203 3.667zm-10.25 27.174c-1.737-1.608-2.797-2.87-3.868-4.935-.94-1.812-1.302-3.691-1.73-5.641-1.007-4.58.54-13.248 2.325-17.294 1.176 1.276 2.617 2.413 3.734 3.727 2.303 2.71 3.407 5.102 3.953 8.565.568 3.609-.333 7.326-2.043 11.048-3.609-4.822-3.702-10.967-3.271-16.7.108-1.442-1.658-2.02-1.8-.127-.489 6.5-.258 13.29 4.22 18.583a54 54 0 0 1-1.52 2.774m-14.509 23.43c-1.554-1.76-2.704-3.17-3.544-5.324-.737-1.888-.986-3.885-1.2-5.863-.5-4.65 2.085-12.625 5.055-16.767a112 112 0 0 1 2.83 3.923c1.996 2.908 3.052 5.246 3.217 8.741.173 3.642-1.434 7.663-3.542 11.208-3.066-5.128-2.085-11.347-1.03-17.01.266-1.425-1.429-2.162-1.777-.293-1.197 6.422-2.112 13.296 1.766 18.973-.671 1.034-1.09 1.468-1.775 2.412m-18.645 20.72c-1.337-1.918-2.307-3.313-2.89-5.545-.969-3.716-.428-8.086.883-11.66 1.405-3.826 3.389-8.33 5.103-10.74 1.238 1.293 2.268 2.649 3.064 4.157 1.643 3.109 2.405 5.81 2.159 9.3-.258 3.639-.808 6.925-4.633 11.06-2.444-5.431-1.242-11.542.472-17.051.431-1.387-1.166-2.305-1.732-.486-1.944 6.247-3.625 12.828-.44 18.894-.789.952-1.196 1.209-1.986 2.072m-19.272 18.63c-1.13-2.032-1.715-3.65-2.062-5.924-.304-1.995-.318-4.354-.09-6.33.537-4.646 4.286-12.529 8.433-16.041.704 1.554 1.486 3.27 2.122 4.845 1.311 3.244 1.774 5.908 1.164 9.357-.636 3.595-2.785 6.95-5.628 9.99-1.866-5.63.051-11.494 2.332-16.815.574-1.34-.92-2.401-1.673-.644-2.587 6.034-4.583 12.551-2.044 18.881-.886.875-1.676 1.896-2.554 2.68m-23.738 13.226c-1.333-4.8-.842-7.066.844-11.61 1.635-4.406 7.848-11.061 11.59-13.652.314 1.193 1.18 2.19 1.423 3.858.5 3.436-.128 7.528-1.55 10.754-1.48 3.362-4.318 5.635-7.818 7.985-.471-5.875 2.616-10.422 6.115-15.113.88-1.181-.323-2.533-1.478-.984-3.968 5.32-7.289 10.485-6.329 17.186-1.073.662-1.753 1-2.797 1.577z" style="display:inline;fill:#fff;fill-rule:evenodd;stroke-width:.529193"></path><path d="M88.194 49.43V21.595h6.071v12.36l12.27-12.36h8.165l-11.324 10.843 11.94 16.994h-7.857l-8.264-13.067-4.93 4.654v8.413zm42.913 0V26.306h-8.922v-4.711h23.9v4.712h-8.9V49.43zm24.782 0V21.595h22.296v4.712H161.96v6.17h15.098v4.686H161.96v7.576h16.8v4.693zm-13.874 106.08c-1.657.596-3.16 2.13-4.588 3.51-2.093 2.023-3.693 4.007-4.149 6.2-.467 2.24.94 4.732 3.13 6.478 1.716 1.368 3.88 2.285 5.659 2.05 2.676-.356 6.346-5.602 8.825-7.92 1.53-1.429 3.054.572 3.674 1.75.746 1.413 1.045 3.298.51 4.937-.342 1.046-2.047 2.607-2.793 3.355-1.888 1.896-4.652.696-6.64.847-.743.056-1.215.904-.197 2.374 1.993 2.88 4.632 2.108 5.872 1.715 1.948-.617 7.576-7.295 7.995-8.502 1.738-5.004-.156-10.124-4.357-14.078-3.272-3.079-8.714-4.236-12.942-2.715zm5.103 11.106c-1.53 1.58-4.614 2.375-6.547.047-1.625-1.955-1.134-4.58.178-5.935 1.387-1.433 3.991-2.247 6.066-.6 2.332 1.853 1.81 4.933.302 6.488m7.682-20.191c-.357-.322-.428-.744-.111-1.105.716-.817 3.014-2.147 3.489-3.85.254-.913-.195-2.106-1.06-3.521-.192-.316.12-.62.553-1.012.48-.433.898-1.126 1.407-.647l14.868 13.982c.512.481 1.068.624 1.684.283.745-.412 1.684-1.52 2.308-2.082.163-.146.49-.257.704-.057l1.384 1.3c.375.352.289.991 0 1.272-3.521 3.429-6.112 6.055-8.816 9.268-.45.535-.805.653-1.194.268l-1.09-1.08c-.262-.26-.51-.684-.347-.912.644-.906 1.807-1.528 2.216-2.569.23-.589-.032-1.383-.495-1.815l-8.627-8.063c-.793-.742-1.997-.916-2.771-.405-.973.644-1.459 1.835-2.048 2.126-.276.136-.58-.053-.808-.26zm15.602-16.59c-.358-.323-.428-.745-.111-1.106.716-.817 3.015-2.147 3.489-3.85.254-.913-.195-2.105-1.06-3.52-.193-.316.119-.621.553-1.013.48-.433.898-1.126 1.408-.646l14.867 13.98c.512.483 1.069.625 1.684.285.745-.412 1.684-1.521 2.308-2.082.163-.146.49-.257.703-.057l1.385 1.3c.375.352.289.99 0 1.271-3.521 3.43-6.112 6.056-8.816 9.269-.45.535-.805.653-1.194.268l-1.09-1.08c-.262-.26-.51-.684-.347-.912.644-.906 1.806-1.529 2.215-2.569.232-.589-.032-1.383-.494-1.815l-8.627-8.064c-.794-.742-1.998-.915-2.77-.405-.974.644-1.46 1.834-2.05 2.126-.274.136-.58-.053-.807-.26zm-52.639 55.973c-.357-.322-.427-.744-.111-1.105.716-.817 3.015-2.147 3.49-3.85.254-.913-.195-2.106-1.06-3.521-.193-.315.119-.62.553-1.012.478-.433.897-1.126 1.407-.647l14.867 13.982c.513.482 1.07.624 1.685.283.744-.412 1.684-1.52 2.308-2.081.162-.146.49-.258.703-.058l1.384 1.3c.375.352.29.991.001 1.272-3.522 3.43-6.112 6.056-8.817 9.269-.45.535-.805.653-1.194.267l-1.09-1.08c-.262-.26-.51-.683-.347-.912.645-.905 1.807-1.528 2.216-2.568.232-.59-.032-1.383-.494-1.815l-8.627-8.064c-.794-.742-1.998-.915-2.771-.405-.974.644-1.46 1.835-2.05 2.126-.274.136-.579-.053-.807-.26z" style="display:inline;fill:#6b4490;fill-rule:evenodd;stroke-width:.529193" data-source="https://football-logos.cc"></path><!-- source: https://football-logos.cc --></svg>