<svg xmlns="http://www.w3.org/2000/svg" viewBox="335.97 200.95 394.73 398.1"><!-- Source: https://football-logos.cc --><defs data-source="https://football-logos.cc"><clipPath id="a" clipPathUnits="userSpaceOnUse"><path d="M-505.573 150.711h800v-600h-800Z"></path></clipPath><clipPath id="b" clipPathUnits="userSpaceOnUse"><path d="M-303.544 168.004h800v-600h-800Z"></path></clipPath><clipPath id="c" clipPathUnits="userSpaceOnUse"><path d="M-283.023 223.246h800v-600h-800Z"></path></clipPath><clipPath id="d" clipPathUnits="userSpaceOnUse"><path d="M-482.623 373.556h800v-600h-800Z"></path></clipPath><clipPath id="e" clipPathUnits="userSpaceOnUse"><path d="M-317.598 285.47h800v-600h-800Z"></path></clipPath><clipPath id="f" clipPathUnits="userSpaceOnUse"><path d="M-391.481 285.47h800v-600h-800Z"></path></clipPath><clipPath id="g" clipPathUnits="userSpaceOnUse"><path d="M-479.412 315.883h800v-600h-800Z"></path></clipPath><clipPath id="h" clipPathUnits="userSpaceOnUse"><path d="M-337.22 199.695h800v-600h-800Z"></path></clipPath><clipPath id="i" clipPathUnits="userSpaceOnUse"><path d="M-378.42 190.708h800v-600h-800Z"></path></clipPath><clipPath id="j" clipPathUnits="userSpaceOnUse"><path d="M-409.447 232.57h800v-600h-800Z"></path></clipPath><clipPath id="k" clipPathUnits="userSpaceOnUse"><path d="M-448.33 227.692h800v-600h-800Z"></path></clipPath><clipPath id="l" clipPathUnits="userSpaceOnUse"><path d="M-490.037 214.9h800v-600h-800Z"></path></clipPath></defs><path d="M0 0s-45.96-18.304-105.573-18.304S-211.146 0-211.146 0c-17.7-67.036-42.45-101.346-42.45-101.346 19.932-123.202 78.299-158.827 148.023-197.232 69.724 38.405 128.092 74.03 148.023 197.232 0 0-24.75 34.31-42.45 101.346" clip-path="url(#a)" style="fill:#b2914d;fill-opacity:1;fill-rule:nonzero;stroke:none" transform="matrix(1.33333 0 0 -1.33333 674.098 200.949)"></path><path d="M0 0c18.669-5.711 54.155-14.455 96.456-14.455S174.243-5.711 192.911 0c5.938-20.032 12.363-36.816 18.32-50.34-14.018-6.599-60.189-26.122-114.774-26.104-32.892-.003-62.733 7.069-84.322 14.149-10.795 3.54-19.526 7.08-25.546 9.726a211 211 0 0 0-4.906 2.231C-12.362-36.814-5.936-20.031 0 0" clip-path="url(#b)" style="fill:#fff;fill-opacity:1;fill-rule:nonzero;stroke:none" transform="matrix(1.33333 0 0 -1.33333 404.725 224.005)"></path><path d="M0 0c-7.097-15.486-13.317-26.119-16.912-31.81 8.96-51.464 25.312-89.218 51.266-118.5 22.412-25.286 49.662-42.051 82.623-60.37v184.1C61.237-26.56 14.536-6.836 0 0" clip-path="url(#c)" style="fill:#e60000;fill-opacity:1;fill-rule:nonzero;stroke:none" transform="matrix(1.33333 0 0 -1.33333 377.365 297.66)"></path><path d="M0 0c25.955 29.282 42.307 67.036 51.266 118.5-3.595 5.691-9.815 16.324-16.912 31.811-14.536-6.837-61.237-26.561-116.977-26.581v-184.1C-49.662-42.05-22.412-25.286 0 0" clip-path="url(#d)" style="fill:#000;fill-opacity:1;fill-rule:nonzero;stroke:none" transform="matrix(1.33333 0 0 -1.33333 643.497 498.074)"></path><path d="M0 0h20.922l8.068-31.325L37.001 0H57.91v-51.484H44.881v39.263L34.842-51.484H23.049l-10.02 39.263v-39.263H0Z" clip-path="url(#e)" style="fill:#fff;fill-opacity:1;fill-rule:nonzero;stroke:none" transform="matrix(1.33333 0 0 -1.33333 423.464 380.627)"></path><path d="M0 0h39.333v-11.062H15.979v-8.991h19.948v-10.395H15.979v-21.036H0z" clip-path="url(#f)" style="fill:#fff;fill-opacity:1;fill-rule:nonzero;stroke:none" transform="matrix(1.33333 0 0 -1.33333 521.975 380.627)" data-source="https://football-logos.cc"></path><path d="m0 0 13.942-4.215q-1.404-5.864-4.425-9.797-3.02-3.932-7.497-5.935-4.48-2.001-11.396-2.001-8.394 0-13.714 2.438-5.321 2.44-9.183 8.58-3.865 6.142-3.864 15.725 0 12.773 6.795 19.635 6.795 6.86 19.229 6.861 9.726 0 15.293-3.934 5.566-3.933 8.269-12.08L-.598 12.151q-.736 2.353-1.545 3.441-1.333 1.827-3.265 2.81t-4.321.984q-5.406 0-8.287-4.35-2.178-3.228-2.177-10.137 0-8.56 2.599-11.734t7.304-3.173q4.566 0 6.901 2.563T0 0" clip-path="url(#g)" style="fill:#fff;fill-opacity:1;fill-rule:nonzero;stroke:none" transform="matrix(1.33333 0 0 -1.33333 639.216 421.177)"></path><path d="M0 0q1.09 3.456.224 5.569-.865 2.113-4.429 3.236l-1.793.566-4.242-13.456.907-.286q3.542-1.116 5.903-.068T0 0m8.77-1.554q-.817-2.592-2.475-4.123A8.9 8.9 0 0 0 2.39-7.782q-2.325-.597-4.99-.35-2.664.246-5.775 1.227l-2.505.79-2.718-8.618q-.245-.777-.133-1.442t.822-1.268q.377-.309 1.289-.81a18 18 0 0 1 1.559-.777l-.531-1.684-16.609 5.236.531 1.685q.647-.134 1.721-.341 1.074-.209 1.539-.165.952.08 1.378.492.427.41.706 1.297l6.816 21.62q.238.756.154 1.389-.087.632-.834 1.272-.524.449-1.463.971t-1.416.743l.531 1.685L-.626 9.838q5.939-1.873 8.28-4.689Q9.996 2.334 8.77-1.554" clip-path="url(#h)" style="fill:#000;fill-opacity:1;fill-rule:nonzero;stroke:none" transform="matrix(1.33333 0 0 -1.33333 449.626 266.26)"></path><path d="M0 0q-.143-.94-.815-1.457-.675-.517-1.839-.799-1.332-.325-3.979-.865a141 141 0 0 1-6.17-1.426l-.6 1.03A155 155 0 0 1-9.421-.661q1.368 1.03 2.852 2.203.985.767 1.831 1.052.844.285 1.717.153 1.456-.22 2.315-.98Q.153 1.008 0 0m3.483-16.811-1.702.257q-.376 1.906-1.686 3.997-1.31 2.093-2.826 2.664-.65.258-1.842.472-1.193.215-1.976.333l-4.614.697-1.85-12.248 3.269-.495q1.231-.185 2.284-.047 1.051.139 2.005.843.591.437 1.315 1.656.723 1.218 1.025 2.159l1.701-.258-2.003-13.256-1.701.257q.007.962-.326 2.466-.335 1.505-.745 2.116a3.9 3.9 0 0 1-1.58 1.373q-.961.454-2.283.654l-3.269.494-1.384-9.158q-.216-1.434-.131-2.306.085-.871.601-1.407.495-.51 1.449-.792.954-.281 2.633-.535a99 99 0 0 1 1.884-.262 17 17 0 0 1 1.946-.156q.958-.031 1.809.07.85.1 1.319.465 1.24.934 2.924 2.982t2.278 3.103l1.635-.247-2.1-9.806-29.804 4.503.263 1.747q.634-.05 1.729-.078t1.57.083q.906.23 1.279.735.374.504.503 1.355l3.387 22.415q.122.806-.045 1.369-.167.564-1.043 1.132-.542.356-1.56.739t-1.546.531l.264 1.747L4.708-8.705z" clip-path="url(#i)" style="fill:#000;fill-opacity:1;fill-rule:nonzero;stroke:none" transform="matrix(1.33333 0 0 -1.33333 504.56 254.277)"></path><path d="M0 0q-3.531-.122-6.648.916-3.118 1.038-5.479 3.135-2.315 2.053-3.713 5.147t-1.529 6.856q-.129 3.74 1.062 6.969t3.465 5.645q2.229 2.368 5.422 3.739t6.883 1.497q2.67.091 4.889-.488 2.217-.581 3.762-1.343l1.361 1.293 1.968.068.609-11.717-1.991-.069q-1.882 5.317-4.342 7.753-2.462 2.435-5.875 2.318-4.248-.148-6.334-3.975-2.087-3.83-1.853-10.606.133-3.832.984-6.515t2.13-4.294q1.37-1.678 3.184-2.422 1.814-.743 3.984-.667 3.165.11 5.581 1.915t4.33 5.361l1.987-1.11a19.6 19.6 0 0 0-2.095-3.641 13.4 13.4 0 0 0-2.781-2.804A15 15 0 0 0 5.079.878Q2.942.102 0 0" clip-path="url(#j)" style="fill:#000;fill-opacity:1;fill-rule:nonzero;stroke:none" transform="matrix(1.33333 0 0 -1.33333 545.93 310.094)"></path><path d="M0 0q-2.885-.59-5.527-.382-2.644.209-4.576.831l-1.211-1.866-1.886-.387-2.621 11.322 1.908.39a30 30 0 0 1 2.344-3.087 17 17 0 0 1 2.967-2.752 12.2 12.2 0 0 1 3.526-1.802q1.865-.59 4.106-.131 3.018.618 4.323 2.424 1.307 1.807.846 4.049-.377 1.843-1.999 2.818-1.62.975-4.671 1.302-1.986.219-3.655.412a58 58 0 0 0-3.154.444q-3.433.616-5.457 2.655t-2.621 4.948a8.4 8.4 0 0 0 .072 3.707q.452 1.863 1.703 3.532 1.207 1.566 3.327 2.834t4.806 1.818q2.616.537 5.053.273 2.434-.264 3.893-.727l1.081 1.608 1.93.395 2.379-10.701-1.908-.391a43 43 0 0 1-2.291 3.226q-1.27 1.629-2.516 2.625a8.8 8.8 0 0 1-2.928 1.543q-1.578.476-3.484.085-2.397-.491-3.639-2.158-1.242-1.668-.832-3.667.388-1.888 1.953-2.818 1.567-.93 4.549-1.268a304 304 0 0 1 3.578-.424 64 64 0 0 0 3.258-.443q3.471-.585 5.594-2.43t2.789-5.088q.418-2.043-.144-4.15a9.36 9.36 0 0 0-1.922-3.704Q7.455 3.102 5.28 1.869T0 0" clip-path="url(#k)" style="fill:#000;fill-opacity:1;fill-rule:nonzero;stroke:none" transform="matrix(1.33333 0 0 -1.33333 597.772 303.59)"></path><path d="m0 0-16.885-5.707-.566 1.674q.565.238 1.664.705 1.096.467 1.468.783.683.59.797 1.214.112.623-.164 1.438L-20.98 21.69q-.247.73-.715 1.193t-1.399.532q-.586.04-1.671-.076a19 19 0 0 1-1.842-.276l-.567 1.674 16.885 5.706.565-1.673q-.622-.282-1.547-.727-.927-.443-1.518-.883-.743-.561-.822-1.246t.173-1.435l7.289-21.561q.26-.772.735-1.222.474-.45 1.405-.517.517-.041 1.618.129 1.103.168 1.826.365z" clip-path="url(#l)" style="fill:#000;fill-opacity:1;fill-rule:nonzero;stroke:none" transform="matrix(1.33333 0 0 -1.33333 653.383 286.534)" data-source="https://football-logos.cc"></path><!-- source: https://football-logos.cc --></svg>