<svg xmlns="http://www.w3.org/2000/svg" viewBox="0 0 299.99 300"><!-- Source: https://football-logos.cc --><g transform="matrix(.52917 0 0 -.52917 -7.504 307.662)" data-source="https://football-logos.cc"><circle cx="297.64" cy="-297.94" r="283.46" fill="#fff" transform="scale(1 -1)"></circle><g fill="#53b73c" fill-rule="evenodd"><path d="M2976.4 5814.1c1565.3 0 2834.6-1269.4 2834.6-2834.6S4541.6 144.9 2976.4 144.9c-1565.3 0-2834.6 1269.4-2834.6 2834.6s1269.4 2834.6 2834.6 2834.6m0-83.47c1519.2 0 2751.2-1232 2751.2-2751.2s-1232-2751.2-2751.2-2751.2-2751.2 1232-2751.2 2751.2 1232 2751.2 2751.2 2751.2" style="fill:#42ad4a;fill-opacity:1" transform="scale(.1)"></path><path d="M2976.4 5647.2c1473.1 0 2667.7-1194.6 2667.7-2667.7S4449.5 311.8 2976.4 311.8 308.7 1506.4 308.7 2979.5s1194.6 2667.7 2667.7 2667.7m0-556.48c1165.8 0 2111.2-945.42 2111.2-2111.2s-945.42-2111.2-2111.2-2111.2-2111.2 945.42-2111.2 2111.2 945.43 2111.2 2111.2 2111.2" style="fill:#42ad4a;fill-opacity:1" transform="scale(.1)"></path><path d="M1935.9 2024h465.06l-679.99 1800.4L2159.06 4870h1634.8l437.91-1045.6L3552.65 2024h466.66v-788.81h-2083.4zm315.71 2706.9-380.93-909.2 678.89-1797.4h854.44l678.01 1797.4-380.77 909.22zm-176.6-2846h1805.1v-510.57h-1805.1z" style="fill:#42ad4a;fill-opacity:1" transform="scale(.1)"></path></g><path fill="#231f20" fill-rule="evenodd" d="M297.64 386.01c30.925 0 56.004-25.079 56.004-56.004s-25.079-56.004-56.004-56.004-56.004 25.079-56.004 56.004 25.079 56.004 56.004 56.004m35.909-52.085-13.998-1.855-11.673-21.544 6.096-12.752 15.158-.794 13.368 24.67zm-14.572-.247 14.366 1.904 5.44 14.171-19.332 20.337-14.44-4.72-2.626-14.239zm21.536 15.923-5.631-14.67 9.238-12.669 7.145-1.045c.466 2.861.709 5.798.709 8.789a54.1 54.1 0 0 1-4.852 22.458zm-28.051-52.535-5.994 12.54-24.353 4.492-10.084-9.586 3.929-14.662 27.594-5.089zm17.061-1.779-15.692.822-9.195-12.7 1.214-7.119c10.864 1.65 20.673 6.522 28.426 13.609zm-58.632 10.445 10.234 9.729-3.22 24.29-12.427 6.733-12.73-8.266 3.686-27.816zm3.58-16.776-4.067 15.178-14.921 4.82-6.392-3.353a54.65 54.65 0 0 1 21.718-22.842zm-8.185 58.989 12.73-6.897 21.727 10.386 2.629 14.253-11.797 9.552-25.315-12.101zm-14.848-8.587 13.178 8.557-.027 15.68-5.151 5.03c-7.491-7.411-12.841-16.982-15.032-27.699zm40.817 37.479 12.211-9.888 14.904 4.871 3.198 6.466a54.05 54.05 0 0 1-24.928 6.054 55 55 0 0 1-6.065-.339z"></path><g fill="#fff"><path d="m113.47 486.94 9.96 8.359c2.695 2.261 4.948 3.796 6.749 4.582q2.714 1.19 4.798.911c1.403-.19 2.714-.743 3.92-1.659 1.213-.924 2.815-2.572 4.814-4.955l2.779-3.312q3.06-3.648 3.71-5.935c.43-1.539.221-3.163-.614-4.888q-1.262-2.577-4.498-5.293l-2.655-2.227 12.854-15.319-9.898-8.305zm15.355 1.8 8.123-9.681q.441.33.741.583c.916.766 1.352 1.516 1.335 2.254-.024.744-.628 1.823-1.806 3.226l-2.625 3.128c-1.09 1.299-2.004 1.982-2.736 2.024-.739.05-1.749-.457-3.032-1.534M217.51 548.64l22.375-44.945-12.576-4.086-3.368 8.296-4.41-1.433 2.032-8.73-12.716-4.132-9.102 49.258zm3.365-32.483c-2.365 5.142-5.131 11.554-8.31 19.207q2.534-14.152 4.108-20.573zM325.57 561.01l-7.782-22.284 7.617-27.38-13.337.232-4.842 21.374-.371-21.282-12.918.225.867 49.653 12.918-.226-.337-19.294 6.063 19.194zM414.55 517.59l-10.951 4.876 1.495 3.357c.698 1.57 1.001 2.638.916 3.191-.086.555-.461.973-1.121 1.267q-1.06.476-1.995-.154c-.618-.412-1.192-1.212-1.715-2.388-.674-1.512-.983-2.749-.913-3.697.052-.939.762-2.356 2.103-4.26 3.863-5.456 6.026-9.479 6.504-12.087s-.279-6.134-2.259-10.581c-1.439-3.234-2.882-5.445-4.319-6.639s-3.476-1.833-6.097-1.904c-2.632-.066-5.381.528-8.26 1.81-3.156 1.406-5.585 3.208-7.282 5.397q-2.559 3.287-2.359 6.516c.138 2.162.96 4.937 2.476 8.342l1.32 2.965 10.952-4.877-2.457-5.518c-.758-1.703-1.091-2.861-1.002-3.485.103-.619.538-1.111 1.322-1.459.784-.35 1.504-.304 2.163.148.655.441 1.256 1.275 1.797 2.489 1.188 2.669 1.604 4.581 1.243 5.727-.38 1.155-1.617 3.345-3.688 6.57-2.068 3.259-3.383 5.53-3.948 6.835-.555 1.302-.809 2.87-.74 4.697.058 1.83.634 3.947 1.707 6.357 1.546 3.471 3.119 5.82 4.724 7.03 1.596 1.216 3.588 1.83 5.972 1.858 2.38.017 4.976-.589 7.779-1.836 3.07-1.367 5.46-3.027 7.173-4.97 1.719-1.958 2.59-3.836 2.626-5.662q.042-2.718-2.369-8.125zM477.04 491.03l-31.92-38.042-9.898 8.305 31.921 38.041zM262.28 86.878l21.659-3.044-1.383-9.84-8.864 1.246-1.311-9.32 7.89-1.11-1.315-9.362-7.891 1.11-2.902-20.654-12.795 1.798zM356.12 69.286l-12.673-2.464-1.65 8.49c-.479 2.466-.922 3.98-1.309 4.545-.386.554-1.042.747-1.967.567-1.048-.204-1.634-.702-1.778-1.498-.131-.804.037-2.436.516-4.902l4.401-22.64c.462-2.376.905-3.89 1.322-4.554.43-.674 1.127-.912 2.114-.72q1.419.273 1.637 1.448c.148.776-.027 2.502-.547 5.174L345 58.837l12.672 2.463.368-1.89c.979-5.037 1.315-8.683 1.014-10.928-.299-2.245-1.522-4.402-3.65-6.459s-4.984-3.442-8.55-4.136c-3.72-.723-6.915-.64-9.582.238-2.667.88-4.631 2.428-5.874 4.65-1.245 2.233-2.33 5.734-3.259 10.512l-2.767 14.235c-.683 3.515-1.072 6.17-1.177 7.973-.095 1.806.284 3.64 1.172 5.497.876 1.855 2.281 3.462 4.216 4.809 1.938 1.337 4.282 2.282 7.026 2.816 3.741.728 6.966.597 9.671-.37 2.707-.978 4.65-2.467 5.841-4.475 1.179-2.01 2.213-5.298 3.098-9.85z"></path></g><g fill="#53b73c"><path d="M2501.4 4147v-84.61h-272.45v70.81c80.74 131.88 128.65 213.57 143.91 244.94 15.16 31.38 22.8 55.85 22.8 73.43 0 13.48-2.3 23.53-6.9 30.12-4.6 6.69-11.61 10.04-21.02 10.04-9.31 0-16.32-3.76-20.92-11.09-4.6-7.32-6.9-21.96-6.9-43.82v-47.17h-110.97v18.09c0 27.72 1.47 49.68 4.29 65.68 2.92 16.01 9.94 31.8 21.12 47.38 11.3 15.48 25.84 27.3 43.83 35.25 17.98 7.95 39.53 11.92 64.63 11.92 49.26 0 86.5-12.23 111.7-36.61 25.31-24.47 37.86-55.32 37.86-92.66 0-28.45-7.11-58.46-21.23-90.16-14.22-31.58-56.06-98.83-125.51-201.54zM2923.1 4390.6v-165.46c0-37.65-2.09-64.95-6.17-82.1-4.07-17.26-12.55-33.26-25.41-48.11-12.87-14.95-28.35-25.73-46.54-32.22-18.21-6.59-38.49-9.82-60.98-9.82-29.6 0-54.28 3.45-73.84 10.25-19.66 6.9-35.24 17.57-46.85 32-11.72 14.54-19.98 29.8-24.9 45.81-4.91 16.1-7.31 41.52-7.31 76.45v173.2c0 45.49 3.97 79.59 11.81 102.29 7.85 22.69 23.43 40.89 46.86 54.59 23.42 13.71 51.77 20.5 85.03 20.5 27.19 0 51.46-4.7 72.89-14.22 21.44-9.52 37.56-21.13 48.12-34.83 10.66-13.7 17.88-29.08 21.64-46.23 3.77-17.15 5.65-44.55 5.65-82.1m-123.83 41.63c0 26.35-1.25 42.88-3.76 49.47-2.62 6.69-8.58 10.04-18 10.04-9.2 0-15.26-3.56-18.19-10.67-2.93-7.01-4.39-23.32-4.39-48.84v-242.02c0-28.87 1.36-46.23 4.08-52.09 2.71-5.96 8.78-8.89 17.88-8.89 9.2 0 15.26 3.46 18.1 10.36 2.92 7.01 4.28 22.59 4.28 46.96zM3309.8 4390.6v-165.46c0-37.65-2.09-64.95-6.16-82.1-4.09-17.26-12.56-33.26-25.43-48.11-12.86-14.95-28.34-25.73-46.53-32.22-18.21-6.59-38.49-9.82-60.98-9.82-29.6 0-54.28 3.45-73.84 10.25-19.66 6.9-35.24 17.57-46.86 32-11.71 14.54-19.97 29.8-24.89 45.81-4.91 16.1-7.31 41.52-7.31 76.45v173.2c0 45.49 3.96 79.59 11.81 102.29 7.84 22.69 23.42 40.89 46.85 54.59 23.43 13.71 51.78 20.5 85.04 20.5 27.19 0 51.46-4.7 72.89-14.22 21.44-9.52 37.55-21.13 48.12-34.83 10.66-13.7 17.88-29.08 21.64-46.23 3.77-17.15 5.65-44.55 5.65-82.1m-123.84 41.63c0 26.35-1.25 42.88-3.76 49.47-2.61 6.69-8.57 10.04-17.99 10.04-9.2 0-15.27-3.56-18.19-10.67-2.93-7.01-4.4-23.32-4.4-48.84v-242.02c0-28.87 1.36-46.23 4.09-52.09 2.71-5.96 8.78-8.89 17.87-8.89 9.21 0 15.27 3.46 18.1 10.36 2.93 7.01 4.28 22.59 4.28 46.96zM3689.1 4426.6h-123.83c0 23.11-.21 37.65-.73 43.71-.53 6.07-2.94 11.09-7.33 15.17-4.38 4.07-10.45 6.17-17.99 6.17-6.27 0-11.5-1.99-15.58-5.86s-6.48-8.89-7.11-15.06c-.63-6.07-.83-18.41-.83-37.02v-79.07c6.27 13.28 15.57 23.22 27.81 29.91 12.24 6.59 27.41 9.93 45.39 9.93 22.7 0 42.68-6.17 60.04-18.4 17.36-12.24 28.34-26.99 33.05-44.14 4.71-17.16 7.11-40.37 7.11-69.55v-39.53c0-34.73-1.36-60.56-3.97-77.51-2.73-16.94-9.84-32.63-21.34-47.06-11.51-14.33-27.4-25.52-47.48-33.58-20.09-7.94-43.61-11.91-70.29-11.91-33.36 0-60.66 4.6-81.89 13.8-21.23 9.21-37.65 22.38-49.16 39.64-11.5 17.26-18.3 35.45-20.18 54.38-1.99 19.04-2.93 55.96-2.93 110.66v68.61c0 59.09.84 98.52 2.62 118.5 1.67 19.87 8.78 38.7 21.23 56.48 12.55 17.78 29.49 31.16 51.04 39.95 21.54 8.89 46.43 13.39 74.67 13.39 34.73 0 63.18-5.65 85.45-16.84 22.28-11.3 38.17-27.09 47.79-47.48 9.63-20.51 14.44-46.23 14.44-77.29m-123.83-154.69c0 17.57-1.88 29.59-5.86 36.18-3.87 6.49-10.14 9.73-18.93 9.73-8.58 0-14.85-3.04-18.83-9.31-3.97-6.27-5.95-18.4-5.95-36.6v-89.74c0-21.85 1.88-36.19 5.64-42.99 3.76-6.69 10.04-10.04 18.83-10.04 5.33 0 10.76 2.62 16.52 7.75 5.76 5.22 8.58 19.24 8.58 42.14zM2626.4 1780.6v-324.39h-80.9v173.93c0 25.09-.62 40.21-1.85 45.27-1.16 5.06-4.52 8.89-9.92 11.56-5.4 2.6-17.44 3.9-36.18 3.9h-8v37.82c39.12 8.41 68.87 25.72 89.19 51.91zM2731.7 1542.4h80.98c0-15.12.14-24.63.55-28.59.41-3.9 2.05-7.25 4.92-9.92 2.88-2.67 6.77-3.96 11.7-3.96 4.17 0 7.59 1.23 10.26 3.76 2.67 2.52 4.17 5.81 4.51 9.84.34 3.97.48 12.11.48 24.21v51.71c-3.97-8.68-9.98-15.18-18.06-19.49-8-4.38-17.92-6.57-29.81-6.57-14.84 0-27.91 4.04-39.26 12.04s-18.61 17.64-21.68 28.86c-3.08 11.22-4.59 26.4-4.59 45.48v25.86c0 22.7.89 39.6 2.67 50.68 1.84 11.07 6.5 21.34 13.95 30.78 7.46 9.43 17.86 16.75 31.05 21.95 13.27 5.19 28.59 7.79 46.1 7.79 21.61 0 39.4-3.01 53.28-9.02 13.89-6.02 24.69-14.64 32.28-25.92 7.59-11.29 12.04-23.19 13.2-35.57 1.23-12.45 1.85-36.45 1.85-72.16v-45.07c0-38.64-.55-64.42-1.64-77.42-1.02-13.06-5.68-25.37-13.89-37-8.2-11.63-19.35-20.31-33.38-26.12-14.01-5.82-30.22-8.76-48.69-8.76-22.84 0-41.51 3.69-56.02 11.01-14.49 7.39-24.89 17.72-31.25 31.05-6.36 13.4-9.51 30.23-9.51 50.55m80.98 101.15c0-13.61 1.71-22.02 5.27-25.24 3.56-3.21 7.18-4.79 10.94-4.79 5.61 0 9.71 2.05 12.31 6.09 2.6 4.11 3.9 12.04 3.9 23.94v58.75c0 14.29-1.23 23.6-3.7 28.04-2.45 4.38-6.56 6.64-12.3 6.64-3.49 0-7.11-1.72-10.81-5.13-3.76-3.42-5.61-12.59-5.61-27.56zM3225 1780.6v-51.91h-100.4v-55.06c12.58 14.84 28.72 22.23 48.49 22.23 22.3 0 39.19-6.22 50.61-18.74 11.42-12.51 17.1-36.52 17.1-72.02v-46.3c0-22.98-1.1-39.88-3.28-50.61-2.19-10.74-6.91-20.66-14.16-29.82-7.18-9.17-17.24-16.21-30.09-21.06-12.93-4.86-28.66-7.32-47.19-7.32-20.87 0-39.26 3.62-55.13 10.94-15.87 7.25-27.15 18.12-33.86 32.55-6.7 14.44-10.05 36.73-10.05 66.89v17.64h80.98v-20.24c0-20.93.75-35.83 2.19-44.65 1.5-8.83 6.56-13.2 15.25-13.2 3.97 0 7.25 1.23 9.71 3.76 2.46 2.52 3.83 5.26 4.03 8.2.14 2.94.42 15.73.69 38.3v64.29c0 12.18-1.3 20.45-3.83 24.9-2.53 4.38-6.78 6.57-12.58 6.57-3.77 0-6.91-1.1-9.44-3.36-2.53-2.32-4.17-4.71-4.93-7.31-.75-2.61-1.09-8.69-1.09-18.13h-80.16l3.42 163.46zM3516.9 1511.5v-55.33h-178.17v46.3c52.8 86.25 84.13 139.66 94.12 160.18 9.91 20.52 14.9 36.52 14.9 48.01 0 8.83-1.5 15.39-4.51 19.7-3.01 4.38-7.59 6.57-13.75 6.57-6.08 0-10.67-2.47-13.68-7.25-3.01-4.79-4.51-14.37-4.51-28.66v-30.85h-72.57v11.84c0 18.12.96 32.48 2.81 42.95 1.91 10.46 6.49 20.79 13.81 30.98 7.39 10.12 16.9 17.85 28.66 23.05 11.76 5.19 25.85 7.79 42.27 7.79 32.22 0 56.56-8 73.04-23.93 16.55-16 24.76-36.18 24.76-60.6 0-18.6-4.65-38.23-13.89-58.96-9.29-20.65-36.66-64.63-82.06-131.79z" style="fill:#42ad4a;fill-opacity:1" transform="scale(.1)"></path></g></g><!-- source: https://football-logos.cc --></svg>