<svg xmlns="http://www.w3.org/2000/svg" viewBox="14.43 -0.05 873.62 870.09"><!-- Source: https://football-logos.cc --><path fill="#bba481" fill-opacity=".82" d="M420.9 0h53.3l1.1.2c-8.4 1.7-16.9 0-25.3.4-10.1-.4-20.2 1.5-30.2 0z" data-source="https://football-logos.cc"></path><path fill="none" stroke="#bba481" stroke-miterlimit="10" stroke-opacity=".82" stroke-width=".094" d="M420.9 0h53.3l1.1.2c-8.4 1.7-16.9 0-25.3.4-10.1-.4-20.2 1.5-30.2 0z"></path><path fill="#d5aa68" d="M305 17.1C342.6 7.7 381.1 2.6 419.8.6c10 1.5 20.1-.4 30.2 0 8.4-.4 16.9 1.3 25.3-.4 12.3.8 24.6 1.3 36.9 2.5 48.2 4.6 96 14.8 141.3 31.8C715.6 57.7 773.5 93.6 819 142c15.1 15.8 27.2 34.2 40.5 51.5 2.1 2.6 3.3 5.8 4.2 9 4.9 17.7 11 35.1 14.5 53.1 5.1 25.2 8 50.8 9.2 76.5 3.4 72.2-7.5 145.4-33.3 213.1-21.7 57.4-54.5 110.6-96.1 155.8-41.2 45-90.9 82-145 110-23.4 12-47.2 23.4-72 32.1-20.7 7.4-42 12.7-63 18.9-8.8 2.7-17.9 4.4-26.4 8h-.8c-5-2.5-10.5-3.5-15.7-5.1-19.4-5.6-39-10.8-58.4-16.8-21-6.6-41.5-14.8-61.4-24.4-29.3-13.7-57.7-29.4-84.2-47.8-60.6-41.6-112.3-96.3-149-160C36 536.6 13.7 444.5 14.5 353c.4-38.6 4.3-77.3 13.8-114.7 3.9-13.7 7.8-27.3 12.1-40.9 5.9-9.2 13-17.7 19.4-26.6 14.5-20.4 32-38.6 50.8-55.1C166 67.4 233.9 34.7 305 17.1m109.5-1.5c-48.7 2.8-97.1 11.2-143.4 26.6-45.5 15.1-88.9 36.9-127.3 65.6-23.5 17.5-45.3 37.5-63.6 60.4-8 10.3-15.6 21-23.6 31.5-1.8 2.3-3.4 4.9-4.1 7.8-3.8 13.5-8.2 26.9-11.6 40.5-7.7 32.7-11.1 66.4-11.8 100-.8 42 3.5 84.2 12.7 125.2 15.8 70.6 47.6 137.6 93 194 43.1 53.9 98.3 97.6 159.2 129.8 32.8 17.3 67 32.3 102.9 42.1 17.1 4.9 34.2 9.7 51.4 14.7 4 1.5 8-.8 11.8-1.7 17.2-4.9 34.3-9.7 51.5-14.6 17.7-5.1 35.1-11.6 52.1-18.8 26.1-11.4 51.5-24.3 75.7-39.2 48.4-29.7 92.1-67.2 127.8-111.4 40.1-49.6 69.7-107.5 87.1-168.9 21-74.8 25.1-154.4 11.7-231-3.4-20.9-10.2-41-16-61.2-1.2-4.6-4.6-8-7.3-11.7-10.3-13.7-19.9-27.9-31.5-40.4-13.2-14.6-27.7-27.8-43.1-40-52.5-41.6-114.9-69.7-179.9-85-56.8-13.4-115.6-17.4-173.7-14.3"></path><path fill="none" stroke="#d5aa68" stroke-miterlimit="10" stroke-width=".094" d="M305 17.1C342.6 7.7 381.1 2.6 419.8.6c10 1.5 20.1-.4 30.2 0 8.4-.4 16.9 1.3 25.3-.4 12.3.8 24.6 1.3 36.9 2.5 48.2 4.6 96 14.8 141.3 31.8C715.6 57.7 773.5 93.6 819 142c15.1 15.8 27.2 34.2 40.5 51.5 2.1 2.6 3.3 5.8 4.2 9 4.9 17.7 11 35.1 14.5 53.1 5.1 25.2 8 50.8 9.2 76.5 3.4 72.2-7.5 145.4-33.3 213.1-21.7 57.4-54.5 110.6-96.1 155.8-41.2 45-90.9 82-145 110-23.4 12-47.2 23.4-72 32.1-20.7 7.4-42 12.7-63 18.9-8.8 2.7-17.9 4.4-26.4 8h-.8c-5-2.5-10.5-3.5-15.7-5.1-19.4-5.6-39-10.8-58.4-16.8-21-6.6-41.5-14.8-61.4-24.4-29.3-13.7-57.7-29.4-84.2-47.8-60.6-41.6-112.3-96.3-149-160C36 536.6 13.7 444.5 14.5 353c.4-38.6 4.3-77.3 13.8-114.7 3.9-13.7 7.8-27.3 12.1-40.9 5.9-9.2 13-17.7 19.4-26.6 14.5-20.4 32-38.6 50.8-55.1C166 67.4 233.9 34.7 305 17.1m109.5-1.5c-48.7 2.8-97.1 11.2-143.4 26.6-45.5 15.1-88.9 36.9-127.3 65.6-23.5 17.5-45.3 37.5-63.6 60.4-8 10.3-15.6 21-23.6 31.5-1.8 2.3-3.4 4.9-4.1 7.8-3.8 13.5-8.2 26.9-11.6 40.5-7.7 32.7-11.1 66.4-11.8 100-.8 42 3.5 84.2 12.7 125.2 15.8 70.6 47.6 137.6 93 194 43.1 53.9 98.3 97.6 159.2 129.8 32.8 17.3 67 32.3 102.9 42.1 17.1 4.9 34.2 9.7 51.4 14.7 4 1.5 8-.8 11.8-1.7 17.2-4.9 34.3-9.7 51.5-14.6 17.7-5.1 35.1-11.6 52.1-18.8 26.1-11.4 51.5-24.3 75.7-39.2 48.4-29.7 92.1-67.2 127.8-111.4 40.1-49.6 69.7-107.5 87.1-168.9 21-74.8 25.1-154.4 11.7-231-3.4-20.9-10.2-41-16-61.2-1.2-4.6-4.6-8-7.3-11.7-10.3-13.7-19.9-27.9-31.5-40.4-13.2-14.6-27.7-27.8-43.1-40-52.5-41.6-114.9-69.7-179.9-85-56.8-13.4-115.6-17.4-173.7-14.3Z"></path><path fill="#231f20" d="M414.5 15.6c58.1-3.1 116.9.9 173.7 14.3 65 15.3 127.4 43.4 179.9 85 15.4 12.2 29.9 25.4 43.1 40 11.6 12.5 21.2 26.7 31.5 40.4 2.7 3.7 6.1 7.1 7.3 11.7 5.8 20.2 12.6 40.3 16 61.2 13.4 76.6 9.3 156.2-11.7 231-17.4 61.4-47 119.3-87.1 168.9-35.7 44.2-79.4 81.7-127.8 111.4-24.2 14.9-49.6 27.8-75.7 39.2-17 7.2-34.4 13.7-52.1 18.8-17.2 4.9-34.3 9.7-51.5 14.6-3.8.9-7.8 3.2-11.8 1.7-17.2-5-34.3-9.8-51.4-14.7-35.9-9.8-70.1-24.8-102.9-42.1-60.9-32.2-116.1-75.9-159.2-129.8-45.4-56.4-77.2-123.4-93-194-9.2-41-13.5-83.2-12.7-125.2.7-33.6 4.1-67.3 11.8-100 3.4-13.6 7.8-27 11.6-40.5.7-2.9 2.3-5.5 4.1-7.8 8-10.5 15.6-21.2 23.6-31.5 18.3-22.9 40.1-42.9 63.6-60.4 38.4-28.7 81.8-50.5 127.3-65.6 46.3-15.4 94.7-23.8 143.4-26.6m11.9 13.8c-52.2 2-104.2 10.6-153.7 27.3-41.7 14.1-81.5 34.1-117 60-23.6 17.3-45.6 37.1-64 60-7.2 9.2-13.9 18.7-21 28-1.8 2.6-4.1 5-4.8 8.2-4.5 16.1-10.1 32-13.3 48.5C44.4 302 41.9 343.7 44 385c2.9 52.9 13.8 105.5 33.2 154.9 14.5 36.8 33.8 71.8 57.3 103.6 43 58.5 100.1 106 164.1 139.9 28.6 14.9 57.9 28.7 88.8 38.1 20.4 6.1 41 11.6 61.4 17.6 3.1 1.2 6.2-.5 9.1-1.2 27.9-8.3 56.3-15 83.5-25.5 14.6-5.6 28.9-12.2 42.9-19.1 66.1-31.6 125.9-77 171.9-134.2 38.8-48 67.4-104.1 84.2-163.6 20.7-73.4 24.6-151.6 11.1-226.7-3.2-19.3-9.5-37.8-14.9-56.6-.6-2.3-2.2-4.2-3.7-6.2-7-9.3-13.8-18.7-20.9-28-12.4-15.8-26.7-30-41.9-43.1C718.7 91 656 61.3 590.6 45.2 537 31.9 481.5 27.3 426.4 29.4"></path><path fill="none" stroke="#231f20" stroke-miterlimit="10" stroke-width=".094" d="M414.5 15.6c58.1-3.1 116.9.9 173.7 14.3 65 15.3 127.4 43.4 179.9 85 15.4 12.2 29.9 25.4 43.1 40 11.6 12.5 21.2 26.7 31.5 40.4 2.7 3.7 6.1 7.1 7.3 11.7 5.8 20.2 12.6 40.3 16 61.2 13.4 76.6 9.3 156.2-11.7 231-17.4 61.4-47 119.3-87.1 168.9-35.7 44.2-79.4 81.7-127.8 111.4-24.2 14.9-49.6 27.8-75.7 39.2-17 7.2-34.4 13.7-52.1 18.8-17.2 4.9-34.3 9.7-51.5 14.6-3.8.9-7.8 3.2-11.8 1.7-17.2-5-34.3-9.8-51.4-14.7-35.9-9.8-70.1-24.8-102.9-42.1-60.9-32.2-116.1-75.9-159.2-129.8-45.4-56.4-77.2-123.4-93-194-9.2-41-13.5-83.2-12.7-125.2.7-33.6 4.1-67.3 11.8-100 3.4-13.6 7.8-27 11.6-40.5.7-2.9 2.3-5.5 4.1-7.8 8-10.5 15.6-21.2 23.6-31.5 18.3-22.9 40.1-42.9 63.6-60.4 38.4-28.7 81.8-50.5 127.3-65.6 46.3-15.4 94.7-23.8 143.4-26.6m11.9 13.8c-52.2 2-104.2 10.6-153.7 27.3-41.7 14.1-81.5 34.1-117 60-23.6 17.3-45.6 37.1-64 60-7.2 9.2-13.9 18.7-21 28-1.8 2.6-4.1 5-4.8 8.2-4.5 16.1-10.1 32-13.3 48.5C44.4 302 41.9 343.7 44 385c2.9 52.9 13.8 105.5 33.2 154.9 14.5 36.8 33.8 71.8 57.3 103.6 43 58.5 100.1 106 164.1 139.9 28.6 14.9 57.9 28.7 88.8 38.1 20.4 6.1 41 11.6 61.4 17.6 3.1 1.2 6.2-.5 9.1-1.2 27.9-8.3 56.3-15 83.5-25.5 14.6-5.6 28.9-12.2 42.9-19.1 66.1-31.6 125.9-77 171.9-134.2 38.8-48 67.4-104.1 84.2-163.6 20.7-73.4 24.6-151.6 11.1-226.7-3.2-19.3-9.5-37.8-14.9-56.6-.6-2.3-2.2-4.2-3.7-6.2-7-9.3-13.8-18.7-20.9-28-12.4-15.8-26.7-30-41.9-43.1C718.7 91 656 61.3 590.6 45.2 537 31.9 481.5 27.3 426.4 29.4Z"></path><path fill="#fff" d="M426.4 29.4c55.1-2.1 110.6 2.5 164.2 15.8C656 61.3 718.7 91 770.1 134.9c15.2 13.1 29.5 27.3 41.9 43.1 7.1 9.3 13.9 18.7 20.9 28 1.5 2 3.1 3.9 3.7 6.2 5.4 18.8 11.7 37.3 14.9 56.6 13.5 75.1 9.6 153.3-11.1 226.7-16.8 59.5-45.4 115.6-84.2 163.6-46 57.2-105.8 102.6-171.9 134.2-14 6.9-28.3 13.5-42.9 19.1-27.2 10.5-55.6 17.2-83.5 25.5-2.9.7-6 2.4-9.1 1.2-20.4-6-41-11.5-61.4-17.6-30.9-9.4-60.2-23.2-88.8-38.1-64-33.9-121.1-81.4-164.1-139.9-23.5-31.8-42.8-66.8-57.3-103.6C57.8 490.5 46.9 437.9 44 385c-2.1-41.3.4-83 8.6-123.6 3.2-16.5 8.8-32.4 13.3-48.5.7-3.2 3-5.6 4.8-8.2 7.1-9.3 13.8-18.8 21-28 18.4-22.9 40.4-42.7 64-60 35.5-25.9 75.3-45.9 117-60C322.2 40 374.2 31.4 426.4 29.4m30.8 11.2c-1.5 3.1-3.1 6.1-4.6 9.2 3 .1 6.1 0 9.1 0 2.4-3 4.8-5.9 6.9-9-3.8-.3-7.6-.3-11.4-.2M416 53.9c-1.6 12.1-2.9 24.3-4.7 36.5-1-2.1-1.6-4.3-2.2-6.5-2.4-9.6-5.2-19.2-7.5-28.8-4.6-.1-9.1.4-13.6.6 4.7 16.4 9.9 32.6 14.9 49 6-.3 12-.8 18-1.1 2.9-16.9 5.6-33.7 8.3-50.6q-6.6.3-13.2.9m31.5-.9c-4.1 16.6-8.8 33-12.7 49.6 4.3 0 8.6.1 13 .1.5-2.9 1.2-5.8 1.8-8.7 4.4-.3 8.9-.1 13.4-.1.6 3 1.3 6 1.9 9 4.4.1 8.8.1 13.2.1-3.7-16.7-8-33.2-11.7-49.9-6.3-.1-12.6-.4-18.9-.1m45 1.1c-1.4 16.5-3.3 33.1-4.7 49.6 4.4.4 8.7.9 13.1 1.3.6-5.6 1.2-11.3 1.7-16.9 1.6.1 3.3.3 4.9.4 1.2 5.8 2.2 11.7 3.5 17.5 4.5.4 9 .9 13.5 1.3-1.3-6.5-3-12.8-4.4-19.2 2-1.6 4.3-3.4 5-6.1 1.9-5.7 2.5-11.9 1.5-17.8-1-4.9-6.1-7.3-10.6-7.8-7.8-.9-15.6-1.6-23.5-2.3M352 62c-5.6 3.4-5.7 10.9-4.4 16.6 1 4.1 2.2 9.5 6.8 10.9 5.1.8 10.4 0 15.6.7.8 2.5 1.1 5.1 1 7.7-6 2.2-12.4 2.4-18.6 2.9.3 3.3.8 6.6 1.4 9.8 7.9-.3 16-.5 23.6-3.2 4.7-1.5 7.2-6.7 6.9-11.4-.2-5.4-.8-11.5-4.5-15.8-3.6-3.6-9.3-2.1-13.9-2.4-1.6-.3-4.5.6-5-1.6-.6-2-1.7-5.4.9-6.3 5.2-1.9 10.8-1.8 16.2-2.3-.4-3.1-.9-6.3-1.3-9.5-8.3-.1-17.2 0-24.7 3.9m193.2-1.9c-3.2 16.3-6.7 32.6-9.7 48.9 8.5 1.5 16.9 4.1 25.6 4.3 4.2.2 8.6-1.9 10.2-5.9 2.9-7.2 4.1-14.9 5.5-22.4.5-4.3 1.7-8.8.2-13.1-1.8-4.6-6.9-6.3-11.2-7.6-6.8-1.6-13.8-2.8-20.6-4.2M318.5 68c3.7 16.2 7.3 32.4 11.2 48.6 4-.9 8.2-1.7 12.2-2.8l.4-.9c-3.4-15.9-7.3-31.8-10.8-47.8-4.4.9-8.7 1.9-13 2.9m-27.8 7.7c-2 7.1-2.1 14.7-4.1 21.9-.3 0-1 .1-1.3.1-2.4-6-4-12.2-6.2-18.2-4.2 1.3-8.4 2.6-12.6 4.2 5.2 15.8 10.4 31.5 15.6 47.3 4.2-1.3 8.4-2.7 12.6-4.1-1.8-6.7-5.2-13.1-5.7-20.1 6.6 4.4 10.8 11.7 17.2 16.2 4.5-1.1 8.8-2.8 13.1-4.3-6.7-7.1-13.8-13.8-20.8-20.7 1.7-8.8 3.7-17.6 5.2-26.5-4.4 1.4-8.7 2.6-13 4.2m286.5 41.7c4.1 1.5 8.3 2.8 12.5 3.9 1.5-2.6 3-5.2 4.4-7.8 4.2 1.2 8.4 2.6 12.7 3.9-.2 3-.5 6.1-.7 9.2 4.3 1.3 8.4 2.7 12.7 3.9.9-17.1 2.1-34.2 3-51.3-5.9-1.8-11.8-3.8-17.8-5.5-8.9 14.5-17.8 29.1-26.8 43.7m-159.7-1.7c-22.8 1.5-45.5 4.2-67.9 8.9-38.9 7.8-76.5 21.8-111.2 40.8-27 15.3-52.2 34-73.1 57-6.8 7.3-12.4 15.6-18.4 23.5-1.7 2.2-2.9 4.8-3.6 7.4-2.2 8.2-5 16.2-6.6 24.4-4.7 23.1-7 46.7-7.6 70.3-1.7 77 17.3 155.2 58 220.9 16.8 27.1 37.1 52 60.2 73.8 28.4 26.9 61 49.3 95.8 67.1 16.6 8.4 33.4 16.7 50.9 23.2 17.7 6.8 36.1 11.5 54.2 16.7 2.4.9 4.9.5 7.3-.2 8.5-2.5 17.1-4.9 25.6-7.4 21.8-6.2 43-14.6 63.3-24.7 44.1-20.8 85.3-48.5 119.7-83.3 25-25.1 46.2-53.9 62.9-85.1 37.6-70.2 52-151.8 44.8-230.8-1.9-21.1-5.2-42.1-11.7-62.3-1-5.5-4.1-10.2-7.6-14.4-21.7-30.9-51.9-54.8-84.2-73.8-31.6-17.9-65.7-31.5-101.1-40-48.9-11.7-99.6-14.9-149.7-12m-32.8 645c-3.1 1.5-6.2 3.2-9.4 4.7v10.5c2.6-1 5.3-2 7.9-3 .1 11.9 0 23.9.1 35.8h12.9c.2-16.4.3-32.9 0-49.3-3.8.3-8-.7-11.5 1.3m30 1c-4.7 3.5-4.5 10.1-4.6 15.4.1 4.7 1 10.8 6 12.7 5.6 1.8 12.3 1.8 16.8-2.4-.8 3.6.6 8.9-3.4 11-5.5 1.5-11.4.1-17-.1 0 3.2 0 6.3.1 9.5 8.1 1.2 16.9 2.8 24.8-.3 6.6-3 7.8-11.1 8.1-17.5.1-8.2.7-16.6-2-24.4-1.6-4.8-7-6.4-11.5-6.6-5.8-.1-12.2-.7-17.3 2.7m53.7-2.1c-3.9 1.6-7.7 3.7-11.4 5.8-1 3.3-.2 6.9-.3 10.4 2.6-1 5.2-1.9 7.9-2.9 0 12-.2 23.9.1 35.8h13c-.1-16.4-.1-32.8-.1-49.3-3 .1-6.1-.2-9.2.2m32.3.3c-3.6 1.6-7.2 3.4-10.7 5.5-1.1 3.2-.2 6.9-.4 10.4 2.6-.9 5.2-1.9 7.8-2.9.1 11.9.1 23.9 0 35.8h13.2v-49.3c-3.3.2-6.7-.4-9.9.5"></path><path fill="none" stroke="#fff" stroke-miterlimit="10" stroke-width=".094" d="M426.4 29.4c55.1-2.1 110.6 2.5 164.2 15.8C656 61.3 718.7 91 770.1 134.9c15.2 13.1 29.5 27.3 41.9 43.1 7.1 9.3 13.9 18.7 20.9 28 1.5 2 3.1 3.9 3.7 6.2 5.4 18.8 11.7 37.3 14.9 56.6 13.5 75.1 9.6 153.3-11.1 226.7-16.8 59.5-45.4 115.6-84.2 163.6-46 57.2-105.8 102.6-171.9 134.2-14 6.9-28.3 13.5-42.9 19.1-27.2 10.5-55.6 17.2-83.5 25.5-2.9.7-6 2.4-9.1 1.2-20.4-6-41-11.5-61.4-17.6-30.9-9.4-60.2-23.2-88.8-38.1-64-33.9-121.1-81.4-164.1-139.9-23.5-31.8-42.8-66.8-57.3-103.6C57.8 490.5 46.9 437.9 44 385c-2.1-41.3.4-83 8.6-123.6 3.2-16.5 8.8-32.4 13.3-48.5.7-3.2 3-5.6 4.8-8.2 7.1-9.3 13.8-18.8 21-28 18.4-22.9 40.4-42.7 64-60 35.5-25.9 75.3-45.9 117-60C322.2 40 374.2 31.4 426.4 29.4m30.8 11.2c-1.5 3.1-3.1 6.1-4.6 9.2 3 .1 6.1 0 9.1 0 2.4-3 4.8-5.9 6.9-9-3.8-.3-7.6-.3-11.4-.2M416 53.9c-1.6 12.1-2.9 24.3-4.7 36.5-1-2.1-1.6-4.3-2.2-6.5-2.4-9.6-5.2-19.2-7.5-28.8-4.6-.1-9.1.4-13.6.6 4.7 16.4 9.9 32.6 14.9 49 6-.3 12-.8 18-1.1 2.9-16.9 5.6-33.7 8.3-50.6q-6.6.3-13.2.9m31.5-.9c-4.1 16.6-8.8 33-12.7 49.6 4.3 0 8.6.1 13 .1.5-2.9 1.2-5.8 1.8-8.7 4.4-.3 8.9-.1 13.4-.1.6 3 1.3 6 1.9 9 4.4.1 8.8.1 13.2.1-3.7-16.7-8-33.2-11.7-49.9-6.3-.1-12.6-.4-18.9-.1m45 1.1c-1.4 16.5-3.3 33.1-4.7 49.6 4.4.4 8.7.9 13.1 1.3.6-5.6 1.2-11.3 1.7-16.9 1.6.1 3.3.3 4.9.4 1.2 5.8 2.2 11.7 3.5 17.5 4.5.4 9 .9 13.5 1.3-1.3-6.5-3-12.8-4.4-19.2 2-1.6 4.3-3.4 5-6.1 1.9-5.7 2.5-11.9 1.5-17.8-1-4.9-6.1-7.3-10.6-7.8-7.8-.9-15.6-1.6-23.5-2.3M352 62c-5.6 3.4-5.7 10.9-4.4 16.6 1 4.1 2.2 9.5 6.8 10.9 5.1.8 10.4 0 15.6.7.8 2.5 1.1 5.1 1 7.7-6 2.2-12.4 2.4-18.6 2.9.3 3.3.8 6.6 1.4 9.8 7.9-.3 16-.5 23.6-3.2 4.7-1.5 7.2-6.7 6.9-11.4-.2-5.4-.8-11.5-4.5-15.8-3.6-3.6-9.3-2.1-13.9-2.4-1.6-.3-4.5.6-5-1.6-.6-2-1.7-5.4.9-6.3 5.2-1.9 10.8-1.8 16.2-2.3-.4-3.1-.9-6.3-1.3-9.5-8.3-.1-17.2 0-24.7 3.9m193.2-1.9c-3.2 16.3-6.7 32.6-9.7 48.9 8.5 1.5 16.9 4.1 25.6 4.3 4.2.2 8.6-1.9 10.2-5.9 2.9-7.2 4.1-14.9 5.5-22.4.5-4.3 1.7-8.8.2-13.1-1.8-4.6-6.9-6.3-11.2-7.6-6.8-1.6-13.8-2.8-20.6-4.2M318.5 68c3.7 16.2 7.3 32.4 11.2 48.6 4-.9 8.2-1.7 12.2-2.8l.4-.9c-3.4-15.9-7.3-31.8-10.8-47.8-4.4.9-8.7 1.9-13 2.9m-27.8 7.7c-2 7.1-2.1 14.7-4.1 21.9-.3 0-1 .1-1.3.1-2.4-6-4-12.2-6.2-18.2-4.2 1.3-8.4 2.6-12.6 4.2 5.2 15.8 10.4 31.5 15.6 47.3 4.2-1.3 8.4-2.7 12.6-4.1-1.8-6.7-5.2-13.1-5.7-20.1 6.6 4.4 10.8 11.7 17.2 16.2 4.5-1.1 8.8-2.8 13.1-4.3-6.7-7.1-13.8-13.8-20.8-20.7 1.7-8.8 3.7-17.6 5.2-26.5-4.4 1.4-8.7 2.6-13 4.2m286.5 41.7c4.1 1.5 8.3 2.8 12.5 3.9 1.5-2.6 3-5.2 4.4-7.8 4.2 1.2 8.4 2.6 12.7 3.9-.2 3-.5 6.1-.7 9.2 4.3 1.3 8.4 2.7 12.7 3.9.9-17.1 2.1-34.2 3-51.3-5.9-1.8-11.8-3.8-17.8-5.5-8.9 14.5-17.8 29.1-26.8 43.7m-159.7-1.7c-22.8 1.5-45.5 4.2-67.9 8.9-38.9 7.8-76.5 21.8-111.2 40.8-27 15.3-52.2 34-73.1 57-6.8 7.3-12.4 15.6-18.4 23.5-1.7 2.2-2.9 4.8-3.6 7.4-2.2 8.2-5 16.2-6.6 24.4-4.7 23.1-7 46.7-7.6 70.3-1.7 77 17.3 155.2 58 220.9 16.8 27.1 37.1 52 60.2 73.8 28.4 26.9 61 49.3 95.8 67.1 16.6 8.4 33.4 16.7 50.9 23.2 17.7 6.8 36.1 11.5 54.2 16.7 2.4.9 4.9.5 7.3-.2 8.5-2.5 17.1-4.9 25.6-7.4 21.8-6.2 43-14.6 63.3-24.7 44.1-20.8 85.3-48.5 119.7-83.3 25-25.1 46.2-53.9 62.9-85.1 37.6-70.2 52-151.8 44.8-230.8-1.9-21.1-5.2-42.1-11.7-62.3-1-5.5-4.1-10.2-7.6-14.4-21.7-30.9-51.9-54.8-84.2-73.8-31.6-17.9-65.7-31.5-101.1-40-48.9-11.7-99.6-14.9-149.7-12m-32.8 645c-3.1 1.5-6.2 3.2-9.4 4.7v10.5c2.6-1 5.3-2 7.9-3 .1 11.9 0 23.9.1 35.8h12.9c.2-16.4.3-32.9 0-49.3-3.8.3-8-.7-11.5 1.3m30 1c-4.7 3.5-4.5 10.1-4.6 15.4.1 4.7 1 10.8 6 12.7 5.6 1.8 12.3 1.8 16.8-2.4-.8 3.6.6 8.9-3.4 11-5.5 1.5-11.4.1-17-.1 0 3.2 0 6.3.1 9.5 8.1 1.2 16.9 2.8 24.8-.3 6.6-3 7.8-11.1 8.1-17.5.1-8.2.7-16.6-2-24.4-1.6-4.8-7-6.4-11.5-6.6-5.8-.1-12.2-.7-17.3 2.7m53.7-2.1c-3.9 1.6-7.7 3.7-11.4 5.8-1 3.3-.2 6.9-.3 10.4 2.6-1 5.2-1.9 7.9-2.9 0 12-.2 23.9.1 35.8h13c-.1-16.4-.1-32.8-.1-49.3-3 .1-6.1-.2-9.2.2m32.3.3c-3.6 1.6-7.2 3.4-10.7 5.5-1.1 3.2-.2 6.9-.4 10.4 2.6-.9 5.2-1.9 7.8-2.9.1 11.9.1 23.9 0 35.8h13.2v-49.3c-3.3.2-6.7-.4-9.9.5Z"></path><path fill="#ec1d28" d="M457.2 40.6c3.8-.1 7.6-.1 11.4.2-2.1 3.1-4.5 6-6.9 9-3 0-6.1.1-9.1 0 1.5-3.1 3.1-6.1 4.6-9.2"></path><path fill="none" stroke="#ec1d28" stroke-miterlimit="10" stroke-width=".094" d="M457.2 40.6c3.8-.1 7.6-.1 11.4.2-2.1 3.1-4.5 6-6.9 9-3 0-6.1.1-9.1 0 1.5-3.1 3.1-6.1 4.6-9.2Z"></path><path fill="#ec1d28" d="M416 53.9q6.6-.6 13.2-.9c-2.7 16.9-5.4 33.7-8.3 50.6-6 .3-12 .8-18 1.1-5-16.4-10.2-32.6-14.9-49 4.5-.2 9-.7 13.6-.6 2.3 9.6 5.1 19.2 7.5 28.8.6 2.2 1.2 4.4 2.2 6.5 1.8-12.2 3.1-24.4 4.7-36.5"></path><path fill="none" stroke="#ec1d28" stroke-miterlimit="10" stroke-width=".094" d="M416 53.9q6.6-.6 13.2-.9c-2.7 16.9-5.4 33.7-8.3 50.6-6 .3-12 .8-18 1.1-5-16.4-10.2-32.6-14.9-49 4.5-.2 9-.7 13.6-.6 2.3 9.6 5.1 19.2 7.5 28.8.6 2.2 1.2 4.4 2.2 6.5 1.8-12.2 3.1-24.4 4.7-36.5Z"></path><path fill="#ec1d28" d="M447.5 53c6.3-.3 12.6 0 18.9.1 3.7 16.7 8 33.2 11.7 49.9-4.4 0-8.8 0-13.2-.1-.6-3-1.3-6-1.9-9-4.5 0-9-.2-13.4.1-.6 2.9-1.3 5.8-1.8 8.7-4.4 0-8.7-.1-13-.1 3.9-16.6 8.6-33 12.7-49.6m8.9 11.5c-1.6 6.3-2.9 12.8-4.3 19.2h8.8c-1.6-6.3-2.2-13-4.5-19.2"></path><path fill="none" stroke="#ec1d28" stroke-miterlimit="10" stroke-width=".094" d="M447.5 53c6.3-.3 12.6 0 18.9.1 3.7 16.7 8 33.2 11.7 49.9-4.4 0-8.8 0-13.2-.1-.6-3-1.3-6-1.9-9-4.5 0-9-.2-13.4.1-.6 2.9-1.3 5.8-1.8 8.7-4.4 0-8.7-.1-13-.1 3.9-16.6 8.6-33 12.7-49.6m8.9 11.5c-1.6 6.3-2.9 12.8-4.3 19.2h8.8c-1.6-6.3-2.2-13-4.5-19.2Z"></path><path fill="#ec1d28" d="M492.5 54.1c7.9.7 15.7 1.4 23.5 2.3 4.5.5 9.6 2.9 10.6 7.8 1 5.9.4 12.1-1.5 17.8-.7 2.7-3 4.5-5 6.1 1.4 6.4 3.1 12.7 4.4 19.2-4.5-.4-9-.9-13.5-1.3-1.3-5.8-2.3-11.7-3.5-17.5-1.6-.1-3.3-.3-4.9-.4-.5 5.6-1.1 11.3-1.7 16.9-4.4-.4-8.7-.9-13.1-1.3 1.4-16.5 3.3-33.1 4.7-49.6m12.3 11.5-1.2 12.6c2.8.1 5.6.8 8.3.1 2.1-3.1 2-7.2 1.6-10.7-2.3-2.2-5.8-1.5-8.7-2"></path><path fill="none" stroke="#ec1d28" stroke-miterlimit="10" stroke-width=".094" d="M492.5 54.1c7.9.7 15.7 1.4 23.5 2.3 4.5.5 9.6 2.9 10.6 7.8 1 5.9.4 12.1-1.5 17.8-.7 2.7-3 4.5-5 6.1 1.4 6.4 3.1 12.7 4.4 19.2-4.5-.4-9-.9-13.5-1.3-1.3-5.8-2.3-11.7-3.5-17.5-1.6-.1-3.3-.3-4.9-.4-.5 5.6-1.1 11.3-1.7 16.9-4.4-.4-8.7-.9-13.1-1.3 1.4-16.5 3.3-33.1 4.7-49.6m12.3 11.5-1.2 12.6c2.8.1 5.6.8 8.3.1 2.1-3.1 2-7.2 1.6-10.7-2.3-2.2-5.8-1.5-8.7-2Z"></path><path fill="#ec1d28" d="M352 62c7.5-3.9 16.4-4 24.7-3.9.4 3.2.9 6.4 1.3 9.5-5.4.5-11 .4-16.2 2.3-2.6.9-1.5 4.3-.9 6.3.5 2.2 3.4 1.3 5 1.6 4.6.3 10.3-1.2 13.9 2.4 3.7 4.3 4.3 10.4 4.5 15.8.3 4.7-2.2 9.9-6.9 11.4-7.6 2.7-15.7 2.9-23.6 3.2-.6-3.2-1.1-6.5-1.4-9.8 6.2-.5 12.6-.7 18.6-2.9.1-2.6-.2-5.2-1-7.7-5.2-.7-10.5.1-15.6-.7-4.6-1.4-5.8-6.8-6.8-10.9-1.3-5.7-1.2-13.2 4.4-16.6"></path><path fill="none" stroke="#ec1d28" stroke-miterlimit="10" stroke-width=".094" d="M352 62c7.5-3.9 16.4-4 24.7-3.9.4 3.2.9 6.4 1.3 9.5-5.4.5-11 .4-16.2 2.3-2.6.9-1.5 4.3-.9 6.3.5 2.2 3.4 1.3 5 1.6 4.6.3 10.3-1.2 13.9 2.4 3.7 4.3 4.3 10.4 4.5 15.8.3 4.7-2.2 9.9-6.9 11.4-7.6 2.7-15.7 2.9-23.6 3.2-.6-3.2-1.1-6.5-1.4-9.8 6.2-.5 12.6-.7 18.6-2.9.1-2.6-.2-5.2-1-7.7-5.2-.7-10.5.1-15.6-.7-4.6-1.4-5.8-6.8-6.8-10.9-1.3-5.7-1.2-13.2 4.4-16.6Z"></path><path fill="#ec1d28" d="M545.2 60.1c6.8 1.4 13.8 2.6 20.6 4.2 4.3 1.3 9.4 3 11.2 7.6 1.5 4.3.3 8.8-.2 13.1-1.4 7.5-2.6 15.2-5.5 22.4-1.6 4-6 6.1-10.2 5.9-8.7-.2-17.1-2.8-25.6-4.3 3-16.3 6.5-32.6 9.7-48.9m11 12.8-5.7 28.5c2.6.4 5.6 1.7 8.2.5 2.6-4 2.8-9 3.9-13.5.6-4.3 2.4-8.8 1.2-13.1-2.2-1.7-5-1.8-7.6-2.4"></path><path fill="none" stroke="#ec1d28" stroke-miterlimit="10" stroke-width=".094" d="M545.2 60.1c6.8 1.4 13.8 2.6 20.6 4.2 4.3 1.3 9.4 3 11.2 7.6 1.5 4.3.3 8.8-.2 13.1-1.4 7.5-2.6 15.2-5.5 22.4-1.6 4-6 6.1-10.2 5.9-8.7-.2-17.1-2.8-25.6-4.3 3-16.3 6.5-32.6 9.7-48.9m11 12.8-5.7 28.5c2.6.4 5.6 1.7 8.2.5 2.6-4 2.8-9 3.9-13.5.6-4.3 2.4-8.8 1.2-13.1-2.2-1.7-5-1.8-7.6-2.4Z"></path><path fill="#ec1d28" d="M318.5 68c4.3-1 8.6-2 13-2.9 3.5 16 7.4 31.9 10.8 47.8l-.4.9c-4 1.1-8.2 1.9-12.2 2.8-3.9-16.2-7.5-32.4-11.2-48.6"></path><path fill="none" stroke="#ec1d28" stroke-miterlimit="10" stroke-width=".094" d="M318.5 68c4.3-1 8.6-2 13-2.9 3.5 16 7.4 31.9 10.8 47.8l-.4.9c-4 1.1-8.2 1.9-12.2 2.8-3.9-16.2-7.5-32.4-11.2-48.6Z"></path><path fill="#fff" d="M456.4 64.5c2.3 6.2 2.9 12.9 4.5 19.2h-8.8c1.4-6.4 2.7-12.9 4.3-19.2"></path><path fill="none" stroke="#fff" stroke-miterlimit="10" stroke-width=".094" d="M456.4 64.5c2.3 6.2 2.9 12.9 4.5 19.2h-8.8c1.4-6.4 2.7-12.9 4.3-19.2Z"></path><path fill="#fff" d="M504.8 65.6c2.9.5 6.4-.2 8.7 2 .4 3.5.5 7.6-1.6 10.7-2.7.7-5.5 0-8.3-.1z"></path><path fill="none" stroke="#fff" stroke-miterlimit="10" stroke-width=".094" d="M504.8 65.6c2.9.5 6.4-.2 8.7 2 .4 3.5.5 7.6-1.6 10.7-2.7.7-5.5 0-8.3-.1z"></path><path fill="#ec1d28" d="M290.7 75.7c4.3-1.6 8.6-2.8 13-4.2-1.5 8.9-3.5 17.7-5.2 26.5 7 6.9 14.1 13.6 20.8 20.7-4.3 1.5-8.6 3.2-13.1 4.3-6.4-4.5-10.6-11.8-17.2-16.2.5 7 3.9 13.4 5.7 20.1-4.2 1.4-8.4 2.8-12.6 4.1-5.2-15.8-10.4-31.5-15.6-47.3 4.2-1.6 8.4-2.9 12.6-4.2 2.2 6 3.8 12.2 6.2 18.2.3 0 1-.1 1.3-.1 2-7.2 2.1-14.8 4.1-21.9"></path><path fill="none" stroke="#ec1d28" stroke-miterlimit="10" stroke-width=".094" d="M290.7 75.7c4.3-1.6 8.6-2.8 13-4.2-1.5 8.9-3.5 17.7-5.2 26.5 7 6.9 14.1 13.6 20.8 20.7-4.3 1.5-8.6 3.2-13.1 4.3-6.4-4.5-10.6-11.8-17.2-16.2.5 7 3.9 13.4 5.7 20.1-4.2 1.4-8.4 2.8-12.6 4.1-5.2-15.8-10.4-31.5-15.6-47.3 4.2-1.6 8.4-2.9 12.6-4.2 2.2 6 3.8 12.2 6.2 18.2.3 0 1-.1 1.3-.1 2-7.2 2.1-14.8 4.1-21.9Z"></path><path fill="#fff" d="M556.2 72.9c2.6.6 5.4.7 7.6 2.4 1.2 4.3-.6 8.8-1.2 13.1-1.1 4.5-1.3 9.5-3.9 13.5-2.6 1.2-5.6-.1-8.2-.5z"></path><path fill="none" stroke="#fff" stroke-miterlimit="10" stroke-width=".094" d="M556.2 72.9c2.6.6 5.4.7 7.6 2.4 1.2 4.3-.6 8.8-1.2 13.1-1.1 4.5-1.3 9.5-3.9 13.5-2.6 1.2-5.6-.1-8.2-.5z"></path><path fill="#ec1d28" d="M577.2 117.4c9-14.6 17.9-29.2 26.8-43.7 6 1.7 11.9 3.7 17.8 5.5-.9 17.1-2.1 34.2-3 51.3-4.3-1.2-8.4-2.6-12.7-3.9.2-3.1.5-6.2.7-9.2-4.3-1.3-8.5-2.7-12.7-3.9-1.4 2.6-2.9 5.2-4.4 7.8-4.2-1.1-8.4-2.4-12.5-3.9m22.2-13.1c2.8 1 5.5 1.9 8.3 2.7.6-6.7 1.3-13.3 1.8-20.1-3.8 5.6-6.7 11.6-10.1 17.4"></path><path fill="none" stroke="#ec1d28" stroke-miterlimit="10" stroke-width=".094" d="M577.2 117.4c9-14.6 17.9-29.2 26.8-43.7 6 1.7 11.9 3.7 17.8 5.5-.9 17.1-2.1 34.2-3 51.3-4.3-1.2-8.4-2.6-12.7-3.9.2-3.1.5-6.2.7-9.2-4.3-1.3-8.5-2.7-12.7-3.9-1.4 2.6-2.9 5.2-4.4 7.8-4.2-1.1-8.4-2.4-12.5-3.9m22.2-13.1c2.8 1 5.5 1.9 8.3 2.7.6-6.7 1.3-13.3 1.8-20.1-3.8 5.6-6.7 11.6-10.1 17.4Z"></path><path fill="#fff" d="M599.4 104.3c3.4-5.8 6.3-11.8 10.1-17.4-.5 6.8-1.2 13.4-1.8 20.1-2.8-.8-5.5-1.7-8.3-2.7"></path><path fill="none" stroke="#fff" stroke-miterlimit="10" stroke-width=".094" d="M599.4 104.3c3.4-5.8 6.3-11.8 10.1-17.4-.5 6.8-1.2 13.4-1.8 20.1-2.8-.8-5.5-1.7-8.3-2.7Z"></path><path fill="#d5aa68" d="M417.5 115.7c50.1-2.9 100.8.3 149.7 12 35.4 8.5 69.5 22.1 101.1 40 32.3 19 62.5 42.9 84.2 73.8 3.5 4.2 6.6 8.9 7.6 14.4 6.5 20.2 9.8 41.2 11.7 62.3 7.2 79-7.2 160.6-44.8 230.8-16.7 31.2-37.9 60-62.9 85.1-34.4 34.8-75.6 62.5-119.7 83.3-20.3 10.1-41.5 18.5-63.3 24.7-8.5 2.5-17.1 4.9-25.6 7.4-2.4.7-4.9 1.1-7.3.2-18.1-5.2-36.5-9.9-54.2-16.7-17.5-6.5-34.3-14.8-50.9-23.2-34.8-17.8-67.4-40.2-95.8-67.1-23.1-21.8-43.4-46.7-60.2-73.8-40.7-65.7-59.7-143.9-58-220.9.6-23.6 2.9-47.2 7.6-70.3 1.6-8.2 4.4-16.2 6.6-24.4.7-2.6 1.9-5.2 3.6-7.4 6-7.9 11.6-16.2 18.4-23.5 20.9-23 46.1-41.7 73.1-57 34.7-19 72.3-33 111.2-40.8 22.4-4.7 45.1-7.4 67.9-8.9m-130.4 42.4c-32.5 12.8-63.2 30.5-89.9 53.2-1.2 1-2.3 2.2-3.4 3.4-5.6 4-10.1 9.3-15 14.2-7.1 7.3-13 15.7-19.1 23.8-3.1 4-3.8 9.1-5.3 13.7-3.5 11.3-5.4 22.9-7.2 34.5-3.8 28.7-4.9 57.8-2.5 86.6 1.7 29.3 7.2 58.3 15.5 86.5 9.3 30.3 21.9 59.7 38.8 86.6 13.9 22.9 30.6 44 49.4 63 8.2 8.1 16.4 16.4 25.7 23.4 6.9 6.5 14.7 12 22.3 17.6 27.7 20.1 58.1 35.9 89.3 49.7 17.4 7.6 35.6 13.1 53.9 18.1 4.9 1.1 9.9 4 15 2.2 12.4-3.6 24.9-6.8 37.1-10.9 15-5 29.6-11.1 43.7-18.2 33.2-15.6 64.9-34.6 92.7-58.5 2.6-.8 4.3-3 6.3-4.6 23.3-20.5 44.2-43.8 61.5-69.6 2.6-3.9 5.6-7.7 7.2-12.2h.8c16.4-27.1 29.5-56.1 38.4-86.5 8.7-28.1 13.8-57.4 15.8-86.7 1.5-18.4 1.4-37 .4-55.4-.5-10.4-2-20.6-2.8-31h-.8c-.8-14.6-4.9-28.8-9.1-42.8-1.2-4-4.2-7.1-6.6-10.5-8.7-12.1-18.6-23.5-30.2-32.9-4.5-4.8-9.9-8.7-15-12.8-29.2-22.3-62.4-39.1-97.2-50.7-38.2-12.9-78.4-19.5-118.6-21.6-64.7-3.1-130.6 4.5-191.1 28.4"></path><path fill="none" stroke="#d5aa68" stroke-miterlimit="10" stroke-width=".094" d="M417.5 115.7c50.1-2.9 100.8.3 149.7 12 35.4 8.5 69.5 22.1 101.1 40 32.3 19 62.5 42.9 84.2 73.8 3.5 4.2 6.6 8.9 7.6 14.4 6.5 20.2 9.8 41.2 11.7 62.3 7.2 79-7.2 160.6-44.8 230.8-16.7 31.2-37.9 60-62.9 85.1-34.4 34.8-75.6 62.5-119.7 83.3-20.3 10.1-41.5 18.5-63.3 24.7-8.5 2.5-17.1 4.9-25.6 7.4-2.4.7-4.9 1.1-7.3.2-18.1-5.2-36.5-9.9-54.2-16.7-17.5-6.5-34.3-14.8-50.9-23.2-34.8-17.8-67.4-40.2-95.8-67.1-23.1-21.8-43.4-46.7-60.2-73.8-40.7-65.7-59.7-143.9-58-220.9.6-23.6 2.9-47.2 7.6-70.3 1.6-8.2 4.4-16.2 6.6-24.4.7-2.6 1.9-5.2 3.6-7.4 6-7.9 11.6-16.2 18.4-23.5 20.9-23 46.1-41.7 73.1-57 34.7-19 72.3-33 111.2-40.8 22.4-4.7 45.1-7.4 67.9-8.9m-130.4 42.4c-32.5 12.8-63.2 30.5-89.9 53.2-1.2 1-2.3 2.2-3.4 3.4-5.6 4-10.1 9.3-15 14.2-7.1 7.3-13 15.7-19.1 23.8-3.1 4-3.8 9.1-5.3 13.7-3.5 11.3-5.4 22.9-7.2 34.5-3.8 28.7-4.9 57.8-2.5 86.6 1.7 29.3 7.2 58.3 15.5 86.5 9.3 30.3 21.9 59.7 38.8 86.6 13.9 22.9 30.6 44 49.4 63 8.2 8.1 16.4 16.4 25.7 23.4 6.9 6.5 14.7 12 22.3 17.6 27.7 20.1 58.1 35.9 89.3 49.7 17.4 7.6 35.6 13.1 53.9 18.1 4.9 1.1 9.9 4 15 2.2 12.4-3.6 24.9-6.8 37.1-10.9 15-5 29.6-11.1 43.7-18.2 33.2-15.6 64.9-34.6 92.7-58.5 2.6-.8 4.3-3 6.3-4.6 23.3-20.5 44.2-43.8 61.5-69.6 2.6-3.9 5.6-7.7 7.2-12.2h.8c16.4-27.1 29.5-56.1 38.4-86.5 8.7-28.1 13.8-57.4 15.8-86.7 1.5-18.4 1.4-37 .4-55.4-.5-10.4-2-20.6-2.8-31h-.8c-.8-14.6-4.9-28.8-9.1-42.8-1.2-4-4.2-7.1-6.6-10.5-8.7-12.1-18.6-23.5-30.2-32.9-4.5-4.8-9.9-8.7-15-12.8-29.2-22.3-62.4-39.1-97.2-50.7-38.2-12.9-78.4-19.5-118.6-21.6-64.7-3.1-130.6 4.5-191.1 28.4Z"></path><path fill="#ec1d28" d="M287.1 158.1c60.5-23.9 126.4-31.5 191.1-28.4 40.2 2.1 80.4 8.7 118.6 21.6 34.8 11.6 68 28.4 97.2 50.7 5.1 4.1 10.5 8 15 12.8-171.7-.2-343.4-.1-515.2-.1 1.1-1.2 2.2-2.4 3.4-3.4 26.7-22.7 57.4-40.4 89.9-53.2"></path><path fill="none" stroke="#ec1d28" stroke-miterlimit="10" stroke-width=".094" d="M287.1 158.1c60.5-23.9 126.4-31.5 191.1-28.4 40.2 2.1 80.4 8.7 118.6 21.6 34.8 11.6 68 28.4 97.2 50.7 5.1 4.1 10.5 8 15 12.8-171.7-.2-343.4-.1-515.2-.1 1.1-1.2 2.2-2.4 3.4-3.4 26.7-22.7 57.4-40.4 89.9-53.2Z"></path><path fill="#fff" d="M178.8 228.9c4.9-4.9 9.4-10.2 15-14.2 171.8 0 343.5-.1 515.2.1 11.6 9.4 21.5 20.8 30.2 32.9 2.4 3.4 5.4 6.5 6.6 10.5 4.2 14 8.3 28.2 9.1 42.8-28.6-.1-57.2-.1-85.9 0 5.2 28.5 5.9 57.6 3.6 86.4q42.75.15 85.5 0c-2 29.3-7.1 58.6-15.8 86.7-30-.2-60.1-.1-90.1-.1-12.9 32.1-32 61.7-56 86.6 35.6-.1 71.3 0 106.9 0-1.6 4.5-4.6 8.3-7.2 12.2-17.3 25.8-38.2 49.1-61.5 69.6-2 1.6-3.7 3.8-6.3 4.6-118 0-236 .1-354 0-9.3-7-17.5-15.3-25.7-23.4-18.8-19-35.5-40.1-49.4-63 35.8-.1 71.5.1 107.3-.1-10-11-19.7-22.4-28-34.8-11-16.2-20.2-33.5-27.5-51.7-30.2-.1-60.4 0-90.6 0-8.3-28.2-13.8-57.2-15.5-86.5 28.5-.1 57 0 85.6-.1-2.4-28.8-1.7-57.9 3.3-86.4-28.8-.1-57.6 0-86.4-.1 1.8-11.6 3.7-23.2 7.2-34.5 1.5-4.6 2.2-9.7 5.3-13.7 6.1-8.1 12-16.5 19.1-23.8m203.1 6.6c15.4.8 31 3.2 45.4 9-4.5 2.8-9.2 5.2-13.2 8.7-13.5 11-22 28.2-22.1 45.7-.1 13.1 0 26.2-.1 39.3-14.2-3.7-26.9-13-34.6-25.5-8.2-12.8-10.8-28.9-7.3-43.7 2.8-12.6 10.2-23.7 20-32-14.3 2.9-28.3 7.1-41.9 12.2-27.1 10.1-53.2 24.5-73.9 45-2.4 2.8-6 5.2-6.5 9.2-3.1 16.3-4.4 33-4.6 49.6-.6 47.8 9.2 96.1 31.4 138.6 17.1 32.8 41.4 61.7 70.5 84.4 24.3 19.4 52 34.1 80.4 46.6 8.4 3.5 16.9 6.8 25.7 9C469 627.3 485.6 619 502 611c41.9-20.7 80-50.4 107.3-88.7 22-30.5 36.7-65.9 44.1-102.7 7.4-37 8.3-75.3 2.3-112.5-.6-2.8-.7-5.9-2.8-8.1-7.8-8.9-17-16.5-26.7-23.3-27.9-19.3-60.2-31.4-93.3-38.6 3.8 3.6 7.6 7.2 10.6 11.5 9.6 13.3 13 30.9 9.1 46.8-5.3 24.2-27.8 43.4-52.6 44.4-4.7.7-7.8-3.4-11.6-5.2-5.9-3.4-12.5-5.7-19.3-6.5-6-.7-12.1-.2-18.1-.5-8.1-.3-15.9-4.5-20.7-11-8.6-10.8-7.2-27.9 3.2-37.1 6.1-6.2 15-8.2 23.5-7.7-4.6 2-9.3 4.2-12.8 8 3.3 3.7 6.4 7.6 9.8 11.2.9 1.1 2.6.6 3.9.8 26.5-.1 53 .1 79.5-.1 3.7-15.4-2.2-32.6-15.2-41.7-.1 3-.1 6-.1 9-4.3 0-8.7.2-13-.1-11.4-1.4-22.6-7.1-29.8-16.2-1.4-1.6-2.5-3.7-4.7-4.2-9.5-3.4-19.5-5.3-29.5-6.5-21.1-2.4-42.6-1.3-63.2 3.5"></path><path fill="none" stroke="#fff" stroke-miterlimit="10" stroke-width=".094" d="M178.8 228.9c4.9-4.9 9.4-10.2 15-14.2 171.8 0 343.5-.1 515.2.1 11.6 9.4 21.5 20.8 30.2 32.9 2.4 3.4 5.4 6.5 6.6 10.5 4.2 14 8.3 28.2 9.1 42.8-28.6-.1-57.2-.1-85.9 0 5.2 28.5 5.9 57.6 3.6 86.4q42.75.15 85.5 0c-2 29.3-7.1 58.6-15.8 86.7-30-.2-60.1-.1-90.1-.1-12.9 32.1-32 61.7-56 86.6 35.6-.1 71.3 0 106.9 0-1.6 4.5-4.6 8.3-7.2 12.2-17.3 25.8-38.2 49.1-61.5 69.6-2 1.6-3.7 3.8-6.3 4.6-118 0-236 .1-354 0-9.3-7-17.5-15.3-25.7-23.4-18.8-19-35.5-40.1-49.4-63 35.8-.1 71.5.1 107.3-.1-10-11-19.7-22.4-28-34.8-11-16.2-20.2-33.5-27.5-51.7-30.2-.1-60.4 0-90.6 0-8.3-28.2-13.8-57.2-15.5-86.5 28.5-.1 57 0 85.6-.1-2.4-28.8-1.7-57.9 3.3-86.4-28.8-.1-57.6 0-86.4-.1 1.8-11.6 3.7-23.2 7.2-34.5 1.5-4.6 2.2-9.7 5.3-13.7 6.1-8.1 12-16.5 19.1-23.8m203.1 6.6c15.4.8 31 3.2 45.4 9-4.5 2.8-9.2 5.2-13.2 8.7-13.5 11-22 28.2-22.1 45.7-.1 13.1 0 26.2-.1 39.3-14.2-3.7-26.9-13-34.6-25.5-8.2-12.8-10.8-28.9-7.3-43.7 2.8-12.6 10.2-23.7 20-32-14.3 2.9-28.3 7.1-41.9 12.2-27.1 10.1-53.2 24.5-73.9 45-2.4 2.8-6 5.2-6.5 9.2-3.1 16.3-4.4 33-4.6 49.6-.6 47.8 9.2 96.1 31.4 138.6 17.1 32.8 41.4 61.7 70.5 84.4 24.3 19.4 52 34.1 80.4 46.6 8.4 3.5 16.9 6.8 25.7 9C469 627.3 485.6 619 502 611c41.9-20.7 80-50.4 107.3-88.7 22-30.5 36.7-65.9 44.1-102.7 7.4-37 8.3-75.3 2.3-112.5-.6-2.8-.7-5.9-2.8-8.1-7.8-8.9-17-16.5-26.7-23.3-27.9-19.3-60.2-31.4-93.3-38.6 3.8 3.6 7.6 7.2 10.6 11.5 9.6 13.3 13 30.9 9.1 46.8-5.3 24.2-27.8 43.4-52.6 44.4-4.7.7-7.8-3.4-11.6-5.2-5.9-3.4-12.5-5.7-19.3-6.5-6-.7-12.1-.2-18.1-.5-8.1-.3-15.9-4.5-20.7-11-8.6-10.8-7.2-27.9 3.2-37.1 6.1-6.2 15-8.2 23.5-7.7-4.6 2-9.3 4.2-12.8 8 3.3 3.7 6.4 7.6 9.8 11.2.9 1.1 2.6.6 3.9.8 26.5-.1 53 .1 79.5-.1 3.7-15.4-2.2-32.6-15.2-41.7-.1 3-.1 6-.1 9-4.3 0-8.7.2-13-.1-11.4-1.4-22.6-7.1-29.8-16.2-1.4-1.6-2.5-3.7-4.7-4.2-9.5-3.4-19.5-5.3-29.5-6.5-21.1-2.4-42.6-1.3-63.2 3.5Z"></path><path fill="#ec1d28" d="M381.9 235.5c20.6-4.8 42.1-5.9 63.2-3.5 10 1.2 20 3.1 29.5 6.5 2.2.5 3.3 2.6 4.7 4.2 7.2 9.1 18.4 14.8 29.8 16.2 4.3.3 8.7.1 13 .1 0-3 0-6 .1-9 13 9.1 18.9 26.3 15.2 41.7-26.5.2-53 0-79.5.1-1.3-.2-3 .3-3.9-.8-3.4-3.6-6.5-7.5-9.8-11.2 3.5-3.8 8.2-6 12.8-8-8.5-.5-17.4 1.5-23.5 7.7-10.4 9.2-11.8 26.3-3.2 37.1 4.8 6.5 12.6 10.7 20.7 11 6 .3 12.1-.2 18.1.5 6.8.8 13.4 3.1 19.3 6.5 3.8 1.8 6.9 5.9 11.6 5.2 24.8-1 47.3-20.2 52.6-44.4 3.9-15.9.5-33.5-9.1-46.8-3-4.3-6.8-7.9-10.6-11.5 33.1 7.2 65.4 19.3 93.3 38.6 9.7 6.8 18.9 14.4 26.7 23.3 2.1 2.2 2.2 5.3 2.8 8.1 6 37.2 5.1 75.5-2.3 112.5-7.4 36.8-22.1 72.2-44.1 102.7-27.3 38.3-65.4 68-107.3 88.7-16.4 8-33 16.3-50.9 20.6-8.8-2.2-17.3-5.5-25.7-9-28.4-12.5-56.1-27.2-80.4-46.6-29.1-22.7-53.4-51.6-70.5-84.4-22.2-42.5-32-90.8-31.4-138.6.2-16.6 1.5-33.3 4.6-49.6.5-4 4.1-6.4 6.5-9.2 20.7-20.5 46.8-34.9 73.9-45 13.6-5.1 27.6-9.3 41.9-12.2-9.8 8.3-17.2 19.4-20 32-3.5 14.8-.9 30.9 7.3 43.7 7.7 12.5 20.4 21.8 34.6 25.5.1-13.1 0-26.2.1-39.3.1-17.5 8.6-34.7 22.1-45.7 4-3.5 8.7-5.9 13.2-8.7-14.4-5.8-30-8.2-45.4-9m93.9 23.6c-1.4 10.3 15.1 16.6 20.5 7.4-6.8-2.5-13.6-5.1-20.5-7.4M348.9 387.3c-.4 3.9-.5 7.8-.2 11.7 15.4.1 30.9 0 46.3 0 7.3-.4 15.7.2 20.8 6.2 7.2 7.3 4.8 18.3 5.3 27.5 20.3-4.8 41.7-4.5 62.1.3.4-8.9 0-17.8.2-26.7 4.1-3.3 9-5.5 12.6-9.3-2.2-2.5-5.3-4.1-7.9-6.1-2.2-1.5-4.3-3.6-7.1-3.5-44 0-88.1.1-132.1-.1m147.3 26c-.2 7.8-.1 15.7 0 23.5 20.8 7.8 40 20.5 54.6 37.3 7.1 7.6 12.4 16.4 17.9 25.1.2-28.6.1-57.3 0-85.9-10.1-7.3-20.2-14.4-30.3-21.7-2-1.4-3.9-3.1-6.3-3.8-12.2 8.2-23.9 17-35.9 25.5m-159.5.5c-2.8 1.2-2.7 4.6-2.7 7.2.1 26-.2 52.1.1 78.2 7.2-12.1 15.4-23.7 25.8-33.4 13.2-12.7 29.2-22.4 46.4-28.8-.3-7.2 1-14.6-.7-21.6-3.4-3.7-9.1-1.7-13.5-2.2-.1 4.9-.1 9.8-.1 14.7h-14.3c-.1-4.9-.2-9.8 0-14.6-4.9-.1-9.7-.1-14.6-.1-.1 4.9-.1 9.8-.1 14.7h-14.2c-.2-4.9-.2-9.8-.1-14.6-4 .1-8.1-.6-12 .5m93.9 31.8c-30.5 5.2-58.4 23.2-76 48.6 11.5 7.3 23.3 14.3 34.9 21.4 1.4 1.3 3.1.2 4.5-.6 29.7-18.3 59.5-36.5 89.2-54.8 4.1-2.6 8.5-4.8 12.3-7.9-20.5-8.3-43.2-10.5-64.9-6.7m77.6 16.5c-34.2 21.1-68.5 41.8-102.6 63.1 13.2 8.7 27 16.5 40.3 24.9 2.4 1.3 5.2 4.1 7.9 1.7 31.4-19.3 62.9-38.4 94.2-57.8-9.3-13.3-21.3-24.5-35.1-32.9-1.6-1.4-3.3.3-4.7 1m-162.4 46.6c-6 12.2-10.2 25.4-11.7 38.9 19.4 18.7 41.8 34.2 65.6 46.7 14.5 7.3 29 14.9 44.5 20.1.5-2.1.9-4.2.9-6.4q-.15-18 0-36c-.2-1.7-.2-3.6-1-5.1v-.9c-32-19.2-63.8-39-95.8-58.3-1-1-2.1-.2-2.5 1m180 16.1c-1.9 1.3-4.8 2.4-4.3 5.2.1 17.8-.3 35.6.2 53.4 17.1-9.8 32.4-22.4 46.9-35.7-1.5-14.3-6.1-28.3-12.8-41-10.2 5.7-19.9 12.2-30 18.1m-67 41.3c-.1 16-.2 32 0 48.1 11.3-3.6 21.9-8.9 32.5-14 5-2.6 10.2-4.8 15.1-7.8.3-1.4.3-2.9.3-4.3-.1-17.1 0-34.1-.1-51.2-16.1 9.4-31.9 19.4-47.8 29.2"></path><path fill="none" stroke="#ec1d28" stroke-miterlimit="10" stroke-width=".094" d="M381.9 235.5c20.6-4.8 42.1-5.9 63.2-3.5 10 1.2 20 3.1 29.5 6.5 2.2.5 3.3 2.6 4.7 4.2 7.2 9.1 18.4 14.8 29.8 16.2 4.3.3 8.7.1 13 .1 0-3 0-6 .1-9 13 9.1 18.9 26.3 15.2 41.7-26.5.2-53 0-79.5.1-1.3-.2-3 .3-3.9-.8-3.4-3.6-6.5-7.5-9.8-11.2 3.5-3.8 8.2-6 12.8-8-8.5-.5-17.4 1.5-23.5 7.7-10.4 9.2-11.8 26.3-3.2 37.1 4.8 6.5 12.6 10.7 20.7 11 6 .3 12.1-.2 18.1.5 6.8.8 13.4 3.1 19.3 6.5 3.8 1.8 6.9 5.9 11.6 5.2 24.8-1 47.3-20.2 52.6-44.4 3.9-15.9.5-33.5-9.1-46.8-3-4.3-6.8-7.9-10.6-11.5 33.1 7.2 65.4 19.3 93.3 38.6 9.7 6.8 18.9 14.4 26.7 23.3 2.1 2.2 2.2 5.3 2.8 8.1 6 37.2 5.1 75.5-2.3 112.5-7.4 36.8-22.1 72.2-44.1 102.7-27.3 38.3-65.4 68-107.3 88.7-16.4 8-33 16.3-50.9 20.6-8.8-2.2-17.3-5.5-25.7-9-28.4-12.5-56.1-27.2-80.4-46.6-29.1-22.7-53.4-51.6-70.5-84.4-22.2-42.5-32-90.8-31.4-138.6.2-16.6 1.5-33.3 4.6-49.6.5-4 4.1-6.4 6.5-9.2 20.7-20.5 46.8-34.9 73.9-45 13.6-5.1 27.6-9.3 41.9-12.2-9.8 8.3-17.2 19.4-20 32-3.5 14.8-.9 30.9 7.3 43.7 7.7 12.5 20.4 21.8 34.6 25.5.1-13.1 0-26.2.1-39.3.1-17.5 8.6-34.7 22.1-45.7 4-3.5 8.7-5.9 13.2-8.7-14.4-5.8-30-8.2-45.4-9m93.9 23.6c-1.4 10.3 15.1 16.6 20.5 7.4-6.8-2.5-13.6-5.1-20.5-7.4M348.9 387.3c-.4 3.9-.5 7.8-.2 11.7 15.4.1 30.9 0 46.3 0 7.3-.4 15.7.2 20.8 6.2 7.2 7.3 4.8 18.3 5.3 27.5 20.3-4.8 41.7-4.5 62.1.3.4-8.9 0-17.8.2-26.7 4.1-3.3 9-5.5 12.6-9.3-2.2-2.5-5.3-4.1-7.9-6.1-2.2-1.5-4.3-3.6-7.1-3.5-44 0-88.1.1-132.1-.1m147.3 26c-.2 7.8-.1 15.7 0 23.5 20.8 7.8 40 20.5 54.6 37.3 7.1 7.6 12.4 16.4 17.9 25.1.2-28.6.1-57.3 0-85.9-10.1-7.3-20.2-14.4-30.3-21.7-2-1.4-3.9-3.1-6.3-3.8-12.2 8.2-23.9 17-35.9 25.5m-159.5.5c-2.8 1.2-2.7 4.6-2.7 7.2.1 26-.2 52.1.1 78.2 7.2-12.1 15.4-23.7 25.8-33.4 13.2-12.7 29.2-22.4 46.4-28.8-.3-7.2 1-14.6-.7-21.6-3.4-3.7-9.1-1.7-13.5-2.2-.1 4.9-.1 9.8-.1 14.7h-14.3c-.1-4.9-.2-9.8 0-14.6-4.9-.1-9.7-.1-14.6-.1-.1 4.9-.1 9.8-.1 14.7h-14.2c-.2-4.9-.2-9.8-.1-14.6-4 .1-8.1-.6-12 .5m93.9 31.8c-30.5 5.2-58.4 23.2-76 48.6 11.5 7.3 23.3 14.3 34.9 21.4 1.4 1.3 3.1.2 4.5-.6 29.7-18.3 59.5-36.5 89.2-54.8 4.1-2.6 8.5-4.8 12.3-7.9-20.5-8.3-43.2-10.5-64.9-6.7m77.6 16.5c-34.2 21.1-68.5 41.8-102.6 63.1 13.2 8.7 27 16.5 40.3 24.9 2.4 1.3 5.2 4.1 7.9 1.7 31.4-19.3 62.9-38.4 94.2-57.8-9.3-13.3-21.3-24.5-35.1-32.9-1.6-1.4-3.3.3-4.7 1m-162.4 46.6c-6 12.2-10.2 25.4-11.7 38.9 19.4 18.7 41.8 34.2 65.6 46.7 14.5 7.3 29 14.9 44.5 20.1.5-2.1.9-4.2.9-6.4q-.15-18 0-36c-.2-1.7-.2-3.6-1-5.1v-.9c-32-19.2-63.8-39-95.8-58.3-1-1-2.1-.2-2.5 1m180 16.1c-1.9 1.3-4.8 2.4-4.3 5.2.1 17.8-.3 35.6.2 53.4 17.1-9.8 32.4-22.4 46.9-35.7-1.5-14.3-6.1-28.3-12.8-41-10.2 5.7-19.9 12.2-30 18.1m-67 41.3c-.1 16-.2 32 0 48.1 11.3-3.6 21.9-8.9 32.5-14 5-2.6 10.2-4.8 15.1-7.8.3-1.4.3-2.9.3-4.3-.1-17.1 0-34.1-.1-51.2-16.1 9.4-31.9 19.4-47.8 29.2Z" data-source="https://football-logos.cc"></path><path fill="#fff" d="M475.8 259.1c6.9 2.3 13.7 4.9 20.5 7.4-5.4 9.2-21.9 2.9-20.5-7.4"></path><path fill="none" stroke="#fff" stroke-miterlimit="10" stroke-width=".094" d="M475.8 259.1c6.9 2.3 13.7 4.9 20.5 7.4-5.4 9.2-21.9 2.9-20.5-7.4Z"></path><path fill="#ec1d28" d="M147.2 300.9c28.8.1 57.6 0 86.4.1-5 28.5-5.7 57.6-3.3 86.4-28.6.1-57.1 0-85.6.1-2.4-28.8-1.3-57.9 2.5-86.6"></path><path fill="none" stroke="#ec1d28" stroke-miterlimit="10" stroke-width=".094" d="M147.2 300.9c28.8.1 57.6 0 86.4.1-5 28.5-5.7 57.6-3.3 86.4-28.6.1-57.1 0-85.6.1-2.4-28.8-1.3-57.9 2.5-86.6Z"></path><path fill="#ec1d28" d="M669 301c28.7-.1 57.3-.1 85.9 0h.8c.8 10.4 2.3 20.6 2.8 31 1 18.4 1.1 37-.4 55.4q-42.75.15-85.5 0c2.3-28.8 1.6-57.9-3.6-86.4"></path><path fill="none" stroke="#ec1d28" stroke-miterlimit="10" stroke-width=".094" d="M669 301c28.7-.1 57.3-.1 85.9 0h.8c.8 10.4 2.3 20.6 2.8 31 1 18.4 1.1 37-.4 55.4q-42.75.15-85.5 0c2.3-28.8 1.6-57.9-3.6-86.4Z"></path><path fill="#d5aa68" d="M348.9 387.3c44 .2 88.1.1 132.1.1 2.8-.1 4.9 2 7.1 3.5 2.6 2 5.7 3.6 7.9 6.1-3.6 3.8-8.5 6-12.6 9.3-.2 8.9.2 17.8-.2 26.7-20.4-4.8-41.8-5.1-62.1-.3-.5-9.2 1.9-20.2-5.3-27.5-5.1-6-13.5-6.6-20.8-6.2-15.4 0-30.9.1-46.3 0-.3-3.9-.2-7.8.2-11.7"></path><path fill="none" stroke="#d5aa68" stroke-miterlimit="10" stroke-width=".094" d="M348.9 387.3c44 .2 88.1.1 132.1.1 2.8-.1 4.9 2 7.1 3.5 2.6 2 5.7 3.6 7.9 6.1-3.6 3.8-8.5 6-12.6 9.3-.2 8.9.2 17.8-.2 26.7-20.4-4.8-41.8-5.1-62.1-.3-.5-9.2 1.9-20.2-5.3-27.5-5.1-6-13.5-6.6-20.8-6.2-15.4 0-30.9.1-46.3 0-.3-3.9-.2-7.8.2-11.7Z"></path><path fill="#d5aa68" d="M496.2 413.3c12-8.5 23.7-17.3 35.9-25.5 2.4.7 4.3 2.4 6.3 3.8 10.1 7.3 20.2 14.4 30.3 21.7.1 28.6.2 57.3 0 85.9-5.5-8.7-10.8-17.5-17.9-25.1-14.6-16.8-33.8-29.5-54.6-37.3-.1-7.8-.2-15.7 0-23.5"></path><path fill="none" stroke="#d5aa68" stroke-miterlimit="10" stroke-width=".094" d="M496.2 413.3c12-8.5 23.7-17.3 35.9-25.5 2.4.7 4.3 2.4 6.3 3.8 10.1 7.3 20.2 14.4 30.3 21.7.1 28.6.2 57.3 0 85.9-5.5-8.7-10.8-17.5-17.9-25.1-14.6-16.8-33.8-29.5-54.6-37.3-.1-7.8-.2-15.7 0-23.5Z"></path><path fill="#d5aa68" d="M336.7 413.8c3.9-1.1 8-.4 12-.5-.1 4.8-.1 9.7.1 14.6H363c0-4.9 0-9.8.1-14.7 4.9 0 9.7 0 14.6.1-.2 4.8-.1 9.7 0 14.6H392c0-4.9 0-9.8.1-14.7 4.4.5 10.1-1.5 13.5 2.2 1.7 7 .4 14.4.7 21.6-17.2 6.4-33.2 16.1-46.4 28.8-10.4 9.7-18.6 21.3-25.8 33.4-.3-26.1 0-52.2-.1-78.2 0-2.6-.1-6 2.7-7.2"></path><path fill="none" stroke="#d5aa68" stroke-miterlimit="10" stroke-width=".094" d="M336.7 413.8c3.9-1.1 8-.4 12-.5-.1 4.8-.1 9.7.1 14.6H363c0-4.9 0-9.8.1-14.7 4.9 0 9.7 0 14.6.1-.2 4.8-.1 9.7 0 14.6H392c0-4.9 0-9.8.1-14.7 4.4.5 10.1-1.5 13.5 2.2 1.7 7 .4 14.4.7 21.6-17.2 6.4-33.2 16.1-46.4 28.8-10.4 9.7-18.6 21.3-25.8 33.4-.3-26.1 0-52.2-.1-78.2 0-2.6-.1-6 2.7-7.2Z"></path><path fill="#231f20" d="M430.6 445.6c21.7-3.8 44.4-1.6 64.9 6.7-3.8 3.1-8.2 5.3-12.3 7.9-29.7 18.3-59.5 36.5-89.2 54.8-1.4.8-3.1 1.9-4.5.6-11.6-7.1-23.4-14.1-34.9-21.4 17.6-25.4 45.5-43.4 76-48.6"></path><path fill="none" stroke="#231f20" stroke-miterlimit="10" stroke-width=".094" d="M430.6 445.6c21.7-3.8 44.4-1.6 64.9 6.7-3.8 3.1-8.2 5.3-12.3 7.9-29.7 18.3-59.5 36.5-89.2 54.8-1.4.8-3.1 1.9-4.5.6-11.6-7.1-23.4-14.1-34.9-21.4 17.6-25.4 45.5-43.4 76-48.6Z"></path><path fill="#231f20" d="M508.2 462.1c1.4-.7 3.1-2.4 4.7-1 13.8 8.4 25.8 19.6 35.1 32.9-31.3 19.4-62.8 38.5-94.2 57.8-2.7 2.4-5.5-.4-7.9-1.7-13.3-8.4-27.1-16.2-40.3-24.9 34.1-21.3 68.4-42 102.6-63.1"></path><path fill="none" stroke="#231f20" stroke-miterlimit="10" stroke-width=".094" d="M508.2 462.1c1.4-.7 3.1-2.4 4.7-1 13.8 8.4 25.8 19.6 35.1 32.9-31.3 19.4-62.8 38.5-94.2 57.8-2.7 2.4-5.5-.4-7.9-1.7-13.3-8.4-27.1-16.2-40.3-24.9 34.1-21.3 68.4-42 102.6-63.1Z"></path><path fill="#ec1d28" d="M160.2 474c30.2 0 60.4-.1 90.6 0 7.3 18.2 16.5 35.5 27.5 51.7 8.3 12.4 18 23.8 28 34.8-35.8.2-71.5 0-107.3.1-16.9-26.9-29.5-56.3-38.8-86.6"></path><path fill="none" stroke="#ec1d28" stroke-miterlimit="10" stroke-width=".094" d="M160.2 474c30.2 0 60.4-.1 90.6 0 7.3 18.2 16.5 35.5 27.5 51.7 8.3 12.4 18 23.8 28 34.8-35.8.2-71.5 0-107.3.1-16.9-26.9-29.5-56.3-38.8-86.6Z"></path><path fill="#ec1d28" d="M652.2 474c30 0 60.1-.1 90.1.1-8.9 30.4-22 59.4-38.4 86.5h-.8c-35.6 0-71.3-.1-106.9 0 24-24.9 43.1-54.5 56-86.6"></path><path fill="none" stroke="#ec1d28" stroke-miterlimit="10" stroke-width=".094" d="M652.2 474c30 0 60.1-.1 90.1.1-8.9 30.4-22 59.4-38.4 86.5h-.8c-35.6 0-71.3-.1-106.9 0 24-24.9 43.1-54.5 56-86.6Z"></path><path fill="#231f20" d="M345.8 508.7c.4-1.2 1.5-2 2.5-1 32 19.3 63.8 39.1 95.8 58.3v.9c-.1 15.8-.3 31.7.1 47.5-15.5-5.2-30-12.8-44.5-20.1-23.8-12.5-46.2-28-65.6-46.7 1.5-13.5 5.7-26.7 11.7-38.9"></path><path fill="none" stroke="#231f20" stroke-miterlimit="10" stroke-width=".094" d="M345.8 508.7c.4-1.2 1.5-2 2.5-1 32 19.3 63.8 39.1 95.8 58.3v.9c-.1 15.8-.3 31.7.1 47.5-15.5-5.2-30-12.8-44.5-20.1-23.8-12.5-46.2-28-65.6-46.7 1.5-13.5 5.7-26.7 11.7-38.9Z"></path><path fill="#231f20" d="M525.8 524.8c10.1-5.9 19.8-12.4 30-18.1 6.7 12.7 11.3 26.7 12.8 41-14.5 13.3-29.8 25.9-46.9 35.7-.5-17.8-.1-35.6-.2-53.4-.5-2.8 2.4-3.9 4.3-5.2"></path><path fill="none" stroke="#231f20" stroke-miterlimit="10" stroke-width=".094" d="M525.8 524.8c10.1-5.9 19.8-12.4 30-18.1 6.7 12.7 11.3 26.7 12.8 41-14.5 13.3-29.8 25.9-46.9 35.7-.5-17.8-.1-35.6-.2-53.4-.5-2.8 2.4-3.9 4.3-5.2Z"></path><path fill="#231f20" d="M458.8 566.1c15.9-9.8 31.7-19.8 47.8-29.2.1 17.1 0 34.1.1 51.2 0 1.4 0 2.9-.3 4.3-4.9 3-10.1 5.2-15.1 7.8-10.6 5.1-21.2 10.4-32.5 14-.2-16.1-.1-32.1 0-48.1"></path><path fill="none" stroke="#231f20" stroke-miterlimit="10" stroke-width=".094" d="M458.8 566.1c15.9-9.8 31.7-19.8 47.8-29.2.1 17.1 0 34.1.1 51.2 0 1.4 0 2.9-.3 4.3-4.9 3-10.1 5.2-15.1 7.8-10.6 5.1-21.2 10.4-32.5 14-.2-16.1-.1-32.1 0-48.1Z"></path><path fill="#e6313a" d="M444.1 566.9c.8 1.5.8 3.4 1 5.1q-.15 18 0 36c0 2.2-.4 4.3-.9 6.4-.4-15.8-.2-31.7-.1-47.5"></path><path fill="none" stroke="#e6313a" stroke-miterlimit="10" stroke-width=".094" d="M444.1 566.9c.8 1.5.8 3.4 1 5.1q-.15 18 0 36c0 2.2-.4 4.3-.9 6.4-.4-15.8-.2-31.7-.1-47.5Z"></path><path fill="#ec1d28" d="M274.1 647c118 .1 236 0 354 0-27.8 23.9-59.5 42.9-92.7 58.5-14.1 7.1-28.7 13.2-43.7 18.2-12.2 4.1-24.7 7.3-37.1 10.9-5.1 1.8-10.1-1.1-15-2.2-18.3-5-36.5-10.5-53.9-18.1-31.2-13.8-61.6-29.6-89.3-49.7-7.6-5.6-15.4-11.1-22.3-17.6"></path><path fill="none" stroke="#ec1d28" stroke-miterlimit="10" stroke-width=".094" d="M274.1 647c118 .1 236 0 354 0-27.8 23.9-59.5 42.9-92.7 58.5-14.1 7.1-28.7 13.2-43.7 18.2-12.2 4.1-24.7 7.3-37.1 10.9-5.1 1.8-10.1-1.1-15-2.2-18.3-5-36.5-10.5-53.9-18.1-31.2-13.8-61.6-29.6-89.3-49.7-7.6-5.6-15.4-11.1-22.3-17.6Z"></path><path fill="#ec1d28" d="M384.7 760.7c3.5-2 7.7-1 11.5-1.3.3 16.4.2 32.9 0 49.3h-12.9c-.1-11.9 0-23.9-.1-35.8-2.6 1-5.3 2-7.9 3v-10.5c3.2-1.5 6.3-3.2 9.4-4.7"></path><path fill="none" stroke="#ec1d28" stroke-miterlimit="10" stroke-width=".094" d="M384.7 760.7c3.5-2 7.7-1 11.5-1.3.3 16.4.2 32.9 0 49.3h-12.9c-.1-11.9 0-23.9-.1-35.8-2.6 1-5.3 2-7.9 3v-10.5c3.2-1.5 6.3-3.2 9.4-4.7Z"></path><path fill="#ec1d28" d="M414.7 761.7c5.1-3.4 11.5-2.8 17.3-2.7 4.5.2 9.9 1.8 11.5 6.6 2.7 7.8 2.1 16.2 2 24.4-.3 6.4-1.5 14.5-8.1 17.5-7.9 3.1-16.7 1.5-24.8.3-.1-3.2-.1-6.3-.1-9.5 5.6.2 11.5 1.6 17 .1 4-2.1 2.6-7.4 3.4-11-4.5 4.2-11.2 4.2-16.8 2.4-5-1.9-5.9-8-6-12.7.1-5.3-.1-11.9 4.6-15.4m9.6 7.6-.8.3c-1.4 3.1-1.3 6.8-.3 10 1.7 1.6 4.4 1.2 6.5 1 4-.6 2.6-5.7 2.6-8.6-.1-4-5.2-3.2-8-2.7"></path><path fill="none" stroke="#ec1d28" stroke-miterlimit="10" stroke-width=".094" d="M414.7 761.7c5.1-3.4 11.5-2.8 17.3-2.7 4.5.2 9.9 1.8 11.5 6.6 2.7 7.8 2.1 16.2 2 24.4-.3 6.4-1.5 14.5-8.1 17.5-7.9 3.1-16.7 1.5-24.8.3-.1-3.2-.1-6.3-.1-9.5 5.6.2 11.5 1.6 17 .1 4-2.1 2.6-7.4 3.4-11-4.5 4.2-11.2 4.2-16.8 2.4-5-1.9-5.9-8-6-12.7.1-5.3-.1-11.9 4.6-15.4m9.6 7.6-.8.3c-1.4 3.1-1.3 6.8-.3 10 1.7 1.6 4.4 1.2 6.5 1 4-.6 2.6-5.7 2.6-8.6-.1-4-5.2-3.2-8-2.7Z"></path><path fill="#ec1d28" d="M468.4 759.6c3.1-.4 6.2-.1 9.2-.2 0 16.5 0 32.9.1 49.3h-13c-.3-11.9-.1-23.8-.1-35.8-2.7 1-5.3 1.9-7.9 2.9.1-3.5-.7-7.1.3-10.4 3.7-2.1 7.5-4.2 11.4-5.8"></path><path fill="none" stroke="#ec1d28" stroke-miterlimit="10" stroke-width=".094" d="M468.4 759.6c3.1-.4 6.2-.1 9.2-.2 0 16.5 0 32.9.1 49.3h-13c-.3-11.9-.1-23.8-.1-35.8-2.7 1-5.3 1.9-7.9 2.9.1-3.5-.7-7.1.3-10.4 3.7-2.1 7.5-4.2 11.4-5.8Z"></path><path fill="#ec1d28" d="M500.7 759.9c3.2-.9 6.6-.3 9.9-.5v49.3h-13.2c.1-11.9.1-23.9 0-35.8-2.6 1-5.2 2-7.8 2.9.2-3.5-.7-7.2.4-10.4 3.5-2.1 7.1-3.9 10.7-5.5"></path><path fill="none" stroke="#ec1d28" stroke-miterlimit="10" stroke-width=".094" d="M500.7 759.9c3.2-.9 6.6-.3 9.9-.5v49.3h-13.2c.1-11.9.1-23.9 0-35.8-2.6 1-5.2 2-7.8 2.9.2-3.5-.7-7.2.4-10.4 3.5-2.1 7.1-3.9 10.7-5.5Z"></path><path fill="#fff" d="M424.3 769.3c2.8-.5 7.9-1.3 8 2.7 0 2.9 1.4 8-2.6 8.6-2.1.2-4.8.6-6.5-1-1-3.2-1.1-6.9.3-10z"></path><path fill="none" stroke="#fff" stroke-miterlimit="10" stroke-width=".094" d="M424.3 769.3c2.8-.5 7.9-1.3 8 2.7 0 2.9 1.4 8-2.6 8.6-2.1.2-4.8.6-6.5-1-1-3.2-1.1-6.9.3-10z" data-source="https://football-logos.cc"></path><!-- source: https://football-logos.cc --></svg>