<svg xmlns="http://www.w3.org/2000/svg" xml:space="preserve" style="shape-rendering:geometricPrecision;text-rendering:geometricPrecision;image-rendering:optimizeQuality;fill-rule:evenodd;clip-rule:evenodd" viewBox="14.05 14.44 122.08 136.05"><!-- Source: https://football-logos.cc --><defs data-source="https://football-logos.cc"><style>.fil7{fill:#ca914c}.fil2{fill:#683675}.fil5{fill:#fefefe;fill-rule:nonzero}</style></defs><g id="Layer_x0020_1" data-source="https://football-logos.cc"><path d="M0 0h1000v165H0z" style="fill:none"></path><g id="_2338353777840"><path d="M74.76 140.64C42.69 121.73 25.4 88.48 22.88 49.1c14-11.48 15-12.41 30.2-24.6 14.61 6.82 29.23 6.82 43.84 0 13.8 11.53 14.8 12.67 30.2 24.6-4.06 39.27-23.71 75.87-52.36 91.54" class="fil2"></path><path d="m30.78 107.65 4.53-2.57.84 1.47.87 1.45.89 1.44.91 1.42.93 1.4.96 1.39.97 1.37 1 1.36 1.02 1.34 1.04 1.32 1.06 1.31 1.08 1.29 1.1 1.27 1.13 1.25 1.15 1.24 1.16 1.21 1.19 1.2 1.21 1.18 1.24 1.17 1.25 1.14 1.28 1.13 1.29 1.11 1.32 1.09 1.34 1.07 1.36 1.05 1.39 1.03 1.4 1.01 1.43.99 1.45.97 1.47.95 1.49.93 1.51.91-2.64 4.48-1.59-.95-1.56-.98-1.55-1-1.52-1.01-1.49-1.04-1.48-1.06-1.45-1.09-1.43-1.1-1.41-1.12-1.38-1.15-1.37-1.16-1.34-1.18-1.31-1.21-1.3-1.22-1.27-1.24-1.25-1.26-1.23-1.28-1.21-1.3-1.18-1.32-1.16-1.33-1.13-1.36-1.12-1.37-1.09-1.39-1.07-1.4-1.05-1.43-1.02-1.44-1-1.45-.98-1.48-.95-1.49-.94-1.5-.91-1.52zM14.33 49.64l5.19-.33.14 1.93.15 1.91.19 1.91.2 1.9.23 1.88.25 1.88.27 1.87.3 1.85.32 1.84.35 1.83.36 1.82.39 1.81.41 1.79.44 1.79.46 1.77.48 1.75.51 1.75.53 1.73.55 1.72.57 1.7.6 1.7.62 1.67.64 1.67.67 1.65.69 1.63.71 1.62.74 1.6.75 1.6.78 1.57.81 1.56.83 1.54.85 1.53-4.53 2.57-.89-1.6-.87-1.62-.84-1.63-.82-1.65-.79-1.66-.77-1.68-.74-1.69-.72-1.71-.7-1.72-.67-1.74-.65-1.74-.62-1.77-.6-1.77-.57-1.79-.55-1.81-.53-1.81-.5-1.83-.48-1.84-.45-1.85-.43-1.87-.4-1.88-.38-1.88-.36-1.9-.33-1.91-.31-1.93-.28-1.93-.27-1.94-.23-1.95-.21-1.96-.19-1.98-.16-1.98zm5-3.37.19 3.04-5.19.33-.2-3.03.95-2.18zm-5.2.34-.08-1.33 1.03-.85zm6.61-.1-2.36 1.94-3.3-4.02 2.36-1.94zm5.35-11.13 3.31 4.03v-.01l-.23.19-.22.18-.22.18-.23.19-.23.19-.23.19-.24.19-.23.2-.25.2-.24.2-.25.2-.25.21-.26.22-.26.2-.26.22-.26.22-.27.21-.27.23-.28.23-.28.23-.29.23-.28.24-.29.24-.3.24-.3.25-.31.25-.31.26-.31.25-.32.27-.32.26-.33.27-.34.27-3.3-4.02.33-.27.33-.27.33-.27.32-.26.31-.26.31-.25.31-.25.3-.25.29-.24.29-.24.3-.24.28-.23.28-.23.27-.23.27-.22.27-.23.27-.21.26-.22.26-.21.25-.21.25-.2.25-.21.25-.2.23-.19.24-.2.24-.2.23-.19.24-.19.22-.18.23-.19.22-.19.22-.17zm21.63-17.55 3.25 4.06-1 .8-.96.77-.93.74-.88.71-.85.69-.82.65-.79.64-.75.61-.73.59-.71.56-.68.56-.66.53-.64.52-.62.5-.61.5-.6.48-.58.48-.57.47-.57.46-.57.46-.55.46-.56.45-.56.46-.56.46-.57.46-.57.47-.58.48-.59.49-.6.5-.62.5-.64.53-.65.54-3.31-4.03.65-.53.64-.52.62-.52.6-.49.6-.49.58-.48.57-.47.57-.47.56-.45.56-.46.56-.46.56-.46.57-.46.56-.47.58-.47.59-.47.6-.49.61-.5.62-.5.65-.53.66-.53.68-.55.71-.57.73-.59.76-.62.79-.63.82-.66.85-.68.89-.72.92-.74.96-.77zm6.14 1.74-2.89 2.32-3.25-4.06 2.89-2.32 2.73-.33zm-3.25-4.06 1.26-1.02 1.47.69zm3.89 5.96-3.37-1.58 2.21-4.71 3.36 1.57zm20.5-.43v5.2h-.64l-.65-.02-.64-.02-.65-.03-.64-.05-.64-.05-.65-.06-.64-.07-.64-.08-.65-.09-.64-.1-.64-.11-.64-.11-.64-.13-.65-.14-.64-.14-.64-.15-.64-.17-.64-.17-.64-.18-.64-.2-.64-.2-.63-.21-.65-.21-.63-.23-.64-.24-.64-.25-.64-.25-.63-.27-.64-.27-.63-.28-.64-.29 2.2-4.72.58.26.58.26.58.25.57.24.58.23.57.22.58.22.58.2.57.2.57.19.58.18.57.17.57.16.57.16.57.14.58.14.57.13.57.12.57.11.57.11.57.09.57.09.57.08.57.07.56.06.57.06.57.04.57.04.57.03.56.02.57.01zm18.3-4.29 2.2 4.72-.64.29-.63.28-.64.27-.64.27-.63.25-.64.25-.64.24-.64.23-.64.21-.64.21-.63.2-.64.2-.64.18-.64.17-.65.17-.63.15-.65.14-.64.14-.64.13-.64.11-.64.11-.65.1-.64.09-.64.08-.65.07-.64.06-.64.05-.65.05-.64.03-.64.02-.65.02H75v-5.2l.57-.01.57-.01.56-.02.57-.03.57-.04.57-.04.56-.06.57-.06.57-.07.57-.08.57-.09.57-.09.57-.11.57-.11.57-.12.57-.13.57-.14.57-.14.58-.16.57-.16.57-.17.58-.18.57-.19.57-.2.58-.2.57-.22.58-.22.57-.23.58-.24.58-.25.58-.26zm5.64 3.11-3.44 1.61-2.2-4.72 3.44-1.61 2.77.36zm-2.2-4.72 1.5-.7 1.27 1.06zm2.34 6.78-2.91-2.42 3.34-4 2.91 2.43zm11.08 2.52-3.35 3.98-.36-.3-.36-.3-.35-.29-.35-.29-.34-.29-.34-.29-.33-.28-.32-.27-.32-.27-.31-.26-.31-.26-.3-.25-.29-.24-.28-.24-.27-.23-.26-.22-.25-.21-.25-.21-.24-.2-.22-.18-.21-.18-.2-.17-.19-.16-.17-.15-.17-.13-.14-.13-.14-.11-.12-.11-.11-.09-.09-.08-.07-.05-.07-.06 3.34-3.99.06.05.09.07.09.08.11.09.12.1.13.11.16.13.16.14.18.15.18.16.2.16.22.18.22.19.23.2.24.2.26.22.26.22.28.23.28.24.29.24.29.25.31.26.31.26.32.27.33.28.33.27.34.29.34.29.34.29.36.29.35.3zm22.2 17.89-3.19 4.11-1.1-.85-1.06-.82-1-.78-.96-.75-.92-.72-.88-.69-.84-.66-.81-.64-.77-.61-.75-.59-.71-.56-.69-.55-.67-.54-.64-.51-.63-.51-.61-.49-.59-.48-.58-.48-.57-.46-.57-.47-.56-.46-.55-.46-.56-.46-.56-.46-.56-.47-.56-.47-.58-.49-.59-.49-.59-.5-.62-.51-.63-.54-.65-.55 3.35-3.98.65.55.63.53.61.52.6.5.58.48.57.48.57.47.55.47.56.46.54.45.55.46.56.45.56.46.56.46.57.47.59.48.6.48.62.5.64.51.66.53.68.54.71.56.74.59.76.61.8.63.84.65.88.69.91.71.96.75 1 .78 1.05.82zm-.56 6.15-2.63-2.04 3.19-4.11 2.63 2.03.99 2.33zm3.19-4.12 1.14.89-.15 1.44zm-4.53 5.08.34-3.29 5.18.54-.34 3.29zm-13.31 59.35-4.52-2.58.88-1.56.85-1.58.84-1.6.82-1.61.81-1.63.78-1.65.76-1.66.74-1.68.72-1.7.7-1.71.68-1.72.66-1.74.64-1.75.62-1.76.6-1.78.57-1.79.56-1.8.53-1.81.51-1.82.49-1.83.47-1.84.44-1.85.42-1.86.4-1.86.37-1.88.36-1.88.32-1.89.31-1.89.28-1.9.26-1.91.23-1.91.21-1.92 5.18.54-.22 1.98-.24 1.98-.26 1.97-.3 1.96-.31 1.96-.34 1.96-.37 1.94-.39 1.94-.41 1.93-.43 1.92-.46 1.92-.48 1.9-.51 1.9-.53 1.88-.55 1.87-.57 1.87-.6 1.85-.62 1.84-.64 1.83-.66 1.81-.68 1.8-.71 1.79-.73 1.77-.75 1.76-.76 1.74-.8 1.73-.81 1.71-.83 1.69-.85 1.68-.88 1.66-.89 1.65zm-38.3 39.37-2.49-4.57 1.36-.76 1.35-.8 1.33-.82 1.33-.85 1.3-.88 1.3-.91 1.28-.94 1.27-.96 1.25-1 1.24-1.02 1.22-1.04 1.21-1.07 1.2-1.1 1.18-1.13 1.16-1.14 1.15-1.18 1.13-1.2 1.12-1.22 1.1-1.24 1.08-1.27 1.07-1.29 1.05-1.31 1.04-1.33 1.02-1.36 1-1.38.99-1.39.96-1.42.95-1.44.94-1.45.91-1.48.9-1.49.88-1.51 4.52 2.58-.92 1.58-.93 1.55-.96 1.54-.97 1.52-1 1.5-1.01 1.48-1.03 1.46-1.05 1.45-1.06 1.42-1.09 1.39-1.1 1.38-1.13 1.36-1.14 1.33-1.15 1.31-1.18 1.28-1.19 1.26-1.21 1.24-1.23 1.21-1.25 1.19-1.26 1.16-1.28 1.13-1.3 1.11-1.31 1.08-1.33 1.06-1.35 1.02-1.36 1-1.38.97-1.39.94-1.41.9-1.43.88-1.44.85zm-5.47-2.94 2.98-1.63 2.49 4.57-2.97 1.62-2.57-.04zm2.5 4.56-1.3.71-1.27-.75zm-2.84-6.24 2.91 1.72-2.64 4.48-2.91-1.72zm.45-12.06 2.73 4.43-2.77-.02-1.28-.83-1.26-.85-1.25-.86-1.23-.88-1.21-.9-1.19-.91-1.18-.93-1.16-.95-1.14-.96-1.12-.97-1.11-1-1.09-1-1.07-1.03-1.05-1.03-1.04-1.05-1.02-1.07-1-1.08-.98-1.09-.97-1.11-.95-1.12-.93-1.14-.91-1.15-.9-1.17-.88-1.17-.86-1.19-.84-1.21-.82-1.21-.81-1.23-.79-1.24-.77-1.25-.76-1.27-.73-1.28 4.53-2.57.69 1.22.72 1.2.73 1.19.75 1.17.77 1.17.78 1.15.8 1.14.81 1.13.83 1.11.85 1.1.86 1.09.88 1.08.9 1.06.91 1.05.94 1.03.94 1.02.96 1.01.98 1 1 .98 1.02.96 1.02.95 1.05.94 1.06.92 1.08.91 1.1.9 1.11.88 1.13.86 1.15.85 1.16.83 1.18.82 1.2.81 1.21.79zm2.73 4.43-1.39.86-1.38-.88zm26.04-35.63 4.52 2.58-.75 1.3-.77 1.28-.79 1.27-.79 1.26-.81 1.24-.82 1.22-.84 1.21-.84 1.19-.87 1.18-.87 1.16-.89 1.15-.9 1.12-.92 1.11-.92 1.09-.94 1.08-.96 1.05-.96 1.04-.98 1.02-.99 1-1 .98-1.01.95-1.03.94-1.04.92-1.05.9-1.06.88-1.08.85-1.08.84-1.1.81-1.11.79-1.12.76-1.13.74-1.14.72-2.73-4.43 1.06-.66 1.04-.69 1.04-.71 1.03-.74 1.03-.75 1.01-.78 1-.8.99-.82.98-.84.98-.86.96-.88.95-.9.95-.92.93-.94.92-.96.91-.97.9-1 .89-1.02.87-1.03.87-1.05.85-1.07.85-1.08.83-1.1.81-1.12.81-1.14.8-1.15.78-1.17.77-1.18.76-1.2.75-1.21.73-1.22zm16.95-46.48 3.2-4.1.98 2.38-.22 1.71-.25 1.71-.27 1.7-.29 1.7-.3 1.69-.33 1.69-.34 1.67-.37 1.68-.38 1.66-.41 1.66-.42 1.65-.44 1.64-.46 1.64-.48 1.62-.5 1.62-.51 1.61-.53 1.59-.56 1.59-.57 1.58-.58 1.56-.61 1.56-.62 1.54-.64 1.53-.66 1.52-.67 1.5-.7 1.5-.7 1.47-.73 1.47-.74 1.45-.76 1.44-.78 1.42-.79 1.41-4.52-2.58.76-1.35.74-1.36.73-1.38.71-1.39.7-1.41.68-1.42.66-1.43.65-1.44.63-1.46.62-1.47.59-1.48.59-1.5.56-1.5.55-1.52.53-1.53.51-1.53.5-1.55.48-1.56.46-1.56.44-1.58.43-1.58.4-1.59.39-1.6.37-1.6.35-1.62.34-1.61.31-1.63.3-1.63.27-1.64.26-1.64.24-1.64.22-1.66zm3.2-4.1 1.17.91-.19 1.47zM99.14 37.53l3.36-3.98h-.01l.64.53.61.52.6.5.59.49.57.48.55.47.55.46.54.45.54.44.53.45.52.43.53.44.53.43.53.44.53.44.55.44.54.45.56.45.58.46.58.47.6.49.62.49.64.51.66.52.68.54.7.56.73.58.76.59.79.62.83.65.85.66.89.7-3.2 4.1-.89-.69-.86-.67-.83-.65-.79-.62-.77-.6-.73-.59-.71-.56-.69-.54-.66-.53-.65-.51-.62-.5-.61-.49-.59-.48-.58-.46-.57-.46-.55-.46-.55-.44-.54-.45-.54-.44-.53-.44-.54-.44-.53-.44-.53-.45-.54-.44-.55-.46-.55-.46-.56-.47-.57-.48-.59-.49-.6-.51-.61-.51-.63-.54zm.01 0h-.01l-.11-.09zm-2.28-3.68-1.93-4.84 2.63.42.38.32.36.3.34.28.31.27.3.25.29.23.26.22.24.21.23.19.21.17.2.17.18.15.17.14.15.13.15.12.12.1.12.1.12.1.09.08.08.06.09.08.08.06.07.06.06.05.06.06.03.02.03.03.08.06.04.04h.01l.04.04.04.03-3.36 3.98-.03-.03-.02-.01-.06-.06-.04-.03-.07-.05-.06-.06-.05-.04-.05-.04-.07-.06-.06-.05-.08-.07-.1-.08-.1-.09-.1-.08-.12-.1-.14-.11-.14-.12-.15-.13-.17-.14-.18-.15-.19-.16-.22-.18-.23-.19-.24-.21-.26-.22-.28-.23-.3-.25-.32-.26-.34-.29-.36-.3-.38-.31zm-1.93-4.84 1.44-.57 1.19.99zM75 38.2V33l.62-.01.62-.01.62-.02.62-.03.63-.03.62-.04.62-.05.62-.06.62-.07.62-.07.63-.08.62-.09.62-.1.62-.11.62-.11.63-.12.62-.13.62-.13.62-.14.63-.16.62-.16.63-.16.62-.18.62-.18.63-.19.62-.2.63-.21.63-.21.62-.22.62-.23.63-.24.63-.25 1.93 4.84-.68.26-.68.26-.68.25-.68.24-.68.24-.68.22-.68.22-.68.21-.69.2-.68.19-.68.18-.68.17-.69.17-.68.16-.68.15-.69.14-.68.13-.68.12-.69.12-.68.11-.69.09-.68.09-.69.08-.68.08-.69.06-.68.06-.69.04-.69.04-.68.03-.69.02-.68.02zm-19.35-4.77-3.26-4.06 2.59-.39.63.25.63.24.63.23.63.23.63.21.62.21.63.2.63.19.63.19.62.17.63.17.62.16.63.15.62.15.63.14.62.12.63.13.63.11.62.11.62.09.63.09.62.09.63.07.62.07.62.05.63.05.62.05.63.03.62.03.62.02.63.01.62.01v5.2h-.69l-.69-.02-.69-.02-.69-.03-.68-.04-.69-.05-.69-.05-.69-.07-.69-.07-.68-.08-.69-.09-.69-.1-.69-.11-.68-.11-.69-.13-.69-.13-.69-.14-.68-.15-.69-.16-.68-.17-.68-.18-.69-.18-.69-.19-.68-.2-.68-.21-.69-.22-.68-.23-.68-.23-.69-.25-.68-.25-.68-.26-.68-.27zm-3.26-4.06 1.18-.96 1.41.57zM36.96 48.61l-3.3-4.02.55-.45.54-.45.52-.43.51-.42.51-.41.5-.41.49-.41.48-.4.49-.39.48-.4.49-.4.48-.4.49-.39.5-.41.5-.41.51-.42.52-.42.54-.43.54-.45.56-.45.58-.47.6-.49.62-.5.64-.51.66-.54.69-.55.71-.58.75-.6.77-.62.8-.64.84-.67.87-.7 3.26 4.06-.88.69-.83.67-.8.65-.77.62-.74.6-.71.57-.69.55-.66.54-.64.51-.62.5-.59.48-.58.47-.56.45-.54.45-.53.43-.52.42-.51.42-.5.4-.5.41-.48.39-.49.4-.48.4-.48.39-.48.4-.49.4-.49.4-.5.41-.5.41-.51.42-.53.43-.53.44zm-5.31 2.91-5.19.44.95-2.24.23-.18.22-.19.22-.18.22-.18.23-.19.21-.17.21-.18.21-.17.22-.17.21-.17.2-.17.2-.17.2-.16.2-.16.2-.17.19-.16.19-.16.19-.15.2-.16.18-.15.19-.15.18-.15.18-.16.18-.14.18-.15.18-.15.18-.14.17-.14.17-.14.17-.15.17-.13.17-.14 3.3 4.02-.16.14-.18.14-.16.13-.18.15-.17.14-.18.15-.17.14-.18.15-.18.15-.18.14-.18.16-.2.15-.18.15-.19.16-.19.16-.2.16-.19.15-.19.16-.21.17-.19.16-.21.17-.2.17-.21.17-.21.17-.21.18-.22.17-.22.18-.21.18-.22.18-.23.19-.22.18-.23.19zm-5.19.44-.11-1.37 1.06-.87zm19.22 47.23-4.53 2.57-.77-1.37-.74-1.39-.73-1.4-.7-1.41-.69-1.43-.66-1.44-.65-1.45-.62-1.46-.61-1.48-.59-1.49-.56-1.5-.55-1.51-.52-1.52-.51-1.54-.49-1.55-.47-1.56-.45-1.56-.43-1.58-.41-1.59-.39-1.61-.37-1.61-.35-1.62-.33-1.63-.31-1.64-.29-1.65-.27-1.66-.26-1.67-.23-1.68-.21-1.69-.2-1.7-.17-1.7-.16-1.71 5.19-.44.15 1.65.17 1.64.19 1.64.2 1.62.23 1.62.24 1.61.26 1.59.28 1.59.3 1.58.32 1.57.34 1.55.35 1.55.37 1.53.39 1.53.42 1.51.43 1.5.44 1.49.47 1.48.49 1.47.5 1.45.52 1.45.54 1.43.56 1.42.58 1.41.6 1.39.61 1.39.63 1.36.65 1.36.67 1.35.69 1.33.71 1.31.73 1.31z" style="fill:#fefefe;fill-rule:nonzero"></path><path id="1" d="M71.72 145.78c-16.65-9.82-29.55-23.3-38.68-39.41-9.4-16.6-14.78-35.95-16.12-56.89l-.19-3.04 2.36-1.94c3.59-2.94 6.32-5.18 8.65-7.11 7.08-5.82 10.68-8.78 21.6-17.53l2.9-2.32 3.36 1.57c6.47 3.02 12.94 4.53 19.4 4.53s12.92-1.51 19.4-4.53l3.44-1.61 2.91 2.43c.58.48 3.89 3.27 7.73 6.5 7.07 5.95 10.28 8.65 22.28 17.95l2.63 2.04-.34 3.29c-2.15 20.81-8.5 40.91-18.16 57.79-9.47 16.56-22.17 30.11-37.29 38.37l-2.97 1.63zm-28.31-45.3c7.57 13.35 18.05 24.67 31.44 33.22 11.79-7.27 21.88-18.52 29.67-32.13 8.35-14.61 14.02-31.86 16.29-49.82-9.71-7.56-13.12-10.43-19.99-16.21-.35-.3-.74-.62-4.92-4.11-6.96 2.78-13.93 4.17-20.9 4.17-7 0-13.99-1.4-20.98-4.2-9.48 7.6-12.75 10.3-18.71 15.2-1.78 1.47-3.8 3.13-6.25 5.14 1.52 18 6.31 34.54 14.35 48.74" style="fill:#683675;fill-rule:nonzero"></path><path d="M74.76 140.64C42.69 121.73 25.4 88.48 22.88 49.1c14-11.48 15-12.41 30.2-24.6 14.61 6.82 29.23 6.82 43.84 0 13.8 11.53 14.8 12.67 30.2 24.6-4.06 39.27-23.71 75.87-52.36 91.54" class="fil2"></path><path d="M74.6 140.9c-15.77-9.31-27.99-22.08-36.63-37.33-8.98-15.84-14.1-34.35-15.39-54.45l-.01-.15.12-.1c3.58-2.94 6.31-5.18 8.65-7.11 6.8-5.59 10.26-8.44 21.55-17.49l.15-.12.17.08c7.26 3.39 14.53 5.09 21.79 5.09s14.53-1.7 21.79-5.09l.18-.08.14.12c2.94 2.46 5.51 4.62 7.73 6.49 7.26 6.1 10.55 8.87 22.46 18.11l.13.1-.01.16c-2.07 20.01-8.18 39.33-17.46 55.55-8.97 15.69-20.92 28.49-35.06 36.22l-.15.09zm-36.11-37.63c8.56 15.12 20.66 27.78 36.27 37.03 13.97-7.68 25.79-20.37 34.68-35.92 9.22-16.1 15.29-35.28 17.37-55.14-11.8-9.15-15.1-11.93-22.35-18.03-2.01-1.69-4.34-3.65-7.59-6.36Q85.935 29.92 75 29.92c-7.29 0-14.59-1.69-21.88-5.07-11.21 8.99-14.65 11.82-21.4 17.38a4004 4004 0 0 1-8.53 7c1.29 19.96 6.39 38.33 15.3 54.04" class="fil5"></path><path d="m36.69 100.61 90.21-51.29c-4.06 39.27-23.7 75.87-52.36 91.54-12.78-7.54-23.21-17.35-31.3-28.92z" style="fill:#fefefe"></path><path d="M48.36 102.27c0 1.39 0 2.53-.07 3.16v.01c-.03.23-.06.43-.13.6a.3.3 0 0 1-.04.1l.26-.02.23-.01c.03 0 .25.02.52.03l.49.03a.7.7 0 0 1-.2-.09c-.54-.29-.56-.52-.6-1.31v-.06c-.01-.11-.01-.62-.01-1.24-.01-1.09-.01-1.55-.01-1.9v-.82c0-.11.03-.19.09-.27.02-.02.05-.05.08-.07a.4.4 0 0 1-.1-.11.5.5 0 0 1-.07-.26v-3.87c0-.12.04-.22.12-.31-.13.01-.23.01-.31.01h-.19l-.28-.02.02.03c.11.19.16.41.17.7.02.24.02.46.03.91v4.78m-.66 3.1c.06-.59.06-1.72.06-3.1v-4.78c0-.43-.01-.64-.02-.87q-.015-.3-.09-.42c-.03-.06-.11-.1-.24-.13h-.01c-.04-.01-.09-.02-.14-.03-.08 0-.16-.01-.23-.01a.4.4 0 0 1-.26-.09.36.36 0 0 1-.14-.29c0-.17.07-.28.21-.36q.12-.06.3-.06c.42 0 1.01.03 1.31.04.07 0 .13.01.16.01.14 0 .3-.01.47-.02.28-.01.61-.03.95-.03.94 0 1.6.27 2.04.64.67.56.86 1.34.86 1.83 0 .65-.17 1.17-.42 1.62-.18.32-.39.6-.61.86.49.24 1.01.63 1.4 1.16s.66 1.2.66 2.01c0 .91-.35 1.84-1.05 2.5-.6.58-1.46.95-2.57.95-.19 0-.79-.04-1.24-.06a10 10 0 0 0-.49-.03c-.03 0-.11.01-.21.01-.29.01-.8.04-1.07.04-.12 0-.21-.02-.3-.06-.14-.08-.2-.19-.2-.36 0-.1.03-.21.13-.29.07-.06.16-.1.27-.1.04 0 .08 0 .13-.01.07-.01.13-.02.19-.03q.03-.015.06-.09c.04-.1.07-.27.09-.45m4.69.14c.04-.03.07-.06.11-.09.57-.55.86-1.32.86-2.07 0-.67-.22-1.22-.54-1.65-.42-.57-1.01-.94-1.51-1.12l-.38-.13c-.03.02-.06.03-.1.03l-.04.02c.2.06.42.17.66.36h.01c.48.37.8.83 1.02 1.32.27.62.36 1.28.36 1.81 0 .67-.18 1.16-.45 1.52m-.6-6.16c.07-.1.14-.21.2-.32.2-.37.34-.79.34-1.33 0-.37-.14-.96-.64-1.37-.2-.16-.45-.3-.78-.39.19.13.35.29.49.48.38.54.54 1.29.54 2 0 .32-.05.62-.14.89zm-2.21-3.1-.18.03v3.65l.07.01c.11.01.28.02.52.02.34 0 .54-.01.68-.05.1-.03.17-.09.27-.21.12-.16.22-.35.3-.58.06-.21.1-.44.1-.7 0-.6-.13-1.22-.43-1.65-.23-.32-.56-.54-1.03-.54-.07 0-.19.01-.3.02m.57 4.72c-.11-.02-.48-.02-.75-.02v2.52c0 .6.01 1.1.01 1.21l.01.05c.03.54.03.7.28.83.11.06.25.1.4.12.23.05.47.06.6.06.35 0 .81-.12 1.14-.48.23-.27.4-.67.4-1.27 0-.46-.08-1.04-.31-1.57-.18-.4-.44-.79-.83-1.09-.38-.28-.66-.32-.93-.36h-.02" class="fil5"></path><path d="M48.06 102.27c0 1.38 0 2.53-.06 3.13-.05.42-.12.74-.38.8-.12.02-.27.05-.39.05-.08 0-.1.05-.1.09 0 .09.06.12.2.12.39 0 1.21-.05 1.28-.05.1 0 1.43.09 1.73.09 2.23 0 3.32-1.61 3.32-3.15 0-1.69-1.29-2.72-2.25-3.05.61-.71 1.22-1.41 1.22-2.6 0-.72-.47-2.17-2.6-2.17-.6 0-1.11.04-1.42.04-.07 0-.89-.04-1.47-.04-.15 0-.21.03-.21.12 0 .06.05.08.1.08.12 0 .34.02.45.05.42.1.53.33.56.82.02.46.02.87.02 3.12zm1.04-6.1c0-.09.04-.13.16-.16.21-.06.48-.07.62-.07 1.28 0 1.76 1.28 1.76 2.48 0 .59-.19 1.12-.47 1.46-.27.35-.45.38-1.18.38-.48 0-.72-.05-.8-.06-.06-.03-.09-.06-.09-.16zm0 4.58c0-.08.03-.1.08-.1.2 0 .85 0 1.02.02.31.05.63.09 1.08.42 1 .77 1.26 2.03 1.26 2.9 0 1.63-1.13 2.05-1.84 2.05-.23 0-.79-.03-1.14-.22-.41-.22-.41-.42-.44-1.13-.02-.21-.02-2-.02-3.12z" class="fil7"></path><path d="M55.74 104.24c0 .71 0 1.31-.04 1.64v.01c-.01.08-.02.16-.04.23.11-.01.2-.01.24-.01.12 0 .26 0 .44.01-.18-.16-.23-.37-.24-.7-.01-.16-.01-.56 0-.87v-.9c0-.06.01-.13.04-.19.01-.03.03-.05.05-.08a.2.2 0 0 1-.05-.07.45.45 0 0 1-.04-.2v-1.9c0-.06.01-.11.02-.16h-.18c-.05 0-.14 0-.25-.01.02.08.03.17.04.26.01.12.01.24.01.47v2.47m-.63 1.58c.04-.3.04-.89.04-1.58v-2.46c-.01-.21-.01-.32-.02-.45 0-.07-.01-.12-.02-.13 0-.01-.02-.01-.06-.02h-.01c-.02-.01-.04-.01-.08-.01s-.1-.01-.15-.01c-.08 0-.15-.01-.22-.04-.14-.06-.2-.17-.2-.32 0-.17.07-.28.23-.33.07-.03.14-.04.23-.04.2 0 .48.01.71.02h2.24c.06-.01.12-.01.17-.02s.08-.01.1-.02h.02l.01-.01c.05-.01.1-.03.17-.03.15 0 .24.07.3.18.03.07.04.13.04.19 0 .04-.01.07-.02.12v.01c-.01.05-.03.16-.04.38v.01c0 .01-.01.08-.01.15-.01.13-.02.29-.03.36l-.01.02c0 .05-.02.1-.06.16-.07.09-.16.16-.3.16a.34.34 0 0 1-.32-.18.6.6 0 0 1-.05-.23c0-.02 0-.06-.01-.1 0-.02-.01-.04-.01-.05v-.01l-.01-.02c-.04-.03-.12-.05-.26-.06-.04-.01-.19-.02-.36-.02-.13 0-.29-.01-.42-.01v1.47h.35c.24-.01.49-.01.58-.02.08 0 .13-.01.17-.02h.01c.1-.12.16-.19.33-.19.1 0 .19.03.26.12q.09.09.09.24c0 .03 0 .07-.01.12-.01.07-.03.2-.05.45-.01.08-.01.17-.02.25 0 .11-.01.21-.01.24 0 .04 0 .1-.02.18-.05.15-.14.26-.35.26-.12 0-.21-.05-.28-.13a.35.35 0 0 1-.08-.24l-.01-.05c0-.05-.01-.1-.01-.15-.01-.01-.01-.02-.02-.03a.5.5 0 0 0-.15-.04c-.05 0-.19-.01-.35-.01-.13 0-.29-.01-.43-.01v.37l-.01.01v1.15c.01.17.02.26.05.28.07.05.24.07.56.07.09 0 .22 0 .33-.01.1-.01.19-.03.25-.05.05-.02.08-.05.1-.08.03-.06.06-.14.07-.26v-.01c.02-.08.04-.14.08-.2.08-.11.17-.16.3-.16.36 0 .36.2.36.44 0 .1-.01.28-.04.46-.02.18-.04.36-.07.45-.11.43-.22.43-.69.43-.68 0-1.16-.02-1.53-.04-.2-.01-.37-.01-.56-.01-.1 0-.22 0-.35.01-.21 0-.46.01-.6.01-.09 0-.18-.02-.24-.05h-.01c-.13-.07-.2-.17-.2-.32 0-.14.05-.24.18-.31.06-.03.14-.05.24-.05.05 0 .09-.01.11-.01s.04 0 .05-.01c.01-.04.02-.1.03-.16m2.68-2.95.01-.01zm.07-4.08c.04.04.07.08.1.14s.07.12.11.21c.03.08.08.16.12.26.03.07.05.14.05.19 0 .08-.02.14-.06.19a.25.25 0 0 1-.13.12v.01c-.06.02-.12.03-.17.03h-.06c-.03 0-.08-.01-.17 0-.15.02-.35.08-.54.14-.25.09-.49.19-.63.27h-.01l-.05.03c-.07.04-.13.07-.21.07-.07 0-.17-.03-.24-.1a.34.34 0 0 1-.11-.25c0-.15.07-.22.16-.31h.01c.12-.12.33-.29.54-.45.3-.24.61-.47.7-.53.05-.03.1-.06.14-.07a.385.385 0 0 1 .45.05m3.28 4.13c0-1.15 0-1.36.02-1.62 0-.09.01-.18.03-.26-.1.01-.17.01-.21.01-.03 0-.11 0-.22-.01.03.08.04.17.04.26.01.12.01.24.02.47v2.47c0 .71 0 1.31-.04 1.64v.01c-.01.08-.02.16-.04.23.11-.01.19-.01.23-.01s.12 0 .24.01c-.03-.08-.04-.16-.05-.24-.01-.16-.01-.4-.02-.69v-2.27m.61-1.58c-.01.19-.01.38-.01 1.2l.13-.13c.39-.41.83-.86.96-1.01l.03-.04.22-.27a.33.33 0 0 1-.15-.29c0-.15.06-.25.19-.32.07-.04.14-.05.23-.05.05 0 .2.01.35.01.14.01.29.01.43.01s.28 0 .43-.01c.18 0 .35-.01.45-.01.07 0 .15.01.21.04q.21.09.21.33c0 .14-.06.24-.18.31-.07.04-.14.05-.23.05-.04 0-.1.01-.16.02s-.12.03-.17.05c-.1.04-.2.09-.31.16-.12.08-.25.19-.4.34-.14.13-.59.57-.99.97-.16.17-.33.33-.45.46.18.2.44.5.72.8.48.52.98 1.05 1.13 1.19l.06.05c.29.29.59.58.92.7v.01c.09.03.16.05.22.07.06.01.11.02.14.02.05 0 .11 0 .16.02.05-.01.1-.02.17-.02.05 0 .09-.01.12-.01.01 0 .03 0 .04-.01.02-.04.02-.1.04-.16.03-.3.03-.89.03-1.58v-2.46c0-.21-.01-.32-.01-.44v-.01c-.01-.07-.01-.12-.02-.13s-.03-.01-.07-.02h-.01c-.01-.01-.04-.01-.07-.01h-.01c-.04 0-.09-.01-.14-.01-.09 0-.16-.01-.23-.04a.33.33 0 0 1-.2-.32c0-.17.07-.28.23-.33.07-.03.14-.04.23-.04.2 0 .48.01.72.02h2.23c.07-.01.13-.01.18-.02.04-.01.07-.01.1-.02h.01c.01 0 .01 0 .01-.01.05-.01.1-.03.17-.03.15 0 .24.07.3.18.03.07.04.13.04.19 0 .04 0 .07-.01.12-.02.06-.03.17-.05.39v.01l-.01.13c-.01.14-.02.31-.03.38v.01c-.01.05-.03.11-.07.17a.35.35 0 0 1-.3.16c-.15 0-.24-.06-.31-.18a.43.43 0 0 1-.05-.23c0-.02-.01-.06-.02-.1 0-.02 0-.04-.01-.05v-.01l-.01-.02c-.04-.03-.11-.05-.25-.06-.05-.01-.2-.02-.36-.02-.14 0-.3-.01-.43-.01v1.47h.35c.25-.01.49-.01.58-.02.08 0 .13-.01.17-.02h.01c.1-.12.16-.19.33-.19.09 0 .18.03.25.1s.1.15.1.26c0 .03 0 .07-.01.12-.01.07-.03.21-.05.45 0 .09-.01.19-.02.27 0 .1-.01.19-.01.22 0 .04 0 .1-.02.18-.05.15-.14.26-.35.26-.12 0-.21-.05-.28-.13a.34.34 0 0 1-.08-.23l-.01-.06c0-.05 0-.1-.01-.15-.01-.01-.01-.02-.02-.03a.5.5 0 0 0-.15-.04c-.05 0-.18-.01-.35-.01-.13 0-.29-.01-.43-.01v.38l-.01.3c0 .31 0 .7.01.85 0 .17.01.26.04.28.07.05.24.07.56.07.1 0 .22 0 .33-.01.1-.01.2-.03.26-.05.04-.02.07-.05.09-.08.03-.06.06-.14.08-.26v-.01c.01-.08.03-.14.07-.2.08-.11.17-.16.3-.16.36 0 .36.2.36.44a4.893 4.893 0 0 1-.1.91c-.12.43-.23.43-.7.43-.68 0-1.16-.02-1.53-.04-.2-.01-.37-.01-.56-.01-.1 0-.21 0-.35.01-.21 0-.45.01-.6.01-.08 0-.14-.01-.2-.03-.07.02-.14.03-.24.03h-.95c-.09 0-.17-.01-.26-.02-.25-.02-.44-.08-.62-.19-.16-.09-.31-.22-.48-.37-.15-.13-.49-.51-.85-.92-.26-.3-.53-.62-.75-.87v.83c0 .26.01.48.02.65 0 .05.01.1.02.13.05.01.11.01.18.02.05 0 .1.01.14.01.09 0 .17.02.23.06.11.06.17.17.17.3 0 .14-.07.25-.2.31q-.105.06-.24.06c-.23 0-.52-.01-.75-.02h-.34c-.1 0-.21 0-.34.01-.22 0-.46.01-.61.01-.09 0-.17-.02-.24-.05-.14-.07-.21-.17-.21-.32 0-.14.05-.24.18-.31.07-.03.14-.05.24-.05.05 0 .09-.01.12-.01.01 0 .03 0 .04-.01.02-.04.03-.1.04-.16.03-.3.03-.89.03-1.58v-2.46c0-.21 0-.32-.01-.44v-.01c-.01-.07-.01-.12-.02-.13 0-.01-.03-.01-.07-.02h-.01c-.01-.01-.04-.01-.07-.01-.05 0-.1-.01-.15-.01-.09 0-.16-.01-.23-.04a.33.33 0 0 1-.2-.32c0-.17.08-.28.23-.33.07-.03.14-.04.23-.04.21 0 .5.01.73.02h.33c.11 0 .24 0 .37-.01.21 0 .43-.01.54-.01.09 0 .16.01.23.04.15.06.23.16.23.33 0 .15-.07.25-.19.31-.06.04-.14.05-.21.05-.06 0-.09.01-.16.02h-.01v-.01c-.02.02-.02.08-.03.16zm-.01 2.07.06.09c.09.12.63.76 1.13 1.33.35.4.68.76.8.87.15.13.27.24.39.31.11.06.22.1.38.11.03 0 .06 0 .09.01-.2-.15-.38-.32-.56-.5l-.05-.05c-.17-.16-.68-.7-1.15-1.21-.41-.44-.79-.87-.93-1.05l-.03-.05c-.06.05-.1.1-.13.14m1.97-2.25c.05-.04.09-.08.14-.12h-.12c0 .04-.01.08-.02.12m3.18 3.08c0 .71 0 1.31-.04 1.64v.01c-.01.08-.03.16-.05.23.12-.01.2-.01.24-.01.12 0 .27 0 .44.01-.18-.16-.23-.37-.24-.7v-1.77c0-.07.01-.13.04-.19.02-.03.03-.06.05-.08-.02-.02-.03-.04-.04-.06a.4.4 0 0 1-.05-.21v-1.9c0-.06.01-.11.03-.16h-.19c-.04 0-.14 0-.25-.01.02.08.04.17.04.26.01.12.01.24.01.47.01.37.01.66.01 1.15zm2.05-1.37v-.01zm.06-4.08c.05.05.07.09.1.15.04.06.07.12.11.2.03.07.07.15.12.26a.39.39 0 0 1 0 .38c-.04.06-.09.1-.14.12a.4.4 0 0 1-.17.04h-.06c-.03 0-.08-.01-.16 0-.16.02-.36.08-.55.14-.25.09-.48.19-.63.27h-.01l-.05.03c-.07.04-.13.07-.21.07-.07 0-.17-.04-.24-.1a.34.34 0 0 1-.1-.25c0-.08.03-.16.08-.22.02-.04.05-.06.07-.09h.01c.12-.12.33-.29.54-.45.3-.23.61-.46.71-.53.04-.03.09-.06.13-.07.07-.04.14-.05.19-.05.11 0 .18.03.26.1m4.02 7.97c-.22.06-.45.08-.67.08-.24 0-.45-.02-.64-.05-.21-.04-.4-.09-.58-.18-.12-.05-.2-.1-.26-.21a.6.6 0 0 1-.07-.32c0-.41.03-.87.04-1a.9.9 0 0 1 .05-.24c.06-.15.17-.24.34-.24.18 0 .28.09.34.23.03.07.04.14.04.2 0 .03 0 .07.01.12.01.06.03.13.04.18.06.19.15.32.27.4.15.1.33.15.52.15.24 0 .41-.07.52-.17.13-.11.2-.26.2-.4s-.03-.27-.1-.41c-.09-.16-.25-.34-.53-.56l-.35-.27c-.44-.34-.74-.67-.94-.99-.2-.34-.29-.67-.29-1.03 0-.51.22-.95.6-1.26.35-.29.85-.46 1.45-.46.25 0 .47.02.65.04.19.03.32.07.42.09.08.02.14.05.19.09.09.07.14.17.14.29 0 .03 0 .08-.01.14 0 .13-.02.35-.02.77 0 .11-.01.2-.04.27-.06.18-.17.25-.34.25a.34.34 0 0 1-.32-.19.47.47 0 0 1-.05-.24.57.57 0 0 0-.13-.31l-.01-.01a.5.5 0 0 0-.18-.16.8.8 0 0 0-.4-.09c-.2 0-.36.05-.46.14-.09.08-.14.2-.14.34 0 .11.03.21.1.32.11.14.29.31.58.53l.21.15c.48.37.82.7 1.03 1.03.23.36.33.72.33 1.14 0 .28-.06.59-.23.89-.13.24-.33.48-.62.67-.22.14-.45.23-.69.28m.67-1.05c.04-.06.09-.12.12-.18.11-.2.15-.42.15-.61 0-.31-.07-.57-.23-.82-.18-.27-.46-.55-.89-.87l-.21-.16c-.34-.25-.56-.46-.7-.65-.16-.23-.22-.44-.22-.67 0-.11.01-.2.04-.3-.12.17-.19.37-.19.6 0 .25.06.49.2.72.16.26.42.53.8.83l.35.27c.35.28.56.51.68.74.14.25.17.48.17.7 0 .13-.02.27-.07.4m-2.25.39c-.01-.01-.02-.03-.04-.04v.02zm-.05 0v.01zm8.52.68c-.28.04-.57.06-.84.06-.54 0-1.04-.06-1.51-.21-.47-.14-.89-.36-1.27-.69-.41-.36-.67-.78-.83-1.2-.15-.42-.21-.85-.21-1.25 0-.33.06-.79.26-1.27.15-.35.38-.7.72-1.02.3-.27.65-.49 1.08-.64.42-.15.91-.23 1.51-.23.24 0 .43 0 .61.02.17.01.33.03.52.05.16.02.28.05.4.07.13.03.25.05.34.06q.15.015.24.09h.01c.09.08.14.19.14.3 0 .04-.01.07-.01.13q-.015.09-.03.3c-.01.12-.01.27-.01.42-.01.15-.01.31-.01.4-.01.09-.02.16-.05.23-.07.14-.17.22-.34.22s-.28-.08-.34-.23a.6.6 0 0 1-.04-.24c0-.08-.02-.17-.06-.25a.6.6 0 0 0-.15-.23c-.09-.1-.27-.2-.49-.26a2.9 2.9 0 0 0-.82-.12c-.3 0-.54.04-.74.11-.19.06-.34.16-.48.28-.23.22-.38.47-.47.76-.09.3-.13.63-.13.98 0 .71.24 1.27.59 1.66.43.48 1.01.72 1.49.72.31 0 .56-.02.75-.07.16-.05.3-.12.4-.25h.01a1 1 0 0 0 .11-.17c.04-.07.06-.14.08-.19.01-.09.03-.16.07-.22.08-.13.17-.17.31-.17.15 0 .25.07.31.17.05.08.06.16.06.24 0 .06-.03.33-.07.6-.04.18-.07.37-.11.49-.03.1-.06.18-.12.25a.8.8 0 0 1-.25.16c-.16.07-.39.12-.63.14m-2.07-.69c-.28-.15-.55-.35-.78-.61-.44-.5-.74-1.18-.74-2.06 0-.4.03-.79.15-1.16.1-.31.26-.61.49-.87-.12.08-.22.16-.33.25a2.3 2.3 0 0 0-.57.82c-.16.38-.21.76-.21 1.03 0 .33.04.69.17 1.04.13.34.33.67.66.96.31.27.66.45 1.06.57.03.02.07.02.1.03m2.38-5.03c.09.05.16.11.23.17 0-.05 0-.09.01-.13-.08-.01-.15-.03-.22-.04zm3.82 5.7c-.23.06-.46.08-.68.08-.23 0-.44-.02-.64-.05-.2-.04-.39-.09-.58-.18-.12-.05-.2-.1-.26-.21-.05-.09-.06-.18-.06-.32 0-.38.03-.81.04-.97v-.03c0-.09.02-.17.04-.24.07-.15.17-.24.35-.24s.28.09.34.23c.02.07.03.14.03.2 0 .03.01.07.01.12.02.06.03.13.05.18.05.19.15.32.27.4.14.1.32.15.52.15.23 0 .4-.07.52-.17.13-.11.19-.26.19-.4s-.02-.27-.1-.41c-.09-.16-.25-.34-.52-.56l-.35-.27c-.45-.34-.75-.67-.94-.99-.21-.34-.29-.67-.29-1.03 0-.51.21-.95.59-1.26.36-.29.86-.46 1.45-.46.26 0 .47.02.66.04.18.03.32.07.42.09zm.68-.28c-.22.14-.45.23-.68.28zm-.02-.77a1 1 0 0 0 .12-.18c.11-.2.15-.42.15-.61 0-.31-.07-.57-.23-.82-.17-.27-.46-.55-.89-.87l-.21-.16c-.34-.25-.55-.46-.69-.65-.17-.23-.23-.44-.23-.67 0-.11.02-.21.04-.3q-.18.255-.18.6c0 .25.05.49.2.72.15.26.41.53.8.83l.34.27c.35.28.56.52.68.74.14.25.18.48.18.7 0 .13-.03.27-.08.4m.65.1c-.13.24-.34.48-.63.67zm.22-.89c0 .28-.06.59-.22.89zm-.33-1.14c.23.36.33.72.33 1.14zm-1.03-1.03c.49.37.82.7 1.03 1.03zm-.21-.15.21.15zm-.57-.53c.1.14.28.31.57.53zm-.11-.32c0 .11.03.21.11.32zm.15-.34c-.1.08-.15.2-.15.34zm.45-.14c-.2 0-.35.05-.45.14zm.41.09a.86.86 0 0 0-.41-.09zm.18.16a.7.7 0 0 0-.18-.16zm0 .01v-.01zm.09.15a.6.6 0 0 0-.09-.15zm.04.16c0-.02-.01-.08-.04-.16zm.05.24a.6.6 0 0 1-.05-.24zm.01 0h-.01zm.31.19c-.14 0-.25-.06-.31-.19zm.35-.25c-.07.18-.18.25-.35.25zm.03-.27c0 .12-.01.2-.03.27zm.03-.77c-.01.13-.03.35-.03.77zm.01-.14c0 .03-.01.08-.01.14zm-.15-.29c.1.07.15.17.15.29zm-2.82 5.55c-.02-.01-.03-.03-.04-.04v.02zm7.07-1.9.06.03c.06.04.1.1.13.17v.01l.6 1.59c.01.02.02.03.02.05.01.03.01.05.02.07.16.01.32.01.46.01q-.135-.195-.3-.57c-.27-.64-.77-1.91-1.19-2.96-.25-.62-.46-1.16-.59-1.47l-.27.69c.02-.01.05-.01.08-.01.25 0 .29.15.32.28l.68 1.85v.01a.282.282 0 0 1-.02.25m.19 1.87-.5-1.31h-1.37l-.36.95c-.04.11-.07.21-.08.29h.11c.09 0 .16.01.23.05.13.07.18.17.18.31 0 .15-.07.25-.19.32-.08.04-.15.05-.24.05-.1 0-.26 0-.42-.01-.12-.01-.25-.01-.38-.01h-.15c-.19.01-.49.02-.74.02a.47.47 0 0 1-.24-.05c-.14-.06-.2-.17-.2-.32 0-.14.05-.24.16-.3.07-.05.14-.06.23-.06.03 0 .06-.01.09-.01s.07 0 .1-.01a.3.3 0 0 0 .21-.11c.07-.08.13-.22.2-.38l1.89-4.73v-.01c.05-.12.09-.21.14-.28.09-.14.2-.2.35-.2.13 0 .24.05.33.17.04.06.08.14.13.25.07.17.35.87.68 1.69.42 1.05.92 2.3 1.19 2.95.13.3.23.46.32.56.06.05.1.07.13.08.05.01.09.02.12.02.04 0 .09.01.14.01.07 0 .13 0 .2.04.05.02.09.05.12.08.02-.02.05-.05.09-.07h.01c.06-.04.13-.05.23-.05.05 0 .09-.01.12-.01.01 0 .03 0 .04-.01.02-.04.03-.1.03-.16.04-.3.04-.89.04-1.58v-2.46c0-.21-.01-.32-.01-.45-.01-.07-.01-.12-.02-.13s-.03-.01-.07-.02h-.01c-.02-.01-.04-.01-.07-.01-.05 0-.1-.01-.15-.01-.09 0-.16-.01-.23-.04a.33.33 0 0 1-.2-.32c0-.17.07-.28.23-.33.07-.03.14-.04.23-.04.22 0 .52.01.75.02h.28c.22 0 .38 0 .53-.01.15 0 .29-.01.39-.01.62 0 1.05.15 1.34.35.46.32.56.77.56 1.08 0 .38-.1.68-.28.93-.07.11-.15.21-.24.31.25.13.5.32.69.55.26.31.44.7.44 1.16 0 .52-.22 1.05-.69 1.43-.37.31-.91.52-1.62.52-.08 0-.29-.02-.51-.03-.23-.01-.46-.02-.59-.02-.1 0-.21 0-.34.01-.22 0-.46.01-.61.01-.09 0-.18-.02-.24-.05a.3.3 0 0 1-.12-.09c-.05.06-.12.09-.23.12-.08.02-.18.02-.34.02h-.59c-.25 0-.54-.01-.84-.02h-.05c-.29-.01-.47-.03-.47-.35 0-.13.04-.22.14-.29m-2.19-1.9-.02.04c.01-.01.02-.01.03-.02 0-.01-.01-.01-.01-.02m-.72 1.77c-.03.06-.06.12-.09.17h.08v-.05c0-.03.01-.07.01-.12m1.73-3.01-.32.86h.63zm4.72 1.31c0 .7 0 1.31-.04 1.64v.01c-.01.08-.03.16-.04.23.11-.01.2-.01.23-.01.07 0 .19 0 .33.01a.7.7 0 0 1-.12-.21c-.05-.15-.06-.33-.06-.61v-1.79c0-.09.03-.16.08-.22a.4.4 0 0 1-.08-.24v-1.87c0-.05.01-.09.02-.13h-.38c.03.07.04.16.04.25.01.12.01.24.01.47.01.38.01.67.01 1.15zm2.49 1.54h.01c.31-.26.46-.62.46-.97 0-.31-.12-.57-.29-.77-.21-.25-.49-.43-.77-.54.23.19.39.42.51.65.16.34.22.7.22 1 0 .25-.05.46-.14.63m-.35-3.26a.2.2 0 0 1 .04-.06c.11-.16.18-.35.18-.6a.7.7 0 0 0-.31-.59c-.08-.05-.17-.1-.27-.14.01.02.02.03.03.04.24.3.35.7.35 1.04 0 .11-.01.21-.02.31m-1.22-1.18h-.02v1.51h.11c.1 0 .19 0 .25-.02a.2.2 0 0 0 .1-.05l.01-.01c.06-.04.1-.11.14-.2.03-.09.05-.22.05-.36 0-.22-.07-.48-.21-.66a.52.52 0 0 0-.43-.21m.95 4.3c.1-.1.16-.25.16-.49 0-.23-.04-.49-.16-.74-.1-.19-.24-.37-.44-.52a.6.6 0 0 0-.18-.08c-.07-.03-.17-.04-.29-.05h-.06v1.54c0 .22.01.35.03.42 0 0 .01.01.05.03.08.03.15.04.21.05.07.01.15.02.23.02.14 0 .33-.05.45-.18m5.6-1.44c.02.01.03.02.05.03.06.04.11.1.14.17v.01l.6 1.6c.01.02.01.03.02.05s.01.04.01.06c.17.01.32.01.47.01q-.15-.195-.3-.57c-.27-.65-.78-1.92-1.2-2.97-.25-.61-.46-1.15-.58-1.46l-.28.69c.03-.01.06-.01.08-.01.25 0 .29.14.33.28l.67 1.85v.01c.01.03.02.07.02.1q0 .075-.03.15m.18 1.87-.49-1.31h-1.38l-.35.95c-.05.11-.08.21-.09.29h.11c.1 0 .17.01.24.05.13.07.17.17.17.31 0 .15-.06.25-.19.32-.07.04-.15.05-.23.05-.11 0-.27 0-.42-.01-.13-.01-.25-.01-.38-.01h-.16c-.19.01-.48.02-.73.02a.45.45 0 0 1-.24-.05.325.325 0 0 1-.21-.32c0-.14.06-.24.17-.3.06-.05.14-.06.22-.06.03 0 .07-.01.1-.01s.07 0 .1-.01c.09-.01.15-.05.2-.11.08-.08.14-.22.2-.38l1.89-4.74h.01c.05-.13.09-.22.13-.28.1-.14.2-.2.35-.2.14 0 .24.05.33.17.05.06.09.14.13.25.08.17.35.86.68 1.68.42 1.05.92 2.31 1.2 2.96.12.3.23.47.32.56.05.05.09.07.12.08.05.01.09.02.13.02s.08.01.13.01c.07 0 .14 0 .21.04.12.06.19.16.19.32 0 .18-.08.3-.3.35-.08.02-.19.02-.35.02h-.59c-.25 0-.54-.01-.84-.02h-.05c-.28-.01-.47-.03-.47-.35 0-.13.05-.22.14-.29m-2.19-1.9-.01.04c0-.01.01-.01.02-.02 0-.01 0-.01-.01-.02m-.71 1.77c-.03.06-.06.12-.1.17H98v-.05c0-.03 0-.07.01-.12m1.73-3.01-.32.86h.63z" class="fil5"></path><path d="M55.44 104.24c0 .7 0 1.29-.03 1.61-.03.22-.07.38-.22.41-.07.02-.16.04-.27.04-.09 0-.12.02-.12.06 0 .05.05.07.15.07.3 0 .77-.02.95-.02.44 0 .95.05 2.09.05.28 0 .35 0 .4-.2.04-.15.1-.67.1-.84 0-.08 0-.14-.06-.14-.05 0-.07.03-.08.12-.05.31-.14.46-.34.56-.19.09-.51.09-.71.09-.77 0-.89-.12-.9-.64-.01-.22 0-.91 0-1.17v-.59c0-.05 0-.08.04-.08.18 0 .93.01 1.07.03.28.02.39.14.42.29.03.1.03.2.04.27 0 .04.01.07.06.07.07 0 .07-.08.07-.14s.02-.36.03-.51c.03-.38.06-.51.06-.55s-.02-.06-.05-.06c-.04 0-.07.04-.12.1-.07.07-.18.1-.37.11-.17.02-1.04.02-1.2.02-.05 0-.05-.03-.05-.09v-1.9c0-.06.01-.08.05-.08.15 0 .94.01 1.07.03.38.05.45.13.5.27.04.09.05.22.05.27 0 .07.01.11.07.11.05 0 .07-.05.07-.09.02-.08.03-.42.04-.49.02-.35.06-.44.06-.49 0-.04-.01-.07-.04-.07-.04 0-.09.02-.12.03-.07.02-.18.03-.33.04-.14.01-1.64.01-1.88.01-.22 0-.69-.02-1.09-.02-.11 0-.17.01-.17.07 0 .05.05.07.13.07.11 0 .24 0 .3.02.25.05.31.17.32.43.01.24.01.45.01 1.6zm2.26-5.16c-.04-.07-.05-.09-.1-.09-.03 0-.08.01-.15.07-.13.07-.92.66-1.22.95-.04.03-.07.06-.07.09s.03.05.05.05c.01 0 .07-.03.13-.06.27-.15.87-.39 1.28-.45.16-.01.22 0 .26 0s.09-.02.04-.11c-.09-.2-.16-.35-.22-.45m3.74 3.84c0-1.15 0-1.36.02-1.6.01-.26.07-.39.27-.43.09-.02.14-.02.22-.02.06 0 .1-.02.1-.07 0-.06-.05-.07-.16-.07-.25 0-.73.02-.91.02s-.66-.02-1.06-.02c-.11 0-.16.01-.16.07 0 .05.04.07.13.07.1 0 .23 0 .29.02.25.05.31.17.32.43.02.24.02.45.02 1.6v1.32c0 .7 0 1.29-.04 1.61-.03.22-.07.38-.22.41-.06.02-.16.04-.27.04-.09 0-.12.02-.12.06 0 .05.05.07.15.07.3 0 .78-.02.95-.02.19 0 .67.02 1.09.02.08 0 .14-.02.14-.07 0-.04-.04-.06-.1-.06-.09 0-.26-.02-.37-.04-.19-.03-.25-.19-.27-.4-.02-.33-.02-.92-.02-1.62v-.68h.04l.08.11c.16.22 1.64 1.96 1.98 2.25.32.29.52.46.93.5.16.01.29.01.52.01h.66c.14 0 .18-.02.18-.07s-.05-.06-.1-.06c-.09 0-.24-.03-.47-.12-.4-.16-.74-.5-1.07-.81-.3-.28-1.78-1.87-2.05-2.23.26-.27 1.4-1.4 1.63-1.63.32-.31.58-.47.82-.56.14-.06.33-.08.43-.08.08 0 .11-.02.11-.07 0-.06-.05-.07-.12-.07-.24 0-.65.02-.88.02-.21 0-.62-.02-.78-.02-.09 0-.12.01-.12.07 0 .04.03.06.09.07.08.02.11.07.11.15 0 .13-.17.32-.38.57-.21.26-1.32 1.38-1.57 1.66h-.04zm5.15 1.32c0 .7 0 1.29-.04 1.61-.03.22-.07.38-.22.41-.07.02-.16.04-.27.04-.09 0-.12.02-.12.06 0 .05.05.07.15.07.3 0 .78-.02.95-.02.45 0 .95.05 2.09.05.29 0 .36 0 .41-.2.03-.15.1-.67.1-.84 0-.08 0-.14-.07-.14-.05 0-.06.03-.08.12-.05.31-.14.46-.34.56-.19.09-.51.09-.71.09-.77 0-.89-.12-.9-.64-.01-.22 0-.91 0-1.17v-.59c0-.05.01-.08.05-.08.18 0 .92.01 1.06.03.28.02.39.14.43.29.02.1.02.2.03.27 0 .04.01.07.06.07.07 0 .07-.08.07-.14s.03-.36.03-.51c.03-.38.06-.51.06-.55s-.02-.06-.05-.06c-.04 0-.07.04-.12.1-.07.07-.18.1-.36.11-.18.02-1.04.02-1.21.02-.04 0-.05-.03-.05-.09v-1.9c0-.06.01-.08.05-.08.15 0 .94.01 1.07.03.38.05.46.13.51.27.04.09.04.22.04.27 0 .07.02.11.07.11s.07-.05.08-.09c.01-.08.03-.42.03-.49.03-.35.06-.44.06-.49 0-.04 0-.07-.04-.07s-.09.02-.12.03c-.06.02-.18.03-.33.04-.14.01-1.64.01-1.88.01-.21 0-.69-.02-1.09-.02-.11 0-.16.01-.16.07 0 .05.04.07.13.07.1 0 .23 0 .29.02.25.05.31.17.32.43.02.24.02.45.02 1.6zm2.25-5.16c-.03-.07-.05-.09-.1-.09-.02 0-.08.01-.15.07-.12.07-.92.66-1.22.95q-.06.045-.06.09c0 .03.02.05.04.05s.07-.03.13-.06c.28-.15.87-.39 1.29-.45.15-.01.22 0 .25 0 .04 0 .09-.02.04-.11-.09-.2-.16-.35-.22-.45m3.51 7.46c.4 0 .82-.07 1.2-.31.54-.36.71-.88.71-1.31 0-.72-.33-1.24-1.24-1.93l-.21-.16c-.63-.47-.8-.74-.8-1.08 0-.46.34-.78.9-.78.49 0 .71.23.82.37.16.2.19.43.19.5 0 .09.03.13.08.13.06 0 .08-.06.08-.22 0-.59.03-.81.03-.91 0-.05-.03-.07-.1-.09-.2-.05-.52-.13-1-.13-1.05 0-1.75.6-1.75 1.43 0 .61.29 1.14 1.12 1.79l.35.27c.62.49.73.84.73 1.2 0 .4-.33.86-1.01.86-.46 0-.91-.2-1.07-.76-.04-.13-.07-.28-.07-.38 0-.06-.01-.13-.08-.13-.06 0-.08.08-.09.2s-.04.57-.04.98c0 .17.03.21.15.26.32.14.66.2 1.1.2m6.72 0c.49 0 1.06-.06 1.36-.18.13-.05.16-.09.2-.22.07-.25.16-.91.16-1 0-.06-.01-.11-.07-.11s-.07.03-.09.15c-.03.13-.13.35-.26.5-.3.34-.71.42-1.38.42-1.01 0-2.38-.89-2.38-2.68 0-.74.15-1.45.7-1.96.33-.3.76-.47 1.42-.47.69 0 1.28.21 1.53.47.19.2.28.46.29.69 0 .11.02.17.08.17s.08-.06.09-.17c.01-.15 0-.57.02-.82.02-.26.04-.35.04-.41 0-.05-.03-.08-.12-.09-.22-.03-.46-.09-.75-.13-.35-.05-.62-.08-1.09-.08-1.13 0-1.84.31-2.39.8-.72.67-.88 1.56-.88 2.07 0 .73.2 1.58.94 2.22.68.6 1.55.83 2.58.83m4.29 0c.4 0 .82-.07 1.2-.31.54-.36.71-.88.71-1.31 0-.72-.33-1.24-1.24-1.93l-.21-.16c-.62-.47-.8-.74-.8-1.08 0-.46.34-.78.9-.78.49 0 .71.23.82.37.16.2.2.43.2.5 0 .09.02.13.07.13.06 0 .09-.06.09-.22 0-.59.03-.81.03-.91 0-.05-.04-.07-.11-.09-.2-.05-.51-.13-1-.13-1.05 0-1.74.6-1.74 1.43 0 .61.28 1.14 1.11 1.79l.35.27c.63.49.74.84.74 1.2 0 .4-.33.86-1.01.86-.47 0-.92-.2-1.08-.76-.04-.13-.07-.28-.07-.38 0-.06-.01-.13-.07-.13s-.09.08-.09.2c-.01.12-.04.57-.04.98 0 .17.02.21.14.26.33.14.67.2 1.1.2m6.01-2.08c.04 0 .06.02.07.06l.61 1.59c.04.09-.02.16-.07.18-.07.01-.11.02-.11.07s.1.05.23.06c.61.01 1.16.01 1.43.01.28 0 .34-.01.34-.07s-.03-.06-.09-.06c-.09 0-.21-.01-.32-.04-.16-.03-.38-.14-.66-.82-.49-1.14-1.69-4.22-1.87-4.64-.08-.17-.12-.24-.19-.24-.08 0-.12.09-.21.31l-1.9 4.73c-.15.38-.29.63-.64.68-.06.01-.17.02-.23.02s-.09.01-.09.06c0 .06.04.07.14.07.39 0 .81-.02.89-.02.24 0 .56.02.8.02.08 0 .13-.01.13-.07 0-.05-.02-.06-.11-.06h-.12c-.23 0-.3-.1-.3-.24 0-.09.04-.27.11-.46l.41-1.08c.02-.04.03-.06.07-.06zm-1.53-.37c-.03 0-.04-.03-.03-.06l.69-1.85c.01-.03.03-.07.05-.07s.03.04.04.07l.68 1.86c0 .02 0 .05-.04.05zm5.12.15c0 .7 0 1.29-.04 1.61-.03.22-.07.38-.22.41-.06.02-.16.04-.27.04-.09 0-.12.02-.12.06 0 .05.05.07.15.07.3 0 .78-.02.95-.02.23 0 .91.05 1.1.05 1.38 0 2.01-.84 2.01-1.65 0-.88-.76-1.42-1.38-1.63.42-.33.77-.7.77-1.32 0-.4-.24-1.13-1.6-1.13-.26 0-.55.02-.92.02-.15 0-.63-.02-1.03-.02-.11 0-.16.01-.16.07 0 .05.04.07.13.07.1 0 .23 0 .29.02.25.05.31.17.32.43.02.24.02.45.02 1.6zm.9-3.06c0-.08.02-.11.07-.12.08-.02.15-.02.25-.02.65 0 .94.66.94 1.17 0 .37-.11.64-.31.8-.12.11-.29.14-.54.14-.17 0-.29-.01-.35-.02-.03-.01-.06-.03-.06-.08zm1.73 3.97c0 .78-.57.96-.91.96-.17 0-.35 0-.55-.09-.24-.1-.27-.22-.27-.72v-1.79c0-.04.02-.05.05-.05.11 0 .19 0 .32.01.3.01.47.06.63.18.57.4.73 1.03.73 1.5m4.98-.69c.03 0 .06.02.07.06l.6 1.59c.04.09-.01.16-.06.18-.08.01-.11.02-.11.07s.09.05.23.06c.6.01 1.15.01 1.42.01.28 0 .35-.01.35-.07s-.04-.06-.1-.06c-.09 0-.2-.01-.32-.04-.15-.03-.37-.14-.66-.82-.48-1.14-1.69-4.22-1.87-4.64-.08-.17-.12-.24-.19-.24s-.12.09-.21.31l-1.89 4.73c-.15.38-.29.63-.64.68-.06.01-.17.02-.24.02-.06 0-.09.01-.09.06 0 .06.05.07.15.07.39 0 .8-.02.89-.02.23 0 .55.02.8.02.08 0 .12-.01.12-.07 0-.05-.02-.06-.11-.06h-.11c-.24 0-.3-.1-.3-.24 0-.09.04-.27.11-.46l.41-1.08q.015-.06.06-.06zm-1.53-.37c-.03 0-.04-.03-.03-.06l.69-1.85c.01-.03.02-.07.04-.07.03 0 .03.04.04.07l.68 1.86c.01.02 0 .05-.04.05z" class="fil7"></path><path d="M82.36 75.82c-.15.1-.31.18-.49.18-.01 0-.01.01-.03.02-.12.06-.25.12-.45.08-.15-.03-.24-.11-.34-.19a.4.4 0 0 0-.09-.07l-.16-.08v-.19c0-.12.02-.23.05-.35.01-.08.03-.17.03-.24v-.21l.2-.07c.01 0 .02-.01.04-.02.08-.04.16-.08.27-.08h.04l-.02-.27h.17l.08-.16a.38.38 0 0 1-.18-.25l-.01-.04c-.09-.01-.18-.03-.25-.1l-.02-.02c-.15-.15-.09-.3-.05-.43v-.04l.06-.08c.18-.26.44-.3.69-.24.19.05.36.14.48.22h.01c.01.01.03.02.05.03.34.23.56.55.64.91.09.36.04.75-.17 1.09v.01l-.02.03zm-.2-.6.04-.03c0-.02.01-.03.02-.04-.03 0-.06 0-.08-.01.01.03.01.05.02.08m.51.33c-.08.09-.19.19-.31.27zm.09-.21v.01l.02.02c-.01-.02-.02-.08-.02-.03m0 .02v.11l-.09.08zm.03.02c-.01 0-.01 0-.01-.01l-.02-.01zm0 0" class="fil5"></path><path d="M81.87 75.7c.21 0 .45-.21.59-.36 0-.08.15-.19.17-.23.38-.57.19-1.31-.4-1.67-.21-.12-.59-.33-.78-.06 0 .02-.06.15-.04.17l.02.02c.02.02.17 0 .21 0 0-.02.04-.04.04-.06.07 0 .19-.02.26-.02 0 .08.02.29-.11.29 0 .02-.04.06-.06.06.04.17.52.05.65.15v.17c-.13 0-.4-.04-.46.09.02 0 .04.04.04.08.1 0 .38.23.42.32 0 .31-.48.21-.57.02-.02 0-.04-.02-.06-.04h-.06l.02.46c.08.04.12.17.12.25a.48.48 0 0 1-.29.13l-.04-.02c0-.15-.05-.47-.15-.55-.06 0-.15.06-.21.08 0 .19-.09.41-.09.59.13.07.24.22.36.24.17.04.3-.11.42-.11" class="fil7"></path><path d="M61.89 79.9c.15 0 .29.05.4.09.48.2.72.6.75 1.03.02.18 0 .37-.06.54q-.09.27-.27.48c-.27.3-.68.46-1.19.33v-.01a.6.6 0 0 1-.25-.14l-.06-.04-.17-.09v-.18c0-.1.02-.19.04-.28.01-.05.02-.11.02-.15v-.21l.2-.07c.01 0 .01 0 .01-.01h.01c.05-.03.1-.06.17-.07l-.01-.2h.16a.45.45 0 0 1-.1-.17.3.3 0 0 1-.17-.08l-.01-.02c-.1-.09-.11-.21-.08-.33.01-.05.05-.14.06-.15l.01-.01c.13-.22.33-.28.54-.26m.35 1.77c-.01 0-.03 0-.03.01l-.01.02c.01-.01.03-.02.04-.03" class="fil5"></path><path d="M62.18 80.27c-.17-.06-.45-.15-.58.05-.01.01-.05.1-.03.12l.01.02c.02.01.12 0 .15 0 0-.02.03-.04.03-.05.05 0 .14-.02.19-.02 0 .07.01.22-.08.22 0 .01-.03.04-.05.04.04.13.39.03.48.11v.12c-.09 0-.29-.03-.34.07q.03 0 .03.06c.08 0 .28.16.31.23 0 .23-.35.15-.41.01-.02 0-.03-.01-.05-.03h-.05l.02.34c.2.1.05.27-.12.27l-.03-.01c0-.11-.03-.34-.11-.4-.04 0-.11.05-.15.06 0 .14-.06.29-.06.43.09.04.17.14.26.17 1.16.31 1.6-1.41.58-1.81" class="fil7"></path><path d="M60.97 70.96H61v-.01l-.43-1.32-.05-.13.08-.12.62-.99.19-.3.26.24.17.15.05.04.02.05.46.98.04.09-.01.09-.21 1.17v.01l.47-.05-.17.44-.47 1.31-.06.17-.18.03-.2.03-.22.03-.09-.21-.59-1.28-.22-.47zm.46.63.18.4.16-.44zm.06-2.51-.31.5.32.98h.15l.14-.84z" class="fil5"></path><path d="m61.35 71.29-.4-.03.59 1.28.2-.03.47-1.31zm.13-2.74-.63.99.43 1.32.62-.01.2-1.17-.46-.98z" class="fil7"></path><path d="m88.09 74.95-1.48-2.04c-.45-.21-.81-.5-1.1-.82-.38-.42-.62-.89-.73-1.27l-.06-.2.17-.12c.03-.02.06-.05.08-.08.16-.2.16-.56.03-.98-.13-.48-.42-1.02-.77-1.5-.27-.36-.56-.68-.87-.93l-.08-.07-.02-.1-.66-3.3.5 3.84c.59.55.89 1.13 1.03 1.72.14.57.12 1.14.06 1.7l1.43 2.5.03.05v.06l.2 1.58zm-1.05-2.45 1.87 2.57.33.46-.57.01-3.08.05h-.26l-.04-.26-.22-1.79L83.62 71l-.05-.08.01-.1c.06-.52.09-1.06-.03-1.58-.12-.51-.39-1.01-.93-1.49l-.08-.07-.01-.11-1.41-10.84-.03-.27.26-.06.13-.03.3-.07.06.3 1.99 10.02c.31.27.61.61.88.97.39.53.71 1.13.87 1.68.17.61.15 1.16-.15 1.53l-.02.03c.11.26.29.57.54.86.26.28.58.54.97.71l.08.03z" class="fil5"></path><path d="m88.67 75.24-1.87-2.57c-.98-.43-1.56-1.32-1.73-1.93.9-.67-.24-2.91-1.52-3.96l-2.01-10.12-.12.03 1.4 10.84c1.18 1.04 1.19 2.22 1.06 3.33l1.48 2.59.23 1.84z" class="fil7"></path><path d="m81.31 56.23-.46-.27-.08-.05-.04-.09-.13-.28c-.1-.12-.09-.25.01-.39.02-.03.06-.07.1-.11.13-.13.38-.34.61-.52l.1-.06.11.01c.22.02.41.14.54.3.13.17.2.39.18.6a1 1 0 0 1-.21.49c-.12.16-.28.29-.43.37l-.15.09zm-.08-.73.22.12c.04-.03.08-.08.12-.12.05-.06.08-.13.08-.19a.23.23 0 0 0-.05-.17.2.2 0 0 0-.05-.04c-.13.11-.27.21-.36.3z" class="fil5"></path><path d="M81.46 55.98 81 55.7l-.15-.34c-.07-.01.31-.34.65-.6.28.03.48.32.45.58-.02.27-.28.52-.49.64" class="fil7"></path><path d="M77.18 75c-.09-1.8.41-2.32.87-2.81.34-.35.66-.68.55-1.82-.05-.41-.06-1.14.16-1.88.14-.48.38-.96.77-1.37l.4-2.88-.83 2.84-.03.09-.07.05c-.01.01-.02.03-.05.05-.38.34-.79.96-1.01 1.61-.21.6-.26 1.21.05 1.57l.02.03.12.13-.06.17c-.18.5-.44.94-.81 1.32-.32.34-.73.62-1.23.83l-1.31 2.04zm1.3-2.39c-.4.42-.84.87-.69 2.67l.03.32h-.33l-3.31-.04-.54-.01.29-.46 1.65-2.56.05-.08.09-.03c.46-.19.82-.44 1.12-.74.26-.27.47-.59.61-.95-.37-.55-.33-1.31-.07-2.05.25-.73.72-1.45 1.17-1.85l1.76-5.98.05-.2.2-.02.11-.01.38-.04-.06.38-.89 6.33-.01.1-.07.08c-.35.34-.57.76-.69 1.19-.19.65-.18 1.29-.14 1.65.14 1.41-.27 1.84-.71 2.3" class="fil5"></path><path d="M77.5 75.3c-.31-3.62 1.67-2.23 1.39-4.96-.06-.64-.07-2.11.92-3.09l.89-6.33-.11.01-1.78 6.06c-.85.71-1.86 2.76-1.02 3.69-.31.89-.94 1.6-1.96 2.02l-1.65 2.56z" class="fil7"></path><path d="M80.99 76.66c-.59-.01-1.07-.21-1.43-.52a2.4 2.4 0 0 1-.74-1.2c-.13-.45-.14-.95-.02-1.41.14-.56.46-1.07.96-1.42h.01c.56-.4 1.21-.56 1.82-.49.63.06 1.22.36 1.65.86l.51.57-.76-.08c-.77-.09-1.34.01-1.74.21-.33.17-.55.41-.67.69-.12.29-.15.62-.09.95.08.47.33.95.71 1.33l.51.52zm-1.04-.97c.09.08.19.15.31.21-.18-.32-.3-.65-.36-.98-.07-.44-.03-.89.14-1.29s.48-.74.93-.98c.31-.15.68-.26 1.12-.3-.18-.07-.36-.12-.56-.14-.47-.05-.98.07-1.42.38-.38.27-.62.66-.73 1.08-.09.37-.09.76.01 1.12.1.35.29.67.56.9" class="fil5"></path><path d="M80.99 76.36c-2.1-.02-2.64-2.9-1.05-4.01 1.02-.72 2.31-.56 3.08.32-3.18-.36-3.46 2.26-2.03 3.69" class="fil7"></path><path d="M59.15 81.5c-.25-1.25.16-2.17.83-2.71.28-.23.6-.39.95-.47.34-.08.7-.09 1.04-.02.82.16 1.56.74 1.85 1.79l.23.83-.69-.51c-.4-.29-.8-.48-1.17-.52-.32-.04-.62.02-.88.21l-.01.02-.02.01c-.14.07-.25.19-.34.33-.12.2-.18.45-.18.7-.01.26.05.52.18.76.11.2.27.38.5.51l.63.37-.72.18c-.36.08-.89-.06-1.34-.36-.38-.26-.72-.64-.85-1.09zm1.2-2.25c-.51.41-.81 1.13-.62 2.12.1.3.34.56.62.75l.04.03c-.16-.31-.23-.66-.23-1 .01-.35.1-.71.27-.99.13-.23.32-.42.54-.54.39-.29.83-.38 1.3-.33.18.03.36.08.55.15a1.7 1.7 0 0 0-.96-.56c-.26-.05-.53-.04-.79.02s-.51.18-.72.35" class="fil5"></path><path d="M59.44 81.45c-.64-3.18 3.36-3.95 4.09-1.28-.85-.63-1.72-.8-2.4-.3-.88.48-.96 2.15.15 2.81-.53.13-1.59-.42-1.84-1.23" class="fil7"></path><path d="m61.8 86.69.84.22 2.31.6-2.39-.02-1.94-.01h-.3v-2.5l.01-.03c.03-.21.08-.41.15-.59s.17-.34.29-.46l.01-.01c.25-.21.5-.34.74-.38.19-.03.38-.01.55.05s.32.17.45.31c.18.2.31.47.36.79l.12.72-.59-.43c-.2-.14-.36-.2-.47-.19h-.01c-.02 0-.05 0-.07.01l-.03.03c-.03.04-.04.1-.04.17v.01zm-.88.2h.29L61.2 85c-.01-.22.04-.4.14-.55.07-.08.15-.16.25-.21s.2-.07.32-.08h.04c-.03-.01-.06-.03-.08-.04a.5.5 0 0 0-.25-.02c-.13.02-.28.1-.43.23-.06.06-.12.15-.16.26-.05.12-.09.26-.11.41z" class="fil5"></path><path d="m61.51 86.92 1.05.27-1.94-.01v-2.19c.05-.38.18-.69.36-.88.71-.63 1.46-.26 1.61.6-.65-.47-1.12-.23-1.1.27z" class="fil7"></path><path d="m61.83 97.64 2.02.46 2.58.59h-6.41l-.03-.27-.05-.48v-3.6c0-.81.24-1.42.6-1.84.19-.23.42-.4.67-.51s.52-.17.79-.16c.49 0 .99.19 1.42.56l.68.59-.9-.07c-.6-.04-.95.08-1.13.32-.2.26-.25.68-.24 1.21v3.2m-1.27.45h.67v-3.63c-.01-.67.07-1.21.36-1.59.15-.19.34-.34.58-.43-.06-.01-.12-.02-.18-.02-.18 0-.37.04-.53.12-.18.07-.33.19-.47.34-.27.33-.45.81-.46 1.46v3.55z" class="fil5"></path><path d="m61.53 97.88 2.26.51h-3.5l-.06-.48.01-3.57c.01-2.15 1.78-2.76 2.98-1.72-1.43-.11-1.72.63-1.69 1.83z" class="fil7"></path><path d="m81.21 83.81 1.52.48 1.87.58h-5.05l-.05-.24-.1-.5-.01-.03v-.03l.01-3.48c0-.72.16-1.29.4-1.71.22-.37.52-.64.84-.79.33-.15.7-.18 1.06-.09.33.09.65.27.93.55l.56.58-.8-.07c-.51-.04-.8.08-.96.32-.18.29-.23.74-.22 1.32zm-1.17.47h.65l-.08-.03v-3.54c-.01-.69.06-1.25.32-1.65.14-.22.33-.39.58-.49-.21-.04-.43-.02-.62.07-.22.1-.42.28-.57.54-.2.34-.32.81-.33 1.41v3.45z" class="fil5"></path><path d="m80.91 84.03 1.73.54H79.8l-.11-.5v-3.48c.02-2.27 1.66-2.91 2.72-1.82-1.27-.11-1.52.67-1.5 1.93z" class="fil7"></path><path d="M91.55 92.92c.38.97 1.18 1.36 1.71 1.61.19.1.36.17.48.27.07.06.13.13.18.22l-.01-.17c-1.95-.88-2.28-2.12-2.62-3.46-.16-.62-.33-1.25-.68-1.86v-.01c-.65-1.18-1.74-1.19-2.64-1.21-.19 0-.38 0-.54-.01l-.28-.02v-1.79l-1.32-.13-.29-.03.02-.29.58-9.73-.92.01-.01 9.73v.29h-.29l-9.59.03.03 1.63v.29l-.29.02c-2.34.09-2.63 1.88-2.89 3.49-.05.32-.1.62-.16.9-.1.44-.49.92-.99 1.3-.15.12-.32.24-.5.33.23-.08.44-.18.62-.31.35-.24.63-.56.84-.88.3-.75.44-1.42.55-1.99.29-1.46.46-2.33 2.57-2.43l.2-.01.08.19.1.22.12-1.98.02-.29.29.01c1.63.05 3.57.09 5.62.1 1.62 0 3.32-.01 4.98-.05h.07l.06.03c.16.08.33 1.83.43 3.83l.01.27c.09-1.29.21-2.28.43-2.31 2.27-.26 2.58.53 3.38 2.6.18.45.38.98.64 1.57zM93 95.07c-.61-.29-1.54-.74-2-1.93-.27-.6-.47-1.14-.65-1.6-.68-1.75-.94-2.42-2.76-2.21-.16.01.07 2.01-.01 3.93-.04 1.06-.09 2.1-.13 2.77l-.02.27-.28.01h-.17l-.3.01v-.31c0-.94-.09-3.21-.19-5.21-.09-1.67-.04-3.07-.08-3.29-1.62.04-3.28.05-4.88.04-1.93-.01-3.77-.04-5.34-.09l-.18 2.93-.08 1.25-.49-1.14-.51-1.17c-1.45.13-1.58.81-1.81 1.93-.11.6-.26 1.31-.59 2.13l-.01.03-.01.02c-.25.39-.58.77-1.02 1.07-.31.22-.68.39-1.09.48l-.12 1.45-.03.28-.27-.01-.57-.01h-.29v-.29l-.01-1.98v-.28l.27-.02c.38-.03.87-.28 1.29-.6.39-.3.7-.65.76-.95.06-.28.11-.57.16-.87.29-1.78.6-3.74 3.17-3.98l-.03-1.65-.01-.3h.31l9.59-.03V75.73h.3l1.53-.02h.32l-.02.31-.58 9.77 1.31.14.27.02v1.76c.07 0 .15.01.23.01 1.06.01 2.33.03 3.15 1.51.39.69.56 1.36.73 2.01.32 1.23.62 2.37 2.45 3.13l.18.08v.18l.08 1.62.01.31h-1l-.04-.24c-.02-.09-.03-.2-.04-.33-.02-.28-.04-.65-.12-.72h-.01c-.07-.05-.21-.12-.37-.2m-23.17-.43c-.04.02-.08.03-.12.04v1.35l.11-1.31z" class="fil5"></path><path d="M91.27 93.02c.55 1.43 1.89 1.71 2.29 2.02.25.19.22.96.27 1.22h.44l-.07-1.61c-2.93-1.22-2.2-3.28-3.33-5.27C90 87.8 88.5 88.07 87.45 88v-1.78l-1.59-.16.59-10.05-1.53.01v10.03l-9.89.02.03 1.94c-3.04.12-2.94 2.75-3.34 4.63-.15.75-1.47 1.71-2.31 1.79v1.98h.57l.14-1.66c1.02-.17 1.72-.82 2.13-1.47 1.05-2.55.16-4.13 2.87-4.26l.59 1.36.2-3.22c2.93.08 6.87.14 10.62.05.11.05.45 6.95.45 8.8h.17c.13-2 .27-6.96.41-6.98 2.53-.29 2.36.9 3.71 3.99" class="fil7"></path><path d="M79.64 94.1c.1-.03-.15-1.01-.15-2.13 0-1.26-.02-2.58-.04-2.68l-.04-.1.05-.11c.16-.34 1.09-.32 2.03-.29.41.01.83.02 1.15.01l.12-.01.09.08c.2.19.18.42.15.76 0 .08-.01.16-.02.27l-.01.26-.26.02c-1.48.13-1.48.14-1.46 1.37l.01.19v1.92l1.52.44 2.04.58h-6.99zm.45-2.13c0 .81-.03 1.6-.1 2.12h.67v-2.53c-.03-1.7-.03-1.79 1.75-1.95v-.03q.015-.12.03-.18c-.29 0-.63-.01-.96-.02-.65-.01-1.28-.05-1.44-.05.03.46.05 1.58.05 2.64" class="fil5"></path><path d="M79.73 94.39c.08-.03.07-4.94 0-5.18.11-.25 1.95-.08 2.92-.12.13.12.06.38.04.79-1.83.17-1.75.17-1.73 1.87v2.14l1.74.5z" class="fil7"></path><path d="m95.65 98.69-8.34.01h-.11l-.09-.07c-1.5-1.3-3.5-1.94-5.53-1.94-2.04 0-4.1.65-5.71 1.96l-.08.06h-.1l-6.33.01h-.3v-.64l.01-.3h.3c.75.01 1.83 0 2.99-.08.82-.05 1.68-.14 2.46-.28 2-1.59 4.22-2.42 6.47-2.48 2.27-.06 4.56.65 6.66 2.13 1.26.39 3.25.5 5.07.61.96.05 1.89.11 2.63.19l.21.03.04.22.04.22.07.35zm-8.23-.59h3.02c-1.02-.1-1.98-.24-2.71-.48l-.05-.01-.04-.02c-2-1.43-4.18-2.11-6.34-2.05-2.14.05-4.26.85-6.17 2.39l-.06.05-.07.01c-.26.05-.53.09-.8.13h1.38c1.71-1.35 3.87-2.02 6-2.03 2.13 0 4.24.67 5.84 2.01" class="fil5"></path><path d="M95.65 98.39c-2.86 0-5.48.01-8.34.01-3.11-2.68-8.29-2.68-11.62.01l-6.33.01v-.34c1.33.02 3.67-.03 5.58-.38 3.94-3.18 8.78-3.27 12.88-.36 1.95.63 5.61.57 7.79.83z" class="fil7"></path><path d="m55.2 89.69-.31-.3.81 1.23.04.07.01.08.16 7.38h.12l.14-6.64c0-.42.09-.82.28-1.19.09-.17.2-.34.33-.5l-1.39-.05h-.11zm-1.28-2.1 1.61 1.59 1.95.07.79.03-.61.5c-.3.25-.53.52-.68.81-.14.29-.21.59-.21.93l-.15 6.94v.3l-.3-.01-.71-.01-.28-.01-.01-.29-.17-7.57-1.85-2.82-.19-.29.32-.15.16-.07.19-.09z" class="fil5"></path><path d="m55.41 89.47-1.7-1.66-.16.07 1.9 2.9.17 7.66.7.01.15-6.93c-.01-.76.33-1.42 1-1.97z" class="fil7"></path><path d="m76.26 75.77 1.37-.05.32-.01-.01.31-.11 9.91v.28l-.29.01-.78.02-.29.01-.02-.29-.47-9.87-.02-.3zm1.08.56-.75.03.44 9.28.21-.01z" class="fil5"></path><path d="m76.27 76.07 1.37-.05-.11 9.91-.78.02z" class="fil7"></path><path d="m56.51 82.04-.79-.01.12 4.29h.23l.14-3.97.01-.19.18-.07zm-1.09-.61 2.57.03 1.46.01-1.35.56-1.3.53-.14 4.07-.01.29h-.29l-.82-.01-.28-.01-.01-.28-.13-4.89-.01-.3z" class="fil5"></path><path d="m57.98 81.75-2.56-.02.13 4.88.81.01.15-4.26z" class="fil7"></path><path d="M69.67 87.27c-.32.01-.99.09-1.52.08-.3-.01-.55-.01-.62-.02l-.31-.01.02-.31.4-5.04-.59.01L67 87v.3h-.3l-5.56.06 6.87.45.41.03-.16.38-.58 1.4-.08.18-.2.01h-1.87c.8.19 1.41.49 1.59.96l.02.05v.06l-.06 7.04.62.01-.06-7.17v-.09l.04-.07zm-1.5-.52c.81.02 2.06.04 2.18.2l.11.16-.1.17-2.13 3.56.06 7.39.01.31-.31-.01-1.22-.02h-.29v-.3l.06-7.27c-.36-.73-2.96-.83-4.85-.91-.53-.02-1.01-.04-1.36-.07l-.21-.02-.06-.19-.04-.15-.11-.38h.4l6.89-.01.35-.83-12.29-.8-.28-.02v-.72h.3l11.13-.13.05-5.02v-.29l.29-.01 1.2-.02.33-.01-.02.33-.4 5.06z" class="fil5"></path><path d="M70.11 87.13c-.04-.06-2.27-.08-2.57-.09l.42-5.37-1.2.02L66.7 87l-11.42.13v.15l12.71.83-.59 1.4-7.09.01.04.15c1.77.14 6.05.01 6.49 1.2l-.07 7.34 1.23.02-.06-7.48z" class="fil7"></path><path d="M69.4 80.69c.03-.04.05-.08.08-.13a.4.4 0 0 0 .05-.11l-2.93-1.56-.05-.02-.03-.05-3.73-4.27.05.09c1.01 2.09 2.24 4.61 3.57 6.05zm.6.15c-.06.13-.13.24-.21.34l-.09.11h-3.54l-.09-.09c-1.44-1.49-2.72-4.13-3.77-6.3-.24-.49-.46-.95-.67-1.37l-.14-.27.27-.13.21-.1.21-.1.14.17 4.61 5.29 3.12 1.66.23.12-.09.25c-.06.15-.12.3-.19.42" class="fil5"></path><path d="M69.55 80.99c.14-.16.25-.38.36-.68l-3.17-1.68-4.64-5.33-.21.1c1.16 2.29 2.67 5.8 4.39 7.59z" class="fil7"></path><path d="m57.2 79.36 2.42-3.88-3.02 3.12-.02.02-.02.02-2.62 1.82.04.03c.12.07.25.14.38.2h1.81v.01l.53-.02c0-.12.02-.24.06-.37.09-.36.29-.76.44-.95m4.05-5.37-3.55 5.7-.01.02-.02.03c-.11.11-.26.43-.34.72-.04.15-.06.28-.05.29l.52.49-.72.02-.91.03h-1.94l-.06-.03c-.18-.08-.34-.17-.5-.26-.16-.1-.31-.2-.44-.29l-.34-.25.35-.24 2.95-2.05 4.44-4.61.15-.15.19.09.14.06.32.14z" class="fil5"></path><path d="m57.45 79.54 3.54-5.71-.14-.06-4.46 4.63-2.98 2.06c.25.19.56.39.89.53h1.87l.91-.02c-.25-.24.14-1.18.37-1.43" class="fil7"></path><path d="M95.44 95.29h.71v2.43h-1.76v-1.14l.26-.03.3-.03.2-.99.05-.24zm.12 1.83v-.61l-.07.34-.05.21-.21.02-.25.04h.58" class="fil5"></path><path d="M95.44 95.59h.41v1.84h-.57v-.01h-.6v-.57l.51-.06z" class="fil7"></path><path d="M67.77 121.23h-.88v-5.67c-.22.2-.5.41-.85.61s-.66.36-.93.46v-.86c.49-.24.93-.52 1.3-.85.37-.34.64-.66.79-.97h.57zm2.42-1.68.85-.08c.08.4.21.69.42.88.2.18.47.27.79.27.27 0 .51-.06.72-.19.2-.13.37-.29.5-.5s.24-.49.33-.85c.09-.35.14-.72.14-1.09 0-.04-.01-.1-.01-.17-.18.28-.42.51-.73.68-.31.18-.64.27-1 .27-.6 0-1.11-.22-1.52-.65-.42-.44-.63-1.01-.63-1.72 0-.74.22-1.33.65-1.78.44-.45.98-.67 1.63-.67.48 0 .91.13 1.3.38s.68.62.89 1.08q.3.705.3 2.04 0 1.395-.3 2.22c-.2.55-.5.96-.9 1.25s-.86.43-1.4.43c-.56 0-1.02-.16-1.38-.47-.36-.32-.58-.76-.65-1.33m3.64-3.2c0-.51-.13-.91-.4-1.21-.28-.3-.6-.45-.99-.45s-.74.16-1.03.48-.44.74-.44 1.26c0 .46.14.83.42 1.12s.62.43 1.03.43.75-.14 1.01-.43c.27-.29.4-.69.4-1.2m5.21 4.88h-.89v-5.67c-.22.2-.5.41-.84.61-.35.2-.67.36-.94.46v-.86c.5-.24.93-.52 1.3-.85.37-.34.64-.66.8-.97h.57zm6.95-.86v.86H81.2c0-.22.03-.42.11-.62.12-.33.31-.65.58-.97.27-.31.66-.68 1.17-1.09.78-.65 1.32-1.16 1.6-1.54.27-.38.41-.73.41-1.07 0-.35-.13-.65-.38-.89s-.58-.36-.98-.36c-.43 0-.78.12-1.03.38-.26.26-.39.61-.39 1.07l-.92-.09c.06-.69.3-1.21.71-1.56.41-.36.96-.54 1.64-.54.7 0 1.25.19 1.66.58.4.38.61.86.61 1.43 0 .29-.06.58-.18.86s-.32.57-.59.88c-.28.31-.74.74-1.38 1.28-.53.45-.87.75-1.02.91-.16.16-.28.32-.38.48z" style="fill:#ca914c;fill-rule:nonzero"></path><path d="M44.42 35.41h2.63c.52 0 .9.02 1.16.07.26.04.48.13.69.26.2.14.36.32.5.55.13.23.2.49.2.77 0 .31-.08.59-.25.84-.16.26-.39.45-.67.58.4.12.7.31.92.6.21.28.32.61.32.99q0 .45-.21.87c-.14.28-.33.51-.57.68-.24.16-.53.27-.89.31-.22.02-.75.04-1.59.04h-2.24zm1.33 1.09v1.51h.87c.51 0 .83 0 .96-.02.23-.02.4-.1.53-.23s.2-.3.2-.51-.06-.37-.17-.5c-.11-.12-.28-.2-.5-.23a20 20 0 0 0-1.13-.02zm0 2.6v1.76h1.23c.48 0 .78-.01.91-.04.2-.03.36-.12.48-.26s.19-.32.19-.56c0-.2-.05-.36-.15-.5a.75.75 0 0 0-.41-.3c-.18-.06-.57-.1-1.18-.1zm5.29 2.87v-6.56h4.86v1.11h-3.53v1.46h3.28v1.11h-3.28v1.77h3.65v1.11zm1.8-7.15.63-1.34h1.4l-1.24 1.34zm4.33 7.15v-6.56h1.33v2.91l2.68-2.91h1.78l-2.48 2.56 2.61 4h-1.72l-1.8-3.08-1.07 1.1v1.98zm6.6 0v-6.56h4.86v1.11H65.1v1.46h3.28v1.11H65.1v1.77h3.65v1.11zm1.8-7.15.63-1.34h1.4l-1.24 1.34zm3.96 5.03 1.3-.13c.07.43.23.75.47.95q.345.3.96.3c.42 0 .74-.09.95-.27q.33-.27.33-.63c0-.15-.05-.29-.14-.4-.09-.1-.25-.2-.47-.28-.16-.05-.51-.15-1.06-.29-.7-.17-1.2-.39-1.49-.65q-.6-.54-.6-1.32c0-.34.1-.65.28-.94.19-.29.47-.52.82-.67.36-.15.78-.23 1.29-.23.82 0 1.44.18 1.85.55.42.36.63.85.66 1.46l-1.33.05c-.06-.34-.18-.59-.37-.73-.18-.15-.46-.23-.83-.23q-.57 0-.9.24c-.13.1-.2.24-.2.41 0 .16.06.29.19.4.17.14.57.29 1.22.44.64.15 1.12.31 1.42.47.31.16.55.39.73.67.17.28.26.63.26 1.04 0 .38-.11.73-.32 1.06s-.5.57-.88.73-.86.24-1.43.24c-.83 0-1.46-.19-1.91-.57-.44-.38-.71-.94-.8-1.67m10.66-.3 1.29.4c-.2.72-.53 1.26-.99 1.61s-1.04.52-1.74.52c-.87 0-1.59-.3-2.15-.89-.56-.6-.84-1.41-.84-2.44q0-1.65.84-2.55c.57-.61 1.31-.91 2.23-.91.8 0 1.45.24 1.96.71.29.29.52.69.67 1.22l-1.31.31a1.4 1.4 0 0 0-.49-.81c-.25-.19-.55-.29-.9-.29-.48 0-.88.17-1.18.52-.31.35-.46.92-.46 1.7q0 1.245.45 1.77c.3.35.69.53 1.16.53.36 0 .66-.12.92-.34.25-.22.43-.58.54-1.06m2.07.3 1.3-.13c.07.43.23.75.47.95.23.2.55.3.95.3q.645 0 .96-.27.33-.27.33-.63c0-.15-.05-.29-.14-.4-.09-.1-.25-.2-.47-.28-.16-.05-.51-.15-1.06-.29-.71-.17-1.2-.39-1.49-.65q-.6-.54-.6-1.32c0-.34.1-.65.28-.94.19-.29.47-.52.82-.67.36-.15.78-.23 1.29-.23.82 0 1.44.18 1.85.55.42.36.63.85.66 1.46l-1.33.05c-.06-.34-.18-.59-.37-.73-.18-.15-.46-.23-.83-.23q-.57 0-.9.24c-.13.1-.2.24-.2.41 0 .16.06.29.19.4.17.14.57.29 1.22.44.64.15 1.12.31 1.42.47.31.16.55.39.73.67.17.28.26.63.26 1.04 0 .38-.11.73-.32 1.06s-.5.57-.88.73-.86.24-1.43.24c-.83 0-1.47-.19-1.91-.57s-.71-.94-.8-1.67m12.37 2.12H93.2l-.56-1.49h-2.63l-.55 1.49h-1.4l2.54-6.56h1.41zm-2.42-2.6-.91-2.43-.89 2.43zm3.13-3.96h2.63c.52 0 .9.02 1.16.07.26.04.48.13.69.26.2.14.36.32.5.55.13.23.2.49.2.77 0 .31-.08.59-.25.84-.16.26-.39.45-.67.58.4.12.71.31.92.6.22.28.32.61.32.99q0 .45-.21.87c-.14.28-.32.51-.56.68-.25.16-.54.27-.9.31-.22.02-.75.04-1.59.04h-2.24zm1.33 1.09v1.51h.87c.51 0 .83 0 .96-.02.22-.02.4-.1.53-.23s.2-.3.2-.51-.06-.37-.17-.5c-.11-.12-.28-.2-.5-.23a20 20 0 0 0-1.13-.02zm0 2.6v1.76h1.23c.48 0 .78-.01.91-.04.19-.03.35-.12.48-.26.12-.14.19-.32.19-.56 0-.2-.05-.36-.15-.5a.75.75 0 0 0-.41-.3c-.18-.06-.58-.1-1.18-.1zm11.2 2.87h-1.43l-.57-1.49h-2.63l-.54 1.49h-1.41l2.55-6.56h1.4zm-2.43-2.6-.91-2.43-.88 2.43zM52.18 52.21h-1.25v-4.75c-.46.43-1 .75-1.63.96v-1.15c.33-.11.69-.31 1.07-.61.39-.3.65-.65.79-1.05h1.02zm1.93-1.52 1.22-.14c.02.25.1.44.23.55.12.13.29.18.49.18.26 0 .47-.12.65-.36.19-.24.3-.73.35-1.49-.32.37-.71.55-1.18.55-.52 0-.97-.2-1.34-.59-.37-.4-.56-.92-.56-1.56 0-.66.2-1.2.59-1.61.4-.4.9-.61 1.51-.61.67 0 1.21.26 1.64.78.43.51.64 1.36.64 2.54 0 1.2-.22 2.07-.66 2.6-.45.53-1.02.8-1.74.8-.51 0-.92-.14-1.24-.41-.31-.28-.52-.69-.6-1.23m2.83-2.76c0-.4-.09-.72-.28-.94s-.4-.33-.64-.33-.43.09-.58.27c-.16.19-.23.49-.23.9 0 .42.08.73.25.93.16.2.37.3.62.3.24 0 .45-.1.61-.29.17-.19.25-.47.25-.84m5.44 4.28h-1.26v-4.75q-.69.645-1.62.96v-1.15c.33-.11.68-.31 1.06-.61.39-.3.65-.65.8-1.05h1.02zm6.13-1.16v1.16H64.1c.05-.44.19-.86.43-1.26.24-.39.71-.92 1.41-1.57.57-.53.91-.89 1.04-1.08.18-.26.26-.51.26-.77 0-.28-.07-.49-.22-.65-.15-.15-.36-.22-.63-.22-.26 0-.47.08-.62.23-.15.16-.24.43-.27.79l-1.25-.12c.07-.7.3-1.19.7-1.49.39-.31.88-.46 1.48-.46.64 0 1.15.18 1.52.53s.56.78.56 1.3c0 .3-.06.58-.16.85q-.165.405-.51.84c-.15.2-.42.48-.82.84-.4.37-.65.61-.76.73-.1.12-.19.23-.26.35zm3.67 1.16v-6.56h4.86v1.11h-3.53v1.45h3.28v1.11h-3.28v1.78h3.66v1.11zm6.15 0V45.7h1.33v5.4h3.29v1.11zm5.29-3.24c0-.67.1-1.23.3-1.69.15-.33.35-.63.61-.9.26-.26.54-.46.85-.59.41-.17.88-.26 1.41-.26.97 0 1.74.3 2.33.9.58.6.87 1.44.87 2.51q0 1.59-.87 2.49c-.57.6-1.35.9-2.31.9-.97 0-1.75-.3-2.33-.9-.57-.59-.86-1.41-.86-2.46m1.36-.04c0 .74.18 1.3.52 1.69.34.38.78.57 1.31.57s.96-.19 1.3-.57q.51-.57.51-1.71c0-.76-.16-1.32-.5-1.69-.33-.37-.76-.55-1.31-.55s-.99.18-1.32.56c-.34.37-.51.94-.51 1.7m.4-3.88.62-1.34h1.32l-1.15 1.34zm1.68 0 .63-1.34h1.28l-1.1 1.34zm3.96 7.16v-6.56h2.79q1.05 0 1.53.18c.32.11.57.32.76.62.19.31.29.65.29 1.04 0 .49-.14.9-.43 1.22q-.435.48-1.29.6c.28.17.52.35.7.55.19.2.44.56.75 1.07l.8 1.28h-1.58l-.95-1.43c-.34-.51-.58-.83-.7-.96a1 1 0 0 0-.4-.28c-.14-.04-.37-.07-.67-.07h-.27v2.74zm1.33-3.78h.98c.64 0 1.03-.03 1.19-.09a.68.68 0 0 0 .37-.27c.09-.13.14-.3.14-.5 0-.22-.06-.4-.18-.53-.12-.14-.29-.22-.5-.26-.11-.01-.43-.02-.97-.02h-1.03zm5.29 3.78v-6.56h4.86v1.11h-3.53v1.45h3.28v1.11h-3.28v1.78h3.65v1.11z" style="fill:#fefefe"></path></g></g><!-- source: https://football-logos.cc --></svg>