<svg xmlns="http://www.w3.org/2000/svg" xml:space="preserve" viewBox="1 1 228.75 250"><!-- Source: https://football-logos.cc --><defs data-source="https://football-logos.cc"><clipPath id="a" clipPathUnits="userSpaceOnUse"><path d="M0 600h800V0H0Z"></path></clipPath></defs><g clip-path="url(#a)" transform="matrix(.8632 0 0 -.8632 -229.904 384.957)" data-source="https://football-logos.cc"><path d="M0 0c-39.544 31.524-73.276 69.082-97.297 113.776-23.064 42.855-34.284 87.144-35.203 135.737l26.412-9.784v31.451c70.443 24.609 141.769 24.572 212.175 0v-31.451l26.413 9.784c-.919-48.593-12.139-92.882-35.204-135.737C73.277 69.082 39.544 31.524 0 0" style="fill:#bc9015;fill-opacity:1;fill-rule:nonzero;stroke:none" transform="translate(400 155.189)"></path><path d="M0 0c36.968 29.907 68.494 66.471 90.638 107.634 19.938 37.116 32.262 77.984 33.99 121.097l-26.154-9.675v37.006c-64.853 22.035-132.096 22.035-196.948 0v-37.006l-26.154 9.675c1.729-43.113 14.051-83.981 33.989-121.097C-68.494 66.471-36.969 29.907 0 0" style="fill:#fff;fill-opacity:1;fill-rule:nonzero;stroke:none" transform="translate(400 164.935)"></path><path d="M0 0v-23.396h-9.049v15.34a30.5 30.5 0 0 0-4.231-1.949c-1.361-.479-3.053-.957-5.149-1.398v5.223c3.053.699 5.407 1.545 7.099 2.538C-9.638-2.648-8.35-1.435-7.394 0z" style="fill:#bc9015;fill-opacity:1;fill-rule:nonzero;stroke:none" transform="translate(361.302 415.48)"></path><path d="M0 0c0 1.25-.441 2.207-1.324 2.943-.883.699-1.95 1.03-3.201 1.03-1.177 0-2.17-.294-2.943-.956-.809-.626-1.177-1.582-1.177-2.87s.405-2.244 1.214-2.943c.809-.662 1.803-.993 3.016-.993 1.288 0 2.318.294 3.165.993C-.441-2.17 0-1.214 0 0m-16.443-10.263 8.865.809c.221-.883.625-1.508 1.177-1.876s1.251-.552 2.06-.552c1.398 0 2.538.515 3.348 1.545.588.773 1.03 2.392 1.287 4.856C-.772-6.253-1.839-6.842-2.98-7.21c-1.14-.368-2.428-.552-3.899-.552q-4.303 0-7.284 2.207C-16.149-4.083-17.142-2.244-17.142 0c0 1.508.515 2.906 1.508 4.157 1.03 1.25 2.391 2.207 4.194 2.832 1.765.662 3.972.993 6.658.993 3.2 0 5.775-.404 7.724-1.177 1.95-.809 3.495-2.06 4.672-3.788C8.755 1.324 9.343-.957 9.343-3.789c0-4.156-1.214-7.173-3.678-9.123-2.428-1.913-5.812-2.869-10.116-2.869-2.575 0-4.598.184-6.07.626-1.471.404-2.685 1.03-3.678 1.839s-1.729 1.839-2.244 3.053" style="fill:#bc9015;fill-opacity:1;fill-rule:nonzero;stroke:none" transform="translate(387.861 407.498)"></path><path d="M0 0v-23.396h-9.05v15.34c-1.434-.809-2.87-1.435-4.23-1.949-1.361-.479-3.089-.957-5.15-1.398v5.223c3.053.699 5.408 1.545 7.1 2.538C-9.676-2.648-8.352-1.435-7.395 0z" style="fill:#bc9015;fill-opacity:1;fill-rule:nonzero;stroke:none" transform="translate(421.152 415.48)"></path><path d="M0 0c0-2.943.367-4.929 1.104-5.996.736-1.067 1.765-1.619 3.126-1.619.92 0 1.692.221 2.354.699.699.441 1.178 1.141 1.473 2.134.33.993.476 2.501.476 4.598 0 3.053-.367 5.113-1.066 6.143-.735 1.067-1.802 1.582-3.274 1.582-1.47 0-2.538-.515-3.2-1.582Q0 4.304 0 0m-8.828 0c0 4.377 1.103 7.431 3.273 9.196 2.207 1.729 5.555 2.612 10.08 2.612 2.133 0 3.936-.184 5.297-.588 1.397-.368 2.537-.884 3.421-1.472.846-.625 1.544-1.25 2.06-1.95.515-.662.92-1.434 1.213-2.354.589-1.729.92-3.494.92-5.37q0-6.236-2.979-9.16c-1.95-1.913-5.371-2.869-10.189-2.869-2.686 0-4.893.294-6.549.919-1.655.589-3.053 1.509-4.119 2.686-.773.846-1.362 2.023-1.803 3.494-.404 1.472-.625 3.09-.625 4.856" style="fill:#bc9015;fill-opacity:1;fill-rule:nonzero;stroke:none" transform="translate(439.691 403.672)"></path><path d="M0 0c-14.898 29.796-21.85 59.813-22.402 93.03 64.595-20.673 127.645-20.673 192.239 0-.036-3.531-.073-7.062-.257-10.631z" style="fill:#bc9015;fill-opacity:1;fill-rule:nonzero;stroke:none" transform="translate(326.283 286.805)"></path><path d="M0 0c-18.834 15.045-35.682 31.709-50.212 51.058L85.416 116.94c-3.973-11.735-8.977-23.101-14.862-34.063C53.082 50.248 28.802 22.99 0 0" style="fill:#bc9015;fill-opacity:1;fill-rule:nonzero;stroke:none" transform="translate(400 197.822)"></path><path d="M0 0c-51.314-11.587-105.941-9.822-156.263 5.297 1.177-25.272 7.651-49.697 18.062-72.467z" style="fill:#eb0000;fill-opacity:1;fill-rule:nonzero;stroke:none" transform="translate(468.016 364.128)"></path><path d="M0 0c25.712 21.005 48.041 47.27 63.859 76.734a224 224 0 0 1 7.467 15.229L-38.441 38.625C-26.964 24.426-13.979 11.44 0 0" style="fill:#eb0000;fill-opacity:1;fill-rule:nonzero;stroke:none" transform="translate(400 207.533)"></path><path d="M0 0c3.09 0 5.628 2.539 5.628 5.628S3.09 11.219 0 11.219a5.59 5.59 0 0 1-5.591-5.591C-5.591 2.539-3.09 0 0 0" style="fill:#bc9015;fill-opacity:1;fill-rule:nonzero;stroke:none" transform="translate(327.975 397.97)"></path><path d="m0 0 5.665-11.66 2.612 1.25c2.17 1.066 3.679 1.949 4.451 2.723.772.771 1.251 1.654 1.397 2.684.185.993-.183 2.355-.993 4.083-1.103 2.244-2.464 3.531-4.009 3.789-1.619.258-3.752-.258-6.474-1.582Zm-12.875-.258L2.759 7.32c3.09 1.508 5.702 2.465 7.872 2.869 2.134.368 4.083.405 5.812 0 1.692-.367 3.163-1.066 4.341-2.096 1.177-1.068 2.133-2.281 2.832-3.753 1.141-2.279 1.582-4.267 1.361-5.922-.22-1.655-.846-3.273-1.913-4.855a16 16 0 0 0-3.898-3.973c-2.134-1.509-4.121-2.723-5.997-3.643l-15.67-7.577z" style="fill:#bc9015;fill-opacity:1;fill-rule:nonzero;stroke:none" transform="translate(349.31 280.7)"></path><path d="m0 0 10.999 5.297L26.154-6.328l.074 19.018 10.668 5.187-2.281-27.479-11.367-5.517Z" style="fill:#bc9015;fill-opacity:1;fill-rule:nonzero;stroke:none" transform="translate(367.482 295.56)"></path><path d="m0 0 32.002 15.56 2.539-5.297L23.8 5.04l7.835-16.112-10.521-5.077L13.279-.074 2.574-5.26Z" style="fill:#bc9015;fill-opacity:1;fill-rule:nonzero;stroke:none" transform="translate(406.291 314.32)"></path><path d="m0 0 10.52 5.113 3.936-8.092 7.137 13.463 13.977 6.768-8.497-14.088 19.423-7.026-12.949-6.291L22.07-4.855l-3.677-6.217 2.537-5.224-10.52-5.076z" style="fill:#bc9015;fill-opacity:1;fill-rule:nonzero;stroke:none" transform="translate(443.076 332.198)"></path><path d="M0 0c3.09 0 5.629 2.539 5.629 5.628S3.09 11.219 0 11.219s-5.628-2.501-5.628-5.591C-5.628 2.539-3.09 0 0 0" style="fill:#bc9015;fill-opacity:1;fill-rule:nonzero;stroke:none" transform="translate(472.025 397.97)"></path></g><!-- source: https://football-logos.cc --></svg>