<svg xmlns="http://www.w3.org/2000/svg" viewBox="15.82 107.16 563.63 627.56"><!-- Source: https://football-logos.cc --><path d="m357.662 258.42 20.912-68.834 50.352 15.268-3.55 12.224-36.602-11.014-4.384 14.703 33.386 9.986-3.503 11.99-33.339-10.315-5.503 17.834 38.023 11.518-3.737 12.411zM321.95 253.818l7.353-58.68-21.75-2.386 1.736-12.496 57.798 6.675-1.315 12.777-21.793-2.75-6.885 58.585zM233.145 255.518l-4.79-71.503 21.745-1.323 17.022 55.405 8.72-57.352 21.652-1.655 5.094 71.808-14.022.828-4.056-60.186-9.272 61.157-14.644 1.003-17.735-59.553 4.285 60.614zM179.487 237.758l4.924 18.41 14.35-4.093c6.967-1.987 13.852-4.484 11.27-13.425-2.655-9.188-9.573-6.858-16.715-4.827zm-7.284-27.233 3.857 15.634 11.234-2.99c6.314-1.681 16.552-3.39 13.749-12-2.708-8.32-9.024-5.873-15.443-4.18zm-17.424-7.974 29.987-8.374c13.575-3.79 26.213-2.853 29.553 11.41 1.633 6.973.287 12.317-4.9 16.576 7.937.406 14.275 5.41 15.735 13.994 2.428 14.276-3.461 22.164-18.318 26.361l-33.413 9.441zM368.484 642.732c-2.096-6.307-2.445-12.285-1.323-17.565 1.726-8.124 6.582-16.277 11.756-22.73 6.95-8.668 8.215-15.972 6.383-21.189-1.979-5.632-7.063-8.967-13.361-6.8-8.353 2.875-7.98 9.692-5.426 17.11l-13.58 4.862c-5.518-16.03-.921-29.123 16.02-34.1 13.607-3.998 25.889.177 30.749 14.298 4.105 11.928-.135 19.874-7.42 29.667-3.146 4.227-10.467 13.917-10.632 18.125l31.017-11.076 4.493 12.153zM331.028 647.75l-5.654-51.56-17.653 1.973-1.108-10.078c4.827-.526 10.757-1.51 14.574-4.748 2.724-2.311 4.414-5.941 4.433-10.668l12.027-1.244 8.532 74.547zM281.73 616.894c-5.58 3.718-8.011 4.926-14.607 4.11-14.633-1.812-22.036-13.503-20.145-27.241 2.14-15.541 13.715-25.256 29.296-23.152 20.712 2.796 23.827 23.01 20.926 41.47-3.082 19.611-10.887 39-33.782 35.561-11.975-1.798-20.21-9.985-19.41-22.698l14.394 2.17c.335 5.272 3.281 8.027 8.388 8.716 9.87 1.33 13.344-10.773 14.94-18.936m1.949-18.025c.968-7.471-1-15.058-9.11-16.11-7.958-1.033-11.629 5.333-12.546 12.401-.952 7.34.531 13.137 8.321 14.148 7.653.993 12.397-3.207 13.335-10.44M203.415 629.462l17.697-48.807-16.824-5.803 3.43-9.65c4.995 1.66 9.913 3.34 14.604 2.41 3.475-.689 7.19-3.834 9.299-8.064l11.424 4.197-25.329 70.96z" style="fill:#fff;fill-rule:evenodd" data-source="https://football-logos.cc"></path><path d="M260.606 426.085c-20.354-23.208-36.601-53.766-48.221-92.604-10.62 12.56-18.558 27.46-22.933 43.816 1.184.061 2.166.597 2.771 1.61 16.884 28.3 36.398 52.564 59.753 71.292a219 219 0 0 1 8.63-24.114M250.01 457.297c-25.053-20.078-45.332-44.523-62.315-72.376a114 114 0 0 0-2.085 21.76c0 12.964 2.174 25.42 6.179 37.023 1.51-.091 2.704.403 3.855 1.719 14.784 16.901 32.257 27.452 50.534 33.693.95-7.304 2.056-14.687 3.833-21.819M245.297 485.556c-17.579-4.786-33.393-15.157-47.942-28.552 10.278 20.73 27.316 38.15 47.51 49.31-.045-6.851-.198-14.135.432-20.759M299.7 421.328l-.321 98.79c16.134-.046 31.477-3.46 45.36-9.577-.69-.688-1.089-1.458-1.06-2.398.778-25.742-2.853-52.163-15.292-81.658-7.876-4.1-19.967-6.042-28.688-5.157M402.11 455.383c-14.2 13.162-30.896 26.044-52.314 31.019.569 7.113.796 14.26.7 21.406 21.887-11.157 40.89-30.337 51.613-52.425M349.15 479.625c18.4-4.937 37.514-16.254 52.688-34.483 1.283-1.54 3.109-1.429 4.96-1.128 4.241-11.732 6.156-27.098 6.156-37.333s-.838-15.508-2.257-22.674c-17.28 29.075-39 54.932-64.882 74.921a211 211 0 0 1 3.334 20.697M344.114 451.608c23.912-19.108 44.81-44.406 61.894-72.888.576-.96 2.026-1.68 3.127-1.785-4.424-16.435-12.986-31.206-23.712-43.792-11.814 39.55-28.423 70.522-49.277 93.897a192 192 0 0 1 7.967 24.568M263.974 419.288a194.3 194.3 0 0 1 37.562-4.4c11.232-.216 21.865 1.236 31.712 5.803 6.467-7.59 12.267-15.688 17.49-24.224-16.113-8.844-33.166-12.34-50.981-11.814-18.568.548-35.907 4.784-52.541 11.521a213 213 0 0 0 16.758 23.114" style="fill:#c89231;fill-rule:evenodd"></path><path d="M243.546 390.117c18.658-8.03 37.82-12.22 57.431-12.402 17.366-.16 35.072 3.392 53.395 12.58 4.57-8.063 8.667-16.486 12.364-25.213-22.03-15.695-44.058-22.314-66.086-22.57-25.67-.298-48.887 7.438-70.283 21.308 3.914 9.186 8.303 17.95 13.179 26.297" style="fill:#c89231;fill-rule:evenodd"></path><path d="M227.686 357.27c49.671-30.19 99.766-27.723 141.795 1.091 3.72-9.446 7.007-19.222 9.946-29.261a4.8 4.8 0 0 1 .954-1.495c-20.61-21.195-49.434-34.362-81.333-34.362-32.013 0-60.929 13.261-81.554 34.589.314.223.599.503.823 1.079q4.029 14.774 9.368 28.359M251.596 505.642c.072 1.467-.38 2.59-1.198 3.545a112.8 112.8 0 0 0 42.595 10.773l.275-98.178-25.266 3.328c-10.74 25.746-17.783 52.291-16.406 80.531" style="fill:#c89231;fill-rule:evenodd"></path><path d="M292.993 519.96a112.8 112.8 0 0 1-42.595-10.773c.818-.955 1.27-2.079 1.198-3.546-1.377-28.24 5.665-54.785 16.406-80.53l25.266-3.329zm-32.387-93.875a219 219 0 0 0-8.63 24.114c-23.355-18.728-42.869-42.993-59.753-71.291-.605-1.014-1.587-1.55-2.77-1.611 4.374-16.357 12.313-31.256 22.932-43.816 11.62 38.838 27.867 69.396 48.221 92.604m38.013 118.168c75.388 0 136.502-62.145 136.502-137.533S374.007 270.22 298.619 270.22c-75.387 0-136.5 61.113-136.5 136.501s61.113 137.532 136.5 137.532m2.917-129.365a194.3 194.3 0 0 0-37.562 4.4 213 213 0 0 1-16.758-23.114c16.635-6.737 33.973-10.973 52.541-11.521 17.815-.526 34.868 2.97 50.98 11.814-5.222 8.536-11.022 16.634-17.489 24.224-9.847-4.567-20.48-6.019-31.712-5.803m-.559-37.173c-19.61.181-38.773 4.371-57.431 12.402-4.876-8.347-9.265-17.11-13.179-26.297 21.396-13.87 44.612-21.606 70.283-21.308 22.028.256 44.057 6.875 66.086 22.57-3.697 8.727-7.794 17.15-12.364 25.213-18.323-9.189-36.03-12.74-53.395-12.58m68.504-19.354c-42.029-28.814-92.124-31.28-141.795-1.091-3.562-9.057-6.682-18.508-9.37-28.359-.223-.576-.508-.856-.822-1.08 20.625-21.327 49.54-34.587 81.554-34.587 31.899 0 60.723 13.166 81.333 34.361a4.8 4.8 0 0 0-.954 1.495c-2.939 10.04-6.226 19.815-9.946 29.261m-119.47 98.936c-1.776 7.132-2.884 14.515-3.833 21.82-18.276-6.242-35.75-16.793-50.534-33.694-1.151-1.316-2.345-1.81-3.855-1.72-4.005-11.602-6.18-24.058-6.18-37.022 0-7.442.717-14.717 2.086-21.76 16.983 27.853 37.262 52.298 62.316 72.376m-4.714 28.258c-.63 6.624-.477 13.908-.431 20.76-20.194-11.161-37.233-28.581-47.511-49.31 14.549 13.394 30.363 23.765 47.942 28.55m54.082 34.563.32-98.79c8.72-.885 20.812 1.056 28.688 5.157 12.439 29.495 16.07 55.916 15.291 81.658-.028.94.37 1.71 1.062 2.398-13.884 6.117-29.227 9.531-45.361 9.577m106.63-141.398c-17.085 28.482-37.983 53.78-61.895 72.888a192 192 0 0 0-7.967-24.568c20.853-23.375 37.462-54.347 49.276-93.897 10.726 12.586 19.288 27.357 23.712 43.792-1.101.105-2.551.826-3.127 1.785m-4.171 66.422c-15.174 18.229-34.288 29.546-52.688 34.483a211 211 0 0 0-3.335-20.697c25.882-19.988 47.601-45.846 64.882-74.921 1.42 7.166 2.257 12.44 2.257 22.674s-1.915 25.6-6.155 37.333c-1.852-.3-3.678-.413-4.961 1.128m-51.342 62.666c.096-7.146-.131-14.293-.7-21.406 21.418-4.975 38.113-17.857 52.313-31.019-10.723 22.088-29.726 41.268-51.613 52.425" style="fill:#fff;fill-rule:evenodd"></path><path d="M299.982 734.727c8.615-23.92 37.685-39.748 63.093-48.47 19.491-6.69 40.835-10.978 70.575-14.362 25.057-2.85 67.591-15.194 99.113-48.638 32.008-33.961 41.577-67.447 46.688-100.22-30.601-45.012-53.589-94.189-53.063-154.408.416-47.628 15.472-91.545 51-129.562l-71.532-128.904c-58.91 28.857-124.382 45.343-200.906 44.812-74.535-.517-149.447-18.404-210.282-47.812l-74.53 130.031c27.665 36.548 49.435 77.833 49.406 128.063-.039 66.178-22.592 116.887-53.72 158.719 6.761 37.621 21.096 70.573 43.876 99.093 30.895 38.68 65.065 46.633 110.25 51.187 32.72 3.297 100.013 20.712 130.032 60.47m-.19-5.813c9.453-21.642 31.298-36.315 59.955-47.156 19.461-6.572 40.536-10.707 63.13-13.5 55.173-6.823 99.206-29.763 127.087-74.814 10.46-16.9 19.247-38.063 24.095-69.374-32.292-48.26-52.794-98.91-51.845-153.565.917-52.812 17.556-97.403 49.313-133.406l-69.375-121.218c-66.001 31.457-131.6 46.303-196.782 44.25-74.23-2.337-143.696-16.212-207-47.061l-69.843 124.5c29.996 40.131 47.794 86.355 47.737 127.669-.097 70.783-27.094 119.722-55.237 159.863 5.57 33.185 17.483 62.847 37.453 88.032 19.518 22.873 43.521 49.03 98.7 54.525 44.474 4.429 109.505 17.899 142.611 61.255" style="fill:#c79130;fill-rule:evenodd" data-source="https://football-logos.cc"></path><path d="M162.118 406.72c0-75.388 61.114-136.501 136.501-136.501 44.017 0 83.167 20.834 108.129 53.178l164.411-85.88.368-.418-69.375-121.218c-66.001 31.457-131.6 46.304-196.782 44.25-74.23-2.337-143.696-16.212-207-47.061l-69.843 124.5c29.996 40.131 47.794 86.355 47.737 127.669-.097 70.574-26.935 119.433-54.988 159.507l147.13-76.853a137.4 137.4 0 0 1-6.288-41.173m11.305-134.761-18.644-69.408 29.987-8.374c13.575-3.79 26.213-2.853 29.553 11.41 1.633 6.973.287 12.317-4.9 16.576 7.937.406 14.275 5.41 15.735 13.994 2.428 14.276-3.461 22.164-18.318 26.361zm59.722-16.44-4.79-71.504 21.744-1.323 17.023 55.405 8.72-57.352 21.652-1.655 5.094 71.808-14.022.828-4.056-60.186-9.272 61.157-14.644 1.003-17.735-59.553 4.285 60.614zm88.805-1.701 7.353-58.68-21.75-2.386 1.736-12.496 57.798 6.675-1.315 12.777-21.793-2.75-6.885 58.585zm35.712 4.601 20.912-68.833 50.352 15.268-3.55 12.224-36.602-11.014-4.384 14.703 33.386 9.986-3.503 11.99-33.339-10.315-5.503 17.834 38.023 11.518-3.737 12.411z" style="fill:#ee1a24;fill-rule:evenodd"></path><path d="m184.411 256.169 14.35-4.094c6.967-1.987 13.852-4.484 11.27-13.424-2.655-9.189-9.573-6.86-16.715-4.828l-13.83 3.935zM176.06 226.16l11.234-2.991c6.314-1.681 16.553-3.39 13.749-12-2.708-8.32-9.024-5.873-15.443-4.18l-13.396 3.536z" style="fill:#ee1a24;fill-rule:evenodd"></path><path d="m168.407 447.893-147.13 76.853-.25.356c5.57 33.185 17.482 62.847 37.453 88.032 19.517 22.873 43.521 49.03 98.7 54.525 44.474 4.429 109.505 17.899 142.611 61.255 9.454-21.642 31.299-36.315 59.956-47.156 19.461-6.572 40.536-10.707 63.13-13.5 55.173-6.823 99.206-29.763 127.087-74.814 10.46-16.9 19.247-38.063 24.095-69.374-32.292-48.26-52.794-98.91-51.845-153.565.914-52.607 17.427-97.058 48.945-132.987l-164.411 85.879c17.79 23.052 28.373 51.952 28.373 83.323 0 75.388-61.114 137.532-136.502 137.532-61.074 0-112.78-40.787-130.212-96.359m35.007 181.569 17.697-48.807-16.823-5.803 3.43-9.65c4.996 1.66 9.913 3.34 14.604 2.41 3.475-.69 7.19-3.834 9.299-8.064l11.424 4.197-25.329 70.96zm63.71-8.459c-14.634-1.812-22.037-13.502-20.146-27.24 2.14-15.542 13.715-25.256 29.296-23.153 20.712 2.797 23.827 23.01 20.926 41.47-3.082 19.612-10.887 39.001-33.782 35.562-11.975-1.798-20.21-9.985-19.41-22.698l14.394 2.17c.335 5.272 3.281 8.027 8.388 8.716 9.87 1.33 13.344-10.773 14.94-18.936-5.58 3.718-8.011 4.926-14.607 4.11m63.904 26.748-5.654-51.56-17.653 1.972-1.108-10.078c4.827-.526 10.757-1.51 14.574-4.748 2.724-2.311 4.414-5.941 4.433-10.668l12.027-1.245 8.532 74.547zm37.456-5.019c-2.096-6.307-2.445-12.285-1.323-17.565 1.726-8.124 6.583-16.277 11.756-22.73 6.95-8.668 8.215-15.972 6.383-21.189-1.979-5.632-7.063-8.967-13.361-6.8-8.353 2.875-7.98 9.692-5.426 17.11l-13.58 4.862c-5.518-16.03-.921-29.123 16.02-34.1 13.607-3.998 25.889.177 30.749 14.298 4.105 11.928-.135 19.874-7.42 29.667-3.146 4.227-10.467 13.917-10.632 18.125l31.017-11.076 4.493 12.153z" style="fill:#090306;fill-rule:evenodd"></path><path d="M274.57 582.759c-7.959-1.033-11.63 5.333-12.547 12.401-.952 7.34.531 13.137 8.321 14.148 7.653.993 12.397-3.207 13.335-10.44.968-7.47-1-15.057-9.11-16.11" style="fill:#090306;fill-rule:evenodd" data-source="https://football-logos.cc"></path><!-- source: https://football-logos.cc --></svg>