<svg xmlns="http://www.w3.org/2000/svg" xml:space="preserve" id="Layer_1" x="0" y="0" version="1.1" viewBox="0.84 0.84 152.98 250.33"><!-- Source: https://football-logos.cc --><style id="style2" type="text/css" data-source="https://football-logos.cc">.st1{fill:#c92027}.st2{fill:#0f2c4c}.st3{fill:#fff}</style><g id="g141" transform="matrix(.56632 0 0 .56632 .986 .986)" data-source="https://football-logos.cc"><path id="path4" d="M9.2.4h260v303.8c0 12.7-1.9 25.3-5.3 37.4-16.7 58.3-67.8 99.5-129 99.5h-.2c-61.2 0-112.4-41.2-129-99.5C2.2 329.4.4 316.8.4 304.2V.4Z" style="clip-rule:evenodd;fill:#fff;fill-rule:evenodd;stroke:#0f2c4c;stroke-width:.75;stroke-miterlimit:10"></path><path id="path6" d="M9.1 126.4h59.5V413C33.4 390.5 9.1 349.4 9.1 296.4Z" class="st1" style="fill:#c92027"></path><path id="polygon8" d="M197.7 191.6v125.8H71.9V191.6z" class="st1" style="fill:#c92027"></path><path id="path10" d="M71.9 126.4h61.2v61.8H71.9Zm61.2 194.4v111.5c-21.9-.3-42.9-6.3-61.2-17.2v-94.3z" class="st2" style="fill:#0f2c4c"></path><path id="path12" d="M136.5 126.4h61.2v61.8h-61.2zm61.2 194.4v94.3c-18.3 10.9-39.3 16.9-61.2 17.2V320.8Z" class="st1" style="fill:#c92027"></path><path id="path14" d="M201.1 126.4h59.5v170c0 53.1-24.3 94.1-59.5 116.7z" class="st2" style="fill:#0f2c4c"></path><path id="polygon16" d="M133.1 9.2v59.5H71.9V9.2z" class="st2" style="fill:#0f2c4c"></path><path id="polygon18" d="M197.7 9.2v59.5h-61.2V9.2z" class="st1" style="fill:#c92027"></path><path id="polygon20" d="M68.5 9.2v59.5H9.1V9.2z" class="st1" style="fill:#c92027"></path><path id="polygon22" d="M260.6 9.2v59.5h-59.5V9.2z" class="st2" style="fill:#0f2c4c"></path><g id="g26"><path id="path24" d="M93.8 146.7c0-.2.1-.4.2-.5s.3-.2.5-.2h15.6c.2 0 .4.1.6.2.1.1.2.3.2.5v3.9c0 .2-.1.3-.2.5s-.3.2-.6.2h-9.9v4.8h7.3c.2 0 .4.1.5.2s.2.3.2.5v3.7c0 .2-.1.3-.2.5s-.3.2-.5.2h-7.4v7.1c0 .4-.3.7-.8.7h-5c-.4-.1-.6-.3-.6-.7v-21.6z" class="st3" style="fill:#fff"></path></g><g id="g30"><path id="path28" d="M176.4 147.9c.2.1.3.2.4.4s.1.4-.1.6l-2.8 3.7c-.1.2-.3.3-.4.3s-.3 0-.5-.1q-.75-.6-1.8-.9c-.6-.2-1.3-.3-2-.3-.9 0-1.7.2-2.5.5s-1.4.8-1.9 1.3c-.5.6-1 1.2-1.3 1.9s-.5 1.5-.5 2.4c0 .8.1 1.6.5 2.4.3.7.7 1.4 1.3 1.9.5.6 1.2 1 1.9 1.3.8.3 1.6.5 2.5.5q1.05 0 2.1-.3c.7-.2 1.2-.5 1.8-.9.2-.1.4-.2.5-.1.1 0 .3.1.4.3l2.8 3.8q.15.3 0 .6c-.1.2-.2.3-.4.4q-1.5.9-3.3 1.5c-1.2.4-2.4.5-3.7.5-1.2 0-2.3-.1-3.3-.4q-1.65-.45-3-1.2c-.9-.5-1.8-1.1-2.5-1.8-.8-.7-1.4-1.5-2-2.4-.5-.9-1-1.8-1.3-2.8s-.4-2-.4-3.1.1-2.1.4-3.1.7-1.9 1.3-2.8c.5-.9 1.2-1.7 2-2.4s1.6-1.3 2.5-1.8q1.35-.75 3-1.2c1.1-.3 2.2-.4 3.3-.4 1.3 0 2.5.2 3.7.5 1.2 0 2.3.5 3.3 1.2" class="st3" style="fill:#fff"></path></g><g id="g36"><path id="path32" d="M93.6 371v-19l-2.6 1.9-1.8-2.3 4.9-3.5h2.6V371Z" class="st3" style="fill:#fff"></path><path id="path34" d="M116.6 354.9c0 1.2-.4 2.5-.9 3.6v.1l-7.9 12.5h-3.6l5.6-8.8c-.3.1-.6.1-.9.1-4.3 0-7.9-3.3-7.9-7.4s3.6-7.5 7.9-7.5c4.2-.1 7.7 3.3 7.7 7.4m-3 0c0-2.5-2.2-4.6-4.8-4.6-2.7 0-4.8 2.1-4.8 4.6s2.2 4.6 4.8 4.6 4.8-2.1 4.8-4.6" class="st3" style="fill:#fff"></path></g><g id="g42"><path id="path38" d="M164.2 365.1h-11.4V363l11.3-14.9h3.1v14.2h4.2v2.8h-4.2v6h-3.1v-6zm0-12.2-7.1 9.4h7.1z" class="st3" style="fill:#fff"></path><path id="path40" d="M176.3 371v-19l-2.6 1.9-1.8-2.3 4.9-3.5h2.6V371Z" class="st3" style="fill:#fff"></path></g><path id="path44" d="M180.5 301.1h-30.4s-.1-9.9-.1-14.9c.1-11.2-5.4-19-15.4-19h-.1c-10 0-15.4 7.9-15.4 19 0 4.9-.1 14.9-.1 14.9H88.8v-63.5h21v12c0 4 3.2 6 6.4 6 3.1 0 6.3-1.9 6.3-5.8v-28.2l12.2-12.4 12.2 12.4v28.2c0 3.9 3.1 5.9 6.3 5.9s6.3-2 6.3-5.9v-12.2h21z" style="clip-rule:evenodd;fill:#fff;fill-rule:evenodd"></path><g id="g66"><g id="g62"><path id="path46" d="M19.2 82.7c0-.3.1-.5.2-.7q.3-.3.6-.3h20.6c.3 0 .6.1.7.3.2.2.2.4.2.8v5.3c0 .2-.1.5-.3.7s-.4.3-.8.3H27.5v6.7h9.7c.3 0 .5.1.7.2.2.2.3.4.3.7v5.1c0 .2-.1.5-.2.7-.2.2-.4.3-.7.3h-9.7v9.8c0 .6-.3.9-1 .9H20c-.5-.1-.8-.4-.8-.9z" class="st2" style="fill:#0f2c4c"></path><path id="path48" d="M46.5 82.7c0-.3.1-.5.2-.7.2-.2.4-.3.7-.3h21.3c.3 0 .6.1.7.3.2.2.3.4.3.8v5.3c0 .2-.1.5-.3.7s-.4.3-.8.3H54.8v5.3h10.8c.3 0 .5.1.7.2q.3.15.3.6v4.6c0 .2-.1.4-.2.6-.2.2-.4.3-.7.3H54.8v5.5h14.4c.6 0 1 .3 1 1v5.4c0 .1-.1.3-.2.4q-.15.6-.9.6H47.5c-.3 0-.5-.1-.7-.2s-.3-.4-.3-.7z" class="st2" style="fill:#0f2c4c"></path><path id="path50" d="M75.1 82.7c0-.2.1-.5.3-.7s.4-.3.7-.3h6.4c.2 0 .4.1.7.3.2.2.3.4.3.7v10.2h10.7V82.7c0-.3.1-.5.3-.7s.4-.3.7-.3h6.3c.3 0 .5.1.8.2.2.1.3.4.3.7v30.1c0 .3-.1.6-.3.7-.2.2-.4.2-.7.2H95c-.3 0-.5-.1-.7-.2-.2-.2-.3-.4-.3-.7v-12.2H83.4v12.2c0 .3-.1.5-.3.7s-.5.2-.8.2H76c-.6 0-.9-.3-.9-.8z" class="st2" style="fill:#0f2c4c"></path><path id="path52" d="M108.1 82.7c0-.3.1-.5.2-.7.2-.2.4-.3.7-.3h21.3c.3 0 .6.1.7.3.2.2.3.4.3.8v5.3c0 .2-.1.5-.3.7s-.4.3-.8.3h-13.9v5.3h10.8c.3 0 .5.1.7.2q.3.15.3.6v4.6c0 .2-.1.4-.2.6-.2.2-.4.3-.7.3h-10.8v5.5h14.4c.6 0 1 .3 1 1v5.4c0 .1-.1.3-.2.4q-.15.6-.9.6H109c-.3 0-.5-.1-.7-.2s-.3-.4-.3-.7v-30zm9.2-7.2c.1-.3.2-.4.4-.5s.5-.2.7-.2h5.5c.2 0 .4 0 .5.1s.2.1.2.2v.3c0 .1-.1.3-.2.4l-2.1 3.6c-.2.2-.3.4-.5.5s-.4.2-.7.2h-4.7c-.2 0-.4 0-.4-.1-.1-.1-.1-.2-.1-.3s0-.3.1-.4c0-.1.1-.3.1-.4z" class="st2" style="fill:#0f2c4c"></path><path id="path54" d="M136.6 82.7c0-.3.1-.5.2-.7.2-.2.4-.3.7-.3h13.9c1.5 0 2.9.3 4.1.8 1.3.6 2.4 1.3 3.4 2.2s1.7 2.1 2.3 3.3c.6 1.3.8 2.6.8 4.1 0 1-.1 1.9-.4 2.8s-.6 1.7-1.1 2.5-1 1.5-1.7 2.1-1.4 1.2-2.1 1.6l5.5 10.4c.1.2.2.4.4.7s.2.5.2.7-.1.4-.2.5c-.2.1-.4.2-.6.2h-7.4c-.2 0-.5-.1-.7-.2s-.3-.3-.4-.6l-5.2-9.8h-3.5v9.7c0 .6-.3.9-1 .9h-6.4c-.3 0-.5-.1-.7-.2s-.3-.4-.3-.7v-30zm16.8 9.6c0-.4-.1-.9-.2-1.3-.2-.4-.4-.8-.7-1.2s-.6-.7-1-.9-.8-.4-1.3-.5c-.4 0-.8-.1-1.1-.1h-4.2v7.9h4.7c.2 0 .4 0 .7-.1.5-.1 1-.2 1.4-.4s.7-.5 1-.9.5-.7.6-1.2c0-.4.1-.9.1-1.3" class="st2" style="fill:#0f2c4c"></path><path id="path56" d="M176.4 113.2c-.2-.3-.3-.5-.4-.8s-.2-.6-.4-.8l-11-28.9v-.4c0-.4.3-.6.8-.6h6.9c.5 0 .9.3 1.1.8l6.6 19.6c.6-1.6 1.2-3.3 1.7-4.9s1.1-3.3 1.6-4.9 1.1-3.3 1.6-4.9 1.1-3.3 1.7-4.9c.2-.5.6-.8 1.2-.8h6.8c.3 0 .6.1.7.2s.2.3.2.5v.3l-11.1 28.9c-.1.2-.2.4-.3.7-.1.2-.2.5-.3.7s-.3.4-.5.5-.4.2-.6.2h-5.3c-.6 0-.9-.2-1-.5" class="st2" style="fill:#0f2c4c"></path><path id="path58" d="M201.8 82.6c0-.1.1-.2.1-.3l.3-.3c.1-.1.2-.2.4-.2.1 0 .3-.1.4-.1h5.5c.2 0 .5.1.6.2l.4.4.5 1.2 11.3 29.1c.1.3.1.5-.1.7s-.4.3-.8.3h-6.2c-.3 0-.6-.1-.8-.2s-.3-.3-.4-.6c-.3-.7-.6-1.5-.8-2.2-.3-.7-.5-1.5-.8-2.2H200c-.3.7-.5 1.5-.8 2.2s-.6 1.5-.8 2.2c-.2.5-.6.8-1.1.8H191c-.3 0-.5-.1-.7-.2s-.2-.4-.1-.6zm3.9 9.2c-.3.7-.6 1.5-.8 2.4-.3.8-.6 1.7-.8 2.6-.3.9-.6 1.7-.8 2.5-.3.8-.6 1.6-.8 2.4h6.6z" class="st2" style="fill:#0f2c4c"></path><path id="path60" d="M224.8 82.7c0-.3.1-.5.2-.7.2-.2.4-.3.7-.3h13.9c1.5 0 2.9.3 4.1.8 1.3.6 2.4 1.3 3.4 2.2s1.7 2.1 2.3 3.3c.6 1.3.8 2.6.8 4.1 0 1-.1 1.9-.4 2.8s-.6 1.7-1.1 2.5-1 1.5-1.7 2.1-1.4 1.2-2.1 1.6l5.5 10.4c.1.2.2.4.4.7s.2.5.2.7-.1.4-.2.5c-.2.1-.4.2-.6.2h-7.4c-.2 0-.5-.1-.7-.2s-.3-.3-.4-.6l-5.2-9.8H233v9.7c0 .6-.3.9-1 .9h-6.4c-.3 0-.5-.1-.7-.2s-.3-.4-.3-.7v-30zm16.8 9.6c0-.4-.1-.9-.2-1.3-.2-.4-.4-.8-.7-1.2s-.6-.7-1-.9-.8-.4-1.3-.5c-.4 0-.8-.1-1.1-.1h-4.2v7.9h4.7c.2 0 .4 0 .7-.1.5-.1 1-.2 1.4-.4s.7-.5 1-.9.5-.7.6-1.2c.1-.4.1-.9.1-1.3" class="st2" style="fill:#0f2c4c"></path></g><path id="path64" d="M204.1 75.5c.1-.3.2-.4.4-.5s.5-.2.7-.2h5.5c.2 0 .4 0 .5.1s.2.1.2.2v.3c0 .1-.1.3-.2.4l-2.1 3.6c-.2.2-.3.4-.5.5s-.4.2-.7.2h-4.7c-.2 0-.4 0-.4-.1-.1-.1-.1-.2-.1-.3s0-.3.1-.4c0-.1.1-.3.1-.4z" class="st2" style="fill:#0f2c4c"></path></g></g><!-- source: https://football-logos.cc --></svg>