<svg xmlns="http://www.w3.org/2000/svg" xml:space="preserve" overflow="visible" viewBox="0 0 167.64 172.6"><!-- Source: https://football-logos.cc --><path fill="#F19118" fill-rule="evenodd" d="M.072 34.175h23.854L38.083 6.811l26.751.83C70.193 2.016 77.363-.021 83.826 0c6.462.021 13.257 1.759 19.352 7.548l26.666-.737 14.131 27.365h23.592c.295 9.345-.133 16.522-4.85 24.352 1.145 5.513.979 12.458-2.46 19.978-.407 6.9-1.673 21.164-9.32 25.119-1.198 5.288-3.144 12.902-5.487 20.326-2.656 8.415-5.894 16.621-10.408 21.558-7.254 7.931-20.44 11.701-31.828 16.657-5.856 2.551-10.119 5.539-13.397 7.689-1.282.842-2.415 1.556-3.433 2.063-1.01.505-1.727.682-2.424.683-.791.001-1.557-.11-2.701-.681-1.018-.508-2.15-1.222-3.433-2.063-3.278-2.15-7.542-5.141-13.4-7.691-11.387-4.956-24.574-8.727-31.827-16.657-4.516-4.937-7.753-13.143-10.409-21.558-2.343-7.424-4.289-15.038-5.487-20.326-7.647-3.955-8.913-18.218-9.32-25.119-3.439-7.519-3.604-14.464-2.46-19.978C.205 50.698-.223 43.521.072 34.175" clip-rule="evenodd" data-source="https://football-logos.cc"></path><path fill="#FAE10F" fill-rule="evenodd" d="m9.964 78.178.01.174c.359 6.087 1.52 18.92 7.385 22.655 2.693-2.288 5.461-4.478 8.158-6.758 2.238-1.893 4.57-3.962 6.342-6.309 2.399-3.175 3.998-6.378 5.006-9.763zM7.52 58.789l-.055.266c-1.158 5.581-.532 11.259 1.502 16.526H37.52c.537-2.588.777-5.299.805-8.195a45.8 45.8 0 0 0-.736-8.596zM26.296 36.772H2.606c-.106 7.016.44 13.076 3.965 19.42h30.468c-1.74-7.18-5.236-13.961-10.452-19.131zM137.658 36.772H29.896c4.888 5.436 8.172 12.253 9.81 19.419h88.141c1.639-7.166 4.924-13.983 9.811-19.419M130.688 78.178c1.009 3.385 2.607 6.587 5.007 9.763 1.772 2.347 4.104 4.416 6.343 6.309 2.709 2.29 5.488 4.489 8.193 6.788 5.907-3.695 7.074-16.582 7.434-22.686l.011-.174z" clip-rule="evenodd"></path><path fill="#153E96" fill-rule="evenodd" d="m109.299 156.854 1.243-.494c7.4-2.943 17.121-6.635 22.582-12.605 4.665-5.1 7.79-14.063 9.849-20.586a253 253 0 0 0 5.432-20.118l.029-.132c-2.666-2.262-5.404-4.429-8.074-6.686-2.396-2.025-4.841-4.215-6.737-6.727-5.126-6.784-6.907-13.753-6.989-22.095a48.4 48.4 0 0 1 .695-8.622H109.3z" clip-rule="evenodd"></path><path fill="#FAE10F" fill-rule="evenodd" d="M61.441 158.098c1.347.547 2.688 1.105 4.021 1.686 2.757 1.201 5.402 2.6 7.974 4.154 1.979 1.196 3.882 2.479 5.813 3.746 1.015.666 2.081 1.368 3.167 1.91.546.272.935.408 1.54.407.417 0 .904-.228 1.266-.407 1.088-.543 2.153-1.246 3.168-1.912 1.931-1.266 3.834-2.549 5.813-3.745 2.572-1.555 5.217-2.953 7.974-4.153a190 190 0 0 1 4.524-1.89V60.63h-45.26z" clip-rule="evenodd"></path><path fill="#153E96" fill-rule="evenodd" d="M58.844 58.789H40.226c.491 2.86.724 5.755.696 8.622-.082 8.342-1.864 15.311-6.989 22.095-1.897 2.512-4.342 4.701-6.738 6.727-2.646 2.236-5.359 4.386-8.003 6.627l.043.19a253 253 0 0 0 5.431 20.118c2.059 6.523 5.184 15.486 9.849 20.586 5.461 5.971 15.182 9.662 22.582 12.605l1.747.695z" clip-rule="evenodd"></path><path fill="#FAE10F" fill-rule="evenodd" d="M129.967 58.789a45.6 45.6 0 0 0-.737 8.596c.028 2.896.269 5.607.806 8.195h28.637c2.035-5.267 2.66-10.945 1.502-16.526l-.055-.266zM165.033 36.772h-23.775l-.291.288c-5.215 5.17-8.711 11.952-10.451 19.131h30.553c3.525-6.343 4.071-12.403 3.964-19.419" clip-rule="evenodd" data-source="https://football-logos.cc"></path><path fill="#F19118" fill-rule="evenodd" d="M79.962 72.28v5.794l7.473.055c2.702-.152 5.016-1.125 4.997-2.72-.03-2.602-3.587-3.129-5.523-3.129zm0 9.664v6.876h8.649c1.938 0 5.305-.773 5.401-3.374.084-2.257-2.69-3.6-5.753-3.578l-1.262.009-.103.003zm-7.17 6.876V72.28h-1.599c-.874 0-1.596-.742-1.596-1.64 0-.902.718-1.639 1.596-1.639h16.452c5.804 0 10.869 1.929 10.924 6.016.03 2.201-1.46 3.731-3.489 4.65 3.313.943 5.157 2.854 5.069 5.742-.109 3.604-4.995 6.69-10.802 6.69H70.948c-.878 0-1.595-.738-1.595-1.64 0-.897.722-1.64 1.595-1.64z" clip-rule="evenodd"></path><path fill="#153E96" fill-rule="evenodd" d="M39.638 9.457 26.86 34.155h114.181L128.284 9.452l-26.112.722-.783-.743c-4.975-4.725-10.768-6.812-17.571-6.833-6.411-.02-12.621 2.131-17.103 6.834l-.8.841z" clip-rule="evenodd"></path><path fill="#F19118" fill-rule="evenodd" d="M69.649 120.073h.758v-16.07h-.758a1.6 1.6 0 0 1-1.595-1.596c0-.873.722-1.595 1.595-1.595h8.532a1.6 1.6 0 0 1 1.596 1.595c0 .874-.722 1.596-1.596 1.596h-.668v6.243l8.827-6.243h-2.406a1.6 1.6 0 0 1-1.595-1.596c0-.873.722-1.595 1.595-1.595h8.965a1.6 1.6 0 0 1 1.595 1.595c0 .874-.722 1.596-1.595 1.596h-1.717l-7.958 5.433h5.681c3.096 0 4.314.986 5.544 2.938 1.081 1.717 1.091 4.793 2.962 6.854.451.498.949.815 1.4.815a1.6 1.6 0 0 1 1.596 1.595c0 .874-.722 1.596-1.596 1.596H86.383a1.6 1.6 0 0 1-1.595-1.596c0-.873.722-1.595 1.595-1.595h.223l-4.464-8.636-1.796-.008-2.833 1.934v6.739h.668a1.6 1.6 0 0 1 1.596 1.596c0 .874-.722 1.595-1.596 1.595h-8.532a1.6 1.6 0 0 1-1.595-1.595c0-.873.722-1.595 1.595-1.595M70.384 131.466H81.73a1.6 1.6 0 0 1 1.595 1.595c0 .874-.722 1.596-1.595 1.596h-2.464l6.813 14.721 6.428-14.721H90.08a1.6 1.6 0 0 1-1.595-1.596c0-.873.721-1.595 1.595-1.595h7.666a1.6 1.6 0 0 1 1.595 1.595c0 .874-.721 1.596-1.595 1.596h-1.37l-8.043 17.828c-.99 2.195-2.732 2.927-4.57 2.936-1.817.01-3.442-.825-4.335-2.716l-8.475-18.048h-.567a1.6 1.6 0 0 1-1.595-1.596 1.6 1.6 0 0 1 1.593-1.595M65.299 42.708v.024h-.216q-.101 0-.202.008a3 3 0 0 1-.204.009.9.9 0 0 1-.496-.135c-.194-.122-.261-.334-.261-.554 0-.265.064-.55.31-.693a1.2 1.2 0 0 1 .599-.148q.122 0 .243.009.132.009.26.042a1 1 0 0 1 .124.011 1 1 0 0 0 .065.005h.021l.021.004q.156.032.314.058c.063.011.137.022.201.022a.7.7 0 0 0 .155-.026 3 3 0 0 0 .242-.078l.037-.014.052-.001c.088-.036.063-.034.123-.033a1.4 1.4 0 0 1 .421-.067c.193 0 .366.07.512.195.202.172.245.463.245.713v8.205c0 .123.013.375.11.468.083.08.184.109.298.109q.094 0 .189-.015l.236-.034.015-.002h.016q.095 0 .189-.015.124-.019.25-.019.266 0 .49.145c.199.129.267.351.267.578 0 .334-.165.583-.482.694-.262.092-.537.13-.814.13h-.21100000000000002a1 1 0 0 1-.181-.017q-.17 0-.339-.018-.161-.016-.328-.035a8 8 0 0 0-.405-.05c-.079-.007-.163-.016-.241-.016q-.195.001-.39.016a5 5 0 0 0-.482.064l-.02.003h-.02a1 1 0 0 0-.079.006 1 1 0 0 1-.139.011 5 5 0 0 1-.795.068c-.233 0-.471-.03-.688-.117-.269-.107-.39-.341-.39-.623 0-.26.059-.545.298-.691q.25-.15.543-.15.099 0 .197.009.087.008.174.008h.021l.021.004a1.6 1.6 0 0 0 .312.03c.135 0 .253-.04.362-.119.114-.083.131-.28.131-.408v-7.271c-.004-.078-.021-.191-.105-.232a.9.9 0 0 0-.388-.08 2 2 0 0 0-.157.007q-.016.005-.031.006m14.85 4.733a3.5 3.5 0 0 1-.836.591 4.5 4.5 0 0 1-2.042.523h-.069a3.5 3.5 0 0 1-.499-.035 3.95 3.95 0 0 1-1.73-.65c-.606-.402-1.017-.994-1.293-1.654a4 4 0 0 1-.152-.394 8 8 0 0 1-.115-.394 10 10 0 0 1-.062-.386 3 3 0 0 1-.027-.401c0-1.167.475-2.135 1.328-2.919.84-.773 1.827-1.214 2.974-1.214q.217 0 .432.027.207.026.424.062c.319.074.631.187.926.329q.47.227.867.557a3.62 3.62 0 0 1 1.236 1.774c.232.708.364 1.442.399 2.192v.712q0 .164-.017.316a13 13 0 0 1-.189 1.748c-.168.904-.487 1.881-1.137 2.559-.49.511-1.069.936-1.747 1.171q-.466.139-.948.202a7 7 0 0 1-.859.061c-.754-.018-1.631-.136-2.27-.569-.437-.296-.845-.686-1.019-1.193a1.4 1.4 0 0 1-.079-.308 2 2 0 0 1-.019-.273c0-.368.111-.703.344-.989.223-.274.513-.437.867-.442l.125-.021.04.008c.245.052.464.161.646.334.146.14.259.307.304.502.03.039.032.067.032.143v.059q.001.068-.013.135a1 1 0 0 1-.032.119c-.047.142-.129.27-.225.383a1 1 0 0 1-.181.171c.154.134.344.24.519.321.337.155.695.225 1.066.225q.172 0 .342-.023.181-.025.349-.054c.655-.179 1.178-.632 1.598-1.15.464-.573.663-1.387.742-2.155m-4.281-1.054a2.76 2.76 0 0 0 1.525.588c.63 0 1.183-.208 1.677-.596.568-.445.736-1.127.736-1.82-.008-.651-.159-1.322-.675-1.762-.428-.364-.915-.585-1.474-.606h-.146c-.583.011-1.089.227-1.536.6-.45.375-.814 1.053-.851 1.762s.252 1.451.744 1.834m11.073-3.848v.023h-.217q-.1 0-.201.008a2 2 0 0 1-.204.009.9.9 0 0 1-.495-.135c-.193-.122-.262-.334-.262-.554 0-.265.064-.55.311-.694.182-.106.389-.147.598-.147q.122 0 .243.009.132.009.261.042a1 1 0 0 1 .123.011 1 1 0 0 0 .066.005h.021l.021.004q.157.031.313.058c.064.011.137.022.201.022a.7.7 0 0 0 .155-.026q.122-.033.241-.078l.037-.014.052-.001c.088-.035.063-.034.123-.032q.098-.031.2-.048.109-.019.221-.02c.193 0 .365.071.512.195.202.172.246.463.246.714v8.204c0 .124.012.375.109.468a.4.4 0 0 0 .299.109q.095 0 .188-.015l.236-.034.015-.002h.016q.095 0 .189-.015.124-.019.25-.019.266 0 .488.145c.199.129.268.35.268.578 0 .334-.165.583-.482.694-.262.091-.537.13-.814.13h-.21000000000000002a1 1 0 0 1-.181-.017 4 4 0 0 1-.339-.018q-.161-.016-.328-.035a9 9 0 0 0-.405-.05c-.078-.005-.162-.013-.242-.013q-.194.001-.39.016a5 5 0 0 0-.481.064l-.02.004h-.021a1 1 0 0 0-.079.006 1 1 0 0 1-.139.01 5 5 0 0 1-.795.068c-.232 0-.471-.03-.688-.117-.269-.107-.39-.341-.39-.623 0-.26.06-.546.299-.691.165-.101.349-.15.543-.15q.098 0 .197.009.086.008.174.008h.021l.021.004q.076.016.154.022.079.008.157.008a.6.6 0 0 0 .362-.119c.113-.083.131-.28.131-.408V42.84c-.005-.078-.021-.192-.105-.232a.9.9 0 0 0-.388-.08q-.079 0-.157.008zm10.132 6.491q.166-.079.344-.138.246-.071.502-.101.219-.026.438-.027h.011l.012.001c.396.042.802.139 1.149.34.278.162.543.343.783.548l.133.099.14.104c.207.166.428.317.662.444.223.122.486.164.739.167.054-.018.046-.018.099-.017.024-.013.04-.017.104-.017h.034c.145 0 .234-.106.299-.226q.125-.227.17-.479-.074.033-.152.062a1 1 0 0 1-.316.063.8.8 0 0 1-.641-.308 1 1 0 0 1-.234-.635q0-.07.012-.137.004-.024.005-.049v-.028l.007-.028c.062-.23.202-.421.377-.578.227-.203.524-.28.826-.292.481 0 .885.185 1.16.583.246.358.385.76.409 1.201v.21400000000000002l-.001.087a2.5 2.5 0 0 1-.092.532 1.8 1.8 0 0 1-.207.462c-.199.346-.457.672-.795.891a2.35 2.35 0 0 1-.91.361l-.018.002h-.018q-.059 0-.119.007-.092.01-.185.01-.182 0-.362-.028a3 3 0 0 1-.354-.081 3.8 3.8 0 0 1-1.036-.456 6 6 0 0 1-.864-.648 2.6 2.6 0 0 0-.44-.27 3.4 3.4 0 0 0-.505-.195 5 5 0 0 0-.295-.056 2 2 0 0 0-.279-.023c-.183 0-.363.03-.531.102a.7.7 0 0 0-.117.062.8.8 0 0 1 .193.143.8.8 0 0 1 .221.364c.031.06.029.047.029.135v.059a1 1 0 0 1-.012.12c-.019.11-.001.059-.039.134a1 1 0 0 1-.355.458 1.05 1.05 0 0 1-.654.213c-.377 0-.693-.148-.924-.448a2.25 2.25 0 0 1-.416-.875 2 2 0 0 1-.074-.375 3 3 0 0 1-.019-.342v-.093c0-.091-.008-.08.017-.128v-.11800000000000001l.004-.018c.169-1.027.615-1.934 1.528-2.48.8-.479 1.653-.867 2.544-1.17.043-.011.09-.025.133-.039q.08-.027.145-.043c.254-.088.501-.176.752-.268a10 10 0 0 0 .698-.282c.287-.122.571-.293.771-.537.162-.199.283-.423.336-.674q.015-.073.021-.148.008-.073.008-.147v-.093l-.006-.024-.008-.021-.002-.022c-.057-.495-.336-.896-.698-1.223-.435-.392-.952-.561-1.535-.561h-.108c-.434.027-.891.101-1.289.282-.268.12-.568.281-.779.488a1 1 0 0 0-.189.241.4.4 0 0 0-.051.157c0 .015.002.023.013.033.035.031.09.048.126.057q.315.043.509.293c.114.15.18.322.18.511 0 .159-.046.313-.114.456-.082.171-.201.32-.329.448a1.168 1.168 0 0 1-.598.369l-.025.006h-.027a.3.3 0 0 0-.05.004.7.7 0 0 1-.136.013q-.08 0-.156-.011a1 1 0 0 1-.157-.032 1.76 1.76 0 0 1-.803-.538 1.37 1.37 0 0 1-.366-.919c0-.058.001-.068.017-.102a.16.16 0 0 1 .021-.091c.103-.948.494-1.757 1.301-2.292a5.2 5.2 0 0 1 2.398-.854q.15-.019.301-.027.157-.008.315-.009c.938 0 2.076.134 2.817.77.527.453.953 1.007 1.139 1.684q.071.246.1.5.027.235.027.471.001.386-.082.764a3.5 3.5 0 0 1-.172.585l-.005.013-.007.012a3.37 3.37 0 0 1-1.262 1.262 9 9 0 0 1-1.596.71l-.541.169q-.265.082-.522.151l-.478.16a6 6 0 0 0-.416.155l-.016.006-.016.004a.3.3 0 0 0-.071.029.7.7 0 0 1-.157.066 5.3 5.3 0 0 0-.939.591c-.148.12-.289.248-.409.393" clip-rule="evenodd"></path><path fill="#F19118" d="M106.736 28.349c0 .864-.348 1.101-.758 1.101-.389 0-.747-.143-.838-.769-.11-.759.09-1.361.027-2.321-.027-.421-.006-1.333.621-1.402.646-.071 1.035.563 1.065 1.076.056.934.061 1.304 1.017 1.792a3.7 3.7 0 0 0 1.699.407c1.574 0 2.01-.758 2.094-1.466.09-.75-.277-1.16-.98-1.515-.41-.207-.965-.416-1.688-.625-1.388-.402-3.165-.716-3.587-2.617-.295-1.336.182-2.711 1.361-3.538.893-.625 1.869-.854 2.936-.854.525.036 1.012.148 1.486.337s.819.549 1.032.868c-.333-.833.022-1.375.542-1.343.721.043.449.591.568 1.076.07.284.332.696.258 1.306-.05.415-.246 1.153-.588 1.387-.18.123-.381.209-.721.121-.363-.094-.465-.359-.482-.849-.01-.271-.121-.721-.652-1.051a2.96 2.96 0 0 0-1.509-.412c-1.245 0-2.171.733-2.004 1.833.096.63.65.966 1.255 1.18 1.075.382 2.132.598 3.174 1.103 1.064.516 1.949 1.365 1.803 3.174-.17 2.089-2.086 3.096-4.091 3.096-.489-.002-2.081-.244-3.04-1.095M123.377 18.986c.164-.421.182-.9.779-.9.114 0 .637.069.637.661-.066.462-.146.921-.199 1.385-.059.537 0 .653 0 .98 0 .562-.359.657-.68.634-.348-.025-.705-.417-.723-1.11-.023-.923-1.162-1.213-2.044-1.286-2.048-.169-2.97 2.116-2.97 4.331 0 2.321.549 4.737 2.909 4.575.993-.068 1.933-.835 2.137-1.58.14-.506-.042-1.501.3-1.885a.95.95 0 0 1 .652-.333c.267-.032.773.138.954.636.118.326.04.75.002 1.076a3.34 3.34 0 0 1-1.466 2.43 5.3 5.3 0 0 1-3.012.938c-3.666 0-5.335-3.074-5.335-5.842 0-2.844 1.696-5.76 5.438-5.754 1.183 0 1.914.485 2.621 1.044M78.749 20.285c0-.651-.055-.542-.765-.549-.387-.003-.843-.165-.886-.667-.04-.46.167-.721.551-.83.158-.045.464-.069.629-.055.592.051.942.071 1.54.075 1.037.007 2.148-.186 3.196-.118 2.21.142 3.876.89 3.888 2.918.01 1.351-.895 2.364-2.244 2.622.473.179 1.339.497 1.479 1.563.016.119.029.615.041 1.316.014.798.332 1.469 1.045 1.485.199.004.389-.039.54.024.331.139.452.392.413.695-.02.151-.17.524-.659.553-.464.027-1.065-.015-1.587.024-1.27.096-1.709-1.155-1.729-2.118a26 26 0 0 0-.064-1.44c-.096-1.301-.709-1.77-1.929-1.74-.372.009-.764.037-.903.118-.202.118-.306.43-.306.919v2.122c0 .26-.023.505.11.602.24.174.516.069.789.019.14-.026.296 0 .449.067.245.107.43.402.381.743-.026.182-.111.529-.481.608-.237.05-.452.012-.662.003-.496-.021-.994-.088-1.497-.084-.646.005-1.104.053-1.725.113-.36.035-.504.073-.747-.036-.289-.13-.432-.344-.442-.619a.8.8 0 0 1 .272-.634c.154-.119.384-.164.602-.168.24-.005.434.096.629-.122.095-.105.071-.24.071-.477zm5.278-.528c-.428-.33-1-.278-1.519-.304-.358-.018-1.001.086-1.198.188-.196.101-.313.402-.313.766v1.977c0 .249.083.385.28.437.535.141.803.052 1.364.052.489 0 .749-.012 1.053-.102.873-.256.951-1.169.963-1.553.022-.737-.264-1.181-.63-1.461M91.302 20.167c0-.5-.056-.425-.765-.432-.387-.003-.828-.134-.886-.667-.05-.459.167-.721.551-.83.157-.045.464-.069.629-.055.339.029.231.05.511.079 1.011.103 1.763.199 2.765.077.747-.091 2.019-.25 2.769-.275.518-.018.8-.044 1.209-.011.775.063 1.162.279 1.195 1.09.021.523-.107.914-.111 1.444-.004.589-1.11.484-1.2-.005-.046-.25.048-.462-.038-.692-.086-.228-.209-.339-.754-.344l-1.838-.017c-.358-.003-1.076.07-1.273.172s-.297.341-.297.705v1.977c0 .249.094.357.279.437.188.08.617.052 1.178.052.447 0 .719-.154.951-.633.279-.572.553-.674.932-.614.228.037.379.29.42.548.062.399-.117.794-.137 1.251-.012.3.141.448.096.951-.038.416-.148.655-.463.693-.326.04-.484-.13-.795-.513-.274-.338-.52-.515-.998-.515-.433 0-.955.005-1.156.123-.203.118-.307.43-.307.919v2.122c0 .26.066.444.201.542a1 1 0 0 0 .43.181c.067.009.137.017.201.017h2.115c.681 0 1.292.107 1.242-.769-.063-1.115.276-1.373.505-1.542.502-.371 1.145.002.977.903-.119.631.109 1.121.115 1.392.014.664-.195.933-.362 1.125-.35.4-1.187.289-1.681.28-1.595-.029-3.348-.184-4.869-.171-.646.006-1.104.053-1.725.113-.359.035-.504.073-.746-.036-.29-.13-.432-.344-.443-.619a.8.8 0 0 1 .272-.634c.155-.119.385-.164.603-.168.205-.004.301.051.475-.046.191-.108.226-.208.226-.552v-7.053zM45.636 20.167c0-.5-.055-.425-.765-.432-.387-.003-.827-.134-.886-.667-.05-.459.167-.721.551-.83.157-.045.463-.069.628-.055.339.029.232.05.511.079 1.011.103 1.763.199 2.765.077.748-.091 2.019-.25 2.768-.275.518-.018.8-.044 1.209-.011.775.063 1.163.279 1.196 1.09.021.523-.108.914-.111 1.444-.004.589-1.11.484-1.2-.005-.046-.25.048-.462-.038-.692-.085-.228-.209-.339-.754-.344l-1.837-.017c-.359-.003-1.076.07-1.273.172s-.297.341-.297.705v1.977c0 .249.093.357.28.437s.617.052 1.177.052c.448 0 .718-.154.952-.633.278-.572.553-.674.931-.614.228.037.38.29.42.548.062.399-.118.794-.136 1.251-.012.3.14.448.094.951-.038.416-.148.655-.462.693-.327.04-.485-.13-.795-.513-.273-.338-.519-.515-.998-.515-.432 0-.954.005-1.156.123s-.306.43-.306.919v2.122c0 .26.067.444.201.542a1 1 0 0 0 .429.181q.103.015.201.017h2.115c.681 0 1.292.107 1.242-.769-.063-1.115.277-1.373.504-1.542.502-.371 1.146.002.977.903-.118.631.11 1.121.115 1.392.014.664-.194.933-.362 1.125-.349.4-1.187.289-1.681.28-1.595-.029-3.347-.184-4.869-.171-.646.006-1.104.053-1.725.113-.36.035-.504.073-.746-.036-.29-.13-.432-.344-.443-.619a.8.8 0 0 1 .272-.634c.154-.119.384-.164.602-.168.206-.004.302.051.475-.046.192-.108.226-.208.226-.552zM56.236 19.736c-.479.042-.812-.316-.81-.757.003-.682.654-.842 1.21-.794.604.053 1.203.147 1.814.182.723.041 1.37-.159 2.036-.165.583-.005 1.293.127 1.271.835-.012.38-.258.684-.75.753-.354.05-.942-.189-1.138-.088-.197.101-.298.341-.298.705v6.798c0 .26.067.444.201.542a1 1 0 0 0 .429.181q.104.016.201.017h1.683c.68 0 1.725.107 1.675-.769-.063-1.115.276-1.373.504-1.542.501-.371 1.146.002.977.903-.118.631.109 1.121.115 1.392.014.664-.195.933-.362 1.125-.21.241-.499.252-.972.255-1.683.011-3.257-.132-4.87-.146-.814-.007-1.632.113-2.432.113l-.232-.001c-.269-.004-.511-.024-.7-.11-.29-.13-.432-.335-.443-.609-.013-.41.162-.535.303-.628.237-.156.547-.128.822-.093.239.03.379.062.537-.183.064-.101.099-.236.099-.43V20.23c.001-.629-.28-.545-.87-.494M65.653 23.768c-.021-1.05.411-3.184 1.595-4.279.992-.916 1.943-1.254 3.34-1.284 1.341-.029 2.802.491 3.742 1.425.933.928 1.553 2.481 1.553 4.292 0 1.891-.884 3.518-1.898 4.459-.866.805-1.979 1.109-3.314 1.109-1.269 0-2.534-.624-3.418-1.498-.67-.66-1.557-1.955-1.6-4.224m3.348 3.401c.676.79 1.004 1.126 1.74 1.153.826.03 1.403-.351 1.945-1.17.44-.664.647-1.603.668-3.081.022-1.512-.271-2.435-.699-3.319-.442-.915-1.105-1.364-1.91-1.378-1.01-.018-1.456.563-1.832 1.099-.567.806-.683 1.958-.74 3.389-.054 1.378.476 2.896.828 3.307"></path><path fill="#F19118" fill-rule="evenodd" d="M70.757 14.135c.321.269.568.712.073 1.375-.369.494-.57.863-1.037 1.446-.263.327-.68.441-1.269.117-.439-.243-.381-.978-.133-1.313.408-.551.653-.908 1.007-1.4.286-.399.867-.639 1.359-.225M73.954 14.332c.32.27.477.804.103 1.284-.379.487-.569.863-1.037 1.446-.262.327-.734.583-1.269.27-.491-.288-.351-1.069-.103-1.404.408-.551.653-.907 1.007-1.4.286-.4.805-.61 1.299-.196" clip-rule="evenodd" data-source="https://football-logos.cc"></path><!-- source: https://football-logos.cc --></svg>