<svg xmlns="http://www.w3.org/2000/svg" viewBox="-0.04 0 498.34 649.04"><!-- Source: https://football-logos.cc --><defs data-source="https://football-logos.cc"><clipPath id="a"><path d="M0 0h498.262v649.04H0Zm0 0"></path></clipPath></defs><g clip-path="url(#a)"><path d="M249.125 649.04c-4.664-8.868-19.945-12.99-58.879-34.962-61.055-34.453-110.453-63.332-152.508-139.457C-4.59 398 .118 339.391.118 339.391s18.62-.176 32.554-27.536c8.246-16.195 14.281-41.582 15.707-82.335 3.414-97.649-28.121-119.7-28.121-119.7L36.598 0c22.168 21.027 48.261 30.145 95.382 37.621 37.438 5.938 75.083 9.246 117.149 9.246 42.07 0 79.715-3.308 117.152-9.246 47.121-7.476 73.215-16.594 95.38-37.621l16.343 109.82s-31.535 22.051-28.121 119.7c1.426 40.753 7.46 66.14 15.707 82.335 13.933 27.36 32.555 27.536 32.555 27.536s4.707 58.609-37.622 135.23c-42.054 76.125-91.457 105.004-152.507 139.457-38.934 21.973-54.215 26.094-58.883 34.961z" style="stroke:none;fill-rule:nonzero;fill:#a46e27;fill-opacity:1"></path></g><path d="M27.559 107.227c.886-5.961 11.226-75.45 13.992-94.02 20.308 15.613 45.582 24.227 89.355 31.168 40.137 6.367 77.703 9.332 118.227 9.332 40.52 0 78.086-2.965 118.222-9.332 43.774-6.941 69.047-15.555 89.356-31.168 2.766 18.57 13.101 88.059 13.988 94.02l-.441.23c-62.93 34.406-138.922 50.332-221.125 50.332-82.13 0-158.063-15.894-220.957-50.238z" style="stroke:none;fill-rule:nonzero;fill:#fff;fill-opacity:1"></path><path d="M36.656 119.703c59.703 29.824 131.055 44.926 212.477 44.926 81.14 0 152.281-14.996 211.86-44.621l.612-.32c-1.722 3.019-3.503 6.57-5.25 10.71-9.02 21.446-13.574 49.813-13.574 84.477 0 4.84.086 9.8.266 14.883 1.336 38.222 6.715 66.094 16.445 85.203 10.567 20.746 24.028 27.71 31.945 30.059-.054 15.562-3.18 65.246-36.902 126.293-41.922 75.886-91.953 104.12-149.883 136.808-13.972 7.887-24.722 13.375-33.359 17.79-10.36 5.288-17.39 8.886-22.16 12.792-4.774-3.906-11.805-7.504-22.164-12.793-8.637-4.414-19.387-9.902-33.364-17.789-57.93-32.687-107.957-60.922-149.878-136.808C10 410.266 6.879 360.582 6.824 345.02c7.918-2.348 21.38-9.313 31.946-30.06 9.726-19.108 15.109-46.98 16.445-85.202.18-5.082.265-10.043.265-14.883 0-34.664-4.554-63.031-13.578-84.477-1.597-3.8-3.23-7.101-4.82-9.957z" style="stroke:none;fill-rule:nonzero;fill:#fff;fill-opacity:1" data-source="https://football-logos.cc"></path><path d="M154.887 571.012v-400.93l.011-.184c-28.726-4.695-55.867-11.648-81.332-20.835v355.832l-.011.539c18.808 21.843 51.101 46.136 81.312 66.015zM289.785 602.871v-426.71l.02-.24a632 632 0 0 1-40.672 1.286 634 634 0 0 1-40.645-1.281l-.02.172v426.898l.009.586a293 293 0 0 0 7.101 3.656c32.07 15.914 33.55 18.242 33.55 18.242h.005s1.476-2.328 33.55-18.242a300 300 0 0 0 7.098-3.652zM424.695 504.895V149.438l.012-.38c-25.46 9.188-52.594 16.141-81.312 20.837l-.02.25v400.554l.012.758c30.191-19.867 62.46-44.14 81.277-65.977z" style="stroke:none;fill-rule:nonzero;fill:#007441;fill-opacity:1"></path><path d="M160.863 372.02h-50.73v-3.57h.543c15.152 0 15.554-5.805 15.554-14.884v-57.289c0-3.722 0-10.27-5.273-10.27-1.894 0-6.492 1.79-11.094 3.723v-3.87l34.09-16.22h2.3v84.82c0 9.97 1.22 13.99 14.61 13.99zM180.21 370.086c13.528-2.977 29.356-10.566 36.255-38.691-2.031 1.19-3.926 1.933-5.953 2.234-2.032.445-4.059.594-6.492.594-9.336 0-24.489-5.653-24.489-31.25 0-8.036 5.14-33.332 29.492-33.332 12.176 0 30.98 8.48 30.98 44.195 0 27.086-19.21 55.656-59.792 60.117zm31.383-42.559c2.164 0 5.816-.746 5.953-1.933.406-2.383 1.219-9.973 1.219-13.395 0-29.316-2.032-38.543-10.418-38.543-8.254 0-8.254 9.375-8.254 21.133 0 21.43 2.164 32.738 11.5 32.738M310.754 372.02h-50.73v-3.57h.542c15.153 0 15.555-5.805 15.555-14.884v-57.289c0-3.722 0-10.27-5.273-10.27-1.895 0-6.493 1.79-11.094 3.723v-3.87l34.09-16.22h2.3v84.82c0 9.97 1.22 13.99 14.61 13.99zM330.098 370.086c13.53-2.977 29.355-10.566 36.257-38.691-2.03 1.19-3.921 1.933-5.953 2.234-2.03.445-4.058.594-6.496.594-9.332 0-24.484-5.653-24.484-31.25 0-8.036 5.14-33.332 29.492-33.332 12.176 0 30.98 8.48 30.98 44.195 0 27.086-19.21 55.656-59.796 60.117zm31.386-42.559c2.164 0 5.817-.746 5.954-1.933.406-2.383 1.214-9.973 1.214-13.395 0-29.316-2.027-38.543-10.414-38.543-8.254 0-8.254 9.375-8.254 21.133 0 21.43 2.164 32.738 11.5 32.738M85.887 84.523l-5.77 16.102c-1.914 5.344-.808 7.07 4.121 8.602l-.445 1.25-22.832-8.18.445-1.25c3.957 1.418 5.867.457 7.61-4.402l11.632-32.48c1.793-4.997 1.141-7.11-4.375-8.77l.45-1.25 24.152 8.652-.45 1.25c-5.288-2.285-7.128-.207-8.671 4.098l-4.797 13.394 20.125 7.211 4.797-13.395c1.816-5.066.95-7.023-3.887-8.597l.445-1.25 24.012 8.601-.445 1.25c-5.617-2.246-7.277-.882-9.02 3.973l-11.636 32.48c-1.989 5.551-.414 7.055 3.914 8.528l-.45 1.25-23.457-8.403.45-1.25c4.945 1.93 6.672.825 8.437-4.101l5.77-16.102zM138.074 111.727l-3.5 5.253c-.758 1.204-1.344 2.293-1.5 3.086-.605 3.114 2.004 4.371 5.637 5.004l-.254 1.301-15.918-3.094.25-1.304c3.836.37 6.656-2.16 10.484-7.95l24.051-36.406.723.14 9.02 45.165c1.187 5.863 2.835 8.21 5.656 8.758l-.254 1.304-23.227-4.515.25-1.305c4.403.93 5.903.547 6.27-1.336.125-.648.152-1.172-.145-2.355l-1.62-8.653zm11.719-17.774-10.113 15.309 13.75 2.672zM223.117 137.219l-44.308-3.574.105-1.32c6.512.894 8.055-.833 8.48-6.122l2.766-34.316c.504-6.246-1.347-7.133-7.39-7.399l.109-1.324 28.512 2.3-.11 1.321c-7.11-.797-8.867-.12-9.36 6.05l-2.858 35.419c-.258 3.23.98 4.367 4.359 4.64l4.851.391c9.844.793 13.782-4.879 16.672-13.226l1.32.105zM243.926 123.172l-2.363 5.851c-.5 1.336-.856 2.52-.844 3.329.035 3.171 2.847 3.875 6.531 3.757l.016 1.328-16.22.192-.015-1.328c3.828-.414 6.078-3.465 8.656-9.906l16.184-40.52.738-.012 17.973 42.403c2.352 5.5 4.438 7.468 7.313 7.433l.015 1.328-23.66.278-.016-1.325c4.496.02 5.891-.66 5.868-2.578-.008-.664-.086-1.18-.618-2.277l-3.34-8.145zm7.879-19.777L245 120.434l14.008-.168zM287.96 135.5c5.59-.434 6.735-2.05 6.103-7.469l-4.02-34.265c-.68-5.786-2.418-6.696-7.672-5.93l-.156-1.32 25.918-3.04c15.672-1.835 27.851 6.458 29.715 22.344 1.691 14.426-6.536 25.93-22.641 27.82l-27.094 3.176zm17.832-8.7c.523 4.47 1.426 5.18 6.328 4.606 10.324-1.215 14.43-9.265 12.738-23.687-1.504-12.817-6.832-22.805-18.62-21.422l-5.126.601zM352.148 113.457l-1.035 6.227c-.199 1.41-.285 2.64-.101 3.43.726 3.085 3.625 3.163 7.191 2.245l.305 1.293-15.785 3.715-.305-1.293c3.648-1.234 5.18-4.703 6.293-11.55l6.984-43.07.72-.169 26.765 37.477c3.488 4.86 5.957 6.324 8.754 5.664l.304 1.293-23.035 5.418-.305-1.293c4.395-.957 5.606-1.922 5.168-3.79-.152-.644-.343-1.128-1.097-2.09l-5.031-7.222zm.118-42.969-3.016.711 1.238-13.09 10.477-2.464zm3.27 21.953-2.933 18.11 13.632-3.211zM397.844 61.43c7.777-2.989 12.98-.961 15.457-1.914 1.512-.582 1.945-2.328 1.129-4.461l1.304-.504 5.875 15.273-1.304.504c-4.211-6.832-12.758-9.547-20.672-6.504-5.57 2.14-8.399 6.703-6.836 10.766.605 1.582 1.469 2.594 2.992 3.27 6.574 2.921 19.68-1.407 28.16 2.363 4.668 2.074 6.875 4.937 8.145 8.242 3.281 8.531-1.817 17.047-12.617 21.2-7.914 3.042-12.34 1.19-14.954 2.194-1.586.61-2.382 2.024-2.527 4.528l-1.305.504-6.668-17.34 1.305-.504c5.172 8.516 14.067 11.73 22.875 8.344 6.61-2.543 9.625-7.02 7.852-11.63-.66-1.722-1.805-3.253-3.996-4.23-7.622-3.386-19.102 1.266-28.344-2.844-3.145-1.398-5.367-4.093-6.61-7.332-3.043-7.91 1.454-16.351 10.739-19.925" style="stroke:none;fill-rule:nonzero;fill:#a46e27;fill-opacity:1" data-source="https://football-logos.cc"></path><!-- source: https://football-logos.cc --></svg>