<svg xmlns="http://www.w3.org/2000/svg" viewBox="0 0 83.1 83.08"><!-- Source: https://football-logos.cc --><defs data-source="https://football-logos.cc"><clipPath id="a" clipPathUnits="userSpaceOnUse"><path d="M416.53 797.323h42.667v42.656h-42.666z"></path></clipPath><clipPath id="b" clipPathUnits="userSpaceOnUse"><path d="M0 0h1191v842H0Z"></path></clipPath><clipPath id="c" clipPathUnits="userSpaceOnUse"><path d="M416.53 797.323h42.667v42.656h-42.666z"></path></clipPath><clipPath id="d" clipPathUnits="userSpaceOnUse"><path d="M0 0h1191v842H0Z"></path></clipPath><clipPath id="e" clipPathUnits="userSpaceOnUse"><path d="M416.53 797.323h42.667v42.656h-42.666z"></path></clipPath><clipPath id="f" clipPathUnits="userSpaceOnUse"><path d="M0 0h1191v842H0Z"></path></clipPath><clipPath id="g" clipPathUnits="userSpaceOnUse"><path d="M416.53 797.323h42.667v42.656h-42.666z"></path></clipPath><clipPath id="h" clipPathUnits="userSpaceOnUse"><path d="M0 0h1191v842H0Z"></path></clipPath><clipPath id="i" clipPathUnits="userSpaceOnUse"><path d="M416.53 797.323h42.667v42.656h-42.666z"></path></clipPath><clipPath id="j" clipPathUnits="userSpaceOnUse"><path d="M0 0h1191v842H0Z"></path></clipPath><clipPath id="k" clipPathUnits="userSpaceOnUse"><path d="M416.53 797.323h42.667v42.656h-42.666z"></path></clipPath><clipPath id="l" clipPathUnits="userSpaceOnUse"><path d="M0 0h1191v842H0Z"></path></clipPath><clipPath id="m" clipPathUnits="userSpaceOnUse"><path d="M416.53 797.323h42.667v42.656h-42.666z"></path></clipPath><clipPath id="n" clipPathUnits="userSpaceOnUse"><path d="M0 0h1191v842H0Z"></path></clipPath><clipPath id="o" clipPathUnits="userSpaceOnUse"><path d="M416.53 797.323h42.667v42.656h-42.666z"></path></clipPath><clipPath id="p" clipPathUnits="userSpaceOnUse"><path d="M0 0h1191v842H0Z"></path></clipPath><clipPath id="q" clipPathUnits="userSpaceOnUse"><path d="M416.53 797.323h42.667v42.656h-42.666z"></path></clipPath><clipPath id="r" clipPathUnits="userSpaceOnUse"><path d="M0 0h1191v842H0Z"></path></clipPath><clipPath id="s" clipPathUnits="userSpaceOnUse"><path d="M416.53 797.323h42.667v42.656h-42.666z"></path></clipPath><clipPath id="t" clipPathUnits="userSpaceOnUse"><path d="M0 0h1191v842H0Z"></path></clipPath><clipPath id="u" clipPathUnits="userSpaceOnUse"><path d="M416.53 797.323h42.667v42.656h-42.666z"></path></clipPath><clipPath id="v" clipPathUnits="userSpaceOnUse"><path d="M0 0h1191v842H0Z"></path></clipPath><clipPath id="w" clipPathUnits="userSpaceOnUse"><path d="M416.53 797.323h42.667v42.656h-42.666z"></path></clipPath><clipPath id="x" clipPathUnits="userSpaceOnUse"><path d="M0 0h1191v842H0Z"></path></clipPath><clipPath id="y" clipPathUnits="userSpaceOnUse"><path d="M416.53 797.323h42.667v42.656h-42.666z"></path></clipPath><clipPath id="z" clipPathUnits="userSpaceOnUse"><path d="M0 0h1191v842H0Z"></path></clipPath><clipPath id="A" clipPathUnits="userSpaceOnUse"><path d="M416.53 797.323h42.667v42.656h-42.666z"></path></clipPath><clipPath id="B" clipPathUnits="userSpaceOnUse"><path d="M0 0h1191v-842.208H0Z"></path></clipPath><clipPath id="C" clipPathUnits="userSpaceOnUse"><path d="M416.53 797.323h42.667v42.656h-42.666z"></path></clipPath><clipPath id="D" clipPathUnits="userSpaceOnUse"><path d="M0 0h1191v-842.208H0Z"></path></clipPath><clipPath id="E" clipPathUnits="userSpaceOnUse"><path d="M416.53 797.323h42.667v42.656h-42.666z"></path></clipPath><clipPath id="F" clipPathUnits="userSpaceOnUse"><path d="M0 0h1191v-842.208H0Z"></path></clipPath><clipPath id="G" clipPathUnits="userSpaceOnUse"><path d="M416.53 797.323h42.667v42.656h-42.666z"></path></clipPath><clipPath id="H" clipPathUnits="userSpaceOnUse"><path d="M0 0h1191v-842.208H0Z"></path></clipPath><clipPath id="I" clipPathUnits="userSpaceOnUse"><path d="M416.53 797.323h42.667v42.656h-42.666z"></path></clipPath><clipPath id="J" clipPathUnits="userSpaceOnUse"><path d="M0 0h1191v-842.208H0Z"></path></clipPath><clipPath id="K" clipPathUnits="userSpaceOnUse"><path d="M416.53 797.323h42.667v42.656h-42.666z"></path></clipPath><clipPath id="L" clipPathUnits="userSpaceOnUse"><path d="M0 0h1191v-842.208H0Z"></path></clipPath><clipPath id="M" clipPathUnits="userSpaceOnUse"><path d="M416.53 797.323h42.667v42.656h-42.666z"></path></clipPath><clipPath id="N" clipPathUnits="userSpaceOnUse"><path d="M0 0h1191v842H0Z"></path></clipPath><clipPath id="O" clipPathUnits="userSpaceOnUse"><path d="M416.53 797.323h42.667v42.656h-42.666z"></path></clipPath><clipPath id="P" clipPathUnits="userSpaceOnUse"><path d="M0 0h1191v842H0Z"></path></clipPath><clipPath id="Q" clipPathUnits="userSpaceOnUse"><path d="M416.53 797.323h42.667v42.656h-42.666z"></path></clipPath><clipPath id="R" clipPathUnits="userSpaceOnUse"><path d="M0 0h1191v842H0Z"></path></clipPath><clipPath id="S" clipPathUnits="userSpaceOnUse"><path d="M416.53 797.323h42.667v42.656h-42.666z"></path></clipPath><clipPath id="T" clipPathUnits="userSpaceOnUse"><path d="M0 0h1191v842H0Z"></path></clipPath><clipPath id="U" clipPathUnits="userSpaceOnUse"><path d="M416.53 797.323h42.667v42.656h-42.666z"></path></clipPath><clipPath id="V" clipPathUnits="userSpaceOnUse"><path d="M0 0h1191v842H0Z"></path></clipPath><clipPath id="W" clipPathUnits="userSpaceOnUse"><path d="M416.53 797.323h42.667v42.656h-42.666z"></path></clipPath><clipPath id="X" clipPathUnits="userSpaceOnUse"><path d="M0 0h1191v842H0Z"></path></clipPath><clipPath id="Y" clipPathUnits="userSpaceOnUse"><path d="M416.53 797.323h42.667v42.656h-42.666z"></path></clipPath><clipPath id="Z" clipPathUnits="userSpaceOnUse"><path d="M0 0h1191v842H0Z"></path></clipPath><clipPath id="aa" clipPathUnits="userSpaceOnUse"><path d="M416.53 797.323h42.667v42.656h-42.666z"></path></clipPath><clipPath id="ab" clipPathUnits="userSpaceOnUse"><path d="M0 0h1191v842H0Z"></path></clipPath><clipPath id="ac" clipPathUnits="userSpaceOnUse"><path d="M416.53 797.323h42.667v42.656h-42.666z"></path></clipPath><clipPath id="ad" clipPathUnits="userSpaceOnUse"><path d="M0 0h1191v842H0Z"></path></clipPath><clipPath id="ae" clipPathUnits="userSpaceOnUse"><path d="M416.53 797.323h42.667v42.656h-42.666z"></path></clipPath><clipPath id="af" clipPathUnits="userSpaceOnUse"><path d="M0 0h1191v842H0Z"></path></clipPath><clipPath id="ag" clipPathUnits="userSpaceOnUse"><path d="M416.53 797.323h42.667v42.656h-42.666z"></path></clipPath><clipPath id="ah" clipPathUnits="userSpaceOnUse"><path d="M0 0h1191v842H0Z"></path></clipPath><clipPath id="ai" clipPathUnits="userSpaceOnUse"><path d="M416.53 797.323h42.667v42.656h-42.666z"></path></clipPath><clipPath id="aj" clipPathUnits="userSpaceOnUse"><path d="M0 0h1191v842H0Z"></path></clipPath><clipPath id="ak" clipPathUnits="userSpaceOnUse"><path d="M416.53 797.323h42.667v42.656h-42.666z"></path></clipPath><clipPath id="al" clipPathUnits="userSpaceOnUse"><path d="M0 0h1191v842H0Z"></path></clipPath><clipPath id="am" clipPathUnits="userSpaceOnUse"><path d="M416.53 797.323h42.667v42.656h-42.666z"></path></clipPath><clipPath id="an" clipPathUnits="userSpaceOnUse"><path d="M0 0h1191v842H0Z"></path></clipPath><clipPath id="ao" clipPathUnits="userSpaceOnUse"><path d="M416.53 797.323h42.667v42.656h-42.666z"></path></clipPath><clipPath id="ap" clipPathUnits="userSpaceOnUse"><path d="M0 0h1191v842H0Z"></path></clipPath><clipPath id="aq" clipPathUnits="userSpaceOnUse"><path d="M416.53 797.323h42.667v42.656h-42.666z"></path></clipPath><clipPath id="ar" clipPathUnits="userSpaceOnUse"><path d="M0 0h1191v842H0Z"></path></clipPath><clipPath id="as" clipPathUnits="userSpaceOnUse"><path d="M416.53 797.323h42.667v42.656h-42.666z"></path></clipPath><clipPath id="at" clipPathUnits="userSpaceOnUse"><path d="M0 0h1191v842H0Z"></path></clipPath><clipPath id="au" clipPathUnits="userSpaceOnUse"><path d="M416.53 797.323h42.667v42.656h-42.666z"></path></clipPath><clipPath id="av" clipPathUnits="userSpaceOnUse"><path d="M0 0h1191v842H0Z"></path></clipPath><clipPath id="aw" clipPathUnits="userSpaceOnUse"><path d="M416.53 797.323h42.667v42.656h-42.666z"></path></clipPath><clipPath id="ax" clipPathUnits="userSpaceOnUse"><path d="M0 0h1191v842H0Z"></path></clipPath><clipPath id="ay" clipPathUnits="userSpaceOnUse"><path d="M416.53 797.323h42.667v42.656h-42.666z"></path></clipPath><clipPath id="az" clipPathUnits="userSpaceOnUse"><path d="M0 0h1191v842H0Z"></path></clipPath><clipPath id="aA" clipPathUnits="userSpaceOnUse"><path d="M416.53 797.323h42.667v42.656h-42.666z"></path></clipPath><clipPath id="aB" clipPathUnits="userSpaceOnUse"><path d="M0 0h1191v842H0Z"></path></clipPath><clipPath id="aC" clipPathUnits="userSpaceOnUse"><path d="M416.53 797.323h42.667v42.656h-42.666z"></path></clipPath><clipPath id="aD" clipPathUnits="userSpaceOnUse"><path d="M0 0h1191v842H0Z"></path></clipPath><clipPath id="aE" clipPathUnits="userSpaceOnUse"><path d="M416.53 797.323h42.667v42.656h-42.666z"></path></clipPath><clipPath id="aF" clipPathUnits="userSpaceOnUse"><path d="M0 0h1191v842H0Z"></path></clipPath><clipPath id="aG" clipPathUnits="userSpaceOnUse"><path d="M416.53 797.323h42.667v42.656h-42.666z"></path></clipPath><clipPath id="aH" clipPathUnits="userSpaceOnUse"><path d="M0 0h1191v842H0Z"></path></clipPath><clipPath id="aI" clipPathUnits="userSpaceOnUse"><path d="M416.53 797.323h42.667v42.656h-42.666z"></path></clipPath><clipPath id="aJ" clipPathUnits="userSpaceOnUse"><path d="M0 0h1191v842H0Z"></path></clipPath><clipPath id="aK" clipPathUnits="userSpaceOnUse"><path d="M416.53 797.323h42.667v42.656h-42.666z"></path></clipPath><clipPath id="aL" clipPathUnits="userSpaceOnUse"><path d="M0 0h1191v842H0Z"></path></clipPath><clipPath id="aM" clipPathUnits="userSpaceOnUse"><path d="M416.53 797.323h42.667v42.656h-42.666z"></path></clipPath><clipPath id="aN" clipPathUnits="userSpaceOnUse"><path d="M0 0h1191v842H0Z"></path></clipPath><clipPath id="aO" clipPathUnits="userSpaceOnUse"><path d="M416.53 797.323h42.667v42.656h-42.666z"></path></clipPath><clipPath id="aP" clipPathUnits="userSpaceOnUse"><path d="M0 0h1191v842H0Z"></path></clipPath><clipPath id="aQ" clipPathUnits="userSpaceOnUse"><path d="M416.53 797.323h42.667v42.656h-42.666z"></path></clipPath><clipPath id="aR" clipPathUnits="userSpaceOnUse"><path d="M0 0h1191v842H0Z"></path></clipPath><clipPath id="aS" clipPathUnits="userSpaceOnUse"><path d="M416.53 797.323h42.667v42.656h-42.666z"></path></clipPath><clipPath id="aT" clipPathUnits="userSpaceOnUse"><path d="M0 0h1191v842H0Z"></path></clipPath><clipPath id="aU" clipPathUnits="userSpaceOnUse"><path d="M416.53 797.323h42.667v42.656h-42.666z"></path></clipPath><clipPath id="aV" clipPathUnits="userSpaceOnUse"><path d="M0 0h1191v842H0Z"></path></clipPath><clipPath id="aW" clipPathUnits="userSpaceOnUse"><path d="M416.53 797.323h42.667v42.656h-42.666z"></path></clipPath><clipPath id="aX" clipPathUnits="userSpaceOnUse"><path d="M0 0h1191v842H0Z"></path></clipPath></defs><g clip-path="url(#a)" transform="matrix(1.94759 0 0 1.94759 -811.23 -1552.855)"><path d="M344.398 613.988c0 8.836-7.164 15.996-16 15.996s-16-7.16-16-15.996c0-8.832 7.164-15.996 16-15.996s16 7.164 16 15.996" clip-path="url(#b)" style="fill:#fff;fill-opacity:1;fill-rule:nonzero;stroke:none" transform="scale(1.33333)"></path><path d="M328.398 601.723c-6.773 0-12.265 5.492-12.265 12.265s5.492 12.266 12.265 12.266c6.778 0 12.27-5.492 12.27-12.266 0-6.773-5.492-12.265-12.27-12.265m16 12.265c0 8.836-7.164 15.996-16 15.996s-16-7.16-16-15.996c0-8.832 7.164-15.996 16-15.996s16 7.164 16 15.996" clip-path="url(#b)" style="fill:#009641;fill-opacity:1;fill-rule:nonzero;stroke:none" transform="scale(1.33333)"></path></g><g clip-path="url(#c)" transform="matrix(1.94759 0 0 1.94759 -811.23 -1552.855)"><path d="m318.523 622.918-1.226 1.133q.135.146.211.14c.047 0 .133-.062.258-.175l.726-.668q.123-.118.153-.16a.13.13 0 0 0 .003-.102.8.8 0 0 0-.125-.168m-.312-.977.473.512q.457.494.586.699a.8.8 0 0 1 .136.364.42.42 0 0 1-.058.265 2.3 2.3 0 0 1-.332.348l-.653.601q-.251.236-.367.278a.36.36 0 0 1-.238.008.9.9 0 0 1-.258-.145 3 3 0 0 1-.355-.348l-.797-.863z" clip-path="url(#d)" style="fill:#fff;fill-opacity:1;fill-rule:nonzero;stroke:none" transform="scale(1.33333)"></path></g><g clip-path="url(#e)" transform="matrix(1.94759 0 0 1.94759 -811.23 -1552.855)"><path d="m319.934 623.727 1.226.949-.308.398-.493-.379-.293.383.461.356-.297.378-.46-.351-.34.437.539.418-.309.403-1.273-.985z" clip-path="url(#f)" style="fill:#fff;fill-opacity:1;fill-rule:nonzero;stroke:none" transform="scale(1.33333)"></path></g><g clip-path="url(#g)" transform="matrix(1.94759 0 0 1.94759 -811.23 -1552.855)"><path d="m322.789 626.473-.758-.411.09-.164c.039-.078.059-.132.047-.164-.008-.031-.031-.058-.078-.086q-.076-.04-.133-.015-.064.022-.109.109c-.039.074-.059.137-.047.192q.008.074.156.261.42.523.484.746.058.228-.117.555c-.086.156-.176.262-.269.309q-.136.07-.407.023a1.8 1.8 0 0 1-.566-.207 1.8 1.8 0 0 1-.512-.391q-.182-.21-.183-.386c.004-.117.051-.262.14-.426l.078-.148.758.41-.144.273q-.072.123-.055.176.012.057.094.098.08.047.144.023a.24.24 0 0 0 .114-.117c.07-.129.093-.231.062-.297-.027-.07-.121-.203-.273-.41a4 4 0 0 1-.289-.426.6.6 0 0 1-.071-.27q0-.147.094-.324.14-.258.297-.328a.7.7 0 0 1 .398-.023q.24.045.532.203c.214.113.379.238.504.367q.187.192.199.344.013.15-.133.418z" clip-path="url(#h)" style="fill:#fff;fill-opacity:1;fill-rule:nonzero;stroke:none" transform="scale(1.33333)"></path></g><g clip-path="url(#i)" transform="matrix(1.94759 0 0 1.94759 -811.23 -1552.855)"><path d="m326.148 627.836-.902-.219.106-.429c.027-.122.039-.204.027-.239q-.018-.053-.117-.078c-.074-.016-.125-.012-.157.024a.7.7 0 0 0-.089.234l-.278 1.144c-.031.122-.039.2-.027.243q.017.06.121.086c.066.015.117.011.145-.024q.047-.045.093-.25l.078-.308.903.218-.024.098q-.094.382-.207.523-.118.141-.406.2c-.191.039-.418.023-.672-.036q-.399-.098-.629-.261c-.156-.11-.246-.235-.273-.367q-.042-.2.047-.563l.175-.719a2.3 2.3 0 0 1 .126-.394.5.5 0 0 1 .214-.219.95.95 0 0 1 .403-.109q.24-.012.539.058c.265.063.472.156.629.27.156.113.246.234.277.355q.04.181-.043.528z" clip-path="url(#j)" style="fill:#fff;fill-opacity:1;fill-rule:nonzero;stroke:none" transform="scale(1.33333)"></path></g><g clip-path="url(#k)" transform="matrix(1.94759 0 0 1.94759 -811.23 -1552.855)"><path d="M327.867 627.512a.6.6 0 0 0-.015-.227q-.025-.053-.114-.058a.17.17 0 0 0-.113.035q-.04.04-.051.234l-.054 1.184c-.008.144-.004.238.011.273.016.035.051.055.114.055q.094.007.125-.051a.9.9 0 0 0 .039-.285zm.887.875a3.6 3.6 0 0 1-.051.539.54.54 0 0 1-.172.285.9.9 0 0 1-.371.184 1.8 1.8 0 0 1-.535.043 1.9 1.9 0 0 1-.512-.09.9.9 0 0 1-.355-.219.5.5 0 0 1-.153-.297 4 4 0 0 1 0-.551l.024-.433a4 4 0 0 1 .051-.539.52.52 0 0 1 .172-.282.9.9 0 0 1 .371-.183q.232-.06.535-.043.281.013.512.09.224.077.355.218.135.14.152.297a4 4 0 0 1 0 .547z" clip-path="url(#l)" style="fill:#fff;fill-opacity:1;fill-rule:nonzero;stroke:none" transform="scale(1.33333)"></path></g><g clip-path="url(#m)" transform="matrix(1.94759 0 0 1.94759 -811.23 -1552.855)"><path d="m331.945 626.457.418 2.5-.801.133-.281-1.688-.039 1.743-.57.093-.61-1.593.274 1.652-.805.133-.414-2.5 1.188-.2q.088.218.195.516l.238.613.016-1.203z" clip-path="url(#n)" style="fill:#fff;fill-opacity:1;fill-rule:nonzero;stroke:none" transform="scale(1.33333)"></path></g><g clip-path="url(#o)" transform="matrix(1.94759 0 0 1.94759 -811.23 -1552.855)"><path d="M333.59 626.488a.6.6 0 0 0-.11-.199c-.031-.023-.07-.023-.125-.004a.17.17 0 0 0-.089.082q-.017.048.054.231l.442 1.097q.081.205.129.246.04.035.129.004c.054-.027.085-.058.089-.101a1 1 0 0 0-.082-.274zm1.176.426c.093.238.152.406.175.512a.48.48 0 0 1-.039.328.8.8 0 0 1-.257.324 1.7 1.7 0 0 1-.465.262q-.264.107-.504.133a.84.84 0 0 1-.414-.051.5.5 0 0 1-.262-.207 4 4 0 0 1-.23-.496l-.165-.403a4 4 0 0 1-.175-.511.48.48 0 0 1 .039-.328.8.8 0 0 1 .258-.321q.182-.153.464-.265c.18-.071.344-.114.504-.133a.8.8 0 0 1 .414.051.5.5 0 0 1 .262.203c.059.093.133.258.231.5z" clip-path="url(#p)" style="fill:#fff;fill-opacity:1;fill-rule:nonzero;stroke:none" transform="scale(1.33333)"></path></g><g clip-path="url(#q)" transform="matrix(1.94759 0 0 1.94759 -811.23 -1552.855)"><path d="m335.5 625.254.305.473a.5.5 0 0 0 .168-.145q.036-.058-.055-.199l-.074-.117q-.065-.101-.137-.102a.5.5 0 0 0-.207.09m-1.016.137.551-.356q.558-.357.77-.449a.65.65 0 0 1 .422-.051c.132.027.261.133.378.317q.16.247.125.39-.03.142-.277.324.259-.111.383-.093a.4.4 0 0 1 .18.062q.058.047.222.305l.364.562-.727.465-.457-.707q-.11-.17-.172-.187c-.043-.012-.121.019-.226.086l.617.964-.782.5z" clip-path="url(#r)" style="fill:#fff;fill-opacity:1;fill-rule:nonzero;stroke:none" transform="scale(1.33333)"></path></g><g clip-path="url(#s)" transform="matrix(1.94759 0 0 1.94759 -811.23 -1552.855)"><path d="m336.492 624.035 1.149-1.039.343.375-.461.418.321.356.433-.391.325.355-.434.391.375.414.508-.461.34.379-1.192 1.082z" clip-path="url(#t)" style="fill:#fff;fill-opacity:1;fill-rule:nonzero;stroke:none" transform="scale(1.33333)"></path></g><g clip-path="url(#u)" transform="matrix(1.94759 0 0 1.94759 -811.23 -1552.855)"><path d="m339.699 621.707-.539.676-.144-.117q-.106-.083-.153-.078c-.031.003-.066.023-.097.062a.15.15 0 0 0-.039.129q.01.066.085.125.102.082.18.082.082.007.285-.109.591-.322.825-.344.23-.024.523.211.212.17.258.316.041.154-.047.406a2 2 0 0 1-.305.52 1.8 1.8 0 0 1-.476.437q-.24.142-.414.114a1 1 0 0 1-.395-.211l-.129-.106.535-.675.243.195q.11.087.167.082.055-.002.114-.074c.035-.047.051-.098.043-.141q-.013-.07-.09-.133-.175-.136-.285-.113a3 3 0 0 0-.449.199 4 4 0 0 1-.473.211.6.6 0 0 1-.274.02.7.7 0 0 1-.308-.149q-.229-.183-.266-.347a.7.7 0 0 1 .043-.399q.088-.229.293-.488a2 2 0 0 1 .449-.43q.224-.15.375-.137.153.017.387.204z" clip-path="url(#v)" style="fill:#fff;fill-opacity:1;fill-rule:nonzero;stroke:none" transform="scale(1.33333)"></path></g><g clip-path="url(#w)" transform="matrix(1.94759 0 0 1.94759 -811.23 -1552.855)"><path d="M324.867 607.719h3.047v-1.66h-3.102c-.777 0-2.605.527-2.605 2.464v9.36h1.66v-5.051h4.047v-1.605h-4.047v-2.649c0-.305.278-.859 1-.859" clip-path="url(#x)" style="fill:#009641;fill-opacity:1;fill-rule:nonzero;stroke:none" transform="scale(1.33333)"></path></g><g clip-path="url(#y)" transform="matrix(1.94759 0 0 1.94759 -811.23 -1552.855)"><path d="M330.746 613.078h3.047v-1.664h-3.102c-.777 0-2.605.527-2.605 2.465v9.363h1.66v-5.054h4.047v-1.606h-4.047v-2.644c0-.305.277-.86 1-.86" clip-path="url(#z)" style="fill:#009641;fill-opacity:1;fill-rule:nonzero;stroke:none" transform="scale(1.33333)"></path></g><g clip-path="url(#A)" transform="matrix(1.94759 0 0 1.94759 -811.23 -1552.855)"><path d="M324.117-618.563c0 1.578.762 4.544 3.969 5.318-2.223.261-6.434-1.301-6.434-5.318s4.129-5.681 7.231-5.181c-3.617.801-4.766 3.602-4.766 5.181z" clip-path="url(#B)" style="fill:none;stroke:#009641;stroke-width:.202076;stroke-linecap:butt;stroke-linejoin:miter;stroke-miterlimit:10;stroke-dasharray:none;stroke-opacity:1" transform="scale(1.33333 -1.333)"></path></g><g clip-path="url(#C)" transform="matrix(1.94759 0 0 1.94759 -811.23 -1552.855)"><path d="m328.113-613.722.254-.703.75-.024-.59-.461.207-.723-.621.422-.621-.422.211.723-.594.461.75.024z" clip-path="url(#D)" style="fill:#fff;fill-opacity:1;fill-rule:nonzero;stroke:#009640;stroke-width:.101038;stroke-linecap:butt;stroke-linejoin:miter;stroke-miterlimit:4;stroke-dasharray:none;stroke-opacity:1" transform="scale(1.33333 -1.333)"></path></g><g clip-path="url(#E)" transform="matrix(1.94759 0 0 1.94759 -811.23 -1552.855)"><path d="m328.113-616.125.254-.707.75-.024-.59-.461.207-.719-.621.418-.621-.418.211.719-.594.461.75.024z" clip-path="url(#F)" style="fill:#fff;fill-opacity:1;fill-rule:nonzero;stroke:#009640;stroke-width:.101038;stroke-linecap:butt;stroke-linejoin:miter;stroke-miterlimit:4;stroke-dasharray:none;stroke-opacity:1" transform="scale(1.33333 -1.333)"></path></g><g clip-path="url(#G)" transform="matrix(1.94759 0 0 1.94759 -811.23 -1552.855)"><path d="m328.113-618.532.254-.707.75-.023-.59-.462.207-.718-.621.418-.621-.418.211.718-.594.462.75.023z" clip-path="url(#H)" style="fill:#fff;fill-opacity:1;fill-rule:nonzero;stroke:#009640;stroke-width:.101038;stroke-linecap:butt;stroke-linejoin:miter;stroke-miterlimit:4;stroke-dasharray:none;stroke-opacity:1" transform="scale(1.33333 -1.333)"></path></g><g clip-path="url(#I)" transform="matrix(1.94759 0 0 1.94759 -811.23 -1552.855)"><path d="m328.113-620.939.254-.707.75-.023-.59-.461.207-.719-.621.422-.621-.422.211.719-.594.461.75.023z" clip-path="url(#J)" style="fill:#fff;fill-opacity:1;fill-rule:nonzero;stroke:#009640;stroke-width:.101038;stroke-linecap:butt;stroke-linejoin:miter;stroke-miterlimit:4;stroke-dasharray:none;stroke-opacity:1" transform="scale(1.33333 -1.333)"></path></g><g clip-path="url(#K)" transform="matrix(1.94759 0 0 1.94759 -811.23 -1552.855)"><path d="M335.613-607.896a3.766 3.766 0 0 0-3.765-3.771 3.77 3.77 0 1 0 0 7.537 3.765 3.765 0 0 0 3.765-3.766" clip-path="url(#L)" style="fill:#009641;fill-opacity:1;fill-rule:nonzero;stroke:#009641;stroke-width:.202076;stroke-linecap:butt;stroke-linejoin:miter;stroke-miterlimit:4;stroke-dasharray:none;stroke-opacity:1" transform="scale(1.33333 -1.333)"></path></g><g clip-path="url(#M)" transform="matrix(1.94759 0 0 1.94759 -811.23 -1552.855)"><path d="M332.211 604.188c.816 0 2.07.519 2.07 1.171 0 .653-.902.832-1.195.832s-1.688-.562-1.688-1.304c0-.563.582-.699.813-.699" clip-path="url(#N)" style="fill:#fff;fill-opacity:1;fill-rule:nonzero;stroke:none" transform="scale(1.33333)"></path></g><g clip-path="url(#O)" transform="matrix(1.94759 0 0 1.94759 -811.23 -1552.855)"><path d="M334.551 605.605c.199 0 .945.629.945 1.938 0 .359-.18.492-.473.492s-1.015-.426-1.015-1.508c0-.468.113-.922.543-.922" clip-path="url(#P)" style="fill:#fff;fill-opacity:1;fill-rule:nonzero;stroke:none" transform="scale(1.33333)"></path></g><g clip-path="url(#Q)" transform="matrix(1.94759 0 0 1.94759 -811.23 -1552.855)"><path d="M334.281 608.035c.336 0 1.078.102 1.078.496 0 .395-.679 2.16-1.566 2.16s-.75-.812-.637-1.195c.11-.379.383-1.461 1.125-1.461" clip-path="url(#R)" style="fill:#fff;fill-opacity:1;fill-rule:nonzero;stroke:none" transform="scale(1.33333)"></path></g><g clip-path="url(#S)" transform="matrix(1.94759 0 0 1.94759 -811.23 -1552.855)"><path d="M331.738 607.922c.676 0 1.336.543 1.336 1.191 0 .653-.148 1.442-1.226 1.442s-1.485-.743-1.485-1.442c0-.695.61-1.191 1.375-1.191" clip-path="url(#T)" style="fill:#fff;fill-opacity:1;fill-rule:nonzero;stroke:none" transform="scale(1.33333)"></path></g><g clip-path="url(#U)" transform="matrix(1.94759 0 0 1.94759 -811.23 -1552.855)"><path d="M329.711 609.68c.402-.047 1.418.746 1.418 1.258 0 .511-.988.089-1.371-.247-.383-.339-1.473-.855-.047-1.011" clip-path="url(#V)" style="fill:#fff;fill-opacity:1;fill-rule:nonzero;stroke:none" transform="scale(1.33333)"></path></g><g clip-path="url(#W)" transform="matrix(1.94759 0 0 1.94759 -811.23 -1552.855)"><path d="M329.117 605.426c.551 0 .403.586.375.719-.023.128-.16 1.484-1.207 1.484-.465 0 .285-2.203.832-2.203" clip-path="url(#X)" style="fill:#fff;fill-opacity:1;fill-rule:nonzero;stroke:none" transform="scale(1.33333)"></path></g><g clip-path="url(#Y)" transform="matrix(1.94759 0 0 1.94759 -811.23 -1552.855)" data-source="https://football-logos.cc"><path d="M330.793 605.191c.449 0 1.508.664 1.508 1.473s-.766 1.258-1.508 1.258-1.231-.777-1.231-1.395c0-.613.547-1.336 1.231-1.336" clip-path="url(#Z)" style="fill:#fff;fill-opacity:1;fill-rule:nonzero;stroke:none" transform="scale(1.33333)"></path></g><g clip-path="url(#aa)" transform="matrix(1.94759 0 0 1.94759 -811.23 -1552.855)"><path d="M329.117 608.934c0 .586-.055 1.011-.265.902s-.489-.57-.582-.902c-.09-.329-.25-1.227 0-1.184.25.039.847.418.847 1.184" clip-path="url(#ab)" style="fill:#fff;fill-opacity:1;fill-rule:nonzero;stroke:none" transform="scale(1.33333)"></path></g><g clip-path="url(#ac)" transform="matrix(1.94759 0 0 1.94759 -811.23 -1552.855)"><path d="M330.883 605.809c.226 0 .047.246.055.586.011.335.011.515.191.582.18.07.316.519 0 .453-.313-.071-.629-.317-.676-.496-.043-.18 0-.383.07-.629.067-.25-.171-.496.36-.496" clip-path="url(#ad)" style="fill:#009641;fill-opacity:1;fill-rule:nonzero;stroke:none" transform="scale(1.33333)"></path></g><g clip-path="url(#ae)" transform="matrix(1.94759 0 0 1.94759 -811.23 -1552.855)"><path d="M334.934 606.32c.16-.054.265.403.179.649-.082.25-.097.672-.179.66-.082-.008-.075-.328-.18-.52-.109-.195-.332-.297-.402-.488s-.149-.406-.137-.43.25-.113.262 0c.011.082.046.399.203.336.074-.027.129-.168.254-.207" clip-path="url(#af)" style="fill:#009641;fill-opacity:1;fill-rule:nonzero;stroke:none" transform="scale(1.33333)"></path></g><g clip-path="url(#ag)" transform="matrix(1.94759 0 0 1.94759 -811.23 -1552.855)"><path d="M333.793 608.465c.168-.082.199.152.309.207.089.043.277-.141.418 0 .125.125.042.527 0 .762-.043.238.027.554-.153.554-.179 0-.051-.539-.179-.566-.126-.027-.204-.293-.18-.418.027-.125-.086-.203-.153-.203-.07-.004-.207-.266-.062-.336" clip-path="url(#ah)" style="fill:#009641;fill-opacity:1;fill-rule:nonzero;stroke:none" transform="scale(1.33333)"></path></g><g clip-path="url(#ai)" transform="matrix(1.94759 0 0 1.94759 -811.23 -1552.855)"><path d="M331.398 608.895c.157 0 .614.218.723.343.113.129.527.473.516.543-.016.071-.293.043-.571 0s-.531-.293-.668-.222c-.136.07-.3.179-.355.117-.059-.063.078-.067.086-.313.012-.246.055-.468.269-.468" clip-path="url(#aj)" style="fill:#009641;fill-opacity:1;fill-rule:nonzero;stroke:none" transform="scale(1.33333)"></path></g><g clip-path="url(#ak)" transform="matrix(1.94759 0 0 1.94759 -811.23 -1552.855)"><path d="m313.082 611.48.266-1.312.535.105-.113.539.507.106.098-.48.508.101-.098.481 1.121.226-.16.777z" clip-path="url(#al)" style="fill:#fff;fill-opacity:1;fill-rule:nonzero;stroke:none" transform="scale(1.33333)"></path></g><g clip-path="url(#am)" transform="matrix(1.94759 0 0 1.94759 -811.23 -1552.855)"><path d="m313.496 609.637.422-1.25.516.172-.168.5.488.168.16-.469.488.164-.156.469.566.191.184-.551.52.172-.442 1.305z" clip-path="url(#an)" style="fill:#fff;fill-opacity:1;fill-rule:nonzero;stroke:none" transform="scale(1.33333)"></path></g><g clip-path="url(#ao)" transform="matrix(1.94759 0 0 1.94759 -811.23 -1552.855)"><path d="m314.945 607.254 1.594.816c.055-.105.066-.175.043-.218-.027-.043-.117-.102-.281-.188l-.942-.48a1.3 1.3 0 0 0-.214-.094.13.13 0 0 0-.098.015.5.5 0 0 0-.102.149m-.777.492.273-.527q.259-.51.395-.668c.09-.11.18-.176.277-.207a.5.5 0 0 1 .274-.008c.086.023.242.098.472.215l.848.433q.328.165.422.258a.37.37 0 0 1 .109.207.6.6 0 0 1-.019.254 2.2 2.2 0 0 1-.172.391l-.453.89z" clip-path="url(#ap)" style="fill:#fff;fill-opacity:1;fill-rule:nonzero;stroke:none" transform="scale(1.33333)"></path></g><g clip-path="url(#aq)" transform="matrix(1.94759 0 0 1.94759 -811.23 -1552.855)"><path d="m315.387 605.527.765-1.078.446.317-.309.429.422.301.289-.402.418.301-.285.402.488.348.336-.477.445.316-.797 1.121z" clip-path="url(#ar)" style="fill:#fff;fill-opacity:1;fill-rule:nonzero;stroke:none" transform="scale(1.33333)"></path></g><g clip-path="url(#as)" transform="matrix(1.94759 0 0 1.94759 -811.23 -1552.855)"><path d="m317.457 603.668.438.418q.093-.097.105-.16.012-.06-.117-.184l-.106-.105q-.094-.09-.16-.078c-.043.003-.097.043-.16.109m-.883.25.387-.406q.387-.404.551-.52a.52.52 0 0 1 .367-.097q.2.017.453.257c.152.145.238.266.25.36q.017.14-.148.34c.136-.086.242-.133.32-.129a.4.4 0 0 1 .187.035q.065.039.305.265l.52.497-.512.531-.652-.625q-.159-.151-.223-.16c-.043-.004-.102.031-.176.113l.887.848-.547.57z" clip-path="url(#at)" style="fill:#fff;fill-opacity:1;fill-rule:nonzero;stroke:none" transform="scale(1.33333)"></path></g><g clip-path="url(#au)" transform="matrix(1.94759 0 0 1.94759 -811.23 -1552.855)"><path d="M320.16 602.969q-.327-.33-.789-.836.38.697.574 1zm-.726-1.645 2.011 1.887-.644.492-.328-.363-.227.172.258.418-.652.496-1.329-2.406z" clip-path="url(#av)" style="fill:#fff;fill-opacity:1;fill-rule:nonzero;stroke:none" transform="scale(1.33333)"></path></g><g clip-path="url(#aw)" transform="matrix(1.94759 0 0 1.94759 -811.23 -1552.855)"><path d="m321.434 600.105.269.473-.406.234 1.086 1.887-.688.395-1.086-1.887-.406.234-.269-.472z" clip-path="url(#ax)" style="fill:#fff;fill-opacity:1;fill-rule:nonzero;stroke:none" transform="scale(1.33333)"></path></g><g clip-path="url(#ay)" transform="matrix(1.94759 0 0 1.94759 -811.23 -1552.855)"><path d="m322.637 599.586 1.078 2.496-.731.313-1.074-2.497z" clip-path="url(#az)" style="fill:#fff;fill-opacity:1;fill-rule:nonzero;stroke:none" transform="scale(1.33333)"></path></g><g clip-path="url(#aA)" transform="matrix(1.94759 0 0 1.94759 -811.23 -1552.855)"><path d="M324.441 599.719a.9.9 0 0 0-.086-.231q-.04-.04-.109-.023a.13.13 0 0 0-.082.066q-.019.053.039.254l.352 1.223q.064.227.097.273c.028.031.063.039.114.028.05-.016.082-.047.082-.09q.007-.069-.063-.301zm1.012.64q.112.393.137.563a.6.6 0 0 1-.047.34.76.76 0 0 1-.234.293q-.167.124-.414.195a1.2 1.2 0 0 1-.442.051.7.7 0 0 1-.359-.117.6.6 0 0 1-.223-.262 5 5 0 0 1-.183-.559l-.129-.449a5 5 0 0 1-.137-.562.6.6 0 0 1 .043-.336.7.7 0 0 1 .238-.293q.163-.13.414-.2.235-.066.442-.05c.136.007.257.05.359.121a.6.6 0 0 1 .223.258q.065.156.183.558z" clip-path="url(#aB)" style="fill:#fff;fill-opacity:1;fill-rule:nonzero;stroke:none" transform="scale(1.33333)"></path></g><g clip-path="url(#aC)" transform="matrix(1.94759 0 0 1.94759 -811.23 -1552.855)"><path d="m327.496 598.484.309 2.704-.692.078-.551-1.18.141 1.226-.656.079-.313-2.703.661-.079.582 1.168-.141-1.218z" clip-path="url(#aD)" style="fill:#fff;fill-opacity:1;fill-rule:nonzero;stroke:none" transform="scale(1.33333)"></path></g><g clip-path="url(#aE)" transform="matrix(1.94759 0 0 1.94759 -811.23 -1552.855)"><path d="m330.059 599.039-.211 1.777c.113.016.187 0 .218-.035.032-.039.055-.148.079-.328l.121-1.051q.022-.181.015-.234a.13.13 0 0 0-.051-.086.5.5 0 0 0-.171-.043m-.735-.555.59.071q.567.066.766.136.194.07.289.188a.5.5 0 0 1 .101.254 3 3 0 0 1-.035.519l-.109.946q-.046.362-.098.484a.36.36 0 0 1-.156.176.6.6 0 0 1-.246.066q-.146.01-.426-.019l-.992-.117z" clip-path="url(#aF)" style="fill:#fff;fill-opacity:1;fill-rule:nonzero;stroke:none" transform="scale(1.33333)"></path></g><g clip-path="url(#aG)" transform="matrix(1.94759 0 0 1.94759 -811.23 -1552.855)"><path d="m331.832 598.852 1.277.343-.14.528-.512-.141-.137.5.481.129-.137.5-.476-.129-.157.578.563.152-.145.524-1.324-.359z" clip-path="url(#aH)" style="fill:#fff;fill-opacity:1;fill-rule:nonzero;stroke:none" transform="scale(1.33333)"></path></g><g clip-path="url(#aI)" transform="matrix(1.94759 0 0 1.94759 -811.23 -1552.855)"><path d="m334.953 599.918 1.192.613-.247.489-.492-.254-.234.461.433.222-.234.461-.437-.226-.524 1.015-.703-.363z" clip-path="url(#aJ)" style="fill:#fff;fill-opacity:1;fill-rule:nonzero;stroke:none" transform="scale(1.33333)"></path></g><g clip-path="url(#aK)" transform="matrix(1.94759 0 0 1.94759 -811.23 -1552.855)"><path d="M337.078 601.992a.8.8 0 0 0 .125-.215c.008-.035-.012-.07-.051-.097-.035-.024-.066-.032-.101-.02s-.09.07-.172.188l-.738 1.035a1.1 1.1 0 0 0-.153.25q-.013.06.051.101.064.049.121.008.054-.034.195-.234zm.129 1.188a4 4 0 0 1-.355.457.6.6 0 0 1-.29.179.7.7 0 0 1-.378-.004 1.3 1.3 0 0 1-.411-.199 1.3 1.3 0 0 1-.316-.312.8.8 0 0 1-.133-.36.6.6 0 0 1 .067-.336q.08-.146.324-.488l.269-.383q.235-.332.352-.461a.6.6 0 0 1 .293-.171.66.66 0 0 1 .375 0q.204.052.414.199.2.14.316.316a.74.74 0 0 1 .133.356.6.6 0 0 1-.066.332c-.055.101-.16.265-.324.496z" clip-path="url(#aL)" style="fill:#fff;fill-opacity:1;fill-rule:nonzero;stroke:none" transform="scale(1.33333)"></path></g><g clip-path="url(#aM)" transform="matrix(1.94759 0 0 1.94759 -811.23 -1552.855)"><path d="M338.922 603.566a.7.7 0 0 0 .152-.187q.023-.052-.031-.106a.11.11 0 0 0-.098-.039q-.052.008-.199.157l-.898.902a1.2 1.2 0 0 0-.188.223c-.019.039-.008.074.031.113.039.035.079.047.118.027q.063-.028.23-.203zm-.067 1.196a6 6 0 0 1-.425.394.6.6 0 0 1-.317.125.67.67 0 0 1-.371-.062 1.2 1.2 0 0 1-.375-.262 1.4 1.4 0 0 1-.262-.363.7.7 0 0 1-.07-.371.63.63 0 0 1 .117-.321 6 6 0 0 1 .399-.433l.328-.332q.292-.289.426-.395a.64.64 0 0 1 .316-.129.76.76 0 0 1 .371.067q.188.08.375.261c.113.118.203.239.262.364a.7.7 0 0 1 .07.371.6.6 0 0 1-.117.32q-.105.135-.398.434z" clip-path="url(#aN)" style="fill:#fff;fill-opacity:1;fill-rule:nonzero;stroke:none" transform="scale(1.33333)"></path></g><g clip-path="url(#aO)" transform="matrix(1.94759 0 0 1.94759 -811.23 -1552.855)"><path d="m341.383 605.461-.438.324-.277-.379-1.75 1.297-.473-.637 1.75-1.296-.281-.375.438-.325z" clip-path="url(#aP)" style="fill:#fff;fill-opacity:1;fill-rule:nonzero;stroke:none" transform="scale(1.33333)"></path></g><g clip-path="url(#aQ)" transform="matrix(1.94759 0 0 1.94759 -811.23 -1552.855)"><path d="m341.664 606.883-.535.281.035.07q.058.105.117.11.06.001.274-.11a.4.4 0 0 0 .144-.105.13.13 0 0 0 .028-.094 1 1 0 0 0-.063-.152m-.91.48-.676.356q.082.145.141.168.06.017.207-.059l.222-.117q.158-.08.168-.137.016-.052-.062-.211m.949-1.398.371.699q.174.334.219.527a.57.57 0 0 1-.043.375q-.083.176-.395.344c-.144.074-.253.098-.335.078-.079-.019-.176-.093-.282-.222q.083.268.012.414-.07.146-.305.269l-.222.117q-.244.129-.395.129a.38.38 0 0 1-.266-.113c-.078-.078-.187-.254-.335-.539l-.43-.809z" clip-path="url(#aR)" style="fill:#fff;fill-opacity:1;fill-rule:nonzero;stroke:none" transform="scale(1.33333)"></path></g><g clip-path="url(#aS)" transform="matrix(1.94759 0 0 1.94759 -811.23 -1552.855)"><path d="M341.484 609.719c.278-.133.629-.293 1.043-.477-.519.09-.894.16-1.129.219zm1.793-.16-2.433 1.296-.262-.765.453-.195-.094-.27-.476.109-.262-.777 2.707-.484z" clip-path="url(#aT)" style="fill:#fff;fill-opacity:1;fill-rule:nonzero;stroke:none" transform="scale(1.33333)"></path></g><g clip-path="url(#aU)" transform="matrix(1.94759 0 0 1.94759 -811.23 -1552.855)"><path d="m343.672 611.27-2.137.41.09.472-.535.106-.238-1.254 2.671-.512z" clip-path="url(#aV)" style="fill:#fff;fill-opacity:1;fill-rule:nonzero;stroke:none" transform="scale(1.33333)"></path></g><g clip-path="url(#aW)" transform="matrix(1.94759 0 0 1.94759 -811.23 -1552.855)" data-source="https://football-logos.cc"><path d="m343.883 613.066-2.172.157.035.48-.543.039-.09-1.269 2.715-.2z" clip-path="url(#aX)" style="fill:#fff;fill-opacity:1;fill-rule:nonzero;stroke:none" transform="scale(1.33333)"></path></g><!-- source: https://football-logos.cc --></svg>