<svg xmlns="http://www.w3.org/2000/svg" xml:space="preserve" style="shape-rendering:geometricPrecision;text-rendering:geometricPrecision;image-rendering:optimizeQuality;fill-rule:evenodd;clip-rule:evenodd" viewBox="499.56 0 3783.87 3707"><!-- Source: https://football-logos.cc --><defs data-source="https://football-logos.cc"><linearGradient id="id0" x1="2071.98" x2="2940.31" y1="2007.66" y2="2007.55" gradientUnits="userSpaceOnUse"><stop offset="0" style="stop-opacity:1;stop-color:#ffcc29"></stop><stop offset="1" style="stop-opacity:1;stop-color:#faa954"></stop></linearGradient><style>.fil3{fill:#0098da}.fil4{fill:#3e4095}</style></defs><g id="Capa_x0020_1" data-source="https://football-logos.cc"><circle cx="2391" cy="1887" r="1549" style="fill:#bae5fa"></circle><path d="m2360 2522 288-194 288-194-96-334-96-334-347-12-347-12-118 326-119 326 273 214z" style="fill:url(#id0)"></path><path d="m1576 2190 504 497-715-450 452-713zm286-967-318 633 207-819 818 209zm1007-28-700-107 843-56 54 843zm339 948-116-698 315 784-785 312zm-801 617 629-325-649 541-539-650z" style="fill:#faa954"></path><path d="m2143 3678-425-895-978-162c121 272 310 518 565 710s544 306 838 347m-357-296-201-423-461-77c86 110 186 208 299 293 112 85 234 154 363 207" class="fil3"></path><path d="m1899 3707-339-714-780-129c121 199 281 380 479 528 197 149 415 254 640 315" class="fil4"></path><path d="m602 2191 726-675-140-981c-223 197-401 452-507 752-107 301-129 611-79 904m175-429 343-319-66-464c-79 115-142 241-189 373-47 133-77 271-88 410" class="fil3"></path><path d="m501 1967 579-538-111-783c-154 175-278 382-361 616-83 233-116 472-107 705" class="fil4"></path><path d="m3270 304-879 459-878-459c260-144 560-227 878-227 319 0 619 83 879 227m-464 22-415 217-414-217c134-36 273-54 414-54s281 18 415 54" class="fil3"></path><path d="m3092 134-701 366-700-366C1908 48 2144 0 2391 0c248 0 484 48 701 134" class="fil4"></path><path d="m2640 3678 425-895 978-162c-121 272-311 518-565 710-255 192-544 306-838 347m357-296 201-423 461-77c-86 110-186 208-299 293-112 85-234 154-363 207" class="fil3"></path><path d="m2884 3707 339-714 780-129c-121 199-281 380-479 528-197 149-415 254-640 315" class="fil4"></path><path d="m4181 2191-726-675 140-981c223 197 401 452 507 752 107 301 129 611 79 904m-175-429-343-319 66-464c78 115 142 241 189 373 47 133 77 271 88 410" class="fil3"></path><path d="m4282 1967-579-538 111-783c154 175 278 382 361 616 83 233 116 472 107 705" class="fil4"></path></g><!-- source: https://football-logos.cc --></svg>