<svg xmlns="http://www.w3.org/2000/svg" viewBox="14.17 143.86 566.93 554.17"><!-- Source: https://football-logos.cc --><path d="M291.07 233.57c-80.719 2.474-141.15 48.901-171.189 122.52-4.75 11.642-13.414 20.5-25.381 24.609-8.983 3.083-19.703 3.266-28.595-.256-8.35-3.309-15.888-8.53-21.43-15.65-12.45-15.999-11.059-35.928-3.033-53.577 46.545-102.358 134.467-162.902 247.09-167.168 37.745-1.43 75.48 5.383 110.6 19.188 70.415 27.678 129.303 82.94 157.734 153.537 5.384 13.37 6.025 27.773-1.034 40.66-5.549 10.133-15.117 17.814-25.853 21.876-8.755 3.312-19.361 3.447-28.276.737-13.501-4.106-22.777-14.112-28.193-26.903-24.208-57.178-69.274-99.883-130.317-114.501-17.023-4.076-34.6-5.736-52.123-5.072" style="fill:#000200;fill-rule:evenodd" data-source="https://football-logos.cc"></path><path d="M479.731 350.51c11.518 27.203 36.363 26.829 47.857 22.481 17.526-6.63 34.32-25.61 23.011-53.695-41.81-103.817-150.798-172.703-261.812-168.498-109.436 4.145-195.443 62.598-241.195 163.214-13.627 29.968-.604 51.67 20.802 60.15 12.771 5.06 35.917 2.208 45.233-20.625 29.827-73.098 90.869-124.073 177.223-126.72 77.094-2.92 152.462 37.673 188.881 123.692" style="fill:#007930;fill-rule:evenodd"></path><path d="M291.093 608.32c17.5.664 35.077-.996 52.1-5.072 61.043-14.618 106.109-57.323 130.317-114.501 5.416-12.791 14.692-22.797 28.193-26.903 8.915-2.71 19.521-2.575 28.276.736 10.736 4.062 20.304 11.744 25.853 21.876 7.059 12.888 6.418 27.292 1.034 40.662-17.392 43.183-46.257 80.819-82.496 109.908a289 289 0 0 1-32.631 22.685c-45.944 27.47-99.6 42.162-153.208 40.131-112.622-4.266-200.544-64.81-247.089-167.169-8.025-17.648-9.417-37.578 3.033-53.576 5.542-7.12 13.08-12.341 21.43-15.65 8.892-3.522 19.612-3.34 28.595-.256 11.967 4.109 20.631 12.967 25.381 24.61 30.04 73.617 90.47 120.045 171.212 122.52" style="fill:#000200;fill-rule:evenodd"></path><path d="M479.731 491.38c11.518-27.203 36.363-26.83 47.857-22.482 17.526 6.631 34.32 25.611 23.011 53.696-41.81 103.816-150.798 172.703-261.812 168.498-109.436-4.146-195.443-62.598-241.195-163.215-13.627-29.967-.604-51.67 20.802-60.149 12.771-5.06 35.917-2.208 45.233 20.624 29.827 73.099 90.869 124.074 177.223 126.72 77.094 2.921 152.462-37.673 188.881-123.691" style="fill:#007930;fill-rule:evenodd"></path><path d="M72.17 365.791a57.997 57.997 0 0 1 57.997 57.997 57.997 57.997 0 1 1-57.997-57.997" style="fill:#000200;fill-rule:evenodd"></path><path d="m25.763 407.662 4.709 13.11c27.089-3.657 56.417-3.745 83.513-.367l6.346-10.688-11.052-11.876-14.26 3.276-13.827-4.925H62.2l-12.37 5.9-13.233-4.043zm46.407-39.337c4.904 0 9.657.64 14.186 1.835l-5.334 23.5H63.475l-4.99-23.631a55.5 55.5 0 0 1 13.685-1.704m16.624 2.537a55.4 55.4 0 0 1 20.093 11.364l-1.105 13.36-12.61 2.897-11.702-4.168zm22.452 13.573a55.5 55.5 0 0 1 13.885 22.836l-2.948.718-11.832-12.715zm14.581 25.274a55.5 55.5 0 0 1 1.806 14.08c0 2.09-.119 4.154-.345 6.186l-7.785-.476-3.308-7.856 6.655-11.209zm1.124 22.784a55.15 55.15 0 0 1-8.59 21.997l-7.303-11.882L118.892 432zm-10.176 24.255a56 56 0 0 1-6.727 7.546l-13.631-3.946-13.315 3.662-21.168-.05-10.828-3.609-16.93 3.836a56 56 0 0 1-6.096-6.756l8.488-13.641.049.007c25.197 3.552 47.194 3.716 72.225.045zm-8.97 9.535a55.3 55.3 0 0 1-20.28 10.813l-2.493-10.99 11.368-3.125zm-22.732 11.455a55.5 55.5 0 0 1-12.903 1.514c-4.014 0-7.929-.43-11.702-1.242l2.26-11.515 19.804.046zm-27.071-.316a55.3 55.3 0 0 1-21.498-11.166l14.472-3.279 9.255 3.085zm-31.53-22.204a55.15 55.15 0 0 1-8.782-21l7.958-1.731 8.714 10.054zm-9.199-23.503a56 56 0 0 1-.566-7.927 55.5 55.5 0 0 1 2.072-15.065l4.506-.466 4.911 13.675-2.959 8.052zm2.319-25.623a55.45 55.45 0 0 1 12.686-20.829l2.267 11.22-10.285 9.126zm14.844-22.943a55.4 55.4 0 0 1 21.603-12.438l4.914 23.27-11.325 5.4-12.698-3.88zm-4.059 40.192-2.77 7.539 8.974 10.354.389.055c25.062 3.533 46.892 3.684 71.814 0l.11-.016 8.163-11.054-3.056-7.26c-27.116-3.41-56.522-3.318-83.624.382" style="fill:#fff;fill-rule:evenodd"></path><path d="M523.106 365.791a57.997 57.997 0 0 1 57.996 57.997 57.997 57.997 0 1 1-57.996-57.997" style="fill:#000200;fill-rule:evenodd"></path><path d="m476.699 407.662 4.709 13.11c27.089-3.657 56.416-3.745 83.512-.367l6.346-10.688-11.051-11.876-14.26 3.276-13.827-4.925h-18.992l-12.371 5.9-13.233-4.043zm46.407-39.337c4.903 0 9.657.64 14.185 1.835l-5.334 23.5H514.41l-4.99-23.631a55.5 55.5 0 0 1 13.686-1.704m16.623 2.537a55.4 55.4 0 0 1 20.093 11.364l-1.104 13.36-12.61 2.897-11.702-4.168zm22.453 13.573a55.5 55.5 0 0 1 13.885 22.836l-2.948.718-11.832-12.715zm14.58 25.274a55.5 55.5 0 0 1 1.807 14.08 56 56 0 0 1-.345 6.186l-7.785-.476-3.308-7.856 6.655-11.209zm1.125 22.784a55.15 55.15 0 0 1-8.59 21.997l-7.304-11.882L569.828 432zm-10.176 24.255a56 56 0 0 1-6.728 7.546l-13.63-3.946-13.315 3.662-21.169-.05-10.827-3.609-16.93 3.836a56 56 0 0 1-6.097-6.756l8.489-13.641.049.007c25.196 3.552 47.193 3.716 72.225.045zm-8.97 9.535a55.3 55.3 0 0 1-20.28 10.813l-2.494-10.99 11.368-3.125zm-22.732 11.455a55.5 55.5 0 0 1-12.903 1.514c-4.015 0-7.929-.43-11.702-1.242l2.26-11.515 19.804.046zm-27.072-.316a55.3 55.3 0 0 1-21.498-11.166l14.473-3.279 9.255 3.085zm-31.529-22.203a55.15 55.15 0 0 1-8.782-21.002l7.958-1.73 8.713 10.054zm-9.2-23.504a56 56 0 0 1-.566-7.927 55.5 55.5 0 0 1 2.072-15.065l4.506-.466 4.912 13.675-2.96 8.052zm2.32-25.623a55.45 55.45 0 0 1 12.686-20.828l2.266 11.22-10.284 9.125zm14.843-22.943a55.4 55.4 0 0 1 21.604-12.438l4.914 23.27-11.325 5.4-12.698-3.88zm-4.058 40.192-2.77 7.539 8.974 10.354.389.055c25.062 3.533 46.892 3.684 71.813 0l.11-.016 8.164-11.053-3.057-7.26c-27.116-3.411-56.521-3.319-83.623.381" style="fill:#fff;fill-rule:evenodd"></path><path d="M493.734 373.776c-17.126 10.08-28.625 28.705-28.625 50.012 0 19.498 9.627 36.751 24.387 47.266-5.987 4.772-10.5 11.232-13.652 18.68-24.524 57.921-70.233 101.171-132.061 115.978-17.247 4.13-35.056 5.812-52.78 5.14-81.734-2.505-143.049-49.55-173.468-124.095-2.585-6.338-6.387-11.799-11.314-16.025 14.509-10.542 23.946-27.641 23.946-46.944 0-21.034-11.205-39.453-27.97-49.62 6.914-4.486 12.087-11.066 15.338-19.035 30.42-74.546 91.734-121.59 173.452-124.095 17.74-.673 35.55 1.01 52.796 5.14 61.828 14.806 107.537 58.056 132.06 115.977 3.859 9.114 9.752 16.749 17.891 21.62z" style="fill:#2b3689;fill-rule:evenodd;stroke:#000200;stroke-width:.0028;stroke-linecap:butt;stroke-linejoin:miter;stroke-dasharray:none" data-source="https://football-logos.cc"></path><path d="M153.824 294.941 297.72 399.107l143.2-103.662c11.243 13.01 20.901 27.63 28.854 43.54l-127.532 92.352 119.384 86.422c-9.13 15.223-19.968 29.019-32.385 41.057l-131.521-95.24-132.233 95.756c-12.283-11.918-23.094-25.696-32.306-41.114l120.017-86.881-128.151-92.8c8.05-16.117 17.685-30.715 28.777-43.596" style="fill:#fff;fill-rule:evenodd"></path><path d="m264.288 471.848-.986-6.19-14.814-1.901 5.69-2.15-5.427-1.598-1.118-9.054-14.786-6.611 4.475-.326-4.778-1.547 3.904-5.703a52 52 0 0 1-2.406-1.918l-.466-.228-.129-.285c-1.863-1.635-3.597-3.413-5.53-5.621l-4.294-4.904 6.022 2.162-1.768-3.89 4.025-3.732-8.632-18.072 10.352 6.517-.612-9.262 5.785-.872-9.311-20.343 4.757 2.953c1.736 1.078 3.437 2.206 5.134 3.334l-.095-6.56 3.766-.003c-1.034-3.216-1.677-6.342-2.369-9.67l-1.247-6 4.144 4.515a55 55 0 0 0 4.186 4.102l.053-7.4 5.986-1.471c-1.34-2.47-2.537-4.652-3.579-7.512l-1.76-4.832 4.282 2.846c2.517 1.674 4.852 2.919 7.237 4.07l.008-4.73-11.622-7.788-.238-.379c-9.374-14.85-19.881-29.287-28.405-44.623-2.013-3.623-1.973-4.116.347-7.527 2.456-3.616 5.809-8.738 9.937-11.325l9.583-8.816c4.428-4.756 15.536-9.881 22.77-11.073l-.01-.05 14.958-4.285.045.288c5.893-1.387 12.913-1.734 18.241-1.787 4.506-.045 15.478.237 22.615 1.797l.021-.135 15.15 3.756c4.126.461 8.69 2.635 11.585 4.204 2.461 1.334 6.363 3.627 9.262 6.33l.032-.074 10.757 9.864c3.934 2.567 8.25 7.888 10.506 10.72 3.081 3.871 2.162 4.975.025 8.816-8.627 15.5-18.723 30.26-28.74 44.886l-.273.398-9.964 5.713.404 4.935c2.356-1.141 4.664-2.375 7.151-4.03l4.282-2.846-1.76 4.832c-1.215 3.336-2.642 5.75-4.26 8.774l6.37 1.408-.078 4.986a55 55 0 0 0 3.77-3.73l4.144-4.517-1.247 6.002c-.723 3.475-1.393 6.73-2.509 10.098l-.109.328-.228.258q-.188.213-.374.412l5.465 1.965-.03 3.969c1.676-1.113 3.353-2.225 5.065-3.288l4.757-2.953-9.813 21.44 6.89 1.17-1.232 7.878 10.37-6.527-8.777 18.372 3.432 1.188-2.462 6.646 7.453-2.675-4.294 4.904c-3.301 3.772-6.027 6.293-9.798 8.98l4.874 4.657-5.575 2.43 5.569.405-15.88 7.1-.392 7.41-6.263 2.696 6.792 2.98-15.959 1.208-1.02 6.895 3.12.434-20.04 5.536-.588.551c4.374.519 8.62 2.274 12.415 5.558l3.52 3.045-8.627 1.202.967 9.726-4.093-3.812c-1.383-1.288-6.559-5.458-8.668-4.309-1.025.559-.996 3.066-.942 3.997l.003.064v.062q-.014 6.941-.023 13.881c4.422-2.78 9.87-4.947 14.639-5.707 7.275-1.029 8.972-2.038 13.987-7.076 8.352-8.39 13.087-23.369 18.895-33.92l1.655-3.005 12.452 18.21c7.024-6.27 17.79-16.864 19.67-24.957 3.036-13.084 1.393-31.464-1.55-44.515-2.736-12.129-6.125-22.943-10.853-34.442l-3.427-8.335 30.945 27.167c.177-16.993 1.189-34.043-.555-50.98-1.3-12.632-4.498-25.301-8.537-37.32l-3.428-10.205 7.03 8.155c9.321 10.814 18.486 21.677 26.327 33.64 5.298 8.084 11.293 15.79 15.767 24.385 7.735 14.86 12.414 30.214 15.733 46.512 8.313-.606 16.572-.328 24.883.39l4.179.362-10.852 12.268c-14.77 16.697-19.09 36.954-28.28 56.546-6.168 13.149-19.223 23.765-31.794 31.162l29.126 22.295-7.079-.534c-20.123-1.516-40.412-2.266-60.59-2.319-14.15-.036-26.973 1.324-40.717 4.766-9.667 2.42-22.599 7.79-24.272 19-.212 1.417-.325 2.954-.385 4.51.052 3.381.075 6.792-.041 10.134.025 2.23.06 4.458.065 6.687.01 3.64-1.852 6.31-5.536 6.818-2.605.358-4.458-1.36-6.903-1.684a12 12 0 0 1-1.078-.036q-.539.042-1.078.036c-2.445.323-4.298 2.042-6.904 1.684-3.683-.509-5.545-3.177-5.535-6.818.006-2.228.04-4.455.065-6.683-.117-3.344-.093-6.756-.041-10.137-.06-1.557-.173-3.094-.385-4.511-1.673-11.21-14.605-16.58-24.272-19-13.744-3.442-26.567-4.802-40.716-4.765-20.18.052-40.468.802-60.591 2.318l-7.08.534 29.127-22.295c-12.571-7.397-25.626-18.013-31.793-31.162-9.19-19.592-13.511-39.849-28.28-56.546l-10.853-12.268 4.179-.361c8.31-.72 16.57-.997 24.883-.39 3.32-16.3 7.998-31.653 15.733-46.513 4.474-8.595 10.47-16.301 15.767-24.384 7.841-11.964 17.006-22.827 26.328-33.641l7.029-8.155-3.428 10.205c-4.04 12.019-7.237 24.688-8.537 37.32-1.744 16.938-.732 33.987-.555 50.98l30.945-27.167-3.427 8.335c-4.728 11.5-8.117 22.313-10.853 34.442-2.943 13.051-4.586 31.43-1.55 44.515 1.88 8.094 12.646 18.686 19.67 24.956l12.452-18.21 1.655 3.007c5.808 10.55 10.543 25.53 18.896 33.919 5.014 5.038 6.711 6.047 14.005 7.08 4.755.757 10.199 2.923 14.62 5.703-.008-4.627-.013-9.253-.023-13.88v-.063l.003-.064c.054-.931.083-3.438-.942-3.997-2.11-1.149-7.285 3.021-8.668 4.309l-4.093 3.812.967-9.726-8.627-1.202 3.52-3.045c4.198-3.632 8.948-5.395 13.814-5.682l-1.317-1.194-20.324-5.613z" style="fill:#000200;fill-rule:evenodd"></path><path d="m299.158 490.61 7.124-7.302 10.21-9.587 12.898-2.629 1.05-7.089 15.269-6.57.555-10.487 14.007-6.105-3.936-4.31 5.506-6.306 3.682-9.94-6.33-2.189 2.859-18.278-6.731-1.142.147-19.449-9.045-3.252.197-12.34-11.162-2.467-1.007-12.305-4.311-3.014 32.394-66.945-7.453-6.894-29.1 68.072-3.122-6.507-6.82 11.357-3.153-.997 18.58-84.254-11.357-2.738-13.267 83.853-4.538-8.265-5.473 4.755-3.606-6.045-4.658 9.08-12.903-83.596-10.942 3.09 17.337 84.814-2.842.588-6.456-11.916-3.866 6.324-28.456-68.04-7.963 7.264 33.124 67.473-3.577 2.758.12 11.163-12.231 3.006-.106 14.903-8.384.005.292 20.201-6.47.976 1.172 17.712-5.987 5.55 4.756 10.464 4.76 2.337-4.063 5.936 13.219 4.28 1.575 12.762 14.273 4.203 1.21 7.594 14.966 4.087z" style="fill:#fff;fill-rule:evenodd"></path><path d="M184.215 506.646c-13.252-7.355-27.354-18.296-33.69-31.803-9.38-20-13.397-39.848-28.61-57.047l-8.073-9.128c8.899-.769 17.49-1.033 26.403-.238 3.301-16.784 7.877-32.373 15.905-47.793 4.353-8.365 10.494-16.32 15.659-24.202 7.868-12.005 16.823-22.586 26.162-33.42-4.451 13.247-7.428 26.049-8.636 37.776-1.914 18.591-.535 37.109-.54 55.837l27.652-24.276c-5.08 12.356-8.008 21.695-10.96 34.781-2.987 13.24-4.645 32.108-1.547 45.457 2.068 8.91 13.588 20.215 22.12 27.64l11.863-17.346c6.675 12.124 10.743 25.845 19.249 34.39 4.463 4.483 6.332 6.424 15.178 7.676 5.82.927 12.696 4.122 17.063 7.729-.01-5.154-.02-12.843-.031-17.997.532-9.255-6.742-7.33-13.157-1.354l.615-6.18-6.028-.84c7.137-6.175 17.023-7.01 27.006-1.712 9.982-5.299 19.869-4.463 27.005 1.712l-6.028.84.615 6.18c-6.415-5.976-13.69-7.901-13.156 1.354-.011 5.154-.021 12.843-.032 17.997 4.367-3.607 11.243-6.802 17.063-7.73 8.846-1.25 10.716-3.192 15.178-7.675 8.507-8.545 12.574-22.266 19.249-34.39l11.863 17.346c8.532-7.425 20.052-18.73 22.12-27.64 3.098-13.35 1.44-32.218-1.546-45.457-2.952-13.086-5.88-22.425-10.96-34.781l27.652 24.276c-.006-18.728 1.373-37.246-.541-55.837-1.208-11.727-4.185-24.53-8.636-37.776 9.34 10.834 18.295 21.415 26.162 33.42 5.165 7.881 11.306 15.837 15.66 24.202 8.027 15.42 12.603 31.009 15.904 47.793 8.914-.795 17.505-.531 26.403.238l-8.073 9.128c-15.213 17.199-19.23 37.048-28.61 57.048-6.335 13.507-20.438 24.447-33.69 31.802l26.014 19.912c-19.522-1.47-40.857-2.273-60.745-2.324-14.574-.038-27.021 1.269-41.234 4.828-10.576 2.648-24.022 8.508-25.848 20.737-.74 4.96-.397 16.61-.383 21.648.009 3.026-1.487 4.414-3.713 4.721-1.973.272-3.607-1.404-6.47-1.71q-.617.021-1.223-.037-.608.057-1.224.038c-2.863.305-4.497 1.981-6.47 1.71-2.225-.308-3.72-1.696-3.712-4.722.013-5.038.357-16.688-.384-21.648-1.825-12.229-15.272-18.089-25.847-20.737-14.213-3.56-26.66-4.865-41.235-4.828-19.888.051-41.223.853-60.744 2.324z" style="fill:#007930;fill-rule:evenodd"></path><path d="M172.264 355.456c-9.429 30.655-8.658 56.97-2.054 78.568 3.706 12.115 9.568 21.948 15.718 32.177 15.603 25.955 49.189 46.194 83.194 54.054-36.318-5.559-66.771-19.915-86.703-47.483-10.892-15.066-17.587-31.266-20.509-48.444-3.757-22.087-.976-45.641 10.354-68.872m-33.279 64.125 17.962 17.537-.35-2.524-.817-5.894zm317.665 0-17.961 17.537.35-2.524.816-5.894zm-262.615-11.69-16.561 31.097 3.498 8.885zm207.565 0 16.562 31.097-3.499 8.885zm21.771-52.435c9.43 30.654 8.658 56.97 2.054 78.568-3.706 12.115-9.568 21.948-15.718 32.177-15.603 25.955-49.188 46.194-83.194 54.054 36.318-5.559 66.771-19.915 86.703-47.483 10.892-15.066 17.587-31.266 20.509-48.444 3.757-22.087.976-45.641-10.354-68.872m-44.852 155.43 8.31-4.63 10.87 5.184zm-25.596-7.089 7.611-4.006-1.12-12.214zm-55.105 61.37c.993.086.875 1.524 1.524 1.919 2.074 1.267 3.975-.056 3.97-1.534a427 427 0 0 0-.024-3.26c.034-3.562-.07-6.685.148-9.693.256-3.556.877-7.38 2.423-10.61 4.822-10.07 16.141-14.86 27.105-17.605 14.86-3.721 28.973-4.253 44.267-4.213 14.425.037 31.857.48 45.374 1.365l-20.559-16.294c14.206-6.305 30.49-17.51 37.712-32.909 8.743-18.639 13.784-40.578 29.534-59.246-6.818-.386-12.49-.16-18.718.407-6.519-36.354-15.349-50.488-30.637-73.819-4.478-6.833-9.619-15.22-15.106-21.894 3.635 12.588 6.055 17.863 6.96 27.503 1.61 17.167 1.605 40.923.82 61.33l-21.483-17.904c7.144 26.092 8.759 51.242 5.27 66.273-2.757 11.88-15.029 21.886-27.849 33.176l-10.96-15.303c-7.588 16.996-12.483 25.603-18.158 31-5.157 4.904-8.496 5.07-15.214 6.139-4.313.687-9.02 2.752-12.699 5.132-2.488 1.611-5.59 3.986-9.8 7.599l.047-24.556c-.719-.612-3.274-3.165-4.08-3.165-1.304 1.107-2.602 2.135-3.814 3.165l.046 24.556c-4.21-3.613-7.312-5.988-9.8-7.599-3.678-2.38-8.386-4.445-12.699-5.132-7.517-1.197-11.11-1.656-16.618-7.558-5.104-5.47-9.798-14.001-16.753-29.581l-10.961 15.303c-12.82-11.29-25.091-21.295-27.848-33.176-3.49-15.031-1.875-40.181 5.27-66.273l-21.483 17.905c-.786-20.408-.79-44.164.82-61.331.904-9.64 3.324-14.915 6.959-27.503-5.487 6.674-10.627 15.06-15.106 21.894-15.288 23.331-24.118 37.465-30.637 73.82-6.229-.568-11.9-.795-18.718-.408 15.75 18.668 20.791 40.607 29.534 59.246 7.223 15.4 23.506 26.604 37.712 32.909l-20.559 16.294c13.517-.885 30.95-1.328 45.374-1.365 15.295-.04 29.407.491 44.268 4.213 11.257 2.82 22.888 7.792 27.478 18.425 1.398 3.243 1.924 7.205 2.105 10.696.142 2.732.062 5.582.092 8.787a448 448 0 0 0-.024 3.26c-.004 1.477 1.896 2.8 3.97 1.534.649-.395.532-1.833 1.525-1.919m-80.702-54.282-8.31-4.63-10.87 5.185zm25.596-7.088-7.61-4.006 1.119-12.214z" style="fill:#fff;fill-rule:evenodd"></path><path d="m290.727 448.63 7.542-20.55 5.983 20.29c-4.508-3.005-9.017-2.284-13.525.26M342.726 432.286l-6.754.596 1.201-9.001 7.342-8.423zM313.345 463.912l-1.327-5.604 9.7-4.051zM332.808 451.437l1.255-7.629 7.119-2.026zM328.264 444.141c-3.145 2.58-6.771 2.875-10.387 3.212 4.333-5.024 8.208-10.67 11.667-16.883q-.64 6.836-1.28 13.671M348.604 405.938l-6.859 3.27c.529-5.622 2.413-10.875 5.482-15.808-.24 4.087-.324 8.197 1.377 12.538M304.753 365.959c1.312 1.297 1.647 2.603 2.96 3.902 1.492-.834 2.404-2.01 4.476-2.5-1.338-4.826-1.23-8.536-2.723-12.454-.964 2.784-4.212 6.057-4.713 11.052M300.013 351.56l2.69 3.556 3.205-2.503c-2.039-4.547-2.542-8.395-3.512-12.049-.596 3.691-1.787 7.306-2.383 10.997M301.41 389.94q1.92 2.535 3.836 5.07l4.568-3.57c-2.904-6.48-3.622-11.969-5.005-17.177-.851 5.263-2.547 10.415-3.4 15.677M300.517 417.723l3.836 5.07 4.568-3.57c-3.987-4.942-5.234-10.989-5.85-17.287q-1.276 7.894-2.554 15.787M325.778 423.314l.646-11.273c2.674-4.532 6.384-8.693 10.636-12.662-1.861 5.64-3.35 11.33-3.602 17.18zM327.86 394.863l.645-11.272 8.37-8.928-1.335 13.446zM316.854 361.442c-.64-3.154-.875-4.75-1.908-6.208 2.743-2.488 5.686-5.335 8.86-9.792.665 5.974.059 7.917-.387 10.974-1.901 3.38-4.14 3.887-6.565 5.026M312.623 383.253c-.24-4.082-.253-6.13-1.295-8.176 3.903-2.514 8.119-5.429 12.913-10.307-.228 7.613-1.34 9.91-2.449 13.633-2.998 3.81-5.91 3.956-9.169 4.85M312.211 411.557c-.242-4.083-.48-7.771-1.522-9.817 3.902-2.515 7.244-6.62 10.034-12.296.649 7.324.795 10.592.63 14.707-3 3.809-6.07 5.817-9.142 7.406M313.155 438.306c-.579-4.05-1.123-7.706-2.329-9.644 3.669-2.905 6.647-7.34 8.947-13.29 1.253 7.245 1.671 10.492 1.848 14.614-2.662 4.108-5.546 6.422-8.466 8.32M302.828 473.55l-2.262-4.504c1.643-2.977 2.882-6.29 3.74-11.52.952 4.792 1.785 7.19 3.882 9.98-1.91 2.687-3.248 4.818-5.36 6.045M250.749 432.072l7.255 1.45-.476-8.99-7.174-9.21zM282.327 463.63l1.95-5.332-10.127-5.22zM262.33 452.253l-.659-7.65-7.518-2.903zM266.234 443.045c3.169 2.936 7.065 3.69 10.947 4.485-4.228-5.488-7.905-11.528-11.08-18.07zM246.87 405.56l7.123 4.09c-.056-5.587-1.614-10.988-4.485-16.223-.113 4.045-.4 8.09-2.638 12.134M291.135 367.025c-1.539 1.107-2.023 2.345-3.561 3.452-1.54-1.01-2.419-2.282-4.617-3.026 1.892-4.568 2.115-8.224 4.089-11.88.79 2.858 4.003 6.486 4.089 11.454M295.903 351.715l-3.238 3.146-3.239-2.868c2.622-4.201 3.52-7.915 4.904-11.378.31 3.7 1.263 7.4 1.573 11.1M293.641 390.604l-4.616 4.484-4.616-4.089c3.738-5.991 5.017-11.286 6.99-16.223.44 5.276 1.803 10.552 2.242 15.828M295.33 418.697l-4.617 4.486-4.616-4.09c4.768-4.343 6.67-10.118 7.914-16.223q.66 7.914 1.32 15.827M269.074 423.652l.336-11.15c-2.48-4.791-6.114-9.351-10.353-13.791 1.498 5.775 2.589 11.55 2.325 17.326zM266.91 395.27l.335-11.15-8.24-9.837.214 13.371zM233.524 417.828l10.62 6.145-1.998-9.815-14.836-9.339zM240.646 437.664c1.187-1.494 2.375-3.175 3.562-4.669l-15.02-5.392c4.057 4.636 6.381 6.67 11.458 10.061M264.782 459.405l6.512 5.577-15.877-2.039zM249.668 444.812l3.181 6.625-13.187-5.896zM283.727 476.58l-2.259-5.423-11.546 1.61zM244.154 387.73c-3.705-2.3-5.76-3.891-10.804-7.022l8.223 17.965zM253.271 380.787l.624-4.736c-3.1-2.372-6.733-4.756-11.564-10.02 1.156 5.563 1.478 6.954 2.458 9.91 2.774 3.14 5.406 3.956 8.482 4.846M264.536 365.594l1.39-6.271c-3.843-1.814-7.987-3.217-14.119-7.294 1.59 4.365 3.405 7.134 4.264 8.745 1.466 2.748 5.01 3.785 8.465 4.82M363.343 416.984l-10.62 6.145 1.998-9.815 14.836-9.34zM356.22 436.82c-1.187-1.494-2.374-3.175-3.561-4.67l15.02-5.391c-4.058 4.635-6.382 6.67-11.458 10.06M332.232 459.334l-6.794 5.23 15.962-1.208zM347.199 444.812l-3.181 6.625 13.186-5.896zM312.295 477.425l2.259-5.423 11.546 1.61zM352.713 386.885c3.704-2.3 5.76-3.89 10.804-7.022l-8.224 17.966zM342.75 379.098l-.622-4.735c3.1-2.373 6.732-4.757 11.564-10.02-1.157 5.563-1.48 6.953-2.459 9.91-2.774 3.139-5.406 3.955-8.482 4.845M332.33 364.75l-1.39-6.271c3.843-1.814 7.988-3.218 14.12-7.294-1.59 4.364-3.405 7.134-4.264 8.744-1.466 2.748-5.01 3.786-8.466 4.82M278.444 361.133c.98-3.014 1.382-4.551 2.634-5.848-2.74-2.796-5.666-5.968-8.693-10.75-1.266 5.78-.787 7.765-.585 10.823 1.747 3.561 4.125 4.348 6.644 5.775M281.868 383.933c.636-3.977.836-5.985 2.151-7.861-3.992-2.968-8.289-6.37-13.03-11.774-.45 7.504.543 9.902 1.402 13.7 2.894 4.123 6.034 4.64 9.477 5.935M282.317 411.974c.636-3.977 1.231-7.568 2.547-9.444-3.993-2.967-7.235-7.425-9.734-13.356-1.372 7.107-1.83 10.297-2.028 14.358 2.896 4.125 6.036 6.487 9.215 8.441M282.284 439.159c.998-3.902 1.921-7.421 3.403-9.17-3.703-3.321-6.52-8.057-8.465-14.194-2.02 6.952-2.768 10.087-3.338 14.112 2.504 4.373 5.412 7.015 8.4 9.252M292.904 473.61l2.86-4.131c-1.505-3.136-2.543-6.545-2.992-11.79-1.47 4.582-2.59 6.83-5.116 9.301 1.822 2.882 3.075 5.145 5.248 6.62M260.305 347.634l-10.392-6.965c-9.33-14.78-20.56-30.515-28.346-44.522-1.605-2.889-1.587-2.615.249-5.315 2.53-3.724 5.556-8.22 8.983-10.52l32.132 65.366zm-18.223-77.68c4.48-3.933 14.391-8.388 20.537-9.46l16.433 79.987-6.18-11.408-3.623 5.925zm35.594-13.461c11.708-2.766 31.337-1.996 40.438.069l-12.387 77.816-2.832-5.157-5.543 4.817-4.267-7.151-3.43 6.688zm55.772 3.66c3.057.414 6.813 1.919 10.51 3.923 3.567 1.932 7.082 4.262 9.37 6.54l-27.46 64.351-2.801-5.838-7.516 12.514zm30.746 20.162c3.136 2.187 6.948 6.634 9.676 10.06 2.36 2.965 1.667 3.175-.168 6.474-8.295 14.904-18.428 29.813-28.637 44.72l-9.54 5.469-2.702-1.888z" style="fill:#007930;fill-rule:evenodd"></path><path d="m296.273 669.07.295-30.934a512 512 0 0 0 13.592-.211l.288 22.137c6.958-.353 12.214-.673 19.146-1.379l.714 8.378c-11.589 1.01-22.405 1.708-34.035 2.008M336.84 666.216l-4.395-31.109a510 510 0 0 0 13.433-2.086l3.757 22.317c6.843-1.311 12.004-2.354 18.772-4.01l1.865 8.198c-11.339 2.602-21.954 4.787-33.432 6.69M438.823 628.202l-17.267-26.03a510 510 0 0 0 11.22-7.674l12.903 18.373c5.61-4.132 9.817-7.298 15.21-11.71l5.216 6.594c-9.109 7.235-17.746 13.782-27.282 20.447M411.966 622.514c-2.133-3.152-5.333-3.678-8.772-1.99-4.01 1.971-5.497 6.667-3.53 11.22 2.126 4.919 6.222 6.585 11.101 4.246 3.205-1.537 5.013-4.182 4.006-7.77l11.803-6.41c3.788 9.311-3.817 17.595-12.519 21.732-9.636 4.582-21.986 5.64-26.406-6.548-3.65-10.06 2.235-18.608 11.766-23.323 8.416-4.165 18.687-4.655 23.804 2.732zM460.614 570.642l10.631 10.926c2.203 2.262 3.937 3.679 5.596 3.743 1.65.064 3.467-.91 5.377-2.933 1.912-2.025 2.78-3.886 2.616-5.514-.163-1.625-1.673-2.989-4.08-5.05l-11.543-9.88c3.002-3.288 6.013-7.225 8.918-10.623l12.975 10.027c10.443 8.069 4.301 19.22-3.304 27.296-7.608 8.08-17.5 13.09-25.922 3.522l-10.892-12.372c3.115-2.963 6.587-6.102 9.628-9.142M510.045 545.695c1.743-2.81 2.728-4.331 4.37-7.207 1.13-1.983 1.662-3.37 1.656-4.125-.005-.747-.43-1.335-1.272-1.736-.859-.408-1.617-.383-2.263.058-.647.441-1.488 1.618-2.563 3.49-1.597 2.783-2.53 4.21-4.231 6.927q2.154 1.29 4.303 2.593m-13.518-8.14c1.233.742 2.465 1.486 3.695 2.221 1.552-2.46 2.344-3.629 3.813-6.151.952-1.633 1.402-2.777 1.398-3.413-.004-.614-.371-1.105-1.105-1.462-.737-.358-1.362-.378-1.89-.072-.515.299-1.239 1.288-2.214 2.953-1.432 2.443-2.186 3.536-3.697 5.924m-.054-13.983c2.1-3.768 4.001-6.255 5.845-7.448 1.847-1.196 3.963-1.375 6.422-.454 1.355.508 2.416 1.281 3.16 2.364.742 1.08 1.14 2.445 1.178 4.046 1.288-1.584 2.673-2.623 4.155-3.141 1.466-.514 3.05-.497 4.757.121 2.604.944 4.306 2.742 4.894 5.428.587 2.692-.047 6.26-2.148 10.491-2.405 4.845-5.114 9.544-7.957 14.13-2.839 4.577-5.884 8.99-8.976 13.316-4.12-2.98-8.242-5.968-12.36-8.95-4.12-2.983-8.247-5.969-12.368-8.956 2.373-3.356 4.744-6.76 6.983-10.253a202 202 0 0 0 6.415-10.694M218.99 648.98c2.847.947 4.09 1.44 6.955 2.317 1.983.606 3.321.787 4.003.6.69-.188 1.165-.753 1.416-1.682.256-.947.132-1.706-.366-2.236-.499-.531-1.709-1.074-3.605-1.655-2.808-.862-3.998-1.336-6.783-2.264q-.814 2.464-1.62 4.92m5.09-15.472-1.392 4.23c2.573.86 3.548 1.26 6.143 2.066 1.685.522 2.83.692 3.415.532q.883-.239 1.215-1.46c.22-.816.145-1.44-.223-1.887-.362-.437-1.419-.918-3.158-1.458-2.543-.792-3.469-1.18-6-2.023m13.282-3.5c3.993 1.188 6.686 2.548 8.09 4.157 1.41 1.62 2.01 3.814 1.234 6.476-.587 2.01-2.606 3.889-5.549 4.599 3.007 1.843 4.558 6.435 3.594 9.674-2.078 6.978-8.156 7.497-13.978 5.92a251 251 0 0 1-13.836-4.194c-4.56-1.523-9.076-3.177-13.572-4.832l5.634-14.698c1.877-4.898 3.756-9.804 5.633-14.708 3.741 1.373 7.504 2.725 11.3 3.994a357 357 0 0 0 11.45 3.612M264.949 656.424l8.579 1.233c-.494-1.922-.942-4.385-1.382-6.3-.441-1.918-.864-3.848-1.257-5.77a356 356 0 0 1-2.698 5.264c-.921 1.754-2.272 3.832-3.242 5.573m-20.379 7.55c8.132-9.416 14.41-18.218 20.732-28.385 4.464.709 8.87 1.166 13.357 1.654 3.423 11.498 7.855 21.545 13.145 32.121-5-.203-9.98-.544-14.965-.982-.333-1.064-1.116-3.444-1.43-4.513-4.968-.505-8.645-1.02-13.593-1.702-.593.966-2.006 3.158-2.604 4.117q-7.334-1.065-14.642-2.31M173.134 637.866q2.714-5.087 5.429-10.178 2.712-5.09 5.432-10.177a453 453 0 0 1-5.277-2.831 389 389 0 0 1-5.216-2.91c.68-1.12 1.367-2.24 2.051-3.358l2.057-3.36c5.139 2.871 10.316 5.72 15.578 8.398s10.616 5.177 15.983 7.606l-1.397 3.633-1.394 3.627a355 355 0 0 1-5.477-2.455c-1.815-.835-3.628-1.7-5.436-2.566l-4.754 10.442c-1.583 3.478-3.168 6.962-4.748 10.438a470 470 0 0 1-6.45-3.094 469 469 0 0 1-6.38-3.215M140.882 597.551c-3.541 4.244-2.591 8.76 1.665 12.037 4.212 3.24 8.772 3.146 11.968-1.351 3.01-4.236 2.357-8.713-1.752-11.9-4.11-3.19-8.526-2.81-11.881 1.214m-10.505-9.314c8.899-8.37 18.877-4.744 27.243 1.794 8.082 6.315 14.534 15.668 8.745 25.789-6.347 11.095-20.21 6.619-28.699.105-8.741-6.708-16.857-18.688-7.29-27.688M106.797 561.272c-2.176 1.585-3.404 3.405-3.643 5.49-.24 2.087.522 4.306 2.327 6.59 1.799 2.275 3.765 3.546 5.823 3.82 2.05.272 4.083-.48 6.114-2.216 3.95-3.376 4.406-7.877 1.199-11.969-1.666-2.125-3.503-3.318-5.512-3.621-2.02-.306-4.12.31-6.308 1.906m-7.73-12.147c9.687-6.089 19.532.885 25.796 8.93 6.3 8.09 10.197 19.173 1.878 27.34-8.81 8.65-20.89 1.299-27.537-7.086-6.566-8.283-11.533-22.02-.137-29.183M63.364 520.13c4.588-2.095 9.183-4.188 13.776-6.281 4.59-2.093 9.19-4.184 13.784-6.282 2.512 4.96 5.136 9.897 7.965 14.707 2.833 4.815 5.824 9.524 8.808 14.215l-6.124 4.29c-3.785-5.922-7.565-11.71-11.036-17.836-1.214.69-2.914 1.664-4.125 2.357a320 320 0 0 0 4.416 7.694 372 372 0 0 0 4.728 7.687l-6.22 4.56c-1.673-2.67-3.336-5.354-4.936-8.077-1.603-2.725-3.053-5.333-4.576-8.106l-9.66 5.084c-2.392-4.614-4.636-9.287-6.8-14.011M87.242 339.333c1.29-3.15 2.348-5.64 3.694-8.76.93-2.157 1.387-3.617 1.345-4.402-.042-.784-.493-1.373-1.35-1.758-.872-.393-1.633-.333-2.257.177-.63.516-1.442 1.839-2.37 3.965a412 412 0 0 0-3.778 8.861c1.574.638 3.144 1.274 4.716 1.917m-14.814-6.026q2.028.823 4.05 1.65c1.268-3.066 2.316-5.461 3.657-8.496.868-1.963 1.321-3.294 1.304-4.01-.017-.704-.394-1.226-1.142-1.56q-1.13-.504-1.93.113c-.527.41-1.283 1.646-2.212 3.727-1.367 3.06-2.446 5.486-3.727 8.577m-.183-17.244c2.354-4.948 4.598-8.166 6.638-9.7 2.025-1.524 4.233-1.682 6.646-.497 1.329.653 2.3 1.613 2.94 2.881.636 1.26.911 2.796.834 4.592 1.424-1.736 2.94-2.827 4.53-3.272 1.587-.444 3.22-.256 4.895.577 2.558 1.271 3.996 3.273 4.343 5.98.346 2.706-.402 6.116-2.22 10.294a606 606 0 0 0-6.08 14.403c-1.953 4.822-3.79 9.69-5.59 14.566q-7.186-2.639-14.366-5.284l-14.371-5.292c1.597-5.006 3.323-9.98 5.327-14.843 2.002-4.862 4.213-9.652 6.474-14.405M93.426 279.746l11.885 8.715c2.44 1.79 4.49 2.561 6.135 2.306 1.64-.248 3.317-1.545 5.029-3.88q2.567-3.501 2.183-5.942c-.255-1.629-1.613-3.344-4.065-5.142l-11.885-8.716 8.887-12.117 12.772 9.365q6.328 4.644 6.031 11.226-.302 6.575-7.33 16.161-6.977 9.511-13.207 11.808c-4.157 1.527-8.337.756-12.534-2.322l-12.772-9.366ZM147.754 236.856c-2.345-2.598-5.847-1.729-8.912.732-3.77 3.028-4.852 8.09-1.155 12.18 3.524 3.903 7.908 3.839 11.836.542 2.646-2.22 3.967-5.167 2.417-8.473l11.965-8.987c3.687 8.34-2.264 17.797-9.276 23.53-7.97 6.518-18.003 11.894-27.105 3.193-9.54-9.12-.828-23.149 6.624-28.66 7.621-5.636 18.803-10.606 25.748-3.132zM175.92 239.207q-4.149-6.376-8.295-12.754c-2.763-4.25-5.53-8.507-8.293-12.762a291 291 0 0 1 5.92-3.653 299 299 0 0 1 6.044-3.489q1.295 2.28 2.603 4.552 1.306 2.273 2.607 4.55c.936-2.528 1.888-5.061 2.905-7.576a279 279 0 0 1 3.222-7.583 554 554 0 0 1 8.428-4.213 845 845 0 0 1 8.481-4.066c-3.25 5.813-7.448 11.715-10.335 17.676 5.54 1.694 14.316 4.82 23.685 9.681a480 480 0 0 0-7.419 3.384 337 337 0 0 0-6.871 3.304 134 134 0 0 0-14.762-7.368c-.985 2.113-1.394 3.3-2.326 5.42 1.625 2.831 3.214 5.685 4.84 8.517a267 267 0 0 0-5.268 3.13 321 321 0 0 0-5.166 3.25M219.175 217.84l-9.7-28.549 11.063-3.758 9.699 28.549zM385.159 220.582l11.362-27.928 10.821 4.403-11.362 27.928zM238.413 211.342c-1.22-5.046-2.442-10.1-3.66-15.148q-1.83-7.576-3.658-15.158c6.184-1.515 12.408-2.916 18.697-3.988 6.293-1.072 12.626-1.845 18.946-2.574.237 2.517.295 5.061.536 7.574-3.896.455-7.611.898-11.503 1.464-3.892.567-7.026 1.11-10.894 1.822q.344 1.817.683 3.636c3.09-.578 5.439-.996 8.542-1.471a391 391 0 0 1 9.327-1.294l.862 7.586c-3.02.408-6.039.81-9.05 1.274-3.013.466-5.27.873-8.269 1.435q.381 2.006.755 4.009c3.816-.71 6.911-1.249 10.751-1.813 3.837-.564 7.14-.959 10.98-1.456.124 1.321.24 2.637.361 3.954l.364 3.95c-5.753.79-10.981 1.442-16.721 2.431-5.735.988-11.417 2.319-17.049 3.767M491.19 315.952l27.537-14.49c1.6 3.255 3.2 6.526 4.764 9.808a306 306 0 0 1 4.546 9.942 316 316 0 0 1 4.155 10.105c1.332 3.389 2.598 6.803 3.854 10.22-2.41.81-4.74 1.214-7.138 2.024-3.017-8.25-6.235-16.317-9.978-24.319-1.123.513-2.248 1.03-3.375 1.539 1.454 3.287 2.639 6.341 4.016 9.65a460 460 0 0 1 4.007 10.003q-3.615 1.304-7.217 2.601a603 603 0 0 0-3.918-9.696c-1.343-3.222-2.487-6.18-3.885-9.378-1.24.57-2.488 1.134-3.727 1.699.88 2.037 1.768 4.435 2.558 6.279.79 1.848 1.579 3.7 2.425 5.76.843 2.052 1.607 3.97 2.362 5.886.753 1.912 1.485 3.844 2.285 5.919-1.266.422-2.524.835-3.788 1.255-1.26.419-2.518.845-3.774 1.265-4.811-12.225-9.855-24.305-15.71-36.072M306.976 203.66c.043-3.854.091-7.72.138-11.574.046-3.857.059-7.163.106-11.024-2.319-.032-3.801-.01-6.111-.007a469 469 0 0 0-6.944.077c-.025-1.305-.058-2.62-.084-3.925-.027-1.308-.027-3.177-.051-4.488 7.249-.094 14.521-.121 21.782.181 7.265.302 14.514.932 21.745 1.656-.11 1.295-.245 3.15-.348 4.442l-.315 3.883a318 318 0 0 0-6.954-.679 357 357 0 0 0-6.967-.509c-.181 3.841-.337 7.13-.521 10.965-.183 3.836-.364 7.683-.546 11.519-2.35-.117-4.697-.224-7.042-.304-2.347-.08-5.54-.17-7.888-.213zM446.469 257.945l15.853-15.972-7.738-7.68 5.387-5.428 23.799 23.622-5.387 5.428-7.769-7.711-15.853 15.971zM338.637 206.379c.945-5.106 1.896-10.215 2.845-15.32s1.9-10.217 2.852-15.328c4.533.752 9.546 1.816 14.017 2.874-.416 1.756-.822 3.512-1.234 5.265-.41 1.752-.814 3.515-1.225 5.269 2.451.596 4.366 1.07 6.803 1.73 2.434.66 4.502 1.27 6.931 1.986.492-1.705.99-3.41 1.48-5.118.494-1.712.99-3.417 1.487-5.125a474 474 0 0 1 13.42 4.46q-2.463 7.197-4.913 14.39-2.454 7.192-4.902 14.386a364 364 0 0 0-12.171-3.642c.573-1.992 1.147-3.988 1.723-5.978.577-1.993 1.161-3.993 1.74-5.987a354 354 0 0 0-6.751-1.874 239 239 0 0 0-6.62-1.642c-.477 2.05-.954 4.106-1.432 6.152-.479 2.046-.957 4.1-1.428 6.146a478 478 0 0 0-12.622-2.644M406.943 220l12.285 7.016c-.308.761-.178 1.557.39 2.397.574.833 1.538 1.643 2.908 2.428 1.371.785 2.482 1.212 3.343 1.29.853.08 1.461-.198 1.818-.82q.477-.833-.12-1.85c-.396-.666-1.165-1.436-2.305-2.29l-7.035-5.273c-2.915-2.177-4.795-4.368-5.632-6.588-.838-2.22-.625-4.424.63-6.615 1.678-2.928 4.1-4.372 7.27-4.345 3.173.03 7.379 1.55 12.626 4.556q8.18 4.684 10.998 8.98c1.885 2.869 2.12 5.778.701 8.742l-11.779-6.749q.514-1.354-.422-2.72-.929-1.363-3.263-2.703c-1.135-.65-2.113-1.002-2.945-1.061-.822-.063-1.39.173-1.695.704-.283.495-.248 1.021.104 1.568q.528.818 2.707 2.513l8.484 6.593c2.654 2.073 4.329 4.148 5.033 6.235q1.047 3.127-.796 6.345c-1.837 3.206-4.611 4.744-8.325 4.605q-5.568-.207-14.787-5.488c-4.878-2.795-8.195-5.698-9.939-8.702-1.75-3.007-1.833-5.926-.254-8.767M468.802 281.697c3.996-3.21 7.844-6.317 11.841-9.527 3.999-3.21 8.002-6.426 12.005-9.636a242 242 0 0 1 4.709 5.967c1.53 2.02 3.187 4.646 4.663 6.718l-9.14 6.49q-4.567 3.246-9.13 6.493c2.06 3.022 3.937 5.504 5.907 8.587 1.968 3.079 3.883 6.196 5.8 9.304q-1.835 1.06-3.659 2.118c-1.22.708-2.285 1.312-3.5 2.017-3.049-4.885-6.083-9.794-9.296-14.584-3.21-4.787-6.663-9.413-10.2-13.947" style="fill:#fff;fill-rule:evenodd" data-source="https://football-logos.cc"></path><!-- source: https://football-logos.cc --></svg>