<svg xmlns="http://www.w3.org/2000/svg" viewBox="-6.19 -0.15 365.45 432.86"><!-- Source: https://football-logos.cc --><path d="M343.805 3034.96c581.738 215.85 1346.235 227.11 1962.135 0V1784.55c9.68-455.27-262.93-798.155-741.04-1171.101 4.62-.269-240.52-144.781-247.14-139.965-1.4 1.016-220.52 133.071-223.59 139.965C620.02 985.156 348.207 1324.2 343.805 1784.55z" style="fill:#8f4f45;fill-opacity:1;fill-rule:nonzero;stroke:none" transform="matrix(.13333 0 0 -.13333 0 426.667)" data-source="https://football-logos.cc"></path><path d="M382.484 3008.48c558.731 211.25 1292.996 222.26 1884.546 0V1784.7c9.29-445.57-252.53-781.15-711.74-1146.145 4.44-.27-231-141.7-237.36-136.989-1.35 1-211.81 130.239-214.75 136.989C647.777 1002.34 386.711 1334.16 382.484 1784.7z" style="fill:#2a295f;fill-opacity:1;fill-rule:nonzero;stroke:none" transform="matrix(.13333 0 0 -.13333 0 426.667)"></path><path d="M413.816 2991.64c540.051 194.58 1252.594 192.37 1826.634-4.31l2.15-1204.69c9.02-433.14-245.06-759.35-690.68-1114.163 4.31-.258-224.17-137.743-230.34-133.161-1.31.969-205.54 126.602-208.4 133.161C671.258 1022.11 417.918 1344.67 413.816 1782.64z" style="fill:#fff;fill-opacity:1;fill-rule:nonzero;stroke:none" transform="matrix(.13333 0 0 -.13333 0 426.667)"></path><path d="m729.773 3034.1-45.578-142.35H525.586l125.793-104.04-38.285-127.75 116.679 73 114.856-73-34.641 127.75 122.149 104.04H775.352z" style="fill:#ffcb05;fill-opacity:1;fill-rule:nonzero;stroke:none" transform="matrix(.13333 0 0 -.13333 0 426.667)"></path><path d="m730.171-3032.45-45.603 142.28H525.872l125.862 103.97-38.306 127.69 116.743-72.97 114.918 72.97-34.66-127.69 122.215-103.97h-156.87l-45.603-142.28" style="fill:none;stroke:#70695c;stroke-width:7.14462;stroke-linecap:butt;stroke-linejoin:miter;stroke-miterlimit:10;stroke-dasharray:none;stroke-opacity:1" transform="matrix(.13326 0 0 .1334 0 426.667)"></path><path d="m1928.46 3030.53-45.58-142.36h-158.61l125.8-104.03-38.29-127.75 116.68 73 114.86-73-34.64 127.75 122.14 104.03h-156.78z" style="fill:#ffcb05;fill-opacity:1;fill-rule:nonzero;stroke:none" transform="matrix(.13333 0 0 -.13333 0 426.667)"></path><path d="m1929.51-3028.88-45.6 142.28h-158.7l125.86 103.97-38.3 127.69 116.74-72.97 114.92 72.97-34.66-127.69 122.21-103.97h-156.87l-45.6-142.28" style="fill:none;stroke:#70695c;stroke-width:7.14462;stroke-linecap:butt;stroke-linejoin:miter;stroke-miterlimit:10;stroke-dasharray:none;stroke-opacity:1" transform="matrix(.13326 0 0 .1334 0 426.667)"></path><path d="M1254.82 3087.03c-119.51-181.16 40.75-240.08 72.93-231.79 32.65-8.51 179.48 52.32 72.93 231.79 232.55-78.43 190.75-435.45-72.93-443.49-238.94 6.39-319.62 369.32-72.93 443.49" style="fill:#ffcb05;fill-opacity:1;fill-rule:nonzero;stroke:none" transform="matrix(.13333 0 0 -.13333 0 426.667)"></path><path d="M1255.51-3085.35c-119.58 181.06 40.76 239.95 72.96 231.66 32.67 8.51 179.59-52.29 72.97-231.66 232.68 78.38 190.85 435.21-72.97 443.25-239.07-6.39-319.79-369.12-72.96-443.25z" style="fill:none;stroke:#70695c;stroke-width:7.14462;stroke-linecap:butt;stroke-linejoin:miter;stroke-miterlimit:10;stroke-dasharray:none;stroke-opacity:1" transform="matrix(.13326 0 0 .1334 0 426.667)"></path><path d="M954.016 2543.16c-5.25 28.98 26.222 32.23 69.274 27.37 35.05 58.1 181.1-29.2 247.94 67.53 11.49-106.35-37.63-104.06-16.41-122.28 47.78-10.15 76.53-75.94 74.75-107.68V677.918c-40.72 34.676-30.08 171.711-45.57 229.961-20.97-56.59-13.14-183.879-36.46-158.781-69.17 57.187 39.14 348.862 18.23 375.962-14.4-8.99-45.79-94.37-87.7-134.017-69.12-65.406-73.57-194.484-47.21-227.344-77.28-8.222-113.98 59.168-107.57 144.18-77.329-33.055-144.501 151.541 29.17 215.361-4.15-35.72 5.47-89.02 43.75-89.43 56.37.62 119.22 87.59 125.8 187.98-7.45 18.88-40.94-2.25-45.58-27.37-7.14 30.9-23.81 65.29 36.46 80.3 27.07 43.37-34.11 19.87-45.57 9.13-17.37 82.73 145.32 13.99 80.22 198.93-15.88-9.58-23.31-48.87-9.12-73-41.59-2.82-32.16 49.71-54.69 52.92-11.36-7.9-12.49-52.31 18.23-62.05-30.43-15.01-75.01-6.06-98.45 62.05-28.87-31.48-104.705 22.6-142.201-9.12-17.414 88.56 134.751 109.31 129.441 158.78-21.61 20.19-81.32-67.97-109.391-60.23-25.605 31.1 11.27 50.16-18.23 60.23-36.809-11.53-19.852-143.01-144.024-120.45 45.395 34.67 45.415 82.13 38.286 104.03-42.555-8.41-74.95-77.87-154.965-62.06 37.379 42.54 8.758 96.87 36.465 114.98-12.981 26.99-63.657-70.72-144.028-43.8 15.735 97.07 93.032 74.8 98.45 98.56-4.192 31.9-97.864-6.49-144.028 0 39.778 132.19 150.055 97.5 198.719 124.1.594 45.58-171.309-40.7-231.531 34.68 30.273 50.01 111.543 62.44 160.429 34.67 1.856 44.45-148.699 5.67-180.484 78.48 48.645 90.45 144.281 1.25 180.484 29.2-34.113 45.13-191.429 16.63-176.839 162.44 31.601-39.25 81.433-93.5 122.148-71.18-40.492 29.42-112.293 58.53-122.148 125.93 23.304-23.37 63.214-49.97 89.332-36.5-52.723 34.68-140.743 109.49-107.563 211.71 47.453-62.87 94.082-127.19 160.434-156.96-103.969 83.83-203.996 295.93-91.157 394.22 67.739-390.66 569.571-294.22 554.221-485.47 1.85-51.21-41.99-126.67 1.83-158.79-1.54 83.23 75.06 115.99 105.73 160.61.27 18.21-59.36-28.34-72.92 16.43 33.51 2.38 45.08 17.94 54.69 34.67 41.95 94.17-20.91 161.22-107.56 191.64 18.42 83.71-75.59 142.27-133.084 149.66" style="fill:#2a295f;fill-opacity:1;fill-rule:nonzero;stroke:none" transform="matrix(.13333 0 0 -.13333 0 426.667)"></path><path d="M1702.44 2543.16c5.25 28.98-26.22 32.23-69.28 27.37-35.04 58.1-181.09-29.2-247.94 67.53-11.48-106.35 37.64-104.06 16.41-122.28-47.77-10.15-76.52-75.94-74.75-107.68V677.918c40.73 34.676 30.08 171.711 45.58 229.961 20.97-56.59 13.14-183.879 36.46-158.781 69.17 57.187-39.14 348.862-18.23 375.962 14.4-8.99 45.79-94.37 87.69-134.017 69.13-65.406 73.57-194.484 47.22-227.344 77.28-8.222 113.97 59.168 107.56 144.18 77.34-33.055 144.51 151.541-29.16 215.361 4.15-35.72-5.48-89.02-43.76-89.43-56.36.62-119.21 87.59-125.79 187.98 7.45 18.88 40.93-2.25 45.57-27.37 7.14 30.9 23.82 65.29-36.46 80.3-27.06 43.37 34.12 19.87 45.58 9.13 17.36 82.73-145.32 13.99-80.22 198.93 15.88-9.58 23.3-48.87 9.12-73 41.59-2.82 32.16 49.71 54.69 52.92 11.36-7.9 12.48-52.31-18.23-62.05 30.43-15.01 75-6.06 98.45 62.05 28.86-31.48 104.7 22.6 142.2-9.12 17.41 88.56-134.76 109.31-129.44 158.78 21.6 20.19 81.32-67.97 109.39-60.23 25.61 31.1-11.27 50.16 18.23 60.23 36.81-11.53 19.85-143.01 144.02-120.45-45.39 34.67-45.41 82.13-38.28 104.03 42.55-8.41 74.95-77.87 154.96-62.06-37.38 42.54-8.76 96.87-36.46 114.98 12.98 26.99 63.65-70.72 144.02-43.8-15.73 97.07-93.03 74.8-98.45 98.56 4.2 31.9 97.87-6.49 144.03 0-39.78 132.19-150.05 97.5-198.72 124.1-.59 45.58 171.31-40.7 231.54 34.68-30.28 50.01-111.54 62.44-160.44 34.67-1.85 44.45 148.7 5.66 180.49 78.48-48.65 90.45-144.28 1.25-180.49 29.2 34.12 45.13 191.43 16.63 176.84 162.44-31.6-39.25-81.43-93.5-122.14-71.18 40.49 29.42 112.29 58.53 122.14 125.93-23.3-23.37-63.21-49.97-89.33-36.5 52.73 34.68 140.74 109.49 107.57 211.71-47.46-62.87-94.09-127.19-160.44-156.96 103.97 83.83 204 295.93 91.16 394.22-67.74-390.66-569.57-294.22-554.22-485.47-1.85-51.21 41.99-126.67-1.83-158.79 1.54 83.23-75.06 115.99-105.74 160.61-.27 18.21 59.37-28.34 72.93 16.43-33.52 2.38-45.08 17.94-54.7 34.67-41.94 94.17 20.92 161.22 107.57 191.64-18.43 83.71 75.59 142.27 133.08 149.66" style="fill:#2a295f;fill-opacity:1;fill-rule:nonzero;stroke:none" transform="matrix(.13333 0 0 -.13333 0 426.667)"></path><path d="M890.207 2444.6c-80.062 90.25 95.566 143.33 169.543 36.5 97.04-105.57-50.16-188.74-142.195-49.28 35.742-2.19 57.761 5.91 54.691 32.86-27.348 29.1-54.691 23.82-82.039-20.08" style="fill:#dbb871;fill-opacity:1;fill-rule:nonzero;stroke:none" transform="matrix(.13333 0 0 -.13333 0 426.667)"></path><path d="M890.692-2443.27c-80.106-90.2 95.618-143.25 169.638-36.48 97.09 105.51-50.19 188.63-142.276 49.25 35.762 2.2 57.793-5.9 54.721-32.84-27.362-29.08-54.721-23.8-82.083 20.07z" style="fill:none;stroke:#70695c;stroke-width:7.14462;stroke-linecap:butt;stroke-linejoin:miter;stroke-miterlimit:10;stroke-dasharray:none;stroke-opacity:1" transform="matrix(.13326 0 0 .1334 0 426.667)"></path><path d="M1213.79 1007.73c7.94-54.531 5.65-167.843-55.65-161.898 28.34 37.645-3.99 113.137 55.65 161.898M1448.45 1001.08c-7.94-54.529-5.65-167.838 55.64-161.892-28.33 37.644 4 113.136-55.64 161.892" style="fill:#2a295f;fill-opacity:1;fill-rule:nonzero;stroke:none" transform="matrix(.13333 0 0 -.13333 0 426.667)"></path><path d="M1104.24 2504.82c-28.45 45.69 16.46 53.19 55.64 40.04 10.64-32.62-11.31-28.86-55.64-40.04" style="fill:#fff;fill-opacity:1;fill-rule:nonzero;stroke:none" transform="matrix(.13333 0 0 -.13333 0 426.667)"></path><path d="M1768.25 2446.88c80.06 90.25-95.57 143.33-169.55 36.5-97.04-105.58 50.17-188.74 142.2-49.27-35.75-2.2-57.76 5.9-54.69 32.85 27.34 29.09 54.69 23.82 82.04-20.08" style="fill:#dbb871;fill-opacity:1;fill-rule:nonzero;stroke:none" transform="matrix(.13333 0 0 -.13333 0 426.667)"></path><path d="M1769.21-2445.55c80.1-90.2-95.62-143.25-169.64-36.48-97.09 105.52 50.19 188.63 142.28 49.25-35.77 2.2-57.8-5.9-54.72-32.84 27.35-29.08 54.72-23.8 82.08 20.07z" style="fill:none;stroke:#70695c;stroke-width:7.14462;stroke-linecap:butt;stroke-linejoin:miter;stroke-miterlimit:10;stroke-dasharray:none;stroke-opacity:1" transform="matrix(.13326 0 0 .1334 0 426.667)"></path><path d="M1550.65 2501.96c28.44 45.69-16.46 53.19-55.65 40.04-10.63-32.62 11.31-28.85 55.65-40.04M712.984 2293.34c88.395-79.34 216.973-108.52 213.434-143.53 2.891-30.86-52.066-29.78-45.621-71.76-5.02-29.91 26.305-19.03 19.551-40.78 1.082-20.02-32.993-34.73-19.551-57.09 9.941-39.06 39.266 8.41 55.394 0 11.407-6.39 16.293-35.52 34.215-34.25 6.93 23.9-9.695 115.64 11.407 115.8-1.071-48.19 3.937-110.81 32.587-145.16-19.556-31.23-76.58 27.5-87.982 19.57-13.348-6.15-84.309 1.8-79.836 45.68-.129 26.63 30.941 14.13 22.813 50.56 5.691 17.94-16.137 26.09-14.665 53.82-3.226 23.19 39.329 47.25 17.922 55.46-.675 34.93-124.589 69.51-159.668 151.68M1943.89 2289.77c-88.39-79.34-216.98-108.53-213.44-143.53-2.89-30.87 52.07-29.78 45.62-71.77 5.02-29.9-26.3-19.03-19.55-40.77-1.08-20.03 33-34.73 19.55-57.09-9.94-39.06-39.26 8.41-55.39 0-11.41-6.39-16.29-35.53-34.22-34.25-6.92 23.9 9.7 115.63-11.4 115.8 1.07-48.2-3.94-110.82-32.59-145.16 19.56-31.23 76.58 27.5 87.98 19.57 13.35-6.16 84.31 1.79 79.84 45.67.13 26.64-30.94 14.14-22.81 50.56-5.69 17.94 16.13 26.1 14.66 53.83 3.23 23.18-39.33 47.25-17.92 55.45.67 34.94 124.59 69.52 159.67 151.69" style="fill:#fff;fill-opacity:1;fill-rule:nonzero;stroke:none" transform="matrix(.13333 0 0 -.13333 0 426.667)"></path><path d="M836.809 1945.93c8.41-27.9 77.824-20.87 71.687-61.98-2.129-22.45 56.305-3.43 53.766-19.57-2.192-16.07 29.14-4.4 21.179-17.94-5.062-18.92 43.809 5.81 30.959-14.68-6.51-13.86 37.7-6.41 24.44-19.57-17.91-22.82 31.34 6.3 19.55-8.16-8.33-24.83 26.36 16.92 37.47-13.05 22.16-42.24 40.73 88.08 63.54 92.97-16.32-60.89-30.79-136.46-16.29-182.67-12.49 9.92-24.98 17.09-37.47 52.19-7.24 18.18-41.88-74.1-87.98-86.44 11.96 31.35 45.98 70.07 22.8 89.7-16.01 16.81-62.374-92.73-110.784-89.7 19.59 36.72 73.274 70.33 50.508 110.91-6.325 32.83-71.161-89.05-125.454-92.97 35.915 45.12 96.196 90.25 71.688 135.37-19.008 16.98-75.488-76.86-125.453-81.55 24.305 35.34 61.676 70.68 53.765 106.02-10.128 14.98-60.816-64.22-96.125-52.19 38.625 53.81 114.833 89.65 78.204 153.31M1822.51 1945.15c-8.42-27.9-77.83-20.87-71.69-61.98 2.13-22.45-56.3-3.43-53.77-19.57 2.2-16.07-29.14-4.4-21.17-17.94 5.06-18.93-43.82 5.8-30.96-14.68 6.51-13.86-37.71-6.41-24.44-19.58 17.9-22.81-31.34 6.3-19.55-8.15 8.33-24.83-26.37 16.91-37.47-13.05-22.16-42.24-40.74 88.07-63.55 92.97 16.32-60.89 30.79-136.46 16.3-182.68 12.49 9.93 24.98 17.1 37.47 52.2 7.23 18.18 41.88-74.1 87.98-86.45-11.96 31.36-45.98 70.08-22.81 89.71 16.01 16.81 62.38-92.73 110.79-89.71-19.59 36.72-73.28 70.34-50.51 110.91 6.33 32.83 71.16-89.04 125.46-92.97-35.92 45.13-96.2 90.25-71.69 135.38 19.01 16.97 75.49-76.86 125.45-81.55-24.3 35.33-61.67 70.67-53.76 106.01 10.12 14.99 60.81-64.22 96.12-52.19-38.62 53.81-114.83 89.66-78.2 153.32" style="fill:#fff;fill-opacity:1;fill-rule:nonzero;stroke:none" transform="matrix(.13333 0 0 -.13333 0 426.667)"></path><path d="M746.977 1433.8c-3.668 50.5-101.34 51.36-108.457-34.39 50.183 32.54 59.125 3.13 83.148-3.61 2.332 15.72 4.203 31.67 25.309 38M669.25 1345.13c-66.359 1.89-86.516-50.21-43.383-106.77 4.625 39 31.188 34.07 54.227 36.19-22.934 29.98-15.942 49.96-10.844 70.58M748.785 1222.08c-87.367-11.75-30.746-161.18 19.883-128.48-34.773 56.44-6.836 72.27 39.766 76-27.696 11.63-51.094 26.48-59.649 52.48M985.578 1279.98c77.702 65.97 141.922-69.84 84.962-95.9-11.49 34.18-45.79 36.95-95.81 18.09 13.708 25.94 21.118 51.88 10.848 77.81" style="fill:#231f20;fill-opacity:1;fill-rule:nonzero;stroke:none" transform="matrix(.13333 0 0 -.13333 0 426.667)"></path><path d="M960.27 1453.7c-10.567-45.11-50.297-74.31-113.875-90.48-32.555-9.45-94.055 110.77-115.688 54.29-29.523-39.81 28.32-57.9 32.535-76-5.265-45.96-98.527 89.95-97.609-34.38 2.84-81.26 99.859-.49 104.84-30.77 37.816-8.43-66.957-55.72 0-83.23 83.07-81.74 34.07 52.12 103.035 54.28 29.187-5.55 111.105-107.81 115.683 7.24 3.813 68.18-56.527 16.84-61.457 65.14 10.618 57.1 133.126 62.22 140.996 130.29-36.16 12.96-72.308 23.83-108.46 3.62" style="fill:#dbb871;fill-opacity:1;fill-rule:nonzero;stroke:none" transform="matrix(.13333 0 0 -.13333 0 426.667)"></path><path d="M960.792-1452.91c-10.572 45.09-50.324 74.27-113.937 90.43-32.572 9.45-94.106-110.71-115.75-54.26-29.54 39.79 28.336 57.87 32.553 75.96-5.269 45.93-98.581-89.9-97.663 34.36 2.842 81.22 99.914.49 104.897 30.75 37.837 8.43-66.993 55.7 0 83.19 83.116 81.7 34.089-52.09 103.091-54.25 29.204 5.55 111.166 107.75 115.747-7.24 3.815-68.14-56.558-16.83-61.49-65.11 10.622-57.06 133.2-62.18 141.07-130.21-36.17-12.95-72.346-23.81-108.518-3.62z" style="fill:none;stroke:#70695c;stroke-width:7.14462;stroke-linecap:butt;stroke-linejoin:miter;stroke-miterlimit:10;stroke-dasharray:none;stroke-opacity:1" transform="matrix(.13326 0 0 .1334 0 426.667)"></path><path d="M1910.56 1431.45c3.66 50.51 101.33 51.37 108.45-34.38-50.18 32.53-59.12 3.13-83.15-3.62-2.32 15.73-4.2 31.68-25.3 38M1988.29 1342.79c66.35 1.89 86.51-50.22 43.38-106.77-4.63 39-31.19 34.07-54.23 36.19 22.94 29.97 15.94 49.96 10.85 70.58M1908.75 1219.73c87.36-11.75 30.75-161.17-19.88-128.47 34.77 56.44 6.83 72.26-39.77 76 27.7 11.62 51.1 26.48 59.65 52.47M1671.96 1277.64c-77.71 65.97-141.92-69.84-84.96-95.91 11.48 34.19 45.79 36.95 95.8 18.1-13.7 25.94-21.11 51.87-10.84 77.81" style="fill:#231f20;fill-opacity:1;fill-rule:nonzero;stroke:none" transform="matrix(.13333 0 0 -.13333 0 426.667)"></path><path d="M1698.67 1452.27c10.56-45.12 50.3-74.31 113.88-90.48 32.55-9.45 94.05 110.77 115.68 54.29 29.53-39.81-28.32-57.91-32.53-76.01 5.26-45.95 98.53 89.95 97.6-34.37-2.84-81.26-99.85-.49-104.84-30.77-37.81-8.43 66.97-55.73 0-83.24-83.07-81.74-34.06 52.12-103.03 54.29-29.18-5.55-111.1-107.81-115.68 7.23-3.81 68.18 56.53 16.84 61.46 65.15-10.62 57.1-133.13 62.21-141 130.29 36.16 12.96 72.31 23.82 108.46 3.62" style="fill:#dbb871;fill-opacity:1;fill-rule:nonzero;stroke:none" transform="matrix(.13333 0 0 -.13333 0 426.667)"></path><path d="M1699.59-1451.48c10.58 45.09 50.33 74.27 113.94 90.43 32.58 9.45 94.11-110.71 115.75-54.26 29.54 39.79-28.33 57.88-32.55 75.96 5.27 45.93 98.58-89.9 97.66 34.36-2.84 81.22-99.91.49-104.9 30.75-37.83 8.43 67 55.7 0 83.2-83.11 81.69-34.08-52.1-103.08-54.26-29.21 5.55-111.17 107.75-115.75-7.23-3.82-68.15 56.56-16.83 61.49-65.11-10.62-57.07-133.2-62.18-141.07-130.22 36.17-12.95 72.34-23.81 108.51-3.62z" style="fill:none;stroke:#70695c;stroke-width:7.14462;stroke-linecap:butt;stroke-linejoin:miter;stroke-miterlimit:10;stroke-dasharray:none;stroke-opacity:1" transform="matrix(.13326 0 0 .1334 0 426.667)"></path><path d="M131.234 692.855c391.071-22.265 803.594-75.171 1192.756-82.316 411.12-7.547 813.4 67.953 1200.2 82.316 77.23 1.676 50.53-249.441 106.85-348.265-681.52 27.883-956.72-107.738-1304.57-87.067-438.962 13.454-865.22 132.782-1309.54 84.579 51.593 84.687 49.668 350.945 114.304 350.753" style="fill:#b61b34;fill-opacity:1;fill-rule:nonzero;stroke:none" transform="matrix(.13333 0 0 -.13333 0 426.667)"></path><path d="M131.306-692.479c391.283 22.254 804.031 75.131 1193.404 82.272 411.34 7.543 813.84-67.916 1200.86-82.272 77.27-1.674 50.55 249.306 106.91 348.077-681.9-27.868-957.24 107.679-1305.29 87.019-439.199-13.446-865.689-132.709-1310.251-84.532C68.56-426.557 66.634-692.67 131.306-692.479Z" style="fill:none;stroke:#584442;stroke-width:14.2892;stroke-linecap:butt;stroke-linejoin:miter;stroke-miterlimit:10;stroke-dasharray:none;stroke-opacity:1" transform="matrix(.13326 0 0 .1334 0 426.667)"></path><path d="M571.063 660.516c-8.739 41.308-38.43 208.379 72.062 203.984-28.121-103.637 127.559-147.598 161.516-221.398-73.61 1.55-153.481 9.367-233.578 17.414" style="fill:#b61b34;fill-opacity:1;fill-rule:nonzero;stroke:none" transform="matrix(.13333 0 0 -.13333 0 426.667)"></path><path d="M571.373-660.156c-8.743-41.287-38.45-208.266 72.102-203.874-28.136 103.581 127.628 147.518 161.604 221.278-73.65-1.55-153.564-9.362-233.706-17.404z" style="fill:none;stroke:#564442;stroke-width:14.2892;stroke-linecap:butt;stroke-linejoin:miter;stroke-miterlimit:10;stroke-dasharray:none;stroke-opacity:1" transform="matrix(.13326 0 0 .1334 0 426.667)"></path><path d="M638.152 866.984c69.504 66.036 156.696-1.074 181.399-59.699 10.316-46.64-48.446-80.207-79.516-92.043-31.652 23.297-114.957 67.051-101.883 151.742" style="fill:#a61a32;fill-opacity:1;fill-rule:nonzero;stroke:none" transform="matrix(.13333 0 0 -.13333 0 426.667)"></path><path d="M638.5-866.513c69.542-65.999 156.78 1.074 181.497 59.667 10.322 46.615-48.472 80.163-79.559 91.993-31.669-23.284-115.02-67.014-101.938-151.66z" style="fill:none;stroke:#564442;stroke-width:14.2892;stroke-linecap:butt;stroke-linejoin:miter;stroke-miterlimit:10;stroke-dasharray:none;stroke-opacity:1" transform="matrix(.13326 0 0 .1334 0 426.667)"></path><path d="M2086.54 658.371c8.74 41.313 38.43 208.379-72.06 203.984 28.12-103.632-127.56-147.597-161.52-221.394 73.61 1.547 153.48 9.367 233.58 17.41" style="fill:#b61b34;fill-opacity:1;fill-rule:nonzero;stroke:none" transform="matrix(.13333 0 0 -.13333 0 426.667)"></path><path d="M2087.68-658.013c8.74-41.29 38.45-208.266-72.11-203.873 28.14 103.576-127.62 147.517-161.6 221.274 73.65-1.546 153.56-9.362 233.71-17.401z" style="fill:none;stroke:#564442;stroke-width:14.2892;stroke-linecap:butt;stroke-linejoin:miter;stroke-miterlimit:10;stroke-dasharray:none;stroke-opacity:1" transform="matrix(.13326 0 0 .1334 0 426.667)"></path><path d="M2019.45 864.844c-69.5 66.035-156.7-1.078-181.4-59.703-10.32-46.641 48.45-80.203 79.52-92.039 85.86 48.785 106.57 109.089 101.88 151.742" style="fill:#a61a32;fill-opacity:1;fill-rule:nonzero;stroke:none" transform="matrix(.13333 0 0 -.13333 0 426.667)"></path><path d="M2020.55-864.373c-69.54-66-156.78 1.077-181.5 59.67-10.32 46.616 48.47 80.16 79.56 91.989 85.91-48.758 106.63-109.03 101.94-151.659z" style="fill:none;stroke:#564442;stroke-width:14.2892;stroke-linecap:butt;stroke-linejoin:miter;stroke-miterlimit:10;stroke-dasharray:none;stroke-opacity:1" transform="matrix(.13326 0 0 .1334 0 426.667)"></path><path d="M7.145 339.063c155.074-44.833 232.07-230.305 348.058-275.239 90.574-4.113 179.649 198.973 178.418 272.309-175.492 16.301-350.984 25.308-526.476 2.93" style="fill:#323567;fill-opacity:1;fill-rule:nonzero;stroke:none" transform="matrix(.13333 0 0 -.13333 0 426.667)"></path><path d="M7.148-338.878C162.307-294.07 239.345-108.699 355.397-63.789c90.623 4.11 179.746-198.865 178.515-272.161-175.588-16.292-351.176-25.295-526.764-2.928Z" style="fill:none;stroke:#564442;stroke-width:14.2892;stroke-linecap:butt;stroke-linejoin:miter;stroke-miterlimit:10;stroke-dasharray:none;stroke-opacity:1" transform="matrix(.13326 0 0 .1334 0 426.667)"></path><path d="M355.203 63.824C558.387-75.277 818.461 91.434 843.66 298.07c-67.754 18.926-287.797 37.93-310.336 38.164 5.996-75.238-93.308-279.222-178.121-272.41" style="fill:#b61b34;fill-opacity:1;fill-rule:nonzero;stroke:none" transform="matrix(.13333 0 0 -.13333 0 426.667)"></path><path d="M355.397-63.79C558.691 75.237 818.907-91.383 844.12-297.907c-67.791-18.916-287.954-37.909-310.505-38.143 5.999 75.197-93.36 279.07-178.218 272.261z" style="fill:none;stroke:#564442;stroke-width:14.2892;stroke-linecap:butt;stroke-linejoin:miter;stroke-miterlimit:10;stroke-dasharray:none;stroke-opacity:1" transform="matrix(.13326 0 0 .1334 0 426.667)"></path><path d="M2640.86 334.652c-155.08-44.832-232.07-230.304-348.06-275.238-90.58-4.113-179.65 198.973-178.42 272.309 175.49 16.3 350.98 25.308 526.48 2.929" style="fill:#323567;fill-opacity:1;fill-rule:nonzero;stroke:none" transform="matrix(.13333 0 0 -.13333 0 426.667)"></path><path d="M2642.29-334.47c-155.16 44.807-232.19 230.179-348.24 275.088-90.63 4.111-179.75-198.864-178.52-272.16 175.59-16.292 351.18-25.295 526.76-2.928z" style="fill:none;stroke:#564442;stroke-width:14.2892;stroke-linecap:butt;stroke-linejoin:miter;stroke-miterlimit:10;stroke-dasharray:none;stroke-opacity:1" transform="matrix(.13326 0 0 .1334 0 426.667)"></path><path d="M2292.8 59.414c-203.19-139.101-463.26 27.61-488.46 234.246 67.75 18.926 287.8 37.93 310.34 38.16-6-75.234 93.3-279.218 178.12-272.406" style="fill:#b61b34;fill-opacity:1;fill-rule:nonzero;stroke:none" transform="matrix(.13333 0 0 -.13333 0 426.667)"></path><path d="M2294.05-59.382c-203.3 139.026-463.51-27.594-488.73-234.118 67.79-18.916 287.96-37.909 310.51-38.14-6 75.194 93.36 279.067 178.22 272.258z" style="fill:none;stroke:#564442;stroke-width:14.2892;stroke-linecap:butt;stroke-linejoin:miter;stroke-miterlimit:10;stroke-dasharray:none;stroke-opacity:1" transform="matrix(.13326 0 0 .1334 0 426.667)"></path><path d="m245.168 425.625-19.594-.492-7.09 37.988-35.625-.894-8.046-38.368-19.149-.48 37.82 168.973 19.075.48zm-31.953 65.676-11.102 62.07-13.242-62.683z" style="fill:#fff;fill-opacity:1;fill-rule:nonzero;stroke:none" transform="matrix(.13333 0 0 -.13333 0 426.667)"></path><path d="m308.526-352.903-25.458.001-10.122-32.109h-46.287l-9.544 32.109h-24.879l45.128-141.359 24.783-.001zm-43.103-55.927-15.912-52.454-15.717 52.456z" style="fill:none;stroke:#fff;stroke-width:5.97575;stroke-linecap:butt;stroke-linejoin:miter;stroke-miterlimit:10;stroke-dasharray:none;stroke-opacity:1" transform="matrix(.10262 -.00257 -.00291 .15856 0 426.667)"></path><path d="m265.781 425.688-.523 165.496 25.316.238.524-165.496z" style="fill:#fff;fill-opacity:1;fill-rule:nonzero;stroke:none" transform="matrix(.13333 0 0 -.13333 0 426.667)"></path><path d="m279.403-410.175.002-160.407 26.48-.001-.002 160.406z" style="fill:none;stroke:#fff;stroke-width:5.7549;stroke-linecap:butt;stroke-linejoin:miter;stroke-miterlimit:10;stroke-dasharray:none;stroke-opacity:1" transform="matrix(.12747 -.0012 .00044 .13756 0 426.667)" data-source="https://football-logos.cc"></path><path d="m318.621 424.543.746 164.094 36.461-.285q13.986-.112 19.961-4.582 5.973-4.466 9.777-15.411 3.805-10.944 3.735-26.168-.087-19.255-6.028-30.957-5.942-11.707-16.8-14.644a61.2 61.2 0 0 0 9.144-13.785q3.604-7.473 9.797-26.774l10.27-32.097-20.621.164-12.395 35.804q-6.69 19.418-9.098 24.309c-1.601 3.258-3.304 5.512-5.105 6.754q-2.701 1.87-8.695 1.918l-3.571.027-.308-68.504zm17.699 94.559 12.844-.102q11.771-.093 14.992 1.508c2.145 1.062 3.891 3.234 5.239 6.504q2.019 4.909 2.058 13.082.035 7.834-1.941 12.609-1.98 4.772-5.395 6.59-2.42 1.249-14.051 1.344l-13.558.105z" style="fill:#fff;fill-opacity:1;fill-rule:nonzero;stroke:none" transform="matrix(.13333 0 0 -.13333 0 426.667)"></path><path d="M409.102-351.679v-135.136l47.102-.002q18.067.001 25.812 3.644c5.16 2.425 9.403 6.634 12.721 12.626q4.978 8.99 4.978 21.525.001 15.857-7.604 25.533-7.608 9.68-21.618 12.168 7.19 5.163 11.894 11.293 4.7 6.13 12.813 21.984l13.455 26.366-26.64-.001-16.221-29.405q-8.757-15.946-11.895-19.959-3.134-4.01-6.635-5.528-3.501-1.523-11.244-1.523h-4.612l.003 56.415zm22.308-77.984h16.592q15.206 0 19.359-1.339c2.764-.889 5.006-2.689 6.728-5.39 1.722-2.704 2.579-6.299 2.583-10.786q-.002-6.452-2.582-10.371c-1.725-2.61-4.059-4.41-7.008-5.392q-3.134-1.013-18.158-1.015l-17.516.001z" style="fill:none;stroke:#fff;stroke-width:5.89529;stroke-linecap:butt;stroke-linejoin:miter;stroke-miterlimit:10;stroke-dasharray:none;stroke-opacity:1" transform="matrix(.10321 .00081 -.00074 .1619 0 426.667)"></path><path d="m423.496 587.25 35.254-1.742q13.371-.665 19.98-5.195 6.617-4.532 11.891-14.77 5.274-10.241 7.813-26.289c1.695-10.695 2.179-23.914 1.464-39.649q-.972-21.255-5.109-36.804c-2.758-10.363-6.031-18.516-9.809-24.461q-5.671-8.912-13.324-13.188c-5.101-2.847-11.554-4.078-19.351-3.691l-36.289 1.797zm17.992-28.695-4.953-108.621 14.485-.719c6.207-.305 10.738.293 13.601 1.793q4.289 2.256 7.184 7.101 2.888 4.848 5.133 15.5 2.24 10.654 3.039 28.215.83 18.234-.477 28.84c-.875 7.066-2.48 12.68-4.816 16.832-2.336 4.149-5.282 6.949-8.829 8.395q-3.995 1.656-15.613 2.23z" style="fill:#fff;fill-opacity:1;fill-rule:nonzero;stroke:none" transform="matrix(.13333 0 0 -.13333 0 426.667)"></path><path d="m498.588-543.807 44.407-.003q16.842.002 25.409 3.761 8.575 3.759 15.791 12.679 7.216 8.924 11.326 23.159c2.744 9.488 4.11 21.285 4.114 35.385-.003 12.7-1.44 23.742-4.312 33.134-2.872 9.387-6.519 16.821-10.925 22.304q-6.618 8.22-15.99 12.381c-6.249 2.772-14.289 4.158-24.11 4.157h-45.711zm24.257 24.86.002 97.338 18.245.001c7.819-.002 13.479-.737 16.992-2.205q5.26-2.207 8.621-6.667 3.353-4.462 5.562-14.086 2.206-9.625 2.203-25.362-.001-16.34-2.253-25.764-2.256-9.421-7.018-14.837c-3.173-3.605-7.036-5.979-11.576-7.114q-5.117-1.305-19.751-1.304z" style="fill:none;stroke:#fff;stroke-width:6.06576;stroke-linecap:butt;stroke-linejoin:miter;stroke-miterlimit:10;stroke-dasharray:none;stroke-opacity:1" transform="matrix(.10585 .00524 -.00679 .14879 0 426.667)"></path><path d="m519.391 419.656 11.086 158.028 37.793-2.786q14.496-1.072 20.41-5.785 5.916-4.717 9.172-15.523 3.256-10.805 2.23-25.465c-.867-12.359-3.598-22.164-8.195-29.406q-6.896-10.868-18.344-12.953c3.562-4.309 6.437-8.942 8.617-13.907q3.266-7.448 8.477-26.468l8.636-31.625-21.375 1.578-10.605 35.344q-5.72 19.166-7.906 24.042-2.186 4.875-4.871 6.86-2.688 1.987-8.899 2.445l-3.699.274-4.625-65.973zm24.297 89.875 13.312-.98c8.137-.602 13.352-.461 15.641.414q3.44 1.318 5.843 5.91 2.403 4.588 2.954 12.457.533 7.547-1.219 12.281c-1.168 3.157-2.895 5.395-5.18 6.723-1.621.914-6.449 1.664-14.488 2.258l-14.051 1.035z" style="fill:#fff;fill-opacity:1;fill-rule:nonzero;stroke:none" transform="matrix(.13333 0 0 -.13333 0 426.667)"></path><path d="m641.799-411.61.004-142.769 49.762-.002q19.088.004 27.266 3.847c5.457 2.565 9.934 7.014 13.441 13.345q5.258 9.495 5.261 22.739c-.001 11.166-2.677 20.16-8.034 26.974q-8.034 10.225-22.838 12.858 7.595 5.452 12.565 11.928c3.306 4.318 7.821 12.061 13.535 23.228l14.218 27.852-28.144-.002-17.139-31.064q-9.253-16.848-12.565-21.086-3.312-4.235-7.011-5.842-3.704-1.607-11.881-1.608h-4.87l.002 59.602zm23.57-82.39 17.529-.001q16.07.001 20.449-1.409 4.386-1.412 7.112-5.699 2.726-4.283 2.724-11.392.005-6.819-2.725-10.958c-1.82-2.759-4.287-4.656-7.402-5.699q-3.31-1.07-19.186-1.069l-18.5.001z" style="fill:none;stroke:#fff;stroke-width:6.21783;stroke-linecap:butt;stroke-linejoin:miter;stroke-miterlimit:10;stroke-dasharray:none;stroke-opacity:1" transform="matrix(.10126 .00747 -.01035 .14758 0 426.667)"></path><path d="m621.691 410.383 11.563 157.547 25.242-1.965-11.562-157.547z" style="fill:#fff;fill-opacity:1;fill-rule:nonzero;stroke:none" transform="matrix(.13333 0 0 -.13333 0 426.667)"></path><path d="m642.288-483.495-.002-166.967 27.563-.002.002 166.967z" style="fill:none;stroke:#fff;stroke-width:6.13114;stroke-linecap:butt;stroke-linejoin:miter;stroke-miterlimit:10;stroke-dasharray:none;stroke-opacity:1" transform="matrix(.1221 .00951 -.00923 .12581 0 426.667)"></path><path d="m677.684 409.633 9.339 156.543 67.219-3.891-1.578-26.484-48.984 2.836-2.071-34.703 45.516-2.633-1.574-26.375-45.516 2.633-2.539-42.606 50.637-2.93-1.574-26.375z" style="fill:#fff;fill-opacity:1;fill-rule:nonzero;stroke:none" transform="matrix(.13333 0 0 -.13333 0 426.667)"></path><path d="m833.087-403.975-.001-141.376h86.021l.002 23.918h-62.686l.001 31.34 58.247-.001-.001 23.82-58.247.001.004 38.478 64.801-.001-.001 23.819z" style="fill:none;stroke:#fff;stroke-width:6.13407;stroke-linecap:butt;stroke-linejoin:miter;stroke-miterlimit:10;stroke-dasharray:none;stroke-opacity:1" transform="matrix(.10419 .00603 -.0088 .14764 0 426.667)"></path><path d="m809.699 544.84 22.59-1.813-7.133-87.664c-1.109-13.621-1.551-22.511-1.324-26.679q.62-10.829 5.793-17.133c3.445-4.203 8.254-6.555 14.414-7.047q7.84-.632 13.125 3.113 5.288 3.743 7.703 10.938 2.418 7.197 4.387 31.375l7.289 89.543 22.684-1.821-6.918-85.015q-2.649-32.572-6.774-46.852-4.12-14.285-15.172-22.453-11.045-8.172-27.945-6.816c-11.699.941-20.633 4.16-26.793 9.656q-9.245 8.239-12.578 22.121-3.334 13.883-.375 50.207z" style="fill:#fff;fill-opacity:1;fill-rule:nonzero;stroke:none" transform="matrix(.13333 0 0 -.13333 0 426.667)"></path><path d="m896.944-604.329 26.647-.001.002 87.438c-.001 13.586.33 22.431.993 26.543q1.76 10.681 8.423 16.517c4.438 3.891 10.298 5.839 17.564 5.836q9.249.002 15.085-4.129c3.891-2.754 6.556-6.57 7.984-11.451 1.433-4.882 2.148-15.365 2.149-31.44l.001-89.313 26.758-.001v84.797c0 21.658-1.15 37.314-3.468 46.966q-3.466 14.484-15.639 23.457-12.166 8.977-32.1 8.978c-13.8-.002-24.577-2.481-32.321-7.437q-11.62-7.43-16.85-20.92c-3.488-8.993-5.231-25.57-5.228-49.723z" style="fill:none;stroke:#fff;stroke-width:6.17959;stroke-linecap:butt;stroke-linejoin:miter;stroke-miterlimit:10;stroke-dasharray:none;stroke-opacity:1" transform="matrix(.11303 .00908 -.01088 .13368 0 426.667)"></path><path d="m906.988 369.434 10.137 166.789 19.426-1.184 33.734-113.851 6.766 111.382 18.605-1.132-10.136-166.79-20.086 1.223-33.231 111.195-6.609-108.769z" style="fill:#fff;fill-opacity:1;fill-rule:nonzero;stroke:none" transform="matrix(.13333 0 0 -.13333 0 426.667)"></path><path d="m1113.48-386.793.01-152.476h24.54l51.17 101.827v-101.825h23.51v152.476l-25.38.001-50.34-99.435v99.435z" style="fill:none;stroke:#fff;stroke-width:6.13153;stroke-linecap:butt;stroke-linejoin:miter;stroke-miterlimit:10;stroke-dasharray:none;stroke-opacity:1" transform="matrix(.10553 .00643 -.00886 .14585 0 426.667)"></path><path d="m1013.77 362.133 11.56 162.019 25.24-2.023-11.56-162.02z" style="fill:#fff;fill-opacity:1;fill-rule:nonzero;stroke:none" transform="matrix(.13333 0 0 -.13333 0 426.667)"></path><path d="M1088.07-460.856v-169.372l27.96.001v169.372z" style="fill:none;stroke:#fff;stroke-width:6.13302;stroke-linecap:butt;stroke-linejoin:miter;stroke-miterlimit:10;stroke-dasharray:none;stroke-opacity:1" transform="matrix(.12037 .00965 -.0091 .12755 0 426.667)"></path><path d="m1081.16 354.008 6.39 136.008-29.98 1.547 1.3 27.695 80.19-4.141-1.3-27.695-29.89 1.547-6.39-136.012z" style="fill:#fff;fill-opacity:1;fill-rule:nonzero;stroke:none" transform="matrix(.13333 0 0 -.13333 0 426.667)"></path><path d="M1297.69-375.669v-124.974l-36.63.001v-25.448h97.99v25.449l-36.53-.004v124.978z" style="fill:none;stroke:#fff;stroke-width:6.04925;stroke-linecap:butt;stroke-linejoin:miter;stroke-miterlimit:10;stroke-dasharray:none;stroke-opacity:1" transform="matrix(.10911 .00563 -.00681 .1451 0 426.667)"></path><path d="m1142.16 349.164 5.95 165.324 66.09-3.465-1.01-27.968-48.15 2.527-1.33-36.652 44.75-2.348-1-27.855-44.75 2.347-1.62-44.996 49.78-2.609-1-27.856z" style="fill:#fff;fill-opacity:1;fill-rule:nonzero;stroke:none" transform="matrix(.13333 0 0 -.13333 0 426.667)"></path><path d="M1482.31-352.653v-142.794l86.88-.001v24.157l-63.31-.001v31.657l58.83.001v24.059h-58.83v38.864l65.45-.002v24.059z" style="fill:none;stroke:#fff;stroke-width:6.0851;stroke-linecap:butt;stroke-linejoin:miter;stroke-miterlimit:10;stroke-dasharray:none;stroke-opacity:1" transform="matrix(.10141 .00532 -.00556 .15437 0 426.667)"></path><path d="m1226.52 510.953 37.04-1.012q14.055-.384 21.06-4.777c4.67-2.926 8.9-7.766 12.69-14.512 3.8-6.75 6.65-15.449 8.59-26.105 1.93-10.652 2.63-23.852 2.1-39.59q-.705-21.258-4.83-36.879c-2.75-10.414-6.06-18.629-9.95-24.644q-5.82-9.024-13.8-13.454c-5.31-2.953-12.07-4.316-20.26-4.093l-38.13 1.043zm19.31-28.301-3.64-108.64 15.22-.418q9.78-.264 14.25 2.074c2.98 1.562 5.47 3.977 7.44 7.246 1.98 3.266 3.7 8.465 5.17 15.594q2.19 10.688 2.79 28.254c.4 12.16.1 21.761-.92 28.808-1.02 7.043-2.79 12.618-5.3 16.719q-3.765 6.149-9.39 8.207c-2.81 1.047-8.29 1.684-16.42 1.906z" style="fill:#fff;fill-opacity:1;fill-rule:nonzero;stroke:none" transform="matrix(.13333 0 0 -.13333 0 426.667)"></path><path d="m1456.21-489.919 44.64-.001c11.29.002 19.8 1.259 25.54 3.78q8.625 3.779 15.87 12.746c4.84 5.98 8.63 13.737 11.39 23.278 2.75 9.537 4.13 21.396 4.13 35.57 0 12.763-1.44 23.864-4.33 33.302q-4.335 14.157-10.98 22.419-6.66 8.262-16.08 12.444c-6.28 2.788-14.36 4.181-24.23 4.182h-45.95zm24.38 24.989v97.842l18.35.002c7.85-.002 13.55-.741 17.07-2.217q5.295-2.218 8.67-6.703c2.25-2.987 4.12-7.707 5.59-14.158q2.22-9.67 2.22-25.491c0-10.951-.76-19.583-2.27-25.899q-2.265-9.469-7.05-14.912-4.785-5.44-11.64-7.154c-3.42-.873-10.04-1.311-19.85-1.311z" style="fill:none;stroke:#fff;stroke-width:5.95196;stroke-linecap:butt;stroke-linejoin:miter;stroke-miterlimit:10;stroke-dasharray:none;stroke-opacity:1" transform="matrix(.11064 .00302 -.00496 .14805 0 426.667)"></path><path d="m1368.27 338.633-4.95 171.555 77.11 2.23.84-29.023-54.46-1.575 1.17-40.605 47.07 1.359.84-29.019-47.07-1.364 2.1-72.902z" style="fill:#fff;fill-opacity:1;fill-rule:nonzero;stroke:none" transform="matrix(.13333 0 0 -.13333 0 426.667)"></path><path d="m1594.09-276.66-.01-158.83 89.28-.001v26.87h-63.06v37.594l54.5.001v26.867l-54.5.002.01 67.495z" style="fill:none;stroke:#fff;stroke-width:5.91504;stroke-linecap:butt;stroke-linejoin:miter;stroke-miterlimit:10;stroke-dasharray:none;stroke-opacity:1" transform="matrix(.11517 -.00333 .00415 .14402 0 426.667)"></path><path d="M1449.66 426.582c-1.15 19.645-.23 35.934 2.75 48.863s7.3 22.684 12.95 29.262c5.65 6.574 12.75 10.113 21.32 10.613 12.4.727 22.95-6.066 31.62-20.382 8.68-14.317 13.82-35.122 15.41-62.418 1.62-27.598-1.26-49.403-8.62-65.411-6.46-14.148-15.93-21.586-28.38-22.316-12.55-.734-22.86 5.473-30.91 18.621-9.18 15.039-14.57 36.094-16.14 63.168m17.97 2.18c1.1-18.973 4.25-33.067 9.41-42.285 5.17-9.215 11.17-13.625 18.01-13.223 6.88.402 12.3 5.441 16.27 15.117s5.39 24.262 4.25 43.762c-1.12 19.121-4.14 33.129-9.08 42.019-4.94 8.895-10.96 13.129-18.08 12.715-7.12-.418-12.64-5.371-16.58-14.855q-5.895-14.229-4.2-43.25" style="fill:#fff;fill-opacity:1;fill-rule:nonzero;stroke:none" transform="matrix(.13333 0 0 -.13333 0 426.667)"></path><path d="M1990.38-295.822c0-17.064 2.52-31.119 7.57-42.161s11.64-19.267 19.78-24.675q12.225-8.108 29.61-8.108c16.81 0 30.51 6.415 41.09 19.248 10.59 12.834 15.88 31.105 15.88 54.816 0 23.973-5.6 42.704-16.81 56.189-9.83 11.92-23.19 17.88-40.06 17.881q-25.5-.001-40.26-17.687c-11.2-13.485-16.81-31.984-16.8-55.503zm24.42-.976c.01 16.481 3.13 28.841 9.38 37.084 6.26 8.239 14.01 12.361 23.26 12.359 9.32 0 17.03-4.087 23.16-12.262s9.18-20.731 9.19-37.669c0-16.61-2.99-28.89-8.95-36.837-5.96-7.95-13.76-11.921-23.4-11.923q-14.46.002-23.55 12.02-9.075 12.018-9.09 37.228z" style="fill:none;stroke:#fff;stroke-width:6.1891;stroke-linecap:butt;stroke-linejoin:miter;stroke-miterlimit:10;stroke-dasharray:none;stroke-opacity:1" transform="matrix(.09844 -.00576 .00897 .1535 0 426.667)"></path><path d="M1550.68 432.688c-1.12 19.332-.01 35.355 3.32 48.078 3.34 12.718 8.1 22.312 14.29 28.781 6.2 6.469 13.96 9.949 23.29 10.441 13.52.711 24.96-5.976 34.33-20.066q14.04-21.13 16.38-61.418c1.58-27.152-1.69-48.602-9.82-64.352q-10.695-20.877-31.05-21.949c-13.68-.719-24.87 5.391-33.56 18.328-9.9 14.801-15.63 35.52-17.18 62.157m19.59 2.14c1.09-18.668 4.42-32.535 10-41.605 5.57-9.071 12.08-13.41 19.52-13.016q11.235.594 17.82 14.867c4.39 9.52 6.03 23.871 4.91 43.059-1.09 18.812-4.3 32.597-9.62 41.344-5.32 8.75-11.86 12.921-19.61 12.515-7.76-.41-13.81-5.281-18.16-14.613q-6.51-13.998-4.86-42.551" style="fill:#fff;fill-opacity:1;fill-rule:nonzero;stroke:none" transform="matrix(.13333 0 0 -.13333 0 426.667)"></path><path d="M1997.06-316.048q0-26.181 7.74-43.121c5.17-11.291 11.91-19.701 20.24-25.231 8.32-5.529 18.42-8.295 30.28-8.296 17.19.001 31.19 6.562 42.02 19.689 10.83 13.123 16.24 31.81 16.24 56.061q0 36.774-17.19 57.462c-10.06 12.19-23.72 18.286-40.97 18.287-17.39-.001-31.11-6.03-41.17-18.087q-17.19-20.688-17.19-56.764zm24.98-1q0 25.283 9.6 37.925c6.39 8.429 14.32 12.644 23.78 12.641 9.52-.001 17.42-4.181 23.68-12.539 6.26-8.361 9.4-21.202 9.39-38.527 0-16.986-3.04-29.547-9.14-37.671-6.09-8.129-14.07-12.194-23.93-12.195q-14.79.003-24.09 12.294c-6.19 8.195-9.29 20.886-9.29 38.072z" style="fill:none;stroke:#fff;stroke-width:6.11406;stroke-linecap:butt;stroke-linejoin:miter;stroke-miterlimit:10;stroke-dasharray:none;stroke-opacity:1" transform="matrix(.10489 -.00552 .00859 .14767 0 426.667)"></path><path d="m1681.32 364.555-13.78 131.898-30.24-3.609-2.8 26.855 80.9 9.66 2.8-26.855-30.16-3.602 13.78-131.898z" style="fill:#fff;fill-opacity:1;fill-rule:nonzero;stroke:none" transform="matrix(.13333 0 0 -.13333 0 426.667)"></path><path d="M2149.25-160.167v-130.587l-38.27-.001v-26.589h102.39v26.589h-38.17v130.587z" style="fill:none;stroke:#fff;stroke-width:6.35852;stroke-linecap:butt;stroke-linejoin:miter;stroke-miterlimit:10;stroke-dasharray:none;stroke-opacity:1" transform="matrix(.10535 -.01258 .01406 .13467 0 426.667)"></path><path d="m1727.33 530.27 37.9 4.507c10.34 1.231 17.74.762 22.17-1.406 4.44-2.172 8.39-6.457 11.87-12.863 3.48-6.403 5.59-13.871 6.34-22.399.68-7.859.07-15.105-1.84-21.742-1.92-6.633-4.72-11.703-8.39-15.215q8.805-3.222 14.46-12.89c3.77-6.442 6.09-14.559 6.95-24.348q1.545-17.8-3.45-30.812c-3.32-8.676-7.66-14.305-13.01-16.891-3.72-1.789-12.56-3.516-26.54-5.18l-32.22-3.832zm21.44-24.875 3.29-37.707 12.61 1.5c7.56.898 12.22 1.64 13.97 2.226 3.2 1.129 5.57 3.379 7.13 6.746 1.57 3.371 2.11 7.766 1.64 13.176q-.63 7.23-3.27 11.469c-1.76 2.824-3.73 4.484-5.93 4.972-2.19.489-8.33.133-18.41-1.07zm5.66-64.848 3.81-43.606 17.72 2.11c7.78.926 12.72 2.094 14.83 3.508 2.1 1.41 3.75 3.89 4.96 7.445 1.2 3.551 1.57 7.922 1.12 13.113-.46 5.34-1.65 9.637-3.55 12.895-1.91 3.258-4.24 5.379-7.01 6.359q-4.14 1.476-16.44.012z" style="fill:#fff;fill-opacity:1;fill-rule:nonzero;stroke:none" transform="matrix(.13333 0 0 -.13333 0 426.667)"></path><path d="m2329.46-302.1 50.29.002c13.73 0 23.39 1.255 28.96 3.763 5.58 2.511 10.28 6.935 14.12 13.28 3.83 6.341 5.75 13.523 5.75 21.539q0 11.08-4.92 20.022c-3.28 5.959-7.53 10.366-12.76 13.226q11.19 3.972 17.52 13.593 6.33 9.616 6.33 23.42c0 11.154-2.69 20.581-8.06 28.283-5.36 7.703-11.71 12.459-19.03 14.273-5.08 1.253-16.9 1.88-35.44 1.881l-42.76-.002zm25.3 25.514v35.443l16.73.001c10.04.001 16.24-.174 18.61-.525q6.48-1.046 10.14-5.486 3.66-4.446 3.66-12.076c0-4.531-.99-8.21-2.98-11.032-1.98-2.822-4.39-4.585-7.21-5.282s-10.93-1.046-24.31-1.043zm0 60.955v40.987h23.52c10.32-.001 16.94-.54 19.87-1.623 2.93-1.078 5.38-3.203 7.37-6.377 1.99-3.17 2.98-7.195 2.98-12.075 0-5.019-1.06-9.147-3.19-12.389-2.12-3.241-4.95-5.473-8.47-6.691-3.52-1.222-10.71-1.832-21.59-1.831z" style="fill:none;stroke:#fff;stroke-width:6.35067;stroke-linecap:butt;stroke-linejoin:miter;stroke-miterlimit:10;stroke-dasharray:none;stroke-opacity:1" transform="matrix(.10048 -.01196 .01239 .14185 0 426.667)"></path><path d="m1916.76 387.816-19.62-1.711-10.84 36.743-35.68-3.11-4.32-38.066-19.18-1.672 21.43 167.785 19.11 1.668zm-38.51 62.286-17.22 60.066-7.16-62.191z" style="fill:#fff;fill-opacity:1;fill-rule:nonzero;stroke:none" transform="matrix(.13333 0 0 -.13333 0 426.667)"></path><path d="m2632.61-197.196-26.7-.001-10.62-33.683-48.55-.002-10.02 33.685-26.1-.001 47.34-148.285 26-.002zm-45.21-58.669-16.69-55.026-16.49 55.025z" style="fill:none;stroke:#fff;stroke-width:6.3035;stroke-linecap:butt;stroke-linejoin:miter;stroke-miterlimit:10;stroke-dasharray:none;stroke-opacity:1" transform="matrix(.09798 -.00855 .012 .14814 0 426.667)"></path><path d="m1933.88 390.563-18.78 163.253 20 2.305 15.6-135.519 49.93 5.757 3.19-27.73z" style="fill:#fff;fill-opacity:1;fill-rule:nonzero;stroke:none" transform="matrix(.13333 0 0 -.13333 0 426.667)"></path><path d="m2567.95-160.066.01-158.048 26.3.002v131.198l65.65.001v26.846z" style="fill:none;stroke:#fff;stroke-width:6.40652;stroke-linecap:butt;stroke-linejoin:miter;stroke-miterlimit:10;stroke-dasharray:none;stroke-opacity:1" transform="matrix(.1014 -.0117 .01585 .13772 0 426.667)"></path><path d="m2017.07 400.734-17.22 163.426 20.03 2.113 14.3-135.66 49.98 5.278 2.92-27.762z" style="fill:#fff;fill-opacity:1;fill-rule:nonzero;stroke:none" transform="matrix(.13333 0 0 -.13333 0 426.667)"></path><path d="M2654.75-178.154v-156.839l26.11.002v130.192l65.15.002v26.642z" style="fill:none;stroke:#fff;stroke-width:6.35751;stroke-linecap:butt;stroke-linejoin:miter;stroke-miterlimit:10;stroke-dasharray:none;stroke-opacity:1" transform="matrix(.10229 -.0108 .01464 .13893 0 426.667)"></path><path d="m2200.05 477.313 20.4-9.586c-2.01-19.438-6.37-33.801-13.07-43.094-6.7-9.289-15.3-14.231-25.81-14.817q-19.815-1.107-33.3 19.465c-10.36 15.844-16.31 37.664-17.86 65.469-1.64 29.367 1.82 52.617 10.39 69.754 7.47 14.871 18.16 22.699 32.1 23.476q17.025.95 29.4-14.617c5.88-7.371 10.5-18.543 13.88-33.519l-19.78-9.352c-1.81 9.246-4.78 16.25-8.9 21.008-4.13 4.758-8.81 6.988-14.04 6.699-7.47-.418-13.32-5.301-17.53-14.652-4.22-9.348-5.74-24.477-4.57-45.387 1.21-21.695 4.37-36.996 9.49-45.902q7.68-13.36 18.72-12.738c5.4.3 9.9 3.476 13.51 9.531 3.61 6.054 5.93 15.476 6.97 28.262" style="fill:#fff;fill-opacity:1;fill-rule:nonzero;stroke:none" transform="matrix(.13333 0 0 -.13333 0 426.667)"></path><path d="m2804.75-320.299 25.03 9.696c-3.9 17.469-10.4 30.232-19.49 38.294-9.09 8.059-20.28 12.09-33.55 12.089q-25.035 0-40.59-19.278c-11.93-14.845-17.89-34.87-17.89-60.082-.01-26.629 6-47.471 18-62.528 10.44-13.066 24.46-19.602 42.08-19.6q21.51.002 36 14.699c6.89 6.96 11.93 17.292 15.13 31.001l-25.57 7.454c-1.64-8.45-4.88-14.931-9.74-19.44-4.87-4.51-10.6-6.762-17.21-6.765-9.45 0-17.15 4.119-23.12 12.359-5.96 8.237-8.94 21.835-8.95 40.796.01 19.672 2.92 33.663 8.74 41.973 5.83 8.309 13.39 12.463 22.69 12.46 6.82.001 12.71-2.642 17.68-7.933 4.98-5.291 8.56-13.69 10.76-25.195z" style="fill:none;stroke:#fff;stroke-width:6.1085;stroke-linecap:butt;stroke-linejoin:miter;stroke-miterlimit:10;stroke-dasharray:none;stroke-opacity:1" transform="matrix(.10552 -.0059 .0082 .14704 0 426.667)"></path><path d="m2243.9 422.602-8.86 165.593 19.25.993 7.35-137.461 48.04 2.48 1.51-28.129z" style="fill:#fff;fill-opacity:1;fill-rule:nonzero;stroke:none" transform="matrix(.13333 0 0 -.13333 0 426.667)"></path><path d="M2893.34-273.35v-148.036l24.64.002v122.887l61.5.002v25.146z" style="fill:none;stroke:#fff;stroke-width:6.10595;stroke-linecap:butt;stroke-linejoin:miter;stroke-miterlimit:10;stroke-dasharray:none;stroke-opacity:1" transform="matrix(.10416 -.00538 .00798 .14915 0 426.667)"></path><path d="m2320.79 587.91 20.72.93 3.94-87.875c.61-13.652 1.27-22.531 1.97-26.641 1.23-7.117 3.67-12.551 7.29-16.308 3.63-3.754 8.28-5.504 13.93-5.25 4.79.214 8.65 1.773 11.55 4.679 2.9 2.903 4.79 6.832 5.69 11.789.89 4.957.98 15.512.25 31.672l-4.02 89.762 20.81.934 3.82-85.223c.97-21.766.78-37.539-.58-47.324s-5.07-17.825-11.11-24.121c-6.03-6.297-14.22-9.68-24.55-10.141-10.74-.484-19.23 1.629-25.48 6.34-6.24 4.707-10.93 11.523-14.04 20.437-3.12 8.918-5.23 25.516-6.31 49.789z" style="fill:#fff;fill-opacity:1;fill-rule:nonzero;stroke:none" transform="matrix(.13333 0 0 -.13333 0 426.667)"></path><path d="m2805.33-447.239 24.81.002.01 81.437c-.01 12.652.3 20.891.92 24.721 1.09 6.634 3.71 11.76 7.84 15.387 4.14 3.623 9.6 5.434 16.37 5.434 5.74.001 10.42-1.28 14.05-3.848 3.62-2.563 6.1-6.119 7.43-10.666 1.34-4.548 2-14.306 2-29.282v-83.186l24.93.002v78.979c0 20.171-1.08 34.752-3.23 43.745-2.16 8.993-7.01 16.274-14.57 21.847s-17.52 8.361-29.9 8.358c-12.85.001-22.89-2.306-30.1-6.923-7.21-4.613-12.45-11.112-15.69-19.486-3.25-8.378-4.88-23.816-4.87-46.311z" style="fill:none;stroke:#fff;stroke-width:6.01544;stroke-linecap:butt;stroke-linejoin:miter;stroke-miterlimit:10;stroke-dasharray:none;stroke-opacity:1" transform="matrix(.11133 -.005 .00645 .14387 0 426.667)"></path><path d="m2434.05 592.547 39.47 1.621c10.77.445 18.41-.563 22.91-3.016q6.75-3.678 11.73-13.48c3.32-6.531 5.17-14.004 5.56-22.418.36-7.75-.59-14.809-2.88-21.168q-3.42-9.538-9.36-14.289c5.98-2.539 10.79-7.106 14.41-13.699 3.62-6.594 5.66-14.719 6.11-24.375.54-11.703-1.11-21.684-4.94-29.938-3.84-8.254-8.58-13.453-14.24-15.59-3.93-1.48-13.17-2.519-27.73-3.117l-33.56-1.379zm21.1-25.953 1.73-37.196 13.13.54q11.82.486 14.58 1.148c3.36.871 5.92 2.898 7.7 6.086q2.64 4.78 2.28 12.789c-.23 4.758-1.18 8.582-2.88 11.48-1.7 2.899-3.67 4.668-5.92 5.309s-8.63.746-19.13.313zm2.98-63.969 2-43.008 18.46.758c8.1.332 13.27 1.113 15.52 2.34 2.24 1.23 4.07 3.539 5.47 6.93 1.4 3.394 1.99 7.648 1.75 12.769-.25 5.266-1.28 9.566-3.11 12.899s-4.15 5.582-6.97 6.75c-2.83 1.167-8.5 1.574-17.04 1.222z" style="fill:#fff;fill-opacity:1;fill-rule:nonzero;stroke:none" transform="matrix(.13333 0 0 -.13333 0 426.667)"></path><path d="m2997.89-448.702 48.16-.001c13.15-.002 22.39 1.201 27.73 3.604s9.85 6.64 13.52 12.717c3.67 6.073 5.51 12.949 5.51 20.627-.01 7.073-1.57 13.466-4.71 19.173q-4.71 8.56-12.21 12.665 10.71 3.804 16.77 13.017c4.04 6.141 6.05 13.618 6.05 22.43q0 16.021-7.71 27.083c-5.14 7.375-11.21 11.933-18.22 13.668-4.87 1.201-16.18 1.802-33.94 1.802l-40.96.001zm24.22 24.428.01 33.944h16.02q14.415-.002 17.82-.501c4.14-.668 7.37-2.419 9.71-5.256s3.5-6.69 3.51-11.563c0-4.342-.95-7.861-2.86-10.565q-2.85-4.055-6.9-5.056c-2.71-.668-10.47-1.002-23.29-1zm.01 58.377v39.248h22.53c9.87 0 16.22-.518 19.02-1.551 2.81-1.037 5.16-3.071 7.06-6.107 1.9-3.04 2.85-6.892 2.85-11.566 0-4.805-1.02-8.761-3.05-11.865-2.04-3.103-4.74-5.239-8.11-6.408-3.38-1.17-10.26-1.752-20.68-1.751z" style="fill:none;stroke:#fff;stroke-width:6.02561;stroke-linecap:butt;stroke-linejoin:miter;stroke-miterlimit:10;stroke-dasharray:none;stroke-opacity:1" transform="matrix(.10927 -.00449 .0068 .1461 0 426.667)" data-source="https://football-logos.cc"></path><!-- source: https://football-logos.cc --></svg>