<svg xmlns="http://www.w3.org/2000/svg" xml:space="preserve" viewBox="0 0 377.95 438.62"><!-- Source: https://football-logos.cc --><defs data-source="https://football-logos.cc"><radialGradient id="b" cx="343.698" cy="357.855" r="0" fx="343.698" fy="357.855" gradientTransform="matrix(10 0 0 10 -1550 -2560)" gradientUnits="userSpaceOnUse"><stop offset="0" style="stop-opacity:1;stop-color:#6d5208"></stop><stop offset=".508" style="stop-opacity:1;stop-color:#c0b948"></stop><stop offset=".75" style="stop-opacity:1;stop-color:#fffff7"></stop><stop offset="1" style="stop-opacity:1;stop-color:#fff"></stop></radialGradient><clipPath id="a" clipPathUnits="userSpaceOnUse"><path d="M2196.18 1041.42c27.71-29.08 48.82-72.943 55.52-125.482 4.73-37.047 2.3-78.458-10.02-122.067 35.64 56.567 56.27 123.543 56.27 195.34 0 60.839-14.81 118.219-41.02 168.729-18.74-40.43-38.92-79.37-60.75-116.52m24.48-277.502c-.13.891-.04 1.828.31 2.727 20.46 53.183 25.38 103.785 19.76 147.898-6.22 48.738-25.29 89.497-50.44 116.967-12.45-20.74-25.43-40.905-38.97-60.436a1009 1009 0 0 0-16.11-22.566 203 203 0 0 0 9.54-17.293c23.48-47.867 27.55-103.5 11.75-155.942-14.76-48.996-46.83-95.226-96.57-129.707 49.47 18.567 93.87 47.512 130.55 84.184a370 370 0 0 1 30.18 34.168m-205.96 50.887a5.53 5.53 0 0 0 1.7-3.793c19.77-25.641 30.93-51.785 33.15-80.489 2.12-27.214-3.84-56.539-18.14-89.738 4.16 2.336 8.22 4.754 12.18 7.246 53.3 33.555 87.25 80.496 102.29 130.407 15 49.824 11.18 102.593-11.06 147.917a191 191 0 0 1-6.75 12.555c-34.24-45.445-71.87-87.066-113.37-124.105m-162.88 39.515c43.65-19.297 94.43-31.933 149.5-37.136.32.644.76 1.23 1.32 1.726 52.36 45.957 98.55 99.281 139.57 158.453 40.85 58.937 76.58 123.677 108.13 192.717a368.3 368.3 0 0 1-59.86 78.6 386 386 0 0 1-9.89 9.52c-43.83-85.1-93.13-161.87-148.25-229.72-54.41-66.964-114.47-125.199-180.52-174.16m-57 31.86c12.07-8.461 25.06-16.227 38.89-23.27 2.26-1.039 4.56-2.058 6.92-3.058 67.14 49.109 128.06 107.843 183.12 175.608 55.14 67.88 104.45 144.88 148.31 230.42a368.3 368.3 0 0 1-66.75 46.31l-.11-.06c-63.05-35.46-124.93-92.22-180.88-161.35l.02-.01c-58.43-72.19-110.33-157.782-150.33-246.625 6.97-6.68 13.81-12.614 20.81-17.965m-97.26 181.63c.09-.42.14-.86.13-1.32-1.23-62.46 23.77-115.162 67.08-155.927 40.3 89.093 92.38 174.827 150.94 247.187l.01-.01.01.01c54.97 67.94 115.72 124.18 177.86 160.5-45.14 22.35-95.53 35.68-148.83 37.65-28.16-20.49-55.22-44.38-81.38-71.06a5.55 5.55 0 0 0-2.15-2.2c-15.65-16.08-30.98-33.16-46.02-51.12-4.94-5.89-9.85-11.88-14.73-17.96l-.02-.03c-.33-.61-.76-1.13-1.26-1.56-35.2-43.99-68.9-92.62-101.64-144.16m309.02-262.228c-66.58 5.59-127.37 21.805-177.65 47.344-10.89 5.023-20.73 10.508-30.1 16.777a215 215 0 0 0-10.47 7.488 293 293 0 0 0-15.06 11.297c-54.88 44.047-87.49 103.801-86.69 176.192-18.97 5.27-37.97 8.72-56.98 10.27-18.28 1.5-36.53 1.23-54.74-.87 21.85-117.326 76.39-206.295 151.26-267.978 83.48-68.786 192.34-103.813 309.42-106.555a5.6 5.6 0 0 0 1.78-.344c1.53 10.563 1.91 20.695 1.15 30.492-2.09 26.899-12.83 51.535-31.92 75.887m28.85-117.098-.12.004c-119.5 2.801-230.72 38.657-316.18 109.071-71.76 59.121-125.3 142.515-150.27 251.051a369 369 0 0 1-4.79-59.399c0-101.324 41.07-193.063 107.47-259.461 66.41-66.402 158.14-107.477 259.47-107.477 28.96 0 57.15 3.36 84.18 9.707 9.8 20.293 16.52 38.997 20.24 56.504m-248.48 525.896c-17.17 8.25-36.49 13.16-57.66 15.2-23.87 2.3-50.15.93-78.4-3.43v.01l-.07-.01c-34.17-40.36-59.77-88.2-74-140.72 17.91 1.87 35.81 2.04 53.67.58 19.56-1.59 39.15-5.15 58.77-10.59 31.48 49.47 63.88 96.29 97.69 138.96m61.66 71.14c-31.83 12-63.17 11.76-94.13 2.29-28.84-8.82-57.48-25.67-85.96-48.14 21.83 2.37 42.5 2.78 61.82.92 23.38-2.25 44.73-7.85 63.69-17.36 4.2 5.2 8.43 10.34 12.68 15.41 13.71 16.36 27.67 32.02 41.9 46.88m-145.22-8.48c15.85 9.19 31.8 16.43 47.88 21.35 34.72 10.63 69.9 10.42 105.69-4.27 22.48 22.8 45.65 43.59 69.63 62.01-84.28-1-161.71-30.41-223.2-79.09"></path></clipPath></defs><path d="M9.059 3088.99c203.054-138.85 240.199-439.37 241.468-624.34 2.696-392.71-160.324-789.34-136.48-1168.65 24.016-382.074 312.539-745.34 666.664-955.195C995.938 228.746 1226.91 212.73 1426.38 4.617c199.47 208.113 430.44 223.828 645.67 335.891 354.13 209.851 642.65 573.117 666.66 955.202 23.85 379.3-139.17 775.93-136.48 1168.64 1.27 184.97 38.42 485.5 241.47 624.34-459.82 136.97-938.6 205.52-1417.37 205.59-478.736.06-957.475-68.34-1417.271-205.29" style="fill:#ba9545;fill-opacity:1;fill-rule:evenodd;stroke:none" transform="matrix(.13333 0 0 -.13333 -1.208 439.237)"></path><path d="M163.387 1254.19c45.289-349.295 313.472-676.428 639.047-869.358C1010.42 276.539 1242.59 252.098 1426.38 68.918c186.79 183.18 415.96 207.332 623.94 315.625 342.22 202.793 615.07 553.844 638.27 923.067 6.89 109.71-2.66 219.59-19.36 329.87z" style="fill:#0f1e44;fill-opacity:1;fill-rule:evenodd;stroke:none" transform="matrix(.13333 0 0 -.13333 -1.208 439.237)"></path><path d="M95.602 3064.44c116.539-95.1 203.941-363.2 204.441-532.09.449-150.31-19.578-315.12-44.777-477.08l2298.444 348.25c-.04 6.15-.04 12.31 0 18.46 1.22 178.75 1.25 397.68 179.54 642.46-444.35 132.36-838.29 183.42-1300.95 183.47-462.605.04-892.374-51.12-1336.698-183.47" style="fill:#fff;fill-opacity:1;fill-rule:evenodd;stroke:none" transform="matrix(.13333 0 0 -.13333 -1.208 439.237)"></path><path d="m256.324 2001.32 2308.066 354.7c6.98-312.95 65.57-444.11 97.71-664.85L159.922 1301.39c-5.281 233.31 34.613 466.63 96.402 699.93" style="fill:#e3212c;fill-opacity:1;fill-rule:evenodd;stroke:none" transform="matrix(.13333 0 0 -.13333 -1.208 439.237)"></path><path d="M1028.03 3044.5c19.51-3.2 38.44-9.65 54.23-29.91 17.85-22.9 17.68-51.16 17.51-79.29-.13-22.38-.27-44.69 9.3-62.7 8.66-16.31 25.17-23.03 42.04-29.89 24.72-10.06 50.14-20.41 58.61-58.54 7.48-33.62-1-53.76-11.88-70.21 6.34-5.46 11.61-11.57 16.87-17.67 11.41-13.21 22.83-26.43 45.18-31.93a3.315 3.315 0 0 0 2.65-3.07 3.33 3.33 0 0 0-3.14-3.5c-23.72-1.33-38.24-12.2-52.75-23.07-6.31-4.73-12.63-9.46-19.73-13.51 3.53-15.66 2.41-34.8-13.95-62.67-21.83-37.22-51-43.16-78.41-48.75-18.42-3.75-35.97-7.33-48.7-21.16-13.13-14.28-16.29-32.83-19.51-51.75-4.6-27.02-9.32-54.76-40.62-75.55-24.75-16.44-43.726-16.28-60.289-11.62-3.914-7.97-8.816-14.86-13.711-21.75-10.132-14.24-20.265-28.49-20.257-51.59 0-1.42-.922-2.74-2.356-3.17a3.315 3.315 0 0 0-4.14 2.21c-6.934 22.71-20.957 34.23-34.969 45.74-6.281 5.15-12.563 10.32-18.309 16.47-14.601-9.48-32.996-15.82-63.785-8.24-36.133 8.9-53.422 32.91-69.824 55.69-11.867 16.47-23.246 32.27-41.024 39.82-18.293 7.77-34.5 5.21-50.761 2.64-21.817-3.45-43.735-6.91-71.559 10.92-26.859 17.22-32.566 37.93-34.863 58.79-8.406.72-16.235 2.58-24.059 4.45-17.004 4.04-34.011 8.1-55.418-.58l-.004.01a3.33 3.33 0 0 0-3.824.98 3.33 3.33 0 0 0 .481 4.67c18.449 14.95 23.867 32.27 29.281 49.58 2.336 7.47 4.672 14.93 8.012 22.29-10.789 8.82-21.047 21.91-28.688 50.22-10.363 38.41 9.797 67.83 29.113 96.02 12.375 18.06 24.391 35.58 26.563 53.82 2.207 18.57-5.395 29.59-13.098 40.76-11.887 17.23-24.008 34.81-9.613 75.36 12.363 34.82 30.238 48.71 47.937 56.65-2.234 9.39-2.668 18.48-3.101 27.58-.832 17.45-1.664 34.9-15.953 53.07a3.33 3.33 0 0 0-.117 3.95c1.05 1.51 3.125 1.89 4.628.84 19.504-13.59 37.633-13.98 55.758-14.37 8.207-.18 16.422-.36 24.864-1.7 8.027 18.47 20.636 36.82 48.281 48.7 33.945 14.58 61.949 4.04 87.844-5.7 17.437-6.57 33.847-12.75 49.488-9.46 15.156 3.17 25.558 13.58 36.676 24.7 17.504 17.52 36.64 36.67 77.921 37.09 40.497.42 55.114-14.47 67.211-30.72 7.973 4.2 16.59 7.13 25.364 10.11 18.113 6.15 36.96 12.56 50.8 31.21a3.327 3.327 0 0 0 5.9-2.96c-7.86-22.19-3.58-38.4.8-54.97 2.06-7.8 4.14-15.68 5.1-24.34m135.37-367.29c2.84 12.18 9.85 21.67 17.25 31.69 12.6 17.06 26.5 35.88 18.27 72.89-7.21 32.42-29.9 41.66-51.97 50.64-18.77 7.63-37.14 15.11-47.68 34.96-10.84 20.41-10.7 44.15-10.56 67.96.16 26.22.32 52.56-15.17 72.44-17.77 22.8-41.47 25.42-64.84 28.01-11.364 1.25-22.661 2.51-33.485 5.88l-17.711-33.93c9.008-3.43 17.637-2.48 26.41-1.52 19.046 2.1 38.726 4.26 65.866-27.34 25.02-29.14 22.24-55.37 19.64-79.87-1.69-15.88-3.28-30.96 4.05-44.77 7.47-14.07 21.82-19.91 36.47-25.87 21.81-8.87 44.24-18 51.74-51.75 8.23-37.01-5.42-55.49-17.8-72.25-5.7-7.72-11.11-15.04-13.23-23.54zm-284.123-301.82c10.911.05 20.825-4.07 31.215-8.38 18.719-7.78 39.242-16.29 69.125 3.56 27.293 18.13 31.603 43.46 35.803 68.13 3.5 20.57 6.93 40.74 22.28 57.43 15.14 16.45 34.43 20.38 54.65 24.5 25.08 5.11 51.75 10.55 71.08 43.5 21.39 36.45 13.41 55.9 6.17 73.53-3.81 9.27-7.44 18.11-7.47 28.55l-32.16 3.56c.73-6.02 3.07-11.72 5.5-17.65 7.27-17.7 15.28-37.22-6.06-73.58-19.27-32.86-44.96-38.09-69.12-43.02-16.01-3.25-31.28-6.37-42.28-18.32-11.36-12.36-14.1-28.49-16.91-44.97-4.049-23.8-8.209-48.24-35.87-66.61-30.773-20.45-51.417-11.89-70.253-4.06-7.457 3.1-14.594 6.06-21.696 6.48l5.938-32.27zM503.152 2545.9c4.789-11.52 5.75-23.65 6.723-35.93 1.742-22.04 3.539-44.68 30.859-62.19 24.301-15.58 44.137-12.44 63.879-9.32 17.828 2.81 35.602 5.62 56.789-3.38 20.594-8.74 32.864-25.78 45.661-43.55 15.242-21.16 31.3-43.46 63.5-51.39 36.214-8.93 52.988 4.41 68.472 16.72 9.02 7.18 17.649 14.04 29.274 17.07l-5.989 32.53c-7.078-2.47-13.148-7.3-19.468-12.32-15.473-12.31-32.247-25.64-68.914-16.6-31.887 7.85-47.106 28.98-61.543 49.03-10.332 14.35-20.243 28.1-35.637 34.64-15.832 6.73-29.938 4.5-44.082 2.27-19.231-3.04-38.555-6.09-63.141 9.66-28.273 18.13-30.051 40.56-31.777 62.41-.735 9.23-1.457 18.36-4.477 26.6zm53.996 416.17c-8.011-7.38-18-10.71-28.875-14.32-20.398-6.77-44.316-14.72-59.187-56.62-12.516-35.25-2.023-50.47 8.266-65.38 8.914-12.93 17.699-25.66 15-48.35-2.493-20.94-15.262-39.57-28.422-58.77-17.907-26.13-36.594-53.41-27.551-86.91 9.402-34.84 23.07-43.81 36.324-52.51 8.91-5.84 17.66-11.58 25.285-23.51l30.18 16.28c-5.402 7.85-11.789 12.05-18.285 16.31-13.242 8.69-26.895 17.64-36.168 52-9.156 33.94 8.59 59.84 25.594 84.66 10.789 15.74 21.261 31.02 23.14 46.83 1.906 16-4.672 25.54-11.351 35.21-10.508 15.24-21.223 30.78-8.496 66.62 14.718 41.46 38.281 49.29 58.382 55.97 7.575 2.51 14.594 4.85 19.868 8.95zm406.926 83.99c-14.164 6.92-21.695 17.34-29.246 27.8-11.39 15.77-22.859 31.65-61.883 31.25-36.718-.37-54.187-17.85-70.16-33.84-12.332-12.34-23.867-23.88-42.269-27.74-18.789-3.94-36.657 2.79-55.653 9.94-23.875 8.99-49.695 18.71-79.562 5.88-33.242-14.28-42.094-40.09-49.645-62.12-3.375-9.85-6.523-19.02-11.406-26.61l23.742-23.58c3.106 5.41 5.422 12.18 7.899 19.41 7.304 21.3 15.863 46.25 49.214 60.57 29.981 12.89 54.641 3.6 77.442-4.98 15.176-5.71 29.453-11.09 42.961-8.25 13.039 2.73 21.558 12.16 30.664 22.23 14.504 16.06 30.336 33.57 66.754 33.94 39.586.41 54.062-19.06 67.726-37.44 5.356-7.2 10.571-14.22 17.227-19.32l16.961 32.5zm-8.465-254.81c-2.199 5.52-2.222 11.13-2.246 17.05v.02c-.035 9.82-.082 20.63-12.3 32.21-10.661 10.11-21.883 8.29-32.477 6.57-9.289-1.5-18.168-2.94-26.746 2.3-8.664 5.3-11.723 13.9-14.93 22.92-3.578 10.06-7.367 20.73-20.445 25.98-15.274 6.15-25.524.95-35.34-4.03-4.684-2.38-9.281-4.71-14.367-5.99l7.211-65.07q2.755.39 5.664.39c9.086 0 16.91-3 23.242-7.82 5.785-4.4 10.27-10.3 13.285-16.78.07-.15.133-.3.192-.46 2.871-6.34 4.39-13.22 4.39-19.78 0-.76-.019-1.53-.062-2.28a42 42 0 0 0 7.504 2.51c7.843 1.82 16.351 1.44 24.207-.94 7.195-2.19 13.875-6.07 19.054-11.48zm-35.015-182.09c4.441 3.22 9.676 5.16 15.136 7.18l.266.09c10.719 3.98 22.375 8.42 28.145 24.39l.05.13c5.008 14 .375 20.84-4.105 27.45-4.168 6.15-8.231 12.15-6.738 22.25 1.371 9.3 7.246 14.42 13.699 20.03 8.5 7.41 18.176 15.83 16.824 37.74-1.433 23.38-8.863 27.13-15.613 30.54-1.996 1-3.945 1.99-5.754 3.27l-54.539-24.84c2.586-5.12 4.074-11 4.074-17.6 0-2.77-.281-5.5-.801-8.15-1.988-10.05-7.55-18.82-15.16-25.06-5.738-4.7-12.66-7.99-20.098-9.31a40 40 0 0 0 3.77-5.56c4.086-7.22 6.234-15.9 6.234-24.36 0-6.15-1.379-11.97-3.847-17.18zm-181.723-28.81c3.172-2.65 5.231-6.13 7.383-9.76 4.344-7.33 9.156-15.45 27.031-15.27 16.141.17 23.281 6.2 29.926 11.82 5.879 4.96 11.422 9.65 21.562 10.76 9.106.99 17.262-2.56 25.918-6.33 12-5.23 25.079-10.93 42.141-3.25 16.891 7.61 17.383 14.5 17.859 21.26.262 3.75.532 7.47 2.493 11.29l-37.321 39.8c-.535-.6-1.086-1.19-1.656-1.76-7.273-7.27-17.328-11.77-28.434-11.77-11.128 0-22.269 5.16-30.527 13.07-3.836 3.67-7.07 7.96-9.422 12.63-2.168-3.25-4.828-6.16-7.851-8.68-7.524-6.28-17.336-10.06-27.563-10.06-.859 0-1.711.03-2.551.08zm-87.031 163.79c-1.485-3.51-3.391-6.77-5.32-10.06-5.567-9.5-11.297-19.28-4.309-36 6.023-14.4 12.73-16.19 18.934-17.83 6.218-1.64 12.05-3.19 16.816-12.48 4.195-8.19 3.684-18.51 3.137-29.48-.723-14.55-1.508-30.35 9.55-41.41 12.071-12.08 20.715-11.84 28.579-11.63 3.203.08 6.3.16 9.488-.39l27.836 51.69a40.4 40.4 0 0 0-14.574 9.33c-7.278 7.28-11.778 17.33-11.778 28.44 0 9.34 3.137 18.4 8.446 25.66a42.5 42.5 0 0 0 4.652 5.36c-5.801 1.73-11.262 4.68-15.965 8.54-5.894 4.83-10.625 11.12-13.352 18.22-.378-.01-.769.03-1.16.1zm133.855 143.38c-4.285.58-8.007 2.12-11.699 3.64-8.07 3.34-16.031 6.64-30.566-4.38l-.192-.14c-13.074-10.01-15.484-21.95-17.691-32.89-1.891-9.38-3.656-18.12-11.055-25.18-7.554-7.2-16.676-7.32-26.16-7.44-10.766-.13-22.09-.28-30.465-13.21-9.879-15.25-7.625-25.14-5.371-35.05 1.285-5.65 2.57-11.31 2.039-17.96l56.918-11.14c-.035.65-.055 1.3-.055 1.94 0 11.11 4.504 21.16 11.778 28.43 7.273 7.28 17.336 11.78 28.433 11.78 6.383 0 12.442-1.51 17.832-4.18-.015.49-.027.98-.027 1.47 0 6.93 1.828 13.72 5.149 19.71 3.3 5.96 8.101 11.12 14.054 14.79 1.449.9 2.969 1.7 4.547 2.41zm204.43-80.55c-2.449 6.52-2.477 13.2-2.5 20.23-.047 12.32-.105 25.85-15.449 40.39-13.457 12.75-27.52 10.48-40.801 8.32-11.332-1.83-22.168-3.59-32.523 2.74-10.473 6.4-14.207 16.9-18.122 27.91-4.476 12.62-9.226 25.96-25.71 32.59-19.211 7.72-32.04 1.22-44.329-5.01-5.929-3.01-11.742-5.96-18.183-7.49l3.512-31.69c4.105 1.18 8.074 3.19 12.109 5.24 11.129 5.65 22.746 11.53 40.812 4.27 15.864-6.38 20.172-18.49 24.243-29.94 2.796-7.88 5.468-15.4 12.117-19.46 6.484-3.96 14.187-2.71 22.242-1.41 12.168 1.97 25.047 4.05 38.098-8.32 14.254-13.51 14.312-25.81 14.355-37.01v-.01c.02-5.1.043-9.94 1.684-14.3zm-42.883-226.22c5.305 3.7 11.559 6.03 18.074 8.45h.008l-.008.01c13.508 5.01 28.274 10.5 35.574 30.72 6.43 17.78.57 26.44-5.093 34.8-5.07 7.47-10 14.76-8.203 26.93 1.656 11.22 8.812 17.45 16.676 24.29 10.64 9.27 22.75 19.82 21.06 47.28-1.81 29.34-11.2 34.08-19.73 38.39-3.35 1.69-6.596 3.33-9.416 5.96l-26.309-11.99 1.375-.7c8.375-4.23 17.582-8.88 19.258-36.08 1.551-25.18-9.438-34.74-19.094-43.15-5.48-4.77-10.473-9.12-11.488-15.98-1.117-7.57 2.222-12.5 5.648-17.55 5.414-7.99 11.004-16.26 4.867-33.41l-.054-.17c-6.809-18.83-19.961-23.84-32.063-28.33l-.281-.12c-4.691-1.74-9.203-3.42-12.848-5.85zm-227.039-35.07c4.43-3.29 7.145-7.87 9.992-12.68 5.481-9.25 11.547-19.48 34.09-19.25 20.238.21 29.172 7.76 37.488 14.78 7.168 6.06 13.93 11.77 26.219 13.12 11.055 1.21 21.043-3.14 31.641-7.76 14.984-6.53 31.316-13.64 52.719-4.01 21.304 9.59 21.921 18.34 22.531 26.94.375 5.35.754 10.66 4.484 16.13l-21.125 22.53c-.617-2.09-.765-4.22-.914-6.36-.621-8.74-1.25-17.62-21.765-26.86-19.739-8.88-34.227-2.57-47.528 3.22-7.82 3.41-15.187 6.62-22.562 5.81-8.094-.89-12.887-4.94-17.965-9.23-7.52-6.35-15.602-13.18-34.168-13.37-21.699-.22-27.539 9.62-32.809 18.52-1.551 2.61-3.043 5.13-4.929 7.07zM614.688 2751.4c-1.891-5.55-4.809-10.52-7.754-15.55-6.981-11.9-14.161-24.16-5.375-45.18 7.589-18.16 16.078-20.42 23.925-22.49 7.512-1.99 14.555-3.86 20.286-15.04 3.203-6.25 4.14-13.59 4.23-21.51l.102-.18a5.56 5.56 0 0 0-.164-5.54c-.083-2.88-.227-5.82-.379-8.8-.903-18.15-1.883-37.86 12.035-51.78 15.152-15.15 26.011-14.87 35.89-14.6 4.227.11 8.305.22 12.508-.64l15.336 28.48c-1.937.14-3.922.09-5.949.04-9.231-.25-19.375-.52-33.441 13.55-13.129 13.13-12.27 30.47-11.477 46.44.5 10.07.973 19.55-2.406 26.14-3.41 6.65-7.856 7.83-12.598 9.08-7.738 2.06-16.098 4.27-23.387 21.71-8.257 19.76-1.672 30.99 4.727 41.91 1.555 2.65 3.098 5.28 4.351 8.01zm166.777 174.29c-5.961.48-11 2.57-16.012 4.64-10.18 4.21-20.223 8.36-38.539-5.53l-.199-.14c-16.434-12.55-19.445-27.47-22.203-41.15-2.317-11.47-4.469-22.15-13.434-30.7a28.6 28.6 0 0 0-7.926-5.4 5.3 5.3 0 0 0-1.105-1.59c-1.82-1.84-4.609-2.12-6.738-.86-5.133-1-10.536-1.06-16.036-1.13-13.507-.17-27.718-.35-38.296-16.69-12.387-19.12-9.571-31.51-6.747-43.91 1.508-6.63 3.02-13.27 2.575-20.94l31.148-6.09c.293 5.4-.82 10.31-1.937 15.21-2.563 11.27-5.121 22.52 6.281 40.12 10.305 15.91 23.453 16.08 35.953 16.24 8.148.1 15.984.2 21.664 5.62 5.887 5.61 7.449 13.35 9.125 21.66 2.441 12.11 5.113 25.33 20.16 36.85l.227.19c17.554 13.3 27.258 9.29 37.094 5.22 2.73-1.13 5.472-2.26 8.41-2.88zm-196.277-133.43a5.535 5.535 0 0 0 2.25 7.5 5.54 5.54 0 0 0 7.503-2.25l15.036-27.78c-.422 4.13-1.325 8.09-2.223 12.05-3.133 13.76-6.262 27.5 7.652 48.98 12.508 19.3 28.543 19.51 43.785 19.7 3.387.04 6.731.09 9.95.38l-80.387 79.84c-6.895-5.81-15.254-8.59-24.301-11.59-17.715-5.89-38.488-12.79-51.402-49.16-10.84-30.55-1.754-43.73 7.156-56.64 7.883-11.43 15.648-22.7 13.258-42.82-2.203-18.5-13.434-34.88-25.004-51.77-15.594-22.75-31.867-46.51-24.031-75.55 8.164-30.26 20.023-38.04 31.523-45.58 7.742-5.08 15.352-10.07 22.027-20.3l104.618 56.43c.226.12.465.23.699.32-.234 6.09-1.125 11.6-3.434 16.1-4.371 8.53-10.031 10.03-16.07 11.63-9.375 2.48-19.516 5.17-28.375 26.37-10.051 24.06-2.016 37.77 5.793 51.09.98 1.68 1.957 3.34 2.887 5.03l-18.516-19.38a5.53 5.53 0 0 0-7.828-.2 5.54 5.54 0 0 0-.195 7.83l21.074 22.06-27.227 5.33c-3.004.58-4.965 3.5-4.379 6.5.586 3.01 3.504 4.96 6.504 4.38l26.047-5.1zm456.002-2.6a5.53 5.53 0 0 0 2.27-7.48 5.52 5.52 0 0 0-7.48-2.28l-13.34 7.13c4.65-6.14 8.25-15.97 9.32-33.41 1.9-30.73-11.53-42.42-23.33-52.69-2.25-1.97-4.45-3.87-6.42-5.86l117.36-13c2.37 11.23 8.72 19.82 15.42 28.9 10.96 14.83 23.03 31.18 15.89 63.28-6.23 28.04-25.94 36.06-45.11 43.86-16.54 6.73-32.75 13.32-42.09 30.93-8.92 16.78-7.14 33.52-5.27 51.15 2.36 22.2 4.88 45.98-17.05 71.51-23.31 27.14-40.04 25.3-56.235 23.52-10.57-1.17-20.953-2.31-32.781 2.64l-54.867-105.13a5.44 5.44 0 0 0-1.981-2.14c1.848-2.45 4.063-4.59 6.817-6.27 8.257-5.05 17.921-3.48 28.023-1.84 14.852 2.4 30.566 4.95 46.418-10.08 17.391-16.48 17.453-31.52 17.504-45.2.019-6.18.047-12.07 1.945-17.46l1.125.51 6.392 35.43a5.533 5.533 0 0 0 6.42 4.47c3-.54 5.01-3.42 4.47-6.42l-5.04-27.9 23.96 10.92c2.78 1.27 6.06.04 7.33-2.73 1.27-2.78.04-6.07-2.73-7.34l-25.65-11.68Zm-90.354-260.82a5.54 5.54 0 0 0-11.016 1.17l3.953 37.23c-1.738-3.57-1.996-7.22-2.253-10.89-.747-10.56-1.512-21.31-26.438-32.53-24.082-10.84-41.824-3.11-58.105 3.99-2.102.91-4.172 1.82-6.227 2.66l20.48-111.28c9.836.14 18.696-3.54 27.997-7.39 16.23-6.75 34.023-14.13 59.89 3.05 23.649 15.71 27.406 37.75 31.059 59.2 3.082 18.13 6.105 35.88 19.684 50.65 13.4 14.57 30.4 18.04 48.22 21.66 21.82 4.45 45.02 9.18 61.8 37.77 18.55 31.63 11.64 48.5 5.36 63.78-3.1 7.55-6.06 14.78-6.54 23.11l-118.63 13.14a5.52 5.52 0 0 0-4.07 2.53 20.8 20.8 0 0 1-1.824-5.99c-1.426-9.65 2.785-15.87 7.114-22.25 6.6-9.75 13.42-19.82 5.85-40.79-8.359-23.13-24.62-29.17-39.511-34.69v.01c-4.609-1.71-9.066-3.37-12.996-5.49l34.055 7.13a5.54 5.54 0 0 0 6.55-4.3 5.53 5.53 0 0 0-4.297-6.54l-31.062-6.51 17.195-18.33a5.546 5.546 0 0 0-.238-7.83c-2.227-2.09-5.734-1.99-7.828.24l-15.133 16.13zm-279.66-.27c-3.028-.41-5.828 1.7-6.242 4.73a5.543 5.543 0 0 0 4.726 6.25l32.93 4.6c-1.629.03-3.277-.01-4.949-.06-11.25-.3-23.61-.63-40.758 16.53-15.985 15.99-14.93 37.24-13.957 56.8l.195 3.97-100-53.93c4.024-10 4.856-20.46 5.692-31.05 1.511-19.14 3.07-38.78 26.71-53.94 21.059-13.5 38.301-10.77 55.461-8.06 15.715 2.48 31.379 4.95 50.114-3 18.203-7.74 29.004-22.73 40.273-38.38 13.27-18.43 27.262-37.85 55.211-44.74 31.383-7.73 45.941 3.84 59.375 14.52 7.555 6.01 14.805 11.77 24.344 14.64l-20.77 112.86c-.246 1.35.02 2.67.657 3.77-3.844.95-7.657 1.38-11.493.96-10.246-1.13-16.257-6.2-22.629-11.58-9.187-7.77-19.066-16.11-41.726-16.34-26.371-.27-33.461 11.69-39.867 22.5-1.86 3.14-3.653 6.16-5.899 8.57l15.903-32.82c1.328-2.76.171-6.07-2.582-7.39a5.524 5.524 0 0 0-7.391 2.57l-13.547 27.96-12.07-22.42a5.54 5.54 0 0 0-9.758 5.25l11.496 21.36zm143.945 434.51a5.55 5.55 0 0 0 7.809-.74c1.949-2.36 1.617-5.86-.739-7.8l-21.765-18.03c2.426 1.1 4.836 2.33 7.269 3.56 13.602 6.89 27.797 14.09 49.797 5.25 19.278-7.75 24.543-22.56 29.508-36.55.867-2.43 1.723-4.83 2.645-7.16l53.031 101.62c-8.543 6.06-14.645 14.27-20.914 22.7-12.028 16.19-24.778 33.32-58.75 32.98-31.551-.32-45.688-15.96-58.645-30.3-10.355-11.47-20.051-22.2-36.605-25.67-16.649-3.49-32.387 2.44-49.117 8.74-20.782 7.82-43.266 16.28-69.161 5.15-28.832-12.38-36.531-34.83-43.097-53.99-3.028-8.83-5.848-17.05-10.309-23.83l85.504-84.92c1.738.92 3.391 2.07 4.918 3.54 7.453 7.1 9.406 16.78 11.504 27.18 2.992 14.85 6.266 31.04 24.676 45.11l.226.19c21.336 16.18 33.121 11.3 45.071 6.36 1.539-.63 3.086-1.28 4.66-1.86l-23.559 15a5.53 5.53 0 0 0 5.942 9.33l24.488-15.6-2.317 20.92a5.553 5.553 0 0 0 4.899 6.12 5.55 5.55 0 0 0 6.113-4.91l2.504-22.61zm-21.199-216.5a11.6 11.6 0 0 1-8.215 3.39c-3.203 0-6.109-1.3-8.211-3.4a11.6 11.6 0 0 1-3.402-8.21 11.604 11.604 0 0 1 11.613-11.62c3.207 0 6.113 1.31 8.215 3.4a11.6 11.6 0 0 1 3.398 8.22c0 3.19-1.285 6.09-3.359 8.18l-.031.03zm7.805-9.25c.378.2.761.38 1.152.55q-.57.3-1.121.63l.004-.15c0-.35-.012-.69-.035-1.03m-9.653-19.35c-2.09 2.09-5 3.39-8.211 3.39-3.207 0-6.113-1.3-8.211-3.4a11.6 11.6 0 0 1-3.402-8.21c0-3.21 1.301-6.12 3.398-8.22a11.63 11.63 0 0 1 8.215-3.4 11.58 11.58 0 0 1 8.211 3.41c2.102 2.1 3.403 5 3.403 8.21 0 3.19-1.286 6.09-3.364 8.18l-.031.03zm1.106 4.84v.31c0 .35.008.69.031 1.03q-.585-.315-1.199-.57c.402-.24.793-.5 1.168-.77m15.125-10.38c1.383 0 2.722-.18 4-.51 1.972.55 3.734 1.59 5.136 2.99a11.58 11.58 0 0 1 3.403 8.21c0 3.2-1.285 6.1-3.364 8.18l-.031.03-.008.02c-2.089 2.09-5 3.39-8.211 3.39-3.207 0-6.109-1.3-8.21-3.41a11.56 11.56 0 0 1-3.399-8.21 11.61 11.61 0 0 1 7.766-10.96c.945.18 1.926.27 2.918.27m3.855-5.09q-1.43-.27-2.93-.27c-1.378 0-2.722.18-4 .51a11.65 11.65 0 0 1-5.132-3 11.54 11.54 0 0 1-3.403-8.2 11.596 11.596 0 0 1 11.61-11.62 11.604 11.604 0 0 1 11.613 11.62c0 3.19-1.281 6.09-3.359 8.17l-.032.03-.007.02a11.6 11.6 0 0 1-4.36 2.74m29.262 10.17c-2.09 2.09-5 3.39-8.211 3.39a11.58 11.58 0 0 1-8.211-3.4 11.6 11.6 0 0 1-3.402-8.21c0-3.21 1.3-6.12 3.398-8.22a11.62 11.62 0 0 1 8.215-3.39c3.207 0 6.113 1.3 8.211 3.4 2.101 2.1 3.402 5 3.402 8.21 0 3.2-1.285 6.09-3.359 8.18l-.031.03zm-21.984 27.7c.246.41.503.8.781 1.17.98 1.71 1.547 3.69 1.547 5.8 0 3.2-1.286 6.09-3.364 8.18l-.031.03-.008.01c-2.09 2.09-5 3.39-8.211 3.39a11.58 11.58 0 0 1-8.211-3.4c-2.097-2.1-3.402-5-3.402-8.21s1.305-6.12 3.399-8.22a11.6 11.6 0 0 1 8.214-3.39c3.207 0 6.114 1.3 8.211 3.4.387.38.746.8 1.075 1.24m4.496-1.27c-.246-.41-.512-.81-.789-1.19a11.6 11.6 0 0 1-1.547-5.79c0-3.21 1.3-6.11 3.398-8.22a11.62 11.62 0 0 1 8.215-3.39c3.207 0 6.113 1.3 8.211 3.4 2.101 2.1 3.402 5 3.402 8.21 0 3.19-1.285 6.09-3.359 8.18l-.031.03-.012.01c-2.09 2.1-5 3.39-8.211 3.39a11.58 11.58 0 0 1-8.211-3.4c-.383-.38-.742-.79-1.066-1.23m17.418-20.82a16.3 16.3 0 0 0 3.203-2.48l.004-.01h.004l.05-.05a16 16 0 0 0 4.653-11.29c0-4.43-1.797-8.45-4.703-11.35a15.98 15.98 0 0 0-11.352-4.7c-3.27 0-6.316.98-8.859 2.66a15.98 15.98 0 0 0-4.692-10.87 16 16 0 0 0-11.355-4.71c-4.422 0-8.434 1.8-11.34 4.71h-.008l-.035.04a16 16 0 0 0-4.664 10.99 16 16 0 0 0-8.395-2.37c-4.422 0-8.437 1.8-11.34 4.71h-.011l-.035.04c-2.883 2.91-4.668 6.9-4.668 11.31 0 4.43 1.8 8.45 4.703 11.35a16.2 16.2 0 0 0 5.051 3.42 15.9 15.9 0 0 0-3.196 2.48l-.008.01-.039.03a16 16 0 0 0-4.668 11.31c0 4.43 1.805 8.44 4.707 11.35a16 16 0 0 0 11.348 4.7c3.07 0 5.949-.87 8.395-2.37l-.004.15c0 4.43 1.8 8.45 4.703 11.35a16 16 0 0 0 11.351 4.71c4.418 0 8.434-1.8 11.344-4.71h.004l.004-.01.047-.05a15.98 15.98 0 0 0 4.656-11.29l-.019-.78a16.05 16.05 0 0 0 7.023 1.61c4.418 0 8.434-1.79 11.344-4.7h.004l.004-.01.05-.05c2.875-2.9 4.653-6.9 4.653-11.29 0-4.43-1.797-8.45-4.703-11.35-.958-.96-2.036-1.8-3.211-2.49m-24.848 14.32q.334-.18.656-.36l.016.66zm-15.586-67.11a5.546 5.546 0 0 0 6.18 4.83l.007-.01.114.01a5.556 5.556 0 0 0 5.554-5.55c0-7.89 4.067-15.6 10.153-21.43 6.281-6.02 14.633-9.95 22.847-9.95 8.04 0 15.317 3.26 20.582 8.53a28.99 28.99 0 0 1 8.528 20.58c0 6.65-1.641 13.38-4.762 18.9-2.723 4.82-6.57 8.69-11.394 10.66-2.836 1.14-4.204 4.38-3.055 7.22.332.82.836 1.51 1.457 2.07a5.55 5.55 0 0 0 5.476 2.07c1.993-.39 4-.58 5.993-.58v-.02c7.566 0 14.769 2.79 20.457 7.46 5.675 4.65 9.828 11.18 11.297 18.64.382 1.93.582 3.94.582 6.02 0 7.28-2.461 13.3-6.379 17.91-3.965 4.64-9.422 7.96-15.375 9.76-6.016 1.83-12.524 2.12-18.524.73-6.238-1.45-11.898-4.78-15.754-10.15a5.54 5.54 0 0 0-3.621-2.25 5.53 5.53 0 0 0-4.797.92 5.543 5.543 0 0 0-1.066 7.75c2.867 3.76 4.227 8.84 4.227 14.3 0 5.06-1.157 10.33-3.348 15.17l-.199.39c-2.305 4.94-5.668 9.4-9.95 12.66-4.468 3.4-10.023 5.52-16.515 5.52-5.774 0-10.926-1.56-15.203-4.2-4.301-2.66-7.785-6.41-10.196-10.76a29.6 29.6 0 0 1-3.718-14.33c0-4.61 1.109-9.32 3.504-13.71.371-.5.726-1.02 1.074-1.54a5.537 5.537 0 0 0-1.563-7.67c-2.195-1.46-5.058-1.13-6.886.62a5.6 5.6 0 0 0-1.235 1.39c-.211.35-.418.7-.621 1.04a29.3 29.3 0 0 1-9.434 8.07c-4.066 2.17-8.746 3.41-13.746 3.41-8.035 0-15.312-3.26-20.582-8.53-5.265-5.27-8.527-12.54-8.527-20.58 0-1.66.141-3.23.402-4.68 1.317-7.25 5.614-13.82 11.457-18.61 5.832-4.78 13.184-7.72 20.61-7.72 1.683 0 3.301.13 4.812.4.735.13 1.465.11 2.153-.04a5.549 5.549 0 0 0 .945-10.91c-6.149-1.56-11.477-5.5-15.301-10.72-3.945-5.39-6.277-12.15-6.277-19.11 0-8.04 3.258-15.32 8.523-20.59a29.01 29.01 0 0 1 20.586-8.52c7.621 0 14.914 2.8 20.496 7.45 5.371 4.47 9.137 10.66 10.012 17.68" style="fill:#e3212c;fill-opacity:1;fill-rule:nonzero;stroke:none" transform="matrix(.13333 0 0 -.13333 -1.208 439.237)"></path><path d="m1534.82 2781.82 106.16 64.68 1.95-232.97c.15-18.71 30.56-17.19 43.32-26.47-20.48-8.26-47.7-4.87-71.85-8.84-24.59-4.03-49.17-13.59-74.37-15.17 15.53 13.59 46.29 22.28 46.6 40.77l2.65 160.83c.62 37.45-44.76 8.79-54.46 17.17m253.06 3.76c7.76-6.39 18.34-11.94 32.53-18.6 5.56 6.05 10.3 14.41 13.73 22.97 4.15 10.38 6.34 20.91 5.74 27.84-.79 9.14-2.86 19.19-8.77 26.69-5.81 7.37-15.57 12.45-31.97 12.02-1.83-.05-3.63-.36-5.38-.88-7.04-2.12-12.88-7.91-16.95-14.99-4.17-7.27-6.44-15.81-6.24-23.26.06-2.44.4-4.78 1.04-6.9 3.26-10.83 8.36-18.38 16.27-24.89m26.05-88.26c-9.33 8.16-21.47 15.28-35.71 23.38-5.62-7.5-10.5-18.07-14.07-28.88-4.36-13.2-6.74-26.63-6.13-35.23.91-12.8 4.23-27.05 12.98-36.6 6.47-7.07 16.09-11.64 30.18-11.19 1.2.04 2.41.22 3.6.51 8.14 2.01 15.63 9.63 21.07 19.15 5.57 9.75 8.91 21.38 8.6 31.12-.07 2.25-.35 4.41-.84 6.4-3.28 13.28-10.06 22.93-19.68 31.34m43.58 82.23c-9.53-8.19-20.4-13.52-28.89-17.07 15.81-9.07 28.55-18.03 38.1-28.19 10.96-11.65 17.69-24.8 19.99-41.32 3.34-24.1-4.87-44.17-18.73-59.79-17.12-19.3-42.95-31.73-66.03-36.47-6.95-1.42-13.59-2.16-19.85-2.26-18.42-.33-33.65 4.69-44.94 12.97-11.42 8.38-18.82 20.08-21.47 32.97-.65 3.19-1.02 6.47-1.08 9.79-.27 15.43 6.05 29.54 15.94 41.86 10.61 13.21 25.4 24.39 40.48 32.94-11.92 6.56-24.26 14.56-33.97 23.86-11.56 11.09-19.45 24.07-18.77 38.82.99 21.41 11.46 40.93 27.6 55.6 16.31 14.81 38.45 24.72 62.49 26.64 1.25.1 2.64.17 4.19.22h.02c13.11.35 28.97-2.26 41.85-8.48 13.38-6.46 23.66-16.78 24.85-31.71.03-.49.07-1.12.09-1.88.6-22.36-9.43-37.8-21.87-48.5m44.41 22.25 19.34 76.26 149.76 24.87-88.42-273.55-27.08-4.97 71.84 223.81c-21.62 4.08-42.68-.74-61.34-4.98-10-2.27-18.75-.93-28.18-4.97-11.61-4.97-25.42-34.26-35.92-36.47m299.62-25.41 1.09.72c3.03 12.64 5.54 36.82 4.92 61.54-.44 17.35-2.43 34.89-6.89 48.74-4.23 13.15-10.61 22.83-19.91 25.37-1.79.49-3.71.71-5.77.66-12.12-.3-18.76-10.75-22.39-24.31-3.88-14.56-4.32-32.59-4.2-46.4v-.69c.07-8.14.15-18.06 1.62-27.8 3.35-22.19 14.29-43.39 50.93-37.86q.3.045.6.03m-1.38-8.66c-6.45-3.78-12.68-6.63-18.84-8.63-8.6-2.8-17.08-3.95-25.83-3.72-17.54.45-33.64 8.02-45.2 22.36-10.4 12.91-17.08 31.31-17.72 54.92v.03l-.02.81c-.31 22.62 11.12 46.43 29.07 64.71 17.91 18.25 42.39 31.08 68.22 31.77h.01l1.02.02h.1c1.52.03 2.99 0 4.41-.08 20.24-1.13 37.47-11.83 49.7-28.87 12.04-16.76 19.21-39.7 19.58-65.64.04-3.52-.03-7.05-.23-10.59-2.3-41.12-16.34-77.12-43.56-107.73-27.06-30.43-67.15-55.46-121.67-74.82-1.73-.61-3.63.3-4.24 2.03-.55 1.58.15 3.29 1.58 4.05 29.43 18.24 52.32 36.74 69.67 57.42 15.47 18.43 26.54 38.64 33.95 61.96" style="fill:#0f1e44;fill-opacity:1;fill-rule:evenodd;stroke:none" transform="matrix(.13333 0 0 -.13333 -1.208 439.237)" data-source="https://football-logos.cc"></path><path d="M1931.01 1394.59c223.88 0 405.38-181.49 405.38-405.379 0-223.883-181.5-405.379-405.38-405.379s-405.38 181.496-405.38 405.379c0 223.889 181.5 405.379 405.38 405.379" style="fill:#fff;fill-opacity:1;fill-rule:evenodd;stroke:none" transform="matrix(.13333 0 0 -.13333 -1.208 439.237)"></path><path d="M1931.01 1367.25c3.7 0 7.4-.05 11.08-.16.95.22 1.93.18 2.84-.09 98.86-3.58 188.04-45.11 253.39-110.47 68.42-68.41 110.73-162.92 110.73-267.319 0-104.391-42.31-198.902-110.73-267.316-68.41-68.411-162.91-110.723-267.31-110.723-104.39 0-198.9 42.312-267.31 110.723-68.41 68.414-110.73 162.925-110.73 267.316 0 30.109 3.52 59.389 10.17 87.469l-.22 1.21h.01l-.03.21c-.25 1.88.48 3.67 1.79 4.85 17.02 66.73 51.8 126.37 99.01 173.58 68.41 68.41 162.92 110.72 267.31 110.72" style="fill:#7f6413;fill-opacity:1;fill-rule:nonzero;stroke:none" transform="matrix(.13333 0 0 -.13333 -1.208 439.237)"></path><g clip-path="url(#a)" transform="matrix(.13333 0 0 -.13333 -1.208 439.237)"><path d="M2196.18 1041.42c27.71-29.08 48.82-72.943 55.52-125.482 4.73-37.047 2.3-78.458-10.02-122.067 35.64 56.567 56.27 123.543 56.27 195.34 0 60.839-14.81 118.219-41.02 168.729-18.74-40.43-38.92-79.37-60.75-116.52m24.48-277.502c-.13.891-.04 1.828.31 2.727 20.46 53.183 25.38 103.785 19.76 147.898-6.22 48.738-25.29 89.497-50.44 116.967-12.45-20.74-25.43-40.905-38.97-60.436a1009 1009 0 0 0-16.11-22.566 203 203 0 0 0 9.54-17.293c23.48-47.867 27.55-103.5 11.75-155.942-14.76-48.996-46.83-95.226-96.57-129.707 49.47 18.567 93.87 47.512 130.55 84.184a370 370 0 0 1 30.18 34.168m-205.96 50.887a5.53 5.53 0 0 0 1.7-3.793c19.77-25.641 30.93-51.785 33.15-80.489 2.12-27.214-3.84-56.539-18.14-89.738 4.16 2.336 8.22 4.754 12.18 7.246 53.3 33.555 87.25 80.496 102.29 130.407 15 49.824 11.18 102.593-11.06 147.917a191 191 0 0 1-6.75 12.555c-34.24-45.445-71.87-87.066-113.37-124.105m-162.88 39.515c43.65-19.297 94.43-31.933 149.5-37.136.32.644.76 1.23 1.32 1.726 52.36 45.957 98.55 99.281 139.57 158.453 40.85 58.937 76.58 123.677 108.13 192.717a368.3 368.3 0 0 1-59.86 78.6 386 386 0 0 1-9.89 9.52c-43.83-85.1-93.13-161.87-148.25-229.72-54.41-66.964-114.47-125.199-180.52-174.16m-57 31.86c12.07-8.461 25.06-16.227 38.89-23.27 2.26-1.039 4.56-2.058 6.92-3.058 67.14 49.109 128.06 107.843 183.12 175.608 55.14 67.88 104.45 144.88 148.31 230.42a368.3 368.3 0 0 1-66.75 46.31l-.11-.06c-63.05-35.46-124.93-92.22-180.88-161.35l.02-.01c-58.43-72.19-110.33-157.782-150.33-246.625 6.97-6.68 13.81-12.614 20.81-17.965m-97.26 181.63c.09-.42.14-.86.13-1.32-1.23-62.46 23.77-115.162 67.08-155.927 40.3 89.093 92.38 174.827 150.94 247.187l.01-.01.01.01c54.97 67.94 115.72 124.18 177.86 160.5-45.14 22.35-95.53 35.68-148.83 37.65-28.16-20.49-55.22-44.38-81.38-71.06a5.55 5.55 0 0 0-2.15-2.2c-15.65-16.08-30.98-33.16-46.02-51.12-4.94-5.89-9.85-11.88-14.73-17.96l-.02-.03c-.33-.61-.76-1.13-1.26-1.56-35.2-43.99-68.9-92.62-101.64-144.16m309.02-262.228c-66.58 5.59-127.37 21.805-177.65 47.344-10.89 5.023-20.73 10.508-30.1 16.777a215 215 0 0 0-10.47 7.488 293 293 0 0 0-15.06 11.297c-54.88 44.047-87.49 103.801-86.69 176.192-18.97 5.27-37.97 8.72-56.98 10.27-18.28 1.5-36.53 1.23-54.74-.87 21.85-117.326 76.39-206.295 151.26-267.978 83.48-68.786 192.34-103.813 309.42-106.555a5.6 5.6 0 0 0 1.78-.344c1.53 10.563 1.91 20.695 1.15 30.492-2.09 26.899-12.83 51.535-31.92 75.887m28.85-117.098-.12.004c-119.5 2.801-230.72 38.657-316.18 109.071-71.76 59.121-125.3 142.515-150.27 251.051a369 369 0 0 1-4.79-59.399c0-101.324 41.07-193.063 107.47-259.461 66.41-66.402 158.14-107.477 259.47-107.477 28.96 0 57.15 3.36 84.18 9.707 9.8 20.293 16.52 38.997 20.24 56.504m-248.48 525.896c-17.17 8.25-36.49 13.16-57.66 15.2-23.87 2.3-50.15.93-78.4-3.43v.01l-.07-.01c-34.17-40.36-59.77-88.2-74-140.72 17.91 1.87 35.81 2.04 53.67.58 19.56-1.59 39.15-5.15 58.77-10.59 31.48 49.47 63.88 96.29 97.69 138.96m61.66 71.14c-31.83 12-63.17 11.76-94.13 2.29-28.84-8.82-57.48-25.67-85.96-48.14 21.83 2.37 42.5 2.78 61.82.92 23.38-2.25 44.73-7.85 63.69-17.36 4.2 5.2 8.43 10.34 12.68 15.41 13.71 16.36 27.67 32.02 41.9 46.88m-145.22-8.48c15.85 9.19 31.8 16.43 47.88 21.35 34.72 10.63 69.9 10.42 105.69-4.27 22.48 22.8 45.65 43.59 69.63 62.01-84.28-1-161.71-30.41-223.2-79.09" style="fill:url(#b);fill-opacity:1;fill-rule:nonzero;stroke:none"></path></g><path d="m1179.72 1063.04-.01-39.43-77.08-13.14v40.33c0 20.73-14.38 29.24-22.88 28.63-8.35-.59-27.66-8.75-27.66-31.73V841.313c0-23.754 17.46-32.196 25.55-31.672 8.79.57 24.99 12.511 24.99 38.148v62.672l77.08 9.109.01-85.425c0-89.133-199.325-164.7-199.325 0v209.805c0 126.82 199.325 178.66 199.325 19.09m41.69-207.352 70.23 13.195v-83.348l-70.23-13.195zm-355.699-54.469 70.223 13.195v-83.351l-70.223-13.196zM651.762 1077.51l162.754 30.26v-85.48l-93.192-15.75v-70.88L806 949.984l-.012-76.011-84.664-13.785V691.684l-69.562-12.539z" style="fill:#fff;fill-opacity:1;fill-rule:evenodd;stroke:none" transform="matrix(.13333 0 0 -.13333 -1.208 439.237)"></path><path d="M334.031 1449.66v462.97l111.711 17 30.422-192.28c.152-1.01 1.363-13.14 3.637-36.6 2.344-23.34 4.691-46.79 7.262-70.31 1.89 18.15 4.316 40.57 7.191 67.38s4.539 41.63 4.996 44.57l30.117 199.95 110.649 16.84V1496.2l-75.379-11.47 6.886 358.85-54.113-366.03-60.769-9.24-54.114 349.57 6.883-356.75zm502.606 266.17v83.53c0 51.3-2.426 82.64-7.192 94.02-4.843 11.37-13.472 16.11-26.035 14.2-12.258-1.86-20.812-9.42-25.504-22.55-4.769-13.14-7.113-45-7.113-95.69v-83.53c0-50.07 2.344-81.11 7.113-93.11q7.039-18.015 25.883-15.15c12.488 1.9 21.039 9.46 25.731 22.59 4.769 13.14 7.117 45 7.117 95.69m-147.203 19.37c0 55.72 1.511 96.59 4.464 122.68 2.954 26.1 7.797 46.96 14.61 62.35 9.762 21.91 22.555 39.04 38.367 51.4 15.82 12.36 34.813 20.17 56.988 23.55 22.254 3.38 41.25 1.35 56.84-6.24 15.59-7.58 28.231-20.85 37.988-39.78 7.118-13.49 12.11-32.94 15.063-58.14s4.465-65.51 4.465-121.02c0-55.3-1.512-96.07-4.465-122.27s-7.945-47.18-15.063-62.83c-9.609-21.67-22.25-38.79-37.988-51.24-15.742-12.34-34.738-20.26-56.84-23.62-22.175-3.38-41.168-1.24-56.988 6.32-15.812 7.64-28.605 20.88-38.367 39.61-6.813 13.33-11.656 32.71-14.61 57.91s-4.464 65.61-4.464 121.32m277.597-189.26v462.97l83.179 12.65 66.37-275.46c-2.72 47.6-4.69 88.86-5.9 123.56-1.29 34.59-1.89 64.05-1.89 88.06v72.75l71.14 10.82v-462.97l-83.33-12.68-66.83 284.13c2.96-37.83 5.23-74.63 6.74-110.31 1.59-35.78 2.35-70.55 2.35-104.41v-78.19zm310.449 47.22v373.09l-63.87-9.72v89.88l211.14 32.12v-89.89l-67.2-10.22v-373.08zm258.75 309.63c1.36.2 3.11.37 5.23.48 2.12.12 3.7.26 4.76.42 16.58 2.52 28.31 8.82 35.2 18.9 6.88 10.07 10.29 25.77 10.29 47.22 0 19.91-3.41 33.45-10.29 40.72-6.89 7.26-18.62 9.68-35.2 7.16-1.06-.17-2.64-.51-4.76-1.03-2.12-.53-3.87-.9-5.23-1.11zm-78.93-282.29v462.98l89.83 13.66c29.37 4.47 50.78 5.88 64.03 4.2 13.32-1.67 24.14-6.38 32.39-14.16 9.76-9.39 17.03-21.63 21.87-36.69 4.77-15.07 7.19-33.59 7.19-55.44 0-26.58-3.4-49.46-10.29-68.57-6.89-19.1-17.56-35.51-32.02-49.4 24.68-11.03 37.62-44.25 38.98-99.56v-1.54c.15-5.72.31-14.11.45-25.17.61-52.03 6.97-83.7 19.07-95.09l-93.31-14.19c-2.12 9.32-3.63 19.15-4.61 29.46-.91 10.43-1.44 21.64-1.44 33.64 0 7.39.15 16.44.45 26.96.3 10.61.45 17.51.45 20.69 0 28.32-2.72 47.2-8.17 56.83-5.53 9.53-15.36 13.27-29.51 11.11l-16.43-2.49v-185.21zm406.41 251.55v83.52c0 51.3-2.42 82.64-7.19 94.03-4.85 11.36-13.48 16.11-26.04 14.2-12.26-1.87-20.81-9.43-25.5-22.56-4.77-13.14-7.12-45-7.12-95.69v-83.52c0-50.07 2.35-81.11 7.12-93.11 4.69-12.01 13.32-17.06 25.88-15.15 12.49 1.9 21.04 9.46 25.73 22.59 4.77 13.14 7.12 45 7.12 95.69m-147.2 19.37c0 55.72 1.51 96.58 4.46 122.68s7.8 46.95 14.61 62.35c9.76 21.91 22.55 39.04 38.37 51.4s34.81 20.17 56.99 23.54c22.24 3.39 41.24 1.35 56.83-6.23s28.23-20.85 37.99-39.78c7.12-13.49 12.12-32.95 15.07-58.15s4.46-65.5 4.46-121.01c0-55.31-1.51-96.07-4.46-122.27-2.95-26.21-7.95-47.18-15.07-62.83-9.61-21.68-22.24-38.79-37.99-51.24-15.74-12.34-34.73-20.27-56.83-23.63-22.18-3.37-41.17-1.23-56.99 6.32-15.82 7.65-28.61 20.89-38.37 39.62-6.81 13.33-11.66 32.7-14.61 57.9-2.95 25.21-4.46 65.61-4.46 121.33m267.23-33.85 73.18 11.13v-13.54c0-25.45 2.2-43.07 6.66-52.86 4.39-9.7 11.88-13.79 22.32-12.2 8.4 1.28 15.07 6.29 19.91 14.93 4.92 8.65 7.34 19.79 7.34 33.43 0 22.48-11.88 42.11-35.72 59.22-3.86 3-6.81 5.22-8.86 6.76l-3.78 2.71c-32.01 24.37-51.99 43.39-59.86 56.97-5.61 10.43-9.84 22.41-12.79 35.92-2.95 13.61-4.47 28.77-4.47 45.39 0 40.43 8.63 73.55 25.96 99.17 17.26 25.71 41.1 40.83 71.37 45.44 33 5.01 58.12-2.45 75.53-22.48 17.33-20.04 26.03-51.45 26.03-94.34 0-1.85-.07-4.32-.22-7.63-.16-3.2-.23-5.68-.23-7.52l-71.59-10.89v5.75c0 20.21-2.35 35.24-6.97 44.9-4.69 9.76-11.43 13.96-20.35 12.61-7.5-1.14-13.63-5.77-18.17-13.74-4.62-7.99-6.89-18.09-6.89-30.09q0-29.4 39.06-56.55c4.69-3.49 8.32-6.23 10.82-8 2.11-1.32 4.99-3.35 8.7-6.17 27.92-19.86 45.79-37.36 53.66-52.58 4.84-9.93 8.62-21.36 11.2-34.52 2.57-13.15 3.86-27.63 3.86-43.43 0-46.28-8.86-83.33-26.56-111.06-17.79-27.75-43.15-44.12-76.07-49.13-34.58-5.26-60.54 2.8-77.95 24.06-17.33 21.38-26.03 55.66-26.03 102.96 0 2.98 0 6.15.07 9.45.08 3.3.38 8.68.84 15.93m248.69-119.17v462.98l185.79 28.26v-89.89l-106.4-16.18v-85.07l98.23 14.94v-92.86l-98.23-14.94v-101.07l106.4 16.18v-94.09z" style="fill:#fff;fill-opacity:1;fill-rule:nonzero;stroke:none" transform="matrix(.13333 0 0 -.13333 -1.208 439.237)" data-source="https://football-logos.cc"></path><!-- source: https://football-logos.cc --></svg>