<svg xmlns="http://www.w3.org/2000/svg" viewBox="71 94.84 452.91 504.81"><!-- Source: https://football-logos.cc --><path d="M256.138 478.214c7.35 2.006 14.896 3.595 22.946 4.1.467.03.85.387.85.85v9.891c0 .462-.231.964-.69.925-8.682-.738-16.63-2.358-23.312-4.496-.455-.087-.644-.345-.644-.813v-9.607c0-.468.399-.974.85-.85M338.242 478.249c-7.14 2.128-14.474 3.426-22.515 4.054a.975.975 0 0 0-.794.954l.019 9.807c0 .459.385.928.85.887a113.6 113.6 0 0 0 22.665-4.345c.448-.134.85-.383.85-.85l-.009-9.807c0-.467-.622-.832-1.066-.7zM256.091 462.282c2.697.694 5.366 1.478 8.134 2.031.458.092.85.432.85.897v9.783c0 .463-.602.852-1.056.76-2.691-.541-5.352-1.282-7.993-2.149-.441-.144-.729-.401-.729-.869l-.019-9.513c0-.468.36-1.056.813-.94M270.415 465.38c7.365 1.146 15.23 1.703 23.895 1.849.468.008.846.436.846.902v9.814c0 .464-.395.903-.86.906-7.942.06-15.917-.735-23.96-1.926-.46-.068-.865-.213-.865-.681v-10.098c0-.468.482-.837.944-.766M338.422 462.282c-2.697.694-5.366 1.478-8.134 2.031-.458.092-.85.432-.85.897v9.783c0 .463.602.852 1.057.76 2.69-.541 5.351-1.282 7.992-2.149.441-.144.729-.401.73-.869l.018-9.513c0-.468-.36-1.056-.813-.94M324.098 465.38c-7.365 1.146-15.23 1.703-23.895 1.849-.468.008-.846.436-.846.902v9.814c0 .464.395.903.86.906 7.942.06 15.917-.735 23.96-1.926.46-.068.865-.213.865-.681v-10.098c0-.468-.482-.837-.944-.766" style="fill:#fff;fill-rule:evenodd" data-source="https://football-logos.cc"></path><path d="m261.968 392.986-.008-.01h-.001l-.246-.338-6.96-9.485a18 18 0 0 1-.482-.69c-1.262-1.436-3.17-2.649-5.242-3.423-2.24-.836-4.6-1.133-6.44-.606-3.277.939-5.474 2.961-6.78 5.72-1.572 3.322-1.953 7.74-1.425 12.71.615 5.792.29 12.023-1.453 18.252-1.525 5.448-4.138 10.891-8.158 16.03-.755.965-1.593 1.96-2.427 2.95-2.607 3.096-5.175 6.146-6.094 9.835-.576 2.315-.542 4.948.263 7.27.662 1.91 1.86 3.604 3.689 4.69 1.812 1.078 3.694 1.525 5.624 1.543 2.043.018 4.21-.44 6.445-1.148l22.582-7.164 1.46 4.584-.012.004.002.006-1.7.539-21.068 6.765c-2.891.929-5.757 3.002-7.67 5.58-1.602 2.16-2.492 4.64-2.05 6.99.663 3.513 2.226 5.843 4.509 7.473 2.468 1.762 5.859 2.832 9.903 3.703 4.163.897 8.324 2.282 12.21 4.173 3.634 1.768 7.044 3.986 10.014 6.667 4.85 4.38 7.376 8.285 9.782 12.005 1.97 3.046 3.855 5.96 6.925 8.799 1.32 1.221 3.23 2.019 5.313 2.306 2.097.288 4.323.05 6.274-.798 1.599-.696 3.079-2.225 4.197-4.101 1.191-2 1.93-4.33 1.947-6.441l.105-12.973 4.8.028v.009l-.001.108-.096 12.837a13 13 0 0 0 .203 2.346v.009c.504 2.828 1.952 5.074 3.779 6.611 1.8 1.515 3.936 2.342 5.865 2.357q.541.005 1.123-.1c2.608-.464 4.663-1.052 6.34-2.027 1.617-.94 2.973-2.298 4.266-4.343 2-3.16 3.98-6.214 6.18-9.137 2.22-2.95 4.633-5.722 7.453-8.247 3.328-2.978 7.306-5.17 11.473-6.866 4.07-1.657 8.322-2.847 12.306-3.843 2.453-.614 4.473-1.382 6.137-2.441 1.608-1.023 2.941-2.357 4.086-4.136 1.262-1.962 1.833-3.733 1.878-5.352.045-1.592-.413-3.112-1.213-4.576-.961-1.76-2.072-2.92-3.402-3.796-1.43-.942-3.219-1.636-5.364-2.386l-23.291-8.148 1.58-4.537 23.296 8.138c2.105.735 4.756 1.012 7.366.557 2.146-.374 4.24-1.253 5.92-2.796 2.192-2.013 3.335-4.75 3.13-7.867-.207-3.101-1.706-6.606-4.762-10.233-2.165-2.57-4.367-5.38-6.298-8.305-1.992-3.019-3.734-6.198-4.925-9.435a47.8 47.8 0 0 1-2.504-9.917c-.476-3.391-.591-6.882-.338-10.534.061-.876.109-1.446.156-2.002.27-3.213.525-6.265-.456-9.892-.575-2.13-2.019-4.265-3.827-5.871l.004-.005c-1.662-1.475-3.565-2.452-5.27-2.47-2.217-.024-4.249.443-5.998 1.282-1.807.866-3.318 2.131-4.421 3.659l-7.002 9.698-3.896-2.805 7.001-9.736c1.453-2.02 2.374-5.164 2.156-8.226-.17-2.369-1.054-4.644-2.968-6.166-2.48-1.971-4.863-2.984-7.564-3.083-2.887-.105-6.26.774-10.558 2.588-2.992 1.262-6.43 2.357-9.986 3.113-3.269.694-6.682 1.113-9.996 1.125-4.195.015-8.394-.653-12.412-1.692-3.96-1.024-7.751-2.413-11.19-3.86-2.888-1.214-4.946-1.596-6.714-1.467-1.755.127-3.405.79-5.363 1.646-2.173.949-3.476 2.109-4.246 3.48-.81 1.443-1.12 3.248-1.251 5.343-.07 1.116.133 2.334.526 3.534l.003-.001c.349 1.06.839 2.084 1.417 3q.264.315.5.64l7.227 9.94zm37.742 126.235-.025 4.894v.023h.007q-.001.158-.005.314c.062 3.649 1.423 7.789 4.025 10.839 2.114 2.478 5.07 4.209 8.826 4.264 3.62.053 6.726-.875 9.348-2.486 2.994-1.84 5.387-4.579 7.21-7.775 2.777-4.872 5.917-9.355 9.448-13.324 3.367-3.785 7.109-7.123 11.254-9.91a60.5 60.5 0 0 1 10.47-5.65 58.3 58.3 0 0 1 11.256-3.418c5.361-1.05 8.93-2.383 11.458-4.175 2.427-1.72 3.983-3.958 5.354-6.863 1.03-2.182 1.415-3.98 1.338-5.64-.079-1.676-.637-3.323-1.488-5.142-.715-1.53-2.023-3.071-3.444-4.4-1.92-1.795-3.93-3.115-4.993-3.506l-.006-.003-6.137-2.25q.093.163.185.33c1.188 2.175 1.867 4.494 1.797 7.005-.07 2.482-.87 5.08-2.631 7.818-1.53 2.376-3.343 4.177-5.554 5.585-2.156 1.372-4.631 2.332-7.549 3.062-3.801.95-7.845 2.08-11.666 3.636-3.723 1.516-7.233 3.434-10.08 5.982-2.56 2.293-4.77 4.832-6.814 7.55-2.067 2.748-3.996 5.723-5.953 8.818-1.736 2.744-3.62 4.605-5.923 5.943-2.24 1.302-4.784 2.051-7.921 2.61-.614.11-1.274.161-1.97.156-3.016-.022-6.273-1.246-8.934-3.486a16 16 0 0 1-.883-.802zm72.069-56.804.184-.503q-.262.067-.525.126.173.184.34.377m3.732-1.832 5.89 2.16.005.003c2.467.902 5.724.647 8.79-.396 3.134-1.068 5.972-2.926 7.487-5.19 1.844-2.755 2.324-6.297 1.727-9.914-.656-3.974-2.607-8-5.495-11.214-3.315-3.69-6.432-7.474-9.09-11.659-2.686-4.23-4.898-8.867-6.363-14.22a69 69 0 0 1-2.18-12.349c-.325-3.906-.32-7.972.155-11.963.849-7.122.006-12.174-2.039-15.755-1.972-3.456-5.16-5.633-9.064-7.054-2.324-.846-5.066-.469-7.623.505-3.226 1.23-6.047 3.336-7.453 5.198l-.203.302-3.186 4.631a19 19 0 0 1 3.757-.329c2.933.032 5.95 1.487 8.42 3.68h.01c2.465 2.19 4.452 5.175 5.276 8.224 1.201 4.44.911 7.894.606 11.53-.061.735-.123 1.471-.155 1.926-.231 3.334-.129 6.5.3 9.555a43 43 0 0 0 2.259 8.92c1.054 2.864 2.619 5.712 4.417 8.437 1.859 2.817 3.935 5.47 5.96 7.873 3.764 4.467 5.62 8.932 5.89 13v.009c.309 4.63-1.398 8.707-4.673 11.716a15.4 15.4 0 0 1-3.425 2.374zm-32.295-85.805-.044-.03-.005.05zm-.095-4.15 2.961-4.32q.13-.188.274-.38c2.034-3.13 3.069-6.908 2.955-10.378-.104-3.204-1.201-6.094-3.414-7.8-3.39-2.616-6.743-3.996-10.068-4.347-3.337-.353-6.71.315-10.116 1.798-4.886 2.128-9.536 3.893-14.22 5.1-4.733 1.22-9.456 1.854-14.417 1.698a72.3 72.3 0 0 1-14.03-1.812c-4.64-1.07-9.259-2.624-13.873-4.695-3.204-1.439-5.94-2.079-8.457-2.104-2.504-.026-4.863.552-7.304 1.551a17 17 0 0 0-1.72.818c-3.171 1.727-5.169 4.241-5.985 7.24-.85 3.128-.468 6.833 1.154 10.796q.548 1.337 1.31 2.754l3.345 4.626c.242-2.127.728-4.064 1.72-5.83 1.27-2.264 3.283-4.118 6.523-5.533 2.395-1.046 4.445-1.859 6.943-2.04 2.485-.18 5.236.295 8.918 1.844 3.241 1.364 6.811 2.672 10.53 3.633 3.66.947 7.457 1.555 11.208 1.541 2.922-.01 6-.394 8.998-1.03 3.287-.7 6.426-1.694 9.12-2.831 4.95-2.09 8.96-3.097 12.59-2.964 3.817.14 7.086 1.492 10.389 4.118 2.797 2.224 4.226 5.313 4.666 8.547m-95.78 2.99-3.166-4.345c-1.85-2.539-5.276-4.814-8.922-5.94-3.054-.943-6.179-1.045-8.447.27-2.886 1.675-5.366 4.202-7.028 7.081v.01c-1.564 2.706-2.394 5.699-2.136 8.538.613 6.74 1.024 12.153.808 17.23-.222 5.198-1.09 9.998-3.04 15.38-1.418 3.913-2.594 6.897-4.583 10.32-1.959 3.37-4.69 7.117-9.219 12.558l-.205.247c-3.601 4.323-8.435 10.125-5.596 19.864.952 3.264 3.266 5.552 6.13 6.873 3.333 1.538 7.384 1.793 10.983.796l.085-.025 6.105-1.725a16 16 0 0 1-1.353-.719c-2.889-1.716-4.763-4.337-5.78-7.27-1.117-3.225-1.176-6.836-.393-9.98 1.186-4.761 4.116-8.24 7.09-11.773a99 99 0 0 0 2.315-2.819c3.6-4.603 5.942-9.484 7.31-14.374 1.568-5.6 1.859-11.216 1.303-16.444-.617-5.814-.113-11.105 1.858-15.27 1.898-4.01 5.077-6.944 9.812-8.3 1.854-.53 3.958-.555 6.068-.184zm-26.319 91.591-6.725 1.9-.058.017c-1.182.388-4.966 2.932-7.387 7.146l.007.004c-1.42 2.472-2.279 5.495-1.659 8.926.564 3.119 2.263 5.758 4.48 7.865 2.807 2.668 6.424 4.475 9.68 5.346l.92.247c9.77 2.61 19.206 5.134 26.936 11.175 3.123 2.44 6.354 5.276 9.381 8.613 3.056 3.369 5.928 7.268 8.313 11.818 1.98 3.777 4.198 6.308 6.623 8.018 2.403 1.694 5.068 2.613 7.939 3.162q1.159.22 2.201.227c3.226.03 6.088-1.308 8.307-3.474 2.3-2.245 3.921-5.376 4.581-8.83.188-.98.298-1.97.325-2.953q-.002-.162 0-.322l.024-4.903c-1.25 1.359-2.689 2.454-4.243 3.13-2.784 1.21-5.916 1.556-8.834 1.155-3.024-.416-5.869-1.642-7.93-3.548-3.535-3.269-5.57-6.415-7.696-9.703-2.231-3.45-4.574-7.072-8.973-11.044-2.619-2.364-5.652-4.332-8.903-5.915-3.541-1.723-7.323-2.983-11.1-3.796-4.628-.996-8.586-2.277-11.691-4.494-3.29-2.35-5.529-5.63-6.447-10.504-.606-3.214.225-6.427 1.93-9.263zm79.038 73.204a20.7 20.7 0 0 1-2.772-4.232c-1.032 2.056-2.37 3.913-3.957 5.462-3.087 3.013-7.11 4.872-11.695 4.83a17 17 0 0 1-3.068-.303c-3.487-.666-6.764-1.811-9.802-3.953-3.016-2.125-5.738-5.203-8.11-9.73-2.162-4.124-4.796-7.693-7.616-10.801-2.85-3.14-5.869-5.793-8.78-8.067-6.937-5.422-15.92-7.824-25.222-10.31l-.92-.246c-3.934-1.053-8.32-3.252-11.752-6.514-2.894-2.75-5.124-6.263-5.89-10.5-.855-4.731.294-8.838 2.204-12.164h.01c.894-1.558 1.978-2.95 3.11-4.157-2.045-.258-4.042-.81-5.878-1.656-4.054-1.87-7.344-5.161-8.727-9.905-3.551-12.181 2.219-19.107 6.518-24.268l.206-.246c4.321-5.193 6.912-8.742 8.748-11.9 1.805-3.106 2.898-5.886 4.225-9.548 1.77-4.884 2.557-9.231 2.757-13.931.206-4.824-.194-10.066-.789-16.609-.352-3.875.722-7.856 2.757-11.38l.004.001c2.08-3.6 5.176-6.754 8.775-8.843 3.54-2.053 8.037-2.01 12.269-.703a24.4 24.4 0 0 1 4.203 1.754c-.607-3.11-.542-6.067.19-8.758 1.158-4.26 3.942-7.803 8.337-10.197q1.02-.555 2.21-1.042c3.006-1.231 5.952-1.942 9.148-1.91 3.183.033 6.546.799 10.377 2.519 4.313 1.936 8.638 3.389 12.988 4.393a67.6 67.6 0 0 0 13.109 1.7c4.484.14 8.771-.437 13.08-1.548 4.36-1.124 8.788-2.81 13.485-4.855 4.156-1.81 8.328-2.62 12.526-2.175 4.208.445 8.382 2.137 12.515 5.326 3.435 2.65 5.129 6.874 5.278 11.452.05 1.517-.073 3.08-.36 4.637.73-.37 1.48-.706 2.248-.998 3.522-1.342 7.43-1.813 10.973-.524 4.925 1.793 8.991 4.62 11.605 9.2 2.542 4.453 3.621 10.47 2.641 18.691-.434 3.65-.436 7.392-.136 11.004a64.2 64.2 0 0 0 2.011 11.483c1.316 4.807 3.334 9.022 5.798 12.902 2.493 3.926 5.449 7.51 8.6 11.019 3.493 3.886 5.859 8.792 6.663 13.662.786 4.76.087 9.52-2.48 13.358-2.117 3.163-5.873 5.69-9.935 7.072-1.049.357-2.125.64-3.205.841 1.611 1.587 3.088 3.44 4 5.39 1.1 2.354 1.827 4.558 1.94 6.97.113 2.428-.402 4.956-1.79 7.898-1.709 3.62-3.706 6.45-6.917 8.726-3.11 2.204-7.265 3.797-13.321 4.985a53.6 53.6 0 0 0-10.334 3.134 55.7 55.7 0 0 0-9.64 5.199c-3.773 2.537-7.21 5.61-10.333 9.12-3.319 3.73-6.264 7.934-8.865 12.496-2.212 3.878-5.15 7.223-8.866 9.506-3.356 2.062-7.321 3.25-11.927 3.183-5.323-.078-9.478-2.489-12.421-5.94z" style="fill:#1d1d1b;fill-rule:evenodd"></path><path d="M285.147 482.81c8.042.54 16.239.46 24.531 0 .467-.025.85.383.85.85v10c0 .468-.383.83-.85.85-8.177.36-16.354.39-24.53 0-.468-.022-.85-.382-.85-.85v-10c0-.467.383-.881.85-.85M338.242 446.36c-7.14 2.127-15.149 3.482-23.19 4.11a.976.976 0 0 0-.794.953l.019 9.807c0 .459.385.929.85.888 7.814-.682 16.024-2.219 23.34-4.402.447-.133.85-.382.85-.85l-.009-9.806c0-.468-.623-.833-1.066-.7zM256.138 446.324c7.35 2.006 14.896 3.595 22.946 4.1.467.03.85.388.85.85v9.891c0 .462-.231.964-.69.926-8.682-.739-16.63-2.358-23.312-4.497-.455-.086-.644-.345-.644-.813v-9.607c0-.468.399-.973.85-.85M285.147 450.92c8.042.54 15.714.535 24.006.076.466-.026.85.383.85.85v9.85c0 .467-.383.83-.85.85-8.176.36-15.83.465-24.006.075-.467-.022-.85-.383-.85-.85v-10c0-.468.384-.882.85-.85M262.309 407.87h6.943c.468 0 .85.383.85.85v35.312c0 .466-.506.922-.962.832l-6.812-1.341a.97.97 0 0 1-.785-.954l-.01-33.82c0-.469.308-.88.776-.88zM332.398 407.87h-6.943a.853.853 0 0 0-.85.85v35.312c0 .466.506.922.962.832l6.812-1.341a.97.97 0 0 0 .785-.954l.01-33.82c0-.469-.308-.88-.776-.88zM278.473 420.732h37.65v2.737h3.713v5.85h-3.713v2.888h-37.65v-2.887h-3.787v-5.85h3.787zM235.622 439.561h13.024l-.005-10.288 7.304-.005v-5.602l-13.03-.003-.004 10.163-7.294.004zM297.73 372.447c-.261-.145-.637-.153-.897-.005l-26.593 15.154-24.3 13.63c-1.423.799-.973 2.51.797 2.51l50.984.004 50.197.029c1.281 0 2.466-1.594.375-2.805l-23.09-13.368z" style="fill:#fff;fill-rule:evenodd"></path><path d="m197.191 462.659-12.17 12.02 17.2 2.486-.678 4.762-19.463-2.812a3.5 3.5 0 0 1-2.04-1.017 3.57 3.57 0 0 1-.905-1.59 4 4 0 0 1-.089-1.576 3.83 3.83 0 0 1 1.07-2.161l13.706-13.538ZM289.748 540.804l7.465 15.39 7.888-15.484 4.291 2.174-8.926 17.523a3.5 3.5 0 0 1-1.62 1.603 3.57 3.57 0 0 1-1.797.346 4 4 0 0 1-1.52-.423 3.83 3.83 0 0 1-1.702-1.708l-8.407-17.334zM393.229 477.196l16.931-2.435-12.355-12.22 3.375-3.428 13.981 13.829a3.5 3.5 0 0 1 1.036 2.03 3.57 3.57 0 0 1-.217 1.817 4 4 0 0 1-.864 1.32 3.83 3.83 0 0 1-2.145 1.103l-19.069 2.742zM364.07 359.302l2.744-16.884-15.358 8.132-2.26-4.246 17.38-9.202a3.5 3.5 0 0 1 2.246-.381 3.57 3.57 0 0 1 1.67.75c.414.336.755.76 1 1.22.378.714.542 1.566.41 2.377l-3.09 19.015zM242.739 350.409l-15.084-8.068 2.716 17.165-4.749.762-3.074-19.423a3.5 3.5 0 0 1 .368-2.25 3.57 3.57 0 0 1 1.251-1.335c.451-.284.963-.47 1.478-.551a3.83 3.83 0 0 1 2.381.382l16.988 9.085z" style="fill:#1d1d1b;fill-rule:evenodd"></path><path d="m297.721 403.74-50.984-.005c-1.77 0-2.22-1.71-.797-2.509l15.638-8.771-6.826-9.302-.481-.69c-1.262-1.436-3.17-2.649-5.242-3.423-2.24-.836-4.6-1.133-6.44-.606-3.277.939-5.475 2.961-6.78 5.72-1.572 3.322-1.953 7.74-1.425 12.71.615 5.792.29 12.023-1.453 18.252-1.526 5.448-4.139 10.891-8.159 16.03-.754.965-1.592 1.96-2.426 2.95-2.607 3.096-5.175 6.146-6.094 9.835-.577 2.315-.542 4.948.262 7.27.662 1.91 1.861 3.604 3.69 4.69 1.812 1.078 3.694 1.525 5.624 1.543 2.042.018 4.21-.44 6.444-1.148l22.583-7.164.433 1.359v-3.307c0-.468.399-.973.85-.85 7.35 2.006 14.896 3.595 22.946 4.1.467.03.85.387.85.85v9.891c0 .462-.231.964-.69.925-8.682-.738-16.63-2.357-23.312-4.496-.455-.087-.644-.345-.644-.813v-2.743l-.682.216-21.069 6.766c-2.892.929-5.757 3.001-7.67 5.58-1.602 2.16-2.492 4.64-2.05 6.989.663 3.513 2.226 5.844 4.509 7.473 2.468 1.762 5.858 2.833 9.903 3.704 4.162.896 8.323 2.281 12.21 4.173 3.633 1.768 7.043 3.985 10.013 6.667 4.851 4.38 7.377 8.284 9.783 12.004 1.97 3.047 3.855 5.961 6.924 8.8 1.321 1.221 3.23 2.019 5.314 2.305 2.096.289 4.323.051 6.273-.797 1.6-.696 3.08-2.226 4.197-4.101 1.192-2 1.93-4.33 1.947-6.441l.102-12.593a250 250 0 0 1-9.845-.273c-.467-.022-.85-.382-.85-.85v-10c0-.467.384-.881.85-.85 8.042.54 16.239.46 24.531 0 .467-.025.85.383.85.85v10c0 .468-.383.83-.85.85q-4.942.22-9.885.269l-.094 12.606a13 13 0 0 0 .202 2.346v.009c.505 2.828 1.953 5.074 3.78 6.611 1.8 1.515 3.936 2.343 5.865 2.357q.541.005 1.123-.1c2.608-.464 4.663-1.052 6.34-2.027 1.616-.939 2.973-2.298 4.266-4.343 1.999-3.16 3.98-6.214 6.179-9.136 2.22-2.952 4.633-5.722 7.454-8.248 3.327-2.978 7.306-5.17 11.473-6.866 4.07-1.657 8.321-2.847 12.306-3.843 2.453-.614 4.473-1.382 6.137-2.441 1.607-1.023 2.94-2.357 4.086-4.136 1.262-1.962 1.832-3.732 1.878-5.352.045-1.592-.414-3.112-1.213-4.576-.962-1.76-2.072-2.92-3.402-3.795-1.43-.943-3.219-1.637-5.364-2.387l-21.494-7.52.003 2.927c0 .468-.404.717-.85.85-7.316 2.184-15.527 3.72-23.341 4.403-.464.04-.85-.43-.85-.888l-.02-9.807c0-.462.34-.872.795-.954 8.041-.628 16.05-1.983 23.19-4.11.443-.132 1.066.232 1.066.7l.002 1.788 23.084 8.064c2.105.735 4.756 1.012 7.366.557 2.147-.374 4.24-1.253 5.92-2.796 2.192-2.013 3.335-4.75 3.13-7.867-.207-3.101-1.705-6.606-4.762-10.233-2.165-2.57-4.367-5.38-6.298-8.305-1.992-3.019-3.733-6.197-4.925-9.435a47.8 47.8 0 0 1-2.504-9.917c-.476-3.391-.59-6.882-.337-10.534.06-.875.108-1.445.155-2.002.27-3.213.525-6.264-.455-9.892-.576-2.13-2.02-4.265-3.828-5.871l.004-.005c-1.662-1.475-3.565-2.451-5.27-2.47-2.217-.024-4.248.443-5.998 1.282-1.807.866-3.318 2.132-4.421 3.66l-6.71 9.293 14.833 8.587c2.09 1.211.905 2.805-.375 2.805zm-27.618 4.98v35.312c0 .466-.507.922-.963.832l-6.812-1.341a.97.97 0 0 1-.785-.954l-.01-33.82c0-.469.308-.88.776-.88h6.943c.467 0 .85.383.85.85zm8.37 12.012h37.65v2.737h3.713v5.85h-3.713v2.888h-37.65v-2.887h-3.787v-5.85h3.787zm-22.335 57.481c7.35 2.007 14.896 3.596 22.946 4.101.467.03.85.387.85.85v9.891c0 .462-.231.964-.69.925-8.682-.738-16.63-2.358-23.312-4.496-.455-.087-.644-.345-.644-.813v-9.607c0-.468.399-.974.85-.85m44.065-10.984c8.664-.146 16.53-.703 23.895-1.848.462-.072.944.297.944.765v10.098c0 .468-.404.613-.864.681-8.044 1.191-16.019 1.985-23.961 1.926-.465-.003-.86-.442-.86-.907v-9.813c0-.466.378-.895.846-.902m-15.056-16.308c8.042.54 15.714.534 24.006.075.466-.026.85.383.85.85v9.85c0 .467-.383.83-.85.85-8.176.36-15.83.465-24.006.075-.467-.022-.85-.383-.85-.85v-10c0-.468.384-.882.85-.85m29.786 32.336c-.001-.463.338-.872.794-.954 8.041-.628 15.374-1.926 22.515-4.054.443-.132 1.066.233 1.066.7l.009 9.807c0 .467-.403.716-.85.85a113.6 113.6 0 0 1-22.666 4.345c-.465.041-.849-.428-.85-.887zm-44.518-17.877c7.365 1.146 15.23 1.703 23.895 1.849.468.008.846.436.846.902v9.814c0 .464-.395.903-.86.906-7.942.06-15.917-.735-23.96-1.926-.46-.068-.865-.213-.865-.681v-10.098c0-.468.482-.837.944-.766m-14.324-3.098c2.697.694 5.366 1.478 8.134 2.031.458.092.85.432.85.897v9.783c0 .463-.602.852-1.056.76-2.691-.541-5.352-1.282-7.993-2.149-.441-.144-.729-.401-.729-.869l-.019-9.513c0-.468.36-1.056.813-.94m68.513-53.562c0-.468.383-.85.85-.85h6.944c.468 0 .775.41.775.878l-.01 33.821a.97.97 0 0 1-.784.954l-6.812 1.34c-.457.09-.963-.365-.963-.83zm5.684 55.593c2.768-.553 5.437-1.337 8.134-2.031.452-.116.813.472.813.94l-.019 9.513c0 .468-.288.725-.729.87-2.641.866-5.302 1.607-7.993 2.149-.454.091-1.056-.298-1.056-.762v-9.782c0-.465.392-.805.85-.897m-81.646-35.04.005 10.287-13.025.001-.005-5.73 7.295-.004.004-10.164 13.03.003v5.603z" style="fill:#650f36;fill-rule:evenodd"></path><path d="m270.24 387.596 26.593-15.155c.26-.147.636-.139.897.005l27.473 15.15 4.082 2.363 6.989-9.72c1.453-2.02 2.374-5.163 2.156-8.225-.17-2.37-1.054-4.645-2.968-6.166-2.48-1.971-4.863-2.984-7.565-3.083-2.886-.105-6.26.773-10.557 2.587-2.992 1.263-6.431 2.358-9.986 3.113-3.27.695-6.682 1.113-9.996 1.125-4.195.016-8.394-.652-12.412-1.691-3.96-1.024-7.751-2.413-11.19-3.86-2.889-1.215-4.947-1.596-6.714-1.468-1.755.128-3.405.791-5.363 1.646-2.173.95-3.476 2.11-4.246 3.48-.81 1.444-1.12 3.249-1.252 5.343-.07 1.116.134 2.335.53 3.533.349 1.06.838 2.084 1.417 3q.264.315.5.641l7.176 9.87zM228.3 413.818c1.567-5.6 1.858-11.217 1.302-16.445-.617-5.814-.113-11.104 1.858-15.27 1.898-4.01 5.077-6.943 9.812-8.3 1.854-.53 3.958-.555 6.068-.184l-3.165-4.344c-1.85-2.539-5.276-4.814-8.922-5.94-3.054-.943-6.178-1.045-8.447.27-2.886 1.675-5.366 4.202-7.028 7.081v.01c-1.564 2.706-2.394 5.699-2.136 8.538.613 6.74 1.024 12.153.808 17.23-.222 5.198-1.09 9.998-3.04 15.38-1.418 3.913-2.594 6.897-4.583 10.32-1.959 3.37-4.69 7.117-9.218 12.558l-.206.247c-3.601 4.323-8.435 10.125-5.596 19.864.952 3.264 3.266 5.552 6.13 6.873 3.333 1.538 7.384 1.793 10.983.796l.085-.025 6.105-1.725a16 16 0 0 1-1.353-.719c-2.889-1.716-4.763-4.337-5.78-7.27-1.117-3.225-1.176-6.836-.393-9.98 1.186-4.761 4.116-8.24 7.09-11.773a99 99 0 0 0 2.315-2.819c3.6-4.603 5.942-9.484 7.31-14.374z" style="fill:#650f36;fill-rule:evenodd"></path><path d="M275.62 359.616c3.241 1.364 6.811 2.672 10.53 3.633 3.66.947 7.457 1.555 11.208 1.541 2.922-.01 6-.393 8.998-1.03 3.287-.7 6.426-1.694 9.12-2.831 4.95-2.09 8.96-3.097 12.59-2.964 3.817.14 7.086 1.492 10.389 4.118 2.797 2.224 4.226 5.313 4.666 8.547l2.962-4.32.273-.38c2.034-3.13 3.069-6.908 2.955-10.378-.104-3.204-1.201-6.093-3.414-7.8-3.39-2.616-6.743-3.996-10.068-4.347-3.337-.353-6.71.315-10.116 1.798-4.885 2.128-9.536 3.893-14.22 5.1-4.733 1.22-9.456 1.854-14.416 1.698a72.3 72.3 0 0 1-14.032-1.812c-4.639-1.07-9.258-2.624-13.872-4.695-3.204-1.439-5.94-2.079-8.457-2.104-2.504-.026-4.863.552-7.304 1.551a17 17 0 0 0-1.72.818c-3.171 1.727-5.169 4.241-5.985 7.24-.85 3.128-.468 6.833 1.154 10.796q.548 1.337 1.31 2.754l3.345 4.626c.242-2.127.728-4.064 1.72-5.83 1.27-2.263 3.283-4.118 6.523-5.533 2.395-1.046 4.445-1.859 6.944-2.04 2.484-.18 5.235.295 8.917 1.844M364.333 385.245c1.2 4.441.91 7.894.605 11.53l-.155 1.926c-.231 3.334-.129 6.5.3 9.556a43 43 0 0 0 2.259 8.919c1.054 2.864 2.619 5.712 4.417 8.437 1.859 2.817 3.935 5.47 5.96 7.873 3.764 4.467 5.62 8.933 5.89 13v.009c.309 4.63-1.398 8.708-4.673 11.716a15.4 15.4 0 0 1-3.425 2.374l5.89 2.16.005.002c2.467.903 5.724.648 8.79-.396 3.134-1.067 5.972-2.926 7.487-5.19 1.844-2.754 2.324-6.296 1.727-9.913-.656-3.974-2.607-8-5.495-11.215-3.315-3.689-6.432-7.474-9.09-11.658-2.686-4.23-4.898-8.867-6.363-14.22a69 69 0 0 1-2.18-12.35c-.325-3.905-.32-7.971.155-11.963.849-7.122.006-12.173-2.039-15.755-1.972-3.455-5.16-5.632-9.064-7.053-2.324-.846-5.066-.47-7.623.505-3.226 1.229-6.047 3.335-7.453 5.198l-.203.302-3.186 4.631a19 19 0 0 1 3.757-.33c2.933.033 5.95 1.487 8.42 3.68h.01c2.465 2.19 4.452 5.176 5.276 8.225zM359.854 488.813c-3.801.95-7.845 2.08-11.666 3.636-3.723 1.517-7.233 3.435-10.08 5.983-2.56 2.292-4.77 4.832-6.814 7.55-2.067 2.747-3.995 5.722-5.953 8.817-1.736 2.744-3.62 4.605-5.922 5.943-2.241 1.302-4.785 2.051-7.922 2.61-.614.11-1.274.161-1.97.156-3.015-.022-6.273-1.246-8.933-3.485a16 16 0 0 1-.884-.802l-.025 4.894v.023h.007l-.005.314c.062 3.649 1.424 7.789 4.025 10.839 2.114 2.478 5.07 4.209 8.826 4.264 3.62.054 6.726-.875 9.348-2.486 2.994-1.84 5.387-4.578 7.21-7.775 2.778-4.872 5.917-9.355 9.448-13.324 3.367-3.785 7.109-7.123 11.254-9.91a60.5 60.5 0 0 1 10.47-5.65 58.3 58.3 0 0 1 11.256-3.417c5.361-1.052 8.93-2.384 11.458-4.176 2.427-1.72 3.983-3.958 5.354-6.863 1.03-2.182 1.415-3.98 1.338-5.64-.079-1.676-.637-3.323-1.488-5.142-.715-1.53-2.023-3.071-3.444-4.4-1.92-1.795-3.93-3.115-4.993-3.506l-.006-.002-6.137-2.252.185.332c1.188 2.174 1.867 4.493 1.797 7.004-.07 2.482-.87 5.08-2.631 7.818-1.53 2.376-3.343 4.177-5.554 5.585-2.156 1.372-4.631 2.332-7.549 3.062zM266.207 510.227c-2.231-3.45-4.574-7.072-8.974-11.044-2.618-2.364-5.652-4.332-8.903-5.915-3.54-1.723-7.323-2.983-11.1-3.796-4.627-.996-8.585-2.277-11.69-4.494-3.29-2.35-5.53-5.63-6.447-10.504-.606-3.214.225-6.427 1.93-9.263l-6.726 1.9-.058.017c-1.182.388-4.966 2.932-7.387 7.146l.007.004c-1.42 2.472-2.279 5.495-1.659 8.926.564 3.119 2.263 5.758 4.48 7.865 2.807 2.668 6.424 4.475 9.68 5.346l.92.247c9.77 2.61 19.206 5.134 26.936 11.175 3.123 2.44 6.354 5.276 9.381 8.613 3.056 3.369 5.928 7.268 8.313 11.818 1.98 3.777 4.198 6.308 6.623 8.018 2.403 1.694 5.068 2.613 7.939 3.162q1.159.22 2.201.227c3.226.03 6.088-1.308 8.307-3.474 2.3-2.245 3.921-5.376 4.581-8.83.188-.98.298-1.97.325-2.953q-.002-.162 0-.322l.024-4.903c-1.25 1.359-2.689 2.454-4.243 3.13-2.784 1.21-5.916 1.556-8.834 1.155-3.024-.416-5.869-1.642-7.93-3.548-3.535-3.269-5.57-6.415-7.696-9.703z" style="fill:#650f36;fill-rule:evenodd"></path><path d="M200.653 476.939a19 19 0 0 1 2.027-5.052h.01c.894-1.558 1.978-2.95 3.11-4.157-2.045-.258-4.042-.81-5.878-1.656a17.2 17.2 0 0 1-3.788-2.371L185.02 474.68zM293.33 539.645a18 18 0 0 1-2.997 2.365l6.88 14.185 7.176-14.088c-1.653-.985-3.097-2.247-4.329-3.692a20.7 20.7 0 0 1-2.772-4.232c-1.032 2.056-2.37 3.913-3.957 5.462M392.534 473.139c.628 1.341 1.133 2.634 1.473 3.945l16.153-2.323-11.654-11.527c-1.943 1.57-4.299 2.833-6.766 3.673-1.05.357-2.126.64-3.206.841 1.612 1.587 3.089 3.441 4 5.39M355.999 359.04c2.656-1.012 5.531-1.528 8.304-1.169l2.512-15.453-13.794 7.303c.667 1.76 1.025 3.686 1.09 5.68.05 1.517-.072 3.08-.359 4.638.728-.37 1.48-.707 2.247-.999M240.868 360.496c-.606-3.109-.542-6.066.19-8.758q.264-.969.639-1.887l-14.042-7.51 2.453 15.5c2.145-.108 4.386.23 6.557.901a24.4 24.4 0 0 1 4.203 1.754" style="fill:#157c3a;fill-rule:evenodd"></path><path d="M353.393 197.097h16.95l5.98 20.12 5.86-20.12h17.075v31.005l-11.467.004-.003-17.739-6.648 17.733-9.637.005-6.767-17.85-.004 17.852-11.338.001zM353.207 251.162l9.767 34.66h8.451l4.872-17.216 4.85 17.213h8.467l9.804-34.659-11.497.004-3.29 17.291-3.484-17.286-9.639-.007-3.532 17.243-3.306-17.24z" style="fill:#fff;fill-rule:evenodd" data-source="https://football-logos.cc"></path><path d="M324.464 180.674c2.352 2.16 4.02 7.622 4.02 11.767v82.725c0 3.136-1.616 8.365-3.97 10.653l27.539.008c-2.419-2.603-3.884-6.93-3.882-10.734l.015-29.01 50.79.037c6.524.004 10.692 6.402 13.288 13.317 3.002 7.995 5.281 17.57 7.186 26.382l21.178.001c-2.015-3.654-4.673-10.737-5.93-15.791-3.897-15.665-8.505-26.384-17.345-30.806 12.586-3.378 19.397-14.358 19.528-27 .205-19.715-15.54-31.656-38.831-31.63zm23.71 11.48h50.31c10.29 0 18.709 8.418 18.709 18.708v3.478c0 10.29-8.419 18.708-18.71 18.708h-50.309z" style="fill:#fff;fill-rule:evenodd"></path><path d="M157.473 127.398c23.74 17.718 46.347 22.847 67.24 19.02 24.476-4.482 47.18-21.162 66.977-44.36l6.158-7.217 5.995 7.372c18.665 22.948 41.864 39.503 66.762 43.975 21.381 3.84 44.335-1.319 67.101-19.19l5.643-4.43 4.96 5.173 69.826 72.825 5.78 6.028-6.307 5.443c-15.472 13.353-26.658 28.23-33.983 44.656-7.343 16.467-10.866 34.592-10.99 54.392-.049 7.969.987 16.02 3.056 24.247 2.102 8.353 5.242 16.79 9.37 25.411 16.52 34.505 20.642 66.476 13.63 95.785-7.257 30.33-26.339 57.429-55.851 81.196-12.1 9.744-25.088 17.113-38.41 22.638-13.275 5.506-26.85 9.182-40.186 11.555-12.41 2.208-24.24 5.402-35.016 9.641-10.077 3.964-19.221 8.825-27.036 14.627l-4.665 3.463-4.698-3.401c-21.38-15.478-42.717-20.033-67.593-25.343-3.644-.777-7.354-1.57-9.532-2.048-14.95-3.286-29.94-9.263-43.848-17.157-14.113-8.01-27.133-18.017-37.883-29.206-21.897-22.793-34.066-47.907-38.952-72.027-5.803-28.643-1.288-55.915 9.45-76.35 7.119-13.551 11.583-24.71 14.234-34.907 2.621-10.084 3.505-19.35 3.466-29.174-.078-19.758-4.278-37.926-11.649-54.04-7.834-17.125-19.274-31.965-33.174-43.957l-6.347-5.476 5.851-6.026 70.203-72.3 4.849-4.994zm131.914 175.497v-175.32c-18.592 17.794-39.371 30.296-61.821 34.407-23.426 4.29-48.29-.509-73.898-17.833l-59.781 61.568c12.787 12.351 23.404 27.055 31.02 43.705 7.384 16.14 11.932 34.09 12.888 53.473zm15.874-175.672v175.672h151.792c.959-18.893 4.894-36.437 12.124-52.65 7.256-16.271 17.786-31.128 31.909-44.585l-59.357-61.908c-24.826 17.45-50.056 22.285-73.914 18-22.89-4.111-44.255-16.678-62.554-34.529M457.056 318.77H137.777c-.428 8.023-1.557 15.95-3.756 24.409-2.967 11.413-7.844 23.675-15.537 38.316-9.18 17.475-13.003 40.982-7.961 65.871 4.325 21.351 15.207 43.696 34.86 64.152 9.704 10.102 21.488 19.154 34.286 26.417 12.511 7.1 25.975 12.473 39.384 15.42 4.273.939 6.892 1.498 9.47 2.048 24.927 5.321 46.538 9.935 68.936 24.773 7.853-5.23 16.602-9.677 26.002-13.375 11.812-4.645 24.662-8.127 38.054-10.51 12.301-2.188 24.758-5.552 36.838-10.562 12.035-4.991 23.73-11.617 34.566-20.344 26.774-21.562 43.997-45.775 50.394-72.515 6.163-25.76 2.369-54.221-12.514-85.305-4.637-9.685-8.152-19.112-10.486-28.388-1.715-6.818-2.808-13.605-3.257-20.407" style="fill:#fdc738;fill-rule:evenodd"></path><path d="M227.566 161.982c-23.426 4.29-48.29-.509-73.898-17.833l-59.781 61.568c12.787 12.351 23.404 27.055 31.02 43.705 7.384 16.14 11.932 34.09 12.888 53.473h151.592v-175.32c-18.592 17.794-39.371 30.296-61.821 34.407" style="fill:#650f36;fill-rule:evenodd"></path><path d="M173.976 203.744h13.631l-9.621-9.62a20.2 20.2 0 0 0-4.01 9.62m43.661 23.833-8.547.002c6.59-4.69 10.888-12.391 10.888-21.095 0-14.29-11.584-25.875-25.874-25.875s-25.875 11.584-25.875 25.875c0 8.708 4.302 16.412 10.897 21.101l-5.485.001L157 285.835l5.816-.01 1.685-5.87 47.626.008.045 5.858 5.465-.014zm-5.537 7.182-12.797 6.406 12.823 7.71zm-18.653 9.338-13.721 6.869h25.094zm-19.694 3.677 14.103-7.054-10.322-6.234zm19.947-9.977 9.437-4.72h-17.288zm-14.226 36.73 11.954-5.971 11.923 5.99zm18.158-9.07 14.51-7.246.027 14.521zm5.509-8.941-11.688 5.85-11.689-5.85zm-17.874 8.945-18.095 9.055h-1.026l4.645-16.328zm-3.425-75.171 9.61 9.61v-13.556a20.2 20.2 0 0 0-9.61 3.946m15.047-3.928V199.9l9.552-9.551a20.2 20.2 0 0 0-9.552-3.986m13.39 7.837-9.545 9.545h13.497a20.2 20.2 0 0 0-3.952-9.545m3.957 14.983h-13.501l9.562 9.563c2.07-2.731 3.467-6.001 3.94-9.563m-7.772 13.419-9.575-9.574v13.578a20.2 20.2 0 0 0 9.575-4.004m-15.012 4.022v-13.596l-9.633 9.632a20.2 20.2 0 0 0 9.633 3.964m-13.484-7.802 9.639-9.64H173.97a20.2 20.2 0 0 0 3.997 9.64M225.302 213.72a24.9 24.9 0 0 1-2.363 6.638l42.892 65.457 6.605.018s-47.118-72.149-47.134-72.112" style="fill:#fff;fill-rule:evenodd"></path><path d="M399.258 197.098v31.004l-11.467.004-.003-17.739-6.648 17.733-9.637.005-6.767-17.85-.004 17.852-11.338.001-.001-31.011h16.95l5.98 20.12 5.86-20.119zm-51.084-4.945v40.895h50.31c10.29 0 18.709-8.418 18.709-18.708v-3.478c0-10.29-8.419-18.708-18.71-18.708z" style="fill:#650f36;fill-rule:evenodd"></path><path d="M328.483 275.166v-82.725c0-4.145-1.667-9.607-4.02-11.767l73.587-.081c23.291-.025 39.036 11.915 38.831 31.632-.131 12.64-6.942 23.62-19.528 26.998 8.84 4.423 13.448 15.142 17.344 30.806 1.258 5.055 3.917 12.137 5.93 15.792l-21.176-.001c-1.906-8.812-4.185-18.387-7.187-26.382-2.596-6.915-6.764-13.313-13.288-13.317l-50.79-.037-.015 29.01c-.002 3.804 1.463 8.13 3.882 10.734l-27.538-.008c2.353-2.289 3.968-7.518 3.968-10.653zm-23.222-147.943v175.672h151.792c.959-18.893 4.894-36.437 12.124-52.65 7.256-16.271 17.786-31.127 31.909-44.585l-59.357-61.907c-24.826 17.45-50.056 22.284-73.914 18-22.89-4.112-44.255-16.679-62.554-34.53m57.713 158.6-9.767-34.66 11.463.002 3.306 17.241 3.532-17.243 9.64.007 3.484 17.286 3.29-17.291 11.496-.004-9.804 34.659h-8.468l-4.849-17.213-4.872 17.216z" style="fill:#650f36;fill-rule:evenodd"></path><path d="M457.056 318.77H137.777c-.428 8.022-1.557 15.949-3.756 24.408-2.967 11.413-7.844 23.675-15.537 38.316-9.18 17.475-13.003 40.982-7.961 65.871 4.325 21.351 15.207 43.696 34.86 64.152 9.704 10.102 21.488 19.154 34.286 26.417 12.511 7.1 25.975 12.473 39.384 15.42 4.273.939 6.892 1.498 9.47 2.048 24.927 5.321 46.538 9.935 68.936 24.773 7.853-5.23 16.602-9.677 26.002-13.375 11.812-4.645 24.662-8.127 38.054-10.51 12.301-2.188 24.758-5.552 36.838-10.562 12.035-4.991 23.73-11.617 34.566-20.344 26.774-21.562 43.997-45.775 50.394-72.515 6.163-25.76 2.369-54.221-12.514-85.305-4.637-9.685-8.152-19.112-10.486-28.388-1.715-6.818-2.808-13.605-3.257-20.407m-244.195 60.897c-.353-3.875.721-7.856 2.757-11.38l.004.001c2.08-3.6 5.175-6.754 8.775-8.843q.494-.286 1.013-.52l-2.862-18.08a3.5 3.5 0 0 1 .368-2.25 3.57 3.57 0 0 1 1.251-1.335c.451-.284.963-.47 1.478-.551a3.83 3.83 0 0 1 2.382.381l16.157 8.642c1.365-1.63 3.103-3.042 5.212-4.19q1.019-.556 2.209-1.043c3.006-1.231 5.952-1.942 9.148-1.91 3.183.033 6.546.799 10.377 2.519 4.314 1.936 8.638 3.389 12.988 4.393a67.6 67.6 0 0 0 13.11 1.7c4.483.14 8.77-.437 13.08-1.548 4.36-1.124 8.787-2.81 13.484-4.855 4.156-1.81 8.328-2.62 12.526-2.175 4.209.445 8.382 2.137 12.516 5.326a12.2 12.2 0 0 1 1.732 1.629l16.01-8.477a3.5 3.5 0 0 1 2.247-.38 3.57 3.57 0 0 1 1.669.75c.414.335.756.76 1 1.22.378.714.542 1.566.41 2.377l-2.964 18.241c4.041 1.804 7.382 4.452 9.64 8.407 2.541 4.453 3.62 10.47 2.64 18.691-.434 3.65-.436 7.392-.135 11.004a64.2 64.2 0 0 0 2.01 11.483c1.316 4.807 3.334 9.022 5.799 12.902 2.492 3.926 5.448 7.51 8.6 11.019 3.493 3.886 5.858 8.792 6.662 13.662.776 4.703.104 9.404-2.387 13.217l13.394 13.248a3.5 3.5 0 0 1 1.036 2.03c.092.639.002 1.259-.217 1.817a4 4 0 0 1-.864 1.32 3.83 3.83 0 0 1-2.145 1.102l-18.527 2.665c-.154 1.896-.705 3.893-1.76 6.13-1.708 3.62-3.705 6.45-6.917 8.726-3.11 2.204-7.265 3.797-13.32 4.985a53.6 53.6 0 0 0-10.335 3.134 55.7 55.7 0 0 0-9.64 5.199c-3.773 2.537-7.21 5.61-10.333 9.12-3.319 3.73-6.264 7.934-8.865 12.496-2.211 3.878-5.15 7.223-8.866 9.506-3.355 2.062-7.321 3.25-11.927 3.183a17 17 0 0 1-3.616-.438l-8.4 16.49a3.5 3.5 0 0 1-1.619 1.603 3.57 3.57 0 0 1-1.797.345 4 4 0 0 1-1.52-.422 3.83 3.83 0 0 1-1.702-1.708l-7.9-16.29a16 16 0 0 1-4.291.54 17 17 0 0 1-3.068-.303c-3.487-.666-6.764-1.811-9.802-3.953-3.016-2.126-5.738-5.204-8.11-9.73-2.162-4.124-4.796-7.693-7.616-10.801-2.85-3.14-5.869-5.793-8.78-8.068-6.937-5.421-15.92-7.823-25.222-10.31l-.92-.246c-3.934-1.052-8.32-3.251-11.752-6.513-2.894-2.751-5.124-6.263-5.89-10.5q-.213-1.185-.267-2.317l-18.129-2.62a3.5 3.5 0 0 1-2.04-1.017 3.57 3.57 0 0 1-.905-1.59 4 4 0 0 1-.089-1.575 3.83 3.83 0 0 1 1.07-2.162l12.836-12.678a15.4 15.4 0 0 1-1.757-3.923c-3.551-12.181 2.22-19.108 6.519-24.268l.205-.247c4.321-5.192 6.912-8.741 8.748-11.9 1.805-3.105 2.898-5.886 4.225-9.547 1.77-4.884 2.557-9.232 2.758-13.932.205-4.823-.194-10.066-.79-16.608z" style="fill:#95bee5;fill-rule:evenodd" data-source="https://football-logos.cc"></path><!-- source: https://football-logos.cc --></svg>