<svg xmlns="http://www.w3.org/2000/svg" data-name="Group 10" viewBox="0 0 212 175.29"><!-- Source: https://football-logos.cc --><defs data-source="https://football-logos.cc"><clipPath id="a"><path fill="none" d="M0 0h212v175.29H0z" data-name="Rectangle 13"></path></clipPath></defs><g clip-path="url(#a)" data-name="Group 9" data-source="https://football-logos.cc"><path fill="#070708" d="M101.625 175.29C67.656 116.7 33.916 58.5 0 0h212z" data-name="Path 17"></path><path fill="#fefefe" d="M101.719 170.005 4.767 2.783h202.248c-35.134 55.8-70.121 111.357-105.3 167.222" data-name="Path 18"></path><path fill="#060708" d="M102.153 161.761 11.902 6.1h188.27z" data-name="Path 19"></path><path fill="#005daa" d="M170.115 43.309c-2.768 4.441-5.572 8.86-8.28 13.336-.812 1.343-1.356 1.412-2.469.268-2.457-2.527-5.122-4.853-7.582-7.378-1.172-1.2-1.9-1.578-3.419-.271-3.532 3.043-7.38 5.717-10.959 8.708-1.784 1.491-2.971 1.708-4.7-.184-2.759-3.021-5.907-5.683-8.774-8.611-1.044-1.066-1.69-1.054-2.77-.094-1.777 1.579-3.757 2.928-5.563 4.476-1.213 1.039-2.041 1.253-3.206-.191-1.851-2.294-4-4.349-5.952-6.562-.875-.991-1.6-1.579-2.738-.327-3.87 4.253-8.195 5.837-13.6 2.6-1.311-.785-3.128-.722-4.711-1.063-2.611-.562-3.146-1.842-1.554-4.035a13 13 0 0 1 4.024-3.963 9.5 9.5 0 0 0 3.121.176q38.309.016 76.618.01c3.262 0 3.262.01 2.514 3.108" data-name="Path 20"></path><path fill="#ffe100" d="M125.732 78.891c-3.626 2.159-4.374 5.419-4.252 9.444.256 8.277.021 16.568.133 24.851.025 1.968-.694 2.334-2.467 2.4-1.995.075-2.352-.7-2.287-2.472.135-3.613.075-7.235.052-10.854a4.23 4.23 0 0 0-4.486-4.063 3.93 3.93 0 0 0-3.936 3.937c-.027 3.046.058 6.1-.048 9.14-.028.834.713 2.593-.863 2.352-1.516-.232-3.852.1-4.22-2.427a10 10 0 0 1 0-1.427c0-12-.064-24 .1-36 .018-1.313-1.7-4.008 1.649-4.06 3.369-.051 1.69 2.669 1.708 3.985.03 2.191.863 3.282 2.855 3.387 1.964.1 3.611-.435 3.4-3.024a12 12 0 0 1 .387-4.3c1.036 1.344.763 2.846.689 4.252-.1 1.859.556 3.064 2.442 3.058 1.771-.007 2.366-1.2 2.234-2.919a14.6 14.6 0 0 1 .316-4.4c1.163 1.066.636 2.4.775 3.594.144 1.24-.422 2.6 1.3 3.4 1.638.761 2.7.156 3.807-.843 1.648.649.712 1.929.727 2.977" data-name="Path 21"></path><path fill="#25942f" d="M102.37 151.142c-4.2-7.221-8.2-14.108-12.2-20.994a40 40 0 0 0-2.765-4.66c-1.935-2.478-.718-3.432 1.6-4.331a22.2 22.2 0 0 1 12.918-.927 118 118 0 0 1 14.77 4.35c1.006.357 2.079.452 1.059 2.053-5.109 8.017-10.114 16.097-15.382 24.509" data-name="Path 22"></path><path fill="#fff" d="M159.532 60.426c-1.356 2.116-2.678 4.322-4.157 6.415-.671.948-1.09-.151-1.521-.5-1.44-1.154-2.321-3.679-4.154-3.435-1.509.2-2.792 2.121-4.171 3.285-3.128 2.644-6.288 5.253-9.36 7.962-1.066.941-1.676 1.027-2.77-.087q-8.2-8.371-16.622-16.532c-1.114-1.084-1.089-1.57.142-2.544 5.6-4.431 5.566-4.471 10.755.613 1.905 1.868 3.912 3.644 5.7 5.615 1.119 1.232 1.818 1.039 3 .084 4-3.232 8.15-6.27 12.137-9.515 1.125-.915 1.711-.978 2.741.079 2.391 2.457 4.935 4.766 7.407 7.145.39.375.96.656.87 1.41" data-name="Path 23"></path><path fill="#005eaa" d="M123.1 89.105c-.278-3.685-.6-6.883 3.164-8.674 1.4-.664 1.31-2.2 1.314-3.549v-5.18c2.46 1.385 3.927 3.374 5.611 5.05 1.19 1.187 1.844 1.077 3.018.048 3.94-3.448 8-6.758 11.984-10.158.909-.776 1.774-1.765 2.753-.28.9 1.37 3.683 1.886 2 4.51-3.861 6.006-7.592 12.1-11.464 18.093-1.268 1.965-2.053 5.216-4.069 5.415-1.4.139-3.094-2.961-4.712-4.56-1.4-1.383-2.369-3.966-4.207-3.921-1.694.04-3.344 1.9-5.391 3.2" data-name="Path 24"></path><path fill="#005eab" d="M47.235 56.08a11.05 11.05 0 0 1 7 1.7 25.3 25.3 0 0 1 9.9 10.712c3.483 7.325 6.231 14.715 5.292 23.009-.051.455-.124.908-.209 1.356-.012.063-.154.1-.473.29z" data-name="Path 25"></path><path fill="#005fab" d="M74.859 68.848c4.883.583 4.895.583 4.881 5.061-.007 2.433.434 4.935-1.827 6.851-1.624 1.376-3.076 1.389-3.713-.671-1.151-3.721-2.873-7.4-.314-11.462 1.373-2.183 1.747-5 2.532-7.547a36.2 36.2 0 0 1 2.9-6.824 4.51 4.51 0 0 1 4.413-2.633 26.9 26.9 0 0 1 6.407 1.317c2.47.855 2.556 2.094.479 3.712-5.092 3.963-10.2 7.9-15.754 12.2" data-name="Path 26"></path><path fill="#fdfdfd" d="M47.435 31.316a25.83 25.83 0 0 0 .073-16.619c4.51.2 9.216-.643 13.8.779 3.511 1.087 5.007 3.942 4.806 8.421a7.14 7.14 0 0 1-5.431 6.863c-4.389 1.134-8.838.268-13.253.556" data-name="Path 27"></path><path fill="#fdfdfd" d="M78.34 31.276c4.944-5.194 8.56-10.528 12.538-15.578 1.018-1.294 1.934-1.745 3.13-.188 3.909 5.083 7.217 10.615 12.179 15.756-2.225 0-3.789.016-5.355-.006-1.265-.018-2.624.239-1.648-1.964.58-1.31-.9-1.83-1.889-1.865-3.329-.114-6.665-.1-10 0-.914.025-2.318.537-1.972 1.579 1.041 3.142-1.225 2.152-2.572 2.249-1.219.087-2.448.018-4.415.018" data-name="Path 28"></path><path fill="#c5330f" d="m84.482 63.331 15.79-12.485v15.876c-.942-1.092-1.48.377-2.3.371-4.933-.031-9.867-.016-14.8-.027-.474 0-.984-.025-1.175-.574-.238-.68.211-1.056.712-1.367a4.53 4.53 0 0 0 1.775-1.793" data-name="Path 29"></path><path fill="#fefdfe" d="M130.331 106.682c-.915-1.344-1.793-2.442-2.457-3.656-1.057-1.938-2.155-2.5-3.686-.485a9 9 0 0 1-1.325 1.02c0-3.951-.339-7.53.12-11 .3-2.285 3.094-2.84 4.856-3.967 1.25-.8 1.781.966 2.47 1.694 2.082 2.2 5.343 4.341 5.66 6.824.289 2.258-2.671 4.933-4.208 7.42-.39.63-.818 1.235-1.43 2.153" data-name="Path 30"></path><path fill="#005eab" d="M37.779 39.695c4.2 0 7.972.027 11.747-.016a2.39 2.39 0 0 1 2.29 1.366 41.8 41.8 0 0 1 3.952 9.442c.435 1.567.188 2.476-1.769 1.73a21.05 21.05 0 0 0-8.89-1.73 1.64 1.64 0 0 1-1.655-.879c-1.829-3.184-3.652-6.372-5.678-9.909" data-name="Path 31"></path><path fill="#fdfdfd" d="m164.148 14.408 1.519 6.758c-1.237-1.035-2.122-1.887-3.113-2.586-2.977-2.094-6.134-1.763-8.443.814a5.57 5.57 0 0 0 .1 7.733 6.56 6.56 0 0 0 8.537.965c.538-.374.977-.89 1.48-1.319.272-.232.568-.54.969-.229.565.441.139.827-.1 1.207-1.833 2.913-6.134 4.374-10.473 3.562a9.36 9.36 0 0 1-7.141-6.605c-1.334-6.2 6.079-11.711 12.856-9.453 1.489.5 2.668.965 3.81-.846" data-name="Path 32"></path><path fill="#fcfcfc" d="M116.401 14.704c5.324 0 10.172.03 15.017-.016 1.617-.015 2.538.631 2.663 2.251.051.646.185 1.4-.471 1.838-.775.513-1.19-.265-1.651-.64-2.427-1.975-5.349-1.6-7.93-1.066-2.563.528-1.678 3.244-1.3 4.85.441 1.887 2.321.935 3.568.643.639-.15 1.14-.882 1.978-1.581a11.76 11.76 0 0 1 .049 5.69c-1.711-1.143-3.368-2.9-5.131-1.169-1.815 1.78-.009 3.637.682 5.324-.642.715-1.343.434-1.956.443-1.518.019-3.44.52-4.456-.206-1.4-1 .959-2.21.787-3.605-.508-4.136 1.232-8.54-1.847-12.753" data-name="Path 33"></path><path fill="#005fab" d="M69.136 47.215c-.218-1.887-.458-3.773-.643-5.665-.069-.7-.5-1.6.615-1.893a1.553 1.553 0 0 1 2.079.98c3.076 7.929 3.745 15.871.156 23.843-.31.689-.716 1.549-1.542 1.515-.8-.033-1.15-.888-1.474-1.594-1.54-3.341-.709-6.743-.224-10.12.336-2.346 1.192-4.624 1.032-7.066" data-name="Path 34"></path><path fill="#fafafa" d="M122.33 118.087a28 28 0 0 0-1.415 2.429c-.8 1.841-1.883 2.125-3.816 1.367a98 98 0 0 0-14.735-4.38 23.96 23.96 0 0 0-16.11 1.9c-.793.387-1.626 1.289-2.417-.018-.869-1.437.529-1.584 1.226-1.962 5.747-3.127 11.679-4.243 18.113-2.089 6.058 2.028 12.245 3.6 19.154 2.753" data-name="Path 35"></path><path fill="#fdfdfd" d="M81.071 108.197v-3.134c0-3.882.01-3.725 3.92-3.934 2.448-.13 3.541.461 3.133 3.07a24 24 0 0 0-.03 3.7c0 5.3-.456 5.9-5.285 7.7-1.6.6-1.627-.671-1.682-1.424-.147-1.984-.049-3.985-.052-5.98" data-name="Path 36"></path><path fill="#f9f9fa" d="M88.094 74.516a12 12 0 0 0 .018 1.986c.476 2.813-.769 3.363-3.426 3.4-2.953.043-4.168-.752-3.652-3.742a13.7 13.7 0 0 0 .018-2.27c0-4.195.01-4.051 4.111-4.26 2.324-.118 3.335.5 2.945 2.9a12.4 12.4 0 0 0-.013 1.986" data-name="Path 37"></path><path fill="#fbfbfb" d="M88.09 94.841c0 .378.007.757 0 1.135-.07 4.271.755 3.74-3.923 3.955-2.424.112-3.541-.452-3.151-3.076a17.8 17.8 0 0 0 .013-4.252c-.163-1.754.259-2.476 2.255-2.436 4.79.094 4.793-.021 4.8 4.673" data-name="Path 38"></path><path fill="#fafafa" d="M102.026 106.666v1.421c0 3.791 0 3.709-3.836 3.445-1.527-.1-2.192-.374-2-2.126a36.7 36.7 0 0 0 .022-6.243c-.085-1.4.156-2 1.769-2.028 4.042-.069 4.041-.163 4.041 3.827v1.7" data-name="Path 39"></path><path fill="#f9f9f9" d="M96.249 74.918v-1.714c0-3.451 1.32-4.4 4.742-3.538 1.051.263 1.027.932 1.027 1.7v6.568c0 3.16-2.4 1.522-3.768 1.815-1.452.313-2.4-.153-2.044-1.987a15 15 0 0 0 .031-2.849Z" data-name="Path 40"></path><path fill="#fafafa" d="M96.251 95.179v-1.388c0-3.6 1.053-4.364 4.675-3.611 1.063.22 1.1.84 1.1 1.629a36 36 0 0 0 .036 4.848c.371 2.705-.713 3.268-3.284 3.3-4.752.06-1.59-3.428-2.529-4.782" data-name="Path 41"></path><path fill="#fcfcfc" d="M89.546 106.735v-2.278c-.009-3.535-.013-3.471 3.619-3.308 1.216.054 1.694.375 1.661 1.626-.064 2.37-.033 4.745.007 7.117.015.956-.175 1.485-1.276 1.789-3.967 1.1-4.018 1.111-4.015-2.952v-1.993" data-name="Path 42"></path><path fill="#fbfbfb" d="M94.815 74.761a12.5 12.5 0 0 0 .018 1.983c.429 2.536-.6 3.3-3.1 3.118-1.679-.12-2.391-.447-2.225-2.252a25.5 25.5 0 0 0 0-5.381c-.271-2.212.568-2.638 2.635-2.62 2.01.019 3.061.353 2.7 2.6a16 16 0 0 0-.028 2.552" data-name="Path 43"></path><path fill="#0071b2" d="M170.114 43.309c.446-2.533-.79-2.894-3.069-2.886q-37.943.13-75.886.037c-1.1 0-2.294.383-3.3-.447a13 13 0 0 1 1.938-.281q40.868-.058 81.736-.075c.151 0 .3.175.733.443z" data-name="Path 44"></path><path fill="#fbfbfb" d="M88.088 85.143c0 3.683-.039 3.347-3.819 3.773-3.911.443-3.108-1.943-3.239-4.136-.147-2.457-.042-4.09 3.315-3.731 3.712.4 3.745.094 3.743 4.095" data-name="Path 45"></path><path fill="#fbfbfb" d="M94.808 94.967v1.7c0 3.1-1.309 4.018-4.328 3.2-1.065-.287-.954-.977-.953-1.723a44 44 0 0 0-.03-5.382c-.271-2.2.546-2.586 2.611-2.642 2.334-.066 3.025.713 2.711 2.858a14 14 0 0 0-.013 1.983" data-name="Path 46"></path><path fill="#0061ab" d="M64.571 47.848a10 10 0 0 1-.016 1.425c-.109.719.031 1.682-.89 1.911-.764.188-1.144-.624-1.519-1.116-2.107-2.764-3.057-6.1-4.471-9.207-.211-.461-.287-.893.275-1.192 1.762-.936 4.953.311 5.615 2.288a18.5 18.5 0 0 1 1.006 5.891" data-name="Path 47"></path><path fill="#005fa7" d="M122.97 109.692c.091-1.316-.643-3.541 1.688-4.933.748-.446 1.105-.746 1.869.022a6.29 6.29 0 0 1-1.795 9.759c-1.137.529-1.824.479-1.771-1.02.037-1.047.007-2.1.007-3.828" data-name="Path 48"></path><path fill="#f9f9f9" d="M96.25 84.948c0-3.9.879-4.561 4.6-3.855.827.156 1.151.513 1.16 1.271a21 21 0 0 0 .036 3.109c.44 2.726-.609 3.38-3.327 3.457-3.988.114-2-2.623-2.473-3.982" data-name="Path 49"></path><path fill="#fbfbfb" d="M94.87 84.971c-.332 1.714 1.038 4.06-2.447 3.942-2.339-.079-3.315-.609-2.892-2.985a4.1 4.1 0 0 0 0-1.418c-.458-2.592.293-3.6 3.209-3.472 3.68.16 1.344 2.77 2.129 3.933" data-name="Path 50"></path><path fill="#d4d3d3" d="M121.376 65.217c-6.058 0-11.555.007-17.054-.01-.613 0-1.545.2-1.563-.736-.021-1.122.974-.9 1.7-.9 4.748-.01 9.5 0 14.247-.031 1.038-.007 1.771.338 2.671 1.675" data-name="Path 51"></path><path fill="#fefefe" d="M117.619 61.573h-13.224c-.639 0-1.46.16-1.617-.722-.135-.76.52-.891 1.114-.891 3.979-.006 7.96-.018 11.94.019.779.006 1.44.372 1.787 1.6" data-name="Path 52"></path><path fill="#c2c1c1" d="M114.414 58.008c-3.62 0-6.993.007-10.366-.006-.691 0-1.38-.12-1.376-1.042a.86.86 0 0 1 .876-.918c3.125.012 6.254.018 9.375.16.562.027 1.168.613 1.491 1.806" data-name="Path 53"></path><path fill="#f1f1f2" d="M123.766 68.122h-20.852q-.001-.264.006-.531h20.852q.002.266-.006.531" data-name="Path 54"></path><path fill="#d84a25" d="M84.481 63.332c.354 1.7-1.753 1.69-2.18 3.462h10.68c1.229 0 2.46-.06 3.685.015 1.7.1 2.828-.377 2.633-3.164.5 1.578.736 2.328.972 3.079-.057.781-.642.842-1.216.843-6.493.009-12.988 0-20.271 0l5.7-4.24" data-name="Path 55"></path><path fill="#006eab" d="M79.514 98.552c-2.506-4.051-2.674-7.419 0-11.329Z" data-name="Path 56"></path><path fill="#0068ac" d="M81.937 39.69a27 27 0 0 1-2.253 2.657c-.793.7-1.041 2.533-2.378 1.983s-1.534-2.291-2.037-3.605c-.179-.468-.075-1.008.58-1.018 1.892-.033 3.783-.012 6.086-.012" data-name="Path 57"></path><path fill="#efeeef" d="M176.064 23.368a2.242 2.242 0 0 1-2.245 2.589 2.148 2.148 0 0 1-2.4-2.222 2.22 2.22 0 0 1 2.231-2.43 2.257 2.257 0 0 1 2.418 2.065" data-name="Path 58"></path><path fill="#efeeef" d="M109.714 21.226c1.32.387 2.33 1.131 2.261 2.553a2.358 2.358 0 0 1-4.709-.254 2.537 2.537 0 0 1 2.448-2.3" data-name="Path 59"></path><path fill="#f4f3f4" d="M41.123 23.496a2.355 2.355 0 0 1-2.26 2.474 2.21 2.21 0 0 1-2.447-2.207 2.26 2.26 0 0 1 2.224-2.458c1.38-.093 2.185.879 2.485 2.192" data-name="Path 60"></path><path fill="#f3f3f3" d="M140.407 26.009c-1.359-.169-2.349-.851-2.388-2.291a2.25 2.25 0 0 1 2.261-2.421 2.3 2.3 0 0 1 2.424 2.279c.064 1.415-.948 2.152-2.3 2.433" data-name="Path 61"></path><path fill="#d3d3d3" d="M111.066 54.139h-6.7c-.782 0-1.609.006-1.673-1.042-.067-1.08.733-1.247 1.536-1.131 2.222.327 4.948-1.074 6.842 2.171" data-name="Path 62"></path><path fill="#f4f4f4" d="M74.86 26.047c-1.391-.414-2.491-1-2.381-2.506a2.28 2.28 0 0 1 2.458-2.222 2.2 2.2 0 0 1 2.2 2.433c-.04 1.509-1.145 1.995-2.281 2.3" data-name="Path 63"></path><path fill="#c5c5c6" d="M107.238 49.614c-.953.84-1.7.348-2.4.393s-1.655.39-2.025-.453c-.408-.933.664-1.156 1.15-1.64.858-.855 1.461-.322 2.047.383.35.419.743.8 1.229 1.317" data-name="Path 64"></path><path fill="#bbaa41" d="M125.736 78.892c-.256-.99.305-2.177-.727-2.977.292-2.032-.268-4.159.758-6.134.4 3.048.968 6.076-.031 9.112" data-name="Path 65"></path><path fill="#0f1007" d="M109.233 87.401c-.021-3.966.532-4.73 3.125-4.658 1.978.055 3.326.727 2.988 3.06a8 8 0 0 0-.012 1.134c-.007 3.958-1.06 4.8-5 3.891-2.538-.588-.121-2.705-1.1-3.426" data-name="Path 66"></path><path fill="#070809" d="M52.955 22.939a6 6 0 0 1 .01-1.138c.353-1.8-1.235-4.488 2.149-4.942 3.291-.443 6.888 1.584 7.483 4.362a6.59 6.59 0 0 1-1.687 6.326c-1.838 1.871-4.15 1.658-6.412 1.431a1.81 1.81 0 0 1-1.575-2.05c.01-1.329 0-2.66 0-3.99h.028" data-name="Path 67"></path><path fill="#0a0a0b" d="M92.382 25.303c-1.138-.656-2.95.9-3.528-1.154-.224-.8 2.853-4.136 3.555-4.121.646.015 3.742 3.46 3.528 4.151-.633 2.046-2.42.45-3.555 1.125" data-name="Path 68"></path></g><!-- source: https://football-logos.cc --></svg>