<svg xmlns="http://www.w3.org/2000/svg" xml:space="preserve" viewBox="0 0 770.52 770.52"><!-- Source: https://football-logos.cc --><defs data-source="https://football-logos.cc"><clipPath id="a" clipPathUnits="userSpaceOnUse"><path d="M0 841.89h595.28V0H0Z"></path></clipPath></defs><g clip-path="url(#a)" transform="matrix(1.33333 0 0 -1.33333 -12.927 946.52)" data-source="https://football-logos.cc"><path d="M0 0c0-159.58-129.365-288.945-288.945-288.945S-577.89-159.58-577.89 0s129.365 288.945 288.945 288.945S0 159.58 0 0" style="fill:#f69325;fill-opacity:1;fill-rule:nonzero;stroke:none" transform="translate(587.585 420.945)"></path><path d="M0 0c-125.059 0-226.112 102.101-226.112 227.159 0 125.041 101.384 226.407 226.424 226.407S227.233 352.2 227.233 227.159C227.233 102.101 125.041 0 0 0m.312 505.911c-153.949 0-278.77-124.802-278.77-278.752 0-153.968 124.821-279.284 278.77-279.284 153.95 0 278.77 125.316 278.77 279.284 0 153.95-124.82 278.752-278.77 278.752" style="fill:#fff;fill-opacity:1;fill-rule:nonzero;stroke:none" transform="translate(298.328 193.795)"></path><path d="M0 0c0-119.132-98.016-216.886-217.148-216.886S-432.957-119.132-432.957 0s97.049 216.014 216.181 216.014S0 119.132 0 0" style="fill:#640e11;fill-opacity:1;fill-rule:nonzero;stroke:none" transform="translate(515.416 420.945)"></path><path d="M0 0a56.5 56.5 0 0 1-7.332-4.273c-38.221-26.419-24.519-53.389-24.519-53.389s4.154-10.061 12.695-15.649 13.019-7.998 27.482-12.36c14.464-4.363 26.632-12.628 26.632-12.628s7.423-3.214-.459-17.601c-7.883-14.387-22.346-7.806-22.346-7.806s-12.092 3.98-28.622 23.494c0 0-4.744 7.423-10.637 4.209s-18.367-12.091-18.367-12.091-3.979-3.138.306-8.877 12.551-20.433 43.851-24.107 62.676 15.153 62.676 15.153 21.196 10.195 24.529 40.267c.47 4.241.123 8.567-1.169 12.633-1.96 6.168-6.458 14.493-16.783 20.486-1.001.581-2.074 1.013-3.182 1.349-5.147 1.562-21.356 6.472-35.307 10.593-16.836 4.975-26.326 12.781-25.79 17.602S12-6.542 28.683-6.159s31.912-20.28 31.912-20.28 4.132-6.122 8.877-5.739c4.745.382 13.622 6.734 14.158 20.509s0 12.627 0 12.627.612 1.837-4.745 4.056-15.152 8.036-37.805 6.811C24.244 10.915 7.492 3.664 0 0" style="fill:#f69325;fill-opacity:1;fill-rule:nonzero;stroke:none" transform="translate(144.27 493.888)"></path><path d="M0 0s1.684 87.318 6.122 133.847l1.99 41.019s-17.525-.841-24.183.995c0 0-3.099 12.283 9.872 12.283h18.597s-.574 33.749 2.869 44.539l40.177 30.191s17.449 13.086 35.701 20.203 36.733 12.283 68.301 10.216c0 0-12.512-16.874-12.512-25.483l-43.277 1.033s-23.991.229-35.471-11.939l-2.755-67.612s21.122-3.559 51.198 0l30.879 10.216s25.139 9.872 39.718 7.806c14.578-2.066 32.945-7.576 38.684-21.351 0 0 2.985-5.625 1.837-13.201s-13.201-8.15-13.201-8.15-8.724-2.755-16.415 0-12.857 11.938-12.857 11.938-7.806 12.168-17.793 10.905-21.007-9.528-26.861-33.749 1.607-64.283 25.599-68.645c23.991-4.362 50.393 4.132 50.393 4.132l34.438 8.61s-12.283-19.285-42.358-33.06c-30.076-13.775-60.151-15.727-77.37-10.791S96.081 69.22 92.637 98.491s12.742 64.054 12.742 64.054l5.74 12.742s-37.193-1.722-48.443-.574l-7.346-74.155s-5.128-64.972-8.801-77.37c0 0-23.111-23.647-48.71-42.473s-29.616-20.548-29.616-20.548-34.782-1.339-55.062 0c0 0 1.148 24.834 23.035 29.043 0 0 14.463 2.984 19.591-7.194 0 0 1.224-2.985 3.444-4.362s5.357-1.378 9.948-.306 14.77 5.127 25.752 17.563c0 0 2.334 2.87 5.089 5.089" style="fill:#f69325;fill-opacity:1;fill-rule:nonzero;stroke:none" transform="translate(255.68 299.394)"></path><path d="M0 0v-27.936h-4.977v20.277s-3.913-3.526-7.2-4.206v5.051s4.188 1.065 7.2 5.069c.404.533.789 1.102 1.138 1.745z" style="fill:#f69325;fill-opacity:1;fill-rule:nonzero;stroke:none" transform="translate(38.274 434.399)"></path><path d="M0 0c-2.259 0-4.096 2.149-4.096 4.812S-2.259 9.643 0 9.643s4.096-2.168 4.096-4.831S2.259 0 0 0m-.275 20.699a3.63 3.63 0 0 0 3.636-3.636 3.633 3.633 0 0 0-3.636-3.637 3.646 3.646 0 0 0-3.637 3.637 3.645 3.645 0 0 0 3.637 3.636m4.426-9.036c2.443 1.194 4.077 3.379 4.077 5.896 0 3.802-3.747 6.869-8.375 6.869s-8.393-3.067-8.393-6.869c0-2.572 1.726-4.794 4.261-5.97-2.847-1.377-4.794-4.077-4.794-7.181 0-4.518 4.077-8.155 9.11-8.155s9.11 3.637 9.11 8.155c0 3.177-2.039 5.932-4.996 7.255" style="fill:#f69325;fill-opacity:1;fill-rule:nonzero;stroke:none" transform="translate(56.365 409.75)"></path><path d="M0 0c-2.333 0-4.23 2.265-4.23 5.071 0 2.807 1.897 5.091 4.23 5.091s4.23-2.284 4.23-5.091C4.23 2.265 2.333 0 0 0m-.284 21.815c2.086 0 3.755-1.723 3.755-3.833S1.802 14.15-.284 14.15c-2.068 0-3.756 1.722-3.756 3.832s1.688 3.833 3.756 3.833m4.571-9.524c2.523 1.259 4.211 3.562 4.211 6.214 0 4.007-3.87 7.239-8.65 7.239s-8.668-3.232-8.668-7.239c0-2.71 1.783-5.052 4.4-6.291-2.94-1.452-4.95-4.297-4.95-7.568 0-4.762 4.211-8.595 9.408-8.595S9.446-.116 9.446 4.646c0 3.348-2.105 6.252-5.159 7.645" style="fill:#f69325;fill-opacity:1;fill-rule:nonzero;stroke:none" transform="translate(540.475 408.186)"></path><path d="M0 0h-6.612L0 10.065Zm5.51 0v18.514H.937L-11.259 0v-4.886H0v-5.748h5.51v5.748h3.747V0Z" style="fill:#f69325;fill-opacity:1;fill-rule:nonzero;stroke:none" transform="translate(565.012 415.408)"></path><path d="M0 0c-3.233-2.204-7.328-1.837-9.165.826-1.855 2.682-.735 6.649 2.498 8.872 3.214 2.204 7.31 1.836 9.165-.845C4.335 6.19 3.214 2.222 0 0Z" style="fill:none;stroke:#1d1d1b;stroke-width:.054;stroke-linecap:butt;stroke-linejoin:miter;stroke-miterlimit:10;stroke-dasharray:none;stroke-opacity:1" transform="translate(88.69 277.547)"></path><path d="M0 0c-3.233-2.204-7.328-1.837-9.165.826-1.855 2.682-.735 6.649 2.498 8.872 3.214 2.204 7.31 1.836 9.165-.845C4.335 6.19 3.214 2.222 0 0Z" style="fill:none;stroke:#1d1d1b;stroke-width:.03;stroke-linecap:butt;stroke-linejoin:miter;stroke-miterlimit:10;stroke-dasharray:none;stroke-opacity:1" transform="translate(88.69 277.547)"></path><path d="m0 0 .689-5.893s-13.01-2.984-15.995 10.944c0 0-2.372 9.642 9.184 15.458s18.757-.936 20.892-5.127C16.836 11.326 18.061 3.673 12.551 0L8.227 4.898s5.701 3.75 1.186 9.489-13.239.306-13.239.306-7.959-3.826-5.587-10.637c0 0 2.219-5.51 9.413-4.056" style="fill:#f69325;fill-opacity:1;fill-rule:nonzero;stroke:none" transform="translate(74.233 301.154)"></path><path d="m0 0 5.86.928S9.371-11.949-4.424-15.499c0 0-9.538-2.762-15.819 8.547s.171 18.779 4.272 21.083c3.969 2.23 11.565 3.765 15.46-1.591l-4.718-4.519s-3.978 5.543-9.53.798.234-13.24.234-13.24 4.147-7.797 10.856-5.149c0 0 5.415 2.442 3.669 9.57" style="fill:#f69325;fill-opacity:1;fill-rule:nonzero;stroke:none" transform="translate(421.36 198.024)"></path><path d="M0 0c-3.233-2.204-7.328-1.837-9.165.826-1.855 2.682-.735 6.649 2.498 8.872 3.214 2.204 7.31 1.836 9.165-.845C4.335 6.19 3.214 2.222 0 0m6.483 11.755C2.865 17.007-4.445 18.238-9.863 14.51c-5.418-3.729-6.869-11.002-3.269-16.236C-9.514-6.979-2.204-8.21 3.214-4.481c5.418 3.71 6.869 10.983 3.269 16.236" style="fill:#f69325;fill-opacity:1;fill-rule:nonzero;stroke:none" transform="translate(88.69 277.547)"></path><path d="M0 0c-2.443-2.167-6.52-1.543-9.11 1.396-2.59 2.92-2.718 7.034-.294 9.202 2.425 2.148 6.502 1.506 9.092-1.396C2.277 6.263 2.406 2.149 0 0m3.747 12.93c-4.335 4.922-11.737 5.473-16.512 1.267-4.775-4.242-5.106-11.644-.735-16.566C-9.128-7.292-1.745-7.843 3.012-3.637 7.787.606 8.118 8.008 3.747 12.93" style="fill:#f69325;fill-opacity:1;fill-rule:nonzero;stroke:none" transform="translate(444.986 203.584)"></path><path d="M0 0c.276 2.939 1.359 5.455 3.802 5.657C7.273 5.933 9.367 3.875 9 .349Zm14.932-2.939c.459 8.982-5.143 13.353-11.148 13.059-6.319-.294-10.121-4.702-9.68-12.636.404-7.494 4.629-10.855 11.002-10.653 5.29.165 8.687 2.645 9.587 7.016l-5.877.717c-.459-2.076-1.671-3.16-3.582-3.362C2.516-9.091.551-6.667.073-3.453l8.945.312z" style="fill:#f69325;fill-opacity:1;fill-rule:nonzero;stroke:none" transform="translate(302.277 168.045)"></path><path d="M0 0c3.435.661 5.73-1.157 5.767-4.702l-8.908-1.341C-3.196-3.086-2.406-.478 0 0m6.208-10.469c-.22-2.112-1.304-3.324-3.177-3.747-2.682-.588-4.904 1.598-5.731 4.757l8.853 1.286 5.859.863C11.479 1.653 5.437 5.381-.496 4.426c-6.263-.991-9.551-5.785-8.228-13.628 1.23-7.402 5.785-10.267 12.104-9.367 5.234.753 8.338 3.582 8.76 8.027z" style="fill:#f69325;fill-opacity:1;fill-rule:nonzero;stroke:none" transform="translate(343.822 177.65)"></path><path d="m0 0-11.718-10.082-3.453 3.985L-4.04 3.472s3.37 3.334.22 5.694c-2.638 1.977-5.793.36-8.632-2.057-.11-.093-.202-.184-.313-.275-.055-.037-.11-.092-.147-.111L-20.534.166l-3.434 3.986 11.254 9.676s-.018-.018 0 0c.463.555 2.367 3.074.298 5.513-2.658 3.136-7.401-.863-7.897-1.194-.019-.018-9.018-7.75-9.018-7.75l-3.453 4.004 16.86 14.491 3.453-3.986-2.057-1.781c1.837-.092 4.5-.625 6.355-2.48a6.6 6.6 0 0 0 1.286-1.8c1.506-2.92.808-6.263.808-6.263s6.208.276 8.191-3.802c.469-.959.705-2.158.57-3.662C2.503 3.133 1.511 1.3 0 0" style="fill:#f69325;fill-opacity:1;fill-rule:nonzero;stroke:none" transform="translate(118.995 246.378)"></path><path d="m0 0 10.165-11.646-3.961-3.481-9.648 11.062s-3.357 3.347-5.695.18c-1.958-2.652-.318-5.796 2.119-8.618.093-.108.185-.2.277-.31.037-.055.093-.109.111-.146l6.611-7.575-3.961-3.463-9.756 11.185s.019-.018 0 0c-.558.459-3.09 2.345-5.515.259-3.117-2.68.916-7.395 1.25-7.889.019-.018 7.815-8.962 7.815-8.962l-3.98-3.482-14.61 16.758 3.961 3.481 1.796-2.045c.079 1.838.592 4.505 2.434 6.373.547.555 1.15.981 1.791 1.298 2.91 1.527 6.257.853 6.257.853S-12.858.038-8.795 2.05c.956.476 2.153.72 3.658.595C-3.151 2.48-1.311 1.502 0 0" style="fill:#f69325;fill-opacity:1;fill-rule:nonzero;stroke:none" transform="translate(475.697 243.071)"></path><path d="m0 0-10.013-11.777-4.029 3.403L-4.53 2.804s2.813 3.816-.665 5.659c-2.912 1.544-5.778-.542-8.209-3.37-.093-.109-.171-.213-.265-.32-.049-.045-.095-.108-.129-.132l-6.513-7.659-4.011 3.405 9.619 11.304s-.016-.021 0 0c.371.619 1.861 3.403-.56 5.492-3.113 2.686-7.179-2-7.618-2.403-.015-.021-7.707-9.055-7.707-9.055l-4.032 3.42 14.411 16.93 4.029-3.403-1.757-2.078c1.829.193 4.543.08 6.663-1.465a6.6 6.6 0 0 0 1.549-1.579c1.941-2.652 1.769-6.062 1.769-6.062s6.09 1.234 8.682-2.486c.612-.875 1.031-2.023 1.13-3.53C1.987 3.483 1.291 1.518 0 0" style="fill:#f69325;fill-opacity:1;fill-rule:nonzero;stroke:none" transform="translate(148.983 220.091)"></path><path d="m0 0-12.012-18.899-4.573 2.902 1.553 2.343c-4.665.11-6.641.327-9.212 2.395-1.954 1.571-2.291 3.639-2.139 5.27.112 1.215.576 2.365 1.229 3.396 1.938 3.06 8.422 13.246 8.422 13.246l4.555-2.921-7.99-12.581c0-.018-.018-.018-.018-.036-1.671-2.664.992-4.886.992-4.886 1.8-1.139 5.528-1.616 8.43 2.939l6.19 9.734z" style="fill:#f69325;fill-opacity:1;fill-rule:nonzero;stroke:none" transform="translate(174.959 211.206)"></path><path d="m0 0 10.81 19.946 4.883-2.568-1.405-2.478c4.764.248 6.795.181 9.574-1.702 2.111-1.43 2.612-3.486 2.582-5.139-.022-1.231-.408-2.424-.995-3.512-1.743-3.229-7.58-13.98-7.58-13.98l-4.866 2.589 7.189 13.277c-.001.018.018.02.016.038 1.502 2.809-1.382 4.841-1.382 4.841-1.922 1.007-5.76 1.201-8.372-3.607L4.883-2.568Z" style="fill:#f69325;fill-opacity:1;fill-rule:nonzero;stroke:none" transform="translate(169.177 188.513)"></path><path d="m0 0-19.386 11.316 2.686 4.758 2.407-1.468c-.101 4.727.026 6.737 1.971 9.432 1.478 2.047 3.525 2.48 5.158 2.4 1.216-.06 2.384-.478 3.441-1.093C-.584 23.52 9.864 17.41 9.864 17.41l-2.705-4.74-12.905 7.526c-.019-.001-.019.018-.038.017-2.731 1.573-4.826-1.221-4.826-1.221-1.054-1.873-1.361-5.668 3.311-8.402l9.986-5.832Z" style="fill:#f69325;fill-opacity:1;fill-rule:nonzero;stroke:none" transform="translate(523.793 279.168)"></path><path d="m0 0 2.209 22.145 5.398-.459-.331-2.775c4.22 2.04 6.085 2.755 9.317 2.112 2.455-.488 3.69-2.154 4.291-3.659.447-1.121.552-2.347.434-3.553-.352-3.583-1.607-16.007-1.607-16.007l-5.39.484 1.52 15.223c-.009.016.008.024-.001.041.126 1.333-.424 2.23-1.094 2.82-1.284 1.132-3.174 1.245-4.711.493-1.621-.794-3.157-2.55-3.497-5.917L5.398-.459Z" style="fill:#f69325;fill-opacity:1;fill-rule:nonzero;stroke:none" transform="translate(259.042 157.995)"></path><path d="m0 0-1.984-4.702-5.142 2.167 1.983 4.702z" style="fill:#f69325;fill-opacity:1;fill-rule:nonzero;stroke:none" transform="translate(209.8 203.107)"></path><path d="m0 0-8.614-20.387-5.143 2.186 8.614 20.368z" style="fill:#f69325;fill-opacity:1;fill-rule:nonzero;stroke:none" transform="translate(206.513 195.32)"></path><path d="M0 0s-1.517-3.926-1.555-5.973A1.47 1.47 0 0 1-.417-7.424c.385-.083.902-.106 1.594.003l-.276-4.445s-10.637-.185-8.651 7.255l4.831 12.765-2.406.863 1.414 3.949 2.479-.882 1.764 4.629 6.226.514-2.792-7.016 3.931-1.396-1.414-3.949-4.06 1.451Z" style="fill:#f69325;fill-opacity:1;fill-rule:nonzero;stroke:none" transform="translate(211.618 181.692)"></path><path d="M0 0s-.438-4.03.141-5.993a1.47 1.47 0 0 1 1.522-1.042c.392.036 1.779.499 2.405.81l.187-4.651S-5.842-14.107-5.842-5.804l.437 12.874-2.554.1.162 4.192 2.63-.096-.045 4.609 6.119 2.697-.246-7.542 3.86-.139L4.359 6.7l-3.96.151Z" style="fill:#f69325;fill-opacity:1;fill-rule:nonzero;stroke:none" transform="translate(291.139 166.376)"></path><path d="M0 0s.773-3.251 2.019-5.223c.371-.588 1.276-1.031 1.894-.738.355.168 1.66.919 2.139 1.43L7.78-8.638S-.464-15.679-3.428-7.522L-7.357 4.122l-2.846-.358-1.663 3.91 2.98 1.278-1.687 4.371 4.476 4.661 2.585-7.325 3.88 1.252 1.344-4.044-3.701-1.472z" style="fill:#f69325;fill-opacity:1;fill-rule:nonzero;stroke:none" transform="translate(387.336 182.03)"></path><path d="m0 0-17.714-23.733c-3.673-4.226-11.085-.529-11.085-.529l.606 5.106c.845-.607 1.763-.992 2.535-1.231 1.212-.404 2.571-.221 3.6.533 1.212.9 1.855 1.91 1.855 1.91l-.698 9.146c-.386 4.61-.863 9.257-.863 13.904v1.469l5.767-2.094.404-17.044 9.55 14.124z" style="fill:#f69325;fill-opacity:1;fill-rule:nonzero;stroke:none" transform="translate(240.822 184.207)"></path><path d="m0 0 21.253-20.624c3.718-4.186-.903-11.061-.903-11.061l-4.985 1.259c.71.76 1.211 1.621 1.547 2.355.557 1.15.55 2.522-.065 3.639-.736 1.318-1.655 2.085-1.655 2.085l-9.16.487c-4.621.211-9.291.336-13.899.935l-1.457.189 2.819 5.449 16.954-1.795L-2.327-5.791z" style="fill:#f69325;fill-opacity:1;fill-rule:nonzero;stroke:none" transform="translate(524.74 330.784)"></path><path d="m0 0-5.589.914 4.97 30.404 5.589-.914z" style="fill:#f69325;fill-opacity:1;fill-rule:nonzero;stroke:none" transform="translate(253.303 159.094)"></path><path d="m0 0-.771-5.51c-3.541 1.831-5.161-.1-5.89-1.936-.458-1.153-.574-2.413-.444-3.647l1.246-11.829-5.767-.514-2.424 22.15 5.473.478.33-3.086C-6.502 2.186 0 0 0 0" style="fill:#f69325;fill-opacity:1;fill-rule:nonzero;stroke:none" transform="translate(333.702 179.67)"></path><path d="m0 0 4.821 2.449S-.077 8.82-7.882 4.802c0 0-7.462-3.558-5.396-9.183 0 0 1.435-3.846 5.797-3.846h9.213c.465 0 .913-.231 1.135-.64.459-.845.725-2.394-2.083-3.837-4.132-2.123-6.715 1.584-6.715 1.584l-5.51-2.24s4.158-6.284 12.168-3.749c2.714.859 5.109 2.621 6.579 5.058 1.198 1.988 1.944 4.599.136 7.096 0 0-1.83 2.436-5.452 2.238-4.303-.235-8.552-.344-8.552-.344s-3.444.803-1.378 3.214S-1.588 2.085 0 0" style="fill:#f69325;fill-opacity:1;fill-rule:nonzero;stroke:none" transform="translate(370.778 181.694)"></path><path d="M0 0c1.837 2.149 5.767 1.763 8.798-.845 3.049-2.608 4.004-6.447 2.185-8.577-1.836-2.131-5.785-1.745-8.816.845C-.863-5.969-1.837-2.131 0 0m15.942-10.542c2.976 3.452 1.396 9.697-3.526 13.921S1.102 8.21-1.873 4.757C-3.508 2.865-4.206-.422-3.71-3.71l-2.7 2.332-3.728-4.334 23.289-19.983 3.728 4.335-8.908 7.64c3.269.055 6.355 1.286 7.971 3.178" style="fill:#f69325;fill-opacity:1;fill-rule:nonzero;stroke:none" transform="translate(484.915 258.115)"></path><path d="M0 0c-.918-2.002-3.104-2.571-4.885-1.892-1.782.698-1.084 3.159-1.084 3.159l2.185 5.969C.625 6.043.918 2.02 0 0m9.073 7.016C7.053 6.557 5.161 8.21 5.161 8.21l-10.726 7.402c-.882.624-1.965.973-3.049.845-3.673-.423-6.539-4.574-6.539-4.574-5.601-7.089-.973-11.993-.973-11.993l3.894 3.563c-1.598 3.159-.055 6.998 2.7 7.402s3.049-2.112 3.049-2.112L-8.375 4.83c-4.023-7.585-1.102-10.615.386-11.479 1.506-.863 5.601-2.259 9.018 1.139 3.416 3.416 2.406 8.449 2.406 8.449 1.267-.698 2.755-.753 2.755-.753Z" style="fill:#f69325;fill-opacity:1;fill-rule:nonzero;stroke:none" transform="translate(511.327 267.702)"></path><path d="m0 0-5.198 3.931c1.837 3.012 1.984 6.189-.386 8.926-3.416 3.912-8.797 2.865-13.315-1.065-4.5-3.931-6.374-9.221-3.012-13.17 2.13-2.497 5.73-2.534 9.587-.734l2.241-6.006c-5.749-2.094-12.031-.827-15.869 3.508-5.694 6.447-3.839 15.153 2.975 20.92 7.549 6.373 16.163 5.73 21.306-.055C2.7 11.314 3.067 5.051 0 0" style="fill:#f69325;fill-opacity:1;fill-rule:nonzero;stroke:none" transform="translate(506.753 572.35)"></path><path d="m0 0-5.161-5.418 9.514-9.073-3.508-3.674-9.496 9.073-8.999-9.422-4.059 3.894L-.569 7.549 14.583-6.906l-3.489-3.673z" style="fill:#f69325;fill-opacity:1;fill-rule:nonzero;stroke:none" transform="translate(476.062 611.307)"></path><path d="M0 0a4.13 4.13 0 0 0-5.73-1.194l-7.586 4.959 4.537 6.943 7.585-4.978A4.143 4.143 0 0 0 0 0m3.122 8.724-14.179 9.275-16.86-25.768 4.94-3.233 7.182 10.965 2.534-1.634v-.019c2.406-1.842 2.131-4.794 2.131-4.794v-12.452l6.024-4.261v13.958c0 2.296-1.304 3.669-1.304 3.669C1.837-9.128 5.51-2.663 5.51-2.663 7.989 1.139 6.924 6.226 3.122 8.724" style="fill:#f69325;fill-opacity:1;fill-rule:nonzero;stroke:none" transform="translate(447.153 630.17)"></path><path d="m0 0-5.431 2.956L9.268 29.959l5.431-2.956Z" style="fill:#f69325;fill-opacity:1;fill-rule:nonzero;stroke:none" transform="translate(413.68 625.545)"></path><path d="m0 0-5.474 1.451L.531 24.336-11.63 3.083l-5.452 1.445-.008 24.744-6.329-23.064-5.301 1.406 7.905 29.822 8.617-2.285.504-22.18L-.81 32.133l8.716-2.311z" style="fill:#f69325;fill-opacity:1;fill-rule:nonzero;stroke:none" transform="translate(374.016 643.483)"></path><path d="m0 0 6.386.207S6.098 10.65-5.246 10.001c-4.413-.253-7.159-1.57-8.863-3.031-2.3-1.973-3.062-5.158-2.183-8.043.702-2.307 2.289-5.036 5.87-5.929C-3.826-8.648.789-9.17.54-13.273c-.248-4.103-6.442-3.787-7.199-3.674s-4.723.538-5.723 6.207l-6.095-.471s.496-11.776 13.426-11.054S6.798-12.109 6.798-12.109s.06 6.45-6.207 8.433l-7.813 1.993s-3.547.639-3.607 3.463 3.912 3.502 5.262 3.3C-4.216 4.879-1.254 5.1 0 0" style="fill:#f69325;fill-opacity:1;fill-rule:nonzero;stroke:none" transform="translate(305.158 676.757)"></path><path d="m0 0 3.597 5.204s-8.529 5.889-14.694-3.52c-2.397-3.66-2.961-6.618-2.796-8.83.224-2.987 2.325-5.459 5.152-6.45 2.261-.793 5.38-1.129 8.205 1.198 5.204 4.286 8.342 7.653 11.479 5.051 3.138-2.602-.765-7.346-1.3-7.882-.536-.536-3.215-3.444-8.342-.918l-3.214-5.128s9.719-6.505 16.759 4.209-1.147 15.382-1.147 15.382-5.128 3.827-10.408 0l-6.199-5.05s-2.602-2.449-4.898-.842-.497 5.165.459 6.122C-6.39-.497-4.821 1.99 0 0" style="fill:#f69325;fill-opacity:1;fill-rule:nonzero;stroke:none" transform="translate(102.165 585.456)"></path><path d="m0 0-4.243-4.243-18.036 18.018-6.557-6.557-3.636 3.637 17.503 17.503 3.637-3.637-6.686-6.703z" style="fill:#f69325;fill-opacity:1;fill-rule:nonzero;stroke:none" transform="translate(136.7 590.681)"></path><path d="m0 0-23.153 2.539 3.313 30.725 23.121-2.451-.556-5.168-16.976 1.798-.741-6.874L.54 18.903l-.567-5.233-15.532 1.665-.914-8.54L.534 4.934Z" style="fill:#f69325;fill-opacity:1;fill-rule:nonzero;stroke:none" transform="translate(340.512 652.14)"></path><path d="m0 0-18.752-14.473-18.881 24.465 18.38 14.238 3.178-4.114L-29.57 9.661l4.224-5.473 12.361 9.55 3.214-4.169L-22.132.018l5.253-6.795L-3.031 3.931z" style="fill:#f69325;fill-opacity:1;fill-rule:nonzero;stroke:none" transform="translate(165.114 613.896)"></path><path d="m0 0-4.913-2.837-21.646 11.251 10.483-17.696-4.9-2.828-15.473 26.8 4.708 2.718 21.523-10.867-10.189 17.411 4.934 2.848z" style="fill:#f69325;fill-opacity:1;fill-rule:nonzero;stroke:none" transform="translate(190.406 628.928)"></path><path d="m0 0-5.326-2.296-5.4 12.489-11.681-5.032 5.399-12.508-5.436-2.332-12.232 28.413 5.418 2.333 4.849-11.259 11.681 5.032-4.849 11.277 5.345 2.296z" style="fill:#f69325;fill-opacity:1;fill-rule:nonzero;stroke:none" transform="translate(219.186 641.869)"></path><path d="m0 0-2.458 1.025c-5.57 2.311-8.21 8.707-5.898 14.276l8.031 19.295 5.771-2.403-8.314-20.022A4.41 4.41 0 0 1-.469 6.396l3.087-1.294a4.423 4.423 0 0 1 5.775 2.399l8.329 20.012 5.586-2.32-8.032-19.295C11.965.328 5.57-2.312 0 0" style="fill:#f69325;fill-opacity:1;fill-rule:nonzero;stroke:none" transform="translate(392.214 635.006)"></path><path d="m0 0-2.645-.312c-5.987-.717-11.424 3.563-12.14 9.55l-2.461 20.755 6.208.734 2.571-21.525a4.41 4.41 0 0 1 4.922-3.857l3.324.385a4.423 4.423 0 0 1 3.858 4.923L1.084 32.178l6.006.717L9.551 12.14C10.267 6.153 5.987.716 0 0" style="fill:#f69325;fill-opacity:1;fill-rule:nonzero;stroke:none" transform="translate(270.888 652.779)"></path><path d="M0 0c-5.326-1.414-9.532 2.167-11.148 7.806-1.617 5.657.055 11.038 5.307 12.673 5.859 1.818 9.955-1.874 11.571-7.512C7.347 7.31 5.694 1.506 0 0m11.589 14.363C9.147 22.958 1.543 28.542-7.347 25.768c-7.971-2.461-12.544-11.093-10.101-19.67S-6.557-7.438 1.506-5.308c8.632 2.296 12.526 11.093 10.083 19.671" style="fill:#f69325;fill-opacity:1;fill-rule:nonzero;stroke:none" transform="translate(237.038 651.97)"></path></g><!-- source: https://football-logos.cc --></svg>