<svg xmlns="http://www.w3.org/2000/svg" xmlns:xlink="http://www.w3.org/1999/xlink" viewBox="-0.12 -0.12 211.74 183.83"><!-- Source: https://football-logos.cc --><defs data-source="https://football-logos.cc"><clipPath id="c"><path fill="none" stroke="#707070" d="M0 0h211.496v183.571H0z" data-name="Rectangle 1"></path></clipPath><clipPath id="d"><path fill="none" stroke="#707070" d="M1.507.33a1.97 1.97 0 1 0 3.059.594A1.85 1.85 0 0 0 2.845 0a3 3 0 0 0-1.338.33" data-name="Path 34"></path></clipPath><clipPath id="e"><path fill="none" stroke="#707070" d="M1.049.205a1.907 1.907 0 1 0 .857-.2 1.9 1.9 0 0 0-.857.2" data-name="Path 35"></path></clipPath><clipPath id="g"><path fill="none" stroke="#707070" d="m.017.204-.016-.2c0 .057.01.127.016.2" data-name="Path 36"></path></clipPath><clipPath id="i"><path fill="none" stroke="#707070" d="M.011.143 0 0c0-.002 0 .058.011.143M0 0" data-name="Path 38"></path></clipPath><clipPath id="k"><path fill="none" stroke="#707070" d="M15.513 0H0l5.066 14.769 10.054-4.188 10.054 4.184L30.24-.004Z" data-name="Path 60"></path></clipPath><clipPath id="l"><path fill="none" stroke="#707070" d="M1.453 9.213 0 0Z" data-name="Path 87"></path></clipPath><clipPath id="n"><path fill="none" stroke="#707070" d="M.45 7.208 0 0Z" data-name="Path 88"></path></clipPath><clipPath id="p"><path fill="none" stroke="#707070" d="M0 9.213 1.452 0Z" data-name="Path 89"></path></clipPath><clipPath id="r"><path fill="none" stroke="#707070" d="M0 7.208.45 0Z" data-name="Path 90"></path></clipPath><clipPath id="t"><path fill="none" stroke="#707070" d="M0 6.231Z" data-name="Path 92"></path></clipPath><clipPath id="u"><path fill="none" stroke="#707070" d="M15.512 0H0l5.066 14.769 10.053-4.184 10.054 4.184L30.239 0Z" data-name="Path 95"></path></clipPath><clipPath id="w"><path fill="none" stroke="#707070" d="M1.453 9.213 0 0Z" data-name="Path 122"></path></clipPath><clipPath id="y"><path fill="none" stroke="#707070" d="M.45 7.208 0 0Z" data-name="Path 123"></path></clipPath><clipPath id="A"><path fill="none" stroke="#707070" d="M0 9.213 1.453 0Z" data-name="Path 124"></path></clipPath><clipPath id="C"><path fill="none" stroke="#707070" d="M0 7.208.45 0Z" data-name="Path 125"></path></clipPath><clipPath id="E"><path fill="none" stroke="#707070" d="M.002 6.231Z" data-name="Path 127"></path></clipPath><linearGradient id="b" x1="-.459" x2="-.446" y1="8.331" y2="8.331" gradientUnits="objectBoundingBox"><stop offset="0" stop-color="#703c72"></stop><stop offset="0" stop-color="#8c7fba"></stop><stop offset="1" stop-color="#7e3987"></stop></linearGradient><linearGradient xlink:href="#b" id="m" x1="-13.7" x2="-13.433" y1="13.356" y2="13.356"></linearGradient><linearGradient xlink:href="#b" id="o" x1="-55.336" x2="-54.476" y1="17.072" y2="17.072"></linearGradient><linearGradient xlink:href="#b" id="q" x1="-25.202" x2="-24.935" y1="13.327" y2="13.327"></linearGradient><linearGradient xlink:href="#b" id="s" x1="-72.445" x2="-71.583" y1="17.034" y2="17.034"></linearGradient><linearGradient xlink:href="#b" id="v" x1="-5.432" x2="-5.419" y1="8.331" y2="8.331"></linearGradient><linearGradient xlink:href="#b" id="x" x1="-117.229" x2="-116.963" y1="13.356" y2="13.356"></linearGradient><linearGradient xlink:href="#b" id="z" x1="-389.348" x2="-388.487" y1="17.072" y2="17.072"></linearGradient><linearGradient xlink:href="#b" id="B" x1="-128.723" x2="-128.457" y1="13.327" y2="13.327"></linearGradient><linearGradient xlink:href="#b" id="D" x1="-406.404" x2="-405.543" y1="17.034" y2="17.034"></linearGradient><radialGradient id="a" cx=".5" cy=".467" r=".507" gradientTransform="matrix(.813 0 0 -1 -3.47 56.77)" gradientUnits="objectBoundingBox"><stop offset="0" stop-color="#ffd600"></stop><stop offset=".012" stop-color="#ffd600"></stop><stop offset="1" stop-color="#fcc100"></stop></radialGradient><radialGradient xlink:href="#a" id="f" cy=".467" r=".467" gradientTransform="matrix(.938 0 0 -1 -1.446 58.546)"></radialGradient><radialGradient xlink:href="#a" id="h" cx=".502" cy=".5" r=".355" gradientTransform="matrix(12.814 0 0 -1 74955.117 1115.264)"></radialGradient><radialGradient xlink:href="#a" id="j" cx=".513" cy=".5" r=".355" gradientTransform="matrix(12.749 0 0 -1 110427.18 1662.855)"></radialGradient></defs><g data-name="Group 298" data-source="https://football-logos.cc"><g data-name="Group 94"><g data-name="Group 2"><g clip-path="url(#c)" data-name="Group 1"><path fill="#fb0" d="m104.801 153.713-37.228-23.476a1.06 1.06 0 0 1-.5-.9V45.284a2.83 2.83 0 0 1 2.829-2.829h72.653a2.83 2.83 0 0 1 2.829 2.829v84.783a1.06 1.06 0 0 1-.528.917l-38.962 22.743a1.06 1.06 0 0 1-1.09-.014" data-name="Path 1"></path><path fill="#707070" d="M105.357 154.526a1.7 1.7 0 0 1-.9-.255l-37.233-23.48a1.7 1.7 0 0 1-.808-1.454V45.284a3.484 3.484 0 0 1 3.481-3.48h72.653a3.484 3.484 0 0 1 3.48 3.48v84.783a1.72 1.72 0 0 1-.852 1.48l-38.961 22.743a1.7 1.7 0 0 1-.86.236M69.898 43.106a2.18 2.18 0 0 0-2.178 2.178v84.049a.41.41 0 0 0 .2.349l37.233 23.48a.42.42 0 0 0 .415 0l38.955-22.736a.41.41 0 0 0 .2-.355V45.284a2.18 2.18 0 0 0-2.178-2.178Z" data-name="Path 1 - Outline"></path><path fill="#222221" d="M105.357 154.526a1.7 1.7 0 0 1-.9-.255l-37.233-23.48a1.7 1.7 0 0 1-.808-1.454V45.284a3.484 3.484 0 0 1 3.481-3.48h72.653a3.484 3.484 0 0 1 3.48 3.48v84.783a1.72 1.72 0 0 1-.852 1.48l-38.961 22.743a1.7 1.7 0 0 1-.86.236M69.898 43.106a2.18 2.18 0 0 0-2.178 2.178v84.049a.41.41 0 0 0 .2.349l37.233 23.48a.42.42 0 0 0 .415 0l38.955-22.736a.41.41 0 0 0 .2-.355V45.284a2.18 2.18 0 0 0-2.178-2.178Z" data-name="Path 2"></path><path fill="#dc0b29" d="m104.607 149.578-33.854-21.115a1.43 1.43 0 0 1-.675-1.217v-80.35a1.434 1.434 0 0 1 1.434-1.434h69.428a1.434 1.434 0 0 1 1.434 1.434v80.639a1.43 1.43 0 0 1-.709 1.238l-35.574 20.826a1.43 1.43 0 0 1-1.484-.021" data-name="Path 3"></path><path fill="#707070" d="M105.365 150.446a2.1 2.1 0 0 1-1.1-.316l-33.854-21.115a2.07 2.07 0 0 1-.982-1.769v-80.35a2.09 2.09 0 0 1 2.085-2.085h69.428a2.087 2.087 0 0 1 2.085 2.085v80.639a2.09 2.09 0 0 1-1.032 1.8l-35.577 20.826a2.1 2.1 0 0 1-1.053.285M71.51 46.113a.784.784 0 0 0-.783.783v80.35a.78.78 0 0 0 .369.664l33.854 21.115a.8.8 0 0 0 .81.012l35.574-20.826a.79.79 0 0 0 .387-.676V46.896a.784.784 0 0 0-.783-.783Z" data-name="Path 3 - Outline"></path><path fill="#222221" d="M105.365 150.446a2.1 2.1 0 0 1-1.1-.316l-33.854-21.115a2.07 2.07 0 0 1-.982-1.769v-80.35a2.09 2.09 0 0 1 2.085-2.085h69.428a2.087 2.087 0 0 1 2.085 2.085v80.639a2.09 2.09 0 0 1-1.032 1.8l-35.577 20.826a2.1 2.1 0 0 1-1.053.285M71.51 46.113a.784.784 0 0 0-.783.783v80.35a.78.78 0 0 0 .369.664l33.854 21.115a.8.8 0 0 0 .81.012l35.574-20.826a.79.79 0 0 0 .387-.676V46.896a.784.784 0 0 0-.783-.783Z" data-name="Path 4"></path><path fill="#fb0" d="m172.255 19.03-1.629 2.441-2.453-1.1a44 44 0 0 1-1.91-1.145c-7-4.432-30-18.5-60.059-18.692h-1.8c-30.062.193-53.058 14.26-60.06 18.692-.666.422-1.3.8-1.909 1.145l-2.2.847-2-2.224a1.63 1.63 0 0 0 .288-1.36c-.53-1.439-1.823-2.967-5.366-1.451-4.252 1.819-.849 7.479-.849 7.479s3.907 10.949 4.524 13.879 1.748 10.641 9.561 8.585 26.986-16.428 58.011-16.62h1.8c31.025.193 50.2 14.564 58.011 16.62s8.944-5.654 9.561-8.585 4.524-13.88 4.524-13.88 3.4-5.66-.849-7.479c-3.544-1.516-4.836.012-5.366 1.451-.155.419.092.7.17 1.1Z" data-name="Path 5"></path><path fill="#707070" d="M104.398-.121h1.806a107.8 107.8 0 0 1 38.916 7.8 127 127 0 0 1 21.493 10.993c.622.393 1.246.768 1.856 1.113l1.923.865 1.213-1.818v-.034q-.026-.091-.068-.2a1.62 1.62 0 0 1-.062-1.194 3.44 3.44 0 0 1 3.4-2.5 7.4 7.4 0 0 1 2.83.68 3.9 3.9 0 0 1 2.32 2.422c.789 2.442-.861 5.458-1.134 5.931-.306.86-3.9 10.991-4.479 13.737q-.045.217-.1.468a18.1 18.1 0 0 1-1.809 5.48 6.43 6.43 0 0 1-5.851 3.5 10.3 10.3 0 0 1-2.608-.365 54.4 54.4 0 0 1-8.3-3.572 145.4 145.4 0 0 0-19.963-8.305 101 101 0 0 0-13.575-3.318 99 99 0 0 0-16.007-1.4h-1.8a99 99 0 0 0-16 1.4 101 101 0 0 0-13.575 3.318 145.4 145.4 0 0 0-19.964 8.305 54.4 54.4 0 0 1-8.3 3.572 10.3 10.3 0 0 1-2.608.365 6.43 6.43 0 0 1-5.85-3.5 18.1 18.1 0 0 1-1.809-5.481q-.05-.25-.1-.467c-.58-2.75-4.18-12.881-4.48-13.741-.273-.473-1.924-3.489-1.135-5.931a3.9 3.9 0 0 1 2.32-2.422 7.4 7.4 0 0 1 2.83-.68 3.44 3.44 0 0 1 3.4 2.5 2.1 2.1 0 0 1-.1 1.5l1.385 1.545 1.738-.669a49 49 0 0 0 1.84-1.1A127 127 0 0 1 65.484 7.681a107.8 107.8 0 0 1 38.912-7.8Zm66.464 22.412-3.009-1.357a46 46 0 0 1-1.938-1.161 125.7 125.7 0 0 0-21.273-10.88 106.5 106.5 0 0 0-38.443-7.711h-1.8a106.5 106.5 0 0 0-38.44 7.711 125.7 125.7 0 0 0-21.273 10.88c-.644.408-1.3.8-1.937 1.161l-.042.024-2.665 1.025-2.663-2.964.336-.43a1.04 1.04 0 0 0 .19-.735 2.166 2.166 0 0 0-2.181-1.652 6.1 6.1 0 0 0-2.318.575 2.62 2.62 0 0 0-1.593 1.622c-.66 2.036 1.029 4.893 1.046 4.922l.033.055.022.061c.16.449 3.929 11.024 4.548 13.964q.046.222.1.477a17 17 0 0 0 1.66 5.087 5.15 5.15 0 0 0 4.725 2.845 9 9 0 0 0 2.277-.323 54 54 0 0 0 8.066-3.477 146.6 146.6 0 0 1 20.137-8.374 103 103 0 0 1 13.75-3.36 100 100 0 0 1 16.219-1.423h1.808a100 100 0 0 1 16.222 1.423 103 103 0 0 1 13.75 3.36 146.6 146.6 0 0 1 20.137 8.374 54 54 0 0 0 8.067 3.485 9 9 0 0 0 2.277.323 5.15 5.15 0 0 0 4.724-2.847 17 17 0 0 0 1.66-5.086q.052-.256.1-.478c.619-2.94 4.388-13.515 4.548-13.964l.022-.061.033-.056c.017-.028 1.706-2.886 1.045-4.922a2.62 2.62 0 0 0-1.592-1.623 6.1 6.1 0 0 0-2.319-.575 2.166 2.166 0 0 0-2.181 1.653c-.019.05-.015.083.063.3a3 3 0 0 1 .134.449l.012.062v.565Z" data-name="Path 5 - Outline"></path><path fill="#fb0" d="M165.989 127.951s3.31.057 3.6 1.847 2.232 9.028 2.232 9.028l2.292 4.5 2.337 3.238 1.958 4.114.47 1.636-.121 2.392-.535 1.505-.928 1.249s-34.392 25-73.433 25.583-69.779-26.446-69.779-26.446l-.881-3.285.359-2.269 1.349-3.241 1.7-2.689 2-2.785 1.649-3.5 1.033-3.2 1.018-4.645.277-1.2.711-1.235 1.407-.527 2.188.147 2.334 1.4 1.506 1.776-.167 1.285-.131.969-1.219.54-.428.81-.145 2.692.708 1.549 4.063 3.309 10.445 5.821 9.027 3.328 6.733 1.844c21.68 5.6 20.613 4.759 42.617 2.282l7.93-1.427 9.873-2.6 8.952-3.449 5.017-2.591 7.063-4.967 1.682-1.533.657-2.043-.059-2.07-.988-1.071s-.744-.426-.824-.64a13 13 0 0 1-.02-1.737l.907-1.593 2.151-1.637Z" data-name="Path 6"></path><path fill="#707070" d="M165.892 127.298h.109c.395.007 3.866.132 4.229 2.395.264 1.647 2.006 8.169 2.2 8.9l2.238 4.4 2.342 3.245 2.006 4.216.514 1.791-.128 2.59-.6 1.688-1.046 1.407-.08.058a158.9 158.9 0 0 1-45.7 21.44 111.5 111.5 0 0 1-28.109 4.268c-.418.006-.842.009-1.261.009a94 94 0 0 1-27.115-4.161 119.3 119.3 0 0 1-21.874-9.144 117.3 117.3 0 0 1-19.964-13.317l-.148-.13-.968-3.609.393-2.483 1.4-3.364 1.749-2.768 1.963-2.736 1.606-3.408 1.01-3.126 1.013-4.621.3-1.294.876-1.522 1.758-.658 2.484.167 2.56 1.535 1.762 2.077-.2 1.57-.181 1.333-1.345.6-.256.484-.129 2.389.578 1.265 3.9 3.178 10.351 5.768 8.953 3.3 6.7 1.836c11.485 2.964 16.732 4.171 22.46 4.171a123 123 0 0 0 13.661-1.182c1.837-.216 3.918-.461 6.234-.722l7.884-1.418 9.813-2.58 8.885-3.423 4.95-2.563 6.993-4.918 1.523-1.389.57-1.771-.049-1.715-.756-.82c-.867-.512-.979-.81-1.022-.925a5.8 5.8 0 0 1-.061-1.991l.006-.159 1.052-1.846 2.344-1.785Zm9.994 19.6-2.332-3.231-2.345-4.61-.018-.066c-.08-.3-1.957-7.292-2.247-9.094-.146-.91-1.923-1.257-2.86-1.3l-1.2.391-1.957 1.49-.762 1.338a19 19 0 0 0-.007 1.277 5 5 0 0 0 .53.352l.087.05 1.221 1.324.069 2.425-.744 2.314-1.84 1.678-.034.024-7.1 4.992-.039.02-5.053 2.617-.033.013-8.986 3.462-9.958 2.616-7.973 1.433c-2.322.261-4.408.507-6.249.724a124 124 0 0 1-13.814 1.191c-5.879 0-11.189-1.219-22.79-4.213h-.009l-6.79-1.861-9.074-3.346-10.54-5.873-4.225-3.442-.838-1.833.162-2.994.6-1.136 1.092-.484.082-.608.129-1-1.25-1.474-2.107-1.263-1.891-.127-1.056.4-.546.948-.254 1.1-1.033 4.7-1.045 3.235-1.69 3.597-2.021 2.817-1.659 2.626-1.3 3.119-.325 2.056.794 2.958a123.3 123.3 0 0 0 41.233 22.067 92.8 92.8 0 0 0 26.718 4.1c.412 0 .83 0 1.241-.009a110.2 110.2 0 0 0 27.762-4.215 157.7 157.7 0 0 0 45.219-21.187l.81-1.089.47-1.323.108-2.183-.425-1.48Z" data-name="Path 6 - Outline"></path><path fill="#cc7e00" d="M33.736 23.527s-1.292.139-1.55-.226a33 33 0 0 1-1.171-3.2V17.92l1.361-1.55 3.124-.811 1.36.193.941.65.549 1.431-.179.892.918 1.6.933 1.143-3.325 1.453Z" data-name="Path 7"></path><path fill="#707070" d="M33.2 24.204c-.8 0-1.291-.167-1.545-.527a24.4 24.4 0 0 1-1.26-3.38l-.031-.1v-2.523l1.654-1.884 3.443-.894 1.641.233 1.233.852.689 1.8-.168.837.77 1.344 1.442 1.766-4.174 1.819-3.088.626c-.012.003-.28.031-.606.031m-.517-1.349a2.2 2.2 0 0 0 .517.046c.2 0 .374-.014.439-.02l2.859-.582 2.475-1.082-.424-.52-1.065-1.86.19-.946-.409-1.067-.649-.448-1.079-.153-2.8.728-1.067 1.215v1.831c.368 1.15.829 2.469 1.013 2.858" data-name="Path 7 - Outline"></path><path fill="#cc7e00" d="M176.647 23.527s1.292.139 1.55-.226a33 33 0 0 0 1.171-3.2V17.92l-1.361-1.55-3.123-.811-1.36.193-.941.65-.549 1.431.179.892-.918 1.6-.933 1.143 3.325 1.453Z" data-name="Path 8"></path><path fill="#707070" d="M177.186 24.204c-.326 0-.594-.028-.606-.03l-.06-.009-3.028-.616-4.175-1.825 1.442-1.766.77-1.344-.168-.837.689-1.8 1.233-.852 1.641-.233 3.443.894 1.654 1.884v2.526l-.031.1a24.5 24.5 0 0 1-1.26 3.38c-.253.361-.744.528-1.544.528m-.44-1.322c.065.006.239.02.44.02a2.2 2.2 0 0 0 .517-.046c.184-.389.645-1.71 1.017-2.86v-1.831l-1.067-1.218-2.8-.728-1.079.153-.649.448-.409 1.067.19.946-1.066 1.862-.425.52 2.476 1.082Z" data-name="Path 8 - Outline"></path><path fill="#222221" d="M40.422 22.122a.65.65 0 0 1-.347-.1c-.248-.157-2.426-1.586-2.375-3.315a.651.651 0 0 1 1.3.038c-.022.751 1.075 1.733 1.771 2.177a.651.651 0 0 1-.35 1.2Z" data-name="Path 9"></path><path fill="#222221" d="M177.019 24.179c-.533 0-4.394-.157-11.1-4.405a125.7 125.7 0 0 0-21.273-10.88 106.5 106.5 0 0 0-38.443-7.711h-1.8a106.5 106.5 0 0 0-38.438 7.711 125.6 125.6 0 0 0-21.273 10.88c-7.09 4.488-11 4.41-11.162 4.4a.651.651 0 0 1 .041-1.3c.073 0 3.763.014 10.424-4.2a127 127 0 0 1 21.49-10.992A107.8 107.8 0 0 1 104.397-.12h1.809a107.8 107.8 0 0 1 38.916 7.8 127 127 0 0 1 21.492 10.992c6.754 4.275 10.385 4.2 10.421 4.2a.651.651 0 1 1 .044 1.3Z" data-name="Path 10"></path><path fill="#222221" d="M166.656 47.114a10.3 10.3 0 0 1-2.606-.364 54.4 54.4 0 0 1-8.3-3.572 145.4 145.4 0 0 0-19.964-8.305 101 101 0 0 0-13.575-3.318 99 99 0 0 0-16.007-1.4h-1.8a99 99 0 0 0-16 1.4 101 101 0 0 0-13.581 3.318 145.4 145.4 0 0 0-19.964 8.305 54.4 54.4 0 0 1-8.3 3.572 7.54 7.54 0 0 1-6.074-.572c-2.934-1.826-3.754-5.869-4.194-8.04a17 17 0 0 0-.1-.468c-.578-2.745-4.172-12.876-4.478-13.737-.273-.473-1.924-3.489-1.135-5.931a3.9 3.9 0 0 1 2.32-2.422 5.48 5.48 0 0 1 4.295-.4 3.63 3.63 0 0 1 1.939 2.221 1.805 1.805 0 0 1-.672 2.129c-1.465 1.2-4.429 1.471-4.555 1.482a.652.652 0 1 1-.114-1.3 8.76 8.76 0 0 0 3.844-1.192c.37-.3.341-.491.275-.672a2.36 2.36 0 0 0-1.232-1.475 4.3 4.3 0 0 0-3.267.4 2.62 2.62 0 0 0-1.598 1.627c-.66 2.036 1.029 4.894 1.046 4.922l.033.055.022.061c.16.449 3.929 11.025 4.547 13.964q.046.222.1.477c.429 2.118 1.148 5.664 3.606 7.193a6.3 6.3 0 0 0 5.054.418 54 54 0 0 0 8.067-3.485 146.6 146.6 0 0 1 20.137-8.374 103 103 0 0 1 13.75-3.36 100 100 0 0 1 16.219-1.423h1.808a100 100 0 0 1 16.223 1.423 103 103 0 0 1 13.75 3.36 146.6 146.6 0 0 1 20.138 8.375 54 54 0 0 0 8.067 3.485 6.3 6.3 0 0 0 5.055-.418c2.458-1.53 3.176-5.075 3.606-7.193q.05-.256.1-.477c.619-2.939 4.387-13.515 4.547-13.964l.022-.061.033-.056c.017-.028 1.706-2.886 1.045-4.922a2.62 2.62 0 0 0-1.592-1.623 4.3 4.3 0 0 0-3.267-.4 2.36 2.36 0 0 0-1.232 1.475c-.067.181-.1.368.275.672a8.76 8.76 0 0 0 3.841 1.194.652.652 0 0 1-.114 1.3c-.126-.011-3.091-.284-4.555-1.482a1.805 1.805 0 0 1-.672-2.13 3.63 3.63 0 0 1 1.941-2.223 5.48 5.48 0 0 1 4.295.4 3.9 3.9 0 0 1 2.32 2.422c.79 2.443-.862 5.458-1.135 5.931-.306.861-3.9 10.992-4.479 13.737q-.045.217-.1.468c-.44 2.172-1.26 6.214-4.194 8.04a6.44 6.44 0 0 1-3.464.933" data-name="Path 11"></path><path fill="#222221" d="M170.186 22.122a.651.651 0 0 1-.349-1.2c.7-.443 1.792-1.426 1.77-2.176a.651.651 0 1 1 1.3-.038c.051 1.728-2.127 3.157-2.375 3.315a.65.65 0 0 1-.346.099" data-name="Path 12"></path><path fill="#cc7e00" d="m42.563 129.21 1.033 3.093 1.534 2.049 1.876 2.409 1.317 1.424.55.188-.215-1.623.336-1.831.995-1.13.608-1.429-.293-1.38-1.678-1.774-2.243-1.168h-2.216Z" data-name="Path 13"></path><path fill="#707070" d="M43.952 127.391h2.588l2.481 1.292 1.88 1.987.374 1.761-.73 1.715-.945 1.073-.285 1.552.339 2.562-1.7-.581-1.466-1.588-1.879-2.422-1.6-2.133-1.217-3.644Zm2.269 1.3h-1.844l-1.045.762.848 2.542 1.468 1.961 1.852 2.386.518.56-.022-.166.387-2.109 1.045-1.186.487-1.143-.212-1-1.477-1.562Z" data-name="Path 13 - Outline"></path><path fill="#cc7e00" d="m169.642 129.21-1.033 3.093-1.534 2.049-1.872 2.413-1.317 1.424-.55.188.215-1.623-.337-1.831-.995-1.13-.608-1.429.293-1.38 1.678-1.774 2.243-1.168h2.216Z" data-name="Path 14"></path><path fill="#707070" d="M165.665 127.391h2.587l2.157 1.574-1.216 3.644-1.6 2.142-1.909 2.456-1.429 1.544-1.7.581.339-2.562-.285-1.552-.945-1.073-.73-1.715.374-1.761 1.88-1.987Zm2.163 1.3h-1.844l-2 1.044-1.477 1.562-.212 1 .487 1.143 1.045 1.186.387 2.109-.022.166.518-.56 1.852-2.386 1.468-1.961.849-2.542Z" data-name="Path 14 - Outline"></path><path fill="#222221" d="M103.86 183.691h-.016a109 109 0 0 1-25.192-3.648 121.5 121.5 0 0 1-20.466-7.488 128.6 128.6 0 0 1-23.061-13.939 6.11 6.11 0 0 1-2.535-4.353c-.531-4.835 4.06-10.311 4.35-10.651 3.941-4.935 4.983-14.537 4.993-14.633a.651.651 0 0 1 1.289-.044 13.4 13.4 0 0 0 1.558 3.725 30 30 0 0 0 7.75 8.565 62.5 62.5 0 0 0 18.626 9.467c9.449 3.164 20.939 5.3 34.152 6.346 13.191-.655 24.743-2.546 34.338-5.623a62.4 62.4 0 0 0 19.13-9.553 33 33 0 0 0 8.279-8.98 15.7 15.7 0 0 0 1.8-3.978.651.651 0 0 1 1.282.077c.01.1 1.057 9.7 4.994 14.634.29.34 4.881 5.816 4.35 10.651a6.11 6.11 0 0 1-2.535 4.353 136 136 0 0 1-25.257 13.945 146 146 0 0 1-21.951 7.481 118.5 118.5 0 0 1-25.864 3.646ZM42.837 131.73a49 49 0 0 1-.651 3.04 25.4 25.4 0 0 1-4.235 9.667l-.014.017c-.045.053-4.528 5.349-4.052 9.672a4.8 4.8 0 0 0 2.021 3.451 127.4 127.4 0 0 0 22.834 13.8 120 120 0 0 0 20.246 7.408 107.8 107.8 0 0 0 24.875 3.6 117.2 117.2 0 0 0 25.563-3.606 144.6 144.6 0 0 0 21.754-7.415 134.5 134.5 0 0 0 24.99-13.791 4.8 4.8 0 0 0 2.022-3.453c.475-4.331-4.007-9.617-4.052-9.67l-.014-.017a25.4 25.4 0 0 1-4.235-9.667 49 49 0 0 1-.673-3.161 23 23 0 0 1-.982 1.842 34.1 34.1 0 0 1-8.542 9.352 63.4 63.4 0 0 1-19.532 9.817c-9.737 3.137-21.455 5.062-34.831 5.723a1 1 0 0 1-.083 0c-13.4-1.059-25.055-3.232-34.641-6.459a63.4 63.4 0 0 1-19.011-9.734 31 31 0 0 1-8.01-8.954 20 20 0 0 1-.747-1.462" data-name="Path 15"></path><path fill="#222221" d="M49.487 134.669a5.86 5.86 0 0 1-2.782-.985 17 17 0 0 1-1.862-1.276.651.651 0 0 1 .819-1.013c1.171.946 3.277 2.215 4.076 1.936.065-.023.218-.076.3-.446.268-1.206-1.665-3.7-3.935-4.512-1.381-.492-2.371-.166-2.941.969a.651.651 0 0 1-1.164-.585c.874-1.74 2.529-2.328 4.541-1.612a8.6 8.6 0 0 1 3.485 2.5 4.38 4.38 0 0 1 1.285 3.518 1.76 1.76 0 0 1-1.142 1.393 2 2 0 0 1-.68.113" data-name="Path 16"></path><path fill="#222221" d="M48.869 139.028a.65.65 0 0 1-.63-.491c-.1-.388-.914-3.825.717-5.041a.651.651 0 1 1 .778 1.044c-.738.55-.476 2.715-.233 3.677a.65.65 0 0 1-.632.811" data-name="Path 17"></path><path fill="#222221" d="M162.607 134.67a2 2 0 0 1-.681-.109 1.76 1.76 0 0 1-1.142-1.393c-.317-1.425.843-2.888 1.562-3.633a9.2 9.2 0 0 1 3.836-2.415c1.9-.544 3.374.1 3.945 1.714a.651.651 0 1 1-1.228.433 1.71 1.71 0 0 0-2.358-.895 7.96 7.96 0 0 0-3.258 2.068 3.3 3.3 0 0 0-1.228 2.446c.082.37.235.423.3.446.8.279 2.906-.99 4.076-1.936a.651.651 0 0 1 .819 1.013 17 17 0 0 1-1.862 1.276 5.86 5.86 0 0 1-2.781.985" data-name="Path 18"></path><path fill="#222221" d="M163.105 139.162a.652.652 0 0 1-.628-.826c.344-1.242.544-3.308-.116-3.8a.651.651 0 0 1 .778-1.044c.742.554 1.057 1.628.936 3.193a11.7 11.7 0 0 1-.343 2 .65.65 0 0 1-.627.477" data-name="Path 19"></path><path fill="#161615" d="m71.334 29.232-1.151-1.609a.14.14 0 0 0-.148-.05l-4.866 1.756q-.069.025-.082.133l.141 1.973a.38.38 0 0 1-.282.439L61.02 33.29q-.413.149-.439-.282l-.712-17.15a.4.4 0 0 1 .291-.417l4.867-1.755a.4.4 0 0 1 .49.134l10.4 13.656a.35.35 0 0 1 .072.129q.092.253-.23.368l-3.925 1.416a.38.38 0 0 1-.5-.157m-6.37-3.565 2.869-1.035q.138-.05.042-.171l-3.324-4.612q-.048-.061-.094-.044c-.046.017-.045.042-.044.094l.409 5.664q.026.146.141.1" data-name="Path 20"></path><path fill="#161615" d="M85.768 8.682a.36.36 0 0 1 .247-.143l3.8-.678a.338.338 0 0 1 .424.3l2.873 16.1a.338.338 0 0 1-.3.425l-3.628.647a.48.48 0 0 1-.475-.163l-6.359-7.293q-.061-.064-.107-.043c-.046.021-.04.053-.029.117l1.476 7.991a.338.338 0 0 1-.3.425l-3.8.677a.338.338 0 0 1-.425-.3l-2.873-16.1a.337.337 0 0 1 .3-.425l3.627-.648a.48.48 0 0 1 .475.163l6.335 7.3q.061.064.107.043c.046-.021.04-.053.029-.117l-1.452-8a.36.36 0 0 1 .049-.281" data-name="Path 21"></path><path fill="#161615" d="M106.354 7.21a.36.36 0 0 1 .268-.1l3.856-.031a.337.337 0 0 1 .369.363l.132 16.349a.337.337 0 0 1-.364.369l-3.685.03a.48.48 0 0 1-.441-.241l-5.045-8.257q-.05-.073-.1-.06c-.05.013-.048.045-.048.11l.114 8.125a.338.338 0 0 1-.363.369l-3.856.031a.338.338 0 0 1-.369-.363l-.131-16.349a.338.338 0 0 1 .363-.369l3.684-.029a.48.48 0 0 1 .441.241l5.02 8.257q.05.073.1.06c.05-.013.048-.045.048-.11l-.089-8.125a.36.36 0 0 1 .1-.269" data-name="Path 22"></path><path fill="#161615" d="m125.52 25.914-.212-1.966q-.033-.104-.1-.117l-5.1-.863a.14.14 0 0 0-.136.076l-.847 1.787a.38.38 0 0 1-.462.244l-4.114-.7q-.433-.073-.244-.462l7.807-15.287a.4.4 0 0 1 .458-.219l5.1.863a.4.4 0 0 1 .36.358l2.346 17a.34.34 0 0 1 0 .148q-.045.265-.382.208l-4.114-.7a.38.38 0 0 1-.356-.382m-3.8-6.235 3.008.508c.1.016.136-.026.121-.128l-.628-5.65q-.012-.077-.06-.084c-.048-.007-.06.015-.084.06l-2.43 5.141q-.049.141.072.161" data-name="Path 23"></path><path fill="#161615" d="M148.162 15.099a.36.36 0 0 1 .285 0l3.642 1.266a.338.338 0 0 1 .225.466l-5.369 15.443a.337.337 0 0 1-.466.225l-3.48-1.21a.48.48 0 0 1-.335-.375l-1.977-9.47q-.022-.085-.073-.089c-.051-.004-.061.026-.082.088l-2.622 7.691a.338.338 0 0 1-.466.226l-3.642-1.266a.337.337 0 0 1-.225-.466l5.369-15.443a.338.338 0 0 1 .466-.225l3.48 1.21a.48.48 0 0 1 .335.375l1.955 9.463q.022.085.072.09c.05.005.061-.026.082-.088l2.645-7.683a.36.36 0 0 1 .18-.222" data-name="Path 24"></path><path fill="#161615" d="m57.193 165.261.336-1.715a.13.13 0 0 0-.057-.126l-4.081-2.065a.13.13 0 0 0-.135.028l-1.183 1.288a.337.337 0 0 1-.454.085l-3.292-1.666q-.346-.176-.085-.454l10.6-10.861a.35.35 0 0 1 .444-.066l4.081 2.065a.35.35 0 0 1 .21.4l-2.471 14.967a.3.3 0 0 1-.039.125q-.107.212-.376.075l-3.292-1.665a.336.336 0 0 1-.2-.416m-1.572-6.259 2.406 1.218q.115.058.136-.077l.95-4.935q.01-.067-.029-.087c-.025-.013-.055 0-.087.029l-3.395 3.7q-.078.105.019.154" data-name="Path 25"></path><path fill="#161615" d="M79.201 158.136a.32.32 0 0 1 0 .252l-.966 2.679a.32.32 0 0 1-.162.194.32.32 0 0 1-.253 0l-3.409-1.229a.1.1 0 0 0-.138.065l-3.791 10.512a.3.3 0 0 1-.414.195l-3.207-1.156a.3.3 0 0 1-.194-.414l3.791-10.512a.1.1 0 0 0-.065-.138l-3.308-1.193a.3.3 0 0 1-.195-.414l.966-2.679a.3.3 0 0 1 .414-.195l10.736 3.871a.32.32 0 0 1 .194.162" data-name="Path 26"></path><path fill="#161615" d="M89.359 160.521a.32.32 0 0 1 .25-.034l3.331.721a.3.3 0 0 1 .248.385l-3.059 14.127a.3.3 0 0 1-.385.248l-3.331-.721a.3.3 0 0 1-.248-.385l1.16-5.356a.1.1 0 0 0-.082-.128l-3.289-.712a.1.1 0 0 0-.128.082l-1.16 5.356a.3.3 0 0 1-.385.247l-3.331-.721a.3.3 0 0 1-.248-.385l3.059-14.127a.32.32 0 0 1 .134-.214.32.32 0 0 1 .25-.035l3.332.722a.32.32 0 0 1 .214.134.33.33 0 0 1 .034.251l-1.119 5.166a.1.1 0 0 0 .083.128l3.289.712a.1.1 0 0 0 .128-.082l1.119-5.166a.32.32 0 0 1 .134-.214" data-name="Path 27"></path><path fill="#161615" d="M95.103 176.634a.32.32 0 0 1-.07-.243l.991-14.42a.3.3 0 0 1 .345-.3l3.4.234a.3.3 0 0 1 .3.345l-.768 11.17a.1.1 0 0 0 .1.115l6.65.457a.3.3 0 0 1 .3.345l-.194 2.82a.3.3 0 0 1-.345.3l-10.481-.72a.32.32 0 0 1-.231-.1" data-name="Path 28"></path><path fill="#161615" d="M120.779 164.807a.32.32 0 0 1-.229.106l-6.427.556a.1.1 0 0 0-.1.117l.175 2.02a.1.1 0 0 0 .117.1l3.976-.344a.3.3 0 0 1 .35.3l.242 2.794a.3.3 0 0 1-.295.35l-3.976.344a.1.1 0 0 0-.1.117l.193 2.236a.1.1 0 0 0 .117.1l6.427-.556a.3.3 0 0 1 .35.295l.244 2.815a.3.3 0 0 1-.295.351l-10.252.887a.3.3 0 0 1-.35-.295l-1.246-14.4a.3.3 0 0 1 .294-.35l10.252-.887a.3.3 0 0 1 .35.295l.243 2.816a.32.32 0 0 1-.065.244" data-name="Path 29"></path><path fill="#161615" d="M134.275 158.194a.32.32 0 0 1 .143.208l.713 2.757a.3.3 0 0 1-.232.394l-3.509.907a.1.1 0 0 0-.078.132l2.8 10.819a.3.3 0 0 1-.232.394l-3.3.853a.3.3 0 0 1-.394-.232l-2.8-10.82a.1.1 0 0 0-.131-.077l-3.4.88a.3.3 0 0 1-.395-.232l-.713-2.757a.3.3 0 0 1 .232-.394l11.05-2.856a.32.32 0 0 1 .251.024" data-name="Path 30"></path><path fill="#161615" d="M142.451 170.913a.32.32 0 0 1-.169-.188l-5.392-13.411a.3.3 0 0 1 .18-.421l3.162-1.271a.33.33 0 0 1 .253-.008.32.32 0 0 1 .169.188l5.392 13.411a.3.3 0 0 1-.18.421l-3.162 1.272a.32.32 0 0 1-.252.009" data-name="Path 31"></path><path fill="#161615" d="M152.829 165.824a5.04 5.04 0 0 1-2.777-.691 5.65 5.65 0 0 1-2.07-2.195l-2.116-3.81a5.55 5.55 0 0 1-.752-2.889 5.06 5.06 0 0 1 .887-2.713 6.74 6.74 0 0 1 2.39-2.117 7.1 7.1 0 0 1 3.04-.948 4.94 4.94 0 0 1 2.714.578 5 5 0 0 1 1.976 2.024q.094.17-.168.365l-2.875 1.843-.057.031a.22.22 0 0 1-.342-.082 1.93 1.93 0 0 0-1.138-.984 2.067 2.067 0 0 0-2.414 1.341 1.93 1.93 0 0 0 .234 1.487l2.25 4.06a1.9 1.9 0 0 0 1.129.965 2.07 2.07 0 0 0 2.414-1.34 1.9 1.9 0 0 0-.223-1.468.23.23 0 0 1-.019-.212.3.3 0 0 1 .186-.153l3.064-1.5q.293-.138.388.032a5.05 5.05 0 0 1 .679 2.757 5 5 0 0 1-.934 2.628 7 7 0 0 1-2.406 2.088 6.74 6.74 0 0 1-3.06.91" data-name="Path 32"></path><path fill="#161615" d="M112.764 123.648a.65.65 0 0 1-.651-.632 12.59 12.59 0 0 1 3.808-8.774.651.651 0 1 1 .9.937 11.47 11.47 0 0 0-3.41 7.8.65.65 0 0 1-.634.668Z" data-name="Path 33"></path></g></g><g data-name="Group 4"><g clip-path="url(#d)" data-name="Group 3" transform="translate(99.57 60.124)"><path fill="url(#a)" d="M0 0h5.349v4.349H0z" data-name="Rectangle 2" transform="translate(-.312)"></path><path fill="#707070" d="M-.963-.651h6.652V5H-.963Zm5.349 1.3H.337v3.049h4.049Z" data-name="Rectangle 2 - Outline"></path></g></g><g data-name="Group 6"><g clip-path="url(#e)" data-name="Group 5" transform="translate(102.001 63.974)"><path fill="url(#f)" d="M0 0h4.355v4.086H0z" data-name="Rectangle 3" transform="translate(-.27)"></path><path fill="#707070" d="M-.921-.651h5.657v5.388H-.921Zm4.355 1.3H.379v2.786h3.055Z" data-name="Rectangle 3 - Outline"></path></g></g><g data-name="Group 8"><g clip-path="url(#g)" data-name="Group 7" transform="translate(105.699 64.528)"><path fill="url(#h)" d="M0 0h.017v.213H0z" data-name="Rectangle 4"></path><path fill="#707070" d="M-.651-.651H.668V.865H-.651Z" data-name="Rectangle 4 - Outline"></path></g></g><g data-name="Group 10"><g clip-path="url(#c)" data-name="Group 9" transform="translate(.068)"><path fill="#fb0" d="M137.632 51.804c-1.5-1.72-4.138 1.043-4.138 1.043a3.493 3.493 0 0 0-5.041-2.219l.141 1.042c-.626-2.3-2.26-3.661-4.016-3.751-2.22-.113-2.821 2.37-2.821 2.37a2.9 2.9 0 0 0-2.709-1.542 4.85 4.85 0 0 0-3.423 1.806 3.17 3.17 0 0 0-2.295-1.344c-1.5-.1-2.6 2.1-2.6 2.1s-1.053-1.806-2.37-2.069-2.633 1.43-2.633 1.43a4.19 4.19 0 0 0-4.966 1.392c-5.289-.092-5.1 2.077-4.852 2.872-2.671 1.18-3.386 5.14-.508 5.427a3.7 3.7 0 0 0-1.4.4c-1.5.755-2.237 2.306-1.652 3.465.568 1.127 2.18 1.464 3.645.788a2.7 2.7 0 0 0-.818 1.566 1.45 1.45 0 1 0 .2.92c.563.925 2.129 1.1 3.575.368 1.5-.755 2.3-2.186 1.788-3.2s-2.1-1.212-3.581-.488a2.4 2.4 0 0 0 .607-2.689 2.16 2.16 0 0 0-1.687-1.1 4.15 4.15 0 0 0 3.4-1.664s.19 1.241 2.446 1.279 3.536-2.9 3.536-2.9 2.817 1.82 4.343-2.043q.18.201.4.425c.866.893 3.656.461 5.039.178a4.82 4.82 0 0 0-3.271 3.4s-.151-1.091-2.408-1.091a2.16 2.16 0 0 0-2.332 2.031s-3.273-.489-2.968 1.466 2.629 1.844 2.629 1.844a2.31 2.31 0 0 0-1.144 1.924l-.038-.488.038.488a1.4 1.4 0 0 0 .02.256c.193 2.481 3.094 2.94 3.094 2.94s-12.285-.819-15.754 1.3-.819 5.347-.819 5.347l2.664 12.528c-.379.156-.586.257-.586.257h.641l4.508 21.2.037.207c-1.2.24-2.093.726-2.06 1.652.1 2.746 2.072 2.794 2.072 2.794l.791.006v.014h-.119a1.78 1.78 0 0 0-1.782 2.243c.193 1.4 2.023 1.975 2.023 1.975l.635-.015-.347.012c-1.3.04-1.638 2.264-1.638 2.264a2.11 2.11 0 0 0 2.361 1.879l.368-.027v.027l-.083.009c-.868.094-.915 2.449-.915 2.449.086 1.01.786 1.386 1.706 1.472v.022l.7 6.156.138.481a3.83 3.83 0 0 0-2.141 3.378 4.154 4.154 0 0 0 8.286 0 3.81 3.81 0 0 0-2-3.3l1.093-6.717c1.684.121 6.7-.326 7.561-.368a1 1 0 0 0 .29-.056l3.777-1.295a1.06 1.06 0 0 1 1.216.4l2.508 3.623a1.066 1.066 0 0 0 1.614.156c2.32-2.188 3.893-6.149 4.607-8.252a1.06 1.06 0 0 0-1.006-1.4h-3.407a1.06 1.06 0 0 1-.8-.364l-5.734-6.573a1 1 0 0 0-.268-.221l-3.332-1.929a1.1 1.1 0 0 1-.3-.263l-3.221-4.1 3.274-17.546h.651c-.2-.085-.4-.16-.606-.24l2.341-12.545a3.89 3.89 0 0 0 1.927-3.4c-.193-2.186-3.381-2.475-3.381-2.475 4.737-.315.266-3.786.266-3.786s1.355 1.015 5.229.225a5.42 5.42 0 0 0 4.476-3.912c2.972 3.8 6.892 0 6.892 0s2.814-.376 3.716-2.521-1.129-4.275-1.129-4.275 3.31-1.405 1.806-3.125m-31.854 13.437.017.219z" data-name="Path 37"></path><path fill="#707070" d="M105.424 140.571a4.664 4.664 0 0 1-4.794-4.51 4.44 4.44 0 0 1 2.027-3.682l-.014-.049-.657-5.742a2.5 2.5 0 0 1-.973-.438 2.08 2.08 0 0 1-.793-1.544v-.068a8 8 0 0 1 .145-1.3 5 5 0 0 1 .152-.577 2.63 2.63 0 0 1-2.025-2.354l-.013-.093.014-.092a4.8 4.8 0 0 1 .8-2.021 2.95 2.95 0 0 1-1.477-2.033 2.73 2.73 0 0 1 .494-2.105 3.48 3.48 0 0 1-1.464-3.02c-.026-.728.312-1.655 1.95-2.156l-4.311-20.274h-.114l-.285-1.237.124-.058-2.522-11.865a4.87 4.87 0 0 1-.964-3.448 4 4 0 0 1 2.049-2.733l.087-.052a2.1 2.1 0 0 1-.063-3.54 2.57 2.57 0 0 1-1.021-1.07c-.73-1.448.092-3.347 1.833-4.283a2.5 2.5 0 0 1-.669-1.374 4.46 4.46 0 0 1 2.238-4.278 2.3 2.3 0 0 1 .433-1.647c.757-1.026 2.337-1.525 4.832-1.525h.015a4.85 4.85 0 0 1 3.625-1.707 5.2 5.2 0 0 1 1.446.215 3.87 3.87 0 0 1 2.554-1.354 2 2 0 0 1 .412.04 4.17 4.17 0 0 1 2.208 1.534 3.38 3.38 0 0 1 2.528-1.578q.075-.001.147.005a3.66 3.66 0 0 1 2.268 1.025 5.12 5.12 0 0 1 3.402-1.49 3.67 3.67 0 0 1 2.538.926 3.28 3.28 0 0 1 2.846-1.757h.179a4.89 4.89 0 0 1 3.947 2.614 5.2 5.2 0 0 1 1.719-.31 3.7 3.7 0 0 1 2.122.629 4.2 4.2 0 0 1 1.334 1.553 4.67 4.67 0 0 1 2.687-1.166 2.21 2.21 0 0 1 1.7.786 1.92 1.92 0 0 1 .507 1.748 3.65 3.65 0 0 1-1.8 2.023 4.56 4.56 0 0 1 .73 4.311c-.892 2.118-3.288 2.736-4.02 2.878a6.75 6.75 0 0 1-4.081 1.73 4.2 4.2 0 0 1-2.863-1.125 6.24 6.24 0 0 1-4.591 3.335 14.3 14.3 0 0 1-2.818.314q-.273 0-.517-.014a2.26 2.26 0 0 1 .473 1.878 1.5 1.5 0 0 1-.509.74 3 3 0 0 1 1.776 2.423 4.38 4.38 0 0 1-1.987 3.851l-2.191 11.743.119.049-.252 1.252h-.11l-3.128 16.732 3.039 3.867a.4.4 0 0 0 .118.1l3.332 1.929a1.7 1.7 0 0 1 .432.356l5.734 6.573a.41.41 0 0 0 .309.14h3.407a1.71 1.71 0 0 1 1.622 2.26c-.749 2.2-2.364 6.241-4.777 8.516a1.73 1.73 0 0 1-1.193.476 1.7 1.7 0 0 1-1.4-.735l-2.507-3.625a.41.41 0 0 0-.469-.154l-3.778 1.295a1.7 1.7 0 0 1-.47.09c-.188.009-.61.041-1.143.08-1.554.116-4.156.309-5.723.309h-.174l-.932 5.728a4.39 4.39 0 0 1 1.935 3.616 4.664 4.664 0 0 1-4.796 4.514m-1.5-8.5.271.943-.475.245a3.18 3.18 0 0 0-1.788 2.8 3.5 3.5 0 0 0 6.984 0 3.14 3.14 0 0 0-1.667-2.73l-.89-.5.614-.438 1.145-7.036.594.042q.263.02.678.019c1.519 0 4.09-.191 5.627-.306.564-.042.971-.072 1.178-.082a.4.4 0 0 0 .111-.022l3.776-1.295a1.71 1.71 0 0 1 1.963.645l2.508 3.623a.4.4 0 0 0 .333.174.44.44 0 0 0 .3-.121c2.208-2.082 3.728-5.9 4.437-7.988a.4.4 0 0 0-.054-.368.41.41 0 0 0-.335-.171h-3.407a1.71 1.71 0 0 1-1.29-.587l-5.734-6.573a.4.4 0 0 0-.1-.085l-3.333-1.929a1.7 1.7 0 0 1-.489-.425l-3.4-4.33 5.769-30.917.261-.15a3.21 3.21 0 0 0 1.6-2.78c-.142-1.615-2.766-1.882-2.792-1.884l.017-1.3c1.143-.076 1.521-.344 1.561-.475.12-.394-.789-1.477-1.651-2.146l.4-.514.391-.521-.013-.01a4.23 4.23 0 0 0 2.164.406 13 13 0 0 0 2.558-.288 4.78 4.78 0 0 0 3.967-3.4l.271-1.4.881 1.127a3.23 3.23 0 0 0 2.6 1.439 5.67 5.67 0 0 0 3.332-1.506l.154-.148.212-.029c.023 0 2.459-.361 3.2-2.128.729-1.731-.982-3.555-1-3.573l-.649-.681.866-.368c.523-.224 1.648-.884 1.788-1.5.017-.076.063-.277-.218-.6a.9.9 0 0 0-.722-.342 4.56 4.56 0 0 0-2.455 1.4l-.737.774-.349-1.01c-.508-1.47-1.359-2.185-2.6-2.185a3.8 3.8 0 0 0-1.109.177l.072.531-1.273.259a4.03 4.03 0 0 0-3.421-3.272h-.112c-1.554 0-2.024 1.8-2.044 1.878l-.463 1.845-.763-1.734a2.27 2.27 0 0 0-2.115-1.158 4.18 4.18 0 0 0-2.907 1.552l-.567.735-.5-.783a2.5 2.5 0 0 0-1.79-1.044h-.058c-.855 0-1.686 1.288-1.91 1.739l-.537 1.083-.609-1.044c-.254-.432-1.1-1.591-1.935-1.759a1 1 0 0 0-.156-.015c-.725 0-1.59.894-1.836 1.207l-.295.376-.448-.167a4 4 0 0 0-1.422-.277 3.57 3.57 0 0 0-2.778 1.428l-.2.291-.35-.009h-.311c-2.653 0-3.509.624-3.784 1a1.14 1.14 0 0 0-.125 1.036l.261.844h-.744a3.24 3.24 0 0 0-1.831 3.067 1.226 1.226 0 0 0 1.243 1.061l-.007.07v1.228a3.1 3.1 0 0 0-1.155.328c-1.154.582-1.779 1.768-1.364 2.59a1.64 1.64 0 0 0 1.536.777 3 3 0 0 0 1.255-.288l.737 1.048a2.07 2.07 0 0 0-.634 1.171l-.028.291.139.229a1.39 1.39 0 0 0 1.221.508 3.4 3.4 0 0 0 1.505-.384 3.26 3.26 0 0 0 1.371-1.239 1.2 1.2 0 0 0 .128-1.084 1.33 1.33 0 0 0-1.247-.559 3.4 3.4 0 0 0-1.467.363l-.759-1.032a1.77 1.77 0 0 0 .5-1.949 1.5 1.5 0 0 0-1.2-.754l.078-1.3a3.5 3.5 0 0 0 2.861-1.364l1.075-1.71.116 1.95c.034.1.3.714 1.814.739h.032c1.754 0 2.885-2.481 2.9-2.506l.306-.7.644.416a2.46 2.46 0 0 0 1.167.324c.931 0 1.677-.693 2.217-2.059l.386-.978.7.782q.186.207.38.408c.077.079.416.337 1.562.337a15.4 15.4 0 0 0 2.88-.344l.315 1.262a4.14 4.14 0 0 0-2.819 2.908l-1.282-.048.008.044c0-.006-.2-.573-1.771-.573a1.53 1.53 0 0 0-1.452.7 1.8 1.8 0 0 0-.229.708l-.027.727-.72-.108a6 6 0 0 0-.741-.047 2.06 2.06 0 0 0-1.414.353c-.032.037-.117.136-.073.416.187 1.2 1.515 1.295 1.917 1.295h.04l2.283-.089-1.89 1.279a1.69 1.69 0 0 0-.857 1.363l.018.2v.03c.15 1.93 2.451 2.332 2.549 2.348l-.147 1.292c-.023 0-2.348-.154-5.211-.154-5.115 0-8.724.483-10.16 1.361a2.77 2.77 0 0 0-1.443 1.832 3.7 3.7 0 0 0 .79 2.548l.1.122.034.155 7.23 34 .15.835-.626.125c-.712.143-1.557.43-1.537.991a2.3 2.3 0 0 0 .8 1.917 1.4 1.4 0 0 0 .64.249l.781.006h.545l.223 1.3-.758.014h-.126a1.17 1.17 0 0 0-.9.361 1.41 1.41 0 0 0-.245 1.142c.1.745 1.029 1.24 1.481 1.411l.516-.012.592-.015.155 1.291-.707.029-.349.012c-.545.017-.9 1.112-1 1.619a1.39 1.39 0 0 0 1.512 1.231h.14l.957-.071.223 1.3-.72.072a3.94 3.94 0 0 0-.382 1.785c.037.368.173.757 1.116.846l.5.047.094.55Zm-9.966-65.538a.8.8 0 1 0 .785.886l.031-.276-.141-.229a.79.79 0 0 0-.675-.381m4.965-3.44a2.58 2.58 0 0 1 2.41 1.275 2.44 2.44 0 0 1-.154 2.305 4 4 0 0 1-.822 1.016q1.5-.07 3.256-.071c.88 0 1.71.014 2.441.034a3.43 3.43 0 0 1-.927-2.086 2 2 0 0 1-.024-.311l-.036-.465.074-.006a2.8 2.8 0 0 1 .4-1.035 2.69 2.69 0 0 1-1.918-2.19 1.75 1.75 0 0 1 .37-1.464 3.04 3.04 0 0 1 2.4-.808q.166-.002.312.007a3 3 0 0 1 .285-.649 2.7 2.7 0 0 1 .372-.492 3 3 0 0 1-.38.023 3.6 3.6 0 0 1-1.231-.225c-.551.949-1.828 2.693-3.781 2.693h-.054a3.6 3.6 0 0 1-2.533-.855 4.8 4.8 0 0 1-1.395.863 2.5 2.5 0 0 1 .366.537 2.65 2.65 0 0 1 .158 1.923q.21-.019.411-.019m10.645-5.782a4.15 4.15 0 0 1 2.188.492 5.7 5.7 0 0 1 .761-1.141h-.28a3.93 3.93 0 0 1-2.228-.506 4.7 4.7 0 0 1-.9 1.177 4 4 0 0 1 .459-.021Z" data-name="Path 37 - Outline"></path></g></g><g data-name="Group 12"><g clip-path="url(#i)" data-name="Group 11" transform="translate(105.688 64.385)"><path fill="url(#j)" d="M0 0h.011v.143H0z" data-name="Rectangle 6"></path><path fill="#707070" d="M-.651-.651H.662V.795H-.651Z" data-name="Rectangle 6 - Outline"></path></g></g><g data-name="Group 14"><g clip-path="url(#c)" data-name="Group 13"><path fill="#161615" d="M124.887 129.455a1.7 1.7 0 0 1-1.4-.735l-2.508-3.623a.41.41 0 0 0-.47-.154l-3.777 1.3a1.7 1.7 0 0 1-.468.09c-.87.043-5.29.249-7.015.125a.652.652 0 0 1 .093-1.3c1.686.12 6.333-.1 6.858-.127a.4.4 0 0 0 .111-.022l3.776-1.295a1.72 1.72 0 0 1 1.963.645l2.508 3.622a.4.4 0 0 0 .289.172.44.44 0 0 0 .343-.118c2.208-2.082 3.727-5.9 4.437-7.987a.4.4 0 0 0-.054-.368.41.41 0 0 0-.335-.171h-3.407a1.71 1.71 0 0 1-1.29-.587l-5.734-6.573a.4.4 0 0 0-.1-.084l-3.334-1.93a1.7 1.7 0 0 1-.489-.424l-4.05-5.155a.4.4 0 0 0-.052-.054l-4.1-3.546a.41.41 0 0 0-.589.055l-1.059 1.338a.4.4 0 0 0-.057.1c-.173.425-.29 1.02-.047 1.3.564.644 2.655 3.5 3.528 4.691a1.7 1.7 0 0 1 .314 1.229c-.156 1.208-.054 4.225 4.264 6.151a.651.651 0 0 1-.53 1.189 8.4 8.4 0 0 1-4.509-4.1 6.4 6.4 0 0 1-.516-3.4.4.4 0 0 0-.074-.294c-.673-.922-2.912-3.979-3.456-4.6a2.61 2.61 0 0 1-.178-2.647 1.7 1.7 0 0 1 .241-.411l1.059-1.338a1.71 1.71 0 0 1 2.463-.232l4.095 3.544a1.7 1.7 0 0 1 .225.235l4.051 5.156a.4.4 0 0 0 .116.1l3.333 1.93a1.7 1.7 0 0 1 .433.356l5.733 6.573a.41.41 0 0 0 .309.141h3.407a1.71 1.71 0 0 1 1.622 2.26c-.748 2.2-2.364 6.241-4.776 8.516a1.74 1.74 0 0 1-1.197.457" data-name="Path 39"></path><path fill="#161615" d="M102.075 108.408a29 29 0 0 1 3.418.221 2.666 2.666 0 0 1 2.821 2.513 3.14 3.14 0 0 1-2.813 3.219c-.122.01-.445.024-1.835.024-1.725 0-4.079-.021-4.1-.021h-.01c-.9-.022-2.613-.765-2.706-3.422a1.84 1.84 0 0 1 .527-1.367c.755-.786 2.292-1.167 4.698-1.167m1.591 4.675c1.3 0 1.641-.012 1.727-.019a2.1 2.1 0 0 0 .986-.446 1.71 1.71 0 0 0 .634-1.442 1.09 1.09 0 0 0-.732-1.062 2.5 2.5 0 0 0-.833-.182h-.044l-.044-.006a28 28 0 0 0-3.283-.215c-2.727 0-3.541.537-3.764.768a.53.53 0 0 0-.162.417c.07 2 1.273 2.155 1.44 2.166.191.001 2.424.02 4.075.02Z" data-name="Path 40"></path><path fill="#161615" d="m100.391 118.605-.1-.033c-.091-.029-2.226-.723-2.472-2.507a2.7 2.7 0 0 1 .55-2.172 2.45 2.45 0 0 1 1.873-.811c.128 0 .322-.006.568-.012.5-.012 1.194-.029 1.961-.029 4.62 0 5.493.642 5.747 1.337a3.57 3.57 0 0 1-.122 3.01 2.12 2.12 0 0 1-1.684.971c-1.641.145-6.024.239-6.21.243Zm2.377-4.261c-.75 0-1.432.017-1.929.029-.252.006-.452.011-.591.012a1.17 1.17 0 0 0-.9.361 1.41 1.41 0 0 0-.245 1.142c.1.745 1.029 1.24 1.482 1.411.72-.016 4.554-.108 6.006-.236a.82.82 0 0 0 .7-.372 2.31 2.31 0 0 0 .014-1.823c-.115-.098-.839-.524-4.537-.524" data-name="Path 41"></path><path fill="#161615" d="M101.311 122.754a2.694 2.694 0 0 1-2.817-2.45l-.013-.093.014-.092c.043-.283.467-2.763 2.262-2.818 1.285-.04 5.823-.239 5.869-.241h.055l.054.007a2.59 2.59 0 0 1 2.254 2.319c.188 2-1.951 2.892-2.042 2.929l-.095.038-5.3.392c-.041-.001-.124.009-.241.009m-1.512-2.533a1.39 1.39 0 0 0 1.512 1.23h.14l5.086-.376c.286-.141 1.237-.68 1.154-1.563a1.27 1.27 0 0 0-1.074-1.142c-.562.025-4.613.2-5.821.238-.535.011-.894 1.053-1.001 1.613Z" data-name="Path 42"></path><path fill="#161615" d="M103.048 126.7c-2.189 0-2.745-1.137-2.826-2.091v-.068a8 8 0 0 1 .145-1.3c.222-1.107.677-1.706 1.352-1.779.391-.043 1.645-.13 3.027-.13 3.664 0 4.419.6 4.673 1.184a2.25 2.25 0 0 1-.171 2.015 3.84 3.84 0 0 1-2.9 1.782c-.27.034-.573.082-.893.133a16 16 0 0 1-2.407.254m-1.526-2.167c.03.339.122.864 1.526.864a15 15 0 0 0 2.2-.242q.498-.08.937-.14a2.55 2.55 0 0 0 1.929-1.135 1 1 0 0 0 .122-.815c-.1-.075-.718-.436-3.493-.436-1.261 0-2.432.077-2.839.117a4 4 0 0 0-.382 1.786Z" data-name="Path 43"></path><path fill="#161615" d="M105.42 131.552a4.518 4.518 0 1 1-4.794 4.51 4.664 4.664 0 0 1 4.794-4.51m0 7.717a3.219 3.219 0 1 0-3.492-3.207 3.36 3.36 0 0 0 3.492 3.207" data-name="Path 44"></path><path fill="#161615" d="M99.52 109.71a.65.65 0 0 1-.636-.516l-7.332-34.48.455-.224a29.2 29.2 0 0 1 7.787-2.227 34.3 34.3 0 0 1 8.289-.276 33.5 33.5 0 0 1 10 2.487l.485.2-5.761 30.851a.651.651 0 0 1-1.28-.239l5.562-29.81a32.2 32.2 0 0 0-9.091-2.189 33 33 0 0 0-7.957.255 30.3 30.3 0 0 0-7 1.912l7.117 33.469a.652.652 0 0 1-.638.787" data-name="Path 45"></path><path fill="#161615" d="M116.093 88.51a.7.7 0 0 1-.252-.051 27.3 27.3 0 0 0-8.113-2.024 28 28 0 0 0-6.742.215 24.2 24.2 0 0 0-6.327 1.793.651.651 0 0 1-.574-1.169 25 25 0 0 1 6.653-1.9 29.3 29.3 0 0 1 7.075-.236 28.6 28.6 0 0 1 8.533 2.123.651.651 0 0 1-.252 1.252Z" data-name="Path 46"></path><path fill="#161615" d="M103.283 132.855a.65.65 0 0 1-.646-.577l-.708-6.157a.654.654 0 1 1 1.3-.148l.7 6.156a.65.65 0 0 1-.573.721 1 1 0 0 1-.073.005" data-name="Line 1"></path><path fill="#161615" d="M107.665 132.854a.652.652 0 0 1-.643-.756l2.767-17.015a.651.651 0 1 1 1.286.209l-2.768 17.015a.65.65 0 0 1-.642.547" data-name="Line 2"></path><path fill="#161615" d="M92.294 75.726a.65.65 0 0 1-.5-.238 4.98 4.98 0 0 1-1.067-3.583 4 4 0 0 1 2.05-2.733c1.539-.94 4.737-1.459 9.506-1.541a88 88 0 0 1 3.774.023 3.43 3.43 0 0 1-.927-2.089 2 2 0 0 1-.023-.293l-.065-.839v-.05a.65.65 0 0 1 .5-.633 2.68 2.68 0 0 1-1.907-2.189 1.73 1.73 0 0 1 .456-1.557 3.65 3.65 0 0 1 2.63-.71 3 3 0 0 1 .285-.647 2.78 2.78 0 0 1 2.573-1.335 4.15 4.15 0 0 1 2.187.491 6 6 0 0 1 .436-.728q.14-.2.322-.412a3.65 3.65 0 0 1-2.774-.729 12.4 12.4 0 0 1-1.259-1.5c-1.125.591-3.685 1.674-5.9.706a7 7 0 0 1-1.788 1.192 4.85 4.85 0 0 1-5.159-.6.65.65 0 0 1-.186-.217 2.55 2.55 0 0 1 .052-2.429c.689-1.121 2.354-1.689 4.95-1.689a5.2 5.2 0 0 1 1.262-1.054 4.69 4.69 0 0 1 3.808-.439 3.51 3.51 0 0 1 2.967-1.313 4.17 4.17 0 0 1 2.208 1.533 3.27 3.27 0 0 1 2.675-1.572 3.66 3.66 0 0 1 2.268 1.025 5.12 5.12 0 0 1 3.4-1.484 3.67 3.67 0 0 1 2.537.925 3.26 3.26 0 0 1 3.025-1.752c2.405.123 4.863 2.36 4.907 6.4a.65.65 0 0 1-.644.658h-.007a.65.65 0 0 1-.651-.644c-.035-3.235-1.873-5.021-3.671-5.113-1.66-.084-2.151 1.854-2.156 1.873a.65.65 0 0 1-.58.5.64.64 0 0 1-.648-.391 2.27 2.27 0 0 0-2.113-1.156 4.23 4.23 0 0 0-2.909 1.554.652.652 0 0 1-1.064-.049 2.5 2.5 0 0 0-1.79-1.044c-.874-.06-1.735 1.267-1.968 1.737a.651.651 0 0 1-1.146.039c-.254-.432-1.1-1.591-1.935-1.759-.7-.139-1.643.742-1.992 1.191a.65.65 0 0 1-.743.21 3.53 3.53 0 0 0-4.2 1.152.65.65 0 0 1-.548.282c-3-.052-3.884.645-4.143 1.066a1.2 1.2 0 0 0-.059 1.021 3.55 3.55 0 0 0 3.7.356 5.7 5.7 0 0 0 1.713-1.229.65.65 0 0 1 .818-.132c2.252 1.319 5.53-.755 5.563-.776a.652.652 0 0 1 .941.269 8.2 8.2 0 0 0 1.384 1.744c.243.251 1.107.451 2.8.259a19 19 0 0 0 1.544-.246 6 6 0 0 1 .929-.2.651.651 0 0 1 .255 1.275c-.026.007-.357.092-.858.193a4.16 4.16 0 0 0-2.73 2.883.651.651 0 0 1-1.276 0c-.021-.053-.266-.568-1.769-.568a1.55 1.55 0 0 0-1.431.662 1.76 1.76 0 0 0-.251.748.647.647 0 0 1-.747.614 3.25 3.25 0 0 0-2.136.284c-.042.042-.139.141-.093.438a1.37 1.37 0 0 0 1 1.141 2.9 2.9 0 0 0 .954.153.651.651 0 0 1 .4 1.19 1.7 1.7 0 0 0-.86 1.331l.02.26c.15 1.931 2.451 2.332 2.549 2.348a.651.651 0 0 1-.147 1.292c-3.36-.224-12.671-.443-15.371 1.207a2.77 2.77 0 0 0-1.444 1.832 3.7 3.7 0 0 0 .789 2.548.651.651 0 0 1-.505 1.062Z" data-name="Path 47"></path><path fill="#161615" d="M93.154 65.39a2.1 2.1 0 1 1-1.136 2.744 2.1 2.1 0 0 1 1.136-2.744m1.11 2.68a.8.8 0 1 0-1.045-.433.8.8 0 0 0 1.045.433" data-name="Ellipse 1"></path><path fill="#161615" d="M98.922 63.093a2.58 2.58 0 0 1 2.412 1.276 2.44 2.44 0 0 1-.154 2.306 4.5 4.5 0 0 1-1.922 1.766 4.7 4.7 0 0 1-2.1.524 2.58 2.58 0 0 1-2.412-1.276c-.681-1.353.23-3.141 2.076-4.072a4.7 4.7 0 0 1 2.1-.524m-1.76 4.569a3.4 3.4 0 0 0 1.509-.384 3.26 3.26 0 0 0 1.371-1.239 1.2 1.2 0 0 0 .128-1.084 1.33 1.33 0 0 0-1.249-.56 3.4 3.4 0 0 0-1.51.384c-1.255.632-1.8 1.732-1.5 2.323a1.34 1.34 0 0 0 1.251.56" data-name="Path 48"></path><path fill="#161615" d="M95.659 59.696a2.91 2.91 0 0 1 2.7 1.5c.745 1.477-.126 3.424-1.941 4.339a4.34 4.34 0 0 1-1.941.476 2.91 2.91 0 0 1-2.7-1.5 2.74 2.74 0 0 1 .04-2.457 4.16 4.16 0 0 1 1.9-1.882 4.34 4.34 0 0 1 1.942-.476m-1.181 5.009a3.04 3.04 0 0 0 1.355-.336c1.154-.582 1.779-1.768 1.364-2.59a1.64 1.64 0 0 0-1.539-.78 3.04 3.04 0 0 0-1.355.336 2.86 2.86 0 0 0-1.312 1.28 1.47 1.47 0 0 0-.052 1.311 1.64 1.64 0 0 0 1.539.778Z" data-name="Path 49"></path><path fill="#161615" d="M102.411 59.473a2.48 2.48 0 0 1 2.3 1.281 2.88 2.88 0 0 1-1.63 3.687 3.65 3.65 0 0 1-1.631.4 2.48 2.48 0 0 1-2.3-1.282 2.88 2.88 0 0 1 1.629-3.687 3.65 3.65 0 0 1 1.632-.399m-.958 4.066a2.34 2.34 0 0 0 1.045-.26c.877-.443 1.36-1.33 1.053-1.938a1.22 1.22 0 0 0-1.14-.565 2.34 2.34 0 0 0-1.045.26c-.877.443-1.359 1.33-1.053 1.938a1.21 1.21 0 0 0 1.14.565" data-name="Path 50"></path><path fill="#161615" d="M103.907 63.323a2.559 2.559 0 1 1-1.15.274 2.55 2.55 0 0 1 1.15-.274m0 3.816a1.257 1.257 0 1 0-.567-2.379 1.257 1.257 0 0 0 .567 2.379" data-name="Path 51"></path><path fill="#161615" d="M95.986 61.037q-.31 0-.646-.033a2.52 2.52 0 0 1-2.4-2.152 4.5 4.5 0 0 1 2.709-4.519.651.651 0 1 1 .526 1.191 3.26 3.26 0 0 0-1.949 3.122 1.226 1.226 0 0 0 1.243 1.061 3.61 3.61 0 0 0 3.47-1.337.66.66 0 0 1 .709-.315.615.615 0 0 1 .486.548c.034.1.3.715 1.814.74 1.771.03 2.917-2.48 2.928-2.506a.65.65 0 0 1 .95-.287 2.26 2.26 0 0 0 1.714.239 3.06 3.06 0 0 0 1.67-1.974.651.651 0 1 1 1.211.478 4.24 4.24 0 0 1-2.494 2.739 3.35 3.35 0 0 1-2.165-.083c-.555.958-1.85 2.73-3.836 2.695a3.6 3.6 0 0 1-2.531-.852 5 5 0 0 1-3.409 1.245" data-name="Path 52"></path><path fill="#161615" d="M118.258 58.309a.651.651 0 0 1-.518-1.046 8.56 8.56 0 0 1 9.813-2.467.651.651 0 0 1-.458 1.219 7.18 7.18 0 0 0-6.141.286 7.3 7.3 0 0 0-2.178 1.751.65.65 0 0 1-.518.257" data-name="Path 53"></path><path fill="#161615" d="M119.767 53.837a.65.65 0 0 1-.5-.232c-2.067-2.453-6.3-.209-6.344-.186a.651.651 0 0 1-.621-1.145 10.7 10.7 0 0 1 2.851-.985 5.07 5.07 0 0 1 5.109 1.476.651.651 0 0 1-.5 1.071Z" data-name="Path 54"></path><path fill="#161615" d="M117.828 75.726a.651.651 0 0 1-.325-1.216 3.21 3.21 0 0 0 1.6-2.78c-.141-1.6-2.764-1.882-2.79-1.884a.651.651 0 0 1 .016-1.3c1.142-.076 1.52-.344 1.56-.475s-.054-.532-.659-1.212a8.6 8.6 0 0 0-.992-.935l.4-.514.39-.521-.013-.01c.012.008 1.273.821 4.722.118a4.78 4.78 0 0 0 3.967-3.4.651.651 0 0 1 1.152-.278 3.33 3.33 0 0 0 2.385 1.431 5.5 5.5 0 0 0 3.542-1.5.66.66 0 0 1 .366-.177c.023 0 2.458-.36 3.2-2.128.729-1.731-.982-3.555-1-3.573a.65.65 0 0 1 .217-1.049c.523-.224 1.649-.884 1.788-1.5.017-.076.063-.277-.218-.6a.9.9 0 0 0-.7-.341h-.027a4.5 4.5 0 0 0-2.454 1.406.652.652 0 0 1-1.086-.237 3.09 3.09 0 0 0-1.617-2 3.48 3.48 0 0 0-2.522.153.651.651 0 0 1-.575-1.168 4.76 4.76 0 0 1 3.583-.193 3.93 3.93 0 0 1 1.986 1.9 4.6 4.6 0 0 1 2.739-1.165 2.21 2.21 0 0 1 1.65.786 1.92 1.92 0 0 1 .507 1.748 3.65 3.65 0 0 1-1.8 2.023 4.56 4.56 0 0 1 .73 4.311c-.892 2.118-3.288 2.736-4.019 2.878a6.55 6.55 0 0 1-4.375 1.72 4.24 4.24 0 0 1-2.569-1.115 6.24 6.24 0 0 1-4.591 3.336 13.2 13.2 0 0 1-3.335.3 2.26 2.26 0 0 1 .473 1.877 1.5 1.5 0 0 1-.509.74 3 3 0 0 1 1.776 2.423 4.52 4.52 0 0 1-2.252 4.024.65.65 0 0 1-.321.097" data-name="Path 55"></path><path fill="#161615" d="M90.379 77.134h-14.06a.15.15 0 0 0-.17.17v11.475a.15.15 0 0 0 .17.17h9.385a.376.376 0 0 1 .425.425v1.148a.376.376 0 0 1-.425.425h-9.385a.15.15 0 0 0-.17.17v13.345a.376.376 0 0 1-.425.425h-1.4a.376.376 0 0 1-.426-.425v-28.9a.376.376 0 0 1 .426-.425h16.055a.376.376 0 0 1 .425.425v1.145a.376.376 0 0 1-.425.425" data-name="Path 56"></path><path fill="#161615" d="M123.901 104.123a8.24 8.24 0 0 1-3.421-3.251 9.5 9.5 0 0 1-1.211-4.824V83.934a9.27 9.27 0 0 1 1.211-4.781 8.3 8.3 0 0 1 3.421-3.208 11.91 11.91 0 0 1 10.158-.021 8.22 8.22 0 0 1 3.422 3.166 9.07 9.07 0 0 1 1.211 4.717v.043a.46.46 0 0 1-.127.34.4.4 0 0 1-.3.127l-1.4.085a.376.376 0 0 1-.425-.425v-.132a6.73 6.73 0 0 0-2.04-5.121 8.56 8.56 0 0 0-10.838 0 6.73 6.73 0 0 0-2.04 5.121v12.33a6.76 6.76 0 0 0 2.061 5.143 8.46 8.46 0 0 0 10.816 0 6.8 6.8 0 0 0 2.04-5.143v-.085q0-.382.425-.382l1.4.085q.425 0 .425.382a9.2 9.2 0 0 1-1.211 4.739 8.3 8.3 0 0 1-3.422 3.209 11.81 11.81 0 0 1-10.158 0" data-name="Path 57"></path><path fill="#fb0" d="M55.321 100.4a12.6 12.6 0 0 0 5.267-9.62c-.386.964-3.533 1.863-3.533 1.863.642-5.717-1.927-7.323-1.927-7.323.578 3.79-.964 4.946-1.349 5.845s-2.441-1.285-2.441-1.285c1.542 5.075-2.634 8.736-2.634 8.736a6.67 6.67 0 0 0-2.89-4.3c1.606 3.661-2.826 9.7-2.826 9.7a3.52 3.52 0 0 0-2.441-3.212c.783 6.676-5.043 9.965-7.26 10.965.608-1.757.927-3.04.733-3.77-1-3.79-2.122-5.076-2.122-7.8h-5.012c0 2.726 2.121 4.076 3.127 7.866.241.907-.044 2.628-.831 5.07l-.521-1.029s-9.058-3.083-8.094-11.305a3.52 3.52 0 0 0-2.44 3.212s-4.433-6.038-2.826-9.7a6.67 6.67 0 0 0-2.891 4.3s-4.175-3.661-2.633-8.736c0 0-2.055 2.184-2.441 1.285s-1.924-2.056-1.345-5.842c0 0-2.57 1.606-1.927 7.323 0 0-3.148-.9-3.533-1.863a12.6 12.6 0 0 0 5.267 9.62s-1.157.786-4.561.529c0 0 1.478 5.011 9.892 5.46 0 0-1.027 1.349-5.074 1.542a9.59 9.59 0 0 0 9.506 2.955 2.51 2.51 0 0 1-1.606 1.992 10.23 10.23 0 0 0 7.027-.835c2.126-1.243 5.655.83 7.771 2.349q-.192.54-.411 1.12c-1.413 3.726.665 7.708.665 7.708s1.519-2.12 3.125-1.8c0 0-1.647-2.184-.234-5.91l.409-1.078c2.108-1.521 5.683-3.645 7.829-2.39a10.23 10.23 0 0 0 7.027.835 2.51 2.51 0 0 1-1.606-1.992 9.59 9.59 0 0 0 9.507-2.955c-4.047-.193-5.075-1.542-5.075-1.542 8.415-.45 9.892-5.46 9.892-5.46-3.4.257-4.56-.529-4.56-.529" data-name="Path 58"></path><path fill="#707070" d="m28.92 124.459-.49-.939c-.09-.173-2.2-4.287-.7-8.24q.12-.313.239-.642c-2.178-1.5-4.1-2.325-5.458-2.325a2.35 2.35 0 0 0-1.2.291 9.45 9.45 0 0 1-4.834 1.207 11.4 11.4 0 0 1-2.69-.3l-2.149-.575 2.12-.675a1.55 1.55 0 0 0 .762-.536 11 11 0 0 1-1.309.078 10.05 10.05 0 0 1-7.671-3.468l-.768-.99 1.252-.06a12 12 0 0 0 2.971-.465 12.3 12.3 0 0 1-6.409-2.846 7 7 0 0 1-1.976-2.86l-.267-.9.94.071c.438.033.861.05 1.257.05a10 10 0 0 0 1.914-.164 13.4 13.4 0 0 1-3.909-5.818 11.8 11.8 0 0 1-.669-3.575l1.256-.234s.169.36 1.558.934c.221.091.439.174.639.246-.286-5.259 2.2-6.88 2.313-6.95l1.2-.752-.214 1.4a5.88 5.88 0 0 0 .9 4.786c.1.159.2.312.289.466a7 7 0 0 0 1.486-1.236l1.1.635a7.84 7.84 0 0 0 1.674 7.229 7.63 7.63 0 0 1 2.886-3.541l1.775-1.092-.837 1.908c-.733 1.67.034 4.015.806 5.688a22 22 0 0 0 1.148 2.142 4.2 4.2 0 0 1 2.543-2.232l.934-.259-.113.963a8.86 8.86 0 0 0 3.457 8.161 14.8 14.8 0 0 0 4.2 2.452l.1.036a7.2 7.2 0 0 0 .4-3.3 15.4 15.4 0 0 0-1.73-3.92 7.96 7.96 0 0 1-1.418-4.113v-.651h6.315v.651a10.7 10.7 0 0 0 .935 4.072 36 36 0 0 1 1.164 3.563 5.2 5.2 0 0 1-.268 2.643 13.5 13.5 0 0 0 3.181-2.5 8.62 8.62 0 0 0 2.338-7.095l-.113-.963.934.259a4.2 4.2 0 0 1 2.543 2.231 22 22 0 0 0 1.157-2.161c.767-1.667 1.527-4 .8-5.669l-.837-1.908 1.774 1.092a7.63 7.63 0 0 1 2.886 3.541 10 10 0 0 0 1.008-1.5 7.23 7.23 0 0 0 .666-5.73l1.1-.635a7 7 0 0 0 1.486 1.236c.085-.154.185-.307.289-.466a5.88 5.88 0 0 0 .9-4.786l-.214-1.4 1.2.752c.112.07 2.6 1.691 2.312 6.95.2-.072.418-.155.639-.246 1.39-.574 1.557-.931 1.559-.934l1.255.235a11.8 11.8 0 0 1-.669 3.575 13.4 13.4 0 0 1-3.909 5.818 10 10 0 0 0 1.914.163q.6 0 1.257-.05l.94-.071-.267.9a7 7 0 0 1-1.974 2.856 12.3 12.3 0 0 1-6.408 2.846 12 12 0 0 0 2.971.465l1.251.06-.768.99a10.05 10.05 0 0 1-7.671 3.468 11 11 0 0 1-1.307-.078 1.54 1.54 0 0 0 .761.536l2.12.675-2.149.575a11.4 11.4 0 0 1-2.69.305 9.45 9.45 0 0 1-4.829-1.205 2.35 2.35 0 0 0-1.2-.291c-1.417 0-3.457.9-5.758 2.534l-.339.894c-1.255 3.309.09 5.212.148 5.291l1.03 1.366-1.681-.34a1 1 0 0 0-.21-.02c-.931 0-1.968 1.155-2.258 1.56Zm.377-9.655c-.118.327-.231.635-.346.937a9.3 9.3 0 0 0 .251 6.268 4.6 4.6 0 0 1 1.9-1.179 7.64 7.64 0 0 1 .188-5.551l.478-1.261.159-.114c1.829-1.32 4.473-2.894 6.678-2.894a3.63 3.63 0 0 1 1.86.469 8.17 8.17 0 0 0 4.177 1.029c.321 0 .622-.015.894-.037a3.5 3.5 0 0 1-.624-1.506l-.114-.913.9.2a10.4 10.4 0 0 0 2.21.247 8.95 8.95 0 0 0 5.69-2.042c-3.075-.41-4.017-1.528-4.125-1.671l-.748-.982 1.229-.066a12.25 12.25 0 0 0 7.63-2.668 7 7 0 0 0 1.227-1.441h-.236a6.8 6.8 0 0 1-3.621-.693l-.766-.521.75-.544a12.1 12.1 0 0 0 4.828-7.587q-.355.186-.841.388a18 18 0 0 1-1.692.594l-.934.267.109-.966a10.1 10.1 0 0 0-.518-5.14 6.55 6.55 0 0 1-1.212 3.487 4 4 0 0 0-.3.505.98.98 0 0 1-.923.612 2.25 2.25 0 0 1-1.144-.445 8.84 8.84 0 0 1-1.14 4.876 10.5 10.5 0 0 1-2.036 2.641l-.908.8-.167-1.2a5.2 5.2 0 0 0-1.248-2.634c.029 3.739-3.14 8.107-3.3 8.325l-1.084 1.476-.092-1.829a2.79 2.79 0 0 0-1.067-2.129 9.85 9.85 0 0 1-2.749 6.936 15.7 15.7 0 0 1-4.967 3.507l-1.376.621.493-1.427c.251-.724.916-2.649.719-3.39a35 35 0 0 0-1.126-3.443 12.9 12.9 0 0 1-1-3.874h-3.677a8.2 8.2 0 0 0 1.2 2.814 16.5 16.5 0 0 1 1.859 4.233c.277 1.044 0 2.823-.841 5.437l-.487 1.511Zm-6.787-3.793c2 0 4.362 1.3 6.136 2.513l-.451-.9a16.3 16.3 0 0 1-4.36-2.592 10.3 10.3 0 0 1-3.989-8.121 2.79 2.79 0 0 0-1.069 2.131l-.091 1.829-1.076-1.473c-.16-.218-3.329-4.586-3.3-8.325a5.2 5.2 0 0 0-1.248 2.634l-.167 1.2-.907-.8a10.5 10.5 0 0 1-2.036-2.641 8.85 8.85 0 0 1-1.14-4.877 2.25 2.25 0 0 1-1.144.445.98.98 0 0 1-.924-.612 4 4 0 0 0-.3-.505 6.55 6.55 0 0 1-1.212-3.487 10.1 10.1 0 0 0-.518 5.141l.109.966-.934-.267a18 18 0 0 1-1.692-.594c-.326-.135-.6-.264-.842-.388a12 12 0 0 0 .448 1.693 11.96 11.96 0 0 0 4.382 5.894l.75.544-.767.521a6.8 6.8 0 0 1-3.621.693H2.31a7 7 0 0 0 1.228 1.441 12.25 12.25 0 0 0 7.63 2.668l1.229.066-.746.979c-.109.143-1.05 1.26-4.125 1.671a8.95 8.95 0 0 0 5.69 2.042 10.4 10.4 0 0 0 2.21-.247l.9-.2-.114.913a3.5 3.5 0 0 1-.624 1.506c.272.022.573.037.894.037a8.17 8.17 0 0 0 4.177-1.029 3.63 3.63 0 0 1 1.851-.469" data-name="Path 58 - Outline"></path><path fill="#222221" d="M55.128 84.669a.65.65 0 0 1 .345.1c.112.07 2.6 1.691 2.312 6.95.2-.072.418-.155.639-.246 1.39-.574 1.557-.931 1.559-.935a.651.651 0 0 1 1.255.235 11.8 11.8 0 0 1-.669 3.575 13.4 13.4 0 0 1-3.909 5.818 10 10 0 0 0 1.914.163q.6 0 1.257-.05a.65.65 0 0 1 .674.833 7 7 0 0 1-1.974 2.856 12.3 12.3 0 0 1-6.408 2.846 12 12 0 0 0 2.971.465.651.651 0 0 1 .483 1.05 10.05 10.05 0 0 1-7.671 3.468 11 11 0 0 1-1.307-.078 1.54 1.54 0 0 0 .761.536.651.651 0 0 1-.029 1.249 11.4 11.4 0 0 1-2.69.305 9.45 9.45 0 0 1-4.834-1.207 2.36 2.36 0 0 0-1.2-.291c-1.417 0-3.457.9-5.758 2.534l-.339.894c-1.255 3.309.09 5.212.148 5.291a.65.65 0 0 1-.651 1.026 1 1 0 0 0-.21-.02c-.931 0-1.968 1.155-2.258 1.56a.65.65 0 0 1-1.107-.078c-.09-.173-2.2-4.287-.7-8.24q.12-.313.239-.642c-2.178-1.5-4.1-2.325-5.458-2.324a2.35 2.35 0 0 0-1.2.291 9.45 9.45 0 0 1-4.834 1.207 11.4 11.4 0 0 1-2.69-.305.651.651 0 0 1-.029-1.249 1.55 1.55 0 0 0 .762-.536 11 11 0 0 1-1.309.078 10.05 10.05 0 0 1-7.671-3.468.651.651 0 0 1 .483-1.05 12 12 0 0 0 2.971-.465 12.3 12.3 0 0 1-6.408-2.846 7 7 0 0 1-1.978-2.856.65.65 0 0 1 .674-.833c.438.033.861.05 1.257.05a10 10 0 0 0 1.914-.163 13.4 13.4 0 0 1-3.909-5.818 11.8 11.8 0 0 1-.669-3.575.651.651 0 0 1 1.256-.234s.169.362 1.568.938c.218.09.432.171.629.242-.286-5.259 2.2-6.88 2.313-6.95a.651.651 0 0 1 .989.65 5.88 5.88 0 0 0 .9 4.786c.1.159.2.312.289.466a7 7 0 0 0 1.486-1.236.651.651 0 0 1 1.1.636 7.84 7.84 0 0 0 1.674 7.229 7.63 7.63 0 0 1 2.886-3.541.651.651 0 0 1 .937.816c-.732 1.67.034 4.015.806 5.688a22 22 0 0 0 1.148 2.142 4.2 4.2 0 0 1 2.543-2.232.65.65 0 0 1 .821.7 8.86 8.86 0 0 0 3.457 8.161 14.8 14.8 0 0 0 4.2 2.452 1 1 0 0 1 .1.045 7.2 7.2 0 0 0 .406-3.308 15.4 15.4 0 0 0-1.73-3.92 7.96 7.96 0 0 1-1.418-4.113.65.65 0 0 1 .651-.651H31.9a.65.65 0 0 1 .651.651 10.7 10.7 0 0 0 .935 4.072 36 36 0 0 1 1.164 3.563 5.2 5.2 0 0 1-.268 2.643 13.5 13.5 0 0 0 3.181-2.5 8.62 8.62 0 0 0 2.338-7.095.65.65 0 0 1 .821-.7 4.2 4.2 0 0 1 2.543 2.231 22 22 0 0 0 1.157-2.161c.767-1.667 1.527-4 .8-5.669a.651.651 0 0 1 .937-.816 7.63 7.63 0 0 1 2.886 3.541 10 10 0 0 0 1.009-1.5 7.23 7.23 0 0 0 .666-5.73.651.651 0 0 1 1.1-.636 7 7 0 0 0 1.486 1.236c.085-.154.185-.307.289-.466a5.88 5.88 0 0 0 .9-4.786.65.65 0 0 1 .644-.749ZM7.664 92.034a.98.98 0 0 1-.923-.612 4 4 0 0 0-.3-.505 6.55 6.55 0 0 1-1.212-3.487 10.1 10.1 0 0 0-.518 5.141.65.65 0 0 1-.826.7 18 18 0 0 1-1.692-.594c-.326-.135-.6-.264-.842-.388a12 12 0 0 0 .448 1.693 11.96 11.96 0 0 0 4.382 5.894.65.65 0 0 1-.016 1.065 6.8 6.8 0 0 1-3.621.693h-.237a7 7 0 0 0 1.228 1.441 12.25 12.25 0 0 0 7.63 2.668.651.651 0 0 1 .483 1.045c-.109.143-1.05 1.26-4.125 1.671a8.95 8.95 0 0 0 5.69 2.042 10.4 10.4 0 0 0 2.21-.247.65.65 0 0 1 .785.717 3.5 3.5 0 0 1-.624 1.506c.272.022.573.037.894.037a8.17 8.17 0 0 0 4.177-1.029 3.63 3.63 0 0 1 1.86-.469c2.01 0 4.385 1.309 6.163 2.531a.7.7 0 0 1-.077-.119l-.4-.8a16.3 16.3 0 0 1-4.36-2.592 10.3 10.3 0 0 1-3.989-8.121 2.79 2.79 0 0 0-1.069 2.131.651.651 0 0 1-1.175.353c-.16-.218-3.329-4.586-3.3-8.325a5.2 5.2 0 0 0-1.248 2.634.651.651 0 0 1-1.074.4 10.5 10.5 0 0 1-2.036-2.641 8.85 8.85 0 0 1-1.14-4.877 2.25 2.25 0 0 1-1.146.444m49.391 1.26a.65.65 0 0 1-.647-.724 10.1 10.1 0 0 0-.518-5.14 6.55 6.55 0 0 1-1.212 3.487 4 4 0 0 0-.3.505.98.98 0 0 1-.923.612 2.25 2.25 0 0 1-1.144-.445 8.85 8.85 0 0 1-1.14 4.877 10.5 10.5 0 0 1-2.036 2.641.651.651 0 0 1-1.074-.4 5.2 5.2 0 0 0-1.248-2.634c.029 3.739-3.14 8.107-3.3 8.325a.651.651 0 0 1-1.175-.353 2.79 2.79 0 0 0-1.067-2.129 9.85 9.85 0 0 1-2.749 6.936 15.7 15.7 0 0 1-4.967 3.507.651.651 0 0 1-.883-.806c.251-.725.916-2.649.719-3.39a35 35 0 0 0-1.126-3.443 12.9 12.9 0 0 1-1-3.874h-3.679a8.2 8.2 0 0 0 1.2 2.814 16.5 16.5 0 0 1 1.859 4.233c.277 1.044 0 2.823-.841 5.437a.65.65 0 0 1-.832.416l.164.116a.65.65 0 0 1 .234.747c-.143.4-.279.772-.416 1.133a9.3 9.3 0 0 0 .251 6.268 4.6 4.6 0 0 1 1.9-1.179 7.64 7.64 0 0 1 .188-5.551l.409-1.077a.65.65 0 0 1 .228-.3c1.829-1.32 4.473-2.894 6.678-2.894a3.63 3.63 0 0 1 1.86.469 8.17 8.17 0 0 0 4.177 1.029c.321 0 .622-.015.894-.037a3.5 3.5 0 0 1-.624-1.505.65.65 0 0 1 .785-.717 10.4 10.4 0 0 0 2.21.247 8.95 8.95 0 0 0 5.69-2.042c-3.075-.41-4.017-1.528-4.125-1.67a.651.651 0 0 1 .483-1.045 12.25 12.25 0 0 0 7.63-2.668 7 7 0 0 0 1.227-1.441h-.236a6.8 6.8 0 0 1-3.621-.693.65.65 0 0 1-.016-1.065 12.1 12.1 0 0 0 4.828-7.587q-.355.186-.841.388a18 18 0 0 1-1.692.594.7.7 0 0 1-.182.028" data-name="Path 59"></path></g></g><g data-name="Group 16"><g clip-path="url(#k)" data-name="Group 15" transform="translate(13.887 60.526)"><path fill="url(#b)" d="M0 0h30.239v14.769H0z" data-name="Rectangle 8"></path><path fill="#707070" d="M-.651-.651h31.542v16.072H-.651Zm30.239 1.3H.649v13.469h28.939Z" data-name="Rectangle 8 - Outline"></path></g></g><g data-name="Group 18"><g clip-path="url(#c)" data-name="Group 17"><path fill="#222221" d="M13.892 59.875h30.235a.65.65 0 0 1 .616.862l-5.067 14.769a.65.65 0 0 1-.866.39l-9.8-4.08-9.8 4.08a.65.65 0 0 1-.866-.39l-5.066-14.769a.65.65 0 0 1 .616-.862Zm29.328 1.3H14.799l4.545 13.25 9.413-3.918a.65.65 0 0 1 .5 0l9.413 3.918Z" data-name="Path 61"></path><path fill="#339835" d="M44.064 85.674a14.727 14.727 0 1 1-14.727-14.727 14.727 14.727 0 0 1 14.727 14.727" data-name="Path 62"></path><path fill="#707070" d="M29.338 101.052a15.378 15.378 0 1 1 10.874-4.5 15.28 15.28 0 0 1-10.874 4.5m0-29.453a14.076 14.076 0 1 0 9.953 4.123 13.98 13.98 0 0 0-9.953-4.124Z" data-name="Path 62 - Outline"></path><path fill="#222221" d="M14.237 82.765a15.378 15.378 0 0 1 27.835-5.713 15.381 15.381 0 1 1-25.473 17.246 15.28 15.28 0 0 1-2.362-11.533m28.922 5.57a14.076 14.076 0 0 0-21.712-14.317 14.076 14.076 0 1 0 15.782 23.311 13.98 13.98 0 0 0 5.93-8.994" data-name="Ellipse 2"></path><path fill="#339835" d="m29.007 85.32 5.013-5.013 5.012 5.013-5.012 5.013z" data-name="Rectangle 9"></path><path fill="#707070" d="m28.086 85.32 5.933-5.933 5.934 5.933-5.934 5.933Zm5.932-4.093-4.094 4.093 4.094 4.093 4.093-4.093Z" data-name="Rectangle 9 - Outline"></path><path fill="#222221" d="m28.546 84.86 5.013-5.013a.65.65 0 0 1 .92 0l5.013 5.013a.65.65 0 0 1 0 .92l-5.012 5.013a.65.65 0 0 1-.921 0l-5.013-5.013a.65.65 0 0 1 0-.92m5.472-3.633-4.094 4.093 4.094 4.093 4.093-4.093Z" data-name="Rectangle 10"></path><path fill="#339835" d="m27.484 73.772 1.523 1.523 1.6-1.6" data-name="Path 63"></path><path fill="#707070" d="m29.007 76.216-1.984-1.984.921-.921 1.063 1.066 1.138-1.138.921.921Z" data-name="Path 63 - Outline"></path><path fill="#222221" d="M29.008 75.947a.65.65 0 0 1-.46-.191l-1.524-1.523a.651.651 0 0 1 .921-.921l1.063 1.063 1.138-1.142a.651.651 0 0 1 .921.921l-1.6 1.6a.65.65 0 0 1-.459.193" data-name="Path 64"></path><path fill="#339835" d="m23.995 90.333 5.013-5.013 5.012 5.013-5.012 5.013z" data-name="Rectangle 11"></path><path fill="#707070" d="m23.074 90.333 5.933-5.933 5.934 5.933-5.934 5.933Zm5.932-4.093-4.094 4.093 4.094 4.093 4.093-4.093Z" data-name="Rectangle 11 - Outline"></path><path fill="#222221" d="m23.534 89.873 5.013-5.013a.65.65 0 0 1 .92 0l5.013 5.013a.65.65 0 0 1 0 .92l-5.012 5.013a.65.65 0 0 1-.921 0l-5.013-5.013a.65.65 0 0 1 0-.92m5.472-3.633-4.094 4.093 4.094 4.093 4.093-4.093Z" data-name="Rectangle 12"></path><path fill="#339835" d="m37.505 76.824-3.484 3.484 5.013 5.013 2.1-2.1" data-name="Path 65"></path><path fill="#707070" d="M39.033 86.242 33.1 80.308l3.945-3.945.921.921-3.024 3.024 4.092 4.092 1.638-1.639.921.921Z" data-name="Path 65 - Outline"></path><path fill="#222221" d="M39.032 85.972a.65.65 0 0 1-.46-.191l-5.01-5.012a.65.65 0 0 1 0-.921l3.484-3.484a.651.651 0 0 1 .921.921l-3.024 3.024 4.092 4.092 1.638-1.639a.651.651 0 0 1 .921.921l-2.1 2.1a.65.65 0 0 1-.462.189" data-name="Path 66"></path><path fill="#339835" d="m41.131 83.224-2.1 2.1 2.207 2.207" data-name="Path 67"></path><path fill="#707070" d="m40.775 87.988-2.663-2.671 2.559-2.559.921.921-1.638 1.638 1.747 1.747Z" data-name="Path 67 - Outline"></path><path fill="#222221" d="M41.237 88.179a.65.65 0 0 1-.46-.191l-2.207-2.207a.65.65 0 0 1 0-.921l2.1-2.1a.651.651 0 1 1 .921.921l-1.638 1.638 1.747 1.747a.651.651 0 0 1-.46 1.112Z" data-name="Path 68"></path><path fill="#339835" d="m23.995 80.308 5.013-5.013 5.012 5.013-5.012 5.013z" data-name="Rectangle 13"></path><path fill="#707070" d="m23.074 80.308 5.933-5.933 5.934 5.933-5.934 5.933Zm5.932-4.093-4.094 4.093 4.094 4.093 4.093-4.093Z" data-name="Rectangle 13 - Outline"></path><path fill="#222221" d="m23.534 79.848 5.013-5.013a.65.65 0 0 1 .92 0l5.013 5.013a.65.65 0 0 1 0 .92l-5.012 5.013a.65.65 0 0 1-.921 0l-5.013-5.013a.65.65 0 0 1 0-.92m5.472-3.633-4.094 4.093 4.094 4.093 4.093-4.093Z" data-name="Rectangle 14"></path><path fill="#339835" d="m18.982 85.32 5.013-5.013 5.012 5.013-5.012 5.013z" data-name="Rectangle 15"></path><path fill="#707070" d="m18.061 85.32 5.933-5.933 5.934 5.933-5.934 5.933Zm5.932-4.093-4.094 4.093 4.094 4.093 4.093-4.093Z" data-name="Rectangle 15 - Outline"></path><path fill="#222221" d="m18.521 84.86 5.013-5.013a.65.65 0 0 1 .92 0l5.013 5.013a.65.65 0 0 1 0 .92l-5.012 5.013a.65.65 0 0 1-.921 0l-5.013-5.013a.65.65 0 0 1 0-.92m5.472-3.633-4.094 4.093 4.094 4.093 4.093-4.093Z" data-name="Rectangle 16"></path><path fill="#339835" d="m30.606 73.697-1.6 1.6 5.012 5.013 3.484-3.484" data-name="Path 69"></path><path fill="#707070" d="m34.025 81.229-5.933-5.934 2.059-2.059.921.921-1.147 1.138 4.1 4.092 3.024-3.024.921.921Z" data-name="Path 69 - Outline"></path><path fill="#222221" d="M34.019 80.959a.65.65 0 0 1-.46-.191l-5.012-5.013a.65.65 0 0 1 0-.921l1.6-1.6a.651.651 0 1 1 .921.921l-1.138 1.138 4.092 4.092 3.024-3.024a.651.651 0 1 1 .921.921l-3.484 3.484a.65.65 0 0 1-.464.193" data-name="Path 70"></path><path fill="#339835" d="m20.833 77.146 3.162 3.161 5.013-5.012-1.523-1.523" data-name="Path 71"></path><path fill="#707070" d="m23.994 81.228-3.622-3.622.921-.921 2.7 2.7 4.092-4.092-1.063-1.063.921-.921 1.984 1.984Z" data-name="Path 71 - Outline"></path><path fill="#222221" d="M23.994 80.958a.65.65 0 0 1-.46-.191l-3.162-3.162a.651.651 0 0 1 .921-.921l2.7 2.7 4.092-4.091-1.063-1.063a.651.651 0 0 1 .921-.921l1.523 1.523a.65.65 0 0 1 0 .921l-5.013 5.012a.65.65 0 0 1-.459.193" data-name="Path 72"></path><path fill="#339835" d="m26.885 97.467 2.122-2.122-5.012-5.013-3.507 3.507" data-name="Path 73"></path><path fill="#707070" d="m27.346 97.927-.921-.921 1.661-1.661-4.092-4.092-3.047 3.047-.921-.921 3.968-3.968 5.933 5.934Z" data-name="Path 73 - Outline"></path><path fill="#222221" d="M26.886 98.119a.651.651 0 0 1-.46-1.112l1.661-1.661-4.092-4.092-3.047 3.047a.651.651 0 0 1-.921-.921l3.507-3.507a.65.65 0 0 1 .46-.191.65.65 0 0 1 .46.191l5.012 5.013a.65.65 0 0 1 0 .921l-2.12 2.123a.65.65 0 0 1-.46.189" data-name="Path 74"></path><path fill="#339835" d="m37.866 94.181-3.845-3.845-5.013 5.012 2.223 2.223" data-name="Path 75"></path><path fill="#707070" d="m30.77 98.029-2.684-2.684 5.934-5.933 4.306 4.306-.921.921-3.385-3.385-4.095 4.091 1.763 1.763Z" data-name="Path 75 - Outline"></path><path fill="#222221" d="M31.231 98.22a.65.65 0 0 1-.46-.191l-2.223-2.223a.65.65 0 0 1 0-.921l5.013-5.012a.65.65 0 0 1 .921 0l3.845 3.845a.651.651 0 1 1-.921.921l-3.385-3.385-4.092 4.092 1.763 1.763a.651.651 0 0 1-.46 1.112Z" data-name="Path 76"></path><path fill="#339835" d="m31.23 97.568-2.223-2.223-2.122 2.122" data-name="Path 77"></path><path fill="#707070" d="m30.77 98.029-1.763-1.763-1.661 1.662-.921-.921 2.582-2.583 2.684 2.684Z" data-name="Path 77 - Outline"></path><path fill="#222221" d="M31.23 98.22a.65.65 0 0 1-.46-.191l-1.763-1.763-1.665 1.662a.651.651 0 0 1-.921-.921l2.121-2.122a.65.65 0 0 1 .921 0l2.228 2.22a.651.651 0 0 1-.46 1.112Z" data-name="Path 78"></path><path fill="#339835" d="m17.443 83.781 1.539 1.539 5.012-5.013-3.162-3.162" data-name="Path 79"></path><path fill="#707070" d="m18.982 86.242-2-2 .921-.921 1.079 1.079 4.092-4.092-2.7-2.7.921-.921 3.622 3.622Z" data-name="Path 79 - Outline"></path><path fill="#222221" d="M18.982 85.971a.65.65 0 0 1-.46-.191l-1.539-1.539a.651.651 0 1 1 .921-.921l1.079 1.079 4.092-4.092-2.7-2.7a.651.651 0 0 1 .921-.921l3.162 3.162a.65.65 0 0 1 0 .921l-5.015 5.009a.65.65 0 0 1-.461.193" data-name="Path 80"></path><path fill="#339835" d="m20.487 93.84 3.507-3.507-5.013-5.012-1.621 1.621" data-name="Path 81"></path><path fill="#707070" d="m20.945 94.301-.921-.921 3.047-3.047-4.092-4.092-1.161 1.161-.921-.921 2.082-2.082 5.934 5.933Z" data-name="Path 81 - Outline"></path><path fill="#222221" d="M20.487 94.491a.651.651 0 0 1-.46-1.112l3.047-3.047-4.092-4.091-1.161 1.161a.651.651 0 0 1-.921-.921l1.621-1.621a.65.65 0 0 1 .921 0l5.013 5.012a.65.65 0 0 1 0 .921L20.948 94.3a.65.65 0 0 1-.461.191" data-name="Path 82"></path><path fill="#339835" d="m17.36 86.94 1.621-1.622-1.539-1.539" data-name="Path 83"></path><path fill="#707070" d="m17.821 87.402-.921-.921 1.161-1.161-1.079-1.079.921-.921 2 2Z" data-name="Path 83 - Outline"></path><path fill="#222221" d="M17.36 87.588a.651.651 0 0 1-.46-1.112l1.161-1.161-1.079-1.079a.651.651 0 0 1 .921-.921l1.539 1.539a.65.65 0 0 1 0 .921l-1.621 1.621a.65.65 0 0 1-.461.192" data-name="Path 84"></path><path fill="#222221" d="M19.606 109.643a.65.65 0 0 1-.263-.056c-4.5-1.994-8.09-5.678-10.311-8.417a39 39 0 0 1-3.778-5.516.651.651 0 0 1 1.148-.615 38 38 0 0 0 3.659 5.333 28.2 28.2 0 0 0 9.809 8.025.651.651 0 0 1-.264 1.247Z" data-name="Path 85"></path><path fill="#222221" d="M40.917 109.643a.651.651 0 0 1-.264-1.246 28.2 28.2 0 0 0 9.809-8.025 38 38 0 0 0 3.659-5.333.651.651 0 0 1 1.148.615 39 39 0 0 1-3.778 5.516c-2.221 2.74-5.812 6.423-10.311 8.417a.65.65 0 0 1-.263.056" data-name="Path 86"></path></g></g><g data-name="Group 20"><g clip-path="url(#l)" data-name="Group 19" transform="translate(19.9 60.526)"><path fill="url(#m)" d="M0 0h1.453v9.213H0z" data-name="Rectangle 18"></path><path fill="#707070" d="M-.651-.651h2.755V9.864H-.651ZM.802.649H.649v7.91h.15Z" data-name="Rectangle 18 - Outline"></path></g></g><g data-name="Group 22"><g clip-path="url(#c)" data-name="Group 21"><path fill="#222221" d="M21.349 70.39a.65.65 0 0 1-.642-.55l-1.45-9.212a.651.651 0 0 1 1.286-.203l1.453 9.212a.652.652 0 0 1-.644.753Z" data-name="Line 3"></path></g></g><g data-name="Group 24"><g clip-path="url(#n)" data-name="Group 23" transform="translate(24.913 60.526)"><path fill="url(#o)" d="M0 0h.45v7.208H0z" data-name="Rectangle 20"></path><path fill="#707070" d="M-.651-.651h1.752v8.51H-.651Z" data-name="Rectangle 20 - Outline"></path></g></g><g data-name="Group 26"><g clip-path="url(#c)" data-name="Group 25"><path fill="#222221" d="M25.361 68.385a.65.65 0 0 1-.649-.61l-.451-7.208a.651.651 0 0 1 1.3-.081l.45 7.208a.65.65 0 0 1-.609.69Z" data-name="Line 4"></path></g></g><g data-name="Group 28"><g clip-path="url(#p)" data-name="Group 27" transform="translate(36.597 60.799)"><path fill="url(#q)" d="M0 0h1.452v9.213H0z" data-name="Rectangle 22"></path><path fill="#707070" d="M-.651-.651h2.754V9.864H-.651ZM.801.649H.649v7.91h.15Z" data-name="Rectangle 22 - Outline"></path></g></g><g data-name="Group 30"><g clip-path="url(#c)" data-name="Group 29"><path fill="#222221" d="M36.598 70.662a.652.652 0 0 1-.644-.753l1.452-9.212a.651.651 0 1 1 1.286.2l-1.452 9.215a.65.65 0 0 1-.642.55" data-name="Line 5"></path></g></g><g data-name="Group 32"><g clip-path="url(#r)" data-name="Group 31" transform="translate(32.587 60.799)"><path fill="url(#s)" d="M0 0h.45v7.208H0z" data-name="Rectangle 24"></path><path fill="#707070" d="M-.651-.651h1.752v8.51H-.651Z" data-name="Rectangle 24 - Outline"></path></g></g><g data-name="Group 34"><g clip-path="url(#c)" data-name="Group 33"><path fill="#222221" d="M32.587 68.657h-.041a.65.65 0 0 1-.611-.692l.451-7.207a.651.651 0 0 1 1.3.081l-.451 7.208a.65.65 0 0 1-.648.61" data-name="Line 6"></path></g></g><g data-name="Group 36"><g clip-path="url(#t)" data-name="Group 35" transform="translate(29.007 60.526)"><path fill="#fff" d="M0 6.231" data-name="Path 91"></path><path fill="#707070" d="M.5 6.231h-1V0h1Z" data-name="Path 91 - Outline"></path></g></g><g data-name="Group 38"><g clip-path="url(#c)" data-name="Group 37"><path fill="#222221" d="M29.007 67.408a.65.65 0 0 1-.651-.651v-6.231a.651.651 0 0 1 1.3 0v6.231a.65.65 0 0 1-.649.651" data-name="Line 7"></path><path fill="#fb0" d="M205.698 100.4a12.6 12.6 0 0 0 5.267-9.62c-.386.964-3.533 1.863-3.533 1.863.642-5.717-1.927-7.323-1.927-7.323.578 3.79-.964 4.946-1.349 5.845s-2.441-1.285-2.441-1.285c1.542 5.075-2.634 8.736-2.634 8.736a6.67 6.67 0 0 0-2.89-4.3c1.606 3.661-2.827 9.7-2.827 9.7a3.52 3.52 0 0 0-2.441-3.212c.782 6.676-5.043 9.965-7.26 10.965.608-1.757.927-3.04.733-3.77-1-3.79-2.122-5.076-2.122-7.8h-5.013c0 2.726 2.122 4.076 3.127 7.866.24.907-.044 2.628-.831 5.07l-.514-1.029s-9.057-3.083-8.094-11.305a3.52 3.52 0 0 0-2.441 3.212s-4.432-6.038-2.826-9.7a6.67 6.67 0 0 0-2.891 4.3s-4.175-3.661-2.633-8.736c0 0-2.055 2.184-2.441 1.285s-1.927-2.055-1.349-5.845c0 0-2.569 1.606-1.927 7.323 0 0-3.148-.9-3.533-1.863a12.6 12.6 0 0 0 5.267 9.62s-1.156.786-4.561.529c0 0 1.477 5.011 9.892 5.46 0 0-1.027 1.349-5.074 1.542a9.59 9.59 0 0 0 9.507 2.955 2.51 2.51 0 0 1-1.606 1.992 10.23 10.23 0 0 0 7.027-.835c2.126-1.243 5.655.83 7.771 2.349q-.192.54-.411 1.12c-1.413 3.726.665 7.708.665 7.708s1.519-2.12 3.125-1.8c0 0-1.647-2.184-.234-5.91l.409-1.078c2.108-1.521 5.683-3.645 7.829-2.39a10.23 10.23 0 0 0 7.027.835 2.51 2.51 0 0 1-1.606-1.992 9.59 9.59 0 0 0 9.507-2.955c-4.047-.193-5.075-1.542-5.075-1.542 8.415-.45 9.892-5.46 9.892-5.46-3.4.257-4.561-.529-4.561-.529" data-name="Path 93"></path><path fill="#707070" d="m179.297 124.459-.49-.939c-.09-.173-2.2-4.287-.7-8.24q.12-.316.239-.642c-2.177-1.5-4.1-2.325-5.458-2.325a2.35 2.35 0 0 0-1.2.291 9.45 9.45 0 0 1-4.834 1.207 11.4 11.4 0 0 1-2.69-.3l-2.149-.575 2.12-.675a1.54 1.54 0 0 0 .761-.536 11 11 0 0 1-1.307.078 10.05 10.05 0 0 1-7.671-3.468l-.768-.99 1.252-.06a12 12 0 0 0 2.971-.465 12.3 12.3 0 0 1-6.408-2.846 7 7 0 0 1-1.974-2.856l-.267-.9.94.071c.438.033.861.05 1.257.05a10 10 0 0 0 1.914-.164 13.4 13.4 0 0 1-3.909-5.818 11.8 11.8 0 0 1-.669-3.575l1.256-.234s.168.36 1.558.934c.221.091.439.174.639.246-.286-5.259 2.2-6.88 2.313-6.95l1.2-.752-.214 1.4a5.88 5.88 0 0 0 .9 4.786c.1.159.2.312.289.466a7 7 0 0 0 1.486-1.236l1.1.636a7.84 7.84 0 0 0 1.674 7.226 7.63 7.63 0 0 1 2.886-3.541l1.774-1.092-.837 1.908c-.73 1.665.03 4 .8 5.669a22 22 0 0 0 1.157 2.161 4.2 4.2 0 0 1 2.543-2.231l.934-.259-.113.963a8.85 8.85 0 0 0 3.427 8.136 14.9 14.9 0 0 0 4.23 2.477l.1.035a7.2 7.2 0 0 0 .4-3.3 15.4 15.4 0 0 0-1.73-3.92 7.96 7.96 0 0 1-1.418-4.112v-.651h6.315v.651a10.7 10.7 0 0 0 .936 4.073 36 36 0 0 1 1.164 3.562 5.2 5.2 0 0 1-.268 2.643 13.5 13.5 0 0 0 3.18-2.5 8.62 8.62 0 0 0 2.338-7.095l-.113-.963.934.259a4.2 4.2 0 0 1 2.543 2.231 22 22 0 0 0 1.157-2.161c.767-1.667 1.527-4 .8-5.669l-.837-1.908 1.774 1.092a7.63 7.63 0 0 1 2.885 3.541 10 10 0 0 0 1.009-1.5 7.23 7.23 0 0 0 .666-5.73l1.1-.635a7 7 0 0 0 1.486 1.236c.085-.154.185-.307.289-.466a5.88 5.88 0 0 0 .9-4.786l-.214-1.4 1.2.752c.112.07 2.6 1.691 2.312 6.95.2-.072.418-.155.639-.246 1.39-.574 1.557-.931 1.559-.934l1.255.235a11.8 11.8 0 0 1-.669 3.575 13.4 13.4 0 0 1-3.909 5.818 10 10 0 0 0 1.914.163q.6 0 1.257-.05l.94-.071-.267.9a7 7 0 0 1-1.974 2.856 12.3 12.3 0 0 1-6.408 2.846 12 12 0 0 0 2.971.465l1.252.06-.768.99a10.05 10.05 0 0 1-7.671 3.468 11 11 0 0 1-1.307-.078 1.54 1.54 0 0 0 .761.536l2.119.675-2.148.575a11.4 11.4 0 0 1-2.69.305 9.45 9.45 0 0 1-4.834-1.207 2.35 2.35 0 0 0-1.2-.291c-1.417 0-3.458.9-5.758 2.534l-.339.894c-1.256 3.309.09 5.212.148 5.291l1.03 1.366-1.681-.34a1 1 0 0 0-.21-.02c-.931 0-1.968 1.155-2.258 1.56Zm.377-9.654c-.116.324-.23.633-.346.937a9.3 9.3 0 0 0 .251 6.268 4.6 4.6 0 0 1 1.9-1.179 7.63 7.63 0 0 1 .188-5.551l.478-1.26.159-.115c1.829-1.32 4.472-2.894 6.678-2.894a3.63 3.63 0 0 1 1.86.469 8.17 8.17 0 0 0 4.176 1.029c.321 0 .622-.015.894-.037a3.5 3.5 0 0 1-.624-1.506l-.114-.913.9.2a10.4 10.4 0 0 0 2.211.247 8.9 8.9 0 0 0 5.7-2.041c-3.08-.41-4.023-1.529-4.132-1.671l-.746-.979 1.229-.066c5.689-.3 8.008-2.758 8.861-4.109h-.24a6.8 6.8 0 0 1-3.621-.693l-.766-.521.75-.544a11.96 11.96 0 0 0 4.382-5.894 12 12 0 0 0 .448-1.694c-.238.124-.516.254-.842.389a18 18 0 0 1-1.692.594l-.934.267.108-.966a10.1 10.1 0 0 0-.517-5.14 6.55 6.55 0 0 1-1.212 3.487 4 4 0 0 0-.3.5.98.98 0 0 1-.923.612 2.25 2.25 0 0 1-1.144-.445 8.84 8.84 0 0 1-1.14 4.876 10.5 10.5 0 0 1-2.036 2.641l-.907.8-.167-1.2a5.2 5.2 0 0 0-1.247-2.634c.029 3.739-3.14 8.107-3.3 8.325l-1.084 1.476-.092-1.829a2.79 2.79 0 0 0-1.067-2.128 9.85 9.85 0 0 1-2.749 6.935 15.7 15.7 0 0 1-4.967 3.507l-1.376.621.494-1.427c.25-.724.916-2.649.719-3.39a35 35 0 0 0-1.126-3.442 12.9 12.9 0 0 1-1-3.875h-3.691a8.2 8.2 0 0 0 1.2 2.814 16.5 16.5 0 0 1 1.859 4.234c.277 1.044 0 2.822-.84 5.437l-.487 1.511Zm-6.783-3.794c2 0 4.362 1.3 6.137 2.513l-.452-.9a16.3 16.3 0 0 1-4.36-2.592 10.3 10.3 0 0 1-3.989-8.121 2.79 2.79 0 0 0-1.069 2.131l-.091 1.829-1.084-1.477c-.16-.218-3.329-4.586-3.3-8.325a5.2 5.2 0 0 0-1.248 2.634l-.167 1.2-.907-.8a10.5 10.5 0 0 1-2.036-2.641 8.84 8.84 0 0 1-1.14-4.876 2.25 2.25 0 0 1-1.144.445.98.98 0 0 1-.923-.612 4 4 0 0 0-.3-.505 6.55 6.55 0 0 1-1.212-3.487 10.1 10.1 0 0 0-.518 5.141l.108.966-.934-.267a18 18 0 0 1-1.692-.594c-.326-.135-.6-.264-.842-.389a12 12 0 0 0 .448 1.694 11.96 11.96 0 0 0 4.382 5.894l.75.544-.766.521a6.8 6.8 0 0 1-3.621.693h-.236a7 7 0 0 0 1.228 1.441 12.25 12.25 0 0 0 7.63 2.668l1.229.066-.746.979c-.109.143-1.051 1.26-4.125 1.671a8.95 8.95 0 0 0 5.69 2.042 10.4 10.4 0 0 0 2.211-.247l.9-.2-.114.913a3.5 3.5 0 0 1-.624 1.506c.272.022.573.037.894.037a8.17 8.17 0 0 0 4.177-1.029 3.63 3.63 0 0 1 1.857-.466Z" data-name="Path 93 - Outline"></path><path fill="#222221" d="M205.506 84.669a.65.65 0 0 1 .345.1c.112.07 2.6 1.691 2.312 6.95.2-.072.418-.155.639-.246 1.39-.574 1.557-.931 1.559-.934a.651.651 0 0 1 1.255.235 11.8 11.8 0 0 1-.669 3.575 13.4 13.4 0 0 1-3.909 5.818 10 10 0 0 0 1.914.164q.6 0 1.257-.05a.65.65 0 0 1 .673.833 7 7 0 0 1-1.974 2.856 12.3 12.3 0 0 1-6.408 2.846 12 12 0 0 0 2.971.465.651.651 0 0 1 .484 1.05 10.05 10.05 0 0 1-7.671 3.469 11 11 0 0 1-1.307-.078 1.54 1.54 0 0 0 .761.536.651.651 0 0 1-.029 1.249 11.4 11.4 0 0 1-2.69.3 9.45 9.45 0 0 1-4.834-1.207 2.36 2.36 0 0 0-1.2-.291c-1.418 0-3.458.9-5.758 2.535l-.339.894c-1.256 3.309.09 5.212.148 5.291a.65.65 0 0 1-.65 1.026 1 1 0 0 0-.21-.021c-.929 0-1.945 1.127-2.259 1.561a.652.652 0 0 1-1.106-.079c-.09-.173-2.2-4.287-.7-8.24q.12-.316.239-.642c-2.178-1.5-4.1-2.325-5.458-2.325a2.36 2.36 0 0 0-1.2.291 9.45 9.45 0 0 1-4.834 1.207 11.4 11.4 0 0 1-2.69-.3.651.651 0 0 1-.029-1.249 1.55 1.55 0 0 0 .763-.536 11 11 0 0 1-1.309.078 10.05 10.05 0 0 1-7.671-3.469.651.651 0 0 1 .484-1.05 12 12 0 0 0 2.971-.465 12.3 12.3 0 0 1-6.408-2.846 7 7 0 0 1-1.974-2.856.65.65 0 0 1 .674-.834c.438.033.861.05 1.257.05a10 10 0 0 0 1.914-.164 13.4 13.4 0 0 1-3.909-5.818 11.8 11.8 0 0 1-.669-3.575.651.651 0 0 1 1.256-.234s.168.36 1.558.934c.221.091.439.174.639.246-.286-5.259 2.2-6.88 2.313-6.95a.651.651 0 0 1 .989.65 5.88 5.88 0 0 0 .9 4.786c.1.159.2.312.289.466a7 7 0 0 0 1.486-1.236.651.651 0 0 1 1.1.636 7.84 7.84 0 0 0 1.674 7.229 7.63 7.63 0 0 1 2.886-3.541.651.651 0 0 1 .937.816c-.73 1.665.03 4 .8 5.669a22 22 0 0 0 1.157 2.161 4.2 4.2 0 0 1 2.543-2.231.65.65 0 0 1 .821.7 8.85 8.85 0 0 0 3.427 8.136 14.9 14.9 0 0 0 4.23 2.477 1 1 0 0 1 .1.045 7.2 7.2 0 0 0 .406-3.308 15.4 15.4 0 0 0-1.73-3.921 7.96 7.96 0 0 1-1.418-4.112.65.65 0 0 1 .651-.651h5.013a.65.65 0 0 1 .651.651 10.7 10.7 0 0 0 .936 4.073 36 36 0 0 1 1.164 3.562 5.2 5.2 0 0 1-.268 2.643 13.5 13.5 0 0 0 3.18-2.5 8.62 8.62 0 0 0 2.338-7.095.65.65 0 0 1 .821-.7 4.2 4.2 0 0 1 2.543 2.231 22 22 0 0 0 1.157-2.161c.767-1.667 1.527-4 .8-5.669a.651.651 0 0 1 .938-.816 7.63 7.63 0 0 1 2.885 3.541 10 10 0 0 0 1.009-1.5 7.23 7.23 0 0 0 .666-5.73.651.651 0 0 1 1.1-.635 7 7 0 0 0 1.486 1.236c.085-.154.185-.307.289-.466a5.88 5.88 0 0 0 .9-4.786.65.65 0 0 1 .644-.749Zm-47.464 7.365a.98.98 0 0 1-.923-.612 4 4 0 0 0-.3-.505 6.55 6.55 0 0 1-1.212-3.487 10.1 10.1 0 0 0-.518 5.141.65.65 0 0 1-.826.7 18 18 0 0 1-1.692-.594c-.326-.135-.6-.264-.842-.388a12 12 0 0 0 .448 1.693 11.96 11.96 0 0 0 4.382 5.894.65.65 0 0 1-.016 1.065 6.8 6.8 0 0 1-3.621.693h-.236a7 7 0 0 0 1.228 1.441 12.25 12.25 0 0 0 7.63 2.668.651.651 0 0 1 .483 1.045c-.109.143-1.051 1.26-4.125 1.671a8.95 8.95 0 0 0 5.69 2.042 10.4 10.4 0 0 0 2.211-.247.65.65 0 0 1 .785.717 3.5 3.5 0 0 1-.624 1.506c.272.022.573.037.894.037a8.17 8.17 0 0 0 4.177-1.029 3.64 3.64 0 0 1 1.86-.469c2.011 0 4.386 1.31 6.164 2.532a.7.7 0 0 1-.077-.119l-.4-.8a16.3 16.3 0 0 1-4.36-2.592 10.3 10.3 0 0 1-3.989-8.121 2.79 2.79 0 0 0-1.069 2.131.651.651 0 0 1-1.175.353c-.16-.218-3.329-4.586-3.3-8.325a5.2 5.2 0 0 0-1.248 2.634.651.651 0 0 1-1.074.4 10.5 10.5 0 0 1-2.036-2.641 8.84 8.84 0 0 1-1.14-4.876 2.25 2.25 0 0 1-1.149.442m49.39 1.26a.65.65 0 0 1-.647-.724 10.1 10.1 0 0 0-.517-5.14 6.55 6.55 0 0 1-1.212 3.487 4 4 0 0 0-.3.505.98.98 0 0 1-.923.612 2.25 2.25 0 0 1-1.144-.445 8.84 8.84 0 0 1-1.14 4.876 10.5 10.5 0 0 1-2.036 2.641.651.651 0 0 1-1.074-.4 5.2 5.2 0 0 0-1.248-2.64c.033 3.74-3.139 8.113-3.3 8.331a.651.651 0 0 1-1.175-.353 2.79 2.79 0 0 0-1.067-2.128 9.85 9.85 0 0 1-2.749 6.935 15.7 15.7 0 0 1-4.967 3.507.651.651 0 0 1-.883-.806c.25-.725.916-2.649.719-3.391a35 35 0 0 0-1.126-3.442 12.9 12.9 0 0 1-1-3.875h-3.685a8.2 8.2 0 0 0 1.2 2.814 16.5 16.5 0 0 1 1.859 4.234c.277 1.044 0 2.823-.84 5.437a.65.65 0 0 1-.833.416l.164.117a.65.65 0 0 1 .234.747c-.141.4-.277.767-.416 1.132a9.3 9.3 0 0 0 .251 6.268 4.6 4.6 0 0 1 1.9-1.179 7.63 7.63 0 0 1 .188-5.551l.409-1.077a.65.65 0 0 1 .228-.3c1.829-1.32 4.472-2.894 6.678-2.894a3.63 3.63 0 0 1 1.86.469 8.17 8.17 0 0 0 4.176 1.029c.321 0 .622-.014.894-.037a3.5 3.5 0 0 1-.624-1.506.65.65 0 0 1 .785-.717 10.4 10.4 0 0 0 2.211.247 8.92 8.92 0 0 0 5.7-2.041c-3.08-.41-4.023-1.529-4.132-1.671a.651.651 0 0 1 .483-1.045c5.689-.3 8.008-2.758 8.861-4.109h-.24a6.8 6.8 0 0 1-3.621-.693.65.65 0 0 1-.016-1.065 12.1 12.1 0 0 0 4.829-7.587q-.355.186-.841.388a18 18 0 0 1-1.692.594.7.7 0 0 1-.181.03" data-name="Path 94"></path></g></g><g data-name="Group 40"><g clip-path="url(#u)" data-name="Group 39" transform="translate(164.265 60.526)"><path fill="url(#v)" d="M0 0h30.239v14.769H0z" data-name="Rectangle 27"></path><path fill="#707070" d="M-.651-.651h31.542v16.072H-.651Zm30.239 1.3H.649v13.469h28.939Z" data-name="Rectangle 27 - Outline"></path></g></g><g data-name="Group 42"><g clip-path="url(#c)" data-name="Group 41"><path fill="#222221" d="M164.266 59.875h30.24a.65.65 0 0 1 .616.862l-5.066 14.769a.65.65 0 0 1-.866.39l-9.8-4.08-9.8 4.08a.65.65 0 0 1-.866-.39l-5.066-14.769a.65.65 0 0 1 .616-.862Zm29.328 1.3h-28.417l4.545 13.25 9.413-3.918a.65.65 0 0 1 .5 0l9.412 3.918Z" data-name="Path 96"></path><path fill="#339835" d="M194.442 85.674a14.727 14.727 0 1 1-14.727-14.727 14.727 14.727 0 0 1 14.727 14.727" data-name="Path 97"></path><path fill="#707070" d="M179.716 101.052a15.378 15.378 0 1 1 10.874-4.5 15.28 15.28 0 0 1-10.874 4.5m0-29.453a14.076 14.076 0 1 0 9.953 4.123 14.1 14.1 0 0 0-9.953-4.124Z" data-name="Path 97 - Outline"></path><path fill="#222221" d="M179.716 70.296a15.378 15.378 0 0 1 10.874 26.252 15.381 15.381 0 0 1-21.752-21.752 15.28 15.28 0 0 1 10.878-4.5m0 29.453a14.076 14.076 0 0 0 9.953-24.028 14.076 14.076 0 1 0-19.906 19.906 13.98 13.98 0 0 0 9.953 4.122" data-name="Ellipse 3"></path><path fill="#339835" d="m179.385 85.32 5.013-5.013 5.012 5.013-5.012 5.013z" data-name="Rectangle 28"></path><path fill="#707070" d="m178.464 85.32 5.933-5.933 5.934 5.933-5.934 5.933Zm5.932-4.093-4.094 4.093 4.094 4.093 4.093-4.093Z" data-name="Rectangle 28 - Outline"></path><path fill="#222221" d="m178.924 84.86 5.013-5.013a.65.65 0 0 1 .92 0l5.013 5.013a.65.65 0 0 1 0 .92l-5.012 5.013a.65.65 0 0 1-.921 0l-5.013-5.013a.65.65 0 0 1 0-.92m5.472-3.633-4.094 4.093 4.094 4.093 4.093-4.093Z" data-name="Rectangle 29"></path><path fill="#339835" d="m177.862 73.772 1.523 1.523 1.6-1.6" data-name="Path 98"></path><path fill="#707070" d="m179.388 76.216-1.984-1.984.921-.921 1.063 1.066 1.138-1.138.921.921Z" data-name="Path 98 - Outline"></path><path fill="#222221" d="M179.385 75.947a.65.65 0 0 1-.46-.191l-1.523-1.523a.651.651 0 0 1 .921-.921l1.063 1.063 1.138-1.139a.651.651 0 0 1 .921.921l-1.6 1.6a.65.65 0 0 1-.46.19" data-name="Path 99"></path><path fill="#339835" d="m174.372 90.333 5.013-5.013 5.012 5.013-5.012 5.013z" data-name="Rectangle 30"></path><path fill="#707070" d="m173.452 90.333 5.933-5.933 5.934 5.933-5.934 5.933Zm5.932-4.093-4.094 4.093 4.094 4.093 4.093-4.093Z" data-name="Rectangle 30 - Outline"></path><path fill="#222221" d="m173.912 89.873 5.013-5.013a.65.65 0 0 1 .92 0l5.013 5.013a.65.65 0 0 1 0 .92l-5.012 5.013a.65.65 0 0 1-.921 0l-5.013-5.013a.65.65 0 0 1 0-.92m5.472-3.633-4.094 4.093 4.094 4.093 4.093-4.093Z" data-name="Rectangle 31"></path><path fill="#339835" d="m187.882 76.824-3.484 3.484 5.013 5.013 2.1-2.1" data-name="Path 100"></path><path fill="#707070" d="m189.41 86.242-5.933-5.934 3.945-3.945.92.921-3.024 3.024 4.092 4.092 1.638-1.639.921.921Z" data-name="Path 100 - Outline"></path><path fill="#222221" d="M189.411 85.972a.65.65 0 0 1-.46-.191l-5.013-5.013a.65.65 0 0 1 0-.921l3.484-3.484a.651.651 0 0 1 .921.921l-3.024 3.024 4.092 4.092 1.638-1.639a.651.651 0 0 1 .921.921l-2.1 2.1a.65.65 0 0 1-.459.19" data-name="Path 101"></path><path fill="#339835" d="m191.51 83.224-2.1 2.1 2.207 2.207" data-name="Path 102"></path><path fill="#707070" d="m191.157 87.988-2.667-2.671 2.559-2.559.921.921-1.639 1.638 1.746 1.747Z" data-name="Path 102 - Outline"></path><path fill="#222221" d="M191.617 88.179a.65.65 0 0 1-.46-.191l-2.207-2.207a.65.65 0 0 1 0-.921l2.1-2.1a.651.651 0 0 1 .921.921l-1.638 1.638 1.747 1.747a.651.651 0 0 1-.46 1.112Z" data-name="Path 103"></path><path fill="#339835" d="m174.372 80.308 5.012-5.012 5.012 5.012-5.012 5.012z" data-name="Rectangle 32"></path><path fill="#707070" d="m173.452 80.308 5.932-5.932 5.933 5.932-5.933 5.932Zm5.931-4.093-4.093 4.093 4.093 4.093 4.093-4.093Z" data-name="Rectangle 32 - Outline"></path><path fill="#222221" d="m173.912 79.848 5.012-5.012a.65.65 0 0 1 .92 0l5.013 5.012a.65.65 0 0 1 0 .92l-5.012 5.012a.65.65 0 0 1-.92 0l-5.013-5.012a.65.65 0 0 1 0-.92m5.471-3.633-4.093 4.093 4.093 4.093 4.093-4.093Z" data-name="Rectangle 33"></path><path fill="#339835" d="m169.36 85.32 5.013-5.013 5.012 5.013-5.012 5.013z" data-name="Rectangle 34"></path><path fill="#707070" d="m168.439 85.32 5.933-5.933 5.934 5.933-5.934 5.933Zm5.932-4.093-4.094 4.093 4.094 4.093 4.093-4.093Z" data-name="Rectangle 34 - Outline"></path><path fill="#222221" d="m168.9 84.86 5.012-5.013a.65.65 0 0 1 .92 0l5.013 5.013a.65.65 0 0 1 0 .92l-5.012 5.013a.65.65 0 0 1-.921 0l-5.013-5.013a.65.65 0 0 1 0-.92m5.47-3.633-4.093 4.093 4.094 4.093 4.093-4.093Z" data-name="Rectangle 35"></path><path fill="#339835" d="m180.987 73.697-1.6 1.6 5.012 5.013 3.484-3.484" data-name="Path 104"></path><path fill="#707070" d="m184.397 81.229-5.933-5.934 2.059-2.059.921.921-1.138 1.138 4.091 4.092 3.024-3.024.921.921Z" data-name="Path 104 - Outline"></path><path fill="#222221" d="M184.397 80.959a.65.65 0 0 1-.46-.191l-5.012-5.013a.65.65 0 0 1 0-.921l1.6-1.6a.651.651 0 1 1 .921.921l-1.138 1.138 4.092 4.092 3.024-3.024a.651.651 0 1 1 .921.921l-3.484 3.484a.65.65 0 0 1-.464.193" data-name="Path 105"></path><path fill="#339835" d="m171.211 77.146 3.161 3.161 5.013-5.012-1.523-1.523" data-name="Path 106"></path><path fill="#707070" d="m174.372 81.228-3.622-3.622.921-.921 2.7 2.7 4.092-4.092-1.063-1.063.921-.921 1.984 1.984Z" data-name="Path 106 - Outline"></path><path fill="#222221" d="M174.373 80.958a.65.65 0 0 1-.46-.191l-3.161-3.162a.651.651 0 1 1 .921-.921l2.7 2.7 4.092-4.091-1.063-1.063a.651.651 0 1 1 .921-.921l1.523 1.523a.65.65 0 0 1 0 .921l-5.013 5.012a.65.65 0 0 1-.46.193" data-name="Path 107"></path><path fill="#339835" d="m177.264 97.467 2.122-2.122-5.012-5.013-3.507 3.507" data-name="Path 108"></path><path fill="#707070" d="m177.724 97.927-.921-.921 1.661-1.661-4.092-4.092-3.047 3.047-.921-.921 3.968-3.968 5.933 5.934Z" data-name="Path 108 - Outline"></path><path fill="#222221" d="M177.263 98.119a.651.651 0 0 1-.46-1.112l1.661-1.661-4.092-4.092-3.047 3.047a.651.651 0 0 1-.921-.921l3.507-3.507a.65.65 0 0 1 .46-.191.65.65 0 0 1 .461.191l5.012 5.013a.65.65 0 0 1 0 .921l-2.122 2.122a.65.65 0 0 1-.459.19" data-name="Path 109"></path><path fill="#339835" d="m188.243 94.181-3.845-3.845-5.011 5.01 2.223 2.223" data-name="Path 110"></path><path fill="#707070" d="m181.147 98.029-2.684-2.684 5.934-5.933 4.306 4.306-.921.921-3.385-3.385-4.092 4.092 1.763 1.763Z" data-name="Path 110 - Outline"></path><path fill="#222221" d="M181.608 98.22a.65.65 0 0 1-.461-.191l-2.223-2.223a.65.65 0 0 1 0-.921l5.013-5.012a.65.65 0 0 1 .921 0l3.845 3.845a.651.651 0 1 1-.921.921l-3.385-3.385-4.092 4.092 1.763 1.763a.651.651 0 0 1-.46 1.112Z" data-name="Path 111"></path><path fill="#339835" d="m181.607 97.568-2.223-2.223-2.121 2.122" data-name="Path 112"></path><path fill="#707070" d="m181.148 98.029-1.763-1.763-1.661 1.662-.921-.921 2.582-2.583 2.683 2.684Z" data-name="Path 112 - Outline"></path><path fill="#222221" d="M181.607 98.22a.65.65 0 0 1-.461-.191l-1.763-1.763-1.661 1.662a.651.651 0 1 1-.921-.921l2.122-2.122a.65.65 0 0 1 .921 0l2.224 2.22a.651.651 0 0 1-.46 1.112Z" data-name="Path 113"></path><path fill="#339835" d="m167.82 83.781 1.539 1.539 5.012-5.013-3.162-3.162" data-name="Path 114"></path><path fill="#707070" d="m169.364 86.242-2-2 .921-.921 1.079 1.079 4.092-4.092-2.7-2.7.921-.921 3.622 3.622Z" data-name="Path 114 - Outline"></path><path fill="#222221" d="M169.361 85.971a.65.65 0 0 1-.461-.191l-1.539-1.539a.651.651 0 1 1 .921-.921l1.079 1.079 4.091-4.092-2.7-2.7a.651.651 0 0 1 .921-.921l3.162 3.162a.65.65 0 0 1 0 .921l-5.015 5.009a.65.65 0 0 1-.459.193" data-name="Path 115"></path><path fill="#339835" d="m170.866 93.84 3.507-3.507-5.013-5.012-1.621 1.621" data-name="Path 116"></path><path fill="#707070" d="m171.326 94.301-.921-.921 3.047-3.047-4.092-4.092-1.161 1.161-.921-.921 2.082-2.082 5.934 5.933Z" data-name="Path 116 - Outline"></path><path fill="#222221" d="M170.866 94.491a.651.651 0 0 1-.46-1.112l3.047-3.047-4.092-4.091-1.161 1.161a.651.651 0 1 1-.921-.921l1.621-1.621a.65.65 0 0 1 .921 0l5.013 5.012a.65.65 0 0 1 0 .921l-3.507 3.507a.65.65 0 0 1-.461.191" data-name="Path 117"></path><path fill="#339835" d="m167.739 86.94 1.621-1.622-1.539-1.539" data-name="Path 118"></path><path fill="#707070" d="m168.199 87.402-.921-.921 1.161-1.161-1.079-1.079.921-.921 2 2Z" data-name="Path 118 - Outline"></path><path fill="#222221" d="M167.739 87.588a.651.651 0 0 1-.461-1.112l1.161-1.161-1.079-1.079a.651.651 0 0 1 .921-.921l1.539 1.539a.65.65 0 0 1 0 .921l-1.621 1.621a.65.65 0 0 1-.46.192" data-name="Path 119"></path><path fill="#222221" d="M169.983 109.643a.65.65 0 0 1-.263-.056c-4.5-1.994-8.09-5.678-10.311-8.417a39 39 0 0 1-3.778-5.516.651.651 0 0 1 1.148-.615 38 38 0 0 0 3.659 5.333 28.2 28.2 0 0 0 9.809 8.025.651.651 0 0 1-.264 1.247Z" data-name="Path 120"></path><path fill="#222221" d="M191.294 109.643a.651.651 0 0 1-.264-1.247c4.261-1.889 7.7-5.418 9.827-8.047a38 38 0 0 0 3.642-5.311.651.651 0 1 1 1.148.615 39 39 0 0 1-3.778 5.516c-2.221 2.739-5.812 6.423-10.311 8.417a.65.65 0 0 1-.264.057" data-name="Path 121"></path></g></g><g data-name="Group 44"><g clip-path="url(#w)" data-name="Group 43" transform="translate(170.278 60.526)"><path fill="url(#x)" d="M0 0h1.453v9.213H0z" data-name="Rectangle 37"></path><path fill="#707070" d="M-.651-.651h2.755V9.864H-.651ZM.802.649H.649v7.91h.15Z" data-name="Rectangle 37 - Outline"></path></g></g><g data-name="Group 46"><g clip-path="url(#c)" data-name="Group 45"><path fill="#222221" d="M171.726 70.39a.65.65 0 0 1-.642-.55l-1.45-9.212a.651.651 0 0 1 1.286-.203l1.453 9.212a.652.652 0 0 1-.644.753Z" data-name="Line 8"></path></g></g><g data-name="Group 48"><g clip-path="url(#y)" data-name="Group 47" transform="translate(175.29 60.526)"><path fill="url(#z)" d="M0 0h.45v7.208H0z" data-name="Rectangle 39"></path><path fill="#707070" d="M-.651-.651h1.752v8.51H-.651Z" data-name="Rectangle 39 - Outline"></path></g></g><g data-name="Group 50"><g clip-path="url(#c)" data-name="Group 49"><path fill="#222221" d="M175.739 68.385a.65.65 0 0 1-.649-.61l-.451-7.208a.651.651 0 0 1 1.3-.081l.45 7.208a.65.65 0 0 1-.609.69Z" data-name="Line 9"></path></g></g><g data-name="Group 52"><g clip-path="url(#A)" data-name="Group 51" transform="translate(186.975 60.799)"><path fill="url(#B)" d="M0 0h1.453v9.213H0z" data-name="Rectangle 41"></path><path fill="#707070" d="M-.651-.651h2.755V9.864H-.651ZM.802.649H.649v7.91h.15Z" data-name="Rectangle 41 - Outline"></path></g></g><g data-name="Group 54"><g clip-path="url(#c)" data-name="Group 53"><path fill="#222221" d="M186.975 70.662a.652.652 0 0 1-.644-.753l1.453-9.212a.651.651 0 0 1 1.286.2l-1.453 9.215a.65.65 0 0 1-.642.55" data-name="Line 10"></path></g></g><g data-name="Group 56"><g clip-path="url(#C)" data-name="Group 55" transform="translate(182.964 60.799)"><path fill="url(#D)" d="M0 0h.45v7.208H0z" data-name="Rectangle 43"></path><path fill="#707070" d="M-.651-.651h1.752v8.51H-.651Z" data-name="Rectangle 43 - Outline"></path></g></g><g data-name="Group 58"><g clip-path="url(#c)" data-name="Group 57"><path fill="#222221" d="M182.965 68.657h-.041a.65.65 0 0 1-.611-.692l.451-7.207a.651.651 0 0 1 1.3.081l-.451 7.208a.65.65 0 0 1-.648.61" data-name="Line 11"></path></g></g><g data-name="Group 60"><g clip-path="url(#E)" data-name="Group 59" transform="translate(179.385 60.526)"><path fill="#fff" d="M.002 6.231" data-name="Path 126"></path><path fill="#707070" d="M.502 6.231h-1V0h1Z" data-name="Path 126 - Outline"></path></g></g><g data-name="Group 62"><g clip-path="url(#c)" data-name="Group 61"><path fill="#222221" d="M179.385 67.408a.65.65 0 0 1-.651-.651v-6.231a.651.651 0 0 1 1.3 0v6.231a.65.65 0 0 1-.649.651" data-name="Line 12"></path></g></g></g></g><!-- source: https://football-logos.cc --></svg>