<svg xmlns="http://www.w3.org/2000/svg" viewBox="36.48 137.48 522.32 566.93"><!-- Source: https://football-logos.cc --><path d="M462.376 138.163c10.294 6.679 21.494 19.833 30.057 30.59 13.116 16.475 25.829 30.417 38.342 47.399 4.169 5.658 5.246 12.936-2.491 23.542-13.36 18.317-18.937 26.443-22.18 47.42-2.431 15.727.004 30.985 3.754 46.186 8.72 35.342 25.411 64.775 38.338 98.288 7.515 19.482 11.995 44.001 10.213 64.913-5.656 66.345-49.675 97.712-103.72 122.755-30.455 14.112-63.084 27.516-93.698 41.164-26.21 11.685-40.538 19.513-70.387 43.99-18.176-22.978-55.102-42.467-88.587-55.728-30.19-11.956-62.427-21.608-90.153-38.684-45.193-27.834-71.259-59.53-74.996-114.847-1.957-28.962 3.452-52.944 15.319-79.06 8.7-19.145 20.083-36.844 28.281-56.247 7.219-17.085 13.263-38.337 14.099-56.887 1.283-28.487-6.28-46.53-23.91-68.777-5.573-7.033-6.255-13.181-3.34-18.873 3.302-6.451 10.925-12.318 15.828-18.222 16.65-20.048 32.762-42.185 55.238-55.46 5.477-3.235 12.043-4.374 21.592.308 40.416 19.817 92.184 29.704 145.131 29.665 52.26-.04 101.935-8.87 149.756-32.894 2.134-1.072 5.51-1.84 7.514-.54" style="fill:#000200;fill-rule:evenodd" data-source="https://football-logos.cc"></path><path d="M147.352 150.444C198.89 176.05 247.397 182.54 299.168 182.5s106.456-11.155 157.062-33.344c18.624 7.012 36.026 35.537 66.194 76.48-16.25 29.255-26.244 39.451-29.21 58.627-2.688 17.381 1.295 34.306 5.32 50.614 9.141 37.05 28.668 68.693 40.795 100.132 7.774 20.153 10.985 40.267 9.605 57.955-5.068 64.968-52.472 95.659-95.442 115.57-30.82 14.282-64.186 26.376-92.524 39.01-31.055 13.845-52.871 27.16-68.413 42.084-23.174-21.262-54.899-38.168-85.99-50.481-31.303-12.397-63.724-21.233-89.717-37.242-37.409-23.039-66.676-50.82-70.498-107.394-1.835-27.155 4.141-47.656 15.538-72.74 8.85-19.475 19.623-35.746 28.384-56.48 7.73-18.295 13.97-40.918 14.838-60.158 1.176-26.079-5.588-54.544-27.704-82.452 20.838-31.015 44.445-54.279 69.946-72.237" style="fill:#fff;fill-rule:evenodd"></path><path d="M131.574 233.752h14.928c36.294-29.385 99.82-37.043 147.656-37.402 48.845-.367 126.015 10.837 153.11 37.402h16.991v90.272h-60.88V274.58c-27.848-40.022-71.72-53.558-106.987-53.667-33.384-.104-80.311 15.335-103.937 50.953v52.158h-60.88zM419.508 363.275h-131.5v9.377H176.443c0 20.664 26.927 26.758 56.01 30.244 30.958 3.711 64.525 9.05 63.599 36.489-.516 15.293-11.873 18.667-17.77 21.116h-64.767v20.284h171.37v-20.284h-11.892c-3.69-1.75-9.31-6.16-13.003-11.862s-5.456-12.697-5.631-19.615c.698-11.785 3.522-20.419 10.331-27.127 15.928-15.694 32.145-17.464 43.297-18.338h11.521zM124.429 534.22v-8.66h19.881v17.758c-3.801 2.59-7.167 4.364-10.096 5.295-2.928.94-6.4 1.406-10.416 1.406-4.946 0-8.97-.844-12.084-2.531-3.122-1.678-5.537-4.19-7.245-7.526-1.716-3.336-2.58-7.157-2.58-11.473 0-4.549.942-8.505 2.813-11.87 1.882-3.356 4.626-5.907 8.244-7.652 2.822-1.349 6.624-2.018 11.396-2.018q6.895 0 10.328 1.251c2.28.834 4.17 2.124 5.683 3.88 1.503 1.745 2.638 3.966 3.395 6.662l-12.414 2.211c-.514-1.57-1.387-2.773-2.61-3.607-1.211-.834-2.773-1.251-4.664-1.251q-4.233 0-6.75 2.938c-1.678 1.969-2.522 5.063-2.522 9.31 0 4.51.854 7.73 2.551 9.66 1.688 1.93 4.054 2.9 7.09 2.9 1.435 0 2.812-.213 4.112-.63 1.31-.417 2.812-1.125 4.49-2.124v-3.928zM155.036 549.311v-41.654h21.453c3.976 0 7.021.34 9.116 1.028 2.105.68 3.802 1.94 5.092 3.792 1.29 1.843 1.93 4.093 1.93 6.74 0 2.319-.495 4.307-1.474 5.984-.99 1.678-2.347 3.036-4.064 4.083-1.105.66-2.609 1.213-4.52 1.64 1.533.513 2.648 1.028 3.356 1.542.466.339 1.155 1.066 2.056 2.182.902 1.125 1.504 1.978 1.805 2.59l6.226 12.073h-14.548l-6.876-12.733c-.873-1.64-1.649-2.716-2.337-3.21-.922-.64-1.979-.96-3.152-.96h-1.135v16.903zm12.928-24.779h5.431c.582 0 1.717-.184 3.404-.562a3.46 3.46 0 0 0 2.095-1.31 3.87 3.87 0 0 0 .805-2.414c0-1.348-.427-2.376-1.28-3.094-.854-.728-2.454-1.086-4.8-1.086h-5.655zM203.014 507.657h34.487v8.894h-21.588v6.624h20.027v8.495h-20.027v8.205h22.219v9.436h-35.118zM245.629 507.657h39.123v9.023H271.62v32.631h-12.87v-32.63H245.63zM292.985 507.657h12.026l15.682 23.044v-23.044h12.133v41.654h-12.133l-15.604-22.868v22.868h-12.104zM369.34 542.435h-14.664l-2.017 6.876h-13.15l15.652-41.654h14.034l15.663 41.654h-13.471zm-2.696-9.01-4.607-14.973-4.577 14.974zM413.406 507.657h31.83v8.952h-18.902v7.274h16.138v8.408h-16.138v17.02h-12.928zM483.654 532.291l11.28 3.414q-1.135 4.74-3.58 7.923a15.5 15.5 0 0 1-6.07 4.8c-2.415 1.087-5.49 1.62-9.214 1.62-4.529 0-8.234-.659-11.095-1.968-2.87-1.32-5.353-3.637-7.439-6.954-2.075-3.317-3.122-7.555-3.122-12.724 0-6.896 1.833-12.2 5.499-15.896 3.666-3.704 8.854-5.557 15.556-5.557 5.247 0 9.368 1.057 12.375 3.181q4.51 3.186 6.692 9.776l-11.367 2.531q-.596-1.905-1.25-2.793a7.5 7.5 0 0 0-2.639-2.27c-1.047-.532-2.211-.794-3.5-.794-2.91 0-5.15 1.173-6.702 3.52-1.174 1.746-1.765 4.48-1.765 8.215 0 4.626.708 7.787 2.104 9.504 1.406 1.717 3.375 2.57 5.906 2.57 2.464 0 4.326-.689 5.587-2.076q1.888-2.065 2.744-6.022M253.006 621.7h-35.681c.408-3.528 1.654-6.838 3.727-9.947q3.11-4.652 11.661-10.993c3.489-2.582 5.711-4.555 6.688-5.89q1.465-2.019 1.465-3.828c0-1.306-.488-2.422-1.445-3.349-.967-.917-2.183-1.385-3.638-1.385-1.525 0-2.76.478-3.727 1.435q-1.435 1.42-1.944 5.053l-11.91-.967q.702-5.02 2.571-7.844c1.246-1.873 3-3.318 5.273-4.315 2.262-1.007 5.401-1.505 9.418-1.505 4.176 0 7.435.478 9.768 1.425 2.322.957 4.156 2.422 5.481 4.395 1.336 1.984 2.004 4.197 2.004 6.648 0 2.612-.768 5.103-2.293 7.475-1.525 2.373-4.305 4.984-8.332 7.824-2.402 1.655-3.997 2.811-4.804 3.479-.807.657-1.764 1.525-2.85 2.591h18.568zM259.285 600.122c0-8.133 1.465-13.834 4.395-17.083 2.93-3.25 7.395-4.874 13.385-4.874 2.88 0 5.253.349 7.096 1.066 1.854.708 3.36 1.635 4.525 2.771s2.093 2.333 2.761 3.588c.678 1.256 1.216 2.721 1.625 4.395q1.196 4.8 1.196 9.987c0 7.774-1.316 13.455-3.947 17.053-2.621 3.608-7.146 5.402-13.575 5.402-3.598 0-6.508-.568-8.73-1.724-2.223-1.146-4.037-2.83-5.462-5.043-1.027-1.585-1.834-3.738-2.402-6.469-.579-2.74-.867-5.76-.867-9.07m11.8.03c0 5.451.479 9.169 1.445 11.162.957 2.004 2.363 3 4.186 3 1.206 0 2.253-.428 3.14-1.275.887-.848 1.535-2.183 1.953-4.007.419-1.834.628-4.684.628-8.562 0-5.68-.478-9.508-1.445-11.461q-1.435-2.93-4.335-2.93c-1.964 0-3.389.996-4.256 2.99-.877 1.993-1.316 5.69-1.316 11.083M300.966 600.122c0-8.133 1.465-13.834 4.395-17.083 2.93-3.25 7.395-4.874 13.385-4.874 2.88 0 5.253.349 7.096 1.066 1.854.708 3.36 1.635 4.525 2.771 1.167 1.136 2.093 2.333 2.761 3.588.678 1.256 1.216 2.721 1.625 4.395q1.196 4.8 1.196 9.987c0 7.774-1.316 13.455-3.947 17.053-2.621 3.608-7.146 5.402-13.575 5.402-3.598 0-6.508-.568-8.73-1.724-2.223-1.146-4.037-2.83-5.462-5.043-1.027-1.585-1.834-3.738-2.402-6.469-.578-2.74-.867-5.76-.867-9.07m11.8.03q-.002 8.174 1.445 11.162c.957 2.004 2.363 3 4.186 3 1.206 0 2.253-.428 3.14-1.275.887-.848 1.535-2.183 1.953-4.007.42-1.834.628-4.684.628-8.562 0-5.68-.478-9.508-1.445-11.461q-1.435-2.93-4.335-2.93c-1.964 0-3.389.996-4.256 2.99-.877 1.993-1.316 5.69-1.316 11.083M350.4 598.687c-1.874-.987-3.229-2.104-4.086-3.33-1.166-1.674-1.754-3.597-1.754-5.78q0-5.367 5.053-8.79c2.621-1.745 6.1-2.622 10.425-2.622 5.721 0 9.947 1.086 12.688 3.27 2.73 2.182 4.096 4.923 4.096 8.232 0 1.923-.538 3.727-1.635 5.402q-1.226 1.869-3.857 3.618c2.323 1.116 4.047 2.58 5.183 4.415 1.146 1.824 1.714 3.847 1.714 6.07 0 2.143-.488 4.146-1.475 6q-1.479 2.795-3.618 4.305c-1.435 1.017-3.22 1.764-5.342 2.233-2.133.478-4.405.717-6.827.717-4.535 0-7.993-.528-10.395-1.604-2.392-1.067-4.206-2.651-5.452-4.735-1.246-2.073-1.874-4.405-1.874-6.976 0-2.512.588-4.635 1.754-6.379s2.97-3.09 5.402-4.046m5.342-8.403c0 1.476.459 2.672 1.386 3.579.927.897 2.153 1.355 3.697 1.355 1.356 0 2.482-.448 3.36-1.345.876-.897 1.315-2.054 1.315-3.479 0-1.475-.459-2.68-1.376-3.598-.916-.927-2.083-1.395-3.508-1.395-1.435 0-2.611.458-3.518 1.365-.907.897-1.356 2.073-1.356 3.518m-.638 18.42q-.002 2.84 1.715 4.634c1.156 1.196 2.462 1.794 3.947 1.794q2.122 0 3.827-1.824c1.126-1.216 1.694-2.761 1.694-4.635 0-1.884-.578-3.428-1.714-4.634-1.136-1.216-2.452-1.814-3.957-1.814-1.475 0-2.77.578-3.867 1.754q-1.644 1.749-1.645 4.724" style="fill:#000200;fill-rule:evenodd"></path><path d="M263.375 253.245c-14.167 14.365-19.895 29.468-19.57 45.861.433 21.857 18.98 47.293 49.221 47.047 29.817-.243 48.132-23.789 48.628-46.256.436-19.73-9.49-37.038-17.988-45.861l6.918-5.93-9.093-11.07-15.96 13.15c12.91 10.719 22.804 29.218 22.398 48.748-.198 9.517-2.89 17.388-10.137 24.168-7.55 7.063-18.171 9.405-25.749 9.177-7.021-.211-17.477-2.065-24.58-9.749-4.916-5.316-9.338-13.626-9.646-24.863-.53-19.302 11.373-37.482 23.652-47.71l-15.13-12.921-8.895 11.465zm23.07 84.095c3.185-.464 5.484-.789 8.055-.643 2.192.125 3.141 1.84 2.142 5.436-.996.05-2.05-.319-2.972-.257-2.358.159-4.465.665-7.01.793zm-14.134-6.606-2.998 4.711 8.352 4.176 2.356-4.39zm-5.996-2.248-2.89 3.212-6.211-5.996 3.854-2.463zm-12.42-19.916 2.998 7.174-4.283 1.713-3.427-8.352zm-3.641-22.593 5.782 3.426-2.141 9.316-6.104-1.07zm7.281-17.025 4.176 2.891c-1.174 1.476-2.155 3.76-3.178 4.706-2.614 2.415-4.171 2.124-6.352.97zm58.461 68.216-10.034 3.582c-1.624-4.151.531-5.692 2.6-6.556 4.435-1.85 5.899-.225 7.434 2.974m3.394-8.94 2.693 3.608 5.716-5.6c1.088-1.066-2.802-2.866-3.954-1.868zm13.903-10.633 3.13-8.649c.051-.86-4.072-1.474-5.535 1.852-.364.827-.785 1.729-1.01 2.573-.669 2.528 1.278 4.202 3.415 4.224m1.861-31.38-4.792 3.129 1.844 9.117 6.104-1.07zm-6.094-16.669c-1.095-.126-4.367 1.235-4.077 2.792 1.076 1.971 2.629 4.168 3.376 5.399.487.803 5.853.341 5.56-.219zM137.258 487.688c-1.246-10.411-4.928-17.869-8.722-23.546-2.127-3.184-3.804-5.428-6.04-7.774-2.622-2.751-4.67-4.805-5.423-7.024-2.02-5.957 2.036-6.59 1.603-10.385-3.36 1.647-5.337 10.512-11.465 9.194.508 2.85-1.39 4.577-2.878 4.339-2.082-.333-4.225-.361-7.895-10.076-.006 3.073-1.784 4.407-3.13 4.842-1.356.438-5.156-1.278-4.48-4.837-3.876 1.674-4.896-2.913-4.942-5.932-1.492 2.185-1.366 5.077.245 8.649 3.537 2.93 7.527 5.925 11.828 8.531 4.923 2.983 9.937 5.196 15.3 7.502-.169-.3-.315-.553-.384-.677a45 45 0 0 1-1.297-2.612c-.48-1.029-.897-2.102-1.33-3.153-.182-.444-.428-1.222-.563-1.674-.225-.75.903-.926 1.31-.696.898.509 1.726 1.221 2.445 1.958 1.212 1.24 2.571 2.967 3.355 4.094.82 1.179 1.822 2.394 2.921 3.325.142.12.598.478 1.007.716.725.422.982-.077 1.189-.808.337-1.19.252-2.502.167-3.835-.058-.907 1.188-1.459 1.578-.104.113.39.306 1.005.439 1.347 1.081 2.79 3.395 6.123 5.088 8.334 1.732 2.05 7.775 9.51 9.127 20.779.36-.025.707-.167.947-.477m-52.948-42.05c.538 4.02 3.748 9.693 8.075 12.99.551.42.047 1.146-.949 1.364-1.99.434-2.998 1.01-3.795 2.196 3.337-1.465 4.332-.396 2.991 1.425-1.118 1.52-3.7 3.926-5.716 7.047-.79 1.22-1.454 2.354-1.822 3.982 1.739-1.024 2.063-1.992 3.267-3.128 2.3-2.17 4.83-4.165 7.234-5.698 3.442-2.195 6.407-2.61 8.1-2.208 3.024.72 1.306 3.83-.317 6.587 3.955-1.615 7.15-3.362 9.29-5.142l.016.003c.763-.772 1.345-1.532 1.391-2.115.01-.141-.139-.485-.335-.875-10.719-4.345-19.205-8.4-27.43-16.428zm27.496 19.64c14.04 2.91 20.79 10.036 22.981 22.114.122.43.78.785 1.426.777-2.517-10.51-5.11-14.402-7.283-17.282-1.216-1.613-2.616-3.012-3.769-4.68-1.555-2.25-3.21-5.005-4.113-7.33-.01 1.091-.168 3.852-1.15 4.567-1.607 1.17-5.188-3.493-5.883-4.49-.966-1.39-2.92-3.829-4.22-4.866-.141-.113-.854-.735-1.159-.926.049.33.426 1.047.491 1.206.427 1.036.837 2.096 1.312 3.111.408.872.806 1.711 1.27 2.558.368.671 1.371 2.247 1.313 2.979-.066.84-.617 1.617-1.216 2.262" style="fill:#000200;fill-rule:evenodd"></path><path d="M81.217 437.182c-.858 3.03-.132 6.161 1.088 8.697.163 2.965 1.712 5.534 3.558 8.796-5.664-4.177-13.746-11.845-9.885-29.65.074-.196 1.21-1.011 2.295-1.904 1.084-.894 2.363-2.49 2.984-2.78.657-.308 1.79-.133 2.135-.157-1.431 1.541-3.058 2.707-4.138 4.124-.83 1.087-.958 1.899-.794 2.533.184.709 1.166 1.04 2.56.95-1.517 3.427-1.952 5.526-1.916 7.153.028 1.252.746 1.692 2.113 2.238M143.398 487.688c1.246-10.411 4.928-17.869 8.72-23.546 2.128-3.184 3.805-5.428 6.04-7.774 2.623-2.751 4.671-4.805 5.424-7.024 2.02-5.957-2.036-6.59-1.603-10.385 3.36 1.647 5.337 10.512 11.465 9.194-.508 2.85 1.39 4.577 2.878 4.339 2.083-.333 4.225-.361 7.896-10.076.006 3.073 1.783 4.407 3.13 4.842 1.355.438 5.156-1.278 4.48-4.837 3.875 1.674 4.895-2.913 4.941-5.932 1.492 2.185 1.366 5.077-.244 8.649-3.538 2.93-7.527 5.925-11.829 8.531-4.923 2.983-9.936 5.196-15.3 7.502.169-.3.316-.553.384-.677.474-.865.88-1.722 1.297-2.612.481-1.029.897-2.102 1.33-3.153.182-.444.428-1.222.563-1.674.225-.75-.903-.926-1.31-.696-.898.509-1.725 1.221-2.445 1.958-1.212 1.24-2.57 2.967-3.355 4.094-.82 1.179-1.822 2.394-2.921 3.325-.142.12-.598.478-1.006.716-.726.422-.983-.077-1.19-.808-.336-1.19-.252-2.502-.167-3.835.058-.907-1.188-1.459-1.578-.104a20 20 0 0 1-.439 1.347c-1.08 2.79-3.395 6.123-5.088 8.334-1.731 2.05-7.775 9.51-9.127 20.779-.36-.025-.707-.167-.946-.477m52.947-42.05c-.538 4.02-3.748 9.693-8.075 12.99-.55.42-.047 1.146.95 1.364 1.988.434 2.997 1.01 3.794 2.196-3.337-1.465-4.332-.396-2.991 1.425 1.118 1.52 3.7 3.926 5.716 7.047.79 1.22 1.455 2.354 1.822 3.982-1.739-1.024-2.063-1.992-3.267-3.128-2.3-2.17-4.83-4.165-7.234-5.698-3.442-2.195-6.407-2.61-8.1-2.208-3.024.72-1.306 3.83.317 6.587-3.955-1.615-7.15-3.362-9.29-5.142l-.016.003c-.763-.772-1.345-1.532-1.391-2.115-.009-.141.14-.485.335-.875 10.719-4.345 19.205-8.4 27.43-16.428zm-27.496 19.64c-14.04 2.91-20.789 10.036-22.98 22.114-.123.43-.78.785-1.427.777 2.517-10.51 5.111-14.402 7.283-17.282 1.217-1.613 2.616-3.012 3.769-4.68 1.555-2.25 3.21-5.005 4.114-7.33.009 1.091.167 3.852 1.149 4.567 1.607 1.17 5.189-3.493 5.883-4.49.967-1.39 2.92-3.829 4.22-4.866.141-.113.854-.735 1.16-.926-.05.33-.427 1.047-.492 1.206-.427 1.036-.837 2.096-1.312 3.111a44 44 0 0 1-1.27 2.558c-.368.671-1.371 2.247-1.313 2.979.066.84.618 1.617 1.216 2.262" style="fill:#000200;fill-rule:evenodd"></path><path d="M199.439 437.182c.857 3.03.132 6.161-1.088 8.697-.164 2.965-1.713 5.534-3.558 8.796 5.663-4.177 13.746-11.845 9.884-29.65-.073-.196-1.21-1.011-2.294-1.904-1.085-.894-2.364-2.49-2.985-2.78-.657-.308-1.79-.133-2.135-.157 1.431 1.541 3.058 2.707 4.139 4.124.829 1.087.957 1.899.793 2.533-.183.709-1.165 1.04-2.559.95 1.516 3.427 1.951 5.526 1.915 7.153-.028 1.252-.745 1.692-2.112 2.238M140.235 453.422c-.709.842-1.666 3.166-1.682 4.348-.016 1.254.729 2.466 1.731 2.378 1.122-.098 1.818-.955 1.732-2.377-.073-1.187-.825-3.408-1.78-4.349M140.046 443.393c-.585.637-1.393 2.395-1.343 3.287.036.65.505 1.451 1.334 1.431.975-.023 1.352-.703 1.33-1.48-.024-.898-.532-2.526-1.32-3.238M138.438 439.084c-.774.727-1.21 2.093-1.226 2.835-.01.54.329 1.158 1.02 1.19.808.04 1.17-.585 1.201-1.231.037-.747-.283-2.003-.995-2.794M135.402 438.66c-.925.536-1.723 1.528-1.922 2.253-.144.529.066 1.42.745 1.524.793.121 1.15-.37 1.34-1 .222-.728.152-1.949-.163-2.776M131.453 438.377c-1.002.37-1.808.916-2.127 1.597-.232.496-.176 1.41.476 1.628.76.253 1.195-.17 1.49-.758.342-.68.332-1.598.161-2.467M127.793 438.156c-1.003.29-1.808.717-2.127 1.249-.232.387-.177 1.102.476 1.272.76.198 1.195-.133 1.49-.593.342-.53.332-1.249.161-1.928M135.306 453.422c-1.325 1.337-2.283 3.116-2.251 4.348.032 1.246.871 2.337 1.627 2.378 1.277.07 1.85-1.055 1.885-2.476.03-1.186-.484-3.011-1.261-4.25M136.53 443.19c-1.393.775-2.271 1.911-2.377 2.802-.108.902.384 1.678 1.172 1.738.94.07 1.445-.42 1.62-1.441.145-.852-.084-2.075-.416-3.1M132.866 442.42c-1.047.327-2.106.806-2.498 1.753-.349.843-.115 1.664.356 1.94.805.47 1.696-.173 1.92-.865.145-.45.388-1.537.222-2.828M128.884 441.677c-1.191.541-2.017 1.037-2.415 1.93-.354.794-.057 1.414.412 1.622.792.35 1.552-.037 1.843-.843.278-.769.33-1.727.16-2.709M124.757 440.547c-.526 1.074-1.071 1.455-1.274 2.42-.097.468.232 1.296.785 1.373.616.086 1.038-.407 1.206-1.262.082-.42-.16-1.795-.717-2.531M125.014 445.816c-.233 1.15-.616 2.085-.53 3.058.076.866.736 1.264 1.247 1.217.863-.079 1.24-.786 1.103-1.632-.13-.807-.7-1.917-1.82-2.644M138.256 447.963c-1.478 1.241-2.232 2.63-2.204 3.727.028 1.11.776 1.766 1.45 1.802 1.137.061 1.796-.624 1.828-1.89.026-1.057-.382-2.535-1.074-3.639M134.09 447.616c-1.194.895-2.493 2.432-2.568 3.529-.077 1.11.626 1.71 1.28 1.802 1.132.16 1.854-.624 2.006-1.89.126-1.056-.278-2.337-.718-3.44M128.912 451.778c.06 1.818-.192 3.305.294 4.291.49.998 1.505.986 2.013.767.862-.372 1.14-1.422.636-2.593-.421-.976-1.167-1.93-2.943-2.465M130.326 446.495c-1.298.478-2.635 1.076-2.978 2.096-.347 1.031.159 1.873.799 2.119 1.081.414 1.973-.33 2.21-1.216.204-.76.124-1.81-.031-3M142.257 439.084c.774.727 1.211 2.093 1.226 2.835.011.54-.329 1.158-1.02 1.19-.808.04-1.17-.585-1.201-1.231-.037-.747.283-2.003.995-2.794M145.293 438.66c.925.536 1.723 1.528 1.922 2.253.145.529-.065 1.42-.745 1.524-.793.121-1.15-.37-1.34-1-.222-.728-.152-1.949.163-2.776M149.242 438.377c1.003.37 1.808.916 2.127 1.597.232.496.177 1.41-.476 1.628-.76.253-1.195-.17-1.49-.758-.342-.68-.332-1.598-.161-2.467M152.902 438.156c1.003.29 1.808.717 2.127 1.249.233.387.177 1.102-.475 1.272-.761.198-1.196-.133-1.491-.593-.341-.53-.331-1.249-.161-1.928M145.39 453.422c1.324 1.337 2.282 3.116 2.25 4.348-.032 1.246-.871 2.337-1.627 2.378-1.276.07-1.849-1.055-1.884-2.476-.03-1.186.484-3.011 1.26-4.25M144.166 443.19c1.392.775 2.27 1.911 2.376 2.802.108.902-.384 1.678-1.172 1.738-.94.07-1.445-.42-1.62-1.441-.145-.852.084-2.075.416-3.1M147.829 442.42c1.047.327 2.106.806 2.498 1.753.349.843.115 1.664-.356 1.94-.805.47-1.696-.173-1.92-.865-.145-.45-.387-1.537-.222-2.828M151.812 441.677c1.19.541 2.017 1.037 2.415 1.93.354.794.057 1.414-.413 1.622-.792.35-1.552-.037-1.843-.843-.278-.769-.33-1.727-.16-2.709M155.938 440.547c.526 1.074 1.071 1.455 1.274 2.42.097.468-.232 1.296-.785 1.373-.616.086-1.038-.407-1.206-1.262-.082-.42.16-1.795.717-2.531M155.681 445.816c.233 1.15.616 2.085.53 3.058-.076.866-.736 1.264-1.247 1.217-.863-.079-1.24-.786-1.103-1.632.13-.807.7-1.917 1.82-2.644M142.44 447.963c1.477 1.241 2.231 2.63 2.203 3.727-.028 1.11-.776 1.766-1.45 1.802-1.137.061-1.795-.624-1.827-1.89-.027-1.057.381-2.535 1.073-3.639M146.605 447.616c1.194.895 2.493 2.432 2.568 3.529.077 1.11-.626 1.71-1.28 1.802-1.132.16-1.854-.624-2.006-1.89-.126-1.056.278-2.337.718-3.44M151.783 451.778c-.06 1.818.192 3.305-.294 4.291-.49.998-1.505.986-2.013.767-.862-.372-1.14-1.422-.636-2.593.421-.976 1.167-1.93 2.943-2.465M150.37 446.495c1.298.478 2.634 1.076 2.977 2.096.347 1.031-.159 1.873-.798 2.119-1.082.414-1.974-.33-2.21-1.216-.204-.76-.125-1.81.03-3M139.551 487.648c.003.46 1.378.461 1.384 0l.198-16.01c.024-1.969.075-4.41 1.09-6.577.608-1.3 1.66-2.533 2.995-3.417-2.607-.842-3.972-.218-5.19-.206-1.564.016-3.007-.58-5.097.156 1.545 1.109 2.623 2.485 3.302 3.989 1.059 2.345 1.219 4.931 1.219 6.75.033 5.317.067 9.999.1 15.315M139.926 437.578c-.516-5.068-1.14-10.578-1.285-18.087-.022-1.135 3.53-1.235 3.558-.1.13 5.321-.685 10.846-1.35 18.134-.062.675-.898.303-.923.053M136.343 437.38c-1.503-5.861-3.713-11.372-4.846-16.205-.259-1.104 3.196-1.816 3.36-.695.723 4.925 1.787 9.757 2.21 16.847.04.675-.662.295-.724.053M133.01 437.442c-2.308-4.558-4.736-8.16-7.552-13.473-.488-.92 3.074-1.826 3.437-.883 1.728 4.5 2.958 8.551 4.945 14.098.202.564-.728.461-.83.258M128.989 437.31c-3.04-3.642-5.819-5.753-9.488-10-.635-.734 2.706-2.417 3.18-1.66 2.253 3.596 4.548 7.08 7.045 11.394.262.453-.602.428-.737.266M125.13 436.121c-2.543-1.958-5.324-1.212-7.904-3.675-.74-.708-.518-3.257.327-2.588 3.538 2.802 5.82 3.17 8.316 5.997.384.436-.55.41-.738.266M144.505 437.38c1.504-5.861 3.714-11.372 4.847-16.205.258-1.104-3.196-1.816-3.36-.695-.723 4.925-1.788 9.757-2.211 16.847-.04.675.662.295.724.053M147.84 437.442c2.307-4.558 4.735-8.16 7.55-13.473.489-.92-3.074-1.826-3.436-.883-1.729 4.5-2.959 8.551-4.945 14.098-.202.564.728.461.83.258M151.86 437.31c3.04-3.642 5.818-5.967 9.487-10.213.635-.736-2.598-2.525-3.072-1.768-2.254 3.595-4.655 7.402-7.153 11.715-.262.453.603.428.738.266M155.718 436.121c2.543-1.958 5.325-1.212 7.904-3.675.741-.708.519-3.257-.326-2.588-3.538 2.802-5.82 3.17-8.316 5.997-.384.436.55.41.738.266M137.778 416.249c-.487-.32-1.561-.223-1.958.321-1.773 2.429 4.526 1.359 1.958-.321M137.91 412.642c-.54-.417-1.729-.29-2.168.42-1.962 3.175 5.01 1.777 2.168-.42M141.555 414.639c-.457-.36-1.536-.36-1.98.147-1.98 2.262 4.389 1.753 1.98-.147M134.054 415.026c-.537-.226-1.576.065-1.867.672-1.301 2.71 4.698.512 1.867-.672" style="fill:#000200;fill-rule:evenodd"></path><path d="M133.659 412.946c-.537-.226-1.576.065-1.867.672-1.302 2.71 4.698.512 1.867-.672M131.083 417.61c-.676-.096-1.77.543-1.92 1.32-.671 3.466 5.488-.817 1.92-1.32M126.6 417.41c-.577-.081-1.508.463-1.636 1.124-.572 2.952 4.674-.695 1.635-1.123M125.547 420.973c-.578-.075-1.503.48-1.623 1.142-.559 3.067 4.55-.763 1.623-1.142M121.936 421.617c-.578-.075-1.503.48-1.623 1.142-.559 3.067 4.55-.763 1.623-1.142" style="fill:#000200;fill-rule:evenodd"></path><path d="M119.067 424.287c-.494.005-1.207.582-1.23 1.153-.105 2.647 3.737-1.181 1.23-1.153M129.366 415.124c-.453-.064-1.308.487-1.408 1.006-.451 2.337 3.831-.664 1.408-1.006M143.638 416.249c.487-.32 1.561-.223 1.958.321 1.773 2.429-4.526 1.359-1.958-.321M143.507 412.96c.538-.418 1.728-.292 2.167.42 1.962 3.174-5.01 1.775-2.168-.42M139.614 410.974c.457-.361 1.536-.36 1.979.147 1.98 2.262-4.388 1.753-1.979-.147M147.362 415.342c.537-.225 1.576.066 1.867.673 1.301 2.71-4.698.512-1.867-.673M147.757 412.946c.537-.226 1.576.065 1.867.672 1.302 2.71-4.697.512-1.867-.672" style="fill:#000200;fill-rule:evenodd" data-source="https://football-logos.cc"></path><path d="M149.7 417.294c.676-.096 1.77.543 1.92 1.319.67 3.466-5.489-.817-1.92-1.32M154.183 417.727c.577-.081 1.508.463 1.636 1.124.572 2.952-4.674-.695-1.636-1.124M155.553 420.657c.577-.075 1.502.48 1.623 1.142.558 3.066-4.55-.763-1.623-1.142M159.164 420.984c.577-.075 1.502.48 1.623 1.142.558 3.067-4.55-.763-1.623-1.142M161.715 423.97c.495.005 1.208.582 1.23 1.154.106 2.646-3.736-1.182-1.23-1.153M151.417 415.44c.452-.063 1.307.488 1.408 1.007.45 2.337-3.832-.664-1.408-1.006M455.313 487.688c-1.246-10.411-4.928-17.869-8.721-23.546-2.128-3.184-3.805-5.428-6.04-7.774-2.622-2.751-4.67-4.805-5.424-7.024-2.02-5.957 2.036-6.59 1.604-10.385-3.36 1.647-5.338 10.512-11.466 9.194.508 2.85-1.39 4.577-2.878 4.339-2.082-.333-4.224-.361-7.895-10.076-.006 3.073-1.783 4.407-3.13 4.842-1.356.438-5.156-1.278-4.48-4.837-3.876 1.674-4.895-2.913-4.942-5.932-1.492 2.185-1.366 5.077.245 8.649 3.537 2.93 7.527 5.925 11.828 8.531 4.923 2.983 9.937 5.196 15.3 7.502-.169-.3-.315-.553-.383-.677a45 45 0 0 1-1.298-2.612c-.48-1.029-.897-2.102-1.33-3.153-.182-.444-.428-1.222-.563-1.674-.224-.75.903-.926 1.31-.696.898.509 1.726 1.221 2.445 1.958 1.212 1.24 2.571 2.967 3.355 4.094.821 1.179 1.822 2.394 2.922 3.325.141.12.597.478 1.006.716.725.422.982-.077 1.189-.808.337-1.19.252-2.502.167-3.835-.058-.907 1.189-1.459 1.579-.104.112.39.306 1.005.438 1.347 1.081 2.79 3.395 6.123 5.088 8.334 1.732 2.05 7.775 9.51 9.127 20.779.36-.025.707-.167.947-.477m-52.948-42.05c.538 4.02 3.749 9.693 8.075 12.99.551.42.048 1.146-.949 1.364-1.99.434-2.998 1.01-3.795 2.196 3.337-1.465 4.332-.396 2.991 1.425-1.118 1.52-3.7 3.926-5.716 7.047-.79 1.22-1.454 2.354-1.821 3.982 1.738-1.024 2.062-1.992 3.266-3.128 2.3-2.17 4.83-4.165 7.234-5.698 3.442-2.195 6.407-2.61 8.101-2.208 3.023.72 1.305 3.83-.317 6.587 3.954-1.615 7.15-3.362 9.29-5.142l.015.003c.763-.772 1.345-1.532 1.391-2.115.01-.141-.139-.485-.335-.875-10.718-4.345-19.205-8.4-27.43-16.428zm27.496 19.64c14.04 2.91 20.79 10.036 22.981 22.114.122.43.78.785 1.426.777-2.517-10.51-5.11-14.402-7.283-17.282-1.216-1.613-2.615-3.012-3.768-4.68-1.556-2.25-3.21-5.005-4.114-7.33-.008 1.091-.168 3.852-1.15 4.567-1.606 1.17-5.188-3.493-5.883-4.49-.966-1.39-2.92-3.829-4.22-4.866-.14-.113-.853-.735-1.159-.926.049.33.426 1.047.492 1.206.426 1.036.837 2.096 1.311 3.111.408.872.806 1.711 1.27 2.558.369.671 1.371 2.247 1.314 2.979-.067.84-.618 1.617-1.217 2.262" style="fill:#000200;fill-rule:evenodd"></path><path d="M399.272 437.182c-.858 3.03-.133 6.161 1.088 8.697.164 2.965 1.712 5.534 3.558 8.796-5.664-4.177-13.746-11.845-9.885-29.65.074-.196 1.21-1.011 2.295-1.904 1.084-.894 2.363-2.49 2.984-2.78.657-.308 1.79-.133 2.135-.157-1.43 1.541-3.058 2.707-4.138 4.124-.83 1.087-.958 1.899-.794 2.533.184.709 1.166 1.04 2.56.95-1.517 3.427-1.952 5.526-1.916 7.153.028 1.252.746 1.692 2.113 2.238M461.453 487.688c1.246-10.411 4.928-17.869 8.72-23.546 2.128-3.184 3.805-5.428 6.04-7.774 2.623-2.751 4.671-4.805 5.424-7.024 2.02-5.957-2.036-6.59-1.603-10.385 3.36 1.647 5.337 10.512 11.465 9.194-.508 2.85 1.39 4.577 2.878 4.339 2.083-.333 4.225-.361 7.896-10.076.006 3.073 1.783 4.407 3.13 4.842 1.355.438 5.156-1.278 4.48-4.837 3.876 1.674 4.895-2.913 4.942-5.932 1.49 2.185 1.365 5.077-.245 8.649-3.538 2.93-7.527 5.925-11.829 8.531-4.923 2.983-9.936 5.196-15.3 7.502.169-.3.316-.553.384-.677a45 45 0 0 0 1.297-2.612c.481-1.029.897-2.102 1.33-3.153.182-.444.428-1.222.563-1.674.225-.75-.903-.926-1.31-.696-.898.509-1.725 1.221-2.445 1.958-1.212 1.24-2.57 2.967-3.355 4.094-.82 1.179-1.822 2.394-2.921 3.325-.142.12-.598.478-1.006.716-.726.422-.983-.077-1.19-.808-.336-1.19-.252-2.502-.167-3.835.058-.907-1.188-1.459-1.578-.104-.113.39-.306 1.005-.439 1.347-1.08 2.79-3.395 6.123-5.088 8.334-1.731 2.05-7.775 9.51-9.127 20.779-.36-.025-.707-.167-.946-.477m52.947-42.05c-.538 4.02-3.748 9.693-8.075 12.99-.55.42-.047 1.146.95 1.364 1.989.434 2.997 1.01 3.794 2.196-3.337-1.465-4.332-.396-2.991 1.425 1.118 1.52 3.7 3.926 5.717 7.047.789 1.22 1.454 2.354 1.82 3.982-1.737-1.024-2.061-1.992-3.266-3.128-2.3-2.17-4.83-4.165-7.234-5.698-3.442-2.195-6.407-2.61-8.1-2.208-3.024.72-1.306 3.83.317 6.587-3.955-1.615-7.15-3.362-9.29-5.142l-.016.003c-.762-.772-1.345-1.532-1.39-2.115-.01-.141.138-.485.335-.875 10.718-4.345 19.204-8.4 27.429-16.428zm-27.496 19.64c-14.04 2.91-20.789 10.036-22.98 22.114-.123.43-.78.785-1.427.777 2.517-10.51 5.111-14.402 7.283-17.282 1.217-1.613 2.616-3.012 3.769-4.68 1.555-2.25 3.21-5.005 4.114-7.33.009 1.091.167 3.852 1.149 4.567 1.607 1.17 5.189-3.493 5.883-4.49.967-1.39 2.92-3.829 4.22-4.866.141-.113.854-.735 1.16-.926-.05.33-.427 1.047-.492 1.206-.427 1.036-.837 2.096-1.312 3.111a44 44 0 0 1-1.27 2.558c-.368.671-1.371 2.247-1.313 2.979.066.84.618 1.617 1.216 2.262" style="fill:#000200;fill-rule:evenodd"></path><path d="M517.494 437.182c.857 3.03.132 6.161-1.088 8.697-.164 2.965-1.713 5.534-3.558 8.796 5.663-4.177 13.746-11.845 9.884-29.65-.073-.196-1.21-1.011-2.294-1.904-1.085-.894-2.364-2.49-2.985-2.78-.657-.308-1.789-.133-2.135-.157 1.431 1.541 3.058 2.707 4.138 4.124.83 1.087.958 1.899.794 2.533-.183.709-1.165 1.04-2.559.95 1.516 3.427 1.951 5.526 1.915 7.153-.028 1.252-.745 1.692-2.112 2.238M458.29 453.422c-.709.842-1.666 3.166-1.682 4.348-.016 1.254.729 2.466 1.732 2.378 1.12-.098 1.817-.955 1.73-2.377-.071-1.187-.824-3.408-1.78-4.349M458.101 443.393c-.585.637-1.393 2.395-1.343 3.287.036.65.505 1.451 1.335 1.431.974-.023 1.351-.703 1.33-1.48-.025-.898-.533-2.526-1.322-3.238M456.494 439.084c-.775.727-1.212 2.093-1.227 2.835-.01.54.329 1.158 1.02 1.19.808.04 1.17-.585 1.201-1.231.037-.747-.283-2.003-.995-2.794M453.457 438.66c-.925.536-1.723 1.528-1.922 2.253-.145.529.066 1.42.745 1.524.793.121 1.15-.37 1.34-1 .222-.728.152-1.949-.163-2.776M449.509 438.377c-1.003.37-1.809.916-2.128 1.597-.232.496-.176 1.41.476 1.628.76.253 1.195-.17 1.49-.758.342-.68.332-1.598.161-2.467M445.848 438.156c-1.003.29-1.808.717-2.127 1.249-.232.387-.176 1.102.476 1.272.76.198 1.195-.133 1.49-.593.342-.53.332-1.249.161-1.928M453.361 453.422c-1.325 1.337-2.283 3.116-2.251 4.348.032 1.246.871 2.337 1.627 2.378 1.277.07 1.85-1.055 1.885-2.476.03-1.186-.484-3.011-1.26-4.25M454.584 443.19c-1.392.775-2.27 1.911-2.376 2.802-.108.902.384 1.678 1.172 1.738.94.07 1.445-.42 1.62-1.441.145-.852-.084-2.075-.416-3.1M450.921 442.42c-1.047.327-2.106.806-2.498 1.753-.349.843-.115 1.664.356 1.94.805.47 1.696-.173 1.92-.865.145-.45.388-1.537.222-2.828M446.939 441.677c-1.19.541-2.017 1.037-2.415 1.93-.355.794-.057 1.414.412 1.622.792.35 1.552-.037 1.844-.843.277-.769.328-1.727.159-2.709M442.812 440.547c-.526 1.074-1.071 1.455-1.273 2.42-.098.468.23 1.296.784 1.373.616.086 1.038-.407 1.206-1.262.082-.42-.16-1.795-.717-2.531M443.069 445.816c-.233 1.15-.616 2.085-.53 3.058.076.866.737 1.264 1.247 1.217.863-.079 1.24-.786 1.103-1.632-.13-.807-.7-1.917-1.82-2.644M456.31 447.963c-1.477 1.241-2.231 2.63-2.203 3.727.028 1.11.777 1.766 1.45 1.802 1.137.061 1.796-.624 1.828-1.89.026-1.057-.382-2.535-1.074-3.639M452.145 447.616c-1.194.895-2.493 2.432-2.568 3.529-.077 1.11.627 1.71 1.28 1.802 1.132.16 1.854-.624 2.006-1.89.126-1.056-.278-2.337-.718-3.44M446.967 451.778c.06 1.818-.192 3.305.294 4.291.491.998 1.505.986 2.013.767.862-.372 1.14-1.422.636-2.593-.421-.976-1.167-1.93-2.943-2.465M448.38 446.495c-1.297.478-2.634 1.076-2.977 2.096-.347 1.031.159 1.873.799 2.119 1.081.414 1.973-.33 2.21-1.216.204-.76.124-1.81-.031-3M460.312 439.084c.774.727 1.211 2.093 1.226 2.835.011.54-.329 1.158-1.02 1.19-.808.04-1.17-.585-1.201-1.231-.036-.747.284-2.003.995-2.794M463.348 438.66c.925.536 1.723 1.528 1.922 2.253.145.529-.065 1.42-.745 1.524-.793.121-1.15-.37-1.34-1-.222-.728-.152-1.949.163-2.776M467.297 438.377c1.002.37 1.808.916 2.127 1.597.232.496.177 1.41-.476 1.628-.76.253-1.195-.17-1.49-.758-.342-.68-.332-1.598-.161-2.467M470.957 438.156c1.003.29 1.808.717 2.127 1.249.233.387.177 1.102-.475 1.272-.761.198-1.196-.133-1.491-.593-.341-.53-.331-1.249-.161-1.928M463.444 453.422c1.325 1.337 2.283 3.116 2.251 4.348-.032 1.246-.871 2.337-1.627 2.378-1.277.07-1.849-1.055-1.884-2.476-.03-1.186.484-3.011 1.26-4.25M462.22 443.19c1.394.775 2.271 1.911 2.378 2.802.107.902-.385 1.678-1.173 1.738-.94.07-1.444-.42-1.62-1.441-.145-.852.084-2.075.416-3.1M465.884 442.42c1.048.327 2.107.806 2.498 1.753.35.843.115 1.664-.356 1.94-.805.47-1.696-.173-1.92-.865-.145-.45-.387-1.537-.222-2.828M469.867 441.677c1.19.541 2.017 1.037 2.415 1.93.354.794.057 1.414-.412 1.622-.793.35-1.553-.037-1.844-.843-.278-.769-.33-1.727-.16-2.709M473.993 440.547c.526 1.074 1.071 1.455 1.274 2.42.098.468-.232 1.296-.785 1.373-.616.086-1.037-.407-1.206-1.262-.082-.42.16-1.795.717-2.531M473.736 445.816c.233 1.15.616 2.085.53 3.058-.076.866-.736 1.264-1.247 1.217-.863-.079-1.24-.786-1.103-1.632.13-.807.7-1.917 1.82-2.644M460.494 447.963c1.478 1.241 2.232 2.63 2.204 3.727-.028 1.11-.776 1.766-1.45 1.802-1.137.061-1.795-.624-1.827-1.89-.027-1.057.381-2.535 1.073-3.639M464.66 447.616c1.194.895 2.493 2.432 2.568 3.529.077 1.11-.626 1.71-1.28 1.802-1.132.16-1.854-.624-2.006-1.89-.126-1.056.278-2.337.718-3.44M469.838 451.778c-.06 1.818.192 3.305-.294 4.291-.49.998-1.505.986-2.013.767-.862-.372-1.14-1.422-.636-2.593.421-.976 1.167-1.93 2.943-2.465M468.425 446.495c1.298.478 2.634 1.076 2.977 2.096.347 1.031-.159 1.873-.798 2.119-1.082.414-1.974-.33-2.21-1.216-.204-.76-.125-1.81.03-3M457.606 487.648c.003.46 1.378.461 1.384 0l.198-16.01c.024-1.969.075-4.41 1.09-6.577.608-1.3 1.66-2.533 2.996-3.417-2.608-.842-3.973-.218-5.19-.206-1.565.016-3.008-.58-5.098.156 1.546 1.109 2.623 2.485 3.302 3.989 1.059 2.345 1.22 4.931 1.22 6.75.032 5.317.066 9.999.098 15.315M457.981 437.578c-.516-5.068-1.14-10.578-1.285-18.087-.022-1.135 3.53-1.235 3.558-.1.13 5.321-.685 10.846-1.35 18.134-.062.675-.898.303-.923.053M454.398 437.38c-1.503-5.861-3.713-11.372-4.846-16.205-.259-1.104 3.196-1.816 3.36-.695.723 4.925 1.787 9.757 2.21 16.847.04.675-.661.295-.724.053M451.064 437.442c-2.307-4.558-4.735-8.16-7.551-13.473-.488-.92 3.075-1.826 3.437-.883 1.728 4.5 2.958 8.551 4.945 14.098.202.564-.728.461-.83.258M447.044 437.31c-3.04-3.642-5.819-5.753-9.488-10-.635-.734 2.706-2.417 3.18-1.66 2.253 3.596 4.548 7.08 7.046 11.394.261.453-.603.428-.738.266M443.186 436.121c-2.544-1.958-5.325-1.212-7.905-3.675-.74-.708-.518-3.257.327-2.588 3.538 2.802 5.82 3.17 8.316 5.997.384.436-.55.41-.738.266M462.56 437.38c1.504-5.861 3.714-11.372 4.847-16.205.259-1.104-3.196-1.816-3.36-.695-.723 4.925-1.788 9.757-2.211 16.847-.04.675.662.295.724.053M465.894 437.442c2.308-4.558 4.736-8.16 7.552-13.473.487-.92-3.075-1.826-3.437-.883-1.729 4.5-2.958 8.551-4.945 14.098-.202.564.728.461.83.258M469.915 437.31c3.04-3.642 5.818-5.967 9.487-10.213.635-.736-2.598-2.525-3.072-1.768-2.254 3.595-4.655 7.402-7.153 11.715-.262.453.603.428.738.266M473.773 436.121c2.543-1.958 5.325-1.212 7.904-3.675.741-.708.518-3.257-.326-2.588-3.538 2.802-5.82 3.17-8.316 5.997-.384.436.55.41.738.266M455.833 416.249c-.487-.32-1.561-.223-1.958.321-1.773 2.429 4.526 1.359 1.958-.321M455.965 412.642c-.54-.417-1.729-.29-2.168.42-1.962 3.175 5.01 1.777 2.168-.42M459.61 414.639c-.457-.36-1.536-.36-1.98.147-1.98 2.262 4.39 1.753 1.98-.147M452.11 415.026c-.537-.226-1.576.065-1.868.672-1.301 2.71 4.698.512 1.868-.672" style="fill:#000200;fill-rule:evenodd"></path><path d="M451.714 412.946c-.537-.226-1.576.065-1.867.672-1.302 2.71 4.698.512 1.867-.672M449.139 417.61c-.677-.096-1.77.543-1.92 1.32-.672 3.466 5.487-.817 1.92-1.32M444.655 417.41c-.577-.081-1.508.463-1.636 1.124-.572 2.952 4.674-.695 1.635-1.123M443.602 420.973c-.578-.075-1.503.48-1.623 1.142-.558 3.067 4.55-.763 1.623-1.142M439.99 421.617c-.577-.075-1.502.48-1.622 1.142-.559 3.067 4.55-.763 1.623-1.142" style="fill:#000200;fill-rule:evenodd"></path><path d="M437.122 424.287c-.494.005-1.207.582-1.23 1.153-.105 2.647 3.737-1.181 1.23-1.153M447.42 415.124c-.452-.064-1.307.487-1.407 1.006-.451 2.337 3.831-.664 1.408-1.006M461.693 416.249c.487-.32 1.561-.223 1.958.321 1.773 2.429-4.526 1.359-1.958-.321M461.562 412.96c.539-.418 1.728-.292 2.167.42 1.963 3.174-5.01 1.775-2.167-.42M457.67 410.974c.456-.361 1.535-.36 1.978.147 1.98 2.262-4.388 1.753-1.979-.147M465.417 415.342c.537-.225 1.576.066 1.867.673 1.301 2.71-4.698.512-1.867-.673M465.813 412.946c.536-.226 1.575.065 1.867.672 1.301 2.71-4.698.512-1.867-.672" style="fill:#000200;fill-rule:evenodd"></path><path d="M467.754 417.294c.677-.096 1.77.543 1.92 1.319.672 3.466-5.487-.817-1.92-1.32M472.238 417.727c.577-.081 1.508.463 1.636 1.124.571 2.952-4.674-.695-1.636-1.124M473.608 420.657c.577-.075 1.502.48 1.623 1.142.558 3.066-4.55-.763-1.623-1.142M477.219 420.984c.577-.075 1.502.48 1.623 1.142.558 3.067-4.55-.763-1.623-1.142M479.77 423.97c.495.005 1.208.582 1.23 1.154.106 2.646-3.736-1.182-1.23-1.153M469.472 415.44c.452-.063 1.307.488 1.408 1.007.451 2.337-3.832-.664-1.408-1.006" style="fill:#000200;fill-rule:evenodd" data-source="https://football-logos.cc"></path><!-- source: https://football-logos.cc --></svg>