<svg xmlns="http://www.w3.org/2000/svg" xml:space="preserve" baseProfile="tiny" version="1.2" viewBox="32.44 15.28 493.98 566"><!-- Source: https://football-logos.cc --><path d="M351.316 450.164c-1.69-8.791-5.075-15.939-11.571-18.679a22.7 22.7 0 0 0-8.894-1.816c-9.214.003-15.895 5.541-15.912 5.552l-.099.083.058.117c.009.021 4.804 9.85 9.097 19.315-.651.586-4.563 4.246-7.063 9.672-1.896-3.739-3.665-7.094-4.942-9.24-1.871-3.146-4.155-4.325-6.803-4.321-3.919.008-8.62 2.488-14.308 4.622-12.727 4.771-38.111 10.422-62.886 10.422s-50.156-5.65-62.887-10.422c-5.69-2.131-10.391-4.614-14.311-4.622-2.645-.004-4.929 1.169-6.795 4.321-1.281 2.147-3.052 5.503-4.949 9.243-2.501-5.428-6.41-9.089-7.062-9.675 4.292-9.467 9.087-19.295 9.097-19.315l.057-.117-.1-.083c-.016-.011-6.699-5.549-15.914-5.552-2.774 0-5.779.501-8.89 1.816-6.496 2.738-9.88 9.888-11.572 18.679-.878 4.565-2.586 12.166-2.586 20.271 0 7.456 1.444 15.351 6.33 21.706 7.957 10.333 21.054 18.171 29.858 18.182 2.445 0 4.568-.611 6.149-1.96 6.35-5.447 6.926-9.812 12.211-14.133l1.795.663c7.631 2.862 33.032 11.482 69.567 11.482 36.538 0 61.936-8.62 69.569-11.482l1.792-.663c5.285 4.321 5.861 8.684 12.213 14.133 1.575 1.353 3.7 1.96 6.146 1.96 8.804-.008 21.899-7.849 29.86-18.182 4.881-6.351 6.323-14.247 6.323-21.703.002-8.108-1.704-15.711-2.578-20.274" data-source="https://football-logos.cc"></path><path fill="#FFF" d="M318.186 481.114c-.765-1.556-5.967-12.141-10.021-18.688-1.753-2.82-3.781-3.81-6.208-3.815-3.603-.006-8.082 2.248-13.515 4.219-12.169 4.396-36.806 9.794-60.45 9.794s-48.284-5.398-60.454-9.794c-5.435-1.967-9.915-4.225-13.515-4.219-2.429.007-4.454.992-6.207 3.815-4.051 6.548-9.26 17.131-10.022 18.688 1.421.21 9.854 1.638 25.808 8.079 7.126 2.877 31.683 10.449 64.389 10.449s57.26-7.572 64.389-10.449c15.95-6.44 24.382-7.868 25.806-8.079M119.616 461.48c1.175-4.35 8.838-21.517 9.383-22.731-.242-.247-1.517-1.465-4.44-1.469-1.633 0-3.776.386-6.524 1.545-3.756 1.534-7.472 16.884-8.616 22.72 1.115-1.396 2.806-1.941 4.542-1.941 2.1-.001 4.277.792 5.655 1.876M145.806 496.654l3.891-4.803a164 164 0 0 0-7.163-2.125c2.647 3.283 3.17 5.914 3.272 6.928M125.578 470.483l-.065.259-.205-.171c-2.173-1.816-5.655-3.241-8.942-3.241-2.753.003-5.351.986-7.006 3.541-.735 1.131-1.065 2.471-1.065 3.954-.006 5.807 5.13 13.696 10.488 18.781 5.048 4.801 12.035 9.974 16.8 9.96 1.576-.003 2.892-.543 3.871-1.843.362-.483.524-1.139.524-1.908.016-4.32-5.11-11.983-5.118-11.977-1.869-2.266-3.165-3.938-3.165-6.317 0-1.426.461-3.076 1.51-5.243a956 956 0 0 1 2.332-4.796c-2.384-5.312-6.187-8.016-7.009-8.555-1.592 3.719-2.522 5.842-2.95 7.556M342.023 459.603c1.733 0 3.427.545 4.543 1.943-1.145-5.838-4.857-21.188-8.614-22.722-2.754-1.159-4.895-1.545-6.522-1.545-2.915.004-4.199 1.203-4.444 1.464.521 1.167 8.206 18.379 9.384 22.736 1.369-1.083 3.552-1.876 5.653-1.876M310.177 496.653c.101-1.02.623-3.646 3.271-6.927a168 168 0 0 0-7.16 2.125zM346.623 470.871c-1.655-2.555-4.254-3.538-7.005-3.541-3.29 0-6.773 1.425-8.939 3.241l-.209.168-.063-.256c-.428-1.714-1.354-3.835-2.947-7.553-.818.548-4.627 3.245-7.009 8.549a949 949 0 0 1 2.33 4.799c1.048 2.167 1.51 3.817 1.51 5.239-.004 2.381-1.302 4.053-3.154 6.309 0 .011-5.145 7.669-5.131 11.989 0 .771.161 1.425.526 1.908.977 1.3 2.292 1.84 3.871 1.843 4.763.014 11.749-5.159 16.8-9.96 5.355-5.085 10.496-12.976 10.485-18.778 0-1.484-.331-2.826-1.065-3.957"></path><path d="M160.438 483.243q1.126.424 1.713.376.96-.089 1.434-1.255l5.136-12.717q.472-1.165-.124-1.869-.365-.43-1.523-.959l.269-.669 9.188 3.713-.27.666q-1.253-.446-1.808-.401-.93.089-1.407 1.269l-5.137 12.715q-.446 1.104.02 1.724.464.624 1.697 1.119l-.269.669-9.187-3.713zM173.316 488.141q.775.094 1.202-.127.443-.235.677-1.173l2.015-8.085c.139-.556.136-.962-.008-1.228q-.201-.393-1.061-.722l.167-.669 5.21 1.298-.492 1.974a5.8 5.8 0 0 1 2.073-1.224 4.2 4.2 0 0 1 2.42-.097c1.182.296 2.019.826 2.511 1.598q.752 1.156.18 3.454l-1.657 6.646q-.23.925.011 1.273.255.346.97.626l-.164.656-6.458-1.609.164-.656q.775.035 1.107-.154.331-.185.557-1.086l1.66-6.66q.234-.94.164-1.455-.111-.928-1.064-1.165-.712-.177-1.446.196a4.6 4.6 0 0 0-1.171.806l-1.834 7.356q-.225.904-.02 1.222.205.326.907.653l-.164.66-6.62-1.65zM200.333 481.128l-.109.686q-.742-.09-1.146-.014-.391.08-.463.527-.017.111.031.426.063.305.097.45l1.254 5.705.219.034 2.644-4.484q.19-.32.329-.663c.101-.228.162-.405.184-.545.062-.393-.032-.657-.28-.802q-.37-.226-1.12-.358l.108-.685 4.237.673-.108.681q-.567-.045-.975.227-.406.258-.879 1.039l-6.266 10.367-.71-.11-2.049-8.829a51 51 0 0 0-.438-1.751 26 26 0 0 0-.461-1.601q-.265-.796-.454-1.024-.188-.226-.754-.37l.109-.685zM210.816 483.826q1.867-1.684 4.31-1.514 1.393.096 2.572.915a4.9 4.9 0 0 1 1.75 2.162q.428 1.014.513 2.587c.03.494.035.866.018 1.126l-7.206-.506q-.023 1.707.346 2.979.666 2.391 2.75 2.538.993.07 1.92-.49.564-.333 1.427-1.162l.622.446q-1.464 2.06-3.248 2.782-1.156.46-2.605.356-2.084-.143-3.791-1.915-1.708-1.768-1.456-5.372c.152-2.169.845-3.816 2.078-4.932m5.757 3.985c.098-1.669.05-2.84-.143-3.521q-.29-1.018-1.366-1.095-1.104-.075-1.599 1.039-.48 1.119-.689 3.312zM223.581 495.43q.814-.11 1.128-.406.312-.297.326-1.126l.013-.832-.135-7.707q-.015-.885-.326-1.196-.31-.314-1.211-.41l-.012-.689 5.382-.097.039 2.229q.879-1.193 1.752-1.899a3.25 3.25 0 0 1 2.036-.728 2.4 2.4 0 0 1 1.573.539q.716.539.734 1.622.015.828-.474 1.379-.476.546-1.263.561-.9.015-1.578-.815c-.443-.557-.753-.83-.928-.827q-.567.01-1.136.725-.556.704-.533 2.002l.094 5.356q.024 1.407.432 1.764.42.338 1.641.426l.011.679-7.554.133zM238.888 495.221q.763-.164 1.095-.513.343-.365.259-1.329l-.726-8.299q-.075-.855-.407-1.159c-.212-.204-.625-.313-1.238-.336l-.061-.69 5.349-.465.177 2.024a5.7 5.7 0 0 1 1.563-1.831 4.2 4.2 0 0 1 2.256-.879q1.82-.156 2.894.69c.726.566 1.157 1.638 1.294 3.207l.598 6.823q.083.954.425 1.199.354.246 1.122.277l.059.676-6.631.58-.059-.676q.745-.22.998-.503.253-.287.172-1.212l-.598-6.836c-.057-.646-.164-1.119-.32-1.432q-.407-.84-1.385-.753-.73.06-1.305.654a4.7 4.7 0 0 0-.844 1.144l.661 7.556q.08.924.379 1.159.299.241 1.07.323l.059.676-6.796.596zM257.303 482.29q1.403-2.089 3.814-2.513a5.04 5.04 0 0 1 2.717.265q1.34.509 2.219 1.675.662.88 1.124 2.388.222.705.29 1.086l-7.113 1.255q.39 1.66 1.057 2.806 1.222 2.16 3.282 1.798.981-.174 1.745-.939.468-.462 1.103-1.475l.71.283q-.92 2.353-2.476 3.485c-.673.482-1.487.811-2.441.978q-2.058.365-4.143-.94-2.084-1.302-2.712-4.862-.567-3.219.824-5.29m6.548 2.47q-.464-2.463-.99-3.38-.527-.918-1.59-.733-1.089.195-1.3 1.396-.195 1.204.133 3.377zM271.715 486.975l.762-.203c.619 1.235 1.366 2.031 2.242 2.377q1.31.51 2.46.2 1.054-.28 1.425-.883.365-.613.158-1.391a1.77 1.77 0 0 0-.872-1.113q-.369-.2-1.11-.345l-2.297-.444q-1.814-.358-2.757-1.095-.955-.735-1.293-1.989a3.94 3.94 0 0 1 .375-3.037q.796-1.464 2.79-1.994a6.6 6.6 0 0 1 1.923-.2q1.051.02 1.291-.044.335-.093.433-.259c.071-.127.116-.28.133-.467l.603-.163 1.06 3.956-.694.188q-.76-1.286-1.868-1.895-1.108-.604-2.284-.29-.909.244-1.227.873-.306.627-.148 1.216.13.479.659.854.52.392 1.742.623l1.689.32q1.57.294 2.379.752 1.356.783 1.775 2.347.406 1.522-.347 3.144-.745 1.604-2.95 2.194a5.2 5.2 0 0 1-1.143.176q-.577.043-1.467-.021l-.511-.033a3 3 0 0 0-.351-.021.575.575 0 0 0-.502.319q-.112.218-.211.703l-.655.173zM284.654 483.49l.731-.293q1.148 1.73 2.515 2.088 1.363.343 2.467-.103 1.013-.409 1.309-1.052.288-.652-.014-1.396a1.76 1.76 0 0 0-1-.999q-.394-.155-1.145-.21l-2.334-.16q-1.846-.134-2.871-.749-1.036-.612-1.525-1.819c-.41-1.018-.41-2.034.004-3.06q.612-1.545 2.525-2.318a6.6 6.6 0 0 1 1.885-.436c.696-.07 1.121-.14 1.275-.2q.32-.127.398-.312.084-.195.072-.479l.578-.231 1.534 3.797-.666.271q-.91-1.183-2.086-1.648c-.781-.313-1.55-.314-2.302-.014-.581.237-.953.573-1.111 1.019-.15.438-.15.848.001 1.222q.187.46.759.771.565.327 1.807.404l1.716.11q1.594.106 2.452.457 1.443.614 2.05 2.115.59 1.462.039 3.159-.544 1.684-2.661 2.538a5.3 5.3 0 0 1-1.112.314q-.568.112-1.458.157l-.512.027c-.188.006-.305.017-.352.021a.7.7 0 0 0-.145.046.55.55 0 0 0-.313.333q-.087.231-.127.725l-.627.253z"></path><path d="M411.991 472.815c-4.46-7.763-9.988-13.42-17.022-13.895a22 22 0 0 0-1.603-.057c-13.535.006-20.624 11.651-20.633 11.664l-.069.109.093.098c.018.017 7.753 7.746 14.892 15.296-.424.771-2.932 5.506-3.529 11.45-3.01-2.919-5.776-5.52-7.685-7.133-1.903-1.604-3.681-2.298-5.415-2.298-4.604.021-8.747 4.756-14.444 9.451-10.483 8.657-32.644 22.267-56.069 30.331-.025.008-8.35 3.071-21.59 6.144-13.24 3.071-31.37 6.146-50.924 6.146-39.107 0-72.439-12.292-72.513-12.289-23.429-8.064-45.588-21.674-56.072-30.331-5.701-4.69-9.844-9.432-14.447-9.451-1.734 0-3.512.688-5.414 2.298-1.906 1.613-4.674 4.214-7.685 7.133-.598-5.944-3.104-10.679-3.527-11.45 7.138-7.55 14.874-15.279 14.891-15.296l.089-.093-.066-.114c-.01-.013-7.105-11.658-20.637-11.664-.523 0-1.058.014-1.602.057-7.031.475-12.56 6.132-17.021 13.895-3.615 6.291-11.545 18.905-11.548 31.912 0 3.002.421 6.021 1.419 8.995 4.792 14.216 17.061 27.545 25.953 27.575.985 0 1.927-.167 2.812-.512 7.78-3.09 9.748-7.024 16.152-9.387l1.477 1.212c6.285 5.187 28.799 22.822 63.664 34.832.006.003 36.466 13.843 84.074 13.843 47.611 0 84.066-13.84 84.077-13.847 34.861-12.006 57.375-29.643 63.66-34.828l1.478-1.212c6.404 2.36 8.371 6.297 16.147 9.387a7.6 7.6 0 0 0 2.816.512c8.884-.03 21.151-13.365 25.948-27.575.998-2.969 1.419-5.993 1.419-8.995-.003-13.011-7.936-25.624-11.546-31.913"></path><path fill="#FFF" d="M368.974 528.908c12.981-11.283 20.49-15.381 21.769-16.043-1.229-1.224-9.597-9.536-15.56-14.407-1.724-1.406-3.299-1.987-4.84-1.987-4.164-.019-8.178 4.346-13.675 8.791-10.077 8.117-32.892 21.687-55.246 29.38-22.34 7.693-44.729 12.892-73.43 12.892-28.7 0-51.092-5.197-73.435-12.892-22.356-7.693-45.169-21.263-55.246-29.38-5.5-4.445-9.517-8.813-13.678-8.796-1.542.005-3.116.58-4.84 1.992-5.963 4.871-14.332 13.181-15.557 14.406 1.276.661 8.784 4.758 21.769 16.044 5.801 5.042 25.598 19.864 58.757 31.279 33.162 11.421 58.956 13.688 82.229 13.688 23.271 0 49.064-2.267 82.225-13.688 33.161-11.415 52.957-26.237 58.758-31.279M54.438 488.381c2.528-3.73 15.361-17.465 16.271-18.436-.218-.463-1.827-3.556-8.71-3.563-.53 0-1.09.017-1.68.063-4.054.228-12.564 13.537-15.547 18.681a4.95 4.95 0 0 1 2.689-.764c2.786.007 5.675 2.005 6.977 4.019M67.968 528.05c0 .984-.121 1.696-.219 2.114l5.24-3.274a170 170 0 0 0-6.079-4.343c.826 2.294 1.058 4.153 1.058 5.503M62.393 492.653c-2.72 3-4.287 4.701-5.25 6.183l-.146.227-.139-.231c-1.943-3.221-6.286-6.525-10.5-6.525h-.02c-1.609 0-3.202.476-4.656 1.614-2.104 1.644-2.984 4.595-2.98 8.095-.004 5.191 1.933 11.558 4.488 16.468 3.622 7.013 9.464 15.241 14.382 15.206.866-.003 1.705-.248 2.519-.797 1.15-.768 1.577-2.778 1.573-5.087 0-4.306-1.395-9.545-1.398-9.551-.776-2.825-1.553-4.364-1.56-5.823 0-1.339.684-2.526 2.548-4.411 1.54-1.554 3.238-3.259 4.979-4.997-.522-5.795-3.234-9.587-3.84-10.371M408.517 484.362c.934 0 1.856.229 2.691.764-2.983-5.147-11.496-18.456-15.547-18.683a23 23 0 0 0-1.683-.062c-6.888.008-8.505 3.099-8.713 3.56.882.943 13.746 14.708 16.274 18.438 1.295-2.014 4.188-4.01 6.978-4.017M388.233 530.165c-.101-.419-.223-1.132-.223-2.115 0-1.35.226-3.207 1.055-5.497a172 172 0 0 0-6.078 4.34zM414.298 493.919c-1.457-1.14-3.05-1.614-4.66-1.614-4.22-.011-8.575 3.301-10.515 6.525l-.144.231-.142-.227c-.964-1.48-2.53-3.181-5.247-6.18-.603.791-3.324 4.579-3.846 10.367 1.742 1.735 3.439 3.44 4.978 4.994 1.864 1.885 2.544 3.072 2.544 4.41-.003 1.46-.786 2.998-1.553 5.824 0 .009-1.401 5.245-1.398 9.547-.006 2.313.421 4.323 1.57 5.091.813.549 1.651.794 2.519.797 4.914.035 10.758-8.193 14.387-15.206 2.552-4.91 4.487-11.275 4.484-16.473 0-3.497-.879-6.443-2.977-8.086"></path><path d="M100.949 511.003q.952 1.567 1.105 1.693a.98.98 0 0 0 .884.206q.495-.106.83-.397l.583.476-3.973 4.905-.533-.432q.537-2.212.494-3.771c-.065-1.932-.72-3.398-1.962-4.406q-2.11-1.71-4.477-.604-2.35 1.096-4.829 4.159-1.824 2.256-2.48 4.133-1.233 3.512 1.409 5.652 1.618 1.31 3.741 1.535 1.221.127 3.237-.143l.21 1.019q-2.341.376-3.771.237-2.545-.248-4.575-1.891c-2.068-1.678-3.306-3.693-3.709-6.057q-.675-3.923 2.12-7.373 2.77-3.422 6.71-3.74 3.698-.297 6.729 2.158 1.312 1.062 2.257 2.641M102.954 532.839a5 5 0 0 0 1.035-.19l2.204-3.267a5.6 5.6 0 0 0-2.038-.373q-1.686.025-2.518 1.259c-.33.486-.471.935-.424 1.335q.087.599.503.883.547.365 1.238.353m-1.963-5.505q2.05.098 5.757 1.292l1.099-1.625q.67-.996.561-1.751-.092-.764-1.162-1.482-.602-.408-1.149-.441-.53-.042-.758.299a.6.6 0 0 0-.104.247q-.016.117.006.274l.028.24q.028.29-.039.579a1.4 1.4 0 0 1-.219.533q-.427.636-1.089.697-.644.059-1.201-.317-.644-.436-.846-1.126-.189-.685.297-1.405.87-1.29 2.591-1.225 1.72.06 3.491 1.258 1.902 1.282 2.686 2.874c.51 1.067.319 2.265-.575 3.586l-3.655 5.423a.86.86 0 0 0-.16.495q.021.252.174.354a.7.7 0 0 0 .259.111q.146.021.512-.054l.021.7q-1.171.32-2.176.09a3.5 3.5 0 0 1-1.192-.519q-.994-.67-1.063-1.562-.042-.504.274-1.229a6.3 6.3 0 0 1-2.983-.103 5.3 5.3 0 0 1-1.56-.702q-.918-.62-1.325-1.736-.4-1.127.433-2.361 1.017-1.506 3.067-1.414M110.186 538.979q.705.194 1.094.092.405-.104.84-.891l6.665-12.023c.277-.496.377-.87.301-1.113q-.115-.365-.688-.879l.32-.576 4.472 2.479-7.737 13.96q-.436.782-.315 1.166.12.382.675.903l-.313.563-5.625-3.117zM125.227 535.444q2.249-.824 4.346.197 1.196.584 1.944 1.727c.748 1.143.756 1.604.774 2.532q.017 1.049-.471 2.47a9 9 0 0 1-.386.999l-6.183-3.016q-.628 1.497-.756 2.754-.266 2.349 1.522 3.22.852.417 1.871.252.618-.092 1.675-.515l.389.614q-2.028 1.298-3.86 1.298-1.185-.005-2.429-.61-1.789-.874-2.664-3.047-.876-2.17.631-5.264 1.364-2.793 3.597-3.611m3.662 5.57q1.022-2.157 1.13-3.161.108-.999-.816-1.452-.947-.463-1.783.349-.823.813-1.789 2.677zM140.08 552.057q.938-.462 1.057-.753l2.459-6.088q.123-.303-.185-1.126c-.205-.546-.61-.939-1.212-1.188q-1.333-.535-2.554 1.117-.656.885-1.388 2.693-.78 1.928-.93 3.008-.264 1.954 1.02 2.474.805.324 1.733-.137m-2.351-10.615q2.114-1.154 4.094-.353.99.4 1.562 1.199.359.486.773 1.536l1.851-4.583c.254-.629.288-1.063.103-1.311q-.273-.38-1.401-.896l.247-.61 5.389 2.179-5.815 14.395q-.315.784-.146 1.209.175.41 1 .829l-.232.573q-2.186-.644-2.841-.776-.65-.15-2.363-.346l.667-1.649q-1.006.45-1.734.563a4.1 4.1 0 0 1-2.232-.246q-1.833-.74-2.562-2.84-.73-2.1.347-4.766 1.196-2.964 3.293-4.107M153.681 547.521q2.236-1.254 4.731-.444 2.543.827 3.566 3.183 1.035 2.359.188 4.969-.836 2.568-3.042 3.899-2.203 1.322-4.785.484-2.507-.814-3.566-3.144c-.704-1.557-.766-3.229-.188-5.008q.871-2.682 3.096-3.939m-.274 9.028q-.102 1.81 1.201 2.233 1.24.406 2.044-.75.804-1.152 1.741-4.033.933-2.87.935-4.283.018-1.42-1.173-1.808-1.303-.425-2.283 1.102c-.434.683-.939 1.905-1.514 3.68q-.877 2.691-.951 3.859M164.146 561.486q.738.09 1.144-.123.422-.222.645-1.117l1.92-7.696q.197-.793-.007-1.172c-.128-.247-.465-.479-1.011-.685l.16-.643 4.961 1.239-.469 1.878a5.55 5.55 0 0 1 1.975-1.165 4 4 0 0 1 2.304-.09q1.687.42 2.392 1.521c.478.733.534 1.832.172 3.287l-1.579 6.33q-.22.884.011 1.213c.162.222.469.419.923.599l-.156.626-6.151-1.536.156-.626q.737.037 1.055-.145.315-.176.53-1.036l1.582-6.341q.224-.899.156-1.389-.106-.884-1.014-1.108c-.453-.111-.911-.051-1.377.188q-.685.343-1.116.769l-1.747 7.007c-.143.569-.148.959-.018 1.162q.194.31.863.623l-.157.629-6.304-1.572zM186.129 548.707a2.05 2.05 0 0 1 1.575-.352 1.97 1.97 0 0 1 1.333.867q.503.703.353 1.56c-.15.857-.39 1.024-.868 1.36q-.702.489-1.546.342a2.06 2.06 0 0 1-1.36-.856 2.05 2.05 0 0 1-.339-1.569 2 2 0 0 1 .852-1.352m-4.783 16.81q.721.005 1.023-.183.45-.281.61-1.189l1.378-7.814q.142-.8-.08-1.138-.219-.345-1-.629l.114-.65 5.101.9-1.78 10.096q-.154.87.063 1.162c.217.292.446.383.905.562l-.112.637-6.334-1.117zM198.171 566.846q.342-.2.835-.643l.48-3.913a5.6 5.6 0 0 0-1.985.595q-1.49.784-1.672 2.265-.108.876.228 1.382.351.495.848.555.656.08 1.266-.241m-4.248-4.015q1.87-.846 5.717-1.462l.24-1.949c.097-.796-.001-1.398-.295-1.815q-.427-.636-1.708-.795-.719-.09-1.224.129-.489.21-.54.609a.6.6 0 0 0 .02.27 1 1 0 0 0 .13.24l.134.204q.156.245.227.532c.057.187.073.376.048.577q-.093.757-.654 1.113-.548.342-1.214.265-.772-.095-1.264-.623-.482-.524-.375-1.385.19-1.543 1.752-2.27c1.042-.48 2.27-.639 3.682-.463q2.276.279 3.699 1.342 1.409 1.079 1.116 3.457l-.796 6.487a.85.85 0 0 0 .083.516q.132.22.316.236a.6.6 0 0 0 .282-.018q.138-.047.432-.278l.336.614q-.897.818-1.897 1.066a3.5 3.5 0 0 1-1.297.08q-1.19-.149-1.654-.906-.266-.43-.315-1.222-1.25.974-2.704 1.262a5.3 5.3 0 0 1-1.71.083q-1.099-.135-1.968-.946-.869-.823-.687-2.301.218-1.804 2.088-2.649M207.41 569.097c.494-.037.861-.147 1.1-.34q.372-.295.42-1.219l.415-7.922q.043-.819-.229-1.146-.259-.336-1.124-.481l.035-.66 5.107.27-.102 1.934a5.5 5.5 0 0 1 1.717-1.521 4 4 0 0 1 2.244-.527q1.738.093 2.638 1.036.914.945.796 3.194l-.341 6.517q-.048.908.241 1.187.301.28 1.021.41l-.034.646-6.33-.333.034-.646q.73-.106 1.007-.342c.277-.236.292-.53.322-1.119l.342-6.528q.048-.918-.112-1.391-.273-.846-1.207-.895-.698-.037-1.316.443-.606.472-.948.968l-.378 7.214q-.047.88.204 1.145.25.265.966.446l-.033.645-6.489-.339zM233.363 552.188l16.228-.852.311 5.435-.776.04q-.534-2.887-2.391-3.821-1.042-.512-3.06-.459l.744 14.188c.052.99.257 1.642.617 1.946q.552.464 2.197.373l.035.686-9.607.506-.037-.686q1.58-.084 2.068-.599.5-.529.422-2.001l-.744-14.188q-1.971.158-2.995.777c-1.252.771-1.913 2.118-1.978 4.052l-.776.04zM254.619 568.507q.718-.193 1.015-.543.309-.36.181-1.275l-1.914-13.611q-.112-.794-.442-1.067-.335-.284-1.197-.271l-.092-.653 5.168-.725 1.056 7.515q.683-1.105 1.509-1.767.835-.678 1.971-.839 1.54-.216 2.672.546 1.129.744 1.433 2.897l.903 6.42q.127.904.466 1.147.351.227 1.092.284l.09.641-6.277.883-.089-.642c.465-.161.772-.34.923-.527q.225-.285.104-1.16l-.91-6.473q-.129-.914-.375-1.344-.43-.782-1.355-.647-.692.096-1.346.838c-.428.497-.63.82-.607.979l1.004 7.151c.082.586.221.946.419 1.089q.296.21 1.035.253l.089.638-6.434.907zM270.221 548.464q.475-.735 1.326-.916a1.97 1.97 0 0 1 1.562.303q.73.464.912 1.313a2.03 2.03 0 0 1-.296 1.585 2 2 0 0 1-1.305.897 2.06 2.06 0 0 1-1.584-.284 2.04 2.04 0 0 1-.901-1.329 2 2 0 0 1 .286-1.569m1.861 17.377c.446-.18.74-.36.879-.553q.314-.428.121-1.332l-1.648-7.762q-.17-.798-.5-1.023-.334-.239-1.164-.213l-.137-.645 5.066-1.076 2.131 10.028q.184.863.494 1.055.31.19 1.049.182l.135.632-6.291 1.337zM281.388 560.385l.726-.193q.883 1.772 2.135 2.267 1.247.483 2.344.19 1.006-.269 1.357-.842.347-.584.149-1.322a1.68 1.68 0 0 0-.829-1.063q-.351-.189-1.059-.33l-2.188-.422q-1.728-.344-2.625-1.042-.911-.7-1.23-1.896-.406-1.514.357-2.894.76-1.39 2.654-1.899a6.4 6.4 0 0 1 1.832-.188q1 .018 1.23-.043.318-.087.41-.247a1.1 1.1 0 0 0 .127-.443l.573-.154 1.011 3.769-.664.18q-.722-1.225-1.779-1.805-1.054-.575-2.174-.276-.867.236-1.168.832-.29.596-.143 1.156.124.458.628.813.496.375 1.66.592l1.608.307q1.494.283 2.268.719 1.29.744 1.689 2.231c.26.97.147 1.969-.33 2.997-.474 1.019-1.41 1.712-2.811 2.088a5 5 0 0 1-1.088.17c-.365.024-.832.02-1.396-.021l-.486-.034a3 3 0 0 0-.333-.019.7.7 0 0 0-.144.023.52.52 0 0 0-.334.281q-.109.208-.203.666l-.623.169zM291.67 550.228l-.219-.72q.243-.415.616-1.002.478-.82.871-1.658a22 22 0 0 0 1.286-3.41l.654-.2 1.334 4.36 2.457-.75.349 1.135-2.458.75 2.373 7.765q.166.541.441.857.424.49 1.004.311.505-.153.738-.609.227-.469.375-1.202l.709.113q-.129 1.194-.555 2.058-.75 1.511-2.352 2.001c-.605.186-1.17.23-1.692.145q-1.512-.253-2.039-1.981l-2.56-8.366zM305.867 556.801c.405-.271.668-.523.786-.765q.186-.375-.121-1.218l-4.7-12.918q-.293-.805-.645-.959-.349-.153-1.113-.057l-.227-.618 4.805-1.749 5.46 14.996q.306.843.674 1.006.365.157 1.122.08l.224.606-6.046 2.198zM313.056 543.104q.854-2.239 3.002-3.148a4.8 4.8 0 0 1 2.578-.336q1.35.183 2.419 1.076c.533.453 1.052 1.109 1.554 1.977q.356.605.502.946l-6.333 2.687q.718 1.457 1.582 2.381 1.597 1.738 3.432.962c.58-.246 1.055-.663 1.417-1.245q.336-.528.709-1.604l.719.11q-.348 2.383-1.551 3.766-.781.89-2.057 1.432-1.831.777-4.046.013-2.214-.763-3.559-3.929-1.215-2.868-.368-5.088m6.605.891q-.956-2.187-1.643-2.926c-.458-.494-1.002-.604-1.633-.34q-.969.414-.906 1.576.076 1.155.847 3.104zM337.303 543.363q.983-.616 1.268-1.098.44-.74-.141-1.745l-6.529-11.313q-.587-1.018-1.43-1.002-.513.009-1.604.546l-.342-.593 13.25-7.65 2.722 4.713-.569.329q-1.693-1.928-3.22-2.204c-1.023-.188-2.456.246-4.298 1.311q-1.026.595-1.175.996-.143.389.228 1.027l3.124 5.407q1.914-1.058 2.095-2.271.192-1.22-.521-3.247l.595-.342 4.561 7.896-.594.343q-1.334-1.752-2.565-2.201-1.22-.451-3.102.636l3.142 5.445q.628 1.083 1.425 1.018.804-.084 2.094-.856l.342.593-8.411 4.855zM350.989 531.784q.166-.935.942-1.479a2.18 2.18 0 0 1 1.704-.37 2.17 2.17 0 0 1 1.473.932q.543.776.379 1.714a2.19 2.19 0 0 1-.938 1.462 2.253 2.253 0 0 1-3.176-.56 2.2 2.2 0 0 1-.384-1.699M358.383 507.49q1.72-.635 1.872-.762a.98.98 0 0 0 .371-.829 1.9 1.9 0 0 0-.231-.893l.575-.479 4.059 4.835-.523.44c-1.38-.633-2.582-1.032-3.609-1.205-1.905-.304-3.473.059-4.696 1.085q-2.081 1.748-1.45 4.279c.421 1.679 1.476 3.521 3.163 5.535q1.865 2.22 3.582 3.224 3.214 1.88 5.817-.306 1.594-1.34 2.223-3.38.355-1.174.478-3.204l1.039-.013q-.075 2.369-.487 3.747-.728 2.45-2.728 4.129-3.06 2.569-6.652 2.485-3.978-.085-6.834-3.487-2.829-3.374-2.392-7.299.416-3.688 3.404-6.195 1.288-1.08 3.019-1.707M376.151 512.434q.196-.931.993-1.446a2.16 2.16 0 0 1 1.714-.314 2.18 2.18 0 0 1 1.44.983q.516.796.318 1.728a2.2 2.2 0 0 1-.989 1.429 2.24 2.24 0 0 1-1.719.33 2.23 2.23 0 0 1-1.436-1.003c-.341-.533-.451-1.1-.321-1.707M499.09 77.749s18.219 9.108 27.328 9.108L501.26 73.411s13.881 3.036 19.52 3.903c-39.039-26.026-90.656-40.34-152.688-51.185-58.665-10.256-119.871 10.3-127.095 18.653-13.88 16.049-36.87 12.145-32.532 5.205 4.337-6.94-.434-4.338 12.579-8.242s23.424-9.109 10.411-15.616-27.328-1.301-33.4-2.603c-6.072-1.301-16.45-8.241-27.761-8.241-15.183 0-27.762 5.639-39.474 9.108s-42.943 6.941-57.692 9.978c-8.962 1.845-30.363 10.411-30.363 10.411-.434 4.337 5.205 3.47 5.205 3.47s-2.168 1.735-.434 6.073c1.735 4.337 6.507 2.603 6.507 2.603s-3.904 3.036-1.301 6.94 6.506 0 6.506 0-3.037 3.471-2.168 6.94c.867 3.47 5.639 2.604 5.639 2.604s-4.771 2.168-2.603 5.638c2.169 3.471 6.941-.433 6.941-.433s-3.904 3.47-2.169 7.808 9.543-1.302 9.543-1.302-2.169 7.374 1.301 9.109 10.844-1.735 10.844-1.735-.867 5.206 1.735 8.676 6.94-.868 6.94-.868-3.47 3.904.868 6.506 20.387-19.954 20.387-19.954-2.602 9.11-2.602 9.977c0 4.338 8.241-2.169 8.241-2.169s.867 9.543 5.639 9.543c4.771 0 3.47-8.241 2.603-12.579s2.603-6.94 4.337-3.037c1.735 3.904 4.338 11.712 19.086 6.506 8.15-2.876 7.807-.867 6.506 1.735s-3.904 6.941-2.602 10.845c1.3 3.904 5.204 4.337 5.204 4.337s-3.904 4.338-1.734 7.375c2.168 3.036 6.507.867 6.507.867s-10.411 19.52-14.315 23.857c-.88.978-2.069 2.11-3.487 3.302-4.872 4.096-12.447 8.899-19.503 10.579-5.212 1.241-4.603 4.896-2.07 7.39 4.375-3.317 9.036-6.21 12.96-8.574-2.625 2.287-5.651 6.492-8.199 10.999.75.094 1.5.05 2.208-.166 7.001-6.73 15.289-13.516 19.674-15.729-10.65 11.645-12.837 14.698-16.367 23.32 2.872.415 5.675-1.624 5.675-1.624s-3.037 3.036 0 6.941c3.037 3.903 6.939.433 6.939.433s-1.538 4.857 1.735 6.941c7.855 4.999 8.657.886 8.695-.725.125 1.835 1.025 7.478 7.355 8.532 2.602.434 9.108-22.989 9.108-22.989s2.169 14.748.868 18.652c-.772 2.318.06 4.865.865 6.545.55 1.153 1.087 1.913 1.087 1.913s-1.186 1.213-2.998 2.345c-1.812 1.13-3.5 1.587-9.517 3.965-2.99 1.183-4.223 2.929-4.709 4.396h-.003c-.487 1.472-.21 2.647-.21 2.647s-3.402 3.622-2.552 6.859c-37.369 22.689-62.334 63.771-62.334 110.682 0 71.461 57.93 129.392 129.392 129.392 71.463 0 129.391-57.931 129.391-129.392 0-52.188-30.911-97.128-75.41-117.591.35-.875.357-1.754.154-2.586-.651-2.668-3.389-4.861-3.389-4.861s.434-4.771-5.855-6.289c-2.959-.714-4.91-1.14-6.349-1.481-1.622-.385-2.594-.663-3.628-1.123-1.952-.867-2.819-1.518-2.819-1.518 2.819.434 5.875-.155 3.687-4.121-.968-1.753-3.623-3.831-3.47-6.29.298-4.801-1.639-10.348-1.952-16.917-.103-2.158-2.89-6.719-1.952-8.675s-1.843-10.407-.868-11.711q.065-.09.13-.169c1.396-1.956 2.399-4.868 1.605-6.772 4.023.448 8.242 1.952 13.446 5.639 1.365.611 2.354.879 3.229 1.133h.031c1.258.353 2.292.668 3.897 1.903 5.639 4.338 8.457 8.892 9.976 20.387.586 4.433 2.386-2.169 2.819-6.506.397-3.979-1.519-9.543-2.387-11.062-.865-1.518-1.084-2.602.436-1.735 0 0 7.024 6.827 8.012 8.004.986 1.176 2.279 5.104 2.693 6.593.412 1.489 1.104 1.914 1.174 3.191.068 1.278-3.412 3.698-3.412 3.698s8.721 1.036 10.813-9.409c1.394-6.939-4.189-14.91-4.189-14.91s.089-.041.223-.155c.481-.434 1.539-1.906 1.163-6.234-.482-5.541-1.09-8.841-3.681-13.984-.433-3.471-.65-7.375-1.085-15.183s-6.94-12.579-6.94-12.579-2.168-9.109-6.071-18.653c-3.904-9.542 1.301-14.748 1.301-14.748s8.242-4.772 13.015-9.109c4.771 7.808 13.88.868 13.88.868h6.073s2.603 5.638 8.674 8.674c6.074 3.037 9.109-2.168 9.109-2.168s4.339 2.602 9.978 3.903 11.712-4.771 11.712-4.771.868 4.337 6.507 4.771c2.57.198 3.699-.325 4.166-.954.259.928 1.224 2.031 4.075 2.689 5.641 1.301 5.641-3.904 5.641-3.904s.434 3.904 5.203 5.205c4.772 1.301 11.278-4.772 11.278-4.772s1.735 3.904 6.507 3.904 6.94-4.337 6.94-4.337 6.073 4.337 12.146 4.337c6.071 0 10.409-3.904 10.409-3.904s3.037 4.772 6.941 6.507c3.902 1.735 3.469-3.47 3.469-3.47 8.243 7.374 26.026 13.447 26.026 13.447l-18.22-13.881s20.39 12.58 33.401 16.484l-16.483-12.145s26.459 13.88 46.414 15.615zM172.936 213.643q-.036.017-.071.032c.035-.059.072-.103.108-.164-.021.05-.02.086-.037.132m-7.559 2.147s.637.528 1.61.838a128 128 0 0 0-4.998 2.832c.803-2.375 3.388-3.67 3.388-3.67m40.34-12.485c-.16-.042-.317-.086-.499-.125-2.483-.527-2.634.566-5 .265-2.453-.312-3.747-.263-6.502-2.724 1.585-.745 1.527-1.811.946-2.781-.771-1.292-2.464-2.423-2.464-2.423l5.422 2.385-2.385-5.422c1.083 2.386 5.205 3.47 5.205 3.47s-2.826-7.466-3.546-12.811c1.085 2.385 3.979 2.4 3.979 2.4s-1.882-5.932-2.603-11.278c1.084 2.385 3.688 2.603 3.688 2.603s-3.904-13.013-2.169-19.302c1.084 0 2.819 2.602 4.771 4.337s1.952 3.904 4.337 5.206c2.386 1.301 2.169-3.037 2.386-.867.217 2.168 3.253 2.386 4.338 1.3 1.084-1.084 6.29-6.289 9.542-11.278 9.543 1.084 3.688 20.171 3.688 20.171l3.253-3.688c1.301 3.688-.867 9.109-.867 9.109s3.037-1.301 4.555-7.158c1.003-3.87 1.518 12.363-2.386 17.785l4.338-3.471.217 8.242s2.385.217 3.253-2.819l5.856 3.253a6 6 0 0 0-.21.255c-2.254 2.575-3.548 2.583-5.864 3.214-2.301.627-2.603-.434-4.988.434l-.079.032c-2.63-.16-5.272-.266-7.941-.266-7.599.003-15.031.696-22.271 1.952m45.997.26c1.294.042 2.499.244 3.351.65-1.11-.235-2.231-.442-3.351-.65m25.503 4.965s1.824.608 3.107 2.042c.562.627 1.018 1.414 1.176 2.375a128 128 0 0 0-7.057-2.964c1.674-.243 2.774-1.453 2.774-1.453m-6.694.017c-.295-.103-.592-.2-.888-.301.021-.255-.04-.554-.257-.913a10 10 0 0 0 1.145 1.214"></path><path fill="#FFF" d="M230.375 211.179c-.797-.016-1.586-.06-2.387-.06-5.363 0-10.633.389-15.81 1.072.013.102.032.193.043.299-.063-.1-.143-.185-.213-.278-26.64 3.558-50.514 15.848-68.612 33.943-21.648 21.651-35.037 51.555-35.037 84.591 0 33.037 13.389 62.941 35.037 84.592 21.651 21.647 51.556 35.037 84.592 35.037s62.941-13.39 84.593-35.037c21.646-21.649 35.034-51.555 35.034-84.592s-13.388-62.94-35.034-84.591c-21.057-21.052-49.922-34.255-81.877-34.969a4 4 0 0 0-.334.596c-.009-.212.004-.401.005-.603"></path><path d="M116.636 330.746c.003-61.497 49.854-111.346 111.354-111.349 61.496 0 111.351 49.853 111.351 111.349 0 61.5-49.854 111.351-111.351 111.354-61.5-.004-111.35-49.854-111.354-111.354"></path><path fill="#FFF" d="M323.709 282.504c-.815-.159-2.234-.237-3.771-.231-2.752 0-5.938.203-7.537.32 1.826 4.646 3.013 9.576 3.782 14.449 2.853-5.589 6.845-11.46 8.185-13.382-.222-.385-.43-.775-.659-1.156M336.548 327.143c-.786-11.486-3.529-28.372-12.072-43.295-1.095 2.641-4.424 10.958-4.706 15.184-.338 5.063 2.362 10.461 3.038 15.857.568 4.556 2.938 8.75-3.731 18.158a49 49 0 0 1 3.492 3.576c.666-1.214 1.313-2.689 1.926-4.525.066 2.511.023 4.69-.158 6.645 2.685 3.441 5.315 7.854 6.726 13.064 2.236-3.563 4.032-7.426 4.971-9.576.396-3.774.607-7.604.607-11.484-.003-1.209-.054-2.405-.093-3.604M176.881 257.668l-.001-.002h-.001zM313.357 304.092c.307-1.343.881-2.895 1.61-4.526-.758-5.856-2.09-11.842-4.356-17.287-2.3-4.104-6.896-9.149-12.191-13.907 2.054 13.211 4.748 25.887 6.841 32.684 2.698 8.772 6.411 10.458 8.096 3.036M267.954 265.288c-7.141 11.19-9.896 23.724-11.27 37.742.52-.313 1.044-.621 1.578-.914 0 0-.804 1.295-1.778 3.114-.341 3.895-.594 7.896-.813 12.021-.012.224-.043.416-.062.63 3.002.913 7.003-1.332 13.189 1.094-1.355.979-11.44 2.408-10.688 5.418 1.311 5.246 10.838 2.711 10.838 2.711-11.741 5.568-5.269 12.041 3.913 9.937-1.501 1.695-3.688 4.296-9.25 4.464l5.88 4.006a5 5 0 0 0 .96-.644c-.034.429-.111.799-.186 1.172l3.747 2.552c-.348-1.535-.73-3.354-1.146-5.69 1.793 1.569 3.584 3.612 5.18 6.672a56 56 0 0 0 5.187-1.617c-.144-1.258-.243-2.021-.243-2.021s.584.898 1.311 1.615a80 80 0 0 0 2.666-1.076c.082-.648.113-1.486.072-2.563-.338-8.773-3.037-15.859-7.761-28.682 7.761 3.713 7.423 10.459 9.447 10.796 5.418.903 2.024-8.772 1.013-20.921-.873-10.463-1.729-25.438 3.873-40.819-7.722-6.219-15.876-11.19-20.197-11.62q-.833.001-1.676.046c.067.526.117 1.125.117 1.781.418 2.141-.439 5.37-3.901 10.796M166.24 305.779c-3.19 9.847-4.947 13.833-1.012 13.833 2.362 0 9.448-7.083 9.448-7.083-7.515 10.197-9.895 21.449-9.371 29.199 3.061 1.802 6.226 3.525 9.308 5 1.406-2.395 2.963-4.567 6.153-8.08-.609-.559-1.098-1.122-1.53-1.609.92.211 1.812.333 2.663.381.283-.304.569-.609.875-.934q-.136.458-.269.958c7.241.104 10.927-5.466.645-10.341 0 0 9.527 2.533 10.838-2.711.753-3.01-8.73-5.043-10.085-6.021 7.677-3.01 11.712 2.048 14.602-1.807.366-.487 1.917-3.841 2.893-3.412a341 341 0 0 0-.288-4.285c-1.79-2.89-5.141-5.657-6.971-7.956 0 0 3.12.475 6.498 2.319-1.369-14.099-4.113-26.701-11.289-37.944-2.778-4.354-4.215-7.584-4.39-9.771l-7.735 2.867c-.71.466-6.004 3.939-11.865 8.495 3.763 10.141 5.687 24.066.882 38.902"></path><path fill="#FFF" d="M181.645 344.865c4.064 3.463 9.106-1.432 9.634-3.463-4.628.453-7.417-.52-9.286-1.787-.581 2.738-1.071 6.094-1.404 9.674 1.932.727 3.756 1.289 5.419 1.645-2.164-.805-4.062-2.332-4.363-6.069M148.355 302.405c-.299-8.678 1.532-16.823 4.537-24.204-1.674 1.933-2.97 3.785-3.632 5.418h-.001c-2.993 7.276-4.118 14.702-4.118 21.837 0 3.253.244 6.438.643 9.522.294.421.571.863.884 1.26 5.062 6.412 2.025-4.048 1.687-13.833M329.767 368.814a108 108 0 0 0 5.618-21.512c-1.075 2.125-2.404 4.52-3.896 6.721-.279 4.444-.697 9.485-1.722 14.791M195.183 432.916c-2.492-2.248-4.563-4.616-7.827-6.216 2.521 2.45 5.121 4.507 7.827 6.216M217.236 434.213c.517-1.931 1.137-4.394 1.485-6.313.151-.831.217-1.62.217-2.408 0-2.701-.777-5.336-1.562-9.001a11.8 11.8 0 0 1-.285-2.554c.006-3.29 1.431-5.663 1.969-9.985.121-.973.207-1.814.267-2.581a211 211 0 0 1-11.764-1.567c-2.235 11.803 4.874 26.317 9.673 34.409M264.431 425.905c1.92.64 4.651.733 7.849.125 2.146-2.12 4.026-4.432 5.594-6.924a66 66 0 0 1-2.223-1.859c-14.784 3.756-13.977 7.736-11.22 8.658M198.999 404.512c2.18.619 5.185-2.024 7.398-4.896a339 339 0 0 1-2.952-.506c-1.022 1.08-2.559 3.053-4.446 5.402M232.651 402.194a16 16 0 0 1-.469 1.494c-.673 1.742-.913 3.889-.913 6.204 0 3.405.522 7.175.922 10.593.608 5.175.402 9.251.598 13.445 7.09-8.264 13.604-20.806 14.282-32.425-4.065.504-8.225.724-12.35.724-.693 0-1.379-.024-2.07-.035M188.649 415.909a41 41 0 0 1-3.344 2.733c4.304.778 4.875-.8 3.344-2.733M267.49 346.055l-6.616-4.506c.539 1.598 3.484 4.616 6.616 4.506M270.506 366.18c.248.66.537 1.291.85 1.861 1.688-4.96 2.992-10.188 3.615-15.412-.131-.568-.271-1.15-.421-1.767l-4.753-3.238c-2.481 5.652-10.781 2.761-10.781 6.874 0 2.032 3.462 5.268 8.73 2.105 0 0-4.666 6.927-12.042 6.174-2.574-.262-4.516.979-4.516 3.611 0 2.334 2.408 2.334 3.838 4.063 1.354 1.582 1.354 3.312 1.656 5.418-2.408-1.354-3.932-3.144-6.698-3.46-6.548-.753-1.354 5.268-4.215 10.387-.441.785-4.817-7.68-10.236-6.625-1.256.244 1.806 4.367-.602 9.785a28 28 0 0 1-1.12-1.641c-.539 1.564-1.067 3.059-1.063 4.576 0 .399.036.802.118 1.211.315 1.568.558 3.648.558 5.869a26 26 0 0 1-.42 4.646c.574.008 1.144.029 1.719.029 4.159 0 8.342-.229 12.409-.747.016-1.479-.05-2.941-.246-4.371a7.66 7.66 0 0 0 3.639 3.866 64 64 0 0 0 5.507-1.201c.417-.597 1.642-2.375 3.284-5.041.193-1.428.229-3.1.055-5.046-1.35-15.185-4.049-17.548-4.049-17.548 4.386 2.363 5.399 3.039 7.423 5.736 1.295 1.728 2.934 2.373 4.444 2.127 1.414-3.086 2.782-6.381 3.981-9.838a19 19 0 0 0-.664-2.403M218.722 392.52c-.189-1.232-.272-2.148-.272-2.92 0-2.008.564-3.012 1.29-5.912.233-.945.338-1.551.338-1.998q0-.043-.003-.086c-.971 1.332-1.817 2.894-2.905 4.354-2.409-5.418.653-9.541-.603-9.784-5.418-1.056-9.795 7.409-10.235 6.623-2.86-5.119 2.333-11.139-4.215-10.386-2.353.271-3.811 1.604-5.674 2.829a68 68 0 0 0-1.131 5.238c.358.863.718 1.727 1.077 2.544 3.345 7.643 6.505 13.187 7.281 14.52 1.173.208 2.445.422 3.762.638.374-.563.71-1.115.988-1.633-.204.56-.354 1.135-.507 1.709 3.458.558 7.346 1.1 11.501 1.532.007-.25.015-.501.015-.738-.001-2.149-.29-3.816-.707-6.53M188.413 357.914c2.912.075 4.672-1.969 4.672-3.415 0-2.069-2.102-2.364-4.508-2.862l-.949.664c.167 1.858.453 3.735.785 5.613M197.073 370.454c1.43-1.729 3.838-1.729 3.838-4.063 0-2.635-1.943-3.873-4.516-3.611-2.943.301-5.446-.627-7.401-1.844 1.148 5.287 2.808 10.511 4.618 15.289a22.4 22.4 0 0 0 2.086-2.444c.19-1.214.498-2.302 1.375-3.327"></path><path fill="#FFF" d="M131.823 329.4s2.285 4.105 5.011 7.52a51 51 0 0 1 4.551-3.506c-1.03-2.311-2.307-5.525-4.165-11.1-2.699-8.1-3.037-21.935 1.688-32.731 0 8.555 1.72 16.234 4.941 22.257a74 74 0 0 1-.289-6.383c0-7.025 1.069-14.365 3.896-21.585-3.449-.772-7.223-.966-10.043-.966-.152 0-.278.004-.424.005-.899 1.06-4.36 5.179-7.912 9.976-2.023 2.711-4.057 5.669-5.655 8.364a108.7 108.7 0 0 0-4.085 29.495c0 1.63.051 3.246.123 4.857 1.038 6.385 3.048 12.097 6.149 16.035 1.414-3.691 3.975-7.345 6.966-10.592-1.467-6.217-.752-11.646-.752-11.646"></path><path fill="#FFF" d="M130.136 365.842c-.675-2.023-1.688-5.736-1.351-10.797 3.712 12.146 17.209 20.244 20.583 21.596 3.374 1.351 4.724-.676 0-4.726s-6.749-7.422-6.749-7.422 5.735 2.698 8.773 1.687c3.037-1.012 2.024-1.351-3.375-4.725-5.398-3.373-8.098-5.061-12.823-13.497-.928-1.657-1.615-3.38-2.131-5.077-2.921 3.301-5.325 6.947-6.372 10.465-.005.396-.008.791-.008 1.193.015 4.821.348 10.307 1.397 16.018l.028.009c2.703.674 3.514-.267 2.028-4.724M184.354 356.604a9.7 9.7 0 0 0 2.387 1.047 69 69 0 0 1-.68-5.082c-1.733-.354-3.631-.936-5.612-1.659-.895 11.41-.144 24.495 4.349 27.417 2.705 1.758 5.353.807 7.558-.967-2.112-5.501-4.058-11.624-5.269-17.82-1.754-1.495-2.733-2.936-2.733-2.936M147.344 392.835c3.375-1.011 2.844-2.86-.674-3.036-3.485-.175-8.317-1.164-12.875-4.908a109 109 0 0 0 9.688 14.105c.35-3.509 1.045-5.318 3.861-6.161M166.24 346.946c2.362 7.084 4.386 7.084 6.749 2.698.292-.543.568-1.049.84-1.541-2.765-1.321-5.583-2.831-8.325-4.416.173 1.202.417 2.304.736 3.259M160.503 397.898c-5.561-.931-10.56.144-15.768 2.66a108 108 0 0 0 6.154 6.733c4.184-2.524 7.771-3.773 13.326-5.009 6.074-1.348 2.363-3.372-3.712-4.384M183.1 418.221c1.488-.96 2.977-2.135 4.439-3.457a14.6 14.6 0 0 0-2.403-1.682c-7.36-4.161-23.813-7.101-33.839-5.378.204.197.413.389.616.587 6.557 4.423 14.795 8.063 25.093 10.51 1.631-.71 3.612-.961 6.094-.58M140.933 340.872c4.049 2.362 4.724 1.687 3.037-2.026-.634-1.393-1.228-2.526-1.917-3.979a50 50 0 0 0-4.191 3.281c1.024 1.157 2.077 2.144 3.071 2.724M194.861 383.469c-.782 6.254-.67 13.613 2.422 19.489.131.25.277.449.428.637 1.856-2.293 3.409-4.27 4.488-5.446-.948-1.642-4.07-7.188-7.338-14.68M138.479 269.175a108.3 108.3 0 0 0-13.3 26.433c4.434-6.424 9.704-12.624 10.685-13.799.126-1.224.723-6.773 2.615-12.634M175.085 419.964c-6.656-1.685-12.454-3.884-17.485-6.48 4.5 3.833 9.332 7.276 14.417 10.341.848-1.544 1.835-2.869 3.068-3.861M173.903 424.952a108 108 0 0 0 19.746 8.876c-3.389-2.222-6.61-4.98-9.712-8.362-2.567-.641-5.789-.881-10.034-.514M120.316 345.152c1.079 8.138 3.036 15.995 5.812 23.459-.781-5.029-1.037-9.825-1.023-14.072q.001-.53.007-1.047c-1.996-2.277-3.575-5.127-4.796-8.34M270.247 429.946a47 47 0 0 1-2.476 1.905 108.8 108.8 0 0 0 37.047-24.276c.138-.137.267-.285.404-.424-6.692 4.731-15.115 8.977-25.78 12.41a39.6 39.6 0 0 1-4.328 5.756 32 32 0 0 0 3.152-1.104c.001.002-3.059 2.649-8.019 5.733M157.467 253.141c2.354 2.472 5.075 6.712 7.294 12.198 5.371-4.146 10.187-7.331 11.397-8.136.436-2.655 3.643-19.933 17.079-29.395a108.65 108.65 0 0 0-42.077 26.113c-3.183 3.184-6.146 6.583-8.917 10.14-1.53 3.03-2.617 6.443-3.351 9.484a66 66 0 0 0-1.394 7.784c2.96.004 6.906.217 10.59 1.078 1.275-2.636 3.707-5.548 6.626-8.434 3.05-7.433 2.753-13.537 2.753-20.832M298.05 265.95c5.727 5.007 10.84 10.486 13.655 15.112 1.303-.101 5.028-.366 8.232-.366 1.104.001 2.112.035 2.988.119a69 69 0 0 0-2.469-4.924c-2.101-3.836-5.367-9.103-10.025-14.819-8.833-10.831-22.648-23.253-43.003-30.59 5.827 5.856 13.208 15.588 14.782 24.021 3.759 2.092 7.935 4.981 11.99 8.227a66 66 0 0 1 2.621-5.876c.363 2.999.778 6.053 1.229 9.096M271.459 372.393a117 117 0 0 1-1.998 4.854c1.072-1.03 1.832-2.694 1.998-4.854M276.24 361.116a61 61 0 0 0-.377-3.756c-.81 4.217-2 8.368-3.4 12.325 2.119 2.489 4.531 1.704 3.777-8.569M312.008 357.406c-10.461 8.1-11.471 11.136-15.857 17.207-4.387 6.075 2.699 4.389 10.797-.676-2.023 5.738-2.699 6.751 2.024 5.4 4.725-1.349 12.822-10.461 12.822-10.461s-3.711 6.75-1.688 9.112c1.547 1.803 3.759 1.226 5.876-.919 2.729-8.295 3.462-16.405 3.938-23.243-1.045-5.007-3.365-9.351-5.885-12.838-1.126 6.608-4.439 10.544-12.027 16.418M318.132 334.328a69 69 0 0 1-3.763 4.518c-3.039 3.375-1.668 4.129 1.352 3.377 1.824-.455 3.956-1.229 5.979-4.179-.106-.124-.216-.264-.322-.386a46 46 0 0 0-3.246-3.33M280.291 355.045c2.023 6.41 4.047 7.422 3.709 1.688a161 161 0 0 0-.59-7.157 58 58 0 0 1-4.645 1.462 36 36 0 0 1 1.526 4.007M306.346 404.356a62 62 0 0 0 6.15-5.349q1.854-2.292 3.58-4.684c-5.244 3.815-10.742 4.921-17.565 4.921-7.466.002.137 3.968 7.835 5.112M275.229 410.046c-1.619.703-2.592 1.359-3.103 1.967 1.48 1.331 2.839 2.54 3.984 3.54 1.369.29 2.93.486 4.518.564-1.094.222-2.114.447-3.086.672a29 29 0 0 0 1.517 1.232c9.801-3.193 17.659-7.042 23.983-11.305-2.605.619-5.949 1.169-9.932 1.303-5.77.195-10.12-1.347-17.881 2.027M311.672 388.45c-4.935 3.699.276 4.015 6.36 3.013a110 110 0 0 0 4.803-7.75c-.012.002-.02.01-.027.014-3.51 1.5-5.739.674-11.136 4.723M195.624 227l-.01.004.072.12z"></path><path fill="#FFF" d="M187.061 251.42c1.043-.163.87-2.43.87-2.43s.696.971 1.738.809 1.043-2.186 1.043-2.186.869 1.214 1.912 1.053c1.043-.163 1.216-1.944 1.216-1.944s.869 1.133 2.086 1.133 1.39-1.782 1.39-1.782.174 1.296 1.391 1.134c1.216-.162 1.737-1.782 1.737-1.782s.522 1.539 1.651 1.377 1.304-1.944 1.304-1.944.174 1.539 1.738 1.458 1.304-1.863 1.304-1.863.347 1.701 1.564 1.62c1.216-.081 1.65-1.943 1.65-1.943s.174 1.701 1.391 1.62 1.564-1.862 1.564-1.862.087 1.619 1.304 1.539c1.216-.082 1.564-1.943 1.564-1.943s.348 1.862 1.651 1.781 1.304-1.943 1.304-1.943.695 1.62 1.912 1.62c1.216 0 1.737-1.943 1.737-1.943s.174 1.862 1.739 1.862c1.199 0 1.477-1.088 1.542-1.599-.003.47.169 1.423 1.586 1.599.968.12 1.456-.964 1.571-1.531.141.566.676 1.651 1.645 1.531 1.347-.167 1.522-1.031 1.513-1.52.083.536.39 1.52 1.529 1.52 1.564 0 1.738-1.862 1.738-1.862s.522 1.943 1.738 1.943c1.217 0 1.912-1.62 1.912-1.62s0 1.862 1.304 1.943 1.65-1.781 1.65-1.781.349 1.862 1.564 1.943c1.217.08 1.303-1.539 1.303-1.539s.348 1.781 1.564 1.862 1.391-1.62 1.391-1.62.435 1.863 1.651 1.943 1.564-1.62 1.564-1.62-.261 1.782 1.303 1.863 1.739-1.458 1.739-1.458.173 1.782 1.303 1.944 1.651-1.377 1.651-1.377.522 1.62 1.738 1.782c1.217.162 1.391-1.134 1.391-1.134s.173 1.782 1.39 1.782 2.086-1.133 2.086-1.133.173 1.781 1.216 1.944c1.043.161 1.911-1.053 1.911-1.053s0 2.024 1.043 2.186 1.738-.809 1.738-.809-.133 1.858.625 2.32q.638-.068 1.274-.114c.254-.192.36-.425.36-.425s.043.147.103.39a34 34 0 0 1 2.043-.073c1.884.239 4.256 1.116 6.896 2.45-2.203-8.8-11.075-19.525-16.576-24.288-8.176-3.229-24.905-5.783-40.349-5.776-10.915-.006-21.232 1.287-27.398 4.359-7.772 4.618-12.391 12.086-15.055 18.435-1.858 4.424-2.758 8.258-3.132 10.182l7.103-2.63c.123-1.767.678-3.048.678-3.048s.352.81 1.394.648"></path><path fill="#009B7A" d="M313.357 345.596c-1.476.619-4.892 2.697-7.592 5.904-.17-8.098 7.93-17.546 10.46-20.414 2.53-2.867 5.735-6.916 5.062-13.16-.399-3.703-2.868-6.918-4.724-14.17-3.038 11.471-8.436 10.627-11.474 4.721-3.037-5.901-7.592-25.305-8.94-37.791-3.375 8.773-4.387 30.033-2.362 42.179s5.397 24.633 2.024 40.152c-.338-7.086-1.181-12.821-3.374-17.545-2.42-5.213-4.454-4.203-3.712 0 3.037 17.209-4.05 34.08-3.374 43.528-2.025-7.087-1.688-10.799-3.375-13.497-1.686-2.697-3.374-4.389-3.374 2.022s-2.362 16.198-5.735 21.935c1.349-5.398 1.349-7.423 1.012-10.123-.338-2.699-3.037-4.05-4.387 1.687-1.35 5.739-.674 17.886-6.749 26.659 1.012-6.75 1.702-5.399.353-13.838-1.42 12.396-12.837 10.8-12.837 10.8s-1.315 21.175-18.333 33.756c-.207.255-.44.479-.688.684 5.731.932 14.088-1.078 25.094-4.916 11.135-3.879 10.966-6.241 7.254-5.734s-5.061.339-8.773 0c0 0 2.193-1.182 3.374-3.037s3.037-4.216 6.074-6.072 6.074-2.192 6.074-2.192-2.025-1.015-4.725-.17c-2.699.843-5.567 2.192-9.279 1.013 5.736-.17 8.604-2.192 10.966-4.22 2.361-2.021 4.893-5.904 11.641-7.758 6.747-1.855 11.137-.51 12.99-.34 1.855.17 3.543-1.181.844-2.362-2.697-1.181-6.242-1.181-9.785-.842 4.217-4.049 10.799-5.569 15.186-7.256s12.82-7.253 16.364-14.849c-2.193 2.025-3.558 2.656-8.772 4.22-3.375 1.014-4.387 3.882-4.387 3.882s-.676-4.725.844-7.086c0 0-6.243 3.709-11.643 3.204.17-11.302 13.498-23.788 17.886-28.007 4.386-4.219 7.712-6.315 9.784-10.461 2.195-4.385-1.686-1.857-4.892-.506M216.39 437.248c-9.661-8.809-10.675-25.87-11.683-29.229-1.012-3.374-4.387 1.012-3.037 4.049s3.037 10.124 2.361 14.509c0 0-4.049-11.135-9.11-19.233-4.082-6.53-5.736-16.194-5.736-24.293-7.085 2.362-12.147-6.41-12.147-13.16 0-6.748.675-22.943.675-22.943s-2.896 4.866-4.724 10.121c-2.7 7.762 3.037 12.822-.338 21.596-.337-8.436-4.723-17.547-7.761-25.98-3.037-8.438-4.724-15.522 0-27.33-4.724 1.348-7.423-4.725-4.387-12.822 3.037-8.102 9.786-29.357-.337-51.628-.675 8.773-1.35 13.498-4.386 19.908s-5.062 19.91-4.05 30.031c1.013 10.123 4.05 19.571 5.062 30.031-1.688-5.398-6.074-13.834-10.461-19.572-4.386-5.735-5.736-7.084-7.761-16.195-1.687 11.136 9.448 37.794 12.485 41.168 3.037 3.373 6.749 8.773 6.749 8.773s-3.375-3.375-9.449-6.752c-6.073-3.373-9.447-2.361-13.16-8.098q4.05 11.135 14.173 18.223c10.123 7.088 8.436 6.074 11.81 10.459 3.374 4.389 6.749 9.448 6.749 9.448s-5.622-4.705-9.786-7.086c-2.362-1.351-8.773-2.022-8.773-2.022s4.049 2.361 7.085 6.748c3.037 4.385 12.147 12.484 12.147 12.484s-7.761-5.063-15.184-7.762-14.172-5.061-18.222-9.784c1.013 4.385 6.074 10.796 14.847 13.158-13.834-1.013-17.208-6.411-20.583-9.449 2.699 7.426 8.098 11.476 16.534 12.485 8.436 1.013 13.497 4.726 13.497 4.726s-7.085-1.351-12.484 4.724c7.423-2.024 12.147-2.701 20.246.677 8.099 3.373 16.534 7.422 25.645 17.882 6.162 7.074 8.436 14.509 14.847 18.558-2.024 0-11.948-6.549-16.196-10.796-3.037-3.037-10.123-2.701-15.184-.339 7.423-.336 11.81.676 16.534 4.725 4.705 4.031 9.417 10.404 23.457 10.122l.012-.045q0-.009.024-.087M223.246 378.832c.005.151.01.299.01.452 0 1.522-.201 3.252-.86 4.837-.459 1.1-.637 1.961-.637 2.729-.01 1.998 1.25 3.418 1.995 6.627.174.754.249 1.594.249 2.479 0 4.316-1.774 9.817-2.612 13.45-.285 1.223-.406 2.513-.406 3.849-.003 3.375.79 7.061 1.755 10.922.328 1.308.458 2.465.458 3.512-.003 3.308-1.305 5.505-1.808 8.035q-.17.848-.17 1.42c.029 1.143.41 1.409 1.296 1.438.513 0 1.187-.129 1.985-.328.257-.552 2.113-4.621 2.113-9.885 0-1.417-.135-2.917-.466-4.456-.793-3.657-.678-4.744-1.352-8.104-.17-.851-.256-1.534-.256-2.151.003-1.878.781-3.101 2.291-6.378.827-1.802 1.024-2.665 1.024-3.383 0-.702-.194-1.315-.194-2.518 0-.563.043-1.26.171-2.154.335-2.359.419-4.123.419-5.719 0-1.599-.082-3.029-.082-4.72-.003-3.383.341-5.453 1.703-8.17.163-.327.276-.625.393-.925-1.07-.862-2.39-1.411-4.218-1.411-1.099 0-2.01.207-2.801.552"></path><path fill="#9D3393" d="M229.083 246.543c-.042 0-.039.121.006.295.038-.174.036-.295-.006-.295M227.439 262.928c-.713.011 1.519.073 0 0M232.012 246.849c-.004-.178-.032-.306-.032-.306s.002.127.032.306"></path><path fill="#9D3393" d="M190.62 256.093c-.337.759-.253 1.096.506 1.519s2.108-1.181 2.108-1.181-.59 1.771.675 2.361 2.446-1.434 2.446-1.434-.506 2.025.843 2.447c1.35.421 2.193-1.519 2.193-1.519s-.421 2.193 1.181 2.446 2.193-2.024 2.193-2.024-.271 2.284 1.603 2.616c1.435.252 2.193-1.771 2.193-1.771s-.084 1.939 1.519 2.193c1.603.252 2.109-1.856 2.109-1.856s-.168 2.024 1.772 2.277 1.855-2.108 1.855-2.108.337 2.193 2.277 2.362 1.855-2.108 1.855-2.108-.084 2.277 2.025 2.361 1.855-2.193 1.855-2.193.169 2.446 1.94 2.446 1.771-2.446 1.771-2.446.084 2.362 1.856 2.446l.041.002.296-.002c1.519 0 1.772-2.614 1.772-2.614s0 2.699 1.771 2.614 1.856-2.446 1.856-2.446 0 2.446 1.771 2.446c1.772 0 1.94-2.446 1.94-2.446s-.252 2.278 1.856 2.193 2.024-2.361 2.024-2.361-.084 2.277 1.856 2.108c1.94-.168 2.277-2.362 2.277-2.362s-.084 2.362 1.856 2.108c1.939-.253 1.771-2.277 1.771-2.277s.507 2.108 2.109 1.856c1.603-.254 1.518-2.193 1.518-2.193s.759 2.024 2.194 1.771c1.874-.332 1.603-2.616 1.603-2.616s.589 2.278 2.193 2.024c1.602-.253 1.181-2.446 1.181-2.446s.844 1.94 2.194 1.519c1.349-.422.843-2.447.843-2.447s1.181 2.025 2.446 1.434c1.265-.59.675-2.361.675-2.361s1.349 1.603 2.108 1.181.844-.674.507-1.434c2.867-.168.68-2.716.68-2.716s-.321.721-1.287.577c-.965-.144-.804-2.162-.804-2.162s-.644.864-1.609.72c-.966-.145-.966-1.946-.966-1.946s-.804 1.081-1.77.937c-.965-.145-1.126-1.73-1.126-1.73s-.804 1.009-1.931 1.009c-1.126 0-1.287-1.586-1.287-1.586s-.16 1.154-1.287 1.009c-1.126-.144-1.609-1.585-1.609-1.585s-.483 1.369-1.529 1.225-1.207-1.729-1.207-1.729-.161 1.369-1.608 1.297c-1.449-.073-1.208-1.658-1.208-1.658s-.321 1.513-1.448 1.441c-1.126-.071-1.528-1.729-1.528-1.729s-.161 1.514-1.288 1.441c-1.125-.071-1.448-1.657-1.448-1.657s-.08 1.442-1.207 1.369c-1.126-.072-1.448-1.729-1.448-1.729s-.321 1.657-1.528 1.585c-1.208-.071-1.208-1.73-1.208-1.73s-.643 1.442-1.77 1.442c-1.125 0-1.608-1.73-1.608-1.73s-.161 1.658-1.609 1.658c-1.054 0-1.338-.874-1.416-1.352.008.436-.153 1.203-1.399 1.352-.896.106-1.392-.859-1.522-1.363-.107.504-.558 1.47-1.454 1.363-1.311-.157-1.471-1.004-1.468-1.423-.061.456-.319 1.423-1.428 1.423-1.448 0-1.608-1.658-1.608-1.658s-.482 1.73-1.609 1.73-1.77-1.442-1.77-1.442 0 1.659-1.206 1.73c-1.208.072-1.529-1.585-1.529-1.585s-.322 1.657-1.448 1.729-1.207-1.369-1.207-1.369-.322 1.585-1.448 1.657-1.288-1.441-1.288-1.441-.402 1.659-1.528 1.729c-1.126.072-1.448-1.441-1.448-1.441s.241 1.585-1.208 1.658-1.608-1.297-1.608-1.297-.161 1.585-1.207 1.729-1.529-1.225-1.529-1.225-.483 1.442-1.609 1.585c-1.125.145-1.287-1.009-1.287-1.009s-.161 1.586-1.287 1.586-1.93-1.009-1.93-1.009-.161 1.585-1.126 1.73c-.965.144-1.77-.937-1.77-.937s0 1.801-.965 1.946c-.965.144-1.609-.72-1.609-.72s.161 2.018-.804 2.162-1.288-.577-1.288-.577-1.493 2.884 1.208 2.631"></path><path fill="#9D3393" d="M226.167 246.778c.019-.139.02-.235.02-.235s-.019.093-.02.235M192.729 261.913c-2.024-2.361-5.568-2.699 1.181 7.086 5.376 7.796 7.86 25.009 9.332 35.954.275.219.551.434.818.673-1.206-33.235-9.421-41.484-11.331-43.713"></path><path fill="#9D3393" d="M200.658 269.169c4.218 8.437 6.242 33.742 6.411 39.31.336-25.813-2.531-37.284-4.387-43.358-.733-2.401-5.162-2.229-2.024 4.048M209.599 266.468c-.254-2.495-3.766-2.886-2.699 4.049 1.152 7.486 2.671 15.484 3.931 28.984q.343.409.676.819c.041-20.364-1.141-26.344-1.908-33.852M212.805 271.53c.675 9.617 1.688 15.353 3.038 33.573.337-25.813.506-29.355-.338-37.622-.255-2.495-3.192-2.951-2.7 4.049M220.372 294.452c.376-17.825.935-19.887.194-27.14-.254-2.494-3.19-2.951-2.699 4.05.674 9.616 1.012 13.328 2.362 31.549.03-2.323.064-4.442.102-6.395-.131-.856-.283-1.762-.453-2.83.137.24.309.498.494.766M225.796 267.65c-.254-2.495-3.191-2.951-2.7 4.05.647 9.215.368 13.044 1.531 29.378q.093.215.182.432c.381-24.135 1.812-25.784.987-33.86M262.576 269.337c6.749-9.785 3.206-9.448 1.181-7.085-1.91 2.229-10.121 10.473-11.33 43.686q.398-.31.813-.615c1.47-10.945 3.953-28.182 9.336-35.986M253.634 264.95c-1.855 6.074-4.724 17.547-4.387 43.36.169-5.568 2.193-30.875 6.411-39.312 3.138-6.275-1.291-6.447-2.024-4.048M249.416 270.349c1.067-6.935-2.444-6.544-2.699-4.049-.752 7.368-1.905 13.274-1.908 32.743q.388-.353.766-.659c1.241-12.928 2.717-20.725 3.841-28.035M240.643 267.312c-.844 8.267-.675 11.811-.337 37.622 1.349-18.219 2.362-23.956 3.036-33.571.491-7.002-2.445-6.545-2.699-4.051M237.774 271.699c.491-7.001-2.444-6.544-2.7-4.05-.826 8.097-.034 9.735.316 34.046.055-.186.119-.371.178-.557 1.22-16.384 1.559-20.212 2.206-29.439M231.532 271.362c.491-7-2.445-6.544-2.699-4.05-.775 7.605.446 9.515.91 29.864q.282-.4.554-.771c.825-12.787.65-16.7 1.235-25.043"></path><path fill="#009B7A" d="M252.067 324.155c-1.741.842-4.216 1.742-7.354 1.742-5.87 0-8.43-6.171-8.43-6.171s-2.258 6.774-10.235 6.774c-7.979 0-10.235-6.774-10.235-6.774s-2.56 6.171-8.43 6.171a16.5 16.5 0 0 1-7.648-1.894c1.274-1.859 2.98-3.5 4.609-5.046 5.689 5.394 6.484-6.028 6.484-6.028s.001 5.276 4.84 5.445c7.375.26 9.911-9.334 9.911-9.334s2.305 9.594 9.68 9.334c4.838-.169 5.301-5.705 5.301-5.705s.152 9.764 6.195 5.146c2.058 1.754 3.757 4.117 5.312 6.34"></path><path fill="#009B7A" d="M194.438 337.422c7.7 7.715 12.343-.383 12.343-.383s.002 3.717 6.322 3.913c9.633.299 12.945-8.431 12.945-8.431s3.612 8.431 13.246 8.128c6.319-.197 6.322-3.913 6.322-3.913s4.508 7.91 12.156.564c-.659-4.273-2.342-8.338-4.513-11.875-.67 1.217-3.366 5.59-8.246 5.59-5.687 0-9.074-9.168-9.074-9.168s-2.187 8.865-9.916 8.865c-7.728 0-9.915-8.865-9.915-8.865s-3.943 8.869-9.63 8.869c-4.666 0-6.867-3.68-7.544-5.015-2.169 3.625-3.915 7.344-4.496 11.721" data-source="https://football-logos.cc"></path><path fill="#009B7A" d="M194.289 342.608c7.622 7.055 12.494-2.56 12.494-2.56s.002 6.123 6.322 6.32c9.633.303 12.945-10.836 12.945-10.836s3.01 11.139 12.644 10.836c6.319-.197 6.924-6.624 6.924-6.624s4.48 10.867 12.494 2.259c0 3.764-1.004 7.604-1.591 9.484-.896.619-5.422 3.1-10.812 3.1-6.223 0-8.935-4.867-8.935-4.867s-2.394 6.638-10.85 6.638-10.85-6.638-10.85-6.638-2.712 4.867-8.935 4.867c-5.55 0-9.525-2.638-10.276-3.171-.508-1.626-1.725-5.799-1.574-8.808"></path><path fill="#009B7A" d="M243.748 368.48a31.85 31.85 0 0 0 11.695-14.063c-1.225 1.563-5.618 5.438-10.378 5.438-6.029 0-8.656-8.055-8.656-8.055s-2.318 9.863-10.511 9.863c-8.191 0-10.51-9.863-10.51-9.863s-2.627 8.055-8.655 8.055c-5.077 0-8.53-3.528-9.521-4.863 2.475 5.518 6.887 10.33 11.879 13.639 2.545-.742 4.062-4.354 4.062-4.354s.002 6.09 4.2 6.207c6.399.179 8.599-7.043 8.599-7.043s2.4 7.043 8.798 6.863c4.199-.117 4.2-6.207 4.2-6.207s1.531 3.789 4.26 4.4z"></path><path fill="#E7A614" d="M53.608 46.084c17.351-5.639 46.413-10.845 62.463-12.146-25.158 6.94-46.848 20.82-46.848 20.82s56.39-20.386 78.08-22.556C118.241 39.576 90.479 59.53 90.479 59.53s38.171-17.35 52.052-21.254C117.806 46.95 94.816 75.58 94.816 75.58s41.208-31.665 68.102-42.509c-39.039 16.917-56.823 52.919-56.823 52.919s32.966-36.871 47.715-40.774c-17.351 9.109-23.424 34.702-23.424 34.702s27.761-45.545 63.33-51.185c-11.278-7.374-25.158-8.675-37.737-5.639s-32.533 7.808-45.98 7.808c-13.448 0-49.451 10.844-56.391 15.182"></path><path fill="#FFE300" d="M297.17 156.261c1.904 1.076 3.004 4.017 3.47 5.965s1.534 4.47 3.206 4.072c1.668-.399 2.579-4.17 2.65-5.807.108-2.495-1.17-6.795-3.688-10.194-.65 4.229-4.046 5.564-4.046 5.564s-3.212-2.45-5.281-3.721c-.673-.414 1.785 3.046 3.689 4.121"></path><path fill="#E7A614" d="M194.801 31.119c-29.642 5.319-38.822 34.918-38.822 34.918s17.35-26.46 35.785-30.147c7.668-1.533 11.495-6.29 3.037-4.771M200.448 33.513c-15.198 10.563-20.396 27.318-20.396 27.318s10.818-16.497 24.446-25.254c3.63-2.333.951-5.541-4.05-2.064M208.368 34.486c-9.475 9.827-12.917 20.924-12.917 20.924s8.069-12.306 19.048-21.302c1.733-1.42-3.965-1.869-6.131.378M282.855 60.832c-.65-4.988-13.23-9.327-22.339-9.327h-22.339s5.639 4.339 14.314 4.556 21.472-1.085 30.364 4.771M448.772 59.964c-29.063-15.832-65.717-19.302-78.079-20.169s-22.556 1.952-31.883 1.952c-9.325 0-29.931 1.518-46.63 16.483 8.676-4.555 20.821-10.411 28.629-10.411s22.773-3.904 31.665-3.904c8.894 0 54.44-.651 96.298 16.049"></path><path fill="#E7A614" d="M247.72 44.783c13.014-7.158 86.754-43.161 192.594 3.036 0 0-11.494-3.47-28.195-8.458 2.82 1.952 1.736 4.989 1.736 4.989s-7.157-9.109-21.688-9.76c2.819 2.386 1.733 6.073 1.733 6.073s-3.974-5.514-7.373-6.94c-6.724-2.819-18.436-3.47-18.436-3.47s3.902 4.338 5.205 6.941c-5.64-5.423-24.074-8.025-24.074-8.025s2.603 1.084 5.854 2.819c3.254 1.735 4.989 5.422 4.989 5.422s-6.94-3.687-11.712-5.422c-3.508-1.275-12.146-2.603-12.146-2.603s.218 0 3.471 1.952 2.82 7.157 2.82 7.157-2.604-3.037-6.073-5.422c-3.471-2.386-10.411-2.603-10.411-2.603s7.157 4.988 5.855 9.977c0 0-3.035-7.808-12.578-9.326-3.029-.482-8.242.217-8.242.217s2.387.867 4.339 3.037c1.952 2.168 1.517 7.808 1.517 7.808s-3.902-6.29-7.59-7.808-12.146 0-12.146 0 4.555 1.3 8.24 3.687c3.687 2.387 1.734 7.157 1.734 7.157s-1.301-5.206-8.023-7.591c-6.725-2.385-15.834-.65-15.834-.65s4.988.433 11.063 2.819c6.072 2.386 6.289 9.326 6.289 9.326s-2.604-5.422-11.061-7.591c-7.447-1.909-16.267-2.385-16.267-2.385s9.188 3.518 13.663 9.109c4.338 5.422 2.818 9.326 2.818 9.326s-3.035-8.025-10.625-10.628c-13.882-4.762-23.42-2.388-31.446-2.17M246.548 169.627c2.362-5.061 3.542-15.185 3.542-15.185s1.856.338 4.218-3.373c.675 4.049-4.724 17.209-7.76 18.558M248.742 173.002c-2.7 3.375-3.881 8.604-3.881 8.604s4.049-4.05 5.061-6.749c1.013-2.699-1.18-1.855-1.18-1.855M247.392 149.213s-3.543 7.93-1.688 11.304c1.35-7.423 6.749-9.11 9.111-18.559-5.568 7.761-10.798 7.93-10.798 7.93s-.337 2.193-3.543 6.073c-2.588 3.133-4.892 7.423-4.892 7.423s3.374-3.711 5.735-5.398c2.363-1.687 4.387-6.243 6.075-8.773M256.372 165.942c1.986 11.952-5.437 17.182-5.437 17.182s2.362-3.205 1.372-8.466c-.687-3.652 2.923-6.27 4.065-8.716M256.671 178.063c-.17 9.448 2.699 10.798 5.904 14.678-3.458-.506-5.146-2.531-7.423-5.062-.337 2.109-.337 3.29 0 5.398-1.35-1.519-2.7-5.567-2.7-5.567-1.349 2.447-2.024 5.315-2.7 8.099-.168-1.265-1.349-3.206-1.349-4.472 0-5.313 7.424-4.638 8.268-13.074M170.626 130.991c-4.049 7.086-14.509 24.295-20.245 31.044s-6.412 8.773-4.387 9.448 19.908-22.945 24.632-40.492M167.589 126.605c-3.374 7.423-7.498 14.429-13.16 18.896-2.48 1.957-3.273 3.577-1.35 4.049s11.474-8.773 14.51-22.945M172.961 134.993c-3.887 7.582-13.929 25.996-19.436 33.216-5.507 7.222-6.155 9.388-4.211 10.11 1.944.723 19.112-24.55 23.647-43.326M172.65 146.513c-3.731 8.113-6.86 15.556-12.147 23.282-5.286 7.727-5.908 10.044-4.042 10.817s11.836-14.01 16.189-34.099M197.79 171.145c-3.542-3.205-4.724-12.315-4.724-12.315s-.337 3.206-1.518 3.711c-1.182.507 1.348 6.074 6.242 8.604"></path><path fill="#E7A614" d="M196.271 179.075c-.844-4.387-3.375-13.497-3.375-13.497s-2.024 5.23-1.35 6.917c.478 1.193 2.026 1.688 4.725 6.58M195.427 185.148c-3.542-3.205-6.579-14.171-6.579-14.171s-.337 3.206-1.519 3.711c-1.181.506 3.206 7.93 8.098 10.46M195.765 195.271c-3.543-3.205-4.725-12.315-4.725-12.315s-.336 3.205-1.518 3.711c-1.18.507 1.351 6.074 6.243 8.604M191.547 95.562c1.687-3.375 7.423-8.099 7.423-8.099s-7.423 1.012-16.534 9.785c.337-3.712 5.062-15.184 13.497-23.283-6.749 1.35-12.148 7.086-12.148 7.086s2.362-10.798 10.798-17.884c-8.098.337-13.834 6.074-13.834 6.074 2.362-1.012 8.099-2.7 8.099-2.7s-9.111 6.411-17.547 22.271c2.025-3.375 10.123-9.448 10.123-9.448s-7.423 9.111-9.786 16.197c4.387-6.411 13.498-12.822 13.498-12.822s-11.473 12.484-15.184 25.644c5.399-8.773 10.122-12.485 10.122-12.485s-.674 1.35-2.361 5.398c2.024-2.7 9.448-4.386 9.448-4.386-3.375 2.362-4.049 7.762-4.049 7.762s3.037-3.712 9.11-3.712c-10.797 8.098-15.184 25.307-15.184 32.73 5.399-16.196 17.209-25.982 17.209-25.982s-4.05.338-6.412 1.688c2.024-4.049 11.135-10.46 14.847-12.823-3.712.338-8.436 3.038-8.436 3.038s5.061-6.074 10.797-8.099c-3.373-.337-9.784.675-13.496 4.05"></path><path fill="#E7A614" d="M179.399 102.311c-5.736 5.398-9.786 20.582-9.786 20.582s6.411-11.472 9.786-14.171c0 0-.674-3.712 0-6.411M281.977 102.986c3.037 2.024 5.734 11.134 5.734 11.134s-4.047-6.073-7.42-6.748c-3.375-.676 1.686-4.386 1.686-4.386M287.713 99.611c13.498 5.062 8.773 18.221 8.773 18.221s0-9.448-7.086-13.159c-2.465-1.292-1.687-5.062-1.687-5.062M259.707 116.482c3.375 3.374 11.136 3.374 11.136 3.374s-7.086-3.374-8.437-5.061c-1.348-1.686-2.699 1.687-2.699 1.687M268.48 110.408c3.375 3.375 10.123 6.074 10.123 6.074s-7.086-7.086-8.436-8.773-1.687 2.699-1.687 2.699M284.002 151.237c-1.688-5.736-4.447-11.7-8.771-14.172-7.086-4.049-11.811-10.46-11.811-10.46s.338 2.699 2.362 6.411 7.423 6.074 7.423 6.074-2.699.675-5.399-.337c-3.958-1.485-6.411-3.711-6.411-3.711s1.021 2.547 5.062 4.724c4.387 2.362 5.399 1.35 8.774 3.712 3.373 2.361 7.083 3.71 8.771 7.759"></path><path fill="#FFE300" d="M176.785 207.166c2.109-1.35 5.062-2.109 5.062-2.109s-.844.337-4.302 2.7c-3.459 2.362-3.374 4.303-3.121 5.483.364 1.701 4.856 2.071 5.989.844 2.025-2.193 2.109-4.218 4.302-6.074s5.652-3.458 8.183-2.784 4.488.825 5.737 2.025c2.192 2.108 3.964 2.699 5.398 2.53 1.173-.138 2.221-.995 2.362-3.542.085-1.52-1.012-2.025-2.868-1.688-1.855.338-5.905 0-7.423-.675-1.519-.675-3.374-1.012-4.049-2.699-.675-1.688-3.881-1.35-6.243-.674-2.361.674-4.049 0-4.049 0s-1.603 1.771-2.7 2.53c-1.096.759-5.483 3.037-8.267 3.712-2.784.674-5.82 2.108-5.989 4.133s.169 3.796 2.784 4.219c2.615.421 4.164-1.792 4.387-2.868.504-2.448 3.149-4.002 4.807-5.063M264.354 201.321c-2.294-1.002-5.329-1.291-5.329-1.291s.886.201 4.671 1.993 4.006 3.721 3.941 4.928c-.094 1.736-4.473 2.805-5.784 1.77-2.343-1.851-2.743-3.836-5.199-5.327-2.457-1.49-6.124-2.532-8.518-1.469s-4.304 1.517-5.349 2.897c-1.836 2.426-3.494 3.287-4.937 3.344-1.179.047-2.348-.634-2.887-3.13-.32-1.486.683-2.158 2.57-2.115 1.885.043 5.832-.923 7.226-1.827s3.175-1.528 3.577-3.3 3.622-1.938 6.061-1.643c2.438.297 3.999-.633 3.999-.633s1.86 1.499 3.062 2.077 5.892 2.142 8.747 2.373 6.08 1.173 6.562 3.146.427 3.776-2.09 4.602-4.392-1.118-4.781-2.147c-.882-2.337-3.738-3.459-5.542-4.248"></path><path fill="#E7A614" d="M53.608 46.084c17.351-5.639 46.413-10.845 62.463-12.146-25.158 6.94-46.848 20.82-46.848 20.82s56.39-20.386 78.08-22.556C118.241 39.576 90.479 59.53 90.479 59.53s38.171-17.35 52.052-21.254C117.806 46.95 94.816 75.58 94.816 75.58s41.208-31.665 68.102-42.509c-39.039 16.917-56.823 52.919-56.823 52.919s32.966-36.871 47.715-40.774c-17.351 9.109-23.424 34.702-23.424 34.702s27.761-45.545 63.33-51.185c-11.278-7.374-25.158-8.675-37.737-5.639s-32.533 7.808-45.98 7.808c-13.448 0-49.451 10.844-56.391 15.182"></path><path fill="#FFE300" d="M297.17 156.261c1.904 1.076 3.004 4.017 3.47 5.965s1.534 4.47 3.206 4.072c1.668-.399 2.579-4.17 2.65-5.807.108-2.495-1.17-6.795-3.688-10.194-.65 4.229-4.046 5.564-4.046 5.564s-3.212-2.45-5.281-3.721c-.673-.414 1.785 3.046 3.689 4.121"></path><path fill="#E7A614" d="M194.801 31.119c-29.642 5.319-38.822 34.918-38.822 34.918s17.35-26.46 35.785-30.147c7.668-1.533 11.495-6.29 3.037-4.771M200.448 33.513c-15.198 10.563-20.396 27.318-20.396 27.318s10.818-16.497 24.446-25.254c3.63-2.333.951-5.541-4.05-2.064M208.368 34.486c-9.475 9.827-12.917 20.924-12.917 20.924s8.069-12.306 19.048-21.302c1.733-1.42-3.965-1.869-6.131.378M282.855 60.832c-.65-4.988-13.23-9.327-22.339-9.327h-22.339s5.639 4.339 14.314 4.556 21.472-1.085 30.364 4.771M448.772 59.964c-29.063-15.832-65.717-19.302-78.079-20.169s-22.556 1.952-31.883 1.952c-9.325 0-29.931 1.518-46.63 16.483 8.676-4.555 20.821-10.411 28.629-10.411s22.773-3.904 31.665-3.904c8.894 0 54.44-.651 96.298 16.049"></path><path fill="#E7A614" d="M247.72 44.783c13.014-7.158 86.754-43.161 192.594 3.036 0 0-11.494-3.47-28.195-8.458 2.82 1.952 1.736 4.989 1.736 4.989s-7.157-9.109-21.688-9.76c2.819 2.386 1.733 6.073 1.733 6.073s-3.974-5.514-7.373-6.94c-6.724-2.819-18.436-3.47-18.436-3.47s3.902 4.338 5.205 6.941c-5.64-5.423-24.074-8.025-24.074-8.025s2.603 1.084 5.854 2.819c3.254 1.735 4.989 5.422 4.989 5.422s-6.94-3.687-11.712-5.422c-3.508-1.275-12.146-2.603-12.146-2.603s.218 0 3.471 1.952 2.82 7.157 2.82 7.157-2.604-3.037-6.073-5.422c-3.471-2.386-10.411-2.603-10.411-2.603s7.157 4.988 5.855 9.977c0 0-3.035-7.808-12.578-9.326-3.029-.482-8.242.217-8.242.217s2.387.867 4.339 3.037c1.952 2.168 1.517 7.808 1.517 7.808s-3.902-6.29-7.59-7.808-12.146 0-12.146 0 4.555 1.3 8.24 3.687c3.687 2.387 1.734 7.157 1.734 7.157s-1.301-5.206-8.023-7.591c-6.725-2.385-15.834-.65-15.834-.65s4.988.433 11.063 2.819c6.072 2.386 6.289 9.326 6.289 9.326s-2.604-5.422-11.061-7.591c-7.447-1.909-16.267-2.385-16.267-2.385s9.188 3.518 13.663 9.109c4.338 5.422 2.818 9.326 2.818 9.326s-3.035-8.025-10.625-10.628c-13.882-4.762-23.42-2.388-31.446-2.17M246.548 169.627c2.362-5.061 3.542-15.185 3.542-15.185s1.856.338 4.218-3.373c.675 4.049-4.724 17.209-7.76 18.558M248.742 173.002c-2.7 3.375-3.881 8.604-3.881 8.604s4.049-4.05 5.061-6.749c1.013-2.699-1.18-1.855-1.18-1.855M247.392 149.213s-3.543 7.93-1.688 11.304c1.35-7.423 6.749-9.11 9.111-18.559-5.568 7.761-10.798 7.93-10.798 7.93s-.337 2.193-3.543 6.073c-2.588 3.133-4.892 7.423-4.892 7.423s3.374-3.711 5.735-5.398c2.363-1.687 4.387-6.243 6.075-8.773M256.372 165.942c1.986 11.952-5.437 17.182-5.437 17.182s2.362-3.205 1.372-8.466c-.687-3.652 2.923-6.27 4.065-8.716M256.671 178.063c-.17 9.448 2.699 10.798 5.904 14.678-3.458-.506-5.146-2.531-7.423-5.062-.337 2.109-.337 3.29 0 5.398-1.35-1.519-2.7-5.567-2.7-5.567-1.349 2.447-2.024 5.315-2.7 8.099-.168-1.265-1.349-3.206-1.349-4.472 0-5.313 7.424-4.638 8.268-13.074M170.626 130.991c-4.049 7.086-14.509 24.295-20.245 31.044s-6.412 8.773-4.387 9.448 19.908-22.945 24.632-40.492M167.589 126.605c-3.374 7.423-7.498 14.429-13.16 18.896-2.48 1.957-3.273 3.577-1.35 4.049s11.474-8.773 14.51-22.945M172.961 134.993c-3.887 7.582-13.929 25.996-19.436 33.216-5.507 7.222-6.155 9.388-4.211 10.11 1.944.723 19.112-24.55 23.647-43.326M172.65 146.513c-3.731 8.113-6.86 15.556-12.147 23.282-5.286 7.727-5.908 10.044-4.042 10.817s11.836-14.01 16.189-34.099M197.79 171.145c-3.542-3.205-4.724-12.315-4.724-12.315s-.337 3.206-1.518 3.711c-1.182.507 1.348 6.074 6.242 8.604"></path><path fill="#E7A614" d="M196.271 179.075c-.844-4.387-3.375-13.497-3.375-13.497s-2.024 5.23-1.35 6.917c.478 1.193 2.026 1.688 4.725 6.58M195.427 185.148c-3.542-3.205-6.579-14.171-6.579-14.171s-.337 3.206-1.519 3.711c-1.181.506 3.206 7.93 8.098 10.46M195.765 195.271c-3.543-3.205-4.725-12.315-4.725-12.315s-.336 3.205-1.518 3.711c-1.18.507 1.351 6.074 6.243 8.604M191.547 95.562c1.687-3.375 7.423-8.099 7.423-8.099s-7.423 1.012-16.534 9.785c.337-3.712 5.062-15.184 13.497-23.283-6.749 1.35-12.148 7.086-12.148 7.086s2.362-10.798 10.798-17.884c-8.098.337-13.834 6.074-13.834 6.074 2.362-1.012 8.099-2.7 8.099-2.7s-9.111 6.411-17.547 22.271c2.025-3.375 10.123-9.448 10.123-9.448s-7.423 9.111-9.786 16.197c4.387-6.411 13.498-12.822 13.498-12.822s-11.473 12.484-15.184 25.644c5.399-8.773 10.122-12.485 10.122-12.485s-.674 1.35-2.361 5.398c2.024-2.7 9.448-4.386 9.448-4.386-3.375 2.362-4.049 7.762-4.049 7.762s3.037-3.712 9.11-3.712c-10.797 8.098-15.184 25.307-15.184 32.73 5.399-16.196 17.209-25.982 17.209-25.982s-4.05.338-6.412 1.688c2.024-4.049 11.135-10.46 14.847-12.823-3.712.338-8.436 3.038-8.436 3.038s5.061-6.074 10.797-8.099c-3.373-.337-9.784.675-13.496 4.05"></path><path fill="#E7A614" d="M179.399 102.311c-5.736 5.398-9.786 20.582-9.786 20.582s6.411-11.472 9.786-14.171c0 0-.674-3.712 0-6.411M281.987 71.675c.65-5.638-2.602-6.506-10.192-8.024s-24.942-.217-35.569-1.084-9.542-4.771-9.542-4.771-13.286 4.103-17.568.433c-1.519-1.301-5.422-3.471-1.735-13.88-13.88 18.218-3 50.686 23.207 65.933 23.857 13.881 31.448 12.579 31.448 12.579-11.061-4.337-14.964-10.193-14.964-10.193s6.29 1.952 9.326 2.169c-5.422-2.603-7.374-9.327-7.374-9.327s6.29 4.122 10.844 4.122c-5.422-4.772-5.639-12.58-5.639-12.58s7.808 6.941 14.315 7.374c-1.301-4.121-4.555-7.374-6.073-8.892 11.277 3.47 13.23 6.073 16.701 7.808-5.206-4.338-5.422-9.977-4.338-13.23 1.519 3.904 8.024 7.374 9.977 9.326-1.52-5.206 1.084-9.977 1.084-9.977.864-6.29-4.557-12.146-3.908-17.786m-31.697 46.164c-17.534-6.689-37.488-19.269-42.259-46.163.4 2.034 19.953 36.437 42.259 46.163m-9.141-19.578c-2.7-3.374-1.688-4.724-1.688-4.724s8.773 4.05 11.135 8.099c-2.362-1.013-6.747-.001-9.447-3.375m6.074-14.509 2.024-7.086s.338 3.712 2.362 8.099 4.724 8.772 4.724 8.772c-4.724-2.025-9.11-9.785-9.11-9.785m12.315.421c-1.074-8.075 1.079-12.201.848-13.283 1.525 8.566 6.537 19.548 11.829 23.93-7.137-3.233-8.697-6.511-12.677-10.647m11.628-15.449c1.115 3.552 6.685 7.494 6.685 7.494.167-2.618 1.81-3.348 2.646-5.107-.943 5.162-1.686 16.245 1.728 21.32-5.651-5.816-9.493-14.979-11.059-23.707"></path><path fill="#E7A614" d="M281.977 102.986c3.037 2.024 5.734 11.134 5.734 11.134s-4.047-6.073-7.42-6.748c-3.375-.676 1.686-4.386 1.686-4.386M287.713 99.611c13.498 5.062 8.773 18.221 8.773 18.221s0-9.448-7.086-13.159c-2.465-1.292-1.687-5.062-1.687-5.062M259.707 116.482c3.375 3.374 11.136 3.374 11.136 3.374s-7.086-3.374-8.437-5.061c-1.348-1.686-2.699 1.687-2.699 1.687M268.48 110.408c3.375 3.375 10.123 6.074 10.123 6.074s-7.086-7.086-8.436-8.773-1.687 2.699-1.687 2.699M284.002 151.237c-1.688-5.736-4.447-11.7-8.771-14.172-7.086-4.049-11.811-10.46-11.811-10.46s.338 2.699 2.362 6.411 7.423 6.074 7.423 6.074-2.699.675-5.399-.337c-3.958-1.485-6.411-3.711-6.411-3.711s1.021 2.547 5.062 4.724c4.387 2.362 5.399 1.35 8.774 3.712 3.373 2.361 7.083 3.71 8.771 7.759"></path><path fill="#FFE300" d="M176.785 207.166c2.109-1.35 5.062-2.109 5.062-2.109s-.844.337-4.302 2.7c-3.459 2.362-3.374 4.303-3.121 5.483.364 1.701 4.856 2.071 5.989.844 2.025-2.193 2.109-4.218 4.302-6.074s5.652-3.458 8.183-2.784 4.488.825 5.737 2.025c2.192 2.108 3.964 2.699 5.398 2.53 1.173-.138 2.221-.995 2.362-3.542.085-1.52-1.012-2.025-2.868-1.688-1.855.338-5.905 0-7.423-.675-1.519-.675-3.374-1.012-4.049-2.699-.675-1.688-3.881-1.35-6.243-.674-2.361.674-4.049 0-4.049 0s-1.603 1.771-2.7 2.53c-1.096.759-5.483 3.037-8.267 3.712-2.784.674-5.82 2.108-5.989 4.133s.169 3.796 2.784 4.219c2.615.421 4.164-1.792 4.387-2.868.504-2.448 3.149-4.002 4.807-5.063M264.354 201.321c-2.294-1.002-5.329-1.291-5.329-1.291s.886.201 4.671 1.993 4.006 3.721 3.941 4.928c-.094 1.736-4.473 2.805-5.784 1.77-2.343-1.851-2.743-3.836-5.199-5.327-2.457-1.49-6.124-2.532-8.518-1.469s-4.304 1.517-5.349 2.897c-1.836 2.426-3.494 3.287-4.937 3.344-1.179.047-2.348-.634-2.887-3.13-.32-1.486.683-2.158 2.57-2.115 1.885.043 5.832-.923 7.226-1.827s3.175-1.528 3.577-3.3 3.622-1.938 6.061-1.643c2.438.297 3.999-.633 3.999-.633s1.86 1.499 3.062 2.077 5.892 2.142 8.747 2.373 6.08 1.173 6.562 3.146.427 3.776-2.09 4.602-4.392-1.118-4.781-2.147c-.882-2.337-3.738-3.459-5.542-4.248"></path><path fill="#FFF" d="M295.979 136.95c-2.376-1.95-2.851-1.818-3.819-3.912s-1.735-2.991-1.735-2.991-.013 4.065 1.53 6.145c-1.229 1.232-2.502 2.208-.099 5.269 2.247 2.863 4.658.856 4.658.856s2.014 2.698 1.61 4.94c2.145-3.603-.858-9.252-2.145-10.307m.359 3.596a2.36 2.36 0 0 1-3.899-1.793c0-.563.261-1.281.589-1.688.433-.535 3.814 3.047 3.31 3.481" data-source="https://football-logos.cc"></path><!-- source: https://football-logos.cc --></svg>