<svg xmlns="http://www.w3.org/2000/svg" xml:space="preserve" version="1.0" viewBox="0 0 395 395"><!-- Source: https://football-logos.cc --><path d="M0 197.5C0 306.402 88.598 395 197.5 395S395 306.401 395 197.5C395.001 88.598 306.402 0 197.5 0S0 88.598 0 197.5" data-source="https://football-logos.cc"></path><path fill="#FFF" d="M8.505 197.5C8.505 93.289 93.288 8.505 197.5 8.505s188.995 84.784 188.995 188.996S301.712 386.496 197.5 386.496 8.505 301.713 8.505 197.5"></path><path d="m163.5 377.173-4.857-1.03 3.88-18.306q-3.19 1.926-7.056 2.351l.934-4.407q2.034-.217 4.633-1.483 2.597-1.266 3.919-3.405l3.941.835zM187.675 366.488q-1.056 1.062-2.482.963-1.481-.098-2.388-1.338-.907-1.238-.738-3.741.168-2.466 1.149-3.49.982-1.022 2.356-.929 1.445.1 2.457 1.495t.849 3.794q-.15 2.183-1.203 3.246m-8.671 11.797q1.759 1.737 4.79 1.943 4.213.284 7.05-2.673 2.84-2.958 3.32-10.045.47-6.959-1.842-10.171-2.314-3.212-6.244-3.479-3.613-.245-6.111 2.002t-2.765 6.179q-.256 3.772 1.797 6.273t5.101 2.711q2.802.188 4.817-1.851-.6 4.419-1.771 5.757-1.17 1.336-2.704 1.232-1.216-.085-1.908-.837-.693-.755-.769-2.229l-4.83.203q.31 3.245 2.069 4.985M210.565 358.473q.735.526 1.313 2.193.58 1.67.9 6.214.324 4.546-.053 6.486-.284 1.51-.947 2.132a2.47 2.47 0 0 1-1.565.684 2.46 2.46 0 0 1-1.634-.45q-.736-.516-1.314-2.183-.578-1.669-.9-6.216t.054-6.503q.28-1.507.948-2.129a2.48 2.48 0 0 1 1.562-.688 2.43 2.43 0 0 1 1.636.46m-7.59-1.511q-2.313 3.389-1.793 10.685.523 7.437 3.04 10.172 2.513 2.737 6.283 2.469 3.754-.263 5.665-3.057 2.31-3.387 1.792-10.719-.52-7.348-3.266-10.342-2.303-2.528-6.057-2.264-3.755.267-5.664 3.056M231.645 364.861q.732-1.303 2.128-1.606 1.45-.31 2.665.631 1.212.938 1.745 3.407.514 2.4-.156 3.646-.671 1.246-2.017 1.536-1.4.301-2.761-.751-1.365-1.051-1.874-3.417-.46-2.142.27-3.446m5.031-13.67q-2.236-1.206-5.119-.588-4.107.885-6.019 4.51-1.91 3.626-.414 10.58 1.457 6.785 4.566 9.231 3.107 2.447 6.94 1.623 3.573-.768 5.348-3.606 1.774-2.835.937-6.721-.787-3.66-3.45-5.505-2.664-1.847-5.699-1.195-2.696.582-4.047 3.109-.664-4.424.101-6.036.765-1.608 2.301-1.938 1.157-.249 2.03.286.873.533 1.359 1.947l4.583-1.526q-1.178-2.96-3.417-4.171M30.853 256.039q-1.149-3.401-1.309-4.145-.26-1.253.225-2.098.487-.844 1.592-1.217 1.157-.39 2.102.08c.632.31 1.136.865 1.512 1.656q.312.657 1.263 3.47l1.065 3.158-5.517 1.863zm22.446.869-2.741-8.121q-1.587-4.594-2.124-5.755-.859-1.85-2.222-2.848-1.36-1-3.154-1.236a7.5 7.5 0 0 0-3.421.311q-2.066.7-3.201 2.387-1.133 1.689-1.032 4.083a5.9 5.9 0 0 0-2.927-1.741 5.88 5.88 0 0 0-3.38.135q-1.544.523-2.544 1.676-.997 1.153-1.375 2.503a6.6 6.6 0 0 0-.144 2.822q.235 1.47 1.19 4.302l3.219 9.537zm-13.338-5.195q-1.108-3.287-1.101-4.389.011-1.099.583-1.872.574-.775 1.647-1.138 1.27-.428 2.253-.008.985.42 1.543 1.429.383.65 1.262 3.254l1.505 4.458-6.38 2.155zM23.708 228.796l-.588-3.926q-.458-3.061-.465-3.685.022-1.256.693-2.043.673-.787 1.931-.975 1.123-.167 1.946.23.826.399 1.266 1.253.441.856.983 4.476l.558 3.723zm20.706-3.101-10.403 1.559-.152-1.02q-.259-1.735-.1-2.575.162-.841.811-1.669.65-.828 3.267-3.199l4.878-4.452-.901-6.016-4.406 3.771q-2.637 2.236-3.618 3.472-.979 1.231-1.687 3.006-.967-3.209-3.042-4.585-2.073-1.375-4.879-.957-2.21.333-3.765 1.678-1.554 1.345-1.954 3.256t.198 5.907l1.586 10.591 24.922-3.734zM41.772 203.395l-25.188-.524.388-18.678 4.261.09-.283 13.592 5.585.114.262-12.645 4.243.087-.262 12.647 6.856.141.292-14.072 4.243.087zM36.792 160.279l2.468-4.546q3.834 1.895 5.301 4.862t.699 6.949q-.949 4.927-4.925 7.45t-9.814 1.399q-6.175-1.188-8.977-5.036-2.801-3.847-1.801-9.043.874-4.538 4.103-6.856 1.91-1.38 5.042-1.653l.229 5.17q-2.007.068-3.389 1.246-1.38 1.178-1.765 3.168-.529 2.75 1.115 4.843t6.064 2.944q4.69.904 7.005-.4 2.317-1.303 2.836-4.003.384-1.991-.606-3.669-.989-1.677-3.585-2.825M48.632 151.087l-23.515-9.055 1.828-4.749 9.256 3.564 3.582-9.303-9.256-3.564 1.828-4.748 23.515 9.053-1.828 4.749-10.282-3.959-3.582 9.303 10.281 3.958zM59.409 125.78l-22.145-11.981 2.419-4.471 22.145 11.981zM65.259 114.867l-20.433-14.714 2.89-4.014 19.667 1.464-13.645-9.827 2.761-3.833 20.433 14.715-2.981 4.14-19.256-1.357 13.324 9.595zM96.983 66.741l4.797-1.944q1.759 3.902 1.005 7.128t-3.877 5.814q-3.867 3.205-8.542 2.626-4.677-.578-8.473-5.159-4.014-4.845-3.735-9.598.281-4.755 4.357-8.134 3.561-2.95 7.529-2.691 2.354.148 4.947 1.93l-3.11 4.141q-1.596-1.223-3.411-1.192-1.815.03-3.378 1.326-2.157 1.789-2.218 4.451t2.814 6.13q3.05 3.68 5.668 4.145 2.618.466 4.736-1.291 1.563-1.293 1.865-3.219t-.974-4.463M112.277 67.299l-13.476-21.27 4.295-2.721 13.476 21.27zM127.859 58.326l-9.081-18.873-6.741 3.243-1.85-3.843 18.053-8.686 1.85 3.843-6.725 3.236 9.081 18.873zM150.596 49.106l-3.028-10.168-13.018-11.356 5.719-1.703 8.533 7.865 2.724-11.217 5.62-1.674-4.706 16.671 3.019 10.136zM181.228 42.577l-1.291-25.151 17.242-.884.218 4.255-12.163.624.306 5.954 10.499-.539.218 4.255-10.5.539.549 10.688zM213.145 23.408q2.164-1.918 5.289-1.552 3.124.367 4.764 2.707 1.636 2.34 1.132 6.643-.513 4.356-2.708 6.306-2.193 1.95-5.216 1.594t-4.729-2.781-1.206-6.678q.506-4.32 2.674-6.239m-5.708 15.571q2.897 3.793 8.48 4.45 5.515.648 9.214-2.389t4.413-9.101q.717-6.114-2.201-9.936t-8.452-4.473q-3.057-.36-5.513.355-1.844.529-3.502 1.874a11.9 11.9 0 0 0-2.734 3.159q-1.45 2.462-1.897 6.287-.703 5.979 2.192 9.774M245.407 29.416q2.481-1.475 5.48-.53 2.997.946 4.166 3.55 1.167 2.603-.135 6.729-1.32 4.176-3.839 5.678-2.52 1.5-5.417.585-2.899-.914-4.118-3.615-1.218-2.698.07-6.778 1.31-4.144 3.793-5.619m-8.521 14.204q2.128 4.264 7.485 5.956 5.288 1.67 9.488-.615c2.797-1.522 4.811-4.221 6.033-8.099q1.852-5.864-.292-10.161-2.148-4.297-7.452-5.974-2.935-.925-5.475-.684-1.911.17-3.788 1.18a11.9 11.9 0 0 0-3.276 2.585q-1.883 2.143-3.043 5.812-1.809 5.734.32 10M266.587 58.066l9.601-18.589-6.638-3.431 1.955-3.785 17.779 9.185-1.955 3.785-6.623-3.422-9.603 18.589zM301.288 54.62q2.878 2.149 3.435 2.669.927.885 1.007 1.856t-.618 1.909q-.732.98-1.777 1.131-1.049.152-2.186-.506-.632-.364-3.015-2.14l-2.675-1.995 3.485-4.672zm-18.984 12.051 6.877 5.129q3.917 2.882 5.022 3.533 1.76 1.033 3.45 1.083 1.69.047 3.303-.775 1.61-.825 2.641-2.203 1.305-1.75 1.279-3.786-.028-2.037-1.472-3.951a5.9 5.9 0 0 0 3.398-.231 5.87 5.87 0 0 0 2.709-2.035q.974-1.309 1.142-2.826.168-1.516-.29-2.845a6.5 6.5 0 0 0-1.489-2.407q-1.027-1.078-3.425-2.867l-8.077-6.024zm13.941-3.307q2.783 2.075 3.402 2.988.619.91.585 1.875-.031.962-.709 1.872-.802 1.074-1.852 1.289t-2.082-.299q-.685-.317-2.892-1.961l-3.775-2.817 4.03-5.403zM315.577 81.421l9.146-3.929-4.432 8.938zm15.316-5.954-3.688-3.919-25.086 10.12 3.698 3.933 5.597-2.409 6.903 7.339-2.663 5.527 3.794 4.032zM322.202 104.173l20.757-13.948 2.837 4.226-17.229 11.579 7.059 10.507-3.524 2.369zM334.949 124.098l22.604-10.63 2.166 4.602-18.767 8.825 5.382 11.442-3.84 1.806zM360.411 171.418l-.583 5.144q-4.268-.32-6.743-2.522-2.472-2.204-3.255-6.185-.967-4.928 1.774-8.759 2.743-3.834 8.581-4.98 6.175-1.212 10.216 1.305t5.063 7.714q.892 4.537-1.232 7.899-1.255 1.998-4.058 3.426l-2.151-4.711c1.223-.545 2.117-1.354 2.674-2.427q.842-1.611.451-3.601-.54-2.75-2.851-4.075t-6.729-.456q-4.689.921-6.349 3-1.66 2.077-1.13 4.777.39 1.99 1.938 3.176 1.548 1.183 4.384 1.275M352.767 184.572l24.982-.766.156 5.086-20.739.636.388 12.646-4.244.129zM378.016 211.357l-.668 5.041-13.518-1.791q-3.22-.428-4.196-.366-1.575.12-2.665 1.216-1.091 1.093-1.369 3.205-.285 2.144.448 3.351.732 1.205 1.98 1.598 1.248.389 4.209.782l13.809 1.829-.667 5.04-13.111-1.738q-4.495-.594-6.296-1.249t-2.934-1.921q-1.131-1.27-1.644-3.206-.514-1.94-.123-4.902.474-3.576 1.545-5.314 1.071-1.74 2.531-2.636 1.464-.897 2.954-1.046 2.213-.21 6.4.345zM366.415 249.17q-1.091 3.42-1.406 4.118-.533 1.164-1.425 1.556c-.892.392-1.263.274-2.005.037q-1.163-.37-1.649-1.311-.485-.938-.232-2.23.135-.715 1.04-3.547l1.013-3.178 5.551 1.771zm-17.581-14.015-2.606 8.173q-1.445 4.645-1.701 5.898-.404 2 .1 3.613c.339 1.077.94 2.033 1.811 2.871q1.305 1.254 2.944 1.777 2.078.661 3.993-.027 1.918-.688 3.256-2.678a5.93 5.93 0 0 0 1.326 3.14 5.9 5.9 0 0 0 2.808 1.894q1.554.498 3.043.159 1.486-.335 2.593-1.203a6.54 6.54 0 0 0 1.789-2.189q.685-1.325 1.595-4.173l3.06-9.598zm7.672 12.099q-1.056 3.308-1.716 4.19-.66.88-1.582 1.166-.918.281-2-.063-1.279-.406-1.822-1.329-.545-.921-.397-2.066c.053-.501.355-1.624.914-3.372l1.432-4.486 6.419 2.048z"></path><path d="M197.5 344.298c80.943 0 146.797-65.854 146.797-146.798S278.443 50.702 197.5 50.702c-80.945 0-146.798 65.853-146.798 146.798.001 80.944 65.854 146.798 146.798 146.798"></path><path fill="#FFF" d="M55.806 197.5c0-78.131 63.564-141.695 141.695-141.695 78.129 0 141.694 63.564 141.694 141.695 0 78.13-63.565 141.695-141.694 141.695-78.131 0-141.695-63.565-141.695-141.695"></path><path d="M197.501 233.334c-27.826 0-50.465 22.638-50.465 50.465s22.639 50.466 50.465 50.466 50.466-22.638 50.466-50.466-22.639-50.465-50.466-50.465" data-source="https://football-logos.cc"></path><path fill="#DB001B" d="M288.786 221.926h-5.954V211.72a1.7 1.7 0 1 0-3.402 0v10.206h-5.954a1.702 1.702 0 0 0 0 3.402h5.954v10.418a1.702 1.702 0 1 0 3.402 0v-10.418h5.954a1.7 1.7 0 1 0 0-3.402M158.264 188.576l-10.206-6.166a1.7 1.7 0 0 0-2.58 1.456v16.16a1.7 1.7 0 1 0 3.402 0v-13.145l7.625 4.606a1.7 1.7 0 0 0 1.759-2.911M133.146 177.274v20.625a1.7 1.7 0 1 0 3.402 0v-20.625a1.7 1.7 0 1 0-3.402 0M136.406 156.443a1.7 1.7 0 0 0-2.403-.078l-6.804 6.379-.538.503v12.963000000000001a1.702 1.702 0 0 0 3.402 0v-11.489l6.267-5.875a1.7 1.7 0 0 0 .076-2.403M159.994 161.741l-9.143-4.89a1.7 1.7 0 0 0-2.503 1.5v18.605c0 .627.346 1.203.899 1.5l9.143 4.891a1.703 1.703 0 0 0 2.503-1.5v-18.604a1.7 1.7 0 0 0-.899-1.502m-2.503 17.266-5.741-3.071V161.19l5.741 3.07zM119.072 155.748a1.7 1.7 0 0 0-1.631-.11l-11.694 5.422c-.602.278-.986.88-.986 1.543v31.043a1.7 1.7 0 0 0 2.417 1.543l11.694-5.422c.601-.279.985-.881.985-1.543v-31.043a1.7 1.7 0 0 0-.785-1.433m-2.617 4.097v27.293l-8.292 3.845V163.69z"></path><path fill="#FFF" d="m181.823 276.664-14.358 9.475.07 19.103 14.591 9.847 14.956-8.899-.001-20.127zM181.672 274.728l3.415-18.744-8.746-6.939-14.736 7.499-5.33 18.282 10.345 9.833zM158.042 255.167a48.5 48.5 0 0 0-8.973 23.163l5.348-3.204 5.358-18.373zM228.862 298.816l-.483-19.115-13.667-6.247-15.929 12.592-.002 19.578 15.633 6.729zM215.329 271.865l14.017 6.406 13.759-11.724c-2.408-6.398-6.214-12.372-11.382-17.465l-16.7-2.762-7.795 8.905zM205.944 254.108l7.729-8.828-7.827-9.506a49.14 49.14 0 0 0-21.666 1.138l-6.739 10.831 8.651 6.867zM166.779 306.783l-9.176 5.058a49 49 0 0 0 6.297 7.301 48.4 48.4 0 0 0 21.853 11.961l-3.891-14.141zM215.73 313.451l-3.587 16.847a48.44 48.44 0 0 0 20.696-12.897 48.7 48.7 0 0 0 6.264-8.167l-9.835-8.468z"></path><path fill="#DB001B" d="M185.31 199.741a4.61 4.61 0 0 1 4.606-4.606 4.61 4.61 0 0 1 4.607 4.606v33.689a51 51 0 0 1 2.977-.096c.142 0 .282.01.425.012v-33.605a4.61 4.61 0 0 1 4.608-4.606 4.61 4.61 0 0 1 4.604 4.606v34.528q1.76.343 3.475.803v-43.056c0-7.934-10.992-16.089-14.389-16.089-3.398 0-14.388 8.155-14.388 16.089v43.819a49 49 0 0 1 3.474-1.003v-35.091zm-.071-7.724c0-6.058 9.464-12.688 10.986-12.688 1.521 0 10.987 6.63 10.987 12.688v1.253c-1.321-.956-2.928-1.537-4.678-1.537-2.575 0-4.843 1.241-6.309 3.132-1.466-1.891-3.735-3.132-6.308-3.132a7.94 7.94 0 0 0-4.678 1.538z"></path><path fill="#DB001B" d="m280.082 86.573-17.236 55.445v46.149l-54.239-36.64-.041.056a1.7 1.7 0 0 0-.79-.214h-17.009c-.939 0-1.701.739-1.701 1.65v7.357h-5.528c-.939 0-1.701.739-1.701 1.651v7.288h-6.094c-.939 0-1.701.739-1.701 1.65v6.635h-6.875v-22.38L131.64 75.029l-35.702 82.667v135.729l.753 1.488 30.479 14.186c.126.149 13.312 1.731 28.969 3.558a50 50 0 0 1-2.201-3.432l-8.67-.976V291.98c0-.912-.762-1.649-1.701-1.649s-1.701.738-1.701 1.649v15.888l-2.764-.311v-18.052c0-.912-.762-1.649-1.701-1.649s-1.701.737-1.701 1.649v17.669l-2.126-.239v-28.568c0-.914-.762-1.651-1.701-1.651s-1.701.737-1.701 1.651v-92.619c0-.912-.762-1.651-1.701-1.651s-1.701.739-1.701 1.651V305.25l-12.333-5.741v-20.525c0-.569-.303-1.1-.802-1.4l-7.335-4.435a1.74 1.74 0 0 0-1.725-.042c-.54.289-.875.842-.875 1.441v19.964l-4.359-2.03v-59.71l5.528-2.482v12.183c0 .912.762 1.651 1.701 1.651s1.701-.739 1.701-1.651v-13.708l10.708-4.802c.852-.384 1.224-1.364.83-2.191s-1.405-1.188-2.257-.804l-18.21 8.167v-21.323l5.528-2.48v12.183c0 .912.762 1.649 1.701 1.649s1.701-.738 1.701-1.649v-13.709l10.708-4.801c.852-.383 1.224-1.364.83-2.191s-1.405-1.187-2.257-.805l-18.21 8.167v-44.953l25.081-15.377 39.345 13.898v58.535l-14.777-6.565v-5.089c0-.912-.762-1.651-1.701-1.651s-1.701.739-1.701 1.651v14.232c0 .911.762 1.651 1.701 1.651s1.701-.74 1.701-1.651v-5.513l14.777 6.563v26.402a52 52 0 0 1 3.402-2.808v-62.599h8.577c.939 0 1.701-.739 1.701-1.65v-6.635h6.095c.939 0 1.701-.739 1.701-1.651v-7.288h5.528c.939 0 1.701-.738 1.701-1.65v-7.357h13.607v7.357c0 .912.763 1.65 1.702 1.65h5.528v7.288c0 .912.762 1.651 1.701 1.651h6.096v6.635c0 .911.761 1.65 1.701 1.65h4.395v62.13a52 52 0 0 1 3.402 2.722v-63.035l8.44 6.23c-.032.125-.078.242-.078.375v27.642c0 .91.761 1.649 1.701 1.649s1.701-.74 1.701-1.649v-25.563l9.462 6.983v45.257c0 .911.76 1.651 1.701 1.651.94 0 1.701-.741 1.701-1.651v-42.747l7.618 5.625v95.917l-20.674 4.807a50 50 0 0 1-2.307 3.931l25.082-5.833.159-.038.153-.066 31.608-14.055V141.158zM107.099 295.487v-17.963l3.934 2.377v18.026l-3.934-1.83zm-2.339-143.492-3.82 2.343 3.82-8.794zm11.695-7.171-8.292 5.085v-10.137l8.292-3.73zm6.167-3.781-2.766 1.695v-9.281c0-.563-.295-1.087-.785-1.391a1.75 1.75 0 0 0-1.631-.106l-8.425 3.79 19.891-45.78zm3.442-.127 5.984-48.639 10.5 54.461zm20.198 7.133L135.479 92.12l27.584 61.864zm116.584 54.326-32.575-24.043a1.68 1.68 0 0 0-1.372-.73h-4.396v-6.635c0-.911-.761-1.65-1.701-1.65h-6.097v-7.288c0-.912-.76-1.651-1.701-1.651h-5.528v-4.239l53.369 36.051zm17.211-104.336 5.246 17.058c-.452.296-.769.774-.769 1.344v13.82c0 .912.763 1.65 1.701 1.65.94 0 1.701-.739 1.701-1.65v-6.598l4.389 14.27c-3.38-1.762-7.784-2.823-12.681-2.823-4.533 0-8.651.908-11.922 2.438zm13.407 191.026-27.216 12.102V149.405c2.887-2.366 7.842-3.982 13.395-3.982q1.082 0 2.126.08v15.288c0 .911.762 1.65 1.701 1.65s1.701-.739 1.701-1.65v-14.802q1.706.35 3.209.89c-.001.032-.02.059-.02.091v16.09c0 .911.762 1.65 1.701 1.65.941 0 1.702-.739 1.702-1.65v-14.571c.627.392 1.213.803 1.701 1.248zm0-143.46c-3.499-2.151-8.345-3.483-13.821-3.483-5.246 0-9.93 1.215-13.395 3.208v-2.938c2.887-2.366 7.842-3.982 13.395-3.982 5.821 0 11.013 1.76 13.821 4.313z" data-source="https://football-logos.cc"></path><!-- source: https://football-logos.cc --></svg>