<svg xmlns="http://www.w3.org/2000/svg" viewBox="0 0 700 700"><!-- Source: https://football-logos.cc --><defs data-source="https://football-logos.cc"><style>.cls-1{fill:#cc383f}.cls-2{fill:#fff}</style></defs><path d="M700 350c0 193.29-156.7 350-350 350S0 543.29 0 350 156.7 0 350 0s350 156.7 350 350" class="cls-1"></path><path d="M691 350c0 188.3-152.65 341-341 341S9 538.3 9 350 161.69 9 350 9s341 152.69 341 341" class="cls-2"></path><circle cx="350" cy="350" r="316.48" class="cls-1"></circle><circle cx="350" cy="350" r="214.17" class="cls-2"></circle><path d="m130.14 495.15 14.86-9.21 4.29 6.91-33.08 20.54-4.29-6.91 12.53-7.78-8-12.91-12.53 7.78-4.29-6.91 33.08-20.54L137 473l-14.84 9.21Zm-34.75-38.44v-.1l12.34-10.41 3.84 9.15Zm23.17-2L113 441.5l6.44-5.4L116 428l-30.6 27.71 3.6 8.6 41.28-2.26-3.31-7.9Zm-12.4-67.82 1.7 7.4-31.71 7.29v.11l33.34-.21 1.79 7.77-30.1 14.21v.11l31.71-7.29 1.71 7.4-37.93 8.72L74 420.83l28.33-13.75v-.11l-31.47.12-2.64-11.47Zm-1.11-15.33.83 8.09-38.73 4-.84-8.09Zm-7.93-16.01L97 336.18h7l.13 27.5-38.94.18v-8.13Zm8.96-36.81-.89 8.09-31.86-3.51L72.05 335l-6.85-.75 3.46-31.48 6.85.75-1.29 11.7Zm-15.56-25.37C80 290.63 78.9 284 80 279.72s5.28-9.56 15.83-6.82 11.63 9.41 10.52 13.66-5.28 9.55-15.83 6.81m-2 7.88c17.7 4.59 23.25-8 24.55-13s2.55-18.67-15.14-23.26-23.25 8-24.54 13-2.61 18.66 15.08 23.26Zm4.61-74.64 3.09-6.94 35.57 15.85-3.32 7.48-31.83 3.22v.09L122 257.57l-3.09 6.93-35.61-15.85 3.49-7.82 31.06-3.08v-.1Zm34.26-39.81.06-.09 15.28 5.23-5.88 8ZM141 205.67l8.5-11.58 7.95 2.74 5.23-7.13-39.5-12-5.56 7.56 23.17 34.24 5.07-6.9Zm21.55-53.06c-2.12-1.17-6.13-3.36-10.84 1.44-2.74 2.78-4.91 8.71 2.94 16.43 5 4.9 11.42 7.34 16.24 2.43 3.16-3.21 3.55-7.24.83-11.28l5.7-5.81c4.89 7.09 5.23 15.18-1.61 22.15-7.26 7.38-17.46 7.78-27.05-1.65s-9.15-20-2.12-27.17c8.18-8.32 17.21-6.06 21.61-2.33Zm22.19-23.69.08-.06 13.1 9.44-7.92 5.94Zm7.52 22 11.51-8.62 6.8 4.94 7.08-5.3-34.31-23-7.51 5.62L188 164.11l6.9-5.11Zm20.4-42.87 6.89-3.68c3.06-1.63 8.33-3.4 13.74 6.75 3 5.64 4.2 12.57-1.64 15.69l-7 3.73Zm8.13 32.17 14.88-7.94c11.34-6 8.6-18.23 4.66-25.6-3.47-6.5-11.12-15.08-22.7-8.91l-15.17 8.1Zm49.59-56.95-19.46 6.94 2.75 7.72 17.88-6.38 2.31 6.45-17.86 6.41 3.39 9.5 20.33-7.25 2.31 6.48-27.83 9.94-13.1-36.67 27-9.63Zm53.1 21.56-7.48 1.38-5.93-32h-.11l-1.21 33.32-7.83 1.47L288 78.31h-.11l5.94 32-7.47 1.39-7.1-38.29 11.68-2.16 12.53 28.89h.11l1.22-31.44 11.58-2.15Zm13.98-.4-8.12.54-2.59-38.85 8.11-.54ZM369.7 78.5c-.56-2.36-1.64-6.8-8.37-7-3.9-.14-9.74 2.24-10.15 13.25-.26 7 2.27 13.37 9.15 13.63 4.5.17 7.74-2.26 8.89-7l8.13.3c-1.94 8.4-7.69 14.1-17.44 13.73-10.36-.38-17.52-7.65-17-21.09.51-13.61 8.63-20.25 18.66-19.88 11.65.44 16.06 8.64 16.28 14.4Zm32.48.42h.1l1.84 16-9.74-1.87ZM391 99.31l14.1 2.69.94 8.36 8.68 1.66-6.15-40.82-9.21-1.77-21 35.63 8.42 1.61Zm37.14 10.05 18.31 6.29-2.29 6.67-26-8.93 12.65-36.83 7.69 2.64Zm41.14 25.57-7-4.08 19.51-33.7 24 13.89-3.46 6-16.94-9.81-4.4 7.6 14.83 8.59-3.45 6-14.83-8.59Zm37.3.59c6.77-8.53 13.3-6.81 16.74-4.08s6.6 8.7-.18 17.23-13.31 6.82-16.75 4.09-6.59-8.7.19-17.24m-6.37-5.06c-11.37 14.32-2.13 24.49 1.9 27.69s16 9.9 27.4-4.42 2.13-24.48-1.9-27.69-16.04-9.89-27.4 4.42M539.48 164c8.07-7.32 14.23-4.56 17.18-1.31s5.1 9.66-3 17-14.24 4.57-17.19 1.31-5.07-9.7 3.01-17m-5.48-6c-13.54 12.28-6.07 23.81-2.61 27.63s14.21 12.37 27.75.09 6.08-23.82 2.62-27.63-14.21-12.42-27.76-.09m21.45 56.86-4.58-6.72 26.46-18.08-6.64-9.72 5.69-3.88 17.87 26.15-5.69 3.88-6.64-9.71Zm27.1 11.97 4.58 9.28c1.3 2.63 1.43 5.83-1.63 7.35-3.55 1.75-6.12.48-7.87-3.07l-4.42-8.95Zm-18.83.58L571 242.2c3.53 7.14 5.68 8.44 8.61 9.47a11.3 11.3 0 0 0 8.69-.54c3.45-1.7 6.31-4.5 5.79-9.57 1.46 1.1 4.26 3.22 9.27.75 3.59-1.78 7.86-6.61 3.64-15.17l-8.39-17Zm32.34-7.26 4.13 8.36c1.64 3.31 1.77 5.79-1.1 7.2s-5-.36-6.43-3.23l-4.23-8.56Zm16.65 45.01v.1l-13.17 9.32-3.05-9.44Zm-23.25 0 4.41 13.68-6.87 4.81 2.72 8.41 32.85-25-2.89-8.93-41.32-1.26L581 265Zm9.02 37.33 3.29 19.08-6.94 1.19-4.68-27.09 38.38-6.62 1.38 8Zm4.01 32.27.82 19.35-7 .3-1.17-27.47 38.9-1.66.35 8.13Zm14.71 67.47c2.4-.28 6.94-.83 8-7.47.61-3.85-1.06-9.94-11.93-11.66-6.91-1.1-13.55.64-14.63 7.45-.71 4.44 1.32 7.95 5.88 9.66l-1.28 8c-8.1-2.93-13.07-9.32-11.54-19 1.62-10.23 9.7-16.47 23-14.36 13.44 2.13 19.07 11 17.49 20.9-1.82 11.51-10.49 14.91-16.24 14.44Zm-24.04 17.66-5.66 18.51-6.74-2.06 8-26.29L626 421.43l-2.37 7.78Zm-14.48 53.8c-9.29-4.32-10.66-11.78-6.52-20.68 1.51-3.24 4.54-7.7 9.5-9.22 3.06-.91 6.25-.32 9.84 1.24l23.4 10.9-3.51 7.52-22.9-10.67c-4.92-2.29-8.41-.45-10 3-2.35 5.06-.86 8.27 3.42 10.27l23.25 10.83-3.5 7.52ZM573.45 489l-5.73 8.63c-1.62 2.44-4.32 4.16-7.17 2.27-3.3-2.19-3.48-5.05-1.29-8.35l5.52-8.31Zm-10-16-9.12 13.73c-4.41 6.64-4.45 9.15-3.88 12.21a11.3 11.3 0 0 0 4.83 7.24c3.21 2.13 7.06 3.19 11.19.2-.22 1.81-.65 5.3 4 8.39 3.34 2.22 9.66 3.49 14.94-4.46l10.47-15.77ZM586 497.3l-5.16 7.77c-2 3.07-4.11 4.42-6.78 2.65s-2.2-4.52-.43-7.18l5.28-8Zm-302.85 97.58 1.71 8.47 9.91-2-7.64 26.77 10.35 2.94 10.75-37.67-7.36-2.1zm66.76 13.28c.82-8.06-7.61-10.85-14.65-11.57-6.47-.66-15.86.38-16.67 8.38-.52 5.12 3.59 8.9 8.31 10.06v.17c-5.71.16-11 2.92-11.62 9.06-.83 8.11 8 12.2 14.79 12.89 7.43.76 18.29-.19 19.23-9.43.62-6.08-3.66-9.87-9.13-11v-.28c4.36-.18 9.24-3.44 9.74-8.28m-11.47 17c-.38 3.72-3.25 5.08-6.57 4.74s-5.86-2.25-5.48-6 3.25-5.08 6.57-4.74 5.86 2.32 5.48 6.04Zm.94-17c-.31 3-2.64 4.62-5.74 4.31s-5.05-2.34-4.74-5.38 2.64-4.62 5.73-4.31 5.06 2.35 4.75 5.39Zm47.94-11.34-31.11 2.27.58 7.91 19.28-1.41-10.97 32.14 11.57-.85 11.05-34.53zm11.26 22.45 2.08 7.34 18.24-5.17 2.15 7.57 9.64-2.73-2.14-7.57 3.94-1.11-1.91-6.76-3.95 1.16-6.63-23.41-12.13 3.41Zm18.58-4.63-9.91 2.81 5.85-17.15Z" class="cls-2" data-source="https://football-logos.cc"></path><path d="m504.75 223.53 4.86-7.8-34.08-21.24a199.81 199.81 0 0 0-251.06 0l-34.08 21.23 4.86 7.8A199.05 199.05 0 0 0 150.14 350c0 110.38 89.48 199.86 199.86 199.86S549.86 460.38 549.86 350a199 199 0 0 0-45.11-126.47" class="cls-1"></path><path d="M387.58 434.8c-2-6.25-12.7-8.39-23.82-4.78-.64.21-1.27.44-1.88.67 0-.75.07-1.51.07-2.28 0-11.7-5.33-21.18-11.91-21.18s-11.91 9.48-11.91 21.18c0 .71 0 1.42.06 2.12-.63-.25-1.28-.48-1.95-.7-11.12-3.61-21.78-1.47-23.81 4.78s5.33 14.26 16.45 17.87c.67.22 1.34.41 2 .59-.44.54-.88 1.1-1.3 1.68-6.87 9.46-8.13 20.26-2.81 24.12s15.21-.66 22.08-10.12c.4-.55.77-1.1 1.13-1.65.37.57.76 1.15 1.17 1.71 6.87 9.46 16.76 14 22.08 10.13s4.06-14.67-2.81-24.13c-.4-.54-.8-1.06-1.22-1.58.64-.17 1.28-.35 1.92-.56 11.12-3.61 18.49-11.61 16.46-17.87m-60.08-86.24c-2-6.26-12.69-8.4-23.81-4.78-.64.21-1.27.43-1.88.67 0-.75.07-1.51.07-2.29 0-11.69-5.34-21.17-11.91-21.17s-11.91 9.48-11.91 21.17c0 .71 0 1.43.06 2.12-.64-.24-1.29-.48-1.95-.69-11.12-3.62-21.78-1.48-23.82 4.78s5.34 14.26 16.46 17.87c.67.22 1.33.41 2 .58-.44.55-.87 1.11-1.29 1.69-6.87 9.45-8.13 20.26-2.81 24.12s15.2-.67 22.08-10.12c.39-.55.77-1.1 1.12-1.65.38.57.77 1.14 1.18 1.71 6.87 9.46 16.76 14 22.08 10.13s4.06-14.67-2.81-24.13c-.4-.54-.81-1.07-1.22-1.57.64-.18 1.28-.36 1.92-.57 11.11-3.62 18.48-11.61 16.44-17.87m120.14 0c-2-6.26-12.69-8.4-23.81-4.78-.64.21-1.27.43-1.88.67 0-.75.07-1.51.07-2.29 0-11.69-5.33-21.17-11.91-21.17s-11.91 9.48-11.91 21.17c0 .71 0 1.43.06 2.12-.63-.24-1.28-.48-1.95-.69-11.12-3.62-21.78-1.48-23.82 4.78s5.34 14.25 16.46 17.87c.67.22 1.33.41 2 .58-.44.55-.87 1.1-1.29 1.68-6.87 9.46-8.13 20.26-2.81 24.13S402 392 408.92 382.5c.4-.54.77-1.09 1.12-1.64.38.57.77 1.14 1.18 1.71 6.87 9.46 16.76 14 22.08 10.13s4.06-14.67-2.81-24.13c-.4-.54-.81-1.07-1.22-1.58.64-.17 1.28-.35 1.92-.56 11.12-3.62 18.49-11.61 16.45-17.87" class="cls-2"></path><path d="M540.82 350a190 190 0 0 0-41.13-118.34L484.4 256.2c-2.91 4.67-2.82 4.6-6.57 8.21-7.65 7.37-10.28 21.17-10.28 37 0 23.76 6 64.27 6 106.45 0 78.88-41.35 113.61-78.78 127.66C478.54 515.39 540.82 440 540.82 350m-314.35 57.87c0-42.18 6-82.69 6-106.45 0-15.84-2.63-29.64-10.28-37-3.75-3.62-3.66-3.55-6.57-8.22l-15.29-24.54A190 190 0 0 0 159.18 350c0 90 62.28 165.39 146.07 185.53-37.43-14.05-78.78-48.78-78.78-127.66M350 219.82c-55.84 0-104.24 13.82-128.09 34 30.15 13.7 76.32 22.47 128.09 22.47s97.94-8.77 128.09-22.47c-23.85-20.18-72.25-34-128.09-34" class="cls-2"></path><path d="M470.74 202.16 461.47 217a217.6 217.6 0 0 0-32.4-11.63l5.51-22.4-30.24-7.43-5.74 23.35a309 309 0 0 0-33-3.33v-27.72h-31.17v27.74a311 311 0 0 0-33 3.32l-5.74-23.34-30.27 7.44 5.52 22.4a217 217 0 0 0-32.41 11.6l-9.26-14.87-26.43 16.47 16.52 26.53c26.85-20.61 75.3-34.37 130.64-34.37s103.8 13.76 130.64 34.37l16.53-26.53Z" class="cls-2"></path><path d="m260.15 199.4-3.85-15.65a190 190 0 0 0-19.83 12.88l5.79 9.3q8.57-3.54 17.89-6.53m197.59 6.53 5.79-9.3a190 190 0 0 0-19.83-12.88l-3.85 15.65q9.33 2.97 17.89 6.53m-65.98-17.07 5.83-23.69a187 187 0 0 0-23-4.41v26.34q8.74.66 17.17 1.76m-66.37-1.76v-26.34a187 187 0 0 0-23 4.41l5.83 23.69q8.45-1.09 17.17-1.76" class="cls-2" data-source="https://football-logos.cc"></path><!-- source: https://football-logos.cc --></svg>