<svg xmlns="http://www.w3.org/2000/svg" viewBox="28.17 137.48 538.94 566.93"><!-- Source: https://football-logos.cc --><path d="M260.913 142.115c-21.291 7.553-46.649 23.348-69.798 38.168-3.172 2.03-11.022-8.961-14.406-7.123-16.01 8.697-45.619 34.3-57.604 58.714-.472-9.358-10.883-13.409-15.705-7.273-10.882 13.846-26.267 34.762-24.758 68.213-4.384-.96-7.654-5.162-9.588-11.021-17.627 32.97-21.225 59.518-18.026 85.955-8.768-9.477-20.07-7.405-22.398 5.405-2.304 12.671 4.038 46.595 17.858 78.95-7.106-3.963-12.817-3.525-16.729-1.81 4.599 35.265 17.752 61.994 33.457 82.885-5.77.333-8.846-5.214-15.842-3.41 13.378 26.594 30.771 44.551 55.266 63.952.349 2.548-3.023 1.12-5.342 1.451s-2.85 2.665-.496 5.633c40.398 39.987 92.278 70.41 158.158 88.837 9.736-6.982 21.63-13.475 33.72-18.173 20.707 12.103 33.225 14.363 45.193 17.485 10.455-6.264 22.29-13.633 32.607-20.45 32.83 1.427 36.11.369 54.164.553 31.166-19.508 55.826-39.678 71.159-62.869 7.353-6.79 42.603-38.584 47.94-54.543 1.854-5.543-1.446-5.045-8.56-5.976 23.196-25.789 32.581-58.873 35.924-80.693-5.205.416-11.239.97-17.134 2.627 17.62-33.674 15.539-65.028 11.469-96.307-4.191 1.016-7.001 8.66-10.364 13.68-3.732-41.917-11.378-68.056-21.002-87.878-2.545 2.395-6.713 5.895-10.363 8.29.737-3.5 2.44-8.105 3.178-11.606-1.687-25.765-13.984-46.076-32.608-60.795-2.764 4.422-5.665 8.43-9.12 11.746-7.244-17.582-38.489-64.978-65.494-74.2-4.974 2.58-29.417-3.264-34.391-.685-15.432-14.23-25.663-19.208-37.321-21.7 7.23 9.394 12.572 15.75 11.607 19.897-4.52-3.886-8.491-8.123-15.753-10.67-8.765-3.073-19.898-2.506-27.616-.307-2.02 1.444-4.797 4.123-6.372 5.59 13.368 8.754 25.979 19.196 28.602 30.397-6.46 3.478-16.049 10.111-27.1 18.21a318 318 0 0 1-10.012-4.971c-8.59-4.466-18.394-11.169-27.436-16.934-1.72-1.097-1.957-3.48-.467-5.952 4.833-8.02 12.256-16.605 13.95-18.783.978-1.256 1.907 1.372 3.477-.149 2.617-2.534 6.866-8.25 2.258-10.001-13.538-.553-19.713-.429-34.493 3.161 1.258-4.237 2.924-10.097 6.311-15.52" style="fill:#148045;fill-rule:evenodd" data-source="https://football-logos.cc"></path><path d="M82.513 405.692c-.124-.84.13-1.704.841-2.248 1.181-.904 2.423-.183 2.967 1.035.986 2.207 1.741 4.664 2.403 6.987a137 137 0 0 1 2.226 9.08c.797 3.763 1.49 7.604 1.945 11.426a14 14 0 0 1 1.6-.524c-.458-3.775-1.142-7.525-1.93-11.244a138 138 0 0 0-2.253-9.19c-.693-2.432-1.45-4.896-2.483-7.208a5 5 0 0 0-.127-.261l-.1-.194 5.056.704.002.096c.17 9.14.815 18.154 2.351 27.172q.808-.18 1.628-.276c-1.61-9.427-2.21-18.542-2.347-28.107-.024-1.734-1.808-1.997-1.801-2.445.001-.085-.01-.049.042-.121.336-.473 3.116-.877 3.658-.946l.034-.004.03.015c1.44.715 2.625 1.172 4.224 1.486l.106.02-.016.107c-1.5 9.93-2.213 19.85-2.24 29.892l.193.001.286-.029.453-.005q.403-.055.805-.12c.024-9.985.573-20.08 2.055-29.959l.008-.051.045-.028c1.45-.892 2.128-.361 3.329-2.116l.153-.224.05.266c.265 1.38.923 1.964 1.926 2.832l.06.052-.029.073c-3.356 8.846-6.539 19.277-5.606 28.84 1.098-.15 2.137-.202 3.246-.055.492-.346.771-.858.833-1.456.85-8.265 1.897-15.043 5.278-22.735.406-.92.743-2.027.974-3.005l.043-.187.078-.01c1.669-.206 3.908.083 4.857 1.671l.089.15-.173.02c-.481.057-.964.131-1.436.242l-.893.208-.342.851c-3.293 8.186-5.534 16.356-6.697 25.105q.788.392 1.557.821c1.132-8.922 3.319-16.976 6.672-25.31l.021-.054.057-.013c1.089-.254 2.447-.329 3.571-.377 1.372-.059 1.246 1.236.758 2.128-4.234 7.733-7.057 16.157-9.286 24.66q.728.43 1.461.851 1.096.629 2.16 1.306a51 51 0 0 1 8.614-2.7c1.207-12.807 3.742-28.958 10.409-40.145a42.7 42.7 0 0 0-20.744 8.206q-.477.014-.941.072l-1.697.21-.1.44a3 3 0 0 0-.14-.088l.157-.413-1.288-1.116c-.483-.418-.911-.704-1.101-1.272a47.3 47.3 0 0 1 9.661-6.31c13.122-18.867 24.421-40.765 30.513-62.972-11.486 1.678-21.983 9.344-29.885 17.38-11.15 11.338-20 26.065-25.96 40.751a137 137 0 0 0-4.737 13.679l-3.908-.544-.287-.04.193.37-.017.004-.01.002-.008.001-.018.004h-.001l-.017.005-.01.002-.007.002-.018.004h-.003l-.015.004-.012.003h-.005l-.018.006h-.004l-.013.004-.014.003h-.004l-.018.006-.005.002-.013.003-.014.004h-.003l-.018.006-.006.002-.012.003-.015.005h-.002l-.018.005-.007.002-.01.003-.017.005h-.001l-.018.006-.008.003-.01.003-.017.006-.018.007-.01.003-.007.002-.018.006h-.002l-.016.006-.01.004-.007.002-.018.006-.003.001-.015.005-.012.005-.005.002-.017.006-.005.001-.013.005-.014.005-.018.007-.003.001-.006.002-.012.005-.015.006-.002.001-.018.007-.007.003-.01.004-.016.007h-.002l-.017.008-.008.003-.01.004-.017.007-.018.007-.009.004-.008.004h-.001l-.018.008-.016.007-.01.005-.008.003-.017.008-.002.001-.016.007-.01.006-.007.003-.017.008-.003.002-.015.007-.013.006-.004.002-.017.01-.005.002-.013.006-.014.007-.003.002-.017.01-.006.002-.012.006-.015.008-.002.001-.017.01-.007.003-.01.006-.017.01-.018.009a4.628 4.628 0 0 0-.997.741 3.2 3.2 0 0 0-1.652-.149l-.442-.29a3.4 3.4 0 0 0-.63-.327c-2.457-6.44-5.4-12.742-8.902-18.285-3.266-5.17-9.362-13.233-16.172-13.41a8.9 8.9 0 0 0-2.675.347c3.749 13.624 7.022 27.463 9.217 41.42q.285 1.812.563 3.612c-.942.72-1.602 1.788-1.58 2.949q0 .055.004.111c-1.076.48-2.007 1.439-2.518 2.515a693 693 0 0 0-1.288-8.43c-2.279-14.49-5.74-28.855-9.68-42.976l-.54-1.93 1.79-.903c2.126-1.072 4.447-1.653 6.834-1.59 7.47.193 13.649 6.396 17.985 12.434 5.919-21.42 5.374-42.098-1.34-64.125l-.92-3.02 3.155-.128c4.788-.194 9.6 2.22 13.755 5.293-1.022-14.906.083-30.18 6.428-43.414a57.7 57.7 0 0 1 5.08-8.603l1.064-1.49 1.727.606a32 32 0 0 1 4.284 1.883c-1.898.416-3.606 1.934-3.272 3.813a28 28 0 0 0-.907-.416 53 53 0 0 0-3.577 6.316c-6.61 13.785-7.093 30.223-5.558 45.794q.546.524 1.058 1.037c6.431 6.445 12.088 14.42 16.72 22.388l3.206-10.94-.853-.326-.09-.033.45-2.231c-2.667-1.501-3.16-2.378-4.011-5.04q-1.468.665-2.962 1.27l-.431.173-.285-.369c-1.245-1.622-2.445-3.7-3.253-5.583-.606-1.63-2.042-3.666-2.361-5.257l-.014-.069 2.785-2.114c-.528-1.732-.745-3.805-.725-5.612v-.037l.023-.03c1.129-1.478 2.714-2.797 4.293-3.785-.448-1.254-.585-2.503-1.005-3.759l-.017-.052.03-.045c1.375-2.082 7.237-6.341 9.652-7.577-2.543-8.143-6.249-16.175-9.813-23.917-.447-.968 2.193-1.887 2.802-1.062 2.933 3.976 4.87 8.444 6.62 13.026.61 1.165 1.915 4.8 2.97 5.347l.056.028.005.063c.15 1.968.813 3.588.843 5.575q.701-.111 1.408-.164c.296-8.747-1.782-16.723-4.896-24.813l-.037-.095.091-.046c1.806-.91 5.942-1.048 7.96-.768l.082.011.013.083c1.358 8.455 1.165 17.148.16 25.63a7.3 7.3 0 0 1 1.796-.238 102 102 0 0 0 1.82-7.792c.46-2.396.139-4.607.398-6.967.344-3.126.403-6.237.627-9.367.06-.86 1.13-1.21 1.858-1.02.29.077 1.173.275 1.37.602.32-.003 1.275-.177 1.573-.21 1.318-.147 1.945.97 1.798 2.164-.559 4.53-2.586 10.095-4.221 14.362a153 153 0 0 1-3.488 8.365q.727.122 1.435.331c1.382-3.081 2.582-6.247 3.69-9.437.918-2.65 1.767-5.325 2.504-8.032.589-2.169 1.143-4.393 1.418-6.626-.009-.504-.461-3.065-.443-3.34l.01-.158.146.061 3.4 1.427.146.061-.106.118c-.665.738-1.164 1.673-.818 2.675.23.666.647 1.068 1.182 1.501l.075.06-.048.084c-4.065 7.032-7.712 14.189-10.683 21.755a14 14 0 0 1 1.343.529c3.102-7.914 6.83-15.127 11.117-22.47.79-1.351-.65-2.552-.156-2.767.481-.208 2.78.762 3.23.96l.032.014.018.029c.767 1.204 1.459 2.095 2.532 3.069l.08.072-.07.083c-5.697 6.868-10.795 14.09-15.425 21.72l.136.082.23.11.347.203q.328.142.658.274c4.603-7.59 9.656-15.02 15.319-21.86l.036-.044.056.003c1.211.059 4.377 1.591 3.812 3.166l-.01.03-.026.02c-6.613 5.19-13.822 11.666-17.504 19.37.9.388 1.71.824 2.484 1.442.527-.039.97-.298 1.288-.721 4.444-5.904 8.355-10.585 14.464-14.89.73-.514 1.494-1.202 2.119-1.84l.124-.128.072.032c1.371.611 2.946 1.863 2.938 3.514v.173l-.158-.071a12 12 0 0 0-1.204-.475l-.77-.25-.645.488c-6.264 4.718-11.72 9.906-16.621 16.03q.414.65.795 1.319c4.957-6.27 10.318-11.394 16.694-16.197l.047-.035.055.018c.947.307 2.015.874 2.894 1.354 1.08.59.391 1.53-.4 1.99-6.771 3.942-12.787 9.056-18.386 14.504q.355.658.717 1.311c1.153 2.071 2.13 4.232 3.102 6.392l.233.518-.042.054c-1.05 1.337-2.215 2.59-3.415 3.794a114 114 0 0 0 3.378 5.274l.057.085-.473.39c-1.328 1.15-3.28 3.257-4.983 3.734-.792 1.515-2.898 2.88-4.315 3.86.629.902 1.23 1.83 1.948 2.666l.06.07-.256.323c4.067-1.908 8.344-3.275 12.771-3.865 10.216-6.434 20.92-15.289 26.973-24.128-4.585-2.443-9.386-4.47-14.453-5.69-3.456-.833-6.825-1.22-10.292-1.427a78 78 0 0 1 6.044-4.321c1.789.244 3.578.569 5.39 1.006 5.7 1.373 11.077 3.67 16.212 6.454l-17.575-21.986-2.555 2.697-5.936-5.624-.126-.827a116 116 0 0 0-1.77-9.24l-1.85-2.315q.518-.44 1.037-.874c-3.342-12.177-9.062-22.673-19.28-31.258-6.285 9.133-9.519 22.74-10.475 35.06l-4.862.301c1.106-14.174 5.098-30.609 13-40.382l1.502-1.858 1.888 1.463c4.328 3.352 7.971 6.996 11.044 10.918 9.178-10.883 17.973-18.11 31.254-23.356l-31.818-71.439h80.93l18.86 46.04a94 94 0 0 0 7.328-4.376c8.006-5.311 11.183-11.46 14.35-20.032.164 2.428.14 5.418-.07 7.846 5.649-2.163 11.703-2.61 16.854-2.277-7.379 2.478-16.1 5.837-19.234 11.81a33.4 33.4 0 0 0 .391 10.57c-2.732-.957-5.585-3.273-7.407-4.886-3.186 2.256-6.654 4.285-10.255 6.124l6.77 16.525c17.175-4.272 34.319-6.256 51.114-5.982 17.514.286 35.143 2.931 52.717 8.032l8.137-18.196c-6.184-.987-11.539-2.593-17.061-6.503-1.822 1.613-4.675 3.93-7.407 4.886q1.038-5.285.39-10.57c-3.134-5.973-11.854-9.332-19.233-11.81 5.15-.333 11.205.114 16.855 2.277a55 55 0 0 1-.072-7.846c3.168 8.572 6.482 14.52 14.35 20.032 4.297 3.01 9.545 4.122 14.254 4.89l20.817-46.554h77.553l-31.274 68.133c4.97 5.376 9.583 11.208 13.83 16.977 5.577 7.577 10.795 15.477 15.652 23.535 2.927 4.857 5.833 9.892 8.43 14.993 3.879-5.068 7.771-10.134 11.853-15.005l3.242-3.87 1.016 4.945c1.28 6.225 3.732 12.318 6.263 18.13.494 1.134 1.016 2.299 1.551 3.487l-.086.024c-.6-.929-1.706-1.572-3.079-1.63a4.5 4.5 0 0 0-1.596.218l-.553-.278a6.5 6.5 0 0 0-.925-.371c-1.94-4.476-3.795-9.079-5.158-13.792-3.685 4.573-7.247 9.272-10.825 13.941-1.69.149-3.41.77-4.6 1.793l-1.135.048c-1.56.066-2.571.372-3.472 1.158-.584-.33-1.294-.49-1.996-.48-1.167.015-2.362.401-3.402.908l-.28.136-.237.203q-1.101.944-1.667 1.943c-1.276-.164-2.652.411-3.748 1.1-3.038.335-6.248.814-9.431 1.359a350 350 0 0 0-9.125 10.797c2.338 2.863 4.66 5.74 7.01 8.598 2.208 2.685 4.45 5.367 6.814 7.915 1.781 1.92 3.73 3.893 5.824 5.47l.979.738q2.526.64 5.034 1.355c.799-1.759 1.622-3.507 2.56-5.195q.363-.653.718-1.31c-5.162-5.023-10.65-10.273-16.813-13.56-1.115-.595-1.733-2.728.921-4.289l.102.017c6.376 4.803 11.737 9.52 16.694 15.788.256-.445.825-.987 1.101-1.42-4.9-6.124-10.663-10.802-16.927-15.52l-.646-.487-.769.25c-.41.132-.811.297-1.204.474l-.158.071v-.173c-.007-1.65 1.567-2.903 2.938-3.514l.072-.032.124.128c.625.638 1.39 1.326 2.12 1.84 6.13 4.32 11.244 9.347 16.16 15.305.773-.618 1.175-.748 2.075-1.137-5.053-7.365-9.847-13.062-16.917-18.572-.543-1.537 3.3-4 4.36-3.529.708.855.09 1.894.762 2.744 4.706 5.951 9.45 12.033 13.478 18.674q.33-.134.658-.274l.346-.204.231-.11.136-.082c-4.269-7.033-8.003-12.445-12.743-18.845-.874-1.18-1.707-2.558.517-4.46 1.98-.965 3.247-.688 3.237-.336.493.215-.639.75.151 2.101 4.286 7.343 7.094 12.916 10.196 20.83q.657-.298 1.343-.528c-2.97-7.567-5.901-14.672-9.966-21.704.617-.647.629-1.606 2.943-1.704.298 1.951.787 3.892 1.303 5.79a123 123 0 0 0 2.504 8.032c1.107 3.19 2.307 6.355 3.69 9.437.47-.138.95-.302 1.434-.382-1.143-3.006-2.05-4.932-3.13-7.75-1.634-4.268-2.74-9.167-3.862-14.26-.342-2.78 6.713-3.636 6.855-1.639-.114 7.517.952 15.442 2.128 23.563.605.008 1.825-.022 2.41.136-1.005-8.483-1.147-17.023-.403-25.427l.013-.082.083-.01c2.017-.28 6.614-.195 8.42.716l.09.045-.036.096c-3.021 7.155-4.652 12.558-5.664 24.762.472.034 2.016.038 2.483.112.337-1.987.59-3.402.996-5.267l.06-.091c1.056-.547 1.952-4.336 2.562-5.5 1.75-4.583 3.226-8.078 6.16-12.054.608-.825 3.248.094 2.801 1.062-3.564 7.742-6.912 15.109-9.455 23.25 1.893.97 5.463 3.543 7.58 5.614a533 533 0 0 1 3.383-5.353c-.564-4.251-1.992-8.53-3.52-12.458l-.128-.327A310 310 0 0 1 496.5 277c1.85 4.312 3.571 8.765 4.696 13.147a496 496 0 0 1 5.117-7.604l3.649-5.315.783 6.4a207 207 0 0 0 5.44 28.198c1.467 5.535 3.355 11.45 3.797 17.165q.09 1.181.098 2.347a77 77 0 0 0 2.544-3.772l3.205-5.077 1.243 5.874c2.307 10.9 4.975 21.827 6.529 32.863 1.018 7.237 1.608 14.971.71 22.385 1.734-1.487 3.42-2.68 5.02-3.486l3.37-1.696.163 3.77q.297 6.921.383 13.848c.07 5.687.042 11.404-.108 17.123-.045-1.137-.695-2.29-1.896-3.078-.642-.422-1.396-.706-2.158-.756l-.731-.63c.066-4.209.067-8.412.015-12.598q-.058-4.694-.214-9.384c-3.512 2.828-7.412 7.299-11.24 12.333-.467.142-.92.347-1.337.586-.56-.938-1.53-1.676-2.633-2.002a4.7 4.7 0 0 0-.938-.178c2.001-2.678 4.045-5.246 6.081-7.57l.053-.184c2.527-8.804 1.892-18.835.63-27.803-1.274-9.044-3.311-18.028-5.27-26.975-8.087 11.013-18.555 19.698-29.606 27.762 2.708 10.325 4.63 20.854 6.957 31.275l-.322-.05c-1.475-.228-3.204-.579-4.76-.345-2.279-10.383-4.212-20.863-6.986-31.117-9.774-7.16-24.168-13.999-36.407-16.865 2.39 6.03 4.828 12.04 7.414 17.989 4.226 9.72 8.873 19.197 13.718 28.616a194 194 0 0 1 8.192 6.997c-.421.58-.618 1.277-.498 1.976-.843.71-1.43 1.653-1.53 2.771a194 194 0 0 0-9.207-7.932c2.913 15.406 6.359 30.18 9.978 45.424q1.505-.741 2.987-1.529c-.457-1.858-.852-3.746-1.087-5.646l-.008-.068.52-.358c2.19-1.515 4.384-3.029 6.697-4.354q.734-.421 1.461-.85c-2.228-8.504-4.584-16.106-8.817-23.839-.575-1.273 1.58-3.105 3.86-2.573l.057.013.022.054c3.352 8.334 5.54 16.388 6.671 25.31a36 36 0 0 1 1.558-.821c-1.163-8.749-3.404-16.919-6.697-25.105l-.343-.85-.893-.209c-1.016-.237-3.406.67-2.69-.06.97-.989 2.918-2.252 4.322-2.649.842-.237 1.534.347 1.826.823.232.978.569 2.085.974 3.005 3.494 7.948 4.922 15.675 6.111 24.191 1.11-.147 2.148-.096 3.246.055.933-9.563-2.25-19.994-5.606-28.84.489-1.937 4.355-.988 5.542-.804 1.482 9.88 2.03 19.974 2.056 29.96.567.088 1.16.153 1.737.153-.028-10.042-.507-20.432-1.889-29.892.269-.381 3.411-1.52 4.026-1.625.542.07 3.322.473 3.659.946.051.073.04.036.041.122.007.448-1.776.711-1.8 2.444-.138 9.565-.737 18.68-2.348 28.108q.82.095 1.628.275c1.536-9.015 2.269-18.698 2.447-27.832.685-.174 1.528-.41 1.903-.755 1.223-1.129.847-2.863 2.206-2.675-.02.037 2.176-.034 2.319.754-2.217 2.71-3.246 6.935-4.175 10.2a138 138 0 0 0-2.254 9.19c-.788 3.719-1.471 7.469-1.93 11.244.543.142 1.08.315 1.6.523.455-3.821 1.149-7.662 1.945-11.425a137 137 0 0 1 2.227-9.08c.661-2.324 1.416-4.78 2.402-6.987.544-1.218 1.845-1.94 3.025-1.035.711.544 1.259.938 1.135 1.778.594-.763 1.319-.981 2.136-.74.878.26 1.682 1.076 1.278 1.869-1.804 3.539-4.313 7.355-5.985 10.97-1.121 2.423-2.304 4.482-3.254 7.057-1.033 2.802-2.376 5.58-3.186 8.455.587.364 1.78.734 2.257 1.234 4.12-9.11 8.576-17.946 15.053-25.6l.076.032c4.132 1.771 5.178 3.892 7.924 6.26-11.418 5.952-18.319 17.443-20.471 21.302q.663.468 1.282.992c2.393-3.95 3.455-4.396 4.055-5.001 1.072-1.08 3.57-1.295 6.077-3.129 4.346-3.395 8.806-6.807 13.939-8.933 1.052-.435 3.043 1.965 2.068 2.626-7.93 5.385-15.989 11.087-23.167 17.451 2.869 3.613 4.294 7.776 6.183 11.928l.035.078-.065.055a188 188 0 0 1-4.383 3.651c1.18 2.145 2.473 4.225 3.724 6.328l.043.071-.348.382a80 80 0 0 1-5.238 4.07l1.451 3.645-.048.052c-.739.809-2.12 1.7-3.038 2.325-.914.624-1.893 1.252-2.758 1.94-1.87 1.342-4.23 2.647-6.372 3.484l-.478.187-.308-.41a90 90 0 0 1-2.14-2.976 185 185 0 0 1-6.593 3.24l-.766 2.261-.095-.017a47 47 0 0 1-.92-.175l-.18 1.62c.31 1.044.6 2.09.88 3.163a80 80 0 0 1 1.495 6.966l3.196 1.06c7.507-8.81 16.693-15.062 27.52-18.73 2.885-9.341 4.441-19.854 5.466-29.228.564-5.165.99-10.367 1.298-15.583a407 407 0 0 1 5.072-3.523 324 324 0 0 1-1.521 19.636c-.95 8.696-2.346 18.247-4.765 27.08a76 76 0 0 1 9.397-1.688l3.466-.405-.81 3.394c-6.337 26.54-19.473 54.338-39.267 73.685 5.082 2.01 11.592 3.502 16.378 3.886l5.502.442-4.031 3.77c-12.37 11.572-25.175 22.957-38.821 33.011-9.362 6.897-19.394 13.358-30.004 18.35 6.56.38 13.084.212 18.423-.854l2.526 3.715c-4.152 6.426-9.706 12.375-15.323 17.546a137 137 0 0 1-14.557 11.683c-2.174 1.51-4.466 3.015-6.822 4.398l29.059 65.331h-79.43l-21.272-51.573c-23.985 8.713-47.865 12.253-70.166 11.75-21.39-.483-44.65-4.205-68.172-12.541l-21.973 52.364h-78.68l33.813-76.017c-18.625-8.105-35.757-19.287-48.337-35.577l-2.126-2.754 1.736-.555c-18.638-16.06-33.743-36.229-46.582-57.075l-2.167-3.518 3.896-.186a268 268 0 0 1-7.655-12.295c-8.475-14.521-14.82-29.343-19.621-45.458l-1.496-5.018a1605 1605 0 0 1 10.607 4.652c-2.511-7.083-4.794-14.253-6.075-21.667l-.742-4.29 4.046 1.608a95 95 0 0 0 7.293 2.537c.444-8.325-.22-16.385-1.29-24.513q.154.137.337.26c1.664 1.13 3.342 2.27 5.02 3.423.82 7.326 1.223 14.642.74 22.177 4.254 1.091 8.76 1.98 13.17 2.507l-.61-.52-.064-.055.035-.077c1.889-4.153 3.49-8.433 6.359-12.046-7.179-6.364-15.413-11.948-23.344-17.333-.975-.662 1.016-3.061 2.069-2.626 5.133 2.125 9.592 5.303 13.938 8.698 1.816 1.103 3.418 1.615 5.537 1.477l.063-.004.036.051a110 110 0 0 1 4.496 6.84q.62-.523 1.282-.991c-4.823-8.648-12.095-15.825-19.859-21.858l-.08-.062.054-.087 2.055-3.27.019-.03.032-.013 5.232-2.242.077-.033.053.063c6.315 7.467 11.62 16.698 15.644 25.596a8.2 8.2 0 0 1 1.612-1.292 115 115 0 0 0-2.776-8.573c-.95-2.575-2.543-4.516-3.664-6.94-1.672-3.615-3.829-6.961-5.633-10.5-.404-.793.165-2.43 1.043-2.69.818-.242 1.777.798 2.371 1.561zm324.534-86.304c30.37 28.649 49.342 69.307 49.342 114.404 0 12.958-1.577 25.546-4.53 37.593l15.9 5.27c.514-13.762-.024-27.577-2.23-41.144l1.336-4.1 2.443 1.692c1.622 1.104 3.22 2.426 4.771 3.887a1034 1034 0 0 1-9.578-46.377l-1.108-6.063 1.249.923c-3.26-6.574-6.392-13.203-9.325-19.948-3.202-7.366-6.18-14.827-9.12-22.3l-1.565-3.978 4.22.676c1.581.253 3.21.581 4.873.977-5.746-9.244-10.735-19.165-15.884-28.688q-.724-1.34-1.456-2.678l-2.325-4.251 4.8.665q1.82.253 3.628.57c-2.775-2.908-5.394-6.115-7.717-8.94-2.132-2.593-4.24-5.203-6.36-7.802-7.788 9.857-14.932 19.894-21.364 29.612M147.064 469.097a158 158 0 0 1-3.978-35.305c0-46.22 19.925-87.78 51.627-116.524l-13.835-17.307-.354.591c-5.51 9.217-15.923 18.51-26.474 25.634l-.214.855c-5.42 21.667-15.782 43.138-28.176 62.076a47.6 47.6 0 0 1 13.082-1.823l5.1.005-3.206 3.967c-7.877 9.747-10.823 27.152-12.156 40.493a51 51 0 0 1 3.403-.275l1.802-.086.609 1.7c4.342 12.131 4.703 25.79 3.455 38.857zm-14.375 4.41c1.341-12.336 1.318-25.437-2.4-37.034a43.8 43.8 0 0 0-10.426 2.165l.08.055-.009.068c-.234 1.9-.63 3.787-1.086 5.646a127 127 0 0 0 6.325 3.122l.093.043-.225.639c-.61 1.877-1.267 5.045-2.631 6.49.121 1.92-1.122 4.468-1.918 6.234 1.134.506 2.258 1.054 3.44 1.443l.088.03-.086.65c-.314 2.4-1.31 5.096-2.89 6.953l-.043.051-.395-.085c-1.35-.293-2.733-.497-4.035-.97a91 91 0 0 1-3.356 5.598l.566 2.574-.528.266.502 1.886zm-28.094 8.62-.402-1.941q-.46.093-.92.176l-.095.017-.765-2.262a185 185 0 0 1-6.594-3.24q-1.04 1.51-2.14 2.977l-.308.41-.478-.187c-2.14-.838-4.502-2.142-6.372-3.485-.864-.688-1.843-1.315-2.758-1.94-.918-.625-2.299-1.516-3.038-2.325l-.048-.052 1.451-3.645a80 80 0 0 1-5.237-4.07l-.349-.381.043-.072c.854-1.435 1.726-2.859 2.57-4.3-8.71-.7-17.967-2.884-25.54-5.485 1.609 7.09 4.104 14.186 6.595 21.025 9.949 4.43 19.882 8.897 29.871 13.233zm-21.668 6.648c-10.5-4.617-20.712-9.242-31.414-13.816 4.48 13.816 9.857 26.351 17.247 39.012 2.91 4.987 6.012 9.857 9.23 14.65 7.054.097 13.956 1.014 20.806 2.592-6.876-12.681-13.31-26.454-19.205-41.414zm19.118 48.284c-8.275-2.256-16.597-3.555-25.163-3.57 12.593 19.937 27.402 39.102 45.58 54.2 3.908-1.422 7.67-3.056 11.397-4.886-11.285-13.25-21.974-28.426-31.814-45.744m35.118 49.55c-4.475 2.247-8.985 4.224-13.702 5.906 11.841 14.18 27.473 24.1 44.303 31.418l2.673-6.01c-11.455-8.891-22.615-19.27-33.274-31.314m46.68-353.723-8.689-19.507c-13.009 5.103-21.312 12.143-30.302 22.987 3.673 5.594 6.36 11.696 8.34 18.272 10.021-8.152 20.263-15.4 30.65-21.752m261.982 36.47a294 294 0 0 1 6.006-6.306c-11.484-10.138-23.146-19.027-34.93-26.704l11.896-25.918c4.328 4.82 8.369 9.97 12.111 15.054 5.49 7.456 10.624 15.231 15.403 23.16 3.267 5.42 6.513 11.072 9.308 16.784a693 693 0 0 1-2.528 3.27c-4.899-.753-11.47-.163-17.266.66m-333.91 210.533-6.078 1.857-.367-1.836a44 44 0 0 0 6.006-1.817zm321.071 137.567a244 244 0 0 0 12.954-11.255c8.395 1.245 17.89 1.874 26.043 1.13-3.385 4.357-7.343 8.43-11.305 12.077a132 132 0 0 1-14.037 11.266 104 104 0 0 1-6.033 3.918zm19.49-17.568c25.818-25.822 49.483-60.397 68.689-105.533l-12.66-4.196c9.033-9.94 20.505-16.049 34.478-18.36-6.703 25.693-19.954 52.339-39.616 70.254l-2.587 2.358 3.108 1.61c4.377 2.269 10.598 4.142 16.19 5.154-11.06 10.225-22.503 20.217-34.612 29.138-10.206 7.52-21.26 14.541-32.99 19.575m42.856-114.094-3.575-1.186 1.235-10.248c1.262.403 2.543.755 3.828 1.05l-.008.057-.003-.022-.564 3.954-.199 1.38-.002.032zm-5.082-1.685-17.675-5.858c.528-12.425.23-24.899-1.323-37.219 3.227 3.138 6.243 6.956 8.715 10.507.304 1.661 1.198 3.515 1.82 4.894-1.135.506-2.259 1.054-3.44 1.442l-.089.03.086.65c.314 2.4 1.31 5.096 2.89 6.953l.043.051.396-.085c1.348-.292 2.732-.497 4.034-.97a91 91 0 0 0 3.356 5.598l-.566 2.574.519.218c.863.364 1.746.705 2.641 1.02zm7.206-8.556-.051.13-.05-.152zm-15.658-138.074c1.987 5.97 3.837 12.074 5.659 18.15-7.816-5.057-17.412-9.68-26.618-12.704l-.196-.293c-6.548-9.79-12.018-20.642-17.606-31.06 5.666 1.064 11.192 2.559 16.67 4.225a115 115 0 0 1-3.212 4.998l-.058.084.474.39c1.327 1.15 3.28 3.258 4.983 3.734.791 1.516 2.898 2.88 4.315 3.86-.629.903-1.23 1.832-1.948 2.667l-.06.07.369.465c1.343 1.685 3.341 3.282 5.399 3.971l.064.022.267-.252c.892-.84 1.848-1.63 2.622-2.585 1.897 1.09 3.984 1.947 5.955 2.902l.66 1.756.503-.072c.614-.09 1.197-.2 1.758-.328m13.052 18.433c-2.094-6.997-4.745-16.785-6.706-23.118 2.055-1.268 2.533-2.216 3.302-4.622a79 79 0 0 0 2.961 1.269l.432.174.284-.37c1.246-1.622 2.446-3.7 3.253-5.583.606-1.63 2.043-3.665 2.362-5.257l.014-.069-2.785-2.114c.528-1.732.745-3.805.725-5.611v-.038l-.023-.03c-.788-1.031-1.798-1.985-2.873-2.803a520 520 0 0 1 10.977-17.175 212 212 0 0 0 4.697 22.512c1.374 5.183 3.236 10.948 3.649 16.29.208 2.695.028 5.289-.49 7.94l-.21 1.08c-5.827 6.53-12.545 12.214-19.57 17.525m-8.714-19.803c2.449 5.715 5.293 15.218 6.891 21.168q-.76.565-1.525 1.125a85 85 0 0 0-2.13-1.502c-1.846-6.311-3.975-13.83-5.766-19.909.847-.261 1.674-.56 2.53-.882m7.264 63.281c-.343-.876-1.482-.14-1.2.5 1.638 3.727 3.488 8.628 4.334 12.612.825 3.88 1.49 7.79 1.895 11.732.05.481.467.544.503.09.01-7.427-2.782-17.916-5.532-24.934m32.44 21.547c-.46.521.427 2.027.997 1.562 4.178-3.412 8.052-6.117 13.054-8.299 2.107-.919-.446-2.845-1.405-2.352-4.675 2.407-9.14 5.105-12.646 9.089m-1.659-16.344c-1.795 3.52-3.477 5.328-5.137 8.919-.208.449-.437.89-.677 1.323l-.054.097.19.11.058-.094c2.547-4.186 5.454-9.38 8.598-12.28.581-.535 1.85-.45 4.093.7.259.132.07-.416-2.588-1.977-.795-.467-3.198.68-4.483 3.202m-28.868 23.22a99 99 0 0 0 1.078 3.93 99 99 0 0 1-5.095 3.535 110 110 0 0 1-1.264-4.517l.192-.11c1.687-.967 3.33-2.004 5.089-2.838m17.08 11.217q-1.619 1.205-3.274 2.364a130 130 0 0 1-1.91-4.717c2-.444 4.147.623 5.185 2.353m1.084-.815c-1.378-2.179-4.132-3.452-6.675-2.83l-.072.018-.012-.032q2.57-1.742 5.12-3.518 1.064 2.972 2.248 5.898zm-9.066-2.92a293 293 0 0 1-4.427 2.908 110 110 0 0 1-.785-2.166l.043-.05c1.36-1.557 3.419-1.413 5.17-.691m-5.7-.684a99 99 0 0 1-.754-2.354 98 98 0 0 0 4.978-4.03 111 111 0 0 0 1.851 5.764c-2.026-.794-4.362-.878-6.075.62m-18.963 24.185q1.292-.556 2.579-1.126a83 83 0 0 0 2.729 5.632c-1.051.357-2.168.543-3.253.764-.961-1.335-1.763-3.646-2.055-5.27m18.462 15.495c-2.721-.611-5.56-1.393-8.15-2.428l.354-1.616a100 100 0 0 0 5.239-2.279q1.495 2.377 3.118 4.667zm-8.264-5.312a90 90 0 0 1-2.978-4.986q2.555-1.065 5.06-2.243a106 106 0 0 0 2.908 5.062 98 98 0 0 1-4.99 2.167m-3.627-6.179a82 82 0 0 1-2.758-5.68q2.536-1.138 5.044-2.337 1.307 2.929 2.79 5.771a125 125 0 0 1-5.076 2.246m-5.104-12.49a132 132 0 0 0 4.667-2.301 95 95 0 0 0 2.18 5.537 223 223 0 0 1-5.044 2.338c-.667-1.472-1.888-4.013-1.803-5.574m-.535-1.24c-.909-1.183-1.568-3.801-2.005-5.283q2.58-1.206 5.099-2.536a83 83 0 0 0 1.658 5.47 132 132 0 0 1-4.752 2.349m19.333 22.982a100 100 0 0 1-3.132-4.669 113 113 0 0 0 5.75-2.996q1.467 2.473 3.064 4.863c-1.877.969-3.772 1.9-5.682 2.802m-3.85-5.823a104 104 0 0 1-2.913-5.062 121 121 0 0 0 5.9-3.056q1.339 2.589 2.797 5.11a112 112 0 0 1-5.784 3.008m-3.547-6.255a103 103 0 0 1-2.794-5.779c2.01-.98 4.004-1.994 5.975-3.05q1.301 2.914 2.738 5.763a119 119 0 0 1-5.919 3.066m-3.336-7.016a94 94 0 0 1-2.19-5.581 162 162 0 0 0 5.811-3.236q1.11 2.908 2.35 5.764a173 173 0 0 1-5.971 3.053m-2.637-6.873a81 81 0 0 1-1.645-5.49 107 107 0 0 0 5.532-3.227 127 127 0 0 0 1.89 5.49 160 160 0 0 1-5.777 3.227m2.181-14.602q.599 2.289 1.29 4.551a106 106 0 0 1-5.455 3.207 67 67 0 0 1-.904-4.39c1.668-1.154 3.34-2.305 5.07-3.368m2.886 5.136a101 101 0 0 0 5.098-3.505 105 105 0 0 0 2.013 5.833 211 211 0 0 1-5.218 3.214 126 126 0 0 1-1.893-5.542m10.115 9.539a142 142 0 0 1-5.382 3.1 134 134 0 0 1-2.36-5.812 210 210 0 0 0 5.233-3.214 122 122 0 0 0 2.51 5.926m-1.496 11.292a120 120 0 0 0 5.427-3.279 238 238 0 0 0 2.765 5.118 127 127 0 0 1-5.397 3.27 124 124 0 0 1-2.795-5.11m3.479 6.273a128 128 0 0 0 5.373-3.252c.979 1.747 1.975 3.485 2.977 5.22a128 128 0 0 1-5.258 2.93 106 106 0 0 1-3.092-4.898m3.857 6.02c1.744-.923 3.47-1.882 5.17-2.884l1.498 2.575a30 30 0 0 1-4.965 2.69 89 89 0 0 1-1.703-2.38m7.766-1.108q-.72-1.233-1.436-2.469a100 100 0 0 0 5.018-3.24l.937 2.352c-1.37 1.255-3.03 2.24-4.519 3.357m-15.717-12.39a133 133 0 0 1-2.725-5.745 143 143 0 0 0 5.404-3.107 160 160 0 0 0 2.739 5.574 120 120 0 0 1-5.418 3.279m25.071-9.04q-1.715 1.457-3.47 2.866a125 125 0 0 1-2.682-5.322 157 157 0 0 0 3.64-3.098c.932 1.807 1.742 3.674 2.512 5.555m-3.167-6.775-.03.027a159 159 0 0 1-3.547 3.03 140 140 0 0 1-2.315-5.295q1.434-1.115 2.843-2.262c1.166 1.39 2.164 2.918 3.049 4.5m-3.95-5.51q-1.226 1-2.472 1.973-1.094-2.72-2.082-5.479c1.71.912 3.22 2.102 4.554 3.507m-11.426-.861a110 110 0 0 1-2.025-6.262c2.468.07 5.594.934 7.416 2.653-1.816 1.133-3.64 2.375-5.39 3.609m-4.603-6.5a97 97 0 0 1-4.095 3.315 97 97 0 0 1-.954-3.525c1.823-.347 3.28-.084 5.049.21m22.38 29.884a79 79 0 0 1-4.556 3.515 127 127 0 0 1-3.224-5.307 155 155 0 0 0 4.657-3.522c.993 1.799 2.033 3.573 3.124 5.314m-3.778-6.517a154 154 0 0 1-4.673 3.543 137 137 0 0 1-2.756-5.166 140 140 0 0 0 4.743-3.674 127 127 0 0 0 2.686 5.297m-3.279-6.555a139 139 0 0 1-4.763 3.706 137 137 0 0 1-2.53-5.419 144 144 0 0 0 4.948-3.612q1.119 2.686 2.345 5.325m1.396 17.366a98 98 0 0 1-5.04 3.26c-1.01-1.747-2.014-3.5-3-5.26a142 142 0 0 0 4.82-3.292 129 129 0 0 0 3.22 5.292m-3.893-6.472a142 142 0 0 1-4.807 3.29 233 233 0 0 1-2.764-5.121 127 127 0 0 0 4.814-3.322 137 137 0 0 0 2.757 5.153m-3.371-6.376a125 125 0 0 1-4.825 3.34c-.94-1.832-1.85-3.679-2.717-5.546l.773-.481a132 132 0 0 0 4.212-2.762 137 137 0 0 0 2.557 5.449m-3.107-6.71a132 132 0 0 1-4.38 2.879l-.622.387a120 120 0 0 1-2.508-5.953 290 290 0 0 0 5.089-3.344 130 130 0 0 0 2.421 6.031m-58.416-161.59c-.681-.522-.36 1.475.2 1.87 2.13 1.509 6.035 4.502 8.482 6.925-2.383-2.789-3.83-5.028-8.682-8.794m34.828 2.423c-.193 1.13.08 1.536 1.047-1.206 1.306-3.701 4.12-9.215 5.078-10.565 1.185-1.672-1.65-2.004-2.17-1.16-1.838 3.959-3.315 9.191-3.955 12.931m-8.274-15.406c.833-.332 2.587-.46 3.983-.228-.176-.615-2.713-.982-3.581-.933-.904.05-1.67.349-1.657.755.007.244.69.43.689.898-.012 5.81.083 6.157.299 8.573a55 55 0 0 1 .267-9.065m-12.74 33.27a87 87 0 0 0 2.608 2.48 88 88 0 0 1-2.244 5.008 98 98 0 0 1-3.017-2.84l.09-.164c.838-1.506 1.61-3.046 2.563-4.485m16.556 4.055c-1.188-.868-2.258-1.877-3.41-2.79 1.313-1.241 3.418-1.413 4.993-.583-.476 1.146-1.073 2.242-1.583 3.373m2.044-4.514c-2.058-1.024-4.73-.727-6.386.92l-.039.038-.007-.006a429 429 0 0 0 2.272-5.006 138 138 0 0 0 4.402 3.443zm-8.26 1.974q-.99 2.115-2.018 4.211-.795-.629-1.575-1.274l.009-.05c.319-1.802 1.93-2.63 3.585-2.887zm-4.639 2.059q-.826-.704-1.635-1.428a87 87 0 0 0 1.931-5.33 99 99 0 0 0 4.022 3.51c-1.907.33-3.695 1.324-4.318 3.248m-1.877 25.121a74 74 0 0 0 4.642 3.02c-.632.75-1.389 1.397-2.109 2.06-1.339-.576-3-1.958-3.967-3.057q.723-1.008 1.434-2.023m19.242 5.056c-2.073.7-3.898 1.521-6.084 1.889l-.376-1.104c.798-1.32 1.433-2.738 2.282-4.027 1.27.636 2.548 1.177 3.848 1.74zm-12.789-2.394a112 112 0 0 0 2.81-4.012 100 100 0 0 0 4.748 2.647c-.846 1.293-1.448 2.725-2.37 3.969-1.727-.846-3.519-1.65-5.188-2.604m-1.063-.623a73 73 0 0 1-4.688-3.045 201 201 0 0 0 2.753-4.075 93 93 0 0 0 4.755 3.1q-1.365 2.04-2.82 4.02m-5.69-3.752c-1.182-.812-3.262-2.177-3.915-3.397a118 118 0 0 0 2.486-3.878 85 85 0 0 0 4.183 3.2q-1.351 2.055-2.754 4.075m-4.912-4.112c-1.228-.485-2.92-2.163-3.93-3.088a104 104 0 0 0 2.703-4.251 74 74 0 0 0 3.756 3.386 116 116 0 0 1-2.529 3.953m24.839 8.353c-1.374-.593-2.73-1.17-4.069-1.838a101 101 0 0 0 2.99-4.9 95 95 0 0 0 4.563 2.294c-.9 2.492-1.172 2.877-3.484 4.444m-5.168-2.398a94 94 0 0 1-4.52-2.505 107 107 0 0 0 3.075-5.015q2.197 1.35 4.455 2.594a100 100 0 0 1-3.01 4.926m-5.573-3.136a91 91 0 0 1-4.761-3.102 155 155 0 0 0 3.136-5.046 121 121 0 0 0 4.71 3.117 106 106 0 0 1-3.085 5.031m-5.762-3.81a83 83 0 0 1-4.21-3.23 145 145 0 0 0 2.926-5.11q2.17 1.698 4.416 3.294a154 154 0 0 1-3.132 5.045m-5.164-4.024a72 72 0 0 1-3.755-3.408 96 96 0 0 0 2.719-4.975 113 113 0 0 0 3.94 3.295 143 143 0 0 1-2.904 5.088m-5.038-12.08q1.496 1.458 3.054 2.855a94 94 0 0 1-2.67 4.923 60 60 0 0 1-2.686-2.908c.737-1.637 1.478-3.275 2.302-4.87m4.568 2.562a89 89 0 0 0 2.261-4.987 94 94 0 0 0 4.191 3.5 187 187 0 0 1-2.485 4.82 112 112 0 0 1-3.967-3.333m12.05 2.624a126 126 0 0 1-2.66 4.81 120 120 0 0 1-4.448-3.326 187 187 0 0 0 2.497-4.828 109 109 0 0 0 4.612 3.344m4.08 9.277a108 108 0 0 0 2.616-4.966q2.201 1.334 4.434 2.614-1.237 2.506-2.597 4.946a109 109 0 0 1-4.452-2.594m5.53 3.18q1.354-2.431 2.586-4.922c1.541.876 3.09 1.738 4.643 2.594a114 114 0 0 1-2.647 4.625 94 94 0 0 1-4.581-2.298m8.07 3.832a79 79 0 0 1-2.367-1.021q1.352-2.245 2.6-4.548l2.301 1.26a27 27 0 0 1-2.533 4.309m3.014-5.443-2.205-1.208c.734-1.38 1.57-2.667 2.227-4.094l1.774 1.346c-.421 1.407-1.239 2.607-1.796 3.956m-17.656-2.216a118 118 0 0 1-4.693-3.11q1.39-2.384 2.676-4.826a143 143 0 0 0 4.625 2.974 106 106 0 0 1-2.608 4.962m10.16-20.735c1.495.939 2.857 2.217 4.08 3.478-.139.869-.403 1.775-.64 2.628a111 111 0 0 1-4.455-2.8c.38-1.094.67-2.203 1.014-3.306m-1.076-.71c-.344 1.098-.619 2.222-.992 3.31q-2.115-1.433-4.171-2.952.572-1.488 1.11-2.988c1.22.667 3.122 1.698 4.053 2.63m-5.218-3.012a142 142 0 0 1-.966 2.609 137 137 0 0 1-4.063-3.185c1.704-.087 3.383.125 5.029.576m-9.085 4.562a98 98 0 0 1-4.391-3.815c1.903-1.072 4.66-1.843 6.825-1.38-.857 1.689-1.67 3.461-2.434 5.195m-6.505-2.793a86 86 0 0 1-1.58 4.361 87 87 0 0 1-2.323-2.223c1.218-1.088 2.437-1.556 3.903-2.138m29.345 13.254c.124 1.357-.132 3.206-.614 4.51-1.663-.826-3.242-1.827-4.864-2.732a138 138 0 0 0 1.917-4.794c1.1.677 2.95 1.983 3.561 3.016m-4.446-4.02c-.658 1.745-1.383 3.474-2.108 5.194-1.513-.864-2.973-1.822-4.45-2.748.718-1.735 1.46-3.47 2.103-5.233q2.195 1.445 4.455 2.786m-7.608 1.78c-1.511-.976-2.926-2.098-4.394-3.137.76-1.697 1.596-3.366 2.286-5.093a125 125 0 0 0 4.21 2.963c-.64 1.776-1.384 3.52-2.103 5.267m11.044 7.97c-.655 1.437-1.496 2.732-2.234 4.121a395 395 0 0 1-4.68-2.616 116 116 0 0 0 1.961-4.323c1.656.924 3.255 1.975 4.953 2.818m-6.028-3.42a115 115 0 0 1-1.953 4.315 207 207 0 0 1-4.434-2.617c.698-1.46 1.313-2.946 1.943-4.436 1.473.924 2.932 1.877 4.444 2.737m-5.495-3.4c-.63 1.495-1.244 2.988-1.942 4.454a138 138 0 0 1-4.594-2.961l.362-.712c.646-1.283 1.155-2.622 1.745-3.93 1.48 1.045 2.905 2.17 4.43 3.148m-5.447-3.871c-.615 1.364-1.147 2.762-1.822 4.1l-.288.568a107 107 0 0 1-4.624-3.367 258 258 0 0 0 2.328-4.86c1.473 1.183 2.871 2.452 4.406 3.559M75.335 382.453c3.019 5.124 5.612 10.751 7.83 16.498a142 142 0 0 1 4.698-13.455c4.961-12.224 11.839-24.43 20.33-34.865q-.7-1.33-1.43-2.648c-4.665-8.418-10.586-17.108-17.4-23.937-3.136-3.142-8.22-7.574-13.158-8.963 6.37 22.99 6.18 44.766-.87 67.37m35.222-37.68.472.845q.285.513.565 1.029a105 105 0 0 1 2.45-2.642l2.902-10.513a35 35 0 0 1-2.928-.96zm10.717-12.626-1.685 6.535c2.907-2.558 6.034-4.958 9.342-7.047-.754-.69-1.525-1.37-2.17-2.166-1.747 1.004-3.655 1.81-5.487 2.678m29.655-56.228c.681-.523.461 1.78-.099 2.176-6.409 4.516-10.131 9.019-14.784 15.2-.27.357-.99-.014-.803-.39 2.958-5.93 10.367-12.903 15.686-16.986m-34.704 1.921c.102.434.177.876.236 1.318.046.342.404 3.494-.105 3.547-.195.02-.286-.348-.325-.484-1.389-4.925-3.822-10.938-6.778-15.106-1.185-1.672 1.65-2.004 2.17-1.16 2.47 4.002 3.733 7.346 4.802 11.885m8.27-1.208c-.02-4.78-.438-9.306-1.086-14.034l-.003-.025.007-.024c.091-.295 1.796-.307 2.042-.31 1.348-.02 2.753.088 4.075.343 1.052.203 2.153.52 3.093 1.04l.358.199-.408.013c-1.522.049-3.004-.361-4.547-.215-.566.053-2.63.382-2.687 1.17-.25 3.506-.143 7.031-.528 10.528-.048.438-.075.878-.091 1.318l-.004.11-.221-.003zm11.804 20.491a87 87 0 0 1-2.609 2.48 88 88 0 0 0 2.245 5.01 98 98 0 0 0 3.017-2.842l-.09-.163c-.838-1.506-1.611-3.046-2.563-4.485m-16.557 4.056c1.189-.868 2.259-1.877 3.411-2.79-1.313-1.241-3.418-1.413-4.994-.583.477 1.146 1.073 2.241 1.583 3.373m-2.043-4.514c2.058-1.024 4.73-.727 6.385.92l.04.038.006-.006a428 428 0 0 1-2.272-5.006 138 138 0 0 1-4.401 3.443zm8.259 1.974q.99 2.115 2.019 4.211.794-.629 1.575-1.274l-.01-.05c-.318-1.802-1.93-2.63-3.585-2.887zm4.64 2.059q.825-.704 1.634-1.428a87 87 0 0 1-1.93-5.33 99 99 0 0 1-4.023 3.51c1.907.33 3.696 1.324 4.318 3.248m1.876 25.121a74 74 0 0 1-4.642 3.02c.632.75 1.39 1.397 2.11 2.06 1.338-.576 3-1.958 3.966-3.057q-.722-1.008-1.434-2.023m-19.241 5.055c2.073.701 3.897 1.522 6.083 1.89l.376-1.104c-.798-1.32-1.433-2.738-2.281-4.027-1.27.636-2.548 1.177-3.849 1.74zm12.788-2.393a112 112 0 0 1-2.809-4.012 99 99 0 0 1-4.749 2.647c.847 1.293 1.448 2.725 2.37 3.969 1.728-.846 3.52-1.65 5.188-2.604m1.064-.623c1.6-.955 3.166-1.97 4.688-3.045a201 201 0 0 1-2.754-4.075 93 93 0 0 1-4.754 3.099q1.365 2.041 2.82 4.021m5.689-3.752c1.182-.812 3.263-2.177 3.915-3.397a118 118 0 0 1-2.485-3.878 85 85 0 0 1-4.183 3.2q1.352 2.055 2.753 4.075m4.912-4.112c1.228-.485 2.921-2.163 3.931-3.088a105 105 0 0 1-2.703-4.251 74 74 0 0 1-3.756 3.386 116 116 0 0 0 2.528 3.953m-24.838 8.353c1.373-.593 2.729-1.17 4.068-1.838a101 101 0 0 1-2.989-4.9 95 95 0 0 1-4.564 2.294c.9 2.492 1.172 2.877 3.485 4.444m5.168-2.398a94 94 0 0 0 4.52-2.505 107 107 0 0 1-3.075-5.015 110 110 0 0 1-4.456 2.594 100 100 0 0 0 3.01 4.926m5.572-3.136a91 91 0 0 0 4.761-3.102 156 156 0 0 1-3.136-5.046 121 121 0 0 1-4.71 3.117q1.472 2.559 3.085 5.031m5.763-3.81a83 83 0 0 0 4.21-3.23 145 145 0 0 1-2.926-5.11 120 120 0 0 1-4.416 3.294 154 154 0 0 0 3.132 5.045m5.164-4.024a72 72 0 0 0 3.755-3.408 95 95 0 0 1-2.72-4.975 114 114 0 0 1-3.94 3.295c.935 1.715 1.9 3.413 2.905 5.088m5.038-12.08q-1.498 1.458-3.054 2.855a94 94 0 0 0 2.669 4.923 60 60 0 0 0 2.687-2.908c-.737-1.638-1.478-3.275-2.302-4.87m-4.569 2.562a89 89 0 0 1-2.26-4.987 94 94 0 0 1-4.192 3.5 188 188 0 0 0 2.486 4.82 112 112 0 0 0 3.966-3.333m-12.05 2.624q1.278 2.434 2.661 4.81a120 120 0 0 0 4.447-3.326 186 186 0 0 1-2.497-4.828 109 109 0 0 1-4.611 3.344m-4.08 9.277a108 108 0 0 1-2.615-4.966q-2.201 1.334-4.434 2.614 1.237 2.506 2.597 4.946a109 109 0 0 0 4.452-2.594m-5.53 3.18a114 114 0 0 1-2.586-4.923q-2.312 1.314-4.642 2.595c.845 1.563 1.73 3.103 2.647 4.625a94 94 0 0 0 4.58-2.298m-8.07 3.832a79 79 0 0 0 2.368-1.021c-.9-1.497-1.77-3.012-2.6-4.548l-2.302 1.26a27 27 0 0 0 2.534 4.309m-3.014-5.443 2.205-1.208c-.734-1.38-1.57-2.667-2.226-4.094l-1.774 1.346c.42 1.407 1.238 2.606 1.795 3.956m17.657-2.216a118 118 0 0 0 4.692-3.11q-1.39-2.384-2.676-4.826a143 143 0 0 1-4.624 2.974 106 106 0 0 0 2.608 4.962m-10.16-20.735c-1.496.939-2.857 2.217-4.08 3.478.138.869.403 1.775.64 2.628a111 111 0 0 0 4.455-2.801c-.38-1.093-.67-2.202-1.015-3.305m1.075-.71c.344 1.098.62 2.221.992 3.31q2.115-1.433 4.172-2.952a144 144 0 0 1-1.111-2.988c-1.22.667-3.122 1.698-4.053 2.63m5.219-3.012q.47 1.308.966 2.609a137 137 0 0 0 4.062-3.185c-1.703-.087-3.383.125-5.028.576m9.084 4.562c1.5-1.229 2.967-2.5 4.392-3.815-1.903-1.072-4.66-1.843-6.825-1.38.857 1.689 1.67 3.461 2.433 5.195m6.506-2.793a86 86 0 0 0 1.58 4.361 87 87 0 0 0 2.323-2.223c-1.218-1.088-2.438-1.556-3.903-2.138m-29.346 13.253c-.124 1.358.133 3.207.614 4.512 1.664-.827 3.243-1.828 4.865-2.733a138 138 0 0 1-1.918-4.794c-1.099.677-2.95 1.982-3.56 3.015m4.446-4.02c.66 1.746 1.383 3.475 2.108 5.194 1.514-.863 2.974-1.82 4.45-2.748-.718-1.735-1.46-3.468-2.102-5.232a113 113 0 0 1-4.456 2.786m7.61 1.78c1.51-.976 2.925-2.097 4.392-3.136-.76-1.697-1.595-3.366-2.285-5.094a125 125 0 0 1-4.211 2.964c.641 1.776 1.384 3.52 2.103 5.266m-11.046 7.97c.655 1.438 1.496 2.733 2.234 4.122a396 396 0 0 0 4.68-2.616 116 116 0 0 1-1.96-4.324c-1.656.925-3.256 1.976-4.954 2.819m6.028-3.42c.627 1.453 1.267 2.89 1.953 4.316a207 207 0 0 0 4.434-2.617c-.698-1.46-1.313-2.946-1.942-4.436-1.474.924-2.932 1.877-4.445 2.737m5.495-3.4c.63 1.496 1.245 2.989 1.943 4.455q2.326-1.435 4.594-2.961-.183-.355-.362-.712c-.647-1.283-1.156-2.622-1.746-3.93-1.479 1.045-2.904 2.17-4.429 3.148m5.447-3.87c.615 1.364 1.148 2.762 1.822 4.1l.289.568a107 107 0 0 0 4.624-3.367 257 257 0 0 1-2.328-4.86c-1.474 1.183-2.872 2.452-4.407 3.559m-11.494 101.104c.343-.876 1.423 1.502 1.142 2.141-1.639 3.728-2.902 7.455-3.75 11.44-.825 3.88-1.254 7.847-1.66 11.79-.05.483-.935.544-.971.09-.596-7.426 2.488-18.443 5.24-25.461m-32.324 22.015c.46.522-.427 2.028-.996 1.563-4.178-3.412-8.052-6.117-13.054-8.299-2.107-.92.446-2.846 1.405-2.352 4.674 2.406 9.14 5.105 12.645 9.088m1.745-21.813c-.81 1.052-1.178 2.72-.554 3.944 1.795 3.521 3.945 6.854 5.606 10.444.208.45.437.89.677 1.324l.054.096-.19.111-.058-.094c-2.547-4.186-5.374-8.243-8.54-11.987l-.482-.57c-.315-.405-.63-.811-.952-1.21l-.016-.02-.006-.023c-.129-.518 3.161-3.013 4.433-2.178l.102.067zm28.783 28.69a99 99 0 0 1-1.078 3.929 99 99 0 0 0 5.095 3.536q.68-2.245 1.263-4.517l-.19-.111c-1.688-.966-3.332-2.003-5.09-2.838m-17.08 11.216q1.62 1.206 3.273 2.365a130 130 0 0 0 1.911-4.717c-2-.444-4.147.623-5.185 2.352m-1.085-.814c1.38-2.18 4.132-3.452 6.676-2.83l.072.018.012-.032a483 483 0 0 1-5.12-3.518q-1.064 2.971-2.248 5.898zm9.066-2.92a294 294 0 0 0 4.428 2.908q.404-1.08.785-2.166l-.043-.05c-1.36-1.557-3.42-1.414-5.17-.692m5.7-.684a99 99 0 0 0 .755-2.355 98 98 0 0 1-4.978-4.03 111 111 0 0 1-1.851 5.764c2.025-.794 4.362-.877 6.074.62m18.964 24.185q-1.293-.558-2.58-1.127a83 83 0 0 1-2.728 5.632c1.05.358 2.167.544 3.253.765.96-1.335 1.763-3.646 2.055-5.27m-18.462 15.494c2.721-.61 5.56-1.393 8.15-2.427l-.355-1.617a100 100 0 0 1-5.238-2.278 101 101 0 0 1-3.118 4.667zm8.264-5.312a90 90 0 0 0 2.978-4.985 126 126 0 0 1-5.061-2.244 106 106 0 0 1-2.907 5.062 98 98 0 0 0 4.99 2.167m3.627-6.178a82 82 0 0 0 2.758-5.68 226 226 0 0 1-5.044-2.337 104 104 0 0 1-2.791 5.771q2.513 1.18 5.077 2.246m5.104-12.49a132 132 0 0 1-4.667-2.302 95 95 0 0 1-2.181 5.538q2.508 1.2 5.044 2.337c.668-1.472 1.89-4.012 1.804-5.573m.535-1.24c.909-1.183 1.568-3.802 2.005-5.283q-2.58-1.207-5.099-2.536a83 83 0 0 1-1.658 5.47q2.353 1.221 4.752 2.348m-19.334 22.982a100 100 0 0 0 3.133-4.67 113 113 0 0 1-5.75-2.995 107 107 0 0 1-3.064 4.862c1.876.97 3.772 1.9 5.681 2.803m3.851-5.823q1.528-2.49 2.913-5.062a121 121 0 0 1-5.9-3.056 124 124 0 0 1-2.797 5.11 112 112 0 0 0 5.784 3.008m3.547-6.256a103 103 0 0 0 2.794-5.778q-3.017-1.469-5.975-3.05a136 136 0 0 1-2.738 5.762q2.915 1.617 5.919 3.066m3.336-7.016a94 94 0 0 0 2.19-5.58 162 162 0 0 1-5.811-3.236 136 136 0 0 1-2.35 5.763 173 173 0 0 0 5.971 3.053m2.637-6.873a81 81 0 0 0 1.645-5.49 107 107 0 0 1-5.533-3.227 128 128 0 0 1-1.889 5.49 160 160 0 0 0 5.777 3.227m-2.181-14.602a113 113 0 0 1-1.29 4.552 106 106 0 0 0 5.454 3.206 67 67 0 0 0 .905-4.39c-1.669-1.153-3.34-2.305-5.07-3.368m-2.887 5.137a101 101 0 0 1-5.097-3.506 105 105 0 0 1-2.013 5.834 211 211 0 0 0 5.218 3.213q1.011-2.749 1.892-5.541m-10.115 9.538a142 142 0 0 0 5.383 3.1q1.248-2.878 2.36-5.811a209 209 0 0 1-5.233-3.214 122 122 0 0 1-2.51 5.925m1.497 11.292a120 120 0 0 1-5.428-3.278 238 238 0 0 1-2.765 5.118 127 127 0 0 0 5.398 3.269q1.458-2.521 2.795-5.109m-3.48 6.274a128 128 0 0 1-5.372-3.253 455 455 0 0 1-2.977 5.22 128 128 0 0 0 5.258 2.93 106 106 0 0 0 3.092-4.897m-3.856 6.02a130 130 0 0 1-5.17-2.885l-1.499 2.576a30 30 0 0 0 4.966 2.689 89 89 0 0 0 1.703-2.38m-7.766-1.108q.72-1.234 1.436-2.47a100 100 0 0 1-5.018-3.24l-.937 2.352c1.37 1.256 3.029 2.241 4.519 3.358m15.717-12.39a133 133 0 0 0 2.725-5.746 143 143 0 0 1-5.405-3.107 160 160 0 0 1-2.738 5.575 119 119 0 0 0 5.418 3.278m-25.072-9.04q1.716 1.457 3.47 2.865 1.405-2.629 2.683-5.321a157 157 0 0 1-3.64-3.098c-.933 1.807-1.743 3.674-2.513 5.554m3.168-6.775.03.026a159 159 0 0 0 3.547 3.03q1.212-2.624 2.315-5.294a160 160 0 0 1-2.843-2.263c-1.166 1.39-2.165 2.918-3.049 4.5m3.95-5.51q1.225.999 2.472 1.972 1.093-2.72 2.082-5.478c-1.71.911-3.22 2.102-4.555 3.506m11.425-.862a110 110 0 0 0 2.026-6.261c-2.468.069-5.595.934-7.416 2.653 1.816 1.132 3.64 2.375 5.39 3.608m4.604-6.499a97 97 0 0 0 4.095 3.314q.51-1.752.954-3.524c-1.823-.347-3.28-.084-5.049.21m-22.381 29.884a79 79 0 0 0 4.557 3.514 127 127 0 0 0 3.224-5.306 155 155 0 0 1-4.657-3.523q-1.488 2.701-3.124 5.315m3.78-6.518a154 154 0 0 0 4.672 3.544 137 137 0 0 0 2.756-5.166 140 140 0 0 1-4.744-3.675 127 127 0 0 1-2.685 5.297m3.278-6.554a139 139 0 0 0 4.763 3.705 137 137 0 0 0 2.53-5.418 144 144 0 0 1-4.949-3.613 142 142 0 0 1-2.344 5.326m-1.396 17.365a98 98 0 0 0 5.04 3.261c1.01-1.748 2.014-3.5 3-5.26a142 142 0 0 1-4.82-3.293 128 128 0 0 1-3.22 5.292m3.893-6.471a142 142 0 0 0 4.807 3.29 233 233 0 0 0 2.764-5.122 126 126 0 0 1-4.814-3.321 137 137 0 0 1-2.757 5.153m3.371-6.377q2.373 1.726 4.824 3.34c.94-1.831 1.85-3.678 2.717-5.545q-.388-.24-.772-.482a132 132 0 0 1-4.212-2.762 137 137 0 0 1-2.557 5.45m3.107-6.71q2.162 1.485 4.38 2.88l.622.387a120 120 0 0 0 2.508-5.953 291 291 0 0 1-5.089-3.345 130 130 0 0 1-2.421 6.032" style="fill:#1c4485;fill-rule:evenodd"></path><path d="m150.018 143.109 38.692 86.873c18.282-10.643 36.974-18.534 55.667-23.713l-25.873-63.16zm-1.586 331.455-61.33 18.817c20.924 50.84 52.41 97.382 98.476 128.592 34.168 23.15 74.073 36.055 115.342 36.986 40.787.92 80.483-12.165 114.035-35.087 44.984-30.733 76.772-76.811 98.596-126.111l-61.022-20.224c-10.683 36.633-31.616 67.894-63.599 89.573-24.607 16.68-55.4 27.03-85.21 27.557-31.393.556-64.637-10.371-90.594-27.755-33.077-22.153-54.795-54.234-64.694-92.348M443.665 263.42c-40.434-34.4-88.798-58.068-142.776-58.95-53.606-.877-104.09 21.718-144.994 55.224l41.258 51.612c24.032-21.461 50.79-36.445 83.646-39.574 6.139-.585 12.314-.746 18.476-.556 40.25 1.238 73.713 18.7 104.082 43.594 12.04-18.062 25.41-35.56 40.308-51.35m-223.602 36.956 48.63 109.186-63.7 144.354c15.933 12.923 33.66 21.933 51.086 27.593l45.736-109.588 45.642 109.361c17.191-5.71 34.793-14.821 50.672-28.176l-65.624-146.39L379.59 304.14c-18.022-11.952-35.357-19.577-52.633-23.673l-22.991 51.417-4.28 9.402-25.813-63.016c-17.92 2.793-35.59 9.591-53.81 22.106m192.044-67.08 41.397-90.187h-65.128l-29.253 65.421c17.796 5.685 35.516 13.903 52.984 24.766M175.043 621.418l-34.41 77.363h66.273l20.427-48.68c-17.572-6.741-35.225-16.108-52.29-28.683m201.182 29.422 19.774 47.941h66.999l-34.574-77.733c-17.012 13.063-34.604 22.843-52.2 29.792" style="fill:#fff;fill-rule:evenodd" data-source="https://football-logos.cc"></path><path d="M331.253 300.181c-2.687-2.276-6.369-2.452-11.506.442-8.267-1.03-14.11 1.655-18.296 6.884-2.633.93-4.892 2.423-6.98 4.17-2.03-.723-6.056-.885-9.329-.64-3.95.295-7.133 1.278-8.65 3.803-1.085 1.806-.79 6.972 1.812 10.706-.634 1.717-1.433 4.933-.78 5.763.747.948 2.821 2.205 5.506 3.358 3.055.465 6.11.444 9.164.092l2.445-1.822 2.966-.164 7.57-6.033c.175.777.045 2.371 1.034 2.636 1.272.34 3.059-.234 4.945-1.015l.29 2.692-.83 5.619c-11.338.898-15.942 2.436-24.423 5.033-3.318 1.016-8.68 5.039-10.875 5.664-1.67.476-2.86-.177-5.057-.367-3.866-3.038-6.31-7.211-10.476-9.215-1.28-.616-2.544 2.909-1.56 3.932l5.55 5.778 13.007 4.242c2.64-.268 6.284-2.362 8.18-4.844l14.056-4.073.74.403c.85-2.184 3.684-2.835 5.456-2.905 1.628-.064 1.987.408 2.965.71 1.076.332 1.857.473 2.618.96s1.197 1.22.971 1.716c-.575 2-2.987 3.694-6.93 6.307l-.391 1.46-13.835 5.195-11.358 2.619c.633 10.123 4.635 13.971 5.268 20.35-3.166 3.617-5.678 6.954-7.816 9.731l-2.32.2-2.296 2.179c-1.023 7.122 2.82 7.92 5.032 5.974 2.089-2.178 5.095-5.695 6.38-7.937.413-1.017.672-3.026 1.738-5.668l14.673-16.65 12.295.105 7.863-.902 1.322 2.37 6.013-3.029 6.856-.826c1.985-2.165 4.041-4.258 6.299-6.151l-.092-10.31 5.946-4.88.56-2.947c3.213-3.927 6.426-7.104 9.639-9.941l.708-4.869c-9.043-7.757-12.691-7.466-22.266-6.538l-8.081 7.985c-3.45-3.272-5.694-8.644-6.424-15.453 5.42.342 9.902 2.026 12.668 4.58l8.608-1.878c.489-.08 1.179-.862 1.658-.917 7.208-.833 13.62 1.95 18.65 7.65l1.941 1.047-.114 3.311-2.566 2.032.694 13.78-.848 5.417c-3.489 4.906-5.982 9.48-7.021 13.57 1.413 4.18 3.336 8.26 3.627 12.848l1.747 2.064-.088 1.435-2.235.274-4.565-3.56c-1.034-3.088-2.067-6.075-3.61-9.265 1.701-9.935 4.84-17.123 8.141-21.819l-2.343-5.67c-3.607 1.449-5.436 4.353-6.05 8.252l-5.14 20.377c-3.802.902-11.261 4.173-14.345 7.008l-12.484 1.445-2.837-1.306c-7.152-.594-13.994 1.365-15.291 2.795-3.35 3.693-6.955 6.629-8.939 16.343l-5.918 6.73-2.812.424c-3.084 2.814-3.317 5.638-2.662 6.722.615 1.018 2.695 1.732 5.447.354 8.239-8.368 16.01-15.242 24.437-24.264l8.588.767 4.056-2.733c2.446-1.648 4.96 2 2.486 3.821l-3.455 2.543-9.061-.214-16.855 21.43c-1.45 1.843-4.783 4.364-6.615 5.144l7.964 3.529c3.636-.515 6.657-1.14 8.55-2.152l4.494-10.002 10.39-10.606c6.728-5.352 12.432-2.724 10.935 1.229-1.253 3.308-2.413 5.216-3.666 8.523-1.42 3.75-2.653 8.62-4.26 13.49.873 7.839 1.372 16.518 2.993 25.197l3.074 4.76 1.51-6.093 4.504-8.845c.162-7.783 1.072-16.126 1.233-23.909.114-5.499-.519-9.785-.405-15.284.12-1.81.8-2.311 1.2-2.345l.19-6.354 5.571 2.152c-2.192 12.617-1.862 22.65 2.486 33.928-1.476 4.31-1.33 8.432-.433 11.065 1.278 3.757 11.903 14.404 14.691 16.606l.56-16.663c-1.386-1.006-2.132-3.522-3.4-5.98-1.156-2.24-2.718-4.105-4.37-5.745-4.541-11.766-6.213-23.532-5.273-35.298l4.56-1.828c.275 1.92.39 4.07.466 6.307.142 4.272.135 8.868.802 12.824.87 5.155 3.338 8.898 3.764 13.04.214 2.086-1.31 5.869.98 6.903l14.606 6.597c1.837-2.592 3.199-5.601 1.016-8.268l-7.61-6.014c-.33-.75-.256-1.87-.526-2.612s-.955-1.091-1.1-1.841c-1.28-6.622-1.01-15.414 1.524-22.676l1.53-.729 1.251 2.498c2.315.733 4.225.594 6.291-.417.456.013.256-1.301-.052-2.2-.396-1.154-1.035-2.048-1.336-3.062-.408-4.129-1.654-8.808-2.03-11.495-1.254-8.95-.736-14.724-2.14-23.653l5.066-5.073-1.957-2.587 1.453-5.908-2.095-7.366-.078-3.638c-1.481-4.63-3.37-6.71-4.953-8.789l-.204-5.055-4.239-5.283-5.289.529-4.46-1.861 2.81-4.473c2.607-4.152-1.367-7.391-5.359-7.329-2.64.041-5.205 1.305-8.695 5.313-2.517.532-5.357 1.117-8.724 4.507m-65.545 97.28c-1.727 4.448-2.566 8.897-2.107 13.345l-3.044 3.746-3.041 1.055-3.164 1.517c-2.953-.868-7.893-4.907-13.167-7.017-3.848-1.54-8.47-3.164-13.055-4.335-3.011-6.482-6.157-12.29-9.482-17.209-5.828-2.667-13.212-3.355-22.477-1.637-3.547-3.194-5.352-5.644-6.256-8.64-1.872-6.202.226-12.3 3.935-17.203 4.922-6.509 9.287-11.739 17.774-10.682 3.065 3.938 4.47 8.933 5.501 14.045 2.482 1.876 4.846 4.455 7.327 6.33l10.89 7.318 7.187 5.553 2.693 3.977 12.292 8.197zm69.538 89.906 1.639 11.707c-12.291-.511-18.94 1.236-23.969 7.749-4.26 5.516-1.448 18.41.205 23.942.513 1.72.023 4.846-.197 6.435-.591 4.25-1.167 7.207-3.863 12.101-1.705 3.096-6.666 6.59-9.412 7.7-7.575 3.062-17.595 3.292-29.14-1.152-5.335 3.763-13.542 7.907-20.825 8.676-7.281.77-15.05-2.186-17.278-8.983-.757-2.307 1.245-3.693 3.919-7.066q-3.11-11.603 12.058-11.941c-.978-5.398.612-6.21 2.155-5.71 13.29 4.31 18.042 6.347 25.94 7.115 4.058-2.341 6.713-5.152 10.302-9.366-2.934-7.533-8.046-16.474-11.379-24.66-2.605-6.399-4.71-12.454-2.668-16.78l11.706-7.961c-.093-3.872 1.296-6.044 3.74-6.996 4.365-1.7 10.931 4 19.619 7.327 5.43 2.08 7.309 1.203 12.722 2.454 3.248.75 10.458 3.805 14.726 5.41m-14.075-89.77-1.561 11.409-1.997 7.876 1.311 12.544-1.498 7.864-15.353 3.37-.749-4.119 5.804-4.68 1.124 3.182c2.31-.562 4.244-1.123 6.927-2.808-3.9-3.058-7.333-6.117-9.736-9.175 1.437-4.995 5.165-6.56 7.115-8.238l1.872-3.37.937-6.366zM279.87 409.23l.468 10.31c5.93 2.169 12.027 3.588 18.583 2.94l1.92-1.418-.638 11.087c-4.954.26-5.585 2.025-4.681 4.453.955 2.57 3.152 5.611 5.67 8.012l15.547-1.438 3.551-2.194 7.381 11.948 6.678-1.173.68-11.622 3.772-5.6 11.833 9.955-.5 4.082-4.75 5.775c.256 2.705.981 4.708 2.878 6.71l8.068.313 2.341-2.887.484-7.019 3.663-5.68 5.99.89 1.176 4.4 7.432 5.703 4.617.018c.625-2.857 2.539-4.815 4.101-6.343l-1.69-28.746-4.051-29.933 4.114-7.011 2.798-7.281 10.621.855 5.196-1.092 9.033 15.025.46 2.083c3.015 6.43 9.47 16.604 10.102 25.159.42 5.669-3.661 10.259-5.418 22.29-.426 2.919-6.302 2.835-7.698-2.755-.811-3.252-.586-7.978 1.121-13.176l-1.156-3.049-6.327 1.526c-1.245-8.898-1.872-17.383-2.75-26.037-.255-2.515-1.263-5.316-4.52-4.346-3.162.942-3.332 6.952-1.814 13.78 1.883 8.465 3.306 16.13 4.151 24.66.895 9.036.782 18.889-.287 30.234-4.937 4.377-9.056 6.18-14.228 11.852-2.72 10.263-4.073 19.159-2.42 25.05 6.156 8.165 15.754 4.967 14.839 10.096-1.532 8.587-4.962 10.267-5.841 17.053-.466 3.597.223 7.327 2.748 12.232l-3.11 4.624-20.512 16.822-5.569-.468c-1.509-.127-2.71-.4-2.657 1.615.041 1.557.22 4.814-.736 5.636-1.89 1.625-4.68 1.073-7.795.466-5.191-1.011-10.967-2.962-13.586-4.893-2.229-1.641-2.976-2.116-1.22-4.204l4.53-5.383c1.387-2.395.555-7.668 4.63-8.36 6.066-1.03 14.364-2.344 19.612-3.692 1.996-4.323 3.531-9.185 3.496-14.464-.01-1.541-.708-2.56-2.012-2.677-3.87-.349-8.325.006-11.608-1.047-2.29-.734-2.872-1.182-2.845-5.993l-13.452-4.955 4.504-16.587c-1.388-5.129-3.27-10.352-4.982-12.316-4.994-5.732-7.577-3.935-12.364-4.604-3.495-.488-7.542-1.53-12.032-2.855-3.022-.891-6.248-2.382-9.642-3.448-2.322-.73-7.034-1.207-8.955-2.932-4.173-3.75-3.324-7.11-8.208-11.955l-3.06-.692-3.213-8.194c-1.081-2.757-3.537-1.51-6.177-2.547-2.788-1.095-5.034-2.638-11.402-2.994-5.515-.308-12.309 5.28-18.71 9.655l-12.882.005-5.665-3.186-18.02 6.128c-.501.17-3.114 4.76-5.14 7.095-1.787 2.059-4.402 3.67-6.29 4.303-6.192 2.077-14.277.411-17.058-5.575-5.448-1.207-6.815-6.128-5.39-13.592-4.03-2.229-3.46-6.656-.981-9.23 3.023-3.14 7.881-5.06 10.854-6.332 8.568-3.669 19.541-3.905 33.823-1.195 3.998-.444 8.91-1.608 13.235-2.444 3.156-.61 5.727-.828 8.752-1.55 3.028-.721 5.928-2.057 8.57-2.451 4.918-3.816 9.365-5.94 14.302-10.001 1.932-1.59 3.769-3.575 6.228-5.927l7.567 2.857z" style="fill:#e3001e;fill-rule:evenodd"></path><path d="m206.186 290.579 10.32-4.61-8.516-19.07 5.946-2.655 8.516 19.07 10.32-4.608-20.013-44.815-10.32 4.609 7.49 16.77-5.946 2.655-7.49-16.77-10.32 4.608zM234.631 275.692l10.97-2.723-.969-8.747 7.691-1.909 3.115 8.214 11.507-2.856-20.767-45.415-14.547 3.61zm6.049-44.224.12-.03 8.349 22.676-5.485 1.361zM275.574 265.724l12.58-.56 2.4-30.359.123-.005 4.656 30.045 12.58-.56 6.41-49.414-11.353.505-2.499 35.036-.122.006-4.988-34.703-10.985.489-2.07 35.017-.122.006-5.54-34.679-11.598.516zM318.106 264.545l11.066 2.296 9.971-48.057-11.066-2.296zM338.094 254.992q-1.527 4.101-.994 7.698c.355 2.399 1.343 4.51 2.97 6.348s3.846 3.297 6.65 4.363c2.811 1.047 5.441 1.413 7.876 1.105s4.571-1.244 6.419-2.813q2.773-2.352 4.33-6.443l2.185-5.807-10.578-3.982-2.532 6.727c-.11.32-.273.695-.488 1.15-.212.446-.5.863-.855 1.254s-.8.673-1.337.82c-.54.158-1.186.1-1.947-.175-.753-.294-1.276-.677-1.579-1.152a2.77 2.77 0 0 1-.464-1.498 5.2 5.2 0 0 1 .184-1.506c.138-.485.264-.875.392-1.187l8.548-22.709c.142-.406.323-.83.542-1.294s.503-.872.851-1.245a2.56 2.56 0 0 1 1.308-.743c.527-.12 1.165-.043 1.926.232.753.295 1.283.659 1.6 1.095.314.446.477.913.493 1.422a4.8 4.8 0 0 1-.18 1.496c-.142.494-.285.932-.446 1.331l-1.948 5.174 10.578 3.982 1.601-4.254c.835-2.246 1.236-4.327 1.183-6.25-.047-1.91-.466-3.643-1.278-5.207-.802-1.56-1.933-2.915-3.385-4.086-1.452-1.17-3.162-2.12-5.145-2.866-1.974-.743-3.895-1.16-5.759-1.238-1.863-.078-3.607.196-5.238.84-1.642.64-3.1 1.666-4.395 3.071-1.298 1.415-2.379 3.24-3.233 5.478zM366.804 280.429l9.597 5.24 6.477-11.861 4.26-2.292-3.998 17.833 10.568 5.77 5.474-29.766 17.992-13.342-10.513-5.74-16.204 14.039-.161-.088 9.626-17.63-9.597-5.24zM102.933 510.56l4.542 9.572 17.95-8.516.84 1.769c.424.893.652 1.666.665 2.319.008.644-.18 1.211-.58 1.688q-.588.71-1.791 1.264l-6.66 3.16c-.694.33-1.43.679-2.194 1.062-.755.38-1.493.772-2.197 1.191-.7.407-1.314.836-1.834 1.263-.524.44-.894.87-1.113 1.304l4.493 9.47c.219-.434.589-.864 1.121-1.287.524-.418 1.147-.83 1.85-1.228a42 42 0 0 1 2.214-1.157l2.202-1.045 7.337-3.48c1.166-.564 2.091-1.28 2.783-2.171a6.7 6.7 0 0 0 1.342-2.995c.203-1.116.155-2.294-.159-3.537l.104-.049c.99 1.081 1.966 1.861 2.922 2.353.965.488 1.934.74 2.922.76.982.012 2.016-.16 3.088-.499a28 28 0 0 0 3.434-1.406c1.864-.884 3.335-1.859 4.405-2.94q1.594-1.614 2.068-3.637c.315-1.35.282-2.875-.086-4.57-.382-1.699-1.076-3.611-2.097-5.74l-5.999-12.644zm39.038-6.795.89 1.874c.44.927.677 1.696.724 2.312.043.606-.083 1.122-.367 1.533-.283.41-.694.776-1.246 1.09-.539.32-1.18.646-1.913.983-.673.33-1.322.617-1.933.853-.61.236-1.175.367-1.721.38a2.46 2.46 0 0 1-1.51-.472c-.47-.34-.887-.907-1.283-1.718l-1.11-2.342zM157.056 534.729c.323-.242.685-.478 1.098-.725a4.5 4.5 0 0 1 1.313-.524 2.4 2.4 0 0 1 1.407.104q.707.271 1.377 1.187c.433.623.656 1.183.674 1.689.012.51-.105.959-.358 1.364-.254.405-.554.76-.922 1.07-.369.311-.709.577-1.043.804l-18.517 13.213c-.252.193-.575.4-.98.642q-.599.352-1.32.53c-.481.118-.975.105-1.47-.06q-.753-.238-1.424-1.154c-.433-.623-.64-1.194-.628-1.722.005-.522.152-.993.421-1.409.27-.416.578-.778.93-1.076.36-.305.662-.543.926-.719zm-23.922 4.053q-3.331 2.395-4.796 5.474c-.976 2.052-1.309 4.213-1.002 6.493s1.272 4.576 2.898 6.87c1.641 2.284 3.497 3.943 5.554 4.975s4.209 1.419 6.467 1.163q3.388-.383 6.736-2.755l17.017-12.143c1.822-1.313 3.22-2.724 4.185-4.249.96-1.511 1.54-3.08 1.725-4.721.19-1.634.018-3.28-.502-4.949-.519-1.669-1.354-3.302-2.508-4.92-1.149-1.608-2.427-2.937-3.836-3.97-1.41-1.035-2.911-1.733-4.518-2.084-1.611-.359-3.283-.321-5.025.096q-2.626.633-5.378 2.576zM163.982 569.035l-13.298 12.423 7.234 7.744 13.845-12.935 25.676-12.165-7.352-7.87-13.485 8.342-.079-.084 9.358-12.76-7.47-7.997zM168.28 598.16l8.085 6.849 6.12-5.532 5.67 4.802-4.54 6.873 8.48 7.184 23.154-40.692-10.722-9.084zm36.948-19.647.088.075-12.666 18.782-4.043-3.425zM201.393 624.937l19.228 10.925 4.381-7.711-10.014-5.69 18.351-32.297-9.213-5.235zM344.812 645.852l9.517-3.774-1.93-7.734 6.672-2.645 3.791 6.995 9.983-3.958-24.147-38.248-12.62 5.005zm.068-40.428.103-.041 10.244 19.34-4.758 1.887zM381.828 631.134l18.95-9.87-3.959-7.599-9.87 5.14-16.577-31.828-9.08 4.73zM410.014 615.671l11.772-8.502c1.837-1.338 3.177-2.729 4.032-4.158.85-1.437 1.292-2.9 1.32-4.397.035-1.489-.259-3.004-.877-4.525s-1.483-3.036-2.587-4.549q-1.644-2.296-3.41-3.645c-1.19-.903-2.44-1.43-3.771-1.578-1.324-.154-2.746.142-4.271.865l-.065-.09c.75-1.068 1.221-2.095 1.423-3.098a6.9 6.9 0 0 0-.047-2.963c-.216-.965-.6-1.924-1.124-2.871a25 25 0 0 0-1.82-2.838c-1.482-2.052-2.995-3.465-4.558-4.235q-2.333-1.163-4.931-.557c-1.738.397-3.603 1.332-5.612 2.795l-11.502 8.306zm-3.2-21.916 1.895-1.368c.644-.454 1.253-.688 1.832-.694.581-.02 1.133.142 1.66.46a6.6 6.6 0 0 1 1.514 1.274c.486.53.956 1.117 1.399 1.746q.973 1.325 1.549 2.336c.383.673.617 1.281.689 1.825a2.27 2.27 0 0 1-.306 1.524c-.28.466-.765.953-1.449 1.447l-1.714 1.238zm-10.098-13.983 1.85-1.336q1.004-.726 1.897-.683.899.054 1.742.766.863.716 1.766 1.985c.414.558.775 1.121 1.079 1.668q.453.822.585 1.602a2.63 2.63 0 0 1-.21 1.547q-.35.75-1.312 1.462l-1.534 1.108zM440.184 592.755l16.697-16.189-5.964-6.152-9.347 9.063-6.895-7.11 7.87-7.63-5.965-6.151-7.869 7.63-6.158-6.352 8.987-8.714-5.964-6.152-16.338 15.84zM464.765 567.708l6.461-7.941-14.889-12.116 1.194-1.467c.603-.74 1.182-1.261 1.747-1.544.558-.275 1.13-.346 1.713-.195q.862.217 1.847 1.036l5.524 4.495c.575.468 1.187.966 1.838 1.472.645.501 1.294.981 1.953 1.421.645.441 1.275.799 1.863 1.075.602.274 1.13.417 1.6.429l6.391-7.855c-.47-.011-.998-.154-1.588-.443a13.6 13.6 0 0 1-1.84-1.103 41 41 0 0 1-1.929-1.45l-1.826-1.487-6.086-4.951c-.976-.783-1.985-1.293-3.05-1.526a6.46 6.46 0 0 0-3.17.075c-1.058.287-2.064.818-3.018 1.609l-.086-.071c.53-1.313.805-2.488.837-3.527.025-1.044-.159-1.994-.551-2.863-.398-.862-.978-1.692-1.719-2.486a27 27 0 0 0-2.653-2.41c-1.547-1.26-3.008-2.138-4.396-2.621q-2.069-.719-4.03-.291c-1.31.286-2.626.948-3.95 1.974-1.324 1.039-2.703 2.44-4.136 4.215l-8.533 10.487zm-22.151-31.224 1.264-1.553c.626-.77 1.198-1.297 1.715-1.594.51-.29 1.014-.394 1.49-.318s.965.284 1.469.634c.502.337 1.053.762 1.652 1.26.567.45 1.088.897 1.547 1.331.46.434.808.873 1.048 1.343.232.463.31.97.215 1.514-.102.55-.423 1.15-.966 1.833l-1.58 1.941zM456.697 520.334l3.595-5.56 30.136 19.488 5.559-8.596-30.135-19.488 3.595-5.56-7.195-4.653-12.75 19.717z" style="fill:#1c4485;fill-rule:evenodd" data-source="https://football-logos.cc"></path><!-- source: https://football-logos.cc --></svg>