<svg xmlns="http://www.w3.org/2000/svg" xml:space="preserve" viewBox="2.21 2.22 300.57 300.57"><!-- Source: https://football-logos.cc --><path d="M733.537 547.968c66.4 0 120.227 53.828 120.227 120.227 0 66.4-53.828 120.228-120.227 120.228s-120.226-53.828-120.226-120.228 53.827-120.227 120.226-120.227" style="fill:#fff;fill-opacity:1;fill-rule:nonzero;stroke:none" transform="matrix(1.25 0 0 -1.25 -764.428 987.748)" data-source="https://football-logos.cc"></path><path d="M648.52 668.195c0-46.954 38.063-85.017 85.017-85.017 46.955 0 85.017 38.063 85.017 85.017 0 46.955-38.062 85.017-85.017 85.017s-85.017-38.062-85.017-85.017m-33.016 0c0 65.189 52.845 118.034 118.033 118.034s118.034-52.845 118.034-118.034c0-65.188-52.845-118.033-118.034-118.033-65.188 0-118.033 52.845-118.033 118.033" style="fill:#110f10;fill-opacity:1;fill-rule:nonzero;stroke:none" transform="matrix(1.25 0 0 -1.25 -764.428 987.748)"></path><path d="M722.287 711.46c.009.127.022-.187.033-.062-.015-.096-.029.213-.033.063M742.698 725.447l.054 1.339c-.084-.396-.094-.849-.054-1.34M747.178 736.877c-.304-.914-.498-3.989-.634-5.031.252.922.56 3.897.634 5.03M740.508 722.925c-.008.15-.016.278-.031.374q.013-.188.031-.374M716.28 712.077a4 4 0 0 0-.22-.643c-1.006 2.569-.725 12.315-1.2 15.522-.317 3.65.392 5.389-.18 9.705-1.361-3.912-1.277-8.442-1.193-12.97 0 0 .699-12.016-.257-12.034-.06 3.236-1.4 23.829-1.4 23.829l-1.483 2.559s1.154-12.834 1.178-14.127c-1.107-.022-6.015 13.607-4.935 10.635-.456.596-.878.17-.878.17s1.16-5.705 1.965-7.266c.467-1.19 3.984-12.4 4.521-15.081 2.393-5.042 4.194-5.03 4.74-5.865l.548-.011c-.494 2.265-.854 3.06-1.206 5.577M727.038 723.134l.027.372a3 3 0 0 1-.027-.372M731.53 711.98l-.989-1.369c.149 2.609.584-1.885.993.968.048.348.107.264.158.615-.144-1.5-.158 1.063 2.437.148q.098.355.192.73c.04.148.089-.662.125-.51.031.128.064.253.093.385.036.156.08-2.421.115-2.264l.09.402c.035.162.075-.108.11.054.028.14.078-1.203.105-1.062l.099.501c.028.14.067-.684.094-.546l.093.51q.038.212.078.422c.029.17.065-.158.093.012.023.14.053-.156.077-.017l.08.512q.034.201.065.405.04.253.074.502c.346 2.354.549 4.439.514 5.436.347-4.083.522-3.666.351-7.197l.001-.006c-.022-.48.435-.046.395-.513-.001-.02-.027.029-.029.008l.029-.008 2.27 1.11" style="fill:#110f10;fill-opacity:1;fill-rule:nonzero;stroke:none" transform="matrix(1.25 0 0 -1.25 -764.428 987.748)"></path><path d="M739.052 711.07c1.234 2.966.759 7.99.934 10.499l.042 1.35-.03.373q.021-.146.03-.373c.58-6.834.633-6.75-.784-11.71l.967-1.615c1.596 3.966 2.445-1.584 2.62.405 4.085.054 1.178 1.322 2.033-2.283.585 1.971 1.448 2.126 1.95 5.076.299 2.399.474 4.955.591 7.619q-.006.532 0 1.083c-.408-2.74-2.376-5.961-4.035-9.41 1.66 3.449 3.627 6.67 4.035 9.41.066 4.576.34 11.917.266 15.978-.01.648.05.507-.015 1.006-.183-.385-.335-1.17-.477-1.602-.077-1.132-.59-4.11-.842-5.032-.123-.965-.448-1.962-.43-2.961-.239 1.165-.08 2.073.16 2.956.135 1.044-.157 4.63.15 5.544.01.188-.008 1.163-.012 1.364-.612-1.826-1.114.858-1.114.858s-.122-.62 0-1.035c.088-.299-.478-6.077-.706-6.73-.01.647.04 6.842.04 6.842s-.704-1.88-.917-2.42c-.297-.002-1.125 2.914-1.113 2.269.06-3.237.142-8.421.68-11.646l-.488.637a2 2 0 0 1-.312-.744l-.054-1.338c.187-2.353 1.438-5.523.052-6.985-.232 2.09-.157 4.509-.052 6.985-.04.49-.032.942.054 1.338.132 3.215.19 9.047-.357 11.744-1.328-5.856-.708-14.264-1.077-20.096-1.065 5.802-.237 13.203-2.258 18.986-1.42-.675-1.116-20.052-1.092-21.348-.778 2.664-.376 23.262-1.333 23.242-2.892-.06-.07-20.69-1.463-24.694-.013.646-.748 14.013-.774 15.97-.034 2.492-.067 5.963-.582 7.896-.013.645-.522.632-.522.632-.883-3.903-1.25-10.52-1.179-14.4-.064 4.861-1.081 14.409-1.081 14.409s-1.095-2.624-1.08-3.83c-.456-1.91-.237-10.137-.212-11.433-.516 1.932-.727 13.913-.727 13.913s-1.344-5.382-1.296-7.968c-.012.646-.503 1.282-.503 1.282s-.672 7.266-.721 6.62c-.342-4.379.432-16.982.028-20.873-.025 1.295-.178 8.243-.657 8.234-.402-2.47-.214-9.58-.825-11.53-.96 3.75.43 8.452.393 10.394-.058 3.236.34 7.646.28 10.88-.011.646-.142.654-.154 1.3-.01.647-.388 2.868-.388 2.868s-2.27-7.333-2.211-10.569c-.537 3.225.352 7-.663 10.217-1.854-3.276-.317-8.939-.723-12.831-.897 5.38-.623 4.46-1.127 11.24l-.537 1.98c-.937-2.19-.894-6.806-1.04-9.325 0-.633.295-2.452-.677-2.023.541-.242-.003 1.35.034 2.013.003 1.146-.603 6.046-1.134 6.928-.478-.012.684-15.136.696-15.783-.012.647-2.06 10.674-2.06 10.674s.202-14.305.623-19.096c-1.323-4.314 3.348-4.17 3.686-4.93-.029 1.31.35 2.036.817 1.745.197-.124.407-.274.606-.35.4-.157.746.478.836 1.718.003.149.004.71.02.807-.01-.126-.011-.682-.02-.807-.017-.802-.398 2.096-.003 2.592.147.186 1.19-3.618 1.52-3.622.218-.002-.095 2.706.226 2.547.211-.104.457-1.173.72-1.364q.339-.248.74-.612c.487 3.192 1.178-4.78 1.867 4.65 0 .15-.32 8.628-.305 8.726q-.012-.186-.027-.374c-.037-1.749.143-9.17 1.107-13.236.19 1.232 1.09.536 1.097.173.256.025.487.92.645 1.7-.192-1.292.5-1.645 1.197-1.048.417.359.817 3.102 1.087 1.478l-.163-.215M713.884 706.016l1.14.016c-1.146 3.038-3.022 5.327-3.918 8.961q-.064.212-.088.357l.088-.357c.14-.463.417-1.15.79-1.97-1.523 4.489-5.725 15.992-6.212 18.925-.479-.01-.468-.659-.456-1.305-.968.628-2.426 1.893-2.915 2.53-.909-2.607 3.659-15.835 3.708-18.423-.502 1.286-6.825 16.416-7.782 16.397 0 0 1.584-8.024 1.106-8.034-.49.637-2.685 5.415-3.176 6.052-.477-.01-.97 1.098-.958.45.502-1.285 1.975-5.94 3.444-7.608 1.468-1.672-3.353 2.525-3.353 2.525.708-1.443 3.116-5.678 4.214-7.173.355-.366-1.337.982-1.23.846-.197.126-.458.418-.737.8-1.299 1.336-3.796 3.716-4.171 3.709.04-3.053 6.402-7.731 6.915-9.665-.477-.009-.477-.009-.956-.016-.478-.012-2.068.609-1.58-.029 1.472-1.91 9.622-9.787 11.068-10.404.397-.17-.056.629.24.747q.146.061.286.146c.186.112-1.446 6.355-1.458 6.66.687.486 2.066-5.47 2.234-5.421.255.07.534.064.86-.074l.448.363-.73 2.631s1.17-1.464 1.646-1.92zM771.935 719.516c6.399 13.488-2.669-.205-2.68.441-.047 2.59 2.522 7.974 1.043 10.533-1.327-2.605-7.656-15.334-9.042-17.949 1.79 3.273 7.547 19.068 7.547 19.068s-.683.021-1.386-.823c-.012.65-.14 2.362-.515 2.223-.562-.213-2.247-10.134-2.265-9.228-.016.909-.513 9.577-.601 9.163-.32-1.444-.188-2.943-.113-4.413.102-1.933-.133-3.763-.352-5.665a63 63 0 0 0-.255-1.932l-.635 3.501c-1.104-2.511-2.54-10.136-2.872-11.093-.008.452.157.957.244 1.391.19.937.393 1.87.594 2.805.46 2.154.899 4.305 1.335 6.463.078.398.147.786.185 1.193.078.798.33 1.543.525 2.308.21.806.24 1.578.31 2.408.033.382.07.768.059 1.153-.044 1.202-.305 1.203-.122 2.412.122.816.231 2.145.753 2.775.278.333.228.49-.144.327-.442-.19-.759-.588-1.051-.999.024.119-.165-.32-.209-.41-.105-.226-.22-.449-.276-.701-.235-1.079-.23-1.056-.339-2.163-.046-.486-.183-1.029-.183-1.548.003-.531-.19-.896-.394-1.521-.048-.149-.164-.365-.356-.378-.16-.012.597 3.98.446 3.976-.19-.005-.419-.715-.492-.424l-.26.903c-.405-2.331-1.728-8.715-2.188-12.132-.285-1.106-2.037-7.07-2.994-7.09.406 3.89 4.063 15.527 4.468 19.42-.01.645 1.221 1.905.858 2.319-.465-.656-1.993-2.345-2.28-2.996-.012.647-.444 1.935-.486 2.939-.02.954-.14 1.357-.14 1.357s-.448-.631-.592-1.725c-.427-3.17.873-5.896-.05-7.965-.4 2.436-.538 6.711-1.65 8.394 0 0-.45-1.777-.437-2.424 1.326-14.71-1.527-18.618-.242-12.95-.082 4.53-.429 13.258-1.765 17.764-.398-1.518-.62-5.766-.984-6.749-.471.786-.921 7.166-.921 7.166s-.225-2.066-.213-2.822c-.107.37-.91 1.553-1.2 1.881.757-4.702.061-14.529-.332-19.068l-.267-1.75-.027 1.362c-.118.786.296 18.426-.361 19.813-.984-4.875-.795-19.923-.773-21.65.008-.512-.175-1.018-.177-1.541 0-.573.065-1.142.077-1.715.013-.678.046-2.224.088-2.9.072-1.241.158.9.332-.328.05-.352.099-.265.153-.615.03-.181.999 1.152 1.027.97.02-.104 1.388-2.39 1.349-2.48.426.67.394 3.99.89 4.18.334-1.738.379-4.116.362-4.443 0 .126 1.326 3.414 1.325 3.54.007-.102-.01 4.197-.017 4.049.01-4.805-.138-4.328.392-8.234l.598-.02c1.067.736 1.731.724 2.15.505.697-.37.71-1.313.744-.317q-.001.188-.005.378.014-.149.005-.378c.048-3.38-.05.04.274-2.952l.473-.015c-.014.684-.96-.372 0 0 1.342 3.138 1.37-1.278 1.621.086.018.121 4.346 9.34 4.36 9.462a3 3 0 0 0-.049-.365c-.28-2.133-2.914-7.44-3.268-9.42 2.229 2.481 7.1 8.823 10.591 12.026l-.025.069c-.719.246-1.979-1.02-1.979-1.02 1.9.685 1.854 3.273 2.786 4.588" style="fill:#110f10;fill-opacity:1;fill-rule:nonzero;stroke:none" transform="matrix(1.25 0 0 -1.25 -764.428 987.748)"></path><path d="M718.23 729.685a26 26 0 0 1-.036-2.013c-.012.69.035 1.38.036 2.013M698.285 718.205c-.105.137-.378.432-.735.8.28-.381.54-.674.735-.8M733.6 723.398l.073.361a4 4 0 0 1-.073-.361" style="fill:#110f10;fill-opacity:1;fill-rule:nonzero;stroke:none" transform="matrix(1.25 0 0 -1.25 -764.428 987.748)"></path><path d="M719.89 718.586q-.026.186-.049.37.007-.148.05-.37" style="fill:#fff;fill-opacity:1;fill-rule:nonzero;stroke:none" transform="matrix(1.25 0 0 -1.25 -764.428 987.748)"></path><path d="M719.89 718.586q-.026.186-.049.37.007-.148.05-.37z" style="fill:none;stroke:#110f10;stroke-width:1.43700004;stroke-linecap:butt;stroke-linejoin:miter;stroke-miterlimit:4;stroke-opacity:1;stroke-dasharray:none" transform="matrix(1.25 0 0 -1.25 -764.428 987.748)"></path><path d="m735.941 719.214.053.367a3 3 0 0 1-.053-.367" style="fill:#fff;fill-opacity:1;fill-rule:nonzero;stroke:none" transform="matrix(1.25 0 0 -1.25 -764.428 987.748)"></path><path d="m735.941 719.214.053.367a3 3 0 0 1-.053-.367z" style="fill:none;stroke:#110f10;stroke-width:1.43700004;stroke-linecap:butt;stroke-linejoin:miter;stroke-miterlimit:4;stroke-opacity:1;stroke-dasharray:none" transform="matrix(1.25 0 0 -1.25 -764.428 987.748)"></path><path d="M743.782 623.784c2.143-1.269 6.697-2.93 6.89-5.868 1.48 1.092 4.871 1.47 6.394.377l.95-.266c.692-.031 1.37-.099 1.964-.135-.369 1.655 1.187 3.899 3.042 3.669-1.096 1.053-.258 3.798.621 3.746 1.703-.101 4.245-3.31 5.285-4.499 2.83 3.659 5.395 5.847 9.255 4.152 3.29-1.446 3.29-1.516 6.508-3.132-2.853 4.769 4.887.317 4.562.88-1.088 1.883-3.8 5.368-4.496 5.737l-.982.502c.514.158 1.653 1.073 2.169.94-.6.379-.776.54-1.065 1.159-.173.37-.19.769-.408 1.13 2.368.407 4.638.59 7.03.349 1.037-.104 2.576-.464 3.437.379-1.826 2.292-1.247 4.784-1.878 5.087 1.873 2.859 16.6.117 10.696 2.229-2.995 1.07 1.305 9.202 4.008 10.578-2.188-.57-5.296-1.677-5.553.429a3.85 3.85 0 0 0-1.6-1.974c-.807.712-1.295 1.561-1.97 2.428 1.247-1.603-5.66-6.91-6.474-7.962.07.462-.085 1.004-.024 1.476-.397-3.01-7.536-3.223-9.625-2.69 1.545.982 3.864 1.148 5.101 2.696-.732-.078-1.702.389-2.443.362 1.407 5.93 10.038 8.007 14.818 10.776-5.113-1.394-12.244-1.319-16.816-3.97 7.302 5.188 17.805 14.449 12.235 13.202-3.316-.742-1.572.683.363 4.3 2.513 4.696 1.649 7.603 1.971 12.259-1.287-2.04-5.365-9.086-8.368-7.55.325-.166-2.579-5.205-2.805-5.584-.68-1.14-.858-1.908-2.108-2.567-.985-.52-.366 1.08-2.988 2.267.314-.153-1.291-8.18-1.542-8.682-.71-1.427-1.888-2.582-2.99-3.71-.99-1.014-1.682.17-2.375 1.07.207-.158-.218-.962-.19-2.525.025-1.264.06-.793-.06-1.69-.163-1.212-.427-2.42-.862-3.572-.537-1.423-1.377-2.829-2.611-3.817a4.9 4.9 0 0 0-1.385-.788c-.382 2.865-1.348 5.519-2.086 8.451.133-3.909-5.013-5.352-6.56-1.359.54-4.75-1.816-8.838-2.944-5.06-.78 2.615-.14 2.548-1.362 4.967-1.158-2.679-3.965-2.407-3.728-5.281.242-2.913-.403-2.888-1.002-5.163l-1.035 1.176c-.225-.603-2.112-2.822-2.127-3.332-.181-.073-4.398-2.008-3.129 4.214.038-.128-2.764-4.901-3.796-6.972m0 0c.05.34.147 2.874.226 3.147.162.562.314 1.123.468 1.686.197.71.417 1.423.576 2.143.234 1.041.43 3.21.596 4.262.14.868.73 1.32.778 2.197.024.45.576 1.497.357 1.922-.508-.828-2.42-1.637-2.887-2.511-.126.913-.765 1.737-.96 2.574-1.685-4.004-4.067-10.227-7.88-3.245.179-.847-2.407-2.37-2.289-3.183-.205 1.329-2.373 2.525-3.135 3.489-1.06 1.341-1.621 2.991-1.987 4.623-1.503-2.545-.227-5.914-.783-8.512-.897.406-.705 1.018-2.274 1.003 1.1-1.633 4-3.44 3.442-10.761-1.063.449-5.311 2.366-4.876 4.16-1.523.01-2.753-3.075-3.629-4.26.015 1.047-.36 3.298-.333 4.353-2.064-3.902-5.542-3.42-4.537 2.466.547 3.198.172.474 1.141 3.577-2.608-1.332-5.328-4.87-9.92-4.741-.095 3.061-.095 3.061 1.405 5.248-1.562 1.856-1.748 2.268-1.184 4.538-2.184-2.741-5.668.096-4.612 5.169.436 2.1-5.297-4.4-4.589-2.5 1.253 3.364-.544 7.303-.5 10.124-7.304-12.73-2.392-7.88-6.932-3.435-1.856-4.306-4.604 17.12-4.45 8.81.194-10.635-3.54-4.182-9.281 14.4-3.648-9.777.59-17.885.59-17.885s-7.98 3.968-8.123 3.686c-.485-4.673 3.384.234 4.37-9.861-.326-.09-2.963 2.068-3.275 1.944-.207-4.593 6.048-4.46 7.185-8.514-2.594-.885-4.725.72-6.801 1.944a6 6 0 0 1 .003-1.19c-3.46 1.908-1.56 1.49-8.285 4.493.35-2.681 5.129-5.736 6.848-7.596 1.747-1.893 5.21-2.92 3.41-3.843-2.1-1.08 5.19-.075 6.884-2.09-1.162-2.575-3.02-5.302-5.505-5.326 3.206-3.144 8.502-1.907 11.238-1.673.201-1.294-.094-2.614-.792-3.754 3.513 1.197 4.15-1.184 7.796-.446-.005-1.201-.23-2.545-.417-3.784 1.525-.765 3.265-1.16 5.007-1.157-2.993-2.127-4.365-2.22-8.298-1.897 1.212-.945 6.537-5.2 1.716-4.395-.474-2.868-3.953-3.182-6.428-3.554.55-.253 6.836-3.085 7.316-3.361a9.3 9.3 0 0 0 1.615 1.555c2.5 1.88 2.987 2.565 6.2 3.021.114-.753.82-1.659.82-2.452 1.33 2.011.06 2.368 2.352 3.544.88-1.927-1.122-3.946.786-5.085.966.776 3.21 1.93 3.362 3.173.198-.152 1.88-.28 2.082-.426.282 1.477-.13 3.087.877 4.273.326-1.828 6.29-3.112 6.885-4.462-.307.696 3.216 3.249 3.798 3.688 1.487 1.116 1.827 1.553 3.482 2.372 2.254 1.114-2.264-8.339-.947-7.151.722.65 2.954 1.259 3.858.765 1.99-1.086.386-2.97-.14-4.758.098.333 1.618 1.253 1.927 1.587-.608-2.248-.587-5.352-1.904-7.488 2.765.108 3.623 2.673 4.964 4.548.396-6.17 1.648-2.815.238-9.253-.5-2.276-.8-4.613-1.22-6.905-.862-4.7-2.809-11.676-3.38-16.411.036.303 3.568.024 4.07.07 2.599.24 2.82 6.372 3.079 8.331.475 3.587.934 7.167 1.854 10.674 2.313 8.823 3.088 11.019 5.527 19.81.578-.748 2.316-.817 2.988-5.887 1.395 3.788 2.23 5.277 2.463 8.643.06.878.08 1.884.059 3.092" style="fill:#110f10;fill-opacity:1;fill-rule:nonzero;stroke:#110f10;stroke-width:.95700002;stroke-linecap:butt;stroke-linejoin:miter;stroke-miterlimit:3.86400008;stroke-opacity:1;stroke-dasharray:none" transform="matrix(1.25 0 0 -1.25 -764.428 987.748)"></path><path d="M729.546 688.528c-1.701 3.637-3.468 11.229-3.297 12.633-.209-6.344-.123-12.185 1.85-16.611M716.437 657.226c-3.261-2.346-8.508-8.109-9.045-9.417 2.916 5.637 5.842 10.695 9.723 13.596M702.168 678.253c-3.92.873-11.01 4.107-12.02 5.1 4.898-4.035 9.578-7.535 14.287-8.675M707.755 690.951c-3.432 2.091-9.102 7.439-9.736 8.702 3.337-5.4 6.639-10.218 10.73-12.815M747.376 703.53c1.73 3.6 3.558 11.17 3.404 12.587.142-6.382.003-12.25-2.004-16.632M753.446 703.286c1.679 3.623 3.402 11.216 3.227 12.63.237-6.38.175-12.249-1.769-16.657M763.624 687.56c3.308 2.237 8.703 7.85 9.285 9.152-3.094-5.584-6.175-10.58-10.116-13.353M721.131 704.438c-2.175 3.345-4.963 10.617-4.992 12.043.678-6.348 1.57-12.15 4.122-16.236M756.24 700.415c2.51 3.136 6.01 10.1 6.173 11.505-1.288-6.215-2.745-11.874-5.701-15.711M709.323 662.54c-3.811-1.264-10.54-5.197-11.445-6.286 4.467 4.51 8.77 8.462 13.34 10.07M757.015 659.734c2.765-2.88 6.864-9.5 7.158-10.896-1.855 6.108-3.819 11.64-7.089 15.179M745.347 657.44c1.875-3.523 4.017-11.011 3.92-12.433-.12 6.384-.504 12.241-2.69 16.533M713.703 662.242c-3.421-2.102-9.07-7.472-9.702-8.739 3.317 5.413 6.6 10.245 10.68 12.856M748.218 694.259c2.101 3.423 4.71 10.767 4.7 12.181-.51-6.325-1.252-12.121-3.71-16.296M734.878 710.247c-1.023 3.883-1.396 11.668-.976 13.02-1.343-6.203-2.307-11.966-1.161-16.674M738.752 710.171c1.372 3.749 2.461 11.46 2.172 12.854.759-6.34 1.186-12.192-.389-16.746M710.685 695.442c-2.553 3.102-6.151 10.017-6.334 11.418 1.375-6.196 2.91-11.833 5.92-15.63M713.015 700.19c-2.463 3.173-5.865 10.183-6.009 11.591 1.202-6.23 2.577-11.911 5.478-15.79M761.271 691.52c2.83 2.817 7.076 9.343 7.403 10.73-1.992-6.064-4.08-11.55-7.431-15.013M764.963 683.974c3.942.624 11.21 3.422 12.286 4.356-5.167-3.748-10.075-6.969-14.818-7.81" style="fill:#110f10;fill-opacity:1;fill-rule:nonzero;stroke:none" transform="matrix(1.25 0 0 -1.25 -764.428 987.748)"></path><path d="M721.002 686.739c-3.12 2.532-8.017 8.595-8.476 9.931 2.58-5.799 5.203-11.017 8.91-14.14M769.207 681.563c3.846 1.074 10.743 4.692 11.703 5.742-4.703-4.317-9.207-8.082-13.821-9.464M764.511 671.732c3.956-.53 11.721.07 13.02.656-6.024-2.11-11.649-3.79-16.435-3.24M724.816 693.84c-1.701 3.638-3.468 11.231-3.297 12.634-.209-6.344-.123-12.185 1.85-16.61M703.087 673.787c-4.01.226-11.532 2.266-12.687 3.082 5.486-3.186 10.673-5.88 15.503-6.241M704.85 668.62c-4.016-.009-11.645 1.589-12.847 2.334 5.666-2.86 10.998-5.247 15.843-5.322M705.376 686.357c-3.43 2.09-9.1 7.439-9.736 8.702 3.337-5.4 6.639-10.22 10.73-12.815M767.217 676.91c3.923-.745 11.708-.566 13.038-.052-6.13-1.78-11.84-3.154-16.588-2.343M741.057 655.037c1.581-3.664 3.104-11.3 2.894-12.712.399 6.373.495 12.241-1.332 16.7M758.25 694.108c2.868 2.778 7.203 9.248 7.546 10.63-2.073-6.038-4.234-11.495-7.632-14.91M719.197 697.943c-2.175 3.347-4.963 10.619-4.993 12.045.68-6.35 1.573-12.151 4.125-16.236M750.284 688.591c3.375 2.175 8.907 7.665 9.51 8.946-3.198-5.482-6.376-10.384-10.4-13.083M724.66 655.636c-2.279-3.307-5.274-10.501-5.339-11.914.842 6.29 1.892 12.037 4.57 16.075M730.152 678.1c-2.85 2.83-7.117 9.354-7.44 10.73 1.986-6.028 4.073-11.486 7.45-14.962M750.253 659.835c1.915-3.503 4.138-10.965 4.057-12.389-.19 6.381-.639 12.234-2.872 16.505M732.218 654.089c-1.817-3.58-3.822-11.113-3.698-12.522-.005 6.347.266 12.183 2.376 16.544M735.935 654.198c1.2-3.807 1.938-11.56 1.584-12.94 1.048 6.298 1.74 12.125.376 16.747M741.959 691.448c1.942 3.516 4.216 10.971 4.14 12.384-.22-6.343-.7-12.166-2.964-16.45M724.306 661.754c-3.327-2.253-8.733-7.869-9.304-9.16 3.072 5.554 6.138 10.527 10.1 13.318" style="fill:#110f10;fill-opacity:1;fill-rule:nonzero;stroke:none" transform="matrix(1.25 0 0 -1.25 -764.428 987.748)"></path><path d="M757.362 674.454c3.801 1.224 10.551 5.108 11.472 6.197-4.531-4.499-8.884-8.436-13.443-9.998M763.325 667.656c3.396-2.097 10.733-4.711 12.158-4.705-6.363.526-12.183 1.282-16.33 3.738M726.283 706.11c-1.574 3.697-3.074 11.344-2.855 12.742-.427-6.332-.546-12.174 1.271-16.665M742.545 705.947c1.887 3.518 4.047 11.001 3.954 12.422-.136-6.383-.537-12.239-2.733-16.527M731.604 700.058c-1.023 3.884-1.397 11.669-.977 13.02-1.342-6.204-2.307-11.965-1.16-16.672M735.097 703.34c1.374 3.748 2.463 11.46 2.172 12.853.76-6.339 1.186-12.192-.386-16.746M714.369 685.938c-3.266 2.335-8.528 8.086-9.068 9.394 2.93-5.63 5.868-10.68 9.756-13.57M751.837 678.045c3.864 1.004 10.827 4.493 11.808 5.526-4.78-4.231-9.353-7.911-13.994-9.208M740.921 679.95c2.664 2.973 6.534 9.73 6.78 11.134-1.642-6.168-3.415-11.764-6.564-15.41M715.625 675.12c-3.967-.629-11.75-.227-13.053.325 6.04-1.953 11.676-3.489 16.476-2.817M734.265 675.581c2.384 3.233 5.609 10.328 5.718 11.74-1.045-6.262-2.277-11.974-5.083-15.923M736.113 693.167c-1.245 3.794-2.075 11.538-1.736 12.921-.973-6.31-1.599-12.145-.183-16.752M715.663 678.377c-3.978.533-11.322 3.147-12.413 4.049 5.228-3.6 10.19-6.683 14.98-7.415M702.473 682.427c-3.645 1.69-9.884 6.363-10.656 7.547 3.924-4.988 7.75-9.405 12.108-11.522M739.987 673.374c3.545 1.84 9.55 6.795 10.278 8.022-3.718-5.192-7.354-9.8-11.587-12.1M737.328 691.129c1.943 3.514 4.217 10.97 4.143 12.384-.222-6.345-.702-12.167-2.968-16.449M733.685 679.668c-1.156 3.822-1.801 11.583-1.431 12.957-1.122-6.284-1.884-12.104-.576-16.74M715.186 671.216c-3.704-1.557-11.357-3.02-12.755-2.796 6.33-.457 12.171-.601 16.671 1.194M731.336 665c-2.523-3.093-6.075-10.024-6.257-11.437 1.356 6.238 2.867 11.91 5.843 15.699M722.942 667.423c-3.327-2.206-8.774-7.776-9.365-9.07 3.143 5.557 6.267 10.527 10.232 13.263M728.482 673.868c-3.68 1.546-10.07 5.998-10.891 7.16 4.125-4.871 8.12-9.17 12.526-11.117" style="fill:#110f10;fill-opacity:1;fill-rule:nonzero;stroke:none" transform="matrix(1.25 0 0 -1.25 -764.428 987.748)"></path><path d="M754.36 667.825c3.27-2.33 8.543-8.069 9.086-9.374-2.941 5.622-5.89 10.667-9.786 13.548M751.235 682.614c3.79 1.259 10.503 5.204 11.415 6.3-4.49-4.54-8.806-8.517-13.35-10.119M736.755 665.833c-1.336-3.788-2.35-11.516-2.043-12.896-.83 6.293-1.315 12.116.213 16.712M744.748 664.196c2.47-3.135 5.905-10.125 6.061-11.543-1.25 6.261-2.667 11.96-5.577 15.797M748.284 669.149c2.886-2.796 7.236-9.261 7.578-10.635-2.064 6.002-4.221 11.432-7.641 14.867M739.027 664.585c2.958-2.718 7.476-9.07 7.852-10.434-2.22 5.949-4.518 11.319-8.025 14.662" style="fill:#110f10;fill-opacity:1;fill-rule:nonzero;stroke:none" transform="matrix(1.25 0 0 -1.25 -764.428 987.748)"></path><path d="M677.552 593.056a235 235 0 0 0-3.219 2.64 262 262 0 0 0-3.232 2.773l-.255-.304c.753-.815 1.243-1.502 1.45-2.165.258-.858-.298-1.704-1.366-2.976l-7.413-8.833c-2.664 2.356-3.09 4.76-1.316 6.874 1.413 1.685 3.158 1.871 5.427.608l.165.38c-3.364 2.212-6.05 2.177-7.87.008-1.85-2.203-.945-4.765 2.674-7.801.575-.482 2.037-1.649 4.33-3.573l.272.322c-1.728 1.725-1.387 2.568.237 4.503l5.142 6.13c1.083 1.29 1.733 2.027 2.583 1.985.668-.042 1.36-.346 2.136-.876z" style="fill:#fff;fill-opacity:1;fill-rule:nonzero;stroke:none" transform="matrix(1.25 0 0 -1.25 -764.428 987.748)"></path><path d="M677.552 593.056a235 235 0 0 0-3.219 2.64 262 262 0 0 0-3.232 2.773l-.255-.304c.753-.815 1.243-1.502 1.45-2.165.258-.858-.298-1.704-1.366-2.976l-7.413-8.833c-2.664 2.356-3.09 4.76-1.316 6.874 1.413 1.685 3.158 1.871 5.427.608l.165.38c-3.364 2.212-6.05 2.177-7.87.008-1.85-2.203-.945-4.765 2.674-7.801.575-.482 2.037-1.649 4.33-3.573l.272.322c-1.728 1.725-1.387 2.568.237 4.503l5.142 6.13c1.083 1.29 1.733 2.027 2.583 1.985.668-.042 1.36-.346 2.136-.876z" style="fill:none;stroke:#fff;stroke-width:.40200001;stroke-linecap:butt;stroke-linejoin:miter;stroke-miterlimit:3.86400008;stroke-opacity:1;stroke-dasharray:none" transform="matrix(1.25 0 0 -1.25 -764.428 987.748)"></path><path d="M667.671 600.866c-.636.749-1.317 1.553-1.993 2.388-.693.855-1.41 1.778-2.144 2.72l-.309-.249c1.098-1.43 1.298-2.382.516-3.015-.528-.428-1.629-.927-3.342-1.562l-1.315-.493-3.49 4.308 1.91 3.142c.381.61.708 1.023 1.017 1.274.545.441 1.394.285 2.232-.602l.31.251c-.755.894-1.51 1.79-2.231 2.679-.737.91-1.454 1.833-2.157 2.739l-.31-.25c1.064-1.427.724-2.455-.328-4.24l-7.6-12.807c.832.012 1.47-.103 2.044-.481l.306.367 7.167 2.375c4.172 1.39 6.575 2.253 7.42 2.214.692-.04 1.273-.384 1.988-1.008zm-9.604-.555-6.509-2.259 3.506 5.969z" style="fill:#fff;fill-opacity:1;fill-rule:evenodd;stroke:none" transform="matrix(1.25 0 0 -1.25 -764.428 987.748)"></path><path d="M667.671 600.866c-.636.749-1.317 1.553-1.993 2.388-.693.855-1.41 1.778-2.144 2.72l-.309-.249c1.098-1.43 1.298-2.382.516-3.015-.528-.428-1.629-.927-3.342-1.562l-1.315-.493-3.49 4.308 1.91 3.142c.381.61.708 1.023 1.017 1.274.545.441 1.394.285 2.232-.602l.31.251c-.755.894-1.51 1.79-2.231 2.679-.737.91-1.454 1.833-2.157 2.739l-.31-.25c1.064-1.427.724-2.455-.328-4.24l-7.6-12.807c.832.012 1.47-.103 2.044-.481l.306.367 7.167 2.375c4.172 1.39 6.575 2.253 7.42 2.214.692-.04 1.273-.384 1.988-1.008zm-9.604-.555-6.509-2.259 3.506 5.969z" style="fill:none;stroke:#fff;stroke-width:.40200001;stroke-linecap:butt;stroke-linejoin:miter;stroke-miterlimit:3.86400008;stroke-opacity:1;stroke-dasharray:none" transform="matrix(1.25 0 0 -1.25 -764.428 987.748)"></path><path d="M655.096 616.97a242 242 0 0 0-1.996 3.654 280 280 0 0 0-2.012 3.885l-.35-.187c1.252-2.804.559-3.543-1.92-4.862l-2.995-1.591-.414 1.077c-.336.83-.486 1.411-.237 1.94.338.71 1.22 1.841 2.2 3.634.83 1.528 1.346 2.703 1.264 3.904-.096 1.274-.79 2.628-1.64 4.427l-.384-.125c1.047-2.967-.3-6.41-3.56-11.191-1.624 1.31-3.23 1.54-4.738.74-2.458-1.309-2.66-3.668-.76-7.241.219-.413 1.258-2.219 3.015-5.47l.372.197c-.306.924-.471 1.63-.348 2.2.15.662.943 1.163 2.326 1.9l6.92 3.68c2.499 1.328 3.412 1.654 4.906-.758zm-9.624.711-6.816-3.624c-1.465 2.904-.978 5.177 1.046 6.252 2.004 1.067 4.068.176 5.77-2.628" style="fill:#fff;fill-opacity:1;fill-rule:evenodd;stroke:none" transform="matrix(1.25 0 0 -1.25 -764.428 987.748)"></path><path d="M655.096 616.97a242 242 0 0 0-1.996 3.654 280 280 0 0 0-2.012 3.885l-.35-.187c1.252-2.804.559-3.543-1.92-4.862l-2.995-1.591-.414 1.077c-.336.83-.486 1.411-.237 1.94.338.71 1.22 1.841 2.2 3.634.83 1.528 1.346 2.703 1.264 3.904-.096 1.274-.79 2.628-1.64 4.427l-.384-.125c1.047-2.967-.3-6.41-3.56-11.191-1.624 1.31-3.23 1.54-4.738.74-2.458-1.309-2.66-3.668-.76-7.241.219-.413 1.258-2.219 3.015-5.47l.372.197c-.306.924-.471 1.63-.348 2.2.15.662.943 1.163 2.326 1.9l6.92 3.68c2.499 1.328 3.412 1.654 4.906-.758zm-9.624.711-6.816-3.624c-1.465 2.904-.978 5.177 1.046 6.252 2.004 1.067 4.068.176 5.77-2.628z" style="fill:none;stroke:#fff;stroke-width:.40200001;stroke-linecap:butt;stroke-linejoin:miter;stroke-miterlimit:3.86400008;stroke-opacity:1;stroke-dasharray:none" transform="matrix(1.25 0 0 -1.25 -764.428 987.748)"></path><path d="m639.377 639.684-10.156-3.105-.512 1.677c-.766 2.505-.36 3.975 1.646 5.177l-.177.336-4.245-1.713.054-.179.942-.52c.609-1.99 1.246-3.998 1.861-6.01.623-2.036 1.223-4.08 1.859-6.158l-.51-.891.082-.269 4.448.896-.05.4c-2.466-.093-3.462.923-4.269 3.563l-.472 1.543 10.156 3.105c1.79.548 2.883.809 3.563.43.62-.349 1.141-1.094 1.67-2.18l.379.115c-.446 1.38-.885 2.738-1.31 4.125a265 265 0 0 0-1.213 4.13l-.381-.116c.171-1.195.148-2.083-.171-2.72-.351-.694-1.404-1.088-3.194-1.636" style="fill:#fff;fill-opacity:1;fill-rule:nonzero;stroke:none" transform="matrix(1.25 0 0 -1.25 -764.428 987.748)"></path><path d="m639.377 639.684-10.156-3.105-.512 1.677c-.766 2.505-.36 3.975 1.646 5.177l-.177.336-4.245-1.713.054-.179.942-.52c.609-1.99 1.246-3.998 1.861-6.01.623-2.036 1.223-4.08 1.859-6.158l-.51-.891.082-.269 4.448.896-.05.4c-2.466-.093-3.462.923-4.269 3.563l-.472 1.543 10.156 3.105c1.79.548 2.883.809 3.563.43.62-.349 1.141-1.094 1.67-2.18l.379.115c-.446 1.38-.885 2.738-1.31 4.125a265 265 0 0 0-1.213 4.13l-.381-.116c.171-1.195.148-2.083-.171-2.72-.351-.694-1.404-1.088-3.194-1.636z" style="fill:none;stroke:#fff;stroke-width:.40200001;stroke-linecap:butt;stroke-linejoin:miter;stroke-miterlimit:3.86400008;stroke-opacity:1;stroke-dasharray:none" transform="matrix(1.25 0 0 -1.25 -764.428 987.748)"></path><path d="M641.902 649.118c-.239 1.359-.479 2.718-.698 4.105-.216 1.362-.412 2.753-.609 4.143l-.393-.063c.287-2.701-.54-3.163-3.036-3.56l-8.295-1.313c-2.494-.395-3.378-.204-3.964 2.45l-.416-.065c.213-1.34.452-2.699.668-4.062.219-1.386.415-2.777.639-4.187l.415.066c-.27 2.753.542 3.165 3.014 3.557l8.295 1.314c2.472.391 3.393.253 3.987-2.448z" style="fill:#fff;fill-opacity:1;fill-rule:nonzero;stroke:none" transform="matrix(1.25 0 0 -1.25 -764.428 987.748)"></path><path d="M641.902 649.118c-.239 1.359-.479 2.718-.698 4.105-.216 1.362-.412 2.753-.609 4.143l-.393-.063c.287-2.701-.54-3.163-3.036-3.56l-8.295-1.313c-2.494-.395-3.378-.204-3.964 2.45l-.416-.065c.213-1.34.452-2.699.668-4.062.219-1.386.415-2.777.639-4.187l.415.066c-.27 2.753.542 3.165 3.014 3.557l8.295 1.314c2.472.391 3.393.253 3.987-2.448z" style="fill:none;stroke:#fff;stroke-width:.40200001;stroke-linecap:butt;stroke-linejoin:miter;stroke-miterlimit:3.86400008;stroke-opacity:1;stroke-dasharray:none" transform="matrix(1.25 0 0 -1.25 -764.428 987.748)"></path><path d="M634.767 674.551c3.299-1.323 4.847-2.887 4.89-5.343a6.7 6.7 0 0 0-1.996-4.924c-1.518-1.5-3.563-2.331-5.83-2.372-4.68-.08-7.862 2.67-7.93 6.554-.05 2.83 1.487 4.588 4.496 5.131l-.008.398-4-.07a12.5 12.5 0 0 1-1.099-5.377c.045-2.596.834-4.85 2.243-6.487 1.67-1.937 3.96-2.973 6.508-2.928 2.784.048 4.895 1.068 6.45 3.154 1.233 1.66 1.92 3.87 1.877 6.35a12.3 12.3 0 0 1-1.139 4.963c-1.297.561-2.731.981-4.329 1.305z" style="fill:#fff;fill-opacity:1;fill-rule:nonzero;stroke:none" transform="matrix(1.25 0 0 -1.25 -764.428 987.748)"></path><path d="M634.767 674.551c3.299-1.323 4.847-2.887 4.89-5.343a6.7 6.7 0 0 0-1.996-4.924c-1.518-1.5-3.563-2.331-5.83-2.372-4.68-.08-7.862 2.67-7.93 6.554-.05 2.83 1.487 4.588 4.496 5.131l-.008.398-4-.07a12.5 12.5 0 0 1-1.099-5.377c.045-2.596.834-4.85 2.243-6.487 1.67-1.937 3.96-2.973 6.508-2.928 2.784.048 4.895 1.068 6.45 3.154 1.233 1.66 1.92 3.87 1.877 6.35a12.3 12.3 0 0 1-1.139 4.963c-1.297.561-2.731.981-4.329 1.305z" style="fill:none;stroke:#fff;stroke-width:.40200001;stroke-linecap:butt;stroke-linejoin:miter;stroke-miterlimit:3.86400008;stroke-opacity:1;stroke-dasharray:none" transform="matrix(1.25 0 0 -1.25 -764.428 987.748)"></path><path d="M640.29 677.806c.236 1.336.473 2.673.74 4.05.264 1.354.558 2.75.85 4.125l-.39.075c-.289-1.112-.628-1.88-1.2-2.364-.656-.564-1.699-.408-3.376-.083l-7.324 1.424c-2.78.54-3.803.786-3.437 3.29l-.412.079c-.215-1.221-.45-2.438-.687-3.656-.237-1.216-.468-2.41-.723-3.6l.412-.08c.794 2.49 1.836 2.336 4.454 1.826l7.303-1.419c1.607-.312 2.594-.504 3.057-1.19.37-.548.434-1.324.344-2.4zm-6.868 6.84 6.657 4.09c.975.597 1.857 1.094 2.397 2.156.46.888.88 2.188 1.33 3.89l-.305.152c-.798-1.654-2.44-3.243-4.893-4.696l-5.95-3.515-1.945 2.738c-2.08 2.907-3.403 4.809-3.006 6.852l.027.138-.414.08c-.177-1.037-.378-2.07-.574-3.082a140 140 0 0 0-.617-3.05l.413-.079c.187.963.525 1.352 1.168 1.226.804-.156 1.673-1.445 3.203-3.506z" style="fill:#fff;fill-opacity:1;fill-rule:evenodd;stroke:none" transform="matrix(1.25 0 0 -1.25 -764.428 987.748)"></path><path d="M640.29 677.806c.236 1.336.473 2.673.74 4.05.264 1.354.558 2.75.85 4.125l-.39.075c-.289-1.112-.628-1.88-1.2-2.364-.656-.564-1.699-.408-3.376-.083l-7.324 1.424c-2.78.54-3.803.786-3.437 3.29l-.412.079c-.215-1.221-.45-2.438-.687-3.656-.237-1.216-.468-2.41-.723-3.6l.412-.08c.794 2.49 1.836 2.336 4.454 1.826l7.303-1.419c1.607-.312 2.594-.504 3.057-1.19.37-.548.434-1.324.344-2.4zm-6.868 6.84 6.657 4.09c.975.597 1.857 1.094 2.397 2.156.46.888.88 2.188 1.33 3.89l-.305.152c-.798-1.654-2.44-3.243-4.893-4.696l-5.95-3.515-1.945 2.738c-2.08 2.907-3.403 4.809-3.006 6.852l.027.138-.414.08c-.177-1.037-.378-2.07-.574-3.082a140 140 0 0 0-.617-3.05l.413-.079c.187.963.525 1.352 1.168 1.226.804-.156 1.673-1.445 3.203-3.506z" style="fill:none;stroke:#fff;stroke-width:.40200001;stroke-linecap:butt;stroke-linejoin:miter;stroke-miterlimit:3.86400008;stroke-opacity:1;stroke-dasharray:none" transform="matrix(1.25 0 0 -1.25 -764.428 987.748)"></path><path d="m645.13 711.338-9.626 4.488.743 1.59c1.107 2.375 2.392 3.195 4.686 2.745l.094.37-4.302 1.567-.08-.17.353-1.017c-.88-1.887-1.749-3.804-2.639-5.712-.9-1.93-1.819-3.849-2.739-5.82l-.975-.32-.118-.254 3.903-2.312.232.332c-1.896 1.58-1.956 3.001-.789 5.503l.683 1.463 9.624-4.488c1.696-.79 2.685-1.33 2.935-2.066.227-.673.116-1.576-.219-2.737l.36-.168c.593 1.324 1.175 2.628 1.787 3.942.603 1.293 1.237 2.598 1.861 3.882l-.36.168c-.673-1.002-1.284-1.647-1.947-1.905-.724-.282-1.771.129-3.468.92" style="fill:#fff;fill-opacity:1;fill-rule:nonzero;stroke:none" transform="matrix(1.25 0 0 -1.25 -764.428 987.748)"></path><path d="m645.13 711.338-9.626 4.488.743 1.59c1.107 2.375 2.392 3.195 4.686 2.745l.094.37-4.302 1.567-.08-.17.353-1.017c-.88-1.887-1.749-3.804-2.639-5.712-.9-1.93-1.819-3.849-2.739-5.82l-.975-.32-.118-.254 3.903-2.312.232.332c-1.896 1.58-1.956 3.001-.789 5.503l.683 1.463 9.624-4.488c1.696-.79 2.685-1.33 2.935-2.066.227-.673.116-1.576-.219-2.737l.36-.168c.593 1.324 1.175 2.628 1.787 3.942.603 1.293 1.237 2.598 1.861 3.882l-.36.168c-.673-1.002-1.284-1.647-1.947-1.905-.724-.282-1.771.129-3.468.92z" style="fill:none;stroke:#fff;stroke-width:.40200001;stroke-linecap:butt;stroke-linejoin:miter;stroke-miterlimit:3.86400008;stroke-opacity:1;stroke-dasharray:none" transform="matrix(1.25 0 0 -1.25 -764.428 987.748)"></path><path d="m644.537 725.468 6.707-5.053c2-1.506 2.526-2.285.996-4.587l.316-.24a230 230 0 0 0 2.427 3.297 266 266 0 0 0 2.655 3.447l-.316.24c-1.802-2.159-2.672-1.913-4.727-.363l-3.25 2.448 5.715 7.585 3.25-2.449c2.037-1.535 2.541-2.265.954-4.644l.318-.239c.896 1.229 1.764 2.42 2.609 3.54.844 1.12 1.68 2.19 2.473 3.204l-.318.239c-1.73-2.064-2.632-1.823-4.67-.288l-6.706 5.053c-2.037 1.535-2.48 2.307-.991 4.554l-.336.254c-.845-1.12-1.685-2.274-2.53-3.395-.844-1.122-1.708-2.227-2.552-3.35l.336-.253c1.848 2.181 2.671 1.913 4.707.378l2.671-2.013-5.715-7.584-2.671 2.013c-2.055 1.548-2.493 2.288-.935 4.63l-.336.253c-.844-1.122-1.684-2.276-2.529-3.396-.846-1.12-1.708-2.228-2.553-3.348l.336-.254c1.793 2.106 2.666 1.827 4.665.321" style="fill:#fff;fill-opacity:1;fill-rule:nonzero;stroke:none" transform="matrix(1.25 0 0 -1.25 -764.428 987.748)"></path><path d="m644.537 725.468 6.707-5.053c2-1.506 2.526-2.285.996-4.587l.316-.24a230 230 0 0 0 2.427 3.297 266 266 0 0 0 2.655 3.447l-.316.24c-1.802-2.159-2.672-1.913-4.727-.363l-3.25 2.448 5.715 7.585 3.25-2.449c2.037-1.535 2.541-2.265.954-4.644l.318-.239c.896 1.229 1.764 2.42 2.609 3.54.844 1.12 1.68 2.19 2.473 3.204l-.318.239c-1.73-2.064-2.632-1.823-4.67-.288l-6.706 5.053c-2.037 1.535-2.48 2.307-.991 4.554l-.336.254c-.845-1.12-1.685-2.274-2.53-3.395-.844-1.122-1.708-2.227-2.552-3.35l.336-.253c1.848 2.181 2.671 1.913 4.707.378l2.671-2.013-5.715-7.584-2.671 2.013c-2.055 1.548-2.493 2.288-.935 4.63l-.336.253c-.844-1.122-1.684-2.276-2.529-3.396-.846-1.12-1.708-2.228-2.553-3.348l.336-.254c1.793 2.106 2.666 1.827 4.665.321z" style="fill:none;stroke:#fff;stroke-width:.40200001;stroke-linecap:butt;stroke-linejoin:miter;stroke-miterlimit:3.86400008;stroke-opacity:1;stroke-dasharray:none" transform="matrix(1.25 0 0 -1.25 -764.428 987.748)"></path><path d="M666.426 733.336a232 232 0 0 0 3.013 2.874c1.01.94 2.05 1.881 3.095 2.821l-.272.291c-2.08-1.749-2.926-1.321-4.65.527l-5.727 6.141c-1.722 1.848-2.056 2.686-.184 4.657l-.288.308c-.992-.926-1.985-1.883-2.994-2.825-1.026-.957-2.069-1.897-3.113-2.869l.287-.309c2.131 1.762 2.926 1.321 4.633-.509l5.727-6.142c1.707-1.83 2.108-2.672.201-4.674z" style="fill:#fff;fill-opacity:1;fill-rule:nonzero;stroke:none" transform="matrix(1.25 0 0 -1.25 -764.428 987.748)"></path><path d="M666.426 733.336a232 232 0 0 0 3.013 2.874c1.01.94 2.05 1.881 3.095 2.821l-.272.291c-2.08-1.749-2.926-1.321-4.65.527l-5.727 6.141c-1.722 1.848-2.056 2.686-.184 4.657l-.288.308c-.992-.926-1.985-1.883-2.994-2.825-1.026-.957-2.069-1.897-3.113-2.869l.287-.309c2.131 1.762 2.926 1.321 4.633-.509l5.727-6.142c1.707-1.83 2.108-2.672.201-4.674z" style="fill:none;stroke:#fff;stroke-width:.40200001;stroke-linecap:butt;stroke-linejoin:miter;stroke-miterlimit:3.86400008;stroke-opacity:1;stroke-dasharray:none" transform="matrix(1.25 0 0 -1.25 -764.428 987.748)"></path><path d="M671.148 744.39a28.5 28.5 0 0 1 2.834-2.945c1.516.062 3.031.642 4.375 1.619 2.612 1.897 3.389 5.007 1.835 7.144-1.03 1.42-2.5 1.971-4.656 1.793l-3.158-.27c-1.527-.126-2.773.355-3.406 1.225-.977 1.344-.689 3.057.673 4.047 1.496 1.086 3.207.681 5.045-1.25l.34.247c-.732 1.087-1.377 2.094-1.896 3.046-1.344-.138-2.535-.57-3.65-1.381-2.5-1.814-3.058-4.707-1.56-6.77 1.004-1.381 2.578-1.915 4.874-1.692l2.16.21q2.756.268 3.993-1.437c.935-1.287.67-3.069-.844-4.17-1.874-1.36-4.176-1.096-6.632.85z" style="fill:#fff;fill-opacity:1;fill-rule:nonzero;stroke:none" transform="matrix(1.25 0 0 -1.25 -764.428 987.748)"></path><path d="M671.148 744.39a28.5 28.5 0 0 1 2.834-2.945c1.516.062 3.031.642 4.375 1.619 2.612 1.897 3.389 5.007 1.835 7.144-1.03 1.42-2.5 1.971-4.656 1.793l-3.158-.27c-1.527-.126-2.773.355-3.406 1.225-.977 1.344-.689 3.057.673 4.047 1.496 1.086 3.207.681 5.045-1.25l.34.247c-.732 1.087-1.377 2.094-1.896 3.046-1.344-.138-2.535-.57-3.65-1.381-2.5-1.814-3.058-4.707-1.56-6.77 1.004-1.381 2.578-1.915 4.874-1.692l2.16.21q2.756.268 3.993-1.437c.935-1.287.67-3.069-.844-4.17-1.874-1.36-4.176-1.096-6.632.85z" style="fill:none;stroke:#fff;stroke-width:.40200001;stroke-linecap:butt;stroke-linejoin:miter;stroke-miterlimit:3.86400008;stroke-opacity:1;stroke-dasharray:none" transform="matrix(1.25 0 0 -1.25 -764.428 987.748)"></path><path d="m690.05 756.261-4.656 9.545 1.578.769c2.354 1.149 3.87.977 5.369-.816l.306.227-2.358 3.925-.168-.081-.366-1.012c-1.87-.912-3.753-1.856-5.645-2.78-1.914-.933-3.837-1.845-5.791-2.797l-.96.364-.252-.123 1.58-4.252.388.11c-.479 2.422.37 3.565 2.851 4.775l1.451.707 4.654-9.545c.821-1.681 1.25-2.722.981-3.451-.247-.668-.901-1.3-1.891-1.991l.174-.357c1.293.657 2.565 1.304 3.868 1.94 1.283.625 2.597 1.24 3.89 1.843l-.174.359c-1.155-.356-2.034-.473-2.712-.257-.741.237-1.296 1.217-2.117 2.898" style="fill:#fff;fill-opacity:1;fill-rule:nonzero;stroke:none" transform="matrix(1.25 0 0 -1.25 -764.428 987.748)"></path><path d="m690.05 756.261-4.656 9.545 1.578.769c2.354 1.149 3.87.977 5.369-.816l.306.227-2.358 3.925-.168-.081-.366-1.012c-1.87-.912-3.753-1.856-5.645-2.78-1.914-.933-3.837-1.845-5.791-2.797l-.96.364-.252-.123 1.58-4.252.388.11c-.479 2.422.37 3.565 2.851 4.775l1.451.707 4.654-9.545c.821-1.681 1.25-2.722.981-3.451-.247-.668-.901-1.3-1.891-1.991l.174-.357c1.293.657 2.565 1.304 3.868 1.94 1.283.625 2.597 1.24 3.89 1.843l-.174.359c-1.155-.356-2.034-.473-2.712-.257-.741.237-1.296 1.217-2.117 2.898z" style="fill:none;stroke:#fff;stroke-width:.40200001;stroke-linecap:butt;stroke-linejoin:miter;stroke-miterlimit:3.86400008;stroke-opacity:1;stroke-dasharray:none" transform="matrix(1.25 0 0 -1.25 -764.428 987.748)"></path><path d="M699.155 755.401c2.191.67 4.22 1.316 6.055 1.877 2.618.8 4.883 1.468 6.813 2.034l-.024 4.64-.331.044c-.347-1.744-.771-2.998-1.548-3.897-.725-.832-1.835-1.197-3.29-1.64-1.566-.48-2.43-.695-2.782-.338-.462.47-.77 1.476-1.229 2.974l-2.319 7.584c-.745 2.438-.604 3.338 1.84 4.305l-.124.402c-1.335-.432-2.655-.835-3.952-1.233-1.298-.396-2.594-.793-3.876-1.16l.123-.403c2.67.548 3.208-.096 3.954-2.533l2.319-7.583c.828-2.707.877-3.67-1.746-4.693z" style="fill:#fff;fill-opacity:1;fill-rule:nonzero;stroke:none" transform="matrix(1.25 0 0 -1.25 -764.428 987.748)"></path><path d="M699.155 755.401c2.191.67 4.22 1.316 6.055 1.877 2.618.8 4.883 1.468 6.813 2.034l-.024 4.64-.331.044c-.347-1.744-.771-2.998-1.548-3.897-.725-.832-1.835-1.197-3.29-1.64-1.566-.48-2.43-.695-2.782-.338-.462.47-.77 1.476-1.229 2.974l-2.319 7.584c-.745 2.438-.604 3.338 1.84 4.305l-.124.402c-1.335-.432-2.655-.835-3.952-1.233-1.298-.396-2.594-.793-3.876-1.16l.123-.403c2.67.548 3.208-.096 3.954-2.533l2.319-7.583c.828-2.707.877-3.67-1.746-4.693z" style="fill:none;stroke:#fff;stroke-width:.40200001;stroke-linecap:butt;stroke-linejoin:miter;stroke-miterlimit:3.86400008;stroke-opacity:1;stroke-dasharray:none" transform="matrix(1.25 0 0 -1.25 -764.428 987.748)"></path><path d="M714.685 759.995c1.947.262 3.757.484 5.452.693 3.065.376 5.669.672 7.857.894.317 1.452.422 3.091.297 4.867l-.376.001c-.186-2.898-1.536-4.384-4.277-4.72-3.18-.39-3.871.255-4.162 2.623l-.507 4.133 2.367.29c2.322.286 3.375-.032 3.751-1.754l.348.043-.165 1.346a77 77 0 0 0-.412 4.122l-.372-.047c-.07-1.917-1-2.409-3.299-2.69l-2.344-.289-.82 6.687 3.04.374c2.74.336 3.888-.183 4.344-2.555l.348.044a51 51 0 0 0-.128 3.73c-1.992-.29-4.174-.56-6.543-.85-1.926-.236-3.969-.486-6.132-.73l.051-.416c2.45.205 2.93-.632 3.209-2.906l1.092-8.892c.271-2.206.075-2.914-2.667-3.604z" style="fill:#fff;fill-opacity:1;fill-rule:nonzero;stroke:none" transform="matrix(1.25 0 0 -1.25 -764.428 987.748)" data-source="https://football-logos.cc"></path><path d="M714.685 759.995c1.947.262 3.757.484 5.452.693 3.065.376 5.669.672 7.857.894.317 1.452.422 3.091.297 4.867l-.376.001c-.186-2.898-1.536-4.384-4.277-4.72-3.18-.39-3.871.255-4.162 2.623l-.507 4.133 2.367.29c2.322.286 3.375-.032 3.751-1.754l.348.043-.165 1.346a77 77 0 0 0-.412 4.122l-.372-.047c-.07-1.917-1-2.409-3.299-2.69l-2.344-.289-.82 6.687 3.04.374c2.74.336 3.888-.183 4.344-2.555l.348.044a51 51 0 0 0-.128 3.73c-1.992-.29-4.174-.56-6.543-.85-1.926-.236-3.969-.486-6.132-.73l.051-.416c2.45.205 2.93-.632 3.209-2.906l1.092-8.892c.271-2.206.075-2.914-2.667-3.604z" style="fill:none;stroke:#fff;stroke-width:.40200001;stroke-linecap:butt;stroke-linejoin:miter;stroke-miterlimit:3.86400008;stroke-opacity:1;stroke-dasharray:none" transform="matrix(1.25 0 0 -1.25 -764.428 987.748)"></path><path d="M758.86 758.252c1.313-.427 2.648-.862 3.996-1.326 1.373-.472 2.759-.975 4.188-1.492l.13.376c-2.85 1.278-3.005 2.124-2.144 4.623l1.134 3.296 2.61-.899c2.122-.732 2.81-1.684 2.215-3.41l.332-.115c.192.627.397 1.224.603 1.823.44 1.282.92 2.527 1.42 3.765l-.354.123c-.652-1.607-1.869-1.905-3.948-1.19l-2.542.876 2.314 6.723 2.19-.753c2.964-1.021 3.99-1.92 3.21-4.471l.333-.114 1.572 3.49a516 516 0 0 0-6.252 2.105c-1.704.586-3.553 1.248-5.566 1.94l-.137-.397c2.357-1.059 2.282-1.924 1.45-4.335l-2.702-7.852c-.83-2.41-1.296-3.116-3.923-2.41z" style="fill:#fff;fill-opacity:1;fill-rule:nonzero;stroke:none" transform="matrix(1.25 0 0 -1.25 -764.428 987.748)"></path><path d="M758.86 758.252c1.313-.427 2.648-.862 3.996-1.326 1.373-.472 2.759-.975 4.188-1.492l.13.376c-2.85 1.278-3.005 2.124-2.144 4.623l1.134 3.296 2.61-.899c2.122-.732 2.81-1.684 2.215-3.41l.332-.115c.192.627.397 1.224.603 1.823.44 1.282.92 2.527 1.42 3.765l-.354.123c-.652-1.607-1.869-1.905-3.948-1.19l-2.542.876 2.314 6.723 2.19-.753c2.964-1.021 3.99-1.92 3.21-4.471l.333-.114 1.572 3.49a516 516 0 0 0-6.252 2.105c-1.704.586-3.553 1.248-5.566 1.94l-.137-.397c2.357-1.059 2.282-1.924 1.45-4.335l-2.702-7.852c-.83-2.41-1.296-3.116-3.923-2.41z" style="fill:none;stroke:#fff;stroke-width:.40200001;stroke-linecap:butt;stroke-linejoin:miter;stroke-miterlimit:3.86400008;stroke-opacity:1;stroke-dasharray:none" transform="matrix(1.25 0 0 -1.25 -764.428 987.748)"></path><path d="M776.48 760.981c-2.675-4.452-1.432-9.102 3.08-11.812 4.632-2.784 9.323-1.7 11.876 2.551 2.664 4.431 1.495 9.117-3.057 11.853-4.63 2.783-9.297 1.739-11.9-2.592m2.555-1.153c2.325 3.87 5.868 5.043 8.775 3.295 1.725-1.035 2.559-2.6 2.656-4.843.072-1.653-.442-3.554-1.49-5.298-2.362-3.93-5.885-5.115-8.852-3.333-3.029 1.82-3.608 5.988-1.09 10.179" style="fill:#fff;fill-opacity:1;fill-rule:evenodd;stroke:none" transform="matrix(1.25 0 0 -1.25 -764.428 987.748)"></path><path d="M776.48 760.981c-2.675-4.452-1.432-9.102 3.08-11.812 4.632-2.784 9.323-1.7 11.876 2.551 2.664 4.431 1.495 9.117-3.057 11.853-4.63 2.783-9.297 1.739-11.9-2.592zm2.554-1.153c2.325 3.87 5.868 5.043 8.775 3.295 1.725-1.035 2.559-2.6 2.656-4.843.072-1.653-.442-3.554-1.49-5.298-2.362-3.93-5.885-5.115-8.852-3.333-3.029 1.82-3.608 5.988-1.09 10.179z" style="fill:none;stroke:#fff;stroke-width:.40200001;stroke-linecap:butt;stroke-linejoin:miter;stroke-miterlimit:3.86400008;stroke-opacity:1;stroke-dasharray:none" transform="matrix(1.25 0 0 -1.25 -764.428 987.748)"></path><path d="M794.044 750.455c-3.541-3.798-3.29-8.605.558-12.195 3.953-3.685 8.765-3.6 12.147.027 3.525 3.782 3.357 8.607-.526 12.23-3.951 3.684-8.733 3.633-12.179-.062m2.26-1.659c3.079 3.302 6.787 3.713 9.268 1.4 1.471-1.373 1.962-3.077 1.591-5.29-.273-1.633-1.171-3.385-2.56-4.873-3.126-3.354-6.82-3.78-9.351-1.419-2.583 2.41-2.283 6.606 1.051 10.182" style="fill:#fff;fill-opacity:1;fill-rule:evenodd;stroke:none" transform="matrix(1.25 0 0 -1.25 -764.428 987.748)"></path><path d="M794.044 750.455c-3.541-3.798-3.29-8.605.558-12.195 3.953-3.685 8.765-3.6 12.147.027 3.525 3.782 3.357 8.607-.526 12.23-3.951 3.684-8.733 3.633-12.179-.062zm2.26-1.659c3.079 3.302 6.787 3.713 9.268 1.4 1.471-1.373 1.962-3.077 1.591-5.29-.273-1.633-1.171-3.385-2.56-4.873-3.126-3.354-6.82-3.78-9.351-1.419-2.583 2.41-2.283 6.606 1.051 10.182z" style="fill:none;stroke:#fff;stroke-width:.40200001;stroke-linecap:butt;stroke-linejoin:miter;stroke-miterlimit:3.86400008;stroke-opacity:1;stroke-dasharray:none" transform="matrix(1.25 0 0 -1.25 -764.428 987.748)"></path><path d="m811.15 728.54 8.134 6.826 1.128-1.344c1.685-2.007 1.884-3.519.507-5.407l.294-.242 3.239 3.237-.12.143-1.07.11c-1.338 1.595-2.709 3.193-4.062 4.805-1.37 1.63-2.72 3.278-4.117 4.943l.123 1.02-.182.214-3.744-2.562.203-.35c2.233 1.05 3.546.505 5.322-1.61l1.036-1.236-8.134-6.827c-1.434-1.203-2.34-1.87-3.113-1.786-.706.078-1.477.56-2.388 1.354l-.304-.256c.95-1.095 1.884-2.174 2.817-3.284a278 278 0 0 0 2.731-3.328l.305.256c-.624 1.034-.951 1.86-.905 2.57.051.775.866 1.55 2.3 2.754" style="fill:#fff;fill-opacity:1;fill-rule:nonzero;stroke:none" transform="matrix(1.25 0 0 -1.25 -764.428 987.748)"></path><path d="m811.15 728.54 8.134 6.826 1.128-1.344c1.685-2.007 1.884-3.519.507-5.407l.294-.242 3.239 3.237-.12.143-1.07.11c-1.338 1.595-2.709 3.193-4.062 4.805-1.37 1.63-2.72 3.278-4.117 4.943l.123 1.02-.182.214-3.744-2.562.203-.35c2.233 1.05 3.546.505 5.322-1.61l1.036-1.236-8.134-6.827c-1.434-1.203-2.34-1.87-3.113-1.786-.706.078-1.477.56-2.388 1.354l-.304-.256c.95-1.095 1.884-2.174 2.817-3.284a278 278 0 0 0 2.731-3.328l.305.256c-.624 1.034-.951 1.86-.905 2.57.051.775.866 1.55 2.3 2.754z" style="fill:none;stroke:#fff;stroke-width:.40200001;stroke-linecap:butt;stroke-linejoin:miter;stroke-miterlimit:3.86400008;stroke-opacity:1;stroke-dasharray:none" transform="matrix(1.25 0 0 -1.25 -764.428 987.748)"></path><path d="M812.467 718.997c.363-.68 1.264-2.427 2.746-5.215.122-.228.233-.486.353-.714.978-1.838 1.777-3.242 3.105-4.046 1.317-.783 2.7-.841 3.918-.195 2.004 1.067 2.464 3.192 1.552 6.55l.125.065c1.863-2.109 3.468-2.686 5.286-1.72 2.395 1.273 2.184 3.864-.068 8.098-.384.723-1.227 2.208-2.446 4.502l-.372-.198c.958-2.3.47-2.877-1.533-3.942l-7.994-4.25c-2.065-1.1-2.865-.888-4.321 1.253zm5.746-2.985 3.924 2.087c.143-.216.263-.443.384-.67 1.493-2.81.834-5.359-1.396-6.545-1.734-.923-3.58-.34-4.59 1.56-1.022 1.92-.222 2.559 1.678 3.568m4.379 2.328 6.382 3.393c1.443-2.914 1.03-5.173-.89-6.195-2.005-1.066-3.817-.148-5.492 2.802" style="fill:#fff;fill-opacity:1;fill-rule:evenodd;stroke:none" transform="matrix(1.25 0 0 -1.25 -764.428 987.748)"></path><path d="M812.467 718.997c.363-.68 1.264-2.427 2.746-5.215.122-.228.233-.486.353-.714.978-1.838 1.777-3.242 3.105-4.046 1.317-.783 2.7-.841 3.918-.195 2.004 1.067 2.464 3.192 1.552 6.55l.125.065c1.863-2.109 3.468-2.686 5.286-1.72 2.395 1.273 2.184 3.864-.068 8.098-.384.723-1.227 2.208-2.446 4.502l-.372-.198c.958-2.3.47-2.877-1.533-3.942l-7.994-4.25c-2.065-1.1-2.865-.888-4.321 1.253zm5.746-2.985 3.924 2.087c.143-.216.263-.443.384-.67 1.493-2.81.834-5.359-1.396-6.545-1.734-.923-3.58-.34-4.59 1.56-1.022 1.92-.222 2.559 1.678 3.568zm4.379 2.328 6.382 3.393c1.443-2.914 1.03-5.173-.89-6.195-2.005-1.066-3.817-.148-5.492 2.802z" style="fill:none;stroke:#fff;stroke-width:.40200001;stroke-linecap:butt;stroke-linejoin:miter;stroke-miterlimit:3.86400008;stroke-opacity:1;stroke-dasharray:none" transform="matrix(1.25 0 0 -1.25 -764.428 987.748)"></path><path d="M819.922 705.167c.31-.933.64-1.932.954-2.961.321-1.052.642-2.178.968-3.326l.38.117c-.482 1.736-.31 2.694.652 2.988.65.198 1.857.25 3.682.195l1.406-.034 1.62-5.301-2.948-2.2c-.58-.42-1.038-.683-1.419-.799-.67-.205-1.4.257-1.845 1.392l-.38-.115c.365-1.112.73-2.225 1.064-3.32.342-1.119.662-2.244.975-3.348l.38.117c-.453 1.72.249 2.547 1.894 3.809l11.843 9.025c-.777.302-1.323.648-1.716 1.212l-.42-.225-7.535.485c-4.389.273-6.939.373-7.707.726-.63.297-1.038.832-1.468 1.68zm9.113-3.086 6.88-.342-5.485-4.22z" style="fill:#fff;fill-opacity:1;fill-rule:evenodd;stroke:none" transform="matrix(1.25 0 0 -1.25 -764.428 987.748)"></path><path d="M819.922 705.167c.31-.933.64-1.932.954-2.961.321-1.052.642-2.178.968-3.326l.38.117c-.482 1.736-.31 2.694.652 2.988.65.198 1.857.25 3.682.195l1.406-.034 1.62-5.301-2.948-2.2c-.58-.42-1.038-.683-1.419-.799-.67-.205-1.4.257-1.845 1.392l-.38-.115c.365-1.112.73-2.225 1.064-3.32.342-1.119.662-2.244.975-3.348l.38.117c-.453 1.72.249 2.547 1.894 3.809l11.843 9.025c-.777.302-1.323.648-1.716 1.212l-.42-.225-7.535.485c-4.389.273-6.939.373-7.707.726-.63.297-1.038.832-1.468 1.68zm9.113-3.086 6.88-.342-5.485-4.22z" style="fill:none;stroke:#fff;stroke-width:.40200001;stroke-linecap:butt;stroke-linejoin:miter;stroke-miterlimit:3.86400008;stroke-opacity:1;stroke-dasharray:none" transform="matrix(1.25 0 0 -1.25 -764.428 987.748)"></path><path d="M825.654 685.036c.2-2.285.41-4.403.576-6.314.238-2.725.421-5.082.573-7.087l4.543-.942.114.315c-1.635.703-2.773 1.378-3.49 2.325-.665.882-.79 2.044-.923 3.56-.142 1.63-.172 2.52.25 2.79.556.355 1.604.448 3.166.584l7.899.69c2.54.224 3.39-.102 3.828-2.694l.42.038c-.146 1.395-.266 2.77-.384 4.122-.119 1.351-.237 2.703-.33 4.033l-.42-.036c-.02-2.725-.76-3.12-3.3-3.342l-7.9-.691c-2.82-.246-3.772-.095-4.226 2.683z" style="fill:#fff;fill-opacity:1;fill-rule:nonzero;stroke:none" transform="matrix(1.25 0 0 -1.25 -764.428 987.748)"></path><path d="M825.654 685.036c.2-2.285.41-4.403.576-6.314.238-2.725.421-5.082.573-7.087l4.543-.942.114.315c-1.635.703-2.773 1.378-3.49 2.325-.665.882-.79 2.044-.923 3.56-.142 1.63-.172 2.52.25 2.79.556.355 1.604.448 3.166.584l7.899.69c2.54.224 3.39-.102 3.828-2.694l.42.038c-.146 1.395-.266 2.77-.384 4.122-.119 1.351-.237 2.703-.33 4.033l-.42-.036c-.02-2.725-.76-3.12-3.3-3.342l-7.9-.691c-2.82-.246-3.772-.095-4.226 2.683z" style="fill:none;stroke:#fff;stroke-width:.40200001;stroke-linecap:butt;stroke-linejoin:miter;stroke-miterlimit:3.86400008;stroke-opacity:1;stroke-dasharray:none" transform="matrix(1.25 0 0 -1.25 -764.428 987.748)"></path><path d="M827.13 666.982c-.2-2.284-.361-4.407-.53-6.316a609 609 0 0 0-.665-7.082l4.31-1.714.167.29c-1.488.976-2.493 1.838-3.034 2.896-.501.982-.422 2.15-.29 3.664.143 1.632.267 2.513.73 2.708.61.252 1.658.159 3.22.022l7.899-.691c2.54-.222 3.32-.689 3.301-3.318l.42-.036c.1 1.4.22 2.775.338 4.126s.237 2.703.376 4.03l-.42.037c-.492-2.68-1.29-2.94-3.83-2.718l-7.9.691c-2.818.248-3.73.561-3.696 3.377z" style="fill:#fff;fill-opacity:1;fill-rule:nonzero;stroke:none" transform="matrix(1.25 0 0 -1.25 -764.428 987.748)"></path><path d="M827.13 666.982c-.2-2.284-.361-4.407-.53-6.316a609 609 0 0 0-.665-7.082l4.31-1.714.167.29c-1.488.976-2.493 1.838-3.034 2.896-.501.982-.422 2.15-.29 3.664.143 1.632.267 2.513.73 2.708.61.252 1.658.159 3.22.022l7.899-.691c2.54-.222 3.32-.689 3.301-3.318l.42-.036c.1 1.4.22 2.775.338 4.126s.237 2.703.376 4.03l-.42.037c-.492-2.68-1.29-2.94-3.83-2.718l-7.9.691c-2.818.248-3.73.561-3.696 3.377z" style="fill:none;stroke:#fff;stroke-width:.40200001;stroke-linecap:butt;stroke-linejoin:miter;stroke-miterlimit:3.86400008;stroke-opacity:1;stroke-dasharray:none" transform="matrix(1.25 0 0 -1.25 -764.428 987.748)"></path><path d="M823.758 627.49c-2.647 2.372-3.567 4.371-2.767 6.693a6.7 6.7 0 0 0 3.56 3.945c1.94.891 4.145.972 6.29.234 4.424-1.524 6.474-5.197 5.21-8.87-.921-2.675-2.967-3.802-5.981-3.284l-.129-.377 3.782-1.302a12.46 12.46 0 0 1 2.872 4.677c.846 2.456.876 4.844.113 6.864-.91 2.391-2.703 4.148-5.115 4.977-2.631.906-4.964.67-7.139-.757-1.726-1.137-3.129-2.98-3.936-5.325a12.3 12.3 0 0 1-.627-5.054c1.026-.972 2.23-1.857 3.62-2.707z" style="fill:#fff;fill-opacity:1;fill-rule:nonzero;stroke:none" transform="matrix(1.25 0 0 -1.25 -764.428 987.748)"></path><path d="M823.758 627.49c-2.647 2.372-3.567 4.371-2.767 6.693a6.7 6.7 0 0 0 3.56 3.945c1.94.891 4.145.972 6.29.234 4.424-1.524 6.474-5.197 5.21-8.87-.921-2.675-2.967-3.802-5.981-3.284l-.129-.377 3.782-1.302a12.46 12.46 0 0 1 2.872 4.677c.846 2.456.876 4.844.113 6.864-.91 2.391-2.703 4.148-5.115 4.977-2.631.906-4.964.67-7.139-.757-1.726-1.137-3.129-2.98-3.936-5.325a12.3 12.3 0 0 1-.627-5.054c1.026-.972 2.23-1.857 3.62-2.707z" style="fill:none;stroke:#fff;stroke-width:.40200001;stroke-linecap:butt;stroke-linejoin:miter;stroke-miterlimit:3.86400008;stroke-opacity:1;stroke-dasharray:none" transform="matrix(1.25 0 0 -1.25 -764.428 987.748)"></path><path d="M817.334 625.926c-1.18-1.965-2.258-3.801-3.245-5.447a593 593 0 0 0-3.703-6.07l3.123-3.432.277.187c-.91 1.53-1.435 2.745-1.458 3.933-.02 1.104.563 2.118 1.346 3.422.844 1.402 1.342 2.14 1.843 2.112.657-.04 1.56-.582 2.903-1.39l6.798-4.084c2.185-1.314 2.682-2.076 1.513-4.43l.362-.217a236 236 0 0 0 2.112 3.561 240 240 0 0 0 2.104 3.456l-.361.218c-1.619-2.193-2.448-2.076-4.634-.764l-6.798 4.085c-2.425 1.458-3.106 2.14-1.842 4.656z" style="fill:#fff;fill-opacity:1;fill-rule:nonzero;stroke:none" transform="matrix(1.25 0 0 -1.25 -764.428 987.748)"></path><path d="M817.334 625.926c-1.18-1.965-2.258-3.801-3.245-5.447a593 593 0 0 0-3.703-6.07l3.123-3.432.277.187c-.91 1.53-1.435 2.745-1.458 3.933-.02 1.104.563 2.118 1.346 3.422.844 1.402 1.342 2.14 1.843 2.112.657-.04 1.56-.582 2.903-1.39l6.798-4.084c2.185-1.314 2.682-2.076 1.513-4.43l.362-.217a236 236 0 0 0 2.112 3.561 240 240 0 0 0 2.104 3.456l-.361.218c-1.619-2.193-2.448-2.076-4.634-.764l-6.798 4.085c-2.425 1.458-3.106 2.14-1.842 4.656z" style="fill:none;stroke:#fff;stroke-width:.40200001;stroke-linecap:butt;stroke-linejoin:miter;stroke-miterlimit:3.86400008;stroke-opacity:1;stroke-dasharray:none" transform="matrix(1.25 0 0 -1.25 -764.428 987.748)"></path><path d="M812.57 607.106c-1.39 1.253-2.483 2.172-4.032 2.34-1.682.161-3.456-.727-5.21-2.674-2.191-2.435-2.793-4.851-1.803-7.002.749-1.65 2.394-3.006 4.395-4.839 3.237-2.978 4.7-4.358 3.135-6.096l-.031-.035.313-.282c.749.867 1.532 1.737 2.315 2.606.783.87 1.55 1.722 2.349 2.575l-.312.281c-.989-1.062-1.892-1.539-2.876-1.409-1.033.144-2.368 1.283-4.402 3.114-2.174 1.958-3.605 3.341-4.077 4.458-.76 1.848-.41 3.39 1.093 5.06 1.236 1.374 2.658 2.077 3.965 2.095 1.407.024 2.506-.745 3.88-1.983l4.311-3.88c2-1.802 2.217-2.783.485-4.812l.312-.282c.922 1.059 1.861 2.101 2.8 3.145.924 1.025 1.847 2.051 2.789 3.062l-.314.28c-.691-.699-1.366-1.098-2.073-1.218-.738-.121-1.432.471-2.545 1.473l-.243.22z" style="fill:#fff;fill-opacity:1;fill-rule:nonzero;stroke:none" transform="matrix(1.25 0 0 -1.25 -764.428 987.748)"></path><path d="M812.57 607.106c-1.39 1.253-2.483 2.172-4.032 2.34-1.682.161-3.456-.727-5.21-2.674-2.191-2.435-2.793-4.851-1.803-7.002.749-1.65 2.394-3.006 4.395-4.839 3.237-2.978 4.7-4.358 3.135-6.096l-.031-.035.313-.282c.749.867 1.532 1.737 2.315 2.606.783.87 1.55 1.722 2.349 2.575l-.312.281c-.989-1.062-1.892-1.539-2.876-1.409-1.033.144-2.368 1.283-4.402 3.114-2.174 1.958-3.605 3.341-4.077 4.458-.76 1.848-.41 3.39 1.093 5.06 1.236 1.374 2.658 2.077 3.965 2.095 1.407.024 2.506-.745 3.88-1.983l4.311-3.88c2-1.802 2.217-2.783.485-4.812l.312-.282c.922 1.059 1.861 2.101 2.8 3.145.924 1.025 1.847 2.051 2.789 3.062l-.314.28c-.691-.699-1.366-1.098-2.073-1.218-.738-.121-1.432.471-2.545 1.473l-.243.22z" style="fill:none;stroke:#fff;stroke-width:.40200001;stroke-linecap:butt;stroke-linejoin:miter;stroke-miterlimit:3.86400008;stroke-opacity:1;stroke-dasharray:none" transform="matrix(1.25 0 0 -1.25 -764.428 987.748)"></path><path d="M796.003 598.336c-.617-.465-2.2-1.63-4.722-3.53-.206-.154-.444-.304-.65-.459-1.662-1.254-2.923-2.262-3.51-3.7-.567-1.424-.409-2.798.422-3.9 1.365-1.812 3.535-1.934 6.71-.509l.083-.112c-1.79-2.171-2.11-3.846-.871-5.49 1.633-2.168 4.158-1.553 7.987 1.333.654.492 1.991 1.557 4.064 3.12l-.254.336c-2.12-1.305-2.767-.913-4.132.899l-5.448 7.23c-1.409 1.867-1.326 2.69.56 4.464zm-2.049-6.143 2.674-3.55a9 9 0 0 0-.603-.484c-2.539-1.914-5.16-1.663-6.68.354-1.183 1.571-.898 3.485.821 4.78 1.737 1.309 2.492.619 3.788-1.1m2.985-3.961 4.348-5.772c-2.652-1.883-4.95-1.828-6.259-.09-1.365 1.813-.743 3.746 1.911 5.861" style="fill:#fff;fill-opacity:1;fill-rule:evenodd;stroke:none" transform="matrix(1.25 0 0 -1.25 -764.428 987.748)"></path><path d="M796.003 598.336c-.617-.465-2.2-1.63-4.722-3.53-.206-.154-.444-.304-.65-.459-1.662-1.254-2.923-2.262-3.51-3.7-.567-1.424-.409-2.798.422-3.9 1.365-1.812 3.535-1.934 6.71-.509l.083-.112c-1.79-2.171-2.11-3.846-.871-5.49 1.633-2.168 4.158-1.553 7.987 1.333.654.492 1.991 1.557 4.064 3.12l-.254.336c-2.12-1.305-2.767-.913-4.132.899l-5.448 7.23c-1.409 1.867-1.326 2.69.56 4.464zm-2.049-6.143 2.674-3.55a9 9 0 0 0-.603-.484c-2.539-1.914-5.16-1.663-6.68.354-1.183 1.571-.898 3.485.821 4.78 1.737 1.309 2.492.619 3.788-1.1zm2.985-3.961 4.348-5.772c-2.652-1.883-4.95-1.828-6.259-.09-1.365 1.813-.743 3.746 1.911 5.861z" style="fill:none;stroke:#fff;stroke-width:.40200001;stroke-linecap:butt;stroke-linejoin:miter;stroke-miterlimit:3.86400008;stroke-opacity:1;stroke-dasharray:none" transform="matrix(1.25 0 0 -1.25 -764.428 987.748)"></path><path d="M703.172 563.4c1.458-.34 2.916-.68 4.347-1.035 1.452-.363 2.877-.743 4.3-1.122l.097.387c-1.373.39-2.196.86-2.553 1.456-.404.704-.138 1.866.325 3.728l.108.43 1.81 7.263c.16.636.488 1.76 1.025 3.434-.987.198-1.986.447-3.006.702-.817.204-1.657.412-2.491.645l-.102-.408c1.429-.455 2.292-1.055 2.53-1.548.336-.686.077-1.923-.417-3.899l-.367-1.474-.827-3.314c-.627-2.52-1.075-4.023-1.545-4.46-.624-.568-1.668-.694-3.138-.4z" style="fill:#fff;fill-opacity:1;fill-rule:nonzero;stroke:none" transform="matrix(1.25 0 0 -1.25 -764.428 987.748)"></path><path d="M703.172 563.4c1.458-.34 2.916-.68 4.347-1.035 1.452-.363 2.877-.743 4.3-1.122l.097.387c-1.373.39-2.196.86-2.553 1.456-.404.704-.138 1.866.325 3.728l.108.43 1.81 7.263c.16.636.488 1.76 1.025 3.434-.987.198-1.986.447-3.006.702-.817.204-1.657.412-2.491.645l-.102-.408c1.429-.455 2.292-1.055 2.53-1.548.336-.686.077-1.923-.417-3.899l-.367-1.474-.827-3.314c-.627-2.52-1.075-4.023-1.545-4.46-.624-.568-1.668-.694-3.138-.4z" style="fill:none;stroke:#fff;stroke-width:.40200001;stroke-linecap:butt;stroke-linejoin:miter;stroke-miterlimit:3.86400008;stroke-opacity:1;stroke-dasharray:none" transform="matrix(1.25 0 0 -1.25 -764.428 987.748)"></path><path d="M721.384 568.006c-2.657-.9-4.058-2.142-4.3-4.115-.284-2.322 1.516-4.168 4.65-4.554 3.017-.37 5.318 1.28 5.597 3.555.228 1.857-.834 3.378-3.03 5.462 2.282.922 3.455 2.028 3.66 3.699.248 2.02-1.246 3.664-3.963 3.999-2.995.367-5.017-.94-5.295-3.192-.222-1.81.7-3.126 2.68-4.854m2.596.6-1.166 1.063c-1.482 1.36-2.164 2.528-2.01 3.782.168 1.37 1.263 2.226 2.68 2.052 1.67-.206 2.524-1.514 2.273-3.557-.174-1.416-.792-2.613-1.777-3.34m-2.211-.93 1.122-1.034c1.543-1.438 2.36-2.646 2.173-4.179-.211-1.717-1.392-2.704-2.925-2.515-1.903.234-3.135 1.917-2.857 4.168.19 1.556 1.051 2.817 2.487 3.56" style="fill:#fff;fill-opacity:1;fill-rule:evenodd;stroke:none" transform="matrix(1.25 0 0 -1.25 -764.428 987.748)"></path><path d="M721.384 568.006c-2.657-.9-4.058-2.142-4.3-4.115-.284-2.322 1.516-4.168 4.65-4.554 3.017-.37 5.318 1.28 5.597 3.555.228 1.857-.834 3.378-3.03 5.462 2.282.922 3.455 2.028 3.66 3.699.248 2.02-1.246 3.664-3.963 3.999-2.995.367-5.017-.94-5.295-3.192-.222-1.81.7-3.126 2.68-4.854zm2.595.6-1.166 1.063c-1.482 1.36-2.164 2.528-2.01 3.782.168 1.37 1.263 2.226 2.68 2.052 1.67-.206 2.524-1.514 2.273-3.557-.174-1.416-.792-2.613-1.777-3.34zm-2.211-.93 1.122-1.034c1.543-1.438 2.36-2.646 2.173-4.179-.211-1.717-1.392-2.704-2.925-2.515-1.903.234-3.135 1.917-2.857 4.168.19 1.556 1.051 2.817 2.487 3.56z" style="fill:none;stroke:#fff;stroke-width:.40200001;stroke-linecap:butt;stroke-linejoin:miter;stroke-miterlimit:3.86400008;stroke-opacity:1;stroke-dasharray:none" transform="matrix(1.25 0 0 -1.25 -764.428 987.748)"></path><path d="m733.315 558.69 1.612.057c2.666 5.429 5.44 11.144 8.822 16.856l-.051.115c-2.5-.135-4.884-.241-7.106-.318-1.237-.043-2.43-.085-3.577-.102l-.947-4.363.354-.105c.455 1.045.923 1.764 1.517 2.16.549.346 1.46.402 2.84.45.163.006.35.012.538.02 1.59.055 2.992.08 4.209.098z" style="fill:#fff;fill-opacity:1;fill-rule:nonzero;stroke:none" transform="matrix(1.25 0 0 -1.25 -764.428 987.748)"></path><path d="m733.315 558.69 1.612.057c2.666 5.429 5.44 11.144 8.822 16.856l-.051.115c-2.5-.135-4.884-.241-7.106-.318-1.237-.043-2.43-.085-3.577-.102l-.947-4.363.354-.105c.455 1.045.923 1.764 1.517 2.16.549.346 1.46.402 2.84.45.163.006.35.012.538.02 1.59.055 2.992.08 4.209.098z" style="fill:none;stroke:#fff;stroke-width:.40200001;stroke-linecap:butt;stroke-linejoin:miter;stroke-miterlimit:3.86400008;stroke-opacity:1;stroke-dasharray:none" transform="matrix(1.25 0 0 -1.25 -764.428 987.748)"></path><path d="M744.227 769.585c-.117-.954-.254-1.458-.588-2.161-.07-.165-.201-.422-.213-.52s.055-.155.129-.164c.121-.015.369.177.582.3 1.28.91 2.526 1.774 3.48 2.874.088.112.247.391.265.537.012.099.027.22-.063.306-.063.082-.271.207-.865.429-.81.273-2.99.913-3.308.952-.366.045-.495.01-.519-.184-.015-.123.15-.192.356-.342.324-.188.894-.804.744-2.027" style="fill:#fff;fill-opacity:1;fill-rule:nonzero;stroke:none" transform="matrix(1.25 0 0 -1.25 -764.428 987.748)"></path><path d="M744.227 769.585c-.117-.954-.254-1.458-.588-2.161-.07-.165-.201-.422-.213-.52s.055-.155.129-.164c.121-.015.369.177.582.3 1.28.91 2.526 1.774 3.48 2.874.088.112.247.391.265.537.012.099.027.22-.063.306-.063.082-.271.207-.865.429-.81.273-2.99.913-3.308.952-.366.045-.495.01-.519-.184-.015-.123.15-.192.356-.342.324-.188.894-.804.744-2.027z" style="fill:none;stroke:#fff;stroke-width:.40200001;stroke-linecap:butt;stroke-linejoin:miter;stroke-miterlimit:3.86400008;stroke-opacity:1;stroke-dasharray:none" transform="matrix(1.25 0 0 -1.25 -764.428 987.748)"></path><path d="M775.142 575.492c-.465.84-.651 1.329-.795 2.094-.04.175-.086.459-.132.546-.048.085-.137.093-.203.057-.106-.06-.193-.362-.294-.585-.5-1.488-1-2.921-1.126-4.37-.005-.144.031-.462.102-.591.048-.087.108-.195.23-.211.1-.029.341-.008.952.162.816.255 2.956 1.018 3.235 1.173.324.18.408.283.312.454-.06.108-.234.068-.487.068-.374-.038-1.197.126-1.794 1.203" style="fill:#fff;fill-opacity:1;fill-rule:nonzero;stroke:none" transform="matrix(1.25 0 0 -1.25 -764.428 987.748)"></path><path d="M775.142 575.492c-.465.84-.651 1.329-.795 2.094-.04.175-.086.459-.132.546-.048.085-.137.093-.203.057-.106-.06-.193-.362-.294-.585-.5-1.488-1-2.921-1.126-4.37-.005-.144.031-.462.102-.591.048-.087.108-.195.23-.211.1-.029.341-.008.952.162.816.255 2.956 1.018 3.235 1.173.324.18.408.283.312.454-.06.108-.234.068-.487.068-.374-.038-1.197.126-1.794 1.203z" style="fill:none;stroke:#fff;stroke-width:.40200001;stroke-linecap:butt;stroke-linejoin:miter;stroke-miterlimit:3.86400008;stroke-opacity:1;stroke-dasharray:none" transform="matrix(1.25 0 0 -1.25 -764.428 987.748)"></path><path d="M686.659 577.407c.508.815.846 1.214 1.446 1.71.133.12.361.299.412.381.053.084.017.165-.046.204-.105.066-.41-.006-.656-.025-1.543-.285-3.039-.542-4.368-1.134-.127-.066-.388-.25-.466-.377-.053-.084-.119-.187-.074-.303.024-.1.16-.303.603-.754.618-.59 2.324-2.091 2.595-2.26.314-.197.444-.22.55-.053.064.105-.056.238-.179.46-.213.308-.47 1.107.183 2.151" style="fill:#fff;fill-opacity:1;fill-rule:nonzero;stroke:none" transform="matrix(1.25 0 0 -1.25 -764.428 987.748)"></path><path d="M686.659 577.407c.508.815.846 1.214 1.446 1.71.133.12.361.299.412.381.053.084.017.165-.046.204-.105.066-.41-.006-.656-.025-1.543-.285-3.039-.542-4.368-1.134-.127-.066-.388-.25-.466-.377-.053-.084-.119-.187-.074-.303.024-.1.16-.303.603-.754.618-.59 2.324-2.091 2.595-2.26.314-.197.444-.22.55-.053.064.105-.056.238-.179.46-.213.308-.47 1.107.183 2.151z" style="fill:none;stroke:#fff;stroke-width:.40200001;stroke-linecap:butt;stroke-linejoin:miter;stroke-miterlimit:3.86400008;stroke-opacity:1;stroke-dasharray:none" transform="matrix(1.25 0 0 -1.25 -764.428 987.748)"></path><path d="M753.438 577.428c-5.662-3.609-8.07-8.193-7.105-12.726.769-3.622 3.4-5.469 6.658-4.776 3.28.698 5.165 3.599 4.515 6.651-.604 2.849-3.106 4.532-5.884 3.94-.912-.194-1.889-.64-2.95-1.364.718 3.01 2.435 5.685 5.108 7.896zm-4.854-8.866c.617.345 1.185.585 1.709.697 2.3.489 4.306-.99 4.921-3.883.533-2.507-.291-4.349-1.93-4.697-1.937-.412-3.903 1.218-4.547 4.248-.271 1.277-.322 2.528-.153 3.635" style="fill:#fff;fill-opacity:1;fill-rule:evenodd;stroke:none" transform="matrix(1.25 0 0 -1.25 -764.428 987.748)"></path><path d="M753.438 577.428c-5.662-3.609-8.07-8.193-7.105-12.726.769-3.622 3.4-5.469 6.658-4.776 3.28.698 5.165 3.599 4.515 6.651-.604 2.849-3.106 4.532-5.884 3.94-.912-.194-1.889-.64-2.95-1.364.718 3.01 2.435 5.685 5.108 7.896zm-4.854-8.866c.617.345 1.185.585 1.709.697 2.3.489 4.306-.99 4.921-3.883.533-2.507-.291-4.349-1.93-4.697-1.937-.412-3.903 1.218-4.547 4.248-.271 1.277-.322 2.528-.153 3.635z" style="fill:none;stroke:#fff;stroke-width:.40200001;stroke-linecap:butt;stroke-linejoin:miter;stroke-miterlimit:3.86400008;stroke-opacity:1;stroke-dasharray:none" transform="matrix(1.25 0 0 -1.25 -764.428 987.748)" data-source="https://football-logos.cc"></path><!-- source: https://football-logos.cc --></svg>