<svg xmlns="http://www.w3.org/2000/svg" xml:space="preserve" viewBox="0 0 278.43 274.95"><!-- Source: https://football-logos.cc --><path fill="#E8541C" fill-rule="evenodd" d="m256.128 149.661 19.052 5.813c1.318-36.032-4.009-67.516-19.052-92.353-8.826 13.832-17.113 23.735-28.74 34.552 10.685 17.383 12.999 39.45 9.042 61.999z" clip-rule="evenodd" data-source="https://football-logos.cc"></path><path d="m257.012 146.733 15.229 4.647c.373-16.308-.677-31.612-3.45-45.696-2.632-13.373-6.822-25.667-12.828-36.707-3.535 5.28-7.056 10.013-10.801 14.509-4.198 5.041-8.714 9.807-13.9 14.735 4.668 8.255 7.613 17.438 9.031 27.162 1.35 9.255 1.312 18.996.051 28.878l14.411-7.324 1.098-.558zm17.283 11.667-17.892-5.458-18.6 9.452-5.439 2.765 1.055-6.014c1.982-11.299 2.352-22.454.828-32.903-1.421-9.749-4.5-18.894-9.463-26.97l-1.308-2.128 1.833-1.706c5.676-5.28 10.563-10.372 15.145-15.871 4.544-5.455 8.75-11.29 13.093-18.096l2.648-4.149 2.548 4.208c7.709 12.729 12.927 27.146 16.044 42.982 3.097 15.731 4.117 32.84 3.45 51.067l-.145 3.979z"></path><path fill="#FFF" fill-rule="evenodd" d="M139.199 245.565C72.897 209.833 49.954 174.313 77.2 99.61c22.497 9.983 42.946 8.207 61.999-1.615 19.052 9.822 39.502 11.598 61.999 1.615 27.246 74.703 4.303 110.223-61.999 145.955" clip-rule="evenodd"></path><path d="M137.753 248.254c-33.716-18.171-56.455-36.391-67.394-59.762-10.982-23.464-9.946-51.757 3.973-89.922l1.123-3.076 2.975 1.32c10.797 4.791 21.085 6.762 30.942 6.356 9.85-.405 19.302-3.183 28.429-7.887l1.398-.72 1.397.72c9.126 4.704 18.578 7.482 28.43 7.887 9.856.405 20.145-1.565 30.942-6.356l2.976-1.32 1.122 3.076c13.918 38.165 14.955 66.458 3.973 89.922-10.939 23.371-33.68 41.592-67.395 59.762l-1.444.779zm-61.874-62.342c10.142 21.669 31.532 38.887 63.321 56.185 31.788-17.298 53.177-34.515 63.319-56.185 9.967-21.294 9.189-47.236-3.104-82.232-10.61 4.265-20.8 6.011-30.627 5.607-10.257-.421-20.093-3.185-29.587-7.874-9.495 4.688-19.335 7.452-29.59 7.874-9.829.404-20.015-1.343-30.625-5.608-12.295 34.997-13.074 60.939-3.107 82.233"></path><path d="M66.221 145.634H212.5v6.117H66.221zM67.785 134.817h143.358l.178 6.118H67.785zM67.835 156.613h143.05v6.116H67.835z"></path><path fill="#E8541C" fill-rule="evenodd" d="M139.199 168.39c-15.474 0-28.094 12.621-28.094 28.093 0 15.474 12.62 28.094 28.094 28.094 15.473 0 28.093-12.62 28.093-28.094 0-15.472-12.62-28.093-28.093-28.093" clip-rule="evenodd"></path><path d="M139.199 169.664c-7.385 0-14.09 3.013-18.949 7.871-4.858 4.858-7.871 11.563-7.871 18.947s3.013 14.091 7.871 18.949c4.858 4.857 11.563 7.87 18.949 7.87 7.384 0 14.09-3.013 18.949-7.87 4.856-4.858 7.87-11.564 7.87-18.949s-3.014-14.089-7.87-18.947c-4.858-4.858-11.565-7.871-18.949-7.871m-20.75 6.069c5.319-5.319 12.662-8.618 20.75-8.618s15.431 3.299 20.75 8.618c5.318 5.318 8.618 12.662 8.618 20.749 0 8.088-3.3 15.432-8.618 20.751-5.318 5.318-12.662 8.617-20.75 8.617s-15.431-3.299-20.75-8.617-8.617-12.663-8.617-20.751c0-8.086 3.298-15.43 8.617-20.749"></path><path d="M111.168 195.209h16.264v2.549h-16.264zm39.623 0h16.438v2.549h-16.438zM113.021 185.8h14.572v2.548h-14.572zm37.609 0h14.746v2.548H150.63zM117.854 177.101h42.689v2.548h-42.689zM113.021 204.971h14.411v2.548h-14.411zm37.609 0h14.746v2.548H150.63zM117.854 213.669h42.689v2.549h-42.689z" data-source="https://football-logos.cc"></path><path d="M126.164 222.459v-51.952h2.549v51.952zM149.184 222.459v-51.952h2.55v51.952zM134.042 215.088v-37.213h2.548v37.213zM141.597 215.249v-37.212h2.549v37.212z"></path><path fill="#E8541C" fill-rule="evenodd" d="m22.305 149.338-19.052 5.813c-1.319-36.032 4.009-67.515 19.052-92.353 8.826 13.832 17.113 23.735 28.739 34.551-10.684 17.384-12.998 39.45-9.042 62z" clip-rule="evenodd"></path><path d="m22.028 152.619-17.891 5.459-3.797 1.158-.146-3.979c-.667-18.226.353-35.336 3.45-51.067 3.117-15.836 8.335-30.253 16.044-42.982L22.238 57l2.647 4.149c4.342 6.805 8.549 12.64 13.093 18.096 4.579 5.499 9.469 10.59 15.145 15.87l1.834 1.707-1.308 2.128c-4.963 8.076-8.042 17.221-9.463 26.97-1.523 10.448-1.154 21.603.828 32.902l1.056 6.015-5.44-2.765zm-15.834-1.563 15.226-4.645 1.161-.354 1.097.558 14.416 7.326c-1.261-9.883-1.304-19.625.045-28.88 1.418-9.724 4.367-18.906 9.035-27.161-5.187-4.929-9.706-9.694-13.904-14.735-3.745-4.496-7.261-9.23-10.797-14.51-6.006 11.04-10.2 23.335-12.832 36.708-2.772 14.082-3.82 29.387-3.447 45.693"></path><path fill="#FFF" fill-rule="evenodd" d="M139.199 48.267c-33.476.108-72.44 21.205-93.645 43.916L15.201 59.892C60.42 14.301 101.337 3.181 139.199 3.059c37.862.122 78.779 11.242 123.998 56.833l-30.354 32.291c-21.204-22.712-60.169-43.808-93.644-43.916" clip-rule="evenodd"></path><path d="M139.199 51.325c-15.453.049-32.157 4.726-47.665 11.999-17.191 8.063-32.87 19.288-43.747 30.937l-2.226 2.385-2.23-2.372-30.352-32.292-2.018-2.146 2.077-2.095C35.955 34.637 57.83 20.245 78.8 11.605 99.848 2.933 119.923.062 139.199 0c19.275.062 39.351 2.933 60.399 11.605 20.97 8.64 42.845 23.031 65.761 46.136l2.078 2.095-2.018 2.146-30.354 32.291-2.23 2.372-2.226-2.385c-10.876-11.649-26.556-22.875-43.746-30.937-15.507-7.272-32.212-11.948-47.664-11.998m-50.245 6.479c16.279-7.634 33.879-12.543 50.245-12.596 16.365.053 33.965 4.962 50.245 12.596 16.748 7.855 32.145 18.62 43.374 29.952l26.129-27.797c-21.536-21.268-42.043-34.628-61.666-42.715-20.18-8.315-39.497-11.067-58.082-11.126-18.584.059-37.902 2.811-58.082 11.126C61.494 25.33 40.989 38.69 19.452 59.959l26.129 27.798c11.23-11.331 26.625-22.098 43.373-29.953"></path><path fill="#070E0C" fill-rule="evenodd" d="m32.787 60.046 6.49-5.844 2.697 2.998-2.599 2.337 2.557 2.841 2.429-2.192 2.565 2.851-2.433 2.187 2.964 3.292 2.859-2.575 2.697 2.999-6.749 6.074zM49.567 46.166l14.518 14.279-4.282 3.229-2.387-2.731-1.504 1.129 1.933 3.079-4.333 3.262-9.994-17.69zm5.581 12.011q-2.376-2.492-5.721-6.265 2.836 5.09 4.29 7.344zM67.557 41.871l-4.167 2.506-.772-1.279q-.535-.898-.846-1.044-.305-.152-.679.072c-.272.166-.408.395-.417.701q-.006.458.395 1.125.522.866 1.02 1.164.484.3 1.902.293 4.065-.02 5.53.654 1.467.669 2.99 3.211c.739 1.228 1.143 2.222 1.202 2.978q.094 1.134-.786 2.472c-.59.887-1.432 1.665-2.527 2.323-1.202.722-2.361 1.108-3.487 1.164q-1.682.081-2.714-.734-1.025-.82-2.196-2.761l-.675-1.129 4.167-2.506 1.266 2.103q.581.969.926 1.142.337.172.79-.098.447-.273.454-.756c.004-.318-.132-.713-.408-1.176q-.918-1.524-1.618-1.742-.708-.216-3.042-.306-2.344-.102-3.186-.28-.845-.171-1.737-.845-.887-.668-1.716-2.043c-.794-1.325-1.207-2.391-1.236-3.207q-.045-1.224.777-2.417.816-1.199 2.417-2.162 1.753-1.051 3.321-1.223 1.572-.177 2.489.442.918.618 2.153 2.676zM77.477 29.847l1.767 3.623-2.794 1.363 7.063 14.48-4.711 2.298-7.063-14.484-2.781 1.359-1.768-3.623zM97.55 28.79l-4.625 1.503-.463-1.418q-.324-.995-.59-1.206-.263-.216-.679-.081a.8.8 0 0 0-.561.586c-.072.293-.03.692.132 1.189q.311.959.73 1.355c.267.272.866.51 1.788.714 2.642.599 4.392 1.227 5.241 1.881q1.275.986 2.188 3.802.668 2.045.501 3.172c-.11.752-.548 1.491-1.321 2.226-.773.739-1.767 1.3-2.981 1.695q-2 .651-3.662.353-1.655-.3-2.476-1.325-.815-1.03-1.516-3.181l-.408-1.257 4.625-1.5.756 2.328q.35 1.078.646 1.321c.195.166.459.191.79.085q.496-.163.616-.632c.076-.311.029-.727-.136-1.236q-.548-1.695-1.181-2.064-.642-.363-2.896-.981c-1.504-.417-2.515-.748-3.042-.986-.522-.242-1.019-.646-1.5-1.214-.476-.569-.879-1.359-1.21-2.379q-.714-2.198-.484-3.402.235-1.198 1.3-2.179 1.07-.98 2.841-1.559c1.295-.42 2.463-.569 3.513-.445 1.045.123 1.822.45 2.323.99q.75.81 1.495 3.092zM110.27 19.199l.841 3.942-3.046.645 3.352 15.762-5.123 1.088-3.351-15.758-3.028.641-.841-3.941zM118.024 17.887l3.151 19.894-5.173.82-3.151-19.894zM122.661 17.063l3.704-.195q3.703-.19 5.029.025 1.326.218 2.213 1.346c.595.756.934 1.988 1.023 3.704.081 1.567-.055 2.629-.42 3.186-.361.561-1.108.921-2.247 1.092q1.574.301 2.141.922.572.617.73 1.151.158.535.285 2.969l.28 5.305-4.858.255-.353-6.685q-.083-1.612-.357-1.988c-.187-.247-.637-.353-1.359-.314l.476 9.072-5.229.272zm5.415 3.168.233 4.472q.879-.045 1.224-.306.34-.261.272-1.593l-.06-1.104q-.051-.956-.408-1.236c-.237-.186-.658-.267-1.261-.233M143.39 16.443l-.284 16.105 3.186.056-.073 4.03-8.418-.148.352-20.137zM154.224 17.071l-1.406 20.09-5.224-.365L149 16.706zM170.298 19.611l-3.495 19.835-4.523-.798-1.092-9.489-1.589 9.017-4.314-.76 3.5-19.835 4.31.76 1.317 9.442 1.575-8.932zM184.224 31.402l-5.033-1.44.501-1.758q.479-1.664.455-2.124-.026-.46-.561-.611-.466-.133-.739.174-.27.312-.692 1.796l-2.668 9.289q-.371 1.305-.322 1.763c.034.31.217.509.553.607q.547.159.879-.255c.221-.271.463-.858.718-1.758l.658-2.297-1.016-.289.846-2.943 5.896 1.69-2.981 10.393-3.169-.909-.068-1.52c-.514.497-1.074.824-1.682.972s-1.27.123-1.979-.081a4.97 4.97 0 0 1-2.195-1.299c-.62-.621-1.032-1.292-1.244-2.005a5.05 5.05 0 0 1-.171-2.111q.146-1.044.718-3.036l1.648-5.756c.531-1.847 1.015-3.164 1.457-3.941q.656-1.173 2.374-1.81c1.143-.429 2.468-.425 3.968.004 1.474.42 2.606 1.074 3.406 1.962q1.201 1.324 1.282 2.701.088 1.377-.595 3.754zM198.426 35.356l-4.541-1.746.535-1.393q.377-.976.302-1.308c-.047-.221-.204-.387-.476-.488a.79.79 0 0 0-.808.102q-.363.275-.646 1.007c-.242.625-.335 1.129-.288 1.512.042.382.356.938.942 1.682q2.518 3.19 2.889 4.757.37 1.567-.692 4.332-.772 2.009-1.605 2.782c-.833.773-1.368.811-2.431.896-1.061.085-2.191-.098-3.38-.556-1.309-.501-2.332-1.181-3.066-2.03q-1.104-1.274-1.092-2.591.014-1.313.824-3.428l.471-1.231 4.541 1.746-.879 2.285c-.268.705-.379 1.185-.327 1.432.051.25.238.441.561.564q.489.186.875-.106c.254-.191.479-.543.676-1.045q.637-1.662.378-2.345-.269-.687-1.632-2.586c-.904-1.27-1.486-2.167-1.741-2.68s-.392-1.142-.403-1.886q-.018-1.115.557-2.612.829-2.159 1.767-2.948.931-.784 2.378-.875c1.447-.091 2.03.131 3.19.578 1.27.488 2.271 1.108 3.011 1.86q1.103 1.133 1.182 2.234.075 1.102-.786 3.343zM215.384 37.463l-9.144 17.945-4.664-2.379 3.84-7.534-1.398-.714-3.84 7.534-4.667-2.374 9.145-17.944 4.663 2.378-3.271 6.417 1.398.71 3.27-6.418zM223.304 42.594 212.63 59.677l-4.438-2.778 10.669-17.079zM226.692 44.968l2.961 2.23c1.971 1.487 3.253 2.57 3.835 3.249q.878 1.021.828 2.455-.044 1.439-1.597 3.496-1.416 1.876-2.366 2.17-.954.293-2.426-.612c.676.833 1.024 1.525 1.05 2.086q.04.835-.184 1.346-.22.516-1.689 2.459l-3.194 4.243-3.887-2.926 4.026-5.348c.65-.857.986-1.444 1.003-1.75q.03-.463-.837-1.117l-5.466 7.254-4.18-3.151zm2.106 5.904-2.697 3.577c.472.352.85.539 1.139.552q.428.02 1.228-1.045l.667-.883q.58-.765.484-1.21c-.065-.299-.336-.626-.821-.991M238.502 54.333l6.694 5.611-2.591 3.088-2.68-2.247-2.455 2.926 2.506 2.103-2.463 2.935-2.506-2.103-2.845 3.394 2.942 2.472-2.591 3.083-6.957-5.835zM125.469 59.894h9.537v4.333h-3.903v4.104h3.474v4.123h-3.474v9.094h-5.634zM138.353 77.133v4.415h-4.082v-4.415zM153.117 69.335h-5.63v-3.771q-.001-1.644-.183-2.054-.177-.406-.794-.407c-.466 0-.758.165-.885.494q-.187.498-.188 2.141v10.058q0 1.58.188 2.059c.127.324.405.484.844.484q.63.001.821-.484c.128-.32.196-1.073.196-2.26v-2.712h5.63v.84q-.001 3.357-.476 4.762c-.314.936-1.018 1.758-2.1 2.461-1.081.703-2.419 1.059-4.004 1.059q-2.48-.001-4.081-.899c-1.068-.598-1.78-1.424-2.127-2.479q-.52-1.588-.521-4.771v-6.323q.001-2.341.16-3.511c.109-.781.425-1.534.959-2.255q.793-1.083 2.205-1.708c.94-.411 2.022-.621 3.241-.621 1.662 0 3.031.325 4.109.964q1.614.964 2.127 2.401.507 1.44.507 4.474v2.058zM158.573 77.133v4.415h-4.082v-4.415z" clip-rule="evenodd"></path><path fill="#E8541C" fill-rule="evenodd" d="M79.266 274.554v-22.469h14.086v3.804H83.087v4.979h9.538v3.782h-9.538v6.117h10.61v3.787zM95.971 267.246l3.74-.435q.63 4.31 4.138 4.311 1.731.001 2.727-.884.999-.879.997-2.182.001-.77-.345-1.303-.348-.54-1.062-.884c-.474-.23-1.617-.612-3.438-1.156-1.633-.481-2.829-.999-3.583-1.564q-1.14-.84-1.811-2.213a6.6 6.6 0 0 1-.668-2.95q0-1.837.857-3.312a5.63 5.63 0 0 1 2.376-2.224c1.013-.497 2.258-.748 3.745-.748q3.346-.001 5.222 1.764c1.255 1.171 1.918 2.855 1.988 5.043l-3.831.198q-.256-1.811-1.094-2.532c-.555-.476-1.353-.716-2.381-.716-1.03 0-1.827.209-2.382.627-.561.419-.84.937-.84 1.564q0 .917.76 1.544c.506.424 1.67.878 3.486 1.381q2.892.816 4.176 1.71a5.9 5.9 0 0 1 1.966 2.313q.68 1.42.679 3.442-.002 2.926-1.854 4.917-1.86 1.994-5.804 1.994c-4.65.001-7.241-2.568-7.764-7.705M118.888 274.554v-18.665h-5.637v-3.804h15.078v3.804h-5.621v18.665zM130.796 274.554v-4.305h3.643v4.305zM154.063 274.554h-3.632V258.32q-2.036 2.23-4.703 3.266v-3.908q1.51-.596 3.141-2.135c1.084-1.03 1.833-2.213 2.258-3.552h2.937v22.563zM162.631 262.434c-.895-.45-1.568-1.067-2.021-1.842s-.679-1.711-.679-2.805q.001-2.653 1.546-4.222c1.034-1.046 2.42-1.574 4.171-1.574q2.773 0 4.23 1.679 1.447 1.679 1.449 4.086.001 1.639-.701 2.846a4.7 4.7 0 0 1-1.918 1.832c1.083.507 1.896 1.224 2.43 2.149q.81 1.389.809 3.411c0 1.392-.269 2.615-.797 3.678-.533 1.062-1.267 1.878-2.204 2.438q-1.406.842-3.158.843-2.75 0-4.536-1.848-1.794-1.844-1.795-4.975 0-2.019.824-3.479a5.4 5.4 0 0 1 2.35-2.217m.744-4.337q-.001 1.31.637 2.02c.425.47.97.706 1.621.706q.993 0 1.639-.706.646-.709.646-2.02.001-1.28-.636-1.978-.638-.707-1.606-.706c-.673 0-1.223.234-1.654.711-.432.476-.647 1.13-.647 1.973m-.334 9.62q0 1.813.792 2.794c.523.653 1.159.978 1.892.978q1.109-.001 1.854-.937.753-.935.754-2.804c0-1.072-.258-1.92-.765-2.542q-.768-.936-1.892-.937-1.1 0-1.869.941c-.508.629-.766 1.466-.766 2.507M177.374 262.434c-.894-.45-1.567-1.067-2.02-1.842q-.68-1.163-.68-2.805.002-2.653 1.547-4.222c1.034-1.046 2.419-1.574 4.171-1.574q2.774 0 4.229 1.679 1.447 1.679 1.449 4.086.002 1.639-.7 2.846a4.7 4.7 0 0 1-1.918 1.832c1.083.507 1.896 1.224 2.43 2.149q.809 1.389.809 3.411c0 1.392-.27 2.615-.798 3.678-.533 1.062-1.267 1.878-2.203 2.438q-1.406.842-3.158.843-2.75 0-4.537-1.848-1.794-1.844-1.794-4.975 0-2.019.824-3.479a5.4 5.4 0 0 1 2.349-2.217m.744-4.337q-.001 1.31.636 2.02c.426.47.97.706 1.622.706q.993 0 1.638-.706.647-.709.646-2.02c0-.854-.209-1.513-.636-1.978q-.637-.707-1.605-.706c-.673 0-1.223.234-1.654.711-.432.476-.647 1.13-.647 1.973m-.334 9.62q0 1.813.792 2.794c.522.653 1.158.978 1.892.978q1.108-.001 1.854-.937.753-.935.754-2.804c0-1.072-.258-1.92-.765-2.542q-.768-.936-1.892-.937-1.1 0-1.869.941-.764.945-.766 2.507M198.292 274.554h-3.632V258.32q-2.038 2.23-4.704 3.266v-3.908q1.51-.596 3.142-2.135c1.083-1.03 1.832-2.213 2.258-3.552h2.937v22.563z" clip-rule="evenodd" data-source="https://football-logos.cc"></path><!-- source: https://football-logos.cc --></svg>