<svg xmlns="http://www.w3.org/2000/svg" fill="none" viewBox="2.04 0.02 37.51 46.39"><!-- Source: https://football-logos.cc --><g clip-path="url(#a)" data-source="https://football-logos.cc"><path fill="#D62F32" d="M10.261 5.166c3.63-.568 7.752-2.735 10.51-5.112.048-.068.037-.027.08.003C24.2 2.899 28.616 5.116 33.053 5.2a19.5 19.5 0 0 0 6.442-.962c.03.234.016.47.02.704.004 4.886.004 9.771.017 14.657.005 1.194.016 2.388.006 3.581-.008.677.008 1.354-.03 2.03-.184 2.646-1.206 5.171-2.569 7.44-1.137 1.893-2.527 3.635-4.058 5.238a38.4 38.4 0 0 1-5.195 4.515c-2.177 1.574-4.518 2.944-7.013 3.98-.098.058-.196-.017-.286-.052-4.151-1.885-7.894-4.576-11.116-7.744-.28-.319-.599-.603-.88-.922-1.265-1.354-2.426-2.805-3.422-4.36-.987-1.555-1.82-3.215-2.351-4.974-.313-1.051-.525-2.137-.57-3.233a2420 2420 0 0 1 .006-16.56c.007-1.397-.001-3.107-.019-4.504 2.845.942 5.263 1.585 8.226 1.132"></path><path fill="#FDFEFE" d="M20.806 1.513c3.896 4.147 8.95 5.647 17.363 4.238.051 2.223-.02 4.17-.014 6.394.002 4.053.038 8.106.006 12.159.006.462-.07.92-.137 1.376-.433 2.844-1.606 5.543-3.227 7.904-1.229 1.8-2.697 3.427-4.294 4.905-2.965 2.738-6.398 4.576-9.934 6.496-2.203-1.278-4.321-2.256-6.35-3.8-1.43-1.09-2.804-2.26-4.066-3.542a27 27 0 0 1-3.54-4.308c-1.565-2.37-2.667-5.069-3.052-7.892-.144-.902-.089-1.818-.104-2.728.013-.468-.03-.935-.002-1.402q.003-2.67.002-5.337c.002-3.498-.008-6.85-.021-10.348 7.125 1.947 12.666.41 17.37-4.115"></path><path fill="#E7F0E7" d="M10.04 22.201c1.858 0 3.365-2.08 3.365-4.648s-1.507-4.65-3.365-4.65-3.365 2.082-3.365 4.65c0 2.567 1.506 4.648 3.365 4.648" opacity=".693"></path><path fill="#282F6D" d="M22.5 6.096c.625-.09.76.093.962.2.167.087.346.241.459.32.23.16.238.184.761.354.646.115.619.035 1.12.05.49-.025.4 0 .736-.069.432-.145.699-.27 1.015-.691.022.266-.14.658-.14.658-.134.217-.26.226-.343.375-.093.147.032.296.178.39.243.127.377.2.553.285.216.058.379.014.56-.044.343-.095.56.011.84.04l-.26.136c-.278.124-.447.381-.74.47-.122.058-.25.121-.391.104-.156.002-.26-.131-.377-.214-.173-.125-.312-.297-.504-.395-.456-.146-1.003-.035-1.426-.293-.34-.22-.7-.397-1.104-.445-.79-.146-1.597.03-2.355.256-.22.06-.39.093-.577.234-.06.127-.014.238.038.345.086.134.125.345-.01.462-.247.213-.58.274-.879.381-.37.134-.752.228-1.121.363-.331.117-.698.198-.996.352-.189.15-.088.414.004.59.13-.002.266-.003.388-.056.339-.14.682-.27 1.038-.359.357-.093.743.033 1.028.253.287.342.262.817.23 1.235-.026.18-.112.362-.273.459-.214.139-.448.258-.702.3-.175.025-.354.03-.529.062.015.129.03.258.06.384.294-.139.588-.275.89-.394.418-.195.85-.365 1.303-.454.302-.083.616-.052.925-.055.304-.006.611.026.87.226.15.064.261.211.258.378.031.243-.147.434-.296.6-.194.208-.46.318-.705.45-.268.188-.588.275-.882.413-.389.187-.817.266-1.216.425-.374.119-.743.249-1.115.371-.293.15-.567.28-.858.466a3.7 3.7 0 0 0-.593.445c-.437.325-.696.818-.983 1.267-.138.268-.284.532-.414.804-.285.72-.521 1.464-.606 2.235l.344.001c.13.16.147.4.058.581-.168.196-.409.308-.634.426-.351.167-.695.362-1.072.466-.32.08-.619.22-.935.31-.477.194-.98.359-1.392.68-.222.23-.146.59-.287.862-.076.19-.258.304-.448.36.003.192.045.382.06.573-.088.1-.218.188-.238.33.01.136.08.326.25.31.121.03.213-.042.271-.141-.087-.179-.037-.369.046-.537q.118 0 .237.002c.06.116.103.245.192.344.11.078.257.036.383.05.086-.23.039-.48.06-.719.206-.037.4.038.595.09.19.017.197-.225.211-.359-.001-.32.012-.683.259-.922.254-.216.582-.349.918-.353.406-.065.817-.106 1.214-.215.383-.094.781-.19 1.096-.441.224-.185.468-.41.779-.4a.34.34 0 0 1 .354.306c.026.2-.113.37-.244.506-.181.172-.375.341-.608.44-.151.066-.305.127-.456.192.002.146.005.294.049.435.113.366.228.73.36 1.09.325 1.11.961 2.063 1.274 3.054.358.675.628.997.57 2.212.11.552.042 1.077-.017 1.64-.038.287-.03.553-.053.83.427.033.86-.014 1.283.065.128.018.191.143.25.243.295.561.54 1.146.835 1.708.19.057.389.067.586.061.118.007.25-.016.354.053.04.094.035.198.055.297l.006.04c-.146.07-.31.04-.464.045-.32-.008-.642.018-.961-.021a1.4 1.4 0 0 1-.452-.263c-.316-.49-.546-1.03-.763-1.57-.061-.152-.187-.317-.37-.305-.271-.01-.544.005-.81-.053-.015-.377-.002-.755.02-1.131-.004-.408-.05-.675-.082-1.012-.04-.444-.2-.865-.367-1.274-.907-2.062-1.858-3.401-2.44-5.826-.028-.136-.141-.231-.248-.309-.264-.076-.553-.103-.817-.007-.244.043-.468.242-.49.496-.03.192-.04.387-.054.58-.012.24.07.502-.059.722-.128.156-.363.166-.54.094-.06-.013-.145-.08-.185 0-.138.218-.352.406-.613.451a1.4 1.4 0 0 1-.599-.029c-.173.105-.347.249-.562.238-.243.018-.528-.106-.601-.354-.029-.402.045-.788-.008-1.19-.194.077-.295.075-.497.125-.803.205-1.622.186-2.556-.374-2.287-1.49-2.869-3.69-2.878-5.988.062-2.78 1.363-4.159 2.794-5.121.528-.286.637-.311.993-.393.1-.037.2-.02.244-.104-.028-.046.028.045 0 0 .143-.33.48-.506.8-.622.213-.041.443 0 .642-.103.145-.08.368-.068.453.092a.37.37 0 0 0 .219.178c.2-.082.45-.113.63.034.256.222.616.15.926.211.552.103 1.066.344 1.575.572.86.6 1.675 1.15 2.48 1.815.25.177.47.348.68.522.104.1.293.277.293.277.248-.155.357-.312.653-.509.296-.193.454-.277.763-.439.315-.153.431-.207.771-.353.425-.16.574-.204.91-.276.77-.17 1.117-.115 2.031-.385.1-.046.273-.134.237-.357-.035-.235-.316-.325-.908-.28-.576.084-1.386.326-2.044.63-.278.11-.548.239-.801.397-.224.188-.269.26-.378.283 0 0-.064.018-.131-.159l-.102-.227-.158-.383c-.072-.237-.197-.499-.06-.655.142-.152.953-.054 1.444-.193.201-.072.398-.225.437-.448.048-.243-.461-.212-.935.024-.523.295-1.43.623-1.668.71-.378.125-1.063.099-1.546-.148-.3-.17-.59-.31-.911-.49-.23-.104-.327-.222-.295-.306.016-.106.15-.003.332.046.214.06.263.081.51.14.225.05.318.084.49.106.488.05.628.065.96.002.303-.056.845-.468 1.436-.726.374-.098.636-.002.95.043a1 1 0 0 0 .491-.062s.095-.023.065-.108c-.038-.102-.084-.227-.205-.25-.471-.11-.932.093-1.38.216-.236.057-.414.245-.651.3-.15.03-.349.003-.404-.163-.124-.292-.326-.588-.248-.92a.54.54 0 0 1 .349-.343c.284-.137.516-.199.787-.299.41-.141.624-.21.866-.293.266-.094.35-.107.603-.233.473-.212.41-.355.359-.527-.042-.143-.042-.254.127-.367.581-.277.717-.329 1.32-.551.298-.098.452-.1.526-.279.122-.237.046-.378-.135-.55z"></path><path fill="url(#b)" d="M22.045 7.583c.758-.226 1.564-.402 2.355-.256.404.048.788.21 1.128.43.422.257.945.162 1.401.308.192.098.332.27.505.395.116.083.22.216.376.214.14.017.27-.046.392-.104.067.017.095.09.107.153 0 0 .02.164.12.15-.164.035-.341.125-.4.292-.026.153-.028.316.017.466.071.142.192.25.285.377.296.407.454.893.566 1.38.062.232.054.474.042.713-.027.44.183.842.348 1.237-.04.1-.067.204-.101.306-.157-.062-.333-.101-.5-.056a.5.5 0 0 0-.277.304c-.095.261.027.537-.027.803-.058.352-.261.658-.328 1.007-.099.502-.346.962-.405 1.472-.03.347-.055.696-.04 1.044-.026 0-.077.066-.103.065.011-.2 0-.43-.162-.572-.16-.13-.397-.213-.592-.109-.164.072-.197.27-.213.429-.023.361.036.726-.023 1.087-.053.412-.204.803-.327 1.198l-.004.014c-.18.051-.221.277-.4.315a.4.4 0 0 0-.186-.326c-.127-.109-.303-.076-.457-.08-.248.226-.25.584-.237.895.008.3.113.585.208.868l.074.134c-.017-.003-.125-.063-.141-.066-.113-.027-.261-.079-.338.044-.192.312-.239.683-.276 1.04-.051.83.212 1.644.23 2.399.02.607.306 1.017.379 1.616.335.566.502 1.305.524 2.452.077.607.192 1.235.025 1.838-.045.181-.17.388-.018.552.176.005.335.1.51.1.21.006.421-.02.63.012.163.034.237.202.295.34.167.437.358.864.588 1.27.025.068.11.167 0 .204.058.012.118.024.17.054q-.257.006-.514.001l.004-.029.065-.033-.105.008c-.276-.166-.613-.062-.918-.09-.056-.064-.115-.126-.153-.202-.234-.494-.465-.99-.709-1.48-.084-.14-.17-.346-.361-.344-.339-.011-.677.003-1.016-.002-.217.004-.442-.027-.65.051l.013.185c.31.111.645.008.96.077.2.113.254.355.338.552.167.443.408.852.606 1.28-.143.007-.268-.059-.396-.109-.246-.022-.494-.003-.74-.005-.182-.167-.247-.412-.357-.624-.183-.366-.346-.74-.531-1.105-.08-.13-.17-.31-.35-.3a59 59 0 0 0-1.607.004c-.03.088-.084.201.033.248.28.087.587-.008.874.054.168.077.233.265.3.423.155.416.357.813.56 1.208.045.084.097.167.161.24-.122-.004-.245-.004-.367-.018-.008.07-.003.145-.025.215-.02-.1-.015-.204-.054-.298-.104-.07-.236-.047-.354-.053a1.8 1.8 0 0 1-.587-.061c-.294-.562-.54-1.147-.835-1.708-.058-.1-.121-.226-.25-.243-.422-.08-.855-.032-1.282-.065.023-.277.01-.543.053-.83.222-1.83-.332-3.218-.931-4.73-.297-.726-.669-1.405-.896-2.176a21 21 0 0 1-.36-1.09 1.5 1.5 0 0 1-.05-.435c.152-.066.305-.127.457-.192.232-.099.426-.268.608-.44.13-.135.27-.305.243-.506a.34.34 0 0 0-.354-.306c-.31-.01-.554.215-.778.4-.315.251-.714.347-1.097.441-.397.109-.808.15-1.213.215a1.47 1.47 0 0 0-.919.353c-.247.24-.26.602-.258.922-.014.134-.021.376-.211.36-.195-.053-.39-.128-.595-.09-.022.239.025.487-.06.718-.127-.014-.274.028-.384-.05-.089-.099-.132-.228-.191-.344l-.238-.002c-.082.168-.132.358-.045.537-.059.1-.15.172-.272.142-.169.015-.24-.175-.25-.312.02-.141.15-.229.239-.329-.015-.191-.057-.38-.06-.573.19-.056.372-.17.447-.36.142-.272.065-.632.288-.863.411-.32.914-.485 1.391-.68.317-.09.616-.23.935-.31.378-.103.721-.298 1.073-.465.224-.118.466-.23.634-.426a.56.56 0 0 0-.058-.58l-.345-.002c.085-.77.322-1.516.606-2.235.13-.272.276-.536.415-.804.287-.45.545-.941.982-1.267.185-.165.378-.32.593-.445.31-.225.442-.3.859-.466.372-.122.74-.252 1.114-.371.4-.16.828-.238 1.216-.425.294-.138.547-.253.882-.413.246-.132.511-.242.705-.45.15-.166.328-.357.297-.6-.06-.167-.095-.247-.258-.378-.217-.123-.257-.195-.87-.226-.31.003-.624-.028-.925.055-.454.089-.886.26-1.304.454-.302.12-.596.255-.89.394-.03-.126-.044-.255-.06-.384.175-.033.354-.037.53-.063.254-.04.488-.16.702-.3.16-.096.247-.278.272-.458.033-.418.058-.893-.23-1.235-.285-.22-.67-.346-1.028-.253-.355.09-.7.22-1.037.359-.123.053-.313.102-.389.057-.092-.177-.192-.441-.004-.591.292-.209.666-.235.996-.352.37-.135.752-.229 1.122-.363.3-.107.631-.168.88-.381.133-.117.094-.328.008-.462-.052-.107-.097-.218-.037-.345.187-.141.357-.174.577-.234"></path><path fill="#282F6D" d="M22.407 8.12c.229.173.451.373.722.468.17.066.4.114.563.254-.203.178-.583.146-.826.23-.186.064-.38.124-.57.09.169-.411.194-.379.195-.607.01-.146-.067-.23-.084-.436M24.884 8.043c.07-.08.192-.072.287-.053.23.09.275.2.706.288.29.071.41.116.533.184.069.054.08.048.161.137-.215.074-.516.02-.714.007-.204.004-.443.002-.611.067-.086.029-.163.107-.295.18-.224.065-.29.031-.346-.12-.07-.263.093-.517.28-.69M26.743 9.359a.62.62 0 0 1 .289-.506c.289-.14.447.003.591.18.257.335.331.762.475 1.15.285.8.316 1.664.606 2.462.082.21.223.41.201.646-.182-.003-.285-.174-.384-.302-.113-.184-.151-.4-.235-.595-.233-.568-.22-1.21-.49-1.765-.183-.358-.603-.447-.875-.713-.171-.13-.176-.363-.178-.557M28.428 8.874c.15-.038.286.07.4.153.236.18.354.463.482.722.14.3.116.637.144.96.018.576-.015 1.152-.012 1.73-.002.37.117.724.24 1.07.058.153.165.3.128.473a.6.6 0 0 1-.233-.163c-.133-.202-.184-.265-.29-.481-.165-.395-.376-.797-.35-1.237.013-.239.021-.48-.041-.714-.112-.486-.27-.972-.566-1.379-.093-.127-.214-.235-.285-.377a1.04 1.04 0 0 1-.016-.466c.058-.167.235-.257.4-.291M25.5 9.202l.021.001c.2.051.506-.097.765-.117.174.01.218.323.197.516-.057.487-.317.913-.572 1.32-.11.167-.114.175-.233.274-.163.133-.195.151-.54.243.088-.156.26-.336.322-.44.237-.331.281-.659.146-1.06-.04-.181-.116-.364-.166-.532-.02-.056-.13-.224.06-.205M26.454 11.056c.076-.161.165-.28.37-.303.242 0 .309.056.457.16.074.056.173.17.194.252.032.144.07.184.019.363-.101.174-.087.772.015 1.149.076.362.075.563.09.932-.01.16-.018.324.012.644.01.158.11.347.13.515-.09-.054-.307-.068-.562-.84a1.3 1.3 0 0 1-.104-.441c-.017-.48.015-.775-.099-1.245-.082-.34-.342-.59-.505-.888-.06-.095-.038-.207-.017-.298"></path><path fill="#D52E31" d="M10.316 12.165a.47.47 0 0 1 .314-.14c.056.07.04.198.176.202.207.018.413-.01.613-.06.066.102.134.223.265.248.193.052.357.17.494.313.171.178.367.335.504.542q.38.493.75.994c.61 1.098.598 1.374.72 2.095.089.613.136 1.113.134 1.562-.044.868-.087 1.57-.51 2.642-.025.069-.093.275-.136.3l-.905.519c.71-1.263.917-2.02.96-3.648 0 0 .012-.143-.126-.155l-7.068.059s-.118.024-.114.149c.217 2.825 1.558 4.71 3.716 5.025.546 0 .699-.012 1.014-.128.442-.198.625-.385.858-.518-.475.597-.314.755-1.279 1.075-.17.036-.817.06-1.005.018-2.1-.459-3.82-2.475-3.851-5.955.016-2.204 1.271-4.139 2.72-4.881.382-.269.364-.036.803-.187.099.06.178.171.303.174a.9.9 0 0 0 .65-.245M12.73 12.48c.243-.033.49-.1.736-.037.298.07.591.16.881.258.52.24.951.626 1.408.963.36.284.742.543 1.115.811.278.197.527.397.742.671-.482.439-.723.94-.937 1.55l-.097-.003a8.7 8.7 0 0 0-1.795-1.803c-.295-.254-.537-.564-.844-.805a3.2 3.2 0 0 1-.454-.596c-.194-.324-.471-.586-.73-.859-.035-.04-.019-.1-.025-.15"></path><path fill="#282F6D" d="M10.264 12.823c-.005-.096.029-.129.153-.122 2.095.178 3.105 2.268 3.238 4.124.01.152-.054.199-.118.207-.923.005-1.737.001-2.66-.016l-.442-.007c-.152-.033-.166-.162-.166-.162l-.002-.997c0-1.05-.011-1.976-.003-3.027"></path><path fill="#FDFEFE" d="M10.698 13.224c.001-.09.1-.075.14-.063.997.255 2.034 1.297 2.394 3.311.045.18-.054.184-.2.181-.496-.014-.94-.006-1.318-.008-.43-.003-.676.005-.907.004-.11.02-.096-.084-.096-.12-.001-1.192-.02-2.258-.013-3.271z"></path><path fill="#282F6D" d="M28.409 13.892a.5.5 0 0 1 .277-.304c.167-.045.343-.006.5.056.161.074.234.253.227.422.023.275-.075.54-.204.776-.226.449-.319.577-.56 1.018-.13.188-.315.639-.384.812-.058.141-.098.288-.15.432-.15.4-.143.832-.185 1.251-.01.047-.037.179-.063.22-.16-.111-.19-.245-.258-.356a8 8 0 0 1 .04-1.045c.059-.51.306-.97.405-1.471.067-.35.27-.656.328-1.008.054-.265-.068-.542.027-.803M26.868 14.62c.202-.137.495.083.453.314a19 19 0 0 1-.2 1.297c-.038.142-.067.31-.19.404-.049.047-.107-.036-.104-.082.002-.252-.04-.5-.044-.753.009-.342-.11-.681-.045-1.024a.23.23 0 0 1 .13-.157"></path><path fill="#FDFEFE" d="M14.393 15.511c.169.168.35.37.533.524.507.452.914 1 1.372 1.499.063.115-.057.209-.087.32-.104.233-.12.49-.178.735-.089.397-.086.806-.133 1.209-.01.072-.018.166-.096.2-.271.15-.585.201-.854.357-.251.122-.609.261-.844.413.623-1.718.76-2.903.486-4.485-.114-.472-.143-.556-.2-.772"></path><path fill="#282F6D" d="M25.768 15.786c.028-.182.23-.39.454-.23.095.083.103.107.118.18.063.274.005.556-.018.831l-.145.194c.02.09.063.18.045.275-.059.3-.148.592-.232.886-.04.146-.127.318-.304.312-.053-.16.022-.317.04-.476-.022-.245-.084-.484-.143-.72a.255.255 0 0 1 .117-.307c.102-.063.227-.053.342-.063.018-.229-.204-.342-.24-.589a1 1 0 0 1-.034-.293M20.99 16.193c.307-.163.647-.313 1.003-.28.345.052.673.218.894.491 0 .105.02.215-.015.317-.21.315-.558.516-.924.598-.27.011-.543.008-.81-.04a.9.9 0 0 0-.6.146c-.218.13-.44.256-.638.416-.338.287-.7.548-1.006.872-.332.343-.705.643-1.056.966-.143.118-.276.29-.479.29l-.062-.138c.217-.429.697-.635.964-1.026.116-.166.262-.307.397-.456l-.122.087c.124-.114.233-.245.308-.397l-.002.069c.117-.146.222-.304.363-.43.597-.493 1.09-1.119 1.785-1.485M31.14 17.077c.296-.015.422.017.735.07.296.089.313.08.556.121.159.031.314.016.479-.008.124-.019-.061.293-.148.406-.14.228-.39.469-.482.76-.129.367-.205.748-.312 1.121-.084.193-.199.392-.391.496a.75.75 0 0 1-.679.05c-.116-.068-.132-.27-.252-.332-.375.124-.675.608-.87.926-.276.376-.571 1.16-.657 1.859-.057.549-.042.878.092 1.471.126.585.177.73.267 1.212.094.606.298 1.967.297 2.555-.09 1.475-.45 2.3-1.125 3.272-.297.474-.666.82-.89 1.004l.046-.003c.029.12.063.241.12.352q.285.561.544 1.134c.049.11.117.209.192.302.248.008.496-.005.744.007.095-.004.153.083.22.136-.007.101-.001.264-.13.288-.363.01-.726.003-1.088.003-.247.005-.463-.13-.643-.288-.052-.03-.112-.042-.17-.054.11-.037.025-.136 0-.204a9.5 9.5 0 0 1-.588-1.27c-.059-.138-.133-.306-.295-.34-.209-.031-.42-.006-.63-.012-.175 0-.334-.095-.51-.1-.152-.164-.027-.37.018-.552.106-.501.052-1.231-.025-1.838-.149-1.412-.307-1.74-.524-2.452-.403-1.437-.738-2.722-.61-4.016.038-.356.085-.727.277-1.039.076-.123.224-.071.338-.043-.002.186-.054.367-.08.55-.042.78 0 1.586.311 2.31.14.316.248.579.394.956.15.38.23.55.305.867.058.198.15.488.245 1.003.096 1.13.078 1.737-.046 2.61-.056.601-.085.823-.233 1.412.08-.29.46-.517.647-.725.595-.776.811-1.073 1.216-2.02.12-.314.215-.964.238-2.106-.055-1.271-.227-2.661-.228-3.967.143-1.14.174-1.596.713-2.54.755-.957 1.344-1.326 1.611-1.601.25-.127.011-.897.218-1.323.206-.353.407-.362.783-.42M22.755 17.773c.092-.161.168-.357.34-.449.08-.01.164-.009.246-.009l.08.116c-.044.205-.253.284-.374.434-.057.05-.1.144-.189.134-.121.024-.152-.145-.103-.226"></path><path fill="#D52E31" d="M30.786 17.57c.226-.196.683-.102.97-.024.127.038.55.081.779-.01.043-.017-.179.136-.23.236-.097.145-.17.249-.236.388-.24.36-.183.827-.407 1.193-.11.149-.277.273-.47.272-.162-.007-.198-.226-.288-.346-.107-.068-.236-.035-.318.054-.173.165-.365.313-.508.505-.172.245-.39.454-.542.714-.469.759-.778 1.735-.755 2.569-.037.61.265 1.758.312 2.58.118 1.235.268 2.063.063 2.81-.441 1.667-1.106 2.484-2.009 3.272-.069 0-.66.032-.716.001.015-.073.07-.128.116-.183.236-.266.48-.527.67-.827.384-.538.657-1.078.914-1.687.187-.553.27-.978.29-1.426.02-.61-.077-1.35-.148-1.95-.058-.886-.189-1.726-.112-2.5.081-1.222.242-1.543.468-2.12.324-.702.987-1.305 1.422-1.755.23-.221.521-.401.64-.712.152-.272-.023-.575-.044-.811a.28.28 0 0 1 .139-.244"></path><path fill="#282F6D" d="M26.538 18.03c.016-.158.05-.356.213-.428.195-.104.432-.021.593.109.161.143.173.372.161.572-.027.263-.051.537-.173.776-.334.638-.767 1.243-.922 1.957-.12.38.022.613-.245 1.2-.077.12-.063.18-.207.286-.068-.274.02-.482.027-.6.033-.277.002-.56.06-.833.05-.246.058-.5.14-.74l.004-.013c.123-.395.273-.786.327-1.198.059-.36 0-.726.022-1.087"></path><path fill="#FDFEFE" d="M13.15 17.956c.147-.004.163.16.156.248-.263 2.264-1.456 4.111-3.18 4.133-1.636-.044-3.024-2.08-3.301-4.114-.028-.142-.051-.252.1-.252z"></path><path fill="#282F6D" d="M22.585 18.83c-.04-.342.358-.525.65-.465-.024.24-.248.396-.361.6-.105-.009-.293.021-.29-.135M25.015 18.734c-.015-.126.065-.23.136-.323.12-.09.227-.006.305.082.103.117.185.271.165.433-.017.248-.087.52-.171.72-.02.09-.054.126-.063.271-.104-.074-.086-.152-.104-.225-.01-.34-.222-.627-.268-.958M22.226 19.495l.028.021c.073-.057.168-.048.255-.054-.009.094.017.208-.058.283-.293.366-.684.64-1.086.875-.296.193-.61.367-.958.447-.21.059-.432.063-.641.123-.24.094-.444.314-.724.263-.12-.1-.263-.244-.18-.413.101-.257.398-.307.633-.375.257-.085.532-.067.793-.13.724-.162 1.419-.507 1.938-1.04M25.142 20.239c.218-.114.33-.029.456.08.111.073.185.191.187.326a.75.75 0 0 1-.076.315c-.13.264-.227.552-.234.849.032.181-.107.54-.21.715-.087.016-.014-.086-.048-.188-.039-.11-.064-.225-.105-.334-.094-.283-.199-.567-.207-.868-.013-.31-.012-.669.237-.895M12.718 32.054c-.142-.044-.13-.297.034-.287.416-.015.834.009 1.25-.015.118-.005.241-.011.356.028.125.051.19.18.266.282l.04-.003c.027.103.054.209.1.307.197.401.383.807.58 1.209.05.095.112.225.241.218.239.013.479 0 .718.003q.081.094.155.195c0 .092-.026.231-.14.238-.353.01-.706.002-1.06.003-.223.006-.43-.097-.603-.23a.9.9 0 0 1-.218-.287 10 10 0 0 1-.591-1.283c-.06-.143-.135-.317-.298-.363-.276-.03-.554-.002-.83-.015M14.878 31.77c.477-.018.956.003 1.433-.021.203-.02.356.135.44.303.249.5.487 1.007.725 1.514.04.072.073.158.148.202.295.106.651-.076.922.108.017.072.037.145.046.22l-.018.047c-.102.16-.325.067-.482.09-.38-.03-.803.084-1.146-.13a3 3 0 0 1-.165-.107.9.9 0 0 1-.176-.23 10 10 0 0 1-.61-1.307c-.06-.158-.145-.341-.322-.39-.268-.03-.538 0-.806-.014-.145-.028-.148-.281.011-.285M8.197 31.942c.042-.062.089-.138.176-.129.4-.012.8.01 1.2-.015.135-.003.276-.014.404.035.094.052.155.146.225.225q.14-.01.28-.008c-.005-.088-.007-.23.113-.232.413-.024.828.007 1.242-.018.133-.003.275-.02.402.035a.7.7 0 0 1 .214.225c.195.392.38.787.568 1.18.103.21.177.438.341.61.27-.003.539 0 .808-.001l.145.14c-.002.104 0 .271-.136.289-.358.007-.716.002-1.073 0-.252.007-.473-.133-.66-.285-.318-.482-.543-1.019-.758-1.553-.05-.119-.107-.257-.24-.304-.123-.039-.254-.027-.38-.027-.278.012-.552-.037-.83-.024.11.35.303.666.454 1 .136.255.212.548.414.764.244.002.489-.008.732.001.096-.004.154.085.223.137-.008.107-.002.274-.143.29-.381.005-.763.01-1.144-.003-.243-.004-.423-.177-.62-.29-.23-.456-.483-.903-.66-1.384-.073-.178-.132-.407-.337-.475-.214-.033-.432-.012-.648-.014-.136.02-.273-.026-.312-.169M17.044 31.82c.477-.026.957.005 1.436-.024.185-.022.346.1.432.255.208.403.394.816.591 1.224.101.202.167.434.354.578.254-.009.509-.004.763-.004l.158.143c.003.104-.001.276-.14.286-.35.008-.701 0-1.052.001-.245.007-.473-.115-.651-.276a.9.9 0 0 1-.168-.23c-.21-.407-.42-.815-.576-1.246-.066-.165-.144-.38-.346-.408-.295-.031-.596.024-.887-.05-.002-.086-.037-.23.086-.25M21.343 31.826q.804-.013 1.608-.004c.18-.01.27.17.35.3.185.364.348.74.53 1.105.11.212.175.457.357.624.247.002.495-.017.74.005.129.05.254.116.396.11-.198-.429-.438-.838-.605-1.28-.084-.198-.138-.44-.338-.553-.316-.069-.65.034-.96-.077l-.013-.185c.208-.078.432-.047.65-.05.338.004.677-.01 1.015.001.192-.002.277.205.362.344.243.49.475.986.709 1.48.038.076.096.138.153.202.304.029.641-.076.918.09l.104-.008-.065.033-.003.03c-.004.106-.012.29-.16.286q-.545.006-1.088-.002c-.217-.002-.407-.114-.572-.244-.082-.073-.2-.036-.297-.05.002.111-.01.3-.163.296q-.525.005-1.05 0c-.246.003-.468-.126-.649-.28a1.2 1.2 0 0 1-.161-.24 11 11 0 0 1-.56-1.208c-.068-.158-.133-.346-.3-.423-.288-.062-.595.033-.874-.053-.118-.048-.064-.16-.034-.25M28.075 31.894c.051-.104.178-.08.272-.085q.648.006 1.297-.012c.198-.017.322.154.437.287l-.104.012.152-.015-.01.054-.012.05c.201.44.426.867.622 1.309q.083.2.234.356c.31.027.66-.087.935.1-.005.108-.01.219-.057.32-.332.027-.666.002-.998.012-.26.014-.537-.047-.722-.239-.058-.066-.136-.112-.18-.189a11 11 0 0 1-.67-1.424c-.053-.135-.137-.294-.298-.311-.295-.033-.596.028-.887-.049a2 2 0 0 1-.011-.176M30.278 32.087c-.14-.066-.066-.295.085-.274.465-.007.93 0 1.397-.016.181-.018.334.104.414.258.227.431.425.876.638 1.315.075.184.19.396.42.396l-.062.028a5 5 0 0 0-.032.219q-.075.056-.147.115c-.278.03-.589.067-.815-.134-.335-.499-.556-1.063-.786-1.614-.058-.123-.153-.26-.302-.264-.269-.037-.546.034-.81-.03M32.32 31.955c.062-.113.204-.068.309-.077.223.01.45-.02.67.02.332.101.539.417.678.715.076.215.035.553-.203.648l-.167.024c-.032-.197-.023-.401-.077-.594-.075-.196-.255-.328-.427-.436-.214-.132-.475-.06-.71-.098-.06-.05-.068-.13-.073-.202"></path><path fill="#D52E31" d="m32.313 32.06.006-.105c.006.072.013.152.073.202.236.039.497-.034.711.098.172.108.351.24.426.436.055.193.045.397.078.594l.167-.024-.146.025a1.02 1.02 0 0 1-.397.48c-.229 0-.344-.212-.419-.396-.213-.439-.411-.884-.638-1.315.035 0 .104.003.139.004M12.717 32.054c.276.013.554-.014.83.015.163.046.239.22.298.363.164.442.368.868.592 1.283.056.106.123.21.218.286-.114-.01-.227-.007-.34-.012l-.146-.14c-.269.001-.538-.002-.807 0-.164-.17-.239-.4-.341-.608-.189-.394-.374-.79-.568-1.18a4 4 0 0 1 .264-.007M14.867 32.055c.268.013.539-.017.806.014.177.049.263.232.322.39.169.45.379.885.61 1.307a.9.9 0 0 0 .176.23l-.323-.005q-.074-.101-.155-.195c-.24-.003-.48.01-.718-.003-.13.007-.19-.123-.241-.218-.197-.402-.383-.808-.58-1.21-.046-.097-.072-.203-.1-.306q.1-.006.203-.004M16.75 32.052c.07.004.14.005.208.017.291.074.593.019.888.05.2.028.28.243.345.408.157.431.367.839.576 1.246.044.084.1.164.168.23q-.15-.01-.301-.016l-.041.11v-.001c-.01-.075-.03-.148-.047-.22-.27-.184-.627-.002-.922-.107-.075-.045-.108-.13-.148-.203a69 69 0 0 0-.726-1.514M18.781 32.304l.154.016c.267.059.54.043.81.054.183-.012.31.152.37.305.218.54.448 1.08.763 1.57l-.23-.005q-.08-.07-.158-.143c-.255 0-.51-.004-.763.004-.187-.144-.253-.376-.354-.577-.197-.408-.383-.822-.592-1.224M8.509 32.111c.216.002.434-.02.648.014.205.068.264.297.337.475.177.481.429.928.66 1.383-.205.018-.411.012-.616.008q-.017.082-.031.167v-.022a.29.29 0 0 0-.105-.293c-.23 0-.467.033-.695-.018-.202-.087-.37-.24-.521-.396-.145-.154-.13-.375-.134-.57.003-.149-.064-.284-.114-.42.162-.151.354-.273.57-.328M10.24 32.085c.276-.013.55.036.828.024.126 0 .258-.012.38.027.133.047.19.185.24.304.215.534.44 1.071.758 1.553-.128.001-.257.003-.385-.006-.069-.052-.126-.14-.222-.137-.244-.009-.489.001-.732 0-.203-.217-.279-.51-.414-.765-.152-.334-.345-.65-.454-1M27.806 32.057c.093-.003.188-.007.28.013.29.077.592.016.887.049.16.017.245.176.299.31.194.488.406.97.669 1.425.044.077.122.123.18.19l-.082-.045c-.138-.007-.276-.004-.414-.011-.066-.053-.124-.14-.22-.136-.247-.012-.495.001-.743-.007a1.4 1.4 0 0 1-.192-.302q-.26-.574-.544-1.134a1.5 1.5 0 0 1-.12-.352M30.118 32.136l.026-.088.134.039c.264.063.541-.008.81.029.15.003.244.141.302.264.23.551.451 1.115.786 1.614l-.27-.001a.6.6 0 0 1-.066.276c.048-.1.053-.211.058-.32-.276-.185-.625-.072-.935-.099q-.151-.156-.234-.356c-.197-.442-.42-.87-.622-1.309z"></path><path fill="#282F6D" d="m7.896 32.527.042-.088c.05.136.117.271.115.42.004.195-.012.416.133.57.15.157.32.31.522.396.227.051.464.019.694.018a.29.29 0 0 1 .106.293c-.08.124-.242.065-.364.078-.282-.015-.572.038-.847-.043-.315-.121-.518-.415-.683-.693a.78.78 0 0 1 .029-.821c.068-.069.167-.09.253-.13M9.794 12.816c.005-.096-.029-.129-.153-.122-2.095.178-3.105 2.268-3.238 4.124-.01.152.054.199.119.207.922.005 1.736.002 2.658-.015l.443-.008a.2.2 0 0 0 .166-.161l.002-.997c0-1.051.011-1.977.003-3.028"></path><path fill="#FDFEFE" d="M9.36 13.218c0-.09-.1-.075-.139-.064-.997.255-2.034 1.298-2.394 3.311-.045.18.054.184.2.182.496-.015.94-.006 1.318-.009.43-.003.676.005.907.004.11.02.096-.084.096-.12.001-1.192.02-2.258.013-3.27z"></path></g><defs data-source="https://football-logos.cc"><linearGradient id="b" x1="21.496" x2="18.623" y1="8.624" y2="5.072" gradientUnits="userSpaceOnUse"><stop stop-color="#D52E31"></stop><stop offset="1" stop-color="#D52E31" stop-opacity="0"></stop></linearGradient><clipPath id="a"><path fill="#fff" d="M0 0h41.726v46.578H0z"></path></clipPath></defs><!-- source: https://football-logos.cc --></svg>