<svg xmlns="http://www.w3.org/2000/svg" viewBox="213.86 304.32 365.97 513.89"><!-- Source: https://football-logos.cc --><defs data-source="https://football-logos.cc"><clipPath id="a" clipPathUnits="userSpaceOnUse"><path d="M0 841.89h595.276V0H0Z"></path></clipPath><clipPath id="b" clipPathUnits="userSpaceOnUse"><path d="M0 841.89h595.276V0H0Z"></path></clipPath><clipPath id="c" clipPathUnits="userSpaceOnUse"><path d="M0 841.89h595.276V0H0Z"></path></clipPath><clipPath id="d" clipPathUnits="userSpaceOnUse"><path d="M0 841.89h595.276V0H0Z"></path></clipPath><clipPath id="e" clipPathUnits="userSpaceOnUse"><path d="M0 841.89h595.276V0H0Z"></path></clipPath><clipPath id="f" clipPathUnits="userSpaceOnUse"><path d="M0 841.89h595.276V0H0Z"></path></clipPath><clipPath id="g" clipPathUnits="userSpaceOnUse"><path d="M0 841.89h595.276V0H0Z"></path></clipPath><clipPath id="h" clipPathUnits="userSpaceOnUse"><path d="M0 841.89h595.276V0H0Z"></path></clipPath><clipPath id="i" clipPathUnits="userSpaceOnUse"><path d="M0 841.89h595.276V0H0Z"></path></clipPath><clipPath id="j" clipPathUnits="userSpaceOnUse"><path d="M0 841.89h595.276V0H0Z"></path></clipPath><clipPath id="k" clipPathUnits="userSpaceOnUse"><path d="M0 841.89h595.276V0H0Z"></path></clipPath><clipPath id="l" clipPathUnits="userSpaceOnUse"><path d="M0 841.89h595.276V0H0Z"></path></clipPath><clipPath id="m" clipPathUnits="userSpaceOnUse"><path d="M0 841.89h595.276V0H0Z"></path></clipPath><clipPath id="n" clipPathUnits="userSpaceOnUse"><path d="M0 841.89h595.276V0H0Z"></path></clipPath><clipPath id="o" clipPathUnits="userSpaceOnUse"><path d="M0 841.89h595.276V0H0Z"></path></clipPath><clipPath id="p" clipPathUnits="userSpaceOnUse"><path d="M0 841.89h595.276V0H0Z"></path></clipPath><clipPath id="q" clipPathUnits="userSpaceOnUse"><path d="M0 841.89h595.276V0H0Z"></path></clipPath><clipPath id="r" clipPathUnits="userSpaceOnUse"><path d="M0 841.89h595.276V0H0Z"></path></clipPath><clipPath id="s" clipPathUnits="userSpaceOnUse"><path d="M0 841.89h595.276V0H0Z"></path></clipPath><clipPath id="t" clipPathUnits="userSpaceOnUse"><path d="M0 841.89h595.276V0H0Z"></path></clipPath><clipPath id="u" clipPathUnits="userSpaceOnUse"><path d="M0 841.89h595.276V0H0Z"></path></clipPath><clipPath id="v" clipPathUnits="userSpaceOnUse"><path d="M0 841.89h595.276V0H0Z"></path></clipPath><clipPath id="w" clipPathUnits="userSpaceOnUse"><path d="M0 841.89h595.276V0H0Z"></path></clipPath><clipPath id="x" clipPathUnits="userSpaceOnUse"><path d="M0 841.89h595.276V0H0Z"></path></clipPath><clipPath id="y" clipPathUnits="userSpaceOnUse"><path d="M0 841.89h595.276V0H0Z"></path></clipPath><clipPath id="z" clipPathUnits="userSpaceOnUse"><path d="M0 841.89h595.276V0H0Z"></path></clipPath><clipPath id="A" clipPathUnits="userSpaceOnUse"><path d="M0 841.89h595.276V0H0Z"></path></clipPath><clipPath id="B" clipPathUnits="userSpaceOnUse"><path d="M0 841.89h595.276V0H0Z"></path></clipPath><clipPath id="C" clipPathUnits="userSpaceOnUse"><path d="M0 841.89h595.276V0H0Z"></path></clipPath><clipPath id="D" clipPathUnits="userSpaceOnUse"><path d="M0 841.89h595.276V0H0Z"></path></clipPath><clipPath id="E" clipPathUnits="userSpaceOnUse"><path d="M0 841.89h595.276V0H0Z"></path></clipPath></defs><path d="M418.064 464.222c0 10.428 11.065 17.861 16.814 17.861v131.57H160.397v-131.57c5.748 0 16.813-7.433 16.813-17.861s-11.065-17.86-16.813-17.86V309.093c0-30.112 24.41-54.52 54.52-54.52h50.197c22.13 0 30.802-22.081 30.802-26.337h3.443c0 4.256 8.672 26.337 30.802 26.337h50.196c30.11 0 54.521 24.408 54.521 54.52v137.269c-5.749 0-16.814 7.432-16.814 17.86" clip-path="url(#a)" style="fill:#000;fill-opacity:1;fill-rule:nonzero;stroke:none" transform="matrix(1.33333 0 0 -1.33333 0 1122.52)"></path><path d="M416.077 498.678c-13.424-8.341-20.65-21.69-20.65-34.456 0-12.765 7.285-27.289 20.65-34.341V309.093c0-19.696-16.023-35.72-35.72-35.72h-50.196c-13.511 0-24.401-5.311-32.523-12.572-8.123 7.261-19.013 12.572-32.524 12.572h-50.197c-19.695 0-35.719 16.024-35.719 35.72v120.788c13.365 7.052 20.65 21.576 20.65 34.341s-7.226 26.115-20.65 34.456v96.175h236.879zm13.16-12.176v121.511H166.038V486.502c8.036-2.978 16.812-11.507 16.812-22.28 0-10.772-8.776-19.302-16.812-22.28V309.093c0-26.953 21.927-48.88 48.879-48.88h50.197c16.709 0 27.296-10.878 32.524-20.348 5.228 9.47 15.814 20.348 32.523 20.348h50.196c26.954 0 48.88 21.927 48.88 48.88v132.849c-8.037 2.977-16.813 11.508-16.813 22.28s8.776 19.303 16.813 22.28" clip-path="url(#b)" style="fill:#fff;fill-opacity:1;fill-rule:nonzero;stroke:none" transform="matrix(1.33333 0 0 -1.33333 0 1122.52)"></path><path d="M416.077 594.853v-96.175c-13.424-8.341-20.65-21.69-20.65-34.456 0-12.765 7.285-27.289 20.65-34.341V309.093c0-19.696-16.023-35.72-35.72-35.72h-50.196c-13.511 0-24.401-5.311-32.523-12.572-8.123 7.261-19.013 12.572-32.524 12.572h-50.197c-19.695 0-35.719 16.024-35.719 35.72v120.788c13.365 7.052 20.65 21.576 20.65 34.341s-7.226 26.115-20.65 34.456v96.175z" clip-path="url(#c)" style="fill:#c22026;fill-opacity:1;fill-rule:nonzero;stroke:none" transform="matrix(1.33333 0 0 -1.33333 0 1122.52)"></path><path d="M205.362 594.853V399.588c0-54.836 50.308-69.424 69.928-69.424 13.08 0 26.664 6.539 26.664 6.539-13.081 0-58.861 24.653-58.861 56.849v201.301z" clip-path="url(#d)" style="fill:#000;fill-opacity:1;fill-rule:nonzero;stroke:none" transform="matrix(1.33333 0 0 -1.33333 0 1122.52)"></path><path d="M332.144 468.509c-13.08 0-26.664-6.539-26.664-6.539 13.082 0 58.863-24.654 58.863-56.848V266.29h16.014c8.172 0 15.689 2.789 21.714 7.423v125.372c0 54.836-50.306 69.424-69.927 69.424" clip-path="url(#e)" style="fill:#fff;fill-opacity:1;fill-rule:nonzero;stroke:none" transform="matrix(1.33333 0 0 -1.33333 0 1122.52)"></path><path d="M194.229 539.275h-7.526v44.274h7.526z" clip-path="url(#f)" style="fill:#fff;fill-opacity:1;fill-rule:nonzero;stroke:none" transform="matrix(1.33333 0 0 -1.33333 0 1122.52)"></path><path d="M203.576 583.55v-44.275h7.527v36.778h4.667a2.82 2.82 0 0 0 2.819-2.82v-33.958h7.527v34.875a9.4 9.4 0 0 1-9.4 9.4z" clip-path="url(#g)" style="fill:#fff;fill-opacity:1;fill-rule:nonzero;stroke:none" transform="matrix(1.33333 0 0 -1.33333 0 1122.52)"></path><path d="M246.848 583.55v-29.343c0-2.59-2.099-7.435-4.689-7.435s-4.69 4.845-4.69 7.435v29.343h-7.526v-29.314c0-6.747 5.469-14.961 12.216-14.961s12.216 8.214 12.216 14.961v29.314z" clip-path="url(#h)" style="fill:#fff;fill-opacity:1;fill-rule:nonzero;stroke:none" transform="matrix(1.33333 0 0 -1.33333 0 1122.52)"></path><path d="M272.25 546.772a2.82 2.82 0 0 0-2.821 2.82v11.304h8.439v7.497h-8.439v4.84a2.82 2.82 0 0 0 2.821 2.82h6.558v7.497h-7.505a9.4 9.4 0 0 1-9.4-9.4v-25.475a9.4 9.4 0 0 1 9.4-9.4h9.307v7.497z" clip-path="url(#i)" style="fill:#fff;fill-opacity:1;fill-rule:nonzero;stroke:none" transform="matrix(1.33333 0 0 -1.33333 0 1122.52)"></path><path d="M295.787 564.779v13.204c1.851 0 3.996-2.606 3.996-6.602s-2.189-6.602-3.996-6.602m11.293-19.258v12.7c0 2.522-3.849 3.783-3.849 3.783s4.458 2.356 4.458 10.43-5.885 11.116-8.24 11.116H288.26v-44.275h7.527v19.87c1.221 0 3.766-.84 3.766-3.113v-12.53c0-2.103 1.915-4.227 2.965-4.227h6.517v4.647s-1.955 0-1.955 1.599" clip-path="url(#j)" style="fill:#fff;fill-opacity:1;fill-rule:nonzero;stroke:none" transform="matrix(1.33333 0 0 -1.33333 0 1122.52)"></path><path d="M329.598 583.55v-34.178a2.6 2.6 0 0 0-5.2 0v34.178h-7.527v-34.875a9.4 9.4 0 0 1 9.4-9.4h1.454a9.4 9.4 0 0 1 9.4 9.4v34.875z" clip-path="url(#k)" style="fill:#fff;fill-opacity:1;fill-rule:nonzero;stroke:none" transform="matrix(1.33333 0 0 -1.33333 0 1122.52)"></path><path d="M355.947 564.779v13.204c1.851 0 3.995-2.606 3.995-6.602s-2.188-6.602-3.995-6.602m11.293-19.258v12.7c0 2.522-3.848 3.783-3.848 3.783s4.458 2.356 4.458 10.43-5.887 11.116-8.243 11.116H348.42v-44.275h7.527v19.87c1.221 0 3.766-.84 3.766-3.113v-12.53c0-2.103 1.914-4.227 2.965-4.227h6.517v4.647s-1.955 0-1.955 1.599" clip-path="url(#l)" style="fill:#fff;fill-opacity:1;fill-rule:nonzero;stroke:none" transform="matrix(1.33333 0 0 -1.33333 0 1122.52)"></path><path d="M384.711 539.275h-7.527v44.274h7.527z" clip-path="url(#m)" style="fill:#fff;fill-opacity:1;fill-rule:nonzero;stroke:none" transform="matrix(1.33333 0 0 -1.33333 0 1122.52)"></path><path d="M401.976 546.772a2.82 2.82 0 0 0-2.821 2.82v11.304h8.439v7.497h-8.439v4.84a2.82 2.82 0 0 0 2.821 2.82h6.558v7.497h-7.506a9.4 9.4 0 0 1-9.4-9.4v-25.475a9.4 9.4 0 0 1 9.4-9.4h9.309v7.497z" clip-path="url(#n)" style="fill:#fff;fill-opacity:1;fill-rule:nonzero;stroke:none" transform="matrix(1.33333 0 0 -1.33333 0 1122.52)"></path><path d="M195.174 504.28a2.82 2.82 0 0 0-2.82 2.82v24.449h-5.584v-25.333a7.52 7.52 0 0 1 7.52-7.52h5.575v5.584z" clip-path="url(#o)" style="fill:#fff;fill-opacity:1;fill-rule:nonzero;stroke:none" transform="matrix(1.33333 0 0 -1.33333 0 1122.52)"></path><path d="M212.2 511.471v-5.283a1.93 1.93 0 0 0-1.929-1.929 1.93 1.93 0 0 0-1.928 1.929v17.868a1.93 1.93 0 0 0 1.928 1.929 1.93 1.93 0 0 0 1.929-1.929v-2.609zm-1.389 20.077h-1.076a6.975 6.975 0 0 1-6.977-6.975V505.67a6.974 6.974 0 0 1 6.977-6.974h1.076a6.976 6.976 0 0 1 6.976 6.974v18.903a6.977 6.977 0 0 1-6.976 6.975" clip-path="url(#p)" style="fill:#fff;fill-opacity:1;fill-rule:nonzero;stroke:none" transform="matrix(1.33333 0 0 -1.33333 0 1122.52)" data-source="https://football-logos.cc"></path><path d="M231.935 508.345v-2.157a1.929 1.929 0 0 0-3.857 0v17.868a1.929 1.929 0 0 0 3.857 0v-2.157h5.586v2.674a6.977 6.977 0 0 1-6.976 6.975h-1.076a6.975 6.975 0 0 1-6.976-6.975V505.67a6.974 6.974 0 0 1 6.976-6.974h1.076a6.976 6.976 0 0 1 6.976 6.974v2.675z" clip-path="url(#q)" style="fill:#fff;fill-opacity:1;fill-rule:nonzero;stroke:none" transform="matrix(1.33333 0 0 -1.33333 0 1122.52)"></path><path d="M250.676 511.471v-5.283a1.93 1.93 0 0 0-3.857 0v17.868a1.93 1.93 0 0 0 3.857 0v-2.609zm-1.39 20.077h-1.076a6.975 6.975 0 0 1-6.976-6.975V505.67a6.974 6.974 0 0 1 6.976-6.974h1.076a6.977 6.977 0 0 1 6.977 6.974v18.903a6.98 6.98 0 0 1-6.977 6.975" clip-path="url(#r)" style="fill:#fff;fill-opacity:1;fill-rule:nonzero;stroke:none" transform="matrix(1.33333 0 0 -1.33333 0 1122.52)"></path><path d="M286.28 531.549v-.142.001l-.001-25.22a1.93 1.93 0 0 0-1.93-1.929 1.93 1.93 0 0 0-1.926 1.92v25.37h-5.585l-.002-25.361a1.93 1.93 0 0 0-3.857 0v25.361h-5.585V505.67a6.974 6.974 0 0 1 6.977-6.974h1.076c1.576 0 3.013.542 4.182 1.425 1.168-.883 2.607-1.425 4.184-1.425h1.076a6.976 6.976 0 0 1 6.976 6.974v25.879z" clip-path="url(#s)" style="fill:#fff;fill-opacity:1;fill-rule:nonzero;stroke:none" transform="matrix(1.33333 0 0 -1.33333 0 1122.52)"></path><path d="M305.27 511.471v-5.283a1.93 1.93 0 0 0-3.858 0v17.868a1.93 1.93 0 0 0 3.858 0v-2.609zm-1.39 20.077h-1.076a6.975 6.975 0 0 1-6.977-6.975V505.67a6.974 6.974 0 0 1 6.977-6.974h1.076a6.977 6.977 0 0 1 6.976 6.974v18.903a6.977 6.977 0 0 1-6.976 6.975" clip-path="url(#t)" style="fill:#fff;fill-opacity:1;fill-rule:nonzero;stroke:none" transform="matrix(1.33333 0 0 -1.33333 0 1122.52)"></path><path d="M322.473 517.621v9.798c1.373 0 2.963-1.933 2.963-4.899 0-2.965-1.623-4.899-2.963-4.899m8.381-14.291v9.422c0 1.873-2.859 2.81-2.859 2.81s3.308 1.748 3.308 7.738c0 5.992-4.365 8.249-6.115 8.249h-8.302v-32.853h5.587v14.744c.904 0 2.794-.624 2.794-2.311v-9.296c0-1.561 1.421-3.137 2.199-3.137h4.838v3.448s-1.45 0-1.45 1.186" clip-path="url(#u)" style="fill:#fff;fill-opacity:1;fill-rule:nonzero;stroke:none" transform="matrix(1.33333 0 0 -1.33333 0 1122.52)"></path><path d="M351.065 517.491v9.423c0 1.186 1.451 1.186 1.451 1.186v3.448h-4.838c-.779 0-2.199-1.576-2.199-3.137v-9.297c0-1.686-1.89-2.31-2.794-2.31v14.744h-5.587v-32.852h5.587v14.744c.904 0 2.794-.624 2.794-2.311v-9.296c0-1.561 1.42-3.137 2.199-3.137h4.838v3.448s-1.451 0-1.451 1.186v9.422c0 1.873-2.858 2.37-2.858 2.37s2.858.497 2.858 2.369" clip-path="url(#v)" style="fill:#fff;fill-opacity:1;fill-rule:nonzero;stroke:none" transform="matrix(1.33333 0 0 -1.33333 0 1122.52)"></path><path d="M365.332 509.414v-3.226a1.93 1.93 0 0 0-3.857 0v2.201l-5.585.001v-2.72a6.974 6.974 0 0 1 6.976-6.974h1.076a6.977 6.977 0 0 1 6.977 6.974v3.158c0 9.063-9.444 9.354-9.444 14.542v.686a1.93 1.93 0 0 0 3.857 0v-.613l5.587.001v1.129a6.98 6.98 0 0 1-6.977 6.975h-1.076a6.975 6.975 0 0 1-6.976-6.975v-1.934c0-9.061 9.442-8.037 9.442-13.225" clip-path="url(#w)" style="fill:#fff;fill-opacity:1;fill-rule:nonzero;stroke:none" transform="matrix(1.33333 0 0 -1.33333 0 1122.52)"></path><path d="M388.109 525.986h4.869v5.563h-5.571a6.975 6.975 0 0 1-6.974-6.975v-25.878h5.585v16.042h6.26v5.564h-6.26v3.592c0 1.156.936 2.092 2.091 2.092" clip-path="url(#x)" style="fill:#fff;fill-opacity:1;fill-rule:nonzero;stroke:none" transform="matrix(1.33333 0 0 -1.33333 0 1122.52)"></path><path d="M406.774 508.345v-2.157a1.93 1.93 0 0 0-3.856 0v17.868a1.93 1.93 0 0 0 3.856 0v-2.157h5.587v2.674a6.977 6.977 0 0 1-6.976 6.975h-1.075a6.975 6.975 0 0 1-6.977-6.975V505.67a6.974 6.974 0 0 1 6.977-6.974h1.075a6.976 6.976 0 0 1 6.976 6.974v2.675z" clip-path="url(#y)" style="fill:#fff;fill-opacity:1;fill-rule:nonzero;stroke:none" transform="matrix(1.33333 0 0 -1.33333 0 1122.52)"></path><path d="M354.022 400.389c0-28.017-22.711-50.727-50.728-50.727-28.016 0-50.728 22.71-50.728 50.727s22.712 50.728 50.728 50.728 50.728-22.711 50.728-50.728" clip-path="url(#z)" style="fill:#000;fill-opacity:1;fill-rule:nonzero;stroke:none" transform="matrix(1.33333 0 0 -1.33333 0 1122.52)"></path><path d="M294.34 371.871c-1.016 2.437-3.389 8.251-5.537 14.433l-1.129.469c-5.661 3.217-10.633 6.368-15.209 9.641l-.219.159c-1.248-1.133-3.629-3.469-6.37-6.933l.165-1.328c.118-5.433 1.078-11.045 2.885-17.019l1.028-2.341c2.554-1.926 7.515-4.904 15.429-6.786l.544.544a114 114 0 0 1 8.062 8.809zm-27.702-1.425c-1.923 6.326-2.918 12.153-3.032 17.688l-.158 1.272c-3.482 2.833-6.198 4.935-8.219 6.448.947-10.111 5.024-19.32 11.25-26.656l.462.558zm35.433 48.385-.286 1.012-10.541 8.553-.355-.193c-5.548-3.622-14.957-10.335-17.536-13.235a44 44 0 0 0-1.126-1.208c-.314-4.759.382-11.585.751-14.696l.919-.671c4.496-3.215 9.397-6.32 14.849-9.427l1.04-.432c4.524 2.245 9.92 6.326 12.285 8.189zm21.589-57.612-.378.101-.196.154a64.4 64.4 0 0 0-8.712 8.255l-.83.715c-3.106-.357-10.219-.954-17.192-.012l-.556-.555a115 115 0 0 0-8.149-8.904l-.465-.466c.843-2.6 2.002-4.878 2.991-6.575a48.2 48.2 0 0 1 13.121-1.827 48 48 0 0 1 17.188 3.172c.107.087 2.466 2.022 3.178 5.942m-52.788 54.661c.236.252.46.492.654.711 3.021 3.398 13.449 10.669 18.111 13.709l1.407.765c.824 1.906 2.044 4.925 2.606 7.288l-.709 1.381-5.65 6.203c-13.093-4.615-23.611-14.719-28.785-27.54 2.274-.578 8.553-2.117 12.366-2.517m65.131-15.975.688.469c-.003 2.919-.058 9.564-.429 14.118l-.918.77c-7.378 5.721-13.42 9.752-19.007 12.684l-.715.218a1779 1779 0 0 1-10.527-8.143c-.324-.909-.549-1.532-.578-1.617v-21.506c2.622-1.705 8.922-5.731 13.303-7.929l1.743.202c6.642 3.745 11.858 7.145 16.44 10.734m-41.035 41.231.672-.505c6.582 1.038 10.395 1.06 15.747.067l.531.599 5.316 5.317a48.1 48.1 0 0 1-27.386.14zm29.456-77.591 1.479-.397c5.459 1.947 9.38 4.027 12.085 5.782l4.006 4.74.374 1.17c1.602 4.964 3.406 10.588 3.696 16.221l-.312 1.527c-3.213 2.908-6.224 4.767-7.836 5.664l-.472-.32c-4.665-3.657-10.033-7.155-16.89-11.01l-.213-.121-1.175-1.223c-2.092-6.374-3.125-11.051-3.698-13.58l.623-.538a63.6 63.6 0 0 1 8.333-7.915m24.357 29.03-.255-1.355-.007-.155c-.226-4.715-1.488-9.48-2.784-13.684a47.9 47.9 0 0 1 5.506 17.393 50 50 0 0 1-2.46-2.199m-28.949 53.179c11.894-4.348 21.611-13.249 27.038-24.58-.015-.006-2.71-1.226-9.551-4.381l-.44.37c-7.571 5.872-13.753 9.992-19.494 12.996l-.101.053-1.18.903a887 887 0 0 1-2.85 8.008l.442.5c.004.001 5.182 5.177 6.136 6.131" clip-path="url(#A)" style="fill:#fff;fill-opacity:1;fill-rule:nonzero;stroke:none" transform="matrix(1.33333 0 0 -1.33333 0 1122.52)"></path><path d="M271.21 310.958h7.598v-29.947h-3.76v25.065h-3.838z" clip-path="url(#B)" style="fill:#fff;fill-opacity:1;fill-rule:nonzero;stroke:none" transform="matrix(1.33333 0 0 -1.33333 0 1122.52)"></path><path d="M289.227 295.972c-1.959 0-3.055 2.662-3.055 5.639 0 2.979 1.645 4.465 2.898 4.465s2.898-1.723 2.898-4.934-.782-5.17-2.741-5.17m-.157 14.986c-3.212 0-6.658-2.531-6.658-10.363 0-6.423 3.369-8.46 5.953-8.46 2.272 0 3.603 1.801 3.603 1.801s.628-9.086-4.308-9.086c-1.488 0-5.248 2.349-5.248 2.349v-3.524s3.525-2.664 5.64-2.664c3.29 0 7.676 2.664 7.676 15.823 0 11.357-3.837 14.124-6.658 14.124" clip-path="url(#C)" style="fill:#fff;fill-opacity:1;fill-rule:nonzero;stroke:none" transform="matrix(1.33333 0 0 -1.33333 0 1122.52)"></path><path d="M305.128 285.893c-2.506 0-3.176 4.343-3.211 10.091s.705 10.092 3.211 10.092 3.177-4.344 3.211-10.092c.035-5.748-.705-10.091-3.211-10.091m0 25.065c-4.469 0-6.661-6.326-6.657-14.974s2.188-14.973 6.657-14.973 6.661 6.326 6.657 14.973-2.188 14.974-6.657 14.974" clip-path="url(#D)" style="fill:#fff;fill-opacity:1;fill-rule:nonzero;stroke:none" transform="matrix(1.33333 0 0 -1.33333 0 1122.52)"></path><path d="M314.295 305.371c0 4.466 2.976 5.587 5.403 5.587 3.29 0 6.345-3.393 6.345-7.778 0-3.761-3.055-6.58-3.055-6.58s4.623-2.587 4.623-7.208c0-5.796-4.623-8.381-8.381-8.381-2.899 0-4.935 1.801-4.935 5.326h2.036s.94-1.018 2.272-1.018c1.8 0 5.09 1.409 5.09 4.073 0 3.682-3.211 4.623-7.362 4.623v3.68c2.585 0 5.717.315 5.717 4.701 0 2.349-1.957 3.68-3.681 3.68-1.645 0-2.036-.705-2.036-.705z" clip-path="url(#E)" style="fill:#fff;fill-opacity:1;fill-rule:nonzero;stroke:none" transform="matrix(1.33333 0 0 -1.33333 0 1122.52)" data-source="https://football-logos.cc"></path><!-- source: https://football-logos.cc --></svg>