<svg xmlns="http://www.w3.org/2000/svg" xml:space="preserve" version="1.0" viewBox="0 0 230.62 263.62"><!-- Source: https://football-logos.cc --><g fill-rule="evenodd" clip-rule="evenodd" data-source="https://football-logos.cc"><path d="m0 218.216 1.063-.606 11.44-6.683-4.354-18.373c1.62.961 3.189 2.023 4.758 2.986 6.733 4.15 13.465 7.693 20.299 10.68a151 151 0 0 0 24.145 8.302c1.013.253 1.822.657 2.379 1.214.608.557 1.013 1.217 1.165 1.924.05.406.05.709.05 1.115l.051 11.084c5.72 1.469 11.54 2.582 17.463 3.442 11.997 1.722 24.398 2.379 36.851 2.379s24.854-.657 36.85-2.379c5.923-.86 11.743-1.974 17.464-3.442l.051-11.084c0-.406 0-.709.051-1.115.152-.707.557-1.367 1.164-1.924.557-.557 1.367-.961 2.379-1.214 8.2-2.075 16.248-4.81 24.145-8.302 6.834-2.986 13.566-6.529 20.299-10.68 1.568-.963 3.139-2.025 4.758-2.986l-4.354 18.373 11.44 6.683 1.063.606-1.063.559c-5.517 3.137-10.983 6.072-16.3 8.555-5.061 2.379-10.073 4.302-14.881 5.617l2.834 10.934v.152c0 1.063-.201 1.973-.709 2.783-.455.811-1.214 1.469-2.277 2.076-7.543 4.302-20.197 7.846-34.421 10.377-15.792 2.784-33.56 4.354-48.492 4.354s-32.7-1.569-48.493-4.354c-14.224-2.531-26.878-6.075-34.42-10.377-1.063-.607-1.823-1.266-2.278-2.076-.506-.811-.708-1.72-.708-2.732v-.203l2.834-10.934c-4.809-1.315-9.82-3.238-14.882-5.617-5.315-2.482-10.782-5.418-16.3-8.555zM115.31 26.423c-12.857 0-25.006.861-35.889 2.632-3.848.607-7.542 1.316-11.086 2.176l-.101 10.732c0 .404 0 .607-.152 1.012-.151.658-.506 1.214-.961 1.67-.607.557-1.367.961-2.278 1.165-7.492 1.974-14.73 4.454-21.867 7.693-5.922 2.684-11.744 5.873-17.615 9.567a116 116 0 0 0-5.214 3.442l4.049-17.767-11.49-6.884a140 140 0 0 1 15.945-8.352c4.606-2.076 9.162-3.747 13.565-4.96L39.28 18.83v-.102c0-1.063.203-1.974.709-2.733.506-.811 1.266-1.468 2.278-2.126C49.505 9.314 59.68 5.871 71.778 3.594 84.533 1.164 99.466 0 115.31 0s30.776 1.164 43.532 3.594c12.098 2.277 22.271 5.72 29.511 10.275 1.013.659 1.771 1.316 2.278 2.126.505.759.709 1.67.709 2.733v.102l-2.938 9.719c4.404 1.214 8.961 2.885 13.566 4.96a140 140 0 0 1 15.944 8.352l-11.49 6.884 4.05 17.767a115 115 0 0 0-5.215-3.442c-5.871-3.695-11.691-6.884-17.614-9.567-7.137-3.239-14.376-5.72-21.867-7.693-.911-.203-1.671-.607-2.278-1.165-.455-.456-.81-1.012-.962-1.67-.151-.405-.151-.608-.151-1.012l-.101-10.732c-3.544-.859-7.239-1.568-11.086-2.176-10.884-1.771-23.032-2.632-35.888-2.632"></path><path d="m115.31 218.319-.304-.103c-15.591-6.883-28.347-13.919-38.115-21.158-9.872-7.289-16.705-14.78-20.35-22.525l-.102-.354V62.362h117.739v111.817l-.101.354c-3.645 7.745-10.479 15.236-20.35 22.525-9.77 7.239-22.525 14.275-38.116 21.158z"></path><path fill="#FFDC00" d="M172.559 83.47V63.982H58.06V83.47z"></path><path fill="#172983" d="M115.31 216.597c15.337-6.783 27.891-13.718 37.509-20.805 9.516-7.087 16.146-14.324 19.74-21.766V85.04H58.06v88.987c3.594 7.441 10.225 14.679 19.741 21.766 9.617 7.086 22.171 14.021 37.509 20.804"></path><path fill="#FFDC00" stroke="#000" stroke-miterlimit="2.613" stroke-width="1.395" d="M52.44 35.484z"></path><path fill="#FFDC00" d="m15.438 41.912 9.871 5.922.456.253-.152.456-3.34 14.832a153.5 153.5 0 0 1 20.146-11.136c7.188-3.24 14.478-5.821 22.121-7.745.657-.202 1.215-.455 1.568-.86.203-.151.304-.304.457-.506l-16.907.05c-.759 0-1.518-.101-2.176-.456-.709-.354-1.266-1.012-1.62-2.076-.05-.152-.05-.252-.101-.303 0-.051 0-.101-.051-.203l-3.088-10.275c-4.354 1.214-8.858 2.885-13.414 4.91a144 144 0 0 0-13.77 7.137"></path><path fill="#FFF" d="M150.389 197.513c.81-.605 1.619-1.162 2.43-1.721 8.148-6.073 14.172-12.199 17.969-18.525l-35.18-35.131 36.951-37.001V85.04h-20.5l-36.749 36.8-36.749-36.8H58.06v20.095l36.952 37.001-35.18 35.131c3.796 6.326 9.82 12.452 17.969 18.525.81.559 1.62 1.115 2.43 1.721l35.079-35.128z"></path><path fill="#FFF" d="M115.31 114.297c15.337 0 27.891 12.502 27.891 27.891 0 15.287-12.554 27.839-27.891 27.839-15.338 0-27.892-12.552-27.892-27.839 0-15.388 12.554-27.891 27.892-27.891"></path><path fill="#EDEDEE" d="M47.177 40.191c.253.658.557 1.063.911 1.266.456.304 1.012.354 1.569.354l17.16-.101.102-10.124c-5.669 1.366-10.883 3.087-15.438 5.062-1.013.405-1.823.86-2.582 1.468-.66.556-1.216 1.265-1.722 2.075"></path><path fill="#FFDC00" d="M115.31 1.417c-15.743 0-30.573 1.164-43.279 3.543-11.946 2.278-21.969 5.619-29.055 10.073-.81.557-1.418 1.113-1.771 1.671-.354.557-.507 1.164-.558 1.923l6.024 19.842a12 12 0 0 1 1.316-1.417c.86-.709 1.822-1.215 2.936-1.721 7.846-3.341 17.463-5.922 28.296-7.644 10.984-1.772 23.184-2.683 36.091-2.683s25.106.911 36.091 2.683c10.832 1.721 20.451 4.302 28.297 7.644 1.113.506 2.074 1.012 2.936 1.721.455.404.91.911 1.314 1.417l6.025-19.842c-.051-.759-.203-1.366-.559-1.923-.353-.558-.961-1.114-1.771-1.671-7.087-4.455-17.109-7.795-29.056-10.073-12.704-2.379-27.534-3.543-43.277-3.543"></path><path fill="#FFDC00" stroke="#000" stroke-miterlimit="2.613" stroke-width="1.395" d="M178.178 35.484z"></path><path fill="#FFDC00" d="m215.18 41.912-9.87 5.922-.456.253.102.456 3.391 14.832a153.4 153.4 0 0 0-20.146-11.136c-7.188-3.24-14.478-5.821-22.12-7.745-.658-.202-1.215-.455-1.569-.86-.202-.151-.304-.304-.456-.506l16.908.05c.758 0 1.518-.101 2.175-.456.709-.354 1.266-1.012 1.62-2.076.051-.152.051-.252.102-.303 0-.051 0-.101.051-.203L188 29.865c4.354 1.214 8.857 2.885 13.414 4.91a144 144 0 0 1 13.766 7.137"></path><path fill="#EDEDEE" d="M183.442 40.191c-.253.658-.557 1.063-.911 1.266-.455.304-1.012.354-1.568.354l-17.161-.101-.101-10.124c5.668 1.366 10.883 3.087 15.438 5.062 1.014.405 1.824.86 2.582 1.468.658.556 1.215 1.265 1.721 2.075M40.799 223.126a112 112 0 0 0 9.719 3.645c2.986.963 6.023 1.873 9.061 2.633v-10.73l-20.045-.354c-.607-.052-1.113 0-1.519.253-.354.203-.658.556-.86 1.215.051.05.051.15.101.202.101.152.152.253.252.354.355.506.861 1.012 1.418 1.468s1.164.859 1.873 1.314"></path><path fill="#D9DADB" d="M35.788 220.191"></path><path fill="#FFDC00" d="M2.834 218.167c5.062 2.886 10.124 5.618 15.085 7.897 5.062 2.327 9.971 4.25 14.679 5.567l3.139-11.946c.303-1.215.86-1.923 1.568-2.328.659-.404 1.418-.456 2.228-.456l19.69.404a2.3 2.3 0 0 0-.405-.557c-.455-.404-1.011-.708-1.821-.911a155 155 0 0 1-24.348-8.301c-7.542-3.34-14.933-7.289-22.323-11.996l3.645 15.59.152.506-.456.254z"></path><path fill="#FFDC00" d="M115.31 262.205c14.882 0 32.548-1.518 48.239-4.303 14.122-2.48 26.574-5.973 33.965-10.225.861-.455 1.468-1.012 1.822-1.568s.507-1.217.507-1.975l-5.923-22.576c-.557.758-1.316 1.366-2.127 1.923-1.264.81-2.731 1.47-4.25 2.075-11.238 4.505-23.032 7.391-35.18 9.111-12.099 1.771-24.551 2.379-37.054 2.379s-24.955-.607-37.053-2.379c-12.149-1.721-23.943-4.606-35.18-9.111-1.519-.605-2.987-1.266-4.251-2.075-.811-.557-1.57-1.165-2.126-1.923l-5.922 22.576c0 .758.151 1.418.506 1.975s.962 1.113 1.822 1.568c7.391 4.252 19.843 7.744 33.965 10.225 15.692 2.785 33.358 4.303 48.24 4.303"></path><path fill="#EDEDEE" d="M189.82 223.126a112 112 0 0 1-9.719 3.645c-2.987.963-6.023 1.873-9.061 2.633v-10.73l20.045-.354c.606-.052 1.113 0 1.518.253.354.203.659.556.861 1.215-.051.05-.051.15-.102.202-.101.152-.152.253-.253.354-.354.506-.86 1.012-1.418 1.468-.555.455-1.162.859-1.871 1.314"></path><path fill="#D9DADB" d="M194.832 220.191"></path><path fill="#FFDC00" d="M227.785 218.167c-5.063 2.886-10.124 5.618-15.086 7.897-5.063 2.327-9.971 4.25-14.679 5.567l-3.14-11.946c-.303-1.215-.859-1.923-1.568-2.328-.658-.404-1.418-.456-2.227-.456l-19.691.404c.102-.202.253-.404.405-.557.456-.404 1.013-.708 1.822-.911a155 155 0 0 0 24.347-8.301c7.543-3.34 14.934-7.289 22.323-11.996l-3.645 15.59-.151.506.456.254z"></path><path d="M152.412 67.475h4.051c2.125 0 3.694.506 4.758 1.569 1.063 1.012 1.62 2.582 1.62 4.606 0 2.075-.557 3.645-1.62 4.708s-2.633 1.62-4.758 1.62h-4.051z"></path><path fill="#FFDC00" d="M154.438 78.105h1.975c1.721 0 2.834-.354 3.441-1.113.304-.406.557-.861.709-1.418s.203-1.215.203-1.924-.052-1.316-.203-1.873a4.4 4.4 0 0 0-.709-1.367c-.305-.354-.709-.607-1.266-.81s-1.314-.304-2.176-.304h-1.975z"></path><path d="M149.528 79.978h-1.974l-.052-.102-5.972-9.01v9.112h-1.923V67.475h1.973l.051.101 5.973 8.959v-9.06h1.924zM138.139 79.978h-2.228l-.052-.153-1.366-3.542h-4.758l-1.265 3.542-.05.153h-2.125l.101-.305 4.605-12.047.052-.151h2.023l.051.101 4.91 12.097z"></path><path fill="#FFDC00" d="m133.887 74.612-1.823-4.809-1.772 4.809z"></path><path d="M125.586 79.978h-7.846V67.475h1.973v10.63h5.873zM115.765 69.296h-3.949v10.682h-1.973V69.296h-3.999v-1.821h9.921zM98.504 67.272c.911 0 1.67.152 2.379.456.76.304 1.367.709 1.924 1.316s1.013 1.266 1.266 2.075c.304.76.405 1.62.405 2.582s-.101 1.822-.405 2.632a5.3 5.3 0 0 1-1.266 2.024c-.557.608-1.164 1.063-1.924 1.367-.709.304-1.468.456-2.379.456-.86 0-1.67-.152-2.379-.456a5.6 5.6 0 0 1-1.924-1.367c-.557-.557-.962-1.265-1.265-2.024-.254-.81-.405-1.67-.405-2.632s.151-1.822.405-2.582c.303-.809.708-1.468 1.265-2.075s1.215-1.012 1.924-1.316 1.519-.456 2.379-.456"></path><path fill="#FFDC00" d="M98.504 78.409c.557 0 1.113-.102 1.569-.304a3.7 3.7 0 0 0 1.266-.911c.354-.405.658-.911.81-1.469.203-.607.304-1.265.304-2.024q0-1.139-.304-1.974a3.8 3.8 0 0 0-.81-1.469 3.27 3.27 0 0 0-1.266-.911 3.7 3.7 0 0 0-1.519-.303c-.608 0-1.113.101-1.569.303a3.26 3.26 0 0 0-1.265.911c-.405.406-.658.911-.861 1.469-.203.557-.253 1.266-.253 1.974 0 .76.05 1.417.253 1.974.203.608.456 1.063.861 1.52q.531.607 1.214.911a4.2 4.2 0 0 0 1.57.303"></path><path d="M85.545 80.18c-.911 0-1.67-.152-2.379-.456a5.3 5.3 0 0 1-1.873-1.315 5.55 5.55 0 0 1-1.164-2.076 8.2 8.2 0 0 1-.406-2.632c0-.962.152-1.822.406-2.632a5.7 5.7 0 0 1 1.164-2.024c.557-.607 1.164-1.063 1.873-1.316.709-.304 1.468-.456 2.379-.456 1.367 0 2.531.354 3.493 1.113.456.354.861.811 1.114 1.266.253.506.455 1.063.505 1.671v.202h-2.024l-.05-.151c0-.354-.102-.708-.254-.962-.151-.304-.354-.506-.657-.76a2.6 2.6 0 0 0-.911-.455 4.4 4.4 0 0 0-1.215-.152c-.557 0-1.113.101-1.569.303-.456.203-.86.507-1.165.86a3.7 3.7 0 0 0-.759 1.469c-.202.607-.253 1.266-.253 2.024 0 1.519.303 2.683 1.012 3.493.304.405.709.708 1.165.911.456.202.962.304 1.569.304.861 0 1.62-.253 2.126-.658.304-.202.506-.456.657-.759.152-.304.254-.659.254-1.063l.05-.203h2.024v.203a4.8 4.8 0 0 1-.505 1.771 3.26 3.26 0 0 1-1.114 1.367c-.455.354-.961.658-1.569.81a5.9 5.9 0 0 1-1.924.303M73.144 80.18q-1.291 0-2.278-.304-.986-.304-1.671-.911c-.455-.405-.759-.86-1.012-1.367-.202-.506-.354-1.114-.354-1.721l-.051-.203h1.924l.051.203q.076.607.303 1.063c.203.303.405.557.709.759q.455.303 1.063.456c.405.101.81.152 1.266.152.405 0 .81-.051 1.164-.102.354-.101.608-.253.861-.405.252-.152.455-.354.556-.557.152-.252.203-.506.203-.759 0-.304-.05-.557-.203-.76-.102-.253-.304-.404-.556-.557a22 22 0 0 0-1.114-.405 21 21 0 0 0-1.722-.455c-.709-.152-1.316-.304-1.822-.506-.506-.253-.961-.456-1.266-.759a2.65 2.65 0 0 1-.708-.961c-.203-.405-.253-.811-.253-1.266 0-.506.101-1.013.304-1.418.202-.455.506-.81.961-1.164h-.05c.455-.304.911-.557 1.468-.708a6.3 6.3 0 0 1 1.822-.254c.658 0 1.316.102 1.873.254a5.2 5.2 0 0 1 1.519.708c.456.354.76.76 1.012 1.215.252.506.354 1.013.405 1.62v.203h-1.924l-.051-.152q-.075-.986-.759-1.518c-.506-.304-1.164-.506-2.025-.506-.456 0-.809.051-1.164.152-.304.05-.558.152-.811.304a1.6 1.6 0 0 0-.455.557 1.26 1.26 0 0 0-.203.658c0 .202.051.404.152.557.101.151.202.304.354.405.202.101.456.202.81.354.354.101.81.202 1.316.354.557.101 1.063.202 1.468.354.456.102.81.203 1.165.354q.456.151.911.456c.253.152.506.405.76.658.252.253.455.558.557.911.101.354.151.76.151 1.165a3.7 3.7 0 0 1-.303 1.518c-.203.456-.557.861-.962 1.215-.455.354-.962.658-1.519.81-.556.202-1.163.303-1.872.303M164.563 26.271l-.153-.05-10.326-1.975-.203-.05.051-.202 2.681-13.819.052-.203.151.05 10.024 1.924.202.051-.052.202-.302 1.62-.051.202-.203-.05-7.947-1.518-.76 3.846 7.441 1.417.203.051-.051.203-.304 1.619-.049.203-.203-.05-7.442-1.418-.809 4.252 8.251 1.62.203.05v.203l-.356 1.62zM152.92 11.389h-.203l-7.391-.911-.456 3.948 6.328.759.202.051v.203l-.202 1.619-.052.203h-.201l-6.327-.81-.761 6.175-.048.203-.205-.051-1.822-.202-.202-.051v-.202l1.721-13.971.052-.202h.202l9.414 1.164.203.051-.051.202-.201 1.671zM138.29 22.222h-.202l-1.873-.101-.203-.051.051-.203.961-14.021v-.202h.203l1.873.151h.203v.203l-.961 14.022zM133.785 9.365h-.152l-7.442-.254-.152 3.948 6.43.203.203.051-.051.152-.051 1.72v.152h-.203l-6.429-.202-.202 6.176v.202h-.202l-1.874-.101h-.201v-.203l.506-14.072v-.202h.203l9.517.354h.202v.202l-.051 1.671zM116.626 8.757h-4.606v12.452h-2.279V8.757h-4.606V6.681h11.491zM91.569 22.121h-.303l-2.076.253-.152.05-.05-.152-2.076-3.897-5.568.658-1.012 4.302v.152h-.151l-1.975.253-.253.051.051-.304 3.644-14.629.051-.151h.152l1.973-.253h.102l.101.101 7.39 13.312z"></path><path fill="#FFDC00" d="m86.001 16.553-2.885-5.417-1.367 5.973z"></path><path d="m77.042 24.145-.151.051-10.327 1.974-.203.051-.05-.203-2.683-13.819-.051-.202h.202l10.024-1.975.151-.05.051.203.304 1.67.05.202h-.203l-7.947 1.57.759 3.846 7.442-1.467.202-.051v.202l.354 1.671v.152l-.202.051-7.39 1.467.81 4.303 8.3-1.62.204-.05v.202l.354 1.62zM189.213 241.755c.152.657.201 1.266.152 1.871-.102.559-.254 1.115-.608 1.57-.304.506-.759.912-1.315 1.266-.507.354-1.164.658-1.925.912l-4.657 1.467-.201.051-.051-.203-3.493-13.514-.05-.204.152-.05 4.403-1.418a6.6 6.6 0 0 1 1.874-.303 4.2 4.2 0 0 1 1.618.303c.456.203.861.455 1.165.861.354.404.557.859.709 1.416q.302 1.063 0 1.975a4.6 4.6 0 0 1-.761 1.367c.305 0 .558.051.81.152.355.102.709.303.963.557.303.254.557.506.759.859q.303.458.456 1.065"></path><path fill="#FFDC00" d="m182.177 246.259 2.784-.859c.912-.304 1.569-.709 1.924-1.215.354-.457.455-1.063.252-1.772a3.4 3.4 0 0 0-.404-.961c-.202-.204-.406-.405-.607-.507-.252-.102-.608-.102-.961-.102a6.5 6.5 0 0 0-1.52.355l-2.581.81zM180.557 240.034l2.531-.81c.455-.152.811-.304 1.113-.506.254-.152.507-.354.658-.559.152-.201.253-.404.253-.657.052-.304 0-.606-.05-.962-.102-.304-.203-.556-.354-.76a2.3 2.3 0 0 0-.558-.404c-.203-.101-.506-.101-.86-.101-.354.05-.81.151-1.315.304l-2.379.758z"></path><path d="M172.609 251.12c-.709.151-1.418.202-1.975.151-.605 0-1.164-.151-1.568-.404a5 5 0 0 1-1.113-.861c-.354-.354-.559-.708-.76-1.164-.354-.81-.607-1.771-.811-2.885l-1.416-7.998-.052-.203.204-.049 1.67-.356.201-.05.052.202 1.366 7.998c.203.861.355 1.62.607 2.177.253.506.506.859.81 1.063.305.252.657.353 1.063.404.404.05.859.05 1.367-.052.505-.15.962-.303 1.314-.505.355-.202.608-.507.861-.81.203-.304.304-.76.355-1.367 0-.607-.052-1.367-.203-2.277l-1.418-7.947-.049-.202.201-.052 1.67-.354.203-.051.051.203 1.416 8.047c.152.811.254 1.569.254 2.227q0 .99-.152 1.672c-.152.682-.303.859-.506 1.215a5.7 5.7 0 0 1-.91 1.012c-.304.254-.709.507-1.165.709s-1.01.354-1.567.507M165.067 252.537l-.202.05-7.845 1.215h-.204l-.05-.203-1.771-13.92v-.202l.151-.052 1.721-.252.202-.05v.202l1.57 12.098 5.972-.912h.203v.203l.202 1.619zM148.971 255.017c-.961.102-1.822.051-2.582-.203a5.3 5.3 0 0 1-2.125-1.315c-.607-.557-1.113-1.317-1.469-2.177a10.7 10.7 0 0 1-.708-3.037c-.101-1.114-.052-2.176.152-3.088a6.5 6.5 0 0 1 1.013-2.531c.505-.709 1.113-1.316 1.82-1.721a6.3 6.3 0 0 1 2.43-.811c.709-.049 1.418-.049 2.026.102a5.5 5.5 0 0 1 1.771.76c.557.404 1.013.809 1.367 1.367.303.506.557 1.163.709 1.822v.202l-.203.05-1.722.203h-.202l-.05-.152a3.2 3.2 0 0 0-.354-1.113 2.3 2.3 0 0 0-.811-.76 3.6 3.6 0 0 0-1.012-.455c-.404-.051-.811-.102-1.266-.051-.658.102-1.164.254-1.62.557-.505.304-.86.709-1.165 1.215-.353.507-.557 1.113-.657 1.772-.152.709-.152 1.518-.05 2.429.05.861.254 1.62.506 2.277.201.66.557 1.217.962 1.621.404.455.81.76 1.315.91q.76.305 1.672.152c.505-.051.91-.152 1.314-.303.355-.203.658-.406.912-.709.253-.254.455-.607.607-.963.102-.404.202-.81.15-1.314v-.152l.204-.051 1.72-.203h.254v.203c0 .76-.102 1.469-.355 2.126-.201.606-.557 1.165-.961 1.67-.455.456-1.012.861-1.619 1.113-.555.305-1.264.507-1.973.558M136.975 256.03h-.203l-7.897.456h-.201l-.052-.204-.657-14.072v-.202h.201l1.67-.1h.203l.051.201.556 12.199 6.024-.353h.203v.201l.102 1.67zM126.344 256.789h-.201l-7.95.152h-.201v-.203l-.203-14.072v-.202h.203l1.67-.051h.203v.202l.202 12.199 6.076-.102h.152l.049.204v1.873M116.423 256.991h-.304l-1.872-.05h-.152v-.102l-1.418-4.202-5.062-.1-1.468 4.099v.153h-.152l-1.822-.051h-.253l.101-.252 5.113-13.973.051-.15h.152l1.822.05h.152l.05.1 4.961 14.225zM103.009 252.333a6.8 6.8 0 0 1-.405 1.822 3.6 3.6 0 0 1-1.063 1.266 4 4 0 0 1-1.62.76q-.91.227-2.126.152l-4.808-.254-.152-.05v-.204l.658-14.07v-.203l.202.051 4.556.253c.708.052 1.315.152 1.872.354s1.063.455 1.418.859q.606.533.911 1.217c.152.505.252 1.012.202 1.618 0 .709-.202 1.317-.557 1.822a4.4 4.4 0 0 1-1.114 1.063c.253.102.456.254.658.404.354.254.607.559.81.861.202.354.354.709.456 1.113.052.357.102.762.102 1.166"></path><path fill="#FFDC00" d="m112.07 250.765-1.873-5.771-1.974 5.67zM95.011 254.105l2.885.152c.961.051 1.67-.102 2.177-.455.456-.304.709-.86.759-1.569.05-.405 0-.759-.101-1.063-.101-.254-.253-.506-.456-.658v-.049.049-.049a2.7 2.7 0 0 0-.861-.406c-.405-.152-.911-.202-1.519-.254l-2.683-.15zM95.315 247.576l2.631.151c.457.052.861 0 1.216-.05.303-.051.557-.152.759-.254.202-.15.354-.354.456-.557.152-.253.202-.557.202-.91a1.6 1.6 0 0 0-.101-.86c-.05-.204-.202-.405-.405-.608-.152-.152-.456-.303-.759-.404-.354-.102-.811-.152-1.316-.152l-2.48-.152z"></path><path d="m91.671 243.274-.203-.052-4.05-.353-.961 12.148v.203h-.203l-1.721-.203h-.202l.051-.203.961-12.148-3.999-.406h-.202v-.202l.152-1.67v-.202h.203l10.123.961.202.052v.201l-.151 1.67zM74.309 238.92a6.4 6.4 0 0 1 2.43.911 6.25 6.25 0 0 1 1.822 1.822c.506.759.86 1.62 1.012 2.581.203.911.203 1.923.051 3.038-.151 1.113-.404 2.074-.81 2.936-.404.859-.961 1.568-1.62 2.176s-1.417 1.014-2.227 1.215c-.759.254-1.62.254-2.531.152-.961-.152-1.771-.457-2.48-.91a5.9 5.9 0 0 1-1.822-1.874c-.506-.759-.81-1.62-1.012-2.531a10.4 10.4 0 0 1-.051-3.088c.152-1.113.406-2.074.81-2.936a7 7 0 0 1 1.62-2.177c.709-.557 1.417-.961 2.227-1.215a6.3 6.3 0 0 1 2.581-.1"></path><path fill="#FFDC00" d="M72.638 251.777c.607.051 1.215.051 1.722-.101s1.012-.456 1.468-.861.81-.961 1.063-1.569q.454-.986.607-2.277c.101-.859.101-1.67 0-2.379a5.2 5.2 0 0 0-.659-1.822 3.5 3.5 0 0 0-1.164-1.266c-.455-.303-1.013-.506-1.62-.606a3.6 3.6 0 0 0-1.67.101 3.1 3.1 0 0 0-1.468.86c-.456.404-.811.911-1.113 1.569-.304.607-.457 1.366-.608 2.277-.101.861-.101 1.62 0 2.329.152.709.354 1.315.659 1.872a5.8 5.8 0 0 0 1.214 1.266c.455.304 1.012.506 1.569.607"></path><path d="M60.691 236.289a6.8 6.8 0 0 1 2.38 1.012c.708.507 1.266 1.164 1.721 1.975a7.7 7.7 0 0 1 .911 2.633 10.3 10.3 0 0 1-.102 3.036c-.202 1.113-.506 2.075-.962 2.886s-1.012 1.518-1.721 2.074a6 6 0 0 1-2.278 1.115c-.809.15-1.67.15-2.53-.052a7 7 0 0 1-2.43-1.013c-.709-.506-1.266-1.164-1.721-1.975a7.7 7.7 0 0 1-.911-2.632c-.102-.911-.102-1.923.101-3.036s.506-2.076.962-2.887 1.012-1.518 1.721-2.075a6 6 0 0 1 2.278-1.113 6.3 6.3 0 0 1 2.581.052"></path><path fill="#FFDC00" d="M58.414 249.044a4.9 4.9 0 0 0 1.722 0 3.8 3.8 0 0 0 1.468-.811c.506-.354.86-.859 1.164-1.468.354-.657.557-1.418.709-2.228.152-.912.202-1.67.101-2.379-.051-.708-.253-1.316-.557-1.873s-.658-1.012-1.114-1.366c-.455-.305-.961-.557-1.568-.657q-.912-.228-1.671 0a3.1 3.1 0 0 0-1.519.758c-.455.355-.86.86-1.164 1.518a8.2 8.2 0 0 0-.708 2.229c-.152.859-.203 1.62-.101 2.329.051.708.253 1.315.557 1.872a5 5 0 0 0 1.113 1.367 5.5 5.5 0 0 0 1.568.709"></path><path d="m52.998 236.693-.203-.051-6.479-2.023-1.012 3.795 5.618 1.772.203.05-.051.202-.404 1.57-.051.202-.203-.05-5.618-1.772-1.519 5.974-.05.202-.203-.102-1.671-.505-.151-.052.05-.202 3.544-13.515.051-.202.202.05 8.301 2.631.151.052-.049.202-.405 1.569zM98.353 21.917c-1.013.102-1.874.051-2.684-.151a4.45 4.45 0 0 1-1.974-.911 4.1 4.1 0 0 1-1.266-1.519c-.304-.455-.455-1.012-.556-1.569l2.227-.151c.101.354.203.607.405.859.202.355.506.659.861.861.405.203.81.355 1.266.457.506.101.961.101 1.518.05.506 0 .962-.101 1.367-.253.354-.101.709-.304 1.013-.506q.38-.303.606-.76.153-.38.152-.911a2.5 2.5 0 0 0-.304-.86c-.152-.253-.405-.406-.708-.557-.304-.152-.759-.304-1.367-.405-.557-.151-1.266-.253-2.076-.405q-1.214-.151-2.126-.455-.91-.304-1.518-.759c-.354-.304-.709-.659-.911-1.063a3.26 3.26 0 0 1-.354-1.417c-.05-.607 0-1.164.253-1.67a3.54 3.54 0 0 1 .962-1.366c.455-.456.961-.76 1.619-1.013a8 8 0 0 1 2.076-.404c.81-.051 1.519 0 2.227.101.659.152 1.266.404 1.772.759.557.354.961.811 1.266 1.316s.506 1.165.607 1.822v.203l-.202.05-1.822.101h-.151l-.051-.151c-.101-.811-.456-1.368-1.063-1.722-.557-.354-1.366-.506-2.379-.405a4.8 4.8 0 0 0-1.316.203c-.354.152-.709.304-.962.506a1.9 1.9 0 0 0-.505.607 2 2 0 0 0-.155.809c.05.252.101.506.203.657a.91.91 0 0 0 .506.456c.202.152.506.253.961.354.405.101.962.202 1.569.303.658.102 1.215.203 1.721.304.506.102.962.203 1.316.304a4.3 4.3 0 0 1 1.114.455c.354.202.657.456.961.709.303.304.557.607.708 1.013q.227.606.304 1.366a4.2 4.2 0 0 1-.253 1.772c-.202.506-.557 1.012-1.063 1.468a5 5 0 0 1-1.619 1.063 7.2 7.2 0 0 1-2.175.455"></path><path fill="#FFDC00" d="M87.469 143.808c0-.507-.051-1.063-.051-1.62 0-3.188.558-6.226 1.52-9.06a10.6 10.6 0 0 0 3.037 2.783c1.771 1.012 3.948 1.416 6.327.962a10 10 0 0 0 1.265-.354q.152 1.139.607 2.125a6.77 6.77 0 0 0 2.734 3.291c1.164.81 2.581 1.214 4.15 1.316 1.519.102 3.24-.103 5.062-.709a7.4 7.4 0 0 1 2.177 2.177c.759 1.113 1.164 2.479 1.265 3.745a7.57 7.57 0 0 1-.759 3.948 7.7 7.7 0 0 1-2.177 2.479c-3.746.557-9.314-.303-14.68-2.834-3.896-1.871-7.642-4.555-10.477-8.249"></path><path fill="#FFDC00" d="M114.145 169.978c-12.553-.508-22.98-9.415-25.917-21.21 2.582 2.431 5.517 4.354 8.504 5.771 5.821 2.732 11.896 3.695 16.097 3.139a6.6 6.6 0 0 1 1.519 1.367c1.265 1.467 1.873 3.238 1.924 5.011 0 1.771-.607 3.645-1.62 5.265-.152.201-.304.454-.507.657M129.279 166.232c-3.543 2.076-7.542 3.391-11.793 3.694 1.012-1.822 1.568-3.896 1.568-5.923-.051-2.428-.861-4.807-2.683-6.833a10 10 0 0 0-1.012-1.013 11 11 0 0 0 1.872-2.479 9.53 9.53 0 0 0 1.113-5.366 11.45 11.45 0 0 0-1.771-5.163 11.3 11.3 0 0 0-2.53-2.632c.203-.708.456-1.365.709-1.924.962-2.125 2.632-3.645 4.505-4.556 1.975-.909 4.15-1.165 6.276-.81.861.152 1.722.354 2.479.709 1.822 3.289 3.189 10.529 3.189 18.172.002 4.86-.555 9.872-1.922 14.124M135.557 123.054a27.82 27.82 0 0 1 7.644 19.134c0 8.655-4.049 16.501-10.377 21.614.81-3.746 1.165-7.745 1.165-11.693 0-7.238-1.215-14.225-2.936-18.223 2.074-.81 3.238-2.48 3.896-4.555.608-1.924.709-4.202.608-6.277"></path><path fill="#FFDC00" d="M128.115 117.436c1.52.759 2.938 1.67 4.303 2.732.152.911.254 1.874.355 2.937.102 1.873.05 3.796-.457 5.416-.454 1.367-1.215 2.43-2.48 2.834-.15.05-.303.101-.505.101-1.063-.456-2.177-.81-3.292-.962-2.731-.455-5.516-.101-7.946 1.063-2.48 1.165-4.555 3.088-5.82 5.821a9.7 9.7 0 0 0-.911 2.48c-1.468.507-2.885.709-4.151.607-1.063-.051-2.024-.354-2.784-.861h-.051a4.4 4.4 0 0 1-1.671-2.023c-.303-.76-.455-1.722-.405-2.887a18.8 18.8 0 0 1 2.177-3.846c.861.557 1.569 1.265 1.923 1.975.203.455.405.91 1.316.455.911-.406.709-.86.506-1.316-.506-1.012-1.417-1.923-2.53-2.682a26 26 0 0 1 1.923-2.177c.811.657 1.468 1.417 1.822 2.177.202.404.405.86 1.316.455.911-.455.708-.861.456-1.315-.456-.962-1.215-1.874-2.126-2.683.76-.709 1.569-1.366 2.379-2.025.811.709 1.417 1.519 1.772 2.278.203.405.456.86 1.316.456.861-.456.709-.861.506-1.316a11 11 0 0 0-1.923-2.581.9.9 0 0 0 .253-.203c.708-.456 1.518-.911 2.227-1.367.709.709 1.367 1.468 1.721 2.227.202.456.406.911 1.315.506.911-.456.709-.911.507-1.316-.404-.81-1.012-1.62-1.67-2.379.707-.304 1.468-.607 2.176-.911a7.7 7.7 0 0 1 1.519 2.177c.202.455.405.911 1.317.455.91-.405.709-.86.505-1.316a14 14 0 0 0-1.266-1.974c.761-.203 1.519-.354 2.278-.507.607.608 1.114 1.215 1.418 1.823.201.455.455.911 1.314.505.912-.455.709-.911.508-1.315a6.5 6.5 0 0 0-.76-1.266c.506 0 1.063 0 1.619.05zM115.31 114.297c1.063 0 2.177.051 3.239.151-.051.102-.051.202-.051.354 0 .962.506.962 1.013.962.304 0 .608.051.961.151-.353.102-.708.202-1.062.354-1.013-.658-2.127-1.063-3.241-1.063-.505 0-.961 0-.961 1.012s.456 1.012.961 1.012c.203 0 .405 0 .659.051-.607.253-1.215.557-1.721.86-1.063-.607-2.228-1.012-3.291-1.012-.506 0-.961 0-.961 1.012s.456 1.012.961 1.012c.354 0 .76.05 1.165.202-.405.203-.76.457-1.114.709-.354.202-.708.456-1.063.709-1.114-.709-2.329-1.114-3.442-1.114-.506 0-.962 0-.962 1.013 0 .962.456.962.962.962.557 0 1.114.202 1.721.455-.86.658-1.62 1.315-2.379 2.024-1.113-.557-2.328-.911-3.392-.911-.456 0-.961 0-.961.962 0 1.012.505 1.012.961 1.012.608 0 1.215.152 1.874.456a45 45 0 0 0-2.025 2.329c-1.164-.507-2.379-.76-3.392-.76-.506 0-1.013 0-1.013 1.013 0 .961.507.961 1.013.961.607 0 1.366.152 2.176.456a19.2 19.2 0 0 0-2.125 3.797 10 10 0 0 1-2.076.707c-1.67.355-3.138.052-4.403-.657-1.266-.759-2.278-1.974-3.038-3.492 0 0-.05 0-.05-.051 4.556-9.26 14.072-15.638 25.057-15.638"></path></g><!-- source: https://football-logos.cc --></svg>