<svg xmlns="http://www.w3.org/2000/svg" xml:space="preserve" viewBox="0 0 232.6 277.45"><!-- Source: https://football-logos.cc --><g fill-rule="evenodd" clip-rule="evenodd" data-source="https://football-logos.cc"><path d="M116.323 258.351c24.897-7.157 48.938-25.1 67.032-47.729 18.446-23.134 30.492-50.854 30.693-76.759V18.547H18.547v115.315c.202 25.905 12.248 53.625 30.694 76.759 18.093 22.63 42.134 40.572 67.082 47.73m81.497-36.239c-20.967 26.259-49.442 47.023-79.179 54.734l-2.318.605-2.318-.605c-29.786-7.711-58.262-28.476-79.229-54.734C13.86 196.005.252 164.152 0 133.963V0h232.596v133.962c-.252 30.19-13.861 62.043-34.776 88.15"></path><path fill="#070E0C" d="M116.323 267.926c55.289-14.364 106.546-77.767 106.999-134.013V9.274H9.274v124.639c.454 56.246 51.71 119.649 107.049 134.013"></path><path fill="#FCDC00" d="M192.125 217.577c-20.06 25.099-47.174 44.905-75.348 52.214l-.454.101-.504-.101c-28.173-7.309-55.289-27.115-75.348-52.214-19.908-24.949-32.911-55.188-33.163-83.664V7.358h217.98v126.555c-.252 28.476-13.256 58.715-33.163 83.664m-75.802 48.333c25.56-6.308 51.519-25.316 72.016-50.644 25.671-31.724 32.387-64.512 33.068-81.354V11.188H11.189v123.026c.353 27.468 13.003 56.75 32.306 80.942 19.455 24.344 45.612 43.547 72.828 50.754"></path><path fill="#FCDC00" d="M71.719 180.835c-.857-.756-1.764-1.462-.353-3.275 1.462-1.815 2.369-1.06 3.276-.354.655.504 1.461 1.21 2.318 1.814 3.326 2.671 6.501 5.191 9.626 8.417a34.6 34.6 0 0 1 3.276 3.78c1.109 1.461 2.016 3.023 2.621 4.586.554 1.361.857 2.771.958 4.184.101 1.311 0 2.671-.353 4.082a29 29 0 0 1-2.066 5.393c-.857 1.613-1.865 3.226-3.125 4.637-1.058 1.261-2.318 2.47-3.628 3.528-1.412 1.108-2.923 2.066-4.586 2.722-1.411.555-2.873.706-4.334.655a20 20 0 0 1-3.881-.555c-1.512-.302-2.974-.806-4.435-1.411-1.361-.554-2.722-1.26-4.032-2.016-2.369-1.361-4.334-3.075-6.3-4.738-.252-.251-.051-.05-.454-.403a59 59 0 0 1-1.916-1.814c-.604-.654-1.209-1.31-1.713-1.813-.756-.856-1.563-1.714.151-3.276 1.713-1.563 2.469-.706 3.276.151.504.504 1.058 1.159 1.613 1.714s1.108 1.108 1.613 1.512c.101.101-.101-.101.504.453v-.05c1.764 1.563 3.579 3.175 5.494 4.233 1.159.655 2.318 1.26 3.579 1.764 1.159.504 2.369.907 3.628 1.16.958.251 2.016.403 3.024.453.907.05 1.764-.05 2.469-.303a14.1 14.1 0 0 0 3.427-2.066c1.109-.856 2.117-1.864 3.024-2.923.958-1.108 1.764-2.369 2.47-3.729.756-1.411 1.311-2.923 1.713-4.436.202-.857.252-1.714.202-2.621-.05-.957-.302-1.915-.655-2.822-.454-1.159-1.159-2.368-1.965-3.478-.907-1.21-1.915-2.318-2.873-3.326-2.923-2.974-5.998-5.443-9.223-8.014-.757-.555-1.463-1.11-2.37-1.815"></path><path fill="#FCDC00" d="M56.448 199.886c-.806-1.159-1.562-2.317.756-3.83 2.318-1.563 3.074-.403 3.831.756l5.393 8.064c.807 1.159 1.563 2.318-.756 3.881s-3.075.403-3.881-.757zM61.589 192.779c-.806-1.158-1.563-2.318.756-3.83 2.319-1.562 3.075-.403 3.831.756l5.393 8.064c.807 1.159 1.563 2.318-.756 3.881s-3.075.402-3.83-.756zM66.982 185.926c-.807-1.159-1.563-2.318.755-3.831 2.319-1.562 3.075-.403 3.831.756l5.393 8.064c.806 1.159 1.563 2.318-.756 3.881s-3.074.402-3.88-.756zM54.079 209.613c2.419 0 4.385 2.066 4.385 4.536 0 2.521-1.966 4.536-4.385 4.536s-4.385-2.016-4.385-4.536c0-2.469 1.966-4.536 4.385-4.536M161.986 175.744c.906-.755 1.764-1.461 3.225.354s.555 2.52-.353 3.226a91 91 0 0 1-2.318 1.864c-3.226 2.57-6.3 4.99-9.224 8.014-.957 1.008-1.965 2.117-2.872 3.327-.856 1.108-1.563 2.317-2.017 3.477-.353.907-.554 1.865-.655 2.823-.05.907 0 1.764.252 2.621a23.5 23.5 0 0 0 1.664 4.435 19 19 0 0 0 2.52 3.68c.907 1.058 1.915 2.116 3.024 2.974 1.058.856 2.167 1.562 3.427 2.016.706.302 1.563.403 2.42.353a16.2 16.2 0 0 0 3.074-.453c1.26-.252 2.47-.655 3.628-1.159a34 34 0 0 0 3.579-1.765c1.915-1.108 3.679-2.671 5.493-4.233.604-.504.403-.302.504-.403a22 22 0 0 0 1.613-1.563c.554-.554 1.108-1.159 1.612-1.663.756-.856 1.563-1.714 3.276-.15 1.713 1.562.907 2.419.101 3.275a49 49 0 0 1-1.714 1.814c-.604.655-1.311 1.26-1.864 1.814-.454.353-.202.15-.504.403-1.916 1.663-3.881 3.377-6.25 4.737-1.311.757-2.671 1.411-4.082 2.017-1.412.604-2.873 1.108-4.436 1.41-1.21.253-2.521.504-3.881.555-1.411.051-2.924-.101-4.284-.654a16 16 0 0 1-2.388-1.191 22 22 0 0 1-2.198-1.531c-1.361-1.058-2.571-2.268-3.68-3.578a25.5 25.5 0 0 1-3.125-4.587c-.856-1.713-1.512-3.527-2.016-5.393-.353-1.411-.504-2.771-.403-4.132.102-1.361.454-2.772.958-4.134.604-1.563 1.563-3.124 2.621-4.586a50 50 0 0 1 3.275-3.78c3.125-3.226 6.3-5.745 9.677-8.416.809-.659 1.665-1.313 2.321-1.818"></path><path fill="#FCDC00" d="M175.543 195.351c.756-1.159 1.563-2.319 3.881-.756 2.318 1.512 1.512 2.671.756 3.83l-5.393 8.114c-.756 1.159-1.512 2.318-3.83.756s-1.563-2.722-.807-3.881zM170.402 188.244c.756-1.16 1.563-2.318 3.881-.757 2.318 1.513 1.512 2.672.756 3.831l-5.393 8.114c-.756 1.159-1.563 2.318-3.83.756-2.319-1.563-1.563-2.722-.807-3.881zM165.01 181.39c.807-1.159 1.563-2.319 3.881-.756 2.318 1.512 1.512 2.671.756 3.83l-5.394 8.114c-.756 1.159-1.511 2.268-3.83.757-2.317-1.563-1.562-2.723-.807-3.882zM182.549 208.152c-2.419 0-4.385 2.016-4.385 4.535s1.966 4.536 4.385 4.536c2.42 0 4.385-2.017 4.385-4.536s-1.965-4.535-4.385-4.535M65.369 56.801C53.122 52.869 42.386 44.302 32.76 32.558 40.068 63.1 54.583 76.406 71.719 83.462c-5.594-8.165-7.308-17.186-6.35-26.661M168.79 56.801c12.247-3.932 22.932-12.499 32.558-24.243-7.308 30.542-21.823 43.848-38.959 50.904 5.594-8.165 7.308-17.186 6.401-26.661"></path><path fill="#D80A23" d="M118.037 121.917a12392 12392 0 0 1-30.794-40.773c-8.114-12.348 3.477-23.739 14.868-23.638 4.788.05 11.39 1.159 16.127 2.974 4.334-1.814 10.08-2.722 14.717-2.722 12.499.101 25.452 11.038 15.523 23.789z"></path><path fill="#FCDC00" d="M116.727 122.925c-4.435-5.846-8.82-11.693-13.255-17.539l-17.54-23.234-.05-.101c-2.117-3.226-3.024-6.401-2.974-9.375 0-2.772.857-5.392 2.268-7.711 1.412-2.268 3.377-4.183 5.645-5.695 3.327-2.167 7.308-3.427 11.29-3.377 2.52.051 5.594.353 8.618.908 2.621.454 5.242 1.109 7.51 1.915 2.066-.806 4.385-1.411 6.704-1.814 2.771-.504 5.544-.756 8.013-.756 5.242.05 10.584 1.865 14.516 4.939a17 17 0 0 1 4.485 5.04c1.059 1.966 1.714 4.183 1.663 6.502 0 3.125-1.159 6.451-3.831 9.878l-30.491 40.421-1.26 1.713zm-10.635-19.504c3.981 5.292 7.963 10.533 11.945 15.825l29.181-38.657v-.05c2.218-2.822 3.176-5.494 3.176-7.913a9.6 9.6 0 0 0-1.311-4.889c-.856-1.562-2.066-2.923-3.578-4.133-3.377-2.621-8.014-4.183-12.55-4.233-2.318 0-4.889.252-7.409.706-2.368.403-4.687 1.059-6.652 1.865l-.605.252-.604-.202c-2.218-.856-4.839-1.512-7.51-2.016-2.822-.504-5.695-.806-8.114-.806-3.326-.05-6.653 1.008-9.475 2.822-1.865 1.26-3.478 2.822-4.637 4.688-1.108 1.814-1.764 3.83-1.814 6.048 0 2.318.706 4.889 2.419 7.51z"></path><path fill="#D80A23" d="M118.642 122.371a22189 22189 0 0 0 30.644-40.875c9.626-11.189 23.789-3.226 26.862 7.711 1.261 4.637 2.067 11.34 1.613 16.38 2.924 3.629 5.443 8.87 6.703 13.356 3.377 12.045-3.578 27.518-18.547 21.521z"></path><path fill="#FCDC00" d="M117.331 121.413a6369 6369 0 0 0 16.582-22.125c4.688-6.249 9.425-12.499 14.111-18.749l.051-.101c2.47-2.923 5.292-4.637 8.165-5.443 2.722-.756 5.442-.655 8.063.05 2.52.706 4.939 2.066 7.006 3.83 2.974 2.571 5.292 6.099 6.401 9.929.654 2.47 1.209 5.494 1.512 8.518.302 2.671.353 5.393.252 7.762 1.311 1.764 2.521 3.78 3.629 5.947a49.5 49.5 0 0 1 2.923 7.459c1.411 5.09 1.109 10.735-.705 15.322-.907 2.167-2.117 4.133-3.63 5.695-1.612 1.612-3.527 2.822-5.795 3.428-3.024.856-6.553.655-10.584-.958l-47.225-18.093-2.017-.756zm19.202-20.16c-5.09 6.804-10.23 13.558-15.321 20.361l45.259 17.337h.051c3.326 1.361 6.149 1.513 8.518.857 1.663-.454 3.125-1.361 4.335-2.571 1.209-1.26 2.218-2.873 2.923-4.636 1.563-3.932 1.814-8.82.604-13.205a43 43 0 0 0-2.722-6.955c-1.059-2.117-2.318-4.184-3.679-5.847l-.403-.504.05-.655c.202-2.369.151-5.09-.15-7.761-.253-2.873-.807-5.695-1.411-8.014-.907-3.226-2.873-6.149-5.393-8.316-1.714-1.462-3.68-2.57-5.797-3.175-2.016-.555-4.183-.655-6.3-.051-2.268.605-4.485 2.066-6.552 4.436-4.688 6.2-9.374 12.45-14.012 18.699"></path><path fill="#D80A23" d="M116.877 122.724c15.926 6.048 34.524 12.6 50.451 18.648 13.406 6.148 9.626 21.974-.051 27.921-4.082 2.521-9.777 4.386-14.767 5.394-2.672 3.78-7.56 8.87-11.491 11.289-10.635 6.603-24.242 2.218-24.344-12.348z"></path><path fill="#FCDC00" d="M117.432 121.212c8.165 3.074 16.683 6.199 25.2 9.324 8.77 3.175 17.489 6.351 25.251 9.324l.101.051c3.478 1.612 5.947 3.779 7.51 6.351 1.461 2.369 2.167 5.04 2.167 7.762 0 2.621-.605 5.292-1.764 7.762-1.663 3.628-4.386 6.804-7.763 8.87-2.016 1.26-4.384 2.368-6.904 3.275a67 67 0 0 1-7.761 2.218 54 54 0 0 1-5.444 6.199c-2.016 1.966-4.183 3.78-6.148 4.99-3.478 2.167-7.258 3.225-10.836 3.275-2.671 0-5.292-.604-7.61-1.764-2.318-1.21-4.284-2.974-5.796-5.393-1.613-2.57-2.57-5.896-2.57-9.828l.202-50.904v-2.369zm49.292 21.672-25.2-9.324a1946 1946 0 0 1-23.033-8.518l-.202 48.535 2.117 8.216a12 12 0 0 0 4.537 4.183l6.098 1.361c3.023 0 6.199-.907 9.122-2.722l5.595-4.587c2.117-2.066 4.082-4.385 5.443-6.3l.403-.555.604-.101a51.6 51.6 0 0 0 7.913-2.218c2.318-.807 4.485-1.813 6.3-2.923 2.873-1.764 5.141-4.435 6.552-7.459.907-2.066 1.462-4.284 1.411-6.451 0-2.117-.504-4.233-1.663-6.049-1.21-2.014-3.175-3.778-5.997-5.088m-48.436 30.693v.051zm21.874 11.038c1.765-1.108 3.729-2.771 5.595-4.587zm-15.22 1.361c1.813.907 3.931 1.361 6.098 1.361zm-6.654-12.348c.051 3.326.807 6.048 2.117 8.165z"></path><path fill="#D80A23" d="M116.827 122.472c-15.926 6.048-34.524 12.6-50.45 18.647-13.457 6.149-9.677 21.976 0 27.923 4.082 2.52 9.828 4.384 14.767 5.393 2.722 3.779 7.56 8.87 11.491 11.289 10.685 6.603 24.293 2.218 24.343-12.348z"></path><path fill="#FCDC00" d="M115.214 124.79a1680 1680 0 0 1-23.083 8.518c-8.518 3.125-17.035 6.25-25.2 9.324-2.822 1.311-4.738 3.074-5.998 5.091-1.109 1.814-1.663 3.931-1.663 6.048 0 2.167.504 4.384 1.461 6.451 1.361 3.023 3.679 5.695 6.502 7.459 1.814 1.108 3.981 2.117 6.3 2.923a52 52 0 0 0 7.963 2.218l.604.151.353.504c1.411 1.966 3.376 4.233 5.443 6.3 1.916 1.865 3.881 3.478 5.595 4.587 2.973 1.814 6.148 2.721 9.122 2.721a13.1 13.1 0 0 0 6.149-1.36c1.814-.957 3.377-2.318 4.536-4.184 1.26-2.116 2.066-4.838 2.066-8.164zm-24.192 5.494c8.518-3.125 17.035-6.25 25.2-9.324l2.218-.857v2.369l.201 50.904c-.05 3.931-1.008 7.258-2.621 9.878-1.461 2.369-3.477 4.134-5.795 5.343-2.269 1.159-4.889 1.765-7.611 1.765-3.578-.051-7.358-1.109-10.786-3.227-2.016-1.26-4.183-3.074-6.199-5.04-2.016-2.016-3.981-4.233-5.393-6.198a68 68 0 0 1-7.812-2.218c-2.469-.908-4.838-2.017-6.905-3.276-3.377-2.066-6.099-5.241-7.711-8.82-1.16-2.521-1.815-5.191-1.764-7.812 0-2.722.655-5.343 2.167-7.762 1.563-2.52 3.981-4.738 7.51-6.351l.05-.05a2547 2547 0 0 1 25.251-9.324m24.344 43.092-.151-48.586z"></path><path fill="#D80A23" d="M117.382 121.615 68.695 139.91c-14.415 4.334-22.176-10.281-18.799-21.319 1.411-4.688 4.385-10.836 7.51-14.969-.504-4.738.252-10.583 1.613-15.12 3.679-12.197 18.093-21.672 27.72-8.316z"></path><path fill="#FCDC00" d="M117.936 123.127c-9.979 3.729-19.958 7.51-29.887 11.239l-18.799 7.057-.101.05c-3.729 1.108-7.106 1.059-9.979.201-2.722-.856-5.04-2.419-6.854-4.435s-3.125-4.485-3.932-7.156c-1.159-3.831-1.26-8.115-.05-11.945.756-2.52 1.915-5.393 3.327-8.216 1.26-2.418 2.621-4.788 4.083-6.753-.202-2.217-.151-4.687.101-7.106.303-2.822.857-5.594 1.613-8.013 1.563-5.141 4.889-9.828 8.971-12.751 1.915-1.361 4.032-2.369 6.25-2.873s4.536-.504 6.804.202c3.024.907 5.947 3.023 8.568 6.602l30.643 41.429 1.261 1.713zm-31.046 8.215a6382 6382 0 0 1 27.921-10.483L85.428 81.144h-.051c-2.117-2.974-4.485-4.688-6.854-5.393-1.714-.554-3.478-.554-5.141-.151-1.764.353-3.478 1.209-5.041 2.318-3.578 2.57-6.451 6.603-7.761 11.088-.706 2.217-1.21 4.788-1.512 7.409-.252 2.419-.303 4.889-.05 7.056l.05.655-.353.503c-1.462 1.916-2.924 4.335-4.133 6.754-1.361 2.621-2.469 5.342-3.175 7.661-.958 3.276-.907 6.854.05 10.131.706 2.167 1.764 4.233 3.276 5.896a11.6 11.6 0 0 0 5.342 3.477c2.318.706 5.04.757 8.115-.201zM118.238 73.332c-3.931.051-8.064-2.772-11.542-2.923-4.586-.101-8.014 1.865-12.751 4.233-.655.353-1.059-.504-.554-1.109 3.578-4.233 7.963-6.501 13.255-6.501 3.528 0 6.956 2.621 11.844 2.621 4.536.05 7.661-2.521 11.189-2.47 4.535.101 8.77 2.066 12.751 5.645.453.403.15 1.411-.303 1.209-3.78-1.764-7.762-3.478-11.895-3.478-3.829-.05-7.256 2.722-11.994 2.773M164.808 108.712c-1.158-3.78.403-8.568-.504-11.894-1.159-4.486-4.031-7.157-7.661-11.088-.504-.504.152-1.159.908-.856 5.09 2.268 8.518 5.846 10.029 10.886.957 3.377-.555 7.459.807 12.146 1.311 4.334 4.637 6.603 5.544 9.979 1.21 4.436.554 9.022-1.764 13.86-.253.504-1.311.554-1.261.05.655-4.133 1.159-8.417 0-12.449-1.058-3.628-4.686-6.148-6.098-10.634M145.908 162.438c3.226-2.317 8.215-2.368 11.138-4.284 3.831-2.57 5.494-6.147 8.014-10.835.354-.656 1.16-.202 1.109.604-.555 5.544-2.772 9.929-7.106 12.953-2.873 2.016-7.207 1.864-11.239 4.687-3.679 2.571-4.737 6.502-7.661 8.468-3.779 2.57-8.366 3.376-13.709 2.722-.554-.051-.957-1.059-.453-1.109 4.133-.756 8.366-1.663 11.794-4.031 3.073-2.169 4.333-6.452 8.113-9.175M88.2 162.691c-3.175-2.269-8.215-2.319-11.139-4.184-3.831-2.57-5.494-6.099-8.064-10.785-.353-.656-1.159-.202-1.109.604.555 5.544 2.873 9.929 7.208 12.902 2.873 2.016 7.207 1.814 11.239 4.637 3.679 2.57 4.788 6.502 7.711 8.417 3.831 2.52 8.366 3.326 13.709 2.671.604-.101.958-1.058.454-1.159-4.133-.705-8.367-1.563-11.794-3.932-3.124-2.166-4.385-6.399-8.215-9.171"></path><path fill="#FCDC00" d="M70.106 107.049c-1.209 3.729-5.191 6.754-6.401 10.03-1.563 4.334-.756 8.165-.05 13.457.151.756-.756.857-1.209.151-2.873-4.738-3.68-9.626-1.966-14.616 1.109-3.326 4.687-5.795 6.25-10.433 1.411-4.284-.05-8.064 1.109-11.34 1.563-4.334 4.738-7.711 9.425-10.382.504-.252 1.411.302 1.059.655-2.923 3.075-5.796 6.3-7.106 10.231-1.211 3.579.351 7.762-1.111 12.247"></path><path fill="#FFF" d="M116.625 98.129c-13.356 0-24.242 10.886-24.242 24.242s10.886 24.242 24.242 24.242 24.292-10.886 24.292-24.242-10.936-24.242-24.292-24.242"></path><path fill="#FCDC00" d="M116.625 99.741c-6.199 0-11.844 2.571-15.977 6.653-4.083 4.082-6.653 9.777-6.653 15.977 0 6.25 2.57 11.895 6.653 16.027 4.133 4.082 9.778 6.602 15.977 6.602 6.25 0 11.894-2.52 16.028-6.602 4.082-4.133 6.602-9.778 6.602-16.027 0-6.199-2.52-11.844-6.602-15.977-4.133-4.082-9.778-6.653-16.028-6.653m-18.244 4.385c4.687-4.688 11.139-7.611 18.245-7.611 7.157 0 13.608 2.923 18.295 7.611s7.61 11.138 7.61 18.245c0 7.157-2.924 13.608-7.61 18.295-4.688 4.688-11.139 7.61-18.295 7.61-7.106 0-13.558-2.923-18.245-7.61s-7.61-11.138-7.61-18.295c0-7.106 2.922-13.558 7.61-18.245"></path><path fill="#FCDC00" d="M117.079 100.195c-.705-3.024-2.873-4.536-2.873-6.048 0-1.462.706-2.974 2.873-2.974s2.873 1.512 2.873 2.974c0 1.512-2.167 3.024-2.873 6.048M138.247 116.575c2.57-1.714 3.276-4.234 4.688-4.738s3.074-.302 3.78 1.713c.756 2.067-.454 3.226-1.865 3.73-1.412.505-3.529-1.058-6.603-.705M95.71 115.517c-2.621-1.663-3.327-4.183-4.738-4.687s-3.075-.303-3.78 1.713c-.706 2.066.454 3.226 1.864 3.729 1.412.504 3.579-1.058 6.654-.755M130.334 139.709c2.521 1.764 5.142 1.461 6.149 2.57.957 1.159 1.411 2.721-.202 4.183-1.612 1.411-3.125.756-4.132-.353-1.008-1.159-.353-3.679-1.815-6.4M104.126 141.02c-2.52 1.764-5.141 1.461-6.149 2.57-1.008 1.159-1.461 2.721.202 4.183 1.613 1.411 3.125.756 4.133-.353 1.008-1.159.353-3.68 1.814-6.4M107.957 109.62c1.563 0 2.873 1.311 2.873 2.873 0 1.613-1.31 2.923-2.873 2.923a2.926 2.926 0 0 1-2.923-2.923c0-1.563 1.31-2.873 2.923-2.873M126.202 109.771c1.612 0 2.923 1.311 2.923 2.873a2.926 2.926 0 0 1-2.923 2.923 2.926 2.926 0 0 1-2.924-2.923c0-1.562 1.311-2.873 2.924-2.873M117.079 100.447a2.926 2.926 0 0 1 2.923 2.923 2.925 2.925 0 0 1-2.923 2.923 2.925 2.925 0 0 1-2.923-2.923 2.925 2.925 0 0 1 2.923-2.923M97.625 118.339c1.612 0 2.923 1.311 2.923 2.873a2.925 2.925 0 0 1-2.923 2.923 2.925 2.925 0 0 1-2.923-2.923c0-1.563 1.31-2.873 2.923-2.873M107.957 128.066c1.563 0 2.873 1.31 2.873 2.873 0 1.613-1.31 2.923-2.873 2.923a2.926 2.926 0 0 1-2.923-2.923c0-1.563 1.31-2.873 2.923-2.873M117.382 120.053c1.613 0 2.873 1.311 2.873 2.923a2.84 2.84 0 0 1-2.873 2.873c-1.613 0-2.923-1.26-2.923-2.873a2.924 2.924 0 0 1 2.923-2.923M136.08 120.809c1.613 0 2.924 1.311 2.924 2.873a2.926 2.926 0 0 1-2.924 2.923c-1.563 0-2.873-1.31-2.873-2.923 0-1.563 1.311-2.873 2.873-2.873M126.958 130.083a2.925 2.925 0 0 1 2.923 2.923c0 1.563-1.311 2.873-2.923 2.873s-2.924-1.31-2.924-2.873a2.926 2.926 0 0 1 2.924-2.923M117.533 137.945c1.562 0 2.872 1.31 2.872 2.873 0 1.612-1.311 2.923-2.872 2.923a2.925 2.925 0 0 1-2.923-2.923c0-1.563 1.31-2.873 2.923-2.873M116.777 185.976l2.571 4.132 3.93 2.773-3.93 2.771-2.571 4.133-2.621-4.133-3.931-2.771 3.931-2.773zM176.804 144.899l4.838-1.309 3.88-2.924 1.512 4.637 3.277 3.78-4.839 1.311-3.88 2.973-1.564-4.637zM57.506 143.136l-4.838-1.26-3.881-2.974-1.512 4.637L44 147.37l4.837 1.31 3.882 2.924 1.562-4.637zM80.64 71.215l.454-5.191 2.368-4.436-4.989-.755-4.435-2.671-.504 5.14-2.369 4.486 5.04.756zM156.392 72.475l-.504-5.141-2.369-4.435 4.989-.806 4.435-2.621.504 5.14 2.369 4.436-4.99.806zM74.693 49.039l.05-1.664c.252-.05.756-.201 1.512-.353 1.109-.252 1.814-.454 2.066-.655s.554-.655.907-1.411l4.537-12.953 5.342-15.221c.504.05.958.05 1.411.05h1.008l.202.403 3.931 10.08c.857 2.167 1.663 4.234 2.369 6.25s1.31 3.679 1.814 4.939c.303.756.706 1.916 1.26 3.427.252.857.655 1.865 1.209 3.125.302.706.554 1.109.706 1.209.252.252.706.403 1.311.504.604.05 1.26.252 1.965.554.051.555.101.958.101 1.21 0 .101 0 .302-.05.504q-1.663 0-3.629-.151a49 49 0 0 0-3.629-.151c-1.159 0-2.016 0-2.52.05l-3.83.202-1.109.05c0-.555 0-1.109.05-1.664l2.52-.554c.756-.202 1.159-.403 1.311-.504.151-.151.202-.353.202-.554s-.051-.454-.101-.655l-.907-2.419-1.764-4.788H84.37q-.53 1.133-1.966 5.746c-.302.857-.454 1.411-.454 1.764q0 .605.303.907c.353.302 1.008.504 2.016.655.101 0 .655.101 1.562.252.051.605.051 1.008.051 1.209s0 .403-.051.605c-.957 0-3.125-.151-6.653-.454l-.907.202c-1.109.202-2.167.252-3.175.252h-.403zM85.227 35.33c3.528.051 5.594.051 6.199.051h.604c-.454-1.462-1.058-3.175-1.764-5.091-.755-1.915-1.31-3.427-1.764-4.435zM111.435 42.588c.958 0 1.713.353 2.369 1.008s1.008 1.361 1.008 2.218q0 1.662-.604 2.419c-.756.958-1.613 1.412-2.621 1.412-.957 0-1.764-.353-2.369-1.008s-.907-1.512-.907-2.52c0-.706.151-1.26.454-1.814q.302-.68 1.361-1.361c.25-.254.704-.354 1.309-.354M119.348 47.577c.403-.252.957-.403 1.714-.503a8.3 8.3 0 0 0 2.065-.555c.102-.302.151-.554.151-.706.051-.202.051-1.008.051-2.318l-.051-5.494.101-2.923-.05-2.268.05-1.311c.051-1.764.051-3.427.051-4.99 0-3.377 0-5.544-.101-6.501l-1.311-.303c-1.21-.101-2.017-.151-2.42-.252l-.05-1.461.101-.252a10.2 10.2 0 0 1 2.066-.202c.353 0 1.008 0 2.066-.05 1.109.101 1.663.151 1.764.151l1.21-.051 2.772-.151a49 49 0 0 1 5.544-.303c3.074 0 5.544.857 7.358 2.57 1.813 1.663 2.721 3.629 2.721 5.847 0 1.663-.504 3.125-1.511 4.486-.958 1.36-2.47 2.369-4.486 3.023.151.353.403.756.706 1.21.604 1.008 1.159 1.814 1.512 2.52L145 43.14c.856 1.663 1.461 2.621 1.764 2.923.252.302.856.605 1.714.958a6.8 6.8 0 0 1 1.512.807q.152.453.151.756v.555h-1.058l-1.159-.151h-.957c-.454-.101-1.059-.101-1.765-.101l-2.268-.05c-.151 0-.655.05-1.563.202-.403 0-.705.05-.958.101l-.756-1.613a91 91 0 0 1-1.311-2.722c-.654-1.612-1.814-4.132-3.427-7.56-.706-1.613-1.26-2.52-1.563-2.722-.453-.353-1.209-.555-2.318-.555-.303 0-.807.05-1.512.05a16 16 0 0 0-.102 1.714l.102 5.443-.102 4.587c.403.252.958.504 1.663.655 1.16.252 2.168.554 2.974.907 0 .807 0 1.412-.05 1.815-.303 0-.504-.051-.554-.051l-.908.051q-4.839-.454-5.746-.454c-.402 0-.654 0-.856.051l-3.074.202q-1.435.151-2.57.151h-1.008c0-.403-.051-.655-.051-.756.002-.201.053-.453.104-.756m10.079-15.825c.756 0 1.261.05 1.613.05 2.52 0 4.334-.504 5.394-1.512 1.058-1.008 1.612-2.318 1.612-3.981 0-1.008-.151-2.016-.403-2.873-.252-.907-.605-1.613-.958-2.067a5.3 5.3 0 0 0-2.218-1.411c-.654-.252-1.714-.353-3.124-.353-.706 0-1.311 0-1.814.101v3.781l-.051 1.965.051 2.722c-.051.706-.051 1.713-.102 2.873zM155.534 42.588c.908 0 1.714.353 2.369 1.008s1.008 1.361 1.008 2.218q0 1.662-.605 2.419c-.755.958-1.612 1.412-2.62 1.412-.957 0-1.764-.353-2.369-1.008-.604-.655-.907-1.512-.907-2.52 0-.706.152-1.26.454-1.814q.303-.68 1.36-1.361c.252-.254.706-.354 1.31-.354M93.693 242.121l.051-1.612c.252-.102.655-.202 1.26-.353.555-.151 1.16-.303 1.714-.504l.302-.253c.151-.604.202-1.21.202-1.813v-.151l-.101-5.142.051-2.116-.101-3.175.05-3.78-.201-7.46q-.227-.301-1.664-.604c-.201-.101-.554-.201-.958-.403l-.403-.101v-1.563l2.218.101c1.361.202 3.377.303 5.998.303 1.31 0 2.721-.051 4.132-.15l.353-.051.806.051.353-.051h.706l3.024-.102c.151 0 .353 0 .554-.05s.454-.051.605-.051c.101.403.151.856.151 1.311l.252 4.183c0 .454 0 .757-.101 1.009-.403.101-.706.101-.908.101s-.403-.05-.554-.202c-.05-.05-.151-.402-.353-.957-.503-1.512-.907-2.419-1.209-2.671-.353-.303-1.26-.403-2.822-.403l-2.318.051c-1.008.05-1.814.1-2.369.251-.151 0-.302.102-.554.202-.151.354-.202.807-.202 1.311l.051 2.671-.051 3.024c0 1.512 0 2.469.101 2.822.101.101.202.151.252.151l1.209.05h2.016c.454 0 1.159-.05 2.117-.201.655-.101 1.059-.252 1.159-.354q.453-.377.605-.907c.151-.353.202-1.26.252-2.67h.454c.202-.051.302-.051.353-.051.101 0 .353.051.756.101l-.101 3.527c-.05.757-.05 1.412-.101 1.967l.051.503v3.931c-.202.05-.403.101-.504.101s-.302-.051-.655-.151a7.4 7.4 0 0 1-.353-1.209c-.252-1.159-.554-1.865-.856-2.066-.555-.353-2.268-.505-5.141-.505-.403 0-.907.051-1.461.152-.051.604-.101 1.31-.101 2.167l.101 6.652q0 1.814.303 2.269c.1.15.554.353 1.26.504l.353.05c.504.051.958.151 1.311.303l.504.151c0 .353.05.655.05.856 0 .252 0 .504-.05.856l-.353-.05-.503.05-2.419-.15c-.252 0-1.512-.051-3.78-.051q-.983 0-1.815.151c-.907.15-1.36.201-1.461.201zM114.105 236.073q1.06 0 1.814.907c.454.605.706 1.26.706 2.016 0 1.009-.151 1.714-.453 2.218-.555.856-1.21 1.26-1.966 1.26-.706 0-1.311-.302-1.764-.907-.504-.604-.706-1.36-.706-2.317 0-.605.101-1.159.353-1.613.151-.403.504-.807 1.008-1.26.202-.203.505-.304 1.008-.304M139.507 213.646c.151.453.454 1.714.907 3.83.202.958.303 1.966.354 3.024h-1.563c-1.108-2.016-2.218-3.478-3.377-4.335-1.159-.907-2.419-1.36-3.881-1.36-1.714 0-3.175.907-4.233 2.722-1.462 2.419-2.168 5.796-2.168 10.13 0 2.521.102 4.335.354 5.393.403 1.714.906 3.125 1.563 4.234.453.856 1.058 1.512 1.864 1.966 1.008.654 2.066 1.008 3.176 1.008q1.89 0 3.628-1.513 1.74-1.512 3.327-4.535c.403-.102.957-.151 1.663-.202-.05.555-.151 1.159-.252 1.764 0 .252-.151 1.159-.354 2.822l-.201.656-.201 1.058c-.706.706-1.663 1.21-2.924 1.563s-2.771.503-4.637.503c-1.36 0-2.671-.15-3.931-.503-1.26-.304-2.318-.857-3.176-1.613q-1.965-1.588-3.023-3.478c-.757-1.21-1.311-2.57-1.663-4.032-.354-1.462-.555-3.125-.555-4.939 0-4.436 1.108-8.063 3.377-10.937 2.218-2.873 5.04-4.284 8.518-4.284 1.411 0 2.722.05 3.932.252 1.259.2 2.418.453 3.476.806M147.621 236.073q1.06 0 1.814.907c.505.605.756 1.26.756 2.016 0 1.009-.15 1.714-.453 2.218-.554.856-1.21 1.26-1.966 1.26s-1.311-.302-1.814-.907c-.453-.604-.705-1.36-.705-2.317.051-.605.151-1.159.353-1.613.202-.403.504-.807 1.059-1.26.2-.203.503-.304.956-.304"></path></g><!-- source: https://football-logos.cc --></svg>