<svg xmlns="http://www.w3.org/2000/svg" viewBox="0.42 1.07 459.26 620.36"><!-- Source: https://football-logos.cc --><path d="M1725.42 1010.89c863.28 153.36 1578.24 998.64 1581.84 1504.08v2100.96H143.578V2514.97c3.602-511.92 718.559-1350.72 1581.842-1504.08" style="fill:#000;fill-opacity:1;fill-rule:evenodd;stroke:none" transform="matrix(.13333 0 0 -.13333 0 622.667)" data-source="https://football-logos.cc"></path><path d="M1725.42 1057.69c388.8 70.56 746.64 285.84 1020.24 545.04 313.92 298.8 514.08 653.76 516.24 912.24v2055.6H188.938v-2055.6c2.16-261.36 200.878-614.88 514.082-911.52 272.878-259.92 632.16-474.48 1022.4-545.76m1082.88 478.8c-286.56-272.16-663.84-497.52-1074.96-570.24l-7.92-1.441-7.92 1.441c-411.84 72.72-790.562 298.08-1077.844 570.96-329.758 313.2-540 692.64-542.156 977.04v2147.76h3255.84V2514.25c-2.16-282.24-213.84-662.4-545.04-977.76" style="fill:#c0aa5b;fill-opacity:1;fill-rule:evenodd;stroke:none" transform="matrix(.13333 0 0 -.13333 0 622.667)"></path><path d="M1725.42 1406.17c-154.8-4.32-141.84 231.84-210.96 349.2-56.16 95.76-163.44 176.4-165.6 289.44-2.16 87.12 2.88 195.84 66.96 252.72 59.76 53.28 156.96 10.08 309.6 15.12 152.64-5.04 249.84 38.16 309.6-15.12 64.08-56.88 69.12-165.6 66.96-252.72-2.88-113.04-109.44-193.68-165.6-289.44-69.12-117.36-56.16-353.52-210.96-349.2" style="fill:#c0aa5b;fill-opacity:1;fill-rule:evenodd;stroke:none" transform="matrix(.13333 0 0 -.13333 0 622.667)"></path><path d="M1725.42 1382.41c-121.68-2.88-152.64 111.6-183.6 225.36-12.96 49.68-26.64 100.08-47.52 136.08-17.28 28.8-41.04 57.6-64.08 87.12-51.84 64.08-103.68 128.88-105.12 213.12-1.44 45.36-.72 95.76 8.64 143.28 10.08 49.68 29.52 95.76 66.24 128.16 45.36 40.32 102.96 35.28 181.44 27.36 41.04-3.6 87.84-7.92 143.28-6.48h1.44c54.72-1.44 102.24 2.88 143.28 6.48 78.48 7.92 136.08 12.96 181.44-27.36 36.72-32.4 56.16-78.48 66.24-128.16 9.36-47.52 10.08-97.92 8.64-143.28-2.16-84.24-54-149.04-105.12-213.12-23.76-29.52-46.8-58.32-64.08-87.12-20.88-36-34.56-86.4-47.52-136.08-30.96-113.76-61.92-228.24-183.6-225.36m-137.52 237.6c25.92-95.76 51.84-192.24 136.8-190.08h1.44c84.96-2.16 110.88 94.32 136.8 190.08 14.4 53.28 28.08 106.56 52.56 147.6 19.44 33.12 43.92 62.64 67.68 92.88 46.8 58.32 93.6 116.64 95.04 185.04.72 42.48 0 90-7.92 132.48-8.64 41.04-23.76 77.76-51.12 102.24-30.24 26.64-78.48 22.32-145.44 15.84-42.48-4.32-92.16-8.64-148.32-7.2-56.16-1.44-105.84 2.88-148.32 7.2-66.96 6.48-115.2 10.8-145.44-15.84-28.08-24.48-43.2-61.2-51.12-102.24-8.64-42.48-8.64-90-7.92-132.48 1.44-68.4 48.24-126.72 95.04-185.04 23.76-30.24 48.24-59.76 66.96-92.88 24.48-41.04 38.88-94.32 53.28-147.6" style="fill:#000;fill-opacity:1;fill-rule:evenodd;stroke:none" transform="matrix(.13333 0 0 -.13333 0 622.667)"></path><path d="M1725.42 2147.05c-400.32-.72-632.16 33.84-720 355.68 141.12 92.88 459.36-39.6 720-45.36 260.64 5.76 578.16 138.24 720 45.36-87.84-321.84-320.4-356.4-720-355.68" style="fill:#c0aa5b;fill-opacity:1;fill-rule:evenodd;stroke:none" transform="matrix(.13333 0 0 -.13333 0 622.667)"></path><path d="M1725.42 2123.29c-202.32 0-363.6 8.64-486 59.04-126 51.12-210.96 145.44-257.041 313.92l-4.32 16.56 14.398 10.08c95.763 62.64 257.043 32.4 431.283-.72 100.08-18.72 205.2-38.88 301.68-41.04 96.48 2.16 200.88 22.32 301.68 41.04 173.52 33.12 334.8 63.36 431.28.72l14.4-10.08-4.32-16.56c-46.08-168.48-131.04-262.8-257.04-313.92-123.12-50.4-283.68-59.04-486-59.04m-468 102.96c115.2-47.52 270.72-55.44 468-55.44s352.8 7.92 468 55.44c107.28 43.92 181.44 123.12 223.92 264.96-83.52 40.32-227.52 13.68-381.6-15.84-102.96-19.44-210.24-39.6-309.6-41.76h-1.44c-99.36 2.16-207.36 22.32-310.32 41.76-154.08 29.52-297.36 56.16-380.88 15.84 42.48-141.84 116.64-221.04 223.92-264.96" style="fill:#000;fill-opacity:1;fill-rule:evenodd;stroke:none" transform="matrix(.13333 0 0 -.13333 0 622.667)"></path><path d="M1725.42 1699.21c-102.24-1.44-110.16 291.6-122.4 465.12-13.68 198.72-220.32 291.6-361.44 301.68-107.28 8.64-330.482 33.12-303.123 115.2 12.242 37.44 133.923-19.44 156.963 30.24 12.96 25.92-404.643 203.76-331.92 280.8 56.156 59.76 197.277-135.36 233.277-82.08 17.283 25.92-447.839 303.84-332.64 393.12 57.601 43.92 126-143.28 163.441-108.72 25.199 23.04-285.121 411.84-169.199 483.12 52.559 31.68 104.398-165.6 169.199-211.68v386.64c-2.879 20.16 17.281 39.6 35.281 41.76 19.438 2.88 34.559-19.44 51.84-29.52 38.16-45.36 46.801 36 70.559 54 19.442 14.4 58.322 7.2 75.602-12.24 17.28-18.72 18-51.84 5.76-78.48-165.6-497.52 23.76-900.72 658.8-1189.44 635.04 288.72 824.4 691.92 658.8 1189.44-12.96 26.64-11.52 59.76 5.76 78.48 17.28 19.44 56.16 26.64 75.6 12.24 23.76-18 32.4-99.36 69.84-54 18 10.08 33.12 32.4 52.56 29.52 18-2.16 38.16-21.6 35.28-41.76v-386.64c64.8 46.08 115.92 243.36 169.2 211.68 115.92-71.28-195.12-460.08-169.2-483.12 37.44-34.56 105.84 152.64 162.72 108.72 115.92-89.28-349.2-367.2-331.92-393.12 36-53.28 176.4 141.84 233.28 82.08 72.72-77.04-344.88-254.88-332.64-280.8 23.76-49.68 145.44 7.2 157.68-30.24 27.36-82.08-195.84-106.56-303.12-115.2-141.12-10.08-347.76-102.96-361.44-301.68-12.24-173.52-20.88-466.56-122.4-465.12" style="fill:#c0aa5b;fill-opacity:1;fill-rule:evenodd;stroke:none" transform="matrix(.13333 0 0 -.13333 0 622.667)" data-source="https://football-logos.cc"></path><path d="M1725.42 1675.45h-.72zm-.36 0c-114.84-.72-130.68 254.16-142.92 437.76-.72 16.56-2.16 33.12-2.88 49.68-5.76 79.2-44.64 140.4-97.92 184.32-70.56 59.04-166.32 89.28-241.92 95.04-54 4.32-137.52 12.96-205.92 30.96-79.203 20.88-137.523 56.16-118.082 115.2h.719c11.519 36 49.679 31.68 91.443 28.08 29.52-3.6 61.2-6.48 66.96 5.04 5.04 10.8-44.64 11.52-94.321 40.32-70.563 41.04-158.403 91.44-207.36 137.52-41.043 38.88-57.601 76.32-26.64 108.72 28.078 29.52 62.64 22.32 99.359 2.16-66.961 53.28-142.558 115.2-185.762 171.36-42.476 54.72-55.437 105.12-10.078 140.4 46.801 36 86.399-8.64 121.68-54-7.199 9.36-15.121 20.88-22.32 33.12-80.641 135.36-200.879 336.96-102.961 396.72 36.722 22.32 66.242-5.76 94.32-52.56 9.359-15.12 19.441-34.56 30.242-54 10.801-20.88 21.598-41.76 33.117-59.76v320.4c-1.437 15.84 4.321 30.96 14.403 42.48 10.078 12.24 25.918 21.6 41.039 23.76 23.762 3.6 38.879-9.36 54-22.32 5.039-4.32 9.359-7.92 13.68-10.8l3.601-2.16 2.879-2.88c1.441-2.16-5.762-9.36-2.879-6.48h-.723c3.602 2.88 8.641 12.96 13.684 23.04 7.199 15.84 14.398 31.68 26.637 41.04l.722.72c15.118 10.8 36.001 13.68 56.161 10.8 19.44-3.6 38.88-12.24 51.12-26.64 12.24-12.96 19.44-30.96 20.88-49.68.72-17.28-2.16-36.72-10.08-53.28-80.64-241.92-74.88-460.8 27.36-653.04 102.96-192.24 302.4-360 609.12-501.84 306.72 141.84 506.16 309.6 608.4 501.84 102.96 192.24 108.72 411.12 28.08 653.76-7.92 16.56-10.8 35.28-10.08 52.56 1.44 18.72 7.92 36.72 20.16 49.68 12.96 14.4 32.4 23.04 51.84 26.64 20.16 2.88 41.04 0 55.44-10.8l.72-.72c12.24-9.36 20.16-25.2 27.36-41.04 5.04-10.08 9.36-20.16 12.96-23.04 2.88-2.88-4.32 4.32-2.88 6.48l2.88 2.88 3.6 2.16q6.48 4.32 12.96 10.8c15.84 12.96 30.96 25.92 54.72 22.32 15.12-2.16 30.96-11.52 41.04-23.76s15.84-27.36 14.4-43.2v-319.68c10.8 18 22.32 38.88 33.12 59.76 10.08 19.44 20.88 38.88 29.52 54 28.8 46.8 58.32 74.88 95.04 52.56 97.92-59.76-22.32-261.36-102.96-396.72-7.92-12.24-15.12-23.76-23.04-33.84 36 46.08 75.6 90.72 122.4 54.72 45.36-35.28 32.4-85.68-10.08-140.4-43.2-56.16-118.8-118.08-185.76-171.36 36.72 20.16 71.28 27.36 99.36-2.16 30.24-32.4 14.4-69.84-26.64-108.72-48.96-46.08-136.8-96.48-207.36-137.52-49.68-28.8-99.36-29.52-94.32-40.32 5.76-11.52 37.44-8.64 66.24-5.04 42.48 3.6 80.64 7.92 92.16-28.08 20.16-59.04-38.16-94.32-117.36-115.2-68.4-18-151.92-26.64-206.64-30.96-75.6-5.76-170.64-36-241.2-95.04-53.28-43.92-92.16-105.12-97.92-184.32-1.44-16.56-2.16-33.12-3.6-49.68-11.52-183.6-27.36-438.48-142.92-437.76m-94.68 440.64c10.08-164.88 24.48-393.84 94.32-393.12h.72c69.84-.72 84.96 228.24 95.04 393.12 1.44 18 2.16 35.28 3.6 49.68 6.48 94.32 52.56 166.32 114.48 218.16 79.2 66.24 185.04 100.08 268.56 106.56 53.28 3.6 134.64 11.52 198 28.08 52.56 14.4 92.16 32.4 84.96 54.72v.72c-.72 0-20.16-2.88-42.48-5.04-44.64-4.32-94.32-9.36-114.48 31.68-13.68 29.52 42.48 61.92 113.76 102.96 68.4 38.88 154.08 88.56 198.72 131.04 20.16 18.72 30.96 33.84 24.48 41.04-15.84 16.56-60.48-16.56-101.52-47.52-12.24-9.36-24.48-18-33.84-24.48-41.04-27.36-77.04-41.76-100.08-6.48-18.72 26.64 33.12 66.24 101.52 119.52 72.72 56.88 169.2 131.76 216.72 193.68 25.92 32.4 36.72 59.76 18.72 73.44-12.24 10.08-38.88-24.48-63.36-55.44-9.36-12.96-18.72-24.48-26.64-33.12-24.48-28.08-48.96-41.76-74.16-18.72-23.04 20.88 10.08 76.32 53.28 149.04 71.28 119.52 176.4 296.64 118.8 331.2-3.6 2.88-15.12-13.68-28.8-36-10.08-16.56-19.44-33.84-28.8-51.84-25.2-48.24-52.56-98.64-84.96-122.4l-37.44-26.64v435.6c.72 2.16-1.44 5.76-3.6 8.64-2.88 3.6-7.2 6.48-10.8 7.2-2.88 0-10.08-5.76-17.28-12.24-5.04-4.32-10.8-9.36-16.56-12.96-23.76-25.92-43.2-24.48-61.2-9.36-11.52 9.36-18.72 24.48-25.92 39.6-4.32 10.8-9.36 20.88-12.96 23.76-4.32 2.88-11.52 2.88-20.16 2.16-9.36-2.16-18-5.76-23.76-11.52-4.32-5.04-7.2-12.96-7.92-21.6-.72-10.08 1.44-20.88 6.48-30.24l.72-2.16v-.72c84.96-255.6 78.48-486.72-30.96-691.92-108-203.76-318.24-380.16-640.8-527.04l-9.36-4.32-10.08 4.32c-322.56 146.88-532.08 323.28-640.8 527.04-108.724 205.2-115.2 436.32-30.24 691.92v.72l.72 2.16c5.04 9.36 6.48 20.16 5.76 30.24-.72 8.64-2.88 16.56-7.92 21.6-5.04 5.76-13.68 9.36-23.04 11.52-8.64.72-15.84.72-20.164-2.16-3.597-2.88-8.636-12.96-12.957-23.76-7.199-15.12-14.402-30.24-25.922-39.6-18-15.12-38.16-16.56-61.199 9.36-5.762 3.6-11.519 8.64-17.281 12.96-6.481 6.48-13.68 12.24-16.559 12.24-3.601-.72-7.922-3.6-10.8-7.2-2.879-2.88-4.321-6.48-3.598-8.64v-435.6l-37.442 26.64c-33.121 23.76-59.761 74.16-84.96 122.4-10.079 18-18.719 35.28-28.801 51.84-13.68 22.32-25.199 38.88-29.52 36-56.879-34.56 48.242-211.68 119.52-331.2 43.203-72.72 76.32-128.16 53.281-149.04-25.199-23.04-49.68-9.36-74.16 18.72-8.641 8.64-17.281 20.16-27.36 33.12-23.761 30.96-50.402 65.52-63.359 55.44-17.281-13.68-6.48-41.04 19.438-73.44 47.523-61.92 144-136.8 216.722-193.68 68.399-53.28 119.521-92.88 101.521-119.52-23.763-35.28-59.763-20.88-100.802 6.48-8.641 6.48-20.879 15.84-33.84 24.48-41.039 30.96-85.68 64.08-100.801 47.52-6.48-7.2 4.321-22.32 24.481-41.04 44.64-42.48 130.32-92.16 198.722-131.04 71.28-41.04 127.44-73.44 113.04-102.96-19.44-41.04-69.12-36-113.76-31.68-22.322 2.16-41.76 5.04-42.483 5.04v-.72c-7.199-22.32 32.403-40.32 84.963-54.72 63.36-16.56 144.72-24.48 197.28-28.08 84.24-6.48 190.08-40.32 268.56-106.56 62.64-51.84 108.72-123.84 115.2-218.16.72-14.4 2.16-31.68 3.6-49.68m-698.403 734.4c3.601-2.16 6.48-4.32 10.8-7.2 18-12.24 32.403-21.6 33.84-19.44 5.039 7.2-15.84 12.24-44.64 26.64m-144 295.92c5.043-5.76 10.082-12.24 14.402-17.28-3.602 4.32-8.641 10.08-14.402 17.28m18-22.32c4.32-6.48 2.882-14.4 5.761-12.24 2.16 2.16-.718 5.76-5.761 12.24m282.963 595.44c-.72-.72-.72-.72-.72-1.44zm1573.92-573.12q-8.64-10.8-15.12-17.28 7.56 7.56 15.12 17.28m-18.72-22.32c-5.04-6.48-7.2-10.08-5.04-12.24s1.44 5.76 5.04 12.24m-125.28-273.6c-28.8-14.4-49.68-19.44-45.36-26.64 1.44-2.16 15.84 7.2 34.56 19.44 3.6 2.88 7.2 5.04 10.8 7.2m-793.44-1175.04h-.72z" style="fill:#000;fill-opacity:1;fill-rule:evenodd;stroke:none" transform="matrix(.13333 0 0 -.13333 0 622.667)"></path><path d="M149.34 3969.37h3157.92v-95.76H149.34z" style="fill:#c0aa5b;fill-opacity:1;fill-rule:evenodd;stroke:none" transform="matrix(.13333 0 0 -.13333 0 622.667)"></path><path d="m356.699 3930.49 697.681 690.48 133.92-1.44-708.484-701.28zM136.379 4177.45l447.84 443.52 127.437-7.2-574.558-569.52zM827.578 3930.49l692.642 685.44 138.24 3.6-711.362-704.16zM1297.74 3930.49l695.52 688.32 133.92-.72-707.04-700.56zM1767.9 3930.49l695.52 688.32 133.92-1.44-711.36-704.16zM2238.78 3930.49l697.68 691.2 133.92-1.44-714.24-707.04zM2708.94 3930.49l599.76 593.28-4.32-137.52-470.88-465.84z" style="fill:#c0aa5b;fill-opacity:1;fill-rule:evenodd;stroke:none" transform="matrix(.13333 0 0 -.13333 0 622.667)"></path><path d="M1725.42 56.89c596.16-2.882 1151.28 111.598 1657.44 326.161l-306.72 622.079c-900.72-304.56-1801.44-324.001-2702.163 0l-306-622.079C574.137 168.488 1129.26 54.008 1725.42 56.891" style="fill:#000;fill-opacity:1;fill-rule:evenodd;stroke:none" transform="matrix(.13333 0 0 -.13333 0 622.667)"></path><path d="M1725.42 104.41c291.6-1.441 573.12 25.918 843.84 79.199 259.92 51.121 509.76 126 748.8 223.918l-131.04 265.68c-44.64 91.441-90 182.16-134.64 273.602-442.8-145.442-884.88-222.481-1326.96-224.641-442.08-2.879-884.881 69.84-1326.963 223.922l-265.68-538.563c239.039-97.918 488.879-172.797 748.801-223.918 270.722-53.281 552.242-80.64 843.842-79.199m861.84-14.402c-276.48-54.719-564.48-82.078-861.84-80.64-297.36-1.438-585.36 25.921-861.842 80.64-282.961 55.441-555.121 139.68-814.32 249.121L3.18 359.289 25.5 403.93l305.996 622.08 18.723 38.16 40.32-14.4C835.5 889.93 1280.46 815.051 1725.42 817.211c444.96 2.156 890.64 82.797 1335.6 232.559l39.6 13.68 18.72-37.44c50.4-103.682 101.52-207.362 152.64-311.041l153.36-311.039 22.32-44.641-46.08-20.16c-259.92-109.441-531.36-193.68-814.32-249.121" style="fill:#c0aa5b;fill-opacity:1;fill-rule:evenodd;stroke:none" transform="matrix(.13333 0 0 -.13333 0 622.667)"></path><path d="m458.938 396.73 105.839 395.278 79.922-20.879-41.761-155.52 156.242-42.48 41.758 156.238 79.921-21.597L775.02 312.488l-79.922 21.602 46.082 172.801-156.242 41.757-46.079-172.8zM1006.14 676.09l82.08-11.52-30.96-219.601c-5.04-34.559-7.2-57.602-6.48-68.399.72-16.562 7.2-31.679 19.44-43.203 11.52-12.238 28.8-19.437 51.84-23.039 23.04-2.879 41.04-.719 54.72 7.199 12.96 7.922 21.6 18.723 25.92 31.68 4.32 13.684 8.64 36.723 12.96 68.402l31.68 224.641 82.08-11.52-30.24-213.121c-6.48-48.961-13.68-82.8-20.88-102.242-7.2-19.437-18-35.277-31.68-47.519-13.68-12.239-30.96-20.879-52.56-25.918-20.88-5.762-47.52-5.762-79.2-1.442q-58.32 7.559-86.4 25.922c-18.72 11.52-33.12 25.199-42.483 41.039-9.36 15.84-15.118 32.399-16.559 48.239-2.16 23.761 0 59.042 6.48 104.402zM1464.06 201.609l7.2 408.961 79.92-1.441 162.72-276.481 5.04 273.602 77.04-1.441-7.2-408.961-83.52 1.441-159.84 269.281-5.04-266.402zM2068.14 211.688l-23.76 339.121-120.96-8.641-5.04 69.121 324 22.32 5.04-69.121-120.96-7.918 23.76-339.84zM2421.66 255.609l-70.56 399.598 81.36 14.402 58.32-331.921 202.32 35.281 12.24-67.68zM2913.42 366.488l-44.64 166.321-205.92 190.082 93.6 25.199 134.64-131.762 48.96 180.723 92.16 25.199-83.52-268.562 43.92-166.321zM1585.02 2810.17v401.76h81.36v-157.68h159.12v157.68h80.64v-401.76h-80.64v175.68h-159.12v-175.68zM860.699 1693.45v401.76h275.761v-68.4H942.059v-95.04h167.761v-67.68H942.059v-170.64zM2567.1 1841.05l78.48-24.48c-12.24-43.92-32.4-77.04-60.48-97.92-28.08-21.6-63.36-32.4-106.56-32.4-53.28 0-97.2 18.72-131.76 54.72-33.84 36.72-51.12 86.4-51.12 149.76q0 100.44 51.84 155.52c34.56 37.44 79.92 55.44 136.08 55.44 48.96 0 88.56-14.4 119.52-43.2 18.72-17.28 31.68-41.76 41.04-74.16l-79.92-19.44q-7.56 31.32-30.24 49.68c-15.12 12.24-33.12 18-54.72 18-29.52 0-54-10.8-72.72-31.68-18-21.6-27.36-56.16-27.36-104.4 0-50.4 8.64-86.4 27.36-108q27-32.4 71.28-32.4c21.6 0 39.6 6.48 55.44 20.16s26.64 35.28 33.84 64.8" style="fill:#c0aa5b;fill-opacity:1;fill-rule:evenodd;stroke:none" transform="matrix(.13333 0 0 -.13333 0 622.667)" data-source="https://football-logos.cc"></path><!-- source: https://football-logos.cc --></svg>