<svg xmlns="http://www.w3.org/2000/svg" xml:space="preserve" fill-rule="evenodd" stroke-linejoin="round" stroke-width="28.222" preserveAspectRatio="xMidYMid" version="1.2" viewBox="0.37 0.21 18610.3 20084.82"><!-- Source: https://football-logos.cc --><defs class="ClipPathGroup" data-source="https://football-logos.cc"><clipPath id="a" clipPathUnits="userSpaceOnUse"><path d="M0 0h21000v29700H0z"></path></clipPath></defs><g class="SlideGroup" data-source="https://football-logos.cc"><g class="Slide" clip-path="url(#a)" transform="translate(-1195 -4808)"><g class="Page"><g class="Group"><g class="Group"><g class="com.sun.star.drawing.ClosedBezierShape"><path fill="none" d="M8977 10626h792v3992h-792z" class="BoundingBox"></path><path fill="#010101" d="m9645 14617-368-3763c-2-27-19-71-56-65-39 5-52 41-55 71-4 45 9 79 26 125 7 17 33 48 34 87 1 95-47 127-114 148-63 19-118-12-131-51-20-62 36-83 78-110 12-8 18-23 17-37-2-20-16-34-26-53-19-33-30-71-27-108 12-143 75-235 194-235 104 0 172 72 206 231l344 3748z"></path></g><g class="com.sun.star.drawing.ClosedBezierShape"><path fill="none" d="M10278 9844h623v807h-623z" class="BoundingBox"></path><path fill="#e81718" d="M10377 10632c74 20 124 18 216 18h162c47-4 24 5 35-17 34-16 12 1 19-44 8-44 7-20 19-52 10-25 4-39 12-62 16-47 14 1 28-44 6-21 1-45 6-66 1-6 46-77 14-145-13-26-1 7-13-24-10-26-2-24-15-48-1-2-3-4-4-5l-7-10c-25-37-8-25-35-46-42-34 31 28-10-7l-10-9c-12-15-14-37-22-52-19-37-20-15-35-36-19-27-2-27-19-53-10-15-11 0-34-39-12-21-11-29-24-46-24-2-42-1-57 6l-242 272-74 133c-16 50-8 20 3 57 8 29 3 44 12 70l56 151c1 2 1 5 2 7z"></path></g><g class="com.sun.star.drawing.ClosedBezierShape"><path fill="none" d="M10279 14242h824v1002h-824z" class="BoundingBox"></path><path fill="#e81718" d="M10281 14626c36 22 17-6 103 54l2 559 66-7c3-2 33-33 35-37 37-73-35-110 61-127 119-20 190-5 233-14 38-8 22-18 85-15 3 65-11 192 71 204 46-44 49-48 51-94 2-50-1-95 2-145 91-38 106-30 107-116 0-72 0-144 1-217 0-111 14-341-11-429-42 1-44 11-67 33l-4 144c-42 32-23 5-41 65-23 10-32 5-55 18-22 12-14 12-40 23-56 24-52 35-105 34-59-1-89-40-122-82-44-56-72-15-166-31-81-14-72-54-84-79-26-56-19-38-50-67-38-34-19-32-73-30z"></path></g><g class="com.sun.star.drawing.ClosedBezierShape"><path fill="none" d="M9449 11158h2039v3302H9449z" class="BoundingBox"></path><path fill="#f70708" d="M10711 12196c-10 20-3 18-16 39-9 14 0 2-13 15-34 38-21 29-42 36-46-5-28-14-62-45-27-24-37-17-48-50-11-34-4-149-5-201-1-63-72-134-2-151 33-8 166-2 209 0l1 242c0 150-5 79-22 115m-1242-390c-45 99-3 101 37 167l96 137c7 7 15 11 24 21l90 90c32 27 81 32 116 54 30 18 0 7 49 22l72 38c34 26 45 21 83 53l95 57c54 37 36 138 36 203v315c0 206 36 11 34 279-2 196-19 176 76 234 8 119-17 606 13 665 13 14 46 15 58 22 3 1 14 7 18 9 131 62 98 140 143 172 30 24 129 10 175 12l8 12c4 7 3 6 7 11 52 64 18 18 63 54 18 14 10 26 30 26 21 0 14-15 27-31 159-9 56-123 106-216 17-30 46-33 76-52l24-12c11-5 46-17 57-24l14-13c40-41 1-83 1-149 0-89-17-345 16-401 24-41 51-12 57-85 4-39 1-95 1-135-1-112-38-610 6-679 1-3 11-17 15-21l12-15c68-64 9-10 46-61 15-20 5-1 18-18 16-21 0-15 27-45l95-112c16-17 16-14 30-34 42-62 1-34 66-68 2-55-5-63-9-109-7-77 1-37-25-91-20-40-3-63-15-103-9-29-5 6-18-35-7-22-2-26-4-49-5-70-22-27-29-90-5-47-7-51-15-93-7-42-1-63-19-97-12-24-12-63-13-98l-16-8-95-76c-60-44-15-62-117-71-25-87-64-54-123-111-27-24-31-37-71-47-55-15-26-9-62-46-62 16-116 105-207 112-74 5-63-25-115-50-82-40-44 12-85-68-117 0-65 6-111 36-24 16-36 2-56 25-27 31 4 18-26 45l-39 25-6 3c-2 1-4 2-6 2-85 39-61 65-112 78-4 1-23 3-33 4l1 435c-18 17-30 35-52 45-3 1-5 2-8 3-22 8-15-1-32 10l-73 63c-42 34-60 79-126 57l-108-73c-27-28-16-8-30-53-90-7-62-61-162-57"></path></g><g class="com.sun.star.drawing.ClosedBezierShape"><path fill="none" d="M10425 10760h358v433h-358z" class="BoundingBox"></path><path fill="#f2cdb1" d="M10425 10914c20 45 10-7 24 38 13 48 6 104 48 142 8 7 10 7 16 12 50 47-5 16 56 41 52 22 9 4 38 27 46 38 66 4 80-7l79-84c26-46 12-154 9-214-41-29-27-10-36-72-5-3-14-8-16-9-67-38-90-28-226-24l-44 58c-22 49 16 7-28 92"></path></g><g class="com.sun.star.drawing.ClosedBezierShape"><path fill="none" d="M9288 11584h162v191h-162z" class="BoundingBox"></path><path fill="#f2cdb1" d="M9296 11739c30 23 29 27 60 35l91-86c1-43 10-80-25-95-31-13-90-9-123-3-16 45-12 102-3 149"></path></g><g class="com.sun.star.drawing.ClosedBezierShape"><path fill="none" d="M5051 6702h3993v9439H5051z" class="BoundingBox"></path><path fill="#fff" d="M6799 8540c134 6 187 92 218 172 36 93 29 198 30 299 0 83-19 171-28 250-6 48-16 99-43 139-24 35-51 60-63 96-13 39-26 84-15 123 7 29 35 64 64 65 67 3 140-17 198-48 67-36 112-92 153-150 16-23 38-6 53 10 45 48 118 60 182 76 31 8 75 18 96-7 25-29 31-84 21-121-12-46-28-87-58-120-47-54-118-149-106-354 7-114 14-232 50-341 112-339 259-708 238-1121-13-276-12-518-1-777 2-46 19-28 29-10 218 423 574 785 670 1317 26 142 74 283 70 427-9 300-75 594-182 850-38 91-51 193-96 281-23 45-64 78-103 109-76 62-174 98-242 169-40 41-69 98-73 155-4 66 21 133 50 192 15 30 43 61 76 66 35 6 73-16 100-39 101-89 189-191 278-291 98-112 183-234 281-344 15-17 34-37 56-37 109-1 220-5 328-1 16 0 17 41 1 43-20 3-65-1-96 3s-49 20-62 54c-8 19-18 41-32 55-92 92-147 106-210 147-21 14-31 46-30 71 4 82-16 143-34 214-94 363-279 677-603 899-44 30-85 31-109 4-113-130-177-297-272-440-16-26-32-47-52-69-29-32-46-23-77 26-84 134-101 282-158 430-12 29-30 60-50 89l3 294c4 44 14 90 37 127 212 341 296 707 304 1081 12 543-80 787-96 1522-6 298-20 604-13 903 2 78 8 158 26 235 9 36 36 65 53 99 33 62 82 103 100 172 19 75 24 180 21 258-1 31-11 94-38 79-89-51-171-62-265-50-41 6-76 55-79 96-6 80 16 158 89 222l-316-5c-47-90-62-151-89-228-40-115-110-177-202-209-118-40-245-63-370-76-99-10-161-4-179-96-16-87-77-163-92-251-23-133-17-269-20-403-2-106 6-221-66-288-32-29-74-41-107-40-65 3-101 74-139 132-46 72-63 132-94 197-32 68-90 185-174 187-111 3-162-127-192-228-59-201-103-398-87-635 1-18 57-24 77-10 24 15 65 40 93 38 81-5 151-10 208-68 81-81 133-191 146-304 61-517 77-997 192-1426 62-233 108-475 212-694 73-153 147-309 202-461l5-254c-31-73-94-160-124-252-33-102-50-204-79-301-6-19-27-33-47-36-28-4-54 47-62 79-26 92-27 190-38 285-8 82-14 165-20 248-8 128-72 205-119 299-64 129-149 243-228 363-36 55-67 32-92 53-73 64-87 2-126 30-58 41-32 67-62 86-27 17-25 40-18 66 8 28-8 48-23 66-12 15-22 25-43 40-28 21-38 24-60 32-20 7-38 18-55 30-49 32-81 67-108 106-9 13-37 14-38 4-3-38-7-97 23-123 46-37 23-66 35-94 18-42 23-73 48-104 31-39 65-79 112-88 23-4 42-33 40-56-4-50-6-88 13-127 104-216 245-412 351-626 18-37 8-82 16-123 11-53 40-104 40-158-1-76-49-147-43-222 6-77 10-147 22-215 14-82 43-167 95-228 24-28 33-69 43-93 31-66 48-142 94-199 23-29 67-38 104-44 33-5 67-3 98-15 32-12 52-53 86-61 27-6 59 6 82 21 33 21 79 33 118 24 50-12 93-54 121-98 33-51 46-111 57-170 9-45 23-95 30-144s8-106 8-155c0-31-16-61-29-88-16-34-26-63-43-94-23-43-37-92-38-141-2-57 13-125 54-165 55-53 147-91 208-89"></path></g><g class="com.sun.star.drawing.ClosedBezierShape"><path fill="none" d="M5048 6869h1049v3407H5048z" class="BoundingBox"></path><path fill="#fff" d="M5517 6891c20-26 40-37 35 16-82 905 93 1538 446 1947 58 67 89 132 93 216 6 111 8 268-12 338-20 72-8 139-10 212 0 30-11 76-46 76-72 1-96 23-122 60-76 106-83 201-116 246-77 107-101 181-104 273-58-81-129-153-191-228-145-175-261-370-334-622-82-281-109-673-103-1109-29-423 51-880 464-1425"></path></g><g class="com.sun.star.drawing.ClosedBezierShape"><path fill="none" d="M6265 8248h1043v1405H6265z" class="BoundingBox"></path><path fill="#fff" d="M6267 9537c-8 33 4 66 55 94 25 14 59 26 87 18 57-14 113-76 131-139 34-121 57-250 59-372 2-63-25-105-46-155-29-70-48-145-46-219 4-169 145-256 285-262 138-5 279 88 290 313 3 64 9 133 5 198-8 121-27 242-57 360-16 65-71 117-82 182-5 29 1 73 36 80 46 7 90-19 139-35 27-9 57-29 79-48 30-26 58-62 70-86 19-42 28-92 33-139 3-36 2-61-3-105-29-1-64 7-92 0-18-4-30-22-31-41-6-70-19-135-15-205 4-55 13-111 27-164 17-65 45-127 51-194 10-103-45-177-106-245-59-65-151-122-240-125-140-4-287 47-379 152-74 83-118 206-123 321-4 98 27 192 55 287 12 41 19 89 15 134-7 70-7 163-66 201-69 45-112 120-131 194"></path></g><g class="com.sun.star.drawing.ClosedBezierShape"><path fill="none" d="M6694 9161h144v58h-144z" class="BoundingBox"></path><path d="M6694 9169c7 54 9 44 63 46 77 3 74 14 80-54l-136 3c-2 1-5 3-7 5"></path></g><g class="com.sun.star.drawing.ClosedBezierShape"><path fill="none" d="M11946 6985h2556v4092h-2556z" class="BoundingBox"></path><path fill="#fff" d="M11950 9663c-14 13 14 25 26 26 124 6 249-19 373-7 42 5 83 29 114 58 49 45 93 99 119 161 25 58 5 130 31 189 140 321 285 632 501 926 48 66 88 79 146 31 158-131 271-398 311-617 6-32 26-75 55-71 69 11 103 100 122 168 31 111 45 217 79 315 180-50 345-160 512-251 56-31 110-70 155-116 10-10 10-38-3-41-75-17-214-22-230-13-44 25-70 30-108 33-74 6-128-25-125-95 1-35 18-73 44-97 56-51 129-80 194-121 68-44 146-77 205-132 17-16 50-43 11-71-42-30-86-37-132-59-50-24-111-44-155-77-24-19 6-76-20-75-95 1-262-90-363-217-14-16-43-1-64 0-56 5-107 17-161 5-50-11-100-30-130-71-21-27-25-67-18-101s30-70 55-95c38-37 97-47 130-86 57-66 71-154 70-231-2-66-31-127-52-189-101-296-252-579-313-886-55-276-110-562-31-843 7-27-16-40-46-13-360 332-573 752-608 1237-22 307 58 615 132 914 42 166 125 320 214 465 38 61 94 120 161 144 68 23 142 1 210-9 19-3 22-40 54-29 24 9 19 51 17 77-6 90-8 186-33 274-14 51-46 92-81 132-26 29-64 45-93 71-16 13-20 38-41 44-39 10-92-25-114-60-74-114-119-216-189-313s-150-184-206-187c-35-3-55-55-55-91 0-25 14-46 24-68 11-24 59-54 38-71-73-55-165-98-256-97-105 2-197 69-296 104 0 0-148 96-180 126"></path></g><g class="com.sun.star.drawing.ClosedBezierShape"><path fill="none" d="M13775 8162h1202v1537h-1202z" class="BoundingBox"></path><path fill="#fff" d="M14213 9546c-1 33 5 75-5 107-7 20-24 49-45 45-79-17-149-64-216-108-31-20-53-52-73-82-18-25-25-57-40-84-18-31-58-54-59-90-1-30 19-46 37-63 61-57 85-180 95-275 11-112 3-237 31-349 41-166 122-310 253-428 68-60 120-52 186-56 158-8 294 64 389 164 56 59 106 138 105 236-2 205-28 407-42 611-2 45-13 90-12 135 1 46 10 93 32 132 25 44 65 72 97 110 10 12 34 20 29 34-8 21-36 44-57 43-108-1-220 1-333 3-20 0-37-19-47-36-12-23-13-49-5-74 6-18 43-28 53-45 19-33 5-79 12-117 12-65 32-113 31-177-1-51-14-86-29-130-11-32-3-77 16-102 20-26 35-43 46-75 26-75 30-184-13-264-54-101-144-230-238-235-92-5-182 41-253 106-46 42-92 98-92 162-1 27 6 51 19 79 10 20 18 51-2 66-13 11-11 116-28 197-13 60-31 115-24 176 5 37 0 79-3 136-1 28 28 44 55 59 25 14 57 7 80 24 45 36 53 84 50 165"></path></g><g class="com.sun.star.drawing.ClosedBezierShape"><path fill="none" d="M13454 6671h2754v9665h-2754z" class="BoundingBox"></path><path fill="#fff" d="M14136 8751c-1 75-21 106-36 209-10 65-22 141-22 206-1 38-2 77 16 109 17 30 46 45 81 61 44 19 67 78 66 128-1 62-7 123-9 185-1 40-75 55 0 119 57 49 126 60 201 88 49 18 124 55 123 104-1 59-70 101-119 137-113 81-238 114-333 209-36 37-41 80-16 94 49 26 107-14 165-17 78-4 156 4 241 2 32 0 71 30 73 61 3 41-28 78-60 103-203 152-469 250-663 338-12 55 5 110 32 155l-3 294c-87 151-194 178-267 599-81 469 48 951 88 1425 35 416 90 825 79 1249-7 310-109 603-269 891-60 110-63 172-23 235 38 59 102 100 179 123 106 32 217-17 248-97 5-14 49-12 51 3 5 46 2 97 6 139s-51 95-84 121c-108 87-192 119-311 194-14 9-52 38-41 51 28 33 78 68 122 65 63-4 107-45 171-74 67-30 47-75 51-119 90-4 197 10 297 2-7-129-21-193 5-273 21-64 73-103 125-146 147-119 324-165 507-198 86-15 162-63 231-119 54-44 90-83 150-146 35-37 79 13 88 44 9 37 22 75 42 109 31 51 57 26 106-5 37-24 78-44 112-84 38-44 31-106 26-167-3-39 2-85 27-115 47-56 123-78 176-128 32-29 66-62 84-101 104-219 175-453 129-674-77 45-181 83-266 85-113 3-192-61-233-141-73-140-40-287-55-482-35-451-283-921-294-1453-3-196-74-371-203-516-103-115-154-259-201-405l2-230c31-77 38-145 88-205 72-84 120-157 189-243 11-13 31-55 50-52 29 5 46 38 44 75-4 124-22 253-5 376 10 72 47 140 87 202 114 173 318 406 501 599 52 56 90 113 144 167 18 17 44 14 69 46 34 43 79 80 95 135 16 53 24 119 58 167 16 23 93 52 113 32 31-30-9-86-12-133 30 13 61 20 58 5-12-88-20-172-73-237-25-30-88-22-109-55-25-42 11-100-13-143-131-245-312-461-441-708-72-140-151-293-141-445 6-84-11-163-4-252 440-238 696-965 749-2003 30-567-161-1160-498-1629-19-33-44-38-45 6-34 324-21 762-87 1224-35 246-221 624-384 904-68 117-95 236-103 394-3 51-4 127 9 155 17 36 33 34 25 118-6 57-52 98-91 135-27 26-67 46-105 45-106-5-217 7-326 0-40-3-68-55-82-93-12-29-3-65 10-95 14-35 69-45 70-90 1-43 1-77 13-125 10-37 17-72 16-107-1-43-22-85-24-128-3-37 4-75 14-111 15-51 52-75 55-149 6-137-127-355-240-351-82 3-137 22-195 70-41 34-89 78-102 130-11 40 32 79 31 122"></path></g><g class="com.sun.star.drawing.ClosedBezierShape"><path fill="none" d="M10491 11835h243v454h-243z" class="BoundingBox"></path><path fill="#010101" d="m10733 12082-1-243c-43-3-176-7-211 0-68 16 1 88 2 152 1 52-6 166 6 202 11 33 21 26 49 50 34 31 16 40 61 45 21-8 8 1 44-36 12-14 4-1 13-15 12-21 6-19 15-39 18-37 22 35 22-116"></path></g><g class="com.sun.star.drawing.ClosedBezierShape"><path fill="none" d="M9164 9674h2436v5755H9164z" class="BoundingBox"></path></g><g class="com.sun.star.drawing.ClosedBezierShape"><path fill="none" d="M9164 9674h2436v5755H9164z" class="BoundingBox"></path><path fill="#010101" d="M10325 11068c-114 79-210 162-335 227-55 28-47 112-44 222 2 60 5 113 8 193 20 10 51 35 20 60-48 38-71 68-118 104-48 39-92 16-116 0-62-43-138-97-199-136 13-88 15-158 3-240-107 1-220-4-328-3-14 34-27 72-35 108-10 46-17 87-17 139 0 63 76 102 154 186 85 91 166 189 247 291 112 140 242 178 449 293 12 5 27 5 47 18l-7 437c15 15 43 19 42 36-3 139-3 269-6 407-8 91 36 114 77 141v1024c1 22-2 108 3 130 3 11 100 49 100 91-1 122 9 218 7 340-4 25-6 50-13 75-22 69-43 62-55 158-7 49 25 67 64 55 107-32 202-42 294-110 29-21 14-74 22-106 5-18-2-45 37-44 40 1 92 0 137 0 22-5 45 8 45 33-1 35 1 70 1 105 1 24 9 46 32 46 60 1 91 2 151 3 31-5 87-80 91-112 3-60 3-102 4-165 36-3 78 3 77-70-4-108 3-227-1-335 2-30 34-41 37-66-7-332-11-626-5-957-1-48 83-12 75-117-2-242-9-509-11-752-1-37 4-51 22-72 89-105 177-211 269-312 46-50 55-103 45-160-51-223-98-446-149-669-18-75-62-140-108-172-119-83-310-224-392-296-29-26-35-33-72-33 0-12-10-24 4-28 39-11 27-64 26-106-1-69-15-108-77-156 2-6-1-23 1-29 21-6 62 6 70-24 41-143 84-287 123-431 19-70-18-120-48-172-90-151-205-286-307-430-15-20-25-17-53 9-153 151-281 313-409 502-21 31-43 81-26 124 48 128 82 265 128 393l15 30c21-6 56-8 53 14-37 49-67 87-68 165-2 37 0 65 37 91 10 4-5 46-18 53m-266 743v-434c10-2 28-4 32-5 51-13 27-39 112-77l6-3 6-3 39-25c30-27-1-14 26-45 20-23 32-9 56-25 48-30-6-37 112-36 41 80 3 29 85 68 52 25 41 55 116 50 90-6 144-96 207-112 35 37 6 31 61 46 40 10 45 23 70 47 59 57 98 24 123 112 102 8 57 26 117 71l96 75c1 1 15 8 15 9 1 34 1 73 13 97 18 34 12 55 20 97 7 42 9 46 14 93 7 63 24 20 29 90 2 23-3 27 5 49 12 41 8 6 17 36 12 39-5 62 15 102 27 54 19 14 25 91 4 46 11 55 9 109-64 34-23 6-66 68-14 20-14 17-30 34l-94 112c-28 30-12 24-28 45-13 18-3-2-18 19-37 52 22-3-45 62l-13 14-15 21c-44 69-7 566-6 678 0 40 3 96 0 135-7 73-34 44-58 85-33 56-16 312-16 401 0 66 39 108-1 149l-14 13c-11 7-46 19-57 24l-24 12c-29 19-58 22-75 52-50 93 53 208-105 216-14 16-7 31-27 31-21 0-13-12-30-26-46-36-11 10-64-54-4-5-2-4-7-11l-7-12c-47-2-146 12-176-12-45-32-11-110-144-172-4-2-15-8-18-9-12-7-45-8-57-22-31-59-5-546-14-665-95-58-78-38-76-234 2-268-34-72-34-279v-314c0-65 18-167-36-204l-95-57c-38-32-48-27-81-53l-73-38c-49-15-19-3-49-22-35-22-84-27-116-54l-90-90c-9-10-16-14-24-21l-95-137c-40-66-83-68-37-167 99-4 72 50 161 57 14 45 4 25 30 53l108 73c67 22 84-23 126-57l72-63c17-11 10-2 33-10 2-1 5-2 7-3 22-10 34-28 52-45m390-859c-13-45-4 8-24-38 44-85 7-43 28-92l45-58c135-4 158-15 224 24 2 2 11 6 16 9 9 62-5 43 36 72 3 60 16 167-9 213l-78 84c-14 12-34 45-80 7-29-23 14-5-38-27-60-25-6 6-55-41-6-5-8-5-16-12-42-37-35-94-49-141m144-304c-91 0-141 1-216-19l-17-90-2-7-57-150c-8-27-3-41-11-70-11-37-20-7-3-57l74-133 242-271c15-8 32-9 57-6 12 17 12 25 24 46 23 39 24 24 34 39 17 26 0 26 19 53 15 21 16-1 35 36 8 15 10 36 22 51l9 9c6 5 10 8 12 10-7-6-29-25-1-3 27 20 10 9 35 46l7 10c1 1 3 3 4 5 13 24 5 22 15 48 12 31 0-3 13 23 32 69-13 140-14 145-6 22 0 46-7 67-13 44-11-3-27 43-8 22-3 37-12 62-12 32-11 8-19 52s15 28-19 43c-11 23 12 13-35 18zm-1147 1040-89 85c-31-8-30-11-60-35-11-46-14-102 3-147 33-8 91-12 122 2 34 15 26 52 24 95m835 2939-2-355c54-2 35-5 73 30 33 28 24 10 52 66 12 25 3 65 84 79 94 16 122-25 166 31 32 42 62 81 120 83 53 1 50-11 106-35 26-11 18-11 40-23 23-13 32-8 55-17 18-61-1-34 41-66l4-144c23-22 24-32 66-33 26 88 12 319 11 429v216c-1 86-16 78-107 116-4 50 0 95-2 145-2 46-6 50-52 94-81-12-67-139-70-204-63-3-47 7-85 15-43 9-114-6-232 15-96 16-24 54-61 126-2 4-32 35-36 37l-65 7-2-558c-87-60-69-32-104-54"></path></g><g class="com.sun.star.drawing.ClosedBezierShape"><path fill="none" d="M8917 9656h3229v6215H8917z" class="BoundingBox"></path></g><g class="com.sun.star.drawing.PolyPolygonShape"><path fill="none" d="M13491 17200h468v503h-468z" class="BoundingBox"></path><path d="M13665 17200h116l177 502h-105l-34-103h-190l-33 103h-105zm59 100-68 214h136z"></path></g><g class="com.sun.star.drawing.ClosedBezierShape"><path fill="none" d="M13056 17200h405v503h-405z" class="BoundingBox"></path><path d="M13056 17702v-502h238c53 0 93 11 119 34 26 24 38 59 38 108 0 31-6 56-18 77q-19.5 30-54 42c21 7 36 19 45 35s14 41 15 74l2 60v2c1 30 7 48 19 55v15h-111c-3-7-6-16-8-26s-3-23-3-37l-2-53c-1-32-6-53-17-63-10-11-29-17-55-17h-108v196zm100-283h119c26 0 45-5 57-16 12-10 18-27 18-50 0-22-6-39-18-50-11-12-29-17-52-17h-124z"></path></g><g class="com.sun.star.drawing.PolyPolygonShape"><path fill="none" d="M12594 17200h391v503h-391z" class="BoundingBox"></path><path d="M12738 17702v-413h-144v-89h390v89h-144v413z"></path></g><g class="com.sun.star.drawing.ClosedBezierShape"><path fill="none" d="M12167 17186h399v531h-399z" class="BoundingBox"></path><path d="M12167 17546h99c3 28 14 49 32 62 19 14 45 20 80 20 29 0 51-5 66-16 15-10 22-26 22-48 0-30-42-55-128-75l-3-1c-2 0-6-1-11-2-45-11-78-22-97-35-17-11-30-26-39-46-10-19-14-41-14-67q0-75 48-114c33-25 79-38 140-38 58 0 103 13 135 41s49 67 51 118h-97c-1-24-10-43-27-56-16-13-39-19-71-19-26 0-46 5-61 16-14 10-21 25-21 46 0 26 28 46 83 59l36 9c36 9 61 16 76 21 15 6 28 11 39 18q30 16.5 45 45c10 18 15 41 15 67 0 53-17 93-52 122-34 29-82 43-144 43-63 0-111-15-146-44s-54-71-56-126"></path></g><g class="com.sun.star.drawing.PolyPolygonShape"><path fill="none" d="M11683 17200h468v503h-468z" class="BoundingBox"></path><path d="M11857 17200h116l177 502h-105l-34-103h-190l-33 103h-105zm59 100-68 214h136z"></path></g><g class="com.sun.star.drawing.ClosedBezierShape"><path fill="none" d="M11037 17200h417v503h-417z" class="BoundingBox"></path><path d="M11037 17702v-502h191c76 0 132 20 169 62 36 41 55 105 55 189 0 46-7 86-21 121-13 36-33 64-59 86-19 15-41 27-66 34s-60 10-105 10zm98-90h81q70.5 0 102-39c21-25 31-66 31-122s-9-97-29-123c-19-28-50-41-92-41h-93z"></path></g><g class="com.sun.star.drawing.PolyPolygonShape"><path fill="none" d="M10521 17200h468v503h-468z" class="BoundingBox"></path><path d="M10695 17200h116l177 502h-105l-34-103h-190l-33 103h-105zm59 100-68 214h136z"></path></g><g class="com.sun.star.drawing.ClosedBezierShape"><path fill="none" d="M9893 17200h405v503h-405z" class="BoundingBox"></path><path d="M9893 17702v-502h238c53 0 93 11 119 34 26 24 38 59 38 108 0 31-6 56-18 77q-19.5 30-54 42c21 7 36 19 45 35s14 41 15 74l2 60v2c1 30 7 48 19 55v15h-111c-3-7-6-16-8-26s-3-23-3-37l-2-53c-1-32-6-53-17-63-10-11-29-17-55-17h-108v196zm100-283h119c26 0 45-5 57-16 12-10 18-27 18-50 0-22-6-39-18-50-11-12-29-17-52-17h-124z"></path></g><g class="com.sun.star.drawing.ClosedBezierShape"><path fill="none" d="M9412 17198h394v518h-394z" class="BoundingBox"></path><path d="M9413 17198h101v315c0 38 7 66 22 85q22.5 27 72 27c34 0 58-9 73-27 16-18 23-47 23-85v-315h101v326c0 61-17 109-51 142-33 33-81 49-144 49-65 0-113-16-147-49s-50-81-50-142z"></path></g><g class="com.sun.star.drawing.PolyPolygonShape"><path fill="none" d="M8949 17200h391v503h-391z" class="BoundingBox"></path><path d="M9093 17702v-413h-144v-89h390v89h-144v413z"></path></g><g class="com.sun.star.drawing.PolyPolygonShape"><path fill="none" d="M8798 17200h103v503h-103z" class="BoundingBox"></path><path d="M8798 17702v-502h102v502z"></path></g><g class="com.sun.star.drawing.ClosedBezierShape"><path fill="none" d="M8085 17187h448v530h-448z" class="BoundingBox"></path><path d="M8532 17529c-4 58-25 103-64 137s-91 50-154 50c-72 0-129-23-169-69s-60-112-60-196c0-85 20-151 61-196 41-46 100-68 177-68 62 0 113 15 149 46s56 75 59 133h-99c-4-28-16-50-35-65-18-15-43-23-74-23-44 0-78 15-101 45s-35 72-35 128c0 55 12 97 35 126 23 31 56 46 98 46q45 0 75-24c19-17 33-40 39-70z"></path></g><g class="com.sun.star.drawing.PolyPolygonShape"><path fill="none" d="M7900 17200h103v503h-103z" class="BoundingBox"></path><path d="M7900 17702v-502h102v502z"></path></g><g class="com.sun.star.drawing.ClosedBezierShape"><path fill="none" d="M7422 17186h399v531h-399z" class="BoundingBox"></path><path d="M7422 17546h99c3 28 14 49 32 62 19 14 45 20 80 20 29 0 51-5 66-16 15-10 22-26 22-48 0-30-42-55-128-75l-3-1c-2 0-6-1-11-2-45-11-78-22-97-35-17-11-30-26-39-46-9-19-14-41-14-67q0-75 48-114c33-25 79-38 140-38 58 0 103 13 135 41s49 67 51 118h-97c-1-24-10-43-27-56-16-13-39-19-71-19-26 0-46 5-61 16-14 10-21 25-21 46 0 26 28 46 83 59l36 9c36 9 61 16 76 21 15 6 28 11 39 18q30 16.5 45 45c10 18 15 41 15 67 0 53-17 93-52 122-34 29-82 43-144 43-63 0-111-15-146-44s-54-71-56-126"></path></g><g class="com.sun.star.drawing.PolyPolygonShape"><path fill="none" d="M6574 16237h751v196h-751z" class="BoundingBox"></path><path fill="#fff" d="M6574 16237v195h750v-195z"></path></g><g class="com.sun.star.drawing.PolyPolygonShape"><path fill="none" d="M7427 16237h294v196h-294z" class="BoundingBox"></path><path fill="#fff" d="M7720 16432v-195h-292v195z"></path></g><g class="com.sun.star.drawing.PolyPolygonShape"><path fill="none" d="M10187 15955h199v190h-199z" class="BoundingBox"></path><path fill="#fff" d="M10188 15955v189h197v-189z"></path></g><g class="com.sun.star.drawing.PolyPolygonShape"><path fill="none" d="M10481 15955h359v190h-359z" class="BoundingBox"></path><path fill="#fff" d="M10481 15955v189h358v-189z"></path></g><g class="com.sun.star.drawing.PolyPolygonShape"><path fill="none" d="M10935 15955h273v190h-273z" class="BoundingBox"></path><path fill="#fff" d="M10935 15955v189h272v-189z"></path></g><g class="com.sun.star.drawing.PolyPolygonShape"><path fill="none" d="M9876 16237h406v196h-406z" class="BoundingBox"></path><path fill="#fff" d="M10281 16432v-195h-405v195z"></path></g><g class="com.sun.star.drawing.PolyPolygonShape"><path fill="none" d="M10376 16237h316v196h-316z" class="BoundingBox"></path><path fill="#fff" d="M10376 16237v195h314v-195z"></path></g><g class="com.sun.star.drawing.PolyPolygonShape"><path fill="none" d="M10785 16237h335v196h-335z" class="BoundingBox"></path><path fill="#fff" d="M10786 16237v195h333v-195z"></path></g><g class="com.sun.star.drawing.PolyPolygonShape"><path fill="none" d="M11194 16237h459v196h-459z" class="BoundingBox"></path><path fill="#fff" d="M11194 16237v195h458v-195z"></path></g><g class="com.sun.star.drawing.PolyPolygonShape"><path fill="none" d="M13974 16228h813v218h-813z" class="BoundingBox"></path><path fill="#fff" d="M14786 16228h-812v217h812z"></path></g><g class="com.sun.star.drawing.PolyPolygonShape"><path fill="none" d="M14882 16532h778v222h-778z" class="BoundingBox"></path><path fill="#fff" d="M15659 16532h-777v221h777z"></path></g><g class="com.sun.star.drawing.PolyPolygonShape"><path fill="none" d="M14273 16532h515v222h-515z" class="BoundingBox"></path><path fill="#fff" d="M14787 16753v-221h-514v221z"></path></g><g class="com.sun.star.drawing.PolyPolygonShape"><path fill="none" d="M13704 16532h468v222h-468z" class="BoundingBox"></path><path fill="#fff" d="M14171 16753v-221h-467v221z"></path></g><g class="com.sun.star.drawing.PolyPolygonShape"><path fill="none" d="M13038 16532h565v222h-565z" class="BoundingBox"></path><path fill="#fff" d="M13602 16753v-221h-564v221z"></path></g><g class="com.sun.star.drawing.PolyPolygonShape"><path fill="none" d="M11750 16532h586v222h-586z" class="BoundingBox"></path><path fill="#fff" d="M12335 16753v-221h-585v221z"></path></g><g class="com.sun.star.drawing.PolyPolygonShape"><path fill="none" d="M11136 16532h517v222h-517z" class="BoundingBox"></path><path fill="#fff" d="M11652 16753v-221h-516v221h164l97-2v2z"></path></g><g class="com.sun.star.drawing.PolyPolygonShape"><path fill="none" d="M10478 16532h584v223h-584z" class="BoundingBox"></path><path fill="#fff" d="M11061 16754v-222h-582v222z"></path></g><g class="com.sun.star.drawing.PolyPolygonShape"><path fill="none" d="M12434 16532h528v222h-528z" class="BoundingBox"></path><path fill="#fff" d="M12434 16532v221h527v-221z"></path></g><g class="com.sun.star.drawing.PolyPolygonShape"><path fill="none" d="M9866 16532h517v223h-517z" class="BoundingBox"></path><path fill="#fff" d="M10382 16754v-222h-516v222z"></path></g><g class="com.sun.star.drawing.PolyPolygonShape"><path fill="none" d="M9240 16532h530v223h-530z" class="BoundingBox"></path><path fill="#fff" d="M9769 16754v-222h-529v222z"></path></g><g class="com.sun.star.drawing.PolyPolygonShape"><path fill="none" d="M7923 16532h581v223h-581z" class="BoundingBox"></path><path fill="#fff" d="M8503 16754v-222h-580v222z"></path></g><g class="com.sun.star.drawing.PolyPolygonShape"><path fill="none" d="M8597 16532h569v223h-569z" class="BoundingBox"></path><path fill="#fff" d="M8598 16532v222l567-1v-221z"></path></g><g class="com.sun.star.drawing.PolyPolygonShape"><path fill="none" d="M7301 16532h548v223h-548z" class="BoundingBox"></path><path fill="#fff" d="M7848 16754v-222h-547v222z"></path></g><g class="com.sun.star.drawing.PolyPolygonShape"><path fill="none" d="M6601 16532h587v223h-587z" class="BoundingBox"></path><path fill="#fff" d="M7187 16754v-222h-586v222z"></path></g><g class="com.sun.star.drawing.PolyPolygonShape"><path fill="none" d="M5705 16532h800v224h-800z" class="BoundingBox"></path><path fill="#fff" d="M6504 16755v-223h-798v223z"></path></g><g class="com.sun.star.drawing.PolyPolygonShape"><path fill="none" d="M5706 16811h363v200h-363z" class="BoundingBox"></path><path fill="#fff" d="M6067 17009v-198h-361v198z"></path></g><g class="com.sun.star.drawing.PolyPolygonShape"><path fill="none" d="M6171 16810h335v200h-335z" class="BoundingBox"></path><path fill="#fff" d="M6171 16810v198h334v-198z"></path></g><g class="com.sun.star.drawing.PolyPolygonShape"><path fill="none" d="M6601 16810h225v200h-225z" class="BoundingBox"></path><path fill="#fff" d="M6601 16810v199h224v-199z"></path></g><g class="com.sun.star.drawing.PolyPolygonShape"><path fill="none" d="M6929 16810h594v200h-594z" class="BoundingBox"></path><path fill="#fff" d="M6929 16810v199h592v-199z"></path></g><g class="com.sun.star.drawing.PolyPolygonShape"><path fill="none" d="M7626 16810h624v200h-624z" class="BoundingBox"></path><path fill="#fff" d="M7626 16810v199h623v-199z"></path></g><g class="com.sun.star.drawing.PolyPolygonShape"><path fill="none" d="M8345 16810h721v200h-721z" class="BoundingBox"></path><path fill="#fff" d="M8345 16810v199h720v-199z"></path></g><g class="com.sun.star.drawing.PolyPolygonShape"><path fill="none" d="M9161 16810h615v200h-615z" class="BoundingBox"></path><path fill="#fff" d="M9161 16810v199h614v-199z"></path></g><g class="com.sun.star.drawing.PolyPolygonShape"><path fill="none" d="M11396 16809h635v201h-635z" class="BoundingBox"></path><path fill="#fff" d="M11396 16809v200h634v-200z"></path></g><g class="com.sun.star.drawing.PolyPolygonShape"><path fill="none" d="M9869 16810h726v200h-726z" class="BoundingBox"></path><path fill="#fff" d="M10594 17009v-199h-724v199z"></path></g><g class="com.sun.star.drawing.PolyPolygonShape"><path fill="none" d="M10691 16809h611v200h-611z" class="BoundingBox"></path><path fill="#fff" d="M10691 16809v199h610v-199z"></path></g><g class="com.sun.star.drawing.PolyPolygonShape"><path fill="none" d="M12115 16809h731v201h-731z" class="BoundingBox"></path><path fill="#fff" d="M12115 16809v200h730v-200z"></path></g><g class="com.sun.star.drawing.PolyPolygonShape"><path fill="none" d="M12929 16809h613v201h-613z" class="BoundingBox"></path><path fill="#fff" d="M12929 16809v200h612v-200z"></path></g><g class="com.sun.star.drawing.PolyPolygonShape"><path fill="none" d="M13646 16809h629v201h-629z" class="BoundingBox"></path><path fill="#fff" d="M13646 16809v200h628v-200z"></path></g><g class="com.sun.star.drawing.PolyPolygonShape"><path fill="none" d="M14378 16809h409v201h-409z" class="BoundingBox"></path><path fill="#fff" d="M14378 16809v200h408v-200z"></path></g><g class="com.sun.star.drawing.PolyPolygonShape"><path fill="none" d="M14882 16809h345v201h-345z" class="BoundingBox"></path><path fill="#fff" d="M14882 16809v200h344v-200z"></path></g><g class="com.sun.star.drawing.PolyPolygonShape"><path fill="none" d="M15330 16808h330v201h-330z" class="BoundingBox"></path><path fill="#fff" d="M15330 16808v200h328v-200z"></path></g><g class="com.sun.star.drawing.PolyPolygonShape"><path fill="none" d="M6601 17094h513v731h-513z" class="BoundingBox"></path><path fill="#fff" d="M7113 17824v-730h-512v730z"></path></g><g class="com.sun.star.drawing.ClosedBezierShape"><path fill="none" d="M9994 17285h195v135h-195z" class="BoundingBox"></path><path fill="#fff" d="M9994 17286v133h119c25 0 45-6 57-16 12-11 18-27 18-50s-5-40-17-51-29-16-54-16z"></path></g><g class="com.sun.star.drawing.PolyPolygonShape"><path fill="none" d="M10685 17300h138v215h-138z" class="BoundingBox"></path><path fill="#fff" d="m10753 17300-68 214h137z"></path></g><g class="com.sun.star.drawing.ClosedBezierShape"><path fill="none" d="M11136 17287h215v325h-215z" class="BoundingBox"></path><path fill="#fff" d="M11136 17287v323h80c48 0 82-13 102-38 21-25 32-65 32-122s-10-98-29-124c-20-26-50-39-93-39z"></path></g><g class="com.sun.star.drawing.PolyPolygonShape"><path fill="none" d="M11848 17300h138v215h-138z" class="BoundingBox"></path><path fill="#fff" d="m11916 17300-68 214h137z"></path></g><g class="com.sun.star.drawing.ClosedBezierShape"><path fill="none" d="M13157 17285h195v135h-195z" class="BoundingBox"></path><path fill="#fff" d="M13157 17286v133h119c25 0 45-6 57-16 12-11 18-27 18-50s-5-40-17-51-29-16-54-16z"></path></g><g class="com.sun.star.drawing.PolyPolygonShape"><path fill="none" d="M13655 17300h138v215h-138z" class="BoundingBox"></path><path fill="#fff" d="m13723 17300-68 214h137z"></path></g><g class="com.sun.star.drawing.PolyPolygonShape"><path fill="none" d="M14245 17092h543v733h-543z" class="BoundingBox"></path><path fill="#fff" d="M14245 17092v732h542v-732z"></path></g><g class="com.sun.star.drawing.ClosedBezierShape"><path fill="none" d="M7213 17092h6964v733H7213z" class="BoundingBox"></path><path fill="#fff" d="M14175 17824v-732l-6962 1v731zm-393-625 176 503h-105l-34-104h-189l-32 104h-106l174-503zm-330 143c0 31-7 56-19 77-13 20-31 34-54 41q31.5 12 45 36c13.5 24 14 40 15 74l2 59v2c1 31 7 49 19 56v15h-110c-3-7-6-16-8-26s-3-23-3-38l-2-53c-1-31-6-52-17-63-10-11-28-16-55-16h-107v196h-100v-503h237c53 0 92 12 118 35q39 36 39 108m-611-53v413h-101v-413h-144v-90h389v90zm-450 111c35 9 61 16 76 21s28 11 39 18q30 16.5 45 45c10 18 15 41 15 67 0 52-17 93-51 122-35 29-84 43-146 43s-110-15-145-44-54-72-56-126h99c4 28 14 48 33 61 18 13 44 20 78 20 29 0 51-5 67-16 15-11 22-26 22-47 0-30-43-56-128-75l-3-1-10-2c-46-11-78-22-98-35-17-11-30-27-39-46s-14-41-14-68c0-48 16-87 49-113 32-26 78-39 139-39 57 0 103 14 135 42s49 68 51 118h-96c-2-24-11-43-29-55-16-13-39-20-70-20-26 0-46 6-60 16-15 11-22 26-22 46 0 26 28 46 83 59zm-417-201 176 503h-106l-33-104h-189l-32 104h-106l174-503zm-578 62c37 43 56 106 56 190 0 46-7 86-21 121-13 35-33 63-59 85-19 16-42 28-66 35-25 6-60 10-105 10h-164v-503h192c75 0 131 21 167 62m-585-62 176 503h-105l-34-104h-189l-32 104h-106l174-503zm-524 143c0 31-6 56-18 77-13 20-31 34-54 41q31.5 12 45 36c13.5 24 14 40 15 74l2 59v2c1 31 7 49 19 56v15h-110c-3-7-6-16-8-26s-3-23-3-38l-2-53c-1-31-6-52-17-63-10-11-29-16-55-16h-107v196h-100v-503h237c53 0 92 12 118 35 26 24 38 60 38 108m-482-144v326c0 62-17 109-50 142-34 33-82 50-145 50s-112-17-145-49c-34-34-51-81-51-143v-326h101v315c0 39 8 67 23 85 15 17 39 26 71 26 34 0 58-9 73-26 15-18 23-46 23-85v-315zm-610 91v413h-101v-413h-145v-90h390v90zm-298-90v503h-100v-503zm-367 330c-4 57-25 102-64 137-39 33-90 50-153 50-72 0-128-23-168-70s-60-112-60-195c0-85 20-151 61-197 41-45 100-68 176-68 63 0 112 16 148 47s56 76 60 133h-100c-4-28-15-50-33-65-19-15-44-22-75-22-44 0-77 15-100 44s-35 72-35 128c0 54 12 96 34 126 23 30 56 45 98 45 31 0 56-9 75-24 19-16 32-39 38-69zm-530-330v503h-100v-503zm-197 285c10 18 15 41 15 67 0 52-17 93-51 122s-83 43-145 43c-61 0-110-15-145-44s-53-72-56-126h99c4 28 15 48 33 61s44 20 79 20c29 0 51-5 66-16 14-11 22-26 22-47 0-30-43-56-128-75l-3-1-10-2c-46-11-78-22-98-35-17-11-30-27-39-46s-14-41-14-68c0-48 17-87 49-113s79-39 140-39c57 0 101 14 133 42 33 28 49 68 51 118h-96c-2-24-11-43-27-55-17-13-40-20-70-20-27 0-47 6-61 16-14 11-21 26-21 46 0 26 27 46 83 59l35 9c35 9 61 16 76 21 14 5 28 11 39 18 20 11 34 26 44 45"></path></g><g class="com.sun.star.drawing.PolyPolygonShape"><path fill="none" d="M5705 17908h800v217h-800z" class="BoundingBox"></path><path fill="#fff" d="M6504 18124v-215h-798v215z"></path></g><g class="com.sun.star.drawing.PolyPolygonShape"><path fill="none" d="M5706 18209h356v181h-356z" class="BoundingBox"></path><path fill="#fff" d="M6061 18389v-180h-355v180z"></path></g><g class="com.sun.star.drawing.PolyPolygonShape"><path fill="none" d="M6163 18208h343v182h-343z" class="BoundingBox"></path><path fill="#fff" d="M6163 18208v180h342v-180z"></path></g><g class="com.sun.star.drawing.PolyPolygonShape"><path fill="none" d="M6601 18208h236v182h-236z" class="BoundingBox"></path><path fill="#fff" d="M6601 18208v180h234v-180z"></path></g><g class="com.sun.star.drawing.PolyPolygonShape"><path fill="none" d="M6601 17908h606v217h-606z" class="BoundingBox"></path><path fill="#fff" d="M6601 18124h605v-215h-605z"></path></g><g class="com.sun.star.drawing.PolyPolygonShape"><path fill="none" d="M6934 18208h605v182h-605z" class="BoundingBox"></path><path fill="#fff" d="M7538 18208h-604v180h604z"></path></g><g class="com.sun.star.drawing.PolyPolygonShape"><path fill="none" d="M7289 17908h562v217h-562z" class="BoundingBox"></path><path fill="#fff" d="M7289 18124h561v-215h-561z"></path></g><g class="com.sun.star.drawing.PolyPolygonShape"><path fill="none" d="M7932 17908h575v216h-575z" class="BoundingBox"></path><path fill="#fff" d="M7932 17908v215h574v-215z"></path></g><g class="com.sun.star.drawing.PolyPolygonShape"><path fill="none" d="M8596 17908h577v217h-577z" class="BoundingBox"></path><path fill="#fff" d="M8596 17908v216h576v-216z"></path></g><g class="com.sun.star.drawing.PolyPolygonShape"><path fill="none" d="M9239 17908h541v217h-541z" class="BoundingBox"></path><path fill="#fff" d="M9239 17908v216h540v-216z"></path></g><g class="com.sun.star.drawing.PolyPolygonShape"><path fill="none" d="M9865 17908h523v217h-523z" class="BoundingBox"></path><path fill="#fff" d="M9865 17908v216h522v-216z"></path></g><g class="com.sun.star.drawing.PolyPolygonShape"><path fill="none" d="M10480 17908h579v217h-579z" class="BoundingBox"></path><path fill="#fff" d="M10481 17908v216h577v-216z"></path></g><g class="com.sun.star.drawing.PolyPolygonShape"><path fill="none" d="M11151 17908h511v217h-511z" class="BoundingBox"></path><path fill="#fff" d="M11151 17908v216h510v-216z"></path></g><g class="com.sun.star.drawing.PolyPolygonShape"><path fill="none" d="M11756 17908h578v217h-578z" class="BoundingBox"></path><path fill="#fff" d="M11756 17908v216h577v-216z"></path></g><g class="com.sun.star.drawing.PolyPolygonShape"><path fill="none" d="M12426 17907h520v217h-520z" class="BoundingBox"></path><path fill="#fff" d="M12426 17907v216h519v-216z"></path></g><g class="com.sun.star.drawing.PolyPolygonShape"><path fill="none" d="M13039 17907h573v218h-573z" class="BoundingBox"></path><path fill="#fff" d="M13039 17907v217h572v-217z"></path></g><g class="com.sun.star.drawing.PolyPolygonShape"><path fill="none" d="M13705 17907h472v218h-472z" class="BoundingBox"></path><path fill="#fff" d="M13705 17907v217h471v-217z"></path></g><g class="com.sun.star.drawing.PolyPolygonShape"><path fill="none" d="M14277 17907h510v218h-510z" class="BoundingBox"></path><path fill="#fff" d="M14277 17907v217h509v-217z"></path></g><g class="com.sun.star.drawing.PolyPolygonShape"><path fill="none" d="M14882 17907h778v218h-778z" class="BoundingBox"></path><path fill="#fff" d="M14882 17907v217h777v-217z"></path></g><g class="com.sun.star.drawing.PolyPolygonShape"><path fill="none" d="M15326 18207h334v184h-334z" class="BoundingBox"></path><path fill="#fff" d="M15326 18207v182h333v-182z"></path></g><g class="com.sun.star.drawing.PolyPolygonShape"><path fill="none" d="M14882 18207h343v184h-343z" class="BoundingBox"></path><path fill="#fff" d="M15224 18389v-182h-342v182z"></path></g><g class="com.sun.star.drawing.PolyPolygonShape"><path fill="none" d="M13646 18206h631v183h-631z" class="BoundingBox"></path><path fill="#fff" d="M14276 18388v-181h-630v181z"></path></g><g class="com.sun.star.drawing.PolyPolygonShape"><path fill="none" d="M12934 18206h611v183h-611z" class="BoundingBox"></path><path fill="#fff" d="M13544 18388v-181h-610v181z"></path></g><g class="com.sun.star.drawing.PolyPolygonShape"><path fill="none" d="M14378 18206h409v183h-409z" class="BoundingBox"></path><path fill="#fff" d="M14378 18207v181h408v-181z"></path></g><g class="com.sun.star.drawing.PolyPolygonShape"><path fill="none" d="M12127 18206h716v183h-716z" class="BoundingBox"></path><path fill="#fff" d="M12841 18388v-181h-714v181z"></path></g><g class="com.sun.star.drawing.PolyPolygonShape"><path fill="none" d="M11399 18206h634v183h-634z" class="BoundingBox"></path><path fill="#fff" d="M12032 18388v-181h-633v181z"></path></g><g class="com.sun.star.drawing.PolyPolygonShape"><path fill="none" d="M10698 18206h603v183h-603z" class="BoundingBox"></path><path fill="#fff" d="M11300 18388v-181h-602v181z"></path></g><g class="com.sun.star.drawing.PolyPolygonShape"><path fill="none" d="M9873 18208h728v182h-728z" class="BoundingBox"></path><path fill="#fff" d="M10600 18389v-181h-727v181z"></path></g><g class="com.sun.star.drawing.PolyPolygonShape"><path fill="none" d="M9174 18208h600v182h-600z" class="BoundingBox"></path><path fill="#fff" d="M9773 18388v-180h-599v180z"></path></g><g class="com.sun.star.drawing.PolyPolygonShape"><path fill="none" d="M8354 18208h720v182h-720z" class="BoundingBox"></path><path fill="#fff" d="M9073 18388v-180h-719v180z"></path></g><g class="com.sun.star.drawing.PolyPolygonShape"><path fill="none" d="M7621 18208h634v182h-634z" class="BoundingBox"></path><path fill="#fff" d="M8254 18388v-180h-633v180z"></path></g><g class="com.sun.star.drawing.PolyPolygonShape"><path fill="none" d="M6616 18473h584v214h-584z" class="BoundingBox"></path><path fill="#fff" d="M7199 18686v-213h-583v213z"></path></g><g class="com.sun.star.drawing.PolyPolygonShape"><path fill="none" d="M9561 18472h333v214h-333z" class="BoundingBox"></path><path fill="#fff" d="M9561 18472v213h332v-213z"></path></g><g class="com.sun.star.drawing.PolyPolygonShape"><path fill="none" d="M9976 18471h514v216h-514z" class="BoundingBox"></path><path fill="#fff" d="M9976 18472v214h513v-214z"></path></g><g class="com.sun.star.drawing.PolyPolygonShape"><path fill="none" d="M10571 18471h635v216h-635z" class="BoundingBox"></path><path fill="#fff" d="M10571 18472v214h634v-214z"></path></g><g class="com.sun.star.drawing.PolyPolygonShape"><path fill="none" d="M11299 18471h264v216h-264z" class="BoundingBox"></path><path fill="#fff" d="M11299 18472v214h263v-214z"></path></g><g class="com.sun.star.drawing.PolyPolygonShape"><path fill="none" d="M14149 18471h636v216h-636z" class="BoundingBox"></path><path fill="#fff" d="M14149 18472v214h635v-214z"></path></g><g class="com.sun.star.drawing.ClosedBezierShape"><path fill="none" d="M6557 8757h195v104h-195z" class="BoundingBox"></path><path fill="#777879" d="M6558 8828c21-1 19-4 46 5 45 14 11 9 32 19 16 8 6 8 36 5l27-7 2 4 19-35 30-5c6-73-23-57-187-53 0 2 1 8 0 10l-1 4c0 3-1 5-1 8 0 6 1 32-2 35 0 2-1 3-1 5v4z"></path></g><g class="com.sun.star.drawing.ClosedBezierShape"><path fill="none" d="M14393 8766h150v97h-150z" class="BoundingBox"></path><path fill="#858585" d="m14423 8840-8-62 100 1c1 18 6 53-23 58zm-30-71c0 108 30 93 122 92 8-15 7-13 21-20l6-59c-68-19-77-17-149-13"></path></g><g class="com.sun.star.drawing.LineShape"><path fill="none" d="M14570 8834h1v1h-1z" class="BoundingBox"></path></g><g class="com.sun.star.drawing.ClosedBezierShape"><path fill="none" d="M14158 8755h415v342h-415z" class="BoundingBox"></path><path fill="#bdbdbd" d="M14158 8762v73c0 7 1 13 1 19v26l143 1c-3 67-21 160 11 214 52-7-3-19 71-23 0-113 10-137 10-191 20 0 63-3 82-2 15 1 16 1 30 5 11 4 19 6 26 11 0-2 3-3 3-8 2-2 2-1 2-4 3-3 2-4 3-6 3-2 0-2 3-4v-1l2-1v-3c5-2 2-4 6-6v-2c3-2 4-3 6-6 0-3 2-2 2-4l2-1c0-3 1-1 1-4 3 0 3-2 5-4h1c0-4 3-4 3-6l-5 4-20-82c-74-1-137-11-183 20-2 83 20 69-40 93l-10-31c-16-75 42-86-155-79z"></path></g><g class="com.sun.star.drawing.ClosedBezierShape"><path fill="none" d="M14164 8775h126v74h-126z" class="BoundingBox"></path><path fill="#bdbdbd" d="m14168 8775 119 1c1 45 8 58-33 68-28 7-62 2-90-6z"></path></g><g class="com.sun.star.drawing.ClosedBezierShape"><path fill="none" d="M14393 8766h150v97h-150z" class="BoundingBox"></path><path fill="#bdbdbd" d="M14536 8841c-14 7-13 5-21 20-92 1-122 16-122-92 72-4 81-6 149 13z"></path></g><g class="com.sun.star.drawing.ClosedBezierShape"><path fill="none" d="M14263 9183h148v52h-148z" class="BoundingBox"></path><path fill="#050505" d="M14263 9209c17 25 135 43 147-10-18-10-122-36-147 10"></path></g><g class="com.sun.star.drawing.ClosedBezierShape"><path fill="none" d="M14416 8775h101v62h-101z" class="BoundingBox"></path><path fill="#050505" d="M14493 8834c28-5 23-41 22-58h-98l7 60z"></path></g><g class="com.sun.star.drawing.ClosedBezierShape"><path fill="none" d="M14164 8773h127v74h-127z" class="BoundingBox"></path><path fill="#050505" d="M14165 8836c28 8 62 13 90 6 41-10 34-23 33-68l-119-1z"></path></g><g class="com.sun.star.drawing.ClosedBezierShape"><path fill="none" d="M14313 8905h37v159h-37z" class="BoundingBox"></path><path fill="#1b1918" d="M14313 8922c0-10 7-17 17-17 11 0 19 7 19 17v123c0 10-8 18-19 18-10 0-17-8-17-18z"></path></g><g class="com.sun.star.drawing.ClosedBezierShape"><path fill="none" d="M6808 8761h168v81h-168z" class="BoundingBox"></path><path d="M6974 8766c-63-6-114-7-166 10 23 34 8 46 58 59 47 13 73 0 108-13z"></path></g><g class="com.sun.star.drawing.ClosedBezierShape"><path fill="none" d="M6587 8772h138v58h-138z" class="BoundingBox"></path><path d="M6718 8819c0-3-1-11-1-10l7-36c-34 0-70-1-103-1-45 0-34-2-29 42 22 3 43 14 61 14 55 1 4-15 65-9"></path></g><g class="com.sun.star.drawing.ClosedBezierShape"><path fill="none" d="M6551 8826h322v512h-322z" class="BoundingBox"></path><path fill="#e0e0e0" d="M6756 9210c-55-2-57 9-64-44 2-1 5-3 7-4l136-4c-6 66-3 55-79 52m-129 126c76-18 23-71 48-151 0 1-28-3 8 32 44 42 136 17 188 4 9-138-62-54-175-95 19-58-2-25 82-39 20-53 29-110 18-173-37-38-32-30-91-30l-6-35-28 7c-29 3-18 3-34-5-22-10 12-5-33-19-29-9-24-6-53-5 8 76 0 6 26 52l21 58c47 115 71 133 53 259-11 82 12 70-24 140"></path></g><g class="com.sun.star.drawing.ClosedBezierShape"><path fill="none" d="M6728 8906h37v160h-37z" class="BoundingBox"></path><path fill="#1b1918" d="M6728 8924c0-10 7-17 18-17s18 7 18 17v123c0 10-7 18-18 18s-18-8-18-18z"></path></g><g class="com.sun.star.drawing.ClosedBezierShape"><path fill="none" d="M3525 5662h14219v15433H3525z" class="BoundingBox"></path><path fill="#010101" d="M5053 8315c-30-423 50-879 463-1425 21-26 41-37 36 17-83 904 91 1537 445 1946 58 66 88 132 92 216 6 111 9 268-11 337-20 72-8 140-10 213-1 30-12 76-46 76-73 1-96 23-123 60-75 106-83 201-115 246-78 106-102 181-105 273-58-82-128-153-190-228-144-175-261-370-334-623-81-280-109-672-102-1108m5443-1689c-785 6-2569-278-4476-959L3798 7779c522 1057 783 2160 780 3335-3 1521-311 2882-829 4172-179 445-190 900-220 1349-73 1095 846 1388 1001 1456 1566 690 3749 1392 5230 2258 333 195 618 433 767 745 245-509 732-722 1196-961 1487-765 3415-1306 5129-2104 581-270 909-741 890-1500-16-680-176-1293-432-1878-425-974-646-2137-653-3511-5-1149 190-2273 768-3352l-2240-2125c-1340 510-3509 955-4689 963M6321 9631c-50-28-63-61-54-94 19-75 61-150 130-195 60-38 60-131 66-201 4-45-2-94-15-134-28-94-58-188-54-286 5-115 49-238 122-321 92-105 240-157 379-152 89 2 180 59 240 125 61 68 115 142 106 245-7 67-35 128-52 193-14 54-23 109-26 164-4 70 8 134 14 205 2 19 13 37 31 41 28 7 64-1 93 0 4 44 6 69 2 105-4 47-13 97-33 139-11 24-39 60-69 87-22 19-53 39-79 48-49 16-94 42-139 34-35-6-42-50-37-79 12-67 66-118 83-183 30-118 48-239 56-360 4-65-2-133-5-197-10-225-151-318-289-313-140 6-280 93-285 262-2 74 18 149 47 218 20 49 47 92 46 155-3 122-26 251-60 372-17 64-73 126-130 140-29 7-62-4-88-18m287-216c9-44 22-95 30-144 7-49 7-105 7-155 0-30-16-60-29-88-16-33-26-63-43-94-23-43-36-91-38-141-2-57 13-125 55-165 54-52 147-91 207-88 135 5 187 91 218 171 36 94 30 198 30 300 0 82-19 170-28 249-6 49-16 99-43 139-24 35-51 60-63 96-13 40-25 85-15 124 8 29 35 65 65 66 66 2 139-18 197-49 67-36 113-91 153-151 16-23 38-6 53 10 45 49 118 61 182 77 31 8 75 18 96-6 25-30 32-86 21-123-12-46-28-86-57-120-48-54-118-149-106-354 7-114 13-231 49-340 112-339 259-709 239-1121-14-277-13-519-2-778 2-47 20-28 29-10 218 423 573 786 670 1318 25 141 73 282 69 426-9 300-75 594-182 850-38 92-51 193-96 282-22 45-63 78-102 109-77 62-173 99-242 169-40 41-69 98-73 156-4 65 21 132 50 191 15 31 43 61 76 67 35 5 73-17 99-40 101-89 190-191 278-291 98-111 183-233 281-344 15-17 34-36 57-37 108-1 219-5 327-1 17 0 17 41 1 44-20 3-65-1-95 2-31 4-49 20-63 55-7 18-17 40-32 54-92 93-146 106-210 147-21 14-30 46-29 72 3 81-17 142-35 213-94 363-279 677-602 899-43 30-85 31-109 4-113-130-176-296-271-440-17-25-33-47-53-69-29-32-45-23-76 26-85 134-102 282-159 430-11 30-30 60-50 89l4 295c4 42 13 89 36 125 212 341 296 707 304 1082 12 542-79 786-96 1521-6 299-20 604-13 903 2 79 8 158 27 235 8 36 35 66 53 99 32 63 81 104 99 172 19 75 24 181 21 258-1 31-11 95-38 79-89-50-170-61-264-49-41 5-77 54-80 96-5 79 17 157 90 221l-316-5c-48-90-62-151-90-228-40-115-110-177-201-208-119-41-246-64-371-76-98-10-161-5-178-96-17-88-78-164-93-252-23-132-17-269-20-403-2-106 6-221-66-288-31-29-72-41-106-40-65 4-101 74-139 133-45 71-63 131-94 196-32 68-90 185-174 187-110 3-162-127-191-228-60-201-104-398-88-635 1-18 57-24 78-10 23 16 64 40 92 38 81-5 151-10 209-68 80-80 132-191 145-304 61-517 77-997 192-1425 63-234 108-476 212-695 73-153 146-308 201-460l5-254c-31-72-94-160-124-252-33-102-50-204-79-300-6-19-27-34-46-37-28-4-54 47-63 80-25 92-26 189-37 284-8 82-14 165-19 248-9 128-72 205-119 299-64 128-149 242-229 362-36 55-67 32-91 53-74 65-87 2-127 30-58 41-32 67-62 86-26 17-25 40-17 66 7 28-9 48-23 66-13 16-23 25-43 40-29 22-39 24-61 32-20 8-38 18-55 30-49 32-80 67-108 107-8 12-37 13-38 3-3-38-8-97 23-122 46-37 23-66 35-95 18-42 23-72 48-104 31-39 65-78 113-87 22-5 41-34 39-57-4-50-5-88 14-127 103-215 245-411 350-625 18-37 9-82 17-122 10-54 40-105 39-159 0-75-48-147-43-222 6-76 10-147 22-215 14-81 44-167 96-228 23-28 32-69 43-92 30-67 48-143 93-200 24-29 67-37 104-44 32-5 66-3 97-14 32-12 53-54 86-62 27-6 59 6 83 21 32 21 78 33 117 24 50-12 93-54 121-98 33-50 46-111 58-171m1989 7117h566v221h-566zm-253 278h719v198h-719zm-1132 284 6962-2v732H7212Zm2026 815h539v215h-539zm-64 300h598v179h-598zm387 265h331v212h-331zm-1638-1942h578v221h-578zm672 1377h575v215h-575zm-1168-1671h291v194h-291zm-126 294h545v221h-545zm324 278h622v198h-622zm306 1100 573-1v215h-573zm-1358-1672h749v194h-749zm27 294h585v221h-585zm328 278h591v198h-591zm360 1100h559v214h-559zm-688-1099h223v197h-223zm0 283h511v730h-511zm0 816h603v214h-603zm-895-1378h798v221h-798zm0 279h360v197h-360zm0 1099h798v214h-798zm4170-1672h403v194h-403zm-10 294h515v220l-515 1zm5 278h723v198h-723zm1282 1314v-215h509v215zm247 264v-179l632-1v180zm-2483-5118 12-3614h2933v66l283 5v3446c0 599-287 1291-565 1704-281 417-909 972-1067 993-132 0-852-591-1128-1134-238-469-469-936-468-1466m4788 3262h466v220h-466zm-58 277h627v199h-627zm599 283h540v732h-540zm637 816h776v216h-776zm-1844-1376h563v220h-563zm-109 277h612v199h-612zm1348 1099h508v216h-508zm-1843-1376h526v220h-526zm1271 1376h470v216h-470zm-1955-1376h585v220h-585zm365 277h729v199h-729zm924 1099h571v216h-571zm-2104-1953h271v189h-271zm259 283h457v194h-457zm-58 294h515v220h-255v-2l-97 2h-163zm260 278 633-1v199h-633zm1030 1099 518-1v216h-518zm-1946-1954h358v189h-358zm307 477v-194h331v194zm-309 100h582v220h-582zm213 278h608v198h-608zm1065 1099h575v215h-575zm1022-8760c-75-298-155-606-133-912 36-486 248-906 607-1238 30-28 53-14 46 13-78 282-24 568 31 843 61 307 212 590 313 887 21 62 50 122 52 188 2 78-13 164-70 230-33 39-92 50-130 86-25 25-48 61-55 95s-3 74 18 102c31 40 80 59 130 70 54 14 106 1 161-4 21-2 50-17 64 0 101 127 268 219 364 217 25-1-4 57 19 75 44 33 105 53 155 77 46 22 91 29 132 60 39 28 6 54-11 70-59 56-136 89-205 132-64 41-138 70-194 122-26 24-43 61-44 97-3 69 52 100 126 95 37-3 63-8 108-34 15-9 154-4 229 14 13 3 13 31 3 40-45 47-99 85-155 116-167 92-332 201-512 252-34-99-48-204-79-316-19-68-53-157-121-167-29-5-50 38-56 70-40 219-153 487-310 618-58 47-98 35-146-31-216-295-361-605-500-926-26-60-7-132-31-190-27-61-71-115-119-161-32-29-73-53-115-57-124-13-249 13-373 6-12 0-41-12-26-26 32-30 181-126 181-126 98-35 191-103 295-104 91-1 183 41 256 98 21 16-27 46-38 70-10 22-24 43-24 69 0 35 20 88 55 90 56 4 136 90 206 187 70 98 115 199 189 313 22 35 75 70 115 60 20-5 24-31 39-44 30-25 67-42 93-71 35-39 67-81 81-132 25-88 27-184 33-273 2-27 8-69-17-77-32-12-34 25-54 28-68 10-141 33-209 9-67-24-123-82-161-143-89-147-172-301-213-467m1130-156c11-111 3-236 31-348 41-166 122-309 253-428 68-60 120-51 185-55 158-10 294 64 388 163 57 60 107 139 106 236-2 205-28 407-42 611-3 45-13 90-12 135s10 91 32 131c25 44 65 72 97 111 10 12 34 20 29 34-8 20-36 43-57 43-108-1-220 1-333 2-20 1-37-18-47-35-12-23-13-49-5-75 5-18 43-28 53-45 19-33 5-79 12-117 12-64 32-112 31-176-1-51-14-86-29-130-11-32-3-78 16-102 20-26 35-43 46-75 25-75 30-184-13-264-54-100-144-229-239-234-90-5-180 41-251 106-46 42-92 97-92 161-1 27 6 51 19 79 10 20 18 51-2 66-13 10-11 116-28 197-13 60-31 115-24 176 5 37-1 79-3 136-1 27 28 43 55 58 25 14 57 7 80 24 45 36 53 84 50 165-1 34 5 76-5 107-7 21-24 50-45 46-79-17-149-64-217-108-30-20-52-52-72-83-18-26-25-57-40-84-18-31-58-54-60-90-1-30 20-46 38-62 61-57 85-180 95-276m187 281c-19-33-17-72-17-109 1-66 13-140 22-205 16-104 35-134 37-210 0-42-42-81-32-121 14-52 62-96 103-130 58-49 112-67 195-70 112-4 245 214 240 351-3 74-41 98-55 149-11 36-17 73-15 110 3 44 24 84 24 128 1 35-5 69-15 107-12 48-12 81-13 125-1 45-56 55-71 90-12 29-21 66-10 96 15 38 42 90 83 92 108 8 220-4 324 0 38 2 78-18 106-45 39-37 85-78 90-135 9-84-7-82-24-118-13-29-13-104-10-156 9-156 36-275 104-392 162-280 348-659 383-904 67-462 54-900 88-1224 1-46 25-40 45-6 337 468 527 1062 498 1629-54 1037-309 1765-750 2003-7 88 10 168 5 251-10 152 68 306 141 446 128 246 310 462 441 707 23 44-13 102 13 144 21 33 83 25 108 55 54 65 62 149 74 237 2 15-28 8-58-6 2 47 42 103 12 134-20 20-98-9-114-32-34-48-41-115-57-168-16-54-61-91-95-134-25-32-52-29-69-47-54-53-93-111-145-166-183-194-386-427-500-600-41-61-77-129-87-201-18-123 0-252 5-376 1-37-15-70-44-75-19-4-40 39-50 52-69 86-117 159-188 243-51 60-57 127-88 205l-3 229c48 147 99 291 201 406 128 144 199 320 203 516 10 531 258 1001 293 1453 15 195-17 340 55 481 42 80 120 144 234 141 85-2 189-40 266-85 46 221-26 455-129 674-19 39-52 72-84 101-53 49-130 72-176 128-26 30-30 75-27 114 5 61 11 124-26 168-35 40-75 60-113 84-48 31-74 56-106 4-20-33-32-71-42-108-8-32-52-81-88-44-59 63-96 102-150 146-68 56-144 103-229 119-183 33-360 78-507 198-53 43-105 81-126 146-26 79-11 144-4 273-100 8-208-7-298-2-4 44 17 88-51 119-63 29-107 70-170 74-44 2-94-32-123-65-11-13 28-42 42-51 119-75 202-107 311-194 33-26 88-80 84-121-4-43-1-93-7-139-2-15-45-17-51-4-30 81-141 130-248 98-77-24-140-65-178-123-42-63-39-125 23-236 159-287 261-580 269-891 10-424-44-832-79-1248-40-474-169-955-89-1424 73-422 181-448 267-600l4-293c-27-45-44-101-32-155 194-88 459-186 662-339 33-24 64-61 61-102-2-32-41-61-73-61-85 1-164-6-241-2-58 3-116 43-166 16-25-13-20-57 17-93 94-96 219-128 333-210 49-35 117-77 119-136 1-50-75-86-124-104-75-28-143-40-200-88-75-64-1-80 0-119 1-62 7-124 8-187 1-49-22-108-66-127-35-16-63-31-80-61m-7162 8936 603-1v179h-603zm-318 264h582v212h-582zm1006-265h632v179h-632zm732 0h718v179h-718zm-2183-1398h333v197h-333zm430 1577v-178h233v178zm-438 0v-178h341v178zm-457-178h354v178h-354zm7941-2h629v180h-629zm503 478v-213h634v213zm-2022-478h713v180h-713zm2251 180v-180h407v180zm-1444-180h608v180h-608zm1948 0h342v180h-342zm444 180v-180h332v180zm-6087-1856h528v221h-528zm-79 278h613v198h-613zm704 1099h522v215h-522zm8 300h727v179h-727zm608-300h577v215h-577zm218 300h601v179h-601zm-511-2065v-189h196v189zm188 288v-194h315v194zm3600-204h810v216h-810zm907 523v-219h776v219zm449 257v-199h327v199zm-1058-476h512v219l-512 1zm105 277h407v199h-407zm504 199v-199h343v199zm-3583 1678v-213h262v213zm-729 0v-213h635v213zm-595 0v-213h512v213z"></path></g><g class="com.sun.star.drawing.PolyPolygonShape"><path fill="none" d="M18314 22270h440v445h-440z" class="BoundingBox"></path><path d="m18753 22583-308 131-131-313 308-131z"></path></g><g class="com.sun.star.drawing.PolyPolygonShape"><path fill="none" d="M16259 22977h441v430h-441z" class="BoundingBox"></path><path d="m16699 23315-343 91-97-334 343-95z"></path></g><g class="com.sun.star.drawing.PolyPolygonShape"><path fill="none" d="M14951 21910h1169v1739h-1169z" class="BoundingBox"></path><path d="m16063 22205-696 176 81 313 602-152 68 265-595 154 142 605-342 82-372-1484 1047-254z"></path></g><g class="com.sun.star.drawing.PolyPolygonShape"><path fill="none" d="M12855 22326h1449v1625h-1449z" class="BoundingBox"></path><path d="m14303 22326-414 977 84 609-343 37-78-589-697-818 407-53 410 530 249-642z"></path></g><g class="com.sun.star.drawing.PolyPolygonShape"><path fill="none" d="M11564 22561h1282v1561h-1282z" class="BoundingBox"></path><path d="m12823 22562 22 292-444 30 75 1203-351 34-79-1206-469 22-13-305z"></path></g><g class="com.sun.star.drawing.PolyPolygonShape"><path fill="none" d="M11104 22607h415v1562h-415z" class="BoundingBox"></path><path d="m11474 22607 44 1537-373 24-41-1554z"></path></g><g class="com.sun.star.drawing.ClosedBezierShape"><path fill="none" d="M9490 22624h1425v1593H9490z" class="BoundingBox"></path><path d="m10900 23188-334 10c-25-172-135-290-321-296-207-7-397 166-404 514-4 202 54 333 108 406 55 72 194 103 295 99 137-6 309-60 333-332l336-5c-57 375-338 627-680 631-379 3-752-331-743-777 10-466 253-806 741-814 308-4 626 171 669 564"></path></g><g class="com.sun.star.drawing.PolyPolygonShape"><path fill="none" d="M7300 22433h1452v1664H7300z" class="BoundingBox"></path><path d="m8751 22584-180 1511-339-43-488-1050-114 965-330-38 179-1496 342 38 492 1067 115-988z"></path></g><g class="com.sun.star.drawing.PolyPolygonShape"><path fill="none" d="M6623 22336h610v1560h-610z" class="BoundingBox"></path><path d="m7232 22395-246 1500-362-50 249-1509z"></path></g><g class="com.sun.star.drawing.ClosedBezierShape"><path fill="none" d="M5086 22118h1427v1675H5086z" class="BoundingBox"></path><path d="m6502 22982-189 809-180-35c1-61-3-126-13-192-149 118-331 148-563 77-357-109-563-489-431-941 127-433 496-684 969-541 226 68 442 283 414 629l-315-58c2-191-58-258-213-314-263-94-493 174-544 385-53 221-16 515 270 591 211 56 379-49 436-213l-336-84 67-259z"></path></g><g class="com.sun.star.drawing.PolyPolygonShape"><path fill="none" d="M3752 21665h1128v1772H3752z" class="BoundingBox"></path><path d="m4164 22933 715 216-90 286-1037-312 447-1458 330 94z"></path></g><g class="com.sun.star.drawing.PolyPolygonShape"><path fill="none" d="M2398 21188h1617v1827H2398z" class="BoundingBox"></path><path d="m3903 21866-760-289-106 294 687 269-91 241-687-264-130 346 774 283-97 268-1095-394 539-1431 1076 406z"></path></g><g class="com.sun.star.drawing.ClosedBezierShape"><path fill="none" d="M16600 21495h1455v1582h-1455z" class="BoundingBox"></path><path d="m17881 21845-306 125c-83-143-221-218-401-160-196 64-316 250-224 587 55 194 174 305 247 359s219 48 314 16c129-44 244-134 215-441l316-110c59 440-116 690-463 819-336 124-805-82-935-508-130-430 32-870 447-996 294-88 638-55 790 309"></path></g><g class="com.sun.star.drawing.ClosedBezierShape"><path fill="none" d="M1195 18987h18612v5907H1195z" class="BoundingBox"></path><path fill="#1b1918" d="M4303 20949c48-80 96-163 143-246 81-142 162-284 255-425 23-34 36-66 38-95 2-26-6-53-25-82-36-55-77-103-120-140-39-34-78-58-115-70-8-3-19-3-31-1-9 2-17 5-22 9-1 1-2 6-4 13-4 18-5 42-5 66 0 19 2 38 5 56s7 36 13 54c11 37 17 71 20 101 4 63-10 115-38 157-29 45-72 73-123 89-23 7-48 12-73 14-59 4-115-7-176-32-52-22-107-54-169-95-182-122-340-270-484-430-140-156-269-327-396-495-48-64-102-114-158-147-47-28-95-42-139-38-41 2-78 9-110 22-30 12-57 31-82 59l-46 54c-46 52-93 106-132 149-33 36-53 77-65 124-14 55-18 117-19 189 2 35 1 69 0 102 30 5 60 16 90 36 484 321 1007 602 1570 842 131 55 263 109 398 160m12166 76c-33-58-67-118-101-178-88-156-176-312-275-460-36-55-66-133-60-221 5-66 31-138 90-207 39-46 76-86 116-123 40-39 83-74 133-109 48-34 102-54 154-59 42-5 82 0 118 13 41 15 77 42 103 79 22 30 36 66 40 109 10 91 1 150-8 217-2 15-5 30-7 52-1 7-2 15-4 24-3 24-10 55-9 56 8 12 23 19 41 20 30 2 66-7 102-29 345-205 553-471 776-757 42-53 84-107 109-138 98-124 209-228 328-284 137-62 280-63 421 38 62 43 119 93 171 147 53 55 102 116 145 180 29 42 55 86 75 133 23 51 38 105 41 163 4 66 7 146 9 232 2 60 2 122 2 180v24c0 28 0 53 1 77 1 21 4 40 8 60 10 48 24 93 40 144 6 22 14 45 20 66 130 439 313 795 489 1137 58 113 115 224 170 337 22 44 43 90 60 138 18 52 32 105 36 162 5 73 2 149-1 223v23c-4 93-32 175-76 247-49 82-118 149-190 205-241 181-551 344-903 496-348 149-738 286-1143 419-1071 350-2189 601-3333 769-1219 178-2468 261-3722 263-994 2-1985-75-2973-212-986-136-1970-332-2948-567-654-157-1259-328-1782-526-530-201-978-428-1311-695-118-95-180-205-208-320-25-109-20-219-6-324 25-173 103-315 184-459l27-50 34-74c255-544 364-777 508-1186 17-51 33-100 43-150 10-47 15-95 12-146-3-71 1-137 6-203 3-57 7-114 5-165v-5c1-90 7-171 25-244 21-82 56-154 117-220 42-46 85-95 127-144 12-14 23-26 47-54 49-56 104-93 164-118 57-23 116-34 178-39 90-5 180 19 265 68 80 47 156 117 223 206 121 161 245 325 383 479 134 149 279 285 443 395 51 34 93 59 130 74 29 12 54 17 77 15 10 0 18-2 25-4 3-1 5 0 5-1 1-1 1-8 0-20-1-14-4-31-10-51-9-28-15-56-20-85-4-29-7-58-7-87 0-40 1-80 10-118 11-50 34-95 76-131 34-30 79-49 125-57 46-9 95-6 137 7 66 21 131 60 192 113 58 51 113 114 160 187 46 70 65 141 60 214-4 70-30 137-74 204-91 137-169 274-247 411-41 71-82 143-125 216 384 139 786 261 1205 368 798 204 1603 361 2410 464 781 100 1566 151 2352 146 1034-5 2037-77 3004-225 965-148 1893-372 2777-682 70-24 140-49 209-73m2289-1104c-2-74-5-151-9-218-2-30-10-59-23-88-14-33-34-65-55-97-36-53-77-103-122-150-43-45-90-86-140-122-67-48-136-47-202-16-84 39-169 121-248 220-49 62-79 100-108 137-237 303-457 585-837 811-76 45-157 66-230 59-83-6-156-44-205-113-49-71-37-154-28-214 1-6 2-12 2-18 2-17 5-37 8-57 8-53 15-100 8-164 0-1 0-3-1-4-5-1-12-2-19-1-16 2-34 8-50 20-42 29-77 58-110 89-34 32-65 67-99 107-25 29-36 56-38 81-2 32 9 61 23 82 104 155 194 315 284 474 39 69 77 137 120 209 238-89 472-181 697-280 352-155 684-327 985-526l52-34c73-49 138-91 237-155l6-4 6-3c31-14 64-23 96-25m-2190-35c-1 0 0 0 0 0m-14335 257c1 10 1 20 1 29 4 72-3 139-16 203-13 60-31 119-51 177-147 418-258 655-516 1207l-38 80-3 7c-6 11-10 19-28 50-70 126-139 250-158 384-11 82-16 166 2 242 17 70 56 139 133 200 314 251 741 468 1250 660 516 196 1112 364 1756 519 969 233 1946 427 2927 563 980 136 1962 212 2943 210 1241-2 2479-84 3690-262 1133-165 2239-414 3297-760 400-131 784-267 1125-413 337-144 631-298 856-469 53-40 102-87 135-142 26-43 43-90 44-142l1-22c3-67 5-134 1-200-3-35-12-70-24-105-14-39-32-77-51-116-53-110-110-220-167-332-181-350-369-716-505-1175-7-25-13-44-19-63-17-56-32-105-45-165-6-32-10-61-12-91-1-22-2-46-1-74-74 47-145 94-226 148l-51 34c-314 208-656 384-1018 544-358 157-739 299-1132 437-900 315-1840 542-2817 691-975 149-1988 222-3036 227-796 5-1590-47-2381-148-820-105-1634-263-2436-468-654-166-1268-372-1843-617-569-243-1097-524-1587-848"></path></g><g class="com.sun.star.drawing.ClosedBezierShape"><path fill="none" d="M2245 19212h2498v1740H2245z" class="BoundingBox"></path><path fill="#fff" d="M4304 20950c49-81 96-164 144-247 81-141 162-283 255-423 23-35 36-67 38-95 2-26-6-54-25-83-36-56-77-104-120-141-39-33-78-58-115-70-8-2-19-2-31 0-9 1-17 4-22 8-1 1-3 6-4 13-5 19-5 42-5 67 0 19 2 37 5 56 2 17 7 35 12 55 12 37 18 70 20 100 5 64-9 116-37 158-29 44-72 73-123 88-23 8-48 12-74 14-58 4-115-7-176-32-52-21-107-53-169-95-182-121-340-271-484-431-140-156-270-326-396-495-48-63-102-114-159-146-47-28-95-41-139-39-41 3-78 9-110 23-30 12-57 31-82 59l-46 53c-46 53-93 107-132 149-33 37-53 78-65 125-14 54-18 117-19 188 2 36 1 69 0 102 29 5 60 17 90 37 484 321 1008 601 1571 841 130 56 264 109 398 161"></path></g><g class="com.sun.star.drawing.ClosedBezierShape"><path fill="none" d="M16251 19209h2509v1741h-2509z" class="BoundingBox"></path><path fill="#fff" d="M16274 20266c104 155 193 315 283 474 39 69 78 138 120 209 239-89 472-181 698-280 353-156 684-327 986-526l51-34c74-49 138-91 237-154l6-4 7-3c30-15 63-23 96-26-2-74-6-150-9-218-2-30-11-59-23-89-15-33-34-65-56-96-36-54-76-104-122-151-43-45-89-86-139-121-68-47-136-47-203-17-84 39-169 121-248 221-49 61-78 99-108 137-236 303-457 585-838 811-75 45-156 65-229 59-84-6-157-44-205-113-50-70-37-153-29-213l3-19c2-16 5-37 8-56 7-53 14-101 7-164v-4c-5-2-12-3-20-2-16 2-33 9-50 20-41 30-77 59-110 90s-65 66-99 106c-25 29-35 56-37 81-2 32 9 61 23 82"></path></g><g class="com.sun.star.drawing.ClosedBezierShape"><path fill="none" d="M1414 20143h18173v4532H1414z" class="BoundingBox"></path><path fill="#fff" d="M10231 24214c-377 4-751-331-742-777 10-464 254-805 741-813 308-5 627 171 669 564l-333 10c-26-172-137-290-323-296-205-6-396 166-403 514-4 202 54 332 109 405 54 73 193 103 294 99 136-5 309-60 334-332l335-5c-56 375-337 628-681 631m914-47-41-1552 369-8 44 1537zm433-1230-14-305 1259-70 21 293-443 29 74 1202-349 33-79-1204zm1937-941c-974 149-1988 221-3036 227-795 4-1590-47-2380-148-821-105-1634-263-2436-468-654-167-1269-372-1844-618-568-242-1097-524-1586-846l1 29c4 72-3 138-16 202-13 61-31 119-52 177-146 417-257 654-516 1207l-37 80-3 6-28 51c-70 126-139 250-158 384-11 82-16 166 2 242 17 71 56 139 132 200 314 252 742 468 1251 660 515 195 1111 364 1755 518 970 233 1946 428 2928 563 979 136 1961 213 2942 211 1241-3 2480-85 3691-262 1132-166 2239-415 3297-761 400-130 784-266 1125-412 336-144 630-298 856-468 52-40 101-88 135-143 25-43 42-90 44-142l1-22c2-68 5-135 0-200-3-35-12-71-24-106-14-38-32-77-50-115-54-111-110-221-168-332-180-351-368-716-504-1175l-20-63c-17-56-32-105-44-165-7-31-11-60-12-91-2-22-2-46-2-73-73 46-144 93-226 147l-51 34c-314 207-656 384-1018 543-358 158-739 299-1132 437-899 315-1840 542-2817 692m37 1363-696-816 406-53 410 529 249-643 381-51-413 977 83 608-342 38zm1771 288-372-1484 1046-254 65 295-694 177 81 313 600-151 68 263-594 154 141 605zm1034-242-98-332 341-96 98 336zm-7607-821-180 1510-339-42-487-1049-114 963-331-37 180-1496 342 39 491 1065 115-986zm-1520-190-245 1500-362-51 250-1508zm-1251 23c-262-95-493 172-543 383-53 221-15 515 269 591 211 56 380-48 436-212l-336-85 67-259 628 147-190 808-179-35c1-62-3-126-12-193-149 119-332 148-564 77-356-109-563-487-430-939 127-433 495-685 968-541 225 68 442 283 413 629l-315-59c2-191-57-257-212-312m-1452-658-364 1173 714 216-90 286-1036-312 447-1458zm-1386-182-106 293 686 269-91 241-686-264-130 347 774 283-96 267-1095-393 538-1432 1075 407-109 271zm13503 954c-131-429 32-869 446-995 294-89 637-56 789 309l-304 125c-84-143-222-218-401-160-196 64-315 249-223 586 53 195 172 306 245 360s219 48 314 16c130-44 244-134 215-442l315-109c59 440-116 690-462 818-336 125-803-81-934-508m1801 182-131-313 308-131 130 313z"></path></g><g class="com.sun.star.drawing.ClosedBezierShape"><path fill="none" d="M2727 4808h15832v17278H2727z" class="BoundingBox"></path><path fill="#1b1918" d="M3088 7751c-18-45-27-84-22-125 5-47 25-86 64-126 572-573 1142-1107 1713-1642 343-321 686-643 1027-970 45-43 97-69 149-77 55-8 109 1 158 30 688 301 1504 583 2330 788 737 183 1482 305 2148 324 606 18 1314-111 2070-316 764-207 1570-490 2369-780 68-24 119-34 168-29 57 7 99 31 145 73 705 638 1390 1295 2073 1951 235 225 469 450 710 679l4 5c36 38 44 91 36 146-6 43-23 94-37 127l-2 4c-301 611-521 1128-660 1626-138 492-196 965-171 1491 27 588 54 1147 141 1720 87 569 233 1152 501 1794 174 419 316 786 412 1106 99 326 150 604 143 841-21 637-119 1130-439 1559-317 422-848 770-1734 1116-164 63-405 153-687 258-1197 445-3150 1171-4178 1814-224 140-425 296-586 464-145 151-257 313-327 483h-101l-103-1c-35-89-69-168-107-237-38-68-81-129-134-183-213-219-425-393-652-546-226-154-472-290-749-434-960-499-1990-892-2926-1248-613-233-1186-451-1678-677-640-294-1007-694-1209-1130-201-433-235-896-215-1322 2-38 2-69 3-100 6-266 13-537 414-1460 303-699 484-1294 592-1879 107-585 142-1163 153-1827 21-1304-285-2039-634-2873-56-133-112-268-172-417m196-102v1zm2 5q1.5 6 6 15c54 137 113 277 171 415 357 856 672 1609 650 2960-11 676-47 1265-157 1864-110 600-295 1210-606 1926-384 884-390 1133-396 1378-1 36-2 73-3 105-19 397 12 825 195 1220 182 392 516 754 1101 1022 478 220 1051 438 1666 672 941 358 1978 753 2949 1258 280 145 530 285 770 447 239 163 463 345 686 575 68 69 122 146 168 229 9 16 17 32 25 48 72-118 161-231 264-338 175-182 389-349 628-498 1045-654 3012-1385 4218-1833 267-100 496-185 683-258 846-330 1347-655 1638-1043 288-385 376-841 396-1434 6-210-42-467-134-772-94-311-233-671-405-1083-275-661-426-1261-515-1846-89-580-116-1146-144-1744-25-550 35-1045 179-1559 143-510 367-1037 673-1659 7-15 14-37 18-58-224-213-453-433-682-653-686-659-1375-1319-2068-1946-11-11-19-17-23-17-12-2-33 4-69 17-806 292-1619 577-2385 785-774 210-1503 342-2134 323-684-19-1444-143-2195-330-840-209-1671-496-2371-803l-8-3-8-6c-4-3-9-4-13-3-9 2-20 8-32 19-346 332-688 652-1029 972-571 535-1140 1068-1707 1636"></path></g><g class="com.sun.star.drawing.ClosedBezierShape"><path fill="none" d="M2946 5027h15394v16761H2946z" class="BoundingBox"></path><path fill="#fff" d="M4579 11114c2-1175-259-2278-781-3335l2223-2112c1906 680 3690 965 4476 959 1180-8 3348-453 4688-964l2240 2126c-577 1078-773 2203-767 3352 7 1374 228 2536 653 3510 255 586 416 1199 432 1879 18 758-309 1230-891 1500-1713 798-3641 1339-5128 2104-465 238-952 452-1196 961-150-312-435-550-768-745-1481-866-3663-1568-5230-2258-155-68-1075-361-1001-1456 31-449 42-904 221-1350 517-1289 825-2650 829-4171m3875-5272c-841-209-1671-497-2371-803l-7-4-9-5c-4-3-8-3-13-3-9 1-20 8-31 19-346 332-688 652-1029 972-571 534-1141 1068-1708 1636l6 15c55 136 114 277 171 414 358 857 672 1610 650 2961-11 675-46 1264-156 1864-111 600-296 1210-607 1926-383 883-389 1133-395 1378-1 36-2 72-4 105-18 396 13 825 196 1219 182 393 515 755 1101 1023 478 219 1051 438 1665 672 941 358 1977 753 2948 1257 280 146 531 286 771 448 239 162 463 345 686 574 68 70 121 146 168 230 8 16 17 32 25 47 72-117 162-230 265-338 174-182 389-348 628-498 1044-653 3012-1385 4216-1833 268-99 497-184 683-257 847-330 1348-655 1639-1043 288-385 376-841 395-1435 7-210-42-466-134-771-94-312-233-672-404-1084-276-661-427-1261-516-1845-88-580-115-1147-143-1744-25-550 35-1045 179-1560 142-509 367-1037 672-1658 7-16 15-38 19-58-224-214-453-433-683-654-686-658-1374-1319-2067-1946-12-10-19-16-23-17-13-1-34 5-69 17-805 292-1619 578-2385 786-773 209-1502 341-2133 323-685-19-1445-144-2196-330"></path></g></g><g class="com.sun.star.drawing.ClosedBezierShape"><path fill="none" d="M8917 9656h3229v6215H8917z" class="BoundingBox"></path><path fill="#fff" d="M9217 10625c104 0 171 73 205 232l58 640h64c12 83 10 152-4 240 62 39 138 93 200 136 24 17 67 40 115 0 48-35 71-66 118-104 31-24 0-50-19-60-3-80-7-133-8-192-3-110-11-194 44-223 125-64 220-147 335-227 12-6 28-48 18-53-37-25-40-53-38-90 2-78 32-117 69-165 2-23-32-20-53-15-5-9-11-20-16-30-45-127-80-265-128-392-16-44 6-93 27-125 128-189 254-350 409-501 28-28 38-30 53-9 101 144 217 278 306 430 31 51 68 102 49 172-39 144-83 288-124 431-8 29-48 18-70 23-1 7 1 23 0 30 62 48 75 86 77 155 1 42 13 96-27 106-13 4-3 16-3 28 37 0 42 8 71 33 82 72 273 214 392 296 47 33 90 98 108 172 52 224 99 446 150 669 10 57 1 110-45 160-92 101-180 207-269 311-18 21-24 35-22 74 2 242 9 509 11 752 8 105-77 69-75 117-7 330-2 625 4 957-3 25-34 36-36 66 4 108-3 227 1 335 1 73-41 66-77 69-2 64-1 105-5 166-3 32-59 107-90 111-60 0-91-2-151-2-23 0-31-22-32-46-1-35-2-71-2-105 1-26-23-38-44-33-46 0-98 1-137 0s-33 25-37 44c-9 32 6 84-22 106-94 67-188 78-295 110-38 11-70-7-64-55 13-97 34-90 55-159 8-24 9-50 14-75 1-122-8-218-7-340 0-42-98-79-100-90-6-23-3-108-3-131 0-367-1-656-1-1023-41-27-84-50-77-141 3-139 4-269 7-407 1-18-27-22-42-36l7-438c-21-12-36-12-48-18-207-115-337-152-449-293-6-8-13-17-20-25l222 2411-122 12-254-2609c-24-27-48-54-72-80-78-84-155-123-155-185 0-52 8-94 18-139 8-37 21-75 35-108 41-1 82 0 124 0l-63-641c-2-27-20-71-56-65-39 5-53 41-55 71-4 45 9 79 26 125 7 17 33 48 33 87 2 95-46 127-113 148-63 19-118-12-131-51-21-62 36-83 78-110 11-8 18-23 17-37-2-20-16-34-26-53-19-34-30-71-27-108 12-143 75-235 194-236m-289-969-11 3614c-1 530 229 997 467 1467 276 542 996 1133 1128 1133 158-21 787-576 1067-992 278-413 565-1106 565-1705V9726l-282-4v-66z"></path></g></g></g></g></g><!-- source: https://football-logos.cc --></svg>