<svg xmlns="http://www.w3.org/2000/svg" viewBox="0 0 70 70"><!-- Source: https://football-logos.cc --><defs data-source="https://football-logos.cc"><style>.cls-1{fill:#027dc5}.cls-2{fill:#231f20}</style></defs><g id="Layer_2" data-name="Layer 2" data-source="https://football-logos.cc"><g id="Sekundarni_lezeci"><path d="M34.92 0A35 35 0 0 0 .38 30.08L0 32.76 37.63 0Z" class="cls-1"></path><path d="M.35 39.66a34.5 34.5 0 0 0 2.53 9.16l.55 1.27L24.27 32l7.16-20L.27 39.12Z" class="cls-2"></path><path d="M6.49 55.24c.67.94 1.39 1.85 2.14 2.71a35 35 0 0 0 3.57 3.56l1.12 1 7.51-20.92L6 54.49ZM63.11 14.14C62.56 13.41 62 12.7 61.4 12a35.5 35.5 0 0 0-5-4.69l-1.1-.85-22.71 63.45L34 70h2.11a35 35 0 0 0 7.36-1l.53-.13 19.43-54.29ZM67.67 22.43l-1-2.54-16.79 46.89 2.37-1.35A35.6 35.6 0 0 0 58 61.37a35.09 35.09 0 0 0 9.69-38.94" class="cls-1"></path><path d="M50.17 3.46A35 35 0 0 0 42.05.72l-.86-.17-23.3 65 .77.41a35.2 35.2 0 0 0 8 3l.88.22L51 3.85Z" class="cls-2"></path></g></g><!-- source: https://football-logos.cc --></svg>