<svg xmlns="http://www.w3.org/2000/svg" data-name="Capa 2" viewBox="1.04 0 396.46 395.12"><!-- Source: https://football-logos.cc --><defs data-source="https://football-logos.cc"><linearGradient id="a" x1="199.27" x2="199.27" y1="206.89" y2="602" data-name="Degradado sin nombre" gradientTransform="matrix(1 0 0 -1 0 602)" gradientUnits="userSpaceOnUse"><stop offset="0" stop-color="#6bbdf9"></stop><stop offset="1" stop-color="#90f9fd"></stop></linearGradient></defs><path d="M1.04 197.61c0 108.91 88.93 197.51 198.22 197.51s198.24-88.6 198.24-197.51C397.5 88.69 308.56 0 199.26 0S1.04 88.69 1.04 197.61" style="fill:#fff;fill-opacity:1"></path><path d="M225.3 169.21h30.13v-8.92H225.3v-8.18h33.38v-9.19h-44.83v43.2h11.45zm0 66.08h30.13v-8.83H225.3v-8.17h33.38V209h-44.83v43.2h11.45zm-36.12 7.72h-35.55v-8.46h30.72v-8.82h-30.72v-7.44h35.19V209h-46.64v43.2h47zm-11.58-85.2c0 1.84-.7 3.12-2.11 4.04-1.41.83-3.62 1.19-6.63 1.19h-15.84v-10.93h16.45c2.89 0 4.98.46 6.24 1.28s1.89 2.12 1.89 4.05zm2.87 12.96c2.56-1.1 4.44-2.58 5.66-4.42 1.54-2.39 2.33-5.14 2.33-8.46v-.37c0-4.6-1.59-8.18-4.76-10.75s-7.81-3.86-13.92-3.86h-27.59v43.2h10.85v-13.79h16.26l8.07 13.79h13.08l-9.98-15.35Z" style="fill:#221c35" data-source="https://football-logos.cc"></path><path d="M1.04 197.61c0 108.91 88.93 197.51 198.22 197.51s198.24-88.6 198.24-197.51C397.5 88.69 308.56 0 199.26 0S1.04 88.69 1.04 197.61m21.96 0c0-96.7 79.29-175.74 176.26-175.74s176.26 79.04 176.26 175.73-79.29 175.63-176.26 175.63S23 294.2 23 197.61M189.89 50.64a62.85 62.85 0 0 1-24.09-8.46c-9.61 2.02-18.91 4.87-27.8 8.64 12.86 12.32 29.6 20.87 48.6 23.44 27.71 3.86 54.21-5.8 72.89-23.9-8.92-3.58-18.21-6.44-27.84-8.46-12.07 7.35-26.68 10.75-41.76 8.73Zm-6.18 44.67C159.33 92 137.95 80.79 121.76 64.7a100 100 0 0 1-3.68-3.96c-6.94 4.14-13.56 8.73-19.77 13.79 2.09 2.4 4.28 4.78 6.53 6.99 19.75 19.75 45.86 33.36 75.59 37.49 46.38 6.35 90.51-12.13 118.95-45.12-6.24-5.06-12.87-9.56-19.83-13.61-23.34 25.83-58.75 40.17-95.85 35.02ZM61.76 117c25.57 23.26 39.65 58.27 34.57 94.94-3.64 26.29-16.51 49.08-34.89 65.62 4.07 6.89 8.64 13.61 13.69 19.76 23.69-20.31 40.36-48.9 44.94-82.07 6.34-45.96-11.87-89.61-44.57-117.92-5.05 6.16-9.64 12.77-13.75 19.66Zm216.03 62.86c-5.89 42.65 9.38 83.36 37.79 111.67 2.3 2.3 4.7 4.51 7.17 6.61 5.08-6.16 9.7-12.77 13.8-19.67-1.38-1.28-2.75-2.49-4.06-3.86-23.27-23.17-35.8-56.53-30.97-91.45 3.66-26.56 16.71-49.45 35.32-65.99-4.09-6.89-8.67-13.52-13.73-19.76-23.9 20.31-40.71 49.08-45.32 82.44ZM43.16 164.88c7.11 11.95 10.39 26.2 8.35 40.9a63.3 63.3 0 0 1-8.47 23.99c1.99 9.65 4.89 18.93 8.52 27.84 12.44-12.86 21.06-29.59 23.68-48.52 3.78-27.39-5.69-53.49-23.46-72.06-3.7 8.91-6.6 18.19-8.63 27.84Zm279.47 21.14c-3.81 27.57 5.85 53.95 23.93 72.61 3.68-8.82 6.59-18.1 8.64-27.57-7.45-12.13-10.89-26.66-8.82-41.73 1.25-9.1 4.39-17.37 8.93-24.72-2.02-9.56-4.9-18.75-8.55-27.57-12.68 12.86-21.47 29.77-24.13 48.98M98.75 320.95c6.23 5.05 12.84 9.65 19.8 13.7 23.33-25.74 58.62-39.99 95.62-34.83 26.4 3.58 49.29 16.45 65.88 34.83 6.95-4.14 13.57-8.64 19.8-13.7-20.36-23.62-49.09-40.26-82.4-44.85-6.11-.83-12.19-1.19-18.18-1.19-39.42 0-75.84 17.55-100.51 46.05Zm39.8 23.61c8.9 3.68 18.2 6.52 27.83 8.55 12.04-7.26 26.59-10.66 41.61-8.64a62.2 62.2 0 0 1 24.29 8.64c9.61-2.03 18.89-4.96 27.8-8.64-12.89-12.4-29.72-21.05-48.82-23.61-4.03-.56-8.01-.83-11.97-.83-23.19 0-44.8 9.19-60.74 24.54Z" style="fill:url(#a)" data-source="https://football-logos.cc"></path><!-- source: https://football-logos.cc --></svg>