<svg xmlns="http://www.w3.org/2000/svg" viewBox="13.23 3.88 233.86 290.58"><!-- Source: https://football-logos.cc --><defs data-source="https://football-logos.cc"><clipPath id="a" clipPathUnits="userSpaceOnUse"><path d="M-37.6 305.06h283.46V21.6H-37.6z"></path></clipPath></defs><path fill="none" d="M-1-1h262v302H-1z" data-source="https://football-logos.cc"></path><g clip-path="url(#a)" transform="matrix(1.25 0 0 -1.25 0 354.325)" data-source="https://football-logos.cc"><path fill="#fbc707" d="M104.771 47.891s92.902 53.24 92.902 154.469c-33.217 23.707-92.237 23.385-92.237 23.385-59.017 0-94.785-23.528-94.785-23.528s-5.857-90.255 94.12-154.326"></path><path fill="#451f74" d="M104.771 50.334s87.706 51.952 87.706 148.52c-31.476 22.615-87.4 22.308-87.4 22.308-55.92 0-89.234-22.309-89.234-22.309s-5.806-87.399 88.928-148.519"></path><path fill="#fbc707" d="M184.836 178.99c-29.95 21.393-80.064 19.56-80.064 19.56-55.922 0-80.98-19.253-80.98-19.253s-2.14-74.259 80.98-125.904c0 0 75.178 42.78 80.064 125.596M27.44 199.713l1.625.69 9.525-5.495.031.013-3.305 7.777 2.254.958 5.014-11.795-1.627-.692-9.524 5.496-.03-.013 3.336-7.853-2.254-.96zM47.024 206.724l2.878.904-2.81-6.962 6.83-4.947-3.005-.944-5.525 4.187-.032-.01 1.693-5.391-2.338-.733-3.765 11.988 2.337.735 1.588-5.057.032.01zM68.329 206.785l-.033-.006-1.323-8.357-.835-.158-4.18 7.318-.033-.006.35-7.872-2.424-.457-.313 13.069 1.703.321 4.583-7.564 1.379 8.69 1.735.327 4.245-12.326-2.425-.458zM78.718 209.66l-.033-.005-.855-4.694 2.964.34zm-1.357-6.766-.725-2.75-2.566-.294 3.4 13.373 1.889.216 6.203-12.274-2.601-.298-1.261 2.523zM88.893 208.143l.316.02q.5.03.918.14.42.108.713.352.293.245.438.62.143.376.107.958-.034.566-.232.921a1.34 1.34 0 0 1-.517.536q-.32.181-.74.23t-.903.02l-.333-.02zm6.456-6.398-2.96-.183-3.357 4.87-.034-.002.312-5.058-2.445-.15-.774 12.543 3.311.204q.931.057 1.718-.11a3.5 3.5 0 0 0 1.364-.594q.577-.423.93-1.119.351-.697.413-1.695a4.3 4.3 0 0 0-.094-1.19 3.6 3.6 0 0 0-.425-1.088 3.1 3.1 0 0 0-.757-.857 2.7 2.7 0 0 0-1.072-.5zM99.16 201.818l-2.448-.07-.362 12.561 2.449.071zM104.234 203.842l.516.01q.5.01.94.069.442.057.771.248.33.189.522.552.193.36.181.978-.011.616-.244.954a1.4 1.4 0 0 1-.601.497 2.4 2.4 0 0 1-.828.184q-.46.023-.925.015l-.4-.008zm-.105 5.366.299.006q.45.008.783.089.33.082.552.27.221.187.323.515.103.326.094.81-.01.465-.149.78-.14.315-.376.493a1.4 1.4 0 0 1-.564.248 3.2 3.2 0 0 1-.711.06l-.315-.005zm-2.552 5.184 3.05.06q.866.016 1.569-.153.705-.17 1.203-.568.5-.4.771-1.044.27-.644.29-1.578a3.9 3.9 0 0 0-.233-1.371 2.14 2.14 0 0 0-.821-1.083q.552-.09.967-.39.413-.3.69-.737.274-.436.409-.95.136-.514.146-1.031.018-.933-.277-1.605a3.1 3.1 0 0 0-.82-1.125 3.45 3.45 0 0 0-1.262-.675 5.9 5.9 0 0 0-1.587-.24l-3.85-.074zM117.585 212.137a3.2 3.2 0 0 1-1.5-.273 3.7 3.7 0 0 1-1.213-.863 4.4 4.4 0 0 1-.824-1.267 4.3 4.3 0 0 1-.354-1.484 4.2 4.2 0 0 1 .207-1.487q.245-.773.702-1.431a4.3 4.3 0 0 1 1.112-1.101 2.77 2.77 0 0 1 1.435-.483 2.8 2.8 0 0 1 1.478.333q.694.372 1.219.979.522.607.845 1.35a4.2 4.2 0 0 1 .359 1.458 4.2 4.2 0 0 1-.196 1.513 4.5 4.5 0 0 1-.69 1.346 3.7 3.7 0 0 1-1.117.984 3.2 3.2 0 0 1-1.463.426m-.561-10.802q-1.381.071-2.494.663a6.1 6.1 0 0 0-1.881 1.533 6.6 6.6 0 0 0-1.164 2.17 7.2 7.2 0 0 0-.325 2.58q.067 1.315.588 2.49a6.7 6.7 0 0 0 1.383 2.039 6 6 0 0 0 2.029 1.338q1.169.474 2.55.403a5.9 5.9 0 0 0 2.485-.664 6 6 0 0 0 1.89-1.541q.768-.95 1.164-2.171a7 7 0 0 0 .327-2.537 7.2 7.2 0 0 0-.59-2.532 6.5 6.5 0 0 0-1.383-2.04 6.05 6.05 0 0 0-2.038-1.33 5.9 5.9 0 0 0-2.541-.401M128.24 207.6l.315-.035q.495-.055.928-.019.432.036.763.225.33.19.537.536t.27.926q.064.563-.071.947a1.34 1.34 0 0 1-.418.616 1.9 1.9 0 0 1-.69.353 5 5 0 0 1-.886.174l-.332.037zm5.266-7.409-2.95.327-2.472 5.372-.032.003-.56-5.035-2.435.27 1.385 12.49 3.296-.365a6.4 6.4 0 0 0 1.674-.404 3.5 3.5 0 0 0 1.243-.817q.496-.516.724-1.263.226-.746.117-1.739a4.3 4.3 0 0 0-.296-1.158 3.6 3.6 0 0 0-.606-.998 3.1 3.1 0 0 0-.892-.715 2.7 2.7 0 0 0-1.14-.309zM143.989 209.034l.417 2.092 4.02-.802L145.968 198l-2.404.48 2.043 10.231zM155.815 206.867a1.67 1.67 0 0 1-.859.01 2.1 2.1 0 0 1-.741-.367 2.4 2.4 0 0 1-.571-.635 2.8 2.8 0 0 1-.342-.78 2.8 2.8 0 0 1-.086-.857q.024-.436.189-.825.166-.387.469-.682.3-.294.754-.412.45-.116.858-.009.406.11.742.366.334.258.576.625.242.368.352.786.106.404.076.851a2.5 2.5 0 0 1-.195.834 2.1 2.1 0 0 1-.468.682 1.66 1.66 0 0 1-.754.413m-4.767-9.21 3.423 2.877-.024.041a2.7 2.7 0 0 0-.998.071 3.4 3.4 0 0 0-1.419.732q-.582.514-.903 1.193a4.1 4.1 0 0 0-.383 1.47 4.8 4.8 0 0 0 .146 1.58 4.7 4.7 0 0 0 .776 1.65 4.2 4.2 0 0 0 1.243 1.13 4.2 4.2 0 0 0 1.586.533 4.7 4.7 0 0 0 1.809-.128 4.7 4.7 0 0 0 1.59-.742 4.3 4.3 0 0 0 1.133-1.2q.431-.69.561-1.543a4.3 4.3 0 0 0-.11-1.77 5.5 5.5 0 0 0-1.002-2.03 12 12 0 0 0-1.542-1.648l-4.476-3.946zM162.733 195.154a1.66 1.66 0 0 1 .857-.074q.412.079.766.309.352.232.614.583a2.7 2.7 0 0 1 .543 1.584q.012.445-.124.844a2.1 2.1 0 0 1-.415.716q-.28.316-.72.467-.442.153-.856.073a2.1 2.1 0 0 1-.767-.308 2.5 2.5 0 0 1-.625-.588 2.528 2.528 0 0 1-.543-1.584 2.6 2.6 0 0 1 .134-.84 2.1 2.1 0 0 1 .415-.715q.28-.316.721-.467m5.445 8.827-3.63-2.614.022-.042q.231.008.482-.033a3 3 0 0 0 .501-.13q.82-.28 1.362-.836.54-.556.81-1.256t.271-1.494-.264-1.566a4.7 4.7 0 0 0-.894-1.578 4.2 4.2 0 0 0-1.322-1.027 4.2 4.2 0 0 0-1.623-.412 4.7 4.7 0 0 0-1.794.263 4.7 4.7 0 0 0-1.536.863q-.654.559-1.032 1.28a4 4 0 0 0-.447 1.572 4.3 4.3 0 0 0 .239 1.75 5.6 5.6 0 0 0 1.154 1.948q.779.86 1.66 1.527l4.761 3.599zM175.998 199.686q-.394.18-.791.093a2.1 2.1 0 0 1-.77-.346 4 4 0 0 1-.714-.646 9 9 0 0 1-.63-.804 9 9 0 0 1-.505-.813q-.217-.397-.347-.685a11 11 0 0 1-.283-.704 9 9 0 0 1-.281-.925 9 9 0 0 1-.195-1.01 4 4 0 0 1-.017-.971q.049-.453.243-.815.192-.362.587-.54.393-.18.793-.086.399.094.774.354.374.259.717.654.342.393.634.81.289.418.506.814.215.396.347.685.13.289.286.712a9 9 0 0 1 .468 1.919q.067.51.016.963a2.2 2.2 0 0 1-.247.807 1.23 1.23 0 0 1-.591.534m.88 1.943q1.154-.524 1.664-1.478t.579-2.073a8 8 0 0 0-.197-2.272 11 11 0 0 0-.687-2.077 10 10 0 0 0-.676-1.25 9 9 0 0 0-.91-1.216 8.5 8.5 0 0 0-1.103-1.045 4.9 4.9 0 0 0-1.264-.726 3.9 3.9 0 0 0-1.388-.258 3.55 3.55 0 0 0-1.483.343 3.5 3.5 0 0 0-1.233.889 3.8 3.8 0 0 0-.722 1.215 4.8 4.8 0 0 0-.285 1.428 8.3 8.3 0 0 0 .058 1.52q.097.762.316 1.486.218.724.494 1.33.42.927 1.11 1.886t1.58 1.645a5 5 0 0 0 1.942.93q1.05.246 2.206-.277"></path><path fill="#451f74" d="M60.721 114.511s8.654-5.729 19.196-9.243v-4.126s-9.928-5.807-7.028-15.434c0 0 2.752-9.166 13.908-8.403 4.337.3 7.35 3.917 11.155 5.564l-.1-.063c4.1 1.898 8.851 1.846 12.98.063 3.805-1.647 6.82-5.265 11.16-5.564 11.152-.763 13.903 8.403 13.903 8.403 2.905 9.627-7.03 15.434-7.03 15.434v4.126c10.544 3.514 19.204 9.243 19.204 9.243 34.224 25.061 18.637 39.423 18.637 39.423-15.89 12.833-36.366-7.946-36.366-7.946l-3.054 2.902s7.821 28.5-7.003 38.733c-16.182 11.18-31.906-.304-31.906-.304-14.823-10.237-6.88-38.352-6.88-38.352l-3.053-2.903s-20.475 20.781-36.367 7.947c0 0-15.586-14.365 18.644-39.423"></path><path fill="#fbc707" d="M124.94 138.398s-.099-4.287-4.43-4.43c-4.84 0-4.89 4.43-4.89 4.43h-4.278v-7.334H98.357v7.334h-4.28s-.103-4.338-4.789-4.43h-.102c-4.532.195-4.43 4.43-4.43 4.43H80.02v-30.252h18.337v14.897s5.754 6.952 12.833 0v-14.897h18.338v30.252z"></path><path fill="#fbc707" d="M109.502 139.417v18.818h-.005a.58.58 0 0 1-.572.575h-.665a.583.583 0 0 1-.579-.575h-.01v-15.888h-.922v17.926h-.015a.605.605 0 0 1-.593.525h-2.859a.6.6 0 0 1-.588-.525h-.015v-17.926h-.92v15.888h-.017a.603.603 0 0 1-.592.536h-.702a.6.6 0 0 1-.592-.536h-.017v-18.818l2.921.023a3.15 3.15 0 0 1-1.176-2.453 3.18 3.18 0 0 1 3.182-3.18 3.18 3.18 0 0 1 3.18 3.18c0 .996-.464 1.87-1.176 2.455h.844zM104.13 280.356l6.57-13.31 14.69-2.136-10.63-10.362 2.51-14.63-13.14 6.911-13.14-6.912 2.51 14.631-10.63 10.362 14.688 2.135z"></path></g><!-- source: https://football-logos.cc --></svg>