<svg xmlns="http://www.w3.org/2000/svg" viewBox="13 170.67 768.04 780.17"><!-- Source: https://football-logos.cc --><defs data-source="https://football-logos.cc"><clipPath id="a" clipPathUnits="userSpaceOnUse"><path d="M-297.5 713.125h595.28v-841.89H-297.5Z"></path></clipPath><clipPath id="b" clipPathUnits="userSpaceOnUse"><path d="M-297.5 703.667h595.28v-841.89H-297.5Z"></path></clipPath><clipPath id="c" clipPathUnits="userSpaceOnUse"><path d="M-297.5 353.67h595.28v-841.89H-297.5Z"></path></clipPath><clipPath id="d" clipPathUnits="userSpaceOnUse"><path d="M-297.5 144h595.28v-841.89H-297.5Z"></path></clipPath><clipPath id="e" clipPathUnits="userSpaceOnUse"><path d="M-512 144H83.28v-841.89H-512Z"></path></clipPath><clipPath id="f" clipPathUnits="userSpaceOnUse"><path d="M-375.2 647h595.28v-841.89H-375.2Z"></path></clipPath><clipPath id="g" clipPathUnits="userSpaceOnUse"><path d="M-451.36 549.33h595.28v-841.89h-595.28Z"></path></clipPath><clipPath id="h" clipPathUnits="userSpaceOnUse"><path d="M-492.54 451.67h595.28v-841.89h-595.28Z"></path></clipPath><clipPath id="i" clipPathUnits="userSpaceOnUse"><path d="M-511.03 353.67H84.25v-841.89h-595.28Z"></path></clipPath><clipPath id="j" clipPathUnits="userSpaceOnUse"><path d="M-585.78 192.67H9.5v-841.89h-595.28Z"></path></clipPath><clipPath id="k" clipPathUnits="userSpaceOnUse"><path d="M0 841.89h595.28V0H0Z"></path></clipPath><clipPath id="l" clipPathUnits="userSpaceOnUse"><path d="M-578.75 203.25H16.53v-841.89h-595.28Z"></path></clipPath><clipPath id="m" clipPathUnits="userSpaceOnUse"><path d="M-56.3 319.14h595.28v-841.89H-56.3Z"></path></clipPath><clipPath id="n" clipPathUnits="userSpaceOnUse"><path d="M-188.333 195.875h595.28v-841.89h-595.28Z"></path></clipPath><clipPath id="o" clipPathUnits="userSpaceOnUse"><path d="M-218.5 175.75h595.28v-841.89H-218.5Z"></path></clipPath><clipPath id="p" clipPathUnits="userSpaceOnUse"><path d="M-70.5 283.167h595.28v-841.89H-70.5Z"></path></clipPath><clipPath id="q" clipPathUnits="userSpaceOnUse"><path d="M-525 283.167H70.28v-841.89H-525Z"></path></clipPath><clipPath id="r" clipPathUnits="userSpaceOnUse"><path d="M-135.5 242.88h595.28v-841.89H-135.5Z"></path></clipPath><clipPath id="s" clipPathUnits="userSpaceOnUse"><path d="M0 841.89h595.28V0H0Z"></path></clipPath><clipPath id="t" clipPathUnits="userSpaceOnUse"><path d="M-183.17 244.5h595.28v-841.89h-595.28Z"></path></clipPath><clipPath id="u" clipPathUnits="userSpaceOnUse"><path d="M-294.75 286.125h595.28v-841.89h-595.28Z"></path></clipPath><clipPath id="v" clipPathUnits="userSpaceOnUse"><path d="M-329.62 272.88h595.28v-841.89h-595.28Z"></path></clipPath><clipPath id="w" clipPathUnits="userSpaceOnUse"><path d="M-394.05 244.63h595.28v-841.89h-595.28Z"></path></clipPath><clipPath id="x" clipPathUnits="userSpaceOnUse"><path d="M-441.33 221.13h595.28v-841.89h-595.28Z"></path></clipPath><clipPath id="y" clipPathUnits="userSpaceOnUse"><path d="M-467.67 234.88h595.28v-841.89h-595.28Z"></path></clipPath><clipPath id="z" clipPathUnits="userSpaceOnUse"><path d="M-165.667 338h595.28v-841.89h-595.28Z"></path></clipPath><clipPath id="A" clipPathUnits="userSpaceOnUse"><path d="M-179.83 325.67h595.28v-841.89h-595.28Z"></path></clipPath><clipPath id="B" clipPathUnits="userSpaceOnUse"><path d="M-190 338h595.28v-841.89H-190Z"></path></clipPath><clipPath id="C" clipPathUnits="userSpaceOnUse"><path d="M-218.563 338h595.28v-841.89h-595.28Z"></path></clipPath><clipPath id="D" clipPathUnits="userSpaceOnUse"><path d="M-118.08 411.38H477.2v-841.89h-595.28Z"></path></clipPath><clipPath id="E" clipPathUnits="userSpaceOnUse"><path d="M-150.16 439.07h595.28v-841.89h-595.28Z"></path></clipPath><clipPath id="F" clipPathUnits="userSpaceOnUse"><path d="M-141.47 466.66h595.28v-841.89h-595.28Z"></path></clipPath><clipPath id="G" clipPathUnits="userSpaceOnUse"><path d="M-150.86 496.59h595.28V-345.3h-595.28Z"></path></clipPath><clipPath id="H" clipPathUnits="userSpaceOnUse"><path d="M-203.92 575.2h595.28v-841.89h-595.28Z"></path></clipPath><clipPath id="I" clipPathUnits="userSpaceOnUse"><path d="M-183.976 520.355h595.28v-841.89h-595.28Z"></path></clipPath><clipPath id="J" clipPathUnits="userSpaceOnUse"><path d="M-203.651 531.756h595.28v-841.89h-595.28Z"></path></clipPath><clipPath id="K" clipPathUnits="userSpaceOnUse"><path d="M-166.333 541.417h595.28v-841.89h-595.28Z"></path></clipPath><clipPath id="L" clipPathUnits="userSpaceOnUse"><path d="M-218.87 554.028h595.28v-841.89h-595.28Z"></path></clipPath><clipPath id="M" clipPathUnits="userSpaceOnUse"><path d="M-186.577 594.373h595.28v-841.89h-595.28Z"></path></clipPath><clipPath id="N" clipPathUnits="userSpaceOnUse"><path d="M-210.867 623.715h595.28v-841.89h-595.28Z"></path></clipPath><clipPath id="O" clipPathUnits="userSpaceOnUse"><path d="M-237.483 630.332h595.28v-841.89h-595.28Z"></path></clipPath></defs><path d="M0 0c-44.834 17.792-81.418 45.212-113.167 79.458-70 77-117.333 198.336-117.333 308.387v197.28h461v-197.28c0-116.224-52.667-244.053-129.667-321.387C72.057 38.136 40.5 14.792 0 0" clip-path="url(#a)" style="fill:#222220;fill-opacity:1;fill-rule:nonzero;stroke:none" transform="matrix(1.33333 0 0 -1.33333 396.667 950.833)"></path><path d="M0 0c-43.083 17.22-78.239 45.76-108.748 78.907C-176.015 153.434-219.5 271-221.5 375.389v190.944h443V375.389c-1.667-110.722-50.61-234.215-124.604-309.065C69.243 38.911 38.918 14.317 0 0" clip-path="url(#b)" style="fill:#fefefe;fill-opacity:1;fill-rule:nonzero;stroke:none" transform="matrix(1.33333 0 0 -1.33333 396.667 938.222)"></path><path d="M0 0v-341.93c-41.01 16.59-70.65 40.07-99.82 71.8C-163.19-201.34-205.58-97.81-212.57 0z" clip-path="url(#c)" style="fill:#c4211a;fill-opacity:1;fill-rule:nonzero;stroke:none" transform="matrix(1.33333 0 0 -1.33333 396.667 471.56)"></path><path d="M0 0v-209.67h-212.57c-.48 6.65-.79 13.28-.93 19.86V0Z" clip-path="url(#d)" style="fill:#212120;fill-opacity:1;fill-rule:nonzero;stroke:none" transform="matrix(1.33333 0 0 -1.33333 396.667 192)"></path><path d="M0 0v-189.81c-.15-6.58-.47-13.21-.97-19.86H-214.5V0Z" clip-path="url(#e)" style="fill:#c4211a;fill-opacity:1;fill-rule:nonzero;stroke:none" transform="matrix(1.33333 0 0 -1.33333 682.667 192)"></path><path d="M0 0c-22.99-20.67-47.01-35.97-76.7-49.01-.33.13-.67.27-1 .41V0Z" clip-path="url(#f)" style="fill:#222220;fill-opacity:1;fill-rule:nonzero;stroke:none" transform="matrix(1.33333 0 0 -1.33333 500.267 862.667)"></path><path d="M0 0c-9.53-17.1-20-33.32-31.28-48.34h-122.58V0Z" clip-path="url(#g)" style="fill:#222220;fill-opacity:1;fill-rule:nonzero;stroke:none" transform="matrix(1.33333 0 0 -1.33333 601.813 732.44)"></path><path d="M0 0a499 499 0 0 0-17.29-48.33h-177.75V0Z" clip-path="url(#h)" style="fill:#222220;fill-opacity:1;fill-rule:nonzero;stroke:none" transform="matrix(1.33333 0 0 -1.33333 656.72 602.227)"></path><path d="M0 0c-1.17-16-3.32-32.17-6.36-48.33h-207.17V0Z" clip-path="url(#i)" style="fill:#222220;fill-opacity:1;fill-rule:nonzero;stroke:none" transform="matrix(1.33333 0 0 -1.33333 681.373 471.56)"></path><path d="M0 0v-112.08l-60.5-29.08v28.83h-455.03v-28.83l-60.5 29.08V0l38.5-18.77v11.19h498.75v-11.33z" clip-path="url(#j)" style="fill:#222221;fill-opacity:1;fill-rule:nonzero;stroke:none" transform="matrix(1.33333 0 0 -1.33333 781.04 256.893)"></path><path d="M540 544.39H55v90.17h485z" clip-path="url(#k)" style="fill:#fff;fill-opacity:1;fill-rule:nonzero;stroke:none" transform="matrix(1.33333 0 0 -1.33333 0 1122.52)"></path><path d="M0 0v-97.06l-40.66-19.48 8.91 14.79v85.66z" clip-path="url(#l)" style="fill:#fff;fill-opacity:1;fill-rule:nonzero;stroke:none" transform="matrix(1.33333 0 0 -1.33333 771.667 271)"></path><path d="m0 0-39.52 18.83v96.06L-8.05 99.8V14.14Z" clip-path="url(#m)" style="fill:#fff;fill-opacity:1;fill-rule:nonzero;stroke:none" transform="matrix(1.33333 0 0 -1.33333 75.067 425.52)"></path><path d="m0 0-25.833 26.875.125-24.333h-5.959V41.25l25.834-27.375.25 24.667H0Z" clip-path="url(#n)" style="fill:#fff;fill-opacity:1;fill-rule:nonzero;stroke:none" transform="matrix(1.33333 0 0 -1.33333 251.111 261.167)"></path><path d="M0 0c0-6.56-5.32-11.87-11.88-11.87H-17V13h5.12C-5.32 13 0 7.68 0 1.13Zm-10.75 17.87H-22V-17.5h11.25c8.97 0 16.25 7.28 16.25 16.25v2.88c0 8.97-7.28 16.24-16.25 16.24" clip-path="url(#o)" style="fill:#fff;fill-opacity:1;fill-rule:nonzero;stroke:none" transform="matrix(1.33333 0 0 -1.33333 291.333 234.333)"></path><path d="M0 0v61.167l17.167-30.584Z" clip-path="url(#p)" style="fill:#222221;fill-opacity:1;fill-rule:nonzero;stroke:none" transform="matrix(1.33333 0 0 -1.33333 94 377.556)"></path><path d="M0 0v61.167l-17.167-30.584Z" clip-path="url(#q)" style="fill:#222221;fill-opacity:1;fill-rule:nonzero;stroke:none" transform="matrix(1.33333 0 0 -1.33333 700 377.556)"></path><path d="M0 0c0-4.28-3.47-7.74-7.75-7.74H-13V8.13h5.25A7.75 7.75 0 0 0 0 .38Zm-5 21.88h-20.62v-65.12H-13v21.74h8C6.39-21.5 13.62-15 13.62-.87v2.13c0 13-7.23 20.62-18.62 20.62" clip-path="url(#r)" style="fill:#222221;fill-opacity:1;fill-rule:nonzero;stroke:none" transform="matrix(1.33333 0 0 -1.33333 180.667 323.84)"></path><path d="M220.625 555.765H206.5v65.125h14.125z" clip-path="url(#s)" style="fill:#222221;fill-opacity:1;fill-rule:nonzero;stroke:none" transform="matrix(1.33333 0 0 -1.33333 0 1122.52)"></path><path d="M0 0c0-3.91-3.17-7.08-7.09-7.08h-5.46V9.75h5.46C-3.17 9.75 0 6.58 0 2.67Zm1.32-14.56C8.45-13.41 13.89-7.23 13.89.22v5.37c0 9.89-8.01 17.91-17.9 17.91h-21.54v-65.12h13v27.15l.13-.28L0-41.62h16.58z" clip-path="url(#t)" style="fill:#222221;fill-opacity:1;fill-rule:nonzero;stroke:none" transform="matrix(1.33333 0 0 -1.33333 244.227 326)"></path><path d="M0 0h-13.375l-4.5 41.75L-28 0h-9.125l-9.75 41.875L-51.25 0h-13.5l8.25 65.125h14.375l9.75-41.875 9.75 41.875H-8.5Z" clip-path="url(#u)" style="fill:#222221;fill-opacity:1;fill-rule:nonzero;stroke:none" transform="matrix(1.33333 0 0 -1.33333 393 381.5)" data-source="https://football-logos.cc"></path><path d="M0 0c-8 0-14.5 8.6-14.5 19.19 0 10.6 6.5 19.19 14.5 19.19 8.01 0 14.5-8.59 14.5-19.19C14.5 8.6 8.01 0 0 0m-.24 53.13c-15.68 0-28.38-15.14-28.38-33.81C-28.62.64-15.92-14.5-.24-14.5c15.67 0 28.37 15.14 28.37 33.82 0 18.67-12.7 33.81-28.37 33.81" clip-path="url(#v)" style="fill:#222221;fill-opacity:1;fill-rule:nonzero;stroke:none" transform="matrix(1.33333 0 0 -1.33333 439.493 363.84)"></path><path d="M0 0c0-3.91-3.17-7.08-7.09-7.08h-5.46V9.75h5.46C-3.17 9.75 0 6.58 0 2.67Zm1.32-14.56C8.45-13.41 13.89-7.23 13.89.22v5.37c0 9.89-8.01 17.91-17.9 17.91h-21.54v-65.12h13v27.15l.13-.28L0-41.62h16.58z" clip-path="url(#w)" style="fill:#222221;fill-opacity:1;fill-rule:nonzero;stroke:none" transform="matrix(1.33333 0 0 -1.33333 525.4 326.173)"></path><path d="M0 0v-49.65c0-8.89-6.56-16.66-14.66-16.66v.06s-9.75-.54-16.04 9.88l8.37 10.25s-.12-6.37 4.25-6.5c1.992-.058 2.879 1.876 3.253 4.004.128.733.167 1.478.167 2.222V0Z" clip-path="url(#x)" style="fill:#222221;fill-opacity:1;fill-rule:nonzero;stroke:none" transform="matrix(1.33333 0 0 -1.33333 588.44 294.84)"></path><path d="M0 0v-12.29h16.66v-12.83H0v-11.83h17.83v-14.29h-32v64.99h32V0Z" clip-path="url(#y)" style="fill:#222221;fill-opacity:1;fill-rule:nonzero;stroke:none" transform="matrix(1.33333 0 0 -1.33333 623.56 313.173)"></path><path d="M0 0h-4.042v20.167l-4.041.083 2.166 3.917H0Z" clip-path="url(#z)" style="fill:#fff;fill-opacity:1;fill-rule:nonzero;stroke:none" transform="matrix(1.33333 0 0 -1.33333 220.889 450.667)"></path><path d="M0 0c-2.3 0-4.16 1.87-4.16 4.17S-2.3 8.34 0 8.34s4.17-1.87 4.17-4.17S2.3 0 0 0m-.16 12.34c-4.47 0-8.09-3.62-8.09-8.09 0-5.86 4.02-8.21 8.15-7.59l-5.38-7.68 3.29-2.31L5.99-1.67 7.409.35c.823 1.341.931 2.78.931 3.9 0 4.47-4.04 8.09-8.5 8.09" clip-path="url(#A)" style="fill:#fff;fill-opacity:1;fill-rule:nonzero;stroke:none" transform="matrix(1.33333 0 0 -1.33333 239.773 434.227)"></path><path d="M0 0h16.562v3.438H7.687l6.508 7.527c1.263 1.461 2.178 3.216 2.485 5.122.336 2.089-.641 5.586-3.242 7.163-4.125 2.5-7.688.917-7.688.917S.687 22.5.625 16.5h3.812s.781 3.654 3.331 4.227c2.431.546 4.807-1.545 4.559-4.024-.1-.994-.552-2.222-1.639-3.703z" clip-path="url(#B)" style="fill:#fff;fill-opacity:1;fill-rule:nonzero;stroke:none" transform="matrix(1.33333 0 0 -1.33333 253.333 450.667)"></path><path d="M0 0h-4.042v20.167l-4.041.083 2.166 3.917H0Z" clip-path="url(#C)" style="fill:#fff;fill-opacity:1;fill-rule:nonzero;stroke:none" transform="matrix(1.33333 0 0 -1.33333 291.417 450.667)"></path><path d="m0 0-1.31 6.78L12.3 5.74Zm23.17 11.5-39.25 2.63 1.11-6.3 7.1-.54 1.94-10.06-6.63-3.09 1.23-7.01 35.37 17.5z" clip-path="url(#D)" style="fill:#fff;fill-opacity:1;fill-rule:nonzero;stroke:none" transform="matrix(1.33333 0 0 -1.33333 157.44 548.507)"></path><path d="m0 0-28.102-7.942C-33.53-9.477-39.174-6.321-40.709-.893c-1.536 5.43 1.623 11.076 7.053 12.61l5.006 1.413 1.92-6.78-4.759-1.343a3.193 3.193 0 1 1 1.736-6.147L-1.9 6.73Z" clip-path="url(#E)" style="fill:#fff;fill-opacity:1;fill-rule:nonzero;stroke:none" transform="matrix(1.33333 0 0 -1.33333 200.213 585.427)"></path><path d="m0 0-5.41-1.54A8.64 8.64 0 0 0-16.09 4.4l-.94 3.33L5 14l.94-3.32A8.64 8.64 0 0 0 0 0m13.92 12.3-2.95 10.38-37.27-10.62 2.95-10.38C-21.1-6.21-12.88-10.79-4.99-8.54l8.7 2.48C11.6-3.81 16.17 4.41 13.92 12.3" clip-path="url(#F)" style="fill:#fff;fill-opacity:1;fill-rule:nonzero;stroke:none" transform="matrix(1.33333 0 0 -1.33333 188.627 622.213)"></path><path d="M0 0c-6.5-2.71-12.48-3.03-14.51 1.67-1.55 3.62 2.51 8.79 9 11.5S7.48 15.13 9 11.49 6.49 2.71 0 0m15.95 14.34C12.14 22.97 2.5 23.91-7.81 19.6S-25.22 7.26-21.42-1.29c4-9 14.06-9.18 24.37-4.87 10.31 4.3 16.8 11.9 13 20.5" clip-path="url(#G)" style="fill:#fff;fill-opacity:1;fill-rule:nonzero;stroke:none" transform="matrix(1.33333 0 0 -1.33333 201.147 662.12)"></path><path d="m0 0-4.45 5.67c2.86 3.12 3.9 6.36 2.28 8.7-2.25 3.24-8.05 2.33-13.83-1.67S-24.94 2.67-22.67-.55c2.17-3.04 5.58-2.36 9.52-.21l4.59-5.85c-7.56-4.42-15.44-5.05-20.61 2.14-5.46 7.6.23 17.12 9.41 23.49 9.19 6.36 18.23 7.16 23.76-.49C8.6 12.18 6.16 5.99 0 0" clip-path="url(#H)" style="fill:#fff;fill-opacity:1;fill-rule:nonzero;stroke:none" transform="matrix(1.33333 0 0 -1.33333 271.893 766.933)"></path><path d="m0 0-39.016-7.87-3.211 6.764 30.584 24.795 3.434-6.988L-29.393.439l26.134 6.192z" clip-path="url(#I)" style="fill:#fff;fill-opacity:1;fill-rule:nonzero;stroke:none" transform="matrix(1.33333 0 0 -1.33333 245.302 693.807)"></path><path d="m0 0-9.431-.607-2.352 4.074 5.745 7.896 1.702-3.203-3.783-5.509 6.544.312z" clip-path="url(#J)" style="fill:#fff;fill-opacity:1;fill-rule:nonzero;stroke:none" transform="matrix(1.33333 0 0 -1.33333 271.535 709.008)"></path><path d="m0 0-3.471 6.333s-8.112-5.333-8.112-11 3.916-9.5 3.916-9.5 4.167-5.416 12.25-2.916 8.75 8.25 8.75 8.25.584 4.25-1.279 9.132c-1.193 3.126-.316 6.512 3.019 6.798 4.677.403 6.472-6.134 2.57-9.014l3.107-5.416s8.333 3.166 6.5 12-9.167 9.583-9.167 9.583-7.415 1.127-11.735-3.827C4.914 8.78 4.16 6.66 3.979 4.487 3.801 2.334 3.827-.866 5-3.75c2-4.917-1.776-7.492-4.75-6.917C-2.333-10.167-6.833-4.25 0 0" clip-path="url(#K)" style="fill:#fff;fill-opacity:1;fill-rule:nonzero;stroke:none" transform="matrix(1.33333 0 0 -1.33333 221.778 721.889)"></path><path d="m0 0-9.283-1.768-2.838 3.752 4.726 8.546 2.084-2.968-3.073-5.935 6.455 1.119z" clip-path="url(#L)" style="fill:#fff;fill-opacity:1;fill-rule:nonzero;stroke:none" transform="matrix(1.33333 0 0 -1.33333 291.828 738.704)"></path><path d="m0 0 4.434-5.483L34.039 18.46l-4.435 5.482Z" clip-path="url(#M)" style="fill:#fff;fill-opacity:1;fill-rule:nonzero;stroke:none" transform="matrix(1.33333 0 0 -1.33333 248.77 792.497)"></path><path d="m0 0-4.564 5.278L5.633 28.34-11.57 13.379l-4.553 5.265 28.834 24.934 4.331-5.008L7.008 15.09l17.485 14.864 4.341-5.019Z" clip-path="url(#N)" style="fill:#fff;fill-opacity:1;fill-rule:nonzero;stroke:none" transform="matrix(1.33333 0 0 -1.33333 281.156 831.62)"></path><path d="m0 0-5.187 4.707 11.505 7.347zm11.481 23.264L-21.472 1.775l4.734-4.438 6 3.835 7.694-6.986-3.408-6.494 5.264-4.941L16.371 18.22z" clip-path="url(#O)" style="fill:#fff;fill-opacity:1;fill-rule:nonzero;stroke:none" transform="matrix(1.33333 0 0 -1.33333 316.644 840.443)" data-source="https://football-logos.cc"></path><!-- source: https://football-logos.cc --></svg>