<svg xmlns="http://www.w3.org/2000/svg" xml:space="preserve" style="shape-rendering:geometricPrecision;text-rendering:geometricPrecision;image-rendering:optimizeQuality;fill-rule:evenodd;clip-rule:evenodd" viewBox="1.81 9.5 6568.37 7873.5"><!-- Source: https://football-logos.cc --><defs data-source="https://football-logos.cc"><style>.fil4{fill:#373435;fill-rule:nonzero}.fil0,.fil1,.fil5{fill:#201e1e;fill-rule:nonzero}.fil0,.fil5{fill:#848688}.fil5{fill:#ffde20}</style></defs><g id="Layer_x0020_1" data-source="https://football-logos.cc"><path d="M2582 89c462-106 946-106 1408 0 288 67 561 160 832 252 305 104 608 199 925 260 271 53 542 79 816 98 0 232 2 465 4 697 5 561 9 1098-28 1613-82 1114-390 2164-962 3032-564 855-1343 1463-2291 1842-948-379-1727-987-2291-1842-572-868-880-1918-962-3032C-4 2494 0 1957 5 1396c2-232 4-465 4-697 274-19 545-45 816-98 317-61 620-156 925-260 271-92 544-185 832-252" class="fil0"></path><path d="M2593 142c455-105 931-105 1385 0 285 65 557 158 827 250 307 105 613 200 932 262 256 50 513 78 772 96 0 215 2 431 4 646 5 560 9 1095-28 1609-81 1105-386 2147-953 3006-559 848-1312 1429-2246 1814-934-385-1687-967-2246-1814-567-859-872-1901-953-3006-37-514-33-1049-28-1609 2-215 4-431 4-646 259-18 516-46 772-96 319-62 625-157 932-262 270-92 542-185 826-250" class="fil1"></path><path d="M2619 253c-278 65-547 156-815 248-313 106-623 203-948 266-223 43-447 72-679 90 0 183-2 363-3 540-5 556-10 1087 28 1600 80 1086 378 2109 934 2951 500 758 1207 1370 2150 1753 943-383 1650-995 2150-1753 556-842 854-1865 934-2951 38-513 33-1044 28-1600-1-177-3-357-3-540-232-18-457-47-679-90-325-63-635-160-948-266-268-92-537-183-815-248-438-100-896-100-1334 0" class="fil0"></path><path d="M2631 306c-275 63-543 155-810 246-315 107-627 204-955 268-209 40-419 69-635 87 0 166-2 329-3 491-5 553-10 1082 28 1595 79 1078 375 2091 925 2926 491 743 1183 1345 2105 1724V232c-220 0-440 24-655 74" class="fil1"></path><path d="M3286 7643c922-379 1614-981 2105-1724 550-835 846-1848 925-2926 38-513 33-1042 28-1595-1-162-3-325-3-491-216-18-426-47-635-87-328-64-640-161-955-268-267-91-535-183-810-246-215-50-435-74-655-74z" style="fill:#00a859;fill-rule:nonzero"></path><path d="M3286 5032c536 0 974-438 974-974s-438-974-974-974-974 438-974 974 438 974 974 974" style="fill:#fefefe;fill-rule:nonzero"></path><path d="m3286 4385 305-221-117-358h-376l-117 358z" class="fil1"></path><path d="M2558 3412c93-104 208-189 338-246l189 96-164 294-330 65zM2446 4550c-70-118-115-253-129-397l150-150 228 247-40 334zM3494 5009c-67 15-137 23-208 23s-141-8-208-23l-97-189 305-141 305 141zM4255 4153c-14 144-59 279-129 397l-209 34-40-334 228-247zM3676 3166c130 57 245 142 338 246l-33 209-330-65-164-294z" class="fil4"></path><path d="m1119 2639-156-592v592H668V1284h231l171 621v-621h572v526l182-526h324l-10 24-249 613 302 718h-341l-208-531v531zM2478 2640V1284h507l143 149v-149h327v1098h62V1284l819 1 193 191v715l117-907h433l141 1056V1284h507l177 185v367l-133 128 133 127v548h-303v-541l-67-1v540c-105 1-209 2-314 3v-1h-277l-15-246h-126l-25 246h-306l20-152-148 152h-532v-156l-146 151-5 5h-342l-156-157v157h-303v-541l-67-1v540h-17l-280 2zm381-801v-296l-67-2v297zm269 30-99 95 99 95zm1008 511h72v-834h-72zm686-248h89l-43-522h-16zm779-293v-296l-67-2v297z" class="fil1"></path><path d="M1373 2605h235v-593l21-42 245 635h266l-288-685 245-601h-249l-220 642-20-55v-587h-235zM1338 2605V1319h-234v828l-231-828H702v1286h227v-805l217 805zM3845 2605h483l167-171v-944l-173-171h-477zm257-190v-903h140v903zM4510 2605h236l26-246h188l15 246h245l-171-1286h-373zm275-439 35-591h79l50 591zM5255 2605l244-2v-541l136 3v540h235v-499l-148-141 148-144v-338l-157-164h-459zm380-731-136-3v-365l136 3zM2512 2605l245-2v-541l136 3v540h235v-499l-148-141 148-144v-338l-157-164h-459zm381-731-136-3v-365l136 3zM3162 1476v957l172 172h312l165-171V1319h-260v1097h-131V1319h-258z" class="fil5"></path><path d="M2852 6130v-671h134v531h139v140z" class="fil4"></path><path d="M2870 6113h238v-106h-139v-531h-99z" class="fil5"></path><path d="M3961 6120v-162c19 18 54 66 104 41 27-16 18-107 18-134v-406h146v464c0 96-23 191-124 212-42 9-107 4-144-15" class="fil1"></path><path d="M3979 6110c28 13 89 15 123 8 93-19 110-110 110-195v-447h-111v389c0 37 10 127-28 149-35 21-72 7-93-12-1 0-1 9-1 8z" class="fil5"></path><path d="M4318 6130v-671h275v138h-131v122h110v141h-110v130h131v140z" class="fil1"></path><path d="M4335 6113h240v-105h-130v-165h110v-107h-110v-156h130v-104h-240z" class="fil5"></path><path d="M3511 6130v-671h137l138 358 3 6c-2-17-3-35-4-51 0-19-1-36-1-53v-260l141-2v671l-133 2-141-367c1 8 1 15 1 23 0 19 1 39 1 60v284z" class="fil1"></path><path d="M3528 6113h107v-327c0-21-1-41-2-62h20l151 389 104-2v-636l-107 1v243c0 16 1 34 2 52 0 17 2 36 3 55 1 13 2 25 4 37h-27c-3-14-7-27-13-40l-134-347h-108z" class="fil5"></path><path d="M3165 6130v-671h274v138h-131v122h111v141h-111v130h131v140z" class="fil1"></path><path d="M3182 6113h240v-105h-131v-165h110v-107h-110v-156h131v-104h-240z" class="fil5"></path><path d="M2496 6130v-671h275v138h-130v122h110v141h-110v130h130v140z" class="fil1"></path><path d="M2513 6113h241v-105h-130v-165h110v-107h-110v-156h130v-104h-241z" class="fil5"></path><path d="m2164 6130-185-671h146l76 303c8 30 14 62 19 93l3 18c0-4 1-9 2-13q6-48 18-96l6-24 68-281h149l-183 671z" class="fil1"></path><path d="M2178 6113h92l174-637h-113l-65 269q-15 58.5-24 117c-2 12-3 24-5 35h-29c-5-44-13-88-24-131l-72-290h-110z" class="fil5"></path></g><!-- source: https://football-logos.cc --></svg>