<svg xmlns="http://www.w3.org/2000/svg" viewBox="1 1 190.6 250"><!-- Source: https://football-logos.cc --><path d="M81.522 137.48h432.231v390.56c0 37.123-11.87 58.026-29.927 78.47-24.041 27.218-65.335 46.947-97.708 60.776l-86.723 37.123-93.56-38.48c-12.926-5.317-68.13-28.201-96.571-60.925-20.23-23.277-27.742-45.264-27.742-83.41Z" style="fill:#ffd900;fill-rule:evenodd" transform="translate(-34.949 -59.625)scale(.44097)" data-source="https://football-logos.cc"></path><path d="M92.928 148.886v372.709c0 31.086 4.421 52.312 24.945 75.926 21.922 25.223 61.746 45.291 92.3 57.859l89.134 36.66 82.328-35.242c31.125-13.296 70.973-32.174 93.642-57.839 19.41-21.975 27.07-40.943 27.07-70.919V148.886Z" style="fill:#fff;fill-rule:evenodd" transform="translate(-34.949 -59.625)scale(.44097)"></path><path d="M92.928 310.617h320.748v331.497c-11.009 5.505-21.98 10.387-32.041 14.684l-82.328 35.242-89.134-36.66c-30.554-12.568-70.378-32.636-92.3-57.859-20.524-23.613-24.945-44.84-24.945-75.926Z" style="fill:#e30022;fill-rule:evenodd" transform="translate(-34.949 -59.625)scale(.44097)"></path><path d="M92.928 305.752h316.3V148.886h7.888v491.488a423 423 0 0 1-7.887 3.932V399.331L174.886 639.025c-21.589-11.309-42.973-25.349-57.013-41.504-7.514-8.645-12.868-16.971-16.638-25.578l251.004-256.82H92.928Z" style="fill:#1b1918;fill-rule:evenodd" transform="translate(-34.949 -59.625)scale(.44097)" data-source="https://football-logos.cc"></path><path d="M128.67 179.538h21.99v15.2h12.885v-15.2h21.067v15.2h12.885v-15.2h21.66v47.44h18.156v15.466h12.153v-15.466h21.697v15.466h13.05v-15.466h20.903v15.466H317.9v-15.466h21.933v15.466h12.285v-15.466h22.096v85.807l-245.546-.104zm90.487 51.42v77.848h151.08v-77.849h-14.14v15.465h-20.242v-15.465H321.88v15.465h-20.743v-15.465h-12.944v15.465h-21.008v-15.465h-13.74v15.465h-20.111v-15.465Zm-86.509-47.44v125.184h82.53V183.517h-13.702v15.2h-20.842v-15.2h-13.11v15.2H146.68v-15.2z" style="fill:#1b1918;fill-rule:evenodd" transform="translate(-34.949 -59.625)scale(.44097)"></path><path d="M176.015 403.003h-13.271l-24.07-36.621c-1.403-2.136-2.39-3.745-2.932-4.827h-.153c.209 2.053.32 5.201.32 9.418v32.03h-12.424v-58.275h14.175l23.166 35.47a96 96 0 0 1 2.932 4.758h.167c-.222-1.346-.334-4.023-.334-8.004v-32.224h12.424zM237.897 403.003h-16.62l-17.01-25.316c-.334-.485-.848-1.567-1.556-3.218h-.195v28.534h-13.16v-58.275h13.16v27.55h.195c.333-.764.875-1.846 1.64-3.247l16.12-24.303h15.675l-20.359 27.799zM159.099 535.301H142.59v47.662h-13.067v-47.662h-16.412v-10.696H159.1zM218.285 582.964h-14.248l-4.132-12.99H179.26l-4.09 12.99h-14.18l21.144-58.36h15.506zm-21.379-23.075-6.232-19.615c-.456-1.472-.788-3.222-.981-5.25h-.318a22.5 22.5 0 0 1-1.01 5.084l-6.315 19.781zM226.03 582.964v-58.36h21.067c6.458 0 11.414 1.195 14.884 3.585q5.205 3.584 5.205 10.085c0 3.153-1.06 5.904-3.167 8.266-2.12 2.361-4.805 4-8.096 4.917v.167c4.117.514 7.407 2.056 9.872 4.598 2.45 2.556 3.69 5.654 3.69 9.322 0 5.348-1.9 9.585-5.686 12.724-3.8 3.126-8.978 4.695-15.532 4.695zm13.04-48.677v13.836h5.727c2.685 0 4.806-.653 6.348-1.972 1.556-1.32 2.327-3.126 2.327-5.432 0-4.292-3.18-6.432-9.528-6.432zm0 23.602v15.392h7.05c3.015 0 5.383-.709 7.09-2.125 1.708-1.403 2.561-3.334 2.561-5.78 0-2.333-.84-4.153-2.52-5.487-1.693-1.333-4.034-2-7.049-2zM304.249 583.978c-8.289 0-15.036-2.723-20.254-8.155-5.219-5.445-7.82-12.53-7.82-21.268 0-9.224 2.643-16.684 7.944-22.38 5.3-5.695 12.31-8.543 21.052-8.543q12.393 0 20.034 8.169c5.095 5.46 7.642 12.655 7.642 21.573 0 9.169-2.644 16.56-7.931 22.185-5.274 5.612-12.172 8.418-20.667 8.418m.564-49.038c-4.57 0-8.206 1.723-10.89 5.182-2.686 3.473-4.035 8.043-4.035 13.738 0 5.78 1.35 10.35 4.034 13.725 2.685 3.362 6.21 5.043 10.56 5.043 4.503 0 8.056-1.64 10.7-4.904 2.63-3.278 3.951-7.807 3.951-13.613 0-6.057-1.28-10.767-3.828-14.128q-3.84-5.043-10.492-5.043M391.866 582.964H376.9l-8.992-15.017a54 54 0 0 0-1.941-3.057c-.62-.889-1.24-1.653-1.873-2.292s-1.294-1.125-1.983-1.472a5.05 5.05 0 0 0-2.23-.5h-3.511v22.337h-13.04v-58.358h20.654c14.044 0 21.067 5.292 21.067 15.864 0 2.042-.317 3.917-.937 5.64a15.8 15.8 0 0 1-2.616 4.668 16.7 16.7 0 0 1-4.09 3.57c-1.61 1.014-3.387 1.792-5.356 2.361v.167a8.4 8.4 0 0 1 2.507 1.32c.812.611 1.583 1.32 2.34 2.139.757.82 1.474 1.695 2.162 2.626.689.93 1.308 1.847 1.873 2.75zm-35.496-48.51v16.24h5.645c2.795 0 5.04-.82 6.733-2.446 1.722-1.653 2.589-3.709 2.589-6.14 0-5.112-3.03-7.654-9.074-7.654z" style="fill:#ffd900;fill-rule:evenodd" transform="translate(-34.949 -59.625)scale(.44097)"></path><path d="M177.753 226.158v21.208h3.979l.005-25.187h-15.612v3.979zM177.753 265.15v21.208h3.979l.005-25.187h-15.612v3.979zM245.106 265.133v21.189h3.979l.015-25.045h-13.931v3.856zM280.266 265.133v6.489h-8.104v-6.489zm0 10.345v10.844h3.979l.015-25.045-16.073-.004-.004 14.228zM315.23 265.133v6.489l-11.768-.013-.025 14.745h15.787v-3.857h-11.783v-7.192h11.783v-14.028h-15.738v3.856zM349.881 265.133v6.353h-11.647v3.727h11.647v7.284h-11.647v3.857h15.64v-25.077h-15.64v3.856zM447.82 205.271v-9.175c1.663 1.399 3.473 2.445 5.42 3.14 1.946.694 3.912 1.046 5.898 1.046q1.746-.002 3.052-.313c.87-.215 1.595-.499 2.182-.87.587-.382 1.017-.812 1.3-1.32.294-.51.431-1.057.431-1.654 0-.802-.225-1.516-.684-2.142-.46-.636-1.086-1.213-1.879-1.751a18.3 18.3 0 0 0-2.827-1.546 94 94 0 0 0-3.521-1.526c-3.21-1.33-5.606-2.964-7.18-4.9-1.576-1.928-2.358-4.256-2.358-6.986 0-2.142.42-3.981 1.281-5.517a11 11 0 0 1 3.512-3.805c1.487-.988 3.199-1.722 5.146-2.191 1.946-.47 4.01-.695 6.192-.695 2.142 0 4.04.127 5.683.382 1.653.254 3.18.655 4.578 1.193v8.57c-.694-.48-1.438-.9-2.25-1.263a19 19 0 0 0-2.514-.91c-.85-.234-1.712-.41-2.563-.528a19 19 0 0 0-2.416-.166c-1.056 0-2.005.098-2.866.294q-1.288.308-2.181.85c-.587.363-1.047.793-1.38 1.302a3.1 3.1 0 0 0-.48 1.702q-.002 1.04.539 1.849c.362.547.88 1.066 1.545 1.555.676.48 1.487.959 2.446 1.428.949.47 2.035.95 3.238 1.448a36 36 0 0 1 4.422 2.191c1.31.773 2.435 1.654 3.365 2.622a10.3 10.3 0 0 1 2.152 3.346c.499 1.242.743 2.7.743 4.363 0 2.298-.43 4.216-1.3 5.78a10.5 10.5 0 0 1-3.542 3.777c-1.487.968-3.218 1.663-5.204 2.083-1.976.421-4.06.626-6.26.626-2.25 0-4.393-.185-6.428-.567s-3.805-.959-5.292-1.722M475.504 280.027h-24.652V238.93h23.703v7.533h-14.439v9.146h13.441v7.503h-13.441v9.4h15.388zM477.677 353.218h-33.103v-5.332l21.06-28.232H446.09v-7.532h31.528v5.185l-20.601 28.398h20.66zm-5.643-54.316-6.818 9.312h-7.112l-6.73-9.312h5.869l4.441 5.39 4.47-5.39zM481.882 427.325h-10.086l-2.925-9.146h-14.614l-2.896 9.146h-10.037l14.967-41.095h10.976zm-15.134-16.248-4.411-13.813c-.323-1.037-.558-2.27-.695-3.698h-.225a15.8 15.8 0 0 1-.714 3.58l-4.47 13.93zM480.159 500.515h-9.342l-16.943-25.826c-.989-1.506-1.683-2.64-2.065-3.404h-.107c.147 1.448.225 3.669.225 6.642v22.588h-8.746v-41.096h9.978l16.307 25.014a68 68 0 0 1 2.065 3.355h.117c-.157-.949-.235-2.837-.235-5.644v-22.725h8.746zM481.718 573.578h-10.086l-2.925-9.146h-14.615l-2.895 9.146H441.16l14.967-41.095h10.976zm-15.134-16.248-4.412-13.813c-.323-1.037-.557-2.27-.694-3.698h-.225a15.8 15.8 0 0 1-.714 3.58l-4.471 13.93z" style="fill:#1b1918;fill-rule:evenodd" transform="translate(-34.949 -59.625)scale(.44097)" data-source="https://football-logos.cc"></path><!-- source: https://football-logos.cc --></svg>