<svg xmlns="http://www.w3.org/2000/svg" viewBox="28.66 135.77 731.12 731.12"><!-- Source: https://football-logos.cc --><path d="M570.34 465.39c0-151.42-122.752-274.171-274.173-274.171-151.42 0-274.17 122.75-274.17 274.17s122.75 274.17 274.17 274.17S570.34 616.81 570.34 465.39" style="fill:#231f20;fill-opacity:1;fill-rule:nonzero;stroke:none" transform="matrix(1.33333 0 0 -1.33333 -.667 1121.853)" data-source="https://football-logos.cc"></path><path d="M108.31 277.532C58.13 327.711 30.497 394.427 30.497 465.39S58.13 603.068 108.31 653.247c50.178 50.178 116.894 77.813 187.857 77.813 70.964 0 137.68-27.635 187.859-77.813 50.179-50.179 77.813-116.894 77.813-187.857s-27.634-137.68-77.813-187.858S367.13 199.72 296.167 199.72c-70.963 0-137.679 27.635-187.857 77.813" style="fill:#fff;fill-opacity:1;fill-rule:nonzero;stroke:none" transform="matrix(1.33333 0 0 -1.33333 -.667 1121.853)"></path><path d="M334.74 336.723h-77.144l38.565 109.03zm-38.573 165c-14.905.25-25.912-3.82-40.908-44.91l-56.985-155.76c-15.012-40.83-16.762-58.58-3.262-67.83 14.437-9.892 25.512 1.183 32.756 21.841l15.244 41.659h106.312l15.244-41.659c7.244-20.658 18.32-31.733 32.756-21.841 13.5 9.25 11.75 27-3.262 67.83l-56.985 155.76c-14.996 41.09-26.003 45.16-40.909 44.91z" style="fill:#5e6061;fill-opacity:1;fill-rule:nonzero;stroke:none" transform="matrix(1.33333 0 0 -1.33333 -.667 1121.853)" data-source="https://football-logos.cc"></path><path d="M122.345 526.362c9.011 25.752 23.776 49.351 43.637 69.213 33.05 33.048 76.45 51.986 122.892 53.783l.68-.026-41.324-122.43-.343-1.18h-125.75zM178.857 323.47c-4.444 3.687-8.74 7.6-12.875 11.735-34.774 34.774-53.924 81.008-53.924 130.185 0 17.795 2.507 35.204 7.356 51.825l.264.653 98.776-79.187-.413-1.218-38.632-114.455zM304.02 649.335c46.231-1.927 89.417-20.844 122.333-53.76 19.856-19.856 34.619-43.449 43.63-69.191l.154-.661h-124l-1.633-.003-41.73 123.632zM413.439 323.437a188 188 0 0 1 12.914 11.768c34.774 34.774 53.926 81.008 53.926 130.185 0 17.788-2.506 35.19-7.35 51.805l-.278.668-98.746-79.163.523-1.633 38.493-114.043z" style="fill:#ed202e;fill-opacity:1;fill-rule:nonzero;stroke:none" transform="matrix(1.33333 0 0 -1.33333 -.667 1121.853)"></path><path d="M115.552 578.979c-4.346 2.184-9.532 4.83-14.737 7.693l-.058-.106a255 255 0 0 0 11.525-11.541l11.456-11.915-3.44-6.256-15.752 3.731c-4.841 1.156-10.472 2.747-15.643 4.426l-.058-.105c4.698-2.79 10.05-6.006 14.35-8.645l13.084-8.085-4.076-7.413L78.01 562.51l5.87 10.673 13.79-3.064a168 168 0 0 0 14.266-3.942l.115.21c-3.58 3.201-7.542 6.955-10.873 10.362l-9.724 10.209 5.782 10.515 36.477-17.595-4.279-7.78zM140.688 613.682l-9.669-11.31 7.297-6.239 10.8 12.633 5.7-4.873-16.726-19.565-30.738 26.278 16.18 18.927 5.701-4.874-10.254-11.994 6.385-5.458 9.67 11.31zM143.795 637.999l-8.32-7.073-4.974 5.852 23.68 20.13 4.974-5.851-8.411-7.151 21.218-24.96-6.948-5.907zM183.737 628.608l-20.102 35.09 9.267 5.31 14.656-8.685c4.2-2.503 8.735-5.713 12.616-8.745l.104.06c-3.123 4.364-5.993 9.013-9.035 14.323l-5.846 10.205 7.289 4.175 20.102-35.09-8.33-4.772-15.251 9.241c-4.26 2.608-9.168 5.743-13.19 8.902l-.208-.12c2.944-4.536 5.882-9.422 9.163-15.15l6.054-10.568zM213.784 688.694l14.718-37.667-8.495-3.319-14.717 37.667zM267.772 702.022l9.045.522 1.03-17.85.12.006c.809 1.61 1.684 3.102 2.56 4.595l8.33 13.943 11.262.65-12.366-17.962 15.355-22.373-10.603-.611-10.95 16.857-3.168-4.45.76-13.178-9.045-.522zM310.37 703.108l9.069-.962-3.454-32.577 15.991-1.695-.81-7.638-25.06 2.657zM353.576 696.425l-6.268-22.359c-1.894-6.759-.25-10.897 4.198-12.144 4.622-1.295 8.072 1.228 10.015 8.16l6.268 22.359 8.78-2.462-6.121-21.838c-3.368-12.017-11.038-16.036-21.206-13.186-9.822 2.753-14.003 9.845-10.537 22.209l6.09 21.723zM389.825 683.97c2.36-.647 6.839-2.425 10.967-4.497 4.988-2.504 7.802-4.52 9.649-7.394 1.848-2.606 2.379-5.961.71-9.286-1.588-3.164-4.945-5.17-9.748-4.708l-.054-.106c3.591-3.146 5.06-7.844 2.718-12.51-1.669-3.324-4.463-5.144-7.603-5.783-3.677-.772-8.667.255-15.852 3.862-4.023 2.018-6.89 3.794-8.58 4.977zm-6.868-33.88c.723-.564 1.688-1.049 3.083-1.749 3.7-1.857 7.697-2.051 9.608 1.756 1.831 3.647-.714 6.736-4.79 8.782l-2.787 1.4zm8.047 16.034 2.682-1.346c4.343-2.18 7.483-1.541 8.83 1.14 1.372 2.735.008 5.232-3.692 7.09-1.824.915-2.897 1.32-3.62 1.481zM445.742 609.791l-9.576-4.9-6.38 7.011 38.23 18.076 8.035-8.832-21.43-36.536-6.623 7.278 5.578 9.294zm11.964-2.985 4.65 7.638c1.331 2.103 3.11 4.696 4.436 6.714l-.12.133c-2.14-1.216-4.847-2.787-6.981-3.918l-8.002-3.955zM491.005 602.4l4.899-7.693-27.634-17.596 8.638-13.564-6.479-4.125-13.535 21.257zM512.694 564.401l-21.405-8.999c-6.472-2.72-8.689-6.581-6.899-10.84 1.86-4.425 5.982-5.557 12.618-2.766l21.406 8.999 3.535-8.407-20.908-8.79c-11.504-4.837-19.422-1.331-23.515 8.403-3.953 9.403-1 17.088 10.836 22.064l20.797 8.744zM508.118 489.514c4.757 1.006 10.462 2.175 16.315 3.188l-.02.118a255 255 0 0 0-16.21 1.824l-16.387 2.158-1.217 7.035 14.635 6.916c4.505 2.12 9.896 4.392 14.984 6.307l-.02.118c-5.41-.753-11.6-1.58-16.608-2.203l-15.267-1.85-1.443 8.336 40.288 4.352 2.077-12.002-12.687-6.213a167 167 0 0 0-13.606-5.825l.04-.237c4.797-.266 10.234-.726 14.963-1.308l13.97-1.907 2.045-11.824-39.48-9.022-1.514 8.75zM534.062 462.402l-40.44-.265-.06 9.12 40.44.266zM494.02 454.72l40.064-5.497-1.452-10.581-15.824-6.307c-4.547-1.799-9.858-3.432-14.629-4.654l-.016-.12c5.364-.19 10.797-.754 16.86-1.586l11.651-1.6-1.141-8.322-40.066 5.499 1.306 9.51 16.63 6.439c4.666 1.782 10.144 3.756 15.101 5.014l.034.237c-5.391.437-11.055 1.094-17.593 1.991l-12.068 1.655zM523.42 394.646l-38.85 11.227 2.532 8.762 38.85-11.228zM516.687 375.926l-3.443-8.445-23.668 9.653c-10.667 4.35-12.305 10.98-8.974 19.146.815 2 2.191 4.42 3.427 5.86l6.448-3.73c-.865-1.01-1.755-2.396-2.435-4.062-1.45-3.556-.745-6.436 5.034-8.792zM116.595 381.386l-37.954-13.96-3.687 10.023 11.009 13c3.17 3.723 7.092 7.66 10.73 10.979l-.042.112c-4.825-2.35-9.888-4.403-15.631-6.517l-11.038-4.06-2.9 7.885 37.955 13.96 3.314-9.01-11.659-13.494c-3.282-3.765-7.192-8.08-10.978-11.518l.082-.225c4.965 2.145 10.273 4.225 16.468 6.504l11.43 4.205zM101.464 436.688c1.694-11.82-6.271-20.114-17.675-21.747-11.997-1.718-22.072 4.718-23.756 16.478-1.762 12.295 6.483 20.325 17.53 21.907 13.186 1.889 22.217-4.879 23.893-16.579zm-7.246-.614c-.877 6.118-7.14 8.797-14.98 7.674-7.187-1.03-12.878-5.3-11.985-11.536s7.453-8.873 14.937-7.8c7.543 1.08 12.904 5.545 12.036 11.604zM98.335 495.218c.785-2.874 1.772-8.285 1.442-13.615-.456-7.366-2.642-12.58-6.405-16.075-3.76-3.434-9.155-5.144-15.084-4.777-13.41.89-20.472 11.125-19.653 24.36.323 5.21 1.589 9.16 2.61 11.08l7.247-2.372c-1.156-2.153-2.04-4.803-2.315-9.235-.471-7.605 3.482-13.681 12.225-14.222 8.384-.519 13.56 4.451 14.024 11.937.126 2.035-.01 3.727-.265 4.465l-8.503.526-.386-6.228-7.126.44.93 15.032zM106.36 517.588c-3.172-11.512-13.786-15.931-24.893-12.872-11.685 3.219-18.348 13.145-15.193 24.598 3.298 11.975 14.065 16.041 24.825 13.078 12.841-3.538 18.416-13.351 15.276-24.746zm-6.887 2.333c1.64 5.958-3.03 10.916-10.666 13.02-6.999 1.928-13.923.288-15.597-5.786-1.672-6.074 3.288-11.112 10.576-13.12 7.347-2.024 14.046-.073 15.67 5.828z" style="fill:#231f20;fill-opacity:1;fill-rule:nonzero;stroke:none" transform="matrix(1.33333 0 0 -1.33333 -.667 1121.853)" data-source="https://football-logos.cc"></path><!-- source: https://football-logos.cc --></svg>