<svg xmlns="http://www.w3.org/2000/svg" viewBox="32.63 224.58 718.53 718.53"><!-- Source: https://football-logos.cc --><path d="M563.867 403.507c0-148.813-120.635-269.447-269.449-269.447-148.812 0-269.447 120.634-269.447 269.447s120.635 269.448 269.447 269.448c148.814 0 269.45-120.636 269.45-269.448" style="fill:#0391c6;fill-opacity:1;fill-rule:nonzero;stroke:none" transform="matrix(1.33333 0 0 -1.33333 -.667 1121.853)" data-source="https://football-logos.cc"></path><path d="M191.84 160.68c-31.38 13.274-59.564 32.276-83.768 56.481-24.205 24.203-43.207 52.389-56.48 83.768-13.74 32.486-20.707 66.998-20.707 102.578s6.967 70.092 20.707 102.578c13.273 31.38 32.275 59.564 56.48 83.769s52.388 43.207 83.769 56.48c32.486 13.74 66.998 20.707 102.577 20.707 35.58 0 70.093-6.967 102.58-20.707 31.379-13.273 59.564-32.275 83.768-56.48s43.207-52.389 56.48-83.769c13.74-32.486 20.707-66.998 20.707-102.578s-6.968-70.092-20.708-102.578c-13.272-31.38-32.275-59.565-56.48-83.768-24.203-24.205-52.388-43.207-83.768-56.48-32.486-13.74-66.999-20.707-102.579-20.707s-70.091 6.966-102.577 20.707" style="fill:#fcdd30;fill-opacity:1;fill-rule:nonzero;stroke:none" transform="matrix(1.33333 0 0 -1.33333 -.667 1121.853)"></path><path d="M475.087 356.888c-20.703-80.465-93.742-139.922-180.669-139.922-86.757 0-159.682 59.228-180.546 139.455l-.094.398H78.741v28.936h15.473l.297.006v19.156h13.353l.025.592c1.073 102.101 84.174 184.539 186.529 184.539 90.657 0 166.208-64.668 183.041-150.39l.4-.049h22.718v-34.692l.394-.002h5.578V356.82h-30.907zM75.052 520.071l23.842 36.872 8.69-5.619-14.209-21.974 7.077-4.576 12.121 18.747 8.07-5.218-12.122-18.747 16.388-10.596-9.633-14.897z" style="fill:#0391c6;fill-opacity:1;fill-rule:nonzero;stroke:none" transform="matrix(1.33333 0 0 -1.33333 -.667 1121.853)"></path><path d="m161 577.754 14.304 7.194q2.384-5.145 2.237-10.107-.15-4.966-2.702-9.632-2.55-4.666-8.371-9.707-7.065-6.113-13.03-8.27-5.966-2.157-12.966-.635-7.002 1.52-12.853 8.278-7.8 9.008-6.277 18.795 1.523 9.789 11.976 18.837 8.18 7.08 15.248 8.37 7.071 1.289 14.295-2.459l-9.967-12.43q-2.035 1.1-3.368 1.272a9.9 9.9 0 0 1-4.428-.419q-2.212-.718-4.215-2.45-4.534-3.926-4.286-9.093.15-3.863 4.382-8.75 5.24-6.054 9.371-6.407 4.128-.353 8.088 3.076 3.841 3.325 4.245 6.83T161 577.754M205.81 636.292l17.182 4.419 4.509-17.53 13.504 22.163 22.793 5.863-15.77-22.635 28.56-23.534-21.147-5.44-16.481 15.956-6.937-9.958 2.9-11.275-17.18-4.42zM278.488 628.337q.707 11.74 8.894 17.813 8.182 6.071 22.096 5.233 14.254-.86 21.582-7.754c4.881-4.593 7.094-10.751 6.627-18.468-.337-5.604-1.74-10.132-4.2-13.584q-3.696-5.177-10.246-7.785t-16.054-2.035q-9.663.583-15.837 3.547t-9.772 8.795q-3.599 5.829-3.09 14.238m17.704-1.142q-.439-7.268 2.569-10.635 3.005-3.37 8.509-3.7 5.659-.343 8.946 2.58c2.191 1.948 3.452 5.607 3.775 10.977q.409 6.774-2.64 10.097-3.05 3.321-8.59 3.656-5.312.32-8.718-2.661-3.409-2.982-3.85-10.314M361.8 642.824l27.474-10.58q8.976-3.458 12.07-8.75c2.061-3.53 2.249-7.493.556-11.886q-2.609-6.777-8.957-8.713-6.347-1.938-16.363 1.918l-9.062 3.49-6.375-16.555-16.556 6.375zm9.223-25.414 4.05-1.559q4.777-1.84 7.241-1.202 2.467.636 3.297 2.795.806 2.096-.311 4.2-1.115 2.103-5.745 3.887l-4.706 1.812zM426.679 613.996l37.603-28.95-6.221-8.083-23.546 18.128-4.69-6.092 21.905-16.865-5.952-7.731-21.906 16.864-5.771-7.497 24.25-18.668-6.584-8.552-38.308 29.49zM442.271 539.828l38.937 27.9 17.248-24.074q4.796-6.693 6.379-10.918 1.58-4.22.552-8.24-1.03-4.02-4.737-6.677-3.235-2.315-6.777-2.32-3.548-.005-7.104 1.883-2.268 1.205-5.206 4.022 1.116-3.092 1.235-4.786c.056-.762-.082-2.02-.415-3.783q-.503-2.643-.995-3.767l-6.224-15.147L463.5 510.2l6.371 16.338q1.268 3.13 1.139 4.772-.212 2.211-1.63 4.19l-.912 1.274-15.864-11.366zm33.528 2.198 4.42-6.17q.716-1 3.308-3.496 1.28-1.282 2.926-1.496c1.095-.14 2.068.09 2.921.701q1.89 1.354 1.86 3.532t-2.899 6.184l-4.605 6.428zM227.733 211.468l-18.828-45.008-14.866 6.22 12.298 29.397q-4.55-.76-8.503-.754c-2.634.008-5.823.29-9.565.854l4.166 9.955q8.347-1.087 13.69.05 5.342 1.136 9.448 4.374zM237.038 168.296l15.893-.625q.23-2.818 1.55-4.156t3.468-1.647q3.822-.551 6.432 2.34 1.901 2.137 3.785 9.66-3.183-2.03-6.335-2.736-3.151-.708-7.066-.14-7.646 1.103-12.242 6.417-4.596 5.312-3.59 12.274.686 4.75 3.924 8.267c2.16 2.344 4.896 3.96 8.217 4.842q4.977 1.324 12.072.299 8.526-1.23 13.327-4.424t7.114-8.975q2.31-5.779 1.047-14.535-1.86-12.875-9.2-17.922-7.342-5.05-18.823-3.39-6.79.981-10.519 2.847-3.728 1.868-5.965 4.752-2.237 2.885-3.089 6.852m32.192 17.078c.375 2.592-.114 4.734-1.46 6.434q-2.022 2.54-5.374 3.025-3.161.457-5.533-1.234-2.374-1.696-2.95-5.68-.58-4.02 1.276-6.455 1.858-2.44 5.097-2.904 3.353-.486 5.873 1.252 2.52 1.736 3.071 5.562M344.095 155.72l-47.79-4.975q.21 5.951 3.832 11.557 3.621 5.602 14.333 13.867 6.54 5.058 8.324 7.518 1.783 2.455 1.573 4.478-.227 2.183-2.348 3.527-2.12 1.342-5.085 1.036-3.087-.322-4.877-2.116-1.793-1.793-2.046-5.888l-15.993-.582q.353 5.702 2.526 9.105 2.171 3.405 6.55 5.559 4.374 2.15 12.422 2.99 8.397.874 13.233-.238 4.834-1.115 7.854-4.145 3.02-3.032 3.449-7.142c.303-2.913-.429-5.805-2.198-8.668q-2.654-4.302-10.246-9.899-4.517-3.272-6.022-4.545-1.505-1.279-3.506-3.297l24.898 2.592zM351.76 182.075q-4.77 12.838-1.143 20.026 3.629 7.185 14.962 11.398 5.443 2.021 9.355 2.2 3.91.175 6.785-.798 2.876-.977 4.882-2.486 2.003-1.512 3.757-3.865 3.38-4.477 5.413-9.944 4.554-12.256 1.699-19.783-2.854-7.529-14.992-12.039-6.808-2.527-11.674-2.275-4.868.255-8.85 2.76-2.878 1.761-5.566 5.673t-4.628 9.133m14.853 5.444q3.206-8.631 6.214-11.106 3.007-2.476 6.49-1.182 2.296.853 3.484 2.82c.79 1.311 1.094 3.028.909 5.159q-.281 3.192-2.56 9.326c-2.227 5.998-4.337 9.799-6.327 11.412q-2.986 2.413-6.653 1.051-3.74-1.392-4.234-5.17-.496-3.776 2.677-12.31" style="fill:#0391c6;fill-opacity:1;fill-rule:nonzero;stroke:none" transform="matrix(1.33333 0 0 -1.33333 -.667 1121.853)"></path><path d="M305.709 572.749c-3.236 2.773-13.017 9.182-34.724 9.657l-1.4.046a183 183 0 0 0 24.833 1.682c28.027 0 55.08-6.34 79.52-18.342l-2.212-1.967c-8.25 3.882-18.579 6.906-32.985 8.84-16.098 2.162-27.833.626-32.658-.269zM174.997 492.96c-3.622-4.477-12.258-16.025-18.788-31.668-6.412-15.358-8.876-27.446-9.696-32.422l-.115-.484c-6.619-1.729-20.885-7.013-32.548-22.057l-.03.412c.82 47.037 19.523 91.136 52.876 124.488q2.956 2.957 6.023 5.76l.33.092c1.389.407 2.61.733 3.612.986l.453.1c-1.2-4.063-2.252-9.207-2.855-15.662-1.25-13.368.184-24.187 1.068-29.132z" style="fill:#fff;fill-opacity:1;fill-rule:nonzero;stroke:none" transform="matrix(1.33333 0 0 -1.33333 -.667 1121.853)"></path><path d="M165.71 398.802c-9.276 10.326-16.383 22.083-18.726 26.136l-.093.198c-6.139-1.678-18.98-6.58-29.687-19.815l-.271-.404h15.966l.32-.05v-5.216c0-7.693 7.392-13.953 16.479-13.953 8.573 0 15.638 5.57 16.409 12.664zM374.92 562.226c7-3.72 12.515-8.116 18.03-13.018 9.744-8.662 18.032-22.057 21.15-27.424l.472-.247c6.35-2.823 25.648-13.079 38.5-37.97 11.492-22.26 15.576-41.513 16.929-50.071l.023.89v5.223h1.083l.356-.019c-6.955 34.491-23.874 66.193-49.321 91.64-13.4 13.4-28.535 24.435-44.897 32.896zM414.303 268.786c-4.293-1.861-8.007-2.945-10.507-3.547l-.508-.12c3.041 19.2-1.795 35.37-4.099 41.622l-.172.547c17.862 17.897 25.818 37.545 29.217 49.26l.113.271h11.879000000000001v13.098c0 2.996 1.768 5.53 3.863 5.53s3.863-2.534 3.863-5.53v-12.31l-.006-.788h20.55l.491-.002c-8.07-30.373-24.03-58.216-46.846-81.033a185 185 0 0 0-6.873-6.53z" style="fill:#fff;fill-opacity:1;fill-rule:nonzero;stroke:none" transform="matrix(1.33333 0 0 -1.33333 -.667 1121.853)" data-source="https://football-logos.cc"></path><path d="M333.924 308.706c-5.02-5.557-12.775-12.824-23.962-20.09-13.608-8.842-30.1-15.896-41.333-20.195l-.516-.217c.54-4.256 2.644-20.182 5.603-34.539l.552-.31c5.548-3.784 16.27-8.899 34.511-9.899l.394.016c28.488 2.285 55.632 11.185 79.638 25.953l.699.61c5.499 4.693 8.314 8.907 9.698 11.575l.217.467c4.095 19.596-.826 36.676-3.182 43.223l-.188.513c-4.928-1.242-18.238-4.117-32.87-3.2-14.11.88-24.495 4.282-28.864 5.956zM289.269 222.952c-14.13.393-27.984 2.4-41.35 5.936l-.838.232c11.666.377 19.541 1.85 23.593 2.822l.489-.369c3.631-2.697 9.735-6.195 19.092-8.63zM428.038 426.107v26.315h16.754v-38.193l.049-.837h22.817l.507.002c-.025 4.636-.269 13.852-1.656 21.205-1.569 9.002-5.762 27.012-16.327 47.476-11.834 22.918-29.519 32.997-36.152 36.122l-.59.234c-13.728-6.996-27.953-14.01-32.666-16.327l-.412-.26c3.375-10.722 10.809-38.102 9.685-68.295l-.005-.642h3.302v-7.243l.297-.05h3.843l.394.05v16.705h18.135V426.18l.024-.566h11.976z" style="fill:#fff;fill-opacity:1;fill-rule:nonzero;stroke:none" transform="matrix(1.33333 0 0 -1.33333 -.667 1121.853)"></path><path d="M440.357 410.69v37.297h-7.884v-25.981l-.025-.827h-20.033l-.838.02v16.735h-9.264v-16.78l-.468.025h-12.887l-.05.888v6.405h-14.243l-.146.013v33.104h-6.395l-8.326 28.932-8.469-28.932h-3.224v-32.574l.019-.543h-29.257l-.527-.016v14.406h-13.995v-14.457l-.359.067h-23.609l.032.444v18.775h-18.136V404.9c0-6.359-4.333-11.515-9.678-11.515s-9.679 5.156-9.679 11.515v15.294l.026.69h-41.199l.014-.59v-16.454c0-7.678-5.79-13.904-12.93-13.904-7.142 0-12.931 6.226-12.931 13.904v26.309l.024.407h-5.308v-30.904c0-10.154-9.363-18.388-20.914-18.388s-20.914 8.234-20.914 18.388l.037.83H98.946v-19.187l-.496.025H83.176v-20.064h188.338l-.031.69v9.122c0 6.4 6.01 11.588 13.424 11.588 7.412 0 13.422-5.187 13.422-11.588v-9.074l-.01-.738h2.886l-.048.492v9.32c0 6.4 6.01 11.588 13.425 11.588 7.412 0 13.423-5.187 13.423-11.588v-9.173l-.028-.64h2.868l-.013.505v9.308c0 6.4 6.009 11.588 13.424 11.588 7.413 0 13.424-5.187 13.424-11.588v-9.308l.053-.504h53.573l.345.023v8.639c0 5.502 3.715 9.965 8.298 9.965s8.3-4.463 8.3-9.965v-7.898l-.012-.764h7.353l.2-.05v8.712c0 5.502 3.716 9.965 8.299 9.965s8.299-4.463 8.299-9.965v-7.826l.058-.836h49.667v39.224h-5.437l-.534-.06v34.755h-21.683v-26.218h-34.028z" style="fill:#fcdd30;fill-opacity:1;fill-rule:nonzero;stroke:none" transform="matrix(1.33333 0 0 -1.33333 -.667 1121.853)"></path><path d="M257.838 413.44v-8.54c0-3.838-2.401-7.08-5.243-7.08s-5.244 3.242-5.244 7.08v13.568l-.02.248c2.449-1.031 6.556-2.832 10.47-4.88zM309.372 535.87c-1.396 15.145-3.906 27.796-5.081 33.197l-.163.721c-2.24 2.117-15.164 12.413-51.146 8.504-1.517-.164-7.813-.918-7.813-.918a178.4 178.4 0 0 1-48.42-21.85l-.522-.442c-5.17-4.493-11.052-9.873-14.767-14.126l-.148-.49c-1.553-4.19-3.052-10.106-3.814-18.264-1.035-11.073-.16-20.393.642-25.827l.155-.71c3.143 1.114 11.399 3.226 28.573 3.08 18.47-.157 30.105-3.669 34.113-5.109l.256.298c4.11 4.798 13.127 14.274 27.724 24.326 15.924 10.966 35.227 15.414 40.562 16.486z" style="fill:#fff;fill-opacity:1;fill-rule:nonzero;stroke:none" transform="matrix(1.33333 0 0 -1.33333 -.667 1121.853)"></path><path d="M311.486 531.808c-.227-.039-22.854-3.95-40.68-16.227-14.624-10.071-23.566-19.613-27.389-24.115l-.592-.682c1.106-9.032 5.21-43.455 6.695-68.866l.037-.613c2.196-.94 5.243-2.3 8.325-3.855l-.044.377v34.299h27.005v-19.22h14.721l.345-.048v14.439h22.865v-14.44l.297.05h20.599v33.116h4.337l11.826 40.41 11.63-40.41h7.491v-33.116h7.786l.041.395c1.28 32.543-7.71 62.182-10.356 70.121l-.278.207c-17.686 12.875-50.594 24.64-62.305 28.596zM183.496 356.425c.986-28.194 8.587-46.383 11.75-52.801l.204-.492c-3.722-2.54-17.447-11.889-28.906-19.477l-.495-.312a99 99 0 0 0-10.156 4.492l-.425.238c-16.802 20.153-28.837 43.422-35.528 68.408l-.1.338h63.62z" style="fill:#fff;fill-opacity:1;fill-rule:nonzero;stroke:none" transform="matrix(1.33333 0 0 -1.33333 -.667 1121.853)"></path><path d="M275.959 356.82h-89.196l-.008-.499c1.25-34.197 12.533-53.414 12.651-53.611l2.467-3.729c9.728-7.98 31.884-23.6 61.664-28.968l.44.144c10.95 4.043 29.428 11.58 44.214 21.186 11.13 7.23 18.779 14.488 23.632 19.914l-.039.463c-.78 6.65-3.235 27.138-5.979 45.101l-.665-.002h-1.133l-.437-.05v14.298c0 3.946-4.033 7.153-8.988 7.153-4.957 0-8.989-3.207-8.989-7.153V356.82h-11.302l-.397-.05v14.298c0 3.946-4.03 7.153-8.986 7.153-4.958 0-8.99-3.207-8.99-7.153v-12.892z" style="fill:#fff;fill-opacity:1;fill-rule:nonzero;stroke:none" transform="matrix(1.33333 0 0 -1.33333 -.667 1121.853)" data-source="https://football-logos.cc"></path><!-- source: https://football-logos.cc --></svg>