<svg xmlns="http://www.w3.org/2000/svg" xml:space="preserve" viewBox="11.34 27.12 234.33 203.42"><!-- Source: https://football-logos.cc --><path d="M1812.92 1694.06c-104.96-115.46-208.61-169.17-308.08-159.65-142.88 13.68-230.85 155.61-231.72 157.05l-18.19 29.85-12.27-32.71c-63-168-276.742-170.38-278.902-170.39-2.117.01-215.856 2.39-278.86 170.39l-12.269 32.72-18.191-29.86c-.875-1.44-88.836-143.37-231.723-157.05-99.469-9.52-203.117 44.19-308.078 159.65l-29.598 32.56v-43.99c0-2.61 1.242-264.41 108.656-575.32 99.317-287.486 312.211-677.435 762.473-902.568l7.605-3.801 7.61 3.801c450.257 225.133 663.167 615.082 762.477 902.568 107.41 310.91 108.66 572.71 108.66 575.32v43.99z" style="fill:#323898;fill-opacity:1;fill-rule:nonzero;stroke:none" transform="matrix(.13333 0 0 -.13333 0 257.333)" data-source="https://football-logos.cc"></path><path d="M1261.75 1648.41C1179.36 1486.44 973 1484.2 963.773 1484.2c-9.218 0-215.574 2.24-297.968 164.21-34.367-45.28-117.524-136.02-239.582-147.84-100.532-9.72-203.129 37.05-305.446 138.32 5.051-86.05 25.176-289.65 105.43-521.54 5.039-14.57 10.453-29.45 16.113-44.52l1166.16 453.55c-71.75 33.29-121.96 89.41-146.73 122.03M1501.32 1500.57c-15.5 1.5-30.34 4.3-44.57 8.09-389.94-151.66-979.723-381.04-1202.195-467.57 27.902-70.274 62.691-144.867 105.855-220.317 288.336 112.149 1083.63 421.447 1409.76 548.287 24.74 120.35 33.51 217.15 36.61 269.83-102.32-101.27-204.93-148.04-305.46-138.32M909.066 268.621c17.852-10.043 36.032-19.863 54.707-29.344 18.711 9.493 36.837 19.371 54.707 29.43v771.503l-109.414-42.55zM610.723 493.258c33.937-33.488 70.441-65.945 109.429-97.137v528.078l-109.429-42.566zM1207.43 396.078a1409 1409 0 0 1 109.44 97.274v662.918l-109.44-42.57zM1505.78 721.887c42.58 63.301 78.73 127.023 109.42 189.211V1272.3l-109.42-42.56z" style="fill:#fff;fill-opacity:1;fill-rule:nonzero;stroke:none" transform="matrix(.13333 0 0 -.13333 0 257.333)"></path><path d="M285.051 1260.03v-31.19a576 576 0 0 1 9.465-13.61v48.48z" style="fill:#323898;fill-opacity:1;fill-rule:nonzero;stroke:none" transform="matrix(.13333 0 0 -.13333 0 257.333)"></path><path d="M390.602 1462.79c76.461 0 138.82-62.35 138.82-138.8 0-76.46-62.359-138.82-138.82-138.82-76.446 0-138.813 62.36-138.813 138.82 0 76.45 62.367 138.8 138.813 138.8" style="fill:#fff;fill-opacity:1;fill-rule:nonzero;stroke:none" transform="matrix(.13333 0 0 -.13333 0 257.333)"></path><path d="M238.895 1323.99c0-83.66 68.054-151.72 151.707-151.72 83.644 0 151.703 68.06 151.703 151.72 0 83.64-68.059 151.69-151.703 151.69-83.653 0-151.707-68.05-151.707-151.69" style="fill:#323898;fill-opacity:1;fill-rule:nonzero;stroke:none" transform="matrix(.13333 0 0 -.13333 0 257.333)"></path><path d="M264.68 1323.99c0 69.42 56.488 125.92 125.922 125.92 69.429 0 125.925-56.5 125.925-125.92 0-69.44-56.496-125.94-125.925-125.94-69.434 0-125.922 56.5-125.922 125.94" style="fill:#fff;fill-opacity:1;fill-rule:nonzero;stroke:none" transform="matrix(.13333 0 0 -.13333 0 257.333)" data-source="https://football-logos.cc"></path><path d="M439.09 1227.66c-16.59-14.42-45.215-22.27-76.535-18.92-5.672.62-11.172 1.55-16.465 2.8a97 97 0 0 0-3.094 7.05c4.02-.8 8.145-1.45 12.379-1.91 29.18-3.12 56.027 3.48 72.977 16.06a127 127 0 0 0 10.738-5.08M427.445 1403.88c-24.269 6.94-53.734 11.03-85.465 11.03-10.656 0-21.042-.46-31.078-1.34a119 119 0 0 1-9.914-11.21c5.446.65 11.032 1.2 16.723 1.6-11.57-21.54-18.492-48.71-18.492-78.17 0-30.33 7.336-58.23 19.515-80.06-9.421.64-18.558 1.62-27.3 2.94 3.183-4.08 6.613-7.95 10.261-11.58 12.672-1.43 26.004-2.2 39.762-2.2 31.402 0 60.586 4 84.703 10.81 6.563-3.54 14.664-6.44 23.844-8.53.894-.2 1.801-.4 2.719-.59.011 0 .023-.01.027-.01 1.531-.3 3.082-.59 4.664-.87h-.008a164 164 0 0 1 11.414-1.46c3.41-.31 6.903-.52 10.461-.62.051 0 .114-.01.176-.01 2.797 3.11 5.465 6.37 7.969 9.75-32.231.1-59.199 10.07-67.508 24.09-.391.85-.777 1.73-1.156 2.61h-.004c-2.543 5.96-4.606 12.52-6.117 19.52-.012.1-.039.19-.051.27-.145.65-.27 1.29-.399 1.93-.066.35-.14.71-.207 1.05-.004.08-.023.15-.035.22-.011.08-.043.17-.043.26-.051.22-.086.42-.121.63 0 .03-.012.06-.015.08-.04.2-.071.41-.106.61-.016.1-.039.21-.055.3-.015.11-.031.21-.054.32-.051.34-.114.68-.164 1.04-.012.06-.036.12-.036.18-.027.19-.058.36-.078.54 29.504-7.37 62.723-11.81 97.938-12.52.949 3.26 1.781 6.61 2.488 9.98-36.543.42-71.039 4.86-101.582 12.41-.609 7.53-.625 15.39.016 23.44.246 3.22.605 6.39 1.058 9.51 30.336 7.06 64.344 11.09 100.254 11.22-.722 3.33-1.582 6.61-2.551 9.83-.32 0-.636.01-.949.01-33.676 0-65.707-3.41-94.648-9.56 2.699 11.96 6.789 22.9 11.883 32.28 9.136 14.37 26.054 24.05 45.359 24.05 5.941 0 11.66-.92 16.977-2.61-3.922 4.37-8.204 8.44-12.77 12.22a65 65 0 0 1-8.57.57c-15.059 0-28.75-5.33-38.735-13.96" style="fill:#323898;fill-opacity:1;fill-rule:nonzero;stroke:none" transform="matrix(.13333 0 0 -.13333 0 257.333)"></path><path d="M332.074 1245.09c-13.457 21.7-21.664 50.17-21.664 81.31 0 29.68 7.453 56.96 19.813 78.23 4.289.15 8.629.22 13.015.22 9.485 0 18.774-.36 27.77-1.06-13.637-22.39-21.965-51.94-21.965-84.25 0-27.56 6.047-53.09 16.285-73.9-7.375-.46-14.933-.7-22.609-.7-3.582 0-7.129.06-10.645.15" style="fill:#fff;fill-opacity:1;fill-rule:nonzero;stroke:none" transform="matrix(.13333 0 0 -.13333 0 257.333)"></path><path d="M377.293 1246.61c-10.582 20.56-16.855 45.97-16.855 73.44 0 31.72 8.355 60.72 22.066 82.65 13.367-1.48 26.004-3.73 37.625-6.6a47.4 47.4 0 0 1-5.777-9.95c-7.684-15.59-12.993-35-14.559-56.24-1.836-24.87 1.742-48 9.102-65.91.265-1.03.621-2.05 1.074-3.05.051-.12.097-.24.16-.36.187-.38.394-.78.609-1.17.059-.11.121-.22.184-.32.078-.15.168-.31.273-.46.051-.1.114-.19.16-.29.079-.11.149-.22.223-.33 1.176-1.8 2.656-3.53 4.418-5.2-11.984-2.76-24.98-4.89-38.703-6.21" style="fill:#fff;fill-opacity:1;fill-rule:nonzero;stroke:none" transform="matrix(.13333 0 0 -.13333 0 257.333)"></path><path d="M441.988 1424.59c-7.121 7.22-17.472 12.75-30.039 16.05-12.59 3.29-27.492 4.38-43.715 2.64a149 149 0 0 1-17.39-2.88 79 79 0 0 1-2.403-3.56c-.765-1.2-1.527-2.41-2.261-3.63 4.312.84 8.711 1.52 13.121 2 15.242 1.65 29.328.84 41.422-1.95 12.07-2.79 22.242-7.58 29.711-13.89a157 157 0 0 1 11.554 5.22M529.328 1038.33c1.418-3.64 1.246-5.5-.832-6.31-4.156-1.62-4.961 7.34-20.969 23.84-18.425 18.85-43.675 32.94-68.351 23.32-30.649-11.96-41.184-44.8-17.375-105.836 23.812-61.043 53.801-78.078 86.008-65.508 25.972 10.129 36.836 45.191 35.961 69.687-.782 17.352-5.305 21.274-1.149 22.897 1.559.61 2.844-.39 3.957-3.244l26.649-68.313c1.418-3.636.421-4.925-1.395-5.633-4.937-1.921-5.934 14.446-18.402 9.579-10.387-4.047-18.254-21.481-47.864-33.032-53.769-20.976-105.996 4.739-126.363 56.946s5.074 108.227 54.426 127.477c29.613 11.54 47.75 1.87 59.703 6.52 10.387 4.06.473 13.36 5.93 15.49 1.816.7 3.422.43 4.531-2.43zM653.855 1003.71c10.653 4.15 22.309-1.17 26.36-11.565 4.152-10.649-.914-22.207-11.563-26.36-10.39-4.051-22.207.914-26.359 11.563-4.055 10.394 1.176 22.308 11.562 26.362M832.188 1210.93c-8.11 20.78-26.497 1.94-29.333 9.21-.812 2.08-.277 3.78 3.879 5.4 13.246 5.17 25.918 9.51 36.305 13.57 15.066 5.87 27.594 11.36 43.957 17.74 62.598 24.42 113.464-2.42 132.314-50.73 21.68-55.59.68-101.49-48.15-120.54-17.144-6.69-36.824-13.77-59.426-22.58-10.386-4.05-22.652-9.44-35.898-14.61-4.16-1.61-5.703-.72-6.516 1.36-2.836 7.27 23.453 5.86 15.348 26.63zm86.05-108.59c7.293-18.7 21.66-21.77 40.879-14.27 30.649 11.95 42.903 45.76 22.129 99.01-21.887 56.1-57.273 77.01-94.676 62.42l-22.336-8.71zM1125.54 1187.7c10.65 4.16 22.31-1.17 26.36-11.56 4.16-10.65-.91-22.21-11.56-26.36-10.39-4.05-22.2.91-26.36 11.56-4.05 10.39 1.18 22.3 11.56 26.36M1458.42 1400.74c1.42-3.63 1.25-5.49-.83-6.31-4.15-1.62-4.96 7.35-20.97 23.84-18.43 18.85-43.67 32.95-68.35 23.32-30.65-11.95-41.18-44.79-17.38-105.83 23.82-61.05 53.81-78.08 86.01-65.51 25.98 10.13 36.84 45.19 35.96 69.69-.78 17.35-5.31 21.27-1.15 22.89 1.56.61 2.85-.39 3.96-3.24l26.65-68.32c1.42-3.63.42-4.92-1.39-5.63-4.94-1.92-5.94 14.45-18.4 9.58-10.4-4.05-18.26-21.48-47.88-33.03-53.76-20.98-105.99 4.74-126.35 56.95-20.37 52.21 5.06 108.22 54.41 127.47 29.62 11.55 47.76 1.87 59.71 6.53 10.39 4.05.47 13.35 5.94 15.48 1.81.71 3.41.43 4.53-2.42zM1582.95 1366.12c10.65 4.15 22.31-1.17 26.36-11.57 4.15-10.64-.92-22.19-11.57-26.35-10.39-4.06-22.2.91-26.35 11.56-4.05 10.39 1.17 22.31 11.56 26.36" style="fill:#323898;fill-opacity:1;fill-rule:nonzero;stroke:none" transform="matrix(.13333 0 0 -.13333 0 257.333)" data-source="https://football-logos.cc"></path><!-- source: https://football-logos.cc --></svg>