<svg xmlns="http://www.w3.org/2000/svg" xml:space="preserve" viewBox="18.26 11.66 220.48 234.33"><!-- Source: https://football-logos.cc --><path d="M1428.02 359.633c15.793-77.568-27.02-40.535 16.89-56.301-38.28-15.762-76.56-31.527-118.22-38.281l4.5-1.125 41.66-14.637c-66.43-25.898-158.76-66.434-230.82-30.402-14.64-40.535-41.66-75.442-79.94-102.461-66.434-43.914-127.235-36.032-203.797-11.262-47.293 16.891-59.68 54.047-59.68 115.977-104.715-33.782-59.675-78.821-119.351-96.836-68.684-21.395-167.766 22.519-76.567 84.445 29.278 20.27 61.93 34.906 94.582 49.547C410.16 367.516 244.641 605.094 225.5 897.84c-102.461 19.144-94.578 131.74-79.941 208.3 18.015 96.84 243.207 156.51 316.39 31.53 40.535 102.46 110.348 189.16 199.297 248.84l-29.273 64.18c-15.762 4.5-27.024 19.13-27.024 36.03 0 4.5 1.125 9 2.25 13.51l-48.414 103.59-9.008-5.63-59.675 114.85 58.55 27.02v2.25l58.547 28.15 18.016 9 57.426 23.65 45.039-86.7 15.761 4.51 14.641 3.38 16.887-49.55-14.637 9.01-10.133-16.89-13.515 51.79c28.152 7.89 56.3 13.52 84.449 19.14l12.387-45.03-12.387 7.88-11.262-14.64-6.754 48.42 16.891 2.25-3.379 103.59c47.293 1.12 74.312 1.12 76.566 1.12-1.125 0 1.125 0 0 0 31.528 1.13 64.18 1.13 95.703 1.13l74.312-1.13v-101.33l5.63-1.13 15.77-1.13-7.88-46.16-7.89 13.51-15.76-10.13 9.01 45.04c28.14-4.51 55.17-9.01 82.2-15.76l-7.89-49.55-7.88 14.64-16.89-9.01 11.26 48.42c11.26-2.25 22.52-4.5 32.65-7.88l42.79 91.2 197.04-88.95-60.8-114.85-9.01 4.5-15.76-36.03-28.15-67.56c2.25-4.5 3.38-10.13 3.38-15.76 0-15.76-10.14-29.27-24.77-34.9l-28.15-67.56c146.37-92.33 243.2-256.72 243.2-441.377 0-236.449-156.5-440.25-378.32-504.43 11.26-7.879 20.27-15.762 28.15-24.769 45.04 50.668 38.28 45.039 69.81 112.597 6.76-25.898 13.51-51.797 20.27-78.82 32.65 38.285 46.16 67.559 67.56 112.598 5.63-21.395 10.13-41.661 15.76-60.801 16.89 48.414 48.42 93.453 74.31 138.492l3.38-13.512c10.13 3.379 22.52 4.504 31.53 0l1.12 5.629c3.38 49.543 19.14 99.082 32.66 147.5l19.14-37.156c0 1.129 1.12 1.129 2.25 1.129-19.14 50.664-15.76 105.84-12.38 158.758l21.39-11.258c-5.63 23.644-7.89 48.414-11.26 72.058 42.78-14.636 18.01-39.406-22.52-23.644 36.296 191.785-56.3 255.596-104.72 360.306 37.16-16.89 70.94-33.77 112.6-39.41-11.26 47.3-2.25 96.83 2.25 144.13 41.66-58.55 49.55-69.81 103.59-113.73 3.38-2.25 5.63-4.5 9.01-7.88 42.79 47.29 40.53 47.29 73.18 111.47 12.39-48.41 29.28-102.46 18.02-153.13 14.64-2.25 24.77-12.38 27.02-27.02 23.65 6.75 48.42 12.39 72.07 18.01-34.91-48.41-42.79-56.29-61.93-110.34-3.38-9.01-6.76-18.02-11.26-25.9 12.38-3.37 20.27-14.63 19.14-29.27 12.39 3.38 25.89 4.5 38.28 6.75-1.12-25.89-1.12-51.79-7.88-77.69 21.39-1.124 42.79-7.878 63.05-14.636-19.14-38.281-39.4-77.691-75.44-103.586 16.9-1.125 34.91-2.254 50.67-3.379-19.14-40.535-38.28-91.203-73.18-120.476 14.63-2.254 28.14-4.504 42.78-5.633-24.77-46.164-51.79-90.078-99.08-115.973 22.52-3.379 43.91-11.262 66.43-18.015-33.78-43.911-69.81-84.446-122.73-104.715 30.4-42.785-38.28-73.188-78.82-50.664h-41.66c34.91-11.262 64.18-31.528 93.46-50.672-39.41-23.645-78.82-46.164-124.99-52.918" style="fill:#007a38;fill-opacity:1;fill-rule:evenodd;stroke:none" transform="matrix(.13333 0 0 -.13333 0 257.333)" data-source="https://football-logos.cc"></path><path d="m1044.07 1577.92-10.13 58.55c29.27-1.13 57.42-6.76 84.45-15.76l-38.29-48.42c-11.26 2.25-23.64 3.38-36.03 5.63M865.047 1717.54l-13.512-76.57c-30.402-1.12-72.062-9.01-95.707-20.26l-52.922 63.05c12.387 4.51 27.024 5.63 40.535 10.13l12.387-34.9 18.016 4.5-9.008 36.03c13.508 3.38 25.898 6.76 39.406 9.01l7.883-30.4 22.52 2.25-5.629 31.53c11.257 2.25 23.644 4.5 36.031 5.63M1241.12 1470.95l-22.52-50.66c-76.57 42.78-172.28 69.8-266.858 69.8-96.828 0-199.293-29.27-278.109-75.43l-24.77 51.79c175.649 102.46 403.087 111.47 592.257 4.5" style="fill:#fddf03;fill-opacity:1;fill-rule:evenodd;stroke:none" transform="matrix(.13333 0 0 -.13333 0 257.333)"></path><path d="M609.453 946.254c0-188.031 153.129-341.16 342.289-341.16 188.038 0 341.168 153.129 341.168 341.16 0 189.166-153.13 342.296-341.168 342.296-189.16 0-342.289-153.13-342.289-342.296m-33.777 0c0 208.306 168.89 376.066 376.066 376.066 207.178 0 374.948-167.76 374.948-376.066 0-207.176-167.77-374.941-374.948-374.941-207.176 0-376.066 167.765-376.066 374.941" style="fill:#fff;fill-opacity:1;fill-rule:evenodd;stroke:none" transform="matrix(.13333 0 0 -.13333 0 257.333)"></path><path d="M252.523 903.469c18.016-319.774 216.184-570.86 559.602-654.18 70.934-16.891 137.367-18.016 194.795-13.512 4.5-1.129 5.63-2.254 5.63-3.379 1.12-5.628 1.12-6.753 0-9.007l-29.28-2.25v-61.93c-37.157 34.906-113.719 65.305-150.875 4.504 5.628-19.141 16.886-28.149 33.777-33.777 74.312-24.774 124.98-30.403 180.148 6.753 64.18 43.914 88.96 109.219 84.45 192.539-2.25 60.801-39.41 100.211-110.34 117.098-27.024-4.5-40.535-3.375-68.688-3.375-279.238 0-504.426 225.192-504.426 503.301 0 34.906 3.375 68.686 10.133 102.466-2.254 182.41-266.851 148.63-284.867 49.54-5.629-23.64-6.758-50.67-7.883-79.94-1.125-40.539 9.008-67.558 31.528-83.324 37.156 24.774 25.894 101.334 20.265 130.614 13.516 1.12 27.024 0 41.66 0 0 5.63 2.254 12.38 4.508 18.01 4.504 4.51 7.879 3.38 12.383-2.25-14.637-63.05-23.645-112.597-22.52-177.901" style="fill:#fddf03;fill-opacity:1;fill-rule:evenodd;stroke:none" transform="matrix(.13333 0 0 -.13333 0 257.333)"></path><path d="M488.977 946.254c0-254.465 207.175-461.641 462.765-461.641 254.468 0 461.648 207.176 461.648 461.641 0 255.596-207.18 462.776-461.648 462.776-255.59 0-462.765-207.18-462.765-462.776m-32.657 0c0 273.606 221.817 495.426 495.422 495.426 272.488 0 494.298-221.82 494.298-495.426 0-272.477-221.81-494.293-494.298-494.293-273.605 0-495.422 221.816-495.422 494.293" style="display:inline;fill:#fff;fill-opacity:1;fill-rule:evenodd;stroke:none" transform="matrix(.13333 0 0 -.13333 0 257.333)"></path><path d="M675.883 1410.15c79.945 47.29 174.523 74.31 274.734 74.31 97.963 0 188.043-25.89 266.853-70.93l-12.38-27.02c-74.32 42.78-162.14 67.55-253.348 67.55-94.578 0-185.781-27.02-261.219-72.06zM1031.69 1646.6l-13.51 72.06c13.51-1.12 25.89-2.25 39.4-4.5l-4.5-28.15 21.39-5.63 5.63 31.53c13.51-3.38 25.9-5.63 37.16-7.88l-4.5-33.78 21.39-5.63 6.76 33.78c10.13-2.26 20.26-5.63 30.4-7.88l-47.29-61.93c-30.41 9-60.81 15.76-92.33 18.01" style="fill:#fddf03;fill-opacity:1;fill-rule:evenodd;stroke:none" transform="matrix(.13333 0 0 -.13333 0 257.333)"></path><path d="M627.469 1484.46c0 4.51 3.375 9.01 7.879 11.26 92.332 54.05 200.422 85.58 316.394 85.58 109.218 0 211.678-29.28 301.758-76.57 4.5-3.38 7.88-7.88 7.88-13.51 0-6.76-5.63-13.51-13.51-13.51-3.37 0-5.63 1.13-9.01 3.38-85.57 46.16-183.53 72.06-287.118 72.06-110.344 0-212.804-29.27-301.754-79.95-1.125 0-2.25-1.12-3.379-2.25-2.25 0-2.25-1.13-4.504-1.13-7.882 0-14.636 6.76-14.636 14.64" style="fill:#fddf03;fill-opacity:1;fill-rule:evenodd;stroke:none" transform="matrix(.13333 0 0 -.13333 0 257.333)"></path><path d="m851.535 1634.22-10.137-58.55c-14.632-2.26-29.273-4.51-42.785-9.01l-37.156 47.29c29.277 10.14 59.676 16.89 90.078 20.27M829.016 181.73c34.906 34.907 94.578 36.032 141.871 2.254-1.125 13.508 1.125 24.766 0 37.157-40.535 0-88.953 1.125-141.871 11.257q-3.375-33.78 0-50.668M231.133 969.902c-5.633-16.89-11.262-31.527-19.145-40.535 9.008-2.25 19.145-5.629 30.403-5.629-2.254 33.778 4.504 76.562 13.511 129.482-7.882 0-15.765 0-24.769-1.12 3.375-31.53 3.375-59.678 0-82.198" style="fill:#fddf03;fill-opacity:1;fill-rule:evenodd;stroke:none" transform="matrix(.13333 0 0 -.13333 0 257.333)"></path><path d="M607.199 181.73c30.403 19.141 77.696 45.04 145.25 73.188 14.637-5.629 28.149-9.008 42.789-12.387-13.515-4.504-24.773-9.008-34.906-12.386-31.527-10.129-55.172-39.407-67.559-70.934-5.628-14.637-64.179-31.527-96.832-9.008-11.257 6.758-5.628 20.266 11.258 31.527M1577.78 1150.05c-84.45 33.78-122.73 97.96-112.6 192.54 52.92-74.31 130.61-65.3 112.6-192.54" style="fill:#bdcd17;fill-opacity:1;fill-rule:evenodd;stroke:none" transform="matrix(.13333 0 0 -.13333 0 257.333)"></path><path d="M1381.86 1254.77c34.91-15.76 66.43-15.76 95.71-20.27 12.38-34.9 50.66-70.93 96.83-86.7-88.95-13.51-153.13 21.4-192.54 106.97M1626.2 1330.21c16.88-65.31 2.25-117.1-42.79-154.26 2.25 27.03-1.13 49.54-19.14 77.69 18.01 23.65 45.03 40.54 61.93 76.57M1694.88 1197.35c-34.91-50.67-14.64-96.84-83.33-119.36-3.37 14.64-6.75 29.28-11.25 43.92 14.63 38.28 46.16 63.05 94.58 75.44M1596.92 1014.94c1.13-11.26 2.25-23.643 3.38-36.034-68.69 2.254-113.73 38.284-136.25 108.094 54.05-32.65 103.59-14.64 132.87-72.06" style="fill:#bdcd17;fill-opacity:1;fill-rule:evenodd;stroke:none" transform="matrix(.13333 0 0 -.13333 0 257.333)"></path><path d="M1477.57 951.887c15.76 20.265 31.52 34.906 47.29 45.039 27.02-14.641 52.92-21.395 74.31-20.27 1.13-7.883 1.13-15.761 1.13-22.515-16.89-29.278-54.05-28.153-122.73-2.254M1710.64 1047.59c-3.38-72.059-33.78-117.098-87.82-131.735a680 680 0 0 1 0 67.559c14.63 34.906 43.91 56.296 87.82 64.176" style="fill:#bdcd17;fill-opacity:1;fill-rule:evenodd;stroke:none" transform="matrix(.13333 0 0 -.13333 0 257.333)"></path><path d="M1621.69 883.203c1.13 9.008 1.13 20.266 1.13 30.402 32.65 7.879 58.54 27.02 74.31 60.801 19.14 3.375 39.41 1.125 59.67-5.633-33.78-65.304-75.44-95.707-135.11-85.57M1443.79 1124.16c2.25 7.88 16.89 10.13 32.65 5.63 15.77-3.38 27.02-12.39 25.9-20.27-1.13-6.75-15.77-9.01-32.66-4.5-15.76 3.37-27.02 12.38-25.89 19.14M1653.21 1218.74c5.64-4.51 2.26-19.14-7.87-32.65-11.27-12.39-23.65-19.14-29.28-14.64s-2.25 19.14 7.88 31.53c10.13 13.5 23.65 19.13 29.27 15.76M1628.45 1035.21c-5.63 5.63 0 19.14 12.38 30.4s25.9 14.64 30.4 9.01c5.63-5.64 0-18.02-12.38-29.28-12.39-10.13-25.9-14.64-30.4-10.13M1640.83 846.047c-3.38 6.754 4.51 18.016 16.89 27.019 13.51 9.012 28.15 11.262 32.65 5.633 3.38-5.633-4.5-18.015-16.89-27.023-13.51-10.133-28.14-12.387-32.65-5.629M1587.91 804.383c-1.12-6.754-2.25-13.508-3.38-20.266-52.92 16.891-82.19 63.055-94.58 147.5 63.06-22.519 93.46-61.926 97.96-127.234" style="fill:#bdcd17;fill-opacity:1;fill-rule:evenodd;stroke:none" transform="matrix(.13333 0 0 -.13333 0 257.333)"></path><path d="M1728.66 855.055c-34.91-73.188-59.68-110.344-129.49-104.715 4.51 18.012 9.01 37.156 12.38 55.172 9.01 14.636 20.27 24.769 33.79 32.652 9 0 19.14 3.379 29.27 11.262l2.25 1.125c14.64 3.379 32.66 5.629 51.8 4.504M1560.89 704.176c-2.25-7.883-5.63-15.766-9.01-22.52-64.18 29.278-86.7 96.832-79.94 185.782 57.42-30.403 97.95-103.586 88.95-163.262M1698.26 731.195c-37.16-67.554-94.58-95.703-138.5-90.074 9.01 18.016 16.89 37.156 23.65 56.297 28.14 30.402 67.55 41.66 114.85 33.777M1471.94 692.914c-6.76 13.512-6.76 27.024 0 31.527 7.88 3.379 19.14-4.503 25.9-18.015 7.87-13.512 7.87-27.02 1.12-31.524s-19.14 4.504-27.02 18.012M1448.29 716.563c24.77-48.418 50.67-94.583 52.92-131.739-11.26-15.761-23.64-31.527-37.16-47.289-43.91 36.031-37.15 97.957-15.76 179.028M1663.35 603.965c-48.42-61.926-119.35-92.328-171.14-72.059 16.88 21.391 33.77 45.035 47.28 69.809 37.16 14.637 86.71 14.637 123.86 2.25M1376.23 579.195c-3.38 13.508 2.25 25.899 11.26 29.274 7.88 1.125 18.01-9.008 21.39-23.645 3.38-13.511-2.25-25.898-10.13-28.152-10.13-2.25-20.27 7.883-22.52 22.523M1533.86 476.73c-15.76 0-28.15 5.629-28.15 14.637-1.12 7.883 12.39 14.641 28.15 14.641 15.77 1.125 28.16-5.629 28.16-14.641 0-7.883-12.39-14.637-28.16-14.637M1373.98 450.832c-15.77-12.383-31.53-23.641-47.29-33.777-30.4 37.156-6.76 85.574 36.03 161.011 11.26-52.918 19.14-97.957 11.26-127.234M1509.09 411.426c-60.8-34.906-126.1-45.039-158.75-11.258 21.39 14.633 41.66 29.273 59.67 46.16 32.65-2.25 68.68-15.762 99.08-34.902M1376.23 332.609c-15.76 2.25-27.02 12.383-24.77 20.266 1.13 7.883 15.76 12.387 30.4 9.008 15.77-3.375 27.02-12.387 24.77-21.395-1.13-7.879-15.76-11.258-30.4-7.879" style="fill:#bdcd17;fill-opacity:1;fill-rule:evenodd;stroke:none" transform="matrix(.13333 0 0 -.13333 0 257.333)"></path><path d="M1176.94 322.477c6.75 5.628 9.01 10.132 14.63 18.011 86.7 37.157 157.64 81.071 215.06 130.614l-13.51 83.32h5.63l21.39-69.809c40.54 38.282 73.19 77.692 100.22 122.731l-24.78 63.054c2.26 0 2.26 1.125 4.51 1.125l28.14-49.543c51.8 94.583 76.57 202.672 76.57 324.274 0 42.789-4.5 83.326-11.26 122.726l-91.2 37.16c3.37 4.5 3.37 5.63 2.25 7.88l85.57-31.52c-4.5 22.52-10.13 42.79-16.89 63.05 1.13 1.13 5.63 2.25 5.63 2.25 2.25 6.76 2.25 13.52 2.25 20.27 4.51-6.75 5.64-12.39 7.89-19.14l21.39 22.52c1.12-3.38 2.25-4.5 4.5-5.63l-22.52-28.15c10.14-34.9 18.02-69.81 22.52-105.84l9.01 5.63c0-1.13 1.13-2.25 2.26-3.38l-10.14-14.63c2.25-23.649 4.5-47.298 4.5-73.196 0-37.156-3.38-73.188-7.88-109.219l24.77 14.641c0-2.25 0-4.504 2.25-6.754l-29.27-23.645c-20.27-126.109-69.81-235.328-150.88-323.152l43.91-2.25c0-1.129-1.12-2.254-1.12-4.508 0-2.25 1.12-3.379 1.12-5.629h-56.29c-41.67-42.785-91.21-81.066-149.76-113.722l52.93-15.762c-2.26-4.504-1.13-6.758-1.13-7.883l-67.56 15.766c-31.52-16.891-60.8-30.403-96.83-43.914-2.25 1.129-5.63 1.129-7.88 2.254" style="fill:#bdcd17;fill-opacity:1;fill-rule:evenodd;stroke:none" transform="matrix(.13333 0 0 -.13333 0 257.333)"></path><path d="M1379.61 301.082c-70.94-29.277-145.25-23.648-168.9 25.898 24.77 9.008 48.42 19.137 72.07 32.653 29.27-13.516 61.92-45.039 96.83-58.551M1276.02 386.652c-18.02-10.132-36.03-19.136-54.05-28.144-51.79 39.406 28.16 82.191 54.05 137.367 12.39-45.043 13.51-83.324 0-109.223" style="fill:#bdcd17;fill-opacity:1;fill-rule:evenodd;stroke:none" transform="matrix(.13333 0 0 -.13333 0 257.333)" data-source="https://football-logos.cc"></path><path d="M1188.2 463.223c16.89-63.055 18.01-113.727-15.77-140.746-9.01 2.25-30.4-1.125-38.28-9.012v15.765c0 19.141-4.51 34.907-11.26 49.543 15.77 24.77 50.67 51.793 65.31 84.45M1128.52 254.918c4.5 16.887 5.63 34.906 6.76 52.918 6.75 5.629 20.26 10.137 41.66 10.137 40.53-10.137 87.82-58.551 127.23-72.063-60.8-23.644-136.24-32.652-175.65 9.008" style="fill:#bdcd17;fill-opacity:1;fill-rule:evenodd;stroke:none" transform="matrix(.13333 0 0 -.13333 0 257.333)"></path><path d="M564.414 946.254c0-212.805 173.399-386.203 387.328-386.203 212.808 0 386.208 173.398 386.208 386.203 0 213.936-173.4 387.336-386.208 387.336-213.929 0-387.328-173.4-387.328-387.336m-70.937 0c0 253.346 204.925 458.266 458.265 458.266 252.218 0 458.268-204.92 458.268-458.266 0-253.34-206.05-457.137-458.268-457.137-253.34 0-458.265 203.797-458.265 457.137" style="display:inline;fill:#00a650;fill-opacity:1;fill-rule:evenodd;stroke:none" transform="matrix(.13333 0 0 -.13333 0 257.333)"></path><path d="M876.305 825.777c20.269-13.507 43.91-22.519 69.808-23.644V690.664c-16.886 28.149-46.164 49.543-91.199 63.055q-27.027 6.756-47.293 16.886zm69.808 289.373v-31.53c-72.062-2.25-130.609-64.17-130.609-140.741 0-12.387 2.25-24.77 5.629-36.031l-76.567-65.305c-7.882 29.273-5.628 64.18 7.883 104.711 22.52 67.556 11.262 113.726-33.777 132.866l60.801 72.06c56.297-22.52 112.597-34.91 166.64-36.03" style="fill:#00a650;fill-opacity:1;fill-rule:evenodd;stroke:none" transform="matrix(.13333 0 0 -.13333 0 257.333)"></path><path d="M877.43 1270.54c22.519 5.62 45.039 9 68.683 9v-156.51c-11.258 0-22.519 0-33.777 1.13zM627.469 1025.07c5.629 21.39 12.383 41.66 21.394 60.81l103.586-49.55c4.504-12.38 5.633-27.02 3.379-41.658zM946.113 614.098c-22.519 0-43.91 2.254-65.304 7.882l24.769 101.336c16.891-11.257 29.277-27.023 40.535-47.289zM1023.8 621.98c-21.39-5.628-43.905-7.882-67.554-7.882v60.804c10.137 21.391 23.649 38.282 42.789 49.539z" style="fill:#fff;fill-opacity:1;fill-rule:evenodd;stroke:none" transform="matrix(.13333 0 0 -.13333 0 257.333)"></path><path d="M951.742 1018.32v7.88l10.137 1.13zM1080.1 944.004c0-47.289-23.64-87.824-59.67-111.469 28.15 31.528 43.91 88.949 37.15 137.367l16.89 13.512c3.38-13.512 5.63-25.898 5.63-39.41M922.469 861.809l27.023 22.519v-33.777c-7.883 0-14.637-1.125-23.644-2.25-1.125 4.5-2.254 9.004-3.379 13.508M889.816 835.91l10.133 7.883 1.129-2.25c-3.379-2.254-7.883-3.379-11.262-5.633M875.18 953.012l-23.645-20.266c-1.129 32.652 3.379 68.684 14.637 109.214 3.379 2.25 7.879 5.63 11.258 7.88 4.504-3.38 9.008-5.63 13.511-9-9.007-24.77-14.636-54.047-15.761-87.828M1004.66 1063.36l-36.027-30.4c-29.274-2.26-57.422 4.5-85.574 21.39 20.269 12.38 42.789 20.27 68.683 20.27 19.145 0 37.156-4.51 52.918-11.26M951.742 812.27c-22.515 0-43.91 5.628-61.926 15.761 45.039 21.395 78.817 21.395 121.604-1.125-18.014-9.008-38.283-14.636-59.678-14.636" style="fill:#fddf03;fill-opacity:1;fill-rule:evenodd;stroke:none" transform="matrix(.13333 0 0 -.13333 0 257.333)"></path><path d="M811 1248.01c18.016 9.01 36.027 15.77 55.172 20.27l34.906-142.99q-16.893 1.68-33.781 6.75zM744.566 1207.48c16.891 14.63 36.032 27.02 56.301 36.03l52.918-109.22c-22.519 5.63-45.039 13.51-67.555 22.52zM692.773 1156.81c13.512 15.76 28.153 30.4 42.786 43.91l37.156-46.16-31.527-37.16zM653.367 1096.01c9.004 18.01 20.266 36.03 33.778 52.92l48.414-39.41-29.274-33.78c15.766-5.63 27.024-13.51 34.903-23.64zM754.703 983.414c-2.254-10.137-4.504-21.394-7.883-32.652l-128.359-1.129a611 611 0 0 0 6.754 65.307zM743.441 940.625c-4.503-13.508-6.757-24.77-7.882-37.156l-110.344-23.645c-3.375 19.141-5.629 40.535-6.754 60.801zM733.309 891.086c-1.125-14.641 0-27.023 2.25-39.41l-87.821-41.66c-9.011 19.14-14.64 38.285-20.269 58.547zM738.938 840.414c3.378-14.637 11.261-27.019 19.144-39.406l-70.937-56.297c-13.512 16.887-25.899 36.031-34.907 55.168zM764.836 793.125q15.2-15.2 37.156-27.023l-61.929-76.563a469 469 0 0 0-47.29 47.289zM811 761.598c11.262-5.629 23.645-10.133 38.281-13.508l-48.414-97.961c-19.144 9.008-37.156 20.269-54.047 33.777zM858.293 744.711c13.508-4.504 27.02-9.012 38.281-15.766l-24.773-105.84c-21.395 5.629-42.785 13.512-61.93 22.52zM1089.11 644.5c-18.01-9.008-37.16-15.766-56.29-20.27l-24.78 105.84c9.01 5.629 20.27 10.137 33.78 13.516zM1155.54 683.906c-18.01-13.508-37.15-25.894-57.42-36.027l-47.29 99.082c14.64 3.379 29.27 9.008 41.66 14.637zM1207.34 733.449c-13.52-15.761-28.15-30.402-45.04-42.785l-60.8 76.563c12.38 5.632 23.64 14.64 32.65 23.648zM1247.87 795.379c-10.13-19.141-21.39-37.156-34.9-54.047l-70.94 57.422c9.01 11.262 15.76 23.648 20.27 37.156zM1273.77 862.934c-5.63-20.266-12.39-40.532-21.39-58.551l-86.7 41.664c2.25 12.387 4.5 27.019 3.37 40.535zM1167.93 897.84c-1.13 13.512-4.51 27.023-9.01 42.785h124.98c0-23.641-3.38-46.164-7.88-67.559zM1156.67 950.762c-3.38 10.133-6.76 19.14-9.01 29.273l130.61 28.145c3.38-19.137 5.63-38.278 5.63-57.418zM1146.54 992.422c-2.25 13.508-1.13 28.148 1.12 39.408l108.09 50.67c9.01-19.14 14.64-40.54 20.27-61.93zM1167.93 1108.39l48.41 39.41c13.52-18.01 25.9-37.16 34.91-57.42l-97.96-45.04c9.01 13.52 21.39 23.64 41.66 31.53zM1129.64 1154.56l37.16 46.16c15.77-13.51 29.27-28.15 42.79-43.91l-49.54-39.41zM1050.83 1134.29l52.92 108.09c19.14-9 37.16-21.39 54.04-34.9l-40.53-51.8c-23.65-7.88-45.04-15.76-66.43-21.39M1037.32 1132.04c-13.52-3.38-25.9-5.63-39.41-6.75l33.78 145.25c21.39-5.64 42.78-13.52 61.92-22.53zM953.996 1279.54c22.52 0 45.039-3.38 66.434-6.75l-33.782-149.76h-31.527z" style="fill:#fff;fill-opacity:1;fill-rule:evenodd;stroke:none" transform="matrix(.13333 0 0 -.13333 0 257.333)"></path><path d="M1011.42 1070.11c-16.889 9.01-37.158 13.51-56.299 13.51v31.53c45.039 0 91.199 9.01 138.489 24.77zm-55.174-379.446-1.125 111.469c73.189 2.25 132.859 64.18 132.859 140.746 0 15.766-2.25 31.527-6.75 46.164l61.93 48.417c-7.88-22.52-5.63-54.046 7.88-91.206 32.65-102.461-3.38-165.512-103.59-192.535-43.91-13.512-75.438-34.906-91.204-63.055" style="fill:#fff;fill-opacity:1;fill-rule:evenodd;stroke:none" transform="matrix(.13333 0 0 -.13333 0 257.333)"></path><path d="m1087.98 1570.04 96.84 127.23 126.11-59.68-55.18-129.48-5.62 4.5 46.16 113.73c-28.15 10.13-60.81-20.27-96.84-90.08-36.03 14.64-73.18 25.9-111.47 33.78M688.27 1529.5c-38.282 64.18-69.809 91.21-95.707 79.95l48.417-104.72-7.882-4.5c-42.785 87.82-56.297 118.23-61.93 127.23l119.355 59.68 102.461-121.6c-36.031-9.01-72.058-21.4-104.714-36.04M558.785 1628.59l148.625 74.31-34.906 68.69-33.777-15.77 13.511-29.27-23.644-11.26-14.637 30.4-34.902-16.89 14.633-32.66-21.391-9-14.637 29.27-36.031-15.76zM942.734 1718.66c-30.398-2.25-47.285-48.41-47.285-136.23-16.894-1.13-31.527-3.38-48.422-5.64l25.899 152.01h138.494l25.9-149.75c-15.77 2.25-31.53 3.38-48.422 4.5 2.254 87.83-12.382 138.49-46.164 135.11M1209.59 1778.34l-33.78-70.94 148.63-69.81 38.28 73.19-37.16 18.02-15.76-31.53-19.14 10.13 13.51 27.03-38.28 16.89-13.51-30.4-22.52 11.26 13.51 29.27zM843.652 1734.43h195.918v81.07l-45.039 1.12v-31.53l-29.273-2.25 1.125 33.78h-48.418l1.125-34.91h-32.652v33.79l-46.165-1.13zM1028.31 946.254l23.64 19.144c5.63-45.039-13.5-97.96-37.15-131.738-3.38 2.25-7.88 4.504-11.26 5.629 19.14 28.149 28.15 73.188 24.77 106.965" style="fill:#fddf03;fill-opacity:1;fill-rule:evenodd;stroke:none" transform="matrix(.13333 0 0 -.13333 0 257.333)"></path><path d="m991.152 916.984 31.528 24.766c2.25-31.523-4.5-66.43-22.52-100.207-6.754 2.25-12.387 3.379-19.14 5.629 6.753 25.894 10.132 48.418 10.132 69.812M952.867 886.582l33.781 27.023c-1.125-27.023-5.628-49.542-10.132-65.304-7.883 1.125-15.762 2.25-23.649 2.25zM923.594 1029.58c7.883-1.13 15.765-2.25 23.644-3.38l1.129-11.26-31.527-27.022c1.125 14.632 3.375 28.152 6.754 41.662M902.203 846.047l16.887 13.512c1.125-3.379 1.125-7.883 4.504-12.387-6.754-1.125-13.512-3.379-20.266-5.629zM895.449 1039.71c6.754-3.38 13.508-5.63 20.262-7.88-2.25-16.89-3.375-33.779-5.629-48.416l-29.273-25.898c1.125 31.527 5.629 57.424 14.64 82.194M823.387 944.004c0 37.156 14.636 69.806 39.406 93.456-13.512-33.78-18.016-70.937-15.766-109.218l-20.261-15.765c-2.254 9.007-3.379 20.269-3.379 31.527" style="fill:#fddf03;fill-opacity:1;fill-rule:evenodd;stroke:none" transform="matrix(.13333 0 0 -.13333 0 257.333)"></path><path d="m1182.57 1080.25-59.68 70.93-6.76-2.25-369.31-313.02c9.008-25.894 28.149-46.16 54.047-60.801L1148.79 1052.1c7.88 11.26 19.14 21.39 33.78 28.15" style="fill:#fff;fill-opacity:1;fill-rule:evenodd;stroke:none" transform="matrix(.13333 0 0 -.13333 0 257.333)"></path><path d="m320.082 1054.35 16.891-2.25c-9.012-6.76-14.641-14.64-14.641-22.52-1.125-4.51 0-9.01 1.125-11.26 2.254-3.38 5.633-4.51 9.012-5.63 4.504 0 7.879 2.25 11.258 5.63 2.253 1.13 4.503 4.5 7.882 9.01 5.629 7.88 10.133 13.51 13.512 15.76 5.629 4.5 11.258 6.75 18.016 5.63 7.879 0 13.508-2.26 16.886-7.88 4.508-5.63 5.633-12.39 5.633-20.27s-2.254-14.64-7.883-21.394l-14.636 1.124c6.754 6.76 10.129 14.64 11.258 21.4 0 3.37-1.129 6.75-3.379 10.13-1.125 3.38-3.379 4.5-7.879 4.5-4.504 1.13-10.133-4.5-18.016-15.76 0 0-1.129 0-1.129-1.12-5.629-7.89-10.133-12.39-13.512-15.77-4.5-3.38-11.257-4.504-19.14-3.38-7.883 0-13.512 3.38-16.887 9.01-4.504 5.63-5.633 11.26-5.633 20.27s4.504 16.88 11.262 24.77M306.57 983.414l93.453 1.125 1.129-56.297h-11.261l-1.125 43.91-28.153-1.125v-41.66H348.23v41.66l-29.277-1.125 1.129-43.914h-12.387zM309.949 878.699l81.067 5.629-2.25 34.906 12.386 1.125 6.754-82.195-13.511-1.129-2.254 34.906-81.067-5.628zM409.031 833.66l2.254-12.383-52.922-10.136c-10.133-1.125-15.761-3.379-18.015-6.758-5.629-6.754-7.879-14.633-5.629-24.766 1.129-6.758 3.379-13.515 7.883-18.019 5.628-4.504 11.257-5.629 19.14-4.504l58.551 10.133 2.25-13.508-59.676-10.133c-10.133-2.254-20.265 1.125-27.019 7.879-6.758 5.629-12.391 14.637-13.516 25.898-3.379 14.637 0 27.02 7.883 36.032 3.379 3.378 6.758 5.628 11.262 7.882q5.063 1.687 13.507 3.375zm13.512-29.277 25.898-9.004 2.25-12.387-25.898 14.637zM384.262 714.309l-27.024-9.008 5.629-18.016c4.504-11.258 11.262-15.762 20.27-12.383 9.004 3.375 11.258 11.258 5.629 24.766zm-43.914-1.125 87.824 31.527 10.137-25.898c3.379-7.879 4.504-14.637 1.125-21.395-1.125-6.754-5.629-11.258-13.512-14.637-9.008-3.375-16.891-1.125-23.645 6.758 1.125-6.758 0-12.387-2.254-16.891-3.378-5.628-6.757-10.136-13.511-11.261-7.879-3.375-14.637-2.25-21.391 2.254-5.633 4.504-10.137 10.136-13.512 18.015zm55.172 5.629 3.378-7.879c4.504-13.516 11.262-18.02 21.395-14.641 7.879 3.375 10.133 9.008 5.629 20.27l-3.379 11.257zM413.535 636.617l12.387-25.894 23.644 29.273zm-50.668 10.133 102.461 5.633 4.508-7.883-64.18-79.945-6.758 12.386 19.141 22.52-18.016 37.156-30.398-3.379zM414.664 554.422l77.688 51.797 7.882-10.137-68.683-46.164 24.769-37.156-9.004-6.754zM476.59 517.266l7.883 7.882 23.644-27.023-9.008-6.758zM491.227 463.223c4.503 0 11.257 2.25 21.394 4.504 9.008 1.125 16.887 3.375 21.391 3.375 14.64 4.503 24.773 9.007 29.277 14.636 4.504 4.504 5.629 9.008 5.629 12.387-1.125 4.504-2.254 7.883-6.758 11.258-4.5 4.504-12.383 6.758-22.515 4.504l10.132 12.386c9.008-1.125 16.887-3.378 22.52-7.882 6.758-5.629 10.133-12.383 10.133-19.141 0-7.883-2.25-14.637-7.883-21.395-5.629-6.753-14.637-11.257-25.895-14.632-6.757-2.254-18.019-4.508-30.402-5.633l27.023-23.645-9.007-10.132zM584.684 446.328c-5.629-7.879-7.883-14.633-10.137-20.265-3.379-9.008-1.125-15.762 4.508-19.141 5.629-3.379 11.258-3.379 20.261 3.379 4.504 4.5 9.012 9.004 13.516 15.762 5.629 9.007 9.008 14.636 10.133 20.265 3.379 10.137 1.125 16.895-3.379 19.145-6.754 4.504-12.387 3.379-20.27-2.25-5.628-4.508-10.128-10.137-14.632-16.895m-11.262 7.883c6.758 10.137 14.637 16.891 22.519 22.519 11.258 5.629 20.27 5.629 30.403 0 9.004-5.628 12.383-15.761 10.133-28.148-1.129-9.008-5.633-19.141-12.387-29.277-6.754-10.133-13.512-18.012-22.52-22.516-11.257-6.758-20.265-6.758-30.402 0-9.008 5.629-12.383 14.637-10.133 27.024 1.125 10.132 5.629 19.14 12.387 30.398M624.09 397.914l5.629 9.008 31.527-15.762-5.629-10.137zM679.262 343.867l33.777 87.828 12.387-5.632-33.778-87.825zM750.199 320.223l23.645 91.203 13.511-3.379-25.898-91.203zM803.117 334.859l2.25 10.133 34.906-5.629-2.25-11.258zM895.449 354c1.125 1.129 1.125 3.379 1.125 5.633 1.125 5.629 0 10.133-2.254 13.512-2.25 4.5-6.757 6.753-12.386 7.878-4.504 0-7.883-1.125-11.258-3.378-3.379-3.375-4.504-6.754-4.504-11.258-1.125-4.504 0-9.008 3.379-11.258 2.25-3.379 5.629-5.633 10.133-5.633 5.629-1.125 11.257 0 15.765 4.504m-3.379-14.637c-5.632-2.25-11.261-3.375-15.765-2.25-7.883 0-14.637 3.375-18.012 9.004-5.633 5.633-6.758 12.391-5.633 20.27 0 7.883 3.379 15.761 9.008 20.265 6.754 5.633 13.512 6.758 22.516 5.633 9.011 0 16.894-4.504 20.269-11.262 4.504-6.753 6.758-14.636 5.629-23.644q-3.375-37.156-43.91-60.801l-5.629 10.133c15.762 9.008 27.02 20.269 31.527 32.652M943.863 294.328v93.453h13.512v-93.453zM1001.29 341.617c1.12-9.008 2.25-15.762 4.5-21.394 3.38-9.008 9.01-13.512 15.76-12.387 6.76 1.125 11.27 5.629 13.52 14.641 1.12 6.753 2.25 13.511 1.12 22.515-1.12 9.008-2.25 15.766-4.5 21.395-4.51 9.008-9.01 13.511-16.89 12.386-5.63 0-11.26-5.628-12.39-14.636-2.25-6.758-2.25-13.516-1.12-22.52m-13.517-1.129c-1.125 12.387 0 23.649 3.379 31.528q6.757 18.58 23.648 20.269c11.26 0 19.14-4.504 24.77-14.64 5.63-9.004 9.01-19.137 9.01-31.528 2.25-12.383 0-22.515-3.38-31.523-3.38-12.387-11.26-19.141-22.52-19.141-11.26-1.125-19.14 3.379-25.895 13.508-5.633 9.012-7.887 19.144-9.012 31.527M894.32 867.438l-50.668 25.898 10.133 7.883 29.274-14.637-7.879 31.527 10.133 9.008 13.511-56.301zM915.711 892.211c-1.125 2.25-1.125 3.379-1.125 5.629s1.125 3.379 2.254 4.504c1.125 1.125 3.375 1.125 5.629 1.125 1.125 0 3.379 0 3.379-2.25 2.254-1.129 2.254-3.379 2.254-4.504s-1.129-3.379-2.254-4.504c-2.254-1.125-3.379-2.25-5.633-2.25-1.125 1.125-2.25 2.25-4.504 2.25M937.105 902.344l-32.652 40.535 25.899 21.394 5.628-7.882-15.765-12.387 6.758-9.008 15.761 11.258 6.758-6.754-15.762-12.383 13.508-16.89zM964.133 932.746c-1.129 1.125-1.129 2.25-1.129 4.5 0 1.129 1.129 3.379 2.254 4.504 1.125 1.129 3.375 2.254 5.629 2.254 1.125-1.125 3.375-2.254 3.375-3.379 2.254-1.125 2.254-2.25 2.254-5.629 0-1.125-1.125-2.25-2.254-3.379-2.25-2.25-3.375-2.25-5.629-2.25-1.125 0-2.25 1.125-4.5 3.379M1018.18 973.277c-3.38-6.754-6.76-12.382-12.39-15.761-5.63-5.629-13.513-7.883-20.267-7.883-7.882 1.129-13.511 4.508-19.14 11.262-4.504 5.628-6.758 12.382-5.629 20.265 2.25 6.758 5.629 13.512 12.383 18.016 4.504 4.504 10.133 6.754 16.89 9.004l7.883-10.129c-6.758 0-12.387-3.379-18.015-5.629-3.379-3.379-5.633-7.883-6.758-11.262 0-4.504 1.125-9.008 4.504-12.387 2.254-4.5 6.754-5.628 11.257-6.753 3.379 0 6.758 1.125 11.262 4.503 4.5 3.379 7.88 9.008 10.13 16.891zM1021.55 978.906c-1.12 1.129-1.12 3.379-1.12 4.508 0 2.25 1.12 3.379 2.25 4.504 1.12 1.125 3.38 1.125 5.63 1.125 1.13 0 3.38 0 3.38-2.25 2.25-1.129 2.25-3.379 2.25-4.508 0-1.125-1.12-3.379-2.25-4.504-2.25-1.125-3.38-2.25-5.63-1.125-1.13 0-3.38 1.125-4.51 2.25" style="fill:#007a38;fill-opacity:1;fill-rule:evenodd;stroke:none" transform="matrix(.13333 0 0 -.13333 0 257.333)"></path><path fill="none" d="M456.32 946.254c0 273.606 221.817 495.426 495.422 495.426 272.488 0 494.298-221.82 494.298-495.426 0-272.477-221.81-494.293-494.298-494.293-273.605 0-495.422 221.816-495.422 494.293" style="display:inline;opacity:1;fill:#8ff;fill-opacity:0;fill-rule:evenodd;stroke:#007a38;stroke-width:60.9975;stroke-dasharray:none;stroke-opacity:1" transform="matrix(.13333 0 0 -.13333 0 257.333)"></path><path fill="none" d="M483.332 946.278c0 262.05 209.709 474.501 468.38 474.501 257.614 0 467.316-212.451 467.316-474.501 0-260.969-209.702-473.416-467.317-473.416-258.67 0-468.38 212.447-468.38 473.416" style="display:inline;opacity:1;fill:#8ff;fill-opacity:0;fill-rule:evenodd;stroke:#fff;stroke-width:31.3458;stroke-linecap:butt;stroke-linejoin:miter;stroke-dasharray:none;stroke-opacity:1;paint-order:markers stroke fill" transform="matrix(.13333 0 0 -.13333 0 257.333)" data-source="https://football-logos.cc"></path><!-- source: https://football-logos.cc --></svg>