<svg xmlns="http://www.w3.org/2000/svg" viewBox="0 -0.06 565.2 646.94"><!-- Source: https://football-logos.cc --><defs data-source="https://football-logos.cc"><clipPath id="a"><path d="M4 0h561.2v164H4Zm0 0"></path></clipPath></defs><path d="M281.223 603.836c.5-.04 1.058.008 1.523-.148 1.317-.45.145-.31 1.121-.833.926-.5 5.453-.609 6.281-1.5 1.336-1.425.008-1.707 2.575-1.69-.22 1.476-.868 1.616-2.735 3.19l-4.488 3.883c-.676.621-.848.676-1.672.145-.95-.606-2.586-1.793-2.605-3.047m-13.426-11.477c1.219.145.363.067 1 .38.055.027.121.073.176.1.465.227.011.04.578.259 1.441.578.562-.184 1.55 1.164 2.243.168 5.567-.672 6.727 1.09.61.921.758 1.941.168 3.027-.383.703-.648-.035-.527 1.437.152 1.891.344-.101.633 1.715-.844-.18-.91-.289-1.457-.793l-4-3.535c-1.036-.863-4.598-3.582-4.848-4.844m21.965-.144c-1.239-.035-.645-.176-1.418-1.18-3.957-.226-1.328 1.13-3.614 1.309-.933.074-1.28-.239-1.363-1.133-.164-1.856.649-1.195 2.043-1.79.953-.405.004-.167.914-.503 2.617-.957 4.531 1.555 3.438 3.297m-30.235-7.578c2.61-.121 1.602 1.676 3.422 2.203 1.047.305 2.938 0 4.028.066l1.503.43c.09 1.418-.039 1.215-1.609 2.68-.73.687-.082.304-1.02.765-1.128-.523-.769-.578-1.703-1.449-.617-.586-1.039-.793-1.707-1.344-1.87-1.547-2.921-2.023-2.914-3.351m10.27-5.649c2.41 3.028 5.11.422 7.101 1.95-.011 1.644-2.003 3.558-2.43 3.675-1.683.04-.925-.14-1.917-.629-.848-.418-1.172-.238-2.297-.27-1.883-.827 2 .126-2.047-1.288-1.379-.485.414-.192-2.414-1.211-1.106-.399-.387-.586-2.164 0-.695-.867.02-.469-1.598-.906-.5-.133-.351-.016-.683-.207.64-2.239 1.336-1.125 3.422-2.457.535-.344-.004-.067.765-.391 3.215-1.39 1.461-2.602 2.297-4.895.309-.047.738-.156 1.035-.101 1.426.246-.851.512 3.778.758.757 1.468 1.203.546 1.039 2.937l-2.93.156c-.715 3.973-.52.871-.957 2.88m41.535-5.84c-.344 2.258-2.715 2.122-5.102 1.875-.59-3.464-.515-1.421-.933-2.796-.348-1.165.59-2.286 1.469-2.465 2.597-.54 1.898 2.207 2.93 2.851.468.29 1.144.2 1.636.535m-65.102-1.27c3.786-.062 7.274-.718 7.141 2.106-1.336.094-3.164.137-4.5.078-.898-.035-1.242-.14-1.73-.53-.953-.763-.543-.763-.91-1.653m45.301-.952c-.09 1.316-1.351 2.73.254 3.773 1.313.856 2.66.18 3.531 1.79-.398 1.277-1.066 1.433-2.171 1.929-.051 1.172-.184 2.797.156 3.684.066.043.183-.012.226.078.223.484.172-.184 1.383.324.563.226.574.488.875 1.015l6.488.043c.051-.097.106-.289.13-.242.019.047.097-.156.124-.199.438-.629.457-.8 1.43-.887 3.684-.328.844-1.214 9.188-.77-.145 1.473-5.145 5.29-6.516 6.614-.774.738-1.27 1.715-2.688 1.766-.515-1.055-.504-1.465-1.414-2.192-1.468-1.172-2.738-2.687-3.59-2.93-1.03 1.442-1.167 1.048-3.335 1.02-1.582-.015-3.172.031-4.75.02-3.555-.028-1.606-1.5-4.098-4.32l-.54-.786 1.59-1.668c1.255-1.242.762-.394 1.973-1.11.22-3.413-.09-2.44-1.726-4.124-1.336-1.383.137-.305-1.723-1.094-.52-.223-1.406-.95-1.64-1.398-.29-.543-.422-1.84.035-2.313.5-.508 1.98-.3 2.82-.305 1.863-.004 2.16-.355 3.988 2.282m-26.472-.266c-1.625.078-1.875.086-1.801-1.683.062-1.418.469-1.473 1.203-2.215l1.844.015c.156 1.621.187 1.07-.45 1.918-.824 1.102-.222.895-.796 1.965m2.476-3.629c3.387-4.539 4.7 4.047.766.899a8 8 0 0 1-.442-.383zm-12.976.278c-.633-1.887.726-1.918 2.117-1.918 1.094 0 1.133-.075 1.898.324 3.168 1.644-.883 3.98-2.96 2.648-.055-.035-1.028-.972-1.055-1.054m69.68-3.907c2.933-.48 2.792.235 3.55 2 .063 2.063 2.066-1.414 2.395.043-.446.614-8.25 8.778-9.286 8.602-.191-.035-2.046-1.75-2.062-2.29-.027-.987 3.176-2.952 4.851-3.073 1.489-.106 1.946-.211 1.63-2.18-.313-1.957-1.282-.16-1.079-3.102m-24.923 7.895c-.28.156.121.086-.687.25l-3.32-.043c-1.368-2.125-.559-1.16-1.028-3.914-1.43-.395-.832.156-1.164-.836-1.078-3.25 2.078-2.7 4.149-2.438l.773 1.082c4.012.204 1.734-.597 3.488-1.863.914-.664 3.735-.324 5.004-.363 1.055-1.399.938-1.207 3.246-1.086 1.082 1.285.328 1.168 2.79 1.129 3.745-.063 1.214-2.356 4.648-.524l1.812.73c-.086.7-.93 1.634-1.445 1.88-.676.328-.734.027-1.539.445-.645.34-.29.387-.984.91-1.364.059-3.66.356-4.618-.293-1.285-.87.23-.23-1.664-.883-1.347-.46-.343-.093-1.222-1.238-3.043-.031-1.61.227-2.957.95l-1.239.44c-1.03.512.11.24-1.207.762-1.156.461-.632-.308-1.304.602l-.399 1c-1.11 2.227-.316-.824-.937 2.602zm-26.207-1.774c-.234-.332-.125 0-.257-.601-.204-.91-.051-1.824-.055-2.746-.012-2.79-.781-1.192-1.035-2.692 1.691-.797 1.004.364 2.43-1.355l6.117-.066c2.304-.004 2.894.433 1.566 2.375-.992 1.449-.145.699-1.336 1.085-1.277.415-1.129-.125-1.125 1.774.008 1.918-.254 3.168-1.914 3.387-1.484.195-1.184-.356-2.082-.72-1.148-.46-1.344.141-2.309-.44m-35.476-5.828c1.137-.773 8.89-.36 9.52-.234l.015 1.629c-2.293 1.816-.54.082-1.473 2.047-.886 1.87-.695 1.199-.566 3.687-1.598-.32-4.266-3.93-6.52-5.976-.742-.676-.476-.192-.976-1.153m52.683-7.996 4.727-.066c.48.582.332.703.953 1.008.8.398 2.82.105 2.582 3.101-.808.164-1.836-.008-2.508.285-.957.422-.46 1.293-2.117 1.02-1.867-.313-.027-.875-1.754-1.14-.969-.145-.836.202-.941.273-1.004.66.351.304-.942.726-.492-.828-.062-.68-.488-1.453-.508-.918-1.996-.644.488-3.754m-27.523 7.059c-1.441-.418-.102-.094-.856-.422-2.12-.945-1.261.418-2.757.805-1.168-.707.394-.954-3.059-.954-1.617 0-1.473.192-1.777-1.035-.477-1.925-.043-.648-1.285-1.898-.93-.934-.653-4.063-.395-5.684.633-.078 1.273-.023 1.797-.093 1.648-.223.562-.157 1.394-.621 1.891-1.051 3.075.332 3.215.398.996.441 2.578.21 3.73.191 2.345-.03 1.817-.265 3.052 1.067 2.843.078 4.09-.883 3.812 2.23-4.21 3.227-2.75 2.989-6.324 5.594-.184.137-.367.273-.547.422m75.621-6.469c-.14-.273-.305.262-.27-.918.016-.492.118-.52.254-.867l1.508-.11c0 1.442-.183 1.766-1.492 1.895m-33.086-4.676c1.238.692.129.473 1.106.903.601.27.84.058 1.578.375.476.203 3.254 2.785-1.282 2.754-.847-.008-1.671-.008-2.523-.051-1.45-1.645-1.402-3.66 1.121-3.98m-21.406-.105c1.316.62-.305.582 1.683 1.02 1.747.378.696-.04 1.95.843.324 2.508-.13 1.844-1.059 3.418-2.394.11-2.16.215-3.098-.629-.687-.62-1.218-1.148-2.011-1.894-2.91-2.735-.055-2.899 2.535-2.758m-43.09-2.203c.867.324.496.382 1.11 1.16.703.039 4.222.18 4.808-.086.918-.414-.344-.305 1.031-.895 1.184.715 1.375 1.375.512 2.422-2.531 3.078-2.918 1.102-3.707.805-1.39-.535-3.45.434-5.055-.508-.855-.5.297-.21-.957-.473-.746-.156-3.316.028-2.004-1.992.578-.883 3.192-.433 4.262-.433m-15.68 1.324c.668-1.957 2.082-2.23 3.09-.23 1.54.042 3.606-.254 4.805.288l.223 3.614c1.05.683 2.21.8 2.144 2.582-4.914.82-4.566-.024-8.348-3.899-1.902-1.949-1.414-1.742-1.914-2.355m101.305 4.93-.434 1.445-6.793-.031c-4.27 0-1.023-.98-4.168-1.188-.753-.05-2.183-.05-2.34-1.347-.156-1.286.755-1.512 2.102-.54 1.953 1.407.926-.308 3.27-.437 1.015-.059 2.308.023 3.36.02 1.07-.446-.208-.301.858-.872.778-.418.782-.132 1.645-.203 2.34-.191.57-.73 2.781-.945 1.301-.133 1.836-.25 2.664-.977.891-.77.45-1.855.524-3.32 1.203-.059 2.332.008 3.511-.023 2.305-.055.825-.453 2.45-.844 3.164-.75 1.672 1.441 3.605.418.52-.281-.422-.477 1.422-.402.54.82.387 1.925.277 2.921-6.101.782-3.714-1.726-7.832 2.454-4.363 4.433-2.832 1.617-4.632 3.152-.797.676-.004.523-2.27.719m-106.785-11.63 2.8.176c.083 1.29.032 2.168-1.35 1.91-.86-.16-1.454-1.046-1.45-2.085m69.125 2.801c-.024 2.434 1.262 1.649 3.746 1.66 0 0 1.77.989 1.82 1.4.074.616-.144.632-.715 1.07-1.05.812-2.566.827-3.882.605-1.391-.242-2.473-2.149-3.297-3.07l-2.547-.028c-.79-1.152.582-1.308-3.61-1.277-5.28.031-4.816-.567-6.015 1.414-.602.988-.309 1.059-.617 1.863l-5.883.055c-5.297-.016 1.441-1.113-7.227-1.082-.629 0-1.355.039-1.968.02-1.254-.032-1.774-.348-3.239-1.032-.062-.027-.136-.058-.191-.09-.883-.504-.2-.562-1.012-.968-1.215-.543-2.367.246-3.637-.496-1.238-.727 1.032-.184-2.168-.813l-1.02-.344-.058-1.11c2.868-1.316 4.668.4 4.676.4 1.184-.204.25-.227 1.203-.61.95-.387 3.485-.207 4.633-.207 4.582 0 1.426 1.695 5.266 1.746 1.168.008 2.386.086 3.172-.36 1.035-.59.898-1.042.964-2.413l1.45-.766c.347-.152-.368-.332.703-.125.402.074 1.16.875 3.203.59 3.254-.45-2.008-.942 6.371-.98.61-.005 1.965-.079 2.488.003 1.668.262-.004.32 1.684.832 1.113-.53.152-.562 1.43-.812l6.44.097c.231 2.004-.116 1.27-.66 2.676-.796 2.082.079.668-1.503 2.153zm11.61-3.972-.052-1.793 1.41-.188c.442 1.395.536 2.422-1.359 1.98m25.066 4.12c-3.43.821-4.555-.48-5.66-.612-4.52-.54-4.016 1.449-6.008.644-2.39-.969.023-2.883 1.144-3.664l.485-.336c.726-.656.992-2.363 1.73-4.062l3.734.004c2.739 0 1.442.265 2.914.777 1.465.508 1.672-.035 2.403 1.543-.45 1.23-.707.586-.746 2.48-.02 1.09.074 2.11.004 3.227m-17.508-8.07.148 1.782c-4.476 1.133-6.133-3.059-.148-1.781m-47.707-1.445c1.613-.086 3.144-.39 3.11 1.309-.036 1.656-2.122 1.238-3.165.914zm-18.035 3.485c-2.633-.043-.907-.563-2.782-.926-1.261.36-.511.308-1.351.707-.68.324-.742.129-1.43.5-.43.445.27 2.683-2.762 2.808-5.082.208-5.828.493-5.945-1.628-.035-.57.031-1.465.05-2.055 1.798-.883.876.16 2.54-1.54l3.34-.026c1.66-2.223.937-2.028 3.328-2.293 1.785-.196 1.89-1.68 3.187-2.614 1.016-.73 6.579-.629 7.641-.093 1.988 1 1.258.359 2.145.804.308 3.18-.692.602-.868 3.313-.105 1.625.68 2.84-.98 3.062-2.465.328-1.773-.664-3.137-1.039-2.133-.59-1.722.637-2.976 1.02m68.832-.926c-2.59.055-1.79-1.168-1.82-3.758-.176-.644-1.274-.535-1.15-2.492.192-2.953 2.88-.262 5.642-1.906l2.445-1.278c1.695.801-1.363-.91.52.41.425.301.206.457 1.972.47 3.711.023 1.469-1.06 3.898-1.204.856-.055.922-.016 1.458.34.933.613-.708.086 1.55.918.239.082.45.183.68.293.07 1.176.145 2.316-.172 3.226-2.176.989-5.355-.52-7.96-.52-2.907 0-2.388.595-3.99 2.2-1.058 1.059-2.132 2.043-3.073 3.3m-5.473-6.293c-.969.324-3.926-.18-5.621-.043-.031.07-.57 3.648-3.106 2.754-1.793-.645-1.734-3.004-.035-3.781.68-.313.551-.098 1.098-.305.934-.36.336-.5 1.324-.817l2.473-.109c2.285.012 4.73-.344 3.867 2.3m45.898 3.93c-4.496-.25.024 1.218-5.578 1.152-1.285-.02-1.14-.156-2.097.351-1.086.579-5.586 1.301-7.168-.296-.567-.57-.051.035-.504-.657-1.031-1.562-1.145-1.34-.84-3.656 3.871-.277 2.352.246 3.398.813 1.996-1.301 1.098-.262 2.36.136 1.906.602 1-.648 2.922.934 1.183-.406-.336.027.773-.54.063-.034.129-.077.195-.105 2.301-.968 1.977 1.157 2.036-4.254 2.847.254-2.032.801 6.449.801 8.625 0 3.148-.902 6.789-.898-.059 1.332-2.57 3.965-3.531 5.027-2.012 2.223-2.73 3.684-5.204 1.192m-74.785-6.555c1.645-.984.602-.875 3.34-.875 3.512.004 1.402.312 3.332.918 2.215-.5-.14-.633 1.942-.899 1.972-.25 6.082-.39 6.718 1.457.516 1.5.157 3.657-.695 4.457-.723.676-.977.407-2.121.5-2.05.172-.758.586-2.508.79-2-.493.313-.73-2.219-.903-4.367-.3 1.961-.902-8.625-.902-1.015 0-2.066-.035-3.074-.027-2.137.02-.648.125-3.55.941l-2.16 2.66c-.028.063-.06.168-.11.242-2.477-.34-.668-2.386-2.567-3.64-.609-.403-1.546-.438-2.25-.844-.84-.48-.82-1.11-.906-2.332-1.062-.75-1.012-.016-1.234-1.395-.403-2.504.582-2.433 3.648-2.312 2.293.09.938.445 2.063 1.086.894.504 6.875.094 8.777.168.984.039.844.011 1.64.535.153.098.13.2.56.375m-30.39-3.457c.425-1.598.422-.168.78-1.485.126-.453.087-1.617.13-2.183 1.2-.55 1.105-1.29 2.418-.809 1.437.52-1.262-.734.543.364.855.52.625.285 2.129.418.054.894.172 3.457.015 4.238-.222 1.113.031.176-.328.863l-.219.363c-.718 1.043-.98.825-2.046.786l-.688-1.282c-.727-.05-1.062.04-1.7-.234-.628-.277-.886-.871-1.034-1.04m109.05-1.914-.004-1.946 2.54-.136c1.136.39.308.015.695.652-.883 1.188-.422.067-1.625.762-1.004.57.43.707-1.606.668m-17.96-2.719c.554-.484 1.343-.465 2.703-.387 1.265.075 1.332.383 2.273.844.156 1.258-.117 1.324-.883 1.945-1.636 1.325-.437 1.188-1.965 1.414-1.16.172-2.214.13-2.425-.878-.18-.856-.067-2.465.297-2.938m10.558-.281 2.973-.113c1.5 1.949 2.027-.266 2.25 2.003-.258.098-6.809 1.688-5.223-1.89m-16.492 2.105c-4.274 0-1.606 1.078-3.805 1.04-1.3-2.497.84-1.833 1.797-2.481.504-.348.059-.293.899-.774 2.285.028 3.875 2.215 1.109 2.215m-53.27-.812c-.203.496.22.75-1.761.75-.957-.004-1.578-.012-2.528-.184-.332-3.644 1.953-1.344 2.832-1.133 1.34.325.696-.539 1.457.567m-48.316-4.871.125 1.43c-3.066.554-3.184-1.864-.125-1.43m4.586-3.715c1.738-.25 3.531-.106 5.285-.106 2.18 0 1.211-.02 2-.668.45-.375-.324-.52 2.414-.476 1.137.012 6.024-.574 5.106 2.773l-.528.797c-.082.086-.187.164-.277.242-.414.356-.133.41-2.649.414-3.824.004.356-1.601-6.03-.988-.79 1.676-.028 3.012-2.852 2.957-.688-1.097-.211-1.383-1.301-2.273-1.152-.946-1.379-.621-1.168-2.672m75.887-.012c1.015-.375 1.566-.137 2.785-.21 3.664-.22-2.238-1.36 8.344-1.153 3.347.062-.602 1.113 4.98 1.07 4.195-.031 4.54-.426 4.344 1.848-.625.328-.79.078-1.621.582-1.395.844.175.664-1.598.844-1.309.129-4.793-.2-4.879.175-.02.102-.11.133-.14.164-.028.032-.098.118-.133.153-.832.789-3.512 1.012-4.54 2.125-.59.64-.445.96-1.394 1.398-1.02.473-.812-.015-1.758.73-.414.333-.914 1.06-1.258 1.259-1.113.636-3.687.332-5.156.207-.324-3.137.258-2.2 1.176-4.204 3.793-.14 1.996.38 3.914 1.122.348-.946.25-2.594.191-3.864-1.203-.597-2.992-.668-3.257-2.246m-53.793.258c2.37-2.332 2.558-1.54 8.195-1.61 2.066-.023 1.434-.16 2.734.57.645.364.207.384 1.418.419l.836-.067c1.551-.308.707-.687 1.961-.742 1.375-.058.524.223 1.43.305 0 0 4.969-1.137 5.965-.164.793.93.277 2.644-.328 3.39-.813 1.008-1.852.79-3.461.762l-.965-1.312c-2.817-.121-1.567.43-3.008.89-1.281.41-3.867-.132-3.922 2.852-.07 3.969 3.563-.68 3.188 3.625-3.125.379-1.856-.602-4.844.75-2.242 1.016-.711.031-1.848 1.402-1.937-.629 1.453-.367-3.613-.89l-.598-1.176c-3.586-.016-.562-.461-5.16-2.39-.058-1.512-.066-1.946 1.578-1.946 2.559 0 1.82 2.285 4.075.508 1.203-.95 1.101-2.063.039-2.907-1.164-.925-1.141-.175-2.371-.746-.848-.394-.79-.867-1.301-1.523m30.62 0c.876-.582 2.106-.344 3.165-.34 2.476.008 1.676-.75 2.48-.957.067-.016 4.196-.348 5.547.453 1.543.91 4.496.387 7.367.45-.273 1.98.078.109-.582 1.316-.28.515-.304.637-.488 1.207-3.324 1.168-1.45 2.008-5.844.832-1.36 1.918-3.699 1.82-.918 3.644l3.625 1.926c1.188.617 1.196.23 2.141.645.191 2.398-2.04 1.847-4.176 1.86-3.281.019-2.726.089-4.449-1.86-1.586-.176-3.871.383-5.043-.532-.14-.109-1.352-1.558-2.887-.453-1.383.993.77.77-4.574.762-.105-1.27.113-2.074 1.926-3.418 1.148-.848 2.832-.406 5.05-.433 2.157-.028 1.891-1.805.942-2.735-2.906-2.84-2.582-1.324-3.281-2.367m-74.35-1.34c1.284-.234 3.331-.2 4.687-.18 1.32.02 1.324-.18 1.676.711 1.207 3.043-2.758 2.895-4.711 2.422-1.188-.285-1.832-1.254-1.653-2.953m-16.821 1.012c1.48-.086 3.754.129 5.047-.067 1.652-.25.34-.652 1.902-.468.754.09.063-.059.832.293.352.164.715.379 1.059.57-.281.672-.485.492-.594 1.387 3.04 3.367 2.215 2.535 6.23 2.562.403.985.192.399 1.028.723.078.031.84-.164 1.277.094.906.539 1.653 1.777.688 2.183-.516.219-1.47 2.305-.336 3.516l.426.363c.453.297.433.219.949.34 2.394.562.527-.375 1.855 1.176 2.508.074 7.219-.883 6.89 2.117-.421.168-2.987-.102-2.984 3.332.004 2.098 0 1.223.73 2.305 1.06 1.558-.105 2.77-.108 2.78-.125.306-1.957.24-2.297.235-4.97-.07-3.414.64-6.47-2.75-3.077-3.418-6.718-8.094-9.558-11.86l-6.105-7.5c-.578-.944-.219-.55-.461-1.331m169.094 9.23c-.137-1.765-.305-2.16.675-3.226 1.997-2.164 1.653-3.125-.949-4.489-3.922 1.48-4.097-.218-6.332 1.075-1.203.699-1.406.465-3.117.449-3.098-.027-4.695.387-6.652-.559-2.051-.984-7.91.227-10.211-.484-.426-.852-.426-.899-.215-2.066.816-.122 1.793.035 2.508-.25 1.445-.579-.532-1.141 4.578-.989 1.707.055 2.012.645 2.203.64 1.441-.66.617-.636 2.77-.616 1.117.011 2.23.011 3.347.011 5.695 0 15.738-.265 20.492.028-.023 1.297-2.996 4.472-3.898 5.652-.82 1.078-1.27 2-2.125 2.855-1.16 1.16-1.004 2.16-3.074 1.97m-90.25-14.746c.41-.719-.72-.746 2.957-.668 4.574.098 22.043-.363 23.738.254-.11 1.649.414.676-1.254 1.516-2.355 1.187-1.855 1.039-6.66.902-2.527-.074-.875-.531-2.477-1.11-1.789.009-4.953-.491-6.308.325-1.305.785-.344.781-2.574.777-1.208-.004-2.426.016-3.63-.035l-.765-1.242c-3.676.297-2.59-.172-3.027-.719m50.027 1.977c-1.531.054-3.184.453-4.156-.977-.61-.887-.524 0-.442-1.586l6.297-.066c-.234 1.176-1.11 1.926-1.699 2.629m-18.004-2.61 9.856.004c.05 1.223-.446 1.891-1.329 2.36-.894.488-2.32.242-3.605.332l-.598 1.258c-.453.023-1.613.093-2.004.05-1.933-.21-.562-.964-1.433-2.457-.367-.62-.074.098-.508-.629-.43-.71-.094-.164-.379-.917zm-45.316-.02 5.734.02c.133 2.278-2.176 3.727-4.43 1.688-1.718-1.555-.953-1.086-1.304-1.707m-11.172.099c.988-.426 5.367-.41 6.324 0-.05.832.227 1.336.992 1.398.516.074.477.543.18 1.3-1.36.098-1.36-.042-1.711-.882-.188-.457-.758-.355-1.523-.125-2.348.008-2.614.07-3.707-.973zm-16.64-.489c-2.177.293-38.54-.113-42.903-.027-.246 1.805.922 2.676 2.758 2.473 1.355-.153 1.082-.442 1.437-1.223.57-1.266-.617-.957 1.871-.996.469.633.383 1.234.739 1.726.304.727 1.085.836 2.62.579 2.32-.391.118-1.778 1.938-2.266 1.102-.293 1.266.625 1.266.625l1.629 1.871c1.023.316 5.406.031 5.562.094 4.274-1.032 1.95 1.343 5.594.441v-2.96c.871.12 1.406.038 2.52 0 .081 1.679.484 2.163 1.667 2.788 3.422 1.82.848 1.356 3.153 1.535.285-.746.238-.265.191-1.343l1.606-.387c.164-.055.914-.367.96-.375 2.68-.774 1.743.656 3.083.71 1.777-.374.257-.12.906-.398 1.64-.703 2.547.157 3.191-1.242l.63-1.363c2.487-.059 1.476.094 2.882 1.531 1.191 1.223 2.746.2 2.34-1.582l-2.738-.168c-.801-.21-.258.04-.817-.39.113-.278-1.965.32-2.086.347m107.609-.535c-.797.594-1.438.52-2.68.469-.637-.023-1.488-.129-2.012-.004.266.71-.3-.05.461.375l.664.27c.188 1.21-.14.792.63 1.581 2.198-.046 1.015.243 1.812-.996.796-1.242.777-.668 1.289-1.16.367.14.562.305.949.637l.492.508c.117.066.266.21.387.293 1.273.867 5.703.633 7.324.523 1.32-.086 1.207-.305 1.789-.476.238-1.032.992-.946 2.11-1.067 1.421.055 1.124.922 1.769 1.688.41.324.371.453.629.457 1.21-.102 1.648-.063 2.851-.074 1.204-.008 2.414 0 3.618 0 2.695 0 3.543-.493 4.18-.536-.134-1.91 1.722-1.535 2.245-1.43 1.051-.05 1.442 1.575 2.184 2.005.078.046 1.5-1.786 1.684-2.133-6.844-.371-16.848.347-30.586-.465-.485-.05-1.559-.434-1.79-.465m0 0" style="fill:#001490;fill-opacity:1;fill-rule:evenodd;stroke:none" transform="translate(-.035)"></path><path d="M57.242 166.219c-1.164.511-1.969 1.273-2.441 2.101-.508.89-.637 1.836-.422 2.59.5 1.762 2.055 1.692 5.207 1.559l.172-.004a24 24 0 0 0 4.101-.54 25.6 25.6 0 0 0 4.02-1.222v-.004c31.023-13.348 64.016-24.277 99.355-31.977 35.325-7.695 73.008-12.156 113.442-12.574 36.054-.37 72.308 2.969 108.8 10.305 36.493 7.336 73.227 18.676 110.247 34.293 1.797.758 3.355 1.008 4.613.684 1.102-.278 2.02-1.051 2.7-2.356.859-1.652.878-2.855.359-3.746-.579-.992-1.832-1.777-3.38-2.43a543.3 543.3 0 0 0-108.78-32.836c-37.305-7.125-75.633-10.457-115.005-10.09-42.097.391-81.535 4.758-118.609 12.625-37.058 7.868-71.75 19.227-104.379 33.622zm443.059 7.73-.051.04v.003c-2.41 1.828-4.066 3.79-4.625 5.864-.527 1.968-.055 4.148 1.723 6.546l.32.125q.743.295 1.394.653c2.172 1.199 3.61 2.941 4.352 4.789.762 1.898.79 3.926.125 5.629a6 6 0 0 1-.363.773c-1.043 1.887-2.922 3.192-5.32 3.668-2.11.422-4.63.184-7.317-.875-36.828-14.558-72.672-25.156-107.742-31.992-35.078-6.836-69.383-9.918-103.125-9.445a531 531 0 0 0-103.492 11.652c-33.27 7.086-65.301 17.211-96.145 29.867-2.328.953-4.8 1.707-7.039 1.508-2.5-.227-4.605-1.535-5.797-4.766-1.066-2.898-.754-5.117.504-6.91a9 9 0 0 1 .328-.43c.59-3.28.219-6.25-1.047-8.84-1.242-2.542-3.355-4.753-6.273-6.57q-.427.03-.844.047l-.172.012c-4.64.191-6.93.29-8.043-3.613-.414-1.453-.21-3.203.692-4.77.75-1.312 1.992-2.508 3.758-3.285 32.8-14.473 67.675-25.894 104.933-33.8 37.235-7.903 76.86-12.282 119.172-12.68 39.574-.368 78.09 2.98 115.559 10.136a545.7 545.7 0 0 1 109.347 33c2.063.867 3.79 2.012 4.727 3.625 1.004 1.723 1.082 3.828-.293 6.47-1.078 2.073-2.613 3.315-4.516 3.8-1.418.36-3.008.27-4.73-.23zm-7.07 10.863c-.75-1.972-.829-3.867-.34-5.683.62-2.316 2.156-4.43 4.37-6.356-36.382-15.25-72.48-26.343-108.335-33.55-36.301-7.297-72.36-10.618-108.227-10.25-40.199.414-77.695 4.863-112.867 12.52-35.152 7.655-67.969 18.53-98.836 31.808l-.039.011a28.4 28.4 0 0 1-4.234 1.32c2.113 1.735 3.726 3.72 4.808 5.934 1.14 2.34 1.684 4.914 1.594 7.692.66-.352 1.375-.672 2.133-.977 33.39-13.254 67.258-23.62 101.66-30.777 34.414-7.164 69.383-11.113 104.984-11.531 36.551-.426 72.895 3.047 108.532 9.847 35.808 6.836 70.91 17.028 104.796 29.992M74.3 189.907c-1.934.766-3.473 1.649-4.281 2.805-.723 1.023-.864 2.394-.165 4.3.739 2 1.961 2.798 3.387 2.927 1.684.152 3.735-.493 5.719-1.305 31.012-12.727 63.207-22.903 96.629-30.028a534.6 534.6 0 0 1 104.047-11.703c33.953-.48 68.445 2.618 103.691 9.489 35.262 6.875 71.274 17.52 108.254 32.136 2.156.852 4.125 1.047 5.73.73 1.56-.308 2.754-1.109 3.383-2.25a4 4 0 0 0 .207-.44c.41-1.044.38-2.32-.113-3.547-.512-1.282-1.531-2.5-3.09-3.36a8 8 0 0 0-1.058-.496c-35.106-13.726-71.54-24.465-108.727-31.562-35.476-6.766-71.637-10.23-107.992-9.805-35.39.418-70.176 4.348-104.426 11.473-34.262 7.128-67.969 17.449-101.195 30.636m0 0" style="fill:#000;fill-opacity:1;fill-rule:evenodd;stroke:none" transform="translate(-.035)"></path><path d="m46.383 82.316 9.75 14.625-2.828 1.887-9.75-14.625zM82.21 152.93c-8.184-16.942-23.895-29.203-43.734-38.899L21.254 78.855c10.129-3.668 20.234-7.64 30.394-11.703l56.61 78.621 2.293-1.652-56.2-78.05 4.665-1.872c3.433-1.375 6.968-2.793 8.75-3.504l1.316-.523-.523-1.317-9.649-24.12-1.308.519-17.41 6.875-1.204.473.367 1.242 3.297 11.093-16.484 6.774-6.762-9.73-.644-.93-1.055.43-16.219 6.656-1.453.597.746 1.38 11.188 20.75.57 1.062 1.133-.39a612 612 0 0 0 4.91-1.72L59.52 163.43l2.535-1.239-7.782-15.89 7.317 14.941a526 526 0 0 1 20.62-8.312M4.016 60.156l9.87 18.309c14.778-5.137 29.344-10.98 44.079-16.89 2.117-.848 4.168-1.673 7.441-2.981l-8.074-20.188-14.894 5.88 3.289 11.073.363 1.22-1.184.483-18.718 7.692-1.051.43-.649-.93-6.758-9.727zm0 0" style="fill:#000;fill-opacity:1;fill-rule:evenodd;stroke:none" transform="translate(-.035)"></path><g clip-path="url(#a)" transform="translate(-.035)"><path d="m518.89 82.129-9.75 14.625 2.833 1.887 9.75-14.625zm-42.581 31.836a605 605 0 0 0-20.95-6.902l-4.242 12.011a260 260 0 0 1 16.977 6.293zm-23.387-7.649a568 568 0 0 0-11.961-3.492 504 504 0 0 0-13.422-3.554l-4.144 12a339 339 0 0 1 16.359 4.28q4.564 1.32 8.941 2.731zm-27.86-7.66a464 464 0 0 0-19.695-4.379l.57 13.282a414 414 0 0 1 14.97 3.128zm-19.808-7q4.29.849 8.578 1.785l2.23-11.695q-5.66-1.16-11.328-2.18zm11.062 2.332a497 497 0 0 1 22.606 5.633l3.898-11.531a463 463 0 0 0-24.27-5.82zm25.063 6.313.258.07a573 573 0 0 1 24.14 7.344l4.676-11.293a476 476 0 0 0-25.176-7.664zm26.82 8.21a655 655 0 0 1 9.656 3.298l7.344-10.2a500 500 0 0 0-12.332-4.379zm-141.656-22.62a697 697 0 0 0-29.945-1.54l.16 12.102c8.71.336 17.43.899 26.148 1.668zm-32.488-1.61a683 683 0 0 0-24.73-.203l.116 12.102a455 455 0 0 1 13.266-.063q5.754.052 11.508.246zm-27.27-.176c-9.433.125-18.844.442-28.223.942l3.715 12.492a431 431 0 0 1 24.625-1.305zm-28.965-1.57c4.47-.238 8.953-.441 13.446-.597l-.73-12.75-3.087.085c-4.469.125-8.941.254-13.465.36zm15.989-.683a701 701 0 0 1 25.02-.34l.081-12.82c-8.613-.008-17.219.19-25.832.425zm27.562-.329 1.402.016c8.442.082 16.891.313 25.34.703V69.38l-.406-.02c-8.05-.336-16.09-.554-23.848-.64-.804-.004-1.605-.016-2.41-.02zm29.293.84c5.543.278 11.082.617 16.621 1.028l3.785-12.739a842 842 0 0 0-20.406-1.164ZM159.941 94.211a769 769 0 0 0-20.218 4.59l3.82 12.015a418 418 0 0 1 15.82-3.144zm-22.691 5.195a615 615 0 0 0-14.309 3.7 553 553 0 0 0-11.144 3.148l3.894 12a259 259 0 0 1 11.47-3.414c4.566-1.25 9.198-2.403 13.894-3.469zm-27.895 7.567a483 483 0 0 0-22.18 7.199l-.835-2.402a462 462 0 0 1 9.996-3.391l-4.73-11.309a553 553 0 0 0-13.043 4.485l-.856-2.399c13.883-4.972 27.84-9.355 41.863-13.11 13.649-3.655 27.356-6.718 41.118-9.151l.824-19.235-19.086 3.555-.383 10.183-.035.942-.906.25-12.891 3.465-.832.222-.52-.691-6.691-8.996-16.031 4.586-.344 10.883-.027.906-.864.27-13.082 4.078-.797.25-.546-.641-8-9.402-15.106 5.644-.887-2.383 15.938-5.953.832-.312.578.68 8.031 9.437 11.418-3.563.344-10.898.031-.938.89-.254 17.766-5.085.844-.243.528.711 6.699 9.004 11.156-3 .387-10.262.039-1.015 1-.188 20.66-3.851.773-17.961a340 340 0 0 0-15.847 3.715l-1.473.382-.273-1.503-4.727-26.301-.254-1.41 1.414-.235 18.758-3.097 1.367-.227.25 1.371 2.008 11.016 10.02-1.297-1.286-12.742-.144-1.403 1.406-.144L200.43 2.48l1.406-.14.14 1.406 1.211 12.094 12.536-1.293-.813-12.293-.094-1.445 1.45-.055 18.828-.75 1.39-.063.075 1.399 1.347 25.797.078 1.441-1.445.043c-4.883.156-9.73.375-14.547.668l4.692 15.781h21.058l.375.602 6.5 10.402 13.14.125 5.286-11.668.336-.746h.824l20.953-.047.957-.004.266.918 3.437 11.88 12.715-.044 4.723-10.187.34-.735h20.933l4.793-16.129a506 506 0 0 0-14.547-.664l-1.441-.046.074-1.438 1.348-25.8.074-1.395 1.395.054 18.824.75 1.453.063-.098 1.437-.808 12.297 12.53 1.29 1.212-12.09.14-1.41 1.41.144L391.7 5.367l1.402.14-.14 1.403-1.29 12.738 10.02 1.301 2.012-11.011.25-1.372 1.363.223 18.758 3.102 1.418.23-.254 1.41-4.73 26.309-.27 1.5-1.476-.387a341 341 0 0 0-15.844-3.719l.758 17.637 21.16 4.36.988.203.027 1.007.301 9.997 10.934 2.976 7.07-9.117.54-.7.835.255 17.578 5.343.844.258.059.883.695 10.652 11.289 3.516 7.61-9.188.574-.687.84.305 15.351 5.605 10.555-14.656-4.664-1.871c-3.434-1.375-6.97-2.793-8.754-3.504l-1.317-.528.528-1.308 9.648-24.125 1.309.52 17.406 6.874 1.203.473-.367 1.242-3.293 11.098 16.484 6.766 6.758-9.723.649-.934 1.05.434 16.22 6.652 1.452.598-.742 1.379-11.188 20.75-.574 1.062-1.133-.39c-1.636-.567-3.273-1.133-4.906-1.72l-40.937 83.614-2.54-1.238 7.782-15.89-7.317 14.94a525 525 0 0 0-20.617-8.312c8.18-16.941 23.895-29.203 43.735-38.898l17.222-35.172c-10.128-3.668-20.234-7.649-30.398-11.707l-56.61 78.625-2.292-1.653 11.84-16.445c-8.532-3.496-17.696-6.664-27.516-9.5-.48-.14-.965-.277-1.445-.414l-6.184 19.223-2.422-.778 6.152-19.132c-9.125-2.508-18.816-4.75-29.097-6.72l.926 21.493-2.825.11-4.09-95.126a385 385 0 0 0-25.078-4.175 435 435 0 0 0-28.77-2.844l-26.894 90.488-2.715-.797 5.563-18.715c-13.176-1.152-26.336-1.824-39.48-1.949l-.993-.008v19.711h-2.55V98.637c-12.032-.02-24.075.425-36.125 1.398l5.687 19.137-2.71.797-26.9-90.496c-9.738.656-19.331 1.593-28.769 2.851a378 378 0 0 0-25.078 4.18l-4.086 95.125-2.824-.113.91-21.239c-10.23 1.856-20.223 4.008-29.844 6.586l6.352 19.907-2.422.765-6.383-20.004c-10.281 2.852-20.156 6.215-29.473 10.246l-1.003-2.332c5.425-2.347 11.03-4.468 16.796-6.398zm-10.59.617a531 531 0 0 1 23.508-6.95l.985-.261-3.758-11.676q-12.767 3.44-25.469 7.57zm26.95-7.871a674 674 0 0 1 22.597-5.555l-2.253-11.836a491 491 0 0 0-24.102 5.719zm25.082-6.117q4.576-1.03 9.258-2.024l.52-12.074a469 469 0 0 0-12.024 2.305zm186.976-45.497h-18.55L314.5 58.297l-.34.73h-.816l-14.485.047-.953.004-.265-.922-3.438-11.875-19.176.043-5.289 11.68-.34.75-.832-.008-14.671-.14-.704-.004-.367-.594-6.492-10.387h-18.89l5.792 19.484c4.68-.101 9.414-.238 14.145-.375 12.152-.343 24.289-.683 36.5-.55 7.832.082 15.894.304 23.926.636 8.144.34 16.234.79 24.011 1.332zM44.906 57.063l-18.718 7.69-1.051.43-.649-.93-6.758-9.726-13.714 5.63 9.87 18.308c14.778-5.137 29.344-10.98 44.079-16.89l7.441-2.981-8.074-20.188-14.894 5.88 3.289 11.073.363 1.22zm166.407-12.81 1.648 16.727-3.375.333-1.649-16.723zm16.351 75.528c-6.371-15.722-13.504-30.133-24.715-39.886-2.32-2.016-6.488-2.493-8.547.75-7.437 11.707-9.93 29.039-13.03 45.261a586 586 0 0 1 46.292-6.125M143.11 14.297l4.207 23.39c13.813-3.523 28.043-6.218 42.649-8.164 14.648-1.953 29.68-3.152 45.043-3.675l-1.2-22.97-15.98.638.805 12.207.09 1.355-1.356.137-15.3 1.582-1.41.14-.141-1.414-1.207-12.09-24 2.454 1.28 12.703.141 1.355-1.367.184-12.715 1.644-1.324.172-.242-1.324-2-10.965zm38.204 33.793 1.652 17.394-3.375.32-1.652-17.402zm223.312 28.87a462 462 0 0 1 40.992 9.255 491 491 0 0 1 41.125 13.254l12.086-16.785-13.832-5.051-7.582 9.152-.547.66-.816-.254-12.938-4.03-.836-.263-.054-.875-.696-10.652-15.894-4.832-7.059 9.106-.523.675-.817-.222-12.656-3.446-.91-.246-.027-.945-.297-9.941-19.555-4.032zM354 44.403l-1.648 16.727 3.375.336 1.648-16.727zm-16.352 75.528c6.372-15.72 13.504-30.133 24.715-39.883 2.324-2.024 6.489-2.492 8.551.75 7.438 11.707 9.926 29.039 13.031 45.262a584 584 0 0 0-46.297-6.13m84.555-105.485-4.207 23.395c-13.812-3.528-28.043-6.223-42.644-8.168-14.653-1.953-29.684-3.149-45.047-3.676l1.199-22.969 15.98.637-.804 12.207-.09 1.356 1.36.14 15.296 1.574 1.41.149.14-1.418 1.212-12.082 23.996 2.445-1.281 12.7-.137 1.363 1.367.175 12.711 1.653 1.324.172.242-1.325 2-10.968zM384 48.235l-1.648 17.398 3.375.32 1.648-17.398zm177.258 11.734-9.871 18.304c-14.774-5.132-29.344-10.976-44.074-16.886-2.122-.848-4.168-1.672-7.446-2.98l8.078-20.188 14.89 5.879-3.284 11.074-.364 1.219 1.18.488 18.719 7.684 1.055.433.644-.93 6.762-9.726zm0 0" style="fill:#000;fill-opacity:1;fill-rule:evenodd;stroke:none"></path></g><path d="m539.086 64.563-18.719-7.684-1.18-.488.364-1.22 3.285-11.073-14.89-5.88-8.079 20.188 7.446 2.98c14.73 5.91 29.3 11.755 44.074 16.887l9.87-18.304-13.71-5.63-6.762 9.727-.644.93zM44.906 57.063l-18.718 7.69-1.051.43-.649-.93-6.758-9.726-13.714 5.63 9.87 18.308c14.778-5.137 29.344-10.98 44.079-16.89l7.441-2.981-8.074-20.188-14.894 5.88 3.289 11.073.363 1.22zM402.664 23.926l-12.71-1.653-1.368-.175.137-1.364 1.28-12.699-23.995-2.445-1.211 12.082-.14 1.418-1.41-.149-15.298-1.574-1.36-.14.09-1.356.805-12.207-15.98-.637-1.2 22.97c15.364.526 30.395 1.722 45.048 3.675 14.601 1.945 28.832 4.64 42.644 8.168l4.207-23.395-15.972-2.64-2 10.968-.243 1.325zM53.305 98.828l-9.75-14.625 2.828-1.887 9.75 14.625zm53.816 45.363L51.648 67.152c-10.16 4.063-20.265 8.035-30.394 11.703l17.223 35.176c19.84 9.696 35.55 21.957 43.734 38.899a544 544 0 0 1 24.91-8.739M88.477 86.922l-8-9.402-14.09 5.265 11.691 16.238c13.762-4.918 27.594-9.253 41.492-12.976 13.649-3.656 27.356-6.719 41.118-9.152l.824-19.235-19.086 3.555-.383 10.183-.035.942-.906.25-12.891 3.465-.832.222-.52-.691-6.691-8.996-16.031 4.586-.344 10.883-.027.906-.864.27-13.082 4.078-.797.25zM96.336 108.379l-4.73-11.309a542 542 0 0 0-11.977 4.106l7.441 10.336a469 469 0 0 1 9.266-3.133M119.5 88.703q-12.767 3.44-25.469 7.57l4.735 11.317a531 531 0 0 1 23.507-6.95l.985-.261zM146.059 82.328a491 491 0 0 0-24.102 5.719l3.758 11.672a674 674 0 0 1 22.598-5.555zM160.574 79.504a469 469 0 0 0-12.023 2.305l2.246 11.793c3.05-.688 6.137-1.36 9.258-2.024zM109.355 106.973a488 488 0 0 0-20.734 6.691l8.332 11.574c5.277-2.265 10.727-4.316 16.32-6.191zM137.25 99.406a615 615 0 0 0-14.309 3.7 553 553 0 0 0-11.144 3.148l3.894 12a259 259 0 0 1 11.47-3.414c4.566-1.25 9.198-2.403 13.894-3.469zM159.941 94.21a769 769 0 0 0-20.218 4.59l3.82 12.016a418 418 0 0 1 15.82-3.144zM126.953 117.531c-9.914 2.75-19.453 5.977-28.476 9.82l11.472 15.938a536 536 0 0 1 23.07-6.742zM159.25 110.277c-10.23 1.856-20.223 4.008-29.844 6.586l6.07 19.032a539 539 0 0 1 22.91-5.497zM175.363 22.129l-12.715 1.644-1.324.172-.242-1.324-2-10.965-15.973 2.64 4.207 23.392c13.813-3.524 28.043-6.22 42.649-8.165 14.648-1.953 29.68-3.152 45.043-3.675l-1.2-22.97-15.98.638.805 12.207.09 1.355-1.356.137-15.3 1.582-1.41.14-.141-1.414-1.207-12.09-24 2.454 1.28 12.703.141 1.355zM179.59 65.805l-1.652-17.403 3.375-.312 1.652 17.394zm39.508-36.332c-9.739.656-19.332 1.593-28.77 2.851a378 378 0 0 0-25.078 4.18l-4.008 93.281a564 564 0 0 1 20.13-3.879c3.1-16.222 5.593-33.554 13.03-45.261 2.059-3.243 6.227-2.766 8.547-.75 11.211 9.753 18.344 24.164 24.715 39.886a607 607 0 0 1 17.863-1.386zm-9.512 31.84-1.648-16.723 3.375-.336 1.648 16.726zM252.824 58.012l-6.492-10.39h-18.89l5.792 19.483c4.68-.101 9.414-.238 14.145-.37 12.152-.344 24.289-.688 36.5-.555 7.832.086 15.894.304 23.926.64 8.144.336 16.234.79 24.011 1.328l5.957-20.043h-18.55L314.5 58.297l-.34.73h-.816l-14.485.047-.953.004-.265-.922-3.438-11.875-19.176.043-5.289 11.68-.34.75-.832-.008-14.671-.14-.704-.004-.367-.594zM247.45 69.273c-4.47.125-8.942.254-13.466.36l3.836 12.902c4.47-.238 8.953-.441 13.446-.597l-.73-12.75zM278.91 68.691c-8.613-.007-17.219.192-25.832.426l.73 12.735a701 701 0 0 1 25.02-.34zM307.707 69.36c-8.05-.337-16.09-.555-23.848-.641l-2.41-.02-.078 12.824 1.402.016c8.442.082 16.891.313 25.34.703V69.38ZM331.07 70.652a842 842 0 0 0-20.406-1.164v12.875c5.543.278 11.082.617 16.621 1.028zM266.785 84.105c-9.433.125-18.844.442-28.223.942l3.715 12.492a431 431 0 0 1 24.625-1.305zM294.055 84.281a683 683 0 0 0-24.73-.203l.116 12.102a455 455 0 0 1 13.266-.063q5.754.052 11.508.246zM326.543 85.89a697 697 0 0 0-29.945-1.538l.16 12.101c8.71.336 17.43.899 26.148 1.668zM279.145 98.637a438 438 0 0 0-36.125 1.398l5.402 18.184c10.082-.59 20.32-.946 30.723-1.059zM322.168 100.605c-13.176-1.152-26.336-1.824-39.48-1.949l-.993-.008v18.489a616 616 0 0 1 35.336.761zM374.984 32.473a435 435 0 0 0-28.77-2.844l-26.28 88.422q9.017.497 17.964 1.27c6.309-15.481 13.399-29.65 24.465-39.274 2.325-2.024 6.489-2.492 8.551.75 7.297 11.48 9.828 28.379 12.852 44.332a559 559 0 0 1 20.261 3.797l-3.964-92.278a385 385 0 0 0-25.079-4.175M354 44.403l3.375.335-1.648 16.727-3.375-.336zm28.352 21.23L384 48.234l3.375.32-1.648 17.4zM423.344 61.52l-19.555-4.032.836 19.473a462 462 0 0 1 40.992 9.254 491 491 0 0 1 41.125 13.254l12.086-16.785-13.832-5.051-7.582 9.152-.547.66-.816-.254-12.938-4.03-.836-.263-.054-.875-.696-10.652-15.894-4.832-7.059 9.106-.523.675-.817-.222-12.656-3.446-.91-.246-.027-.945zM416.063 81.746q-5.662-1.16-11.329-2.18l.52 12.09q4.29.849 8.578 1.785zM442.82 88.09a463 463 0 0 0-24.27-5.82l-2.234 11.718a497 497 0 0 1 22.606 5.633zM470.453 96.422a476 476 0 0 0-25.176-7.664L441.38 100.3l.258.07a573 573 0 0 1 24.14 7.344zM485.2 101.61a500 500 0 0 0-12.333-4.38l-4.668 11.282a655 655 0 0 1 9.656 3.297zM425.063 98.656a464 464 0 0 0-19.696-4.379l.57 13.282a414 414 0 0 1 14.97 3.128zM440.96 102.824a504 504 0 0 0-13.42-3.554l-4.145 12a339 339 0 0 1 16.359 4.28q4.564 1.32 8.941 2.731l4.227-11.965a568 568 0 0 0-11.961-3.492M476.309 113.965a605 605 0 0 0-20.95-6.903l-4.242 12.012a260 260 0 0 1 16.977 6.293zM435.148 116.89c-9.125-2.507-18.816-4.75-29.097-6.718l.832 19.351a550 550 0 0 1 22.504 5.278zM439.047 117.992l-1.445-.414-5.747 17.86a554 554 0 0 1 24.032 6.882l10.676-14.828c-8.532-3.496-17.696-6.664-27.516-9.5M513.625 66.965l-54.902 76.25a553 553 0 0 1 24.828 8.543c8.308-16.434 23.793-28.41 43.25-37.914l17.222-35.172c-10.128-3.668-20.234-7.649-30.398-11.707m-4.484 29.789 9.75-14.625 2.832 1.887-9.75 14.625zM395.234 130.063c-37.304-7.125-75.632-10.458-115.004-10.09-42.097.39-81.535 4.757-118.609 12.625-37.058 7.867-71.75 19.226-104.379 33.62-1.164.512-1.969 1.274-2.441 2.102-.508.89-.637 1.836-.422 2.59.5 1.762 2.055 1.692 5.207 1.559l.172-.004a24 24 0 0 0 4.101-.54 25 25 0 0 0 4.02-1.226c31.023-13.348 64.016-24.277 99.355-31.976 35.325-7.696 73.008-12.157 113.442-12.575 36.054-.367 72.308 2.97 108.8 10.305 36.493 7.336 73.227 18.676 110.247 34.293 1.797.758 3.355 1.008 4.613.688 1.102-.282 2.02-1.055 2.7-2.36.859-1.652.878-2.855.359-3.746-.579-.992-1.832-1.777-3.38-2.43a543.3 543.3 0 0 0-108.78-32.836m0 0" style="fill:#8b8b8b;fill-opacity:1;fill-rule:evenodd;stroke:none" transform="translate(-.035)"></path><path d="M388.926 139.223c-36.301-7.297-72.36-10.618-108.227-10.25-40.199.414-77.695 4.863-112.867 12.52-35.152 7.655-67.969 18.53-98.836 31.808l-.039.011a28.4 28.4 0 0 1-4.234 1.32c2.113 1.735 3.726 3.72 4.808 5.934 1.14 2.34 1.684 4.914 1.594 7.692.66-.352 1.375-.672 2.133-.977 33.39-13.254 67.258-23.62 101.66-30.777 34.414-7.164 69.383-11.113 104.984-11.531 36.551-.426 72.895 3.047 108.532 9.847 35.808 6.836 70.91 17.028 104.796 29.992-.75-1.972-.828-3.867-.34-5.683.622-2.317 2.157-4.43 4.372-6.356-36.383-15.25-72.48-26.343-108.336-33.55m0 0" style="fill:#8b8b8b;fill-opacity:1;fill-rule:evenodd;stroke:none" transform="translate(-.035)"></path><path d="M387.914 157.602c-35.476-6.766-71.637-10.23-107.992-9.805-35.39.418-70.176 4.348-104.426 11.473-34.262 7.128-67.969 17.449-101.195 30.636-1.934.766-3.473 1.649-4.281 2.805-.723 1.023-.864 2.394-.165 4.3.739 2 1.961 2.798 3.387 2.927 1.684.152 3.735-.493 5.719-1.305 31.012-12.727 63.207-22.903 96.629-30.028a534.6 534.6 0 0 1 104.047-11.703c33.953-.48 68.445 2.618 103.691 9.489 35.262 6.875 71.274 17.52 108.254 32.136 2.156.852 4.125 1.047 5.73.73 1.56-.308 2.754-1.109 3.383-2.25a4 4 0 0 0 .207-.44c.41-1.044.38-2.32-.113-3.547-.512-1.282-1.531-2.5-3.09-3.36a8 8 0 0 0-1.058-.496c-35.106-13.726-71.54-24.465-108.727-31.562m0 0" style="fill:#8b8b8b;fill-opacity:1;fill-rule:evenodd;stroke:none" transform="translate(-.035)"></path><path d="M407.082 278.938c-3.289 4.84-8.113 8.59-10.504 9.972-3.129 1.817-9.715 2.817-16.96.992-2.938-.738-4.919-1.492-6.427-2.683-1.71-1.352-1.433-2.91-.027-7.367l12.355-39.114c2.543-8.062 4.07-7.984 11.778-6.183l.703-2.23-31.637-9.985-.738 2.676c6.984 2.73 7.46 4.062 5.035 12.16L359.47 274.52c-2.434 8.125-4.184 8.074-11.043 6.613l-.778 2.457 52.059 15.851c1.441-2.433 8.555-15.937 10.504-19.882zM261.316 224.844c-.03-2.832.184-4.664 1.032-5.59.62-.688 1.054-1.531 4.789-1.652 7.086-.223 17.906 5.843 18.504 28.808.554 21.203-8.52 27.738-17.664 28.035-7.243.239-6.13-3.242-6.211-10.379zm-23.765-10.29v2.755c6.832.668 8.265.218 8.398 8.668l.598 38.351c.133 8.52.012 10.399-7.656 11.137l-.153 2.805 31.14-.864c19.044-.527 32.645-13.64 32.345-31.996-.348-21.293-15.215-31.84-34.504-31.457zM160.32 274.004l-17.57 5.8 1.133-23.09.832-.277zm34.48 11.715-1.093-2.29c-4.148 1.223-6.578-1.195-12.766-8.163l-36.43-41.028-3.347 1.266-2.473 54.16c-.414 9.117-.39 12.152-5.34 14.723l.895 2.218 18.453-6.199-.945-2.515c-6.258 1.894-8.863 1.586-8.887-3.168l-.047-10.54 20.02-6.937 7.293 8.36c2.918 3.343.035 4.804-5.051 7.64l.605 2.594zM219.992 273.86a4.8 4.8 0 0 0-4.8 4.796 4.803 4.803 0 0 0 4.8 4.805 4.801 4.801 0 0 0 0-9.602M329.043 272.809a4.799 4.799 0 1 0-.004 9.598 4.799 4.799 0 0 0 .004-9.598M429.691 304.836a4.8 4.8 0 1 0 0 9.598 4.8 4.8 0 1 0 0-9.598m0 0" style="fill:#000;fill-opacity:1;fill-rule:evenodd;stroke:none" transform="translate(-.035)"></path><path d="M94.348 230.242c31.894-12.265 64.261-21.656 97.14-27.804 32.266-6.032 65.04-9.028 98.317-8.817 31.882.207 63.254 3.383 94.078 9.512 30.867 6.14 61.222 15.246 91.039 27.312l2.316.938-.027 2.504c-.461 40.812-5.441 78.71-14.328 114.125-8.902 35.468-21.711 68.46-37.824 99.418-16.825 32.324-36.77 62.343-59.723 90.05-23.094 27.868-49.238 53.391-78.32 76.551l-2.325 1.852-2.296-1.895c-31.68-26.11-61.653-54.683-88.258-88.316-26.64-33.688-49.867-72.399-67.992-118.727C100.09 340.348 93.777 279.82 92.328 251.13c-.281-5.524-.379-9.95-.406-12.996l-.137-7.02zm98.492-20.578c-33.188 6.2-62.098 14.313-93.594 26.43l.02 1.98c.023 2.871.12 7.14.402 12.707 1.43 28.246 7.648 87.848 33.328 153.489 17.856 45.636 40.707 83.734 66.899 116.847 25.582 32.348 54.39 59.992 84.867 85.297 27.738-22.332 52.742-46.883 74.902-73.629 22.617-27.297 42.273-56.887 58.86-88.754 15.859-30.472 28.468-62.933 37.218-97.8 8.582-34.196 13.465-70.696 14.094-109.891-28.637-11.43-57.766-20.086-87.363-25.98-30.457-6.06-61.368-9.196-92.696-9.395-32.78-.211-65.093 2.75-96.937 8.7m0 0" style="fill:#000;fill-opacity:1;fill-rule:evenodd;stroke:none" transform="translate(-.035)"></path><path d="M69.871 214.676c35.48-14.703 71.152-25.88 107.024-33.446 35.851-7.558 71.921-11.5 108.218-11.734 37.114-.242 73.407 3.84 109.032 11.594 35.64 7.765 70.628 19.207 105.128 33.68l2.266.953-.023 2.472c-.446 48.457-6.407 94.504-16.653 136.407-10.82 44.261-26.414 83.914-45.32 116.925-18.016 31.446-38.805 61.817-63.781 90.868-24.969 29.039-54.114 56.734-88.856 82.835l-2.195 1.649-2.207-1.649c-34.742-25.992-67.434-55.523-96.625-90.378-29.219-34.88-54.941-75.098-75.73-122.45-14.481-32.98-25.618-67.23-32.883-102.914-7.266-35.687-10.66-72.797-9.653-111.504l.063-2.394zm108.524-26.246c-34.657 7.304-69.149 18.043-103.497 32.132-.793 37.278 2.555 73.04 9.563 107.458 7.16 35.152 18.14 68.91 32.426 101.445 20.476 46.64 45.832 86.277 74.633 120.668 28.21 33.676 59.714 62.312 93.18 87.562 33.3-25.257 61.359-52.03 85.476-80.078 24.633-28.648 45.164-58.652 62.976-89.746 18.594-32.465 33.926-71.46 44.57-114.992 9.95-40.684 15.81-85.316 16.426-132.262-33.37-13.863-67.18-24.84-101.558-32.328-35.18-7.66-70.945-11.687-107.45-11.45-35.753.231-71.331 4.126-106.745 11.59m0 0" style="fill:#000;fill-opacity:1;fill-rule:evenodd;stroke:none" transform="translate(-.035)"></path><path d="M178.395 188.43c-34.657 7.304-69.149 18.043-103.497 32.132-.793 37.278 2.555 73.04 9.563 107.458 7.16 35.152 18.14 68.91 32.426 101.445 20.476 46.64 45.832 86.277 74.633 120.668 28.21 33.676 59.714 62.312 93.18 87.562 33.3-25.257 61.359-52.03 85.476-80.078 24.633-28.648 45.164-58.652 62.976-89.746 18.594-32.465 33.926-71.46 44.57-114.992 9.95-40.684 15.81-85.316 16.426-132.262-33.37-13.863-67.18-24.84-101.558-32.328-35.18-7.66-70.945-11.687-107.45-11.45-35.753.231-71.331 4.126-106.745 11.59m13.093 14.007c32.266-6.03 65.04-9.027 98.317-8.816 31.882.207 63.254 3.383 94.078 9.512 30.867 6.14 61.222 15.246 91.039 27.312l2.316.938-.027 2.504c-.461 40.812-5.441 78.71-14.328 114.125-8.902 35.468-21.711 68.46-37.824 99.418-16.825 32.324-36.77 62.343-59.723 90.05-23.094 27.868-49.238 53.391-78.32 76.551l-2.325 1.852-2.296-1.895c-31.68-26.11-61.653-54.683-88.258-88.316-26.64-33.688-49.867-72.399-67.992-118.727C100.09 340.348 93.777 279.82 92.328 251.13c-.281-5.524-.379-9.95-.406-12.996l-.137-7.02 2.563-.87c31.894-12.266 64.261-21.657 97.14-27.805m0 0" style="fill:#99007e;fill-opacity:1;fill-rule:evenodd;stroke:none" transform="translate(-.035)"></path><path d="M331.21 508.555c-.272 1.86.395 2.566 1.173 2.66.898-.086 2.035-1.313 2.367-2.649M225.348 527.574c-.61 0-1.106.364-1.106.809 0 .453.496.812 1.106.812.613 0 1.109-.36 1.109-.812 0-.446-.496-.809-1.11-.809M255.086 538.336c-.945 0-1.711.437-1.711.98s.766.985 1.71.985c.946 0 1.712-.442 1.712-.985s-.766-.98-1.711-.98M277.773 591.418c-.109-.535-.687-.871-1.289-.75-.601.125-1 .664-.89 1.2.11.534.687.87 1.289.745.601-.12 1-.652.89-1.195M281.055 595.016c-.54-.004-.977.386-.985.879-.004.492.426.898.961.906.54.004.98-.39.985-.883.008-.488-.426-.895-.961-.902M298.016 540.742c-.032-.77-.461-1.375-.954-1.355-.496.023-.87.664-.84 1.433.032.77.462 1.375.958 1.356.492-.02.87-.66.836-1.434M454.059 623.223c-.832 0-1.5.433-1.5.972 0 .535.668.973 1.5.973.828 0 1.5-.438 1.5-.973 0-.539-.672-.972-1.5-.972m0 0" style="fill:#001490;fill-opacity:1;fill-rule:evenodd;stroke:none" transform="translate(-.035)"></path><path d="M248.336 540.867c-2.465.328-1.774-.664-3.137-1.039-2.133-.59-1.722.637-2.976 1.02-2.633-.043-.907-.563-2.782-.926-1.261.36-.511.308-1.351.707-.68.324-.742.129-1.43.5-.43.445.27 2.684-2.762 2.809-5.082.207-5.828.492-5.945-1.63-.035-.57.031-1.464.05-2.054 1.798-.883.876.16 2.54-1.54l3.34-.026c1.66-2.223.937-2.028 3.328-2.293 1.785-.196 1.89-1.68 3.187-2.614 1.016-.73 6.579-.629 7.641-.093 1.988 1 1.258.359 2.145.804.308 3.18-.692.602-.868 3.313-.105 1.625.68 2.84-.98 3.062m1.277-17.804c-.46-.364 1.219.44.02.008-.008-.004-.012-.008-.02-.008m2.16 6.253c-.718 1.043-.98.825-2.046.786l-.688-1.282c-.726-.05-1.062.04-1.7-.234-.628-.277-.886-.871-1.034-1.04.425-1.597.422-.167.78-1.484.126-.453.087-1.617.13-2.183 1.195-.543 1.105-1.281 2.398-.817.09.07.266.192.563.372.855.52.625.285 2.129.418.054.894.172 3.457.015 4.238-.222 1.113.031.176-.328.863zm4.395-18.312c-.188-.457-.758-.356-1.523-.125-2.348.008-2.614.07-3.708-.973l-.554-.719c.18-.078.469-.14.832-.183l-11.813-.012c.34 1.73-1.187 2.7-2.359 1.5-.988-1.008-.781-1.387-1.438-1.5h-1.46l-.614 1.332c-.644 1.399-1.55.54-3.191 1.242-.649.278.87.02-.906.399-1.34-.055-.403-1.485-3.082-.719-.047.016-.797.328-.961.383l-1.606.387c.047 1.074.094.597-.191 1.34-2.305-.176.27.285-3.153-1.532-1.183-.625-1.554-1.234-1.636-2.914-1.114.04-1.664-.012-2.551.027v3.055c-3.645.906-1.32-1.469-5.594-.437-.156-.063-4.539.218-5.562-.094l-1.63-1.871s-.077-.442-.488-.613h-.816c-1.746.496.406 1.867-1.898 2.253-1.536.258-2.317.141-2.621-.578-.344-.48-.274-1.062-.704-1.68h-1.699c-.066.094.067.34-.207.95-.355.781-.082 1.07-1.437 1.223-.551.058-1.043.027-1.453-.106a458 458 0 0 0 7.75 10.078 454 454 0 0 0 8.542 10.492q-.002-.004-.004-.008a256 256 0 0 1-5.863-7.515l-6.105-7.496c-.574-.946-.219-.555-.461-1.332 1.48-.094 3.758.125 5.047-.067 1.652-.25.34-.652 1.902-.469.754.09.066-.058.832.293.352.165.715.38 1.059.57-.282.673-.485.493-.594 1.387 3.039 3.364 2.219 2.536 6.23 2.563.403.984.192.398 1.028.723.078.03.843-.168 1.281.093.902.54 1.648 1.778.684 2.184-.512.219-1.465 2.305-.336 3.512l.425.367c.454.297.434.219.95.34 2.394.562.53-.375 1.855 1.175 2.508.075 7.219-.882 6.89 2.118-.417.168-2.984-.102-2.98 3.332 0 2.097-.004 1.222.727 2.3 1.058 1.563-.106 2.774-.11 2.786-.125.304-1.957.238-2.296.234-4.97-.07-3.414.64-6.47-2.75q-.123-.14-.253-.285a502 502 0 0 0 7.898 8.992 2.6 2.6 0 0 1-.101-.727l2.8.176c.083 1.285.032 2.168-1.347 1.91a2 2 0 0 1-.16-.039q2.092 2.31 4.207 4.59c.676-1.902 2.07-2.144 3.07-.168 1.54.043 3.606-.254 4.805.285l.222 3.618c1.051.683 2.211.8 2.145 2.582-2.234.37-3.379.402-4.32-.043a546 546 0 0 0 6.632 6.8c1.415-.703 8.813-.3 9.426-.18l.016 1.63c-2.293 1.812-.54.082-1.473 2.046-.887 1.872-.695 1.2-.566 3.684a1.3 1.3 0 0 1-.2-.055c.462.453.926.907 1.391 1.348a5 5 0 0 0-.09-.234c3.786-.063 7.274-.72 7.141 2.105-1.336.094-3.164.137-4.5.078a7 7 0 0 1-.57-.043 618 618 0 0 0 11.37 10.613c2.43-.046 1.49 1.688 3.278 2.207 1.047.305 2.938 0 4.031.067l1.5.43c.09 1.418-.035 1.214-1.609 2.68-.562.527-.309.421-.586.562q1.049.926 2.11 1.86c.187.034.085.054.156.144q.033.018.066.05.059.042.18.106c.054.027.12.07.176.102.464.226.015.039.578.257 1.441.578.562-.183 1.55 1.164 2.243.168 5.567-.671 6.727 1.09.61.922.762 1.942.168 3.028-.383.703-.648-.036-.527 1.437q.024.333.054.52c1.371 1.168 2.746 2.324 4.121 3.48.38-.008.766-.016 1.102-.129 1.316-.45.148-.308 1.121-.832.926-.5 5.453-.61 6.285-1.5 1.332-1.426.004-1.707 2.574-1.691-.015.09-.035.18-.05.258a537 537 0 0 0 11.797-10.149 2.5 2.5 0 0 1-.532.067c-.515-1.051-.504-1.461-1.41-2.188-1.473-1.172-2.742-2.687-3.594-2.934-1.03 1.446-1.168 1.051-3.336 1.024-1.582-.016-3.171.031-4.746.02-3.558-.028-1.609-1.5-4.101-4.321l-.54-.785 1.59-1.668c1.258-1.242.762-.395 1.973-1.11.223-3.414-.09-2.44-1.726-4.124-1.336-1.383.136-.305-1.72-1.094-.523-.223-1.41-.957-1.644-1.399-.289-.547-.421-1.84.036-2.312.5-.508 1.98-.3 2.82-.305 1.863-.004 2.16-.355 3.992 2.281-.094 1.317-1.355 2.727.25 3.774 1.313.855 2.66.18 3.531 1.789-.398 1.277-1.066 1.434-2.172 1.93-.05 1.171-.18 2.796.157 3.683.066.04.183-.012.226.078.223.485.172-.183 1.383.325.563.226.574.488.875 1.015l6.488.043c.051-.098.106-.289.13-.242.019.047.097-.156.124-.2.442-.628.461-.8 1.43-.89 3.684-.324.844-1.21 9.187-.766-.019.204-.128.45-.312.727a530 530 0 0 0 9.48-8.988c-.683.55-1.199.883-1.414.844-.191-.036-2.046-1.75-2.062-2.29-.028-.988 3.18-2.953 4.851-3.074 1.489-.105 1.946-.21 1.633-2.18-.312-1.956-1.285-.16-1.078-3.101 2.93-.48 2.79.234 3.547 2 .059 2.035 2.02-1.332 2.383-.008a504 504 0 0 0 8.847-9.2c-.167.044-.37.071-.605.094-.14-.273-.305.262-.27-.918.016-.492.122-.519.254-.867l1.508-.11c0 .372-.012.669-.05.907a508 508 0 0 0 16.515-18.582c-1.781 2.016-2.55 3.195-4.89.84-4.493-.25.023 1.215-5.579 1.152-1.285-.02-1.14-.156-2.093.352-1.086.578-5.586 1.3-7.172-.297-.567-.57-.047.035-.504-.656-1.032-1.563-1.14-1.34-.84-3.656 3.871-.278 2.355.246 3.398.812 1.996-1.3 1.098-.262 2.36.137 1.906.601 1.004-.649 2.922.933 1.183-.406-.336.028.773-.539.063-.035.129-.078.195-.105 2.301-.969 1.98 1.156 2.04-4.254 2.843.254-2.036.8 6.445.8 8.625 0 3.152-.902 6.789-.898-.02.442-.309 1.031-.723 1.656a507.77 507.77 0 0 0 7.012-8.652c-.32.145-.754.203-1.406.145-.137-1.766-.305-2.16.675-3.227 1.996-2.164 1.653-3.129-.949-4.488-3.922 1.48-4.094-.223-6.332 1.074-1.203.7-1.406.465-3.117.45-3.098-.028-4.695.386-6.652-.56-2.051-.984-7.907.227-10.211-.484-.422-.851-.426-.898-.215-2.07.816-.117 1.793.04 2.508-.246 1.445-.578-.532-1.14 4.578-.988 1.71.054 2.011.644 2.203.64 1.441-.664.621-.636 2.77-.617 1.117.012 2.23.012 3.347.012 5.695 0 15.738-.266 20.492.027-.004.16-.05.344-.129.55a514 514 0 0 0 4.086-5.503h-5.172c.254.012.5.027.746.035-.183.348-1.601 2.18-1.683 2.133-.742-.43-1.133-2.055-2.184-2.004-.523-.105-2.375-.48-2.246 1.43-.637.043-1.484.535-4.18.535-1.203 0-2.41-.008-3.617 0-1.203.012-1.64-.027-2.847.074-.262-.004-.22-.133-.633-.457-.645-.766-.348-1.633-1.77-1.687-1.117.125-1.87.035-2.109 1.066-.578.172-.469.39-1.79.477-1.62.109-6.05.343-7.323-.524-.121-.082-.27-.226-.387-.293-.098-.098-.5-.516-.488-.508-.137-.117-.25-.207-.352-.289h-1.219c-.144.09-.336.293-.672.813-.796 1.242.387.949-1.812.996-.766-.79-.441-.371-.629-1.582l-.566-.235H334.6c-.453 1.141-1.425 2.102-2.218 2.18-.707-.086-1.324-.68-1.223-2.18l-34.394-.015h.004c2.457.035 4.28.125 4.773.304-.11 1.653.418.676-1.254 1.516-2.355 1.188-1.855 1.043-6.66.902-2.527-.074-.875-.53-2.477-1.109-1.789.012-4.953-.492-6.308.324-1.305.785-.344.785-2.574.778-1.207-.004-2.422.015-3.63-.036l-.765-1.238c-3.676.293-2.59-.168-3.027-.722.41-.715-.72-.747 2.957-.668 1.996.043 6.453-.024 10.976-.055l-32.906-.016c.367.047.656.11.832.184-.05.832.227 1.336.992 1.398.516.074.477.543.18 1.301-1.36.098-1.36-.043-1.707-.883zm-7.813 34.957-1.02-.344-.058-1.11c2.868-1.316 4.668.4 4.676.4 1.184-.204.25-.227 1.203-.61.95-.387 3.485-.207 4.633-.207 4.582 0 1.426 1.695 5.266 1.746 1.168.008 2.386.086 3.172-.36 1.035-.59.898-1.042.964-2.413l1.45-.766c.347-.152-.368-.332.703-.125.402.074 1.16.875 3.203.59 3.254-.45-2.008-.942 6.371-.98.61-.005 1.965-.079 2.488.003 1.668.262-.004.32 1.684.832 1.113-.531.152-.562 1.43-.812l6.44.097c.231 2.004-.116 1.27-.66 2.676-.796 2.082.079.668-1.503 2.153-.024 2.433 1.262 1.648 3.746 1.66 0 0 1.77.988 1.82 1.398.074.617-.144.633-.715 1.07-1.05.813-2.566.829-3.882.606-1.391-.242-2.473-2.149-3.297-3.07l-2.547-.028c-.79-1.152.582-1.308-3.61-1.277-5.28.031-4.816-.566-6.015 1.414-.602.988-.309 1.059-.617 1.863l-5.883.055c-5.297-.016 1.441-1.113-7.227-1.082-.629 0-1.355.039-1.968.02-1.254-.032-1.774-.348-3.239-1.032l-.191-.09c-.883-.504-.2-.562-1.012-.964-1.215-.547-2.367.242-3.637-.5-1.238-.727 1.032-.184-2.168-.813zm8.442-6.645c0 .543-.766.985-1.711.985s-1.711-.442-1.711-.985.766-.98 1.71-.98c.946 0 1.712.437 1.712.98m7.601-3.593c-.609-.403-1.546-.438-2.25-.844-.84-.48-.82-1.11-.906-2.332-1.062-.75-1.012-.016-1.234-1.395-.403-2.504.582-2.433 3.648-2.312 2.293.09.938.445 2.063 1.086.894.504 6.875.093 8.777.168.984.039.844.011 1.64.535.153.098.13.2.56.375 1.644-.984.6-.875 3.34-.875 3.51.004 1.401.312 3.331.918 2.215-.5-.14-.633 1.942-.899 1.972-.25 6.082-.39 6.718 1.457.516 1.5.157 3.657-.695 4.458-.723.675-.977.406-2.121.5-2.05.171-.758.585-2.508.789-2-.493.313-.73-2.219-.903-4.367-.3 1.961-.902-8.625-.902-1.015 0-2.066-.035-3.074-.027-2.137.02-.648.125-3.55.941l-2.16 2.66c-.028.063-.06.168-.11.242-2.477-.34-.668-2.386-2.567-3.64m14.707-11.551c.008-.477.352-.86.766-.856.414.008.742.403.734.88-.004.48-.347.863-.761.859-.414-.008-.746-.403-.739-.883m24.563.59c.191 2.398-2.04 1.847-4.176 1.86-3.281.019-2.726.089-4.449-1.86-1.586-.176-3.871.383-5.043-.532-.14-.109-1.352-1.558-2.887-.457-1.383.997.77.774-4.574.766-.105-1.27.113-2.074 1.926-3.418 1.148-.848 2.832-.406 5.05-.433 2.157-.028 1.891-1.805.942-2.735-2.906-2.84-2.582-1.324-3.281-2.367.875-.582 2.105-.344 3.164-.34 2.476.008 1.676-.75 2.48-.957.067-.016 4.196-.348 5.547.453 1.543.91 4.496.387 7.367.45-.273 1.98.078.109-.582 1.316-.28.515-.304.637-.488 1.207-3.324 1.168-1.45 2.008-5.844.832-1.36 1.918-3.699 1.82-.918 3.644l3.625 1.926c1.188.617 1.196.227 2.141.645m4.656-.242c-.324-3.137.258-2.2 1.176-4.204 3.793-.14 1.996.38 3.914 1.121.348-.945.25-2.593.191-3.863-1.203-.597-2.992-.668-3.257-2.246 1.015-.375 1.566-.137 2.785-.21 3.664-.22-2.238-1.36 8.344-1.153 3.347.062-.602 1.113 4.98 1.07 4.195-.031 4.54-.426 4.344 1.848-.625.328-.79.078-1.621.582-1.395.844.175.664-1.598.844-1.309.129-4.793-.2-4.879.175-.02.102-.11.133-.14.164l-.133.153c-.832.789-3.512 1.012-4.54 2.125-.59.64-.445.96-1.394 1.398-1.02.473-.812-.015-1.758.73-.414.329-.914 1.06-1.258 1.259-1.113.636-3.687.332-5.156.207m23.965-9.766c.04-.606.363-.914 1.25-.973.16-.039.336-.058.52-.058.308 0 .601.062.84.168.43.12.706.355.695.746-.016.601-.32.816-.797.902a2.1 2.1 0 0 1-1.293.059c-.805-.032-1.254-.227-1.215-.844m-36.066 26.066c-.032-.77.343-1.41.84-1.433.492-.02.921.586.953 1.355.035.774-.344 1.414-.836 1.434-.496.02-.926-.586-.957-1.356m-49.473 9.559c.918-.414-.344-.305 1.031-.895 1.184.715 1.375 1.375.512 2.422-2.531 3.078-2.918 1.102-3.707.805-1.39-.535-3.45.434-5.055-.508-.855-.5.297-.21-.957-.473-.746-.156-3.316.028-2.004-1.992.578-.883 3.192-.433 4.262-.433.867.324.496.382 1.11 1.16.703.039 4.222.18 4.808-.086m6.309 8.875c-.93-.934-.653-4.063-.395-5.684.633-.078 1.273-.023 1.797-.093 1.648-.223.562-.157 1.394-.621 1.891-1.051 3.075.332 3.215.398.996.441 2.578.21 3.73.191 2.345-.03 1.817-.265 3.052 1.067 2.843.078 4.09-.883 3.812 2.23-4.21 3.227-2.75 2.989-6.324 5.594l-.547.422c-1.441-.418-.102-.094-.856-.422-2.12-.945-1.261.418-2.757.805-1.168-.707.394-.953-3.059-.953-1.617 0-1.473.191-1.777-1.036-.477-1.925-.043-.648-1.285-1.898m10.199 9.723c.062-1.418.469-1.473 1.203-2.215l1.844.015c.156 1.621.187 1.07-.45 1.918-.824 1.102-.222.895-.796 1.965-1.625.078-1.875.086-1.801-1.683m5.61 3.277c1.425.25-.852.516 3.777.762.757 1.468 1.203.546 1.039 2.937l-2.93.156c-.715 3.973-.52.871-.957 2.88 2.41 3.027 5.11.421 7.101 1.948-.011 1.645-2.003 3.56-2.43 3.676-1.683.04-.925-.14-1.917-.629-.848-.418-1.172-.238-2.297-.27-1.883-.827 2 .126-2.047-1.288-1.379-.485.414-.192-2.414-1.211-1.106-.399-.387-.586-2.164 0-.695-.867.02-.469-1.598-.906-.5-.133-.351-.016-.683-.207.64-2.239 1.336-1.125 3.422-2.457.535-.344-.004-.067.765-.391 3.215-1.39 1.461-2.602 2.297-4.895.309-.047.738-.156 1.035-.101zm16.542 17.168c.953-.406.004-.168.914-.504 2.617-.957 4.531 1.555 3.438 3.297-1.239-.035-.645-.176-1.418-1.18-3.957-.226-1.328 1.13-3.614 1.309-.933.074-1.28-.239-1.363-1.133-.164-1.856.649-1.195 2.043-1.79m-11.219-27.293 6.118-.066c2.304-.004 2.894.433 1.566 2.375-.992 1.449-.145.699-1.336 1.085-1.277.415-1.129-.125-1.125 1.774.008 1.918-.254 3.168-1.914 3.387-1.484.195-1.184-.356-2.082-.72-1.148-.46-1.344.141-2.309-.44-.234-.333-.125 0-.257-.602-.204-.91-.051-1.824-.055-2.746-.012-2.79-.781-1.192-1.035-2.692 1.691-.796 1.004.364 2.43-1.355m21.118 9.375c-1.368-2.125-.559-1.16-1.028-3.914-1.43-.395-.832.156-1.164-.836-1.078-3.25 2.078-2.7 4.149-2.438l.773 1.082c4.012.204 1.734-.597 3.488-1.863.914-.664 3.735-.324 5.004-.363 1.055-1.399.938-1.207 3.246-1.086 1.082 1.285.328 1.168 2.79 1.129 3.745-.063 1.214-2.356 4.648-.524l1.812.73c-.086.7-.93 1.634-1.445 1.88-.676.328-.734.027-1.539.445-.645.34-.29.387-.984.91-1.364.059-3.66.356-4.618-.293-1.285-.87.23-.23-1.664-.883-1.347-.46-.343-.093-1.222-1.238-3.043-.031-1.61.227-2.957.95l-1.239.44c-1.03.513.11.24-1.207.763-1.156.46-.632-.31-1.304.601l-.399 1c-1.11 2.227-.316-.824-.937 2.602l-.196.699c-.28.156.122.086-.687.25zm10.921 3.52c-.59-3.465-.515-1.422-.933-2.797-.348-1.165.59-2.286 1.469-2.465 2.597-.54 1.898 2.207 2.93 2.851.468.29 1.144.2 1.636.535-.344 2.258-2.715 2.122-5.102 1.875m-38.37-7.477-.325-.516c3.387-4.539 4.7 4.047.766.899a8 8 0 0 1-.442-.383m-13.301-.238c-.633-1.887.726-1.918 2.117-1.918 1.094 0 1.133-.075 1.898.324 3.168 1.644-.883 3.98-2.96 2.648-.055-.035-1.028-.972-1.055-1.054m26.828-13.043c-2.91-2.735-.055-2.899 2.535-2.758 1.316.62-.305.582 1.683 1.02 1.747.378.696-.04 1.95.843.324 2.508-.13 1.844-1.059 3.418-2.394.11-2.16.215-3.098-.629-.687-.62-1.218-1.148-2.011-1.894m8.93 1.433 4.726-.066c.48.582.332.703.953 1.008.8.398 2.82.105 2.582 3.101-.808.164-1.836-.008-2.508.285-.957.422-.46 1.293-2.117 1.02-1.867-.313-.027-.875-1.754-1.14-.969-.145-.836.202-.941.273-1.004.66.351.304-.942.726-.492-.828-.062-.68-.488-1.453-.508-.918-1.996-.644.488-3.754m13.89-.105c-1.45-1.645-1.402-3.66 1.121-3.98 1.238.69.129.472 1.106.902.601.27.84.058 1.578.375.476.203 3.254 2.785-1.282 2.754-.847-.008-1.671-.008-2.523-.051m10.855.191c-.753-.05-2.183-.05-2.34-1.348-.156-1.285.755-1.511 2.102-.539 1.953 1.407.926-.308 3.27-.437 1.015-.059 2.308.023 3.36.02 1.07-.446-.208-.301.859-.872.777-.418.78-.132 1.644-.203 2.34-.191.57-.73 2.781-.945 1.301-.133 1.836-.25 2.664-.977.891-.77.45-1.855.524-3.32 1.203-.059 2.332.008 3.511-.023 2.305-.055.825-.453 2.45-.844 3.164-.75 1.672 1.441 3.605.418.52-.281-.422-.477 1.422-.402.54.82.387 1.925.277 2.921-6.101.782-3.714-1.726-7.832 2.454-4.363 4.433-2.832 1.617-4.632 3.152-.797.676-.004.523-2.27.719l-.434 1.445-6.793-.031c-4.27 0-1.023-.98-4.167-1.188m-14.656-13.027-.05-1.793 1.41-.188c.441 1.395.535 2.422-1.36 1.98m25.067 4.12c-3.43.821-4.555-.48-5.66-.612-4.52-.54-4.016 1.449-6.008.644-2.39-.969.023-2.883 1.144-3.664l.485-.336c.726-.656.992-2.363 1.73-4.062l3.734.004c2.739 0 1.442.265 2.914.777 1.465.508 1.672-.035 2.403 1.543-.45 1.23-.707.586-.746 2.48-.02 1.09.074 2.11.004 3.227m-17.36-6.288c-4.476 1.133-6.133-3.059-.148-1.781zm-47.91-1.004.055-2.223c1.613-.086 3.144-.39 3.11 1.309-.036 1.656-2.122 1.238-3.165.914m55.95-9.082c-.56-.48 1.468.668.019-.016zm-19.298 5.836c-1.793-.645-1.734-3.004-.035-3.781.68-.313.551-.098 1.098-.305.934-.36.336-.5 1.324-.817l2.473-.109c2.285.012 4.73-.344 3.867 2.3-.969.325-3.926-.179-5.621-.042-.031.07-.57 3.648-3.106 2.754m12.38-.176c-.176-.644-1.274-.535-1.15-2.492.192-2.953 2.88-.262 5.642-1.906l2.425-1.262c.094.074.266.207.54.394.425.301.206.457 1.972.47 3.711.023 1.469-1.06 3.898-1.204.856-.055.922-.016 1.458.34.933.613-.708.086 1.55.918.239.082.45.183.68.293.07 1.176.145 2.316-.172 3.226-2.176.989-5.355-.52-7.96-.52-2.907 0-2.388.595-3.99 2.2-1.058 1.059-2.132 2.043-3.073 3.3-2.59.056-1.79-1.167-1.82-3.757m46.12-10.531-.004-1.946 2.54-.136c1.136.39.308.015.695.652-.883 1.188-.422.067-1.625.762-1.004.57.43.707-1.606.668m-27.699.144c-1.3-2.496.84-1.832 1.797-2.48.504-.348.059-.293.899-.774 2.285.028 3.875 2.215 1.109 2.215-4.274 0-1.606 1.078-3.805 1.04m9.739-2.863c.554-.484 1.343-.465 2.703-.387 1.265.075 1.332.383 2.273.844.156 1.258-.117 1.324-.883 1.945-1.636 1.325-.437 1.188-1.965 1.414-1.16.172-2.214.13-2.425-.878-.18-.856-.067-2.465.297-2.938m15.78 1.61c-.257.097-6.808 1.687-5.222-1.891l2.973-.113c1.5 1.949 2.027-.266 2.25 2.003m-74.984-.598c-.203.496.22.75-1.761.75-.957-.004-1.578-.012-2.528-.184-.332-3.644 1.953-1.344 2.832-1.133 1.34.325.696-.539 1.457.567m-48.316-4.871.125 1.43c-3.066.554-3.184-1.864-.125-1.43m9.906-1.727c-.789 1.676-.027 3.012-2.851 2.957-.688-1.097-.211-1.383-1.301-2.273-1.152-.946-1.379-.621-1.168-2.672 1.738-.25 3.531-.106 5.285-.106 2.18 0 1.211-.02 2-.668.45-.375-.324-.52 2.414-.476 1.137.012 6.024-.574 5.106 2.773l-.528.797c-.082.086-.187.164-.277.242-.414.356-.133.41-2.649.414-3.824.004.356-1.601-6.03-.988m19.914 7.262c-3.586-.016-.562-.461-5.16-2.39-.058-1.513-.066-1.946 1.578-1.946 2.559 0 1.82 2.285 4.075.508 1.203-.95 1.101-2.063.039-2.907-1.164-.925-1.141-.175-2.371-.746-.848-.394-.79-.867-1.301-1.523 2.37-2.332 2.558-1.54 8.195-1.61 2.066-.023 1.434-.16 2.734.57.645.364.207.384 1.418.419l.836-.067c1.551-.308.707-.687 1.961-.746 1.375-.054.524.227 1.43.309 0 0 4.969-1.137 5.965-.164.793.93.277 2.644-.328 3.39-.813 1.008-1.852.79-3.461.762l-.965-1.312c-2.817-.121-1.567.43-3.008.89-1.281.41-3.867-.132-3.922 2.852-.07 3.969 3.563-.68 3.188 3.625-3.125.379-1.856-.606-4.844.75-2.242 1.016-.711.031-1.848 1.402-1.937-.629 1.453-.367-3.613-.89zm-40.507-9.813c1.207 3.043-2.758 2.895-4.711 2.422-1.188-.285-1.832-1.254-1.653-2.953 1.285-.234 3.332-.2 4.688-.183 1.32.023 1.324-.176 1.675.714m105.687-3.058c-1.531.054-3.184.453-4.156-.977-.61-.887-.524 0-.442-1.586l6.297-.07c-.234 1.18-1.11 1.93-1.699 2.633m-15.684 1.394c-1.933-.21-.562-.965-1.433-2.457-.367-.62-.074.098-.508-.629-.43-.71-.094-.164-.379-.918l9.856.004c.05 1.223-.446 1.891-1.329 2.36-.894.488-2.32.242-3.605.332l-.598 1.258c-.453.023-1.613.093-2.004.05zm-41.902-4.004c.133 2.278-2.176 3.727-4.43 1.688-1.718-1.555-.953-1.086-1.304-1.707zm9.195 81.559c.602-.121 1.18.215 1.29.75.109.543-.29 1.074-.891 1.195-.602.125-1.18-.21-1.29-.746-.109-.535.29-1.074.891-1.199m3.586 5.227c.008-.493.446-.883.985-.88.535.009.968.415.96.903-.007.492-.445.887-.984.883-.535-.008-.965-.414-.96-.906m-53.613-67.512c0 .453-.496.812-1.11.812-.609 0-1.105-.36-1.105-.812 0-.446.496-.809 1.106-.809.613 0 1.109.364 1.109.809m0 0" style="fill:#000;fill-opacity:1;fill-rule:evenodd;stroke:none" transform="translate(-.035)" data-source="https://football-logos.cc"></path><path d="M280.605 524.195c.008-.34-.16-.64-.406-.785a.75.75 0 0 0-.656-.012c-.254.137-.43.43-.438.774-.004.402.176.668.41.793.204.101.45.105.657.008.254-.133.43-.434.433-.777zm0 0" style="fill:#001490;fill-opacity:1;fill-rule:evenodd;stroke:none" transform="translate(-.035)"></path><path d="M334.848 506.781V422.84h11.734v13.308h6.648V422.84h9.934v13.308h6.367V422.84h11.93v86.223l-191.465-.094.004-2.25v-83.88h11.734v13.31h6.645l.004-12.18v-1.13h9.941l-.008 13.31h6.364v-13.31h11.93v83.903l98.242.04zm-142.582-.062 42.078.02v-81.637l-7.406-.004v13.324h-10.883v-1.14l.004-12.18h-5.418l-.004 12.18v1.14h-11.164v-13.324l-7.207.004zm186.925.082v-81.7l-7.402-.003v13.324h-10.883v-1.14l.004-12.18h-5.418l-.004 12.18v1.14h-11.164v-13.324l-7.207.004v81.683l42.078.016zm0 0" style="fill:#000;fill-opacity:1;fill-rule:evenodd;stroke:none" transform="translate(-.035)"></path><path d="M191.52 499.055h12.02v-7.11h-12.02v-1.98h5.046v-6.64h-5.046v-1.985h12.02v-6.969h-12.02v-1.984h5.046v-6.793h-5.046v-1.985h12.02v-7.097h-12.02v-1.985h5.046v-6.789h-5.046v-1.984h11.832v-8.332h1.984v8.332h15.266v-8.332h1.984v8.332h12.734v1.984h-8.12v6.79h8.12v1.984h-12.695v7.097h12.695v1.985h-8.117l.059 6.793h8.058v1.984h-12.695v6.969h12.695v1.984h-8.047v6.64h8.047v1.981h-12.695v7.11h12.695v1.984h-8.047v6.59h-1.984v-6.59h-12.715v6.285h-1.984v-6.285h-12.04v6.285h-1.984v-6.285h-5.046zm14.003 0h15.118v-7.11h-15.118zm15.118-42.543h-15.118v7.097h15.118zm0 17.86h-15.118v6.968h15.118zm4.648 8.952h-12.715v6.637h12.715zm-14.7 0h-12.038v6.637h12.039zm1.985-28.797h12.64v-6.789h-12.64zm-1.984-6.789h-12.04v6.79h12.04zm1.984 17.856v6.793h12.711l-.058-6.793zm-1.984 6.793v-6.793h-12.04v6.793zM336.27 499.055h12.02v-7.11h-12.02v-1.98h5.046v-6.64h-5.046v-1.985h12.02v-6.969h-12.02v-1.984h5.046v-6.793h-5.046v-1.985h12.02v-7.097h-12.02v-1.985h5.046v-6.789h-5.046v-1.984h11.832v-8.332h1.984v8.332h15.266v-8.332h1.984v8.332h12.734v1.984h-8.12v6.79h8.12v1.984h-12.695v7.097h12.695v1.985h-8.117l.059 6.793h8.058v1.984h-12.695v6.969h12.695v1.984h-8.047v6.64h8.047v1.981h-12.695v7.11h12.695v1.984h-8.047v6.582h-1.984v-6.582h-12.715v6.285h-1.984v-6.285H343.3v6.285h-1.984v-6.285h-5.046zm14.003 0h15.118v-7.11h-15.118zm15.118-42.543h-15.118v7.097h15.118zm0 17.86h-15.118v6.968h15.118zm4.648 8.952h-12.715v6.637h12.715zm-14.7 0h-12.038v6.637h12.039zm1.985-28.797h12.64v-6.789h-12.64zm-1.984-6.789H343.3v6.79h12.04zm1.984 17.856v6.793h12.711l-.058-6.793zm-1.984 6.793v-6.793H343.3v6.793zM235.7 457.7h15.62l-.015 1.144-.176 12.273h4.742l.172-12.297.02-1.12h16.707v13.417h4.734V457.7h16.808v13.418h4.735V457.7h16.808v13.418h4.735V457.7h15.363v2.266h-13.098v11.152h13.22v2.555h-3.692v6.258h3.691v2.55h-7.043v6.31h7.043v2.55h-3.691v6.574h3.691v2.55h-7.043v7.5h-2.265v-7.5h-5.7v7.5h-2.27v-7.5h-5.214v7.5h-2.266v-7.5h-5.605v7.5h-2.27v-7.5h-5.304v7.5h-2.27v-7.5h-5.605v7.5h-2.27v-7.5h-13.336l-.02 7.34h-2.257l.02-7.34h-5.02v7.5h-2.266v-7.5h-5.61v7.5h-2.265v-7.5h-5.168v7.5h-2.265v-7.5h-5.61v7.5h-2.265v-7.5h-6.043v-2.55h1.82v-6.574h-1.82v-2.55h6.043v-6.31h-6.043v-2.55h1.82v-6.258h-1.82v-2.555h12.984l.156-11.152H235.7zm42.78 22.23h5.43v-6.258h-5.43zm-2.27 0v-6.258h-5.562l-.023 6.258zm2.27 11.41v6.574h5.43v-6.574zm-2.27 0h-5.48v6.574h5.48zm-7.75 0h-5.429v6.574h5.43zm-.093-11.41.02-6.258h-5.356v6.258zm35.074 8.86v-6.31h-5.304v6.31zm2.27 0h5.605v-6.31h-5.605zm7.871 0h13.184v-6.31h-13.184zm-69.387 0h13.043v-6.31h-13.043zm38.633 0h5.164v-6.31h-5.164zm-2.27-6.31h-5.605v6.31h5.606zm-7.874 0h-5.305v6.31h5.305zm57.43-8.808h-5.29v6.258h5.29zm0 17.668h-12.946v6.574h12.945zm-7.555-17.668h-5.485v6.258h5.485zm-7.75 0h-5.438l-.015 6.258h5.453zm.09 17.668h-5.57l-.016 6.574h5.586zm-20.973-17.668v6.258h5.422l.015-6.258zm-2.266 6.258v-6.258h-5.484v6.258zm2.266 11.41v6.574h5.379l.015-6.574zm-2.266 6.574v-6.574h-1.398v6.574zm-5.484 0h1.816v-6.574h-1.816zm20.933-24.242h-5.488l-.015 6.258h5.492zm-.039 17.668h-5.492l-.015 6.574h5.492zm-47.566-2.55h5.61v-6.31h-5.61zm1.258-15.118h-5.48v6.258h5.48zm-7.75 0h-5.29v6.258h5.29zm7.75 17.668h-5.48v6.574h5.48zm-7.75 0h-5.29v6.574h5.29zm-7.555-17.668h-5.484v6.258h5.484zm-5.484 24.242h5.484v-6.574h-5.484zm50.289-9.125h5.605v-6.309h-5.605zm-32.133-17.672h12.375v-11.152h-12.215zm21.64 0h12.278v-11.152H279.77zm21.544 0h12.277v-11.152h-12.278zm0 0" style="fill:#000;fill-opacity:1;fill-rule:evenodd;stroke:none" transform="translate(-.035)"></path><path d="M247.152 504.598h5.766v-25.082h-5.766zM318.586 504.598h5.766v-25.082h-5.766zM299.84 506.754c-2.656-8.344-7.703-14.867-14.11-20.957-6.437 5.234-11.046 11.969-13.734 20.957zm0 0" style="fill:#f8d024;fill-opacity:1;fill-rule:evenodd;stroke:none" transform="translate(-.035)"></path><path d="M275.918 426.836h5.453v-4.27h8.734v4.27h6.47v10.934h-6.47v21.234h-8.734V437.77h-6.516v-10.934zm6.516 2.125h-5.454v6.684h6.516v21.234h4.484v-21.234h6.47v-6.684h-6.47v-4.27h-4.484v4.27zm0 0" style="fill:#000;fill-opacity:1;fill-rule:evenodd;stroke:none" transform="translate(-.035)"></path><path d="M199.473 437.281v-12.183l-7.207.004v20.652h11.086v-7.332h-3.88zM216.055 437.281l.004-12.18h-5.418l-.004 12.18v1.14h-5.301v7.333h15.266v-7.332h-4.547zM234.344 425.102l-7.406-.004v13.324h-4.352v7.332h11.758zM192.266 454.527h4.3v-6.789h-4.3zM198.55 454.527h12.04v-6.789h-12.04zM212.574 454.527h12.64v-6.789h-12.64zM227.2 454.527h7.144v-6.789h-7.145zM192.266 463.61h11.273v-7.098h-11.273zM205.523 463.61h15.118v-7.098h-15.118zM222.625 463.61h11.719v-7.098h-11.719ZM192.266 472.387h4.3v-6.793h-4.3zM198.55 472.387h12.04v-6.793h-12.04zM225.227 465.594h-12.653v6.793h12.711zM234.344 465.594h-7.14l.058 6.793h7.082zM192.266 481.344h11.273v-6.969h-11.273zM205.523 481.344h15.118v-6.969h-15.118zM222.625 481.344h11.719v-6.969h-11.719ZM192.266 489.965h4.3v-6.637h-4.3zM198.55 489.965h12.04v-6.637h-12.04zM212.574 489.965h12.715v-6.637h-12.715zM227.273 489.965h7.07v-6.637h-7.07zM192.266 499.055h11.273v-7.11h-11.273zM205.523 499.055h15.118v-7.11h-15.118zM222.625 499.055h11.719v-7.11h-11.719ZM287.98 424.691h-4.484v4.27h-6.516v6.684h6.516v21.234h4.484v-21.234h6.47v-6.684h-6.47zM249.027 459.965H236.61v11.152h12.262zM270.504 459.965h-12.215l-.16 11.152h12.375zM279.77 471.117h12.277v-11.152H279.77zM301.313 471.117h12.277v-11.152h-12.277ZM322.855 471.117h11.993v-11.152h-11.993zM236.61 479.934h1.097v-6.266h-1.098zM236.61 488.79h5.32v-6.31h-5.32zM239.973 479.934h5.484v-6.266h-5.484zM253.012 473.672h-5.29v5.844h5.196v.414h.094zM255.281 479.934h5.48v-6.266h-5.48zM268.387 473.672h-5.356v6.258h5.336zM276.21 473.672h-5.562l-.023 6.258h5.586zM278.48 479.934h5.43v-6.266h-5.43zM286.176 479.934h5.484v-6.266h-5.484zM299.363 473.672h-5.437v6.258h5.422zM307.11 473.672h-5.489l-.016 6.258h5.493zM314.809 473.672h-5.438l-.016 6.258h5.454zM322.559 473.672h-5.485v6.258h1.512v-.414h3.973zM324.824 479.934h5.29v-6.266h-5.29zM332.383 479.934h2.465v-6.266h-2.465zM244.195 488.79h2.957v-6.31h-2.957zM252.918 488.79h4.32v-6.31h-4.32zM259.504 488.79h5.61v-6.31h-5.61zM267.379 488.79h5.305v-6.31h-5.305zM274.953 488.79h5.606v-6.31h-5.606zM287.992 488.027v-5.547h-5.164v5.903a43 43 0 0 1 2.902-2.586 94 94 0 0 1 2.262 2.23M290.262 488.79h5.605v-6.31h-5.605zM298.137 488.79h5.304v-6.31h-5.304zM305.71 488.79h5.606v-6.31h-5.605zM313.582 488.79h5.004v-6.31h-5.004zM324.352 488.79h2.414v-6.31h-2.414zM329.031 488.79h5.817v-6.31h-5.817zM236.61 497.914h1.097v-6.574h-1.098zM239.973 497.914h5.484v-6.574h-5.484zM255.281 497.914h5.48v-6.574h-5.48zM263.031 497.914h5.43v-6.574h-5.43zM276.21 491.34h-5.48v6.574h4.899q.282-.526.582-1.035zM280.09 491.34h-1.61v2.058c.516-.707 1.051-1.39 1.61-2.058M291.66 491.34h-.637c.215.254.426.504.637.762zM299.32 491.34h-5.394v3.715a46 46 0 0 1 1.883 2.86h3.496zM307.07 491.34h-5.492l-.015 6.574h5.492zM314.898 491.34h-5.57l-.015 6.574h5.585zM317.168 497.914h1.418v-6.574h-1.418zM324.352 497.914h5.761v-6.574h-5.761zM332.383 497.914h2.465v-6.574h-2.465zM334.848 500.465h-5.817v6.316l5.817.004zM324.352 504.598h-3.286v2.18l5.7.003v-6.316h-2.414zM318.586 500.465h-5.004v6.308l5.215.004v-2.183h-.211zM311.316 500.465h-5.605v6.305l5.605.004zM303.441 500.465h-5.304v1.855a40 40 0 0 1 1.703 4.434h-1.703v.012l5.304.004zM272.398 500.465h-5.02v6.289h5.005-.387q.188-.627.387-1.242zM265.113 500.465h-5.61v6.289h5.61zM257.238 506.754v-6.29h-4.32v4.134h-.848v2.148zM247.152 500.465h-2.957v6.277l5.61.004v-2.152h-2.653zM236.61 506.742h5.32v-6.277h-5.32zM234.344 501.04h-7.07v5.694l7.07.004zM225.29 501.04h-12.716v5.69l12.715.004zM210.59 501.04h-12.04v5.683l12.04.008zM196.566 501.04h-4.3v5.679l4.3.004zM344.324 425.098l-7.207.004v20.652h10.985v-7.332h-3.778zM354.36 438.422h-4.274v7.332h15.266v-7.332h-4.446v-13.32h-5.418v13.32zM379.191 425.102l-7.402-.004v13.324h-4.453v7.332h11.86V425.1zM337.117 454.527h4.2v-6.789h-4.2zM343.3 454.527h12.04v-6.789H343.3zM357.324 454.527h12.64v-6.789h-12.64zM371.95 454.527h7.241v-6.789h-7.242zM337.117 463.61h11.172v-7.098h-11.172zM350.273 463.61h15.118v-7.098h-15.118zM367.375 463.61h11.816v-7.098h-11.816ZM337.117 472.387h4.2v-6.793h-4.2zM343.3 472.387h12.04v-6.793H343.3zM369.977 465.594h-12.653v6.793h12.711zM379.191 465.594h-7.238l.059 6.793h7.18zM337.117 481.344h11.172v-6.969h-11.172zM350.273 481.344h15.118v-6.969h-15.118zM367.375 481.344h11.816v-6.969h-11.816ZM337.117 489.965h4.2v-6.637h-4.2zM343.3 489.965h12.04v-6.637H343.3zM357.324 489.965h12.715v-6.637h-12.715zM372.023 489.965h7.168v-6.637h-7.168zM337.117 499.055h11.172v-7.11h-11.172zM350.273 499.055h15.118v-7.11h-15.118zM367.375 499.055h11.816v-7.11h-11.816ZM337.117 506.785h4.2v-5.746h-4.2zm0 0" style="fill:#8b8b8b;fill-opacity:1;fill-rule:evenodd;stroke:none" transform="translate(-.035)"></path><path d="M305.71 488.79h5.606v-6.31h-5.605zM355.34 501.04H343.3v5.745l12.04.012zM370.04 501.04h-12.716v5.757h12.715zM372.023 506.805h7.168v-5.766h-7.168zm0 0" style="fill:#8b8b8b;fill-opacity:1;fill-rule:evenodd;stroke:none" transform="translate(-.035)"></path><path d="M334.602 509.04h-3.442c-.101 1.5.516 2.089 1.223 2.175.793-.074 1.765-1.035 2.219-2.176M335.594 514.637c.015-.813-1.27-1.043-2.055-.856-.887.059-1.21.367-1.25.973-.039.617.41.812 1.215.844.418.117.851.105 1.293-.059.476-.086.785-.3.797-.902m0 0" style="fill:#001490;fill-opacity:1;fill-rule:evenodd;stroke:none" transform="translate(-.035)"></path><path d="M382.473 210.36c-30.457-6.06-61.368-9.196-92.696-9.395-32.78-.211-65.093 2.75-96.937 8.7-33.188 6.198-62.098 14.312-93.594 26.429l.02 1.98c.023 2.871.12 7.14.402 12.707 1.43 28.246 7.648 87.848 33.328 153.489 15.567 39.792 34.934 73.851 57 103.875l.004-1.426v-83.88h11.734v1.13l-.004 12.18h6.649v-13.31h9.945l-.012 13.31h6.368v-13.31h11.93v34.86h14.71l-.015 1.145-.176 12.273h4.742l.172-12.297.016-1.12h16.71v13.417h4.731V457.7h3.871v-19.93h-6.516v-10.933h6.516v-4.27h8.734v4.27h6.47v10.934h-6.47v19.93h4.207v13.417h4.731V457.7h16.812v13.418h4.735V457.7h14.258v-34.86h11.734v13.31h6.648v-13.31h9.93l.004 13.31h6.363l.004-12.18v-1.13h11.93v81.645a504 504 0 0 0 37.063-60.453c15.859-30.472 28.468-62.933 37.218-97.8 8.582-34.196 13.465-70.696 14.094-109.891-28.637-11.43-57.766-20.086-87.363-25.98zm42.418 99.273a4.796 4.796 0 0 1 4.8-4.797 4.8 4.8 0 1 1 0 9.598 4.8 4.8 0 0 1-4.8-4.801m-100.649-32.024c0-2.648 2.149-4.8 4.801-4.8a4.798 4.798 0 0 1 0 9.598 4.8 4.8 0 0 1-4.8-4.798m-104.25 5.852a4.803 4.803 0 0 1-4.8-4.805 4.801 4.801 0 1 1 4.8 4.805m-57.152-6.207-20.02 6.934.047 10.535c.024 4.754 2.63 5.062 8.887 3.168l.945 2.515-18.453 6.2-.894-2.22c4.949-2.57 4.925-5.605 5.34-14.722l2.472-54.16 3.348-1.266 36.43 41.028c6.187 6.968 8.617 9.386 12.765 8.164l1.094 2.289-29.113 10.12-.606-2.593c5.086-2.836 7.969-4.297 5.05-7.64zm83.707-12.926-.598-38.351c-.133-8.45-1.566-8-8.398-8.668v-2.754l30.168-.602c19.289-.383 34.156 10.164 34.504 31.457.3 18.356-13.301 31.469-32.344 31.996l-31.14.864.152-2.805c7.668-.738 7.789-2.617 7.656-11.137m153.16 35.113-52.059-15.851.778-2.457c6.86 1.46 8.61 1.512 11.043-6.613l11.191-37.344c2.426-8.098 1.95-9.43-5.035-12.16l.742-2.676L398 232.324l-.703 2.23c-7.711-1.8-9.235-1.878-11.777 6.184l-12.356 39.114c-1.406 4.457-1.684 6.015.027 7.367 1.508 1.191 3.489 1.945 6.426 2.683 7.246 1.825 13.832.825 16.961-.992 2.39-1.383 7.215-5.133 10.504-9.973l3.129.622c-1.95 3.945-9.063 17.449-10.504 19.882" style="fill:#ffd101;fill-opacity:1;fill-rule:evenodd;stroke:none" transform="translate(-.035)"></path><path d="m160.32 274.004-15.605-17.566-.832.277-1.133 23.09zM285.64 246.41c-.597-22.965-11.417-29.031-18.503-28.808-3.735.12-4.168.964-4.79 1.652-.847.926-1.062 2.758-1.03 5.59l.449 39.222c.082 7.137-1.032 10.618 6.21 10.38 9.145-.298 18.22-6.833 17.665-28.036m0 0" style="fill:#f8d024;fill-opacity:1;fill-rule:evenodd;stroke:none" transform="translate(-.035)"></path><path d="M303.636 289.997c11.787 2.966 20.574 9.808 28.823 19.205 7.762 7.347 16.375 21.68 15.277 33.811.534 5.2.337 12.879.065 18.533-1.407 11.573-5.372 20.742-14.52 30.28-6.307 8.253-18.184 16.177-30.755 19.803-8.265 3.062-18.344 3.813-26.983 2.713-4.056-.517-7.426-1.308-11.476-2.941-3.823-1.373-7.854-2.836-11.622-4.971-8.45-4.788-15.632-11.65-19.752-17.436-7.942-8.43-11.505-18.68-12.686-27.881-.594-7.157-.921-15.466.912-22.845 1.43-10.235 7.105-20.552 13.098-25.929 8.049-10.763 18.122-18.633 33.19-22.873 11.261-3.891 28.027-3.833 36.429.531" style="fill:#000;fill-rule:evenodd;stroke-width:1.41278;fill-opacity:1" transform="translate(-.035)"></path><path d="M284.09 362.354c-6.753 4.734-14.602 9.252-24.277 13.694-6.953-4.397-13.019-8.32-20.379-13.553-.98-8.288-.815-17.94.13-27.63 7.727-5.756 14.137-9.03 20.587-12.276 9.608 4.411 17.538 8.887 23.94 13.693zm63.11-20.747c.172-5.584-1.63-11.371-4-16.329-2.13-4.453-5.081-9.006-8.475-12.835 2.799 4.489 4.643 10.476 5.443 16.655 2.718 3.98 5.089 8.174 7.031 12.509m-14.375-31.183q-.393-.394-.793-.772l-.02-.017-.02-.02q-1.164-1.328-2.354-2.594c-2.273-1.902-4.725-3.793-7.345-5.457-3.594-2.283-7.504-4.144-11.696-5.293-3.88 1.209-8.032 2.726-12.607 4.567 3.522 6.023 6.702 13.781 9.641 22.438 9.06 4.164 15.327 8.265 20.959 12.645 4.386-2.044 8.135-4.732 11.002-7.207-1.029-6.832-3.305-13.247-6.767-18.287zM303.5 290.603l-.014-.002-.07-.009-.065-.034c-9.202-4.78-26.267-3.837-35.966-.487l-.49.14c-2.253 1.755-4.322 3.47-6.008 5.108a34.8 34.8 0 0 1 8.543 5.464c9.16-.883 19.027-1.179 27.902-.23 4.401-1.908 8.415-3.437 12.213-4.638-1.745-1.757-3.797-3.515-6.044-5.301zm-65.254 17.512q-.615.695-1.218 1.415c-3.72 4.668-6.657 11.005-8.554 17.757 2.86 2.46 6.589 5.123 10.943 7.15 7.636-6.055 13.745-9.033 20.56-12.605 2.128-7.13 4.944-13.711 8.789-20.866-2.978-2.477-5.388-4.04-8.483-5.375-10.303 3.164-16.873 7.573-22.037 12.524m-4.6 5.421c-5.954 5.779-10.406 15.169-11.884 23.4 1.85-3.054 3.725-5.94 5.954-9.176 1.323-5.012 3.367-9.98 5.93-14.224m-13.065 46.977.043.528c1.3 10.136 5.252 19.661 12.222 27.207-1.856-3.541-3.62-7.67-4.62-11.17-.677-2.366-.913-4.302-1.138-6.597-2.255-3.356-4.391-6.79-6.507-9.968zm14.078 30.06c.76.958 1.57 1.902 2.418 2.829 5.26 4.609 11.89 9.018 20.173 11.562 1.181-.638 2.35-1.304 3.606-2.026 2.393-1.374 4.873-2.975 7.486-4.742-3.818-7.147-6.614-14.39-8.727-21.538-6.954-4.4-12.901-8.383-20.234-13.711-3.767 1.614-7.736 4.544-11.72 7.75.164 1.754.456 3.694 1.273 6.504 1.303 4.477 3.615 9.704 5.725 13.372m29.541 20.216.088.033c3.8 1.532 7.295 2.39 11.333 2.904 8.43 1.074 18.121.375 26.188-2.497 2.473-1.842 4.757-3.654 6.582-5.463-3.638-1.896-7.366-4.163-11.384-6.966-8.916.965-18.75.667-27.956-.224-3.996 2.668-7.723 4.8-11.39 6.595 1.855 1.809 4.058 3.683 6.539 5.619zm67.024-17.428q.453-.519.881-1.046c2.395-3.418 5.337-8.065 6.75-12.652.826-2.68.918-5.472.965-7.678-3.95-3.189-7.61-6.106-11.35-7.727-2.452 1.653-4.795 3.182-7.355 4.67-4.018 2.334-8.478 4.566-13.724 7.01-2.911 8.56-6.25 16.428-9.734 22.423 3.275 2.27 6.336 4.372 9.267 6.055.64.368 1.258.722 1.866 1.065 7.478-1.872 15.348-6.164 22.434-12.12m3.215-3.694c7.342-8.18 11.222-16.514 12.67-27.588-1.961 3.115-4.24 6.515-6.69 9.7-.076 2.282-.263 5.204-.96 7.818-.937 3.515-2.968 6.99-5.02 10.07m-27.116-14.113c7.99-3.806 14.094-7.39 21.068-12.091 1.114-9.01 1.187-18.02.055-27.03-5.968-4.403-12.007-8.324-21.01-12.805-8.36 3.685-17.242 8.484-22.725 12.652v26.238c5.87 4.146 13.292 8.382 22.612 13.036" style="fill:#fff;fill-rule:evenodd;stroke-width:1.41278" transform="translate(-.035)" data-source="https://football-logos.cc"></path><!-- source: https://football-logos.cc --></svg>