<svg xmlns="http://www.w3.org/2000/svg" viewBox="36.02 11.66 184.97 234.33"><!-- Source: https://football-logos.cc --><path d="M953.914 1591.22c-3.168 55.06-26.082 104.89-67.726 145.36-62.555 60.78-152.239 87.99-213.372 87.99-253.984 0-382.945-84.7-382.945-547.63V673.395c0-395.692 368.797-486.75 566.934-535.672 44.988-11.11 84.554-21.645 106.976-31.856V1539.32s-10.097 47.57-9.867 51.9" style="fill:#176fc1;fill-opacity:1;fill-rule:nonzero;stroke:none" transform="matrix(.13333 0 0 -.13333 0 257.333)" data-source="https://football-logos.cc"></path><path d="M1070.75 137.723c198.14 48.922 566.93 139.98 566.93 535.672v603.545c0 462.93-128.96 547.63-382.93 547.63-61.14 0-150.83-27.21-213.38-87.99-41.643-40.47-64.561-90.3-67.725-145.36.23-4.33.636-8.6.636-12.99 0-6.05-.218-12.16-.664-18.32h-6.551V107.328c22.418 10.207 58.694 19.285 103.684 30.395" style="fill:#fff;fill-opacity:1;fill-rule:nonzero;stroke:none" transform="matrix(.13333 0 0 -.13333 0 257.333)"></path><path d="M1559.6 1732.79c-60.91 76.91-152.08 109.73-304.85 109.73-65.4 0-161.19-28.97-227.77-93.67-27.738-26.94-47.769-57.73-59.914-91.28-1.132-3.13-2.293-6.25-3.285-9.43-1 3.18-2.156 6.3-3.285 9.43-12.152 33.55-32.183 64.34-59.914 91.29-66.59 64.69-162.379 93.66-227.766 93.66-152.777 0-243.949-32.82-304.859-109.73-66.73-84.27-97.809-229.11-97.809-455.85V673.395c0-409.43 378.274-502.829 581.493-553 49.355-12.192 88.351-21.817 106.906-32.38l1.949-1.105 3.285-1.87 3.285 1.87 1.942 1.106c18.558 10.562 57.542 20.187 106.902 32.379 203.23 50.171 581.5 143.57 581.5 553v603.545c0 226.74-31.08 371.58-97.81 455.85m78.08-1059.395c0-395.692-368.79-486.754-566.93-535.672-44.99-11.11-81.266-20.188-103.684-30.399-1.074-.488-2.281-.969-3.285-1.461-1.011.492-2.218.973-3.285 1.461-22.426 10.211-58.703 19.289-103.691 30.399-198.137 48.918-566.934 139.98-566.934 535.672v603.545c0 462.93 128.961 547.63 382.945 547.63 61.133 0 150.817-27.21 213.372-87.99 41.644-40.47 64.558-90.3 67.726-145.36-.23-4.33 9.867-51.9 9.867-51.9s10.094 47.57 9.864 51.9c3.164 55.06 26.082 104.89 67.725 145.36 62.55 60.78 152.24 87.99 213.38 87.99 253.97 0 382.93-84.7 382.93-547.63z" style="fill:#2c4923;fill-opacity:1;fill-rule:nonzero;stroke:none" transform="matrix(.13333 0 0 -.13333 0 257.333)"></path><path d="M1170.46 777.969H757.098V626.055l85.613-199.246c87.098-35.77 126.945-44.625 252.329-1.661l75.42 200.907z" style="fill:#8d4b09;fill-opacity:1;fill-rule:nonzero;stroke:none" transform="matrix(.13333 0 0 -.13333 0 257.333)"></path><path d="M1170.46 781.289H753.777V625.367l86.422-201.117 1.25-.512c87.512-35.941 129.317-44.683 254.671-1.73l1.47.504 76.19 202.937v155.84z" style="fill:#231f20;fill-opacity:1;fill-rule:nonzero;stroke:none" transform="matrix(.13333 0 0 -.13333 0 257.333)"></path><path d="M1167.14 774.648V626.656c-.42-1.113-73.55-195.937-74.65-198.855-121.947-41.613-161.006-33.77-247.263 1.578-1.063 2.473-84.274 196.117-84.809 197.355v147.914z" style="fill:#8d4b09;fill-opacity:1;fill-rule:nonzero;stroke:none" transform="matrix(.13333 0 0 -.13333 0 257.333)"></path><path d="M753.746 772.992c0-29.656 108.219-45.66 210.035-45.66 101.819 0 210.029 16.004 210.029 45.66s-108.21 45.656-210.029 45.656c-101.816 0-210.035-16-210.035-45.656M1167.16 625.223c0-18.453-83.52-39.02-203.379-39.02s-203.39 20.567-203.39 39.02h-6.645c0-29.657 108.219-45.664 210.035-45.664 101.819 0 210.029 16.007 210.029 45.664z" style="fill:#231f20;fill-opacity:1;fill-rule:nonzero;stroke:none" transform="matrix(.13333 0 0 -.13333 0 257.333)"></path><path d="M1196.31 691.926s-85.7 31.887-78.17 65.062c2.52 11.024 4.63 23.59 4.63 23.59s42.1-22.316 39.19-42.758c-2.26-15.961 34.35-45.894 34.35-45.894M1197.75 1002.4s17.59-91.244 42.51-105.759c24.92-14.512 60.11-12.442 60.11-12.442s-4.4 99.535-54.24 101.617c-27.99 1.161-48.38 16.584-48.38 16.584M1390.81 768.883s-29.88 71.812-60.09 79.941c-30.21 8.125-70.48 1.196-70.48 1.196s15.57-80.54 73.15-74.817c32.34 3.227 57.42-6.32 57.42-6.32M1146.94 962.551s-47.99-101.231 42.85-113.313c30.21-4.019 63.56-9.3 63.56-9.3s7.53 53.597-45.91 62.726c-41.73 7.129-60.5 59.887-60.5 59.887M1098.66 909.793s-54.83-71.051-12.46-98.133c14.08-8.992 29.38-19.605 29.38-19.605s19.98 41.062-4.33 58.593c-18.99 13.688-12.59 59.145-12.59 59.145" style="fill:#3c953d;fill-opacity:1;fill-rule:nonzero;stroke:none" transform="matrix(.13333 0 0 -.13333 0 257.333)"></path><path d="M1443.56 891.344c-.02-10.176-8.28-18.403-18.45-18.383-10.18.019-18.41 8.285-18.4 18.457.03 10.172 8.3 18.41 18.48 18.387 10.16-.016 18.39-8.285 18.37-18.461" style="fill:#231f20;fill-opacity:1;fill-rule:nonzero;stroke:none" transform="matrix(.13333 0 0 -.13333 0 257.333)"></path><path d="M1438.2 904.379c7.18-7.211 7.15-18.871-.06-26.051-7.21-7.176-18.87-7.152-26.05.051-7.18 7.211-7.16 18.871.05 26.055 7.21 7.179 18.88 7.16 26.06-.055" style="fill:#231f20;fill-opacity:1;fill-rule:nonzero;stroke:none" transform="matrix(.13333 0 0 -.13333 0 257.333)"></path><path d="M1468.97 929.289c-2.14 0-16.01-11.902-18.05-12.242.34 2.051 12.3 15.867 12.3 18.008.05 20.984-16.93 38.031-37.91 38.074-20.99.039-38.03-16.938-38.07-37.918-.01-2.141 11.9-17.188 12.24-19.231-2.05.352-15.87 13.473-18.01 13.485-20.99.039-38.02-16.938-38.08-37.922-.03-20.98 16.94-38.023 37.93-38.066 2.14-.012 16 11.898 18.05 12.226-.35-2.035-12.3-15.855-12.31-17.996-.04-20.984 16.93-38.023 37.92-38.07 20.98-.039 38.03 16.929 38.06 37.918.01 2.14-11.89 16.008-12.23 18.047 2.05-.34 15.86-12.297 18.01-12.301 20.98-.039 38.03 16.929 38.07 37.91.04 20.984-16.94 38.027-37.92 38.078" style="fill:#ed1c24;fill-opacity:1;fill-rule:nonzero;stroke:none" transform="matrix(.13333 0 0 -.13333 0 257.333)"></path><path d="m1424.42 944.133-.07-35.418 1.6-.297c3.65 9.652 14.56 34.332 21.23 32.652l.4 1.61c-7.76 1.965-17.67-20.094-21.56-29.625.01 6.695.06 31.078.06 31.078z" style="fill:#231f20;fill-opacity:1;fill-rule:nonzero;stroke:none" transform="matrix(.13333 0 0 -.13333 0 257.333)"></path><path d="M1405.11 941.16c6.91-1.75 16.26-24.219 19.28-32.722l1.57.554c-.46 1.285-11.27 31.457-20.44 33.77zM1477.31 891.02l-35.42.07-.29 1.609c9.67 3.606 34.4 14.418 32.74 21.094l1.61.398c1.93-7.777-20.16-17.586-29.7-21.445 6.68-.012 31.06-.062 31.06-.062z" style="fill:#231f20;fill-opacity:1;fill-rule:nonzero;stroke:none" transform="matrix(.13333 0 0 -.13333 0 257.333)"></path><path d="M1474.25 871.734c-1.71 6.914-24.14 16.356-32.64 19.411l.56 1.558c1.29-.457 31.42-11.383 33.69-20.566zM1371.86 891.238l35.43-.07.29 1.605c-9.66 3.641-34.33 14.555-32.66 21.223l-1.6.406c-1.96-7.773 20.08-17.672 29.62-21.57-6.7.012-31.08.063-31.08.063z" style="fill:#231f20;fill-opacity:1;fill-rule:nonzero;stroke:none" transform="matrix(.13333 0 0 -.13333 0 257.333)"></path><path d="M1374.84 871.934c1.74 6.906 24.21 16.257 32.72 19.277l-.55 1.57c-1.29-.461-31.47-11.265-33.78-20.437zM1424.21 842l.07 35.418 1.61.289c3.59-9.668 14.41-34.387 21.09-32.738l.4-1.61c-7.78-1.929-17.59 20.164-21.45 29.707-.01-6.687-.06-31.07-.06-31.07z" style="fill:#231f20;fill-opacity:1;fill-rule:nonzero;stroke:none" transform="matrix(.13333 0 0 -.13333 0 257.333)"></path><path d="M1404.91 845.055c6.92 1.715 16.36 24.144 19.42 32.64l1.56-.554c-.46-1.286-11.39-31.426-20.57-33.696z" style="fill:#231f20;fill-opacity:1;fill-rule:nonzero;stroke:none" transform="matrix(.13333 0 0 -.13333 0 257.333)"></path><path d="M1439.18 903.523c-.68 0-5.12-3.816-5.78-3.921.12.656 3.94 5.082 3.94 5.769.02 6.723-5.43 12.18-12.14 12.195-6.72.016-12.18-5.418-12.2-12.144 0-.688 3.81-5.504 3.91-6.156-.64.109-5.07 4.312-5.76 4.312-6.72.012-12.18-5.422-12.19-12.144-.02-6.723 5.42-12.184 12.14-12.196.69-.004 5.13 3.809 5.78 3.914-.1-.656-3.94-5.078-3.94-5.761-.01-6.723 5.43-12.18 12.15-12.196 6.72-.011 12.19 5.422 12.2 12.145 0 .687-3.82 5.129-3.92 5.781.65-.109 5.08-3.937 5.77-3.945 6.72-.008 12.18 5.426 12.19 12.148.01 6.719-5.43 12.184-12.15 12.199" style="fill:#f68712;fill-opacity:1;fill-rule:nonzero;stroke:none" transform="matrix(.13333 0 0 -.13333 0 257.333)"></path><path d="M1425.16 898.527a7.14 7.14 0 0 0 7.13-7.16c0-3.949-3.22-7.14-7.16-7.137-3.95.012-7.15 3.219-7.14 7.168a7.15 7.15 0 0 0 7.17 7.129M1344.36 1056.78c2.06-9.96-4.35-19.71-14.31-21.76-9.97-2.06-19.71 4.35-21.77 14.31-2.06 9.97 4.35 19.71 14.31 21.77s19.71-4.35 21.77-14.32" style="fill:#231f20;fill-opacity:1;fill-rule:nonzero;stroke:none" transform="matrix(.13333 0 0 -.13333 0 257.333)"></path><path d="M1336.44 1068.45c8.5-5.59 10.86-17.02 5.27-25.51-5.59-8.51-17.01-10.86-25.51-5.28-8.5 5.6-10.86 17.01-5.27 25.52 5.59 8.5 17.01 10.86 25.51 5.27" style="fill:#231f20;fill-opacity:1;fill-rule:nonzero;stroke:none" transform="matrix(.13333 0 0 -.13333 0 257.333)"></path><path d="M1361.48 1099.12c-2.1-.44-13.24-14.92-15.17-15.67-.09 2.08 8.8 18.05 8.37 20.14-4.25 20.55-24.35 33.77-44.89 29.53-20.56-4.25-33.77-24.35-29.53-44.9.44-2.09 15.16-14.39 15.91-16.33-2.08-.07-18.28 9.95-20.38 9.53-20.55-4.25-33.77-24.35-29.52-44.9 4.24-20.55 24.34-33.76 44.89-29.52 2.09.43 13.24 14.92 15.17 15.66.08-2.07-8.81-18.04-8.37-20.13 4.25-20.557 24.34-33.772 44.9-29.53 20.55 4.25 33.76 24.34 29.52 44.9-.44 2.09-14.92 13.23-15.67 15.17 2.07.08 18.04-8.8 20.14-8.37 20.55 4.25 33.77 24.35 29.53 44.89-4.25 20.55-24.35 33.77-44.9 29.53" style="fill:#ed1c24;fill-opacity:1;fill-rule:nonzero;stroke:none" transform="matrix(.13333 0 0 -.13333 0 257.333)"></path><path d="m1314.84 1104.55 7.16-34.69 1.63.04c1.59 10.19 7.24 36.58 14.11 36.3l.07 1.66c-8.01.34-13.2-23.28-15.06-33.4-1.36 6.55-6.29 30.43-6.29 30.43z" style="fill:#231f20;fill-opacity:1;fill-rule:nonzero;stroke:none" transform="matrix(.13333 0 0 -.13333 0 257.333)"></path><path d="M1296.54 1097.7c7.12-.31 20.87-20.39 25.57-28.1l1.41.86c-.71 1.17-17.45 28.5-26.91 28.89zM1377.46 1063.36l-34.69-7.16-.61 1.51c8.73 5.5 30.72 21.14 27.73 27.34l1.5.72c3.48-7.22-16.14-21.34-24.69-27.07 6.55 1.36 30.43 6.29 30.43 6.29z" style="fill:#231f20;fill-opacity:1;fill-rule:nonzero;stroke:none" transform="matrix(.13333 0 0 -.13333 0 257.333)"></path><path d="M1378.41 1043.86c-3.09 6.41-26.98 11.08-35.92 12.33l.23 1.64c1.35-.18 33.08-4.72 37.19-13.26zM1274.19 1042.03l34.69 7.17-.04 1.62c-10.19 1.61-36.58 7.25-36.3 14.12l-1.66.06c-.33-8 23.28-13.19 33.4-15.06-6.55-1.35-30.42-6.28-30.42-6.28z" style="fill:#231f20;fill-opacity:1;fill-rule:nonzero;stroke:none" transform="matrix(.13333 0 0 -.13333 0 257.333)"></path><path d="M1281.05 1023.75c.29 7.11 20.38 20.86 28.09 25.55l-.86 1.42c-1.16-.7-28.5-17.45-28.88-26.9zM1335.49 1004.53l-7.17 34.68 1.52.61c5.5-8.73 21.14-30.72 27.34-27.73l.71-1.5c-7.21-3.48-21.33 16.14-27.06 24.7 1.35-6.55 6.29-30.43 6.29-30.43z" style="fill:#231f20;fill-opacity:1;fill-rule:nonzero;stroke:none" transform="matrix(.13333 0 0 -.13333 0 257.333)"></path><path d="M1315.98 1003.57c6.42 3.1 11.08 26.98 12.34 35.93l1.64-.23c-.19-1.35-4.73-33.08-13.26-37.18z" style="fill:#231f20;fill-opacity:1;fill-rule:nonzero;stroke:none" transform="matrix(.13333 0 0 -.13333 0 257.333)"></path><path d="M1337.59 1067.81c-.68-.14-4.25-4.78-4.87-5.02-.02.67 2.82 5.78 2.69 6.46-1.36 6.58-7.8 10.81-14.39 9.45-6.57-1.36-10.82-7.79-9.45-14.38.13-.67 4.85-4.61 5.09-5.23-.67-.02-5.86 3.19-6.53 3.05-6.58-1.36-10.82-7.8-9.45-14.38 1.36-6.58 7.79-10.82 14.37-9.46.68.14 4.25 4.78 4.86 5.02.03-.67-2.81-5.78-2.68-6.45 1.36-6.58 7.8-10.81 14.39-9.46 6.58 1.36 10.81 7.8 9.46 14.38-.14.67-4.78 4.24-5.03 4.86.67.03 5.79-2.82 6.45-2.68 6.59 1.37 10.82 7.8 9.46 14.38-1.35 6.58-7.79 10.82-14.37 9.46" style="fill:#f68712;fill-opacity:1;fill-rule:nonzero;stroke:none" transform="matrix(.13333 0 0 -.13333 0 257.333)"></path><path d="M1324.88 1060.06c3.87.8 7.64-1.69 8.44-5.56.81-3.86-1.69-7.64-5.55-8.44-3.88-.8-7.66 1.69-8.45 5.55a7.15 7.15 0 0 0 5.56 8.45M1256.78 736.141c-4.73-9.004-15.87-12.469-24.87-7.746-9.01 4.734-12.47 15.878-7.74 24.875 4.73 9.015 15.87 12.48 24.87 7.757 9.01-4.742 12.48-15.882 7.74-24.886" style="fill:#231f20;fill-opacity:1;fill-rule:nonzero;stroke:none" transform="matrix(.13333 0 0 -.13333 0 257.333)"></path><path d="M1258.06 750.184c3.03-9.719-2.4-20.047-12.11-23.063-9.72-3.023-20.04 2.402-23.06 12.113-3.03 9.715 2.4 20.036 12.11 23.067 9.71 3.023 20.04-2.403 23.06-12.117" style="fill:#231f20;fill-opacity:1;fill-rule:nonzero;stroke:none" transform="matrix(.13333 0 0 -.13333 0 257.333)"></path><path d="M1296.88 757.996c-1.9.996-19.7-3.129-21.67-2.476 1.25 1.652 18.25 8.359 19.25 10.25 9.75 18.574 2.61 41.55-15.97 51.304-18.58 9.762-41.55 2.614-51.3-15.965-1-1.89 2.58-20.734 1.93-22.703-1.65 1.246-7.81 19.285-9.71 20.285-18.58 9.754-41.54 2.61-51.3-15.964-9.76-18.579-2.62-41.543 15.97-51.305 1.89-.996 19.69 3.125 21.66 2.476-1.25-1.648-18.26-8.359-19.25-10.246-9.76-18.589-2.61-41.547 15.97-51.312 18.58-9.754 41.54-2.613 51.31 15.973.99 1.89-3.14 19.695-2.48 21.66 1.64-1.25 8.35-18.246 10.25-19.246 18.57-9.75 41.54-2.61 51.3 15.961 9.76 18.574 2.61 41.546-15.96 51.308" style="fill:#ed1c24;fill-opacity:1;fill-rule:nonzero;stroke:none" transform="matrix(.13333 0 0 -.13333 0 257.333)"></path><path d="m1264.28 791.789-16.48-31.351 1.29-1.004c7.7 6.863 28.8 23.683 33.94 19.097l1.09 1.242c-5.96 5.336-24.96-9.621-32.83-16.261 3.11 5.926 14.45 27.511 14.45 27.511z" style="fill:#231f20;fill-opacity:1;fill-rule:nonzero;stroke:none" transform="matrix(.13333 0 0 -.13333 0 257.333)"></path><path d="M1245.79 798.102c5.31-4.75 3.18-28.993 1.93-37.934l1.64-.234c.19 1.351 4.59 33.093-2.47 39.398zM1286.54 720.223l-31.36 16.472.5 1.559c10.23-1.289 37.15-3.156 38.78 3.523l1.61-.39c-1.89-7.782-26.02-6.246-36.27-5.246 5.93-3.106 27.51-14.45 27.51-14.45z" style="fill:#231f20;fill-opacity:1;fill-rule:nonzero;stroke:none" transform="matrix(.13333 0 0 -.13333 0 257.333)"></path><path d="M1274.89 704.547c1.68 6.918-13.82 25.68-19.93 32.32l1.22 1.125c.92-1 22.56-24.644 20.33-33.844zM1193.19 769.266l31.35-16.473 1.01 1.281c-6.87 7.703-23.68 28.809-19.1 33.942l-1.24 1.101c-5.34-5.976 9.61-24.961 16.25-32.832-5.91 3.11-27.5 14.449-27.5 14.449z" style="fill:#231f20;fill-opacity:1;fill-rule:nonzero;stroke:none" transform="matrix(.13333 0 0 -.13333 0 257.333)"></path><path d="M1186.88 750.777c4.75 5.313 29 3.192 37.93 1.93l.24 1.645c-1.35.187-33.1 4.593-39.4-2.465zM1216.77 701.383l16.47 31.351 1.56-.488c-1.29-10.234-3.16-37.156 3.52-38.785l-.39-1.609c-7.78 1.89-6.25 26.019-5.23 36.265-3.13-5.922-14.46-27.508-14.46-27.508z" style="fill:#231f20;fill-opacity:1;fill-rule:nonzero;stroke:none" transform="matrix(.13333 0 0 -.13333 0 257.333)"></path><path d="M1201.09 713.02c6.92-1.676 25.68 13.828 32.32 19.941l1.13-1.219c-1-.929-24.65-22.566-33.84-20.332z" style="fill:#231f20;fill-opacity:1;fill-rule:nonzero;stroke:none" transform="matrix(.13333 0 0 -.13333 0 257.333)"></path><path d="M1258.54 748.957c-.61.324-6.31-.996-6.94-.785.4.531 5.85 2.676 6.17 3.281 3.12 5.949.83 13.309-5.12 16.434-5.95 3.129-13.31.84-16.43-5.114-.32-.609.83-6.64.62-7.269-.54.394-2.5 6.176-3.11 6.496-5.95 3.117-13.31.836-16.44-5.113-3.12-5.953-.83-13.309 5.11-16.438.61-.32 6.32 1 6.94.793-.39-.531-5.84-2.672-6.16-3.277-3.13-5.953-.83-13.309 5.11-16.442 5.95-3.121 13.31-.835 16.44 5.118.32.601-1 6.308-.8 6.937.53-.398 2.68-5.844 3.29-6.164 5.96-3.121 13.31-.836 16.44 5.113s.83 13.309-5.12 16.43" style="fill:#f68712;fill-opacity:1;fill-rule:nonzero;stroke:none" transform="matrix(.13333 0 0 -.13333 0 257.333)"></path><path d="M1243.8 751.035a7.15 7.15 0 0 0 3.01-9.652 7.156 7.156 0 0 0-9.66-3.004c-3.49 1.836-4.85 6.156-3 9.656a7.144 7.144 0 0 0 9.65 3" style="fill:#231f20;fill-opacity:1;fill-rule:nonzero;stroke:none" transform="matrix(.13333 0 0 -.13333 0 257.333)"></path><path d="M1324.16 1213.52s20.5-88.45 49.54-102.52c29.03-14.07 70.02-12.06 70.02-12.06s-5.13 96.49-63.19 98.5c-32.62 1.13-56.37 16.08-56.37 16.08M1553.25 1036.46s-32.7-56.554-65.57-60.655c-32.86-4.102-76.61 5.062-76.61 5.062s17.18 64.983 79.75 55.323c35.14-5.43 62.43.27 62.43.27M1635.05 1142.29s-86.31 30.59-121.62 7.28c-35.3-23.3-68.04-69.3-68.04-69.3s79.73-52.18 129.91 10.07c28.18 34.96 59.75 51.95 59.75 51.95" style="fill:#3c953d;fill-opacity:1;fill-rule:nonzero;stroke:none" transform="matrix(.13333 0 0 -.13333 0 257.333)"></path><path d="M1378.55 977.273c-59.23-82.375-177.7-184.824-405.671-205.085l1.465-16.543c234.706 20.863 356.956 127.152 418.196 212.636 66.48 92.829 77.03 179.559 77.45 183.209l-16.49 1.89c-.1-.86-10.68-86.72-74.95-176.107" style="fill:#46743b;fill-opacity:1;fill-rule:nonzero;stroke:none" transform="matrix(.13333 0 0 -.13333 0 257.333)"></path><path d="M1485.05 1229.36c0-10.17-8.25-18.42-18.42-18.42s-18.42 8.25-18.42 18.42c0 10.18 8.25 18.43 18.42 18.43s18.42-8.25 18.42-18.43" style="fill:#231f20;fill-opacity:1;fill-rule:nonzero;stroke:none" transform="matrix(.13333 0 0 -.13333 0 257.333)"></path><path d="M1479.65 1242.39c7.2-7.2 7.2-18.86 0-26.05-7.19-7.2-18.85-7.2-26.04 0-7.2 7.19-7.2 18.85 0 26.05 7.19 7.19 18.85 7.19 26.04 0" style="fill:#231f20;fill-opacity:1;fill-rule:nonzero;stroke:none" transform="matrix(.13333 0 0 -.13333 0 257.333)"></path><path d="M1510.38 1267.35c-2.14 0-15.98-11.92-18.03-12.27.34 2.05 12.27 15.89 12.27 18.03 0 20.98-17.01 38-37.99 38s-38-17.02-38-38c0-2.14 11.93-17.16 12.28-19.2-2.05.34-15.89 13.44-18.03 13.44-20.98 0-37.99-17.01-37.99-37.99s17.01-37.99 37.99-38c2.14 0 15.98 11.94 18.03 12.28-.35-2.05-12.28-15.89-12.28-18.03 0-20.99 17.02-37.99 38-37.99s37.99 17 37.99 37.99c0 2.14-11.93 15.98-12.27 18.03 2.05-.34 15.89-12.27 18.03-12.27 20.98 0 38 17.01 38 37.99s-17.02 37.99-38 37.99" style="fill:#ed1c24;fill-opacity:1;fill-rule:nonzero;stroke:none" transform="matrix(.13333 0 0 -.13333 0 257.333)"></path><path d="M1465.8 1282.11v-35.41l1.61-.3c3.62 9.66 14.48 34.37 21.16 32.69l.4 1.61c-7.78 1.95-17.64-20.12-21.51-29.66v31.07z" style="fill:#231f20;fill-opacity:1;fill-rule:nonzero;stroke:none" transform="matrix(.13333 0 0 -.13333 0 257.333)"></path><path d="M1446.5 1279.09c6.91-1.72 16.31-24.17 19.35-32.68l1.56.56c-.46 1.29-11.32 31.44-20.51 33.73zM1518.79 1229.11h-35.41l-.3 1.6c9.67 3.63 34.37 14.49 32.7 21.17l1.61.4c1.95-7.78-20.12-17.64-29.66-21.51h31.06z" style="fill:#231f20;fill-opacity:1;fill-rule:nonzero;stroke:none" transform="matrix(.13333 0 0 -.13333 0 257.333)"></path><path d="M1515.78 1209.81c-1.73 6.91-24.18 16.31-32.68 19.35l.56 1.56c1.28-.45 31.43-11.32 33.73-20.51zM1413.35 1229.11h35.42l.29 1.6c-9.66 3.63-34.37 14.49-32.69 21.17l-1.62.4c-1.94-7.78 20.13-17.64 29.67-21.51h-31.07z" style="fill:#231f20;fill-opacity:1;fill-rule:nonzero;stroke:none" transform="matrix(.13333 0 0 -.13333 0 257.333)"></path><path d="M1416.37 1209.81c1.72 6.91 24.18 16.31 32.68 19.35l-.56 1.56c-1.28-.45-31.44-11.32-33.74-20.51zM1465.8 1179.98v35.42l1.6.29c3.62-9.66 14.48-34.36 21.16-32.7l.4-1.61c-7.77-1.94-17.63 20.13-21.51 29.67v-31.07z" style="fill:#231f20;fill-opacity:1;fill-rule:nonzero;stroke:none" transform="matrix(.13333 0 0 -.13333 0 257.333)"></path><path d="M1446.5 1182.99c6.91 1.73 16.3 24.18 19.34 32.69l1.57-.56c-.46-1.28-11.32-31.44-20.51-33.74z" style="fill:#231f20;fill-opacity:1;fill-rule:nonzero;stroke:none" transform="matrix(.13333 0 0 -.13333 0 257.333)"></path><path d="M1480.64 1241.53c-.68 0-5.12-3.82-5.77-3.93.11.66 3.93 5.09 3.93 5.78 0 6.72-5.45 12.17-12.17 12.17s-12.17-5.45-12.17-12.17c0-.69 3.82-5.5 3.93-6.15-.66.11-5.09 4.3-5.78 4.3-6.72 0-12.16-5.45-12.16-12.17s5.44-12.17 12.16-12.17c.69 0 5.12 3.82 5.78 3.93-.11-.66-3.93-5.09-3.93-5.77 0-6.73 5.45-12.17 12.17-12.17s12.17 5.44 12.17 12.17c0 .68-3.82 5.11-3.93 5.77.65-.11 5.09-3.93 5.77-3.93 6.73 0 12.17 5.45 12.17 12.17s-5.44 12.17-12.17 12.17" style="fill:#f68712;fill-opacity:1;fill-rule:nonzero;stroke:none" transform="matrix(.13333 0 0 -.13333 0 257.333)"></path><path d="M1466.63 1236.51c3.95 0 7.15-3.2 7.15-7.15s-3.2-7.15-7.15-7.15-7.15 3.2-7.15 7.15 3.2 7.15 7.15 7.15" style="fill:#231f20;fill-opacity:1;fill-rule:nonzero;stroke:none" transform="matrix(.13333 0 0 -.13333 0 257.333)"></path><path d="M729.805 1002.4s-17.59-91.244-42.512-105.759c-24.922-14.512-60.102-12.442-60.102-12.442s4.399 99.535 54.235 101.617c28 1.161 48.379 16.584 48.379 16.584M536.75 768.883s29.871 71.812 60.086 79.941c30.215 8.125 70.48 1.196 70.48 1.196s-15.566-80.54-73.144-74.817c-32.344 3.227-57.422-6.32-57.422-6.32M780.621 962.551s47.984-101.231-42.859-113.313c-30.199-4.019-63.551-9.3-63.551-9.3s-7.531 53.597 45.906 62.726c41.727 7.129 60.504 59.887 60.504 59.887M828.895 909.793s54.835-71.051 12.464-98.133c-14.082-8.992-29.382-19.605-29.382-19.605s-19.981 41.062 4.336 58.593c18.984 13.688 12.582 59.145 12.582 59.145M731.246 691.926s85.699 31.887 78.172 65.062c-2.512 11.024-4.629 23.59-4.629 23.59s-42.09-22.316-39.195-42.758c2.258-15.961-34.348-45.894-34.348-45.894" style="fill:#3c953d;fill-opacity:1;fill-rule:nonzero;stroke:none" transform="matrix(.13333 0 0 -.13333 0 257.333)"></path><path d="M483.992 891.344c.024-10.176 8.285-18.403 18.461-18.383s18.406 8.285 18.383 18.457c-.02 10.172-8.285 18.41-18.461 18.387-10.172-.016-18.402-8.285-18.383-18.461" style="fill:#231f20;fill-opacity:1;fill-rule:nonzero;stroke:none" transform="matrix(.13333 0 0 -.13333 0 257.333)"></path><path d="M489.363 904.379c-7.179-7.211-7.156-18.871.051-26.051 7.215-7.176 18.875-7.152 26.051.051 7.18 7.211 7.156 18.871-.051 26.055-7.207 7.179-18.871 7.16-26.051-.055" style="fill:#231f20;fill-opacity:1;fill-rule:nonzero;stroke:none" transform="matrix(.13333 0 0 -.13333 0 257.333)"></path><path d="M420.668 891.211c.043-20.981 17.09-37.949 38.07-37.91 2.145.004 15.961 11.961 18.004 12.301-.332-2.039-12.234-15.907-12.23-18.047.043-20.989 17.082-37.957 38.066-37.918 20.988.047 37.965 17.086 37.918 38.07-.004 2.141-11.965 15.961-12.308 17.996 2.05-.328 15.914-12.238 18.054-12.226 20.985.043 37.957 17.086 37.914 38.066-.039 20.984-17.086 37.961-38.07 37.922-2.141-.012-15.949-13.133-18-13.485.336 2.043 12.238 17.09 12.23 19.231-.043 20.98-17.082 37.957-38.066 37.918-20.984-.043-37.961-17.09-37.914-38.074 0-2.141 11.957-15.957 12.305-18.008-2.043.34-15.911 12.242-18.059 12.242-20.977-.051-37.957-17.094-37.914-38.078" style="fill:#ed1c24;fill-opacity:1;fill-rule:nonzero;stroke:none" transform="matrix(.13333 0 0 -.13333 0 257.333)"></path><path d="m503.141 944.133.07-35.418-1.606-.297c-3.64 9.652-14.558 34.332-21.23 32.652l-.398 1.61c7.765 1.965 17.671-20.094 21.562-29.625l-.059 31.078z" style="fill:#231f20;fill-opacity:1;fill-rule:nonzero;stroke:none" transform="matrix(.13333 0 0 -.13333 0 257.333)"></path><path d="M522.441 941.16c-6.906-1.75-16.257-24.219-19.277-32.722l-1.566.554c.453 1.285 11.261 31.457 20.437 33.77zM450.246 891.02l35.422.07.289 1.609c-9.672 3.606-34.391 14.418-32.738 21.094l-1.61.398c-1.929-7.777 20.164-17.586 29.704-21.445-6.692-.012-31.071-.062-31.071-.062z" style="fill:#231f20;fill-opacity:1;fill-rule:nonzero;stroke:none" transform="matrix(.13333 0 0 -.13333 0 257.333)"></path><path d="M453.301 871.734c1.715 6.914 24.148 16.356 32.64 19.411l-.554 1.558c-1.282-.457-31.418-11.383-33.696-20.566zM555.699 891.238l-35.426-.07-.293 1.605c9.653 3.641 34.336 14.555 32.653 21.223l1.613.406c1.957-7.773-20.094-17.672-29.625-21.57 6.692.012 31.074.063 31.074.063z" style="fill:#231f20;fill-opacity:1;fill-rule:nonzero;stroke:none" transform="matrix(.13333 0 0 -.13333 0 257.333)"></path><path d="M552.719 871.934c-1.739 6.906-24.211 16.257-32.719 19.277l.547 1.57c1.289-.461 31.465-11.265 33.781-20.437zM503.352 842l-.075 35.418-1.605.289c-3.598-9.668-14.418-34.387-21.094-32.738l-.402-1.61c7.781-1.929 17.597 20.164 21.449 29.707.016-6.687.063-31.07.063-31.07z" style="fill:#231f20;fill-opacity:1;fill-rule:nonzero;stroke:none" transform="matrix(.13333 0 0 -.13333 0 257.333)"></path><path d="M522.637 845.055c-6.91 1.715-16.352 24.144-19.407 32.64l-1.562-.554c.461-1.286 11.391-31.426 20.574-33.696z" style="fill:#231f20;fill-opacity:1;fill-rule:nonzero;stroke:none" transform="matrix(.13333 0 0 -.13333 0 257.333)"></path><path d="M476.23 891.324c.012-6.722 5.469-12.156 12.192-12.148.691.008 5.117 3.836 5.766 3.945-.106-.652-3.915-5.094-3.915-5.781.012-6.723 5.477-12.156 12.192-12.145 6.723.016 12.164 5.473 12.148 12.196 0 .683-3.828 5.105-3.941 5.761.656-.105 5.094-3.918 5.785-3.914 6.723.012 12.156 5.473 12.145 12.196-.016 6.722-5.473 12.156-12.2 12.144-.683 0-5.109-4.203-5.761-4.312.109.652 3.918 5.468 3.918 6.156-.012 6.726-5.481 12.16-12.196 12.144-6.722-.015-12.164-5.472-12.144-12.195 0-.687 3.832-5.113 3.937-5.769-.652.105-5.093 3.921-5.781 3.921-6.723-.015-12.156-5.48-12.145-12.199" style="fill:#f68712;fill-opacity:1;fill-rule:nonzero;stroke:none" transform="matrix(.13333 0 0 -.13333 0 257.333)"></path><path d="M502.402 898.527a7.14 7.14 0 0 1-7.136-7.16c.004-3.949 3.214-7.14 7.164-7.137a7.15 7.15 0 0 1 7.133 7.168 7.145 7.145 0 0 1-7.161 7.129M583.195 1056.78c-2.054-9.96 4.352-19.71 14.317-21.76 9.968-2.06 19.711 4.35 21.769 14.31 2.055 9.97-4.351 19.71-14.312 21.77-9.965 2.06-19.715-4.35-21.774-14.32" style="fill:#231f20;fill-opacity:1;fill-rule:nonzero;stroke:none" transform="matrix(.13333 0 0 -.13333 0 257.333)"></path><path d="M591.117 1068.45c-8.5-5.59-10.863-17.02-5.265-25.51 5.589-8.51 17.007-10.86 25.507-5.28 8.5 5.6 10.86 17.01 5.274 25.52-5.59 8.5-17.016 10.86-25.516 5.27" style="fill:#231f20;fill-opacity:1;fill-rule:nonzero;stroke:none" transform="matrix(.13333 0 0 -.13333 0 257.333)"></path><path d="M521.184 1069.59c-4.246-20.54 8.976-40.64 29.527-44.89 2.098-.43 18.062 8.45 20.137 8.37-.746-1.94-15.235-13.08-15.664-15.17-4.246-20.56 8.972-40.65 29.523-44.9 20.547-4.242 40.648 8.973 44.895 29.53.425 2.09-8.457 18.06-8.375 20.13 1.933-.74 13.07-15.23 15.171-15.66 20.555-4.24 40.653 8.97 44.895 29.52s-8.973 40.65-29.52 44.9c-2.101.42-18.304-9.6-20.378-9.53.746 1.94 15.468 14.24 15.902 16.33 4.242 20.55-8.973 40.65-29.524 44.9-20.546 4.24-40.648-8.98-44.89-29.53-.434-2.09 8.453-18.06 8.371-20.14-1.938.75-13.082 15.23-15.18 15.67-20.547 4.24-40.648-8.98-44.89-29.53" style="fill:#ed1c24;fill-opacity:1;fill-rule:nonzero;stroke:none" transform="matrix(.13333 0 0 -.13333 0 257.333)"></path><path d="m612.723 1104.55-7.164-34.69-1.633.04c-1.594 10.19-7.235 36.58-14.11 36.3l-.07 1.66c8.008.34 13.195-23.28 15.067-33.4 1.355 6.55 6.285 30.43 6.285 30.43z" style="fill:#231f20;fill-opacity:1;fill-rule:nonzero;stroke:none" transform="matrix(.13333 0 0 -.13333 0 257.333)"></path><path d="M631.008 1097.7c-7.113-.31-20.86-20.39-25.555-28.1l-1.414.86c.703 1.17 17.445 28.5 26.902 28.89zM550.098 1063.36l34.691-7.16.606 1.51c-8.727 5.5-30.719 21.14-27.739 27.34l-1.488.72c-3.484-7.22 16.141-21.34 24.695-27.07-6.55 1.36-30.429 6.29-30.429 6.29z" style="fill:#231f20;fill-opacity:1;fill-rule:nonzero;stroke:none" transform="matrix(.13333 0 0 -.13333 0 257.333)"></path><path d="M549.148 1043.86c3.09 6.41 26.981 11.08 35.918 12.33l-.226 1.64c-1.352-.18-33.078-4.72-37.184-13.26zM653.367 1042.03l-34.687 7.17.043 1.62c10.187 1.61 36.578 7.25 36.297 14.12l1.656.06c.332-8-23.278-13.19-33.403-15.06 6.555-1.35 30.434-6.28 30.434-6.28z" style="fill:#231f20;fill-opacity:1;fill-rule:nonzero;stroke:none" transform="matrix(.13333 0 0 -.13333 0 257.333)"></path><path d="M646.512 1023.75c-.293 7.11-20.383 20.86-28.098 25.55l.867 1.42c1.16-.7 28.496-17.45 28.887-26.9zM592.066 1004.53l7.164 34.68-1.507.61c-5.504-8.73-21.141-30.72-27.34-27.73l-.723-1.5c7.219-3.48 21.344 16.14 27.063 24.7l-6.282-30.43z" style="fill:#231f20;fill-opacity:1;fill-rule:nonzero;stroke:none" transform="matrix(.13333 0 0 -.13333 0 257.333)"></path><path d="M611.574 1003.57c-6.414 3.1-11.078 26.98-12.332 35.93l-1.644-.23c.187-1.35 4.73-33.08 13.261-37.18z" style="fill:#231f20;fill-opacity:1;fill-rule:nonzero;stroke:none" transform="matrix(.13333 0 0 -.13333 0 257.333)"></path><path d="M575.594 1058.35c-1.36-6.58 2.871-13.01 9.453-14.38.676-.14 5.793 2.71 6.457 2.68-.242-.62-4.879-4.19-5.02-4.86-1.363-6.58 2.875-13.02 9.461-14.38 6.578-1.35 13.02 2.88 14.375 9.46.141.67-2.699 5.78-2.679 6.45.617-.24 4.187-4.88 4.859-5.02 6.582-1.36 13.02 2.88 14.383 9.46 1.359 6.58-2.875 13.02-9.457 14.38-.672.14-5.863-3.07-6.528-3.05.239.62 4.954 4.56 5.098 5.23 1.359 6.59-2.879 13.02-9.457 14.38-6.586 1.36-13.027-2.87-14.383-9.45-.144-.68 2.707-5.79 2.676-6.46-.621.24-4.184 4.88-4.859 5.02-6.586 1.36-13.016-2.88-14.379-9.46" style="fill:#f68712;fill-opacity:1;fill-rule:nonzero;stroke:none" transform="matrix(.13333 0 0 -.13333 0 257.333)"></path><path d="M602.684 1060.06a7.14 7.14 0 0 1-8.446-5.56c-.8-3.86 1.688-7.64 5.555-8.44a7.15 7.15 0 0 1 8.449 5.55 7.15 7.15 0 0 1-5.558 8.45M670.777 736.141c4.731-9.004 15.868-12.469 24.875-7.746 9.012 4.734 12.473 15.878 7.739 24.875-4.735 9.015-15.871 12.48-24.879 7.757-9.004-4.742-12.465-15.882-7.735-24.886" style="fill:#231f20;fill-opacity:1;fill-rule:nonzero;stroke:none" transform="matrix(.13333 0 0 -.13333 0 257.333)"></path><path d="M669.496 750.184c-3.027-9.719 2.399-20.047 12.113-23.063 9.715-3.023 20.043 2.402 23.063 12.113 3.023 9.715-2.399 20.036-12.121 23.067-9.703 3.023-20.035-2.403-23.055-12.117" style="fill:#231f20;fill-opacity:1;fill-rule:nonzero;stroke:none" transform="matrix(.13333 0 0 -.13333 0 257.333)"></path><path d="M614.715 706.688c9.762-18.571 32.73-25.711 51.305-15.961 1.902 1 8.605 17.996 10.257 19.246.653-1.965-3.476-19.77-2.48-21.66 9.762-18.586 32.726-25.727 51.301-15.973 18.582 9.765 25.73 32.723 15.965 51.312-.993 1.887-17.993 8.598-19.243 10.246 1.969.649 19.77-3.472 21.664-2.476 18.575 9.762 25.727 32.726 15.965 51.305-9.758 18.574-32.722 25.718-51.304 15.964-1.899-1-8.055-19.039-9.704-20.285-.652 1.969 2.922 20.813 1.93 22.703-9.762 18.579-32.73 25.727-51.308 15.965-18.571-9.754-25.715-32.73-15.961-51.304.996-1.891 17.996-8.598 19.25-10.25-1.969-.653-19.774 3.472-21.672 2.476-18.571-9.762-25.723-32.734-15.965-51.308" style="fill:#ed1c24;fill-opacity:1;fill-rule:nonzero;stroke:none" transform="matrix(.13333 0 0 -.13333 0 257.333)"></path><path d="m663.281 791.789 16.477-31.351-1.285-1.004c-7.7 6.863-28.805 23.683-33.938 19.097l-1.105 1.242c5.976 5.336 24.972-9.621 32.84-16.261l-14.457 27.511z" style="fill:#231f20;fill-opacity:1;fill-rule:nonzero;stroke:none" transform="matrix(.13333 0 0 -.13333 0 257.333)"></path><path d="M681.773 798.102c-5.316-4.75-3.187-28.993-1.925-37.934l-1.649-.234c-.187 1.351-4.594 33.093 2.465 39.398zM641.02 720.223l31.351 16.472-.484 1.559c-10.239-1.289-37.16-3.156-38.785 3.523l-1.61-.39c1.891-7.782 26.016-6.246 36.258-5.246-5.918-3.106-27.504-14.45-27.504-14.45z" style="fill:#231f20;fill-opacity:1;fill-rule:nonzero;stroke:none" transform="matrix(.13333 0 0 -.13333 0 257.333)"></path><path d="M652.664 704.547c-1.684 6.918 13.824 25.68 19.934 32.32l-1.219 1.125c-.926-1-22.566-24.644-20.328-33.844zM734.371 769.266l-31.359-16.473-1 1.281c6.863 7.703 23.676 28.809 19.097 33.942l1.243 1.101c5.336-5.976-9.622-24.961-16.262-32.832l27.512 14.449z" style="fill:#231f20;fill-opacity:1;fill-rule:nonzero;stroke:none" transform="matrix(.13333 0 0 -.13333 0 257.333)"></path><path d="M740.676 750.777c-4.742 5.313-28.988 3.192-37.934 1.93l-.23 1.645c1.343.187 33.097 4.593 39.398-2.465zM710.789 701.383l-16.473 31.351-1.55-.488c1.281-10.234 3.152-37.156-3.536-38.785l.395-1.609c7.785 1.89 6.254 26.019 5.242 36.265 3.117-5.922 14.453-27.508 14.453-27.508z" style="fill:#231f20;fill-opacity:1;fill-rule:nonzero;stroke:none" transform="matrix(.13333 0 0 -.13333 0 257.333)"></path><path d="M726.473 713.02c-6.922-1.676-25.68 13.828-32.328 19.941l-1.125-1.219c1.007-.929 24.648-22.566 33.839-20.332z" style="fill:#231f20;fill-opacity:1;fill-rule:nonzero;stroke:none" transform="matrix(.13333 0 0 -.13333 0 257.333)"></path><path d="M663.906 732.527c3.121-5.949 10.481-8.234 16.43-5.113.609.32 2.762 5.766 3.281 6.164.211-.629-1.109-6.336-.793-6.937 3.133-5.953 10.489-8.239 16.442-5.118 5.945 3.133 8.238 10.489 5.117 16.442-.324.605-5.766 2.746-6.168 3.277.629.207 6.332-1.113 6.937-.793 5.95 3.129 8.239 10.485 5.11 16.438-3.121 5.949-10.481 8.23-16.43 5.113-.609-.32-2.582-6.102-3.109-6.496-.207.629.933 6.66.617 7.269-3.125 5.954-10.488 8.243-16.438 5.114-5.941-3.125-8.234-10.485-5.113-16.434.32-.605 5.766-2.75 6.168-3.281-.633-.211-6.332 1.109-6.941.785-5.953-3.121-8.239-10.48-5.11-16.43" style="fill:#f68712;fill-opacity:1;fill-rule:nonzero;stroke:none" transform="matrix(.13333 0 0 -.13333 0 257.333)"></path><path d="M683.758 751.035a7.144 7.144 0 0 1-3.008-9.652 7.15 7.15 0 0 1 9.656-3.004 7.143 7.143 0 0 1 3.004 9.656c-1.828 3.488-6.148 4.84-9.652 3" style="fill:#231f20;fill-opacity:1;fill-rule:nonzero;stroke:none" transform="matrix(.13333 0 0 -.13333 0 257.333)"></path><path d="M603.391 1213.52s-20.493-88.45-49.524-102.52-70.019-12.06-70.019-12.06 5.121 96.49 63.187 98.5c32.613 1.13 56.356 16.08 56.356 16.08M374.305 1036.46s32.699-56.554 65.57-60.655c32.863-4.102 76.613 5.062 76.613 5.062s-17.175 64.983-79.746 55.323c-35.14-5.43-62.437.27-62.437.27M292.512 1142.29s86.304 30.59 121.613 7.28c35.301-23.3 68.047-69.3 68.047-69.3s-79.731-52.18-129.91 10.07c-28.188 34.96-59.75 51.95-59.75 51.95" style="fill:#3c953d;fill-opacity:1;fill-rule:nonzero;stroke:none" transform="matrix(.13333 0 0 -.13333 0 257.333)"></path><path d="M549.004 977.273c59.238-82.375 177.695-184.824 405.676-205.085l-1.469-16.543C718.504 776.508 596.25 882.797 535.023 968.281c-66.488 92.829-77.043 179.559-77.457 183.209l16.493 1.89c.101-.86 10.675-86.72 74.945-176.107" style="fill:#46743b;fill-opacity:1;fill-rule:nonzero;stroke:none" transform="matrix(.13333 0 0 -.13333 0 257.333)"></path><path d="M442.512 1229.36c0-10.17 8.242-18.42 18.414-18.42 10.179 0 18.426 8.25 18.426 18.42 0 10.18-8.247 18.43-18.426 18.43-10.172 0-18.414-8.25-18.414-18.43" style="fill:#231f20;fill-opacity:1;fill-rule:nonzero;stroke:none" transform="matrix(.13333 0 0 -.13333 0 257.333)"></path><path d="M447.906 1242.39c-7.199-7.2-7.199-18.86 0-26.05 7.192-7.2 18.86-7.2 26.051 0 7.191 7.19 7.191 18.85 0 26.05-7.191 7.19-18.859 7.19-26.051 0" style="fill:#231f20;fill-opacity:1;fill-rule:nonzero;stroke:none" transform="matrix(.13333 0 0 -.13333 0 257.333)"></path><path d="M379.184 1229.36c0-20.98 17.011-37.99 37.992-37.99 2.144 0 15.988 11.93 18.035 12.27-.344-2.05-12.27-15.89-12.27-18.03 0-20.99 17.008-37.99 37.985-37.99 20.988 0 38 17 38 37.99 0 2.14-11.934 15.98-12.274 18.03 2.047-.34 15.887-12.28 18.028-12.28 20.984.01 37.992 17.02 37.992 38s-17.008 37.99-37.992 37.99c-2.141 0-15.981-13.1-18.028-13.44.34 2.04 12.274 17.06 12.274 19.2 0 20.98-17.012 38-38 38-20.977 0-37.985-17.02-37.985-38 0-2.14 11.926-15.98 12.27-18.03-2.047.35-15.891 12.27-18.035 12.27-20.981 0-37.992-17.01-37.992-37.99" style="fill:#ed1c24;fill-opacity:1;fill-rule:nonzero;stroke:none" transform="matrix(.13333 0 0 -.13333 0 257.333)"></path><path d="M461.762 1282.11v-35.41l-1.61-.3c-3.621 9.66-14.484 34.37-21.16 32.69l-.398 1.61c7.773 1.95 17.633-20.12 21.508-29.66v31.07z" style="fill:#231f20;fill-opacity:1;fill-rule:nonzero;stroke:none" transform="matrix(.13333 0 0 -.13333 0 257.333)"></path><path d="M481.055 1279.09c-6.907-1.72-16.305-24.17-19.348-32.68l-1.559.56c.457 1.29 11.325 31.44 20.504 33.73zM408.762 1229.11h35.418l.297 1.6c-9.664 3.63-34.368 14.49-32.7 21.17l-1.605.4c-1.945-7.78 20.125-17.64 29.664-21.51h-31.074z" style="fill:#231f20;fill-opacity:1;fill-rule:nonzero;stroke:none" transform="matrix(.13333 0 0 -.13333 0 257.333)"></path><path d="M411.777 1209.81c1.731 6.91 24.184 16.31 32.684 19.35l-.559 1.56c-1.285-.45-31.437-11.32-33.73-20.51zM514.211 1229.11h-35.418l-.293 1.6c9.66 3.63 34.359 14.49 32.695 21.17l1.606.4c1.949-7.78-20.125-17.64-29.66-21.51h31.07z" style="fill:#231f20;fill-opacity:1;fill-rule:nonzero;stroke:none" transform="matrix(.13333 0 0 -.13333 0 257.333)"></path><path d="M511.195 1209.81c-1.73 6.91-24.179 16.31-32.679 19.35l.554 1.56c1.282-.45 31.438-11.32 33.731-20.51zM461.766 1179.98v35.42l-1.606.29c-3.621-9.66-14.484-34.36-21.16-32.7l-.402-1.61c7.773-1.94 17.629 20.13 21.507 29.67v-31.07z" style="fill:#231f20;fill-opacity:1;fill-rule:nonzero;stroke:none" transform="matrix(.13333 0 0 -.13333 0 257.333)"></path><path d="M481.059 1182.99c-6.907 1.73-16.305 24.18-19.344 32.69l-1.563-.56c.457-1.28 11.325-31.44 20.508-33.74z" style="fill:#231f20;fill-opacity:1;fill-rule:nonzero;stroke:none" transform="matrix(.13333 0 0 -.13333 0 257.333)"></path><path d="M434.742 1229.36c0-6.72 5.446-12.17 12.172-12.17.684 0 5.117 3.82 5.774 3.93-.106-.66-3.93-5.09-3.93-5.77 0-6.73 5.453-12.17 12.168-12.17 6.722 0 12.172 5.44 12.172 12.17 0 .68-3.817 5.11-3.926 5.77.652-.11 5.086-3.93 5.773-3.93 6.723 0 12.172 5.45 12.172 12.17s-5.449 12.17-12.172 12.17c-.687 0-5.121-4.19-5.773-4.3.109.65 3.926 5.46 3.926 6.15 0 6.72-5.45 12.17-12.172 12.17-6.715 0-12.168-5.45-12.168-12.17 0-.69 3.824-5.12 3.93-5.78-.657.11-5.09 3.93-5.774 3.93-6.726 0-12.172-5.45-12.172-12.17" style="fill:#f68712;fill-opacity:1;fill-rule:nonzero;stroke:none" transform="matrix(.13333 0 0 -.13333 0 257.333)"></path><path d="M460.926 1236.51a7.15 7.15 0 0 1 0-14.3c3.953 0 7.152 3.2 7.152 7.15s-3.199 7.15-7.152 7.15" style="fill:#231f20;fill-opacity:1;fill-rule:nonzero;stroke:none" transform="matrix(.13333 0 0 -.13333 0 257.333)"></path><path d="m854.012 772.891 106.265-37.633h6.645l102.948 37.633z" style="fill:#2c4923;fill-opacity:1;fill-rule:nonzero;stroke:none" transform="matrix(.13333 0 0 -.13333 0 257.333)"></path><path d="M965.074 1580.28c-168.191.72-305.136-135.06-305.859-303.28s135.047-305.168 303.242-305.887c168.213-.73 305.163 135.047 305.883 303.267.73 168.22-135.05 305.17-303.266 305.9" style="fill:#231f20;fill-opacity:1;fill-rule:nonzero;stroke:none" transform="matrix(.13333 0 0 -.13333 0 257.333)"></path><path d="m874.547 1040.33 81.617 41.11v95.58l-88.375 66.52-93.094-30.64-4.234-85.71c9.48-16.21 42.117-64.59 104.086-86.86M774.313 1419.99c-54.965-41.02-64.59-118.16-66.086-135.99l64.425-64.79 94.887 31.25 33.016 105.25-41.922 82.24zM1009.7 1359.05l47.96 82.2-45.74 78.25c-9.85 3.05-30.58 8.52-52.303 8.52-22.371 0-43.203-5.82-52.359-8.79l-44.121-75.5 43.168-84.67zM1148.81 1128.6l-4.14 84.08-93.56 30.8-88.309-66.45v-95.7l85.399-32.67-2.23-7.62c62.59 23.32 94.66 73.17 102.84 87.56M1173.68 1487.76l-19.97-66.87c52.77-43.97 61.81-120.02 63.2-136.98l42.98-45.14c1.5 12.1 2.28 24.43 2.28 36.93 0 82.94-33.85 157.98-88.49 212.06" style="fill:#fff;fill-opacity:1;fill-rule:nonzero;stroke:none" transform="matrix(.13333 0 0 -.13333 0 257.333)"></path><path d="M905.574 1525.69c9.723 3.15 30.824 8.97 54.043 8.97 22.903 0 44.233-5.66 54.413-8.83l53.92 29.56c-32.44 12.09-67.53 18.71-104.169 18.71-38.472 0-75.238-7.29-109.011-20.56zM1143.8 1420.24l-80.68 17.19-45.75-78.39 34.09-108.68 95.08-31.31 63.76 64.13c-1.27 16.21-10.35 95.47-66.5 137.06M873.305 1033.74c-61.617 21.77-95.426 68.55-107.078 87.62l-56.774-1.77c41.813-67.98 110.125-117.92 190.543-135.442zM1152.25 1121.38c-11.72-19.2-45.99-66.61-108.58-88.16l-14.26-48.669c79.52 17.859 147.04 67.449 188.55 134.789zM703.395 1289.51c1.097 14.79 9.453 93.8 63.98 138.59l-17.879 59.85c-50.922-53.52-82.187-125.94-82.187-205.65 0-9.85.492-19.59 1.425-29.2z" style="fill:#fff;fill-opacity:1;fill-rule:nonzero;stroke:none" transform="matrix(.13333 0 0 -.13333 0 257.333)"></path><path d="M838.336 1357.63v-16.83z" style="fill:#fcca2d;fill-opacity:1;fill-rule:evenodd;stroke:none" transform="matrix(.13333 0 0 -.13333 0 257.333)"></path><path d="M838.336 1357.63v-16.83Z" style="fill:none;stroke:#231f20;stroke-width:1.05384;stroke-linecap:butt;stroke-linejoin:miter;stroke-miterlimit:2.6131;stroke-dasharray:none;stroke-opacity:1" transform="matrix(.13333 0 0 -.13333 0 257.333)"></path><path d="M1088.67 1320.11v27.31z" style="fill:#fcca2d;fill-opacity:1;fill-rule:evenodd;stroke:none" transform="matrix(.13333 0 0 -.13333 0 257.333)"></path><path d="M1088.67 1320.11v27.31z" style="fill:none;stroke:#231f20;stroke-width:1.05384;stroke-linecap:butt;stroke-linejoin:miter;stroke-miterlimit:2.6131;stroke-dasharray:none;stroke-opacity:1" transform="matrix(.13333 0 0 -.13333 0 257.333)"></path><path d="M1076.81 1205.07c3.58 6.89 5.79 12.41 9.1 26.76z" style="fill:#fcca2d;fill-opacity:1;fill-rule:evenodd;stroke:none" transform="matrix(.13333 0 0 -.13333 0 257.333)"></path><path d="M1076.81 1205.07c3.58 6.89 5.79 12.41 9.1 26.76z" style="fill:none;stroke:#231f20;stroke-width:1.05384;stroke-linecap:butt;stroke-linejoin:miter;stroke-miterlimit:2.6131;stroke-dasharray:none;stroke-opacity:1" transform="matrix(.13333 0 0 -.13333 0 257.333)"></path><path d="M1029.4 1150.99c-16.55-10.47-35.295-16.27-51.017-17.92v-2.49z" style="fill:#fcca2d;fill-opacity:1;fill-rule:evenodd;stroke:none" transform="matrix(.13333 0 0 -.13333 0 257.333)"></path><path d="M1029.4 1150.99c-16.55-10.47-35.295-16.27-51.017-17.92v-2.49 0z" style="fill:none;stroke:#231f20;stroke-width:1.05384;stroke-linecap:square;stroke-linejoin:bevel;stroke-miterlimit:2.6131;stroke-dasharray:none;stroke-opacity:1" transform="matrix(.13333 0 0 -.13333 0 257.333)"></path><path d="m839.164 1243.41-.828 25.38z" style="fill:#fcca2d;fill-opacity:1;fill-rule:evenodd;stroke:none" transform="matrix(.13333 0 0 -.13333 0 257.333)"></path><path d="m839.164 1243.41-.828 25.38z" style="fill:none;stroke:#231f20;stroke-width:1.05384;stroke-linecap:butt;stroke-linejoin:miter;stroke-miterlimit:2.6131;stroke-dasharray:none;stroke-opacity:1" transform="matrix(.13333 0 0 -.13333 0 257.333)"></path><path d="M948.332 1133.07q7.449-.84 14.891-.84c5.242 0 10.207.28 15.16.84z" style="fill:#fcca2d;fill-opacity:1;fill-rule:evenodd;stroke:none" transform="matrix(.13333 0 0 -.13333 0 257.333)"></path><path d="M948.332 1133.07q7.449-.84 14.891-.84c5.242 0 10.207.28 15.16.84z" style="fill:none;stroke:#231f20;stroke-width:1.05384;stroke-linecap:butt;stroke-linejoin:miter;stroke-miterlimit:2.6131;stroke-dasharray:none;stroke-opacity:1" transform="matrix(.13333 0 0 -.13333 0 257.333)"></path><path d="M978.383 1420.81h-30.051z" style="fill:#fcca2d;fill-opacity:1;fill-rule:evenodd;stroke:#231f20;stroke-width:1.05384;stroke-linecap:butt;stroke-linejoin:miter;stroke-miterlimit:2.6131;stroke-dasharray:none;stroke-opacity:1" transform="matrix(.13333 0 0 -.13333 0 257.333)"></path><path d="M1088.39 1379.15v29.8z" style="fill:#fcca2d;fill-opacity:1;fill-rule:evenodd;stroke:none" transform="matrix(.13333 0 0 -.13333 0 257.333)"></path><path d="M1088.39 1379.15v29.8z" style="fill:none;stroke:#231f20;stroke-width:1.05384;stroke-linecap:butt;stroke-linejoin:miter;stroke-miterlimit:2.6131;stroke-dasharray:none;stroke-opacity:1" transform="matrix(.13333 0 0 -.13333 0 257.333)"></path><path d="M1088.39 1264.94v25.93z" style="fill:#fcca2d;fill-opacity:1;fill-rule:evenodd;stroke:none" transform="matrix(.13333 0 0 -.13333 0 257.333)"></path><path d="M1088.39 1264.94v25.93z" style="fill:none;stroke:#231f20;stroke-width:1.05384;stroke-linecap:butt;stroke-linejoin:miter;stroke-miterlimit:2.6131;stroke-dasharray:none;stroke-opacity:1" transform="matrix(.13333 0 0 -.13333 0 257.333)"></path><path d="M1067.43 1187.96c-2.2-3.03-5.79-8.27-9.37-12.42-3.31-3.86-6.89-7.16-10.19-10.75z" style="fill:#fcca2d;fill-opacity:1;fill-rule:evenodd;stroke:none" transform="matrix(.13333 0 0 -.13333 0 257.333)"></path><path d="M1067.43 1187.96c-2.2-3.03-5.79-8.27-9.37-12.42-3.31-3.86-6.89-7.16-10.19-10.75z" style="fill:none;stroke:#231f20;stroke-width:1.05384;stroke-linecap:butt;stroke-linejoin:miter;stroke-miterlimit:2.6131;stroke-dasharray:none;stroke-opacity:1" transform="matrix(.13333 0 0 -.13333 0 257.333)"></path><path d="M838.336 1314.87v25.93z" style="fill:#fcca2d;fill-opacity:1;fill-rule:evenodd;stroke:none" transform="matrix(.13333 0 0 -.13333 0 257.333)"></path><path d="M838.336 1314.87v25.93z" style="fill:none;stroke:#231f20;stroke-width:1.05384;stroke-linecap:butt;stroke-linejoin:miter;stroke-miterlimit:2.6131;stroke-dasharray:none;stroke-opacity:1" transform="matrix(.13333 0 0 -.13333 0 257.333)"></path><path d="M838.336 1395.14v-37.51z" style="fill:#fcca2d;fill-opacity:1;fill-rule:evenodd;stroke:none" transform="matrix(.13333 0 0 -.13333 0 257.333)"></path><path d="M838.336 1395.14v-37.51z" style="fill:none;stroke:#231f20;stroke-width:1.05384;stroke-linecap:butt;stroke-linejoin:miter;stroke-miterlimit:2.6131;stroke-dasharray:none;stroke-opacity:1" transform="matrix(.13333 0 0 -.13333 0 257.333)"></path><path d="M844.953 1216.38c1.652-3.59 3.582-9.38 6.063-14.35 2.211-4.42 4.691-8.83 7.449-12.96z" style="fill:#fcca2d;fill-opacity:1;fill-rule:evenodd;stroke:none" transform="matrix(.13333 0 0 -.13333 0 257.333)"></path><path d="M844.953 1216.38c1.652-3.59 3.582-9.38 6.063-14.35 2.211-4.42 4.691-8.83 7.449-12.96z" style="fill:none;stroke:#231f20;stroke-width:1.05384;stroke-linecap:butt;stroke-linejoin:miter;stroke-miterlimit:2.6131;stroke-dasharray:none;stroke-opacity:1" transform="matrix(.13333 0 0 -.13333 0 257.333)"></path><path d="M1088.39 1257.21c0-68.97-55.96-124.98-125.167-124.98-68.922 0-124.887 56.01-124.887 124.98v163.6h250.054z" style="fill:#d91920;fill-opacity:1;fill-rule:evenodd;stroke:none" transform="matrix(.13333 0 0 -.13333 0 257.333)" data-source="https://football-logos.cc"></path><path d="M1088.39 1257.21c0-68.97-55.96-124.98-125.167-124.98-68.922 0-124.887 56.01-124.887 124.98v163.6h250.054z" style="fill:none;stroke:#231f20;stroke-width:1.05384;stroke-linecap:butt;stroke-linejoin:miter;stroke-miterlimit:2.6131;stroke-dasharray:none;stroke-opacity:1" transform="matrix(.13333 0 0 -.13333 0 257.333)"></path><path d="M1035.73 1259.97c0-41.39-32.53-74.77-72.23-74.77-39.699 0-71.953 33.38-71.953 74.77v106.76h144.183z" style="fill:#fff;fill-opacity:1;fill-rule:evenodd;stroke:none" transform="matrix(.13333 0 0 -.13333 0 257.333)"></path><path d="M1035.73 1259.97c0-41.39-32.53-74.77-72.23-74.77-39.699 0-71.953 33.38-71.953 74.77v106.76h144.183z" style="fill:none;stroke:#231f20;stroke-width:1.05384;stroke-linecap:butt;stroke-linejoin:miter;stroke-miterlimit:2.6131;stroke-dasharray:none;stroke-opacity:1" transform="matrix(.13333 0 0 -.13333 0 257.333)"></path><path d="m884.652 1374.46-5.789 18.75h-26.461l-6.07-18.75z" style="fill:#fcca2d;fill-opacity:1;fill-rule:evenodd;stroke:none" transform="matrix(.13333 0 0 -.13333 0 257.333)"></path><path d="m884.652 1374.46-5.789 18.75h-26.461l-6.07-18.75z" style="fill:none;stroke:#231f20;stroke-width:.574443;stroke-linecap:butt;stroke-linejoin:miter;stroke-miterlimit:2.6131;stroke-dasharray:none;stroke-opacity:1" transform="matrix(.13333 0 0 -.13333 0 257.333)"></path><path d="M877.758 1392.94v14.62h-24.531v-14.62z" style="fill:#fcca2d;fill-opacity:1;fill-rule:evenodd;stroke:none" transform="matrix(.13333 0 0 -.13333 0 257.333)"></path><path d="M877.758 1392.94v14.62h-24.531v-14.62z" style="fill:none;stroke:#231f20;stroke-width:.574443;stroke-linecap:butt;stroke-linejoin:miter;stroke-miterlimit:2.6131;stroke-dasharray:none;stroke-opacity:1" transform="matrix(.13333 0 0 -.13333 0 257.333)"></path><path d="m879.691 1407.56 1.106 3.04v3.31h-4.692v-3.31l-1.652-.27-.277 3.58h-4.684l.27-3.58h-1.93v3.58h-4.953v-3.31h-1.656v3.31h-4.688v-3.31h-1.933v3.31h-4.692v-3.31l1.387-3.04z" style="fill:#fcca2d;fill-opacity:1;fill-rule:evenodd;stroke:none" transform="matrix(.13333 0 0 -.13333 0 257.333)"></path><path d="m879.691 1407.56 1.106 3.04v3.31h-4.692v-3.31l-1.652-.27-.277 3.58h-4.684l.27-3.58h-1.93v3.58h-4.953v-3.31h-1.656v3.31h-4.688v-3.31h-1.933v3.31h-4.692v-3.31l1.387-3.04z" style="fill:none;stroke:#231f20;stroke-width:.574443;stroke-linecap:butt;stroke-linejoin:miter;stroke-miterlimit:2.6131;stroke-dasharray:none;stroke-opacity:1" transform="matrix(.13333 0 0 -.13333 0 257.333)"></path><path d="m982.25 1374.73-5.797 18.48h-26.457l-6.07-18.48z" style="fill:#fcca2d;fill-opacity:1;fill-rule:evenodd;stroke:none" transform="matrix(.13333 0 0 -.13333 0 257.333)"></path><path d="m982.25 1374.73-5.797 18.48h-26.457l-6.07-18.48z" style="fill:none;stroke:#231f20;stroke-width:.574443;stroke-linecap:butt;stroke-linejoin:miter;stroke-miterlimit:2.6131;stroke-dasharray:none;stroke-opacity:1" transform="matrix(.13333 0 0 -.13333 0 257.333)"></path><path d="M975.352 1392.94v14.62h-24.258v-14.62z" style="fill:#fcca2d;fill-opacity:1;fill-rule:evenodd;stroke:none" transform="matrix(.13333 0 0 -.13333 0 257.333)"></path><path d="M975.352 1392.94v14.62h-24.258v-14.62z" style="fill:none;stroke:#231f20;stroke-width:.574443;stroke-linecap:butt;stroke-linejoin:miter;stroke-miterlimit:2.6131;stroke-dasharray:none;stroke-opacity:1" transform="matrix(.13333 0 0 -.13333 0 257.333)"></path><path d="m977.555 1407.56 1.117 2.77v3.3h-4.688v-3.3h-1.937v3.3h-4.688v-3.3h-1.648v3.3h-4.969v-3.3h-1.656v3.3h-4.961v-3.3h-1.648v3.3h-4.692v-3.3l1.106-2.77z" style="fill:#fcca2d;fill-opacity:1;fill-rule:evenodd;stroke:none" transform="matrix(.13333 0 0 -.13333 0 257.333)"></path><path d="m977.555 1407.56 1.117 2.77v3.3h-4.688v-3.3h-1.937v3.3h-4.688v-3.3h-1.648v3.3h-4.969v-3.3h-1.656v3.3h-4.961v-3.3h-1.648v3.3h-4.692v-3.3l1.106-2.77z" style="fill:none;stroke:#231f20;stroke-width:.574443;stroke-linecap:butt;stroke-linejoin:miter;stroke-miterlimit:2.6131;stroke-dasharray:none;stroke-opacity:1" transform="matrix(.13333 0 0 -.13333 0 257.333)"></path><path d="m1079.84 1374.73-5.79 18.48h-26.46l-5.79-18.48z" style="fill:#fcca2d;fill-opacity:1;fill-rule:evenodd;stroke:none" transform="matrix(.13333 0 0 -.13333 0 257.333)"></path><path d="m1079.84 1374.73-5.79 18.48h-26.46l-5.79-18.48z" style="fill:none;stroke:#231f20;stroke-width:.574443;stroke-linecap:butt;stroke-linejoin:miter;stroke-miterlimit:2.6131;stroke-dasharray:none;stroke-opacity:1" transform="matrix(.13333 0 0 -.13333 0 257.333)"></path><path d="M1073.22 1392.94v14.62h-24.54v-14.62z" style="fill:#fcca2d;fill-opacity:1;fill-rule:evenodd;stroke:none" transform="matrix(.13333 0 0 -.13333 0 257.333)"></path><path d="M1073.22 1392.94v14.62h-24.54v-14.62z" style="fill:none;stroke:#231f20;stroke-width:.574443;stroke-linecap:butt;stroke-linejoin:miter;stroke-miterlimit:2.6131;stroke-dasharray:none;stroke-opacity:1" transform="matrix(.13333 0 0 -.13333 0 257.333)"></path><path d="m1075.16 1407.56 1.38 2.77v3.3h-4.97v-3.3h-1.65v3.3h-4.97v-3.3h-1.65v3.3h-4.68v-3.3h-1.94v3.3H1052v-3.3h-1.65v3.3h-4.97v-3.3l1.1-2.77z" style="fill:#fcca2d;fill-opacity:1;fill-rule:evenodd;stroke:none" transform="matrix(.13333 0 0 -.13333 0 257.333)"></path><path d="m1075.16 1407.56 1.38 2.77v3.3h-4.97v-3.3h-1.65v3.3h-4.97v-3.3h-1.65v3.3h-4.68v-3.3h-1.94v3.3H1052v-3.3h-1.65v3.3h-4.97v-3.3l1.1-2.77z" style="fill:none;stroke:#231f20;stroke-width:.574443;stroke-linecap:butt;stroke-linejoin:miter;stroke-miterlimit:2.6131;stroke-dasharray:none;stroke-opacity:1" transform="matrix(.13333 0 0 -.13333 0 257.333)"></path><path d="m884.652 1263.28-5.789 18.76h-26.461l-6.07-18.76z" style="fill:#fcca2d;fill-opacity:1;fill-rule:evenodd;stroke:none" transform="matrix(.13333 0 0 -.13333 0 257.333)"></path><path d="m884.652 1263.28-5.789 18.76h-26.461l-6.07-18.76z" style="fill:none;stroke:#231f20;stroke-width:.574443;stroke-linecap:butt;stroke-linejoin:miter;stroke-miterlimit:2.6131;stroke-dasharray:none;stroke-opacity:1" transform="matrix(.13333 0 0 -.13333 0 257.333)"></path><path d="M877.758 1282.04v14.35h-24.531v-14.35z" style="fill:#fcca2d;fill-opacity:1;fill-rule:evenodd;stroke:none" transform="matrix(.13333 0 0 -.13333 0 257.333)"></path><path d="M877.758 1282.04v14.35h-24.531v-14.35z" style="fill:none;stroke:#231f20;stroke-width:.574443;stroke-linecap:butt;stroke-linejoin:miter;stroke-miterlimit:2.6131;stroke-dasharray:none;stroke-opacity:1" transform="matrix(.13333 0 0 -.13333 0 257.333)"></path><path d="m879.691 1296.39 1.379 3.03v3.3h-4.965v-3.58h-1.652v3.58h-4.691v-3.58h-1.93v3.58h-4.684v-3.58h-1.925v3.58h-4.688v-3.58h-1.656v3.58h-4.969v-3.3l1.387-3.03z" style="fill:#fcca2d;fill-opacity:1;fill-rule:evenodd;stroke:none" transform="matrix(.13333 0 0 -.13333 0 257.333)"></path><path d="m879.691 1296.39 1.379 3.03v3.3h-4.965v-3.58h-1.652v3.58h-4.691v-3.58h-1.93v3.58h-4.684v-3.58h-1.925v3.58h-4.688v-3.58h-1.656v3.58h-4.969v-3.3l1.387-3.03z" style="fill:none;stroke:#231f20;stroke-width:.574443;stroke-linecap:butt;stroke-linejoin:miter;stroke-miterlimit:2.6131;stroke-dasharray:none;stroke-opacity:1" transform="matrix(.13333 0 0 -.13333 0 257.333)"></path><path d="m1080.11 1263.28-6.06 18.76h-26.46l-5.79-18.76z" style="fill:#fcca2d;fill-opacity:1;fill-rule:evenodd;stroke:none" transform="matrix(.13333 0 0 -.13333 0 257.333)"></path><path d="m1080.11 1263.28-6.06 18.76h-26.46l-5.79-18.76z" style="fill:none;stroke:#231f20;stroke-width:.574443;stroke-linecap:butt;stroke-linejoin:miter;stroke-miterlimit:2.6131;stroke-dasharray:none;stroke-opacity:1" transform="matrix(.13333 0 0 -.13333 0 257.333)"></path><path d="M1073.22 1282.04v14.35h-24.54v-14.35z" style="fill:#fcca2d;fill-opacity:1;fill-rule:evenodd;stroke:none" transform="matrix(.13333 0 0 -.13333 0 257.333)"></path><path d="M1073.22 1282.04v14.35h-24.54v-14.35z" style="fill:none;stroke:#231f20;stroke-width:.574443;stroke-linecap:butt;stroke-linejoin:miter;stroke-miterlimit:2.6131;stroke-dasharray:none;stroke-opacity:1" transform="matrix(.13333 0 0 -.13333 0 257.333)"></path><path d="m1075.16 1296.39 1.1 3.03v3.3h-4.69v-3.58h-1.65v3.58h-4.97v-3.58h-1.65v3.58h-4.68v-3.58h-1.94v3.58H1052v-3.58h-1.65v3.58h-4.97v-3.3l1.1-3.03z" style="fill:#fcca2d;fill-opacity:1;fill-rule:evenodd;stroke:none" transform="matrix(.13333 0 0 -.13333 0 257.333)"></path><path d="m1075.16 1296.39 1.1 3.03v3.3h-4.69v-3.58h-1.65v3.58h-4.97v-3.58h-1.65v3.58h-4.68v-3.58h-1.94v3.58H1052v-3.58h-1.65v3.58h-4.97v-3.3l1.1-3.03z" style="fill:none;stroke:#231f20;stroke-width:.574443;stroke-linecap:butt;stroke-linejoin:miter;stroke-miterlimit:2.6131;stroke-dasharray:none;stroke-opacity:1" transform="matrix(.13333 0 0 -.13333 0 257.333)"></path><path d="m997.691 1185.48 18.199 6.62 15.99-21.24-11.3-15.72z" style="fill:#fcca2d;fill-opacity:1;fill-rule:evenodd;stroke:none" transform="matrix(.13333 0 0 -.13333 0 257.333)"></path><path d="m997.691 1185.48 18.199 6.62 15.99-21.24-11.3-15.72z" style="fill:none;stroke:#231f20;stroke-width:.574443;stroke-linecap:butt;stroke-linejoin:miter;stroke-miterlimit:2.6131;stroke-dasharray:none;stroke-opacity:1" transform="matrix(.13333 0 0 -.13333 0 257.333)"></path><path d="m1016.71 1191 11.58 8.83 14.61-19.31-11.58-8.84z" style="fill:#fcca2d;fill-opacity:1;fill-rule:evenodd;stroke:none" transform="matrix(.13333 0 0 -.13333 0 257.333)"></path><path d="m1016.71 1191 11.58 8.83 14.61-19.31-11.58-8.84z" style="fill:none;stroke:#231f20;stroke-width:.574443;stroke-linecap:butt;stroke-linejoin:miter;stroke-miterlimit:2.6131;stroke-dasharray:none;stroke-opacity:1" transform="matrix(.13333 0 0 -.13333 0 257.333)"></path><path d="m1026.91 1201.48 1.66 2.76 2.48 1.93 3.02-3.86-2.75-1.93 1.11-1.38 2.48 1.93 3.03-3.87-2.77-1.92 1.12-1.38 2.75 1.92 2.76-3.58-2.48-2.21.82-1.38 2.76 1.94 3.03-3.59-2.75-2.21 1.1-1.38 2.76 2.21 2.48-3.87-2.48-2.2-3.04-.83z" style="fill:#fcca2d;fill-opacity:1;fill-rule:evenodd;stroke:none" transform="matrix(.13333 0 0 -.13333 0 257.333)"></path><path d="m1026.91 1201.48 1.66 2.76 2.48 1.93 3.02-3.86-2.75-1.93 1.11-1.38 2.48 1.93 3.03-3.87-2.77-1.92 1.12-1.38 2.75 1.92 2.76-3.58-2.48-2.21.82-1.38 2.76 1.94 3.03-3.59-2.75-2.21 1.1-1.38 2.76 2.21 2.48-3.87-2.48-2.2-3.04-.83z" style="fill:none;stroke:#231f20;stroke-width:.574443;stroke-linecap:butt;stroke-linejoin:miter;stroke-miterlimit:2.6131;stroke-dasharray:none;stroke-opacity:1" transform="matrix(.13333 0 0 -.13333 0 257.333)"></path><path d="m929.313 1185.48-18.465 6.62-15.996-20.97 11.312-15.99z" style="fill:#fcca2d;fill-opacity:1;fill-rule:evenodd;stroke:none" transform="matrix(.13333 0 0 -.13333 0 257.333)"></path><path d="m929.313 1185.48-18.465 6.62-15.996-20.97 11.312-15.99z" style="fill:none;stroke:#231f20;stroke-width:.574443;stroke-linecap:butt;stroke-linejoin:miter;stroke-miterlimit:2.6131;stroke-dasharray:none;stroke-opacity:1" transform="matrix(.13333 0 0 -.13333 0 257.333)"></path><path d="m910.566 1191-11.578 8.83-14.886-19.31 11.582-8.84z" style="fill:#fcca2d;fill-opacity:1;fill-rule:evenodd;stroke:none" transform="matrix(.13333 0 0 -.13333 0 257.333)"></path><path d="m910.566 1191-11.578 8.83-14.886-19.31 11.582-8.84z" style="fill:none;stroke:#231f20;stroke-width:.574443;stroke-linecap:butt;stroke-linejoin:miter;stroke-miterlimit:2.6131;stroke-dasharray:none;stroke-opacity:1" transform="matrix(.13333 0 0 -.13333 0 257.333)"></path><path d="m900.09 1201.75-1.656 2.49-2.477 2.2-3.031-3.86 2.758-1.93-1.102-1.65-2.762 2.2-2.757-3.86 2.484-1.93-.832-1.38-2.758 1.93-2.75-3.86 2.477-1.94-1.102-1.37-2.48 1.92-3.032-3.85 2.754-1.93-1.101-1.38-2.754 1.93-2.762-3.87 2.484-1.92 3.032-.83z" style="fill:#fcca2d;fill-opacity:1;fill-rule:evenodd;stroke:none" transform="matrix(.13333 0 0 -.13333 0 257.333)"></path><path d="m900.09 1201.75-1.656 2.49-2.477 2.2-3.031-3.86 2.758-1.93-1.102-1.65-2.762 2.2-2.757-3.86 2.484-1.93-.832-1.38-2.758 1.93-2.75-3.86 2.477-1.94-1.102-1.37-2.48 1.92-3.032-3.85 2.754-1.93-1.101-1.38-2.754 1.93-2.762-3.87 2.484-1.92 3.032-.83zM961.289 1395.7v4.96c0 2.48-1.648 4.42-3.578 4.42-1.922 0-3.309-1.94-3.309-4.42v-4.96zM863.426 1395.7v4.96c0 2.48-1.383 4.42-3.313 4.42-1.929 0-3.578-1.94-3.578-4.42v-4.96zM867.293 1395.7v4.96c0 2.48 1.645 4.42 3.293 4.42 1.934 0 3.59-1.94 3.59-4.42v-4.96zM860.113 1374.73v8c0 3.86 1.383 7.18 5.516 7.18s5.512-3.32 5.512-7.18v-8zM964.879 1395.7v4.96c0 2.48 1.648 4.42 3.586 4.42 1.93 0 3.312-1.94 3.312-4.42v-4.96zM957.711 1374.73v8c0 3.86 1.656 7.18 5.512 7.18 4.136 0 5.519-3.32 5.519-7.18v-8zM1058.89 1395.7v4.96c0 2.48-1.65 4.42-3.31 4.42-1.92 0-3.58-1.94-3.58-4.42v-4.96zM1062.75 1395.7v4.96c0 2.48 1.38 4.42 3.31 4.42s3.58-1.94 3.58-4.42v-4.96zM1055.3 1374.73v8c0 3.86 1.66 7.18 5.8 7.18 4.13 0 5.51-3.32 5.51-7.18v-8zM863.426 1284.52v4.97c0 2.47-1.383 4.41-3.313 4.41-1.929 0-3.578-1.94-3.578-4.41v-4.97zM867.293 1284.52v4.97c0 2.47 1.645 4.41 3.293 4.41 1.934 0 3.59-1.94 3.59-4.41v-4.97zM860.113 1263.55v8.01c0 3.85 1.383 7.17 5.516 7.17s5.512-3.32 5.512-7.17v-8.01zM1058.89 1284.52v4.97c0 2.47-1.65 4.41-3.31 4.41-1.92 0-3.58-1.94-3.58-4.41v-4.97zM1062.75 1284.52v4.97c0 2.47 1.38 4.41 3.31 4.41s3.58-1.94 3.58-4.41v-4.97zM1055.3 1263.55v8.01c0 3.85 1.66 7.17 5.8 7.17 4.13 0 5.51-3.32 5.51-7.17v-8.01zM1026.91 1181.61l3.86 2.77c1.93 1.65 4.4 1.65 5.79 0 1.1-1.38.28-3.86-1.65-5.25l-3.86-3.03zM1024.43 1184.65l4.14 2.76c1.93 1.66 2.48 4.14 1.37 5.52-1.1 1.66-3.58 1.66-5.51 0l-4.14-3.04zM1012.3 1166.16l6.34 4.7c3.31 2.48 4.69 5.51 2.48 8.83-2.76 3.31-6.06 2.47-9.1 0l-6.34-4.69zM899.82 1181.61l-3.863 2.77c-1.926 1.65-4.41 1.65-5.516 0-1.378-1.38-.546-3.86 1.379-5.25l3.864-3.03zM902.297 1184.65l-4.137 2.76c-1.926 1.66-2.476 4.14-1.379 5.52 1.106 1.66 3.59 1.66 5.516 0l4.129-3.04zM914.43 1166.16l-6.344 4.7c-3.027 2.48-4.68 5.51-2.207 8.83 2.484 3.31 5.789 2.47 8.82 0l6.621-4.69z" style="fill:none;stroke:#231f20;stroke-width:.574443;stroke-linecap:butt;stroke-linejoin:miter;stroke-miterlimit:2.6131;stroke-dasharray:none;stroke-opacity:1" transform="matrix(.13333 0 0 -.13333 0 257.333)"></path><path d="M931.246 1250.59a7.413 7.413 0 0 1 7.445 7.44v45.53h-39.976v-45.53c0-4.13 3.308-7.44 7.449-7.44z" style="fill:#3783c2;fill-opacity:1;fill-rule:evenodd;stroke:none" transform="matrix(.13333 0 0 -.13333 0 257.333)"></path><path d="M931.246 1250.59a7.413 7.413 0 0 1 7.445 7.44v45.53h-39.976v-45.53c0-4.13 3.308-7.44 7.449-7.44z" style="fill:none;stroke:#231f20;stroke-width:.574443;stroke-linecap:butt;stroke-linejoin:miter;stroke-miterlimit:2.6131;stroke-dasharray:none;stroke-opacity:1" transform="matrix(.13333 0 0 -.13333 0 257.333)"></path><path d="M995.754 1250.59c-4.406 0-7.715 3.31-7.715 7.44v45.53h40.251v-45.53c0-4.13-3.58-7.44-7.71-7.44z" style="fill:#3783c2;fill-opacity:1;fill-rule:evenodd;stroke:none" transform="matrix(.13333 0 0 -.13333 0 257.333)"></path><path d="M995.754 1250.59c-4.406 0-7.715 3.31-7.715 7.44v45.53h40.251v-45.53c0-4.13-3.58-7.44-7.71-7.44z" style="fill:none;stroke:#231f20;stroke-width:.574443;stroke-linecap:butt;stroke-linejoin:miter;stroke-miterlimit:2.6131;stroke-dasharray:none;stroke-opacity:1" transform="matrix(.13333 0 0 -.13333 0 257.333)"></path><path d="M975.633 1250.59c4.41 0 7.726 3.31 7.726 7.44v45.53h-40.254v-45.53c0-4.13 3.305-7.44 7.711-7.44z" style="fill:#3783c2;fill-opacity:1;fill-rule:evenodd;stroke:none" transform="matrix(.13333 0 0 -.13333 0 257.333)"></path><path d="M975.633 1250.59c4.41 0 7.726 3.31 7.726 7.44v45.53h-40.254v-45.53c0-4.13 3.305-7.44 7.711-7.44z" style="fill:none;stroke:#231f20;stroke-width:.574443;stroke-linecap:butt;stroke-linejoin:miter;stroke-miterlimit:2.6131;stroke-dasharray:none;stroke-opacity:1" transform="matrix(.13333 0 0 -.13333 0 257.333)"></path><path d="M975.633 1194.03c4.41 0 7.726 3.31 7.726 7.45V1247h-40.254v-45.52c0-4.14 3.305-7.45 7.711-7.45z" style="fill:#3783c2;fill-opacity:1;fill-rule:evenodd;stroke:none" transform="matrix(.13333 0 0 -.13333 0 257.333)"></path><path d="M975.633 1194.03c4.41 0 7.726 3.31 7.726 7.45V1247h-40.254v-45.52c0-4.14 3.305-7.45 7.711-7.45z" style="fill:none;stroke:#231f20;stroke-width:.574443;stroke-linecap:butt;stroke-linejoin:miter;stroke-miterlimit:2.6131;stroke-dasharray:none;stroke-opacity:1" transform="matrix(.13333 0 0 -.13333 0 257.333)"></path><path d="M975.633 1307.14c4.41 0 7.726 3.32 7.726 7.46v45.51h-40.254v-45.51c0-4.14 3.305-7.46 7.711-7.46z" style="fill:#3783c2;fill-opacity:1;fill-rule:evenodd;stroke:none" transform="matrix(.13333 0 0 -.13333 0 257.333)"></path><path d="M975.633 1307.14c4.41 0 7.726 3.32 7.726 7.46v45.51h-40.254v-45.51c0-4.14 3.305-7.46 7.711-7.46z" style="fill:none;stroke:#231f20;stroke-width:.574443;stroke-linecap:butt;stroke-linejoin:miter;stroke-miterlimit:2.6131;stroke-dasharray:none;stroke-opacity:1" transform="matrix(.13333 0 0 -.13333 0 257.333)"></path><path d="M954.688 1344.12a4.944 4.944 0 0 0-4.977 4.96c0 2.76 2.211 4.96 4.977 4.96 2.746 0 4.953-2.2 4.953-4.96s-2.207-4.96-4.953-4.96" style="fill:#fcca2d;fill-opacity:1;fill-rule:evenodd;stroke:none" transform="matrix(.13333 0 0 -.13333 0 257.333)"></path><path d="M954.687 1344.12a4.944 4.944 0 0 0-4.976 4.96c0 2.76 2.211 4.96 4.976 4.96 2.746 0 4.954-2.2 4.954-4.96s-2.208-4.96-4.954-4.96z" style="fill:none;stroke:#231f20;stroke-width:.287209;stroke-linecap:butt;stroke-linejoin:miter;stroke-miterlimit:2.6131;stroke-dasharray:none;stroke-opacity:1" transform="matrix(.13333 0 0 -.13333 0 257.333)"></path><path d="M971.777 1344.12c2.75 0 4.957 2.2 4.957 4.96s-2.207 4.96-4.957 4.96c-2.765 0-4.695-2.2-4.695-4.96s1.93-4.96 4.695-4.96" style="fill:#fcca2d;fill-opacity:1;fill-rule:evenodd;stroke:none" transform="matrix(.13333 0 0 -.13333 0 257.333)"></path><path d="M971.777 1344.12c2.75 0 4.957 2.2 4.957 4.96s-2.207 4.96-4.957 4.96c-2.765 0-4.695-2.2-4.695-4.96s1.93-4.96 4.695-4.96z" style="fill:none;stroke:#231f20;stroke-width:.287209;stroke-linecap:butt;stroke-linejoin:miter;stroke-miterlimit:2.6131;stroke-dasharray:none;stroke-opacity:1" transform="matrix(.13333 0 0 -.13333 0 257.333)"></path><path d="M963.223 1328.66a4.95 4.95 0 0 0-4.961 4.97 4.95 4.95 0 0 0 4.961 4.97 4.95 4.95 0 0 0 4.965-4.97c0-2.76-2.208-4.97-4.965-4.97" style="fill:#fcca2d;fill-opacity:1;fill-rule:evenodd;stroke:none" transform="matrix(.13333 0 0 -.13333 0 257.333)"></path><path d="M963.223 1328.66a4.95 4.95 0 0 0-4.961 4.97 4.95 4.95 0 0 0 4.961 4.97 4.95 4.95 0 0 0 4.964-4.97c0-2.76-2.207-4.97-4.964-4.97z" style="fill:none;stroke:#231f20;stroke-width:.287209;stroke-linecap:butt;stroke-linejoin:miter;stroke-miterlimit:2.6131;stroke-dasharray:none;stroke-opacity:1" transform="matrix(.13333 0 0 -.13333 0 257.333)"></path><path d="M910.012 1287.55c-2.481 0-4.684 2.21-4.684 4.97s2.203 4.96 4.684 4.96c2.765 0 4.976-2.2 4.976-4.96s-2.211-4.97-4.976-4.97" style="fill:#fcca2d;fill-opacity:1;fill-rule:evenodd;stroke:none" transform="matrix(.13333 0 0 -.13333 0 257.333)"></path><path d="M910.012 1287.55c-2.481 0-4.684 2.21-4.684 4.97s2.203 4.96 4.684 4.96c2.765 0 4.976-2.2 4.976-4.96s-2.211-4.97-4.976-4.97z" style="fill:none;stroke:#231f20;stroke-width:.287209;stroke-linecap:butt;stroke-linejoin:miter;stroke-miterlimit:2.6131;stroke-dasharray:none;stroke-opacity:1" transform="matrix(.13333 0 0 -.13333 0 257.333)"></path><path d="M927.387 1287.55c2.476 0 4.687 2.21 4.687 4.97s-2.211 4.96-4.687 4.96a4.94 4.94 0 0 1-4.965-4.96c0-2.76 2.207-4.97 4.965-4.97" style="fill:#fcca2d;fill-opacity:1;fill-rule:evenodd;stroke:none" transform="matrix(.13333 0 0 -.13333 0 257.333)"></path><path d="M927.387 1287.55c2.476 0 4.687 2.21 4.687 4.97s-2.211 4.96-4.687 4.96a4.94 4.94 0 0 1-4.965-4.96c0-2.76 2.207-4.97 4.965-4.97z" style="fill:none;stroke:#231f20;stroke-width:.287209;stroke-linecap:butt;stroke-linejoin:miter;stroke-miterlimit:2.6131;stroke-dasharray:none;stroke-opacity:1" transform="matrix(.13333 0 0 -.13333 0 257.333)"></path><path d="M910.012 1266.31c-2.481 0-4.684-2.2-4.684-4.68 0-2.76 2.203-4.97 4.684-4.97a4.953 4.953 0 0 1 4.976 4.97c0 2.48-2.211 4.68-4.976 4.68" style="fill:#fcca2d;fill-opacity:1;fill-rule:evenodd;stroke:none" transform="matrix(.13333 0 0 -.13333 0 257.333)"></path><path d="M910.012 1266.31c-2.481 0-4.684-2.2-4.684-4.68 0-2.76 2.203-4.97 4.684-4.97a4.953 4.953 0 0 1 4.976 4.97c0 2.48-2.211 4.68-4.976 4.68z" style="fill:none;stroke:#231f20;stroke-width:.287209;stroke-linecap:butt;stroke-linejoin:miter;stroke-miterlimit:2.6131;stroke-dasharray:none;stroke-opacity:1" transform="matrix(.13333 0 0 -.13333 0 257.333)"></path><path d="M927.387 1266.31c2.476 0 4.687-2.2 4.687-4.68 0-2.76-2.211-4.97-4.687-4.97a4.95 4.95 0 0 0-4.965 4.97c0 2.48 2.207 4.68 4.965 4.68" style="fill:#fcca2d;fill-opacity:1;fill-rule:evenodd;stroke:none" transform="matrix(.13333 0 0 -.13333 0 257.333)"></path><path d="M927.387 1266.31c2.476 0 4.687-2.2 4.687-4.68 0-2.76-2.211-4.97-4.687-4.97a4.95 4.95 0 0 0-4.965 4.97c0 2.48 2.207 4.68 4.965 4.68z" style="fill:none;stroke:#231f20;stroke-width:.287209;stroke-linecap:butt;stroke-linejoin:miter;stroke-miterlimit:2.6131;stroke-dasharray:none;stroke-opacity:1" transform="matrix(.13333 0 0 -.13333 0 257.333)"></path><path d="M918.836 1272.11a4.94 4.94 0 0 0-4.961 4.96c0 2.76 2.207 4.97 4.961 4.97 2.484 0 4.687-2.21 4.687-4.97s-2.203-4.96-4.687-4.96" style="fill:#fcca2d;fill-opacity:1;fill-rule:evenodd;stroke:none" transform="matrix(.13333 0 0 -.13333 0 257.333)"></path><path d="M918.836 1272.11a4.94 4.94 0 0 0-4.961 4.96c0 2.76 2.207 4.97 4.961 4.97 2.484 0 4.687-2.21 4.687-4.97s-2.203-4.96-4.687-4.96z" style="fill:none;stroke:#231f20;stroke-width:.287209;stroke-linecap:butt;stroke-linejoin:miter;stroke-miterlimit:2.6131;stroke-dasharray:none;stroke-opacity:1" transform="matrix(.13333 0 0 -.13333 0 257.333)"></path><path d="M1016.71 1287.55c2.76 0 4.96 2.21 4.96 4.97s-2.2 4.96-4.96 4.96a4.94 4.94 0 0 1-4.96-4.96c0-2.76 2.21-4.97 4.96-4.97" style="fill:#fcca2d;fill-opacity:1;fill-rule:evenodd;stroke:none" transform="matrix(.13333 0 0 -.13333 0 257.333)"></path><path d="M1016.71 1287.55c2.76 0 4.96 2.21 4.96 4.97s-2.2 4.96-4.96 4.96a4.94 4.94 0 0 1-4.96-4.96c0-2.76 2.21-4.97 4.96-4.97z" style="fill:none;stroke:#231f20;stroke-width:.287209;stroke-linecap:butt;stroke-linejoin:miter;stroke-miterlimit:2.6131;stroke-dasharray:none;stroke-opacity:1" transform="matrix(.13333 0 0 -.13333 0 257.333)"></path><path d="M999.625 1287.55a4.94 4.94 0 0 0-4.969 4.97c0 2.76 2.196 4.96 4.969 4.96 2.475 0 4.675-2.2 4.675-4.96s-2.2-4.97-4.675-4.97" style="fill:#fcca2d;fill-opacity:1;fill-rule:evenodd;stroke:none" transform="matrix(.13333 0 0 -.13333 0 257.333)"></path><path d="M999.625 1287.55a4.94 4.94 0 0 0-4.969 4.97c0 2.76 2.195 4.96 4.969 4.96 2.475 0 4.675-2.2 4.675-4.96s-2.2-4.97-4.675-4.97z" style="fill:none;stroke:#231f20;stroke-width:.287209;stroke-linecap:butt;stroke-linejoin:miter;stroke-miterlimit:2.6131;stroke-dasharray:none;stroke-opacity:1" transform="matrix(.13333 0 0 -.13333 0 257.333)"></path><path d="M1016.71 1266.31c2.76 0 4.96-2.2 4.96-4.68 0-2.76-2.2-4.97-4.96-4.97-2.75 0-4.96 2.21-4.96 4.97 0 2.48 2.21 4.68 4.96 4.68" style="fill:#fcca2d;fill-opacity:1;fill-rule:evenodd;stroke:none" transform="matrix(.13333 0 0 -.13333 0 257.333)"></path><path d="M1016.71 1266.31c2.76 0 4.96-2.2 4.96-4.68 0-2.76-2.2-4.97-4.96-4.97-2.75 0-4.96 2.21-4.96 4.97 0 2.48 2.21 4.68 4.96 4.68z" style="fill:none;stroke:#231f20;stroke-width:.287209;stroke-linecap:butt;stroke-linejoin:miter;stroke-miterlimit:2.6131;stroke-dasharray:none;stroke-opacity:1" transform="matrix(.13333 0 0 -.13333 0 257.333)"></path><path d="M999.625 1266.31c-2.773 0-4.969-2.2-4.969-4.68 0-2.76 2.196-4.97 4.969-4.97 2.475 0 4.675 2.21 4.675 4.97 0 2.48-2.2 4.68-4.675 4.68" style="fill:#fcca2d;fill-opacity:1;fill-rule:evenodd;stroke:none" transform="matrix(.13333 0 0 -.13333 0 257.333)"></path><path d="M999.625 1266.31c-2.774 0-4.969-2.2-4.969-4.68 0-2.76 2.195-4.97 4.969-4.97 2.475 0 4.675 2.21 4.675 4.97 0 2.48-2.2 4.68-4.675 4.68z" style="fill:none;stroke:#231f20;stroke-width:.287209;stroke-linecap:butt;stroke-linejoin:miter;stroke-miterlimit:2.6131;stroke-dasharray:none;stroke-opacity:1" transform="matrix(.13333 0 0 -.13333 0 257.333)"></path><path d="M1008.16 1272.11c2.49 0 4.69 2.2 4.69 4.96s-2.2 4.97-4.69 4.97c-2.75 0-4.96-2.21-4.96-4.97a4.94 4.94 0 0 1 4.96-4.96" style="fill:#fcca2d;fill-opacity:1;fill-rule:evenodd;stroke:none" transform="matrix(.13333 0 0 -.13333 0 257.333)"></path><path d="M1008.16 1272.11c2.49 0 4.69 2.2 4.69 4.96s-2.2 4.97-4.69 4.97c-2.75 0-4.96-2.21-4.96-4.97a4.94 4.94 0 0 1 4.96-4.96z" style="fill:none;stroke:#231f20;stroke-width:.287209;stroke-linecap:butt;stroke-linejoin:miter;stroke-miterlimit:2.6131;stroke-dasharray:none;stroke-opacity:1" transform="matrix(.13333 0 0 -.13333 0 257.333)"></path><path d="M954.688 1287.55a4.953 4.953 0 0 0-4.977 4.97c0 2.76 2.211 4.96 4.977 4.96 2.746 0 4.953-2.2 4.953-4.96s-2.207-4.97-4.953-4.97" style="fill:#fcca2d;fill-opacity:1;fill-rule:evenodd;stroke:none" transform="matrix(.13333 0 0 -.13333 0 257.333)"></path><path d="M954.687 1287.55a4.953 4.953 0 0 0-4.976 4.97c0 2.76 2.211 4.96 4.976 4.96 2.746 0 4.954-2.2 4.954-4.96s-2.208-4.97-4.954-4.97z" style="fill:none;stroke:#231f20;stroke-width:.287209;stroke-linecap:butt;stroke-linejoin:miter;stroke-miterlimit:2.6131;stroke-dasharray:none;stroke-opacity:1" transform="matrix(.13333 0 0 -.13333 0 257.333)"></path><path d="M971.777 1287.55c2.75 0 4.957 2.21 4.957 4.97s-2.207 4.96-4.957 4.96c-2.765 0-4.695-2.2-4.695-4.96s1.93-4.97 4.695-4.97" style="fill:#fcca2d;fill-opacity:1;fill-rule:evenodd;stroke:none" transform="matrix(.13333 0 0 -.13333 0 257.333)"></path><path d="M971.777 1287.55c2.75 0 4.957 2.21 4.957 4.97s-2.207 4.96-4.957 4.96c-2.765 0-4.695-2.2-4.695-4.96s1.93-4.97 4.695-4.97z" style="fill:none;stroke:#231f20;stroke-width:.287209;stroke-linecap:butt;stroke-linejoin:miter;stroke-miterlimit:2.6131;stroke-dasharray:none;stroke-opacity:1" transform="matrix(.13333 0 0 -.13333 0 257.333)"></path><path d="M954.688 1266.31c-2.766 0-4.977-2.2-4.977-4.68 0-2.76 2.211-4.97 4.977-4.97a4.945 4.945 0 0 1 4.953 4.97c0 2.48-2.207 4.68-4.953 4.68" style="fill:#fcca2d;fill-opacity:1;fill-rule:evenodd;stroke:none" transform="matrix(.13333 0 0 -.13333 0 257.333)"></path><path d="M954.687 1266.31c-2.765 0-4.976-2.2-4.976-4.68 0-2.76 2.211-4.97 4.976-4.97a4.946 4.946 0 0 1 4.954 4.97c0 2.48-2.208 4.68-4.954 4.68z" style="fill:none;stroke:#231f20;stroke-width:.287209;stroke-linecap:butt;stroke-linejoin:miter;stroke-miterlimit:2.6131;stroke-dasharray:none;stroke-opacity:1" transform="matrix(.13333 0 0 -.13333 0 257.333)"></path><path d="M971.777 1266.31c2.75 0 4.957-2.2 4.957-4.68 0-2.76-2.207-4.97-4.957-4.97-2.765 0-4.695 2.21-4.695 4.97 0 2.48 1.93 4.68 4.695 4.68" style="fill:#fcca2d;fill-opacity:1;fill-rule:evenodd;stroke:none" transform="matrix(.13333 0 0 -.13333 0 257.333)"></path><path d="M971.777 1266.31c2.75 0 4.957-2.2 4.957-4.68 0-2.76-2.207-4.97-4.957-4.97-2.765 0-4.695 2.21-4.695 4.97 0 2.48 1.93 4.68 4.695 4.68z" style="fill:none;stroke:#231f20;stroke-width:.287209;stroke-linecap:butt;stroke-linejoin:miter;stroke-miterlimit:2.6131;stroke-dasharray:none;stroke-opacity:1" transform="matrix(.13333 0 0 -.13333 0 257.333)"></path><path d="M963.223 1272.11a4.94 4.94 0 0 0-4.961 4.96 4.95 4.95 0 0 0 4.961 4.97 4.95 4.95 0 0 0 4.965-4.97 4.94 4.94 0 0 0-4.965-4.96" style="fill:#fcca2d;fill-opacity:1;fill-rule:evenodd;stroke:none" transform="matrix(.13333 0 0 -.13333 0 257.333)"></path><path d="M963.223 1272.11a4.94 4.94 0 0 0-4.961 4.96 4.95 4.95 0 0 0 4.961 4.97 4.95 4.95 0 0 0 4.964-4.97 4.94 4.94 0 0 0-4.964-4.96z" style="fill:none;stroke:#231f20;stroke-width:.287209;stroke-linecap:butt;stroke-linejoin:miter;stroke-miterlimit:2.6131;stroke-dasharray:none;stroke-opacity:1" transform="matrix(.13333 0 0 -.13333 0 257.333)"></path><path d="M954.688 1231a4.95 4.95 0 0 0-4.977 4.96c0 2.77 2.211 4.97 4.977 4.97 2.746 0 4.953-2.2 4.953-4.97 0-2.75-2.207-4.96-4.953-4.96" style="fill:#fcca2d;fill-opacity:1;fill-rule:evenodd;stroke:none" transform="matrix(.13333 0 0 -.13333 0 257.333)"></path><path d="M954.687 1231a4.95 4.95 0 0 0-4.976 4.96c0 2.77 2.211 4.97 4.976 4.97a4.94 4.94 0 0 0 4.954-4.97c0-2.75-2.208-4.96-4.954-4.96z" style="fill:none;stroke:#231f20;stroke-width:.287209;stroke-linecap:butt;stroke-linejoin:miter;stroke-miterlimit:2.6131;stroke-dasharray:none;stroke-opacity:1" transform="matrix(.13333 0 0 -.13333 0 257.333)"></path><path d="M971.777 1231c2.75 0 4.957 2.21 4.957 4.96a4.94 4.94 0 0 1-4.957 4.97c-2.765 0-4.695-2.2-4.695-4.97 0-2.75 1.93-4.96 4.695-4.96" style="fill:#fcca2d;fill-opacity:1;fill-rule:evenodd;stroke:none" transform="matrix(.13333 0 0 -.13333 0 257.333)"></path><path d="M971.777 1231c2.75 0 4.957 2.21 4.957 4.96a4.94 4.94 0 0 1-4.957 4.97c-2.765 0-4.695-2.2-4.695-4.97 0-2.75 1.93-4.96 4.695-4.96z" style="fill:none;stroke:#231f20;stroke-width:.287209;stroke-linecap:butt;stroke-linejoin:miter;stroke-miterlimit:2.6131;stroke-dasharray:none;stroke-opacity:1" transform="matrix(.13333 0 0 -.13333 0 257.333)"></path><path d="M954.688 1209.76c-2.766 0-4.977-2.21-4.977-4.69 0-2.76 2.211-4.97 4.977-4.97a4.945 4.945 0 0 1 4.953 4.97c0 2.48-2.207 4.69-4.953 4.69" style="fill:#fcca2d;fill-opacity:1;fill-rule:evenodd;stroke:none" transform="matrix(.13333 0 0 -.13333 0 257.333)"></path><path d="M954.687 1209.76c-2.765 0-4.976-2.21-4.976-4.69 0-2.76 2.211-4.97 4.976-4.97a4.946 4.946 0 0 1 4.954 4.97c0 2.48-2.208 4.69-4.954 4.69z" style="fill:none;stroke:#231f20;stroke-width:.287209;stroke-linecap:butt;stroke-linejoin:miter;stroke-miterlimit:2.6131;stroke-dasharray:none;stroke-opacity:1" transform="matrix(.13333 0 0 -.13333 0 257.333)"></path><path d="M971.777 1209.76c2.75 0 4.957-2.21 4.957-4.69 0-2.76-2.207-4.97-4.957-4.97-2.765 0-4.695 2.21-4.695 4.97 0 2.48 1.93 4.69 4.695 4.69" style="fill:#fcca2d;fill-opacity:1;fill-rule:evenodd;stroke:none" transform="matrix(.13333 0 0 -.13333 0 257.333)"></path><path d="M971.777 1209.76c2.75 0 4.957-2.21 4.957-4.69 0-2.76-2.207-4.97-4.957-4.97-2.765 0-4.695 2.21-4.695 4.97 0 2.48 1.93 4.69 4.695 4.69z" style="fill:none;stroke:#231f20;stroke-width:.287209;stroke-linecap:butt;stroke-linejoin:miter;stroke-miterlimit:2.6131;stroke-dasharray:none;stroke-opacity:1" transform="matrix(.13333 0 0 -.13333 0 257.333)"></path><path d="M963.223 1215.55a4.947 4.947 0 0 0-4.961 4.96 4.95 4.95 0 0 0 4.961 4.97 4.95 4.95 0 0 0 4.965-4.97c0-2.75-2.208-4.96-4.965-4.96" style="fill:#fcca2d;fill-opacity:1;fill-rule:evenodd;stroke:none" transform="matrix(.13333 0 0 -.13333 0 257.333)"></path><path d="M963.223 1215.55a4.947 4.947 0 0 0-4.961 4.96 4.95 4.95 0 0 0 4.961 4.97 4.95 4.95 0 0 0 4.964-4.97c0-2.75-2.207-4.96-4.964-4.96z" style="fill:none;stroke:#231f20;stroke-width:.287209;stroke-linecap:butt;stroke-linejoin:miter;stroke-miterlimit:2.6131;stroke-dasharray:none;stroke-opacity:1" transform="matrix(.13333 0 0 -.13333 0 257.333)"></path><path d="M954.688 1322.87c-2.766 0-4.977-2.21-4.977-4.69 0-2.76 2.211-4.97 4.977-4.97a4.945 4.945 0 0 1 4.953 4.97c0 2.48-2.207 4.69-4.953 4.69" style="fill:#fcca2d;fill-opacity:1;fill-rule:evenodd;stroke:none" transform="matrix(.13333 0 0 -.13333 0 257.333)"></path><path d="M954.687 1322.87c-2.765 0-4.976-2.21-4.976-4.69 0-2.76 2.211-4.96 4.976-4.96 2.746 0 4.954 2.2 4.954 4.96 0 2.48-2.208 4.69-4.954 4.69z" style="fill:none;stroke:#231f20;stroke-width:.287209;stroke-linecap:butt;stroke-linejoin:miter;stroke-miterlimit:2.6131;stroke-dasharray:none;stroke-opacity:1" transform="matrix(.13333 0 0 -.13333 0 257.333)"></path><path d="M971.777 1322.87c2.75 0 4.957-2.21 4.957-4.69 0-2.76-2.207-4.97-4.957-4.97-2.765 0-4.695 2.21-4.695 4.97 0 2.48 1.93 4.69 4.695 4.69" style="fill:#fcca2d;fill-opacity:1;fill-rule:evenodd;stroke:none" transform="matrix(.13333 0 0 -.13333 0 257.333)"></path><path d="M971.777 1322.87c2.75 0 4.957-2.21 4.957-4.69 0-2.76-2.207-4.96-4.957-4.96-2.765 0-4.695 2.2-4.695 4.96 0 2.48 1.93 4.69 4.695 4.69z" style="fill:none;stroke:#231f20;stroke-width:.287209;stroke-linecap:butt;stroke-linejoin:miter;stroke-miterlimit:2.6131;stroke-dasharray:none;stroke-opacity:1" transform="matrix(.13333 0 0 -.13333 0 257.333)"></path><path d="M561.816 551.508c0-10.367 1.243-20.781 4.063-30.832-33.649 31.125-46.797 108.328-46.934 109.148l-4.441-.398c2.137-143.809 66.059-225.547 119.305-268.797 58.195-47.262 116.836-60.184 119.304-60.715l1.711-.367 33.946 69.555-2.77.621c-.48.105-48.793 11.222-96.48 50.781-63.489 52.668-96.415 128.699-97.86 225.973l-4.207 1.023c-1.308-2.441-25.637-48.555-25.637-95.992" style="fill:#231f20;fill-opacity:1;fill-rule:nonzero;stroke:none" transform="matrix(.13333 0 0 -.13333 0 257.333)"></path><path d="M572.383 514.852c-4.293 11.515-5.992 23.851-5.992 36.179 0 35.508 14.101 70.891 21.125 86.313 3.347-94.285 36.617-168.403 99.148-220.281 42.211-35.016 84.723-48.075 95.641-51.012-2.172-4.453-28.524-58.446-29.953-61.367-9.946 2.371-62.887 16.504-115.723 59.414-49.274 40.019-107.805 113.527-116.578 239.836 7.32-28.34 22.484-72.789 48.937-91.684z" style="fill:#fff;fill-opacity:1;fill-rule:nonzero;stroke:none" transform="matrix(.13333 0 0 -.13333 0 257.333)"></path><path d="M1335.9 646.477c-1.45-97.274-34.37-173.305-97.86-225.973-47.68-39.559-96-50.676-96.49-50.781l-2.76-.621 33.94-69.555 1.72.367c2.46.531 61.09 13.438 119.3 60.715 53.25 43.246 117.17 124.984 119.3 268.797l-4.44.398c-.13-.82-13.28-78.023-46.93-109.148 2.82 10.051 4.06 20.465 4.06 30.832 0 47.441-24.33 93.551-25.63 95.992z" style="fill:#231f20;fill-opacity:1;fill-rule:nonzero;stroke:none" transform="matrix(.13333 0 0 -.13333 0 257.333)"></path><path d="M1240.9 417.063c62.53 51.882 95.8 126 99.15 220.281 7.02-15.422 21.12-50.801 21.12-86.313 0-12.328-1.7-24.664-6-36.179l3.4-2.602c26.45 18.895 41.61 63.344 48.94 91.684-8.78-126.313-67.31-199.817-116.58-239.836-52.85-42.922-105.78-57.043-115.73-59.414-1.42 2.921-27.77 56.914-29.95 61.367 10.92 2.937 53.43 15.996 95.65 51.012" style="fill:#4b86ce;fill-opacity:1;fill-rule:nonzero;stroke:none" transform="matrix(.13333 0 0 -.13333 0 257.333)"></path><path d="m1141.63 369.738.82-4.398c19.5 3.648 42.39 7.015 44.98 2.89l3.73 3.348c-5.4 8.602-39.32.07-49.53-1.84" style="fill:#231f20;fill-opacity:1;fill-rule:nonzero;stroke:none" transform="matrix(.13333 0 0 -.13333 0 257.333)"></path><path d="m1189.06 372.391-1.93-.942c-89.56-43.527-156.34-61.949-223.278-61.601-67.051-.348-133.864 18.074-223.422 61.601l-3.871 1.883-40.961-76.769 3.945-2.106c85.469-45.605 174.34-69.211 264.141-70.164 89.996.953 178.866 24.559 264.336 70.164l3.94 2.106-40.96 76.769z" style="fill:#231f20;fill-opacity:1;fill-rule:nonzero;stroke:none" transform="matrix(.13333 0 0 -.13333 0 257.333)"></path><path d="M1189.08 367.426c1.87-3.504 34.89-65.395 36.83-69.028-84.83-45.261-173.01-68.691-262.082-69.632-89.176.941-177.351 24.371-262.18 69.632l36.829 69.028c90.214-43.844 157.613-62.403 225.375-62.047 67.648-.356 135.008 18.203 225.228 62.047" style="fill:#231f20;fill-opacity:1;fill-rule:nonzero;stroke:none" transform="matrix(.13333 0 0 -.13333 0 257.333)"></path><path d="m737.473 365.543-35.797-67.102 1.98-1.043c84.289-44.605 171.789-67.699 260.074-68.632 88.38.933 175.88 24.027 260.17 68.632l1.99 1.043-36.81 68.997-1.94-.934c-89.3-43.195-156.11-61.481-223.386-61.125-67.25-.356-134.035 17.93-223.336 61.125l-1.938.934z" style="fill:#231f20;fill-opacity:1;fill-rule:nonzero;stroke:none" transform="matrix(.13333 0 0 -.13333 0 257.333)"></path><path d="m735.871 371.578 3.727-3.351c2.586 4.125 26.007.761 45.507-2.887l.825 4.398c-10.211 1.91-44.668 10.442-50.059 1.84" style="fill:#231f20;fill-opacity:1;fill-rule:nonzero;stroke:none" transform="matrix(.13333 0 0 -.13333 0 257.333)"></path><path d="m1225.91 298.398-36.83 69.028c-90.94-44.199-157.64-62.403-225.256-62.047h-.043v-76.613h.047c74.192.785 164.832 17.746 262.082 69.632" style="fill:#4b86ce;fill-opacity:1;fill-rule:nonzero;stroke:none" transform="matrix(.13333 0 0 -.13333 0 257.333)"></path><path d="M963.73 305.379c-67.609-.356-134.308 17.848-225.253 62.047l-36.829-69.028c97.247-51.886 187.891-68.847 262.082-69.632h.051v76.613z" style="fill:#fff;fill-opacity:1;fill-rule:nonzero;stroke:none" transform="matrix(.13333 0 0 -.13333 0 257.333)"></path><path d="m843.484 271.391-7.296-12.184-12.051 3.391 30.172 46.992 15.179-4.27 1.559-55.918-12.508 3.52-.258 14.308zm15.489 5.031-.133 11.808c.015 3.286.195 7.434.269 10.625l-.23.063c-1.543-2.859-3.477-6.512-5.074-9.27l-6.196-10.031zM947.031 291.965c4.438.793 10.223 1.187 16.242 1.187 10.223 0 16.875-1.664 21.95-5.539 5.543-4.125 9.031-10.781 9.031-20.289 0-10.222-3.723-17.273-8.797-21.633-5.621-4.671-14.258-6.89-24.719-6.89-6.261 0-10.773.394-13.707.789zm12.043-43.5c1.028-.235 2.774-.235 4.199-.235 11.016-.082 18.227 5.942 18.227 18.696 0 11.492-6.5 16.957-16.957 16.957-2.617 0-4.441-.235-5.469-.477zM1109.36 264.797c-1.67-1.695-6.02-4.598-12.06-6.758-17.38-6.219-30.23 1.469-35.39 15.863-6.14 17.161 2.7 31.012 17.93 36.465 5.89 2.106 10.79 2.512 13.18 2.192l.82-9.809c-2.59.168-6.12-.082-10.22-1.551-8.95-3.203-14.01-11.16-9.98-22.429 3.6-10.067 11.84-14.274 21.91-10.668 3.5 1.257 7 3.261 8.96 5.058z" style="fill:#231f20;fill-opacity:1;fill-rule:nonzero;stroke:none" transform="matrix(.13333 0 0 -.13333 0 257.333)" data-source="https://football-logos.cc"></path><!-- source: https://football-logos.cc --></svg>