<svg xmlns="http://www.w3.org/2000/svg" viewBox="0.08 0.08 292.59 292.59"><!-- Source: https://football-logos.cc --><defs data-source="https://football-logos.cc"><path id="a" d="M-79.55 51.177H86.974v127.544H-79.55z"></path><path id="b" d="M-79.55 51.177H86.974v127.544H-79.55z"></path><path id="c" d="M-79.55 51.177H86.974v127.544H-79.55z"></path></defs><path d="m146.371.265-1.856 1.856-71.197 71.197-71.197 71.197-1.856 1.856 1.856 1.856 71.197 71.197 71.197 71.197 1.856 1.856 1.856-1.856 71.197-71.197 73.053-73.053-73.053-73.053z" style="fill:#fff;fill-opacity:1;stroke:#253a95;stroke-width:.375;stroke-linecap:butt;stroke-linejoin:miter;stroke-miterlimit:4;stroke-dasharray:none;stroke-opacity:1"></path><path d="m146.371.265-1.856 1.856-71.197 71.197-71.197 71.197-1.856 1.856 1.856 1.856 71.197 71.197 71.197 71.197 1.856 1.856 1.856-1.856 71.197-71.197 73.053-73.053-73.053-73.053zm0 3.712 71.197 71.197 71.197 71.197-71.197 71.197-71.197 71.197-71.197-71.197L3.977 146.37l71.197-71.197Z" style="fill:#253a95;fill-opacity:1;stroke:#253a95;stroke-width:.375;stroke-linecap:butt;stroke-linejoin:miter;stroke-miterlimit:4;stroke-dasharray:none;stroke-opacity:1"></path><path d="m146.371 7.69-1.856 1.856L77.03 77.03 9.546 144.515 7.69 146.37l69.34 69.34 69.341 69.341 1.856-1.856 67.485-67.484 67.484-67.485 1.856-1.856-1.856-1.856-67.484-67.485-67.485-67.484zm0 3.712 67.485 67.485 67.484 67.484-67.484 67.485-67.485 67.484-67.484-67.484-67.485-67.485 67.485-67.484z" style="fill:#7ac142;fill-opacity:1;stroke:#7ac142;stroke-width:.375;stroke-linecap:butt;stroke-linejoin:miter;stroke-miterlimit:4;stroke-dasharray:none;stroke-opacity:1"></path><g style="font-style:normal;font-weight:400;font-size:54px;line-height:1.25;font-family:sans-serif;white-space:pre;shape-inside:url(#a);fill:#000;fill-opacity:1;stroke:none"><path d="M-74.09 98.703V66.8h-4.43v-1.714h17.93q7.778 0 12.313 4.93 4.535 4.932 4.535 12.446 0 3.902-1.398 7.33-1.37 3.428-4.245 6.25-2.874 2.794-5.906 3.612-3.006.79-7.41.79h-15.82v-1.74zm8.648-31.904v31.904h2.795q6.407 0 7.725-3.744 1.345-3.77 1.345-12.867 0-7.12-.818-10.23-.817-3.112-2.478-4.087-1.661-.976-4.219-.976z" aria-label="D" style="font-style:normal;font-variant:normal;font-weight:700;font-stretch:normal;font-size:54px;font-family:&quot;Bodoni MT&quot;;-inkscape-font-specification:&quot;Bodoni MT, Bold&quot;;font-variant-ligatures:normal;font-variant-caps:normal;font-variant-numeric:normal;font-variant-east-asian:normal;fill:#000;fill-opacity:1" transform="translate(207.32 -24.753)"></path></g><g style="font-style:normal;font-weight:400;font-size:54px;line-height:1.25;font-family:sans-serif;white-space:pre;shape-inside:url(#b);fill:#000;fill-opacity:1;stroke:none"><path d="m-63.94 65.085 6.592 20.461 6.645-20.46h13.922v1.713h-4.535v31.904h4.535v1.74h-17.824v-1.74h4.64V68.697l-10.204 31.747h-1.24L-71.77 68.302v26.789q0 2.215.554 2.927.554.685 3.059.685h1.24v1.74h-11.813v-1.74h2.162q2.056 0 2.505-.685.448-.686.448-2.769V66.8h-5.115v-1.714z" aria-label="M" style="font-style:normal;font-variant:normal;font-weight:700;font-stretch:normal;font-size:54px;font-family:&quot;Bodoni MT&quot;;-inkscape-font-specification:&quot;Bodoni MT, Bold&quot;;font-variant-ligatures:normal;font-variant-caps:normal;font-variant-numeric:normal;font-variant-east-asian:normal;fill:#000;fill-opacity:1" transform="translate(292.93 57.727)"></path></g><g style="font-style:normal;font-weight:400;font-size:54px;line-height:1.25;font-family:sans-serif;white-space:pre;shape-inside:url(#c);fill:#000;fill-opacity:1;stroke:none"><path d="M-58.429 90.556h-11.127l-1.503 3.612q-.87 2.162-.87 3.138 0 1.397 2.637 1.397h1.951v1.74h-11.39v-1.74h1.028q2.03 0 2.742-.685.712-.686 1.74-3.19l12.367-30.402h1.555l12.973 34.277h3.665v1.74h-17.402v-1.74h4.72zm-10.362-1.82h9.65l-4.64-12.26Z" aria-label="A" style="font-style:normal;font-variant:normal;font-weight:700;font-stretch:normal;font-size:54px;font-family:&quot;Bodoni MT&quot;;-inkscape-font-specification:&quot;Bodoni MT, Bold&quot;;font-variant-ligatures:normal;font-variant-caps:normal;font-variant-numeric:normal;font-variant-east-asian:normal;fill:#000;fill-opacity:1" transform="translate(115.445 58.175)"></path></g><path d="M99.297 166.457c.98-.234 1.531-.383 2.52-.578.996-.2 1.578-.227 2.578-.43 1.867-.375 2.89-.726 4.714-1.281 2.243-.688 3.563-.965 5.676-1.984 1.258-.606 1.8-1.29 3.113-1.77.79-.289 1.368-.101 2.09-.535.672-.402.825-.906 1.39-1.45 1.017-.976 1.727-1.374 2.79-2.304 1.68-1.469 2.613-2.324 4.121-3.965 2.16-2.351 3.258-3.805 4.988-6.488.778-1.203 1.028-2.004 1.875-3.156.47-.633 1.063-.801 1.286-1.559.16-.543-.118-.894 0-1.445.144-.688.601-.938.808-1.606.227-.742.059-1.222.215-1.984.152-.762.437-1.14.57-1.91.184-1.082.153-1.727 0-2.817-.133-.941-.508-1.414-.62-2.36-.099-.82-.27-1.339 0-2.12.234-.676.554-.988 1.062-1.492.785-.778 1.496-.868 2.465-1.399 1.218-.672 2.035-.84 3.152-1.668.629-.465 1.144-.633 1.508-1.328.425-.82.449-1.52.086-2.375a8.4 8.4 0 0 1 1.046-.957c.872-.687 1.473-.918 2.461-1.418.743-.367 1.114-.785 1.934-.867.73-.07 1.152.113 1.844.355 1.258.434 1.832 1.032 2.816 1.93.555.504.844.817 1.313 1.402.015-1.718.093-2.695.355-4.398.262-1.7.477-2.656.977-4.305a4 4 0 0 0-1.45.223c-.543.176-.82.367-1.304.672-.922.578-1.098 1.398-2.086 1.86-1.242.577-2.14.316-3.504.226-1.809-.125-2.965-.168-4.508-1.117-1.266-.782-1.926-1.45-2.64-2.754-.598-1.09-.985-1.82-.891-3.059.055-.754.383-1.121.555-1.86.359-1.523.437-2.421.445-3.984.012-1.191.094-1.902-.223-3.054-.207-.758-.793-1.075-.777-1.864.008-.703.293-1.078.668-1.671.367-.586.644-.887 1.191-1.305-.597-.195-.93-.38-1.414-.781-.683-.567-1.027-1.024-1.305-1.864-.257-.773-.218-1.277-.113-2.086.106-.8.64-1.164.637-1.972-.008-1.094-.887-1.489-1.195-2.535-.387-1.313-.52-2.141-.332-3.5.222-1.672.726-2.61 1.75-3.95 1.226-1.61 2.332-2.25 4.171-3.09 1.184-.542 1.899-1.003 3.2-.968 1.125.027 1.945.078 2.754.86.62.593.87 1.12.972 1.972.098.828-.082 1.336-.445 2.086-.5 1.035-1.262 1.28-2.086 2.086-.723.703-1.395.894-1.863 1.785-.274.512-.375.84-.446 1.414.653-.024 1.02-.024 1.672 0 1.375.058 2.215-.043 3.504.445.93.36 1.43.668 2.195 1.309.625.52 1.102.777 1.418 1.527.317.75.223 1.281.114 2.086-.11.773-.485 1.129-.64 1.895-.185.914-.325 1.48-.11 2.386.218.926.843 1.239 1.195 2.121.313.782.496 1.246.555 2.086.101 1.403-.149 2.301-.89 3.5-.716 1.157-1.454 1.598-2.61 2.309-1.184.73-1.953 1.031-3.313 1.305-.168.828 0 1.457.559 2.09.625.71 1.375.964 2.304.777.516-.899.891-1.375 1.641-2.086.692-.649 1.262-.793 1.977-1.414.507-.446.617-.934 1.226-1.227.809-.394 1.434-.222 2.309 0 .937.239 1.52.5 2.164 1.227.508.57.398 1.16.89 1.75.762.914 1.618.922 2.645 1.527.512.3.754.563 1.305.781.687.274 1.16.11 1.863.336.871.282 1.484.39 2.086 1.082.543.625.617 1.16.781 1.973.258 1.316-.05 2.113-.336 3.426-.258 1.18-.789 1.75-.968 2.941-.235 1.52.347 2.399.238 3.93-.086 1.176.129 2-.531 2.98-.547.813-1.11 1.133-2.02 1.489-.934.363-1.574.05-2.55.265-1.18.258-1.848.489-2.907 1.063-1.14.617-1.797 1.035-2.64 2.02-.43.503-.645.816-.958 1.402a7.4 7.4 0 0 1-1.933.617c-1.043.203-1.672.222-2.73.09a4 4 0 0 1-.087.972c-.07.348-.129.543-.265.871.312.344.488.536.797.883.48.543.992.715 1.222 1.403.266.785-.043 1.308-.265 2.109-.27.988-.88 1.379-1.133 2.375-.293 1.129-.035 1.824-.09 2.992-.027.617.156 1.012-.09 1.578-.242.555-.726.63-1.07 1.13-.48.702-.48 1.241-.805 2.03-.894 2.153-1.445 3.348-2.52 5.414-1.695 3.262-2.734 5.09-4.929 8.043-2.156 2.895-3.59 4.38-6.164 6.91-1.297 1.278-1.984 2.09-3.434 3.16-.504.376-1.054-.105-1.601.216-.625.367-.57.988-1.02 1.554-1.113 1.395-2.129 1.813-3.59 2.84-2.343 1.645-3.816 2.363-6.378 3.645-3.317 1.664-5.223 2.62-8.79 3.648-1.363.39-2.12.75-3.539.856-.98.07-1.554-.31-2.515-.11-.88.184-1.246.656-2.09.965-1.406.512-2.274.586-3.754.805-2.781.418-4.398.132-7.207.215-2.813-.082-4.426.203-7.207-.215-1.48-.22-2.348-.293-3.754-.805-.844-.309-1.21-.781-2.09-.965-.965-.2-1.539.18-2.52.11-1.413-.106-2.171-.465-3.538-.856-3.567-1.027-5.473-1.984-8.79-3.648-2.562-1.282-4.03-2-6.378-3.645-1.457-1.027-2.473-1.445-3.586-2.84-.453-.566-.395-1.187-1.02-1.554-.547-.32-1.097.16-1.605-.215-1.45-1.07-2.137-1.883-3.434-3.16-2.574-2.532-4.004-4.016-6.164-6.91-2.195-2.954-3.23-4.782-4.93-8.044-1.074-2.066-1.625-3.261-2.515-5.414-.328-.789-.324-1.328-.809-2.03-.34-.5-.828-.575-1.07-1.13-.242-.566-.059-.96-.086-1.578-.055-1.168.2-1.863-.09-2.992-.254-.996-.863-1.387-1.137-2.375-.218-.8-.53-1.324-.265-2.11.234-.687.746-.859 1.226-1.402.309-.347.485-.539.797-.883a4 4 0 0 1-.265-.87 4 4 0 0 1-.09-.973c-1.055.132-1.684.113-2.727-.09a7.3 7.3 0 0 1-1.933-.617 6.7 6.7 0 0 0-.957-1.403c-.844-.984-1.5-1.402-2.641-2.02-1.063-.573-1.727-.804-2.906-1.062-.977-.215-1.618.098-2.551-.265-.91-.356-1.473-.676-2.02-1.489-.66-.98-.445-1.804-.53-2.98-.114-1.531.472-2.41.237-3.93-.183-1.191-.714-1.762-.968-2.941-.286-1.313-.598-2.11-.336-3.426.16-.812.238-1.348.78-1.973.599-.691 1.212-.8 2.087-1.082.7-.226 1.176-.062 1.863-.336.55-.218.793-.48 1.305-.78 1.023-.606 1.879-.614 2.64-1.528.493-.59.383-1.18.895-1.75.645-.727 1.223-.988 2.164-1.227.871-.222 1.5-.394 2.309 0 .609.293.718.781 1.226 1.227.715.62 1.285.765 1.973 1.414.754.71 1.129 1.187 1.64 2.086.934.187 1.684-.067 2.31-.778.558-.632.722-1.261.558-2.09-1.364-.273-2.13-.574-3.313-1.304-1.156-.711-1.894-1.152-2.61-2.309-.741-1.199-.991-2.097-.894-3.5.063-.84.246-1.304.559-2.086.351-.882.976-1.195 1.195-2.12.211-.907.07-1.473-.113-2.387-.152-.766-.527-1.122-.637-1.895-.113-.805-.207-1.336.113-2.086.317-.75.793-1.008 1.415-1.527.765-.64 1.265-.95 2.199-1.309 1.285-.488 2.125-.387 3.504-.445.648-.024 1.02-.024 1.672 0-.07-.574-.176-.903-.446-1.414-.472-.89-1.144-1.082-1.863-1.785-.824-.805-1.586-1.051-2.086-2.086-.363-.75-.543-1.258-.45-2.086.106-.852.356-1.38.973-1.973.813-.781 1.633-.832 2.754-.86 1.305-.034 2.016.427 3.203.97 1.84.84 2.942 1.48 4.172 3.09 1.02 1.34 1.524 2.277 1.75 3.949.184 1.359.055 2.187-.336 3.5-.308 1.046-1.187 1.44-1.191 2.535-.004.808.531 1.172.637 1.972.105.809.144 1.313-.114 2.086-.277.84-.62 1.297-1.304 1.864-.485.402-.817.585-1.418.78.55.419.828.72 1.195 1.305.375.594.66.97.668 1.672.012.79-.57 1.106-.781 1.864-.317 1.152-.23 1.863-.223 3.054.012 1.563.086 2.461.445 3.985.176.738.504 1.105.559 1.86.094 1.237-.293 1.968-.89 3.058-.72 1.304-1.376 1.972-2.645 2.754-1.54.949-2.7.992-4.504 1.117-1.367.09-2.262.351-3.504-.227-.988-.46-1.164-1.281-2.086-1.86-.484-.304-.762-.495-1.305-.671a4 4 0 0 0-1.449-.223c.5 1.649.715 2.606.977 4.305.258 1.703.336 2.68.351 4.398.47-.586.762-.898 1.313-1.402.984-.898 1.558-1.496 2.816-1.93.696-.242 1.117-.425 1.844-.355.824.082 1.195.5 1.934.867.988.5 1.593.73 2.46 1.418.438.344.669.555 1.051.957-.367.856-.34 1.555.086 2.375.36.695.875.863 1.504 1.328 1.117.828 1.938.996 3.156 1.668.97.531 1.68.621 2.461 1.399.508.504.828.816 1.063 1.492.273.781.101 1.3 0 2.12-.113.946-.488 1.419-.617 2.36-.153 1.09-.188 1.735 0 2.817.129.77.418 1.148.57 1.91.156.762-.012 1.242.215 1.984.203.672.66.918.808 1.606.114.55-.16.902 0 1.445.22.758.817.926 1.282 1.559.851 1.152 1.097 1.953 1.875 3.156 1.73 2.683 2.832 4.137 4.988 6.488 1.512 1.64 2.445 2.496 4.125 3.965 1.059.93 1.77 1.328 2.789 2.305.566.543.719 1.047 1.39 1.449.723.433 1.301.246 2.09.535 1.31.48 1.856 1.164 3.11 1.77 2.113 1.02 3.437 1.296 5.68 1.984 1.82.555 2.847.906 4.714 1.281 1 .203 1.579.23 2.579.43.988.195 1.539.34 2.519.578 1.133.273 1.738.727 2.906.727 1.176.008 1.785-.454 2.93-.727" style="fill:#211e1e;fill-opacity:1;fill-rule:evenodd;stroke:none" transform="matrix(.89406 0 0 .9405 60.203 59.134)"></path><path d="M45.313 82.078c.113-.719.085-1.164-.11-1.863-.465-1.66-2.281-1.61-3.172-3.09-.636-1.062-1.496-1.797-1.113-2.977.34-1.043 1.133-1.496 2.2-1.753 1.378-.329 2.187.53 3.421 1.226 1.738.984 2.797 1.738 3.727 3.504.601 1.148.816 1.906.89 3.2-.668.597-1.097.894-1.894 1.308-.953.496-1.54 1.004-2.61.89-.547-.058-.867-.164-1.34-.445" style="fill:#fff;fill-opacity:1;fill-rule:evenodd;stroke:none" transform="matrix(.89406 0 0 .9405 60.203 59.134)"></path><path d="M51.684 80.324c-.403.489-.641.75-1.082 1.196-.54.539-.778.953-1.45 1.304-.738.39-1.254.426-2.086.446-.949.027-1.449-.332-2.39-.446-1.239-.148-1.973-.336-3.2-.11-.894.165-1.41.325-2.199.782a5.5 5.5 0 0 0-1.304 1c-.114.73-.036 1.211.304 1.863.52 1.016 1.414 1.106 2.418 1.641 1.024.547 1.735.566 2.754 1.113 1.059.57 1.63.965 2.531 1.754.52.23.852.309 1.418.332.696.031 1.141 0 1.754-.332.703-.387 1.223-.765 1.336-1.562.09-.614-.304-.922-.445-1.528-.105-.46-.191-.722-.223-1.191-.058-.867.028-1.39.332-2.2.309-.808.739-1.132 1.196-1.863.351-.562 1.05-.804.89-1.449-.086-.351-.242-.562-.554-.75" style="fill:#fff;fill-opacity:1;fill-rule:evenodd;stroke:none" transform="matrix(.89406 0 0 .9405 60.203 59.134)"></path><path d="M37.305 85.133c.062.496.136.773.336 1.226.265.618.476.965.968 1.418.692.641 1.34.618 2.196 1.004.945.426 1.507.602 2.422 1.082.886.469 1.382.754 2.199 1.336.863.621 1.3 1.035 2.086 1.754.582.531 1.05.734 1.449 1.418.379.649.508 1.106.523 1.863-.46.399-.687.684-.968 1.227-.641 1.207-.282 2.133-.227 3.5.063 1.437.16 2.266.559 3.644.203.7.738 1.036.636 1.754-.074.524-.242.84-.636 1.196-.422-.52-.668-.809-1.114-1.309-.976-1.082-1.433-1.828-2.644-2.64-1.008-.68-1.711-.833-2.832-1.305-1.36-.574-2.309-.524-3.535-1.34-.934-.621-1.485-1.027-2.086-1.973-.516-.812-.739-1.355-.86-2.308-.097-.766-.074-1.227.11-1.977.504-.262.77-.496 1.082-.969.468-.703.312-1.285.445-2.12.117-.72.309-1.134.227-1.86-.078-.672-.239-1.047-.559-1.64-.246-.462-.672-.575-.781-1.083-.176-.82.23-1.582 1.004-1.898" style="fill:#fff;fill-opacity:1;fill-rule:evenodd;stroke:none" transform="matrix(.89406 0 0 .9405 60.203 59.134)"></path><path d="M39.7 106.777c.84-.09 1.359-.355 1.929-.976.64-.696.863-1.344.797-2.285.601.183.937.324 1.488.62 1.14.61 1.621 1.216 2.555 2.106.644.621.996.988 1.578 1.668.316.496.39.914.266 1.488-.16.72-.63 1.016-1.239 1.418-.87.575-1.586.54-2.629.516-1.02-.023-1.687-.05-2.55-.605-.844-.543-1.145-1.122-1.59-2.02-.356-.707-.492-1.152-.606-1.93M41.543 112.395a6.8 6.8 0 0 1-.973-.887c-.777-.828-1-1.473-1.578-2.45-.582-.972-.8-1.585-1.402-2.546-.602-.965-.793-1.672-1.68-2.375-.687-.543-1.168-1.153-2.02-.973-.648.133-1.05.457-1.312 1.059.164.664.281 1.03.527 1.668.262.668.594.972.786 1.668a4.7 4.7 0 0 1 .175 1.664c.547-.07.868-.07 1.414 0 .786.101 1.254.21 1.934.62.703.427.895.923 1.488 1.489.442.422.578.844 1.149 1.063.543.203.949.203 1.492 0M32.133 102.383a7.1 7.1 0 0 0-.266 1.84c-.043 1.504.438 2.316.797 3.777.492 2.016 1.133 3.059 1.488 5.102.309 1.761.387 2.785.356 4.57-.028 1.445-.203 2.25-.356 3.687-.129 1.23-.433 1.922-.351 3.157.11 1.695.433 2.703 1.324 4.144a3 3 0 0 1-1.059-.265c-.937-.399-1.07-1.184-1.843-1.844-1.13-.961-1.817-1.48-3.157-2.11-1.543-.722-2.632-.527-4.218-1.148-.774-.309-1.387-.266-1.946-.887-.496-.547-.523-1.039-.695-1.754-.36-1.5.336-2.41.266-3.953-.086-1.883-.594-2.886-.883-4.746-.156-.996-.703-1.61-.356-2.555.188-.503.364-.812.797-1.132.59-.434 1.125-.227 1.844-.356.82-.148 1.39.07 2.11-.351.624-.371.663-.942 1.222-1.403.582-.484 1.14-.441 1.684-.972.707-.7.332-1.696 1.132-2.286.68-.503 1.274-.652 2.11-.515" style="fill:#fff;fill-opacity:1;fill-rule:evenodd;stroke:none" transform="matrix(.89406 0 0 .9405 60.203 59.134)"></path><path d="M37.5 128.57c-.617-.207-.957-.422-1.414-.882-.711-.723-.805-1.395-1.047-2.376-.25-1.003-.367-1.624-.18-2.64.239-1.262.703-1.95 1.578-2.89.743-.794 1.407-.954 2.29-1.59.691-.504.933-1.075 1.753-1.317.758-.219 1.286-.195 2.02.09.07.785.07 1.234 0 2.02-.09 1.011-.152 1.605-.516 2.55-.418 1.098-.902 1.606-1.593 2.55-.63.868-1.18 1.208-1.754 2.114-.551.863-.809 1.399-1.137 2.371M147.441 82.078c-.109-.719-.085-1.164.114-1.863.465-1.66 2.277-1.61 3.168-3.09.64-1.062 1.5-1.797 1.117-2.977-.344-1.043-1.133-1.496-2.2-1.753-1.378-.329-2.19.53-3.425 1.226-1.735.984-2.793 1.738-3.723 3.504-.605 1.148-.816 1.906-.894 3.2.672.597 1.101.894 1.894 1.308.957.496 1.543 1.004 2.613.89.547-.058.864-.164 1.336-.445" style="fill:#fff;fill-opacity:1;fill-rule:evenodd;stroke:none" transform="matrix(.89406 0 0 .9405 60.203 59.134)"></path><path d="M141.074 80.324c.399.489.64.75 1.082 1.196.535.539.778.953 1.45 1.304.734.39 1.253.426 2.085.446.95.027 1.45-.332 2.387-.446 1.242-.148 1.973-.336 3.203-.11.895.165 1.41.325 2.196.782.554.32.851.55 1.304 1 .114.73.035 1.211-.3 1.863-.52 1.016-1.415 1.106-2.422 1.641-1.02.547-1.735.566-2.754 1.113-1.059.57-1.625.965-2.532 1.754-.52.23-.847.309-1.418.332-.69.031-1.14 0-1.75-.332-.703-.387-1.222-.765-1.335-1.562-.09-.614.304-.922.445-1.528.105-.46.191-.722.223-1.191.058-.867-.032-1.39-.336-2.2-.305-.808-.735-1.132-1.196-1.863-.351-.562-1.047-.804-.89-1.449.086-.351.242-.562.558-.75" style="fill:#fff;fill-opacity:1;fill-rule:evenodd;stroke:none" transform="matrix(.89406 0 0 .9405 60.203 59.134)"></path><path d="M155.453 85.133c-.062.496-.14.773-.336 1.226-.265.618-.48.965-.972 1.418-.692.641-1.336.618-2.196 1.004-.941.426-1.508.602-2.422 1.082-.886.469-1.379.754-2.195 1.336-.863.621-1.305 1.035-2.086 1.754-.582.531-1.05.734-1.45 1.418-.382.649-.51 1.106-.526 1.863.46.399.687.684.972 1.227.64 1.207.281 2.133.223 3.5-.059 1.437-.156 2.266-.559 3.644-.203.7-.738 1.036-.636 1.754.074.524.246.84.636 1.196.422-.52.668-.809 1.117-1.309.973-1.082 1.434-1.828 2.641-2.64 1.012-.68 1.715-.833 2.836-1.305 1.355-.574 2.309-.524 3.535-1.34.934-.621 1.485-1.027 2.086-1.973.516-.812.738-1.355.86-2.308.097-.766.07-1.227-.114-1.977-.504-.262-.765-.496-1.082-.969-.469-.703-.308-1.285-.445-2.12-.117-.72-.305-1.134-.223-1.86.074-.672.238-1.047.559-1.64.246-.462.668-.575.777-1.083.18-.82-.226-1.582-1-1.898" style="fill:#fff;fill-opacity:1;fill-rule:evenodd;stroke:none" transform="matrix(.89406 0 0 .9405 60.203 59.134)"></path><path d="M153.059 106.777c-.84-.09-1.364-.355-1.934-.976-.637-.696-.863-1.344-.797-2.285a7 7 0 0 0-1.488.62c-1.137.61-1.617 1.216-2.55 2.106-.65.621-.997.988-1.58 1.668-.32.496-.394.914-.265 1.488.16.72.625 1.016 1.239 1.418.87.575 1.582.54 2.625.516 1.023-.023 1.691-.05 2.55-.605.844-.543 1.145-1.122 1.594-2.02.352-.707.492-1.152.606-1.93M151.215 112.395c.406-.313.625-.512.973-.887.777-.828.996-1.473 1.578-2.45.582-.972.8-1.585 1.402-2.546.602-.965.789-1.672 1.68-2.375.687-.543 1.164-1.153 2.02-.973.644.133 1.046.457 1.312 1.059a11.3 11.3 0 0 1-.532 1.668c-.257.668-.593.972-.78 1.668-.173.628-.212 1.011-.177 1.664a4.8 4.8 0 0 0-1.418 0c-.785.101-1.253.21-1.93.62-.702.427-.894.923-1.488 1.489-.44.422-.582.844-1.152 1.063-.543.203-.945.203-1.488 0M160.621 102.383c.188.699.246 1.113.27 1.84.043 1.504-.442 2.316-.801 3.777-.492 2.016-1.13 3.059-1.488 5.102-.305 1.761-.387 2.785-.352 4.57.023 1.445.203 2.25.352 3.687.128 1.23.437 1.922.355 3.157-.11 1.695-.434 2.703-1.328 4.144.426-.039.668-.098 1.062-.265.934-.399 1.07-1.184 1.844-1.844 1.125-.961 1.817-1.48 3.156-2.11 1.543-.722 2.63-.527 4.215-1.148.778-.309 1.39-.266 1.95-.887.492-.547.523-1.039.69-1.754.36-1.5-.335-2.41-.265-3.953.086-1.883.598-2.886.887-4.746.152-.996.7-1.61.352-2.555-.184-.503-.36-.812-.793-1.132-.59-.434-1.125-.227-1.844-.356-.82-.148-1.395.07-2.11-.351-.625-.371-.668-.942-1.226-1.403-.582-.484-1.14-.441-1.68-.972-.71-.7-.336-1.696-1.137-2.286-.68-.503-1.27-.652-2.109-.515" style="fill:#fff;fill-opacity:1;fill-rule:evenodd;stroke:none" transform="matrix(.89406 0 0 .9405 60.203 59.134)"></path><path d="M155.254 128.57c.617-.207.96-.422 1.418-.882.71-.723.805-1.395 1.047-2.376.246-1.003.367-1.624.176-2.64-.235-1.262-.704-1.95-1.579-2.89-.742-.794-1.406-.954-2.285-1.59-.691-.504-.933-1.075-1.754-1.317-.757-.219-1.285-.195-2.023.09a10.3 10.3 0 0 0 0 2.02c.09 1.011.156 1.605.52 2.55.417 1.098.902 1.606 1.59 2.55.632.868 1.183 1.208 1.757 2.114.55.863.805 1.399 1.133 2.371M99.402 167.418c.868-.215 1.332-.422 2.2-.625.89-.211 1.406-.254 2.304-.43 1.68-.328 2.64-.457 4.29-.914 1.66-.46 2.57-.82 4.179-1.449 1.57-.61 2.457-.965 3.965-1.71.914-.45 1.363-.84 2.305-1.235.91-.38 1.632-.145 2.414-.75.492-.383.59-.778 1.02-1.235.464-.492.773-.726 1.28-1.175 1.086-.95 1.813-1.356 2.899-2.305 1.437-1.254 2.222-2 3.48-3.43 1.25-1.422 1.856-2.312 2.946-3.863.851-1.207 1.332-1.89 2.09-3.156.554-.926.66-1.582 1.343-2.414.36-.434.746-.528 1.02-1.02.312-.555.18-.984.324-1.605.21-.907.383-1.407.64-2.305.325-1.129.653-1.734.856-2.895.309-1.77.137-2.816 0-4.609-.078-1.027-.418-1.598-.32-2.625.039-.445-.086-.797.21-1.129.31-.34.676-.262 1.13-.32.375-.047.609.12.964 0 .637-.215.497-.965 1.02-1.39.5-.407.914-.423 1.496-.7.863-.41 1.457-.473 2.2-1.07.507-.407.874-.633 1.124-1.235.282-.676-.12-1.156 0-1.875.114-.652-.008-1.23.535-1.605.372-.254.696-.317 1.13-.215.054.781.124 1.226.32 1.984.3 1.16.601 1.79 1.175 2.84.551 1 .97 1.504 1.664 2.41.614.801 1.188 1.094 1.665 1.985.753 1.418-.047 2.62.64 4.074.344.723.707 1.031 1.125 1.71.348.56.735.806.86 1.446.168.879-.356 1.356-.645 2.2-.344 1.003-.848 1.472-1.02 2.519-.183 1.117.649 1.848.211 2.898-.238.578-.656.735-.96 1.282-.516.93-.376 1.625-.747 2.625-.613 1.64-1.257 2.43-2.09 3.968-1.296 2.387-1.945 3.785-3.433 6.055-1.488 2.273-2.414 3.508-4.184 5.57-1.418 1.664-2.347 2.493-3.855 4.075-.942.984-1.227 1.851-2.414 2.52-.547.308-.938.304-1.496.593-.602.312-.957.496-1.45.96-.507.485-.597.93-1.07 1.45-1.18 1.309-2.265 1.574-3.754 2.52-2.383 1.519-3.73 2.398-6.27 3.644-2.413 1.188-3.835 1.738-6.378 2.625-1.445.504-2.246.875-3.75 1.176-.934.187-1.465.375-2.41.32-.336-.02-.524-.105-.86-.105-.855 0-1.27.433-2.09.699-.933.305-1.449.547-2.41.75-1.636.344-2.617.105-4.289.215-1.62.101-2.535.195-4.152.32-1.621-.125-2.535-.219-4.156-.32-1.668-.11-2.649.129-4.286-.215-.964-.203-1.476-.445-2.414-.75-.816-.266-1.23-.7-2.09-.7-.335 0-.519.087-.855.106-.945.055-1.48-.133-2.41-.32-1.504-.301-2.305-.672-3.754-1.176-2.539-.887-3.96-1.437-6.379-2.625-2.539-1.246-3.883-2.129-6.27-3.644-1.488-.946-2.574-1.211-3.753-2.52-.469-.52-.559-.965-1.067-1.45-.496-.464-.847-.648-1.449-.96-.559-.29-.953-.285-1.5-.594-1.184-.668-1.473-1.535-2.41-2.52-1.508-1.582-2.438-2.41-3.86-4.074-1.765-2.062-2.695-3.297-4.18-5.57-1.487-2.27-2.136-3.668-3.433-6.055-.832-1.539-1.48-2.328-2.09-3.968-.37-1-.23-1.696-.75-2.625-.304-.547-.722-.704-.96-1.282-.434-1.05.398-1.78.214-2.898-.175-1.047-.68-1.516-1.023-2.52-.29-.843-.809-1.32-.64-2.199.124-.64.507-.887.855-1.445.422-.68.785-.988 1.129-1.711.687-1.453-.118-2.656.64-4.074.477-.891 1.051-1.184 1.664-1.985.692-.906 1.114-1.41 1.66-2.41.579-1.05.88-1.68 1.176-2.84.196-.758.27-1.199.324-1.984.434-.102.758-.04 1.125.215.543.375.426.953.536 1.605.125.719-.278 1.2 0 1.875.25.602.62.828 1.129 1.235.742.597 1.335.66 2.195 1.07.586.277 1 .293 1.5.7.52.425.383 1.175 1.02 1.39.355.12.59-.047.96 0 .457.058.825-.02 1.13.32.3.332.171.684.214 1.129.098 1.027-.242 1.598-.32 2.625-.14 1.793-.313 2.84 0 4.61.203 1.16.531 1.765.855 2.894.254.898.43 1.398.64 2.305.145.62.009 1.05.321 1.605.278.492.664.586 1.024 1.02.683.832.785 1.488 1.34 2.414.761 1.265 1.238 1.949 2.09 3.156 1.09 1.55 1.695 2.441 2.949 3.863 1.257 1.43 2.042 2.176 3.476 3.43 1.09.95 1.813 1.355 2.899 2.305.511.449.816.683 1.28 1.175.434.457.528.856 1.024 1.235.781.605 1.504.37 2.41.75.942.394 1.391.785 2.305 1.234 1.512.746 2.398 1.102 3.969 1.711 1.605.629 2.52.988 4.18 1.45 1.648.456 2.609.585 4.289.913.894.176 1.414.219 2.304.43.867.203 1.332.41 2.196.625 1.168.289 1.824.605 3.027.605s1.86-.312 3.023-.605" style="fill:#fff;fill-opacity:1;fill-rule:evenodd;stroke:none" transform="matrix(.89406 0 0 .9405 60.203 59.134)"></path><path d="M44.676 84.164c.738.402 1.246.535 2.086.559.601.011 1.027-.141 1.527-.227.336-.055.215.77-.11.863-.722.207-1.234.258-1.917-.043-.668-.293-1.133-.539-1.586-1.152M44.3 85.816c.74.403 1.243.54 2.087.559.601.016 1.027-.14 1.527-.223.336-.054.215.766-.11.86-.722.21-1.234.258-1.921-.04-.668-.292-1.13-.538-1.582-1.156M44.512 87.934c.738.402 1.242.535 2.082.554.605.016 1.027-.14 1.531-.222.332-.055.215.765-.113.859-.723.21-1.23.262-1.918-.04-.668-.292-1.133-.538-1.582-1.151M43.02 92.285a8.8 8.8 0 0 1-1.739-1.238c-.504-.445-.804-.895-1.195-1.25-.5-.461-.965.11-.793.414.418.754.941.992 1.695 1.406.73.399 1.203.555 2.032.668M41.824 94.691c-.613-.324-.941-.57-1.418-1.07-.445-.46-.59-.945-.945-1.336-.418-.46-.914.363-.668.625.543.586.754.766 1.336 1.113.61.364 1 .516 1.695.668M39.879 96.594a3.2 3.2 0 0 1-.879-.582c-.281-.254-.281-.457-.625-.739-.363-.289-.57.317-.402.504.316.36.539.446.945.61.355.144.574.191.96.207M45.258 94.441c.55.336.84.586 1.254 1.086.347.422.379.758.734 1.192.375.46.918-.04.543-.54-.297-.398-.453-.636-.836-.945-.566-.46-.976-.656-1.695-.793M44.84 96.219c.555.375.847.629 1.297 1.129.32.355.304.449.734.984.332.418.723-.082.586-.316-.293-.5-.57-.707-1.031-1.043-.551-.407-.922-.582-1.586-.754M44.23 98.207c.61.273.942.484 1.446.918.402.348.547.582.918 1.004.32.36.738-.082.402-.5a3.3 3.3 0 0 0-1.07-.918c-.598-.348-1.008-.469-1.696-.504M43.73 100.406c.54.207.836.38 1.278.75.308.258.293.5.71.754.247.145.876-.086.5-.543-.382-.469-.554-.554-1.003-.754-.535-.234-.906-.289-1.485-.207M31.773 113.52c-.472-1.207-.68-1.918-.925-3.188-.235-1.21-.2-2.2-.336-3.137-.04-.285-.711-.285-.739 0-.132 1.34.028 2.04.403 3.27.394 1.285.765 1.996 1.597 3.055M29.508 114.188c-.567-.934-.809-1.532-1.059-2.598-.246-1.063-.203-1.727-.203-2.785 0-.325-.773-.313-.8.199-.075 1.2.066 1.762.468 2.785.41 1.047.79 1.617 1.594 2.398M26.79 114.66c-.349-1.078-.493-1.71-.63-2.832a12.3 12.3 0 0 1-.105-2.34c.02-.48-.672-.57-.743.04-.136 1.203.016 1.57.27 2.53.285 1.083.566 1.684 1.207 2.602M24.39 114.188a12 12 0 0 1-.203-1.926c-.023-.754-.152-.719.067-1.93.098-.527-.68-.629-.871.133-.18.734-.043 1.156.137 1.863.195.777.398 1.211.87 1.86M24.523 116.52c-.34.847-.476 1.359-.601 2.265-.145 1.028-.102 1.762 0 2.668.039.383 1.058.445.988.067-.238-1.325-.34-1.473-.418-2.426-.082-1-.074-1.578.031-2.574M26.988 117.527c-.422.77-.59 1.262-.738 2.13-.168 1-.195 1.35.07 2.597.078.379 1.055.383.989 0-.223-1.285-.309-1.422-.372-2.348-.062-.93-.05-1.457.051-2.379M29.117 118.652a14 14 0 0 0-.398 2.395c-.07.726-.254 1.055-.07 1.863.078.328.898.403.859.067-.117-.98-.223-1.047-.301-1.723a13 13 0 0 1-.09-2.602M31.25 119.121a12 12 0 0 0-.535 2.332c-.117.82-.11 1.371-.137 2.129-.023.684 1.02.496.973.117-.172-1.347-.238-1.324-.301-2.18a14.5 14.5 0 0 1 0-2.398M43.754 125.168c-.133-.602-.113-.996.074-1.586.192-.59.547-.96.863-1.328.274-.324 1.34.285.715.773-.347.274-.562.332-.847.63-.465.48-.668.859-.805 1.511M47.035 126.637c-.242-.547-.262-.961-.082-1.528.14-.445.352-.754.668-.992.277-.21 1.067.102.633.512-.316.297-.457.351-.676.644-.344.457-.476.793-.543 1.364M49.125 128.316c-.113-.671-.055-1.113.227-1.734a2.8 2.8 0 0 1 .668-.937c.417-.407 1.37.14.804.667-.324.301-.566.293-.86.57-.472.446-.679.81-.839 1.434M51.348 129.973c-.176-.598-.16-1.016.066-1.594.223-.57.649-.969 1.004-1.207.477-.32 1.074.332.602.601-.48.278-.547.387-.832.707-.446.497-.645.852-.84 1.493M148.078 84.164c-.738.402-1.242.535-2.086.559-.601.011-1.023-.141-1.527-.227-.332-.055-.211.77.113.863.723.207 1.23.258 1.918-.043.668-.293 1.133-.539 1.582-1.152M148.453 85.816c-.738.403-1.242.54-2.086.559-.601.016-1.023-.14-1.527-.223-.332-.054-.211.766.113.86.723.21 1.235.258 1.918-.04.668-.292 1.133-.538 1.582-1.156M148.246 87.934c-.738.402-1.242.535-2.086.554-.601.016-1.027-.14-1.527-.222-.332-.055-.215.765.11.859.726.21 1.234.262 1.921-.04.668-.292 1.129-.538 1.582-1.151M149.738 92.285a9 9 0 0 0 1.739-1.238c.503-.445.8-.895 1.191-1.25.504-.461.965.11.797.414-.418.754-.945.992-1.7 1.406-.73.399-1.202.555-2.027.668M150.934 94.691c.613-.324.937-.57 1.418-1.07.441-.46.586-.945.945-1.336.418-.46.914.363.668.625-.543.586-.754.766-1.336 1.113-.61.364-1 .516-1.695.668M152.879 96.594c.371-.176.57-.309.879-.582.277-.254.281-.457.625-.739.36-.289.566.317.402.504-.32.36-.539.446-.945.61a2.5 2.5 0 0 1-.961.207M147.496 94.441a4.3 4.3 0 0 0-1.25 1.086c-.351.422-.383.758-.738 1.192-.375.46-.918-.04-.54-.54.298-.398.454-.636.833-.945.566-.46.98-.656 1.695-.793M147.914 96.219a6 6 0 0 0-1.293 1.129c-.32.355-.308.449-.734.984-.336.418-.723-.082-.586-.316.293-.5.566-.707 1.027-1.043.55-.407.926-.582 1.586-.754M148.527 98.207a5.2 5.2 0 0 0-1.449.918c-.398.348-.547.582-.918 1.004-.316.36-.734-.082-.402-.5.347-.43.597-.645 1.07-.918.598-.348 1.008-.469 1.7-.504M149.027 100.406c-.539.207-.836.38-1.277.75-.312.258-.293.5-.71.754-.247.145-.88-.086-.505-.543.383-.469.559-.554 1.004-.754.535-.234.906-.289 1.488-.207M160.984 113.52c.47-1.207.676-1.918.922-3.188.239-1.21.203-2.2.336-3.137.043-.285.711-.285.738 0 .133 1.34-.023 2.04-.402 3.27-.394 1.285-.766 1.996-1.594 3.055M163.25 114.188c.566-.934.809-1.532 1.059-2.598.246-1.063.199-1.727.199-2.785 0-.325.773-.313.804.199.07 1.2-.066 1.762-.468 2.785-.41 1.047-.79 1.617-1.594 2.398M165.969 114.66c.347-1.078.488-1.71.629-2.832.109-.906.14-1.418.105-2.34-.02-.48.668-.57.738.04.137 1.203-.011 1.57-.265 2.53-.29 1.083-.57 1.684-1.207 2.602M168.367 114.188c.13-.743.176-1.172.2-1.926.027-.754.156-.719-.067-1.93-.094-.527.68-.629.871.133.184.734.043 1.156-.133 1.863-.195.777-.398 1.211-.87 1.86M168.234 116.52c.34.847.477 1.359.602 2.265.144 1.028.098 1.762 0 2.668-.04.383-1.063.445-.992.067.242-1.325.344-1.473.418-2.426.082-1 .078-1.578-.028-2.574M165.766 117.527c.422.77.593 1.262.738 2.13.168 1 .2 1.35-.066 2.597-.082.379-1.06.383-.993 0 .227-1.285.313-1.422.371-2.348.067-.93.055-1.457-.05-2.379M163.637 118.652c.226.918.316 1.453.402 2.395.066.726.254 1.055.066 1.863-.074.328-.894.403-.855.067.117-.98.223-1.047.3-1.723.118-1.008.137-1.59.087-2.602M161.508 119.121c.285.887.406 1.406.535 2.332.117.82.105 1.371.133 2.129.023.684-1.02.496-.973.117.176-1.347.242-1.324.305-2.18.066-.933.066-1.468 0-2.398M149.004 125.168c.133-.602.113-.996-.078-1.586-.188-.59-.543-.96-.86-1.328-.277-.324-1.34.285-.714.773.347.274.562.332.847.63.465.48.664.859.805 1.511M145.723 126.637c.242-.547.261-.961.082-1.528-.145-.445-.356-.754-.672-.992-.278-.21-1.067.102-.63.512.313.297.458.351.677.644.34.457.476.793.543 1.364M143.05 127.89c.243-.542.262-.956.083-1.527-.145-.441-.352-.75-.668-.992-.278-.21-1.067.106-.633.512.316.3.457.355.676.648.344.457.476.793.543 1.36M140.867 129.64c.242-.546.266-.96.082-1.527-.14-.445-.351-.754-.668-.996-.277-.21-1.066.106-.633.516.317.297.457.351.676.644.344.457.477.793.543 1.364" style="fill:#211e1e;fill-opacity:1;fill-rule:evenodd;stroke:none" transform="matrix(.89406 0 0 .9405 60.203 59.134)"></path><path d="M58.215 73.55v48.731c0 21.328 17.086 38.617 38.164 38.617s38.2-17.289 38.2-38.617v-48.73z" style="fill:#3887c7;fill-opacity:1;fill-rule:nonzero;stroke:none" transform="matrix(.89406 0 0 .9405 60.203 59.134)"></path><path d="M134.578 73.113h-76.8v49.168c0 21.535 17.316 39.055 38.6 39.055 21.306 0 38.638-17.52 38.638-39.055V73.113z" style="fill:#211e1e;fill-opacity:1;fill-rule:nonzero;stroke:none" transform="matrix(.89406 0 0 .9405 60.203 59.134)"></path><path d="m147.078 42.871-.82 1.711-1.281-.602.796-1.738a86 86 0 0 0-3.168-1.406l-.867 1.754-1.39-.55.73-1.825c-1.086-.43-2.176-.836-3.273-1.227l-1.504 3.817c-.082.261-.156.363-.153.629.012.355.446.386.559.726.129.39-.2.664-.07 1.055.172.508.77.45 1.027.922.457.828.352 1.71-.285 2.41l-1.856-.715-.93 1.84-.792-.281.8-1.895a97 97 0 0 0-2.59-.894l-.784 1.925-1.04-.328.63-1.984c-.82-.254-1.637-.504-2.454-.738l-.601 2.011-.79-.218.38-2.079-1.586-.425.105-1.203c.125-.454.309-.72.692-.989.667-.469 1.445.535 2.093.043.434-.332.297-.82.66-1.23.293-.332.618-.164.907-.7l1.164-3.726a107 107 0 0 0-3.012-.809l-.656 1.946-1.106-.27.41-2.012c-.87-.21-1.742-.41-2.605-.601l-.398 2.023-1.625-.34.343-2.039q-1.39-.286-2.758-.539l-.414 2.035-1.46-.257.214-2.07q-1.312-.23-2.601-.423l-.356 2.051-1.215-.176.122-2.09a138 138 0 0 0-3.059-.402l-.188 4.028c.09.601.45.55.614.964.199.508-.094.922.199 1.383.441.688 1.512.008 1.98.676.27.387.352.695.313 1.164l-.3 1.121-1.571-.226-.594 2.097-.879-.11.383-2.132q-1.3-.17-2.555-.305l-.234 2.157-1.031-.106.175-2.164-2.277-.203-.086 2.172-.914-.067-.144-2.19-1.516-.099c-.121-.785.113-1.418.719-1.964.57-.516 1.457.09 1.894-.543.242-.344-.015-.739.274-1.043.226-.239.558-.098.77-.348.167-.2.23-.363.234-.621l.214-4.113q-1.46-.128-2.84-.227l-.175 2.098-1.328-.078.086-2.106c-1.012-.058-1.98-.098-2.899-.129l-.09 2.106-1.55-.04.058-2.105c-.535-.012-2.582-.012-3.113 0l.058 2.106-1.55.039-.09-2.106c-.922.031-1.89.07-2.903.13l.09 2.105-1.328.078-.176-2.098q-1.378.098-2.843.227l.218 4.113a.88.88 0 0 0 .235.621c.21.25.543.11.77.348.288.304.03.699.273 1.043.437.632 1.324.027 1.894.543.606.546.84 1.18.719 1.964l-1.516.098-.148 2.191-.91.067-.086-2.172-2.277.203.175 2.164-1.03.106-.235-2.157c-.836.09-1.692.192-2.555.305l.383 2.133-.88.11-.593-2.098-1.574.226-.297-1.12c-.043-.47.043-.778.313-1.165.468-.668 1.539.012 1.98-.676.293-.46 0-.875.2-1.383.163-.414.523-.363.613-.964l-.188-4.028q-1.505.18-3.059.403l.122 2.09-1.215.175-.356-2.05q-1.29.192-2.601.421l.21 2.07-1.456.258-.414-2.035c-.91.168-1.833.348-2.758.54l.343 2.038-1.625.34-.398-2.023c-.863.191-1.734.39-2.605.601l.41 2.012-1.106.27-.656-1.946a107 107 0 0 0-3.012.809l1.164 3.727c.29.535.61.367.907.699.359.41.226.898.66 1.23.648.492 1.426-.512 2.09-.043.386.27.57.535.695.988l.105 1.204-1.586.425.38 2.079-.79.218-.601-2.011c-.817.234-1.637.484-2.453.738l.628 1.984-1.039.328-.785-1.925q-1.293.427-2.593.894l.804 1.895-.793.28-.93-1.839-1.855.715c-.637-.7-.742-1.582-.285-2.41.258-.473.855-.414 1.027-.922.13-.39-.199-.664-.07-1.055.113-.34.547-.37.555-.726.007-.266-.067-.368-.149-.63l-1.504-3.816c-1.097.39-2.191.797-3.273 1.227l.73 1.824-1.394.55-.867-1.753a88 88 0 0 0-3.164 1.406l.796 1.738-1.285.602-.816-1.71a65 65 0 0 0-3.176 1.675l1.863 3.683c.063.114.082.168.168.27.243.297.578-.324.953-.238.47.11.418.66.825.918.484.304.937.05 1.43.34.449.265.683.503.929.964l.535 1.055 4.746 12.824c-.933.489-.8 1.297-.449 2.032.39.82 1.5.218 2.188.82.343.297.37.629.73.91.52.406 1.23-.355 1.606.531.53 1.25-.512.867-.512 1.614 0 .664.222.503.222.824 0 .793-.496.547-.496 1.773 0 .828.399 1.211.938 1.39v.227l76.363.079v-.305c.54-.18.938-.563.938-1.39 0-1.227-.496-.981-.496-1.774 0-.32.222-.16.222-.824 0-.747-1.047-.364-.512-1.614.375-.886 1.086-.125 1.61-.531.355-.281.383-.613.726-.91.684-.602 1.793 0 2.188-.82.351-.735.484-1.543-.45-2.032l4.747-12.824.535-1.055c.25-.46.48-.699.93-.964.492-.29.945-.036 1.425-.34.41-.258.36-.809.829-.918.375-.086.71.535.953.238.086-.102.105-.156.168-.27l1.863-3.683a65 65 0 0 0-3.176-1.676m-87.14 30.367c13.773-5.328 27.726-7.27 36.44-7.27 8.712 0 22.704 1.942 36.477 7.27z" style="fill:#211e1e;fill-opacity:1;fill-rule:nonzero;stroke:none" transform="matrix(.89406 0 0 .9405 60.203 59.134)"></path><path d="m65.754 60.215-1.09-3.028c-.91.258-1.816.532-2.73.82l1.937 2.79q.945-.3 1.883-.582M65.18 57.043l1.074 3.023c.746-.218 1.484-.43 2.223-.632l-.309-3.184c-1.008.254-1.992.516-2.988.793M61.863 54.688c-.566.18-1.375.445-1.82.593l1.477 2.13q.678-.217 1.363-.427zM63.46 56.813a97 97 0 0 1 2.61-.743l-.703-2.425q-1.458.406-2.93.859zM67.895 53.027c-.598.125-1.211.285-1.813.426l.66 2.438q.685-.182 1.36-.352zM67.793 52.273l-.25-2.554-.695.183.422 2.508zM63.871 53.344a105 105 0 0 1 2.863-.797l-.582-2.461a99 99 0 0 0-3.117.89zM60.688 54.34q1.323-.438 2.648-.836l-.848-2.36c-.988.31-1.98.63-2.972.973zM58.176 52.59l1.46 2.101.524-.175-1.191-2.211a64 64 0 0 0-.793.285M64.719 48.3q.891-.252 1.777-.487l-.344-2.09c.328-.086.657-.176.985-.258l.34 3.547c-3.852.902-8.586 2.629-9.704 3l-2-2.883q.615-.239 1.23-.473l.981 1.82q.91-.328 1.82-.64l-.8-1.902q.749-.262 1.492-.512l.742 1.937q1.066-.346 2.133-.664l-.629-1.992q.681-.206 1.363-.406zM54.61 39.852l1.257 3.05c-3.804 1.301-7.535 2.836-11.062 4.645l-1.356-2.777q.981-.534 1.985-1.032l.828 1.7c.808-.391 1.629-.77 2.453-1.133l-.781-1.758c.632-.29 1.27-.567 1.91-.84l.879 1.742a86 86 0 0 1 2.578-1.011l-.742-1.825q1.02-.392 2.05-.761M63.398 40.633l-1.105-3.196q.85-.23 1.7-.449l.734 1.985c.484-.118 1.496-.364 2.187-.52l-.383-2.09c.457-.11.91-.21 1.364-.312l.496 2.07c.921-.2 1.843-.39 2.757-.57l-.324-2.121q.709-.143 1.41-.274l.461 2.102q1.373-.258 2.727-.48l-.223-2.15q.703-.115 1.395-.222l.418 2.117q1.155-.181 2.281-.336l-.129-2.16c.586-.082 1.164-.156 1.734-.23l.286 3.457c-5.528.68-11.637 1.758-17.786 3.379M80.574 46.453l-1.332-3.441.844-.125.7 2.086a93 93 0 0 1 1.921-.246l-.34-2.141c.442-.055.875-.106 1.309-.156l.242 2.156a168 168 0 0 1 2.102-.215l-.192-2.16q.621-.06 1.23-.113l.079 2.175q.964-.08 1.894-.144l.196-2.195.87-.051-.495 3.664c-2.778.176-5.817.465-9.028.906M85.902 56.031l-.297-2.754c-.675.067-1.804.192-2.304.246l1.047 2.704a81 81 0 0 1 1.554-.196M86.09 53.234l.262 2.743q.915-.104 1.796-.192l.38-2.75q-1.19.082-2.438.2M83.031 52.828q.573-.07 1.133-.129l-.578-2.55c-.457.05-1.207.14-1.52.18zM84.71 52.64q1.204-.123 2.36-.218l.035-2.621c-.957.082-1.937.172-2.94.281zM87.563 52.379q.537-.042 1.07-.078l.37-2.645q-.678.048-1.382.102zM81.492 47.059l-.652.086.96 2.492.544-.07zM82.813 49.512q1.202-.146 2.363-.262l-.278-2.59c-.875.094-2.382.274-2.789.32zM85.707 49.2q1.243-.12 2.434-.208l.109-2.625c-.852.063-2.352.2-2.79.238zM89.48 46.281l-.64.043-.235 2.633.5-.035zM51.383 55.473s.308-.254.484-.336c.922-.43 2.246-.059 3.203 1.57l3.95 5.758.722-.266-4.406-6.418c-1.328-1.808-2.852-1.734-3.777-1.304-.149.07-.446.261-.446.261z" style="fill:#bdbfc2;fill-opacity:1;fill-rule:evenodd;stroke:none" transform="matrix(.89406 0 0 .9405 60.203 59.134)"></path><path d="M47.605 48.512c.653.316 1.008.601 1.465 1.175.477.602.836 1.793.836 1.793l.946 2.555q.204-.125.402-.215c1.023-.48 2.851-.754 4.457 1.352l4.633 6.812a122 122 0 0 1 2.976-1.007l-8.238-11.86c-.383-.492-.55-.832-.71-1.433-.196-.72-.208-1.18-.048-1.91a84 84 0 0 0-6.719 2.738M54.797 44a86 86 0 0 0-8.227 3.402c-.215.11-.246.36-.133.547.102.16.239.27.45.172a87 87 0 0 1 8.43-3.434c.18-.062.14-.277.078-.44a.45.45 0 0 0-.598-.247M79.52 38.195c-4.665.63-9.696 1.543-14.778 2.82-.21.07-.273.31-.207.516.063.196.195.36.438.297 5.09-1.266 10.117-2.168 14.78-2.793.25-.031.34-.25.313-.469-.03-.254-.242-.41-.546-.37M83.672 56.316l-5.707-14.52a3 3 0 0 1-.043-.78c.02-.407.066-.645.203-1.028a138 138 0 0 0-11.02 2.055c.211.367.297.574.391.941.102.375.129.598.125.985l1.457 15.304c.887-.238 1.766-.46 2.64-.675l-.75-7.735c-.124-2.644 1.454-3.61 2.548-3.902 1.093-.293 2.937-.242 4.156 2.11l3.45 7.628c.808-.129 1.753-.27 2.55-.383" style="fill:#bdbfc2;fill-opacity:1;fill-rule:evenodd;stroke:none" transform="matrix(.89406 0 0 .9405 60.203 59.134)"></path><path d="m80.441 56.797-3.246-7.195c-.996-2.012-2.507-2.204-3.492-1.938-.984.262-2.2 1.184-2.055 3.422l.723 7.355.723-.168-.649-6.648c-.312-1.86.461-2.996 1.446-3.262.984-.261 2.222.336 2.882 2.106l2.918 6.453zM127.04 60.215l1.089-3.028c.91.258 1.816.532 2.73.82l-1.937 2.79q-.948-.3-1.883-.582M127.613 57.043l-1.074 3.023c-.746-.218-1.484-.43-2.226-.632l.308-3.184c1.012.254 1.996.516 2.992.793M130.93 54.688c.566.18 1.375.445 1.82.593l-1.48 2.13q-.68-.217-1.36-.427zM129.332 56.813a97 97 0 0 0-2.61-.743l.7-2.425q1.464.406 2.933.859zM124.898 53.027c.598.125 1.211.285 1.813.426l-.664 2.438a99 99 0 0 0-1.356-.352zM125 52.273l.246-2.554.7.183-.423 2.508zM128.922 53.344c-.957-.282-1.914-.547-2.863-.797l.578-2.461q1.558.416 3.12.89zM132.105 54.34a99 99 0 0 0-2.648-.836l.844-2.36a98 98 0 0 1 2.976.973zM134.617 52.59l-1.46 2.101-.524-.175 1.191-2.211q.397.139.793.285M128.07 48.3q-.889-.252-1.773-.487l.344-2.09c-.329-.086-.657-.176-.985-.258l-.34 3.547c3.852.902 8.586 2.629 9.7 3l2-2.883q-.61-.239-1.23-.473l-.977 1.82q-.91-.328-1.825-.64l.805-1.902q-.749-.262-1.492-.512l-.742 1.937c-.711-.23-1.426-.453-2.133-.664l.629-1.992q-.685-.206-1.363-.406zM138.184 39.852l-1.258 3.05c3.8 1.301 7.535 2.836 11.062 4.645l1.356-2.777q-.983-.534-1.985-1.032l-.828 1.7c-.808-.391-1.629-.77-2.453-1.133l.781-1.758c-.632-.29-1.27-.567-1.914-.84l-.875 1.742a86 86 0 0 0-2.578-1.011l.742-1.825a92 92 0 0 0-2.05-.761M129.395 40.633l1.105-3.196q-.85-.23-1.7-.449l-.734 1.985c-.484-.118-1.496-.364-2.187-.52l.383-2.09c-.457-.11-.91-.21-1.367-.312l-.493 2.07a158 158 0 0 0-2.757-.57l.32-2.121q-.704-.143-1.406-.274l-.461 2.102c-.914-.172-1.828-.332-2.727-.48l.223-2.15q-.703-.115-1.395-.222l-.418 2.117q-1.154-.181-2.285-.336l.133-2.16c-.586-.082-1.164-.156-1.734-.23l-.286 3.457c5.528.68 11.637 1.758 17.786 3.379M112.219 46.453l1.332-3.441-.844-.125-.703 2.086a92 92 0 0 0-1.918-.246l.34-2.141q-.663-.082-1.313-.156l-.242 2.156q-1.065-.116-2.098-.215l.192-2.16c-.418-.04-.824-.078-1.23-.113l-.079 2.175q-.967-.08-1.894-.144l-.2-2.195-.87-.051.5 3.664c2.777.176 5.816.465 9.027.906M106.89 56.031l.298-2.754c.675.067 1.8.192 2.3.246l-1.043 2.704a85 85 0 0 0-1.554-.196M106.703 53.234l-.266 2.743q-.913-.104-1.796-.192l-.375-2.75q1.19.082 2.437.2M109.758 52.828q-.568-.07-1.13-.129l.579-2.55c.457.05 1.207.14 1.516.18zM108.086 52.64q-1.209-.123-2.363-.218l-.036-2.621c.957.082 1.938.172 2.942.281zM105.23 52.379q-.537-.042-1.07-.078l-.37-2.645q.678.048 1.382.102zM111.3 47.059l.653.086-.96 2.492-.544-.07zM109.98 49.512q-1.202-.146-2.363-.262l.278-2.59c.875.094 2.378.274 2.789.32zM107.086 49.2q-1.243-.12-2.434-.208l-.109-2.625c.852.063 2.352.2 2.789.238zM103.313 46.281l.64.043.234 2.633-.503-.035zM141.41 55.473s-.308-.254-.484-.336c-.922-.43-2.246-.059-3.203 1.57l-3.95 5.758-.722-.266 4.406-6.418c1.328-1.808 2.852-1.734 3.777-1.304.149.07.442.261.442.261z" style="fill:#bdbfc2;fill-opacity:1;fill-rule:evenodd;stroke:none" transform="matrix(.89406 0 0 .9405 60.203 59.134)"></path><path d="M145.188 48.512c-.657.316-1.008.601-1.461 1.175-.48.602-.84 1.793-.84 1.793l-.946 2.555a4 4 0 0 0-.402-.215c-1.023-.48-2.852-.754-4.457 1.352l-4.633 6.812a116 116 0 0 0-2.98-1.007l8.242-11.86c.383-.492.55-.832.71-1.433.192-.72.208-1.18.048-1.91 2.281.82 4.531 1.73 6.719 2.738M137.996 44c2.805 1 5.567 2.129 8.227 3.402.21.11.246.36.132.547-.101.16-.242.27-.449.172a86 86 0 0 0-8.433-3.434c-.176-.062-.137-.277-.075-.44a.446.446 0 0 1 .598-.247M113.27 38.195c4.668.63 9.699 1.543 14.78 2.82.212.07.274.31.208.516-.067.196-.196.36-.438.297-5.09-1.266-10.12-2.168-14.78-2.793-.25-.031-.34-.25-.313-.469.03-.254.238-.41.543-.37M109.117 56.316l5.707-14.52c.055-.3.063-.476.047-.78a3 3 0 0 0-.207-1.028c3.531.512 7.25 1.188 11.02 2.055a3.3 3.3 0 0 0-.387.941 3.1 3.1 0 0 0-.125.985l-1.457 15.304c-.887-.238-1.77-.46-2.645-.675l.754-7.735c.121-2.644-1.453-3.61-2.547-3.902-1.093-.293-2.937-.242-4.156 2.11l-3.453 7.628c-.805-.129-1.75-.27-2.55-.383" style="fill:#bdbfc2;fill-opacity:1;fill-rule:evenodd;stroke:none" transform="matrix(.89406 0 0 .9405 60.203 59.134)"></path><path d="m112.348 56.797 3.25-7.195c.996-2.012 2.507-2.204 3.492-1.938.984.262 2.2 1.184 2.055 3.422l-.723 7.355-.723-.168.649-6.648c.308-1.86-.461-2.996-1.446-3.262-.984-.261-2.222.336-2.882 2.106l-2.918 6.453zM96.379 36.238c-2.594 0-5.785.121-9.371.414l-.172-3.476q.792-.063 1.562-.121l.18 2.125c.86-.063 1.695-.118 2.496-.164l-.031-2.121c.394-.02 1.074-.051 1.598-.07l.117 2.109q1.508-.059 2.828-.075l-.086-2.105c.3-.004 1.492-.004 1.793 0l-.086 2.105q1.32.017 2.828.075l.117-2.11c.524.02 1.203.051 1.594.07l-.027 2.122c.8.046 1.637.101 2.496.164l.18-2.125c.511.039 1.035.078 1.562.12l-.172 3.477c-3.586-.293-6.812-.414-9.406-.414M96.379 36.965c-2.215 0-4.86.09-7.82.3a.426.426 0 0 0-.41.477c.019.211.124.41.382.395 2.969-.211 5.625-.301 7.848-.301 2.219 0 4.914.09 7.883.3.258.016.36-.183.379-.394a.42.42 0 0 0-.407-.476c-2.96-.211-5.64-.301-7.855-.301M96.379 38.563c-1.754 0-3.777.054-6.008.183.281.45.39.738.477 1.246a3.1 3.1 0 0 1-.04 1.36l-2.101 14.382c.902-.082 2.094-.168 2.957-.222l1.246-7.489c.567-2.586 2.336-3.113 3.469-3.113s2.937.528 3.504 3.113l1.246 7.489c.863.054 2.055.14 2.957.222l-2.102-14.382c-.12-.516-.129-.836-.039-1.36.086-.508.196-.797.477-1.246a106 106 0 0 0-6.043-.184" style="fill:#bdbfc2;fill-opacity:1;fill-rule:evenodd;stroke:none" transform="matrix(.89406 0 0 .9405 60.203 59.134)"></path><path d="M96.379 45.64c-1.02 0-2.434.575-2.871 2.774l-1.184 7.055.766-.04 1.05-6.288c.18-1.875 1.22-2.774 2.239-2.774 1.02 0 2.094.899 2.273 2.774L99.7 55.43l.77.039-1.184-7.055c-.437-2.2-1.887-2.773-2.906-2.773M96.379 56.082c-9.887 0-26.285 2.29-41.852 8.906-.254.137-.304.575-.164.907.192.445.692.601 1.184.398 15.254-6.281 31.168-8.465 40.832-8.465s25.613 2.184 40.867 8.465c.492.203.992.047 1.184-.398.136-.332.09-.77-.164-.907-15.567-6.617-32.004-8.906-41.887-8.906" style="fill:#bdbfc2;fill-opacity:1;fill-rule:evenodd;stroke:none" transform="matrix(.89406 0 0 .9405 60.203 59.134)"></path><path d="M96.379 58.555c-9.43 0-24.809 2.078-39.719 8.015-.137.051-.195.246-.14.403a.34.34 0 0 0 .433.207c14.82-5.848 30.059-7.899 39.426-7.899s24.64 2.051 39.46 7.899a.34.34 0 0 0 .434-.207c.055-.157-.004-.352-.14-.403-14.91-5.937-30.324-8.015-39.754-8.015" style="fill:#bdbfc2;fill-opacity:1;fill-rule:evenodd;stroke:none" transform="matrix(.89406 0 0 .9405 60.203 59.134)"></path><path d="M96.379 61.68c-8.793 0-22.922 1.976-36.82 7.418-.13.043-.375-.078-.465-.325-.09-.25.097-.457-.047-.683-.113-.188-.379-.121-.461-.324-.074-.188-.05-.446.07-.512 14.274-5.348 28.711-7.246 37.723-7.246 9.008 0 23.484 1.898 37.758 7.246.12.066.144.324.07.512-.082.203-.348.136-.465.324-.14.226.047.433-.047.683-.086.247-.332.368-.46.325-13.9-5.442-28.063-7.418-36.856-7.418" style="fill:#bdbfc2;fill-opacity:1;fill-rule:evenodd;stroke:none" transform="matrix(.89406 0 0 .9405 60.203 59.134)"></path><path d="M96.379 62.406c-8.988 0-23.559 2.067-37.75 7.785-.152.075-.207.286-.137.461.063.164.211.262.371.246 14.117-5.648 28.575-7.691 37.516-7.691 8.937 0 23.43 2.043 37.55 7.691a.36.36 0 0 0 .372-.246c.07-.175.015-.386-.137-.46-14.191-5.72-28.797-7.786-37.785-7.786" style="fill:#bdbfc2;fill-opacity:1;fill-rule:evenodd;stroke:none" transform="matrix(.89406 0 0 .9405 60.203 59.134)"></path><path d="M96.379 65.242c-8.953 0-23.488 1.965-37.613 7.653-.34.109-.543-.036-.672-.29-.137-.27-.055-.64.203-.753 14.3-5.82 29.023-7.918 38.082-7.918 9.058 0 23.816 2.097 38.113 7.918.262.113.344.484.207.753-.133.254-.336.399-.672.29-14.125-5.688-28.695-7.653-37.648-7.653M58.293 62.738l-3.59-5.23c-1.023-1.516-1.605-2.14-2.531-1.711-.234.11-.516.418-.516.418l2.961 7.996a105 105 0 0 1 3.676-1.473M73.832 58.105a122 122 0 0 1 5.113-1.035l-2.672-5.875c-.746-1.672-1.21-2.39-2.195-2.129-.984.266-1.027 1.118-.836 2.942zM134.5 62.738l3.586-5.23c1.027-1.516 1.61-2.14 2.531-1.711.238.11.52.418.52.418l-2.961 7.996a108 108 0 0 0-3.676-1.473M118.96 58.105q-2.61-.584-5.112-1.035l2.672-5.875c.746-1.672 1.21-2.39 2.195-2.129.98.266 1.023 1.118.836 2.942zM96.379 47.094c-1.02 0-1.281.812-1.57 2.62l-.95 5.688a71 71 0 0 1 2.52-.047c.797 0 1.672.016 2.55.047l-.945-5.687c-.289-1.809-.586-2.621-1.605-2.621" style="fill:#bdbfc2;fill-opacity:1;fill-rule:evenodd;stroke:none" transform="matrix(.89406 0 0 .9405 60.203 59.134)"></path><path d="m52.871 49.605 2.637 3.997.715-.286-2.649-4.015zM69.145 44.234l.187 5.043.816-.187-.191-5.047zM78.848 47.473l-1.828-4.805-.825.14 1.825 4.79zM92.227 41.05l-.805 5.122.828-.035.805-5.117zM100.563 41.05l.808 5.122-.832-.035-.805-5.117zM139.922 49.605l-2.637 3.997-.719-.286 2.653-4.015zM123.648 44.234l-.187 5.043-.816-.187.19-5.047zM113.945 47.473l1.828-4.805.825.14-1.825 4.79z" style="fill:#211e1e;fill-opacity:1;fill-rule:evenodd;stroke:none" transform="matrix(.89406 0 0 .9405 60.203 59.134)"></path><path d="M134.145 122.281V73.984H75.937l58.09 51.121c.07-.933.118-1.875.118-2.824M58.648 122.281c0 21.055 16.926 38.18 37.73 38.18 10.466 0 19.946-4.328 26.794-11.305L58.648 92.38z" style="fill:#03cbf5;fill-opacity:1;fill-rule:nonzero;stroke:none" transform="matrix(.89406 0 0 .9405 60.203 59.134)"></path><path d="M75.938 73.984h-17.29V92.38l64.524 56.777a38.23 38.23 0 0 0 10.855-24.05z" style="fill:#c4c7c8;fill-opacity:1;fill-rule:nonzero;stroke:none" transform="matrix(.89406 0 0 .9405 60.203 59.134)"></path><path d="M121.102 78.469V77.16h-.555l-.008-.047c-.164-.86-.656-1.437-1.227-1.437-.566 0-1.058.578-1.222 1.437l-.012.047h-.55v1.309h-.454l.008.066c.27 1.563 1.188 2.653 2.23 2.653 1.047 0 1.961-1.09 2.231-2.653l.012-.066z" style="fill:#211e1e;fill-opacity:1;fill-rule:nonzero;stroke:none" transform="matrix(.89406 0 0 .9405 60.203 59.134)"></path><path d="M119.313 75.781c.496 0 .94.531 1.105 1.29h-2.207c.164-.758.61-1.29 1.101-1.29M120.996 77.27v1.109h-3.367v-1.11zM121.426 78.578c-.274 1.477-1.133 2.5-2.113 2.5-.977 0-1.84-1.023-2.11-2.5z" style="fill:#d9f661;fill-opacity:1;fill-rule:nonzero;stroke:none" transform="matrix(.89406 0 0 .9405 60.203 59.134)"></path><path d="m118.55 84.348.458-.047-.48-.18c-.012-.004-.993-.383-2.817-2.11-2.148-1.6-4.582-1.85-4.684-1.859l-.422-.043.395.254c.027.016 2.832 1.809 3.438 2.996.68 1.325 3.972 1.004 4.113.989" style="fill:#211e1e;fill-opacity:1;fill-rule:evenodd;stroke:none" transform="matrix(.89406 0 0 .9405 60.203 59.134)"></path><path d="M114.652 83.3c-.511-.995-2.32-2.292-3.136-2.847.796.149 2.53.578 4.062 1.719 1.25 1.183 2.078 1.723 2.527 1.969-1.07.058-3.027-.008-3.453-.84M118.844 91.898s-3.938.606-5.242-.718c-1.309-1.325-5.594-3.121-5.594-3.121s3.129.086 6.402 1.675c3.067 1.832 4.434 2.164 4.434 2.164" style="fill:#08ab75;fill-opacity:1;fill-rule:evenodd;stroke:none" transform="matrix(.89406 0 0 .9405 60.203 59.134)"></path><path d="M107.969 88.152c.043.02 4.281 1.809 5.558 3.102 1.328 1.344 5.168.77 5.332.746l.516-.078-.508-.125c-.012-.004-1.394-.352-4.402-2.149-3.266-1.586-6.422-1.695-6.453-1.695l-.551-.016zm5.707 2.953c-1.043-1.054-3.863-2.367-5.063-2.894 1.063.105 3.375.465 5.75 1.617 2.102 1.254 3.383 1.797 4.004 2.024-1.054.109-3.691.27-4.691-.747" style="fill:#211e1e;fill-opacity:1;fill-rule:evenodd;stroke:none" transform="matrix(.89406 0 0 .9405 60.203 59.134)"></path><path d="M119.336 86.297s1.258-2.961 2.754-3.149c3.308-.414 6.726-4.96 6.726-4.96s-1.757 4.238-5.695 6.503c-2.793 1.04-3.785 1.606-3.785 1.606" style="fill:#08ab75;fill-opacity:1;fill-rule:evenodd;stroke:none" transform="matrix(.89406 0 0 .9405 60.203 59.134)"></path><path d="M122.074 83.047c-1.535.191-2.781 3.086-2.836 3.21l-.117.282.266-.152c.011-.004 1.02-.578 3.77-1.598 3.937-2.266 5.738-6.52 5.753-6.562l-.176-.102c-.035.047-3.43 4.52-6.66 4.922m.028.207c2.542-.317 5.093-2.977 6.21-4.285-.718 1.34-2.421 4.011-5.242 5.636-2 .739-3.058 1.23-3.511 1.457.34-.707 1.375-2.664 2.543-2.808" style="fill:#211e1e;fill-opacity:1;fill-rule:evenodd;stroke:none" transform="matrix(.89406 0 0 .9405 60.203 59.134)"></path><path d="M130.688 83.137s-2.243 3.043-3.583 3.808c-1.168.672-2.066 1.25-3.078 1.618-2.543.925-4.765.78-4.765.78s2.476-2.85 5.629-3.847c2.98-.113 5.796-2.36 5.796-2.36" style="fill:#08ab75;fill-opacity:1;fill-rule:evenodd;stroke:none" transform="matrix(.89406 0 0 .9405 60.203 59.134)"></path><path d="M124.89 85.395c-3.171.996-5.683 3.851-5.706 3.882l-.137.157.207.011c.023.004 2.273.137 4.809-.785.82-.297 1.566-.734 2.43-1.238l.663-.387c1.344-.77 3.52-3.71 3.614-3.836l-.149-.14c-.027.02-2.824 2.222-5.73 2.336m.036.203c2.172-.082 4.285-1.32 5.258-1.977-.707.906-2.164 2.684-3.13 3.234l-.667.387c-.856.5-1.594.934-2.395 1.223-2.05.746-3.894.789-4.5.781.57-.61 2.766-2.808 5.434-3.648" style="fill:#211e1e;fill-opacity:1;fill-rule:evenodd;stroke:none" transform="matrix(.89406 0 0 .9405 60.203 59.134)"></path><path d="M119.176 95.918s1.773-5.484 4.879-6.621c2.539-.93 7.66-.313 7.66-.313s-6.938 1.758-8.18 3.621c-3 2.688-4.36 3.313-4.36 3.313" style="fill:#08ab75;fill-opacity:1;fill-rule:evenodd;stroke:none" transform="matrix(.89406 0 0 .9405 60.203 59.134)"></path><path d="M124.02 89.2c-3.118 1.14-4.872 6.46-4.942 6.687l-.074.222.215-.097c.058-.024 1.41-.66 4.386-3.328 1.223-1.829 8.067-3.579 8.133-3.594l.54-.14-.551-.067c-.211-.024-5.172-.613-7.707.316m.07.195c2-.735 5.664-.489 7.05-.364-1.663.457-6.628 1.93-7.69 3.516-2.27 2.031-3.595 2.871-4.087 3.152.39-1.078 2.082-5.336 4.727-6.304" style="fill:#211e1e;fill-opacity:1;fill-rule:evenodd;stroke:none" transform="matrix(.89406 0 0 .9405 60.203 59.134)"></path><path d="M118.777 101.82s-2.488-6.937-4.324-7.558c-1.5-.512-3.777 1.855-3.777 1.855s3.863.328 5.015 2.492c2.247 2.766 3.086 3.211 3.086 3.211" style="fill:#08ab75;fill-opacity:1;fill-rule:evenodd;stroke:none" transform="matrix(.89406 0 0 .9405 60.203 59.134)"></path><path d="m110.602 96.047-.153.156.215.02c.04 0 3.824.347 4.934 2.433 2.25 2.77 3.097 3.239 3.132 3.254l.235.125-.09-.25c-.102-.285-2.527-6.992-4.387-7.625-1.547-.523-3.793 1.79-3.886 1.887m3.816-1.692c1.547.528 3.629 5.813 4.145 7.176-.395-.312-1.262-1.105-2.793-2.988-1.008-1.898-4.016-2.398-4.868-2.504.516-.492 2.305-2.094 3.516-1.684" style="fill:#211e1e;fill-opacity:1;fill-rule:evenodd;stroke:none" transform="matrix(.89406 0 0 .9405 60.203 59.134)"></path><path d="M119.266 102.89s1.168-7.39 5.617-9.663c4.453-2.274 8.508 5.144 8.508 5.144s-7.371-5.351-8.82-1.422c-1.446 3.93-5.305 5.942-5.305 5.942" style="fill:#08ab75;fill-opacity:1;fill-rule:evenodd;stroke:none" transform="matrix(.89406 0 0 .9405 60.203 59.134)"></path><path d="M124.836 93.133c-4.445 2.273-5.66 9.664-5.672 9.738l-.031.207.18-.098c.043-.02 3.91-2.074 5.355-5.996.242-.652.672-1.078 1.281-1.261 2.524-.766 7.332 2.695 7.383 2.73l.371.27-.219-.403c-.043-.074-4.16-7.48-8.648-5.187m.094.183c3.714-1.894 7.207 3.2 8.129 4.696-1.215-.82-4.95-3.16-7.168-2.489-.676.204-1.153.672-1.414 1.391-1.239 3.352-4.282 5.313-5.07 5.773.226-1.183 1.577-7.351 5.523-9.37" style="fill:#211e1e;fill-opacity:1;fill-rule:evenodd;stroke:none" transform="matrix(.89406 0 0 .9405 60.203 59.134)"></path><path d="M118.984 106.36s3.93-4.65 7.657-5.84c1.332-.426 3.726-6.672 3.726-6.672s-1.137 6.312-2.691 7.27c-1.04.636-8.692 5.241-8.692 5.241" style="fill:#08ab75;fill-opacity:1;fill-rule:evenodd;stroke:none" transform="matrix(.89406 0 0 .9405 60.203 59.134)"></path><path d="M126.61 100.422c-3.712 1.183-7.665 5.824-7.708 5.871l.133.156 8.695-5.246c1.575-.965 2.692-7.078 2.739-7.34l-.2-.054c-.82 2.144-2.644 6.289-3.66 6.613m.066.2c1.027-.333 2.605-3.856 3.363-5.673-.406 1.848-1.312 5.403-2.418 6.078 0 0-6.16 3.72-8.098 4.887 1.133-1.234 4.223-4.36 7.153-5.293" style="fill:#211e1e;fill-opacity:1;fill-rule:evenodd;stroke:none" transform="matrix(.89406 0 0 .9405 60.203 59.134)"></path><path d="M119.14 88.61s-3.972-1.626-4.945-3.044c-.347-.504-5.73-1.62-5.73-1.62s5.46.656 6.262 1.265c.539.406 4.414 3.398 4.414 3.398" style="fill:#08ab75;fill-opacity:1;fill-rule:evenodd;stroke:none" transform="matrix(.89406 0 0 .9405 60.203 59.134)"></path><path d="M108.441 84.047c2.067.43 5.43 1.234 5.668 1.582.98 1.426 4.829 3.012 4.993 3.078l.101-.176-4.414-3.406c-.812-.617-6.09-1.258-6.312-1.281zm5.836 1.46c-.203-.292-1.847-.75-3.34-1.112 1.649.261 3.333.593 3.727.894 0 0 2.5 1.93 3.738 2.883-1.199-.547-3.437-1.664-4.125-2.664" style="fill:#211e1e;fill-opacity:1;fill-rule:evenodd;stroke:none" transform="matrix(.89406 0 0 .9405 60.203 59.134)"></path><path d="M118.898 81.195v27.852h.829V81.195z" style="fill:#08ab75;fill-opacity:1;fill-rule:evenodd;stroke:none" transform="matrix(.89406 0 0 .9405 60.203 59.134)" data-source="https://football-logos.cc"></path><path d="M119.727 81.094h-.93v28.058h1.035V81.094Zm-.102.207v27.644h-.621V81.301z" style="fill:#211e1e;fill-opacity:1;fill-rule:evenodd;stroke:none" transform="matrix(.89406 0 0 .9405 60.203 59.134)"></path><path d="M119.418 98.21s-2.66-3.222-5.348-3.25c-2.191-.026-6.035 1.58-6.035 1.58s5.813-.45 7.211.491c2.969 1.086 4.172 1.18 4.172 1.18" style="fill:#08ab75;fill-opacity:1;fill-rule:evenodd;stroke:none" transform="matrix(.89406 0 0 .9405 60.203 59.134)"></path><path d="m107.992 96.445.051.196c.059-.004 5.793-.434 7.148.476 2.965 1.09 4.168 1.195 4.22 1.2l.241.019-.156-.188c-.105-.132-2.719-3.261-5.422-3.293-2.191-.023-5.922 1.524-6.082 1.59m6.078-1.382c2.223.023 4.457 2.312 5.082 3.007-.5-.086-1.722-.351-3.867-1.136-1.129-.762-5.027-.63-6.598-.54 1.168-.445 3.75-1.351 5.383-1.332" style="fill:#211e1e;fill-opacity:1;fill-rule:evenodd;stroke:none" transform="matrix(.89406 0 0 .9405 60.203 59.134)"></path><path d="M82.438 128.621c1.542-1.59 5.093-2.558 9.882-3.39 0 0-3.386 3.73-6.55 5.03-2.07.555-4.489 2.622-4.489 2.622s-.617-2.426 1.156-4.262" style="fill:#08ab75;fill-opacity:1;fill-rule:evenodd;stroke:none" transform="matrix(.89406 0 0 .9405 60.203 59.134)"></path><path d="M92.305 125.133c-5.586.969-8.563 1.992-9.942 3.422-1.793 1.855-1.187 4.328-1.18 4.351l.04.164.129-.11c.023-.022 2.421-2.058 4.445-2.605 3.164-1.296 6.57-5.02 6.605-5.058l.192-.215zm-.266.254c-.773.808-3.637 3.683-6.312 4.781-1.797.484-3.829 2.078-4.375 2.527a5 5 0 0 1-.067-.824c0-.86.207-2.125 1.227-3.18 1.324-1.367 4.191-2.359 9.527-3.304" style="fill:#211e1e;fill-opacity:1;fill-rule:evenodd;stroke:none" transform="matrix(.89406 0 0 .9405 60.203 59.134)"></path><path d="M84.383 133.453c3.137-.289 3.46-2.312 6.328-3.18 0 0-4.313 5.93-6.398 6.168-2.086.235-3.395 2.934-3.395 2.934s.324-5.633 3.465-5.922" style="fill:#08ab75;fill-opacity:1;fill-rule:evenodd;stroke:none" transform="matrix(.89406 0 0 .9405 60.203 59.134)"></path><path d="M90.684 130.18c-1.297.39-2.075 1.007-2.825 1.605-.914.723-1.777 1.41-3.488 1.567-3.191.293-3.543 5.785-3.555 6.015l-.03.516.226-.469c.015-.023 1.312-2.648 3.312-2.875 2.11-.238 6.297-5.965 6.473-6.207l.172-.242zm-6.293 3.37c1.777-.163 2.66-.866 3.597-1.613.668-.53 1.38-1.07 2.438-1.449-.875 1.164-4.36 5.653-6.125 5.852-1.617.183-2.758 1.762-3.23 2.55.163-1.359.843-5.113 3.32-5.34" style="fill:#211e1e;fill-opacity:1;fill-rule:evenodd;stroke:none" transform="matrix(.89406 0 0 .9405 60.203 59.134)"></path><path d="M85.758 138.2c4.015.257 4.265-1.305 8.246-4.204 0 0-5.606 7.86-8.324 8.168-2.72.309-4.418 3.887-4.418 3.887s.484-8.113 4.496-7.852" style="fill:#08ab75;fill-opacity:1;fill-rule:evenodd;stroke:none" transform="matrix(.89406 0 0 .9405 60.203 59.134)"></path><path d="M93.941 133.914c-1.074.781-1.859 1.453-2.55 2.043-1.82 1.55-2.735 2.328-5.625 2.14-.746-.046-1.43.184-2.02.688-2.246 1.906-2.574 7.043-2.59 7.258l-.031.531.23-.48c.016-.04 1.707-3.535 4.336-3.828 2.735-.313 8.168-7.891 8.399-8.215l.36-.504zm-2.414 2.191c.563-.476 1.196-1.015 1.989-1.617-1.317 1.77-5.618 7.325-7.848 7.578-2.207.246-3.711 2.524-4.258 3.493.14-1.352.692-5.11 2.473-6.625.55-.465 1.18-.68 1.87-.637 2.977.191 3.911-.602 5.774-2.192" style="fill:#211e1e;fill-opacity:1;fill-rule:evenodd;stroke:none" transform="matrix(.89406 0 0 .9405 60.203 59.134)"></path><path d="M75.719 131.488c-2.485.864-2.914-.375-5.938-2.101 0 0 4.918 5.527 6.688 5.336 1.77-.188 3.469 2.468 3.469 2.468s-1.731-6.566-4.22-5.703" style="fill:#08ab75;fill-opacity:1;fill-rule:evenodd;stroke:none" transform="matrix(.89406 0 0 .9405 60.203 59.134)"></path><path d="M69.703 129.45c.203.23 4.973 5.57 6.777 5.374 1.684-.183 3.352 2.395 3.368 2.418l.355.551-.164-.629c-.05-.191-1.262-4.707-3.148-5.672a1.5 1.5 0 0 0-1.204-.098c-1.769.618-2.43.16-3.882-.835a26 26 0 0 0-1.97-1.258l-.538-.309zm.64.394c.505.316.958.613 1.344.879 1.465 1.004 2.2 1.507 4.07.859.345-.121.684-.094 1.036.086 1.422.726 2.484 3.71 2.875 4.973-.598-.774-1.867-2.16-3.211-2.016-1.379.148-4.84-3.41-6.113-4.781" style="fill:#211e1e;fill-opacity:1;fill-rule:evenodd;stroke:none" transform="matrix(.89406 0 0 .9405 60.203 59.134)"></path><path d="M81.023 152.168c.305-1.488.247-3.477.676-4.629.531-1.441.785-3.371 2.344-3.719 2.168-.484 2.293-2.168 4.77-2.761 2.117-.508 3.507.535 3.742 1.586.86.601-.762 2.992-.762 2.992s-.727-4.164-4.98-.692c-1.704 1.387-1.622 2.39-1.622 2.39s-.414 2.946-4.168 4.833" style="fill:#08ab75;fill-opacity:1;fill-rule:evenodd;stroke:none" transform="matrix(.89406 0 0 .9405 60.203 59.134)"></path><path d="M88.79 140.96c-1.302.313-1.962.911-2.599 1.493-.59.535-1.144 1.04-2.171 1.27-1.317.293-1.73 1.625-2.133 2.914l-.285.867c-.254.68-.336 1.617-.426 2.61-.063.695-.125 1.413-.254 2.034l-.04.204.188-.098c3.758-1.887 4.22-4.875 4.223-4.906 0-.028-.047-.996 1.586-2.329 1.402-1.14 2.555-1.566 3.422-1.261 1.113.39 1.387 1.883 1.39 1.898l.043.25.145-.215c.133-.195 1.031-1.554 1.031-2.468 0-.258-.082-.473-.262-.625-.128-.52-.503-1.004-1.046-1.329-.754-.453-1.754-.558-2.813-.308m-7.407 9.169c.086-.977.168-1.902.41-2.559l.293-.879c.383-1.23.781-2.507 1.98-2.773 1.082-.242 1.657-.766 2.266-1.32.621-.563 1.262-1.145 2.508-1.442 1.004-.242 1.95-.14 2.652.281.504.305.856.75.965 1.227l.008.035.031.024c.149.105.207.28.207.496 0 .633-.516 1.601-.867 2.156-.129-.465-.512-1.469-1.461-1.805-.945-.332-2.168.106-3.633 1.301-1.574 1.281-1.656 2.25-1.656 2.438v.035c-.004.008-.453 2.785-3.926 4.625a22 22 0 0 0 .223-1.84" style="fill:#211e1e;fill-opacity:1;fill-rule:evenodd;stroke:none" transform="matrix(.89406 0 0 .9405 60.203 59.134)"></path><path d="M80.3 141.691s-1.132.305-2.183.184c-1.555-.176-1.328-.86-2.965-.902-2.785-.075-3.863-2.516-3.863-2.516s1.254 1.383 2.672 1.277c1.852-.132 3.594.543 3.594.543z" style="fill:#08ab75;fill-opacity:1;fill-rule:evenodd;stroke:none" transform="matrix(.89406 0 0 .9405 60.203 59.134)"></path><path d="M71.191 138.492c.012.027 1.141 2.504 3.961 2.582.836.02 1.168.211 1.52.418.332.196.676.399 1.433.485 1.06.117 2.176-.176 2.223-.192l.246-.066-2.972-1.528c-.024-.011-1.793-.691-3.645-.554-1.352.101-2.578-1.235-2.59-1.246l-.43-.473Zm6.938 3.285c-.711-.082-1.035-.27-1.352-.453-.359-.21-.73-.426-1.62-.453-1.833-.047-2.903-1.152-3.41-1.863.51.398 1.323.894 2.226.828 1.8-.133 3.527.527 3.543.535 0 0 2.086 1.074 2.492 1.281-.387.082-1.145.207-1.88.125" style="fill:#211e1e;fill-opacity:1;fill-rule:evenodd;stroke:none" transform="matrix(.89406 0 0 .9405 60.203 59.134)"></path><path d="M80.164 128.55v26.821h.828v-26.82z" style="fill:#08ab75;fill-opacity:1;fill-rule:evenodd;stroke:none" transform="matrix(.89406 0 0 .9405 60.203 59.134)"></path><path d="M80.992 128.45h-.93v27.019h1.036v-27.02zm-.101.198v26.625h-.621v-26.625z" style="fill:#211e1e;fill-opacity:1;fill-rule:evenodd;stroke:none" transform="matrix(.89406 0 0 .9405 60.203 59.134)"></path><path d="M72.98 127.773s1.622 2.274 4.262 2.649c2.645.375 2.977.707 2.977.707s.097-1.442-2.684-2.344c-2.68.14-4.555-1.012-4.555-1.012" style="fill:#08ab75;fill-opacity:1;fill-rule:evenodd;stroke:none" transform="matrix(.89406 0 0 .9405 60.203 59.134)"></path><path d="M72.895 127.828c.015.024 1.68 2.313 4.335 2.692 2.512.355 2.903.664 2.918.68l.157.132.02-.2c.003-.062.07-1.527-2.759-2.44-2.648.132-4.511-.993-4.53-1.004l-.43-.262zm4.363 2.492c-1.922-.27-3.309-1.59-3.895-2.238a9.05 9.05 0 0 0 4.176.805c2.082.68 2.477 1.668 2.555 2.058-.301-.132-1.035-.367-2.836-.625" style="fill:#211e1e;fill-opacity:1;fill-rule:evenodd;stroke:none" transform="matrix(.89406 0 0 .9405 60.203 59.134)"></path><path d="M79.781 146.473c1.09-6.903-11.883-12.082-11.883-12.082s5.504 4.726 6.207 5.71c2.762 3.852 3.305 2.122 5.676 6.372" style="fill:#08ab75;fill-opacity:1;fill-rule:evenodd;stroke:none" transform="matrix(.89406 0 0 .9405 60.203 59.134)"></path><path d="M67.828 134.469c.055.047 5.504 4.726 6.195 5.691 1.278 1.781 2.094 2.387 2.817 2.918.847.625 1.578 1.164 2.851 3.445l.149.262.047-.297c1.082-6.898-11.82-12.136-11.95-12.187l-.566-.227zm9.137 8.449c-.711-.523-1.512-1.113-2.774-2.871-.586-.824-4.367-4.121-5.734-5.305 2.406 1.07 11.285 5.395 11.285 10.918 0 .156-.02.32-.035.48-1.187-2.062-1.914-2.609-2.742-3.222" style="fill:#211e1e;fill-opacity:1;fill-rule:evenodd;stroke:none" transform="matrix(.89406 0 0 .9405 60.203 59.134)"></path><path d="M82.367 125.922v-1.258h-.555l-.007-.047c-.164-.828-.657-1.387-1.227-1.387-.566 0-1.058.559-1.226 1.387l-.008.047h-.551v1.258h-.457l.016.062c.265 1.508 1.183 2.559 2.226 2.559 1.047 0 1.961-1.05 2.23-2.559l.012-.062z" style="fill:#211e1e;fill-opacity:1;fill-rule:nonzero;stroke:none" transform="matrix(.89406 0 0 .9405 60.203 59.134)"></path><path d="M80.578 123.336c.496 0 .938.512 1.102 1.242h-2.203c.164-.73.609-1.242 1.101-1.242M82.262 124.77v1.066h-3.367v-1.066zM82.691 126.027c-.273 1.422-1.132 2.41-2.113 2.41-.976 0-1.84-.988-2.11-2.41z" style="fill:#d9f661;fill-opacity:1;fill-rule:nonzero;stroke:none" transform="matrix(.89406 0 0 .9405 60.203 59.134)"></path><path d="M64.148 77.89s2.067-4.257 9.188-.953c3.215 1.489 4.984.473 4.984.473s-2.855 5.875-9.183 2.149c-4.2-2.473-4.989-1.668-4.989-1.668" style="fill:#03cbf5;fill-opacity:1;fill-rule:nonzero;stroke:none" transform="matrix(.89406 0 0 .9405 60.203 59.134)"></path><path d="M66.566 75.785c-1.886.613-2.566 1.977-2.597 2.031l-.344.715.664-.515c.008-.004.852-.594 4.738 1.695 1.989 1.168 3.852 1.531 5.535 1.074 2.657-.719 3.887-3.195 3.938-3.3l.258-.528-.54.305c-.019.008-1.734.933-4.792-.485-2.703-1.254-5.012-1.586-6.86-.992m.141.336c1.742-.558 3.941-.23 6.54.977 2.296 1.062 3.874.886 4.644.672-.47.722-1.602 2.175-3.446 2.675-1.566.422-3.316.075-5.203-1.035-2.68-1.582-4-1.855-4.652-1.816.312-.422.953-1.098 2.117-1.473" style="fill:#211e1e;fill-opacity:1;fill-rule:nonzero;stroke:none" transform="matrix(.89406 0 0 .9405 60.203 59.134)"></path><path d="M59.207 84.297s1.941-4.258 8.633-.957c3.02 1.492 4.687.476 4.687.476s-2.687 5.875-8.632 2.149c-3.946-2.473-4.688-1.668-4.688-1.668" style="fill:#03cbf5;fill-opacity:1;fill-rule:nonzero;stroke:none" transform="matrix(.89406 0 0 .9405 60.203 59.134)"></path><path d="M61.477 82.191c-1.774.614-2.414 1.973-2.438 2.032l-.328.715.625-.516c.008-.008.805-.598 4.457 1.691 1.867 1.172 3.613 1.532 5.2 1.078 2.495-.718 3.655-3.195 3.702-3.3l.239-.528-.508.301c-.016.012-1.625.938-4.504-.48-2.54-1.258-4.707-1.59-6.445-.993m.132.336c1.637-.558 3.703-.23 6.145.973 2.16 1.066 3.644.89 4.363.672-.437.726-1.504 2.18-3.234 2.68-1.473.421-3.117.074-4.89-1.04-2.52-1.578-3.759-1.851-4.376-1.816a3.96 3.96 0 0 1 1.992-1.469" style="fill:#211e1e;fill-opacity:1;fill-rule:nonzero;stroke:none" transform="matrix(.89406 0 0 .9405 60.203 59.134)"></path><path d="M73.469 87.5s2.062-4.258 9.183-.957c3.215 1.492 4.985.477 4.985.477s-2.86 5.875-9.184 2.144c-4.2-2.469-4.984-1.664-4.984-1.664" style="fill:#03cbf5;fill-opacity:1;fill-rule:nonzero;stroke:none" transform="matrix(.89406 0 0 .9405 60.203 59.134)"></path><path d="M75.883 85.395c-1.89.613-2.57 1.972-2.598 2.03l-.344.716.664-.516c.008-.008.852-.598 4.739 1.691 1.988 1.168 3.847 1.532 5.535 1.079 2.656-.72 3.887-3.196 3.937-3.301l.258-.528-.539.301c-.02.012-1.734.938-4.793-.48-2.703-1.258-5.012-1.59-6.86-.992m.14.335c1.743-.558 3.942-.234 6.54.973 2.296 1.067 3.874.887 4.644.672-.469.727-1.602 2.18-3.445 2.676-1.567.426-3.317.078-5.203-1.035-2.68-1.579-4-1.852-4.653-1.817.313-.418.953-1.097 2.117-1.469" style="fill:#211e1e;fill-opacity:1;fill-rule:nonzero;stroke:none" transform="matrix(.89406 0 0 .9405 60.203 59.134)"></path><path d="M64.148 93.613s2.067-4.258 9.188-.957c3.215 1.492 4.984.477 4.984.477s-2.855 5.875-9.183 2.148c-4.2-2.472-4.989-1.668-4.989-1.668" style="fill:#03cbf5;fill-opacity:1;fill-rule:nonzero;stroke:none" transform="matrix(.89406 0 0 .9405 60.203 59.134)"></path><path d="M66.566 91.508C64.68 92.12 64 93.48 63.97 93.539l-.344.715.664-.516c.008-.008.852-.597 4.738 1.692 1.989 1.172 3.852 1.53 5.535 1.078 2.657-.719 3.887-3.195 3.938-3.301l.258-.527-.54.304c-.019.008-1.734.934-4.792-.488-2.703-1.254-5.012-1.586-6.86-.988m.141.336c1.742-.559 3.941-.23 6.54.972 2.296 1.067 3.874.891 4.644.672-.47.727-1.602 2.18-3.446 2.676-1.566.426-3.316.074-5.203-1.035-2.68-1.578-4-1.852-4.652-1.813.312-.421.953-1.097 2.117-1.472" style="fill:#211e1e;fill-opacity:1;fill-rule:nonzero;stroke:none" transform="matrix(.89406 0 0 .9405 60.203 59.134)"></path><path d="M83.074 95.066s2.067-4.254 9.188-.953c3.21 1.489 4.984.477 4.984.477s-2.86 5.87-9.183 2.144c-4.2-2.472-4.989-1.668-4.989-1.668" style="fill:#03cbf5;fill-opacity:1;fill-rule:nonzero;stroke:none" transform="matrix(.89406 0 0 .9405 60.203 59.134)"></path><path d="M85.492 92.965c-1.89.61-2.57 1.972-2.597 2.031l-.348.711.664-.512c.008-.007.855-.597 4.742 1.692 1.988 1.168 3.848 1.531 5.531 1.074 2.66-.719 3.891-3.195 3.942-3.297l.258-.531-.543.305c-.016.011-1.73.933-4.793-.485-2.703-1.254-5.008-1.586-6.856-.988m.14.332c1.74-.559 3.938-.23 6.536.976 2.3 1.067 3.879.887 4.644.672-.464.727-1.601 2.176-3.44 2.676-1.571.422-3.317.074-5.204-1.035-2.684-1.578-4-1.856-4.656-1.816.316-.418.957-1.098 2.12-1.473" style="fill:#211e1e;fill-opacity:1;fill-rule:nonzero;stroke:none" transform="matrix(.89406 0 0 .9405 60.203 59.134)"></path><path d="M74.047 101.473s2.066-4.258 9.187-.953c3.215 1.488 4.985.476 4.985.476s-2.86 5.871-9.184 2.145c-4.2-2.473-4.988-1.668-4.988-1.668" style="fill:#03cbf5;fill-opacity:1;fill-rule:nonzero;stroke:none" transform="matrix(.89406 0 0 .9405 60.203 59.134)"></path><path d="M76.465 99.371c-1.887.61-2.567 1.973-2.598 2.031l-.344.711.665-.515c.007-.004.851-.594 4.738 1.695 1.988 1.168 3.851 1.531 5.535 1.074 2.656-.719 3.887-3.195 3.937-3.297l.258-.53-.539.304c-.02.008-1.73.933-4.793-.485-2.703-1.254-5.011-1.586-6.86-.988m.14.332c1.743-.558 3.942-.23 6.54.977 2.296 1.062 3.875.886 4.644.668-.469.73-1.602 2.18-3.445 2.68-1.567.421-3.317.074-5.203-1.036-2.68-1.582-4-1.855-4.657-1.816.317-.418.957-1.098 2.121-1.473" style="fill:#211e1e;fill-opacity:1;fill-rule:nonzero;stroke:none" transform="matrix(.89406 0 0 .9405 60.203 59.134)"></path><path d="M91.523 103.375s2.063-4.258 9.184-.957c3.215 1.492 4.984.477 4.984.477s-2.855 5.875-9.183 2.144c-4.2-2.469-4.985-1.664-4.985-1.664" style="fill:#03cbf5;fill-opacity:1;fill-rule:nonzero;stroke:none" transform="matrix(.89406 0 0 .9405 60.203 59.134)"></path><path d="M93.941 101.27c-1.89.613-2.57 1.972-2.597 2.03l-.348.716.664-.516c.008-.008.856-.598 4.742 1.691 1.985 1.168 3.848 1.532 5.532 1.079 2.656-.72 3.89-3.196 3.941-3.301l.254-.528-.54.301c-.015.012-1.73.938-4.792-.48-2.703-1.258-5.012-1.59-6.856-.992m.141.335c1.738-.558 3.938-.23 6.535.973 2.301 1.067 3.88.89 4.645.672-.465.727-1.602 2.18-3.442 2.676-1.57.426-3.32.074-5.203-1.035-2.683-1.579-4.004-1.852-4.656-1.817.316-.418.953-1.097 2.121-1.469" style="fill:#211e1e;fill-opacity:1;fill-rule:nonzero;stroke:none" transform="matrix(.89406 0 0 .9405 60.203 59.134)"></path><path d="M82.414 110.07s2.066-4.257 9.184-.957c3.215 1.492 4.988.477 4.988.477s-2.86 5.87-9.188 2.144c-4.195-2.472-4.984-1.664-4.984-1.664" style="fill:#03cbf5;fill-opacity:1;fill-rule:nonzero;stroke:none" transform="matrix(.89406 0 0 .9405 60.203 59.134)"></path><path d="M84.832 107.965c-1.89.61-2.57 1.972-2.598 2.031l-.347.715.664-.516c.008-.008.855-.597 4.742 1.692 1.988 1.168 3.848 1.531 5.531 1.078 2.656-.719 3.89-3.195 3.942-3.3l.257-.532-.543.304c-.015.012-1.73.938-4.793-.484-2.703-1.254-5.007-1.586-6.855-.988m.14.336c1.739-.563 3.938-.235 6.54.972 2.297 1.067 3.875.887 4.64.672-.468.727-1.601 2.18-3.441 2.676-1.57.426-3.32.074-5.203-1.035-2.684-1.578-4-1.852-4.656-1.816.316-.418.957-1.098 2.12-1.47" style="fill:#211e1e;fill-opacity:1;fill-rule:nonzero;stroke:none" transform="matrix(.89406 0 0 .9405 60.203 59.134)"></path><path d="M100.914 110.55s2.066-4.257 9.184-.956c3.215 1.492 4.988.476 4.988.476s-2.86 5.875-9.188 2.149c-4.199-2.473-4.984-1.668-4.984-1.668" style="fill:#03cbf5;fill-opacity:1;fill-rule:nonzero;stroke:none" transform="matrix(.89406 0 0 .9405 60.203 59.134)"></path><path d="M103.332 108.445c-1.89.614-2.57 1.973-2.598 2.032l-.347.714.664-.515c.008-.004.855-.598 4.742 1.691 1.984 1.172 3.848 1.535 5.531 1.078 2.656-.718 3.89-3.195 3.942-3.3l.254-.528-.54.305c-.015.008-1.73.933-4.793-.484-2.703-1.258-5.007-1.59-6.855-.993m.14.336c1.739-.558 3.938-.23 6.54.973 2.297 1.066 3.875.89 4.64.672-.468.726-1.601 2.18-3.441 2.68-1.57.421-3.32.074-5.203-1.036-2.684-1.582-4.004-1.855-4.656-1.816.316-.422.957-1.098 2.12-1.473" style="fill:#211e1e;fill-opacity:1;fill-rule:nonzero;stroke:none" transform="matrix(.89406 0 0 .9405 60.203 59.134)"></path><path d="M90.352 117.484s2.066-4.257 9.187-.953c3.215 1.489 4.984.477 4.984.477s-2.859 5.87-9.183 2.144c-4.2-2.472-4.988-1.668-4.988-1.668" style="fill:#03cbf5;fill-opacity:1;fill-rule:nonzero;stroke:none" transform="matrix(.89406 0 0 .9405 60.203 59.134)"></path><path d="M92.77 115.383c-1.891.61-2.57 1.972-2.598 2.031l-.344.711.664-.516c.008-.004.852-.593 4.738 1.696 1.989 1.168 3.848 1.53 5.536 1.074 2.656-.719 3.886-3.195 3.937-3.297l.258-.531-.54.304c-.019.008-1.734.934-4.792-.484-2.703-1.254-5.012-1.586-6.86-.988m.14.332c1.742-.559 3.942-.23 6.54.976 2.296 1.067 3.874.887 4.644.672-.469.727-1.602 2.176-3.446 2.676-1.566.422-3.316.074-5.203-1.035-2.68-1.578-4-1.852-4.656-1.817.316-.417.957-1.097 2.121-1.472" style="fill:#211e1e;fill-opacity:1;fill-rule:nonzero;stroke:none" transform="matrix(.89406 0 0 .9405 60.203 59.134)"></path><path d="M111.023 119.523s2.067-4.257 9.188-.957c3.215 1.493 4.984.477 4.984.477s-2.86 5.875-9.183 2.148c-4.2-2.472-4.989-1.668-4.989-1.668" style="fill:#03cbf5;fill-opacity:1;fill-rule:nonzero;stroke:none" transform="matrix(.89406 0 0 .9405 60.203 59.134)"></path><path d="M113.441 117.422c-1.89.61-2.57 1.973-2.597 2.027l-.348.715.664-.516c.012-.004.856-.597 4.742 1.696 1.989 1.168 3.848 1.531 5.535 1.074 2.653-.719 3.887-3.195 3.938-3.3l.258-.528-.543.305c-.016.008-1.73.933-4.793-.485-2.703-1.254-5.008-1.586-6.856-.988m.141.332c1.738-.559 3.938-.23 6.54.976 2.296 1.063 3.874.887 4.644.668-.47.727-1.606 2.18-3.446 2.68-1.566.422-3.316.074-5.203-1.035-2.683-1.582-4.004-1.856-4.656-1.816.316-.422.957-1.098 2.121-1.473" style="fill:#211e1e;fill-opacity:1;fill-rule:nonzero;stroke:none" transform="matrix(.89406 0 0 .9405 60.203 59.134)"></path><path d="M119.758 127.676s2.066-4.258 9.183-.957c3.215 1.492 4.989.476 4.989.476s-2.86 5.875-9.188 2.149c-4.195-2.477-4.984-1.668-4.984-1.668" style="fill:#03cbf5;fill-opacity:1;fill-rule:nonzero;stroke:none" transform="matrix(.89406 0 0 .9405 60.203 59.134)"></path><path d="M122.176 125.57c-1.89.61-2.57 1.973-2.598 2.032l-.348.714.665-.515c.008-.004.855-.598 4.742 1.691 1.984 1.172 3.847 1.531 5.535 1.078 2.652-.718 3.887-3.195 3.937-3.3l.258-.528-.543.301c-.015.012-1.73.937-4.793-.484-2.703-1.254-5.008-1.586-6.855-.989m.14.336c1.739-.558 3.938-.23 6.54.973 2.296 1.066 3.874.89 4.64.672-.465.726-1.601 2.18-3.441 2.676-1.57.425-3.32.074-5.203-1.036-2.684-1.578-4-1.851-4.657-1.812.317-.422.957-1.102 2.121-1.473" style="fill:#211e1e;fill-opacity:1;fill-rule:nonzero;stroke:none" transform="matrix(.89406 0 0 .9405 60.203 59.134)"></path><path d="M100.547 125.21s2.066-4.257 9.187-.956c3.215 1.492 4.985.476 4.985.476s-2.86 5.872-9.184 2.149c-4.2-2.473-4.988-1.668-4.988-1.668" style="fill:#03cbf5;fill-opacity:1;fill-rule:nonzero;stroke:none" transform="matrix(.89406 0 0 .9405 60.203 59.134)"></path><path d="M102.965 123.105c-1.89.614-2.57 1.973-2.598 2.032l-.347.715.667-.516c.008-.008.852-.598 4.739 1.691 1.988 1.172 3.847 1.532 5.535 1.078 2.656-.718 3.887-3.199 3.937-3.3l.258-.528-.539.301c-.02.012-1.734.938-4.797-.484-2.703-1.254-5.008-1.586-6.855-.989m.14.336c1.743-.558 3.942-.23 6.54.973 2.296 1.066 3.875.887 4.644.672-.469.726-1.601 2.18-3.445 2.676-1.567.425-3.317.074-5.203-1.035-2.68-1.579-4-1.852-4.657-1.817.317-.418.957-1.098 2.121-1.469" style="fill:#211e1e;fill-opacity:1;fill-rule:nonzero;stroke:none" transform="matrix(.89406 0 0 .9405 60.203 59.134)"></path><path d="M109.563 132.762s2.066-4.258 9.183-.957c3.219 1.492 4.988.476 4.988.476s-2.859 5.875-9.183 2.149c-4.2-2.473-4.988-1.668-4.988-1.668" style="fill:#03cbf5;fill-opacity:1;fill-rule:nonzero;stroke:none" transform="matrix(.89406 0 0 .9405 60.203 59.134)"></path><path d="M111.98 130.656c-1.89.614-2.57 1.973-2.597 2.031l-.348.715.664-.515c.008-.004.856-.598 4.742 1.691 1.989 1.172 3.848 1.535 5.532 1.078 2.66-.719 3.89-3.195 3.941-3.3l.258-.528-.543.305c-.016.008-1.73.933-4.793-.485-2.703-1.253-5.008-1.586-6.856-.992m.141.336c1.738-.558 3.938-.23 6.535.973 2.301 1.066 3.88.89 4.649.672-.47.726-1.606 2.18-3.446 2.68-1.57.421-3.32.074-5.203-1.036-2.683-1.582-4.004-1.855-4.656-1.816.316-.422.953-1.098 2.121-1.473" style="fill:#211e1e;fill-opacity:1;fill-rule:nonzero;stroke:none" transform="matrix(.89406 0 0 .9405 60.203 59.134)"></path><path d="M114.594 140.04s2.066-4.255 9.187-.954c3.215 1.492 4.985.476 4.985.476s-2.86 5.872-9.184 2.145c-4.2-2.473-4.988-1.668-4.988-1.668" style="fill:#03cbf5;fill-opacity:1;fill-rule:nonzero;stroke:none" transform="matrix(.89406 0 0 .9405 60.203 59.134)"></path><path d="M117.012 137.938c-1.89.609-2.57 1.972-2.598 2.03l-.348.712.668-.512c.008-.008.852-.598 4.739 1.691 1.988 1.172 3.847 1.532 5.535 1.075 2.656-.715 3.887-3.196 3.937-3.297l.258-.532-.539.305c-.02.012-1.734.934-4.797-.484-2.703-1.254-5.008-1.586-6.855-.989m.14.332c1.743-.56 3.942-.23 6.54.976 2.296 1.067 3.874.887 4.644.672-.469.727-1.602 2.176-3.445 2.676-1.567.422-3.317.074-5.204-1.035-2.68-1.579-4-1.852-4.656-1.817.317-.418.957-1.097 2.121-1.472M66.96 167.148c.907-1.273 2.009-2.812 2.868-3.89l-.027-.024a83 83 0 0 1-3.75 2.446l-4.926 3.015-.855-.683 1.89-5.301c.578-1.578 1.13-2.965 1.711-4.2l-.027-.019a158 158 0 0 1-3.25 3.735l-3.223 3.562-1.074-.855 7.574-8.266 1.442 1.148-1.875 5.422a52 52 0 0 1-1.465 3.649l.027.02c.934-.696 2.012-1.407 3.281-2.2l4.926-2.992 1.441 1.144-6.421 9.188-1.118-.89zM74.012 172.34l-2.348 2.867-1.394-.539 7.562-9.074 1.625.625-.45 11.808-1.44-.554.148-3.711zm3.828.262.117-3.403c.047-.765.129-1.445.207-2.11l-.047-.019c-.37.551-.793 1.137-1.238 1.696l-2.184 2.629zM91.785 179.926c-.547.191-1.652.304-3 .113-3.12-.445-5.176-2.75-4.656-6.398.496-3.48 3.176-5.48 6.613-4.993 1.363.196 2.207.618 2.559.868l-.528 1.117c-.488-.34-1.234-.645-2.152-.778-2.598-.367-4.558 1.047-4.973 3.954-.386 2.726.926 4.675 3.606 5.054.887.125 1.8.074 2.414-.125zM97.766 169.164l.367 4.664 5.39-.422-.363-4.668 1.453-.113.875 11.152-1.453.114-.414-5.227-5.39.422.41 5.23-1.457.114-.875-11.153zM109.77 167.34l2.808 10.824-1.414.367-2.805-10.828zM125.156 172.855c-.355.454-1.222 1.149-2.46 1.715-2.864 1.32-5.837.496-7.38-2.851-1.468-3.196-.3-6.328 2.852-7.778 1.25-.578 2.191-.68 2.621-.66l.16 1.227c-.594-.024-1.386.125-2.23.512-2.38 1.097-3.262 3.347-2.035 6.015 1.152 2.504 3.312 3.426 5.77 2.297.816-.375 1.55-.914 1.96-1.418zM133.469 167.512c-2.25 1.937-5.305 1.547-7.516-1.016-2.32-2.691-2.176-5.883.086-7.832 2.324-2.004 5.348-1.52 7.516.992 2.504 2.903 2.074 5.989-.075 7.844zm-.723-.938c1.734-1.496 1.34-3.937-.316-5.86-1.453-1.683-3.852-2.687-5.672-1.112-1.824 1.57-1.266 4.046.316 5.882 1.54 1.786 3.938 2.586 5.66 1.102z" style="fill:#211e1e;fill-opacity:1;fill-rule:nonzero;stroke:none" transform="matrix(.89406 0 0 .9405 60.203 59.134)" data-source="https://football-logos.cc"></path><!-- source: https://football-logos.cc --></svg>