<svg xmlns="http://www.w3.org/2000/svg" viewBox="45.49 83.99 719.63 880.47"><!-- Source: https://football-logos.cc --><path d="M303.983 68.652c149.034 0 269.859 120.825 269.859 269.862 0 149.036-120.825 269.86-269.859 269.86-149.041 0-269.862-120.824-269.862-269.86 0-149.037 120.82-269.862 269.862-269.862" style="fill:#2e3192;fill-opacity:1;fill-rule:nonzero;stroke:none" transform="matrix(1.33333 0 0 -1.33333 0 1056)" data-source="https://football-logos.cc"></path><path d="M205.259 483.281c-18.525-60.077-23.095-129.546-12.875-195.61 11.814-76.34 42.938-145.424 90.01-199.78l3.523 3.052c-46.498 53.693-77.246 121.967-88.926 197.44-10.116 65.382-5.597 134.11 12.725 193.524 20.589 66.779 56.053 112.782 94.864 123.06l-1.193 4.507c-40.377-10.693-77.059-57.868-98.128-126.193" style="fill:#fff;fill-opacity:1;fill-rule:nonzero;stroke:none" transform="matrix(1.33333 0 0 -1.33333 0 1056)"></path><path d="M303.387 604.968c38.811-10.278 74.272-56.281 94.864-123.058 18.32-59.416 22.839-128.143 12.72-193.525-11.679-75.474-42.43-143.75-88.927-197.442l3.523-3.051c47.072 54.356 78.197 123.438 90.011 199.78 10.223 66.065 5.652 135.533-12.872 195.611-21.067 68.324-57.749 115.498-98.126 126.191z" style="fill:#fff;fill-opacity:1;fill-rule:nonzero;stroke:none" transform="matrix(1.33333 0 0 -1.33333 0 1056)"></path><path d="M204.747 591.478c-31.215-12.56-59.289-30.587-83.44-53.582-50.91-48.47-78.946-114.396-78.946-185.631 0-65.903 26.136-129.887 73.597-180.168 43.834-46.44 104.058-78.961 165.23-89.226l.772 4.599c-60.191 10.1-119.461 42.112-162.613 87.828-46.638 49.411-72.324 112.259-72.324 176.967 0 69.947 27.522 134.673 77.498 182.255 23.722 22.586 51.3 40.294 81.967 52.633 31.154 12.535 63.956 18.89 97.495 18.89 71.383 0 131.638-24.692 174.255-71.405 41.603-45.604 63.592-108.667 63.592-182.373 0-64.885-23.113-127.622-65.081-176.653-39.824-46.524-93.147-77.77-150.151-87.976l.822-4.59c58.06 10.397 112.349 42.194 152.871 89.535 42.691 49.874 66.201 113.687 66.201 179.684 0 74.887-22.41 139.038-64.81 185.514-43.523 47.71-104.971 72.926-177.699 72.926-34.137 0-67.525-6.47-99.236-19.227" style="fill:#fff;fill-opacity:1;fill-rule:nonzero;stroke:none" transform="matrix(1.33333 0 0 -1.33333 0 1056)"></path><path d="M278.473 84.356c0-7.635 10.988-13.394 25.558-13.394 14.575 0 25.566 5.759 25.566 13.394 0 7.631-10.99 13.388-25.566 13.388-14.57 0-25.558-5.757-25.558-13.388m4.662 0c0 4.12 8.937 8.725 20.896 8.725 11.965 0 20.904-4.605 20.904-8.725 0-4.13-8.584-8.733-20.904-8.733-12.314 0-20.896 4.603-20.896 8.733" style="fill:#fff;fill-opacity:1;fill-rule:nonzero;stroke:none" transform="matrix(1.33333 0 0 -1.33333 0 1056)"></path><path d="M399.646 597.82c18.903 2.646 19.28 7.561 19.431 9.452 0 2.04-.906 3.78-2.267 5.067 4.384 1.359 7.561 5.14 7.561 9.829 0 2.494-.907 4.763-2.419 6.653 4.536-.605 6.2 2.268 6.954 3.78l-.528-.982c1.664 1.89 1.514 4.537.38 6.654.148 0 .148-.227.376-.227 10.36-1.663 19.81 3.63 23.97 13.232.757-.151 1.36-.378 2.116-.378 5.67 0 10.207 4.538 10.207 10.208 0 1.89-.755 3.78-1.74 5.52 2.498 3.175 4.01 4.536 7.033 7.183 1.512 1.134 4.688 2.42 7.185 3.402 4.157 1.513 6.802 2.647 6.577 5.671 0 .756-.378 2.798-3.176 3.781-1.136.15-2.118.53-2.648.755-1.739.53-2.873.908-5.141.908-.907 0-1.512-.151-2.267-.378.227.984 0 1.74-.15 2.269 0 0-.984 1.89-1.136 2.116h-2.117c-3.402.152-10.204-6.275-11.868-8.92-1.893-3.177-2.875-6.05-2.875-9.226-1.663 2.797-3.78 6.427-4.31 7.712-.983 1.89-2.648 2.495-4.006 2.268-1.664-.15-3.176-1.134-4.539-4.687-8.088 3.176-9.98.378-10.737-.756-1.74-2.873 0-6.276 4.311-10.208-1.134-1.89-1.513-3.63-.757-5.142.606-1.512 2.118-2.647 4.01-2.647 2.267-.15 6.425-.529 8.087-.529l-1.134-2.646c-2.417-5.293-7.56-7.94-13.382-6.654-4.159.756-6.655 2.874-8.317 6.276 2.798 1.512 4.687 4.31 4.687 7.713 0 2.268-.755 4.385-2.42 6.049-1.512 1.738-3.779 2.495-6.048 2.495s-4.536-.757-6.048-2.495c-1.74-1.664-2.497-3.781-2.497-6.05 0-1.512.38-3.024 1.134-4.31-3.176-3.402-6.577-4.536-11.492-3.629-3.403.605-6.278 2.495-8.317 5.52-2.117 3.024-2.647 6.805-1.892 10.359l.153.756c.603.227.98.378 1.361.756.753-.907 8.468-7.94 10.963-9.603 1.51-1.133 3.175-1.133 4.537-.226 1.285.982 2.42 2.267 1.889 7.939 5.067-.152 7.94 1.361 8.47 4.385.227 1.286-.153 2.42-.906 3.554-1.136 1.512-3.782 2.495-6.428 3.251 1.133 4.537.15 6.05-.755 6.957-.985.756-2.647 1.361-4.537.378-1.893-.756-6.279-2.798-8.696-3.932-.228.756-.756 1.134-1.134 1.89l.378.151c0 .228 6.577 9.074 8.468 11.342 1.134 1.362 1.36 3.025.606 4.536-.606.984-1.362 2.648-7.035 3.025.229 4.159-.905 6.806-3.78 7.562-1.287.605-2.645.227-3.78-.53-1.51-.982-2.421-2.873-3.023-4.914-6.052 2.041-7.563.756-8.318 0-1.284-1.134-1.664-2.874-1.136-4.537.757-1.89 2.117-9.451 2.649-13.837l.225-.756c-.225-.151-.604-.151-.757-.53-2.494 1.89-7.56 5.672-9.3 7.335-1.662 1.739-3.553 1.512-4.687.756-1.89-.908-2.646-2.797-1.89-8.317-2.495-.15-4.914-.38-6.427-1.664a4.3 4.3 0 0 1-1.89-3.024q-.001-2.042 1.133-3.404c1.285-1.51 3.78-2.494 6.428-3.023-1.889-5.293-1.36-7.41.15-8.544 1.136-.908 2.875-1.286 4.764-.152 1.89 1.286 7.94 4.537 10.738 6.05v-1.74c0-3.403-1.513-6.805-4.16-9.225-2.647-2.646-6.2-4.008-9.83-3.63-6.426.38-10.735 4.764-11.719 10.965l-.15.756c1.511 1.74 2.417 3.78 2.417 6.05 0 2.267-.906 4.535-2.645 6.048-1.512 1.738-3.781 2.646-6.05 2.646-1.511 0-3.026-.529-4.31-1.512 0 .378.153.604.153.757 0 1.36-.152 4.385-8.698 7.788 1.136 5.065-.15 6.427-.905 7.182-1.134.908-2.646 1.286-4.385.757-.683-.227-1.816-.68-3.026-1.134v-26.313c1.135-.53 2.042-.908 2.497-1.134 1.663-.757 3.402-.53 4.534.377.758.757 2.044 1.89 1.285 6.427 2.118.378 3.781.983 4.915 1.512a10.7 10.7 0 0 1-.528-3.402c0-1.89.756-3.554 1.664-5.066l-.15-.756c-2.27-6.276-7.11-9.679-14.217-9.679v-71.984c49.3 1.059 75.084 5.672 75.084 5.672m-75.084 122.19c.152.68.077 1.21 0 1.739zm0-17.844c-2.874-1.135-6.35-2.647-6.578-2.647l-6.277-2.646c.758 1.285 8.923 16.407 11.72 20.793.606.832.984 1.664 1.135 2.344v1.739c-.226.832-.682 1.437-.907 1.74-2.267 1.89-4.158 1.36-10.812-3.932-2.648 6.2-5.445 9.451-8.698 9.451-2.948 0-5.97-3.251-8.77-9.451-6.654 5.443-8.543 5.67-10.585 3.931-.456-.302-1.059-.983-1.287-2.04v-1.438c.151-.605.379-1.36.91-2.192 2.419-3.933 9.979-18.148 11.492-20.794l-5.823 2.495c-.15 0-3.63 1.36-6.579 2.571v-26.464c4.765 1.89 12.703 5.292 13.76 5.746l.531.151.228-1.512c.152-3.932-1.133-8.09-4.006-11.115-2.648-3.024-6.201-4.764-9.982-4.764h-.53v-71.984a848 848 0 0 1 20.113-.225c7.41 0 14.367.074 20.945.225v71.984h-.529c-3.781 0-7.412 1.74-10.056 4.764-2.646 3.024-4.16 7.183-3.782 11.115v1.512l.758-.15c2.948-1.21 9.752-3.933 13.609-5.52zm-41.059 19.281c-.074-.378-.074-.907 0-1.437zm0-19.357c-.982.453-1.966.832-2.722 1.21-1.889.756-3.553.53-4.914-.757-.756-.604-2.042-2.117-.756-7.182-8.467-3.63-8.467-6.427-8.467-7.788v-.757c-1.362.983-2.648 1.512-4.387 1.512-2.27 0-4.311-.908-6.048-2.646-1.664-1.513-2.42-3.781-2.42-6.049s.756-4.31 2.267-6.049v-.756c-.983-6.2-5.52-10.586-11.72-10.964-3.628-.379-7.182.983-9.83 3.63-2.872 2.419-4.386 5.821-4.386 9.225v1.739c2.27-1.135 9.073-4.916 10.813-6.05 1.514-.982 3.403-.982 4.689.152 1.51 1.36 2.117 3.251.225 8.694 6.581 1.513 7.564 3.781 7.564 5.9 0 1.133-.38 2.04-1.363 3.023-.528.53-1.89 1.663-6.954 1.891.528 5.822-.228 7.56-2.12 8.468-1.283.756-3.175.605-4.309-.756-1.36-1.134-6.047-4.688-9.3-7.334h-.15c-.226.378-.379.378-.756.529l.15.604 2.872 14.518c.378 1.513-.225 2.874-1.36 4.008-.907.53-2.418 1.664-8.318-.227-.528 2.118-1.512 4.159-3.023 5.142-.906.756-2.27.907-3.403.756-1.286-.379-2.27-.983-3.025-2.117-.756-1.513-.906-3.403-.756-5.444-5.67-.228-6.806-1.89-7.182-2.874-.908-1.512-.758-3.175.376-4.687l8.697-11.57.226-.15c-.378-.757-.984-1.135-1.134-1.891-2.27 1.134-6.806 3.176-8.545 3.932-1.89.983-3.554.378-4.534-.378-1.136-.908-2.044-2.42-.91-7.183-4.915-1.134-7.56-3.176-7.408-6.201.225-1.36.754-2.494 1.737-3.251 1.514-1.286 4.16-1.512 6.806-1.512-.605-6.05.755-7.335 2.042-8.091 1.361-.755 3.25-.983 4.764.53 2.42 2.116 10.585 9.3 10.585 9.3l.152.15c.378-.377.756-.528 1.134-.755l.225-.756c.909-3.554.153-7.335-1.89-10.359-1.89-3.025-4.763-4.915-8.164-5.52-4.917-.907-8.47.227-11.72 3.63.755 1.285 1.36 2.646 1.36 4.31 0 2.268-.983 4.385-2.497 6.049-1.66 1.738-3.78 2.495-6.198 2.495-2.27 0-4.386-.757-6.05-2.495-1.511-1.664-2.495-3.781-2.495-6.05s.984-4.536 2.495-6.2c.756-.604 1.513-1.134 2.27-1.512-1.514-3.402-4.16-5.52-8.168-6.276-5.822-1.285-10.963 1.361-13.382 6.654l-1.136 2.646c1.136.152 5.067.53 7.715.53 3.022-.151 4.158 1.89 4.536 2.495.227.756.983 2.42-1.136 5.671 5.295 5.293 5.672 7.562 4.386 9.83-1.134 2.04-3.403 2.797-10.584.528-1.514 3.63-2.875 4.765-4.54 4.915-1.358.227-3.022-.378-4.005-2.268-.757-1.285-2.798-4.915-4.31-7.712-.227 3.176-1.135 6.049-3.025 9.225-3.402 5.52-8.922 7.56-10.662 7.939l-8.318 2.495 3.404-5.671c-.529 0-1.134.151-1.89.151h-1.514c-5.064 0-8.845.227-9.601-3.175-.378-1.134-.378-3.252 2.645-4.915 1.134-.756 2.42-1.512 3.781-2.117 2.648-1.135 4.915-2.268 7.335-4.31 3.252-2.647 4.764-4.008 7.033-7.184h.225c-1.209-1.738-1.966-3.629-1.966-5.52 0-2.796 1.136-5.292 3.1-7.182 1.892-2.042 4.537-3.025 7.184-3.025.756 0 1.286.227 2.042.378 4.158-9.603 13.61-14.895 24.197-13.232l.225.227c-.98-2.117-1.134-4.764.53-6.654l-.53.982c.53-1.512 2.422-4.385 6.957-3.78-1.664-1.89-2.648-4.159-2.648-6.653 0-2.798 1.136-5.444 3.028-7.335 1.359-1.361 2.872-2.117 4.536-2.494-1.286-1.287-2.27-3.026-2.27-5.067.226-1.89.226-7.032 20.264-9.452 0 0 24.803-4.613 74.327-5.672v71.984c-6.88 0-12.023 3.554-14.214 9.679l-.228.756c1.136 1.512 1.891 3.175 1.891 5.066 0 1.134-.378 2.268-.755 3.402a14.4 14.4 0 0 1 4.914-1.285c-.756-4.385.378-5.67.983-6.276 1.134-1.134 2.798-1.512 4.537-.907.606.152 1.664.604 2.872 1.059z" style="fill:#231f20;fill-opacity:1;fill-rule:evenodd;stroke:none" transform="matrix(1.33333 0 0 -1.33333 0 1056)"></path><path d="M396.622 605.76c-.984.15-1.74.378-2.495.529v-2.647c.756.227 1.51.378 2.495.605.378.15.755.378.755.757 0 .377-.377.528-.755.755" style="fill:#eb2037;fill-opacity:1;fill-rule:evenodd;stroke:none" transform="matrix(1.33333 0 0 -1.33333 0 1056)"></path><path d="M392.45 606.289v-4.79l3.863.957.816.185.118.049c1.573.632 1.808 1.72 1.808 2.314 0 1.295-1.045 1.892-1.436 2.117l-.37.213-.373.083-1.51.312-2.956.664zm3.646-.44.15.032-.15-.033" style="fill:#231f20;fill-opacity:1;fill-rule:evenodd;stroke:none" transform="matrix(1.33333 0 0 -1.33333 0 1056)"></path><path d="M387.17 607.801v-5.671c1.89.378 3.554.757 5.293 1.134v3.403c-1.74.378-3.403.756-5.292 1.134" style="fill:#eb2037;fill-opacity:1;fill-rule:evenodd;stroke:none" transform="matrix(1.33333 0 0 -1.33333 0 1056)"></path><path d="M385.493 607.801v-7.743l5.966 1.27 2.679.585.003 6.104-2.682.587-5.987 1.273zm3.355-2.797v.725l1.937-.413v-.7c-.004-.002-.992-.213-1.937-.414z" style="fill:#231f20;fill-opacity:1;fill-rule:evenodd;stroke:none" transform="matrix(1.33333 0 0 -1.33333 0 1056)"></path><path d="M379.76 609.313v-8.47c1.888.38 3.78.531 5.672.91v6.425q-2.84.57-5.671 1.135" style="fill:#eb2037;fill-opacity:1;fill-rule:evenodd;stroke:none" transform="matrix(1.33333 0 0 -1.33333 0 1056)"></path><path d="M378.081 609.313v-10.437l9.092 1.457-.064 1.42v7.801l-9.028 1.806zm3.357-4.31v2.264l2.316-.464v-3.62l-2.316-.372z" style="fill:#231f20;fill-opacity:1;fill-rule:evenodd;stroke:none" transform="matrix(1.33333 0 0 -1.33333 0 1056)"></path><path d="M372.047 610.447v-10.963c2.04.377 4.159.756 6.2.982v9.075c-2.041.377-4.16.755-6.2.906" style="fill:#eb2037;fill-opacity:1;fill-rule:evenodd;stroke:none" transform="matrix(1.33333 0 0 -1.33333 0 1056)"></path><path d="M370.37 610.447v-12.98l1.982.367c1.985.367 4.09.744 6.082.965l1.493.165v11.973l-1.374.253c-2.174.403-4.3.776-6.381.93l-1.803.134zm3.358-5.443v3.556a63 63 0 0 0 2.843-.43v-6.232a83 83 0 0 1-2.843-.45z" style="fill:#231f20;fill-opacity:1;fill-rule:evenodd;stroke:none" transform="matrix(1.33333 0 0 -1.33333 0 1056)"></path><path d="M364.485 611.582v-13.006c2.043.151 4.16.529 6.2.757v11.342c-2.04.377-4.157.53-6.2.907" style="fill:#eb2037;fill-opacity:1;fill-rule:evenodd;stroke:none" transform="matrix(1.33333 0 0 -1.33333 0 1056)"></path><path d="M362.808 611.582v-14.89l5.669.663 3.856.499.03 1.479v12.792l-9.492 1.386zm3.354-6.577v4.637l2.846-.416v-8.418l-.99-.128-1.856-.218z" style="fill:#231f20;fill-opacity:1;fill-rule:evenodd;stroke:none" transform="matrix(1.33333 0 0 -1.33333 0 1056)"></path><path d="M357.68 605.004v-7.412c1.665.228 3.783.605 5.672.757v13.233c-1.89.226-4.007.757-5.671.981z" style="fill:#eb2037;fill-opacity:1;fill-rule:evenodd;stroke:none" transform="matrix(1.33333 0 0 -1.33333 0 1056)"></path><path d="M356.003 612.563V595.65l3.52.517 5.426.698.08 1.484v14.648l-4.539.774-4.552.803zm3.355-7.56v5.56l.49-.086 1.826-.311v-10.343l-2.316-.296z" style="fill:#231f20;fill-opacity:1;fill-rule:evenodd;stroke:none" transform="matrix(1.33333 0 0 -1.33333 0 1056)"></path><path d="M348.76 605.004v-8.166c2.267.225 4.915.377 7.182.754v14.972c-2.267.152-4.915.378-7.181.529z" style="fill:#eb2037;fill-opacity:1;fill-rule:evenodd;stroke:none" transform="matrix(1.33333 0 0 -1.33333 0 1056)"></path><path d="M347.08 613.093v-18.091l3.887.35 6.741.752-.088 1.488v16.53l-10.55.778zm3.358-8.09v6.284l3.826-.281v-11.914l-3.587-.397-.239-.021z" style="fill:#231f20;fill-opacity:1;fill-rule:evenodd;stroke:none" transform="matrix(1.33333 0 0 -1.33333 0 1056)"></path><path d="M341.424 613.698v-17.389c1.889.149 3.781.377 5.673.529v16.483c-1.892.15-3.784.15-5.673.377" style="fill:#eb2037;fill-opacity:1;fill-rule:evenodd;stroke:none" transform="matrix(1.33333 0 0 -1.33333 0 1056)"></path><path d="M339.746 613.698v-19.231l9.005.84.023 1.53v18.066l-3.863.226-5.085.363zm3.356-8.694v6.893l1.648-.12s.387-.022.669-.04v-13.371c-.642-.06-1.844-.173-2.317-.216z" style="fill:#231f20;fill-opacity:1;fill-rule:evenodd;stroke:none" transform="matrix(1.33333 0 0 -1.33333 0 1056)"></path><path d="M334.242 614.077v-18.148c1.89.152 3.779.152 5.671.38v17.541c-1.892 0-3.781.227-5.67.227" style="fill:#eb2037;fill-opacity:1;fill-rule:evenodd;stroke:none" transform="matrix(1.33333 0 0 -1.33333 0 1056)"></path><path d="M332.564 614.077v-19.928l4.027.238 5.079.368-.08 1.554v19.153l-9.094.362zm3.356-9.073v7.327l2.315-.092v-14.37l-1.805-.13-.51-.03z" style="fill:#231f20;fill-opacity:1;fill-rule:evenodd;stroke:none" transform="matrix(1.33333 0 0 -1.33333 0 1056)"></path><path d="M326.679 614.455v-18.904c2.043.153 3.933.153 6.05.378v18.298c-2.117 0-4.007.228-6.05.228" style="fill:#eb2037;fill-opacity:1;fill-rule:evenodd;stroke:none" transform="matrix(1.33333 0 0 -1.33333 0 1056)"></path><path d="M325 614.455v-20.677l4.17.231 5.303.357-.067 1.563v19.914l-9.467.355zm3.356-9.451v7.71l2.695-.102v-15.115l-2.033-.135-.662-.037z" style="fill:#231f20;fill-opacity:1;fill-rule:evenodd;stroke:none" transform="matrix(1.33333 0 0 -1.33333 0 1056)"></path><path d="M319.271 614.605v-19.281c2.117 0 4.004.227 5.896.227v18.904c-1.892.15-3.78.15-5.896.15" style="fill:#eb2037;fill-opacity:1;fill-rule:evenodd;stroke:none" transform="matrix(1.33333 0 0 -1.33333 0 1056)"></path><path d="M317.593 616.284v-22.702l4.89.186 4.294.169.068 1.614v20.453l-1.544.124c-1.957.156-3.936.156-6.03.156zm3.356-11.28v7.913c.87-.004 1.725-.03 2.54-.064v-15.689l-2.54-.099z" style="fill:#231f20;fill-opacity:1;fill-rule:evenodd;stroke:none" transform="matrix(1.33333 0 0 -1.33333 0 1056)"></path><path d="M312.313 614.833v-19.659c1.891 0 3.555.15 5.445.15v19.509z" style="fill:#eb2037;fill-opacity:1;fill-rule:evenodd;stroke:none" transform="matrix(1.33333 0 0 -1.33333 0 1056)"></path><path d="M317.758 616.51h-7.123v-23.06l8.753.241.047 1.633v21.186zm-1.678-3.356v-16.199l-2.09-.057v16.256z" style="fill:#231f20;fill-opacity:1;fill-rule:evenodd;stroke:none" transform="matrix(1.33333 0 0 -1.33333 0 1056)"></path><path d="M305.13 614.984v-20.038c1.89 0 3.78 0 5.443.228l.228 9.83-.228 9.98z" style="fill:#eb2037;fill-opacity:1;fill-rule:evenodd;stroke:none" transform="matrix(1.33333 0 0 -1.33333 0 1056)"></path><path d="M310.573 616.662h-7.122v-23.394h1.68c1.914 0 3.892 0 5.67.243l1.416.195.262 11.258-.267 11.698zm-1.638-3.356.188-8.341-.191-8.234a40 40 0 0 0-2.124-.09v16.665z" style="fill:#231f20;fill-opacity:1;fill-rule:evenodd;stroke:none" transform="matrix(1.33333 0 0 -1.33333 0 1056)"></path><path d="M297.417 614.984v-19.81c1.738-.228 3.78-.228 5.444-.228v20.038z" style="fill:#eb2037;fill-opacity:1;fill-rule:evenodd;stroke:none" transform="matrix(1.33333 0 0 -1.33333 0 1056)"></path><path d="M302.861 616.662h-7.122v-22.96l1.461-.191c1.846-.243 3.96-.243 5.661-.243h1.678v23.394zm-1.68-3.356v-16.665a41 41 0 0 0-2.087.092v16.573z" style="fill:#231f20;fill-opacity:1;fill-rule:evenodd;stroke:none" transform="matrix(1.33333 0 0 -1.33333 0 1056)"></path><path d="M290.232 614.833v-19.51c1.892 0 3.784-.149 5.673-.149v19.659z" style="fill:#eb2037;fill-opacity:1;fill-rule:evenodd;stroke:none" transform="matrix(1.33333 0 0 -1.33333 0 1056)"></path><path d="M295.905 616.51h-7.35v-22.82l9.071-.239-.043 1.723v21.336zm-1.678-3.356v-16.258l-2.315.061v16.197z" style="fill:#231f20;fill-opacity:1;fill-rule:evenodd;stroke:none" transform="matrix(1.33333 0 0 -1.33333 0 1056)"></path><path d="M282.9 614.455v-18.904c2.04 0 3.932-.227 5.82-.227v19.281c-1.888 0-3.78 0-5.82-.15" style="fill:#eb2037;fill-opacity:1;fill-rule:evenodd;stroke:none" transform="matrix(1.33333 0 0 -1.33333 0 1056)"></path><path d="m288.72 616.284-7.579-.198.082-1.63v-20.519l9.242-.36-.066 1.747v21.004zm-1.678-3.4v-15.816l-2.465.097v15.656z" style="fill:#231f20;fill-opacity:1;fill-rule:evenodd;stroke:none" transform="matrix(1.33333 0 0 -1.33333 0 1056)"></path><path d="M275.336 614.227V595.93c2.042-.225 4.162-.225 6.05-.378v18.904c-1.888 0-4.008-.228-6.05-.228" style="fill:#eb2037;fill-opacity:1;fill-rule:evenodd;stroke:none" transform="matrix(1.33333 0 0 -1.33333 0 1056)"></path><path d="m281.387 616.133-7.664-.288-.064-1.618V594.36l5.208-.347 4.156-.233.041 1.771v20.646zm-2.816-3.463 1.138.043v-15.387l-.691.038-2.004.133v15.115c.779.028 1.557.058 1.557.058" style="fill:#231f20;fill-opacity:1;fill-rule:evenodd;stroke:none" transform="matrix(1.33333 0 0 -1.33333 0 1056)"></path><path d="M268.305 613.85V596.31c1.741-.228 3.78-.228 5.52-.38v18.148c-1.74 0-3.779-.227-5.52-.227" style="fill:#eb2037;fill-opacity:1;fill-rule:evenodd;stroke:none" transform="matrix(1.33333 0 0 -1.33333 0 1056)"></path><path d="m273.825 615.754-7.127-.293-.071-1.61v-19.1l1.462-.106 3.42-.257 3.949-.238.045 1.779v19.895zm-2.659-3.465.981.04v-14.618l-.473.03-1.691.124v14.375z" style="fill:#231f20;fill-opacity:1;fill-rule:evenodd;stroke:none" transform="matrix(1.33333 0 0 -1.33333 0 1056)"></path><path d="M260.97 613.32v-16.482c1.893-.152 3.782-.38 5.823-.53v17.39c-2.041-.226-3.93-.226-5.822-.377" style="fill:#eb2037;fill-opacity:1;fill-rule:evenodd;stroke:none" transform="matrix(1.33333 0 0 -1.33333 0 1056)"></path><path d="m266.61 615.366-3.4-.235-3.954-.23.037-1.58v-18.014l4.08-.376 5.126-.46-.028 1.838v19.187zm-3.239-3.586 1.746.121v-13.758l-2.468.224v13.37z" style="fill:#231f20;fill-opacity:1;fill-rule:evenodd;stroke:none" transform="matrix(1.33333 0 0 -1.33333 0 1056)"></path><path d="M252.048 612.563v-14.97c2.497-.378 4.914-.53 7.411-.755v16.255c-2.497-.15-4.914-.377-7.411-.53" style="fill:#eb2037;fill-opacity:1;fill-rule:evenodd;stroke:none" transform="matrix(1.33333 0 0 -1.33333 0 1056)"></path><path d="m259.357 614.768-8.969-.64-.018-1.565v-16.479l7.2-.768 3.56-.307.007 1.829v18.057zm-3.496-3.614 1.92.138v-12.624l-4.055.432V611z" style="fill:#231f20;fill-opacity:1;fill-rule:evenodd;stroke:none" transform="matrix(1.33333 0 0 -1.33333 0 1056)"></path><path d="M244.713 605.004v-6.655c1.892-.152 3.932-.53 5.823-.757v14.972c-1.891-.225-3.93-.756-5.823-.982z" style="fill:#eb2037;fill-opacity:1;fill-rule:evenodd;stroke:none" transform="matrix(1.33333 0 0 -1.33333 0 1056)"></path><path d="m250.338 614.23-3.034-.51-4.186-.71-.082-1.428v-14.713l5.022-.629 4.186-.576-.03 1.928v16.956zm-2.401-3.805.922.156v-11.064l-.317.044-2.15.268v10.335z" style="fill:#231f20;fill-opacity:1;fill-rule:evenodd;stroke:none" transform="matrix(1.33333 0 0 -1.33333 0 1056)"></path><path d="m237.304 610.675.228-5.671-.228-5.671c2.117-.228 4.159-.606 6.276-.757v13.006c-2.117-.378-4.159-.53-6.276-.907" style="fill:#eb2037;fill-opacity:1;fill-rule:evenodd;stroke:none" transform="matrix(1.33333 0 0 -1.33333 0 1056)"></path><path d="m243.287 613.233-7.772-1.123.114-1.502.223-5.604-.285-7.141 4.055-.517 5.709-.659-.073 1.889v14.943zm-2.632-3.769 1.247.18v-9.186l-1.82.21-1.039.133.166 4.203s-.102 2.601-.168 4.227z" style="fill:#231f20;fill-opacity:1;fill-rule:evenodd;stroke:none" transform="matrix(1.33333 0 0 -1.33333 0 1056)"></path><path d="M229.743 609.54v-9.074c2.116-.226 4.16-.605 6.275-.982v10.963c-2.115-.151-4.159-.529-6.275-.906" style="fill:#eb2037;fill-opacity:1;fill-rule:evenodd;stroke:none" transform="matrix(1.33333 0 0 -1.33333 0 1056)"></path><path d="M235.9 612.12c-2.092-.15-4.046-.498-6.112-.867l-1.723-.307v-11.918l7.152-1.105 2.48-.443v14.77zm-1.56-3.555v-7.112c-1.09.169-1.811.28-2.92.45v6.223c.983.173 1.96.316 2.92.44" style="fill:#231f20;fill-opacity:1;fill-rule:evenodd;stroke:none" transform="matrix(1.33333 0 0 -1.33333 0 1056)"></path><path d="M222.788 608.178v-6.425c1.662-.379 3.553-.53 5.443-.91v8.47c-1.89-.377-3.78-.756-5.443-1.135" style="fill:#eb2037;fill-opacity:1;fill-rule:evenodd;stroke:none" transform="matrix(1.33333 0 0 -1.33333 0 1056)"></path><path d="m227.903 610.958-6.824-1.421.03-1.359v-7.84l1.307-.222 2.947-.504 4.486-.73.06 1.962v10.532zm-1.35-3.709v-4.432l-.712.117-1.375.233v3.647z" style="fill:#231f20;fill-opacity:1;fill-rule:evenodd;stroke:none" transform="matrix(1.33333 0 0 -1.33333 0 1056)"></path><path d="M215.604 606.667v-3.403c1.664-.377 3.554-.756 5.293-1.134v5.671c-1.74-.378-3.629-.756-5.293-1.134" style="fill:#eb2037;fill-opacity:1;fill-rule:evenodd;stroke:none" transform="matrix(1.33333 0 0 -1.33333 0 1056)"></path><path d="m220.54 609.44-2.147-.456-4.485-.966.019-1.351v-4.758l4.466-.962 4.172-.888.01 2.071v7.743zm-1.455-3.74.134.028v-1.527l-1.937.417v.693z" style="fill:#231f20;fill-opacity:1;fill-rule:evenodd;stroke:none" transform="matrix(1.33333 0 0 -1.33333 0 1056)"></path><path d="M211.596 605.76c-.528-.228-.756-.379-.908-.756.152-.379.38-.606.908-.757.756-.227 1.511-.378 2.495-.605v2.647c-.984-.151-1.74-.378-2.495-.53" style="fill:#eb2037;fill-opacity:1;fill-rule:evenodd;stroke:none" transform="matrix(1.33333 0 0 -1.33333 0 1056)"></path><path d="m213.838 607.947-1.777-.364-.943-.212-.182-.07c-.663-.283-1.405-.67-1.805-1.675l-.249-.622.249-.622c.355-.891 1.01-1.463 2.003-1.748.005 0 1.882-.469 1.882-.469l2.746-.624.007 2.1v4.704zm-2.705-5.313" style="fill:#231f20;fill-opacity:1;fill-rule:evenodd;stroke:none" transform="matrix(1.33333 0 0 -1.33333 0 1056)"></path><path d="M161.918 663.604c-.755 2.797-2.873 5.065-5.52 6.2 0 0 4.917 8.165 6.048 10.434 1.137 2.42 3.404-5.52 3.404-5.52s8.922 3.403 9.68 2.117c.907-1.36-5.9-7.788-5.9-7.788s4.765-4.915 1.361-4.915c-3.628.227-9.073-.528-9.073-.528" style="fill:#f6d316;fill-opacity:1;fill-rule:evenodd;stroke:none" transform="matrix(1.33333 0 0 -1.33333 0 1056)"></path><path d="M161.688 680.593c-1.097-2.194-5.959-10.275-6.009-10.358l-.496-.825.885-.378c2.49-1.066 4.373-3.178 5.04-5.647l.193-.715.731.102c.055.008 5.406.741 8.907.523h.007c1.291 0 1.785.553 1.983 1.017q.121.295.12.632c0 1.323-1.292 2.996-2.258 4.076 3.701 3.573 5.63 6.141 5.63 7.587q0 .404-.194.693c-.27.465-1.07 1.758-9.84-1.489-1.696 5.522-2.925 5.688-3.342 5.72-.33.027-.947-.06-1.356-.938m1.338-1.051c.54-.78 1.389-2.86 2.017-5.055l.25-.879.854.326c3.398 1.295 7.47 2.475 8.613 2.345-.248-.855-2.745-3.825-5.707-6.622l-.616-.583.591-.61c1.248-1.29 2.354-2.922 2.354-3.458l-.002-.02c-.025.016-.141-.015-.39-.015-2.943.185-7.001-.263-8.545-.453-.841 2.36-2.592 4.351-4.886 5.587 1.16 1.938 4.351 7.293 5.467 9.437" style="fill:#a7ae21;fill-opacity:1;fill-rule:evenodd;stroke:none" transform="matrix(1.33333 0 0 -1.33333 0 1056)"></path><path d="M147.175 668.67c-2.497 3.402-4.387 5.141-7.637 7.788-4.16 3.402-8.093 4.688-11.871 6.804-3.63 2.042 4.159 1.513 6.957 1.513 2.267 0 3.628-.379 5.897-1.36 0 0 1.89 1.36 0 4.535 2.646-.756 6.426-2.797 8.543-6.2 2.42-4.008 3.025-7.031 2.268-11.342-1.512-.227-3.023-.756-4.157-1.739" style="fill:#f6d316;fill-opacity:1;fill-rule:evenodd;stroke:none" transform="matrix(1.33333 0 0 -1.33333 0 1056)"></path><path d="M139.8 687.521c.55-.926.725-1.636.725-2.165 0-.437-.115-.736-.24-.943-1.927.797-3.397 1.2-5.661 1.2l-1.55.027c-5.17.117-6.832-.035-7.155-1.208-.271-.996.896-1.654 1.336-1.9l3.617-1.846c2.627-1.276 5.345-2.596 8.133-4.877 3.31-2.695 5.083-4.351 7.494-7.636l.537-.733.687.595c.9.779 2.19 1.311 3.734 1.543l.598.09.105.595c.79 4.51.146 7.74-2.376 11.921-2.231 3.583-6.126 5.743-9.033 6.573l-2.033.582zm1.21-4.788c.535.385 1.182 1.283 1.182 2.623 0 .344-.077.736-.175 1.136 2.233-.975 4.782-2.688 6.335-5.185 1.693-2.802 2.45-5.063 2.45-7.687 0-.801-.113-1.666-.25-2.561-1.221-.26-2.28-.702-3.17-1.294-2.278 3.003-4.175 4.788-7.316 7.343-2.94 2.406-5.748 3.77-8.463 5.087l-3.342 1.704c1.291.136 3.526.091 4.774.063l1.589-.027c2.207 0 3.5-.398 5.563-1.291l.437-.19z" style="fill:#a7ae21;fill-opacity:1;fill-rule:evenodd;stroke:none" transform="matrix(1.33333 0 0 -1.33333 0 1056)"></path><path d="M228.079 706.702c.38 2.42-8.693-1.36-8.693-1.36s-1.136 7.409-3.404 7.032c-2.116-.605-.378-7.94-.378-7.94s-10.209 1.134-7.94-1.74c2.04-2.797 8.696-11.492 8.696-11.492 1.514 1.285 3.554 1.663 5.67 1.663 1.134 0 2.27-.152 3.176-.53 0 0 2.497 11.872 2.873 14.367" style="fill:#f6d316;fill-opacity:1;fill-rule:evenodd;stroke:none" transform="matrix(1.33333 0 0 -1.33333 0 1056)"></path><path d="M215.843 713.2c-1.347-.381-1.757-2.008-1.757-3.845 0-1.353.224-2.816.458-3.983-2.978.258-7.014.311-7.865-1.224a1.45 1.45 0 0 1-.182-.705c0-.347.12-.777.51-1.269l9.221-12.19.674.579c1.161.984 2.839 1.463 5.128 1.463 1.137 0 2.124-.16 2.855-.465l.933-.39.21.993c.102.485 2.503 11.914 2.879 14.41q.023.134.023.264c0 .448-.187.845-.53 1.114-1.337 1.05-5.47-.304-8.37-1.453-.353 1.827-1.193 5.228-2.712 6.327-.455.33-.965.46-1.475.375m.578-8.574c-.445 1.88-.648 3.677-.648 4.971 0 1.118.155 1.847.428 1.948.011-.01.052-.02.134-.079.978-.709 1.887-4.083 2.22-6.253l.163-1.06.99.413c3.25 1.354 6.606 2.27 7.513 2.078-.374-2.311-2.09-10.578-2.653-13.267-.76.193-1.593.327-2.538.327-2.294 0-4.08-.468-5.479-1.366l-8.208 10.85a3 3 0 0 0-.112.177c.663.487 3.952.603 7.28.234l1.183-.13zm12.486 1.947.003.003zm-21.9-4.4" style="fill:#a7ae21;fill-opacity:1;fill-rule:evenodd;stroke:none" transform="matrix(1.33333 0 0 -1.33333 0 1056)"></path><path d="M230.726 687.194c.53-1.285.908-2.646.908-3.932 0-1.135-.153-2.268-.53-3.25 0 0 9.453-5.293 11.72-6.58 2.27-1.512-1.511 8.469-1.511 8.469s8.695 1.36 8.695 3.252c0 1.89-9.075 1.285-9.075 1.285s1.891 10.586 0 8.923c-1.89-1.891-10.207-8.167-10.207-8.167" style="fill:#f6d316;fill-opacity:1;fill-rule:evenodd;stroke:none" transform="matrix(1.33333 0 0 -1.33333 0 1056)"></path><path d="M240.38 695.99c-1.867-1.864-10.075-8.063-10.16-8.126l-.516-.39.248-.6c.56-1.36.842-2.575.842-3.612 0-1.14-.157-2.132-.474-2.95l-.259-.677 12.351-6.933c.743-.497 1.289-.186 1.487-.029.182.145.471.374.471 1.29 0 1.089-.458 3.24-1.933 7.28 4.05.703 8.409 1.918 8.409 3.91l-.492 1.082c-1.33 1.244-5.968 1.208-8.422 1.096.491 2.952.683 4.953.683 6.243 0 2.216-.512 2.504-.792 2.664-.214.12-.781.336-1.444-.247m.547-1.772c.007-.113.015-.205.015-.338 0-1.623-.363-4.665-.833-7.295l-.188-1.056 1.07.07c3.72.248 7.352-.003 8.092-.533-.567-.655-4.127-1.746-7.901-2.337l-1.02-.16.366-.966c1.004-2.648 1.93-5.7 2.117-7.108l-10.566 5.93c.239.854.394 1.782.394 2.836 0 1.08-.29 2.31-.765 3.622 1.648 1.25 7.011 5.35 9.219 7.335" style="fill:#a7ae21;fill-opacity:1;fill-rule:evenodd;stroke:none" transform="matrix(1.33333 0 0 -1.33333 0 1056)"></path><path d="M212.58 683.262c0-2.646.755-4.763 2.267-6.427 0 0-8.165-7.183-10.585-9.3-2.27-2.042-.378 8.695-.378 8.695s-9.073-1.285-9.073 1.135c-.228 2.495 8.317 3.402 8.317 3.402s-3.025 8.317-.605 7.183c2.267-1.285 10.056-4.688 10.056-4.688" style="fill:#f6d316;fill-opacity:1;fill-rule:evenodd;stroke:none" transform="matrix(1.33333 0 0 -1.33333 0 1056)"></path><path d="M201.266 688.568q-.502-.461-.503-1.647c0-1.229.428-3.072 1.238-5.447-2.774-.382-8.035-1.445-8.035-4.011q-.001-.086.01-.174v-.01c0-.438.216-.896.626-1.25 1.52-1.32 6.022-1.014 8.276-.766-.41-2.542-.574-4.37-.574-5.62 0-2.565.624-2.91.893-3.06.291-.161.89-.333 1.625.328l11.22 9.858-.574.63c-1.38 1.519-2.05 3.436-2.05 5.863v.55l-.501.219c-.08.034-7.776 3.4-9.982 4.65-.926.436-1.475.066-1.669-.113m-5.615-11.216q-.002.015-.002.031c0 .942 3.642 2.13 7.568 2.55l1.065.113-.366 1.008c-.879 2.416-1.502 4.95-1.502 5.982l.002.014c2.23-1.197 7.728-3.634 9.369-4.355.094-2.24.747-4.16 1.93-5.736-.998-.879-9.146-8.038-9.697-8.52a8 8 0 0 0-.038.844c0 1.64.307 4.399.73 6.802l.2 1.138-1.144-.161c-4.21-.596-7.88-.328-8.115.29" style="fill:#a7ae21;fill-opacity:1;fill-rule:evenodd;stroke:none" transform="matrix(1.33333 0 0 -1.33333 0 1056)"></path><path d="M233.146 650.37s-2.646 1.286-3.932 2.647c-1.135 1.286-2.494 3.553-2.494 3.553s-.379-2.645-1.286-4.309c-.984-1.512-3.404-3.402-3.404-3.402.53 0 5.445.756 11.116 1.512" style="fill:#eb2037;fill-opacity:1;fill-rule:evenodd;stroke:none" transform="matrix(1.33333 0 0 -1.33333 0 1056)"></path><path d="M225.889 656.69c-.002-.025-.369-2.52-1.193-4.026-.86-1.321-3.16-3.126-3.182-3.144l-1.92-1.5h2.436c.342 0 1.544.167 4.471.583l9.487 1.315-2.476 1.207c-.025.012-2.524 1.237-3.688 2.469-1.052 1.19-2.371 3.386-2.385 3.408l-1.213 2.024zm.248-4.884c.441.807.749 1.768.974 2.618.453-.666.972-1.393 1.473-1.961.548-.581 1.297-1.134 2.01-1.598l-4.33-.6-1.641-.232c.569.564 1.134 1.187 1.514 1.773M270.197 653.925c-3.553-.379-7.334-.53-10.965-.908 0 0 2.117 2.42 3.252 4.31.756 1.135 1.512 3.402 1.512 3.402s1.136-1.89 2.042-3.024c1.511-1.663 4.159-3.78 4.159-3.78" style="fill:#eb2037;fill-opacity:1;fill-rule:evenodd;stroke:none" transform="matrix(1.33333 0 0 -1.33333 0 1056)"></path><path d="M263.202 660.995c-.01-.021-.734-2.176-1.416-3.203-1.102-1.835-3.164-4.198-3.187-4.223l-1.362-1.558 7.497.618 7.652.637-1.666 1.314c-.025.02-2.613 2.096-4.063 3.69-.824 1.036-1.93 2.873-1.942 2.891l-.938 1.563zm0-4.1c.357.535.7 1.29.983 1.972.37-.563.796-1.185 1.197-1.686.792-.873 1.847-1.836 2.714-2.589l-6.946-.575c.675.85 1.478 1.92 2.052 2.879" style="fill:#eb2037;fill-opacity:1;fill-rule:evenodd;stroke:none" transform="matrix(1.33333 0 0 -1.33333 0 1056)"></path><path d="M303.995 680.011c.908 0 1.891 0 2.647.227-.756-10.208 7.182-19.509 17.391-19.66 8.47-.226 15.274 4.16 17.921 12.098 1.359-.982 2.117-.982 3.778-.982.76 0 2.27.378 3.029.604 1.134-7.94 7.029-13.232 14.743-13.987 9.451-.606 17.996 7.182 17.77 16.408 1.51-.757 3.024-1.135 4.763-1.135-2.119-9.073 3.78-18.525 12.852-20.188 6.05-.984 10.737.378 14.897 4.915 1.36-.984 3.024-1.362 4.763-1.362 2.042-5.293 5.67-8.317 11.343-9.602 7.332-1.513 14.137 1.89 17.163 8.694.756-1.134 1.888-2.495 3.022-3.251-3.55-8.468-11.49-12.627-20.413-11.115-6.956 1.135-11.493 4.688-14.139 11.342-5.14-4.385-9.677-6.048-16.256-5.292-8.699.756-14.366 5.821-17.015 14.139-4.535-6.957-10.585-9.83-18.75-9.603-9.226.379-15.879 5.672-19.058 14.517-4.383-7.939-11.19-11.87-20.413-11.72-9.679.228-16.863 5.142-20.263 13.99-3.328-8.848-10.285-13.762-19.736-13.99-9.073-.15-16.107 3.63-20.416 11.72-3.025-8.845-9.828-14.138-19.13-14.517-8.092-.227-14.14 2.646-18.527 9.603-2.645-8.318-8.467-13.383-17.01-14.14-6.578-.755-11.343.757-16.257 5.293-2.798-6.654-7.184-10.207-14.14-11.342-9.074-1.512-17.013 2.647-20.642 11.115 1.361.756 2.267 2.117 3.023 3.252 3.025-6.806 9.832-10.208 17.24-8.695 5.67 1.285 9.226 4.31 11.343 9.602 1.89 0 3.401.378 4.687 1.362 4.159-4.537 8.923-5.9 14.971-4.915 9.074 1.663 14.896 11.115 12.854 20.188 1.664 0 3.404.378 4.69 1.135 0-9.226 8.317-17.014 17.768-16.408 7.94.755 13.838 6.048 14.971 13.987.529-.226 2.042-.604 2.798-.604 1.739 0 2.495 0 3.781.982 2.872-7.939 9.679-12.324 17.996-12.097 10.207.15 18.071 9.451 17.314 19.659.908-.227 1.663-.227 2.647-.227" style="fill:#f6d316;fill-opacity:1;fill-rule:evenodd;stroke:none" transform="matrix(1.33333 0 0 -1.33333 0 1056)"></path><path d="M306.4 681.042c-.636-.192-1.577-.192-2.405-.192-.95 0-1.635 0-2.443.201l-1.127.282.087-1.157c.36-4.85-1.332-9.706-4.641-13.322-3.146-3.44-7.354-5.37-11.851-5.437-8.074-.22-14.498 4.096-17.195 11.544l-.387 1.076-.91-.694c-1.061-.81-1.573-.81-3.27-.81-.616 0-2.009.34-2.467.537l-1.008.432-.155-1.085c-1.065-7.453-6.512-12.538-14.22-13.271-4.272-.274-8.6 1.315-11.846 4.36-3.18 2.983-5.005 7.07-5.005 11.213v1.466l-1.263-.743c-1.102-.648-2.657-1.019-4.264-1.019h-1.05l.23-1.023c.962-4.265.108-8.837-2.341-12.542-2.345-3.546-5.841-5.903-9.845-6.637-5.971-.97-10.358.465-14.2 4.656l-.518.566-.61-.466c-1.075-.822-2.364-1.189-4.178-1.189h-.569l-.21-.527c-2.028-5.065-5.342-7.87-10.75-9.096-7.03-1.436-13.43 1.79-16.287 8.217l-.619 1.394-.847-1.269c-.724-1.09-1.548-2.325-2.732-2.983l-.662-.368.299-.696c3.75-8.753 12.009-13.203 21.551-11.612 6.813 1.11 11.37 4.597 14.302 10.861 4.755-4.058 9.615-5.558 16.052-4.818 8.24.73 14.116 5.315 17.134 13.21 4.368-6.112 10.22-8.906 18.331-8.679 8.94.364 15.834 5.291 19.246 13.52 4.432-7.237 11.23-10.874 20.29-10.722 9.142.219 16.051 4.781 19.731 12.817 3.761-8.036 10.85-12.597 20.235-12.817 8.938-.147 15.738 3.505 20.296 10.765 3.552-8.37 10.274-13.198 19.16-13.562 8.138-.227 14.061 2.575 18.557 8.703 3.023-7.923 8.903-12.52 17.17-13.237 6.255-.72 10.849.696 16.002 4.835 2.79-6.248 7.357-9.74 14.33-10.877 9.471-1.605 17.645 2.846 21.324 11.619l.268.639-.576.384c-.88.587-1.923 1.714-2.79 3.017l-.846 1.27-.62-1.394c-2.86-6.432-9.228-9.656-16.228-8.215-5.397 1.225-8.811 4.112-10.728 9.084l-.207.537h-.576c-1.733 0-3.168.404-4.273 1.202l-.602.437-.507-.55c-3.837-4.184-8.198-5.62-14.144-4.654-4.03.739-7.555 3.126-9.906 6.717-2.423 3.697-3.249 8.237-2.263 12.453l.239 1.03h-1.056c-1.57 0-2.964.332-4.389 1.046l-1.215.607v-1.357c0-4.143-1.824-8.23-5.004-11.213-3.247-3.045-7.574-4.634-11.872-4.359-7.426.729-12.921 5.939-13.968 13.27l-.137.966-.933-.28c-.79-.237-2.174-.57-2.787-.57-1.607 0-2.145 0-3.287.823l-.925.67-.363-1.085c-2.478-7.436-8.873-11.744-17.101-11.524-4.53.067-8.764 2.011-11.933 5.474-3.31 3.617-5 8.459-4.645 13.285l.09 1.216zm-22.344-21.302c4.95.073 9.59 2.197 13.052 5.98a19.58 19.58 0 0 1 5.128 13.17c0 .122-.01.244-.013.366.569-.06 1.133-.084 1.771-.084.57 0 1.176.023 1.77.081-.001-.115-.013-.232-.013-.347 0-4.814 1.832-9.54 5.133-13.148 3.485-3.807 8.15-5.945 13.136-6.018 8.63-.232 15.383 4.15 18.331 11.718 1.1-.576 2.001-.604 3.38-.604.631 0 1.613.207 2.405.407 1.481-7.625 7.357-13.009 15.282-13.785 4.79-.308 9.575 1.445 13.157 4.806a17.24 17.24 0 0 1 5.411 11.284 11 11 0 0 1 3.125-.716c-.175-.997-.343-1.996-.343-3.002 0-3.44 1.01-6.878 2.943-9.828 2.606-3.979 6.521-6.624 11.024-7.45 6.262-1.018 11.097.528 15.205 4.75 1.143-.668 2.484-1.056 4.03-1.134 2.169-5.248 5.902-8.336 11.734-9.658 7.348-1.515 14.036 1.605 17.468 7.945a12.5 12.5 0 0 1 1.855-1.91c-3.472-7.633-10.768-11.495-19.223-10.06-6.71 1.094-10.998 4.533-13.5 10.825l-.433 1.087-.893-.76c-5.123-4.37-9.503-5.8-15.615-5.097-8.192.712-13.674 5.274-16.31 13.56l-.537 1.686-.964-1.482c-4.25-6.515-9.977-9.446-18.026-9.221-8.685.355-15.183 5.314-18.29 13.96l-.627 1.748-.897-1.624c-4.218-7.635-10.835-11.433-19.666-11.288-9.318.22-16.244 4.996-19.495 13.451l-.792 2.06-.776-2.066c-3.225-8.574-9.785-13.224-18.97-13.445-8.976-.149-15.59 3.644-19.656 11.276l-.908 1.707-.626-1.83c-2.953-8.635-9.474-13.59-18.37-13.95-8.024-.226-13.678 2.702-17.782 9.211l-.96 1.526-.55-1.719c-2.595-8.157-8.226-12.845-16.286-13.558-6.397-.735-10.915.736-15.613 5.074l-.879.81-.464-1.102c-2.698-6.413-6.861-9.756-13.503-10.838-8.513-1.42-15.882 2.428-19.43 10.023.737.553 1.342 1.223 1.85 1.91 3.44-6.31 10.14-9.416 17.507-7.913 5.752 1.304 9.476 4.38 11.725 9.619 1.607.069 2.923.433 4.04 1.122 4.105-4.184 8.944-5.715 15.201-4.698 4.473.82 8.36 3.434 10.958 7.366a18.17 18.17 0 0 1 3.007 9.984c0 .985-.159 1.962-.325 2.936 1.108.088 2.128.326 3.057.695a17.24 17.24 0 0 1 5.406-11.266c3.585-3.36 8.368-5.114 13.127-4.81 8.202.781 14.034 6.032 15.537 13.754.72-.194 1.6-.372 2.18-.372 1.418 0 2.34.026 3.41.599 3.145-7.564 9.924-11.944 18.39-11.713" style="fill:#a7ae21;fill-opacity:1;fill-rule:evenodd;stroke:none" transform="matrix(1.33333 0 0 -1.33333 0 1056)"></path><path d="M304.145 725.605c-3.1 0-7.484-11.72-7.484-11.72s-11.871 10.36-9.226 5.823c2.647-4.537 11.72-21.55 11.72-21.55 1.512.756 3.1 1.134 4.84 1.134q2.495 0 4.536-1.134s8.848 16.862 12.099 21.55c3.403 4.763-9.299-5.823-9.299-5.823s-3.78 11.72-7.186 11.72" style="fill:#f6d316;fill-opacity:1;fill-rule:evenodd;stroke:none" transform="matrix(1.33333 0 0 -1.33333 0 1056)"></path><path d="M296.308 715.293c-8.363 7.203-9.201 6.603-9.729 6.167-.767-.634-.139-1.714.132-2.175 2.608-4.472 11.614-21.352 11.705-21.522l.384-.722.731.367a9.75 9.75 0 0 0 4.464 1.045c1.511 0 2.9-.346 4.131-1.028l.749-.418.401.761c.086.169 8.859 16.87 12.043 21.461.426.597 1.153 1.612.422 2.29-.549.509-1.22 1.033-10.005-6.214-1.176 3.36-4.258 11.14-7.591 11.14-3.064 0-6.403-7.518-7.837-11.152m1.138-1.702c2.012 5.374 5.144 11.176 6.699 11.176 1.726 0 4.658-5.782 6.387-11.14l.38-1.18.957.794c2.483 2.07 5.306 4.28 7.206 5.621-3.294-5.223-9.429-16.792-10.937-19.653-1.28.566-2.65.922-4.143.922-1.578 0-3.03-.353-4.438-.94-1.533 2.866-8.064 15.071-10.845 19.978 1.817-1.246 4.814-3.663 7.398-5.916l.913-.796z" style="fill:#a7ae21;fill-opacity:1;fill-rule:evenodd;stroke:none" transform="matrix(1.33333 0 0 -1.33333 0 1056)"></path><path d="M288.72 696.268s-6.425 2.495-9.45 3.78c-3.025 1.361 0-6.805 0-6.805s-9.224-3.175-9.224-5.67c0-2.269 9.452-3.025 9.452-3.025s-2.647-7.562 0-6.579c2.797.757 16.407 6.579 16.407 6.579-.908 1.512-1.513 3.251-1.513 5.141 0 1.286.227 2.798.755 3.933z" style="fill:#f6d316;fill-opacity:1;fill-rule:evenodd;stroke:none" transform="matrix(1.33333 0 0 -1.33333 0 1056)"></path><path d="M277.672 700.656c-.41-.385-.571-1.05-.571-1.854 0-1.513.564-3.49 1.104-5.05-2.857-1.039-8.999-3.572-8.999-6.18 0-2.419 5.33-3.38 9.165-3.76-.444-1.411-.881-3.125-.881-4.481 0-.81.157-1.486.56-1.881.25-.247.813-.611 1.739-.267 2.75.739 15.888 6.354 16.446 6.593l.884.378-.494.825c-.925 1.54-1.394 3.125-1.394 4.71 0 1.332.253 2.669.676 3.578l.374.795-7.258 2.988-9.425 3.77c-1.025.461-1.648.096-1.926-.164m1.477-21.472c0 1.03.455 3.133 1.14 5.087l.358 1.026-1.084.087c-4.68.376-8.508 1.488-8.68 2.193 0 1.005 4.046 3.284 8.66 4.873l.81.279-.297.805c-.784 2.121-1.305 4.335-1.305 5.387 0 .184.034.29.066.396l.107-.033 9.494-3.799-.016.006 5.723-2.356a11 11 0 0 1-.571-3.446c0-1.594.475-3.164 1.245-4.701-2.896-1.23-13.187-5.578-15.522-6.21l-.055-.016c-.036.11-.073.223-.073.422z" style="fill:#a7ae21;fill-opacity:1;fill-rule:evenodd;stroke:none" transform="matrix(1.33333 0 0 -1.33333 0 1056)"></path><path d="M187.249 622.168c0 3.78 3.025 6.805 6.956 6.805 4.009 0 7.184-3.026 7.184-6.805 0-3.933-3.175-6.957-7.184-6.957-3.93 0-6.956 3.024-6.956 6.957" style="fill:#eb2037;fill-opacity:1;fill-rule:evenodd;stroke:none" transform="matrix(1.33333 0 0 -1.33333 0 1056)"></path><path d="M446.146 663.604c.758 2.797 2.797 5.065 5.446 6.2 0 0-4.688 8.165-6.048 10.434-1.134 2.42-3.179-5.52-3.179-5.52s-8.542 4.386-9.829 2.117c-1.36-2.116 6.05-7.788 6.05-7.788s-4.386-4.688-1.362-4.915c2.874-.151 8.922-.528 8.922-.528" style="fill:#f6d316;fill-opacity:1;fill-rule:evenodd;stroke:none" transform="matrix(1.33333 0 0 -1.33333 0 1056)"></path><path d="M444.944 681.53c-.404-.037-1.59-.217-3.111-5.62-3.1 1.509-8.645 3.776-10.024 1.339a1.8 1.8 0 0 1-.285-.999c0-2.294 3.587-5.514 5.847-7.315-.9-1.057-2.043-2.643-2.043-3.924 0-.221.033-.432.11-.63.176-.449.618-1.003 1.724-1.086.018 0 9.612-.57 9.612-.57l.183.66c.673 2.493 2.53 4.605 4.965 5.647l.872.373-6.531 11.264c-.376.811-.99.893-1.319.862m-1.766-7.022c.551 2.138 1.311 4.18 1.817 5.003l5.45-9.403c-2.27-1.228-4.007-3.237-4.846-5.633l-8.33.494c.018 0-.3.07-.3.07-.087.4.981 2.096 2.23 3.435l.633.676-.734.562c-3.495 2.675-6.338 5.915-5.856 6.668.483.846 4.714-.344 8.741-2.41l.934-.479z" style="fill:#a7ae21;fill-opacity:1;fill-rule:evenodd;stroke:none" transform="matrix(1.33333 0 0 -1.33333 0 1056)"></path><path d="M460.89 668.67c2.645 3.402 4.31 5.141 7.712 7.788 4.008 3.402 15.502 5.67 11.72 6.804-3.78.907-4.158 1.513-6.956 1.513-2.266 0-3.63-.379-5.67-1.36 0 0-2.27 1.51-.227 4.535 2.266 3.025-6.2-2.797-8.468-6.2-2.268-4.008-3.022-7.031-2.117-11.342 1.512-.227 2.873-.756 4.006-1.739" style="fill:#f6d316;fill-opacity:1;fill-rule:evenodd;stroke:none" transform="matrix(1.33333 0 0 -1.33333 0 1056)"></path><path d="M458.302 682.215c-2.538-4.48-3.136-7.714-2.24-11.98l.122-.57.575-.087c1.466-.22 2.638-.724 3.583-1.543l.667-.58.544.7c2.713 3.49 4.34 5.132 7.563 7.64 1.755 1.487 5.112 2.79 7.809 3.836 3.457 1.342 5.034 1.955 4.99 3.14-.037.9-1.025 1.197-1.35 1.294l-3.013.843c-1.36.425-2.262.706-4.186.706-2.098 0-3.528-.322-5.486-1.206-.21.237-.428.572-.428 1.148 0 .5.18 1.136.71 1.925.276.365.528.771.528 1.185a.958.958 0 0 1-.898.963c-1.491.124-7.698-4.726-9.49-7.414m-.953-8.491c0 2.453.74 4.714 2.382 7.613 1.225 1.835 4.31 4.33 6.317 5.673a4.2 4.2 0 0 1-.27-1.435q0-.352.068-.696c.273-1.387 1.271-2.088 1.384-2.163l.4-.265.43.207c2.033.98 3.273 1.278 5.306 1.278 1.67 0 2.386-.224 3.686-.63l2.588-.723c-.808-.407-2.156-.934-3.323-1.387-2.814-1.092-6.317-2.451-8.257-4.1-3.086-2.398-4.855-4.167-7.359-7.328-.88.606-1.89 1.041-3.05 1.29-.17.926-.302 1.82-.302 2.666" style="fill:#a7ae21;fill-opacity:1;fill-rule:evenodd;stroke:none" transform="matrix(1.33333 0 0 -1.33333 0 1056)" data-source="https://football-logos.cc"></path><path d="M379.986 706.702c-.982 3.025 8.696-1.36 8.696-1.36s.908 7.788 3.403 7.032c2.419-.757.378-7.94.378-7.94s9.981.528 8.09-1.74c-1.89-2.268-8.696-11.492-8.696-11.492-1.664 1.285-3.552 1.663-5.82 1.663-1.134 0-2.119-.152-3.025-.53 0 0-1.892 11.494-3.026 14.367" style="fill:#f6d316;fill-opacity:1;fill-rule:evenodd;stroke:none" transform="matrix(1.33333 0 0 -1.33333 0 1056)"></path><path d="M390.653 712.925c-1.585-1.038-2.34-4.487-2.645-6.38-2.97 1.278-7.168 2.776-8.468 1.613-.264-.236-.66-.771-.352-1.715l.017-.049c1.089-2.757 2.96-14.08 2.978-14.195l.173-1.046.978.408c.76.318 1.62.465 2.703.465 2.37 0 3.956-.444 5.308-1.488l.678-.525.511.691c.068.091 6.813 9.23 8.662 11.453.612.732.445 1.353.294 1.657-.706 1.406-4.481 1.604-7.936 1.49.272 1.145.568 2.715.568 4.171 0 1.724-.417 3.27-1.787 3.7a1.95 1.95 0 0 1-1.682-.25m-1.135-7.68c.256 2.216 1.067 5.63 2.054 6.276.115.076.185.076.27.05.929-.29.67-3.887-.188-6.908l-.318-1.128 1.17.06c3.258.173 6.446-.059 7.296-.489-1.804-2.209-6.645-8.734-8.156-10.78-1.498.927-3.258 1.379-5.609 1.379-.89 0-1.644-.123-2.354-.307-.464 2.736-1.905 10.936-2.886 13.513.937.161 4.298-.866 7.539-2.333l1.047-.474z" style="fill:#a7ae21;fill-opacity:1;fill-rule:evenodd;stroke:none" transform="matrix(1.33333 0 0 -1.33333 0 1056)"></path><path d="M377.34 687.194c-.606-1.285-.754-2.646-.754-3.932 0-1.135 0-2.268.375-3.25 0 0-9.072-5.067-11.718-6.58-2.497-1.738 1.512 8.469 1.512 8.469s-8.924.757-8.543 3.252c.225 2.42 8.92 1.285 8.92 1.285s-2.268 11.19 0 8.923c2.42-2.269 10.208-8.167 10.208-8.167" style="fill:#f6d316;fill-opacity:1;fill-rule:evenodd;stroke:none" transform="matrix(1.33333 0 0 -1.33333 0 1056)"></path><path d="M366.092 696.372c-.266-.144-.794-.427-.794-2.544 0-1.301.22-3.356.803-6.434-2.17.208-6.387.425-7.988-.852-.434-.348-.69-.802-.737-1.311a1.5 1.5 0 0 1-.02-.245c0-.405.152-.825.446-1.2 1.299-1.647 5.6-2.347 7.78-2.603-1.544-4.075-1.98-6.17-1.98-7.264 0-.91.294-1.143.477-1.29.26-.203.818-.46 1.642.115-.054-.036 11.65 6.534 11.65 6.534l.633.356-.258.678c-.323.837-.323 1.864-.323 2.95 0 1.461.215 2.597.676 3.575l.29.615-.542.41c-.078.06-7.78 5.898-10.139 8.11-.715.716-1.32.558-1.616.4m1.864-9.767c-.556 2.743-1.002 5.932-1.002 7.532 0 .114.026.139.03.237 2.392-2.14 7.753-6.253 9.381-7.492-.387-1.05-.619-2.197-.619-3.62 0-.942.062-1.896.273-2.818-.927-.52-9.81-5.508-10.69-6 .188 1.405 1.16 4.484 2.206 7.15l.41 1.048-1.12.095c-2.698.23-6.87 1.03-7.705 2.089-.068.089-.082.141-.082.174l.002.026c.007.068.014.118.123.205 1.038.83 5.222.719 7.862.375l1.164-.15z" style="fill:#a7ae21;fill-opacity:1;fill-rule:evenodd;stroke:none" transform="matrix(1.33333 0 0 -1.33333 0 1056)"></path><path d="M395.638 683.262c0-2.646-.755-4.763-2.42-6.427 0 0 8.318-7.788 10.588-9.3 2.417-1.663.528 8.695.528 8.695s8.695-1.285 9.073 1.135c.38 2.495-8.469 3.402-8.469 3.402s3.024 8.317.756 7.183c-2.494-1.285-10.056-4.688-10.056-4.688" style="fill:#f6d316;fill-opacity:1;fill-rule:evenodd;stroke:none" transform="matrix(1.33333 0 0 -1.33333 0 1056)"></path><path d="M405.32 688.701c-2.458-1.266-9.95-4.64-10.028-4.674l-.494-.222v-.543c0-2.463-.71-4.371-2.171-5.833l-.613-.614.632-.592c.342-.32 8.394-7.853 10.693-9.386.792-.544 1.402-.263 1.628-.118.614.398.922 1.496.922 3.282 0 1.34-.212 3.155-.56 5.265 3.187-.386 8.5-.646 8.906 1.97q.02.14.02.283c0 .428-.148.844-.436 1.218-1.3 1.679-5.615 2.449-7.756 2.737.977 2.864 1.305 4.609 1.305 5.608 0 1.07-.33 1.364-.497 1.51-.191.17-.724.523-1.552.11m.378-1.687c-.032-1.052-.656-3.512-1.546-5.961l-.368-1.012 1.07-.11c2.67-.274 6.805-1.145 7.64-2.223.074-.097.088-.155.088-.19q-.001-.018-.005-.028c-.111-.72-3.759-1.074-8.12-.43l-1.156.17.21-1.15c.445-2.446.691-4.862.691-6.41 0-.587-.047-.989-.122-1.28-2.155 1.544-7.925 6.86-9.716 8.527 1.284 1.56 1.973 3.461 2.07 5.782 1.588.718 6.885 3.12 9.264 4.315" style="fill:#a7ae21;fill-opacity:1;fill-rule:evenodd;stroke:none" transform="matrix(1.33333 0 0 -1.33333 0 1056)"></path><path d="M406.828 644.474s3.176.755 4.915 1.738c1.134.907 2.647 2.798 2.647 2.798s.378-2.42 1.135-3.554c.908-1.89 3.78-4.159 3.78-4.159-4.006 1.135-8.167 2.269-12.477 3.177" style="fill:#eb2037;fill-opacity:1;fill-rule:evenodd;stroke:none" transform="matrix(1.33333 0 0 -1.33333 0 1056)"></path><path d="M413.737 649.534c-.016-.017-1.427-1.772-2.472-2.624-1.627-.897-4.6-1.613-4.63-1.62l.021-1.638c4.283-.902 8.501-2.053 12.421-3.162l.75 1.465c-.759.6-2.872 2.46-3.545 3.863-.594.905-.964 2.698-1.063 3.322l-.293 1.878zm-1.58-4.053.057.034.053.042c.545.437 1.154 1.068 1.666 1.635.207-.756.496-1.605.894-2.202.312-.656.856-1.351 1.44-1.993-2.023.553-4.087 1.07-6.202 1.572.738.265 1.489.573 2.092.912M374.847 650.37s2.872 1.286 4.157 2.647c1.132 1.286 2.27 3.553 2.27 3.553s.601-2.645 1.51-4.309c.984-1.512 3.253-3.402 3.253-3.402-.605 0-5.295.756-11.19 1.512" style="fill:#eb2037;fill-opacity:1;fill-rule:evenodd;stroke:none" transform="matrix(1.33333 0 0 -1.33333 0 1056)"></path><path d="M380.521 656.946c-.011-.022-1.1-2.186-2.146-3.373-1.134-1.202-3.845-2.424-3.872-2.436l-2.675-1.199 10.469-1.436c2.401-.343 3.391-.482 3.74-.482h2.317l-1.78 1.483c-.022.018-2.185 1.829-3.087 3.216-.805 1.484-1.393 4.014-1.397 4.039l-.522 2.278zm-.908-4.505c.51.578.99 1.304 1.4 1.974.268-.835.61-1.78 1.034-2.555.397-.616.967-1.266 1.525-1.844l-1.037.147-5.008.687c.76.463 1.54 1.013 2.086 1.591M337.793 653.925c3.783-.379 7.564-.53 11.192-.908 0 0-2.27 2.42-3.403 4.31-.755 1.135-1.51 3.402-1.51 3.402s-1.136-1.89-2.118-3.024c-1.286-1.663-4.161-3.78-4.161-3.78" style="fill:#eb2037;fill-opacity:1;fill-rule:evenodd;stroke:none" transform="matrix(1.33333 0 0 -1.33333 0 1056)"></path><path d="M343.352 661.161c-.012-.018-1.11-1.842-2.033-2.906-1.226-1.587-3.995-3.634-4.022-3.655l-1.807-1.331 7.773-.626 7.803-.637-1.467 1.585c-.024.023-2.223 2.378-3.297 4.168-.703 1.06-1.43 3.215-1.436 3.236l-.576 1.728zm-.736-3.97c.43.496.876 1.123 1.259 1.69.287-.691.64-1.464 1.009-2.019.562-.938 1.388-1.994 2.098-2.84l-3.6.295-3.402.273c.902.76 1.962 1.728 2.636 2.602" style="fill:#eb2037;fill-opacity:1;fill-rule:evenodd;stroke:none" transform="matrix(1.33333 0 0 -1.33333 0 1056)"></path><path d="M319.271 696.268s7.032 2.873 9.45 3.78c2.497.757 0-6.805 0-6.805s9.3-3.175 9.3-5.67c0-2.269-9.3-3.025-9.3-3.025s2.268-7.94-.152-6.579c-2.494 1.135-16.482 6.579-16.482 6.579a9.3 9.3 0 0 1 1.512 5.141c0 1.286-.153 2.798-.529 3.933z" style="fill:#f6d316;fill-opacity:1;fill-rule:evenodd;stroke:none" transform="matrix(1.33333 0 0 -1.33333 0 1056)"></path><path d="M328.479 700.852c-.051-.018-9.527-3.808-9.527-3.808l-6.922-2.955.244-.734c.305-.914.487-2.285.487-3.666 0-1.703-.464-3.279-1.377-4.684l-.563-.865.961-.375c.139-.054 13.994-5.449 16.442-6.56.794-.45 1.373-.167 1.641.044.469.37.649 1.135.649 2.1 0 1.284-.326 2.918-.726 4.458 3.782.379 9.072 1.337 9.072 3.766 0 2.618-6.236 5.16-9.1 6.191.446 1.458.904 3.294.904 4.755 0 .852-.158 1.567-.564 1.984-.237.243-.761.61-1.621.349m.43-1.632c.047-.126.091-.277.091-.533 0-1.085-.423-3.202-1.075-5.182l-.259-.787.785-.269c4.652-1.59 8.732-3.868 8.732-4.876-.141-.701-3.899-1.812-8.529-2.19l-1.02-.082.28-.984c.574-2.008.94-4.1.94-5.172 0-.174-.032-.25-.052-.366-2.516 1.118-12.597 5.063-15.586 6.23.749 1.448 1.222 2.997 1.222 4.68 0 1.261-.164 2.43-.402 3.432 1.02.437 5.542 2.366 5.556 2.372.01.002 9.105 3.643 9.317 3.727" style="fill:#a7ae21;fill-opacity:1;fill-rule:evenodd;stroke:none" transform="matrix(1.33333 0 0 -1.33333 0 1056)"></path><path d="M406.603 622.168c0 3.78 3.25 6.805 7.183 6.805 4.005 0 7.183-3.026 7.183-6.805 0-3.933-3.178-6.957-7.183-6.957-3.932 0-7.183 3.024-7.183 6.957M303.995 662.998s-.378-2.042-1.134-3.175c-.756-1.74-2.95-4.008-2.95-4.008 1.286.227 2.95.605 4.084.605 1.286 0 3.026-.378 4.309-.605 0 0-2.267 2.269-3.173 4.008-.606 1.133-1.136 3.175-1.136 3.175" style="fill:#eb2037;fill-opacity:1;fill-rule:evenodd;stroke:none" transform="matrix(1.33333 0 0 -1.33333 0 1056)"></path><path d="M303.17 663.15c-.097-.521-.468-2.053-1.007-2.862l-.042-.063-.03-.069c-.685-1.576-2.762-3.737-2.783-3.758l-1.824-1.887 3.49.648c1.04.198 2.217.422 3.021.422.97 0 2.263-.24 3.4-.453l3.41-.624-1.907 1.904c-.023.022-2.19 2.2-3.025 3.802-.554 1.04-1.06 2.98-1.065 3zm.851-2.898c.116-.29.237-.581.367-.825.405-.775 1.045-1.626 1.659-2.363-.715.11-1.423.195-2.053.195-.565 0-1.23-.088-1.908-.199.588.754 1.195 1.629 1.541 2.428l-.07-.132c.177.266.323.58.464.896" style="fill:#eb2037;fill-opacity:1;fill-rule:evenodd;stroke:none" transform="matrix(1.33333 0 0 -1.33333 0 1056)"></path><path d="M304.373 653.774c-28.656-.378-78.787-6.277-80.829-6.805-11.72-2.269-29.489-5.672-40.682-9.679-.756-.757-1.283-2.42-.377-3.402.983-2.42 3.78-1.891 5.52-1.287 37.2 11.342 78.258 13.61 115.612 14.518 37.43-.907 79.167-3.176 116.596-14.518 1.74-.604 4.385-1.134 5.52 1.287.755.982.375 2.645-.379 3.402-11.19 4.007-28.96 7.41-40.83 9.68-2.119.527-52.173 6.426-80.907 6.804z" style="fill:#f6d316;fill-opacity:1;fill-rule:evenodd;stroke:none" transform="matrix(1.33333 0 0 -1.33333 0 1056)"></path><path d="M303.617 654.613v-.014c-28.44-.462-77.705-6.15-80.284-6.818l-.62-.118c-11.586-2.243-29.093-5.63-40.133-9.583l-.177-.064-.135-.133c-.979-.982-1.686-3.171-.4-4.565l-.16.254c.915-2.256 3.313-2.898 6.572-1.762 36.55 11.142 77.045 13.54 115.357 14.47 38.677-.938 79.571-3.342 116.333-14.482 4.051-1.41 5.785.163 6.52 1.734l-.094-.157c.414.537.593 1.194.593 1.857 0 1.003-.41 2.02-1.04 2.65l-.135.134-.177.064c-11.297 4.044-29.145 7.456-40.956 9.712-1.833.46-51.205 6.336-80.308 6.807v.014zm-80.585-8.598.67.13c1.839.474 51.798 6.36 80.295 6.782 28.952-.427 78.452-6.304 80.323-6.772 11.728-2.243 29.327-5.61 40.512-9.576.28-.342.476-.856.476-1.352 0-.313-.074-.61-.24-.828l-.056-.072-.04-.084c-.416-.89-1.335-1.945-4.484-.85-36.985 11.21-78.015 13.624-116.85 14.565-38.472-.933-79.104-3.342-115.88-14.554-2.435-.847-3.937-.575-4.495.8l-.06.14-.102.112c-.18.195-.252.459-.252.742 0 .497.239 1.03.53 1.38 10.934 3.875 28.194 7.22 39.653 9.437" style="fill:#a7ae21;fill-opacity:1;fill-rule:evenodd;stroke:none" transform="matrix(1.33333 0 0 -1.33333 0 1056)"></path><path d="M303.995 645.078c-35.312-.983-75.386-3.63-111.076-13.46 7.184.379 11.495-3.931 11.495-8.846 0-3.78-1.891-6.805-5.445-8.167 34.404 8.696 71.077 10.586 105.026 11.57 34.026-.984 70.698-2.874 105.253-11.57-3.778 1.362-5.67 4.387-5.67 8.167 0 4.915 4.537 9.225 11.568 8.847-35.763 9.828-75.614 12.476-111.15 13.459" style="fill:#f6d316;fill-opacity:1;fill-rule:evenodd;stroke:none" transform="matrix(1.33333 0 0 -1.33333 0 1056)"></path><path d="M303.97 645.917c-32.264-.898-74.07-3.244-111.272-13.49l.267-1.646c3.37.177 6.303-.746 8.256-2.6 1.518-1.44 2.353-3.36 2.353-5.409 0-3.549-1.741-6.171-4.905-7.382l.505-1.598c35.078 8.866 72.512 10.608 104.846 11.544 32.31-.935 69.782-2.676 105.024-11.544l.49 1.603c-3.3 1.189-5.118 3.808-5.118 7.377 0 1.999.842 3.897 2.372 5.345 2.002 1.899 4.955 2.844 8.312 2.664l.27 1.647c-37.325 10.258-79.116 12.597-111.352 13.489h-.048m.025-1.679c30.855-.854 70.437-3.113 106.421-12.319-1.84-.513-3.487-1.354-4.785-2.584-1.863-1.768-2.893-4.099-2.893-6.563 0-2.582.92-4.728 2.451-6.39-34.149 8.015-70.018 9.732-101.169 10.632-31.23-.904-67.132-2.623-101.186-10.672 1.512 1.674 2.418 3.835 2.418 6.43 0 2.514-1.022 4.867-2.878 6.627-1.263 1.2-2.886 2.023-4.707 2.526 35.87 9.19 75.452 11.454 106.328 12.313" style="fill:#231f20;fill-opacity:1;fill-rule:evenodd;stroke:none" transform="matrix(1.33333 0 0 -1.33333 0 1056)"></path><path d="M415.677 607.272c0 3.554-6.051 5.291-7.94 5.444-34.026 8.544-70.091 10.434-103.742 11.19-33.42-.756-69.716-2.646-103.742-11.19-1.89-.153-7.712-1.89-7.712-5.444 0-3.781 17.013-6.048 17.013-6.048-3.4 1.284-5.898 2.418-5.67 3.174 0 2.496 3.023 3.403 7.712 4.385 30.85 6.578 61.624 7.563 92.4 8.47 31-.907 61.623-1.892 92.626-8.47 4.536-.982 7.712-1.89 7.712-4.385-.379-2.645-5.293-3.174-5.293-3.174s16.258 2.267 16.636 6.048" style="fill:#f6d316;fill-opacity:1;fill-rule:evenodd;stroke:none" transform="matrix(1.33333 0 0 -1.33333 0 1056)"></path><path d="M200.078 613.536c-2.256-.219-8.375-2.102-8.375-6.264 0-4.19 13.579-6.326 17.742-6.88l.405 1.616c-3.817 1.442-4.855 2.11-5.121 2.404.013 1.754 2.38 2.574 7.04 3.55 31.192 6.651 62.231 7.567 92.251 8.453 29.976-.88 61.025-1.789 92.428-8.452 4.624-1.002 6.98-1.83 7.03-3.516-.271-1.328-2.522-2.028-3.88-2.286-.224-.034-.45-.076-.673-.107l.205-1.665.046.006c.09.01.258.034.474.069 4.433.644 16.463 2.758 16.86 6.725l.004.042v.041c0 4.152-6.291 6.043-8.604 6.265-34.122 8.563-70.098 10.448-103.897 11.208-33.858-.765-69.85-2.654-103.935-11.21m-6.697-6.263c0 2.832 5.268 4.473 6.94 4.607l.069.006.068.018c33.933 8.52 69.825 10.401 103.555 11.165 33.674-.758 69.548-2.636 103.521-11.165l.067-.018.07-.006c1.714-.137 7.08-1.769 7.152-4.553-.2-1.426-4.732-3.058-10.107-4.234.217.352.385.74.448 1.187l.01.06v.06c0 3.39-4.45 4.355-8.375 5.205-31.554 6.695-62.679 7.607-92.779 8.488-30.142-.888-61.261-1.806-92.599-8.488-4.744-.994-8.374-2.009-8.374-5.206l.033.242a1.3 1.3 0 0 1-.059-.38c0-.399.221-.78.704-1.185-5.65 1.186-10.344 2.838-10.344 4.197z" style="fill:#a7ae21;fill-opacity:1;fill-rule:evenodd;stroke:none" transform="matrix(1.33333 0 0 -1.33333 0 1056)"></path><path d="M297.264 689.69c0 3.78 3.025 6.804 6.731 6.804a6.777 6.777 0 0 0 6.806-6.805 6.78 6.78 0 0 0-6.806-6.805c-3.706 0-6.731 3.025-6.731 6.805" style="fill:#fff;fill-opacity:1;fill-rule:evenodd;stroke:none" transform="matrix(1.33333 0 0 -1.33333 0 1056)"></path><path d="M296.595 689.69c0-4.123 3.319-7.477 7.4-7.477 4.122 0 7.478 3.354 7.478 7.476s-3.356 7.476-7.478 7.476c-4.081 0-7.4-3.354-7.4-7.476m1.34 0c0 3.382 2.718 6.134 6.06 6.134a6.14 6.14 0 0 0 6.135-6.134 6.14 6.14 0 0 0-6.135-6.133c-3.342 0-6.06 2.75-6.06 6.133" style="fill:#9ba1b5;fill-opacity:1;fill-rule:evenodd;stroke:none" transform="matrix(1.33333 0 0 -1.33333 0 1056)"></path><path d="M215.227 683.262a6.776 6.776 0 0 0 6.803 6.806 6.78 6.78 0 0 0 6.806-6.806 6.777 6.777 0 0 0-6.806-6.804 6.775 6.775 0 0 0-6.803 6.804" style="fill:#fff;fill-opacity:1;fill-rule:evenodd;stroke:none" transform="matrix(1.33333 0 0 -1.33333 0 1056)"></path><path d="M214.555 683.262c0-4.122 3.353-7.475 7.475-7.475 4.123 0 7.476 3.353 7.476 7.475 0 4.123-3.353 7.477-7.476 7.477s-7.475-3.354-7.475-7.477m1.341 0a6.14 6.14 0 0 0 6.134 6.134 6.14 6.14 0 0 0 6.135-6.134 6.14 6.14 0 0 0-6.135-6.133 6.14 6.14 0 0 0-6.134 6.133" style="fill:#9ba1b5;fill-opacity:1;fill-rule:evenodd;stroke:none" transform="matrix(1.33333 0 0 -1.33333 0 1056)"></path><path d="M146.191 661.108c0 3.78 3.026 6.805 6.654 6.805a6.775 6.775 0 0 0 6.804-6.805 6.775 6.775 0 0 0-6.804-6.805c-3.628 0-6.654 3.024-6.654 6.805" style="fill:#fff;fill-opacity:1;fill-rule:evenodd;stroke:none" transform="matrix(1.33333 0 0 -1.33333 0 1056)"></path><path d="M145.52 661.108c0-4.122 3.287-7.476 7.325-7.476 4.122 0 7.475 3.354 7.475 7.476s-3.353 7.476-7.475 7.476c-4.038 0-7.325-3.354-7.325-7.476m1.343 0c0 3.382 2.684 6.134 5.982 6.134a6.14 6.14 0 0 0 6.134-6.134 6.14 6.14 0 0 0-6.134-6.134c-3.298 0-5.982 2.751-5.982 6.134" style="fill:#9ba1b5;fill-opacity:1;fill-rule:evenodd;stroke:none" transform="matrix(1.33333 0 0 -1.33333 0 1056)"></path><path d="M184.376 664.889c0 2.873 2.495 5.141 5.142 5.141 2.798 0 5.293-2.268 5.293-5.141 0-2.799-2.495-5.066-5.293-5.066-2.647 0-5.142 2.267-5.142 5.066" style="fill:#fff;fill-opacity:1;fill-rule:evenodd;stroke:none" transform="matrix(1.33333 0 0 -1.33333 0 1056)"></path><path d="M183.536 664.889c0-3.146 2.796-5.905 5.982-5.905 3.324 0 6.13 2.704 6.13 5.905 0 3.241-2.806 5.98-6.13 5.98-3.241 0-5.982-2.739-5.982-5.98m1.678 0c0 2.292 2.012 4.302 4.304 4.302 2.416 0 4.453-1.97 4.453-4.302 0-2.292-2.037-4.228-4.453-4.228-2.292 0-4.304 1.975-4.304 4.228" style="fill:#9ba1b5;fill-opacity:1;fill-rule:evenodd;stroke:none" transform="matrix(1.33333 0 0 -1.33333 0 1056)"></path><path d="M257.19 679.633c0 2.873 2.27 5.142 5.067 5.142a5.1 5.1 0 0 0 5.142-5.142c0-2.798-2.267-5.066-5.142-5.066a5.07 5.07 0 0 0-5.067 5.066" style="fill:#fff;fill-opacity:1;fill-rule:evenodd;stroke:none" transform="matrix(1.33333 0 0 -1.33333 0 1056)"></path><path d="M256.352 679.633a5.91 5.91 0 0 1 5.905-5.905c3.298 0 5.98 2.649 5.98 5.905 0 3.354-2.627 5.98-5.98 5.98-3.255 0-5.905-2.682-5.905-5.98m1.678 0c0 2.413 1.857 4.303 4.227 4.303 2.413 0 4.302-1.89 4.302-4.303 0-2.37-1.89-4.227-4.302-4.227a4.23 4.23 0 0 0-4.227 4.227" style="fill:#9ba1b5;fill-opacity:1;fill-rule:evenodd;stroke:none" transform="matrix(1.33333 0 0 -1.33333 0 1056)"></path><path d="M379.23 683.262a6.777 6.777 0 0 0 6.807 6.806 6.776 6.776 0 0 0 6.803-6.806 6.775 6.775 0 0 0-6.803-6.804 6.776 6.776 0 0 0-6.807 6.804" style="fill:#fff;fill-opacity:1;fill-rule:evenodd;stroke:none" transform="matrix(1.33333 0 0 -1.33333 0 1056)"></path><path d="M378.559 683.262c0-4.122 3.355-7.475 7.478-7.475 4.121 0 7.473 3.353 7.473 7.475 0 4.123-3.352 7.477-7.473 7.477-4.123 0-7.478-3.354-7.478-7.477m1.343 0a6.14 6.14 0 0 0 6.135 6.134 6.14 6.14 0 0 0 6.132-6.134 6.14 6.14 0 0 0-6.132-6.133 6.14 6.14 0 0 0-6.135 6.133" style="fill:#9ba1b5;fill-opacity:1;fill-rule:evenodd;stroke:none" transform="matrix(1.33333 0 0 -1.33333 0 1056)"></path><path d="M448.416 661.108a6.777 6.777 0 0 0 6.804 6.805 6.775 6.775 0 0 0 6.803-6.805 6.775 6.775 0 0 0-6.803-6.805 6.777 6.777 0 0 0-6.804 6.805" style="fill:#fff;fill-opacity:1;fill-rule:evenodd;stroke:none" transform="matrix(1.33333 0 0 -1.33333 0 1056)"></path><path d="M447.744 661.108c0-4.122 3.354-7.476 7.476-7.476s7.474 3.354 7.474 7.476-3.352 7.476-7.474 7.476-7.476-3.354-7.476-7.476m1.341 0a6.143 6.143 0 0 0 6.135 6.134 6.14 6.14 0 0 0 6.134-6.134 6.14 6.14 0 0 0-6.134-6.134 6.143 6.143 0 0 0-6.135 6.134" style="fill:#9ba1b5;fill-opacity:1;fill-rule:evenodd;stroke:none" transform="matrix(1.33333 0 0 -1.33333 0 1056)"></path><path d="M413.407 664.889a5.1 5.1 0 0 0 5.142 5.141c2.798 0 5.066-2.268 5.066-5.141a5.066 5.066 0 0 0-5.066-5.066c-2.872 0-5.142 2.267-5.142 5.066" style="fill:#fff;fill-opacity:1;fill-rule:evenodd;stroke:none" transform="matrix(1.33333 0 0 -1.33333 0 1056)"></path><path d="M412.567 664.889c0-3.257 2.684-5.905 5.982-5.905a5.91 5.91 0 0 1 5.904 5.905c0 3.298-2.65 5.98-5.904 5.98-3.353 0-5.982-2.627-5.982-5.98m1.677 0c0 2.412 1.893 4.302 4.305 4.302 2.369 0 4.226-1.89 4.226-4.302a4.23 4.23 0 0 0-4.226-4.228c-2.412 0-4.305 1.857-4.305 4.228" style="fill:#9ba1b5;fill-opacity:1;fill-rule:evenodd;stroke:none" transform="matrix(1.33333 0 0 -1.33333 0 1056)"></path><path d="M340.668 679.633c0 2.873 2.268 5.142 5.064 5.142a5.1 5.1 0 0 0 5.143-5.142c0-2.798-2.268-5.066-5.143-5.066a5.066 5.066 0 0 0-5.064 5.066" style="fill:#fff;fill-opacity:1;fill-rule:evenodd;stroke:none" transform="matrix(1.33333 0 0 -1.33333 0 1056)"></path><path d="M339.828 679.633a5.91 5.91 0 0 1 5.904-5.905c3.3 0 5.983 2.649 5.983 5.905 0 3.354-2.627 5.98-5.983 5.98-3.253 0-5.904-2.682-5.904-5.98m1.678 0c0 2.413 1.857 4.303 4.226 4.303 2.415 0 4.305-1.89 4.305-4.303 0-2.37-1.89-4.227-4.305-4.227a4.23 4.23 0 0 0-4.226 4.227" style="fill:#9ba1b5;fill-opacity:1;fill-rule:evenodd;stroke:none" transform="matrix(1.33333 0 0 -1.33333 0 1056)"></path><path d="M268.533 633.888c0 3.78 3.025 6.805 6.578 6.805a6.777 6.777 0 0 0 6.806-6.805c0-3.555-3.025-6.578-6.806-6.578-3.553 0-6.578 3.023-6.578 6.578M209.554 627.687a6.78 6.78 0 0 0 6.806 6.806c3.554 0 6.579-3.026 6.579-6.806 0-3.63-3.025-6.654-6.579-6.654-3.78 0-6.806 3.025-6.806 6.654M326.303 633.888c0 3.78 3.024 6.805 6.575 6.805 3.781 0 6.654-3.025 6.654-6.805 0-3.555-2.873-6.578-6.654-6.578-3.55 0-6.575 3.023-6.575 6.578M385.278 627.687c0 3.78 2.798 6.806 6.58 6.806 3.63 0 6.653-3.026 6.653-6.806 0-3.63-3.023-6.654-6.654-6.654-3.78 0-6.579 3.025-6.579 6.654M236.396 624.284c6.428.907 13.385 2.042 19.813 2.647 3.628.379 5.67 3.176 5.67 6.427 0 3.554-3.403 5.444-7.562 5.444h.756c-6.803 0-13.988 0-18.525-1.89l-1.285-.379c-3.25-.53-5.671-3.024-5.671-6.2 0-3.402 3.026-6.275 6.956-6.275zM294.24 629.35c6.427.228 13.535.379 19.964.228 3.554 0 6.048 2.419 6.426 5.67.38 3.554-2.872 6.05-6.806 6.427h.758c-6.807.757-13.763 1.664-18.677.151l-1.286-.15c-3.4 0-6.048-2.269-6.429-5.293-.375-3.404 2.27-6.654 6.202-7.185zM371.82 624.284c-6.427.907-13.608 2.042-20.037 2.647-3.403.379-5.444 3.176-5.444 6.427 0 3.554 3.402 5.444 7.336 5.444h-.758c6.807 0 13.988 0 18.752-1.89l1.286-.379c3.251-.53 5.67-3.024 5.67-6.2 0-3.402-3.176-6.275-6.956-6.275z" style="fill:#231f20;fill-opacity:1;fill-rule:evenodd;stroke:none" transform="matrix(1.33333 0 0 -1.33333 0 1056)"></path><path d="M237.304 626.175c4.537.53 12.477 1.664 17.013 2.04 2.495.38 4.009 2.496 4.009 4.538 0 2.646-3.781 4.008-6.654 4.008h1.89c-4.687 0-11.115 0-14.369-1.513l-2.645-.605c-2.27-.378-3.93-2.042-3.93-4.31s2.267-4.386 4.914-4.386zM370.686 626.175c-4.537.53-12.474 1.664-17.011 2.04-2.422.38-3.78 2.496-3.78 4.538 0 2.646 3.627 4.008 6.425 4.008h-1.892c4.917 0 11.191 0 14.368-1.513l2.647-.605c2.268-.378 4.006-2.042 4.006-4.31s-2.116-4.386-4.916-4.386z" style="fill:#17994f;fill-opacity:1;fill-rule:evenodd;stroke:none" transform="matrix(1.33333 0 0 -1.33333 0 1056)"></path><path d="M295.527 630.863c4.535.226 12.248.604 16.785.379 2.42.225 4.162 1.889 4.31 4.006.38 2.648-2.798 4.31-5.669 4.536h1.512c-4.69.53-10.74 1.134-14.066.152l-2.494-.377c-2.27-.152-4.311-1.663-4.537-3.782-.38-2.419 3.251-4.31 5.896-4.688z" style="fill:#eb2037;fill-opacity:1;fill-rule:evenodd;stroke:none" transform="matrix(1.33333 0 0 -1.33333 0 1056)"></path><path d="M211.823 627.687c0 2.42 2.043 4.537 4.537 4.537 2.42 0 4.31-2.117 4.31-4.537 0-2.496-1.89-4.386-4.31-4.386-2.494 0-4.537 1.89-4.537 4.386" style="fill:#fff;fill-opacity:1;fill-rule:evenodd;stroke:none" transform="matrix(1.33333 0 0 -1.33333 0 1056)"></path><path d="M210.984 627.687c0-2.93 2.36-5.224 5.376-5.224 2.887 0 5.15 2.294 5.15 5.224 0 2.964-2.311 5.376-5.15 5.376-2.913 0-5.376-2.462-5.376-5.376m1.677 0c0 2.004 1.694 3.698 3.7 3.698 1.88 0 3.47-1.694 3.47-3.698 0-2.022-1.493-3.547-3.47-3.547-2.074 0-3.7 1.558-3.7 3.547" style="fill:#9ba1b5;fill-opacity:1;fill-rule:evenodd;stroke:none" transform="matrix(1.33333 0 0 -1.33333 0 1056)"></path><path d="M270.802 633.888c0 2.495 1.89 4.536 4.31 4.536a4.55 4.55 0 0 0 4.535-4.536c0-2.42-2.041-4.31-4.536-4.31-2.42 0-4.309 1.89-4.309 4.31" style="fill:#fff;fill-opacity:1;fill-rule:evenodd;stroke:none" transform="matrix(1.33333 0 0 -1.33333 0 1056)"></path><path d="M269.962 633.888c0-2.888 2.26-5.149 5.15-5.149 2.963 0 5.373 2.31 5.373 5.149a5.38 5.38 0 0 1-5.374 5.376c-2.839 0-5.15-2.412-5.15-5.376m1.68 0c0 2.073 1.524 3.697 3.47 3.697a3.7 3.7 0 0 0 3.697-3.697c0-1.947-1.623-3.471-3.697-3.471a3.434 3.434 0 0 0-3.47 3.47" style="fill:#9ba1b5;fill-opacity:1;fill-rule:evenodd;stroke:none" transform="matrix(1.33333 0 0 -1.33333 0 1056)"></path><path d="M328.57 633.888c0 2.495 1.89 4.536 4.308 4.536a4.55 4.55 0 0 0 4.539-4.536c0-2.42-2.041-4.31-4.54-4.31-2.416 0-4.308 1.89-4.308 4.31" style="fill:#fff;fill-opacity:1;fill-rule:evenodd;stroke:none" transform="matrix(1.33333 0 0 -1.33333 0 1056)"></path><path d="M327.731 633.888c0-2.888 2.262-5.149 5.147-5.149 2.967 0 5.377 2.31 5.377 5.149a5.38 5.38 0 0 1-5.377 5.376c-2.838 0-5.147-2.412-5.147-5.376m1.678 0c0 2.073 1.523 3.697 3.469 3.697 2.041 0 3.7-1.659 3.7-3.697 0-1.947-1.626-3.471-3.7-3.471a3.43 3.43 0 0 0-3.469 3.47" style="fill:#9ba1b5;fill-opacity:1;fill-rule:evenodd;stroke:none" transform="matrix(1.33333 0 0 -1.33333 0 1056)"></path><path d="M387.32 627.687c0 2.42 2.118 4.537 4.537 4.537 2.497 0 4.386-2.117 4.386-4.537 0-2.496-1.889-4.386-4.386-4.386-2.42 0-4.537 1.89-4.537 4.386" style="fill:#fff;fill-opacity:1;fill-rule:evenodd;stroke:none" transform="matrix(1.33333 0 0 -1.33333 0 1056)"></path><path d="M386.48 627.687c0-2.88 2.414-5.224 5.377-5.224 2.978 0 5.224 2.246 5.224 5.224 0 2.964-2.342 5.376-5.224 5.376-2.864 0-5.377-2.512-5.377-5.376m1.678 0c0 1.97 1.73 3.698 3.7 3.698 1.955 0 3.545-1.658 3.545-3.698 0-2.022-1.524-3.547-3.546-3.547-2.04 0-3.699 1.591-3.699 3.547" style="fill:#9ba1b5;fill-opacity:1;fill-rule:evenodd;stroke:none" transform="matrix(1.33333 0 0 -1.33333 0 1056)"></path><path d="M201.39 644.474s-3.176.755-4.915 1.738c-1.287.907-2.648 2.798-2.648 2.798s-.378-2.42-1.133-3.554c-1.134-1.89-3.781-4.159-3.781-4.159a158 158 0 0 0 12.476 3.177" style="fill:#eb2037;fill-opacity:1;fill-rule:evenodd;stroke:none" transform="matrix(1.33333 0 0 -1.33333 0 1056)"></path><path d="M192.999 649.14c-.098-.623-.47-2.417-1.004-3.22-1.07-1.782-3.603-3.964-3.628-3.985l.787-1.441c3.936 1.18 8.34 2.301 12.408 3.158l.02 1.638c-.03.007-3.082.74-4.695 1.652-1.082.77-2.366 2.54-2.38 2.558l-1.192 1.655zm.414-4.116c.378.567.655 1.38.858 2.12.503-.565 1.104-1.183 1.719-1.617.628-.358 1.4-.676 2.153-.948-2.13-.496-4.22-1.028-6.319-1.607.594.653 1.177 1.368 1.589 2.052" style="fill:#eb2037;fill-opacity:1;fill-rule:evenodd;stroke:none" transform="matrix(1.33333 0 0 -1.33333 0 1056)"></path><path d="M412.523 603.253h-221.4V389.088c-.025-.098-.747-10.616 8.784-20.349 12.135-12.392 34.577-17.714 66.72-15.822 27.625-.008 33.018-15.155 33.23-15.8l4.122-12.307 4.145 12.306c.22.646 5.605 15.793 33.491 15.793 31.882-1.884 54.332 3.438 66.458 15.83 9.53 9.733 8.809 20.251 8.776 20.697l.017 213.817z" style="fill:#231f20;fill-opacity:1;fill-rule:evenodd;stroke:none" transform="matrix(1.33333 0 0 -1.33333 0 1056)"></path><path d="M408.183 389.088V594.57H305.08V348.21c5.497 6.151 16.3 13.371 36.773 13.371h.015c36.501-2.145 52.663 5.894 59.794 13.016 6.106 6.095 6.53 12.332 6.53 14.062 0 .216 0 .36-.01.428zM224.744 594.57v-229.8c3.26-.928 6.99-1.707 11.195-2.306V594.57zM264.492 594.57V361.51c.635.03 1.234.042 1.883.08 3.394 0 6.43-.262 9.31-.626V594.57zM204.872 594.57V376.233c.457-.545.908-1.087 1.455-1.634 2.237-2.236 5.362-4.557 9.733-6.627v226.6zM244.623 594.57V361.58c3.45-.23 7.172-.342 11.188-.316V594.57zM284.366 594.57V359.249c4.508-1.29 8.182-3.007 11.189-4.906V594.57z" style="fill:#fff;fill-opacity:1;fill-rule:nonzero;stroke:none" transform="matrix(1.33333 0 0 -1.33333 0 1056)"></path><path d="m199.807 594.57-.009-205.783c0-.03-.009-.132-.009-.297 0-1.318.369-6.664 5.083-12.258v218.339zM216.06 594.57v-226.6c2.467-1.17 5.356-2.253 8.684-3.2v229.8zM235.939 594.57V362.465c2.684-.381 5.574-.677 8.684-.885v232.992zM255.81 594.57V361.265c2.755.013 5.641.093 8.682.246v233.06zM275.685 594.57V360.965c3.173-.4 6.082-.97 8.681-1.716v235.323zM302.909 348.236v246.335h-7.354V354.34c3.102-1.957 5.55-4.082 7.354-6.105" style="fill:#2056a9;fill-opacity:1;fill-rule:nonzero;stroke:none" transform="matrix(1.33333 0 0 -1.33333 0 1056)"></path><path d="M343.445 555.083v-15.101h14.357v15.101zM408.133 567.047v15.103h-14.197v-15.103zM368.686 555.083v-15.101h14.356v15.101zM393.936 539.982h14.197v15.101h-14.197zM332.555 582.15H318.36v-15.103h14.195zM357.802 567.047v15.103h-14.357v-15.103zM318.36 555.083v-15.101h14.195v15.101zM383.042 567.047v15.103h-14.356v-15.103z" style="fill:#eb222c;fill-opacity:1;fill-rule:nonzero;stroke:none" transform="matrix(1.33333 0 0 -1.33333 0 1056)"></path><path d="M343.445 567.047v15.103h-10.89v-15.103zM332.555 555.083v-15.101h10.89v15.101zM357.802 555.083v-15.101h10.884v15.101zM368.686 567.047v15.103h-10.884v-15.103zM383.042 555.083v-15.101h10.894v15.101zM393.936 567.047v15.103h-10.894v-15.103zM343.445 567.047v-11.964h14.357v11.964zM368.686 567.047v-11.964h14.356v11.964zM332.555 567.047H318.36v-11.964h14.195zM393.936 567.047v-11.964h14.197v11.964z" style="fill:#fff;fill-opacity:1;fill-rule:nonzero;stroke:none" transform="matrix(1.33333 0 0 -1.33333 0 1056)"></path><path d="M332.555 567.047v-11.964h10.89v11.964zM357.802 567.047v-11.964h10.884v11.964zM383.042 555.083h10.894v11.964h-10.894zM343.445 482.577v-15.101h14.357v15.1zM408.133 494.54v15.105h-14.197V494.54zM368.686 482.577v-15.101h14.358v15.1zM393.936 467.476h14.197v15.1h-14.197zM332.558 509.645H318.36V494.54h14.198zM357.802 494.54v15.105h-14.357V494.54zM318.36 482.577v-15.101h14.198v15.1zM383.044 494.54v15.105h-14.358V494.54z" style="fill:#eb222c;fill-opacity:1;fill-rule:nonzero;stroke:none" transform="matrix(1.33333 0 0 -1.33333 0 1056)"></path><path d="M343.445 494.54v15.105h-10.887V494.54zM332.558 482.577v-15.101h10.887v15.1zM357.802 482.577v-15.101h10.884v15.1zM368.686 494.54v15.105h-10.884V494.54zM383.044 482.577v-15.101h10.892v15.1zM393.936 494.54v15.105h-10.892V494.54zM343.445 494.54v-11.963h14.357v11.963zM368.686 494.54v-11.963h14.358v11.963zM332.558 494.54H318.36v-11.963h14.198zM393.936 494.54v-11.963h14.197v11.963z" style="fill:#fff;fill-opacity:1;fill-rule:nonzero;stroke:none" transform="matrix(1.33333 0 0 -1.33333 0 1056)"></path><path d="M332.558 494.54v-11.963h10.887v11.963zM357.802 494.54v-11.963h10.884v11.963zM383.044 482.577h10.892v11.963h-10.892zM343.445 410.067v-15.098h14.357v15.098zM408.133 422.033v15.104h-14.197v-15.104ZM368.686 410.067v-15.098h14.358v15.098zM393.936 394.969h14.197v15.098h-14.197zM332.558 437.137H318.36v-15.104h14.198zM357.802 422.033v15.104h-14.357v-15.104ZM318.36 410.067v-15.098h14.198v15.098zM383.044 422.033v15.104h-14.358v-15.104Z" style="fill:#eb222c;fill-opacity:1;fill-rule:nonzero;stroke:none" transform="matrix(1.33333 0 0 -1.33333 0 1056)"></path><path d="M343.445 422.033v15.104h-10.887v-15.104ZM332.558 410.067v-15.098h10.887v15.098zM357.802 410.067v-15.098h10.884v15.098zM368.686 422.033v15.104h-10.884v-15.104ZM383.044 410.067v-15.098h10.892v15.098zM393.936 422.033v15.104h-10.892v-15.104ZM343.445 422.033v-11.966h14.357v11.966zM368.686 422.033v-11.966h14.358v11.966zM332.558 422.033H318.36v-11.966h14.198zM393.936 422.033v-11.966h14.197v11.966z" style="fill:#fff;fill-opacity:1;fill-rule:nonzero;stroke:none" transform="matrix(1.33333 0 0 -1.33333 0 1056)"></path><path d="M332.558 422.033v-11.966h10.887v11.966zM357.802 422.033v-11.966h10.884v11.966zM383.044 410.067h10.892v11.966h-10.892z" style="fill:#eb222c;fill-opacity:1;fill-rule:nonzero;stroke:none" transform="matrix(1.33333 0 0 -1.33333 0 1056)"></path><path d="M272.05 569.259v-15.737s-.221-2.714 5.317-2.386c2.392 0 2.822-1.412 2.822-1.412s.433 1.412 2.825 1.412c5.527-.328 5.316 2.386 5.316 2.386v15.737z" style="fill:#fff200;fill-opacity:1;fill-rule:evenodd;stroke:none" transform="matrix(1.33333 0 0 -1.33333 0 1056)"></path><path d="M288.33 569.417h-16.437v-15.895c-.002-.018-.053-.732.61-1.408.872-.893 2.513-1.275 4.873-1.135 2.224-.001 2.647-1.25 2.663-1.302l.15-.472.153.472c.015.052.44 1.3 2.672 1.3 2.345-.138 3.984.244 4.86 1.135.663.677.615 1.392.612 1.422l.002 15.883zm-.157-.316v-15.617c0-.146-.034-.659-.532-1.158-.558-.564-1.81-1.2-4.617-1.033h-.002c-1.828 0-2.559-.785-2.832-1.228-.271.443-1 1.23-2.822 1.23-2.823-.168-4.077.468-4.633 1.032-.492.498-.528 1.01-.528 1.148l.003 15.626z" style="fill:#231f20;fill-opacity:1;fill-rule:evenodd;stroke:none" transform="matrix(1.33333 0 0 -1.33333 0 1056)"></path><path d="M272.05 496.825v-15.737s-.221-2.713 5.317-2.387c2.392 0 2.822-1.411 2.822-1.411s.433 1.411 2.825 1.411c5.527-.326 5.316 2.387 5.316 2.387v15.737z" style="fill:#fff200;fill-opacity:1;fill-rule:evenodd;stroke:none" transform="matrix(1.33333 0 0 -1.33333 0 1056)"></path><path d="M288.33 496.983h-16.437v-15.895c-.002-.017-.053-.732.61-1.408.872-.892 2.513-1.275 4.873-1.136 2.224-.001 2.647-1.247 2.663-1.3l.15-.472.153.471c.015.054.44 1.3 2.672 1.3 2.347-.138 3.984.244 4.86 1.136.663.676.615 1.392.612 1.422l.002 15.882zm-.157-.316V481.05c0-.146-.034-.658-.53-1.16-.558-.56-1.812-1.197-4.619-1.032h-.002c-1.828 0-2.559-.783-2.832-1.227-.271.444-1 1.228-2.822 1.228-2.823-.166-4.077.47-4.633 1.033-.492.5-.528 1.01-.528 1.149l.003 15.626z" style="fill:#231f20;fill-opacity:1;fill-rule:evenodd;stroke:none" transform="matrix(1.33333 0 0 -1.33333 0 1056)"></path><path d="M272.05 426.526V410.79s-.221-2.713 5.317-2.387c2.392 0 2.822-1.41 2.822-1.41s.433 1.41 2.825 1.41c5.527-.326 5.316 2.387 5.316 2.387v15.736z" style="fill:#fff200;fill-opacity:1;fill-rule:evenodd;stroke:none" transform="matrix(1.33333 0 0 -1.33333 0 1056)"></path><path d="M288.33 426.685h-16.437V410.79c-.002-.018-.053-.733.61-1.408.872-.893 2.513-1.275 4.873-1.135 2.224 0 2.647-1.249 2.663-1.302l.15-.471.153.47c.015.054.44 1.302 2.672 1.302 2.347-.14 3.984.242 4.86 1.135.663.675.615 1.391.612 1.42l.002 15.884zm-.157-.315v-15.618c0-.146-.034-.66-.53-1.16-.558-.561-1.812-1.197-4.619-1.032h-.002c-1.828 0-2.559-.783-2.832-1.226-.271.443-1 1.227-2.822 1.227-2.823-.166-4.077.47-4.633 1.034-.492.498-.528 1.009-.528 1.148l.003 15.627z" style="fill:#231f20;fill-opacity:1;fill-rule:evenodd;stroke:none" transform="matrix(1.33333 0 0 -1.33333 0 1056)"></path><path d="M218.871 569.259v-15.737s-.22-2.714 5.317-2.386c2.39 0 2.823-1.412 2.823-1.412s.432 1.412 2.823 1.412c5.528-.328 5.317 2.386 5.317 2.386v15.737z" style="fill:#fff200;fill-opacity:1;fill-rule:evenodd;stroke:none" transform="matrix(1.33333 0 0 -1.33333 0 1056)"></path><path d="M235.15 569.417h-16.436v-15.895c-.002-.018-.053-.732.61-1.408.871-.893 2.513-1.275 4.873-1.135 2.224-.001 2.645-1.25 2.664-1.302l.15-.472.15.472c.016.052.44 1.3 2.672 1.3 2.348-.138 3.986.244 4.86 1.135.665.677.617 1.392.615 1.422v15.883zm-.16-.316.003-15.617c0-.146-.037-.659-.533-1.158-.558-.564-1.812-1.2-4.619-1.033-1.827 0-2.558-.785-2.831-1.228-.273.443-1.002 1.23-2.823 1.23-2.822-.168-4.074.468-4.632 1.032-.493.498-.53 1.01-.53 1.148l.002 15.626z" style="fill:#231f20;fill-opacity:1;fill-rule:evenodd;stroke:none" transform="matrix(1.33333 0 0 -1.33333 0 1056)"></path><path d="M218.871 496.825v-15.737s-.22-2.713 5.317-2.387c2.39 0 2.823-1.411 2.823-1.411s.432 1.411 2.823 1.411c5.528-.326 5.317 2.387 5.317 2.387v15.737z" style="fill:#fff200;fill-opacity:1;fill-rule:evenodd;stroke:none" transform="matrix(1.33333 0 0 -1.33333 0 1056)"></path><path d="M235.15 496.983h-16.436v-15.895c-.002-.017-.053-.732.61-1.408.871-.892 2.511-1.275 4.873-1.136 2.224-.001 2.645-1.247 2.664-1.3l.15-.472.15.471c.016.054.44 1.3 2.672 1.3 2.348-.138 3.986.244 4.863 1.136.662.676.614 1.392.612 1.422v15.882zm-.16-.316.003-15.617c0-.146-.037-.658-.533-1.16-.558-.56-1.812-1.197-4.619-1.032-1.827 0-2.558-.783-2.831-1.227-.273.444-1.002 1.228-2.823 1.228-2.822-.166-4.074.47-4.632 1.033-.493.5-.53 1.011-.53 1.149l.002 15.626z" style="fill:#231f20;fill-opacity:1;fill-rule:evenodd;stroke:none" transform="matrix(1.33333 0 0 -1.33333 0 1056)"></path><path d="M218.871 426.526V410.79s-.22-2.713 5.317-2.387c2.39 0 2.823-1.41 2.823-1.41s.432 1.41 2.823 1.41c5.528-.326 5.317 2.387 5.317 2.387v15.736z" style="fill:#fff200;fill-opacity:1;fill-rule:evenodd;stroke:none" transform="matrix(1.33333 0 0 -1.33333 0 1056)"></path><path d="M235.15 426.685h-16.436V410.79c-.002-.018-.053-.733.61-1.408.871-.893 2.511-1.275 4.873-1.135 2.224 0 2.645-1.249 2.664-1.302l.15-.471.15.47c.016.054.44 1.302 2.672 1.302 2.348-.14 3.986.242 4.863 1.135.662.675.614 1.391.612 1.42v15.884zm-.16-.315.003-15.618c0-.146-.037-.66-.533-1.16-.558-.561-1.812-1.197-4.619-1.032-1.827 0-2.558-.783-2.831-1.226-.273.443-1.002 1.227-2.823 1.227-2.822-.166-4.074.47-4.632 1.034-.493.498-.53 1.01-.53 1.148l.002 15.627z" style="fill:#231f20;fill-opacity:1;fill-rule:evenodd;stroke:none" transform="matrix(1.33333 0 0 -1.33333 0 1056)"></path><path d="M302.68 316.615a62 62 0 0 1-6.032-.318q-.104-.014-.207-.03c-11.122-1.924-19.023-5.268-19.354-5.409q.11.047.224.087a22.55 22.55 0 0 1-12.968-11.551 22.53 22.53 0 0 1-1-17.335c3.419-9.817 14.184-15.024 24-11.606a15.68 15.68 0 0 1 9.018 8.033 15.67 15.67 0 0 1 .696 12.057 13.23 13.23 0 0 1-6.782 7.613 13.24 13.24 0 0 1-10.179.588 3.496 3.496 0 1 1 2.299-6.603 6.3 6.3 0 0 0 4.836-.28 6.3 6.3 0 0 0 3.222-3.616 8.73 8.73 0 0 0-.388-6.716 8.73 8.73 0 0 0-5.022-4.472c-6.173-2.149-12.948 1.126-15.097 7.3a15.7 15.7 0 0 0-.881 5.172c0 2.334.528 4.657 1.575 6.82a15.6 15.6 0 0 0 8.97 7.993q.113.037.222.084c.074.033 7.486 3.153 17.705 4.932.308.032 2.514.256 5.166.265 2.685.01 4.98-.408 5.003-.412 9.791-1.799 16.802-4.754 16.871-4.785q.11-.046.222-.084a15.6 15.6 0 0 0 8.972-7.994 15.59 15.59 0 0 0 .69-11.99 11.78 11.78 0 0 0-6.037-6.779 11.78 11.78 0 0 0-9.059-.522c-2.217.771-4 2.359-5.021 4.472a8.73 8.73 0 0 0-.389 6.715 6.3 6.3 0 0 0 3.223 3.617 6.3 6.3 0 0 0 4.837.28 3.493 3.493 0 0 1 4.45 2.152 3.495 3.495 0 0 1-2.15 4.451c-6.939 2.415-14.551-1.263-16.963-8.201a15.67 15.67 0 0 1 .697-12.058 15.68 15.68 0 0 1 9.017-8.032 18.72 18.72 0 0 1 14.403.831 18.73 18.73 0 0 1 9.596 10.775 22.53 22.53 0 0 1-.998 17.333 22.55 22.55 0 0 1-12.97 11.553q.115-.039.225-.087c-.312.133-7.75 3.28-18.345 5.228-.107.021-2.924.54-6.297.53" style="fill:#f68712;fill-opacity:1;fill-rule:nonzero;stroke:none" transform="matrix(1.33333 0 0 -1.33333 0 1056)"></path><path d="M418.666 352.313q.12.014.24.016c-.775-.021-19.205-.643-37.557-9.035l-2.8-1.292c-18.3-8.538-30.725-22.167-31.243-22.743q.08.09.166.173c-9.97-9.626-10.251-25.57-.628-35.541 7.968-8.255 21.167-8.489 29.423-.52a17.22 17.22 0 0 1 5.295 12.173 17.22 17.22 0 0 1-4.862 12.351 14.47 14.47 0 0 1-10.226 4.454 14.5 14.5 0 0 1-10.383-4.087 3.498 3.498 0 0 1 4.858-5.032 7.53 7.53 0 0 0 5.4 2.126 7.53 7.53 0 0 0 5.32-2.316 10.28 10.28 0 0 0 2.902-7.373 10.3 10.3 0 0 0-3.159-7.266c-5.482-5.29-14.247-5.134-19.537.346-6.945 7.198-6.742 18.706.454 25.654q.086.083.165.171c.118.131 12.04 13.175 28.998 21.086l2.777 1.281c17.006 7.778 34.667 8.396 34.842 8.4q.119.005.239.016c9.955.975 18.85-6.33 19.825-16.286.74-7.58-4.822-14.352-12.404-15.097-5.68-.556-10.755 3.614-11.313 9.295a7.53 7.53 0 0 0 1.687 5.55 7.54 7.54 0 0 0 5.12 2.735 3.496 3.496 0 1 1-.681 6.959 14.48 14.48 0 0 1-9.842-5.254 14.48 14.48 0 0 1-3.243-10.674c.934-9.517 9.437-16.5 18.954-15.57 11.417 1.12 19.798 11.321 18.68 22.739-1.35 13.792-13.673 23.914-27.467 22.562" style="fill:#f68712;fill-opacity:1;fill-rule:nonzero;stroke:none" transform="matrix(1.33333 0 0 -1.33333 0 1056)"></path><path d="M420.735 547.056q.11.162.238.31c-.81-.946-3.818-5.078-3.818-14.091 0-14.143 7.41-40.31 42.325-85.053 1.187-1.817 27.848-43.079 27.848-74.372 0-4.3-.505-8.41-1.646-12.205-2.586-8.582-8.135-14.583-16.955-18.353-.974-.324-12.425-3.979-21.264.544-4.497 2.3-7.663 6.469-9.407 12.387-.553 1.87-.892 4.183-.892 6.603 0 3.496.706 7.22 2.491 10.178 2.044 3.38 5.364 5.555 9.858 6.475.571.061 5.907.568 9.24-2.15 1.639-1.34 2.533-3.305 2.731-6.008.192-2.625-.157-7.333-2.69-8.327a3.495 3.495 0 1 1 2.556-6.508c7.426 2.916 7.319 12.484 7.108 15.347-.344 4.682-2.137 8.364-5.328 10.948-5.882 4.761-14.335 3.663-14.692 3.614q-.105-.014-.21-.036c-6.456-1.29-11.488-4.659-14.558-9.74-4.424-7.325-4.015-16.63-2.322-22.374 2.313-7.847 6.68-13.451 12.973-16.656 11.9-6.059 26.26-1.063 26.865-.847q.098.036.194.075c10.75 4.567 17.815 12.244 20.999 22.818 10.538 35.006-25.58 90.198-27.123 92.532q-.075.114-.16.223c-53.876 68.986-38.905 90.301-38.747 90.508.038.05.14.184.174.236 5.686 8.39 16.811 7.684 18.092 7.574 1.12-.33 7.349-2.346 9.41-6.941q.648-1.448.647-3.141c0-1.842-.574-3.897-1.723-6.146-2.873-5.625-12.428-5.393-15.07-4.291a3.497 3.497 0 0 1-2.69-6.456c5.63-2.347 19.203-1.804 23.989 7.566 2.87 5.624 3.277 10.796 1.208 15.371-3.661 8.098-13.84 10.771-14.27 10.88a3 3 0 0 1-.44.082c-.671.082-16.518 1.861-24.94-10.576" style="fill:#f68712;fill-opacity:1;fill-rule:nonzero;stroke:none" transform="matrix(1.33333 0 0 -1.33333 0 1056)"></path><path d="M460.7 510.58c-.82-.477-19.907-12.123-8.73-49.14 11.372-37.661 2.549-61.955 2.46-62.195a3.5 3.5 0 0 1 2.034-4.503 3.49 3.49 0 0 1 4.502 2.021c.407 1.067 9.811 26.582-2.301 66.699-9.48 31.396 4.974 40.719 5.595 41.1 1.63 1.004 2.168 3.144 1.182 4.786a3.48 3.48 0 0 1-4.743 1.233M418.459 489.921c-.08-.224-7.798-22.639 11.818-38.734 6.406-5.253 9.903-10.748 10.395-16.33.586-6.648-3.39-11.38-3.429-11.426a3.507 3.507 0 0 1 .36-4.924 3.487 3.487 0 0 1 4.909.325c.242.276 5.924 6.865 5.138 16.49-.619 7.58-4.97 14.737-12.936 21.272-15.74 12.914-9.921 30.254-9.665 30.986a3.503 3.503 0 0 1-2.135 4.454 3.49 3.49 0 0 1-4.455-2.113M170.917 346.723c-5.188-4.263-8.406-10.29-9.06-16.97-1.118-11.419 7.262-21.62 18.68-22.74 9.517-.931 18.02 6.053 18.954 15.57a14.48 14.48 0 0 1-3.243 10.674 14.48 14.48 0 0 1-9.842 5.254 3.495 3.495 0 1 1-.681-6.96 7.54 7.54 0 0 0 5.12-2.734 7.54 7.54 0 0 0 1.687-5.55c-.558-5.681-5.633-9.851-11.314-9.295-7.58.745-13.144 7.516-12.403 15.098a18.02 18.02 0 0 0 6.54 12.248 18.03 18.03 0 0 0 13.286 4.037c.078-.008.16-.013.237-.016.177-.004 17.836-.622 34.854-8.404l2.78-1.283c16.944-7.905 28.865-20.949 28.983-21.08.052-.058.11-.116.165-.17 7.197-6.949 7.4-18.457.453-25.655-5.289-5.48-14.052-5.636-19.535-.346-4.106 3.964-4.223 10.532-.258 14.639a7.54 7.54 0 0 0 5.32 2.316 7.53 7.53 0 0 0 5.401-2.126 3.498 3.498 0 0 1 4.857 5.032 14.5 14.5 0 0 1-10.381 4.087 14.48 14.48 0 0 1-10.229-4.454 17.23 17.23 0 0 1-4.86-12.351 17.22 17.22 0 0 1 5.295-12.173c8.256-7.969 21.455-7.735 29.422.519 9.625 9.972 9.343 25.916-.627 35.542q.085-.084.166-.173c-.519.576-12.943 14.205-31.23 22.736l-2.803 1.293c-18.362 8.398-36.793 9.02-37.568 9.041q.12-.003.24-.016c-6.681.657-13.219-1.33-18.406-5.59" style="fill:#f68712;fill-opacity:1;fill-rule:nonzero;stroke:none" transform="matrix(1.33333 0 0 -1.33333 0 1056)"></path><path d="M162.314 557.632a3 3 0 0 1-.439-.081c-.431-.11-10.61-2.783-14.271-10.881-2.07-4.575-1.663-9.747 1.208-15.37 4.785-9.37 18.358-9.914 23.99-7.567a3.498 3.498 0 0 1-2.691 6.456c-2.643-1.102-12.199-1.334-15.07 4.29-1.149 2.25-1.724 4.305-1.724 6.147q0 1.694.648 3.14c2.06 4.596 8.29 6.612 9.41 6.942 1.28.11 12.405.816 18.09-7.574a7 7 0 0 1 .176-.236c.157-.207 15.129-21.522-38.747-90.508a4 4 0 0 1-.16-.223c-1.544-2.334-37.661-57.526-27.123-92.532 3.183-10.574 10.249-18.251 21-22.818q.095-.039.193-.075c.606-.216 14.965-5.212 26.865.847 6.294 3.205 10.66 8.808 12.974 16.656 1.692 5.743 2.1 15.049-2.323 22.374-3.07 5.081-8.104 8.45-14.557 9.74q-.106.022-.21.036c-.358.048-8.811 1.147-14.693-3.614-3.192-2.584-4.985-6.266-5.329-10.948-.21-2.863-.318-12.43 7.108-15.347a3.496 3.496 0 1 1 2.556 6.508c-2.532.994-2.882 5.702-2.69 8.327.199 2.703 1.093 4.668 2.732 6.007 3.333 2.719 8.67 2.212 9.24 2.15 4.494-.92 7.814-3.093 9.857-6.474 1.786-2.958 2.492-6.682 2.492-10.178 0-2.42-.34-4.732-.891-6.603-1.746-5.918-4.91-10.086-9.409-12.387-8.838-4.523-20.288-.868-21.262-.544-8.821 3.77-14.37 9.771-16.955 18.353-1.144 3.794-1.647 7.906-1.647 12.205 0 31.293 26.66 72.555 27.847 74.372 34.917 44.744 42.326 70.91 42.326 85.053 0 9.013-3.007 13.145-3.817 14.091a3 3 0 0 0 .236-.31c-8.424 12.436-24.27 10.658-24.94 10.576" style="fill:#f68712;fill-opacity:1;fill-rule:nonzero;stroke:none" transform="matrix(1.33333 0 0 -1.33333 0 1056)"></path><path d="M142.547 509.348c-.984-1.642-.447-3.784 1.183-4.786.62-.381 15.076-9.704 5.595-41.1-12.112-40.117-2.708-65.632-2.302-66.699a3.49 3.49 0 0 1 4.503-2.02 3.5 3.5 0 0 1 2.035 4.502c-.09.24-8.913 24.534 2.459 62.195 11.177 37.017-7.912 48.662-8.73 49.14a3.48 3.48 0 0 1-4.743-1.232M185.076 492.034a3.5 3.5 0 0 1-2.135-4.454c.256-.732 6.075-18.072-9.665-30.986-7.964-6.535-12.317-13.692-12.936-21.272-.786-9.625 4.896-16.214 5.139-16.49a3.486 3.486 0 0 1 4.908-.325 3.51 3.51 0 0 1 .36 4.924c-.04.046-4.016 4.778-3.43 11.425.494 5.583 3.991 11.078 10.395 16.332 19.616 16.094 11.899 38.509 11.819 38.733a3.49 3.49 0 0 1-4.455 2.113" style="fill:#f68712;fill-opacity:1;fill-rule:nonzero;stroke:none" transform="matrix(1.33333 0 0 -1.33333 0 1056)"></path><path d="m133.792 235.14 39.643 20.39 7.596-14.768-24.614-12.66 7.396-14.38 24.615 12.66 7.596-14.769-24.615-12.66 18.458-35.886-15.028-7.73zM343.058 183.188l-11.96-11.383q-12.203 12.796-27.46 12.797-12.876 0-21.692-8.734t-8.816-21.532q0-8.917 3.903-15.831 3.906-6.915 11.045-10.856 7.139-3.943 15.866-3.942 7.442 0 13.605 2.758t13.549 10.039l11.592-12.13q-9.947-9.741-18.797-13.508T303.69 107.1q-20.936 0-34.272 13.248-13.334 13.247-13.334 33.96-.001 13.399 6.073 23.817 6.07 10.414 17.393 16.75 11.321 6.336 24.384 6.336 11.108 0 21.392-4.69 10.284-4.687 17.73-13.332M438.913 256.93l16.694-4.42 10.404-95.582-17.174 4.545-2.046 19.681-35.552 9.41-11.713-16.039-17.172 4.543zm2.278-25.228-19.61-26.696 23.374-6.187z" style="fill:#fff;fill-opacity:1;fill-rule:nonzero;stroke:none" transform="matrix(1.33333 0 0 -1.33333 0 1056)" data-source="https://football-logos.cc"></path><!-- source: https://football-logos.cc --></svg>