<svg xmlns="http://www.w3.org/2000/svg" viewBox="4.39 127.7 586.5 586.49"><!-- Source: https://football-logos.cc --><path d="M296.72 713.163 5.412 421.88l-1.025-1.025 1.031-1.031 291.262-291.1 1.023-1.022 1.027 1.027 291.137 291.207 1.02 1.022-1.02 1.022-291.091 291.177-1.03 1.03z" style="fill:#fff;fill-opacity:1;fill-rule:evenodd" data-source="https://football-logos.cc"></path><path d="M335.848 484.036c-3.326 0-5.149-3.134-5.24-7.07 0-3.414 2.916-4.94 4.921-4.94 3.144 0 4.876 2.61 4.876 5.783 0 3.415-1.595 6.226-4.557 6.226m8.02-26.953c-16.403 0-19.958 11.368-19.958 18.316 0 7.432 4.192 12.935 11.983 12.935 6.97 0 11.208-5.062 11.208-10.805 0-6.066-4.1-9.64-9.431-9.64-2.961 0-5.33 1.084-6.834 2.69-.32 0 1.048-7.632 10.069-8.717 1.14-.12 2.096-.2 2.962-.2zM307.189 482.95v-.08l2.87-2.49c5.013-4.472 9.158-8.897 9.158-14.293 0-4.947-3.371-9.085-10.752-9.085-3.964 0-7.518 1.286-9.66 2.732l1.868 4.258c1.594-1.045 3.92-2.21 6.425-2.21 3.781 0 5.376 2.21 5.376 4.867 0 4.105-3.828 8.014-10.342 13.972l-3.828 3.616v3.655h21.552v-4.941zM282.768 461.22c3.236 0 4.784 3.22 4.784 7.298 0 1.164-.09 1.773-.364 2.215-.73 1.172-2.277 2.297-4.328 2.297-2.734 0-4.648-2.176-4.648-5.764 0-3.468 1.823-6.046 4.556-6.046m-8.429 27.074c13.851.562 20.048-7.913 20.048-18.445 0-7.303-3.873-12.847-11.39-12.847-7.018 0-11.483 5.102-11.483 10.786s4.193 9.259 9.523 9.259c2.87 0 5.012-.924 6.47-2.37l.137.04c-1.003 4.619-4.283 8.275-9.978 8.797-2.142.16-2.46.2-3.327.12zM262.082 457.525h-5.65l-8.383 3.776 1.457 4.257 5.924-2.73h.091v25.064h6.561z" style="fill:#fff;fill-rule:evenodd"></path><path d="M231.342 578.752h-15.474l-16.983-16.65v-15.687c0-8.397 6.87-15.266 15.266-15.266h1.925c8.396 0 15.266 6.87 15.266 15.266z" style="fill:none"></path><path d="M273.504 578.752h-32.457v-32.337c0-8.397 6.87-15.266 15.266-15.266h1.925c8.397 0 15.266 6.87 15.266 15.266zM315.666 578.752H283.21v-32.337c0-8.397 6.87-15.266 15.266-15.266h1.926c8.396 0 15.265 6.87 15.265 15.266zM357.829 578.752h-32.457v-32.337c0-8.397 6.87-15.266 15.265-15.266h1.926c8.396 0 15.266 6.87 15.266 15.266zM378.15 578.752h-10.253v-32.337c0-8.397 6.87-15.266 15.266-15.266h1.926c8.396 0 15.265 6.87 15.265 15.266v10.998z" style="fill:none;stroke:#1b1918;stroke-width:.21600001;stroke-linecap:butt;stroke-linejoin:miter;stroke-dasharray:none"></path><path d="m285.565 645.033 8.617 8.61h6.383l8.607-8.61zM278.905 638.377h36.92l8.607-8.61h-54.144zM262.9 622.384h68.912l8.606-8.61h-86.135zM246.895 606.392h100.903l8.607-8.61H238.278ZM230.163 589.672H364.51l10.06-10.063h-154.48ZM241.047 575.134v-12.245h-9.705v12.245zM273.504 562.89v12.244h9.705v-12.245zM315.666 562.89v12.244h9.706v-12.245zM357.829 562.89v12.244h10.068v-12.245zM198.885 558.418v-12.003q0-.675.058-1.336h-13.408zM231.342 546.415v12h9.705v-12q0-.675.058-1.336h-9.821q.058.66.058 1.336M273.504 546.415v12h9.705v-12q0-.675.059-1.336h-9.822q.058.66.058 1.336M315.666 546.415v12h9.706v-12q0-.675.058-1.336h-9.822q.058.66.058 1.336M357.829 546.415v12h10.068v-12q0-.675.059-1.336H357.77q.059.66.059 1.336M400.354 546.415v7.401l8.734-8.737h-8.792q.058.66.058 1.336M200.365 539.877c2.46-5.149 7.725-8.728 13.785-8.728h1.926c6.06 0 11.326 3.58 13.786 8.728h12.665c2.46-5.149 7.725-8.728 13.786-8.728h1.925c6.06 0 11.326 3.58 13.786 8.728h12.665c2.46-5.149 7.726-8.728 13.786-8.728h1.926c6.06 0 11.325 3.58 13.785 8.728h12.666c2.46-5.149 7.725-8.728 13.785-8.728h1.926c6.06 0 11.326 3.58 13.786 8.728h13.028c2.46-5.149 7.726-8.728 13.786-8.728h1.926c6.06 0 11.325 3.58 13.785 8.728h15.413l11.514-11.517H168.804l11.526 11.517zM160.687 520.25h273.22l13.981-13.986v-.44H146.28v.03z" style="fill:#fff;fill-rule:evenodd"></path><path d="M231.342 558.414v-12q0-.674-.058-1.335a15.1 15.1 0 0 0-1.422-5.202c-2.46-5.149-7.725-8.728-13.786-8.728h-1.925c-6.06 0-11.326 3.58-13.786 8.728a15.1 15.1 0 0 0-1.48 6.538v12.003l20.349 20.334h12.108V562.89zM241.047 558.414v20.337999999999997h32.457v-32.338q0-.674-.058-1.335a15.1 15.1 0 0 0-1.422-5.202c-2.46-5.149-7.725-8.728-13.786-8.728h-1.925c-6.06 0-11.326 3.58-13.786 8.728a15.1 15.1 0 0 0-1.48 6.538zM283.21 558.414v20.337999999999997h32.456v-32.338q0-.674-.058-1.335a15.1 15.1 0 0 0-1.422-5.202c-2.46-5.149-7.725-8.728-13.785-8.728h-1.926c-6.06 0-11.326 3.58-13.785 8.728a15.1 15.1 0 0 0-1.48 6.538zM325.372 558.414v20.337999999999997h32.457v-32.338q0-.674-.059-1.335a15.1 15.1 0 0 0-1.421-5.202c-2.46-5.149-7.726-8.728-13.786-8.728h-1.926c-6.06 0-11.325 3.58-13.785 8.728a15.1 15.1 0 0 0-1.48 6.538zM367.897 546.415v32.337h7.53l24.927-24.936v-7.401q0-.675-.058-1.336a15.1 15.1 0 0 0-1.422-5.202c-2.46-5.149-7.725-8.728-13.785-8.728h-1.926c-6.06 0-11.326 3.58-13.785 8.728a15.1 15.1 0 0 0-1.48 6.538M300.565 653.643h-6.383l3.193 3.19zM285.565 645.033h23.607l6.653-6.656h-36.92zM270.288 629.767h54.144l7.38-7.383H262.9zM254.283 613.775h86.136l7.38-7.383H246.894ZM238.278 597.782h118.127l8.106-8.11H230.163Z" style="fill:#211d1d;fill-rule:evenodd"></path><path d="M220.091 579.609h154.48l.857-.857h-7.53v-3.618h-10.07v3.618h-32.456v-3.618h-9.706v3.618H283.21v-3.618h-9.705v3.618h-32.457v-3.618h-9.705v3.618h-12.108ZM241.047 562.89v-4.476h-9.705v4.475zM273.504 558.414v4.475h9.705v-4.475zM315.666 558.414v4.475h9.706v-4.475zM357.829 558.414v4.475h10.068v-4.475zM198.943 545.08c.162-1.847.656-3.6 1.422-5.203H180.33l5.205 5.202zM229.862 539.877a15.1 15.1 0 0 1 1.422 5.202h9.821c.162-1.845.656-3.6 1.422-5.202zM272.024 539.877a15.1 15.1 0 0 1 1.422 5.202h9.822c.162-1.845.655-3.6 1.421-5.202zM314.186 539.877a15.1 15.1 0 0 1 1.422 5.202h9.822c.162-1.845.655-3.6 1.422-5.202zM356.349 539.877a15.1 15.1 0 0 1 1.421 5.202h10.186c.162-1.845.655-3.6 1.421-5.202zM398.874 539.877a15.1 15.1 0 0 1 1.422 5.202h8.792l5.2-5.202zM168.804 528.36h256.998l8.106-8.11h-273.22Z" style="fill:#211d1d;fill-rule:evenodd"></path><path d="m362.913 469.45.015-24.457 11.176-11.056.151-23.065-11.213-.03-.003 9.467-10.045-.003.056-9.077-11.237-.027-.035 18.857-18.499-.018.087-19.646 9.32-10.426.03-29.503-16.683.091.053 14.697-11.088.072.118-14.958-14.73.156-.045 14.609-11.543.067v-14.661l-16.33.022.1 29.994 9.156 9.602.004 19.693-18.278.207-.027-18.927-11.253-.023.043 9.294-10.166.027-.081-9.413-11.31.065.049 22.34 11.645 11.964-.038 23.917-56.79-.063-36.305 37.085h316.578l-36.589-36.8z" style="fill:none"></path><path d="M290.74 416.296h14.545v11.66H290.74z" style="fill:#fff;fill-rule:evenodd" data-source="https://football-logos.cc"></path><path d="M290.74 427.957v-11.661h14.545v11.66zm-144.46 77.897 151.095 150.98 150.513-150.57v-.44H146.28Zm305.544-3.527.108-.108 3.884 4.112-156.513 156.263-1.926 1.926-1.918-1.916L139.217 506.32l3.804-3.724-3.718 3.64 36.219-36.998 56.79.063.038-23.917-11.645-11.964-.048-22.34 11.31-.064.08 9.412 10.167-.027-.043-9.294 11.253.023.026 18.927 18.278-.207-.004-19.693-9.155-9.602-.1-29.994 16.33-.022v14.66l11.542-.066.045-14.61 14.73-.155-.118 14.958 11.088-.072-.053-14.697 16.683-.091-.03 29.503-9.32 10.426-.086 19.646 18.498.018.036-18.857 11.237.027-.056 9.077 10.044.003.003-9.467 11.214.03-.151 23.065-11.176 11.056-.016 24.457 56.294.074zM255.52 487.892v-25.065h-.091l-5.924 2.731-1.457-4.257 8.383-3.776h5.65v30.367zm25.516-10.845c-5.33 0-9.522-3.575-9.522-9.26 0-5.683 4.464-10.785 11.481-10.785 7.518 0 11.39 5.544 11.39 12.847 0 10.532-6.196 19.007-20.047 18.445v-4.66c.866.08 1.185.04 3.327-.12 5.695-.522 8.975-4.178 9.978-8.797l-.137-.04c-1.458 1.446-3.6 2.37-6.47 2.37m21.095 3.574c6.514-5.958 10.342-9.867 10.342-13.972 0-2.657-1.594-4.866-5.376-4.866-2.506 0-4.83 1.164-6.425 2.209l-1.867-4.258c2.14-1.446 5.695-2.732 9.659-2.732 7.38 0 10.753 4.138 10.753 9.085 0 5.397-4.146 9.821-9.16 14.294l-2.87 2.49v.08h12.668v4.94h-21.552v-3.654zm21.778-5.221c0-6.95 3.554-18.317 19.957-18.317v4.579c-.866 0-1.822.08-2.962.2-9.021 1.085-10.388 8.717-10.069 8.717 1.503-1.606 3.872-2.69 6.834-2.69 5.331 0 9.431 3.574 9.431 9.64 0 5.743-4.237 10.805-11.208 10.805-7.79 0-11.983-5.503-11.983-12.934" style="fill:#211d1d;fill-rule:evenodd"></path><path d="m54.12 420.496 76.815-76.691-.663 152.726z" style="fill:none"></path><path d="M130.935 343.805 54.12 420.496l76.151 76.036zM464.84 343.805l76.813 76.691-76.151 76.036zM244.87 340.262h-83.875l-.011-1.06 62.146-61.878.098 34.617 17.459-.06.186-76.843-97.194 96.864-.032 25.704 83.892.093.008 3.19-64.729 64.888.087-43.071-17.874.2.074 84.869 99.764-99.84zM259.266 218.855l39.083-39.278 39.836 39.638-12.502 12.381-27.243-27.514-21.458 21.573-.023 58.568 21.322 21.334 27.743-27.964 12.641 12.546-40.45 40.09-38.89-38.887zM356.01 238.933l51.513 85.83 30.291-5.722 9.556 9.305v144.036l-17.542-16.709.064-117.401-31.175 5.908-25.07-41.985-.061 96.855-17.576-17.171z" style="fill:#211d1d;fill-rule:evenodd"></path><path d="m301.593 149.535 267.402 267.533 3.855 3.848-3.833 3.84L301.456 692.07l-3.853 3.86-3.857-3.86L26.552 424.808l-3.833-3.836 3.855-3.852 267.353-267.585 3.831-3.827zm254.8 271.395L297.82 162.425 38.666 420.92 297.57 680.093Z" style="fill:#211d1d;fill-rule:evenodd"></path><path d="M287.552 468.518c0-4.078-1.548-7.298-4.784-7.298-2.733 0-4.555 2.578-4.555 6.046 0 3.588 1.913 5.764 4.647 5.764 2.05 0 3.599-1.125 4.328-2.297.273-.442.364-1.05.364-2.215M335.53 472.025c-2.006 0-4.922 1.527-4.922 4.941.091 3.936 1.914 7.07 5.24 7.07 2.962 0 4.557-2.812 4.557-6.227 0-3.173-1.732-5.784-4.876-5.784" style="fill:#211d1d;fill-rule:evenodd"></path><path d="m8.493 420.849 289.258 289.233 289.038-289.124L297.702 131.8ZM296.72 713.163 5.412 421.88l-1.025-1.025 1.031-1.031 291.262-291.1 1.023-1.022 1.027 1.027 291.137 291.207 1.02 1.022-1.02 1.022-291.091 291.177-1.03 1.03z" style="fill:#1b1918;fill-rule:evenodd"></path><path d="m220.657 411.08 11.31-.064.08 9.412 10.167-.027-.043-9.294 11.253.023.026 18.927 18.278-.207-.004-19.693-9.155-9.602-.1-29.994 16.33-.022v14.66l11.542-.066.045-14.61 14.73-.155-.118 14.958 11.088-.072-.053-14.697 16.683-.091-.03 29.503-9.32 10.426-.086 19.646 18.498.018.036-18.857 11.237.027-.056 9.077 10.044.003.003-9.467 11.214.03-.151 23.065-11.176 11.056-.016 24.457 56.294.074 32.617 32.803.108-.108 3.864 4.104.02.009-156.512 156.262-1.926 1.927-1.918-1.916-156.241-156.282.093-.095 36.21-36.99 56.79.064.039-23.918-11.645-11.963zm73.089 280.99L26.552 424.807l-3.833-3.836 3.854-3.852 267.354-267.585 3.831-3.827 3.835 3.827 267.402 267.533 3.855 3.848-3.833 3.84L301.456 692.07l-3.853 3.86zM8.493 420.848l289.258 289.233 289.038-289.124L297.702 131.8Zm236.376-52.914-99.764 99.84-.074-84.869 17.874-.2-.087 43.071 64.73-64.889-.009-3.189-83.892-.093.032-25.704 97.194-96.864-.186 76.844-17.46.059-.097-34.617-62.146 61.878.01 1.06h83.875zm-113.934-24.13-.663 152.727-76.151-76.036Zm166.886-181.38L38.666 420.92 297.57 680.093 556.393 420.93Zm75.765 236.625L356.01 381.88V238.933l51.513 85.83 30.291-5.722 9.556 9.305v144.036l-17.542-16.709.064-117.401-31.175 5.908-25.07-41.985zm91.916 97.482-.663-152.727 76.814 76.691zm-206.177-205.19-.06-72.487 39.084-39.278 39.836 39.638-12.502 12.381-27.243-27.514-21.458 21.573-.023 58.568 21.322 21.334 27.743-27.964 12.641 12.546-40.45 40.09z" style="fill:url(#grad2)"></path><path d="M4 127.763V714.92h587.254V127.763Z" style="fill:none" data-source="https://football-logos.cc"></path><!-- source: https://football-logos.cc --></svg>