<svg xmlns="http://www.w3.org/2000/svg" fill="none" viewBox="0 0 180 58"><!-- Source: https://football-logos.cc --><g clip-path="url(#clip0_231_13904)" data-source="https://football-logos.cc"><path fill="#00235a" d="M60.731 18.76C74.856 38.24 71.007 58 71.007 58s-1.935-22.317-18.88-40.57l5.068-2.752C49.952 5.069 39.975 0 39.975 0s15.913 1.65 25.532 16.17zM47.69 20.219l2.253 10.376 6.342 2.122.803-1.006s-3.335-6.137-9.398-11.492m25.845 17.467H77.3V17.854h1.71c.685 0 1.37.166 1.709.333v9.165c-.514.668-1.71 1.336-2.738 1.665v1.998h1.029c2.6 0 5.475-1.135 5.475-4.001v-8.665c0-2.866-2.875-4-5.475-4h-5.476v23.337M92.875 14.02c-2.6 0-5.476 1.135-5.476 4V34.02c0 2.866 2.875 4 5.476 4s5.476-1.134 5.476-4V18.02c0-2.865-2.875-4-5.476-4m1.714 20.166c-.343.167-1.028.334-1.71.334-.68 0-1.37-.167-1.709-.334V17.854c.343-.167 1.03-.334 1.71-.334s1.371.167 1.71.334zm15.335-4.735c1.405-.601 2.463-1.698 2.463-3.434V18.35c0-2.866-2.875-4-5.475-4h-5.476V37.68h3.766V17.85h1.71c.685 0 1.371.167 1.709.334v8.168c-.514.668-1.709 1.335-2.738 1.67v1.997c1.029 1.664 2.052 4 2.909 7.668h3.938c-.788-3.433-1.44-5.532-2.806-8.235m4.006-15.098v3.5h3.766v19.833h3.767V17.854h3.766v-3.5zm21.055 19.833c-.343.167-1.028.334-1.709.334s-1.371-.167-1.709-.334V14.353H127.8V34.02c0 2.866 2.875 4 5.476 4s5.476-1.134 5.476-4V14.353h-3.767zm17.803-16.166c0-2.865-2.875-4-5.475-4-2.601 0-5.476 1.135-5.476 4V34.02c0 2.866 2.875 4 5.476 4s5.475-1.134 5.475-4v-10h-6.161v1.998a5.1 5.1 0 0 1 2.395 1.67v6.499c-.343.167-1.028.334-1.709.334s-1.372-.167-1.709-.334V17.854c.342-.167 1.028-.334 1.709-.334s1.371.167 1.709.334v3.666c1.2-.066 2.738-.2 3.766-.5zm11.295-3.667c-.583-.1-2.224-.166-2.807-.166-.617 0-2.223.066-2.841.166l-3.594 23.333h3.8l2.429-17h.206l1.474 10.334h-2.429l-.343 1.997c1.269.3 2.567.902 3.287 1.536l.445 3.133h3.801l-3.424-23.333zm10.099 0h-3.767v23.333h9.242c.172-.668.343-2.833.343-3.5h-5.818zm-170.416 0H0v23.333h9.242c.171-.668.343-2.833.343-3.5H3.766zm8.042 23.333h3.767V14.353h-3.767zM29.612 18.02c0-2.865-2.875-4-5.476-4s-5.476 1.135-5.476 4V34.02c0 2.866 2.875 4 5.476 4s5.476-1.134 5.476-4v-10H23.45v1.998a5.1 5.1 0 0 1 2.395 1.67v6.499c-.343.167-1.028.334-1.71.334-.68 0-1.37-.167-1.709-.334V17.854c.343-.167 1.03-.334 1.71-.334s1.371.167 1.71.334v3.666c1.2-.066 2.737-.2 3.765-.5zm11.984-3.667c-.583-.1-2.223-.166-2.806-.166-.617 0-2.224.066-2.84.166l-3.596 23.333h3.8l2.43-17h.206l1.474 10.334h-2.43l-.342 1.997c1.268.3 2.566.902 3.286 1.536l.446 3.133h3.8l-3.423-23.333z"></path></g><!-- source: https://football-logos.cc --></svg>