<svg xmlns="http://www.w3.org/2000/svg" viewBox="14.17 165.04 566.93 511.81"><!-- Source: https://football-logos.cc --><path d="M138.427 305.734h328.96v191.645c0 47.188-20.04 87.827-53.715 120.14-28.234 27.093-65.815 47.877-103.33 58.833l-1.69.493-1.715-.414c-89.497-21.62-168.51-93.249-168.51-190.39Z" style="fill:#1b1918;fill-rule:evenodd" data-source="https://football-logos.cc"></path><path d="M179.065 587.443c-20.83-27.892-34.03-61.913-34.03-101.402v-96.466H407.49ZM460.778 435.56v61.819c0 96.538-87.057 153.58-152.288 172.628-26.666-6.44-53.961-18.116-78.42-34.603z" style="fill:#fee72a;fill-rule:evenodd"></path><path d="M460.778 389.575v37.361l-.06-.069L224.472 631.51c-15.36-11.022-29.448-24.002-41.358-38.83l234.47-203.105ZM145.036 312.343h315.742v70.623H145.036Z" style="fill:#007dc2;fill-rule:evenodd"></path><path d="M243.332 230.015c-39.274-5.172-62.635-37.102-97.24-47.859-20.58-6.396-36.933-3.028-59.546-4.32-24.178-1.378-52.685-5.546-69.626-12.5-6.566-2.697-1.375 13.405 15.743 24.262 10.965 6.954 37.669 14.068 49.165 15.634-2.48 4.353-1.204 8.5 3.622 11.833 7.386 5.102 15.43 8.251 23.68 10.854-6.216 5.775-.528 11.778 6.087 14.861 6.62 3.083 19.327 7.98 26.153 9.503-3.96 1.642-4.391 6.512-1.49 9.321.869.84 1.967 1.71 3.24 2.632 4.39 3.187 15.447 9.068 22.082 10.939-14.636 9.204 28.794 29.393 53.147 31.136 21.49 1.54 44.01-3.829 54.806-14.55-10.362-18.763-19.463-42.986-29.823-61.747M515.694 199.131c1.19 1.445 2.088 2.346 2.225 4.146.82 10.844-17.689 17.508-25.545 19.982 2.572 1.423 4.086 3.135 3.284 6.886-1.726 8.062-15.634 13.306-22.129 15.586 2.441.317 3.587 2.335 3.975 3.694.536 5.027-5.778 11.068-10.485 13.832-6.172 3.621-13.088 6.44-20.217 8.381 2.958 1.569 3.014 4.34 1.619 6.943-1.792 3.345-4.911 4.99-8.101 6.673-19.852 10.497-44.698 20.47-66.87 21.564-14.598.722-29.79-2.704-42.59-9.77l-5.282-2.915 26.5-62.239 3.431-.705c17.144-3.521 32.232-10.465 46.988-19.702 19.234-12.04 39.491-30.982 61.176-37.796 16.468-5.175 31.801-4.875 48.757-3.754 14.881.982 49.934 1.534 64.67-1.805 5.212-.726 5.313 1.405.447 5.428-18.593 15.152-44.278 22.615-61.853 25.571" style="fill:#1b1918;fill-rule:evenodd"></path><path d="m348.824 256.596 8.03-18.86c19.819-4.072 35.778-12.19 49.188-20.584 17.225-10.783 40.04-30.928 59.634-37.086 14.044-4.412 26.633-4.882 39.424-4.44-19.483 5.244-38.744 12.928-54.02 23.206-17.437 11.728-32.786 26.321-50.432 37.968-16.175 10.674-32.993 18.056-51.824 19.796" style="fill:#fff;fill-rule:evenodd"></path><path d="M482.97 235.331c-10.887 4.917-20.224 7.639-28.717 9.213-2.928.544-2.33 4.825.676 4.767 5.078-.095 11.394.06 13.783 1.23 2.71 1.327-.891 4.705-5.076 7.162-9.226 5.416-21.595 9.11-39.582 11.534-1.163.156-1.942 3.162 1.04 3.13 4.93-.053 11.225-.445 14.054.975s3.234 3.939-1.654 6.599c-17.248 9.388-40.713 19.034-64.374 20.203-13.418.664-27.374-2.512-39.03-8.946l11.82-27.76c21.343-1.207 40.273-9.174 58.379-21.122 17.682-11.671 33.039-26.27 50.48-38 20.903-14.063 49.816-23.101 75.9-27.509 9.022.23 18.594.007 29.185-1.526 5.735-.83 10.669-2.755 3.128 2.197-16.221 10.653-45.715 15.546-65.341 18.332-2.869.407-1.544 3.265-.397 3.48 3.067.577 9.027-.19 11.095 1.154 3.448 2.24 2.985 6.577.276 8.54-8.605 6.24-24.063 10.145-38.195 13.327-2.477.558-3.344 3.575 1.262 3.704 4.344.12 10.451-.758 13.575.17 4.59 1.36 2.574 6.95-2.287 9.146" style="fill:#ffe82b;fill-rule:evenodd"></path><path d="M246.937 251.946c-2.492-5.363-5.07-10.681-7.847-15.89-15.564-2.662-29.052-9.245-42.467-17.644-12.623-7.903-24.67-17.125-37.94-23.912-4.685-2.395-9.525-4.47-14.553-6.033-8.717-2.71-17.594-3.54-26.532-3.76 11.434 4.004 22.412 9.44 33.122 16.645 11.953 8.042 22.551 17.73 34.15 26.198 16.92 12.353 40.28 23.483 62.067 24.396" style="fill:#fff;fill-rule:evenodd"></path><path d="M119.902 238.686c11.52 5.368 25.464 10.142 37.54 11.943 2.96.44 1.886 5.124-.886 3.923-7.396-3.203-11.765 2.925-3.871 7.563 9.236 5.429 20.341 9.519 30.547 12.586 1.134.339 1.88 2.927-1.04 2.286-10.141-2.222-14.912 2.816-5.252 8.845 5.872 3.569 12.32 6.333 18.802 8.584 7.148 2.482 15.512 4.76 23.08 5.304 13.414.96 33.902-1.117 45.968-9.572-5.362-10.285-10.006-20.95-14.798-31.53-24.104.06-50.104-11.92-69.02-25.73-11.524-8.413-22.076-18.07-33.942-26.052-17.725-11.924-36.175-18.755-56.34-22.21a154 154 0 0 1-4.52-.19c-15.799-.902-35.498-2.935-52.82-7.072-5.647-1.347-9.933-3.74-3.128 2.197a49.4 49.4 0 0 0 5.98 4.456c16.555 10.5 43.246 15.218 56.843 17.463 1.521.25.499 1.786-.655 2.004-8.188 1.551-4.36 7.394-.02 10.541 8.61 6.245 22.173 9.29 33.574 13.747 2.375.928 1.21 3.346-.42 2.864-10.04-2.967-13.796 4.278-5.622 8.05" style="fill:#ffe82b;fill-rule:evenodd"></path><path d="M302.449 172.049a69.727 69.727 0 0 1 69.624 69.83 69.727 69.727 0 1 1-69.624-69.83" style="fill:#1b1918;fill-rule:evenodd"></path><path d="M284.832 256.681c13.414-16.035 30.6-24.596 49.965-31.475-.409-5.405-1.11-10.497-2.221-15.261-24.91 2.22-50.703 19.068-63.6 40.182 4.809 3.165 10.14 5.457 15.856 6.554m17.607-77.289c-25.511-.037-47.47 15.254-57.169 37.18a59 59 0 0 0 3.468 9.523c14.374-22.857 42.324-40.649 69.385-42.574a48 48 0 0 0-3.397-2.897 62.6 62.6 0 0 0-12.287-1.232m-60.645 47.342a62.5 62.5 0 0 0-1.814 16.575c13.28 25.48 34.366 41.674 64.7 42.604-5.176-8.71-11.697-16.461-19.089-22.402-19.981-2.95-36.082-18.464-43.797-36.777m.944 33.493c7.86 25.41 31.523 43.891 59.516 43.932a63 63 0 0 0 10.481-.866 93 93 0 0 0-4.455-10.726h-.83c-28.356-.003-49.76-12.11-64.712-32.34m76.485 41.62a62 62 0 0 0 13.288-5.46c-5.54-18.53-16.859-36.633-30.22-47.16-3.362 2.709-10.289 9.27-11.168 10.271 12.57 10.6 22.594 25.902 28.1 42.35m19.08-9.092a62.7 62.7 0 0 0 10.03-8.833c-5.542-16.992-16.089-33.064-28.821-43.095l-1.737-1.367a103 103 0 0 0-9.995 5.716c13.418 11.157 24.633 29.018 30.524 47.579m14.92-14.875a62.2 62.2 0 0 0 8.095-15.716c-5.72-12.062-13.994-22.895-23.746-30.576l-.308-.244c-4.383 1.55-8.657 3.187-12.797 4.989 12.386 10.07 22.68 25.216 28.756 41.547m10.565-25.267c.611-3.49.936-7.08.942-10.745a62.2 62.2 0 0 0-3.067-19.446c-.76 6.603-2.345 13.187-4.725 19.755a98 98 0 0 1 6.85 10.436m-8.345-43.589a62.64 62.64 0 0 0-27.29-24.057c8.287 10.535 13.206 24.388 13.342 41.294l.17.133c3.658 2.883 7.118 6.164 10.333 9.76 2.815-9.022 3.996-18.049 3.445-27.13m-31.83-19.613c-25.059.657-55.295 16.469-70.294 41.864l-.929 1.571c3.093 4.954 6.905 9.488 11.293 13.274 13.882-22.289 40.677-39.817 67.054-42.634-1.874-5.492-3.613-9.63-7.124-14.075" style="fill:#9f5232;fill-rule:evenodd"></path><path d="m350.369 450.181 17.803 123.6L381 585.065l-.127 9.684H229.64l-.14-9.8 12.991-11.397 17.768-123.362-10.68-14.391v-23.166h18.065v9.881h4.864v-9.88h18.065v9.879h4.864v-9.88h19.118v9.88h4.864v-9.88h18.906v9.88h4.865v-9.88h17.853V435.8Z" style="fill:#1b1918;fill-rule:evenodd"></path><path d="M254.718 417.773h7.784v9.882h15.145v-9.882h7.784v9.88h15.145v-9.88h8.837v9.88h15.145v-9.88h8.626v9.88h15.145v-9.88h7.572v16.59H254.718ZM257.766 438.206h95.09l-7.344 9.896h-80.403zM234.706 589.609h141.24l-.041-2.18-10.407-9.154H244.901l-10.228 8.974zM265.174 452.117h80.28l17.625 122.362h-115.53Z" style="fill:#9f5233;fill-rule:evenodd"></path><path d="M323.717 578.252c0-9.816-3.442-45.158-18.213-45.158-14.77 0-18.6 35.411-18.6 45.158z" style="fill:#1b1918;fill-rule:evenodd"></path><path d="M318.397 573.111c-.37-5.594-1.282-11.533-2.436-16.643-.95-4.205-4.618-18.233-10.457-18.233q-.609-.002-1.186.19c-7.42 2.478-11.047 23.405-12.007 34.686z" style="fill:#fff;fill-rule:evenodd"></path><path d="M336.903 497.39c0-6.282 1.782-28.895-11.654-28.895s-11.901 22.658-11.901 28.894z" style="fill:#1b1918;fill-rule:evenodd"></path><path d="M331.842 492.249c.035-7.355-.58-18.614-6.593-18.614-6.051 0-6.79 11.248-6.812 18.614z" style="fill:#fff;fill-rule:evenodd"></path><path d="M297.248 497.39c0-6.282 1.783-28.895-11.653-28.895s-11.901 22.658-11.901 28.894z" style="fill:#1b1918;fill-rule:evenodd"></path><path d="M292.187 492.249c.036-7.355-.578-18.614-6.593-18.614-6.05 0-6.79 11.248-6.811 18.614zM248.738 226.095c14.374-22.857 42.324-40.65 69.385-42.574a48 48 0 0 0-3.397-2.897 62.6 62.6 0 0 0-12.287-1.232c-25.511-.037-47.47 15.254-57.169 37.18a59 59 0 0 0 3.468 9.523" style="fill:#fff;fill-rule:evenodd" data-source="https://football-logos.cc"></path><path d="M323.613 189.411c-25.059.657-55.295 16.469-70.294 41.864l-.929 1.571c3.094 4.954 6.905 9.488 11.293 13.274 13.882-22.289 40.677-39.817 67.054-42.634-1.874-5.492-3.613-9.63-7.125-14.075" style="fill:#fff;fill-rule:evenodd"></path><path d="M332.576 209.945c-24.91 2.22-50.703 19.068-63.6 40.182 4.809 3.165 10.14 5.457 15.856 6.554 13.414-16.035 30.6-24.595 49.965-31.475-.409-5.405-1.11-10.497-2.221-15.261" style="fill:#fff;fill-rule:evenodd"></path><path d="M285.591 263.51c-16.736-2.47-30.75-13.756-39.394-28.118a68 68 0 0 1-4.403-8.659 62.5 62.5 0 0 0-1.814 16.576 102 102 0 0 0 4.967 8.526 89 89 0 0 0 5.274 7.288c3.906 4.849 8.247 9.128 13.04 12.765 11.24 8.528 24.97 13.52 41.419 14.025-5.176-8.71-11.697-16.461-19.089-22.402" style="fill:#fff;fill-rule:evenodd"></path><path d="M268.705 283.26a74 74 0 0 1-10.778-7.146c-5.65-4.495-10.709-9.827-15.189-15.887 3.783 12.23 11.228 22.857 21.055 30.593a63 63 0 0 0 5.745 4.023c9.506 5.89 20.713 9.299 32.715 9.316a63 63 0 0 0 10.482-.866 93 93 0 0 0-4.455-10.726h-.83c-14.78-.002-27.671-3.292-38.745-9.307M291.122 259.498c12.57 10.6 22.595 25.902 28.1 42.35a62 62 0 0 0 13.29-5.46 104 104 0 0 0-3.6-10.087c-6.152-14.816-15.705-28.473-26.622-37.073-3.362 2.708-10.288 9.269-11.168 10.27M307.78 245.176c9.8 8.15 18.427 19.876 24.66 32.84a115 115 0 0 1 3.66 8.463c.8 2.077 1.536 4.172 2.204 6.276a62.7 62.7 0 0 0 10.03-8.833 99 99 0 0 0-5.467-13.337 100 100 0 0 0-4.096-7.437c-5.34-8.789-11.938-16.553-19.26-22.321l-1.736-1.367a103 103 0 0 0-9.995 5.716M341.907 255.782a105 105 0 0 1 4.651 7.618 107 107 0 0 1 6.665 14.48 62.2 62.2 0 0 0 8.095-15.716l-.356-.741a94 94 0 0 0-3.231-6.089 92 92 0 0 0-5.05-7.796 87 87 0 0 0-4.721-5.97c-3.212-3.71-6.694-7.071-10.388-9.98l-.308-.244c-4.382 1.55-8.657 3.187-12.797 4.989 6.49 5.276 12.405 11.945 17.44 19.45M341.664 226.394a81 81 0 0 1 9.153 8.465q.595.64 1.18 1.294a84 84 0 0 0 1.27-4.503c1.891-7.523 2.635-15.056 2.176-22.626a62.64 62.64 0 0 0-27.29-24.057c8.287 10.535 13.205 24.388 13.342 41.294zM358.534 237.379a94 94 0 0 1-1.596 4.797 98 98 0 0 1 6.85 10.437 62.8 62.8 0 0 0-.314-23.34 62 62 0 0 0-1.81-6.852 83 83 0 0 1-1.252 7.656 88 88 0 0 1-1.878 7.302" style="fill:#fff;fill-rule:evenodd"></path><path d="M232.62 241.673a70 70 0 0 1 .345-6.888c-13.037-3.18-24.717-9.094-36.342-16.373-12.623-7.903-24.67-17.125-37.94-23.912-4.685-2.395-9.524-4.47-14.553-6.033-8.717-2.71-17.594-3.541-26.532-3.76 11.434 4.004 22.412 9.441 33.122 16.645 11.953 8.042 22.551 17.73 34.15 26.198 13.375 9.765 30.776 18.766 48.242 22.56a70 70 0 0 1-.493-8.437M371.62 233.783c.303 2.656.457 5.357.453 8.095a70 70 0 0 1-.696 9.787c10.158-3.52 19.824-8.631 29.27-14.865 17.647-11.647 32.996-26.24 50.432-37.969 15.277-10.277 34.538-17.961 54.021-23.205-12.79-.442-25.38.028-39.424 4.44-19.595 6.158-42.41 26.303-59.634 37.086-9.907 6.2-21.205 12.251-34.422 16.631M417.584 389.575 355.32 443.51l-4.951 6.671 9.255 64.257 101.094-87.57.06.068v-37.361zM242.49 573.552l5.316-36.91-64.692 56.038c11.91 14.828 25.999 27.808 41.358 38.83l42.438-36.76h-37.27l-.142-9.801z" style="fill:#0092d4;fill-rule:evenodd"></path><path d="m265.174 452.117-9.995 69.394-1.44 9.991-6.19 42.977h39.486c.777-12.909 5.224-41.385 18.47-41.385 6.719 0 11.094 7.314 13.867 16.212a81 81 0 0 1 1.847 7.143c1.42 6.652 2.123 13.353 2.38 18.03h39.48l-6.952-48.268-1.12-7.774-9.552-66.32H335.29zm8.52 45.272c0-6.236-1.535-28.894 11.9-28.894 8.305 0 10.796 8.638 11.487 16.719.266 3.105.266 6.128.228 8.547-.024 1.472-.06 2.72-.06 3.628h-14.223zm41.008-18.694c1.488-5.614 4.502-10.2 10.547-10.2q.6 0 1.16.059c12.172 1.272 10.494 22.741 10.494 28.835h-23.555c0-3.43-.465-11.83 1.354-18.694M296.022 578.275h-51.120999999999995l-10.228 8.974.033 2.36h141.24099999999999l-.042-2.18-10.407-9.154zM265.11 448.102h80.402l7.344-9.896h-95.09zM254.718 434.364h101.18299999999999v-16.591h-7.572v9.88h-15.145v-9.88h-8.626v9.88h-15.144v-9.88h-8.837v9.88H285.43v-9.88h-7.784v9.882h-15.145v-9.882h-7.784z" style="fill:#fff;fill-rule:evenodd"></path><path d="M373.12 300.144c23.66-1.17 47.126-10.815 64.374-20.203 4.888-2.66 4.484-5.179 1.654-6.599s-9.124-1.028-14.054-.975c-2.981.032-2.203-2.974-1.04-3.13 17.987-2.425 30.356-6.118 39.582-11.533 4.185-2.458 7.786-5.836 5.076-7.163-2.39-1.17-8.705-1.325-13.783-1.23-3.007.058-3.605-4.223-.676-4.767 8.493-1.574 17.83-4.296 28.717-9.213 4.862-2.196 6.878-7.787 2.287-9.147-3.124-.927-9.23-.048-13.575-.169-4.606-.129-3.74-3.146-1.262-3.704 14.132-3.182 29.59-7.087 38.195-13.327 2.71-1.963 3.172-6.3-.276-8.54-2.068-1.344-8.028-.577-11.095-1.154-1.147-.215-2.472-3.073.397-3.48 19.626-2.786 49.12-7.68 65.341-18.332 7.54-4.952 2.607-3.027-3.128-2.197-10.59 1.533-20.163 1.755-29.186 1.526-26.083 4.408-54.996 13.446-75.9 27.509-17.44 11.73-32.796 26.329-50.48 38-11.035 7.282-22.376 13.086-34.383 16.781-3.813 14.918-12.436 27.907-24.117 37.223 8.76 2.94 18.171 4.277 27.332 3.824M256.685 294.474c-11.057-9.589-19.064-22.598-22.378-37.38-19.248-3.64-38.477-13.36-53.336-24.207-11.523-8.412-22.075-18.069-33.94-26.051-17.726-11.924-36.176-18.755-56.34-22.21a155 155 0 0 1-4.521-.19c-15.799-.902-35.498-2.935-52.82-7.072-5.647-1.347-9.932-3.74-3.128 2.197a49.4 49.4 0 0 0 5.98 4.456c16.555 10.5 43.246 15.218 56.843 17.463 1.521.25.499 1.785-.655 2.004-8.188 1.551-4.36 7.394-.02 10.541 8.61 6.245 22.173 9.29 33.574 13.747 2.375.928 1.21 3.345-.42 2.864-10.04-2.967-13.796 4.278-5.622 8.05 11.52 5.368 25.464 10.142 37.54 11.943 2.96.44 1.885 5.124-.886 3.923-7.396-3.203-11.765 2.925-3.871 7.563 9.236 5.429 20.34 9.519 30.547 12.586 1.134.339 1.88 2.927-1.04 2.286-10.141-2.222-14.912 2.816-5.252 8.845 5.872 3.569 12.32 6.333 18.802 8.584 7.148 2.482 15.512 4.76 23.08 5.304 10.737.768 26.007-.409 37.863-5.246M407.49 389.575H145.036v96.466c0 39.49 13.199 73.51 34.03 101.402l70.18-60.793 11.012-76.46-10.68-14.392v-23.165h18.065v9.881h4.864v-9.88h18.065v9.879h4.864v-9.88h19.118v9.88h4.864v-9.88h18.906v9.88h4.865v-9.88h17.853v17.177zM460.779 435.56 360.744 522.21l7.428 51.57L381 585.065l-.127 9.684h-103.87l-46.932 40.655c24.458 16.487 51.753 28.163 78.419 34.603 65.23-19.048 152.289-76.09 152.289-172.628z" style="fill:#f7d117;fill-rule:evenodd"></path><path d="M316.754 560.317c-.247-1.32-.513-2.61-.793-3.849-.188-.829-.48-2.04-.875-3.45-1.606-5.741-4.894-14.783-9.582-14.783q-.609-.002-1.185.19c-7.335 2.45-10.964 22.925-11.974 34.292l-.034.394h26.086c-.28-4.237-.871-8.672-1.643-12.794" style="fill:#003082;fill-rule:evenodd"></path><path d="M292.345 572.717c1.01-11.367 4.64-31.842 11.973-34.292.387-.129.779-.19 1.186-.19 4.688 0 7.976 9.042 9.582 14.783.394 1.41.687 2.621.875 3.45.28 1.24.546 2.528.793 3.849.772 4.122 1.363 8.557 1.643 12.794h-26.086q.015-.195.034-.394m27.027-23.411c-2.774-8.897-7.148-16.212-13.868-16.212-13.245 0-17.692 28.476-18.47 41.385a72 72 0 0 0-.121 2.944q-.008.44-.008.829h36.812c0-1.01-.036-2.29-.118-3.773-.256-4.677-.96-11.378-2.38-18.03a81 81 0 0 0-1.847-7.143z" style="fill:#003082;fill-rule:evenodd"></path><path d="m247.55 574.479 6.19-42.977 1.439-9.991 9.995-69.394h80.28l9.553 66.32 1.12 7.774 6.952 48.268h-39.48c.081 1.483.118 2.763.118 3.773h-36.813q0-.389.008-.83c.016-.848.056-1.839.123-2.943zm112.074-60.041-9.255-64.257 4.951-6.67 5.722-7.71v-23.168h-17.853v9.88h-4.865v-9.88h-18.906v9.88h-4.864v-9.88h-19.118v9.88h-4.864v-9.88h-18.065v9.881h-4.864v-9.88h-18.065v23.164l10.68 14.392-11.013 76.46-1.439 9.992-5.316 36.91-12.992 11.397.141 9.8h151.235l.126-9.684-12.828-11.284-7.428-51.57zm-19.7-66.336H265.11l-7.343-9.896h95.09l-7.344 9.896zm15.86-13.738H254.719v-16.59h7.784v9.88h15.145v-9.88h7.784v9.88h15.146v-9.88h8.837v9.88h15.144v-9.88h8.626v9.88h15.145v-9.88h7.572v16.59zM285.93 578.275h79.569l10.407 9.154.042 2.18H234.706l-.033-2.36 10.228-8.974z" style="fill:#003082;fill-rule:evenodd"></path><path d="m460.718 426.868-101.094 87.57 1.12 7.773 100.034-86.652v61.82c0 96.538-87.057 153.58-152.288 172.628-26.666-6.44-53.961-18.116-78.42-34.603l46.934-40.655H266.91l-42.438 36.761c-15.36-11.022-29.448-24.002-41.358-38.83l64.692-56.038 1.44-9.992-70.18 60.793c-20.831-27.892-34.03-61.912-34.03-101.402v-96.466H407.49l-46.448 40.235v5.99l-5.722 7.71 62.264-53.935h43.195v37.362zm.06-43.902H145.037v-70.623h315.743ZM274.53 305.734h-35.777a103 103 0 0 1-20.404.577 64 64 0 0 1-5.045-.577h-74.877V486.04c0 97.14 79.013 168.77 168.51 190.39l1.714.415 1.69-.494c37.516-10.956 75.097-31.74 103.331-58.832 33.675-32.314 53.715-72.953 53.715-120.141V305.734h-83.676a97 97 0 0 1-10.26 1.083 80.5 80.5 0 0 1-17.566-1.083h-25.723c-8.552 3.724-17.994 5.783-27.919 5.769-9.85-.015-19.222-2.071-27.713-5.77" style="fill:#003082;fill-rule:evenodd"></path><path d="M383.712 305.734c19.342-3.052 39.77-11.577 56.608-20.48 3.19-1.683 6.309-3.328 8.1-6.673 1.396-2.603 1.34-5.374-1.618-6.943 7.13-1.941 14.045-4.76 20.217-8.381 4.707-2.764 11.02-8.805 10.485-13.832-.388-1.359-1.534-3.377-3.975-3.694 6.495-2.28 20.403-7.524 22.129-15.586.802-3.75-.712-5.463-3.284-6.886 7.856-2.474 26.366-9.139 25.545-19.982-.137-1.8-1.036-2.7-2.225-4.146 17.575-2.956 43.26-10.419 61.853-25.571 4.866-4.023 4.765-6.154-.448-5.428-14.735 3.34-49.788 2.787-64.669 1.805-16.956-1.12-32.289-1.42-48.757 3.754-21.685 6.814-41.942 25.756-61.176 37.796-10.3 6.448-20.762 11.778-31.972 15.607q.707 3.291 1.095 6.69c13.217-4.38 24.515-10.432 34.422-16.632 17.225-10.783 40.04-30.928 59.634-37.086 14.044-4.412 26.633-4.882 39.424-4.44-19.483 5.244-38.744 12.928-54.02 23.205-17.437 11.73-32.786 26.322-50.432 37.969-9.447 6.234-19.113 11.345-29.27 14.865a69 69 0 0 1-1.473 7.432c12.007-3.695 23.348-9.499 34.383-16.78 17.684-11.672 33.04-26.271 50.48-38.001 20.904-14.063 49.817-23.101 75.9-27.509 9.022.23 18.595.007 29.186-1.526 5.735-.83 10.668-2.755 3.128 2.197-16.221 10.653-45.715 15.546-65.341 18.332-2.869.407-1.544 3.265-.397 3.48 3.067.577 9.027-.19 11.095 1.154 3.448 2.24 2.985 6.577.276 8.54-8.605 6.24-24.063 10.145-38.195 13.327-2.478.558-3.344 3.575 1.262 3.704 4.344.12 10.451-.758 13.575.17 4.591 1.36 2.574 6.95-2.287 9.146-10.887 4.917-20.224 7.639-28.717 9.213-2.929.544-2.33 4.825.676 4.768 5.078-.096 11.394.06 13.783 1.229 2.71 1.327-.891 4.705-5.076 7.163-9.226 5.415-21.595 9.108-39.582 11.533-1.163.156-1.942 3.162 1.04 3.13 4.93-.053 11.225-.445 14.054.975s3.234 3.94-1.654 6.599c-17.248 9.388-40.713 19.034-64.374 20.203-9.16.453-18.572-.883-27.332-3.824a70 70 0 0 1-6.616 4.677 81.6 81.6 0 0 0 16.713 4.737 80.5 80.5 0 0 0 17.566 1.083 97 97 0 0 0 10.26-1.083" style="fill:#003082;fill-rule:evenodd"></path><path d="M319.223 301.848c-5.507-16.448-15.53-31.75-28.1-42.35.88-1.001 7.805-7.562 11.167-10.27 10.917 8.6 20.47 22.257 26.622 37.073a104 104 0 0 1 3.6 10.086q-.717.397-1.444.775a62 62 0 0 1-11.845 4.686m13.217-23.833c-6.233-12.963-14.86-24.69-24.66-32.84a103 103 0 0 1 9.995-5.715l1.737 1.367c7.32 5.768 13.919 13.532 19.259 22.321a100 100 0 0 1 4.096 7.437 99 99 0 0 1 5.466 13.337 62.7 62.7 0 0 1-10.03 8.833 111 111 0 0 0-2.203-6.276 115 115 0 0 0-3.66-8.464m13.348 18.305c11.68-9.315 20.304-22.305 24.117-37.223a69 69 0 0 0 1.472-7.432 70 70 0 0 0 .696-9.787c.004-2.738-.15-5.439-.453-8.095a70 70 0 0 0-1.095-6.689c-6.734-31.42-34.638-54.996-68.076-55.045-33.907-.05-62.196 24.109-68.513 56.17a70 70 0 0 0-.97 6.566 71 71 0 0 0-.347 6.888 71 71 0 0 0 .493 8.437 70 70 0 0 0 1.195 6.984c3.314 14.782 11.321 27.791 22.378 37.38a70 70 0 0 0 5.854 4.557 69.6 69.6 0 0 0 11.991 6.703c8.491 3.698 17.862 5.754 27.714 5.769 9.924.014 19.366-2.045 27.918-5.77a69.6 69.6 0 0 0 15.626-9.413m-60.956-39.639c-5.716-1.097-11.047-3.39-15.856-6.554 12.897-21.114 38.69-37.961 63.6-40.182 1.112 4.764 1.812 9.856 2.22 15.261-19.364 6.88-36.55 15.44-49.964 31.475m57.075-.899c-5.035-7.504-10.95-14.173-17.44-19.45 4.14-1.801 8.414-3.437 12.797-4.988l.308.243c3.694 2.91 7.176 6.272 10.388 9.981a87 87 0 0 1 4.72 5.97 92 92 0 0 1 5.05 7.796 94 94 0 0 1 3.588 6.83 62.2 62.2 0 0 1-8.095 15.716 107 107 0 0 0-6.665-14.48 105 105 0 0 0-4.65-7.618m-95.71-20.39c8.644 14.362 22.658 25.647 39.394 28.119 7.392 5.94 13.913 13.692 19.089 22.402-16.45-.505-30.179-5.497-41.419-14.025-4.794-3.637-9.134-7.916-13.04-12.765l-.404-.506a89 89 0 0 1-4.87-6.782 102 102 0 0 1-4.967-8.526q-.02-.81-.018-1.626.003-1.89.117-3.752a62.5 62.5 0 0 1 1.715-11.198 67.6 67.6 0 0 0 4.403 8.66m11.73 40.722a74 74 0 0 0 10.778 7.146c11.074 6.015 23.965 9.305 38.745 9.307h.83a93 93 0 0 1 4.455 10.726c-3.408.571-6.91.872-10.482.866-12.002-.017-23.209-3.425-32.715-9.316a63 63 0 0 1-5.745-4.023c-9.827-7.736-17.272-18.362-21.055-30.593 4.48 6.06 9.538 11.392 15.19 15.887m105.861-23.5a98 98 0 0 0-6.85-10.438 94 94 0 0 0 1.596-4.797 88 88 0 0 0 1.878-7.302q.81-3.824 1.251-7.656a62 62 0 0 1 2.796 13.511 63 63 0 0 1-.67 16.681m-33.05-49.128c-26.378 2.817-53.173 20.345-67.055 42.634-4.388-3.786-8.2-8.32-11.293-13.274l.929-1.571c15-25.395 45.235-41.207 70.293-41.864 3.512 4.445 5.251 8.583 7.125 14.075m20.079 31.373a81 81 0 0 0-9.153-8.465l-.169-.133c-.137-16.906-5.055-30.759-13.341-41.294a62.64 62.64 0 0 1 27.29 24.057c.458 7.57-.286 15.103-2.177 22.626a84 84 0 0 1-1.27 4.503zm-32.694-51.338c-27.06 1.925-55.011 19.717-69.385 42.574a59 59 0 0 1-3.468-9.523c9.7-21.926 31.658-37.217 57.169-37.18 4.206.006 8.314.432 12.287 1.232a48 48 0 0 1 3.397 2.897" style="fill:#003082;fill-rule:evenodd"></path><path d="M152.685 262.115c-7.894-4.638-3.525-10.766 3.871-7.563 2.771 1.201 3.847-3.483.886-3.923-12.076-1.8-26.02-6.575-37.54-11.943-8.174-3.772-4.419-11.017 5.623-8.05 1.63.481 2.794-1.936.42-2.864-11.402-4.456-24.965-7.502-33.574-13.747-4.342-3.147-8.17-8.99.019-10.54 1.154-.22 2.176-1.754.655-2.005-13.597-2.245-40.288-6.963-56.843-17.463a49.4 49.4 0 0 1-5.98-4.456c-6.804-5.938-2.519-3.544 3.128-2.197 17.322 4.137 37.021 6.17 52.82 7.072q2.258.128 4.52.19c20.165 3.455 38.615 10.286 56.34 22.21 11.866 7.982 22.418 17.639 33.941 26.051 14.86 10.848 34.088 20.566 53.336 24.207a70 70 0 0 1-1.195-6.984c-17.466-3.794-34.867-12.795-48.243-22.56-11.598-8.468-22.196-18.156-34.15-26.198-10.709-7.204-21.687-12.641-33.12-16.645 8.937.219 17.814 1.05 26.53 3.76 5.03 1.563 9.869 3.638 14.554 6.033 13.27 6.787 25.317 16.009 37.94 23.912 11.625 7.279 23.305 13.193 36.342 16.373q.334-3.333.971-6.566c-33.803-8.492-56.09-36.192-87.844-46.063-20.58-6.396-36.933-3.028-59.546-4.32-24.178-1.378-52.685-5.546-69.626-12.5-6.566-2.697-1.374 13.405 15.743 24.262 10.965 6.954 37.669 14.068 49.165 15.634-2.48 4.353-1.204 8.5 3.622 11.833 7.386 5.102 15.43 8.251 23.68 10.854-6.216 5.775-.528 11.779 6.087 14.861 6.62 3.083 19.327 7.98 26.153 9.503-3.96 1.642-4.391 6.512-1.49 9.321.869.84 1.967 1.71 3.24 2.632 4.39 3.187 15.447 9.068 22.082 10.939-13.671 8.597 23.318 26.778 48.102 30.559 1.75.267 3.44.462 5.045.577 6.834.49 13.772.28 20.404-.577 8.783-1.136 17.029-3.409 23.786-6.703a70 70 0 0 1-5.854-4.557c-11.856 4.837-27.126 6.014-37.863 5.246-7.568-.544-15.932-2.822-23.08-5.304-6.481-2.251-12.93-5.015-18.802-8.584-9.66-6.03-4.89-11.067 5.252-8.845 2.92.64 2.174-1.947 1.04-2.286-10.206-3.067-21.31-7.157-30.547-12.586M285.594 473.635c-6.05 0-6.79 11.248-6.811 18.614h13.404c.004-.879 0-1.812-.023-2.776-.165-7.107-1.273-15.838-6.57-15.838M325.249 473.635c-6.051 0-6.79 11.248-6.812 18.614h13.405c.035-7.355-.58-18.614-6.593-18.614" style="fill:#003082;fill-rule:evenodd"></path><path d="M278.783 492.249c.022-7.366.76-18.614 6.811-18.614 5.297 0 6.405 8.73 6.57 15.838.023.964.028 1.897.023 2.776h-3.227zm18.298-7.035c-.691-8.081-3.182-16.72-11.486-16.72-13.436 0-11.902 22.659-11.902 28.895h23.555c0-.907.037-2.156.06-3.628.039-2.419.039-5.442-.227-8.547M325.25 468.495c-6.046 0-9.06 4.586-10.548 10.2-1.819 6.864-1.354 15.264-1.354 18.694h23.555c0-6.094 1.678-27.563-10.494-28.835q-.56-.06-1.16-.06m-6.813 23.754c.022-7.366.76-18.614 6.812-18.614 6.014 0 6.628 11.259 6.592 18.614z" style="fill:#003082;fill-rule:evenodd"></path><path d="M460.779 382.966v-70.623H145.036v70.623z" style="fill:#0092d4;fill-rule:evenodd"></path><path d="M383.797 326.772v17.629h2.72c3.959 0 6.773-2.243 6.745-5.967l-.047-6.373c-.03-3.914-1.294-5.289-5.9-5.289zm0 23.116v18.954h6.583c3.254 0 3.64-3.598 3.665-6.27l.048-4.824c.073-7.53-1.53-7.742-5.63-7.892-1.451-.054-2.519.032-4.666.032m3.758-29.673c8.51 0 11.52 2.772 11.52 11.77v5.35c0 2.725-.048 6.88-4.174 8.993 2.397.905 5.256 3.201 5.166 7.17l-.27 11.857c-.195 8.455-7.178 9.216-11.589 9.216h-14.287l.047-5.554c1.64-.09 3.601-.198 3.599-2.49l-.058-37.875c-.001-1.427-1.645-2.738-3.21-2.833v-5.605zm-87.733 5.844v42.783h4.951c2.99 0 5.177-3.246 5.186-6.143l.094-31.524c.008-2.625-2.484-5.116-5.28-5.116zm-9.14-5.632 14.25-.212c4.419-.066 7.708 1.171 9.864 3.513 2.154 2.341 2.163 5.78 2.163 10.302v28.27c0 4.523-.008 7.958-2.163 10.3-2.157 2.343-5.918 2.035-10.335 2.004l-13.707-.095.033-5.703c1.068-.066 1.896-1.283 1.897-2.269l.062-38.973c.002-.992-.867-2.056-2.079-2.128zm-44.929 47.883v6.332h-6.33v-6.332zm-22.8-22.481 9.613.012.033 28.333-3.959-.001.003-1.155c-2.384 1.243-3.254 2.103-7.987 2.083-5.633-.025-12.677-1.442-12.673-12.78l.013-30.13c.004-8.082 4.94-12.993 12.518-12.993 4.312 0 7.386 1.45 9.593 3.87 2.062 2.26 2.81 7.88 2.465 11.508l-5.922-.082c.05-5.807-1.4-9.435-5.755-9.363-2.738.044-5.525 2.625-5.52 4.863l.072 33.14c.007 3.165 2.473 5.538 5.967 5.538 2.315 0 5.209-.837 5.213-3.258l.023-13.935-3.733-.001zM329.26 368.31v6.332h-6.332v-6.332zm84.932 0v6.332h-6.331v-6.332z" style="fill:#fff;fill-rule:evenodd" data-source="https://football-logos.cc"></path><!-- source: https://football-logos.cc --></svg>