<svg xmlns="http://www.w3.org/2000/svg" viewBox="0 120.23 11329.44 16056.9"><!-- Source: https://football-logos.cc --><path fill="#001839" d="M11329.443 4314.872v160.067c-104.115 107.656-175.259 179.579-213.508 215.77-323.207 305.98-638.61 615.403-946.211 928.193-89.886 91.434-141.37 143.463-154.374 156.088-14.076 13.773-35.19 20.66-14.841 45.297 14.305 17.292 37.943 45.985 70.99 86.002 65.33 79.192 67.625 160.144 6.81 243.008-37.868 51.57-82.237 93.118-133.262 124.642-73.897 45.602-152.232 54.478-222.151-5.815q-90.192-77.816-150.09-128.085c-769.883-646.161-1695.745-1089.255-2678.523-1277.48-317.469-60.828-653.833-99.085-1009.016-114.77-49.265-2.143-117.273-3.29-204.022-3.52-113.141-.23-181.149-.153-203.945.23-588.121 9.487-1161.784 99.162-1721.066 269.023-282.892 86.002-561.5 195.417-825.802 319.982q-685.504 323.195-1275.079 826.811c-14.305 12.243-63.494 54.096-147.566 125.483-74.05 62.972-151.084 67.715-231.102 14.156-69.002-46.138-136.397-110.41-166.996-185.394-45.517-111.328 38.555-199.702 114.212-276.981 12.316-12.548 12.852-25.785 1.76-39.787-23.027-28.846-44.064-53.484-63.188-73.76-166.385-176.748-300.487-318.146-402.383-424.118-88.432-92.046-155.98-161.674-202.645-209.036-145.27-147.52-293.525-290.065-442.927-428.173-.23-.23-10.786-9.488-31.517-27.928-31.44-27.85-59.057-58.916-83.001-93.27v-256.323c36.949-51.035 84.607-93.423 143.129-127.166 33.736-19.358 65.942-24.026 96.694-13.85 20.96 6.964 45.823 27.163 74.663 60.6 19.966 23.184 39.473 48.586 58.674 76.208 8.645 12.472 20.349 16.45 35.266 12.013a22.6 22.6 0 0 0 5.508-2.602q60.473-38.562 98.913-88.374c9.256-12.012 8.032-25.402-3.825-40.17-32.512-40.322-55.92-71.158-70.226-92.352-38.02-56.39-33.736-108.267 13.005-155.63 36.566-37.032 81.547-75.672 135.02-115.842 52.172-39.175 93.787-58.84 147.26-25.785 10.862 6.733 26.774 22.801 47.658 48.204 103.044 125.024 212.972 251.501 329.939 379.357 23.102 25.173 37.637 51.187 9.026 80.875-15.529 15.991-35.8 33.36-60.663 52.106-18.59 14.002-6.808 25.02 5.508 41.394 25.474 34.125 51.33 61.747 77.57 82.788 11.78 9.412 23.102 9.412 33.888 0a4454 4454 0 0 1 64.718-55.166c32.13-26.704 75.275-48.587 116.431-34.202 13.081 4.59 30.37 19.358 51.866 44.225 32.512 37.645 56.533 65.955 71.909 85.007q8.606 10.56 36.26 18.593c2.372.689 4.973.689 7.344 0 21.19-6.35 45.287-18.746 72.291-37.262 26.24-17.981 29.682-39.634 10.48-65.114-37.637-49.81-82.006-112.17-73.285-177.665 3.366-24.714 22.108-41.395 44.293-55.014 71.832-43.996 142.67-81.181 212.59-111.71 55.231-24.103 102.201 4.055 132.342 50.728 18.053 28.004 40.238 63.736 66.63 107.196 3.519 5.739 10.098 9.87 19.737 12.243a9.35 9.35 0 0 0 6.732-.995l73.744-42.542c8.033-4.667 11.781-14.078 9.257-22.954-1.99-6.81-7.956-24.102-17.978-51.877-15.682-43.613-25.78-84.471-30.14-122.652-7.267-63.736 34.5-92.811 89.656-116.99 37.102-16.297 84.378-35.579 141.905-57.92 51.178-19.971 91.416-36.192 131.042-6.658 20.272 15.074 36.95 36.115 49.954 62.971 12.775 26.321 24.938 53.637 36.566 82.024 9.869 24.025 27.77 34.048 54.697 25.173 19.813-6.58 36.49-15.15 49.953-25.786 13.158-10.329 15.07-21.5 13.235-38.792-5.202-48.74-8.339-92.276-9.41-130.763-1.453-52.106 14.841-98.626 67.549-115.077 41.385-12.93 82.924-25.556 124.616-37.951 27.004-8.034 28.075-37.492 26.698-65.19-.995-20.123-3.366-43.383-7.038-69.857-1.071-7.881-8.032-13.543-15.988-13.084l-117.12 7.345c-.994.077-2.065.077-3.136-.153-29.911-5.126-52.02-24.178-66.324-57.232-55.768-129.539-117.655-269.866-185.663-420.828-20.73-46.062-34.577-111.022 5.738-150.58 8.644-8.493 26.01-17.675 51.942-27.392 107.557-40.476 193.771-69.092 258.719-85.696 104.803-26.78 131.807 66.644 167.455 147.826 17.9 40.782 26.928 72.152 75.58 51.723 25.704-10.865 66.096-28.463 70.838-57.538 1.3-8.187-.688-25.939-6.12-53.254-13.77-69.628-26.315-155.706 37.867-195.111q25.13-15.495 67.243-25.709c70.531-17.14 159.04-38.027 265.603-62.742 2.142-.535 4.284-.688 6.426-.612 56.991 2.22 83.154 46.903 97.841 96.79 24.71 84.09 39.627 133.441 44.676 147.979 4.207 12.242 21.19 16.68 34.424 15.609 23.332-1.837 47.812-10.024 73.439-24.485 23.485-13.237 25.474-32.212 20.195-58.15-10.633-52.336-23.867-105.59-22.108-155.707 2.372-70.852 49.571-94.265 117.655-111.098 91.722-22.725 175.182-40.323 250.38-52.948 50.565-8.493 133.566 6.58 141.37 69.169 5.89 47.286 23.867 200.773 53.854 460.385 3.672 31.677 5.432 68.48-.306 99.469-7.267 39.022-55.385 56.544-91.492 65.266-23.638 5.662-44.828 10.789-63.417 15.456-28.687 7.116-40.621 26.168-35.725 57.156 4.36 27.316 16.141 51.035 35.419 71.158 7.19 7.499 17.824 10.712 27.998 8.493 53.626-11.86 109.164-23.184 166.767-33.896 57.068-10.635 94.17 22.266 118.65 71.924 15.529 31.447 29.834 63.43 43.068 96.025 17.212 42.389 50.183 59.375 98.99 50.958 35.877-6.197 53.319-27.545 52.324-64.195-.918-33.437-1.836-70.317-2.83-110.716-1.148-45.908 26.774-67.256 63.647-87.303 14.687-7.957 19.277-13.543 22.873-31.906 55.155-278.435 159.04-537.664 311.579-777.536 124.998-196.718 188.11-296.11 189.41-298.176 41.233-67.715 75.045-129.462 101.36-185.393 6.81-14.461 4.897-24.179-3.289-38.487-68.466-120.204-120.255-246.834-155.445-379.892-6.273-23.72-19.583-47.592-32.512-65.573-25.168-35.196-57.756-29.84-96.464-15.303-116.66 43.613-240.053 72.612-358.396 84.013-138.463 13.313-272.87-2.678-403.148-47.898-55.003-19.052-107.251-40.782-156.67-65.19q-263.115-129.806-403.223-201.309c-30.294-15.456-59.516-34.66-87.668-57.538-92.333-74.908-182.143-159.685-269.504-254.333-39.168-42.39-72.674-78.35-82.083-126.249-9.945-51.034 26.85-113.087 85.143-107.578 15.758 1.453 35.572 9.564 59.44 24.255 61.428 37.874 115.895 87.532 163.247 148.82 16.294 21.194 32.512 28.08 61.352 29.381 71.45 3.214 131.73 15.915 180.078 69.322q24.67 27.2 31.67 33.742c2.066 1.913 4.667 2.985 7.42 3.214 47.965 2.755 75.428 4.667 82.466 5.662 104.038 14.997 200.656 59.758 284.575 115.23 60.816 40.17 95.776 63.124 104.956 68.71 67.242 41.012 140.222 37.798 214.96 21.194 53.856-12.089 113.754-27.698 166.156-45.372 158.275-53.33 319.382-102.912 483.471-148.82 13.77-3.826 24.25-11.554 31.441-23.26 3.901-6.198 6.35-19.206 7.344-38.87 3.595-68.786 22.337-134.512 56.226-197.1 6.503-12.013 16.6-29.076 30.294-51.265 6.426-10.482 10.25-22.265 11.169-34.507 3.212-41.548 6.655-80.8 10.25-117.756 12.852-130.762 65.636-249.589 181.379-320.364 105.185-64.425 228.96-50.117 326.266 24.178 92.18 70.317 133.72 177.436 151.85 296.033 10.327 67.256 16.141 108.497 17.518 123.724 1.224 12.471 15.759 42.694 25.627 57.385 42.916 64.425 74.28 132.14 85.372 209.037 3.29 22.495-.382 38.64 26.01 47.974 60.204 21.271 121.71 39.634 184.438 55.09 156.899 38.716 283.045 74.984 415.617 133.288 75.045 32.977 126.223 55.396 199.738 52.565q36.145-1.377 111.994-25.48c78.334-24.866 119.72-38.027 124.157-39.557 20.808-7.269 62.958-23.796 126.376-49.658 69.384-28.233 155.368-57.232 257.953-86.92 15.682-4.514 31.823-14.996 48.424-31.294 61.275-60.217 150.855-143.234 239.134-68.863 4.36 3.673 10.557 4.209 15.606 1.378 78.411-44.914 189.793-72.918 266.98-8.034 42.763 35.961-.076 87.379-29.605 114.77-70.15 65.19-144.812 119.898-223.835 164.2-39.473 22.113-92.028 50.04-157.587 83.706-65.942 33.896-112.453 58.84-139.61 74.984-116.584 69.246-221.616 135.43-339.271 189.755-159.194 73.53-327.797 95.949-505.962 67.333-163.324-26.245-316.934-61.518-460.751-105.82-40.697-12.548-63.647 2.985-78.411 41.471-45.287 117.602-96.847 230.002-154.604 337.121-14.84 27.545-29.222 51.188-43.068 70.852-2.83 4.056-2.448 9.565.918 13.16 13.999 14.615 26.774 30.147 38.478 46.598 50.107 70.546 126.912 177.36 179.313 263.515 95.7 157.389 176.559 323.195 242.654 497.418 30.064 79.421 54.62 156.165 73.668 230.154 17.288 67.103 34.883 145.76 52.707 235.97 2.678 13.313 10.098 25.173 20.96 33.283 20.12 14.997 39.55 30.988 50.949 52.718 1.224 2.296 1.989 4.744 2.371 7.27 6.503 47.362 9.333 93.959 8.568 139.79-.076 2.143.23 4.362.918 6.428 12.47 39.404 56.303 43 90.422 46.061 38.172 3.443 70.76-8.416 87.361-43.46 10.633-22.418 25.168-57.462 43.757-105.283 41.845-107.503 163.172-68.021 243.648-46.444 52.937 14.155 102.585 16.68 124.54-38.334 18.666-46.75 2.677-96.484-51.178-104.595-36.336-5.432-66.553-12.777-90.803-21.883-38.173-14.46-58.98-41.547-62.347-81.258a399.7 399.7 0 0 1 3.52-96.943 52428 52428 0 0 0 63.799-413.941c7.19-48.128 18.36-85.62 63.34-100.54 23.103-7.575 48.118-9.411 75.046-5.356 99.984 15.15 192.93 31.677 278.914 49.505 20.578 4.285 39.09 10.635 55.538 19.128 58.827 30.453 59.975 98.857 53.243 155.783-1.607 13.85-7.191 54.86-16.83 123.188-.535 3.826-.535 19.205 0 46.214.077 2.525 1.454 4.897 3.749 6.045 15.07 7.957 29.834 12.93 44.369 14.92 27.922 3.902 47.046 5.739 57.297 5.356 30.83-.995 33.813-23.643 41.31-52.182 15.758-60.064 25.32-95.796 28.763-107.273 14.076-47.745 39.55-91.664 88.356-101.687 15.606-3.214 39.932-1.684 72.903 4.667 88.815 16.91 174.417 32.442 258.412 63.354 24.556 9.028 42.61 25.25 54.008 48.663 12.929 26.55 17.365 57.92 13.311 94.265-4.972 44.455-15.606 92.735-32.053 144.994-3.06 9.64-4.13 17.904-3.136 24.79a18.64 18.64 0 0 0 12.01 14.768c31.823 11.63 66.171 17.522 102.967 17.675 31.288.076 33.124-21.118 41.08-48.587 24.097-82.712 63.264-206.358 177.094-172.233q108.207 32.366 219.398 75.29c17.977 6.886 34.654 15.685 50.107 26.32 63.264 43.614 54.62 123.418 27.386 185.853-55.308 126.631-109.622 254.027-163.018 382.188-6.962 16.604-16.983 33.896-30.14 51.8-33.43 45.373-89.198 24.102-144.507 7.881-19.507-5.662-28.534-.382-33.506 19.052-11.475 44.761-25.398 96.408-23.18 143.311.46 10.483 6.274 20.047 15.3 25.326 14.23 8.34 29.835 14.156 46.741 17.522 48.118 9.411 79.941 16.527 95.47 21.195 56.533 17.215 75.428 65.955 73.822 121.045-.689 24.867-7.42 61.976-20.12 111.481-6.349 24.944.383 42.006 20.196 51.264 14.994 7.04 44.828 14.538 64.03 14.156 9.715-.154 18.36-6.198 21.955-15.227 14.305-36.114 30.37-69.398 48.194-99.774 20.884-35.656 53.243-67.333 97.994-70.929 14-1.147 37.255 4.668 69.767 17.292 70.761 27.469 132.266 54.478 184.591 80.952 53.167 27.01 63.188 82.712 46.205 136.195-5.814 18.287-17.441 48.587-34.883 91.052-10.327 25.173-4.743 43.537 16.753 55.014 28.687 15.226 56.915 25.632 84.837 31.294 10.021 2.066 18.59.077 25.55-5.891 1.53-1.301 2.755-2.908 3.75-4.668 19.2-36.267 34.653-64.195 46.434-83.783 35.878-59.987 83.154-101.687 156.822-65.42 41.615 20.506 96.465 53.025 164.625 97.48 23.485 15.379 46.664 37.721 59.133 56.238 37.255 55.013-20.73 159.378-50.336 213.244-11.398 20.812 5.202 32.366 21.573 45.22 18.589 14.614 53.243 38.41 76.345 27.545q19.623-9.295 36.49-30.07c34.501-42.542 61.429-72.918 80.936-91.205 68.237-63.889 145.041-2.219 201.497 51.418 4.896 4.667 15.3 6.58 31.135 5.738 2.601-.153 5.049-.918 7.344-2.142 35.572-20.123 65.942-46.903 91.263-80.263 15.758-20.736 13.081-39.864-8.11-57.233-38.172-31.294-64.181-54.707-78.104-70.393-35.343-39.481-17.212-73.76 12.087-108.42a33452 33452 0 0 1 269.351-313.861c27.77-31.906 46.894-52.871 57.45-62.895 65.33-61.517 141.753-31.983 200.044 20.889 50.566 45.832 95.012 87.99 133.338 126.554 43.068 43.307 56.532 112.093 8.873 159.455-23.485 23.337-54.85 56.162-94.093 98.627-15.835 17.063-18.283 35.503-7.344 55.396.689 1.224 1.454 2.296 2.448 3.29l79.176 82.1c4.59 4.744 11.781 6.045 17.671 3.06q15.835-7.804 22.72-14.69c60.358-60.446 97.766-97.556 112.3-111.252 21.267-20.046 51.79-43.46 80.324-49.198 32.97-6.657 62.117.153 87.514 20.276q83.651 66.223 174.188 164.123" data-source="https://football-logos.cc"></path><path fill="#d4951c" d="M5704.195 294.209c0 35.885-29.146 65.037-65.024 65.037s-65.024-29.152-65.024-65.037 29.146-65.037 65.024-65.037 65.024 29.152 65.024 65.037M5682.546 395.437c107.174 4.055 149.172 40.246 152.232 150.962 1.224 44.072-2.678 80.417-11.705 109.11-25.627 81.64-87.131 134.894-174.034 138.413-78.334 3.29-137.774-24.714-178.318-83.859-39.167-57.156-42.38-128.85-34.118-199.778 6.808-58.38 38.555-93.73 95.164-105.972 38.632-8.34 88.891-11.248 150.779-8.876M3756.387 924.991c2.142 1.836 2.448 5.05.689 7.192-54.085 66.874-86.597 107.273-97.536 121.275-12.546 16.068-24.403 17.981-40.927 5.739-117.502-87.303-219.78-180.114-306.912-278.282-22.185-24.944-40.162-77.432-9.18-105.207 3.978-3.596 9.486-4.82 14.611-3.366 20.425 5.815 37.485 14.69 51.254 26.703q44.982 39.137 127.6 126.937c15.682 16.603 37.867 30.376 66.63 41.317 4.131 1.607 8.568 2.602 13.005 3.061 68.313 6.35 128.441 10.406 180.766 54.631M7579.634 995.996c42.075-45.526 118.497-118.52 181.684-116.301 3.596.153 6.962 1.53 9.716 3.902l24.097 20.888c8.568 7.422 20.884 8.876 30.982 3.673q51.292-26.397 114.289-41.777c41.003-10.023 105.491-13.237 138.233 13.926 6.808 5.662 8.262 16.45 3.442 25.862-7.726 15.379-19.43 26.397-33.66 35.655-88.661 57.692-181.301 116.684-277.919 176.9-12.545 7.805-61.658 37.187-89.886 36.957-11.321-.076-21.572-12.09-27.386-22.648a1434 1434 0 0 0-74.74-121.658c-3.212-4.82-2.753-11.17 1.148-15.379M5507.9 966.309c0-27.622 58.368-50.04 130.353-50.04s130.353 22.418 130.353 50.04c0 27.621-58.368 50.04-130.353 50.04s-130.354-22.419-130.354-50.04"></path><path fill="#be0c0e" d="M3740.246 1106.1q-3.9-7.92-1.147-16.068c12.775-37.951 45.44-86.92 84.301-96.867 66.783-17.063 164.931 25.709 225.059 58.916q129.78 71.732 191.17 107.196c49.495 28.617 88.815 46.444 117.808 53.56 59.898 14.614 121.327 11.171 184.361-10.406 164.243-56.161 255.2-88.603 415.77-134.359 121.021-34.43 235.616-69.092 343.708-104.059 26.316-8.493 52.326-4.361 77.953 12.319 50.871 33.207 112.529 70.623 184.82 112.246 23.944 13.85 36.184 35.503 36.72 65.114 2.065 129.691 2.371 336.815.764 621.447-.076 18.364-7.343 30.759-21.802 37.11-50.565 22.112-121.862 18.363-177.094 15.991-33.965-1.454-59.975-15.685-77.952-42.695q-56.226-83.898-85.143-178.125c-30.14-98.167-46.894-152.263-50.183-162.363-22.032-66.567-60.816-179.425-155.675-140.786q-212.628 86.538-405.519 108.574c-75.35 8.646-155.75 5.892-241.047-8.264-56.838-9.41-127.064-32.442-210.524-68.939-99.83-43.69-169.291-76.437-208.23-98.32-4.207-2.372-77.492-43.384-219.933-122.959-3.825-2.142-6.578-4.896-8.185-8.263M7583.306 1196.77c-68.313 45.066-144.2 91.204-227.507 138.337-77.57 43.842-127.293 70.546-149.095 80.033-120.562 52.49-247.32 83.707-377.215 73.913-43.069-3.214-92.334-9.717-147.872-19.511-136.703-24.102-271.8-56.697-405.366-97.862-89.044-27.468-145.27 6.963-174.187 92.353-38.173 112.705-87.82 220.054-148.866 321.895-20.579 34.355-60.358 35.35-97.536 36.956-59.363 2.525-109.317-1.607-149.937-12.395-16.218-4.285-29.223-16.221-39.015-35.885a17.7 17.7 0 0 1-1.836-7.346c-.994-41.47-1.3-79.115-.765-112.858 1.913-133.211 3.213-269.024 3.978-407.438.306-52.488 2.907-93.27 7.88-122.346 1.76-10.176 7.496-17.904 17.288-23.183 10.557-5.662 66.478-42.16 167.762-109.569 35.801-23.872 63.647-37.262 102.814-28.769 82.924 17.904 253.057 58.686 510.322 122.346 34.271 8.417 75.887 23.184 109.699 38.563 47.353 21.5 109.01 48.97 185.127 82.482 77.57 34.126 156.822 39.864 237.834 17.216 124.922-34.967 242.577-92.965 363.904-137.496 99.83-36.65 183.75-17.062 219.092 92.123 2.218 6.887-.46 14.461-6.503 18.44M6494.12 3170.603a8.123 8.123 0 0 1-8.569 7.881c-28.075-1.76-62.652-2.142-103.579-1.224-59.592 1.377-110.77 16.145-128.594 79.88q-9.294 33.285-22.032 90.211c-1.606 7.116-6.043 14.614-13.463 22.495-16.906 17.98-43.987.536-46.894-17.904-19.507-124.871-36.643-220.055-51.483-285.474-78.718-346.303-129.742-565.133-152.921-656.415-36.26-142.469-84.837-289.53-145.807-441.18-3.671-9.105-4.13-22.725-1.453-40.859.382-2.601 1.76-4.973 3.748-6.656 25.857-22.036 66.86 9.87 84.302 30.529 37.255 44.148 88.815 109.95 154.68 197.253 62.04 82.1 109.546 150.886 142.593 206.282 104.804 175.906 183.215 364.82 235.31 566.74 18.513 72 36.031 150.044 52.631 233.98 1.148 5.662 1.607 10.483 1.53 14.461M5663.497 1927.326c77.417-39.405 99.066 34.355 122.398 90.516 7.038 16.986 12.393 30.912 16.141 41.853 91.57 265.122 168.22 536.211 229.879 813.116 24.326 109.185 40.926 195.8 49.877 259.765 8.95 64.348 17.67 126.401 26.239 186.006 2.983 20.658 2.677 66.49-33.124 52.87-23.791-9.104-26.01-59.068-26.163-83.323-.076-5.662-3.29-21.577-9.792-47.668-14.458-57.845-49.877-92.659-111.993-102.376-44.6-6.963-93.1-5.662-132.955-.918-49.189 5.815-81.854 32.289-98.148 79.345-12.775 36.956-10.557 92.046-14.075 131.451-.765 8.723-8.645 15.073-17.29 14.079l-3.365-.383c-6.273-.689-11.092-5.815-11.475-12.166-6.655-120.892-7.88-272.16-3.595-453.728 4.82-204.599 5.508-423.276 1.989-656.109-1.377-92.582-.077-190.673 3.978-294.273a21.25 21.25 0 0 1 11.474-18.057M5395.064 1937.35c20.807-25.404 60.97-18.058 51.483 19.28-13.463 52.795-41.232 113.548-59.44 167.414-15.528 45.985-48.576 144.152-99.141 294.35-44.216 131.45-75.504 230.154-93.788 296.185-46.74 169.02-84.76 326.486-113.982 472.551-8.262 41.242-16.065 97.785-23.409 169.48-.612 5.967-4.513 11.017-11.704 15.225-12.776 7.422-31.747-3.366-38.02-14.996-3.443-6.351-5.202-14.232-5.432-23.643-1.224-48.74-18.971-103.065-50.336-135.048-31.364-31.982-67.089-32.595-116.583-35.12-13.311-.688-32.895-.612-58.751.077-7.727.23-14.306-5.815-14.765-13.543-.918-14.155.689-28.004 4.896-41.394 29.682-94.648 53.396-176.518 71.067-245.534 8.415-32.748 20.732-72.076 34.884-104.977 130.277-302.537 313.568-564.904 523.02-820.308M5128.39 3367.245c-8.874 3.29-18.36-3.214-18.36-12.702 0-43.077 4.207-85.313 12.546-126.554 56.073-276.905 123.698-541.567 203.027-794.063 48.041-153.029 106.333-303.15 174.8-450.362 10.633-22.878 24.938-40.476 42.839-52.795 25.474-17.445 55.69-3.52 57.22 27.162 5.279 105.284 5.661 223.88 3.366 342.554-6.043 313.172-7.879 642.26-5.584 987.415.153 25.785-1.3 66.72-32.894 71.77-18.972 2.984-25.015-13.39-26.928-29.688-3.366-28.004-3.136-83.324-19.584-115.46-26.85-52.412-69.384-81.104-127.446-85.925-56.227-4.667-108.628 1.3-157.205 17.828-82.465 28.08-75.121 125.33-83.154 193.657-1.377 12.013-9.41 22.266-20.807 26.474z"></path><path fill="#d4951c" d="M8426.32 3100.823c30.83-46.674 41.769-85.39 60.435-140.863 29.299-87.303 107.633-63.354 169.827-35.196 42.992 19.434 74.892 30.911 68.083 81.334-5.814 43.843-22.26 82.559-39.779 124.106-24.173 57.232-50.336 115.536-78.564 174.911-7.803 16.298-17.518 30.3-29.146 41.853-19.966 19.741-81.777 4.974-108.245-2.372a316346 316346 0 0 0-1197.433-328.628c-35.954-9.717-71.373-24.178-70.99-68.556.305-27.392 3.595-58.534 9.868-93.5 8.261-46.215 21.649-118.903 40.085-218.142 22.567-121.352 170.515-81.029 241.965-35.044 4.59 2.984 8.338 7.04 10.863 11.784 11.245 21.117 15.146 46.903 11.551 77.279q-9.064 77.01-26.622 137.496a29.6 29.6 0 0 0-.918 6.35c-.688 30.682 14.076 50.882 44.14 60.6q65.75 21.232 194.842 52.106c31.824 7.651 81.165 23.26 106.792-6.887 11.78-13.925 22.032-32.977 30.753-57.232 23.408-65.114 35.418-98.32 36.03-99.775 13.923-32.9 31.747-62.512 71.527-59.757 45.287 3.137 87.744 14.384 127.446 33.82 82.39 40.322 35.572 153.486 13.54 217.223-5.89 16.833-2.83 33.13 9.104 48.892 10.94 14.538 38.632 21.654 59.669 28.004a34804 34804 0 0 1 199.661 60.906c12.01 3.749 25.245 1.836 39.703-5.586a15.7 15.7 0 0 0 5.814-5.126M3804.352 2892.78c18.819-8.186 33.889-21.117 28.687-42.77-17.671-73.454-29.605-152.417-17.671-225.029.612-3.825 2.142-7.422 4.437-10.559 25.627-34.814 109.775-37.338 152.461-38.027 42.687-.612 57.298 24.637 66.63 65.343 28.535 124.947 44.982 234.898 49.419 330.005 1.147 25.48-10.787 43.46-35.955 53.866-29.834 12.319-74.51 25.632-133.949 40.094-350.593 85.236-735.763 180.114-1155.358 284.632-35.725 8.876-49.648-10.253-65.1-40.935-48.883-96.79-91.493-191.668-127.906-284.48-10.786-27.468-7.19-49.58 10.94-66.26 31.287-28.846 109.316-43.46 150.243-46.139 41.156-2.601 62.193 21.654 77.875 61.441 17.289 43.613 37.408 89.063 65.712 126.554a17.17 17.17 0 0 0 8.339 6.122c16.217 5.815 29.07 7.345 38.632 4.59 162.406-46.75 249.767-72 262.237-75.902 45.516-14.155 41.921-47.438 26.086-88.45-15.3-39.558-26.775-79.039-34.501-118.367-7.88-40.247-.918-71.005 38.938-89.216 42.227-19.205 81.777-29.534 118.649-30.835 46.282-1.607 75.963 13.696 94.093 53.866 2.066 4.591 20.502 54.555 55.385 149.968 13.77 37.568 42.304 51.953 85.602 43.307 52.402-10.483 104.191-22.19 155.292-34.967 26.545-6.657 53.473-15.992 80.783-27.851M8279.673 3417.055a5.79 5.79 0 0 1 .841 9.029c-39.932 38.64-88.355 54.708-145.194 48.204s-104.573-15.609-164.319-33.284c-139.61-41.24-271.187-77.356-394.58-108.344-54.084-13.62-77.722 7.422-103.502 55.856-20.12 37.721-40.392 75.213-60.817 112.628-30.446 55.473.995 90.44 53.32 104.901 30.905 8.493 50.106-6.886 65.636-34.814 4.972-9.105 27.157-45.602 66.4-109.568 10.94-17.828 26.545-25.938 46.818-24.255 71.679 5.968 137.927 21.807 198.743 47.439 54.084 22.878 92.946 63.047 53.549 123.111q-22.032 33.629-67.242 24.331c-47.123-9.717-74.816-15.073-83.154-16.22-56.533-7.805-94.247 28.386-115.972 74.983q-74.93 160.566-193.465 385.631c-45.976 87.38-91.492 172.004-157.587 239.413q-35.686 36.382-95.7 32.136c-69.155-4.974-137.085-20.812-203.869-47.592-45.21-18.134-99.677-42.389-91.645-102.452 3.136-23.184 10.71-46.215 22.797-69.246 152.614-290.37 315.939-602.089 489.973-935.231 16.83-32.29 66.477-27.622 96.312-18.9 118.65 34.662 247.932 60.523 345.85 88.298 37.714 10.712 136.091 41.165 295.285 91.434 49.724 15.686 103.502 37.875 141.522 62.512M3987.872 3617.14c10.71 20.505 6.196 40.017-10.098 57.08-15.529 16.373-56.762 45.602-82.083 75.825-37.102 44.225 3.749 111.098 57.91 79.115q46.128-27.2 50.03-29.381c41.768-23.26 112.3-30.3 121.25 35.196 7.956 58.457-42.15 87.762-86.75 111.328-26.774 14.155-43.298 36.268-26.697 63.507 29.146 47.898 74.892 13.467 109.393-3.673 51.177-25.326 103.273-23.872 125.84 35.197 25.397 66.414-41.003 86.843-86.061 107.885-39.932 18.593-45.9 80.875 11.628 74.907 17.977-1.836 40.39-5.739 67.165-11.707 74.74-16.68 105.798 59.681 36.031 92.506q-99.83 46.941-176.712 66.108c-2.6.689-5.354.765-7.955.306-9.563-1.607-19.508-8.416-29.682-20.353-63.647-74.218-118.573-163.51-163.783-245.763-55.232-100.616-109.47-201.92-162.79-303.76-47.352-90.44-118.266-158.768-221.386-172.158-88.662-11.4-145.042 66.644-165.314 147.367-16.294 64.884-25.32 132.522-29.681 205.976-12.928 217.223-20.578 375.378-54.697 553.962-7.803 40.629-35.19 59.91-75.81 74.6-77.11 27.929-139.38 46.98-186.81 57.08-13.54 2.831-25.703 3.06-36.336.536-10.71-2.448-18.59-11.477-19.66-22.419-3.213-32.748-4.437-67.944-3.749-105.59 3.213-175.675 7.803-539.806 13.693-1092.39.23-24.715 11.322-40.324 33.2-46.904 197.29-59.605 409.804-119.439 637.617-179.35 32.206-8.492 83.154-15.149 112.682 1.914 26.24 15.15 27.77 50.499 16.37 74.83-19.124 41.012-53.93 55.32-103.043 66.72-104.803 24.256-223.376 55.78-329.938 86.003-54.926 15.609-115.743 26.091-179.696 40.476-51.407 11.63-89.732 42.235-73.285 100.922 17.136 61.288 38.02 130.227 62.652 206.97 14.994 46.674 60.052 70.087 100.825 33.437 50.107-44.914 32.589-122.652 25.627-186.924-6.961-64.807 4.514-95.107 64.489-113.623 97.23-30.07 181.301-50.576 252.063-61.518 11.933-1.913 24.938 1.454 39.09 10.1 3.06 1.837 5.432 4.591 6.962 7.805 1.3 2.83 7.65 15.379 18.971 37.798 15.53 30.758 57.757 72.382 87.897 30.758 14.153-19.587 19.966-58.074 24.02-87.685 3.214-23.184 8.416-39.328 15.683-48.51 35.19-44.531 95.623-28.234 121.403 16.374 41.157 71.082 74.357 130.84 99.525 179.12M5205.806 3482.934c16.83-1.836 32.818-8.57 34.654-27.469 1.76-16.833 4.59-52.947 8.568-108.42 3.519-48.97 24.097-96.637 79.023-104.748 55.767-8.187 104.115 7.116 110.464 71.005 4.666 46.827 7.267 83.094 7.803 108.88.535 25.632 9.256 48.969 35.954 50.423 54.238 2.907 130.124 2.601 227.507-.919 15.606-.612 29.834.23 42.304-4.284 11.092-4.056 18.512-14.462 18.818-26.245 1.071-45.832 2.83-87.991 5.279-126.325 3.366-53.406 50.948-80.186 101.13-77.89 49.725 2.295 76.423 29.457 80.018 81.563 2.066 29.764 4.896 69.858 8.492 120.204 2.065 27.85 17.747 42.16 47.2 42.924 94.552 2.449 176.711 6.045 246.554 10.789 34.73 2.295 45.594-21.807 49.419-54.86 7.573-66.339 14.228-147.673 99.83-152.876 43.145-2.678 93.787 1.76 95.47 54.937.995 31.6-.841 75.443-5.507 131.451-2.525 30.912 12.01 49.046 43.68 54.402 18.972 3.29 47.582 6.81 85.755 10.712 54.85 5.509 122.551 18.516 182.067 24.025 45.899 4.285 92.87 4.361 110.693-46.75 21.573-62.053 38.326-154.176 128.365-142.852 47.506 5.968 95.853 17.828 68.39 77.203-40.468 87.838-77.876 168.254-112.377 241.249-19.583 41.47-41.003 65.573-86.52 60.752-181.99-19.281-339.347-35.655-471.92-49.122-102.049-10.406-187.727-17.598-257.111-21.577-255.353-14.614-492.804-19.894-712.432-15.838q-61.16 1.148-312.573 9.87c-271.188 9.335-523.403 34.278-812.492 67.256-41.309 4.667-63.8-21.807-79.329-60.676q-5.393-13.658-113.37-263.285c-20.732-48.05 16.447-62.741 55.537-70.163 56.839-10.789 89.35 22.112 113.83 73.07 14.076 29.459 25.857 57.54 35.266 84.243 18.436 52.259 45.746 49.734 92.334 45.143q118.305-11.706 219.168-25.938c49.648-7.04 44.829-42.619 34.654-85.39-13.157-55.09-20.272-141.092 52.784-157.542 43.222-9.794 98.607.153 122.475 40.629 6.425 10.865 10.71 28.769 12.775 53.636 1.224 14.155 4.59 41.93 10.174 83.247 3.596 26.704 19.201 39.94 46.817 39.635 89.733-.995 173.193-5.663 250.38-14.08M8067.236 4228.41c-14.534 45.91 31.977 75.75 64.948 105.36 86.673 77.969 102.202 207.89 45.057 307.205-6.043 10.559-21.649 13.62-33.659 10.941-68.849-15.762-175.794-60.752-203.333-129.461-3.978-9.87-4.514-25.48-1.607-46.674 19.278-139.791 38.632-270.554 56.303-402.77 15.682-117.45 37.943-232.833 66.936-346.074q18.016-70.354 37.638-118.903c18.742-46.52 59.363-38.716 95.547-19.74 31.517 16.527 49.494 41.777 54.008 75.749 10.786 81.564 7.037 162.21-11.246 242.014-1.53 6.58-6.732 13.39-15.529 20.43-1.683 1.376-3.672 2.371-5.737 3.06-56.38 18.44-72.139 21.883-86.597 83.706-19.89 85.466 113.907 64.272 76.422 170.015-28.228 79.957-121.556-10.636-139.15 45.143"></path><path fill="#001839" d="M7368.498 3688.221c50.49-2.984 55.538 43.307 44.981 80.493-21.42 74.984-77.263 140.403-125.84 214.928-5.431 8.187-10.404 17.063-15.07 26.55q-47.62 97.44-78.717 150.81c-12.163 20.812-24.327 34.737-36.566 41.7-33.048 18.823-78.794 2.755-106.869-20.353-55.079-45.449-17.824-106.737 15.147-153.563 59.669-84.855 113.524-172.31 161.565-262.52 4.36-8.187 14.84-21.271 31.288-39.099a33.2 33.2 0 0 1 7.19-5.968c32.053-19.894 66.325-30.912 102.891-32.978"></path><path fill="#d4951c" d="M7500.917 4458.718c-53.855-6.044-124.616-39.328-120.791-100.922.688-10.712 6.196-25.938 16.677-45.602 88.203-166.418 180.077-345.308 275.624-536.823 15.3-30.759 49.036-70.393 89.427-55.396 20.578 7.575 37.331 21.194 50.336 40.782 21.343 32.212-2.983 77.126-16.6 109.338q-112.682 266.614-221.234 509.125c-10.863 24.179-42.84 82.941-73.439 79.498M5811.94 3835.786c.883 44.639-34.613 81.518-79.293 82.412l-271.825 5.22c-44.645.85-81.517-34.653-82.397-79.307l-.15-7.804c-.882-44.639 34.613-81.518 79.293-82.412l271.825-5.22c44.645-.85 81.517 34.653 82.397 79.307zM6337.706 3856.54c-2.627 43.166-39.806 76.067-82.972 73.421l-246.17-15.06c-43.203-2.646-76.021-39.832-73.407-82.987l.42-6.873c2.627-43.166 39.805-76.068 82.971-73.422l246.171 15.06c43.203 2.647 76.02 39.833 73.407 82.988zM5264.71 3843.468c2.525 70.776-44.752 87.15-104.956 90.746-57.833 3.52-116.43 4.82-175.87 3.902-22.261-.382-36.337-.918-42.227-1.76-43.146-5.738-82.772-32.212-84.378-78.656-1.607-46.52 36.107-75.672 78.717-84.395 5.814-1.224 19.813-2.755 41.997-4.667 59.21-5.05 117.808-7.881 175.718-8.34 60.28-.613 108.551 12.471 111 83.17M3463.092 4509.065c-23.103 26.09-70.915 18.975-83.996-16.451-2.524-6.81-3.595-18.287-3.06-34.508q4.36-141.628 19.737-535.292c1.836-47.057 10.786-88.68 26.774-124.872 20.961-47.285 79.788-33.972 82.313 18.287 1.53 32.06 1.453 65.726-.153 100.999-2.678 56.238-12.47 232.832-29.3 529.784-1.912 34.278-6.042 54.937-12.315 62.053M2799.313 3778.202c17.748 13.39 26.316 33.743 25.78 61.058-2.754 139.791-7.726 247.064-14.84 321.818-1.53 15.992-14.153 25.48-29.146 32.136-408.809 182.333-803.312 382.188-1185.04 616.168-27.693 16.987-54.62 16.987-80.706-.076-13.081-8.493-38.479-30.988-76.116-67.486a3486 3486 0 0 1-159.5-164.964c-39.32-43.536 16.218-89.368 58.445-64.73q5.164 2.982 32.818 30.299c51.024 50.422 78.64 77.815 82.924 82.252 22.338 22.878 46.894 34.814 73.822 18.44q183.022-111.443 223.758-137.037c27.233-17.062 20.349-39.175 4.437-63.047-28.993-43.69-50.948-82.788-65.942-117.373-14.229-32.824-2.295-59.375 27.387-79.115 48.27-32.136 116.2-54.402 155.139 1.76 10.786 15.532 33.047 49.122 66.63 100.692 18.513 28.387 44.828 19.205 70.914 3.75 106.486-63.125 177.477-104.749 212.896-124.872 28.993-16.45 25.015-38.333 8.644-63.736-24.48-38.257-81.165-127.702-41.08-169.326 20.808-21.653 64.412-40.17 96.465-51.111 37.102-12.701 64.565-.612 88.05 32.748 23.332 33.13 42.916 68.403 58.827 105.742 2.525 5.815 11.475 16.833 26.851 33.131a12.43 12.43 0 0 0 6.58 3.75c10.862 2.218 23.714.152 38.478-6.275 75.963-32.825 140.07-59.91 192.318-81.334 37.178-15.303 51.024-28.923 48.5-68.175-2.066-32.212-3.749-76.131-5.126-131.68-.459-19.052 2.83-32.366 9.792-39.94 10.327-11.172 23.409-16.68 39.32-16.451 3.137.076 6.197 1.071 8.721 2.984M6838.27 3912.425c-4.803 42.677-43.282 73.36-85.902 68.589l-235.06-26.371c-42.62-4.82-73.372-43.23-68.574-85.92l.956-8.516c4.803-42.677 43.282-73.36 85.901-68.588l235.06 26.371c42.62 4.82 73.373 43.23 68.575 85.92zM4402.57 3884.939c-7.343-38.41 8.951-65.343 49.037-71.847 71.985-11.63 147.642-17.445 226.97-17.521 24.633 0 39.321.459 56.227 17.368q15.836 15.954 20.425 52.565c7.727 62.665-40.008 81.564-91.339 87.15q-92.142 9.985-154.221 14.232c-60.128 4.131-95.853-23.184-107.098-81.947M9990.947 4512.431c32.282-27.774 88.815 17.751 56.991 50.959-73.821 76.896-149.02 149.661-225.518 218.37-20.884 18.747-67.625 54.861-95.011 45.756-4.666-1.53-10.71-4.897-18.13-10.023-221.005-154.635-454.402-286.316-700.039-394.89-184.744-81.64-373.084-155.935-565.095-222.961-44.599-15.61-49.954-56.927-44.522-98.857 1.836-14.537 13.31-83.324 34.5-206.358 6.044-35.12 8.645-63.354 30.6-85.39 23.409-23.49 65.789-11.248 90.039 6.35q29.949 21.693 22.261 63.813c-4.36 23.643-10.863 59.605-19.507 107.809-6.502 36.038 7.267 60.446 41.386 73.377 71.296 26.933 140.834 53.56 208.611 79.957 28.84 11.171 47.353 12.242 60.281-16.986q47.505-107.655 68.62-139.332c14.61-21.807 36.26-28.387 64.947-19.588 38.25 11.63 116.89 42.236 119.414 90.746 2.142 41.777-29.299 101.534-49.648 136.578-14.993 25.785-9.026 44.684 15.606 58.227 101.514 56.008 179.619 95.107 234.162 117.296 39.244 15.915 62.653-5.586 81.777-42.695 27.004-52.489 60.281-134.665 134.867-106.89 55.768 20.735 138.463 67.715 92.028 141.857-25.933 41.547-43.604 68.404-52.86 80.722-18.819 24.944-24.939 48.893 2.065 67.639 105.11 73.07 172.199 119.744 201.345 140.02 39.702 27.775 66.553 5.586 98.377-26.55 53.778-54.325 91.263-90.669 112.453-108.956M10323.333 4189.389c-1.836-4.362-1.683-9.259.306-13.543 5.125-11.095 12.087-21.348 21.037-30.912q89.505-95.374 168.22-182.257c24.098-26.627 42.457-41.776 55.156-45.526 49.495-14.614 95.088 18.976 129.895 52.183 33.353 31.753 28.534 79.575.382 112.4-19.507 22.724-52.86 60.675-99.907 113.929-15.376 17.445-6.961 34.508 8.644 49.887 46.129 45.373 104.191 99.621 174.188 162.592 49.724 44.761 81.624 50.423 132.878 4.209 1.07-.995 38.02-33.666 110.77-98.091 30.523-27.01 62.193-26.857 94.858.382 38.555 32.213 83.077 78.121 61.505 128.314-4.973 11.554-24.786 33.743-59.44 66.415-63.876 60.37-127.676 116.99-191.323 169.86-16.6 13.773-36.872 32.137-58.75 17.676-11.093-7.27-21.344-15.15-30.676-23.49-158.123-141.475-324.125-293.508-498.16-456.177-8.72-8.187-15.223-17.445-19.583-27.851M661.177 4247.769c16.295-13.467 15.912-34.049 2.066-48.357-45.517-47.286-128.824-152.11-71.144-216.917 34.96-39.252 84.455-64.961 129.742-20.43 41.539 40.935 88.05 90.899 139.38 149.891 32.665 37.416 85.679 91.052 76.728 136.502-.535 2.754-1.836 5.279-3.672 7.421-13.999 16.068-29.834 31.218-47.352 45.373-73.592 59.299-197.367 158.002-371.248 296.11-58.062 46.138-97.153 74.83-117.196 86.078-24.48 13.85-49.953 10.177-76.422-10.865-31.517-25.096-71.832-60.982-121.02-107.579-50.643-47.974-116.202-121.275-83.002-192.51 11.246-24.101 30.447-46.214 57.45-66.184 28.229-20.888 58.981-13.925 81.778 8.493 50.106 49.428 81.547 79.575 94.246 90.516 44.522 38.334 81.165 23.72 127.447-10.635q49.227-36.612 182.22-146.907M6074.695 4099.428c-2.39 44.588-40.485 78.713-85.033 76.311l-252.076-13.654c-44.56-2.384-78.679-40.488-76.296-85.05l.43-7.946c2.39-44.588 40.486-78.714 85.033-76.312l252.076 13.655c44.56 2.383 78.679 40.487 76.296 85.05zM5339.602 4174.01c-81.241 2.83-193.006 21.576-201.497-94.19-2.524-34.201 14.305-62.129 44.905-72.382 5.737-1.913 19.736-3.75 41.92-5.432.995-.153 37.103-1.378 108.323-3.903 81.318-2.83 193.006-21.577 201.574 94.19 2.448 34.201-14.382 62.129-44.981 72.382-5.738 1.912-19.737 3.749-41.845 5.432-.995.077-37.179 1.377-108.399 3.902M4836.624 4208.517c-58.368 4.438-153.61 18.287-185.892-22.801-19.583-25.02-28.61-51.341-27.157-79.04 2.601-47.744 46.512-63.047 86.826-66.796 42.61-3.979 80.4-7.269 113.448-9.717 58.368-4.362 153.609-18.287 185.891 22.801 19.584 25.02 28.61 51.34 27.157 79.04-2.6 47.744-46.51 63.047-86.826 66.796-42.61 3.979-80.4 7.269-113.447 9.717M6624.49 4142.805c-3.613 45.972-43.85 80.326-89.833 76.74l-263.717-20.759c-46.02-3.659-80.367-43.829-76.724-89.851l.624-7.933c3.612-45.972 43.85-80.327 89.833-76.74l263.717 20.758c46.019 3.66 80.367 43.83 76.724 89.852zM8749.212 4512.738c-17.05 42.465-65.32 63.047-107.77 45.977l-199.307-80.137c-42.436-17.105-63.014-65.31-45.968-107.792l2.853-7.099c17.05-42.465 65.32-63.047 107.77-45.977l199.308 80.137c42.435 17.105 63.013 65.31 45.968 107.792zM2765.5 4460.708c-31.976 10.788-77.186 19.74-93.174-19.129-21.803-52.871-11.093-98.32 46.664-117.908 32.053-10.789 77.187-19.74 93.252 19.205 21.725 52.795 11.092 98.244-46.741 117.832M1426.087 6151.822c-65.712 59.07-153.15-26.78-178.93-84.165-21.879-48.74 4.054-103.141 43.374-136.501q238.332-201.997 515.448-408.586c437.801-326.18 914.082-581.583 1428.994-766.212 224.982-80.646 432.37-146.83 622.01-198.554q519.922-141.743 1061.877-189.143c144.047-12.548 294.902-22.112 452.413-28.693 1120.322-46.673 2240.185 202.763 3246.677 691.917 464.27 225.564 906.355 530.55 1296.192 871.113 40.62 35.426 74.357 82.1 50.413 137.955-17.213 40.094-42.61 71.465-76.04 94.036-47.965 32.366-94.858 7.422-133.643-26.397-69.767-60.829-138.539-118.903-206.24-174.223-51.254-41.853-123.622-95.566-217.18-161.139-72.52-50.805-209.376-153.487-314.256-219.442-806.754-507.748-1722.748-812.197-2672.632-910.824-805.53-83.706-1620.393-52.335-2396.854 148.82-669.898 173.534-1303.383 457.784-1880.565 848.695-172.657 116.837-327.72 235.204-465.34 355.101-44.752 39.023-103.35 91.129-175.718 156.242M2567.005 4476.036c20.254 36.548 7.02 82.533-29.463 102.767l-80.288 44.514c-36.532 20.26-82.508 7.022-102.747-29.468l-8.16-14.723c-20.254-36.548-7.02-82.533 29.463-102.767l80.288-44.514c36.532-20.26 82.508-7.022 102.747 29.468zM867.341 4723.304l-.153-.23c-7.803-11.553-23.944-13.772-34.5-4.59-10.405 9.105-89.81 75.29-238.14 198.63-10.787 8.952-22.415 8.417-35.037-1.53-41.462-32.672-69.767-69.628-84.837-110.792-8.95-24.332 8.415-45.756 27.08-61.288 47.2-39.329 161.183-135.124 342.102-287.387 36.184-30.453 66.4-16.986 98.683 12.242 339.73 308.505 595.542 536.9 901.613 779.45 14.075 11.17 16.217 25.784 6.426 43.918-4.59 8.493-21.037 23.337-49.342 44.455-140.069 104.442-239.823 177.513-299.339 219.06-39.014 27.239-85.143 38.716-122.321 2.525-161.642-157.39-275.778-268.259-342.408-332.53-60.204-58.075-115.36-108.804-165.39-152.11-11.245-9.718-26.392-18.058-45.517-25.02-36.642-13.39-73.285 1.224-117.807-8.035-36.49-7.651-83.078-41.47-64.948-85.083 3.29-7.958 13.234-18.746 29.758-32.366 49.112-40.246 111.918-93.5 188.493-159.838 11.628-9.87 14.075-26.856 5.584-39.481M10331.824 4617.944c-23.408 32.901-8.032 72.765 19.278 99.086a5305 5305 0 0 1 88.585 87.226c24.633 24.944 11.093 45.067-9.944 68.021-174.57 191.056-300.104 317.15-535.49 560.925-36.95 38.18-67.855 69.092-92.87 92.658-23.79 22.419-41.845 12.855-66.477-5.05-101.82-74.065-200.962-148.972-297.503-224.645a9.2 9.2 0 0 1-2.601-3.29c-7.574-15.532-4.667-29.152 8.644-40.859q305.917-269.711 679.996-605.303c56.38-50.575 118.42-107.961 186.045-172.233 39.014-37.11 69.384-52.106 113.906-14.767 110.923 93.194 225.824 196.947 344.626 311.336 9.027 8.722 10.557 17.904 4.514 27.621-9.792 15.762-44.446 42.16-59.899 49.582-44.522 21.423-88.202-17.981-121.862-46.291-55.92-47.057-121.174-104.213-195.913-171.316-12.01-10.712-24.097-17.904-36.337-21.577-10.02-2.984-20.73.536-26.698 8.876M9241.681 4753.575c-21.534 39.816-71.335 54.66-111.14 33.14l-234.445-126.79c-39.853-21.552-54.694-71.286-33.133-111.163l3.492-6.462c21.535-39.816 71.335-54.66 111.141-33.14l234.446 126.79c39.852 21.552 54.692 71.286 33.132 111.164zM2171.49 4765.77c-62.5 31.37-99.908-32.672-100.443-85.543-.536-55.397 49.647-80.876 97.23-96.79 54.925-18.288 94.016-1.072 117.195 51.646 16.141 36.574-.535 60.523-33.353 83.018-26.163 17.98-53.014 33.82-80.63 47.668M2786.305 4622.228c25.478 35.886 10.101 90.67-34.45 122.298-44.493 31.65-101.332 28.206-126.802-7.678-25.478-35.886-10.101-90.67 34.45-122.298 44.493-31.65 101.331-28.206 126.802 7.678M8523.092 4622.458c23.255-11.094 56.608 2.296 81.47 12.549 116.355 47.821 202.186 87.838 257.418 119.974 23.256 13.543 34.119 35.885 32.665 67.18-2.83 60.598-61.964 105.436-121.48 79.268q-121.058-53.254-215.726-101.228c-17.824-9.105-34.73-22.19-50.718-39.405-33.507-36.038-33.277-114.542 16.37-138.338M2481.844 4725.905c76.27-18.975 83.919 87.227 51.33 126.096-25.703 30.529-70.149 61.364-111.61 57.768-52.632-4.514-95.471-80.263-63.112-123.494 20.272-27.01 91.492-52.412 123.392-60.37M2002.449 4774.03c23.463 35.582 13.672 83.48-21.95 106.951l-129.645 85.503c-35.619 23.472-83.43 13.678-106.93-21.954l-7.58-11.498c-23.464-35.582-13.672-83.48 21.95-106.951l129.645-85.503c35.618-23.472 83.43-13.678 106.93 21.954zM9584.55 4965.086c-24.596 37.724-75.009 48.36-112.74 23.763l-104.073-67.858c-37.662-24.612-48.295-75.035-23.759-112.763l5.181-7.949c24.597-37.723 75.01-48.359 112.74-23.762l104.073 67.858c37.662 24.612 48.296 75.035 23.76 112.763z"></path><path fill="#001839" d="M10020.438 5144.64c-26.431 26.501-69.347 26.578-95.852.168l-18.856-18.795c-26.548-26.413-26.624-69.337-.169-95.871l223.12-223.946c26.432-26.501 69.347-26.578 95.853-.168l18.857 18.795c26.546 26.413 26.623 69.337.168 95.871zM1180.297 4892.783c1.453 6.427-.536 13.084-5.202 17.598-32.588 31.294-68.007 65.343-106.18 102.223-38.632 37.339-83.23 4.667-111.459-25.02-36.03-37.951-14.687-72.077 18.896-101.534 35.724-31.295 62.422-53.025 80.017-65.19 55.615-38.487 112.147 22.036 123.928 71.923"></path><path fill="#d4951c" d="M9337.486 5116.793c-23.475 39.734-74.806 52.894-114.533 29.413l-210.443-124.48c-39.76-23.507-52.917-74.771-29.406-114.556l3.428-5.795c23.473-39.733 74.804-52.894 114.53-29.413l210.443 124.48c39.76 23.507 52.918 74.772 29.406 114.556zM2172.79 5060.655c-51.79 34.431-119.032 80.722-172.505 14.46-54.008-66.872 33.43-121.504 80.4-152.798 46.97-31.218 131.119-90.899 171.97-15.226 40.467 74.907-28.152 119.132-79.865 153.564M9920.95 5671.696c-15.988-10.635-33.582-28.463-52.86-53.483-17.977-23.337-17.212-45.143 2.295-65.573 251.604-263.285 454.937-473.163 610-629.71 22.26-22.496 48.423-45.91 81.7-27.47 70.532 39.176-2.677 123.877-41.003 164.353-204.251 215.158-398.175 418.456-581.772 609.817-4.82 5.05-12.546 5.892-18.36 2.066"></path><path fill="#001839" d="M1350.891 5015.537c25.166 25.607 24.783 66.771-.802 91.973l-82.608 81.195c-25.603 25.207-66.759 24.825-91.955-.803l-16.192-16.48c-25.166-25.607-24.783-66.772.802-91.974l82.608-81.194c25.603-25.208 66.759-24.825 91.955.802zM10770.544 10555.744c-2.219 2.755-2.219 6.734-.077 9.488q260.708 345.001 275.166 781.362c11.245 338.116-85.067 636.291-288.782 894.373-83.001 105.207-180.767 193.887-291.307 267.035-6.732 4.437-9.945 12.548-8.185 20.429 25.168 109.798 38.096 221.967 38.631 336.509.077 10.482-.765 21.041-2.371 31.753-2.142 13.773-.077 26.933-1.224 42.619-21.955 302.766-127.523 569.953-316.857 801.561-44.446 54.325-96.465 107.426-156.21 159.38-179.849 156.317-387.313 255.174-622.24 296.491-6.35 1.071-11.245 6.274-11.934 12.702-37.255 328.628-190.252 633.766-438.72 855.886-224.829 200.926-512.616 319.217-816.851 341.56-22.567 1.606-44.522-1.684-64.489 2.907-2.295.535-4.59.765-6.961.688-80.935-2.218-162.254-9.717-244.03-22.418-6.885-1.071-13.694 2.372-16.754 8.646-17.9 36.344-36.184 70.316-54.773 101.917-103.579 176.059-242.118 312.79-415.693 410.345-109.01 61.288-225.747 105.36-350.134 132.293-194 41.93-392.973 22.877-580.93-46.444-27.464-10.177-50.49-24.102-77.57-33.36a18.62 18.62 0 0 0-16.6 2.524q-229.152 166.763-511.087 202.916c-44.293 5.662-79.483 8.034-105.492 7.192a34.7 34.7 0 0 0-6.885.46c-14.917 2.6-27.692 3.213-38.402 1.912-25.933-3.137-47.582-1.836-71.297-3.75-211.748-17.062-404.219-86.766-577.411-209.265-6.656-4.668-15.3-5.28-22.49-1.607-149.862 76.514-304.083 117.602-462.588 123.34-158.123 5.74-315.404-21.959-471.767-82.94-181.684-70.776-339.271-182.487-472.608-335.056-73.668-84.318-132.42-176.059-176.176-275.221-1.3-2.984-4.284-4.82-7.574-4.667q-14.343.803-38.326 5.05c-246.172 43.842-485.23 18.286-717.174-76.82-208.076-85.314-384.558-214.01-529.523-386.244-145.118-172.463-238.752-373.771-280.75-603.849-4.36-23.872-9.792-62.053-16.294-114.618-.306-2.296-1.913-4.285-4.208-4.897-9.868-2.831-35.801-10.023-77.646-21.577-390.984-108.114-680.608-345.002-868.718-710.663q-135.517-263.4-146.418-558.247c-.536-12.854-1.3-25.632-2.448-38.333-1.071-11.86-1.683-21.271-1.607-23.108 2.219-70.47 4.36-117.678 6.426-141.474 5.05-57.386 14.382-114.771 28.075-172.157 1.607-6.81-.994-13.926-6.579-18.134-270.881-201.308-460.521-483.34-525.469-817.706-25.856-132.905-33.888-264.892-24.02-395.96 13.234-176.365 60.204-343.32 140.987-501.015 37.714-73.606 81.7-144.382 132.036-212.403a11.6 11.6 0 0 0-.23-14.155c-171.739-215.617-282.126-481.427-296.508-756.878-.994-18.363-1.53-49.351-1.76-92.964-.076-36.344.919-67.333 3.137-92.965 24.403-283.638 124.846-538.276 301.405-763.993q126.108-161.254 289.164-274.762c13.005-9.105 13.617-17.522 10.251-33.513-18.436-86.844-29.375-167.26-32.818-241.173-2.677-56.773-3.519-140.786 2.525-201.767 37.714-378.745 243.648-717.932 553.314-937.757 130.048-92.353 275.472-151.88 429.31-190.367 6.12-1.53 10.71-6.657 11.552-13.008 48.653-375.301 269.198-705 588.733-905.162 166.996-104.67 348.145-164.275 543.293-178.89 75.886-5.662 160.111-1.836 252.598 11.478 15.606 2.295 21.267 7.88 31.059-9.947 99.371-180.42 233.32-324.344 401.847-431.846 159.805-101.917 337.435-160.756 532.966-176.594 25.32-2.066 57.909-3.597 97.918-4.591 17.671-.383 32.665 4.667 48.959 3.137 2.754-.23 9.333-.077 19.66.612 198.743 13.39 378.898 78.197 540.386 194.346 5.126 3.596 12.087 3.06 16.524-1.301 29.07-28.846 59.516-61.517 89.656-87.073q296.164-251.12 686.422-290.83c40.927-4.132 75.58-3.75 119.644-6.81 18.895-1.3 39.32 4.438 59.286 3.137q4.935-.344 23.868.918 487.449 31.218 819.759 385.172c3.978 4.285 10.327 5.203 15.376 2.296q178.318-103.41 384.635-128.085c60.97-7.269 123.545-10.1 187.651-8.493 5.05.153 8.415 1.683 13.234 1.99 54.697 2.677 100.443 7.498 137.315 14.614 167.073 32.212 319.535 99.009 457.386 200.314 161.794 118.903 283.197 274.685 372.012 454.493 2.448 4.974 7.88 7.652 13.311 6.504 29.605-6.045 56.685-10.941 81.318-14.538 189.181-27.621 369.182-5.203 540.004 67.18 290.847 123.11 523.862 367.727 634.556 661.694 28.992 76.82 47.582 150.809 55.843 221.967.918 8.187 7.268 14.614 15.3 15.762 250.227 35.579 488.29 165.806 661.943 348.292q251.871 264.663 321.753 627.569c9.562 49.581 15.758 108.803 18.589 177.742.994 25.556 1.683 40.859 1.989 45.985 1.3 21.271 1.453 36.65.535 46.138-.994 9.488-1.989 27.928-3.136 55.32q-5.28 130.265-41.31 260.99a12.39 12.39 0 0 0 5.126 13.695q155.484 102.491 281.132 245.152c183.597 208.5 289.471 476.988 319.688 752.44 17.289 158.154 7.42 313.937-29.681 467.347-46.818 193.81-134.179 371.017-262.161 531.773M9855.35 5159.092c25.745 28.04 23.909 71.654-4.082 97.409l-77.258 71.056c-28.012 25.764-71.616 23.928-97.39-4.083l-9.527-10.363c-25.745-28.04-23.909-71.653 4.082-97.409l77.258-71.056c28.012-25.764 71.616-23.928 97.389 4.083z"></path><path fill="#d4951c" d="M1320.442 5690.595c-6.885 4.362-15.988 3.596-22.567-1.836-16.37-13.696-32.741-28.616-49.035-44.837-161.412-159.838-305.689-303.15-432.753-429.857-16.141-15.991-42.992-45.985-28.916-67.485 26.774-41.241 85.755 15.456 106.792 37.721a13012 13012 0 0 0 407.431 411.952c25.092 24.255 33.583 40.553 29.835 74.908-.995 9.028-4.59 15.532-10.787 19.434"></path><path fill="#001839" d="M1506.028 5166.933c41.003 22.571 86.75 85.543 44.905 130.227-31.518 33.819-112.836 122.04-164.549 83.783-20.884-15.533-33.812-33.82-38.708-55.014-7.191-30.759 20.042-59.375 43.528-82.33 39.09-38.256 65.941-62.97 80.553-74.218 9.103-6.886 23.561-8.34 34.27-2.448"></path><path fill="#002468" d="M7359.93 9228.913c-1.683 1.454-4.13 1.301-5.584-.382-20.731-23.49-31.594-35.656-32.512-36.574q-309.246-305.75-748.386-748.537c-302.246-304.68-583.76-574.698-865.964-859.79-318.234-321.435-509.022-507.9-766.898-773.021-156.67-161.063-310.967-304.909-471.69-467.272-96.619-97.555-176.33-171.162-270.194-268.87q-227.086-236.43-502.596-498.796c-3.901-3.75-3.136-10.176 1.607-12.854 145.27-81.335 315.25-114.083 483.088-107.885 174.34 6.35 334.605 57.385 480.718 152.952 25.397 16.603 51.866 34.507 79.405 53.789 31.67 22.113 69.92 28.999 98.76-1.76 66.63-70.928 129.895-129.691 189.946-176.212 181.684-140.71 403.148-216.076 635.32-219.672 336.671-5.203 627.595 144.918 854.95 388.386 17.517 18.746 31.364 29.534 41.614 32.365 18.59 5.127 35.42 3.443 50.49-5.126 58.827-33.666 102.584-58.151 131.195-73.377 132.648-70.546 299.415-90.44 453.483-82.482 343.785 17.75 674.03 268.258 813.486 572.784 23.332 50.882 37.944 81.794 43.834 92.582 28.381 52.03 104.038 22.648 149.937 9.335 129.818-37.798 267.286-37.11 398.405-2.602 264.15 69.475 476.663 247.14 612.142 483.34 67.395 117.602 99.83 249.206 117.272 376.755 5.814 42.925 18.742 63.125 59.057 74.449 7.574 2.142 40.697 7.88 99.295 17.215q192.203 30.759 361.686 145.071c90.727 61.211 166.308 127.779 226.665 199.778 247.014 294.274 308.672 677.915 217.41 1045.489-12.776 51.647-19.279 89.292 25.09 119.592 29.07 19.817 66.707 41.547 92.717 60.828 265.374 196.412 443.386 487.319 481.023 815.028 38.402 334.444-42.38 651.441-248.697 919.623-35.648 46.368-66.554 77.51-55.385 129.386 2.219 10.482 15.988 32.365 41.31 65.572 199.508 262.367 280.367 561.843 242.653 898.505-32.435 290.218-183.75 562.685-401.159 755.5-15.682 13.926-29.07 15.456-40.161 4.668-96.236-94.495-279.985-285.321-378.439-383.03-401.388-398.868-809.738-808.677-1225.049-1229.505-101.972-103.37-213.278-214.163-333.916-332.53-79.788-78.274-136.932-135.124-171.433-170.397-112.683-115.307-186.657-192.127-285.952-284.862-10.94-10.253-13.617-23.03-7.88-38.257 11.628-31.294 48.042-135.66 109.317-313.172 15.376-44.684 48.806-125.483 100.137-242.397 128.058-291.825 279.832-562.302 448.587-848.159 18.666-31.6 43.452-81.793 28.228-114.159-3.748-7.88-11.78-12.548-20.042-11.706-10.327.994-22.797 5.126-37.484 12.395-5.202 2.525-36.796 21.118-94.859 55.779-22.414 13.39-54.39 31.218-96.005 53.483-172.81 92.659-336.441 191.056-491.045 295.345-39.32 26.55-100.596 68.786-183.75 126.707-87.438 61.058-192.547 147.902-258.412 199.855-54.773 43.077-113.218 92.046-175.335 146.83"></path><path fill="#d4951c" d="M3600.33 5625.329c1.836-1.53 4.667-1.454 6.426.306L7277.159 9296.78c1.53 1.53 1.53 4.132 0 5.662l-143.665 143.694a6.05 6.05 0 0 1-8.567 0C5899.802 8211.352 4461.169 6787.272 3472.348 5788.763c-7.726-7.805-15.07-18.057-22.108-30.835-1.607-2.908-.995-6.657 1.606-8.8z"></path><path fill="#be0c0e" d="M6721.32 10015.86c-2.142 1.455-5.049.154-5.431-2.371-24.25-160.833-63.724-317.993-118.42-471.557-41.768-117.372-100.672-242.702-176.712-376.066-87.897-154.176-168.909-283.409-243.113-387.697-38.784-54.555-82.771-105.284-131.807-152.34-36.719-35.196-77.034-57.921-111.152-6.58-10.174 15.226-16.906 30.3-20.272 45.067q-21.229 92.39-46.588 165.5c-46.282 133.134-126.07 245.38-216.72 361.376-4.59 5.891-13.388 6.35-18.666.995-54.467-56.085-115.283-116.225-182.45-180.574-96.005-91.893-205.627-169.861-328.867-233.75-115.207-59.758-237.604-86.844-368.187-103.83-1.683-.23-3.443-.918-5.202-1.913-4.131-2.448-5.661-7.651-3.596-12.013 23.026-48.739 50.719-104.441 83.078-166.953 16.6-32.29 34.96-84.09 21.037-117.985-11.322-27.775-36.184-37.568-74.663-29.534-50.336 10.482-97.383 31.982-141.063 64.348-83.001 61.517-151.315 135.889-205.017 223.192-5.43 8.799-15.223 13.849-25.55 13.083-279.22-21.194-561.117-8.11-830.392 65.497-260.325 71.234-543.446 230.92-608.7 515.475-23.79 103.906-6.579 201.156 51.713 288.382 82.466 123.493 238.829 173.38 377.062 120.51 68.62-26.245 150.09-79.575 142.593-161.981-3.978-44.225-42.61-81.028-82.771-87.609-38.096-6.197-61.199-10.406-69.384-12.624-76.04-20.353-80.17-98.321-36.031-151.345 74.127-88.986 207.693-143.235 324.048-171.851 170.821-42.083 345.85-64.731 525.086-68.021 4.896-.077 7.88 5.432 5.126 9.488-43.834 63.965-83.23 130.533-118.267 199.701-162.33 320.671-295.055 656.644-398.252 1007.997-107.098 364.896-198.82 740.886-275.165 1128.048-.689 3.52-4.973 4.82-7.574 2.372-185.356-178.431-425.102-417.997-728.955-721.07-7.726-7.727-434.13-434.293-1279.286-1279.85-213.967-214.01-404.525-406.138-571.75-576.228-3.443-3.52-3.06-9.182.841-12.166 30.14-22.954 58.139-47.21 83.919-72.842 28.38-28.157 24.709-63.277 14-105.13-80.324-312.866-33.813-647.615 141.522-920.082 136.626-212.174 354.57-396.343 601.05-461.916 23.178-6.12 61.657-14.69 115.588-25.708 50.719-10.33 82.619-24.867 89.045-77.05 4.972-40.017 9.41-72.076 13.31-96.102q65.293-399.747 371.554-661.311c140.222-119.745 298.88-198.784 476.128-237.117 86.672-18.746 166.767-25.48 240.129-20.2 43.604 3.137 98.989 9.947 166.231 20.276 39.244 6.045 70.685-8.416 94.17-43.383 55.461-82.482 101.514-148.514 138.08-198.095 2.754-3.673 8.109-4.132 11.398-.842l3677.747 3678.492a15.28 15.28 0 0 1 1.07 20.506c-118.801 146.448-229.495 303.608-332.003 471.556-.995 1.683-2.219 2.984-3.519 3.826"></path><path fill="#d4951c" d="M6015.773 8697.676c111.076 153.487 177.63 248.441 199.738 284.862 58.828 96.943 131.425 217.836 178.395 312.637 101.59 205.134 185.892 431.386 231.638 662.153 16.141 81.487 31.44 171.315 45.975 269.482 1.224 8.493 3.978 15.762 8.186 21.807 2.295 3.29 7.19 2.984 9.103-.46 88.356-160.526 164.166-298.557 270.882-444.852 186.197-255.175 403.989-482.422 653.298-681.664 180.995-144.689 369.411-276.293 577.335-401.317 124.08-74.601 246.784-145.989 368.187-214.163 2.83-1.607 5.967 1.607 4.36 4.438-125.304 219.366-247.013 428.938-348.45 651.824-139.687 306.898-254.97 639.81-345.927 998.815-48.883 192.892-81.242 370.328-97.23 532.461-24.556 248.824-20.654 494.664 11.628 737.443 19.43 146.448 56.227 295.039 106.716 435.136 34.194 94.954 76.728 183.098 127.6 264.28 70.607 112.858 159.27 212.326 284.345 262.52 75.045 30.07 149.401 35.502 222.916 16.22 115.13-30.3 183.98-117.678 249.31-209.648 9.715-13.696 24.02-21.73 35.036-4.897 30.752 46.903 42.304 99.774 34.73 158.46-8.72 67.18-38.479 119.975-86.367 169.632-195.607 202.916-507.262 191.974-742.036 70.7-180.843-93.5-335.523-262.138-438.72-433.53-55.461-92.199-102.584-203.833-141.293-334.825-76.651-259.613-104.19-522.515-82.542-788.708 11.399-140.326 33.736-288.917 67.09-445.847 63.723-299.859 156.592-584.415 278.608-853.745 90.65-200.084 182.525-392.67 275.624-577.834 3.596-7.116 17.9-39.175 42.916-96.255 7.038-16.144 16.294-27.086 21.037-41.623 1.53-4.591-3.672-8.417-7.65-5.739-337.818 230.001-629.43 520.678-883.865 836.758-40.315 50.117-76.957 100.157-109.775 150.274-120.103 182.869-219.78 368.874-299.033 558.094-10.48 25.173-34.807 87.073-72.827 185.776-16.753 43.383-36.413 80.416-56.685 120.663-1.53 3.06-2.83 4.897-3.825 5.432-3.52 1.913-7.88-.688-7.88-4.744q.345-360.495-67.701-704.465c-22.567-114.236-58.827-238.8-108.628-373.542-85.296-230.766-206.164-444.93-362.68-642.565-1.912-2.372-5.508-2.296-7.19.23-77.57 116.377-163.86 226.634-258.795 330.923-8.033 8.799-8.95 17.751-2.601 26.856 42.456 61.288 76.804 115.996 102.967 164.123 86.137 158.46 169.75 334.367 222.764 487.471 86.826 250.66 135.708 508.972 146.57 774.935 11.476 281.495-34.653 563.832-142.669 824.746-138.386 334.29-372.09 586.863-702.87 733.693-84.071 37.263-171.126 64.349-261.318 81.182q-424.683 79.421-854.872 39.481c-9.104-.842-19.89 1.071-32.206 5.739-2.907 1.07-5.431 2.83-7.573 4.973-100.29 100.846-214.885 180.497-341.95 263.974-50.488 33.13-127.599 82.558-186.732 72-3.29-.613-5.202-3.98-3.978-7.116q5.623-14.118 19.048-26.168c119.873-107.35 230.414-220.208 331.774-338.499 3.137-3.672.765-9.41-4.054-9.87-116.966-10.941-232.862-23.566-347.686-37.95-66.401-8.341-131.96-19.895-196.755-34.815-18.053-4.132-27.845 2.296-38.784 17.216-76.805 105.207-166.155 199.855-267.975 283.79-101.743 83.784-223.911 150.427-355.871 179.732-106.028 23.49-234.469 21.424-316.475-53.79-66.095-60.598-79.176-162.056-56.61-246.68 53.626-201.615 263.233-313.02 453.408-342.248a2244 2244 0 0 1 357.555-26.091c11.398.076 18.818-6.887 22.108-20.889 10.556-44.99 18.206-84.548 22.95-118.597 27.08-196.182 54.543-386.932 96.923-603.849 29.987-153.793 52.937-270.171 68.772-349.21 52.708-262.29 116.66-533.61 191.935-813.957 50.719-188.684 112.606-383.795 185.662-585.41 117.35-323.807 275.166-621.677 453.713-906.233 3.137-4.973-.229-11.553-6.196-11.936-292.378-18.44-585.444 23.413-857.32 126.325-115.742 43.766-257.112 146.295-248.161 287.922 6.655 104.901 94.17 166.878 195.071 161.98 4.284-.152 7.42 3.98 6.044 8.035-6.656 19.817-18.896 35.35-36.72 46.52-93.557 58.61-205.78 33.13-282.28-41.317-46.281-45.144-70.684-90.21-76.804-154.482-24.02-253.644 183.597-401.623 388-490.38 105.722-45.984 218.787-68.48 346.692-90.668 208-36.115 419.366-42.848 634.02-20.124 10.175 1.072 32.513.919 44.37 1.684 2.371.23 4.666-.306 6.732-1.53q19.737-11.019 23.179-16.528c56.15-88.45 121.862-164.81 197.137-229.006 16.447-14.002 33.2-23.72 50.336-29 5.508-1.682 11.016 2.602 10.71 8.417-.689 10.789-3.672 22.266-8.95 34.355-9.945 22.648-32.742 70.7-68.467 144.076-12.699 26.168-22.108 53.407-27.769 81.411-.612 3.06 1.148 6.045 4.131 7.04 15.147 4.667 34.042 10.865 49.189 12.777 185.815 24.408 367.805 78.81 527.228 176.136 48.27 29.458 98.454 67.18 150.702 113.24 97.077 85.62 185.433 179.656 265.144 282.108 3.749 4.82 10.863 5.433 15.377 1.225 116.048-107.426 207.54-231.991 274.4-373.695q18.245-38.793 77.11-204.752c6.197-17.292 6.274-32.825 10.71-48.05.765-2.526 4.131-3.061 5.661-.92"></path><path fill="#d4951c" d="m593.4 8958.436 138.539-138.567a3.88 3.88 0 0 1 5.508 0l2645.398 2645.934a3.99 3.99 0 0 1 1.07 3.673l-52.248 224.875c-.688 2.984-4.437 3.978-6.579 1.836L593.4 8963.945a3.88 3.88 0 0 1 0-5.509" data-source="https://football-logos.cc"></path><path fill="#001839" d="M3552.289 12338.6c64.182-105.36 106.792-201.31 141.216-318.911 34.96-119.439 58.14-206.435 69.461-260.99 123.851-596.274 224.141-1074.794 300.716-1435.405 59.057-277.822 136.933-568.04 245.79-821.684 47.812-111.252 102.661-235.052 164.549-371.323 27.769-61.288 57.374-120.97 88.738-179.043a10.84 10.84 0 0 1 11.322-5.51c220.469 36.727 431.528 139.256 608.776 283.791 90.956 74.143 174.11 154.1 249.615 239.72 10.633 12.165 11.627 25.937 2.907 41.393-217.792 385.249-375.38 779.908-495.023 1195.763q-142.632 495.696-178.777 624.584c-54.697 195.035-118.496 377.291-191.476 546.77-85.679 199.166-190.023 374.46-339.424 523.356-25.933 25.862-51.637 22.19-91.263 17.599a12168 12168 0 0 1-456.085-61.441c-47.965-7.346-90.957-12.166-128.824-14.385-2.065-.153-3.289-2.448-2.218-4.285"></path><path fill="#002468" d="M7246.024 15768.497c.382 1.148-.153 2.448-1.224 3.06-149.555 82.56-310.355 125.407-482.247 128.391-142.058 2.449-282.357-36.115-405.672-98.397-44.523-22.495-73.592-29.152-112.3.689a1557 1557 0 0 1-102.814 72.918c-135.326 87.761-287.788 134.129-452.337 138.796-238.446 6.657-453.866-65.42-646.336-216.229-25.627-20.046-59.822-16.22-92.41-1.3-62.882 28.769-105.186 47.362-126.835 55.778-476.893 185.088-1003.662-8.952-1255.342-451.968q-16.065-28.35-64.26-122.346c-19.353-37.722-41.844-62.666-82.847-56.391-99.295 15.226-158.888 26.78-225.135 31.064-374.232 24.255-737.065-138.26-979.642-426.336-117.578-139.715-200.043-316.845-236.686-497.801-9.716-47.821-19.201-114.848-28.534-201.002-4.055-37.416-25.092-61.059-63.188-70.93-47.506-12.394-94.017-17.75-141.981-33.512-111.994-36.804-210.525-78.657-295.591-125.407-71.22-39.099-139.075-89.904-203.64-152.34-201.42-194.728-326.266-428.937-374.536-702.475-12.7-71.77-18.896-135.354-18.513-190.75.765-122.27 18.895-241.096 44.063-364.437 10.48-51.34-67.854-89.215-101.514-114.694-200.502-151.88-336.746-345.691-408.808-581.584-56.38-184.629-69.537-376.832-39.397-576.61 30.982-205.823 117.884-393.512 260.63-563.144 20.043-23.796 31.136-41.165 33.354-52.183 4.208-20.735-2.142-41.088-18.971-61.058-89.045-105.513-171.663-225.257-224.906-351.2-66.019-156.165-95.165-319.216-87.438-489.23 2.448-54.785 10.404-119.21 23.79-193.199 30.218-167.03 94.553-319.064 193.083-455.947 2.984-4.132 8.95-4.438 12.317-.613 22.031 25.02 45.057 49.964 69.001 74.831 183.214 190.061 354.8 364.13 514.606 522.286 246.02 243.314 415.54 412.87 508.563 508.589 146.877 151.115 485.001 486.017 757.872 764.529 149.172 152.186 331.468 320.9 469.395 463.293 144.353 149.125 291.613 292.36 439.255 433.146 4.284 4.055 6.35 9.947 5.661 15.762a10543 10543 0 0 1-45.746 338.651c-3.443 22.725-9.562 62.36-38.096 67.18-17.748 2.984-35.649 4.896-53.626 5.585-83.766 3.137-194.077 10.636-280.061 24.714-124.464 20.276-235.004 72.612-331.545 156.854q-157.32 137.38-153.074 345.92c1.224 60.676 15.988 113.7 51.101 163.358 178.165 251.96 541.228 136.578 742.037-6.58 127.676-91.052 237.757-205.058 336.44-329.853 6.044-7.575 15.76-11.17 25.321-9.258a3149 3149 0 0 0 362.986 50.27c3.52.23 5.355 4.361 3.213 7.116-73.362 94.189-157.51 174.681-252.369 241.402q-26.506 18.593-35.113 29.84c-13.157 17.292-27.998 41.7-24.556 64.425 4.59 29.764 34.501 47.668 62.73 53.713 50.412 10.788 102.813-3.52 155.291-23.03 82.39-30.76 152.31-67.18 209.683-109.263 58.98-43.23 121.02-92.2 186.121-146.983 3.443-2.831 8.492-2.678 11.628.459 212.437 212.403 423.037 432.304 652.457 659.245q406.781 402.388 475.056 473.316c75.35 78.427 209.759 213.551 305.688 308.658q637.425 631.815 1012.536 1009.986c186.274 187.69 392.438 388.233 559.204 556.105 2.142 2.219 3.52 4.208 4.208 6.12"></path><path fill="#be0c0e" d="M4291.724 12214.417c-19.354-14.614-38.555-31.447-57.603-50.652-125.305-125.56-248.085-247.906-368.417-366.885-17.671-17.522-20.96-31.983-16.218-55.244 115.054-562.378 201.268-980.91 258.565-1255.596 29.988-143.923 69.155-305.903 105.339-447.301 61.887-241.785 145.577-466.813 257.494-701.711 28.305-59.375 70.532-148.208 126.758-266.499 10.404-21.883 29.376-25.403 52.555-19.358 84.53 22.266 153.762 46.444 207.77 72.612 188.493 91.358 339.042 218.907 473.603 374.919a20.52 20.52 0 0 1 2.065 24.025c-59.057 98.627-112.147 200.161-159.193 304.45-128.67 285.245-235.463 576.304-320.453 873.179-4.36 15.073-35.036 129.844-92.028 344.16q-40.047 150.235-125.534 425.113c-82.236 263.897-179.236 519.837-339.348 743.946-1.224 1.76-3.595 2.066-5.355.842"></path><path fill="#002468" d="M7802.934 9299.765c1.989.919 2.907 3.367 1.912 5.356l-112.912 233.368c-1.76 3.597-6.502 4.438-9.333 1.607l-64.182-64.272c-5.202-5.203-5.737-13.543-1.147-19.358 50.412-63.583 109.393-115.536 176.788-155.706 3.213-1.913 6.196-2.295 8.874-.995"></path><path fill="#be0c0e" d="M7551.865 15482.487c-.23-.076-.459-.076-.841-.076a1.6 1.6 0 0 1-1.377-.46l-2772.998-2772.717c-2.83-2.831-.918-7.728 3.137-7.881 54.773-1.913 120.485-7.499 197.213-16.604 252.751-30.146 487.22-103.37 693.23-244.386 232.097-158.843 407.89-390.528 517.513-652.742 44.905-107.272 77.646-210.26 98.301-309.04 33.736-161.062 53.931-317.534 53.013-483.263-1.835-345.767-67.548-680.593-197.06-1004.4-52.784-131.835-110.158-238.954-183.444-376.68-18.436-34.66-37.943-66.108-58.444-94.418-4.284-5.968-3.902-14.079.994-19.588 54.085-60.752 103.656-125.483 148.637-194.116 2.295-3.52 7.19-4.208 10.404-1.454 3.595 3.06 7.496 7.27 11.78 12.625 110.847 137.725 176.1 274.992 246.785 447.76q83.651 204.408 130.812 423.736c43.834 204.292 58.369 424.117 70.609 658.863 2.524 48.28 8.72 89.75 18.436 124.335 7.803 27.545 37.637 48.816 67.472 42.236 39.702-8.646 71.067-81.258 83.154-115.92 7.42-21.27 34.806-93.27 82.16-215.922 125.227-324.19 297.961-620.682 518.124-889.4 7.497-9.105 15.147-15.762 22.873-19.97 3.29-1.836 7.42-1.224 10.174 1.377 3.52 3.443 63.188 63.124 179.007 178.967 10.404 10.406 9.639 21.118 4.59 35.273-100.596 283.332-172.351 573.55-215.19 870.654-28.228 195.8-33.813 389.533-16.6 581.2 28.61 317.84 130.659 618.464 314.485 877.694 211.213 297.87 551.02 501.474 924.027 425.954 174.034-35.196 328.485-143.846 393.432-310.647 40.544-104.212 34.654-290.065-100.443-330.77-41.768-12.625-76.116 1.3-103.043 41.623-23.638 35.426-44.063 64.96-61.123 88.756-102.125 141.628-261.242 129.31-389.76 32.595-121.403-91.28-215.956-237.193-270.652-381.881-48.424-128.238-84.455-259.383-108.093-393.36-18.512-104.9-25.933-222.962-32.741-334.902-5.125-83.324-6.885-149.05-5.278-197.1 1.683-52.718 5.814-142.24 13.234-203.834 15.835-130.456 35.113-257.47 57.986-381.04.994-5.28 7.497-7.192 11.169-3.366 59.133 61.44 97 100.386 113.447 116.837 537.556 539.271 1060.577 1065.765 1569.216 1579.557 234.162 236.505 477.58 476.223 709.83 699.492 10.557 10.176 15.836 22.954 15.912 38.257.306 108.267-4.36 213.78-26.774 321.818-44.523 214.163-152.233 411.646-301.175 569.341-175.335 185.547-397.028 291.672-652.075 346.303-56.685 12.09-81.165 26.168-108.475 68.25-7.726 12.014-12.928 30.07-15.452 54.25-5.508 53.024-13.082 116.224-24.786 166.264-34.042 145.53-92.18 280.119-174.417 403.689-201.956 303.608-538.244 483.186-900.312 508.819-105.262 7.421-208.688-1.913-311.272-23.26-28.993-6.045-51.178-7.116-66.63-3.29-43.299 10.788-66.784 52.947-86.368 92.964-28.916 59.375-63.34 115.536-101.82 171.315-.994 1.454-2.83 2.142-4.513 1.683"></path><path fill="#d4951c" d="m7388.464 9698.021 142.135-163.97c1.3-1.53 3.672-1.606 5.125-.152l108.628 108.65c.995.994 1.3 2.525.765 3.902l-92.104 213.933c-.995 2.296-3.978 2.831-5.738 1.071l-158.658-158.69a3.447 3.447 0 0 1-.153-4.744"></path><path fill="#001839" d="M4495.517 12458.573c-4.59-.076-6.732-5.815-3.366-8.875 87.285-79.269 167.838-159.456 241.735-240.637 204.099-224.033 356.407-481.35 445.528-769.732 53.779-174.146 89.81-353.342 124.693-549.524 22.414-126.095 41.31-223.804 56.762-293.202q87.323-390.796 248.085-755.883c1.224-2.678 4.13-4.208 7.114-3.75.077.077.842.613 2.295 1.76l.23.23c87.973 160.22 146.953 345.232 176.864 555.034 27.004 189.066 38.556 365.66 34.654 529.936-5.737 242.932-53.243 474.847-142.517 695.896-91.186 225.487-222.84 427.714-408.502 577.987-219.628 177.666-500.607 266.576-783.575 260.76"></path><path fill="#d4951c" d="m10295.64 12611.296-2355.085-2355.563c-7.115-7.116-9.792-17.446-7.038-27.163l60.893-216c.688-2.295 3.519-3.06 5.202-1.377l2358.145 2358.7c2.219 2.143 1.836 5.892-.841 7.499-57.527 35.043-92.716 60.14-75.122 134.206 7.42 31.294 14.535 63.2 21.343 95.642.918 4.362-4.36 7.193-7.496 4.056"></path><path fill="#be0c0e" d="M4708.565 12347.781c9.563-11.171 24.71-19.588 35.42-29.458 56.685-52.565 116.277-120.05 178.853-202.38 144.582-190.137 251.145-395.348 319.611-615.709 82.848-266.192 122.627-545.775 181.914-818.93 50.871-234.286 103.043-423.353 187.957-626.268a4.665 4.665 0 0 1 6.426-2.372c3.213 1.607 5.967 5.127 8.185 10.56q52.095 125.1 72.98 257.086c15.376 97.709 27.386 191.592 35.878 281.496 37.637 397.95-9.104 782.51-193.695 1138.377-171.05 329.699-451.877 569.953-829.55 614.943-4.055.46-6.656-4.284-3.979-7.345"></path><path fill="#d4951c" d="M3815.215 11894.282c.841-2.908 4.437-3.826 6.579-1.683 163.63 164.658 290.618 292.896 380.886 384.713 9.562 9.717 16.677 20.123 21.343 31.14 2.295 5.433.23 11.707-4.896 14.768-8.262 4.82-16.6 7.192-25.091 7.04-77.34-.995-152.462-6.275-225.518-15.84-16.753-2.218-33.966-12.624-47.2-25.555-52.784-51.494-108.245-106.278-166.384-164.429a9.01 9.01 0 0 1-2.219-8.646z"></path><path fill="#002468" d="m3786.298 12290.09-80.859-9.259c-8.338-.994-13.158-9.87-9.562-17.368l23.102-47.669c1.99-4.132 7.574-4.82 10.48-1.3l59.287 71.081c1.607 1.913 0 4.82-2.448 4.514"></path><path fill="#001839" d="M3306.27 12447.096c1.988.23 3.06 2.372 2.141 4.132-22.567 42.925-43.604 80.799-63.264 113.7-78.564 131.68-187.957 226.405-328.332 284.25-30.37 12.548-56.991 19.588-79.711 21.118-105.492 6.963-173.729-58.993-149.173-166.954 25.933-114.235 137.85-188.378 242.348-222.12 120.944-39.023 246.249-50.423 375.99-34.126"></path><path fill="#002468" d="M3184.101 12511.521c2.525-.076 4.284 2.449 3.366 4.744-35.419 89.522-124.463 165.806-205.475 221.661-42.533 29.305-91.492 56.468-143.511 61.212-26.545 2.448-59.593-6.121-69.69-34.202-30.753-85.849 88.126-168.025 154.374-196.794 83-36.038 169.98-54.937 260.936-56.62"></path><path fill="#d4951c" d="M4328.444 12699.363c-.153-1.683 1.224-3.06 2.907-2.984 91.722 3.443 181.148 6.657 268.204 9.565 19.43.612 30.37 6.12 44.446 20.2 918.9 919.01 1865.188 1865.337 2838.863 2839.131 3.136 3.061 3.212 8.034.23 11.248-43.529 47.362-90.881 90.593-142.135 129.768-2.295 1.76-5.661 1.53-7.727-.536-1998.602-1998.548-2998.745-2998.51-3000.504-2999.964-2.678-2.22-4.055-4.362-4.284-6.428" data-source="https://football-logos.cc"></path><!-- source: https://football-logos.cc --></svg>