<svg xmlns="http://www.w3.org/2000/svg" xmlns:xlink="http://www.w3.org/1999/xlink" viewBox="18.07 74.2 559.13 693.49"><!-- Source: https://football-logos.cc --><path d="M292.648 294.216c-72.33-.935-132.514 58.619-132.975 131.775s59.651 130.05 133.05 130.05 132.75-56.65 132.75-130.05c0-73.398-60.496-130.84-132.825-131.775" style="fill:#aebbc3;fill-rule:evenodd" data-source="https://football-logos.cc"></path><path d="M87.364 306.416c26.694-25.951 56.68-47.503 90.83-62.51 36.779-16.164 75.62-23.483 115.713-23.702 41.602-.226 81.744 7.093 119.84 24.034 34.192 15.205 64.004 36.914 90.95 62.683l4.054 3.877.464 5.555c3.588 42.947 3.962 86.35-.579 129.242-4.229 39.945-12.766 79.326-26.869 116.981-17.85 47.66-42.182 95.164-76.014 133.545-28.632 32.483-63.552 57.689-105.29 70.263l-4.336 1.307-4.365-1.395c-20.774-6.637-40.847-16.295-58.942-28.468-17.58-11.827-33.387-26.11-46.633-42.665-11.52-14.397-22.644-29.17-32.765-44.59-10.109-15.403-19.26-31.49-26.68-48.367-20.163-45.852-33.513-93.957-40.419-143.547-6.594-47.354-7.238-95.243-3.382-142.862l.446-5.515zm24.525 17.293c-3.196 43.643-2.432 87.517 3.61 130.896 6.53 46.897 19.147 92.375 38.214 135.737 6.762 15.377 15.144 30.04 24.354 44.074 9.617 14.652 20.155 28.688 31.101 42.368 11.373 14.214 24.979 26.448 40.07 36.6 14.527 9.774 30.512 17.695 47.082 23.412 34.493-11.39 63.398-33.018 87.32-60.157 31.405-35.63 53.987-80.141 70.55-124.369 13.227-35.314 21.188-72.28 25.154-109.739 4.149-39.191 3.955-78.867.946-118.141-23.41-21.75-49.188-40.209-78.52-53.253-34.254-15.232-70.324-21.698-107.719-21.494-36.053.196-70.96 6.7-104.038 21.236-29.182 12.824-54.99 31.047-78.124 52.83" style="fill:#000;fill-rule:evenodd"></path><path d="M93.884 313.123c26.126-25.395 55.093-46.16 88.074-60.654s69.928-22.681 112-22.91c44.454-.242 82.503 8.336 115.988 23.227 33.443 14.871 62.248 35.999 88.285 60.895l1.493 1.428.17 2.022c3.715 44.525 3.717 87.073-.56 127.479-4.285 40.472-12.871 78.757-26.327 114.686-20.348 54.333-45.37 97.851-74.271 130.64-29.803 33.811-63.747 56.277-100.971 67.492l-1.557.469-1.6-.511c-18.023-5.76-37.72-14.641-56.567-27.32-15.925-10.713-31.276-24.157-44.55-40.747-11.456-14.318-22.442-28.937-32.249-43.88-9.94-15.144-18.804-30.776-25.938-46.998-20.493-46.604-33.137-93.834-39.716-141.073-6.571-47.188-7.085-94.327-3.324-140.816l.163-2.013zm92.366-50.808c-31.1 13.667-58.556 33.202-83.416 57.098-3.531 45.153-2.956 90.845 3.4 136.483 6.443 46.266 18.832 92.537 38.916 138.21 6.871 15.627 15.453 30.749 25.097 45.443 9.777 14.897 20.515 29.203 31.617 43.08 12.516 15.64 27.046 28.355 42.152 38.517 17.41 11.712 35.544 20.014 52.232 25.496 34.655-10.779 66.383-32.022 94.41-63.818 28.083-31.86 52.437-74.255 72.293-127.273 13.123-35.04 21.504-72.443 25.695-112.035 4.134-39.048 4.185-80.263.684-123.472-24.832-23.504-52.199-43.42-83.76-57.454-32.152-14.298-68.745-22.535-111.57-22.302-40.499.22-76.042 8.092-107.75 22.027" style="fill:#fff;fill-rule:evenodd"></path><path d="m167.848 607.594 41.543 61.82 24.62-6.825c6.952-1.928 15.125-6.896 12.28-16.575-1.475-5.021-4.433-9.3-9.45-13.05-3.058-2.287-7.316-2.755-12.15-2.4 3.253-2.073 6.018-4.707 5.121-11.026-.85-5.981-4.17-11.347-9.169-15.112-6.184-4.658-15.799-5.963-23.55-4.05zm26.902 8.099 8.925 14.7 5.1-1.275c2.784-.696 4.933-2.645 4.65-4.875-.45-3.547-2.82-7.24-6.15-8.85-2.112-1.022-4.678-1.676-6.953-1.104zm14.775 24.562 9.488 15.675 7.163-2.4c1.816-.609 3.564-4.238 2.138-7.163-1.219-2.498-3.157-4.98-5.419-6.412-2.146-1.359-5.583-1.8-7.463-1.294zM227.539 592.984l37.8 60.543 13.95-5.4-13.237-22.725 5.588-2.25c2.237-.901 4.391-.638 5.85.675 3.432 3.089 5.283 7.52 7.5 11.326 2.2 3.775 4.542 7.718 6.6 8.137l14.666-6c-1.025-.313-1.544-.335-2.475-.863-.772-.436-1.464-1.36-1.891-2.137l-8.306-15.094c-3.019-5.486-8.199-6.297-14.024-5.063 3.236-2.417 5.526-5.03 5.663-9.863.191-6.743-3.38-12.505-8.324-18-5.033-5.594-12.661-6.984-19.969-4.257zm23.467 5.679 9.451 16.574 4.575-1.912c2.464-1.03 4.145-2.836 4.35-5.063.278-3.002-.725-5.098-1.95-7.05-2.84-4.53-8.026-6.03-11.174-4.725zM281.771 571.839l15.526-7.613 31.088 62.325-13.275 6.375zM347.099 616.67l12.825-7.163-22.95-49.425 13.125-7.275-6.412-14.325-41.383 23.85 7.481 13.575 12.713-7.5zM364.945 521.08c13.641-9.642 23.72-6.545 31.125 9.488 3.15 6.648 6.1 14.001 8.85 22.05 5.46 15.826 2.833 28.252-11.1 36.824-9.724 5.982-17.963 4.74-24.226-4.65-5.361-8.04-10.109-16.621-13.875-25.875-6.338-15.571-4.095-28.42 9.226-37.836m5.66 11.924c3.564-2.643 7.203-.113 9.376 4.5 4.581 9.729 9.886 19.862 12.862 29.587 1.253 4.096 2.227 9.486-1.614 12.75-2.279 1.936-6.144.224-8.25-3.525-5.583-9.937-9.938-19.638-14.513-30.976-1.414-4.72-2.063-9.219 2.14-12.336M410.569 511.55c1.75-1.35 3.481-2.963 5.231-4.313l-2.381-3.675c-1.668-2.575-6.527-.812-8.963 1.163-4.575 3.708-5.255 8.655-2.85 13.95 1.188 2.616 3.754 3.722 6.075 3.6 1.405-.075 2.7-.813 4.088-1.05 1.105-.19 2.516-.042 3.375 1.65.715 1.408.167 2.77-1.088 3.75-1.416 1.105-2.406-.248-2.962-2.25-2.125 1.312-4.063 3.038-6.188 4.35 1.588 2.575 2.036 5.148 5.813 4.837 2.33-.191 4.544-1.663 6.337-3 3.668-2.735 5.389-7.887 3.563-12.6-.814-2.1-2.526-4.256-5.363-4.537-2.052-.204-3.194.584-5.887.825-1.116.1-2.364.43-2.963-1.575-.567-1.898.037-3.07.975-3.788 1.254-.96 1.89.05 3.188 2.662M413.83 498.33l9.244-7.068c2.728-2.086 4.923-1.01 6.881.955 1.405 1.41 2.134 3.445 2.55 5.7.646 3.492.033 7-2.4 8.926l-3.787 3 3.825 9.637-5.4 4.8zm7.904.693 1.275-.863c.743-.503 1.667-.536 2.418.638.313.488.54 1.052.694 1.612.356 1.296.392 2.956-.394 3.563l-1.481 1.144s-2.587-6.207-2.512-6.094M437.53 485.022c.745-.761 2.115-.1 2.474.675 1.92 4.144 3.865 7.95 5.175 12.225.597 1.947.576 3.401-.337 4.163-.516.43-1.856.14-2.175-.45-2.253-4.173-4.034-8.656-5.7-13.163-.42-1.135-.285-2.585.562-3.45m-2.063-4.5c3.041-2.676 6.557-3.406 8.737-.637 3.056 3.88 4.726 8.3 6.207 12.806 1.512 4.597.87 9.958-3.375 13.688-2.595 2.28-5.76 2.867-8.006 1.275-2.937-2.084-4.785-7.77-6.656-12.676-2.242-5.876-1.556-10.367 3.092-14.456M444.116 473.73l9.112-7.912c2.656-2.306 6.04-.415 7.35 2.663 1.372 3.223 1.896 5.175-.056 8.456 1.45-.681 3.003-.416 3.75 1.274l2.776 6.281c.444 1.004 1.184 1.501 2.269 1.481l-5.344 4.763c-.269.24-.954.038-1.12-.282l-3.643-6.993c-.294-.565-1.358-.942-1.837-.525l-1.425 1.237 4.387 9.825-5.25 4.575zm7.565.317 1.331-1.125c1.156-.977 2.212-.35 2.907 1.257.626 1.446.585 3.94-.281 4.612l-1.426 1.107zM457.764 461.956l2.887 5.363 3.45-3.132 7.932 19.012 5.25-4.575-8.157-19.107 3.9-3.658-2.512-5.68zM426.975 537.871c-2.18-4.49-6.369-2.872-9.45-.75-4.388 3.023-5.07 6.419-3.901 12.562.81 4.256 2.608 7.431 4.65 10.95 2.48 4.274 5.554 4.351 9.637 1.275 5.324-4.01 5.24-9.14 4.013-12.225l-1.237-3.113-5.25 4.032.937 2.231c.612 1.456 1.17 3.527.225 4.575-.875.971-2.163.217-2.55-.562-1.993-4.012-3.713-7.609-4.912-11.663-.35-1.183-.563-2.874.375-3.675.737-.63 2.094.367 2.475 1.2l1.2 2.625 5.38-4.182zM425.813 531.278l5.644-4.67 7.725 18.713 6-4.875 2.4 4.95-11.4 9.15zM443.607 516.896l-5.513 4.613 7.388 16.537c2.303 5.156 5.4 4.745 9.562 1.312 3.794-3.13 5.611-7.168 3.3-12.825l-6.75-16.519-5.157 4.406 6.807 16.463c.935 2.26 1.282 3.503-.075 4.613-1.102.901-1.847-.116-2.738-2.25zM453.3 508.738l10.126 23.062 7.162-6.862c2.744-2.357 4.986-5.612 2.832-11.42-1.041-2.805-2.779-4.047-5.607-2.793 1.506-2.072 1.89-4.473.638-7.463-1.526-3.641-4.22-4.42-6.638-2.231zm6.732-.095 2.118 4.744 1.37-1.218c.782-.697.803-2.266.43-3.244-.44-1.161-1.967-1.938-2.68-1.332zm3.712 8.644 2.418 5.587 1.519-1.294c1.01-.86.911-2.72.431-3.956-.376-.969-1.803-2.324-2.625-1.687zM467.25 495.891l11.286-10.763 2.438 5.157-6.244 6.3 1.538 3.28 5.625-5.324 2.325 4.912-5.963 5.325 1.913 4.163 5.963-5.7 2.287 4.8-10.875 10.237z" style="fill:#fff;fill-rule:evenodd"></path><path d="M118.393 564.586c-3.575 1.556-6.264 4.086-7.93 7.333-1.616 3.145-2.336 7.023-2.05 11.423 6.392 9.486 12.351 18.91 18.311 28.334 12.566 19.87 25.133 39.741 39.84 57.417 1.573 1.891 3.176 3.252 4.8 4.15 1.484.82 2.993 1.25 4.517 1.342 31.837 1.947 63.416-4.08 94.11-14.504 30.942-10.51 60.981-25.474 89.497-41.276 22.61-12.529 44.156-26.461 64.358-41.625 20.064-15.06 38.836-31.364 56.039-48.741 8.523-8.61 16.362-17.999 22.901-28.701 6.51-10.656 11.745-22.633 15.1-36.475 3.66-15.104 6.055-30.597 6.63-46.672.562-15.729-.617-32.038-4.053-49.114-1.673-2.207-3.442-4.18-5.437-5.6-1.973-1.405-4.258-2.289-7.054-2.31l.038-9.882c5.1.038 9.222 1.619 12.752 4.13 3.253 2.316 5.894 5.381 8.32 8.704l.637.872.216 1.047c3.768 18.26 5.064 35.693 4.463 52.501-.6 16.789-3.092 32.935-6.901 48.65-3.619 14.93-9.256 27.836-16.262 39.303-6.978 11.42-15.302 21.397-24.336 30.523-17.5 17.678-36.635 34.292-57.124 49.671-20.587 15.453-42.51 29.632-65.482 42.361-28.996 16.069-59.566 31.294-91.125 42.012-31.806 10.803-64.622 17.042-97.868 15.009a20.3 20.3 0 0 1-8.704-2.544c-2.662-1.472-5.213-3.611-7.628-6.514-15.181-18.245-27.898-38.355-40.615-58.464-6.261-9.9-12.523-19.802-18.851-29.149l-.706-1.044-.127-1.223c-.705-6.812.364-12.983 2.996-18.107 2.725-5.308 7.058-9.417 12.775-11.906z" style="fill:#000;fill-rule:evenodd"></path><path d="M529.81 367.655c-6.872 13.601-14.246 24.92-21.74 34.529-7.508 9.63-15.087 17.489-22.377 24.186-22.729 20.88-45.83 40.18-69.698 57.925-23.856 17.738-48.447 33.892-74.163 48.484-34.1 19.352-71.177 38.37-107.57 52.307-36.7 14.054-72.81 22.979-104.708 21.983-6.481-.202-11.68-2.261-16.476-5.774-4.425-3.242-8.375-7.667-12.725-12.997l7.674-6.24c3.864 4.737 7.31 8.62 10.903 11.253 3.223 2.361 6.668 3.744 10.896 3.875 30.428.95 65.283-7.72 100.909-21.362 35.931-13.76 72.542-32.54 106.214-51.648 25.366-14.395 49.622-30.329 73.155-47.825 23.522-17.489 46.356-36.571 68.885-57.267 6.983-6.416 14.207-13.899 21.292-22.985 7.102-9.107 14.116-19.883 20.692-32.901z" style="fill:#000;fill-rule:evenodd"></path><path d="m209.391 669.414-41.543-61.82 29.245-7.218c7.751-1.913 17.366-.608 23.55 4.05 4.999 3.765 8.32 9.13 9.17 15.112.896 6.319-1.87 8.953-5.121 11.026 4.834-.355 9.091.113 12.15 2.4 5.017 3.75 7.974 8.029 9.45 13.05 2.844 9.68-5.329 14.647-12.282 16.575zm24.87-84.328c-36.699 14.054-72.81 22.979-104.707 21.983-2.236-.07-4.32-.36-6.288-.856q1.732 2.732 3.458 5.463c12.566 19.87 25.133 39.741 39.84 57.417 1.573 1.891 3.176 3.252 4.8 4.15 1.484.82 2.993 1.25 4.517 1.342 31.837 1.947 63.416-4.08 94.11-14.504 30.942-10.51 60.981-25.474 89.497-41.276 22.61-12.529 44.156-26.461 64.358-41.625 20.064-15.06 38.836-31.364 56.039-48.741 8.523-8.61 16.362-17.999 22.901-28.701 6.51-10.656 11.745-22.633 15.1-36.475 3.66-15.104 6.055-30.597 6.63-46.672a208 208 0 0 0-1.819-35.926c-4.749 8.034-9.661 15.152-14.626 21.519-7.51 9.63-15.088 17.489-22.378 24.186-22.729 20.88-45.83 40.18-69.698 57.925-23.856 17.738-48.447 33.892-74.163 48.484-34.1 19.352-71.177 38.37-107.57 52.307m31.079 68.441-37.801-60.543 29.391-10.97c7.308-2.728 14.936-1.338 19.969 4.255 4.944 5.496 8.515 11.258 8.324 18.001-.137 4.832-2.427 7.446-5.663 9.863 5.825-1.234 11.005-.423 14.024 5.063l8.306 15.094c.427.777 1.119 1.7 1.89 2.137.932.528 1.45.55 2.476.863l-14.666 6c-2.058-.419-4.4-4.362-6.6-8.137-2.217-3.806-4.068-8.237-7.5-11.326-1.459-1.313-3.613-1.576-5.85-.675l-5.588 2.25 13.238 22.725zm49.77-20.6-33.339-61.088 15.526-7.613 31.088 62.325zm-5.325-57.02-7.48-13.575 41.382-23.85 6.412 14.325-13.125 7.275 22.95 49.425-12.825 7.163-24.601-48.263zm45.934-16.99c-6.338-15.571-4.095-28.42 9.226-37.836 13.641-9.643 23.72-6.546 31.125 9.487 3.15 6.648 6.1 14.001 8.85 22.05 5.46 15.826 2.833 28.252-11.1 36.824-9.723 5.982-17.963 4.74-24.226-4.65-5.361-8.04-10.108-16.621-13.875-25.875m51.962-36.642c-2.32.122-4.887-.984-6.075-3.6-2.405-5.295-1.725-10.242 2.85-13.95 2.436-1.975 7.295-3.738 8.963-1.163l2.381 3.675c-1.75 1.35-3.481 2.962-5.231 4.313-1.298-2.613-1.934-3.624-3.188-2.663-.938.719-1.542 1.89-.975 3.788.599 2.006 1.846 1.675 2.963 1.575 2.693-.241 3.834-1.029 5.887-.825 2.837.281 4.55 2.437 5.363 4.537 1.826 4.713.104 9.865-3.563 12.6-1.793 1.337-4.008 2.809-6.337 3-3.777.31-4.225-2.262-5.813-4.837 2.125-1.312 4.063-3.038 6.188-4.35.555 2.002 1.546 3.355 2.962 2.25 1.255-.98 1.803-2.342 1.088-3.75-.86-1.692-2.27-1.84-3.375-1.65-1.387.237-2.683.975-4.088 1.05m17.062 2.005-10.913-25.95 9.244-7.068c2.728-2.086 4.923-1.01 6.881.956 1.405 1.41 2.134 3.444 2.55 5.7.646 3.491.033 6.998-2.4 8.925l-3.787 3 3.825 9.637zm14.287-16.626c-2.937-2.084-4.785-7.77-6.656-12.675-2.242-5.877-1.556-10.368 3.092-14.457 3.042-2.676 6.558-3.406 8.738-.637 3.056 3.88 4.726 8.3 6.207 12.806 1.512 4.597.87 9.958-3.375 13.688-2.595 2.28-5.76 2.867-8.006 1.275m28.22-11.763 11.286-10.763 2.438 5.157-6.244 6.3 1.538 3.28 5.625-5.324 2.325 4.912-5.962 5.325 1.912 4.163 5.963-5.7 2.287 4.8-10.875 10.237zm-13.95 12.847 8.513-7.707c2.418-2.19 5.112-1.41 6.638 2.231 1.252 2.99.868 5.391-.637 7.463 2.827-1.254 4.565-.012 5.606 2.794 2.154 5.807-.088 9.061-2.832 11.418l-7.162 6.863zm-15.206 12.77 5.513-4.612 6.824 16.35c.891 2.134 1.636 3.151 2.738 2.25 1.357-1.11 1.01-2.352.075-4.613l-6.807-16.463 5.157-4.406 6.75 16.519c2.311 5.657.494 9.696-3.3 12.825-4.162 3.433-7.259 3.844-9.562-1.312zm-24.47 28.175c-1.17-6.143-.487-9.54 3.9-12.562 3.082-2.122 7.272-3.74 9.451.75l1.592 3.28-5.38 4.182-1.2-2.625c-.381-.833-1.738-1.83-2.475-1.2-.938.801-.725 2.492-.375 3.675 1.199 4.054 2.919 7.651 4.912 11.663.387.779 1.675 1.533 2.55.562.945-1.048.387-3.119-.225-4.575l-.937-2.231 5.25-4.032 1.237 3.113c1.227 3.086 1.31 8.215-4.013 12.225-4.083 3.076-7.158 2.999-9.637-1.275-2.042-3.519-3.84-6.694-4.65-10.95m41.461-51.11-10.97-24.842 9.113-7.912c2.656-2.306 6.04-.416 7.35 2.662 1.372 3.223 1.896 5.175-.056 8.456 1.45-.681 3.004-.416 3.75 1.274l2.776 6.281c.444 1.004 1.184 1.501 2.269 1.481l-5.344 4.763c-.269.24-.954.038-1.12-.282l-3.643-6.993c-.294-.565-1.357-.942-1.837-.525l-1.425 1.237 4.387 9.825zm-29.272 32.705 5.644-4.67 7.725 18.713 6-4.875 2.4 4.95-11.4 9.15zm34.839-63.96-2.888-5.362 12.75-11.777 2.512 5.68-3.9 3.658 8.157 19.107-5.25 4.575-7.931-19.012z" style="fill:#697174;fill-rule:evenodd"></path><path d="m194.75 615.693 8.925 14.7 5.1-1.275c2.784-.696 4.933-2.645 4.65-4.875-.45-3.547-2.82-7.24-6.15-8.85-2.112-1.022-4.678-1.676-6.953-1.104zM215.433 638.661l-5.908 1.594 9.488 15.675 7.163-2.4c1.816-.609 3.564-4.238 2.138-7.163-1.219-2.498-3.157-4.98-5.419-6.412-2.146-1.359-5.583-1.8-7.463-1.294M251.006 598.663l9.451 16.574 4.575-1.912c2.464-1.03 4.145-2.836 4.35-5.063.278-3.002-.725-5.098-1.95-7.05-2.84-4.53-8.026-6.03-11.174-4.725zM368.466 545.34c4.575 11.338 8.93 21.039 14.513 30.976 2.107 3.749 5.972 5.46 8.25 3.525 3.84-3.264 2.867-8.654 1.614-12.75-2.976-9.725-8.28-19.858-12.862-29.587-2.173-4.613-5.812-7.143-9.375-4.5-4.203 3.117-3.554 7.617-2.14 12.336M421.734 499.023c-.075-.113 2.512 6.094 2.512 6.094l1.481-1.144c.786-.607.75-2.267.394-3.563a6 6 0 0 0-.694-1.612c-.751-1.174-1.675-1.14-2.418-.638zM436.967 488.472c1.666 4.507 3.447 8.99 5.7 13.163.319.59 1.659.88 2.175.45.913-.762.934-2.216.337-4.163-1.31-4.275-3.256-8.081-5.175-12.225-.359-.775-1.729-1.436-2.475-.675-.847.865-.982 2.315-.562 3.45M451.681 474.047l2.531 5.85 1.425-1.106c.867-.672.908-3.166.282-4.612-.695-1.606-1.75-2.234-2.907-1.257zM461.27 507.593l-1.238 1.05 2.118 4.744 1.37-1.218c.782-.697.803-2.266.43-3.244-.44-1.161-1.967-1.938-2.68-1.332M465.487 515.937l-1.744 1.35 2.419 5.587 1.519-1.294c1.01-.86.911-2.72.431-3.956-.376-.969-1.803-2.324-2.625-1.687" style="fill:#697174;fill-rule:evenodd"></path><path d="M276.358 667.895c-.717 1.025-.73 2.049-.15 3.075l28.726 50.85c2.175 3.85 6.362 5.167 10.612 2.813l20.514-11.363c10.313-6.594 15.576-17.487 10.05-29.138-3.913-8.25-12.026-12.573-22.35-10.2 2.753-5.291 3.049-10.181.75-15.6-1.18-2.779-3.15-5.45-6.751-7.5z" style="fill:none"></path><path d="m294.508 669.656 6.788 11.925 6.487-3.487c3.529-2.08 5.542-5.268 3.45-9.488-2.558-4.477-5.772-4.936-10.275-2.475zM308.571 694.555l7.388 13.2 10.35-6.037c4.462-2.804 5.804-6.816 3.75-10.35-3.111-5.352-7.213-4.205-11.475-2.437z" style="fill:none"></path><path d="m315.959 707.756-7.388-13.2 10.013-5.625c4.262-1.768 8.364-2.915 11.475 2.437 2.054 3.534.712 7.546-3.75 10.35zm-39.932-39.28c-.37.83-.29 1.661.181 2.494l28.726 50.85c2.175 3.85 6.362 5.167 10.612 2.813l20.514-11.363c10.313-6.594 15.576-17.487 10.05-29.138-3.913-8.25-12.026-12.573-22.35-10.2 2.753-5.291 3.049-10.181.75-15.6-1.124-2.646-2.965-5.195-6.247-7.203-13.835 6.46-27.932 12.357-42.236 17.347m35.206.13c2.092 4.22.079 7.408-3.45 9.488l-6.487 3.487-6.788-11.925 6.45-3.525c4.503-2.461 7.716-2.002 10.275 2.475" style="fill:#fff;fill-rule:evenodd"></path><path d="M362.832 627.468c.632 3.197-.571 4.64-2.663 5.85-2.546 1.473-5.667 1.82-8.25 3.113-2.729 1.365-5.601 3.962-5.025 6.9.395 2.014 2.663 3.296 4.35 3 4.735-.832 8.467-2.58 12.75-3.75 8.358-2.284 14.833-.484 19.5 6.675 6.756 10.364 3.74 18.513-3.263 25.462-5.828 5.782-13.909 9.466-19.95 9.188-3.526-.163-6.523-1.833-7.012-6.076-.423-3.658 1.62-6.049 5.287-7.05 3.605-.983 6.789-1.684 9.488-3.412 3.075-1.97 6.202-4.69 4.425-8.55-1.578-3.424-4.94-3.233-7.988-2.288-3.943 1.224-8.143 2.856-12.338 3.825-3.806.88-7.89.935-12.057-2.456-4.509-3.67-6.922-8.586-7.126-14.982 9.883-5.137 19.99-10.312 29.872-15.449" style="fill:none"></path><path d="M363.994 642.58c-4.283 1.17-8.015 2.919-12.75 3.75-1.687.297-3.955-.985-4.35-3-.576-2.937 2.296-5.534 5.025-6.9 2.583-1.291 5.704-1.64 8.25-3.112 1.927-1.115 3.1-2.427 2.778-5.126-9.806 5.416-19.79 10.73-29.93 15.8.427 5.875 2.816 10.446 7.07 13.907 4.166 3.391 8.25 3.336 12.056 2.456 4.195-.97 8.395-2.601 12.338-3.825 3.049-.945 6.41-1.136 7.988 2.288 1.777 3.86-1.35 6.58-4.425 8.55-2.699 1.728-5.883 2.429-9.488 3.413-3.667 1-5.71 3.391-5.287 7.05.49 4.242 3.486 5.912 7.012 6.075 6.041.278 14.122-3.406 19.95-9.188 7.004-6.95 10.019-15.098 3.263-25.462-4.667-7.159-11.142-8.96-19.5-6.675" style="fill:#fff;fill-rule:evenodd"></path><path d="M385.098 614.564c-1.295 4.077.613 8.507 3.075 11.7 2.246 2.913 6.16 5.344 9.825 5.026 3.76-.327 7.266-3.345 9.15-6.675 1.076-1.904 1.835-4.267 5.1-4.126 1.713.074 4.013 2.693 3.975 4.838-.08 4.522-3.576 8.022-6.525 10.687-3.327 3.007-7.97 5.294-12.45 5.1-6.524-.281-10.974-2.755-14.85-6.525-4.029-3.918-7.311-9.195-7.125-14.4z" style="fill:none"></path><path d="M388.173 626.264c-2.276-2.952-4.078-6.96-3.315-10.77a576 576 0 0 1-9.578 5.708c.236 4.87 3.35 9.723 7.118 13.387 3.876 3.77 8.326 6.244 14.85 6.525 4.48.194 9.123-2.093 12.45-5.1 2.95-2.665 6.444-6.165 6.525-10.687.038-2.145-2.262-4.764-3.975-4.838-3.265-.141-4.024 2.222-5.1 4.125-1.884 3.33-5.39 6.349-9.15 6.675-3.665.319-7.579-2.112-9.825-5.025" style="fill:#fff;fill-rule:evenodd"></path><path d="m304.934 721.82-28.726-50.85c-.47-.833-.55-1.663-.181-2.494q-1.428.497-2.859.983c-19.201 6.522-38.771 11.38-58.582 13.76 10.187 11.502 21.888 21.58 34.651 30.165 14.528 9.774 30.513 17.695 47.083 23.412 34.493-11.39 63.398-33.018 87.32-60.157 26.696-30.286 47.016-66.99 62.683-104.483a539 539 0 0 1-16.548 12.93 561 561 0 0 1-44.917 30.408c-.763 3.81 1.039 7.818 3.315 10.77 2.246 2.913 6.16 5.344 9.825 5.025 3.76-.326 7.266-3.344 9.15-6.675 1.076-1.903 1.835-4.266 5.1-4.125 1.713.074 4.013 2.693 3.975 4.838-.08 4.522-3.576 8.022-6.525 10.687-3.327 3.007-7.97 5.294-12.45 5.1-6.524-.281-10.974-2.755-14.85-6.525-3.767-3.664-6.882-8.516-7.118-13.387a581 581 0 0 1-10.987 6.245l-1.346.745c.322 2.699-.851 4.011-2.778 5.126-2.546 1.473-5.667 1.82-8.25 3.113-2.729 1.365-5.601 3.962-5.025 6.9.395 2.014 2.663 3.296 4.35 3 4.735-.832 8.467-2.58 12.75-3.75 8.358-2.284 14.833-.484 19.5 6.675 6.756 10.364 3.74 18.513-3.263 25.462-5.828 5.782-13.909 9.466-19.95 9.188-3.526-.163-6.523-1.833-7.012-6.076-.422-3.658 1.62-6.049 5.287-7.05 3.605-.983 6.789-1.684 9.488-3.412 3.075-1.97 6.202-4.69 4.425-8.55-1.578-3.424-4.94-3.233-7.988-2.288-3.943 1.224-8.143 2.856-12.338 3.825-3.806.88-7.89.935-12.057-2.456-4.253-3.462-6.641-8.032-7.07-13.908a613 613 0 0 1-14.753 7.138c3.283 2.008 5.123 4.557 6.246 7.203 2.3 5.419 2.004 10.309-.75 15.6 10.325-2.373 18.438 1.95 22.35 10.2 5.527 11.65.264 22.544-10.05 29.138l-20.513 11.363c-4.25 2.354-8.437 1.037-10.612-2.813" style="fill:#000;fill-rule:evenodd"></path><path d="m294.508 669.656 6.788 11.925 6.487-3.487c3.529-2.08 5.542-5.268 3.45-9.488-2.558-4.477-5.772-4.936-10.275-2.475zM318.584 688.93l-10.013 5.625 7.388 13.2 10.35-6.037c4.462-2.804 5.804-6.816 3.75-10.35-3.111-5.352-7.213-4.205-11.475-2.437M143.867 510.577c3.585 15.582 6.624 25.478 11.827 40.445 5.224 15.028 11.149 29.88 18.012 44.516l-8.503 4.26c-7.028-14.988-13.532-30.224-18.85-45.52-5.338-15.357-10.954-37.038-14.61-52.93a175 175 0 0 0 12.124 9.229M184.554 535.976c2.59 9.556 4.307 13.718 7.745 22.956 3.443 9.25 7.075 18.76 10.96 27.91l-8.845 3.538c-3.87-9.114-7.79-18.358-11.377-28-3.593-9.652-8.199-23.96-10.83-33.671 3.803 2.578 7.942 4.989 12.347 7.267M230.136 556.21c1.571 6.394 3.183 9.832 5.923 15.925.863 1.92 1.039 2.477 1.38 3.249l-8.693 3.804c-1.228-2.769-1.282-2.888-1.342-3.023-2.921-6.497-7.28-17.235-9.204-24.64 3.713 1.835 7.722 3.45 11.936 4.686" style="fill:#000;fill-rule:evenodd"></path><path d="M171.075 442.785c-1.596 16.664 9.078 36.004 18.75 55.126 14.187 10.238 27.7 17.337 40.687 21.975l29.176-23.662-18.262-58.2-44.362-18.825z" style="fill:none"></path><defs><linearGradient id="a"><stop offset="0%"></stop><stop offset="12%" stop-color="#fff"></stop><stop offset="0%" stop-color="#d6d6d6"></stop></linearGradient><linearGradient xlink:href="#a" id="b" x1="0" x2="0" y1="0" y2="1" gradientTransform="rotate(-63 .5 .5)" gradientUnits="objectBoundingBox"></linearGradient></defs><path d="M171.075 442.785c-1.596 16.664 9.078 36.004 18.75 55.126 14.187 10.238 27.7 17.337 40.687 21.975l29.176-23.662-18.262-58.2-44.362-18.825z" style="fill:url(#b)"></path><path d="M176.133 362.77c2.288-.031 2.803-.97 4.331-1.462 1.5-.484 3.007-1.045 4.575-1.2 5.506-.546 11.1-.112 16.576-.9 1.57-.226 3.038-1.106 4.275-2.1 13.332-10.72 26.777-20.161 41.289-26.55 2.563-1.375 4.247-3.644 6.225-6.15.926-1.174 1.914-2.538 2.927-3.638 1.925-2.925 3.75-5.92 5.775-8.775 2.233-3.147 4.97-6.25 7.669-9.15.68-.731 1.53-1.125 2.381-1.65-1.683-1.437-3.016-3.137-3.9-5.175" style="fill:none"></path><defs><linearGradient id="c"><stop offset="0%" stop-color="#060609"></stop><stop offset="12%" stop-color="#fff"></stop><stop offset="0%" stop-color="#d6d6d6"></stop><stop offset="83887360%" stop-color="#fff"></stop></linearGradient></defs><path d="M176.18 362.77c2.248-.044 2.708-1.215 4.284-1.462 1.501-.236 3.007-1.038 4.575-1.2 5.504-.57 11.1-.112 16.576-.9 1.57-.226 3.038-1.106 4.275-2.1 13.332-10.72 26.777-20.161 41.289-26.55 2.563-1.375 4.247-3.644 6.225-6.15.926-1.174 1.914-2.538 2.927-3.638 1.925-2.925 3.75-5.92 5.775-8.775 2.233-3.147 4.97-6.25 7.669-9.15.68-.731 1.53-1.125 2.381-1.65-1.632-1.393-2.934-3.033-3.817-4.989-39.468 7.049-73.165 32.171-92.16 66.563" style="fill:url(#c)"></path><path d="M296.297 350.887c-1.503.367-1.64 1.424-1.668 2.212-.66 18.21-1.137 36.425-1.706 54.638l-1.425.768c15.781 12.663 34.45 26.61 48.226 36.3 14.714-5.68 29.562-11.5 42.863-18.393 6.205-16.53 7.594-35.068 6.6-54.6l-2.25.076-41.775-36c-16.282 5.024-34.756 11.549-48.865 14.999" style="fill:none"></path><defs><linearGradient id="d"><stop offset="0%"></stop><stop offset="12%" stop-color="#fff"></stop><stop offset="0%" stop-color="#d6d6d6"></stop><stop offset="83887360%" stop-color="#fff"></stop><stop offset="0%" stop-color="#fff"></stop></linearGradient><linearGradient xlink:href="#d" id="e" x1="0" x2="0" y1="0" y2="1" gradientTransform="rotate(-75 .5 .5)" gradientUnits="objectBoundingBox"></linearGradient></defs><path d="M296.297 350.887c-1.503.367-1.64 1.424-1.668 2.212-.66 18.21-1.137 36.425-1.706 54.638l-1.425.768c15.781 12.663 34.45 26.61 48.226 36.3 14.714-5.68 29.562-11.5 42.863-18.393 6.205-16.53 7.594-35.068 6.6-54.6l-2.25.076-41.775-36c-16.282 5.024-34.756 11.549-48.865 14.999" style="fill:url(#e)"></path><path d="M343.464 337.317c-3.412-9.318-7.91-18.951-16.031-29.793-4.869-6.5-13.442-10.362-23.419-13.182" style="fill:none;stroke:#1b1918;stroke-width:.21600001;stroke-linecap:butt;stroke-linejoin:miter;stroke-dasharray:none"></path><path d="M296.562 350.81c-13.438-8.718-38.937-17.51-42.563-22.687-1.21-1.729.157-4.22.234-6.329l-3.163 3.938c.003 2.25.802 4.4 1.992 6.398l21.094 9.867-20.883-8.671c13.052 6.522 26.597 12.79 40.336 18.562l1.18 3.973z" style="fill:none"></path><path d="M250.058 327.976c-.046.485.026 1.215-.345 1.53-.844.713-1.741 1.302-2.59 1.991-.236.192.381.785.644.633.737-.425 1.828-1.052 2.485-1.546.365-.276.412-1.537.492-3.376-.297.281-.389.487-.686.768" style="fill:#dee9eb;fill-rule:evenodd"></path><path d="M327.433 307.524c7.887 10.528 12.356 19.916 15.733 28.984q1.002-.314 1.996-.62l41.774 36 2.25-.075q.103 2.021.171 4.027l1.095-4.123 18.732-.256-1.425-1.725-18.45.15c-12.455-12.786-27.52-24.4-41.928-34.568-.419-.296-14.872-27.211-15.109-27.627 0 0-1.62-1.132-5.019-.404z" style="fill:#aeafb4;fill-rule:evenodd"></path><path d="M327.214 307.236c3.472-2.393 7.58-3.806 11.813-4.303a136.4 136.4 0 0 0-32.44-7.83c8.724 2.706 16.156 6.366 20.627 12.133" style="fill:#6b7278;fill-rule:evenodd"></path><path d="M179.436 361.503c-.454 3.288-4.16 6.325-3.605 8.57 1.26-1.974 3-3.303 4.322-5.134 1.445-2.003 3.397-2.126 5.46-2.302 1.87-.159 3.798.001 5.673-.07 2.415-.092 4.628.04 7.031.281 1.089.11 1.354.645 1.126 1.407-3.833 12.793-4.1 33.87-2.601 54.536.86-.062 1.906-.136 2.765-.199-3.253-18.44-3.313-36.087 1.152-52.763" style="fill:none"></path><path d="M211.202 425.414c-4.25-2.438-9.953-5.063-13.875-7.5-4.172 3.453-8.183 6.534-12.187 10.313-4.566 4.307-8.953 9.218-12.891 13.265-3.288-4.302-6.572-10.248-9.61-22.688-.028 2.89-.04 5.782.562 8.673 3.051 7.385 5.655 11.537 8.204 15.281" style="fill:none"></path><path d="m171.29 442.59 25.774-23.391 12.515 5.31c-3.627-1.971-7.923-4.033-11.258-5.995-.509.024-1.02.047-1.48.08l-.018-.264c-3.991 3.286-7.84 6.27-11.684 9.897-4.565 4.307-8.952 9.218-12.89 13.265-3.288-4.302-6.572-10.248-9.61-22.688-.028 2.89-.04 5.782.562 8.673 3.005 7.274 5.577 11.412 8.09 15.113" style="fill:#a2a2a2;fill-rule:evenodd"></path><path d="M189.804 497.743c11.372 9.174 25.007 16.172 38.882 22.593 4.86 6.235 10.118 12.164 16.384 17.884-4.39-5.844-9.896-11.373-13.014-17.526-.224-.442.216-.862.639-1.178 9.846-7.355 19.026-14.99 27.75-23.156 18.112 4.124 32.485 2.503 36.844 1.5-13.767-.305-27.724-1.236-36.327-2.813-6.25-17.844-12.031-35.922-18.75-53.766" style="fill:none"></path><path d="M228.687 520.336c4.86 6.235 10.117 12.164 16.383 17.884-4.39-5.844-9.896-11.373-13.014-17.526-.224-.442.216-.862.639-1.178 9.846-7.355 19.026-14.99 27.75-23.156 18.112 4.124 32.485 2.503 36.844 1.5-13.767-.305-27.724-1.236-36.327-2.813-5.78-16.501-11.159-33.202-17.248-49.733l15.974 50.91-29.176 23.662c-12.356-4.413-25.19-11.054-38.628-20.507 10.937 8.38 23.763 14.924 36.802 20.957" style="fill:#8a98a3;fill-rule:evenodd"></path><path d="M289.335 379.835c.349 15.641-4.978 26.05-12.75 34.125-9.425 9.793-21.061 18.059-31.078 26.081l.422.47c2.781-1.759 6.443-3.798 9.225-5.555 3.367-2.117 6.57-3.873 9.858-6.108 1.35-.917 2.585-2.184 3.871-3.187 3.244-2.527 6.476-5 9.741-7.5 4.493-3.188 10.204-7.411 14.696-10.599.75-1.075 7.766-52.978 5.277-54.42-13.68-7.932-44.56-24.435-45.639-20.262-.158.612-1.895.289-1.827.326 2.76 1.515 6.297 3.17 9.327 4.723 4.922 2.375 9.66 4.615 14.765 7.125 4.862 2.39 9.717 8.257 12.096 13.64 2.687 6.08 1.858 14.064 2.016 21.14" style="fill:#fff;fill-rule:evenodd"></path><path d="M251.178 327.165c.256 1.732.95 3.395 1.884 4.965l21.094 9.867-20.878-8.669c13.05 6.522 26.594 12.79 40.331 18.56l.948 3.196.071-1.985c.029-.788.166-1.845 1.669-2.212l.26-.064.005-.013c-13.438-8.718-38.937-17.51-42.563-22.687-.853-1.218-.427-2.812-.073-4.386q-.264.343-.522.67c-.764.967-1.483 1.9-2.226 2.758z" style="fill:#9bafba;fill-rule:evenodd"></path><path d="m243.55 536.63 5.23 4.97" style="fill:none;stroke:#1b1918;stroke-width:.56690001;stroke-linecap:butt;stroke-linejoin:miter;stroke-dasharray:none"></path><path d="M292.028 549.26c-28.8-1.48-56.926-9.097-83.25-30.674-10.818-8.868-21.2-20.21-29.163-33.71-19.067-32.325-26.301-78.173-3.2-122.61" style="fill:none"></path><path d="M179.615 484.877c-18.9-32.043-26.174-77.373-3.8-121.443a132.2 132.2 0 0 0-16.142 62.557c-.43 68.197 51.778 122.26 118.318 129.279a814 814 0 0 0 12.395-6.1c-14.3-.854-28.427-3.26-42.244-8.177-13.458-4.79-26.622-11.963-39.363-22.407-10.819-8.868-21.201-20.21-29.164-33.71" style="fill:#000;fill-rule:evenodd"></path><path d="M162.639 418.804c3.038 12.44 6.322 18.386 9.61 22.688 3.938-4.047 8.325-8.958 12.89-13.266 3.84-3.621 7.684-6.603 11.67-9.885-1.461-20.521-1.171-41.386 2.634-54.086.228-.762-.037-1.298-1.126-1.407-2.403-.241-4.616-.373-7.031-.28-1.875.07-3.803-.09-5.672.07-2.064.175-4.015.298-5.461 2.301-1.322 1.831-3.062 3.16-4.322 5.133-.54-2.18 2.946-5.112 3.559-8.293-.855.459-1.575.959-3.21.99l-.365.665c-22.374 44.07-15.1 89.4 3.8 121.443 7.963 13.498 18.345 24.84 29.164 33.709 12.74 10.444 25.905 17.617 39.363 22.407l-3.464-3.29q.197.258.392.517c-6.266-5.72-11.524-11.65-16.383-17.884-13.04-6.033-25.866-12.577-36.802-20.957q-1.029-.723-2.06-1.468c-9.672-19.122-20.346-38.462-18.75-55.126l.215-.195c-2.511-3.701-5.084-7.839-8.089-15.113-.603-2.891-.59-5.782-.562-8.673" style="fill:#fff;fill-rule:evenodd"></path><path d="m339.445 523.567-21.825-24.6 23.4 23.025" style="fill:none"></path><path d="m317.62 498.967 21.346 24.06q.982-.562 1.962-1.127z" style="fill:#687176;fill-rule:evenodd"></path><path d="M288.331 498.854c8.168.357 16.258.1 24.225-1.143 2.367-.673 4.984-.554 6.15.374 6.775-17.133 15.108-34.552 19.65-50.925l6.751-3.15c-2.1.525-4.538 1.05-6.638 1.575-2-2.075-3.587-3.7-5.924-5.775 1.575 2.037 3.193 3.412 4.312 5.55.314.6.398 1.396.15 2.025-5.223 13.265-10.052 26.416-15.675 39.376-1.043 2.404-2.333 4.77-4.275 6.6-1.14 1.074-1.387 1.807-3.075 2.55-1.278.562-3.512 1.85-4.762 2.474" style="fill:none"></path><path d="M337.007 447.385c-5.223 13.264-10.052 26.416-15.675 39.375-1.043 2.405-2.333 4.77-4.275 6.6-1.14 1.075-1.387 1.808-3.075 2.55-1.11.489-2.938 1.522-4.219 2.196q1.4-.178 2.793-.396c2.367-.672 4.984-.553 6.15.375 6.775-17.133 15.108-34.552 19.65-50.925l6.751-3.15c-2.1.525-4.538 1.05-6.638 1.575-2-2.075-3.587-3.7-5.924-5.775 1.575 2.037 3.193 3.412 4.312 5.55.314.6.398 1.395.15 2.025" style="fill:#64676c;fill-rule:evenodd"></path><path d="M292.024 408.365c-6.763 4.837-13.614 9.554-20.289 14.513-2.23 1.656-4.113 3.765-6.412 5.324-6.303 4.276-12.994 7.955-19.35 12.15-.151.1-.008.613.15.526a183 183 0 0 0 15.263-9.45c3.774-2.606 6.763-4.35 10.087-6.526 6.076-3.974 11.673-8.495 18.188-11.7 1.481-.728 3.088-.856 4.8.413 6.805 5.042 13.913 9.947 20.739 14.962 4.674 3.435 9.38 6.827 14.1 10.2 1.505 1.077 3.107 2.023 4.575 3.15 1.236.95 2.193 2.266 3.525 3.076.7.424 1.589.635 2.4.525 2.18-.298 4.305-1.096 6.356-1.893 10.687-4.157 21.259-8.487 31.819-12.957 2.316-.98 4.422-2.48 6.825-3.225.619-.192 1.386.098 1.874.525 7.926 6.935 13.225 15.848 19.032 24.825.908-1.104-4.951-10.931-8.756-16.163-3.214-4.419-7.348-8.054-11.1-11.55-1.618.687-4.069 1.613-6.094 2.588" style="fill:none"></path><path d="M322.68 433.644c2.5 3 5.8 6.705 7.351 8.85 1.53 2.114 2.028 5.32 1.425 7.875-1.78 7.548-4.26 15.204-7.273 22.35-2.628 6.234-5.87 12.132-9.6 17.664-3.612 5.357-11.586 6.192-17.898 7.542" style="fill:none"></path><path d="M324.183 472.72c-2.628 6.233-5.87 12.13-9.6 17.663-3.548 5.262-11.305 6.161-17.561 7.47l.267.006c-1.562.36-4.41.799-8.257 1.025 6.978.274 13.897.092 20.731-.778 1.281-.674 3.11-1.707 4.22-2.195 1.687-.743 1.934-1.476 3.074-2.55 1.942-1.83 3.232-4.196 4.275-6.6 5.623-12.96 10.452-26.111 15.675-39.376.248-.63.164-1.425-.15-2.025a12 12 0 0 0-1.02-1.614c-.644-.617-1.258-1.277-1.962-1.818-1.468-1.128-3.07-2.074-4.575-3.15a1760 1760 0 0 1-5.81-4.17c2.363 2.795 5.152 5.965 6.541 7.886 1.53 2.114 2.028 5.32 1.425 7.875-1.78 7.548-4.26 15.205-7.273 22.35" style="fill:#fff;fill-rule:evenodd"></path><path d="m405.653 452.772 3.412.037c-1.167 11.958-4.444 21.806-8.812 30.564l-2.775 1.8c2.8-5.95 5.325-12.176 7.125-19.126.896-5.026 2.27-10.579 1.05-13.275" style="fill:none"></path><path d="m409.065 452.81-3.337-.037-.022.03-.02-.03-.033-.001c1.22 2.696-.154 8.25-1.05 13.275-1.8 6.95-4.324 13.176-7.125 19.126l2.775-1.8c4.368-8.758 7.645-18.606 8.812-30.564" style="fill:#a2afb8;fill-rule:evenodd"></path><path d="M315.2 428.577c4.674 3.435 9.38 6.827 14.1 10.2 1.505 1.077 3.107 2.023 4.575 3.15.704.542 1.318 1.202 1.962 1.82-.982-1.327-2.149-2.458-3.293-3.937 2.266 2.01 3.827 3.6 5.742 5.585q.242.072.492.113c2.027-.5 4.331-.999 6.33-1.498l-.302.14a93 93 0 0 0 1.35-.515c10.687-4.157 21.259-8.487 31.818-12.957 2.317-.98 4.422-2.48 6.825-3.225.62-.192 1.387.098 1.875.525 7.926 6.935 13.224 15.848 19.032 24.825.908-1.104-4.951-10.931-8.756-16.163-3.214-4.419-7.348-8.054-11.1-11.55-.941.4-2.165.88-3.423 1.405-13.26 6.856-28.048 12.652-42.703 18.31-13.732-9.66-32.323-23.546-48.071-36.175-6.482 4.63-13.04 9.156-19.443 13.896l-.005.004-1.302.997c-1.881 1.533-3.572 3.314-5.58 4.676-6.303 4.275-12.994 7.954-19.35 12.15-.151.1-.19.575-.033.487 5.263-2.92 10.493-5.993 15.446-9.412 3.774-2.605 6.763-4.35 10.087-6.525 6.077-3.975 11.673-8.496 18.188-11.7 1.481-.73 3.088-.856 4.8.412 6.805 5.043 13.913 9.947 20.739 14.963z" style="fill:#b8b9bd;fill-rule:evenodd" data-source="https://football-logos.cc"></path><path d="M405.342 450.765c-2.609-6-4.174-10.942-9.835-17.84-2.165-2.64-5.1-5.3-7.424-7.8 1.224-16.038 1.125-32.062.75-48.9" style="fill:none"></path><path d="M385.85 425.09c3.752 3.496 7.886 7.131 11.1 11.55 2.651 3.645 6.3 9.522 7.962 13.125-2.367-5.56-4.062-10.33-9.405-16.84-2.165-2.64-5.1-5.3-7.424-7.8.77-10.088 1.016-20.17 1-30.454-.78 11.158-2.769 21.812-6.496 31.741l-.16.083c1.258-.524 2.482-1.005 3.423-1.405" style="fill:#e0e1e3;fill-rule:evenodd"></path><path d="M417.986 398.263c5.59 28.532.37 55.543-11.883 81.042a751 751 0 0 0 11.58-8.662c5.043-13.844 7.79-28.86 7.79-44.652 0-49.322-27.317-91.439-67.186-114.046 31.544 20.714 52.374 48.886 59.7 86.318" style="fill:#000;fill-rule:evenodd"></path><path d="M254 328.123c3.625 5.177 29.124 13.969 42.562 22.687l-.004.013c13.5-3.325 30.929-9.417 46.608-14.315-3.377-9.068-7.846-18.456-15.733-28.984l-.18-.237-.039-.05c-4.471-5.768-11.903-9.428-20.628-12.134a138 138 0 0 0-13.938-.887 128.7 128.7 0 0 0-24.31 1.99c.884 1.956 2.187 3.595 3.818 4.989-.85.525-1.7.919-2.38 1.65-2.7 2.9-5.437 6.003-7.67 9.15-2.026 2.856-3.85 5.85-5.775 8.775-.825.896-1.633 1.967-2.405 2.967-.354 1.574-.78 3.169.074 4.386z" style="fill:#c2cbd2;fill-rule:evenodd;stroke:#221d1f;stroke-width:.56690001;stroke-linecap:butt;stroke-linejoin:miter;stroke-dasharray:none"></path><defs><linearGradient id="f"><stop offset="0%" stop-color="#fff"></stop><stop offset="12%" stop-color="#fff"></stop><stop offset="0%" stop-color="#d6d6d6"></stop><stop offset="83887360%" stop-color="#fff"></stop><stop offset="0%" stop-color="#fff"></stop><stop offset="5%" stop-color="#fff"></stop><stop offset="0%"></stop><stop offset="3120562176%" stop-color="#fff"></stop><stop offset="0%"></stop><stop offset="11188673%" stop-color="#fff"></stop></linearGradient><linearGradient xlink:href="#f" id="g" x1="0" x2="0" y1="0" y2="1" gradientTransform="rotate(-80 .5 .5)" gradientUnits="objectBoundingBox"></linearGradient></defs><path d="M248.706 333.293h-.005c-.638.188-1.27.423-1.911.593l-.01.002c.652-.172 1.284-.42 1.927-.596zm1.546-2.71q-.003.002 0 0m-5.265 2.811c-1.61.584-3.327 1.145-5.058 1.994l.04-.02c1.274-.625 2.652-1.164 3.998-1.62zm79.196 139.326c3.013-7.147 5.494-14.803 7.273-22.351.603-2.556.105-5.76-1.425-7.875-1.389-1.92-4.178-5.09-6.54-7.886a1132 1132 0 0 1-8.291-6.03c-6.826-5.016-13.934-9.92-20.739-14.963-1.712-1.269-3.319-1.142-4.8-.413-6.515 3.205-12.112 7.726-18.188 11.7-3.324 2.175-6.313 3.92-10.087 6.525l-.018.013a183 183 0 0 1-15.245 9.437c-.05.028-.098-.004-.136-.063l-.047.026c-.122.068-.126-.203-.05-.374l-.383-.425c10.017-8.022 21.653-16.288 31.078-26.081 7.772-8.076 13.098-18.484 12.75-34.125-.158-7.077.671-15.062-2.016-21.14-2.38-5.384-7.234-11.251-12.096-13.641-5.105-2.51-9.844-4.75-14.765-7.125-3.03-1.553-6.566-3.208-9.327-4.723-.041-.022.578.087 1.109.041l-2.104-.164c-.49-.007-.962.082-1.43.21.476-.14.957-.253 1.45-.295.806-.067 1.61.04 2.434.188.187-.057.328-.152.368-.307.067-.26.25-.44.538-.546l-.434-.203c-.934-1.57-1.628-3.233-1.884-4.965q-.226.26-.454.512c-.07 1.583-.139 2.655-.472 2.906l-.004.002-.008.007c-.658.494-1.74 1.116-2.473 1.538-.263.152-.88-.441-.644-.633.849-.69 1.746-1.278 2.59-1.992.166-.14.247-.39.287-.648.022-.152.03-.312.04-.466-.857.849-1.781 1.587-2.862 2.167-6.996 3.08-13.745 6.87-20.352 11.17a269 269 0 0 0-1.636 4.596c-9.126 26.388-13.906 53.695-9.142 80.93l25.378 10.77 2.288 7.29c6.09 16.53 11.468 33.232 17.248 49.733 8.547 1.567 22.38 2.496 36.06 2.806 6.256-1.309 14.013-2.208 17.561-7.47 3.73-5.532 6.971-11.43 9.6-17.663zm3.03-165.484.04.05zm17.593 136.914-6.45 3.01c-4.542 16.373-12.875 33.792-19.65 50.925-1.166-.928-3.783-1.047-6.15-.374q-1.394.217-2.793.395c-6.834.87-13.753 1.052-20.73.777-6.886.404-16.967.123-28.588-2.524a308 308 0 0 1-6.68 6.073c4.122 3.719 8.666 7.188 13.698 10.432 13.976 9.011 30.426 17.34 49.57 22.369a1181 1181 0 0 0 21.933-12.207l-21.346-24.06 23.308 22.934c22.498-12.97 44.132-27.162 65.175-42.595 12.253-25.499 17.474-52.51 11.883-81.042-7.325-37.432-28.155-65.604-59.699-86.318a136 136 0 0 0-19.26-9.012c-4.234.497-8.34 1.91-11.813 4.303-4.471-5.767-11.903-9.427-20.628-12.133a138 138 0 0 0-13.938-.887 128.7 128.7 0 0 0-24.31 1.99c.884 1.956 2.186 3.595 3.818 4.989-.85.525-1.7.919-2.381 1.65-2.7 2.9-5.436 6.003-7.669 9.15-2.026 2.856-3.85 5.85-5.775 8.775-.825.896-1.633 1.967-2.405 2.967-.354 1.574-.78 3.169.073 4.386 3.626 5.177 29.125 13.969 42.563 22.687l-.004.013c13.5-3.325 30.928-9.417 46.608-14.315-3.377-9.068-7.846-18.456-15.733-28.984l-.18-.237c3.399-.728 5.02.404 5.02.404.236.416 14.69 27.331 15.108 27.627 14.408 10.168 29.473 21.782 41.928 34.567l18.45-.15 1.425 1.726-18.732.256-1.095 4.123c.216 6.405.154 12.694-.274 18.83.016 10.284-.23 20.367-1 30.455 2.325 2.5 5.26 5.16 7.424 7.8 5.344 6.51 7.038 11.28 9.405 16.84q.249.537.43 1c.403 1.005.565 1.725.386 2.008l3.337.036c-1.167 11.958-4.444 21.806-8.812 30.564l-2.775 1.8c2.8-5.95 5.325-12.176 7.125-19.126.896-5.026 2.27-10.579 1.05-13.275h.033c-5.8-8.967-11.095-17.867-19.012-24.794-.488-.427-1.255-.717-1.874-.525-2.403.745-4.509 2.244-6.825 3.225-10.56 4.47-21.132 8.8-31.819 12.956a93 93 0 0 1-1.35.516z" style="fill:url(#g)"></path><path d="M250.252 330.584q-.003.002 0 0m3.028 2.745 20.876 8.668-21.094-9.867c-.934-1.57-1.628-3.233-1.884-4.965q-.225.26-.454.512l.02-.469c-.297.281-.389.487-.686.768-.012.127-.016.27-.022.419-.017.42-.049.878-.323 1.11-.844.714-1.741 1.303-2.59 1.992-.236.192.381.785.644.633.733-.422 1.815-1.044 2.473-1.537-1.596 1.448-3.49 2.21-6.273 3.154-1.9.645-3.865 1.454-5.508 2.438-5.303 3.177-10.636 6.326-15.703 9.867-5.796 4.052-11.05 8.838-16.828 12.915-.841.594-1.654 1.04-2.52 1.477-.681.344-2.267 3.461-2.66 5.414l.009-.011c1.873-2.638 4.378-4.896 7.186-6.973l5.344-4.219c1.89-1.46 3.7-3.034 5.672-4.382 2.97-2.03 6.093-3.829 9.14-5.743 2.203-1.453 4.429-2.873 6.61-4.36 1.429-.974 2.684-2.224 4.219-3.023 2.513-1.308 5.235-2.172 7.852-3.258 1.125-.297 2.193-.823 3.356-.806 1.098.016 2.054.04 3.137.243z" style="fill:#2f4145;fill-rule:evenodd"></path><path d="M199.396 364.283c-3.805 12.7-4.048 33.536-2.587 54.058-3.986 3.282-7.83 6.264-11.67 9.885-4.565 4.308-8.952 9.22-12.89 13.266-3.288-4.302-6.572-10.248-9.61-22.688-.028 2.89-.04 5.782.562 8.673 3.005 7.274 5.577 11.412 8.09 15.113l25.773-23.391 12.515 5.31c-3.533-1.92-7.689-3.912-10.986-5.828l1.015-.089c-3.08-18.316-2.86-35.763 1.14-52.734.001-.002.052-.223.054-.226.45-1.924 1.951-4.83 2.606-5.188.851-.465 1.679-.883 2.52-1.477 5.777-4.077 11.032-8.863 16.828-12.915 5.067-3.541 10.4-6.69 15.703-9.867a20 20 0 0 1 1.47-.797c1.284-.634 2.678-1.18 4.038-1.64q.53-.18 1.02-.354c1.917-.694 3.684-1.421 5.144-2.704l.109-.097c-.658.493-1.74 1.115-2.473 1.537-.263.152-.88-.441-.644-.633.849-.69 1.746-1.278 2.59-1.992.166-.14.247-.39.287-.648.022-.152.03-.312.04-.466-.857.849-1.78 1.587-2.861 2.167-14.512 6.389-27.957 15.83-41.29 26.55-1.236.994-2.703 1.874-4.274 2.1-5.477.787-11.07.353-16.576.9-1.568.162-3.074.964-4.575 1.2-.414.133-.753.299-1.074.471-.613 3.181-4.098 6.112-3.559 8.293 1.26-1.973 3-3.302 4.322-5.133 1.446-2.003 3.397-2.126 5.46-2.302 1.87-.159 3.798.001 5.673-.07 2.415-.092 4.628.04 7.031.281 1.089.11 1.307.674 1.079 1.435" style="fill:#6c6d6f;fill-rule:evenodd"></path><path d="M159.673 425.991a132.2 132.2 0 0 1 16.142-62.557l.34-.664h.025c18.994-34.393 52.691-59.515 92.159-66.564a128.7 128.7 0 0 1 24.309-1.99c4.7.06 9.35.36 13.938.887a136.4 136.4 0 0 1 32.441 7.83 136 136 0 0 1 19.26 9.012c39.869 22.607 67.187 64.724 67.187 114.046 0 15.792-2.748 30.808-7.79 44.652 20.858-15.911 41.203-33.093 61.305-51.56q1.23-1.129 2.469-2.304c1.816-30.76 1.184-61.697-1.168-92.39-23.41-21.748-49.188-40.208-78.52-53.252-34.254-15.232-70.324-21.698-107.719-21.494-36.053.196-70.96 6.7-104.038 21.236-29.182 12.824-54.99 31.047-78.124 52.83-3.196 43.643-2.432 87.517 3.61 130.896 6.53 46.897 19.147 92.375 38.214 135.737q1.216 2.764 2.5 5.499 3.335-.415 6.716-.944c-6.155-13.403-11.837-26.987-16.575-40.62-5.339-15.356-10.955-37.037-14.612-52.929a175 175 0 0 0 12.125 9.229c3.585 15.582 6.624 25.478 11.827 40.445 4.943 14.222 10.515 28.285 16.914 42.157 6.854-1.36 13.824-3.032 20.88-4.98-3.566-8.408-7.15-16.945-10.451-25.818-3.593-9.653-8.199-23.96-10.83-33.672 3.804 2.578 7.942 4.989 12.347 7.267 2.59 9.556 4.307 13.718 7.745 22.956 3.277 8.805 6.726 17.845 10.4 26.586 8.27-2.528 16.639-5.403 25.055-8.564l-.35-.789c-2.921-6.497-7.28-17.235-9.204-24.64 3.713 1.835 7.722 3.45 11.936 4.686 1.571 6.393 3.183 9.83 5.923 15.924.253.562.447 1.008.603 1.376 13.774-5.47 27.617-11.639 41.329-18.241-66.54-7.018-118.748-61.082-118.318-129.279" style="fill:#fff;fill-rule:evenodd"></path><path d="M99.096 273.224c-1.369 1.096-2.273 2.96-2.635 4.943h-.003c-.354 1.959-.17 3.872.635 5.082q.092.138.186.26c1.104 1.449 2.978 2.456 5.11 2.795a9.51 9.51 0 0 0 7.278-1.822c26.734-20.392 55.439-36.713 86.866-47.853 31.428-11.141 65.565-17.087 103.158-16.727 31.81.306 65.625 5.769 99.875 18.34 30.464 11.184 61.31 28.006 91.443 51.846 1.192.944 2.705 1.284 4.225 1.01 1.662-.301 3.37-1.33 4.805-3.107 1.618-2.002 2.304-4.016 2.164-5.817-.137-1.768-1.108-3.466-2.799-4.844-28.16-22.951-60.307-40.926-94.67-53.099-34.034-12.056-70.215-18.415-106.825-18.278-32.46.122-70.145 5.43-107.686 18.14-31.602 10.698-63.057 26.636-91.127 49.13m-12.084 3.211c.747-4.093 2.816-8.104 6.06-10.703 29.029-23.264 61.49-39.723 94.064-50.75 38.553-13.052 77.33-18.503 110.773-18.629 37.745-.142 75.008 6.401 110.025 18.805 35.38 12.533 68.498 31.056 97.531 54.718 3.797 3.094 5.996 7.156 6.339 11.582.323 4.172-1.027 8.54-4.273 12.557-2.962 3.664-6.745 5.834-10.603 6.532-4.207.76-8.454-.229-11.868-2.93-29.244-23.137-59.203-39.471-88.807-50.338-33.199-12.187-65.91-17.481-96.638-17.776-36.392-.35-69.445 5.41-99.882 16.199s-58.275 26.624-84.23 46.422q-.515.39-1.028.733c-4.252 2.829-9.145 3.64-13.592 2.934-4.53-.72-8.65-3.043-11.246-6.446q-.298-.39-.563-.788c-2.205-3.316-2.841-7.839-2.062-12.103z" style="fill:#000;fill-rule:evenodd"></path><path d="m97.093 283.249.186.26c1.104 1.449 2.978 2.456 5.11 2.795a9.5 9.5 0 0 0 6.778-1.466l.5-.356c26.734-20.392 55.439-36.713 86.866-47.853 31.428-11.141 65.565-17.087 103.158-16.727 31.81.306 65.625 5.769 99.875 18.34 30.464 11.184 61.31 28.006 91.443 51.846 1.192.944 2.705 1.284 4.225 1.01 1.662-.301 3.37-1.33 4.805-3.107 1.618-2.002 2.304-4.016 2.164-5.817-.137-1.768-1.108-3.466-2.799-4.844-28.16-22.951-60.307-40.926-94.67-53.099-34.034-12.056-70.215-18.415-106.825-18.278-32.46.122-70.145 5.43-107.686 18.14-31.602 10.698-63.057 26.636-91.127 49.13-1.368 1.097-2.273 2.961-2.638 4.944-.354 1.959-.17 3.872.635 5.082" style="fill:#fff;fill-rule:evenodd"></path><path d="M250.216 100.258c15.372-2.593 30.762-3.805 46.24-3.962 15.443-.156 30.926.74 46.538 2.364l-.576 5.625c-15.456-1.607-30.74-2.495-45.918-2.341-15.143.153-30.234 1.345-45.354 3.895zm4.582 11.366c14.622-1.243 29.046-1.941 43.309-1.999 14.205-.057 28.152.531 41.864 1.86l-.531 5.625c-13.548-1.313-27.31-1.894-41.311-1.837-13.944.055-28.23.754-42.866 1.998zm23.178 87.855c.594-6.853 3.315-15.624 7.796-22.078 3.788-5.456 8.858-9.352 15.083-9.452h.011l.086-.001h.01c6.687-.056 11.675 4.624 14.968 11.053 3.032 5.92 4.637 13.424 4.74 19.778v.011l.003.3-5.647.066-.004-.289c-.09-5.587-1.485-12.155-4.12-17.298-2.37-4.63-5.715-8.004-9.887-7.974h-.071v.001c-4.127.067-7.705 2.96-10.521 7.016-3.902 5.62-6.276 13.315-6.8 19.354zm-8.345-.482c2.714-12.946 6.657-22.91 11.273-29.755 5.246-7.78 11.465-11.713 17.918-11.643 6.847.074 13.916 4.269 19.739 12.495 4.946 6.987 9.058 16.976 11.368 29.88l-5.559.997c-2.157-12.052-5.92-21.27-10.416-27.622-4.712-6.657-10.133-10.048-15.177-10.103-4.487-.048-9.054 3.047-13.178 9.163-4.232 6.275-7.877 15.555-10.431 27.74zm-18.516 2.147 11.23-68.86-11.442-18.452-.38-.613-.041-.716-.35-6.169-9.3-3.822-1.546-.635-.193-1.657-2.1-18-.313-2.683 2.683-.43 11.25-1.8 2.159-.345.875 2.007 2.832 6.49 4.585-.157 1.388-7.513.419-2.27 2.316-.045 11.925-.225 2.088-.039.647 2 1.898 5.861 6.368-.16 2.425-6.83.668-1.882H306.8l.595 2.026 2.156 7.337 7.22-.283 1.689-5.907.639-2.237 2.306.188 12.825 1.05 2.437.2.165 2.436.437 6.443 4.986.45 3.514-5.778 1.022-1.68 1.924.374 10.425 2.024 2.61.507-.33 2.616c-.354 2.83-.801 5.855-1.247 8.879-.429 2.9-.858 5.803-1.227 8.746l-.281 2.242-2.255.227-13.017 1.315q.019.947.039 1.893c.03 1.464.062 2.93.075 4.533l.005.61-.237.541-10.354 23.604 14.72 64.722-5.515 1.24-14.925-65.625-.206-.902.372-.847 10.487-23.907c-.015-1.291-.042-2.575-.07-3.859-.03-1.464-.061-2.93-.074-4.533l-.02-2.575 2.567-.26 13.358-1.348c.293-2.16.624-4.398.955-6.636.3-2.04.602-4.079.883-6.133l-5.878-1.142-3.403 5.594-.91 1.498-1.747-.158-9.15-.824-2.417-.218-.163-2.407-.435-6.414-8.082-.662-1.61 5.638-.563 1.969-2.05.08-11.476.45-2.203.086-.62-2.113-2.18-7.423h-7.358l-2.407 6.78-.65 1.834-1.952.049-10.425.263-2.105.053-.652-2.013-1.903-5.876-7.522.142-1.38 7.48-.413 2.236-2.278.078-8.775.3-1.912.065-.768-1.76-2.724-6.243-6.41 1.025 1.594 13.661 9.405 3.865 1.649.678.1 1.78.41 7.235 11.62 18.737.557.898-.17 1.04-11.4 69.9z" style="fill:#1b1918;fill-rule:evenodd"></path><path d="m275.777 131.866 5.55.619-2.661 22.988-5.625-.712zM319.785 133.283c-1.85.207-3.888.375-5.738.582l2.474 22.913 5.625-.487z" style="fill:#1b1918;fill-rule:evenodd"></path><path d="m300.098 196.891-.019-9.037-13.593.094.413-1.988h13.237l-.112-10.837-7.163-.056" style="fill:none"></path><path d="M275.824 197.183c2.506-10.734 5.894-19.018 9.775-24.774 4.124-6.116 8.691-9.211 13.178-9.163 5.044.055 10.465 3.446 15.177 10.103 4.027 5.688 7.466 13.677 9.69 23.94q.388 1.795.726 3.682l5.559-.997q-.198-1.104-.413-2.18c-2.369-11.855-6.291-21.111-10.955-27.7-5.823-8.226-12.892-12.42-19.74-12.495-6.452-.07-12.67 3.863-17.917 11.644-4.455 6.605-8.283 16.116-10.984 28.408q-.146.668-.29 1.346l5.538 1.151q.317-1.512.656-2.965" style="fill:#000;fill-rule:evenodd"></path><path d="M310.903 181.57c2.306 4.502 3.663 10.097 4.025 15.171q.078 1.083.094 2.126l.004.289 5.647-.067-.004-.299v-.011q-.014-.84-.062-1.707c-.335-5.96-1.913-12.674-4.677-18.072-3.293-6.429-8.28-11.108-14.967-11.052h-.107c-6.225.101-11.296 3.997-15.084 9.453-3.96 5.704-6.546 13.218-7.503 19.618a40 40 0 0 0-.293 2.46l5.647.487c.09-1.045.237-2.14.437-3.264a45.6 45.6 0 0 1 2.5-8.755l-.074.001.413-1.988h.51c.87-1.897 1.877-3.71 3.014-5.348 1.616-2.329 3.484-4.274 5.562-5.52 1.542-.927 3.2-1.468 4.959-1.496l.071-.001c4.172-.03 7.516 3.343 9.888 7.974z" style="fill:#000;fill-rule:evenodd"></path><path d="m257.194 199 10.902-66.848.17-1.04-.557-.897-8.24-13.287q-2.098.165-4.206.343l-.465-5.647 1.313-.11-.022-.036-.36-6.37q-2.292.344-4.583.731l-.93-5.58-5.691-2.339-1.594-13.66 6.41-1.026 2.724 6.243.767 1.76 1.912-.065 8.775-.3 2.278-.078.413-2.237 1.381-7.479 7.522-.142 1.902 5.876.652 2.013 2.105-.053 10.425-.263 1.952-.05.65-1.832 2.408-6.781h7.357l2.18 7.423.621 2.113 2.203-.086 11.475-.45 2.05-.08.563-1.969 1.611-5.638 8.082.662.435 6.414.163 2.407 2.417.218 9.15.824 1.746.158.911-1.498 3.403-5.594 5.877 1.142c-.28 2.054-.581 4.093-.883 6.132-.33 2.239-.66 4.477-.954 6.637l-10.731 1.083-.465 4.541a510 510 0 0 0-4.699-.466c.015 1.232.04 2.395.065 3.558.027 1.284.054 2.568.069 3.859l-.021.048q1.07.098 2.14.201l-.532 5.625q-1.999-.193-4.004-.366l-8.07 18.399-.372.847.206.902 14.156 62.245.769 3.38 5.514-1.24-.334-1.26-14.426-63.43 10.394-23.636.238-.54-.005-.611c-.013-1.603-.044-3.069-.075-4.533l-.039-1.893 13.017-1.315 2.254-.227.282-2.242c.37-2.944.798-5.846 1.226-8.746.447-3.024.893-6.049 1.249-8.879l.328-2.616-2.61-.507-10.425-2.024-1.923-.374-1.022 1.68-3.514 5.778-4.986-.45-.437-6.443-.165-2.436-2.437-.2-12.826-1.05-2.305-.188-.64 2.237-1.687 5.907-7.222.283-2.155-7.337-.595-2.026h-15.593l-.668 1.882-2.425 6.83-6.368.16-1.899-5.862-.647-1.999-2.087.04-11.925.224-2.316.044-.42 2.27-1.387 7.514-4.585.157-2.832-6.49-.876-2.007-2.159.346-11.25 1.8-2.682.429.313 2.682 2.1 18 .193 1.658 1.545.635 9.302 3.822.349 6.17.04.715.38.613 11.444 18.452-11.008 67.494-.223 1.366 5.58.908z" style="fill:#000;fill-rule:evenodd"></path><path d="M286.56 187.948a45.6 45.6 0 0 0-2.5 8.754 327 327 0 0 1 16.037-.35l-.018-8.498zM287.41 185.96h12.726l-.112-10.837-4.04-.032c-2.077 1.247-3.945 3.192-5.561 5.521-1.137 1.637-2.144 3.45-3.014 5.348" style="fill:#000;fill-rule:evenodd"></path><path d="M300.136 185.96h-12.727q-.45.982-.849 1.987l13.52-.093.017 8.498q7.432.023 14.831.39c-.362-5.075-1.719-10.67-4.025-15.173-2.372-4.63-5.716-8.004-9.888-7.974h-.071c-1.759.03-3.417.57-4.96 1.496l4.04.032z" style="fill:#fff;fill-rule:evenodd"></path><path d="M285.772 177.4c3.788-5.455 8.858-9.35 15.083-9.451h.011l.086-.001h.01c6.687-.056 11.675 4.624 14.968 11.053 2.764 5.397 4.342 12.111 4.677 18.07q1.52.103 3.036.219c-2.223-10.264-5.662-18.253-9.689-23.941-4.712-6.657-10.133-10.048-15.177-10.103-4.487-.048-9.054 3.047-13.178 9.163-3.881 5.756-7.27 14.04-9.775 24.774q1.226-.086 2.445-.163c.957-6.4 3.543-13.915 7.503-19.619" style="fill:#fff;fill-rule:evenodd"></path><path d="M269.92 197.65c2.701-12.291 6.53-21.802 10.984-28.408 5.246-7.78 11.465-11.713 17.918-11.643 6.847.074 13.916 4.269 19.739 12.495 4.664 6.589 8.586 15.845 10.955 27.7q5.938.563 11.84 1.343L327.2 136.892l-.206-.902.372-.847 8.07-18.399c-12.253-1.055-24.683-1.522-37.307-1.471-12.605.05-25.49.626-38.66 1.655l8.24 13.287.557.898-.17 1.04L257.194 199c4.288-.534 8.533-.983 12.726-1.35m46.601-40.872-2.474-22.913c1.85-.207 3.888-.375 5.738-.582l2.361 23.008zm-37.855-1.305-5.625-.712 2.736-22.895 5.55.619zM256.111 111.514c14.173-1.174 28.16-1.833 41.996-1.889 13.467-.054 26.702.472 39.725 1.659l.02-.048c-.014-1.291-.041-2.575-.068-3.859-.025-1.162-.05-2.326-.065-3.558-13.857-1.31-27.58-2.014-41.219-1.875-13.613.137-27.184 1.115-40.772 3.163l.36 6.37zM296.456 96.296c15.443-.156 30.926.74 46.538 2.364l-.111 1.084 10.73-1.083c.294-2.16.625-4.398.955-6.636.302-2.04.603-4.079.883-6.134l-5.877-1.141-3.403 5.594-.91 1.498-1.747-.158-9.15-.824-2.417-.218-.163-2.407-.435-6.414-8.082-.662-1.611 5.638-.562 1.969-2.05.08-11.476.45-2.203.086-.62-2.113-2.18-7.423h-7.358l-2.407 6.78-.65 1.834-1.953.049-10.425.263-2.105.053-.652-2.013-1.902-5.876-7.522.142-1.38 7.48-.414 2.236-2.278.078-8.775.3-1.912.065-.767-1.76-2.725-6.243-6.409 1.025 1.594 13.661 5.69 2.338c15.373-2.593 30.763-3.805 46.241-3.962" style="fill:#fff;fill-rule:evenodd"></path><path d="M92.226 270.34 50.95 196.719l-4.78-.057-1.394-.017-.908-1.03-6.273-7.118-7.227.065-1.62.014-.938-1.318-7.95-11.175-1.787-2.513 2.494-1.81 10.95-7.95 2.39-1.735 1.86 2.307 3.738 4.635a71 71 0 0 1 2.359-1.643 57 57 0 0 1 2.359-1.49l-3.233-5.657-1.512-2.645 2.62-1.57 13.838-8.286 2.92-1.75 1.477 3.065 2.62 5.436 4.321-2.26-2.167-4.92-1.207-2.74 2.705-1.316 11.963-5.812 2.793-1.356 1.36 2.806 6.675 13.762.893 1.842-1.356 1.556-4.708 5.402 1.79 6.125.145.493-.011.263.046-.023-.246 5.291-.692 14.961 45.825 52.309-4.677 4.092-46.65-53.25-.825-.94.057-1.24.505-10.9c-4.385 2.225-8.426 4.339-12.209 6.535-4.148 2.409-7.905 4.883-11.342 7.667l19.226 33.051c6.871-1.722 13.41.535 19.726 5.45 6.462 5.028 12.693 12.932 18.82 22.116l-5.164 3.46c-5.784-8.67-11.598-16.078-17.48-20.655-4.168-3.243-8.353-5-12.56-4.624l3.087 5.306c9.345-.508 15.23 8 22.103 17.939.75 1.083 1.515 2.19 2.627 3.764l-5.09 3.58c-.692-.977-1.681-2.408-2.652-3.812-4.491-6.495-8.476-12.256-12.864-14.383l5.12 8.479-1.517.93.949 1.653 2.54-1.478 6.898 10.434zM36.43 182.295c5.32-4.953 11.457-9.594 18.539-13.87 7.08-4.274 15.157-8.205 24.368-11.744l1.192-.457 2.371-2.721-4.42-9.114-6.464 3.14 2.13 4.834 1.17 2.656-2.583 1.351-9.75 5.1-2.846 1.49-1.393-2.89-2.536-5.26-8.298 4.969 3.289 5.755 1.628 2.849-2.931 1.475c-1.561.785-3.097 1.707-4.596 2.705a77 77 0 0 0-4.43 3.204l-2.409 1.862-1.915-2.374-3.764-4.667-6.066 4.403 5.225 7.345zm12.68 8.19.788-.692c4.303-3.782 9.008-6.965 14.268-10.02 4.655-2.702 9.846-5.35 15.62-8.255l.119-2.715-1.487-5.084c-7.5 3.05-14.216 6.408-20.234 10.042-5.793 3.498-10.903 7.237-15.41 11.188l4.863 5.518z" style="fill:#000;fill-rule:evenodd"></path><path d="m71.775 200.721 4.706-2.85 11.813 18.6-4.687 3z" style="fill:#000;fill-rule:evenodd"></path><path d="M98.584 258.399c-4.491-6.495-8.476-12.256-12.864-14.383l5.12 8.479-1.517.93.949 1.653 2.54-1.478 5.375 8.13q.884-.676 1.773-1.344c-.44-.633-.91-1.313-1.376-1.987M81.596 236.928c9.345-.508 15.23 8 22.103 17.939.403.583.81 1.172 1.274 1.837q1.161-.834 2.328-1.653c-5.372-7.87-10.773-14.557-16.232-18.805-4.168-3.244-8.353-5-12.56-4.624z" style="fill:#fff;fill-rule:evenodd"></path><path d="M94.893 231.325c6.01 4.676 11.82 11.84 17.532 20.207a294 294 0 0 1 12.69-8.052l-45.36-51.778-.825-.94.057-1.24.505-10.9c-4.385 2.225-8.426 4.339-12.209 6.535-4.148 2.409-7.905 4.882-11.342 7.667l19.226 33.051c6.871-1.722 13.41.535 19.726 5.45M76.481 197.87l11.813 18.6-4.687 3-11.832-18.75ZM49.897 189.793c4.303-3.782 9.008-6.965 14.268-10.02 4.655-2.702 9.846-5.35 15.62-8.255l.119-2.715-1.487-5.084c-7.5 3.05-14.216 6.408-20.234 10.042-5.793 3.498-10.903 7.237-15.41 11.188l4.863 5.518 1.474.017zM54.968 168.426c7.08-4.275 15.157-8.206 24.368-11.745l1.192-.457 2.371-2.721-4.42-9.114-6.464 3.14 2.13 4.834 1.17 2.656-2.583 1.351-9.75 5.1-2.846 1.49-1.393-2.89-2.536-5.26-8.298 4.969 3.289 5.755 1.628 2.849-2.931 1.475c-1.561.785-3.097 1.707-4.596 2.705a77 77 0 0 0-4.43 3.204l-2.409 1.862-1.915-2.374-3.764-4.667-6.066 4.403 5.225 7.345 4.49-.04c5.32-4.954 11.456-9.595 18.538-13.87" style="fill:#fff;fill-rule:evenodd"></path><path d="m147.512 232.357-11.243-68.498-11.528-10.822-.322-.302-.21-.373-4.448-7.923-10.034 2.182-2.133.463-.99-1.958-7.05-13.95-1.253-2.48 2.46-1.296 9.826-5.175 2.07-1.09 1.462 1.832 4.19 5.25 4.125-2.08-1.895-5.957-.779-2.448 2.362-1.007 11.7-4.988 2.243-.955 1.279 2.085 3.53 5.755 5.826-2.218-2.085-6.365-.86-2.622 2.62-.921 12.376-4.35 2.395-.842 1.093 2.292 2.728 5.725 4.918-1.74-1.663-6.655-.647-2.591 2.552-.798 12.6-3.937 2.705-.844.838 2.715 2.167 7.014 4.464-1.368-1.817-6.575-.816-2.952 3.008-.58 12.451-2.401 2.834-.547.488 2.85 2.775 16.2.359 2.094-1.92.93-11.924 5.77 2.308 7.674.099.33.011.4.505 17.125 35.645 61.711-4.894 2.835-36-62.326-.356-.614-.021-.726-.357-12.13c-10.938 2.286-21.518 5.227-31.874 9.01a208.5 208.5 0 0 0-30.319 13.92l7.755 7.278.696.654.157.952 11.4 69.45zm-27.902-93.681c11.945-6.668 23.955-12.504 36.282-17.26 12.886-4.973 26.125-8.78 40.004-11.143l.082.493 9.907-4.795-1.929-11.257-6.609 1.274 1.734 6.272.732 2.65-2.626.805-9.788 3-2.698.828-.834-2.698-2.16-6.996-7.345 2.294 1.64 6.56.624 2.496-2.43.86-9.75 3.449-2.401.85-1.097-2.3-2.732-5.733-7.36 2.587 2.065 6.303.839 2.561-2.522.96-10.537 4.013-2.19.834-1.232-2.008-3.483-5.678-7.097 3.026 1.846 5.802.73 2.294-2.147 1.083-8.325 4.2-2.052 1.036-1.436-1.8-4.163-5.218-5.295 2.79 4.806 9.51zm73.03-22.06c-11.984 2.318-23.487 5.74-34.71 10.07-11.2 4.322-22.12 9.542-32.957 15.472l3.854 6.865a214.4 214.4 0 0 1 32.652-15.142c10.926-3.992 22.047-7.064 33.52-9.421zm-28.294 109.14c-.27-2.174-.547-4.102-.824-6.042-2.431-16.999-4.986-34.86 13.448-42.376l.221-.077c9.062-2.857 17.065-.153 24.345 5.912 6.853 5.71 12.994 14.415 18.758 24.15l-4.872 2.879c-5.487-9.267-11.253-17.487-17.496-22.688-5.777-4.814-12.016-7.01-18.91-4.893-14.242 5.87-12.013 21.458-9.891 36.296.31 2.167.618 4.32.846 6.152zm6.31-3.106-.226-1.633c-2.073-14.87-4.016-28.814 9.284-33.94 6.42-2.474 12.455-.614 18.17 3.904 5.22 4.127 10.149 10.52 14.844 17.742l-4.74 3.078c-4.405-6.776-8.954-12.715-13.604-16.391-4.155-3.285-8.383-4.7-12.632-3.062-9.117 3.513-7.473 15.313-5.72 27.894l.228 1.633z" style="fill:#000;fill-rule:evenodd"></path><path d="m188.237 215.661-2.925-9.225-12.15 4.275-.75-1.5 12.6-4.35-3.525-10.5-7.65 2.475" style="fill:none"></path><path d="m187.936 214.712-2.624-8.276-10.485 3.689c.214 2.83.612 5.832 1.036 8.896a340 340 0 0 1 12.073-4.31M174.72 208.414l10.292-3.553-3.525-10.5-4.268 1.38c-2.249 3.081-2.747 7.542-2.5 12.673M149.126 164.736l3.787 22.013 5.363-.863-3.75-22.2zM187.743 151.055l11.595 18.077-4.818 3.181-11.602-18.148z" style="fill:#000;fill-rule:evenodd"></path><path d="M194.384 195.41c-4.155-3.285-8.383-4.7-12.632-3.062-1.984.764-3.459 1.922-4.533 3.394l4.268-1.381 3.525 10.5-10.292 3.553q.04.845.107 1.71l10.485-3.688 2.624 8.276a348 348 0 0 1 18.278-5.58c-3.849-5.655-7.802-10.537-11.83-13.722" style="fill:#fff;fill-rule:evenodd"></path><path d="M170.43 221.017c-2.073-14.87-4.016-28.814 9.284-33.94 6.42-2.474 12.455-.614 18.17 3.904 4.945 3.91 9.63 9.855 14.103 16.612l1.612-.412c-4.94-8.02-10.117-15.038-15.673-19.667-5.777-4.814-12.016-7.01-18.91-4.893-14.242 5.87-12.013 21.458-9.891 36.296.125.872.249 1.742.368 2.589l.952-.381z" style="fill:#fff;fill-rule:evenodd"></path><path d="M163.522 219.714c-2.431-16.999-4.986-34.86 13.448-42.376l.221-.077c9.062-2.857 17.065-.153 24.345 5.912 6.487 5.406 12.337 13.496 17.833 22.602a359 359 0 0 1 11.124-2.427l-34.48-59.693-.356-.614-.021-.726-.357-12.13c-10.938 2.286-21.518 5.227-31.874 9.01a208.5 208.5 0 0 0-30.319 13.92l7.755 7.278.696.654.157.952 10.97 66.83q5.687-2.669 11.42-5.092c-.186-1.39-.374-2.704-.562-4.023m30.998-47.4-11.602-18.15 4.825-3.109 11.595 18.077zm-39.994-8.628 3.75 22.2-5.363.863-3.787-22.013zM128.827 149.023a214.4 214.4 0 0 1 32.652-15.142c10.926-3.992 22.047-7.064 33.52-9.421l-2.359-7.845c-11.984 2.319-23.487 5.74-34.71 10.071-11.2 4.322-22.12 9.542-32.957 15.472zM119.61 138.676c11.945-6.668 23.955-12.504 36.282-17.26 12.886-4.973 26.125-8.78 40.004-11.143l.082.493 9.907-4.795-1.929-11.257-6.609 1.274 1.734 6.272.732 2.65-2.626.805-9.788 3-2.698.828-.834-2.698-2.16-6.996-7.345 2.294 1.64 6.56.624 2.496-2.43.86-9.75 3.449-2.401.85-1.097-2.3-2.732-5.733-7.36 2.587 2.065 6.303.839 2.561-2.522.96-10.537 4.013-2.19.834-1.232-2.008-3.483-5.678-7.097 3.026 1.846 5.802.73 2.294-2.147 1.083-8.325 4.2-2.052 1.036-1.436-1.8-4.163-5.218-5.295 2.79 4.806 9.51z" style="fill:#fff;fill-rule:evenodd"></path><path d="m138.48 230.379 2.986 5.947-5.05 2.524-2.955-5.884c-3.112 1.663-6.198 3.407-9.27 5.15l-2.791-4.917a789 789 0 0 1 3.932-2.219l-4.52-6.465a231 231 0 0 0-5.076 3.172l-3.057-4.76c3.999-2.57 8.029-5.003 12.129-7.258l-4.927-9.033c-5.225 2.544-10.35 5.237-15.258 8.158l-2.88-4.85c12.53-7.457 26.21-13.37 39.455-19.095l1.667-.72 2.236 5.181-1.667.721c-6.114 2.643-12.322 5.327-18.444 8.175l4.814 8.827c5.103-2.576 10.333-4.852 15.761-6.745l1.86 5.338c-2.56.892-5.08 1.877-7.567 2.945l4.068 7.1a119 119 0 0 1 4.01-1.598l1.994 5.293c-4.055 1.53-7.836 3.225-11.45 5.013m-55.497-41.405 6.937-4.612 1.833-1.218 1.633 1.483 7.403 6.725 3.916-2.496-2.756-7.623-.824-2.28 2.12-1.163 9.974-5.475 2.004-1.1 1.495 1.731 6.241 7.22 3.243-1.556-2.558-8.804-.706-2.43 2.333-.97 11.925-4.95 2.17 5.227-9.59 3.981 2.518 8.67.668 2.296-2.162 1.037-7.35 3.525-1.946.933-1.41-1.63-6.153-7.12-5.853 3.212 2.701 7.47.769 2.127-1.91 1.217-7.65 4.875-1.824 1.163-1.597-1.451-7.367-6.691-5.105 3.394zm42.715 32.675 4.611 6.598a210 210 0 0 1 3.69-1.933q2.324-1.191 4.727-2.324l-4.043-7.059q-1.714.827-3.411 1.702-2.804 1.446-5.574 3.016" style="fill:#1b1918;fill-rule:evenodd"></path><path d="m198.493 140.863 13.35-3.9 2.559-.748.896 2.52 2.699 7.58 5.018-1.026-.823-9.109-.236-2.618 2.594-.427 11.85-1.95 2.343-.385.78 2.246 2.9 8.34 4.975-.798-.465-8.793-.146-2.758 2.759-.21 14.775-1.125.421 5.647-12.016.915.453 8.568.135 2.531-2.515.403-9.825 1.575-2.335.374-.777-2.234-2.895-8.33-6.914 1.138.814 9.007.227 2.517-2.475.506-9.9 2.025-2.407.493-.826-2.32-2.628-7.382-10.793 3.153zM213.535 166.996c7.812-2.633 15.608-4.784 23.38-6.312 7.8-1.532 15.635-2.449 23.512-2.607l.11 5.647c-7.473.15-14.988 1.036-22.537 2.52-7.578 1.488-15.134 3.57-22.671 6.111zM222.543 180.44c5.722-1.531 11.62-3.032 17.6-4.208 6.015-1.184 12.14-2.04 18.3-2.274l.2 5.647c-5.762.219-11.608 1.043-17.415 2.185-5.84 1.15-11.616 2.62-17.223 4.12zM229.073 192.581c4.555-1.175 8.95-2.15 13.245-2.9a135 135 0 0 1 13.23-1.66l.42 5.647c-4.25.317-8.451.856-12.675 1.593-4.316.754-8.562 1.69-12.825 2.79z" style="fill:#000;fill-rule:evenodd"></path><path d="m241.566 162.816 3.525 14.85-5.514 1.306-3.526-14.85zM232.179 180.49l4.875 11.85-5.227 2.148-4.875-11.85zM252.62 177.405l1.012 12.975-5.647.421-1.012-12.975zM248.596 192.206l1.05 10.05-5.624.576-1.05-10.05z" style="fill:#000;fill-rule:evenodd"></path><path d="M103.232 209.069c11.972-6.962 24.925-12.583 37.5-18.019l-3.831-23.343-7.126 2.957 2.52 8.67.667 2.296-2.162 1.037-7.35 3.525-1.946.933-1.41-1.63-6.153-7.12-5.853 3.212 2.701 7.47.769 2.127-1.91 1.217-7.65 4.875-1.824 1.163-1.597-1.451-7.367-6.691-2.795 1.859zM119.88 206.636c-4.38 2.133-8.688 4.37-12.86 6.758l7.387 8.432a201 201 0 0 1 10.401-6.156zM124.99 204.207l4.814 8.826c4.41-2.226 8.914-4.228 13.56-5.952l-1.69-10.289c-5.542 2.398-11.148 4.839-16.684 7.415M125.332 230.98l-4.52-6.465q-1.316.8-2.63 1.62l5.206 5.942zM125.698 221.65l4.611 6.597a210 210 0 0 1 3.69-1.933q2.324-1.191 4.727-2.324l-4.043-7.058q-1.714.826-3.411 1.701-2.804 1.447-5.574 3.016M139.858 214.571l4.068 7.1q.852-.356 1.717-.704l-1.346-8.198q-2.237.856-4.439 1.802M135.7 237.424l-2.239-4.458a329 329 0 0 0-6.27 3.452l3.387 3.866q2.552-1.458 5.122-2.86" style="fill:#fff;fill-rule:evenodd"></path><path d="m138.48 230.379 2.201 4.385a312 312 0 0 1 6.671-3.383l-.77-4.691a132 132 0 0 0-8.103 3.689z" style="fill:#fff;fill-rule:evenodd;stroke:#221d1f;stroke-width:.56690001;stroke-linecap:butt;stroke-linejoin:miter;stroke-dasharray:none"></path><path d="M215.626 166.302c7.112-2.318 14.21-4.227 21.289-5.618 7.041-1.383 14.11-2.264 21.213-2.54l4.012-24.597-9.414.717.453 8.568.135 2.531-2.515.403-9.825 1.575-2.335.374-.777-2.234-2.895-8.33-6.914 1.138.814 9.007.227 2.517-2.475.506-9.9 2.025-2.407.493-.826-2.32-2.628-7.382-7.37 2.154zM236.62 166.52c-6.047 1.246-12.08 2.865-18.103 4.788l5.108 8.844c5.01-1.332 10.15-2.626 15.356-3.688zM242.198 165.48l2.362 9.949c3.627-.602 7.287-1.061 10.963-1.315l1.676-10.275c-4.983.244-9.984.805-15 1.641M230.857 192.13l-2.979-7.242-1.318.344 4.023 6.965zM233.419 183.504l3.014 7.328a152 152 0 0 1 5.885-1.152 141 141 0 0 1 5.513-.852l-.63-8.087c-1.993.304-3.985.658-5.973 1.05-2.619.515-5.225 1.094-7.81 1.713M252.824 180.018l.562 7.202 1.201-7.366q-.88.075-1.763.164M243.232 195.272a160 160 0 0 0-9.707 2.018l2.844 4.924q3.742-.69 7.453-1.294zM248.827 194.41l.59 5.645a357 357 0 0 1 1.92-.277l.943-5.779q-1.728.182-3.453.41" style="fill:#fff;fill-rule:evenodd"></path><path d="m523.417 198.796-5.026-3.39-12.379 17.527 4.998 3.463zM438.056 162.313l-1.48 19.596-5.651-.264 1.498-19.779zM400.252 148.286 389.293 166.4l4.743 3.07 11.04-18.187z" style="fill:#000;fill-rule:evenodd"></path><path d="m460.29 240.643 3.82-4.132a213 213 0 0 0-5.435-3.155c-.48.841-.997 1.764-1.512 2.685-.411.736-.829 1.48-1.723 3.036l-4.895-2.812c.178-.309.925-1.644 1.68-2.992.497-.89.996-1.78 1.476-2.62a154 154 0 0 0-7.471-3.692l-.523 5.61-5.625-.509c1.144-12.316 2.203-23.537 3.263-34.774 1.127-11.95 2.253-23.886 3.262-34.751l.118-1.276 1.023-.75 10.266-7.541c-10.676-5.252-21.526-10.027-32.563-14.28a366 366 0 0 0-33.373-11.072l1.296 14.437.076.844-.408.75-33.45 61.576-4.96-2.702 3.038-5.592-15.143-4.537 1.617-5.425 9.352 2.802c1.55-5.114-.102.311 2.419-7.996a72 72 0 0 0-2.793-.81c-5.024-1.35-9.975-2.107-14.448-2.335l.288-5.647a73 73 0 0 1 8.546.96l2.086-10.384a94 94 0 0 0-14.06-2.029l.377-5.647c6.893.459 13.737 1.666 20.533 3.568 6.04 1.69 12.028 3.925 17.965 6.666l11.61-21.374c-2.23-.626-4.54-1.26-6.702-1.775a308 308 0 0 0-.653 1.697c-.808 2.11-1.638 4.28-2.666 6.262l-1.071 2.065-2.218-.637-8.1-2.325-2.06-.591v-2.133c0-2.142-.032-3.575-.063-5.007a670 670 0 0 1-.062-2.933l-7.188-1.879-3.614 7.054-.998 1.949-2.124-.477-8.7-1.95-2.29-.513.075-2.333.224-6.965-5.07-1.139 1.24-5.514 7.35 1.65 2.278.511-.075 2.335-.225 6.967 4.287.961 3.651-7.126 1.036-2.022 2.187.571 11.475 3 2.126.556v2.179c0 2.134.032 3.574.064 5.007.023 1.027.045 2.053.062 2.979l3.75 1.076c.49-1.15.963-2.382 1.426-3.594.506-1.322 1.003-2.62 1.659-4.095l.925-2.082 2.22.454c2.99.61 6.22 1.486 9.28 2.344l-1.656-18.44-.064-.71.275-.641c.505-1.184 1.108-2.528 1.71-3.87l.72-1.613c-3.007-1.964-3.903-2.55-4.679-3.06-3.426-2.244-6.196-4.062-6.664-4.368l-1.75-1.142.565-1.991 5.044-17.757.738-2.6 2.617.606 9.075 2.1 2.108.488.085 2.159.297 7.544c1.036.342 2.03.689 3.022 1.035.973.34 1.946.68 2.905.998.816-1.03 1.259-1.584 1.712-2.152 1.36-1.701 2.725-3.41 2.925-3.664l1.257-1.592 1.9.673 10.574 3.75 2.045.725-.162 2.154c-.118 1.562-.153 2.903-.188 4.243-.02.758-.039 1.515-.066 2.256q1.235.393 2.468.8c.902.295 1.804.591 2.655.86l4.204-5.255 1.272-1.59 1.895.693 10.763 3.937 2.24.82-.424 2.336c-.277 1.53-.503 3.179-.727 4.828-.126.925-.253 1.85-.396 2.797.946.39 1.821.767 2.697 1.143.88.378 1.758.756 2.596 1.107.467-.677.934-1.367 1.4-2.057a144 144 0 0 1 2.784-4.015l1.407-1.935 2.137 1.06 10.05 4.988 1.971.979-.455 2.144-1.494 7.04 5.21 2.563 5.105-5.927 1.554-1.805 2.044 1.24 11.25 6.825 2.271 1.378-1.23 2.343-7.125 13.575-.855 1.629-1.813-.112-13.92-.853-2.362 5.512-.307.716-.623.458-13.381 9.828c.915.45 1.788.87 2.659 1.288 2.1 1.01 4.204 2.02 5.863 2.883l1.965 1.022-.525 2.156c-.473 1.944-1.04 3.883-1.608 5.822a221 221 0 0 0-.925 3.217c.655.256 1.297.503 1.938.75.877.337 1.754.674 2.574.996.881-.913 1.785-1.855 2.688-2.796a846 846 0 0 1 4.024-4.173l1.461-1.503 1.86.96c1.94 1.002 3.803 1.983 5.666 2.964 1.9 1 3.8 2 5.622 2.942l1.996 1.032-.545 2.168-2.174 8.635q.786.42 1.578.833.885.46 1.763.931c.936-.938 1.858-1.888 2.78-2.838 1.443-1.488 2.889-2.978 4.397-4.435l1.327-1.282 1.707.706c1.818.754 3.496 1.534 5.173 2.314.954.443 1.908.887 2.83 1.302l.465-.502c-.166-2.158-.436-4.275-.705-6.392-.338-2.651-.676-5.303-.83-7.962l.034-.631 1.94-11.357-3.827-7.25-.783-1.484.938-1.406 8.214-12.3 1.485-2.224 2.301 1.36 9.263 5.476 1.897 1.121-.624 2.112-1.29 4.368 5.795 3.01 4.087-3.977 1.463-1.423 1.815.947 10.05 5.25 1.815.949c-.548 3.323-.308 5.376-.438 8.582.718.438 1.407.877 2.097 1.316.573.365 1.147.73 1.763 1.108.58-.501 1.14-1.004 1.7-1.506 1.138-1.02 2.276-2.04 3.411-2.95l1.573-1.261 1.705 1.073c1.556.98 3.417 2.026 5.278 3.073 1.852 1.04 3.704 2.082 5.523 3.227l2.333 1.47-1.414 2.372c-1.863 3.125-3.903 6.261-5.94 9.392a400 400 0 0 0-4.058 6.328l-.868 1.388-1.635-.06c-2.18-.079-4.24-.161-6.292-.243-1.787-.071-3.58-.143-5.241-.206-2.62 2.068-5.1 4.13-7.58 6.19-2.644 2.196-5.288 4.393-8.01 6.535l-.026.052c-11.875 23.908-23.323 46.954-32.859 68.566l-5.182-2.28c3.837-8.698 8.371-18.1 12.75-27.261-.446-.019-1.193-.08-1.64-.102-3.188-.163-6.447.163-7.948 1.779l-14.775 15.9-4.142-3.853 14.775-15.9c3.294-3.545 8.096-4.14 12.604-3.91 1.286.065 2.35.58 3.455.906q.78-1.615 1.567-3.237c-2.736-.771-5.724-1.054-8.6-.69-3.256.412-6.358 1.66-8.734 3.983-3.977 3.888-8.058 7.976-12.138 12.064a2937 2937 0 0 1-6.14 6.14l-3.986-4.009c2.03-2.021 4.074-4.07 6.118-6.117 4.11-4.119 8.222-8.238 12.204-12.13 3.318-3.243 7.56-4.976 11.967-5.534 3.995-.506 8.134-.04 11.82 1.138 4.475-9.156 9.11-18.488 13.813-27.955l.31-.625.285-.575.512-.4c1.785-1.394 3.5-2.784 5.188-4.174-3.61-2.924-7.462-5.499-11.415-7.759-3.92-2.241-7.937-4.174-11.92-5.836l.09.703c.337 2.651.675 5.303.828 7.962l.068 1.183-.82.888c-10.952 11.847-17.936 19.374-24.882 26.86-9.69 10.445-19.456 20.97-24.881 26.839zm-13.504-19.627.344.15 3.101-6.033q-1.386-.559-2.79-1.1zm1.206-12.83c4.654 1.753 9.2 3.655 13.62 5.735l3.727-8.412a277 277 0 0 0-16.381-7.56zm1.522-16.135c6.624 2.767 13.117 5.718 19.424 8.931 6.259 3.189 12.396 6.66 18.373 10.493 6.324-6.816 12.502-13.476 17.397-18.76l-1.153-.534c-1.099-.511-2.198-1.023-3.25-1.491-.988.988-1.96 1.99-2.932 2.992-1.445 1.489-2.89 2.978-4.398 4.436l-1.54 1.488-1.849-1.09c-1.117-.658-2.27-1.262-3.421-1.864-1.236-.647-2.472-1.295-3.666-1.998l-1.832-1.08.514-2.043 2.156-8.562c-1.239-.646-2.455-1.287-3.671-1.927-1.26-.664-2.522-1.328-3.761-1.975-.834.864-1.687 1.753-2.54 2.642-1.317 1.371-2.632 2.742-4.025 4.174l-1.332 1.37-1.768-.728a194 194 0 0 0-4.227-1.666c-1.56-.6-3.118-1.2-4.36-1.71l-2.246-.923.574-2.354c.473-1.944 1.04-3.884 1.608-5.822.334-1.14.668-2.281.98-3.42a255 255 0 0 0-3.685-1.798c-1.036-.497-2.07-.995-3.053-1.475-.798 8.57-1.561 16.68-2.317 24.694m-89.083-.202 3.744-6.894q-1.456-.675-2.937-1.275c-1.125 3.755-.558 1.968-2.332 7.712zm6.449-11.873 4.823-8.879c-5.52-2.529-11.061-4.593-16.627-6.16l-2.041 10.158q.774.191 1.549.4c4.122 1.108 8.286 2.59 12.296 4.481m96.264-30.774.93-.683 1.897-4.426c-11.327-5.698-22.969-10.91-34.97-15.566a372 372 0 0 0-37.377-12.28c-.243.548-.494 1.107-.745 1.666-.452 1.008-.904 2.016-1.39 3.142l.048.547a372 372 0 0 1 35.952 11.817c12.126 4.673 24.004 9.952 35.655 15.783m7.71-8.962 12.918.792 5.041-9.604-6.936-4.208-4.97 5.77-1.42 1.65-1.957-.963-9.151-4.5-1.984-.976.456-2.147 1.495-7.043-5.909-2.933a314 314 0 0 0-1.299 1.909c-.904 1.337-1.81 2.676-2.783 4.015l-1.283 1.764-2.028-.79c-1.84-.716-3.339-1.36-4.834-2.002-1.632-.7-3.265-1.402-4.635-1.935l-2.176-.847.416-2.287c.278-1.529.503-3.179.728-4.828.122-.9.245-1.802.384-2.722l-6.665-2.438-4.128 5.16-1.177 1.471-1.801-.519c-1.828-.526-3.235-.987-4.638-1.447-1.431-.469-2.863-.938-4.438-1.391l-2.222-.64.174-2.295c.118-1.563.153-2.903.187-4.243.02-.794.041-1.588.07-2.362l-6.678-2.368c-.793 1-1.228 1.546-1.666 2.094a2315 2315 0 0 0-2.925 3.664l-1.192 1.51-1.842-.558c-1.768-.535-3.359-1.09-4.948-1.646-1.598-.557-3.195-1.115-4.727-1.579l-1.926-.583-.078-2.008-.29-7.366-4.351-1.007-3.74 13.167c3.35 2.186 4.038 2.638 4.936 3.227l6.15 4.031a377 377 0 0 1 40.027 13.028c12.973 5.032 25.561 10.722 37.814 16.983m-98.1 65.276c1.148-1.606 2.333-3.397 3.545-5.228 4.873-7.36 10.165-15.354 18.825-20.202 3.152-1.765 6.625-3.05 10.167-3.586 3.29-.497 6.652-.35 9.898.653 4.264 1.317 7.431 4.288 9.74 8.137 2.605 4.34 4.095 9.818 4.83 15.188.582 4.243.802 8.524.726 12.698a87 87 0 0 1-1.186 12.894l-5.581-.93a81.5 81.5 0 0 0 1.12-12.052 77 77 0 0 0-.681-11.857c-.644-4.698-1.907-9.424-4.078-13.04-1.626-2.71-3.768-4.775-6.551-5.634-2.373-.733-4.89-.833-7.396-.454-2.845.43-5.662 1.478-8.24 2.921-7.474 4.184-12.37 11.579-16.876 18.387-1.212 1.83-2.397 3.621-3.655 5.383zm8.574 3.037c1.287-2.875 2.878-5.86 4.85-8.752 1.986-2.914 4.374-5.754 7.248-8.325 2.5-2.238 5.441-4.167 8.503-5.128 2.819-.885 5.738-.97 8.553.193 4.05 1.675 6.552 4.453 8.14 7.845 1.472 3.143 2.092 6.732 2.449 10.403.29 2.974.544 5.982.656 8.926.115 3 .083 5.922-.206 8.653l-5.625-.576c.26-2.468.289-5.13.184-7.877-.107-2.803-.353-5.71-.634-8.594-.304-3.124-.805-6.119-1.94-8.543-1.017-2.175-2.61-3.95-5.172-5.01-1.466-.606-3.09-.529-4.722-.017-2.238.703-4.472 2.188-6.421 3.933-2.485 2.223-4.578 4.72-6.341 7.306-1.779 2.61-3.21 5.29-4.362 7.867zm82.322 21.12 4.244-6.199a146 146 0 0 0-6.906-3.582 162 162 0 0 0-5.53-2.558l-3.2 6.226c1.574.774 3.188 1.601 4.814 2.464a211 211 0 0 1 6.578 3.649m6.725-21.552-3.68 8.304a140 140 0 0 1 10.482 5.975l6.218-6.704a204 204 0 0 0-13.02-7.575m71.431-18.17a363 363 0 0 1 5.986-4.884c-4.996-3.79-10.35-7.132-15.742-10.398-5.597-3.388-11.38-6.393-17.295-9.383l-1.402 8.216.01.166c5.12 1.99 10.338 4.398 15.398 7.29 4.53 2.591 8.94 5.572 13.045 8.993m13.318-6.343 2.094.084c1.578.062 3.153.126 4.644.183a606 606 0 0 1 3.248-5.028c1.478-2.271 2.957-4.545 4.36-6.803a276 276 0 0 0-2.89-1.641 188 188 0 0 1-3.758-2.15c-.571.494-1.124.99-1.677 1.484-1.137 1.02-2.275 2.04-3.41 2.95l-1.497 1.2-1.67-.945c-1.324-.75-2.506-1.502-3.685-2.253-1.058-.673-2.117-1.347-3.442-2.097l-2.391-1.159.986-8.187-6.442-3.463-5.439 5.72-11.59-6.28-2.077-1.08.66-2.232 1.326-4.488-5.064-2.993-5.79 8.67 3.193 6.048c7.036 3.006 13.552 6.573 20.047 10.506 7.036 4.26 13.975 8.936 20.264 13.954m-84.423 45.781 2.568-2.773-.472-.29z" style="fill:#000;fill-rule:evenodd"></path><path d="m402.06 190.977 5.776 2.326-3.45 10.35-11.625-3.75-1.05 1.2 11.924 4.35-2.774 7.575" style="fill:none"></path><path d="m407.836 193.303-4.012-1.616q-.105.03-.212.064c-2.238.703-4.472 2.188-6.421 3.933a38 38 0 0 0-4.115 4.32l11.31 3.649zM403.635 205.453l-11.533-4.208a44 44 0 0 0-1.252 1.745 49 49 0 0 0-3.324 5.677 330 330 0 0 1 13.428 4.106z" style="fill:#000;fill-rule:evenodd"></path><path d="m507.136 240.329-6.112 9.975-4.669-3.075-1.257 1.5 4.932 3.506-6.207 10.294" style="fill:none;stroke:#1b1918;stroke-width:.56690001;stroke-linecap:butt;stroke-linejoin:miter;stroke-dasharray:none"></path><path d="m500.03 252.235-4.644-3.302-7.232 7.782a323 323 0 0 1 6.379 4.637zM496.736 247.48l4.288 2.824 5.564-9.08c-2.238-.024-4.232.208-5.328 1.388z" style="fill:#000;fill-rule:evenodd"></path><path d="m506.588 241.224-5.564 9.08-4.288-2.824-1.35 1.453 4.644 3.302-5.497 9.117a322 322 0 0 1 4.94 3.759c3.523-7.813 7.509-16.089 11.374-24.176-.445-.019-1.192-.08-1.638-.102-.795-.04-1.595-.05-2.37-.018zM483.463 253.454l13.655-14.696c3.294-3.544 8.096-4.14 12.604-3.91 1.286.066 2.35.581 3.455.907l1.567-3.237c-2.736-.771-5.724-1.054-8.6-.69-3.256.412-6.358 1.66-8.734 3.983-3.977 3.888-8.058 7.976-12.138 12.064l-4.058 4.058q1.127.755 2.249 1.52" style="fill:#fff;fill-rule:evenodd"></path><path d="M493.468 231.759c3.318-3.243 7.56-4.976 11.968-5.534 3.994-.506 8.133-.04 11.82 1.138 4.474-9.156 9.11-18.488 13.812-27.955l.31-.625.285-.575.512-.4c1.785-1.394 3.5-2.784 5.188-4.174-3.61-2.924-7.462-5.499-11.415-7.759-3.92-2.241-7.937-4.174-11.92-5.836l.09.703c.337 2.651.675 5.303.828 7.962l.068 1.183-.82.888c-10.952 11.847-17.936 19.374-24.882 26.86-8.68 9.355-17.42 18.776-23.047 24.856a327 327 0 0 1 10.126 6.271l4.873-4.873c4.11-4.119 8.222-8.238 12.204-12.13m17.542-15.363-4.998-3.463 12.379-17.527 5.025 3.39zM470.7 229.39l2.569-2.774-.472-.29zM464.11 236.51a213 213 0 0 0-5.435-3.154l-1.512 2.685c-.165.296-.332.594-.53.944q2.329 1.281 4.637 2.597zM457.072 226.024a211 211 0 0 1 6.579 3.649l4.243-6.199a146 146 0 0 0-6.906-3.582 162 162 0 0 0-5.53-2.558l-3.2 6.226c1.574.774 3.188 1.601 4.814 2.464M453.701 230.653a154 154 0 0 0-7.471-3.692l-.405 4.345q2.926 1.47 5.822 2.996l.578-1.03zM447.13 221.166l3.101-6.033q-1.386-.559-2.79-1.1l-.655 6.983zM447.993 208.186c4.653 1.753 9.2 3.655 13.618 5.735l3.728-8.411a277 277 0 0 0-16.381-7.562zM470.375 208.121l-3.68 8.304a140 140 0 0 1 10.482 5.975l6.218-6.704a204 204 0 0 0-13.02-7.575" style="fill:#fff;fill-rule:evenodd"></path><path d="M468.938 200.982c6.259 3.189 12.396 6.66 18.373 10.493l17.397-18.76-1.153-.534c-1.099-.511-2.198-1.023-3.25-1.491-.988.988-1.96 1.99-2.932 2.992-1.445 1.489-2.89 2.978-4.398 4.436l-1.54 1.488-1.849-1.09c-1.117-.658-2.27-1.261-3.421-1.864-1.236-.647-2.472-1.294-3.666-1.998l-1.832-1.08.514-2.043 2.156-8.562-3.671-1.927-3.761-1.975-2.54 2.642c-1.317 1.371-2.632 2.742-4.024 4.174l-1.333 1.37-1.768-.728a194 194 0 0 0-4.227-1.666c-1.56-.6-3.118-1.2-4.36-1.71l-2.246-.923.574-2.354c.473-1.944 1.04-3.884 1.608-5.822.334-1.14.668-2.281.98-3.42a255 255 0 0 0-3.685-1.798l-3.053-1.475-2.317 24.694c6.624 2.767 13.118 5.718 19.424 8.931M513.363 173.668c5.12 1.99 10.338 4.398 15.398 7.29 4.53 2.591 8.94 5.572 13.045 8.993a363 363 0 0 1 5.986-4.884c-4.996-3.79-10.35-7.132-15.742-10.398-5.597-3.388-11.38-6.393-17.295-9.383l-1.402 8.216zM534.86 169.654c7.036 4.26 13.975 8.936 20.264 13.954l2.094.084 4.644.183a606 606 0 0 1 3.248-5.028c1.478-2.271 2.957-4.545 4.36-6.803a276 276 0 0 0-2.89-1.641 188 188 0 0 1-3.758-2.15c-.571.494-1.124.99-1.677 1.484-1.137 1.02-2.275 2.04-3.41 2.95l-1.497 1.2-1.67-.945c-1.324-.75-2.506-1.501-3.685-2.253-1.058-.673-2.117-1.347-3.442-2.097l-2.391-1.159.986-8.187-6.442-3.463-5.439 5.72-11.59-6.28-2.077-1.08.66-2.232 1.326-4.488-5.064-2.993-5.79 8.67 3.193 6.048c7.036 3.006 13.552 6.573 20.047 10.506M462.395 128.201l.456-2.147 1.495-7.043-5.909-2.933-1.298 1.909c-.905 1.337-1.81 2.676-2.784 4.015l-1.282 1.764-2.029-.79c-1.84-.716-3.339-1.36-4.834-2.002-1.632-.7-3.265-1.402-4.635-1.935l-2.176-.847.416-2.287c.278-1.529.503-3.179.728-4.828.123-.9.245-1.802.384-2.722l-6.665-2.438-4.128 5.16-1.177 1.471-1.801-.519c-1.828-.526-3.235-.987-4.638-1.447-1.431-.469-2.863-.938-4.438-1.391l-2.222-.64.174-2.295c.118-1.563.153-2.903.187-4.243l.07-2.362-6.678-2.368-1.666 2.094-2.925 3.664-1.192 1.51-1.842-.558c-1.768-.535-3.359-1.09-4.948-1.646-1.598-.557-3.195-1.115-4.727-1.579l-1.926-.583-.078-2.008-.29-7.366-4.351-1.007-3.74 13.167 4.936 3.227 6.15 4.031a377 377 0 0 1 40.027 13.028c12.973 5.032 25.561 10.722 37.814 16.983l12.92.792 5.04-9.604-6.936-4.208-4.97 5.77-1.42 1.65-1.957-.963-9.151-4.5zM465.971 144.094c-11.327-5.7-22.969-10.912-34.97-15.567a372 372 0 0 0-37.377-12.28l-.745 1.666c-.452 1.008-.904 2.016-1.39 3.142l.048.547a372 372 0 0 1 35.952 11.817c12.126 4.673 24.004 9.952 35.655 15.783l.93-.683z" style="fill:#fff;fill-rule:evenodd"></path><path d="M458.014 152.97c-10.676-5.252-21.526-10.027-32.563-14.28a366 366 0 0 0-33.373-11.072l1.296 14.437.076.844-.408.75-31.9 58.724q6.034 1.178 12.012 2.58c1.022-1.457 2.073-3.045 3.146-4.665 4.872-7.36 10.164-15.354 18.824-20.202 3.152-1.765 6.625-3.05 10.167-3.586 3.29-.497 6.652-.35 9.898.653 4.264 1.317 7.431 4.288 9.74 8.137 2.605 4.34 4.095 9.818 4.83 15.188.582 4.243.802 8.524.726 12.698a88 88 0 0 1-.825 10.554q5.415 2.362 10.74 4.914c1.024-10.991 1.984-21.167 2.945-31.356 1.127-11.95 2.253-23.886 3.262-34.751l.118-1.276 1.023-.75zm-52.938-1.687-11.04 18.187-4.743-3.07 10.958-18.114zm25.85 30.362 1.497-19.779 5.633.447-1.48 19.596z" style="fill:#fff;fill-rule:evenodd"></path><path d="M420.08 188.19c-1.626-2.71-3.77-4.774-6.552-5.633-2.373-.733-4.89-.833-7.396-.454-2.845.43-5.662 1.478-8.24 2.921-7.474 4.184-12.37 11.579-16.876 18.387a330 330 0 0 1-1.986 2.977q1.476.375 2.946.763a55.5 55.5 0 0 1 4.201-7.35c1.987-2.914 4.375-5.754 7.249-8.325 2.5-2.238 5.441-4.167 8.503-5.128 2.819-.884 5.738-.97 8.553.194 4.05 1.674 6.552 4.452 8.14 7.844 1.472 3.143 2.092 6.732 2.449 10.403.29 2.974.544 5.982.656 8.926.087 2.283.09 4.52-.041 6.662a337 337 0 0 1 2.57 1.054c.328-2.7.53-5.5.581-8.343a77 77 0 0 0-.68-11.857c-.644-4.698-1.907-9.424-4.078-13.04" style="fill:#fff;fill-rule:evenodd"></path><path d="M413.507 196.778c-1.018-2.175-2.61-3.95-5.173-5.01-1.403-.58-2.95-.534-4.51-.08l4.012 1.615-3.45 10.35-11.31-3.649q-.5.615-.974 1.241l11.533 4.208-2.681 7.32a332 332 0 0 1 15.166 5.407 69 69 0 0 0-.04-4.265c-.107-2.803-.353-5.71-.634-8.594-.304-3.124-.805-6.119-1.94-8.543M355.303 201.288l2.367-4.357-11.825-3.542 1.5 6.595q3.99.603 7.958 1.304M360.035 187.69c-.244.808-.536 1.773 0 0m-1.13 3.702 1.526.457 3.744-6.894q-1.456-.675-2.937-1.275c-2.653 8.749 1.453-4.766-1.203 4.01l-.004-.002zM354.584 175.495c4.122 1.108 8.286 2.59 12.296 4.481l4.823-8.878c-5.52-2.53-11.061-4.594-16.627-6.16l-2.041 10.158zM347.508 173.942l2.086-10.383a95 95 0 0 0-10.935-1.767l2.58 11.346c2.032.172 4.13.438 6.269.804M356.444 159.451c6.04 1.69 12.028 3.925 17.965 6.666l11.61-21.374c-2.23-.626-4.54-1.26-6.702-1.775l-.653 1.697c-.808 2.11-1.638 4.28-2.666 6.262l-1.071 2.065-2.218-.637-8.1-2.325-2.06-.591v-2.133c0-2.142-.032-3.575-.063-5.007l-.062-2.933-7.188-1.879-3.613 7.054-1 1.949-2.123-.477-8.7-1.95-2.29-.513.075-2.333.225-6.965-3.532-.793-1.358 3.095 4.42 19.435c6.41.523 12.778 1.692 19.104 3.462M353.122 180.964a72 72 0 0 0-10.56-2.013l1.84 8.096 9.094 2.724c1.55-5.114-.102.311 2.419-7.996a72 72 0 0 0-2.793-.81M216.799 427.555c-4.315-27.236-.435-55.068 8.691-81.456-2.1 1.282-4.501 2.786-6.53 4.174-1.973 1.347-3.782 2.921-5.673 4.382l-5.343 4.22c-2.947 2.251-5.16 4.136-7.191 6.977q0 .004-.004.006-.008.044-.02.087l-.001.005c-3.98 16.942-4.193 34.36-1.12 52.642l-1.003.088c3.293 1.912 7.45 3.913 10.975 5.83zM254.027 502.17a341 341 0 0 1-21.332 17.346c-.423.316-.863.736-.639 1.178 3.026 5.972 8.3 11.355 12.622 17.01l3.464 3.289c13.817 4.918 27.945 7.323 42.244 8.176a977 977 0 0 0 26.834-14.01c-19.143-5.03-35.482-13.472-49.457-22.482a107.4 107.4 0 0 1-13.736-10.508" style="fill:#fff;fill-rule:evenodd"></path><path d="M511.69 360.164q.271 9.556.284 19.117c2.533-4.091 5.027-8.45 7.467-13.105-1.372-1.677-2.821-3.165-4.415-4.3a12.5 12.5 0 0 0-3.336-1.712M124.113 596.125a528 528 0 0 1-10.953-27.968 15.6 15.6 0 0 0-2.698 3.762c-1.508 2.937-2.236 6.514-2.092 10.558 3.726 4.547 7.073 8.28 10.56 10.834 1.645 1.205 3.348 2.155 5.183 2.814" style="fill:#000;fill-rule:evenodd" data-source="https://football-logos.cc"></path><!-- source: https://football-logos.cc --></svg>