<svg xmlns="http://www.w3.org/2000/svg" fill="none" viewBox="4.5 0 23 26.87"><!-- Source: https://football-logos.cc --><path fill="#52636F" d="M5.806 22.965c.363 0 .636.11.636.436v.053c0 .153-.064.256-.199.333v.065a.38.38 0 0 1 .23.37v.078c0 .279-.209.465-.632.465H4.5v-1.801zm-.78.709h.684c.111 0 .191-.036.191-.135v-.045c0-.093-.08-.131-.191-.131h-.683v.31Zm0 .693h.698c.132 0 .212-.045.212-.15v-.044c0-.111-.08-.145-.212-.145h-.697v.34Zm3.073-1.402c.4 0 .624.231.624.548v.085c0 .22-.111.4-.298.492l.373.676h-.6l-.34-.613h-.555v.613h-.54v-1.801zm-.794.766h.67c.14 0 .203-.052.203-.156v-.036c0-.098-.065-.159-.204-.159h-.669zm3.162-.766.763 1.8h-.533l-.142-.338H9.552l-.143.339h-.511l.763-1.801h.808zm-.734 1.034h.638l-.266-.624h-.111zm2.594-1.061c.558 0 .923.19.923.603v.045h-.519v-.045c0-.151-.162-.195-.408-.195h-.064c-.258 0-.41.04-.41.122v.021c0 .106.101.127.624.187.57.069.809.225.809.54v.028c0 .333-.32.55-.943.55h-.066c-.646 0-.97-.219-.97-.627v-.04h.517v.04c0 .18.164.218.454.218h.065c.26 0 .417-.036.417-.13v-.023c0-.099-.142-.126-.638-.18-.525-.053-.792-.206-.792-.533v-.023c0-.361.357-.553.933-.553h.066zm2.576.027v.445h-.43v.91h.43v.446h-1.395v-.446h.43v-.91h-.43v-.445zm.832 0v1.355h1.125v.446h-1.664v-1.801h.54zm3.123 0v.436h-1.245v.241h1.105v.408h-1.105v.28h1.257v.436h-1.798v-1.801zm1.661 0v.445h-.43v.91h.43v.446h-1.396v-.446h.43v-.91h-.43v-.445zm1.626 0c.4 0 .624.231.624.548v.085c0 .22-.111.4-.298.492l.372.676h-.599l-.34-.613h-.556v.613h-.54v-1.801zm-.795.766h.67c.14 0 .203-.052.203-.156v-.036c0-.098-.065-.159-.204-.159h-.669zm3.16-.767.764 1.801h-.533l-.142-.339h-1.004l-.142.34h-.511l.763-1.802h.808zm-.234-.456c.043 0 .059-.031.059-.129h.269c0 .25-.098.377-.312.377-.215 0-.275-.14-.37-.14-.05 0-.066.039-.066.128h-.267c0-.247.096-.374.31-.374.23 0 .289.136.377.136zm-.498 1.49h.638l-.265-.623h-.112l-.26.624Zm2.688-1.06c.582 0 1.034.294 1.034.823v.216c0 .526-.453.816-1.034.816h-.106c-.595 0-1.056-.291-1.056-.816v-.216c0-.53.461-.823 1.056-.823zm-.615.83v.195c0 .232.185.356.507.356h.084c.32 0 .508-.126.508-.356v-.194c0-.232-.188-.357-.508-.357h-.084c-.324 0-.507.127-.507.357Zm-13.854 1.737c.41 0 .677.14.677.442v.033h-.38v-.033c0-.11-.12-.143-.299-.143h-.046c-.188 0-.301.03-.301.089v.016c0 .077.074.093.458.137.418.051.592.164.592.396v.02c0 .244-.235.404-.691.404h-.05c-.472 0-.71-.16-.71-.462v-.03h.379v.03c0 .133.12.16.333.16h.047c.191 0 .306-.026.306-.096v-.017c0-.074-.105-.093-.466-.133-.385-.04-.58-.153-.58-.39v-.018c0-.264.262-.407.684-.407h.048zm2.2.02v.319h-.911v.176h.808v.3h-.808v.203h.92v.319H12.89v-1.32h1.307zm-.178-.394-.324.255h-.326l.245-.255zm1.376.394c.293 0 .458.168.458.402v.063a.39.39 0 0 1-.219.36l.274.494h-.44l-.248-.45h-.408v.45h-.396v-1.32h.979Zm-.582.56h.49c.104 0 .151-.038.151-.115v-.025c0-.072-.047-.117-.15-.117h-.49zm2.247-.56v.326h-.314v.666h.314v.327h-1.023v-.327h.314v-.666h-.314v-.326zm1.52 0v.319h-.911v.176h.808v.3h-.808v.204h.92v.318h-1.317v-1.319h1.308zm1.626 0c.266 0 .465.081.465.319v.039c0 .113-.047.186-.147.244v.047a.28.28 0 0 1 .168.272v.057c0 .204-.154.341-.462.341h-.982v-1.32h.958Zm-.57.519h.5c.082 0 .14-.026.14-.1v-.033c0-.07-.058-.097-.14-.097h-.5zm0 .509h.51c.097 0 .154-.034.154-.11v-.033c0-.081-.06-.107-.154-.107h-.51z" data-source="https://football-logos.cc"></path><path fill="#52636F" fill-rule="evenodd" d="m14.983 14.913.377 1.171h1.212l.375-1.17-.982-.726zm-1.052-.925a2.36 2.36 0 0 0-.296 1.044l.404-.428-.107-.616Zm.399 2.852c.184.183.401.338.637.453l-.204-.39-.435-.064h.001Zm1.633-3.669.632-.303q-.302-.088-.632-.09h-.004q-.33.002-.633.09l.633.301zm-1.142 1.461.93-.688v-.61l-.713-.362c-.357.156-.666.4-.904.705l.125.77.562.183zm.223 1.523-.357-1.11-.563-.183-.486.489a2.4 2.4 0 0 0 .443 1.199l.61.1.35-.493zm.344.252-.348.485.262.53q.315.096.66.097h.007q.345-.001.66-.098l.262-.529-.347-.485zM18 13.988l-.106.616.404.428A2.4 2.4 0 0 0 18 13.988m-1.038 3.305q.358-.174.639-.454l-.435.063-.205.39h.001Zm-.782-3.348.929.687.562-.184.125-.769a2.35 2.35 0 0 0-.904-.706l-.712.363zm1.063 1.101-.357 1.11.352.493.608-.101c.246-.34.406-.753.443-1.2l-.486-.488-.562.184z" clip-rule="evenodd"></path><path fill="#52636F" fill-rule="evenodd" d="M24.5 7.634a9.1 9.1 0 0 0-1.926-2.903 10.2 10.2 0 0 0-2.036-1.559l-.312 1.54c.431.283.954.654 1.339 1.044a7.7 7.7 0 0 1 1.622 2.441 7.7 7.7 0 0 1 .595 2.99 7.7 7.7 0 0 1-3.25 6.307L16.023 4.138l-4.547 13.364a7.66 7.66 0 0 1-2.66-3.32 7.7 7.7 0 0 1-.596-2.99 7.7 7.7 0 0 1 2.217-5.432c.395-.4.837-.77 1.278-1.06l-.234-1.543c-.708.41-1.456.973-2.053 1.58A9.1 9.1 0 0 0 7.5 7.638a9.2 9.2 0 0 0-.707 3.554 9.2 9.2 0 0 0 .707 3.554 9.1 9.1 0 0 0 1.927 2.903 9 9 0 0 0 2.86 1.956 8.8 8.8 0 0 0 3.5.717q.107 0 .213-.002l.213.002a8.8 8.8 0 0 0 3.501-.717 9 9 0 0 0 2.86-1.956 9.1 9.1 0 0 0 1.926-2.903 9.2 9.2 0 0 0 .707-3.554A9.2 9.2 0 0 0 24.5 7.64l-.001-.004v-.001Zm-8.533 10.215c-1.458 0-2.639-1.198-2.639-2.678s1.18-2.68 2.64-2.68c1.458 0 2.638 1.2 2.638 2.68s-1.181 2.678-2.639 2.678" clip-rule="evenodd" data-source="https://football-logos.cc"></path><path fill="#52636F" fill-rule="evenodd" d="m20.57 16.887-.12-.66c-.64-3.293-1.8-11.117.595-16.227L10.938.002c2.395 5.11 1.236 12.934.595 16.226l-.119.66 4.61-14.063" clip-rule="evenodd" data-source="https://football-logos.cc"></path><!-- source: https://football-logos.cc --></svg>