<svg xmlns="http://www.w3.org/2000/svg" viewBox="0 0 576 576"><!-- Source: https://football-logos.cc --><defs data-source="https://football-logos.cc"><linearGradient id="a" x1="380.41" x2="429.59" y1="686.07" y2="123.93" gradientUnits="userSpaceOnUse"><stop offset="0" stop-color="#eab82a"></stop><stop offset=".5" stop-color="#f6e9bd"></stop><stop offset="1" stop-color="#eab420"></stop></linearGradient></defs><path fill="#fff" d="M288 6.37c155.55 0 281.63 126.08 281.63 281.63S443.55 569.63 288 569.63 6.37 443.55 6.37 288 132.45 6.37 288 6.37"></path><path fill="#e5b222" d="M288 570.36a280.5 280.5 0 0 1-162.73-51.59 283.15 283.15 0 0 1-101.85-132c-1.29-3.35-2.52-6.85-3.67-10.39A283.63 283.63 0 0 1 19.32 201c1.17-3.65 2.34-7.06 3.58-10.4a282.51 282.51 0 0 1 530.2 0c1.24 3.34 2.41 6.75 3.58 10.4a283.63 283.63 0 0 1-.43 175.37c-1.16 3.59-2.4 7.09-3.67 10.39A282.43 282.43 0 0 1 288 570.36m0-564.25c-117.7 0-224.06 74.21-264.66 184.65-1.23 3.34-2.4 6.74-3.57 10.38a283.2 283.2 0 0 0 .42 175.08c1.15 3.54 2.38 7 3.67 10.38C64.78 496.23 170.93 569.89 288 569.89s223.23-73.66 264.14-183.29c1.27-3.3 2.5-6.79 3.67-10.38a283.2 283.2 0 0 0 .42-175.08c-1.17-3.64-2.34-7-3.57-10.37C512.06 80.32 405.7 6.11 288 6.11m0 555.23A273.56 273.56 0 0 1 33 386.77l-.12-.33H51.8l.06.15 5.6 14.07 43.59-17.11-2.27 3.26L72 425.55l8.66 13.4 60.69-14.83-10.58-15.65-29.52 6.72.35-.5 17-24.53-2.5-3.72h16.87l.07.11a183.75 183.75 0 0 0 310 0l.07-.11h20.19l-.1.31a20.7 20.7 0 0 0-.1 13.19c1.91 5.2 6.11 9.11 12.51 11.61l.6.23a23.4 23.4 0 0 0 5.28.65c9.82 0 16-6.66 19.44-12.25l.07-.18 16.9 8.45 10.82-22h14.4l-.13.33A273.45 273.45 0 0 1 288 561.34M33.57 386.91c40.54 104.06 142.75 174 254.43 174s213.89-69.9 254.39-174H529l-10.9 22.17-16.93-8.47c-3.53 5.65-9.8 12.29-19.73 12.29a24.2 24.2 0 0 1-5.41-.67l-.3-.09-.35-.15c-6.52-2.56-10.82-6.55-12.77-11.88a21 21 0 0 1 0-13.2h-19.32a184.2 184.2 0 0 1-310.63 0h-15.73l2.19 3.25-.09.13-16.71 24.17 28.68-6.53.09.14 11 16.35-.32.08-61.35 15-.09-.14-8.92-13.8.09-.13 28.27-40.86-6 2.35-36.57 14.35-.09-.22-5.63-14.14Zm239 159.31.1-.53 3.88-19.93L263 513.05l17.66-2.12 8.48-17.37 8.51 17.37 17.67 2.12-.37.34-13.11 12.37 4 20.46-.46-.28-16.22-10.07Zm16.64-10.9.12.07 15.89 9.86-3.82-19.66.1-.09 12.83-12.11-16.91-2-.06-.12-8.15-16.62-8.21 16.73h-.13l-16.79 2L277 525.59v.13l-3.8 19.53Zm-110.65-13.13-.2-.11-32-17.18.14-.22 10.17-15.83 13.28 7c-4-2.69-10.74-8.64-10.74-18.38a24.5 24.5 0 0 1 1.08-7c3.18-8.42 9.09-12.85 17.09-12.85 4.37 0 9.18 1.29 14.72 4 1 .47 4.24 2.28 4.85 2.63l9.59 5.8-.11.2ZM147 504.72l31.38 16.83L206 470.22l-9.2-5.57c-.12-.07-3.22-1.83-4.59-2.51l-.15-.07h-.16l-.25-.12c-5.11-2.44-9.59-3.68-13.65-3.8h-.61c-7.79 0-13.55 4.34-16.65 12.54a23.9 23.9 0 0 0-1.05 6.82c0 10.26 7.61 16.22 11.38 18.55l.2.12-.41.73-14-7.34Zm256.14 14.94A18.57 18.57 0 0 1 388 512a15.83 15.83 0 0 1-3.24-9.64 17 17 0 0 1 .3-3.17 19.6 19.6 0 0 1-9.89-7.22 21.36 21.36 0 0 1-4.07-12.18 17.6 17.6 0 0 1 .23-2.84c.8-5.32 4-9.88 9.4-13.54a23.94 23.94 0 0 1 13.66-4.51c10.32 0 17.08 7.57 17.15 7.65l3.66 4a30.93 30.93 0 0 1 27.88-44.3 30.2 30.2 0 0 1 10.64 1.88l-11.26-11.71.18-.17 14.08-12.41.15.17 40.43 42.12-.16.16-13 13.61-.17-.17-11.17-11.17a30.95 30.95 0 0 1-57.56 22.15l-.19.13-12 8.34 7.5 13.9 9.79-4.75.1.23 1.83 4.74v.06a16.8 16.8 0 0 1 1.17 6.22 20.85 20.85 0 0 1-11 17.93l-.23.11a21.8 21.8 0 0 1-9.08 2.04Zm-17.91-17.3a15.34 15.34 0 0 0 3.15 9.35 18.1 18.1 0 0 0 14.76 7.48 21.2 21.2 0 0 0 8.87-2 20.28 20.28 0 0 0 11-17.62 16.3 16.3 0 0 0-1.16-6.09L420.1 489l-9.75 4.73-.1-.2-7.81-14.53.18-.12 12-8.3-3.4-3.75c-.06-.08-6.67-7.49-16.79-7.49a23.56 23.56 0 0 0-13.4 4.42c-5.32 3.6-8.41 8.05-9.2 13.24a18 18 0 0 0-.22 2.77 20.84 20.84 0 0 0 4 11.89 19.1 19.1 0 0 0 9.85 7.12l.2.06v.21a17 17 0 0 0-.44 3.31Zm27.4-45.15a30.47 30.47 0 1 0 59.45-9.42l-.3-.93.69.69 11.67 11.72 12.51-13.1-40-41.64-13.56 12 12.46 12.95-1-.43a29.6 29.6 0 0 0-11.47-2.24 30.48 30.48 0 0 0-30.46 30.4ZM136.9 497.86l-.18-.16L115 477.49l.14-.18 11.66-14a39 39 0 0 1-2.78-3.35 22.83 22.83 0 0 1-4.69-13.35 18.5 18.5 0 0 1 .94-5.84 21.54 21.54 0 0 1 13.54-13.59 17.4 17.4 0 0 1 5.38-.86c5.94 0 10.8 3.18 14.76 6.3 1.92 1.51 3.69 3 5.28 4.47a67 67 0 0 1 6 6.07l2.8 3.23-.14.15-26.81 30.08 8.46 7.39-.16.17Zm-21.26-20.42 21.23 19.75 12-13.18-8.46-7.37.16-.18 26.83-30.11-2.54-2.94a66 66 0 0 0-6-6 94 94 0 0 0-5.25-4.45c-3.9-3.06-8.68-6.2-14.47-6.2a16.7 16.7 0 0 0-5.23.84 21.06 21.06 0 0 0-13.25 13.29 18 18 0 0 0-.91 5.68 22.4 22.4 0 0 0 4.59 13.08 38 38 0 0 0 2.9 3.46l.14.15Zm327.43-8.34A11.87 11.87 0 1 1 455 457.21a11.88 11.88 0 0 1-11.93 11.89m-11.38-11.89a11.4 11.4 0 1 0 11.38-11.37 11.42 11.42 0 0 0-11.38 11.37M288 463.08c-1.93 0-3.88 0-5.6-.09h-.14c-2.54-.1-4.94-.19-7.39-.43-1.23 0-2.44-.14-3.58-.28a26 26 0 0 1-2.73-.28c-2.46-.26-5.19-.62-8.09-1.08-1.78-.28-3.6-.62-5.36-.94s-3.77-.71-5.65-1.13l-1.9-.47L246 458l-.6-.14-2.55-.68c-1.55-.41-3.15-.84-4.71-1.3l-1.25-.37h-.16c-3.05-1-5.68-1.84-8-2.68a52 52 0 0 1-4.24-1.6c-2.7-1-5.28-2.14-8.33-3.48-2.81-1.27-5.08-2.36-7.15-3.44-1.18-.57-2.39-1.21-3.53-1.83s-2.17-1.17-3.48-1.93c-1-.56-2.09-1.19-3.11-1.79h-.08c-1-.59-2-1.2-3-1.84-1.37-.83-2.79-1.73-4.23-2.68s-2.83-1.9-4.19-2.88l-.2-.14c-1.18-.83-2.4-1.69-3.56-2.58l-.46-.34c-1.12-.83-2.18-1.62-3.22-2.49-1.7-1.35-3.53-2.85-5.45-4.46-1.13-1-2.32-2-3.53-3.11-.49-.41-1-.88-1.56-1.42-1.78-1.55-3.5-3.27-5.16-4.94-1.37-1.36-2.8-2.87-4.53-4.75l-.27-.29c-1-1.06-2-2.16-2.92-3.24a137 137 0 0 1-6.83-8.23c-1.05-1.33-2.07-2.72-3.06-4.07l-.09-.12c-.95-1.29-1.93-2.69-3-4.28a6.6 6.6 0 0 1-.67-1c-1-1.41-1.91-2.82-2.76-4.17-1.06-1.7-2.16-3.46-3.19-5.24a.6.6 0 0 1-.07-.11v-.06c-1.49-2.59-2.68-4.74-3.76-6.77s-2.21-4.36-3.39-6.87a1.5 1.5 0 0 1-.29-.64c-1-2-1.87-4-2.63-5.86a7.3 7.3 0 0 1-.57-1.38c-.9-2.09-1.79-4.4-2.72-7-.51-1.26-.92-2.44-1.27-3.58-.67-1.95-1.29-3.95-1.88-5.88-1.08-3.5-2.09-7.3-3.06-11.62v-.1c-.07-.29-.14-.63-.22-1-.17-.74-.35-1.51-.48-2.26-.24-1.08-.44-2.2-.61-3.15-.33-1.65-.61-3.29-.85-5a2 2 0 0 1-.08-.5c-.28-2-.57-4-.8-6.09a1 1 0 0 1 0-.4c-.14-1.05-.28-2.14-.37-3.22-.36-3.58-.57-6.9-.66-10.16-.1-2.26-.14-4.46-.14-6.73 0-1.79 0-3.51.09-5.32v-.31c.05-1.24.1-2.52.19-3.74.08-2.4.27-5 .61-8.23.14-1.6.33-3.18.52-4.7.26-2.29.62-4.68 1.08-7.3.64-3.77 1.34-7.27 2.16-10.68l1.41-5.5c.45-1.74 1-3.51 1.56-5.42.45-1.46 1-3.2 1.6-4.94s1.19-3.54 1.93-5.41c.26-.68.52-1.35.77-2s.52-1.33.78-2c.19-.43.37-.85.54-1.27l.54-1.28c1.31-3.19 2.67-6.16 4.14-9.08.75-1.58 1.58-3.21 2.54-5 .72-1.34 1.66-3.11 2.69-4.85s2-3.47 3.24-5.41c1-1.57 2-3.2 3.25-5a1.9 1.9 0 0 1 .36-.55c1.52-2.27 3.14-4.55 4.77-6.74 1.08-1.46 2.38-3.17 3.77-4.8 1.08-1.42 2.22-2.79 3.38-4.1a173 173 0 0 1 17-17.57l.17-.15c1.45-1.27 2.94-2.58 4.44-3.8 2.86-2.39 6.06-4.86 9.79-7.53 3-2.16 6.12-4.19 8.79-5.88 1.11-.7 2.17-1.33 3.29-2l.9-.54c1.84-1.11 3.73-2.14 5-2.83l4-2.11c2-1 3.79-1.89 5.56-2.69s3.24-1.52 4.84-2.21c.75-.33 1.5-.64 2.27-1l1.3-.54 1.8-.69c.6-.22 1.2-.44 1.78-.68l1.38-.54.55-.21c1.93-.69 3.93-1.4 6-2.07l1.48-.46c1.2-.37 2.45-.76 3.65-1.09 1.85-.55 3.65-1 5.18-1.44a.36.36 0 0 1 .24-.08c1.46-.37 3.26-.81 5.12-1.21s4-.85 5.92-1.23c1.66-.34 3.25-.61 4.85-.84 2-.33 4.07-.62 6.07-.85 1.05-.15 2.13-.27 3.18-.38l1.66-.18 1.51-.14 4.33-.29c1.81-.14 3.58-.23 5.41-.28 4-.1 7.28-.1 11.3 0 1.83.05 3.6.14 5.41.28l5.83.43 1.67.18c1.05.11 2.13.23 3.18.38 2 .23 4 .52 6.07.85 1.6.23 3.19.5 4.85.85 1.94.37 3.95.75 5.93 1.22s3.65.84 5.17 1.22a.23.23 0 0 1 .19.08c1.52.4 3.32.88 5.16 1.43 1.65.44 3.33.95 5.13 1.55 2 .66 4 1.37 6 2.07l.57.21c.45.17.91.35 1.38.55s1.18.45 1.77.67 1.2.45 1.79.69l1.34.55 2.24.95c1.6.69 3.14 1.41 4.85 2.21s3.58 1.68 5.55 2.69l4 2.11c1.26.69 3.15 1.72 5 2.83 1.57.89 2.94 1.72 4.19 2.54 2.66 1.69 5.79 3.71 8.79 5.88 3.73 2.67 6.93 5.14 9.79 7.53 1.73 1.41 3.24 2.7 4.61 4a171 171 0 0 1 17.13 17.46 70 70 0 0 1 3.39 4.1c1.38 1.62 2.68 3.33 3.76 4.79 1.63 2.19 3.25 4.47 4.8 6.78a2.2 2.2 0 0 1 .35.54c1.2 1.76 2.27 3.39 3.23 5 1.21 1.93 2.28 3.7 3.25 5.41s2 3.51 2.68 4.85c.94 1.74 1.77 3.37 2.54 5 1.47 2.91 2.83 5.88 4.14 9.08l.54 1.27q.25.63.54 1.26c.28.74.55 1.45.83 2.16l.72 1.89c.73 1.84 1.35 3.68 1.93 5.41s1.12 3.36 1.6 4.95c.59 1.86 1.1 3.63 1.55 5.41l1.41 5.5c.83 3.41 1.53 6.91 2.17 10.68.47 2.66.82 5.05 1.08 7.3.19 1.52.38 3.1.52 4.7.44 4.16.71 8.25.8 12.14v.37c0 1.73.08 3.38.08 5.09 0 2.23 0 4.43-.14 6.73-.09 3.25-.3 6.57-.65 10.16-.1 1.08-.24 2.17-.38 3.23a1.2 1.2 0 0 1-.06.44c-.22 2-.51 4.08-.79 6.07a1.7 1.7 0 0 1-.07.44v.1c-.22 1.65-.5 3.28-.84 5-.2 1.17-.38 2.15-.61 3.15-.13.74-.31 1.52-.48 2.26-.08.35-.15.69-.23 1-1 4.37-2 8.17-3.06 11.67l-.1.33c-.57 1.84-1.16 3.73-1.78 5.56-.35 1.15-.77 2.32-1.27 3.58-.93 2.61-1.82 4.93-2.73 7a7.5 7.5 0 0 1-.57 1.39c-.75 1.84-1.63 3.81-2.62 5.83a1.6 1.6 0 0 1-.32.68c-1.15 2.47-2.26 4.72-3.36 6.83s-2.27 4.18-3.76 6.77h-.25l.21.11a.6.6 0 0 1-.07.11c-1 1.78-2.12 3.54-3.18 5.24-.83 1.31-1.77 2.72-2.78 4.19a7 7 0 0 1-.67 1c-1.09 1.6-2 3-3 4.26l-.09.12c-1 1.35-2 2.74-3.07 4.07-2.19 2.87-4.42 5.56-6.82 8.23-1 1.19-2.15 2.4-3.2 3.53-1.65 1.82-3.13 3.37-4.52 4.75-1.66 1.67-3.38 3.39-5.17 5-.54.54-1.06 1-1.56 1.42-1.2 1.1-2.39 2.15-3.52 3.1-1.87 1.56-3.71 3.07-5.46 4.46-1.05.89-2.14 1.69-3.28 2.54l-.39.29c-1.16.89-2.38 1.75-3.56 2.58l-.2.15c-1.34 1-2.69 1.86-4.19 2.87s-2.87 1.86-4.24 2.68c-1 .64-2 1.25-3 1.84l-.17.09c-1 .58-2 1.19-3 1.74-1.29.75-2.43 1.39-3.48 1.93-1.21.65-2.38 1.28-3.53 1.83-2.06 1.08-4.34 2.17-7.15 3.44-2.63 1.16-5.46 2.38-8.33 3.48-1.41.56-2.84 1.13-4.24 1.61-2.36.83-5 1.71-8 2.67l-1.41.42c-1.56.46-3.16.89-4.71 1.3l-2.53.68-.88-.01-1.53.38-1.9.47c-1.87.42-3.77.8-5.65 1.13s-3.56.66-5.37.94c-2.9.46-5.62.82-8.09 1.08a25 25 0 0 1-2.74.28c-1.12.14-2.33.24-3.57.28-2.44.24-4.83.33-7.37.43h-.15c-1.75.01-3.7.09-5.63.09m-43.56-344.22h-.18c-1.54.41-3.37.9-5.25 1.46-1.2.33-2.44.72-3.64 1.09l-1.48.46c-2 .66-4 1.37-6 2.06l-.55.21c-.44.17-.9.34-1.36.54s-1.2.46-1.8.68l-1.78.68-1.3.55c-.76.31-1.51.62-2.26.95-1.6.69-3.13 1.41-4.84 2.21s-3.57 1.67-5.53 2.67l-3.95 2.12c-1.25.68-3.13 1.71-5 2.81l-.9.54c-1.12.67-2.17 1.3-3.28 2-2.66 1.69-5.79 3.71-8.77 5.86-3.71 2.67-6.91 5.12-9.76 7.51-1.49 1.22-3 2.53-4.43 3.79l-.17.15a172 172 0 0 0-17.08 17.41c-1.16 1.3-2.29 2.67-3.38 4.08-1.39 1.64-2.67 3.34-3.76 4.79-1.62 2.19-3.23 4.46-4.78 6.76a1.7 1.7 0 0 0-.31.49c-1.24 1.81-2.3 3.43-3.26 5-1.22 1.93-2.28 3.7-3.23 5.39s-2 3.5-2.68 4.84c-1 1.76-1.79 3.39-2.53 5-1.48 2.91-2.83 5.87-4.13 9.06-.19.43-.37.85-.54 1.27s-.36.85-.55 1.27c-.25.67-.51 1.34-.77 2s-.52 1.34-.77 2c-.74 1.86-1.38 3.76-1.93 5.39s-1.14 3.47-1.59 4.93c-.6 1.9-1.11 3.66-1.55 5.4l-1.37 5.55c-.81 3.4-1.52 6.88-2.16 10.65-.46 2.62-.81 5-1.07 7.27-.19 1.53-.38 3.1-.52 4.7-.34 3.2-.53 5.81-.61 8.2-.09 1.23-.14 2.5-.18 3.73v.31c0 1.81-.09 3.52-.09 5.31 0 2.26 0 4.46.14 6.71.09 3.25.3 6.57.65 10.14.1 1.07.24 2.16.38 3.21a.8.8 0 0 0 0 .35c.24 2.11.53 4.17.8 6.15a2 2 0 0 0 .07.42v.08c.25 1.72.52 3.35.85 5 .17 1 .37 2.06.61 3.14.13.74.31 1.51.47 2.25l.24 1v.1c1 4.26 2 8.05 3.05 11.53.59 1.93 1.21 3.92 1.87 5.87.35 1.14.76 2.3 1.27 3.56.93 2.64 1.82 4.94 2.72 7a7.2 7.2 0 0 0 .56 1.34c.76 1.89 1.65 3.86 2.63 5.89v.05a1.14 1.14 0 0 0 .24.51c1.21 2.56 2.31 4.8 3.4 6.9s2.28 4.17 3.76 6.75v.14c1 1.79 2.13 3.56 3.19 5.26.85 1.34 1.79 2.75 2.77 4.17a7 7 0 0 0 .64.93c1.09 1.6 2.07 3 3 4.29l.08.11c1 1.35 2 2.74 3.06 4.06 2.18 2.85 4.41 5.53 6.81 8.21 1 1.08 2 2.17 2.92 3.23l.27.29c1.72 1.88 3.15 3.39 4.51 4.74 1.66 1.66 3.37 3.38 5.15 4.93.54.53 1.06 1 1.55 1.4 1.21 1.12 2.4 2.16 3.52 3.11 1.92 1.6 3.75 3.1 5.45 4.46 1 .86 2.09 1.64 3.2 2.47l.46.34c1.16.89 2.38 1.75 3.56 2.58l.19.14c1.36 1 2.75 1.92 4.18 2.86s2.85 1.85 4.22 2.68c1 .64 2 1.24 3 1.83h.08c1 .59 2.07 1.21 3.09 1.78 1.32.76 2.45 1.39 3.48 1.93s2.34 1.26 3.52 1.82c2.07 1.08 4.33 2.16 7.13 3.43 3 1.34 5.62 2.44 8.31 3.47 1.38.55 2.81 1.13 4.22 1.6 2.36.84 5 1.71 8 2.67h.16l1.24.37c1.56.46 3.15.88 4.7 1.29l2.54.69.6.13 1.53.38 1.9.47c1.87.42 3.76.8 5.62 1.13s3.57.66 5.36.93c2.89.46 5.6.82 8.07 1.09.89.13 1.82.23 2.71.28 1.14.13 2.34.23 3.57.28 2.45.23 4.84.32 7.38.42h.14c1.71 0 3.66.09 5.58.09s3.87-.05 5.59-.09h.14c2.53-.1 4.92-.19 7.36-.42 1.24-.05 2.43-.15 3.56-.28.91-.05 1.84-.15 2.72-.28 2.48-.27 5.19-.63 8.08-1.09 1.8-.28 3.61-.61 5.35-.93s3.77-.71 5.63-1.13l1.9-.47 1.53-.38.62-.14 2.52-.68c1.55-.41 3.14-.83 4.7-1.29.47-.13.94-.28 1.4-.42 3-1 5.67-1.83 8-2.67 1.39-.47 2.81-1 4.18-1.58 2.91-1.12 5.73-2.33 8.35-3.49 2.8-1.27 5.07-2.35 7.13-3.42 1.14-.55 2.32-1.18 3.52-1.83 1-.55 2.17-1.18 3.47-1.93 1-.55 2-1.15 3-1.73l.17-.1c1-.59 2-1.19 3-1.83 1.37-.82 2.79-1.72 4.23-2.68s2.84-1.89 4.17-2.85l.2-.15c1.18-.83 2.4-1.69 3.56-2.58l.39-.29c1.14-.84 2.22-1.64 3.26-2.52 1.76-1.39 3.59-2.89 5.46-4.46 1.12-.95 2.31-2 3.51-3.1.51-.41 1-.87 1.55-1.4 1.79-1.56 3.5-3.28 5.16-4.94 1.38-1.37 2.86-2.93 4.51-4.73 1-1.14 2.15-2.34 3.19-3.53 2.39-2.66 4.61-5.34 6.8-8.21 1.06-1.32 2.08-2.71 3.07-4.06l.08-.11c.95-1.3 1.91-2.66 3-4.27a6 6 0 0 0 .65-.93q1.53-2.22 2.78-4.19c1.06-1.7 2.16-3.47 3.19-5.26v-.05a.4.4 0 0 1 .08-.12c1.45-2.55 2.65-4.69 3.73-6.72s2.19-4.34 3.37-6.85a1.36 1.36 0 0 0 .27-.56v-.05c1-2 1.87-4 2.62-5.86a7.4 7.4 0 0 0 .56-1.35c.92-2.14 1.8-4.44 2.73-7.06.5-1.25.91-2.41 1.26-3.56.63-1.82 1.21-3.71 1.78-5.55l.1-.33c1.08-3.48 2.08-7.27 3.05-11.58.08-.39.15-.73.24-1.08.16-.74.34-1.51.47-2.25.22-1 .41-2 .61-3.15.34-1.68.61-3.31.84-5v-.13a1.1 1.1 0 0 0 .06-.35c.28-2 .57-4.08.8-6.14a.9.9 0 0 0 .05-.35c.14-1.1.28-2.19.38-3.26.35-3.58.56-6.9.65-10.14.1-2.29.15-4.49.15-6.71 0-1.71 0-3.35-.09-5.08v-.36c-.09-3.89-.36-8-.8-12.11-.14-1.6-.33-3.17-.52-4.7-.25-2.24-.61-4.61-1.07-7.27-.64-3.77-1.35-7.25-2.16-10.65l-1.41-5.49c-.45-1.77-1-3.54-1.55-5.39-.48-1.58-1-3.28-1.59-4.93s-1.2-3.56-1.93-5.4l-.72-1.89c-.28-.71-.55-1.42-.83-2.15-.18-.41-.36-.84-.54-1.26s-.35-.84-.53-1.26c-1.31-3.2-2.66-6.16-4.13-9.07-.77-1.61-1.6-3.24-2.54-5-.71-1.34-1.65-3.09-2.67-4.83s-2-3.48-3.24-5.4c-1-1.57-2-3.19-3.24-5a2 2 0 0 0-.3-.49c-1.58-2.33-3.19-4.6-4.81-6.79-1.09-1.45-2.38-3.16-3.76-4.78a70 70 0 0 0-3.37-4.08 172 172 0 0 0-17.09-17.42c-1.37-1.24-2.88-2.53-4.6-3.94-2.85-2.39-6.05-4.84-9.76-7.51-3-2.16-6.12-4.18-8.78-5.86-1.24-.82-2.6-1.65-4.17-2.54-1.84-1.1-3.72-2.13-5-2.81l-3.95-2.12c-2-1-3.77-1.87-5.53-2.67s-3.24-1.52-4.84-2.21l-2.23-.94-1.34-.56-1.77-.68c-.6-.22-1.2-.44-1.79-.68s-.93-.37-1.37-.54l-.56-.21c-1.93-.69-3.94-1.41-5.95-2.06-1.8-.6-3.48-1.11-5.11-1.55-1.89-.56-3.72-1-5.27-1.46l-.17-.06a142 142 0 0 0-5.08-1.2c-2-.47-4-.85-5.91-1.22-1.65-.34-3.23-.62-4.83-.85-2-.33-4.07-.61-6.06-.84-1.05-.16-2.13-.27-3.17-.38l-1.67-.19-1.5-.14-4.31-.28c-1.81-.14-3.57-.23-5.4-.28-4-.1-7.25-.1-11.26 0-1.83.05-3.59.14-5.39.28l-5.83.42-1.66.19c-1 .11-2.12.22-3.16.38-2 .23-4 .51-6.06.84-1.61.23-3.19.51-4.83.84-1.94.38-3.95.76-5.92 1.23-1.4.66-3.16 1.09-4.66 1.47M67.5 376.68l-.14-.28-5.84-14.28-16.76 6.55 3.14 7.86H29.29v-.16A274.3 274.3 0 0 1 28.77 201v-.16h19.3l-.29.38A27.05 27.05 0 0 0 42 215.37c-.56 6.83 2 17.07 8.82 24.54a28.3 28.3 0 0 0 21.3 9.09h.52a31.09 31.09 0 0 0 24.48-11.85c5.43-6.92 7.88-16.09 6.25-23.34a32.7 32.7 0 0 0-5.83-12.6l-.28-.38h29l-.18.35a183.88 183.88 0 0 0 .75 175l.19.35h-16.29v-.15L105 362.12Zm-5.72-15.16.09.21 5.87 14.36 37.53-14.55.08.21 5.68 14.33h15.23a184.36 184.36 0 0 1-.75-174.76h-27.3a33.3 33.3 0 0 1 5.63 12.4c1.66 7.39-.83 16.71-6.34 23.74a31.54 31.54 0 0 1-24.85 12h-.52a28.8 28.8 0 0 1-21.65-9.24c-7-7.58-9.51-18-8.94-24.89a27.4 27.4 0 0 1 5.64-14h-18a273.86 273.86 0 0 0 .47 174.76h17.58l-3.06-7.65.22-.09Zm484.92 15h-27.24l-4.36-2.29-1.27 2.32h-18.67l-21.91-11.3-2 4.26-.53 1.13c-.62 1.34-1.67 3.59-2.76 5.81l-.07.13h-19l.19-.35a183.88 183.88 0 0 0 .75-175l-.18-.35h17.45l.06.13 9.25 17.46 15.93-8.33-2.1-4c-.82-1.52-1.76-3.24-2.63-4.93l-.18-.35h4.2l.06.13 3.93 7.41 14.24-7.54h37.34l.05.17a275.18 275.18 0 0 1-.47 175.37Zm-27.08-.47h26.75a274.77 274.77 0 0 0 .47-174.76H509.9L495.41 209l-4.09-7.7h-3.14c.82 1.58 1.69 3.17 2.46 4.59l2.32 4.39-16.77 8.77-.11-.2-9.29-17.55h-16.38a184.39 184.39 0 0 1-.74 174.76h17.92c1.07-2.17 2.09-4.35 2.7-5.66.4-.87.52-1.12.57-1.21l2.17-4.63.22.11 22.08 11.39h18.22l1.36-2.48.21.11Zm-6.87-5.31v-.36l2.6-19 .1-.06 2.11-1.27a12.7 12.7 0 1 0-18.77-11.12 13 13 0 0 0 3.51 8.77l1.73 1.82v.12l-3.6 19.15-.29-.21-5.92-4a30.94 30.94 0 1 1 25.78 4.09Zm3.09-19.08-2.52 18.42 6.56-1.87a30.41 30.41 0 1 0-25.37-4.05l5.62 3.83 3.44-18.32L502 348a13.4 13.4 0 0 1-3.64-9.09 13.21 13.21 0 1 1 19.47 11.53Zm-416.27 2.08-.32-.07-62-11.82-3.45-16.24.14-.09 53.38-32.38-56.86-5.32.55-5c0-.13 1.51-13.84 1.78-15.93 1.1-7.75 6.7-16.79 18.89-16.79a24 24 0 0 1 3.13.19 15.76 15.76 0 0 1 11.3 6.34c2.8 3.7 4.28 9 4.28 15.46v.21l20.92 2.26v.22l-1.42 18.57-1.38-.14 4 18.6-.14.09-9.4 6 2.29 13.41 11.23 2.06v.17Zm-62-12.29L99 353.16l-3-19.33-11.23-2.07-2.4-14 .13-.08 9.4-6-3.9-18.4-53.7 32.57Zm50.26-48.74 1.53.14L90.77 275l-20.9-2.25v-.63c0-6.31-1.45-11.56-4.19-15.18a15.33 15.33 0 0 0-11-6.16 26 26 0 0 0-3.08-.18c-11.89 0-17.35 8.82-18.42 16.38-.28 2.09-1.77 15.79-1.79 15.92l-.49 4.51 56.92 5.32Zm399.76-27.55v-.24L483.48 246l.22-.06 21-5-1.59-7-21.8 5.36v-.24l-4.14-18.92.22-.06 57.56-13.68.06.23L539.3 225l-.22.05-17.92 4.46 1.68 7.11 18.42-4.37.06.23 4.37 18.36-.23.06ZM484 246.35l4 18.24 57.15-14.07-4.22-17.68-18.42 4.36v-.22l-1.84-7.8.22-.05 17.92-4.46-4.29-17.67-56.87 13.52 4 18.24 21.8-5.36 1.79 7.89-.22.05ZM72.6 231.71c-5.62 0-12.21-5.3-12.69-12.91s7.62-11.61 7.71-11.65l2-.94 1.09-5.38h12.68l-.09.31-2.31 7.4 1.42 1.83c3.25 4.15 4.16 8.18 2.72 12a15.84 15.84 0 0 1-10.8 9.17 7.3 7.3 0 0 1-1.73.17m-1.45-30.41-1.07 5.24-2.27 1c-.08 0-7.9 3.76-7.43 11.19s6.81 12.47 12.22 12.47a7 7 0 0 0 1.68-.18 15.36 15.36 0 0 0 10.46-8.88c1.38-3.64.49-7.51-2.65-11.52l-1.58-2v-.12l2.26-7.22Zm472.44-10.38h-16l-.07-.13-15.87-31.51-49.9 25.72-2.4 1.2 2.47 4.69h-18l-.06-.11a183.67 183.67 0 0 0-311.66 0l-.07.11h-15.36l4.05-6.28-10.23-6.85 15-.54 10.22-16.2 9.76-8.7-4.84-22.83 13.75 14.86L167 131l-39.68-42.76L116.89 98l5 23.8-.57-.6-13.45-14.2-13.6 11.44L131 159l-32.16.87-.06-.16-11.45-31.94-12.41 18.78 3.66 10.6-6.73-4.43-10.43 14.88 35.17 23.32H72.74l.64-3.18-6.56 1.26a27 27 0 0 0-5.73 1.87H32.36l.13-.32a273.49 273.49 0 0 1 511 0Zm-15.71-.47h15C502.76 85.55 400.37 15.08 288 15.08S73.23 85.55 33.05 190.45h27.89a27.8 27.8 0 0 1 5.78-1.87l7.26-1.44-.67 3.31H95l-34.27-22.73.13-.2 10.8-15.41.19.13 5.77 3.8-3.29-9.51.06-.1 13-19.66 11.7 32.66 30.81-.83-36.34-40.16 14.32-12.05.15.16 13 13.73-4.7-22.43.1-.1 10.88-10.17.16.18L167.65 131l-13.24 14.06-12.94-14 4.53 21.46-.1.09-9.84 8.77-10.3 16.33-13.76.49 9.41 6.31-3.84 5.94h14.29a184.1 184.1 0 0 1 312.32 0h16.91l-2.37-4.45 2.3-1.15-12.89-15.36.09-.14 14.15-23.07-24.78 10-13-15.7.3-.11 57.68-22.72.1.14 10.44 12.95-30.51 53.21 49.27-25.4.1.21Zm-79.17-21 12.9 15.37.19-.33 30.74-53.57-10.12-12.57-57.06 22.47 12.37 14.93 25.78-10.45Zm58.88 21.45h-.8l-3.62-6.63.8-.4Zm-88.21-58.64a31.11 31.11 0 1 1 31.11-31.11 31.17 31.17 0 0 1-31.11 31.13Zm-30.68-31.09a30.66 30.66 0 1 0 30.68-30.64 30.7 30.7 0 0 0-30.68 30.64m30.68 12.59A12.62 12.62 0 1 1 432 101.17a12.63 12.63 0 0 1-12.62 12.59m-12.17-12.59A12.15 12.15 0 1 0 419.38 89a12.16 12.16 0 0 0-12.17 12.17m-42.38 2.72a14.5 14.5 0 0 1-3.39-.33c-4-.89-16.19-5.19-17.7-5.74l-4.53-1.63.07-.22 18.87-57 34.27 11.57-.07.22-5.9 18.12-.22-.07-12-3.87c7.52 3.93 11.31 10.09 11.31 18.38a31 31 0 0 1-.29 4.19c-1.55 11.31-11.38 16.38-20.42 16.38m-3.93-.89.64.15a14.2 14.2 0 0 0 3.29.33c8.84 0 18.44-5 20-16a29 29 0 0 0 .29-4.1c0-9.36-4.93-15.94-14.71-19.61h-.15v-.49l.31.05 15.61 5 5.68-17.45-33.38-11.28-18.68 56.3 4.1 1.48c.78.28 4.41 1.57 8.29 2.87h.53l.16.06h.11l.47.15h.06l.19.06.34.11c1.2.39 2.38.77 3.46 1.1h.05l1.71.51h.23l.28.08.24.07.26.07Zm-138.66-1.3-1.66-6.07h-1.94c-13 0-22.37-6.22-25.78-17.08a23.2 23.2 0 0 1-1.08-6.86c0-10.68 8.06-18.63 16.11-22.61l-1.47-5.44.23-.07 19.16-5.13 1.37 5.34c1.15-.11 2.37-.17 3.73-.17a23.9 23.9 0 0 1 12 2.85l.29.18a24.66 24.66 0 0 1 12.12 19.54c0 .23 0 .43.06.62a13 13 0 0 1 .08 1.55c0 4.23-1.4 15.29-15.05 22.2l-1.2.58 1.28 5.06Zm-1.3-6.56 1.63 6 17.31-5.18-1.26-5 .18-.08C253.49 84.12 255 72.7 255 68.42a13 13 0 0 0-.08-1.53c0-.2 0-.43-.06-.67A24.27 24.27 0 0 0 244 47.73c-.43-.28-.87-.55-1.33-.82l-.13-.07a23 23 0 0 0-11-2.71h-.58a35 35 0 0 0-3.88.19h-.2l-1.35-5.27L207 44l1.44 5.36-.17.09c-8 3.88-16 11.73-16 22.28a22.8 22.8 0 0 0 1.05 6.71c3.34 10.64 12.58 16.75 25.33 16.75h2.1Zm111 .24h-.24L313 91.72v-.23l7.06-39.66-9.22-1.69.05-.24 3.95-18.78h.22l36.09 6.9-3.43 18.74-9.15-1.64Zm-18.43-4 18 3.48 6.63-40.22 9.17 1.65 3.25-17.82-35.4-6.78-3.8 18.1 9.2 1.69v.23Zm-28.41-.28h-22.71l.17-.34L273.27 69l-18.59-37.82H277l.06.14L284 47.49l8-17.18h20.25l-.15.33Zm-22-.47h21.64l26.67-59.82h-19.17L284 48.65l-7.24-17h-21.32L273.79 69l-.05.1Zm-47-12.83-.35-.05c-4.72-.68-5.53-3.2-5.92-4.41a4.6 4.6 0 0 1-.2-1.28 4.26 4.26 0 0 1 .74-2.35l.05-.09a11 11 0 0 1 2.4-2.6l.28-.22Zm-5.79-4.5c.38 1.15 1.19 3.25 5.15 3.93l-2.63-9.64a10.1 10.1 0 0 0-2 2.25 3.7 3.7 0 0 0-.54 3.33Zm23.79.25-.08-.35-2.94-11.67h.31a6.6 6.6 0 0 1 2.32.42h.05c2.76 1.62 3.4 3.5 3.69 6.61 0 .58-.23 2.57-3.1 4.71ZM231.78 62l2.7 10.72c2.5-2 2.63-3.76 2.63-4.1-.27-2.93-.87-4.71-3.43-6.23h-.06a5.8 5.8 0 0 0-1.84-.39"></path><path fill="url(#a)" d="M213.19 450.63 202 448.56l-2.35-13.72 9.54-6.11-4-18.75 1.46.14L208 391.8l-20.91-2.26c0-4.42-.57-10.9-4.23-15.74a15.57 15.57 0 0 0-11.14-6.25 25 25 0 0 0-3.1-.19c-12 0-17.57 8.93-18.65 16.59-.29 2.11-1.79 15.93-1.79 15.93l-.52 4.74L205 410l-54 32.75 3.38 15.93 61.89 11.8Zm415.39-25.42a30.72 30.72 0 0 0-17.2 56.15l5.92 4 3.52-18.8-1.64-1.74a13 13 0 1 1 22.37-8.92 12.93 12.93 0 0 1-6.82 11.32l-2.11 1.27-2.62 18.93 6.91-2a30.7 30.7 0 0 0-8.36-60.24Zm29.51-75.66-18.42 4.37-1.79-7.56 18.12-4.51-4.32-18.1-57.33 13.63 4.09 18.7 21.8-5.35 1.69 7.42-21.19 5 4 18.7 57.61-14.19ZM284.71 563.36l-2.71-3.11a70 70 0 0 0-6-6c-1.69-1.55-3.48-3-5.26-4.46-3.95-3.11-8.79-6.25-14.62-6.25a17.3 17.3 0 0 0-5.31.84 21.29 21.29 0 0 0-13.39 13.44c-2 6.11-.7 12.88 3.71 19a40 40 0 0 0 2.92 3.48l-11.8 14.19 21.57 20.07L266.19 601l-8.46-7.37Zm29.18 18.09s-3.81-2.17-4.94-2.68c-5.54-2.68-10.29-3.95-14.61-3.95-7.8 0-13.72 4.37-16.87 12.69-3.85 12.92 3.57 21.43 10.43 25.65l-.19.33-14-7.33-10.06 15.65 31.82 17.06 27.81-51.74Zm117.94 48.77-17.29-2.07-8.37-17-8.31 17-17.29 2.07 13.2 12.45-3.9 20.07 16.3-10.15 16.36 10.15-3.9-20.07Zm107.23-19.83-1.83-4.74-9.77 4.74-7.71-14.28 12.17-8.46-3.57-3.95c-.28-.33-6.91-7.56-17-7.56a23.74 23.74 0 0 0-13.53 4.46c-5.36 3.62-8.5 8.13-9.3 13.39-1.27 8 3.43 14.38 3.8 14.85a19.32 19.32 0 0 0 10 7.19 15.78 15.78 0 0 0 2.86 12.83 18.33 18.33 0 0 0 14.94 7.56 21.3 21.3 0 0 0 9-2c7.73-3.68 13.75-14.42 9.94-24.03M614 563.17l-40.27-42-13.91 12.26 11.85 12.31a30.3 30.3 0 0 0-11.56-2.25 30.7 30.7 0 1 0 29.22 21.19l11.84 11.89Zm-53.89 22.69a11.63 11.63 0 1 1 11.65-11.65 11.64 11.64 0 0 1-11.69 11.65ZM536.38 187.3a30.87 30.87 0 1 0 30.88 30.87 30.91 30.91 0 0 0-30.88-30.87m0 43.23a12.39 12.39 0 1 1 12.36-12.36 12.38 12.38 0 0 1-12.36 12.36m-33.08-45 5.83-17.9-33.83-11.39-18.8 56.81 4.32 1.55c1.41.51 13.63 4.84 17.67 5.73a14.4 14.4 0 0 0 3.34.33c8.93 0 18.65-5 20.2-16.21 1.6-11.7-3.29-19.74-14.56-24ZM432 148.39 428.12 167l9.21 1.69-7.1 39.9 18.52 3.57 6.62-40.23 9.17 1.65 3.33-18.28Zm-22.93-.85L401 165.07l-7.1-16.68h-21.8L390.53 186l-10.76 21.85H402l26.87-60.29Zm-37 36.33c-.33-3.43-1.41-13.77-12.36-20.16a23.6 23.6 0 0 0-11.84-2.82 37 37 0 0 0-3.9.19l-1.37-5.31-18.93 5.07 1.45 5.41c-11 5.35-19.07 16.3-15.08 29.27 3.38 10.76 12.69 16.92 25.56 16.92.71 0 1.41 0 2.12-.05l1.64 6 17.76-5.31-1.26-5c17.37-7.96 16.44-22.48 16.25-24.21Zm-45 6.34a3.86 3.86 0 0 1 .56-3.52 10.7 10.7 0 0 1 2.35-2.54l2.82 10.34c-4.53-.66-5.29-3.11-5.66-4.28Zm24.2-.09-2.87-11.38a5.55 5.55 0 0 1 2.3.43c2.64 1.55 3.29 3.33 3.58 6.43.07.29.02 2.31-2.94 4.52Zm268.99 160.61 1.69 7.42-21.19 5 4 18.7 57.61-14.19-4.32-18.14-18.42 4.37-1.79-7.56 18.16-4.48-4.32-18.1-57.33 13.63 4.09 18.7Zm8.32 74.48a30.72 30.72 0 0 0-17.2 56.15l5.92 4 3.52-18.8-1.64-1.74a13 13 0 1 1 22.37-8.92 12.93 12.93 0 0 1-6.82 11.32l-2.11 1.27-2.62 18.93 6.91-2a30.7 30.7 0 0 0-8.36-60.24ZM614 563.17l-40.27-42-13.91 12.26 11.85 12.31a30.3 30.3 0 0 0-11.56-2.25 30.7 30.7 0 1 0 29.22 21.19l11.84 11.89Zm-53.89 22.69a11.63 11.63 0 1 1 11.65-11.65 11.64 11.64 0 0 1-11.69 11.65Zm-22.84 19.79-9.77 4.74-7.71-14.28 12.17-8.46-3.57-3.95c-.28-.33-6.91-7.56-17-7.56a23.74 23.74 0 0 0-13.53 4.46c-5.36 3.62-8.5 8.13-9.3 13.39-1.27 8 3.43 14.38 3.8 14.85a19.32 19.32 0 0 0 10 7.19 15.78 15.78 0 0 0 2.86 12.83 18.33 18.33 0 0 0 14.94 7.56 21.3 21.3 0 0 0 9-2c7.75-3.66 13.77-14.42 10-24Zm-122.69 22.5-8.37-17-8.31 17-17.29 2.07 13.2 12.45-3.9 20.07 16.3-10.15 16.36 10.15-3.9-20.07 13.2-12.45ZM309 578.77c-5.54-2.68-10.29-3.95-14.61-3.95-7.8 0-13.72 4.37-16.87 12.69-3.85 12.92 3.57 21.43 10.43 25.65l-.19.33-14-7.33-10.06 15.65 31.82 17.06 27.81-51.74-9.39-5.68s-3.86-2.17-4.94-2.68m-51.22 14.85 27-30.26-2.78-3.11a70 70 0 0 0-6-6c-1.69-1.55-3.48-3-5.26-4.46-3.95-3.11-8.79-6.25-14.62-6.25a17.3 17.3 0 0 0-5.31.84 21.29 21.29 0 0 0-13.39 13.44c-2 6.11-.7 12.88 3.71 19a40 40 0 0 0 2.92 3.48l-11.8 14.19 21.57 20.07L266.19 601Zm-44.54-143L202 448.56l-2.35-13.72 9.54-6.11-4-18.75 1.46.14L208 391.8l-20.91-2.26c0-4.42-.57-10.9-4.23-15.74a15.57 15.57 0 0 0-11.14-6.25 25 25 0 0 0-3.1-.19c-12 0-17.57 8.93-18.65 16.59-.29 2.11-1.79 15.93-1.79 15.93l-.52 4.74L205 410l-54 32.75 3.38 15.93 61.89 11.8ZM536.38 187.3a30.87 30.87 0 1 0 30.88 30.87 30.91 30.91 0 0 0-30.88-30.87m0 43.23a12.39 12.39 0 1 1 12.36-12.36 12.38 12.38 0 0 1-12.36 12.36m-33.08-45 5.83-17.9-33.83-11.39-18.8 56.81 4.32 1.55c1.41.51 13.63 4.84 17.67 5.73a14.4 14.4 0 0 0 3.34.33c8.93 0 18.65-5 20.2-16.21 1.6-11.7-3.29-19.74-14.56-24Zm-35.43-30.31L432 148.39 428.12 167l9.21 1.69-7.1 39.9 18.52 3.57 6.62-40.23 9.17 1.65Zm-58.78-7.71L401 165.07l-7.1-16.68h-21.8L390.53 186l-10.76 21.85H402l26.87-60.29Zm-49.34 16.17a23.6 23.6 0 0 0-11.84-2.82 37 37 0 0 0-3.9.19l-1.37-5.31-18.93 5.07 1.45 5.41c-11 5.35-19.07 16.3-15.08 29.27 3.38 10.76 12.69 16.92 25.56 16.92.71 0 1.41 0 2.12-.05l1.64 6 17.76-5.31-1.26-5c17.33-7.95 16.4-22.47 16.21-24.2-.33-3.41-1.41-13.75-12.36-20.14Zm-32.61 26.5a3.86 3.86 0 0 1 .56-3.52 10.7 10.7 0 0 1 2.35-2.54l2.82 10.34c-4.6-.63-5.36-3.08-5.73-4.25Zm24.2-.09-2.87-11.38a5.55 5.55 0 0 1 2.3.43c2.64 1.55 3.29 3.33 3.58 6.43 0 .32-.05 2.34-3.01 4.55Zm322.11 128c-1.13-3.53-2.3-7-3.57-10.39C630.22 199.8 526.61 122.87 405 122.87S179.78 199.8 140.12 307.68c-1.27 3.43-2.44 6.86-3.57 10.39a283.26 283.26 0 0 0 .45 175.22c1.13 3.48 2.35 7 3.67 10.39 40 107.14 143.27 183.45 264.36 183.45s224.38-76.31 264.36-183.45c1.32-3.43 2.54-6.91 3.67-10.39a283.26 283.26 0 0 0 .42-175.22ZM405 131.85c116.53 0 216.06 73 255.25 175.83h-15.51l-16-31.71L579 301.62l30.83-53.71-10.34-12.82L542 257.73l12.69 15.32 25.28-10.24-14.52 23.68 13 15.46-2.45 1.18 2.4 4.55H561a183.92 183.92 0 0 0-312.06 0H234.1l4-6.1-9.88-6.58 14.43-.52 10.24-16.26 9.87-8.79-4.7-22.13 13.35 14.43L284.33 248l-40-43.09-10.71 10 4.84 23.12-13.58-14.34-14 11.75 36.51 40.37-31.48.84-11.56-32.35-12.73 19.26 3.48 10.06-6.35-4.19-10.66 15.23 34.72 23H190l.66-3.24-6.91 1.36a28.7 28.7 0 0 0-5.78 1.88H149.7C188.94 204.87 288.47 131.85 405 131.85M233.72 440.24c-.23-1-.42-2.07-.61-3.15a78 78 0 0 1-.84-5 1.8 1.8 0 0 1-.1-.51c-.28-2-.56-4-.8-6.11a1.2 1.2 0 0 1 0-.38c-.15-1.08-.29-2.16-.38-3.24-.33-3.34-.56-6.72-.66-10.15-.09-2.26-.14-4.46-.14-6.72 0-1.83 0-3.62.1-5.45 0-1.32.09-2.63.18-3.9.1-2.77.33-5.55.61-8.22.14-1.6.33-3.15.52-4.7.28-2.45.66-4.89 1.08-7.29.61-3.61 1.32-7.14 2.16-10.66l1.41-5.5c.47-1.83 1-3.62 1.55-5.4s1-3.34 1.6-4.94c.61-1.83 1.22-3.62 1.93-5.4.51-1.37 1-2.68 1.55-4 .37-.85.7-1.7 1.08-2.54 1.27-3.1 2.63-6.11 4.13-9.07.8-1.69 1.65-3.34 2.54-5s1.74-3.24 2.68-4.84c1-1.83 2.11-3.62 3.24-5.4s2.12-3.34 3.24-5a2.2 2.2 0 0 1 .33-.51c1.55-2.31 3.15-4.56 4.8-6.77 1.22-1.64 2.44-3.24 3.76-4.79a70 70 0 0 1 3.38-4.09 170.5 170.5 0 0 1 17.1-17.43c1.51-1.32 3.06-2.68 4.61-3.95 3.15-2.63 6.44-5.12 9.77-7.52 2.87-2.07 5.83-4 8.79-5.87 1.41-.9 2.77-1.69 4.18-2.54 1.65-1 3.34-1.93 5-2.82l3.95-2.11c1.83-.94 3.66-1.84 5.54-2.68 1.6-.75 3.2-1.51 4.84-2.21 1.18-.52 2.35-1 3.58-1.5s2.39-.9 3.57-1.37c.65-.28 1.31-.51 1.92-.75 2-.7 3.95-1.41 6-2.07 1.69-.51 3.43-1.08 5.12-1.55s3.48-1 5.27-1.45h.09c1.69-.42 3.43-.85 5.17-1.22 2-.47 3.95-.85 5.92-1.22 1.6-.33 3.19-.62 4.84-.85q3-.5 6.06-.85c1.6-.23 3.24-.37 4.84-.56l1.5-.14 4.33-.28c1.78-.14 3.57-.24 5.4-.28s3.76-.1 5.64-.1 3.76 0 5.64.1 3.62.14 5.4.28l4.33.28 1.5.14c1.6.19 3.24.33 4.84.56q3 .36 6.06.85c1.65.23 3.24.52 4.84.85 2 .37 3.95.75 5.92 1.22 1.74.37 3.48.8 5.17 1.22h.09c1.79.47 3.53.94 5.27 1.45s3.43 1 5.12 1.55c2 .66 4 1.37 6 2.07.61.24 1.27.47 1.92.75 1.18.47 2.4.9 3.57 1.37s2.4 1 3.58 1.5c1.64.7 3.24 1.46 4.84 2.21 1.88.84 3.71 1.74 5.54 2.68l3.95 2.11c1.64.89 3.33 1.83 5 2.82 1.41.8 2.82 1.64 4.18 2.54 3 1.88 5.92 3.8 8.79 5.87 3.33 2.4 6.62 4.89 9.77 7.52a121 121 0 0 1 4.61 3.95A170.5 170.5 0 0 1 538 291.52a70 70 0 0 1 3.38 4.09c1.32 1.55 2.54 3.15 3.76 4.79 1.65 2.21 3.25 4.46 4.8 6.77a2.2 2.2 0 0 1 .33.51c1.12 1.65 2.2 3.29 3.24 5s2.21 3.57 3.24 5.4c.94 1.6 1.83 3.24 2.68 4.84s1.74 3.29 2.54 5c1.5 3 2.86 6 4.13 9.07.38.84.71 1.69 1.08 2.54.52 1.36 1 2.67 1.55 4 .71 1.78 1.32 3.57 1.93 5.4.56 1.6 1.08 3.24 1.6 4.94s1.08 3.57 1.55 5.4l1.41 5.5c.84 3.52 1.55 7.05 2.16 10.66.42 2.4.8 4.84 1.08 7.29.19 1.55.37 3.1.52 4.7.42 4 .7 8 .79 12.12 0 1.83.1 3.62.1 5.45 0 2.26-.05 4.46-.14 6.72-.1 3.43-.33 6.81-.66 10.15-.09 1.08-.24 2.16-.38 3.24a1.2 1.2 0 0 1 0 .38c-.24 2.07-.52 4.09-.8 6.11a1.8 1.8 0 0 1-.1.51c-.23 1.69-.51 3.34-.84 5-.19 1.08-.38 2.12-.61 3.15s-.47 2.21-.71 3.29v.05c-.89 3.95-1.88 7.8-3.05 11.61-.61 2-1.22 3.94-1.88 5.87-.38 1.22-.8 2.4-1.27 3.57-.85 2.4-1.74 4.75-2.73 7.05a6.5 6.5 0 0 1-.56 1.36c-.8 2-1.69 3.95-2.63 5.87a1.5 1.5 0 0 1-.28.62c-1.08 2.3-2.21 4.6-3.39 6.86s-2.49 4.55-3.76 6.76c0 .05 0 .1-.09.14-1 1.79-2.11 3.53-3.19 5.27-.9 1.41-1.84 2.82-2.78 4.18a6.3 6.3 0 0 1-.65.94c-1 1.45-2 2.86-3 4.27s-2.07 2.82-3.15 4.19c-2.16 2.82-4.42 5.54-6.81 8.22-1 1.17-2.12 2.35-3.2 3.52-1.46 1.6-3 3.2-4.51 4.75s-3.38 3.38-5.17 4.93a20 20 0 0 1-1.55 1.41 98 98 0 0 1-3.52 3.1c-1.79 1.51-3.62 3-5.45 4.47-1.18 1-2.4 1.88-3.67 2.82s-2.49 1.83-3.76 2.72-2.77 1.93-4.18 2.87-2.82 1.83-4.23 2.68c-1 .66-2.07 1.27-3.1 1.88s-2.07 1.22-3.1 1.78-2.31 1.32-3.48 1.93-2.35 1.27-3.52 1.83c-2.35 1.22-4.75 2.35-7.15 3.43-2.77 1.22-5.49 2.4-8.31 3.48-1.41.56-2.82 1.13-4.23 1.6-2.63.94-5.36 1.83-8 2.68l-1.41.42c-2.39.7-4.84 1.31-7.23 2l-.62.14c-1.17.29-2.25.57-3.43.85q-2.81.63-5.63 1.13c-1.79.33-3.58.66-5.36.94-2.68.42-5.4.8-8.08 1.08-.9.14-1.84.23-2.73.28-1.17.14-2.4.23-3.57.28-2.49.24-5 .33-7.52.42-1.83 0-3.71.1-5.59.1s-3.76-.05-5.59-.1c-2.54-.09-5-.18-7.52-.42-1.17-.05-2.4-.14-3.57-.28-.89 0-1.83-.14-2.73-.28-2.68-.28-5.4-.66-8.08-1.08-1.78-.28-3.57-.61-5.36-.94s-3.76-.71-5.63-1.13c-1.18-.28-2.26-.56-3.43-.85l-.62-.14c-2.39-.66-4.84-1.27-7.23-2l-1.41-.42c-2.68-.85-5.41-1.74-8-2.68-1.41-.47-2.82-1-4.23-1.6-2.82-1.08-5.54-2.26-8.31-3.48-2.4-1.08-4.8-2.21-7.15-3.43-1.17-.56-2.39-1.22-3.52-1.83s-2.35-1.27-3.48-1.93-2.06-1.17-3.1-1.78-2.07-1.22-3.1-1.88q-2.11-1.27-4.23-2.68c-1.41-.94-2.82-1.88-4.18-2.87s-2.54-1.78-3.76-2.72-2.49-1.83-3.67-2.82c-1.83-1.46-3.66-3-5.45-4.47-1.17-1-2.35-2-3.52-3.1a20 20 0 0 1-1.55-1.41c-1.79-1.55-3.48-3.24-5.17-4.93s-3.05-3.15-4.51-4.75c-1.08-1.17-2.16-2.35-3.2-3.52-2.39-2.68-4.65-5.4-6.81-8.22-1.08-1.37-2.11-2.78-3.15-4.19s-2-2.82-3-4.27a6.3 6.3 0 0 1-.65-.94c-.94-1.36-1.88-2.77-2.78-4.18-1.08-1.74-2.16-3.48-3.19-5.27 0 0 0-.09-.1-.14-1.26-2.21-2.53-4.46-3.75-6.76s-2.31-4.56-3.39-6.86a1.5 1.5 0 0 1-.28-.62c-.94-1.92-1.83-3.9-2.63-5.87a6.5 6.5 0 0 1-.56-1.36c-1-2.3-1.88-4.65-2.73-7.05-.47-1.17-.89-2.35-1.27-3.57-.66-1.93-1.27-3.9-1.88-5.87a135 135 0 0 1-3-11.61v-.05c-.45-1.09-.73-2.22-.92-3.3m-34.44-112.73c3.19 4.09 4.09 8 2.68 11.75a15.57 15.57 0 0 1-10.62 9 7.4 7.4 0 0 1-1.74.19c-5.5 0-12-5.21-12.45-12.69s7.23-11.27 7.56-11.41l2.16-1 1.08-5.31h12.17l-2.34 7.52ZM131.85 405A272.8 272.8 0 0 1 146 318.07h18.66a27.4 27.4 0 0 0-5.88 14.28c-.56 6.91 2 17.2 8.88 24.72a28.57 28.57 0 0 0 21.48 9.16h.52a31.31 31.31 0 0 0 24.67-11.93c5.45-7 7.94-16.21 6.29-23.54a33.2 33.2 0 0 0-5.87-12.69h28.19a184.17 184.17 0 0 0 .75 175.22H227.9l-5.74-14.47-37.31 14.47-.23.1-.05-.1-5.92-14.47-17.2 6.72 3.1 7.75h-18.09A271.6 271.6 0 0 1 131.85 405M405 678.1c-116 0-215.17-72.36-254.78-174.42h18.42l5.69 14.32 36.37-14.28 6.72-2.63-1.84 2.63-26.87 38.86 8.83 13.67 61.18-14.94-10.85-16.11-29.09 6.63 17.06-24.67-2.35-3.48h16.3a184 184 0 0 0 310.37 0h19.74a20.76 20.76 0 0 0-.1 13.34c1.93 5.27 6.16 9.21 12.64 11.75l.33.14.28.1a24 24 0 0 0 5.36.65c10.29 0 16.54-7.33 19.64-12.35l16.95 8.45 10.85-22.08h13.91C620.17 605.74 521 678.1 405 678.1m258.54-184.81h-27L632 490.9l-1.32 2.39h-18.41l-22.13-11.41-2.07 4.41c-.05 0-1.64 3.57-3.33 7h-18.47a184.17 184.17 0 0 0 .73-175.22h16.92l9.35 17.67 16.35-8.56-2.19-4.18c-.89-1.64-1.78-3.29-2.63-4.93h3.67l4 7.61 14.33-7.61H664a275.1 275.1 0 0 1-.47 175.22Zm-23.87-139.37-1.79-7.56 18.12-4.51-4.32-18.1-57.33 13.63 4.09 18.7 21.8-5.35 1.69 7.42-21.19 5 4 18.7 57.61-14.19-4.32-18.14Zm-11.09 71.29a30.72 30.72 0 0 0-17.2 56.15l5.92 4 3.52-18.8-1.64-1.74a13 13 0 1 1 22.37-8.92 12.93 12.93 0 0 1-6.82 11.32l-2.11 1.27-2.62 18.93 6.91-2a30.7 30.7 0 0 0-8.36-60.24Zm-68.8 108.26 11.85 12.31a30.3 30.3 0 0 0-11.56-2.25 30.7 30.7 0 1 0 29.22 21.19l11.84 11.89L614 563.17l-40.27-42Zm.29 52.39a11.63 11.63 0 1 1 11.65-11.65 11.64 11.64 0 0 1-11.65 11.65M536.38 249a30.87 30.87 0 1 0-30.92-30.87A30.93 30.93 0 0 0 536.38 249m0-43.28A12.39 12.39 0 1 1 524 218.17a12.39 12.39 0 0 1 12.38-12.41Zm.85 399.89-9.77 4.74-7.71-14.28 12.17-8.46-3.57-3.95c-.28-.33-6.91-7.56-17-7.56a23.74 23.74 0 0 0-13.53 4.46c-5.36 3.62-8.5 8.13-9.3 13.39-1.27 8 3.43 14.38 3.8 14.85a19.32 19.32 0 0 0 10 7.19 15.78 15.78 0 0 0 2.86 12.83 18.33 18.33 0 0 0 14.94 7.56 21.3 21.3 0 0 0 9-2c7.75-3.66 13.77-14.42 10-24Zm-76.41-391c1.41.51 13.63 4.84 17.67 5.73a14.4 14.4 0 0 0 3.34.33c8.93 0 18.65-5 20.2-16.21 1.6-11.7-3.29-19.74-14.56-24l15.83 5.12 5.83-17.9-33.83-11.44-18.8 56.81Zm-23.49-46-7.1 39.9 18.52 3.57 6.62-40.23 9.17 1.65 3.33-18.28-35.87-6.83-3.88 18.61Zm-22.79 459.54-8.37-17-8.31 17-17.29 2.07 13.2 12.45-3.9 20.07 16.3-10.15 16.36 10.15-3.9-20.07 13.2-12.45Zm-34.77-420.32H402l26.87-60.29h-19.78L401 165.07l-7.1-16.68h-21.8L390.53 186Zm-44.13 4.61c.71 0 1.41 0 2.12-.05l1.64 6 17.76-5.31-1.26-5c17.33-7.95 16.4-22.47 16.21-24.2-.33-3.43-1.41-13.77-12.36-20.16a23.6 23.6 0 0 0-11.84-2.82 37 37 0 0 0-3.9.19l-1.37-5.31-18.93 5.07 1.45 5.41c-11 5.35-19.07 16.3-15.08 29.27 3.38 10.75 12.69 16.91 25.56 16.91m15.13-33.27c2.64 1.55 3.29 3.33 3.58 6.43 0 .29-.05 2.31-3 4.52l-2.87-11.38a5.55 5.55 0 0 1 2.29.43m-23.07 7.52a10.7 10.7 0 0 1 2.35-2.54l2.82 10.34c-4.6-.66-5.36-3.11-5.73-4.28a3.86 3.86 0 0 1 .56-3.52M309 578.77c-5.54-2.68-10.29-3.95-14.61-3.95-7.8 0-13.72 4.37-16.87 12.69-3.85 12.92 3.57 21.43 10.43 25.65l-.19.33-14-7.33-10.06 15.65 31.82 17.06 27.81-51.74-9.39-5.68s-3.86-2.17-4.94-2.68m-51.22 14.85 27-30.26-2.78-3.11a70 70 0 0 0-6-6c-1.69-1.55-3.48-3-5.26-4.46-3.95-3.11-8.79-6.25-14.62-6.25a17.3 17.3 0 0 0-5.31.84 21.29 21.29 0 0 0-13.39 13.44c-2 6.11-.7 12.88 3.71 19a40 40 0 0 0 2.92 3.48l-11.8 14.19 21.57 20.07L266.19 601Zm-44.54-143L202 448.56l-2.35-13.72 9.54-6.11-4-18.75 1.46.14L208 391.8l-20.91-2.26c0-4.42-.57-10.9-4.23-15.74a15.57 15.57 0 0 0-11.14-6.25 25 25 0 0 0-3.1-.19c-12 0-17.57 8.93-18.65 16.59-.29 2.11-1.79 15.93-1.79 15.93l-.52 4.74L205 410l-54 32.75 3.38 15.93 61.89 11.8Z" transform="translate(-117 -117)"></path><path fill="#fff" d="M288 0C128.94 0 0 128.94 0 288s128.94 288 288 288 288-128.94 288-288S447.06 0 288 0m0 570.13C132.18 570.13 5.87 443.82 5.87 288S132.18 5.87 288 5.87 570.13 132.18 570.13 288 443.82 570.13 288 570.13"></path><path fill="#00a859" d="M85 222.26a15.57 15.57 0 0 1-10.62 9 7.4 7.4 0 0 1-1.74.19c-5.5 0-12-5.21-12.45-12.69s7.23-11.27 7.56-11.41l2.16-1 1.08-5.31h12.17l-2.34 7.52 1.5 1.92c3.15 4.12 4.05 8.07 2.68 11.78" data-source="https://football-logos.cc"></path><g fill="#231f20"><path d="m100.67 118.93 6.86-5.78 21.93 23.2-7.7-36.81 5.35-4.99 33.77 36.42-6.46 6.85-21.54-23.3 7.74 36.22-6.17 5.48zM79.82 147.22l6.27-9.5 9.59 26.73 33.19-.88-5.87 9.3-26.44.98 18.02 12.04-5.29 8.12-41.6-27.6 5.28-7.54 14.1 9.2zM67.68 193.43l-2 9.69s-11 5.09-10.28 15.95 10.77 18.6 19.77 16.84 21.93-14 10.77-28.29l2.84-9A28.33 28.33 0 0 1 99 214.79c2.45 10.84-6.46 29.44-26.43 29.74s-26.92-19.09-26.14-28.78 10.09-20.07 21.25-22.32M65 276.73s3.36-19.84-10.86-21.53c-14-1.67-16.26 10.37-16.55 12.43s-1.76 15.76-1.76 15.76l49.44 4.6.68-9Zm-8.81-.78-9.85-.68.75-7a5.25 5.25 0 0 1 5.28-3.53 4.34 4.34 0 0 1 4.6 3.92ZM92.06 337.62l-11.16-2.05-3.43-20 9.4-6.07-2-9.2L39.3 328l2 9.59 52.28 10zM53.49 330l15.37-9.4 2.35 13.4zM50.55 371.2l8.52-3.32 5.97 14.58 37.49-14.58 3.53 8.9-46.11 18.11zM107.63 381.87l5.51 8.23-22.06 32.01 37.69-8.62 5.29 7.84-51.4 12.53-5.28-8.23zM161.47 446.29a68 68 0 0 0-5.57-5.57c-1.63-1.47-3.3-2.88-5-4.24-4.62-3.63-9.51-6.59-15.53-4.62a16.63 16.63 0 0 0-10.41 10.4c-1.69 5.18 0 10.49 3.08 14.77a29 29 0 0 0 5.56 5.8L121.76 477l14.84 13.8 5.88-6.46-8.42-7.34zm-26.53-2.84c6.75-6.76 14 3.43 14 3.43l-9.4 10.47c-10.28-7.73-4.6-13.9-4.6-13.9M194.56 468.54s-3.59-2-4.63-2.53c-6.31-3-19.64-8.22-24.94 5.83-4.79 16 12.24 22.22 12.24 22.22l-4.5 8.81-14.39-7.54-5 7.74 23.2 12.43L200 471.84ZM181.44 487l-1.12-.9c-2.38-1.91-5.64-3.51-7-6.4a5.11 5.11 0 0 1 2.4-6.89c3.63-1.75 7.78-.15 10.16 1.13a17 17 0 0 1 2 1.22ZM304.28 516.67l-9.84-1.17-5.25-10.72-5.25 10.72-9.84 1.17 7.78 7.35-2.35 12.04 9.66-6.02 9.66 6.02-2.35-12.04zM400.23 475.12l7.64-5.29s-10.57-11.74-24.38-2.35-4.25 21.74-4.25 21.74 4.56 6.78 12.76 5.72c0 0-5.06 7.34 0 14.1s12.84 6.61 18.12 4.11 10.58-10.57 7.64-18.06l-6.9 3.38s-1.18 5.72-6.17 6.31-6.17-3.08-6.31-5.58 3.08-5.87 6-7.19l-4.12-7.64s-6.31 5-11.45 1.76-2.5-11.75 3.23-12.92 8.19 1.91 8.19 1.91M456.4 410.73l-6.83 6 15.28 15.86-5.06 4.68a26.26 26.26 0 1 0 5.6 6.6l5-4.67 13.65 13.65 6.39-6.68zm-13.31 62.83a16.33 16.33 0 1 1 16.32-16.33 16.33 16.33 0 0 1-16.32 16.33M516.93 380.21l-5.29 9.79-36.32-18.7s-4.4 9.4-6.26 12.83-7.74 17 8.12 23.29C492.45 411.14 499 394 499 394l16.84 8.42 8.91-18.11zm-35 18.89c-6-.29-7.54-7.44-2.84-14.78l12 5.31s-3.24 9.77-9.21 9.47zM511.58 312.93A26 26 0 0 0 497 360.48l1.77-9.41a17.7 17.7 0 1 1 21.23 3.34v.11l-1.27 9.41a26 26 0 0 0-7.09-51ZM537.6 238.23l-18.42 4.37-3.93-16.7 18.12-4.48-2.15-9-48.26 11.45 2.05 9.5 21.74-5.37 3.85 16.64-21.27 5.04 2.06 9.5 48.36-11.94zM509.68 165.33l-44.25 22.81 12.83 24.28 8-4.21s-8.22-15.37-8.12-15.67c0-.12 5.16-2.85 11-5.92l8.3 15.71 8.13-4.3-8.48-15.58c4.87-2.56 8.77-4.59 8.77-4.59l8.23 15.86 7.83-4.11zM432.74 142.72l48.26-19 6.17 7.64-26.24 45.72-6.72-8.03 20.23-32.99-35.34 14.34zM419.37 75a26.19 26.19 0 1 0 26.19 26.19A26.19 26.19 0 0 0 419.37 75m0 43.27a17.08 17.08 0 1 1 17.09-17.08 17.08 17.08 0 0 1-17.09 17.05zM383.3 62.64l2.94-9-25-8.42-15.86 48s13.22 4.7 17.14 5.58 16.25-.59 17.81-11.94-4-17.33-15.86-20.27l2.94-9zm-11.45 21c-.49 6.17-7.05 7.64-14.1 3.72L361.27 75s11.06 2.52 10.58 8.68zM345.41 41.98l-26.72-5.09-1.96 9.3 9.06 1.64-7.1 39.97 9.2 1.78 6.63-40.17 9.23 1.68zM262.59 36.11h11.16l9.99 23.49 11.36-24.37h9.49l-22.71 50.9h-11.55L278.75 69zM250.46 67.34c-.4-3.82-1.47-11.56-10.09-16.55-5.26-3-12.24-2.37-16.87-1.38l-1.24-4.88-9.79 2.64 1.32 4.82c-11.09 3.78-19.72 13.79-16.2 25.14 3.31 10.66 13.66 15.08 26.68 13.21l1.42 5.19 8.81-2.64-1.19-4.68c16.46-5.65 17.53-17.09 17.15-20.87M218.68 82.4c-7 0-11.41-2.62-13-7.78a8.58 8.58 0 0 1 1-7.38 18.42 18.42 0 0 1 9.34-7.05l6 21.9a33 33 0 0 1-3.34.31m12.55-2.4-5.66-22.35a27 27 0 0 1 5.31-.59 10.7 10.7 0 0 1 5.25 1.08c4.78 2.77 5.56 6.66 5.91 10.09.08.77.41 7.62-10.81 11.77"></path></g><g fill="#231f20"><path d="M288 121.75A166.23 166.23 0 1 0 454.2 288c0-91.82-74.43-166.25-166.2-166.25m129.08 237.72c-41.3 23.5-72.46 5.26-72.46 5.26 4.14 43.89-27.58 67.95-27.58 67.95a65 65 0 0 1 25.47 8.22 162.5 162.5 0 0 1-107 .66c11-7.89 26.17-9.25 26.17-9.25-33.5-28.81-27.44-67.76-27.44-67.76-38.35 18.23-72.23-5.08-72.23-5.08 4.7 18.8-1.41 29-1.41 29A161.43 161.43 0 0 1 125.7 288v-4.51c10.67 3.19 19.18 22.88 19.18 22.88 21.56-44.64 55.4-46.56 55.4-46.56-27.4-30-17-71.48-17-71.48-13.44 8.74-28.48 8.37-29.47 8.32a162.43 162.43 0 0 1 90.22-64.94c-1.8 9.49-16.03 24.91-16.03 24.91 44.64 3 61.22 38.2 61.22 38.2 24.67-38.77 61.94-39 61.94-39a51.35 51.35 0 0 1-15.46-23 162.56 162.56 0 0 1 86.65 64.1c-11.56-.05-26.74-8.74-26.74-8.74 10.15 43.65-16.87 72-16.87 72 41.54 7.24 55.21 46.62 55.21 46.62a60 60 0 0 1 16.36-21.48V288a161.5 161.5 0 0 1-33.22 98.4c-3.16-12.22-.01-26.93-.01-26.93"></path><path d="M234.01 268.41 256.92 334h66.17L346 268.41l-56-40.33z"></path></g><path fill="#ed3338" d="M528.82 386.68 518 408.76l-16.92-8.45c-3.1 5-9.35 12.35-19.64 12.35a24 24 0 0 1-5.36-.65l-.28-.1-.33-.14c-6.48-2.54-10.71-6.48-12.64-11.75a20.76 20.76 0 0 1 .1-13.34h-19.77a184 184 0 0 1-310.37 0h-16.3l2.35 3.48-17.06 24.67 29.09-6.63 10.85 16.07-61.18 14.94-8.83-13.67 26.87-38.86H93.7L57.33 401l-5.69-14.28H33.22C72.83 488.74 172 561.1 288 561.1s215.17-72.36 254.73-174.42Zm-413.51 90.78 11.8-14.19a40 40 0 0 1-2.92-3.48c-4.41-6.1-5.73-12.87-3.71-19a21.29 21.29 0 0 1 13.39-13.44 17.3 17.3 0 0 1 5.31-.84c5.83 0 10.67 3.14 14.62 6.25 1.78 1.41 3.57 2.91 5.26 4.46a70 70 0 0 1 6 6l2.68 3.11-27 30.26 8.46 7.37-12.31 13.54Zm63.16 44.41-31.82-17.06 10.06-15.65 14 7.33.19-.33c-6.86-4.22-14.28-12.73-10.43-25.65 3.15-8.32 9.07-12.69 16.87-12.69 4.32 0 9.07 1.27 14.61 3.95 1.13.51 4.94 2.68 4.94 2.68l9.39 5.68Zm127.06 23.87-16.36-10.15-16.3 10.15 3.9-20.07-13.2-12.45 17.29-2.07 8.31-17 8.37 17 17.29 2.07-13.2 12.45ZM412.1 517.4a21.3 21.3 0 0 1-9 2 18.33 18.33 0 0 1-14.94-7.56 15.78 15.78 0 0 1-2.84-12.84 19.32 19.32 0 0 1-10-7.19c-.37-.47-5.07-6.81-3.8-14.85.8-5.26 3.94-9.77 9.3-13.39a23.74 23.74 0 0 1 13.53-4.46c10.06 0 16.69 7.23 17 7.56l3.57 3.95-12.17 8.46 7.71 14.28 9.77-4.74 1.83 4.74c3.81 9.64-2.21 20.38-9.96 24.04m72-57.79-11.84-11.89a30.71 30.71 0 1 1-29.22-21.19 30.3 30.3 0 0 1 11.56 2.25l-11.85-12.31 13.91-12.26 40.27 42Z"></path><path fill="#ed3338" d="M454.72 457.21a11.63 11.63 0 1 1-11.65-11.61 11.65 11.65 0 0 1 11.65 11.61"></path><path fill="#00a859" d="M547 201.07h-37.16l-14.33 7.61-4-7.61h-3.71c.85 1.64 1.74 3.29 2.63 4.93l2.21 4.18-16.35 8.56-9.35-17.67H450a184.17 184.17 0 0 1-.75 175.22h18.47c1.69-3.43 3.28-7 3.33-7l2.07-4.41 22.13 11.41h18.42l1.33-2.39 4.56 2.39h27a275.1 275.1 0 0 0 .44-175.22m-27.06 167.38-6.91 2 2.59-18.89 2.11-1.27a12.93 12.93 0 1 0-19.12-11.32 13.1 13.1 0 0 0 3.57 8.92l1.64 1.74-3.52 18.8-5.92-4a30.7 30.7 0 1 1 25.56 4.09ZM487.8 264.88l-4-18.7 21.19-5-1.69-7.42-21.8 5.35-4.09-18.7 57.33-13.63 4.32 18.1-18.14 4.51 1.79 7.56 18.42-4.37 4.32 18.14ZM104.13 288a182.86 182.86 0 0 1 21.8-86.93H97.74a33.2 33.2 0 0 1 5.87 12.69c1.65 7.33-.84 16.58-6.29 23.54a31.31 31.31 0 0 1-24.67 11.93h-.52a28.57 28.57 0 0 1-21.48-9.16c-6.9-7.52-9.44-17.81-8.88-24.72a27.4 27.4 0 0 1 5.88-14.28H29a274.18 274.18 0 0 0 .47 175.22h18.09l-3.1-7.75 17.2-6.72 5.92 14.47h.28l37.31-14.47 5.74 14.47h15.78A183 183 0 0 1 104.13 288M37.4 341.66 34 325.73 88 293l-57.33-5.36.52-4.74S32.7 269.06 33 267c1.08-7.66 6.62-16.59 18.65-16.59a25 25 0 0 1 3.1.19 15.57 15.57 0 0 1 11.14 6.25c3.66 4.84 4.28 11.32 4.23 15.74L91 274.8l-1.41 18.32-1.46-.14 4 18.75-9.54 6.11L85 331.56l11.23 2.07 3.1 19.83Z" data-source="https://football-logos.cc"></path><!-- source: https://football-logos.cc --></svg>