<svg xmlns="http://www.w3.org/2000/svg" viewBox="31.9 162.21 726.43 726.43"><!-- Source: https://football-logos.cc --><path d="M569.245 447.322c0-150.449-121.963-272.411-272.412-272.411-150.45 0-272.412 121.962-272.412 272.411s121.963 272.412 272.412 272.412c150.45 0 272.412-121.962 272.412-272.412" style="fill:#428ed3;fill-opacity:1;fill-rule:nonzero;stroke:none" transform="matrix(1.33333 0 0 -1.33333 -.667 1121.853)" data-source="https://football-logos.cc"></path><path d="M117.41 626.747C69.483 578.82 43.09 515.1 43.09 447.322S69.484 315.824 117.41 267.9c47.924-47.926 111.646-74.32 179.423-74.32 67.778 0 131.499 26.394 179.424 74.32s74.32 111.645 74.32 179.423-26.394 131.5-74.32 179.425-111.646 74.319-179.424 74.319c-67.777 0-131.499-26.394-179.424-74.32" style="fill:#fff;fill-opacity:1;fill-rule:nonzero;stroke:none" transform="matrix(1.33333 0 0 -1.33333 -.667 1121.853)"></path><path d="M213.104 278.617v-37.282l-.036.021C135.756 272.83 80.15 346.566 74.943 433.88l-.012.049h190.314l73.383-98.01v98.01h180.1l-.004-.038c-4.972-83.418-55.948-154.45-127.906-188.07l-.047-.024V284.1l.04.028c43.136 24.938 75.522 66.483 88.35 115.83l.008.037H372.563V238.27l-.044-.02a221 221 0 0 0-33.827-9.28l-.063-.01V279.3l-73.384 98.012v-150.05l-.044.003c-11.6 1.653-22.91 4.2-33.86 7.57l-.029.007v165.153l-.487-.001H114.503l.008-.052A187 187 0 0 1 122.914 375l.015-.04h90.176v-33.234l-.001-.699h-71.696l.03-.042c18.118-26.393 42.778-47.96 71.623-62.343z" style="fill:#871315;fill-opacity:1;fill-rule:nonzero;stroke:none" transform="matrix(1.33333 0 0 -1.33333 -.667 1121.853)"></path><path d="M540.644 447.322c0-134.654-109.157-243.81-243.811-243.81S53.021 312.667 53.021 447.321c0 134.655 109.158 243.812 243.812 243.812s243.811-109.157 243.811-243.812m-243.811-233.88c62.472 0 121.205 24.329 165.378 68.502 44.174 44.174 68.502 102.907 68.502 165.378 0 62.472-24.328 121.205-68.502 165.38-44.173 44.173-102.906 68.5-165.378 68.5s-121.205-24.327-165.378-68.5c-44.174-44.175-68.502-102.908-68.502-165.38s24.328-121.204 68.502-165.378 102.906-68.502 165.378-68.502" style="fill:#871315;fill-opacity:1;fill-rule:nonzero;stroke:none" transform="matrix(1.33333 0 0 -1.33333 -.667 1121.853)"></path><path d="M166.913 596.47v-17.148l-.002-.349h-6.895v-6.62h22.795v6.62h-6.796v28.967000000000002h-7.861c-.13-3.285-2.224-4.552-4.76-4.568h-3.379v-6.622h6.896zM205.107 585.929c-3.296-1.158-8.779-2.314-12.951.079-4.69 2.69-4.552 7.587-4.552 10.07 0 2.482.552 5.034 2.966 7.793 2.944 3.364 6.275 4.345 10.207 4.345 3.517 0 6.76-.276 9.863-3.655 3.728-4.06 3.518-9.863 3.586-13.863.056-3.242-.679-8.303-3.172-11.794-3.793-5.31-8.553-6.966-13.863-7.035-4.207-.055-7.173.952-7.173.952v6.62s2.759-1.089 6.827-1.089c3.381 0 5.972 2.199 7.036 3.794 1.241 1.861 1.226 3.783 1.226 3.783m-4.123 16.217c-2 .052-3.162-.688-3.793-1.792-.552-.966-.786-1.932-.828-3.725-.069-2.965.797-4.613 2.552-5.448 1.448-.69 4.622-.69 6.345.206 0 0 .138 2.69.07 5.035-.103 3.45-1.656 5.656-4.346 5.724M258.894 594.156c3.296 1.158 8.778 2.314 12.95-.079 4.69-2.69 4.552-7.587 4.552-10.07s-.551-5.034-2.965-7.793c-2.944-3.364-6.276-4.345-10.208-4.345-3.517 0-6.76.276-9.863 3.655-3.728 4.059-3.517 9.863-3.586 13.863-.055 3.242.68 8.303 3.173 11.794 3.793 5.31 8.552 6.966 13.863 7.035 4.206.055 7.173-.952 7.173-.952v-6.62s-2.76 1.089-6.828 1.089c-3.381 0-5.972-2.2-7.035-3.794-1.242-1.861-1.226-3.783-1.226-3.783m4.123-16.218c1.999-.051 3.162.689 3.793 1.793.552.966.786 1.932.827 3.725.07 2.965-.797 4.613-2.551 5.448-1.449.69-4.622.69-6.346-.207 0 0-.137-2.69-.069-5.034.102-3.45 1.656-5.656 4.346-5.725M227.072 588.032c4.276 0 6.88-.613 8.328-2.188.74-.804 1.035-2.074.723-3.71-.309-1.615-1.447-2.952-3.766-3.37-2.117-.383-4.718-.064-6.792.319-3.075.568-6.62 2.64-6.62 2.64v-7.276c3.006-1.481 6.938-2.509 11.765-2.44s8 1.028 10.276 2.74c2.277 1.712 4.139 4.452 4.139 7.809 0 2.978-.828 5.463-3.877 7.311-.647.391-2.574 1.209-2.574 1.209 3.089 1.413 5.59 4.544 5.52 8.45-.052 2.879-1.296 4.744-3.414 6.321s-5.252 2.445-9.746 2.508c-4.493.063-8.153-1.348-10.951-2.711v-6.987s3.058 2 6.472 2.822c1.549.374 3.512.506 5.483.155 2.159-.385 3.362-1.182 3.672-2.62.266-1.232-.087-2.65-.776-3.391-1.348-1.451-3.882-1.901-7.862-1.901z" style="fill:#428ed3;fill-opacity:1;fill-rule:nonzero;stroke:none" transform="matrix(1.33333 0 0 -1.33333 -.667 1121.853)"></path><path d="M378.112 627.001c1.001-.58 4.978-2.987 5.57-3.284.235-.118.422.046.44.306.1 1.333.484 5.585 1.525 7.608.598 1.161 1.515 2.068 2.095 2.568.324.28.752.815.857.995 1.568 2.678 3.264 3.591 4.109 3.895.341.122.624.26.85.404.371.24 1.14.569 2.59.622 2.811.103 5.553-.603 8.535-2.655 2.194-1.51 3.725-3.398 3.776-5.311.052-1.914-.051-3.932 0-6.828.052-2.897-.568-4.552-.879-6.725-.158-1.1-.552-2.242-1.172-2.656-.621-.414-1.173-.137-1.173.276s-.552.966-1.103.62c-.552-.344-.828-.896-.828-2.758 0-.98.057-1.654.112-2.073.048-.377.351-.624.66-.856.198-.149.419-.36.607-.657.213-.333.338-.745.412-1.104.094-.458.35-.888.77-.99.805-.192 2.257-.532 3.888-.872 3.537-.737 5.793-1.758 8.586-4.448s5.794-6.621 7.656-12.105c1.862-5.483 3.931-13.448 6-18.415 2.07-4.965 5.38-13.759 6.518-18.621 1.138-4.863 2.483-13.036 2.38-18.105s-2.276-7.553-4.139-8.38c-1.358-.604-4.038-1.428-5.388-1.83-.501-.148-.82-.493-1.012-1a7.7 7.7 0 0 0-.738-1.412c-.535-.831-1.24-1.083-1.743-1.147a3.4 3.4 0 0 1-1.166-.353c-.401-.207-1.074-.465-2.16-.672-1.613-.308-3.624-.387-4.554-.407-.323-.006-.643-.276-.754-.427-.338-.461-.999-1.026-2.245-1.65-1.24-.62-2.657-1.182-3.287-1.425-.21-.08-.334-.365-.337-.777-.01-1.237-.048-4.03-.203-6.59-.174-2.866-.785-8.065-.977-9.66-.037-.306.013-.727.103-1.098.128-.526.295-1.3.356-1.967q.02-.213.034-.376c.07-.763.252-.854.466-1.248.108-.2.224-.477.328-.86.31-1.138.62-2.379 1.552-5.172.887-2.662 1.023-5.137-1.385-6.08-.119-.046-.38-.274-.39-.54-.051-1.335-.217-5.671-.346-9.468-.155-4.551-.724-8.793-.31-13.293.455-4.955.467-4.93.569-5.742 0 0 1.481-.866 1.913-2.742.466-2.017.518-6.052-.413-7.397-1.048-1.514-3.311-1.241-4.914-1.706-1.604-.467-6.261-1.439-8.535-1.346-2.535.104-4.656.57-6.725 3.673-1.107 1.661-2.69 2.587-3.414 4.138-.509 1.09-.155 3.466.57 4.862.94 1.818 2.378 2.742 4.499 3.156s3.828-.569 4.76-1.5c.899-.9 1.913-.26 1.913-.26 0 6.105-.414 13.347-1.242 20.589-.827 7.242-1.034 8.172-1.344 9.62-.31 1.449-1.138 3.519-1.138 6.83s.206 4.655 0 6.103c-.915 6.402-1.346 12.931-2.07 18.932a347 347 0 0 1-.698 5.385c-.08.578-.762.9-1.064.888-.997-.035-1.878-.051-2.479-.06-.517-.005-.906-.29-1.06-1.04-.156-.75-.388-1.966-.7-3.828-.62-3.724-1.528-8.796-1.964-12.724-.447-4.019-.508-7.19-.583-9.312-.012-.337.234-.863.524-1.035.329-.195.68-.7.68-1.965 0-1.985.503-4.76 1.03-5.988.105-.243.38-.792.13-1.085-.265-.31-.882-.655-2.299-.763-.162-.011-.57-.277-.663-.745-.306-1.575-1.03-5.628-1.51-10.972-.599-6.692-.909-14.926-.836-19.863.002-.178.14-.577.315-.785.318-.378.784-1.246.884-3.147.155-2.948-.044-5.732-2.276-6.569-2.07-.776-2.85-.034-4.242-.155-1.19-.104-2.741-.518-4.81-.932-2.07-.413-5.639-.361-7.45.414-1.81.777-2.73 1.634-3.879 3.932-.827 1.655-1.707 2.173-2.276 3.31-.57 1.139-.57 4.346.31 5.38.651.765 2.277 1.656 4.915 1.603 2.587-.05 4.552-.88 5.483-2.017.93-1.138 2.276-.62 2.586-.052.155.285.466.453.738.55.27.097.489.27.461.542-.158 1.623-.74 7.652-1.095 12.616-.473 6.611-.931 12.415-1.449 20.38-.221 3.414-.62 7.14-.31 10.139.27 2.606-.104 5.794-.483 11.587-.312 4.766-.71 10.685-.845 12.831-.033.526-.443.815-.633.795-2.036-.21-3.681-1.444-5.385-1.728-1.862-.31-4.8-.118-6.414.93-2.069 1.346-2.172 4.036-1.655 7.76s4.139 8.69 9.414 16.656c3.958 5.975 6.867 10.145 8.074 11.857.404.57.617 1.09.603 1.487a37 37 0 0 1-.116 1.878c-.021.257-.314 1.08-.978 1.312-.563.196-1.43.367-2.72.33-3.517-.104-11.304-.144-12.518.723-1.449 1.035-4.345 3.518-6.621 8.07s-5.07 11.277-6.311 15.725c-1.242 4.449-1.034 11.69.828 16.657 1.744 4.65 5.302 11.841 8.211 12.99.197.078.696.237.987.49.54.47 1.738 1.454 3.837 3.59 1.873 1.905 3.275 3.121 4.299 5.439.05.115.026.434-.213.553-.546.27-1.695.738-3.362.904a24 24 0 0 1-5.931-.137c-1.794-.277-3.035-.483-4.552-.483-1.037 0-1.882-.761-2.897-1.035-1.794-.483-2.53-.34-3.035 2-.758 3.518-.758 8.966.276 14.14.949 4.74 2.693 7.831 4.897 7.655 1.724-.138 1.862-1.38 2.69-3.31.827-1.932 2-3.932 4.414-6.828 1.338-1.607 3.206-3.384 7.145-6.213.534-.383 2.006-1.32 2.974-1.93.523-.33.938-.302 1.26.004.656.62 1.226.821 1.794.896.776.104 1.38-.137 2.655-.12 1.195.016 1.035-.673 2.121-.828.957-.136 1.034-1.19 1.604-1.241s.93-.569.982-1.345c.027-.388-.064-.828-.16-1.17-.098-.343-.072-.562.057-.678.13-.115.26-.374.26-.945 0-.423-.025-.774-.05-1.024-.027-.271.026-.471.17-.554m33.313-55.544c-.27.331-.478.396-.547.252-.208-.432-.635-1.402-.713-2.255a9 9 0 0 1 .002-1.441c.04-.495.296-1.169.584-1.678.171-.3.375-.662.59-1.052.122-.223.524-.717.768-.777.508-.124 1.426-.395 2.278-.885.379-.217.95-.396.718.303-.29.87-.781 2.213-1.526 3.875-.86 1.916-1.676 3.073-2.154 3.658m-27.82 49.154c-1.202.592-4.096 2.013-4.659 2.263l-2.602 1.155c-.261.116-.488.076-.615-.094-.385-.508-1.341-1.53-2.842-1.58-2-.07-2.483-.139-3.932-1.518s-1.724-1.932-1.793-2.828c-.069-.897 1.103-1.724 2.138-2.484 1.035-.758 3.932-1.999 6.621-3.24s5.311-2.345 7.035-2.415c0 0 .69.897.759 3.518.054 2.052.277 5.159.371 6.413.026.348-.158.652-.481.81m-12.511-8.327a24.4 24.4 0 0 1 4.552-3.31c2.069-1.173 3.724-2.62 5.655-1.863 1.931.76 2 1.036-.276 1.932s-5.862 2.275-7.793 3.241-3.656 1.38-2.138 0" style="fill:#231f20;fill-opacity:1;fill-rule:nonzero;stroke:none" transform="matrix(1.33333 0 0 -1.33333 -.667 1121.853)"></path><path d="M417.305 546.281c-.465-1.3-.207-2.897-.31-5.276s.103-5.07 1.965-3.104 2.586 3.31 5.38 3.517 4.242-1.55 5.69-3.103c1.448-1.552.62-5.897-.207-7.242-.828-1.345-.724-3.62-.724-4.138s2.379.414 3.517.931 4.035 1.034 5.587 2.69 1.965 6 1.758 9.517c-.207 3.518-1.448 7.864-2.69 13.036-1.241 5.173-3.931 12.414-5.483 16.863s-3.62 9.518-5.276 15.312-3 10.138-5.38 13.138-4.448 4.863-6.517 6c-2.07 1.139-3.518.518-4.759-1.655s-1.759-3.103-1.552-8.276c.207-5.172.828-7.345 2.07-12.311s1.447-7.966 1.965-9.208c.517-1.241 2.586-5.069 3.724-8.173s2.38-5.483 3.311-7.24c.931-1.76.931-4.036.828-7.45s-.104-3.725-.828-2.794c-.724.932-1.552.414-2.07-1.034" style="fill:#fff;fill-opacity:1;fill-rule:nonzero;stroke:none" transform="matrix(1.33333 0 0 -1.33333 -.667 1121.853)"></path><path d="M383.372 577.938c.061-2.207.344-3.31.965-4.62.62-1.311.966-3.519 1.104-5.242.08-1.014.138-2.028.171-2.69.024-.467.52-.744.79-.729.876.048 1.935.134 3.103.16.764.017.694.638.832 3.535.139 2.896.276 5.862.897 7.793.62 1.931.69 4.07.345 5.931-.345 1.862-.828.484-1.103-1.862-.276-2.345-.483-4.414-.897-6.07-.414-1.654-.69-5.448-.69-6.551 0-1.104-.69-.896-.69 1.103s.484 4.966 1.035 7.863c.552 2.897.759 6.207 1.38 8.828s1.654 8.414 2.206 10.552c.553 2.139 1.38 4.966 2 5.38s.414-.345-.068-2c-.484-1.655-.484-2.758-.484-3.724s.277.206.966 2.069c.69 1.861 1.104 3.517 1.863 3.931s.069-.966-.414-2.414c-.37-1.113-.966-1.931-1.31-4.276s-.829-2.414-1.035-5.242c-.208-2.828-.483-4.896-.965-6.276-.483-1.38-.07-2.759-.139-4.345-.068-1.587-.552-3.173-.828-4.208-.275-1.034-.94-2.202-.896-4.207.069-3.172-.065-5.616 1.45-5.532 3.245.18 6.665.713 9.034 1.187 2.77.554 4.54 1.188 5.488 1.591.585.25.822.737.874 1.236.052.5.19 1.173.535 1.863.69 1.38 1.578 1.845 1.516 4-.068 2.415-.55 5.794-1.516 9.312s-1.863 5.517-2.07 1.724-.483-7.311.07-9.38c.551-2.069 1.724-3.104 1.585-3.656-.138-.552-1.586.276-2.482 2.138-.897 1.863-1.035 5.31-.62 9.656.413 4.345 1.379 5.587 1.448 9.656s.76 7.486-.76 4.828c-1.103-1.93-2.62-3.449-2.551-12.139.07-8.69.345-12.277.965-14.966s1.035-4.76-.206-2.828c-1.242 1.931-1.932 6-1.932 11.863s-.206 12.277 1.38 16.07 3.793 6.07 5.586 7.448c1.793 1.38 1.097 1.557-.896 2-2.484.553-2.897.967-6.414-.482-2.465-1.015-5.37-2.2-6.888-2.817-.65-.264-1.257-.761-1.596-1.39-.819-1.52-2.375-4.742-3.448-9.035-1.517-6.07-1.931-10-2.897-14.277s-1.104-8.207-1.517-7.794c-.415.414-.138 2.759.482 7.035.622 4.276 1.932 9.31 1.863 11.104-.07 1.793-1.518-2.276-2.208-4.69s-2-4.276-.965-.69c1.035 3.587 1.862 7.105 3.173 10.14 1.12 2.594 3.047 6.448 4.013 8.375.165.326.206.969-.11 1.243-.624.543-1.723 1.489-2.73 2.313-1.519 1.242-2.277 1.862-3.173 1.862-.897 0-1.863.069-4.484-2.137-2.62-2.208-3.938-3.584-5.103-7.794-1.242-4.483-1.448-8.14-2.277-9.173-.827-1.035-1.31-3.587-1.24-8.208.068-4.62.413-9.38 1.379-11.035.565-.97 1.415-2.295 2.022-3.227.429-.657 1.128-1.145 1.77-1.182.775-.045 1.916-.105 3.175-.151.182-.007.58.142.602.427.037.493.054 1.36-.12 2.408-.276 1.656-.69 1.587-.897 2.69-.362 1.929-1.242 3.587-1.173 5.242.07 1.656-.69 3.725-.828 2.138-.137-1.586-.344-4.207-.413-6.276-.07-2.069.413-3.448-.345-3.241-.759.207-.897 2.551-.966 5.31s.76 5.448 1.173 7.794c.414 2.344.414 4.137.827 5.38.414 1.24 1.517 3.035 2 4.758.484 1.724 1.587 3.242 2.414 4.07s.897 1.517 1.38 3.104c.483 1.586 1.874 3.025 2.344 3.379.829.62 1.45.482 1.38-.828-.068-1.31-.758-2.07-1.448-3.724-.69-1.656-.413-3.242-1.242-4.345-.827-1.103-1.93-5.173-2.275-7.932-.346-2.758-.346-4.621-.276-7.104M373.651 524.038c-.004.595.208.966.711 1.008.717.059 2.022.13 4.147.13 3.62 0 5.276-.103 8.276-.724a56 56 0 0 0 2.67-.604c.618-.161.715-.506.66-1.035a2009 2009 0 0 0-.743-6.948c-.518-4.759-1.035-8.07-1.345-11.483-.31-3.415-.414-4.242-2.483-4.448-2.069-.208-5.794 0-8.276.516-2.483.517-2.69 1.241-2.69 3.621s-.724 11.277-.828 14.794c-.066 2.25-.09 4.118-.099 5.173M401.065 493.856c-.427-.042-.734-.338-.783-.802a14 14 0 0 1 .056-3.26c.168-1.292.337-2.217.456-2.794.1-.485.326-.835.615-.972.655-.31 1.935-.687 3.585-.424 2.586.414 3.103 1.087 4.965 3.777 1.227 1.773 1.862 3.108 2.081 3.636.114.272.153.65.132 1.02-.028.499-.113 1.214-.35 1.81-.414 1.034-.621.724-2.018-.053-1.396-.775-3.207-1.861-5.431-1.81a28 28 0 0 1-3.308-.128M399.924 499.83c.255-1.955.466-3.104 2.173-3.156 1.707-.051 3.88-.155 6.052.776 2.467 1.058 2.793 1.655 3.052 3.208.259 1.551.88 6.051 1.293 12.672.085 1.345-.003 5.637-.038 7.19-.008.357-.273.724-.75.95a20 20 0 0 1-6.195 1.74c-3.227.364-6.265.35-7.447.325-.334-.006-.503-.223-.469-.63.087-1.044.288-3.39.622-6.884.466-4.863.93-10.243 1.707-16.191" style="fill:#fff;fill-opacity:1;fill-rule:nonzero;stroke:none" transform="matrix(1.33333 0 0 -1.33333 -.667 1121.853)"></path><path d="M411.368 453.507c.361.203.444.51.429.75-.06.899-.215 3.449-.337 7.295-.067 2.083-.052 6.517.155 8.897.206 2.379.414 7.397.517 11.742.071 2.978.142 5.18.18 6.269.017.5-.124.546-.389.198-.597-.787-1.775-2.236-3.102-3.312-1.755-1.423-4.338-1.715-6.509-1.474a.474.474 0 0 1-.512-.543c.11-1.028.357-3.337.762-6.983.57-5.121.909-11.484.983-15.674.036-1.966.095-3.885.129-4.914.016-.487.278-.768.648-.8.541-.045 1.336-.176 1.965-.545 1.5-.88 2.586-1.552 3.93-1.293.542.104.908.25 1.151.387M393.717 451.671c-.49-.384-.672-1.5.31-2.483.983-.982 3-2.224 3.052-1.345s-.103 2.484-.828 3.467c-.724.982-1.81.93-2.534.361M404.51 452.756c-.022.2.104.57.386.483.562-.177 1.494-.498 2.011-.843.467-.312.916-.604 1.198-.788.187-.122.208-.446.037-.84-.3-.695-.833-1.831-1.494-2.821-1.034-1.552-2.017-2.276-3-2.224-.982.051-.413.62.156 2.173.52 1.422.956 2.67.706 4.86M410.2 451.046c.055.344.238.672.48.789.31.148.74.325 1.09.353.62.052.942-.41 1.293-1.603.259-.88.926-.881.879-1.397-.051-.568-.62-.568-1.81-.724-1.19-.154-2.069-.517-2.431-.827s-.706.38-.156 1.344c.382.67.569 1.514.656 2.065" style="fill:#fff;fill-opacity:1;fill-rule:nonzero;stroke:none" transform="matrix(1.33333 0 0 -1.33333 -.667 1121.853)"></path><path d="M397.804 445.102c-1.251-.035-1.914-.776-.053-1.863 1.863-1.085 4.5-1.19 6.208-.93 1.707.258 3 .88 5.276 1.344 2.276.466 3.88.932 4.087 1.76.206.827.051 1.189-1.552.878-1.604-.31-2.638-1.396-4.914-2.069-2.276-.672-3.932-.775-5.173-.206s-2.07 1.138-3.88 1.086M376.972 456.326c.013-.23.16-.698.37-.752.627-.165 2.033-.592 3.237-1.368a5.15 5.15 0 0 1 3.413-.8c.165.02.424.327.44.751.029.922.077 2.658.077 4.394 0 2.534.259 9.518.57 13.812s1.861 15.31 1.914 16.449c.051 1.138-.156 2.224-1.139 1.085-.982-1.137-2.793-2.689-5.017-2.74s-3.725.724-4.707 1.396c-.984.673-1.398.62-1.345-.827.051-1.449.62-5.846.827-8.743.207-2.896.363-8.276.57-12.104.192-3.559.608-7.52.79-10.553" style="fill:#fff;fill-opacity:1;fill-rule:nonzero;stroke:none" transform="matrix(1.33333 0 0 -1.33333 -.667 1121.853)"></path><path d="M374.475 497.709c0-1.088 0-3.362.051-4.863.013-.387.03-.694.048-.937.05-.702.288-1.002.625-1.229.336-.226.827-.55 1.448-.937 1.241-.776 2.742-1.293 4.397-.88 1.655.414 2.483.88 3.776 2.225s2.793 2.896 2.742 4.603c-.053 1.707-.26 2.38-1.707 2.225-1.45-.155-5.225-.207-7.398 0s-3.982.62-3.982-.207M368.215 455.706c-.982.042-2.12-1.086-2.276-1.552-.154-.466-.103-1.344 1.293-1.551 1.397-.207 3.053.207 3.053 1.085 0 .88-.828 1.967-2.07 2.018M366.301 446.447c-.065-.586 1.07-2.15 3.31-2.845 1.5-.465 3.633-.4 5.121-.207 2.38.31 3 .88 2.691 1.035s-1.7-.04-3.155-.26c-1.035-.154-3.334-.002-4.604.57-1.035.466-1.5 1.448-2.122 1.759-.62.31-1.188.414-1.24-.052M375.56 452.55c-.569-.31-1.189-.362-.465-.672s1.19-.362 1.448.414c.26.776-.295.634-.982.259M377.733 452.965c-.26-.845-.379-1.68.103-2.121.621-.57 1.018-.38 1.708.31.775.776.414 1.242-.311 1.759-.724.517-1.293.724-1.5.052M374.732 450.016c.067-.565.104-1.396.983-1.552.97-.171 1.087.052 1.553.776.318.496-.464 1.415-1.086 1.448-.983.052-1.552.208-1.45-.672M372.975 447.43c-.487-.696-.777-1.449.103-1.5.88-.052 1.488.008 2.12.776.725.879-.103 1.086-.723 1.293-.621.207-1.14-.052-1.5-.57M384.044 448.412c-.71.178-1.759.104-2.69-.569-.93-.672-1.345-1.344-1.035-1.758s1.708-.621 2.535-.362c.828.258 1.19.776 1.604.776s-.466-1.5-1.345-1.552c-.88-.052-2.534-.052-3.31.517s-.414 1.604.361 2.276c.776.672 1.915 1.396 3 1.5 1.087.104 1.966.104 1.76-.362-.208-.466-.466-.568-.88-.466M404.994 561.195c-.252-.402-.57-.896-.828-1.258-.38-.533-1.655-2.07-2.07-2.586-.413-.517-.206-2.483.518-6.311s2.276-8.69 4.034-15.104c1.22-4.448 1.843-7.353 2.11-8.718.118-.602.869-1.15 1.183-1.27 3.09-1.17 3.952-2.1 4.984-2.945 1.138-.93 2.793-.724 2.69.207-.103.932-1.552 2.38-2.897 3.104s-2.483 2.276-3.62 4.656c-1.139 2.38-2.69 9.414-3.828 14.484-1.138 5.069-1.76 9.931-1.966 9-.207-.931 1.138-7.449 2.172-11.897 1.035-4.45 2.277-10.036 3.208-12.311s2.38-3.415 1.137-2.897c-1.24.517-1.965 3.207-3 6.724s-2.069 8.38-2.897 12.415-1.344 6.828-1.344 8.794.414 3.93.93 3.93c.518 0 .311-1.861 1.035-5.482.725-3.621 1.449-8.07 3.518-15.622s4.759-10.345 5.793-10.862c1.035-.518-.414 3.93-1.448 6.517-1.035 2.586-1.449 5.794-2.173 8.794s-2.069 7.345-3.414 10.552-1.551 4.242-1.137 4.242 1.861-3 3-6.208c1.137-3.206 2.586-7.138 3-9.828.413-2.69 2.069-3.518 2.069-3.518-.207 1.346.207 4.243.207 7.243s0 5.172-2.173 11.38c-1.404 4.013-2.42 6.08-2.962 7.04-.297.525-.63.582-1.002.359-.624-.375-1.794-.996-3.576-1.632-.258-.092-1-.588-1.253-.992M397.855 548.66c0-6.208.31-5.483.724-9.31.414-3.829 1.656-8.484 2.276-10.657.347-1.21 1.552-1.654 2.587-1.654 1.034 0 1.655.103 1.448 1.448s-.931 3.31-1.552 5.173c-.62 1.861-1.034 5.173-1.241 7.758-.207 2.587-.827 6.725-1.345 9.83-.517 3.103-.725 6.103-.207 7.654.517 1.552-1.237 1.61-1.237 1.61a54 54 0 0 0-1.97-.258c-.207-.023-.633-.419-.63-.936.005-.867.06-2.198.32-3.106.413-1.448.827-3.93.827-7.551M378.969 559.332a219 219 0 0 0-3.77-4.981c-2.435-3.142-1.966-5.07-2.897-6.932s-2.38-4.035-3.724-5.69c-1.346-1.656-2.587-3-4.242-7.035s-2.586-6.518-3.31-8.173-1.242-.518-1.553 1.552.415 4.759 2.07 8.07 3.62 5.793 6.207 8.069.31 1.655 2.172 4.966c1.552 2.759 5.545 8.533 6.835 10.383.258.37.467.583.579.583l1.172-.004c.306-.002.863-.257.46-.808zM386.246 559.242c.104.487.687.742.954.732q.425-.018.827-.037a58 58 0 0 1 5.903.035s1.443-.035 1.443-1.484c0-1.448-1.243-1.137-1.76-2.276-.517-1.137-.827-2.482-.723-5.482s0-8.69 0-11.38.93-2.897.93-4.966 1.035-3.311 1.035-4.862.207-1.863-1.345-1.967c-1.552-.103-1.552.208-1.966 3.932s-.62 5.897-.517 9.414c.103 3.518.827 5.173 1.138 8.587s0 4.035-.62 2.587c-.62-1.449-1.035-3.725-1.966-7.346-.932-3.62-1.035-5.07-1.552-7.862-.518-2.794-1.034-6-1.242-7.139-.206-1.138.208-1.862-1.655-1.655-1.862.206-2.31.187-1.448 3.31.827 3 2.276 7.346 3.827 13.243 1.553 5.897 1.76 7.035 2.38 9.517q.93 3.726-.31 4.345c-.828.414-1.346-.206-1.966-2.172-.62-1.965-1.552-6-2.38-9s-2.172-6-3.206-9.105c-.95-2.85-1.639-5.526-2.306-8.268-.059-.243-.385-.707-1.096-.693-.71.013-1.926.013-3.943-.039-4.036-.104-5.69-.518-7.76-1.448-1.285-.578-2.286-.893-2.94-1.06-.578-.148-.706.194-.375.855a170 170 0 0 0 3.108 5.894c2.173 3.932 3.518 6.932 6 11.484 2.484 4.552 3.932 6.415 6.518 10.035a160 160 0 0 1 2.915 4.197c.422.634 1.084.917 1.327.912l.731-.015s.717-.956-.627-2.714c-1.346-1.76-5.38-6.725-7.864-10.863-2.482-4.138-4.551-10.242-5.069-12.725s-.31-2.38.621.413c.931 2.794 3.415 8.38 5.587 11.794 2.172 3.415 4.552 5.897 5.38 6.829.827.931-.828-2.897-2.898-7.345-2.068-4.449-4.551-10.035-5.275-12.002-.725-1.965-.311-3 .93-.206s4.553 9.104 6.725 14.173c2.173 5.07 3.517 8.483 4.035 10.035.246.737.4 1.349.495 1.788M407.167 529.314c-.377 2.18-1.449 6.207-2.277 8.794-.828 2.586-1.862 4.345-1.242.725.622-3.622 1.966-9.105 2.38-10.45s1.656-2.069 1.138.931" style="fill:#fff;fill-opacity:1;fill-rule:nonzero;stroke:none" transform="matrix(1.33333 0 0 -1.33333 -.667 1121.853)"></path><path d="M395.166 554.66c-.696-1.564-1.036-3.93-1.036-9.103s.208-7.346.311-8.587.725-.827.932 1.035c.206 1.862.93 2.172.827 8.07-.103 5.896-.207 10.448-1.034 8.586M396.097 537.073c-.758-1.894-1.346-3.517-1.035-4.655.31-1.138.724-2.483 1.035-.828s.93 3.207.93 5.173-.31 1.862-.93.31M397.545 532.728c-.342-2.05-1.242-4.758 0-4.758s2.069-.518 1.552 2.276c-.518 2.793-1.242 4.344-1.552 2.482M414.025 561.55c-.257.12-.67-.04-.376-.688.775-1.706 2.285-5.186 3.035-7.96 1.034-3.828 1.242-4.345 1.655-2.38.414 1.966.103 4.863-1.241 7.45-1.127 2.166-1.745 2.954-3.073 3.578M387.613 551.97a427 427 0 0 0-3.517-12.62c-1.346-4.553-2.276-6.311-3-8.277s-.104-1.862.413-1.862c.518 0 .931 3 2.587 8.07 1.655 5.069 3 10.034 4.034 14.276 1.035 4.242.207 3.207-.517.414M389.579 540.591c-.25-2.505-.932-7.448-1.035-9.828s.31-2.897 1.138-2.897.931 1.448.724 4.345a112 112 0 0 0-.31 8.07c0 2.586-.31 2.38-.517.31M368.68 540.694c-1.049-1.5-2.586-4.965-3.31-6.828-.724-1.862-.103-.517 1.759 2.69s3.31 5.794 4.138 7.242-.413 0-2.586-3.104M378.82 557.558c-1.46-2.02-3.829-4.656-4.242-6.104-.414-1.449-.414-1.966 1.345.827a44 44 0 0 0 4.241 5.69c.828.931 0 1.449-1.345-.413M362.68 525.073c.833.059 2.483.827 3.829 1.448 1.344.62 1.552-.31 1.241-.931-.31-.62-1.552-.93-3-1.241-1.449-.31-3.518.62-2.07.724M370.646 528.073c1.336.348 3.725.103 6.104.103s4.242-.62 4.76-1.034-1.966-.311-3.208-.207c-1.241.104-3.42.068-5.897-.104-3-.206-4.138.621-1.759 1.242M387.096 527.039c2.063-.177 5.586-.195 9.621-.195s7.035-.195 10.035-.877-.828-.584-3-.487c-2.173.098-4.449-.097-7.759-.097s-6.31.292-7.552.584-3.621 1.266-1.345 1.072M408.304 524.762c1.649.15 2.793-.207 3.414-.724s-.103-1.035-1.241-.62c-1.138.413-3.31 1.241-2.173 1.344M415.442 520.106c0-.724.104-1.137 1.035-.413s.62.932-.207 1.241c-.828.31-.828-.103-.828-.828" style="fill:#fff;fill-opacity:1;fill-rule:nonzero;stroke:none" transform="matrix(1.33333 0 0 -1.33333 -.667 1121.853)"></path><path d="M432.512 535.004c.828-1.034 1.449-1.138 2.794-1.034s3.31 1.034 3.414 3.621c.103 2.586-.103 4.138-.517 5.483s-.828-.828-.828-2.897-.643-4.7-1.966-4.966c-1.552-.31-3.584.652-2.897-.207M416.063 584.146c0-2.708.207-6.208-1.034-8.07s-1.966-4.035-.62-2.586c1.344 1.448 2.38 2.586 2.689 6.414s-.104 4.862-.517 4.862-.518.207-.518-.62M424.547 568.834c.206-1.345.62-4.138-.104-5.379-.724-1.242-.414-3.829 0-5.173.414-1.345.932-2.276 1.035-5.38s.207-4.138.93-2.483c.725 1.656.31 4.966-.31 6.932-.62 1.965-1.138 4.448-.31 5.69s.828 3.931.207 6.207c-.62 2.276-.207 3.31-1.138 4.862s-1.242 3-1.242 4.242-.724 1.345-.62-.414-.104-3.104.517-3.931c.62-.828.545-1.988 1.035-5.173" style="fill:#231f20;fill-opacity:1;fill-rule:nonzero;stroke:none" transform="matrix(1.33333 0 0 -1.33333 -.667 1121.853)"></path><path d="M410.787 597.802c0-1.242 1.034-3.31 3.31-6.208 2.277-2.897 4.553-4.759 5.173-7.242s1.552-5.483 1.76-6.724c.206-1.241.62-1.862.206 1.035-.414 2.896-.31 4.965-.93 6.517-.622 1.552-2.898 4.241-4.864 6.828-1.965 2.586-2.483 3.828-3.207 4.966s-1.448 1.551-1.448.828M411.097 601.009c-.047-.73.828-2.69 1.656-3.104s.103 1.345-.414 2.173c-.518.827-.104 3.207 1.862-.31 1.965-3.518 4.035-7.036 5.173-9.208s1.655-4.656 2.276-3.725c.62.932-1.138 3.725-2.69 6.725s-3 5.897-4.345 7.966-3.31 2.69-3.518-.517M417.822 598.94c1.258-2.63 2.586-5.173 3.207-6.415.62-1.24.724 0-.31 2.276-1.035 2.277-1.966 4.76-3.31 5.897-1.346 1.138-.725.62.413-1.759" style="fill:#231f20;fill-opacity:1;fill-rule:nonzero;stroke:none" transform="matrix(1.33333 0 0 -1.33333 -.667 1121.853)"></path><path d="M419.063 536.453c-.96-.686-1.965-.828-1.241-2.173.363-.673.776-1.293 1.099-1.746.324-.452.576-.417.616.082.051.636.135 1.564.25 2.492.207 1.655 0 1.862-.724 1.345M419.167 525.176c-.536.376-1.035 1.345-2.07 3.31s-1.292 4.036-1.344 5.277.724.62 1.655-.31c.535-.536 1.07-1.24 1.428-1.744.266-.373.407-.827.372-1.106-.073-.584-.18-1.559-.145-2.013.052-.672.26-1.759.621-2.328.362-.569.518-1.81-.517-1.086M421.167 535.246c0 1.951.6 1.169 1.724 2.207.897.828 1.587 1.517 2.346 1.448.758-.068 1.31-.965 2.206-2.069.897-1.103 2.176-1.174 1.449-3.242-1.086-3.086-1.414-6.276-1.966-7.38-.552-1.103-.61-1.503-1.103-1.448-.466.052-.07.655.276 2.173.344 1.518.247 1.644-.208.155-.569-1.862-1.064-2.783-1.414-2.741-.585.068-.551.413.276 3.103.527 1.712.448 3.38-.103 1.035s-1.069-4.483-1.862-4.173c-.514.2.035 1.551.448 3.483.414 1.931.207 3.035-.207.759s-.897-3.828-1.448-3.62c-.552.206-.345 1.137.069 3.068.413 1.931 0 2.138-.345 1.862s-.345-.862-.517-2.07c-.107-.75-.794-1.447-1-.275-.207 1.172-.053 3.437.414 4.276.69 1.242.965 1.793.965 3.449M428.721 524.429c-.153-.449-.535-1.08-1.485-1.253-.817-.149-1.034.483-.413 1.173.34.378.536.985.643 1.456.087.387.187.382.33.042.145-.34.36-.72.648-.878.115-.064.369-.272.277-.54M415.184 537.384c-1.066.621-1.138-.673-.724-1.707s.776-1.5.982-.207c.207 1.293.363 1.552-.258 1.914M420.977 523.78c1.04-.467 1.421-.825 2.277-.621 1.085.258.93.051 1.706.051s1.242-.983-.568-1.344c-1.81-.363-3.207-.363-3.829-.052-.62.31-1.085 2.638.414 1.965" style="fill:#fff;fill-opacity:1;fill-rule:nonzero;stroke:none" transform="matrix(1.33333 0 0 -1.33333 -.667 1121.853)"></path><path d="M404.408 605.181c-.705-.148-2.967-1.724-4.829-4.069s-3.034-5.517-3.241-9.725-.138-6.483-.69-8.07c-.552-1.586-.275-2.206-.275-4.344s-1.105-3.31-1.105-5.242 1.035-2.483 1.035-4.414-.069-3.034.345-2.069.621 3.104.345 4.76c-.276 1.654-.413 3.241.276 4.758s.345 3.379.552 4.759c.206 1.379.552 3.654.483 6.69-.07 3.035.138 5.931 1.448 8.552s2.414 4.483 4.207 6.276 2.759 2.414 1.449 2.138" style="fill:#231f20;fill-opacity:1;fill-rule:nonzero;stroke:none" transform="matrix(1.33333 0 0 -1.33333 -.667 1121.853)"></path><path d="M377.509 563.11c0-.488-.138-1.518.414-1.656s.689-.413.62.552 0 1.38-.413 1.38c-.414 0-.621.069-.621-.276M382.544 563.938c-.686-.077-.827-.69-1.172-.622-.346.07-.346-.896-.346-1.31s.414-.62 1.31-.62c.898 0 .898.552.898 1.172s-.07 1.449-.69 1.38M385.44 563.04c.082-.405-.62-1.516.483-1.586 1.104-.069 1.035.69 1.035 1.104s-.344.965-.828.965c-.483 0-.759-.138-.69-.482M390.2 563.869c-1.048-.35-1.31-.897-1.31-1.38s-.139-1.517.62-1.517 1.104.552 1.38.966.137.827.137 1.31-.414.758-.827.62M392.062 562.834c-.128-1.026-.138-1.793.482-1.724.622.069.208.344.208 1.517 0 1.172-.277 1.448-.552 1.448-.276 0-.07-.69-.138-1.242M394.682 564.007c-.474-.087-.275-.828-.344-1.449-.07-.62-.276-1.586.482-1.586.76 0 .553.896.553 1.793s.068 1.38-.69 1.242M397.441 563.731c.123-.98 0-2.139.483-2.139s.897.207.76 1.518c-.139 1.31-.14 1.516-.484 1.379-.345-.138-.828-.207-.759-.758M401.303 564.834c-.755-.094-1.379-.207-1.379-1.448s.207-1.587 1.173-1.587.758.896.758 1.656c0 .758 0 1.448-.552 1.379M404.476 564.972c-.462-.308-.068-.827-.068-1.379s.689-.828 1.31-.345c.62.483.276 1.035.138 1.793s-.76.345-1.38-.07M408.408 565.8c-.078-.616-.07-1.45.344-1.311.414.138.69.69.346 1.794-.346 1.103-.622.068-.69-.484M384.613 564.618q-.545 0-1.104.009s-.414.966-.137 2.138c.275 1.173.344 1.587.413 2.139.07.55.345-.69.345-1.656s.483-2.63.483-2.63zM392.752 592.905c-.462-1.937-.414-4.208-.898-6.277-.482-2.068-.206-2.69.138-3.587.346-.895.622.622.622 2.484s.482 3.932.827 5.518.07 2.621.07 3.31-.414 0-.76-1.448" style="fill:#fff;fill-opacity:1;fill-rule:nonzero;stroke:none" transform="matrix(1.33333 0 0 -1.33333 -.667 1121.853)"></path><path d="M383.579 600.974c-1.155-.976-4-5.173-5.173-7.38s-1.242-4.276-1.863-5.173c-.62-.896-1.034-2.758-.758-6.068.276-3.311.483-4.552.758-2.346.276 2.207-.275 5.518.897 7.656s.897 2.69 1.862 4.828 1.724 2.69 3.104 5.173 2.07 4.07 1.173 3.31" style="fill:#231f20;fill-opacity:1;fill-rule:nonzero;stroke:none" transform="matrix(1.33333 0 0 -1.33333 -.667 1121.853)"></path><path d="M387.303 600.491c-.571-.57-1.035-2.07-1.31-3.31-.276-1.242-.966-3.035-1.656-3.724s-.966-1.656-1.242-2.829c-.275-1.171-1.241-2.827-2.069-3.93s-.896-1.863-.758-2.76-.138-3.379.344-5.034c.484-1.655.346-4.552.552-5.448.208-.898.276-1.726.69-3.863s.965-1.862 1.035-.069c.068 1.793-.139 3.655-.414 5.725-.276 2.068-.276 4.482-.414 6.62s.551 3.587 1.173 5.863c.62 2.276 1.103 4.069 2.07 5.932.964 1.861.826 2.344 1.515 4.483.69 2.138.828 2.689.484 2.344M373.54 567.444c.194-.713-.08-1.173-.73-1.186-2.656-.052-9.608-.13-11.788.427-.25.064-.397.383-.157.653.52.584 1.453 1.657 2.16 2.6 1.035 1.38 3.45 5.793 4 8.207.553 2.414.414 2.483-.275 1.104s-1.242-3.38-3.035-6.277c-1.793-2.896-4.413-5.724-5.31-4.552s-.967 1.724.137 2.828 4.139 4.345 5.587 7.518 1.724 4.208 1.517 4.62c-.207.415-.69-1.655-2.207-4s-3.104-4.552-4.828-6.207-2.55-2.207-3.724.138c-1.173 2.346-2.759 4.828-4.345 8.897-1.586 4.07-3.242 7.863-3.449 11.587s.069 8 2.276 13.518c1.986 4.966 3.526 7.865 5.322 9.45.2.177.625.182.682-.287.112-.936.388-2.543 1.031-3.783.966-1.862 2.897-3.035 3.931-3.517s.897-1.104-.138-3.173c-1.033-2.069-2.275-5.173-2.413-9.173s0-7.38.275-9.035c.276-1.655 1.656-3.931 2.276-4.07.62-.137.415.276-.414 1.725-.827 1.448-1.171 3.104-1.171 7.586s.275 8.553 1.171 9.794c.897 1.242 1.587 2.76 2.415 4.276.828 1.518.758 1.656 1.31 2.897.552 1.242 1.241-.138 1.517-1.655s2.208-3.172 2.346-6.897.895-4.76 1.31-7.173c.413-2.413 1.517-4.897.552-4.897-.967 0-2.897-.137-4.277 1.104s-2.069 3.724-1.655 7.173.966 4.069 1.103 6.345c.138 2.276-.207 3.587-.482 2-.276-1.587-.621-3.104-1.172-5.448-.552-2.346-1.105-4.967-.828-6.897.242-1.696.962-3.498 2.255-4.706.18-.168.594-.623.59-.896-.01-.82-.241-2.709-1.948-4.675-2.277-2.621-3.38-3.93-4.139-4.966-.759-1.034-.068-1.103.966-.207 1.034.897 3.104 3.035 4.414 5.31.86 1.494 1.423 3.046 1.708 3.937.15.468.45.72.725.68.29-.044.632-.098.808-.133.345-.069.552-1.655 0-2.207-.55-.551-.897-1.173-.068-1.38.827-.207.69-1.172.69-2.345 0-1.172.827-1.586.413-3.517-.413-1.932-1.242-4.621-2.276-6.414-1.035-1.793-1.656-2.828-.897-2.414.76.414 2.483 2.206 3.31 5.448.828 3.242.966 5.656.828 8.001a92 92 0 0 0-.132 4.066c-.005.473.064.865.21 1.02.147.155.371.362.681.57.62.413 1.242.759.828 2.345s-.965 3.104-1.241 5.241c-.276 2.138-.898 3.103-.967 5.173s-.694 2.503-.965 4.345c-.344 2.345-1.035 4.207-1.655 4.897-.254.282-.518.552-.743.772-.326.321-.468.787-.322 1.194.198.552.482 1.397.72 2.31l.127.484c.287 1.102.571.798.967.34.617-.716 1.505-1.803 2.01-2.686.828-1.448 2.138-2.965 4.62-4.621 1.625-1.083 2.484-2.622 2.414-3.172-.068-.552.484-.76.622.413s.758.483 1.517.207c.759-.275.482-.758-.414-2-.897-1.242-1.812-3.237-2.758-6.966-1.173-4.621-.76-6.069-2-8.138-1.243-2.07-1.657-2.759-1.587-7.036.069-4.275 0-6.896.827-9.724.513-1.752 1.026-3.61 1.342-4.77" style="fill:#fff;fill-opacity:1;fill-rule:nonzero;stroke:none" transform="matrix(1.33333 0 0 -1.33333 -.667 1121.853)"></path><path d="M366.28 628.645c-.095.041-.323.003-.406-.21-.249-.64-.935-2.114-2.435-3.666-2-2.07-5.172-5.241-5.862-5.793s-1.31-1.242-.483-2.001 2.965-1.587 4.483-1.655 2.827.828 4.138 2.62c1.31 1.794 2.69 3.794 4.07 4.415 1.379.62 2.62.552 3.724.828 1.103.275 1.866 1.531 2.62 2.62.777 1.121.88 1.224 1.087 2.156.207.93-.31 1.344-.983.568-.672-.776-1.5-2.069-2.327-2.43-.828-.363-2.018-.415-3.104.258-1.039.643-2.455 1.396-4.522 2.29M357.163 614.078c.59-.944 1.448-2.551 2.69-3.448s2.758-1.172 3.586.207 1.103 2.345 1.241 3.448c.139 1.104-.432.246-1.792-.069-.897-.206-2.484 0-3.932.414s-2.483.552-1.793-.552M377.907 625.853c-.207.12-.412.062-.544-.131a15 15 0 0 0-.334-.468c-.072-.097.041-.418.463-.611 1.266-.58 3.914-1.792 4.845-2.22 1.242-.569 1.138.156 0 .828-.93.549-3.513 2.064-4.43 2.602" style="fill:#fff;fill-opacity:1;fill-rule:nonzero;stroke:none" transform="matrix(1.33333 0 0 -1.33333 -.667 1121.853)"></path><path d="M377.009 631.683c.437-.368.155-1.57-.57-1.57-.724 0-1.752-.675-2.223-1.327-.673-.931-.947-1.932-1.552-1.759-.6.172-.727.674-.72 1.09.005.337.058.362-.054.085-.168-.417-.497-.886-1.088-.605-.298.14-.312.738-.266 1.238.037.394.062.548-.03.335-.16-.374-.452-.85-.842-.643-.428.23-.478.772-.437 1.214.033.358.022.39-.132.132-.241-.402-.776-.155-.776.62 0 .776.12 2.627.776 3.155.448.363 1.551.707 1.138-.224-.415-.93-.277-.965.206-.137.483.827 1.14.827 1.622.654s.654-.689.137-1.275c-.516-.586.035-.276.484.207.447.483.93.483 1.517.276s.448-.587-.242-1.518c-.69-.93-.104-.345.448.035s1.518.931 2.604.017M359.423 638.646c.367-.319.412-.637.173-.898-.22-.24-.537-.583-.95-1.013-.863-.897-1.931-2.724-2.828-4.207s-1.207-1.931-2.483-2.07a14 14 0 0 0-1.585-.085c-.312.002-.467.436-.437.674.196 1.507.98 3.757 2.022 5.93.839 1.748 2.36 2.915 3.21 3.464.374.241.756.215 1.083-.104 0 0 .57-.464-.085-.912-.656-.448-2.622-2.31-3.484-4.07-.862-1.758-1.206-3.172-1-3.172.208 0 1.104 2.138 2.38 3.794 1.276 1.655 2.9 3.615 3.984 2.669M352.55 645.9c.371.474.538.7.43.952-.143.33-.343.796-.513 1.186-.076.173-.372.371-.651.082-.496-.512-1.334-1.662-2.171-4.109-1.31-3.828-1.932-7.794-1.932-10.62 0-2.828.346-3.932 1.105-3.657.758.277 1.034.897.965 3.794s.51 6.47 1.38 9.31c.517 1.69 1.017 2.587 1.388 3.061" style="fill:#fff;fill-opacity:1;fill-rule:nonzero;stroke:none" transform="matrix(1.33333 0 0 -1.33333 -.667 1121.853)"></path><path d="M350.532 650.224c.22.333.251.684.01.857s-.62.31-1.173.173c-1.103-.276-2.414-4.208-3.104-7.725-.689-3.518-.964-9.726-.482-12.07.482-2.345 1.449-1.863 1.449-1.863s-.337 1.72-.139 6.484c.207 4.965.553 7.242 2.07 11.31.54 1.449 1.047 2.345 1.369 2.834zM397.234 639.39c1.74-.144 4.966-.896 7.587-3.035.986-.803 1.52-1.527 1.808-2.05.288-.524.092-.913-.22-.948-.455-.052-1.066-.032-1.312.378-.414.69-1.379 2.138-2.414 2.552-1.034.414-2.138.138-5.38.828-2.585.55-4.483.896-3.586 1.517s1.862.896 3.517.759" style="fill:#fff;fill-opacity:1;fill-rule:nonzero;stroke:none" transform="matrix(1.33333 0 0 -1.33333 -.667 1121.853)"></path><path d="M395.734 632.355a9 9 0 0 0-.1-.812c-.072-.426.288-.88.481-.936 1.708-.492 2.047-.739 2.775-.941.93-.259 1.965-.104 3.258-.673 1.552-.682 2.018-1.448 2.018-1.448s.879-.62.828 1.966-.466 3.362-1.76 4.655c-1.292 1.293-2.068 1.552-4.344 1.862s-3.682.618-3.621-.362c.052-.827-.103-1.19.31-1.966.14-.26.195-.747.155-1.345M391.772 631.941c.003-.234.285-.439.415-.462q.667-.111 1.414-.261.188-.038.38-.08c.118-.024.392.137.405.442.017.43-.013 1.045-.256 1.5-.413.775-1.218.58-1.654.362-.617-.309-.71-1.04-.704-1.5M388.729 632.58c-.06-.204.002-.65.34-.682q.257-.024.622-.064c.145-.016.466.193.509.543.042.352.129.806.31 1.22.362.827 1.086 1.138 1.81 1.345l.24.068c.485.138.478.284.453.495-.045.378-.15.967-.382 1.3-.362.516-.983.62-2.121-.673-.998-1.134-1.36-2.11-1.781-3.553M395.615 605.57c-.083-.521.277-.706.725-.496a53 53 0 0 0 4.412 1.832c1.643.589 2.71.936 3.3 1.12.397.123.526.386.42.686-.151.427-.461.988-.772 1.452-.413.62-1.448.104-3.414-.724-1.965-.828-3.569-1.5-4.241-2.69a3.5 3.5 0 0 1-.43-1.18" style="fill:#fff;fill-opacity:1;fill-rule:nonzero;stroke:none" transform="matrix(1.33333 0 0 -1.33333 -.667 1121.853)"></path><path d="M401.96 611.387c.435.174.68.578.65.997-.045.61-.1 1.47-.1 2.022 0 .93-.103 1.241-1.551.103-1.448-1.137-4.242-3.155-5.586-4.086-1.346-.931-2.69-2.328-2.69-3.828 0-.819.092-1.622.176-2.183.07-.467.272-.69.48-.582l.578.3c.158.081.447.562.466 1.023.034.848.219 2.169.99 2.84 1.189 1.033 3.62 2.12 4.913 2.69.647.283 1.242.529 1.675.704M392.113 605.095c0 1.243-.051 2.897-.051 3.31s-1.035.673-1.862 1.294c-.828.62-1.553.672-1.863-.31-.31-.983-.207-1.553 1.397-2.897 1.604-1.346 2.38-2.328 2.38-1.397M387.854 625.941s-.171-1.172-.171-2.31c0-.737.014-1.531.024-2 .005-.256.078-.456.19-.525.337-.207 1.071-.66 1.55-.974.09-.058.272-.07.335.07.14.31.408.884.694 1.36.413.689 1.137 1.62 1.448 2.62s-.448 1.828-.552 1.345-.758-.793-1.31-.827c-.552-.035-1.242.413-1.553.758s-.551.828-.655.483M386.32 609.492c1.115.807 2.327 3 2.38 5.069.077 3.103-1.81 5.121-2.794 5.793-.983.673-.517-.31-.517-.31 1.087-.672 2.423-2.676 2.38-5.069-.052-2.793-.751-4.447-3.156-5.742-.673-.362-1.19-.051-1.241-.465s1.448-.362 2.948.724" style="fill:#fff;fill-opacity:1;fill-rule:nonzero;stroke:none" transform="matrix(1.33333 0 0 -1.33333 -.667 1121.853)"></path><path d="M392.579 625.838c-.099 1.083-.828 1.913-2.173 2.172a9.6 9.6 0 0 1-1.862.176c-.295-.002-.427.447-.405.654.049.45.107.81.156 1.073.063.335.301.512.64.5a34.5 34.5 0 0 0 5.955-.747c3.448-.759 6.413-1.449 7.517-2.276 1.104-.828 1.103-2 .759-2.828-.345-.827-.552-1.792-.552-2.276s.718-.683 1.31.07c.707.895.76 2.706 1.173 3.43s1.294.931 1.707-.052c.414-.982 0-3.776-1.086-4.707-.543-.465-.957-.724-1.236-.866a1.57 1.57 0 0 1-.678-.702c-.524-.999-1.862-3.19-4.19-4.743-3.104-2.069-4.552-2.534-6.983-2.69-.568-.036-1.376.016-1.656.104-.827.259-.85.59-.879 1.293-.024.564-.058 1.033.104 1.966a1.19 1.19 0 0 0 1.138 1.035c.344 0 1.035-.138 1.552-.138.483 0 .85.288.964.55.173.397.656.588.414.863-.241.276-.793.677-1.172.724-.362.046-.619.058-.793.057-.223 0-.31-.022-.31-.022l-.931.62c-.104.138.414.725.792.76.38.034 1.38-.242 1.932-.07.552.173 1.486.336 1.345.863-.138.517-1.582 1.563-1.793 1-.31-.828-.586-1.242-1.276-1.242-.518 0-.896.173-.552 1.173s.828 2.035.966 2.793.172.725.103 1.483m13.14-1.708c-.519-.257-.415-1.189-.57-1.706s.362-.673.724.362c.362 1.034.259 1.552-.155 1.344m-8.07 2.743c-1.099.201-2.172-.035-2.31-.552s.276-.414.482-.483c.207-.07.104-.587.207-.931.104-.345.414-.897 1.138-.966s1.035.38 1.518.862c.483.483 1.172.586 1.138.966s-.862.862-2.173 1.104" style="fill:#fff;fill-opacity:1;fill-rule:nonzero;stroke:none" transform="matrix(1.33333 0 0 -1.33333 -.667 1121.853)"></path><path d="m282.36 480.63 3.795-.309c.364-.041.464.077.417.415-.056.408-.134 1.062-.24 1.903-.775 6.157-2.806 22.38-3.307 26.389-.073.58-.242 1.267-.61 1.532-.234.168-.565.246-1.021.27-.62.035-.861-.116-1.052-.31-.232-.236-.24-.858-.208-1.35a43397 43397 0 0 0 1.849-28.03c.015-.26.137-.47.377-.51M274.415 482.164l-1.621 28.68c-.065 1.211.117 1.642 1.634 1.297 1.37-.311 1.613-.828 1.658-1.612l2.627-28.878c.017-.443-.034-.754-.914-.65s-1.992.19-2.535.237-.82.278-.849.926M265.743 483.102l-1.868 31.384c-.103.69.312.793 1.932.517 1.62-.275 1.898-.862 1.96-1.415l3.114-30.97c.099-.824-.246-1.065-1.108-.996l-1.337.106c-.427.034-.87.067-1.353.1-.866.06-1.301.305-1.34 1.274M254.23 517.104l1.268-33.344c.019-.776.274-.983.877-1.018.604-.035 3.104-.258 3.863-.31s.827.19.802.88l-2.847 32.897c-.024.45-.576 1.001-1.956 1.277s-2.03.167-2.007-.382M243.047 520.28l1.625-35.797c.057-.621.22-.81.806-.879s3.328-.241 4.035-.31c.706-.068.638.207.586.724l-2.707 35.296c-.086.725-.517 1.19-2.103 1.345s-2.277.224-2.242-.38M231.256 522.71l.136-36.657c.017-1.052.273-1.315 1.31-1.396.544-.043 4.159-.328 4.535-.363.741-.068.895.311.827 1.156l-2.564 36.483c-.022.416-.02.955-1.212 1.21a10 10 0 0 1-1.914.24c-.504.015-1.133-.173-1.118-.673M217.731 525.986l-.191-38.846c.03-1.052.178-1.26.833-1.311.655-.052 4.07-.345 4.759-.396.689-.053.793.327.736 1.29l-2.287 38.694c-.053.639-.104 1.053-1.14 1.243-1.033.189-2.712.619-2.71-.674M195.113 524.762l-1.317-38.174c-.024-.983.23-1.173.99-1.017.757.155 3.74.724 4.172.827s.655.483.65 1.275l-.828 37.915c.005.968-.805.864-2.03.588-1.223-.276-1.598-.5-1.637-1.414M182.806 484.553l1.686 35.795c.074.932 1.396 1 2.051 1.242.656.241 1.138.223 1.14-.622l.715-35.346c-.01-.983-.079-1.328-.751-1.448-.673-.121-3.62-.708-4.155-.811s-.699.104-.686 1.19M175.683 515.529l-1.473-32.538c-.032-1.087.108-1.421.781-1.266s3 .569 3.491.672.725.595.747 1.5l-.249 32.072c-.006 1.216-.387 1.698-1.635 1.241-1.06-.388-1.617-.699-1.662-1.681M167.765 511.3l-1.475-30.363c-.023-.519-.002-.958.424-.867.428.09 2.315.466 2.923.582s.84.336.845 1.034l.059 30.765c.002.75-.632.647-1.447.272s-1.274-.686-1.329-1.423M161.136 508.222l-1.656-28.501c-.07-.815.031-1.06.497-.97s2.496.492 3.013.607c.517.117.608.454.614 1.074l.125 28.527c-.001.725-.493.738-1.295.518s-1.25-.453-1.298-1.255M155.348 505.572l-1.982-27.12c-.069-.675-.01-1.02.365-.943s1.9.375 2.418.491c.518.117.57.479.596 1.138l1.052 26.963c.007.945-.187 1.126-.988.88-.802-.246-1.357-.465-1.46-1.41M149.59 502.52l-1.796-25.035c-.053-.877.079-1.088.44-1.024.363.065 1.332.26 1.889.375.556.117.686.389.728 1.1l1.174 25.242c.037.751-.156 1.036-.945.79s-1.415-.607-1.49-1.448M144.976 500.205l-1.963-23.381c-.088-1.1.036-1.37.411-1.306s.996.207 1.526.31.634.362.698 1.28l1.535 23.756c.069.763-.228.866-.978.57-.75-.298-1.189-.66-1.229-1.229M140.636 498.149l-1.96-22.645c-.054-.7.054-.904.39-.84.337.065 1.229.246 1.565.31.336.066.517.337.575.894l1.495 22.94c.064.84-.195.84-.919.53s-1.088-.607-1.146-1.19M134.73 474.74l2.02 21.781c.036.52.376.912.997 1.153.62.242.828.19.773-.584l-1.57-22.039c-.056-.645-.29-.826-.677-.917-.388-.09-.75-.155-1.19-.233-.44-.077-.422.112-.354.839M133.135 495.045l-1.935-21.053c-.055-.568.016-.867.275-.815s.776.156 1.087.22.375.271.415.881l1.61 21.142c.057.62-.099.724-.526.569-.426-.155-.855-.452-.926-.944" style="fill:#231f20;fill-opacity:1;fill-rule:nonzero;stroke:none" transform="matrix(1.33333 0 0 -1.33333 -.667 1121.853)"></path><path d="m130.119 493.557-2.253-20.315c-.066-.595-.076-.815.26-.75s.569.116.88.18c.31.065.388.466.426.803l1.878 20.47c.1.725-.132.725-.533.556s-.593-.402-.658-.944M203.493 482.314c-3.065-.404-12.313-1.454-18.932-2.296-8.346-1.062-14.415-1.937-17.52-2.25-3.103-.312-3.724-1.687-3.93-1.25-.207.438.414 1.438 1.793 1.625l39.167 6.37c.611.146.87-.182.715-.933-.155-.75-.509-1.162-1.293-1.266M207.76 482.465c1.497-.15 3.869-.26 7.51-.58 8.2-.717 44.933-3.297 52.373-4.062 4.22-.434 10.948-1.007 15.98-1.421 1.44-.119 5.01-.4 5.457-.443 1.041-.098 1.095-.038 1.104.636.007.676-.196 1.015-1.08 1.078l-81.255 6.602c-.584.056-.745-.448-.908-1.037-.162-.59-.11-.68.82-.773" style="fill:#706e6e;fill-opacity:1;fill-rule:nonzero;stroke:none" transform="matrix(1.33333 0 0 -1.33333 -.667 1121.853)"></path><path d="M125.039 465.109c-2.94-.024-6.892-.213-8.414-.213-2.207 0-4 .966-4 2.897 0 1.932 1.241 3.173 2.896 3.173 0 0 .138.552.69.552s-.003-1.46-.551-1.518c-1.31-.137-1.794-.965-1.794-1.931s-.137-1.862 2.621-1.862c2.76 0 6.484.138 8.69.138.966 0 .551-1.23-.138-1.236M128.074 465.209c1.931 0 14.07-.244 14.07-.244 2.207-.161 1.31.812.345 1.299s-3.104.08-8.07.08c-2.604 0-4.45-.096-5.934-.087-.894.006-1.031-1.048-.411-1.048" style="fill:#c1c0c0;fill-opacity:1;fill-rule:nonzero;stroke:none" transform="matrix(1.33333 0 0 -1.33333 -.667 1121.853)"></path><path d="M118.763 469.725c-.617.924-1.172.69-.897-.69.277-1.38.966-1.656 2.415-1.586 1.448.068.827.483.552.966-.276.482-.898.482-1.242.482-.345 0-.552.414-.828.828" style="fill:#c1c0c0;fill-opacity:1;fill-rule:nonzero;stroke:none" transform="matrix(1.33333 0 0 -1.33333 -.667 1121.853)"></path><path d="M147.386 467.655c1.791-.112 2.414-.068 2.62.552.207.62.414 1.24 1.173 1.585.759.346 1.517.966.207 1.242-1.31.277-1.863.001-2.69-.55-.827-.553-1.793-.829-2-1.449s-.413-1.31.69-1.38M153.869 466.275h5.794c1.171 0 1.171.552 1.654 1.036.483.482.276 1.379-.413 1.379s-2.552 0-3.311.207c-.759.206-2.345-.07-2.897-.62-.551-.553-2.207-2.002-.827-2.002M166.077 471.38c.793.475.068 1.242-2.897 1.172-2.966-.07-5.793-.552-5.035-.966.759-.413 1.38 0 2.759 0s2.69-.552 3.586-.62c.897-.069 1.241.207 1.587.413M166.766 466.62c1.104 0 2.276-1.447 3.31-.689s3.242.828 3.795.828c.55 0 2.344.068 2.964.69.622.62 1.38.689 2.208.689s1.103.139.482 1.31c-.62 1.173-1.586 1.655-2.482 1.173-.897-.483-1.862-.414-2.277.138-.413.552-1.31.62-3.034.482-1.724-.137-2.759-.412-3.38-1.378-.62-.966-1.102-1.518-1.724-1.863-.62-.345-1.24-1.38.138-1.38" style="fill:#231f20;fill-opacity:1;fill-rule:nonzero;stroke:none" transform="matrix(1.33333 0 0 -1.33333 -.667 1121.853)" data-source="https://football-logos.cc"></path><path d="M148.972 464.345c2.281-.143 3.104-.07 2.552.482s-1.315.435-2.207.345c-1.38-.137-2.552-.69-.345-.827M154.145 463.93c1.792.086 4.345-.138 5.31-.138.966 0 .208-.827-.896-.896-1.104-.068-2.828-.068-3.863.138-1.034.208-2 .828-.551.897M162.214 464c.896 0 2.345-.07 3.035 0s.62.621-.275.896c-.898.276-1.725.139-2.69-.069-.967-.207-1.38-.827-.07-.827M167.731 463.724c.83-.049 3.036 0 4.07.069 1.035.07.276-.897-.207-1.035s-1.93-.344-2.896-.137c-.967.207-2.139 1.172-.967 1.103M173.664 464.07c1.034 0 1.93.483 1.378.62-.551.137-1.517-.069-2.068-.207s-.07-.414.69-.414M178.215 463.93c1.515-.071 4.897 0 5.863.07.965.07.482-.552-.207-.552-.69 0-1.517-.345-2.621-.345s-1.586-.76-2.621-.345c-1.034.414-1.862 1.241-.414 1.173" style="fill:#c1c0c0;fill-opacity:1;fill-rule:nonzero;stroke:none" transform="matrix(1.33333 0 0 -1.33333 -.667 1121.853)"></path><path d="M193.389 462.896c.964-.052 4.414-.137 5.31-.068.897.068.828.758.207 1.31-.62.552-1.93 1.448-2.552 1.793-.62.344-1.792.344-2.62-.552s-2.897-2.345-.345-2.483" style="fill:#231f20;fill-opacity:1;fill-rule:nonzero;stroke:none" transform="matrix(1.33333 0 0 -1.33333 -.667 1121.853)"></path><path d="M187.32 465.035c1.02-.17 1.792-.552 1.862-1.31.069-.76.551-2.277 2-2.484s1.379-1.724.069-1.31-1.586 1.034-2.277 2.207c-.689 1.172-1.172 1.034-1.724 1.517s-1.172 1.586.07 1.38M199.458 461.241c1.107-.1 2.483.897 3.104 1.724.62.827 1.793.827 2.896.827 1.104 0 1.725-.964.138-.964-1.586 0-2.137-.414-2.897-1.38-.758-.966-1.793-1.586-2.827-1.517s-1.172 1.38-.414 1.31M209.252 462.828c1.265-.37 3.518-.346 4.345-.139.828.207 1.24 1.104-.07.966s-2.758-.069-3.793.07c-1.034.137-2.137-.414-.482-.897" style="fill:#c1c0c0;fill-opacity:1;fill-rule:nonzero;stroke:none" transform="matrix(1.33333 0 0 -1.33333 -.667 1121.853)"></path><path d="M210.286 464.827c1.173 0 1.725 1.173 2.897 1.173s1.724.207 1.724.827c0 .622-.69 1.173-1.38 1.794-.69.62-1.379.482-2.068-.483s-1.173-1.862-1.725-2c-.551-.138-.758-1.31.552-1.31M217.321 466.275c.882-.16 1.724 0 1.724.76 0 .758-.758.62-1.378 1.241-.622.621-1.312-.208-1.312-.76 0-.55.208-1.103.966-1.24" style="fill:#231f20;fill-opacity:1;fill-rule:nonzero;stroke:none" transform="matrix(1.33333 0 0 -1.33333 -.667 1121.853)"></path><path d="M204.01 465.24c.975 0 1.725.966 1.517 1.449-.206.484-.552.828-1.31 0-.759-.828-1.38-.62-1.38-.896 0-.275.483-.552 1.173-.552M200.768 467.655c.917-.367 1.518-.344 1.518 0 0 .345-.69.552-1.31.828-.622.276-1.242-.414-.208-.828M205.251 470.94c0-.58.828-.871 2.276-.871 1.45 0 3.587 0 3.587.465 0 .464-.966.58-2.483.639-1.517.058-3.38.116-3.38-.233M207.39 468.759c-.57 0-.76-.69-.552-1.104.206-.414.759-.138 1.172.414.414.552 0 .69-.62.69M219.459 470.759c.426-.548 1.38-.69 2.345-.69s1.448.414 1.448.897c0 .482-.965.413-1.93.413-.966 0-2.345 0-1.863-.62M216.494 464.62c1.307.09 2.758.276 3.448.759.69.482 1.655.966 3.448 1.035 1.794.069 2.208-.69 3.38-1.173s1.931-1.586 1.035-1.31-2.207 1.172-4.345 1.104c-2.139-.07-2.415-.896-4.208-.966s-4.758.413-2.758.551M215.114 472.69c1-.1.827.276.69.69-.138.413-.276-.207-.897-.207-.62 0-.483-.414.207-.484M205.32 474.138c-.235-.704 1.311-.62 2.483-.62s1.242.414.828.69-1.034.344-1.862.344-1.31 0-1.448-.414M229.598 463.448c-.316-.42 2.414-.69 3.724-.552s2.345-.138 2.345.483c0 .62-1.449.345-2.965.345-1.517 0-2.897 0-3.104-.276" style="fill:#c1c0c0;fill-opacity:1;fill-rule:nonzero;stroke:none" transform="matrix(1.33333 0 0 -1.33333 -.667 1121.853)"></path><path d="M230.425 467.38c-.573-.861.69-1.31 2-1.242s2.415-.139 2.484.551-1.104.76-2 .76c-.897 0-2.07.551-2.484-.07" style="fill:#231f20;fill-opacity:1;fill-rule:nonzero;stroke:none" transform="matrix(1.33333 0 0 -1.33333 -.667 1121.853)"></path><path d="M238.081 464.345c-.375.535.207 1.723 1.655 1.862 1.449.138 46.072 0 48.21-.069 2.139-.07 2.345-.69.414-.827-1.93-.139-43.796-.138-46.14-.208-2.345-.068-2.622-.414-2.69-.896-.07-.483-.967-.552-1.449.138M291.67 478.76c0-.552.087-1.38.43-1.587.341-.207.598-1.24.684-3.586s.17-4.553.17-5.863.515-1.725.857-.207c.343 1.518.257 3.656.343 6.139.085 2.483-.771 2.896-1.113 3.38-.343.482-.257 1.585-.771 2.137s-.6.207-.6-.414M203.837 480.95c.518.137.695-.05.572-.414-.106-.317-.231-.7-.326-1.033-.07-.246-.418-.636-.919-.688a507 507 0 0 0-9.224-.883c-5.586-.483-9.724-1.104-10.76-1.38-1.034-.276-.138.483 4.966 1.448 5.105.966 11.519 2.001 13.45 2.415.965.207 1.724.397 2.24.534" style="fill:#c1c0c0;fill-opacity:1;fill-rule:nonzero;stroke:none" transform="matrix(1.33333 0 0 -1.33333 -.667 1121.853)"></path><path d="M202.488 477.285c.684.078.85-.123.763-.436-.051-.187-.115-.41-.188-.644-.048-.155-.427-.473-.981-.505-.872-.049-2.443-.173-4.762-.495-3.794-.526-8-1.051-11.174-1.249-3.172-.198-6.482-.724-8.62-.921-2.139-.198-1.931.33.413 1.053 2.345.723 5.587.723 9.035 1.117 3.449.395 5.242.658 10.276 1.381 2.798.403 4.382.601 5.238.699" style="fill:#706e6e;fill-opacity:1;fill-rule:nonzero;stroke:none" transform="matrix(1.33333 0 0 -1.33333 -.667 1121.853)"></path><path d="M207.48 480.804c-.498.1-.797-.096-.823-.458l-.056-.757c-.013-.163.313-.538.932-.62a108 108 0 0 1 7.099-.692c4.413-.277 8.966-.138 10.345-.207 1.379-.07 5.793-.759 9.173-.897s4.828.207 4.828.552-1.724.207-4.552.414-6 .413-8.69.896-6 .07-10.484.552c-3.302.355-6.38.935-7.772 1.217M241.254 477.863c.825-.075 1.655-.414 1.241-.62-.413-.208-1.103-.277-1.517-.139s-.483.828.276.759M206.286 477.173c-.31-.88-.466-.983 1.604-.983 2.069 0 8.742-.671 10.259-.81 1.517-.138 2.206-.69 7.518-.69 5.31 0 10 .414 11.448.414s2.966-1.379 3.863-1.379 2.965.068 4.345.068 2.897-.206 3.656 0c.758.208.482.483-.966.622-1.449.138-4.483.138-6.208.345-1.723.206-2.275.277-3.38.827-1.103.552-3.586.414-6.483.345s-8.551-.275-10.69.069c-2.137.345-4.62.621-8.552 1.034s-6.202.738-6.414.138M252.771 473.449c1.313 0 1.793.139 1.656.69-.138.55-.966.344-1.794.344-.827 0-1.379-1.034.138-1.034M257.806 474.139c-.248-.332.138-.346.966-.346s1.587.622.552.622-1.31 0-1.518-.276M288.242 488.207c-.57.519-.533-.328-.468-1.413.123-2.045.38-4.138.965-4.621.466-.382.449-1.24.449-1.758s.414-.69.759-.69c.344 0 .206.655.206 1.07 0 .747-.757 1.628-.93 2.172-.29.902-.449 2.345-.621 4.103-.064.653-.219 1.009-.36 1.137M286.658 496.573c.158-1.547.347-3.052.44-3.748.128-.963.35-1.544.663-1.64s.26.594.082 2.176-.36 3.268-.49 4.334-.492.367-.59.158c-.098-.21-.198-.385-.105-1.28M285.325 506.198c.022-1.14.318-3.098.384-3.821s.49-1.267.667-1.09c.178.174.185 1.174.132 2.553s-.206 3.997-.535 3.612c-.33-.386-.662-.564-.648-1.254M284.74 509.968c-.042.73-.033 1.552.33 1.69.362.137.428-.138.428-.587s.033-.965-.297-1.379-.429-.31-.462.276" style="fill:#c1c0c0;fill-opacity:1;fill-rule:nonzero;stroke:none" transform="matrix(1.33333 0 0 -1.33333 -.667 1121.853)"></path><path d="m204.614 529.96-.99-41.356c.03-1.346.257-1.603.955-1.68.358-.04 4.822-.377 5.198-.414.777-.077.983.414.946 1.45l-1.313 41.973c.006.52-.305 1.295-1.572 1.373s-3.19.361-3.224-1.346" style="fill:#231f20;fill-opacity:1;fill-rule:nonzero;stroke:none" transform="matrix(1.33333 0 0 -1.33333 -.667 1121.853)"></path><path d="M285.403 513.124c.142.895 1.216 1.24 1.733 1.732s.75 1.01.802 2.354-.104 2.716.388 2.354c.491-.362.62-.931.647-2.51.025-1.577-.363-2.637-.906-3.206a2.86 2.86 0 0 0-1.733-.88c-.569-.077-1.008-.336-.931.156M287.369 520.598c-.438.39-.802.673-.802.88s.646.388 1.086.595.57.517.88.75.724.206 1.086.103.284-.543-.621-.853-1.5-.44-1.5-.699.388-.465.672-.672-.077-.285-.31-.285-.258-.026-.491.181" style="fill:#c1c0c0;fill-opacity:1;fill-rule:nonzero;stroke:none" transform="matrix(1.33333 0 0 -1.33333 -.667 1121.853)"></path><path d="m127.427 492.422-2.494-19.864c-.064-.464-.027-.648.192-.61.22.04.583.104.841.156.26.051.298.207.365.71l2.03 19.762c.076.672-.042.737-.416.594-.375-.143-.453-.306-.518-.748" style="fill:#706e6e;fill-opacity:1;fill-rule:nonzero;stroke:none" transform="matrix(1.33333 0 0 -1.33333 -.667 1121.853)"></path><path d="M260.841 515.175c-.51.22-.551-1.723-.138-4 .414-2.276.62-5.586.759-9.38.138-3.793.483-5.172.828-5.172.344 0 .275 3.034.069 7.172a263 263 0 0 1-.621 9.174c-.138 1.586-.414 2-.897 2.206M252.22 512.693c.571-.667.413-1.38.483-7.932.069-6.552.414-15.104.62-17.794.208-2.69.138-3.449-.69-2.552-.827.897-1.171 4.759-1.586 11.173-.413 6.414-1.172 15.863-1.31 18.277-.137 2.414-.479 4.155.138 4 .552-.138.536-.76.62-3.104.139-3.862.484-7.24.69-9.93.208-2.69.345-.69.345 3.24 0 3.932-.137 5.587.69 4.622M238.909 521.866c-1.378.419-1.655-.552-1.587-2.345.07-1.793.898-2.276.828-.828-.069 1.45.62 1.724 1.173 1.724.552 0 .483-1.103.483-1.792s.896-.76.896.482-.207 2.275-1.793 2.759M238.702 513.175c-.607.19-.759-1.724-.552-6.138s1.173-8.276 1.31-3.931c.139 4.345.345 9.725-.758 10.07M240.771 509.244v-12.139c0-1.24-1.035-.345-1.035-4.276s.207-6.276.207-7.173c0-.896.414-1.723 1.724-1.793 1.312-.069 1.064.756 1.036 1.517-.07 1.794-.415.897-.415.276 0-.62-1.464-1.585-1.517 1.656-.07 4.207.414 4.759.828 5.862.413 1.104.69 2.345.551 9.173s.07 8.966-.827 9.518-.552-1.173-.552-2.62M224.77 504.554c.186-3.17.346-7.794.621-10.414.276-2.621 1.172-4.346 1.172-2.139s-.275 6.828-.345 10.001.07 4.345-.552 3.862c-.62-.482-.964-.137-.896-1.31M228.977 500.278c-.743 0-.482-1.793-.344-5.311s.068-7.449.068-8.138-.413-.759-1.31-.69-.965-.345-.965-.69 1.586-.345 2.413-.345c.828 0 .966.414.966 3.38s-.07 7.449-.07 9.518-.413 2.276-.758 2.276M223.528 523.797c.072-2.142.414-8.76.483-11.036s.69-1.103.966-.758.207 2.828.069 6.552-.553 6.138.827 5.932c1.38-.207 1.862-.897 1.862-2.759s.139-2.483.621-2.276c.483.207.76 2 .76 3.173 0 1.172-.277 2-2.622 2.758-1.957.633-3.034.483-2.966-1.586M215.804 524.97c-.074 3.171-.527 3.438-3.035 4.483-.828.344-1.035-.07-1.035-.828 0-.759.966-.897 1.725-.966.758-.069.69-2.138.758-6.828.07-4.69-.069-16.967-.137-21.863-.07-4.897-.69-5.173-.759-8.277s-.76-3.103-.76-3.794c0-.689.829-.689 2.07-.896 1.242-.207 1.104 1.104 1.104 3.656 0 5.931.138 32.346.069 35.312" style="fill:#c1c0c0;fill-opacity:1;fill-rule:nonzero;stroke:none" transform="matrix(1.33333 0 0 -1.33333 -.667 1121.853)"></path><path d="M212.562 522.693c-.626.18-.896.276-.896-7.172 0-7.45.068-11.312.068-13.105s.622-.759.966.207c.345.966.552 2.76.552 7.725s-.208 12.207-.69 12.345M201.803 527.935c-.823-.657-.965-2-.897-8.966.07-6.966-.138-9.518.621-8.967.759.553.896 3.036.966 8.553.068 5.518.344 10.208-.69 9.38M191.803 523.314c-.632-.499-1.794-1.38-1.794-3.655s.207-13.864.138-19.243c-.07-5.38.138-9.104.828-8.483s.758 2.758.758 5.38c0 2.62.62 5.93.552 10.552-.069 4.62.207 9.38.276 11.931.069 2.553.552 4.553-.758 3.518M181.388 517.176c-.436-.436-.414-4.138-.414-6.484 0-2.344.551-.827.69.966.137 1.794 0 4 .275 4.277.276.275.483.827.483 1.171 0 .346-.483.622-1.034.07M116.9 473.38c.449-.18.897.896.897 3.655s.207 4.207-.344 4.207c-.552 0-.828-.345-.898-3.31-.068-2.967.001-4.414.346-4.552M118.004 484.277c.36.502.897 1.449.897 3.655v6.39c0 .644-.316 1.19-.724 1.404-.74.384-1.783 1.034-1.828 1.655-.07.966.483 1.724 3.035 2.759s3.241 2.483 0 1.172c-3.242-1.31-4.075-2.352-4.208-3.448-.195-1.61.989-2.356 1.7-2.656a.815.815 0 0 0 .507-.78v-8.702c0-1.656.276-1.932.62-1.449" style="fill:#c1c0c0;fill-opacity:1;fill-rule:nonzero;stroke:none" transform="matrix(1.33333 0 0 -1.33333 -.667 1121.853)"></path><path d="m154.783 511.074-18.717-9.847c-.854-.466-.595.827.543 1.603s3.932 2.172 5.276 3.465c1.345 1.293 1.449 1.914 1.707 3 .26 1.087 0 1.346-.88 1.553-.878.207-.413 1.604.777 1.655 1.19.052 1.759.413 2.224 1.138s.778.904 2.017 1.035c.983.103 2.328 1.603 3.932 2.949 1.603 1.344 2.638 2.016 4.914 2.016s3-.259 5.276.932c2.276 1.19 3.983.93 1.035-.518s-6.828-3.673-10.242-5.534c-3.415-1.863-4.707-1.966-4.863-3.053-.155-1.086.259-1.603 1.5-1.396s1.914.31 3.518 1.034c1.603.725 3.967.917 1.983-.032M132.094 499.137l-9.294-4.888c-1.347-.678-2.118-.834-2.12-.162-.002.536.049 1.21.049 1.811 0 1.242.568 1.5 1.189 1.5s1.242-.207 1.294.621.828 1.345 2.017 2.38 2.535.672 3.052.207 1.293-1.294 2.023-.934c0 0 3.946.687 1.79-.535" style="fill:#231f20;fill-opacity:1;fill-rule:nonzero;stroke:none" transform="matrix(1.33333 0 0 -1.33333 -.667 1121.853)"></path><path d="M204.993 532.625c1.448.103 2.586.103 3.724 0 1.138-.104.828 0 .828.724s-.931.931-2.483.931-2.896-.983-2.845-1.397c.051-.413.051-.31.776-.258M123.108 501.795c1.446.627 3 1.19 4.76.828 1.758-.363 3.569-1.035 6.155.465s4.396 2.432 5.225 3.052c.827.62-.078.475-2.329-.672-2.638-1.345-4.463-2.147-7.293-1.656-2.38.415-3.569.26-5.276-.517-1.707-.775-2.793-2.172-1.242-1.5M140.23 509.555c-.676.856-1.035 2.586.104 3.103 1.138.517 2.43.983 3.31 1.914s2.276 1.966 3.311 2.328c1.034.362 3.103 1.965 4.241 2.845s1.81 2.482 4.087 2.38c2.276-.104 2.017.517.362.672s-3 .103-5.018-1.655c-2.018-1.76-2.586-2.329-4.242-3.053-1.655-.724-2.12-1.137-3.258-2.017s-2.38-1.19-3.208-1.655c-.827-.465-2.068-.828-1.913-2.845s1.242-2.897 2.017-3c.776-.104.983 0 .207.983" style="fill:#c1c0c0;fill-opacity:1;fill-rule:nonzero;stroke:none" transform="matrix(1.33333 0 0 -1.33333 -.667 1121.853)"></path><path d="M167.8 522.745a3432 3432 0 0 1 7.76 4.449c.982.569.88 1.81-.62 1.241-1.285-.487-3.59-1.845-5.655-2.972-.348-.19-1.785-1.514-2.053-1.89-.518-.724-.518-1.448.569-.828" style="fill:#706e6e;fill-opacity:1;fill-rule:nonzero;stroke:none" transform="matrix(1.33333 0 0 -1.33333 -.667 1121.853)"></path><path d="M159.06 521.762c.704.166 2.844 1.19 6 3.104 3.155 1.914 3.72 2.43 5.38 3.258 1.861.932 2.562 1.39 3.103 1.966.775.828 1.499 1.242 2.948 1.76 1.448.517 5.017 3 7.5 4.654 2.484 1.656 2.949 2.38 1.707 2.484-1.241.103-2.534-1.5-5.741-3.415-3.207-1.913-3.88-2.12-5.018-2.276-1.138-.154-1.655-.62-2.172-1.758-.4-.88-2.949-2.483-4.5-3.207-1.553-.725-3.156-1.242-5.121-2.845s-2.794-1.862-3.829-2.484c-1.034-.62-2.017-1.654-.258-1.24M194.7 537.485c2.107 1.182 3.937 2.139 5.017 2.744 4.241 2.38 4.707 3.155 3.62 3s-5.906-3.238-8.638-4.604c-.93-.465-1.034-.828-.88-1.138.156-.31.417-.262.881-.002" style="fill:#c1c0c0;fill-opacity:1;fill-rule:nonzero;stroke:none" transform="matrix(1.33333 0 0 -1.33333 -.667 1121.853)"></path><path d="M192.725 536.418c-5.984-3.212-13.24-7.097-14.113-7.57-1.914-1.034-.207 2.536 2.276 3.984s4.514 2.727 6.362 3.465c4.139 1.656 5.846 1.604 5.95 1.242.102-.362.809-.432-.475-1.121M157.662 512.658c1.346.738 2.483 1.19 3.88 1.966s1.81 1.758 2.638 2.172 1.448-.051 3.103.829c1.656.878 2.225 1.499 3.414 2.12 1.19.62 2.432.983 3.26 1.086s1.137.57 2.12 1.448c.983.88 1.242 1.449 3.26 2.38s2.689.517 4.034 1.19 1.086 1.603 2.431 2.224c1.344.62 2.845 1.5 4.293 2.07 1.449.568 1.759-.053 3.207.775 1.449.828 1.5 1.862 2.949 2.638s2.897 1.603 4.449 1.862c1.551.259 2.793.362 3.569 1.862s1.24 2.277-.311 2.121c-1.552-.155-2.586-1.138-3.828-1.862-1.24-.724-1.861-.776-2.897-1.19-1.034-.413-1.344-1.5-2.586-1.862-1.24-.362-2.379-1.19-3.569-1.862s-1.241-1.397-2.69-1.759-2.12-1.603-3.776-2.069-3.104-1.707-4.551-2.327c-1.449-.621-1.035-1.19-2.95-1.81-1.914-.622-3.103-1.605-4.5-2.225-1.396-.622-2.276-1.552-2.948-1.604s-1.707-1.293-2.69-1.396c-.983-.104-1.397-.622-2.327-1.397-.932-.776-1.397-1.293-2.432-1.449-1.034-.155-1.81.207-2.483-.62-.672-.828-.88-1.19-1.655-1.81-.776-.621-2.017-2.38-.414-1.501M200.182 530.504c1.047-.448 2.018-.207 1.294.724-.725.931-1.863 1.655-2.69 1.139-.828-.518-1.707-1.139-.414-1.139s1.086-.414 1.81-.724M188.492 525.383c.827.414 1.241-.517 2.276-.414s1.035 1.19-.052 1.862-2.43.26-2.793-.569c-.362-.827-.052-1.189.569-.879M179.285 521.193c.412-.032 1.034-.983 1.913-.362.88.62.673 1.294-.207 1.552-.88.259-3-1.086-1.706-1.19" style="fill:#231f20;fill-opacity:1;fill-rule:nonzero;stroke:none" transform="matrix(1.33333 0 0 -1.33333 -.667 1121.853)"></path><path d="M173.129 515.865c.133.634-.621 1.345-.621 1.966s-1.086.672-1.138-.362.827-.724.776-1.138c-.052-.414.775-1.449.983-.466M135.212 500.813c-.743-.435-2.017-1.19-2.275-.828-.26.362-.57.465.827 1.242 1.397.775 2.069-.052 1.448-.414" style="fill:#c1c0c0;fill-opacity:1;fill-rule:nonzero;stroke:none" transform="matrix(1.33333 0 0 -1.33333 -.667 1121.853)"></path><path d="M209.13 543.125c0-.932-.014-3.753.984-4.551 1.552-1.242 3.155-.931 4.862-.88s3.466-.051 4.759-.465 1.966-1.293 3.207-2.69c1.242-1.396 1.862-1.966 2.845-.932.983 1.036 2.638 1.242 4.5.57 1.863-.673 3.777-1.81 5.122-2.69s2.793-1.138 4.241-.88c1.449.26 2.742.156 3.725-.568a5.63 5.63 0 0 1 3.31-1.087c1.138 0 2.172-1.242 2.742-1.81.57-.57 2.224-.259 3.103-.259.88 0 3.518-.052 5.328-1.19s2.793-2.534 3.621-2.534.518.051-.724 1.707c-1.241 1.655-.983 1.655.414 1.655 1.396 0 3-.879 4.396-1.396 1.397-.518 2.07-.673 2.173-1.811s.88-1.5.984-.88c.103.621.465 1.294 6.466-.724 6-2.017 10.086-3.569 10.241-2.793s-.672 1.5-3.828 2.535c-3.155 1.034-12.621 4.345-15.88 5.483s-5.07 1.397-6.31 1.448c-1.242.052-1.76-.413-2.432.983-.673 1.397-2.069 1.5-3.414.931s-2.742-.93-4.138.207-3.052 1.19-4.19 1.242c-1.138.05-5.794 1.81-10.5 3.724-4.708 1.914-7.036 2.38-7.656 3.776s-1.242 2.379-1.914 2.379c-.673 0-1.707-1.655-2.69-1.965s-2.897.776-6.26 1.914-7.086 2.586-7.086 1.551M214.2 534.073c-.912.457-1.551.31-1.551-1.034s1.344-2.173 2.275-1.707 1.76 1.396 3.104 1.396 2.224-.207 1.552.724c-.673.932-1.914 1.19-2.896.724-.983-.465-1.966-.361-2.484-.103M225.529 529.935c-.114-.723.413-1.396 1.552-1.862 1.137-.466 3.155-.259 3.879 0s1.19.62 2.173.517c.982-.103 1.034.517-.518 1.345-1.551.828-1.93.552-2.69.931-.93.466-2.12-.414-2.74-.569-.622-.155-1.5.621-1.656-.362M238.357 526.159c.54-.638 1.449-.828 2.328-.414.88.414 2.069 1.345.88 1.241s-2.38-.103-3.104-.051c-.725.051-.673-.104-.104-.776M244.306 524.297c-1.036 0-2.12-.414-2.12-1.087 0-.672 1.189-.258 2.274-.258 1.087 0 2.846-.725 2.794 0-.051.724-.569 1.345-2.948 1.345M249.582 520.625c-.088-.876.672-2.122 1.138-.777s1.81 2.121 3.31 2.173 3.207-.466 3.156.258c-.052.724-1.759 1.656-3.156 1.604s-2.534-.104-3.31-.931-1.087-1.81-1.138-2.327M261.065 519.382c0-1.448 1.76-1.913 2.018-.88.259 1.036 1.086 1.243 2.224 1.243s1.448 1.086-.724 1.138c-2.173.051-3.518-.258-3.518-1.5M270.273 516.228c.107-1.342.673-1.45 1.552-.725.88.725 2.638.57 3.88.207 1.24-.362.775.155-.104 1.035-.88.88-1.862.93-3.207.88-1.346-.053-2.225-.104-2.121-1.397" style="fill:#231f20;fill-opacity:1;fill-rule:nonzero;stroke:none" transform="matrix(1.33333 0 0 -1.33333 -.667 1121.853)"></path><path d="M278.808 518.09c-.779-.079-1.19-.465-.88-1.5.311-1.035-.206-1.966.311-1.76.517.208.57.828.93 2.018.363 1.19.156 1.293-.36 1.241" style="fill:#c1c0c0;fill-opacity:1;fill-rule:nonzero;stroke:none" transform="matrix(1.33333 0 0 -1.33333 -.667 1121.853)"></path><path d="M206.234 550.264c-1.033.04-1.782-.273-3.776-1.552-2.741-1.759-9.776-6.104-11.638-7.242s-1.138-1.241-.31-1.19c.826.052 2.586.518 5.327 2.018s8.276 4.5 9 4.966c.725.465 1.397.88 3.829 0 2.431-.88 9.258-3.621 11.431-4.139 2.173-.517 2.328-.568 2.742-.31.413.259 1.5.931-1.966 2.276-3.465 1.346-13.294 5.121-14.64 5.173" style="fill:#231f20;fill-opacity:1;fill-rule:nonzero;stroke:none" transform="matrix(1.33333 0 0 -1.33333 -.667 1121.853)"></path><path d="M187.458 542.557c1.69.975 11.121 7.345 12.518 8.328 1.396.982 1.551 1.914 1.551 2.638s1.293 1.707 2.845 2.535c1.552.827 2.07 1.137 2.897.93.828-.206.31.518-.362.88-.673.362-2.276.724-4.449-.931s-2.535-2.69-2.949-3.828-2.172-2.535-6.362-5.224-5.535-3.467-6.88-4.397-.155-1.707 1.19-.931" style="fill:#c1c0c0;fill-opacity:1;fill-rule:nonzero;stroke:none" transform="matrix(1.33333 0 0 -1.33333 -.667 1121.853)"></path><path d="M228.891 541.729c.502-.73 1.035-1.656 6.259-3.466s6.156-3 8.121-3.466c1.966-.465 3-.62 5.793-1.396s4.45-.776 3.984-.207-.724.931-5.639 2.69c-4.914 1.759-15.052 5.431-16.81 6.207-1.76.776-2.277.466-1.708-.362" style="fill:#231f20;fill-opacity:1;fill-rule:nonzero;stroke:none" transform="matrix(1.33333 0 0 -1.33333 -.667 1121.853)"></path><path d="M259.617 531.694c-.987.438-1.345-.362-.88-.88.466-.517 1.656-.775 2.328-.517.673.26-.051.776-1.448 1.397M270.376 528.124c-.959.28-1.914-.62-.517-1.24 1.397-.622 1.914-.414 2.587-.104.672.31-.466.88-2.07 1.344" style="fill:#c1c0c0;fill-opacity:1;fill-rule:nonzero;stroke:none" transform="matrix(1.33333 0 0 -1.33333 -.667 1121.853)"></path><path d="M285.843 524.555c1.086-.362 2.224.104 2.12.62-.103.518-.62 2.535-3.414 2.743-2.792.206-4.5.258-6.724 1.19-2.224.93-4.138 1.965-4.914 3.206-.776 1.242.517 2.794-1.5 2.845s-3 .518-3.724 1.242-1.656.362-2.018-.776-2.172-1.293-2.327.155c-.156 1.449-.621 3.31-2.639 3.26-2.017-.052-3.103.103-3.88 1.396-.775 1.293-1.758 2.276-3.155 2.224s-2.328.362-2.741 2.328-1.087 3.103-3.363 2.741-4.758-.155-7.138 0c-2.38.156-3.62 0-4.397-.31-.776-.31-2.38-1.19-2.43 1.035-.053 2.224-.26 3-2.121 3-1.862 0-3.156-.466-3.156-1.19s-.88-.724-1.5-.724c-.621 0-1.345-.621-1.345-1.293 0-.673-1.5-.362-2.328.414s-1.397 1.138-2.43 1.138c-1.035 0-1.346-.828-4.864.516-3.517 1.346-6.776 2.329-7.086 2.019-.31-.312 3.104-1.45 7.449-3.001 4.345-1.552 9.104-3.208 11.224-4.035s2.07.414 9.777-2.534a1125 1125 0 0 1 16.294-6.104c3.26-1.19 3.26-2.173 5.741-2.639 2.484-.465 3.621-.982 4.76-1.603 1.137-.621 3.207-.672 5.431-1.5s4.656-1.759 7.863-2.948 6.672-2.794 8.535-3.415" style="fill:#231f20;fill-opacity:1;fill-rule:nonzero;stroke:none" transform="matrix(1.33333 0 0 -1.33333 -.667 1121.853)"></path><path d="M274.152 536.97c.88 0 1.45-.827 1.552-1.397.104-.569.052-1.293.207-2.327s.983-2.276 2.794-2.639c1.81-.361 3.276.444 2.069.673-1.914.362-2.794.776-3.105 1.863s.57 2.12-.05 2.896c-.621.776-1.139 1.5-2.328 1.552-1.19.052-1.915-.621-1.139-.621M271.308 536.918c-1.242-.038-2.846.621-3.414 1.138-.57.518-1.19.777-1.966.777-.777 0-1.552.516-1.862 1.189-.311.672-.052.983.724.362.775-.62 2.328.052 3.517-.827 1.19-.88 1.759-1.656 3-1.656s1.708-.931 0-.983M283.464 530.4c1.86-.143 3.155-.465 4.241-1.344 1.087-.88 1.914-1.346 2.276-2.69.362-1.345.673-1.19 1.138-.673.465.518.465 2.225-1.086 3.466s-3.052 2.017-5.431 2.328-2.742-.155-2.432-.673c.311-.517.621-.362 1.294-.413M260.858 541.16c-1.296.05-2.689.62-3.62 1.862-.932 1.242-2.018 1.5-2.897 1.655-.88.156-1.397.88-1.966 2.638-.57 1.76-1.552 2.122-3.724 2.122s-5.639-.208-8.173.05c-2.535.26-3.363.777-1.862.932s8.224.466 10.5.363c2.277-.104 3.156.724 4.656-1.76s1.603-3.362 3.362-3.982c1.76-.622 1.552-1.242 2.38-1.914.827-.673 1.5-1.138 2.38-1.242.878-.103.31-.776-1.036-.724M236.495 552.334c-.43 1.002-2.017 1.448-3.724 1.396s-2.535 1.138-.259 1.138 3.93.362 4.914-.57c.983-.93 1.552-2.223.828-2.223s-1.293-.828-1.759.258M228.425 553.11c-.944-.774-1.24-1.346-2.069-1.449-.827-.104-1.189-.57-1.758-.724-.57-.155-1.035.93-.052 1.189.983.26 1.086 1.138 1.966 1.293s1.19 1.293 2.12 1.397c.931.103 1.656.31 1.345-.414s-.983-.828-1.552-1.293M209.907 555.85c1.186.14 3.156.415 4.397-.413s1.603-1.5 2.793-2.173 2.276-1.293 3.207-1.293 1.81.776.207 1.241c-1.604.466-3.776 1.397-4.396 2.07s-1.708 2.172-3.932 2.224-4.035-1.862-2.276-1.655" style="fill:#c1c0c0;fill-opacity:1;fill-rule:nonzero;stroke:none" transform="matrix(1.33333 0 0 -1.33333 -.667 1121.853)" data-source="https://football-logos.cc"></path><!-- source: https://football-logos.cc --></svg>