<svg xmlns="http://www.w3.org/2000/svg" viewBox="0.06 -0.02 511.55 566.93"><!-- Source: https://football-logos.cc --><defs data-source="https://football-logos.cc"><clipPath id="a"><path d="M0 444h511.602v123H0Zm0 0"></path></clipPath></defs><path d="M120.066 153.238c7.079-1.984 23.145-2.43 35.618-.203 14.285 2.55 18.504 7.887 31.379 7.184 5.277-.29 8.62-2.192 10.914-8.102.898-2.308 1.535-5.097 2.414-9.012 5.261-.14 10.949-.175 16.21-.32-5.867-3.918-10.687-5.781-16.601-8.629-4.25-2.043-9.918-5.629-13.96-6.87-6.263-1.923-12.653-2.376-19.075-1.77-7.121.671-13.383 3.28-16.39 9.59 5.476 0 11.413.32 17.171 1.171-.426 3.203-2.453 4.907-5.437 6.403-5.172-3.582-10.442-4.633-16.524-4.473-6.078.16-12.012.36-16.797 1.512-4.675 1.125-8.082 4.8-8.922 13.52m136.122 83.813c7.746 5.695 20.519 10.855 32.87 12.664 8.407 1.23 17.012.812 22.512-1.746 12.621-5.875 14.59-15.34 17.64-24.973 2.173-6.86 4.208-12.605 10.18-17.039 6.305-4.684 14.274-5.465 21.493-4.516 31.43 4.145 35.043 30.164 41.328 48.692 3.617 10.66 12.2 18.097 20.027 20.125-6.836-7.926-2.308-29.418-12.484-50.117-13.18-26.813-44.645-34.63-61.305-34.641-8.504-.008-27.105 3.445-32.265 20.207-1.442 4.691-1.434 9.941-1.184 15.098.25 5.156.227 9.566-1.387 13.496-2.508 6.113-10.164 9.144-20.34 8.117-5.867-4.32-6.398-12.75-4.8-19.844-5.758-1.066-11.094-3.465-17.282-6.238-4.906 2.027-9.546 2.879-13.597 3.2l-.16 2.839-1.243.02-1.242-.02-.156-2.84c-4.055-.32-8.695-1.172-13.602-3.2-6.187 2.774-11.523 5.173-17.28 6.24 1.6 7.093 1.066 15.523-4.802 19.843-10.172 1.027-17.832-2.004-20.34-8.117-1.613-3.93-1.636-8.34-1.386-13.496s.262-10.407-1.184-15.098c-5.16-16.762-23.762-20.215-32.265-20.207-16.657.012-48.121 7.828-61.305 34.64-10.176 20.7-5.649 42.192-12.484 50.118 7.828-2.028 16.41-9.465 20.027-20.125 6.285-18.528 9.902-44.547 41.332-48.692 9.621-1.27 20.578.543 27.152 10.579 3.957 6.039 4.73 13.433 7.29 20.054 2.257 5.844 5.96 11.461 15.827 16.051 13.582 6.324 41.329-1.527 54.415-11.074m34.847-35.438c-1.25 5.578-2.473 11.239-2.723 16.961-5.437-1.164-11.039-3.777-16.48-6.238-6.078 2.078-9.758 3.094-14.078 3.52.797-6.403 2.078-12.16 3.52-18.243 6.066-.152 10.081-2.308 14.238-3.68 4.64 2.442 7.843 4.86 15.523 7.68m-69.844 0c1.246 5.578 2.473 11.239 2.72 16.961 5.44-1.164 11.038-3.777 16.48-6.238 6.082 2.078 9.761 3.094 14.082 3.52-.801-6.403-2.082-12.16-3.524-18.243-6.066-.152-10.082-2.308-14.238-3.68-4.64 2.442-7.84 4.86-15.52 7.68m77.844-20c-3.043 4-5.281 8.856-7.043 15.84-4.531-1.808-10.238-5.062-15.199-8.16-4.469 1.394-8.031 3.16-14.242 3.68a97.4 97.4 0 0 1 6.562-18.72c5.867-.132 11.735-.667 17.602-2.081 4.957 4.055 8.64 7.148 12.32 9.441m-85.848 0c3.043 4 5.282 8.856 7.043 15.84 4.532-1.808 10.239-5.062 15.2-8.16 4.468 1.394 8.03 3.16 14.242 3.68a97.4 97.4 0 0 0-6.563-18.72c-5.867-.132-11.734-.667-17.597-2.081-4.961 4.055-8.64 7.148-12.324 9.441m94.97-35.039c1.429 8.442 4.995 13.04 7.347 14.645 2.781 4.613 1.625 8.695-2.23 13.836q-6 1.436-12 2.879-6.64-4.002-12.641-10.559c-6.88 1.2-12.211 2.371-16.961 2.719 3.933-8.133 10.734-16.242 20.16-24.32 5.55 1.015 10.777 1.496 16.324.8m-104.087 0c-1.433 8.442-5 13.04-7.351 14.645-2.781 4.613-1.625 8.695 2.23 13.836q6 1.436 12 2.879 6.64-4.002 12.64-10.559c6.88 1.2 12.216 2.371 16.962 2.719-3.934-8.133-10.735-16.242-20.16-24.32-5.547 1.015-10.774 1.496-16.32.8m188.086 6.664c-7.078-1.984-23.144-2.43-35.617-.203-14.281 2.55-18.504 7.887-31.379 7.184-5.277-.29-8.62-2.192-10.914-8.102-.898-2.308-1.535-5.097-2.41-9.012-5.262-.14-10.953-.175-16.215-.32 5.871-3.918 10.688-5.781 16.602-8.629 4.25-2.043 9.922-5.629 13.964-6.87 6.262-1.923 12.649-2.376 19.07-1.77 7.122.671 13.384 3.28 16.391 9.59-5.472 0-11.41.32-17.171 1.171.425 3.203 2.453 4.907 5.441 6.403 5.172-3.582 10.437-4.633 16.52-4.473 6.082.16 12.011.36 16.796 1.512 4.676 1.125 8.082 4.8 8.922 13.52m0 0" style="stroke:none;fill-rule:evenodd;fill:#25572b;fill-opacity:1"></path><path d="M256.871 243.855c-12.629 7.735-28.07 11.415-40.055 11.543-11.257.122-23.402-2.37-29.707-11.062-.754 8.617-3.726 20.226-7.172 25.414-2.464 3.715-6.703 7.258-8.988 8.508 2.121 20.996-6.441 39.222-27.844 43.203-3.945 5.547-10.187 9.652-18.398 12.64-2.082 3.094-3.996 4.5-6.234 5.997-.32 4.925-.446 13.449-1.118 21.836-.894 11.132-3.214 23.707-14.73 27.687.184 10.715-.23 21.832-.48 31.684 5-.2 8.44-6.84 9.601-23.684 1.707-1.812 3.36-1.918 4.48-1.117-.214 4.16-.43 11.039-1.761 15.68 7.05-.75 10.433-6.48 11.34-17.59.386-4.688.27-10.735.34-17.293l3.84-1.438c.214 8.051.75 20.266-1.118 26.078 7.836-.898 13.363-6.933 13.258-12.964l-.137-7.676 1.918-.801c1.387 1.07 2.614 3.254 4 4.32l3.2-.476c-11.09-11.531-3.692-22.98 1.937-26.989 7.082-5.039 16.348-7.613 26.172-2.418 3.316 1.754 7.351 4.622 9.492 9.723l3.68-1.758c-2.563-5.941-8.422-11.183-20.801-14.562-.04-11.672 4.75-16.172 10.351-17.188 5.047-.914 11.633 1.137 15.516 4.532 4.078 3.562 5.848 9.363 5.977 14.738.078 3.285-.47 7.383-.813 11.605-.363 4.496-.558 9.13-1.71 13.067-2.095 7.172-8.044 12.148-11.079 13.648.375-5.262-1.414-6.183-1.84-10.16-2.101 3.863-5.578 4.211-7.98 6.016-1.176.882-1.805 1.496-2.512 4.125-.098.375-1.601.73-2.07.097-2.824-6.039-6.531-4.77-8.88-9.039.27 4.328-3.745 6.352-.773 9.422.215.223-1.757 1.41-2.027.899-4.879-3.18-7.52-1.223-12-3.918 2.484 5.332 1.742 6.836 7.445 10.414 8.016.722 12.301 7.21 20.559 9.824 19.613-4.664 31.16-13.89 43.52-44.8 6.636 4.417 8.656 10.671 6.953 17.058-3.254 12.203-17.914 26.398-28.555 34.625 3.95 1.23 7.672 2.511 11.207 3.847 3.102-2.28 5.668-4.59 7.328-6.734l2.953.144c-1.496 2.786-4 5.458-6.886 7.91 3.468 1.391 6.75 2.833 9.878 4.333 3.86-4.262 6.985-8.614 8.622-12.485l2.84.149c-1.72 5-4.891 9.676-8.372 13.863a145 145 0 0 1 8.657 4.777c3.48-4.62 6.218-9.609 8.324-15.097l3.031.148c-2.39 7.3-4.89 12.356-8.035 16.992 5.363 3.399 10.336 7.043 15.176 10.953a124 124 0 0 1 15.23-11.07c-3.93-6.12-6.992-12.18-8.988-21.57l2.879.078c2.152 6.953 5.363 13.398 9.61 19.402 2.839-1.64 5.812-3.222 8.944-4.761-4.824-5.2-8.132-11.188-8.945-14.641h2.82c2.375 5.555 4.903 8.703 9.082 13.227a197 197 0 0 1 9.598-4.172c-2.844-2.575-4.902-5.149-5.762-7.036l2.844-.386c1.817 2.656 3.89 4.469 6.125 6.156a270 270 0 0 1 11.125-4.027c-7.52-6.09-23.46-20.39-27.473-31.559-2.574-7.156-.89-14.91 6.032-19.965 7.558 16.887 14.238 27.461 21.722 34.016 4.954 4.344 10.07 7.043 17.012 9.324l-3.746 6.399c-2.473 4.218 4.566 7.972 7.406 2.984l4.137-7.262c2.457.04 4.543-.199 6.293-1.16 3.219-1.766 2.832-3.914 4.523-6.293 1.914-2.7 4.153-3.004 6.848-8.086-5.828-.691-11.652-4.746-19.402-7.36l-2.72 4.419c-13.956-1.664-17.62-5.778-19.702-17.02-1.375-7.437-2.797-16.199-1.543-25.5 1.219-9.062 7.195-14.472 15.691-15.101 3.41-.25 6.403.086 9.23 2.187 2.618 1.945 4.91 5 5.989 8.211 1.563 4.645 1.86 12.024 2.656 20.23 1.684 1.434 3.852 2.223 5.535 3.657 7.543-13.051 14.598-26.406 22.137-39.457-1.176-1.586-2.07-3.551-3.168-5.778-21.539-5.293-28.719-23.707-26.437-41.597-10.29-7.114-14.34-19.656-16.149-32.797-7.683 7.406-18.148 10.273-28.418 10.105-12.39-.207-25.719-4.59-40.535-12.047m0 0" style="stroke:none;fill-rule:evenodd;fill:#25572b;fill-opacity:1"></path><path d="M95.266 272.656c-1.657 8.91-3.309 18.137-4.961 27.043 1.914 1.922 4.05 3.094 6.879 4.48.433 9.216.382 20.036.015 28.93-.324 7.852-.808 12.82-2.414 20.993 9.695-4.668 13.031-15.454 13.344-32.942.058-3.351.621-7.484.418-10.742 1.492-.586 3.305-1.492 4.797-2.078-.426 9.547.75 19.094-1.278 28.64a20.5 20.5 0 0 0 5.875-4.02c5.914-5.804 6.243-14.144 6.407-25.17.21-14.188-1.192-25.935-.602-48.333 2.613-1.227 4.348-4.7 6.32-3.277-1.226 5.52-1.523 10.37-1.039 16.316 8.371-4.156 11.641-11.445 12.918-19.207.2-1.223.797-1.68 1.703-2.094.801-.367 1.86-.746 2.883-.941.23 2.277-.273 3.34-.258 4.965.04 3.847 1.067 7.648 2.274 10.68 3.176-1.004 5.308-2.844 6.793-4.883 2.363-3.25 3.558-6.762 4.2-11.082.562-3.817 1.003-7.262 2.058-11.61 1.336-.16 3.285-.113 4.62-.273-.425 5.304-.253 14.07.88 22.441.52 3.832 1.449 7.738 2.41 11.082 3.086-.719 5.887-4.558 7.84-9.922 2.28-6.273 3.547-15.004 4.96-24.515-5.331-11.055-5.738-20.008-10.632-24.89-5.184-5.173-14.074-6.227-19.586-5.474-6.848.938-17.93 5.399-25.153 17.25-4.382 7.188-6.59 17.457-9.945 26.02-2.61 6.664-6.297 12.043-9.793 15.773-3.93 4.188-7.863 6.336-11.933 6.84m0 0" style="stroke:none;fill-rule:evenodd;fill:#25572b;fill-opacity:1"></path><path d="M129.113 277.484c.555 8.282.91 16.762 1.024 24.637.125 8.652-.094 16.602-1.957 23.414 3.882-1.2 10.765-6.492 13.187-13.238 3.457-9.64 2.547-21.09 3.254-43.582-.355-.668-1.246-2.61-1.605-3.95-2.336 5.18-8.73 10.31-13.903 12.72M149.566 270.055c-1.203 15.168 1.739 31.742-3.609 45.308 8.945-3.851 13.988-9.402 16.64-16.883 1.426-4.011 2.395-9.46 2.493-14.335.152-7.614-2.496-15.043-3.758-24.063-2.535 6.645-7.16 8.461-11.766 9.973M112.594 342.691c-1.067 11.551-.887 23.145-3.313 31.153-1.656 5.476-4.707 9.21-10.043 11.09 2.059-7.329 1.7-18.91.832-28.133 5.68-2.395 9.965-7.266 12.524-14.11M417.648 272.656c1.653 8.91 3.305 18.137 4.961 27.043-1.918 1.922-4.05 3.094-6.882 4.48-.43 9.216-.383 20.036-.016 28.93.324 7.852.812 12.82 2.418 20.993-9.7-4.668-13.035-15.454-13.344-32.942-.058-3.351-.62-7.484-.418-10.742-1.492-.586-3.308-1.492-4.8-2.078.425 9.547-.747 19.094 1.28 28.64a20.5 20.5 0 0 1-5.878-4.02c-5.914-5.804-6.242-14.144-6.403-25.17-.21-14.188 1.192-25.935.602-48.333-2.613-1.227-4.348-4.7-6.32-3.277 1.226 5.52 1.52 10.37 1.039 16.316-8.375-4.156-11.645-11.445-12.918-19.207-.2-1.223-.797-1.68-1.703-2.094-.801-.367-1.86-.746-2.887-.941-.227 2.277.273 3.34.258 4.965-.035 3.847-1.063 7.648-2.27 10.68-3.176-1.004-5.312-2.844-6.793-4.883-2.367-3.25-3.558-6.762-4.199-11.082-.562-3.817-1.008-7.262-2.062-11.61-1.333-.16-3.286-.113-4.618-.273.422 5.304.25 14.07-.882 22.441-.52 3.832-1.45 7.738-2.407 11.082-3.086-.719-5.89-4.558-7.84-9.922-2.28-6.273-3.546-15.004-4.96-24.515 5.328-11.055 5.738-20.008 10.628-24.89 5.184-5.173 14.075-6.227 19.586-5.474 6.848.938 17.934 5.399 25.157 17.25 4.378 7.188 6.586 17.457 9.945 26.02 2.61 6.664 6.293 12.043 9.793 15.773 3.93 4.188 7.86 6.336 11.933 6.84m0 0" style="stroke:none;fill-rule:evenodd;fill:#25572b;fill-opacity:1"></path><path d="M383.797 277.484a478 478 0 0 0-1.024 24.637c-.066 4.598.133 8.16.457 12.293l-7.19 5.04c-1.958-2.083-3.509-4.419-4.493-7.157-3.457-9.64-2.55-21.09-3.258-43.582.36-.668.914-2.442 1.274-3.781 3.007 4.843 9.066 10.14 14.234 12.55M363.344 270.055c1.203 15.168-1.739 31.742 3.61 45.308-8.942-3.851-13.985-9.402-16.642-16.883-1.421-4.011-2.39-9.46-2.488-14.335-.156-7.614 2.496-15.043 3.758-24.063 2.531 6.645 7.156 8.461 11.762 9.973m0 0" style="stroke:none;fill-rule:evenodd;fill:#235728;fill-opacity:1"></path><path d="M400.316 342.691c1.07 11.551.887 23.145 3.313 31.153 1.66 5.476 4.707 9.21 10.047 11.09-2.063-7.329-1.7-18.91-.836-28.133-5.676-2.395-9.961-7.266-12.524-14.11m0 0" style="stroke:none;fill-rule:evenodd;fill:#25572b;fill-opacity:1"></path><path d="m384.398 376.023 2.243.016.296 21.738c.094 6.961 4.5 13.043 12.833 15.48l-.223-2.796 2.726.348c3.27 5.535 6.696 9.632 9.961 15.171-.28-11.582-1.043-22.203-1.324-33.785-8.203-3.851-12.37-10.226-14.43-21.218-1.457-7.77-1.671-18.297-2.503-31.422-4.364-2.754-7.047-5.188-7.997-8.364-1.699-.148-3.402-.406-5.105-1.41l-27.84 50.719c-5.937-4.219-14.363-6.992-16.832-6.809-2.781.204-4.734 2.38-6.367 6.493 3.406.171 6.203-.036 8.75.859 6.91 2.422 13.418 5.703 19.586 8.648 1.394.668 1.918 1.735 3.183 2.653 3.47-5.496 5.973-9.707 7.04-15.203l2.242-.32c.21 4.59.523 9.812.48 14.402-.062 6.195 4.957 10.933 13.281 10.718Zm0 0" style="stroke:none;fill-rule:evenodd;fill:#25572b;fill-opacity:1"></path><path d="m246.672 352.195 3.457-6.851 2.918 5.687 3.504-6.629 3.726 7.086 2.809-6.191 3.605 6.894 3.79-7.515 4.933 9.762-2.734 2.078-2.364-4.098-3.574 6.289-3.441-5.781-2.875 5.207-3.883-6.57-3.543 6.37-2.844-5.222-3.43 6.066-3.671-6.75-2.14 4.426-2.93-2.07 4.87-9.461Zm-5.125-19 5.523-4.23 4.762 3.441 4.754-5.18 4.633 5.145 5.164-3.394 5.113 4.324 5.11-3.305 8.015 4.715-2.344 2.578-5.593-3.273-5.141 3.597-5.617-4.422-5.242 3.586-3.98-4.453-4.563 4.422-5.012-3.625-5.367 4.117-5.266-3.218-5.418 2.996-2.484-2.364 7.969-4.5Zm-10.61-13.101 3.91-4.668 5.602 3.715 4.938-4.508 5.676 4.191 5.23-5.11 5.633 4.923 5.246-3.825 5.117 4.153 5.422-3.375 4.305 4.48 5.046-2.691 4.903 5.844-2.555 2.144-3.164-3.773-4.887 2.605-4.18-4.347-5.144 3.203-4.973-4.035-5.324 3.882-5.316-4.648-5.059 4.941-5.754-4.25-4.832 4.414-5.285-3.504-3.617 4.032-5.488-2.18-2.864 3.652-2.625-2.058 4.793-5.711Zm-5.55-15.215 5.21-5.313 6.087 4.477 5.363-6.117 7.027 5.094 7.508-7.215 7.711 7.246 6.664-4.895 5.848 5.969 6.09-4.426 4.855 5.39 5.832-3.722 5.434 5.867-2.59 2.246-3.406-3.789-5.356 3.313-4.871-4.82-6.309 4.09-6.035-5.598-6.433 4.644-7.403-6.98-7.562 7.117-6.344-4.934-5.879 5.891-6.187-4.258-4.797 4.656-5.903-2.94-3.14 3.483-3-1.914 5.43-5.832Zm.246-16.406 5.054-5.313 5.66 4.652 5.684-5.988 6.723 5.696 7.828-8.051 7.867 8.027 6.422-5.719 5.692 6.317 6.238-4.977 4.762 5.781 6.164-3.984 4.687 7.723-3.062 1.945-3.043-4.676-5.735 3.137-3.937-4.629-6.418 4.594-5.625-5.664-6.668 5.097-7.113-7.27-7.825 7.349-6.82-5.196-5.531 5.672-5.895-4.82-4.199 4.867-5.8-2.797-2.794 4.176-3.015-2.016 4.304-6.918Zm9.867-16.754 7.805-7.227 6.164 6.153 7.09-7.625 7.203 7.882 5.941-6.379 7.79 7.102 7.737-5.406 6.555 7.133-2.617 2.507-4.809-5.004-7.308 5.497-7.149-6.551-6.16 6.234-7.355-7.586-7.102 7.328-6.11-6.175-7.144 6.812-7.187-5.437-4.848 5.039-2.648-2.77 6.906-7.058ZM175.27 316.34c19.304-3.574 21.402-20.5 21.597-33.121.09-5.637-4.77-8.274-8.363-8.114-3.582.16-4.781 3.239-4.754 5.391.215 19.48-2.828 26.457-8.48 35.844M337.453 316.34c-19.144-4.695-21.113-20.5-21.308-33.121-.09-5.637 4.77-8.274 8.363-8.114 3.582.16 4.781 3.239 4.758 5.391-.22 19.48 2.535 26.457 8.187 35.844m0 0" style="stroke:none;fill-rule:evenodd;fill:#fff;fill-opacity:1"></path><path d="M112.387 153.293c-15.246-.938-22.79 3.102-30.88 9.781-4.421 3.649-9.726 13.278-12.734 22.149-18.316 23.05-29.718 50.422-34.992 79.379-2.582 14.168-3.683 28.64-3.394 43.035.09 4.574.324 9.156.699 13.734-1.512-6.582-3.52-12.937-6.09-19.101-4.144-9.961-9.844-19.43-16.035-28.551-6.164 17.101-3.844 27.004 2.074 38.351 4.434 8.504 12.996 14.817 20.707 15.977a204 204 0 0 0 3.055 18.922c8.558 40.668 33.797 82.55 68.238 106.523 8.375 5.832 17.387 10.688 26.934 14.309l1.625.617 1.234-3.254-1.629-.617c-19.355-7.34-36.195-19.809-50.125-35-20.816-22.7-36.527-53.137-42.875-83.293-2.672-12.692-4.074-25.723-4.336-38.688-.285-14.164.801-28.402 3.34-42.343 5.102-28.008 16.04-54.516 33.578-76.926 9.547-3.668 15.903-1.543 21.762-5.883 8.871-6.562 11.203-17.922 19.844-29.121m18.078 275.371c12.43 27.52 6.172 28.316 14.082 39.68 4.363 6.27 13.867 9.922 20.16 9.761-5.191-28.656-22.035-43.289-34.242-49.44m-15.2-14.723c-.48 5.442 1.672 24.95 6.239 37.286 1.746 4.71 6.457 11.253 13.281 13.117 1.113-7.137-.176-14.352-1.66-20.465-2.645-10.899-9.133-22.43-17.86-29.938m-17.12-15.039c6.144 8.399 11.757 18.328 15.261 28.262 3.29 9.336 4.719 18.734 2.98 25.18-8.269.535-16.23-8.774-19.042-16.961-3.848-11.207-4.32-26.078.8-36.48m-23.84-24c-.743 15.02-2.364 31.97 1.254 41.59 2.312 6.145 8.027 12.778 12.824 16.172 3.094-5.762 4.515-17.996 2.402-26.402-2.879-11.453-8.11-21.707-16.48-31.36m-15.68-26.722c7.121 8.992 11.094 18.96 12.273 28.992 1.11 9.426-.378 22.555-4.433 29.09-3.363-4.801-13.586-19.578-14.883-28.64-.691-4.833 1.547-9.595 3.14-14.474 1.594-4.882 2.81-10.222 3.903-14.968m-7.363-36.961c3.789 10.988 6.176 21.812 4.8 33.12-.765 6.286-6.187 14.829-10.398 17.442-5.898-8.75-6.691-19.953-4.219-29.926 1.801-7.277 4.953-13.148 9.817-20.636m8.32-40.961c-4.34 14.469-5.5 26.894-9.676 37.027-3.351 8.133-8.21 15.875-12.402 17.055-.27-10.133-4.336-18.227-.16-30.402 3.32-9.692 15.465-20.536 22.238-23.68m-20.16 8.48c.535-10.828 3.3-26.105 9.922-36.8 3.808-6.157 12.586-10.829 19.199-11.204-1.426 17.856-12.813 38.043-29.121 48.004m13.121-51.523c14.36 2.836 28.254-11.848 36-35.2-8 .532-17.07 5.094-23.04 11.2-6.386 6.531-7.038 15.945-12.96 24M78.93 471.184c11.957-2.32 16.648-6.477 24.273-7.172 7.625-.7 14.906.675 21.68 5.097-2.188 5.356-10.555 14.641-18.485 15.032-9.93.492-21.597-4.723-27.468-12.957m-22.633-26.086c17.77-1.348 34.473.754 45.953 12.093-4.031 5.817-11.828 9.489-21.594 7.426-10.426-2.199-19.293-9.097-24.36-19.52m-25.223-38.352c12.363 3.418 22.485 5.805 31.567 12.164 7.332 5.133 10.05 11.64 18.707 19.45-4.664 7.484-20.383 3.519-28.332-1.383-10.305-6.352-19.582-18.254-21.942-30.23m-17.101-43.539c11.66 7.277 24.535 13.52 31.707 22.348 5.086 6.265 5.582 13.953 10.965 21.879-5.301 5.07-20.094-1.09-26.434-7.774-8.875-9.351-9.328-24.648-16.238-36.453m-3.801-45.434c-1.098 12.149.363 24.329 5.527 34.723 4.012 8.078 13.07 16.184 21.074 18.14-1.328-25.202-11.91-42.292-26.601-52.863m12.957-95.363c.539 8.75 2.883 20.387 5.433 30.426 1.985 7.809 4.57 14.312 3.458 19.934-.653 3.277-2.633 6.449-5.266 8.203-6.332.46-12.399-7.426-12.781-13.645-.946-15.254.918-30.121 9.156-44.918m17.445-30.754c-.3 12.485 3.055 29.274-.27 43.867-1.109 4.864-2.753 9.215-5.6 14.008-4.954-6.562-7.09-18.058-6.911-27.469.184-9.597 2.992-20.558 12.781-30.406m7.086 22.633c6.969-15.894 23.266-31.617 19.004-52.52-6.855 1.442-15.805 11.137-18.312 19.696-3.032 10.347-1.961 25.281-.692 32.824M401.137 153.293c15.246-.938 22.789 3.102 30.879 9.781 4.421 3.649 9.726 13.278 12.734 22.149 18.316 23.05 29.715 50.422 34.988 79.379 2.582 14.168 3.688 28.64 3.399 43.035a222 222 0 0 1-.703 13.734c1.511-6.582 3.523-12.937 6.09-19.101 4.148-9.961 9.843-19.43 16.039-28.551 6.16 17.101 3.843 27.004-2.075 38.351-4.433 8.504-13 14.817-20.71 15.977a204 204 0 0 1-3.051 18.922c-6.477 30.77-22.477 61.773-43.715 84.93-14.301 15.593-31.586 28.367-51.457 35.902l-1.625.617-1.235-3.254 1.625-.617c9.278-3.516 18.04-8.242 26.18-13.906 33.71-23.47 58.445-64.594 66.824-104.387 2.668-12.692 4.074-25.723 4.336-38.688.285-14.164-.805-28.402-3.344-42.343-5.101-28.008-16.035-54.516-33.574-76.926-9.55-3.668-15.902-1.543-21.765-5.883-8.868-6.562-11.2-17.922-19.84-29.121m-18.082 275.371c-12.426 27.52-6.168 28.316-14.078 39.68-4.364 6.27-13.868 9.922-20.16 9.761 5.19-28.656 22.035-43.289 34.238-49.44m15.203-14.723c.48 5.442-1.672 24.95-6.242 37.286-1.746 4.71-6.454 11.253-13.282 13.117-1.109-7.137.176-14.352 1.66-20.465 2.649-10.899 9.137-22.43 17.864-29.938m17.12-15.039c-6.144 8.399-11.76 18.328-15.26 28.262-3.294 9.336-4.723 18.734-2.981 25.18 8.265.535 16.23-8.774 19.039-16.961 3.851-11.207 4.32-26.078-.797-36.48m23.84-24c.739 15.02 2.364 31.97-1.257 41.59-2.313 6.145-8.024 12.778-12.824 16.172-3.094-5.762-4.512-17.996-2.399-26.402 2.88-11.453 8.106-21.707 16.48-31.36m15.68-26.722c-7.12 8.992-11.093 18.96-12.277 28.992-1.11 9.426.383 22.555 4.438 29.09 3.359-4.801 13.586-19.578 14.878-28.64.692-4.833-1.542-9.595-3.136-14.474-1.594-4.882-2.809-10.222-3.903-14.968m7.36-36.961c-3.785 10.988-6.176 21.812-4.797 33.12.762 6.286 6.184 14.829 10.398 17.442 5.899-8.75 6.692-19.953 4.22-29.926-1.806-7.277-4.954-13.148-9.821-20.636m-8.32-40.961c4.343 14.469 5.503 26.894 9.675 37.027 3.356 8.133 8.215 15.875 12.407 17.055.265-10.133 4.332-18.227.16-30.402-3.32-9.692-15.47-20.536-22.243-23.68m20.164 8.48c-.536-10.828-3.301-26.105-9.922-36.8-3.809-6.157-12.586-10.829-19.2-11.204 1.426 17.856 12.813 38.043 29.122 48.004m-13.122-51.523c-14.363 2.836-28.253-11.848-36.003-35.2 8 .532 17.074 5.094 23.043 11.2 6.386 6.531 7.039 15.945 12.96 24m-26.386 243.969c-11.957-2.32-16.649-6.477-24.274-7.172-7.625-.7-14.906.675-21.68 5.097 2.188 5.356 10.551 14.641 18.485 15.032 9.93.492 21.594-4.723 27.469-12.957m22.633-26.086c-17.77-1.348-34.473.754-45.957 12.093 4.03 5.817 11.832 9.489 21.597 7.426 10.426-2.199 19.29-9.097 24.36-19.52m25.222-38.352c-12.367 3.418-22.484 5.805-31.566 12.164-7.332 5.133-10.055 11.64-18.707 19.45 4.664 7.484 20.383 3.519 28.332-1.383 10.3-6.352 19.578-18.254 21.941-30.23m17.102-43.539c-11.664 7.277-24.535 13.52-31.707 22.348-5.086 6.265-5.582 13.953-10.965 21.879 5.297 5.07 20.09-1.09 26.433-7.774 8.875-9.351 9.329-24.648 16.239-36.453m3.8-45.434c1.094 12.149-.367 24.329-5.527 34.723-4.012 8.078-13.074 16.184-21.078 18.14 1.332-25.202 11.914-42.292 26.606-52.863m-12.956-95.363c-.543 8.75-2.887 20.387-5.434 30.426-1.984 7.809-4.574 14.312-3.457 19.934.648 3.277 2.633 6.449 5.262 8.203 6.336.46 12.402-7.426 12.785-13.645.945-15.254-.922-30.121-9.156-44.918m-17.45-30.754c.305 12.485-3.054 29.274.274 43.867 1.11 4.864 2.75 9.215 5.601 14.008 4.953-6.562 7.09-18.058 6.91-27.469-.183-9.597-2.996-20.558-12.785-30.406m-7.082 22.633c-6.968-15.894-23.265-31.617-19.004-52.52 6.852 1.442 15.805 11.137 18.313 19.696 3.031 10.347 1.957 25.281.691 32.824m0 0" style="stroke:none;fill-rule:evenodd;fill:#e2b626;fill-opacity:1"></path><g clip-path="url(#a)"><path d="M.063 533.707c8.265.852 19.652 1.629 28.16 4.082-1.735 7.305-2.535 18.48-2 29.121 7.402-5.187 21.203-13.101 33.265-16.347 5.285-1.422 10.035-2.606 14.965-3.27 5.242-.707 10.582-1.016 14.621-2.473 2.395-.863 5.086-2.265 6.656-3.71 3.918-3.606 5.43-7.508 3.215-13.243-.504-1.304-.68-3.379 1.598-3.52 7.246-.449 15.75-.628 22.84-2.355 7.547-1.832 13.55-5.332 10.945-10.242-1.203-2.262-3.863-4.586-6.262-9.004 8.11-2.484 16.293-4.746 25.973-6.7 36.04-7.265 69.309-8.265 101.887-8.48 29.418.184 60.156.86 92.297 5.414 12.586 1.786 25.226 3.95 37.304 8.008-2.398 4.414-6.82 8.5-8.02 10.762-2.605 4.91 3.235 8.41 10.782 10.242 7.09 1.727 16.176 1.906 23.418 2.356 2.277.14 2.066 2.199 1.602 3.52-2.293 6.534-.704 9.636 3.214 13.241 1.57 1.446 4.262 2.848 6.657 3.711 4.039 1.457 8.797 1.77 14.043 2.473 4.925.664 9.68 1.848 14.96 3.27 12.063 3.246 25.868 11.16 33.27 16.347.531-10.64.055-21.945-2-29.414 8.188-1.172 19.895-2.937 28.16-3.789-18.187-11.312-37.715-20.289-56.383-21.52 5.23-6.144 5.317-12.5-2.433-17.14-5.656-3.39-16.195-5.57-28.067-8.14 2.786-3.302 3.235-8.126.399-12.184-3.559-5.086-12.258-7.29-17.84-8.953-33.02-9.848-72.777-16.09-105.851-18.758-18.665-1.504-34.704-2.102-45.47-1.856-32.136-.98-114.484 1.555-164.062 25.59-7.11 3.445-9.574 11.36-4.64 16-11.871 2.57-22.446 4.91-28.098 8.3-7.75 4.642-7.535 10.517-2.145 17.142-18.668 1.23-38.777 10.207-56.96 21.519m0 0" style="stroke:none;fill-rule:evenodd;fill:#25572b;fill-opacity:1"></path></g><path d="M219.43 526.828V512.29q.002-1.399-.184-1.871-.188-.475-.676-.559-.48-.081-3.312-.246v-1.933q3.842-.496 9.789-2.14v21.288c0 1.328.183 2.152.539 2.469.36.316 1.39.52 3.101.617v2.059h-12.902v-2.059c1.711-.098 2.75-.3 3.11-.617q.537-.476.535-2.469M245.754 520.938c-1.77.933-2.281 1.414-2.695 1.535-.418.125-.832.066-1.153.066-4.656 0-8.097-3.07-8.097-7.816 0-5.32 4.289-8.895 9.453-8.895 6.11 0 9.11 4.625 9.11 10.293 0 10.527-7.731 15.902-17.626 16.387l-.262-2.145c3.18-.426 5.297-1.394 7.391-3.066 2.09-1.676 3.266-3.902 3.879-6.36m.344-2.18c.64-3.313.164-11.02-3.625-10.703-2.442.207-3.004 3.285-3.004 5.265 0 1.676.46 3.051 1.43 4.184 1.351 1.574 3.062 2.273 5.199 1.254M258.672 506.242h13.265l.395.492-1.566 4.239h-10.141l-.91 5.738c2.133-.945 4.62-1.582 6.848-1.234 3.39.527 6.269 3.445 6.238 6.941-.028 2.71-1.512 5.168-4.137 7.152-2.348 1.77-4.812 2.614-7.27 2.684-1.472.043-2.714-.188-4.246-1.031-1.457-.805-1.851-1.383-1.851-2.055 0-.309.086-.55.27-.824.226-.34.656-.848 1.117-1.301.359-.348.656-.656.968-.656.203 0 .407.062.59.207 1.906 1.472 3.242 3.05 5.215 2.945 2.664-.144 3.77-2.488 3.77-4.902 0-2.094-.868-3.563-2.04-4.64-2.05-1.892-5.296-1.333-8.37-.423ZM291.59 506.074v15.977h3.64v2.84h-3.64v2.386q0 1.734.48 2.102.487.37 2.899.535v2.059h-12.465v-2.059c1.668-.11 2.691-.297 3.07-.55.38-.255.57-.919.57-2.005v-2.468h-10.566v-1.77c4.563-6.719 8.59-12.16 12.656-17.047Zm-5.445 15.977v-9.633h-.086c-2.973 4.074-4.934 7.094-6.473 9.633Zm0 0" style="stroke:none;fill-rule:evenodd;fill:#25572b;fill-opacity:1" data-source="https://football-logos.cc"></path><path d="M291.523 463.754a770 770 0 0 1 3.008 4.273c.996 1.418 1.985 2.848 2.98 4.262.837 1.191 1.575 2.016 2.208 2.453.457.32.96.496 1.496.531l-.035.485c-1.61-.11-3.211-.223-4.817-.348-1.601-.125-3.207-.254-4.808-.379l.03-.492c.618-.012 1.013-.07 1.2-.191q.287-.181.3-.473.044-.564-1.108-2.219c-.653-.93-1.309-1.86-1.961-2.781-.653-.926-1.317-1.848-1.973-2.766-.246.172-.484.348-.727.52l-.152 2.473-.152 2.472c-.059.942-.035 1.535.058 1.774q.143.356.59.636.448.289 1.477.36c-.016.168-.024.328-.035.492-1.555-.113-3.11-.227-4.664-.32a207 207 0 0 0-4.672-.223c.007-.16.02-.324.027-.488l.617.023c.535.02.973-.066 1.313-.23.242-.118.433-.32.582-.614.105-.207.191-.757.242-1.664q.169-2.958.332-5.918.168-2.957.336-5.922.075-1.378-.059-1.73c-.086-.23-.281-.437-.586-.613q-.455-.264-1.246-.27h-.633q.016-.246.032-.492c1.57.008 3.144.023 4.714.074s3.145.133 4.711.223l-.035.5c-.636-.04-1.133.023-1.476.183-.25.114-.45.313-.61.594q-.188.334-.277 1.703l-.176 2.82q-.088 1.411-.172 2.821c1.211-.84 2.43-1.672 3.645-2.496 1.219-.824 2.45-1.633 3.676-2.438 1.02-.671 1.554-1.23 1.586-1.68q.035-.512-.54-.863-.294-.179-1.507-.324c.015-.168.023-.332.039-.5 1.226.11 2.453.227 3.676.36 1.222.128 2.449.273 3.675.425q-.022.246-.039.493c-.664-.036-1.183.015-1.57.148q-.593.209-2.727 1.566a444 444 0 0 0-5.793 3.77M210.527 464.344c1.203 1.242 2.41 2.488 3.606 3.734 1.203 1.254 2.398 2.516 3.594 3.774 1.015 1.07 1.87 1.793 2.566 2.152a3.05 3.05 0 0 0 1.578.344q.013.247.031.488c-1.62.09-3.246.176-4.863.273-1.625.102-3.242.215-4.863.329-.016-.16-.024-.325-.04-.489.614-.097 1-.222 1.173-.367q.253-.217.23-.512c-.027-.375-.504-1.05-1.43-2.015-.777-.817-1.566-1.63-2.351-2.438-.781-.808-1.57-1.617-2.356-2.426-.218.207-.43.414-.648.622.07.82.133 1.644.2 2.464q.097 1.226.194 2.457c.079.942.184 1.52.313 1.743.129.222.36.398.676.535.332.14.832.183 1.523.129q.023.247.04.488-2.355.192-4.704.406-2.35.225-4.695.473-.022-.239-.043-.485c.203-.023.414-.046.62-.066.536-.055.962-.207 1.278-.422.227-.152.383-.379.492-.691.079-.223.086-.785.012-1.692q-.248-2.96-.496-5.925c-.168-1.977-.332-3.954-.5-5.93q-.116-1.382-.297-1.715-.18-.33-.672-.543-.491-.216-1.28-.14-.313.03-.63.062-.02-.247-.039-.5l4.703-.45q2.351-.217 4.707-.429c.008.168.024.332.035.496-.636.055-1.12.188-1.441.39-.23.153-.398.384-.52.684-.09.235-.105.805-.035 1.715q.116 1.407.227 2.809.11 1.401.226 2.804c1.086-1.003 2.184-2.007 3.274-3.007q1.64-1.5 3.293-2.98 1.378-1.245 1.332-1.919c-.027-.344-.25-.597-.66-.762-.211-.085-.727-.105-1.54-.074l-.035-.496q1.846-.141 3.692-.258c1.23-.074 2.469-.14 3.703-.203q.018.253.031.5-.985.11-1.531.414c-.363.207-1.191.871-2.473 2.004a725 725 0 0 0-5.207 4.645M265.824 468.848q.089 1.237.184 2.468c.062.82.12 1.645.187 2.465-1.394-.02-2.793-.035-4.183-.031-1.39 0-2.79.016-4.18.035l-.035-2.512q-.011-1.252-.027-2.511c.168-.004.34-.004.511-.008.028.535.13.902.305 1.086.176.187.351.344.531.457.188.117.637.168 1.356.168 1.484-.008 2.972.004 4.464.015q-.043-.528-.078-1.062c-2.16-.375-3.773-1.184-4.859-2.438-1.09-1.253-1.652-2.671-1.668-4.253a5.9 5.9 0 0 1 .61-2.692q.624-1.27 1.906-2.383c.855-.734 1.918-1.285 3.187-1.629 1.274-.347 2.754-.496 4.426-.441 1.676.059 3.144.309 4.394.738 1.25.426 2.29 1.035 3.102 1.817.82.785 1.414 1.613 1.79 2.476.374.864.53 1.762.476 2.703-.09 1.5-.692 2.844-1.786 4.047-1.097 1.203-2.78 1.946-5.058 2.227-.05.351-.094.707-.14 1.058q2.231.093 4.468.215c.684.04 1.125.02 1.32-.074q.288-.142.586-.441c.192-.2.309-.559.36-1.059q.258.02.515.031-.074 1.248-.156 2.485l-.152 2.484c-1.39-.09-2.782-.176-4.168-.246a248 248 0 0 0-4.172-.172c.098-.816.2-1.629.3-2.45.102-.812.208-1.632.317-2.444q.983-.394 1.48-.918.493-.515.844-1.739c.239-.816.387-1.898.446-3.234.062-1.508-.063-2.684-.372-3.512a4.56 4.56 0 0 0-1.585-2.094c-.747-.558-1.692-.863-2.836-.902-1.454-.047-2.66.399-3.625 1.32-.485.457-.848 1.11-1.086 1.938q-.364 1.248-.375 3.047c-.016 2.05.195 3.496.613 4.351.418.856 1.039 1.391 1.863 1.614m0 0" style="stroke:none;fill-rule:evenodd;fill:#fff;fill-opacity:1"></path><path d="M312.207 458.41c1.563.176 2.961.473 4.18 1.035a9.1 9.1 0 0 1 3.113 2.344c.855 1 1.45 2.086 1.785 3.246q.498 1.735.235 3.715a9.7 9.7 0 0 1-.954 3.113 9.6 9.6 0 0 1-1.93 2.57 8.96 8.96 0 0 1-3.644 2.141c-1.36.41-2.87.516-4.539.328q-2.51-.28-4.375-1.28a9.1 9.1 0 0 1-3.129-2.755 9.3 9.3 0 0 1-1.422-2.957 9.7 9.7 0 0 1-.304-3.348q.15-1.993 1.011-3.593c.579-1.07 1.391-2.004 2.454-2.805a9.3 9.3 0 0 1 3.476-1.637c1.254-.293 2.598-.277 4.043-.117m.094.86c-1.793-.204-3.238.492-4.324 2.062-.442.645-.801 1.453-1.079 2.414-.273.965-.468 2.09-.586 3.367-.14 1.524-.113 2.867.063 4.02.18 1.148.52 2.117 1.012 2.898.687 1.102 1.73 1.727 3.133 1.883q1.417.16 2.437-.383c.871-.46 1.598-1.285 2.2-2.46.296-.587.554-1.274.765-2.06.21-.784.375-1.675.492-2.663q.21-1.763.188-3.11c-.016-.894-.102-1.644-.274-2.258q-.51-1.84-1.543-2.695-1.03-.856-2.484-1.015M154.262 464.863c1.543-.285 2.972-.406 4.304-.21a9.1 9.1 0 0 1 3.668 1.367c1.106.714 1.993 1.59 2.653 2.605q.985 1.524 1.308 3.492a9.7 9.7 0 0 1-.007 3.258 9.6 9.6 0 0 1-1.102 3.016 8.95 8.95 0 0 1-2.863 3.109c-1.18.79-2.594 1.332-4.246 1.64-1.653.31-3.172.32-4.559.044a9.04 9.04 0 0 1-3.793-1.727 9.2 9.2 0 0 1-2.223-2.418 9.8 9.8 0 0 1-1.265-3.113c-.29-1.301-.317-2.551-.078-3.742.238-1.196.742-2.34 1.523-3.422a9.3 9.3 0 0 1 2.844-2.606c1.117-.648 2.406-1.027 3.836-1.293m.336.797c-1.77.332-2.953 1.418-3.532 3.246q-.352 1.126-.324 2.637c.016 1.008.16 2.144.422 3.406.309 1.504.727 2.781 1.23 3.836.504 1.055 1.114 1.883 1.813 2.492.98.856 2.156 1.153 3.547.895q1.4-.263 2.219-1.082c.699-.695 1.156-1.7 1.39-2.996q.172-.98.133-2.2a20 20 0 0 0-.309-2.699q-.311-1.756-.722-3.039c-.278-.855-.582-1.554-.922-2.09q-1.03-1.625-2.266-2.148c-.824-.348-1.718-.438-2.68-.258M332.656 479.52q.036-.242.07-.489.282.042.575.082c.875.13 1.445.032 1.715-.304s.472-1.004.617-1.997l1.008-6.859c.332-2.285.671-4.574 1.007-6.86-1.105-.175-2.21-.35-3.316-.515a309 309 0 0 0-3.32-.476q-.447 3.45-.899 6.89-.451 3.446-.898 6.89-.23 1.747.144 2.24c.243.32.754.542 1.54.651q.27.035.546.075-.036.246-.066.492a392 392 0 0 0-4.727-.633c-1.574-.2-3.148-.39-4.726-.586q.024-.24.054-.492l.575.07c.793.098 1.34.012 1.632-.258.293-.265.512-.976.649-2.113q.357-2.97.707-5.937.359-2.966.71-5.938c.13-1.074.087-1.793-.124-2.148q-.317-.54-1.613-.68a35 35 0 0 0-.602-.062c.02-.165.035-.333.059-.5 3.52.394 7.039.82 10.539 1.347 3.5.524 6.992 1.14 10.48 1.774l-.082.496-.5-.094q-1.323-.247-1.82.18-.491.428-.742 2c-.309 1.957-.618 3.921-.93 5.882-.309 1.957-.621 3.922-.926 5.88q-.273 1.729.113 2.234c.258.34.79.578 1.602.722q.21.035.426.075c-.028.16-.051.324-.078.484a491 491 0 0 0-4.696-.8q-2.345-.374-4.703-.723M352.957 482.703c-.027.164-.062.328-.09.488-1.64-.367-3.281-.734-4.926-1.062a102 102 0 0 0-4.964-.852q.04-.242.086-.484.315.042.632.09c.555.082 1.012.055 1.383-.07.262-.086.485-.262.672-.536.137-.195.297-.734.457-1.632.352-1.961.703-3.918 1.05-5.88q.529-2.938 1.052-5.878c.164-.914.21-1.492.144-1.742-.062-.247-.238-.477-.527-.704q-.434-.334-1.254-.464-.322-.054-.649-.102c.032-.164.059-.328.09-.492 1.696.27 3.395.547 5.086.855 1.692.305 3.38.633 5.067.965-.032.168-.067.332-.094.496l-.645-.129c-.558-.11-1.03-.105-1.406.008-.27.082-.504.254-.703.527-.14.196-.297.739-.465 1.637l-1.09 5.895c-.363 1.965-.73 3.933-1.093 5.894-.168.914-.227 1.5-.16 1.754.062.254.238.496.515.738.281.247.68.418 1.207.54.207.046.414.097.625.14M185.848 477.879l.07.488c-1.684.262-3.367.496-5.055.719-1.683.219-3.37.465-5.047.746q-.036-.241-.074-.488.319-.06.637-.114c.559-.093.992-.261 1.309-.492.23-.168.382-.406.476-.726.066-.227.047-.793-.086-1.7l-.879-5.921c-.293-1.977-.582-3.95-.875-5.926-.137-.918-.281-1.485-.422-1.703q-.203-.323-.734-.512-.523-.182-1.352-.055-.327.051-.656.11c-.023-.164-.05-.332-.074-.496 1.719-.274 3.441-.524 5.16-.762 1.723-.235 3.445-.48 5.164-.75l.07.5-.656.105q-.857.129-1.344.48c-.23.169-.398.407-.503.731-.07.227-.047.793.082 1.7q.42 2.969.843 5.937c.282 1.98.559 3.957.844 5.938.133.925.262 1.492.406 1.71q.217.323.727.516.52.193 1.328.07c.215-.035.426-.074.64-.105M365.89 480.45a408 408 0 0 0-3.292-.696c-1.098-.227-2.2-.442-3.301-.66q-.57.79-1.133 1.582c-.375.527-.594.98-.668 1.355-.098.504.043.903.414 1.219q.322.281 1.746.668-.053.245-.101.484-1.53-.3-3.067-.59-1.536-.279-3.074-.546c.027-.157.055-.32.086-.48q1.026.022 1.79-.513c.515-.359 1.214-1.156 2.12-2.394a416 416 0 0 1 4.797-6.438 503 503 0 0 1 4.93-6.355q.134.034.273.062a592 592 0 0 1 1.832 8.016c.586 2.664 1.14 5.332 1.688 7.992q.46 2.261.941 2.934.362.511 1.188.77l-.118.472q-2.212-.522-4.425-1.027a451 451 0 0 0-4.438-.977c.031-.156.067-.32.102-.476q.18.036.367.074c.71.156 1.238.168 1.566.039.235-.09.38-.27.438-.531.035-.157.035-.317.023-.497-.004-.085-.062-.44-.187-1.066-.164-.808-.325-1.613-.496-2.422m-.253-1.067q-.364-1.67-.735-3.34c-.246-1.117-.504-2.23-.754-3.352q-1.06 1.376-2.101 2.758-1.041 1.379-2.07 2.77a259 259 0 0 1 5.66 1.164M233.027 469.035c-1.12.04-2.242.074-3.363.125-1.121.047-2.242.113-3.367.176-.234.61-.469 1.21-.7 1.816-.23.602-.324 1.09-.3 1.473.027.512.266.863.703 1.078q.388.193 1.86.223.01.246.027.492c-1.043.055-2.082.11-3.121.18-1.04.066-2.082.148-3.121.234l-.036-.484c.664-.157 1.203-.473 1.606-.942q.607-.708 1.45-2.836a463 463 0 0 1 3.026-7.433 637 637 0 0 1 3.16-7.399q.141-.004.282-.008a594 594 0 0 1 3.797 7.332c1.242 2.454 2.46 4.91 3.664 7.36.683 1.394 1.23 2.265 1.656 2.621.32.27.773.418 1.348.445.004.168.007.328.007.489-1.515.039-3.03.07-4.55.109q-2.274.06-4.547.137l-.024-.493c.121-.003.246-.011.375-.015.727-.024 1.246-.137 1.528-.344.203-.144.297-.355.289-.625a1.8 1.8 0 0 0-.102-.492c-.027-.078-.168-.41-.453-.992-.36-.742-.726-1.48-1.094-2.227m-.515-.973a754 754 0 0 0-1.555-3.074c-.52-1.02-1.05-2.039-1.578-3.062q-.677 1.6-1.34 3.195a549 549 0 0 0-1.3 3.2c.96-.055 1.917-.11 2.882-.153a351 351 0 0 1 2.89-.106M256.727 455.648q.004 1.232.015 2.457l.012 2.454q-.259-.001-.512-.008c-.312-1.145-.652-1.965-1.027-2.469-.371-.504-.887-.91-1.535-1.21-.36-.169-.996-.259-1.895-.259-.484-.004-.96-.004-1.441 0l.082 7.035.082 7.032c.012.933.066 1.515.18 1.75.109.23.324.433.636.605q.475.264 1.29.258h.628q.004.246.008.492c-1.66.012-3.32.016-4.977.027-1.656.016-3.32.04-4.976.067l-.012-.492.633-.012c.55-.012.988-.121 1.324-.309.238-.132.43-.343.567-.648.097-.219.144-.781.129-1.695-.04-2.34-.075-4.68-.114-7.02q-.054-3.51-.113-7.023l-1.399.035q-1.945.053-2.82.855c-.808.75-1.308 1.79-1.496 3.137q-.27.005-.539.016c-.02-.82-.035-1.641-.055-2.461-.015-.82-.035-1.64-.05-2.461 2.894-.078 5.789-.172 8.683-.215s5.793-.004 8.692.066ZM145.473 483.41q.246 1.031-.27 1.84c-.34.54-.851.887-1.531 1.05-.664.157-1.274.071-1.82-.26-.551-.333-.907-.833-1.067-1.513q-.234-.99.281-1.812c.348-.543.844-.89 1.5-1.047q.995-.235 1.832.262c.559.332.918.828 1.075 1.48M173.797 478.21q.164 1.049-.418 1.81-.58.765-1.617.921-1.008.153-1.793-.41c-.52-.379-.828-.906-.934-1.597q-.152-1.008.434-1.782.583-.766 1.578-.918 1.013-.152 1.808.414.793.568.942 1.563M191.484 475.61c.094.699-.054 1.296-.449 1.8-.39.504-.937.8-1.629.895q-1.013.138-1.785-.438c-.516-.387-.816-.918-.91-1.61q-.139-1.014.46-1.777.593-.76 1.595-.894 1.012-.133 1.797.441.786.58.921 1.582M125.688 471.121c1.523-.305 2.953-.355 4.285-.164a9.7 9.7 0 0 1 3.687 1.324c1.125.684 2.02 1.508 2.695 2.489.672.972 1.13 2.093 1.368 3.355a9.3 9.3 0 0 1-.016 3.66c-.246 1.172-.73 2.29-1.445 3.367a9.3 9.3 0 0 1-2.715 2.676c-1.09.707-2.371 1.23-3.848 1.578-1.008.235-1.972.36-2.887.367a9.6 9.6 0 0 1-2.632-.336q-2.509-.679-4.227-2.519a9.7 9.7 0 0 1-1.445-2.004 10.2 10.2 0 0 1-.906-2.344c-.23-.91-.336-1.8-.313-2.656q.033-1.29.465-2.496c.578-1.602 1.558-2.969 2.95-4.07 1.39-1.106 3.062-1.84 4.984-2.227m.199.98c-1.63.333-2.75 1.278-3.352 2.84-.297.778-.433 1.715-.414 2.801q.028 1.63.524 3.719c.308 1.3.687 2.434 1.132 3.387q.67 1.43 1.543 2.343c1.16 1.215 2.535 1.625 4.137 1.254 1.535-.355 2.586-1.285 3.176-2.8q.433-1.139.457-2.7c.015-1.043-.11-2.234-.383-3.562-.566-2.766-1.41-4.758-2.547-5.969-1.137-1.215-2.566-1.656-4.273-1.312m.101 12.044c-.175.039-.351.082-.523.12q-.374-1.612-.742-3.218c-.25-1.074-.493-2.149-.743-3.227q.271-.054.536-.113c.14.617.41 1.012.796 1.191s1.063.16 2.016-.043c.945-.203 1.567-.464 1.856-.785.285-.32.367-.789.238-1.402.172-.035.351-.07.523-.106q.339 1.604.676 3.204.339 1.599.676 3.199l-.512.105c-.242-1.129-1.082-1.543-2.52-1.23-.85.191-1.421.367-1.699.523-.285.16-.472.387-.574.7q-.147.458-.004 1.082M377.074 469.543c2.754.656 5.492 1.367 8.227 2.11 2.73.742 5.465 1.472 8.21 2.167-.245.852-.495 1.707-.741 2.559q-.37 1.272-.739 2.555a25 25 0 0 1-.582-.157q.102-2.08-.558-3.425-.67-1.341-2.973-1.961-1.302-.354-2.606-.707c-.867-.235-1.734-.473-2.601-.704q.802 1.846 1.582 3.688a363 363 0 0 1 1.523 3.66 285 285 0 0 0-3.863 2.758c-1.27.926-2.527 1.871-3.777 2.816a401.831 401.831 0 0 1 8.258 2.16q1.698.47 2.683.176.99-.293 1.926-1.824.257.073.52.145c-.395 1.003-.782 2.007-1.172 3.011q-.58 1.502-1.153 3.004a226 226 0 0 0-7.992-2.234c-2.676-.692-5.36-1.344-8.043-2.02a370 370 0 0 1 4.383-3.398c1.488-1.129 3-2.238 4.523-3.34a378 378 0 0 0-2.437-5.527 262 262 0 0 0-2.598-5.512m0 0" style="stroke:none;fill-rule:evenodd;fill:#fff;fill-opacity:1"></path><path d="m96.41 20.496 87.211 84.004-87.644 44.863Zm24.156 57.074-.109 31.907 21.703-11.11Zm0 0" style="stroke:none;fill-rule:evenodd;fill:#25572b;fill-opacity:1"></path><path d="m103.887 38.164-.332 98.852 67.234-34.414Zm9.203 21.742 41.902 40.36-42.113 21.554Zm0 0" style="stroke:none;fill-rule:evenodd;fill:#fff;fill-opacity:1"></path><path d="m397.602 18.469 17.878 127.164-25.644-8.813-2.387-17.09-67.73-3.668ZM381.41 77.445l-14.426 17.918 16.989.926Zm0 0" style="stroke:none;fill-rule:evenodd;fill:#25572b;fill-opacity:1"></path><path d="m392.574 36.848-57.836 72.48 59.317 3.211 2.605 18.656 9.645 3.317Zm-6.054 22.234 6.148 45.227-40.777-2.22Zm0 0" style="stroke:none;fill-rule:evenodd;fill:#fff;fill-opacity:1"></path><path d="M212.512-.02c10.261-.074 20.23 4.141 27.652 11.473 9.649 9.535 15.356 24.254 15.477 40.738.117 15.868-5.442 30.536-14.34 40.282-7.453 8.168-17.903 12.574-27.758 12.59-11.047.011-20.64-4.126-28.176-12.016-9-9.43-14.98-23.18-15.21-40.227-.227-16.53 5.148-31.238 14.702-40.914C192.16 4.512 202.29.055 212.512-.02m.18 24.348c-3.942.031-7.973 2-10.712 4.774-5.875 5.945-7.585 15.324-7.476 23.39.117 8.606 2.187 17.285 8.262 23.653 3.03 3.171 6.351 4.574 10.746 4.566 3.699-.004 7.562-2.055 10.02-4.746 5.636-6.176 7.823-15.406 7.761-23.594-.059-8.137-2.059-17.605-8.04-23.516-2.788-2.753-6.6-4.554-10.562-4.527m0 0" style="stroke:none;fill-rule:evenodd;fill:#25572b;fill-opacity:1"></path><path d="M212.566 7.516c-8.324.062-16.523 3.793-22.343 9.687-9.114 9.223-12.703 22.844-12.532 35.516.176 12.87 4.106 25.672 13.125 35.125 6.157 6.445 13.801 9.691 22.72 9.68 8.355-.008 16.605-4 22.198-10.133 8.496-9.305 12.461-22.72 12.371-35.145-.093-12.672-4.027-26.328-13.238-35.43-5.922-5.851-13.941-9.359-22.3-9.3m.07 9.277c5.97-.043 11.7 2.539 15.915 6.703 7.492 7.402 10.203 18.586 10.277 28.82.078 10.137-2.77 21.102-9.73 28.727-3.895 4.266-9.754 7.2-15.575 7.207-6.453.008-11.75-2.234-16.207-6.902-7.449-7.805-10.207-18.2-10.351-28.754-.137-10.196 2.265-21.309 9.652-28.785 4.149-4.204 10.078-6.973 16.02-7.016m0 0" style="stroke:none;fill-rule:evenodd;fill:#fff;fill-opacity:1"></path><path d="m273.059 7.46 61.796 12.353-4.753 23.773-19.247-3.848-2.066 10.336 19.25 3.848-4.754 23.773-19.246-3.847-2.18 10.902 19.246 3.848-4.75 23.777-61.796-12.352 4.75-23.777 18.742 3.746 2.18-10.902-18.743-3.746 4.754-23.774 18.742 3.746 2.063-10.336-18.738-3.746Zm0 0" style="stroke:none;fill-rule:evenodd;fill:#25572b;fill-opacity:1"></path><path d="m278.973 16.328-1.797 8.992 18.742 3.746-5.02 25.118-18.742-3.746-1.8 8.992 18.742 3.746-5.133 25.683-18.742-3.746-1.797 8.996 47.015 9.399 1.797-8.996-19.246-3.848 5.133-25.684 19.246 3.848 1.8-8.996-19.25-3.844 5.02-25.117 19.25 3.848 1.797-8.996Zm0 0" style="stroke:none;fill-rule:evenodd;fill:#fff;fill-opacity:1" data-source="https://football-logos.cc"></path><!-- source: https://football-logos.cc --></svg>