<svg xmlns="http://www.w3.org/2000/svg" xml:space="preserve" viewBox="5 5 622.05 801.92"><!-- Source: https://football-logos.cc --><path d="M453.39 316.426c71.106 114.467 90.184 228.932 94.43 371.116 0 0-45.777 1.25-93.368 14.439C374.56 724.119 299 771.284 299 771.284s-75.56-47.165-155.452-69.303c-47.593-13.189-93.367-14.439-93.367-14.439 4.244-142.184 23.322-256.649 94.429-371.116C214.417 204.055 299 129.745 299 129.745s84.582 74.31 154.39 186.681" style="fill:#e02520;fill-opacity:1;fill-rule:nonzero;stroke:none" transform="matrix(1.25 0 0 -1.25 -57.726 969.105)" data-source="https://football-logos.cc"></path><path d="M352.017 506.349a53 53 0 0 0 9.738.895q2.145 0 4.245-.167l-.018.133q-.075 1.402-.074 2.822c0 29.305 23.84 53.146 53.146 53.146 29.304 0 53.147-23.84 53.147-53.146 0-29.305-23.843-53.146-53.147-53.146q-2.123 0-4.202.166l-.022-.162q.07-1.388.07-2.792c0-29.305-23.839-53.147-53.145-53.147a52.83 52.83 0 0 0-26.234 6.936l-.087-.108a58.6 58.6 0 0 0-10.372-6.616l-.073-.07V278.94H273.01v122.185l-.063.033a58.6 58.6 0 0 0-10.503 6.72l-.069-.045a52.8 52.8 0 0 0-26.131-6.881c-29.306 0-53.147 23.842-53.147 53.147q0 1.435.075 2.853l.03.102a54 54 0 0 0-4.258-.167c-29.304 0-53.146 23.84-53.146 53.146 0 29.305 23.842 53.146 53.146 53.146 29.306 0 53.147-23.84 53.147-53.146q0-1.493-.083-2.967l.114.02a53.6 53.6 0 0 0 13.859-.735l-.011.142a53 53 0 0 0-.117 3.54c0 29.305 23.84 53.146 53.146 53.146 29.305 0 53.145-23.84 53.145-53.146q0-1.769-.114-3.509z" style="fill:#fff;fill-opacity:1;fill-rule:nonzero;stroke:none" transform="matrix(1.25 0 0 -1.25 -57.726 969.105)"></path><path d="M246.883 499.605a46.7 46.7 0 0 1-10.638 1.221 47 47 0 0 1-4.883-.252l-.12-.036c-3.854-21.284-20.427-38.198-41.533-42.556l-.042-.1a47 47 0 0 1-.151-3.784c0-25.765 20.963-46.727 46.729-46.727a46.45 46.45 0 0 1 21.045 5.012l.092.058c-10.436 10.566-16.879 25.085-16.879 41.11 0 12.477 3.905 24.039 10.561 33.535l-.066.143a52.7 52.7 0 0 0-4.092 12.254zM414.07 463.57q2.457-.262 4.984-.264c25.766 0 46.728 20.96 46.728 46.726s-20.962 46.729-46.728 46.729c-25.765 0-46.73-20.963-46.73-46.73q.001-1.893.151-3.75l.025-.129c21.044-4.336 37.586-21.155 41.514-42.348zM225.368 506.125c-21.013-4.386-37.508-21.22-41.399-42.407l-.04-.15a48 48 0 0 0-4.984-.262c-25.766 0-46.729 20.96-46.729 46.726s20.963 46.729 46.729 46.729 46.729-20.963 46.729-46.73a47 47 0 0 0-.159-3.868zM346.928 487.098c6.659-9.498 10.567-21.066 10.567-33.547 0-15.988-6.414-30.48-16.807-41.04l-.077-.077a46.4 46.4 0 0 1 21.144-5.063c25.765 0 46.729 20.961 46.729 46.727q0 1.895-.15 3.754l-.011.123c-21.083 4.338-37.647 21.204-41.544 42.441l-.056.148q-2.45.26-4.968.262a46.6 46.6 0 0 1-10.524-1.196l-.118-.054a52.7 52.7 0 0 0-4.098-12.32z" style="fill:#e02520;fill-opacity:1;fill-rule:nonzero;stroke:none" transform="matrix(1.25 0 0 -1.25 -57.726 969.105)"></path><path d="M407.25 464.794c-3.953 16.814-17.011 30.155-33.664 34.515l.024-.183c4.007-16.689 16.992-29.922 33.542-34.282zM224.4 499.163c-4.003-16.738-17.039-30.007-33.647-34.347l.021.079c3.981 16.768 17.023 30.067 33.648 34.418zM334.757 499.862a53 53 0 0 0 10.656 4.811l.03.17c.188 1.704.286 3.435.286 5.189 0 25.766-20.964 46.729-46.729 46.729s-46.729-20.963-46.729-46.73q.002-2.649.29-5.224l.041-.138a52.8 52.8 0 0 0 10.526-4.74l.149-.05a58.5 58.5 0 0 0 9.629 6.042l.105.058v39.315l.152.137A43.6 43.6 0 0 0 299 553.873a43.6 43.6 0 0 0 25.91-8.495l.079-.051v-39.375l.068-.013a58.5 58.5 0 0 0 9.578-5.994zM254.055 497.227q.632-2.22 1.476-4.346l.047-.133q1.19 1.32 2.46 2.565l.058.084q-1.98 1.05-4.066 1.913z" style="fill:#e02520;fill-opacity:1;fill-rule:nonzero;stroke:none" transform="matrix(1.25 0 0 -1.25 -57.726 969.105)"></path><path d="M195.646 265.463h206.678l-.044-.08C358.926 207.046 316.816 165.005 299 148.1c-17.815 16.905-59.92 58.94-103.273 117.272zM531.395 627.537H66.575l.01.117c-1.07 15.456-1.865 31.177-2.454 47.197 17.518 1.342 49.656 4.9 83.015 14.144C214.684 707.71 278.104 743.215 299 755.55c20.896-12.335 84.315-47.84 151.854-66.555 33.358-9.245 65.496-12.803 83.016-14.144-.59-16.018-1.386-31.736-2.456-47.193zM480.922 614.058V397.965l.09.21c29.58 68.731 43.162 139.053 49.368 215.673l.023.214h-48.459zM117.078 397.965v216.093l-.841.004h-48.64l.017-.13c6.204-76.67 19.791-147.034 49.395-215.803zM273.01 559.703v54.355l.814.004h49.72l1.445-.004v-54.384l-.087.037A55.7 55.7 0 0 1 299 566.065a55.7 55.7 0 0 1-25.856-6.33zM220.974 547.053c-10.276 11.652-25.309 19.012-42.03 19.012-3.318 0-6.57-.29-9.732-.846l-.156-.042v48.88l.752.005h50.444l.782-.004v-67.049zM221.034 473.104v-60.129l-.084.034c-16.655 6.221-28.547 22.293-28.547 41.089q0 .708.023 1.41l.023.136c11.207 2.782 21.092 8.948 28.505 17.344zM220.918 508.001c-19.605-5.582-34.859-21.596-39.353-41.629l-.012-.101a43.903 43.903 0 0 0-12.359 1.015l-.138.043v85.426l.09.014a43.8 43.8 0 0 0 9.799 1.104c19.866 0 36.688-13.282 42.053-31.431l.036-.097v-14.318z" style="fill:#fff;fill-opacity:1;fill-rule:nonzero;stroke:none" transform="matrix(1.25 0 0 -1.25 -57.726 969.105)"></path><path d="M221.034 400.16V278.94l-1.054-.002h-34.14l-.054.074a856 856 0 0 0-16.677 24.209l-.053.084v151.572l.14-.029a56 56 0 0 1 11-.836l.015-.098c.083-25.51 17.297-47.06 40.719-53.722l.104-.031zM220.065 494.819c-4.315-11.625-13.428-20.94-24.921-25.525l.004.08c4.305 11.544 13.34 20.8 24.737 25.399zM428.961 565.188a56 56 0 0 1-9.907.877c-16.704 0-31.725-7.347-42-18.98l-.088-.105v67.078l1.143.004h49.452l1.383-.004v-48.73zM416.455 466.278c-4.47 20.094-19.762 36.158-39.419 41.737l-.07-.019v14.347l.054.156c5.381 18.121 22.19 31.374 42.034 31.374 3.363 0 6.64-.38 9.786-1.1l.104-.019V467.33l-.097-.032a43.8 43.8 0 0 0-9.793-1.103 45 45 0 0 0-2.461.067zM417.792 454.011q.63-.014 1.262-.013c3.325 0 6.585.292 9.753.85l.137.028V303.305l-.068-.104a855 855 0 0 0-16.67-24.196l-.046-.067h-35.194v121.193l.068.048c23.428 6.648 40.656 28.193 40.754 53.704z" style="fill:#fff;fill-opacity:1;fill-rule:nonzero;stroke:none" transform="matrix(1.25 0 0 -1.25 -57.726 969.105)" data-source="https://football-logos.cc"></path><path d="M405.57 455.63q.026-.762.027-1.532c0-18.794-11.89-34.864-28.54-41.085l-.09-.038v60.069l.08-.058c7.37-8.347 17.184-14.49 28.31-17.294zM377.937 494.845c11.51-4.588 20.636-13.917 24.949-25.563l-.176.072c-11.354 4.577-20.367 13.775-24.696 25.252z" style="fill:#fff;fill-opacity:1;fill-rule:nonzero;stroke:none" transform="matrix(1.25 0 0 -1.25 -57.726 969.105)"></path><path d="M342.465 492.873a47 47 0 0 1 1.51 4.457l-.15-.08a46 46 0 0 1-3.847-1.816l-.113-.027a59 59 0 0 0 2.57-2.673zM317.788 427.439a9 9 0 0 1 1.963.135c2.56.475 6.28.608 9.114-2.268 1.087-1.102 1.632-2.638 1.632-4.58q0-.68-.088-1.424c-.487-4.06-4.497-10.786-11.218-15.795l-4.093-2.821a8 8 0 0 1-.816-.575c1.441-1.627 2.726-3.407 2.726-5.47q0-.461-.09-.947c-.542-2.842-3.71-6.125-8.26-8.735 1.85-.721 3.954-2.161 3.954-5.432 0-3.326-2.386-6.895-6.545-9.791-.31-.216-.499-.348-.514-1.331v-24.493c0-9.445-1.588-12.494-6.538-12.547h-.03c-4.95.053-6.539 3.102-6.539 12.547v24.493c-.015.983-.203 1.115-.513 1.33-4.16 2.897-6.545 6.466-6.545 9.792 0 3.27 2.103 4.71 3.954 5.432-4.55 2.61-7.719 5.893-8.26 8.735q-.09.485-.09.948c0 2.062 1.285 3.842 2.726 5.469-.15.125-.4.311-.816.575l-4.094 2.821c-6.721 5.01-10.73 11.736-11.217 15.795q-.09.743-.09 1.424c0 1.942.546 3.478 1.633 4.58 2.834 2.876 6.554 2.743 9.115 2.268 1.6-.298 3.342-.074 4.947.24l-.048.107c-1.395 3.666-3.332 11.08-3.535 24.278-.144 9.322 3.404 15.831 5.08 18.38.516.785 1.653.563 2.041.26a218 218 0 0 1 4.341-3.288c1.048-.773 1.837-.485 1.997.87.249 2.14.533 5.795.337 10.41-.19 4.486.241 6.792.682 7.965.378 1.007 1.785.517 2.282.172 16.609-11.511 21.91-32.868 22.222-44.395.186-6.839-.327-11.941-.76-14.893z" style="fill:#e02520;fill-opacity:1;fill-rule:nonzero;stroke:none" transform="matrix(1.25 0 0 -1.25 -57.726 969.105)"></path><path d="M302.343 428.522c-1.18-.242-2.231-.535-3.343-.575-1.257.044-2.437.412-3.812.666l-.052.182a33.6 33.6 0 0 0-.443 5.277c0 3.608 1.879 4.832 3.222 5.245.747.23 1.213.73 1.116 1.632-.213 1.976-.334 5.783 1.055 9.968.736 2.222 1.495 3.425 2.07 4.072s1.322.57 1.89.105c1.708-1.39 5.311-5.422 6.827-15.408.72-4.736.717-8.449.517-11.041l-.01-.126a28 28 0 0 1-3.673.32l-.018.168c.074 1.952.044 4.407-.323 6.828-.504 3.33-1.452 5.327-2.087 6.352-.375.603-.88.499-1.19-.15-.583-1.218-1.414-3.425-1.375-6.04.045-3.028-.088-5.393-.302-7.23zM299 409.725s.176.058.532.556c.478.67.996 1.89 1.282 3.532.442 2.533.572 5.77.705 8.346.097 1.883.986 2.207 1.731 2.406 1.03.179 2.603.382 4.43.382 2.156 0 3.987-.286 4.977-.478.757-.144 1.26-.468 1.23-1.549-.055-1.891-.345-4.352-1.115-7.297-.673-2.584-2.194-4.759-3.28-6.064-.695-.836-.705-1.193.07-.893 1.408.545 3.698 1.679 5.456 3.747 1.606 1.89 2.733 4.824 3.57 9.462.36 2.002 1.043 2.57 1.875 2.705 1.548.305 4.505.566 6.346-1.301.693-.697.938-1.925.733-3.635-.322-2.68-3.343-8.803-10.076-13.82l-3.91-2.698c-1.024-.647-3.05-2.153-3.08-2.484-.035-.39.959-1.703 1.61-2.418 1.127-1.233 2.246-2.673 1.995-3.989-.243-1.278-1.716-3.278-4.441-5.266a25 25 0 0 0-1.016-.702c-1.547-1.01-3.923-2.695-4.163-3.924-.069-.355 2.406-1.357 3.989-2.48.974-.692 1.275-1.36 1.275-2.336 0-2.333-1.985-5.109-5.31-7.423-1.502-1.049-1.73-2.376-1.749-3.677v-24.515c0-9.62-1.706-9.638-3.681-9.66h.03c-1.975.022-3.681.04-3.681 9.66v24.515c-.02 1.301-.247 2.628-1.75 3.677-3.324 2.314-5.309 5.09-5.309 7.423 0 .975.3 1.644 1.275 2.336 1.583 1.123 4.058 2.125 3.988 2.48-.24 1.23-2.615 2.914-4.162 3.924q-.534.35-1.016.702c-2.725 1.988-4.198 3.988-4.441 5.266-.251 1.316.867 2.756 1.994 3.99.652.714 1.646 2.026 1.61 2.417-.03.331-2.055 1.837-3.079 2.484l-3.91 2.698c-6.734 5.017-9.754 11.14-10.076 13.82-.205 1.71.039 2.938.732 3.635 1.84 1.867 4.799 1.606 6.346 1.301.833-.135 1.516-.703 1.876-2.705.837-4.638 1.963-7.573 3.57-9.462 1.758-2.068 4.048-3.202 5.455-3.747.775-.3.766.057.07.893-1.085 1.305-2.606 3.48-3.28 6.064-.769 2.945-1.06 5.406-1.114 7.297-.03 1.081.473 1.405 1.23 1.55.99.191 2.82.477 4.978.477 1.826 0 3.4-.203 4.428-.382.746-.2 1.635-.523 1.732-2.406.132-2.575.263-5.813.705-8.346.285-1.643.804-2.863 1.281-3.532.357-.498.533-.556.533-.556" style="fill:#fff;fill-opacity:1;fill-rule:nonzero;stroke:none" transform="matrix(1.25 0 0 -1.25 -57.726 969.105)"></path><path d="M299 493.056c2.395.74 2.98 4.154 2.744 7.378-.304 4.115-2.744 4.576-2.744 4.576s-2.44-.461-2.743-4.576c-.237-3.224.347-6.639 2.743-7.378M289.455 491.729c2.116 1.366 1.786 4.816.714 7.858-1.368 3.882-3.84 3.662-3.84 3.662s-2.23-1.112-1.446-5.16c.615-3.171 2.069-6.303 4.572-6.36M280.605 487.841c1.68 1.895.46 5.13-1.367 7.769-2.334 3.368-4.657 2.479-4.657 2.479s-1.858-1.678-.045-5.365c1.422-2.889 3.642-5.51 6.069-4.883M273.092 481.68c1.124 2.285-.897 5.069-3.346 7.112-3.131 2.607-5.14 1.117-5.14 1.117s-1.35-2.126 1.362-5.182c2.123-2.395 4.95-4.314 7.124-3.047M267.464 473.691c.486 2.508-2.19 4.64-5.086 5.937-3.699 1.66-5.242-.323-5.242-.323s-.746-2.42 2.665-4.624c2.674-1.729 5.9-2.804 7.663-.99M264.13 464.452c-.188 2.554-3.323 3.875-6.453 4.336-4 .587-4.967-1.745-4.967-1.745s-.087-2.532 3.778-3.726c3.029-.936 6.417-1.092 7.643 1.135M263.334 454.643c-.85 2.406-4.218 2.826-7.353 2.414-4.006-.525-4.33-3.038-4.33-3.038s.579-2.465 4.615-2.559c3.163-.075 6.47.7 7.068 3.183M265.131 444.972c-1.447 2.087-4.802 1.572-7.714.318-3.726-1.6-3.38-4.11-3.38-4.11s1.2-2.216 5.115-1.205c3.067.79 6.052 2.44 5.98 4.997M269.392 436.144c-1.94 1.616-5.04.2-7.518-1.8-3.171-2.56-2.182-4.884-2.182-4.884s1.737-1.81 5.245.233c2.75 1.6 5.193 4.007 4.455 6.45M308.544 491.729c-2.116 1.366-1.785 4.816-.713 7.858 1.368 3.882 3.84 3.662 3.84 3.662s2.23-1.112 1.446-5.16c-.615-3.171-2.07-6.303-4.573-6.36M317.395 487.841c-1.68 1.895-.46 5.13 1.366 7.769 2.334 3.368 4.658 2.479 4.658 2.479s1.857-1.678.045-5.365c-1.422-2.889-3.643-5.51-6.069-4.883M324.908 481.68c-1.124 2.285.897 5.069 3.346 7.112 3.132 2.607 5.138 1.117 5.138 1.117s1.352-2.126-1.359-5.182c-2.124-2.395-4.952-4.314-7.125-3.047M330.535 473.691c-.486 2.508 2.192 4.64 5.085 5.937 3.7 1.66 5.244-.323 5.244-.323s.745-2.42-2.667-4.624c-2.673-1.729-5.9-2.804-7.662-.99M333.867 464.452c.19 2.554 3.324 3.875 6.455 4.336 4 .587 4.967-1.745 4.967-1.745s.088-2.532-3.777-3.726c-3.029-.936-6.418-1.092-7.645 1.135M334.666 454.643c.849 2.406 4.217 2.826 7.352 2.414 4.006-.525 4.33-3.038 4.33-3.038s-.578-2.465-4.614-2.559c-3.164-.075-6.471.7-7.068 3.183M332.868 444.972c1.447 2.087 4.803 1.572 7.715.318 3.725-1.6 3.38-4.11 3.38-4.11s-1.2-2.216-5.115-1.205c-3.068.79-6.052 2.44-5.98 4.997M328.608 436.144c1.942 1.616 5.038.2 7.518-1.8 3.17-2.56 2.18-4.884 2.18-4.884s-1.735-1.81-5.244.233c-2.75 1.6-5.194 4.007-4.454 6.45M247.126 248.5h6.738v-30.682h-6.738zM267.779 230.752q-5.432.002-8.044 2.061c-1.74 1.376-2.609 3.526-2.609 6.46q0 9.648 13.623 9.647 7.926 0 11.65-3.748 3.723-3.75 3.724-11.688 0-8.146-3.954-11.906-3.953-3.761-12.402-3.76h-10.971v5.234h11.154q4.364 0 6.486 1.857 2.119 1.856 2.288 5.843zm.37 5.174h10.575q-.106 4.27-2.038 6.016-1.935 1.744-6.47 1.744-5.87 0-5.87-4.081-.001-3.68 3.802-3.68M308.472 223.413h-19.733v5.948l18.022 19.199h8.147v-19.914h4.234v-5.233h-4.234v-5.595h-6.436zm0 18.548-12.367-13.315h12.367zM325.974 233.2q-4.083 2.901-4.083 7.367 0 7.934 10.074 7.933h8.284q10.096 0 10.097-7.848-.002-4.614-4.068-7.452 4.428-1.9 4.429-7.221 0-3.884-2.436-6.021-2.435-2.141-7.034-2.14H331.1q-4.623-.001-7.067 2.14-2.444 2.138-2.443 6.063 0 5.237 4.383 7.18m7.9 10.065q-5.006 0-5.005-3.762-.001-3.698 5.005-3.698h4.65q4.965 0 4.964 3.698 0 3.761-4.964 3.762zm-.07-12.694q-4.935 0-4.935-3.76 0-3.761 4.935-3.76h4.707q4.976-.001 4.977 3.76 0 3.76-4.977 3.76zM257.854 718.043h7.343l11.306-19.83-.263 19.83h5.918V690.43h-6.734l-11.855 20.905.244-20.905h-5.959zM299.658 713.23q-6.22 0-6.56-6.376h16.134v-4.813H293.1q.017-3.702 1.56-5.25t5.021-1.549h9.552v-4.812H299.4q-2.84 0-4.512.395a10.5 10.5 0 0 0-4.098 2.028q-4.25 3.381-4.249 10.895 0 7.326 3.177 10.81t9.851 3.485h9.663v-4.813zM322.635 718.043h6.168l11.791-27.613h-6.469l-2.54 6.558h-12.014l-2.466-6.558h-6.167zm2.852-5.467-4.042-10.655h8.234zM239.693 671.841h6.169l11.791-27.613h-6.47l-2.538 6.557h-12.018l-2.464-6.557h-6.168zm2.853-5.467-4.042-10.656h8.234zM275.499 666.374l-8.383-22.146h-6.168l11.698 27.613h6.168l11.793-27.613h-6.47zM305.571 671.841h6.169l11.794-27.613h-6.473l-2.539 6.557h-12.017l-2.464-6.557h-6.168zm2.853-5.467-4.042-10.656h8.235zM327.047 671.841h8.543l7.057-21.184 7.056 21.184h8.506v-27.613h-5.725l.492 21.526-7.112-21.526h-6.185l-7.338 21.751.628-21.751h-5.922zM368.939 644.228h-6.076v27.613h6.076zM210.657 666.911l14.469.008v4.922h-22.078v-4.933l7.819-8.904-7.82-8.844v-4.932h22.079v4.873h-14.331l7.766 8.877zM381.461 666.911l14.47.008v4.922h-22.078v-4.933l7.819-8.904-7.82-8.844v-4.932h22.08v4.873H381.6l7.766 8.877z" style="fill:#e02520;fill-opacity:1;fill-rule:nonzero;stroke:none" transform="matrix(1.25 0 0 -1.25 -57.726 969.105)" data-source="https://football-logos.cc"></path><!-- source: https://football-logos.cc --></svg>