<svg xmlns="http://www.w3.org/2000/svg" viewBox="0 0 530.56 611.48"><!-- Source: https://football-logos.cc --><defs data-source="https://football-logos.cc"><clipPath id="a"><path d="M0 0h530.559v611.48H0Zm0 0"></path></clipPath></defs><g clip-path="url(#a)"><path d="M68.45 390.668C12.554 272.492 0 139.504 0 43.25V.004h530.559V43.25c0 96.254-12.555 229.242-68.45 347.418C387.172 549.102 265.277 611.48 265.277 611.48S143.391 549.102 68.45 390.668" style="stroke:none;fill-rule:nonzero;fill:#00472f;fill-opacity:1"></path></g><path d="M521.262 9.305V43.25c0 91.52-11.723 225.39-67.559 343.441-37.906 80.137-88.226 134.707-123.765 166.38-30.223 26.929-55.114 42.288-64.66 47.773-9.548-5.489-34.434-20.844-64.657-47.774-35.539-31.672-85.86-86.242-123.766-166.379C21.02 268.641 9.301 134.77 9.301 43.25V9.305zM25.11 25.113V43.25c0 89.898 11.457 221.285 66.04 336.68 36.542 77.254 84.945 129.949 119.113 160.55 23.191 20.77 43.168 34.48 55.015 41.915 11.852-7.434 31.825-21.145 55.02-41.915 34.168-30.601 82.57-83.296 119.113-160.55 54.582-115.395 66.04-246.782 66.04-336.68V25.113z" style="stroke:none;fill-rule:nonzero;fill:#fff;fill-opacity:1" data-source="https://football-logos.cc"></path><path d="M211.96 453.324v-31.246c-1.815 1.692-5.382 4.535-10.698 6.285v-7.492c.847-.305 9.672-3.687 12.27-11h6.769v43.453zM239.71 442.398c.122 1.028.665 4.774 4.837 4.774 5.8 0 6.344-7.492 6.648-11.965l-.12-.121c-2.66 3.262-5.985 3.566-7.555 3.566-6.833 0-12.633-5.562-12.633-14.144 0-8.645 5.62-14.625 13.902-14.625 3.809 0 10.332 1.387 13.356 9.972 1.332 3.805 1.632 7.797 1.632 11.844 0 3.93 0 22.363-15.773 22.363-3.871 0-7.617-1.449-9.973-4.714-1.633-2.297-2.117-4.774-2.3-6.043zm4.652-25.628c-5.316 0-5.316 6.53-5.316 7.738 0 1.027 0 8.097 5.742 8.097 1.086 0 5.68-.421 5.68-7.37 0-4.294-2.114-8.465-6.106-8.465M294.23 453.324h-29.07c.664-6.406 3.867-10.937 12.149-18.672 5.8-5.382 8.582-7.98 8.64-12.148-.058-5.262-4.11-5.742-5.62-5.742-3.868 0-5.618 2.355-5.923 6.77l-8.277-.848c.238-2.055.844-6.586 4.289-9.551 2.96-2.477 7.133-3.262 10.094-3.262 10.035 0 13.718 6.649 13.718 12.086 0 7.555-5.5 12.633-9.73 16.504-4.23 3.926-5.621 5.195-6.77 7.129h16.5zM327.14 418.645c1.755 4.835 1.876 10.335 1.876 13.359 0 2.777-.063 8.277-1.875 13.113-1.75 4.836-5.258 8.945-12.149 8.945-6.949 0-10.515-4.046-12.27-8.824-1.812-4.836-1.812-10.336-1.812-13.355 0-2.903.063-8.403 1.813-13.176 1.812-4.777 5.32-8.824 12.21-8.824s10.395 3.988 12.208 8.762m-17.528 13.359c0 11.48 1.39 15.168 5.32 15.168 3.989 0 5.38-3.746 5.38-15.168 0-11.484-1.391-15.234-5.38-15.234-3.93 0-5.32 3.687-5.32 15.234M113.473 308.805h-7.782l-16.68 43.199 34.044-.172 8.465.188-17.708-43.215zm-3.609 12.578.875 2.328 7.606 19.867h-16.465c.465-1.281 7.453-20.61 7.453-20.61v.005s.266-.801.531-1.59M168.656 308.805h-31.761v43.14h33.144v-8.41h-24.172v-9.574h21.758v-8.41h-21.758v-8.336h23.301v-8.41zM178.45 308.805h-.512v43.14h8.972v-16.011h8.223c2.77 0 5.312-.34 7.554-1.008 2.192-.727 4-1.77 5.399-3.106 1.297-1.347 2.258-2.851 2.875-4.476.543-1.684.816-3.461.816-5.309a14.5 14.5 0 0 0-1.144-5.64c-.672-1.817-1.883-3.395-3.59-4.676-1.594-1.23-3.508-2.078-5.676-2.516-1.539-.265-3.789-.398-6.695-.398zm16.684 8.41c2 0 3.46.086 4.336.258 2.07.668 3.11 2.234 3.11 4.773 0 1.79-.497 3.067-1.517 3.902-1.152.91-3.113 1.375-5.82 1.375h-8.332v-10.308zM257.098 308.805h-9.746l-8.247 12.386s-2.011 3.274-2.656 4.32l-2.43-3.968-8.343-12.738h-10.86s16.637 24.886 16.809 25.14v18h8.973V333.95l17.48-25.144zM296.344 308.805h-8.239v26.55c-1.687-2.535-17.707-26.55-17.707-26.55h-8.34v43.14h8.86v-26.52l17.71 26.52h8.224v-43.14zM336.75 308.805h-31.762v43.14h33.145v-8.41H313.96v-9.574h21.758v-8.41H313.96v-8.336h23.3v-8.41zM353.879 308.805h-8.461v43.14h8.973v-43.14zM384.46 308.805h-7.776l-16.63 43.14h9.688l4.297-11.953h13.86l4.62 11.953h9.918l-17.632-43.14zm-3.602 12.582c.121.32.27.707.27.707l.594 1.586s2.656 7.175 3.093 8.351h-7.882c.433-1.183 3.316-9.062 3.32-9.07.25-.621.441-1.133.605-1.574M439.836 308.691h-31.469v7.192s10.086 12.34 10.586 12.949c-.496.617-12.469 15.64-12.469 15.64v7.47h34.965v-8.41h-23.082c.336-.419 11.88-14.708 11.88-14.708l-8.306-10.097c.004.007-.988-1.223-.988-1.223l-.328-.406h19.723v-8.407zM78.738 55.77h-7.777L54.332 98.91h9.684s4.07-11.312 4.296-11.953h13.86c.242.617 4.621 11.953 4.621 11.953h9.922L79.082 55.77zm-3.605 12.582c.125.32.273.707.273.707L76 70.645 79.09 79h-7.88c.435-1.187 3.317-9.066 3.321-9.074.246-.621.442-1.13.602-1.574M136.879 55.77h-8.234v26.55c-1.692-2.53-17.711-26.55-17.711-26.55h-8.34v43.14h8.86V72.39l17.71 26.52h8.227V55.77zM166.613 55.77h-7.777l-16.629 43.14h9.684s4.07-11.312 4.297-11.953h13.863l4.617 11.953h9.922l-17.633-43.14zm-3.605 12.582c.125.32.273.707.273.707l.594 1.586 3.09 8.355h-7.88c.435-1.187 3.317-9.066 3.321-9.074.246-.621.442-1.13.602-1.574M221.754 55.77h-29.899v43.14h9.086V64.18h21.325v-8.41zM261.984 55.77h-31.761v43.14h33.148V90.5h-24.176v-9.574h21.758v-8.41h-21.758V64.18h23.301v-8.41zM305.488 55.77h-8.234v26.55c-1.692-2.53-17.711-26.55-17.711-26.55h-8.34v43.14h8.86V72.39c1.69 2.528 17.707 26.52 17.707 26.52h8.226V55.77zM348.012 55.77h-8.235v26.55l-17.71-26.55h-8.337v43.14h8.86V72.39l17.707 26.52h8.226V55.77zM390.832 55.77h-8.46v16.18h-16.626V55.77h-8.973v43.14h8.973V80.36h16.625v18.55h8.973V55.77zM432.836 55.656h-31.469v7.192s10.09 12.34 10.586 12.949c-.492.621-12.465 15.64-12.465 15.64v7.47h34.961V90.5h-23.082l11.883-14.71-8.309-10.095c.008.004-.988-1.226-.988-1.226s-.148-.188-.324-.406h19.719v-8.407zM476.035 55.77h-8.46v16.18h-16.626V55.77h-8.969v43.14h8.97V80.36h16.624v18.55h8.973V55.77zM262.262 131.594v57.664h6.043v-57.664zM130.418 264.063l57.668.007v-6.047l-57.664-.003zM212.445 142.324l21.371 53.563 5.614-2.242-21.368-53.56zM170.156 170.75l39.696 41.828 4.382-4.16-39.695-41.828zM141.41 212.824l52.367 24.145 2.532-5.492-52.368-24.141zM66.648 279.469v-8.059H463.91v8.059zM400.14 264.063l-57.667.007v-6.047l57.668-.003zM318.113 142.324l-21.37 53.563-5.614-2.242 21.367-53.56zM360.402 170.75l-39.691 41.828-4.387-4.16 39.696-41.828zM389.148 212.824l-52.367 24.145-2.531-5.492 52.367-24.141zM328.406 263.863c-1.433-33.625-29.144-60.441-63.125-60.441-33.984 0-61.703 26.832-63.12 60.469v.164l126.277.004z" style="stroke:none;fill-rule:nonzero;fill:#fff;fill-opacity:1" data-source="https://football-logos.cc"></path><!-- source: https://football-logos.cc --></svg>