<svg xmlns="http://www.w3.org/2000/svg" viewBox="27.49 119.45 735.15 863.94"><!-- Source: https://football-logos.cc --><path d="M296.796 103.847c6.75-.09 18.18 4.77 53.37 16.38 44.866 14.802 66.51 30.15 80.46 43.56 7.48 7.19 11.88 16.38 17.46 23.31 4.752 5.902 10.44 9.09 15.3 7.83 3.402-.883 9.9-3.241 16.29-1.35 10.705 3.166 13.68 6.84 29.25 29.069 21.53 30.74 44.64 84.96 57.42 126.36 2.897 9.383 5.22 15.12 2.7 22.32-2.604 7.44-6.03 9.36-13.41 15.93-10.758 9.577-19.51 22.376-27 36.9-7.38 14.31-15.84 40.32-11.16 65.07s17.91 41.58 27.09 51.21 14.94 13.32 19.35 17.19 8.19 8.64 8.55 17.91c.3 7.735-4.14 12.51-10.53 28.08-6.887 16.782-14.49 37.26-23.13 61.29-5.65 15.712-7.716 22.905-10.8 27.45-5.13 7.56-13.679 10.656-20.88 10.845-8.55.225-17.404-6.585-43.47-7.695-25.38-1.08-52.11 2.7-103.815 25.245-17.785 7.755-50.453 24.779-60.17 30.19-1.243.692-1.458.86-2.875.86h.004c-1.418 0-1.632-.168-2.875-.86-9.717-5.411-42.385-22.435-60.17-30.19-51.705-22.545-78.435-26.325-103.815-25.245-26.066 1.11-34.92 7.92-43.47 7.695-7.201-.19-15.75-3.285-20.88-10.845-3.085-4.545-5.15-11.738-10.8-27.45-8.64-24.03-16.243-44.508-23.13-61.29-6.39-15.57-10.83-20.345-10.53-28.08.36-9.27 4.14-14.04 8.55-17.91s10.17-7.56 19.35-17.19 22.41-26.46 27.09-51.21-3.78-50.76-11.16-65.07c-7.49-14.524-16.243-27.323-27-36.9-7.38-6.57-10.806-8.49-13.41-15.93-2.52-7.2-.197-12.937 2.7-22.32 12.78-41.4 35.89-95.62 57.42-126.36 15.57-22.23 18.545-25.903 29.25-29.07 6.39-1.89 12.888.468 16.29 1.35 4.86 1.26 10.547-1.927 15.3-7.83 5.58-6.93 9.98-16.12 17.46-23.31 13.95-13.41 35.594-28.757 80.46-43.559 35.19-11.61 46.62-16.47 53.37-16.38z" style="fill:#f14b1c;fill-opacity:1;fill-rule:nonzero;stroke:none" transform="matrix(1.33333 0 0 -1.33333 -.667 1121.853)" data-source="https://football-logos.cc"></path><path d="M173.089 694.262c17.505 3.892 38.02 11.019 62.716 21.787 17.974 7.837 51.054 25.086 60.616 30.41l.213.12.164.089.163-.09.214-.12c9.561-5.323 42.642-22.572 60.616-30.409 24.696-10.768 45.21-17.895 62.716-21.787 14.95-3.324 28.325-4.521 43.367-3.881 16.453.7 26.28 3.577 33.455 5.678 4.127 1.208 7.108 2.081 9.662 2.014 2.612-.069 11.542-.892 16.77-8.597 1.987-2.928 3.684-7.768 6.764-16.553l3.454-9.753c9.92-27.594 17.08-46.562 23.21-61.502 2.27-5.53 4.307-9.747 5.943-13.135 3.098-6.414 4.349-9.161 4.208-12.798-.278-7.137-2.81-10.745-6.808-14.253-1.149-1.008-2.424-2.025-3.9-3.203-3.983-3.175-8.94-7.128-15.78-14.303-15.102-15.843-24.663-33.942-28.416-53.796-4.673-24.71 2.949-51.523 11.64-68.375 8.548-16.573 17.755-29.127 28.149-38.38l3.426-2.99c4.974-4.289 6.834-5.894 8.553-10.804 1.642-4.69.597-8.427-1.923-16.435l-.837-2.677c-11.684-37.847-34.417-93.086-56.72-124.93-15.738-22.47-17.72-24.495-26.503-27.093-4.17-1.233-8.897.098-12.026.979l-1.522.417c-6.766 1.754-14.269-1.737-20.583-9.578-2.26-2.807-4.332-5.948-6.335-8.985-3.168-4.801-6.442-9.767-10.684-13.844-8.1-7.787-16.884-14.304-27.645-20.513-13.87-8.002-30.509-15.157-50.867-21.874-10.127-3.34-18.337-6.14-24.934-8.389-15.203-5.183-22.834-7.785-26.76-7.733l-.07.001h-.064c-3.926-.053-11.558 2.549-26.76 7.732-6.597 2.249-14.807 5.048-24.934 8.39-20.358 6.716-36.998 13.87-50.867 21.873-10.76 6.209-19.546 12.726-27.645 20.513-4.242 4.077-7.517 9.043-10.684 13.844-2.004 3.037-4.075 6.178-6.336 8.985-6.314 7.841-13.816 11.332-20.583 9.578l-1.521-.417c-3.13-.881-7.857-2.212-12.026-.98-8.784 2.599-10.765 4.624-26.504 27.094-22.303 31.844-45.036 87.083-56.72 124.93l-.836 2.677c-2.52 8.008-3.565 11.745-1.923 16.435 1.718 4.91 3.58 6.515 8.553 10.805l3.426 2.988c10.394 9.254 19.601 21.808 28.148 38.38 8.691 16.853 16.314 43.666 11.642 68.376-3.755 19.854-13.316 37.953-28.418 53.796-6.84 7.175-11.797 11.128-15.78 14.303-1.476 1.178-2.75 2.195-3.9 3.203-3.997 3.508-6.53 7.116-6.807 14.253-.141 3.637 1.11 6.384 4.207 12.798 1.637 3.388 3.673 7.606 5.942 13.135 6.132 14.94 13.29 33.908 23.212 61.502l3.453 9.753c3.08 8.785 4.778 13.625 6.765 16.553 5.228 7.705 14.158 8.528 16.77 8.597 2.554.067 5.535-.806 9.662-2.014 7.175-2.1 17.002-4.978 33.455-5.678 15.042-.64 28.417.557 43.367 3.88" style="fill:#fff;fill-opacity:1;fill-rule:nonzero;stroke:none" transform="matrix(1.33333 0 0 -1.33333 -.667 1121.853)"></path><path d="M354.71 682.951c43.47-17.685 71.002-21.156 92.611-20.115 16.642.802 26.922 4.003 33.48 5.94 5.94 1.755 11.34 1.35 15.525-1.62s5.535-5.67 9.18-15.66 11.098-30.442 16.74-44.144c6.615-16.066 10.288-21.465 10.395-26.19.135-5.94-2.1-10.213-7.155-14.446-5.805-4.86-24.435-20.655-33.48-46.844-9.045-26.19-9.66-50.372-2.565-82.08 6.615-29.565 19.305-50.896 25.785-59.94 6.48-9.045 11.475-11.07 13.77-15.93 2.295-4.861 2.16-8.91-1.35-19.44s-13.89-41.957-37.395-78.706c-19.17-29.97-30.489-46.91-39.825-47.79-7.155-.675-8.606 1.41-12.285 1.62-4.725.27-10.125-1.214-15.66-8.64-5.535-7.425-9.8-16.788-19.035-25.244-22.41-20.52-53.865-30.915-73.845-38.07s-28.215-10.666-32.805-10.666h.004c-4.59 0-12.825 3.51-32.805 10.665-19.98 7.156-51.435 17.55-73.845 38.07-9.236 8.457-13.5 17.82-19.035 25.245s-10.935 8.91-15.66 8.64c-3.679-.21-5.13-2.295-12.285-1.62-9.336.88-20.655 17.82-39.825 47.79-23.506 36.75-33.885 68.175-37.395 78.705s-3.645 14.58-1.35 19.44 7.29 6.886 13.77 15.93 19.17 30.376 25.785 59.94c7.095 31.709 6.48 55.89-2.565 82.08s-27.675 41.985-33.48 46.845c-5.055 4.233-7.29 8.506-7.155 14.445.107 4.726 3.78 10.125 10.395 26.19 5.642 13.703 13.095 34.156 16.74 44.146s4.995 12.69 9.18 15.66 9.585 3.374 15.525 1.62c6.558-1.938 16.838-5.139 33.48-5.94 21.609-1.042 49.14 2.43 92.61 20.114 30.717 12.497 57.915 29.385 57.915 29.385s27.194-16.888 57.911-29.385z" style="fill:#f14b1c;fill-opacity:1;fill-rule:nonzero;stroke:none" transform="matrix(1.33333 0 0 -1.33333 -.667 1121.853)"></path><path d="M258.19 277.614c-1.037-1.263-2.97-3.578-3.308-4.725a76 76 0 0 1-1.62-6.817c-.607-3.173-.675-3.713-1.62-4.253s-1.62.067-2.497 1.417c-.878 1.35-2.228 4.185-2.228 6.616s.203 5.264.203 5.264c-1.08 2.16-1.417 5.67-1.147 6.75s2.294 1.756 4.657 2.026 5.13.54 5.13.54 4.86 5.534 9.045 9.854 7.02 5.063 8.505 5.265c1.485.203 2.093.203 2.093.203l1.282 1.282c-1.282.878-1.89 2.296-2.7 3.713s-1.485 2.295-1.485 2.295c1.62 2.565 3.712 4.185 6.48 9.45 1.46 2.78.607 3.105-.068 5.332-.675 2.228-.607 3.848.675 6.345 1.283 2.498 3.105 4.388 3.105 4.388s-.068 1.148.608 3.848.945 3.307.878 5.197c-.068 1.89.27 2.16.27 2.16-1.283 4.32-1.89 10.8-1.62 13.77s.81 4.792.81 4.792c-2.566.27-10.26.203-10.26.203l-.338.405s-2.093-.877-3.375-1.687c-1.283-.811-2.228-1.823-5.333-3.443s-5.602-2.228-8.774-3.443c-3.173-1.215-4.726-2.43-4.726-2.43-.54-2.362-1.147-5.332-2.97-7.087-1.822-1.755-3.037-2.497-3.915-1.823-.877.676-.81 1.418-.81 1.418-2.7-.135-2.97 1.957-2.632 4.185.337 2.228 1.687 4.792 3.848 5.737s4.252 1.215 4.252 1.215c2.294 2.026 8.775 7.155 14.04 10.598 5.265 3.442 8.775 3.78 8.775 3.78.067 1.485.742 2.497.742 2.497 3.712.068 6.143 1.35 9.248 2.43s5.197 1.755 7.762 1.755 6.076-.405 6.076-.405.876.878 1.89 2.295c1.011 1.418.81 2.16.54 3.038s-1.013 1.957-.406 5.332c.608 3.375 1.823 4.456 4.523 6.278 2.7 1.823 6.615 1.283 7.627.54 1.013-.742 2.295-1.553 3.375-1.958 1.08-.404 1.35-.54 1.756-1.35.404-.81.81-1.89.27-2.97s-1.283-1.687-1.283-1.687c.27-2.498-.203-3.375-1.08-4.86-.878-1.485-.743-2.633-.54-3.982s-.135-1.35-.675-1.418-.675-.203-.945-.608-.742-1.147-.742-1.147c.674-.473 4.252-2.498 7.154-2.97 2.903-.473 4.658-.27 5.468-.54s.878-1.35.878-1.35c.877 0 3.172-.135 3.172-.135 1.485 1.418 2.632 1.35 5.535 1.485s6.413.068 6.413.068c4.387 5.467 5.94 5.805 6.75 5.872s2.159-.878 3.037-1.755c.877-.877.675-1.553.675-1.553.675-.54.945-1.147.068-2.497-.878-1.35-1.485-.878-1.485-.878s-.81-1.012-3.173-1.89-4.05-.81-4.05-.81-1.89-.945-5.468-2.97c-3.577-2.025-5.13-1.754-7.897-1.552s-4.118-.473-4.118-.473l-.405-.877c-.404-.877-1.282-.405-2.632-.473s-1.688-.202-3.577-.742-4.591-.405-4.591-.405-1.214-7.628-2.227-10.463-3.038-6.547-3.038-6.547-.067-1.89-.81-3.983c-.742-2.092-.472-4.724-.54-6.682-.067-1.957-.82-4.544-.82-4.544 7.057-3.274 8.536-6.349 10.743-9.159 2.228-2.835 3.915-4.927 3.915-5.332s-.743-.54-.743-.54 3.173-2.632 4.523-4.792.81-4.388.405-6.346c-.405-1.957-1.08-3.24-2.903-6.884s-4.455-8.168-5.805-11.948-2.565-9.112-2.7-10.53c-.134-1.417-.27-6.345.608-8.707.877-2.363 2.35-4.336 2.35-4.336a9.08 9.08 0 0 0 8.675 6.394 9.08 9.08 0 0 0 9.077-9.079 9.077 9.077 0 0 0-9.077-9.078 9.08 9.08 0 0 0-8.126 5.026s-3.102-.335-4.654 1.15a23.5 23.5 0 0 0-3.51 4.185c-.945 1.417-3.75 3.515-6.143 5.063-2.295 1.485-2.834 1.957-2.497 3.24.338 1.282.877 2.024 2.835 3.442 1.958 1.417 2.228 1.822 3.24 5.197s.877 4.928.877 8.168-.261 6.568 1.216 11.34c2.025 6.547 5.197 8.505 5.197 8.505s-1.282.608-3.443.743c0 0-1.822-4.32-3.375-5.873 0 0-2.375.6-4.32 2.767-2.362 2.633-4.184 3.646-4.184 3.646s-6.75-9.113-8.978-10.193c0 0-.607.27-1.418.945 0 0-1.08-1.823-6.277-3.645-5.198-1.823-11.07-4.928-13.838-6.817s-5.197-3.375-7.357-6.008M118.33 643.396c58.455-19.035 118.665-28.08 178.47-28.214h-.004c59.805.134 120.014 9.18 178.47 28.214l-1.045 3.21c-56.734-18.475-116.43-27.912-177.433-28.05-60.983.138-120.68 9.575-177.413 28.05ZM198.79 200.326s4.276-6.212 19.17-15.794c19.305-12.42 41.58-19.575 51.3-22.95s27.536-9.99 27.536-9.99 17.82 6.615 27.54 9.99 31.995 10.53 51.3 22.95c14.894 9.582 19.17 15.794 19.17 15.794l-2.765 1.935c-.042-.058-4.304-5.93-18.23-14.891-17.47-11.238-37.393-18.073-48.097-21.745l-2.485-.855c-8.206-2.85-22.302-8.051-26.433-9.58-4.13 1.529-18.224 6.73-26.429 9.58l-2.486.855c-10.703 3.672-30.627 10.507-48.095 21.745-13.928 8.96-18.19 14.833-18.23 14.89zM474.59 533.506H119.006v3.375H474.59z" style="fill:#fff;fill-opacity:1;fill-rule:nonzero;stroke:none" transform="matrix(1.33333 0 0 -1.33333 -.667 1121.853)" data-source="https://football-logos.cc"></path><path d="M296.8 193.937c-24.21 0-56.1 5.545-84.15 29.52-21.06 18-36.72 40.14-42.12 75.06-2.677 17.313 4.163 71.836 6.48 94.14 6.3 60.66 9.09 72.81 3.285 90.224-2.428 7.286-5.06 10.637-8.64 14.985-1.89 2.295-1.834 3.792-.756 5.498.621.983 2.68.983 4.806.983h82.08c4.59 0 6.48-2.7 3.78-5.4-2.299-2.3-8.07-8.52-10.935-14.446-5.94-12.285-7.02-17.82-8.775-34.02s-9.855-90.45-13.23-121.634c-3.375-31.186 1.08-47.116 7.56-66.015s27.405-51.706 60.615-51.706h-.004c33.21 0 54.135 32.806 60.615 51.706s10.935 34.83 7.56 66.015-11.475 105.435-13.23 121.634c-1.755 16.2-2.835 21.735-8.775 34.02-2.866 5.926-8.637 12.146-10.935 14.446-2.7 2.7-.81 5.4 3.78 5.4h82.08c2.126 0 4.185 0 4.806-.983 1.077-1.706 1.133-3.203-.756-5.498-3.58-4.348-6.212-7.699-8.64-14.985-5.805-17.415-3.015-29.564 3.285-90.224 2.316-22.304 9.157-76.827 6.48-94.14-5.4-34.92-21.06-57.06-42.12-75.06-28.05-23.975-59.94-29.52-84.15-29.52zm-67.772 259.729c2.179 1.983 2.338 5.389.354 7.567l-10.033 11.02c-1.984 2.179-5.39 2.338-7.57.354L199.034 461c-2.178-1.983-2.338-5.389-.354-7.567l10.034-11.02c1.984-2.179 5.39-2.338 7.568-.354zm148.286-11.607c2.18-1.984 5.585-1.825 7.569.354l10.034 11.02c1.984 2.178 1.824 5.584-.355 7.567l-12.746 11.607c-2.179 1.984-5.585 1.825-7.569-.354l-10.034-11.02c-1.983-2.178-1.824-5.584.355-7.567zM103.349 355.833l-8.144-26.573a4.91 4.91 0 0 1 3.247-6.118l.397-.121a4.91 4.91 0 0 1 6.117 3.248l9.58 31.258c.79 2.575-.671 5.328-3.247 6.117l-7.53 2.308c-2.373.728-5.127-.367-5.897-2.664-.805-2.4-.253-3.994 1.158-5.467 1.328-1.386 4.319-1.988 4.319-1.988M468.789 348.41l-6.36-29.647c-1.224-5.413-4.385-5.726-7.372-4.807s-3.095 3.7-2.478 6.44l5.77 26.902-10.965-2.77c-3.299-.835-5.426 1.598-5.965 3.73s.94 5.044 4.696 5.993l17.107 4.324c2.069.577 4.243-.332 5.325-1.624 1.083-1.293 1.335-2.716.242-8.54M129.475 317.88c-3.922-1.974-5.496-1.573-7.36-.785s-2.916 3.058-2.48 5.267c.434 2.21 2.909 3.218 4.828 4.134 1.918.916 5.106 2.958 5.106 2.958-7.444 2.576-12.029 9.869-10.425 17.12 1.739 7.863 10.096 12.702 18.665 10.807s14.075-9.799 12.367-17.67c-2.85-13.124-16.779-19.856-20.701-21.83m6.379 30.255c-3.083.681-6.078-1.01-6.69-3.778s1.39-5.564 4.473-6.246c3.082-.681 6.076 1.01 6.69 3.778.611 2.768-1.391 5.565-4.473 6.246M501.357 327.533c-2.346-3.712-3.901-4.178-5.904-4.463-2.003-.284-4.075 1.12-4.84 3.239s.839 4.256 2.012 6.03c1.173 1.773 2.854 5.164 2.854 5.164-7.708-1.624-15.393 2.267-17.752 9.31-2.558 7.636 2.115 16.086 10.437 18.874 8.322 2.787 17.111-1.154 19.699-8.78 4.315-12.719-4.16-25.662-6.506-29.374m-10.11 29.221c-2.993-1.003-4.69-3.994-3.789-6.682.9-2.688 4.056-4.054 7.05-3.052s4.69 3.995 3.79 6.683-4.057 4.054-7.05 3.051M242.502 591.155a3.573 3.573 0 0 1-3.875-3.218l-2.714-29.296a3.57 3.57 0 0 1 3.218-3.876l.726-.068a3.57 3.57 0 0 1 3.875 3.219l2.715 29.296a3.573 3.573 0 0 1-3.218 3.876zM325.454 589.554a3.57 3.57 0 0 1-3.399-3.718l1.315-29.392a3.573 3.573 0 0 1 3.717-3.4l.73.033a3.57 3.57 0 0 1 3.399 3.718l-1.316 29.392a3.57 3.57 0 0 1-3.717 3.4zM286.519 570.861c-.317-10.376-8.87-18.533-19.1-18.22-10.232.312-18.27 8.978-17.952 19.354s8.869 18.534 19.1 18.221c10.233-.313 18.27-8.978 17.952-19.355m-18.86-10.37c5.886-.18 10.826 4.58 11.01 10.61.184 6.032-4.455 11.085-10.341 11.265-5.888.18-10.827-4.58-11.012-10.611-.184-6.031 4.455-11.085 10.343-11.265M214.486 568.375l8.41 9.422-1.783-16.457c-.394-2.8-.196-4.784 2.923-5.167 3.222-.395 4.541.363 4.886 4.336l2.89 26.667c.415 3.272-.713 4.806-2.987 5.177-1.862.303-2.671-.58-4.57-2.659l-11.957-13.37-7.818 16.132c-1.256 2.52-1.793 3.59-3.666 3.809-2.29.267-3.794-.9-4.292-4.16l-4.527-26.439c-.756-3.916.304-5.005 3.511-5.508 3.105-.487 3.84 1.367 4.228 4.168l2.793 16.316 5.535-11.423c1.556-3.101 4.657-2.945 6.424-.844M360.993 583.378c1.058 1.686 1.211 3.648-1.199 5.269-1.602 1.078-3.581 2.031-5.523 2.42-4.19.842-11.129.773-15.778-3.747-4.648-4.52-3.346-10.652-1.067-13.422s4.885-4.086 10.397-4.477c5.513-.392 8.518-1.244 8.954-3.728.371-2.12-2.271-4.037-5.019-4.506-2.742-.467-5.931-.219-9.176 1.862-2.487 1.593-4.424.977-5.652-.41-1.229-1.386-1.189-4.094 1.578-5.853 5.367-3.447 10.639-3.613 14.504-2.953 3.858.657 7.352 2.739 9.347 5.568 1.455 2.063 2.106 4.479 1.864 6.872a10 10 0 0 1-.097.708c-.39 2.222-1.85 6.258-7.253 8.328-2.132.816-4.684 1.23-8.52 1.554-2.958.25-4.084.672-4.783 1.339-.698.666-1.289 2.343.125 3.769 2.386 2.406 5.952 2.634 9.109 1.782 2.808-.76 3.912-1.806 5.241-1.935 1.33-.129 2.313.55 2.948 1.56M392.125 587.766c.988 1.728 1.06 3.695-1.414 5.215-1.646 1.011-3.662 1.882-5.618 2.192-4.22.667-11.151.314-15.61-4.394-4.46-4.708-2.906-10.78-.516-13.454s5.05-3.882 10.574-4.046c5.523-.165 8.561-.893 9.098-3.357.46-2.104-2.103-4.127-4.828-4.708-2.723-.58-5.918-.463-9.246 1.483-2.55 1.49-4.46.794-5.63-.641-1.17-1.437-1.02-4.14 1.817-5.785 5.505-3.222 10.779-3.171 14.613-2.354 3.828.815 7.234 3.039 9.11 5.948 1.37 2.121 1.92 4.562 1.58 6.943q-.05.353-.126.703c-.48 2.204-2.105 6.177-7.59 8.023-2.163.728-4.73 1.036-8.577 1.203-2.964.128-4.107.503-4.832 1.14-.726.637-1.384 2.289-.03 3.771 2.284 2.502 5.838 2.878 9.027 2.155 2.837-.642 3.985-1.642 5.317-1.717 1.333-.074 2.289.643 2.881 1.68M505.22 592.093c-1.866-1.75-4.432-3.428-7.544-4.607-10.676-4.042-20.867-.147-24.776 10.243-3.112 8.271-.037 17.322 6.968 22.24 3.176 2.23 8.465 3.97 13.051 3.776 2.434-.103 4.031-1.164 4.013-3.983s-2.395-3.276-3.92-3.34c-3.045-.125-5.427-.463-8.576-2.42-4.308-2.676-5.704-8.443-3.861-13.329 1.111-2.947 2.85-5.009 5.167-6.127 2.628-1.269 5.975-1.25 9.426.056 1.897.716 3.474 1.793 4.713 2.875 1.709 1.39 3.115 2.391 5.585.83 2.47-1.563 1.943-4.16-.246-6.214M299.481 555.747a3.57 3.57 0 0 1 3.562-3.561h.73a3.57 3.57 0 0 1 3.562 3.561l.021 25.916h7.685c1.959 0 3.562 1.59 3.562 3.535 0 1.943-1.603 3.534-3.562 3.534h-23.265c-1.959 0-3.562-1.59-3.562-3.534 0-1.945 1.603-3.535 3.562-3.535h7.726zM465.751 591.126a3.573 3.573 0 0 1 2.404 4.427l-.064.215a3.57 3.57 0 0 1-4.426 2.404l-10.848-3.211-2.06 6.96 12.659 3.749a3.57 3.57 0 0 1 2.404 4.427l-.063.215a3.574 3.574 0 0 1-4.427 2.404l-2.925-.866-6.831-2.022-7.019-2.078a3.573 3.573 0 0 1-2.404-4.427l8.352-28.212a3.573 3.573 0 0 1 4.427-2.404l.7.207a3.573 3.573 0 0 1 2.404 4.427l-3.132 10.577zM176.35 583.45l-9.636 2.028 2.027 9.632 9.81-2.064c1.719-.361 3.801-1.549 3.004-5.34s-2.774-4.767-5.205-4.256m7.306-4.621c2.89 1.525 5.285 4.059 6.072 7.799 1.208 5.74-2.191 11.965-9.853 13.577l-12.525 2.635c-3.331.7-5.204-.778-5.82-3.859l-5.544-26.348c-.737-3.416-.052-4.724 2.876-5.3 2.89-.569 4.102.42 4.808 3.675.592 2.816 1.678 7.962 1.678 7.962l8.072-1.699c2.818-.592 4.082-1.26 4.475-2.827.393-1.568-.71-3.944-.21-6.336s1.967-5.15 4.849-5.755c2.882-.607 4.196.682 4.702 1.94.505 1.258-.057 2.78-.965 3.613s-1.01 1.45-.751 3.49c.184 1.445.19 3.571-.58 5.258-.768 1.686-1.284 2.175-1.284 2.175M141.575 597.104l1.614-10.221-8.528 2.55zm-12.163-13.535 14.949-4.468.827-5.277c.611-4.174 4.166-4.522 5.555-3.9 1.51.679 2.019 2.184 1.685 4.43L148.05 602.9c-.488 3.243-.525 5.251-2.846 5.895-2.573.715-3.665-.926-5.849-3.341l-19.294-21.424c-1.51-1.696-1.912-3.233-1.021-4.629.818-1.282 3.981-2.942 6.783.212zM97.97 598.25l-2.542-6.553a3.573 3.573 0 0 0-4.609-2.033l-.68.264a3.573 3.573 0 0 0-2.034 4.61l10.64 27.43a3.57 3.57 0 0 0 4.608 2.033l.68-.263a3.57 3.57 0 0 0 2.033-4.61l-4.618-11.909 20.53 8.63c1.805.76 3.886-.052 4.623-1.804s-.138-3.807-1.943-4.568l-13.797-5.788 6.145-17.7a3.573 3.573 0 0 0-2.197-4.533l-.69-.239a3.57 3.57 0 0 0-4.533 2.197l-5.963 17.176zM411.81 587.238l6.212-8.277-8.73-1.74zm-4.414-17.654 15.303 3.048 3.2-4.275c2.495-3.402 5.8-2.046 6.735-.845 1.017 1.306.761 2.874-.584 4.703l-17.232 23.175c-1.95 2.638-2.922 4.394-5.275 3.878-2.608-.574-2.805-2.535-3.604-5.691l-7.02-27.964c-.543-2.205-.177-3.751 1.264-4.568 1.323-.75 4.896-.736 5.895 3.362zM291.535 656.807c-.34-.817-.9-1.756-1.305-1.71-.405.044-1.17 1.44-1.665 2.294s-.675 1.035-1.44 1.035-1.395-.404-3.42-.27c-1.26.084-2.115.855-3.105 1.17s-.9.856-1.62.99c-.72.135-.855.675-.945 1.26s.225 1.215-.225 1.53-.675.855-.72 1.53c-.045.676.09 1.17-.316 1.395-.404.225-.584.63-.224 1.17s.09.945-.54 1.395-.765.675-.405 1.395 1.125.18 1.8-.225c.675-.404 1.71-.674 2.52-.27.81.405.54.675 1.26 1.395s1.214.99 1.665.63c.45-.36.765-.27 1.71.315s2.025.36 2.52 0 .495-.81 1.17-.45 1.35.676 1.53 1.08c.18.405.225 1.485.36 1.89s.54 1.08.495 1.71.045.9.36.81.945-.36 2.205-.54 2.25-.585 3.69-.72 2.43-.18 3.465-.495 2.16-.27 2.925.135 1.125.63 1.8.45 1.125-.315 1.62.045.855.72 1.574.72c.721 0 1.71-.135 2.206-.045.495.09.765.54 1.35.495s.855 0 1.305.27.9.675 1.575.63 1.215.495 1.62 1.44.72.765 1.44.585 1.395-.18 2.34.54 1.755.72 2.835 1.395 2.42 1.235 2.61.855c.18-.36-.495-1.305-1.575-1.665s-1.26-.45-1.935-1.305-1.396-.9-1.845-1.26-.765-1.035-1.755-1.305-1.53-.855-2.296-1.17c-.764-.315-1.214-.81-1.664-1.395s-.765-.9-1.53-.9-1.62.045-2.025-1.26c-.406-1.305-.315-2.205.315-2.744s1.035-1.08 1.08-1.44.45-.9.9-1.396 1.215-.855 1.305-1.53-.225-1.215-.72-.675-1.665.585-2.385.225-1.26-.81-1.755-.63-.855.676-1.35.945c-.495.27-1.89.405-2.475.045s-1.305-.945-1.17-1.845-.315-1.89-.765-2.205-.585-.18-1.035.045-.99-.27-1.755-.855-1.305-1.17-2.655-1.44-2.655-.09-3.87-.09-1.935-.225-2.385-.63-.45-.81-.675-1.35zM304.315 641.46s-1.035 3.601.99 7.696c1.713 3.464 4.59 4.23 4.59 4.23s.585-3.465-1.485-7.065-4.095-4.86-4.095-4.86M311.583 644.071c-.473.136-1.452 3.004.202 6.244 1.785 3.498 4.523 5.434 4.523 5.434s.775-1.779-.237-4.961c-1.856-5.84-4.488-6.717-4.488-6.717M322.112 659.057s-2.7-1.823-3.982-5.502-.202-5.805.405-6.345c0 0 2.058.912 3.274 4.354 1.214 3.443.607 5.771.303 7.493M306.183 639.549s.404-2.092 2.902-4.05 6.21-1.755 8.1-1.62c0 0-.979 2.16-3.95 3.848-2.969 1.687-5.062 1.822-7.052 1.822M312.19 641.372s.877-2.33 3.713-3.477c2.834-1.147 6.58-.372 7.83.472 0 0-2.519 2.545-5.435 3.275-3.51.877-6.108-.27-6.108-.27M318.805 645.084s.878-1.823 4.253-3.173 6.243-.877 7.424-.304c0 0-2.024 2.937-4.691 3.713s-4.725.777-6.986-.236M326.028 648.223s.607-1.924 4.826-2.262c4.218-.337 6.108.844 6.547 1.62 0 0-1.687 2.295-5.164 2.025s-6.21-1.383-6.21-1.383M330.989 651.935s1.147-1.518 4.353-1.417 7.223 1.62 8.573 4.421c0 0-3.848.81-7.256 0-3.41-.81-5.367-2.16-5.67-3.004M327.85 663.106s-2.7-2.733-3.409-6.108.574-5.265.912-5.535c0 0 1.484 1.282 2.8 4.353 1.317 3.072.845 6.244-.303 7.29M334.397 668.203s-2.564-1.722-3.746-5.974.135-6.413.135-6.413 1.89.574 3.139 3.713 1.147 6.581.472 8.674M345.501 666.009s-2.633.169-5.839-2.261-4.792-4.624-4.489-6.818c0 0 1.047-.337 4.32 1.519s5.637 4.286 6.008 7.56" style="fill:#fff;fill-opacity:1;fill-rule:nonzero;stroke:none" transform="matrix(1.33333 0 0 -1.33333 -.667 1121.853)"></path><path d="M299.271 638.132c4.815-1.171 5.265-2.52 5.265-2.52-1.51.118-4.593.948-7.744 1.866l-.142-.044c-3.098-.901-6.106-1.706-7.59-1.823 0 0 .45 1.35 5.265 2.52l.146.033c-.848.253-1.674.502-2.445.733-4.815 1.439-6.66 2.52-6.66 2.52s6.557-1.527 11.434-2.691l.119.029c4.863 1.16 11.311 2.662 11.311 2.662s-1.845-1.081-6.66-2.52c-.762-.229-1.576-.474-2.413-.724zM289.28 641.46s1.036 3.601-.989 7.696c-1.713 3.464-4.59 4.23-4.59 4.23s-.585-3.465 1.485-7.065 4.095-4.86 4.095-4.86M282.013 644.071c.473.136 1.452 3.004-.202 6.244-1.785 3.498-4.522 5.434-4.522 5.434s-.776-1.779.235-4.961c1.856-5.84 4.49-6.717 4.49-6.717M271.483 659.057s2.7-1.823 3.983-5.502.202-5.805-.405-6.345c0 0-2.059.912-3.274 4.354s-.607 5.771-.304 7.493" style="fill:#fff;fill-opacity:1;fill-rule:nonzero;stroke:none" transform="matrix(1.33333 0 0 -1.33333 -.667 1121.853)"></path><path d="M287.414 639.549s-.405-2.092-2.903-4.05-6.21-1.755-8.1-1.62c0 0 .979 2.16 3.949 3.848s5.062 1.822 7.054 1.822M281.406 641.372s-.878-2.33-3.713-3.477-6.581-.372-7.83.472c0 0 2.518 2.545 5.434 3.275 3.51.877 6.109-.27 6.109-.27M274.791 645.084s-.877-1.823-4.252-3.173-6.245-.877-7.426-.304c0 0 2.025 2.937 4.692 3.713 2.666.777 4.724.777 6.986-.236M267.568 648.223s-.607-1.924-4.826-2.262c-4.219-.337-6.108.844-6.547 1.62 0 0 1.687 2.295 5.163 2.025s6.21-1.383 6.21-1.383M262.607 651.935s-1.148-1.518-4.354-1.417-7.222 1.62-8.572 4.421c0 0 3.847.81 7.256 0s5.366-2.16 5.67-3.004M265.746 663.106s2.7-2.733 3.408-6.108c.71-3.375-.573-5.265-.91-5.535 0 0-1.485 1.282-2.802 4.353-1.316 3.072-.844 6.244.304 7.29M259.198 668.203s2.565-1.722 3.747-5.974-.135-6.413-.135-6.413-1.89.574-3.14 3.713c-1.248 3.139-1.147 6.581-.472 8.674M248.095 666.009s2.633.169 5.839-2.261 4.792-4.624 4.488-6.818c0 0-1.046-.337-4.32 1.519s-5.636 4.286-6.007 7.56" style="fill:#fff;fill-opacity:1;fill-rule:nonzero;stroke:none" transform="matrix(1.33333 0 0 -1.33333 -.667 1121.853)" data-source="https://football-logos.cc"></path><!-- source: https://football-logos.cc --></svg>