<svg xmlns="http://www.w3.org/2000/svg" viewBox="0 0.03 250 249.97"><!-- Source: https://football-logos.cc --><style data-source="https://football-logos.cc">.s0{fill:#87b7e8}.s1{fill:#660434}</style><path d="M121.2.1c-.5 0-1.9.1-3 .1-1.2.1-3 .2-4 .3s-2.9.3-4.2.4c-1.2.2-3.3.4-4.6.6-1.3.3-3.7.7-5.3 1s-4 .9-5.4 1.2c-1.4.4-3.4.9-4.6 1.2-1.1.3-2.8.9-3.8 1.2-1.1.3-2.7.9-3.8 1.3-1 .4-3 1.1-4.3 1.6-1.3.6-3.4 1.5-4.7 2.1-1.3.5-3.6 1.7-5.2 2.5s-3.8 2-5 2.7c-1.2.6-2.9 1.6-3.8 2.2-1 .6-2.6 1.6-3.6 2.3-1.1.7-2.7 1.9-3.6 2.5-1 .7-2.2 1.6-2.9 2.1-.6.5-1.7 1.3-2.4 1.9s-2 1.6-2.8 2.3c-.7.7-2.1 1.8-2.9 2.6-.9.7-2.9 2.8-4.6 4.5s-3.7 3.7-4.5 4.6c-.8.8-1.8 2-2.3 2.6-.6.6-1.6 1.9-2.3 2.8-.8.9-1.8 2.2-2.4 3-.5.7-1.5 2-2.1 2.8-.6.9-1.8 2.7-2.7 4s-2.1 3.3-2.7 4.3-1.6 2.6-2.1 3.6-1.7 3.3-2.6 5.1c-1 1.8-2.2 4.5-2.8 6-.7 1.5-1.5 3.5-1.9 4.6s-1.2 3.1-1.6 4.5c-.5 1.3-1.1 3.2-1.3 4-.3.8-.8 2.5-1.1 3.7s-.8 3.3-1.2 4.7c-.3 1.4-.7 3.4-.9 4.3-.1.9-.4 2.6-.6 3.6-.2 1.1-.4 2.9-.6 4.1-.1 1.1-.3 2.8-.4 3.7-.1 1-.2 2.8-.3 4.1s-.2 4.2-.3 6.3c0 2.4 0 5.1.1 6.8.1 1.5.2 3.7.3 4.9.1 1.1.3 3.1.4 4.4s.4 3.2.5 4.2c.2 1 .4 2.5.6 3.4.1.8.5 2.5.7 3.8.3 1.3.8 3.4 1.1 4.6.3 1.3.7 2.9.9 3.7s.7 2.3 1 3.5c.4 1.1 1 2.9 1.4 3.9.3 1.1.9 2.8 1.3 3.8s1.1 2.7 1.5 3.7 1.1 2.5 1.6 3.5c.4.9 1.3 2.8 2 4.1s1.6 3.2 2.1 4c.5.9 1.5 2.6 2.2 3.9.7 1.2 2.2 3.4 3.1 4.9 1 1.5 2.5 3.5 3.2 4.5s1.9 2.5 2.5 3.3c.7.9 1.8 2.3 2.5 3.1.7.9 1.7 2 2.3 2.7.5.6 2 2.1 3.1 3.4 1.2 1.2 3.2 3.2 4.5 4.4 1.2 1.2 2.7 2.6 3.4 3.2.6.5 1.9 1.6 2.8 2.4.9.7 2.4 1.9 3.3 2.7 1 .7 2.4 1.8 3.3 2.4.8.6 2.7 1.9 4.2 2.9 1.4 1 3.6 2.4 4.8 3.1 1.3.7 3.1 1.8 4 2.3 1 .5 3.2 1.7 4.9 2.5 1.6.8 4 1.9 5.2 2.5 1.1.5 2.8 1.2 3.7 1.5.8.4 2.4.9 3.4 1.3s2.8 1 4.1 1.4l3.9 1.3c1 .2 2.6.7 3.7 1 1.2.3 3 .7 4.2 1 1.2.2 3.1.6 4.2.8s2.8.5 3.8.7c1 .1 2.7.3 3.9.5 1.1.1 3.3.3 4.7.5 1.4.1 3.6.2 4.9.3 1.2.1 3.8.1 5.7.1s4.5 0 5.7-.1c1.3-.1 3.5-.2 4.9-.3 1.4-.2 3.6-.4 4.7-.5 1.2-.2 2.9-.4 3.9-.5 1-.2 2.8-.5 4-.7 1.3-.3 3.2-.6 4.2-.9 1.1-.2 2.8-.6 4-.9 1.1-.3 2.7-.8 3.7-1l3.9-1.3c1.3-.4 3.1-1 4.1-1.4s2.7-1 3.7-1.4c1.1-.4 2.8-1.2 3.9-1.6 1-.5 3.2-1.5 4.8-2.3 1.7-.9 3.8-2 4.8-2.5.9-.5 2.7-1.6 4-2.3 1.2-.7 3.4-2.1 4.8-3.1 1.5-1 3.4-2.3 4.2-2.9.9-.6 2.3-1.7 3.3-2.4.9-.8 2.4-2 3.3-2.7.9-.8 2.2-1.9 2.8-2.4.7-.6 2.2-2 3.4-3.2 1.3-1.2 3.3-3.2 4.5-4.4 1.1-1.3 2.6-2.8 3.1-3.4.6-.7 1.6-1.8 2.3-2.7.7-.8 1.8-2.2 2.5-3.1.6-.8 1.8-2.3 2.5-3.3s2.2-3 3.2-4.5c.9-1.5 2.4-3.7 3.1-4.9.7-1.3 1.7-3 2.2-3.9.5-.8 1.4-2.7 2.1-4s1.6-3.2 2-4.1c.5-1 1.2-2.5 1.6-3.5s1.1-2.7 1.5-3.7 1-2.7 1.3-3.8c.4-1 1-2.8 1.4-3.9.3-1.2.8-2.7 1-3.5s.6-2.4.9-3.7c.3-1.2.8-3.3 1.1-4.6.2-1.3.6-3 .7-3.8.2-.9.4-2.4.6-3.4.1-1 .4-2.9.5-4.2s.3-3.3.4-4.4c.1-1.2.2-3.4.3-4.9.1-1.7.1-4.4.1-6.8-.1-2.1-.2-5-.3-6.3s-.2-3.1-.3-4.1c-.1-.9-.3-2.6-.4-3.7-.2-1.2-.4-3-.6-4.1-.2-1-.5-2.7-.6-3.6-.2-.9-.6-2.9-.9-4.3-.4-1.4-.9-3.5-1.2-4.7s-.8-2.9-1.1-3.7c-.2-.8-.8-2.7-1.3-4-.4-1.4-1.2-3.4-1.6-4.5s-1.2-3.1-1.9-4.6c-.6-1.5-1.8-4.2-2.8-6-.9-1.8-2.1-4.1-2.6-5.1s-1.5-2.6-2.1-3.6-1.8-3-2.7-4.3-2.1-3.1-2.7-4c-.6-.8-1.6-2.1-2.1-2.8-.6-.8-1.6-2.1-2.4-3-.7-.9-1.7-2.2-2.3-2.8-.5-.6-1.5-1.8-2.3-2.6-.8-.9-2.8-2.9-4.5-4.6s-3.7-3.8-4.6-4.5c-.8-.8-2.2-1.9-2.9-2.6-.8-.7-2.1-1.7-2.8-2.3s-1.8-1.4-2.4-1.9c-.7-.5-1.9-1.4-2.9-2.1-.9-.6-2.5-1.8-3.6-2.5-1-.7-2.6-1.7-3.6-2.3-.9-.6-2.6-1.6-3.8-2.2-1.2-.7-3.4-1.9-5-2.7s-3.9-2-5.2-2.5c-1.3-.6-3.4-1.5-4.7-2.1-1.3-.5-3.3-1.2-4.3-1.6-1.1-.4-2.7-1-3.8-1.3-1-.3-2.7-.9-3.8-1.2-1.2-.3-3.2-.8-4.6-1.2-1.4-.3-3.8-.9-5.4-1.2s-4-.7-5.3-1c-1.3-.2-3.4-.4-4.6-.6-1.3-.1-3.2-.3-4.2-.4-1.1-.1-2.8-.2-3.7-.3-1 0-3.7-.1-5.9-.1-2.2-.1-4.4-.1-5 0" class="s0"></path><path d="M119.8 5.5c-1.1.1-3 .2-4.2.3s-3 .2-4 .4c-1.1.1-2.9.3-4.1.5s-3.1.5-4.3.7c-1.1.2-3 .6-4.2.8-1.2.3-3 .7-4 1-1 .2-2.5.7-3.5.9-.9.3-2.9.9-4.5 1.5-1.5.5-3.6 1.2-4.7 1.6L77.8 15c-1.4.7-4.2 1.9-6.1 2.9-1.9.9-4.5 2.3-5.8 3.1-1.3.7-3.4 2-4.6 2.8-1.2.7-3 1.9-3.9 2.5-1 .7-2.6 1.8-3.6 2.6s-2.6 1.9-3.4 2.6-2.2 1.8-3 2.5-2.3 2-3.2 2.8c-.9.9-2.9 2.8-4.4 4.3s-3.3 3.5-4.1 4.3c-.7.9-2 2.3-2.7 3.2-.8.9-1.9 2.3-2.6 3.2-.6.8-1.7 2.3-2.4 3.2-.6.9-1.9 2.7-2.8 4.1-.9 1.3-2 3.1-2.5 3.9-.6.9-1.4 2.3-1.9 3.1-.4.9-1.3 2.5-1.9 3.6s-1.5 2.9-2 3.9c-.5 1.1-1.2 2.8-1.6 3.7-.5.9-1.1 2.6-1.6 3.7-.4 1.1-1.1 3-1.5 4.1s-1 3-1.4 4.1c-.3 1.1-.8 2.6-1 3.3-.2.8-.6 2.2-.8 3.3-.3 1-.7 2.7-.9 3.6-.2 1-.5 2.7-.7 3.7-.2 1.1-.5 3-.7 4.2-.2 1.3-.4 3.1-.5 4.1-.2 1-.3 2.8-.4 3.9-.1 1.2-.2 3.1-.3 4.4 0 1.2-.1 3.6-.1 5.3s.1 4.1.1 5.4c.1 1.2.2 3.2.3 4.3.1 1 .2 2.6.3 3.5.1.8.3 2.5.5 3.8.2 1.2.5 3.2.7 4.3.2 1.2.5 2.9.7 3.8.2 1 .6 2.7.9 3.7.2 1.1.7 2.9 1.1 4.2.3 1.3 1 3.5 1.6 5.1.5 1.5 1.3 3.9 1.9 5.2.5 1.4 1.3 3.4 1.8 4.6s1.6 3.5 2.4 5.1 2 3.9 2.6 5c.7 1.2 1.7 2.9 2.3 3.9s1.7 2.8 2.5 3.9c.8 1.2 1.9 2.9 2.5 3.8.7.8 1.8 2.3 2.5 3.3.8.9 2 2.5 2.8 3.5s2.2 2.6 3.2 3.6c.9 1 2.8 3.1 4.3 4.6S44 213 45 214c1.1.9 2.7 2.3 3.7 3.1s2.4 2 3.2 2.7c.9.6 2.1 1.6 2.9 2.1.8.6 2.3 1.6 3.3 2.3 1.1.8 2.8 1.9 3.8 2.5.9.6 2.7 1.6 3.8 2.3 1.2.6 3.6 1.9 5.4 2.9 1.9.9 4.3 2 5.5 2.6 1.1.5 3 1.3 4.2 1.7 1.1.5 2.8 1.1 3.7 1.4 1 .4 2.4.9 3.1 1.1.8.3 2.6.8 3.9 1.2s3.5 1 4.9 1.3 3.6.8 4.9 1.1c1.4.3 3.5.6 4.8.8 1.3.3 3.4.5 4.7.7 1.2.1 3.1.3 4.2.4s3 .2 4.2.3c1.2 0 3.8.1 5.8.1s4.6-.1 5.8-.1c1.2-.1 3.1-.2 4.2-.3s3-.3 4.2-.4c1.3-.2 3.4-.4 4.7-.7 1.3-.2 3.4-.5 4.8-.8 1.3-.3 3.5-.8 4.9-1.1s3.6-.9 4.9-1.3 3.1-.9 3.9-1.2c.7-.2 2.1-.7 3.1-1.1.9-.3 2.6-.9 3.7-1.4 1.2-.4 3.1-1.2 4.2-1.7 1.2-.6 3.6-1.7 5.5-2.6 1.8-1 4.2-2.3 5.4-2.9 1.1-.7 2.9-1.7 3.8-2.3 1-.6 2.7-1.7 3.8-2.5 1-.7 2.5-1.7 3.3-2.3.8-.5 2-1.5 2.9-2.1.8-.7 2.2-1.9 3.2-2.7s2.6-2.2 3.7-3.1c1-1 3.1-2.9 4.6-4.4s3.4-3.6 4.3-4.6c1-1 2.4-2.6 3.2-3.6s2-2.6 2.8-3.5c.7-1 1.8-2.5 2.5-3.3.6-.9 1.7-2.6 2.5-3.8.8-1.1 2.1-3.2 2.8-4.5.8-1.3 1.9-3.1 2.3-3.9.5-.9 1.6-2.9 2.3-4.5.8-1.6 1.9-3.8 2.4-5s1.3-3.2 1.8-4.6c.6-1.3 1.4-3.7 1.9-5.2.6-1.6 1.3-3.8 1.6-5.1.4-1.3.9-3.1 1.1-4.2.3-1 .7-2.7.9-3.7.2-.9.5-2.6.7-3.8.2-1.1.5-3.1.7-4.3.2-1.3.4-3 .5-3.8.1-.9.2-2.5.3-3.5.1-1.1.2-3.1.3-4.3 0-1.3.1-3.7.1-5.4s-.1-4.1-.1-5.3c-.1-1.3-.2-3.2-.3-4.4-.1-1.1-.2-2.9-.4-3.9-.1-1-.3-2.8-.5-4.1-.2-1.2-.5-3.1-.7-4.2-.2-1-.5-2.7-.7-3.7-.2-.9-.6-2.6-.9-3.6-.2-1.1-.6-2.5-.8-3.3-.2-.7-.7-2.2-1-3.3-.4-1.1-1-3-1.4-4.1s-1.1-3-1.5-4.1c-.5-1.1-1.1-2.8-1.6-3.7-.4-.9-1.1-2.6-1.6-3.7-.5-1-1.4-2.8-2-3.9s-1.5-2.7-1.9-3.6c-.5-.8-1.3-2.2-1.9-3.1-.5-.8-1.6-2.6-2.5-3.9-.9-1.4-2.2-3.2-2.8-4.1-.7-.9-1.8-2.4-2.4-3.2-.7-.9-1.8-2.3-2.6-3.2-.7-.9-2-2.3-2.7-3.2-.8-.8-2.6-2.8-4.1-4.3s-3.5-3.4-4.4-4.3c-.9-.8-2.4-2.1-3.2-2.8s-2.2-1.8-3-2.5-2.4-1.8-3.4-2.6-2.6-1.9-3.6-2.6c-.9-.6-2.7-1.8-3.9-2.5-1.2-.8-3.3-2.1-4.6-2.8-1.3-.8-3.9-2.2-5.8-3.1-1.9-1-4.7-2.2-6.1-2.9l-4.5-1.8c-1.1-.4-3.2-1.1-4.7-1.6-1.6-.6-3.6-1.2-4.5-1.5-1-.2-2.5-.7-3.5-.9-1-.3-2.8-.7-4-1-1.2-.2-3.1-.6-4.2-.8-1.2-.2-3.1-.5-4.3-.7s-3-.4-4.1-.5c-1-.2-2.8-.3-4-.4-1.1-.1-3.2-.2-4.6-.3-1.5 0-3.8-.1-5.3-.1-1.4 0-3.6.1-4.7.1" class="s1"></path><path d="M120.2 13.1c-.7 0-1.4.1-1.4.1 0 .1.1.3.2.5.1.3.3.7.3 1 .1.4.3 2.1.4 5.7.1 2.9.2 5.6.2 6.1v.9c-.1 0-2.4-2.9-5.1-6.5-2.8-3.6-5.1-6.6-5.1-6.7-.1-.1-.7 0-3.2.4-1.7.3-3.1.5-3.1.5s.1.2.3.5c.3.4.3.5 1.4 8.3.6 5 1 8.2 1 8.8s-.1 1.2-.1 1.5l-.2.6s.5-.1 1.1-.2c.5-.1 1.5-.3 2.1-.4.7-.1 1.2-.2 1.3-.3q.1 0-.1-.4c-.1-.2-.3-.6-.4-.9s-.6-3.6-1.1-7.2c-.6-3.7-1-6.8-1-6.9q.1-.2 5.7 7.2l5.6 7.4c3.4-.1 4.4-.1 4.4-.2 0 0-.1-4-.2-8.8-.2-5.7-.3-9-.2-9.4 0-.3.2-.7.2-1 .1-.3.2-.5.2-.6h-3.2m19.7 1.3c0 .1.2.5.3 1 .1.4.8 4.9 1.4 10l1.3 9.2 3.9.9c5.5-8.4 7.8-11.9 8.7-13.3 1-1.4 1.9-2.7 2.4-3.2.4-.4.7-.8.6-.8 0 0-1-.3-2.1-.6-1.1-.4-2.1-.6-2.1-.6-.1 0-.2.3-.2.7-.1.4-.2.9-.4 1.2-.1.3-1.7 3-3.7 6-1.9 3.1-3.6 5.6-3.6 5.6-.1 0-.4-2.4-.9-6.4-.5-4.5-.7-6.6-.6-7.1 0-.4.1-1 .3-1.3.1-.4.1-.7.1-.7 0-.1-1.2-.3-2.6-.5-1.3-.2-2.6-.4-2.7-.4s-.2.1-.1.3m-51.1 4.2c-.5.1-1.3.3-1.8.4-.5.2-1.2.5-1.5.6s-1 .5-1.5.9c-.5.3-1.2.9-1.6 1.3s-1 1.1-1.2 1.5c-.3.5-.7 1.2-.9 1.6-.1.5-.3 1.2-.4 1.7-.1.4-.2 1.3-.2 2 0 .6.1 1.6.2 2.1s.3 1.2.4 1.7c.1.4.4 1.1.6 1.5s.7 1.1 1 1.5c.3.5.9 1.2 1.4 1.7.5.4 1.3 1 1.7 1.3.4.2 1.2.6 1.7.7.6.2 1.5.4 2 .5.8.1 1.4.1 2.1 0 .5-.1 1.3-.2 1.7-.3.5-.2 1.1-.3 1.4-.5.3-.1.8-.3 1.2-.5s.9-.5 1.1-.7c.3-.1.9-.6 1.3-1s1-1.1 1.2-1.4c.3-.4.7-1.1.9-1.6.3-.5.6-1.2.7-1.7s.2-1.4.3-2c0-.8 0-1.4-.2-2.1-.1-.6-.3-1.4-.5-2-.1-.5-.5-1.3-.7-1.7s-.5-.9-.7-1.2c-.1-.2-.5-.7-.8-1-.2-.3-.7-.8-1-1-.4-.3-1-.8-1.4-1-.4-.3-1.2-.6-1.7-.8s-1.4-.4-1.9-.5c-.6-.1-1.3-.1-1.6-.1-.2 0-.9 0-1.3.1M164 21c0 .4-.1 1.1-.3 1.4-.1.3-1.4 3.5-2.8 7.1-1.5 3.6-2.9 6.8-3 7.2-.2.4-.6.9-.9 1.2s-.4.5-.4.6c.1 0 1.2.4 2.5 1l2.3.9q.2-.6.2-1c0-.2.1-.7.2-1 0-.3 1.4-3.6 2.9-7.3 1.5-3.6 2.9-6.9 3.1-7.3.2-.3.5-.8.8-1.1s.5-.6.4-.6c-.1-.1-1.2-.5-2.4-1-1.3-.5-2.4-.9-2.4-.9-.1 0-.1.3-.2.8m12.5 5.2c0 .3-.2.7-.3 1.1-.1.3-1.7 3.2-3.5 6.4-1.9 3.2-3.7 6.2-4 6.7-.4.5-1 1.3-1.4 1.7-.5.5-.7.7-.6.8.1 0 .5.3 1 .5.5.3 1.5.8 2.2 1.2s2 1.2 2.8 1.6c.8.5 2.4 1.6 3.5 2.3 1.1.8 2.1 1.4 2.2 1.3l1.6-1.6c.8-.9 1.5-1.7 1.5-1.7-.1 0-.3 0-.5.1-.3.1-.8.1-1.2.1-.7-.1-1-.1-1.7-.5-.5-.2-2-1.1-3.5-2l-2.6-1.5c.4-.8 2.1-3.6 3.9-6.7s3.5-5.8 3.6-6c.2-.3.6-.7.9-.9.2-.3.6-.6.7-.6.1-.1.2-.2.1-.2 0-.1-1-.7-2.3-1.4-1.2-.7-2.2-1.2-2.3-1.2 0 0 0 .2-.1.5m-105.1.5c-.9.5-2.1 1.1-2.7 1.5-.6.3-1.8 1-2.6 1.6-.9.5-2.6 1.7-3.9 2.5-1.2.8-2.6 1.8-3 2.1-.6.4-.8.7-.8.8.1 0 .6.8 1.2 1.6.9 1.3 1.2 1.6 1.3 1.5s.1-.2.1-.3c0 0 .1-.4.3-.7q.3-.6.9-1.2c.3-.2 1.2-.8 1.9-1.3s1.3-.8 1.4-.8c0 0 1.7 2.6 3.8 5.8 2.1 3.1 3.9 5.9 4 6.2.1.2.3.7.3 1 .1.2.2.7.2.9s.1.4.1.4.7-.4 1.6-1c.8-.5 1.8-1.1 2.3-1.3.4-.3.7-.5.7-.6 0 0-.2-.2-.5-.4s-.8-.7-1.1-1c-.2-.3-2-3.2-3.9-6.3s-3.5-5.8-3.6-5.9c-.1-.2 0-.3.9-.9.6-.3 1.3-.8 1.6-.9.4-.2.9-.4 1.2-.5s.9-.2 1.3-.2h.6c0-.1-.4-.8-.9-1.8-.5-.9-.9-1.7-1-1.7s-.9.4-1.7.9M194.5 38c-.1.2-.4.8-.6 1.1-.3.4-2.4 2.8-4.7 5.4s-4.7 5.2-5.3 5.7c-.6.7-1.4 1.3-1.8 1.5l-.8.5q2.2 1.7 3.5 2.8c.9.8 2.4 2.1 3.4 3.1 1 .9 2.2 2.1 2.6 2.5l.8.9c3-2.1 3.9-2.7 3.9-2.7 0-.1-.4-.1-.8-.1s-.9-.1-1.2-.2c-.2-.1-.7-.3-1.1-.6-.3-.2-1.3-1-2.2-1.8-.8-.7-1.9-1.7-2.5-2.2l-.9-.8c8.3-9.2 10.3-11.3 10.6-11.5.3-.1.7-.4 1-.5.2-.1.3-.2.3-.2 0-.1-.8-.8-1.9-1.7s-2-1.7-2.1-1.7c0 0-.1.2-.2.5M53.1 39.5c-.5.2-1.3.6-1.8.9-.4.3-1.1.8-1.5 1.1s-1 .9-1.2 1.2c-.3.4-.7 1-.9 1.4s-.5 1.1-.6 1.5c-.1.5-.2 1.1-.2 1.7 0 .5.1 1.2.2 1.5 0 .3.2.9.4 1.2s.6.9 1 1.3c.5.5 1 .9 1.4 1 .3.2.8.4 1 .4.3.1.9.1 1.3.1.5 0 1.2 0 1.6-.1s1.7-.5 2.7-.9c1.2-.4 2.2-.7 2.6-.7.3-.1.8-.1 1 0 .2 0 .5.2.8.5q.5.4.7.9t.1 1c0 .3-.2.8-.3 1.1-.2.4-.6.9-1 1.3-.3.3-.9.8-1.3 1-.5.2-1.2.5-1.6.6-.7.2-1.2.2-2.1.2-.6 0-1.2.1-1.2.1s.6.7 1.4 1.4l1.3 1.4c1.2-.2 1.9-.5 2.4-.6.4-.2 1.2-.6 1.7-.9.4-.3 1.1-.8 1.4-1.2.4-.3.9-.8 1.1-1.1.3-.4.6-.9.8-1.4.2-.4.5-1 .6-1.4q.2-.7.2-1.7c0-.8-.1-1.3-.3-1.8-.1-.4-.4-.9-.6-1.3-.2-.3-.6-.8-.9-1.1-.3-.2-.9-.6-1.3-.8s-1-.5-1.4-.5c-.4-.1-1-.1-1.3-.1-.3.1-.8.2-1 .2-.3.1-1.4.5-2.5.9s-2.3.7-2.6.8c-.6.1-.8.1-1.3 0-.4-.1-.6-.3-1-.7q-.5-.5-.6-.9c-.1-.3-.1-.7-.1-.9.1-.3.2-.8.4-1.2s.6-.8.9-1.2c.4-.3 1-.7 1.3-.9.4-.2 1-.4 1.3-.5s1-.2 1.5-.2c.8 0 .9 0 .9-.1s-.6-.8-1.2-1.5c-.6-.8-1.2-1.4-1.2-1.3-.1 0-.5.1-1 .3M33.7 60.3c-.6.9-1.1 1.6-1.1 1.6s2 3.2 4.5 6.9c2.4 3.8 4.8 7.4 5.2 8.1.5.6 1 1.5 1.2 1.9.2.5.5 1 .6 1.3 0 .2.1.4.2.4 0 0 .2-.2.4-.6.2-.3.8-1.3 1.3-2.1.5-.9.9-1.6.9-1.7l-.6-.3c-.3-.2-.8-.5-1.1-.9-.3-.3-.9-1-1.2-1.5-.4-.5-.7-.9-.7-1 0 0 .4-.7 1-1.5.5-.8 1.1-1.7 1.4-2.1.3-.3.9-1.1 1.3-1.7.5-.6.9-1 1-1s.7.2 1.3.3c.6.2 1.3.5 1.6.6.3.2.8.5 1.1.7.5.4.6.4.7.3s.4-.5.8-1 1.2-1.5 1.8-2.1c.5-.6.9-1.2.9-1.2h-.5c-.2 0-.9-.1-1.5-.2-.7-.2-2-.4-2.9-.6s-5-1.2-9-2.3c-4.1-1-7.4-1.8-7.5-1.8 0 0-.5.7-1.1 1.5m176.7.4c-2.8.7-7.2 1.8-9.7 2.4-4 1-4.7 1.1-5.5 1.1-.5 0-.9 0-.9.1l.8 1c.4.5 1.2 1.4 1.6 2l.8.9c.8-.8 1.4-1.1 1.8-1.3s1-.5 1.5-.6l.8-.2q1.2 1.3 1.9 2.2c.5.6 1.4 1.9 1.9 2.7.6.9 1.1 1.6 1.1 1.7l-.6.8c-.3.5-.9 1.1-1.2 1.4-.2.3-.7.7-1 .8-.4.2-.6.4-.6.4 0 .1.4.8.9 1.7.6.8 1.2 1.9 1.4 2.3.3.5.5.9.5.8 0 0 .3-.5.6-1.1s2.5-4.1 5.9-9.2q5.4-8.1 5.4-8.2c-.1-.1-.6-.8-1.1-1.6-.6-.8-1.1-1.4-1.1-1.4s-2.4.5-5.2 1.3m-67.6 158.5c-.6.1-1 .3-1.1.3 0 .1-1 1.8-2.2 4l-2.2 3.8c.3 1.4.4 1.9.4 1.9s1-.1 2.3-.3c1.2-.2 2.4-.4 2.6-.4.4-.1.4-.1.5.2 0 .1.1.7.2 1.3s.2 1.1.3 1.1c0 0 .5 0 1.2-.2 1-.1 1.1-.2 1.1-.4 0-.1-.1-.7-.2-1.4-.1-.6-.2-1.1-.2-1.1 0-.1.5-.2 1.1-.3.7-.1 1.2-.2 1.2-.2l-.2-1.2c-.1-.6-.1-1.1-.1-1.1-.1 0-.6.1-1.2.2l-1.2.2s-.3-1.4-.6-3.1c-.3-1.6-.5-3.1-.6-3.2 0-.2 0-.3-.1-.3zm-34.2.8c-.1.2-.3.6-.5.8s-.6.4-.8.5c-.3 0-.8.1-1.2 0h-.7c-.1.8-.2 1.2-.2 1.3-.1.3 0 .3 1.1.5.6.1 1.1.3 1.2.3 0 .1-.3 1.7-.6 3.6-.3 2-.6 3.7-.6 3.8v.4c1.9.3 2.5.4 2.5.3 0 0 .5-2.6 1-5.8s1-5.8.9-5.8c0-.1-.4-.1-.9-.2-.4-.1-.8-.1-.9-.1q-.2 0-.3.4m9.5.5c-.3.1-.9.2-1.2.4-.4.2-.8.5-1.1.7-.2.3-.5.6-.6.9-.1.2-.2.6-.3.9 0 .3.1.7.2 1 .1.4.3.8.7 1.2s.6.6.5.6c-.1.1-.4.3-.8.6-.4.2-.7.7-.9 1s-.3.7-.4 1.1c0 .4 0 .7.1 1.2.2.5.4.8.8 1.2.3.3.8.7 1.1.9.2.1.8.4 1.1.5.4.1 1 .1 1.5.1s1.1 0 1.5-.1c.3-.1.8-.3 1-.4s.6-.4.8-.6c.3-.2.6-.6.8-.9.2-.4.2-.6.2-1.4 0-.7 0-1-.2-1.3-.1-.2-.5-.7-.9-1.1-.6-.5-.6-.6-.4-.7.1-.1.4-.3.6-.5.3-.3.6-.7.7-.9.1-.3.2-.7.2-1.1s0-.8-.2-1.2c-.2-.3-.5-.7-.8-1-.2-.2-.6-.5-.9-.6s-.7-.3-.9-.4c-.3 0-.7-.1-1-.1-.4-.1-.9 0-1.2 0m14.4.1c-1 0-2.7.1-3.8.2s-2 .1-2 .1c0 .1 0 .6.1 1.2l.1 1.2c1.3 0 2.5-.1 3.6-.1 1.1-.1 2-.1 2-.1s-1 2.1-2.3 4.6c-1.3 2.6-2.3 4.7-2.3 4.8 0 .2 0 .3 1.3.2h1.3l4.4-9.9c-.2-2.1-.2-2.4-.3-2.4s-1 .1-2.1.2" style="fill:#fc0" data-source="https://football-logos.cc"></path><path d="M121.7 40.6c-1.2.1-3 .2-4.1.3-1 .1-2.6.3-3.5.4s-2.3.3-3.2.5c-.8.1-2.2.4-3.1.6-.8.1-2.2.4-3 .6s-2.1.6-2.8.8-2.1.6-3.1.9c-1 .4-2.6.9-3.6 1.3s-2.4.9-3.2 1.3c-.7.3-2.1.9-3 1.3-1 .5-2.5 1.2-3.5 1.8-.9.5-2.4 1.3-3.3 1.8-.8.5-2.4 1.5-3.5 2.2-1 .7-2.5 1.7-3.3 2.3-.8.5-2.2 1.6-3.2 2.4s-2.5 2.1-3.3 2.8-2 1.8-2.7 2.5-2 1.9-2.8 2.8-2 2.2-2.6 2.9-1.5 1.9-2.1 2.6c-.5.7-1.4 1.9-2 2.6-.6.8-1.5 2.2-2.1 3.1-.6.8-1.5 2.2-2 3-.5.9-1.3 2.3-1.8 3.2s-1.1 2.1-1.4 2.7l-1.4 2.8c-.4 1-1.1 2.6-1.5 3.6s-1 2.5-1.3 3.4c-.3.8-.8 2.3-1.1 3.3-.3.9-.7 2.6-1 3.7-.3 1.2-.7 3-1 4.2-.2 1.2-.5 2.9-.7 3.9-.1.9-.3 2.6-.4 3.6-.1 1.1-.3 2.7-.4 3.7 0 .9-.1 3.4-.1 5.5s.1 4.6.1 5.5c.1 1 .2 2.5.3 3.3.1.9.3 2.4.4 3.4.2 1 .5 2.8.7 4 .3 1.2.7 3.2 1 4.3.3 1.2.8 3 1.1 4 .3 1.1.8 2.7 1.2 3.6.3.9.9 2.4 1.2 3.3.4.8.9 2.2 1.3 3 .4.9 1 2.3 1.5 3.2.4.9 1.1 2.1 1.5 2.8.3.6 1 1.8 1.5 2.7.5.8 1.5 2.5 2.3 3.6.7 1.1 2 2.9 2.8 3.9.7 1 1.9 2.5 2.6 3.4.7.8 1.8 2 2.4 2.8.7.7 2.2 2.3 3.4 3.4 1.2 1.2 2.9 2.7 3.7 3.5.9.7 2.2 1.9 3.1 2.5.8.7 2.1 1.6 2.7 2.1s1.9 1.4 2.9 2c1 .7 2.3 1.5 3 1.9s1.8 1.1 2.6 1.6c.8.4 2.4 1.2 3.4 1.8 1.1.5 2.7 1.2 3.5 1.6.9.4 2.3 1 3.3 1.4.9.3 2.7 1 3.9 1.4s3.2 1 4.3 1.3c1.1.4 2.8.8 3.7 1s2.5.5 3.6.7c1 .2 2.8.5 3.8.7 1.1.1 2.8.3 3.7.4s2.6.2 3.7.3c1.1 0 3 .1 4.2.1s3.1-.1 4.2-.1c1.1-.1 2.8-.2 3.7-.3s2.6-.3 3.7-.4c1-.2 2.8-.5 3.9-.7s2.7-.5 3.5-.7c.9-.2 2.6-.6 3.7-1 1.1-.3 3.1-.9 4.3-1.3s3-1.1 3.9-1.4c1-.4 2.4-1 3.3-1.4.8-.4 2.4-1.1 3.5-1.6 1-.6 2.6-1.4 3.4-1.8.8-.5 1.9-1.2 2.6-1.6s2-1.2 3-1.9c1-.6 2.3-1.5 2.9-2s1.9-1.4 2.7-2.1c.9-.6 2.2-1.8 3.1-2.5.8-.8 2.5-2.3 3.7-3.5 1.2-1.1 2.7-2.7 3.4-3.4.6-.8 1.7-2 2.4-2.8.7-.9 1.9-2.4 2.6-3.4.8-1 2.1-2.8 2.8-3.9.8-1.1 1.8-2.8 2.3-3.6.5-.9 1.2-2.1 1.5-2.7.4-.7 1.1-1.9 1.5-2.8.5-.9 1.1-2.3 1.5-3.2.4-.8.9-2.2 1.3-3 .3-.9.9-2.4 1.2-3.3.4-.9.9-2.5 1.2-3.6.3-1 .8-2.8 1.1-4 .3-1.1.7-3.1 1-4.3.2-1.2.5-3 .7-4 .1-1 .3-2.5.4-3.4.1-.8.2-2.3.3-3.2 0-1 .1-3.4.1-5.5s-.1-4.7-.1-5.6c-.1-1-.3-2.6-.4-3.7-.1-1-.3-2.7-.4-3.6-.2-1-.5-2.7-.7-3.9-.3-1.2-.7-3-1-4.2-.3-1.1-.7-2.8-1-3.7-.3-1-.8-2.5-1.1-3.3-.3-.9-.9-2.4-1.3-3.4s-1.1-2.6-1.5-3.6l-1.4-2.8c-.3-.6-.9-1.8-1.4-2.7s-1.3-2.3-1.8-3.2c-.5-.8-1.4-2.1-1.9-3-.6-.8-1.4-2-1.8-2.5-.4-.6-1.2-1.6-1.7-2.3s-1.5-2-2.2-2.8-1.9-2.2-2.8-3.1c-.8-.9-2.1-2.3-2.9-3-.8-.8-2.1-2-3-2.8-.8-.7-2.3-2-3.3-2.8s-2.4-1.9-3.2-2.4c-.8-.6-2.3-1.6-3.3-2.3-1.1-.7-2.7-1.7-3.5-2.2-.9-.5-2.4-1.3-3.3-1.8-1-.6-2.5-1.3-3.5-1.8-.9-.4-2.3-1-3.1-1.4-.9-.3-2.4-.9-3.4-1.3-.9-.4-2.7-1-3.8-1.3-1.1-.4-2.8-.9-3.8-1.1-1-.3-2.5-.7-3.4-.9s-2.4-.5-3.2-.6c-.8-.2-2.3-.4-3.3-.6-1-.1-2.5-.3-3.3-.4-.9-.1-2.3-.2-3.2-.2-1-.1-2.8-.2-4.2-.2z" class="s0"></path><path fill-rule="evenodd" d="M89.7 21.7c1.2 0 1.2 0 2.1.5.8.3 1.2.6 1.7 1.1.4.4.9 1.1 1.2 1.6.2.5.6 1.2.8 1.7.2.4.5 1.3.6 1.8.2.8.3 1.3.3 2.2 0 .6-.1 1.3-.2 1.6 0 .3-.2.8-.4 1.2s-.6.9-.8 1.2c-.3.3-.8.7-1.2.9-.3.3-.9.5-1.3.7-.4.1-1 .2-1.6.3-.6 0-1 0-1.6-.1-.3-.1-.9-.4-1.2-.6s-.9-.6-1.2-.9c-.4-.3-.9-1-1.3-1.5-.3-.5-.7-1.3-.9-1.7-.2-.5-.5-1.3-.6-1.7-.1-.5-.2-1.4-.2-2-.1-.7 0-1.4 0-1.9.1-.4.3-1.1.5-1.5s.6-.9.9-1.3c.4-.3.9-.7 1.3-.9.5-.2 1-.5 1.4-.6s.9-.1 1.7-.1m16.9 30.6.6.6c.4.5.7.7 1.2.9.6.3.7.3 4.8.3 3.5 0 4.2 0 5.1.2.5.1 1.3.3 1.7.4.4.2.9.5 1.2.7.3.1.8.6 1.1.9s.7.8.8 1.1c.2.3.3.8.4 1.1 0 .4.1.6.1.6s1.1.2 2.5.4c1.3.2 2.8.5 3.3.6.6.2 1.3.4 1.6.6.4.2.8.5 1 .6.2.2.4.5.5.7s.2.6.2.9-.1.7-.1.9c-.1.3-.1.3.4.3.3 0 1 .1 1.6.1.6.1 1.4.3 1.9.4s1.3.4 1.9.6 1.5.5 2 .8c.5.2 1.2.6 1.7.9.4.2.9.5 1 .7.2.1.3.3.3 1.2l-.6-.2c-.3-.1-.9-.2-1.4-.2s-1.2 0-1.6-.1c-.4 0-1-.2-1.2-.3s-.5-.3-.7-.4c-.3-.3-.4-.3-.4-.2s.1.4.2.8c.1.3.4.7.6.8.2.2.6.4.9.5s1 .3 1.5.4c.6.1 1.2.3 1.4.4s.5.3.6.5.1.6.1 1q0 .7-.2 1.2c-.1.2-.4.6-.7.8-.3.3-.8.6-1.1.8-.7.3-.7.3-.8.8 0 .2-.1.7-.2.9-.1.3-.3.8-.5 1-.1.2-.5.5-.7.7-.3.1-.6.2-.7.2-.2 0-.3 0-.2-.3 0-.1.1-.6.1-1s-.1-1-.4-1.8l-.6-.2c-.4 0-1-.3-1.3-.4q-.6-.3-1.5-.9l-.6.2c-.2.1-.9.4-1.3.6-.5.2-1.2.6-1.6.8-.4.3-1 .8-1.3 1-.3.3-.6.8-.7 1-.1.4-.1.7-.1 1.2.1.3.2.9.3 1.2.2.4.4.9.6 1.3.2.3.7.8 1 1.2.4.4 1 .9 1.4 1.2s1.1.6 1.5.7c.3.1.8.3 1.1.3s.5-.2 1-.6c.4-.2.8-.7 1.1-1 .2-.4.5-1 .6-1.4.2-.5.3-.9.3-1s0-.2.1-.2l.2.2c.1.1.3.4.5.7.1.3.2.7.2 1.3.1.5 0 1 0 1.2-.1.4-.1.4.1.4s.5.1.8.2c.2.1.5.3.6.5.1.1.2.4.2.6s-.1.7-.2 1c-.1.4-.3 1-.4 1.3-.2.3-.5.8-.8 1.2-.2.3-.7.9-1.1 1.2-.4.4-.9.8-1.6 1.3l-.2-.5c0-.3-.2-.6-.5-.9-.2-.2-.6-.5-.9-.7-.3-.1-.9-.3-1.3-.3-.4-.1-1.6-.2-2.6-.3-1.4-.1-2.2-.2-3-.4-.6-.1-1.5-.5-2.1-.7-.8-.4-1.2-.7-1.9-1.4-.6-.6-1.1-1.2-1.3-1.6s-.5-1.1-.6-1.5c-.2-.5-.3-1.1-.4-1.5 0-.4-.1-.8-.2-.8 0 0-.1.2-.1.3-.1.1-.2.5-.2.8v1.4c.1.5.3 1.3.5 1.8.2.6.4 1.2.6 1.5.1.2.4.7.6.9.2.3.3.5.3.5-.1 0-.3 0-.5-.1-.3 0-.7-.2-1-.3s-.7-.4-.9-.6c-.3-.2-.7-.7-1-1.1-.3-.3-.8-1-.9-1.4-.2-.4-.5-1.1-.6-1.6-.2-.6-.2-1.2-.2-2.2 0-.8 0-1.7.1-2 0-.4.1-.9.2-1.6l-.2.2c-.2.2-.4.6-.6 1.1-.2.4-.5 1.1-.6 1.5-.1.5-.2 1.3-.3 1.8s-.1 1.2-.1 2.2l-.3-.3c-.1-.2-.5-.8-.7-1.3-.3-.5-.5-1.3-.6-1.8-.1-.6-.2-1.4-.2-2.1 0-.6 0-1.5.1-1.9.1-.5.3-1.1.5-1.5.1-.5.5-1.1.8-1.5.2-.4.7-.9 1-1.1.3-.3.8-.7 1.1-.9.6-.4.6-.4.3-.4-.1 0-.7.1-1.2.3-.5.1-1.2.5-1.5.7s-.9.7-1.3 1.1-.8 1-1 1.5-.5 1.2-.6 1.7-.3 1.2-.3 1.7c0 .4 0 1.3.1 1.9 0 .7.2 1.7.3 2.2.2.6.5 1.4.7 1.9.2.4.6 1.1.9 1.5.3.3.8.9 1.2 1.3s1.1.9 1.6 1.2c.4.3 1.1.7 1.5.9.3.2 1.1.5 1.7.7.5.3 1.6.7 2.4.9s2.1.6 3 .8c.9.3 2.6.8 4 1.1 1.3.4 3 .9 3.8 1.1.8.3 2 .7 2.7 1 .6.3 1.7.8 2.4 1.1.6.4 1.6 1 2.2 1.3.6.4 1.4 1.1 1.9 1.5s1.3 1.2 1.7 1.7 1.1 1.3 1.4 1.8c.4.5.9 1.5 1.2 2.1.3.7.7 1.7.9 2.2.2.6.4 1.4.6 1.9.1.6.2 1.3.3 2.6l-.3-.2c-.2-.1-1.1-.7-2.1-1.2-.9-.6-2.6-1.5-3.7-2.1-1.2-.5-2.7-1.2-3.4-1.5s-1.9-.7-2.6-1c-.7-.2-1.9-.5-2.6-.7-.6-.2-1.8-.4-2.5-.5-.6-.2-1.4-.3-1.6-.3s-.4.1-.3.1c0 .1.7.3 1.4.6.8.3 2 .7 2.7 1 .8.4 2.5 1.1 3.7 1.7 1.3.7 3.5 1.9 4.9 2.7 1.5.8 3.5 1.9 4.5 2.4s2.3 1.1 3 1.4c.6.2 1.7.6 2.4.8.6.2 1.8.5 2.6.6.7.2 1.9.4 2.5.4.7.1 2.3.2 3.9.2 2.4 0 2.9-.1 3.6-.2.4-.1 1.1-.4 1.4-.5.4-.1.9-.4 1.2-.6s.8-.6 1-.8c.3-.3.8-.8 1.2-1.3.3-.4.8-1.2 1.1-1.8.3-.5.8-1.3 1.1-1.7s.6-.9.8-1.1c.2-.1.4-.3.6-.4.2 0 .5-.1.7-.1.3 0 .7.1.9.2.3.1.4.1.5 0s.4-.3.8-.5c.3-.2.9-.3 1.2-.4.3 0 .7 0 1.1.1s.7.3 1.7 1.2l-.6.1c-.4 0-.9.2-1.2.3-.4.2-.8.5-1 .7-.3.3-.3.3-.2.7.1.2.1.5.1.7s-.1.5-.1.6c-.1.2-.5.6-.8.9-.4.3-1 .9-1.4 1.3-.5.4-1 .9-1.6 1.6l.3-.1c.2 0 .8-.3 1.4-.5.5-.3 1.4-.8 1.8-1.1.5-.3 1.1-.7 1.4-.9.2-.1.6-.2.9-.2.2 0 .6.1.7.1.2.1.5.3.7.4.4.3.5.3 1.6.3s1.1 0 1.8.4c.6.2.9.5 1.2.9.2.3.5.7.6 1l.2.6s-.4-.1-.8-.3c-.7-.2-1-.2-1.7-.2q-.9.1-1.4.3c-.4.2-.4.2-.5.7 0 .3-.1.7-.3.9-.1.2-.4.4-.7.6-.4.1-.9.2-2.7.3q-2.2 0-2.9.2c-.3.1-.7.2-.8.3-.1 0-.1.1.1.1.1.1.8.2 1.5.3s2.1.3 3 .4c1 0 1.8.2 1.9.3.2.1.5.3.7.5s.4.6.5.9c.1.4.2.5.7.7.2.2.7.6 1 .9.4.3.7.7.8 1 .1.2.2.7.3.9 0 .3 0 .8-.1 1.2 0 .4-.1.8-.2.8 0 0-.1-.1-.2-.4-.1-.2-.4-.5-.5-.7-.2-.2-.5-.5-.8-.7-.2-.1-.7-.3-1-.4-.4-.1-.5-.1-.7.2-.1.2-.5.4-.8.5-.4.2-.7.3-1.1.3q-.5-.1-2-.9c-.8-.4-1.9-.8-2.3-.9-.5-.1-1.1-.3-1.5-.3-.3 0-.7-.1-.8-.1h-.3c0 .1.6.5 1.3.9s1.5 1 1.8 1.2.6.6.8.8q.3.5.3.9c0 .2-.1.6-.2.8-.2.4-.1.4.1 1.1.2.5.3.9.3 1.4s0 .7-.3 1.2c-.2.3-.5.7-.8.9s-.5.4-.5.4c-.1 0-.1-.2 0-.5 0-.2-.1-.7-.1-1-.1-.3-.3-.8-.8-1.7l-.5.1c-.3 0-.8.1-1.2.1-.5 0-.7-.1-1.1-.3-.2-.2-.8-.8-1.3-1.5s-1.2-1.4-1.4-1.6c-.3-.3-.7-.6-1-.8s-.9-.5-1.4-.6c-.8-.3-1-.3-2.6-.3-1.1 0-2.2.1-2.9.2s-1.8.3-2.5.4c-.7.2-1.9.5-2.7.7-.8.3-2.2.7-3.1 1-.8.4-2.3 1-3.2 1.4-1 .4-1.7.6-1.8.6 0-.1-.1-.3-.2-.6s-.1-.8-.1-1.3c0-.8.1-1 .8-2.5h-.6c-.3-.1-1.3-.1-2.1-.2-.9 0-2.9-.1-4.5-.2h-5c-1.1.1-2.3.1-2.7.2s-1 .2-1.3.3-.6.2-.7.3c-.2.1-.3.1-.4 0s-.1-.5-.1-1.1 0-.9.2-1.3c.1-.3.3-.7.4-.8.2-.1.2-.1-.4-.3-.3 0-1-.2-1.5-.4s-1.4-.6-2-.9-1.5-.9-2.1-1.3c-.5-.4-1.6-1.2-2.2-1.9-.7-.7-1.5-1.6-1.8-1.9-.3-.4-.6-.7-.6-.7 0 .1.1.5.2.9.2.4.5 1.1.7 1.5s.6 1 1 1.5c.3.4.9 1.1 1.4 1.6.5.4 1.2 1 1.6 1.3.5.3 1.1.7 1.5.9.3.1.9.4 1.3.5q.7.2.7.4c-.1 0-.2.4-.2.7-.1.4 0 1 0 1.5.1.5.2 1.1.3 1.3.1.3.3.6.4.7.2.2.2.2.6 0 .2-.1.7-.3 1.2-.4.4-.2 1.3-.3 2.1-.4.9-.1 2.4-.1 4.7 0 1.9 0 3.5.1 3.7.1.3.1.2.2-1.9 1.6-1.2.9-3.2 2.2-4.3 3-1.1.7-2.8 1.8-3.7 2.3-.8.6-2.2 1.4-3 1.8-.7.5-1.3.8-1.3.9 0 0 .6-.2 1.4-.4.7-.2 2.2-.5 3.2-.8 1-.2 2.5-.5 3.3-.7.9-.1 2.1-.3 2.8-.3.7-.1 1.9-.2 2.9-.1 1 0 2.2.1 2.7.2.6.1 1.5.4 2.1.6s2 .8 3.1 1.3 2.3 1.1 2.7 1.2 1.1.3 1.5.4c.6.1 1 .1 1.4 0 .3-.1.7-.2.9-.2.1-.1.5-.3 1.1-.9l.1.5c.1.2.1.7.1 1.1 0 .3-.2.9-.3 1.1-.1.3-.4.7-.7.9-.2.3-.7.6-1 .8-.4.1-.8.3-1 .3-.1 0-.3 0-.3.1l.2.4c.2.2.6.5 1 .7.3.1.9.3 1.3.4.4 0 .8.1.8.1.1.1 0 .3-.1.5-.1.3-.4.7-.6.9-.2.3-.7.6-1 .7-.3.2-.8.3-1.1.4-.3 0-.9 0-1.1-.1-.3 0-.6-.1-.7-.1-.2-.1-.2.1-.2 1.5s0 1.8-.2 2.5c-.2.5-.7 1.7-1.2 2.7s-1.1 2.2-1.2 2.6c-.2.7-.3 1.1-.2 1.8 0 .8 0 1.2.2 1.7.1.3.4.8.6 1.1s.5.7.8.9c.2.3.7.6 1 .8.3.1.8.3 1.1.4s.9.1 1.4.1c.4 0 1.1 0 1.6-.1.4-.1 1.1-.3 1.5-.5s1.1-.5 1.5-.8 1-.9 1.4-1.2c.3-.4.8-1.1 1-1.5s.5-1.1.7-1.6c.2-.6.5-1.2.6-1.5.1-.2.4-.6.6-.8.3-.2.6-.4.8-.4.2-.1.6-.2.8-.2.3-.1.4-.2.6-.5.1-.2.5-.6.8-.8s.8-.4 1.1-.5h1.1c.3 0 .7.2.9.3s.5.2.6.3c.1.2 0 .2-.3.2-.2.1-.6.2-.8.3s-.6.4-.8.6c-.3.2-.7.7-.9 1-.3.4-.9 1.4-1.3 2.4-.5.9-.8 1.7-.8 1.7.1 0 .2 0 .3-.1s.7-.8 1.4-1.7c.7-.8 1.5-1.7 1.8-1.9.2-.2.7-.5.9-.6.2-.2.6-.2 1-.2.3 0 .7 0 .9.1s.4.3.5.3c.1.2.3.2.7 0 .4-.1.9-.1 1.3-.1s.9.1 1.3.3c.3.2.8.5 1 .7.3.3.6.6.9 1.3l-.7-.2c-.5-.1-.8-.1-1.2 0-.3.1-.8.3-1.1.5-.5.3-.6.3-1.7.3-.8 0-1.3.1-1.6.2s-.6.3-.8.4c-.1.1-.9 1-1.6 1.8-.7.9-1.3 1.6-1.2 1.6 0 .1.2 0 .4-.1s1-.6 1.6-1.1c.7-.6 1.5-1.1 1.8-1.2.5-.3.8-.3 1.4-.3.5 0 .8 0 1.2.2.3.2.6.4.7.5s.5.1 1.4.2c.9 0 1.4.1 1.7.3.3.1.7.4 1 .6.3.3.6.7.8 1.1.1.4.3.8.4 1.4l-.3-.2c-.2-.1-.5-.3-.8-.4-.2-.1-.6-.2-.9-.3-.2 0-.7 0-1 .1s-.8.3-1.2.5c-.6.3-.8.3-1.5.3-.4 0-1.2 0-2.5-.1l-.7.5c-.4.3-1.1.8-1.5 1.1s-1 .7-1.4.9c-.6.4-.6.4-.3.4.2 0 .6 0 1.1-.1.4-.1 1.2-.5 1.9-.7 1.2-.6 1.3-.6 2.3-.6.9 0 1.1 0 1.5.2.2.2.5.4.7.6s.3.5.4.7c.1.4.1.5.4.5.2 0 .5 0 .8.1s.8.3 1 .5c.3.2.6.6.7.9.2.3.3.8.3 1.1.1.3.1.7 0 .7q0 .2-.5-.3-.5-.4-1.2-.6c-.5-.1-1-.2-2.4-.2l-.4.4c-.2.3-.7.7-1 1-.4.3-1.1.7-1.6.9-.4.3-1.2.6-1.7.7-.7.2-1.1.2-2.7.2-1.9 0-2 0-3.7-.4-1-.3-2.2-.5-2.6-.6-.4 0-1.3-.1-2-.1-1.1 0-1.5.1-1.9.2q-.6.3-.9.6c-.2.3-.3.6-.3 1q-.1.5.1.9c.1.2.3.4.4.6.2.1.2.3.2.3-.1 0-.7.1-1.5.1-1.3 0-1.5-.1-3-.5-.9-.2-2-.5-2.5-.6s-1.5-.2-2.2-.2h-2.5c-.6.1-1.8.3-2.6.5-.9.2-1.9.4-2.3.5-.4 0-1 0-1.4-.1-.3 0-.8-.2-1.1-.4-.2-.2-.5-.3-.5-.4 0 0 .3-.2.7-.4s1-.6 1.3-.9.6-.5.6-.5c0-.1-.6-.1-1.2-.2-.6 0-1.5-.1-2-.3-.5-.1-1.2-.3-1.5-.5-.4-.2-.9-.6-1.2-.8s-.6-.6-.7-.8c-.1-.3-.1-.5-.1-.5.1-.1.3-.2.5-.2.3-.1.8-.4 1.2-.6.5-.2 1.1-.6 1.4-.9.3-.2.8-.7 1.1-1s.7-.8.9-1c.2-.3.4-.8.6-1 .1-.3.4-1 .5-1.5.3-.7.3-1.1.4-2.3 0-1.2 0-1.6-.2-2.4-.1-.5-.4-1.3-.6-1.7l-.7-1.4c-.3-.3-.8-.9-1.1-1.3-.4-.4-1-.9-1.4-1.1-.3-.2-.9-.6-1.3-.8s-1.2-.4-1.7-.6c-.8-.1-1.3-.2-2.3-.2-.7 0-1.6.1-2 .1-.4.1-1.3.3-3.3.7l-.5-.4c-.3-.2-.8-.6-1.1-.9s-.7-.8-.9-1.1-.5-.8-.6-1.2c-.2-.3-.4-.9-.5-1.2-.1-.4-.1-1.1-.1-1.8 0-.6 0-1.4.1-1.9.1-.4.3-1.1.5-1.4l.2-.6s-.3.1-.5.3c-.3.2-.7.6-.9.9s-.5.8-.6 1.1c-.2.3-.4.9-.5 1.3s-.2 1.1-.2 1.6.1 1.2.2 1.6.4 1 .5 1.4c.2.4.7 1.3 1.1 1.9s1.3 1.9 2 2.8c.7 1 1.6 2.3 1.9 2.8.3.6.8 1.5 1.1 2.1.2.5.6 1.3.7 1.8.2.4.4 1.2.5 1.7.2.6.3 1.5.3 2.6.1 1.3 0 1.8-.1 2.5-.1.5-.4 1.4-.6 1.9-.3.6-.7 1.4-.9 1.9-.3.5-.6 1.3-.7 1.7s-.2 1-.3 1.3c0 .3 0 .8.1 1.2 0 .3.2.7.4 1s.5.5 1.2.9l-.3.4c-.2.2-.6.5-.9.6-.4.2-.8.2-1.3.2-.4 0-1 0-1.2-.1-.3-.1-.7-.3-1-.5s-.6-.5-.8-.8c-.2-.2-.4-.7-.7-1.7l-.3.4c-.2.2-.4.6-.5.8q-.2.5-.2 1.5c0 .5.1 1.1.2 1.2.1.3.1.3-.3.3-.3 0-.7-.1-1.1-.2-.3-.1-.8-.3-1-.5-.2-.1-.5-.5-.6-.7-.2-.4-.3-.8-.5-2.1l-.7.1c-.4 0-1.1.1-1.6.2-.4.1-1.1.4-1.5.6-.5.2-1.1.6-1.4 1-.3.3-.8.8-.9 1.1-.2.4-.5 1-.6 1.3 0 .4-.1 1-.1 1.4s.1 1 .2 1.4.3 1 .5 1.3.7.9 1.1 1.3c.4.5 1.1 1.1 1.6 1.4.4.4 1.3.9 1.8 1.2.6.3 1.5.6 1.9.8.4.1 1.1.3 1.4.4.4.1 1.1.1 1.7.1s1.3-.1 1.7-.2c.3-.1 1-.3 1.4-.5s1.2-.7 1.8-1.1 1.3-.8 1.5-.9c.3-.2.8-.2 1.2-.2.3 0 .7 0 .8.1.2.1.3.1.6-.1l.8-.4c.3 0 .7-.1.9-.1s.6.1.9.1c.3.1.7.4 1 .5.2.2.6.6 1 1.2l-1-.1c-.8 0-1 0-1.5.2-.4.1-1.2.5-1.8 1-.7.4-1.4.8-1.7.9-.3.2-.5.3-.5.4 0 0 .1.1.2.1s.5 0 .7-.1c.3 0 1-.3 1.7-.5.6-.3 1.5-.5 1.8-.6.5-.2 1.1-.2 1.6-.2.7 0 .9 0 1.2.2.3.1.6.5.8.8.3.4.5.6.7.6.1-.1.4 0 .7.2.4.1.8.3 1 .5s.5.6.7 1c.3.4.4.9.5 2.1l-.5-.4c-.3-.2-.7-.5-.9-.6q-.4-.1-1.4-.1c-.9 0-1.1-.1-1.6-.4-.2-.2-.7-.4-1-.5s-.8-.2-1.2-.2-1.1.1-1.7.3-1.7.5-2.4.8c-.8.2-1.4.5-1.5.5-.1.1.1.1.5.1s1.4-.1 2.2-.2c1-.1 1.9-.2 2.4-.2.7.1 1.1.2 1.5.3.3.2.7.4.9.7.2.2.5.5.6.8s.3.4.9.7c.4.2 1 .6 1.3.8.4.4.6.7.8 1.2.3.6.3.7.3 1.6 0 .5-.1 1-.2 1.1-.1.2-.1.2-.4-.3-.1-.2-.4-.6-.6-.8s-.6-.4-.9-.6c-.3-.1-.8-.2-1.6-.3-.7 0-1.3-.1-1.5-.2-.2-.2-.6-.4-.8-.6-.3-.3-.7-.5-1-.6-.4-.2-1-.2-3.3-.2-1.6 0-3-.1-3.1-.1q-.2-.1-.2.1c0 .1.2.2.3.3.2.1.6.3.9.4s1.1.2 1.9.3c.7 0 1.6.1 1.9.2.2.1.8.2 1.1.4.4.2.8.4 1 .7.3.4.3.5.3 1.8l.6.4c.5.4.7.7.9 1.2.3.6.4.7.3 1.4 0 .5-.1 1-.4 1.7l-.3-.5c-.1-.3-.5-.7-.7-.9s-.6-.5-.9-.7c-.2-.1-.7-.4-1.7-.8l-.9.3c-.4.2-1.2.4-1.7.5-.4.1-1.4.2-2.1.2s-1.8 0-2.4-.1c-.6 0-1.6-.2-2.2-.4-.6-.1-1.6-.4-2.2-.6-.6-.3-1.5-.7-2-1s-1.3-.8-1.8-1.1c-.4-.4-1.1-1-1.5-1.4-.5-.4-1.5-1.6-2.3-2.6-.9-1-1.8-2-2.2-2.3-.3-.2-.8-.5-1.1-.6-.2-.1-.7-.2-1-.2-.4 0-.8.1-1 .2-.2 0-.6.2-.8.4s-.5.5-1 1.2l-.3-.2c-.1-.2-.4-.5-.6-.9-.2-.3-.5-1.2-.7-1.8-.2-.7-.6-1.8-.8-2.5-.3-.7-.7-1.7-.9-2.3-.3-.5-.7-1.2-.9-1.7-.3-.4-.8-1.1-1.2-1.5s-1.2-1.4-1.8-2.1c-.7-.7-1.5-1.6-1.9-2.1s-.9-1.2-1.1-1.7c-.3-.5-.6-1.2-.7-1.6s-.2-1.1-.2-1.5c-.1-.5-.1-.9 0-.9 0 0 .3.1.6.3.3.1.9.2 2 .3l-.3-.4c-.2-.2-.5-.6-.7-1-.3-.4-.6-1-.7-1.4-.2-.5-.2-1-.3-2.1 0-1 0-1.5.1-2q.2-.6.4-1.3l.5.5c.3.2.8.6 1.1.8s.8.5 1.2.6c.3.2.9.4 1.3.5s.9.2 1.2.2c.4 0 1 0 1.5-.1.5 0 1.3-.2 1.7-.4.5-.1 1.1-.4 1.5-.6.3-.2 1-.8 1.5-1.3.6-.6 1-1.1 1.3-1.6.2-.4.5-1.1.6-1.5s.3-1.2.3-1.7 0-1.2-.1-1.6c0-.4-.2-1.1-.4-1.5-.1-.4-.4-1-.6-1.4-.2-.3-.9-1.4-1.5-2.4-.7-1-1.5-2.5-1.9-3.3-.4-.7-.9-1.8-1-2.3-.2-.6-.4-1-.4-1s-.4.3-.9.8c-.6.5-1.4 1.1-1.9 1.5s-1.3.9-1.8 1.2c-.6.3-1.5.8-2.2 1.1s-1.7.7-2.2.8c-.5.2-1.4.4-2 .5q-1.05.15-3 .3c-1.3 0-2.3 0-2.9-.1-.5-.1-1.3-.2-1.9-.4-.6-.1-1.5-.5-2-.7-.6-.2-1.5-.8-2.1-1.2-.8-.5-1.5-1-2.4-1.9-.7-.7-1.5-1.6-1.8-2.1s-.7-1.3-1-1.8c-.2-.5-.6-1.3-.7-1.8-.2-.5-.4-1.3-.5-1.8-.1-.7-.2-1.5-.2-2.7 0-1.1.1-2 .2-2.7.1-.5.3-1.3.5-1.8.1-.4.5-1.2.7-1.7.3-.6.8-1.4 1.2-2 .5-.5 1.2-1.4 1.7-1.9.4-.5 1.7-1.7 2.8-2.7 1.2-.9 2.4-2 2.7-2.4.4-.4.9-1 1.3-1.5.3-.4.8-1.2 1-1.7.3-.6.6-1.4.7-1.9s.2-1.2.3-1.6c0-.4 0-1.3-.1-1.9 0-.6-.2-1.6-.3-2.1-.2-.6-.5-1.4-.7-1.9s-.7-1.3-1-1.8-.9-1.3-1.4-1.8c-.4-.4-1.1-1.1-2.3-2l-.9.4c-.5.3-1.3.6-1.7.7-.5.1-1.1.2-2 .2-1-.1-1.5-.1-2.3-.3-.5-.2-1.4-.5-1.9-.7s-1.3-.6-1.7-.8c-.4-.3-1.2-.8-1.6-1.1-.5-.4-1.3-1.1-1.9-1.6-.6-.6-1.3-1.4-1.7-1.9-.3-.5-.8-1.2-1-1.6s-.4-1-.5-1.4c-.1-.3-.2-.7-.2-.7 0-.1.3 0 .7.2.3.2.9.5 1.2.6.4.1.6.2.6.2 0-.1-.2-.5-.5-.9-.3-.5-.8-1.3-1.1-2-.2-.6-.6-1.6-.8-2.1-.2-.6-.4-1.6-.5-2.1-.1-.6-.3-1.6-.3-2.3-.1-.8-.2-1.8-.1-2.7 0-.8.1-1.5.1-1.7.1-.2.1-.1.8.6.5.4 1.2 1 1.7 1.4.4.3 1.2.8 1.8 1.1.5.4 2 1.2 3.4 1.8 1.4.7 2.8 1.5 3.2 1.7.5.3.8.5.8.5.1 0 0-.2-.1-.5-.1-.4-.2-.9-.2-1.4 0-.4.1-1 .2-1.3l.2-.6c.1 0 .2.2.3.3.1.2 1.2 1.4 2.4 2.6s2.6 2.8 3.1 3.4c.5.7 1.1 1.7 1.4 2.3.3.7.7 1.6.9 2.2.1.5.3 1.3.3 1.8.1.5.1 1.2.1 1.6-.1.3-.2.8-.4 1.6l.3.2c.2.1.7.5 1.2 1 .6.4 1.3 1.2 1.8 1.7.4.5 1.1 1.3 1.4 1.8.4.6.8 1.3 1 1.8.3.4.6 1.2.8 1.7.2.6.4 1.4.5 2 .2.6.3 1.6.3 2.6 0 .9 0 2-.1 2.5 0 .5-.2 1.3-.3 1.7-.1.5-.5 1.4-.8 2.1-.3.6-.8 1.5-1.2 2s-1 1.2-1.4 1.7c-.4.4-1.6 1.5-2.6 2.5-1.1.9-2.4 2.1-2.9 2.7-.6.6-1.3 1.4-1.6 1.9-.4.5-.8 1.3-1 1.7-.1.5-.4 1.2-.5 1.6-.1.5-.2 1.4-.3 2.1 0 .9 0 1.5.1 2.2.1.6.4 1.4.5 1.9.2.5.6 1.2.8 1.7.3.4.8 1.1 1.1 1.5s.9 1 1.3 1.3 1.1.8 1.5 1.1c.4.2 1.2.6 1.6.7.5.2 1.3.4 1.7.5.6.2 1.3.2 2.3.2.9 0 1.9-.1 2.4-.2.6-.1 1.5-.3 2.1-.5.5-.1 1.4-.5 1.9-.8.6-.2 1.4-.7 1.9-1 .5-.4 1.4-1 1.9-1.5.6-.5 1.4-1.3 1.9-1.9s1.2-1.4 1.4-1.7c.3-.4.6-.7.6-.9.1-.1.1-.4.1-.6 0-.3.1-.8.2-1.2.1-.5.2-1.1.4-1.5.1-.4.4-1.1.7-1.7.3-.5.8-1.5 1.1-2 .4-.6 1.2-1.8 1.9-2.7.7-1 1.5-2.1 1.8-2.5.2-.4.6-1.2.8-1.7.3-.5.6-1.4.8-2.1.2-.6.5-1.6.6-2.3.1-.6.3-1.6.5-3.3l.6-.2c.3-.2.9-.5 1.4-.7.4-.3 1.1-.7 1.5-1.1.4-.3 1-.9 1.3-1.2.4-.4.8-1.1 1.1-1.5.2-.4.5-1.1.7-1.6.2-.4.4-1.2.5-1.7s.2-1.5.2-2.2-.1-1.7-.2-2.3c-.1-.5-.3-1.4-.4-1.8-.2-.5-.4-1.2-.6-1.6s-.4-.7-.4-.7c-.1 0 0 .5.2 1.2.1.8.2 1.7.3 2.9 0 1.4 0 2-.1 2.7-.1.5-.4 1.3-.6 1.7-.2.5-.5 1.2-.8 1.6s-.7 1-1 1.3c-.3.4-.8.8-1.2 1.1-.3.3-1 .7-1.5.9-.6.3-1.2.5-1.5.6-.2 0-.8.1-1.3.2-.4 0-1.2 0-1.7-.1-.5 0-1.3-.2-1.8-.3s-1.3-.5-1.9-.7c-.8-.4-.9-.5-.8-.6s.5-.4.8-.6c.4-.3.9-.8 1.2-1.1.3-.4.8-1.1 1-1.6.3-.6.6-1.5.8-2 .2-1 .3-1.3.3-3.4 0-1.3-.1-2.7-.2-3.3 0-.5-.2-1.6-.4-2.3-.1-.7-.5-2-.7-2.9-.3-.8-.8-2-1-2.5q-.45-.9-.9-1.5l.1.3c0 .1.3 1 .5 2 .3 1 .6 2.4.7 3.3.1.8.3 2.1.3 2.8 0 .9 0 1.8-.1 2.5 0 .6-.2 1.4-.3 1.8-.1.5-.4 1.2-.7 1.8-.4.7-.7 1.1-1.3 1.7s-1 1-1.8 1.3c-.5.3-1.3.6-1.8.7-.6.2-1.1.3-1.9.3s-1.3-.1-1.7-.3c-.4-.1-.9-.3-1.3-.7l.3-.1c.1-.1.5-.4.7-.7.3-.3.6-.7.7-1 .1-.2.3-.7.4-1 .1-.4.1-1.1.1-1.8s0-1.6-.1-2.1c-.1-.6-.4-1.8-.7-2.8-.2-1-.5-2.3-.7-3-.1-.7-.2-1.8-.2-2.7-.1-.9 0-1.9 0-2.5.1-.5.2-1.2.3-1.6s.2-.7.2-.7c-.1 0-.3.1-.5.3-.2.1-.5.3-.7.4s-.6.3-1 .4c-.3.2-1 .3-1.7.3-.6 0-1.3 0-1.7-.1-.3 0-.8-.2-1.2-.4-.3-.2-.9-.5-1.2-.7-.3-.3-.5-.5-.5-.6 0 0 0-.1.1-.1s.4-.1.7-.2q.6-.3 1.2-.9c.3-.3.7-.9.8-1.2.2-.4.5-1.1.6-1.6.2-.8.2-1 .2-4.9.1-3.4.1-4.2.2-5 .1-.6.3-1.4.5-1.8.1-.5.5-1.4.8-1.9.3-.6.8-1.5 1.1-1.9.4-.4 1-1.1 1.5-1.6.4-.4 1-.9 1.3-1.1q.6-.4.5-.5c-.1 0-.3-.1-.6-.1-.2 0-.7-.1-1-.2-.4-.1-.9-.3-1.2-.4s-.7-.5-1-.7c-.3-.3-.6-.7-.8-1-.1-.3-.3-.7-.3-1-.1-.5-.1-.5.1-.5.1.1.4.1.6.2.2 0 .7-.1 1.1-.2.5 0 1.2-.3 1.6-.5.6-.3 1.1-.8 2.9-2.6 1.2-1.2 2.4-2.4 2.8-2.6.3-.3.9-.7 1.3-1 .4-.2 1.1-.5 1.5-.7.8-.3.9-.3 2.8-.3 1.2 0 2.1 0 2.4.1.2.1.4.1.4.1s0-.2-.2-.4c-.1-.2-.2-.6-.3-1q-.2-.6-.2-1.2c.1-.4.2-.9.3-1.2zm44.9 1.3c.1 0 .4 1 1.5 4.5h2.4c1.6.1 2.5.1 2.5.2 0 0-.9.7-1.9 1.4-1 .8-1.9 1.4-1.9 1.4 0 .1.3 1.1.7 2.4.4 1.2.7 2.3.7 2.3-.1 0-.9-.6-2-1.4l-2-1.4c-.1 0-1 .7-2 1.4-1 .8-1.9 1.4-2 1.4 0 0 .1-.3.2-.8.1-.4.5-1.4.8-2.3s.5-1.6.4-1.6c0 0-.9-.7-1.9-1.4-1-.8-1.9-1.4-1.8-1.5h4.7l.8-2.3c.4-1.3.8-2.3.8-2.3m61.3 9.6h.1s-1 1.5-2.2 3.4c-1.2 1.8-2.3 3.3-2.3 3.3-.1 0-.5-.5-.9-1.2-.4-.6-1.1-1.7-1.6-2.3s-.8-1.2-.8-1.2 1.7-.5 3.8-1c2.1-.6 3.8-1 3.9-1m-175.5.1c.1 0 1.8.5 3.7 1l3.6.9c0 .1-.5.8-1 1.6q-.9 1.2-2.1 3l-.4-.5c-.2-.3-1.1-1.8-2.1-3.2s-1.8-2.7-1.8-2.7q0-.1.1-.1m128.1 3-.4.5c-.2.3-.4.8-.5 1-.1.3-.2.9-.2 2l.5.2c.2.1.5.3.6.5.2.3.2.4.2 2 0 .9-.1 2.2-.1 2.8 0 .7.1 1.2.1 1.3q.1.1.2 0s.2-.8.3-1.7c.2-1 .4-2 .6-2.4.1-.3.3-.8.5-1.1q.4-.6.8-.8c.3-.1.7-.2 1-.2.5 0 .6-.1 1.1-.6.4-.3.9-.7 1.2-.8.5-.2.8-.3 1.5-.3.8 0 1 .1 1.6.4.4.2.7.4.7.4 0 .1-.1.1-.2.1-.2 0-.6.1-.9.3-.3.1-.8.4-1 .6-.3.2-.5.5-.7.7-.2.4-.2.4.1.9.1.4.2.8.2 1.1s-.1.7-.2.9-.5.8-.9 1.3c-.4.4-.9 1.2-1.1 1.7-.2.4-.5.9-.6 1.1 0 .2-.1.5 0 .6 0 .2 0 .2.4-.1.2-.2.7-.8 1.1-1.4.6-.7 1-1.1 1.4-1.3.5-.2.7-.3 1.1-.3s.8 0 1 .1c.3.2.4.2 1.1-.1.5-.1 1.1-.2 1.5-.2.3 0 .8 0 1 .1.2 0 .6.2.9.4s.7.6 1 .9q.3.45.3.6s-.3 0-.6-.1-.8-.1-1-.1c-.3 0-.7.1-1 .3-.3.1-.7.3-.8.4-.2.2-.2.3-.2.7.1.4 0 .6-.1 1-.2.4-.4.6-1 1-.4.3-1.1.7-1.5 1-.5.3-1.2.8-1.6 1.2-.5.5-.9 1-1.1 1.5-.3.4-.4.8-.4 1.1s.1.7.2.9.3.4.6.5c.4.2.7.3 1.9.3 1 .1 1.7.2 1.9.3s.4.2.5.3.3.4.4.9h.9c.9 0 1-.1 1.7-.4l.8-.4s0 .3-.1.7c0 .3-.2.8-.3 1.1-.2.2-.5.5-.6.7-.2.1-.6.3-.9.4-.2.2-.8.3-1.1.3-.7.1-.7.1-1.1.5-.2.3-.5.6-.7.7s-.5.2-1 .2c-.6 0-1-.1-1.9-.4-.6-.2-1.6-.6-2.2-.8-.8-.2-1.4-.4-2-.4-.8-.1-.9-.1-1.5.2-.3.1-.8.5-1.2.8-.3.3-.8 1-1.1 1.4-.3.5-.8 1.4-1.1 2s-.7 1.6-.9 2.2-.6 1.8-.8 2.5c-.2.8-.4 1.8-.5 2.4 0 .5-.1 1.4 0 2.1 0 .6.1 1.2.1 1.4.1.1.1.2-.4.1-.3-.1-.8-.2-1.1-.3-.3-.2-.8-.6-1-.9-.3-.3-.8-.9-1-1.4-.3-.5-.5-.9-.5-.9 0 .1-.3.5-.6.9-.3.5-.8 1.2-1.1 1.7-.4.5-1.1 1.3-1.6 1.8s-1.4 1.3-2 1.7c-.5.5-1 .8-1 .8-.1 0-.2-.1-.2-.2 0-.2-.1-.8-.3-1.4-.1-.7-.4-1.7-.7-2.3-.2-.5-.6-1.4-.8-1.9-.3-.5-.8-1.4-1.1-1.9-.4-.6-1.2-1.5-1.7-2.1-.6-.6-1.4-1.4-1.9-1.7-.5-.4-1.5-1.2-3.5-2.5l.3-.2c.1-.1.7-.4 1.2-.7.6-.3 1.4-.6 1.9-.8s2-.8 3.3-1.3 3.1-1.1 3.8-1.4c.8-.4 2-.9 2.8-1.3.7-.4 1.8-1 2.4-1.4s1.5-1.1 2-1.6 1.2-1.3 1.5-1.7c.3-.5.7-1.2.9-1.6.1-.4.3-1 .4-1.3.1-.4.2-1.1.2-1.6.1-.5 0-1.5 0-2.2-.1-.7-.3-1.8-.4-2.4-.1-.5-.4-1.5-.5-2q-.3-.9-.3-1.7 0-.7.2-1.1c.1-.3.3-.6.5-.7.1-.2.4-.4.6-.5s.3-.2.3-.4c.1-.2.1-.6.1-.8.1-.3.2-.8.4-1.1s.5-.6.7-.8c.2-.1.5-.3.7-.3.3-.1.7-.2 1.6-.2m-46.3 156.1c.1 0 .5.1.7.2s.4.3.5.5c.1.1.2.4.3.7 0 .3 0 .6-.2.9-.1.2-.3.4-.5.6-.2.1-.6.2-.8.2-.1 0-.5-.1-.7-.2s-.5-.3-.6-.5-.2-.5-.2-.8q0-.6.3-.9c.1-.2.3-.4.5-.5s.5-.2.7-.2m23 .4c0 .1.2.8.3 1.7.2.9.3 1.6.3 1.6-.1 0-.5.1-1.1.2-.5.1-1.1.2-1.3.2s-.3 0-.3-.1c0 0 .4-.7.8-1.5.5-.8.9-1.6 1.1-1.8.1-.2.2-.4.2-.3m-23.3 4.6c.4 0 .7.1 1 .3.2.1.4.4.6.6q.2.3.2.8c0 .2-.1.6-.2.9-.1.2-.4.5-.6.6s-.5.2-.7.3c-.2 0-.6 0-.8-.1-.2 0-.6-.2-.7-.3-.2-.2-.4-.5-.5-.8q-.2-.4-.2-.8c.1-.2.2-.5.3-.7s.4-.5.6-.6c.3-.1.6-.2 1-.2" class="s1"></path><path d="M107.8 58.9c-.3.3-.7.9-.9 1.3-.1.3-.3.7-.3.7s-.3-.1-.6-.3c-.4-.2-1-.4-1.3-.5-.4-.1-1.1-.2-1.6-.2-.7 0-1.1.1-1.7.3-.4.1-.8.3-.8.4s.2.1.8.1c.5 0 1.1.1 1.5.2s1 .3 1.3.5c.4.2.9.6 1.1.9s.5.7.7 1c.1.2.2.5.2.6 0 0-.3 0-.6-.1-.4-.1-1.3-.2-1.9-.2-.9 0-1.5 0-2.2.1-.6.1-1.3.3-1.7.5-.4.1-1 .4-1.4.6-.3.2-.9.7-1.3 1-.3.4-.6.7-.5.7 0 0 .4-.1.8-.3.5-.2 1.1-.5 1.4-.6.4-.1 1.1-.3 1.5-.3.5-.1 1.3-.2 2-.1.8 0 1.3.1 2 .3.4.2 1.1.5 1.5.8.5.2.9.5 1.1.7l.2.3c-1 .1-1.6.2-2.1.3s-1.2.2-1.5.4c-.4.1-1 .3-1.3.4-.3.2-.9.5-1.4.9-.5.3-1.3.9-1.7 1.4-.5.5-1.2 1.3-1.5 1.8-.4.6-.8 1.4-1 1.9-.3.5-.5 1.3-.7 1.8-.2.7-.2 1.3-.2 2.5-.1 1.3-.1 1.5 0 1.2.1-.2.3-.9.5-1.5s.6-1.5.8-2.1c.3-.5.8-1.4 1.2-1.9.3-.6 1-1.4 1.5-1.9.4-.4 1.1-1.1 1.5-1.4.5-.3 1.1-.7 1.5-.8.4-.2 1.1-.5 1.6-.7.8-.2 1.2-.2 2.6-.3.9 0 1.7 0 1.8.1.3 0 .3.1-.2.5-.3.2-.8.6-1.1.9s-.8.8-1.1 1.2c-.3.3-.7 1-1 1.4-.2.5-.6 1.3-.8 1.8s-.5 1.4-.6 2c-.2.8-.2 1.5-.2 2.4 0 .8 0 1.7.1 2.2s.4 1.3.5 1.9c.2.5.6 1.4.9 1.9.2.6.7 1.4 1 1.9s.9 1.2 1.2 1.6l.7.7c.1 0-.2-.5-.5-1.1s-.7-1.7-1-2.3c-.3-.7-.6-1.8-.8-2.6-.2-.7-.4-1.8-.4-2.4-.1-.6-.1-1.6-.1-2.2s.2-1.4.3-1.9.4-1.3.7-1.8c.2-.5.7-1.4 1.1-1.9s1-1.1 1.4-1.5c.3-.3 1-.9 1.5-1.2.5-.4 1.2-.8 1.5-1 .4-.2.7-.4.7-.4-.1-.1-.5-.3-.9-.5-.5-.3-1.1-.7-1.4-.9-.4-.3-.8-.6-1-.9-.2-.2-.5-.8-.7-1.2-.4-.7-.4-.9-.5-1.9 0-.5.1-1.4.1-1.8.1-.4.3-1 .5-1.4l.3-.6c.9-.1 2.1-.1 3.3-.1 1.4 0 2.2.1 2.6.2s.9.3 1.2.5c.3.1.7.4 1 .7.5.4.5.4.5.2s-.1-.5-.3-.8c-.1-.3-.5-.8-.8-1.1-.2-.2-.7-.6-1-.7-.3-.2-.8-.4-1.1-.5-.4-.1-1.3-.2-2.8-.2-1.2-.1-2.4-.2-2.6-.2l-.5-.1zm14.6 5.3c0 .1.2.3.5.6.2.2.7.6 1.1.8.3.3 1 .6 1.4.9.5.2 1.1.5 1.3.5.4.1.5.1.9 0 .2 0 .6-.3.8-.4l.4-.4c1.3.2 1.8.3 2 .3.4 0 .3-.1-.6-.6a5 5 0 0 1-1.6-1.1l-.5-.6z" class="s0" data-source="https://football-logos.cc"></path><!-- source: https://football-logos.cc --></svg>