<svg xmlns="http://www.w3.org/2000/svg" viewBox="41.55 8.52 109.65 175.72"><!-- Source: https://football-logos.cc --><g fill-rule="evenodd" clip-rule="evenodd" data-source="https://football-logos.cc"><path fill="#f4dc40" d="M96.378 159.912c3.827-10.293 16.831-14.537 29.054-19.375 12.609-4.99 24.385-10.598 24.385-22.986L149.805 8.52H42.939v109.031c0 12.389 11.776 17.996 24.385 22.986 12.222 4.838 25.227 9.082 29.054 19.375"></path><path fill="#f4dc40" d="M42.345 174.143c-.897 1.105-1.024 3.234-.425 4.441 1.072 2.162 4.381 3.008 4.92 5.652l4.962-4.959q-.305-.313-.606-.605c3.086 2.373 7.176 2.479 9.957-.66l.02.02 4.372-5.564c9.396 3.471 19.744 5.518 30.834 5.93 11.091-.412 21.438-2.459 30.835-5.93l4.371 5.564.02-.02c2.781 3.137 6.871 3.033 9.957.66q-.301.292-.605.605l4.961 4.959c.539-2.645 3.85-3.49 4.92-5.652.6-1.207.471-3.336-.426-4.441h.014l-7.264-7.666 6.449-6.438.207-.164-.016-.025.016-.016-.021.01-11.817-17.334c-9.613 5.77-23.023 13.994-41.603 15.316-18.58-1.322-31.989-9.547-41.602-15.316L42.96 159.844l-.021-.01.018.016-.018.025.207.164 6.449 6.438-7.263 7.666z"></path><path fill="#519dd5" d="m50.957 167.775-5.206 5.355c1.872.145 5.023 3.17 7.535 4.852 2.207 1.064 4.878 1.016 6.647-1.205z"></path><path fill="#973030" d="M96.378 154.928c-3.347-8.012-15.68-12.285-27.341-16.793-12.032-4.65-23.351-10.01-23.351-21.393v-84.1H147.07v84.1c0 11.383-11.318 16.742-23.352 21.393-11.659 4.508-23.993 8.781-27.34 16.793M45.686 11.251h101.388v18.674H45.686z"></path><path fill="#519dd5" d="m50.338 165.059 10.613 10.334 2.824-3.668c-3.383-1.254-10.467-4.651-13.437-6.666m-6.308 9.295c-1.16 1.52-1.01 2.885-.175 3.902.89 1.084 2.512 2.01 3.51 3.174l3.293-3.164c-1.445-1.694-4.687-3.735-6.628-3.912m97.769-6.579 5.207 5.355c-1.871.145-5.023 3.17-7.535 4.852-2.207 1.064-4.877 1.016-6.646-1.205zm-45.421 8.416c5.706.068 13.089-1.01 20.685-2.973 11.543-2.982 24.195-8.562 30.012-13.73l-9.59-13.967c-8.74 5.035-23.59 13.695-41.106 14.213-17.516-.518-32.367-9.178-41.106-14.213l-9.591 13.967c5.817 5.168 18.469 10.748 30.011 13.73 7.595 1.964 14.98 3.042 20.685 2.973m46.04-11.132-10.613 10.334-2.824-3.668c3.382-1.254 10.468-4.651 13.437-6.666m6.309 9.295c1.16 1.52 1.01 2.885.174 3.902-.889 1.084-2.512 2.01-3.51 3.174l-3.293-3.164c1.445-1.694 4.687-3.735 6.629-3.912"></path><path fill="#519dd5" d="M96.378 154.928c-2.399-5.742-9.413-9.564-17.487-12.928V32.642h17.487zm-33.205-19.184c-9.602-4.197-17.487-9.502-17.487-19.002v-84.1h17.487zm50.696-103.102h15.721v103.1a147 147 0 0 1-5.871 2.393c-3.303 1.277-6.66 2.535-9.85 3.863z"></path><path fill="#f4dc40" d="M76.498 53.553c.908.673 1.999 1.647 3.62 2.229 2.198.789 5.027.422 7.341.422 2.011.224 1.768 1.556.451 1.915-1.512.411-4.339 1.234-5.797 1.317-1.244.07-2.667-.112-4.15-1.14-2.24-1.554-3.954-4.981-3.451-5.47.357-.346 1.722.531 1.986.727m.264 34.606c-1.814.524-4.807 4.362-5.242 6.282-1.431-.775-3.603-5.163-1.715-7.688-4.788.667-5.678 2.292-5.945 2.069 0-2.883.121-4.648 2.781-7.31.366-2.548-2.106-2.926-4.465-3.725 5.056-2.309 7.609-.924 10.658.798 3.194 1.804 5.301 3.821 7.577 3.661 2.161-.152 5.836-.317 7.712-1.339 1.144-.624 1.584-1.313.965-1.91-.263-.254-.456-.55-2 .246-.228-4.498 5.074-12.335 7.578-14.083.575-.402.923-1.413.804-2.371-3.027-.01-10.831 4.854-11.998.045-.218-.898.033-1.741 1.034-2.115 2.296.131 7.204.953 7.79-2.552.249-1.491-.795-3.15-2.58-3.714-1.05-.332-2.521-.867-3.56-.867-2.25-.361-2.855-3.257-1.203-4.667 1.999-1.705 3.5.402 5.363 1.549 1.84 1.132 4.191 2.331 6.062 2.643 2.458.411 1.96-1.792 1.003-2.235-1.221-.565-4.709-.89-6.673-1.482-1.488-.449-2.388-2.497-1.023-3.502.698-.514 1.638-.754 4.302-.233 5.914 3.542 9.587.347 13.154.347-.406.857-.455 2.312-.307 2.952 2.223 2.551 6.535 7.181 7.578 15.335-1.318-.959-3.846-2.337-5.594-2.297 1.498 1.227 5.627 6.667 5.467 10.916-2.037-1.784-5.379-2.843-6.684-2.745 1.332.998 5.344 3.557 4.279 10.322-.688-1.113-2.02-2.84-4.283-2.84-.527 5.919 4.891 15.223 9.203 19.049 1.488 1.32 3.418 2.834 5.043 3.221 1.221.289 2.189-.018 2.83-1.064 1.311-2.143-.355-5.496-1.346-7.478-1.838-3.688-4.604-7.435-5.633-11.599-.994-4.031-.588-8.675 2.562-12.052 4.607-4.934 12.555-4.285 17.34.302-1.01.287-3.104-1.356-4.389-1.261-1.285.094-1.738 1.048-2.402 1.745-2.084-2.546-6.891-1.254-9.342 2.987-2.811 4.865.613 10.002 1.611 12.593a26 26 0 0 0 1.697-2.883c.029 1.901-.512 2.803.633 6.417 1.25 3.943 3.924 7.546 2.574 11.842-.377 1.203-.906 2.357-2.18 3.186-3.504 2.283-6.918.045-8.25-.721 1.053 6.963-1.641 6.189-4.416 10.006-2.186 3.004-.07 5.078 1.561 7.082 1.613 1.984 2.85 4.123 2.729 5.598-.102 1.229-.75 2.541-2.23 3.27-1.305.643-3.377.752-5.414.971-2.145.234-3.082 1.941-3.82 3.061-.752-1.463-1.119-3.135-1.217-4.219-1.773 0-4.133 2.365-5.463 3.695-1.988-3.051-.924-5.252.076-7.066-1.51-1.232-4.083-.055-5.542.311.923-4.941 6.984-5.254 11.263-3.844 1.439.475 3.17 2.504 4.277.836 1.404-2.115-3.227-7.797-3.871-8.248-3.24-3.689-4.039-4.029-2.025-8.725.623-1.451 1.236-2.887 1.201-4.283-.129-5.019-10.167-5.48-11.688-9.846-.082-.48 1.555-4.475 1.075-6.337-.893 1.29-2.383 3.453-2.933 4.474-1.049.031-2.41-.399-3.154-.899-1.092.459-2.14 1.343-2.473 2.33-.552-.075-1.03-.382-2.271-.889-1.093.684-2.083 1.747-2.813 2.859-1.871-1.286-3.124-2.91-3.638-3.911M87.753 99.25c-1.867-3.154-1.758-6.248 3.724-7.276.82 1.47 3.53 3.69 4.901 4.332 2.005.937 3.862 1.511 5.22 3.403-3.768 1.855-6.505 2.65-7.957 5.561-1.683 4.875 3.119 4.539 1.793 8.5-.544 1.623-2.852 2.344-4.972 2.344l-4.611-.445c-2.125.627-4.629 3.098-6.431 4.562-1.249-.832-2.037-6.943-.97-7.818-1.101-.58-4.28.439-5.338 1.33-.631-3.711 2.936-5.143 4.372-5.717-.984-1.709-4.196-2.211-5.375-2.01.957-3.635 5.997-4.635 9.149-1.402 1.478 1.516 3.618 2.838 5.614 2.322 4.041-1.045 1.907-5.952.881-7.686m.996-30.739c-.666 0-6.074.39-6.518-.054-6.701-2.333-6.479-6.398-9.589-10.242-2.001-2.472-6.695-3.363-8.869 1.094 1.97.166 4.05.48 4.394 2.065-2.874-.103-6.834 3.531-7.025 5.503 2.661 0 6.337-.484 6.861 1.399-.215 1.329-2.04 4.223-2.957 5.877 3.766-.623 5.954-1.486 7.927-2.569.822.276.623 1.304.843 1.951.732.18 1.862-.47 2.83-.345.425.682.909 2.526 1.889 3.637 1.623-.043 2.438-.599 3.769-.599l2.581 2.073c-.003-3.281 2.844-8.125 3.864-9.79m-25.065 97.985 3.522-10.23 2.72.938q1.521.525 1.938.83.665.498.883 1.438.219.94-.203 2.162-.381 1.108-1.058 1.715c-.677.607-.922.637-1.409.693q-.733.089-2.268-.441l-1.109-.381-1.329 3.857zm4.613-7.918-.999 2.902.934.322q.944.324 1.326.309.384-.017.72-.287.334-.273.507-.773.176-.507.073-.936c-.07-.283-.198-.502-.392-.656q-.286-.231-1.347-.598zm3.225 10.563 2.617-10.496 3.661.912q1.403.351 1.932.785.532.43.743 1.227.214.794-.029 1.768-.307 1.231-1.085 1.836c-.778.605-1.157.578-1.915.527.306.357.541.729.705 1.105q.247.568.569 1.957l.535 2.309-2.069-.518-.69-2.598q-.373-1.41-.537-1.779-.167-.372-.408-.559-.243-.185-.844-.336l-.357-.09-1.093 4.383zm3.244-5.625 1.289.322q1.182.292 1.529.271a1 1 0 0 0 .627-.289q.28-.264.41-.787.125-.503-.001-.855a1.05 1.05 0 0 0-.438-.555q-.225-.14-1.392-.432l-1.36-.338zm5.41 7.83 1.878-10.654 6.482 1.145-.317 1.803-4.723-.834-.417 2.363 4.389.773-.316 1.795-4.388-.773-.511 2.898 4.883.861-.316 1.795zm8.27 1.568.755-10.791 2.87.199q1.605.115 2.087.301.77.308 1.225 1.16.454.852.363 2.141-.082 1.17-.578 1.932-.496.76-1.182 1.033-.684.274-2.305.162l-1.17-.082-.285 4.07zm2.407-8.842-.214 3.062.986.068q.995.07 1.361-.045.367-.117.621-.463.253-.349.291-.877.037-.538-.172-.924c-.141-.256-.321-.434-.548-.533q-.336-.15-1.455-.229zm13.694 8.918-1.945.102-.902-2.414-3.537.186-.602 2.492-1.9.1 2.883-10.984 1.893-.1zm-3.518-4.101-1.428-3.945-.988 4.07zm4.463 3.941-2.064-10.621 3.703-.719q1.419-.275 2.082-.107.666.166 1.193.799.53.63.719 1.615.244 1.245-.207 2.121-.448.877-1.512 1.287.644.294 1.107.705.463.41 1.342 1.533l1.459 1.865-2.092.406-1.725-2.062q-.932-1.12-1.238-1.387-.307-.267-.605-.332-.299-.067-.908.051l-.361.07.861 4.434zm.563-6.471 1.305-.252q1.195-.234 1.5-.4a1 1 0 0 0 .445-.527q.141-.358.039-.887c-.064-.338-.188-.598-.361-.775a1.04 1.04 0 0 0-.633-.316q-.262-.031-1.441.197l-1.377.268zm8.218 4.61-2.617-10.496 6.387-1.594.443 1.777-4.654 1.16.582 2.328 4.322-1.078.441 1.768-4.324 1.078.713 2.855 4.811-1.199.441 1.77zm4.405-12.416 3.09-1.062q1.174-.404 1.859-.348.688.057 1.404.504.715.449 1.342 1.34.627.895 1.135 2.365.456 1.325.492 2.408.039 1.085-.227 1.814a3.1 3.1 0 0 1-.814 1.246q-.552.513-1.578.867l-3.18 1.094zm2.285 1.15 2.332 6.773 1.27-.436c.545-.189.92-.373 1.129-.562.211-.186.355-.41.441-.67q.126-.39.049-1.111-.076-.724-.453-1.82-.394-1.136-.775-1.738c-.256-.4-.535-.689-.846-.865a1.65 1.65 0 0 0-.975-.217q-.388.031-1.404.383zM53.806 15.526l2.742 10.537h-2.207l-.536-2.168H50.97l-.549 2.168h-1.794l2.805-10.537zm-.474 6.434-.928-3.704-.935 3.704zm9.956-4.116-1.734.689q-.205-.659-.57-.953-.364-.29-.936-.291-.201 0-.435.044-.233.046-.383.144-.392.249-.392.795-.001.398.268.645.206.194.586.307l.405.111q.935.219 1.776.57.269.126.51.323.556.429.85 1.073c.198.431.297.898.297 1.41a3.7 3.7 0 0 1-.294 1.477q-.31.727-.791 1.17a2.8 2.8 0 0 1-.878.562 3.8 3.8 0 0 1-1.023.26q-.323.04-.634.04a4 4 0 0 1-.917-.098 4 4 0 0 1-.822-.292 3.3 3.3 0 0 1-1.314-1.215 3.9 3.9 0 0 1-.487-1.321l1.889-.524q.186.795.667 1.169.454.323 1.158.323.256-.001.461-.044.273-.092.449-.204.455-.314.455-.885a.9.9 0 0 0-.199-.584 1.3 1.3 0 0 0-.487-.338 2 2 0 0 0-.386-.142l-.454-.121a17 17 0 0 1-1.276-.397q-.33-.15-.594-.319a2.6 2.6 0 0 1-.466-.378 2.7 2.7 0 0 1-.486-.72q-.268-.608-.268-1.424 0-.383.059-.708.059-.326.184-.664.25-.645.699-1.106a2.6 2.6 0 0 1 1.027-.661 3.6 3.6 0 0 1 1.173-.198q.317 0 .576.035.258.033.507.092.563.166.948.429.893.62 1.282 1.919m6.946-2.318v2.085H68.04v8.451h-2.043v-8.451h-2.22v-2.085zm4.06 10.694a3.2 3.2 0 0 1-1.612-.409q-.72-.408-1.225-1.255a6.4 6.4 0 0 1-.688-1.763 9 9 0 0 1-.229-2.018 9.2 9.2 0 0 1 .281-2.256q.335-1.141.866-1.846.393-.54.923-.84a3.1 3.1 0 0 1 1.683-.465q.903 0 1.557.367.717.429 1.223 1.246.455.734.702 1.755a8.6 8.6 0 0 1 .193 2.983q-.052.48-.153.96-.237 1.059-.624 1.755-.499.877-1.243 1.332a3.1 3.1 0 0 1-1.654.454m0-8.833q-.519-.001-.836.295-.316.298-.492.897-.13.397-.219 1.094a8.5 8.5 0 0 0-.062 1.102l.024.457v.466q.08.683.147.962.065.283.183.574.169.383.399.614.35.354.855.354.26 0 .47-.083t.358-.225q.306-.276.487-.893c.101-.305.167-.666.206-1.086q.023-.226.043-.529t.019-.597q0-.397-.013-.589a20 20 0 0 0-.049-.626q-.056-.374-.118-.663a4 4 0 0 0-.137-.499q-.212-.555-.486-.787-.312-.237-.779-.238m11.403-1.861v10.537h-1.752l-3.36-7.08h-.049v7.08h-1.583V15.526h2.213l2.923 6.186h.025v-6.186zm12.293 0-2.642 10.537h-2.213l-2.623-10.537h2.18l1.757 7.522 1.814-7.522zm2.578 0v10.537h-2.045V15.526zm3.362 8.444h3.521v2.093h-5.564V15.526h2.043zm6 0h3.521v2.093h-5.564V15.526h2.043zm8.472-8.444 2.744 10.537h-2.207l-.537-2.168h-2.834l-.549 2.168h-1.795l2.805-10.537zm-.472 6.434-.93-3.704-.934 3.704zm14.228-4.392h-4.191v2.397h3.328v1.979h-3.328v4.118h-2.043V15.526h6.234zm1.385 8.495h-2v-2.385h2zm8.406-6.622-2.145.173q-.001-.255-.014-.388-.012-.13-.062-.461a3 3 0 0 0-.242-.719q-.388-.689-1.152-.689a1.13 1.13 0 0 0-.93.457q-.318.407-.475 1.118a4 4 0 0 0-.076.373 8 8 0 0 0-.066.505q0 .218-.018.585-.02.367-.02.509 0 .436.016.676.014.239.053.599.093.757.295 1.144.2.386.402.574.37.308.924.308.33 0 .6-.154.266-.153.471-.46.352-.533.443-1.365l1.996.15q-.131 1.357-.711 2.269a3.3 3.3 0 0 1-1.527 1.307q-.599.27-1.377.271-.7 0-1.309-.263a3.5 3.5 0 0 1-1.066-.697q-.873-.87-1.248-2.408a8.5 8.5 0 0 1-.242-2.062q0-1.26.305-2.317.344-1.117.93-1.845a3.7 3.7 0 0 1 .973-.824q.76-.436 1.727-.436.608 0 1.115.154.504.154.91.461.79.6 1.178 1.754.255.756.342 1.701m3.086 6.622h-2v-2.385h2z"></path></g><!-- source: https://football-logos.cc --></svg>