<svg xmlns="http://www.w3.org/2000/svg" xml:space="preserve" style="shape-rendering:geometricPrecision;text-rendering:geometricPrecision;image-rendering:optimizeQuality;fill-rule:evenodd;clip-rule:evenodd" viewBox="0 0 183.61 183.61"><!-- Source: https://football-logos.cc --><defs data-source="https://football-logos.cc"><style>.fil0{fill:#f2d83a}.fil4{fill:#000}</style></defs><g id="Layer_x0020_1" data-source="https://football-logos.cc"><g id="_738161936"><path d="M91.84 183.611c50.527 0 91.773-41.245 91.773-91.84C183.613 41.246 142.367 0 91.84 0 41.247 0 0 41.246 0 91.772c0 50.594 41.245 91.84 91.84 91.84" class="fil0"></path><path d="M91.634 173.576c45.234 0 82.149-36.849 82.149-82.011 0-45.233-36.915-82.08-82.15-82.08-45.3 0-82.216 36.847-82.216 82.08.001 45.163 36.915 82.01 82.217 82.01" style="fill:#962d35"></path><path d="M91.222 144.909c29.834 0 54.1-24.267 54.1-54.031 0-29.765-24.266-54.033-54.1-54.033S37.121 61.112 37.121 90.878c0 29.765 24.266 54.03 54.101 54.03" style="fill:#b6d6e8"></path><path d="M91.222 144.909c29.834 0 54.1-24.267 54.1-54.031 0-29.765-24.266-54.033-54.1-54.033S37.121 61.112 37.121 90.878c0 29.765 24.266 54.03 54.101 54.03z" style="stroke:#f2d83a;stroke-width:2.2911;stroke-miterlimit:2.613;fill:none"></path><path d="M123.05 160.034c-.138-.345-.413-.482-.894-.551-.343 0-.687 0-1.03.14a2.2 2.2 0 0 0-.893.548c-.206.344-.276.618-.139.893.275.618.893.757 1.926.413q.515-.206.824-.62.413-.412.205-.823" class="fil4"></path><path d="M124.289 159.552c.273.619.205 1.237-.277 1.857-.38.512-.907.896-1.511 1.1-.757.273-1.445.342-2.133.136-.755-.136-1.236-.55-1.511-1.1q-.413-.927.206-1.856c.38-.513.907-.897 1.512-1.1a5 5 0 0 1 1.993-.206c.826.138 1.376.55 1.72 1.169m-11.208-8.387-2.336 2.611c-2.338-1.237-4.675-1.581-7.08-1.169-1.857.345-3.37 1.17-4.538 2.339-1.306 1.305-1.788 2.817-1.373 4.536.548 2.27 2.061 3.712 4.675 4.262 1.237.276 2.543.276 3.918.07 1.306-.276 2.406-.688 3.37-1.307q1.236-.723 2.472-2.269l3.232 1.719c-1.168 1.375-2.406 2.406-3.643 3.162-1.375.755-2.955 1.306-4.812 1.649-3.093.62-5.774.344-8.18-.688-2.75-1.1-4.4-3.093-5.087-5.842q-1.136-5.054 3.918-8.456c1.582-1.1 3.438-1.788 5.432-2.2 3.776-.686 7.078-.135 10.032 1.582z" class="fil0"></path><path d="M90.947 165.532c0-.276-.136-.55-.48-.757a1.93 1.93 0 0 0-1.031-.274c-.413-.07-.757 0-1.1.137-.344.206-.55.413-.55.757-.068.619.412 1.03 1.444 1.1a2.9 2.9 0 0 0 1.1-.206 1 1 0 0 0 .617-.757" class="fil4"></path><path d="M92.252 165.602c-.068.688-.48 1.237-1.168 1.582a3.4 3.4 0 0 1-1.993.412c-.756-.068-1.375-.275-1.924-.687-.55-.413-.826-.963-.757-1.582.069-.687.48-1.239 1.17-1.582.618-.342 1.237-.481 1.924-.412a4.3 4.3 0 0 1 1.856.618c.686.412.962 1.03.892 1.651M76.167 148.69l-4.4 16.36 4.4.825 1.857-6.942 5.43.964.825-2.957-5.5-1.033.964-3.366 7.148 1.235.756-3.023z" class="fil0"></path><path d="M74.861 94.384a10 10 0 0 0-1.238 1.787c-2.337-1.993-.618-2.545-3.024-4.744-2.749 0-3.507 5.087-4.88 6.256-5.43-3.505 1.718-10.518-6.737-5.224-3.026-4.194 7.974-12.03-1.1-8.181.206-7.288 11.755 2.474 16.98 2.199.343 0 .687-.068.962-.206 10.999-1.857 8.868-3.85 5.155-3.643 0-5.293 7.219-9.075 6.05-13.611-1.374 0-8.936 3.506-8.592 0 0-3.024 4.605-1.719 7.08-3.918 0-5.981-4.056-3.093-7.837-5.636 0-6.6 10.243 2.337 13.887 0 0-4.47-6.187 1.306-7.15-4.744 1.72-6.051 6.944 4.193 17.943-1.719l-2.612 3.712c2.612 2.199 6.943 4.055 5.843 12.923-.276-.618-3.094-2.13-3.575-1.58 1.444 2.062 4.399 5.086 4.399 7.973-1.925 0-3.436-1.65-5.566-.687 0 2.474 3.641 3.643 3.641 6.599-1.03.825-1.511.343-2.817.343 0 7.08 11.822 25.573 15.536 19.11.619-11.135-14.849-26.877 2.955-30.728 6.532 1.857 8.18 1.583 9.762 2.338-3.987 0-3.094.481-5.224 2.337-6.874-6.669-15.742 3.161-7.08 13.13.824-.688 1.787-1.65 2.612-2.269-1.375 5.5.342 11.343-.345 16.91 0 5.638-8.317.964-9.005 1.582 0 8.525-7.423 7.905-3.848 16.224 8.592 8.456-6.944 4.536-5.775 12.029-3.3-5.5-3.3-3.573-8.593-1.443-3.575-2.13 5.293-8.043-3.3-7.217 1.993-6.669 12.992 1.167 12.992-3.986-1.511-6.05-9.075-8.596-3.712-16.225 0-2.406-3.025-7.904-6.463-6.943 0 0-4.743-3.436-5.155-4.673l-.413-3.3c-1.237.48-1.993 1.786-2.886 2.542l-1.17-.962c-1.1.687-2.68 2.68-3.368 3.713-.756-.55-1.927-2.956-4.331-.069zm13.199 20.278c0-6.806-.894-7.493 5.565-13.197 0 1.099-7.974-5.5-8.454-5.981-7.08 4.468 3.919 16.221-7.08 16.221-1.1-.96-2.2-1.924-3.232-2.748-3.299-2.475-6.118-3.575-7.699 1.169 2.132-.069 3.781-1.17 3.781 1.237-1.65 1.582-3.917 2.269-1.718 6.187 1.925-5.224 2.132-1.1 5.637 1.924.344.414.826.757 1.306 1.033 1.926-8.802 9.35 1.098 11.894-5.845M74.86 72.454c-2.612-1.169-5.019-2.68-7.149-5.019-.62-4.675-9.487-4.675-9.487-.825 1.1 0 2.613.069 3.506.825-2.475.893-4.537 1.513-4.537 4.538 3.368-1.375 7.7.481.412 5.156 5.569 0 3.37 0 8.593-1.307l.893 2.612c3.37-.48 4.745-1.442 4.745 2.131 1.65 1.17 2.337.413 3.024-.205.482-.55.962-1.032 1.856-.275 0 .756.413 1.444.756 1.718 0-2.955 2.957-4.399 2.957-7.287-1.926-.687-3.781-1.305-5.569-2.062zm0-9.968c-1.306.206-2.887-.412-5.638-3.574 2.201 4.811 3.85 6.324 5.638 6.53s3.713-.893 6.463-1.1c0-.48-.825-1.374-.825-1.65-2.75-2.268-3.85-.412-5.638-.205z" style="fill:#813033"></path><path d="M21.31 65.923c-.275.344-.55.757-.688 1.17s-.069.825.137 1.374c.137.344.344.619.55.826s.481.344.756.48q.825.31 2.475-1.65c1.65-1.924 2.75-3.093 3.368-3.573q2.27-1.754 4.537-.825c1.719.618 2.888 1.924 3.506 3.85.619 1.787.687 3.504.068 5.224-1.1 3.162-3.231 5.087-6.393 5.705l-.413-4.193c1.925-.48 3.162-1.443 3.643-2.819.206-.618.138-1.237-.068-1.924q-.515-1.238-1.65-1.65-1.031-.309-2.68 1.65c-1.717 1.992-2.817 3.161-3.23 3.505-1.306 1.031-2.612 1.375-3.917 1.1l-.62-.207q-2.164-.825-3.092-3.505c-.618-1.65-.687-3.231-.137-4.675.618-1.856 1.924-3.438 3.85-4.674.412-.206.825-.481 1.238-.688l1.1 3.987c-1.034.412-1.79.894-2.34 1.512m139.894 28.872 3.299-1.512-3.3-1.65-3.162-1.65-.068 6.324zm0-7.698 7.766 3.917-.066 4.605-7.699 3.575-11.207 5.224h-.067l.067-1.03v-3.712l4.331-1.718.137-9.693-4.193-1.994.068-4.743zm0-24.955 1.924-.756 1.512 4.194-3.436 1.306-10.655 4.055 2.61 7.356-3.16 1.17-.344.138-4.194-11.55 4.536-1.719zm-11.207-17.667-8.524 6.598-4.675 3.645 4.675 6.256 2.613 3.504 2.957-2.336-4.54-6.256 7.494-5.774 4.468-3.505-2.612-3.643zm-8.524-9.21 1.376-1.582 3.23 3.025L141.473 42l-7.974 9.143-.069-.069-3.163-2.955 3.163-3.643zm-8.043-9.35-.825-.48-11.136 9.83.687-15.056-4.055-2.061-.963 21.171 3.781 1.925 12.512-10.93 3.16-2.818zM52.726 42.208c1.238-.139 2.475-.55 3.575-1.376 1.513-1.03 2.475-2.405 2.956-4.123.481-1.858.207-3.575-.894-5.225-1.03-1.719-2.543-2.612-4.399-2.82a3.8 3.8 0 0 0-1.238 0c-1.306.069-2.474.482-3.574 1.306-1.582 1.032-2.544 2.406-3.025 4.125-.481 1.856-.206 3.574.893 5.293 1.169 1.787 2.818 2.75 4.88 2.818zm0-17.324a9.7 9.7 0 0 1 1.994 0c2.956.274 5.293 1.718 6.944 4.33 1.718 2.544 2.131 5.294 1.238 8.18-.756 2.68-2.268 4.812-4.606 6.464q-2.682 1.855-5.569 2.062a9.7 9.7 0 0 1-1.994 0c-4.83-.33-8.592-4.672-8.592-9.419-.14-3.783 2.071-7.488 5.086-9.623 1.72-1.17 3.574-1.857 5.499-1.994m15.95-8.318 4.124-.618 11.686 10.999-1.925-12.65 4.33-.688 2.957 19.248-4.194.687-11.617-11.067 1.924 12.649-4.331.687zm-25.23 38.77-10.93-8.455 3.026-4.126-2.819-2.199L24.06 52.45l2.818 2.199 2.956-4.125L42.07 60.01l1.375-1.856 1.306-1.787zM21.31 86.89l10.93-5.568.068 4.743-4.26 1.925.205 9.691 4.261 1.857.07 4.673-11.275-5.224-7.63-3.574-.137-4.606zm0 7.63 3.3 1.512-.137-6.323-3.163 1.65-3.23 1.65z" class="fil0"></path></g></g><!-- source: https://football-logos.cc --></svg>