<svg xmlns="http://www.w3.org/2000/svg" xml:space="preserve" width="620" height="702.667"><!-- Source: https://football-logos.cc --><path d="M918.012 1394.57c-254.379 83.13-284.457-57.14-307.27-128.7L747.93 1097.7c-87.188 192.5 8.308 173.62 162.996 145.82zM3703.82 1373.91c254.38 83.12 284.45-57.16 307.27-128.71l-137.19-168.17c87.19 192.5-8.31 173.63-163 145.81z" style="fill:#231f20;fill-opacity:1;fill-rule:evenodd;stroke:none" transform="matrix(.13333 0 0 -.13333 0 702.667)" data-source="https://football-logos.cc"></path><path d="M2323.91 557.117c-608.75-22.5-2222.504 660.003-1451.25 873.753l-45.113 67.29c-344.731 38.05-643.289-474.71-547.391-641.039C365.129 557.227 1421.61-1.239 2323.91 32.09c902.3-33.328 1958.78 525.137 2043.75 825.031 95.9 166.329-202.66 679.089-547.39 641.039l-45.11-67.29c771.25-213.75-842.5-896.253-1451.25-873.753" style="fill:#fff;fill-opacity:1;fill-rule:evenodd;stroke:none" transform="matrix(.13333 0 0 -.13333 0 702.667)"></path><path d="M2323.91 557.117c-608.75-22.5-2222.504 660.003-1451.25 873.753l-45.113 67.29c-344.731 38.05-643.289-474.71-547.391-641.039C365.129 557.227 1421.61-1.239 2323.91 32.09c902.3-33.328 1958.78 525.137 2043.75 825.031 95.9 166.329-202.66 679.089-547.39 641.039l-45.11-67.29c771.25-213.75-842.5-896.253-1451.25-873.753Z" style="fill:none;stroke:#231f20;stroke-width:56.69290161;stroke-linecap:butt;stroke-linejoin:miter;stroke-miterlimit:22.92560005;stroke-dasharray:none;stroke-opacity:1" transform="matrix(.13333 0 0 -.13333 0 702.667)"></path><path d="M2323.91 623.961C1676.37 719.867 43.906 1606.11 43.906 3160.84v2064H4603.91v-2064c0-1554.73-1632.46-2440.973-2280-2536.879" style="fill:#323092;fill-opacity:1;fill-rule:evenodd;stroke:none" transform="matrix(.13333 0 0 -.13333 0 702.667)"></path><path d="m2177 3338.69-26.52-464.74 446.83 94.14 31.55 465.85z" style="fill:#fbc50c;fill-opacity:1;fill-rule:evenodd;stroke:none" transform="matrix(.13333 0 0 -.13333 0 702.667)"></path><path d="m2177 3338.69-26.52-464.74 446.83 94.14 31.55 465.85z" style="fill:none;stroke:#231f20;stroke-width:56.69290161;stroke-linecap:butt;stroke-linejoin:miter;stroke-miterlimit:22.92560005;stroke-dasharray:none;stroke-opacity:1" transform="matrix(.13333 0 0 -.13333 0 702.667)"></path><path d="m2597.31 2968.09-26.52-464.73 446.83 94.15 31.54 465.84z" style="fill:#fbc50c;fill-opacity:1;fill-rule:evenodd;stroke:none" transform="matrix(.13333 0 0 -.13333 0 702.667)"></path><path d="m2597.31 2968.09-26.52-464.73 446.83 94.15 31.54 465.84z" style="fill:none;stroke:#231f20;stroke-width:56.69290161;stroke-linecap:butt;stroke-linejoin:miter;stroke-miterlimit:22.92560005;stroke-dasharray:none;stroke-opacity:1" transform="matrix(.13333 0 0 -.13333 0 702.667)"></path><path d="m3017.62 2597.51-26.52-464.74 446.83 94.15 31.55 465.84z" style="fill:#fbc50c;fill-opacity:1;fill-rule:evenodd;stroke:none" transform="matrix(.13333 0 0 -.13333 0 702.667)"></path><path d="m3017.62 2597.51-26.52-464.74 446.83 94.15 31.55 465.84z" style="fill:none;stroke:#231f20;stroke-width:56.69290161;stroke-linecap:butt;stroke-linejoin:miter;stroke-miterlimit:22.92560005;stroke-dasharray:none;stroke-opacity:1" transform="matrix(.13333 0 0 -.13333 0 702.667)"></path><path d="m3437.93 2226.92-26.52-464.74 446.82 94.15 31.56 465.84z" style="fill:#fbc50c;fill-opacity:1;fill-rule:evenodd;stroke:none" transform="matrix(.13333 0 0 -.13333 0 702.667)"></path><path d="m3437.93 2226.92-26.52-464.74 446.82 94.15 31.56 465.84z" style="fill:none;stroke:#231f20;stroke-width:56.69290161;stroke-linecap:butt;stroke-linejoin:miter;stroke-miterlimit:22.92560005;stroke-dasharray:none;stroke-opacity:1" transform="matrix(.13333 0 0 -.13333 0 702.667)"></path><path d="M4226.05 1933.86c-113.82-172.75-246.85-329.33-390.16-469.15l22.34 391.62z" style="fill:#fbc50c;fill-opacity:1;fill-rule:evenodd;stroke:none" transform="matrix(.13333 0 0 -.13333 0 702.667)"></path><path d="M4226.05 1933.86c-113.82-172.75-246.85-329.33-390.16-469.15l22.34 391.62z" style="fill:none;stroke:#231f20;stroke-width:56.69290161;stroke-linecap:butt;stroke-linejoin:miter;stroke-miterlimit:22.92560005;stroke-dasharray:none;stroke-opacity:1" transform="matrix(.13333 0 0 -.13333 0 702.667)"></path><path d="M2323.91 5224.84h2280V3161.39h-2280z" style="fill:#ee2d21;fill-opacity:1;fill-rule:evenodd;stroke:none" transform="matrix(.13333 0 0 -.13333 0 702.667)"></path><path d="M3708.07 5224.84h853.32V3161.39h-888.44l-437.08 235.25 471.08 253.59 16.23 8.79-16.23 8.77-471.08 253.53 471.08 253.66 16.23 8.71-16.23 8.73-471.08 253.56 471.08 253.63 16.23 8.77-16.23 8.74-471.08 253.59 471.08 253.53z" style="fill:#fbc50c;fill-opacity:1;fill-rule:evenodd;stroke:none" transform="matrix(.13333 0 0 -.13333 0 702.667)"></path><path d="M3708.07 5224.84h853.32V3161.39h-888.44l-437.08 235.25 471.08 253.59 16.23 8.79-16.23 8.77-471.08 253.53 471.08 253.66 16.23 8.71-16.23 8.73-471.08 253.56 471.08 253.63 16.23 8.77-16.23 8.74-471.08 253.59 471.08 253.53z" style="fill:none;stroke:#231f20;stroke-width:56.69290161;stroke-linecap:butt;stroke-linejoin:miter;stroke-miterlimit:22.92560005;stroke-dasharray:none;stroke-opacity:1" transform="matrix(.13333 0 0 -.13333 0 702.667)"></path><path d="M2323.91 623.961C1676.37 719.867 43.906 1606.11 43.906 3160.84v2064H2323.91z" style="fill:#323092;fill-opacity:1;fill-rule:evenodd;stroke:none" transform="matrix(.13333 0 0 -.13333 0 702.667)" data-source="https://football-logos.cc"></path><path d="M223.188 5224.84h351.789l-29.602-437.01L54.039 4684.3l29.16 511.03z" style="fill:#fbc50c;fill-opacity:1;fill-rule:evenodd;stroke:none" transform="matrix(.13333 0 0 -.13333 0 702.667)"></path><path d="M223.188 5224.84h351.789l-29.602-437.01L54.039 4684.3l29.16 511.03Z" style="fill:none;stroke:#231f20;stroke-width:56.69290161;stroke-linecap:butt;stroke-linejoin:miter;stroke-miterlimit:22.92560005;stroke-dasharray:none;stroke-opacity:1" transform="matrix(.13333 0 0 -.13333 0 702.667)"></path><path d="m545.375 4787.83-29.16-511.03 491.335 103.53 34.69 512.24z" style="fill:#fbc50c;fill-opacity:1;fill-rule:evenodd;stroke:none" transform="matrix(.13333 0 0 -.13333 0 702.667)"></path><path d="m545.375 4787.83-29.16-511.03 491.335 103.53 34.69 512.24z" style="fill:none;stroke:#231f20;stroke-width:56.69290161;stroke-linecap:butt;stroke-linejoin:miter;stroke-miterlimit:22.92560005;stroke-dasharray:none;stroke-opacity:1" transform="matrix(.13333 0 0 -.13333 0 702.667)"></path><path d="m1007.55 4380.33-29.159-511.04 491.339 103.54 34.69 512.24z" style="fill:#fbc50c;fill-opacity:1;fill-rule:evenodd;stroke:none" transform="matrix(.13333 0 0 -.13333 0 702.667)"></path><path d="m1007.55 4380.33-29.159-511.04 491.339 103.54 34.69 512.24z" style="fill:none;stroke:#231f20;stroke-width:56.69290161;stroke-linecap:butt;stroke-linejoin:miter;stroke-miterlimit:22.92560005;stroke-dasharray:none;stroke-opacity:1" transform="matrix(.13333 0 0 -.13333 0 702.667)"></path><path d="m1469.73 3972.83-29.16-511.04 491.33 103.53 34.69 512.25z" style="fill:#fbc50c;fill-opacity:1;fill-rule:evenodd;stroke:none" transform="matrix(.13333 0 0 -.13333 0 702.667)"></path><path d="m1469.73 3972.83-29.16-511.04 491.33 103.53 34.69 512.25z" style="fill:none;stroke:#231f20;stroke-width:56.69290161;stroke-linecap:butt;stroke-linejoin:miter;stroke-miterlimit:22.92560005;stroke-dasharray:none;stroke-opacity:1" transform="matrix(.13333 0 0 -.13333 0 702.667)"></path><path d="M2323.91 3647.95v-504.91l-421.17-88.75 29.16 511.03z" style="fill:#fbc50c;fill-opacity:1;fill-rule:evenodd;stroke:none" transform="matrix(.13333 0 0 -.13333 0 702.667)"></path><path d="M2323.91 3647.95v-504.91l-421.17-88.75 29.16 511.03z" style="fill:none;stroke:#231f20;stroke-width:56.69290161;stroke-linecap:butt;stroke-linejoin:miter;stroke-miterlimit:22.92560005;stroke-dasharray:none;stroke-opacity:1" transform="matrix(.13333 0 0 -.13333 0 702.667)"></path><path d="M2323.91 623.961C1676.37 719.867 43.906 1606.11 43.906 3160.84v.55H2323.91z" style="fill:#ee2d21;fill-opacity:1;fill-rule:evenodd;stroke:none" transform="matrix(.13333 0 0 -.13333 0 702.667)"></path><path d="M2056.01 691.434c-261.67 87.312-587.96 249.144-901.23 481.816l238.94 86.24 17.66 6.38-17.66 6.4-512.853 185.12 512.853 185.09 17.6 6.38-17.6 6.34-512.853 185.15 512.853 185.1 17.63 6.37-17.63 6.41-512.853 185.09.051.02-.051.02 512.853 185.07 17.66 6.37-17.66 6.36-512.853 185.14 512.853 185.06 17.66 6.41-17.66 6.42-512.853 185.09 476.953 172.11h966.09V623.961z" style="fill:#fbc50c;fill-opacity:1;fill-rule:evenodd;stroke:none" transform="matrix(.13333 0 0 -.13333 0 702.667)"></path><path d="M2056.01 691.434c-261.67 87.312-587.96 249.144-901.23 481.816l238.94 86.24 17.66 6.38-17.66 6.4-512.853 185.12 512.853 185.09 17.6 6.38-17.6 6.34-512.853 185.15 512.853 185.1 17.63 6.37-17.63 6.41-512.853 185.09.051.02-.051.02 512.853 185.07 17.66 6.37-17.66 6.36-512.853 185.14 512.853 185.06 17.66 6.41-17.66 6.42-512.853 185.09 476.953 172.11h966.09V623.961Z" style="fill:none;stroke:#231f20;stroke-width:56.69290161;stroke-linecap:butt;stroke-linejoin:miter;stroke-miterlimit:22.92560005;stroke-dasharray:none;stroke-opacity:1" transform="matrix(.13333 0 0 -.13333 0 702.667)"></path><path d="M2317.77 581.941c-392 58.059-1137.9 399.817-1676.313 998.879-367.793 409.24-640.07 938.56-640.07 1580.02v2106.52H4646.43V3160.84c0-641.46-272.27-1170.78-640.07-1580.02C3467.95 981.758 2722.05 640 2330.05 581.941l-6.14-.91zM704.574 1637.63C1226.05 1057.4 1943.57 725.672 2323.91 666.949c380.34 58.723 1097.86 390.451 1619.34 970.681 355.19 395.22 618.14 905.71 618.14 1523.21v2021.48H86.426V3160.84c0-617.5 262.953-1127.99 618.148-1523.21" style="fill:#231f20;fill-opacity:1;fill-rule:nonzero;stroke:none" transform="matrix(.13333 0 0 -.13333 0 702.667)"></path><path d="m86.426 3160.84 4517.484.55M2323.91 5224.84V623.961" style="fill:none;stroke:#231f20;stroke-width:56.69290161;stroke-linecap:butt;stroke-linejoin:miter;stroke-miterlimit:22.92560005;stroke-dasharray:none;stroke-opacity:1" transform="matrix(.13333 0 0 -.13333 0 702.667)"></path><path d="M3817.03 544.945c-12.19 17.735-24.41 35.453-36.62 53.16-21.86 31.708-43.68 63.375-62.76 91.243a17491 17491 0 0 1-49.58 72.086c-13.41 19.402-30.56 44.105-50.09 72.175l-6.73 9.668 10.34 5.696c37.02 20.398 72.54 41.523 107.25 62.168l12.04 7.156c13.31 7.902 25.18 14.457 35.7 19.695 10.62 5.278 20.09 9.332 28.52 12.18l-.01.023c11.19 3.989 22.53 6.77 33.79 8.348 11.45 1.605 22.73 1.953 33.61 1.07v-.008c14.06-.968 28.13-3.457 41.96-7.46a203 203 0 0 0 39.69-16.211l.09-.043c12.63-6.942 25.11-15.274 37.15-25.004 11.56-9.332 22.66-19.899 33.05-31.68 9.15-10.387 16.93-20.687 23.4-30.902 6.55-10.328 11.8-20.567 15.81-30.727l-.01-.008c4.3-9.929 7.28-19.48 9.1-28.625 1.98-9.914 2.64-19.519 2.21-28.785-.05-8.644-1.08-16.945-3-24.847-2.04-8.403-5.03-16.313-8.87-23.676l-.03.011c-3.52-7.281-7.98-14.558-13.32-21.765-5.36-7.25-11.65-14.492-18.8-21.66l-.04-.039c-7.68-7.645-16.5-15.469-26.46-23.231-9.13-7.117-19.21-14.164-30.22-20.945-37.28-22.965-75.06-44.106-113.41-65.567h-.04c-6.5-3.636-13.59-7.605-29.81-16.734l-8.42-4.738zm41.4 83.86c24.67 13.925 48.89 27.675 73.07 42.703 11.81 7.344 21.92 14.34 30.3 20.918 8.28 6.5 14.79 12.515 19.49 17.972 4.73 5.497 8.66 10.801 11.65 15.93 2.81 4.84 4.79 9.481 5.77 13.934l.08.496c1.78 6.527 2.43 13.351 2.01 20.43-.44 7.437-2.05 15.21-4.78 23.289-2.74 8.117-6.81 16.601-12.17 25.414v.039c-5.44 8.957-12.29 18.308-20.51 28.015-11.15 13.192-22.46 24.035-33.76 32.547l.01.02c-11.16 8.402-22.34 14.5-33.39 18.304l-.04.043c-11.13 3.864-21.77 6.282-31.89 7.18-9.92.879-19.43.324-28.49-1.707l.01-.019c-6.91-1.622-15.04-4.637-24.57-9.102-9.8-4.594-21.25-10.816-34.54-18.723-14.56-8.66-29.27-17.359-44.02-26.074l-18.63-11.023 21.95-30.274c15.13-20.871 30.31-41.808 49.97-69.16l39.09-54.43c6.96-9.73 17.78-24.859 33.39-46.722M2707.02 198.996l5 8.984c28.74 51.665 57.16 102.758 82.2 155.364 13.36 28.086 25.74 56.09 37.55 84.058 11.98 28.395 23.45 56.887 34.78 85.446l1.39 3.515 3.67.801 35.76 7.82c10.65 2.321 22.46 4.891 36.05 7.817l3.49.754 2.68-2.387c23.82-21.203 47.42-41.828 70.8-61.719a3534 3534 0 0 1 73.56-60.937c25.09-20.215 50.64-40.145 76.52-59.961 25.28-19.348 51.69-39.192 78.58-59.278l11.34-8.476-13.59-3.984a7506 7506 0 0 0-39.94-11.618 6318 6318 0 0 0-40.48-11.468l-3.34-.934-2.78 2.07c-7.9 5.891-15.71 11.934-23.54 18.153a1358 1358 0 0 0-22.93 18.632c-8 6.629-16.52 14.082-25.03 21.532-5.46 4.781-10.93 9.57-16.74 14.531-36.43-8.422-73.16-16.625-110.46-24.5-36.92-7.797-74.41-15.262-112.73-22.27-3.04-6.539-6.15-13.328-9.24-20.082-4.05-8.867-8.1-17.711-12.33-26.691-5.87-12.477-11.76-24.191-17.62-35.848-1.75-3.48-3.68-7.324-6.96-13.91l-1.65-3.312-3.69-.539-2.05-.297c-27.03-3.922-54.07-7.856-81.1-11.703l-14.1-2.008zm163.73 153.684a4553 4553 0 0 1 79.51 16.343c25.98 5.582 51.9 11.387 77.79 17.407l-1.3 1.14c-8.95 7.918-17.94 15.856-26.91 24.055l-.02-.016-7.91 7.215c-10.14 9.227-20.37 18.531-30.21 28.121v-.004c-11.31 10.711-21.23 20.59-29.8 29.61a521 521 0 0 0-12.12 13.207 294 294 0 0 0-3.31-16.442c-2.5-10.82-5.7-21.781-9.72-32.898l-.02-.082c-4.69-12.348-10.09-25.523-15.46-38.676l.02-.012-4.87-11.945c-3.25-8.008-6.76-16.336-10.38-24.777a2257 2257 0 0 0-5.29-12.246M2048.04 184.594c-12.33 25.781-24.33 51.511-35.68 77.156-11.43 25.797-22.43 51.93-32.77 78.531-10.15 26.102-19.9 52.469-29.29 78.922-9.49 26.723-18.62 53.512-27.44 80.207l-1.87 5.668 5.88-1.086c13.26-2.449 26.54-4.789 39.7-6.844 13.21-2.062 26.59-3.89 40.14-5.335l2.31-.247.69-2.203c5.4-17.023 10.89-33.98 16.4-50.793a8222 8222 0 0 1 16.79-50.691c5.6-16.731 11.65-33.461 17.96-50.172 6.16-16.336 12.76-33.184 19.44-50.113 4.72-10.453 8.87-20.914 12.63-31.36 2.89-8.015 5.53-15.964 8.03-23.871a4852 4852 0 0 0 19.18 28.821c6.02 8.953 9.92 14.609 11.72 17.031v.004a3513 3513 0 0 1 34.16 47.57c11.23 15.918 22.3 31.93 33.19 48.012 11.03 16.308 22.13 32.722 32.71 48.699 10.81 16.348 21.4 32.684 31.42 48.895l1.07 1.726 2.02-.051c16.2-.39 32.56-.757 48.88-.953 16.36-.195 32.76-.226 49.08.055l2 .035 1.06-1.699c2.27-3.66 6.54-10.586 10.66-17.258 11.2-18.184 22.46-36.453 34.58-54.777l8.5-12.875v-.012c13.1-19.871 26.31-39.898 40.29-59.891v.004a593 593 0 0 0 17.81-26.531 592 592 0 0 0 15.35-25.656c4.81-8.532 9.4-16.879 13.5-24.946 2.78-5.476 5.38-10.906 7.75-16.281a1062 1062 0 0 0 9.6 23.16 1091 1091 0 0 0 15.97 35.52v-.004l2.43 5.727c12.96 30.546 26.13 61.609 38.19 93.324 8.06 21.164 16.24 43.238 24.46 65.406v-.004c3.85 10.379 7.84 21.129 13.41 36.047l.73 1.977 2.09.292c16.39 2.313 33.86 4.844 51.47 7.395l27.63 3.992 5.88.852-2.07-5.586c-10.05-26.985-20.18-54.02-30.54-80.496-10.5-26.856-21.4-53.563-32.98-79.875-11.61-26.379-23.85-52.532-36.51-78.52-12.58-25.801-25.71-51.691-39.18-77.633l-.91-1.746-1.93-.164c-12.48-1.039-24.96-2.117-37.41-3.179-16.45-1.407-32.86-2.821-49.59-4.184l-1.97-.16-1.18 1.625c-13.19 18.273-26.3 36.64-39.07 55.07-12.75 18.399-25.17 36.887-37 55.449a4360 4360 0 0 0-34.3 54.715 4216 4216 0 0 0-33.54 55.32c-5.83 9.477-10.39 17.079-13.64 22.829a201 201 0 0 0-3.12 5.668c-5.61-10.696-10.6-20.075-15.61-28.004l-.01-.016-7.65-11.961c-21.23-33.176-42.58-66.574-65-98.98-21.2-30.633-42.83-60.457-64.38-90.168l-12.89-17.778-1.14-1.574-1.94.121-36.26 2.266c-19.32 1.207-38.68 2.414-56.93 3.578l-2.07.133zm32.26 103 .01-.012zM1023.08 637.75c7.96 11.863 16.61 22.566 25.89 32.098 9.44 9.687 19.53 18.191 30.24 25.496 10.45 7.129 21.66 13.121 33.52 18.008 11.98 4.929 24.64 8.718 37.9 11.41 25.69 5.211 51.9 6.101 78.67 2.468 26.65-3.613 53.85-11.707 81.68-24.464 18.51-8.489 35.59-18.121 51.15-28.852 15.64-10.781 29.76-22.672 42.31-35.621 13.02-13.383 23.81-27.527 32.08-42.332 8.11-14.5 13.8-29.602 16.85-45.211 1.91-8.055 3.01-16.18 3.42-24.355.41-8.024.12-15.973-.72-23.836-.86-7.93-2.39-15.954-4.59-24.008a163 163 0 0 0-8.37-23.41 157 157 0 0 0-12.14-22.317c-4.63-7.058-9.88-13.758-15.67-20.078-5.76-6.297-12.22-12.004-19.16-17.176-6.82-5.086-14.22-9.73-21.96-13.965l-.16-.125c-15.88-8.257-33.34-14.136-52.2-17.703-18.86-3.562-39.1-4.789-60.52-3.754h-.04c-21.37 1.094-42.58 3.684-63.45 8.149-20.99 4.484-41.72 10.867-62.05 19.531-21.24 9.051-39.87 19.723-56.11 31.594l.01.019c-17.61 12.864-32.37 27.043-44.63 42.02l.03.023c-11.98 14.407-21.02 29.125-27.18 44.114-6.32 15.355-9.634 30.992-10.036 46.875h-.004c-.567 15.34 1.359 30.043 5.52 44.082 4.29 14.488 10.96 28.269 19.72 41.32m69.57-37.969c-5.02-7.758-9.05-15.394-12.05-22.898-2.95-7.383-4.92-14.68-5.87-21.899a73.7 73.7 0 0 1 .29-21.39c1.13-6.969 3.34-14.043 6.65-21.164l.04-.125c6.84-15.086 17.09-29.137 30.77-41.567 13.32-12.093 29.89-22.656 49.71-31.14 20.78-8.899 41.29-14.344 61.27-16.606 20.61-2.332 40.7-1.304 59.99 2.778 8.85 1.871 17.12 4.636 24.82 8.21 7.78 3.614 14.97 8.09 21.55 13.329a112 112 0 0 1 18.37 18.507c5.34 6.801 10.1 14.465 14.18 23.004h.04c5.19 10.868 8.5 21.52 10.15 31.996 1.64 10.43 1.65 20.774.27 31.047-1.31 9.637-4.34 19.051-8.87 28.141-4.8 9.637-11.24 18.82-19.04 27.453l-.08.043c-7.82 8.797-16.77 16.82-26.82 24.027-10.13 7.27-21.34 13.696-33.57 19.239-17.43 7.902-34.71 13.117-51.97 15.609-17.25 2.488-34.57 2.297-52.13-.602-8.18-1.355-16.23-3.73-24.04-7.101l-.01.035c-7.69-3.324-15.1-7.629-22.12-12.898-7.47-5.602-14.73-12.25-21.7-19.961-6.86-7.582-13.49-16.262-19.83-26.067M616.828 672.711l53.824 61.496 53.844 61.543a58662 58662 0 0 0 53.875 61.496 28875 28875 0 0 0 54.215 61.598l7.434 8.422 9.835-5.321 25.493-13.785c59.699-32.289 121.515-65.73 186.442-99.191l14.71-7.578-9.79-13.352c-4.46-6.086-7.82-10.879-11.18-15.684-4.09-5.843-8.18-11.695-11.56-16.296l-7.21-9.832-10.78 5.679c-30.511 16.067-60.167 31.977-89.132 47.653-22.243 12.039-48.813 26.558-75.782 41.312l-6.796-7.98a3519 3519 0 0 1-18.739-22.118c-3.179-3.785-8.187-9.66-13.109-15.437l-8.649-10.16a12919 12919 0 0 0 40.176-22.555c12.09-6.808 24.285-13.683 36.641-20.605l14.25-7.989-9.93-12.937c-3.949-5.149-8.137-10.371-12.32-15.586-3.988-4.969-7.985-9.945-11.844-14.977l-7.516-9.793-10.699 6.082-20.418 11.606c-23.078 13.117-45.918 26.105-61.781 35.094l-9.492-11.141v-.055c-10.652-12.496-21.293-24.984-30.793-36.527-11.774-14.301-22.426-26.848-33.063-39.371-5.015-5.91-10.039-11.828-15.023-17.734l-7.66-9.079-10.281 6.036c-8.774 5.152-5.422 3.132-20.133 11.726-2.383 1.391-4.985 2.91-23.574 13.859l-14.708 8.661zM1479.89 325.574l18.01 39.844c14.73 32.566 29.5 65.207 40.83 90.477a20773 20773 0 0 0 21.63 48.132c13.65 30.313 27.34 60.696 36.91 82.25l.21.453.01.036.17.332c1.17 2.14 2.35 4.289 3.33 6.582l.17.293.45.98c1.07 2.27 2.12 4.508 2.92 6.699l2.83 7.743 8.18-.805c2.37-.231 4.55-.594 6.72-.945v-.004l1.88-.305v.019c1.57-.23 3.18-.515 4.76-.789h.05c2.2-.386 4.39-.769 5.5-.91l.58-.082.78-.14.01.023c3.95-.703 19.61-3.5 39.16-9.762 5.83-1.879 12.07-4.023 18.14-6.347 6.31-2.422 12.9-5.203 19.4-8.348v-.012c17.98-8.265 33.87-16.461 47.68-24.687 14.16-8.446 26.19-16.922 36.09-25.543v-.039c11.65-10.168 20.75-20.696 27.26-31.281 6.89-11.223 10.99-22.633 12.27-33.911.88-5.066 1.2-10.117.93-15.07a62.7 62.7 0 0 0-2.63-14.977c-1.16-4.964-2.89-9.765-5.13-14.425-2.25-4.692-4.99-9.192-8.11-13.516l-.21-.289a112 112 0 0 0-10.36-11.617c-3.77-3.688-7.82-7.16-12.11-10.395l-.02.024c-4.41-3.348-9.03-6.356-13.77-9.071-4.84-2.769-9.9-5.339-15.07-7.742l-.37-.168c-10.01-4.199-21.17-7.828-33.31-10.746-11.53-2.765-23.81-4.832-36.67-6.066l-.09-.039c-3.77-.332-7.72-.598-11.85-.785 22.75-18.395 50.55-40.075 77.01-58.692 50.05-35.223 71.05-40.465 127.94-57.738l17.03-5.18 84.93-25.847c-63.03-8.508-146.11-3.875-208.36 14.925-4.14.813-8.38 1.821-12.58 2.918l-.24.082a136 136 0 0 0-11.24 3.778h-.04a127 127 0 0 0-10.48 4.57c-3.24 1.57-6.36 3.223-9.42 4.969h-.04c-2.71 1.547-5.61 3.328-8.7 5.332l-.01-.012a166 166 0 0 0-8.53 5.684 169 169 0 0 0-8.02 6.054 2241 2241 0 0 0-144.89 115.899l-3.16-7.164c-2.99-6.832-5.77-13.25-8.13-18.828-4.08-9.657-7.83-17.907-11.56-26.129l-5.28-11.637.02-.004-3.99-9.789-3.7-9.063-9.3 2.918-5.07 1.594-4.61 1.438v.011c-10.3 3.196-20.59 6.387-24.87 7.743l-.08.039c-1.55.507-3.2 1.023-4.9 1.527-1.82.539-3.26.957-4.17 1.191l-12.78 3.348 5.97 11.727c1.46 2.843 2.69 5.875 3.92 8.89zm166.91 214.293c-4.66-10.351-8.48-18.844-11.01-24.551a3356 3356 0 0 1-14.42-32.851l-1.28-2.961c-7.11-16.402-14.24-32.887-22.66-52.566 10.51-3.704 20.8-6.739 30.76-9.137 13.78-3.321 27.17-5.465 39.85-6.535v-.02c14.34-.633 27.51.109 39.34 1.977 12.44 1.965 23.51 5.207 33 9.402l.33.125a77 77 0 0 1 8.38 3.957c2.54 1.395 4.96 2.914 7.34 4.516l.01-.016a38.4 38.4 0 0 1 4.53 3.938c1.54 1.55 2.94 3.175 4.27 4.808l.01-.004c.82 1.063 1.54 2.285 2.2 3.586v.039a59 59 0 0 1 1.63 3.489l.05.457v.039c.29 2.574.58 5.183.2 7.16l-.08.414c-.7 4.812-2.77 9.949-6.43 15.344-3.71 5.472-9.12 11.246-16.47 17.265l-.12.125c-7.16 6.086-16.06 12.36-26.74 18.809-10.89 6.578-23.51 13.265-37.91 20.062-4.05 1.922-8.36 3.758-12.67 5.461-4.83 1.906-8.77 3.352-12.02 4.477v-.012a318 318 0 0 1-9.82 3.121zM3353.76 334.816c-15.74 23.465-30.46 45.137-45.17 66.786-14.72 21.675-29.43 43.32-42.63 62.976l-87.49 130.254-.13.168c-.89 1.395-1.16 1.785-1.4 2.137-1.11 1.636-2.23 3.285-3.19 4.968-2.16 2.54-3.62 4.848-5.11 7.176v.043l-1.11 1.766-7.24 11.019 12.31 4.719c1.33.512 2.08.848 2.85 1.195 1.53.688 3.11 1.395 4.95 2.067 1.08.48 2.24 1.023 3.46 1.621v.043c1.47.715 2.73 1.355 3.5 1.812l.54.289.76.387v.004c3.64 1.899 17.07 8.895 36.83 15.348l-.01.011c5.4 1.86 11.47 3.801 18.34 5.708 6.62 1.839 13.65 3.531 20.98 4.898 20.15 3.844 38.88 6.16 56.33 7.164 17.46 1.004 33.68.688 48.81-.719h.04c17.13-1.621 32.65-4.566 46.56-8.668 14.58-4.308 27.47-9.918 38.65-16.636 5.19-3.118 10.22-6.485 14.86-10.086 4.42-3.411 8.5-7.036 12.09-10.856l12.43-13.195-1.52-.375c2.85-4.203 5.3-8.649 7.39-13.309h-.01c2.21-4.656 3.84-9.34 5.08-14.023 1.25-4.711 2.13-9.371 2.81-13.965l.09-.746c.35-4.731.26-9.606-.23-14.539-.48-4.91-1.38-9.824-2.64-14.672l.01-.004c-2.17-8.844-6.02-17.769-11.4-26.617-5.21-8.567-11.89-17.09-19.9-25.391l.01-.008a102 102 0 0 0-5.44-5.523c33.95-1.027 75.21-1.551 112.1-.52 33.87.95 63.91 3.192 80.72 7.524v.004c12.53 3.476 25.62 7.312 38.97 11.34 13.18 3.972 25.99 7.949 38.58 11.902l70.33 22.105c-35.66-39.277-101.02-80.878-147.37-95.613a116 116 0 0 0-11.22-4.773l.01-.016c-3.73-1.418-7.51-2.66-11.33-3.699l-.02.039a116 116 0 0 0-11.51-2.535v-.02c-3.42-.683-7.08-1.238-10.8-1.679-3.46-.411-7.1-.727-10.76-.969h-.04c-5.6-.36-11.85-.539-18.47-.727l-3.69-.105h-.12c-36.75-.641-74.1-.715-111.7-.383-32.37.277-64.82.867-97.16 1.641l1.93-2.739c5.38-7.613 9.6-13.566 13.17-18.578 4.58-6.437 8.94-12.699 13.11-18.812 3.74-5.473 7.97-11.762 12.45-18.477a96 96 0 0 0 3.68-4.754c.77-1.054 2.15-3.043 3.53-5.039l7.57-10.922-12.34-4.941c-3.24-1.293-6.37-2.473-9.5-3.649l-.08-.043-.33-.121-.17-.039c-5.19-1.804-11.61-4.183-17.87-6.5l-6.95-2.566-.01.023-1.2-.445c-3.52-1.309-6.58-2.449-9.22-3.379l-7.61-2.676-4.59 6.621c-.99 1.415-1.66 2.329-2.28 3.176-1.68 2.301-3.37 4.594-4.87 7.117m-97.41 257.77 10.94-15.707 26.41-37.961 18.76-26.84c7.35-10.492 14.7-21 22.04-31.519 12.32 3.777 23.62 7.988 33.88 12.515 12.76 5.633 23.92 11.766 33.44 18.18l.01-.004c10.1 7.133 18.14 14.613 24.12 22.094 6.02 7.527 10 15.097 11.94 22.344l.04.164c.64 2.281 1.1 4.476 1.35 6.558.25 2.074.31 4.028.2 5.824-.13 1.954-.31 3.825-.67 5.403-.28 1.215-.68 2.347-1.28 3.316l-.42.68-.37.898c-.41 1.016-1.18 2.27-2.12 3.625a61 61 0 0 1-3.2 4.184c-1.22 1.25-2.65 2.547-4.24 3.859l.02.02a63 63 0 0 1-4.66 3.484c-6.17 3.656-13.65 6.805-22.53 9.207-8.55 2.317-18.34 3.942-29.49 4.688h-.04c-11.55.816-24.39.765-38.52-.34-13.28-1.039-27.72-3.028-43.31-6.117a257 257 0 0 1-13.95-3.176 331 331 0 0 1-12.93-3.574l-.01.027c-1.83-.605-3.63-1.219-5.41-1.832" style="fill:#231f20;fill-opacity:1;fill-rule:nonzero;stroke:none" transform="matrix(.13333 0 0 -.13333 0 702.667)"></path><path d="M4130.77 988.117c-24.05 0-43.54-19.355-43.54-43.234 0-23.875 19.49-43.235 43.54-43.235 24.04 0 43.53 19.36 43.53 43.235 0 23.879-19.49 43.234-43.53 43.234M582.758 988.117c-24.047 0-43.535-19.355-43.535-43.234 0-23.875 19.488-43.235 43.535-43.235 24.043 0 43.535 19.36 43.535 43.235 0 23.879-19.492 43.234-43.535 43.234" style="fill:#231f20;fill-opacity:1;fill-rule:evenodd;stroke:none" transform="matrix(.13333 0 0 -.13333 0 702.667)" data-source="https://football-logos.cc"></path><!-- source: https://football-logos.cc --></svg>