<svg xmlns="http://www.w3.org/2000/svg" viewBox="28.03 247.29 728.98 727.78"><!-- Source: https://football-logos.cc --><path d="M294.889 649.077c146.745 0 266.528-119.556 266.528-266.077S441.634 116.923 294.889 116.923 28.363 236.478 28.363 383c0 146.521 119.78 266.077 266.526 266.077" style="fill:#ba2130;fill-opacity:1;fill-rule:evenodd;stroke:none" transform="matrix(1.33333 0 0 -1.33333 -.667 1121.853)" data-source="https://football-logos.cc"></path><path d="M22.272 383c0-150.073 122.294-272.168 272.617-272.168 150.322 0 272.619 122.095 272.619 272.168 0 150.075-122.297 272.17-272.62 272.17-150.322 0-272.616-122.095-272.616-272.17m12.182 0c0 143.357 116.83 259.985 260.435 259.985 143.604 0 260.437-116.628 260.437-259.985 0-143.355-116.833-259.986-260.437-259.986S34.454 239.644 34.454 383" style="fill:#f6c212;fill-opacity:1;fill-rule:evenodd;stroke:none" transform="matrix(1.33333 0 0 -1.33333 -.667 1121.853)"></path><path d="M21.522 383c0-150.488 122.631-272.918 273.367-272.918S568.258 232.512 568.258 383s-122.633 272.92-273.37 272.92C144.154 655.92 21.523 533.487 21.523 383m1.5 0c0 149.662 121.959 271.42 271.867 271.42S566.758 532.661 566.758 383c0-149.66-121.96-271.418-271.87-271.418C144.982 111.582 23.023 233.34 23.023 383" style="fill:#231f20;fill-opacity:1;fill-rule:evenodd;stroke:none" transform="matrix(1.33333 0 0 -1.33333 -.667 1121.853)"></path><path d="M33.704 383c0-143.77 117.167-260.736 261.185-260.736 144.019 0 261.187 116.966 261.187 260.736S438.908 643.735 294.89 643.735C150.87 643.735 33.704 526.77 33.704 383m1.5 0c0 142.942 116.495 259.235 259.685 259.235 143.191 0 259.687-116.293 259.687-259.235 0-142.944-116.496-259.236-259.687-259.236-143.19 0-259.685 116.292-259.685 259.236" style="fill:#231f20;fill-opacity:1;fill-rule:evenodd;stroke:none" transform="matrix(1.33333 0 0 -1.33333 -.667 1121.853)"></path><path d="M295.105 565.52c100.87 0 183.167-81.865 183.167-182.52s-82.297-182.736-183.167-182.736c-101.088 0-183.17 82.08-183.17 182.736s82.082 182.52 183.17 182.52" style="fill:#47b5e3;fill-opacity:1;fill-rule:evenodd;stroke:none" transform="matrix(1.33333 0 0 -1.33333 -.667 1121.853)"></path><path d="M105.845 383c0-104.121 84.902-188.827 189.26-188.827 104.359 0 189.258 84.706 189.258 188.827 0 104.001-84.9 188.612-189.258 188.612S105.845 487 105.845 383m12.181 0c0 97.283 79.439 176.427 177.08 176.427 97.64 0 177.076-79.144 177.076-176.427 0-97.403-79.436-176.646-177.077-176.646S118.026 285.597 118.026 383" style="fill:#f6c212;fill-opacity:1;fill-rule:evenodd;stroke:none" transform="matrix(1.33333 0 0 -1.33333 -.667 1121.853)"></path><path d="M105.095 383c0-104.533 85.238-189.577 190.01-189.577 104.77 0 190.008 85.044 190.008 189.577 0 104.414-85.238 189.362-190.008 189.362-104.772 0-190.01-84.948-190.01-189.362m1.5 0c0 103.588 84.565 187.862 188.51 187.862S483.613 486.588 483.613 383c0-103.707-84.564-188.077-188.508-188.077S106.595 279.293 106.595 383" style="fill:#231f20;fill-opacity:1;fill-rule:evenodd;stroke:none" transform="matrix(1.33333 0 0 -1.33333 -.667 1121.853)"></path><path d="M117.276 383c0-97.816 79.774-177.396 177.83-177.396 98.053 0 177.826 79.58 177.826 177.396 0 97.696-79.773 177.177-177.827 177.177-98.055 0-177.829-79.48-177.829-177.177m1.5 0c0 96.869 79.102 175.677 176.33 175.677 97.226 0 176.326-78.808 176.326-175.677 0-96.989-79.1-175.896-176.327-175.896S118.776 286.011 118.776 383" style="fill:#231f20;fill-opacity:1;fill-rule:evenodd;stroke:none" transform="matrix(1.33333 0 0 -1.33333 -.667 1121.853)"></path><path d="M255.61 491.957c-1.063 1.571-2.475 2.532-3.02 2.912-9.17 6.366-13.371-.03-19.694-.846-5.399-1.08-11.446 1.729-22.03 13.826 8.639-18.578 14.903-24.41 22.03-25.273 6.05-.648 12.528 2.808 21.384 4.104 1.72.239 2.241.391 3.457.432 0 0-.56 2.507-2.127 4.845" style="fill:#ba2130;fill-opacity:1;fill-rule:evenodd;stroke:none" transform="matrix(1.33333 0 0 -1.33333 -.667 1121.853)"></path><path d="M210.457 508.477a.75.75 0 0 1-.271-.945c8.143-17.509 14.484-24.715 22.62-25.7 3.695-.396 7.426.643 11.748 1.847 2.91.81 6.21 1.728 9.835 2.259l1.343.202 2.03.222a.8.8 0 0 1 .557.312c.124.173.196.393.15.602-.024.107-.609 2.67-2.236 5.098l-.001.001c-1.116 1.65-2.556 2.653-3.171 3.08-6.775 4.704-11.007 2.834-15.099 1.026-1.722-.762-3.35-1.481-5.162-1.714-5.754-1.148-11.93 2.786-21.37 13.575a.75.75 0 0 1-.973.135m22.519-25.156c-5.755.699-11.351 4.7-19.25 20.412 7.952-8.313 13.795-11.55 19.317-10.445 1.976.253 3.78 1.05 5.526 1.82 3.883 1.717 7.553 3.337 13.594-.857.587-.407 1.867-1.297 2.825-2.714.964-1.438 1.502-2.899 1.777-3.78l-1.266-.135-1.32-.2c-3.726-.545-7.073-1.476-10.028-2.3-4.172-1.161-7.775-2.164-11.175-1.801" style="fill:#231f20;fill-opacity:1;fill-rule:evenodd;stroke:none" transform="matrix(1.33333 0 0 -1.33333 -.667 1121.853)"></path><path d="M254.28 444.128c.217.864.217 1.944.217 3.023h-.217z" style="fill:#ba2130;fill-opacity:1;fill-rule:evenodd;stroke:none" transform="matrix(1.33333 0 0 -1.33333 -.667 1121.853)"></path><path d="M446.734 452.984c-15.334 0-12.31-1.511-20.302-9.073-26.784 26.137-61.128-12.095-27.648-50.76 3.027 2.81 7.128 6.48 10.152 8.64-5.614-20.95 1.294-44.062-1.512-65.663-.847-5.209-4.345-11.083-12.273-10.814-9.366.604-20.959 6.24-22.72 4.984 0-33.267-28.511-30.89-14.903-63.29 33.695-32.616-26.783-17.496-22.03-46.655-12.962 21.383-12.962 14.039-33.912 5.616-13.608 8.423 20.95 31.318-12.53 28.295 7.778 25.705 50.546-4.752 50.546 15.553-6.05 23.11-35.21 33.047-14.256 62.637 0 9.29-11.883 30.674-25.272 27.217 0 0-18.577 12.96-20.089 17.93l-1.511 13.174c-4.97-2.376-8.21-7.343-11.45-9.934l-4.318 3.67c-2.593-1.943-5.833-5.183-8.426-8.422-1.942-2.16-3.67-4.537-4.752-6.264-3.023 2.16-7.341 11.446-16.632.43-1.942-1.942-3.24-4.104-4.968-7.127-9.07 7.992-2.59 9.936-11.88 18.143-10.799 0-13.606-19.438-18.791-24.19-21.167 14.04 6.697 41.04-26.353 20.52-11.663 16.415 30.888 46.872-4.104 31.967.864 27.864 45.577-9.504 66.096-8.64 1.082 0 2.376.216 3.458.648 7.344 1.296 13.174 2.592 17.926 3.889 21.818 5.831 13.825 11.015 2.162 10.367 0 20.736 28.295 35.424 23.543 52.703-3.457 0-16.848-5.615-25.705-5.831-4.752-.216-8.206 1.08-7.775 5.831 0 5.186 3.24 7.128 7.775 8.426 6.05 1.727 14.256 1.942 19.872 6.694 0 17.93-9.07 15.77-19.872 17.93-3.454.647-7.128 1.727-10.582 4.103 0 8.424 4.319 10.368 10.582 9.504 12.744-1.727 33.698-15.552 43.418-9.504 0 17.496-24.193-4.967-27.65 18.36 6.266 23.975 26.786-16.2 69.554 6.913l-10.372-14.473c10.372-8.64 27-15.767 22.682-50.112-.864 2.16-11.663 8.424-13.608 5.833 5.616-7.777 17.065-19.441 17.065-30.674-7.775 0-13.608 6.265-21.817 2.376 0-9.504 14.042-13.822 14.042-25.271-3.674-3.24-5.833-1.512-10.802-1.512 0-26.146 41.602-92.713 58.219-77.2 2.818 3.24 2.35 6.061 2.282 7.676-1.822 42.985-55.19 100.086 11.426 114.452 26.11 4.425 38.015-9.072 38.015-9.072" style="fill:#ba2130;fill-opacity:1;fill-rule:evenodd;stroke:none" transform="matrix(1.33333 0 0 -1.33333 -.667 1121.853)"></path><path d="M274.185 532.011c-2.231-1.144-3.775-3.615-4.862-7.774 1.945-13.536 10.492-12.785 17.361-12.18 3.516.31 6.837.602 8.62-1.033 1.026-.94 1.514-2.586 1.586-4.867-5.923-3.248-16.137.697-26.058 4.566-6.024 2.35-11.713 4.57-16.45 5.212-3.83.528-6.613-.02-8.516-1.678-1.964-1.71-2.918-4.513-2.918-8.569a.75.75 0 0 1 .325-.618c3.913-2.693 8.078-3.699 10.87-4.222l5.068-.813c8.46-1.179 14.06-2.008 14.17-15.997-3.877-3.132-8.92-4.16-13.817-5.124l-5.49-1.232c-4.32-1.237-8.32-3.201-8.32-9.147a9 9 0 0 1-.037-.8c0-1.573.464-2.878 1.387-3.843 1.396-1.46 3.754-2.094 7.21-1.937 5.446.132 12.43 2.23 18.042 3.916 3.06.918 5.567 1.634 6.997 1.794.231-1.033.416-2.061.416-3.082 0-7.185-5.35-14.131-10.966-21.423-6.446-8.369-13.11-17.023-13.11-27.328a.75.75 0 0 1 .79-.749c6.066.337 10.543-.998 10.768-2.407.047-.291.072-2.948-13.164-6.486-5.048-1.377-10.89-2.644-17.864-3.876-1.078-.413-2.266-.636-3.327-.636-7.557-.318-18.68 4.75-29.434 9.654-13.625 6.209-26.493 12.073-33.122 7.955-2.737-1.702-4.14-4.873-4.29-9.696a.751.751 0 0 1 1.044-.713c10.304 4.389 12.56 4.211 12.986 3.715.658-.766-1.775-4.702-3.732-7.863-4.75-7.684-11.932-19.292-6.055-27.564a.75.75 0 0 1 1.007-.203c6.316 3.922 13.813 8.277 15.737 7.142.928-.55.808-2.872.669-5.558-.32-6.171-.804-15.498 9.136-22.091a.75.75 0 0 1 .922.071c1.922 1.763 3.427 5.174 5.172 9.123 3.032 6.87 6.478 14.608 12.844 14.83 4.25-3.827 4.922-6.158 5.578-8.6.685-2.553 1.396-5.192 6.075-9.315a.748.748 0 0 1 1.145.19c1.711 2.994 2.974 5.096 4.849 6.97 2.798 3.314 5.33 5.002 7.57 5.062 2.587.07 4.572-2.04 6.167-3.736l1.928-1.837c.164-.155.347-.194.571-.167.223.028.38.19.501.38 1.24 1.982 2.987 4.284 4.674 6.16 2.454 3.064 5.403 6 7.875 7.933l3.825-3.25c.295-.25.677-.285.955-.015l3.55 3.448c1.94 2.05 4.183 4.235 6.826 5.76l1.37-11.947c1.571-5.205 18.483-17.118 20.406-18.46a.76.76 0 0 1 .617-.112c3.767.973 7.654-.063 11.549-3.079 7.145-5.535 12.672-16.965 12.755-23.244-5.364-7.658-7.453-14.05-7.453-19.683 0-9 5.258-16.094 10.7-23.436 4.454-6.012 9.061-12.227 11.063-19.875-.024-2.193-.637-3.872-1.895-4.94-3.069-2.604-9.908-1.477-17.148-.284-12.092 1.993-27.14 4.473-31.495-9.922a.752.752 0 0 1 .785-.964c7.724.697 12.36.02 13.777-2.007 1.454-2.083-.3-5.79-2.153-9.718-2.773-5.871-5.917-12.524.445-16.46a.69.69 0 0 1 .674-.059l10.753 4.912c10.698 5.29 12.343 6.104 22.236-10.22a.75.75 0 0 1 1.382.508q-.254 1.573-.252 2.973c0 10.292 9.871 13.908 18.668 17.13 6.545 2.397 12.725 4.661 13.742 9.456q.144.68.145 1.408c0 4.051-3.383 9.227-10.49 16.107-2.504 6.016-3.526 10.767-3.526 14.769 0 7.49 3.58 12.36 7.728 18.002 5.056 6.875 10.751 14.684 10.902 29.413 1.07.067 4.202-.9 6.788-1.704 4.501-1.396 10.103-3.134 15.161-3.461 8.22-.28 12.132 5.728 13.06 11.442 1.241 9.539.598 19.462-.021 29.057-.791 12.222-1.61 24.86 1.519 36.531a.76.76 0 0 1-.298.812.75.75 0 0 1-.864-.006c-2.873-2.052-6.68-5.445-9.605-8.145-9.274 10.949-13.233 21.992-13.233 31.471 0 8.407 3.06 15.583 8.138 20.367 7.426 6.996 20.234 8.868 32.108-2.72a.73.73 0 0 1 .525-.227.7.7 0 0 1 .515.218l4.058 4.235c3.422 3.835 4.134 4.633 15.73 4.633.294 0 .562.173.683.441.12.27.074.583-.121.806-.498.564-12.484 13.76-38.704 9.315-15.788-3.404-25.79-9.339-30.607-18.15-7.948-14.537-.555-34.31 7.269-55.246 5.276-14.115 10.733-28.713 11.288-41.829l.026-.479c.096-1.574.235-3.946-2.124-6.672-2.569-2.392-6.029-2.709-10.229-.883-18.997 8.254-45.952 56.102-46.612 76.782.97-.072 2.774-.203 2.774-.203 2.703-.321 4.837-.576 7.712 1.961a.75.75 0 0 1 .254.563c0 6.291-3.923 10.412-7.717 14.396-3.119 3.275-5.997 6.4-6.237 10.377 4.517 1.913 8.32.662 12.325-.722 2.713-.936 5.516-1.906 8.654-1.906a.75.75 0 0 1 .75.75c0 9.264-7.39 18.587-13.327 26.08l-3.328 4.317c.297.08.58.166 1.077.101 3.795-.504 10.163-4.658 10.675-5.935a.748.748 0 0 1 1.44.184c.482 3.835.705 7.336.705 10.544 0 22.242-10.686 30.328-19.49 36.992l-3.612 2.818 9.952 13.888a.749.749 0 0 1-.965 1.096c-23.237-12.557-40.008-6.116-51.107-1.854-5.858 2.25-10.486 4.026-13.954 2.245m-3.396-7.853c.942 3.365 2.282 5.596 4.081 6.519 2.873 1.475 7.226-.197 12.731-2.312 10.923-4.194 27.271-10.3 49.718.699l-8.698-12.14a.77.77 0 0 1-.148-.448.71.71 0 0 1 .277-.563l4.216-3.292c8.533-6.457 18.888-14.294 18.888-35.889 0-2.604-.25-5.538-.573-8.566-2.353 2.15-7.31 4.925-10.544 5.354-1.442.19-2.461-.1-3.032-.861a.76.76 0 0 1-.159-.457.7.7 0 0 1 .15-.433l3.921-5.085c5.6-7.068 12.387-15.803 12.841-24.273-2.534.169-4.94.9-7.254 1.698-4.261 1.472-8.666 2.994-13.973.48a.75.75 0 0 1-.43-.678c0-4.831 3.273-8.269 6.74-11.91 3.507-3.685 7.082-7.518 7.244-13.001-2.188-1.789-3.754-1.689-6.23-1.395l-3.763.273a.7.7 0 0 1-.538-.2c-.152-.141-.212-.342-.212-.55 0-21.107 27.504-70.245 47.577-78.967 4.799-2.084 8.805-1.676 11.903 1.219 2.82 3.234 2.647 6.094 2.544 7.802l-.023.452c-.567 13.355-6.066 28.065-11.383 42.292-7.702 20.604-14.977 40.066-7.358 54.001 4.597 8.405 14.27 14.095 29.575 17.395 20.71 3.51 32.33-4.49 35.968-7.61-10.004-.108-11.404-1.126-14.96-5.112l-3.513-3.67c-12.424 11.665-25.777 9.629-33.6 2.258-11.433-10.771-13.231-32.96 5.445-54.527a.75.75 0 0 1 .526-.258.74.74 0 0 1 .551.199c3.482 3.231 6.286 5.61 8.552 7.365-1.36-5.92-1.928-12.006-1.928-18.154 0-5.622.366-11.276.727-16.845.36-5.567.726-11.244.726-16.872 0-4-.184-7.978-.691-11.871-.397-2.444-2.413-10.47-11.504-10.16-4.857.313-10.365 2.022-14.79 3.395-4.903 1.523-7.308 2.22-8.39 1.449a.75.75 0 0 1-.314-.611c0-14.625-5.652-22.311-10.638-29.092-4.165-5.663-7.958-10.824-7.958-18.809 0-4.256 1.078-9.315 3.751-15.68 6.89-6.743 10.201-11.703 10.201-15.283q0-.567-.11-1.09c-.845-3.985-6.647-6.109-12.79-8.359-8.838-3.237-19.657-7.2-19.657-18.496 0-.059.016-.13.016-.19-8.855 14.044-11.797 13.545-22.543 8.23 0 0-9.44-4.312-10.223-4.671-1.917 1.318-2.723 2.988-2.723 4.904 0 2.836 1.563 6.144 3.095 9.388 1.447 3.063 2.837 6.006 2.837 8.455 0 1.014-.238 1.944-.811 2.763-1.695 2.429-6.186 3.264-13.843 2.709 4.436 11.792 17.574 9.779 29.303 7.847 7.922-1.307 14.764-2.435 18.363.62 1.614 1.37 2.4 3.423 2.4 6.273-2.1 8.117-6.794 14.452-11.334 20.577-8.928 12.047-16.639 22.452-3.06 41.626.09.128.138.279.138.434 0 6.724-5.716 18.67-13.367 24.596-4.091 3.169-8.383 4.31-12.451 3.397-5.247 3.678-18.412 13.549-19.575 17.372l-1.484 13.041a.75.75 0 0 1-1.069.592c-3.356-1.605-5.928-4.321-8.196-6.718l-2.962-2.883-3.8 3.232a.75.75 0 0 1-.936.03c-2.644-1.983-5.923-5.261-8.562-8.555-1.514-1.684-3.05-3.718-4.283-5.59-.507.486-1.154 1.11-1.154 1.11-1.705 1.814-4.042 4.296-7.3 4.209-2.724-.074-5.548-1.889-8.633-5.548-1.764-1.76-3.028-3.79-4.543-6.407-3.657 3.42-4.358 5.643-4.974 7.938-.699 2.599-1.421 5.287-6.263 9.564a.76.76 0 0 1-.496.187c-7.525 0-11.383-8.74-14.484-15.764-1.481-3.355-2.898-6.384-4.435-8.074-6.852 4.875-8.053 11.085-8.053 16.475 0 1.334.066 2.614.127 3.811.053.992.1 1.904.1 2.726 0 2.02-.287 3.482-1.505 4.201-1.826 1.08-5.23.248-16.586-6.738-1.103 1.799-1.658 3.743-1.658 5.8 0 6.433 4.519 13.74 8.07 19.482 2.326 3.762 4.04 6.53 4.04 8.328 0 .512-.141.946-.446 1.302-1.095 1.276-3.874 1.182-13.44-2.795.331 3.477 1.34 5.985 3.355 7.238 5.944 3.694 19.044-2.274 31.706-8.047 10.916-4.974 22.205-10.119 30.09-9.788 1.227 0 2.588.255 3.703.702 6.871 1.197 12.757 2.472 17.846 3.861 9.901 2.647 14.698 5.397 14.254 8.172-.448 2.806-6.064 3.852-11.418 3.693.34 9.457 6.557 17.69 12.677 25.638 5.779 7.503 11.286 14.654 11.286 22.298 0 1.38-.178 2.776-.568 4.192a.75.75 0 0 1-.724.551c-1.475 0-4.38-.873-8.06-1.977-5.526-1.66-12.402-3.726-17.664-3.854-2.97-.135-5.01.361-6.073 1.475-.65.68-.97 1.607-.97 2.822q-.001.343.034.717c.003 4.759 2.77 6.495 7.235 7.772l5.367 1.201c4.957.976 10.575 2.082 14.783 5.641a.75.75 0 0 1 .265.573c0 15.706-7.176 16.707-15.484 17.865l-4.991.8c-4.113.77-7.175 1.97-9.924 3.785.07 3.33.805 5.678 2.348 7.021 1.555 1.355 3.952 1.789 7.327 1.323 4.561-.618 10.17-2.806 16.109-5.124 10.478-4.087 21.313-8.314 27.807-4.274a.75.75 0 0 1 .354.637c0 3.022-.697 5.13-2.131 6.444-2.272 2.078-5.91 1.759-9.765 1.42-6.886-.607-14.007-1.227-15.763 10.606m29.285-163.737c-.061-.015-.126-.007-.187-.024a.7.7 0 0 0 .187.024" style="fill:#231f20;fill-opacity:1;fill-rule:evenodd;stroke:none" transform="matrix(1.33333 0 0 -1.33333 -.667 1121.853)"></path><path d="M254.28 447.151c-7.775 2.81-14.686 5.186-21.384 8.425-10.368 4.32-19.655 10.153-28.078 19.224-2.376 18.144-36.72 18.144-36.72 3.024 4.318 0 10.151-.216 13.608-3.024-9.72-3.24-17.496-6.048-17.496-17.711 13.175 5.182 29.807-1.513 1.295-19.872 21.814 0 13.391 0 33.48 4.967l3.457-10.368c12.958 2.376 18.358 5.616 18.358-7.992 6.48-4.537 9.29-1.727 12.096.864 1.729 2.376 3.458 3.888 7.128 1.08 0-3.24 1.512-5.617 2.81-6.912 0 10.584 9.504 16.2 11.446 25.272z" style="fill:#ba2130;fill-opacity:1;fill-rule:evenodd;stroke:none" transform="matrix(1.33333 0 0 -1.33333 -.667 1121.853)"></path><path d="M182.496 489.501c-9.203-.6-15.148-5.184-15.148-11.677a.75.75 0 0 1 .75-.75c4.161 0 8.636-.352 11.789-2.1-8.647-2.922-16.427-6.181-16.427-17.885a.75.75 0 0 1 1.024-.697c6.644 2.613 13.925 2.07 15.578-1.16 1.87-3.648-3.725-10.147-14.963-17.385a.749.749 0 0 1 .406-1.38c15.847 0 15.847 0 22.271 1.895l10.722 2.912 3.232-9.695a.74.74 0 0 1 .847-.501l4.84.965c5.237 1.094 8.695 1.815 10.55.308 1.441-1.17 2.083-3.8 2.083-8.527a.75.75 0 0 1 .32-.614c6.849-4.794 10.047-1.835 12.87.775.036.032.234.223.263.262.914 1.255 1.727 2.123 2.727 2.268.838.121 1.867-.3 3.102-1.196.16-3.709 2.099-6.123 2.972-6.993a.75.75 0 0 1 1.28.53c0 5.749 2.997 10.086 5.895 14.281 2.29 3.315 4.66 6.744 5.535 10.834l.016 3.18a.75.75 0 0 1-.495.706l-2.664.96c-6.563 2.358-12.76 4.586-18.648 7.434-11.262 4.693-20.065 10.715-27.738 18.946-1.55 10.156-12.926 14.96-22.99 14.304m.099-1.497c9.487.619 20.24-3.833 21.48-13.302a.75.75 0 0 1 .195-.411c7.85-8.457 16.856-14.623 28.339-19.408 5.92-2.864 12.154-5.105 18.754-7.478l2.168-.78v-2.497c-.797-3.64-2.976-6.797-5.285-10.138-2.704-3.914-5.364-8.016-5.931-13.259a8.86 8.86 0 0 0-1.54 5.037.75.75 0 0 1-.294.596c-1.689 1.292-3.15 1.826-4.465 1.635-1.61-.233-2.74-1.518-3.725-2.87-2.769-2.542-5.145-4.645-10.76-.858-.048 4.977-.827 7.79-2.617 9.244-2.408 1.957-6.145 1.178-11.802-.003l-4.166-.832-3.248 9.741a.736.736 0 0 1-.892.491l-11.452-3.111c-5.852-1.726-6.363-1.827-19.41-1.833 11.243 7.619 13.958 12.727 13.958 15.788a4.7 4.7 0 0 1-.503 2.16c-2.109 4.117-9.89 4.38-16.344 2.194.496 10.416 8.077 13.041 16.89 15.978a.752.752 0 0 1 .235 1.294c-3.27 2.657-8.436 3.123-13.23 3.168.53 6.306 7.545 9.057 13.645 9.454" style="fill:#231f20;fill-opacity:1;fill-rule:evenodd;stroke:none" transform="matrix(1.33333 0 0 -1.33333 -.667 1121.853)"></path><path d="M254.28 283.64c10.802-.865 23.76-8.423 29.81 7.775 0 26.353-3.457 29.162 21.6 51.193 0-4.32-30.89 21.384-32.833 23.543-25.271-16.2 8.64-55.942-18.577-62.422-2.59-.431-5.4-.865-9.07-.865-4.321 3.671-8.64 7.559-12.314 10.582-13.174 9.504-23.976 14.042-30.24-4.318 8.426.217 14.69 4.318 14.69-4.969-6.264-6.263-15.12-8.64-6.48-23.976 7.344 20.52 8.422 4.32 22.03-7.342 1.082-1.945 3.024-2.81 4.97-4.105 2.806 13.609 9.286 15.768 16.414 14.904" style="fill:#ba2130;fill-opacity:1;fill-rule:evenodd;stroke:none" transform="matrix(1.33333 0 0 -1.33333 -.667 1121.853)"></path><path d="M272.453 366.783c-8.2-5.258-10.362-12.933-10.362-21.076 0-4.757.737-9.673 1.441-14.357.665-4.434 1.3-8.658 1.3-12.413 0-7.058-2.242-12.459-10.726-14.479-2.583-.428-5.253-.809-8.634-.83l-5.165 4.461-6.934 5.936c-7.42 5.354-15.13 10.002-21.5 7.972-4.242-1.352-7.49-5.483-9.927-12.627-.082-.242-.065-.512.093-.712.162-.2.381-.306.636-.28l6.01.64c3.008.459 5.384.82 6.633-.253.815-.7 1.203-2.148 1.244-4.298l-3.217-2.838c-3.473-2.87-6.823-5.638-6.823-10.722 0-2.836 1.043-6.394 3.69-11.092a.749.749 0 0 1 1.36.114c1.385 3.87 3.442 9.046 5.308 9.314 1.365.195 3.18-2.303 5.478-5.466 2.48-3.414 5.567-7.664 10.05-11.506.781-1.501 2.27-2.424 3.846-3.4l1.195-.759a.76.76 0 0 1 .702-.061.75.75 0 0 1 .448.534c2.873 13.927 9.494 15.049 15.59 14.31-.01.002.041-.005.031-.002l7.209-1.197c8.63-1.781 18.413-3.802 23.364 9.457.009.054.013.45.013 1.044 0 2.318-.058 7.655-.058 7.655-.036 2.064-.07 3.954-.07 5.708 0 13.853 2.116 19.324 20.83 35.87.062.012.134.01.187.031.139.053.119.246.221.339.1.088.169.157.27.244-.041-.036-.101-.029-.15-.057.15.205.404.33.404.621a.748.748 0 0 1-1.245.563c-.1-.086-.167-.152-.265-.239-3.745.382-29.238 21.19-31.514 23.72a.75.75 0 0 1-.963.13m-18.05-63.793c9.49 2.257 11.923 8.342 11.923 15.934 0 3.92-.65 8.243-1.311 12.65-.72 4.792-1.448 9.645-1.448 14.252 0 7.58 2.051 14.461 9.28 19.34 3.472-3.039 23.84-20.475 30.87-23.334-18.37-16.354-20.54-22.065-20.54-36.109 0-1.812.034-3.763.07-5.894l.093-8.413c-4.455-11.792-12.787-10.07-21.608-8.25l-7.381 1.22c-9.153 1.103-14.366-3.466-16.915-14.489l-.392.251c-1.467.907-2.732 1.692-3.491 3.059-4.518 3.931-7.547 8.102-9.982 11.453-2.796 3.85-4.643 6.393-6.903 6.069-1.949-.28-3.66-2.865-5.858-8.635-1.837 3.597-2.797 6.518-2.797 8.765 0 4.42 2.921 6.834 6.287 9.616l3.576 3.155c.161.142.22.315.22.53 0 2.864-.572 4.69-1.8 5.744-1.772 1.522-4.448 1.115-7.836.598 0 0-3.13-.336-4.635-.496 2.208 5.912 4.98 9.44 8.504 10.562 5.737 1.83 13.065-2.634 20.128-7.729-.034.025 6.866-5.88 6.866-5.88l5.4-4.665a.73.73 0 0 1 .487-.179c3.634 0 6.422.413 9.193.875m-.064-18.6.03-.005zm.032-.004q.002 0 0 0" style="fill:#231f20;fill-opacity:1;fill-rule:evenodd;stroke:none" transform="matrix(1.33333 0 0 -1.33333 -.667 1121.853)"></path><path d="M286.114 141.046a3.626 3.626 0 0 0-3.627-3.627 3.626 3.626 0 0 0-3.627 3.627 3.626 3.626 0 0 0 3.627 3.627 3.626 3.626 0 0 0 3.627-3.627" style="fill:#f6c212;fill-opacity:1;fill-rule:evenodd;stroke:none" transform="matrix(1.33333 0 0 -1.33333 -.667 1121.853)"></path><path d="M278.11 141.046a4.38 4.38 0 0 1 4.377-4.377 4.38 4.38 0 0 1 4.377 4.377 4.38 4.38 0 0 1-4.377 4.377 4.38 4.38 0 0 1-4.377-4.377m1.5 0a2.88 2.88 0 0 0 2.877 2.877 2.88 2.88 0 0 0 2.877-2.877 2.88 2.88 0 0 0-2.877-2.877 2.88 2.88 0 0 0-2.877 2.877" style="fill:#231f20;fill-opacity:1;fill-rule:evenodd;stroke:none" transform="matrix(1.33333 0 0 -1.33333 -.667 1121.853)"></path><path d="M355.615 147.046a3.626 3.626 0 0 0-3.627-3.627 3.626 3.626 0 0 0-3.627 3.627 3.626 3.626 0 0 0 3.627 3.627 3.626 3.626 0 0 0 3.627-3.627" style="fill:#f6c212;fill-opacity:1;fill-rule:evenodd;stroke:none" transform="matrix(1.33333 0 0 -1.33333 -.667 1121.853)"></path><path d="M347.611 147.046a4.38 4.38 0 0 1 4.377-4.377 4.38 4.38 0 0 1 4.377 4.377 4.38 4.38 0 0 1-4.377 4.377 4.38 4.38 0 0 1-4.377-4.377m1.5 0a2.88 2.88 0 0 0 2.877 2.877 2.88 2.88 0 0 0 2.877-2.877 2.88 2.88 0 0 0-2.877-2.877 2.88 2.88 0 0 0-2.877 2.877" style="fill:#231f20;fill-opacity:1;fill-rule:evenodd;stroke:none" transform="matrix(1.33333 0 0 -1.33333 -.667 1121.853)"></path><path d="m104.031 537.63 2.212 2.65 2.236 2.674 45.09-16.506-2.106-2.52-2.107-2.522-12.94 4.835-11.575-13.857 6.97-11.983-2.013-2.41-2.036-2.434zm17.888-20.26 9.111 10.907-19.89 7.51.045.052z" style="fill:#f6c212;fill-opacity:1;fill-rule:evenodd;stroke:none" transform="matrix(1.33333 0 0 -1.33333 -.667 1121.853)"></path><path d="m107.903 543.434-4.78-5.72 24.519-43.47 5.081 6.08-6.97 11.982 10.897 13.046c.922-.343 12.94-4.835 12.94-4.835l5.24 6.268-46.589 17.055zm-1.084-3.634s1.409 1.686 1.897 2.267c.946-.345 41.7-15.263 43.594-15.956l-3.19-3.816-12.938 4.835-12.254-14.669 6.97-11.982-3.016-3.61-22.943 40.678z" style="fill:#231f20;fill-opacity:1;fill-rule:evenodd;stroke:none" transform="matrix(1.33333 0 0 -1.33333 -.667 1121.853)"></path><path d="m110.537 535.462 11.272-19.394 10.475 12.539-22.85 8.628zm2.408-1.157 16.834-6.357-7.748-9.276c-.865 1.489-7.402 12.733-9.086 15.633" style="fill:#231f20;fill-opacity:1;fill-rule:evenodd;stroke:none" transform="matrix(1.33333 0 0 -1.33333 -.667 1121.853)"></path><path d="M159.45 572.152q-2.963 3.1-6.733 3.075-3.772-.026-7.711-3.14c-2.71-2.14-4.35-4.285-4.928-6.436q-.87-3.225 1.509-6.231 1.617-2.047 3.814-1.95 2.199.097 7.204 2.452l7.345 3.416q5.91 2.75 9.864 2.119 3.943-.607 7.257-4.8c2.543-3.215 3.334-6.724 2.385-10.53q-1.427-5.71-7.676-10.65-6.95-5.495-13.426-5.331-6.345.186-10.744 5.75l-.21.266 4.414 3.489q3.157-3.747 7.486-3.716 4.33.029 9.108 3.808 4.418 3.491 5.514 6.819 1.096 3.33-1.228 6.265-2.013 2.55-4.494 2.586-2.449.016-7.851-2.492l-7.35-3.425q-5.568-2.6-9.136-2.209-3.56.399-6.319 3.895-4.02 5.084-2.91 10.802 1.113 5.715 7.003 10.372 5.988 4.734 11.906 4.544 5.915-.188 10.318-5.26z" style="fill:#f6c212;fill-opacity:1;fill-rule:evenodd;stroke:none" transform="matrix(1.33333 0 0 -1.33333 -.667 1121.853)" data-source="https://football-logos.cc"></path><path d="M141.17 576.945c-4.05-3.205-6.499-6.845-7.272-10.818-.78-4.018.25-7.854 3.057-11.41 1.961-2.484 4.257-3.888 6.825-4.175 2.51-.276 5.717.49 9.536 2.274l7.349 3.425c3.482 1.617 6.016 2.432 7.53 2.422 1.425-.02 2.705-.772 3.91-2.3 1.396-1.762 1.757-3.583 1.105-5.567-.678-2.064-2.45-4.237-5.268-6.464-3.035-2.402-5.945-3.63-8.647-3.647-2.677-.02-4.936 1.108-6.906 3.45l-.47.554-5.573-4.404.675-.854c3.065-3.873 6.87-5.905 11.31-6.035 4.48-.113 9.16 1.735 13.914 5.491 4.278 3.384 6.95 7.105 7.94 11.058 1.004 4.03.154 7.793-2.525 11.177-2.32 2.936-4.92 4.644-7.731 5.076-2.77.444-6.235-.29-10.295-2.18l-7.345-3.416c-3.234-1.522-5.562-2.323-6.921-2.383-1.22-.053-2.265.492-3.192 1.665-1.443 1.825-1.893 3.648-1.374 5.573.533 1.983 2.103 4.016 4.668 6.042 2.479 1.96 4.92 2.962 7.253 2.978 2.318.015 4.341-.915 6.184-2.843l.472-.494 5.563 4.4-.514.592c-3.063 3.53-6.718 5.385-10.862 5.518-4.108.13-8.279-1.451-12.395-4.705m2.774-24.912c-2.153.24-4.109 1.456-5.812 3.613-2.562 3.24-3.466 6.575-2.761 10.194.701 3.613 2.966 6.952 6.73 9.928 3.83 3.027 7.67 4.503 11.418 4.382 3.452-.11 6.498-1.712 9.149-4.497l-3.246-2.566c-1.988 1.859-4.22 2.906-6.71 2.89-2.677-.019-5.426-1.13-8.173-3.3-2.823-2.231-4.569-4.53-5.186-6.83-.643-2.381-.09-4.7 1.644-6.893 1.23-1.557 2.723-2.308 4.436-2.234 1.582.07 4.03.895 7.49 2.524l7.343 3.415c3.783 1.76 6.956 2.453 9.429 2.056 2.429-.373 4.71-1.895 6.786-4.523 2.412-3.047 3.145-6.28 2.246-9.883-.907-3.624-3.4-7.071-7.414-10.244-4.47-3.533-8.825-5.274-12.941-5.17-3.894.115-7.106 1.871-9.859 5.192l3.305 2.612c2.137-2.266 4.621-3.535 7.487-3.514 3.044.02 6.263 1.356 9.568 3.97 3.05 2.412 4.99 4.824 5.76 7.173.811 2.465.354 4.81-1.352 6.965-1.481 1.876-3.188 2.843-5.072 2.87-1.768.013-4.441-.825-8.178-2.562l-7.35-3.425c-3.567-1.667-6.507-2.388-8.737-2.143" style="fill:#231f20;fill-opacity:1;fill-rule:evenodd;stroke:none" transform="matrix(1.33333 0 0 -1.33333 -.667 1121.853)"></path><path d="m179.87 593.699-13.51-7.146-1.271 2.403-1.272 2.403 32.403 17.143 1.271-2.403 1.272-2.403-13.51-7.147 18.593-35.135-2.681-1.418-2.707-1.432z" style="fill:#f6c212;fill-opacity:1;fill-rule:evenodd;stroke:none" transform="matrix(1.33333 0 0 -1.33333 -.667 1121.853)"></path><path d="m195.87 609.166-33.066-17.495 3.244-6.131 13.51 7.145 18.588-35.134 6.713 3.55-18.591 35.136 13.508 7.147-3.244 6.132zm.038-1.677c.367-.696 1.473-2.785 1.841-3.48l-13.509-7.148 18.592-35.135-4.062-2.148-18.589 35.134-13.509-7.145-1.84 3.48c1.244.66 29.83 15.783 31.076 16.442" style="fill:#231f20;fill-opacity:1;fill-rule:evenodd;stroke:none" transform="matrix(1.33333 0 0 -1.33333 -.667 1121.853)"></path><path d="M222.57 576.13q-7.665 4.617-10.61 14.857-2.956 10.283 1.076 18.289 4.031 8.005 13.488 10.727 9.518 2.735 17.171-1.909 7.655-4.647 10.612-14.928 2.943-10.241-1.078-18.218-4.024-7.978-13.542-10.716-9.457-2.721-17.118 1.899m25.196 11.345q2.775 6.06.506 13.954-2.284 7.936-7.86 11.62t-12.384 1.726q-6.776-1.95-9.545-8.031-2.767-6.085-.483-14.022 2.268-7.893 7.84-11.553 5.569-3.661 12.346-1.711 6.807 1.956 9.58 8.017" style="fill:#f6c212;fill-opacity:1;fill-rule:evenodd;stroke:none" transform="matrix(1.33333 0 0 -1.33333 -.667 1121.853)"></path><path d="M226.318 620.724c-6.485-1.865-11.18-5.603-13.951-11.111-1.6-3.175-2.401-6.633-2.401-10.343 0-2.702.425-5.536 1.274-8.49 2.007-6.982 5.688-12.127 10.943-15.29 5.266-3.18 11.226-3.844 17.713-1.978 6.522 1.876 11.233 5.61 14.002 11.097 2.757 5.47 3.136 11.784 1.13 18.764-2.018 7.01-5.699 12.178-10.943 15.363-5.268 3.193-11.244 3.863-17.767 1.988m-3.362-43.952v.001c-4.917 2.962-8.374 7.814-10.274 14.42-1.909 6.638-1.565 12.608 1.024 17.745 2.576 5.119 6.959 8.6 13.026 10.344 6.104 1.755 11.68 1.14 16.574-1.83 4.913-2.98 8.371-7.859 10.28-14.494 1.9-6.607 1.554-12.553-1.027-17.674-2.572-5.099-6.973-8.575-13.08-10.331-6.067-1.746-11.627-1.134-16.523 1.819m-.773-1.285v.001z" style="fill:#231f20;fill-opacity:1;fill-rule:evenodd;stroke:none" transform="matrix(1.33333 0 0 -1.33333 -.667 1121.853)"></path><path d="M227.82 615.497c-4.716-1.356-8.088-4.197-10.02-8.442-1.913-4.204-2.09-9.096-.522-14.54 1.556-5.414 4.298-9.442 8.15-11.972 3.883-2.555 8.245-3.163 12.965-1.805 4.735 1.361 8.12 4.196 10.054 8.426 1.06 2.313 1.59 4.834 1.59 7.541 0 2.193-.348 4.507-1.045 6.932-1.567 5.443-4.315 9.493-8.168 12.04-3.892 2.57-8.267 3.182-13.005 1.82m-1.569-33.7c-3.543 2.328-6.077 6.073-7.53 11.133-1.465 5.09-1.316 9.634.445 13.504 1.767 3.882 4.733 6.375 9.07 7.622 4.355 1.252 8.203.719 11.763-1.63 3.546-2.344 6.086-6.114 7.553-11.204 1.454-5.062 1.296-9.583-.467-13.434h-.001c-1.769-3.867-4.748-6.356-9.104-7.608-4.34-1.248-8.177-.72-11.728 1.617m22.197 5.367h-.001" style="fill:#231f20;fill-opacity:1;fill-rule:evenodd;stroke:none" transform="matrix(1.33333 0 0 -1.33333 -.667 1121.853)"></path><path d="m271.158 582.182-2.947-.171-2.947-.173-2.634 45.111 3.653.213 3.686.215 24.75-35.332-2.142 36.652 2.947.173 2.95.171 2.634-45.11-3.348-.196-3.346-.195-25.403 35.445z" style="fill:#f6c212;fill-opacity:1;fill-rule:evenodd;stroke:none" transform="matrix(1.33333 0 0 -1.33333 -.667 1121.853)"></path><path d="m298.43 629.79-6.645-.389 2.031-34.76-23.474 33.51-8.505-.497 2.722-46.609 7.392.433-2.04 34.964 24.134-33.675 7.856.46-2.722 46.606zm-2.863-1.669 2.202.128c.082-1.424 2.462-42.19 2.546-43.613l-5.533-.322c-.473.657-26.672 37.214-26.672 37.214l2.255-38.641-4.398-.257c-.082 1.424-2.462 42.19-2.546 43.615.947.054 5.516.32 6.173.359.47-.673 26.026-37.155 26.026-37.155l-2.251 38.543z" style="fill:#231f20;fill-opacity:1;fill-rule:evenodd;stroke:none" transform="matrix(1.33333 0 0 -1.33333 -.667 1121.853)"></path><path d="m334.964 626.003 3.29-.813 3.322-.819 3.32-40.604.032-.009 21.802 34.402 3.29-.812 3.29-.811-26.806-39.927-3.196.79-3.197.787z" style="fill:#f6c212;fill-opacity:1;fill-rule:evenodd;stroke:none" transform="matrix(1.33333 0 0 -1.33333 -.667 1121.853)"></path><path d="m334.218 625.922 5.203-48.337 7.412-1.83 27.698 41.254-8.145 2.008-20.92-33.01-3.187 38.963-8.175 2.019zm1.606-.905 5.049-1.245 3.457-42.297 1.23 1.882 21.515 33.946c.74-.183 4.043-.997 5.015-1.238-1.13-1.681-25.356-37.768-25.916-38.601l-5.373 1.326z" style="fill:#231f20;fill-opacity:1;fill-rule:evenodd;stroke:none" transform="matrix(1.33333 0 0 -1.33333 -.667 1121.853)"></path><path d="m381.895 612.666 2.824-1.106 2.85-1.115-16.465-42.08-2.824 1.104-2.85 1.115z" style="fill:#f6c212;fill-opacity:1;fill-rule:evenodd;stroke:none" transform="matrix(1.33333 0 0 -1.33333 -.667 1121.853)"></path><path d="m381.196 612.94-16.738-42.781 7.071-2.766 17.012 43.477-7.071 2.767zm1.123-1.245c.791-.31 3.482-1.363 4.28-1.674l-15.92-40.685c-.792.311-3.481 1.363-4.278 1.673z" style="fill:#231f20;fill-opacity:1;fill-rule:evenodd;stroke:none" transform="matrix(1.33333 0 0 -1.33333 -.667 1121.853)"></path><path d="m379.63 565.063 21.55 39.717 2.664-1.446 2.692-1.46-18.958-34.938 20.189-10.954-1.298-2.39-1.295-2.39z" style="fill:#f6c212;fill-opacity:1;fill-rule:evenodd;stroke:none" transform="matrix(1.33333 0 0 -1.33333 -.667 1121.853)"></path><path d="m400.521 605.138-21.908-40.377 26.863-14.575 3.307 6.098-20.188 10.954 18.958 34.938-6.674 3.62zm.961-1.374 4.038-2.192-18.958-34.938 20.188-10.954-1.878-3.461c-1.219.662-23.007 12.485-24.226 13.145z" style="fill:#231f20;fill-opacity:1;fill-rule:evenodd;stroke:none" transform="matrix(1.33333 0 0 -1.33333 -.667 1121.853)"></path><path d="m410.078 547.585 28.093 35.394 2.376-1.885 2.396-1.905-24.712-31.133 17.989-14.28-1.69-2.13-1.691-2.13z" style="fill:#f6c212;fill-opacity:1;fill-rule:evenodd;stroke:none" transform="matrix(1.33333 0 0 -1.33333 -.667 1121.853)"></path><path d="m437.584 583.445-28.56-35.981 23.936-19 4.313 5.434-17.988 14.28 24.712 31.132-5.948 4.722zm.71-1.52 3.597-2.857-24.712-31.134 17.988-14.28c-.489-.614-1.96-2.467-2.449-3.084-1.085.863-20.5 16.276-21.586 17.137.887 1.116 26.275 33.101 27.161 34.219" style="fill:#231f20;fill-opacity:1;fill-rule:evenodd;stroke:none" transform="matrix(1.33333 0 0 -1.33333 -.667 1121.853)"></path><path d="m482.063 542.459 2.221-2.647 2.236-2.67-24.197-41.475-2.11 2.517-2.111 2.518 7.04 11.885-11.599 13.84-13.022-4.749-2.016 2.407-2.04 2.432zm-23.097-14.037 9.132-10.891 10.898 18.252.044-.052z" style="fill:#f6c212;fill-opacity:1;fill-rule:evenodd;stroke:none" transform="matrix(1.33333 0 0 -1.33333 -.667 1121.853)"></path><path d="m481.816 543.166-46.622-16.3 5.09-6.073s12.108 4.415 13.022 4.75l10.92-13.03-7.04-11.886 5.247-6.26 25 42.853-5.128 6.117zm.007-1.586 3.784-4.515c-.507-.87-22.377-38.357-23.392-40.099-.626.746-2.716 3.24-3.197 3.81l7.04 11.886-12.277 14.65-13.022-4.749-3.02 3.604z" style="fill:#231f20;fill-opacity:1;fill-rule:evenodd;stroke:none" transform="matrix(1.33333 0 0 -1.33333 -.667 1121.853)"></path><path d="m478.784 536.435-21.08-7.676 10.496-12.52 12.522 20.97zm-1.565-2.165-9.224-15.45c-1.068 1.273-6.685 7.972-7.766 9.263z" style="fill:#231f20;fill-opacity:1;fill-rule:evenodd;stroke:none" transform="matrix(1.33333 0 0 -1.33333 -.667 1121.853)"></path><path d="m248.433 140.067 5.985 44.79 31.037-4.149-.36-2.695-.36-2.693-24.997 3.34L257.913 165l21.929-2.93-.36-2.695-.358-2.695-21.932 2.932-2.718-20.35-3.006.402z" style="fill:#f6c212;fill-opacity:1;fill-rule:evenodd;stroke:none" transform="matrix(1.33333 0 0 -1.33333 -.667 1121.853)"></path><path d="m253.674 184.956-6.084-45.533 7.528-1.004 2.719 20.35 21.932-2.933.915 6.878-21.929 2.93c.169 1.252 1.46 10.92 1.628 12.174 1.399-.188 24.996-3.34 24.996-3.34l.918 6.875-32.524 4.346zm1.39-.942 29.55-3.95-.523-3.901-24.996 3.34-2.023-15.149s20.54-2.743 21.929-2.93c-.104-.778-.418-3.122-.52-3.903l-21.932 2.933-2.719-20.35-4.554.608z" style="fill:#231f20;fill-opacity:1;fill-rule:evenodd;stroke:none" transform="matrix(1.33333 0 0 -1.33333 -.667 1121.853)"></path><path d="M339.771 156.18q-.272-8.462-4.98-13.751-4.709-5.29-12.688-6.14-9.295-.992-15.496 4.821-6.2 5.813-7.356 16.659c-.77 7.23.524 13.192 3.894 17.888q5.05 7.046 14.718 8.074 7.616.814 12.929-2.586 5.314-3.397 7.028-10.181l-5.874-.627q-1.337 4.37-4.883 6.451-3.552 2.078-8.725 1.526-6.771-.72-10.251-6.105-3.483-5.388-2.59-13.775.95-8.908 5.165-13.175 4.215-4.271 11.282-3.519 5.23.559 8.344 4.155 3.111 3.599 3.612 9.659z" style="fill:#f6c212;fill-opacity:1;fill-rule:evenodd;stroke:none" transform="matrix(1.33333 0 0 -1.33333 -.667 1121.853)"></path><path d="M317.784 184.477c-6.637-.706-11.768-3.526-15.249-8.383-3.461-4.824-4.818-11.017-4.03-18.405.787-7.38 3.34-13.14 7.59-17.126 4.279-4.011 9.691-5.702 16.087-5.02 5.487.585 9.917 2.734 13.169 6.388 3.244 3.646 4.983 8.433 5.17 14.226l.028.862-7.344-.786-.052-.618c-.32-3.86-1.473-6.965-3.432-9.23-1.94-2.238-4.583-3.55-7.856-3.9-4.514-.48-8.005.6-10.67 3.301-2.675 2.709-4.342 6.99-4.952 12.727-.573 5.393.266 9.873 2.474 13.289 2.212 3.422 5.384 5.307 9.7 5.767 3.272.347 6.051-.13 8.266-1.428 2.186-1.28 3.715-3.308 4.545-6.024l.182-.592 7.35.784-.213.838c-1.185 4.692-3.658 8.268-7.35 10.629-3.672 2.351-8.185 3.26-13.413 2.701m-10.664-42.82c-3.98 3.732-6.376 9.18-7.123 16.19-.748 7.011.517 12.856 3.757 17.374 3.221 4.494 7.995 7.106 14.188 7.765 4.881.521 9.07-.31 12.446-2.473 3.117-1.993 5.176-5.054 6.342-8.91-1.239-.134-3.669-.393-4.356-.466-.984 2.762-2.593 4.926-4.932 6.299-2.495 1.46-5.586 2.006-9.183 1.624-4.729-.502-8.363-2.67-10.802-6.444-2.407-3.72-3.316-8.518-2.706-14.262.648-6.083 2.457-10.666 5.378-13.623 2.963-3.004 6.965-4.26 11.894-3.736 3.664.39 6.635 1.873 8.832 4.409 2.05 2.371 3.236 5.593 3.66 9.461l4.35.465c-.326-5.004-1.808-9.225-4.635-12.403-2.996-3.365-7.103-5.348-12.207-5.893-5.942-.632-10.957.924-14.903 4.623" style="fill:#231f20;fill-opacity:1;fill-rule:evenodd;stroke:none" transform="matrix(1.33333 0 0 -1.33333 -.667 1121.853)" data-source="https://football-logos.cc"></path><!-- source: https://football-logos.cc --></svg>