<svg xmlns="http://www.w3.org/2000/svg" xml:space="preserve" viewBox="0.09 0.05 59.81 84.9"><!-- Source: https://football-logos.cc --><path fill="#7b003a" fill-rule="evenodd" d="M59.905.05H.095v64.201c0 5.015 3.048 8.962 9.145 11.874 2.028.975 4.725 1.981 8.11 3.003l7.544 2.301 1.067.488c.792.366 1.356.67 1.677.915.777.548 1.539 1.25 2.286 2.118.716-.747 1.296-1.295 1.722-1.646.839-.686 1.905-1.28 3.231-1.783.945-.366 3.445-1.159 7.5-2.393 3.49-1.068 6.233-2.058 8.2-2.973 6.218-2.88 9.328-6.843 9.328-11.904z" data-source="https://football-logos.cc"></path><path fill="#a3c5e9" fill-rule="evenodd" d="M27.82 80.316a13 13 0 0 1 2.119 1.814c.655-.64 1.188-1.113 1.584-1.417.747-.58 1.738-1.098 3.004-1.54.868-.32 3.2-1.006 6.965-2.073 3.247-.93 5.792-1.783 7.637-2.575 5.776-2.485 8.657-5.93 8.657-10.305V2.215H2.214V64.22c0 4.344 2.835 7.758 8.49 10.272q2.835 1.258 7.544 2.607l7.012 1.997z"></path><path fill="#fff" fill-rule="evenodd" d="m13.892 23.274-2.073-.305-.945-1.905-.915 1.905-2.088.305 1.509 1.494-.366 2.119c.625-.336 1.25-.67 1.86-1.006l1.874 1.006-.365-2.119z" data-source="https://football-logos.cc"></path><path fill="#ffe500" fill-rule="evenodd" d="M24.154 27.05c-.418.418-.397 1.061-.846 1.313-.325.182-.695.124-.853-.043-.225-.24-.303-.618-.008-.948.35-.393 1.084-.332 1.707-.322m-3.143 6.096c-.012.513.063.91.313 1.217-.365.29-.292.747-.123 1.155.183.443.809 1.144 1.583 1.47.132-.23-.234-.84-.103-1.26.474.363.923.648 1.23.62-.208-.42-.23-.703-.153-.815.83-.69 1.817-1.565 2.406-1.758.476-.156.976.176 1.057.776.093.687-.173 1.265-.626 1.748-.804.859-1.884 1.272-2.718 2.196-1.33 1.474-1.607 3.104-3.22 3.188.891-.6 1.398-1.113 1.908-2.087-3.182.485-5.116-1.23-7.072-2.233-.858-.44-1.715-.531-2.202-.636-.776-.803-1.173-1.461-1.356-2.539-.207-1.22.102-2.304-1.017-2.436-.642-.888-1.458-1.49-2.657-.704.642.111 1.107.263 1.424 1.211-.093.14-.308.348-.314.59-.405.024-.53.058-.797.313-1.065-.43-2.068-.253-2.576.803.74-.198 1.313-.174 1.822.325.055.342.09.591.284.84-.44.268-.708.803-.725 1.16-.86.204-1.38.74-1.426 1.558.615-.43 1.252-.483 1.566-.399.2.205.38.605.792.72.467.13 1.372-.065 1.894.09.205.36.28.549.262.779-.072.903-1.541.308-1.407 1.659-.51.146-.819-.033-1.264-.352.3 1.337 1.08 1.946 2.12 1.317.88.192 1.426-.72 2.22-1.156.764-.419 1.879.12 2.51.566.968.685 1.995 1.552 2.528 3.616.346-.355.58-.877.638-1.386l2.51 2.325-5.413 4.197c-.37.286-.786.549-1.175.395-.332-.132-.522-.5-.812-.774-.425-.4-.995-.667-1.606-.333-.967-.032-1.865.196-2.048 1.649.32-.289.614-.545 1.215-.365.003.365.095.683.33.955-.3.185-.498.475-.52.66-.894.051-1.545.557-1.632 1.614.506-.508.93-.73 1.527-.486.177 1.084.676 1.219 1.25 1.145-.162.463-.197.793.01 1.18-.31.692.028 1.584.476 1.882-.058-.429.011-.938.255-1.164.509.126.887-.078 1.396-.742.121.559.512.868 1.004.823.067.582.33 1.05.675 1.353-.099-.474-.154-1-.067-1.475.922-.729.736-1.523.889-2.43.17-1.008.678-1.457 1.492-1.991 1.578-1.036 3.44-1.823 6.385-2.07.92 1.111 1.836 2.313 3 3.336-1.78 1.435-2.986.833-4.43 1.002-.65.076-1.51.38-1.975.862-.41.424-.619.964-1.075 1.193-.355.178-.83.227-1.381-.23-.027 1.299.498 1.729 1.824 1.654-.468.553-.96.763-1.967.394.426 1.033 1.124 1.414 2.206 1.3.255 1.77 2.525 2.751 2.12 4.149-.547 1.892-4.73 2.411-6.25 1.432-1.068-.689-1.546-1.837-2.801-1.459-.692-.63-1.97-.836-2.498.675.912-.51 1.329-.232 1.132.368-1.64.021-2.257.835-2.029 1.947.318-.583.655-.718 1.07-.638-.137.315-.226.727-.207 1.354-.81.49-.841 1.387-.474 2.14.213-.614.32-1.174.82-1.203q.45.609 1.25.868c-.187.961-.14 1.835.139 2.563.185-.644.37-1.054.612-1.348.844.585 1.737.597 2.61.361 1.781-.48 2.875-1.87 4.259-1.89.77-.012 1.12.592.604 1.299 1.104-.068 1.698-.326 2.235-.636.836-.483 1.363-1.089 2.174-1.283 1.348-.322 3.248 1.222 4.151-.502-1.061.18-1.672-.302-1.858-.804 1.338.233 2.206.194 2.924-.924-1.952.328-2.82-1.374-2.94-2.308-.113-.878.17-2.522 1.995-3.076.587-1.22.898-1.86 1.535-2.867l.212-.983c.13.456.228.891.085 1.385-.208.723-.712 1.51-1.017 2.337a5.1 5.1 0 0 0-.29 1.995c.047.71.292 1.36.741 1.896.75.89 1.843 1.612 1.076 3.396.821-.08 1.293-.473 2.114-1.41.625.476 1.084 1.118.853 1.984 1.038-.319 1.693-1.132 2.06-2.316 1.486.043 2.318.338 2.462.91.24.953-2.138 4.488-5.126 4.609-.475-.128-.85-.622-1.22-.798-.335-.159-.796-.125-1.194.44-.936-.254-2.037-.012-2.325 1.034-.556.247-1.05 1.071-.969 1.797.2-.173.837-.599 1.08-.632.067.216.442.444.655.506-1.264 1.109-1.304 2.017-1.193 2.45.534-.863 1.16-1.024 1.464-1.001.214.54.64.764 1.265.834l.03 1.5 1.068-1.182c1.308.64 2.683.237 3.654-.491 1.792-1.345 2.54-3.973 3.87-3.8.278.036.535.314.402.713.33.08.643-.052.881-.335.523-.624.848-1.865 1.825-3.327.624-.934 2.122-1.945 2.55-2.871-.696.459-1.51.314-1.622-.091 1.226-.642 2.33-1.39 2.788-3.152-.671.31-1.284.543-1.955.464.56-1.188.75-2.414.218-3.212-1.707 2.502-3.75 2.085-4.575 1.504-.644-.453-1.257-1.135-1.307-2.727-.013-.417.088-1.08.267-1.702s.379-1.113.386-1.68c2.523 1.453 4.502 1.891 5.926 1.828 2.667-.118 4.395-2.234 4.301-4.94-.046-1.324-.606-2.604-1.596-3.868-1.12-1.429-2.704-2.809-3.752-4.239-.548-.749-.916-1.592-1.07-2.358-.247-1.234-.06-2.654 1.253-3.846 1.413.817 2.743 1.145 4.009 1.05 1.295-.099 2.323-.873 3.321-1.695.45-.37.922-.758 1.878-.651-.315-.367-.892-.762-1.761-.72 2.041-2.476 2.862-5.572 1.732-7.735-.185 1.246-.6 1.548-.975 1.805-.497.341-.897.404-1.617.783.372-.726.335-1.263.093-2.09-.882 2.282-2.027 1.735-3.64 3.405.19-.764.214-1.382-.073-2.087a2.34 2.34 0 0 1-.918 1.526c-1.458 1.075-3.28 1.327-2.926 4.8-1.868 1.482-2.55 3.24-2.417 4.993.11 1.455.697 2.788 1.64 4.04 1.006 1.334 2.396 2.576 3.382 3.775 1.08 1.313 2.096 3.622.917 5.27-.768 1.074-2.98 1.694-7.643-1.23-.244-2.498-2.158-5.066-2.564-7.351-.152-.858-.076-1.598.08-2.377.137-.688.35-1.407.339-2.266.798.666 1.714.826 2.396.567-.543-.208-1.002-.88-.99-1.73.019-1.323.772-2.669.056-4.163.6.43 1.26.686 2.006.358-1.677-1.112-.145-2.544-.947-4.386.59.291 1.442.29 2.06-.061-1.987-.453-.97-3.006-2.667-4.655a1.87 1.87 0 0 0 1.689-.87c-1.785.296-2.697-2.117-4.214-3.411-1.426-1.217-3.18-1.654-5.228-1.266-.026-.301.463-.748 1.06-1.049-1.864-.794-3.782-.201-5.412 1.261.072-.626-.032-1.252-.485-1.848-.23 1.306-2.223 2.114-2.921 3.18-.317.485-.506 1.018-.488 1.624-1.776 1.259-2.268 1.175-2.79 2.696-.888.74-1.967 1.51-2.622 2.251.02.228.114.499.164.756l.518-.51c-.184.477-.154.944.067 1.326.422.729 1.266 1.122 1.754 1.433-.302-.912-.215-1.154.138-1.385.776-.507 2.58-.33 2.74-.082.218.337-.053 1.911-1.037 2.326-.71.298-1.182.08-1.695-.46"></path><path fill="#7b003a" fill-rule="evenodd" d="M50.363 4.912q-3.062 0-5.198 1.687-.496.4-.89.908a6 6 0 0 0-.725 1.143q-.301.63-.476 1.37a6.6 6.6 0 0 0-.184 1.614q0 1.746.699 2.96a6.2 6.2 0 0 0 1.686 2.013q2.141 1.466 5.059 1.446a9 9 0 0 0 2.081-.269c.644-.149 1.22-.291 1.735-.434q.451-.76.705-2.987c-.058-.111-.171-.187-.33-.222q-.248-.018-.375.092-.36 1.03-1.25 1.94-.451.434-1.084.703-.645.308-1.508.307-1.757.001-3.052-1.504-1.332-1.482-1.37-4.313c.023-1.9.486-3.31 1.39-4.238q1.314-1.344 2.941-1.345 2.767.017 3.538 2.718.147.11.395.073.238-.037.31-.212-.234-2.05-.218-2.96c-.29-.035-.764-.127-1.434-.27q-.992-.202-2.444-.22M35.626 6.86c-.013-.374.017-.603.1-.69q.091-.093.523-.092h1.673c.483 0 .873.046 1.165.149.302.106.518.272.67.475.171.23.361.724.55 1.487.121.073.264.087.432.073.133-.01.228-.047.284-.149a154 154 0 0 1-.046-2.962q-.568.057-2.566.057H34.21c-.457 0-.914-.013-1.374-.02a29 29 0 0 1-1.309-.037q-.15.075-.15.307-.002.252.114.36l.379.058q.65.053.82.414.146.366.146 1.652v7.068q0 1.248-.147 1.614-.17.343-.819.414l-.63.095q-.113.1-.114.323c0 .155.04.273.114.345a92 92 0 0 1 2.993-.057q1.32 0 3.052.057c.075-.072.114-.19.114-.345q-.002-.222-.114-.323l-.699-.095q-.603-.072-.788-.418-.192-.361-.173-1.612v-2.56q0-.4.102-.503.072-.072.43-.073h1.64c.487 0 .83.058 1.016.193.18.13.286.43.375.874l.091.455c.085.073.209.098.372.092s.278-.038.337-.11a33 33 0 0 1-.053-1.976q0-1.105.053-2.031-.09-.15-.337-.15-.244.001-.372.13l-.091.456c-.089.443-.198.736-.375.87-.189.144-.53.197-1.015.197h-1.64c-.239 0-.382-.029-.431-.12q-.103-.096-.102-.456zm-8.48 2.896q.974-2.286 1.576-3.194.305-.56 1.045-.667l.492-.095q.114-.11.115-.342-.041-.232-.154-.307-.814.057-1.759.057-1.047 0-2.334-.057-.176.074-.176.288-.016.232.095.36l.555.13q.341.058.434.14.074.077.075.186 0 .15-.186.687c-.37 1.05-.869 2.377-1.498 3.972l-.705 1.782q-.362.9-.601 1.412-.196-.455-.594-1.469l-1.667-4.276q-.342-.874-.555-1.42-.202-.558-.203-.669-.02-.25.474-.364l.571-.11a.66.66 0 0 0 .095-.361.38.38 0 0 0-.111-.288 84 84 0 0 1-2.853.057q-1.307 0-2.575-.057-.111.075-.16.269a.47.47 0 0 0 .088.38l.526.13q.631.095.89.398.25.29.758 1.671l3.075 7.732.796 2.162q.165.157.51.158.435-.001.665-.158.568-1.49 1.92-4.852zM10.122 12.45q-.344.019-.438-.12-.117-.095.04-.456l.47-1.42c.303-.928.56-1.628.78-2.1q.269.688.685 1.998l.49 1.541q.161.36.058.456-.096.1-.437.101zm1.749 1q.49 0 .676.038.194.074.231.304l.51 1.633q.362 1.069.362 1.292a.3.3 0 0 1-.075.174q-.092.096-.434.149l-.614.094a.44.44 0 0 0-.11.342q0 .216.15.326 1.228-.057 2.565-.057 1.517 0 2.918.057c.088-.072.133-.196.133-.36q-.02-.226-.114-.308l-.725-.11q-.49-.096-.71-.475a2.6 2.6 0 0 1-.252-.51c-.085-.193-.19-.427-.307-.705L13.5 7.88q-.666-1.902-.862-2.598-.089-.37-.434-.37-.036.038-.473.471a3.1 3.1 0 0 1-1.175.668q.019.717-.74 2.412L8.111 13.09a67 67 0 0 1-1.178 3.042q-.23.53-.51.725c-.188.123-.407.196-.646.22l-.512.058a.5.5 0 0 0-.075.342c0 .142.046.253.134.325q1.157-.038 1.952-.056 1.214.018 2.222.056.131-.094.13-.344 0-.224-.09-.323l-.575-.095c-.268-.06-.44-.117-.529-.165q-.156-.058-.156-.158c-.013-.11.032-.339.137-.677l.705-2.21q.073-.27.205-.341c.059-.026.2-.038.415-.038z" data-source="https://football-logos.cc"></path><!-- source: https://football-logos.cc --></svg>