<svg xmlns="http://www.w3.org/2000/svg" xml:space="preserve" viewBox="0 0 393.62 393.62"><!-- Source: https://football-logos.cc --><path d="M1476.08 0c812.24 0 1476.07 663.84 1476.07 1476.09 0 812.24-663.83 1476.08-1476.07 1476.08C663.844 2952.17 0 2288.33 0 1476.09 0 663.84 663.844 0 1476.08 0" style="fill:#100f0d;fill-opacity:1;fill-rule:evenodd;stroke:none" transform="matrix(.13333 0 0 -.13333 0 393.627)" data-source="https://football-logos.cc"></path><path d="M1476.08 540.969c523.41 0 951.07 421.281 951.07 935.121s-427.66 935.11-951.07 935.11c-523.408 0-951.076-421.27-951.076-935.11s427.668-935.121 951.076-935.121" style="fill:#e4cf14;fill-opacity:1;fill-rule:evenodd;stroke:none" transform="matrix(.13333 0 0 -.13333 0 393.627)"></path><path d="M1476.08 596.832c483.51 0 879.27 395.738 879.27 879.258 0 483.51-395.76 879.26-879.27 879.26-483.521 0-879.267-395.75-879.267-879.26 0-483.52 395.746-879.258 879.267-879.258" style="fill:#100f0d;fill-opacity:1;fill-rule:evenodd;stroke:none" transform="matrix(.13333 0 0 -.13333 0 393.627)" data-source="https://football-logos.cc"></path><path d="M1476.08 785.109c379.78 0 690.97 311.171 690.97 690.981 0 379.78-311.19 690.96-690.97 690.96-379.79 0-690.967-311.18-690.967-690.96 0-379.81 311.177-690.981 690.967-690.981M569.551 2156.77l41.07-31.81 10.883 14.06c7.976 10.3 11.789 18.97 11.387 26.03-.403 7.04-3.899 13.13-10.5 18.25-5.418 4.2-11.782 5.75-19.055 4.65-7.281-1.12-14.914-6.82-22.902-17.13zm-91.988 71.26 41.613-32.24 7.422 9.58c8.05 10.4 11.871 18.97 11.461 25.72-.414 6.75-4.028 12.77-10.848 18.05-7.992 6.2-15.465 7.82-22.441 4.9-6.973-2.93-13.301-8.06-18.969-15.38zm133.359-225.95L358.5 2197.59l77.215 99.69c9.781 12.64 20.281 23.51 31.449 32.64q16.785 13.665 34.977 19.8c12.132 4.07 24.445 5.12 36.922 3.13 12.48-2 24.914-7.78 37.304-17.38 10.281-7.97 18.149-18.45 23.594-31.46 5.453-13.01 5.898-26.52 1.371-40.58 6.527 5.03 13.703 8.63 21.551 10.78q11.75 3.225 23.816 2.52A77.6 77.6 0 0 0 670 2271.7c7.488-2.88 14.164-6.59 20.012-11.12 14.011-10.85 23.968-22.4 29.84-34.61 5.871-12.22 8.445-25.06 7.73-38.52-.711-13.49-4.492-27.3-11.344-41.44-6.836-14.15-15.961-28.58-27.367-43.31zM752.203 2393.65c7.5-10.67 15.711-18.93 24.688-24.75 8.961-5.84 18.047-9.67 27.281-11.51 9.219-1.85 18.308-1.71 27.258.41 8.953 2.13 17.047 5.73 24.285 10.83 7.469 5.25 13.68 11.69 18.582 19.3 4.914 7.62 8.062 16.08 9.457 25.38 1.375 9.31.848 19.16-1.602 29.57-2.445 10.41-7.422 20.95-14.922 31.62-7.488 10.66-15.726 18.91-24.687 24.74-8.957 5.82-18.051 9.66-27.27 11.51-9.242 1.84-18.257 1.75-27.089-.29-8.829-2.05-16.989-5.69-24.469-10.94-7.235-5.09-13.363-11.48-18.406-19.18-5.032-7.71-8.235-16.21-9.621-25.51-1.395-9.33-.852-19.17 1.593-29.58 2.446-10.41 7.422-20.94 14.922-31.6m-39.066 177.83c18.851 13.25 39.011 22.72 60.48 28.38 21.461 5.67 42.836 7.12 64.113 4.34 21.274-2.8 41.739-9.95 61.403-21.48 19.652-11.53 36.98-27.97 51.965-49.29 14.992-21.32 24.582-43.18 28.765-65.57 4.192-22.42 3.992-44.09-.597-65.06-4.575-20.97-13.176-40.58-25.786-58.86-12.605-18.26-28.343-34.03-47.179-47.28-18.863-13.25-39.031-22.71-60.492-28.39-21.469-5.68-42.84-7.13-64.114-4.32-21.265 2.78-41.746 9.94-61.398 21.48-19.66 11.53-36.977 27.95-51.969 49.28-14.734 21.48-24.219 43.44-28.39 65.84-4.2 22.39-3.997 44.07.578 65.04 4.582 20.96 13.121 40.53 25.605 58.73 12.492 18.18 28.16 33.91 47.016 47.16M1079.35 2664.35l15.82-49.48 16.97 5.43c10.46 3.34 17.39 8.22 20.79 14.63 3.41 6.42 4.06 12.91 1.97 19.45-5.37 16.76-18.24 21.91-38.58 15.39zm226.57-183.51-102.8-32.88-85.58 104.25-2.11-.67 38.18-119.41-92.37-29.53L964 2706.73l121.28 38.77c35.51 11.36 66.18 12.79 92.03 4.29 25.85-8.51 44.4-30.36 55.66-65.54 5.75-18.02 5.86-35.14.32-51.34-5.54-16.21-16.31-30.44-32.29-42.69zM1312.82 2801.12l98.33 2.35 4.5-187.66c.48-19.81 3-33.37 7.57-40.66 4.55-7.29 13.42-10.77 26.58-10.45 13.15.31 21.83 4.21 26.03 11.72 4.21 7.49 6.09 21.15 5.61 40.97l-4.51 187.66 98.31 2.36 4.67-193.91c1.13-46.75-8.27-80.95-28.14-102.59-19.89-21.65-53.17-33.02-99.86-34.15-46.7-1.12-80.49 8.65-101.39 29.32-20.9 20.65-31.91 54.36-33.03 101.11zM1611.14 2524.99l69.61 49.14c11.96-23.77 29.98-38.69 54.04-44.79 10.02-2.54 17.27-2.77 21.77-.7 4.49 2.08 7.25 5.12 8.27 9.15.86 3.44.62 7.02-.72 10.73-1.35 3.7-5.06 8.62-11.15 14.74l-44.43 45.21c-17.26 17.51-28.22 33.28-32.9 47.32-4.7 14.04-5.04 28.96-1.03 44.76 7.72 30.46 23.57 51.9 47.57 64.32 23.99 12.42 52.56 14.43 85.76 6.02 19.48-4.94 36.88-14.16 52.23-27.65 15.31-13.48 28.01-28.06 38.07-43.72l-69.5-45.05c-4.49 7.53-10.65 14.82-18.47 21.83-7.83 7-16.33 11.67-25.48 14-8.88 2.25-14.39-.8-16.49-9.14-.73-2.86-.26-6.42 1.42-10.66 1.66-4.26 3.83-7.78 6.49-10.59l51.66-54.84c9.45-9.73 16.79-18.4 22.07-26.01 5.25-7.6 8.99-14.81 11.23-21.64 2.24-6.84 3.18-13.66 2.85-20.44-.35-6.8-1.54-14.22-3.58-22.26-7.57-29.88-23.45-51.08-47.65-63.62q-36.285-18.78-86.97-5.94c-24.36 6.18-45.86 15.44-64.54 27.78-18.66 12.36-35.38 29.72-50.13 52.05M1859.39 2460.96l79.48 30.71c5.8-25.96 19.65-44.81 41.51-56.58 9.12-4.91 16.08-6.91 20.93-5.99 4.87.93 8.28 3.2 10.26 6.86 1.68 3.13 2.31 6.66 1.91 10.59-.41 3.93-2.81 9.59-7.22 17.02l-32.1 54.66c-12.46 21.18-19.27 39.15-20.4 53.91q-1.695 22.125 9.9 43.65c14.9 27.67 35.48 44.61 61.79 50.81 26.29 6.21 54.5 1.2 84.65-15.03 17.7-9.53 32.34-22.71 43.93-39.52 11.58-16.81 20.34-34.05 26.29-51.67l-78.36-26.79c-2.54 8.39-6.74 16.95-12.62 25.66s-12.99 15.31-21.31 19.79c-8.06 4.34-14.14 2.73-18.2-4.85-1.41-2.6-1.83-6.17-1.24-10.69q.87-6.795 3.72-11.85l36.78-65.76c6.79-11.75 11.81-21.93 15.07-30.6 3.23-8.65 5.12-16.56 5.63-23.72.51-7.19-.23-14.03-2.23-20.53-1.97-6.5-4.94-13.41-8.86-20.72-14.63-27.13-35.2-43.84-61.71-50.1-26.52-6.25-55.12-1.13-85.81 15.4-22.11 11.92-40.73 26.13-55.82 42.65-15.1 16.52-27.09 37.43-35.97 62.69M2075.32 2284.48l204.51 247 75.74-62.73-204.49-247zM2441.51 2263.46l-76.62-45.09 23.34-29.03 60.49 65.14zm-208.72-122.86-63.32 78.76 288 151.35 99.44-123.67-209.68-248.79-63.33 78.78 54.85 58.88-36.66 45.61zM403.867 865.852c12.973-22.172 28.926-35.071 47.875-38.692 18.949-3.629 38.774.61 59.488 12.738 21.219 12.411 34.879 27.774 41.004 46.071 6.118 18.301 2.692 38.511-10.281 60.691l-16.566 28.301-138.09-80.813zm140.598 234.218L612.969 983c12.679-21.66 21.488-43.48 26.445-65.41 4.961-21.91 5.543-42.969 1.77-63.149-3.782-20.191-12.075-39.07-24.895-56.671-12.812-17.61-30.582-33.071-53.285-46.348-22.715-13.301-44.824-21.172-66.32-23.652-21.504-2.489-41.903-.372-61.219 6.289-19.328 6.66-37.324 17.511-54.012 32.582-16.687 15.07-31.387 33.441-44.055 55.109l-68.515 117.07zM662.848 655.492c-8.606-9.801-14.7-19.742-18.258-29.812-3.559-10.078-5.152-19.828-4.785-29.219.371-9.422 2.64-18.199 6.804-26.41 4.184-8.199 9.582-15.211 16.239-21.059 6.859-6.031 14.562-10.543 23.125-13.531 8.558-2.992 17.519-4.063 26.894-3.219 9.367.84 18.817 3.668 28.363 8.496 9.547 4.821 18.614 12.133 27.227 21.934 8.602 9.777 14.688 19.726 18.246 29.797 3.563 10.082 5.152 19.832 4.781 29.222-.367 9.411-2.582 18.168-6.64 26.25-4.047 8.11-9.516 15.188-16.375 21.231-6.656 5.84-14.309 10.297-22.977 13.367-8.676 3.09-17.695 4.211-27.054 3.371-9.379-.84-18.829-3.668-28.375-8.5-9.547-4.82-18.614-12.14-27.215-21.918m163.691 79.75q25.959-22.832 41.781-52.121c10.551-19.531 16.993-39.98 19.278-61.312 2.281-21.34.129-42.911-6.45-64.727-6.593-21.801-18.496-42.523-35.703-62.09-17.207-19.582-36.203-34.023-56.988-43.371-20.789-9.32-41.914-14.223-63.363-14.699-21.461-.481-42.551 3.277-63.278 11.238-20.722 7.961-39.738 19.559-57.043 34.762-17.312 15.219-31.253 32.598-41.804 52.117-10.551 19.531-16.989 39.973-19.262 61.301-2.297 21.34-.144 42.91 6.449 64.73 6.59 21.809 18.496 42.52 35.703 62.09 17.422 19.379 36.532 33.75 57.325 43.082 20.785 9.328 41.898 14.227 63.359 14.707 21.449.473 42.48-3.238 63.105-11.097 20.618-7.872 39.575-19.403 56.891-34.61M1020.96 507.809l-21.355-47.348 16.245-7.332c10-4.508 18.42-5.527 25.24-3.039 6.82 2.48 11.65 6.879 14.48 13.129 7.22 16.051 1.1 28.472-18.37 37.261zm45.55-287.977-98.385 44.359 6.176 134.731-2.02.918-51.539-114.281-88.394 39.863 131.25 291.07 116.082-52.363c33.98-15.309 57.72-34.777 71.25-58.391 13.51-23.617 12.68-52.269-2.5-85.937-7.79-17.25-19.16-30.039-34.12-38.379-14.96-8.332-32.49-11.703-52.57-10.102zM1300.45 172.898l-96.9 16.813 40.96 236.109-75.56 13.11 30.2 75.601 231.43-40.14-30.2-75.602-58.97 10.231zM1474.04 151.27l-40.15 316.761 96.19 12.188 83.75-89.93 57.8 107.871 96.19 12.18 40.15-316.738-96.19-12.204-23.75 187.344-58.02-106.101-83.52 88.148 23.75-187.328zM1792.58 524.109l88.33 43.25 82.54-168.617c8.71-17.793 16.67-29.07 23.86-33.773 7.19-4.719 16.7-4.18 28.51 1.601 11.82 5.801 18.07 12.95 18.76 21.539.7 8.571-3.33 21.762-12.04 39.563L1940 596.281l88.34 43.231 85.3-174.231c20.54-41.992 26.33-76.98 17.3-104.961-9.01-27.961-34.49-52.218-76.44-72.75-41.96-20.539-76.74-25.8-104.36-15.738-27.64 10.027-51.72 36.039-72.26 78.047zM2259.73 849.422l219.06-232.301-70.54-66.519L2252 589.09l92.75-98.36-70.54-66.531-219.05 232.313 70.55 66.519 159.88-42.351-96.41 102.211zM2553.36 874.801c12.36 22.519 15.22 42.828 8.6 60.949s-20.45 32.949-41.51 44.5c-21.55 11.809-41.74 15.641-60.58 11.48-18.85-4.148-34.44-17.48-46.78-40l-15.78-28.75 140.27-76.929zm-273.18.25 65.21 118.918c12.09 22.021 26.26 40.791 42.52 56.311 16.27 15.51 34.04 26.83 53.29 33.97 19.25 7.13 39.72 9.73 61.41 7.77q32.535-2.925 67.14-21.9c23.08-12.65 41.2-27.57 54.38-44.74 13.16-17.16 21.85-35.759 26.07-55.739 4.2-20.012 4.14-41.032-.2-63.082-4.35-22.079-12.57-44.11-24.63-66.118L2560.14 721.5z" style="fill:#e4cf14;fill-opacity:1;fill-rule:evenodd;stroke:none" transform="matrix(.13333 0 0 -.13333 0 393.627)"></path><path d="M985.426 1501.6v-160.68h80.644c31.39 0 51.3 1.21 59.74 3.68 12.94 3.28 23.48 11.27 31.62 23.99 8.14 12.69 12.23 29.7 12.23 51.03 0 18.03-3.14 33.32-9.42 45.9-6.27 12.58-15.36 21.73-27.22 27.47-11.89 5.73-37.64 8.61-77.25 8.61zm0 245.18V1605.5h57.314c34.07 0 55.26.69 63.52 2.07 14.96 2.52 26.74 9.8 35.31 21.89 8.57 12.07 12.85 27.98 12.85 47.72 0 18.9-3.7 34.24-11.08 46.06-7.4 11.79-18.37 18.96-32.94 21.47-8.68 1.39-33.59 2.07-74.74 2.07zm-87.266 103.9h172.74c34.2 0 59.69-2.06 76.49-6.13 16.79-4.07 31.84-12.58 45.1-25.5 13.25-12.92 24.31-30.12 33.16-51.59 8.83-21.5 13.27-45.59 13.27-72.25 0-28.96-5.47-55.5-16.43-79.65-10.95-24.16-25.8-42.27-44.54-54.35 26.27-10.82 46.47-29.28 60.58-55.36 14.11-26.09 21.17-56.74 21.17-91.95 0-27.75-4.57-54.73-13.7-80.94-9.13-26.24-21.58-47.19-37.38-62.86s-35.28-25.32-58.44-28.92c-14.55-2.22-49.56-3.61-105.1-4.16H898.16zM1783.31 1501.6v-160.68h80.64c31.39 0 51.3 1.21 59.75 3.68 12.94 3.28 23.47 11.27 31.62 23.99 8.13 12.69 12.22 29.7 12.22 51.03 0 18.03-3.14 33.32-9.41 45.9-6.28 12.58-15.37 21.73-27.23 27.47-11.88 5.73-37.63 8.61-77.24 8.61zm0 245.18V1605.5h57.32c34.06 0 55.25.69 63.51 2.07 14.97 2.52 26.74 9.8 35.31 21.89 8.56 12.07 12.86 27.98 12.86 47.72 0 18.9-3.71 34.24-11.09 46.06-7.4 11.79-18.37 18.96-32.93 21.47-8.69 1.39-33.6 2.07-74.75 2.07zm-87.27 103.9h172.73c34.2 0 59.71-2.06 76.51-6.13 16.78-4.07 31.83-12.58 45.1-25.5 13.24-12.92 24.3-30.12 33.16-51.59 8.83-21.5 13.26-45.59 13.26-72.25 0-28.96-5.47-55.5-16.42-79.65-10.96-24.16-25.81-42.27-44.56-54.35 26.29-10.82 46.48-29.28 60.59-55.36 14.12-26.09 21.17-56.74 21.17-91.95 0-27.75-4.57-54.73-13.7-80.94-9.13-26.24-21.58-47.19-37.37-62.86-15.8-15.67-35.29-25.32-58.45-28.92-14.54-2.22-49.56-3.61-105.11-4.16h-146.91zM1419.89 1326.91l-180.97 763.25h111.58l128.76-565.17 125.86 565.17h108.93l-182.72-763.25zM1319.96 1099.32c-6.22 0-11.76-1.4-16.63-4.17-4.87-2.79-8.64-7.78-11.33-14.95-3.52-9.33-5.29-25.02-5.29-47.09 0-22.08 1.58-37.239 4.75-45.481 3.16-8.258 7.15-13.758 11.96-16.508 4.8-2.73 10.32-4.09 16.54-4.09 6.21 0 11.75 1.379 16.62 4.168 4.87 2.781 8.64 7.77 11.33 14.949 3.52 9.231 5.29 24.882 5.29 46.962 0 22.07-1.59 37.23-4.75 45.49-3.17 8.25-7.17 13.76-11.97 16.55-4.81 2.77-10.31 4.17-16.52 4.17m0 29.77c26.23 0 46.75-6.48 61.53-19.47 17.62-15.39 26.43-40.88 26.43-76.51 0-35.54-8.88-61.09-26.62-76.641-14.66-12.821-35.11-19.219-61.34-19.219-26.37 0-47.62 7.02-63.76 21.082-16.14 14.039-24.2 39.098-24.2 75.168 0 35.36 8.86 60.82 26.6 76.37 14.66 12.82 35.11 19.22 61.36 19.22M1665.7 1062.86c0 11.56-3.88 20.51-11.6 26.9-7.75 6.36-16.68 9.56-26.83 9.56-9.66 0-17.67-2.62-24.04-7.84-6.39-5.24-9.56-13.79-9.56-25.68 0-12.08 3.46-20.93 10.38-26.57 6.93-5.65 15.6-8.48 25.99-8.48 10.02 0 18.48 2.72 25.35 8.15 6.86 5.43 10.31 13.44 10.31 23.96m-117.05-78.868 49.87 3.817c1.23-7.059 4.41-12.289 9.59-15.688 5.17-3.402 11.99-5.09 20.49-5.09 10.7 0 19.8 3.438 27.31 10.34 7.51 6.91 12.31 21.16 14.41 42.789-13.05-10.49-29.36-15.73-48.93-15.73-21.3 0-39.67 5.68-55.12 17.04-15.45 11.35-23.16 26.13-23.16 44.34 0 18.97 8.15 34.26 24.46 45.86 16.31 11.62 37.08 17.42 62.32 17.42 27.44 0 49.98-7.36 67.58-22.09 17.59-14.72 26.4-38.94 26.4-72.67 0-34.32-9.15-59.1-27.45-74.291-18.31-15.187-42.14-22.789-71.49-22.789-21.14 0-38.21 3.898-51.23 11.711q-19.53 11.715-25.05 35.031" style="fill:#100f0d;fill-opacity:1;fill-rule:nonzero;stroke:none" transform="matrix(.13333 0 0 -.13333 0 393.627)" data-source="https://football-logos.cc"></path><!-- source: https://football-logos.cc --></svg>