<svg xmlns="http://www.w3.org/2000/svg" xml:space="preserve" style="clip-rule:evenodd;fill-rule:evenodd;image-rendering:optimizeQuality;shape-rendering:geometricPrecision;text-rendering:geometricPrecision" viewBox="0 0 3362.74 5689.14"><!-- Source: https://football-logos.cc --><path d="M0 0h1604.77c318.52 0 554.85 18.54 710.85 55.62 156.92 38.41 296.1 116.53 419.41 234.4 123.3 119.19 226.05 276.78 308.25 474.1s123.3 419.8 123.3 664.79c0 264.86-50.45 509.85-151.33 731.01-100.88 222.48-238.19 388.01-411 499.25 243.79 101.97 430.62 274.13 562.33 517.8 130.77 243.67 196.16 529.72 196.16 859.46 0 259.56-42.04 511.18-127.04 756.16-85.01 245-200.83 440.99-348.42 587.99-146.64 145.67-327.86 235.72-543.63 270.15-134.51 19.87-460.52 33.11-977.07 38.41H.01V.02Zm812.65 945.54v1311.04h530.57c314.79 0 510.95-6.62 587.54-19.87 138.25-22.51 247.54-90.05 326.94-202.61 79.39-112.57 118.63-259.56 118.63-442.31 0-176.13-34.56-317.83-102.75-427.74-68.19-109.92-170.01-176.13-304.51-198.64-80.33-13.24-311.05-19.87-691.24-19.87zm0 2256.58V4727.7h751.02c291.43 0 477.32-11.92 555.78-34.44 120.5-31.78 218.59-107.27 294.24-227.77 75.67-121.84 113.96-282.08 113.96-484.69 0-172.16-28.96-316.5-87.8-435.69-57.92-119.19-142.92-206.59-253.14-260.88-110.23-54.29-350.29-82.11-719.26-82.11z" style="fill:#000;clip-rule:evenodd;fill-rule:evenodd;image-rendering:optimizeQuality;shape-rendering:geometricPrecision;text-rendering:geometricPrecision" data-source="https://football-logos.cc"></path><!-- source: https://football-logos.cc --></svg>