<svg xmlns="http://www.w3.org/2000/svg" xmlns:xlink="http://www.w3.org/1999/xlink" xml:space="preserve" id="Layer_1" x="0" y="0" version="1.1" viewBox="-229.3 -284.1 715.8 872.1"><!-- Source: https://football-logos.cc --><style id="style1" type="text/css" data-source="https://football-logos.cc">.st0{fill:none}.st1{fill:#fff}.st3{fill:#231f20}.st6{fill:#161413}.st10{fill:#ffc905;stroke:#ffc905;stroke-width:.7965;stroke-linejoin:round}</style><path id="rect1" d="M-229.3-285h715.8v873h-715.8z" class="st0"></path><path id="path1" d="M-229.3 230.1c0-197.3 160.6-357.8 357.9-357.8S486.5 32.8 486.5 230.1 325.9 588 128.6 588c-197.4 0-357.9-160.5-357.9-357.9" class="st1"></path><path id="rect2" d="M-144.2-42.7h546.1v546.2h-546.1z" class="st0" data-source="https://football-logos.cc"></path><g id="Group55" transform="translate(.05)"><path id="path2" d="M401.8 230.3c0 150.9-122.2 273.2-273 273.2s-273-122.2-273-273.2c0-150.8 122.2-273 273-273s273 122.2 273 273" class="st1"></path><g id="Group54"><defs id="defs2"><path id="SVGID_1_" d="M-101.7-21.1h457.9v504.4h-457.9z"></path></defs><clipPath id="SVGID_2_"><use xlink:href="#SVGID_1_" id="use2" style="overflow:visible"></use></clipPath><g id="Group53" style="clip-path:url(#SVGID_2_)"><path id="path3" d="M-29.8 66.4c6.9 6.3 8.6 13.8 1.6 21.5l-3.7 4L-55 70.7l3.7-4c7-7.7 14.6-6.6 21.5-.3m4.6-5c-11.5-10.5-22.8-7.8-30.9 1l-8.2 8.9 32.6 29.9 8.2-8.9c7.8-8.6 9.8-20.3-1.7-30.9" class="st3"></path><path id="path4" d="M-1.2 70-27 34.2l23.1-16.7 3.8 5.2-17.7 12.8 6.4 8.9L-1.1 37l3.7 5.2-10.3 7.4L.5 60.9 19 47.6l3.8 5.2z" class="st3"></path><path id="path5" d="M46.7 41.7c-10 4.4-18.1.2-23-10.9L13.3 7.4l6.1-2.7L29.7 28c3.4 7.6 8.4 10.3 14.4 7.7 6.4-2.8 7.6-8.1 4.4-15.5L38-3.5l6-2.7 10.4 23.6c5.1 11.3 2.3 19.9-7.7 24.3" class="st3"></path><path id="path6" d="m81.9-9.4 7.7 36.9-6.5 1.4L75.4-8 62.8-5.4l-1.3-6.4 31.7-6.6 1.3 6.4z" class="st3"></path><path id="path7" d="M123.7 24.6c-6.4.1-12.1-2.6-15.8-6.9l4.6-4.7c3 3.2 7.4 5.1 11.6 5 6.2-.1 9.1-2.3 9-6.6-.1-3.4-2.7-5.1-10.1-7.1-9.4-2.6-13.9-4.9-14.1-12.8-.1-7.6 6.2-12.4 14.4-12.6 6-.1 10.6 2 14.6 5.7l-4.6 4.8c-2.9-2.8-6-4.1-10.4-4.1-5.2.1-7.3 2.7-7.3 5.6.1 3.1 2.1 4.6 9.8 6.7 8.8 2.5 14.2 5.2 14.4 13.1.1 8.2-4.8 13.7-16.1 13.9" class="st3"></path><path id="path8" d="M166.7 28.2c-11.2-2.1-16.7-12.6-14.2-25.8 2.4-13.2 11.3-21.1 22.5-19 7.1 1.3 11.3 5 13.3 10.8l-6.4 2.5c-1.6-4-3.6-6-8.1-6.9-7.6-1.4-12.8 4-14.6 13.7-1.8 9.8 1.2 16.7 8.7 18.1 4.6.8 7.7-.5 10.6-3.6l4.7 4.6c-4.1 4.8-9.9 6.8-16.5 5.6" class="st3"></path><path id="path9" d="m216.4 43.7 7.7-18.2-18.7-7.9-7.7 18.2-6.1-2.6 17.2-40.7 6.1 2.6-7 16.5 18.7 7.9 7-16.5 6.1 2.6-17.2 40.7z" class="st3"></path><path id="path10" d="m233 52.5 25.4-36.2 23.3 16.3-3.7 5.3-17.9-12.5-6.3 8.9 10.4 7.3-3.7 5.3-10.4-7.3-8 11.4 18.7 13.1-3.7 5.3z" class="st3"></path><path id="path11" d="M305.7 74.6c-3.5 3.3-7.3 2.6-10.3-.6l-8.8-9.4 10.4-9.7 8.8 9.4c3.1 3.2 3.3 7.1-.1 10.3m4.7 4.7c6.6-6.2 5.2-13.8-.1-19.4L297 45.8 264.8 76l4.4 4.7 12.8-12 6.8 7.3-6.8 18.4 5.2 5.6 7-18.9c5.3 3.3 11.1 3.1 16.2-1.8" class="st3"></path><path id="path12" d="m-65.1 323.2-10.3 5.2 5.8 11.3-5.8 3-5.8-11.3-17.5 9-3-5.9 39.4-20.1 13 25.4-5.8 3z" class="st3"></path><path id="path13" d="M-70.8 386.4c-6.7-8.6-4.7-17.4 4.9-25l20.2-15.8 4.1 5.2-20.1 15.7c-6.6 5.1-8 10.6-3.9 15.8 4.3 5.5 9.7 5.4 16.1.4l20.4-15.9 4.1 5.2-20.3 16c-9.7 7.7-18.7 7.1-25.5-1.6" class="st3"></path><path id="path14" d="M-37.1 422c-4.9-4.2-7.3-9.9-7.3-15.7l6.6-.4c.1 4.4 2.1 8.8 5.3 11.5 4.7 4 8.3 4.3 11.2 1.1 2.2-2.6 1.4-5.6-2.8-12.1-5.3-8.2-7.1-12.9-2-18.9 5-5.8 12.9-5.1 19.1.2 4.5 3.9 6.5 8.6 7 14l-6.7.5c-.2-4-1.7-7.1-5-9.9-3.9-3.4-7.3-2.9-9.2-.7-2 2.4-1.5 4.8 2.8 11.5 4.9 7.7 7.2 13.4 2 19.3-5 6.1-12.4 7-21-.4" class="st3"></path><path id="path15" d="M.1 448.7c-5.6-3.3-9-8.5-10-14.1l6.4-1.6c.9 4.3 3.7 8.2 7.3 10.4 5.3 3.1 9 2.8 11.2-.9 1.7-2.9.3-5.7-4.9-11.4-6.7-7.1-9.4-11.4-5.4-18.2 3.9-6.6 11.8-7.4 18.8-3.2 5.2 3 8 7.2 9.4 12.5l-6.4 1.7c-.9-3.9-3-6.7-6.7-8.9-4.5-2.6-7.6-1.6-9.2 1-1.6 2.7-.6 5 4.9 10.8 6.2 6.7 9.4 11.9 5.5 18.7-4.1 6.8-11.2 8.9-20.9 3.2" class="st3"></path><path id="path16" d="M64 441.2c-1 2.7-3.5 4.7-7.6 3.3l-11.2-3.9 3.8-10.8 11.2 3.9c4.1 1.5 4.9 4.4 3.8 7.5m1.7 20.5c2-5.8-.7-10.1-3.6-12.2 3.6-.4 6.8-2.3 8.2-6.5 2.5-7-.9-12.5-8.2-15L45 422l-14.6 41.7 16.6 5.8c9.1 3.2 15.8.7 18.7-7.8m-6.3-2c-1.4 4.1-4.4 6.2-10 4.3l-11.2-3.9 4.9-13.8 11.3 4c4.8 1.6 6.5 5.1 5 9.4" class="st3"></path><path id="path17" d="M102.5 465.2 89 463.4l4.9-9.5c1.6-3.1 3.8-7.9 4.6-9.7.2 1.9 1.3 7.3 1.9 10.5zm10.5 18.1-9.9-46-6.9-1-21.8 41.6 6.8.9 5.1-9.9 17.5 2.4 2.3 10.9z" class="st3"></path><path id="path18" d="m129 483.3-2.4-44.2 6.6-.3 2 37.6 22-1.2.4 6.5z" class="st3"></path><path id="path19" d="m173.4 479.3-10.1-43 6.5-1.5 8.6 36.7 21.5-5 1.5 6.3z" class="st3"></path><path id="path20" d="m195 453.4-2.1-6.1 15-5.1 2.1 6.1z" class="st3"></path><path id="path21" d="M237.4 421.7c1.3 2.6 1 5.8-2.8 7.8l-10.5 5.5-5.3-10.1 10.5-5.5c3.9-2 6.6-.6 8.1 2.3m16.2 12.8c-2.8-5.5-7.8-6.4-11.4-5.7 2.1-2.9 3-6.5.9-10.4-3.5-6.6-9.8-7.9-16.6-4.3l-16.1 8.4 20.5 39.2 15.6-8.2c8.5-4.5 11.3-11.1 7.1-19m-5.8 3.2c2 3.9 1.5 7.5-3.7 10.2l-10.5 5.5-6.8-13 10.6-5.6c4.5-2.3 8.3-1.1 10.4 2.9" class="st3"></path><path id="path22" d="M287.8 426.9c-8.5 6.9-17.4 5-25.1-4.4l-16.2-19.8 5.1-4.2 16.1 19.7c5.3 6.5 10.8 7.7 15.9 3.5 5.4-4.4 5.2-9.8.1-16.1l-16.4-20 5.1-4.2 16.3 20c7.9 9.5 7.6 18.5-.9 25.5" class="st3"></path><path id="path23" d="m331 380.7-32.7-3.6c-2-.2-5-.7-6.3-.9 1.3 1 6.1 4.8 8 6.4l17.9 14.4-4 5-34.5-27.7 4.2-5.3 31.5 3.8c2.1.2 5.9.8 7.2 1-1.3-1-6.2-4.9-8.2-6.5L296.3 353l4-5 34.4 27.7z" class="st3"></path><path id="path24" d="M337.9 325.5c8.3 4.2 12 10.9 7.3 20.3l-2.5 4.8-27.9-14.2 2.5-4.9c4.7-9.3 12.4-10.2 20.6-6m3.1-6c-13.9-7.1-24.1-1.4-29.5 9.1l-5.5 10.8 39.4 20.1 5.5-10.8c5.3-10.3 4-22.2-9.9-29.2" class="st3"></path></g><path id="path25" d="M-64.6 230.3c0 106.7 86.8 193.6 193.4 193.6 106.7 0 193.4-86.8 193.4-193.6 0-106.6-86.8-193.4-193.4-193.4-106.7 0-193.4 86.8-193.4 193.4m11 0C-53.6 129.8 28.2 48 128.8 48c100.5 0 182.4 81.8 182.4 182.3 0 100.6-81.8 182.5-182.4 182.5-100.6-.1-182.4-81.9-182.4-182.5" style="clip-path:url(#SVGID_2_);fill:#999"></path></g><path id="path26" d="M128.6-114.7c-190.4 0-344.8 154.4-344.8 344.7 0 78.7 26.4 151.1 70.7 209.1l29-14.9c-42.4-53.3-67.7-120.8-67.7-194.2 0-172.7 140-312.8 312.8-312.8S441.4 57.2 441.4 230c0 73.4-25.3 140.9-67.7 194.2l29 14.8c44.3-58 70.6-130.4 70.6-209 .1-190.3-154.2-344.7-344.7-344.7" style="fill:#666"></path><path id="path27" d="m-97.4 446.1-28.5 16.4c36.2 39.6 81.6 70.7 132.7 90l14.4-28.7c-45.4-16.5-85.8-43.4-118.6-77.7" class="st6"></path><path id="path28" d="m383.1 462.7-28.4-16.5c-32.9 34.4-73.6 61.3-119.2 77.9l14.8 28.5c51.2-19.3 96.5-50.3 132.8-89.9" style="fill:#ffc905"></path><path id="path29" d="M128.6 542.8c-28.9 0-56.9-4-83.5-11.4l-11.3 30c30.1 8.6 61.9 13.3 94.8 13.3 32.7 0 64.4-4.7 94.4-13.2l-11.4-30c-26.4 7.4-54.2 11.3-83 11.3" style="fill:#d71822"></path><path id="path30" d="M-138.2 230.1C-138.2 83-18.5-36.6 128.6-36.6S395.4 83.1 395.4 230.1c0 147.1-119.7 266.7-266.8 266.7-147.1.1-266.8-119.6-266.8-266.7m-12.9 0c0 154.2 125.4 279.6 279.6 279.6s279.6-125.4 279.6-279.6C408.2 76 282.8-49.4 128.6-49.4S-151.1 76-151.1 230.1" style="fill:#999"></path><path id="path31" d="M283.1 247.7s-29.4-97.5-34.2-113.2c-4.1-13.4-14.6-12.5-14.6-12.5s-3.5.2-31.2-.2c-26.7-.3-29.3 6.4-10.3 31.5 6 8 3.7 9.1-11.8 11.8s-22.8-12.4-23.7-19.1-4.3-30.3-4.7-31.4c-1-2.8 6.2-4.9 9.8-2.7 6.5 4.1 5.6 5.5 5.6-6.8s-16.2-11.3-16.2-11.3c-1.1-13-20.5-10.8-26.7-10.4s-12.5 4.9-29 4.9c-16.6 0-13.7 21.3-13.7 21.3s7.7-2.3 13.6-2.1c5.8.2 20.8-.2 16.3 9.1 0 0-12-4.3-17.7-4.3s-19.3-.1-22.7-5.1c-3.4-4.9-4.7-6.5-4.7-6.5s-3.8 15.5 5 17.1 17.8 0 22.1-.3c4.2-.3 12.6-.3 14.9 0s-.2 2.7-4.5 3c-4.4.3-14.4-.4-11.7 4.1s7.4 7.1 10.2 7.6c2.8.6 10.6-.7 7.2 7.6l-1.9 5.6c-2.2 6.4-9 21.4-24.5 18.6-15.5-2.7-17.8-3.8-11.8-11.7 19-25.1 16.5-31.8-10.3-31.5-27.7.3-31.1.1-31.1.1s-10.5-.9-14.6 12.5C11.4 149-25.5 248.1-25.5 248.1s-1.6 9.6 6.4 12.3c10.6 3.5 14-6.7 14-6.7l26.8-70.9c2 1.2 4 2.5 5.9 3.6l-33.4 92.7s-3.4 10.2 7.4 14c9.6 3.3 14-8.7 14-8.7l32.2-87.7c1.7.7 3.4 1.5 5.1 2.1L19 295.6s-3.1 10.4 6.9 13.8 14-8.5 14-8.5l33.6-95.2c2 .5 4 1 5.9 1.5v.2l-17.1 57.1s-2.8 9.8 6.8 13.6S84 269 84 269l15.7-50.4s6.4 26.2-4.9 44.6c-11.3 18.3-22.4 30.5-37 37.3 0 0 .4 2.1 5.7 2.4 5.3.4 5.7 1.7 6.4 2.7l-7.5 11.5s-1.1 4.2-6.2 1.9-11.5-5.7-11.5-5.7-6.6-1.7-8.1 1.5l-1.5 3.2s-7.5.7-8.5 5.1c-.9 4.3.4 4.9.4 4.9s3.4-2.4 4.9-1.5c2 1.2.4 4.8 2.7 5.7 4.2 1.5 7.3-.8 9.6-2.9 1.5-1.4 5.1.2 5.3 1.3s-1.5 4.1-5.8 4.7-13.8 2.2-13.2 7.2c.5 4.2.6 4.5.6 4.5-.1.1-3.5 7.6 3.6 10.4 0 0 1.1-4.5 2.6-4.5s2.8 2.6 5.5 2.6c2.6 0 5.1-2.3 6.6-6.8s4.1-10.6 4.1-10.6 1.9-2.3 3-1.9 1.7 2.5 1.3 3.8-1.1 4.3-1.3 5.1c-.2.7-6.6 8.7-1.5 12.5 5.1 3.7 4.5 5.3 5.8 6.2 1.3 1 6.6 2.8 8.5 1.7 0 0-2.3-4.2-2.8-4.9-.6-.8-.4-2.2 3.2-2.2s3.6-4.5 1.3-7.9-3.1-6.7-3.8-8.9c-1.5-4.5 2.5-6.1 4.4-1.5 1.7 4.4 1 8.7 4.9 8 2.9-.4 3.6-2.4 4.9-2.2s5.1 2.8 3.1 7.6c0 0 8.8-1.4 5.8-9.5-2-5.4-4.4-2.7-2.8-7.9 1.2-4.1-2.5-7.2-6.8-7-4.1.2-9.4-.9-6.8-5.8 2.4-5 6.1-11.3 6.1-11.3l6.2 7.2s5.9-14.7 11.1-21.3c5.3-6.6 11.7-14.7 14.7-13s4 23 1.5 33.8-11.3 34.4-13.4 37.6 11.7-2.1 13.4-2.7 5.1-4.7 5.8 1.7c.8 6.4 3.3 18.6 9.1 24.9l.1-.2c5.9-6.2 8.7-18.9 9.4-25.3s4.1-2.2 5.9-1.7c1.7.6 15.5 5.8 13.4 2.6s-10.9-26.8-13.4-37.5c-2.5-10.8-1.5-32.1 1.5-33.8s9.4 6.4 14.7 13 11.1 21.3 11.1 21.3l6.2-7.2s3.7 6.3 6.4 11.5c2.6 4.9-2.7 6-6.8 5.8-4.4-.2-8 2.9-6.8 7 1.6 5.2-.9 2.6-2.8 7.9-3 8.1 5.8 9.5 5.8 9.5-2-4.9 1.7-7.5 3.1-7.6 1.3-.2 2 1.7 4.9 2.2 3.9.6 3.2-3.7 4.9-8 1.8-4.5 5.8-3 4.3 1.5-.7 2.2-1.5 5.5-3.8 8.9s-2.3 7.9 1.3 7.9 3.8 1.5 3.2 2.3-2.8 4.9-2.8 4.9c1.9 1.1 7.2-.8 8.5-1.7s.7-2.4 5.8-6.2-1.3-11.7-1.5-12.5-1-3.8-1.3-5.1c-.4-1.3.2-3.4 1.3-3.8s3 1.9 3 1.9 2.6 6.1 4.2 10.6c1.5 4.5 4 6.8 6.6 6.8 2.7 0 4-2.7 5.5-2.7s2.6 4.5 2.6 4.5c7.1-2.8 3.6-10.3 3.6-10.4 0 0 .1-.4.6-4.5.5-4.9-8.9-6.6-13.2-7.2s-6-3.6-5.9-4.7c.2-1.2 3.8-2.7 5.3-1.3 2.3 2 5.3 4.4 9.5 2.9 2.4-.8.7-4.5 2.7-5.7 1.5-.9 4.9 1.5 4.9 1.5s1.3-.6.4-4.9-8.5-5.1-8.5-5.1l-1.5-3.2c-1.5-3.2-8.1-1.5-8.1-1.5s-6.4 3.4-11.5 5.7-6.2-1.9-6.2-1.9l-6-13c.7-.9 1.1-2.3 6.4-2.6 5.3-.4 5.7-2.5 5.7-2.5-14.5-6.8-21.9-16.8-33.2-35.1S163 219 163 219l15.7 50.4s5.3 12.8 14.9 9 6.8-13.6 6.8-13.6l-17.5-58.5v-.1c1.9-.5 3.9-1 5.8-1.6l28.8 96s4 11.9 14.1 8.5c10-3.4 6.9-13.8 6.9-13.8L209.4 197c1.7-.7 3.3-1.5 5-2.3v.1l27.7 89.1s4.3 12 14 8.7c10.8-3.7 7.4-14 7.4-14l-29.2-94.7c1.9-1.2 3.7-2.4 5.6-3.6.6.6.7 1.2.7 1.2l22.1 71.8s3.4 10.2 14 6.7c8.1-2.7 6.4-12.3 6.4-12.3m-294.8 1.6s-1.8 5.7-5.1 4.2c-3.3-1.6-.8-6.3-.8-6.3s25.5-65.5 28-71.9l5.4 3.9zm20.4 31.1s-1.6 5.8-4.9 4.3-1-6.3-1-6.3 27.4-75.8 31.8-87.9c2 1 3.9 2 5.8 3zM32.9 298s-1.6 5.8-4.9 4.3c-3.3-1.4-1.1-6.3-1.1-6.3s27.9-79.9 33-94.4c2.1.7 4.1 1.4 6.2 2.1zm43.3-31.2s-1.3 5.8-4.7 4.5-1.3-6.2-1.3-6.2S83.5 220.6 87 209c2.2.4 4.4.8 6.5 1.1zm48.2-166.2c-2.7-.1-5.1-2.8-5.1-2.8s1.4-2.7 5-2.6c3.5.2 5.1 2.6 5.1 2.6s-2.3 3-5 2.8m68.1 164.6s2.1 4.9-1.3 6.2-4.7-4.5-4.7-4.5L169 211s-.4-.7.2-1.8c1.8-.3 3.7-.7 5.7-1.1 1.1 3.5 17.6 57.1 17.6 57.1m38.7 30.6s2.1 4.9-1.3 6.2-4.7-4.5-4.7-4.5l-29.4-95.1c2-.7 4.1-1.4 6.1-2.2 3.2 10.1 29.3 95.6 29.3 95.6m24.3-17s2.1 4.9-1.3 6.2-4.7-4.5-4.7-4.5L221.8 191c1.9-1 3.9-2.1 5.8-3.2 1.9 6.1 27.9 91 27.9 91m18.5-25.9c-3.4 1.3-4.7-4.5-4.7-4.5l-22.4-73.1c1.8-1.3 3.7-2.7 5.5-4.2v.1c.6 1.8 22.9 75.5 22.9 75.5s2.1 4.9-1.3 6.2" class="st6"></path></g><g id="_761874112" transform="translate(-11.4)" data-source="https://football-logos.cc"><path id="_polygon329" d="m367.1-151-43-31.4-43 31.3 16.4-50.6-43-31.4h53.4l16.4-50.6 16.2 50.6 53.4.3-43.3 31.1z" class="st10"></path><path id="_polygon333" d="m134.8-182.4-43 31.3 16.6-50.6-43.3-31.1 53.4-.2 16.3-50.6 16.3 50.6 53.4.1-43 31.3 16.6 50.6z" class="st10"></path><path id="_polygon3156" d="m-87.6-151.4 16.8-50.4-43.1-31.7 53.4.3 16.8-50.4 15.9 50.8 53.3.1-43.2 31.1 16.2 50.7-42.7-31.6z" class="st10"></path></g><!-- source: https://football-logos.cc --></svg>