<svg xmlns="http://www.w3.org/2000/svg" viewBox="0 0 216.88 216.88"><!-- Source: https://football-logos.cc --><circle cx="108.439" cy="108.439" r="106.724" fill="#f8e944" stroke="#000" stroke-width="3.43" data-source="https://football-logos.cc"></circle><circle cx="108.439" cy="108.439" r="86.446" fill="none" stroke="#000" stroke-width="3.43"></circle><circle cx="108.439" cy="108.439" r="96.532" fill="none" stroke="#000" stroke-width="10.977" data-source="https://football-logos.cc"></circle><path d="M52.866 110.261h14.679c4.213 0 8.377 2.466 8.377 8.938 0 7.499-3.238 10.786-8.868 10.786H52.866zm-11.128 32.48h23.465c11.336 0 14.346-2.571 17.511-6.686 2.933-3.807 4.785-9.357 4.785-15.213 0-7.293-1.775-14.486-8.566-17.877 2.252-1.542 6.734-4.522 6.734-15.139 0-7.626-3.478-18.942-17.046-18.942H41.738zM52.866 81.64h13.263c5.182 0 8.41 1.856 8.41 7.938 0 5.877-3.612 8.248-8.147 8.248H52.866zm97.19 28.621h14.679c4.213 0 8.377 2.466 8.377 8.938 0 7.499-3.239 10.786-8.868 10.786h-14.188zm-11.128 32.48h23.465c11.336 0 14.346-2.571 17.511-6.686 2.933-3.807 4.785-9.357 4.785-15.213 0-7.293-1.775-14.486-8.566-17.877 2.252-1.542 6.734-4.522 6.734-15.139 0-7.626-3.478-18.942-17.046-18.942h-26.883zm11.128-61.101h13.263c5.182 0 8.41 1.856 8.41 7.938 0 5.877-3.612 8.248-8.146 8.248h-13.526zM122.44 36.297h12.04l-18.832 73.857h-11.037L85.935 36.297H98.36l11.885 55.959h.155zM91.658 162.793c0-7.517.909-10.351 4.212-10.351s4.212 2.834 4.212 10.351c0 7.516-.909 10.391-4.212 10.391s-4.212-2.875-4.212-10.391m-5.939 0c0 10.227 3.258 15 10.151 15 6.894 0 10.152-4.773 10.152-15s-3.258-14.96-10.152-14.96-10.151 4.733-10.151 14.96m33.188-5.304c0-4.199 2.667-4.939 4.143-4.939 2.953 0 4.389 2.058 4.389 5.392 0 3.458-2.215 4.898-4.225 4.898-2.173 0-4.307-.946-4.307-5.351m-5.2 12.787c.495 4.637 4.086 7.518 9.056 7.518 5.254 0 10.616-3.663 10.616-14.954 0-4.116-.165-15.007-10.287-15.007-5.711 0-9.962 3.322-9.962 10.479 0 4.898 3.261 9.137 8.854 9.137 1.969 0 4.225-.494 5.539-2.469l.083.083c-.042 6.114-2.421 8.122-4.8 8.122-1.764 0-3.036-.86-3.364-2.868v-.041z" data-source="https://football-logos.cc"></path><!-- source: https://football-logos.cc --></svg>