<svg xmlns="http://www.w3.org/2000/svg" viewBox="0.47 0 1111.06 1333.33"><!-- Source: https://football-logos.cc --><defs data-source="https://football-logos.cc"><clipPath id="a" clipPathUnits="userSpaceOnUse"><path d="M-417.004 32.557h834.007v-1000h-834.007Z"></path></clipPath><clipPath id="b" clipPathUnits="userSpaceOnUse"><path d="M-833.652 0H.355v-1000h-834.007Z"></path></clipPath><clipPath id="c" clipPathUnits="userSpaceOnUse"><path d="M-50.739 90.007h834.007v-1000H-50.739Z"></path></clipPath><clipPath id="d" clipPathUnits="userSpaceOnUse"><path d="M-95.402 63.273h834.007v-1000H-95.402Z"></path></clipPath><clipPath id="e" clipPathUnits="userSpaceOnUse"><path d="M-137.967 63.273H696.04v-1000h-834.007Z"></path></clipPath><clipPath id="f" clipPathUnits="userSpaceOnUse"><path d="M-177.397 63.273H656.61v-1000h-834.007Z"></path></clipPath><clipPath id="g" clipPathUnits="userSpaceOnUse"><path d="M-246.562 86.873h834.007v-1000h-834.007Z"></path></clipPath><clipPath id="h" clipPathUnits="userSpaceOnUse"><path d="M-292.206 86.873H541.8v-1000h-834.007Z"></path></clipPath><clipPath id="i" clipPathUnits="userSpaceOnUse"><path d="M0 1000h834.007V0H0Z"></path></clipPath><clipPath id="j" clipPathUnits="userSpaceOnUse"><path d="M-354.063 52.7h834.007v-1000h-834.007Z"></path></clipPath><clipPath id="k" clipPathUnits="userSpaceOnUse"><path d="M-384.01 63.273h834.006v-1000H-384.01Z"></path></clipPath><clipPath id="l" clipPathUnits="userSpaceOnUse"><path d="M-453.58 63.273h834.007v-1000H-453.58Z"></path></clipPath><clipPath id="m" clipPathUnits="userSpaceOnUse"><path d="M-523.678 87.99h834.007v-1000h-834.007Z"></path></clipPath><clipPath id="n" clipPathUnits="userSpaceOnUse"><path d="M-572.91 86.873h834.006v-1000H-572.91Z"></path></clipPath><clipPath id="o" clipPathUnits="userSpaceOnUse"><path d="M0 1000h834.007V0H0Z"></path></clipPath><clipPath id="p" clipPathUnits="userSpaceOnUse"><path d="M-626.701 83.33h834.007v-1000h-834.007Z"></path></clipPath><clipPath id="q" clipPathUnits="userSpaceOnUse"><path d="M-664.715 63.273h834.007v-1000h-834.007Z"></path></clipPath><clipPath id="r" clipPathUnits="userSpaceOnUse"><path d="M-734.814 87.99H99.193v-1000h-834.007Z"></path></clipPath><clipPath id="s" clipPathUnits="userSpaceOnUse"><path d="M-758.457 63.273H75.55v-1000h-834.007Z"></path></clipPath><clipPath id="t" clipPathUnits="userSpaceOnUse"><path d="M-96.141 163.255h834.007v-1000H-96.141Z"></path></clipPath><clipPath id="u" clipPathUnits="userSpaceOnUse"><path d="M-196.037 113.355H637.97v-1000h-834.007Z"></path></clipPath><clipPath id="v" clipPathUnits="userSpaceOnUse"><path d="M-272.785 161.76h834.007v-1000h-834.007Z"></path></clipPath><clipPath id="w" clipPathUnits="userSpaceOnUse"><path d="M-298.96 113.355h834.007v-1000H-298.96Z"></path></clipPath><clipPath id="x" clipPathUnits="userSpaceOnUse"><path d="M-380.604 113.355h834.007v-1000h-834.007Z"></path></clipPath><clipPath id="y" clipPathUnits="userSpaceOnUse"><path d="M-456.591 113.355h834.007v-1000h-834.007Z"></path></clipPath><clipPath id="z" clipPathUnits="userSpaceOnUse"><path d="M-600.37 161.76h834.008v-1000H-600.37Z"></path></clipPath><clipPath id="A" clipPathUnits="userSpaceOnUse"><path d="M-639.567 113.355H194.44v-1000h-834.007Z"></path></clipPath><clipPath id="B" clipPathUnits="userSpaceOnUse"><path d="M-752.82 161.76H81.187v-1000H-752.82Z"></path></clipPath><clipPath id="C" clipPathUnits="userSpaceOnUse"><path d="M-543.986 478.57h834.007v-1000h-834.007Z"></path></clipPath><clipPath id="D" clipPathUnits="userSpaceOnUse"><path d="M-394.097 280.323H439.91v-1000h-834.007Z"></path></clipPath><clipPath id="E" clipPathUnits="userSpaceOnUse"><path d="M-437.99 369.005h834.008v-1000H-437.99Z"></path></clipPath><clipPath id="F" clipPathUnits="userSpaceOnUse"><path d="M-356.606 325.05h834.007v-1000h-834.007Z"></path></clipPath><clipPath id="G" clipPathUnits="userSpaceOnUse"><path d="M-336.57 260.558h834.007v-1000H-336.57Z"></path></clipPath><clipPath id="H" clipPathUnits="userSpaceOnUse"><path d="M-283.595 277.507h834.007v-1000h-834.007Z"></path></clipPath></defs><path d="M0 0h-384.092v-300.504c0-155.032 89.919-458.636 384.092-629.3 294.173 170.664 384.092 474.268 384.092 629.3V0Z" clip-path="url(#a)" style="fill:#58c2e9;fill-opacity:1;fill-rule:nonzero;stroke:none" transform="matrix(1.33333 0 0 -1.33333 556.005 43.41)"></path><path d="M0 0h-833.297v-333.06c0-44.43 6.774-95.439 19.589-147.513 14.812-60.186 36.908-119.409 65.674-176.023 33.239-65.42 74.675-125.683 123.155-179.116 55.275-60.921 119.838-113.007 191.893-154.81l16.338-9.478 16.337 9.478c72.055 41.803 136.618 93.889 191.893 154.81 48.48 53.433 89.916 113.696 123.155 179.116 28.766 56.614 50.862 115.837 65.674 176.023C-6.774-428.499 0-377.49 0-333.06v300.503Zm-32.557-32.557V-333.06c0-155.032-89.918-458.637-384.091-629.301C-710.822-791.697-800.74-488.092-800.74-333.06v300.503h384.092z" clip-path="url(#b)" style="fill:#efefef;fill-opacity:1;fill-rule:nonzero;stroke:none" transform="matrix(1.33333 0 0 -1.33333 1111.536 0)"></path><path d="m0 0 11.746.736q.381-2.862 1.553-4.36 1.908-2.426 5.45-2.426 2.644 0 4.074 1.24 1.431 1.24 1.431 2.875 0 1.554-1.363 2.78t-6.322 2.316Q8.448 4.987 4.987 8.012q-3.488 3.025-3.488 7.712 0 3.08 1.785 5.819t5.368 4.305q3.584 1.567 9.825 1.567 7.657 0 11.677-2.847t4.783-9.062L23.3 14.825q-.463 2.698-1.948 3.924-1.485 1.227-4.102 1.227-2.152 0-3.243-.913t-1.09-2.221q0-.954.9-1.717.872-.79 4.142-1.472 8.094-1.744 11.596-3.529 3.501-1.785 5.096-4.428 1.593-2.644 1.594-5.914 0-3.842-2.126-7.085t-5.941-4.919-9.62-1.676q-10.191 0-14.116 3.924T0 0" clip-path="url(#c)" style="fill:#fff;fill-opacity:1;fill-rule:nonzero;stroke:none" transform="matrix(1.33333 0 0 -1.33333 67.651 120.01)"></path><path d="M0 0h33.084v-8.53H12.372v-6.349h19.213v-8.149H12.372v-7.876h21.311v-9.047H0Z" clip-path="url(#d)" style="fill:#fff;fill-opacity:1;fill-rule:nonzero;stroke:none" transform="matrix(1.33333 0 0 -1.33333 127.203 84.365)"></path><path d="M0 0h12.345v-30.113h19.267v-9.838H0Z" clip-path="url(#e)" style="fill:#fff;fill-opacity:1;fill-rule:nonzero;stroke:none" transform="matrix(1.33333 0 0 -1.33333 183.956 84.365)"></path><path d="M0 0h33.084v-8.53H12.372v-6.349h19.213v-8.149H12.372v-7.876h21.311v-9.047H0Z" clip-path="url(#f)" style="fill:#fff;fill-opacity:1;fill-rule:nonzero;stroke:none" transform="matrix(1.33333 0 0 -1.33333 236.53 84.365)"></path><path d="m0 0 10.819-3.27q-1.09-4.552-3.434-7.603a14.9 14.9 0 0 0-5.818-4.606q-3.474-1.554-8.843-1.553-6.514 0-10.642 1.893-4.129 1.891-7.126 6.658-2.998 4.765-2.998 12.201 0 9.912 5.273 15.237 5.274 5.324 14.92 5.324 7.55 0 11.869-3.052 4.32-3.053 6.417-9.374l-10.9-2.426q-.572 1.826-1.199 2.671a7.1 7.1 0 0 1-2.535 2.18q-1.498.763-3.352.763-4.196 0-6.431-3.376-1.69-2.504-1.69-7.865 0-6.643 2.017-9.106t5.668-2.463q3.543 0 5.355 1.99T0 0" clip-path="url(#g)" style="fill:#fff;fill-opacity:1;fill-rule:nonzero;stroke:none" transform="matrix(1.33333 0 0 -1.33333 328.75 115.831)"></path><path d="m0 0 10.819-3.27q-1.09-4.552-3.434-7.603a14.9 14.9 0 0 0-5.818-4.606q-3.474-1.554-8.843-1.553-6.514 0-10.642 1.893-4.129 1.891-7.126 6.658-2.998 4.765-2.998 12.201 0 9.912 5.273 15.237 5.274 5.324 14.92 5.324 7.55 0 11.869-3.052 4.32-3.053 6.417-9.374l-10.9-2.426q-.572 1.826-1.199 2.671a7.1 7.1 0 0 1-2.535 2.18q-1.498.763-3.352.763-4.196 0-6.431-3.376-1.69-2.504-1.69-7.865 0-6.643 2.017-9.106t5.668-2.463q3.543 0 5.355 1.99T0 0" clip-path="url(#h)" style="fill:#fff;fill-opacity:1;fill-rule:nonzero;stroke:none" transform="matrix(1.33333 0 0 -1.33333 389.608 115.831)"></path><path d="M311.744 936.727h12.372v-39.951h-12.372z" clip-path="url(#i)" style="fill:#fff;fill-opacity:1;fill-rule:nonzero;stroke:none" transform="matrix(1.33333 0 0 -1.33333 0 1333.333)"></path><path d="M0 0h9.538L.736-8.148h-5.314zm-8.067-30.631q0-6.05 2.249-8.693Q-3.57-41.968.3-41.968q3.978 0 6.159 2.589t2.18 9.293q0 5.642-2.276 8.244T.191-19.24q-3.734 0-5.996-2.643t-2.262-8.748m-12.345.055q0 9.783 5.451 15.233T.218-9.892q9.974 0 15.37-5.355t5.396-15.002q0-7.004-2.357-11.487t-6.813-6.977Q7.357-51.206.709-51.206q-6.759 0-11.187 2.153-4.429 2.153-7.181 6.813-2.753 4.659-2.753 11.664" clip-path="url(#j)" style="fill:#fff;fill-opacity:1;fill-rule:nonzero;stroke:none" transform="matrix(1.33333 0 0 -1.33333 472.084 70.266)"></path><path d="M0 0h11.527L26.57-22.103V0h11.637v-39.951H26.57L11.609-18.016v-21.935H0Z" clip-path="url(#k)" style="fill:#fff;fill-opacity:1;fill-rule:nonzero;stroke:none" transform="matrix(1.33333 0 0 -1.33333 512.014 84.365)"></path><path d="M0 0h11.527L26.57-22.103V0h11.637v-39.951H26.57L11.609-18.016v-21.935H0Z" clip-path="url(#l)" style="fill:#fff;fill-opacity:1;fill-rule:nonzero;stroke:none" transform="matrix(1.33333 0 0 -1.33333 604.773 84.365)"></path><path d="m0 0-4.41 14.362L-8.775 0Zm2.559-8.639h-14.014l-1.948-6.595h-12.604l15.015 39.951H2.475l15.012-39.951H4.56Z" clip-path="url(#m)" style="fill:#fff;fill-opacity:1;fill-rule:nonzero;stroke:none" transform="matrix(1.33333 0 0 -1.33333 698.238 117.321)"></path><path d="m0 0 10.819-3.27q-1.09-4.552-3.434-7.603a14.9 14.9 0 0 0-5.818-4.606q-3.474-1.554-8.843-1.553-6.514 0-10.642 1.893-4.129 1.891-7.126 6.658-2.998 4.765-2.998 12.201 0 9.912 5.273 15.237 5.274 5.324 14.92 5.324 7.55 0 11.869-3.052 4.32-3.053 6.417-9.374l-10.9-2.426q-.573 1.826-1.199 2.671a7.1 7.1 0 0 1-2.535 2.18q-1.498.763-3.352.763-4.196 0-6.431-3.376-1.69-2.504-1.69-7.865 0-6.643 2.017-9.106t5.668-2.463q3.543 0 5.355 1.99T0 0" clip-path="url(#n)" style="fill:#fff;fill-opacity:1;fill-rule:nonzero;stroke:none" transform="matrix(1.33333 0 0 -1.33333 763.881 115.831)"></path><path d="M592.448 936.727h12.372v-39.951h-12.372Z" clip-path="url(#o)" style="fill:#fff;fill-opacity:1;fill-rule:nonzero;stroke:none" transform="matrix(1.33333 0 0 -1.33333 0 1333.333)"></path><path d="M0 0q0-6.05 2.248-8.693 2.248-2.644 6.118-2.644 3.98 0 6.159 2.589 2.18 2.59 2.18 9.293 0 5.642-2.275 8.244t-6.173 2.602q-3.733 0-5.995-2.643T0 0m-12.345.055q0 9.783 5.45 15.233t15.18 5.451q9.973 0 15.37-5.355Q29.05 10.029 29.05.382q0-7.004-2.357-11.487t-6.813-6.977q-4.455-2.493-11.105-2.493-6.759 0-11.187 2.153t-7.181 6.813Q-12.345-6.95-12.345.055" clip-path="url(#p)" style="fill:#fff;fill-opacity:1;fill-rule:nonzero;stroke:none" transform="matrix(1.33333 0 0 -1.33333 835.602 111.108)"></path><path d="M0 0h11.528L26.57-22.103V0h11.637v-39.951H26.57L11.609-18.016v-21.935H0Z" clip-path="url(#q)" style="fill:#fff;fill-opacity:1;fill-rule:nonzero;stroke:none" transform="matrix(1.33333 0 0 -1.33333 886.287 84.365)" data-source="https://football-logos.cc"></path><path d="m0 0-4.41 14.362L-8.775 0Zm2.559-8.639h-14.014l-1.948-6.595h-12.604l15.015 39.951H2.475l15.012-39.951H4.56Z" clip-path="url(#r)" style="fill:#fff;fill-opacity:1;fill-rule:nonzero;stroke:none" transform="matrix(1.33333 0 0 -1.33333 979.752 117.321)"></path><path d="M0 0h12.345v-30.113h19.267v-9.838H0Z" clip-path="url(#s)" style="fill:#fff;fill-opacity:1;fill-rule:nonzero;stroke:none" transform="matrix(1.33333 0 0 -1.33333 1011.276 84.365)"></path><path d="M0 0v16.277h37.358v-33.355q-10.727-7.311-18.973-9.952-8.245-2.644-19.559-2.643-13.93 0-22.709 4.75-8.778 4.749-13.607 14.143-4.832 9.392-4.831 21.56 0 12.808 5.284 22.282 5.282 9.473 15.476 14.382 7.952 3.789 21.401 3.789 12.968 0 19.399-2.348 6.432-2.349 10.673-7.284 4.243-4.938 6.378-12.515l-23.322-4.163q-1.44 4.429-4.882 6.778-3.443 2.347-8.78 2.348-7.953 0-12.674-5.524-4.724-5.524-4.724-17.478 0-12.702 4.776-18.145Q-8.54-12.542 0-12.542q4.056 0 7.738 1.175 3.682 1.173 8.433 4.002V0z" clip-path="url(#t)" style="fill:#fff;fill-opacity:1;fill-rule:nonzero;stroke:none" transform="matrix(1.33333 0 0 -1.33333 128.188 217.673)"></path><path d="M0 0h24.122v-46.613q-.001-6.932-2.162-13.092a28.3 28.3 0 0 0-6.776-10.774q-4.62-4.614-9.688-6.479-7.046-2.614-16.919-2.614-5.711 0-12.46.8-6.752.8-11.288 3.173t-8.299 6.746q-3.762 4.374-5.149 9.014-2.242 7.467-2.242 13.226V0h24.122v-47.722q0-6.4 3.549-9.998 3.549-3.6 9.846-3.6c4.165 0 7.426 1.182 9.792 3.546Q-.001-54.229 0-47.722Z" clip-path="url(#u)" style="fill:#fff;fill-opacity:1;fill-rule:nonzero;stroke:none" transform="matrix(1.33333 0 0 -1.33333 261.383 151.14)"></path><path d="m0 0-8.637 28.125L-17.182 0Zm5.014-16.918h-27.447l-3.813-12.915h-24.685l29.407 78.238h26.37l29.398-78.238H8.93Z" clip-path="url(#v)" style="fill:#fff;fill-opacity:1;fill-rule:nonzero;stroke:none" transform="matrix(1.33333 0 0 -1.33333 363.713 215.68)"></path><path d="M0 0h73.489v-19.319H48.833v-58.919H24.658v58.919H0z" clip-path="url(#w)" style="fill:#fff;fill-opacity:1;fill-rule:nonzero;stroke:none" transform="matrix(1.33333 0 0 -1.33333 398.614 151.14)"></path><path d="M0 0h64.787v-16.704h-40.56v-12.435h37.625v-15.957H24.227v-15.423h41.736v-17.719H0Z" clip-path="url(#x)" style="fill:#fff;fill-opacity:1;fill-rule:nonzero;stroke:none" transform="matrix(1.33333 0 0 -1.33333 507.472 151.14)"></path><path d="M0 0h31.794l12.261-47.604L56.227 0h31.776v-78.238H68.202v59.666L52.948-78.238H35.025L19.798-18.572v-59.666H0Z" clip-path="url(#y)" style="fill:#fff;fill-opacity:1;fill-rule:nonzero;stroke:none" transform="matrix(1.33333 0 0 -1.33333 608.788 151.14)"></path><path d="m0 0-8.637 28.125L-17.182 0Zm5.014-16.918h-27.447l-3.813-12.915h-24.685l29.407 78.238h26.37l29.398-78.238H8.93Z" clip-path="url(#z)" style="fill:#fff;fill-opacity:1;fill-rule:nonzero;stroke:none" transform="matrix(1.33333 0 0 -1.33333 800.492 215.68)"></path><path d="M0 0h24.175v-58.972h37.732v-19.266H0Z" clip-path="url(#A)" style="fill:#fff;fill-opacity:1;fill-rule:nonzero;stroke:none" transform="matrix(1.33333 0 0 -1.33333 852.755 151.14)"></path><path d="m0 0-8.637 28.125L-17.182 0Zm5.014-16.918h-27.447l-3.813-12.915h-24.685l29.407 78.238h26.37l29.398-78.238H8.93Z" clip-path="url(#B)" style="fill:#fff;fill-opacity:1;fill-rule:nonzero;stroke:none" transform="matrix(1.33333 0 0 -1.33333 1003.76 215.68)"></path><path d="M0 0c0-45.753-37.09-82.843-82.843-82.843S-165.686-45.753-165.686 0s37.09 82.843 82.843 82.843S0 45.753 0 0" clip-path="url(#C)" style="fill:#fff;fill-opacity:1;fill-rule:nonzero;stroke:none" transform="matrix(1.33333 0 0 -1.33333 725.315 638.092)"></path><path d="m0 0-.711-27.897c132.282-6.251 237.98-115.822 237.98-249.625 0-137.803-112.112-249.914-249.915-249.914-38.596 0-75.174 8.799-107.84 24.489l-8.49-26.833c35.408-16.393 74.816-25.562 116.33-25.562 153.191 0 277.821 124.629 277.821 277.82C265.175-128.569 147.343-6.635 0 0" clip-path="url(#D)" style="fill:#bfd800;fill-opacity:1;fill-rule:nonzero;stroke:none" transform="matrix(1.33333 0 0 -1.33333 525.463 373.764)"></path><path d="M0 0a242.5 242.5 0 0 0 32.675 2.22c97.198 0 181.152-57.744 219.391-140.723l25.338 11.683C234.736-34.273 141.09 30.125 32.675 30.125c-13.136 0-26.05-.964-38.689-2.79z" clip-path="url(#E)" style="fill:#bfd800;fill-opacity:1;fill-rule:nonzero;stroke:none" transform="matrix(1.33333 0 0 -1.33333 583.986 492.007)"></path><path d="m0 0 28.603 7.674s9.767-42.169 21.782-59.222L23.797-68.214S5.814-38.37 0 0" clip-path="url(#F)" style="fill:#de2429;fill-opacity:1;fill-rule:nonzero;stroke:none" transform="matrix(1.33333 0 0 -1.33333 475.474 433.4)"></path><path d="M0 0c-8.082 0-14.657-6.576-14.657-14.659S-8.082-29.318 0-29.318c8.085 0 14.659 6.575 14.659 14.659S8.085 0 0 0m0-52.975c-21.127 0-38.316 17.188-38.316 38.316S-21.127 23.657 0 23.657c21.129 0 38.318-17.188 38.318-38.316S21.129-52.975 0-52.975" clip-path="url(#G)" style="fill:#bfd800;fill-opacity:1;fill-rule:nonzero;stroke:none" transform="matrix(1.33333 0 0 -1.33333 448.76 347.41)"></path><path d="m0 0 4.022-20.154s-11.886.517-25.839-2.067c0 0 5.292 8.136 21.817 22.221" clip-path="url(#H)" style="fill:#bfd800;fill-opacity:1;fill-rule:nonzero;stroke:none" transform="matrix(1.33333 0 0 -1.33333 378.126 370.01)" data-source="https://football-logos.cc"></path><!-- source: https://football-logos.cc --></svg>