<svg xmlns="http://www.w3.org/2000/svg" viewBox="1 1 234.62 250"><!-- Source: https://football-logos.cc --><path d="M119.66 426.217c-28.394 11.971-34.996 32.51-32.467 54.328 28.396-5.223 33.78-31.707 32.467-54.329M147.09 513.477c-22.613 16.749-23.944 36.107-18.575 53.564 21.947-9.522 24.446-33.14 18.574-53.564M116.198 385.752c-25.437 8.12-32.744 21.273-33.545 41.675 23.837-1.46 31.915-21.907 33.545-41.675M126.564 361c-25.512-3-35.667 7.752-41.867 23.267 21.568 6.411 34.454-3.218 41.867-23.266M129.941 331.878c-17.158-2.369-28.712 6.118-34.443 17.618 14.603.86 27.196-1.42 34.443-17.618M122.774 300.195c-20.978 4.78-22.976 18.553-22.981 31.402 14.387-6.205 21.012-12.74 22.98-31.402M79.665 302.19c-5.173 19.256 1.071 33.799 10.725 42.904 3.583-11.582 3.23-24.64-10.725-42.904M61.625 333.828c-4.12 22.999 4.476 36.978 16.19 46.466 2.044-13.239.061-29.866-16.19-46.466M39.245 371.523c1.559 29.147 17.18 46.383 32.835 53.423 1.227-18.364-10.856-39.635-32.835-53.423M31.603 426.145c5.43 32.167 22.918 50.244 45.524 54.757-2.39-29.56-19.17-45.275-45.524-54.757M37.408 492.814c11.36 32.505 35.03 42.834 58.027 41.252-9.696-26.4-25.64-39.864-58.027-41.252M60.708 555.537c16.878 21.697 38.595 28.15 58.116 15.29-13.58-17.389-31.47-24.786-58.116-15.29M96.838 612.928c13.088 6.897 23.706 8.76 33.491 7.33 10.543-1.54 18.868-7.414 24.086-16.12-20.76-10.23-35.742-10.05-57.577 8.79M157.22 546.92c-13.405 23.069-9.322 38.789.598 54.058 14.904-16.34 10.322-34.615-.598-54.057M135.528 463.986c-28.801 16.41-33.566 42.555-29.218 66.71 28.362-9.118 35.003-41.101 29.218-66.71" style="opacity:1;fill:#cbbf7b;fill-opacity:1;stroke:none;stroke-opacity:1;paint-order:markers stroke fill" transform="matrix(.44097 0 0 .44097 -12.936 -59.624)" data-source="https://football-logos.cc"></path><path d="M133.242 585.109c-12.554-14.95-23.81-31.98-33.027-50.57-15.427-31.113-24.304-63.24-24.64-97.948-.352-35.981 6.414-70.162 25.665-109.729h1.489c-17.618 35.132-24.54 70.265-23.723 104.506.368 15.408 2.057 31.31 5.315 46.37 4.186 19.345 10.963 38.141 19.884 55.905 8.476 16.881 19.548 33.631 34.06 50.535zM475.616 426.217c28.394 11.971 34.996 32.51 32.466 54.328-28.396-5.223-33.78-31.707-32.466-54.329M448.186 513.477c22.613 16.749 23.944 36.107 18.575 53.564-21.947-9.522-24.446-33.14-18.575-53.564M479.078 385.752c25.437 8.12 32.743 21.273 33.545 41.675-23.838-1.46-31.915-21.907-33.545-41.675M468.712 361c25.512-3 35.667 7.752 41.866 23.267-21.567 6.411-34.454-3.218-41.866-23.266M465.334 331.878c17.158-2.369 28.712 6.118 34.444 17.618-14.604.86-27.196-1.42-34.444-17.618M472.502 300.195c20.978 4.78 22.975 18.553 22.98 31.402-14.386-6.205-21.011-12.74-22.98-31.402M515.611 302.19c5.172 19.256-1.071 33.799-10.726 42.904-3.583-11.582-3.23-24.64 10.726-42.904M533.65 333.828c4.12 22.999-4.475 36.978-16.19 46.466-2.043-13.239-.06-29.866 16.19-46.466M556.03 371.523c-1.558 29.147-17.179 46.383-32.835 53.423-1.226-18.364 10.857-39.635 32.836-53.423M563.673 426.145c-5.43 32.167-22.919 50.244-45.525 54.757 2.39-29.56 19.171-45.275 45.524-54.757M557.867 492.814c-11.36 32.505-35.029 42.834-58.027 41.252 9.697-26.4 25.64-39.864 58.027-41.252M534.568 555.537c-16.879 21.697-38.595 28.15-58.117 15.29 13.58-17.389 31.47-24.786 58.117-15.29M498.438 612.928c-13.088 6.897-23.707 8.76-33.492 7.33-10.543-1.54-18.868-7.414-24.085-16.12 20.76-10.23 35.741-10.05 57.577 8.79M438.055 546.92c13.405 23.069 9.323 38.789-.597 54.058-14.905-16.34-10.323-34.615.597-54.057M459.747 463.986c28.802 16.41 33.567 42.555 29.219 66.71-28.362-9.118-35.003-41.101-29.219-66.71" style="opacity:1;fill:#cbbf7b;fill-opacity:1;stroke:none;stroke-opacity:1;paint-order:markers stroke fill" transform="matrix(.44097 0 0 .44097 -12.936 -59.624)"></path><path d="M462.034 585.109c12.554-14.95 23.81-31.98 33.027-50.57 15.427-31.112 24.304-63.24 24.64-97.948.351-35.981-6.415-70.162-25.666-109.729h-1.488c17.617 35.132 24.54 70.265 23.722 104.506-.367 15.408-2.056 31.31-5.315 46.37-4.185 19.345-10.963 38.141-19.883 55.905-8.477 16.881-19.549 33.632-34.06 50.535z" style="opacity:1;fill:#cbbf7b;fill-opacity:1;stroke:none;stroke-opacity:1;paint-order:markers stroke fill" transform="matrix(.44097 0 0 .44097 -12.936 -59.624)"></path><path d="M160.724 230.144H439.19v207.66c0 104.377-60.918 158.418-138.533 183.086-72.153-20.193-139.933-76.533-139.933-187.91Z" style="fill:#004c87;fill-rule:evenodd" transform="matrix(.44097 0 0 .44097 -12.936 -59.624)"></path><path d="M175.217 341.036v91.943c0 85.409 54.064 151.055 123.702 171.027 73.48-23.688 120.721-79.475 120.721-166.203v-96.767z" style="fill:#fff;fill-rule:evenodd" transform="matrix(.44097 0 0 .44097 -12.936 -59.624)"></path><path d="M185.329 351.237v81.494a180.6 180.6 0 0 0 4.82 41.544l210.021-122.8Zm28.538 178.136c19.64 29.629 48.703 52.573 84.9 63.717 68.275-23.046 110.425-78.314 110.425-155.287v-26.872zM172.686 580.669h26.792v38.116h-26.792zM400.537 581.136h26.793v37.986h-26.793z" style="fill:#00b5e4;fill-rule:evenodd" transform="matrix(.44097 0 0 .44097 -12.936 -59.624)" data-source="https://football-logos.cc"></path><path d="m106.3 580.763 93.178-.091-24.932 8.214c36.043 33.234 81.997 44.213 123.362 44.525s91.769-12.578 126.2-44.712l-23.62-7.547 92.17-.087-29.63 29.126 29.63 29.835-71.03-.304-.033 25.665c-34.126 28.012-82.755 39.355-124.703 39.023-39.922-.317-82.503-8.425-120.183-39.051v-25.703l-70.409.068 29.362-29.498z" style="fill:#004c87;fill-rule:evenodd" transform="matrix(.44097 0 0 .44097 -12.936 -59.624)"></path><path d="M183.663 636.123c11.469 14.223 35.715 30.408 57.864 34.013v-8.674c-17.274-1.922-40.469-13.245-57.864-25.339M414.438 636.123c-11.47 14.223-35.716 30.408-57.864 34.013v-8.674c18.204-2.852 40.469-13.245 57.864-25.339" style="fill:#00b5e4;fill-rule:evenodd" transform="matrix(.44097 0 0 .44097 -12.936 -59.624)"></path><path d="m257.53 137.48 6.85 21.227 22.306-.043-18.07 13.075 6.933 21.2-18.02-13.145-18.02 13.145 6.934-21.2-18.07-13.075 22.304.043zM337.075 137.48l6.852 21.227 22.305-.043-18.07 13.075 6.933 21.2-18.02-13.145-18.02 13.145 6.934-21.2-18.07-13.075 22.304.043z" style="opacity:1;fill:#cbbf7b;fill-opacity:1;stroke:none;stroke-opacity:1;paint-order:markers stroke fill" transform="matrix(.44097 0 0 .44097 -12.936 -59.624)"></path><path d="m214.89 290.954.107-42.607h15.552l8.461 13.71 8.6-13.71h15.216l.109 42.606H248.23l.05-19.998-9.607 14.079-9.13-13.742.052 19.662zM292.223 290.982l.004-30.08H280.23l-.004-12.555h39.258l.004 12.556h-11.995l-.004 30.079zM336.298 290.997v-42.65h14.675V263.9l11.6-15.553h16.871l-14.563 18.258 15.015 24.392h-17.165l-7.959-13.36-3.799 4.2v9.16zM185.459 309.207h9c3.124 0 5.964 1.406 5.964 4.794 0 1.89-1.392 3.342-3.11 3.932 0 .552 4.504.043 4.195 5.494-.183 3.227-3.783 4.296-6.507 4.296h-9.542zm4.582 14.745h2.906c1.356 0 3.333-.273 3.333-1.993 0-1.67-2.012-1.885-3.305-1.885h-2.934zm0-7.312h2.677c1.584 0 2.569.249 2.569-1.777 0-1.922-1.04-1.886-2.569-1.886h-2.677zM214.933 309.207h5.256v11.123c0 2.001.95 3.407 3.197 3.407 2.303 0 3.196-1.377 3.196-3.407v-11.123h5.256v11.23c0 4.827-3.006 7.797-8.452 7.797-5.432 0-8.453-2.798-8.453-7.796zM244.132 327.723v-18.516h7.643c5.794 0 9.936 3.13 9.936 9.426 0 6.126-4.112 9.09-9.936 9.09zm4.92-4.188h2.65c2.978 0 5.094-1.65 5.199-5.088.093-3.063-2.093-5.052-5.2-5.052h-2.65zM272.252 327.723l8.117-18.516h4.746l8.216 18.516h-5.589l-1.445-3.876h-7.018l-1.194 3.876zm10.443-13.506-2.013 5.518 3.934.094zM305.41 327.723v-18.516h7.931c3.704 0 6.94 2.548 6.94 6.639 0 4.231-4.062 6.666-6.94 6.666h-3.012v5.21zm4.92-14.369v5.01h2.458c1.499 0 2.74-.915 2.74-2.518 0-1.619-1.327-2.492-2.74-2.492zM335.2 327.723v-18.516h14.683v4.188h-9.426v2.976h8.153v4.148h-8.153v3.016h9.426v4.188zM379.123 311.18l-2.416 3.306c-1.35-1.11-2.576-1.717-4.37-1.717-1.353 0-2.157.653-2.222 1.43-.047.561.257 1.36 1.817 1.8 1.195.336 3.464.754 4.61 1.257 2.371 1.04 3.466 3.063 3.28 5.195-.189 2.164-1.269 3.696-2.781 4.666s-2.931 1.081-4.91 1.081c-2.626 0-5.377-1.313-7.478-2.943l2.468-3.546c1.275 1.198 3.2 2.188 4.953 2.317 1.547.114 2.865-.2 2.96-1.541.14-1.99-3.434-1.913-5.564-2.745-2.42-.946-4.236-2.49-4.236-5.342 0-1.319.651-2.9 1.858-3.994s3.177-1.783 5.441-1.783c2.348 0 4.871 1.165 6.59 2.558M399.535 328.012v-14.665h-5.454v-4.188h16.068v4.188h-5.362v14.665zM266.644 657.67h-1.503l.001-.048h-4.247c-.994.979-2.86 1.708-4.411 1.535v4.853c1.955.095 3.6-.198 4.562-1.348h.017v18.266h5.581zM283.438 657.104c4.601 0 8.333 3.051 8.333 6.813 0 1.854-.908 3.536-2.379 4.765 2.065 1.366 3.385 3.454 3.385 5.795 0 4.115-4.082 7.452-9.116 7.452s-9.115-3.337-9.115-7.452c0-2.247 1.217-4.263 3.142-5.63-1.591-1.24-2.583-2.99-2.583-4.93 0-3.762 3.731-6.813 8.332-6.813m.223 14.186c1.963 0 3.554 1.212 3.554 2.706 0 1.495-1.591 2.707-3.554 2.707s-3.554-1.212-3.554-2.707 1.592-2.706 3.554-2.706m.01-9.333c1.645 0 2.979 1.114 2.979 2.486s-1.334 2.485-2.98 2.485-2.979-1.113-2.979-2.485 1.334-2.486 2.98-2.486M307.706 657.104c4.601 0 8.333 3.051 8.333 6.813 0 1.854-.908 3.536-2.379 4.765 2.065 1.366 3.385 3.454 3.385 5.795 0 4.115-4.082 7.452-9.116 7.452s-9.115-3.337-9.115-7.452c0-2.247 1.217-4.263 3.142-5.63-1.591-1.24-2.583-2.99-2.583-4.93 0-3.762 3.732-6.813 8.333-6.813m.223 14.186c1.963 0 3.554 1.212 3.554 2.706 0 1.495-1.591 2.707-3.554 2.707s-3.553-1.212-3.553-2.707 1.591-2.706 3.553-2.706m.01-9.333c1.645 0 2.98 1.114 2.98 2.486s-1.335 2.485-2.98 2.485-2.98-1.113-2.98-2.485 1.334-2.486 2.98-2.486M331.974 657.104c4.602 0 8.333 3.051 8.333 6.813 0 1.854-.908 3.536-2.379 4.765 2.065 1.366 3.385 3.454 3.385 5.795 0 4.115-4.082 7.452-9.115 7.452s-9.116-3.337-9.116-7.452c0-2.247 1.217-4.263 3.142-5.63-1.59-1.24-2.583-2.99-2.583-4.93 0-3.762 3.732-6.813 8.333-6.813m.224 14.186c1.962 0 3.554 1.212 3.554 2.706 0 1.495-1.592 2.707-3.554 2.707-1.963 0-3.554-1.212-3.554-2.707s1.591-2.706 3.554-2.706m.009-9.333c1.645 0 2.98 1.114 2.98 2.486s-1.335 2.485-2.98 2.485-2.98-1.113-2.98-2.485 1.335-2.486 2.98-2.486" style="fill:#fff;fill-rule:evenodd" transform="matrix(.44097 0 0 .44097 -12.936 -59.624)" data-source="https://football-logos.cc"></path><!-- source: https://football-logos.cc --></svg>