<svg xmlns="http://www.w3.org/2000/svg" data-name="Calque 2" viewBox="0 0 906.67 788.89"><!-- Source: https://football-logos.cc --><path d="M637.06 402.44c-.6-26.4-1.52-68.02-2.04-92.5-.53-24.48-1.25-52.26-1.6-61.75l-.64-17.25-18.14.02c-12.5 0-18.91.4-20.61 1.26-1.36.69-3.54 2.82-4.85 4.74l-2.39 3.48.64 61.5c1.54 149.21 2.67 245.44 2.9 245.66.13.13 2.47-1.18 5.2-2.92 4.73-3 7.66-4.88 30.85-19.77 5.43-3.49 10.6-7.54 11.5-9.01 1.77-2.9 1.82 3.66-.82-113.46m89.07 76c-.64-31.35-1.84-90.75-2.65-132-.04-1.88-.07-3.76-.11-5.63-.01-.32-.01-.64-.02-.95l-.09-4.64c-.04-1.87-.07-3.71-.11-5.55-.03-1.64-.07-3.27-.1-4.9 0-.32-.01-.64-.02-.96l-.06-3.13-.12-6.2-.06-3.07c-.05-2.09-.09-4.17-.13-6.23-.03-1.78-.07-3.56-.11-5.32-.01-.89-.03-1.77-.05-2.65-.02-.87-.03-1.75-.05-2.63-.01-.35-.02-.69-.02-1.04l-.09-4.18-.09-4.43-.06-2.82c0-.16 0-.33-.01-.49-.01-.85-.03-1.7-.05-2.55s-.03-1.69-.05-2.54c-.03-1.68-.07-3.36-.1-5.03-.01-.14-.01-.28-.01-.42l-.06-2.7c0-.3 0-.6-.02-.9-.02-1.15-.04-2.29-.07-3.43-.13-6.63-.27-13.02-.4-19.18-.02-1.36-.05-2.71-.08-4.06-.06-2.58-.11-5.11-.16-7.6-.03-1.27-.06-2.53-.08-3.78l-.12-5.37c-.02-1.17-.05-2.32-.07-3.47l-.15-6.65c-.01-.69-.03-1.38-.04-2.07 0-.26-.02-.52-.02-.78-.02-1.11-.04-2.2-.07-3.29-.01-.28-.02-.56-.02-.83-.02-1.07-.04-2.12-.07-3.17l-.06-2.83c-.03-1.66-.07-3.3-.11-4.92-.01-.28-.02-.56-.02-.84-.9-41.16-1.55-66.81-1.71-66.97-.02-.02-.07 0-.16.05-.69.37-3.42 2.66-6.56 5.53-3.53 3.23-11.59 10.45-17.91 16.05-6.33 5.61-11.75 10.72-12.06 11.38-.08.18-.11 2.79-.08 7.3 0 .37.01.81.01 1.3.01.61.02 1.25.02 1.91 0 .55.02 1.14.02 1.76 0 .26 0 .53.01.8v.37c.02 1.24.03 2.57.05 3.96 0 .31.01.63.01.96.01.3.01.61.02.92 0 .18 0 .37.01.56 0 .26 0 .52.01.79v.98l.03 1.57v.09c.21 13.46.57 31.62 1.03 51.42 1.79 76.75 3.21 137.14 4.3 182.69.04 1.16.06 2.31.08 3.47.44 18.67.83 34.77 1.16 48.4.04 2.01.09 3.97.14 5.87 0 .27.02.54.02.81.02 1.11.05 2.21.08 3.29.07 2.64.13 5.09.18 7.33 1.13 46.16.69 55.74-3.04 66.59-4.72 13.72-13.19 23.04-30.02 33.05-3.58 2.13-9.42 5.75-13 8.04-2.11 1.35-4.84 3.09-8.05 5.11-.25.16-.5.32-.75.47-7.12 4.49-16.42 10.3-26.41 16.51-.63.39-1.26.79-1.89 1.18-5.77 3.58-11.74 7.28-17.62 10.92-.36.22-.72.45-1.08.67-.46.28-.93.57-1.39.85-.55.35-1.09.68-1.64 1.02-2.25 1.39-4.47 2.76-6.65 4.11-.61.37-1.21.75-1.81 1.12-.76.46-1.5.92-2.24 1.37-.96.6-1.91 1.18-2.84 1.76-.06.03-.12.07-.17.1-1.33.81-2.62 1.61-3.9 2.39-.95.59-1.89 1.17-2.8 1.72-.57.36-1.13.7-1.68 1.04-.05.03-.1.06-.14.08-1.45.89-2.85 1.74-4.19 2.57-.56.34-1.1.68-1.64 1-.53.33-1.05.65-1.57.96-.03.03-.07.05-.1.06-.48.3-.95.58-1.41.86-.03.02-.06.04-.09.05-7.42 4.52-12.26 7.41-12.65 7.53 0 .01-.02.01-.02.01-.22 0-.42-2.3-.58-6.84-.01-.36-.02-.73-.04-1.11-.01-.19-.02-.39-.02-.59q-.03-.96-.06-2.04c-.04-1.31-.07-2.73-.1-4.26 0-.62-.02-1.25-.04-1.9-.07-4.24-.14-9.29-.2-15.11 0-.45 0-.91-.01-1.36-.02-1.96-.03-4.01-.04-6.12-.05-5.65-.08-11.9-.1-18.75 0-.74 0-1.5-.01-2.27-.1-33.24-.59-110.15-1.09-172.65l-.03-3.67c-.02-1.74-.03-3.48-.04-5.21-.48-59.82-.87-111.29-.88-116.44l-.03-9.82-10.25 9.23c-5.64 5.08-12.05 10.85-14.25 12.83s-10.7 9.67-18.88 17.09l-12.97 11.76-1.91 1.73v.37l.67 40.63c.17 10.76.34 21.45.51 32.02-.01.06-.01.13 0 .19.08 4.54.15 9.05.22 13.54l.06 3.78.03 1.8c.03 1.61.05 3.22.08 4.82 0 .38 0 .77.01 1.17l.09 5.38c.04 2.88.09 5.78.14 8.71.03 1.55.05 3.1.07 4.66.03 1.43.05 2.87.07 4.31.04 2.23.07 4.47.11 6.72.03 1.69.05 3.38.08 5.08.04 2.64.09 5.29.13 7.94.03 2.38.07 4.77.11 7.16.05 3.04.1 6.08.14 9.12 0 .08.01.15 0 .22.06 4.03.13 8.02.19 11.97.04 2.33.08 4.66.11 6.98.01 1.04.03 2.07.05 3.1l.03 2.09c.11 7.19.22 14.22.33 21.08.01.29.01.59.01.88.03 1.7.06 3.38.08 5.07.01.24.01.48.01.73.09 5.73.17 11.33.26 16.79v.08l.12 8.11c.01.12.01.24.01.37l.15 10.1c.04 2.17.07 4.33.1 6.46.02.9.03 1.79.04 2.68.06 3.57.11 7.08.16 10.51.02 1.56.05 3.1.07 4.62.01.98.03 1.95.04 2.91.02.83.03 1.65.04 2.47.03 1.92.05 3.81.08 5.67l.06 3.85.03 2.41c.03 1.36.05 2.69.06 4.01.03 1.6.05 3.17.07 4.72l.06 4.19c.01.18.01.35.01.53.02 1.15.03 2.27.05 3.37l.06 4.31c.02.85.03 1.69.04 2.52.01.53.01 1.05.02 1.57.01.95.03 1.88.04 2.79.01.58.02 1.15.02 1.71.02.96.03 1.9.04 2.81l.06 3.92.03 2.24.03 2.45c.01.52.02 1.02.02 1.51 0 .95.02 1.84.03 2.68l.03 1.61c.04 4.04.07 6.63.07 7.51v10l-6.24 3.9c-3.43 2.14-8.48 5.34-11.23 7.1-2.75 1.77-6.84 4.25-9.08 5.53l-4.08 2.32-15.27-9.43-15.28-9.42.4-21.22c.01-.91.03-1.85.05-2.81l.18-9.47c.35-18.42 1.08-60.5 1.61-93.5.54-33 1.43-86.28 1.99-118.4.05-2.93.1-5.82.14-8.64 0-.19 0-.38.01-.56l.06-3.47c0-.18 0-.36.01-.53.39-25.88.54-45.46.32-45.68-.26-.26-2.44 1.28-4.83 3.41-5.08 4.51-44.98 40.39-78.68 70.75-12.89 11.61-28.19 25.35-34 30.53-5.8 5.17-10.78 9.67-11.05 10-.27.32-4.33 3.95-9 8.06-9.54 8.38-11.58 10.18-11.3 11.14.07.25.29.44.59.68.67.53 8.41 5.36 17.21 10.74 6.87 4.2 19.2 11.78 30.43 18.68.01 0 .02.02.04.03.89.55 1.77 1.1 2.65 1.63.01 0 .01.01.02.02 2.2 1.35 4.34 2.67 6.36 3.92s4.03 2.49 5.99 3.69c1.17.72 2.33 1.44 3.47 2.14 1.51.94 2.98 1.84 4.38 2.7 2.81 1.73 5.36 3.3 7.51 4.62.53.33 1.04.64 1.53.94 1.21.75 2.24 1.38 3.07 1.89.33.2.62.38.88.54.39.24.7.43.92.56l4.25 2.59v39.76c0 23.1-.38 39.76-.91 39.76-.49 0-6.46-3.45-13.25-7.66-21.35-13.24-28.34-17.58-67.34-41.84-5.5-3.42-14.95-9.27-21-13-20.51-12.64-27.03-17.2-32.26-22.55l-5.23-5.33-3.23 2.94c-1.78 1.62-5.27 4.79-7.76 7.04-11.34 10.29-14.28 12.8-14.37 14.1-.04.58.48.91 1.08 1.58 1.43 1.59 4.61 4.33 8.42 7.32a1 1 0 0 0 .1.08c3.71 2.91 7.99 6.08 11.81 8.67.07.06.15.11.23.16 1.12.76 2.2 1.47 3.21 2.11 8.28 5.24 18.13 11.41 30.71 19.23.71.44 1.42.89 2.15 1.35 1.94 1.21 3.95 2.45 6.02 3.74 5.52 3.43 11.53 7.16 18.12 11.25 13.75 8.53 32.86 20.41 42.45 26.41 9.6 5.99 17.91 11.08 18.46 11.3s1.47.8 2.04 1.29c.58.49 14.78 9.38 31.55 19.76s33.65 20.87 37.5 23.31c15.07 9.53 36.65 22.74 37.15 22.74.29 0 15.23-9.15 33.19-20.34s47.74-29.7 66.16-41.13 36.88-22.91 41-25.51c19.09-12.01 27.94-17.55 47.23-29.59 11.41-7.11 21.54-13.38 22.52-13.93 6.22-3.49 24.64-15.49 29.25-19.06 17.51-13.53 28.44-32.87 32.59-57.68 1.59-9.47 1.63-14.67.54-67.26ZM379.75 115.02l-6.5-.28-6.75-.3-.5-21.34c-.49-20.94-.55-21.38-2.86-23.25-3.17-2.57-7.89-2.35-17.89.81l-7.78 2.46-.47.15v6.33c0 3.49.14 6.34.3 6.34.05 0 .4-.09.99-.25 1.45-.39 4.34-1.21 7.58-2.15 4.83-1.41 7.3-1.9 8.27-1.59q.135.045.24.12c.11.06.18.15.22.26.23.6.32 6.92.21 14.5l-.03 2.15-.28 15.46-11.76.28-11.75.28.64 4.22c.77 5.08.46 6.83 6.22 7.43 3.49.35 9.19.29 18.71.29H380v-11.91h-.25Zm205.12-18.54c-.09-.08-.53-.17-1.21-.27-1-.15-2.52-.29-4.16-.39l-1.15-.07-3.85-.24-.03-.57-.47-9.87-.5-10.43-3.5-1.21c-1.92-.66-4.51-1.52-5.75-1.92l-1.21-.38-1.04-.32v25.21l-7.33-.26-.92-.03-6.98-.25-1.27-.04-.02-.5-.48-14.47-.5-14.97-4-1.2c-5.61-1.69-7.04-2.72-7.4 3.66V68c-.14 2.7-.1 6.72-.1 12.57v.4c0 15.6.21 17.56 2.03 20.51 2.67 4.32 6.34 5.46 17.62 5.46H562v20.1l1.92-.1 3.83-.2 5.75-.3.29-9.7.21-7.27.07-2.42 1.67-.11 3.04-.2 4.71-.3.87-4.8c.48-2.64.71-4.96.51-5.16m-72.65-39.34c-3.06-2.13-34.25-11.86-38.98-12.2h-.03c-.08-.01-.15-.01-.21-.01-.23 0-.49.03-.78.08-.04 0-.07.01-.11.02-1.44.26-3.44 1.04-4.92 1.94-3.85 2.35-5.31 4.01-5.87 14.31l-.03.76c-.22 4.55-.27 10.7-.28 19.16-.01 1.8-.01 3.68-.01 5.64 0 2.66 0 5.1.01 7.34.08 24.22.73 26.49 4.96 30.26 2.09 1.86 3.65 2 23.12 2h20.87l3.27-3.27 3.27-3.27.32-26.73c.34-29.11-.15-32.93-4.6-36.03m-22.95 57.57-15.77-.27-.27-27.49-.03-3.4c-.04-5.41-.04-10.43-.03-14.54l.03-3.97a.7.7 0 0 0 0-.2c.04-3.86.12-6.3.23-6.57.15-.4.41-.62.84-.68.52-.08 1.3.08 2.42.48 1.55.55 8.43 2.7 15.31 4.77l12.5 3.76v.32l.27 23.87.26 23.15v1.05zm-44.28-28.48c0-30.73-.13-32.97-1.94-35.72-1.06-1.61-2.97-3.51-4.24-4.22-1.14-.63-2.85-1.02-4.66-1.16h-.03c-2.39-.17-4.95.09-6.62.83-1.1.48-8.94 2.92-17.41 5.41-16.62 4.88-19.44 6.55-21.09 12.5-.43 1.54-.72 3.66-.88 6.03-.27 3.9-.19 8.48.19 12.27v.07c.31 2.94.79 5.4 1.44 6.7 2.12 4.24 4.34 5.96 12.05 6.62 3.42.3 7.91.38 13.95.38H433v19h-33v-9.1l-1.92.1-3.83.2-5.75.3.08 6.73c.09 7.53 1.53 10.03 7.14 12.41.99.42 3.35.75 6.5.98h.03c6.74.51 17.03.59 24.98.26h.12c5.3-.23 9.55-.64 10.98-1.24 6.64-2.78 6.67-2.94 6.66-39.35M400 83.94V67.23l.39-.11.05-.02 7.31-2.11c4.26-1.23 11.13-3.3 15.25-4.6s8.06-2.38 8.75-2.4c.1 0 .19.03.27.1.32.26.54 1.07.7 2.62 0 .05 0 .11.01.16.13 1.37.21 3.29.24 5.88.02 1.17.03 2.41.03 3.69v13.5z" style="fill:#fff;fill-rule:evenodd" data-source="https://football-logos.cc"></path><path d="M743.75 750.93c-.69 0-2.57-.69-4.19-1.53-8.25-4.3-24.83-8.66-40.32-10.58-8.2-1.02-12.7-1.03-22.5-.05-12.2 1.22-26.87 4.45-33.99 7.47-4.21 1.79-4.74.91-1.88-3.15 5.29-7.5 9.52-19.36 11.14-31.23 1.17-8.58.49-16.99-1.37-16.81-.63.06-2.94.48-5.14.93-15.57 3.2-33.83 15.01-42.13 27.24-1.58 2.32-3.38 4.77-4.01 5.43-2.01 2.14-7.46 16.3-8.92 23.15-.77 3.65-1.41 10.58-1.42 15.39-.02 7.2.25 8.75 1.51 8.75.85 0 3.66 1.08 6.26 2.39 6.03 3.06 19.34 7.07 30.07 9.06 15.04 2.79 40.77 1.55 54.14-2.61 20.55-6.4 35.76-13.65 55.75-26.57 7.75-5.01 9.91-7.26 7-7.28m-426.04 10.64c-1.6-25.55-16.8-48.34-39.88-59.79-9.23-4.58-21.24-7.6-22.45-5.65-.95 1.55-.56 17.07.58 22.31 1.42 6.57 4.96 16.36 7.05 19.5.91 1.38 1.96 3.17 2.31 4 .36.83 1.45 2.6 2.42 3.95 1.71 2.39 1.71 2.43-.24 1.63-15.35-6.32-37.57-10.15-53-9.13-14.33.95-29.97 4.26-42.24 8.95-11.73 4.48-11.71 4.33-1.74 10.97 24.31 16.18 48.9 26.39 71.52 29.7 11.57 1.69 35.08.64 45.3-2.01 10.42-2.71 14.55-4.15 26.95-9.38 3.58-1.51 4.12-3.88 3.42-15.05m536.04-89.89c-1.24-.28-6.75-1.64-12.25-3.04-20.19-5.13-42.85-5.94-62.5-2.21-8.38 1.59-26.88 7.42-32.25 10.16-3.25 1.66-3.61.52-1.26-3.99 3.7-7.08 5.73-16.32 6.25-28.41l.53-12.25-3.38.07c-1.87.04-6.31 1.1-9.89 2.35-8.79 3.09-13.43 5.55-20.66 10.99-10.71 8.04-20.3 21.6-24.85 35.09-2.42 7.19-4.06 23.17-2.92 28.53l.93 4.39 7.21 2.19c14.44 4.39 25.74 5.89 44.29 5.89s26.71-1.14 44-6.59c12.44-3.93 31.79-13.5 44.41-21.97 10.52-7.06 24.59-18.43 24.59-19.87 0-.46-1.01-1.06-2.25-1.33M191.7 647.82c-9.74-8.17-26.13-15.84-33.95-15.87H155v9.83c0 10.86 2.14 21.07 6.32 30.16 1.39 3.02 2.41 5.6 2.28 5.73s-4.03-1.3-8.67-3.18c-28.58-11.6-60.79-13.53-91.43-5.49-4.4 1.16-9.01 2.35-10.25 2.64S51 672.5 51 672.9c0 .86 4.82 5.26 11 10.02 2.48 1.91 4.73 3.74 5 4.07s4.77 3.41 10 6.86c11.19 7.37 30.24 16.82 41.5 20.58 29.17 9.76 63.34 9.85 92.5.24 5.76-1.89 6-2.33 6-10.89 0-22.03-9.24-42.47-25.3-55.96M894 515.47c-13.68 4.91-32.39 14.54-43.17 22.23-16.34 11.66-26.4 22.3-44.18 46.74-1.43 1.96-1.47 1.95-1.98-.5-3.6-17.29-7.47-27.12-13.94-35.32l-3.01-3.82-3.94 3.82c-6.6 6.39-13.41 17.62-16.59 27.38-4.63 14.21-5.08 25.76-1.61 40.88 2.6 11.32 12.39 28.06 16.41 28.06 2.56 0 20.59-6.38 28.71-10.16 17.49-8.15 31.35-17.87 45.37-31.82 10.79-10.74 14.54-15.12 19.74-23.02 1.99-3.03 3.89-5.72 4.21-6 1.02-.87 9.62-16.28 12-21.5 6.73-14.8 8.11-18.2 10.81-26.71 1.61-5.11 3.25-10.3 3.62-11.54.94-3.08-.79-2.9-12.45 1.28m-750.78 82.47c-.06-10.01-.46-12.69-3.09-20.68-3.52-10.69-9.05-20.27-15.83-27.42l-4.79-5.07-2.88 3.33c-3.08 3.58-10.95 19.4-12.1 24.34-.39 1.65-.94 5.03-1.21 7.5-.28 2.47-.87 4.88-1.31 5.35-.44.46-2.73-2.01-5.08-5.5-17.84-26.46-42.38-46.88-71.16-59.22C11.6 514.5 0 510.84 0 512.42c0 .82 7.02 21.89 8 24.02.51 1.1 2.87 6.5 5.26 12s6 12.6 8.04 15.77c2.03 3.17 3.7 6.01 3.7 6.3 0 1.09 8.51 13.13 14.09 19.93 15.03 18.34 33.78 33.1 54.99 43.29 11.02 5.29 29.59 11.51 32.29 10.82 3.94-1.01 12.56-17.06 15.33-28.54 1-4.15 1.56-10.8 1.52-18.07m758.17-235.95c-.49.03-2.01.78-3.39 1.67s-4.97 3.23-8 5.2c-20.14 13.11-41.8 34.62-54.46 54.08-8.5 13.08-16.31 29.13-19.58 40.25-.77 2.61-1.69 4.75-2.06 4.75s-1.19-1.46-1.84-3.25c-3.95-10.83-9.05-18.65-17.93-27.47-6.73-6.68-7.48-6.86-10.36-2.5-7.13 10.78-9.82 19.6-10.49 34.42-.64 14.4 1 22.4 7.29 35.3 4.36 8.95 13.15 20.03 19.44 24.51l2.91 2.07 6.79-4.23c23.41-14.57 45.25-35.49 58.86-56.37 2.16-3.32 4.51-6.92 5.21-8 .71-1.09 3.97-7.48 7.25-14.2 8.51-17.46 13.84-34.77 18.86-61.28 1.52-8.02 2.54-25.01 1.5-24.95m-770.28 89.45c-2.62-7.69-6.04-14.74-8.86-18.29l-1.82-2.29-4.67 3.64c-7.62 5.94-16.26 18.22-20.21 28.71-2.48 6.62-2.51 6.61-5.06-1.27-12.01-37.08-41.9-73.91-77.86-95.92-3.66-2.24-6.88-4.08-7.15-4.08S5 364.53 5 367.69c.01 10.08 4.87 36.3 9.68 52.25 4.98 16.52 15.15 38.37 22.93 49.25 1.86 2.62 3.39 5.2 3.39 5.75s.35 1 .77 1 1.43 1.07 2.25 2.39c5.3 8.54 22.65 26.21 35.51 36.19 5.63 4.36 21.62 14.94 23.81 15.75 1.37.5 3.45-.88 8.26-5.5 8.28-7.95 15.39-19.11 19.02-29.83 2.63-7.76 2.88-9.71 2.88-22.5s-.32-14.93-2.39-21m728.61-207.12c-.26-.25-2.94 2.15-5.96 5.33-8.68 9.14-11.1 12.16-17.89 22.36-7.73 11.62-9.27 14.32-13.6 23.93-8.1 17.96-11.55 30.63-14.13 51.98l-1.64 13.48-3.2-4.98c-3.71-5.79-8.88-10.9-15.5-15.35-6.09-4.09-13.9-7.43-14.95-6.38-1.26 1.26-2.85 10.87-2.85 17.25 0 22.99 13.92 43.78 35.78 53.44l4.27 1.89 3.12-2.92c20.38-19.05 38.23-49.56 44.71-76.44 3.92-16.27 5.11-26.9 5.1-45.47-.02-15.54-1.82-36.68-3.26-38.12m-726.17 89.63c-2.04.02-11.24 4.77-16.34 8.43-4.66 3.35-13.28 13.08-15.94 17.98-.82 1.52-1.17.41-1.7-5.5-2.31-25.7-6.94-42.88-16.96-62.92-8.9-17.8-23.33-37.99-32.71-45.75l-2.69-2.23-.53 2.24c-2.32 9.72-3.69 36.2-2.6 50.13 1.9 24.2 6.94 42.93 16.98 63.11 4.87 9.77 16.44 27.71 21.39 33.16 5.21 5.74 14.06 14.34 14.74 14.34.47 0 4.33-1.76 8.58-3.92 15.01-7.61 25.35-21.18 30.17-39.58 2.12-8.08.38-29.52-2.39-29.49m388.79-149.76-.66-23.25H385v68.96l22.75.27 22.75.27-.29 23.5c-.34 27.2-1.2 82.4-1.9 123.34-.28 16.42-.53 30.55-.72 39.66-.09 4.56-.21 11.1-.35 18.9-.01.17-.01.35-.01.53l-.06 3.47c-.01.18-.01.37-.01.56-.36 19.52-.81 45.35-1.18 68.04-.56 34.1-1.46 86.75-2 117-.3 17.02-.57 33.29-.74 44.97-.02.96-.04 1.9-.05 2.81-.11 7.56-.18 12.73-.18 14.24v7.02l15.16 9.4 15.17 9.41 4.08-2.32c2.24-1.28 6.33-3.76 9.08-5.53 2.75-1.76 7.8-4.96 11.23-7.1l6.23-3.9v-10c0-.88-.02-3.47-.06-7.51l-.03-1.61-.03-2.68c-.01-.49-.01-.99-.02-1.51l-.03-2.45c0-.73-.02-1.47-.03-2.24l-.06-3.92c-.01-.91-.02-1.85-.04-2.81 0-.56 0-1.13-.02-1.71-.01-.91-.03-1.84-.04-2.79 0-.52 0-1.04-.02-1.57-.01-.83-.03-1.66-.04-2.52l-.06-4.31c-.02-1.1-.03-2.23-.05-3.37 0-.18 0-.35-.01-.53l-.06-4.19c-.02-1.55-.04-3.12-.07-4.72 0-1.32-.03-2.65-.06-4.01l-.03-2.41-.06-3.85c-.03-1.86-.05-3.75-.08-5.67-.01-.82-.02-1.64-.04-2.47-.01-.96-.03-1.93-.04-2.91-.02-1.52-.05-3.06-.07-4.62-.05-3.43-.1-6.94-.16-10.51-.01-.89-.02-1.78-.04-2.68-.03-2.13-.06-4.29-.1-6.46-.04-3.32-.09-6.69-.15-10.1 0-.13 0-.25-.01-.37-.03-2.68-.07-5.38-.12-8.11v-.08c-.08-5.51-.17-11.12-.26-16.79 0-.25 0-.49-.01-.73-.02-1.69-.05-3.37-.08-5.07 0-.29 0-.59-.01-.88l-.36-23.17c-.02-1.03-.04-2.06-.05-3.1-.03-2.32-.07-4.65-.11-6.98-.06-3.99-.12-7.98-.19-11.97.01-.07 0-.14 0-.22-.04-3.04-.09-6.08-.14-9.12-.04-2.39-.08-4.78-.11-7.16-.04-2.65-.09-5.3-.13-7.94-.03-1.7-.05-3.39-.08-5.08-.04-2.25-.07-4.49-.11-6.72-.02-1.44-.04-2.88-.07-4.31-.02-1.56-.04-3.11-.07-4.66-.05-2.93-.1-5.83-.14-8.71l-.09-5.38c-.01-.4-.01-.79-.01-1.17-.03-1.62-.06-3.23-.08-4.82l-.03-1.8-.06-3.78c-.08-4.61-.15-9.13-.22-13.54a.6.6 0 0 1 0-.19c-.2-11.41-.37-22.11-.54-31.81l-.69-40.78.06-.06 1.9-2.1.95-1.05c2.4-2.65 2.45-2.82.34-.97-1.27 1.12-2.1 1.78-2.62 2.02-.27.13-.46.14-.6.03-.24-.18-.31-.7-.33-1.55-.02-.96-.38-26.16-.81-56l-.78-54.25H523v-11.25c0-6.19-.3-21.71-.66-34.5M363.75 576.83c-.22-.13-.53-.32-.92-.56-.26-.16-.55-.34-.88-.54-.83-.51-1.86-1.14-3.07-1.89-.49-.3-1-.61-1.53-.94-2.15-1.32-4.7-2.89-7.51-4.62-1.4-.87-2.87-1.77-4.38-2.7-1.14-.7-2.3-1.42-3.47-2.14-1.96-1.21-3.97-2.45-5.99-3.7-2.01-1.24-4.15-2.56-6.36-3.91-.01-.01-.01-.02-.02-.02-.88-.53-1.76-1.08-2.65-1.63-.02-.01-.03-.02-.04-.03-11.33-6.98-23.94-14.73-31.1-19.11-7.96-4.87-15.02-9.41-17.13-10.99-.33-.24-.53-.41-.61-.5s-.14-.35-.2-.79c-.41-2.82-.54-12.92-.43-31.51.04-6.62.12-14.31.22-23.14l.32-26.67.33-27.5H361v-60h-81.17l.72-40.25c.39-22.14.99-49.92 1.33-61.75l.62-21.5 81.5-.52v-68.98H226.22l-.58 18.25c-.32 10.04-1.06 40.98-1.64 68.75-1.32 63.41-2.68 123.06-4.07 179-.6 23.92-1.17 59.92-1.26 80-.08 16.31-.06 26.53.39 33.67l.09 1.23c.25 3.36.62 6.01 1.13 8.32.07.26.13.52.19.77.37 1.48.81 2.82 1.33 4.13.14.37.3.74.45 1.11l.03.06c.12.28.25.55.37.83.69 1.51 1.5 3.07 2.44 4.82l2.93 5.45-1.38 1.5-1.88 2.05-3.26 3.56 3.26-2.94 3.25-2.94 5.23 5.33c5.23 5.35 11.75 9.91 32.26 22.55 6.05 3.73 15.5 9.58 21 13 39 24.26 45.99 28.6 67.34 41.84 6.79 4.21 12.76 7.66 13.25 7.66.53 0 .91-16.66.91-39.76v-39.76zm325.31-89.03c-.05-2.24-.11-4.69-.18-7.33-.02-1.07-.05-2.16-.08-3.29 0-.27-.01-.54-.02-.81-.04-1.88-.09-3.84-.14-5.87-.33-13.95-.74-31.1-1.16-48.4-.02-1.16-.04-2.31-.08-3.47-.32-13.57-.63-27.12-.91-39.19-.84-35.75-2.18-93.12-2.98-127.5-.62-26.27-1.18-52.76-1.44-67.42v-.09l-.03-1.57v-.98c-.01-.27-.01-.53-.01-.79-.01-.19-.01-.38-.01-.56-.01-.32-.01-.62-.02-.92 0-.33-.01-.65-.01-.96-.03-1.66-.04-3-.05-3.96v-.37c0-.27-.01-.54-.01-.8 0-.62-.01-1.21-.02-1.76-.01-.67-.01-1.3-.02-1.91 0-.49-.01-.93-.01-1.3-.06-4.24-.13-7.36-.19-8.19 0-.14-.01-.22-.02-.22-.09.12-21.08.5-46.66.84-28.4.39-40.82.55-48.46 1.72-.29.04-.57.08-.84.13-.53.09-1.03.18-1.52.29-.65.13-1.27.27-1.86.44-.25.06-.49.13-.73.2-.38.1-.74.22-1.11.34-.09.03-.17.06-.25.09-.23.07-.46.15-.7.24-.32.12-.63.24-.94.36-2.03.8-4.05 1.81-6.59 3.07-6.42 3.18-10.35 5.76-14.68 9.9a86 86 0 0 0-3.5 3.56c-5.97 6.38-11.28 15.34-14.03 23.62-.33.99-.62 2.01-.89 3.28-.01.03-.02.05-.01.08-.61 2.97-1.05 7.27-1.33 15.53-.01.39-.02.8-.04 1.21-.03.66-.05 1.35-.07 2.06 0 .16 0 .32-.01.49-.02.94-.05 1.93-.07 2.96-.51 24.3-.23 74.03.52 183.39.01 1.04.01 2.08.02 3.12.01 1.73.02 3.47.04 5.21.47 70.17.92 140.59 1.12 176.32.01.77.01 1.53.01 2.27.04 7.05.07 12.6.09 16.33 0 .82.01 1.62.01 2.42.01 2.11.02 4.16.04 6.12.01.45.01.91.01 1.36.05 5.75.11 10.81.2 15.11.02.65.03 1.28.04 1.9.03 1.53.06 2.95.1 4.26q.03 1.08.06 2.04c.01.2.02.4.02.59.02.38.03.75.04 1.11.17 4.34.37 6.71.6 6.83l.02.01c.2 0 5.07-2.92 12.63-7.54.03-.01.06-.03.09-.05.46-.28.93-.56 1.41-.86.03-.01.07-.03.1-.06.52-.31 1.04-.63 1.57-.96.54-.32 1.08-.66 1.64-1 1.34-.82 2.74-1.67 4.19-2.57.04-.02.09-.05.14-.08.55-.34 1.11-.68 1.68-1.04.91-.55 1.85-1.13 2.8-1.72 1.27-.77 2.57-1.57 3.9-2.39.05-.03.11-.07.17-.1.93-.58 1.88-1.16 2.84-1.76.74-.45 1.48-.91 2.24-1.37.6-.37 1.2-.75 1.81-1.12 2.18-1.35 4.4-2.72 6.65-4.11.55-.34 1.09-.67 1.64-1.02.46-.28.93-.57 1.39-.85.36-.23.72-.45 1.08-.67 5.88-3.64 11.85-7.34 17.62-10.92.63-.4 1.26-.79 1.89-1.18 9.99-6.21 19.29-12.02 26.41-16.51.26-.15.51-.31.75-.47 3.21-2.02 5.94-3.76 8.05-5.11 3.58-2.29 9.42-5.91 13-8.04 16.83-10.01 25.3-19.33 30.02-33.05 3.73-10.85 4.17-20.43 3.04-66.59Zm-51.18 28.1c-.9 1.47-6.07 5.52-11.5 9.01-23.19 14.89-26.12 16.77-30.85 19.77-2.73 1.74-5.07 3.05-5.2 2.92-.23-.22-1.36-96.45-2.9-245.66l-.64-61.5 2.39-3.48c1.31-1.92 3.49-4.05 4.85-4.74 1.7-.86 8.11-1.26 20.61-1.26l18.14-.02.64 17.25c.35 9.49 1.07 37.27 1.6 61.75.52 24.48 1.44 66.1 2.04 92.5 2.64 117.12 2.59 110.56.82 113.46M808 217.45c-3.08-12.69-13.6-38.17-16.25-39.34-.41-.19-.75-.77-.75-1.3 0-2.49-14.23-21.87-16.06-21.87-.38 0-1.69 3.94-2.91 8.75-9.15 36.17-5.86 67.85 10.42 100.37 5.76 11.49 19.51 31.88 21.51 31.88.34 0 1.44-3.04 2.45-6.75 6.68-24.74 7.21-48.54 1.59-71.74m-669.8-39.01c-1.81-9.69-5.54-24.47-6.18-24.47-.28.02-3.22 3.7-6.52 8.19-7.76 10.54-11.93 17.4-16.56 27.28-15.25 32.46-17.96 67.98-7.75 101.42 2.19 7.17 1.9 7.4 14.34-11.12 5.71-8.49 14.59-26.34 17.32-34.8 5.32-16.49 6.45-23.74 6.55-42 .06-10.58-.42-20.27-1.2-24.5m423.54-66.75c-.21-2.89-.37-.52-.37 5.25s.16 8.14.37 5.25c.2-2.89.2-7.61 0-10.5M433 114.48l-15.69-.29-13.5-.25-2.7-.05-.11-1.22-.27-3-.34-3.73-.04-.5-.02.5-.16 4.25-.17 4.75 16.75-.22 16.25-.22h.5zm152.27-19.13h-.01c-.92-.22-2.6-.34-4.51-.29-2.89.06-4.58.26-3.75.44.43.09.89.18 1.35.25 1.84.31 3.83.46 5.31.46.96-.01 1.71-.08 2.08-.23.17-.06.26-.14.26-.24 0-.15-.27-.28-.73-.39M354.38 82.07c-.03-.14-.06-.22-.1-.26-.05-.05-.1 0-.14.14-.17.56-.3 2.5-.36 5.33-.05 2.72-.05 6.26.02 10.17l.2 11.33.09 5.1H354l-2.01.06-9.44.27-11.55.33 23.5-.1.28-15.92c0-.57.02-1.13.03-1.69.08-7.29-.1-13.41-.43-14.76m25.01 32.48-5.87-.33-4.9-.28-1.58-.09-.04-2.66-.26-17.3-.27-17.75-.03-2.2v1.83l.03 18.42.03 20.25 6.75.07 6.17.07h.59zm182.31-42.6c-.06-.65-.13-1.01-.2-1.01-.13 0-.24 1.18-.34 3.11v.05c-.1 2.19-.16 5.33-.16 8.8v11.96l-1.82.08-5.93.26-6.48.28-1.27.06 8.25.2.92.02 7.33.18V83.41c0-5.12-.12-9.54-.3-11.46M433 83.48l-15.71-.29-13.51-.25-2.7-.05-.08-1.93-.26-6.29-.3-7.57-.03-.66-.02.68-.19 8.07-.2 8.75 16.75-.22L433 83.5h.5zm72.03 31.03-15.31-.31-13.23-.26-2.49-.05h-.06l.06-6.1.22-22.38c.1-10.16.13-19.12.1-24.16-.01-1.7-.02-2.96-.05-3.66-.01-.43-.03-.65-.05-.65-.16 0-.5.57-.77 1.26-.01.02-.01.04-.02.06-.1.51-.18 2.91-.23 6.58.01.06.01.13 0 .2l-.03 3.97c-.01 4.11-.01 9.13.03 14.54l.03 3.4.27 27.49 16 .04 15.53.04h.47-.47Zm-59.28-44.38c-.17-8.63-.3-1.29-.3 16.31s.13 24.66.3 15.69c.16-8.98.16-23.37 0-32M689.06 487.8c-.05-2.24-.11-4.69-.18-7.33-.02-1.07-.05-2.16-.08-3.29 0-.27-.01-.54-.02-.81-.04-1.88-.09-3.84-.14-5.87-.33-13.95-.74-31.1-1.16-48.4-.02-1.16-.04-2.31-.08-3.47-.32-13.57-.63-27.12-.91-39.19-.84-35.75-2.18-93.12-2.98-127.5-.62-26.27-1.18-52.76-1.44-67.42v-.09l-.03-1.57v-.98c-.01-.27-.01-.53-.01-.79-.01-.19-.01-.38-.01-.56-.01-.32-.01-.62-.02-.92 0-.33-.01-.65-.01-.96-.03-1.66-.04-3-.05-3.96v-.37c0-.27-.01-.54-.01-.8 0-.62-.01-1.21-.02-1.76-.01-.67-.01-1.3-.02-1.91 0-.49-.01-.93-.01-1.3-.06-4.24-.13-7.36-.19-8.19 0-.14-.01-.22-.02-.22-.09.12-21.08.5-46.66.84-28.4.39-40.82.55-48.46 1.72-.29.04-.57.08-.84.13-.53.09-1.03.18-1.52.29-.65.13-1.27.27-1.86.44-.25.06-.49.13-.73.2-.38.1-.74.22-1.11.34-.09.03-.17.06-.25.09-.23.07-.46.15-.7.24-.32.12-.63.24-.94.36-2.03.8-4.05 1.81-6.59 3.07-6.42 3.18-10.35 5.76-14.68 9.9a86 86 0 0 0-3.5 3.56c-5.97 6.38-11.28 15.34-14.03 23.62-.33.99-.62 2.01-.89 3.28-.01.03-.02.05-.01.08-.61 2.97-1.05 7.27-1.33 15.53-.01.39-.02.8-.04 1.21-.03.66-.05 1.35-.07 2.06 0 .16 0 .32-.01.49-.02.94-.05 1.93-.07 2.96-.51 24.3-.23 74.03.52 183.39.01 1.04.01 2.08.02 3.12.01 1.73.02 3.47.04 5.21.47 70.17.92 140.59 1.12 176.32.01.77.01 1.53.01 2.27.04 7.05.07 12.6.09 16.33 0 .82.01 1.62.01 2.42.01 2.11.02 4.16.04 6.12.01.45.01.91.01 1.36.05 5.75.11 10.81.2 15.11.02.65.03 1.28.04 1.9.03 1.53.06 2.95.1 4.26q.03 1.08.06 2.04c.01.2.02.4.02.59.02.38.03.75.04 1.11.17 4.34.37 6.71.6 6.83l.02.01c.2 0 5.07-2.92 12.63-7.54.03-.01.06-.03.09-.05.46-.28.93-.56 1.41-.86.03-.01.07-.03.1-.06.52-.31 1.04-.63 1.57-.96.54-.32 1.08-.66 1.64-1 1.34-.82 2.74-1.67 4.19-2.57.04-.02.09-.05.14-.08.55-.34 1.11-.68 1.68-1.04.91-.55 1.85-1.13 2.8-1.72 1.27-.77 2.57-1.57 3.9-2.39.05-.03.11-.07.17-.1.93-.58 1.88-1.16 2.84-1.76.74-.45 1.48-.91 2.24-1.37.6-.37 1.2-.75 1.81-1.12 2.18-1.35 4.4-2.72 6.65-4.11.55-.34 1.09-.67 1.64-1.02.46-.28.93-.57 1.39-.85.36-.23.72-.45 1.08-.67 5.88-3.64 11.85-7.34 17.62-10.92.63-.4 1.26-.79 1.89-1.18 9.99-6.21 19.29-12.02 26.41-16.51.26-.15.51-.31.75-.47 3.21-2.02 5.94-3.76 8.05-5.11 3.58-2.29 9.42-5.91 13-8.04 16.83-10.01 25.3-19.33 30.02-33.05 3.73-10.85 4.17-20.43 3.04-66.59Zm-51.18 28.1c-.9 1.47-6.07 5.52-11.5 9.01-23.19 14.89-26.12 16.77-30.85 19.77-2.73 1.74-5.07 3.05-5.2 2.92-.23-.22-1.36-96.45-2.9-245.66l-.64-61.5 2.39-3.48c1.31-1.92 3.49-4.05 4.85-4.74 1.7-.86 8.11-1.26 20.61-1.26l18.14-.02.64 17.25c.35 9.49 1.07 37.27 1.6 61.75.52 24.48 1.44 66.1 2.04 92.5 2.64 117.12 2.59 110.56.82 113.46M577 95.5c.43.09.89.18 1.35.25 1.84.31 3.83.46 5.31.46.96-.01 1.71-.08 2.08-.23.17-.06.26-.14.26-.24 0-.15-.27-.28-.73-.39h-.01c-.92-.22-2.6-.34-4.51-.29-2.89.06-4.58.26-3.75.44m-15.63 21.44c0 5.77.16 8.14.37 5.25.2-2.89.2-7.61 0-10.5-.21-2.89-.37-.52-.37 5.25m-6.7-21.18 7.33.18V83.41c0-5.12-.12-9.54-.3-11.46-.06-.65-.13-1.01-.2-1.01-.13 0-.24 1.18-.34 3.11v.05c-.1 2.19-.16 5.33-.16 8.8v11.96l-1.82.08-5.93.26-6.48.28-1.27.06 8.25.2zm-32.99 65.18H385v68.96l22.75.27 22.75.27-.29 23.5c-.34 27.2-1.2 82.4-1.9 123.34-.28 16.42-.53 30.55-.72 39.66-.09 4.56-.21 11.1-.35 18.9-.01.17-.01.35-.01.53l-.06 3.47c-.01.18-.01.37-.01.56-.36 19.52-.81 45.35-1.18 68.04-.56 34.1-1.46 86.75-2 117-.3 17.02-.57 33.29-.74 44.97-.02.96-.04 1.9-.05 2.81-.11 7.56-.18 12.73-.18 14.24v7.02l15.16 9.4 15.17 9.41 4.08-2.32c2.24-1.28 6.33-3.76 9.08-5.53 2.75-1.76 7.8-4.96 11.23-7.1l6.23-3.9v-10c0-.88-.02-3.47-.06-7.51l-.03-1.61-.03-2.68c-.01-.49-.01-.99-.02-1.51l-.03-2.45c0-.73-.02-1.47-.03-2.24l-.06-3.92c-.01-.91-.02-1.85-.04-2.81 0-.56 0-1.13-.02-1.71-.01-.91-.03-1.84-.04-2.79 0-.52 0-1.04-.02-1.57-.01-.83-.03-1.66-.04-2.52l-.06-4.31c-.02-1.1-.03-2.23-.05-3.37 0-.18 0-.35-.01-.53l-.06-4.19c-.02-1.55-.04-3.12-.07-4.72 0-1.32-.03-2.65-.06-4.01l-.03-2.41-.06-3.85c-.03-1.86-.05-3.75-.08-5.67-.01-.82-.02-1.64-.04-2.47-.01-.96-.03-1.93-.04-2.91-.02-1.52-.05-3.06-.07-4.62-.05-3.43-.1-6.94-.16-10.51-.01-.89-.02-1.78-.04-2.68-.03-2.13-.06-4.29-.1-6.46-.04-3.32-.09-6.69-.15-10.1 0-.13 0-.25-.01-.37-.03-2.68-.07-5.38-.12-8.11v-.08c-.08-5.51-.17-11.12-.26-16.79 0-.25 0-.49-.01-.73-.02-1.69-.05-3.37-.08-5.07 0-.29 0-.59-.01-.88l-.36-23.17c-.02-1.03-.04-2.06-.05-3.1-.03-2.32-.07-4.65-.11-6.98-.06-3.99-.12-7.98-.19-11.97.01-.07 0-.14 0-.22-.04-3.04-.09-6.08-.14-9.12-.04-2.39-.08-4.78-.11-7.16-.04-2.65-.09-5.3-.13-7.94-.03-1.7-.05-3.39-.08-5.08-.04-2.25-.07-4.49-.11-6.72-.02-1.44-.04-2.88-.07-4.31-.02-1.56-.04-3.11-.07-4.66-.05-2.93-.1-5.83-.14-8.71l-.09-5.38c-.01-.4-.01-.79-.01-1.17-.03-1.62-.06-3.23-.08-4.82l-.03-1.8-.06-3.78c-.08-4.61-.15-9.13-.22-13.54a.6.6 0 0 1 0-.19c-.2-11.41-.37-22.11-.54-31.81l-.69-40.78.06-.06 1.9-2.1.95-1.05c2.4-2.65 2.45-2.82.34-.97-1.27 1.12-2.1 1.78-2.62 2.02-.27.13-.46.14-.6.03-.24-.18-.31-.7-.33-1.55-.02-.96-.38-26.16-.81-56l-.78-54.25H523v-11.25c0-6.19-.3-21.71-.66-34.5zm-48.45-73.99.27 27.49 16 .04 15.53.04h.47-.47l-15.31-.32-13.23-.26-2.49-.05h-.06l.06-6.1.22-22.38c.1-10.16.13-19.12.1-24.16-.01-1.7-.02-2.96-.05-3.66-.01-.43-.03-.65-.05-.65-.16 0-.5.57-.77 1.26-.01.02-.01.04-.02.06-.1.51-.18 2.91-.23 6.58.01.06.01.13 0 .2l-.03 3.97c-.01 4.11-.01 9.13.03 14.54zm-27.48 15.18c.16-8.98.16-23.37 0-32-.17-8.63-.3-1.29-.3 16.31s.13 24.66.3 15.69M433 114.5h.5l-.5-.02-15.69-.29-13.5-.25-2.7-.05-.11-1.22-.27-3-.34-3.73-.04-.5-.02.5-.16 4.25-.17 4.75 16.75-.22zm0-31h.5l-.5-.02-15.71-.29-13.51-.25-2.7-.05-.08-1.93-.26-6.29-.3-7.57-.03-.66-.02.68-.19 8.07-.2 8.75 16.75-.22zm-59.48 30.72-4.9-.28-1.58-.09-.04-2.66-.26-17.3-.27-17.75-.03-2.2v1.83l.03 18.42.03 20.25 6.75.07 6.17.07h.59l-.62-.03zm-10.69 462.05c-.26-.16-.55-.34-.88-.54-.83-.51-1.86-1.14-3.07-1.89-.49-.3-1-.61-1.53-.94-2.15-1.32-4.7-2.89-7.51-4.62-1.4-.87-2.87-1.77-4.38-2.7-1.14-.7-2.3-1.42-3.47-2.14-1.96-1.21-3.97-2.45-5.99-3.7-2.01-1.24-4.15-2.56-6.36-3.91-.01-.01-.01-.02-.02-.02-.88-.53-1.76-1.08-2.65-1.63-.02-.01-.03-.02-.04-.03-11.33-6.98-23.94-14.73-31.1-19.11-7.96-4.87-15.02-9.41-17.13-10.99-.33-.24-.53-.41-.61-.5s-.14-.35-.2-.79c-.41-2.82-.54-12.92-.43-31.51.04-6.62.12-14.31.22-23.14l.32-26.67.33-27.5H361v-60h-81.17l.72-40.25c.39-22.14.99-49.92 1.33-61.75l.62-21.5 81.5-.52v-68.98H226.22l-.58 18.25c-.32 10.04-1.06 40.98-1.64 68.75-1.32 63.41-2.68 123.06-4.07 179-.6 23.92-1.17 59.92-1.26 80-.08 16.31-.06 26.53.39 33.67l.09 1.23c.25 3.36.62 6.01 1.13 8.32.07.26.13.52.19.77.37 1.48.81 2.82 1.33 4.13.14.37.3.74.45 1.11l.03.06c.12.28.25.55.37.83.69 1.51 1.5 3.07 2.44 4.82l2.93 5.45-1.38 1.5-1.88 2.05-3.26 3.56 3.26-2.94 3.25-2.94 5.23 5.33c5.23 5.35 11.75 9.91 32.26 22.55 6.05 3.73 15.5 9.58 21 13 39 24.26 45.99 28.6 67.34 41.84 6.79 4.21 12.76 7.66 13.25 7.66.53 0 .91-16.66.91-39.76v-39.76l-4.25-2.59c-.22-.13-.53-.32-.92-.56m-8.33-461.83.28-15.92c0-.57.02-1.13.03-1.69.08-7.29-.1-13.41-.43-14.76-.03-.14-.06-.22-.1-.26-.05-.05-.1 0-.14.14-.17.56-.3 2.5-.36 5.33-.05 2.72-.05 6.26.02 10.17l.2 11.33.09 5.1H354l-2.01.06-9.44.27-11.55.33zm387.9 387c-.06-26.4-.63-72.3-1.28-102-2.24-103.62-3.09-145.38-4.08-200-.54-30.25-1.28-61.18-1.64-68.74-.64-13.37-.73-13.81-3.54-16.75l-2.88-3.01H617.77l.66-4.75c.68-4.82 3.16-18.51 6.71-36.92 1.76-9.15 1.81-10.52.48-13.68-2.2-5.28-2.59-5.44-50.62-19.61-9.66-2.85-42.33-12.65-60.5-18.14-20.82-6.3-32.07-9.66-34-10.17-1.1-.29-7.25-2.15-13.67-4.13S454.34-.03 453.33 0s-4.75.94-8.33 2.03-9.2 2.82-12.5 3.86-13.2 3.99-22 6.56-20.27 6.03-25.5 7.7-10.85 3.37-12.5 3.79c-1.65.43-6.83 1.91-11.5 3.31-33.93 10.17-43.64 13.08-52 15.64-5.23 1.6-12.74 3.85-16.7 5-8.81 2.57-11.3 5.2-11.3 11.93 0 4.1 1.43 12.66 6.54 39.22.8 4.18 1.46 8.57 1.46 9.75v2.15h-54.6c-59.68 0-58.67-.1-61.36 5.8-.73 1.62-1.46 18.49-2.08 48.59-.53 25.36-1.41 68.16-1.96 95.11s-1.44 69.7-1.97 95c-2.43 116.01-3.23 169.96-2.7 181.5 1.27 27.7 12.14 52.61 31.22 71.52 8.84 8.76 17.83 15.03 45.74 31.92 1.76 1.07 6.13 3.82 9.71 6.1 3.58 2.29 12.93 8.17 20.79 13.06 7.85 4.9 17.98 11.22 22.5 14.06 4.51 2.83 12.71 7.89 18.21 11.24s14.05 8.64 19 11.75c4.95 3.12 11.7 7.37 15 9.45 3.3 2.07 9.38 5.84 13.5 8.36 19.85 12.13 24.76 15.2 27.52 17.17 1.64 1.18 4.56 3.03 6.48 4.12s7.1 4.21 11.5 6.93c4.4 2.73 9.12 5.6 10.5 6.39s2.73 1.68 3 1.98 2.72 1.87 5.44 3.5c5.85 3.49 8.66 5.22 19.88 12.2 4.63 2.89 8.8 5.25 9.26 5.25 1.11 0 27.65-16.12 30.92-18.79.55-.44 1.67-1.12 2.5-1.49s4.65-2.69 8.5-5.15c3.85-2.47 11.05-6.98 16-10.04 4.95-3.05 13.95-8.65 20-12.46s14.83-9.23 19.5-12.05c10.23-6.19 38.08-23.58 39.55-24.71.58-.45 2.15-1.45 3.5-2.24s6.05-3.66 10.45-6.39c4.4-2.72 9.22-5.68 10.72-6.57 7.12-4.23 23.72-14.65 27.44-17.23 2.29-1.58 4.45-2.88 4.79-2.88s1.85-.83 3.34-1.84c1.49-1.02 4.51-2.97 6.71-4.34s7.6-4.74 12-7.5 12.05-7.55 17-10.65 9.45-6 10-6.44c.55-.45 3.09-2.25 5.64-4 8.35-5.72 22.06-21.82 28.14-33.04 2.95-5.46 7.49-17.51 9.93-26.36 2.25-8.17 2.29-9.23 2.19-56.33m-16.81 44.26c-4.15 24.81-15.08 44.15-32.59 57.68-4.61 3.57-23.03 15.57-29.25 19.06-.98.55-11.11 6.82-22.52 13.93-19.29 12.04-28.14 17.58-47.23 29.59-4.12 2.6-22.58 14.08-41 25.51s-48.2 29.94-66.16 41.13-32.9 20.34-33.19 20.34c-.5 0-22.08-13.21-37.15-22.74-3.85-2.44-20.73-12.93-37.5-23.31s-30.97-19.27-31.55-19.76c-.57-.49-1.49-1.07-2.04-1.29s-8.86-5.31-18.46-11.3c-9.59-6-28.7-17.88-42.45-26.41-6.59-4.09-12.6-7.82-18.12-11.25-2.08-1.29-4.08-2.54-6.02-3.74-.73-.46-1.44-.91-2.15-1.35-12.73-7.93-22.63-14.15-31.21-19.59-.92-.58-1.83-1.17-2.71-1.75-.08-.05-.16-.1-.23-.16-4.33-2.85-8.25-5.73-11.81-8.67a1 1 0 0 1-.1-.08c-3.51-2.89-6.66-5.85-9.5-8.9-.34-.36-.67-.72-.98-1.08a78 78 0 0 1-4.02-4.82 76.4 76.4 0 0 1-9.74-16.67 89 89 0 0 1-2.93-7.86c-.47-1.46-.9-2.72-1.3-3.94l-.03-.09c-1.18-3.63-2.04-6.89-2.59-13.87-.91-11.82-.92-34.31-.01-87.33 0-.14 0-.28.01-.42.64-37.4 1.74-89.95 3.29-164.55.12-5.62.23-11.07.34-16.43l.06-3.02.15-7.17c.02-1.14.05-2.29.07-3.45 0-.17.01-.33.01-.5.12-5.9.25-12.35.38-19.04.03-1.13.05-2.27.07-3.42.09-4.45.18-8.97.26-13.47.03-1.19.05-2.38.07-3.56.08-4.14.15-8.25.22-12.23.02-.74.03-1.47.05-2.2v-.45c.02-.74.03-1.48.05-2.21v-.4c.02-1.19.04-2.36.07-3.51 0-.51 0-1.02.02-1.53.02-.75.03-1.5.05-2.23.06-3.71.12-7.22.18-10.42 0-.7.02-1.39.03-2.07.01-.34.01-.67.02-1l.03-1.93.03-1.83c.31-18.98.81-38.66 1.12-43.75l.56-9.25h58.82c32.35 0 59.46-.24 60.23-.54 1.15-.44.46-5.69-3.84-29.25-2.88-15.79-5.54-29.95-5.92-31.46s-.44-2.75-.13-2.75c.53 0 24.6-7.14 42.15-12.5 16.1-4.92 34.05-10.29 36-10.78 1.98-.49 28.64-8.51 44-13.23 4.4-1.36 13.76-4.2 20.81-6.32 14.74-4.43 11.09-4.79 39.19 3.83 9.35 2.87 18.58 5.65 20.5 6.19 1.92.55 10.92 3.25 20 6.01s17.85 5.37 19.5 5.79c1.65.41 10.65 3.1 20 5.96 9.35 2.87 22.17 6.74 28.5 8.61 18.68 5.52 19.45 5.77 20.6 6.62 1.17.87 1.08 1.57-2.54 21.32l-4.13 22.5c-1.16 6.32-2.35 13.41-2.65 15.74l-.54 4.24v.02h59.57c23.36 0 43.82.19 53.73.47 3.13.09 5.21.19 6.01.29h.01c.21.03.33.06.35.09.02.04.05.2.07.5.32 3.6.95 26.35 1.87 66.92 0 .28.01.56.02.84.04 1.62.08 3.26.11 4.92l.06 2.83c.03 1.05.05 2.1.07 3.17 0 .27.01.55.02.83.03 1.09.05 2.18.07 3.29 0 .26.01.52.02.78.01.69.03 1.38.04 2.07l.15 6.65c.02 1.15.05 2.3.07 3.47l.12 5.37c.02 1.25.05 2.51.08 3.78.05 2.49.1 5.02.16 7.6.03 1.34.05 2.69.08 4.06.13 6.16.27 12.55.4 19.18.03 1.13.05 2.28.07 3.43.01.3.02.6.02.9l.06 2.7c0 .14 0 .28.01.42.03 1.67.07 3.35.1 5.03.02.85.03 1.69.05 2.54.02.84.04 1.7.05 2.55.01.16.01.33.01.49l.06 2.82.09 4.43.09 4.18c0 .35.01.69.02 1.04.02.88.03 1.76.05 2.63.02.88.04 1.76.05 2.65.04 1.76.08 3.54.11 5.32.04 2.06.08 4.14.13 6.23l.18 9.27.06 3.13c0 .32.02.64.02.96.03 1.62.07 3.26.1 4.9.04 1.84.07 3.68.11 5.55l.09 4.64c.01.31.01.63.02.95.04 1.87.07 3.74.11 5.63.81 41.25 2.01 100.65 2.65 132 1.09 52.59 1.05 57.79-.54 67.26m-36.71-65.23c-.02-1.07-.05-2.16-.08-3.29 0-.27-.01-.54-.02-.81-.04-1.88-.09-3.84-.14-5.87-.33-13.95-.74-31.1-1.16-48.4-.02-1.16-.04-2.31-.08-3.47-.32-13.57-.63-27.12-.91-39.19-.84-35.75-2.18-93.12-2.98-127.5-.62-26.27-1.18-52.76-1.44-67.42v-.09l-.03-1.57v-.98c-.01-.27-.01-.53-.01-.79-.01-.19-.01-.38-.01-.56-.01-.32-.01-.62-.02-.92 0-.33-.01-.65-.01-.96-.03-1.66-.04-3-.05-3.96v-.37c0-.27-.01-.54-.01-.8 0-.62-.01-1.21-.02-1.76-.01-.67-.01-1.3-.02-1.91 0-.49-.01-.93-.01-1.3-.06-4.24-.13-7.36-.19-8.19 0-.14-.01-.22-.02-.22-.09.12-21.08.5-46.66.84-28.4.39-40.82.55-48.46 1.72-.29.04-.57.08-.84.13-.53.09-1.03.18-1.52.29-.65.13-1.27.27-1.86.44-.25.06-.49.13-.73.2-.38.1-.74.22-1.11.34-.09.03-.17.06-.25.09-.23.07-.46.15-.7.24-.32.12-.63.24-.94.36-2.03.8-4.05 1.81-6.59 3.07-6.42 3.18-10.35 5.76-14.68 9.9a86 86 0 0 0-3.5 3.56c-5.97 6.38-11.28 15.34-14.03 23.62-.33.99-.62 2.01-.89 3.28-.01.03-.02.05-.01.08-.61 2.97-1.05 7.27-1.33 15.53-.01.39-.02.8-.04 1.21-.03.66-.05 1.35-.07 2.06 0 .16 0 .32-.01.49-.02.94-.05 1.93-.07 2.96-.51 24.3-.23 74.03.52 183.39.01 1.04.01 2.08.02 3.12.01 1.73.02 3.47.04 5.21.47 70.17.92 140.59 1.12 176.32.01.77.01 1.53.01 2.27.04 7.05.07 12.6.09 16.33 0 .82.01 1.62.01 2.42.01 2.11.02 4.16.04 6.12.01.45.01.91.01 1.36.05 5.75.11 10.81.2 15.11.02.65.03 1.28.04 1.9.03 1.53.06 2.95.1 4.26q.03 1.08.06 2.04c.01.2.02.4.02.59.02.38.03.75.04 1.11.17 4.34.37 6.71.6 6.83l.02.01c.2 0 5.07-2.92 12.63-7.54.03-.01.06-.03.09-.05.46-.28.93-.56 1.41-.86.03-.01.07-.03.1-.06.52-.31 1.04-.63 1.57-.96.54-.32 1.08-.66 1.64-1 1.34-.82 2.74-1.67 4.19-2.57.04-.02.09-.05.14-.08.55-.34 1.11-.68 1.68-1.04.91-.55 1.85-1.13 2.8-1.72 1.27-.77 2.57-1.57 3.9-2.39.05-.03.11-.07.17-.1.93-.58 1.88-1.16 2.84-1.76.74-.45 1.48-.91 2.24-1.37.6-.37 1.2-.75 1.81-1.12 2.18-1.35 4.4-2.72 6.65-4.11.55-.34 1.09-.67 1.64-1.02.46-.28.93-.57 1.39-.85.36-.23.72-.45 1.08-.67 5.88-3.64 11.85-7.34 17.62-10.92.63-.4 1.26-.79 1.89-1.18 9.99-6.21 19.29-12.02 26.41-16.51.26-.15.51-.31.75-.47 3.21-2.02 5.94-3.76 8.05-5.11 3.58-2.29 9.42-5.91 13-8.04 16.83-10.01 25.3-19.33 30.02-33.05 3.73-10.85 4.17-20.43 3.04-66.59-.05-2.24-.11-4.69-.18-7.33Zm-51 35.43c-.9 1.47-6.07 5.52-11.5 9.01-23.19 14.89-26.12 16.77-30.85 19.77-2.73 1.74-5.07 3.05-5.2 2.92-.23-.22-1.36-96.45-2.9-245.66l-.64-61.5 2.39-3.48c1.31-1.92 3.49-4.05 4.85-4.74 1.7-.86 8.11-1.26 20.61-1.26l18.14-.02.64 17.25c.35 9.49 1.07 37.27 1.6 61.75.52 24.48 1.44 66.1 2.04 92.5 2.64 117.12 2.59 110.56.82 113.46M577 95.5c.43.09.89.18 1.35.25 1.84.31 3.83.46 5.31.46.96-.01 1.71-.08 2.08-.23.17-.06.26-.14.26-.24 0-.15-.27-.28-.73-.39h-.01c-.92-.22-2.6-.34-4.51-.29-2.89.06-4.58.26-3.75.44m-15.63 21.44c0 5.77.16 8.14.37 5.25.2-2.89.2-7.61 0-10.5-.21-2.89-.37-.52-.37 5.25m-6.7-21.18 7.33.18V83.41c0-5.12-.12-9.54-.3-11.46-.06-.65-.13-1.01-.2-1.01-.13 0-.24 1.18-.34 3.11v.05c-.1 2.19-.16 5.33-.16 8.8v11.96l-1.82.08-5.93.26-6.48.28-1.27.06 8.25.2zm-32.99 65.18H385v68.96l22.75.27 22.75.27-.29 23.5c-.34 27.2-1.2 82.4-1.9 123.34-.28 16.42-.53 30.55-.72 39.66-.09 4.56-.21 11.1-.35 18.9-.01.17-.01.35-.01.53l-.06 3.47c-.01.18-.01.37-.01.56-.36 19.52-.81 45.35-1.18 68.04-.56 34.1-1.46 86.75-2 117-.3 17.02-.57 33.29-.74 44.97-.02.96-.04 1.9-.05 2.81-.11 7.56-.18 12.73-.18 14.24v7.02l15.16 9.4 15.17 9.41 4.08-2.32c2.24-1.28 6.33-3.76 9.08-5.53 2.75-1.76 7.8-4.96 11.23-7.1l6.23-3.9v-10c0-.88-.02-3.47-.06-7.51l-.03-1.61-.03-2.68c-.01-.49-.01-.99-.02-1.51l-.03-2.45c0-.73-.02-1.47-.03-2.24l-.06-3.92c-.01-.91-.02-1.85-.04-2.81 0-.56 0-1.13-.02-1.71-.01-.91-.03-1.84-.04-2.79 0-.52 0-1.04-.02-1.57-.01-.83-.03-1.66-.04-2.52l-.06-4.31c-.02-1.1-.03-2.23-.05-3.37 0-.18 0-.35-.01-.53l-.06-4.19c-.02-1.55-.04-3.12-.07-4.72 0-1.32-.03-2.65-.06-4.01l-.03-2.41-.06-3.85c-.03-1.86-.05-3.75-.08-5.67-.01-.82-.02-1.64-.04-2.47-.01-.96-.03-1.93-.04-2.91-.02-1.52-.05-3.06-.07-4.62-.05-3.43-.1-6.94-.16-10.51-.01-.89-.02-1.78-.04-2.68-.03-2.13-.06-4.29-.1-6.46-.04-3.32-.09-6.69-.15-10.1 0-.13 0-.25-.01-.37-.03-2.68-.07-5.38-.12-8.11v-.08c-.08-5.51-.17-11.12-.26-16.79 0-.25 0-.49-.01-.73-.02-1.69-.05-3.37-.08-5.07 0-.29 0-.59-.01-.88l-.36-23.17c-.02-1.03-.04-2.06-.05-3.1-.03-2.32-.07-4.65-.11-6.98-.06-3.99-.12-7.98-.19-11.97.01-.07 0-.14 0-.22-.04-3.04-.09-6.08-.14-9.12-.04-2.39-.08-4.78-.11-7.16-.04-2.65-.09-5.3-.13-7.94-.03-1.7-.05-3.39-.08-5.08-.04-2.25-.07-4.49-.11-6.72-.02-1.44-.04-2.88-.07-4.31-.02-1.56-.04-3.11-.07-4.66-.05-2.93-.1-5.83-.14-8.71l-.09-5.38c-.01-.4-.01-.79-.01-1.17-.03-1.62-.06-3.23-.08-4.82l-.03-1.8-.06-3.78c-.08-4.61-.15-9.13-.22-13.54a.6.6 0 0 1 0-.19c-.2-11.41-.37-22.11-.54-31.81l-.69-40.78.06-.06 1.9-2.1.95-1.05c2.4-2.65 2.45-2.82.34-.97-1.27 1.12-2.1 1.78-2.62 2.02-.27.13-.46.14-.6.03-.24-.18-.31-.7-.33-1.55-.02-.96-.38-26.16-.81-56l-.78-54.25H523v-11.25c0-6.19-.3-21.71-.66-34.5zm-48.45-73.99.27 27.49 16 .04 15.53.04h.47-.47l-15.31-.32-13.23-.26-2.49-.05h-.06l.06-6.1.22-22.38c.1-10.16.13-19.12.1-24.16-.01-1.7-.02-2.96-.05-3.66-.01-.43-.03-.65-.05-.65-.16 0-.5.57-.77 1.26-.01.02-.01.04-.02.06-.1.51-.18 2.91-.23 6.58.01.06.01.13 0 .2l-.03 3.97c-.01 4.11-.01 9.13.03 14.54zm-27.48 15.18c.16-8.98.16-23.37 0-32-.17-8.63-.3-1.29-.3 16.31s.13 24.66.3 15.69M433 114.5h.5l-.5-.02-15.69-.29-13.5-.25-2.7-.05-.11-1.22-.27-3-.34-3.73-.04-.5-.02.5-.16 4.25-.17 4.75 16.75-.22zm0-31h.5l-.5-.02-15.71-.29-13.51-.25-2.7-.05-.08-1.93-.26-6.29-.3-7.57-.03-.66-.02.68-.19 8.07-.2 8.75 16.75-.22zm-59.48 30.72-4.9-.28-1.58-.09-.04-2.66-.26-17.3-.27-17.75-.03-2.2v1.83l.03 18.42.03 20.25 6.75.07 6.17.07h.59l-.62-.03zm-10.69 462.05c-.26-.16-.55-.34-.88-.54-.83-.51-1.86-1.14-3.07-1.89-.49-.3-1-.61-1.53-.94-2.15-1.32-4.7-2.89-7.51-4.62-1.4-.87-2.87-1.77-4.38-2.7-1.14-.7-2.3-1.42-3.47-2.14-1.96-1.21-3.97-2.45-5.99-3.7-2.01-1.24-4.15-2.56-6.36-3.91-.01-.01-.01-.02-.02-.02-.88-.53-1.76-1.08-2.65-1.63-.02-.01-.03-.02-.04-.03-11.33-6.98-23.94-14.73-31.1-19.11-7.96-4.87-15.02-9.41-17.13-10.99-.33-.24-.53-.41-.61-.5s-.14-.35-.2-.79c-.41-2.82-.54-12.92-.43-31.51.04-6.62.12-14.31.22-23.14l.32-26.67.33-27.5H361v-60h-81.17l.72-40.25c.39-22.14.99-49.92 1.33-61.75l.62-21.5 81.5-.52v-68.98H226.22l-.58 18.25c-.32 10.04-1.06 40.98-1.64 68.75-1.32 63.41-2.68 123.06-4.07 179-.6 23.92-1.17 59.92-1.26 80-.08 16.31-.06 26.53.39 33.67l.09 1.23c.25 3.36.62 6.01 1.13 8.32.07.26.13.52.19.77.37 1.48.81 2.82 1.33 4.13.14.37.3.74.45 1.11l.03.06c.12.28.25.55.37.83.69 1.51 1.5 3.07 2.44 4.82l2.93 5.45-1.38 1.5-1.88 2.05-3.26 3.56 3.26-2.94 3.25-2.94 5.23 5.33c5.23 5.35 11.75 9.91 32.26 22.55 6.05 3.73 15.5 9.58 21 13 39 24.26 45.99 28.6 67.34 41.84 6.79 4.21 12.76 7.66 13.25 7.66.53 0 .91-16.66.91-39.76v-39.76l-4.25-2.59c-.22-.13-.53-.32-.92-.56m-8.33-461.83.28-15.92c0-.57.02-1.13.03-1.69.08-7.29-.1-13.41-.43-14.76-.03-.14-.06-.22-.1-.26-.05-.05-.1 0-.14.14-.17.56-.3 2.5-.36 5.33-.05 2.72-.05 6.26.02 10.17l.2 11.33.09 5.1H354l-2.01.06-9.44.27-11.55.33z" style="fill-rule:evenodd;fill:#bc9464" data-source="https://football-logos.cc"></path><path d="M504.96 90.44c-.05-12.93-.21-23.5-.36-23.5 0 0-.04-.01-.1-.02-1.7-.45-24.56-7.25-28.75-8.57-.75-.23-1.18.01-1.43 2.9-.29 3.39-.32 10.43-.32 24.62v28.07h31.06zm-71.99-23.69c-.05-2.33-.13-4.36-.24-5.88-.01-.05-.01-.11-.01-.16-.13-1.69-.3-2.69-.47-2.67-.04.01-.12.02-.23.05-.97.24-4.56 1.31-8.52 2.53-4.4 1.37-11.26 3.42-15.25 4.56L401 67.26v15.68h32v-12.5c0-1.28-.01-2.52-.03-3.69m71.99 23.69c-.05-12.93-.21-23.5-.36-23.5 0 0-.04-.01-.1-.02-1.7-.45-24.56-7.25-28.75-8.57-.75-.23-1.18.01-1.43 2.9-.29 3.39-.32 10.43-.32 24.62v28.07h31.06zm-71.99-23.69c-.05-2.33-.13-4.36-.24-5.88-.01-.05-.01-.11-.01-.16-.13-1.69-.3-2.69-.47-2.67-.04.01-.12.02-.23.05-.97.24-4.56 1.31-8.52 2.53-4.4 1.37-11.26 3.42-15.25 4.56L401 67.26v15.68h32v-12.5c0-1.28-.01-2.52-.03-3.69m279.07 60.66-53.49-.23-55.21-.24-4.6-.02.54-4.24c.3-2.33 1.49-9.42 2.65-15.74l4.13-22.5c3.62-19.75 3.71-20.45 2.54-21.32-1.15-.85-1.92-1.1-20.6-6.62-6.33-1.87-19.15-5.74-28.5-8.61-9.35-2.86-18.35-5.55-20-5.96-1.65-.42-10.42-3.03-19.5-5.79s-18.08-5.46-20-6.01c-1.92-.54-11.15-3.32-20.5-6.19-28.1-8.62-24.45-8.26-39.19-3.83-7.05 2.12-16.41 4.96-20.81 6.32-15.36 4.72-42.02 12.74-44 13.23-1.95.49-19.9 5.86-36 10.78-17.55 5.36-41.62 12.5-42.15 12.5-.31 0-.25 1.24.13 2.75s3.04 15.67 5.92 31.46c4.3 23.56 4.99 28.81 3.84 29.25-.77.3-27.88.54-60.23.54h-58.82l-.56 9.25c-.31 5.09-.81 24.77-1.12 43.75a1703 1703 0 0 0-.06 3.76c-.01.33-.01.66-.02 1l-.03 2.07c-.06 3.2-.12 6.71-.18 10.42-.02.74-.03 1.48-.05 2.23-.01.51-.01 1.02-.02 1.53-.02 1.16-.04 2.33-.07 3.51v.4c-.02.73-.03 1.47-.05 2.21v.45c-.02.73-.03 1.46-.05 2.2-.07 3.98-.14 8.09-.22 12.23-.02 1.18-.04 2.37-.07 3.56-.08 4.5-.17 9.02-.26 13.47-.02 1.15-.04 2.29-.07 3.42-.13 6.69-.26 13.14-.38 19.04 0 .17-.01.33-.01.5-.02 1.16-.05 2.31-.07 3.45l-.15 7.17-.06 3.02c-.11 5.36-.22 10.81-.34 16.43-.79 38.43-1.71 84.65-3.29 164.55-.01.14-.01.28-.01.42l-.15 7.46c-.63 31.9-.89 63.62-.58 70.5.15 3.27.39 6.39.74 9.37.57 4.94 1.42 9.52 2.59 13.87 0 .03.02.06.03.09 1.11 4.1 2.51 8 4.23 11.8 1.98 4.4 4.39 8.67 7.28 12.99l2.46 3.68 3.52 5.26.5-.44 6.16-5.51c3.67-3.27 9.74-8.8 13.49-12.28l5.32-4.94 1.5-1.39-2.99-5.5c-.96-1.77-1.79-3.34-2.5-4.88-.12-.28-.25-.55-.37-.83l-.03-.06c-.15-.37-.31-.74-.45-1.11-.52-1.31-.96-2.65-1.33-4.13-.06-.25-.12-.51-.19-.77-.51-2.31-.88-4.96-1.13-8.32l-.09-1.23c-.45-7.14-.47-17.36-.39-33.67.09-20.08.66-56.08 1.26-80 1.39-55.94 2.75-115.59 4.07-179 .58-27.77 1.32-58.71 1.64-68.75l.58-18.25H364v68.98l-81.5.52-.62 21.5c-.34 11.83-.94 39.61-1.33 61.75l-.72 40.25H361v60h-83v28.25c0 13.69-.23 34.4-.54 49.06-.04 1.98-.08 3.85-.13 5.58-.47 18.79-.35 26.27.43 26 .03-.01.07-.03.13-.07 1.09-.7 7.3-6.09 14.28-12.44 7.33-6.67 20.53-18.54 29.33-26.39 15.84-14.13 19.73-17.63 45-40.44 7.15-6.45 23.87-21.45 37.16-33.32l24.16-21.6.49-11.29.08-1.77c.58-13.4 2.11-108.76 2.11-132.07v-13l-22.75-.27-22.75-.27v-68.96h136.68l.66 23.25c.36 12.79.66 28.31.66 34.5v11.25h-46.2l.78 54.25c.43 29.84.79 55.04.81 56 .01.67.15 1.26.33 1.55.08.13.17.2.26.2.03 0 .14-.08.34-.23 2.17-1.71 14.34-12.45 28.7-25.34l28.48-25.57.53-39.68c.11-8.21.2-14.96.34-20.57.02-1.02.04-2.01.07-2.96.01-.17.01-.33.01-.49.02-.71.04-1.4.07-2.06.02-.41.03-.82.04-1.21.26-6.94.64-11.74 1.33-15.53-.01-.03 0-.05.01-.08 1.13-6.35 3.09-9.86 6.64-15.84 3.37-5.67 7.24-10.5 11.78-14.62 4.26-3.88 9.11-7.13 14.68-9.9 2.54-1.26 4.56-2.27 6.59-3.07.31-.13.63-.25.94-.36.24-.09.47-.17.7-.24.08-.04.17-.06.25-.09.37-.12.73-.24 1.11-.34.24-.07.48-.14.73-.2.59-.17 1.21-.31 1.86-.44.49-.11.99-.2 1.52-.29.27-.05.55-.09.84-.13 7.64-1.16 20.08-1.31 48.5-1.67l46.55-.59.09-.08 18.29-16.42 18.08-16.24h.01l.29-.26zm-331.86-6.47c0 1.65-.04 3.68-.09 4.5-.01.1-.03.19-.09.28-.61 1.03-4.81 1.22-22.96 1.22h-.48c-7.51 0-14.3-.12-18.71-.29-3.15-.13-5.09-.28-5.19-.46-.25-.41-.78-3.34-1.18-6.5l-.71-5.75H354v-16c0-4.13-.08-7.85-.22-10.66-.17-3.29-.41-5.34-.69-5.34-.5 0-3.76.89-7.25 1.99-4.15 1.3-6.38 2.04-7.55 1.76-1.43-.34-1.28-2.21-1.09-6.45l.27-6.12.03-.58 9-2.73c4.95-1.5 9.61-2.77 10.35-2.8 2.66-.14 7.89 3.07 9.01 5.53.22.49.42 1.59.58 3.23l.03.37c.35 3.74.53 10.04.53 18.35v19.45h6.5c3.4 0 5.07-.1 5.89.61q.015.03.03.03c.14.13.24.27.33.44.11.19.19.43.25.7.23 1.03.18 2.66.18 5.22m59.26 4.59c-2.05.86-4.9 1.23-12.09 1.29h-.12c-3.17.03-7.17 0-12.31-.08l-12.67-.18h-.03l-8.18-.12-2.75-2.75c-2.41-2.42-2.8-3.67-3.13-10.25l-.38-7.5H401v8h32V96.06l-7.54-.12-11.94-.19-11.72-.19-7.76-.12-2.77-2.77c-2.27-2.27-2.69-2.94-2.96-10.43v-.07c-.05-1.37-.09-2.96-.14-4.84-.08-2.91-.1-5.36-.05-7.43.16-7.27 1.2-10.03 3.94-12.51 1.03-.94 9.65-4.08 19.16-6.99 7.04-2.16 12.27-3.62 16.28-4.44 2.7-.56 4.85-.83 6.62-.83h.03c2.83 0 4.7.69 6.34 1.98 5.23 4.11 5.51 6.12 5.51 39.33s-.3 36.47-6.56 39.09m77.56-5.62-2.92 3.26-2.91 3.27-20.38.3c-12.34.19-21.44-.09-23.08-.72-1.49-.57-3.61-2.5-4.71-4.31-1.71-2.81-1.96-4.69-1.99-27.53-.01-2.24-.01-4.68-.01-7.34 0-1.96 0-3.84.01-5.64.03-7.99.12-14.39.28-19.16l.03-.76c.19-5.17.46-8.29.81-9.29.62-1.78 2.53-4.09 4.25-5.14 1.41-.86 3.76-1.58 5.73-1.82.04-.01.07-.02.11-.02.35-.04.68-.06.99-.07h.14c3.79 0 31.28 7.84 37.19 10.61 6.24 2.92 6.46 4.15 6.46 35.78zm68.64-23.22c-.27.96-.79 3.66-1.16 6l-.66 4.25H574v20h-13v-20h-21.2l-3.4-3.4-3.4-3.4V80.57c0-5.8.02-9.81.1-12.57v-.04c.16-5.48.58-5.96 1.65-5.65.96.28 3.66 1.05 6 1.73l4.25 1.22v29.68h16V82.9c0-4.15-.04-6.97.16-8.8v-.05c.1-.95.27-1.63.54-2.1.09-.15.18-.28.3-.39.27-.26.61-.39 1.04-.43 1.15-.1 2.96.51 5.78 1.35l5.18 1.54v20.92h6.07c2.97 0 4.5.07 5.19.41h.01c.31.15.45.35.47.63.02.2-.02.43-.1.71M504.6 66.94s-.04-.01-.1-.02c-1.7-.45-24.56-7.25-28.75-8.57-.75-.23-1.18.01-1.43 2.9-.29 3.39-.32 10.43-.32 24.62v28.07h31.06l-.1-23.5c-.05-12.93-.21-23.5-.36-23.5m-71.87-6.07s-.01-.11-.01-.16c-.13-1.69-.3-2.69-.47-2.67-.04.01-.12.02-.23.05-.97.24-4.56 1.31-8.52 2.53-4.4 1.37-11.26 3.42-15.25 4.56L401 67.26v15.68h32v-12.5c0-1.28-.01-2.52-.03-3.69-.05-2.33-.13-4.36-.24-5.88m279.31 66.54-53.49-.23-55.21-.24-4.6-.02.54-4.24c.3-2.33 1.49-9.42 2.65-15.74l4.13-22.5c3.62-19.75 3.71-20.45 2.54-21.32-1.15-.85-1.92-1.1-20.6-6.62-6.33-1.87-19.15-5.74-28.5-8.61-9.35-2.86-18.35-5.55-20-5.96-1.65-.42-10.42-3.03-19.5-5.79s-18.08-5.46-20-6.01c-1.92-.54-11.15-3.32-20.5-6.19-28.1-8.62-24.45-8.26-39.19-3.83-7.05 2.12-16.41 4.96-20.81 6.32-15.36 4.72-42.02 12.74-44 13.23-1.95.49-19.9 5.86-36 10.78-17.55 5.36-41.62 12.5-42.15 12.5-.31 0-.25 1.24.13 2.75s3.04 15.67 5.92 31.46c4.3 23.56 4.99 28.81 3.84 29.25-.77.3-27.88.54-60.23.54h-58.82l-.56 9.25c-.31 5.09-.81 24.77-1.12 43.75a1703 1703 0 0 0-.06 3.76c-.01.33-.01.66-.02 1l-.03 2.07c-.06 3.2-.12 6.71-.18 10.42-.02.74-.03 1.48-.05 2.23-.01.51-.01 1.02-.02 1.53-.02 1.16-.04 2.33-.07 3.51v.4c-.02.73-.03 1.47-.05 2.21v.45c-.02.73-.03 1.46-.05 2.2-.07 3.98-.14 8.09-.22 12.23-.02 1.18-.04 2.37-.07 3.56-.08 4.5-.17 9.02-.26 13.47-.02 1.15-.04 2.29-.07 3.42-.13 6.69-.26 13.14-.38 19.04 0 .17-.01.33-.01.5-.02 1.16-.05 2.31-.07 3.45l-.15 7.17-.06 3.02c-.11 5.36-.22 10.81-.34 16.43-.79 38.43-1.71 84.65-3.29 164.55-.01.14-.01.28-.01.42l-.15 7.46c-.63 31.9-.89 63.62-.58 70.5.15 3.27.39 6.39.74 9.37.57 4.94 1.42 9.52 2.59 13.87 0 .03.02.06.03.09 1.11 4.1 2.51 8 4.23 11.8 1.98 4.4 4.39 8.67 7.28 12.99l2.46 3.68 3.52 5.26.5-.44 6.16-5.51c3.67-3.27 9.74-8.8 13.49-12.28l5.32-4.94 1.5-1.39-2.99-5.5c-.96-1.77-1.79-3.34-2.5-4.88-.12-.28-.25-.55-.37-.83l-.03-.06c-.15-.37-.31-.74-.45-1.11-.52-1.31-.96-2.65-1.33-4.13-.06-.25-.12-.51-.19-.77-.51-2.31-.88-4.96-1.13-8.32l-.09-1.23c-.45-7.14-.47-17.36-.39-33.67.09-20.08.66-56.08 1.26-80 1.39-55.94 2.75-115.59 4.07-179 .58-27.77 1.32-58.71 1.64-68.75l.58-18.25H364v68.98l-81.5.52-.62 21.5c-.34 11.83-.94 39.61-1.33 61.75l-.72 40.25H361v60h-83v28.25c0 13.69-.23 34.4-.54 49.06-.04 1.98-.08 3.85-.13 5.58-.47 18.79-.35 26.27.43 26 .03-.01.07-.03.13-.07 1.09-.7 7.3-6.09 14.28-12.44 7.33-6.67 20.53-18.54 29.33-26.39 15.84-14.13 19.73-17.63 45-40.44 7.15-6.45 23.87-21.45 37.16-33.32l24.16-21.6.49-11.29.08-1.77c.58-13.4 2.11-108.76 2.11-132.07v-13l-22.75-.27-22.75-.27v-68.96h136.68l.66 23.25c.36 12.79.66 28.31.66 34.5v11.25h-46.2l.78 54.25c.43 29.84.79 55.04.81 56 .01.67.15 1.26.33 1.55.08.13.17.2.26.2.03 0 .14-.08.34-.23 2.17-1.71 14.34-12.45 28.7-25.34l28.48-25.57.53-39.68c.11-8.21.2-14.96.34-20.57.02-1.02.04-2.01.07-2.96.01-.17.01-.33.01-.49.02-.71.04-1.4.07-2.06.02-.41.03-.82.04-1.21.26-6.94.64-11.74 1.33-15.53-.01-.03 0-.05.01-.08 1.13-6.35 3.09-9.86 6.64-15.84 3.37-5.67 7.24-10.5 11.78-14.62 4.26-3.88 9.11-7.13 14.68-9.9 2.54-1.26 4.56-2.27 6.59-3.07.31-.13.63-.25.94-.36.24-.09.47-.17.7-.24.08-.04.17-.06.25-.09.37-.12.73-.24 1.11-.34.24-.07.48-.14.73-.2.59-.17 1.21-.31 1.86-.44.49-.11.99-.2 1.52-.29.27-.05.55-.09.84-.13 7.64-1.16 20.08-1.31 48.5-1.67l46.55-.59.09-.08 18.29-16.42 18.08-16.24h.01l.29-.26zm-331.86-6.47c0 1.65-.04 3.68-.09 4.5-.01.1-.03.19-.09.28-.61 1.03-4.81 1.22-22.96 1.22h-.48c-7.51 0-14.3-.12-18.71-.29-3.15-.13-5.09-.28-5.19-.46-.25-.41-.78-3.34-1.18-6.5l-.71-5.75H354v-16c0-4.13-.08-7.85-.22-10.66-.17-3.29-.41-5.34-.69-5.34-.5 0-3.76.89-7.25 1.99-4.15 1.3-6.38 2.04-7.55 1.76-1.43-.34-1.28-2.21-1.09-6.45l.27-6.12.03-.58 9-2.73c4.95-1.5 9.61-2.77 10.35-2.8 2.66-.14 7.89 3.07 9.01 5.53.22.49.42 1.59.58 3.23l.03.37c.35 3.74.53 10.04.53 18.35v19.45h6.5c3.4 0 5.07-.1 5.89.61q.015.03.03.03c.14.13.24.27.33.44.11.19.19.43.25.7.23 1.03.18 2.66.18 5.22m59.26 4.59c-2.05.86-4.9 1.23-12.09 1.29h-.12c-3.17.03-7.17 0-12.31-.08l-12.67-.18h-.03l-8.18-.12-2.75-2.75c-2.41-2.42-2.8-3.67-3.13-10.25l-.38-7.5H401v8h32V96.06l-7.54-.12-11.94-.19-11.72-.19-7.76-.12-2.77-2.77c-2.27-2.27-2.69-2.94-2.96-10.43v-.07c-.05-1.37-.09-2.96-.14-4.84-.08-2.91-.1-5.36-.05-7.43.16-7.27 1.2-10.03 3.94-12.51 1.03-.94 9.65-4.08 19.16-6.99 7.04-2.16 12.27-3.62 16.28-4.44 2.7-.56 4.85-.83 6.62-.83h.03c2.83 0 4.7.69 6.34 1.98 5.23 4.11 5.51 6.12 5.51 39.33s-.3 36.47-6.56 39.09m77.56-5.62-2.92 3.26-2.91 3.27-20.38.3c-12.34.19-21.44-.09-23.08-.72-1.49-.57-3.61-2.5-4.71-4.31-1.71-2.81-1.96-4.69-1.99-27.53-.01-2.24-.01-4.68-.01-7.34 0-1.96 0-3.84.01-5.64.03-7.99.12-14.39.28-19.16l.03-.76c.19-5.17.46-8.29.81-9.29.62-1.78 2.53-4.09 4.25-5.14 1.41-.86 3.76-1.58 5.73-1.82.04-.01.07-.02.11-.02.35-.04.68-.06.99-.07h.14c3.79 0 31.28 7.84 37.19 10.61 6.24 2.92 6.46 4.15 6.46 35.78zm68.64-23.22c-.27.96-.79 3.66-1.16 6l-.66 4.25H574v20h-13v-20h-21.2l-3.4-3.4-3.4-3.4V80.57c0-5.8.02-9.81.1-12.57v-.04c.16-5.48.58-5.96 1.65-5.65.96.28 3.66 1.05 6 1.73l4.25 1.22v29.68h16V82.9c0-4.15-.04-6.97.16-8.8v-.05c.1-.95.27-1.63.54-2.1.09-.15.18-.28.3-.39.27-.26.61-.39 1.04-.43 1.15-.1 2.96.51 5.78 1.35l5.18 1.54v20.92h6.07c2.97 0 4.5.07 5.19.41h.01c.31.15.45.35.47.63.02.2-.02.43-.1.71M504.6 66.94s-.04-.01-.1-.02c-1.7-.45-24.56-7.25-28.75-8.57-.75-.23-1.18.01-1.43 2.9-.29 3.39-.32 10.43-.32 24.62v28.07h31.06l-.1-23.5c-.05-12.93-.21-23.5-.36-23.5m-71.87-6.07s-.01-.11-.01-.16c-.13-1.69-.3-2.69-.47-2.67-.04.01-.12.02-.23.05-.97.24-4.56 1.31-8.52 2.53-4.4 1.37-11.26 3.42-15.25 4.56L401 67.26v15.68h32v-12.5c0-1.28-.01-2.52-.03-3.69-.05-2.33-.13-4.36-.24-5.88m279.31 66.54-53.49-.23-55.21-.24-4.6-.02.54-4.24c.3-2.33 1.49-9.42 2.65-15.74l4.13-22.5c3.62-19.75 3.71-20.45 2.54-21.32-1.15-.85-1.92-1.1-20.6-6.62-6.33-1.87-19.15-5.74-28.5-8.61-9.35-2.86-18.35-5.55-20-5.96-1.65-.42-10.42-3.03-19.5-5.79s-18.08-5.46-20-6.01c-1.92-.54-11.15-3.32-20.5-6.19-28.1-8.62-24.45-8.26-39.19-3.83-7.05 2.12-16.41 4.96-20.81 6.32-15.36 4.72-42.02 12.74-44 13.23-1.95.49-19.9 5.86-36 10.78-17.55 5.36-41.62 12.5-42.15 12.5-.31 0-.25 1.24.13 2.75s3.04 15.67 5.92 31.46c4.3 23.56 4.99 28.81 3.84 29.25-.77.3-27.88.54-60.23.54h-58.82l-.56 9.25c-.31 5.09-.81 24.77-1.12 43.75a1703 1703 0 0 0-.06 3.76c-.01.33-.01.66-.02 1l-.03 2.07c-.06 3.2-.12 6.71-.18 10.42-.02.74-.03 1.48-.05 2.23-.01.51-.01 1.02-.02 1.53-.02 1.16-.04 2.33-.07 3.51v.4c-.02.73-.03 1.47-.05 2.21v.45c-.02.73-.03 1.46-.05 2.2-.07 3.98-.14 8.09-.22 12.23-.02 1.18-.04 2.37-.07 3.56-.08 4.5-.17 9.02-.26 13.47-.02 1.15-.04 2.29-.07 3.42-.13 6.69-.26 13.14-.38 19.04 0 .17-.01.33-.01.5-.02 1.16-.05 2.31-.07 3.45l-.15 7.17-.06 3.02c-.11 5.36-.22 10.81-.34 16.43-.79 38.43-1.71 84.65-3.29 164.55-.01.14-.01.28-.01.42l-.15 7.46c-.63 31.9-.89 63.62-.58 70.5.15 3.27.39 6.39.74 9.37.57 4.94 1.42 9.52 2.59 13.87 0 .03.02.06.03.09 1.11 4.1 2.51 8 4.23 11.8 1.98 4.4 4.39 8.67 7.28 12.99l2.46 3.68 3.52 5.26.5-.44 6.16-5.51c3.67-3.27 9.74-8.8 13.49-12.28l5.32-4.94 1.5-1.39-2.99-5.5c-.96-1.77-1.79-3.34-2.5-4.88-.12-.28-.25-.55-.37-.83l-.03-.06c-.15-.37-.31-.74-.45-1.11-.52-1.31-.96-2.65-1.33-4.13-.06-.25-.12-.51-.19-.77-.51-2.31-.88-4.96-1.13-8.32l-.09-1.23c-.45-7.14-.47-17.36-.39-33.67.09-20.08.66-56.08 1.26-80 1.39-55.94 2.75-115.59 4.07-179 .58-27.77 1.32-58.71 1.64-68.75l.58-18.25H364v68.98l-81.5.52-.62 21.5c-.34 11.83-.94 39.61-1.33 61.75l-.72 40.25H361v60h-83v28.25c0 13.69-.23 34.4-.54 49.06-.04 1.98-.08 3.85-.13 5.58-.47 18.79-.35 26.27.43 26 .03-.01.07-.03.13-.07 1.09-.7 7.3-6.09 14.28-12.44 7.33-6.67 20.53-18.54 29.33-26.39 15.84-14.13 19.73-17.63 45-40.44 7.15-6.45 23.87-21.45 37.16-33.32l24.16-21.6.49-11.29.08-1.77c.58-13.4 2.11-108.76 2.11-132.07v-13l-22.75-.27-22.75-.27v-68.96h136.68l.66 23.25c.36 12.79.66 28.31.66 34.5v11.25h-46.2l.78 54.25c.43 29.84.79 55.04.81 56 .01.67.15 1.26.33 1.55.08.13.17.2.26.2.03 0 .14-.08.34-.23 2.17-1.71 14.34-12.45 28.7-25.34l28.48-25.57.53-39.68c.11-8.21.2-14.96.34-20.57.02-1.02.04-2.01.07-2.96.01-.17.01-.33.01-.49.02-.71.04-1.4.07-2.06.02-.41.03-.82.04-1.21.26-6.94.64-11.74 1.33-15.53-.01-.03 0-.05.01-.08 1.13-6.35 3.09-9.86 6.64-15.84 3.37-5.67 7.24-10.5 11.78-14.62 4.26-3.88 9.11-7.13 14.68-9.9 2.54-1.26 4.56-2.27 6.59-3.07.31-.13.63-.25.94-.36.24-.09.47-.17.7-.24.08-.04.17-.06.25-.09.37-.12.73-.24 1.11-.34.24-.07.48-.14.73-.2.59-.17 1.21-.31 1.86-.44.49-.11.99-.2 1.52-.29.27-.05.55-.09.84-.13 7.64-1.16 20.08-1.31 48.5-1.67l46.55-.59.09-.08 18.29-16.42 18.08-16.24h.01l.29-.26zm-331.86-6.47c0 1.65-.04 3.68-.09 4.5-.01.1-.03.19-.09.28-.61 1.03-4.81 1.22-22.96 1.22h-.48c-7.51 0-14.3-.12-18.71-.29-3.15-.13-5.09-.28-5.19-.46-.25-.41-.78-3.34-1.18-6.5l-.71-5.75H354v-16c0-4.13-.08-7.85-.22-10.66-.17-3.29-.41-5.34-.69-5.34-.5 0-3.76.89-7.25 1.99-4.15 1.3-6.38 2.04-7.55 1.76-1.43-.34-1.28-2.21-1.09-6.45l.27-6.12.03-.58 9-2.73c4.95-1.5 9.61-2.77 10.35-2.8 2.66-.14 7.89 3.07 9.01 5.53.22.49.42 1.59.58 3.23l.03.37c.35 3.74.53 10.04.53 18.35v19.45h6.5c3.4 0 5.07-.1 5.89.61q.015.03.03.03c.14.13.24.27.33.44.11.19.19.43.25.7.23 1.03.18 2.66.18 5.22m59.26 4.59c-2.05.86-4.9 1.23-12.09 1.29h-.12c-3.17.03-7.17 0-12.31-.08l-12.67-.18h-.03l-8.18-.12-2.75-2.75c-2.41-2.42-2.8-3.67-3.13-10.25l-.38-7.5H401v8h32V96.06l-7.54-.12-11.94-.19-11.72-.19-7.76-.12-2.77-2.77c-2.27-2.27-2.69-2.94-2.96-10.43v-.07c-.05-1.37-.09-2.96-.14-4.84-.08-2.91-.1-5.36-.05-7.43.16-7.27 1.2-10.03 3.94-12.51 1.03-.94 9.65-4.08 19.16-6.99 7.04-2.16 12.27-3.62 16.28-4.44 2.7-.56 4.85-.83 6.62-.83h.03c2.83 0 4.7.69 6.34 1.98 5.23 4.11 5.51 6.12 5.51 39.33s-.3 36.47-6.56 39.09m77.56-5.62-2.92 3.26-2.91 3.27-20.38.3c-12.34.19-21.44-.09-23.08-.72-1.49-.57-3.61-2.5-4.71-4.31-1.71-2.81-1.96-4.69-1.99-27.53-.01-2.24-.01-4.68-.01-7.34 0-1.96 0-3.84.01-5.64.03-7.99.12-14.39.28-19.16l.03-.76c.19-5.17.46-8.29.81-9.29.62-1.78 2.53-4.09 4.25-5.14 1.41-.86 3.76-1.58 5.73-1.82.04-.01.07-.02.11-.02.35-.04.68-.06.99-.07h.14c3.79 0 31.28 7.84 37.19 10.61 6.24 2.92 6.46 4.15 6.46 35.78zm68.64-23.22c-.27.96-.79 3.66-1.16 6l-.66 4.25H574v20h-13v-20h-21.2l-3.4-3.4-3.4-3.4V80.57c0-5.8.02-9.81.1-12.57v-.04c.16-5.48.58-5.96 1.65-5.65.96.28 3.66 1.05 6 1.73l4.25 1.22v29.68h16V82.9c0-4.15-.04-6.97.16-8.8v-.05c.1-.95.27-1.63.54-2.1.09-.15.18-.28.3-.39.27-.26.61-.39 1.04-.43 1.15-.1 2.96.51 5.78 1.35l5.18 1.54v20.92h6.07c2.97 0 4.5.07 5.19.41h.01c.31.15.45.35.47.63.02.2-.02.43-.1.71M504.6 66.94s-.04-.01-.1-.02c-1.7-.45-24.56-7.25-28.75-8.57-.75-.23-1.18.01-1.43 2.9-.29 3.39-.32 10.43-.32 24.62v28.07h31.06l-.1-23.5c-.05-12.93-.21-23.5-.36-23.5m-71.87-6.07s-.01-.11-.01-.16c-.13-1.69-.3-2.69-.47-2.67-.04.01-.12.02-.23.05-.97.24-4.56 1.31-8.52 2.53-4.4 1.37-11.26 3.42-15.25 4.56L401 67.26v15.68h32v-12.5c0-1.28-.01-2.52-.03-3.69-.05-2.33-.13-4.36-.24-5.88" style="fill-rule:evenodd;fill:#006836" data-source="https://football-logos.cc"></path><!-- source: https://football-logos.cc --></svg>