<svg xmlns="http://www.w3.org/2000/svg" xmlns:xlink="http://www.w3.org/1999/xlink" viewBox="15.33 137.48 564.62 566.93"><!-- Source: https://football-logos.cc --><path d="M297.638 137.48c155.89 0 282.31 126.422 282.31 282.311 0 89.515-45.328 183.247-106.223 230.14-23.373 17.999-50.338 32.044-78.68 41.43-34.932 11.567-68.608 14.698-105.206 12.298-24.3-1.594-51.293-6.865-72.48-13.14C100.562 655.928 15.327 547.793 15.327 419.791c0-155.89 126.421-282.31 282.311-282.31" style="fill:#09120b;fill-rule:evenodd" data-source="https://football-logos.cc"></path><path d="M199.883 547.092c13.722 0 26.742 7.777 32.165 19.52 1.962 4.247 2.07 9.356 2.07 14.32 0 6.81-1.447 12.045-4.312 16.878-.876 1.479-2.461 3.46-3.555 4.752-1.075 1.273-1.503 2.27-2.87 3.387-2.428 1.987-5.857 4.792-9.096 5.978-3.627 1.329-9.722 2.054-13.81 2.054-18.685 0-34.17-14.363-34.17-33.05 0-18.685 14.891-33.84 33.577-33.84" style="fill:#009d2f;fill-rule:evenodd"></path><path d="M311.502 366.805c.12 11.157-1.471 10.859-1.912 16.289.506 1.492 1.012 2.39 2.11 3.29l-.395 3.461.989 2.967-.932 2.038.065 3.45.992.55.994 3.066-.096 2.224 1.217.639.788 2.012-1.75 2.473 1.095 10.145c1.07-1.121 2.449-6.35 3.716-10.39 1.53-4.877 3.051-10.819 2.71-16.207-.682-2.604-1.858-3.53-2.342-4.453-.278-.531-.141-1.318.017-2.109-.482-1.105-1.381-1.979-1.908-3.046-.906-1.831 1.242-3.577.985-5.088l-.36-2.113a22 22 0 0 1-1.414-1.946c-1.53-2.368-.963-4.827-3.438-7.925zm.66-141.952c126.847 0 229.715 103.127 229.715 230.293 0 91.843-53.664 171.137-131.26 208.107l-8.789-22.306-3.287.168-8.523-7.091-3.36-5.22c-1.246-3.186-2.492-5.582-4.331-8.373l-2.231-6.114c-2.51-12.248-2.618-21.4-3.808-30.46-.763-5.807-2.286-10.763-4.59-19.154l-2.658-5.37-5.359-16.275-5.838-10.516-8.85-17.825-.992-6.262.074-6.11-3.535-13.903 8.462-7.63 1.37-2.536-7.041-12.906c-3.608-4.8-7.017-11.38-10.821-14.401-.963-2.824-2.847-5.813-4.862-9.164.675-1.427.955-2.755 1.137-4.084l-.337-1.3-2.872-1.36-.446-2.65-2.73-2.822 10.534-19.254c.292-1.004 1.061-4.702 1.18-6.247.114-1.464.056-4.732-.048-6.088-.158-2.069-1.895-9.465-2.377-12.613.795-1.561 2.182-4.11 2.483-7.152l-1.234-2.575c-.54-4.333-.784-10.048-1.324-14.38-.37-2.965-1.035-4.548-1.404-7.512l-.405-5.922c-.745-4.74-2.625-9.4-4.752-15.062l-4.982-5.852-4.919-3.6c-4.432-1.59-8.411-2.912-11.581-4.08-5.651-2.083-10.023-3.68-19-5.437-.382-1.694-.247-2.72-.037-3.611.245-1.037 1.263-2.094 2.267-2.944.782-.66 1.513-1.504 1.72-2.19.371-1.226.663-2.517.896-3.951.298-1.844.215-3.569-1.276-4.415.313-1.668.683-2.624 1.361-4.769.818-2.589 1.516-6.155 1.604-8.508.068-1.83-.235-5.587-.881-7.008-1.058-2.324-3.558-5.46-5.918-7.444-1.152-.968-2.287-1.571-3.25-1.912l-12.532-38.782a230.5 230.5 0 0 1 39.637-3.428" style="fill:#fff;fill-rule:evenodd"></path><path d="M379.937 675.241c-21.425 6.625-44.184 10.198-67.775 10.198-126.846 0-229.714-103.127-229.714-230.293 0-103.288 67.863-190.717 161.318-219.908l11.577 34.856c-1.868 1.105-5 4.427-6.07 7.615-.649 1.93-1.245 2.834-.24 4.103.335.422.977 1.209 1.683 1.657-1.158 2.572-2.145 5.885-2.355 9.186-.031.493.505 1.138.464 1.638-.206 2.497.004 5.352-.034 7.919-.007.498-.551 1.062-.5 1.549.344 3.262.82 4.829 2.57 8.654-7.151 1.215-12.35 3.177-17.719 5.195-3.011 1.132-5.889 2.146-8.69 3.388l-15.378 19.222c-.384.48-1.056-.156-1.37.19-.523.577-.296 2.066-.132 4.09-2.79 5.735-6.38 12.468-10.469 18.102l.09 4.367.637 1.448-4.383 10.335c-.069 7.671-.149 16.076.51 24.045.545 6.603 2.317 13.282 2.834 19.908.2 2.548.197 5.105.39 7.673.297 3.99.963 8.105 1.176 12.153.262 4.982-.972 10.963-.71 15.946 1.532 4.242 2.032 8.475 3.295 11.951l4.517 8.157 2.209.829.552-2.674 5.604 5.136 1.367-1.277 1.085-.927-3.06-4.826 4.358 2.004.171-2.89c-2.614-1.57-4.03-2.84-6.045-5.008.084-2.288-1.03-5.873.251-6.863.043-1.439-.812-3.775 1.326-4.515.772 1.815 1.025 3.165 2.705 3.628.763.21 1.822.238 3.357.042.101-3.199-1.195-4.403-1.592-8.4-.208-2.094.29-3.8.635-5.7-3.308-4.82-7.016-10.341-7.329-14.96-.474-6.986-.297-14.42.48-21.112.437-3.755 1.542-6.799 1.66-10.565.215-6.817.045-13.288-.047-21.11l1.948-2.547 4.883.183 1.917-4.24 1.615-.293 1.448-5.747 3.137-2.973c2.534 16.427 4.076 20.994 4.015 25.345-2.627 9.736-2.371 22.07-1.322 34.817.354 4.299 2.262 11.947 2.63 18.216-1.269 3.217-1.648 9.297 1.121 14.46.985 1.838.93 3.685 1.348 5.867.536 2.805 1.467 6.038 2.298 9.155 1.28 4.804 5.104 11.721 7.634 17.614 3.7 8.612 6.438 16.389 9.286 23.326 3.383 8.238 9.196 14.497 12.823 22.2 1.9 4.039 3.071 4.288 4.607 7.816-6.987 6.997 1.056 20.717 3.957 25.737.246 9.907-1.881 12.893-1.635 27.151 1.892 5.63 3.785 11.657 6.864 16.496l5.002 4.147c2.762.772 4.45 1.319 7.099.536.966-.285 2.377-2.132 3.302-3.62 2.037-3.278 2.462-8.264 2.211-12.189l-2.208-34.595-1.275-2.63.967-3.904-.1-4.352c6.982-10.422 3.484-25.305-1.935-42.719l.626-6.161 2.877-2.74-3.369-10.21 1.162-.396 8.584 14.381 2.177-.806 3.409 2.786 2.405-2.025c8.675 13.835 15.966 29.252 26.026 41.505 2.039 11.716 3.484 16.906 6.71 25.656l4.295 5.236c4.444 10.184 9.877 20.566 13.333 30.552.449 4.53.607 11.6 1.544 13.591l1.089 2.314-1.068 2.818c2.187 6.436 2.594 10.302 3.198 14.563z" style="fill:#009d2f;fill-rule:evenodd"></path><path d="M255.343 270.094c-1.868 1.105-5 4.427-6.07 7.615-.649 1.93-1.245 2.834-.24 4.103.335.422.977 1.209 1.683 1.657-1.158 2.572-2.145 5.885-2.355 9.186-.031.493.505 1.138.464 1.638-.206 2.497.004 5.352-.034 7.919-.007.498-.551 1.062-.5 1.549.344 3.262.82 4.829 2.57 8.654-7.151 1.215-12.35 3.177-17.719 5.195-3.011 1.132-5.889 2.146-8.69 3.388l-15.378 19.222c-.384.48-1.056-.156-1.37.19-.523.577-.296 2.066-.132 4.09-2.79 5.735-6.38 12.468-10.469 18.102l.09 4.367.637 1.448-4.383 10.335c-.069 7.671-.149 16.076.51 24.045.545 6.603 2.317 13.282 2.834 19.908.2 2.548.197 5.105.39 7.673.297 3.99.963 8.105 1.176 12.153.262 4.982-.972 10.963-.71 15.946 1.532 4.242 2.032 8.475 3.295 11.951l4.517 8.157 2.209.829.552-2.674 5.604 5.136 1.367-1.277 1.085-.927-3.06-4.826 4.358 2.004.171-2.89c-2.614-1.57-4.03-2.84-6.045-5.008.084-2.288-1.03-5.873.251-6.863.043-1.439-.812-3.775 1.326-4.515.772 1.815 1.025 3.165 2.705 3.628.763.21 1.822.238 3.357.042.101-3.199-1.195-4.403-1.592-8.4-.208-2.094.29-3.8.635-5.7-3.308-4.82-7.016-10.341-7.329-14.96-.474-6.986-.297-14.42.48-21.112.437-3.755 1.542-6.799 1.66-10.565.215-6.817.045-13.288-.047-21.11l1.948-2.547 4.883.183 1.917-4.24 1.615-.293 1.448-5.747 3.137-2.973c2.534 16.427 4.076 20.994 4.015 25.345-2.627 9.736-2.371 22.07-1.322 34.817.354 4.299 2.262 11.947 2.63 18.216-1.269 3.217-1.648 9.297 1.121 14.46.985 1.838.93 3.685 1.348 5.867.536 2.805 1.467 6.038 2.298 9.155 1.28 4.804 5.104 11.721 7.634 17.614 3.7 8.612 6.438 16.389 9.286 23.326 3.383 8.238 9.196 14.497 12.823 22.2 1.9 4.039 3.071 4.288 4.607 7.816-6.987 6.997 1.056 20.717 3.957 25.737.246 9.907-1.881 12.893-1.635 27.151 1.892 5.63 3.785 11.657 6.864 16.496l5.002 4.147c2.762.772 4.45 1.319 7.099.536.966-.285 2.377-2.132 3.302-3.62 2.037-3.278 2.462-8.264 2.211-12.189l-2.208-34.595-1.275-2.63.967-3.904-.1-4.352c6.982-10.422 3.484-25.305-1.935-42.719l.626-6.161 2.877-2.74-3.369-10.21 1.162-.396 8.584 14.381 2.177-.806 3.409 2.786 2.405-2.025c8.675 13.835 15.966 29.252 26.026 41.505 2.039 11.716 3.484 16.906 6.71 25.656l4.295 5.236c4.444 10.184 9.877 20.566 13.333 30.552.449 4.53.607 11.6 1.544 13.591l1.089 2.314-1.068 2.818c2.187 6.436 2.594 10.302 3.198 14.563l16.392 42.51 30.334-13.105-12.679-32.176-3.287.168-8.523-7.091-3.36-5.22c-1.246-3.186-2.492-5.582-4.331-8.373l-2.231-6.114c-2.51-12.248-2.618-21.4-3.808-30.46-.763-5.807-2.286-10.763-4.59-19.154l-2.658-5.37-5.359-16.275-5.838-10.516-8.85-17.825-.992-6.262.074-6.11-3.535-13.903 8.462-7.63 1.37-2.536-7.041-12.906c-3.608-4.8-7.017-11.38-10.821-14.401-.963-2.824-2.847-5.813-4.862-9.164.675-1.427.955-2.755 1.137-4.084l-.337-1.3-2.872-1.36-.446-2.65-2.73-2.822 10.534-19.254c.292-1.004 1.061-4.702 1.18-6.247.114-1.464.056-4.732-.048-6.088-.158-2.069-1.895-9.465-2.377-12.613.795-1.561 2.182-4.11 2.483-7.152l-1.234-2.575c-.54-4.333-.784-10.048-1.324-14.38-.37-2.965-1.035-4.548-1.404-7.512l-.405-5.922c-.745-4.74-2.625-9.4-4.752-15.062l-4.982-5.852-4.919-3.6c-4.432-1.59-8.411-2.912-11.581-4.08-5.651-2.083-10.023-3.68-19-5.437-.382-1.694-.247-2.72-.037-3.611.245-1.037 1.263-2.094 2.267-2.944.782-.66 1.513-1.504 1.72-2.19.371-1.226.663-2.517.896-3.951.298-1.844.215-3.569-1.276-4.415.313-1.668.683-2.624 1.361-4.769.818-2.589 1.516-6.155 1.604-8.508.068-1.83-.235-5.587-.881-7.008-1.058-2.324-3.558-5.46-5.918-7.444-1.152-.968-2.287-1.571-3.25-1.912l-14.532-44.972-28.34 8.386zm56.16 96.711c.12 11.157-1.472 10.859-1.913 16.289.506 1.492 1.012 2.39 2.11 3.29l-.395 3.461.989 2.967-.932 2.038.065 3.45.992.55.994 3.066-.096 2.224 1.217.639.788 2.012-1.75 2.473 1.095 10.145c1.07-1.121 2.449-6.35 3.716-10.39 1.53-4.877 3.051-10.819 2.71-16.207-.682-2.604-1.858-3.53-2.342-4.453-.278-.531-.141-1.318.017-2.109-.482-1.105-1.381-1.979-1.908-3.046-.906-1.831 1.242-3.577.985-5.088l-.36-2.113a22 22 0 0 1-1.414-1.946c-1.53-2.368-.963-4.827-3.438-7.925zM199.883 547.092c13.722 0 26.742 7.777 32.165 19.52 1.962 4.247 2.07 9.356 2.07 14.32 0 6.81-1.447 12.045-4.312 16.878-.876 1.479-2.461 3.46-3.555 4.752-1.075 1.273-1.503 2.27-2.87 3.387-2.428 1.987-5.857 4.792-9.096 5.978-3.627 1.329-9.722 2.054-13.81 2.054-18.685 0-34.17-14.363-34.17-33.05 0-18.685 14.891-33.84 33.577-33.84" style="fill:#09120b;fill-rule:evenodd" data-source="https://football-logos.cc"></path><path d="M400.356 498.226h-8.06v-29.46h-4.742v-7.257h12.802zM440.169 475.178l-.01-3.202c-.008-2.772.523-4.909 1.278-6.443 1.708-3.473 5.742-4.816 9.177-4.816 3.16 0 5.897.97 7.771 2.763 1.87 1.789 2.813 4.333 2.813 7.333 0 3.945-2.138 8.243-4.088 11.485l-5.106 8.491h7.946v7.437h-21.176l12.624-21.137c1.098-1.839 1.862-3.55 1.862-5.846 0-2.162-.911-3.66-2.518-3.617-1.696.045-2.424 1.64-2.424 3.982v3.57zM489.096 490.806h-2.703v7.42h-7.47v-7.42h-11.928v-5.454l11.07-23.842h8.328v22.9h2.703zm-10.173-6.397v-11.737h-.127l-5.406 11.737zM423.79 484.088c-2.592 1.341-7.094 1.03-9.664-2.258-1.653-2.114-2.645-5.026-2.645-8.693 0-3.87 1.359-7.002 3.474-9.25 2.088-2.217 5.156-3.189 8.195-3.243 3.15-.057 6.608 1.217 8.588 3.557 2.025 2.394 3.04 5.294 3.04 9.163 0 4.58-1.783 9.473-3.585 13.62-1.669 3.83-3.198 6.913-5.244 11.295h-8.567c2.3-4.648 4.504-9.344 6.409-14.19m-.547-5.612c1.438.034 3.654-1.43 3.654-5.484 0-3.56-1.992-5.416-3.84-5.33-2.518.119-3.778 2.555-3.705 5.422.087 3.39 1.546 5.337 3.89 5.392M429.175 438.404l4.151 4.818-2.372 7.413 9.192-5.04 4.003 5.781 1.186-8.376 4.226-5.19-5.634.445-5.782-4.225-3.114 4.67z" style="fill:#009d2f;fill-rule:evenodd"></path><defs><linearGradient id="a"><stop offset="201392128%" stop-color="#009d2f"></stop><stop offset="201392149%" stop-color="#45a836"></stop><stop offset="201392181%" stop-color="#8cbd43"></stop><stop offset="100%" stop-color="#fff"></stop></linearGradient><linearGradient xlink:href="#a" id="b" x1="0" x2="0" y1="0" y2="1" gradientTransform="rotate(-60 .5 .5)" gradientUnits="objectBoundingBox"></linearGradient></defs><path d="m431.566 439.574 2.937 3.409-1.751 5.471 7.718-4.232 3.017 4.357.852-6.015 2.863-3.516-3.58.283-5.212-3.81-2.837 4.256z" style="fill:url(#b)"></path><path d="M387.663 441.512v1.048h37.731v-1.048zM453.045 441.25v1.048h36.916v-1.048zM387.553 378.21h12.548c7.141 0 13.911 2.097 14.164 10.657.103 3.462-1.176 7.31-5.034 9.38 6.253 1.66 9.059 6.272 8.973 11.216-.149 8.529-7.424 12.618-15.394 12.618h-15.257Zm9.378 6.931v10.394h1.997c3.96 0 6.295-2.234 6.212-5.495-.077-3.03-2.45-4.899-6.144-4.899zm0 17.456v12.292h3.291c4.44 0 8.357-1.548 8.262-6.21-.103-4.98-4.61-6.082-8.807-6.082zM448.606 382.055l-5.707 6.364c-2.017-1.745-4.646-2.905-6.516-2.799-3.07.175-4.037 2.406-4.022 4.333.024 3.112 3.412 4.667 6.005 5.702 8.586 3.424 11.896 7.295 11.669 13.737-.222 6.285-6.302 13.448-14.965 13.344-5.364-.065-10.324-2.682-13.576-6.612l6.17-6.755c1.863 1.993 4.352 4.471 7.532 4.318 2.76-.134 4.984-1.807 4.873-4.887-.171-4.718-6.304-5.435-10.696-7.824-3.99-2.17-6.533-6.129-6.533-10.717 0-7.99 6.505-12.918 14.259-12.863 5.097.036 9.09 2.523 11.507 4.66M476.764 377.442c4.842 0 9.036 1.107 13.142 3.051l-.033 10.641c-4.971-3.77-9.374-4.594-12.964-4.594-6.17 0-11.348 5.123-11.474 13.502-.126 8.378 5.698 13.762 11.237 13.762 3.075 0 8.18-.597 13.141-4.024l-.033 10.26c-2.629 1.232-8.293 2.728-13.135 2.728-11.919 0-21.11-10.149-21.11-22.663s9.31-22.663 21.229-22.663M234.343 175.22l-9.165 2.755 2.026 5.68 7.437-2.373 1.581 7.552-6.45 2.022 4.291 12.033-7.172 2.836-11.393-31.947 17.324-5.942zM264.434 186.114c.7 3.195.293 5.933-1.226 8.179q-2.282 3.37-7.385 4.49c-3.532.773-6.456.434-8.77-1.028-2.31-1.46-3.85-3.932-4.616-7.427l-5.071-23.143 7.427-1.628 4.814 21.97c.35 1.602.938 2.764 1.751 3.493s1.794.965 2.921.718c1.053-.231 1.797-.83 2.224-1.796q.64-1.453.17-3.592l-4.892-22.324 7.455-1.633zM286.021 167.606l-5.325-.085.657 26.175-8.038.321-.371-26.354-7.901 1.351-1.569-7.663 22.245-1.505zM308.192 176.41c1.708 1.178 4.044 2.935 4.098 7.019.074 5.554-4.43 9.608-9.997 10.053l-10.903.145-.45-33.733 9.936-.132c3.167-.043 7.093.707 9.14 2.293 2.045 1.587 3.085 3.62 3.118 6.11q.04 3.015-1.137 4.93c-.785 1.264-2.053 2.378-3.805 3.314m-9.376-3.141 1.352-.018c2.88-.039 5.53-1.474 5.445-3.909-.09-2.577-2.295-3.423-5.61-3.379l-1.284.017zm.178 13.347c3.575-.125 5.416-.837 5.424-3.742.002-.748.078-3.797-4.172-3.74l-1.351.018zM338.93 198.224l-7.402-1.614-.528-5.833-7.922-.77-1.617 5.326-8.1-.564 12.622-32.712 8.642.84zm-8.445-13.436-.962-14.168-.125-.012-4.457 13.641zM373.326 206.441l-13.147-4.033 9.525-32.83 7.87 2.414-7.578 24.697 5.778 1.773zM356.134 201.662l-13.456-2.833 6.528-33.554 7.489 1.521-4.842 25.737 6 .961zM409.724 220.738l-7.764-3.493-.024-15.68-5.968 12.985-6.947-3.126 13.942-30.987 6.947 3.126-6.485 14.693 13.153-11.693 7.3 3.284-13.944 12.367zM439.318 206.86l-6.792-3.988-3.015 5.134 6.05 3.553-3.74 6.37-6.051-3.553-6.683 11.38-6.647-3.904 17.203-29.294 13.44 7.893zM457.764 219.204l-4.22-3.357-15.917 21.206-5.078-3.29 13.465-22.718-4.895-2.546 4.314-6.661 17.05 11.042zM450.733 236.226a4.38 4.38 0 0 1 1.294 6.054 4.378 4.378 0 1 1-1.294-6.054M80.543 306.545c3.15-1.901 6.387-2.18 9.59-.157 4.701 2.969 5.444 9.01 2.652 13.43l-5.983 9.476-28.615-18.068 5.825-8.735c2.856-4.283 7.96-6.934 12.608-3.999 3.322 2.098 4.15 4.21 3.923 8.053m-6.566 5.557.664-1.052c1.176-1.862 1.02-4.19-.854-5.374-2.238-1.414-4.04-.724-5.692 1.893l-.37.586zm11.65 7.356.952-1.612c1.098-1.796.934-4.112-.892-5.265-2.498-1.578-4.354-.934-5.991 1.66l-.665 1.052zM89.138 279.852c-3.177.91-4.658 1.882-5.853 3.49-.357.481-.74 1.163-.915 1.863-.601 2.412 1.516 4.028 4.15 3.195.498-.157 1.09-.348 1.847-.675 2.846-1.233 4.916-1.596 6.283-1.809 2.953-.458 5.81.448 8.08 2.133 2.434 1.808 3.926 4.352 4.203 7.248.233 2.444-.242 4.694-1.614 6.862-1.448 2.286-3.027 3.396-5.107 4.665l-6.936-4.431c2.486-.62 4.572-2.481 5.249-3.333.998-1.257 1.309-3.057.168-4.187-1.511-1.497-3.779-.533-5.69.015-2.714.76-5.424 1.734-7.918 1.774-2.342.038-4.25-.608-6.43-2.227-5.055-3.755-5.474-9.46-1.927-14.234 1.438-1.936 3.669-4.018 6.112-5.207zM124.787 276.283c-.588 2.513-2.678 4.95-4.682 6.498-5.879 4.542-14.838 2.727-20.93-2.666-6.771-5.992-10.25-13.451-4.824-21.635 1.096-1.653 2.564-3.01 4.185-3.843l6.116 5.036c-1.59.595-2.282 1.24-3.225 2.393-3.215 3.932-.31 8.803 3.676 12.086 3.908 3.218 9.143 3.582 11.51.708.99-1.203 1.492-2.211 1.833-3.893zM144.907 254.363l-5.548 5.041-18.257-20.09-3.264 2.966-4.497-4.95 8.81-8.006zM152.278 230.101c-1.044 2.543-4.463 5.08-8.305 4.319-2.47-.49-4.952-1.953-7.18-4.561-2.352-2.752-3.281-5.813-3.13-8.708.15-2.858 1.761-5.43 3.908-7.33 2.225-1.971 5.48-3.185 8.322-2.735 2.908.461 5.398 1.901 7.75 4.653 2.783 3.257 4.478 7.83 5.704 11.884 1.131 3.746 1.908 6.877 3.104 11.247l-6.146 5.252c-1.175-4.715-2.448-9.406-4.027-14.02m-3.804-3.655c1.053-.858 1.753-3.257-.71-6.14-2.164-2.532-4.721-2.631-5.994-1.437-1.735 1.627-1.158 4.133.637 6.127 2.122 2.358 4.351 2.848 6.067 1.45M160.272 214.103l-1.511-2.55c-1.309-2.206-1.889-4.16-2.007-5.738-.269-3.573 2.318-6.539 5.058-8.153 2.52-1.484 5.16-1.995 7.496-1.445 2.332.548 4.28 2.134 5.689 4.527 1.852 3.147 2.166 7.58 2.133 11.081l-.085 9.172 6.339-3.733 3.493 5.932-16.891 9.947.14-22.79c.013-1.982-.181-3.706-1.26-5.537-1.015-1.725-2.445-2.491-3.707-1.703-1.332.833-1.163 2.448-.063 4.315l1.676 2.848zM206.64 205.51l-2.635.973 2.567 6.084-4.523 2.027-3.2-5.732-9.5 5.303-2.813-5.04-2.084-23.61 10.635-4.806 7.141 20.069 2.58-.775zm-10.768-1.982-5.102-9.14-.11.062.38 11.775z" style="fill:#009d2f;fill-rule:evenodd" data-source="https://football-logos.cc"></path><!-- source: https://football-logos.cc --></svg>