<svg xmlns="http://www.w3.org/2000/svg" xmlns:xlink="http://www.w3.org/1999/xlink" viewBox="61.33 137.48 472.61 566.93"><!-- Source: https://football-logos.cc --><defs data-source="https://football-logos.cc"><linearGradient id="a"><stop offset="201392128%" stop-color="#f4e077"></stop><stop offset="201392133%" stop-color="#f3dd74"></stop><stop offset="201392154%" stop-color="#efc646"></stop><stop offset="201392161%" stop-color="#d4b047"></stop><stop offset="201392166%" stop-color="#d4b047"></stop><stop offset="201392175%" stop-color="#efc646"></stop><stop offset="201392194%" stop-color="#fce478"></stop><stop offset="201392201%" stop-color="#fce375"></stop><stop offset="201392214%" stop-color="#efc646"></stop><stop offset="201392219%" stop-color="#e8b735"></stop><stop offset="100%" stop-color="#d2841b"></stop></linearGradient><linearGradient xlink:href="#a" id="b" x1="0" x2="0" y1="0" y2="1" gradientTransform="rotate(90 .5 .5)" gradientUnits="objectBoundingBox"></linearGradient></defs><path d="M103.307 222.696c59.205 5.16 131.173 8.338 196.802 8.12 64.535-.216 130.498-3.042 192.122-8.12l35.134 103.191c-38.479 12.546-48.083 43.856-46.674 65.098 1.325 19.985 13.227 47.21 53.25 58.299-5.568 11.917-5.345 27.636-7.304 44.862-1.34 11.784-3.387 24.214-5.316 36.373-2.662 16.78-8.85 31.477-15.292 42.558-11.553 19.873-28.045 38.833-46.679 51.99-23.513 16.6-61.946 31.192-87.207 39.64-14.778 4.942-25.33 6.542-36.214 11.522-15.814 7.235-28.687 17.372-38.16 28.18-6.924-7.413-22.903-22.447-41.427-29.9-8.433-3.392-16.436-4.967-25.962-7.948-23.438-7.335-49.596-16.17-75.523-30.217-28.365-15.368-60.07-41.308-75.936-86.476-3.582-10.197-7.185-28.754-9.394-47.788-1.25-10.78-1.902-20.98-3.041-30.159-1.07-8.622-2.707-16.463-5.152-22.924 39.253-9.56 52.179-38.099 53.724-57.956 1.645-21.138-10.367-53.656-46.7-65.013z" style="fill:url(#b)"></path><path d="M476.254 358.278a71 71 0 0 1 4.077-8.123c8.112-13.838 19.723-24.054 33.973-30.439l-28.97-86.154c-61.546 4.866-123.472 7.324-185.192 7.53-63.052.21-127.25-2.25-190.159-7.495l-29.745 85.974c15.084 6.654 26.385 16.78 34.45 30.176a72 72 0 0 1 4.407 8.595c58.41 2.896 116.862 4.798 175.35 4.774 60.629-.026 121.28-1.263 181.809-4.838M78.43 491.38c.284 3.188.588 6.375.957 9.556 1.026 8.845 2.351 17.705 4.063 26.444 1.237 6.316 2.701 13.121 4.836 19.199 12.785 36.396 37.738 62.855 71.3 81.038 23.554 12.762 48.278 21.614 73.759 29.588 8.93 2.795 17.987 4.707 26.702 8.213 13.343 5.368 26.587 15.293 37.574 25.53 9.993-9.512 21.667-17.905 34.178-23.628 11.787-5.393 24.896-7.796 37.196-11.91 15.638-5.23 31.216-11.165 46.307-17.814 12.983-5.722 26.716-12.443 38.323-20.638 17.584-12.415 33.026-30.297 43.823-48.87 6.947-11.95 11.903-25.467 14.07-39.124 1.896-11.949 3.89-23.918 5.257-35.94q.134-1.186.258-2.385c-48.053 3.516-96.157 6.53-144.306 8.277-25.767.935-51.557 1.508-77.342 1.516-72.525.023-144.707-2.88-216.954-9.053" style="fill:#e2001d;fill-rule:evenodd"></path><path d="M521.619 456.106c-28.099-10.617-48.942-32.432-51.066-64.464-.48-7.232.168-14.58 1.861-21.678-59.254 3.387-118.62 4.57-177.964 4.596-57.178.024-114.32-1.786-171.424-4.567 1.779 7.171 2.49 14.604 1.928 21.818-2.446 31.433-21.862 53.565-51.103 64.083 1.237 5.084 1.97 9.711 2.602 14.804.395 3.187.718 6.383 1.01 9.581 72.57 6.258 145.07 9.2 217.918 9.176 25.654-.008 51.312-.579 76.948-1.509 48.623-1.764 97.198-4.825 145.723-8.388.712-7.825 1.58-15.784 3.567-23.452" style="fill:#09120b;fill-rule:evenodd"></path><defs><linearGradient id="c"><stop offset="201392128%" stop-color="#f4e077"></stop><stop offset="201392133%" stop-color="#f3dd74"></stop><stop offset="201392154%" stop-color="#efc646"></stop><stop offset="201392161%" stop-color="#d4b047"></stop><stop offset="201392166%" stop-color="#d4b047"></stop><stop offset="201392175%" stop-color="#efc646"></stop><stop offset="201392194%" stop-color="#fce478"></stop><stop offset="201392201%" stop-color="#fce375"></stop><stop offset="201392214%" stop-color="#efc646"></stop><stop offset="201392219%" stop-color="#e8b735"></stop><stop offset="100%" stop-color="#d2841b"></stop></linearGradient><linearGradient xlink:href="#c" id="d" x1="0" x2="0" y1="0" y2="1" gradientTransform="rotate(90 .5 .5)" gradientUnits="objectBoundingBox"></linearGradient></defs><path d="M345.193 416.955c.168 1.513-.708 3.255-.857 8.798-.034 1.263-.132 2.49.074 3.712.145.86.72 3.433 1.242 5.273.907 1.978 3.791 6.291 4.918 7.628.23.272 1.039.395 1.169-.322.284-1.57-.087-3.428-.687-4.785-1.322-2.991-3.69-5.139-4.268-8.566-.37-2.201-.133-4.104-.111-7.06.018-2.45.026-5.03.224-7.526.287-.03.62.04.851-.46.946-2.037 1.354-5.068.952-7.132 1.984-5.036 4.84-11.204 8.97-12.928 4.009-1.673 9.886-.486 11.514 5.319.389 1.388.582 3.29.2 5.12-.525 2.518-1.573 4.306-2.237 6.438-.398 1.278-.734 2.683-.528 4.442.199 1.694 3.07 3.144 4.35 4.024-1.896 1.928-2.987 2.526-6.844.874 0 4.483-.603 5.942-1.676 8.068-.596 1.182-.715 1.415-.649 2.792.241 4.98-.421 7.12-2.363 7.612-.54-.635-.88-3.557-1.148-5.772-.137-1.126-.43-2.124-.804-3.192-.381-1.09-.932-2.586-1.317-3.883-.9-3.034-1.66-6.784-1.367-9.13.542-4.344 1.336-7.002 5.229-10.602-.639-.175-1.856-.773-2.393-1.216-.264-.218-.51-.97-.675-1.973-.112-.686-.072-1.301-.436-2.35-5.377 4.414-4.388 16.19-2.108 25.752 1.236 5.183 3.22 9.374 3.367 13.195.117 3.044-1.425 5.482-3.007 6.557-1.933 1.315-5.944.76-8.712-1.043-.51.862-1.268 1.371-1.844 1.887-.823.739-1.565 1.425-1.874 2.057-.308.631-.083 1.268.269 1.776.664.96 2.693 1.616 4.642 3.423 1.148-.073 2.12 1.188 2.42 2.283.199.73.024 1.237.271 2.2-.622.104-1.09-.165-1.563-.18-.284-.01-.67.045-.728.115-.174.214.244.36.408.558.273.328.454.739.498 1.392.08 1.185-.988 3.083-1.438 3.515-.64-.922-1.59-1.36-1.815-1.149-.18.17.105.53.285.95s.222 1.004.143 1.522c-.18 1.175-1.605 2.497-2.19 2.844-.603-1.076-1.515-1.565-1.702-1.395-.078.07.424.998.56 1.598.218.97.321 2.053-.136 2.693-1.172 1.643-3.469.823-4.595 1.41-.203-.568-.397-1.974.415-2.835-1.303.485-1.113 1.666-1.33 2.79a3.45 3.45 0 0 1-.775 1.568c-.297.34-1.194.5-1.828.316-.633-.184-.9-.366-1.216-.642-.305.671-.65.88-1.175.6-.06.4-.566.548-.9 1.086-.268-.355-.819-2.33-.453-3.414.425-1.26 1.184-1.911 2.42-2.687.183-.115.331-.457-.104-.359-.966.219-2.142 1.313-3.787 1.798-.503.148-1.175.181-1.638.2-.877.034-1.304-.696-1.736-1.632-.521.004-1.124-.044-1.657.052.363-1.145.932-1.72 1.604-2.221.105-.557.24-.965.709-1.176 1.102-.5 3.118-.455 3.771-.229.307.106.67.08.1-.177-1.314-.592-2.281-.18-2.675-.405-.302-.173-.382-.416-.316-.849.16-.483.554-.686.45-1.243-.09.38-.419.76-.657.975-.18-.232-.267-.67-.318-1.204-.312-.165-.878-.2-1.335-.196.47-1.2 2.203-1.246 3.56-1.41.266-.555 1.066-.545 1.714-.338 1.614.517 2.51 2.71 4.682 2.666 2.075-.041 2.697-2.348 4.771-5.506-1.995-1.667-4.668-3.915-6.907-6.106-1.976-1.933-3.616-3.77-4.155-5.86-.905-3.508-.287-7.035 3.783-11.54l-3.343-3.778c1.27-.651 4.16-2.712 5.524-6.314 2.438-.89 4.195-2.66 4.348-4.389.337.162.628.802.71 1.489.087.73.445 1.208 1.353.513 1.284-.982 2.139-2.067 3.907-4.706" style="fill:url(#d)"></path><defs><linearGradient id="e"><stop offset="201392128%" stop-color="#f4e077"></stop><stop offset="201392133%" stop-color="#f3dd74"></stop><stop offset="201392154%" stop-color="#efc646"></stop><stop offset="201392161%" stop-color="#d4b047"></stop><stop offset="201392166%" stop-color="#d4b047"></stop><stop offset="201392175%" stop-color="#efc646"></stop><stop offset="201392194%" stop-color="#fce478"></stop><stop offset="201392201%" stop-color="#fce375"></stop><stop offset="201392214%" stop-color="#efc646"></stop><stop offset="201392219%" stop-color="#e8b735"></stop><stop offset="100%" stop-color="#d2841b"></stop></linearGradient><linearGradient xlink:href="#e" id="f" x1="0" x2="0" y1="0" y2="1" gradientTransform="rotate(90 .5 .5)" gradientUnits="objectBoundingBox"></linearGradient></defs><path d="m329.46 432.451 1.449 2.433c-2.496 3.046-3.76 5.796-3.658 9.947.028 1.107.304 2.66 1.003 3.881.318.556.942 1.152.991 1.867.048.693-.313 1.703-.88 2.22-.55-.395-.465-.506-.888-.7-.526-.24-.955-.216-1.074.587-.114.769-.352 1.486-1.167 2.042-.654.446-1.778.802-2.769.905.044-.692.189-1.187-.009-1.74-.085-.24-.4-.206-.474.038-.3 1.004-.682 1.86-1.931 2.288-.878.302-1.452.138-2.311.313.16-.738.041-2.2-.173-2.247-.161-.035-.243 2.259-.777 3.214-.365.653-1.295 1.244-1.621 1.155-.558.599-1.365 1.036-2.085.884.565-.73.492-1.027.305-1.399-.53-.21-.804-.422-.848-.836-.057-.533.313-1.255.991-1.588-.529-.072-1.261.275-1.605.938-.442.853-.737 2.27-1.658 2.642-1.044.422-2.11-.266-2.633-.24-.319.207-.537.552-.76 1.105-.647-.54-.727-2.167.013-3.047-.202-.296-.47-.534-.487-.782-.074-1.034 2.498-2.023 3.179-2.307.21-.088.302-.316-.153-.257-1.303.166-2.724 1.336-3.94.879-.657-.247-1.068-1.016-1.606-2.361-.184-.46-.992-.456-1.593-.35.288-.935 1.34-1.248 2.098-1.687.667-.386.945-.727 1.54-.801.515-.064.593-.087 1.388.28.982.451 2.991.906 3.803.791-1.25-.297-2.934-.728-4.277-1.486.086-.9.235-1.699.1-2.37-.04-.053-.33-.278-.983-.706.988-.438 1.928-.485 2.952-.276.357-.345 1.065-.316 1.423-.136.41.207.928.623 1.157 1.106.55 1.16.381 2.091 1.835 2.555 1.752.558 6.527-.672 7.593-1.505.263-.205.446-.451.062-.897-1.92-2.224-2.688-4.5-2.447-7.344l-.27-.035a12.6 12.6 0 0 1 .453-1.893c.394-1.259 1.052-2.32 2.068-3.088 1.933-1.461 5.182-1.946 8.674-1.992z" style="fill:url(#f)"></path><defs><linearGradient id="g"><stop offset="201392128%" stop-color="#f4e077"></stop><stop offset="201392133%" stop-color="#f3dd74"></stop><stop offset="201392154%" stop-color="#efc646"></stop><stop offset="201392161%" stop-color="#d4b047"></stop><stop offset="201392166%" stop-color="#d4b047"></stop><stop offset="201392175%" stop-color="#efc646"></stop><stop offset="201392194%" stop-color="#fce478"></stop><stop offset="201392201%" stop-color="#fce375"></stop><stop offset="201392214%" stop-color="#efc646"></stop><stop offset="201392219%" stop-color="#e8b735"></stop><stop offset="100%" stop-color="#d2841b"></stop></linearGradient><linearGradient xlink:href="#g" id="h" x1="0" x2="0" y1="0" y2="1" gradientTransform="rotate(90 .5 .5)" gradientUnits="objectBoundingBox"></linearGradient></defs><path d="M332.917 424.909c-1.468 2.396-2.09 3.095-3.786 4.257-.325.223-1.866.409-3.042.443.586-.887.745-1.513.482-2.143-.158-.377-1.08-.542-1.172-.034-.435 2.407-1.8 2.868-5.243 2.765.07-.577.383-1.304.242-1.867-.197-.782-.774-.395-.828-.138-.563 2.691-2.92 2.753-5.38 2.903.172-.714.485-1.768.034-2.143-.213-.177-.555-.177-.9-.18-.346-.003-.697-.01-.928.215-.655.636.076 2.472-.369 3.003-.3.358-.564.566-1.704.734-.595.825-1.722 1.3-2.514 1.274.114-.437.247-1.075.06-1.615-.165-.477-.616-.304-.575-1.215.032-.707.45-1.224 1.274-1.94-1.413.358-2.073 1.72-3.01 2.752-.678.747-1.499 1.277-2.521 1.194a1.98 1.98 0 0 1-1.402-.766c-.47.081-.77.23-1.24.623.028-.853.074-1.636.93-2.489-.181-.556-.203-1.065-.048-1.412.094-.21.537-.464 1.068-.755.433-.237.746-.366 1.426-.595.2-.067.44-.167.486-.245.104-.172-.694-.163-1.527.206-.937.415-1.996.897-2.923.658-.816-.21-1.365-1.451-2.028-2.007-.295-.034-.68-.029-1.075-.135.156-.402.687-1.013 1.867-1.49.458-.877.912-1.35 1.438-1.489.673-.176 1.476.424 2.375.795.699.289 1.326.372 2.114.214-.974-.178-1.265-.275-1.72-.462-1.002-.41-1.533-.822-2.02-1.063-.135-.439.039-1.826-.033-2.392-.244-.116-.7-.242-1.055-.3.308-.827 1.363-.812 3.168-.728.503-.125 1.12-.241 1.557.037.74.472.877 1.233 1.694 3.214.248.6.556.837 1.328.96 1.183.19 2.289-.242 3.877-.624 1.858-.447 4.205-1.077 6.034-1.546.046 1.82.575 2.293 1.966 1.59-.233.795-.13 1.288.09 1.509 4.103 1.569 8.002.968 9.808-.956.12.689.065 1.043-.013 1.459-.059.316.106.636.688.585.928-.08 1.76-.2 3.05-.661" style="fill:url(#h)"></path><defs><linearGradient id="i"><stop offset="201392128%" stop-color="#f4e077"></stop><stop offset="201392133%" stop-color="#f3dd74"></stop><stop offset="201392154%" stop-color="#efc646"></stop><stop offset="201392161%" stop-color="#d4b047"></stop><stop offset="201392166%" stop-color="#d4b047"></stop><stop offset="201392175%" stop-color="#efc646"></stop><stop offset="201392194%" stop-color="#fce478"></stop><stop offset="201392201%" stop-color="#fce375"></stop><stop offset="201392214%" stop-color="#efc646"></stop><stop offset="201392219%" stop-color="#e8b735"></stop><stop offset="100%" stop-color="#d2841b"></stop></linearGradient><linearGradient xlink:href="#i" id="j" x1="0" x2="0" y1="0" y2="1" gradientTransform="rotate(91 .5 .5)" gradientUnits="objectBoundingBox"></linearGradient></defs><path d="M320.501 407.629c0 .334-.034.771-.034 1.105-.856-.457-1.768-1.235-2.035-1.21-.776.077-.937.381-1.119 2.326-.13 1.403.158 2.983.774 4.034-1.9 1.113-2.805 1.026-4.165.135-.595-.39-1.236-.937-1.664-1.517.61-.358 1.26-.74 1.449-1.452.147-.555-1.307-1.5-1.656-1.21-.67.56-1.061 1.317-1.457 1.83-.19.247-.83.297-1.578-.067-1.017.285-2.247.44-3.104-.38.318-.122.6-.27.816-.527.19-.227.155-.712.391-.994-.776-1.463.305-1.901 2.173-2.004-2.194-.63-3.628 1.187-4.951.672-.314-.122-.623-.456-.893-1.012-.165-.342-.552-.441-.709-.8-.506-.231-.942-.289-1.448-.208.204-.715 1.072-1.417 2.069-1.901.102-.499.236-.666.681-.782.742-.194 2.353-.131 3.25.264.035-.415-.31-.653-.62-.726-.985-.233-1.61.1-2.621.069-.416-.013-.675-.273-.877-.465-.481-.454-.5-1.037-.477-1.701.007-.216-.066-.396-.147-.596-.157-.388.063-.466-.603-.627-.265-.064-.556-.015-.655-.033.172-.875.655-1.129 2.449-1.002.538-.729 1.482-.59 2.238-.14 1.18.7 1.94 1.48 3.28 2.732-.975-1.333-1.912-2.48-2.794-3.352-.23-.369.816-1.118 1.173-1.52-.012-.842-.19-1.415-.345-1.902.844.08 1.619.53 2.621 1.313.454-.108 1.412.425 1.666 2.005.143.884-.159 2.252.02 3.387a2.86 2.86 0 0 0 1.26 1.99c1.352.902 5.713 3.184 7.642 4.266" style="fill:url(#j)"></path><defs><linearGradient id="k"><stop offset="201392128%" stop-color="#f4e077"></stop><stop offset="201392133%" stop-color="#f3dd74"></stop><stop offset="201392154%" stop-color="#efc646"></stop><stop offset="201392161%" stop-color="#d4b047"></stop><stop offset="201392166%" stop-color="#d4b047"></stop><stop offset="201392175%" stop-color="#efc646"></stop><stop offset="201392194%" stop-color="#fce478"></stop><stop offset="201392201%" stop-color="#fce375"></stop><stop offset="201392214%" stop-color="#efc646"></stop><stop offset="201392219%" stop-color="#e8b735"></stop><stop offset="100%" stop-color="#d2841b"></stop></linearGradient><linearGradient xlink:href="#k" id="l" x1="0" x2="0" y1="0" y2="1" gradientTransform="rotate(90 .5 .5)" gradientUnits="objectBoundingBox"></linearGradient></defs><path d="M322.797 401.545c-3.032.135-6.88.007-7.607-.207-1.374-.402-1.791-1.437-1.78-3.045.018-2.638 1.284-4.51 1.42-6.361.064-.887-.206-1.122-1.481-1.618.09-.306.593-.41 1.203-.4 1.518.029 2.273.815 2.55 2.31.248 1.331-.645 3.086-1.025 4.505-.212.796-.255 1.535.135 1.918.528.52 3.405 1.303 6.732 2.378.368.118.386.496-.147.52" style="fill:url(#l)"></path><defs><linearGradient id="m"><stop offset="201392128%" stop-color="#f4e077"></stop><stop offset="201392135%" stop-color="#f3dd74"></stop><stop offset="201392154%" stop-color="#efc646"></stop><stop offset="201392161%" stop-color="#d4b047"></stop><stop offset="201392166%" stop-color="#d4b047"></stop><stop offset="201392175%" stop-color="#efc646"></stop><stop offset="201392194%" stop-color="#fce478"></stop><stop offset="201392201%" stop-color="#fce375"></stop><stop offset="201392214%" stop-color="#efc646"></stop><stop offset="201392219%" stop-color="#e8b735"></stop><stop offset="100%" stop-color="#d2841b"></stop></linearGradient><linearGradient xlink:href="#m" id="n" x1="0" x2="0" y1="0" y2="1" gradientTransform="rotate(89 .5 .5)" gradientUnits="objectBoundingBox"></linearGradient></defs><path d="M320.474 395.334c.989 1.974 1.852 4.328 2.774 4.66.598.216 1.117.186 1.505.063.923-.292 1.565-.918 2.154-2.434 1.064-.396 2.418-.319 3.414.218.98.529 1.8 1.499 1.58 2.903-.235 1.5-1.84 2.013-2.882 1.644-.626-.221-.822-.485-1.533-1.045-2.007.411-2.893.966-3.095 1.281-.105.165.295 1.358.704 2.004.599.945 1.575 1.883 2.048 1.669.65-.295.435-.856.675-1.422 1.833.233 3.598-.246 5.032-1.355.304.535.727.837.985 1.138 1.186-1.081 1.725-1.71 1.618-3.809l1.184.023c.088-2.186-1.78-4.513-3.774-5.32 2.548.515 4.192 2.586 4.37 5.79l-1.275.011c.135 1.617-.698 3.115-2.18 3.937-.279-.351-.72-.598-1.022-1.02-.381.226-.699.447-1.144.571-.633.652-.564 1.267-1.476 1.852-.818.525-2.07.962-3.145.965-1.2.003-2.703-.585-4.519-1.753-.601 1.247-.559 2.234-.45 3.61-2.043-.02-2.73-.557-3.74-1.224-.502 3.26-.234 5.938 2.696 6.78-2.444 1.66-3.465 3.938-2.825 7.53 1.01-.58 1.84-1.226 3.171-1.418-.792 1.015-1.129 1.764-1.301 2.836 6.093 1.651 8.81-.158 9.95-3.16.622 1.209.323 2.687-.064 3.804 1.98-.315 5.698-1.023 7.654-3.247.802-.911 1.273-2.081 1.165-3.535.989.676 1.578.983 1.95 3.42 1.58-1.452 3.36-3.444 3.947-5.453.429-1.465.168-2.885-1-4.38 1.532-.272 2.598.48 3.406 1.98.97-2.342 1.201-4.745.997-6.124-.34-2.298-1.887-3.025-3.224-3.517 1.31-.971 2.851.109 3.646.496.297-2.02.028-4.589-.807-6.152-.65-1.216-1.67-1.678-2.869-2.494 1.258-.13 2.419.257 2.902.386-.058-1.712-1.665-4.103-3.022-5.22a3.9 3.9 0 0 0-1.128-.63c.575-1.64-.468-3.362-3.034-5.728 0 .773.093 1.454.093 2.227-2.515-.088-4.187.151-5.39 1.745.086-.344.212-.946.298-1.29-1.586.707-3.664.9-5.387 1.184-.902.148-1.495.01-2.206.29-.939.371-1.635.91-1.882 1.75-2.687.341-4.36 1.219-5.93 3.092-.238.284-.012 1.464.715 1.571.365.054.409-.466.74-.74.2-.166.728-.243.865-.056.441.608-1.29.71-1.934 1.096m19.1-7.509c-.46.142-.785.159-1.328.464-.689.387-1.28.963-1.445 1.689-.202.881.233.592.57.065.43-.674.79-1.355 2.203-2.218m-8.778 2.385c-.456-.198-1.246-.23-1.675-.025-.277.132-.513.462-.864.597-.208.08-.556.184-1.048.275.155.133.383.415.568.564.308.25.772.471 1.38.334.497-.11.957-.6 1.274-1.412.057-.148.125-.223.365-.333m6.639-2.264c-1.075 1.008-1.805 1.964-2.052 3.007-.224-1.255.953-2.342 2.052-3.007" style="fill:url(#n)"></path><defs><linearGradient id="o"><stop offset="201392128%" stop-color="#f4e077"></stop><stop offset="201392133%" stop-color="#f3dd74"></stop><stop offset="201392154%" stop-color="#efc646"></stop><stop offset="201392161%" stop-color="#d4b047"></stop><stop offset="201392166%" stop-color="#d4b047"></stop><stop offset="201392175%" stop-color="#efc646"></stop><stop offset="201392194%" stop-color="#fce478"></stop><stop offset="201392201%" stop-color="#fce375"></stop><stop offset="201392214%" stop-color="#efc646"></stop><stop offset="201392219%" stop-color="#e8b735"></stop><stop offset="100%" stop-color="#d2841b"></stop></linearGradient><linearGradient xlink:href="#o" id="p" x1="0" x2="0" y1="0" y2="1" gradientTransform="rotate(90 .5 .5)" gradientUnits="objectBoundingBox"></linearGradient></defs><path d="M247.628 416.955c-.168 1.513.708 3.255.857 8.798.034 1.263.132 2.49-.074 3.712-.145.86-.72 3.433-1.242 5.273-.907 1.978-3.791 6.291-4.918 7.628-.23.272-1.039.395-1.169-.322-.284-1.57.087-3.428.687-4.785 1.322-2.991 3.69-5.139 4.267-8.566.371-2.201.134-4.104.112-7.06-.018-2.45-.026-5.03-.224-7.526-.287-.03-.62.04-.851-.46-.946-2.037-1.354-5.068-.952-7.132-1.984-5.036-4.84-11.204-8.97-12.928-4.009-1.673-9.887-.486-11.514 5.319-.389 1.388-.582 3.29-.2 5.12.525 2.518 1.573 4.306 2.237 6.438.398 1.278.733 2.683.527 4.442-.198 1.694-3.068 3.144-4.35 4.024 1.897 1.928 2.988 2.526 6.845.874 0 4.483.603 5.942 1.675 8.068.597 1.182.716 1.415.65 2.792-.241 4.98.421 7.12 2.363 7.612.54-.635.88-3.557 1.148-5.772.137-1.126.43-2.124.804-3.192.381-1.09.932-2.586 1.317-3.883.9-3.034 1.66-6.784 1.367-9.13-.542-4.344-1.336-7.002-5.229-10.602.639-.175 1.856-.773 2.392-1.216.265-.218.511-.97.676-1.973.112-.686.072-1.301.436-2.35 5.377 4.414 4.388 16.19 2.108 25.752-1.236 5.183-3.22 9.374-3.367 13.195-.117 3.044 1.425 5.482 3.007 6.557 1.932 1.315 5.944.76 8.712-1.043.51.862 1.268 1.371 1.844 1.887.823.739 1.565 1.425 1.874 2.057.308.631.082 1.268-.269 1.776-.665.96-2.693 1.616-4.642 3.423-1.148-.073-2.12 1.188-2.42 2.283-.199.73-.024 1.237-.272 2.2.623.104 1.09-.165 1.564-.18.284-.01.67.045.728.115.174.214-.244.36-.408.558-.273.328-.454.739-.498 1.392-.08 1.185.988 3.083 1.438 3.515.64-.922 1.59-1.36 1.815-1.149.18.17-.105.53-.285.95s-.222 1.004-.143 1.522c.18 1.175 1.604 2.497 2.19 2.844.603-1.076 1.515-1.565 1.702-1.395.078.07-.425.998-.56 1.598-.218.97-.321 2.053.136 2.693 1.172 1.643 3.469.823 4.595 1.41.203-.568.397-1.974-.415-2.835 1.303.485 1.113 1.666 1.33 2.79.113.588.411 1.153.775 1.568.297.34 1.194.5 1.828.316.633-.184.9-.366 1.216-.642.305.671.65.88 1.175.6.06.4.565.548.9 1.086.268-.355.819-2.33.453-3.414-.425-1.26-1.184-1.911-2.42-2.687-.183-.115-.331-.457.104-.359.966.219 2.142 1.313 3.787 1.798.503.148 1.175.181 1.637.2.878.034 1.305-.696 1.737-1.632.521.004 1.124-.044 1.657.052-.363-1.145-.932-1.72-1.604-2.221-.105-.557-.24-.965-.709-1.176-1.102-.5-3.118-.455-3.771-.229-.307.106-.67.08-.1-.177 1.314-.592 2.281-.18 2.675-.405.302-.173.382-.416.316-.849-.16-.483-.554-.686-.45-1.243.09.38.419.76.657.975.18-.232.267-.67.318-1.204.312-.165.878-.2 1.335-.196-.47-1.2-2.203-1.246-3.56-1.41-.266-.555-1.066-.545-1.714-.338-1.614.517-2.51 2.71-4.682 2.666-2.075-.041-2.697-2.348-4.771-5.506 1.995-1.667 4.668-3.915 6.907-6.106 1.976-1.933 3.616-3.77 4.155-5.86.905-3.508.287-7.035-3.783-11.54l3.343-3.778c-1.27-.651-4.16-2.712-5.524-6.314-2.438-.89-4.195-2.66-4.348-4.389-.337.162-.628.802-.71 1.489-.087.73-.445 1.208-1.353.513-1.284-.982-2.139-2.067-3.907-4.706" style="fill:url(#p)"></path><defs data-source="https://football-logos.cc"><linearGradient id="q"><stop offset="201392128%" stop-color="#f4e077"></stop><stop offset="201392133%" stop-color="#f3dd74"></stop><stop offset="201392154%" stop-color="#efc646"></stop><stop offset="201392161%" stop-color="#d4b047"></stop><stop offset="201392166%" stop-color="#d4b047"></stop><stop offset="201392175%" stop-color="#efc646"></stop><stop offset="201392194%" stop-color="#fce478"></stop><stop offset="201392201%" stop-color="#fce375"></stop><stop offset="201392214%" stop-color="#efc646"></stop><stop offset="201392219%" stop-color="#e8b735"></stop><stop offset="100%" stop-color="#d2841b"></stop></linearGradient><linearGradient xlink:href="#q" id="r" x1="0" x2="0" y1="0" y2="1" gradientTransform="rotate(90 .5 .5)" gradientUnits="objectBoundingBox"></linearGradient></defs><path d="m263.36 432.451-1.448 2.433c2.496 3.046 3.76 5.796 3.658 9.947-.028 1.107-.304 2.66-1.003 3.881-.318.556-.942 1.152-.991 1.867-.048.693.313 1.703.88 2.22.55-.395.465-.506.888-.7.526-.24.955-.216 1.074.587.114.769.352 1.486 1.167 2.042.654.446 1.778.802 2.769.905-.043-.692-.189-1.187.009-1.74.085-.24.4-.206.474.038.3 1.004.682 1.86 1.932 2.288.877.302 1.45.138 2.31.313-.16-.738-.041-2.2.173-2.247.161-.035.243 2.259.777 3.214.365.653 1.295 1.244 1.621 1.155.558.599 1.365 1.036 2.085.884-.565-.73-.492-1.027-.304-1.399.53-.21.803-.422.847-.836.057-.533-.313-1.255-.991-1.588.529-.072 1.261.275 1.605.938.442.853.737 2.27 1.658 2.642 1.044.422 2.11-.266 2.633-.24.319.207.537.552.76 1.105.647-.54.728-2.167-.013-3.047.202-.296.47-.534.487-.782.074-1.034-2.498-2.023-3.179-2.307-.21-.088-.302-.316.153-.257 1.303.166 2.724 1.336 3.94.879.657-.247 1.068-1.016 1.606-2.361.184-.46.992-.456 1.593-.35-.288-.935-1.34-1.248-2.098-1.687-.667-.386-.945-.727-1.54-.801-.515-.064-.593-.087-1.388.28-.982.451-2.991.906-3.803.791 1.25-.297 2.934-.728 4.277-1.486-.086-.9-.235-1.699-.1-2.37.04-.053.33-.278.983-.706-.988-.438-1.928-.485-2.952-.276-.357-.345-1.065-.316-1.423-.136-.41.207-.928.623-1.157 1.106-.55 1.16-.381 2.091-1.835 2.555-1.752.558-6.527-.672-7.593-1.505-.263-.205-.446-.451-.062-.897 1.92-2.224 2.688-4.5 2.447-7.344l.27-.035a12.6 12.6 0 0 0-.452-1.893c-.395-1.259-1.053-2.32-2.069-3.088-1.933-1.461-5.182-1.946-8.674-1.992z" style="fill:url(#r)"></path><defs><linearGradient id="s"><stop offset="201392128%" stop-color="#f4e077"></stop><stop offset="201392133%" stop-color="#f3dd74"></stop><stop offset="201392154%" stop-color="#efc646"></stop><stop offset="201392161%" stop-color="#d4b047"></stop><stop offset="201392166%" stop-color="#d4b047"></stop><stop offset="201392175%" stop-color="#efc646"></stop><stop offset="201392194%" stop-color="#fce478"></stop><stop offset="201392201%" stop-color="#fce375"></stop><stop offset="201392214%" stop-color="#efc646"></stop><stop offset="201392219%" stop-color="#e8b735"></stop><stop offset="100%" stop-color="#d2841b"></stop></linearGradient><linearGradient xlink:href="#s" id="t" x1="0" x2="0" y1="0" y2="1" gradientTransform="rotate(90 .5 .5)" gradientUnits="objectBoundingBox"></linearGradient></defs><path d="M259.904 424.909c1.468 2.396 2.09 3.095 3.786 4.257.325.223 1.866.409 3.042.443-.586-.887-.745-1.513-.482-2.143.158-.377 1.08-.542 1.172-.034.435 2.407 1.8 2.868 5.243 2.765-.07-.577-.383-1.304-.242-1.867.197-.782.774-.395.828-.138.563 2.691 2.92 2.753 5.38 2.903-.172-.714-.485-1.768-.034-2.143.213-.177.555-.177.9-.18.346-.003.697-.01.928.215.655.636-.076 2.472.369 3.003.3.358.564.566 1.704.734.595.825 1.722 1.3 2.514 1.274-.114-.437-.247-1.075-.06-1.615.165-.477.616-.304.575-1.215-.032-.707-.45-1.224-1.274-1.94 1.413.358 2.073 1.72 3.01 2.752.678.747 1.499 1.277 2.521 1.194a1.98 1.98 0 0 0 1.402-.766c.47.081.77.23 1.24.623-.028-.853-.074-1.636-.93-2.489.181-.556.203-1.065.048-1.412-.094-.21-.537-.464-1.068-.755-.433-.237-.746-.366-1.426-.595-.2-.067-.44-.167-.486-.245-.104-.172.694-.163 1.527.206.937.415 1.996.897 2.923.658.816-.21 1.365-1.451 2.028-2.007.295-.034.68-.029 1.075-.135-.156-.402-.687-1.013-1.867-1.49-.458-.877-.912-1.35-1.438-1.489-.673-.176-1.476.424-2.375.795-.699.289-1.326.372-2.114.214.974-.178 1.265-.275 1.72-.462 1.002-.41 1.533-.822 2.02-1.063.135-.439-.039-1.826.033-2.392.244-.116.7-.242 1.055-.3-.308-.827-1.363-.812-3.168-.728-.503-.125-1.12-.241-1.557.037-.74.472-.877 1.233-1.694 3.214-.248.6-.556.837-1.328.96-1.183.19-2.289-.242-3.877-.624-1.858-.447-4.205-1.077-6.034-1.546-.046 1.82-.575 2.293-1.966 1.59.233.795.13 1.288-.09 1.509-4.103 1.569-8.002.968-9.808-.956-.12.689-.065 1.043.013 1.459.059.316-.106.636-.688.585-.928-.08-1.76-.2-3.05-.661" style="fill:url(#t)"></path><defs><linearGradient id="u"><stop offset="201392128%" stop-color="#f4e077"></stop><stop offset="201392133%" stop-color="#f3dd74"></stop><stop offset="201392154%" stop-color="#efc646"></stop><stop offset="201392161%" stop-color="#d4b047"></stop><stop offset="201392166%" stop-color="#d4b047"></stop><stop offset="201392175%" stop-color="#efc646"></stop><stop offset="201392194%" stop-color="#fce478"></stop><stop offset="201392201%" stop-color="#fce375"></stop><stop offset="201392214%" stop-color="#efc646"></stop><stop offset="201392219%" stop-color="#e8b735"></stop><stop offset="100%" stop-color="#d2841b"></stop></linearGradient><linearGradient xlink:href="#u" id="v" x1="0" x2="0" y1="0" y2="1" gradientTransform="rotate(90 .5 .5)" gradientUnits="objectBoundingBox"></linearGradient></defs><path d="M272.32 407.629c0 .334.034.771.034 1.105.856-.457 1.768-1.235 2.035-1.21.776.077.937.381 1.119 2.326.13 1.403-.158 2.983-.774 4.034 1.9 1.113 2.805 1.026 4.165.135.595-.39 1.236-.937 1.664-1.517-.61-.358-1.26-.74-1.449-1.452-.147-.555 1.307-1.5 1.656-1.21.67.56 1.061 1.317 1.457 1.83.19.247.83.297 1.578-.067 1.017.285 2.247.44 3.104-.38-.318-.122-.6-.27-.816-.527-.19-.227-.155-.712-.391-.994.776-1.463-.305-1.901-2.173-2.004 2.194-.63 3.628 1.187 4.951.672.314-.122.623-.456.893-1.012.165-.342.552-.441.709-.8.506-.231.942-.289 1.448-.208-.204-.715-1.072-1.417-2.069-1.901-.102-.499-.236-.666-.681-.782-.742-.194-2.353-.131-3.25.264-.035-.415.31-.653.62-.726.985-.233 1.61.1 2.621.069.416-.013.675-.273.877-.465.481-.454.5-1.037.477-1.701-.007-.216.066-.396.147-.596.157-.388-.063-.466.603-.627.265-.064.556-.015.655-.033-.172-.875-.655-1.129-2.449-1.002-.538-.729-1.482-.59-2.238-.14-1.18.7-1.94 1.48-3.28 2.732.975-1.333 1.912-2.48 2.794-3.352.23-.369-.816-1.118-1.173-1.52.012-.842.19-1.415.345-1.902-.844.08-1.619.53-2.621 1.313-.454-.108-1.412.425-1.666 2.005-.143.884.159 2.252-.02 3.387a2.86 2.86 0 0 1-1.26 1.99c-1.352.902-5.713 3.184-7.642 4.266" style="fill:url(#v)"></path><defs><linearGradient id="w"><stop offset="201392128%" stop-color="#f4e077"></stop><stop offset="201392133%" stop-color="#f3dd74"></stop><stop offset="201392154%" stop-color="#efc646"></stop><stop offset="201392161%" stop-color="#d4b047"></stop><stop offset="201392166%" stop-color="#d4b047"></stop><stop offset="201392175%" stop-color="#efc646"></stop><stop offset="201392194%" stop-color="#fce478"></stop><stop offset="201392201%" stop-color="#fce375"></stop><stop offset="201392214%" stop-color="#efc646"></stop><stop offset="201392219%" stop-color="#e8b735"></stop><stop offset="100%" stop-color="#d2841b"></stop></linearGradient><linearGradient xlink:href="#w" id="x" x1="0" x2="0" y1="0" y2="1" gradientTransform="rotate(90 .5 .5)" gradientUnits="objectBoundingBox"></linearGradient></defs><path d="M270.024 401.545c3.032.135 6.88.007 7.607-.207 1.374-.402 1.791-1.437 1.78-3.045-.018-2.638-1.284-4.51-1.42-6.361-.064-.887.206-1.122 1.481-1.618-.09-.306-.593-.41-1.203-.4-1.518.029-2.274.815-2.55 2.31-.248 1.331.645 3.086 1.025 4.505.212.796.255 1.535-.135 1.918-.528.52-3.405 1.303-6.732 2.378-.368.118-.386.496.147.52" style="fill:url(#x)"></path><defs><linearGradient id="y"><stop offset="201392128%" stop-color="#f4e077"></stop><stop offset="201392133%" stop-color="#f3dd74"></stop><stop offset="201392154%" stop-color="#efc646"></stop><stop offset="201392161%" stop-color="#d4b047"></stop><stop offset="201392166%" stop-color="#d4b047"></stop><stop offset="201392175%" stop-color="#efc646"></stop><stop offset="201392194%" stop-color="#fce478"></stop><stop offset="201392201%" stop-color="#fce375"></stop><stop offset="201392214%" stop-color="#efc646"></stop><stop offset="201392219%" stop-color="#e8b735"></stop><stop offset="100%" stop-color="#d2841b"></stop></linearGradient><linearGradient xlink:href="#y" id="z" x1="0" x2="0" y1="0" y2="1" gradientTransform="rotate(90 .5 .5)" gradientUnits="objectBoundingBox"></linearGradient></defs><path d="M272.347 395.334c-.989 1.974-1.852 4.328-2.774 4.66-.598.216-1.117.186-1.505.063-.923-.292-1.565-.918-2.154-2.434-1.064-.396-2.418-.319-3.414.218-.98.529-1.8 1.499-1.58 2.903.235 1.5 1.84 2.013 2.882 1.644.626-.221.822-.485 1.533-1.045 2.007.411 2.893.966 3.095 1.281.105.165-.295 1.358-.704 2.004-.599.945-1.575 1.883-2.048 1.669-.65-.295-.435-.856-.675-1.422-1.833.233-3.598-.246-5.032-1.355-.304.535-.727.837-.985 1.138-1.186-1.081-1.725-1.71-1.618-3.809l-1.184.023c-.088-2.186 1.78-4.513 3.774-5.32-2.548.515-4.192 2.586-4.37 5.79l1.275.011c-.135 1.617.698 3.115 2.18 3.937.279-.351.72-.598 1.022-1.02.381.226.699.447 1.144.571.633.652.564 1.267 1.476 1.852.818.525 2.07.962 3.145.965 1.2.003 2.703-.585 4.519-1.753.601 1.247.559 2.234.45 3.61 2.043-.02 2.73-.557 3.74-1.224.502 3.26.234 5.938-2.696 6.78 2.444 1.66 3.465 3.938 2.825 7.53-1.01-.58-1.84-1.226-3.171-1.418.792 1.015 1.129 1.764 1.301 2.836-6.093 1.651-8.81-.158-9.95-3.16-.622 1.209-.323 2.687.064 3.804-1.98-.315-5.698-1.023-7.654-3.247-.802-.911-1.273-2.081-1.165-3.535-.989.676-1.578.983-1.95 3.42-1.58-1.452-3.36-3.444-3.947-5.453-.429-1.465-.168-2.885 1-4.38-1.532-.272-2.598.48-3.406 1.98-.971-2.342-1.201-4.745-.997-6.124.34-2.298 1.887-3.025 3.224-3.517-1.31-.971-2.851.109-3.646.496-.297-2.02-.028-4.589.807-6.152.65-1.216 1.67-1.678 2.868-2.494-1.257-.13-2.418.257-2.9.386.056-1.712 1.664-4.103 3.021-5.22.38-.312.85-.535 1.128-.63-.575-1.64.468-3.362 3.034-5.728 0 .773-.093 1.454-.093 2.227 2.515-.088 4.187.151 5.39 1.745-.086-.344-.212-.946-.298-1.29 1.586.707 3.664.9 5.387 1.184.902.148 1.495.01 2.206.29.939.371 1.634.91 1.882 1.75 2.686.341 4.36 1.219 5.93 3.092.238.284.012 1.464-.715 1.571-.365.054-.409-.466-.74-.74-.2-.166-.728-.243-.865-.056-.441.608 1.29.71 1.934 1.096m-19.1-7.509c.46.142.785.159 1.328.464.689.387 1.28.963 1.445 1.689.202.881-.233.592-.57.065-.43-.674-.79-1.355-2.203-2.218m8.778 2.385c.456-.198 1.246-.23 1.675-.025.277.132.513.462.864.597.208.08.556.184 1.048.275-.155.133-.383.415-.568.564-.308.25-.772.471-1.38.334-.497-.11-.957-.6-1.274-1.412-.057-.148-.125-.223-.365-.333m-6.639-2.264c1.075 1.008 1.805 1.964 2.052 3.007.224-1.255-.953-2.342-2.052-3.007" style="fill:url(#z)"></path><path d="m297.589 137.597 9.202 28.509 30.612-.542-24.925 18.046 9.43 28.94-24.202-18.122-24.553 18.005 9.663-28.94-24.87-17.907 30.44.52z" style="fill:#09120b;fill-rule:evenodd"></path><defs><linearGradient id="A"><stop offset="201392128%" stop-color="#f4e077"></stop><stop offset="201392133%" stop-color="#f3dd74"></stop><stop offset="201392154%" stop-color="#efc646"></stop><stop offset="201392161%" stop-color="#d4b047"></stop><stop offset="201392166%" stop-color="#d4b047"></stop><stop offset="201392175%" stop-color="#efc646"></stop><stop offset="201392194%" stop-color="#fce478"></stop><stop offset="201392201%" stop-color="#fce375"></stop><stop offset="201392214%" stop-color="#efc646"></stop><stop offset="201392219%" stop-color="#e8b735"></stop><stop offset="100%" stop-color="#d2841b"></stop></linearGradient><linearGradient xlink:href="#A" id="B" x1="0" x2="0" y1="0" y2="1" gradientTransform="rotate(90 .5 .5)" gradientUnits="objectBoundingBox"></linearGradient></defs><path d="m297.557 137.48 9.086 28.146 29.575-.057-23.96 17.338 9.193 28.11-23.894-17.43-23.893 17.43 9.193-28.11-23.96-17.338 29.575.057z" style="fill:url(#B)"></path><defs><linearGradient id="C"><stop offset="201392128%" stop-color="#f4e077"></stop><stop offset="201392133%" stop-color="#f3dd74"></stop><stop offset="201392154%" stop-color="#efc646"></stop><stop offset="201392161%" stop-color="#d4b047"></stop><stop offset="201392166%" stop-color="#d4b047"></stop><stop offset="201392175%" stop-color="#efc646"></stop><stop offset="201392194%" stop-color="#fce478"></stop><stop offset="201392201%" stop-color="#fce375"></stop><stop offset="201392214%" stop-color="#efc646"></stop><stop offset="201392219%" stop-color="#e8b735"></stop><stop offset="100%" stop-color="#d2841b"></stop></linearGradient><linearGradient xlink:href="#C" id="D" x1="0" x2="0" y1="0" y2="1" gradientTransform="rotate(90 .5 .5)" gradientUnits="objectBoundingBox"></linearGradient></defs><path d="m156.741 406.637-2.008 34.953c-.087 1.503-.084 2.41.03 2.723.164.545.481.935.958 1.192.478.246 1.375.418 2.694.494l4.5.258-.354 6.156-27.511-1.58.353-6.157 4.533.26c1.59.092 2.621.042 3.08-.129a2.02 2.02 0 0 0 1.058-.933c.255-.445.42-1.397.504-2.868l1.433-24.929-8.935-.513.357-6.2c2.564-.104 4.54-.264 5.918-.458 2.06-.286 4.26-.717 6.6-1.282a23.5 23.5 0 0 0 3.652-1.167zm276.39 47.216-.365-6.22c4.075-.415 7.31-.987 9.693-1.74 2.393-.753 4.37-1.7 5.942-2.863 1.561-1.164 2.806-2.494 3.711-4.012.917-1.519 1.526-3.238 1.819-5.147-1.797 1.429-3.518 2.46-5.175 3.103q-2.469.965-5.377 1.136c-3.105.182-5.922-.308-8.46-1.449-2.526-1.141-4.502-2.752-5.903-4.835-1.402-2.093-2.192-4.56-2.361-7.437-.28-4.75 1.17-8.749 4.323-12.006 3.164-3.269 7.607-5.06 13.326-5.397 5.895-.346 10.595.952 14.103 3.905 4.106 3.454 6.354 8.405 6.733 14.855.254 4.336-.182 8.079-1.33 11.218-1.139 3.15-3.039 5.973-5.69 8.49-2.661 2.517-5.85 4.443-9.564 5.787-3.704 1.333-8.857 2.205-15.425 2.612m12.696-23.19c1.558-.091 2.91-.52 4.058-1.266 1.147-.756 2.016-1.79 2.604-3.137.577-1.335.828-2.837.73-4.493-.143-2.43-.988-4.358-2.538-5.809-1.55-1.439-3.426-2.105-5.637-1.975-2.255.133-4.084 1.016-5.465 2.628-1.392 1.623-2.015 3.671-1.868 6.166q.22 3.76 2.513 5.92c1.516 1.441 3.391 2.096 5.603 1.966m-43.363-21.539c3.958-.155 7.405.573 10.342 2.205 2.936 1.621 5.269 4.02 7.02 7.206 1.743 3.186 2.722 7.287 2.92 12.314.222 5.671-.36 10.063-1.734 13.185-1.543 3.545-3.708 6.251-6.507 8.13s-6.275 2.9-10.452 3.064c-4.068.16-7.536-.556-10.406-2.17-2.87-1.602-5.194-4.044-6.961-7.34-1.767-3.283-2.764-7.536-2.968-12.727q-.306-7.836 1.952-12.887c1.495-3.38 3.653-6.02 6.484-7.91 2.83-1.892 6.264-2.911 10.31-3.07m9.214 22.738c-.23-5.834-1.257-10.031-3.082-12.58-1.627-2.22-3.69-3.286-6.176-3.188-2.3.09-4.184 1.376-5.66 3.837-1.465 2.471-2.087 6.668-1.854 12.589.232 5.921 1.18 10.045 2.855 12.383q2.5 3.506 6.085 3.365c2.399-.094 4.368-1.405 5.885-3.933 1.529-2.518 2.173-6.682 1.946-12.473m-238.844 21.89.325-6.222c4.096.039 7.374-.173 9.826-.656 2.462-.484 4.532-1.206 6.223-2.19 1.68-.983 3.063-2.167 4.132-3.575 1.079-1.408 1.875-3.05 2.376-4.914-1.943 1.22-3.768 2.054-5.486 2.51q-2.56.687-5.47.535c-3.106-.162-5.85-.961-8.247-2.376-2.385-1.414-4.17-3.234-5.332-5.458-1.162-2.236-1.674-4.776-1.524-7.653.248-4.752 2.13-8.566 5.625-11.454 3.507-2.9 8.12-4.188 13.842-3.89 5.896.308 10.424 2.119 13.584 5.442 3.698 3.887 5.385 9.056 5.048 15.508-.227 4.338-1.074 8.01-2.564 11.002-1.48 3.005-3.68 5.6-6.593 7.809-2.924 2.207-6.306 3.768-10.146 4.693-3.829.915-9.046 1.211-15.62.89m15.184-21.642c1.558.081 2.95-.196 4.173-.81 1.223-.624 2.201-1.557 2.934-2.83.722-1.263 1.137-2.727 1.223-4.383.127-2.431-.5-4.442-1.88-6.055-1.38-1.602-3.171-2.471-5.384-2.587-2.256-.117-4.17.558-5.722 2.007-1.562 1.46-2.408 3.426-2.538 5.922q-.197 3.76 1.842 6.161c1.348 1.6 3.14 2.46 5.352 2.575" style="fill:url(#D)"></path><path d="m132.138 269.487 24.804 1.497-.426 7.048-1.643-.1c-1.582-.095-2.558-.079-2.93.074-.6.239-1.047.587-1.325 1.057-.291.47-.47 1.371-.552 2.716l-.816 13.523L166 281.566c.75-.616 1.2-1.039 1.364-1.254.151-.229.238-.423.248-.585.02-.349-.101-.606-.365-.797-.276-.192-.98-.31-2.126-.379l-2.042-.123.425-7.047 23.023 1.39-.425 7.047-.772-.046c-1.071-.065-1.809-.06-2.226.028-.43.074-.943.293-1.562.618s-1.428.876-2.424 1.64l-12.933 9.917 13.46 20.696c1.167 1.77 2.028 2.835 2.593 3.194.759.483 1.853.774 3.322.863l.984.06-.425 7.034-25.688-1.55.425-7.036 1.02.062c1.881.113 3.02.094 3.429-.056s.62-.35.637-.624c.017-.286-.314-1.006-.995-2.147l-8.172-13.266-8.131 6.133-.31 5.143c-.077 1.27-.006 2.149.202 2.649.22.5.535.87.982 1.109.437.226 1.327.393 2.696.475l2.08.126-.425 7.035-24.804-1.498.425-7.035 1.855.112c1.432.087 2.398.02 2.91-.174a2.1 2.1 0 0 0 1.114-1.058q.335-.599.479-2.97l1.678-27.792c.091-1.507.04-2.523-.141-3.046a2.34 2.34 0 0 0-.989-1.222c-.47-.278-1.347-.456-2.604-.532l-2.08-.126zM193.83 273.335l24.818 1.234-.35 7.052-2.255-.112q-1.982-.098-2.633.207c-.436.215-.765.56-1.002 1.049-.236.488-.384 1.442-.454 2.85l-1.402 28.183q-.114 2.298.115 2.965c.14.444.423.783.825.99.496.325 1.249.512 2.27.563l2.704.135-.35 7.039-24.819-1.234.35-7.04 2.006.1c1.433.071 2.386.006 2.831-.172.447-.19.787-.497 1.009-.936.235-.45.379-1.33.445-2.676l1.407-28.282c.079-1.582.031-2.634-.156-3.143a2.2 2.2 0 0 0-.977-1.197c-.326-.217-1.157-.345-2.465-.41l-2.268-.113zM260.227 274.87l3.966 17.203-6.843 1.769c-2.16-4.12-4.658-7.15-7.493-9.115-2.823-1.952-5.855-2.973-9.098-3.051-2.095-.05-3.764.334-4.982 1.165-1.23.82-1.851 1.753-1.876 2.8q-.044 1.795 1.566 3.37 1.571 1.572 5.845 2.873l9.721 3.091c5.4 1.69 9.216 3.853 11.474 6.49 2.232 2.662 3.294 5.72 3.21 9.187-.106 4.402-1.941 8.088-5.519 11.047-4.01 3.273-8.925 4.827-14.737 4.687-2.706-.065-5.18-.474-7.433-1.214-2.252-.753-4.582-1.97-6.999-3.663l-1.697 3.615-5.45-.13-3.14-19.854 6.873-1.482c1.512 4.055 3.938 7.482 7.265 10.245 3.34 2.775 7.037 4.212 11.102 4.31 1.82.044 3.348-.144 4.569-.59 1.208-.432 2.134-1.046 2.765-1.867.63-.808.951-1.661.972-2.535.035-1.458-.633-2.735-2.03-3.817q-2.113-1.623-7.445-3.286l-8.458-2.686q-1.914-.589-5.188-2.184c-2.183-1.076-3.854-2.164-5-3.29-1.158-1.126-2.11-2.559-2.841-4.286a12.9 12.9 0 0 1-1.042-5.453c.065-2.706.873-5.182 2.424-7.416 1.552-2.246 3.853-4.037 6.893-5.374 3.04-1.35 6.386-1.968 10.04-1.88 4.415.106 8.365 1.35 11.865 3.717l1.495-2.522zM270.072 275.42l26.93.332c3.418.042 6.246.427 8.495 1.153 2.236.714 4.17 1.798 5.761 3.227a14.7 14.7 0 0 1 3.693 5.073 14.8 14.8 0 0 1 1.234 6.166c-.054 4.365-1.77 8-5.162 10.902-3.38 2.915-8.026 4.33-13.913 4.258l-8.706-.108-.118 9.543c-.015 1.185.063 1.946.234 2.26.207.465.539.818.985 1.036q.67.345 2.279.365l2.594.032-.086 7.047-24.848-.306.087-7.048 1.721.022q2.265.027 2.998-.3c.49-.206.855-.551 1.073-1.023.23-.47.355-1.455.373-2.94l.345-28.027c.02-1.56-.067-2.596-.26-3.097-.194-.502-.49-.867-.923-1.11-.421-.23-1.23-.352-2.416-.366l-2.457-.03zm18.608 8.563-.178 14.47 4.353.053c2.657.033 4.606-.217 5.86-.75a6.9 6.9 0 0 0 3.025-2.484c.762-1.126 1.166-2.468 1.185-4.027.029-2.333-.86-4.202-2.639-5.584-1.334-1.04-3.311-1.575-5.943-1.608zM317.792 276.2l42.53-.817 6.122 16.002-6.577 2.497c-1.173-2.597-2.523-4.692-4.051-6.273s-3.207-2.62-5.025-3.11c-1.831-.489-3.944-.71-6.352-.664l-7.782.15.244 12.721 2.557-.049c1.92-.037 3.215-.199 3.883-.499.656-.287 1.134-.732 1.41-1.337.287-.604.402-1.792.367-3.575l-.037-1.933 6.51-.125.415 21.552-6.511.125-.042-2.183c-.029-1.497-.224-2.566-.586-3.245-.363-.68-.858-1.132-1.473-1.357-.616-.238-1.966-.336-4.061-.296l-2.295.044.225 11.699c.023 1.234.088 1.994.218 2.254.13.272.37.467.722.61q.547.214 2.287.18l4.278-.082c3.193-.06 5.878-.574 8.056-1.527 2.165-.952 4.095-2.474 5.777-4.54s2.957-4.51 3.827-7.322l6.729 2.166-6.322 19.061-44.064.846-.135-7.046 1.272-.025c1.708-.033 2.854-.18 3.422-.44.582-.248.998-.68 1.223-1.296q.176-.565.128-3.11l-.534-27.775c-.029-1.509-.16-2.492-.368-2.95q-.332-.685-.993-1.029c-.44-.216-1.304-.312-2.6-.287l-2.258.044zM409.12 272.99l5.02 16.925-6.721 2.189c-2.41-3.98-5.09-6.85-8.04-8.636-2.939-1.774-6.029-2.607-9.27-2.485-2.094.08-3.736.566-4.9 1.47-1.177.894-1.74 1.864-1.7 2.911q.067 1.795 1.77 3.267 1.666 1.472 6.012 2.507l9.893 2.486c5.493 1.354 9.436 3.277 11.852 5.77 2.392 2.52 3.64 5.506 3.77 8.971.166 4.4-1.439 8.194-4.827 11.367-3.8 3.514-8.611 5.368-14.42 5.587-2.705.102-5.199-.154-7.494-.754-2.295-.613-4.694-1.684-7.211-3.224l-1.47 3.713-5.448.205-4.36-19.622 6.77-1.903c1.759 3.954 4.391 7.225 7.883 9.777 3.504 2.565 7.282 3.77 11.346 3.618 1.82-.069 3.333-.35 4.524-.87 1.18-.506 2.065-1.176 2.645-2.034.58-.846.846-1.717.813-2.59-.055-1.458-.8-2.691-2.26-3.685q-2.21-1.49-7.634-2.82l-8.608-2.16q-1.947-.471-5.313-1.86c-2.245-.94-3.98-1.923-5.193-2.975-1.225-1.053-2.263-2.424-3.1-4.103a12.9 12.9 0 0 1-1.376-5.378c-.102-2.706.552-5.227 1.962-7.552 1.41-2.337 3.597-4.267 6.548-5.79 2.951-1.533 6.253-2.357 9.905-2.494 4.413-.167 8.433.83 12.072 2.978l1.337-2.61zM422.288 271.021l4.805-.313.622 1.685 28.705-1.868.511-1.759 4.855-.316 7.46 17.429-6.63 2.806c-1.7-2.864-2.908-4.723-3.614-5.577-1.41-1.696-2.983-2.994-4.73-3.905-1.308-.703-2.59-1.007-3.823-.927-.585.038-.987.202-1.18.502-.206.289-.264.93-.2 1.926l1.905 29.253c.112 1.73.233 2.81.385 3.238.153.427.388.762.69.992.303.243.725.378 1.24.432.517.054 1.877.015 4.093-.129l.457 7.034-24.796 1.614-.458-7.034 1.494-.097c1.655-.108 2.694-.288 3.154-.518.446-.241.772-.625.987-1.164.202-.538.255-1.642.148-3.285l-1.946-29.913q-.083-1.27-.404-1.586c-.2-.2-.618-.285-1.253-.244-1.27.083-2.646.647-4.14 1.695-1.495 1.047-2.79 2.481-3.897 4.279-.441.716-1.35 2.688-2.727 5.928l-6.826-1.931z" style="fill:#fff;fill-rule:evenodd"></path><path d="m130.27 271.122 24.803 1.497-.425 7.048-1.644-.1c-1.581-.095-2.557-.079-2.929.074-.601.238-1.047.586-1.325 1.057-.291.47-.47 1.371-.552 2.716l-.817 13.523 16.751-13.736c.75-.617 1.2-1.04 1.363-1.255.152-.228.238-.422.248-.585.021-.348-.1-.605-.364-.796-.276-.192-.981-.31-2.127-.379l-2.042-.123.426-7.048 23.023 1.39-.426 7.048-.771-.046c-1.071-.065-1.81-.06-2.227.028-.43.074-.942.293-1.562.618s-1.427.876-2.423 1.64l-12.934 9.917 13.46 20.696c1.168 1.77 2.028 2.835 2.594 3.194.758.483 1.853.774 3.322.862l.984.06-.425 7.035-25.688-1.551.424-7.035 1.022.061c1.88.114 3.018.095 3.427-.055s.621-.35.638-.624c.017-.286-.314-1.006-.995-2.147l-8.172-13.266-8.131 6.133-.311 5.143c-.077 1.27-.005 2.149.203 2.649.219.5.534.87.982 1.109.436.226 1.326.392 2.696.475l2.08.126-.425 7.035-24.805-1.498.425-7.035 1.856.112c1.431.086 2.398.02 2.91-.174q.75-.312 1.113-1.058.336-.599.48-2.97l1.677-27.793c.092-1.506.04-2.522-.14-3.045a2.34 2.34 0 0 0-.989-1.222c-.47-.278-1.347-.456-2.605-.532l-2.08-.126zM191.962 274.97l24.818 1.234-.35 7.052-2.256-.112q-1.98-.099-2.633.206c-.435.216-.765.562-1.001 1.05-.237.487-.384 1.442-.454 2.85l-1.402 28.182q-.114 2.299.115 2.966c.14.444.423.783.825.99.496.325 1.249.512 2.27.563l2.704.134-.35 7.04-24.82-1.235.351-7.039 2.006.1c1.433.071 2.385.006 2.831-.172.447-.19.787-.498 1.009-.936.234-.45.378-1.33.445-2.676l1.407-28.282c.078-1.583.03-2.634-.156-3.143a2.2 2.2 0 0 0-.978-1.198c-.326-.216-1.156-.345-2.464-.41l-2.268-.112zM258.358 276.504l3.966 17.203-6.843 1.77c-2.16-4.12-4.657-7.15-7.492-9.115-2.823-1.952-5.856-2.973-9.098-3.051-2.095-.05-3.764.333-4.982 1.165-1.23.82-1.851 1.752-1.877 2.8q-.042 1.795 1.566 3.37 1.572 1.572 5.846 2.873l9.72 3.09c5.4 1.69 9.217 3.854 11.474 6.491 2.232 2.662 3.294 5.72 3.21 9.186-.105 4.403-1.94 8.09-5.518 11.048-4.01 3.273-8.926 4.826-14.737 4.687-2.706-.065-5.18-.474-7.433-1.215-2.253-.753-4.582-1.97-7-3.662l-1.696 3.615-5.45-.13-3.141-19.854 6.874-1.482c1.512 4.054 3.938 7.482 7.265 10.245 3.34 2.775 7.036 4.212 11.102 4.31 1.82.043 3.347-.144 4.569-.59 1.208-.432 2.133-1.046 2.765-1.867.63-.808.95-1.662.972-2.535.035-1.459-.633-2.735-2.03-3.817q-2.113-1.623-7.445-3.286l-8.458-2.686q-1.914-.589-5.189-2.184c-2.182-1.076-3.853-2.164-4.999-3.29-1.158-1.126-2.11-2.559-2.842-4.286a12.9 12.9 0 0 1-1.042-5.453c.066-2.706.874-5.182 2.425-7.416 1.551-2.246 3.853-4.037 6.892-5.374 3.04-1.35 6.387-1.968 10.04-1.88 4.415.106 8.366 1.35 11.865 3.717l1.496-2.522zM268.204 277.056l26.93.331c3.418.042 6.245.426 8.494 1.153 2.237.714 4.17 1.798 5.762 3.227a14.7 14.7 0 0 1 3.692 5.073 14.8 14.8 0 0 1 1.234 6.166c-.054 4.365-1.77 8-5.162 10.902-3.379 2.915-8.025 4.33-13.912 4.257l-8.707-.107-.118 9.542c-.014 1.185.064 1.947.235 2.261.206.465.538.818.985 1.036q.67.345 2.279.365l2.594.032-.087 7.047-24.847-.306.087-7.048 1.721.021q2.264.03 2.998-.3c.489-.205.855-.55 1.073-1.022.23-.47.354-1.455.373-2.94l.345-28.027c.02-1.56-.068-2.596-.261-3.098-.194-.501-.489-.866-.922-1.109-.422-.23-1.23-.352-2.416-.366l-2.457-.03zm18.607 8.562-.178 14.47 4.354.053c2.656.033 4.606-.217 5.86-.75a6.9 6.9 0 0 0 3.025-2.484c.762-1.126 1.165-2.468 1.185-4.027.028-2.333-.86-4.203-2.639-5.584-1.334-1.04-3.311-1.576-5.943-1.608zM315.924 277.834l42.53-.816 6.121 16.002-6.577 2.497c-1.173-2.597-2.523-4.693-4.05-6.273-1.528-1.58-3.207-2.62-5.026-3.11-1.83-.489-3.944-.71-6.351-.664l-7.783.15.245 12.721 2.556-.05c1.921-.036 3.216-.198 3.884-.498.655-.287 1.133-.733 1.41-1.337.287-.604.401-1.792.367-3.575l-.037-1.934 6.51-.124.414 21.551-6.51.125-.042-2.182c-.03-1.497-.224-2.566-.587-3.246-.362-.678-.857-1.13-1.473-1.356-.616-.238-1.965-.337-4.06-.296l-2.295.044.224 11.698c.024 1.235.088 1.995.218 2.255.13.272.371.467.723.61q.547.214 2.287.18l4.278-.082c3.193-.061 5.878-.574 8.055-1.527 2.165-.952 4.095-2.474 5.777-4.54s2.958-4.511 3.827-7.323l6.73 2.167-6.322 19.061-44.064.846-.136-7.046 1.272-.025c1.71-.033 2.854-.18 3.423-.44.582-.248.998-.68 1.223-1.296q.176-.565.127-3.11l-.533-27.775c-.029-1.51-.16-2.492-.369-2.95q-.33-.685-.993-1.029c-.44-.216-1.303-.312-2.6-.287l-2.258.043zM407.252 274.625l5.019 16.925-6.72 2.188c-2.41-3.979-5.09-6.849-8.041-8.635-2.938-1.774-6.028-2.607-9.269-2.485-2.094.08-3.736.565-4.9 1.47-1.178.894-1.74 1.864-1.701 2.91q.067 1.796 1.771 3.267 1.665 1.473 6.011 2.508l9.893 2.486c5.494 1.354 9.436 3.277 11.852 5.77 2.392 2.52 3.64 5.506 3.771 8.971.166 4.4-1.439 8.193-4.827 11.367-3.8 3.514-8.611 5.368-14.42 5.586-2.705.102-5.2-.153-7.494-.753-2.295-.613-4.695-1.684-7.212-3.224l-1.47 3.713-5.448.205-4.359-19.622 6.77-1.903c1.758 3.954 4.39 7.225 7.882 9.777 3.505 2.565 7.283 3.77 11.347 3.618 1.82-.069 3.332-.35 4.523-.87 1.18-.506 2.066-1.176 2.645-2.034.58-.846.847-1.718.814-2.59-.055-1.459-.8-2.691-2.26-3.685q-2.211-1.49-7.635-2.82l-8.607-2.16q-1.947-.471-5.313-1.86c-2.245-.94-3.98-1.923-5.193-2.975-1.226-1.053-2.264-2.424-3.1-4.103a12.9 12.9 0 0 1-1.377-5.379c-.102-2.705.553-5.226 1.963-7.551 1.41-2.337 3.597-4.268 6.548-5.79 2.95-1.533 6.253-2.357 9.905-2.495 4.413-.166 8.433.831 12.071 2.979l1.338-2.61zM420.42 272.656l4.804-.313.622 1.685 28.706-1.868.51-1.759 4.856-.316 7.46 17.428-6.631 2.807c-1.7-2.864-2.908-4.723-3.614-5.577-1.41-1.696-2.982-2.994-4.729-3.905-1.308-.703-2.59-1.007-3.823-.927-.585.038-.987.202-1.18.502-.206.288-.264.93-.2 1.926l1.904 29.253c.113 1.73.233 2.81.386 3.237s.387.763.69.993c.303.243.724.378 1.24.432s1.877.015 4.092-.129l.458 7.033-24.797 1.614-.457-7.033 1.493-.097c1.656-.108 2.694-.288 3.154-.518.447-.242.772-.625.987-1.164.203-.538.256-1.642.149-3.285l-1.947-29.913q-.083-1.27-.403-1.586c-.2-.2-.619-.285-1.254-.244-1.27.083-2.645.647-4.14 1.695-1.494 1.047-2.789 2.481-3.897 4.278-.44.717-1.35 2.689-2.726 5.928l-6.827-1.93z" style="fill:#09120b;fill-rule:evenodd"></path><path d="m132.821 518.207 24.85 1.355-.384 7.05-2.305-.126c-1.258-.068-2.124.01-2.611.233-.475.236-.819.58-1.044 1.042-.212.464-.368 1.492-.455 3.074l-.483 8.868 18.534 1.011.52-9.529c.064-1.17.032-1.96-.083-2.378-.167-.596-.468-1.025-.93-1.263-.45-.249-1.465-.404-3.047-.49l-1.93-.106.384-7.05 24.924 1.36-.384 7.05-2.08-.114q-2.112-.115-2.821.183c-.486.211-.816.53-1.028.969-.211.45-.356 1.504-.448 3.186l-1.505 27.59c-.092 1.694-.04 2.809.17 3.32.196.51.539.879 1 1.116.463.225 1.54.397 3.247.49l1.457.08-.384 7.037-24.924-1.36.384-7.037 1.644.09c1.532.084 2.573.015 3.134-.204.561-.207.967-.547 1.192-.997.236-.45.395-1.528.488-3.222l.587-10.774-18.535-1.01-.587 10.774c-.092 1.694-.075 2.757.04 3.175.215.624.567 1.043 1.067 1.27q.75.341 3.085.468l1.719.094-.384 7.038-24.85-1.355.384-7.038 1.682.092q2.11.115 2.972-.213c.574-.206.979-.534 1.202-.959.236-.424.387-1.378.468-2.86l1.509-27.665c.094-1.731.055-2.858-.128-3.393-.17-.534-.473-.937-.896-1.198-.435-.273-1.276-.432-2.534-.5l-2.267-.124zM216.987 521.851c8.08.212 14.563 2.84 19.447 7.897 4.872 5.044 7.213 11.432 7.01 19.151q-.203 7.782-3.803 13.715c-2.387 3.968-5.636 6.977-9.72 9.054-4.086 2.077-8.977 3.035-14.676 2.886-7.533-.198-13.638-2.43-18.331-6.695-5.668-5.14-8.387-11.887-8.168-20.242.204-7.77 2.914-14.062 8.12-18.88 5.204-4.805 11.915-7.1 20.12-6.886m-.063 8.11c-3.878-.102-6.997 1.264-9.354 4.11-2.977 3.578-4.534 8.254-4.685 14.028-.151 5.761 1.063 10.373 3.657 13.798 2.244 2.941 5.261 4.455 9.052 4.554 3.829.1 6.921-1.253 9.291-4.074 2.796-3.358 4.263-7.912 4.413-13.66.107-4.054-.378-7.461-1.466-10.247-1.087-2.774-2.592-4.872-4.54-6.296-1.934-1.41-4.061-2.153-6.368-2.213M245.668 523.75l20.72.108 14.788 29.83.095-18.2c.008-1.56-.074-2.534-.246-2.934-.234-.575-.569-.988-.98-1.227-.41-.227-1.208-.343-2.405-.35l-2.483-.013.037-7.06 21.045.11-.037 7.06-2.333-.012c-1.173-.006-2.01.115-2.51.386-.5.26-.851.632-1.04 1.093q-.304.69-.316 2.992l-.206 39.431-10.49-.054-18.728-37.672-.138 26.283c-.008 1.51.075 2.47.26 2.883.172.413.507.752.98.99q.71.38 2.468.388l2.445.013-.037 7.048-21.156-.111.037-7.048 2.183.011c1.222.006 2.059-.101 2.509-.298.45-.21.814-.57 1.078-1.08.277-.51.419-1.27.424-2.293l.153-29.24q.008-1.684-.361-2.472c-.235-.525-.57-.901-.98-1.14-.41-.227-1.108-.343-2.081-.348l-2.732-.014zM301.106 523.937l24.222-.423.123 7.059-.76.013c-1.535.027-2.52.094-2.941.226-.422.132-.78.388-1.072.793-.28.391-.423.793-.416 1.205.01.511.315 1.554.903 3.128l9.461 25.237 9.162-26.211c.439-1.305.648-2.195.64-2.68q-.018-1.03-.7-1.486c-.455-.316-1.418-.45-2.915-.423l-1.571.027-.123-7.06 19.731-.344.124 7.06c-1.622.028-2.716.222-3.271.593-.851.577-1.675 1.963-2.486 4.148l-14.593 39.544-11.475.2-16.218-39.267q-.996-2.36-1.512-3.006c-.345-.43-.837-.771-1.465-.997-.628-.239-1.528-.323-2.725-.277zM359.246 523.47l42.508-1.593 6.413 15.889-6.531 2.616c-1.22-2.575-2.608-4.646-4.165-6.198-1.555-1.552-3.254-2.562-5.081-3.018-1.84-.455-3.956-.638-6.362-.548l-7.778.292.476 12.715 2.555-.096c1.92-.072 3.211-.257 3.874-.57.65-.299 1.12-.753 1.384-1.362.277-.61.37-1.799.303-3.582l-.073-1.932 6.508-.244.807 21.541-6.507.244-.082-2.181c-.056-1.496-.27-2.562-.645-3.234s-.879-1.116-1.498-1.33c-.62-.227-1.972-.3-4.066-.222l-2.293.086.438 11.693c.046 1.234.124 1.992.259 2.25.135.269.379.46.734.596q.55.204 2.29.139l4.275-.16c3.191-.12 5.867-.682 8.026-1.674 2.148-.992 4.05-2.548 5.694-4.645s2.875-4.564 3.692-7.391l6.768 2.043-5.973 19.174-44.041 1.65-.264-7.043 1.271-.048c1.708-.064 2.85-.232 3.414-.502a2.16 2.16 0 0 0 1.2-1.319q.165-.567.07-3.11l-1.04-27.762c-.057-1.508-.206-2.489-.423-2.943a2.2 2.2 0 0 0-1.011-1.01c-.445-.208-1.31-.288-2.606-.24l-2.256.085zm15.713-4.071-1.596-3.623 7.59-7.313q3.273-3.118 6.134-3.226c1.458-.054 2.712.423 3.786 1.432 1.061 1.009 1.621 2.286 1.68 3.844.043 1.147-.365 2.273-1.197 3.378s-2.35 1.936-4.55 2.505zM411.564 521.218l26.65-1.755c6.063-.399 10.93.243 14.63 1.937 3.711 1.681 6.748 4.332 9.113 7.964 2.377 3.631 3.745 8.08 4.092 13.357.242 3.672-.09 6.994-.982 9.953a23.7 23.7 0 0 1-4.315 8.135c-1.988 2.47-4.164 4.362-6.539 5.694-1.797.993-4.364 1.888-7.725 2.671-3.349.783-6.057 1.237-8.098 1.371l-23.476 1.546-.463-7.033 1.742-.115c1.482-.097 2.457-.287 2.9-.566q.668-.4 1.04-1.306c.169-.474.201-1.501.099-3.057l-1.83-27.783c-.102-1.556-.267-2.545-.509-2.992a2.14 2.14 0 0 0-1.087-.953c-.488-.193-1.504-.239-3.035-.138l-1.743.114zm19.135 6.94 2.081 31.617c.07 1.071.176 1.727.305 1.968q.334.522.908.69c.394.1 1.295.115 2.739.02 3.983-.262 7.054-1.09 9.227-2.457 2.172-1.381 3.86-3.467 5.062-6.272 1.204-2.804 1.688-6.074 1.442-9.82-.244-3.698-1.102-6.867-2.59-9.52-1.473-2.64-3.219-4.463-5.21-5.457-1.99-.994-4.778-1.373-8.35-1.138zM248.11 592.823h44.053l6.038 17.075-6.912 2.409q-1.681-3.712-3.208-5.617a13.8 13.8 0 0 0-3.626-3.17 13.1 13.1 0 0 0-4.551-1.675c-1.095-.183-3.039-.275-5.803-.275h-6.573v14.194h3.352c1.277 0 2.282-.196 2.999-.576.73-.38 1.252-.878 1.578-1.493.313-.615.47-1.637.47-3.077v-2.828h6.885v23.936h-6.886v-3.457c0-.995-.09-1.729-.26-2.187-.235-.615-.548-1.113-.966-1.493a3.45 3.45 0 0 0-1.382-.811c-.535-.144-1.473-.223-2.856-.223h-2.934v11.235c0 1.362.104 2.278.34 2.75.234.47.599.824 1.107 1.047.51.236 1.487.354 2.948.354h2.178v7.398h-25.992v-7.398h1.722c1.917 0 3.169-.25 3.769-.76.6-.497.9-1.493.9-3.012v-30.758c0-1.414-.118-2.343-.352-2.802-.222-.458-.613-.811-1.148-1.034-.535-.236-1.59-.34-3.169-.34h-1.722zM341.845 592.86h5.392l5.197 19.146-7.063 2.06c-2.346-4.564-4.563-7.799-6.636-9.703-2.89-2.621-6.014-3.938-9.384-3.938-2.45 0-4.757.69-6.895 2.06-2.139 1.383-3.837 3.404-5.081 6.078-1.257 2.673-1.88 5.803-1.88 9.403 0 5.477 1.44 10.185 4.304 14.136 2.877 3.952 6.635 5.921 11.302 5.921 2.955 0 5.806-.847 8.54-2.556 3.423-2.112 6.365-4.955 8.853-8.529l5.884 4.395c-3.823 5.256-7.323 8.907-10.485 10.968q-7.33 4.773-16.33 4.773c-4.978 0-9.501-1.2-13.532-3.612-4.044-2.4-7.258-5.765-9.67-10.094-2.397-4.33-3.602-9.064-3.602-14.177 0-5.099 1.166-9.742 3.512-13.928 2.346-4.2 5.535-7.46 9.565-9.807 4.044-2.335 8.542-3.508 13.506-3.508 5.029 0 9.448 1.07 13.246 3.208z" style="fill:#fff;fill-rule:evenodd"></path><path d="m131.07 519.842 24.85 1.355-.385 7.05-2.304-.126c-1.258-.068-2.125.01-2.612.233-.475.236-.818.58-1.043 1.042-.213.463-.369 1.492-.455 3.074l-.484 8.868 18.535 1.01.52-9.528c.063-1.17.031-1.96-.083-2.378-.168-.597-.47-1.025-.931-1.263-.449-.249-1.465-.405-3.047-.49l-1.93-.106.384-7.05 24.925 1.36-.385 7.049-2.08-.113q-2.111-.115-2.82.183c-.487.211-.817.53-1.028.969-.212.45-.357 1.504-.449 3.186l-1.504 27.59c-.092 1.694-.04 2.809.169 3.32.197.51.539.879 1 1.116.463.225 1.54.397 3.247.49l1.458.08-.384 7.037-24.925-1.36.384-7.037 1.644.09c1.533.083 2.573.015 3.135-.204.56-.207.967-.547 1.191-.997.237-.45.396-1.528.488-3.222l.588-10.774-18.535-1.01-.588 10.774c-.092 1.694-.075 2.757.04 3.175.215.624.567 1.043 1.067 1.27q.75.34 3.085.468l1.72.094-.384 7.038-24.85-1.355.383-7.038 1.682.092q2.111.115 2.973-.213c.573-.206.978-.534 1.201-.959.236-.425.388-1.378.469-2.86l1.508-27.665c.094-1.732.056-2.858-.127-3.393-.171-.534-.474-.938-.897-1.198-.435-.274-1.276-.432-2.534-.5l-2.267-.124zM215.235 523.486c8.08.212 14.563 2.84 19.447 7.897 4.872 5.044 7.213 11.432 7.011 19.151q-.203 7.783-3.803 13.714c-2.388 3.969-5.636 6.978-9.721 9.055s-8.977 3.034-14.676 2.885c-7.532-.197-13.638-2.428-18.33-6.694-5.669-5.14-8.387-11.887-8.168-20.242.203-7.77 2.913-14.063 8.118-18.88 5.205-4.805 11.916-7.1 20.122-6.886m-.063 8.11c-3.878-.102-6.996 1.264-9.354 4.11-2.977 3.578-4.534 8.254-4.685 14.028-.15 5.761 1.064 10.373 3.657 13.797 2.244 2.942 5.262 4.456 9.052 4.555 3.829.1 6.922-1.254 9.292-4.074 2.795-3.358 4.262-7.912 4.413-13.661.106-4.053-.379-7.46-1.466-10.246-1.088-2.774-2.593-4.872-4.54-6.296-1.935-1.411-4.062-2.153-6.369-2.213M243.916 525.384l20.72.109 14.788 29.83.096-18.2c.008-1.56-.074-2.534-.247-2.934-.234-.575-.569-.988-.979-1.227-.41-.227-1.208-.343-2.406-.35l-2.482-.013.037-7.06 21.044.11-.037 7.06-2.333-.012c-1.172-.006-2.009.115-2.51.386-.5.26-.85.632-1.04 1.092q-.303.691-.315 2.993l-.206 39.431-10.492-.055-18.726-37.671-.138 26.283c-.008 1.51.074 2.47.26 2.883.172.412.507.751.98.99q.708.38 2.468.388l2.445.012-.037 7.049-21.157-.111.037-7.048 2.183.011c1.223.006 2.06-.101 2.51-.299.45-.21.813-.57 1.077-1.08.278-.509.419-1.27.424-2.292l.153-29.24q.009-1.684-.36-2.472c-.235-.525-.57-.901-.98-1.14-.411-.227-1.109-.343-2.082-.348l-2.732-.014zM299.354 525.571l24.222-.423.123 7.06-.76.013c-1.535.027-2.519.094-2.94.226-.423.132-.78.388-1.072.793-.28.391-.423.793-.416 1.204.009.512.314 1.554.903 3.129l9.46 25.237 9.163-26.211c.438-1.305.648-2.195.64-2.681q-.02-1.029-.7-1.485c-.455-.317-1.418-.45-2.915-.424l-1.572.028-.123-7.06 19.732-.344.123 7.06c-1.621.028-2.716.222-3.27.593-.852.577-1.676 1.963-2.486 4.148l-14.594 39.543-11.474.2-16.219-39.267q-.995-2.359-1.512-3.005c-.344-.43-.837-.771-1.465-.997-.628-.24-1.528-.323-2.724-.277zM357.494 525.105l42.508-1.593 6.413 15.889-6.53 2.616c-1.22-2.576-2.609-4.646-4.165-6.198s-3.254-2.562-5.082-3.018c-1.839-.455-3.956-.638-6.362-.548l-7.778.291.476 12.716 2.556-.096c1.92-.072 3.21-.258 3.873-.57.65-.299 1.12-.753 1.385-1.362.276-.61.369-1.8.302-3.582l-.072-1.932 6.507-.244.807 21.54-6.507.245-.082-2.182c-.056-1.495-.27-2.561-.645-3.234-.375-.672-.878-1.115-1.498-1.329-.62-.227-1.971-.3-4.065-.222l-2.294.086.438 11.692c.046 1.235.125 1.993.259 2.25.135.27.38.46.734.597q.55.204 2.29.139l4.275-.16c3.192-.12 5.867-.682 8.027-1.674 2.147-.992 4.049-2.549 5.693-4.645s2.875-4.564 3.693-7.391l6.767 2.043-5.972 19.174-44.042 1.65-.264-7.044 1.272-.047c1.707-.064 2.85-.232 3.414-.503a2.16 2.16 0 0 0 1.199-1.318q.165-.567.07-3.11l-1.04-27.762c-.056-1.508-.205-2.489-.422-2.943a2.2 2.2 0 0 0-1.012-1.01c-.444-.208-1.309-.289-2.605-.24l-2.256.085zm15.714-4.072-1.596-3.622 7.59-7.313q3.273-3.118 6.134-3.226c1.458-.054 2.712.423 3.785 1.431 1.062 1.01 1.622 2.287 1.68 3.845.043 1.147-.364 2.273-1.197 3.378-.832 1.104-2.349 1.935-4.55 2.505zM409.813 522.852l26.65-1.754c6.062-.4 10.93.243 14.63 1.937 3.71 1.68 6.748 4.331 9.112 7.964 2.377 3.631 3.745 8.08 4.093 13.357.241 3.672-.09 6.994-.983 9.953a23.7 23.7 0 0 1-4.315 8.135c-1.988 2.469-4.163 4.362-6.539 5.694-1.797.993-4.363 1.887-7.725 2.671-3.348.783-6.056 1.236-8.098 1.371l-23.476 1.545-.463-7.032 1.743-.115c1.48-.097 2.456-.287 2.9-.566q.668-.4 1.04-1.306c.168-.474.2-1.501.098-3.057l-1.829-27.783c-.102-1.556-.267-2.545-.51-2.992a2.14 2.14 0 0 0-1.087-.953c-.488-.193-1.503-.239-3.035-.138l-1.742.114zm19.134 6.942 2.082 31.616c.07 1.071.176 1.727.304 1.968q.335.522.908.69c.394.1 1.295.115 2.74.02 3.982-.262 7.053-1.09 9.226-2.458 2.172-1.38 3.86-3.466 5.063-6.271s1.688-6.075 1.441-9.821c-.243-3.697-1.102-6.866-2.59-9.518-1.473-2.641-3.218-4.464-5.21-5.458-1.99-.994-4.778-1.373-8.35-1.138zM246.358 594.458h44.053l6.038 17.075-6.912 2.409q-1.681-3.712-3.208-5.617a13.8 13.8 0 0 0-3.625-3.17 13.1 13.1 0 0 0-4.552-1.675c-1.095-.184-3.038-.275-5.803-.275h-6.573v14.194h3.352c1.278 0 2.282-.196 3-.576.73-.38 1.251-.878 1.577-1.493.313-.615.47-1.637.47-3.077v-2.828h6.885v23.936h-6.885v-3.457c0-.996-.092-1.729-.261-2.187-.235-.616-.548-1.113-.965-1.493a3.46 3.46 0 0 0-1.383-.812c-.534-.144-1.473-.222-2.855-.222h-2.935v11.234c0 1.362.105 2.279.34 2.75.234.472.6.825 1.108 1.048.508.235 1.487.353 2.947.353h2.178v7.399h-25.991v-7.399h1.721c1.918 0 3.17-.248 3.77-.76.6-.497.9-1.492.9-3.01v-30.759c0-1.414-.118-2.344-.353-2.802-.222-.458-.613-.812-1.148-1.034-.534-.236-1.59-.34-3.169-.34h-1.721zM340.094 594.496h5.391l5.198 19.144-7.064 2.061c-2.346-4.564-4.562-7.799-6.636-9.703-2.89-2.621-6.014-3.938-9.384-3.938-2.45 0-4.757.69-6.895 2.06-2.139 1.383-3.836 3.404-5.08 6.077-1.258 2.674-1.88 5.804-1.88 9.403 0 5.478 1.439 10.186 4.303 14.137 2.877 3.952 6.636 5.921 11.302 5.921 2.955 0 5.806-.848 8.541-2.556 3.422-2.113 6.364-4.956 8.853-8.53l5.884 4.396c-3.824 5.256-7.323 8.907-10.486 10.968q-7.33 4.773-16.33 4.773c-4.977 0-9.5-1.2-13.532-3.613-4.044-2.4-7.258-5.764-9.669-10.094-2.397-4.33-3.603-9.063-3.603-14.176 0-5.099 1.167-9.742 3.513-13.928 2.346-4.2 5.534-7.46 9.565-9.807 4.044-2.335 8.541-3.508 13.505-3.508 5.029 0 9.449 1.07 13.246 3.208z" style="fill:#09120b;fill-rule:evenodd" data-source="https://football-logos.cc"></path><!-- source: https://football-logos.cc --></svg>