<svg xmlns="http://www.w3.org/2000/svg" viewBox="38.74 162.04 517.8 517.8"><!-- Source: https://football-logos.cc --><path d="m434.94 360.794 65.31-25.218 5.03 13.92-64.747 25.594zM431.667 308.994l9.588-8.506 20.271 23.68-21.52 18.996c-9.665-2.076-23.988-10.923-29.925-18.944-13.228-17.872-7.419-37.404 9.166-50.257 16.918-13.11 34.664-8.132 44.567 1.575 10.536 10.326 18.07 26.79 6.468 40.094l-11.388-9.068c5.325-7.664 3.312-13.872-1.922-19.372-8.854-9.302-19.651-9.19-29.106-.265-9.35 8.826-16.124 17.078-7.978 29.377 3.161 4.773 10.79 9.147 16.378 10.212l6.002-5.095zM261.549 234.799l9.919-.737c7.336-.545 18.284-1.137 17.018-11.274-1.256-10.045-11.683-7.33-18.662-6.465l-10.297 1.276zm-9.906 41.479L243.7 207.05l29.186-3.04c13.955-1.454 27.597-1.263 29.764 16.063 1.447 11.57-5.11 18.666-15.863 21.637 3.246 1.386 5.977 3.02 8.203 4.89 2.235 1.878 5.334 5.336 9.373 10.299l10.174 12.498-17.154 2.005-11.587-13.825c-4.197-5.008-7.182-8.025-8.701-9.265-1.5-1.225-3.03-2.023-4.583-2.352-1.569-.331-4.059-.76-7.294-.357l-2.848.356 4.005 28.84z" style="fill:#090306;fill-rule:evenodd" data-source="https://football-logos.cc"></path><path d="M178.446 281.486c6.38 9.018 16.846 15.627 27.71 8.478 11.87-7.81 10.178-20.108 3.199-30.493-7.104-10.571-17.913-16.284-29.595-8.308-11.833 8.08-8.679 19.913-1.314 30.323m-12.211 8.43c-12.7-17.472-12.606-35.776 6.998-49.856 15.203-10.92 36.487-7.117 48.412 10.626 11.857 17.644 10.524 36.668-7.758 48.955-18.213 12.24-35.186 7.425-47.652-9.725M108.032 336.217l39.975 21.927 5.705-9.926c5.545-9.65 5.583-17.156-10.697-26.174-15.52-8.597-23.575-7.26-30.388 5.54zm-17.674 7.09 13.012-24.163c10.923-20.284 27.07-21.212 46.567-10.395 18.74 10.397 25.126 25.037 14.217 45.055l-12.296 22.56z" style="fill:#231f20;fill-rule:evenodd"></path><path d="m402.589 585.105 13.805-3.75c4.53 14 1.663 26.657-12.756 35.55-16.967 10.464-34.522 2.933-44.82-12.814-10.819-16.542-11.756-35.908 5.533-47.93 12.383-8.61 25.988-7.92 36.457 1.754l-9.82 10.537c-5.176-4.978-12.695-6.058-18.699-2.131-11.059 7.232-8.118 19.754-1.988 29.127 6.083 9.3 16.66 17.357 26.502 10.99 8.137-5.263 8.57-13.808 5.786-21.333" style="fill:#090306;fill-rule:evenodd"></path><path d="m177.191 606.753 35.55-59.96 41.532 24.487-6.66 10.784-28.25-17.349-8.251 13.632 25.047 14.962-6.66 10.41-24.743-14.799-15.036 25.347zM335.46 509.916V498.89l-7.38 11.026zm0 11.906v-6.494h-13.167v-5.39l13.965-20.54h5.2v20.518h4.014v5.412h-4.013v6.494zM314.077 521.822H307.9v-23.375q-3.381 3.181-7.982 4.705v-5.637q2.424-.787 5.254-3.007c1.894-1.473 3.187-3.194 3.893-5.156h5.013zM287.753 500.777q0-2.99-1.376-4.638-1.366-1.646-3.172-1.646-1.713 0-2.84 1.353c-.76.902-1.135 2.375-1.135 4.42 0 2.082.413 3.607 1.232 4.584.82.97 1.842 1.458 3.074 1.458q1.782.002 3-1.405 1.216-1.41 1.217-4.126m-13.935 13.544 5.998-.662c.143 1.226.526 2.135 1.135 2.721.609.594 1.42.887 2.42.887 1.27 0 2.345-.594 3.232-1.774s1.45-3.63 1.699-7.335c-1.556 1.803-3.496 2.705-5.833 2.705-2.533 0-4.728-.977-6.569-2.938q-2.76-2.941-2.758-7.652-.001-4.916 2.916-7.914c1.946-2.007 4.427-3.007 7.433-3.007 3.27 0 5.96 1.27 8.057 3.803 2.097 2.54 3.15 6.712 3.15 12.53 0 5.907-1.09 10.177-3.27 12.792-2.18 2.623-5.02 3.93-8.523 3.93-2.518 0-4.547-.675-6.103-2.028-1.548-1.346-2.548-3.368-2.984-6.058M265.049 521.822h-6.178v-23.375q-3.383 3.181-7.982 4.705v-5.637q2.424-.787 5.253-3.007c1.894-1.473 3.187-3.194 3.894-5.156h5.013z" style="fill:#231f20;fill-rule:evenodd"></path><path d="M179.76 251.163c11.681-7.976 22.49-2.263 29.595 8.308 6.979 10.385 8.67 22.683-3.2 30.493-10.863 7.15-21.329.54-27.71-8.478-7.364-10.41-10.518-22.243 1.315-30.323m34.127 48.478c18.282-12.287 19.615-31.311 7.758-48.955-11.925-17.743-33.209-21.546-48.412-10.626-19.604 14.08-19.698 32.384-6.998 49.856 12.466 17.15 29.439 21.965 47.652 9.725M372.697 226.934c12.871 5.866 13.577 18.072 8.21 29.622-5.273 11.347-14.92 19.16-27.746 13.047-11.74-5.596-11.503-17.971-7.089-28.098 5.095-11.69 13.587-20.514 26.625-14.571m-23.814 54.292c19.975 9.283 36.943.576 45.902-18.701 9.01-19.388 1.246-39.566-15.967-46.923-22.193-9.485-37.904-.092-46.28 19.818-8.22 19.544-3.556 36.558 16.345 45.806" style="fill:#090306;fill-rule:evenodd"></path><path d="m360.426 345.121-1.92 1.907-25.58-25.532-23.414 23.23 25.615 25.52-37.54 37.282-37.157-36.902 26.308-26.18-23.884-23.043-25.82 25.989-2.286-2.27-13.163 13.909 1.959 1.94-26.392 26.563 23.322 22.856 26.424-26.298 37.201 36.831-62.514 62.084 13.538 13.113 62.464-61.843 62.463 61.843 13.538-13.113-62.513-62.084 37.577-37.204 8.515 8.483 37.607 15.518-14.286-38.748-8.435-8.42 1.535-1.521z" style="fill:#231f20;fill-rule:evenodd"></path><path d="M297.07 307.175c-31.542 0-60.099 12.785-80.768 33.454-20.67 20.67-33.454 49.226-33.454 80.769s12.785 60.1 33.454 80.769c20.67 20.669 49.226 33.454 80.769 33.454 31.542 0 60.099-12.785 80.768-33.454 20.67-20.67 33.454-49.226 33.454-80.77 0-31.542-12.784-60.098-33.454-80.768s-49.226-33.454-80.768-33.454m-99.808 14.414c25.544-25.543 60.832-41.343 99.809-41.343s74.264 15.8 99.808 41.343 41.344 60.832 41.344 99.809-15.8 74.264-41.344 99.808-60.832 41.344-99.808 41.344-74.265-15.8-99.809-41.344c-25.544-25.543-41.343-60.831-41.343-99.808s15.8-74.265 41.343-99.809" style="fill:#f6c813;fill-rule:evenodd"></path><path d="M297.638 188.972c-64.06 0-122.053 25.964-164.031 67.942s-67.942 99.972-67.942 164.03c0 64.06 25.964 122.054 67.942 164.032s99.972 67.942 164.03 67.942c64.06 0 122.054-25.964 164.032-67.942s67.942-99.972 67.942-164.031-25.964-122.053-67.942-164.031-99.972-67.942-164.031-67.942m-183.071 48.902c46.853-46.852 111.579-75.831 183.07-75.831 71.493 0 136.22 28.979 183.072 75.831s75.831 111.579 75.831 183.07c0 71.493-28.979 136.22-75.831 183.072s-111.58 75.831-183.071 75.831c-71.492 0-136.218-28.979-183.071-75.831-46.852-46.853-75.832-111.58-75.832-183.071 0-71.492 28.98-136.218 75.832-183.07" style="fill:#f3c817;fill-rule:evenodd" data-source="https://football-logos.cc"></path><path d="M155.919 421.398c0-4.201.183-8.36.543-12.467H65.97a236 236 0 0 0 .08 25.5h90.462a143 143 0 0 1-.593-13.033M438.223 421.398c0 4.394-.201 8.741-.594 13.033h91.596a236 236 0 0 0 .08-25.5H437.68c.359 4.108.543 8.266.543 12.467" style="fill:#090306;fill-rule:evenodd"></path><path d="M156.462 408.93a140.7 140.7 0 0 1 4.518-25.125H68.622a233 233 0 0 0-2.652 25.126zM156.512 434.43H66.05a233 233 0 0 0 2.813 25.124h92.274a140.6 140.6 0 0 1-4.625-25.123M437.629 434.43a140.6 140.6 0 0 1-4.625 25.124h93.409a233 233 0 0 0 2.812-25.123zM437.68 408.93h91.625a233 233 0 0 0-2.651-25.125H433.16a140.7 140.7 0 0 1 4.519 25.126" style="fill:#ed1b24;fill-rule:evenodd"></path><path d="M161.137 459.554H68.863c8.14 48.592 31.386 92.064 64.744 125.422 41.978 41.978 99.972 67.942 164.03 67.942 64.06 0 122.054-25.964 164.032-67.942 33.358-33.358 56.603-76.83 64.744-125.422h-93.409c-6.622 23.64-19.246 44.774-36.125 61.652-25.544 25.544-60.832 41.344-99.808 41.344s-74.265-15.8-99.809-41.344c-16.879-16.878-29.503-38.011-36.125-61.652m16.054 147.2 35.55-59.962 41.532 24.488-6.66 10.784-28.25-17.349-8.251 13.632 25.047 14.962-6.66 10.41-24.743-14.799-15.035 25.347zm181.627-2.663c-10.818-16.542-11.756-35.908 5.533-47.93 12.383-8.61 25.989-7.92 36.457 1.754l-9.82 10.537c-5.176-4.978-12.695-6.058-18.699-2.132-11.059 7.233-8.118 19.755-1.988 29.128 6.083 9.301 16.66 17.357 26.502 10.99 8.137-5.263 8.57-13.808 5.786-21.333l13.805-3.75c4.53 14 1.664 26.657-12.756 35.55-16.967 10.464-34.522 2.933-44.82-12.814" style="fill:#fff;fill-rule:evenodd"></path><path d="M182.848 421.398c0 31.543 12.784 60.1 33.454 80.769s49.226 33.454 80.769 33.454c31.542 0 60.099-12.785 80.768-33.454 20.67-20.67 33.454-49.226 33.454-80.77 0-31.542-12.784-60.098-33.454-80.768s-49.226-33.454-80.768-33.454-60.1 12.785-80.77 33.454c-20.668 20.67-33.453 49.226-33.453 80.769m101.251-.475-37.2-36.83-26.425 26.297-23.322-22.856 26.392-26.564-1.959-1.94 13.163-13.909 2.286 2.27 25.82-25.988 23.884 23.042-26.308 26.181 37.157 36.902 37.54-37.283-25.615-25.518 23.415-23.23 25.578 25.531 1.92-1.907 13.163 13.91-1.535 1.52 8.435 8.42 14.286 38.749-37.607-15.518-8.515-8.483-37.577 37.204 62.513 62.084-13.538 13.113-62.463-61.843-62.464 61.843-13.538-13.113zm-8.041 71.436q2.922-3.009 7.433-3.007c3.27 0 5.96 1.27 8.057 3.804 2.098 2.54 3.15 6.711 3.15 12.529 0 5.907-1.09 10.177-3.27 12.792-2.18 2.623-5.02 3.93-8.523 3.93-2.518 0-4.547-.675-6.103-2.028-1.548-1.346-2.548-3.368-2.984-6.058l5.998-.662c.143 1.226.526 2.135 1.135 2.721.609.594 1.42.887 2.42.887 1.27 0 2.345-.594 3.232-1.774s1.45-3.63 1.699-7.335c-1.556 1.803-3.495 2.705-5.833 2.705-2.533 0-4.728-.977-6.569-2.938q-2.76-2.941-2.758-7.652-.001-4.916 2.916-7.914m-25.17 5.156c1.617-.527 3.368-1.526 5.254-3.007 1.894-1.473 3.187-3.194 3.894-5.156h5.013v32.47h-6.178v-23.375q-3.383 3.181-7.982 4.705zm57.011 24.307v-23.375q-3.381 3.181-7.982 4.705v-5.637q2.424-.787 5.254-3.007c1.894-1.473 3.187-3.194 3.893-5.156h5.013v32.47zm14.394-11.883 13.965-20.542h5.2v20.52h4.014v5.41h-4.013v6.495h-5.998v-6.494h-13.168z" style="fill:#fff;fill-rule:evenodd"></path><path d="M280.365 495.846c-.76.902-1.135 2.375-1.135 4.42 0 2.082.413 3.607 1.232 4.584.82.97 1.842 1.458 3.074 1.458q1.782.002 3-1.405 1.216-1.41 1.217-4.126 0-2.99-1.376-4.638-1.367-1.646-3.171-1.646-1.714 0-2.841 1.353M335.46 498.89l-7.38 11.026h7.38zM153.712 348.218c5.545-9.65 5.583-17.156-10.697-26.174-15.52-8.597-23.575-7.26-30.388 5.54l-4.595 8.633 39.975 21.927zM178.446 281.486c6.38 9.018 16.846 15.627 27.71 8.478 11.87-7.81 10.178-20.108 3.199-30.493-7.104-10.571-17.913-16.284-29.595-8.308-11.833 8.08-8.679 19.913-1.314 30.323M259.527 217.599l2.022 17.2 9.919-.737c7.336-.545 18.284-1.137 17.018-11.274-1.256-10.045-11.683-7.33-18.662-6.465zM346.072 241.504c-4.414 10.128-4.651 22.504 7.089 28.099 12.826 6.113 22.473-1.7 27.746-13.047 5.368-11.55 4.66-23.756-8.21-29.622-13.038-5.943-21.53 2.882-26.625 14.57" style="fill:#fff;fill-rule:evenodd"></path><path d="M213.887 299.64c-18.213 12.241-35.186 7.426-47.652-9.724-12.7-17.472-12.606-35.776 6.998-49.856 15.203-10.92 36.487-7.117 48.412 10.626 11.857 17.643 10.524 36.668-7.758 48.954m37.756-23.362L243.7 207.05l29.186-3.04c13.955-1.454 27.597-1.263 29.764 16.063 1.447 11.57-5.11 18.666-15.863 21.637 3.246 1.386 5.977 3.02 8.203 4.89 2.235 1.878 5.334 5.336 9.373 10.299l10.174 12.498-17.154 2.005-11.587-13.825c-4.197-5.008-7.182-8.025-8.701-9.265-1.5-1.225-3.03-2.023-4.583-2.352-1.569-.331-4.059-.76-7.294-.357l-2.848.356 4.005 28.84zm97.24 4.948c-19.9-9.248-24.566-26.262-16.344-45.806 8.375-19.91 24.086-29.303 46.28-19.818 17.212 7.357 24.975 27.535 15.966 46.923-8.959 19.277-25.926 27.984-45.902 18.701M103.37 319.145c10.923-20.285 27.07-21.213 46.567-10.396 18.74 10.397 25.126 25.037 14.216 45.055l-12.295 22.56-61.5-33.057zm-34.748 64.66h92.358c6.58-23.868 19.27-45.203 36.282-62.216 25.544-25.543 60.832-41.343 99.809-41.343s74.264 15.8 99.808 41.343c17.012 17.013 29.703 38.348 36.282 62.216h93.493c-7.914-49.185-31.291-93.197-64.985-126.891-41.978-41.978-99.972-67.942-164.031-67.942s-122.053 25.964-164.031 67.942c-33.694 33.694-57.071 77.706-64.985 126.89m341.46-59.585c-13.23-17.872-7.42-37.404 9.165-50.257 16.918-13.11 34.664-8.132 44.567 1.575 10.536 10.326 18.07 26.79 6.468 40.094l-11.388-9.069c5.325-7.664 3.312-13.871-1.922-19.37-8.854-9.303-19.651-9.192-29.106-.267-9.35 8.827-16.124 17.08-7.978 29.378 3.161 4.773 10.79 9.147 16.378 10.212l6.002-5.095-10.601-12.427 9.588-8.506 20.271 23.68-21.52 18.996c-9.665-2.076-23.988-10.923-29.925-18.944m30.45 50.87-5.593-14.296 65.31-25.218 5.031 13.92z" style="fill:#fff;fill-rule:evenodd" data-source="https://football-logos.cc"></path><!-- source: https://football-logos.cc --></svg>