<svg xmlns="http://www.w3.org/2000/svg" viewBox="37.4 137.48 520.48 566.93"><!-- Source: https://football-logos.cc --><path d="M510.304 403.126c4.424 18.439 9.766 36.652 13.981 55.14 3.818 16.75 6.601 33.806 6.61 51.028.009 17.364-3.122 34.337-10.047 50.283-6.603 15.202-16.384 28.825-27.84 40.74-21.974 22.856-50.272 40.694-78.245 55.257-36.582 19.045-75.93 34.35-114.75 48.164l-1.885.671-1.888-.663c-20.697-7.267-41.252-14.998-61.489-23.468-23.39-9.789-46.583-20.616-68.621-33.178-19.692-11.224-39.374-24.32-55.868-39.944-29.487-27.93-44.703-58.466-44.751-99.853-.01-8.001.864-16.218 1.99-24.133 1.325-9.307 3.107-18.584 5.192-27.75q1.016-4.465 2.136-8.907c3.66-14.503 7.703-28.903 11.378-43.403a2519 2519 0 0 0-42.576 3.96l-6.233.634v-6.265c0-46.286.141-92.573.141-138.86v-5.115l5.09-.517a2536 2536 0 0 1 45.33-4.187c-7.992-23.445-20.656-46.211-35.099-66.097l-2.723-3.749L91.92 137.48h412.543l41.604 45.418-2.672 3.733c-14.43 20.157-26.683 42.576-34.765 66.12a2356 2356 0 0 1 44.175 4.187l5.074.53v5.1c0 46.288-.141 92.575-.141 138.86v6.284l-6.25-.652a2335 2335 0 0 0-41.183-3.934" style="fill:#fff;fill-rule:evenodd" data-source="https://football-logos.cc"></path><path d="m57.44 183.336 36.964-40.195H501.97l36.82 40.195c-14.186 19.818-26.938 42.727-35.408 67.267a2384 2384 0 0 0-25.5-1.978c-59.524-6.146-119.208-7.859-178.886-6.36-68.671.015-137.342 2.799-205.789 8.355-7.98-23.232-20.729-46.58-35.767-67.284M505.024 405.37c4.38 18.114 9.703 36.434 13.742 54.155 3.964 17.388 6.46 33.685 6.469 49.772.009 16.96-3.075 33.048-9.58 48.025-6.11 14.069-15.273 27.159-26.727 39.072-38.125 39.654-103.014 70.765-190.812 102.01-66.215-23.25-141.37-55.016-183.96-95.358-26.078-24.7-42.934-53.237-42.983-95.75-.018-15.35 3.8-38.213 9.147-59.398 3.476-13.775 7.487-28.064 11.22-42.769 69.353-5.862 138.938-8.145 208.562-8.183 52.835.339 110.144 2.458 176.159 6.19q14.388 1.029 28.763 2.234" style="fill:#1b1918;fill-rule:evenodd"></path><path d="M62.54 183.645c14.296 20.138 26.798 43.056 34.749 66.647q1.881-.15 3.763-.296c-7.794-21.784-19.287-42.857-32.191-61.54l35.567-41.352h-8.284zM95.7 404.782c-3.725 14.724-7.819 29.344-11.539 44.086a380 380 0 0 0-2.083 8.687c-2.026 8.908-3.761 17.925-5.048 26.97-1.061 7.456-1.904 15.23-1.895 22.767.045 38.726 14.178 66.766 41.746 92.877 14.031 13.292 30.527 24.701 47.257 34.639-13.451-8.7-26.493-18.468-37.87-29.544-13.833-13.463-24.121-27.516-31.534-43.278-6.963-14.806-11.474-31.124-11.495-49.882-.008-7.537-.462-15.311.57-22.766 1.252-9.046 2.091-18.063 4.063-26.971q.963-4.356 2.027-8.687c4.058-16.528 8.574-32.902 12.528-49.441q-3.364.265-6.727.543m339.677 228.21c18.406-11.177 36.055-24.118 50.694-39.345 10.656-11.083 19.806-23.76 25.95-37.904 6.397-14.732 9.258-30.403 9.25-46.444-.01-16.486-2.714-32.86-6.37-48.893-4.232-18.568-9.605-36.86-14.04-55.381q-3.357-.276-6.717-.54c4.442 20.354 9.956 40.378 14.47 60.733 3.557 16.033 4.35 30.425 4.358 46.911.008 16.041-4.191 32.561-10.417 47.294-5.978 14.144-15.024 26.962-25.393 38.046-12.354 13.205-26.659 25.223-41.785 35.524m63.93-382.724c8.04-23.663 20.127-46.224 34.402-66.612l-33.483-36.552h-8.777l35.89 41.364c-13.439 18.903-24.514 39.674-32.28 61.46q2.124.168 4.247.34" style="fill:#fff;fill-rule:evenodd"></path><path d="M90.808 189.853c11.558 18.336 21.492 38.25 28.351 58.794a2552 2552 0 0 1 179.837-6.382c59.372-1.576 121.874 1.105 177.968 6.294 6.91-20.642 16.568-40.41 28.304-58.75l-25.645-29.266-362.675-.174zm29.815 213.025c-4.223 18.372-9.224 36.84-13.68 54.987a369 369 0 0 0-1.936 8.294c-1.855 8.38-2.637 17.09-3.814 25.585-.904 6.528-.411 13.735-.404 20.34.017 15.024 3.45 28.876 9.827 42.434 6.852 14.57 16.378 26.963 27.893 38.17 29.114 28.341 71.368 51.018 108.475 66.978a1018 1018 0 0 0 51.064 20.371c17.312-6.426 34.51-13.59 51.486-20.862 23.433-10.037 47.993-22.727 69.61-36.5 16.39-10.444 31.92-22.998 45.203-37.196 9-9.62 16.895-20.709 22.042-32.888 5.302-12.546 9.04-26.77 9.033-40.453-.007-14.775-.73-28.648-3.94-43.12-4.89-22.043-10.963-43.796-15.575-65.907-58.5-2.275-117.15-4.765-175.806-6.165-59.896.033-119.763 1.727-179.478 5.932" style="fill:#00a4d7;fill-rule:evenodd"></path><path d="M298.114 680.013c17.29-6.42 34.466-13.576 51.42-20.838 23.433-10.037 47.993-22.727 69.61-36.5 16.39-10.444 31.92-22.998 45.203-37.196 9-9.62 16.895-20.709 22.042-32.888 5.302-12.546 9.04-26.77 9.033-40.453-.007-14.775-.73-28.648-3.94-43.12-4.89-22.043-10.963-43.796-15.575-65.907-58.5-4.177-117.15-6.198-175.806-6.165l-1.987.002zm178.85-431.454c6.91-20.642 16.568-40.41 28.304-58.75l-25.645-29.266-181.51-.087v81.81l.883-.001c59.372-.013 118.749 2.042 177.968 6.294" style="fill:#fce224;fill-rule:evenodd"></path><path d="M43.2 262.58a2541 2541 0 0 1 255.798-12.956c84.554-.019 169.117 4.172 253.219 12.945v3.415c-84.108-8.787-168.656-12.982-253.218-12.963-85.421.02-170.814 4.34-255.798 12.973z" style="fill:#1b1918;fill-rule:evenodd"></path><path d="M43.26 269.401A2532 2532 0 0 1 299 256.418c84.831-.02 169.247 4.195 253.24 12.983v17.508q-124.176-12.883-252.144-12.812c-84.376.047-169.988 3.327-256.836 12.812zM43.059 398.025a2538 2538 0 0 1 182.97-11.897v3.398a2534 2534 0 0 0-182.97 11.912zm327.1-11.965c60.76 1.709 121.457 5.647 181.916 11.954v3.415c-60.464-6.317-121.155-10.26-181.915-11.971ZM44.109 376.823a2529 2529 0 0 1 181.92-11.895v17.551c-60.025 1.559-120.665 5.162-181.92 11.852zm326.05-12.02c61.196 1.7 122.174 5.663 182.93 12.02v17.508q-90.459-9.383-182.93-11.895zM236.22 364.65q31.853-.804 63.63-.81 30.095-.008 60.12.702v55.71c-18.433-10.787-41.56-15.66-62.188-15.643s-43.756 4.927-61.563 15.697zM308.264 188.773h4.17c12.813-9.138 29.578-15.333 46.839-15.947-15.305 2.41-30.656 9.057-40.252 15.947h4.17c12.164-8.676 27.89-14.698 44.222-15.812q.61.043 1.217.097c-14.836 2.584-29.549 9.035-38.853 15.715h4.17c10.79-7.696 24.384-13.304 38.716-15.25 9.105 1.312 17.902 4.37 26.198 9.359-6.174-4.422-14.85-7.819-24.2-9.606q1.745-.195 3.502-.315c10.977.774 21.572 3.977 31.454 9.92-6.8-4.87-16.638-8.497-27.065-10.1 13.246-.176 26.04 3.015 37.822 10.1-9.368-6.709-24.5-11.06-38.999-11.009a69 69 0 0 0-5.004.206 75 75 0 0 0-5.752-.206 69 69 0 0 0-5.004.206 75 75 0 0 0-5.753-.206c-18.641.066-39.61 8.294-51.598 16.901M288.221 215.139h-4.17c-12.813 9.138-29.577 15.333-46.838 15.947 15.305-2.411 30.655-9.057 40.252-15.947h-4.17c-12.165 8.676-27.89 14.698-44.222 15.812a72 72 0 0 1-1.218-.097c14.836-2.584 29.55-9.035 38.854-15.715h-4.17c-10.791 7.696-24.385 13.304-38.717 15.25-9.104-1.312-17.902-4.37-26.197-9.359 6.173 4.422 14.85 7.819 24.199 9.606q-1.744.195-3.501.315c-10.977-.775-21.573-3.977-31.455-9.92 6.8 4.87 16.638 8.497 27.066 10.1-13.247.176-26.041-3.015-37.822-10.1 9.368 6.709 24.5 11.06 38.998 11.008a69 69 0 0 0 5.004-.205c1.919.142 3.841.212 5.753.206a69 69 0 0 0 5.003-.206 75 75 0 0 0 5.753.206c18.642-.066 39.61-8.294 51.598-16.901M274.44 207.244h4.988v4.169h-16.27v-4.17h5.22v-8.894q-2.975 1.167-4.65 1.371v-4.206c3.01-.575 5.047-1.61 6.12-3.102h4.592zM281.168 206.696l5.422-.767q.341 1.727 2.031 1.727 1.332 0 2.037-1.095t.703-3.018q0-.217-.016-.561-1.39 1.81-4.12 1.81-2.867 0-4.74-1.67c-1.253-1.118-1.878-2.536-1.878-4.267q0-2.834 2.211-4.637 2.205-1.804 5.925-1.806c2.85 0 5.009.838 6.464 2.503q2.183 2.505 2.184 6.602c0 3.004-.756 5.456-2.27 7.346-1.512 1.89-3.77 2.84-6.764 2.84-1.963 0-3.582-.45-4.856-1.338q-1.92-1.34-2.333-3.669m7.5-5.88q.944 0 1.656-.581.714-.583.714-1.652c0-.72-.217-1.296-.65-1.712q-.652-.632-1.645-.632-.93 0-1.587.59-.66.59-.661 1.768.001 1.04.614 1.629.609.59 1.56.59M315.164 192.702v3.51q-2.31 2.4-3.968 6.386-1.659 3.993-1.66 7.636 0 .357.063 1.179h-6.992c0-2.204.608-4.604 1.824-7.21a22.1 22.1 0 0 1 4.888-6.813h-9.807l.45-4.688zM332.65 197.32h-8.864l-.244 2.648c1.143-.706 2.418-1.057 3.809-1.057 1.84 0 3.449.557 4.819 1.675q2.062 1.668 2.062 4.468c0 1.965-.798 3.56-2.4 4.796q-2.406 1.853-6.137 1.853-3.252 0-5.633-1.516-2.38-1.514-2.92-4.23l5.454-.59c.36 1.362 1.348 2.045 2.956 2.045.82 0 1.455-.22 1.915-.66q.692-.658.693-1.604 0-1.067-.793-1.67c-.524-.403-1.154-.604-1.873-.604-1.074 0-1.904.393-2.48 1.179l-4.851-.604.931-10.747h14.118z" style="fill:#1b1918;fill-rule:evenodd"></path><path d="M265.63 390.638v5.236h-18.48v-4.247l9.84-12.816h-9.096v-5.141h17.424v4.309l-9.55 12.66zM265.682 389.45l6.324-1.138q.8 2.682 4.098 2.682 2.572 0 2.57-1.366c0-.478-.193-.85-.593-1.116q-.591-.399-2.121-.705-5.839-1.126-7.496-2.927c-1.11-1.204-1.66-2.62-1.66-4.247q0-3.142 2.382-5.225t6.857-2.083c4.52 0 7.507 1.822 8.962 5.453l-5.647 1.71q-.876-2.232-3.56-2.232-2.231 0-2.232 1.383c0 .41.173.733.506.96q.507.342 1.954.65 3.983.849 5.658 1.5 1.683.647 2.799 2.22 1.123 1.566 1.122 3.698 0 3.366-2.732 5.458t-7.174 2.094c-5.408 0-8.751-2.26-10.017-6.769M297.243 396.219c-3.12 0-5.67-1.039-7.635-3.11q-2.955-3.107-2.954-8.312c0-3.32.938-6.058 2.82-8.223q2.823-3.249 7.835-3.249c3.093 0 5.608 1.022 7.557 3.06 1.944 2.038 2.921 4.764 2.921 8.168 0 3.526-.983 6.346-2.948 8.473q-2.94 3.192-7.596 3.193m-.034-5.048q1.725.001 2.482-1.504c.506-1 .756-2.838.756-5.503 0-3.865-1.033-5.791-3.104-5.791-2.238 0-3.354 2.198-3.354 6.602 0 4.13 1.077 6.196 3.22 6.196m-2.96-21.632 7.436-3.643 1.182 3.17-7.773 2.705zM330.147 395.874h-7.562l-3.237-8.49h-2.15v8.49h-6.812V373.67h11.6q3.831 0 5.957 1.799c1.416 1.2 2.127 2.776 2.127 4.742q0 1.917-.783 3.392-.782 1.468-3.154 2.593zM317.2 382.632h2.915q1.282 0 2.065-.533.777-.542.778-1.583 0-2.125-2.616-2.127H317.2zM350.711 373.67l-6.946 12.804v9.4h-6.619v-9.4l-7.468-12.804h7.468l3.887 7.301 3.726-7.301z" style="fill:#fff;fill-rule:evenodd" data-source="https://football-logos.cc"></path><path d="m133.236 303.706 2.548 43.185-12.301.726-1.821-30.875-6.192 31.348-8.412.496L96.953 318.2l1.822 30.875-9.936.586-2.547-43.186 17.3-1.02 7.617 22.567 4.63-23.29zM175.39 334.37l.518 10.318-32.5 1.633-2.17-43.207 32.5-1.633.5 9.972-19.49.98.314 6.266 15.764-.792.482 9.594-15.764.792.355 7.056zM214.146 333.39l.334 10.196-35.982 1.178-.271-8.271 18.341-25.582-17.71.58-.328-10.012 33.928-1.111.275 8.39-17.789 25.26zM238.192 343.695c-6.078.168-11.097-1.718-15.036-5.646-3.95-3.928-6.012-9.271-6.198-16.03-.178-6.467 1.503-11.848 5.053-16.167 3.55-4.318 8.574-6.566 15.084-6.746 6.023-.165 10.977 1.69 14.881 5.554 3.894 3.864 5.944 9.122 6.126 15.75.19 6.867-1.574 12.414-5.288 16.66-3.703 4.247-8.577 6.459-14.622 6.625m-.335-9.827c2.238-.062 3.822-1.08 4.752-3.064.931-1.974 1.32-5.566 1.177-10.757-.208-7.527-2.322-11.224-6.356-11.112-4.358.12-6.414 4.462-6.178 13.037.222 8.046 2.43 12.01 6.605 11.896m1.681-41.538 10.036-8.49 3.214 5.105-10.997 7.002zm-12.923.355 10.004-8.49 3.247 5.106-11.03 7.003zM303.22 342.908l-14.55.017-7.495-16.348-4.46 6.377.012 9.985-12.517.014-.05-43.26 12.516-.015.021 17.871 11.922-17.885 11.922-.014-10.919 15.829zM325.466 344.087c-6.077-.166-10.986-2.323-14.704-6.462-3.728-4.138-5.495-9.587-5.31-16.345.177-6.467 2.15-11.748 5.931-15.866q5.668-6.176 15.431-5.909c6.023.165 10.868 2.288 14.555 6.36 3.676 4.073 5.435 9.435 5.253 16.063-.187 6.867-2.251 12.308-6.192 16.345-3.931 4.038-8.919 5.98-14.964 5.814m.204-9.831c2.238.061 3.876-.868 4.914-2.799 1.037-1.92 1.622-5.485 1.763-10.676.206-7.527-1.703-11.334-5.736-11.444-4.359-.12-6.649 4.104-6.883 12.68-.22 8.045 1.768 12.125 5.942 12.239m-4.826-38.864c-1.167-.032-2.151-.47-2.95-1.303-.8-.834-1.184-1.84-1.153-2.997.03-1.125.469-2.087 1.302-2.886.834-.8 1.84-1.184 3.03-1.151 1.178.032 2.161.48 2.939 1.335.777.855 1.15 1.839 1.12 2.964-.031 1.135-.469 2.108-1.313 2.897s-1.839 1.172-2.975 1.141m11.43.312c-1.156-.031-2.14-.48-2.96-1.325-.81-.845-1.195-1.84-1.164-2.976.031-1.146.469-2.108 1.313-2.896a4.1 4.1 0 0 1 3.007-1.141c1.168.032 2.14.47 2.93 1.303.789.833 1.173 1.817 1.142 2.964-.032 1.157-.47 2.14-1.314 2.93-.844.787-1.829 1.172-2.953 1.141M390.726 301.883l-14.892 42.785-13.526-.455-12.537-43.707 13.99.47 6.02 23.8c.418 1.41.782 2.797 1.104 4.16l8.91-27.42zM426.269 336.504l-.516 10.319-32.5-1.622 2.157-43.207 32.5 1.622-.498 9.972-19.491-.973-.313 6.267 15.764.787-.479 9.594-15.764-.787-.352 7.056zM427.384 334.303l12.425-1.53q1.266 5.303 7.682 5.66c3.337.184 5.05-.609 5.148-2.38.052-.93-.286-1.674-1.035-2.236-.738-.56-2.084-1.09-4.05-1.6-7.49-1.88-12.246-4.05-14.266-6.502-2.03-2.464-2.946-5.278-2.77-8.443.226-4.072 1.959-7.378 5.198-9.906q4.862-3.794 13.565-3.31c8.792.488 14.407 4.353 16.844 11.575l-11.17 2.717c-.973-2.958-3.204-4.534-6.682-4.727q-4.342-.241-4.492 2.448c-.044.8.256 1.445.88 1.923.634.48 1.874.971 3.731 1.476 5.102 1.388 8.72 2.564 10.845 3.527 2.135.964 3.87 2.5 5.204 4.623 1.345 2.111 1.936 4.55 1.782 7.315-.242 4.363-2.21 7.808-5.904 10.322s-8.424 3.617-14.18 3.297c-10.521-.584-16.78-5.341-18.755-14.249M470.612 349.254l3.242-43.14 16.689 1.255c7.238.544 12.503 3.098 15.782 7.673 3.28 4.564 4.709 9.673 4.285 15.315q-.727 9.675-6.976 15.293c-4.176 3.743-9.343 5.383-15.514 4.92zm13.982-8.93 3.452.26c2.19.164 4.115-.765 5.785-2.777 1.66-2.012 2.633-4.858 2.907-8.515.237-3.15-.229-5.897-1.396-8.273-1.166-2.377-3.011-3.666-5.535-3.855l-3.452-.26z" style="fill:#1b1918;fill-rule:evenodd"></path><path d="M297.18 423.036c63.928 0 115.77 51.842 115.77 115.77s-51.842 115.77-115.77 115.77-115.77-51.843-115.77-115.77c0-63.928 51.843-115.77 115.77-115.77" style="fill:#fff;fill-rule:evenodd"></path><path d="M298.17 440.037c55.487 0 100.486 45 100.486 100.487 0 55.488-44.999 100.487-100.487 100.487s-100.487-44.999-100.487-100.487 45-100.487 100.487-100.487" style="fill:#1b1918;fill-rule:evenodd"></path><path d="m299.588 503.088 33.354 24.27 32.77-10.752.207-34.527-33.547-24.298-32.784 10.981zm27.71-55.799c20.398 6.369 37.921 19.25 50.143 36.207l-7.946-2.322-37.388-27.08zm68.503 91.288c.012.648.024 1.296.024 1.947 0 21.965-7.256 42.238-19.501 58.553l-.317-10.632 14.73-42.881zm-64.196 93.726c-10.43 3.802-21.691 5.878-33.436 5.878a97.5 97.5 0 0 1-32.927-5.7l10.257-3.673h45.305zm-111.06-32.534c-12.563-16.432-20.032-36.967-20.032-59.245 0-1.037.022-2.07.054-3.098l6.191 8.008 13.773 43.094zm-1.93-115.886c12.168-17.06 29.687-30.037 50.103-36.49l-4.176 6.064-37.131 27.556zm115.154 46.182-12.599 38.644 19.936 27.54 32.816-10.445 13.293-38.699-20.728-27.774zm-14.859 40.35h-40.925l-20.28 27.35 20.24 28.213h40.94l19.888-28.124zm-43.208-1.675-12.805-39.138-32.12-10.538-20.549 27.93 12.442 38.927 32.747 10.179zm-11.761-41.774 32.816-23.714v-34.449L263.91 457.45l-32.641 24.224.444 34.718zM274.164 536.747c-.794.804-1.215 2.136-.325 4.645 3.183 8.963 15.272 11.577 24.443 11.478 9.17.099 21.259-2.515 24.442-11.478.89-2.509.469-3.841-.325-4.645-1.658-1.68-3.674-.505-4.371 1.2-3.683 9.007-11.387 12.95-18.79 13.286a22 22 0 0 1-2.274-.02c-7.291-.441-14.807-4.406-18.429-13.266-.697-1.705-2.713-2.88-4.37-1.2" style="fill:#fff;fill-rule:evenodd"></path><path d="M279.602 536.762c3.047 9.437 12.702 13.675 18.59 13.696h.178c5.888-.021 15.544-4.26 18.591-13.697 1.129-3.496.73-7.06-1.376-9.248-.931-.967-2.36-1.84-3.699-1.577-1.566.308-1.963 1.372-1.41 3.218 4.247 14.169-7.059 19.96-12.194 19.981-5.136-.021-16.442-5.812-12.195-19.981.553-1.846.156-2.91-1.41-3.218-1.339-.263-2.768.61-3.699 1.577-2.106 2.189-2.505 5.752-1.376 9.248" style="fill:#fff;fill-rule:evenodd"></path><path d="M286.568 532.3c-1.712 10.74 6.534 15.691 11.348 16.016 0 .027.73.036.73 0 4.815-.325 13.061-5.277 11.35-16.017-.538-3.367-2.082-8.131-4.348-9.732-1.202-.85-3.125-1.066-4.216-.214-.962.752-1.246 2.369-.263 4.669 1.9 4.446 5.675 8.59 3.9 14.615-1.005 3.41-4.331 5.325-6.788 5.373-2.456-.048-5.783-1.963-6.787-5.373-1.775-6.025 2-10.17 3.9-14.615.983-2.3.699-3.917-.263-4.669-1.091-.852-3.014-.636-4.217.214-2.265 1.6-3.81 6.365-4.346 9.732" style="fill:#fff;fill-rule:evenodd"></path><path d="M298.161 535.173a4.082 4.082 0 1 1-.001 8.163 4.082 4.082 0 0 1 .001-8.163M285.88 514.388a4.591 4.591 0 1 1-.002 9.182 4.591 4.591 0 0 1 .001-9.183M310.647 514.388a4.591 4.591 0 1 1-.001 9.182 4.591 4.591 0 0 1 .001-9.183M297.946 553.763c-4.984-.025-8.867-.135-14.47-2.096-1.616-.564-3.501-.85-4.665.722-.907 1.223-.297 3.086.812 4.021 1.812 1.527 4.887 1.832 7.153 1.662 4.211-.316 8.707-2.29 11.17-4.309M298.625 553.763c4.983-.025 8.867-.135 14.47-2.096 1.616-.564 3.5-.85 4.665.722.907 1.223.297 3.086-.812 4.021-1.812 1.527-4.887 1.832-7.153 1.662-4.212-.316-8.707-2.29-11.17-4.309M298.102 554.944c-3.077 2.378-5.987 3.702-10.066 4.307-1.37.203-2.926.732-3.077 2.308-.118 1.227 1.085 2.265 2.243 2.45 4.92.787 8.927-2.558 10.9-9.065M298.47 554.944c3.076 2.378 5.986 3.702 10.065 4.307 1.37.203 2.926.732 3.077 2.308.118 1.227-1.085 2.265-2.243 2.45-4.92.787-8.927-2.558-10.9-9.065M298.67 557.51c.387 3.238 1.274 3.324 2.47 6.521 1.413 3.78-3.507 6.96-4.828 2.265-.699-2.484-.25-5.246 2.358-8.785M298.334 507.288a2.704 2.704 0 0 1 .565 5.349v5.929c.733-.933 1.731-1.97 2.619-2.747a2.704 2.704 0 1 1 .451.532c-1.154 1.186-2.82 3.049-2.82 4.792v2.43h-1.251v-2.312c0-1.813-1.676-3.783-2.79-4.887a2.704 2.704 0 1 1 .463-.532 19.6 19.6 0 0 1 2.48 2.69v-5.85a2.705 2.705 0 0 1 .283-5.394" style="fill:#fff;fill-rule:evenodd" data-source="https://football-logos.cc"></path><!-- source: https://football-logos.cc --></svg>