<svg xmlns="http://www.w3.org/2000/svg" viewBox="25.99 119.52 731.18 869.66"><!-- Source: https://football-logos.cc --><defs data-source="https://football-logos.cc"><linearGradient id="a" x1="19.994" x2="568.378" y1="373.697" y2="373.697" gradientTransform="translate(.5 -.5)" gradientUnits="userSpaceOnUse" spreadMethod="pad"><stop offset="0" style="stop-opacity:1;stop-color:#aa9165"></stop><stop offset=".485" style="stop-opacity:1;stop-color:#aa9165"></stop><stop offset="1" style="stop-opacity:1;stop-color:#6f6345"></stop></linearGradient><linearGradient id="b" x1="41.222" x2="547.149" y1="373.697" y2="373.697" gradientTransform="translate(.5 -.5)" gradientUnits="userSpaceOnUse" spreadMethod="pad"><stop offset="0" style="stop-opacity:1;stop-color:#5f3a9e"></stop><stop offset=".678" style="stop-opacity:1;stop-color:#5f3a9e"></stop><stop offset="1" style="stop-opacity:1;stop-color:#44267f"></stop></linearGradient><linearGradient id="c" x1="160.864" x2="264.342" y1="216.573" y2="216.573" gradientTransform="translate(.5 -.5)" gradientUnits="userSpaceOnUse" spreadMethod="pad"><stop offset="0" style="stop-opacity:1;stop-color:#aa9165"></stop><stop offset=".485" style="stop-opacity:1;stop-color:#aa9165"></stop><stop offset="1" style="stop-opacity:1;stop-color:#6f6345"></stop></linearGradient><linearGradient id="d" x1="214.381" x2="374.528" y1="227.375" y2="227.375" gradientTransform="translate(.5 -.5)" gradientUnits="userSpaceOnUse" spreadMethod="pad"><stop offset="0" style="stop-opacity:1;stop-color:#aa9165"></stop><stop offset=".485" style="stop-opacity:1;stop-color:#aa9165"></stop><stop offset="1" style="stop-opacity:1;stop-color:#6f6345"></stop></linearGradient><linearGradient id="e" x1="328.581" x2="426.49" y1="217.945" y2="217.945" gradientTransform="translate(.5 -.5)" gradientUnits="userSpaceOnUse" spreadMethod="pad"><stop offset="0" style="stop-opacity:1;stop-color:#aa9165"></stop><stop offset=".485" style="stop-opacity:1;stop-color:#aa9165"></stop><stop offset="1" style="stop-opacity:1;stop-color:#6f6345"></stop></linearGradient><linearGradient id="f" x1="326.708" x2="367.919" y1="461.796" y2="461.796" gradientTransform="translate(.5 -.5)" gradientUnits="userSpaceOnUse" spreadMethod="pad"><stop offset="0" style="stop-opacity:1;stop-color:#aa9165"></stop><stop offset=".485" style="stop-opacity:1;stop-color:#aa9165"></stop><stop offset="1" style="stop-opacity:1;stop-color:#6f6345"></stop></linearGradient><linearGradient id="g" x1="220.437" x2="325.46" y1="522.762" y2="522.762" gradientTransform="translate(.5 -.5)" gradientUnits="userSpaceOnUse" spreadMethod="pad"><stop offset="0" style="stop-opacity:1;stop-color:#aa9165"></stop><stop offset=".485" style="stop-opacity:1;stop-color:#aa9165"></stop><stop offset="1" style="stop-opacity:1;stop-color:#6f6345"></stop></linearGradient><linearGradient id="h" x1="289.674" x2="299.305" y1="373.864" y2="373.864" gradientTransform="translate(.5 -.5)" gradientUnits="userSpaceOnUse" spreadMethod="pad"><stop offset="0" style="stop-opacity:1;stop-color:#aa9165"></stop><stop offset=".678" style="stop-opacity:1;stop-color:#aa9165"></stop><stop offset="1" style="stop-opacity:1;stop-color:#6f6345"></stop></linearGradient><linearGradient id="i" x1="178.977" x2="188.614" y1="373.87" y2="373.87" gradientTransform="translate(.5 -.5)" gradientUnits="userSpaceOnUse" spreadMethod="pad"><stop offset="0" style="stop-opacity:1;stop-color:#aa9165"></stop><stop offset=".678" style="stop-opacity:1;stop-color:#aa9165"></stop><stop offset="1" style="stop-opacity:1;stop-color:#6f6345"></stop></linearGradient><linearGradient id="j" x1="68.47" x2="78.107" y1="373.87" y2="373.87" gradientTransform="translate(.5 -.5)" gradientUnits="userSpaceOnUse" spreadMethod="pad"><stop offset="0" style="stop-opacity:1;stop-color:#aa9165"></stop><stop offset=".678" style="stop-opacity:1;stop-color:#aa9165"></stop><stop offset="1" style="stop-opacity:1;stop-color:#6f6345"></stop></linearGradient><linearGradient id="k" x1="400.293" x2="409.927" y1="373.861" y2="373.861" gradientTransform="translate(.5 -.5)" gradientUnits="userSpaceOnUse" spreadMethod="pad"><stop offset="0" style="stop-opacity:1;stop-color:#aa9165"></stop><stop offset=".678" style="stop-opacity:1;stop-color:#aa9165"></stop><stop offset="1" style="stop-opacity:1;stop-color:#6f6345"></stop></linearGradient><linearGradient id="l" x1="510.937" x2="520.574" y1="373.854" y2="373.854" gradientTransform="translate(.5 -.5)" gradientUnits="userSpaceOnUse" spreadMethod="pad"><stop offset="0" style="stop-opacity:1;stop-color:#aa9165"></stop><stop offset=".678" style="stop-opacity:1;stop-color:#aa9165"></stop><stop offset="1" style="stop-opacity:1;stop-color:#6f6345"></stop></linearGradient><linearGradient id="m" x1="117.867" x2="140.283" y1="374.024" y2="374.024" gradientTransform="translate(.5 -.5)" gradientUnits="userSpaceOnUse" spreadMethod="pad"><stop offset="0" style="stop-opacity:1;stop-color:#aa9165"></stop><stop offset=".678" style="stop-opacity:1;stop-color:#aa9165"></stop><stop offset="1" style="stop-opacity:1;stop-color:#6f6345"></stop></linearGradient><linearGradient id="n" x1="443.977" x2="471.324" y1="373.552" y2="373.552" gradientTransform="translate(.5 -.5)" gradientUnits="userSpaceOnUse" spreadMethod="pad"><stop offset="0" style="stop-opacity:1;stop-color:#aa9165"></stop><stop offset=".678" style="stop-opacity:1;stop-color:#aa9165"></stop><stop offset="1" style="stop-opacity:1;stop-color:#6f6345"></stop></linearGradient><linearGradient id="o" x1="336.367" x2="363.552" y1="373.766" y2="373.766" gradientTransform="translate(.5 -.5)" gradientUnits="userSpaceOnUse" spreadMethod="pad"><stop offset="0" style="stop-opacity:1;stop-color:#aa9165"></stop><stop offset=".678" style="stop-opacity:1;stop-color:#aa9165"></stop><stop offset="1" style="stop-opacity:1;stop-color:#6f6345"></stop></linearGradient><linearGradient id="p" x1="222.275" x2="249.461" y1="373.766" y2="373.766" gradientTransform="translate(.5 -.5)" gradientUnits="userSpaceOnUse" spreadMethod="pad"><stop offset="0" style="stop-opacity:1;stop-color:#aa9165"></stop><stop offset=".678" style="stop-opacity:1;stop-color:#aa9165"></stop><stop offset="1" style="stop-opacity:1;stop-color:#6f6345"></stop></linearGradient></defs><path d="M568.378 373.696c0-151.432-122.76-274.19-274.192-274.19S19.994 222.264 19.994 373.696s122.76 274.192 274.192 274.192S568.378 525.13 568.378 373.696" style="fill:url(#a);fill-opacity:1;fill-rule:nonzero;stroke:none" transform="matrix(1.33333 0 0 -1.33333 -.667 1121.853)"></path><path d="M558.756 373.696c0-146.117-118.452-264.569-264.57-264.569S29.616 227.58 29.616 373.697c0 146.117 118.452 264.569 264.57 264.569s264.57-118.452 264.57-264.57m-264.57 271.227c-149.794 0-271.227-121.432-271.227-271.227s121.433-271.224 271.227-271.224S565.413 223.9 565.413 373.696 443.98 644.923 294.186 644.923" style="fill:#fff;fill-opacity:1;fill-rule:nonzero;stroke:none" transform="matrix(1.33333 0 0 -1.33333 -.667 1121.853)"></path><path d="M45.391 419.678C67.015 537.433 170.181 626.66 294.186 626.66c123.827 0 226.874-88.97 248.7-206.473l.082-.462H46.435zM45.41 327.614c21.664-117.705 124.805-206.881 248.776-206.881 123.809 0 226.844 88.945 248.691 206.422l.09.513H45.978z" style="fill:#fff;fill-opacity:1;fill-rule:nonzero;stroke:none" transform="matrix(1.33333 0 0 -1.33333 -.667 1121.853)"></path><path d="M43.495 339.64a255 255 0 0 0-2.273 34.056c0 11.527.77 22.874 2.264 33.992l.554.075h500.813l.051-.215a255 255 0 0 0 2.245-33.852c0-11.375-.75-22.575-2.205-33.553l-.039-.513H44.142z" style="fill:url(#b);fill-opacity:1;fill-rule:nonzero;stroke:none" transform="matrix(1.33333 0 0 -1.33333 -.667 1121.853)"></path><path d="m250.805 751.752 7.48-23.023h24.208L262.91 714.5l7.48-23.022-19.584 14.229-19.584-14.229 7.48 23.022-19.584 14.229h24.209zM337.567 751.752l-7.48-23.023H305.88l19.584-14.229-7.48-23.022 19.584 14.229 19.584-14.229-7.48 23.022 19.584 14.229h-24.208z" style="fill:#8d7a58;fill-opacity:1;fill-rule:nonzero;stroke:none" transform="matrix(1.33333 0 0 -1.33333 -.667 1121.853)"></path><path d="M216.414 175.619c6.544-.002 12.252 2.255 16.502 6.538 4.633 4.667 7.262 11.57 7.212 18.943l.004 47.445c.005 4.051-.054 8.175-.89 10.282-1.073 2.712-2.545 3.285-4.412 4.004l-1.365.55c-1.555.692-2.59 1.633-2.99 2.716-.302.825-.237 1.73.193 2.606.964 2.005 3.608 2.935 8.323 2.935h18.743c4.14 0 6.61-1.917 6.608-3.766-.002-1.905-.777-2.766-4.643-5.088l-.667-.404c-2.752-1.637-4.573-2.727-5.148-5.44-.402-1.871-.374-4.577-.353-6.967l.003-.51-.002-46.264c.028-12.462-3.992-23.374-11.317-30.706-7.271-7.29-17.366-10.983-30-10.988-11.516.006-21.012 3.69-28.225 10.947-7.554 7.603-12.02 18.942-11.945 30.326v46.632l.003.71c.022 3.27.034 4.906-.269 6.48-.568 2.98-2.768 4.257-6.095 6.187-4.01 2.326-4.82 3.18-4.82 5.088 0 1.85 2.567 3.766 6.867 3.766h26.37c5.097 0 7.956-.933 9.004-2.94.439-.838.515-1.73.222-2.573-.41-1.191-1.535-2.236-3.25-3.01l-1.648-.665c-2.597-.976-5.276-1.99-5.83-6.168-.205-1.54-.27-3.11-.29-7.304l-.003-47.46c-.013-8.67 2.224-15.317 6.642-19.739 4.083-4.094 9.96-6.169 17.466-6.163z" style="fill:url(#c);fill-opacity:1;fill-rule:nonzero;stroke:none" transform="matrix(1.33333 0 0 -1.33333 -.667 1121.853)"></path><path d="M340.2 309.186c3.158-.002 4.091 1.238 6.125 3.96l.86 1.143 1.476 1.967c1.111 1.448 2.23 2.166 3.325 2.138 1.141-.03 2.28-.863 3.391-2.477 5.359-7.797 14.706-21.64 17.09-26.728 2.209-4.724 2.78-8.757 1.524-10.793-.484-.782-1.219-1.209-2.124-1.231-2.098-.056-6.741 4.736-11.72 10.077-5.633 6.038-7.482 7.556-10.728 7.556l-43.206.002a.156.156 0 0 1-.157-.152l-.007-136.817c.027-5.603.29-7.69 5.326-10.745 4.68-2.842 6.378-4.814 6.048-7.032-.42-2.824-1.252-3.707-5.644-3.703h-34.666c-4.391 0-5.222.881-5.643 3.704-.328 2.222 1.37 4.191 6.05 7.03 5.035 3.056 5.299 5.143 5.326 10.74l.007 136.824a.147.147 0 0 1-.156.149l-43.207.006c-3.247-.001-5.097-1.52-10.727-7.558-4.98-5.338-9.625-10.13-11.72-10.071-.905.023-1.643.447-2.125 1.229-1.256 2.031-.685 6.07 1.527 10.792 2.381 5.089 11.73 18.93 17.09 26.728 1.115 1.613 2.248 2.447 3.388 2.476 1.095.029 2.217-.69 3.33-2.14l1.497-1.992.838-1.122c2.031-2.718 2.96-3.96 6.127-3.955z" style="fill:url(#d);fill-opacity:1;fill-rule:nonzero;stroke:none" transform="matrix(1.33333 0 0 -1.33333 -.667 1121.853)"></path><path d="m362.172 215.333-.004-38.238a.16.16 0 0 1 .158-.158h34.96c3.867.08 5.004.776 6.298 1.832 2.109 1.712 8.427 8.101 12.666 12.668 4.167 4.486 6.259 6.218 8.4 5.343 2.144-.874 2.464-3.64.894-7.798-1.597-4.233-15.005-26.737-16.95-28.847-.673-.73-1.458-1.101-2.333-1.09-1.244.012-2.357.775-2.99 1.494-1.69 1.917-3.566 2.926-5.578 2.992l-62.292.005c-5.333-.003-6.375 1.053-6.374 2.865 0 1.527 1.502 2.729 4.8 5.359l1.916 1.538c4.717 3.823 6.1 5.746 6.164 11.138l.003 69.923c-.099 4.769-1.855 5.659-5.349 7.425l-.961.49-1.25.63c-2.968 1.475-5.768 2.872-5.77 5.351.003 1.657.782 3.355 6.583 3.38l53.447-.003c1.375-.013 2.023.351 2.782 1.57l.64 1.328c.335.812.678 1.649 1.259 1.926 2.118 1.024 4.078.032 5.825-2.953.68-1.159 11.89-20.696 12.581-22.07.62-1.246.332-2.181-.023-2.758-.605-.982-1.878-1.613-3.232-1.611-2.269 0-4.27 2.398-7.04 5.712l-.527.635c-2.658 3.177-4.979 4.8-6.898 4.812l-31.647.004a.156.156 0 0 1-.155-.153l-.001-.24-.002-27.766v-.487a.153.153 0 0 1 .155-.148l12.655-.004c3.543.066 4.71 1.939 6.32 4.971l1.256 2.544c1.242 2.599 2.222 4.657 4.058 4.99.883.158 1.706-.05 2.369-.607.902-.758 1.446-2.074 1.438-3.537l.003-28.858c0-3.96-1.028-5.8-3.234-5.8-1.456-.001-2.919 1.046-5.363 6.165-2.423 5.088-4.381 6.719-8.05 6.727 0 0-11.605-.065-11.604-.152z" style="fill:url(#e);fill-opacity:1;fill-rule:nonzero;stroke:none" transform="matrix(1.33333 0 0 -1.33333 -.667 1121.853)"></path><path d="M367.919 487.762c-.003-.502-.237-30.773-.244-31.344-.45.315-8.054 5.573-8.054 5.573l-.115.093a.15.15 0 0 1-.13.029.15.15 0 0 1-.106-.086c-3.473-7.277-13.493-24.37-31.546-26.196a87 87 0 0 1-1.016 11.422c12.785 1.389 20.316 15.462 22.96 21.462q.014.03.012.063a.14.14 0 0 1-.063.123l-.16.12s-7.175 4.963-7.58 5.237c.45.236 25.596 13.273 26.042 13.504" style="fill:url(#f);fill-opacity:1;fill-rule:nonzero;stroke:none" transform="matrix(1.33333 0 0 -1.33333 -.667 1121.853)"></path><path d="M280.114 582.318c.059.001.096.05.124.101.006.016.01.038.011.056a.25.25 0 0 1-.04.124 17.05 17.05 0 0 0-3.232 10.045c0 9.488 7.72 17.206 17.204 17.205 9.49 0 17.209-7.718 17.21-17.206a17.1 17.1 0 0 0-3.223-10.031c-.036-.045-.06-.135-.035-.185.028-.053.061-.108.116-.111h14.916c.003-.301 0-17.052 0-17.354h-20.157a.15.15 0 0 1-.11-.046.17.17 0 0 1-.045-.108l.005-.262-.005-81.125c0-.052.072-.122.109-.149 3.682-2.616 6.558-5.04 9.07-7.626 7.922-8.174 13.064-23.481 13.429-39.96l-.81-.01c-2.716-.002-5.308.233-7.729.688-.537 16.782-6.263 28.454-11.008 33.352l-2.7 2.552c-.047.047-.112.006-.17-.018-.055-.028-.087-.127-.084-.189v-.013c.608-11.463 3.88-18.745 10.002-22.258.924-4.022 1.483-8.388 1.657-12.908-5.187 1.351-9.622 3.843-13.176 7.43-3.124 3.155-5.449 6.917-7.095 11.5-.023.06-.09.138-.159.14-.067-.003-.138-.005-.158-.064-1.649-4.617-3.982-8.403-7.124-11.574-5.678-5.733-13.488-8.639-23.209-8.639-20.439.003-31.654 20.158-34.602 26.336a.16.16 0 0 1-.097.081.15.15 0 0 1-.123-.015l-.183-.11-8.016-5.542c-.006.57-.236 30.843-.24 31.343.44-.23 25.592-13.269 26.038-13.506-.401-.273-7.594-5.248-7.594-5.248l-.148-.115a.15.15 0 0 1-.057-.12.2.2 0 0 1 .012-.065c2.858-6.488 11.026-21.57 25.013-21.572 6.642 0 11.568 1.715 15.064 5.242 4.64 4.682 6.845 12.802 6.736 24.826v7.239c0 .053-.094.134-.137.163-4.5 2.951-9.717 6.61-14.304 11.37-8.512 8.83-12.577 26.576-1.379 44.687 4.152 6.715 9.561 15.015 15.645 24.006.034.047.047.133.02.182-.024.049-.067.108-.122.109h-20.028c.004.305.003 17.052.003 17.354zm5.38 10.322c.002-4.79 3.896-8.685 8.687-8.685 4.789 0 8.686 3.896 8.684 8.687.001 4.786-3.894 8.685-8.684 8.682-4.787.003-8.683-3.896-8.686-8.684m-.27-43.49-.075-.099c-.003-.007-8.222-12.865-8.222-12.865-8.801-14.238-6.033-27.757.264-34.29 2.21-2.292 4.831-4.528 8.021-6.844.05-.033.13-.052.182-.027.051.028.106.068.106.127l.001 53.909a.16.16 0 0 1-.107.148.15.15 0 0 1-.171-.058z" style="fill:url(#g);fill-opacity:1;fill-rule:nonzero;stroke:none" transform="matrix(1.33333 0 0 -1.33333 -.667 1121.853)" data-source="https://football-logos.cc"></path><path d="M289.674 373.867a4.82 4.82 0 0 0 4.817 4.814 4.82 4.82 0 0 0 4.814-4.817 4.82 4.82 0 0 0-4.818-4.817 4.82 4.82 0 0 0-4.813 4.82" style="fill:url(#h);fill-opacity:1;fill-rule:nonzero;stroke:none" transform="matrix(1.33333 0 0 -1.33333 -.667 1121.853)"></path><path d="M183.796 369.053a4.823 4.823 0 0 1 4.818 4.817 4.82 4.82 0 0 1-4.817 4.817 4.83 4.83 0 0 1-4.82-4.817 4.824 4.824 0 0 1 4.819-4.817" style="fill:url(#i);fill-opacity:1;fill-rule:nonzero;stroke:none" transform="matrix(1.33333 0 0 -1.33333 -.667 1121.853)"></path><path d="M73.289 369.053a4.823 4.823 0 0 1 4.818 4.817 4.82 4.82 0 0 1-4.817 4.817 4.83 4.83 0 0 1-4.82-4.817 4.824 4.824 0 0 1 4.819-4.817" style="fill:url(#j);fill-opacity:1;fill-rule:nonzero;stroke:none" transform="matrix(1.33333 0 0 -1.33333 -.667 1121.853)"></path><path d="M405.11 369.044a4.82 4.82 0 0 1 4.817 4.816 4.823 4.823 0 0 1-4.813 4.818 4.827 4.827 0 0 1-4.82-4.82 4.823 4.823 0 0 1 4.816-4.814" style="fill:url(#k);fill-opacity:1;fill-rule:nonzero;stroke:none" transform="matrix(1.33333 0 0 -1.33333 -.667 1121.853)"></path><path d="M515.76 369.037a4.823 4.823 0 0 1 4.814 4.817 4.82 4.82 0 0 1-4.816 4.817 4.83 4.83 0 0 1-4.821-4.817 4.824 4.824 0 0 1 4.822-4.817" style="fill:url(#l);fill-opacity:1;fill-rule:nonzero;stroke:none" transform="matrix(1.33333 0 0 -1.33333 -.667 1121.853)"></path><path d="M122.793 387.815c1.683-.152 2.6-1.325 2.605-5.055l-.001-21.477c-.055-4.408-1.983-6.863-6.575-6.885 0-.33 0-.968.003-1.3.308 0 21.147-.005 21.458 0l-.002 1.3c-4.788.073-6.07 2.68-6.062 6.885v33.668c-.226.003-1.792-.05-1.792-.05-15.436-6.81-14.226-6.651-14.56-6.8.1-.188.659-1.038.746-1.203 0 0 2.498 1.07 4.18.917z" style="fill:url(#m);fill-opacity:1;fill-rule:nonzero;stroke:none" transform="matrix(1.33333 0 0 -1.33333 -.667 1121.853)"></path><path d="M464.468 365.54c1.632-3.62.102-7.748-3.16-9.073s-5.658 1.019-9.073 3.415-6.729 2.192-7.748-.867c-1.02-3.058.815-4.18 2.14-4.893s8.462-3.059 14.63-.357 9.94 7.697 9.685 13.814c-.255 6.116-3.211 10.296-8.818 12.794s-11.724 2.243-11.724 2.243l1.375 3.925h16.664c.082.192 2.722 7.572 2.885 7.981-.458-.002-19.593-.002-19.81 0-.078-.21-7.388-20.61-7.537-21.03 12.794 1.274 18.86-4.333 20.491-7.952" style="fill:url(#n);fill-opacity:1;fill-rule:nonzero;stroke:none" transform="matrix(1.33333 0 0 -1.33333 -.667 1121.853)"></path><path d="M344.477 373.39s-5.352 3.772-6.728 7.493c-1.377 3.721-.816 6.983 1.681 9.888 2.498 2.906 4.792 4.13 10.705 4.384s9.38-1.681 11.367-5.148 2.6-9.685-5.148-13.558c0 0 4.69-2.804 6.473-7.8 1.784-4.995.255-10.041-4.077-13.457-4.333-3.415-13.56-4.18-18.912.255s-3.752 10.989-.459 14.476c1.734 1.836 5.098 3.467 5.098 3.467m8.768 5.148s2.293 2.6 1.885 7.595c-.407 4.995-2.14 6.27-4.791 6.27-2.65 0-4.639-1.172-4.333-5.149.306-3.975 3.517-6.524 7.239-8.716m-5.811-7.442s-2.804-3.008-2.753-8.258 2.243-7.594 5.506-7.594c3.261 0 4.332 1.885 4.23 5.861s-1.988 6.423-6.983 9.991" style="fill:url(#o);fill-opacity:1;fill-rule:nonzero;stroke:none" transform="matrix(1.33333 0 0 -1.33333 -.667 1121.853)"></path><path d="M230.386 373.39s-5.352 3.772-6.729 7.493-.816 6.983 1.682 9.888 4.792 4.13 10.704 4.384c5.914.255 9.38-1.681 11.368-5.148s2.6-9.685-5.149-13.558c0 0 4.69-2.804 6.474-7.8 1.785-4.995.255-10.041-4.077-13.457-4.333-3.415-13.56-4.18-18.912.255s-3.753 10.989-.458 14.476c1.732 1.836 5.097 3.467 5.097 3.467m8.767 5.148s2.294 2.6 1.886 7.595-2.141 6.27-4.791 6.27-4.64-1.172-4.333-5.149c.306-3.975 3.517-6.524 7.238-8.716m-5.811-7.442s-2.803-3.008-2.753-8.258c.052-5.25 2.244-7.594 5.506-7.594s4.332 1.885 4.23 5.861-1.988 6.423-6.983 9.991" style="fill:url(#p);fill-opacity:1;fill-rule:nonzero;stroke:none" transform="matrix(1.33333 0 0 -1.33333 -.667 1121.853)" data-source="https://football-logos.cc"></path><!-- source: https://football-logos.cc --></svg>