<svg xmlns="http://www.w3.org/2000/svg" viewBox="0 -0.47 1849.93 1080.32"><!-- Source: https://football-logos.cc --><ellipse cx="924.963" cy="539.692" rx="924.963" ry="540.158" style="fill:#fff;fill-opacity:1;fill-rule:evenodd;stroke-width:7.97655;paint-order:markers stroke fill" data-source="https://football-logos.cc"></ellipse><path fill="#3c4980" d="m1551.832 144.706 5 2 27 15 25 16 15 10 20 14 12 9 14 11 11 9 14 12 13 12 8 8 8 7 12 13 13 14 11 14 10 12 11 16 10 15 14 24 12 24 11 28 9 29 6 29 3 23 1 20v23l-2 25-4 25-7 28-9 27-9 21-11 23-13 22-12 18-10 14-14 18-9 10-9 11-33 33-8 7-14 12-13 11-13 10-19 14-22 15-22 14-20 12-25 14-23 12-31 15-32 14-27 11-38 14-36 12-40 12-54 14-42 9-42 8-53 8-52 6-48 4-63 3h-94l-57-3-47-4-44-5-55-8-49-9-32-7 4-2 54-11 47-12 47-15 27-10 28-11 26-12 34-17 24-14 21-13 17-12 19-14 14-12 11-9 7-7 8-7 9-9 7-8 10-11 8-10 15-20 11-17 15-26 11-23 9-24 7-23 5-22 4-28 1-12v-43l-3-29-7-36-12-44-5-27-1-9v-38l4-24 6-21 9-21 10-18 12-17 9-11 11-12 15-15 22-18 17-11 16-9 24-12 32-13 34-12 41-12 45-11 45-9 44-7 43-5z"></path><path fill="#e53e2e" d="M866.832.706h113l25 1v2l-22 10-26 12-24 13-16 9-37 24-17 13-16 12-14 12-20 18-20 20-14 16-11 14-11 15-12 19-13 23-10 22-10 28-7 27-4 23-2 19v49l4 34 7 34 11 41 4 19 2 16v39l-4 25-7 23-9 21-10 17-10 14-7 9-8 10h-2l-2 4-17 17-11 9-12 10-26 17-26 15-40 20-32 14-30 12-39 14-40 13-52 14-42 9-36 6-36 4-18 1-19-14-14-11-11-9-14-12-16-15-12-11-14-15-9-10-9-11-13-16-13-18-12-19-13-23-12-25-9-23-8-25-6-27-3-20-2-23v-33l2-22 4-25 6-25 10-30 9-21 8-16 10-19 10-16 13-19 12-16 11-13 12-14 16-17 13-13 8-7 14-13 10-8 12-10 16-12 18-13 33-22 28-17 29-16 44-22 27-12 37-15 38-14 42-14 42-12 43-11 41-9 42-8 45-7 48-6 43-4 48-3z" data-source="https://football-logos.cc"></path><path fill="#fdfdfd" d="M192.832 355.706h345v70l-8 1h-242v51h229l4 1v61h-233v54h249l1 1v69l-5 1h-339l-1-1zM1287.832 355.706h345v70l-10 1-240 1v50l233 1v61l-233 1v53h249l1 1v69l-344 1-1-1z" data-source="https://football-logos.cc"></path><!-- source: https://football-logos.cc --></svg>