<svg xmlns="http://www.w3.org/2000/svg" viewBox="150.03 349.72 509.48 645.72"><!-- Source: https://football-logos.cc --><path d="M404.77 995.431c23.683 0 47.68-5.85 63.548-13.747 15.866-7.898 108.487-58.649 125.941-68.156 17.453-9.506 33.495-19.688 47.203-37.734 18.446-24.277 18.05-38.61 18.05-58.208V376.58c0-10.922-.89-14.332-8.332-20.428-7.138-5.85-14.875-6.436-28.758-6.436H187.119c-13.883 0-21.619.585-28.758 6.436-7.441 6.096-8.33 9.506-8.33 20.428v441.006c0 19.598-.398 33.931 18.048 58.208 13.709 18.046 29.75 28.228 47.204 37.734 17.453 9.507 110.074 60.258 125.941 68.156 15.866 7.898 39.865 13.747 63.547 13.747" style="fill:#262b99;fill-opacity:1;fill-rule:nonzero;stroke:none;stroke-width:1.14498" data-source="https://football-logos.cc"></path><path d="M300.117 178.216c.802.763 1.013.868 1.013.18s-.688-1.446-1.411-2.24c-.722-.796-1.193-1.412-.867-1.772.326-.362.65-.145 1.446.144.795.29 1.084.507 1.52.072.432-.434.54-.578.286-.795-.252-.216-.83-.541-1.263-.977-.435-.432.252-.903 2.312-1.228 2.06-.326 4.881-.254 8.713.289 3.833.543 7.953 1.193 11.279 1.338 3.327.144 7.846-.47 8.279-.435.433.036 4.194 1.447 8.784 2.784 4.592 1.338 4.16 1.808 5.894 3.942 1.736 2.13 4.59 4.734 5.314 5.277s1.229.289 1.41.434c.18.143 1.482 1.482 2.314 2.168.832.688.904.579.94-.072s-.434-1.12-1.085-1.843c-.65-.724-.903-1.157-.724-1.192.181-.038.399.252.869.65s.795.398 1.338.253 0-.614-.363-1.05c-.361-.432.543-.18 1.41.109.869.29 1.338.724 2.062.434.723-.288.47-.216-.399-.542-.868-.326-2.167-1.011-3-1.446-.83-.433-.253-.398.94-.398 1.192 0 1.157-.035 1.157-.541 0-.507-.11-.578-.506-.578-.398 0-1.771-.254-3.941-1.05-2.17-.795-3.146-1.59-4.881-2.783-1.734-1.193-3.107-2.279-4.338-2.748-1.228-.47-6.11-2.386-7.518-2.892-1.412-.507-1.266-1.048-1.375-2.06s.506-1.808 1.446-3.795c.941-1.99.687-4.955.724-7.666.036-2.71.65-2.566 2.312-4.157 1.663-1.59 1.918-2.096 3.002-3.904 1.084-1.809 2.277-3.688 2.277-3.688s.326.216.795.65.543.579.94.217c.4-.36.144-.541-.181-1.084-.325-.541.145-.397.651-.072.506.326.687.541 1.12.253.436-.289.617-.362.145-.758-.47-.399-1.192-.833-1.59-1.302-.397-.47.144-.325 1.049.252.903.58 2.023 1.41 2.241 1.482s.65-.65.688-.902c.036-.254-1.121-1.013-1.953-1.664-.831-.65-1.157-.976-1.12-1.158.035-.18.578 0 1.662.688 1.084.686 1.771 1.157 1.988 1.157s.435-.362.397-.65c-.035-.29-1.735-1.411-2.601-2.063-.868-.65-.436-.614.071-.396.506.218 1.952 1.12 2.458 1.409.507.29.796.182.94-.145.145-.325-1.41-1.19-2.312-1.807-.905-.614-1.086-.94-.87-.977.219-.034.833.326 1.88.761 1.05.434 1.303.541 1.303-.073s-.145-.614-1.048-1.084c-.906-.47-1.627-1.013-1.627-1.013.396-.543.721-.543.396-.975a216 216 0 0 1-1.987-2.748c-.724-1.011-.254-1.194.542-2.206.795-1.012 1.965-2.458 1.965-2.458h-12.823s2.218 2.532 3.627 4.013c1.41 1.483 1.447 1.736 1.52 2.82.071 1.084.288 2.242.18 2.604-.109.36-.616 1.191-2.062 3.613-1.445 2.423-1.554 2.677-1.879 2.893-.325.218-3.398.543-6.941 1.12s-4.844 1.266-7.012 2.386c-2.17 1.122-3.687 1.918-4.737 2.64s-1.989 1.735-3.506 2.82c-1.519 1.085-2.388.542-4.484.253s-6.217-1.193-10.085-1.772c-3.869-.578-6.76-1.048-8.605-1.41-1.843-.361-4.338-1.265-6.435-2.06s-3.723-1.302-4.555-1.844c-.832-.543-3.724-2.747-5.423-4.013-1.7-1.265-2.206-1.844-2.206-1.844s.76-.614 1.556-1.192c.795-.58.722-.616.506-1.157-.217-.543-.29-.362-.76-.108-.47.252-1.662 1.01-2.024 1.265-.362.253-.905.144-.687-.073s1.627-1.59 2.458-2.313.76-.76.47-1.013c-.288-.252-.542-.109-.976.29s-2.35 1.989-2.457 1.7c-.109-.291.758-1.41 1.372-2.242.616-.834.542-.977.217-1.266-.324-.29-.433-.218-.83.325-.398.543-1.158 1.446-1.844 2.241-.688.795-.76.795-.904.761-.144-.037-.47-.362-.326-.616.145-.253 1.916-2.168 2.602-2.856.689-.685.543-.903.182-1.265s-.687-.18-.868-.036-1.734 1.627-2.602 2.421c-.868.796-1.122.725-1.05.47.074-.252 1.267-1.409 1.809-1.95.542-.543.686-.724.18-.905-.506-.18-.65-.18-.94.037-.289.218-.758.577-1.229.685-.47.11-.036-.36.29-.722s.144-.577-.254-.831c-.397-.253-.542-.037-1.157.579-.614.614-.686.396-1.048-.29-.361-.688-.253-.542.434-1.482.687-.941 1.94-2.675 1.94-2.675h-12.628s1.071 1.518 2.047 2.747 1.555 1.157 2.061 1.517c.506.362 2.965 2.894 4.917 4.954s5.188 5.37 8.532 8.93c2.784 2.964 4.844 4.88 5.965 5.855 1.121.977 1.446.977 1.41 1.627-.035.65-.614 1.953-.977 3.363-.36 1.41-.47 2.458-.47 4.447s-.289 2.675-.686 4.193-.47 3.036-.832 3.326c-.361.29-2.928.65-3.615.832-.686.18-.361-.579-.253-1.375.109-.793.47-2.024 1.374-3.326.904-1.301 1.048-1.879.722-2.926-.325-1.05-1.192-3.797-1.372-3.942-.181-.144-.797.29-2.858 1.809-2.06 1.516-8.024 5.965-8.566 6.036-.543.073-1.05-.759-2.133-1.916a14778 14778 0 0 1-14.244-15.292c-.398-.433-.832-.217-.58.289.254.507 13.666 18.978 13.666 18.978s0 .327-.434.363-.523.674-.686 1.264c-.18.652-.325.87-1.627 1.591-1.301.724-2.06.797-1.375 1.194.689.398 2.496.58 2.749.903.253.327.289.832-.217 1.736s-1.121 2.423-1.193 2.929-.108 1.192.76.071c.867-1.12 1.517-2.204 1.88-2.53.36-.325.47-.542.867-.072s.506.614-.145 1.338c-.65.723-.94.723-.434 1.193.506.469.76.434 1.013.253.252-.182 1.12-.652.289.18s-1.808 1.88-2.35 2.53c-.542.651-.434.796-.181.976.253.182.397.037 1.156-.685.76-.724 1.663-1.374 1.844-1.446.182-.073.326 0-.325 1.047-.65 1.048-1.446 2.638-1.627 2.82-.18.182.144.325.362.543.217.217.507-.253 1.482-1.518.976-1.266 1.843-2.459 2.205-2.749.362-.289.76-.289.614.183-.144.467-.614 1.589-1.373 2.566-.759.975-.868 1.01-.072 1.336.794.326.723.11 1.049-.577.325-.688.686-1.122.686-.614 0 .505.144.54.615.793.47.254.506-.035.687-.793.18-.761.47-1.16.723-1.16.252 0 .505.472.144 2.351-.362 1.88-.615 2.929-.29 3.254.326.326.869.759 1.158-.325.29-1.084.687-2.784.903-3.327.217-.541.363-.793.543.11.18.902.506 2.965.578 3.65.072.688.361.218.686.036.326-.18.543-.505.399-1.663s-.362-2.819-.253-3c.109-.18.253.615.434 1.194.18.578.469.36.722.507.254.142.11 1.336-.18 2.493-.289 1.157-.325 1.952-.397 2.601-.074.65 0 .58.324.508.326-.073.434-.144.833-1.734.396-1.593 1.12-4.015 1.264-4.556.145-.543.65-.65.506.036s-.47 3.109-.614 4.373c-.144 1.266.216 1.086.579 1.086.36 0 .36-.218.686-1.555.325-1.336.724-2.567.832-3 .109-.435.36-.615.325.722-.037 1.338-.216 2.206.326 2.206s.903.145.867-.905c-.036-1.047 0-2.133.072-2.422s.76-.144.832.037c.072.18.036 1.915-.109 3.361-.144 1.447-.398 2.422.037 2.494.434.075 1.192.146 1.338-.504.144-.652.18-2.748.289-2.893s.325.218.505 1.337c.18 1.122.47 2.315.796 2.387.326.071.868-.362.94-.506s-.253-1.266-.506-2.532c-.254-1.265-.434-1.95-.29-2.06.145-.108.507.76.94 1.663.434.904.614.65.832.47.216-.18.36-.505.071-1.191-.289-.688-.577-1.484-.433-1.665.144-.18.65-.577.759.542.108 1.123.326.832.796.542s.434-.721.434-1.734-.037-1.7.108-1.736c.145-.035.362-.867.759 1.699.398 2.567.614 4.23 1.012 4.556.399.325.9.18.94-.435.072-1.12 0-2.312-.215-3.903-.218-1.591-.543-2.604-.29-2.747.252-.145.469-.796.469.506 0 1.301 0 1.844.073 3.144.073 1.302.252 1.374.47 1.338.216-.036.036-.688.325-1.519.289-.83.398-.651.506.435.108 1.084-.036 1.41.507 1.373s.577-.362.504-1.88c-.07-1.518.146-2.531.218-2.241.073.289 1.23 2.169 1.952 3.182.723 1.012.615.902 1.302.47.687-.434.334-.745-.433-2.279-.94-1.879-2.17-3.724-2.17-4.12 0-.399.289-.724.47-.543.18.18.579.868 1.012 1.627s.614.071.795-.325c.181-.399.181-.541-.036-1.158-.217-.614-.217-1.157.254-.578.47.578.866 1.048 1.048 1.158.18.108.398-.328.614-.435.217-.108.144-.507-.397-1.193-.543-.687-1.157-1.445-1.013-1.736.145-.289.218-.721.94.254.724.977 2.676 3.325 3.146 3.724.47.397.506.071.722-.145.218-.217.254-.47-.577-1.699a47 47 0 0 1-1.845-2.929c-.506-.867-.578-1.084-.252-1.446s.687-.434 1.084-.036c.398.398 1.193 1.158 1.952 1.88" style="fill:#ffe44f;fill-opacity:1;fill-rule:nonzero;stroke:none" transform="matrix(1.33333 0 0 -1.33333 -.667 1121.853)"></path><path d="M307.323 129.772h10.411s-1.169 2.024-1.674 2.965-.723 1.3-.397 1.373c.325.074.758.036 1.265-.506s.687-.326.94-.108.144.361-.219.65c-.359.29-.721.688.11.363.832-.325 1.339-.543 1.662-.254.327.29.507.433-.397.975-.903.543-1.482.615-1.59.94-.11.326.181.47.795.037.615-.434 1.374-.759 2.205-1.373.832-.614.903-.47 1.157.036.253.507-.071.723-.868 1.3-.795.58-2.06 1.23-2.097 1.556-.035.326.036.362 1.338-.362 1.302-.723 2.06-1.228 2.388-1.265.325-.037.36-.217.36.215 0 .436-.36.688-1.302 1.375-.94.688-1.482.869-1.554 1.084-.073.218.29.29 1.446-.396 1.157-.688 2.024-1.229 2.278-.868.252.361.145.471-.903 1.122-1.05.65-2.062 1.192-2.17 1.373-.108.179.216.252 1.084-.073.868-.326 1.771-.65 1.952-.65s.182.36.145.613c-.037.254-.76.615-1.627 1.013-.867.399-1.265.399-.686 1.3.578.904 1.589 2.242 2.024 2.676.433.435 2.928 1.591 4.663 2.749 0 0-2.096 1.048-3.434 1.662s-3.037 1.627-4.229 2.603c-1.194.976-1.773 1.519-1.773 1.519s-.397-1.592-1.12-4.988c-.723-3.399-.975-5.244-1.41-6.4-.433-1.158-1.843-2.712-3.181-4.737s-1.916-3.071-3.254-4.554c-1.338-1.482-2.338-2.965-2.338-2.965zM292.2 142.933c.058.17 1.735-.147 2.892-.254 1.157-.109 1.12.072 1.12.506 0 .433-.108.614-.65.687-.541.071-2.313.397-2.458.614s.469 1.302 1.302 3.036c.83 1.736 1.95 4.086 1.95 4.086-1.047-.073-2.385-.435-3.36-.758-.977-.328-3.869-1.267-3.869-1.267s-.578-2.748-1.772-7.267c-1.192-4.518-2.024-7.88-2.024-7.88-.434-.326-1.013-.434-1.735-1.663s-1.724-3-1.724-3h9.159s-1.217 1.952-1.614 2.784c-.398.83-.471 1.59-.18 1.807.288.216.506.216 1.118-.073.616-.289.797-.216.977.218.18.433.217.361-.036.614-.254.254-.109.18.29.361.396.18.687.398-.074 1.048-.758.652-1.807 1.23-1.554 1.483.254.253.326.289 1.266-.399.94-.685 1.771-1.302 2.025-1.48.252-.18.396.071.722.396s.399.58-.433 1.302c-.832.724-1.953 1.772-1.953 1.88 0 .11.182.29 1.084-.072.904-.362 1.845-.795 2.062-.795s.65.614.397.903c-.254.29-1.879 1.084-1.879 1.084s1.12-.071 1.987-.143c.868-.073.976 0 1.12.289s-.034.397-.794.614c-.76.218-2.711.614-3.037.686-.325.073-.397.435-.325.653M130.228 552.37V263.846c0-18.841 7.537-35.303 17.255-48.591 8.22-11.241 22.214-21.62 50.972-42.443 28.758-20.826 43.832-32.726 43.832-32.726 2.181 24.197-2.579 31.535-7.934 37.882s-19.635 23.602-31.138 37.287-22.214 22.809-22.09 48.59v296.113h-20.032V263.845c-.074-7.537-.321-12.694 1.86-20.428 2.182-7.735 9.124-18.048 18.247-28.362s33.915-37.088 33.915-37.088-19.834 17.056-39.072 35.7-25.585 31.733-25.783 50.178v296.112h-12.694c-5.504 0-7.388-1.488-7.338-7.586M263.381 337.812l66.172-79.223c3.367-3.968 5.653-6.05 15.173-6.05h14.676l1.323.036L250.04 385.041c-2.759 3.187-4.085 4.845-5.176 5.144-1.09.296-2.083-.3-2.039-3.472V252.539h12.694c5.504 0 7.388 1.487 7.338 7.587v78.343zM360.332 559.314l-111.55-131.702c-2.627-2.833-3.917-5.299-5.008-5.002-1.09.3-.992 3.174-.948 8.232v129.115h12.694c5.504 0 7.388-1.488 7.338-7.586v-76.507l.017-.809 66.693 78.742c5.07 5.839 7.026 5.961 14.66 6.16h16.712z" style="fill:#ffe44f;fill-opacity:1;fill-rule:nonzero;stroke:none" transform="matrix(1.33333 0 0 -1.33333 -.667 1121.853)" data-source="https://football-logos.cc"></path><path d="m415.992 304.615-84.974 101.697.647.818 95.293 112.508.073-1.034v-254.76c.122-25.781-10.587-34.906-22.09-48.59s-25.783-30.94-31.138-37.287-10.116-13.685-7.934-37.882c0 0 15.074 11.9 43.831 32.726 28.759 20.824 42.753 31.202 50.972 42.443 9.719 13.288 17.256 29.75 17.256 48.59v288.527c.05 6.098-1.834 7.586-7.338 7.586h-12.694V263.845c-.199-18.445-6.545-31.534-25.784-50.178-19.237-18.644-39.071-35.7-39.071-35.7s24.791 26.774 33.915 37.088 16.065 20.627 18.247 28.362 1.934 12.89 1.86 20.428v296.112l-12.212-.005-129.24-152.586-.761-.98 111.325-133.23.547-.808v31.388z" style="fill:#ffe44f;fill-opacity:1;fill-rule:nonzero;stroke:none" transform="matrix(1.33333 0 0 -1.33333 -.667 1121.853)"></path><path d="M327.147 207.94h8.554s1.786 3.792 3.943 7.511 6.024 9.968 6.024 9.968v6.321h-19.114v-6.396h10.784s-3.05-4.91-5.429-8.778c-2.38-3.866-4.762-8.626-4.762-8.626M269.136 231.74l-6.843-1.933 1.414-5.728 4.016.968V207.94h7.512v23.8zM310.116 222.37v3.346h11.23v6.024H304.02v-12.495l4.387-1.86s1.115 1.265 3.422 1.19c2.304-.074 3.197-1.115 3.197-2.23 0-1.116-.447-2.529-3.197-2.529-2.753 0-4.909 1.86-5.578 2.529l-4.463-5.132s3.57-3.794 10.113-3.719c6.546.074 9.447 3.273 10.265 6.397.82 3.123-.285 5.862-2.306 7.882-1.71 1.711-6.544 2.975-9.743.596M290.854 214.113c1.636 1.338 1.71 3.719 1.71 3.719h-.892c-2.009-2.082-5.504-2.454-9.074-.372s-3.942 7.81-1.041 11.231c2.9 3.421 10.337 4.909 14.725 1.562 4.39-3.347 4.612-10.562 3.05-15.321s-5.207-7.438-11.007-7.438c-5.802 0-8.182 2.825-8.182 2.825l3.347 5.059c2.083-2.083 5.726-2.603 7.364-1.265m-.78 12.57c-1.459 0-2.642-1.316-2.642-2.938s1.183-2.938 2.641-2.938 2.64 1.315 2.64 2.938c0 1.622-1.182 2.938-2.64 2.938" style="fill:#ffe44f;fill-opacity:1;fill-rule:nonzero;stroke:none" transform="matrix(1.33333 0 0 -1.33333 -.667 1121.853)" data-source="https://football-logos.cc"></path><!-- source: https://football-logos.cc --></svg>