<svg xmlns="http://www.w3.org/2000/svg" xml:space="preserve" viewBox="109.48 118.62 579.24 900.1"><!-- Source: https://football-logos.cc --><defs data-source="https://football-logos.cc"><clipPath id="a" clipPathUnits="userSpaceOnUse"><path d="M.5-.5h595.446v841.89H.5Z"></path></clipPath></defs><g clip-path="url(#a)" transform="matrix(1.33333 0 0 -1.33333 -.667 1121.853)" data-source="https://football-logos.cc"><path d="M82.612 752.426v-618.86c0-30.995 25.217-56.212 56.212-56.212H460.83c30.995 0 56.212 25.217 56.212 56.212v618.86z" style="fill:#231f20;fill-opacity:1;fill-rule:nonzero;stroke:none"></path><path d="M491.7 581.546H107.956v145.536h383.742V582.374zM331.186 103.37v452.768l.514.064h47.872l.512-.064V102.65l-.591.049h-48.289zM219.57 103.417v452.721l.514.064h47.745l.64-.064v-453.44h-48.912000000000006zM156.244 102.698h-17.42c-17.02 0-30.868 13.848-30.868 30.868v421.902l-.064.734h48.127l.83-.064v-453.44zM442.805 103.322v452.88h48.255l.638.03V133.566c0-17.02-13.847-30.868-30.868-30.868h-18.026z" style="fill:#fff;fill-opacity:1;fill-rule:nonzero;stroke:none"></path><path d="M128.794 647.584v-58.676h48.692v12.903h-33.332v45.773zM236.485 647.584l26.133-58.676h-17.054l-5.76 13.594H216.55l-5.683-13.594h-16.677l26.133 58.676zm-14.89-32.64h13.175l-6.535 16.12zM282.316 647.584v-12.442h32.466l-35.076-35.148v-11.086h56.985v12.903h-34.917l34.686 34.686v11.087zM361.112 647.584v-58.676h15.36v58.676zM436.452 649.12c21.4 0 34.176-11.542 34.176-30.874s-12.776-30.874-34.176-30.874-34.176 11.542-34.176 30.874 12.776 30.874 34.176 30.874m0-49.306c11.322 0 18.356 7.062 18.356 18.432s-7.034 18.432-18.356 18.432-18.355-7.063-18.355-18.432 7.033-18.432 18.355-18.432M209.844 702.926c0-14.33 14.211-16.323 25.63-17.923 9.188-1.288 14.767-2.358 14.767-6.346 0-5.545-8.11-6.144-11.596-6.144-6.136 0-13.516 1.533-13.826 8.837l-.08 1.838h-16.226l.026-1.945c.129-9.658 5.39-21.171 29.722-21.171 17.697 0 28.261 7.378 28.261 19.737 0 15.144-15.383 17.034-26.616 18.414-8.86 1.089-14.24 2.006-14.24 5.548 0 4.878 6.784 5.606 10.828 5.606 8.308 0 11.6-3.66 11.912-7.085l.158-1.747h16.3l-.193 2.096c-1.135 12.367-11.333 19.178-28.715 19.178-16.595 0-26.112-6.886-26.112-18.893M278.35 676.353v-14.745h15.82v14.745zM307.302 702.926c0-14.33 14.211-16.323 25.63-17.923 9.189-1.288 14.767-2.358 14.767-6.346 0-5.545-8.11-6.144-11.596-6.144-6.136 0-13.516 1.533-13.827 8.837l-.078 1.838h-16.227l.026-1.945c.129-9.658 5.39-21.171 29.721-21.171 17.698 0 28.263 7.378 28.263 19.737 0 15.144-15.384 17.034-26.617 18.414-8.86 1.089-14.24 2.006-14.24 5.548 0 4.878 6.784 5.606 10.828 5.606 8.308 0 11.6-3.66 11.912-7.085l.159-1.747h16.299l-.192 2.096c-1.136 12.367-11.333 19.178-28.715 19.178-16.595 0-26.113-6.886-26.113-18.893M375.808 676.353v-14.745h15.82v14.745z" style="fill:#231f20;fill-opacity:1;fill-rule:nonzero;stroke:none"></path><path d="M510.13 745.514V133.566c0-27.184-22.116-49.3-49.3-49.3H138.824c-27.184 0-49.3 22.116-49.3 49.3v611.948zM498.61 574.57v159.424H101.044V575.53l-.017-.896h396.818zm-.446-11.456h-397.12V133.566c0-20.832 16.949-37.78 37.78-37.78H460.83c20.832 0 37.78 16.948 37.78 37.78V563.05z" style="fill:#998450;fill-opacity:1;fill-rule:nonzero;stroke:none"></path><path d="M163.761 102.698v453.504h48.898v-452.88l-.015-.624h-48.883M275.38 102.65v453.552h48.255l.638-.064V103.226l.019-.528h-48.383zM386.996 102.65v453.488l.64.064h47.808l.45-.064V103.37l-.002-.672h-48.335z" style="fill:#479ada;fill-opacity:1;fill-rule:nonzero;stroke:none"></path><path d="M140.314 643.744V597.97h33.332v-5.223h-41.012v50.996zM233.992 643.744l22.713-50.996h-8.598l-5.76 13.594h-28.354l-5.683-13.594h-8.207l22.712 50.996zm-18.133-32.64h24.61l-12.204 30.112zM332.62 643.744v-5.656l-40.116-40.117h40.347v-5.223h-49.306v5.657l40.495 40.577h-37.883v4.762zM372.632 643.744v-50.996h-7.68v50.996zM406.116 618.246c0 8.128 2.956 27.034 30.336 27.034s30.337-18.906 30.337-27.034-2.956-27.034-30.337-27.034c-27.38 0-30.336 18.906-30.336 27.034m8.14 0c0-13.53 8.713-22.272 22.196-22.272s22.195 8.742 22.195 22.272-8.711 22.272-22.195 22.272-22.195-8.742-22.195-22.272M254.081 678.657c0 7.615-9.188 8.903-18.074 10.148-13.071 1.832-22.323 3.918-22.323 14.121 0 13.098 13.955 15.053 22.272 15.053 14.477 0 22.725-4.574 24.575-13.593h-8.63c-1.242 4.395-5.785 8.831-15.407 8.831-13.24 0-14.67-6.606-14.67-9.446 0-7.195 8.556-8.246 17.614-9.359 13.61-1.672 23.245-3.699 23.245-14.603 0-14.348-17.08-15.897-24.422-15.897-16.033 0-24.684 5.194-25.763 15.437h8.75c1.214-6.79 7.397-10.676 17.397-10.676 9.666 0 15.436 3.733 15.436 9.984M290.33 672.513v-7.065h-8.14v7.065zM351.54 678.657c0 7.615-9.189 8.903-18.075 10.148-13.07 1.832-22.323 3.918-22.323 14.121 0 13.098 13.955 15.053 22.273 15.053 14.477 0 22.725-4.574 24.574-13.593h-8.63c-1.242 4.395-5.785 8.831-15.407 8.831-13.24 0-14.669-6.606-14.669-9.446 0-7.195 8.556-8.246 17.613-9.359 13.61-1.672 23.245-3.699 23.245-14.603 0-14.348-17.079-15.897-24.423-15.897-16.032 0-24.682 5.194-25.761 15.437h8.75c1.213-6.79 7.396-10.676 17.396-10.676 9.666 0 15.436 3.733 15.436 9.984M387.789 672.513v-7.065h-8.141v7.065z" style="fill:#998450;fill-opacity:1;fill-rule:nonzero;stroke:none"></path></g><!-- source: https://football-logos.cc --></svg>