<svg xmlns="http://www.w3.org/2000/svg" viewBox="0 0 329.14 329.14"><!-- Source: https://football-logos.cc --><g transform="translate(0 32.142)" data-source="https://football-logos.cc"><circle cx="164.571" cy="132.429" r="164.571" style="opacity:1;vector-effect:none;fill:#0060af;fill-opacity:1;stroke:none;stroke-width:3.17499971;stroke-linecap:butt;stroke-linejoin:miter;stroke-miterlimit:4;stroke-dasharray:none;stroke-dashoffset:0;stroke-opacity:1;paint-order:fill markers stroke"></circle><path d="M279.93 132.43a115.36 115.36 0 0 1-115.36 115.357A115.36 115.36 0 0 1 49.214 132.43 115.36 115.36 0 0 1 164.57 17.071a115.36 115.36 0 0 1 115.358 115.358" style="opacity:1;vector-effect:none;fill:#fff;fill-opacity:1;stroke:none;stroke-width:3.17499995;stroke-linecap:butt;stroke-linejoin:miter;stroke-miterlimit:4;stroke-dasharray:none;stroke-dashoffset:0;stroke-opacity:1;paint-order:fill markers stroke"></path><path d="M275.696 132.43A111.125 111.125 0 0 0 164.57 21.303 111.125 111.125 0 0 0 53.446 132.43 111.125 111.125 0 0 0 164.57 243.554 111.125 111.125 0 0 0 275.696 132.43" style="opacity:1;vector-effect:none;fill:#0099da;fill-opacity:1;stroke:none;stroke-width:3.17500019;stroke-linecap:butt;stroke-linejoin:miter;stroke-miterlimit:4;stroke-dasharray:none;stroke-dashoffset:0;stroke-opacity:1;paint-order:fill markers stroke"></path><path d="M18.415 103.72c-.836 0-1.331.075-1.331.234 0 .244.375.562.833.707 1.098.348 1.06.653-.415 3.264-2.82 4.998-1.672 10.237 2.709 12.357 2.064.999 3.864 1.055 5.948.185 2.056-.859 3.42-2.207 6.412-6.336 3.536-4.88 5.918-5.89 8.016-3.398 1.73 2.057 1.347 5.202-.928 7.606-1.438 1.52-2.857 2.248-5.473 2.809-1.157.248-2.103.623-2.103.833s.046.394.104.41c1.896.492 9.38 1.385 9.656 1.152.227-.193.098-.645-.313-1.099-.93-1.027-.901-1.243.551-4.313 2.381-5.031 1.4-10.03-2.455-12.506-1.698-1.09-2.213-1.215-4.473-1.082-3.302.196-4.706 1.249-8.485 6.365-1.573 2.128-3.29 4.171-3.815 4.539-1.352.946-3.081.834-4.123-.269-1.334-1.411-.979-4.862.68-6.606 1.472-1.548 3.231-2.52 5.139-2.841 1.977-.333 2.064-1.116.154-1.407-2.559-.39-4.895-.603-6.288-.604M36.441 72.576a12.9 12.9 0 0 0-5.451 1.05c-3.757 1.629-6.371 5.011-7.878 10.193-.865 2.975-.63 5.663.764 8.691 1.355 2.947 2.741 4.475 5.36 5.908 4.017 2.2 7.698 2.561 12.083 1.186 5.166-1.62 9.714-9.333 8.902-15.097-.964-6.844-7.235-11.77-13.78-11.93m-5.117 6.105c2.56-.006 5.782.823 9.455 2.488 4.849 2.197 7.132 4.585 7.132 7.457 0 1.686-1.18 3.829-2.632 4.78-1.444.946-4.651 1.125-7.726.431-3.02-.68-7.49-2.664-9.557-4.24-2.956-2.254-3.826-5.646-2.152-8.39 1.023-1.677 2.92-2.52 5.48-2.526M44.778 41.904q-.099-.011-.115.036c-.075.223.08.808.342 1.3.432.806.177 1.18-2.643 3.875-3.45 3.296-4.57 5.164-5.228 8.723-1.26 6.81 2.957 13.775 9.666 15.969 2.598.85 6.72.501 9.247-.78 2.685-1.363 5.787-4.686 7.205-7.718.898-1.92 1.11-2.976 1.099-5.453-.013-2.699-.132-3.165-.98-3.853-1.382-1.117-1.704-.972-1.262.57 1.17 4.076-.355 8.995-3.414 11.02-5.58 3.69-18.23-3.803-18.27-10.823-.01-1.75.894-4.224 1.985-5.43 1.595-1.764 3.81-2.477 7.043-2.27 2.06.132 3.039.047 3.027-.263-.023-.588-6.725-4.797-7.702-4.903M77.496 43.727c0 .599-2.227 2.386-2.992 2.4-.385.009-3.643-2.657-7.239-5.921s-7.079-6.372-7.739-6.905c-1.958-1.582-2.21-2.402-1.243-4.04 1.752-2.968-.03-1.678-4.475 3.237-2.567 2.84-4.45 5.256-4.25 5.455.199.2.745-.03 1.232-.517 1.75-1.75 1.355-2.005 12.608 8.174 3.13 2.832 5.81 5.458 5.955 5.837.152.398-.103 1.183-.607 1.865-.705.954-.836 1.992-.252 1.992.063 0 2.162-2.279 4.663-5.064h-.001c2.501-2.786 4.515-5.18 4.475-5.322z" style="opacity:1;vector-effect:none;fill:#fff;fill-opacity:1;stroke:none;stroke-width:3.17499995;stroke-linecap:butt;stroke-linejoin:miter;stroke-miterlimit:4;stroke-dasharray:none;stroke-dashoffset:0;stroke-opacity:1;paint-order:fill markers stroke" transform="translate(-.53 -.53)"></path><path d="M78.29 10.611a.25.25 0 0 0-.16.026c-1.275.746-16.466 13.21-16.466 13.51 0 .522.77.396 1.831-.299.542-.355 1.291-.51 1.702-.353 1.042.4 13.966 16.682 13.966 17.595 0 .416-.375 1.096-.833 1.51-.459.416-.834.922-.834 1.127l.135 1.19c-.04-.14 3.934-3.437 8.833-7.326 4.898-3.888 8.915-7.195 8.926-7.35.053-.742-4.316-7.421-4.642-7.096-.213.214-.186.847.064 1.505.882 2.32.536 5.001-.922 7.136-1.663 2.437-4.54 4.601-5.439 4.09-.345-.196-1.964-1.988-3.597-3.983l-2.97-3.626 1.308-.676c1.55-.801 2.855-.572 5.102.898.876.573 1.78.978 2.012.902.47-.157-7.84-10.74-8.433-10.74-.544 0-.44.882.247 2.083.948 1.657.792 4.28-.316 5.32l-.942.884-2.825-3.53c-1.554-1.94-2.92-3.776-3.036-4.077-.123-.32.75-1.29 2.101-2.331 3.064-2.364 5.223-2.667 7.884-1.108 3.178 1.862 3.18 1.252.008-2.674-1.349-1.668-2.263-2.55-2.703-2.607M106.26-5.09c-.436 0-19.648 9.905-20.145 10.386-.49.475 2.663 6.652 3.276 6.417.359-.138.404-.638.157-1.73-.434-1.915-.118-3.334 1.022-4.596.933-1.032 3.128-2.331 3.43-2.03.283.283 9.368 17.894 9.787 18.97.309.795.153 1.19-.876 2.218-.688.688-1.251 1.43-1.251 1.649s2.813-1.026 6.25-2.766 6.249-3.36 6.249-3.6c0-.272-.429-.318-1.146-.123-1.412.384-2.627.346-3.04-.095-.519-.557-10.085-19.32-9.922-19.463.775-.682 3.103-1.489 4.295-1.489 1.116 0 1.891.374 3.164 1.523 2.46 2.223 2.77 1.335.786-2.256-.915-1.658-1.832-3.015-2.036-3.015M119.292-15.493c-.27-.006-.785.284-1.144.644-.499.498-.55.848-.217 1.471.4.747.825.808 4.895.7 2.639-.07 4.424-.285 4.377-.528-.07-.362-6.636-2.26-7.91-2.287m2.655 4.624c-.421-.036-.62 1.29-2.173 13.068-1.671 12.688-1.985 14.177-3.133 14.894-.79.493-1.136 1.564-.503 1.552.172-.003 2.094-.54 4.27-1.194 3.939-1.183 4.764-1.911 2.195-1.937-1.91-.02-2.257-.571-2.113-3.351l.127-2.445 3.541-1.124c1.948-.618 3.924-1.138 4.391-1.156.96-.037 3.942 3.255 3.942 4.352 0 .38-.558.897-1.25 1.158-1.232.464-1.55.892-.937 1.261.536.324 11.901-3.235 12.083-3.784.105-.318-.21-.52-.811-.52-.541 0-1.39-.285-1.885-.632s-4.593-4.985-9.105-10.308-8.36-9.738-8.55-9.812a.3.3 0 0 0-.089-.022m.438 10.105a.15.15 0 0 1 .067.023c.17.105 1.474 1.597 2.896 3.316l2.585 3.126-1.575.434c-.866.239-2.476.71-3.578 1.048-1.863.57-1.989.563-1.805-.103.11-.394.315-1.84.458-3.215.339-3.27.621-4.653.952-4.63" style="opacity:1;vector-effect:none;fill:#fff;fill-opacity:1;stroke:none;stroke-width:3.17499995;stroke-linecap:butt;stroke-linejoin:miter;stroke-miterlimit:4;stroke-dasharray:none;stroke-dashoffset:0;stroke-opacity:1;paint-order:fill markers stroke" transform="translate(-.53 -.53)"></path><path d="M119.292-15.493c-.27-.006-.785.284-1.144.644-.499.498-.55.848-.217 1.471.4.747.825.808 4.895.7 2.639-.07 4.424-.285 4.377-.528-.07-.362-6.636-2.26-7.91-2.287" style="opacity:1;vector-effect:none;fill:#fff;fill-opacity:1;stroke:none;stroke-width:3.17499995;stroke-linecap:butt;stroke-linejoin:miter;stroke-miterlimit:4;stroke-dasharray:none;stroke-dashoffset:0;stroke-opacity:1;paint-order:fill markers stroke" transform="translate(-.53 -.53)"></path><path d="M175.584-16.53c-2.546-.012-3.186.145-4.72 1.158-3.114 2.059-4.223 6.155-2.553 9.43.924 1.81 3.047 3.653 7.196 6.247 3.244 2.03 4.48 3.413 4.48 5.018 0 2.693-3.039 4.343-6.237 3.385-2.077-.622-4.81-3.606-5.447-5.948a383 383 0 0 0-.641-2.331c-.37-1.305-.949-.29-1.187 2.082-.767 7.65-.763 7.393-.12 7.393.338 0 .847-.28 1.133-.624.69-.832 1.032-.797 3.958.408 3.234 1.332 6.004 1.352 8.75.063 2.4-1.127 3.254-1.975 4.15-4.118 1.883-4.506-.086-7.81-7.368-12.364-3.021-1.89-4.907-3.81-4.907-5 0-.409.383-1.23.851-1.826 2.618-3.327 9.026-.185 9.835 4.823.353 2.18 1.227 1.971 1.548-.371.333-2.43.346-6.814.02-6.814-.136 0-.558.378-.938.84-.69.84-.697.84-2.775-.297-1.702-.931-2.622-1.142-5.028-1.154M192.15-14.034c-.756.012-.583.326.752.963 1.03.49 1.496 1.012 1.585 1.774.113.976-3.209 14.382-4.759 19.204-.674 2.098-1.462 2.626-3.248 2.177-.762-.19-1.076-.105-1.076.296 0 .375 1.928 1.078 5.729 2.087 6.14 1.631 6.886 1.764 7.341 1.308.162-.161-.323-.584-1.076-.938-1.664-.782-1.904-2-1.014-5.124.342-1.2.822-2.945 1.066-3.878l.444-1.696 2.953.593c3.483.7 6.033.42 7.919-.867 2.017-1.377 2.968-3.413 2.778-5.952-.32-4.274-2.722-5.93-12.361-8.52-3.55-.953-6.06-1.44-7.032-1.427m9.76 4.245q.082.005.173.015c1.388.142 3.32 2.328 3.316 3.753-.008 3.59-2.195 6.767-4.653 6.756-.762-.003-1.601-.144-1.865-.313-.347-.221-.113-1.686.848-5.304 1.185-4.459 1.359-4.946 2.18-4.907M225.218-2.536c-3.259.036-6.37 1.17-8.69 3.425-3.553 3.452-5.3 9.381-4.084 13.87 1.993 7.365 11.105 11.989 18.61 9.444 2.966-1.006 6.822-4.953 8.068-8.26 1.883-4.996.519-11.138-3.198-14.4-3.132-2.75-7.014-4.12-10.706-4.08m3.746 2.467c1.39-.047 2.728.5 3.92 1.693 2.369 2.367 2.126 6.206-.77 12.187-3.54 7.312-7.95 10.18-11.756 7.646-.779-.518-1.776-1.678-2.216-2.576-.706-1.441-.748-1.945-.351-4.259.247-1.443 1.238-4.254 2.203-6.246 2.592-5.354 5.91-8.34 8.97-8.445M249.088 9.33a.1.1 0 0 0-.035.008c-.211.131-.023.64.418 1.131 1.203 1.339 1.353 2.15.602 3.24-1.621 2.352-13.142 15.85-13.716 16.07-.349.134-1.158-.066-1.798-.444-1.335-.79-1.66-.846-1.66-.293 0 .743 10.05 8.886 10.46 8.476.246-.246.077-.678-.45-1.156-1.47-1.328-1.054-2.574 2.11-6.33 3.946-4.684 4.094-4.524 3.435 3.693-.28 3.507-.52 6.784-.533 7.28-.016.627.904 1.68 2.998 3.429 2.553 2.133 4.062 3.023 4.062 2.396 0-.08-.262-.689-.583-1.354-.482-1.001-.507-2.296-.142-7.526l.441-6.316 1.002.381c2.892 1.1 6.21.019 8.201-2.67 1.286-1.737 1.195-5.473-.184-7.563-1.203-1.822-13.707-12.448-14.628-12.452m7.113 7.655c.65 0 3.34 3.303 3.63 4.458.577 2.3-3.019 6.792-5.432 6.785-.482 0-1.382-.266-2-.588-1.524-.795-3.222-2.054-3.238-2.4-.02-.44 6.645-8.255 7.04-8.255M272.75 29.937a.34.34 0 0 0-.245.072c-2.73 2.098-4.98 4.204-4.801 4.494.118.191.983.076 1.922-.255.94-.331 2.07-.602 2.51-.602 1.242 0 2.96 1.043 3.965 2.409l.913 1.24-8.55 6.922c-4.702 3.808-8.88 6.922-9.285 6.922s-1.075-.375-1.49-.833c-.727-.803-2.09-1.18-1.806-.5.317.762 8.434 10.496 8.752 10.496.19 0 .345-.166.345-.369s-.267-.882-.592-1.509c-.326-.627-.489-1.409-.363-1.737s4.001-3.666 8.611-7.417c7.982-6.494 8.42-6.786 9.155-6.12 2.126 1.922 2.437 4.357.894 6.99-.574.979-.873 1.886-.665 2.015.415.256 5.887-3.959 5.75-4.43-.046-.159-3.353-4.323-7.35-9.252-5.418-6.685-6.99-8.477-7.67-8.536M290.186 52.418a.453.453 0 0 0-.235.596c.1.229.193 1.068.208 1.865l.027 1.45-9.16 5.318c-5.04 2.926-9.484 5.32-9.879 5.32s-1.187-.507-1.761-1.126c-1.53-1.648-1.765-.88-.435 1.42 4.452 7.695 5.713 9.702 6.097 9.702.257 0 .309-.3.125-.729-.698-1.633-.669-2.837.085-3.483 1.043-.892 17.21-10.188 18.318-10.532.673-.21 1.147.03 1.952.986 1.154 1.371 1.533 1.553 1.533.735 0-.919-6.439-11.71-6.875-11.522M299.299 67.653c-.238-.01-.402.382-.473 1.188-.09 1.024-1.894 2.993-9.993 10.905-5.437 5.31-9.76 9.778-9.61 9.93.151.15 5.492.625 11.868 1.055 14.58.984 15.27 1.078 16.462 2.228 1.69 1.631 1.788.449.297-3.59-1.502-4.065-2.248-4.686-2.248-1.871 0 1.468-.142 1.723-1.103 1.983-.606.164-4.438.086-8.516-.174l-7.413-.473 5.868-5.582c3.228-3.07 6.172-5.752 6.543-5.96.519-.29.84-.084 1.398.894.397.7.954 1.272 1.236 1.274.48.003-.168-2.05-3.087-9.786-.5-1.326-.925-2.006-1.23-2.02M283.89 96.956c-.467 0-.557.327-.372 1.353l.768 4.242c.584 3.225 1.399 4.068 1.603 1.657.18-2.124.972-2.524 3.756-1.902l2.251.504.752 4.414c.629 3.69.66 4.476.187 4.793-2.354 1.578-4.207 2.483-4.698 2.295-.319-.123-.71-.816-.87-1.542-.203-.926-.42-1.188-.73-.878s-.167 2.024.478 5.768c1.033 5.997 1.226 6.786 1.655 6.786.166 0 .482-.61.7-1.354.346-1.17 1.907-2.37 11.523-8.85 6.118-4.124 11.131-7.686 11.14-7.915s-5.557-1.788-12.372-3.465-12.894-3.316-13.508-3.643-1.237-.97-1.382-1.429c-.146-.459-.542-.834-.881-.834m9.795 6.356 4.279 1.009c2.353.554 4.334 1.063 4.4 1.13.131.13-4.902 3.54-6.42 4.348-.865.46-.93.371-1.374-1.91-.257-1.317-.56-2.886-.676-3.486z" style="opacity:1;vector-effect:none;fill:#fff;fill-opacity:1;stroke:none;stroke-width:3.17499995;stroke-linecap:butt;stroke-linejoin:miter;stroke-miterlimit:4;stroke-dasharray:none;stroke-dashoffset:0;stroke-opacity:1;paint-order:fill markers stroke" transform="translate(.53 -.53)"></path><path d="M40.74 176.147c-5.287-.016-9.56 2.492-11.917 7.04-1.32 2.546-1.388 2.889-1.246 6.235.185 4.32 1.603 7.785 4.225 10.313 2.1 2.025 4.825 3.475 5.697 3.03a10 10 0 0 1 1.238-.51c.354-.11-.44-.674-1.873-1.33-2.917-1.335-4.155-2.398-5.228-4.488-2.118-4.13-1.157-7.503 3.015-10.574 8.915-6.56 18.502-4.347 18.33 4.233-.041 2.052-.773 3.675-2.588 5.743-.691.786-1.083 1.537-.871 1.669.51.315 8.392-3.354 8.392-3.907 0-.237-.462-.43-1.027-.43-1.31 0-1.725-.837-2-4.037-.61-7.075-6.079-12.49-13.075-12.95a17 17 0 0 0-1.071-.037M66.419 205.778c-.747.037-6.163 1.131-12.593 2.55-6.858 1.514-12.927 2.753-13.486 2.753-.558 0-1.38-.276-1.824-.612-1.01-.764-1.434-.793-1.434-.096 0 .841 4.685 6.955 5.33 6.955.314 0 .504-.14.42-.312s-.405-.816-.715-1.431c-.968-1.928-.103-2.814 3.387-3.469 1.385-.26 1.496-.176 3.715 2.785 1.257 1.679 2.427 3.286 2.598 3.571.424.706-2.25 5.104-3.102 5.104-.37 0-1.01-.375-1.425-.833-.859-.948-1.654-1.111-1.333-.273.51 1.327 7.101 9.852 7.618 9.852.42 0 .474-.248.206-.952-.553-1.454.108-2.875 6.795-14.606 3.376-5.923 6.044-10.864 5.929-10.979q-.011-.01-.086-.007zm-9.225 3.723q.11 0 .137.025c.122.122-3.627 6.734-4.068 7.175-.143.144-1.124-.86-2.18-2.232-1.055-1.37-1.919-2.662-1.919-2.869 0-.32 6.94-2.101 8.03-2.1M73.675 216.759a.1.1 0 0 0-.033.009c-.207.127.013.646.49 1.152 1.665 1.773 1.259 2.497-6.059 10.79-3.805 4.311-7.21 7.952-7.567 8.089s-1.206-.07-1.885-.46c-.68-.391-1.342-.605-1.47-.476-.32.32.662 1.258 9.303 8.891 6.228 5.5 7.613 6.545 8.163 6.156.365-.258 1.928-1.63 3.475-3.051 1.546-1.42 2.696-2.769 2.555-2.997-.154-.25-1.289.073-2.85.812-2.743 1.297-4.767 1.538-6.266.745-1.827-.965-5.285-4.222-5.285-4.977 0-.87 12.598-15.408 14.068-16.234.818-.46 1.114-.404 2.228.42.746.551 1.44.794 1.654.58.434-.435-9.677-9.492-10.52-9.45zM98.595 238.223c-3.801-.063-6.585.99-9.393 3.513-3.095 2.782-4.415 5.76-4.415 9.955 0 2.684.196 3.73 1.009 5.382 2.543 5.165 8.853 8.87 14.159 8.314 1.239-.13 2.461-.316 2.717-.414.58-.223 1.615-1.84 1.348-2.108-.11-.108-.919.003-1.8.247-3.921 1.089-7.626.127-10.022-2.6-2.346-2.673-2.325-6.02.069-11.014 2.565-5.352 5.824-8.012 9.814-8.012 2.522 0 4 .69 5.75 2.68 1.58 1.8 2.296 4.264 1.936 6.665-.455 3.034.452 2.532 2.69-1.486 2.63-4.727 2.667-4.949.673-4.04-1 .455-1.218.327-3.469-2.03-3.31-3.467-6.036-4.798-10.292-5.025a21 21 0 0 0-.774-.027M116.34 246.068c-.888 0-.558.597.738 1.334q1.247.71 1.248 1.689c0 .956-6.04 17.936-7.053 19.829-.423.79-.792.93-2.134.817-3.04-.256-1.679.694 4.07 2.84 5.677 2.119 7.202 2.526 7.197 1.918 0-.172-.567-.634-1.257-1.027s-1.353-.97-1.474-1.285c-.189-.491 5.444-16.74 6.917-19.952.585-1.277 1.35-1.56 3.004-1.115.812.219 1.145.153 1.145-.224 0-.485-11.153-4.824-12.4-4.824M140.161 253.153c-7.287-.012-12.695 5.687-12.719 13.406-.013 4.252.974 6.74 3.796 9.561 3.073 3.072 6.113 4.166 11.049 3.974 2.74-.106 3.734-.344 5.55-1.332 4.203-2.287 6.728-6.465 7.063-11.688.253-3.944-.625-6.575-3.12-9.349-2.938-3.268-6.23-4.563-11.619-4.572m2.037 1.703c.785-.017 1.61.149 2.462.505 3.184 1.33 4.183 5.05 3.11 11.583-1.398 8.516-4.396 12.23-9.024 11.175-3.932-.896-5.51-6.186-3.988-13.366 1.34-6.321 4.036-9.825 7.44-9.897" style="opacity:1;vector-effect:none;fill:#fff;fill-opacity:1;stroke:none;stroke-width:3.17499995;stroke-linecap:butt;stroke-linejoin:miter;stroke-miterlimit:4;stroke-dasharray:none;stroke-dashoffset:0;stroke-opacity:1;paint-order:fill markers stroke" transform="translate(-.53 .53)"></path><path d="M201.488 250.65c-.166 0-5.934 1.117-7.648 1.482-1.282.273-1.186 1.016.132 1.016 1.62 0 2.569.683 3.036 2.184.616 1.976 2.22 10.791 2.003 11.008-.101.101-3.508-2.65-7.57-6.113-4.061-3.464-7.597-6.217-7.857-6.118s-2.3.506-4.534.907c-2.827.508-4.063.905-4.063 1.305 0 .36.46.576 1.227.576 2.594 0 3.048 1.01 5.003 11.121 1.086 5.621 1.678 9.68 1.51 10.352-.178.706-.722 1.273-1.509 1.57-.677.255-1.231.725-1.231 1.042s.234.49.52.381 2.35-.526 4.584-.927c2.436-.437 4.062-.926 4.062-1.222 0-.288-.627-.491-1.512-.491-2.376 0-2.786-.886-4.52-9.752-.855-4.378-1.477-8.038-1.38-8.135.096-.097 4.8 3.676 10.454 8.384 5.653 4.708 10.44 8.46 10.637 8.338s-.646-5.336-1.874-11.587-2.134-11.783-2.013-12.294c.12-.511.779-1.22 1.463-1.573 1.025-.53 1.711-1.455 1.08-1.455M213.705 244.887c-.246.087-.4 2.82-.42 7.498-.019 4.2-.162 10.388-.318 13.751-.259 5.553-.37 6.207-1.22 7.112-.82.872-.867 1.783-.077 1.464.154-.062 1.983-.85 4.066-1.751 3.85-1.666 4.617-2.595 1.737-2.109-1.348.228-1.665.134-2.062-.608-.258-.482-.413-1.817-.344-2.967l.125-2.09 3.89-1.709 3.89-1.71 2.152 2.169 2.15 2.168-.942.778c-.519.428-1.161.85-1.428.94-.267.088-.355.37-.197.625.31.502 11.942-4.329 11.942-4.96 0-.189-.526-.343-1.169-.343-1.566 0-2.297-.584-12.519-9.997-4.85-4.467-9.005-8.184-9.232-8.26a.03.03 0 0 0-.024 0m1.28 9.428 3.271 3.062 3.272 3.06-2.421 1.112c-4.47 2.052-4.123 2.288-4.123-2.79zM242.805 230.306c-1.481-.018-3.152.405-4.777 1.254-3.268 1.71-11.795 7.864-11.795 8.514 0 .515.175.51 1.23-.035.675-.35 1.512-.636 1.858-.636.595 0 4.223 4.847 10.415 13.913 1.51 2.212 2.746 4.19 2.746 4.394 0 .205-.463.923-1.03 1.596-.566.673-.918 1.337-.78 1.474.232.232 7.167-4.348 9.953-6.573 1.328-1.062 1.213-1.83-.164-1.093-1.927 1.031-2.695.596-5.223-2.957-1.333-1.874-2.508-3.627-2.611-3.896s.762-1.213 1.923-2.097c2.95-2.25 4.286-4.32 4.499-6.97.202-2.518-.8-4.383-3.244-6.044-.811-.552-1.848-.831-3-.845zm-3.99 3.868a2 2 0 0 1 .495.048c2.27.57 4.963 4.762 4.525 7.049-.102.534-.697 1.46-1.322 2.06-1.076 1.03-1.17 1.049-1.764.35-1.389-1.631-5.35-7.56-5.35-8.007 0-.62 2.122-1.485 3.416-1.5M264.282 211.653c-1.887-.033-3.776.304-5.343 1.017-2.607 1.186-6.18 4.633-7.633 7.366-.963 1.808-1.11 2.576-1.113 5.83-.003 3.383.118 3.968 1.235 5.985 1.525 2.752 4.74 5.631 7.51 6.727 2.899 1.146 7.57.977 10.333-.374 2.799-1.368 5.957-4.59 7.287-7.435 2.987-6.39-.192-14.6-6.936-17.91-1.565-.768-3.452-1.172-5.34-1.206m-4.826 4.063c1.042.006 2.145.253 3.231.779 2.706 1.31 7.453 5.55 9.29 8.3 2.074 3.105 2.509 5.228 1.505 7.342-1.582 3.334-5.301 4.024-9.479 1.758-5.054-2.74-10.274-9.244-10.27-12.796.004-3.254 2.594-5.4 5.723-5.383M290.41 194.343q-.104-.002-.152.047c-.26.26.08.954.96 1.957 1.584 1.804 2.51 3.812 2.51 5.447 0 1.352-1.835 5.148-3.2 6.621-1.162 1.253-.466 1.56-11.695-5.151-8.52-5.092-8.795-5.37-7.565-7.667.26-.485.299-1.006.09-1.214-.366-.366-7.211 10.656-7.211 11.613 0 .776.427.602 1.324-.539.45-.572 1.189-1.04 1.64-1.04.452 0 4.938 2.449 9.97 5.443 8.303 4.942 9.147 5.547 9.14 6.56-.002.614-.178 1.389-.388 1.722-.53.836-.042 1.476.602.788.288-.308 2.985-4.72 5.992-9.805 3.007-5.084 5.467-9.344 5.467-9.465s-1.627-1.447-3.616-2.947c-2.042-1.54-3.389-2.363-3.868-2.37M281.566 172.03a.2.2 0 0 0-.06.013c-.406.134-5.204 11.523-5.259 12.485-.044.779.856.193 1.44-.937.486-.939.93-1.244 1.782-1.227.624.013 5.447 1.748 10.717 3.855l9.583 3.832-.027 1.985c-.016 1.187.146 1.928.402 1.842.236-.078 1.513-2.838 2.839-6.132 1.326-3.295 2.41-6.14 2.41-6.322 0-.778-.861-.236-1.458.917-.484.936-.931 1.245-1.781 1.23-.625-.01-5.447-1.758-10.718-3.884l-9.582-3.865.069-1.97c.044-1.256-.07-1.843-.357-1.822z" style="opacity:1;vector-effect:none;fill:#fff;fill-opacity:1;stroke:none;stroke-width:3.17499995;stroke-linecap:butt;stroke-linejoin:miter;stroke-miterlimit:4;stroke-dasharray:none;stroke-dashoffset:0;stroke-opacity:1;paint-order:fill markers stroke" transform="translate(.53 .53)"></path><path d="M97.577 64.696v4.485l1.948.435q.539.12 1.08.323t1.099.5 1.145.702q.588.404 1.22.926c.843.696 1.754 1.557 2.77 2.612a88 88 0 0 1 3.394 3.78l4.376 5.119-.096 48.654c-.045 22.432-.08 34.63-.175 41.424-.048 3.397-.11 5.443-.196 6.741-.042.65-.09 1.112-.145 1.463-.056.35-.118.59-.188.794q-.364 1.06-.832 1.982a12 12 0 0 1-1.052 1.71 10.7 10.7 0 0 1-2.83 2.651q-.836.54-1.813.964a16 16 0 0 1-2.1.737q-1.124.314-2.406.52-1.28.21-2.728.318l-3.21.241.103 2.336.104 2.336 22.247.09 22.248.092v-4.853l-2.925-.23a32 32 0 0 1-3.133-.396 22 22 0 0 1-2.742-.668q-1.275-.404-2.367-.952a12.7 12.7 0 0 1-2.007-1.247 11.3 11.3 0 0 1-1.663-1.556 12 12 0 0 1-1.335-1.876 14 14 0 0 1-1.02-2.206q-.434-1.188-.723-2.55c-.088-.416-.167-2.063-.235-4.627a725 725 0 0 1-.174-10.128 2882 2882 0 0 1-.159-29.203c-.009-10.463.025-20.815.106-28.538.04-3.86.093-7.065.156-9.297.032-1.115.067-1.988.105-2.578s.079-.899.123-.885c.122.039 5.158 5.99 13.172 15.548 8.015 9.557 19.01 22.72 31.048 37.183l43.776 52.59h5.161l.006-57.21c.002-17.317.038-31.942.1-42.487.03-5.272.067-9.523.11-12.581s.09-4.92.142-5.416q.172-1.631.467-3.025.297-1.394.733-2.566a12.3 12.3 0 0 1 1.028-2.136 9.7 9.7 0 0 1 1.354-1.737 9.5 9.5 0 0 1 1.709-1.37q.947-.595 2.094-1.03 1.146-.434 2.51-.723a27 27 0 0 1 2.954-.447l2.393-.238v-4.5h-42.191v4.469l3.28.383q1.766.206 3.293.566a19 19 0 0 1 2.825.89q1.3.528 2.386 1.24.543.357 1.036.76a11.5 11.5 0 0 1 1.775 1.82q.396.505.746 1.065.7 1.117 1.227 2.46.526 1.341.893 2.92.367 1.58.588 3.41c.074.61.137 2.03.191 4.05s.098 4.641.132 7.648c.068 6.015.098 13.578.091 20.989-.007 7.41-.05 14.67-.13 20.075-.04 2.703-.09 4.943-.146 6.507-.058 1.564-.123 2.452-.198 2.452-.061 0-1.076-1.149-2.856-3.223a1445 1445 0 0 1-7.444-8.777 6175 6175 0 0 1-24.136-28.852l-33.989-40.852h-21.05z" style="opacity:1;vector-effect:none;fill:#fff;fill-opacity:1;stroke:none;stroke-width:3.17499995;stroke-linecap:butt;stroke-linejoin:miter;stroke-miterlimit:4;stroke-dasharray:none;stroke-dashoffset:0;stroke-opacity:1;paint-order:fill markers stroke"></path></g><!-- source: https://football-logos.cc --></svg>