<svg xmlns="http://www.w3.org/2000/svg" xml:space="preserve" viewBox="29.53 19.45 734.64 755.91"><!-- Source: https://football-logos.cc --><path d="M3335.89 5674.42 5417.2 3984.25c262.68-213.95 314.07-380.24 314.07-666.84v-670.5c0-332.92-70.08-478.33-321.65-679.56L3331.54 277.703c-219.55-180.265-509.46-173.574-719.74-1.64L543.137 1967.35c-249.457 203.96-321.649 346.62-321.649 679.56v670.5c0 286.6 51.391 452.89 314.075 666.84L2626.58 5687.37c206.24 167.99 478.59 174.26 709.31-12.95" style="fill:#255795;fill-opacity:1;fill-rule:evenodd;stroke:none" transform="matrix(.13333 0 0 -.13333 0 794.667)" data-source="https://football-logos.cc"></path><path d="M3232.39 5546.88c-156.33 126.84-343.25 142.5-502.08 13.14L639.285 3856.9c-206.445-168.16-253.543-278.78-253.543-539.49v-670.5c0-277.87 47.039-377.17 261.363-552.41L2715.77 403.211c154.46-126.289 357.37-125.137 512 1.809l2078.99 1690.39c215.95 172.73 260.26 274.81 260.26 551.5v670.5c0 260.71-47.06 371.31-253.41 539.38z" style="fill:#fff;fill-opacity:1;fill-rule:evenodd;stroke:none" transform="matrix(.13333 0 0 -.13333 0 794.667)"></path><path d="m537.84 3428.18 1783.87-.02c201.76 0 174.84-131.3 131.81-202.1-75.14-123.66-210.98-333.33-238.88-412.27-40.51-114.69 46.46-179.45 169.69-68.59 194.39 174.82 307.26 403.73 490.85 589.82 41.78 42.36 121.09 90.76 228.93 90.65l324.77-.37c229.62-.25 343.01-183.22 237.17-331.11-31.12 62.81-101.32 80.01-142.89 77.22-53.43-3.62-98.23-43.28-131.14-92.05-47.8-70.83-138.14-222.79-114.07-304.81 22.46-76.56 92.53-140.95 213.57-60.07 132.61 88.61 199.56 203.79 407.12 496.88 85.8 121.2 234.08 216.73 382.69 216.75l1142.29.07c-67.59-136.54-223.98-185.77-292.45-185.77h-629.83c-26.36 0-78.98-23.3-94.75-66.16h1017.03c-26.4-111.75-192.09-194.1-296.86-194.1h-949.65c-26.36 0-78.99-23.31-94.75-66.15h1341.26c-74.83-169.37-232.07-185.28-292.45-185.28H3916.03c-26.37 0-78.99-23.29-94.75-66.13l1602.34-.02c-52.82-147.16-236.03-194.23-296.89-194.23H834.727c-60.813 0-244.059 47.07-296.887 194.23l1395.39.02c-15.77 42.84-68.39 66.13-94.75 66.13H830.289c-60.383 0-217.613 15.91-292.449 185.28h1430.62c-15.76 42.84-68.39 66.15-94.75 66.15H834.707c-104.773 0-270.465 82.35-296.867 194.1h1397.61c-15.77 42.86-68.4 66.16-94.76 66.16H830.289c-68.469 0-224.859 49.23-292.449 185.77m2718.49-75.5h200.35l-96.88-57.34z" style="fill:#255795;fill-opacity:1;fill-rule:evenodd;stroke:none" transform="matrix(.13333 0 0 -.13333 0 794.667)" data-source="https://football-logos.cc"></path><g style="opacity:1;fill:none;fill-rule:nonzero;stroke:none;stroke-width:0;stroke-linecap:butt;stroke-linejoin:miter;stroke-miterlimit:10;stroke-dasharray:none"><path d="M119.557 67.168c.282-2.352.443-4.741.443-7.168 0-11.97-3.537-23.123-9.601-32.495a1.3 1.3 0 0 0-.338-.526C99.313 10.739 80.891 0 60 0 39.108 0 20.685 10.74 9.937 26.981a1.3 1.3 0 0 0-.334.52C3.539 36.875 0 48.03 0 60c0 2.43.161 4.819.444 7.173-.013.175.01.352.067.522a59.7 59.7 0 0 0 11.401 28.148c.087.194.219.356.381.488 8.358 10.948 20.39 18.937 34.242 22.126.114.046.233.071.357.083A60 60 0 0 0 60 120c4.504 0 8.887-.515 13.11-1.46q.185-.016.355-.083c13.856-3.19 25.892-11.182 34.251-22.137a1.35 1.35 0 0 0 .368-.47A59.7 59.7 0 0 0 119.491 67.7c.057-.172.08-.352.066-.531m-13.376 26.757L82.72 92.656l-7.212-11.235 8.253-25.4 15.285-3.66 17.746 15.427a57 57 0 0 1-10.61 26.137m-68.9-1.269-23.462 1.27a57 57 0 0 1-10.61-26.138L20.956 52.36l15.283 3.66 8.253 25.401Zm70.344-64.539-9.188 21.647-15.428 3.695-21.676-15.75V20.243L80.364 6.416c11.173 4.261 20.687 11.912 27.261 21.701M39.636 6.416l19.03 13.827v17.466L36.99 53.46l-15.426-3.695-9.188-21.648c6.574-9.788 16.088-17.439 27.261-21.7m8.357 109.643-8.472-21.956 7.163-11.159h26.63l7.162 11.16-8.47 21.955A57.3 57.3 0 0 1 60 117.333c-4.119 0-8.133-.445-12.007-1.274" style="opacity:1;fill:#abdde0;fill-opacity:1;fill-rule:nonzero;stroke:none;stroke-width:1.33333;stroke-linecap:butt;stroke-linejoin:miter;stroke-miterlimit:10;stroke-dasharray:none" transform="matrix(.83333 0 0 .83333 347.43 104.775)"></path></g><path d="M313.276 619.795h-16.012q-14.935-.002-20.433-8.843-3.584-5.854-3.583-17.327v-57.474h17.684v56.64q-.001 6.69 3.584 8.721 1.913 1.076 7.528 1.076h11.232zM374.216 619.795h-17.684V589.92h-18.161v-16.728h18.161v-8.125c0-4.301-.993-7.647-2.987-10.036q-2.985-3.586-8.484-3.587-5.493.002-8.482 3.587-2.987 3.585-2.988 10.036v54.727h-17.684v-53.651q0-14.817 8.604-23.42 8.004-8.007 20.55-8.005 12.308-.002 20.434 8.005 8.721 8.603 8.721 23.42zM436.71 619.795h-43.495q-4.42-.001-7.29-1.435-5.018-2.51-5.018-8.96.001-2.872 1.196-5.856.716-1.794 2.628-4.78l28.321-45.884h-28.083v-16.73h35.848q5.974.001 9.082 1.435 5.136 2.39 5.137 8.963-.001 2.51-.596 4.063-.6 1.552-4.063 7.408l-27.365 45.045h33.697zM457.499 619.795h-17.686V536.15H457.5zM547.59 577.972q0 18.044-12.602 30.65-12.607 12.607-30.65 12.606-18.044 0-30.65-12.605-12.606-12.608-12.607-30.651t12.607-30.65q12.606-12.601 30.65-12.603 18.043 0 30.65 12.604 12.604 12.606 12.603 30.649m-17.68 0q0-10.753-7.411-18.401-7.408-7.647-18.162-7.647-10.752 0-18.164 7.528-7.406 7.528-7.406 18.52 0 10.755 7.406 18.403 7.412 7.645 18.164 7.645 10.754 0 18.162-7.525 7.41-7.531 7.41-18.523" style="fill:#255795;fill-opacity:1;fill-rule:nonzero;stroke:none;stroke-width:.133333" transform="translate(-12.989)" data-source="https://football-logos.cc"></path><!-- source: https://football-logos.cc --></svg>