<svg xmlns="http://www.w3.org/2000/svg" xmlns:xlink="http://www.w3.org/1999/xlink" xml:space="preserve" id="Livello_1" x="0" y="0" version="1.1" viewBox="0 0 426.43 426.43"><!-- Source: https://football-logos.cc --><style data-source="https://football-logos.cc">.st0{fill:none}.st1,.st3{stroke-miterlimit:10}.st1{fill:none;stroke:#000;stroke-width:3;stroke-linejoin:round}.st3{fill:#f9b92f;stroke:#a3091c;stroke-width:2.45902}</style><pattern id="New_Pattern" width="42" height="51.381" y="426.426" patternUnits="userSpaceOnUse" style="overflow:visible" viewBox="46.949 -51.381 42 51.381"><path d="M46.949-51.381h42V0h-42z" class="st0"></path><path d="M46.949-51.381h42V0h-42z" class="st0"></path><path d="M85.5-4.993c14.863-8.81 20.376-58.304 48.897-41.394-14.867 8.815-20.37 58.3-48.897 41.394z" class="st1"></path><path d="M64.5-4.993c14.863-8.81 20.376-58.304 48.897-41.394-14.867 8.815-20.37 58.3-48.897 41.394z" class="st1"></path><path d="M43.5-4.993c14.863-8.81 20.376-58.304 48.897-41.394-14.867 8.815-20.37 58.3-48.897 41.394z" class="st1"></path><path d="M22.5-4.993c14.863-8.81 20.376-58.304 48.897-41.394-14.867 8.815-20.37 58.3-48.897 41.394z" class="st1"></path><path d="M1.5-4.993c14.863-8.81 20.376-58.304 48.897-41.394C35.53-37.572 30.027 11.913 1.5-4.993z" class="st1"></path></pattern><path d="M213.213.615C95.798.615.615 95.798.615 213.213s95.183 212.599 212.598 212.599 212.599-95.184 212.599-212.599S330.628.615 213.213.615z" style="fill:#a4091e;stroke:#600;stroke-width:1.22951;stroke-miterlimit:10"></path><path d="M336.22 315.156c-9.073-41.734-31.275-80.162-44.157-99.961-9.15 5.242-18.48 8.039-26.187 9.517 10.593 15.665 34.921 54.831 43.912 96.19.857 3.943 27.289-1.804 26.432-5.746z" class="st3"></path><path d="M269.602 67.32c-27.223-9.484-54.07-9.593-55.198-9.593v.005c7.447.05 13.524 6.06 13.524 13.52v14.445c8.791.978 20.803 2.996 32.774 7.167 28.043 9.77 41.674 25.836 41.674 49.113 0 19.067-5.049 33.61-15.007 43.225-15.243 14.716-37.87 14.092-38.025 14.095q-.31-.014-.621-.014h-20.795v27.049h20.58c.287.008.706.016 1.247.016 2.764 0 8.687-.21 16.121-1.636 7.706-1.478 17.036-4.275 26.187-9.517 4.741-2.717 9.433-6.082 13.82-10.272 15.622-14.919 23.542-36.096 23.542-62.946 0-35.205-20.687-61.02-59.823-74.656z" class="st3"></path><path d="M213.213 37.185c47.02 0 91.224 18.31 124.471 51.557s51.558 77.452 51.558 124.471-18.31 91.224-51.558 124.471c-33.247 33.248-77.452 51.558-124.47 51.558s-91.224-18.31-124.472-51.558c-33.247-33.247-51.557-77.452-51.557-124.47s18.31-91.224 51.557-124.472 77.452-51.557 124.471-51.557m0-25.82c-111.478 0-201.848 90.37-201.848 201.848s90.37 201.848 201.848 201.848 201.848-90.37 201.848-201.848-90.37-201.848-201.848-201.848z" style="fill:#f9b92f;stroke:#a3091c;stroke-width:1.22951;stroke-miterlimit:10" data-source="https://football-logos.cc"></path><path d="M252.531 122.929h-69.419c-17.163 0-30.825 8.806-37.48 24.16-6.844 15.785-5.537 35.755.19 52.194h29.544c-6.495-10.718-9.96-29.802-4.917-41.436 2.39-5.515 6.178-7.869 12.663-7.869h69.419c7.47 0 13.525-6.055 13.525-13.524S260 122.929 252.53 122.929z" class="st3"></path><path d="M214.404 57.732c-.035 0-.069-.005-.103-.005-37.914.035-72.83 19.451-95.809 53.283-17.239 25.38-27.249 57.785-28.948 93.71-1.618 34.192 4.09 70.305 16.982 107.563 2.982 8.618 12.55 13.016 21.027 9.654l3.548-1.407a6.947 6.947 0 0 0 3.947-8.888c-10.974-29.38-17.088-58.305-18.387-85.31h84.218v-27.049h-83.842c2.198-27.909 10.14-52.917 23.832-73.076 15.3-22.526 36.263-36.52 60.01-40.355v37.077h27.05V71.252c0-7.46-6.078-13.47-13.525-13.52z" class="st3"></path><path d="M227.928 226.332v-76.354H200.88v76.35400000000001l27.05 16.278zM200.88 256.374v53.082c0 7.47 6.054 13.524 13.524 13.524s13.524-6.055 13.524-13.524v-34.628z" class="st3"></path><path d="M271.955 275.955c-24.463-23.479-71.076-49.623-71.076-49.623h-37.79c12.1 13.955 81.633 59.526 90.464 69.448 4.02 4.517 6.433 17.615 2.273 28.213-4.014 10.223-10.447 10.223-12.56 10.223h-83.36c-7.47 0-13.525 6.056-13.525 13.525s6.055 13.525 13.524 13.525h83.36c16.899 0 31.007-10.239 37.74-27.388 8.123-20.693 4.024-45.374-9.05-57.923z" class="st3"></path><pattern xlink:href="#New_Pattern" id="SVGID_1_" patternTransform="matrix(1 0 0 -1 -131.376 -16921.078)" data-source="https://football-logos.cc"></pattern><!-- source: https://football-logos.cc --></svg>