<svg xmlns="http://www.w3.org/2000/svg" data-name="Group 14" viewBox="0 0 84.13 102.94"><!-- Source: https://football-logos.cc --><defs data-source="https://football-logos.cc"><clipPath id="a"><path fill="none" d="M0 0h84.129v102.942H0z" data-name="Rectangle 23"></path></clipPath></defs><path fill="#e23613" d="M34.385 57.777h.094l-.047-.088Z" data-name="Path 26"></path><path fill="#e2370e" d="M0 95.056h14.455l11.509-21.528H61.8l-8.419-15.747h-19l.047-.088L27.2 44.169Z" data-name="Path 27"></path><path fill="#e2370e" d="m45.787 9.411-7.983 14.932 32.567 60.918 4.334-21.756Z" data-name="Path 28" data-source="https://football-logos.cc"></path><path fill="#fff" d="m71.746 87.835 8.038 15.107 4.344-21.806-8.048-15.053Z" data-name="Path 29"></path><g data-name="Group 13" data-source="https://football-logos.cc"><g clip-path="url(#a)" data-name="Group 12"><path fill="#002d76" d="m72.233 55.166-.124-.233.116.246z" data-name="Path 30"></path><path fill="#fff" d="M80.174 0c.008 0-14.04 14.078-20.83 19.658-.269.221-8.479-5.831-9.687-6.724l9.907 18.539c5.76-5.162 12.868-11.673 18.621-16.731C81.295 12.007 82.614 4.694 80.171 0" data-name="Path 31"></path><path fill="#fff" d="M77.109 21.612c-4.731 4.17-10.653 9.533-15.451 13.77l4.309 8.061c3.115-2.518 6.941-5.708 9.755-8.386 3.318-3.158 3.835-9.568 1.387-13.446" data-name="Path 32"></path><path fill="#fff" d="M72.575 43.913c-1.369 1.087-3.207 2.148-4.549 3.267l3.461 6.432.622 1.321.125.233c2.16-3.262 2.6-8.417.341-11.252" data-name="Path 33"></path></g></g><!-- source: https://football-logos.cc --></svg>