<svg xmlns="http://www.w3.org/2000/svg" xml:space="preserve" viewBox="0.12 0.13 720.75 720.75"><!-- Source: https://football-logos.cc --><path d="M270.874 539.875C121.996 539.875.875 418.753.875 269.874S121.996-.125 270.875-.125c148.878 0 270 121.12 270 269.999s-121.122 270.001-270 270.001z" style="fill:#fff;fill-opacity:1;fill-rule:nonzero;stroke:#000;stroke-width:.75;stroke-miterlimit:4;stroke-dasharray:none" transform="matrix(1.33333 0 0 -1.33333 -.667 720.333)" data-source="https://football-logos.cc"></path><path d="M270.874 524.875c-140.607 0-254.999-114.394-254.999-255.003 0-140.606 114.392-254.997 254.999-254.997 140.605 0 255.001 114.391 255.001 254.997 0 140.609-114.396 255.003-255.001 255.003" style="fill:#519cdb;fill-opacity:1;fill-rule:nonzero;stroke:none;stroke-width:.99999994" transform="matrix(1.33333 0 0 -1.33333 -.667 720.333)"></path><path d="M270.874 509.875c-132.336 0-239.999-107.665-239.999-240.002S138.538 29.875 270.874 29.875c132.335 0 240.001 107.662 240.001 239.998 0 132.337-107.666 240.002-240.001 240.002" style="fill:#fff;fill-opacity:.98039216;fill-rule:nonzero;stroke:none;stroke-width:.99999988" transform="matrix(1.33333 0 0 -1.33333 -.667 720.333)" data-source="https://football-logos.cc"></path><path d="M270.874 494.875c-124.065 0-224.999-100.936-224.999-225.002 0-124.065 100.934-224.998 224.999-224.998 124.064 0 225.001 100.933 225.001 224.998 0 124.066-100.937 225.002-225.001 225.002" style="fill:#519cdb;fill-opacity:1;fill-rule:nonzero;stroke:none;stroke-width:1" transform="matrix(1.33333 0 0 -1.33333 -.667 720.333)"></path><path d="M190.117 434.871a37 37 0 0 1-2.03-.077h-25.509c-2.078 0-3.75-1.966-3.75-4.045v-256.23c0-53.353-26.703-52.737-26.703-52.737v-16.907H238.88v16.907s-28.52 2.488-28.52 52.737v130.57l49.171-100.106 24.586-50.053 12.293-25.028 6.147-12.514c4.588-9.34 7.714-12.513 15.295-12.513h60.77a3.743 3.743 0 0 1 3.75 3.753v264.853c0 47.91 27.253 42.1 27.253 42.1v18.921H303.191v-18.92s25.307 2.553 25.307-42.101V207.993L273.52 321.248l-27.488 56.627-13.743 28.313c-9.854 20.298-13.959 28.683-36.566 28.606-1.754-.006-3.62.102-5.607.077" style="fill:#fff;stroke:none;stroke-width:1.32978857;stroke-linecap:round;stroke-linejoin:round;stroke-miterlimit:10" transform="matrix(1.33333 0 0 -1.33333 -.667 720.333)" data-source="https://football-logos.cc"></path><!-- source: https://football-logos.cc --></svg>