<svg xmlns="http://www.w3.org/2000/svg" xml:space="preserve" viewBox="0 0 132.15 178.11"><!-- Source: https://football-logos.cc --><defs data-source="https://football-logos.cc"><clipPath id="a" clipPathUnits="userSpaceOnUse"><path d="M0 600h800V0H0Z"></path></clipPath></defs><g clip-path="url(#a)" transform="matrix(.52231 0 0 -.52231 -142.85 245.747)" data-source="https://football-logos.cc"><path d="M0 0s-26.187-1.51-63.991 15.034c-37.8 16.547-54.532 37.962-54.532 37.962s-16.732-21.415-54.534-37.962C-210.855-1.51-237.042 0-237.042 0s-9.427-29.913-7.791-73.065c5.643-155.934 126.31-214.94 126.31-214.94S2.15-228.999 7.794-73.065C9.424-29.913 0 0 0 0" style="fill:#fb0a06;fill-opacity:1;fill-rule:nonzero;stroke:none" transform="translate(518.52 417.505)"></path><path d="M0 0c-.73-2.886-1.708-7.144-2.689-12.571-1.962-10.853-3.93-26.38-3.93-44.942 0-3.222.057-6.534.188-9.937 2.714-74.575 31.971-126.446 61.443-160.316 26.967-30.974 54.153-46.75 61.061-50.47.821.443 1.929 1.056 3.288 1.843 3.227 1.87 7.872 4.725 13.476 8.641 11.207 7.834 26.246 19.904 41.452 36.768 30.41 33.759 61.495 86.554 64.298 163.539.128 3.385.185 6.687.185 9.899.004 29.822-5.081 51.812-7.044 59.19-8.119.122-31.583 1.786-62.65 15.38-29.563 12.944-46.565 28.835-53.003 35.693-6.44-6.858-23.443-22.749-53.009-35.693C32.007 3.431 8.543 1.767.426 1.644Q.231.915 0 0" style="fill:#fff;fill-opacity:1;fill-rule:nonzero;stroke:none" transform="translate(283.923 412.027)"></path><path d="M0 0c-1.928-10.666-3.87-25.972-3.87-44.265 0-3.176.057-6.439.186-9.798 2.696-73.625 31.486-124.572 60.51-157.955 24.574-28.232 49.377-43.656 58.189-48.621q.636.358 1.381.789c3.142 1.821 7.697 4.62 13.204 8.469 11.012 7.695 25.831 19.586 40.803 36.194 29.951 33.279 60.538 85.128 63.324 161.133.123 3.305.18 6.531.181 9.668l-.001.119c.001 26.276-4.013 46.387-6.22 55.445-10.345.489-32.663 3.123-61.193 15.607-26.628 11.659-43.321 25.693-51.476 33.735-8.157-8.042-24.853-22.077-51.483-33.735C35.012 14.301 12.696 11.668 2.352 11.179 1.68 8.429.842 4.656 0 0" style="fill:#fb0a06;fill-opacity:1;fill-rule:nonzero;stroke:none" transform="translate(284.98 398.78)"></path><path d="M0 0v-15.416C0-24.961 3.745-29.62 11.148-29.62c4.047 0 8.09 2.062 11.832 6.264l2.058 2.288-.379-8.552a174 174 0 0 0 15.649 3.438v2.519c-4.122.455-4.963 1.908-4.963 5.727V11.68a262 262 0 0 0-16.107-3.433V5.725c4.199-.453 5.036-1.908 5.036-5.725v-16.18c-2.515-3.822-5.493-5.725-8.315-5.725-3.361 0-4.811 2.135-4.811 6.717V11.68A263 263 0 0 0-4.964 8.247V5.725C-.764 5.272 0 3.817 0 0" style="fill:#fff;fill-opacity:1;fill-rule:nonzero;stroke:none" transform="translate(320.535 365.612)"></path><path d="M0 0a2.86 2.86 0 0 1 2.881-2.875A2.86 2.86 0 0 1 5.756 0a2.86 2.86 0 0 1-2.875 2.881A2.86 2.86 0 0 1 0 0" style="fill:#fff;fill-opacity:1;fill-rule:nonzero;stroke:none" transform="translate(363.548 339.763)"></path><path d="M0 0c0-5.873 3.051-9.313 9.463-11.678l6.876-2.519c3.351-1.221 4.959-2.976 4.959-5.341 0-3.129-2.367-5.273-6.187-5.273-5.114 0-9.923 3.288-11.976 8.706H.149L.53-28.699h2.825c.305 1.294.999 1.985 1.984 1.985 1.611 0 4.968-2.519 10.841-2.519 8.933 0 14.652 5.341 14.652 12.974 0 6.032-3.272 9.622-10.148 11.987l-6.563 2.216C10.607-.834 8.93.539 8.93 3.135c0 3.047 2.286 5.114 6.11 5.114 4.65 0 8.778-2.981 10.303-8.094h3.052l-.456 11.83h-2.752c-.229-1.221-.833-1.833-1.907-1.833-1.602 0-4.738 2.294-10.076 2.294C5.723 12.446 0 6.946 0 0" style="fill:#fff;fill-opacity:1;fill-rule:nonzero;stroke:none" transform="translate(445.354 365.018)"></path><path d="M0 0a2.86 2.86 0 0 1-2.879-2.875A2.866 2.866 0 0 1 0-5.754a2.867 2.867 0 0 1 2.88 2.879A2.86 2.86 0 0 1 0 0" style="fill:#fff;fill-opacity:1;fill-rule:nonzero;stroke:none" transform="translate(481.547 342.585)"></path><path d="M358.283 186.456h6.644v34.1h-6.644z" style="fill:#fff;fill-opacity:1;fill-rule:nonzero;stroke:none"></path><path d="M0 0q0-2.252-.457-2.662c-.307-.27-.841-.416-1.601-.416v7.587q1.178.002 1.615-.508Q0 3.492 0 1.877Zm5.423-4.311c.492.915.746 2.7.746 5.348 0 2.915-.353 5.026-1.055 6.351-.704 1.325-1.61 2.155-2.722 2.472q-1.667.492-6.379.492h-4.712v-34.096h6.641v15.377q1.403.002 1.729-.659c.221-.429.329-1.559.329-3.382v-11.336h6.169v8.99c0 2.752-.06 4.434-.172 5.043q-.161.915-.846 2.01c-.452.732-1.333 1.311-2.649 1.748 1.45.185 2.422.729 2.921 1.642" style="fill:#fff;fill-opacity:1;fill-rule:nonzero;stroke:none" transform="translate(344.898 224.932)"></path><path d="M0 0h3.948v-27.255h6.646V0h3.948v6.845H0Z" style="fill:#fff;fill-opacity:1;fill-rule:nonzero;stroke:none" transform="translate(318.007 244.401)"></path><path d="m0 0-3.727 15.359h-5.586v-34.095h5.551V-3.24l3.471-15.496h5.842v34.095H0Z" style="fill:#fff;fill-opacity:1;fill-rule:nonzero;stroke:none" transform="translate(451.315 219.924)"></path><path d="M429.385 186.456h6.642v34.1h-6.642z" style="fill:#fff;fill-opacity:1;fill-rule:nonzero;stroke:none"></path><path d="M0 0c.177 3.025.592 7.809 1.254 14.334C1.611 8.646 1.951 3.869 2.261 0Zm-3.833 21.93-3.387-34.1h6.876l.37 6.129h2.421l.37-6.129h6.784l-3.812 34.1z" style="fill:#fff;fill-opacity:1;fill-rule:nonzero;stroke:none" transform="translate(468.651 229.316)"></path><path d="M0 0h3.948v-27.26h6.642V0h3.947v6.84H0Z" style="fill:#fff;fill-opacity:1;fill-rule:nonzero;stroke:none" transform="translate(408.365 205.793)"></path><path d="M0 0c-1.027.809-1.652 1.516-1.873 2.08q-.348.862-.349 2.57c0 .883.1 1.546.303 1.975.206.437.503.657.9.657.363 0 .626-.159.778-.485.154-.327.236-1.078.236-2.252V2.02h6.164v1.341c0 2.711-.194 4.632-.591 5.767-.397 1.126-1.202 2.071-2.412 2.813q-1.82 1.116-4.406 1.118-2.357.002-4.032-1.026a5.9 5.9 0 0 1-2.42-2.826c-.501-1.214-.746-3.125-.746-5.73 0-1.811.172-3.299.526-4.461.346-1.166.79-2.084 1.324-2.743q.806-.986 3.272-3.183C-1.683-8.359-.651-9.383-.232-9.998q.611-.934.611-3.943 0-1.37-.322-2.067c-.212-.467-.536-.693-.976-.693s-.742.185-.918.549c-.173.365-.252 1.187-.252 2.463v4.148h-6.169v-2.236q0-3.83.583-5.916c.393-1.397 1.212-2.536 2.468-3.436 1.259-.9 2.773-1.351 4.551-1.351q2.427 0 4.254 1.166 1.829 1.178 2.464 2.9c.424 1.152.636 2.937.636 5.365q0 5.016-1.139 7.274Q4.406-3.531 0 0" style="fill:#fff;fill-opacity:1;fill-rule:nonzero;stroke:none" transform="translate(399.22 183.475)"></path><path d="M0 0h4.173v6.492H0v6.451h4.458v6.84H-6.648v-34.099H4.91v6.845H0Z" style="fill:#fff;fill-opacity:1;fill-rule:nonzero;stroke:none" transform="translate(379.813 192.85)"></path><path d="M0 0h8.396c1.767 1.736 6.412 27.536 27.617 27.968C58.208 27.145 54.105-.178 54.667 0c.564.186 7.47 8.223 6.235 21.991-.729 6.706-6.899 20.203-22.937 20.203-15.932 0-27.846-20.203-27.846-20.203s-.16-.358-1.537.208c0 1.638-.186 2.596-.186 2.596s.945 14.515 5.918 27.966c-3.957 32.985-10.117 62.404-10.117 62.404S-1.961 85.746-5.922 52.761C-.935 39.31 0 24.795 0 24.795s-.19-.958-.19-2.596c-1.369-.566-1.528-.208-1.528-.208s-11.923 20.203-27.844 20.203c-16.046 0-22.217-13.497-22.941-20.203C-53.738 8.223-46.833.186-46.272 0c.564-.178-3.544 27.145 18.652 27.968C-6.417 27.536-1.758 1.736 0 0" style="fill:#fff;fill-opacity:1;fill-rule:nonzero;stroke:none" transform="translate(395.8 284.176)"></path><path d="M0 0h12.765l-2.229 36.647H2.234Z" style="fill:#fff;fill-opacity:1;fill-rule:nonzero;stroke:none" transform="translate(393.616 232.92)"></path><path d="M0 0c0 2.451-3.48 4.437-7.772 4.437S-15.54 2.451-15.54 0s3.476-4.442 7.768-4.442S0-2.451 0 0" style="fill:#fff;fill-opacity:1;fill-rule:nonzero;stroke:none" transform="translate(407.769 277.305)"></path><path d="M409.604 229.405h-19.209v-8.96h19.209z" style="fill:#fff;fill-opacity:1;fill-rule:nonzero;stroke:none"></path><path d="M0 0c-.411-1.239.834-2.162.834-2.162l46.994-14.294L2.106.868S.406 1.212 0 0" style="fill:#fff;fill-opacity:1;fill-rule:nonzero;stroke:none" transform="translate(416.305 409.972)"></path><path d="M0 0c-.456-.19-.319-1.166-.319-1.166l9.032-14.57L1.333-.492S.645.267 0 0" style="fill:#fff;fill-opacity:1;fill-rule:nonzero;stroke:none" transform="translate(414.57 389.563)"></path><path d="M0 0s-1.215.713-1.719-.033c-.503-.768.168-1.821.168-1.821l24.372-19.219z" style="fill:#fff;fill-opacity:1;fill-rule:nonzero;stroke:none" transform="translate(419.688 402.541)"></path><path d="M0 0c.411-1.239-.834-2.162-.834-2.162l-46.995-14.294L-2.106.868S-.406 1.212 0 0" style="fill:#fff;fill-opacity:1;fill-rule:nonzero;stroke:none" transform="translate(383.693 409.972)"></path><path d="M0 0c.455-.19.318-1.166.318-1.166l-9.031-14.57L-1.334-.492S-.645.267 0 0" style="fill:#fff;fill-opacity:1;fill-rule:nonzero;stroke:none" transform="translate(385.429 389.563)"></path><path d="M0 0s1.214.713 1.718-.033c.503-.768-.168-1.821-.168-1.821l-24.372-19.219z" style="fill:#fff;fill-opacity:1;fill-rule:nonzero;stroke:none" transform="translate(380.31 402.541)"></path><path d="m0 0-20.591-.004-6.368 19.553-6.368-19.553L-53.918 0l16.643-12.113-6.394-19.651 16.696 12.158.014-.01.013.01 16.697-12.158-6.395 19.651z" style="fill:#fff;fill-opacity:1;fill-rule:nonzero;stroke:none" transform="translate(426.958 423.612)"></path></g><!-- source: https://football-logos.cc --></svg>