<svg xmlns="http://www.w3.org/2000/svg" viewBox="6.24 5.03 433.63 543.19"><!-- Source: https://football-logos.cc --><g fill="none" stroke-width="2" data-source="https://football-logos.cc"><path stroke="#8080b3" d="M121.6 29.49Q96.88 24.5 72.53 16a.63.63-65.4 0 0-.75.28Q49.64 54.3 35.6 95.74q-3.26 9.62-5.87 19.12-18.36 66.77-12.67 135.94.83 10.16 2.28 19.86 4.7 31.43 15.16 64.84 13.74 43.91 35.86 80.46 53.5 88.41 151.33 122.77a4.31 4.26 44.7 0 0 2.87 0q107.64-38.19 160.88-139.1 11.04-20.91 19.87-45.07 16.91-46.24 22.85-93.82 1.86-14.91 2.09-38.24.59-60.66-16.2-115.81-14.72-48.32-40.67-92.06a.57.56-27.8 0 0-.73-.22q-11.91 5.59-24.37 8.48-16.44 3.81-32.97 7.16-10.97 2.23-19.67 3.57-87.25 13.42-174.04-4.13"></path><path stroke="#8080b3" d="M357.71 42q-32.6 10.29-66.14 15.19"></path><path stroke="#ff8083" d="m291.57 57.19-26.07 2.85"></path><path stroke="#f7858f" d="m265.5 60.04-13.04 1.21"></path><path stroke="#e3b4bc" d="M252.46 61.25q-7.01-.32-13.96.46"></path><path stroke="#f7858f" d="m238.5 61.71-3.75.25"></path><path stroke="#ff8083" d="m234.75 61.96-11.93.32"></path><path stroke="#8080b3" d="M222.82 62.28q-35.02.23-69.57-4.24"></path><path stroke="#ff8083" d="M153.25 58.04q-32.85-4.78-65.19-13.97"></path><path stroke="#8080b3" d="M88.06 44.07q-2.57-1.81-3.75.24-24.14 42.15-37.12 92.39a.54.53-73.2 0 0 .34.65q19.79 6.6 40.22 10.86"></path><path stroke="#ff8083" d="M87.75 148.21q32.64 7.4 66.42 10.34"></path><path stroke="#8080b3" d="M154.17 158.55q34.22 3.62 69.08 3.41"></path><path stroke="#ff8083" d="M223.25 161.96q33.97.07 68.17-3.47"></path><path stroke="#8080b3" d="M291.42 158.49q33.32-3.15 66.33-10.7"></path><path stroke="#ff8083" d="M357.75 147.79q20.44-4.27 40.22-10.94a.54.53 73.2 0 0 .34-.65q-12.82-49.82-38.37-94.45a.76.68 68.7 0 0-.75-.38q-.8.14-1.48.63"></path><path stroke="#800036" d="M357.75 147.79q-.59-52.89-.04-105.79M291.42 158.49q.71-50.69.15-101.3M223.25 161.96q-.32-3.66-.21-7.32.18-6.1.17-7.29-.11-10.54.09-20.93"></path><path stroke="#ff8083" d="M223.3 126.42q11.01 2.2 21.96 1.45 4.91-.34 6.24-5.12 1.97-7.06-2.42-12.13a.65.65-48.8 0 1-.05-.78q1.79-2.74 2.66-5.92.62-2.24 1.35-.04.88 2.63 3.78 3.81a1.1 1.09 11.3 0 1 .68 1.01v8.55q0 3.41.6 5.83.59 2.43 2.46 3.48 1.82 1.03 4.44 1.19 3.42.21 6.06-.34 2.76-.58 4.16-2.44 1.51-2.03 1.53-4.97.11-16.36-.2-28.54-.06-2.16-.66-3.31-.9-1.72-2.58-2.46-7.97-3.53-14.99 1.89-2.96 2.28-6.52 5.12a.45.45-34 0 1-.67-.13q-5.81-9.94-16.62-8.48-6.46.88-10.51 5.95"></path><path stroke="#800036" d="M224 90.04q-.75-.02-.75-.54-.13-13.6-.43-27.22"></path><path stroke="#f70512" d="m234.75 61.96 6 .33"></path><path stroke="#e33540" d="m240.75 62.29 11.75-.83"></path><path stroke="#f70512" d="M252.5 61.46q1.9.12 10.75.04 1.99-.02 2.25-1.46"></path><path stroke="#8080b3" d="m224 90.04-1.35 2.44q-.23.42-.45.02-4.09-7.4-11.67-8.49-5.9-.84-10.75 1.84-5.2 2.88-7.13 9.32-3.22 10.75 4.87 19.82a.78.77-51.1 0 1 .09.89q-4.51 7.73 2.2 11.31 1.32.7 4.2.65.22-.01 3.48.03 4.76.06 7.33-3.26.44-.57 3.53-6.56 3.18-6.16 5.35-13.19a.57.52-72.7 0 1 .66-.39l2.87.89a.39.36-61.7 0 1 .15.6q-1.05 1.34-2.18 2.61-1.4 1.58-1.99 2.71-3.64 6.98.09 15.14"></path><path stroke="#db3a4c" d="M240.75 62.29q-1.07-.58-2.25-.58M252.5 61.46l-.04-.21"></path><path stroke="#800036" d="m153.25 58.04.84 1.16a1.65.83 41.3 0 1 .35.87l-.27 98.48M88.06 44.07q-.82 52.03-.31 104.14"></path><path stroke="#8180af" d="M81.54 230.93q-.38-7.11-1.21-14.19-3.09-26.21-5.96-52.45-.4-3.58-2.93-4.73-3.6-1.63-21.68-8.82-2.92-1.17-4.79-.5-3.55 1.26-2.91 6.2 10.48 80.72 20.79 147.8.01.08.2 2.03.36 3.58 3.12 4.99 1.75.89 4.7.14 11.45-2.93 22.88-5.9 2.37-.62 3.66-1.89.98-.98 1.42-3.55 10.62-62.8 18.17-100.81.8-4.04.76-5.75a.54.36 78.3 0 1 .17-.43q.15-.1.29-.02a.75.37-82.8 0 1 .21.61q-.47 20.92-.35 41.84.17 28.88.22 57.75.01 5.75 4.35 6.07.68.05 6.2-.77 6.72-1.01 13.42-2.19 2.74-.49 3.79-1.23 1.9-1.33 1.94-3.88.64-40.89 0-105-.03-2.84-1.36-4.52-1-1.26-3.87-1.91-8.87-2-18.68-4.07a3.39 3.38 34.5 0 0-2.51.46q-1.28.81-2.06-.51a3.74 3.73 82 0 0-2.25-1.7q-10.03-2.61-19.89-5.73-2.15-.68-3.33-.59-1.91.14-3.22 1.41-1.23 1.2-1.66 4.24-3.79 26.62-7.15 55.08-.1.91.21 1.77.36.99-.17 1.2a.47.37 79.6 0 1-.52-.45M368.99 275.05q-4.85-1.79-8.25-6.5-2.35-3.25-2.93-3.72-2.54-2.08-5.18-.41-1.67 1.06-3.61 4.65-4.21 7.78-8.44 15.56-1.97 3.65-.02 6.56 4.4 6.53 12.38 13.37 5.46 4.68 11.99 7.19 7.39 2.84 13.52 2.06 7.78-1 13.42-7.41 4.05-4.6 6.17-10.34 2.43-6.58 3.49-13.45 1-6.44 1.24-13.75.49-14.99-4.68-29.26-4.12-11.4-13.85-18.56-4.24-3.11-8.02-6.75-2.26-2.17-2.7-5.29-.59-4.27.24-8.5.87-4.41 4.63-6.35 1.78-.91 3.28.4 1.57 1.37 3 2.87 1.86 1.93 3.27 2.38 3.64 1.15 5.5-2.86 3.22-6.96 9.85-27.25.82-2.52.46-4.1-.46-2.02-2-3.84-4.89-5.8-11.63-7.4-4.81-1.13-10.72.23-5.56 1.29-10.09 4.23-14.94 9.72-21.49 27.08-6.87 18.21-3.04 36.68 1.75 8.43 5.31 14.34 4.03 6.69 10.47 11.56 3.54 2.67 6.85 5.62 8.3 7.36 4.83 19.32-.75 2.55-3.25 1.64"></path><path stroke="#8180af" d="M183.08 260.5q.19.01.25.23 3.97 13.02 8.44 25.89.73 2.1 1.44 2.97 1.29 1.55 3.1 1.6 4.72.12 21.28-.62 2.22-.09 3.2-.67 1.62-.96 1.9-2.96.36-2.55-.81-5.31-.98-2.33-1.02-2.44-5.91-16.15-12.14-32.26a.71.71 60.4 0 1 .22-.8q7.17-5.61 9.67-14.05 2.42-8.16 1.41-17.01a.52.51 87 0 1 .51-.57h8.46a.51.51 0 0 1 .51.51q0 35.37.03 70.24 0 2.72 1.71 4.17 1.15.97 3.9 1.2 9.65.81 19.34.65 1.53-.02 2.44-.54 1.18-.67 1.87-1.79.7-1.14.73-3.53.41-35.71.23-71.42a.55.52 88.3 0 1 .49-.55l11.15-.69a.53.5 88.5 0 1 .54.54q-.26 19.86-.04 39.96.17 14.79 5.92 25.94 9.53 18.46 31.43 20.65 17.25 1.72 26.13-12.65 3.3-5.35 4.84-11.45 3.05-12.05 2.94-24.49-.13-14.78-.15-29.55 0-2.09-.2-6.88-.15-3.46-.06-6.91l.26-10.33V177.5q0-4.84-3.82-5.47-1.68-.28-5.64.76-6.16 1.62-12.33 3.19-4.94 1.26-5.47 1.58-2.72 1.62-2.49 5.94.64 12.01-.5 74.5-.05 2.78-1.57 5.99-.85 1.81-2.06 2.38-1.87.88-3.56-.93-1.74-1.87-2.55-4.81-.5-1.82-.55-5.31-.69-44.11-.27-66.26.14-7.69-5.52-7.87-.02 0-7.87 1.04-4.46.6-8.89 1.41-5.15.94-8.89 1.27-25.5 2.26-51.11 2.56-4.04.05-5.53 1.21-2.47 1.93-1.8 6.32.36 2.36-1.31.64-3.71-3.84-8.91-5.88-8.69-3.42-17.93-4.26-8.77-.79-8.85-.8-7.38-.93-14.76-1.87-3.58-.46-5.1.12-2.97 1.12-2.97 5.05 0 49.75-.11 99.5-.02 7.3 7.11 6.75 3.9-.3 17-1.77 2.72-.31 3.84-1 2-1.24 2.16-3.73.65-10.18.07-26.92a.32.25 89.8 0 1 .26-.33"></path><path stroke="#ff8083" d="M154.5 312.54q-33.31 3.03-66.44 10.24"></path><path stroke="#8080b3" d="M88.06 322.78q-16.5 3.66-33.63 8.81a.53.52 73.1 0 0-.35.66q12.41 40.95 35.12 77.51"></path><path stroke="#ff8083" d="M89.2 409.76q22.75 36.45 56.99 64.05 5 4.04 8.09 6"></path><path stroke="#8080b3" d="M154.28 479.81q31.15 22.81 67.92 35.42.09.03.43.23.37.21.62-.17"></path><path stroke="#ff8083" d="M223.25 515.29q37.12-12.47 68.54-35.79"></path><path stroke="#8080b3" d="M291.79 479.5q40.28-30.08 66.5-73"></path><path stroke="#ff8083" d="M358.29 406.5q21.45-34.71 33.13-73.83a.51.51-73 0 0-.33-.63q-16.03-4.98-33.1-8.6"></path><path stroke="#8080b3" d="M357.99 323.44q-32.53-7.54-66.49-10.65"></path><path stroke="#ff8083" d="M291.5 312.79q-34.02-3.79-68.25-3.5"></path><path stroke="#8080b3" d="M223.25 309.29q-34.47-.38-68.75 3.25"></path><path stroke="#800036" d="m223.25 309.29-.19 36.16a.26.26 76.1 0 0 .38.23q20.04-10.18 32.92 6.56.85 1.1.88-.28.21-8.52 8.26-8.48 5 .02 10-.05 3.3-.04 6.14 3.18a.78.78-45.9 0 0 1.18-.02q2.63-3.22 7.77-3.05a.91.91 1.9 0 0 .94-.88q.54-15.42-.03-29.87M357.99 323.44q-.85 41.16-.49 82.1a.84.82-74.7 0 0 .39.71l.4.25M291.79 479.5l-.04-71.51a1.61 1.6 86 0 0-1.83-1.59q-6.46.94-10.1-3.26a.36.36 40.8 0 0-.58.04q-1.69 2.63-4.49 3.07-2.16.34-5.95.29-.12 0-3.09.06-8.59.2-8.52-9.06 0-.73-.44-.15-12.63 16.54-32.99 7.18a.49.49-77.7 0 0-.7.45l.19 110.27M154.28 479.81l.21-72.43a.55.54 2.8 0 0-.51-.55q-3.02-.24-5.05-.46-2.92-.32-4.52-2.3-1.13-1.39-1.39-4.45-.66-7.8-.06-15.62.05-.69-.39-.28-.39.37-.57 1.28-1.38 6.9-4.42 16.66-.82 2.61-2.09 3.57-1.69 1.26-4.24 1.27-7.83.02-12.53-.14-3.2-.11-4.75-1.07-2.3-1.42-2.97-4.29-3.15-13.43-5.33-21.53-.5-1.88-.97-5.02-.39-2.54-1.09-5.03-2.31-8.19-4.19-16.49-.8-3.56.02-5.47 1.24-2.87 4.81-3.71 2.17-.51 11.75-.34 7.72.13 8.52 7.53a.47.39 78.1 0 0 .54.42q.41-.15.44-.61.41-7.25 7.25-7.25h20.5a.97.96.3 0 0 .97-.95l.28-30.01M89.2 409.76q-1.41-5.21-1.45-9.51-.31-33.08.31-77.47"></path><path stroke="#f70512" d="M229.48 62.55q4.02-.3-.18-.24a.85.72-57.9 0 0-.44.14q-1.35.86-2.62.64-1.55-.28-.02.09 1.85.45 2.97-.5a.51.43-64.7 0 1 .29-.13"></path><path stroke="#8080b3" d="M171.21 108.56q.36 6.47.29 12.94-.03 3.28 2.56 4.98 1.59 1.05 4.59 1.23 2.42.16 4.85.05 4.07-.19 5.88-2.97 1.11-1.71 1.19-5.81.27-13.55-.03-27.1-.05-2.01-.5-3.19-.75-1.97-2.1-2.63-8.16-3.98-15.33 1.32-1.99 1.47-3.95 2.99-.04.04-1.51 1.06-3.74 2.63-2.65 7.32 1.32 5.69 6.27 9.04a.99.96 16.3 0 1 .44.77"></path><path stroke="#8180b1" d="m207.23 111.78-5.38 9.27q-.26.45.27.45h6.71a.87.85 13.7 0 0 .76-.45q2.97-5.54 5.7-10.81 2.67-5.16 2.23-10.99-.51-6.86-6.96-8.81-4.37-1.33-7.79.89-3.04 1.97-4.26 5.82-1.19 3.75-.1 7.87 1.72 6.51 8.54 6.29.56-.02.28.47M236.89 115.95q-1.09 0-.35-.82 4.22-4.67 7.41-9.39 1.92-2.84 2.05-5.49.33-6.48-4.15-8.95-3.98-2.2-8.35-.67-4.6 1.6-5.97 7.31a.86.86 9.1 0 0 .77 1.06l4.19.35a1.19 1.19 17.6 0 0 1.14-.59q2.26-3.95 4.24-2.81 1.61.92 1.47 3.25-.12 2.04-1.53 3.86-4.64 6.01-7.77 9.6-1.87 2.15-2.16 3.76-.35 1.96.06 4.54a.65.65-4.7 0 0 .64.54h16.66a.51.51-89.8 0 0 .51-.51v-4.33a.67.66 0 0 0-.67-.66zM263.69 99.81l.12 21.12a.53.51 90 0 0 .51.53h5.63a.53.49-90 0 0 .49-.53l.06-29.23a.79.78 4.8 0 0-.66-.77q-4.39-.72-7 1.17-3.11 2.27-6.14 4.66a.61.55-35.4 0 0-.17.76l2.67 4.33a.51.4-33.2 0 0 .66.06l3.37-2.38q.46-.31.46.28M177.69 99.81l.12 21.12a.53.51 90 0 0 .51.53h5.63a.53.48-90 0 0 .48-.53l-.01-29.37a.66.62-83.2 0 0-.47-.63q-2.16-.51-4.24-.11-1.76.33-4.06 2.08-2.42 1.84-4.82 3.73a.7.55-34.8 0 0-.24.78l2.51 4.4a.56.39-32.7 0 0 .7.03l3.43-2.32q.46-.31.46.29"></path><path stroke="#8180b1" d="M207.792 105.81a5.1 3.34 90.2 0 0 3.358-5.088 5.1 3.34 90.2 0 0-3.322-5.112 5.1 3.34 90.2 0 0-3.358 5.088 5.1 3.34 90.2 0 0 3.322 5.112"></path><g stroke="#810130"><path d="M81.84 264.75q-.32 2.02-.56-.01L69.49 164.55a.88.83-82.6 0 0-.5-.69l-21.11-8.85a.76.76-82.3 0 0-1.04.8q9.42 75.42 21.24 150.68a.86.85-11.8 0 0 1.06.68l23.75-6.06a1.74 1.66-2.9 0 0 1.28-1.35q10.05-60.82 22.04-120.58a.58.57 14.1 0 0-.41-.67l-20.66-5.84a.96.96-77.9 0 0-1.21.79q-3.89 27.5-6.98 53.78-2.27 19.28-5.11 37.51M142.49 184.42l-18.56-3.86a.77.77 6.1 0 0-.93.75v112.92a.43.43 85.5 0 0 .5.43l18.76-3.04a1.18 1.16-4.6 0 0 .99-1.15l-.01-105.13a.95.94 6.1 0 0-.75-.92M378.05 189.53q5.62-1.24 10.08 4.84.93 1.27 1.45-.2l9.45-26.88a1.03 1 39 0 0-.11-.9q-7.07-11.05-20.23-6.7-5.73 1.9-9.13 4.62-19.64 15.76-21.07 41.19-.57 10.11 1.26 18.25 2.11 9.37 8.88 16.44 1.45 1.51 6.38 5.44 3.96 3.16 6.3 5.56 9.88 10.11 5.45 22.81-1.41 4.02-3.99 5.35-3.41 1.76-7.6-.76-5.75-3.45-9.53-9.09a1 1-48.2 0 0-1.72.1l-9.29 17.89a1.35 1.34-49.4 0 0 .1 1.39q7.08 9.77 16.95 15.87 5.87 3.63 11.63 4.44 6.73.94 12.38-3.53 4.94-3.91 7-8.97 4.87-12 5.33-25.48.23-6.79-.3-12.41-.56-5.88-2.22-12.3-2.97-11.53-10.96-19.22-1.06-1.03-3.34-2.76-1.73-1.32-3.4-2.71-4.24-3.51-4.94-4.26-4.06-4.32-4.36-11.3-.26-6.12 2.17-10.7 2.63-4.97 7.38-6.02M289.92 287.08q4.85 4.05 10.65 6.03 6.2 2.13 11.85 2.25 7.43.16 13.29-4.22 4.05-3.03 6.83-8.33 2.54-4.84 3.67-10.32 2.02-9.76 2.02-19.74.02-37.5.02-75.13a.87.87 83 0 0-1.08-.85l-18.33 4.63a1.2 1.18-7.2 0 0-.9 1.15q-.2 31.92.04 64.2.08 10.57-1.23 15.75-1.15 4.53-2.81 6.19-3.75 3.73-8.06 2.26-2.78-.95-4.8-3.55-1.89-2.44-2.51-5.66-1.57-8.17-1.52-16.49.2-29.25.2-58.15a1.19 1.18-4.4 0 0-1.37-1.16l-17.81 2.65a1.55 1.51-4.4 0 0-1.32 1.5q0 31.79.03 62.91.01 11.23 4.14 21.65 2.93 7.36 9 12.43M207.31 198.44q-7.02-6.31-15.56-7.19-16.78-1.72-32.69-3.89a1.39 1.39 3.4 0 0-1.58 1.4q.24 14.87.15 28.49-.24 36.1.18 71.87a.53.52-3.5 0 0 .58.51l18.62-1.88a1.38 1.35-3.1 0 0 1.24-1.35v-36.88a.73.7 89.6 0 1 .69-.73l4.36-.02a1.27 1.2 80.1 0 1 1.17.87l11.75 36.03a1.19 1.17-9.7 0 0 1.17.81l19.39-.49a1.15 1.14-10.9 0 0 1.05-1.54l-14.77-39.55a1.01 1.01-24.7 0 1 .46-1.24q5.42-2.93 8.19-7.9 3.01-5.42 3.68-11.38.67-5.89-.34-11.74-1.46-8.56-7.74-14.2M255.72 208.8l15.22-1.06a.6.59-90 0 0 .54-.55q.7-8.56 0-17.13a.49.49-5.1 0 0-.54-.45q-25.04 2.46-50.19 2.64-.12 0-1.49-.11-2.32-.17-2.11 2.18.11 1.29.11 1.39.11 6.59-.17 12.61a1.19 1.15 1.4 0 0 1.18 1.2l15.29.15a.53.51 90 0 1 .51.53l.18 74.74a1.31 1.3-89.6 0 0 1.28 1.31l18.42.26a.98.97.3 0 0 .99-.97l.06-75.99a.77.75-2 0 1 .72-.75"></path><path d="M186.94 209q-3.63-1-8.06-.67a.68.68-2.3 0 0-.63.68v22.91a1.03 1.03-87.9 0 0 .95 1.03q3.25.24 6.6-.22 5.88-.79 7.83-5.25 1.59-3.63 1.2-8.44-.28-3.59-2.44-6.44-2.01-2.65-5.45-3.6"></path></g><path stroke="#8180af" d="M186.98 214.06q-1.46-.97-3.46-.79a.58.56-2.8 0 0-.52.56l.06 13.85a.53.52-89.4 0 0 .51.53q5.49.19 6.31-4.38.51-2.81.17-5.16-.41-2.86-3.07-4.61"></path><path stroke="#8080b3" d="M226.44 398.31q8.53 6.06 17.37 2.03 3.64-1.66 6.18-4.6 2.56-2.97 3.91-6.82 4.51-12.87.74-26-1.23-4.29-3.83-7.72-2.61-3.43-6.55-5.27-7.3-3.43-14.53-.21-4.6 2.05-7.64 6.57-2.97 4.41-4.02 9.61-1.15 5.69-.57 12.72.52 6.45 3.23 12.49 2.08 4.63 5.71 7.2M125.26 386.01q-.25 1.4-.51 0l-6.66-35.68a.71.7 84.5 0 0-.69-.58l-11.85.05a.4.39 82.4 0 0-.37.5L117 399.49a.97.96 82.9 0 0 .95.75l13.5-.05a.64.61-82.8 0 0 .6-.49l12.28-49.5a.36.36-83.1 0 0-.35-.45l-11.67.05a.62.61-85.4 0 0-.59.51zM160.56 379.05l11.06-.05a.88.85-.7 0 0 .87-.86l-.04-8.08a.52.51.6 0 0-.51-.51l-11.47-.05a.55.55 0 0 1-.55-.55l.08-8.09a.88.88-48.8 0 1 .87-.87l12.08-.04a.52.51-90 0 0 .5-.51l.11-8.99a.52.5-89.4 0 0-.5-.53h-23.37a.51.5-90 0 0-.5.51l-.12 49.26a.5.49.6 0 0 .5.5l24.38.06a.55.55 0 0 0 .55-.55v-9.05a.69.67.4 0 0-.68-.67l-13.39-.14a.53.5-89.5 0 1-.49-.53l.11-9.74a.53.52-90 0 1 .51-.52M206.02 377.37q2.74-1.23 3.92-3.18 3.41-5.63 2.45-12.04-.75-5-3.65-8.19-3.37-3.71-8.74-3.96-8.87-.42-18.73-.23a.53.53-.6 0 0-.52.53l-.06 49.26a.54.51-89.5 0 0 .5.54l9.47.11a1.08 1.05-89.7 0 0 1.07-1.09l-.15-18.57a.7.61 82.5 0 1 .44-.67q.97-.28 2.64.04a.89.88-3.4 0 1 .67.59l6.41 19.21a.74.67 79.6 0 0 .67.51l11.1-.19a.36.34 78.5 0 0 .3-.49l-8.09-21.51a.55.52-22.3 0 1 .3-.67M274.02 370.02l11.36 29.7a.76.72 78.6 0 0 .68.48h11.13a.52.5 90 0 0 .5-.52l.06-49.37a.54.52 90 0 0-.52-.54l-8.79.13a.54.51 89.5 0 0-.5.54q-.01 8.23.31 30.06.01.35-.22.29a.52.32 79.8 0 1-.3-.33l-11.05-29.61a1.58 1.42 78.2 0 0-1.4-1.03l-11.22.19a.56.5 89.5 0 0-.49.56v49.11a.52.5 90 0 0 .5.52h9.12a.51.5-90 0 0 .5-.51l-.13-29.51a.32.2 77.5 0 1 .08-.22l.08-.08a.23.17 61.2 0 1 .3.14M327.36 392.03l2.11 7.68a.68.56 80.4 0 0 .58.5l10.96-.17a.43.4 82 0 0 .37-.53l-11.95-49.09a.67.63 83.5 0 0-.61-.51l-13.51-.11a.64.61-82.4 0 0-.61.49l-12.14 49.46a.41.4-83.2 0 0 .39.5h10.46a.63.58 5.6 0 0 .61-.46l1.73-7.3a1.29 1.16-82.3 0 1 1.17-.99l9.76.05a.72.65-6.8 0 1 .68.48"></path><path stroke="#8180b1" d="M236.8 391.03a16 7.82 90 0 0 7.82-16 16 7.82 90 0 0-7.82-16 16 7.82 90 0 0-7.82 16 16 7.82 90 0 0 7.82 16M196.97 359.51q-2.27-.69-4.73-.13a.63.62-6.4 0 0-.49.61v11.02a.64.64 6.9 0 0 .49.62q3.89.94 6.64-1.15 1.8-1.36 2.22-3.64.45-2.42-.68-4.54-1.11-2.08-3.45-2.79M321.44 361.17l-3.85 20.32a.43.43 5.5 0 0 .42.51h7.11a.72.71 84.6 0 0 .7-.85l-3.67-19.97q-.35-1.89-.71-.01"></path><path stroke="#790641" d="M236.738 383.3a8.28 1.39 90.5 0 0 1.462-8.268 8.28 1.39 90.5 0 0-1.318-8.292 8.28 1.39 90.5 0 0-1.462 8.268 8.28 1.39 90.5 0 0 1.318 8.292"></path></g><path fill="#010066" d="M116.05 18.51Q138.92 23.71 160 26q4.24.46 19 1.71 10.58.89 19.04 1.17 25.1.83 50.21-.13 5.15-.2 21.26-1.68 27.18-2.51 53.77-8.51 16.55-3.73 19.49-4.46 12.7-3.13 24.42-7.91 3.19-1.3 6.38-1.14 3.08.16 5.74 2.28 3.02 2.4 4.98 5.9 11.97 21.33 21.93 43.67 19.52 43.82 27.84 91.09 12.46 70.81-1.81 143.51-7.92 40.35-20.79 74.37-20.87 55.15-59.56 99.16-6.67 7.58-13.79 14.47-46.01 44.5-106.35 66.71-5.59 2.06-8.76 2.01-4.23-.08-9-1.97-36.8-14.56-65.46-34.09-60.39-41.16-94.9-105.6-18.23-34.06-29.95-74.5-10.75-37.09-14.81-71.05-4.81-40.33-.87-80.76 7.65-78.53 44.22-148.26 4.38-8.36 8.82-16.68 3.17-5.96 5.72-7.54 4.34-2.7 10.48-.52 6.33 2.25 19.47 6.14 10.6 3.14 19.33 5.12m5.55 10.98Q96.88 24.5 72.53 16a.63.63-65.4 0 0-.75.28Q49.64 54.3 35.6 95.74q-3.26 9.62-5.87 19.12-18.36 66.77-12.67 135.94.83 10.16 2.28 19.86 4.7 31.43 15.16 64.84 13.74 43.91 35.86 80.46 53.5 88.41 151.33 122.77a4.31 4.26 44.7 0 0 2.87 0q107.64-38.19 160.88-139.1 11.04-20.91 19.87-45.07 16.91-46.24 22.85-93.82 1.86-14.91 2.09-38.24.59-60.66-16.2-115.81-14.72-48.32-40.67-92.06a.57.56-27.8 0 0-.73-.22q-11.91 5.59-24.37 8.48-16.44 3.81-32.97 7.16-10.97 2.23-19.67 3.57-87.25 13.42-174.04-4.13"></path><path fill="#fff" d="M121.6 29.49q86.79 17.55 174.04 4.13 8.7-1.34 19.67-3.57 16.53-3.35 32.97-7.16 12.46-2.89 24.37-8.48a.57.56-27.8 0 1 .73.22q25.95 43.74 40.67 92.06 16.79 55.15 16.2 115.81-.23 23.33-2.09 38.24-5.94 47.58-22.85 93.82-8.83 24.16-19.87 45.07-53.24 100.91-160.88 139.1a4.31 4.26 44.7 0 1-2.87 0q-97.83-34.36-151.33-122.77-22.12-36.55-35.86-80.46-10.46-33.41-15.16-64.84-1.45-9.7-2.28-19.86-5.69-69.17 12.67-135.94 2.61-9.5 5.87-19.12Q49.64 54.3 71.78 16.28a.63.63-65.4 0 1 .75-.28q24.35 8.5 49.07 13.49M357.71 42q-32.6 10.29-66.14 15.19l-26.07 2.85-13.04 1.21q-7.01-.32-13.96.46l-3.75.25-11.93.32q-35.02.23-69.57-4.24-32.85-4.78-65.19-13.97-2.57-1.81-3.75.24-24.14 42.15-37.12 92.39a.54.53-73.2 0 0 .34.65q19.79 6.6 40.22 10.86 32.64 7.4 66.42 10.34 34.22 3.62 69.08 3.41 33.97.07 68.17-3.47 33.32-3.15 66.33-10.7 20.44-4.27 40.22-10.94a.54.53 73.2 0 0 .34-.65q-12.82-49.82-38.37-94.45a.76.68 68.7 0 0-.75-.38q-.8.14-1.48.63M81.54 230.93q-.38-7.11-1.21-14.19-3.09-26.21-5.96-52.45-.4-3.58-2.93-4.73-3.6-1.63-21.68-8.82-2.92-1.17-4.79-.5-3.55 1.26-2.91 6.2 10.48 80.72 20.79 147.8.01.08.2 2.03.36 3.58 3.12 4.99 1.75.89 4.7.14 11.45-2.93 22.88-5.9 2.37-.62 3.66-1.89.98-.98 1.42-3.55 10.62-62.8 18.17-100.81.8-4.04.76-5.75a.54.36 78.3 0 1 .17-.43q.15-.1.29-.02a.75.37-82.8 0 1 .21.61q-.47 20.92-.35 41.84.17 28.88.22 57.75.01 5.75 4.35 6.07.68.05 6.2-.77 6.72-1.01 13.42-2.19 2.74-.49 3.79-1.23 1.9-1.33 1.94-3.88.64-40.89 0-105-.03-2.84-1.36-4.52-1-1.26-3.87-1.91-8.87-2-18.68-4.07a3.39 3.38 34.5 0 0-2.51.46q-1.28.81-2.06-.51a3.74 3.73 82 0 0-2.25-1.7q-10.03-2.61-19.89-5.73-2.15-.68-3.33-.59-1.91.14-3.22 1.41-1.23 1.2-1.66 4.24-3.79 26.62-7.15 55.08-.1.91.21 1.77.36.99-.17 1.2a.47.37 79.6 0 1-.52-.45m287.45 44.12q-4.85-1.79-8.25-6.5-2.35-3.25-2.93-3.72-2.54-2.08-5.18-.41-1.67 1.06-3.61 4.65-4.21 7.78-8.44 15.56-1.97 3.65-.02 6.56 4.4 6.53 12.38 13.37 5.46 4.68 11.99 7.19 7.39 2.84 13.52 2.06 7.78-1 13.42-7.41 4.05-4.6 6.17-10.34 2.43-6.58 3.49-13.45 1-6.44 1.24-13.75.49-14.99-4.68-29.26-4.12-11.4-13.85-18.56-4.24-3.11-8.02-6.75-2.26-2.17-2.7-5.29-.59-4.27.24-8.5.87-4.41 4.63-6.35 1.78-.91 3.28.4 1.57 1.37 3 2.87 1.86 1.93 3.27 2.38 3.64 1.15 5.5-2.86 3.22-6.96 9.85-27.25.82-2.52.46-4.1-.46-2.02-2-3.84-4.89-5.8-11.63-7.4-4.81-1.13-10.72.23-5.56 1.29-10.09 4.23-14.94 9.72-21.49 27.08-6.87 18.21-3.04 36.68 1.75 8.43 5.31 14.34 4.03 6.69 10.47 11.56 3.54 2.67 6.85 5.62 8.3 7.36 4.83 19.32-.75 2.55-3.25 1.64M183.08 260.5q.19.01.25.23 3.97 13.02 8.44 25.89.73 2.1 1.44 2.97 1.29 1.55 3.1 1.6 4.72.12 21.28-.62 2.22-.09 3.2-.67 1.62-.96 1.9-2.96.36-2.55-.81-5.31-.98-2.33-1.02-2.44-5.91-16.15-12.14-32.26a.71.71 60.4 0 1 .22-.8q7.17-5.61 9.67-14.05 2.42-8.16 1.41-17.01a.52.51 87 0 1 .51-.57h8.46a.51.51 0 0 1 .51.51q0 35.37.03 70.24 0 2.72 1.71 4.17 1.15.97 3.9 1.2 9.65.81 19.34.65 1.53-.02 2.44-.54 1.18-.67 1.87-1.79.7-1.14.73-3.53.41-35.71.23-71.42a.55.52 88.3 0 1 .49-.55l11.15-.69a.53.5 88.5 0 1 .54.54q-.26 19.86-.04 39.96.17 14.79 5.92 25.94 9.53 18.46 31.43 20.65 17.25 1.72 26.13-12.65 3.3-5.35 4.84-11.45 3.05-12.05 2.94-24.49-.13-14.78-.15-29.55 0-2.09-.2-6.88-.15-3.46-.06-6.91l.26-10.33V177.5q0-4.84-3.82-5.47-1.68-.28-5.64.76-6.16 1.62-12.33 3.19-4.94 1.26-5.47 1.58-2.72 1.62-2.49 5.94.64 12.01-.5 74.5-.05 2.78-1.57 5.99-.85 1.81-2.06 2.38-1.87.88-3.56-.93-1.74-1.87-2.55-4.81-.5-1.82-.55-5.31-.69-44.11-.27-66.26.14-7.69-5.52-7.87-.02 0-7.87 1.04-4.46.6-8.89 1.41-5.15.94-8.89 1.27-25.5 2.26-51.11 2.56-4.04.05-5.53 1.21-2.47 1.93-1.8 6.32.36 2.36-1.31.64-3.71-3.84-8.91-5.88-8.69-3.42-17.93-4.26-8.77-.79-8.85-.8-7.38-.93-14.76-1.87-3.58-.46-5.1.12-2.97 1.12-2.97 5.05 0 49.75-.11 99.5-.02 7.3 7.11 6.75 3.9-.3 17-1.77 2.72-.31 3.84-1 2-1.24 2.16-3.73.65-10.18.07-26.92a.32.25 89.8 0 1 .26-.33m-28.58 52.04q-33.31 3.03-66.44 10.24-16.5 3.66-33.63 8.81a.53.52 73.1 0 0-.35.66q12.41 40.95 35.12 77.51 22.75 36.45 56.99 64.05 5 4.04 8.09 6 31.15 22.81 67.92 35.42.09.03.43.23.37.21.62-.17 37.12-12.47 68.54-35.79 40.28-30.08 66.5-73 21.45-34.71 33.13-73.83a.51.51-73 0 0-.33-.63q-16.03-4.98-33.1-8.6-32.53-7.54-66.49-10.65-34.02-3.79-68.25-3.5-34.47-.38-68.75 3.25"></path><path fill="#ff0006" d="M357.75 147.79q-.59-52.89-.04-105.79.68-.49 1.48-.63a.76.68 68.7 0 1 .75.38q25.55 44.63 38.37 94.45a.54.53 73.2 0 1-.34.65q-19.78 6.67-40.22 10.94"></path><path fill="#010066" d="M357.71 42q-.55 52.9.04 105.79-33.01 7.55-66.33 10.7.71-50.69.15-101.3 33.54-4.9 66.14-15.19M88.06 44.07q-.82 52.03-.31 104.14-20.43-4.26-40.22-10.86a.54.53-73.2 0 1-.34-.65q12.98-50.24 37.12-92.39 1.18-2.05 3.75-.24"></path><path fill="#ff0006" d="M88.06 44.07q32.34 9.19 65.19 13.97l.84 1.16a1.65.83 41.3 0 1 .35.87l-.27 98.48q-33.78-2.94-66.42-10.34-.51-52.11.31-104.14M291.57 57.19q.56 50.61-.15 101.3-34.2 3.54-68.17 3.47-.32-3.66-.21-7.32.18-6.1.17-7.29-.11-10.54.09-20.93 11.01 2.2 21.96 1.45 4.91-.34 6.24-5.12 1.97-7.06-2.42-12.13a.65.65-48.8 0 1-.05-.78q1.79-2.74 2.66-5.92.62-2.24 1.35-.04.88 2.63 3.78 3.81a1.1 1.09 11.3 0 1 .68 1.01v8.55q0 3.41.6 5.83.59 2.43 2.46 3.48 1.82 1.03 4.44 1.19 3.42.21 6.06-.34 2.76-.58 4.16-2.44 1.51-2.03 1.53-4.97.11-16.36-.2-28.54-.06-2.16-.66-3.31-.9-1.72-2.58-2.46-7.97-3.53-14.99 1.89-2.96 2.28-6.52 5.12a.45.45-34 0 1-.67-.13q-5.81-9.94-16.62-8.48-6.46.88-10.51 5.95-.75-.02-.75-.54-.13-13.6-.43-27.22l11.93-.32 6 .33 11.75-.83q1.9.12 10.75.04 1.99-.02 2.25-1.46zm-62.09 5.36q4.02-.3-.18-.24a.85.72-57.9 0 0-.44.14q-1.35.86-2.62.64-1.55-.28-.02.09 1.85.45 2.97-.5a.51.43-64.7 0 1 .29-.13"></path><path fill="#010066" d="M153.25 58.04q34.55 4.47 69.57 4.24.3 13.62.43 27.22 0 .52.75.54l-1.35 2.44q-.23.42-.45.02-4.09-7.4-11.67-8.49-5.9-.84-10.75 1.84-5.2 2.88-7.13 9.32-3.22 10.75 4.87 19.82a.78.77-51.1 0 1 .09.89q-4.51 7.73 2.2 11.31 1.32.7 4.2.65.22-.01 3.48.03 4.76.06 7.33-3.26.44-.57 3.53-6.56 3.18-6.16 5.35-13.19a.57.52-72.7 0 1 .66-.39l2.87.89a.39.36-61.7 0 1 .15.6q-1.05 1.34-2.18 2.61-1.4 1.58-1.99 2.71-3.64 6.98.09 15.14-.2 10.39-.09 20.93.01 1.19-.17 7.29-.11 3.66.21 7.32-34.86.21-69.08-3.41l.27-98.48a1.65.83 41.3 0 0-.35-.87zm17.96 50.52q.36 6.47.29 12.94-.03 3.28 2.56 4.98 1.59 1.05 4.59 1.23 2.42.16 4.85.05 4.07-.19 5.88-2.97 1.11-1.71 1.19-5.81.27-13.55-.03-27.1-.05-2.01-.5-3.19-.75-1.97-2.1-2.63-8.16-3.98-15.33 1.32-1.99 1.47-3.95 2.99-.04.04-1.51 1.06-3.74 2.63-2.65 7.32 1.32 5.69 6.27 9.04a.99.96 16.3 0 1 .44.77"></path><path fill="#ff0006" d="M265.5 60.04q-.26 1.44-2.25 1.46-8.85.08-10.75-.04l-.04-.21z"></path><path fill="#ff0006" d="m252.46 61.25.04.21-11.75.83q-1.07-.58-2.25-.58 6.95-.78 13.96-.46"></path><path fill="#ff0006" d="M238.5 61.71q1.18 0 2.25.58l-6-.33zM229.19 62.68q-1.12.95-2.97.5-1.53-.37.02-.09 1.27.22 2.62-.64a.85.72-57.9 0 1 .44-.14q4.2-.06.18.24a.51.43-64.7 0 0-.29.13"></path><path fill="#fff" d="M224 90.04q4.05-5.07 10.51-5.95 10.81-1.46 16.62 8.48a.45.45-34 0 0 .67.13q3.56-2.84 6.52-5.12 7.02-5.42 14.99-1.89 1.68.74 2.58 2.46.6 1.15.66 3.31.31 12.18.2 28.54-.02 2.94-1.53 4.97-1.4 1.86-4.16 2.44-2.64.55-6.06.34-2.62-.16-4.44-1.19-1.87-1.05-2.46-3.48-.6-2.42-.6-5.83v-8.55a1.1 1.09 11.3 0 0-.68-1.01q-2.9-1.18-3.78-3.81-.73-2.2-1.35.04-.87 3.18-2.66 5.92a.65.65-48.8 0 0 .05.78q4.39 5.07 2.42 12.13-1.33 4.78-6.24 5.12-10.95.75-21.96-1.45-3.73-8.16-.09-15.14.59-1.13 1.99-2.71 1.13-1.27 2.18-2.61a.39.36-61.7 0 0-.15-.6l-2.87-.89a.57.52-72.7 0 0-.66.39q-2.17 7.03-5.35 13.19-3.09 5.99-3.53 6.56-2.57 3.32-7.33 3.26-3.26-.04-3.48-.03-2.88.05-4.2-.65-6.71-3.58-2.2-11.31a.78.77-51.1 0 0-.09-.89q-8.09-9.07-4.87-19.82 1.93-6.44 7.13-9.32 4.85-2.68 10.75-1.84 7.58 1.09 11.67 8.49.22.4.45-.02zm-16.77 21.74-5.38 9.27q-.26.45.27.45h6.71a.87.85 13.7 0 0 .76-.45q2.97-5.54 5.7-10.81 2.67-5.16 2.23-10.99-.51-6.86-6.96-8.81-4.37-1.33-7.79.89-3.04 1.97-4.26 5.82-1.19 3.75-.1 7.87 1.72 6.51 8.54 6.29.56-.02.28.47m29.66 4.17q-1.09 0-.35-.82 4.22-4.67 7.41-9.39 1.92-2.84 2.05-5.49.33-6.48-4.15-8.95-3.98-2.2-8.35-.67-4.6 1.6-5.97 7.31a.86.86 9.1 0 0 .77 1.06l4.19.35a1.19 1.19 17.6 0 0 1.14-.59q2.26-3.95 4.24-2.81 1.61.92 1.47 3.25-.12 2.04-1.53 3.86-4.64 6.01-7.77 9.6-1.87 2.15-2.16 3.76-.35 1.96.06 4.54a.65.65-4.7 0 0 .64.54h16.66a.51.51-89.8 0 0 .51-.51v-4.33a.67.66 0 0 0-.67-.66zm26.8-16.14.12 21.12a.53.51 90 0 0 .51.53h5.63a.53.49-90 0 0 .49-.53l.06-29.23a.79.78 4.8 0 0-.66-.77q-4.39-.72-7 1.17-3.11 2.27-6.14 4.66a.61.55-35.4 0 0-.17.76l2.67 4.33a.51.4-33.2 0 0 .66.06l3.37-2.38q.46-.31.46.28"></path><path fill="#fff" d="M170.77 107.79q-4.95-3.35-6.27-9.04-1.09-4.69 2.65-7.32 1.47-1.02 1.51-1.06 1.96-1.52 3.95-2.99 7.17-5.3 15.33-1.32 1.35.66 2.1 2.63.45 1.18.5 3.19.3 13.55.03 27.1-.08 4.1-1.19 5.81-1.81 2.78-5.88 2.97-2.43.11-4.85-.05-3-.18-4.59-1.23-2.59-1.7-2.56-4.98.07-6.47-.29-12.94a.99.96 16.3 0 0-.44-.77m6.92-7.98.12 21.12a.53.51 90 0 0 .51.53h5.63a.53.48-90 0 0 .48-.53l-.01-29.37a.66.62-83.2 0 0-.47-.63q-2.16-.51-4.24-.11-1.76.33-4.06 2.08-2.42 1.84-4.82 3.73a.7.55-34.8 0 0-.24.78l2.51 4.4a.56.39-32.7 0 0 .7.03l3.43-2.32q.46-.31.46.29"></path><path fill="#020163" d="M207.23 111.78q.28-.49-.28-.47-6.82.22-8.54-6.29-1.09-4.12.1-7.87 1.22-3.85 4.26-5.82 3.42-2.22 7.79-.89 6.45 1.95 6.96 8.81.44 5.83-2.23 10.99-2.73 5.27-5.7 10.81a.87.85 13.7 0 1-.76.45h-6.71q-.53 0-.27-.45zm.562-5.97a5.1 3.34 90.2 0 0 3.358-5.088 5.1 3.34 90.2 0 0-3.322-5.112 5.1 3.34 90.2 0 0-3.358 5.088 5.1 3.34 90.2 0 0 3.322 5.112M236.89 115.95l8.19.05a.67.66 0 0 1 .67.66v4.33a.51.51 89.6 0 1-.51.51h-16.66a.65.65-4.7 0 1-.64-.54q-.41-2.58-.06-4.54.29-1.61 2.16-3.76 3.13-3.59 7.77-9.6 1.41-1.82 1.53-3.86.14-2.33-1.47-3.25-1.98-1.14-4.24 2.81a1.19 1.19 17.6 0 1-1.14.59L228.3 99a.86.86 9.1 0 1-.77-1.06q1.37-5.71 5.97-7.31 4.37-1.53 8.35.67 4.48 2.47 4.15 8.95-.13 2.65-2.05 5.49-3.19 4.72-7.41 9.39-.74.82.35.82M177.23 99.52l-3.43 2.32a.56.39-32.7 0 1-.7-.03l-2.51-4.4a.7.55-34.8 0 1 .24-.78q2.4-1.89 4.82-3.73 2.3-1.75 4.06-2.08 2.08-.4 4.24.11a.66.62-83.2 0 1 .47.63l.01 29.37a.53.48-90 0 1-.48.53h-5.63a.53.51 90 0 1-.51-.53l-.12-21.12q0-.6-.46-.29M263.23 99.53l-3.37 2.38a.51.4-33.2 0 1-.66-.06l-2.67-4.33a.61.55-35.4 0 1 .17-.76q3.03-2.39 6.14-4.66 2.61-1.89 7-1.17a.79.78 4.8 0 1 .66.77l-.06 29.23a.53.49-90 0 1-.49.53h-5.63a.53.51 90 0 1-.51-.53l-.12-21.12q0-.59-.46-.28"></path><ellipse fill="#fff" rx="5.1" ry="3.34" transform="rotate(90.2 53.725 153.898)"></ellipse><path fill="#03015f" d="M82.06 231.38q.53-.21.17-1.2-.31-.86-.21-1.77 3.36-28.46 7.15-55.08.43-3.04 1.66-4.24 1.31-1.27 3.22-1.41 1.18-.09 3.33.59 9.86 3.12 19.89 5.73a3.74 3.73 82 0 1 2.25 1.7q.78 1.32 2.06.51a3.39 3.38 34.5 0 1 2.51-.46q9.81 2.07 18.68 4.07 2.87.65 3.87 1.91 1.33 1.68 1.36 4.52.64 64.11 0 105-.04 2.55-1.94 3.88-1.05.74-3.79 1.23-6.7 1.18-13.42 2.19-5.52.82-6.2.77-4.34-.32-4.35-6.07-.05-28.87-.22-57.75-.12-20.92.35-41.84a.75.37-82.8 0 0-.21-.61q-.14-.08-.29.02a.54.36 78.3 0 0-.17.43q.04 1.71-.76 5.75-7.55 38.01-18.17 100.81-.44 2.57-1.42 3.55-1.29 1.27-3.66 1.89-11.43 2.97-22.88 5.9-2.95.75-4.7-.14-2.76-1.41-3.12-4.99-.19-1.95-.2-2.03-10.31-67.08-20.79-147.8-.64-4.94 2.91-6.2 1.87-.67 4.79.5 18.08 7.19 21.68 8.82 2.53 1.15 2.93 4.73 2.87 26.24 5.96 52.45.83 7.08 1.21 14.19a.47.37 79.6 0 0 .52.45m-.22 33.37q-.32 2.02-.56-.01L69.49 164.55a.88.83-82.6 0 0-.5-.69l-21.11-8.85a.76.76-82.3 0 0-1.04.8q9.42 75.42 21.24 150.68a.86.85-11.8 0 0 1.06.68l23.75-6.06a1.74 1.66-2.9 0 0 1.28-1.35q10.05-60.82 22.04-120.58a.58.57 14.1 0 0-.41-.67l-20.66-5.84a.96.96-77.9 0 0-1.21.79q-3.89 27.5-6.98 53.78-2.27 19.28-5.11 37.51m60.65-80.33-18.56-3.86a.77.77 6.1 0 0-.93.75v112.92a.43.43 85.5 0 0 .5.43l18.76-3.04a1.18 1.16-4.6 0 0 .99-1.15l-.01-105.13a.95.94 6.1 0 0-.75-.92M368.99 275.05q2.5.91 3.25-1.64 3.47-11.96-4.83-19.32-3.31-2.95-6.85-5.62-6.44-4.87-10.47-11.56-3.56-5.91-5.31-14.34-3.83-18.47 3.04-36.68 6.55-17.36 21.49-27.08 4.53-2.94 10.09-4.23 5.91-1.36 10.72-.23 6.74 1.6 11.63 7.4 1.54 1.82 2 3.84.36 1.58-.46 4.1-6.63 20.29-9.85 27.25-1.86 4.01-5.5 2.86-1.41-.45-3.27-2.38-1.43-1.5-3-2.87-1.5-1.31-3.28-.4-3.76 1.94-4.63 6.35-.83 4.23-.24 8.5.44 3.12 2.7 5.29 3.78 3.64 8.02 6.75 9.73 7.16 13.85 18.56 5.17 14.27 4.68 29.26-.24 7.31-1.24 13.75-1.06 6.87-3.49 13.45-2.12 5.74-6.17 10.34-5.64 6.41-13.42 7.41-6.13.78-13.52-2.06-6.53-2.51-11.99-7.19-7.98-6.84-12.38-13.37-1.95-2.91.02-6.56 4.23-7.78 8.44-15.56 1.94-3.59 3.61-4.65 2.64-1.67 5.18.41.58.47 2.93 3.72 3.4 4.71 8.25 6.5m9.06-85.52q5.62-1.24 10.08 4.84.93 1.27 1.45-.2l9.45-26.88a1.03 1 39 0 0-.11-.9q-7.07-11.05-20.23-6.7-5.73 1.9-9.13 4.62-19.64 15.76-21.07 41.19-.57 10.11 1.26 18.25 2.11 9.37 8.88 16.44 1.45 1.51 6.38 5.44 3.96 3.16 6.3 5.56 9.88 10.11 5.45 22.81-1.41 4.02-3.99 5.35-3.41 1.76-7.6-.76-5.75-3.45-9.53-9.09a1 1-48.2 0 0-1.72.1l-9.29 17.89a1.35 1.34-49.4 0 0 .1 1.39q7.08 9.77 16.95 15.87 5.87 3.63 11.63 4.44 6.73.94 12.38-3.53 4.94-3.91 7-8.97 4.87-12 5.33-25.48.23-6.79-.3-12.41-.56-5.88-2.22-12.3-2.97-11.53-10.96-19.22-1.06-1.03-3.34-2.76-1.73-1.32-3.4-2.71-4.24-3.51-4.94-4.26-4.06-4.32-4.36-11.3-.26-6.12 2.17-10.7 2.63-4.97 7.38-6.02" data-source="https://football-logos.cc"></path><path fill="red" d="M81.84 264.75q2.84-18.23 5.11-37.51 3.09-26.28 6.98-53.78a.96.96-77.9 0 1 1.21-.79l20.66 5.84a.58.57 14.1 0 1 .41.67q-11.99 59.76-22.04 120.58a1.74 1.66-2.9 0 1-1.28 1.35l-23.75 6.06a.86.85-11.8 0 1-1.06-.68q-11.82-75.26-21.24-150.68a.76.76-82.3 0 1 1.04-.8l21.11 8.85a.88.83-82.6 0 1 .5.69l11.79 100.19q.24 2.03.56.01M370.67 195.55q-2.43 4.58-2.17 10.7.3 6.98 4.36 11.3.7.75 4.94 4.26 1.67 1.39 3.4 2.71 2.28 1.73 3.34 2.76 7.99 7.69 10.96 19.22 1.66 6.42 2.22 12.3.53 5.62.3 12.41-.46 13.48-5.33 25.48-2.06 5.06-7 8.97-5.65 4.47-12.38 3.53-5.76-.81-11.63-4.44-9.87-6.1-16.95-15.87a1.35 1.34-49.4 0 1-.1-1.39l9.29-17.89a1 1-48.2 0 1 1.72-.1q3.78 5.64 9.53 9.09 4.19 2.52 7.6.76 2.58-1.33 3.99-5.35 4.43-12.7-5.45-22.81-2.34-2.4-6.3-5.56-4.93-3.93-6.38-5.44-6.77-7.07-8.88-16.44-1.83-8.14-1.26-18.25 1.43-25.43 21.07-41.19 3.4-2.72 9.13-4.62 13.16-4.35 20.23 6.7a1.03 1 39 0 1 .11.9l-9.45 26.88q-.52 1.47-1.45.2-4.46-6.08-10.08-4.84-4.75 1.05-7.38 6.02"></path><path fill="#03015f" d="M182.82 260.83q.58 16.74-.07 26.92-.16 2.49-2.16 3.73-1.12.69-3.84 1-13.1 1.47-17 1.77-7.13.55-7.11-6.75.11-49.75.11-99.5 0-3.93 2.97-5.05 1.52-.58 5.1-.12 7.38.94 14.76 1.87.08.01 8.85.8 9.24.84 17.93 4.26 5.2 2.04 8.91 5.88 1.67 1.72 1.31-.64-.67-4.39 1.8-6.32 1.49-1.16 5.53-1.21 25.61-.3 51.11-2.56 3.74-.33 8.89-1.27 4.43-.81 8.89-1.41 7.85-1.04 7.87-1.04 5.66.18 5.52 7.87-.42 22.15.27 66.26.05 3.49.55 5.31.81 2.94 2.55 4.81 1.69 1.81 3.56.93 1.21-.57 2.06-2.38 1.52-3.21 1.57-5.99 1.14-62.49.5-74.5-.23-4.32 2.49-5.94.53-.32 5.47-1.58 6.17-1.57 12.33-3.19 3.96-1.04 5.64-.76 3.82.63 3.82 5.47v20.08l-.26 10.33q-.09 3.45.06 6.91.2 4.79.2 6.88.02 14.77.15 29.55.11 12.44-2.94 24.49-1.54 6.1-4.84 11.45-8.88 14.37-26.13 12.65-21.9-2.19-31.43-20.65-5.75-11.15-5.92-25.94-.22-20.1.04-39.96a.53.5 88.5 0 0-.54-.54l-11.15.69a.55.52 88.3 0 0-.49.55q.18 35.71-.23 71.42-.03 2.39-.73 3.53-.69 1.12-1.87 1.79-.91.52-2.44.54-9.69.16-19.34-.65-2.75-.23-3.9-1.2-1.71-1.45-1.71-4.17-.03-34.87-.03-70.24a.51.51 0 0 0-.51-.51h-8.46a.52.51 87 0 0-.51.57q1.01 8.85-1.41 17.01-2.5 8.44-9.67 14.05a.71.71 60.4 0 0-.22.8q6.23 16.11 12.14 32.26.04.11 1.02 2.44 1.17 2.76.81 5.31-.28 2-1.9 2.96-.98.58-3.2.67-16.56.74-21.28.62-1.81-.05-3.1-1.6-.71-.87-1.44-2.97-4.47-12.87-8.44-25.89-.06-.22-.25-.23a.32.25 89.8 0 0-.26.33m107.1 26.25q4.85 4.05 10.65 6.03 6.2 2.13 11.85 2.25 7.43.16 13.29-4.22 4.05-3.03 6.83-8.33 2.54-4.84 3.67-10.32 2.02-9.76 2.02-19.74.02-37.5.02-75.13a.87.87 83 0 0-1.08-.85l-18.33 4.63a1.2 1.18-7.2 0 0-.9 1.15q-.2 31.92.04 64.2.08 10.57-1.23 15.75-1.15 4.53-2.81 6.19-3.75 3.73-8.06 2.26-2.78-.95-4.8-3.55-1.89-2.44-2.51-5.66-1.57-8.17-1.52-16.49.2-29.25.2-58.15a1.19 1.18-4.4 0 0-1.37-1.16l-17.81 2.65a1.55 1.51-4.4 0 0-1.32 1.5q0 31.79.03 62.91.01 11.23 4.14 21.65 2.93 7.36 9 12.43m-82.61-88.64q-7.02-6.31-15.56-7.19-16.78-1.72-32.69-3.89a1.39 1.39 3.4 0 0-1.58 1.4q.24 14.87.15 28.49-.24 36.1.18 71.87a.53.52-3.5 0 0 .58.51l18.62-1.88a1.38 1.35-3.1 0 0 1.24-1.35v-36.88a.73.7 89.6 0 1 .69-.73l4.36-.02a1.27 1.2 80.1 0 1 1.17.87l11.75 36.03a1.19 1.17-9.7 0 0 1.17.81l19.39-.49a1.15 1.14-10.9 0 0 1.05-1.54l-14.77-39.55a1.01 1.01-24.7 0 1 .46-1.24q5.42-2.93 8.19-7.9 3.01-5.42 3.68-11.38.67-5.89-.34-11.74-1.46-8.56-7.74-14.2m48.41 10.36 15.22-1.06a.6.59-90 0 0 .54-.55q.7-8.56 0-17.13a.49.49-5.1 0 0-.54-.45q-25.04 2.46-50.19 2.64-.12 0-1.49-.11-2.32-.17-2.11 2.18.11 1.29.11 1.39.11 6.59-.17 12.61a1.19 1.15 1.4 0 0 1.18 1.2l15.29.15a.53.51 90 0 1 .51.53l.18 74.74a1.31 1.3-89.6 0 0 1.28 1.31l18.42.26a.98.97.3 0 0 .99-.97l.06-75.99a.77.75-2 0 1 .72-.75"></path><path fill="red" d="M289.92 287.08q-6.07-5.07-9-12.43-4.13-10.42-4.14-21.65-.03-31.12-.03-62.91a1.55 1.51-4.4 0 1 1.32-1.5l17.81-2.65a1.19 1.18-4.4 0 1 1.37 1.16q0 28.9-.2 58.15-.05 8.32 1.52 16.49.62 3.22 2.51 5.66 2.02 2.6 4.8 3.55 4.31 1.47 8.06-2.26 1.66-1.66 2.81-6.19 1.31-5.18 1.23-15.75-.24-32.28-.04-64.2a1.2 1.18-7.2 0 1 .9-1.15l18.33-4.63a.87.87 83 0 1 1.08.85q0 37.63-.02 75.13 0 9.98-2.02 19.74-1.13 5.48-3.67 10.32-2.78 5.3-6.83 8.33-5.86 4.38-13.29 4.22-5.65-.12-11.85-2.25-5.8-1.98-10.65-6.03M142.49 184.42a.95.94 6.1 0 1 .75.92l.01 105.13a1.18 1.16-4.6 0 1-.99 1.15l-18.76 3.04a.43.43 85.5 0 1-.5-.43V181.31a.77.77 6.1 0 1 .93-.75zM207.31 198.44q6.28 5.64 7.74 14.2 1.01 5.85.34 11.74-.67 5.96-3.68 11.38-2.77 4.97-8.19 7.9a1.01 1.01-24.7 0 0-.46 1.24l14.77 39.55a1.15 1.14-10.9 0 1-1.05 1.54l-19.39.49a1.19 1.17-9.7 0 1-1.17-.81l-11.75-36.03a1.27 1.2 80.1 0 0-1.17-.87l-4.36.02a.73.7 89.6 0 0-.69.73v36.88a1.38 1.35-3.1 0 1-1.24 1.35l-18.62 1.88a.53.52-3.5 0 1-.58-.51q-.42-35.77-.18-71.87.09-13.62-.15-28.49a1.39 1.39 3.4 0 1 1.58-1.4q15.91 2.17 32.69 3.89 8.54.88 15.56 7.19M186.94 209q-3.63-1-8.06-.67a.68.68-2.3 0 0-.63.68v22.91a1.03 1.03-87.9 0 0 .95 1.03q3.25.24 6.6-.22 5.88-.79 7.83-5.25 1.59-3.63 1.2-8.44-.28-3.59-2.44-6.44-2.01-2.65-5.45-3.6M255.72 208.8a.77.75-2 0 0-.72.75l-.06 75.99a.98.97.3 0 1-.99.97l-18.42-.26a1.31 1.3-89.6 0 1-1.28-1.31l-.18-74.74a.53.51 90 0 0-.51-.53l-15.29-.15a1.19 1.15 1.4 0 1-1.18-1.2q.28-6.02.17-12.61 0-.1-.11-1.39-.21-2.35 2.11-2.18 1.37.11 1.49.11 25.15-.18 50.19-2.64a.49.49-5.1 0 1 .54.45q.7 8.57 0 17.13a.6.59-90 0 1-.54.55z"></path><path fill="#03015f" d="M192.39 212.6q2.16 2.85 2.44 6.44.39 4.81-1.2 8.44-1.95 4.46-7.83 5.25-3.35.46-6.6.22a1.03 1.03-87.9 0 1-.95-1.03v-22.91a.68.68-2.3 0 1 .63-.68q4.43-.33 8.06.67 3.44.95 5.45 3.6m-5.41 1.46q-1.46-.97-3.46-.79a.58.56-2.8 0 0-.52.56l.06 13.85a.53.52-89.4 0 0 .51.53q5.49.19 6.31-4.38.51-2.81.17-5.16-.41-2.86-3.07-4.61"></path><path fill="#fff" d="M186.98 214.06q2.66 1.75 3.07 4.61.34 2.35-.17 5.16-.82 4.57-6.31 4.38a.53.52-89.4 0 1-.51-.53l-.06-13.85a.58.56-2.8 0 1 .52-.56q2-.18 3.46.79"></path><path fill="#010066" d="m223.25 309.29-.19 36.16a.26.26 76.1 0 0 .38.23q20.04-10.18 32.92 6.56.85 1.1.88-.28.21-8.52 8.26-8.48 5 .02 10-.05 3.3-.04 6.14 3.18a.78.78-45.9 0 0 1.18-.02q2.63-3.22 7.77-3.05a.91.91 1.9 0 0 .94-.88q.54-15.42-.03-29.87 33.96 3.11 66.49 10.65-.85 41.16-.49 82.1a.84.82-74.7 0 0 .39.71l.4.25q-26.22 42.92-66.5 73l-.04-71.51a1.61 1.6 86 0 0-1.83-1.59q-6.46.94-10.1-3.26a.36.36 40.8 0 0-.58.04q-1.69 2.63-4.49 3.07-2.16.34-5.95.29-.12 0-3.09.06-8.59.2-8.52-9.06 0-.73-.44-.15-12.63 16.54-32.99 7.18a.49.49-77.7 0 0-.7.45l.19 110.27q-.25.38-.62.17-.34-.2-.43-.23-36.77-12.61-67.92-35.42l.21-72.43a.55.54 2.8 0 0-.51-.55q-3.02-.24-5.05-.46-2.92-.32-4.52-2.3-1.13-1.39-1.39-4.45-.66-7.8-.06-15.62.05-.69-.39-.28-.39.37-.57 1.28-1.38 6.9-4.42 16.66-.82 2.61-2.09 3.57-1.69 1.26-4.24 1.27-7.83.02-12.53-.14-3.2-.11-4.75-1.07-2.3-1.42-2.97-4.29-3.15-13.43-5.33-21.53-.5-1.88-.97-5.02-.39-2.54-1.09-5.03-2.31-8.19-4.19-16.49-.8-3.56.02-5.47 1.24-2.87 4.81-3.71 2.17-.51 11.75-.34 7.72.13 8.52 7.53a.47.39 78.1 0 0 .54.42q.41-.15.44-.61.41-7.25 7.25-7.25h20.5a.97.96.3 0 0 .97-.95l.28-30.01q34.28-3.63 68.75-3.25m3.19 89.02q8.53 6.06 17.37 2.03 3.64-1.66 6.18-4.6 2.56-2.97 3.91-6.82 4.51-12.87.74-26-1.23-4.29-3.83-7.72-2.61-3.43-6.55-5.27-7.3-3.43-14.53-.21-4.6 2.05-7.64 6.57-2.97 4.41-4.02 9.61-1.15 5.69-.57 12.72.52 6.45 3.23 12.49 2.08 4.63 5.71 7.2m-101.18-12.3q-.25 1.4-.51 0l-6.66-35.68a.71.7 84.5 0 0-.69-.58l-11.85.05a.4.39 82.4 0 0-.37.5L117 399.49a.97.96 82.9 0 0 .95.75l13.5-.05a.64.61-82.8 0 0 .6-.49l12.28-49.5a.36.36-83.1 0 0-.35-.45l-11.67.05a.62.61-85.4 0 0-.59.51zm35.3-6.96 11.06-.05a.88.85-.7 0 0 .87-.86l-.04-8.08a.52.51.6 0 0-.51-.51l-11.47-.05a.55.55 0 0 1-.55-.55l.08-8.09a.88.88-48.8 0 1 .87-.87l12.08-.04a.52.51-90 0 0 .5-.51l.11-8.99a.52.5-89.4 0 0-.5-.53h-23.37a.51.5-90 0 0-.5.51l-.12 49.26a.5.49.6 0 0 .5.5l24.38.06a.55.55 0 0 0 .55-.55v-9.05a.69.67.4 0 0-.68-.67l-13.39-.14a.53.5-89.5 0 1-.49-.53l.11-9.74a.53.52-90 0 1 .51-.52m45.46-1.68q2.74-1.23 3.92-3.18 3.41-5.63 2.45-12.04-.75-5-3.65-8.19-3.37-3.71-8.74-3.96-8.87-.42-18.73-.23a.53.53-.6 0 0-.52.53l-.06 49.26a.54.51-89.5 0 0 .5.54l9.47.11a1.08 1.05-89.7 0 0 1.07-1.09l-.15-18.57a.7.61 82.5 0 1 .44-.67q.97-.28 2.64.04a.89.88-3.4 0 1 .67.59l6.41 19.21a.74.67 79.6 0 0 .67.51l11.1-.19a.36.34 78.5 0 0 .3-.49l-8.09-21.51a.55.52-22.3 0 1 .3-.67m68-7.35 11.36 29.7a.76.72 78.6 0 0 .68.48h11.13a.52.5 90 0 0 .5-.52l.06-49.37a.54.52 90 0 0-.52-.54l-8.79.13a.54.51 89.5 0 0-.5.54q-.01 8.23.31 30.06.01.35-.22.29a.52.32 79.8 0 1-.3-.33l-11.05-29.61a1.58 1.42 78.2 0 0-1.4-1.03l-11.22.19a.56.5 89.5 0 0-.49.56v49.11a.52.5 90 0 0 .5.52h9.12a.51.5-90 0 0 .5-.51l-.13-29.51a.32.2 77.5 0 1 .08-.22l.08-.08a.23.17 61.2 0 1 .3.14m53.34 22.01 2.11 7.68a.68.56 80.4 0 0 .58.5l10.96-.17a.43.4 82 0 0 .37-.53l-11.95-49.09a.67.63 83.5 0 0-.61-.51l-13.51-.11a.64.61-82.4 0 0-.61.49l-12.14 49.46a.41.4-83.2 0 0 .39.5h10.46a.63.58 5.6 0 0 .61-.46l1.73-7.3a1.29 1.16-82.3 0 1 1.17-.99l9.76.05a.72.65-6.8 0 1 .68.48"></path><path fill="#ff0006" d="M223.25 309.29q34.23-.29 68.25 3.5.57 14.45.03 29.87a.91.91 2.2 0 1-.94.88q-5.14-.17-7.77 3.05a.78.78-45.9 0 1-1.18.02q-2.84-3.22-6.14-3.18-5 .07-10 .05-8.05-.04-8.26 8.48-.03 1.38-.88.28-12.88-16.74-32.92-6.56a.26.26 76.1 0 1-.38-.23zM154.5 312.54l-.28 30.01a.97.96.3 0 1-.97.95h-20.5q-6.84 0-7.25 7.25-.03.46-.44.61a.47.39 78.1 0 1-.54-.42q-.8-7.4-8.52-7.53-9.58-.17-11.75.34-3.57.84-4.81 3.71-.82 1.91-.02 5.47 1.88 8.3 4.19 16.49.7 2.49 1.09 5.03.47 3.14.97 5.02 2.18 8.1 5.33 21.53.67 2.87 2.97 4.29 1.55.96 4.75 1.07 4.7.16 12.53.14 2.55-.01 4.24-1.27 1.27-.96 2.09-3.57 3.04-9.76 4.42-16.66.18-.91.57-1.28.44-.41.39.28-.6 7.82.06 15.62.26 3.06 1.39 4.45 1.6 1.98 4.52 2.3 2.03.22 5.05.46a.55.54 2.8 0 1 .51.55l-.21 72.43q-3.09-1.96-8.09-6-34.24-27.6-56.99-64.05-1.41-5.21-1.45-9.51-.31-33.08.31-77.47 33.13-7.21 66.44-10.24"></path><path fill="#010066" d="M88.06 322.78q-.62 44.39-.31 77.47.04 4.3 1.45 9.51-22.71-36.56-35.12-77.51a.53.52 73.1 0 1 .35-.66q17.13-5.15 33.63-8.81"></path><path fill="#ff0006" d="M357.99 323.44q17.07 3.62 33.1 8.6a.51.51-73 0 1 .33.63q-11.68 39.12-33.13 73.83l-.4-.25a.84.82-74.7 0 1-.39-.71q-.36-40.94.49-82.1"></path><g fill="#fff"><path d="M226.44 398.31q-3.63-2.57-5.71-7.2-2.71-6.04-3.23-12.49-.58-7.03.57-12.72 1.05-5.2 4.02-9.61 3.04-4.52 7.64-6.57 7.23-3.22 14.53.21 3.94 1.84 6.55 5.27 2.6 3.43 3.83 7.72 3.77 13.13-.74 26-1.35 3.85-3.91 6.82-2.54 2.94-6.18 4.6-8.84 4.03-17.37-2.03m10.36-7.28a16 7.82 90 0 0 7.82-16 16 7.82 90 0 0-7.82-16 16 7.82 90 0 0-7.82 16 16 7.82 90 0 0 7.82 16M125.26 386.01l6.46-35.7a.62.61-85.4 0 1 .59-.51l11.67-.05a.36.36-83.1 0 1 .35.45l-12.28 49.5a.64.61-82.8 0 1-.6.49l-13.5.05a.97.96 82.9 0 1-.95-.75l-11.82-49.19a.4.39 82.4 0 1 .37-.5l11.85-.05a.71.7 84.5 0 1 .69.58l6.66 35.68q.26 1.4.51 0M160.05 379.57l-.11 9.74a.53.5-89.5 0 0 .49.53l13.39.14a.69.67.4 0 1 .68.67v9.05a.55.55 0 0 1-.55.55l-24.38-.06a.5.49.6 0 1-.5-.5l.12-49.26a.51.5-90 0 1 .5-.51h23.37a.52.5-89.4 0 1 .5.53l-.11 8.99a.52.51-90 0 1-.5.51l-12.08.04a.88.88 0 0 0-.87.87l-.08 8.09a.55.55 0 0 0 .55.55l11.47.05a.52.51.6 0 1 .51.51l.04 8.08a.88.85-.7 0 1-.87.86l-11.06.05a.53.52-90 0 0-.51.52M205.72 378.04l8.09 21.51a.36.34 78.5 0 1-.3.49l-11.1.19a.74.67 79.6 0 1-.67-.51l-6.41-19.21a.89.88-3.4 0 0-.67-.59q-1.67-.32-2.64-.04a.7.61 82.5 0 0-.44.67l.15 18.57a1.08 1.05-89.7 0 1-1.07 1.09l-9.47-.11a.54.51-89.5 0 1-.5-.54l.06-49.26a.53.53-.6 0 1 .52-.53q9.86-.19 18.73.23 5.37.25 8.74 3.96 2.9 3.19 3.65 8.19.96 6.41-2.45 12.04-1.18 1.95-3.92 3.18a.55.52-22.3 0 0-.3.67m-8.75-18.53q-2.27-.69-4.73-.13a.63.62-6.4 0 0-.49.61v11.02a.64.64 6.9 0 0 .49.62q3.89.94 6.64-1.15 1.8-1.36 2.22-3.64.45-2.42-.68-4.54-1.11-2.08-3.45-2.79M273.72 369.88l-.08.08a.32.2 77.5 0 0-.08.22l.13 29.51a.51.5-90 0 1-.5.51h-9.12a.52.5-90 0 1-.5-.52v-49.11a.56.5 89.5 0 1 .49-.56l11.22-.19a1.58 1.42 78.2 0 1 1.4 1.03l11.05 29.61a.52.32 79.8 0 0 .3.33q.23.06.22-.29-.32-21.83-.31-30.06a.54.51 89.5 0 1 .5-.54l8.79-.13a.54.52 90 0 1 .52.54l-.06 49.37a.52.5-90 0 1-.5.52h-11.13a.76.72 78.6 0 1-.68-.48l-11.36-29.7a.23.17 61.2 0 0-.3-.14M326.68 391.55l-9.76-.05a1.29 1.16-82.3 0 0-1.17.99l-1.73 7.3a.63.58 5.6 0 1-.61.46h-10.46a.41.4-83.2 0 1-.39-.5l12.14-49.46a.64.61-82.4 0 1 .61-.49l13.51.11a.67.63 83.5 0 1 .61.51l11.95 49.09a.43.4 82 0 1-.37.53l-10.96.17a.68.56 80.4 0 1-.58-.5l-2.11-7.68a.72.65-6.8 0 0-.68-.48m-5.24-30.38-3.85 20.32a.43.43 5.5 0 0 .42.51h7.11a.72.71 84.6 0 0 .7-.85l-3.67-19.97q-.35-1.89-.71-.01"></path></g><path fill="#020163" d="M200.42 362.3q1.13 2.12.68 4.54-.42 2.28-2.22 3.64-2.75 2.09-6.64 1.15a.64.64 6.9 0 1-.49-.62v-11.02a.63.62-6.4 0 1 .49-.61q2.46-.56 4.73.13 2.34.71 3.45 2.79M236.8 391.03a16 7.82 90 0 1-7.82-16 16 7.82 90 0 1 7.82-16 16 7.82 90 0 1 7.82 16 16 7.82 90 0 1-7.82 16m-.062-7.73a8.28 1.39 90.5 0 0 1.462-8.268 8.28 1.39 90.5 0 0-1.318-8.292 8.28 1.39 90.5 0 0-1.462 8.268 8.28 1.39 90.5 0 0 1.318 8.292M321.44 361.17q.36-1.88.71.01l3.67 19.97a.72.71 84.6 0 1-.7.85h-7.11a.43.43 5.5 0 1-.42-.51z"></path><ellipse fill="#ef0a1e" rx="8.28" ry="1.39" transform="rotate(90.5 -67.476 304.886)"></ellipse><path fill="#ff0006" d="M291.79 479.5q-31.42 23.32-68.54 35.79l-.19-110.27a.49.49-77.7 0 1 .7-.45q20.36 9.36 32.99-7.18.44-.58.44.15-.07 9.26 8.52 9.06 2.97-.06 3.09-.06 3.79.05 5.95-.29 2.8-.44 4.49-3.07a.36.36 40.8 0 1 .58-.04q3.64 4.2 10.1 3.26a1.61 1.6 86 0 1 1.83 1.59z" data-source="https://football-logos.cc"></path><!-- source: https://football-logos.cc --></svg>