<svg xmlns="http://www.w3.org/2000/svg" xml:space="preserve" viewBox="13.51 14.07 230.68 230.68"><!-- Source: https://football-logos.cc --><path d="M966.375 214.273c208.535 0 397.335 84.524 533.995 221.184 136.66 136.656 221.18 325.457 221.18 533.988 0 208.535-84.52 397.335-221.18 533.995-136.66 136.65-325.46 221.19-533.995 221.19s-397.332-84.54-533.988-221.19c-136.66-136.66-221.184-325.46-221.184-533.995 0-208.531 84.524-397.332 221.184-533.988 136.656-136.66 325.453-221.184 533.988-221.184m0-109.882c-238.867 0-455.133 96.828-611.684 253.371C198.148 514.313 101.32 730.578 101.32 969.445c0 238.875 96.828 455.145 253.371 611.685 156.551 156.54 372.817 253.37 611.684 253.37 238.875 0 455.145-96.83 611.695-253.37 156.54-156.54 253.36-372.81 253.36-611.685 0-238.867-96.82-455.132-253.36-611.683-156.55-156.543-372.82-253.371-611.695-253.371" style="fill:#f5af12;fill-opacity:1;fill-rule:nonzero;stroke:none" transform="matrix(.13333 0 0 -.13333 0 258.667)" data-source="https://football-logos.cc"></path><path d="M966.375 264.652c389.245 0 704.795 315.551 704.795 704.793 0 389.255-315.55 704.795-704.795 704.795-389.242 0-704.793-315.54-704.793-704.795 0-389.242 315.551-704.793 704.793-704.793" style="fill:#fff;fill-opacity:1;fill-rule:evenodd;stroke:none" transform="matrix(.13333 0 0 -.13333 0 258.667)"></path><path d="M966.375 319.59c179.455 0 341.925 72.742 459.525 190.336 117.6 117.605 190.34 280.07 190.34 459.519 0 179.455-72.74 341.925-190.34 459.525s-280.07 190.33-459.525 190.33c-179.449 0-341.922-72.74-459.516-190.33-117.597-117.6-190.339-280.07-190.339-459.525 0-179.449 72.742-341.914 190.339-459.519C624.453 392.332 786.926 319.59 966.375 319.59m0-109.883c-209.789 0-399.723 85.047-537.211 222.527-137.48 137.489-222.523 327.426-222.523 537.211s85.043 399.735 222.523 537.215c137.488 137.48 327.422 222.53 537.211 222.53 209.785 0 399.735-85.05 537.215-222.53s222.53-327.43 222.53-537.215-85.05-399.722-222.53-537.211c-137.48-137.48-327.43-222.527-537.215-222.527" style="fill:#7f2022;fill-opacity:1;fill-rule:nonzero;stroke:none" transform="matrix(.13333 0 0 -.13333 0 258.667)" data-source="https://football-logos.cc"></path><path d="M1327.76 996.305v188.025l-131.85 102.55-102.56 249.06s-173.366-75.7-173.366-234.42L727.09 1433.38s-83.024-80.58-83.024-222.2c0 0-4.882-95.23 56.161-148.95l-102.551-58.59 102.551-80.585-114.762-85.461 131.855-34.188-207.55-231.965 322.312 73.258v-73.258l148.949 70.813v-70.813l68.369 58.598 36.63 2.449s124.52-90.351 207.54-46.398c31.75 12.207 78.14 85.465 78.14 85.465h-95.23l-78.13-41.516-4.89 41.516-43.95 2.437-12.21 41.516-39.07 2.441-4.88 24.414s-58.6-2.445-58.6 63.489c0 0 75.32 22.722 311.98-78.7l137.11 90.161z" style="fill:#3a2f2d;fill-opacity:1;fill-rule:evenodd;stroke:none" transform="matrix(.13333 0 0 -.13333 0 258.667)"></path><path d="M990.797 1015.84s53.723-61.043 122.083-63.481c0 0 61.05 2.438 97.67 29.293 0 0-26.85 65.928-119.64 70.818 0 0-56.16 7.32-100.113-36.63" style="fill:#90434e;fill-opacity:1;fill-rule:evenodd;stroke:none" transform="matrix(.13333 0 0 -.13333 0 258.667)" data-source="https://football-logos.cc"></path><!-- source: https://football-logos.cc --></svg>