<svg xmlns="http://www.w3.org/2000/svg" xml:space="preserve" id="Livello_1" x="0" y="0" version="1.1" viewBox="-0.5 -0.5 610.04 393.3"><!-- Source: https://football-logos.cc --><style data-source="https://football-logos.cc">.st1{fill:#1d3a63}</style><path d="M607.9 3c-.5-1.1-1.7-.7-2.6-.8-13.6-1-27.3-.7-40.9-.7-19.4 0-38.8-.4-58.2-.3-27.2.1-54.4-.5-81.6 0-6.2.1-11.8 2-17.1 5.2-10.5 6.5-18.7 15.3-25.8 25.1-13.6 18.8-31.9 29.2-54.7 32.1-1.2.2-14.5-1.3-18-2.1-10.1-2.4-17.3-8.9-23.8-16.6-4.5-5.4-7.7-11.7-11.7-17.5-6.5-9.6-14.6-17.4-25.8-21-7.6-2.5-15.6-3.5-23.6-3.2-15.8.6-31.5 1.2-47.3 1.7-41.5 1.6-83.1 3-124.7 4.4-13.2.4-26.5.7-39.7 1.4-3.8.1-7.8-.5-11.4 1.5v2.9c1 1.4 2.2 2.6 3.4 3.9 4.5 4.9 10.6 8 14.9 13.1 12.8 15.1 28.6 26 46.9 33.2 3.7 1.5 6.9 3.6 9.7 6.4 7.8 7.8 17.3 12.4 28 14.7 4.2.9 8 2.4 11.3 5.1 2 1.6 4.2 1.8 6.6.9 2.8-1 5.7-2 8.7-2.5 7.3-1.3 14.5-2.6 21.8-4 5-.9 10-1.8 14.9-2.6 1.1-.2 2.5-.1 2.6 1.2s-1.3.6-2 .9c-.6.3-1.3.3-2 .4-14.1 2.3-28.2 4.8-41.9 9.1-1.3.4-2.8.6-3.1 2.3-.2 1.7 1.1 2.5 2.3 3.4 9.1 6.7 19.5 9.1 30.4 9.7 14.5.8 28.4-2.6 42-7.2 1.3-.4 3.2-2 3.8-.3.5 1.4-1.9 1.6-3.2 2.1-10.2 3.6-20.4 7.2-30.5 10.8-1.5.5-2.9 1.1-4.4 1.7-1 .4-2 1.1-1.9 2.3.1 1.1 1.1 1.5 2 1.8 2.5.8 5 1.7 7.5 2.3 4.4 1.1 9.1 1.4 13.3 3.3 2.5 1.1 4.5.8 6.9-.5 6.3-3.5 13.2-3.3 20.1-3.6-5.9 1.3-11.7 3-17.2 5.3-1.2.5-2.6.8-2.6 2.4 0 1.5 1.1 2.4 2.4 3.1 2.4 1.3 5.1 1.8 7.7 2.3 9.1 1.6 16.6.1 24.9-1.6.2-.1.4-.1.6-.2 8.9-2 16.7-6.4 24.4-11.2 1.1-.7 2.1-1.8 3.6-1.7.1-.1.2-.2.2-.3.2.3.1.4-.2.4-1.1 4.2-3.9 7.3-6.7 10.3-5.5 5.8-11.3 15-18.7 17.4-3.4 2.6-26.6 15.5-29.5 38.6-1.1.4-1.8 1.5-1.8 2.7V273c0 78.6 86.5 118.3 86.5 118.3s86.5-39.8 86.5-118.3v-82.5c0-1.6-1.3-3-3-3-11.2-5.1-.5-15.1-4.2-22.4S350.8 151 349.9 149c-.8-1.9-.3-2.6 1.8-2 3.8 1.1 7.5.7 11.2-.4 4-1.2 7.8-3.1 11.5-5 1.6-.8 2.2-2.2 1.3-3.6-.9-1.6-1.8.1-2.5.6-4 2.5-8.2 3.9-12.9 4-1.2 0-2.4-.1-3.5-1.4 1.4-.7 2.7-.4 3.8-.5 2.3-.1 4.6-.5 6.1-2.3 2.7-3.3 6.1-3.4 9.8-2.7 1.5.3 3.1.6 4.6.6 6.3.3 12.1-1.6 17.5-4.8 1.3-.8 2-2.3 1.4-3.5-.6-1.3-2-.4-3.1 0-8.1 3.3-16.5 3.2-25 2.8-.5 0-1-.2-1.4-.4-1.8-1-3.9-1.9-3.3-4.5.5-2.1 2.9-3.1 5.5-2.4 5.9 1.7 11.9 3 18 3.6 1.3.1 3 .7 3.6-1s-.9-2.3-2.1-3c-4.1-2.5-8.3-4.7-12.8-6.4-1.4-.5-3.7-.9-2.8-2.9.7-1.5 2.4 0 3.6.4.3.1.5.2.8.3 5.7 2.9 11.8 3.9 18.1 4 8.8.2 17.1-2.5 25.7-3.8 2.1-.3 2.4-1.7 1.5-3.5-.3-.7-1.2-1.1-1-2.1 2.2-.2 4.3.4 6.1 1.5 2 1.3 2.7.6 3.2-1.4 1.5-6.7 6.2-10.2 12.5-11.4 6.5-1.2 13-2.6 19.3-4.7 11.1-3.6 21.9-8 30-16.7 3.4-3.7 7.2-6.1 11.6-7.9 11.4-4.8 23.1-9.1 32.6-17.3 5.3-4.7 11.5-7.5 18-10 8.3-3.2 15.7-8 21.1-15.2 4-5.3 9-8.7 14.7-11.6 4.5-2.3 9-4.7 12.4-8.6.7-.7 1.6-1.6 1.1-2.8" style="fill:#f2f2f2"></path><path d="M366.2 187.7h-167c-1.6 0-3 1.3-3 3v82.5c0 78.6 86.5 118.3 86.5 118.3s86.5-39.8 86.5-118.3v-82.5c0-1.7-1.3-3-3-3m-2 43.4v42.1c0 17-4.3 33.5-12.8 49.1-6.9 12.6-16.5 24.6-28.6 35.7-17 15.6-34.2 25-40.1 28-5.8-3-22.9-12.3-39.9-27.8-12.1-11.1-21.8-23.1-28.7-35.7-8.6-15.6-12.9-32.2-12.9-49.2v-80.5h162.9v38.3z" class="st1"></path><path d="M247.1 243.3h-16.9v78.4c4.6 7.2 10.2 14.1 16.9 20.8z" style="fill:none"></path><path d="M355 201.9H210.5v71.3c0 28.2 12.8 54.3 38.1 77.7 13 12 26.1 20.2 33.7 24.4v-5.8c-1.5-.9-3.1-1.9-4.9-3-2.8-1.8-4.5-4.8-4.5-8.2v-115h16.9v122.2c-.4.3-1.3 4.7-1.2 6.7 2.7-1.6 5.7-3.6 9-5.8-.1-2.1.1-4.3.4-6.4 0 0-.1 0-.1.1V238.3H268v115.6c0 2.6-3 4-5 2.5-1.1-.9-2.3-1.8-3.4-2.7-2.7-2.2-4.3-5.5-4.3-9V238.3h-29.9v70.9c0 .9-1.3 1.2-1.6.4-5.4-11.7-8.1-23.9-8.1-36.4v-66.3H352v66.3c0 10.8-3.2 24.5-7.6 36.1-.8 2.2-4.1 1.6-4.1-.8v-70.2h-29.9V350c-.2.2-1 5.2-1.1 7.5 1.8-1.5 3.6-3 5.4-4.6.1-2.8.4-5.6.7-8.4V243.3h16.9v91.1c15.1-19 22.8-39.5 22.8-61.3v-71.2zm-124.8 41.4h16.9V339c0 1.3-1.6 1.9-2.5 1-4.3-4.6-8.2-9.3-11.6-14-1.9-2.7-2.9-5.9-2.9-9.2v-73.5z" class="st1" data-source="https://football-logos.cc"></path><path d="M268 360.2c.7.5 1.5 1.1 2.2 1.6-.7-.5-1.4-1-2.2-1.6M293.6 363c.7-.5 1.3-.9 2-1.4-.7.4-1.4.9-2 1.4M334 323.6c.1-.2.3-.4.4-.6-.1.2-.2.4-.4.6M336.6 319.6c.6-1 1.2-2 1.8-3.1-.6 1.1-1.2 2.1-1.8 3.1M293.5 363c-.7.4-1.3.9-1.9 1.3.7-.5 1.3-.9 1.9-1.3M230.2 321.7c-.5-.7-.9-1.4-1.3-2.1.4.7.9 1.4 1.3 2.1M228.9 319.5c-.4-.7-.8-1.4-1.3-2.1.4.7.8 1.4 1.3 2.1M227.6 317.4c-.4-.7-.8-1.4-1.2-2.2.4.7.8 1.4 1.2 2.2M231.7 230.2c-1.4 0-2.7-.5-3.6-1l-.5 1.7c.8.6 2.5 1 4 1 3.7 0 5.4-2.1 5.4-4.5 0-2.3-1.3-3.5-4-4.6-2.1-.8-3.1-1.5-3.1-3 0-1.1.8-2.3 2.9-2.3 1.4 0 2.4.5 2.9.7l.6-1.6c-.7-.4-1.8-.8-3.4-.8-3 0-5 1.8-5 4.2 0 2.2 1.6 3.5 4.1 4.4 2.1.8 2.9 1.6 2.9 3.1 0 1.7-1.2 2.7-3.2 2.7M245.3 230.2c-1.4 0-2.7-.5-3.6-1l-.5 1.7c.8.6 2.5 1 4 1 3.7 0 5.4-2.1 5.4-4.5 0-2.3-1.3-3.5-4-4.6-2.1-.8-3.1-1.5-3.1-3 0-1.1.8-2.3 2.9-2.3 1.4 0 2.4.5 2.9.7l.6-1.6c-.7-.4-1.8-.8-3.4-.8-3 0-5 1.8-5 4.2 0 2.2 1.6 3.5 4.1 4.4 2.1.8 2.9 1.6 2.9 3.1.1 1.7-1.1 2.7-3.2 2.7M278.6 230H272v-13.8h-2v15.5h8.6zM285.7 226.8h5.5l1.7 4.9h2.1l-5.3-15.5h-2.4l-5.3 15.5h2.1zm1.9-6.1c.3-.9.6-1.9.8-2.8.2.9.5 1.8.8 2.8l1.5 4.5H286zM309.8 230h-8.7v-.1l8.6-12.5v-1.2h-10.5v1.6h7.9v.1l-8.6 12.6v1.2h11.3zM314.6 216.2h2v15.5h-2zM328.4 231.9c4 0 7.2-2.8 7.2-8.2 0-4.6-2.7-7.8-7-7.8-4.1 0-7.2 3.2-7.2 8.1 0 4.7 2.9 7.9 7 7.9m.1-14.4c3.3 0 4.9 3.2 4.9 6.3 0 3.5-1.8 6.4-5 6.4s-4.9-3-4.9-6.3c.1-3.3 1.7-6.4 5-6.4M308 101.1c-1.4-.9-2.6 1.3-4.1 1.6-1.3.3-2.8.8-2.4 2.4 1 4.2-2.3 6.3-4.2 9.1-.8 1.2-2.2 1.7-2.6-.5-.2-1.3-.5-1.7-1.9-1.1-4.2 2-7.5 4.8-9.5 9.1-.6 1.2-.9 2.4.2 3.4 1.7 1.4.9 2.4-.4 3.5-2.2 1.8-4.4 3.5-6.5 5.5-2.2 2.1-1.9 3.4.8 4.5 3.8 1.6 9.5 0 12-3.3.8-1.1.4-1.8-.4-2.5-1.3-1.1-1.1-2.3-.6-3.7 1.7-4.5 4.3-7.9 9.1-9.5 2.7-.9 6-1.5 6.1-5.5 0-.6.9-1.4 1.5-1.6 3.1-1.3 3.8-3.6 3.3-6.7-.1-1.6 1.1-3.7-.4-4.7" class="st1"></path><path d="M295.2 109.3c1.9-.2 2.6-1.7 3-3.4.3-1.2.7-2.4.4-4-1.3.2-3.2 1.9-3.3-.9-.1-2.5-1.2-1.6-2.3-.9-.9.6-1.7 1.3-2.3 2.2-1.1 1.5-1.3 3.4-.3 4.9 1 1.6 2.8 2.4 4.8 2.1M331.2 82.7c-4.1 1.4-8.3 2.8-12.4 4.1-1.3.4-1.9 1.3-1.7 2.6.2 1.5 1.6 1.5 2.7 1.7.3-.1.6-.1.9-.2 3.7-2.5 7.7-4.3 12-5.7.6-.2 1.5-.8.8-1.8-.6-.9-1.3-1.1-2.3-.7M311.2 87c1.9.1 2.7-1.4 3.5-2.8.7-1.5.3-2.3-1.4-2-1.8.3-3.4-.3-5.1-.9-.7-.2-1.3-.9-2.1-.1-1.2 1.4-2.6 2.6-3.7 4.1-.4.5-1 1.4-.3 2.1.5.5 1.3.4 1.9.1 2.3-.9 4.6-1.4 7.2-.5M318.8 94.7c-2.7.5-5.2-.3-8.3-1-.5-.1-1.6.2-1.3 1.4.5 1.8.2 4.8 2.6 4.7 2.7-.1 5.4-1.4 7.8-2.7.6-.3 1-1 .7-1.7-.2-.7-.9-.8-1.5-.7" class="st1"></path><path d="M607.9 3c-.5-1.1-1.7-.7-2.6-.8-13.6-1-27.3-.7-40.9-.7-19.4 0-38.8-.4-58.2-.3-27.2.1-54.4-.5-81.6 0-6.2.1-11.8 2-17.1 5.2-10.5 6.5-18.7 15.3-25.8 25.1-13.6 18.8-31.9 29.2-54.7 32.1-1.2.2-14.5-1.3-18-2.1-10.1-2.4-17.3-8.9-23.8-16.6-4.5-5.4-7.7-11.7-11.7-17.5-6.5-9.6-14.6-17.4-25.8-21-7.6-2.5-15.6-3.5-23.6-3.2-15.8.6-31.5 1.2-47.3 1.7-41.5 1.6-83.1 3-124.7 4.4-13.2.4-26.5.7-39.7 1.4-3.8.1-7.8-.5-11.4 1.5v2.9c1 1.4 2.2 2.6 3.4 3.9 4.5 4.9 10.6 8 14.9 13.1 12.8 15.1 28.6 26 46.9 33.2 3.7 1.5 6.9 3.6 9.7 6.4 7.8 7.8 17.3 12.4 28 14.7 4.2.9 8 2.4 11.3 5.1 2 1.6 4.2 1.8 6.6.9 2.8-1 5.7-2 8.7-2.5 7.3-1.3 14.5-2.6 21.8-4 5-.9 10-1.8 14.9-2.6 1.1-.2 2.5-.1 2.6 1.2s-1.3.6-2 .9c-.6.3-1.3.3-2 .4-14.1 2.3-28.2 4.8-41.9 9.1-1.3.4-2.8.6-3.1 2.3-.2 1.7 1.1 2.5 2.3 3.4 9.1 6.7 19.5 9.1 30.4 9.7 14.5.8 28.4-2.6 42-7.2 1.3-.4 3.2-2 3.8-.3.5 1.4-1.9 1.6-3.2 2.1-10.2 3.6-20.4 7.2-30.5 10.8-1.5.5-2.9 1.1-4.4 1.7-1 .4-2 1.1-1.9 2.3.1 1.1 1.1 1.5 2 1.8 2.5.8 5 1.7 7.5 2.3 4.4 1.1 9.1 1.4 13.3 3.3 2.5 1.1 4.5.8 6.9-.5 6.3-3.5 13.2-3.3 20.1-3.6-5.9 1.3-11.7 3-17.2 5.3-1.2.5-2.6.8-2.6 2.4 0 1.5 1.1 2.4 2.4 3.1 2.4 1.3 5.1 1.8 7.7 2.3 9.1 1.6 16.6.1 24.9-1.6.2-.1.4-.1.6-.2 8.9-2 16.7-6.4 24.4-11.2 1.1-.7 2.1-1.8 3.6-1.7.1-.1.2-.2.2-.3.2.3.1.4-.2.4-1.1 4.2-3.9 7.3-6.7 10.3-5.5 5.8-11.3 15-18.7 17.4-3.5 2.7-27.5 16-29.6 39.9-.1 1 25.9.7 27 2.7h7.6c.3.2.7.4 1 .7h7.7c0 .1-.1.2-.1.3q-.75 1.95-1.8 4.2c-.6 1.5-1.2 3-1.7 4.7 1.5-.9 2.8-2 4-3.2q1.8-1.8 3-4.2c.2-.4.4-.9.5-1.4 0-.1.1-.3.1-.4h5.9c0 .1-.1.2-.1.3q-.75 1.95-1.8 4.2c-.6 1.5-1.2 3-1.7 4.7 1.5-.9 2.8-2 4-3.2q1.8-1.8 3-4.2c.2-.4.4-.9.5-1.4 0-.1.1-.3.1-.4h5.9c0 .1-.1.2-.1.3q-.75 1.95-1.8 4.2c-.6 1.5-1.2 3-1.7 4.7 1.5-.9 2.8-2 4-3.2q1.8-1.8 3-4.2c.2-.4.4-.9.5-1.4 0-.1.1-.3.1-.4h50.4c0-.2-.1-.5-.1-.7h11.6v.1l-.3.9q-.75 1.95-1.8 4.2c-.6 1.5-1.2 3-1.7 4.7 1.5-.9 2.8-2 4-3.2q1.8-1.8 3-4.2c.2-.4.4-.9.5-1.4.1-.3.1-.5.2-.9s0-.6 0-.9c0-1.1-.4-2.2-1-3.1-.5-.8-1.2-1.3-1.8-1.8.5-4.7 2.2-9.2 3.2-13.7.3-1.2.9-2.5 0-3.8-1.4.5-1.6 1.7-2 2.6-2.5 5.6-5.1 11.1-7.5 16.8-1.1 2.5-2.9 3.6-5.5 3.5-3.6-.1-6.7-1.9-9.9-3.1-1.6-.6-1.9-2.3-1.4-4 .6-2.1 1.7-3.9 2.7-5.8 2.3-4.1 3.3-4.2 6-.4 2 2.8 4.1 2.9 5.8-.1 1.2-2 2.1-4.2 2.9-6.4 2.1-6 5.5-11.2 9.6-15.9 2.1-2.4 4.7-4 7.8-5 2.2-.7 3.9.3 5.5 1.9 1.5 1.5.9 3 .1 4.5-2 3.9-3.6 8-5.9 11.8-3.4 5.7-3.7 12.4-6.2 18.4-.5 1.2-.7 2.6-.3 4 .5-.2 1.9-.3 3.9-.6v.7c0 .1 0 .2-.1.3l-.3.9q-.75 1.95-1.8 4.2c-.6 1.5-1.2 3-1.7 4.7 1.5-.9 2.8-2 4-3.2q1.8-1.8 3-4.2c.2-.4.4-.9.5-1.4.1-.3.1-.5.2-.9s0-.6 0-.9c0-.2 0-.4-.1-.7 1.8-.2 3.9-.4 6-.5.1.5.1.8.1 1.3v.3c0 .1 0 .2-.1.3l-.3.9q-.75 1.95-1.8 4.2c-.6 1.5-1.2 3-1.7 4.7 1.5-.9 2.8-2 4-3.2q1.8-1.8 3-4.2c.2-.4.4-.9.5-1.4.1-.3.1-.5.2-.9s0-.6 0-.9c0-.5-.1-1-.3-1.6 8.4-.8 16.4-1.5 15.2-2.1-11.2-5.1-.5-15.1-4.2-22.4s-11.2-14.1-12.1-16.1c-.8-1.9-.3-2.6 1.8-2 3.8 1.1 7.5.7 11.2-.4 4-1.2 7.8-3.1 11.5-5 1.6-.8 2.2-2.2 1.3-3.6-.9-1.6-1.8.1-2.5.6-4 2.5-8.2 3.9-12.9 4-1.2 0-2.4-.1-3.5-1.4 1.4-.7 2.7-.4 3.8-.5 2.3-.1 4.6-.5 6.1-2.3 2.7-3.3 6.1-3.4 9.8-2.7 1.5.3 3.1.6 4.6.6 6.3.3 12.1-1.6 17.5-4.8 1.3-.8 2-2.3 1.4-3.5-.6-1.3-2-.4-3.1 0-8.1 3.3-16.5 3.2-25 2.8-.5 0-1-.2-1.4-.4-1.8-1-3.9-1.9-3.3-4.5.5-2.1 2.9-3.1 5.5-2.4 5.9 1.7 11.9 3 18 3.6 1.3.1 3 .7 3.6-1s-.9-2.3-2.1-3c-4.1-2.5-8.3-4.7-12.8-6.4-1.4-.5-3.7-.9-2.8-2.9.7-1.5 2.4 0 3.6.4.3.1.5.2.8.3 5.7 2.9 11.8 3.9 18.1 4 8.8.2 17.1-2.5 25.7-3.8 2.1-.3 2.4-1.7 1.5-3.5-.3-.7-1.2-1.1-1-2.1 2.2-.2 4.3.4 6.1 1.5 2 1.3 2.7.6 3.2-1.4 1.5-6.7 6.2-10.2 12.5-11.4 6.5-1.2 13-2.6 19.3-4.7 11.1-3.6 21.9-8 30-16.7 3.4-3.7 7.2-6.1 11.6-7.9 11.4-4.8 23.1-9.1 32.6-17.3 5.3-4.7 11.5-7.5 18-10 8.3-3.2 15.7-8 21.1-15.2 4-5.3 9-8.7 14.7-11.6 4.5-2.3 9-4.7 12.4-8.6 1.6-.5 2.5-1.4 2-2.6M16.6 22.1c-.6-.5-1.8-.9-1.3-2 .4-.8 1.4-.4 2.1-.4 11.1.2 22.2 1 33.2 1.7 8.2.5 16.3 1 24.5 1.3 13 .5 26.1 1.1 39.1 2.3 3.3.3 6.3 3.2 6.6 6.4.2 2.6-1.5 3.4-3.7 3.5-10.1.6-20.2 1.8-28.1 1.9-13.2.7-24.1-.9-35-2.2-7.9-1-15.8-2-23.3-5-5-1.9-9.8-4.3-14.1-7.5m24 20.4c-.6-.4-1-.9-1.5-1.3-.2-.2-.2-.5-.5-1 4.8 1.1 9.4 2.1 14 3.2 9.2 2.2 18.6 2.6 28 3.4 16.4 1.4 32.7-.3 48.9-1.5 1.2-.1 2.3 0 3.2 1 2.8 3 5.6 5.9 8.5 9.1-5.7 2.2-11.5 2.8-17.2 3.6-9.5 1.4-19.1 2.2-28.8 1.9-19.9-.8-38-7.3-54.6-18.4m102.1 3.4c.8 1.9 3 .9 4.5.8 12.5-.5 25-1.3 37.4-3.2 5.3-.8 10.6-1 16-1.3 1.6-.1 3-.4 3.6-2 .9-2.8 3.3-4 5.7-5.1 5.3-2.5 11-3.6 16.8-4.6.6-.1 1.5-.4 1.8.4.3.7-.4 1.2-.9 1.7-1.7 1.7-3.9 2.2-6.1 2.3-3.6.2-6.8 1.3-10 2.9-2.8 1.4-3.1 2.8-1.4 5.3.6.9 1.4 1.9.7 2.9-.8 1.3-2 .8-3.1.3-1.7-.7-3 .4-4.4.9-6.2 2.6-12.3 5.4-18.9 6.6-12.2 2.1-24.3 2.3-36.2-1.9-5.3-1.8-9.7-4.8-13.4-9-.6-.6-1.5-1.4-1.1-2.2.5-1.1 1.5-.2 2.3-.1 3.1.5 6.2.9 9.6 1.4-1.1 1.7-3.7 2-2.9 3.9m15.9 30.6c-.4 1.3-2.6.8-4 1-10.5 1.3-21 2.7-31.6 2.4-11.5-.3-22.8-2.1-33.3-7.3-.8-.4-1.9-.6-2.6-1.9 6.3.7 12.2 1.6 18.2 2 13 .9 25.8.1 38.6-2.2 1.6-.3 3.3-.5 4.9-.9 3.4-.9 5.2 1.6 7.1 3.5 1.1 1 3.2 1.8 2.7 3.4m-25.2 22.3c18 .5 35.4-3.3 53.1-2.9 1.3 0 2.6.5 4 .7-4.7 7.2-51 10.5-57.1 2.2m43.3-17.5c-.5-.4-1.4-.6-1.3-1.4.2-.7 1-.8 1.6-1.1 1.3-.7 2.5-.2 3.6.3 17.9 7.8 35.1 4.2 52.1-3.1 3.2-1.4 3.2-3.2.3-5.2-3.2-2.3-5.7-5.1-7-8.7-.7-2-1.6-2.1-3.4-1.2-9.1 4.5-18.6 7.9-28.6 9.5-14.3 2.3-28.3 2.3-41.2-5.5-1.6-1-4.1-2.2-3.3-3.8.9-1.9 3.3-.3 5 .2 5.5 1.8 11 2.8 16.8 3.1 13.1.8 25.7-1.6 38.3-5 2.2-.6 4.3-1 6.5-1.5 1.1-.2 2.1-.7 2.7-1.6 2.7-4.5 7.3-3.3 11.3-3.6 1.6-.1 1.6 1 1.2 2.2-2 6.3-.8 9.7 4.6 13.6 3.5 2.5 7.6 3.5 11.6 4.6 1 .3 2.4.4 2.6 1.5.2 1.3-1.4 1.4-2.2 1.9-10.3 5.9-21.1 10.4-32.7 12.6-3.4.6-6.9 1.1-10.5.9-10.2-.3-19.9-1.9-28-8.7m99.9 6.8c-7.1 3.6-13.5 8.1-18.4 14.4-.6.8-1.5 1.7-2.7.7-1.3-1-.8-2-.1-3 5.2-6.7 11.3-12.3 19.5-15.1 2.1-.7 3.5-.2 3.4 1.3-.2.9-.9 1.3-1.7 1.7m6.6 4.8c1.4 2.9 1.2 5.2-1.1 7-5.2 4.1-9.9 8.7-12.9 14.8-.2.4-.6.8-1 1.1-.9.6-2.1 1.7-3.1.8s.1-1.9.6-2.8c2.5-4.3 5.1-8.5 8.3-12.3 2.7-3.1 6-5.5 9.2-8.6m-18.3-7.6c-11.5 6.9-23.2 13.4-37.3 13.5-3.1 0-6.2.3-9.3-.1-.6-.1-1.2 0-1.6-1 2.6-1.3 5.4-1.3 8.1-1.8 9.8-1.8 18.4-6.6 27.3-10.7 1.4-.7 2-2 2.3-3.5.6-3 2.7-3.7 5.4-3.5s6.1 2.3 6.6 4.2c.4 1.5-.5 2.3-1.5 2.9m-4-11.5c-.9 1-1.9 1.3-3.1.5-1.3-.9-.9-2-.3-3.1 1.3-2.7 3.5-3.7 8.1-3.1-1.7 2.1-3.2 3.9-4.7 5.7m-2.1-19.2c-.3 1.7-2.1.6-3.2.7-1.6.1-3.3 0-4.9 0-4.7-.3-9.3.4-13.7 2-1.1.4-2.3 1.1-2.9-.5-.6-1.5-.3-3 1.3-3.7 1.3-.6 2.8-1 4.2-1.1 4.7-.5 9.5-.7 14.2-.6.8 0 1.6 0 2.3.3 1.2.6 3 1.3 2.7 2.9m-72.4 64c-.3 0-.7-.1-1.4-.2 1-1.5 2.2-1.7 3.3-2 9.4-3 18.9-5.9 28.3-8.9 4.3-1.4 8.7-.4 13-.4.5 0 1.2.4 1.4.8.4.7-.4 1.2-.9 1.6-1.2 1-2.5 1.8-4 2.4-12.9 4.6-26.2 6.5-39.7 6.7m61.2-.9c-10.6 6.2-21.8 11-33.9 13.4-3.2.6-6.3.6-9.6-.2 3.5-2.1 7.3-3.5 11.1-4.8 11.8-3.9 22.8-9.4 32.3-17.6 3.2-2.8 6.1-2.3 8.7 1.1.9 1.1-.1 1.6-.7 2.1-2.3 2.5-5 4.4-7.9 6m20 54c-2 2.8-6.9 6.8-10.9 8.7-.4-1.7.7-2.4 1.3-3.2 1.6-2.2 3.3-4.3 5-6.4.7-.9 1.5-1.7 2.8-1.9.9-.2 1.8-.2 2.4.6.6.7-.1 1.5-.6 2.2m26.6-17.6c-.7.6-1.5.9-2.4.5-2.3-.9-4.2-.2-5.7 1.6-1 1.1-1.8.9-2.4-.4-.4-.8-.7-1.6-1-2.4-.3-1-.8-2.1 0-3.1.8-1.1 2-.5 3-.1 3.7 1.3 7.1.7 10.3-1.2 1-.6 1.9-1.4 3.5-.9-1.7 2.3-3.4 4.2-5.3 6m10.3 5.3c1.8-1.5 3.5-2.6 5.5-3.3-.1 3-1.3 3.8-5.5 3.3m8.7-10.7c-1.8.6-3.7 1-5.6 1.5-1.1.1-1.8-.3-1.5-1.5.6-3 5.1-4.7 7.4-2.7 1.4 1.1 1.5 2.1-.3 2.7m5-32.3c-1.2-.3-1.7-1.2-.9-2.3 1-1.4 2.4-2.4 3.9-3.3.3-.2.8.1.8.5-.1 1.7-1.4 2.6-2.2 3.9-.3.6-.7 1.1-1.6 1.2m1.3 4.6c-.2.7-.6 1.4-1 2.1-.5.7-1.2 1-2 .6-.5-.2-1.3-.3-1.2-1 0-.7.8-1 1.3-1.4.6-.4 1.3-.9 1.9-1.3.8 0 1.2.4 1 1m21.5-15c-4.5 1.2-7.5 4.2-10 8-1.2 1.8-.9 3.5.8 4.9 2.6 2.2 5.3 3.5 8.8 2.3.9-.3 1.9-.4 2.9 0-.5 1.7-1.6 3.1-2.5 4.5-.8 1.3-1 2.5.3 3.6 2.2 1.9.2 2.4-1.1 2.5-3.3.3-5.9 1.8-8.2 4-1.4 1.3-1.5 2.5 0 3.9.7.6 2.4 1 .9 2.3-1.1 1-2.4 1.3-3.7.2-2.6-2.1-2.7-5.8-.2-8 1.5-1.4 3.1-2.7 4.7-4 1.1-.9 1.9-2 2.3-3.3.8-2.7.1-3.5-2.5-2.8-2.3.6-4.1.9-3.8-2.5.1-1.3-.7-2.2-1.7-2.9-2.5-2-2.8-4.2-1.1-6.9.8-1.2 1.5-2.5 2.4-3.6 1-1.2 1.8-2.3 1-3.9-.4-.8-.3-1.7.5-2.3.9-.7 1.6-.3 2.3.4 1 .9 2.2 1.1 3.5 1 1.2-.1 2.3-.1 3.5 0 1.6.1 4.2.1 4.3 1.4.3 1.6-2.1.9-3.4 1.2m92 .2c-1.4.1-2-1.1-2.7-1.9-4.2-4.1-9.1-6-15-5.7-7.4.4-14.8.5-22.2.7-2.9.1-5.6-.3-8-2.2-1-.8-2.1-1.1-3.2-.4-.7.4-.8 1.3-.7 2.1.2 1.3.8 2.1 2.2 2.4 4.8 1.3 9.6 1.2 14.5.8 7.9-.5 15.8-.2 23.6.7 2 .2 3.5 1.3 5.3 2.7-4.1 1.2-8.1.9-12 1.3-9.5.9-19 1.8-28.5 2.2-7.2.3-14.9-1.5-16.9-10.1-.3-1.3-1.2-2-2.6-1.4-7.3 3.1-13.6.9-19.6-3.2-4-2.8-8.4-3.2-13-1.3-2.1.9-4.4 1.5-6.6 2.2-1.8.5-2.9 1.3-3 3.4 0 1.1-.3 2.4-2.1 1.4-2.1-1.1-3.4-.3-3.7 2.2-.2 2.3-.7 3.7-3.4 2-1-.6-2.1-.1-2.8.8-.8 1-1 2-.3 3.2 1.8 3 1.4 3.8-1.7 5.2-1.9.8-5.3 1.1-2 4.4.8.8-.2 1.6-.7 2.3-1.8 2.5-3.7 5-5.4 7.6-1.4 2.2-.9 3.3 1.6 4 3.9 1.2 7.1-.3 9.9-2.7 1.7-1.4 3.4-2.4 5.8-1.6 1.6.5 1.9 1.2 1.2 2.5-.7 1.5-1.5 2.9-2.3 4.4-.9 1.7-1.7 3.5.9 4.6.6.3.9.7.4 1.4-.9 1.2-1.8 2.3-3.5 2.3-.8 0-1.3-.5-1.4-1.3-.1-.6 0-1.2.1-1.7.5-4.4-.4-5.1-4.8-4.2-2.9.6-5.1 2.2-7.6 3.6-1.1.6-2.2 1.2-3.3.5s-.2-1.8-.1-2.7c0-3.9 1.5-7.6 2.2-11.4.2-1.2.7-2.5-.9-3.3-1.5-.8-2.2.2-3 1-1.6 1.5-3.3 3.1-4.8 4.7-1.9 2-1.7 3.1.7 4.6 4.1 2.6 4.1 2.7-.3 5-3.2 1.7-6.3 3.6-9.7 4.8-3.6 1.3-6.9.7-9.7-1.9-1-1-2-1.8-3.6-1.2-1.9.7-1.2 2.2-1.3 3.5 0 .5 0 1.1-.2 1.4-1.4 1.8-2.1 3.3.8 4.3 1 .3.6 1.4.5 2.1-.3 1.7.7 2.9 1.3 4.3.3.7-1.8 2.3-1.9 4 0 .6-.1 1.2 0 1.7.4 2.1-.6 3.3-2.5 3.4-4.6.3-7.6 3.1-10.2 6.5-2.1 2.9-4.5 5.6-6.9 8.3-1.2 1.4-2.6 2.6-4.9 3.1 2.4-6.2 8-10.6 8.5-17.5q-9 13.35-21.9 22.5c-.6-.6-.6-.9-.3-1.3 3.7-5.1 5.8-11 8.2-16.7.5-1.2.3-2.5.3-3.7 0-1.8-.2-3.7 1.6-5 .5-.4 1.1-1.3.4-2.1-.8-.8-1.4.2-1.9.6-4.3 3.7-8.4 7.6-13.5 10.1-.8.4-1.7 1.9-3 .4-1.1-1.3-1.1-2.4-.3-3.9 1.7-2.9 3.9-5.3 6.6-7.3 1.2-.9 2.4-1.7 1.8-3.6-.4-1.2.7-1.2 1.3-1.5 3.5-2.1 7.2-3.8 11.4-4 1.9-.1 2.3-1.5 2.8-2.8 2.1-6.1 6.2-10.7 11.6-14.2 1-.6 1.9-1.4 3.3-.8-.1 1.4-1.4 2-2.2 2.8q-3.15 3.3-5.4 7.2c-.5.9-1.3 2-.6 2.9.6.8 1.8.1 2.7-.1 4.7-1.1 8.5-3.7 12.2-6.7.9-.7 1.8-1.4 3-1.7 3.8-1 6.7-4.6 6.9-8.4.1-1.3.4-2.9-1.1-3.6-1.4-.7-2.9-.3-4.1.8-1.6 1.4-3.1 3-4.6 4.5-.6.6-1.1 1.3-2.1 1.5-1.5-4.5 3.3-11 8.2-10.9 3.1.1 5.2-1.2 6.8-3.7 1.1-1.7 2.5-2.9 4.1-4.1.6-.5 1.1-1.2 1-2-.2-1.1-1.2-.9-1.9-.8-2 .2-1.8-.8-1.1-2.1.4-.7.7-1.4 1.3-1.9 1.8-1.5 3.7-2.9 2.2-5.7-.4-.8.5-1.6 1.2-2.2 2.6-2.4 7.3-2.2 9.8.4 2.3 2.4 6.1 2.8 8.5 1.1.8-.6 1.5-1.5 1.1-2.5s-1.3-.3-2-.3c-2.1.2-3.9-.3-4.6-2.5-.5-1.5-1.4-1.8-2.9-1.9-1.8-.1-3.7-.3-5.5-.8-2.9-.7-3.4-1.8-1.8-4.3 2-3.3 5-5.7 8-8 1.2-.9 3.2-1.4 2.8-3.3-.4-1.7-2.3-1.6-3.7-1.9-11.3-2.5-18.7-10.1-25.4-18.9-7-9.1-13.6-18.6-21.2-27.2-7.9-8.8-17.5-13.9-29.6-12.7-8.7.9-16.7 4.4-24.5 8-1 .4-1.9 1.2-1.7 2.4.3 1.3 1 2.1 2.5 2.4 5.3 1.2 10.5.4 15.7-.3 2-.3 5.5-1 5.6.3.1 2-3 1.9-4.8 2.4-5.9 1.7-11.9 2.1-17.7-.1-5.1-1.9-6.1-4.9-3-9.5.9-1.4 2.2-2.5 3.2-3.8.6-.8 1.2-1.6.8-2.7-.4-1.2-1.5-1-2.5-1-8.4-.3-16.8.3-25.1.8-12.5.7-25.1 1.1-37.7 1.5-1.4 0-3-.3-3.6 1.7s.6 3.2 2 4.1c4.4 2.6 9.4 3.4 14.4 4.3 12 2.2 24 1.9 36.1.7 3.3-.3 6.2.1 8 3.5 1.6 3 1.1 4.4-1.9 5.8-3.2 1.4-6.8 1.8-10.2 2.3-10.1 1.5-20.2.6-30.2-.9-2.4-.3-4.8-.5-7.2-.9-7.7-1.2-13.5-5.6-18.6-11.3-1-1.1-.8-2.1 0-3.1 1.2-1.4 2.4-2.8 3.6-4.3.5-.6 1.2-1.2.7-2.1-.4-.6-1.3-.3-1.9-.3-6.8.2-13.6.4-20.4.7-17.4.8-34.9.4-52.3.5-13.2.1-26.3 0-39.5 0 11.1-.7 22.2-.8 33.4-1.2 21.8-.9 43.6-1.5 65.4-2.2 16.2-.5 32.3-1 48.5-1.3 20.7-.4 41.3-1.7 61.9-1.3 9 .2 17.9.2 26.4 3.7 9.1 3.8 15.9 10.2 21.5 18.2 5.4 7.7 9.9 15.9 16.1 22.9 9.6 10.7 21.7 15.3 36.1 13.2 2.4-.4 5.8 3.4 5.2 5.9-.2.7-.8.9-1.3.9-3.4.2-6.4 2.9-10.2 1.6-1.2-.4-1.3.8-1 1.7.9 2.4 4.4 3.5 6.6 2 4-2.7 7.9-3.3 12.2-.5 3.5 2.3 7.6 3.3 11.9 3.7 1 .1 2.2.2 2.5-.9.3-1.3-1-1.4-1.9-1.6-2.1-.5-4.1-1.2-6.2-1.5-4.5-.8-6.8-3.8-8.6-7.5-.9-1.8-.3-2.8 1.6-3 .5 0 1 0 1.5-.1 12.8-.2 25.5-.4 38.3-.7 6.3-.1 12.5-1.7 18.9-1.2 7 .5 13.6 5.6 15.6 12.3.7 2.3-.4 3-2.5 3-6.3 0-12.6-.2-18.9-1.4-4.7-1-9.3-.5-13.9.6-1.1.2-2.2.5-2.1 2 .2 1.5 1.4 1.3 2.5 1.3 5.6.3 11.3-1 16.9.5 3.1.8 6.7 1 8.9 4.3.7 1.1 2.6 1.9 3.9.1 4.7-6.4 11.2-8.7 18.7-7.2 10.1 1.8 16.6 13.1 13.4 25M404.3 51c3.2-1.7 5.9-1.5 8.3.4 2.2 1.7 2.3 4.3.4 5.9-1.4 1.2-2.8 1.2-3.5-.6-.9-2.4-2.5-4.2-5.2-5.7m15.4 13.3c-.6-.1-1.2-.2-1.7-.4-1.1-.5-3-.4-2.8-2 .2-1.8 2-2.2 3.7-2.1 4 .3 7.9.3 11.9-.1 5-.5 10.1-.9 15.1-1.2.9-.1 1.7-.3 2.4-.9 4.1-3.8 9.5-2.9 14.3-4.3-.9 1.7-2.3 2.7-3.8 3.5-12.3 6.3-25.3 9.1-39.1 7.5m26.4-43.9c-.4-.3-1-.5-.5-1 1.3-1.6 3.2-2.1 5.2-2 1.7 0 2.7.9 3.3 2.4.1.3.1.6.1 1.1-1.4 3.7-3.9 6.7-7.4 8.9-1.4.9-2.9 2-4.9 1.4-1.6-.4-2.1-1.1-.7-2.3 1.5-1.2 3.1-2.3 4.7-3.5 2.4-1.8 2.4-3.2.2-5m18.2 20.8c3.6-.4 7.1-1 10.7-1.5 1.1-.1 2.2-.4 2.6-1.6.3-1-.7-1.5-1.4-1.9q-1.95-1.35.3-1.8l12.6-2.4c.5-.1 1.2-.4 1.4.4.2.7-.5 1-.9 1.3-3.9 3.1-8 5.8-12.6 7.8-13 5.7-26.6 8.3-40.8 7.5-.7 0-1.4-.1-2-.4-1.1-.6-3.3-.5-3.1-2.1s2-2.6 3.7-2.8c1.6-.2 3.3 0 5 0 8.2 0 16.3-1.5 24.5-2.5m-32.2-3.5c-.7 5.2-4.4 9.5-8.9 10 1.3-2.9 3.4-5.1 3.6-8.1.4-4.9-1.2-6.4-6.1-5.3-.4.1-.8.1-1.2.1 1.9-4.5 8.3-6 11.6-2.5 1.6 1.5 1.2 3.7 1 5.8m33.8 48.7c-4.5.8-9 1.3-13.5 1.8-2.5.2-5 .1-7.5-.5-1.3-.3-2.8-.4-2.7-1.9.1-1.2 1.2-2.1 2.7-2.2 3.8-.4 7.5-.8 11.3-1.1 6.7-.7 13.3-.9 19.9-2.3 1.1-.2 2-.6 3-1.1 4.6-2.7 5.9-3.1 11.6-2.7-7.6 4.9-15.8 8.5-24.8 10m67.7-34.3c-11 6.8-23.1 10.4-35.5 13.3-10.6 2.5-21.4 3.5-32.3 4.7-3.6.4-7.2.7-10.7 1.1-.7.1-1.7.4-2-.6-.2-.7.5-1.2 1.1-1.6 2.5-2 5.1-4 7.6-5.9 1.2-.9 2.6-1.2 4.1-1.2 6.8-.1 13.6-.3 20.4-.5 8.6-.3 17-1.4 25.3-3.6.9-.2 2.1-.5 2.6-1.1 3.4-4.7 8.7-4.7 13.6-5.7 2.7-.6 5.6-.8 8.4-1.1-.4 1.3-1.6 1.6-2.6 2.2m28.7-16.9c-14.5 6.9-29.8 11.2-45.9 12.1-9.4.6-18.8 1.1-28.3 1.6-1.3.1-2.9.4-3.5-1.3-.5-1.5.4-2.6 1.4-3.6 2.1-2.3 4.9-3.1 7.9-3 9.9 0 19.9-.3 29.8-1.3 15.6-1.6 31.1-3.5 45.4-10.5.4-.2.9-.4 1.3-.5.2 0 .4.1.8.2-2.5 2.8-5.6 4.7-8.9 6.3m38.4-27C591.1 14 581 18.7 569.9 21c-13.9 2.9-27.9 4-42 4.3-5.4.1-10.7.4-16.1 0-.9-.1-2 0-2.3-.9s.8-1.5 1.5-2c2.8-2 5.2-4.3 9.3-3.9 3.8.3 7.4-2 11.3-2.7 7.9-1.4 15.9-1.6 23.8-2.3 11-1.1 22-2.4 32.9-4.2.4-.1.8-.4 1.9-.9-9.4 0-18.1-.1-26.9 0-12.6.2-25.1 2.4-37.6 1.3-4.9-.4-7.4 1.5-10.4 4.5-6.4 6.6-15 9.2-23.6 11.4-9.2 2.3-18.6 3.1-28 3.6-1.9.1-3.9.4-5.8.5-1.4 0-2.9-.4-3.2-2-.3-1.5.6-2.5 1.9-3.3 3.4-2 7.2-2.3 10.9-2.7 14.9-1.8 29.4-5 43.8-9.2.5-.2 1.2-.2 1.6-.9-.7-.8-1.7-.5-2.6-.5-11.1.1-22.2.3-33.3.5-1.8 0-3.4.3-4.8 1.6-1.8 1.6-3.2 1-4-1.1-.6-1.6-1.6-2.2-3.3-2.2-11 0-21.9 1.7-32.9 2-13 .4-20.9 8.1-28.4 17.1-5.9 7-11.9 13.9-18.3 20.5-8.4 8.8-18.6 13.8-30.8 15-2.3.2-4.7 1-7.1.4.4-1.2 1.4-1.3 2.1-1.6 15.1-5.5 26.5-15.6 36.3-28 6.2-7.9 12.7-15.5 20.7-21.8 6.5-5 13.5-7.8 22-7.7 27.6.1 55.1-.2 82.7-.6 18.9-.3 37.8-.2 56.7-.5 10.6-.2 21.2-.7 31.8 0 1.2.1 3-.5 3.4.8.5 1.4-1.3 2.1-2.4 2.7" class="st1" data-source="https://football-logos.cc"></path><!-- source: https://football-logos.cc --></svg>