<svg xmlns="http://www.w3.org/2000/svg" xml:space="preserve" viewBox="0 0 700 800"><!-- Source: https://football-logos.cc --><path d="M1.509 599.5c-1.386-85.415-1.304-170.841 0-256.254 1.256-82.292 5.453-146.51 43.145-196.723C90.058 86.036 165.7 42.385 263-.5c97.3 42.885 172.942 86.536 218.346 147.023 37.692 50.213 41.889 114.431 43.145 196.723 1.304 85.413 1.386 170.84 0 256.254z" style="display:inline;fill:#fec459;fill-opacity:1;stroke:none;stroke-width:1.87500036;stroke-miterlimit:4;stroke-dasharray:none;stroke-opacity:1" transform="matrix(1.33333 0 0 -1.33333 -.667 799.333)" data-source="https://football-logos.cc"></path><path d="M10.848 590.125c-1.336-82.364-1.258-167.418 0-249.78 1.211-79.354 5.258-141.278 41.604-189.698C96.235 92.32 169.174 50.229 263 8.875c93.826 41.354 166.765 83.445 210.548 141.772 36.346 48.42 40.393 110.344 41.604 189.698 1.258 82.362 1.336 167.416 0 249.78z" style="display:inline;fill:#fff;fill-opacity:1;stroke:none;stroke-width:1.87500036;stroke-miterlimit:4;stroke-dasharray:none;stroke-opacity:1" transform="matrix(1.33333 0 0 -1.33333 -.667 799.333)"></path><path d="M20.187 580.75c-1.287-79.314-1.211-163.996 0-243.307 1.166-76.414 5.063-136.045 40.063-182.672C102.411 98.604 172.65 58.072 263 18.25c90.35 39.822 160.589 80.354 202.75 136.521 35 46.627 38.897 106.258 40.063 182.672 1.211 79.311 1.287 163.993 0 243.307z" style="display:inline;fill:#2a7fff;fill-opacity:1;stroke:none;stroke-width:1.87500036;stroke-miterlimit:4;stroke-dasharray:none;stroke-opacity:1" transform="matrix(1.33333 0 0 -1.33333 -.667 799.333)"></path><path d="M390.5 356.5a127.5 180 0 0 0-127.5-180 127.5 180 0 0 0-127.5 180 127.5 180 0 0 0 127.5 180 127.5 180 0 0 0 127.5-180" style="opacity:1;vector-effect:none;fill:#fff;fill-opacity:1;stroke:none;stroke-width:2.25;stroke-linecap:butt;stroke-linejoin:miter;stroke-miterlimit:4;stroke-dasharray:none;stroke-dashoffset:0;stroke-opacity:1;paint-order:fill markers stroke" transform="matrix(1.33333 0 0 -1.33333 -.667 799.333)"></path><path d="M180.5 251.5v210h44.427L263 401.325l38.073-60.175V461.5H345.5v-210h-44.427L263 312.324l-38.073 60.825V251.5z" style="fill:#2a7fff;fill-opacity:1;stroke-width:.99999982" transform="matrix(1.33333 0 0 -1.33333 -.667 799.333)"></path><g style="font-style:normal;font-variant:normal;font-weight:400;font-stretch:normal;font-size:77.27648163px;line-height:1.25;font-family:&quot;Franklin Gothic Demi&quot;;-inkscape-font-specification:&quot;Franklin Gothic Demi&quot;;letter-spacing:0;word-spacing:0;fill:#fff;fill-opacity:1;stroke:none;stroke-width:.75" data-source="https://football-logos.cc"><path d="M89.419-586.033 79.155-582.6q-2.075-6.113-8.791-6.113-7.17 0-7.17 4.642 0 1.849 1.321 3.131 1.359 1.283 6.075 2.227 7.886 1.584 11.546 3.207t6.15 5.245q2.529 3.584 2.529 8.037 0 6.98-5.396 12.074-5.358 5.094-15.923 5.094-7.924 0-13.508-3.584-5.547-3.623-7.32-10.717l11.168-2.528q1.887 7.207 10.49 7.207 4.15 0 6.188-1.584 2.038-1.623 2.038-3.85 0-2.263-1.85-3.508-1.848-1.245-7.13-2.34-9.849-2.037-14.037-5.546-4.188-3.547-4.188-10.34 0-6.867 4.98-11.583 5.019-4.717 13.584-4.717 15.169 0 19.508 12.113" aria-label="S" style="font-size:77.27648163px;fill:#fff;stroke-width:.75" transform="matrix(1.45203 0 0 1.22434 -.667 799.333)"></path></g><g style="font-style:normal;font-variant:normal;font-weight:400;font-stretch:normal;font-size:77.27648163px;line-height:1.25;font-family:&quot;Franklin Gothic Demi&quot;;-inkscape-font-specification:&quot;Franklin Gothic Demi&quot;;letter-spacing:0;word-spacing:0;fill:#fff;fill-opacity:1;stroke:none;stroke-width:.75"><path d="m432.938-586.033-10.263 3.433q-2.075-6.113-8.792-6.113-7.169 0-7.169 4.642 0 1.849 1.32 3.131 1.36 1.283 6.076 2.227 7.886 1.584 11.546 3.207t6.15 5.245q2.529 3.584 2.529 8.037 0 6.98-5.396 12.074-5.358 5.094-15.923 5.094-7.924 0-13.509-3.584-5.546-3.623-7.32-10.717l11.17-2.528q1.886 7.207 10.489 7.207 4.15 0 6.188-1.584 2.037-1.623 2.037-3.85 0-2.263-1.848-3.508-1.85-1.245-7.132-2.34-9.848-2.037-14.036-5.546-4.189-3.547-4.189-10.34 0-6.867 4.98-11.583 5.02-4.717 13.585-4.717 15.168 0 19.507 12.113" aria-label="S" style="font-size:77.27648163px;fill:#fff;stroke-width:.75" transform="matrix(1.45203 0 0 1.22434 -.667 799.333)"></path></g><g style="fill:#fff;stroke-width:1.04880893"><path d="m225.763 122.366 9.716-78.416-16.418 7.531-1.35 16.393-15.46 9.028-4.236-15.296-13.792 7.5 19.966 60.76zm-19.066-35.08 9.06-5.242-3.133 30.45zM351.753 89.956l15.775 8.459.64-12.508-31.358-18.03-2.985 68.07 15.72 8.408zM383.622 161.164l3.128-63.213-15.327-9.526-3.128 63.213zM185.474 139.927l-2.862-69.32-16.438 9.32-11.544 48.676-1.623-41.423-13.757 9.291 2.54 67.726 17.133-10.904 12.802-52.177 1.59 45.1z" style="font-style:normal;font-variant:normal;font-weight:400;font-stretch:normal;font-size:100px;line-height:1.25;font-family:&quot;Franklin Gothic Demi&quot;;-inkscape-font-specification:&quot;Franklin Gothic Demi&quot;;letter-spacing:0;word-spacing:0;fill:#fff;fill-opacity:1;stroke:none;stroke-width:.78660673" transform="matrix(1.21212 0 0 -1.33333 31.212 798.867)"></path><path d="M288.462 105.11V70.452c.113-9.375-.488-17.073 10.09-18.36 7.53-.65 20.16 4.771 24.809 9.028 2.208 2.097 3.944 4.617 4.993 7.662 1.283 3.807 1.584 7.861 1.639 11.138l-.375 38.049c-.492 4.29-2.016 7.121-4 8.899-2.81 2.52-6.544 2.924-9.566 2.374l-16.516-4.465c-8.397-2.716-10.283-8.628-10.89-12.226-.399-2.362-.052-3.712-.184-7.441m14.214-28.557v30.158c.124 1.995 1.125 4.013 2.539 5.564 1.962 2.155 4.721 3.41 7.037 2.458 1.585-.727 2.791-2.438 2.791-5.558V76.69c-.507-7.43-6.96-10.21-10.164-8.12-1.66.933-2.414 3.446-2.203 7.983" style="font-style:normal;font-variant:normal;font-weight:400;font-stretch:normal;font-size:100px;line-height:1.25;font-family:&quot;Franklin Gothic Demi&quot;;-inkscape-font-specification:&quot;Franklin Gothic Demi&quot;;letter-spacing:0;word-spacing:0;fill:#fff;fill-opacity:1;stroke:none;stroke-width:.78660679" transform="matrix(1.21212 0 0 -1.33333 31.212 798.867)"></path><path d="M331.574 109.35Z" style="fill:#fff;stroke:#000;stroke-width:.78660673px;stroke-linecap:butt;stroke-linejoin:miter;stroke-opacity:1" transform="matrix(1.21212 0 0 -1.33333 31.212 798.867)"></path><g style="font-style:normal;font-variant:normal;font-weight:400;font-stretch:normal;font-size:110.30091858px;line-height:1.25;font-family:&quot;Franklin Gothic Demi&quot;;-inkscape-font-specification:&quot;Franklin Gothic Demi&quot;;letter-spacing:0;word-spacing:0;fill:#fff;fill-opacity:1;stroke:none;stroke-width:.78660673"><path d="M334.726-53.081v26.157l-21.42-4.596v-60.878c3.162-.013 12.831.034 16.036 0 16.692-.283 27.387 1.468 33.641 5.16 5.708 3.37 9.87 8.356 9.362 14.89-.335 3.976-2.035 7.598-5.303 10.607-3.268 3.01-8.103 5.404-14.708 6.926-5.529 1.24-11.606 1.707-17.608 1.734m-.592-11.06h7.286c4.462-.187 7.39-1.491 9.187-3.217 1.68-1.614 2.369-3.598 2.392-5.381q0-4.47-2.908-7.11c-1.75-1.387-4.186-2.639-8.725-2.639h-7.232z" aria-label="P" style="fill:#fff;stroke-width:.78660673" transform="matrix(.92846 0 0 1.7407 31.212 798.867)"></path></g></g><path d="m215.926 175.496-13.798-34.218 8.544-4.03 3.335 6.97 11.32-2.794 2.755-8.77 11.106-2.456-10.556 43.07zm5.643-11.635 3.306-13.968-8.153 1.727zM270.558 125.535l-28.375 3.174v39.452l12.802-1.278v-28.448l15.573-1.538zM303.138 171.463v-11.252c-10.033-1.836-20.366-.027-19.999-12.816.577-12.485 9.13-5.327 19.999-3.955v-11.413c-15.493-5.024-26.67-5.085-30.826 7.582-1.061 2.972-1.419 5.787-1.268 8.567 1.774 20.578 19.696 21.99 32.094 23.287M306.803 134.775v39.89l12.479 4.728V139.06z" style="color:#000;font-style:normal;font-variant:normal;font-weight:400;font-stretch:normal;font-size:medium;line-height:normal;font-family:sans-serif;font-variant-ligatures:normal;font-variant-position:normal;font-variant-caps:normal;font-variant-numeric:normal;font-variant-alternates:normal;font-feature-settings:normal;text-indent:0;text-align:start;text-decoration:none;text-decoration-line:none;text-decoration-style:solid;text-decoration-color:#000;letter-spacing:normal;word-spacing:normal;text-transform:none;writing-mode:lr-tb;direction:ltr;text-orientation:mixed;dominant-baseline:auto;baseline-shift:baseline;text-anchor:start;white-space:normal;shape-padding:0;clip-rule:nonzero;display:inline;overflow:visible;visibility:visible;opacity:1;isolation:auto;mix-blend-mode:normal;color-interpolation:sRGB;color-interpolation-filters:linearRGB;solid-color:#000;solid-opacity:1;vector-effect:none;fill:#fff;fill-opacity:1;fill-rule:nonzero;stroke:none;stroke-width:.74999994px;stroke-linecap:butt;stroke-linejoin:miter;stroke-miterlimit:4;stroke-dasharray:none;stroke-dashoffset:0;stroke-opacity:1;color-rendering:auto;image-rendering:auto;shape-rendering:auto;text-rendering:auto" transform="matrix(1.33333 0 0 -1.33333 .333 799.333)"></path><path d="M321.873 168.617V156.71c.093-5.656-.401-10.3 8.291-11.077 6.188-.391 16.566 7.358 20.386 9.926 1.814 1.265 3.241 2.785 4.103 4.622 1.055 2.297 1.302 4.743 1.347 6.72l-.308 21.454c-.404 2.59-1.657 4.297-3.286 5.369-2.31 1.52-5.378 1.764-7.861 1.432l-14.474-7.04c-3.992-1.942-7.275-4.363-8.047-7.508-.297-1.85-.094-10.68-.15-11.99m11.68-8.228v16.694c0 1.208.924 3.921 2.086 4.857 2.596 2.432 8.006 4.544 8.076 1.109V164.95c-.416-4.482-5.718-9.138-8.352-7.878-1.363.563-1.983.58-1.81 3.316" style="font-style:normal;font-variant:normal;font-weight:400;font-stretch:normal;font-size:100px;line-height:1.25;font-family:&quot;Franklin Gothic Demi&quot;;-inkscape-font-specification:&quot;Franklin Gothic Demi&quot;;letter-spacing:0;word-spacing:0;fill:#fff;fill-opacity:1;stroke:none;stroke-width:.75" transform="matrix(1.33333 0 0 -1.33333 .333 799.333)"></path><path d="M170.165 165.649c-1.83 5.432-2.196 11.568-.876 16.762 2.288 6.553 7.032 9.353 10.951 9.957 9.319-.556 13.375-2.754 21.888-7.154v-12.752c-6.59 3.213-15.754 9.438-18.672 5.093-3.08-2.511-1.867-8.24.091-11.623 2.893-4.724 9.643-5.559 17.083-10.241v-12.913c-5.627 2.841-13.28 5.45-18.57 8.902-5.29 3.453-9.719 7.75-11.895 13.969" style="color:#000;font-style:normal;font-variant:normal;font-weight:400;font-stretch:normal;font-size:medium;line-height:normal;font-family:sans-serif;font-variant-ligatures:normal;font-variant-position:normal;font-variant-caps:normal;font-variant-numeric:normal;font-variant-alternates:normal;font-feature-settings:normal;text-indent:0;text-align:start;text-decoration:none;text-decoration-line:none;text-decoration-style:solid;text-decoration-color:#000;letter-spacing:normal;word-spacing:normal;text-transform:none;writing-mode:lr-tb;direction:ltr;text-orientation:mixed;dominant-baseline:auto;baseline-shift:baseline;text-anchor:start;white-space:normal;shape-padding:0;clip-rule:nonzero;display:inline;overflow:visible;visibility:visible;opacity:1;isolation:auto;mix-blend-mode:normal;color-interpolation:sRGB;color-interpolation-filters:linearRGB;solid-color:#000;solid-opacity:1;vector-effect:none;fill:#fff;fill-opacity:1;fill-rule:nonzero;stroke:none;stroke-width:.74999994px;stroke-linecap:butt;stroke-linejoin:miter;stroke-miterlimit:4;stroke-dasharray:none;stroke-dashoffset:0;stroke-opacity:1;color-rendering:auto;image-rendering:auto;shape-rendering:auto;text-rendering:auto" transform="matrix(1.33333 0 0 -1.33333 .333 799.333)" data-source="https://football-logos.cc"></path><!-- source: https://football-logos.cc --></svg>