<svg xmlns="http://www.w3.org/2000/svg" xmlns:xlink="http://www.w3.org/1999/xlink" viewBox="0 0 400.35 600"><!-- Source: https://football-logos.cc --><defs data-source="https://football-logos.cc"><linearGradient id="a"><stop offset="0%" stop-color="#cfa978"></stop><stop offset="12%" stop-color="#cca372"></stop><stop offset="22%" stop-color="#eceae3"></stop><stop offset="28%" stop-color="#d4b691"></stop><stop offset="43%" stop-color="#c99e69"></stop><stop offset="60%" stop-color="#f5f4f3"></stop><stop offset="77%" stop-color="#d3b184"></stop><stop offset="100%" stop-color="#c99e69"></stop></linearGradient><linearGradient xlink:href="#a" id="b" x1="84.875" x2="84.875" y1="187.346" y2="641.531" gradientTransform="matrix(.72434 0 0 .80725 -27.421 -21.884)" gradientUnits="userSpaceOnUse"></linearGradient></defs><path d="m348.254 83.36 3.675-76.933c11.102.89 25.934 2.552 37.006 3.577-.04 6.665.008 11.106-.031 17.756l-24.455-3.116-.407 10.472 24.94 3.272-.251 23.23c-6.077-.954-18.778-3.744-25.457-3.994l-.115 10.698 25.761 4.452.133 18.357c-11.14-2.307-29.774-5.67-40.799-7.77M317.643 79.82l2.25-58.63-12.605-.342.296-17.105 38.975 1.862-.643 17.193-13.168-.976-1.96 59.124c-4.012-.54-8.991-.67-13.145-1.126M287.61 20.761l-13.949-.158c0 2.402-.153 7.687-.153 10.105l14.12.35c0-2.386-.019-7.927-.019-10.297m.08 57.93c-.013-8.516-.149-20.003-.026-28.186-5.375-.175-8.514-.204-13.89-.3-.085 11.423-.244 17.761.16 28.56-4.051.063-9.358.168-13.37.327-.39-10.594-.129-21.293-.07-31.967.057-10.657-.464-20.513-.38-31.17.072-9.019 3.38-13.87 9.924-13.484 6.895.408 14.39.3 21.373.56 6.555.243 9.61 5.472 9.557 14.237-.125 20.58-.574 40.904-.41 61.468-4.012-.191-8.895.003-12.868-.045M241.257 80.07c-3.389-6.777-5.45-13.65-8.258-20.78-2.784-7.073-5.463-20.047-8.409-28.815 0 7.142-.106 22.044-.028 29.201.077 7.142.452 14.527.842 21.606-4.012.318-9.042.796-13.054 1.375-.546-13.648-.62-27.896-.563-41.64s-.637-27.13-.559-40.89c3.896.112 12.168.452 16.064.595 5.89 10.79 8.732 22.286 13.217 35.986.067-11.87-.497-23.767-.362-35.76 4.012.175 9.287.281 13.51.301-.078 13.028.254 26.04.157 39.036-.097 13.028.125 26.399.554 39.331-3.39.127-9.721.247-13.11.453M171.074 87.978c-.701-14.333-.839-30.752-.761-45.195.078-14.46-.665-28.215-.549-42.659 11.064-.159 24.747-.168 35.849-.01 0 6.872.305 13.368.227 20.208-7.09.08-15.632.233-22.644.44-.038 4.04.003 7.058-.035 11.099 6.077-.27 16.757-1.03 22.834-1.189 0 5.902.19 15.114.112 21.015-6.077.303-16.11 1.124-22.188 1.538-.039 4.2.058 7.165.136 11.349 7.09-.588 15.269-1.582 22.359-2.075.079 7.036.04 13.424.519 20.46-11.142 1.065-24.51 3.09-35.86 5.018M152.774 91.492c-.749-15.317-.78-22.947-.923-32.985-3.9.566-8.68 1.265-12.763 2.036.145 11.475.314 22.463 1.063 33.877-4.012.843-8.339 2.06-12.283 3.388-.818-15.494-.834-34.51-.841-50.508-.007-15.636.232-30.856.31-46.492C136.88.633 145.226.66 154.805.35c4.517-.147 9.538 4.341 9.43 15.19-.047 4.596.158 9.194.116 13.775-.073 7.89-3.005 13.411-5.258 16.324 2.758 1.478 5.47 8.593 5.539 16.214.102 11.432.373 20.583 1.305 26.895-4.442.413-9.19 2.06-13.163 2.744m-1.115-68.524c-4.09.248-8.546.73-12.51 1.051-.078 4.534.028 7.962-.01 12.495 4.05-.381 8.51-.903 12.6-1.235zM96.298 108.333c-.038-5.792-.48-19.359-.416-25.144 3.282-.95 6.449-1.998 11.085-3.112.136 4.932.183 19.266.528 24.18-2.593.659-7.462 2.566-11.197 4.076M70.18 118.933c-6.33 2.734-10.135-3.591-10.558-17.432-.39-12.736-.778-26.439-.761-39.21.017-12.77.44-25.635.528-38.39.101-14.522 3.457-21.669 9.155-21.853 7.787-.251 15.535-.14 23.365-.314.078 8.924-.146 18.479-.224 27.402l-21.56 1.56c-.74 12.241-.143 50.274-.286 60.18l21.437-6.966c.147 8.394.244 18.374.882 25.564-7.83 2.928-14.249 6.12-21.978 9.459M44.32 132.244l-1.227-29.555 10.7-4.862a458 458 0 0 0 1.05 28.947c-3.467 1.77-6.98 3.318-10.522 5.47M26.273 37.023 13.55 40.46l-.289 19.677c5.643-1.916 7.926-2.904 12.99-4.197zm.92 105.399c-1.02-13.398-1.128-37.54-1.188-51.985-5.376 2.068-7.73 3.361-13.106 5.668.164 20.92-.168 33.103 1.4 53.828-3.926 2.274-9.007 5.63-12.981 8.399C-1.273 114.334.64 73.41 1.304 31.335 1.58 13.823 5.912 7.025 12.497 5.926c6.861-1.145 9.054-1.519 15.952-2.033 6.541-.487 9.665 9.622 9.558 24.781-.245 34.752-1.508 72.386 1.384 106.277-4.012 2.227-8.264 4.757-12.199 7.47" style="fill:#c99e69;fill-rule:evenodd;stroke-width:.999998"></path><path d="M1.537 170.475c27.258-17.054 55.941-32.957 87.25-46.298s65.241-24.12 103-30.924c29.646-5.342 60.375-8.452 93.114-7.925s67.49 4.69 105.177 13.892l.126.03.033.125c7.476 28.476 10.335 57.901 10.097 87.932-.239 30.024-3.575 60.654-8.488 91.548-6.79 42.695-17.453 83.34-31.864 120.194-13.918 35.595-31.335 67.659-52.139 94.624-17.96 23.28-36.905 43.84-57.107 61.583-20.203 17.745-41.666 32.673-64.662 44.689l-.105.055-.103-.06c-34.489-19.948-64.476-46.928-89.843-81.314-25.363-34.38-46.108-76.164-62.118-125.726-11.299-34.977-19.788-70.942-25.266-107.96-5.478-37.015-7.946-75.089-7.203-114.285l.002-.118z" style="fill:#014171;fill-rule:evenodd;stroke-width:.999998"></path><path d="M272.72 85.73c-28.194.315-54.94 3.278-80.858 7.948-37.72 6.798-71.624 17.567-102.906 30.897-31.246 13.314-59.879 29.184-87.091 46.205-.735 39.127 1.733 77.138 7.202 114.098 5.475 36.996 13.958 72.937 25.248 107.89 15.996 49.515 36.721 91.259 62.057 125.602 25.306 34.303 55.214 61.224 89.607 81.136 22.925-11.99 44.325-26.88 64.473-44.575 20.18-17.724 39.105-38.263 57.05-61.522 20.777-26.93 38.174-58.959 52.078-94.517 14.4-36.829 25.055-77.443 31.84-120.104 4.91-30.876 8.244-61.485 8.482-91.484.238-29.95-2.61-59.295-10.051-87.695-37.606-9.172-72.285-13.323-104.956-13.848a447 447 0 0 0-12.175-.031" style="fill:#fff;fill-rule:evenodd;stroke-width:.999998"></path><path d="M273.513 105.012c-94.952-.382-182.414 32.832-252.967 78.432-.258 71.844 8.535 136.812 26.376 196.138 29.335 97.549 76.602 164.876 139.936 200.956 22.886-11.327 43.1-24.864 60.563-41.062 70.912-65.778 116.083-163.533 129.842-287.9 6.558-59.271 4.276-106.231-6.652-134.198-32.965-8.379-65.448-12.24-97.098-12.366" style="fill:#014171;fill-rule:evenodd;stroke-width:.999998"></path><path d="M63.497 165.376c17.71-9.91 35.244-18.143 52.648-25.148-1.07 79.286 6.66 151.961 16.748 227.193 9.373 69.909 33.436 148.537 56.348 203.536C133.202 526.37 104.814 449.46 84.52 365.873c-15.448-63.628-20.431-131.04-21.023-200.497" style="fill:#1d1d1b;fill-rule:evenodd;stroke-width:.999998" data-source="https://football-logos.cc"></path><path d="M189.24 570.957c-5.39-75.425-13.661-149.926-18.235-226.276-4.21-70.281-7.788-142.964-10.825-217.83 21.316-6.15 42.044-10.202 62.442-12.374 8.143 73.847 10.761 148.042 6.022 222.462-5.202 81.692-17.38 162.234-39.403 234.018" style="fill:#1d1d1b;fill-rule:evenodd;stroke-width:.999998"></path><path d="M273.753 324.693c9.136-52.156 10.305-142.993-3.096-214.146 19.882-.323 39.763.974 59.644 4.015 10.5 79.795 3.954 167.295-12.845 227.566-33.46 120.044-81.497 189.478-128.215 228.83 55.507-93.708 70.994-169.08 84.512-246.265" style="fill:#1d1d1b;fill-rule:evenodd;stroke-width:.999998"></path><path d="m218.489 515.967 3.193-2.872c7.038 6.045 15.167 12.018 23.783 17.747l-8.439 7.375c-5.519-3.94-10.493-7.71-15.266-11.823l-2.767 2.742-3.426-2.827zM242.54 492.593c2.774-2.814 5.708-2.613 9.948.254l12.559 8.492c3.593 2.43 2.36 6.327 1.638 7.443-.928 1.434-2.124 2.443-3.314 3.662l-13.46 13.795-6.942-4.88c5.194-4.703 9.499-9.205 14.205-14.28l-3.132-2.258-9.807 10.317c-1.305 1.374-2.667 2.17-3.938 2.744-2.03.917-4.39.082-6.167-1.135-2.088-1.431-3.777-2.729-5.256-4.255-1.39-1.434-1.862-3.673-.577-5.19a67 67 0 0 1 3.53-3.839zm3.527 6.603c-2.599 2.882-5.416 5.677-8.397 8.406l3.005 2.315 8.296-8.393zM265.686 463.143l12.87 8.646 2.033-3.048 6.065 3.668-1.99 2.724 6.225 3.488-5.086 7.307-6.072-3.63-11.768 15.237-7.22-4.795.604-23.39zm2.793 22.824 5.346-6.927-5.93-4.05zM280.29 436.872l6.486 3.94 15.122 18.401-4.57 8.522c-5.158-6.455-9.34-12.567-13.582-19.367l-7.872 13.337-6.506-4.2c4.612-7.421 7.854-12.44 10.922-20.633" style="fill:#ca9b67;fill-rule:evenodd;stroke-width:.999998"></path><path d="M104.424 236.148c-6.789 4.712-16.65 9.06-28.675 9.348-16.946.406-36.408-21.058-40.604-43.356-.637-3.388-1.659-9.057-.688-12.962.384-1.545 2.25-3.91 4.048-3.885 7.227.096 13.584-1.096 20.67-2.48 10.525-2.057 20.66-6.407 31.715-6.639 3.848-.08 7.48 2.057 11.183 3.427-1.271-2.715-2.137-5.298-3.212-8.144 32.94-14.498 65.078-29.783 103.69-38.08 13.124-2.821 26.59-4.159 40.605-4.015 7.533.077 14.709.975 21.45 6.882 5.344 4.683 9.437 10.042 18.437 10.036 22.185-.015 41.741 1.825 62.541 11.642 1.8.85 3.635 1.112 5.62.917 2.542 1.6 4.892 3.192 6.71 5.104 1.21 1.273 2.522 2.464 3.255 4.058.951 2.066 1.476 4.523 1.735 6.782.207 1.797.285 3.398-.588 4.588-.435.594-1.036 1.147-1.419 1.778l.063 3.025c.009.42-.504.428-.923.416-20.887-.607-27.682-1.68-28.446-2.008-.944-.404-1.268-.993-1.24-2.165.026-1.167.086-1.97 1.068-2.595.77-.49 1.542-.552 2.236-.975.544-.331 1.072-.657 1.434-1.261.312-.521 1-.67 1.66-.846.725-.194 2.173.12 2.183-.473.098-1.033-.834-1.027-1.835-1.033-2.429-.014-4.526.302-7.284.172-2.219-.104-4.366-.938-6.423-1.777-7.118-2.905-14.032-6.29-21.048-9.434-4.416-1.74-8.816-3.523-13.248-5.22-3.501-1.339-7.047-.78-10.552-.4-3.749.404-7.51 1.106-11.199 1.59-.812.108-1.562-.026-2.237-.745-5.206-5.548-10.31-10.313-14.997-12.33-.124-.054-.365.132-.315.258 1.055 2.627 3.249 3.842 3.99 6.251.606 1.973 1.089 5.46-.019 6.639s-1.128 1.242-1.791 1.505c-.891.353-1.853.28-2.639-.115-1.874-.944-3.326-2.561-4.99-3.842-4.955-3.85-9.89-8.031-15.082-8.316-4.71-.153-8.633 2.585-12.618 5.104-12.77 9.788-33.49 29.477-36.074 30.655-.93.423-1.733.81-2.667.143-.346-.76-.595-1.73.345-2.724 10.618-11.24 17.912-23.36 26.868-35.041l-39.916 14.166c-13.698 6.738-27.537 13.197-41.093 20.216-6.537 3.384-10.174 9.395-12.458 16.158-1.951 5.779-2.394 11.666-3.484 17.592-5.123-5.085-9.922-10.45-15.37-15.255-.4-.352-.96-.605-1.491-.573-14.87.888-27.545 3.66-40.088 6.309.946 3.213 10.217 10.36 18.352 13.305l-10.553 6.71c12.347 11.856 28.646 15.502 45.408 11.913m59.904 15.251c-.441.829.128.856.66.538 17.237-10.31 99.998-53.728 136.527-55.538.296-.015 1.018.518.146.841-58.764 21.798-97.924 43.861-108.406 62.146-.094.164.221.506.387.416 49.856-27.02 95.723-50.102 127.805-55.171.37-.059.643.972.287 1.09-32.498 10.71-56.806 24.943-77.596 41.378-14.023 11.086-24.153 25.895-24.546 48.863-.311 18.233 8.46 29.115 16.98 37.775.692.703.867.336.763-.025-3.875-13.486-8.317-18.273-8.038-36.503.002-.167.444-.276.488-.115 4.467 16.5 14.484 30.882 25.865 44.704 16.111 17.747 33.706 30.36 53.22 36.36.124.039.219-.294.115-.372-18.19-13.764-30.965-26.605-39.142-38.912-10.901-16.323-19.507-31.832-23.227-44.878-1.786-6.263-1.984-12.736-.575-19.327 2.017-9.43 13.273-23.209 24.258-31.8 15.295-11.961 26.515-20.826 50.812-25.922 9.433-1.979 18.47-2.64 28.675-3.728 4.622-.492 8.855-.951 10.596-4.215.761-1.429 1.642-4.399 1.62-8.173-.013-2.235.328-4.934-.717-6.91-.554-1.048-2.423-1.56-3.47-1.004-2.315 1.23-4.085 2.005-6.079 3.097-1.976 1.081-4.924 1.496-6.968 1.061-1.205-.256-1.78-.758-2.696-1.58-11-9.875-20.933-17.962-32.431-21.79-6.402-2.289-13.773-2.12-21.88-.545-7.224 1.403-13.486 4.46-19.17 8.488-.134.095-.23.408-.086.487 2.73 1.502 6.065 3.454 9.779 3.298 2.205-.093 4.864.462 6.538.602.87.073 1.707.09 2.523.502.309.156-.225.683-.56.774-24.42 6.63-41.946 14.501-62.038 23.528-31.807 14.29-52.808 26.267-60.419 40.56m45.921-84.578c6.108-2.793 11.64-5.043 17.915-7.406 2.404-.905 5.52-1.115 7.922-.767 2.135.31 3.743 2.27 5.19 3.871 1.569 1.737 2.177 4.013 2.122 6.194-.031 1.236-1.117 2.82-2.352 2.868-3.146.123-6.229-.073-9.29-.172-3.868-.126-7.66-1.014-11.528-1.147-2.957-.102-5.984-.062-9.147-.287-.865-.061-1.651-.422-1.864-1.262-.177-.696.38-1.594 1.032-1.892m126.508 50.935c-1.853.519-4.284.956-5.104 2.696-.682 1.445-.307 2.968.114 4.359 2.597 8.569 5.623 17.012 8.89 25.349.132.34.764.28 1.09.114 3.101-1.572 6.959-5.11 8.372-9.004 2.049-5.642 2.53-11.777 2.868-17.778.064-1.139.04-2.353-.423-3.398-.481-1.083-1.31-2.194-2.33-2.796-.785-.463-1.654-.924-2.61-.917-1.58.011-3.33.822-4.903.974-1.983.192-4.046-.135-5.964.401m-45.453 137.537c4.019 5.385 8.019 10.595 13.248 14.022 1.569 1.028 3.59 1.776 5.563.746 3.38-1.767 5.963-4.77 7.054-10.61 1.124-6.014.908-15.297-2.308-17.765-8.697 4.364-18.845 9.582-23.557 13.607m-175.72-73.266c3.868 14.034 12.26 36.446 22.767 51.214 5.275 7.414 12.893 13.64 20.417 18.123 6.113 3.642 13.587 4.66 20.876 4.473 9.978-.258 19.597-3.248 29.592-4.588 10.933-1.466 22.445-1.504 33.035 1.95 8.085 2.637 14.733 8.512 20.187 15.6 6.347 8.247 11.738 17.306 18.926 24.832 2.743 2.872 6.42 5.316 10.209 5.591 3.402.248 6.888-1 10.208-1.749 1.84-.415 3.734-.739 5.62-.688.756.02 1.678.506 1.72 1.204.077 1.258-.358 2.692-1.275 3.556-2.931 2.76-6.895 4.563-10.94 5.965-3.25 1.126-6.599 2.254-10.036 2.408-3.433.155-7.202-1.154-9.463-3.67-5.15-5.732-9.242-13.426-13.42-20.417-4.884-8.17-9.226-16.741-21.162-21.105-6.526-2.385-13.465-3.534-20.302-1.978-.15.034-.079.386.057.458 7.99 4.28 17.505 6.334 24.144 12.503 7.3 6.781 11 16.617 16.288 25.061.091.147-.348.274-.488.173-8.02-5.816-17.782-9.536-28.36-8.66-7.785.644-16.149 1.413-22.768 5.562-6.415 4.022-11.157 10.892-14.108 17.865-5.558 13.129-8.087 27.227-10.897 41.205-2.552 12.696-2.778 26.316-5.333 38.482-.055.26-.388.653-.646.588-12.167-3.079-31.807-7.471-45.291-16.36-17.363-11.444-31.715-28.986-39.916-47.944-8.071-18.657-8.643-39.967-8.89-60.333-.271-22.338 5.793-43.36 10.18-52.303.346-.707.743-.34.888.057 3.566 9.764 4.94 25.793 6.25 38.768 1.267 12.532 3.016 24.723 6.195 37.277 2.881 11.381 7.695 21.594 16.775 30.97 5.752 5.938 15.08 9.459 22.224 11.01.281.062.643-.012.832-.229 4.369-5.006 8.272-11.037 12.302-17.348 3.358-5.26 6.897-10.449 11.011-15.14 3.55-4.049 7.25-7.7 11.872-10.955 4.41-3.105 8.752-6.17 12.76-9.95 1.281-1.208 2.235-2.75 3.069-4.301.354-.66.73-1.521.43-2.208-.295-.676-1.155-1.14-1.893-1.147-5.009-.051-9.988 1.066-14.996.975-6.578-.12-13.796 1.352-19.672-1.606-13.677-6.887-27.073-15.491-37.161-27.013-6.572-7.505-9.143-18.052-10.897-27.872-2.245-12.573-2.053-25.992-.92-38.306" style="fill:url(#b);stroke-width:.999998" data-source="https://football-logos.cc"></path><!-- source: https://football-logos.cc --></svg>