<svg xmlns="http://www.w3.org/2000/svg" xml:space="preserve" viewBox="0 0 651.44 355.8"><!-- Source: https://football-logos.cc --><rect width="642.817" height="224.555" x="4.31" y="131.241" ry="2.638" style="fill:#8ccdf2;fill-opacity:1;fill-rule:evenodd;stroke:none;stroke-width:1.34033;paint-order:markers stroke fill" data-source="https://football-logos.cc"></rect><path d="m0 0 237.85.003c26.9 0 23.311 17.507 17.574 26.947-10.019 16.488-28.13 44.444-31.85 54.969-5.402 15.292 6.194 23.927 22.625 9.145 25.918-23.309 40.968-53.83 65.446-78.642C317.216 6.774 327.791.32 342.17.335l43.303.05c30.616.033 45.735 24.429 31.623 44.147-4.15-8.374-13.51-10.668-19.052-10.296-7.124.483-13.098 5.771-17.486 12.274-6.373 9.444-18.418 29.705-15.209 40.641 2.995 10.208 12.337 18.793 28.476 8.01 17.681-11.815 26.608-27.173 54.283-66.251 11.44-16.16 31.21-28.898 51.025-28.9L651.437 0c-9.012 18.206-29.864 24.77-38.993 24.77h-83.977c-3.515 0-10.531 3.107-12.634 8.821h135.604c-3.52 14.9-25.612 25.88-39.581 25.88h-126.62c-3.515 0-10.532 3.108-12.633 8.82h178.834c-9.977 22.583-30.942 24.704-38.993 24.704H450.425c-3.516 0-10.532 3.106-12.633 8.818l213.645.003c-7.042 19.621-31.47 25.897-39.585 25.897H39.585c-8.108 0-32.541-6.276-39.585-25.897l186.052-.003c-2.103-5.712-9.119-8.818-12.633-8.818H38.993c-8.05 0-29.015-2.121-38.993-24.704h190.75c-2.102-5.712-9.12-8.82-12.634-8.82H39.582c-13.97 0-36.062-10.98-39.582-25.88h186.348c-2.103-5.714-9.12-8.821-12.635-8.821H38.993C29.864 24.77 9.012 18.206 0 0zm362.465 10.067h26.714l-12.918 7.645z" style="fill:#2b2c7a;fill-opacity:1;fill-rule:evenodd;stroke:none;stroke-width:3.15591;stroke-dasharray:none;stroke-opacity:1" data-source="https://football-logos.cc"></path><g style="stroke:none" data-source="https://football-logos.cc"><path d="M313.276 619.795h-16.012q-14.935-.002-20.433-8.843-3.584-5.854-3.583-17.327v-57.474h17.684v56.64q-.001 6.69 3.584 8.721 1.913 1.076 7.528 1.076h11.232zM374.216 619.795h-17.684V589.92h-18.161v-16.728h18.161v-8.125c0-4.301-.993-7.647-2.987-10.036q-2.985-3.586-8.484-3.587-5.493.002-8.482 3.587-2.987 3.585-2.988 10.036v54.727h-17.684v-53.651q0-14.817 8.604-23.42 8.004-8.007 20.55-8.005 12.308-.002 20.434 8.005 8.721 8.603 8.721 23.42zM436.71 619.795h-43.495q-4.42-.001-7.29-1.435-5.018-2.51-5.018-8.96.001-2.872 1.196-5.856.716-1.794 2.628-4.78l28.321-45.884h-28.083v-16.73h35.848q5.974.001 9.082 1.435 5.136 2.39 5.137 8.963-.001 2.51-.596 4.063-.6 1.552-4.063 7.408l-27.365 45.045h33.697zM457.499 619.795h-17.686V536.15H457.5zM547.59 577.972q0 18.044-12.602 30.65-12.607 12.607-30.65 12.606-18.044 0-30.65-12.605-12.606-12.608-12.607-30.651t12.607-30.65q12.606-12.601 30.65-12.603 18.043 0 30.65 12.604 12.604 12.606 12.603 30.649m-17.68 0q0-10.753-7.411-18.401-7.408-7.647-18.162-7.647-10.752 0-18.164 7.528-7.406 7.528-7.406 18.52 0 10.755 7.406 18.403 7.412 7.645 18.164 7.645 10.754 0 18.162-7.525 7.41-7.531 7.41-18.523" style="fill:#fff;fill-opacity:1;fill-rule:nonzero;stroke:none;stroke-width:.133333" transform="translate(-84.18 -397.576)"></path></g><!-- source: https://football-logos.cc --></svg>