<svg xmlns="http://www.w3.org/2000/svg" xml:space="preserve" viewBox="0 0 900 640"><!-- Source: https://football-logos.cc --><path d="M300.5 479.5h75c166.2 0 300-66.9 300-150v-180c0-83.1-133.8-150-300-150h-75C134.3-.5.5 66.4.5 149.5v180c0 83.1 133.8 150 300 150" style="opacity:1;vector-effect:none;fill:#fd5;fill-opacity:1;stroke:none;stroke-width:1.12500003;stroke-linecap:butt;stroke-linejoin:miter;stroke-miterlimit:4;stroke-dasharray:none;stroke-dashoffset:0;stroke-opacity:1;paint-order:fill markers stroke" transform="matrix(1.33333 0 0 -1.33333 -.667 639.333)" data-source="https://football-logos.cc"></path><path d="M338 449.5c153.735 0 277.5-60.21 277.5-135v-150c0-74.79-123.765-135-277.5-135S60.5 89.71 60.5 164.5v150c0 74.79 123.765 135 277.5 135" style="opacity:1;vector-effect:none;fill:#2a7fff;fill-opacity:1;stroke:none;stroke-width:1.125;stroke-linecap:butt;stroke-linejoin:miter;stroke-miterlimit:4;stroke-dasharray:none;stroke-dashoffset:0;stroke-opacity:1;paint-order:fill markers stroke" transform="matrix(1.33333 0 0 -1.33333 -.667 639.333)" data-source="https://football-logos.cc"></path><path d="M226.898 344.967c-.961 0-1.649-.754-2.19-1.919-1.44-4.338-2.572-9.295-3.598-13.28-.535-3.245-1.012-4.903 3.36-5.738 2.79-.533 8.581.113 14.26 0 5.697.17 10.658-.833 15.101-2.642 2.254-.85 3.911-1.978 5.184-3.392 1.485-1.715 2.274-3.398 2.623-5.12.339-1.669.267-3.379.006-5.18-.636-3.163-6.645-16.14-13.35-28.833-6.706-12.692-22.195-42.134-34.424-65.427s-24.77-45.2-27.866-48.681c-8.644-9.72-16.093-12.406-35.19-12.717-15.463-.255-16.368-.459-19.981-4.502-4.084-4.569-4.971-11.659-2.068-13.505h104.439c1.935.99 4.08 5.955 5.233 9.155 2.684 7.124-10.844 8.211-15.535 8.846-11.433 1.468-9.756 4.245-9.66 10.342.05 2.777 8.007 19.444 20.383 42.64 28.889 54.144 29.996 55.77 37.808 55.649 7.25-.142 14.637-9.366 40.161-50.335l52.269-76.297h85.239c.96 0 1.649.757 2.19 1.922 1.44 4.339 2.572 9.296 3.598 13.28.535 3.245 1.011 4.904-3.36 5.738-2.79.53-8.581-.113-14.26 0-5.697-.17-10.658.833-15.1 2.642-2.255.853-3.912 1.982-5.185 3.393-1.484 1.718-2.273 3.398-2.623 5.12-.339 1.67-.26 3.378 0 5.18.636 3.163 6.645 16.134 13.351 28.827 6.706 12.692 22.194 42.14 34.423 65.433s24.764 45.195 27.86 48.675c8.644 9.72 16.093 12.412 35.19 12.723 15.463.255 16.368.46 19.981 4.502 4.084 4.568 4.971 11.653 2.067 13.498H442.795c-1.934-.989-4.073-5.954-5.226-9.154-2.684-7.123 10.844-8.212 15.535-8.846 11.433-1.468 9.756-4.245 9.66-10.342-.05-2.778-8.013-19.445-20.39-42.64-28.888-54.144-29.996-55.77-37.807-55.649-7.251.142-14.638 9.367-40.162 50.335l-25 38.906-27.268 37.394h-42.955z" style="fill:#fd5;fill-opacity:1;stroke-width:1.12500003;stroke:none;stroke-miterlimit:4;stroke-dasharray:none" transform="matrix(1.33333 0 0 -1.33333 -.667 639.333)" data-source="https://football-logos.cc"></path><!-- source: https://football-logos.cc --></svg>