<svg xmlns="http://www.w3.org/2000/svg" xml:space="preserve" viewBox="0 0 700 800"><!-- Source: https://football-logos.cc --><path d="m263-.5-7.13 5.84C79.644 149.684 19.49 292.458 4.698 411.373q-.006.053-.014.104c-11.504 71.228 3.958 131.47 7.735 177.658l.844 10.327 10.361.006c166.798.112 311.966-.113 478.735 0l10.375.008.846-10.34c3.777-46.189 19.24-106.43 7.736-177.657-14.769-118.936-74.91-261.753-251.188-406.14Z" style="color:#000;font-style:normal;font-variant:normal;font-weight:400;font-stretch:normal;font-size:medium;line-height:normal;font-family:sans-serif;font-variant-ligatures:normal;font-variant-position:normal;font-variant-caps:normal;font-variant-numeric:normal;font-variant-alternates:normal;font-feature-settings:normal;text-indent:0;text-align:start;text-decoration:none;text-decoration-line:none;text-decoration-style:solid;text-decoration-color:#000;letter-spacing:normal;word-spacing:normal;text-transform:none;writing-mode:lr-tb;direction:ltr;text-orientation:mixed;dominant-baseline:auto;baseline-shift:baseline;text-anchor:start;white-space:normal;shape-padding:0;clip-rule:nonzero;display:inline;overflow:visible;visibility:visible;opacity:1;isolation:auto;mix-blend-mode:normal;color-interpolation:sRGB;color-interpolation-filters:linearRGB;solid-color:#000;solid-opacity:1;vector-effect:none;fill:#fd5;fill-opacity:1;fill-rule:nonzero;stroke:none;stroke-width:22.50000191;stroke-linecap:butt;stroke-linejoin:miter;stroke-miterlimit:4;stroke-dasharray:none;stroke-dashoffset:0;stroke-opacity:1;color-rendering:auto;image-rendering:auto;shape-rendering:auto;text-rendering:auto" transform="matrix(1.33333 0 0 -1.33333 -.667 799.333)" data-source="https://football-logos.cc"></path><path d="M199.443 30.008c-50.683-.004-102.12.004-155.066.035-6.604 62.626-22.458 133.868-9.164 216l.043.277.035.282C53.776 396.21 127.318 575.12 350 760.9c222.682-185.78 296.222-364.69 314.707-514.298l.035-.282.043-.277c13.294-82.132-2.56-153.374-9.164-216-158.864.094-304.128-.023-456.178-.035" style="fill:#2a7fff;fill-opacity:1;stroke:none;stroke-width:30;stroke-miterlimit:4;stroke-dasharray:none;stroke-opacity:1" data-source="https://football-logos.cc"></path><path d="M317.378 497.5v-13.366c10.344.457 26.666-1.327 25.74-15.384V310.753L200.041 497.338H122.85l25.6-35.91V238.25c-1.78-13.98-16.247-14.286-27.949-15.384v-13.204l44.574.162 43.546-.324v13.366c-10.344-.457-26.664 1.327-25.737 15.384v72.136c.007 42.144.482 98.039 1.07 98.399L343.338 209.5h34.277v131.708c.462 93.893.986 125.631 2.094 127.542 1.779 13.98 14.09 14.286 25.792 15.384v13.204l-44.576-.162z" style="fill:#fff;fill-opacity:1;stroke-width:1" transform="matrix(1.33333 0 0 -1.33333 -.667 799.333)" data-source="https://football-logos.cc"></path><!-- source: https://football-logos.cc --></svg>