<svg xmlns="http://www.w3.org/2000/svg" id="Livello_1" viewBox="31.91 0 219.07 283.4"><!-- Source: https://football-logos.cc --><style data-source="https://football-logos.cc">.st1{fill:#03c}.st2{fill:#f9fcf5}</style><path fill="#ffe001" d="M43.3 61.5c-1.5 9.4-5.1 40.1 2.2 76.9 11.6 58.1 43.7 103.4 95.4 134.8 7.5-3.9 33.5-18.9 57-47.7 36.5-44.6 50.4-99.8 41.4-164.1-5.5-1.3-17.8-4.4-33-10.3-18.1-7-43.8-19.3-65.6-38.7-4.5 3.9-13.5 11.3-26.1 19.4-16.2 10.4-41.5 23.8-71.3 29.7"></path><path d="m247.8 56.9-.5-3.2-3.2-.6c-.5-.1-59.4-11.7-100.3-50.1l-3.2-3-3.1 3c-.4.4-42 40-99 50.1l-3 .5-.6 3c-.3 1.5-7.5 37.2 1.6 83.1 5.3 27 15.2 51.8 29.3 73.8 17.7 27.5 42.1 50.6 72.6 68.7l2.1 1.2 2.2-1c1.3-.6 33-15.6 62.1-50.9 17.1-20.8 29.6-44.3 37.3-69.9 9.4-31.8 11.4-67.1 5.7-104.7M43.3 61.5c29.9-5.9 55.2-19.3 71.3-29.7 12.6-8.1 21.6-15.5 26.1-19.4 13 11.6 27.5 20.7 40.9 27.6L64 192.6c-8.5-16.6-14.7-34.7-18.6-54.2-7.3-36.8-3.6-67.5-2.1-76.9m154.6 164c-23.6 28.8-49.6 43.8-57 47.7-17.7-10.7-33.1-23.1-46.2-37l135.9-177c3.7 1 6.7 1.7 8.7 2.2 9 64.3-4.9 119.5-41.4 164.1" class="st1"></path><path d="m86 210.2 1.4-1.8c1.5-2 2.2-3.9 2-5.8q-.3-2.85-3.3-5.1c-1.6-1.2-3.1-1.8-4.6-1.8-.3 0-.6 0-1 .1-1.7.3-3.4 1.5-5 3.7L72 204l-.6.8.8.6 17.5 13.5.8.6.6-.8 1.5-1.9.6-.8-.8-.6zm-8.5-6.5 1.2-1.6c.8-1 1.6-1.6 2.2-1.8h.3c.6 0 1.2.3 1.9.9 1 .8 1.5 1.5 1.6 2.2s-.2 1.5-1 2.5l-1.3 1.7zm28.9-10.3-.8-.6-.6.8-4.6 6-4.8-3.7 4.2-5.5.6-.8-.8-.6-1.8-1.4-.8-.6-.6.8-4.2 5.5-4-3.1 4.6-5.9.6-.8-.8-.6-1.8-1.4-.8-.6-.6.8-6.7 8.7-.6.8.8.6 17.5 13.5.8.6.6-.8 6.7-8.7.6-.8-.8-.6zm9.3-15.4c-.8-.5-1.4-1-1.9-1.2-1.3-.8-2.5-1.1-3.6-1h-.1c-.3 0-1.5 1.1-1.8 1.2 0-.5.6-2.2.2-3.1-.5-1.2-.9-2.2-2.3-3.3s-2.8-1.6-4.1-1.6c-.4 0-.7 0-1.1.1q-2.55.6-4.8 3.6l-3.8 4.9-.6.8.8.6 17.5 13.5.8.6.6-.8 1.5-1.9.6-.8-.8-.6-6.9-5.4 1.3-1.7c1.1-1.5 1.9-1.8 2.2-1.9h.3c.4 0 1.1.1 2.2.9q.75.45 1.8 1.2c2.2 1.6 3.1 1.9 3.7 1.9l.6.1.4-.5 1.9-2.4.5-.6c-.2.1-3-1.2-5.1-2.6m-17.8-.5 1.5-1.9c.8-1 1.6-1.7 2.2-1.8h.3c.5 0 1.1.3 1.8.8.9.7 1.3 1.3 1.3 2.1s-.4 1.8-1.3 2.9l-1.2 1.5zm23.9-19.4-4.7 6.4 2.9 2.1 2-2.9c1.5 1.1 2.4 2.3 2.7 3.3.3.9.1 1.8-.5 2.7-.6.8-1.3 1.2-2.2 1.2-.2 0-.4 0-.6-.1-1.4-.2-3.2-1.2-5.4-2.9-2.8-2.1-4.5-3.9-5.2-5.2-.6-1.1-.4-2.1.3-3.2.6-.8 1.2-1.1 2-1.2h.1c.8 0 1.7.4 2.6 1l2.7-3.6c-1.7-1.3-3.4-2-5.1-2h-.6c-1.9.2-3.6 1.2-5 3-1.8 2.3-2.3 4.7-1.5 7.1.8 2.3 2.8 4.6 6.2 7.2s6.2 4 8.6 4.3c.3 0 .6.1.9.1 2.2 0 4-1 5.5-2.9.9-1.1 1.4-2.4 1.4-3.7v-.5l.7.5 2.4-3.1zm12.1-14.4c-3.5-2.7-6.3-4.1-8.6-4.3h-.7c-2.2 0-4.1 1-5.6 3.1-1.8 2.3-2.2 4.6-1.3 6.9.8 2.2 2.9 4.5 6.3 7.2 3.4 2.6 6.2 4 8.5 4.3h.8c2.2 0 4.1-1 5.6-3 1.8-2.3 2.2-4.6 1.4-6.9-.9-2.3-2.9-4.6-6.4-7.3m1.6 11.5q-.9 1.2-2.1 1.2c-.2 0-.4 0-.6-.1-.9-.2-2.7-.9-6-3.5s-4.5-4.1-4.9-4.9c-.5-1-.3-1.9.4-2.9q.9-1.2 2.1-1.2c.2 0 .4 0 .5.1.9.2 2.6.9 6 3.5s4.6 4.1 4.9 4.9c.6 1 .5 1.9-.3 2.9m15-18.9-.8-.7-.6.9-4.8 6.1-14.7-11.4-.8-.6-.7.8-1.5 2-.6.8.8.6 17.4 13.5.9.7.6-.9 6.9-8.9.7-.8-.9-.7zm9.5-12.2-.8-.6-.7.8-4.6 6-4.7-3.7 4.2-5.4.6-.9-.8-.6-1.8-1.4-.8-.6-.7.8-4.2 5.5-3.9-3.1 4.5-5.9.7-.8-.8-.7-1.9-1.4-.8-.6-.6.8-6.7 8.7-.7.8.9.6 17.4 13.5.8.7.7-.8 6.7-8.8.7-.8-.9-.6zm-5.9-19.2 2.6-3.4.7-.8-.9-.6-1.8-1.4-.8-.7-.6.9-8.3 10.6-.6.8.8.7 1.8 1.4.9.6.6-.8 2.8-3.7 14.8 11.5.9.7.6-.9 1.5-2 .7-.8-.8-.6zm9.9-12.8 2.6-3.3.6-.9-.8-.6-1.8-1.4-.8-.6-.6.8-8.3 10.6-.6.8.8.7 1.8 1.4.8.6.7-.8 2.8-3.6 14.8 11.4.8.7.7-.9 1.5-2 .7-.8-.9-.6zm25.7-6.4-.8-.6-.7.8-4.6 6-4.7-3.7 4.2-5.5.6-.8-.8-.6-1.8-1.4-.8-.6-.6.8-4.3 5.5-3.9-3.1 4.5-5.9.7-.8-.8-.7-1.9-1.4-.8-.6-.6.8-6.7 8.7-.7.8.9.6 17.4 13.5.8.7.7-.8 6.7-8.8.7-.8-.9-.6zm7.5-15.8c-.9-.7-1.8-1.2-2.6-1.5q-.9-.3-1.8-.3c-.3 0-.6 0-.9.1-.5.1-1.5.4-4.4 2.2-.3.2-.6.3-.7.5-1.6 1-2.3 1.1-2.6 1.1-.5 0-1.1-.2-1.7-.7s-1-1-1.1-1.7c-.1-.6.1-1.3.7-2 .5-.6 1-1 1.6-1h.1c.6 0 1.3.3 2 .8l.2.1 2.7-3.4s-.1-.1-.2-.1c-.1-.1-.2-.2-.3-.2-1.4-1.1-2.8-1.6-4.2-1.6-.3 0-.5 0-.8.1-1.7.2-3.2 1.2-4.5 2.8-1.3 1.7-1.9 3.5-1.6 5.3.2 1.8 1.3 3.4 3 4.7.9.7 1.8 1.2 2.7 1.4.6.2 1.1.2 1.7.2.4 0 .8 0 1.2-.1.5-.1 1.2-.4 3.5-1.8.6-.4 1-.6 1.3-.8 1.6-1 2.3-1.1 2.5-1.1.5 0 1 .3 1.6.7.8.6 1.3 1.3 1.4 2s-.1 1.4-.7 2.2-1.3 1.3-2 1.3h-.2c-.7 0-1.5-.4-2.4-1 0 0-2.9 3.4-2.8 3.5 1.8 1.4 3.5 2.1 5.2 2.1h.5c1.8-.2 3.5-1.2 4.9-3q2.1-2.85 1.8-5.7c-.2-2-1.3-3.7-3.1-5.1m14.9-9.4-1.8-1.4-.8-.6-.7.8-4.6 6-4.8-3.7 4.3-5.5.6-.8-.8-.6-1.8-1.4-.8-.6-.7.8-4.2 5.4-3.9-3 4.5-5.9.7-.8-.9-.7-1.8-1.4-.8-.6-.6.8-6.7 8.7-.7.8.8.6 17.5 13.5.8.7.7-.9 6.7-8.7.7-.8z" class="st2" data-source="https://football-logos.cc"></path><path d="M71.8 85.8h3.4v12.4c0 1.4.2 2.4.5 2.9s1 .8 1.8.8c.9 0 1.5-.3 1.8-.8s.5-1.5.5-2.9V85.8h3.4v12.7c0 1.2-.1 2.1-.2 2.7s-.4 1.1-.7 1.5c-.5.6-1.1 1.1-1.9 1.5-.8.3-1.8.5-2.9.5-2.1 0-3.6-.5-4.4-1.4-.9-.9-1.3-2.5-1.3-4.8zm14.5 18.4v-3.3h3.1v3.3zm9.2-5.3v.7c0 1.1.1 1.9.4 2.3s1.2.6 1.9.6c.8 0 1.6-.2 2-.6s.9-1.5.9-2.2c0-.6-.4-1.8-.8-2.1-.8-.8-4.5-2.1-4.5-2.1-1.8-.8-2.4-1.7-2.8-2.4s-.5-1.9-.5-2.9c0-1.5.5-2.8 1.4-3.6 1-.9 2.3-1.3 4-1.3 1.8 0 3.5.4 4.5 1.3s1.4 2.1 1.4 3.8h-3.2c0-1-.3-1.7-.6-2.1s-1-.8-1.8-.8c-.6 0-1.4.4-1.7.7s-.6 1.2-.6 1.8c0 1.2.5 1.9 2 2.8l3.7 1.7c1.4.9 1.7.9 2.2 1.7s.8 1.8.8 3q0 2.55-1.5 3.9c-1 .9-3 1.4-4.9 1.4s-3.4-.5-4.3-1.4c-1-1-1.2-1.7-1.2-3.7 0-.2 0-.1.1-.6zm11.2 5.3v-3.3h3.1v3.3zM150.3 206.6v-13.2h-3.6v-1.9s1.7-.1 3-.8c1-.5 1.5-1.4 1.6-2.4h2.5v18.3zm16.7-7.9c-.3.4-.8 1.1-1.2 1.3q-.75.3-1.8.3c-1.6 0-2.9-.2-3.7-1.2-.7-.9-1.1-2-1.1-4 0-2.5.4-4.3 1.3-5.3.8-1 2.2-1.6 4.2-1.6 1.2 0 2.1.2 2.9.5.7.3 1.4.8 1.8 1.6.4.5.6 1.3.8 2.4s.2 2.7.2 4.8c0 2.2-.1 3.8-.2 4.9s-.4 1.9-.7 2.4c-.5.7-1.1 1.3-1.9 1.7s-1.7.5-2.8.5c-1.7 0-3-.3-3.9-1s-1.3-1.7-1.3-3v-.1l2.9.1v.2c0 .5.1 1.2.4 1.5s.9.4 1.4.4c.7 0 2-.3 2.3-.9.3-.5.4-1.8.4-3.3zm-.3-4.2c0-1.4-.1-3.2-.4-3.7s-.8-.8-1.5-.8c-2 0-1.8.4-2 .8-.3.5-.3 2.1-.3 3.6s.1 2.5.4 3c.3.4 1.2.7 2 .7.7 0 1.2-.3 1.4-.8.3-.4.4-1.4.4-2.8m5.6 7.3h3.4v.2c0 1.4.1 1.6.4 2.1s.8.8 1.6.8c.7 0 1.2-.2 1.5-.7s.4-1.3.4-2.6c0-1.2-.2-2.7-.5-3.1q-.6-.6-2.1-.6h-1.1v-2h.3c1.2 0 2-.2 2.4-.5.4-.4.7-1 .7-2 0-.9-.1-2.3-.4-2.6-.3-.4-.7-.5-1.3-.5s-1.5.2-1.8.6-.4.9-.4 1.8v.4h-2.9v-.7c0-1.6.4-2.3 1.3-3.1s2.2-1.2 4-1.2c1.6 0 2.9.4 3.8 1.2s1.3 2 1.3 3.5c0 1-.2 2.2-.6 2.9s-1 1.1-1.7 1.3c.9.2 1.6.7 2.1 1.4.4.7.7 1.3.7 2.6 0 2-.5 3.4-1.4 4.4s-2.4 1.5-4.3 1.5c-1.8 0-3.2-.5-4.1-1.4s-1.3-1.7-1.3-3v-.7m12.7 4.8v-.6c0-1.4.4-2.3 1-3.6s1.6-2.5 2.9-3.8c.2-.2.6-.5 1.1-.9.9-.7 1.5-1.3 1.8-1.7s.5-.7.6-1.2.1-1.3.1-1.8c0-.8-.2-2-.5-2.4s-.8-.6-1.4-.6c-.7 0-1.6.3-1.9.8s-.5 1.9-.5 2.9c0 0-3.1.1-3.1 0 0-1.9.4-3.3 1.3-4.2s2.3-1.3 4.2-1.3q2.7 0 4.2 1.2c1 .8 1.4 1.9 1.4 3.5 0 .7-.1 1.3-.3 1.9s-.4 1.2-.8 1.7c-.3.4-.9 1.1-1.9 2-.5.5-.9.8-1.2 1.1-1.9 1.9-3 3.3-3.3 4.6h7.2v2.4z" class="st1"></path><path d="M223.8 57.2 90 231c.5.6 1.1 1.2 1.6 1.9L226.3 58c-.8-.3-1.6-.5-2.5-.8m-38.9-15.5L66 196.3c.4.8.9 1.6 1.3 2.3L187.2 42.8c-.8-.3-1.5-.7-2.3-1.1" class="st2" data-source="https://football-logos.cc"></path><!-- source: https://football-logos.cc --></svg>