<svg xmlns="http://www.w3.org/2000/svg" viewBox="0 0 71.11 82.85"><!-- Source: https://football-logos.cc --><defs data-source="https://football-logos.cc"><clipPath id="a" clipPathUnits="userSpaceOnUse"><path d="M1045.817 925.245h41.75v47.298h-41.75z"></path></clipPath><clipPath id="b" clipPathUnits="userSpaceOnUse"><path d="M0 0h1191v842H0Z"></path></clipPath><clipPath id="c" clipPathUnits="userSpaceOnUse"><path d="M1045.817 925.245h41.75v47.298h-41.75z"></path></clipPath><clipPath id="d" clipPathUnits="userSpaceOnUse"><path d="M0 0h1191v842H0Z"></path></clipPath><clipPath id="e" clipPathUnits="userSpaceOnUse"><path d="M1045.817 925.245h41.75v47.298h-41.75z"></path></clipPath><clipPath id="f" clipPathUnits="userSpaceOnUse"><path d="M0 0h1191v842H0Z"></path></clipPath><clipPath id="g" clipPathUnits="userSpaceOnUse"><path d="M1045.812 925.245h41.755v47.298h-41.755z"></path></clipPath><clipPath id="h" clipPathUnits="userSpaceOnUse"><path d="M0 0h1191v842H0Z"></path></clipPath><clipPath id="i" clipPathUnits="userSpaceOnUse"><path d="M1045.812 925.245h41.755v47.298h-41.755z"></path></clipPath><clipPath id="j" clipPathUnits="userSpaceOnUse"><path d="M0 0h1191v842H0Z"></path></clipPath><clipPath id="k" clipPathUnits="userSpaceOnUse"><path d="M1045.812 925.245h41.755v47.298h-41.755z"></path></clipPath><clipPath id="l" clipPathUnits="userSpaceOnUse"><path d="M0 0h1191v842H0Z"></path></clipPath><clipPath id="m" clipPathUnits="userSpaceOnUse"><path d="M1045.817 925.245h41.75v47.298h-41.75z"></path></clipPath><clipPath id="n" clipPathUnits="userSpaceOnUse"><path d="M0 0h1191v842H0Z"></path></clipPath><clipPath id="o" clipPathUnits="userSpaceOnUse"><path d="M1045.817 925.245h41.75v47.298h-41.75z"></path></clipPath><clipPath id="p" clipPathUnits="userSpaceOnUse"><path d="M0 0h1191v842H0Z"></path></clipPath><clipPath id="q" clipPathUnits="userSpaceOnUse"><path d="M1045.812 925.245h41.755v47.298h-41.755z"></path></clipPath><clipPath id="r" clipPathUnits="userSpaceOnUse"><path d="M0 0h1191v842H0Z"></path></clipPath><clipPath id="s" clipPathUnits="userSpaceOnUse"><path d="M1045.812 925.245h41.755v47.298h-41.755z"></path></clipPath><clipPath id="t" clipPathUnits="userSpaceOnUse"><path d="M0 0h1191v842H0Z"></path></clipPath><clipPath id="u" clipPathUnits="userSpaceOnUse"><path d="M1045.812 925.245h41.755v47.298h-41.755z"></path></clipPath><clipPath id="v" clipPathUnits="userSpaceOnUse"><path d="M0 0h1191v842H0Z"></path></clipPath><clipPath id="w" clipPathUnits="userSpaceOnUse"><path d="M1045.812 925.245h41.755v47.298h-41.755z"></path></clipPath><clipPath id="x" clipPathUnits="userSpaceOnUse"><path d="M0 0h1191v842H0Z"></path></clipPath><clipPath id="y" clipPathUnits="userSpaceOnUse"><path d="M1045.817 925.245h41.75v47.298h-41.75z"></path></clipPath><clipPath id="z" clipPathUnits="userSpaceOnUse"><path d="M0 0h1191v842H0Z"></path></clipPath><clipPath id="A" clipPathUnits="userSpaceOnUse"><path d="M1045.812 925.245h41.755v47.298h-41.755z"></path></clipPath><clipPath id="B" clipPathUnits="userSpaceOnUse"><path d="M0 0h1191v842H0Z"></path></clipPath><clipPath id="C" clipPathUnits="userSpaceOnUse"><path d="M1045.812 925.245h41.755v47.298h-41.755z"></path></clipPath><clipPath id="D" clipPathUnits="userSpaceOnUse"><path d="M0 0h1191v842H0Z"></path></clipPath><clipPath id="E" clipPathUnits="userSpaceOnUse"><path d="M1045.812 925.245h41.755v47.298h-41.755z"></path></clipPath><clipPath id="F" clipPathUnits="userSpaceOnUse"><path d="M0 0h1191v842H0Z"></path></clipPath><clipPath id="G" clipPathUnits="userSpaceOnUse"><path d="M1045.817 925.245h41.75v47.298h-41.75z"></path></clipPath><clipPath id="H" clipPathUnits="userSpaceOnUse"><path d="M0 0h1191v842H0Z"></path></clipPath><clipPath id="I" clipPathUnits="userSpaceOnUse"><path d="M1045.812 925.245h41.755v47.298h-41.755z"></path></clipPath><clipPath id="J" clipPathUnits="userSpaceOnUse"><path d="M0 0h1191v842H0Z"></path></clipPath><clipPath id="K" clipPathUnits="userSpaceOnUse"><path d="M1045.817 925.245h41.75v47.298h-41.75z"></path></clipPath><clipPath id="L" clipPathUnits="userSpaceOnUse"><path d="M0 0h1191v842H0Z"></path></clipPath><clipPath id="M" clipPathUnits="userSpaceOnUse"><path d="M1045.812 925.245h41.755v47.298h-41.755z"></path></clipPath><clipPath id="N" clipPathUnits="userSpaceOnUse"><path d="M0 0h1191v842H0Z"></path></clipPath><clipPath id="O" clipPathUnits="userSpaceOnUse"><path d="M1045.812 925.245h41.755v47.298h-41.755z"></path></clipPath><clipPath id="P" clipPathUnits="userSpaceOnUse"><path d="M0 0h1191v842H0Z"></path></clipPath><clipPath id="Q" clipPathUnits="userSpaceOnUse"><path d="M1045.812 925.245h41.755v47.298h-41.755z"></path></clipPath><clipPath id="R" clipPathUnits="userSpaceOnUse"><path d="M0 0h1191v842H0Z"></path></clipPath><clipPath id="S" clipPathUnits="userSpaceOnUse"><path d="M1045.812 925.245h41.755v47.298h-41.755z"></path></clipPath><clipPath id="T" clipPathUnits="userSpaceOnUse"><path d="M0 0h1191v842H0Z"></path></clipPath><clipPath id="U" clipPathUnits="userSpaceOnUse"><path d="M1045.817 925.245h41.75v47.298h-41.75z"></path></clipPath><clipPath id="V" clipPathUnits="userSpaceOnUse"><path d="M0 0h1191v842H0Z"></path></clipPath><clipPath id="W" clipPathUnits="userSpaceOnUse"><path d="M1045.812 925.245h41.755v47.298h-41.755z"></path></clipPath><clipPath id="X" clipPathUnits="userSpaceOnUse"><path d="M0 0h1191v842H0Z"></path></clipPath><clipPath id="Y" clipPathUnits="userSpaceOnUse"><path d="M1045.812 925.245h41.755v47.298h-41.755z"></path></clipPath><clipPath id="Z" clipPathUnits="userSpaceOnUse"><path d="M0 0h1191v842H0Z"></path></clipPath><clipPath id="aa" clipPathUnits="userSpaceOnUse"><path d="M1045.812 925.245h41.755v47.298h-41.755z"></path></clipPath><clipPath id="ab" clipPathUnits="userSpaceOnUse"><path d="M0 0h1191v842H0Z"></path></clipPath><clipPath id="ac" clipPathUnits="userSpaceOnUse"><path d="M1045.812 925.245h41.755v47.298h-41.755z"></path></clipPath><clipPath id="ad" clipPathUnits="userSpaceOnUse"><path d="M0 0h1191v842H0Z"></path></clipPath></defs><g clip-path="url(#a)" transform="matrix(1.75165 0 0 1.75165 -1832.915 -1620.71)"><path d="M787.352 706.535v11.34a16.196 16.196 0 0 0 2.261 3.098v-14.438z" clip-path="url(#b)" style="fill:#e41836;fill-opacity:1;fill-rule:nonzero;stroke:none" transform="scale(1.33333)"></path></g><g clip-path="url(#c)" transform="matrix(1.75165 0 0 1.75165 -1832.915 -1620.71)"><path d="M791.965 706.535v16.668q.13.111.265.223c.676.562 1.348 1.09 1.997 1.582v-18.473z" clip-path="url(#d)" style="fill:#e41836;fill-opacity:1;fill-rule:nonzero;stroke:none" transform="scale(1.33333)"></path></g><g clip-path="url(#e)" transform="matrix(1.75165 0 0 1.75165 -1832.915 -1620.71)"><path d="M796.582 706.535v20.145c.828.55 1.594 1.023 2.262 1.41v-21.555z" clip-path="url(#f)" style="fill:#e41836;fill-opacity:1;fill-rule:nonzero;stroke:none" transform="scale(1.33333)"></path></g><g clip-path="url(#g)" transform="matrix(1.75165 0 0 1.75165 -1832.915 -1620.71)"><path d="M801.195 706.535v21.555c.668-.387 1.43-.86 2.262-1.41v-20.145z" clip-path="url(#h)" style="fill:#e41836;fill-opacity:1;fill-rule:nonzero;stroke:none" transform="scale(1.33333)"></path></g><g clip-path="url(#i)" transform="matrix(1.75165 0 0 1.75165 -1832.915 -1620.71)"><path d="M805.809 706.535v18.473q.979-.738 2-1.582.133-.111.261-.223v-16.668z" clip-path="url(#j)" style="fill:#e41836;fill-opacity:1;fill-rule:nonzero;stroke:none" transform="scale(1.33333)"></path></g><g clip-path="url(#k)" transform="matrix(1.75165 0 0 1.75165 -1832.915 -1620.71)"><path d="M810.422 706.535v14.438a16.196 16.196 0 0 0 2.191-2.969l.071-.129v-11.34z" clip-path="url(#l)" style="fill:#e41836;fill-opacity:1;fill-rule:nonzero;stroke:none" transform="scale(1.33333)"></path></g><g clip-path="url(#m)" transform="matrix(1.75165 0 0 1.75165 -1832.915 -1620.71)"><path d="M785.406 706.535v3.039c0 3.219.637 5.934 1.946 8.301v-11.34z" clip-path="url(#n)" style="fill:#fff;fill-opacity:1;fill-rule:nonzero;stroke:none" transform="scale(1.33333)"></path></g><g clip-path="url(#o)" transform="matrix(1.75165 0 0 1.75165 -1832.915 -1620.71)"><path d="M789.613 706.535v14.438a26 26 0 0 0 2.356 2.23v-16.668z" clip-path="url(#p)" style="fill:#fff;fill-opacity:1;fill-rule:nonzero;stroke:none" transform="scale(1.33333)"></path></g><g clip-path="url(#q)" transform="matrix(1.75165 0 0 1.75165 -1832.915 -1620.71)"><path d="M814.633 706.535h-1.949v11.34c1.312-2.367 1.949-5.082 1.949-8.301z" clip-path="url(#r)" style="fill:#fff;fill-opacity:1;fill-rule:nonzero;stroke:none" transform="scale(1.33333)"></path></g><g clip-path="url(#s)" transform="matrix(1.75165 0 0 1.75165 -1832.915 -1620.71)"><path d="M803.457 706.535v20.145a55 55 0 0 0 2.352-1.672v-18.473z" clip-path="url(#t)" style="fill:#fff;fill-opacity:1;fill-rule:nonzero;stroke:none" transform="scale(1.33333)"></path></g><g clip-path="url(#u)" transform="matrix(1.75165 0 0 1.75165 -1832.915 -1620.71)"><path d="M808.07 706.535v16.668a25 25 0 0 0 2.352-2.23v-14.438z" clip-path="url(#v)" style="fill:#fff;fill-opacity:1;fill-rule:nonzero;stroke:none" transform="scale(1.33333)"></path></g><g clip-path="url(#w)" transform="matrix(1.75165 0 0 1.75165 -1832.915 -1620.71)"><path d="M798.844 706.535v21.555c.433.25.828.461 1.176.637.343-.176.738-.387 1.175-.637v-21.555z" clip-path="url(#x)" style="fill:#fff;fill-opacity:1;fill-rule:nonzero;stroke:none" transform="scale(1.33333)"></path></g><g clip-path="url(#y)" transform="matrix(1.75165 0 0 1.75165 -1832.915 -1620.71)"><path d="M794.227 706.535v18.473a54 54 0 0 0 2.355 1.672v-20.145z" clip-path="url(#z)" style="fill:#fff;fill-opacity:1;fill-rule:nonzero;stroke:none" transform="scale(1.33333)"></path></g><g clip-path="url(#A)" transform="matrix(1.75165 0 0 1.75165 -1832.915 -1620.71)" data-source="https://football-logos.cc"><path d="M804.883 713.859a4.767 4.767 0 0 0-4.766-4.765 4.764 4.764 0 1 0 0 9.527 4.764 4.764 0 0 0 4.766-4.762" clip-path="url(#B)" style="fill:#fff;fill-opacity:1;fill-rule:nonzero;stroke:none" transform="scale(1.33333)"></path></g><g clip-path="url(#C)" transform="matrix(1.75165 0 0 1.75165 -1832.915 -1620.71)"><path d="M792.648 697.52c2.68 0 5.219-.797 7.372-2.313 2.148 1.516 4.687 2.313 7.367 2.313 2.668 0 5.238-.821 7.246-2.286v10.688h-29.227v-10.688c2.004 1.465 4.574 2.286 7.242 2.286" clip-path="url(#D)" style="fill:#0069b4;fill-opacity:1;fill-rule:nonzero;stroke:none" transform="scale(1.33333)"></path></g><g clip-path="url(#E)" transform="matrix(1.75165 0 0 1.75165 -1832.915 -1620.71)"><path d="m800.125 695.82.613 1.899 1.992-.004-1.617 1.164.625 1.894-1.613-1.175-1.609 1.175.625-1.894-1.618-1.164 1.993.004z" clip-path="url(#F)" style="fill:#fff;fill-opacity:1;fill-rule:nonzero;stroke:none" transform="scale(1.33333)"></path></g><g clip-path="url(#G)" transform="matrix(1.75165 0 0 1.75165 -1832.915 -1620.71)"><path d="M788.926 705.414h-2.274v-3.207h.707v2.605h1.567z" clip-path="url(#H)" style="fill:#fff;fill-opacity:1;fill-rule:nonzero;stroke:none" transform="scale(1.33333)"></path></g><g clip-path="url(#I)" transform="matrix(1.75165 0 0 1.75165 -1832.915 -1620.71)"><path d="M790.93 702.207h.707v3.211h-.707z" clip-path="url(#J)" style="fill:#fff;fill-opacity:1;fill-rule:nonzero;stroke:none" transform="scale(1.33333)"></path></g><g clip-path="url(#K)" transform="matrix(1.75165 0 0 1.75165 -1832.915 -1620.71)"><path d="M794.539 704.855h.711c.301 0 .594-.058.594-.437 0-.387-.317-.434-.633-.434h-.672zm0-1.351h.641c.258 0 .531-.051.531-.375s-.262-.379-.531-.379h-.641zm.836-1.297c.563 0 1.023.238 1.023.809a.705.705 0 0 1-.437.66c.332.094.586.34.586.785 0 .625-.485.957-1.086.957h-1.606v-3.211z" clip-path="url(#L)" style="fill:#fff;fill-opacity:1;fill-rule:nonzero;stroke:none" transform="scale(1.33333)"></path></g><g clip-path="url(#M)" transform="matrix(1.75165 0 0 1.75165 -1832.915 -1620.71)"><path d="M801.043 702.785h-1.711v.699h1.57v.551h-1.57v.789h1.742v.59h-2.441v-3.207h2.41z" clip-path="url(#N)" style="fill:#fff;fill-opacity:1;fill-rule:nonzero;stroke:none" transform="scale(1.33333)"></path></g><g clip-path="url(#O)" transform="matrix(1.75165 0 0 1.75165 -1832.915 -1620.71)"><path d="M803.883 703.582h.668c.328 0 .621-.055.621-.422 0-.34-.293-.398-.59-.398h-.699zm.312.48h-.312v1.356h-.699v-3.211h1.593c.594 0 1.086.266 1.086.91 0 .375-.191.668-.511.789-.125.067-.301.106-.301.106.265.093.39.297.609.633.133.199.395.574.485.773h-.778s-.562-.852-.683-1.023c-.153-.211-.262-.333-.489-.333" clip-path="url(#P)" style="fill:#fff;fill-opacity:1;fill-rule:nonzero;stroke:none" transform="scale(1.33333)"></path></g><g clip-path="url(#Q)" transform="matrix(1.75165 0 0 1.75165 -1832.915 -1620.71)"><path d="M808.012 702.207h.707v3.211h-.707z" clip-path="url(#R)" style="fill:#fff;fill-opacity:1;fill-rule:nonzero;stroke:none" transform="scale(1.33333)"></path></g><g clip-path="url(#S)" transform="matrix(1.75165 0 0 1.75165 -1832.915 -1620.71)"><path d="m812.172 702.992-.426 1.192h.852zm1.586 2.426h-.738l-.25-.719h-1.196l-.262.719h-.722l1.222-3.215h.727z" clip-path="url(#T)" style="fill:#fff;fill-opacity:1;fill-rule:nonzero;stroke:none" transform="scale(1.33333)"></path></g><g clip-path="url(#U)" transform="matrix(1.75165 0 0 1.75165 -1832.915 -1620.71)"><path d="M796.117 723.117h-1.863v-2.633h.574v2.137h1.289z" clip-path="url(#V)" style="fill:#010202;fill-opacity:1;fill-rule:nonzero;stroke:none" transform="scale(1.33333)"></path></g><g clip-path="url(#W)" transform="matrix(1.75165 0 0 1.75165 -1832.915 -1620.71)"><path d="M800.773 720.969h-1.281v.609h1.113v.461h-1.113v1.078h-.574v-2.633h1.855z" clip-path="url(#X)" style="fill:#010202;fill-opacity:1;fill-rule:nonzero;stroke:none" transform="scale(1.33333)"></path></g><g clip-path="url(#Y)" transform="matrix(1.75165 0 0 1.75165 -1832.915 -1620.71)"><path d="m804.441 721.129-.351.98h.699zm1.301 1.988h-.605l-.207-.586h-.981l-.215.586h-.593l1.004-2.637h.593z" clip-path="url(#Z)" style="fill:#010202;fill-opacity:1;fill-rule:nonzero;stroke:none" transform="scale(1.33333)"></path></g><g clip-path="url(#aa)" transform="matrix(1.75165 0 0 1.75165 -1832.915 -1620.71)"><path d="M802.516 717.773c.781-1.558.812-3.382.089-5.203.102-.429.309-.75.59-.902q.388-.212.946-.02a4.56 4.56 0 0 1 .57 2.211 4.59 4.59 0 0 1-2.195 3.914m-6.981-3.601c.559.867 1.422 1.558 2.531 2.027a7.6 7.6 0 0 0 1.879.52c.114.113.465.5.465.996 0 .156-.062.41-.355.734a4.596 4.596 0 0 1-4.52-4.277m4.582-4.902c.766 0 1.488.187 2.125.519-.57.02-1.195.156-1.801.406-1.046.438-2.023 1.192-2.828 2.184-.562.117-1.246.055-1.484-.797a4.6 4.6 0 0 1 3.988-2.312m.153 7.292c.23-.222.546-.621.582-1.171.035-.528-.2-1.071-.696-1.606.399-.949 1.176-1.359 2.117-1.117.77 1.918.661 3.832-.316 5.398-.453.2-.941.325-1.453.368.199-.297.25-.547.25-.719 0-.531-.301-.949-.484-1.153m-1.797-2.714c.507.297 1.05.375 1.476.218.399.446.586.887.563 1.305-.035.488-.36.84-.543 1.004a7.3 7.3 0 0 1-1.778-.496c-1.277-.539-2.168-1.352-2.648-2.41.043-.52.172-1.016.375-1.473.246.504.691.77 1.285.77q.171.001.359-.028c.094.414.426.828.911 1.11m5.406-2.618q-.471-.069-.848.137c-.328.18-.578.516-.715.953-.562-.132-1.086-.066-1.531.192-.433.258-.777.683-.988 1.242h.004c-.324.105-.754.031-1.156-.203-.426-.25-.715-.621-.762-.961.769-.945 1.699-1.664 2.691-2.074.793-.332 1.617-.454 2.274-.344.398.293.746.652 1.031 1.058m-.887-1.382s-.004 0-.004-.004a4.93 4.93 0 0 0-2.871-.922 4.943 4.943 0 0 0-4.937 4.937 4.943 4.943 0 0 0 4.937 4.938 4.943 4.943 0 0 0 4.938-4.938 4.94 4.94 0 0 0-2.063-4.011" clip-path="url(#ab)" style="fill:#e41836;fill-opacity:1;fill-rule:nonzero;stroke:none" transform="scale(1.33333)"></path></g><g clip-path="url(#ac)" transform="matrix(1.75165 0 0 1.75165 -1832.915 -1620.71)" data-source="https://football-logos.cc"><path d="M812.613 718.004a16.2 16.2 0 0 1-2.164 2.941c-.734.805-1.574 1.59-2.64 2.481-3.121 2.597-6.079 4.437-7.789 5.301-1.711-.864-4.668-2.704-7.79-5.301-1.07-.891-1.906-1.676-2.64-2.481-.875-.957-1.586-1.918-2.164-2.941-1.36-2.395-2.02-5.152-2.02-8.43v-3.039h29.227v3.039c0 3.278-.66 6.035-2.02 8.43m-19.965-20.484c2.68 0 5.219-.797 7.372-2.313 2.152 1.516 4.687 2.313 7.371 2.313 2.664 0 5.234-.821 7.242-2.286v10.688h-29.227v-10.688c2.004 1.465 4.574 2.286 7.242 2.286m14.743-.614c-2.543 0-5.157-.777-7.371-2.457-2.215 1.68-4.829 2.457-7.372 2.457-2.964 0-5.828-1.054-7.855-2.972v15.64c0 7.348 3.25 11.164 7.047 14.321 3.246 2.703 6.394 4.66 8.18 5.511 1.781-.851 4.933-2.808 8.179-5.511 3.793-3.157 7.043-6.973 7.043-14.321v-15.64c-2.023 1.918-4.89 2.972-7.851 2.972" clip-path="url(#ad)" style="fill:#ebc185;fill-opacity:1;fill-rule:nonzero;stroke:none" transform="scale(1.33333)"></path></g><!-- source: https://football-logos.cc --></svg>