<svg xmlns="http://www.w3.org/2000/svg" viewBox="3.28 81.72 403.12 404.63"><!-- Source: https://football-logos.cc --><path d="M292.093 238.304c-23.711-10.591-39.32-23.003-50.081-34.686-5.911-6.42-10.488-12.624-14.145-18.202-4.398-6.708-6.954-12.48-9.208-16.745-1.134-2.135-2.18-3.91-3.48-5.278-1.273-1.364-3.004-2.317-4.976-2.296-1.956-.02-3.677.917-4.944 2.264-.693.722-1.313 1.56-1.912 2.506-.6-.946-1.22-1.784-1.913-2.506-1.266-1.347-2.988-2.284-4.944-2.264-1.972-.02-3.703.932-4.976 2.296-1.936 2.053-3.363 5.014-5.252 8.75-1.873 3.734-4.14 8.244-7.436 13.273-3.658 5.578-8.234 11.783-14.145 18.202-10.76 11.683-26.37 24.095-50.081 34.686l-1.097.49.068 1.194c5.517 97.455 58.368 149.63 88.842 168.784l.933.588.934-.588c30.474-19.154 83.325-71.329 88.842-168.784l.067-1.194z" style="fill:#ffdc00;fill-rule:evenodd" data-source="https://football-logos.cc"></path><path d="M121.047 273.163c2.646 14.246 6.354 27.28 10.805 39.16l151.677-28.966c2.998-13.022 5.105-27.125 6.034-42.375z" style="fill:#fff;fill-rule:evenodd"></path><path d="M203.346 405.239c24.903-15.996 64.615-54.264 80.183-121.882l-151.677 28.965c18.67 49.825 50.396 79.365 71.494 92.917" style="fill:#0a2863;fill-rule:evenodd"></path><path d="M239.435 205.967c-6.062-6.582-10.757-12.949-14.495-18.651-3.418-5.213-5.76-9.881-7.636-13.62-1.86-3.735-3.322-6.54-4.657-7.905-.908-.913-1.527-1.195-2.444-1.216-.91.02-1.525.298-2.424 1.195-.872.893-1.827 2.413-2.888 4.42l-1.545 2.91-1.545-2.91c-1.06-2.007-2.016-3.527-2.888-4.42-.899-.897-1.513-1.175-2.423-1.195-.917.02-1.536.303-2.445 1.216-.88.911-1.845 2.459-2.919 4.5-2.164 4.085-4.82 10.078-9.373 17.025-3.738 5.703-8.433 12.069-14.495 18.651-10.896 11.837-26.618 24.353-50.127 35.015.69 11.354 2.038 22.07 3.916 32.181l168.516-32.181c-23.51-10.662-39.232-23.178-50.128-35.015" style="fill:#e30016;fill-rule:evenodd"></path><path d="m157.56 291.028 6.424.754q-.42 5.305-3.187 8.368t-7.746 4.015q-6.162 1.177-10.935-2.254t-6.175-10.694q-1.482-7.683 1.685-12.696 3.168-5.012 9.666-6.253 5.675-1.084 9.863 1.577 2.49 1.57 4.258 5.064l-5.898 2.65q-1.011-2.289-3.018-3.342-2.008-1.053-4.497-.578-3.44.657-5.107 3.522t-.607 8.365q1.125 5.837 3.714 7.91 2.586 2.075 5.963 1.43 2.49-.475 3.979-2.392 1.49-1.917 1.618-5.446M192.19 264.238l11.414-2.18q3.861-.738 6-.536a10.57 10.57 0 0 1 5.21 1.943q2.333 1.666 3.914 4.422 1.582 2.757 2.416 7.08.733 3.801.314 6.732-.513 3.58-2.263 6.069-1.321 1.886-3.915 3.294-1.943 1.046-5.402 1.707l-11.752 2.244zm7.25 4.013 3.931 20.384 4.663-.89q2.616-.5 3.72-1.015 1.446-.669 2.274-1.762.828-1.095 1.062-3.283.234-2.189-.454-5.757-.689-3.569-1.69-5.359-1.002-1.79-2.347-2.642-1.347-.853-3.17-.897-1.365-.043-5.183.685zM263.307 282.565l-4.932-25.569-9.177 1.753-1.005-5.206 24.58-4.694 1.003 5.206-9.156 1.749 4.932 25.569z" style="fill:#ffdc00;fill-rule:evenodd"></path><path d="M371.429 226.771c6.473-2.815 7.067-5.67 5.266-11.599-.772-2.542-2.51-4.987-3.401-6.287-.693-1.008-1.207-1.754-2.14-2.488l-20.768 8.794 2.327 5.229 18.242-7.842c1.076 1.033 2.63 3.444 2.521 5.458-.1 1.851-2.337 3.051-5.328 4.288l-12.689 5.247 2.17 5.202zM347.688 167.493l-2.794 2.29 1.738 1.998-15.85 12.736 3.657 4.26 15.481-12.842 2.602 3.173 2.794-2.289-2.68-3.073.964-.79c3.124-2.56 4.388-3.687 7.269-.557l2.89-2.52c-1.54-2.12-3.775-3.964-6.335-4.212-3.575-.347-6.07 2.403-7.998 3.982zM317.998 129.183l-14.49-9.367-2.426 3.674 5.174 3.093-14.08 22.357 4.74 3 13.896-22.357 4.892 3.116zM273.311 125.883c-1.638 4.263-3.799 7.036-6.968 5.818-3.208-1.232-2.778-5.5-1.17-9.685 1.416-3.682 3.798-7.608 7.534-6.172 3.66 1.406 1.96 6.512.604 10.039m.895-13.511c-5.51-2.118-11.43.457-14.2 7.665-2.65 6.899-.638 13.183 4.717 15.36 4.68 1.904 10.951.026 14.019-7.957 2.516-6.55 1.163-12.878-4.536-15.068M253.964 105.474l-8.5 17.019-.116-.033-.99-18.802-5.45-1.139 2.543 24.947 5.272 1.12 12.219-21.753zM233.414 101.412l-5.444-.788-3.396 23.573 5.76.656zM234.434 94.698c.2-1.606-.736-2.936-2.34-3.135-1.605-.199-2.877.857-3.076 2.464-.19 1.524.74 2.895 2.345 3.094 1.685.209 2.882-.898 3.071-2.423M212.977 99.604l-2.777-.234-.214 3.55 2.776.233-1.035 12.538c-.245 2.98.097 4.782 1.119 6.12.9 1.178 2.437 1.902 4.345 2.197 1.557.242 2.705.109 3.537-.163l.139-3.776c-.577.124-.951.37-1.868.216-1.975-.33-1.986-1.84-1.775-4.655l.911-12.132 3.967.234.215-3.549-3.966-.234.47-6.843-5.484 1.252zM206.551 99.125c-4.075-.194-5.793.187-6.835.343-1.181.177-3.556.862-4.664 1.543l-.102 22.353 5.637.07-.134-16.228c-.032-3.96.129-4.46 1.958-4.454.524.002 1.667.05 3.176.402zM182.797 112.854c.556 4.533.192 8.593-3.178 9.006-3.41.418-5.13-3.45-5.675-7.9-.48-3.915-.806-8.788 3.167-9.274 3.892-.478 5.226 4.418 5.686 8.168m-5.966-11.774c-5.859.718-9.429 5.924-8.49 13.589.9 7.335 6.016 11.705 11.754 11.002 4.976-.61 9.149-4.81 8.252-13.316-.801-7.596-5.457-12.018-11.516-11.275M147.083 111.796c1.882-1.118 3.187-1.601 4.915-1.523 1.952.087 4.651 2.197 6.07 7.519 1.068 4 1.349 7.362-1.63 9.338-1.705 1.129-3.211 1.297-4.173 1.383zm-2.677-2.326c-1.008.628-2.187 1.197-3.03 2.256l9.587 30.23 5.232-1.55-2.886-8.935c.04-.014 3.426-.129 5.253-1.325 4.14-2.71 7.108-6.152 4.716-14.19-2.025-6.804-6.996-9.281-10.738-9.258-4.015.025-6.23 1.588-8.133 2.772M134.286 114.29c-6.358-.535-12.948 3.514-10.524 10.27 1.324 3.69 3.883 4.357 8.148 4.008 2.591-.212 3.607.712 4.354 2.287.748 1.574.008 3.075-1.367 4.111-1.359 1.025-3.83 1.16-5.156 1.008l-.102 3.73c1.743.183 4.652-.13 6.769-1.135 4.565-2.167 6.743-6.383 4.856-10.359-1.424-3-4.778-4.083-8.761-3.932-2.962.112-3.952-.931-4.287-2.472-.672-3.1 2.802-4.435 5.997-4.125zM78.173 145.984c.517-.643 1.092-1.662 2.305-2.73 3.146-2.772 7.308-1.752 12.46 4.052 5.6 6.309 6.946 10.56 2.402 14.115-.86.673-1.532 1.173-2.234 1.592zm12.535 22.779c2.236-.388 4.909-2.097 7.047-3.825 8.07-6.524 6.075-13.989-.67-21.367-4.762-5.209-11.716-9.525-19.67-2.927-2.24 1.858-4.18 4.668-5.237 6.95zM75.187 181.034c-.163 1.528-.858 3.367-1.724 4.888-1.471 2.586-3.941 4.981-9.51 2.29l6.67-13.196c-.485-.33-1.154-.83-1.824-1.244-6.066-3.756-12.274-2.4-14.562 3.433-2.943 7.5 1.158 11.268 6.93 14.88 6.1 3.816 12.214 1.843 15.493-4.073 1.47-2.651 2.04-4.274 2.316-5.913zm-13.808 5.594c-3.171-2.05-5.467-5.067-3.877-8.242 1.511-3.018 4.6-3.31 8.462-.458zM39.874 203.112l-9.94-5.38-2.68 4.507 29.311 15.806c1.058-.717 2.196-1.646 3.041-2.69 2.017-2.491 2.693-3.776 3.41-6.606 1.133-4.467-.156-9.5-6.732-12.899-6.196-3.203-11.509-2.839-14.221 1.152-1.838 2.704-2.042 4.61-2.19 6.11m2.397 1.284c-.013-1.239.525-2.831 1.77-4.16 2.432-2.593 5.472-1.803 9.736.396 5.45 2.812 7.128 6.55 4.936 10.034-.621.988-1.001 1.248-1.393 1.642zM33.54 215.365l-1.843 5.166 18.452 6.717c.132 1.235.285 2.098-.563 3.913-1.3 2.783-3.328 2.696-7.013 1.294L29.4 227.44l-2.21 5.167 13.948 5.25c6.826 2.568 9.474-.147 11.23-3.561.892-1.732 1.847-3.795 2.115-6.636.112-1.19.202-2.82.034-4.533-1.734-.58-2.243-.97-4.656-1.846zM14.905 238.494l-1.142 5.521 33.74 7.889 1.247-5.522zM41.495 256.702c3.065 8.768-5.658 9.945-11.586 8.814-6.58-1.257-13.925-4.41-8.757-12.398l-3.47-1.655c-6.545 9.085-.265 18.605 11.856 20.135 12.42 1.57 19.632-5.993 15.942-15.846zM361.956 348.16l-1.184 3.324 14.525 5.62 1.342-3.43zM357.894 346.556c-1.028-.398-2.069.019-2.477 1.075-.409 1.055.07 2.09 1.098 2.488.975.377 2.042-.03 2.45-1.085.43-1.108-.096-2.1-1.071-2.478M342.323 370.76l-2.026 3.085 19.335 12.171 1.815-3.086zM353.455 390.867c-.375 1.243-.974 1.995-1.764 2.59-.983.739-2.681.893-5.709-1.054-2.804-1.803-3.472-2.826-3.622-4.997-.115-1.658.99-2.534 1.947-3.236 3.027 2.21 6.12 4.486 9.147 6.697m-10.745-8.545c-.922.994-1.936 1.886-2.47 3.752-.904 3.162-.705 6.398 3.673 9.359 3.605 2.438 6.967 2.383 9.218-.112 1.191-1.321 1.395-1.943 1.686-3.422l.413-.192c1.784 1.389 3.019 3.643 1.148 5.839-.949 1.113-1.847 1.579-2.907 2.191l1.458 2.27a9.45 9.45 0 0 0 3.748-3.102c4.487-6.273-.507-9.4-3.022-11.101l-7.352-4.972c-1.732-1.172-2.305-1.605-3.171-2.293a8 8 0 0 0-2.423 1.784M318.701 420.076c1.905 2.457 3.042 4.602 1.164 6.058-1.9 1.474-4.184-.411-6.054-2.823-1.645-2.122-3.105-4.465-.891-6.181 2.17-1.682 4.206.914 5.781 2.946m-7.356-4.906c-3.265 2.53-3.47 6.433-.25 10.587 3.083 3.976 7.13 4.826 10.328 2.347 2.773-2.15 3.771-5.9-.06-10.711-2.974-3.737-6.641-4.842-10.018-2.223M291.49 429.584l-.213 5.473.108.054-4.665-2.8-3.137 1.813 7.574 4.659-.455 9.425 3.404-1.758.098-6.215.049-.028 4.982 3.194 3.197-2.158-8.093-4.522.215-8.907zM281.367 435.31l-3.089 1.687 7.364 13.832 3.246-1.793zM279.574 431.259c-.498-.984-1.55-1.371-2.56-.86-1.01.51-1.348 1.6-.85 2.583.471.933 1.536 1.346 2.546.835 1.06-.536 1.335-1.625.864-2.558M255.38 448.006c.79-.802 1.828-1.304 2.854-1.299 1.78.009 3.234 1.216 4.209 4.018 1.058 3.041 1.226 5.112-.095 6.499-.988 1.035-2.018 1.408-3.164 1.505zm-1.34-1.985c-.99.602-1.688 1.116-2.476 1.883.509 1.29.855 2.162 1.524 4.083l5.539 15.91 3.468-1.29-2.294-6.061c.916.015 1.838-.102 3.175-.721 2.562-1.187 5.008-4.357 3.215-9.674-1.358-4.024-4.407-6.102-7.358-5.85-1.712.146-3.301.813-4.793 1.72M241.252 462.77c-.156 2.5-.482 5.449-.714 7.773l2.206-.47c.46-2.032 1.503-5.01 2.2-7.784.593-2.362-3.552-1.758-3.692.48M233.684 463.888c.133 1.099-.356 1.388-2.356 1.702-1.624.254-3.24-.927-3.406-2.642-.303-3.131 2.671-3.978 5.071-4.747zm2.285-7.283c-.464-3.273-1.782-5.864-6.336-5.34-2.08.24-4.234 1.331-5.25 2.16l1.188 1.847c.91-.759 2.399-1.58 3.775-1.74 3.12-.359 3.308 1.995 3.441 3.146-5.313.615-8.674 2.99-8.23 6.837.276 2.385 2.488 4.084 5.393 4.31 2.121.163 4.952-.923 7.288-2.28zM221.084 452.65l-3.524.356 1.183 15.529 3.523-.355zM220.737 448.135c-.083-1.099-.908-1.858-2.037-1.772-1.128.085-1.856.963-1.773 2.062.08 1.043.906 1.83 2.035 1.745 1.185-.09 1.854-.993 1.775-2.035M215.927 452.908c-2.225.035-2.838.07-5.216.308-1.187.118-2.35.938-2.304 2.195l.495 13.457 3.492-.129-.416-11.144c-.103-2.768.215-2.522 3.337-2.288zM186.079 452.614l-1.745-.102-.185 2.425 1.714.126-.785 8.446c-.188 2.025.058 3.058.762 3.98.62.81 1.778 1.207 3.075 1.32 1.099.097 1.328.06 1.911-.115l.056-2.253c-1.913.113-2.688-.738-2.468-3.237l.691-7.855 2.878.167.216-2.45-2.772-.193.389-4.119-3.489.492zM183.097 453.022c-.747-.626-1.978-1.416-3.481-1.694-3.228-.597-5.665.887-6.163 3.734-.313 1.78.496 3.55 3.112 4.985 1.707.937 1.961 1.897 1.656 3.043-.268 1.01-1.652 1.794-2.825 1.475-1.283-.348-2.098-.955-2.79-1.57l-1.402 2.202c.917.803 2.317 1.635 3.931 1.933 3.479.643 6.057-.691 6.602-3.638.41-2.223-.682-3.838-3.01-5.356-1.73-1.129-1.971-1.914-1.776-2.97.19-1.027.992-1.848 2.438-1.581 1.252.23 1.907.926 2.5 1.428zM171.984 450.384l-3.41-.764-3.58 15.306 3.487.765zM173.147 446.104c.247-1.074-.312-2.044-1.416-2.3-1.102-.253-2.059.367-2.307 1.44-.235 1.02.32 2.018 1.422 2.273 1.158.267 2.066-.394 2.3-1.413M164.1 454.77c1.398-4.514.214-5.804-2.45-6.97-1.555-.679-3.102-.668-4.393-.363l-.054-.017 2.217-7.33-3.268-1.048-6.869 21.635 3.545 1.033 3.374-11.089c.582-1.913 1.951-1.828 3.433-1.196 1.831.78 1.815 2.26 1.13 4.384l-3.025 9.381 3.426 1.047zM113.087 442.695c-1.957-1.139-1.199-4.039 1.466-8.614 2.678-4.6 4.916-6.107 6.82-5.106 1.783.937.994 3.923-1.556 8.303-2.223 3.818-4.334 6.813-6.73 5.417m-1.399 2.059c3.79 2.207 7.478.467 11.153-5.749 2.987-5.054 3.59-9.903-.298-12.167-3.815-2.222-7.428-.398-10.934 5.622-3.293 5.654-3.76 10.058.079 12.294M106.665 427.595c2.504.686 4.295.33 5.572-1.448 1.588-2.211.939-4.598-2.1-7.183-1.793-1.524-3.837-2.188-5.173-2.278l-.441 2.44c.999.016 2.44.606 3.588 1.57 1.259 1.058 1.743 2.116.798 3.657-1.037 1.69-3.64 1.604-4.783.783l-1.127-.81-1.369 1.906 1.173.842c2.046 1.469 2.459 3.685 1.01 5.425-.82.986-2.536 1.949-4.967.389-1.573-1.01-2.444-2.588-2.82-3.447l-2.421 1.759c.432 1.145 2.337 3.043 4.112 4.353 2.72 2.007 6.975 2.09 9.16-.576 1.9-2.316 1.445-5.565-.245-7.336zM97.713 412.628c1.882 1.55 1.592 3.647-.11 5.727-.375.458-1.028 1.263-2.53 2.413-.748-.387-1.387-.928-2.063-1.528-1.607-1.425-1.334-3.509.062-5.132 1.682-1.956 3.504-2.417 4.641-1.48m-3.94 9.296c-3.348 1.667-5.787 1.318-9.475-.292l-.968 2.486c5.125 3.03 12.005 2.523 16.591-3.249 2.875-3.618 2.848-7.282-.43-9.734-3.205-2.397-6.309-1.914-8.778.596-2.249 2.286-2.462 5.551-.06 8.028 1.542 1.592 2.096 1.696 3.12 2.165M77.318 418.471l13.784-14.703-2.054-1.88c-2.109.32-4.293-.457-6.542-2.172l-1.5 1.941c1.349.902 2.732 1.773 4.357 2.442l.219.183-11.309 11.397zM53.208 386.748c-1.018-.936-1.426-1.698-1.737-2.644-.497-1.507.171-3.192 3.253-5.16 2.596-1.658 4.466-2.094 6.228-.992 1.346.842 1.354 2.078 1.71 2.668-3.077 1.959-5.981 3.806-9.454 6.128m19.184-7.833-1.869-3.318-6.196 4.005-.187-.285c-.503-1.654-1.003-2.165-1.42-2.676-2.175-2.664-5.82-3.384-10.292-.568-4.065 2.56-4.653 6.526-2.823 9.791 1.175 2.096 1.836 3.036 4.272 4.702 5.718-4.039 12.528-7.88 18.515-11.651M57.89 370.434c.028-.975-.063-2.456-.777-3.806-1.535-2.901-4.22-3.917-6.835-2.437-1.574.89-2.304 2.426-1.949 5.615.191 1.72-.372 2.48-1.355 2.93-1.293.592-2.434-.05-3.004-1.126-.623-1.176-.561-2.15-.507-3.075l-2.532.223c-.06 1.217.03 2.686.93 4.215 1.793 3.05 4.433 4.346 7.08 2.945 1.998-1.058 2.586-2.918 2.332-5.685-.188-2.057.035-2.805.984-3.307.924-.489 2.045-.316 2.733.984.595 1.125.437 1.985.378 2.72zM42.713 354.98c2.496-1.202 4.605-1.506 5.975.54 1.402 2.092.257 3.59-2.345 5.074zm-1.439 9.81c-.501-.512-.856-.848-1.865-2.249-1.453-2.014-1.536-4.567 1.716-6.588l5.211 8.424c.366-.16.747-.408 1.222-.657 4.453-2.338 5.565-5.525 3.258-9.255-2.323-3.755-6.96-4.034-10.902-1.595-4.038 2.497-5.277 6.565-2.806 10.56 1.117 1.804 1.465 2.404 2.478 3.076zM45.55 337.755c.406.145.683.306.958 1.173 1.184 3.736-.403 5.84-5.388 7.506-5.655 1.89-8.026 1.396-9.485-2.356-.275-.706-.223-1.276-.132-1.787zm-16.763 1.765c-.222 1.13-.15 3.554.46 5.378 2.361 7.064 6.974 6.969 13.232 5.056 4.9-1.498 8.454-5.031 6.33-11.384-.645-1.932-1.497-3.879-2.811-4.669z" style="fill:#fff;fill-rule:evenodd"></path><path d="M204.55 433.216A149.685 149.685 0 0 1 54.865 283.53 149.685 149.685 0 1 1 204.55 433.216Z" style="fill:none;stroke:#1b1918;stroke-width:.56690001;stroke-linecap:butt;stroke-linejoin:miter;stroke-dasharray:none"></path><path d="M63.53 390.41c2.107-1.797 4.07-2.627 5.915-.997 1.887 1.666 1.161 3.406-.977 5.504zm1.103 9.854c-.615-.368-1.043-.603-2.376-1.7-1.918-1.578-2.647-4.026-.016-6.808l7.182 6.82c.314-.247.619-.583 1.015-.945 3.712-3.394 3.976-6.759.796-9.78-3.201-3.04-7.757-2.13-10.949 1.23-3.27 3.444-3.433 7.692-.027 10.927 1.539 1.461 2.028 1.953 3.179 2.345zM123.478 445.713a2.237 2.237 0 1 0 0 4.474 2.237 2.237 0 0 0 0-4.474M130.215 449.029a2.237 2.237 0 1 0 0 4.474 2.237 2.237 0 0 0 0-4.474M137.32 452.029a2.237 2.237 0 1 0 .001 4.474 2.237 2.237 0 0 0 0-4.474M200.755 447.168l-2.632 4.579h2.605l4.29-4.58zm1.852 14.156c-.096 3.108-.781 5.685-3.156 5.611-2.404-.074-3.056-2.665-2.96-5.716.082-2.683.542-6.043 3.184-5.925 2.636.118 3.012 3.46 2.932 6.03m-2.637-8.221c-4.129-.13-7 2.605-7.164 7.859-.157 5.028 2.491 8.434 6.536 8.56 3.507.11 6.69-2.2 6.87-8.334.142-4.775-1.97-7.952-6.242-8.085M278.128 450.949c.412 1.028.013 1.433-1.839 2.25-1.504.664-3.368-.063-3.97-1.677-1.098-2.948 1.558-4.531 3.68-5.891zm.337-7.625c-1.29-3.044-3.23-5.21-7.496-3.532-1.949.766-3.75 2.375-4.518 3.437l1.623 1.479c.683-.967 1.912-2.144 3.2-2.651 2.924-1.15 3.71 1.077 4.135 2.155-4.977 1.96-7.614 5.12-6.196 8.722.879 2.235 3.453 3.308 6.32 2.779 2.091-.387 4.548-2.164 6.456-4.076zM309.277 433.175c.635.907.34 1.392-1.277 2.61-1.312.99-3.294.71-4.248-.725-1.742-2.62.482-4.767 2.237-6.576zm-1.415-7.5c-1.951-2.67-4.334-4.334-8.104-1.726-1.722 1.191-3.108 3.168-3.613 4.378l1.917 1.069c.445-1.097 1.372-2.524 2.511-3.312 2.583-1.787 3.857.201 4.517 1.154-4.398 3.045-6.243 6.724-4.04 9.907 1.367 1.975 4.118 2.431 6.788 1.261 1.948-.854 3.933-3.146 5.354-5.443zM296.3 424.914l-1.723-.802c-.34-1.086.053-1.796.83-2.5.588-.535 1.223-.681 1.92-.685 1.107-.006 2.201-.684 2.5-1.342.246-.542.178-.99.026-1.552l1.764.842c.259.629.263 1.219-.343 2.04-.667.902-1.437 1.095-2.289 1.196-.475.057-.926.107-1.338.192-.443.093-.752.341-1.004.598-.61.623-.683 1.104-.342 2.013M330.136 408.865c-2.131-1.77-3.284-3.562-1.993-5.658 1.32-2.145 3.158-1.726 5.59.023zm9.52-2.769c-.257.67-.415 1.131-1.269 2.631-1.228 2.16-3.515 3.296-6.706 1.178l5.495-8.24c-.297-.267-.68-.511-1.105-.84-3.977-3.078-7.338-2.764-9.771.885-2.45 3.673-.776 8.007 3.08 10.578 3.95 2.635 8.165 2.07 10.77-1.838 1.178-1.765 1.58-2.331 1.769-3.532zM347.51 363.419l2.908 4.41 1.17-2.328-2.16-5.89zm13.479 4.71c2.732 1.483 4.727 3.253 3.593 5.342-1.147 2.113-3.755 1.53-6.437.074-2.36-1.28-5.154-3.202-3.86-5.508 1.29-2.302 4.444-1.135 6.704.091m-8.53-1.341c-1.971 3.63-.82 7.424 3.8 9.933 4.42 2.4 8.654 1.566 10.585-1.99 1.674-3.084 1.042-6.965-4.356-9.885-4.202-2.272-7.99-1.814-10.029 1.942M359.732 352.717c-.955 2.01-1.195 2.576-2.035 4.812-.42 1.117-.2 2.523.947 3.038l12.283 5.52 1.432-3.187-10.175-4.565c-2.527-1.135-2.166-1.312-.573-4.006zM377.557 341.776c1.04.38 1.076.946.45 2.871-.51 1.563-2.295 2.468-3.899 1.84-2.928-1.15-2.336-4.184-1.934-6.673zm-5.456-5.337c-3.129-1.07-6.036-1.07-7.632 3.228-.729 1.963-.732 4.378-.453 5.658l2.184-.222c-.264-1.154-.322-2.854.16-4.153 1.094-2.944 3.277-2.045 4.364-1.642-1.86 5.015-1.265 9.087 2.364 10.434 2.252.836 4.768-.366 6.286-2.854 1.107-1.816 1.422-4.832 1.27-7.53zM123.386 139.446c-.749 1.341-2.478 3.155-3.87 4.215-2.368 1.802-5.264 3.011-9.331-1.647l10.993-9.5c-.318-.492-.737-1.215-1.19-1.859-4.11-5.833-10.352-7.019-14.743-2.55-5.647 5.747-3.352 10.82.543 16.405 4.115 5.903 10.514 6.484 15.85 2.327 2.39-1.863 3.92-3.527 4.816-4.927zm-15.159.075c-2.114-3.128-3.149-6.752-.442-9.05 2.574-2.184 5.53-1.241 7.965 2.896zM327.674 145.737c-3.034-2.727-4.606-3.518-5.512-4.057-1.027-.61-3.3-1.58-4.588-1.754l-14.215 17.251 4.323 3.62 10.159-12.657c2.479-3.087 2.92-3.373 4.332-2.211.405.332 1.26 1.093 2.206 2.32zM331.776 168.402c-3.288 3.17-6.42 4.768-8.776 2.324-2.385-2.474-.19-6.159 3.038-9.271 2.84-2.737 6.659-5.287 9.437-2.406 2.722 2.823-.98 6.73-3.7 9.352m6.526-11.865c-4.097-4.25-10.16-4.821-16.11.94-5.817 5.633-6.154 11.675-2.223 15.913 3.435 3.704 9.912 4.656 16.069-1.28 5.05-4.87 6.501-11.178 2.264-15.573M351.167 207.125c-1.31-.803-3.053-2.604-4.055-4.038-1.705-2.439-2.797-5.38 2.022-9.257l9.048 11.37c.505-.299 1.244-.689 1.905-1.116 5.995-3.869 7.432-10.058 3.145-14.627-5.514-5.875-10.676-3.787-16.414-.121-6.064 3.873-6.903 10.243-2.966 15.742 1.765 2.465 3.365 4.061 4.728 5.013zm.537-15.15c3.212-1.986 6.875-2.873 9.06-.075 2.079 2.66 1.018 5.575-3.215 7.84zM383.803 246.006c1.802-6.12-.84-13.39-7.946-12.373-3.88.556-5.048 2.928-5.563 7.177-.313 2.58-1.422 3.39-3.115 3.806-1.692.415-3.014-.61-3.753-2.166-.73-1.537-.367-3.986.048-5.253l-3.632-.85c-.53 1.67-.809 4.583-.25 6.859 1.206 4.907 4.899 7.888 9.172 6.838 3.225-.792 4.96-3.86 5.614-7.792.485-2.923 1.706-3.683 3.282-3.702 3.171-.036 3.781 3.636 2.836 6.703zM369.89 271.72c-.935-1.219-1.915-3.526-2.336-5.224-.717-2.888-.68-6.025 5.21-7.914l4.365 13.858c.578-.097 1.408-.195 2.178-.357 6.984-1.46 10.547-6.722 8.184-12.525-3.038-7.462-8.606-7.365-15.277-6.002-7.05 1.44-10.12 7.083-8.417 13.63.762 2.933 1.684 4.997 2.614 6.375zm5.938-13.947c3.71-.702 7.447-.216 8.484 3.18.985 3.228-1.052 5.57-5.815 6.165z" style="fill:#fff;fill-rule:evenodd"></path><path d="m31.534 287.765-4.199 13.036-13.416-.186 10.814 7.974-4.194 12.86 11.1-8.07 10.943 8.281-4.3-12.808 10.868-8.289-13.575.08z" style="fill:none"></path><path d="m31.534 287.765-4.199 13.036-13.416-.186 10.814 7.974-4.194 12.86 11.1-8.07 10.943 8.281-4.3-12.808 10.868-8.289-13.575.08zM380.377 287.555l-4.199 13.035-13.416-.185 10.814 7.973-4.194 12.861 11.1-8.07 10.943 8.28-4.3-12.807 10.867-8.29-13.574.08z" style="fill:#fff404;fill-rule:evenodd" data-source="https://football-logos.cc"></path><path d="M204.526 149.005c-37.181 0-70.757 14.941-95.026 39.174-24.242 24.205-39.206 57.7-39.206 94.848 0 37.197 15.005 70.89 39.307 95.265 24.257 24.332 57.792 39.388 94.925 39.388 37.173 0 70.848-15.066 95.222-39.422 24.357-24.338 39.431-57.969 39.431-95.126 0-37.124-15.05-70.628-39.373-94.858-24.377-24.284-58.075-39.269-95.28-39.269m-100.62 33.548c25.713-25.675 61.266-41.505 100.62-41.505 39.373 0 75.051 15.874 100.874 41.6 25.783 25.684 41.736 61.176 41.736 100.484 0 39.334-15.977 74.956-41.793 100.752s-61.47 41.753-100.817 41.753c-39.315 0-74.839-15.96-100.55-41.75-25.744-25.822-41.639-61.494-41.639-100.86 0-39.328 15.866-74.81 41.568-100.474" style="fill:#1c3352;fill-rule:evenodd"></path><path d="M204.472 134.206c-41.259 0-78.583 16.615-105.58 43.546-26.964 26.897-43.629 64.087-43.629 105.294 0 41.27 16.723 78.74 43.765 105.878 26.994 27.089 64.274 43.883 105.47 43.883 41.213 0 78.545-16.788 105.58-43.876 27.064-27.116 43.813-64.554 43.813-105.807 0-41.198-16.71-78.4-43.717-105.315-27.051-26.961-64.435-43.603-105.702-43.603m-106.14 42.983c27.142-27.075 64.664-43.779 106.14-43.779 41.484 0 79.066 16.731 106.262 43.836 27.152 27.062 43.952 64.462 43.952 105.878 0 41.47-16.837 79.106-44.045 106.366-27.181 27.235-64.712 44.113-106.143 44.113-41.414 0-78.893-16.885-106.033-44.12-27.186-27.282-43.998-64.95-43.998-106.437 0-41.425 16.756-78.814 43.865-105.857" style="fill:#1b1918;fill-rule:evenodd"></path><path d="M204.5 82.657C93.578 82.657 3.657 172.577 3.657 283.5S93.577 484.343 204.5 484.343s200.843-89.92 200.843-200.843S315.423 82.657 204.5 82.657" style="fill:none"></path><path d="m90.708 168.763-18.53-21.168c1.056-2.283 2.997-5.093 5.237-6.951 7.954-6.598 14.907-2.282 19.67 2.927 6.745 7.378 8.74 14.843.67 21.367-2.138 1.728-4.81 3.437-7.047 3.825m-17.245 17.159c.866-1.521 1.562-3.36 1.724-4.888l3.79 1.065c-.276 1.639-.847 3.262-2.317 5.913-3.28 5.916-9.393 7.89-15.493 4.072-5.772-3.611-9.873-7.379-6.93-14.879 2.288-5.833 8.496-7.189 14.562-3.433.67.414 1.339.915 1.825 1.244l-6.67 13.196c5.567 2.691 8.038.296 9.51-2.29m-18.996 97.124c0-41.425 16.756-78.814 43.865-105.857 27.142-27.075 64.664-43.779 106.14-43.779 41.484 0 79.066 16.731 106.262 43.836 27.152 27.062 43.952 64.462 43.952 105.878 0 41.47-16.837 79.106-44.045 106.366-27.181 27.235-64.712 44.113-106.143 44.113-41.414 0-78.893-16.885-106.033-44.12-27.186-27.282-43.998-64.95-43.998-106.437m51.32-138.536c-3.894-5.585-6.19-10.658-.542-16.405 4.391-4.469 10.634-3.283 14.742 2.55.454.644.873 1.367 1.191 1.86l-10.993 9.499c4.067 4.658 6.963 3.45 9.33 1.647 1.393-1.06 3.122-2.874 3.871-4.216l3.068 2.465c-.896 1.4-2.425 3.064-4.817 4.927-5.336 4.157-11.734 3.576-15.85-2.327M204.5 82.657C93.578 82.657 3.657 172.577 3.657 283.5S93.577 484.343 204.5 484.343s200.843-89.92 200.843-200.843S315.423 82.657 204.5 82.657M56.284 195.85c6.576 3.399 7.865 8.432 6.733 12.899-.718 2.83-1.394 4.115-3.41 6.606-.846 1.044-1.984 1.973-3.042 2.69l-29.31-15.806 2.68-4.507 9.939 5.38c.147-1.5.351-3.406 2.19-6.11 2.71-3.99 8.024-4.355 14.22-1.152m-1.8 31.811c-.269 2.841-1.224 4.904-2.115 6.636-1.757 3.414-4.405 6.13-11.231 3.56l-13.948-5.249 2.21-5.167 13.173 5.014c3.685 1.402 5.714 1.49 7.013-1.294.848-1.815.695-2.678.563-3.913l-18.452-6.717 1.843-5.166 16.32 5.917c2.414.875 2.923 1.266 4.657 1.847.168 1.712.078 3.342-.034 4.532m75.155-87.958.102-3.729c1.326.152 3.798.017 5.156-1.008 1.376-1.036 2.115-2.537 1.367-4.112-.747-1.574-1.763-2.498-4.354-2.286-4.265.348-6.824-.318-8.148-4.007-2.424-6.757 4.166-10.806 10.524-10.27l-.073 3.39c-3.195-.31-6.67 1.026-5.997 4.125.335 1.54 1.325 2.584 4.287 2.472 3.983-.151 7.337.932 8.76 3.932 1.888 3.976-.29 8.192-4.855 10.359-2.117 1.005-5.026 1.318-6.769 1.134m21.324 2.252-9.588-30.229c.844-1.059 2.023-1.628 3.031-2.255 1.904-1.185 4.12-2.748 8.134-2.773 3.742-.023 8.713 2.454 10.738 9.258 2.392 8.038-.576 11.48-4.716 14.19-1.827 1.196-5.213 1.311-5.253 1.325l2.886 8.936zM64.327 379.602l6.196-4.005 1.869 3.318c-5.986 3.77-12.797 7.612-18.515 11.65-2.436-1.665-3.097-2.605-4.272-4.701-1.83-3.265-1.242-7.23 2.823-9.79 4.471-2.817 8.117-2.097 10.292.567.417.51.917 1.022 1.42 2.676zm-4.042 9.48c3.192-3.36 7.748-4.27 10.949-1.23 3.18 3.02 2.916 6.385-.796 9.78-.396.361-.701.697-1.015.945l-7.182-6.821c-2.631 2.782-1.901 5.23.016 6.808 1.332 1.097 1.76 1.333 2.376 1.7l-1.196 2.089c-1.15-.392-1.64-.884-3.179-2.345-3.405-3.235-3.242-7.483.027-10.926m-3.172-22.454c.714 1.35.804 2.83.777 3.806l-2.522.197c.059-.736.217-1.596-.378-2.72-.688-1.301-1.81-1.474-2.733-.985-.95.502-1.172 1.25-.984 3.307.254 2.767-.333 4.627-2.331 5.685-2.648 1.401-5.288.105-7.081-2.944-.9-1.53-.99-3-.93-4.216l2.532-.223c-.054.924-.116 1.9.507 3.075.57 1.076 1.711 1.717 3.004 1.125.983-.45 1.546-1.208 1.355-2.929-.354-3.189.375-4.725 1.95-5.616 2.613-1.479 5.3-.463 6.834 2.438M292.175 148.94l14.081-22.357-5.174-3.093 2.426-3.674 14.49 9.367-2.294 3.516-4.891-3.115-13.897 22.357zm11.184 8.237 14.215-17.25c1.288.172 3.561 1.144 4.588 1.753.907.539 2.478 1.33 5.512 4.057l-3.295 2.511c-.946-1.227-1.8-1.987-2.206-2.32-1.413-1.161-1.853-.875-4.332 2.212l-10.16 12.656zm-38.636-21.78c-5.355-2.177-7.367-8.461-4.716-15.36 2.77-7.208 8.69-9.783 14.2-7.665 5.698 2.19 7.051 8.519 4.535 15.068-3.068 7.983-9.34 9.861-14.019 7.958m79.13 69.681c-3.938-5.5-3.1-11.868 2.965-15.742 5.738-3.665 10.9-5.754 16.414.12 4.287 4.57 2.85 10.759-3.145 14.628-.66.427-1.4.817-1.905 1.115l-9.047-11.369c-4.82 3.876-3.728 6.818-2.024 9.257 1.003 1.434 2.746 3.235 4.056 4.038l-2.587 2.966c-1.363-.952-2.963-2.548-4.728-5.013m-13.07-20.56 15.85-12.737-1.739-1.999 2.794-2.29 1.738 2.157c1.927-1.579 4.423-4.33 7.998-3.982 2.56.248 4.796 2.092 6.334 4.213l-2.89 2.52c-2.88-3.131-4.143-2.004-7.268.556l-.964.79 2.68 3.073-2.794 2.29-2.601-3.174-15.482 12.842zm19.603 30.673 20.768-8.794c.933.733 1.447 1.48 2.14 2.488.892 1.3 2.629 3.745 3.401 6.287 1.8 5.93 1.207 8.784-5.266 11.6l-13.8 6.002-2.17-5.203 12.688-5.247c2.992-1.237 5.23-2.437 5.33-4.289.108-2.013-1.446-4.424-2.522-5.457l-18.242 7.842zm.032 152.637-2.908-4.41 1.917-3.807 2.162 5.89zm5.84 8.893c-4.62-2.51-5.77-6.303-3.799-9.933 2.04-3.756 5.827-4.214 10.029-1.942 5.398 2.92 6.03 6.802 4.356 9.885-1.931 3.556-6.164 4.39-10.585 1.99m-12.345 18.712c-4.378-2.96-4.577-6.197-3.672-9.36.533-1.865 1.547-2.756 2.469-3.75a8 8 0 0 1 2.422-1.784c.866.688 1.439 1.121 3.17 2.293l7.353 4.972c2.515 1.7 7.51 4.827 3.022 11.1a9.44 9.44 0 0 1-3.748 3.104l-1.458-2.27c1.06-.613 1.959-1.079 2.907-2.192 1.87-2.196.636-4.45-1.148-5.839l-.413.191c-.29 1.48-.495 2.102-1.686 3.423-2.251 2.495-5.613 2.55-9.218.112m-3.616-21.588 2.026-3.085 19.124 12.17-1.815 3.086zm-45.72 50.267c-.34-1.086.053-1.796.83-2.5.588-.535 1.223-.681 1.92-.685 1.107-.006 2.201-.684 2.5-1.342.246-.542.178-.99.026-1.552l1.764.842c.259.629.264 1.219-.343 2.04-.667.902-1.437 1.095-2.289 1.196-.475.057-.926.107-1.338.192-.443.093-.752.341-1.004.598-.61.623-.683 1.104-.342 2.013zm5.18-.162c3.77-2.609 6.154-.945 8.106 1.724l5.33 7.289c-1.422 2.297-3.407 4.589-5.355 5.443-2.67 1.17-5.421.714-6.787-1.261-2.204-3.183-.359-6.862 4.04-9.908-.66-.952-1.935-2.94-4.518-1.153-1.14.788-2.066 2.215-2.511 3.312l-1.917-1.069c.505-1.21 1.89-3.187 3.613-4.377m-22.743 6.449c1.01-.511 2.062-.124 2.56.86.471.933.197 2.022-.864 2.558-1.01.51-2.074.098-2.546-.835-.498-.984-.16-2.073.85-2.584m14.263 4.648.214-5.463 3.063-1.77-.215 8.907 8.093 4.522-3.197 2.158-4.982-3.194-.049.028-.098 6.215-3.404 1.758.455-9.425-7.574-4.66 3.136-1.811zm19.819-9.29c-3.221-4.154-3.016-8.056.249-10.587 3.377-2.619 7.044-1.514 10.019 2.223 3.83 4.812 2.832 8.56.059 10.71-3.198 2.48-7.245 1.63-10.327-2.346M90.713 411.731c2.47-2.51 5.573-2.993 8.778-.596 3.278 2.452 3.305 6.116.43 9.734-4.586 5.772-11.466 6.279-16.591 3.25l.968-2.487c3.688 1.61 6.127 1.959 9.476.292-1.025-.47-1.579-.573-3.122-2.165-2.4-2.477-2.188-5.742.06-8.028m14.251 4.955c1.336.09 3.38.754 5.172 2.278 3.04 2.585 3.689 4.972 2.1 7.183-1.276 1.778-3.067 2.134-5.571 1.448l-.033.046c1.69 1.77 2.145 5.02.245 7.336-2.185 2.665-6.44 2.583-9.16.576-1.775-1.31-3.68-3.208-4.112-4.353l2.42-1.759c.377.86 1.248 2.436 2.821 3.447 2.43 1.56 4.147.597 4.967-.389 1.449-1.74 1.036-3.956-1.01-5.425l-1.173-.842 1.37-1.905 1.126.809c1.142.82 3.746.907 4.783-.783.945-1.54.46-2.599-.798-3.657-1.148-.964-2.589-1.554-3.588-1.57zm6.645 15.774c3.506-6.02 7.119-7.844 10.933-5.622 3.888 2.264 3.286 7.113.299 12.167-3.675 6.216-7.362 7.956-11.153 5.749-3.839-2.236-3.372-6.64-.08-12.294M14.905 238.494l33.845 7.888-1.248 5.521-33.739-7.888zm26.59 18.207 3.985-.95c3.69 9.854-3.521 17.416-15.942 15.847-12.12-1.53-18.401-11.05-11.857-20.135l3.471 1.655c-5.168 7.989 2.177 11.141 8.757 12.397 5.928 1.132 14.651-.045 11.586-8.814m138.6-131.03c-5.738.703-10.854-3.667-11.753-11.002-.94-7.666 2.63-12.87 8.489-13.589 6.06-.743 10.715 3.679 11.516 11.275.897 8.506-3.276 12.706-8.252 13.316m14.855-2.307.102-22.353c1.108-.68 3.483-1.366 4.664-1.543 1.042-.156 2.76-.537 6.835-.343l-.964 4.03c-1.509-.353-2.652-.401-3.176-.403-1.83-.006-1.99.494-1.958 4.454l.134 16.228zM31.534 287.765l4.041 12.878 13.575-.08-10.868 8.29 4.3 12.807-10.943-8.28-11.1 8.07 4.194-12.86-10.814-7.975 13.416.186zm14.464 46.136c1.314.79 2.166 2.737 2.811 4.67 2.124 6.352-1.43 9.885-6.33 11.383-6.258 1.913-10.87 2.008-13.233-5.056-.61-1.824-.68-4.249-.459-5.378zm-6.084 18.969c3.942-2.439 8.579-2.16 10.901 1.595 2.308 3.73 1.196 6.917-3.257 9.255-.475.25-.856.497-1.222.657l-5.211-8.424c-3.252 2.021-3.17 4.574-1.716 6.588 1.01 1.4 1.364 1.737 1.865 2.249l-1.688 1.716c-1.013-.671-1.361-1.272-2.477-3.077-2.472-3.994-1.233-8.062 2.805-10.56m41.091 48.787 1.5-1.94c2.25 1.714 4.434 2.49 6.543 2.17l2.054 1.88-13.784 14.704-3.045-2.792 11.309-11.397-.219-.183c-1.625-.669-3.008-1.54-4.358-2.442m117.118 50.09 2.632-4.58h4.263l-4.29 4.58zm-5.317 9.215c.164-5.255 3.035-7.989 7.164-7.86 4.272.134 6.384 3.311 6.243 8.086-.182 6.134-3.364 8.443-6.871 8.334-4.045-.126-6.693-3.532-6.536-8.56m-57.722-6.697a2.237 2.237 0 1 1 4.474 0 2.237 2.237 0 0 1-4.474 0m-7.106-3a2.237 2.237 0 1 1 4.474.001 2.237 2.237 0 0 1-4.474 0m-6.737-3.315a2.237 2.237 0 1 1 4.474 0 2.237 2.237 0 0 1-4.474 0m40.408-.15c2.665 1.165 3.85 2.456 2.45 6.97l-2.933 9.467-3.426-1.047 3.025-9.38c.685-2.124.701-3.605-1.13-4.385-1.482-.632-2.85-.717-3.433 1.196l-3.374 11.09-3.545-1.034 6.869-21.634 3.268 1.046-2.217 7.331.054.017c1.29-.305 2.838-.316 4.392.363m10.082-3.995c1.103.254 1.663 1.225 1.416 2.3-.235 1.018-1.143 1.679-2.3 1.412-1.104-.255-1.658-1.253-1.423-2.272.248-1.074 1.205-1.694 2.307-1.44m-3.157 5.815 3.41.764-3.503 15.307-3.488-.765zm11.042 1.708c1.503.278 2.734 1.068 3.481 1.694l-1.208 1.991c-.593-.502-1.248-1.198-2.5-1.428-1.446-.267-2.249.554-2.438 1.581-.195 1.056.046 1.841 1.776 2.97 2.328 1.518 3.42 3.133 3.01 5.356-.545 2.947-3.123 4.281-6.602 3.638-1.614-.298-3.014-1.13-3.931-1.933l1.402-2.203c.692.616 1.507 1.223 2.79 1.571 1.173.319 2.557-.466 2.825-1.475.305-1.146.05-2.106-1.656-3.043-2.616-1.435-3.425-3.204-3.112-4.985.498-2.847 2.935-4.331 6.163-3.734m4.718 1.184 1.745.101.248-3.368 3.489-.49-.39 4.118 2.773.193-.216 2.45-2.878-.167-.691 7.855c-.22 2.5.555 3.35 2.468 3.237l-.056 2.252c-.583.176-.812.213-1.912.117-1.296-.114-2.454-.51-3.074-1.322-.704-.921-.95-1.954-.762-3.979l.785-8.446-1.714-.126zM376.179 300.59l4.199-13.035 4.04 12.877 13.575-.08-10.867 8.29 4.3 12.808-10.943-8.28-11.1 8.069 4.194-12.86-10.814-7.974zm-11.708 39.077c1.595-4.297 4.502-4.298 7.63-3.228l8.545 2.92c.15 2.697-.164 5.713-1.27 7.529-1.519 2.488-4.035 3.69-6.287 2.854-3.63-1.347-4.224-5.419-2.364-10.434-1.087-.403-3.27-1.302-4.364 1.642-.481 1.3-.424 2.999-.16 4.153l-2.184.222c-.279-1.28-.276-3.695.454-5.658m-6.773 17.862c.84-2.236 1.08-2.802 2.035-4.812l1.88 1.612c-1.594 2.694-1.955 2.871.572 4.005l10.175 4.565-1.432 3.188-12.284-5.52c-1.147-.516-1.366-1.921-.946-3.038m-28.317 54.76c-3.856-2.572-5.53-6.905-3.08-10.579 2.433-3.649 5.794-3.963 9.772-.884.423.328.807.571 1.104.838l-5.495 8.241c3.19 2.118 5.478.982 6.706-1.178.853-1.5 1.013-1.962 1.27-2.63l2.262.821c-.19 1.2-.59 1.767-1.768 3.533-2.606 3.908-6.82 4.472-10.77 1.838m-62.929 30.94c.768-1.062 2.57-2.67 4.518-3.437 4.266-1.678 6.206.487 7.496 3.532l3.524 8.313c-1.908 1.912-4.365 3.69-6.457 4.076-2.866.529-5.44-.544-6.32-2.779-1.417-3.602 1.22-6.762 6.197-8.722-.425-1.078-1.211-3.305-4.134-2.155-1.29.507-2.518 1.684-3.201 2.65zm-55.74 9.987c2.377-.238 2.99-.273 5.216-.308l-.612 2.398c-3.122-.234-3.44-.479-3.337 2.29l.416 11.143-3.492.13-.495-13.458c-.046-1.257 1.117-2.077 2.304-2.195m7.989-6.853c1.129-.086 1.954.673 2.037 1.772.08 1.042-.59 1.944-1.775 2.034-1.129.086-1.955-.701-2.035-1.744-.083-1.099.645-1.977 1.773-2.062m-1.14 6.643 3.524-.355 1.182 15.53-3.523.354zm6.823.42c1.016-.83 3.17-1.92 5.25-2.16 4.554-.526 5.872 2.066 6.336 5.34l1.269 8.939c-2.336 1.357-5.167 2.443-7.288 2.28-2.905-.226-5.117-1.925-5.393-4.31-.443-3.846 2.917-6.222 8.23-6.837-.133-1.151-.32-3.505-3.44-3.145-1.377.158-2.867.98-3.776 1.738zm16.155 17.117c.232-2.324.558-5.273.714-7.774.14-2.238 4.285-2.842 3.691-.48-.696 2.773-1.74 5.752-2.199 7.783zm13.501-24.522c1.493-.907 3.082-1.574 4.794-1.72 2.95-.252 6 1.825 7.358 5.85 1.793 5.316-.653 8.487-3.215 9.674-1.337.62-2.26.736-3.175.72l2.294 6.062-3.468 1.29-5.54-15.91c-.668-1.921-1.014-2.793-1.523-4.082.788-.768 1.487-1.282 2.475-1.884m24.24-9.024 3.088-1.688 7.521 13.727-3.246 1.793zm77.138-89.366c.408-1.056 1.449-1.473 2.477-1.075.975.377 1.5 1.37 1.072 2.478-.409 1.056-1.476 1.463-2.451 1.085-1.028-.398-1.506-1.433-1.098-2.488m5.355 3.853 1.184-3.325 14.683 5.514-1.342 3.43zm5.64-77.923c-.931-1.378-1.853-3.442-2.615-6.375-1.702-6.547 1.367-12.19 8.417-13.63 6.671-1.362 12.239-1.46 15.277 6.002 2.363 5.803-1.2 11.065-8.184 12.525-.77.162-1.6.26-2.178.357l-4.366-13.858c-5.889 1.889-5.926 5.026-5.21 7.914.422 1.699 1.402 4.005 2.337 5.224zm3.882-32.751c.516-4.249 1.683-6.621 5.563-7.176 7.106-1.017 9.748 6.252 7.946 12.372l-3.307-.753c.945-3.067.335-6.739-2.836-6.702-1.576.017-2.798.778-3.283 3.701-.652 3.933-2.388 7-5.613 7.792-4.274 1.05-7.966-1.93-9.171-6.838-.56-2.276-.28-5.188.25-6.858l3.631.849c-.415 1.267-.779 3.716-.048 5.253.739 1.556 2.06 2.581 3.753 2.166s2.802-1.225 3.115-3.806m-50.325-67.42c-3.931-4.239-3.594-10.28 2.224-15.914 5.948-5.76 12.012-5.188 16.109-.938 4.237 4.394 2.786 10.702-2.264 15.572-6.157 5.936-12.634 4.984-16.07 1.28m-109.983-70.47.214-3.55 2.777.234.36-5.246 5.484-1.252-.47 6.843 3.966.234-.215 3.55-3.967-.235-.91 12.132c-.212 2.815-.201 4.325 1.774 4.655.916.153 1.29-.092 1.868-.216l-.14 3.776c-.83.272-1.979.405-3.537.163-1.907-.295-3.445-1.019-4.344-2.197-1.022-1.338-1.365-3.14-1.12-6.12l1.036-12.538zm21.377-5.8c-1.605-.198-2.534-1.569-2.345-3.093.199-1.607 1.471-2.663 3.075-2.464s2.54 1.529 2.341 3.135c-.189 1.525-1.386 2.632-3.071 2.423m-6.789 27.077 3.395-23.573 5.445.788-3.08 23.441zm16.877 3.27-2.543-24.948 5.45 1.139.99 18.802.117.033 8.499-17.019 4.978 1.36-12.219 21.752z" style="fill:#da251c;fill-rule:evenodd"></path><path d="M98.892 177.752c-26.964 26.897-43.629 64.087-43.629 105.294 0 41.27 16.723 78.74 43.765 105.878 26.994 27.089 64.274 43.883 105.47 43.883 41.213 0 78.545-16.788 105.58-43.876 27.064-27.116 43.813-64.554 43.813-105.806 0-41.198-16.71-78.4-43.717-105.316-27.051-26.961-64.435-43.603-105.703-43.603-41.258 0-78.582 16.615-105.58 43.546M62.337 283.027c0-39.328 15.866-74.81 41.568-100.474 25.714-25.675 61.267-41.505 100.62-41.505 39.374 0 75.052 15.874 100.875 41.6 25.783 25.684 41.736 61.176 41.736 100.484 0 39.334-15.977 74.956-41.793 100.752s-61.47 41.753-100.817 41.753c-39.315 0-74.839-15.96-100.55-41.75-25.744-25.822-41.639-61.494-41.639-100.86" style="fill:#fff;fill-rule:evenodd"></path><path d="M109.5 188.179c-24.242 24.204-39.206 57.7-39.206 94.848 0 37.197 15.005 70.89 39.307 95.265 24.257 24.332 57.792 39.388 94.925 39.388 37.173 0 70.848-15.066 95.222-39.422 24.357-24.338 39.431-57.969 39.431-95.126 0-37.124-15.05-70.628-39.373-94.858-24.377-24.284-58.075-39.269-95.28-39.269-37.181 0-70.757 14.941-95.026 39.174m92.913 220.593c-30.474-19.154-83.325-71.329-88.842-168.783l-.068-1.196 1.097-.489c23.712-10.591 39.32-23.003 50.08-34.687 5.912-6.419 10.489-12.623 14.146-18.201 3.296-5.03 5.563-9.538 7.436-13.273 1.89-3.736 3.316-6.696 5.253-8.75 1.272-1.364 3.003-2.317 4.975-2.296 1.955-.02 3.678.917 4.944 2.264.693.722 1.314 1.56 1.913 2.506.599-.946 1.219-1.784 1.912-2.506 1.267-1.347 2.988-2.284 4.944-2.264 1.971-.02 3.703.932 4.975 2.296 1.3 1.367 2.347 3.142 3.481 5.277 2.254 4.266 4.81 10.038 9.209 16.746 3.656 5.578 8.233 11.782 14.144 18.202 10.76 11.683 26.37 24.095 50.08 34.686l1.097.49-.067 1.194c-5.518 97.455-58.368 149.63-88.842 168.784l-.934.588z" style="fill:#fff;fill-rule:evenodd"></path><path d="m45.55 337.755-14.047 4.536c-.091.511-.143 1.08.132 1.787 1.46 3.752 3.83 4.247 9.485 2.356 4.985-1.666 6.572-3.77 5.388-7.507-.275-.866-.552-1.027-.958-1.172M48.688 355.52c-1.37-2.046-3.479-1.742-5.975-.54l3.63 5.614c2.602-1.485 3.746-2.982 2.345-5.074M60.952 377.952c-1.762-1.102-3.632-.666-6.228.992-3.082 1.968-3.75 3.653-3.253 5.16.311.946.718 1.707 1.737 2.644 3.473-2.322 6.377-4.169 9.454-6.128-.356-.59-.364-1.826-1.71-2.668M69.445 389.413c-1.846-1.63-3.808-.8-5.916.997l4.939 4.507c2.138-2.098 2.864-3.837.977-5.504M93.072 414.108c-1.396 1.623-1.669 3.707-.062 5.132.676.6 1.315 1.141 2.064 1.528 1.5-1.15 2.154-1.955 2.529-2.413 1.702-2.08 1.992-4.177.11-5.728-1.137-.937-2.959-.475-4.64 1.48M114.553 434.081c-2.664 4.575-3.423 7.475-1.466 8.614 2.396 1.396 4.507-1.599 6.73-5.417 2.55-4.38 3.339-7.366 1.556-8.303-1.904-1-4.142.506-6.82 5.106M199.675 455.294c-2.642-.118-3.102 3.242-3.185 5.925-.095 3.05.557 5.642 2.96 5.716 2.376.074 3.06-2.503 3.157-5.61.08-2.571-.296-5.913-2.932-6.031M232.994 458.2c-2.4.77-5.375 1.617-5.072 4.749.167 1.714 1.782 2.895 3.406 2.64 2-.313 2.49-.602 2.356-1.701zM255.38 448.006l3.803 10.723c1.147-.097 2.177-.47 3.165-1.505 1.321-1.387 1.153-3.458.095-6.5-.975-2.801-2.43-4.008-4.209-4.017-1.026-.005-2.064.497-2.853 1.299M272.32 451.522c.6 1.614 2.465 2.34 3.969 1.678 1.852-.818 2.251-1.223 1.84-2.251l-2.13-5.319c-2.122 1.36-4.778 2.944-3.68 5.892M305.99 428.484c-1.756 1.808-3.98 3.957-2.238 6.576.955 1.434 2.936 1.715 4.248.726 1.617-1.218 1.912-1.704 1.276-2.61zM313.81 423.31c1.87 2.413 4.154 4.298 6.055 2.824 1.878-1.456.741-3.601-1.164-6.058-1.575-2.032-3.612-4.628-5.781-2.946-2.214 1.716-.754 4.059.89 6.18M328.143 403.207c-1.29 2.096-.138 3.888 1.993 5.658l3.597-5.635c-2.432-1.749-4.27-2.167-5.59-.023M342.36 387.406c.15 2.171.818 3.194 3.622 4.997 3.028 1.947 4.726 1.793 5.709 1.054.79-.595 1.389-1.347 1.764-2.59-3.028-2.21-6.121-4.487-9.148-6.697-.957.702-2.062 1.577-1.947 3.236M354.284 368.037c-1.293 2.307 1.502 4.228 3.861 5.509 2.682 1.456 5.29 2.038 6.437-.075 1.134-2.089-.861-3.86-3.593-5.343-2.26-1.226-5.414-2.393-6.705-.091M372.174 339.814c-.402 2.488-.994 5.524 1.935 6.672 1.603.63 3.389-.275 3.898-1.839.626-1.925.59-2.492-.45-2.871zM58.713 210.666c2.192-3.484.514-7.223-4.937-10.034-4.263-2.2-7.303-2.989-9.735-.395-1.245 1.328-1.783 2.92-1.77 4.16l15.049 7.911c.392-.394.772-.654 1.393-1.642M57.502 178.386c-1.59 3.175.706 6.193 3.877 8.242l4.585-8.7c-3.862-2.852-6.95-2.56-8.462.458M78.173 145.984l14.933 17.029c.703-.419 1.374-.92 2.234-1.592 4.544-3.556 3.198-7.806-2.402-14.115-5.152-5.804-9.314-6.824-12.46-4.052-1.212 1.068-1.788 2.087-2.305 2.73M107.785 130.472c-2.707 2.297-1.672 5.92.442 9.05l7.523-6.155c-2.435-4.137-5.391-5.08-7.965-2.895M147.083 111.796l5.182 16.717c.962-.086 2.468-.254 4.172-1.383 2.98-1.976 2.699-5.337 1.631-9.338-1.42-5.322-4.118-7.432-6.07-7.52-1.728-.077-3.033.406-4.915 1.524M177.11 104.686c-3.972.486-3.645 5.359-3.166 9.273.546 4.45 2.264 8.319 5.675 7.9 3.37-.412 3.734-4.472 3.178-9.005-.46-3.75-1.794-8.646-5.686-8.168M265.174 122.016c-1.609 4.185-2.039 8.453 1.169 9.685 3.17 1.218 5.33-1.555 6.968-5.818 1.355-3.527 3.057-8.633-.604-10.04-3.736-1.435-6.118 2.491-7.533 6.173M326.038 161.455c-3.228 3.112-5.423 6.797-3.038 9.27 2.357 2.445 5.488.846 8.776-2.323 2.719-2.623 6.42-6.53 3.699-9.353-2.778-2.881-6.598-.331-9.437 2.406M360.765 191.9c-2.186-2.798-5.85-1.911-9.06.075l5.844 7.766c4.233-2.266 5.294-5.182 3.216-7.841M384.312 260.953c-1.037-3.396-4.774-3.882-8.484-3.18l2.669 9.345c4.763-.595 6.8-2.937 5.814-6.165" style="fill:#da251c;fill-rule:evenodd"></path><path d="M3.284 81.716v404.626h403.124V81.716Z" style="fill:none" data-source="https://football-logos.cc"></path><!-- source: https://football-logos.cc --></svg>