<svg xmlns="http://www.w3.org/2000/svg" xml:space="preserve" viewBox="47.69 11.66 161.63 234.33"><!-- Source: https://football-logos.cc --><path d="M1556.73 1842.52H963.762h.035-604.656v-80.08c-.176-2.59-1.469-22.89-1.469-58.54 0-83.42 7.148-249.63 52.613-462.63 38.711-181.34 97.211-360.825 173.883-533.465 95.828-215.77 220.473-421.395 370.465-611.16l9.164-11.606 9.164 11.605C1122.96 286.41 1247.59 492.036 1343.42 707.805c76.67 172.64 135.17 352.125 173.87 533.465 45.45 212.94 52.6 379.13 52.6 462.57 0 35.68-1.29 56-1.47 58.6v80.08z" style="fill:#3245a1;fill-opacity:1;fill-rule:evenodd;stroke:none" transform="matrix(.13333 0 0 -.13333 0 257.333)" data-source="https://football-logos.cc"></path><path d="m563.461 1778.52-70.313-187.45h49.11l17.461 41.66h147.785l17.461-41.66h49.105l-70.308 187.45zm10.414-106.74 24.543 67.7h70.387l24.543-67.7zM1545.07 1764.22l-.03.44v57.47H963.797v-43.61h98.953v-39.04h-98.953v-31.25h55.603l.19-39.05h-55.793v-127.79h574.953c6.23 70.64 7.77 126.95 7.77 165.28 0 36.68-1.41 56.91-1.45 57.55M911.867 1708.23v31.25h51.93v39.04H863.445v-187.45h48.422v78.11h51.93v39.05z" style="fill:#fff;fill-opacity:1;fill-rule:evenodd;stroke:none" transform="matrix(.13333 0 0 -.13333 0 257.333)"></path><path d="M1240.66 1739.48h151.58l-.01 39.04h-199.3v-187.45h199.31v39.06h-151.58zM1251.51 1174.98c0 25.45-10.24 46.74-30.42 63.3-2.23 1.73-49.12 36.31-133.29-11.93 17.57 30.1 26.6 58.58 26.6 84.9 0 30.66-12.35 47.59-13.75 49.42-46.56 56.76-116.455 19.61-136.853 6.85V835.531c20.394-12.773 90.253-49.965 136.623 6.574 1.52 1.961 13.96 18.915 13.96 49.735 0 26.293-9.02 54.758-26.56 84.828 84.1-48.207 130.88-13.766 132.99-12.133 20.39 16.711 30.66 38.065 30.66 63.575 0 31.3-15.35 59.89-23.89 73.41 8.55 13.53 23.93 42.16 23.93 73.46" style="fill:#3245a1;fill-opacity:1;fill-rule:evenodd;stroke:none" transform="matrix(.13333 0 0 -.13333 0 257.333)"></path><path d="m921.133 1161.26-1.086 1.36-.234.24c-123.293 123.28-79.458 186.25-78.961 186.91 44.007 53.65 115.839 1.1 118.871-1.17l1.59-1.18H966l1.594 1.18c3.035 2.27 74.856 54.82 119.006 1 .36-.49 44.2-63.46-79.1-186.74l-.25-.26-1.1-1.4 16.85-15.84c124.79 124.78 174.16 88.56 186.92 78.96 53.65-44.02 1.1-115.84-1.17-118.87l-1.18-1.59v-4.7l1.18-1.58c2.27-3.04 54.82-74.87 1-119.006-.49-.367-67.43-44.179-190.72 79.116l-12.84-15.92 1.08-1.35.23-.23c123.3-123.299 79.46-186.252 78.96-186.913-44.01-53.656-115.835-1.101-118.866 1.164l-1.59 1.18h-4.691l-1.59-1.18c-3.035-2.265-74.864-54.82-119.004-1.003-.364.5-44.199 63.453 79.094 186.752l.253.25 1.098 1.4-16.851 15.85c-123.293-123.299-186.254-79.46-186.918-78.96-53.649 44-1.098 115.83 1.164 118.86l1.187 1.59v4.7l-1.183 1.58c-2.266 3.04-54.817 74.87-.997 119 12.664 9.38 61.872 45.78 186.747-79.09z" style="fill:#42b23c;fill-opacity:1;fill-rule:evenodd;stroke:none" transform="matrix(.13333 0 0 -.13333 0 257.333)" data-source="https://football-logos.cc"></path><path d="M903.41 1310.21c.438-3.08 11.098-75.81 38.215-102.93l5.621 5.62c-25.246 25.25-35.863 97.71-35.969 98.43zM937.816 1284.1c.059-1.3 1.539-32.16 14.411-45.03l5.621 5.62c-8.868 8.87-11.735 31.71-12.09 39.76zM1010.32 1304.17c1.1-.1 26.86-2.74 26.86-26.52h7.94c0 24.89-22.3 33.4-34.1 34.44zM1027.7 1330.95c10-4.15 35.97-18.49 35.97-34.75h7.94c0 24.89-39.2 41.4-40.87 42.09zM1067.64 1125.3h7.95c0 26.31 53.98 61.88 74.78 73.36l-3.83 6.97c-3.22-1.78-78.9-43.96-78.9-80.33M1089.51 1127.51l6.61-4.41c.31.46 30.96 45.92 57.63 45.92v7.95c-30.91 0-62.9-47.44-64.24-49.46M1119.31 1123.98h7.95c0 11.84 18.24 21.41 25.26 24.11l-2.83 7.42c-1.24-.47-30.38-11.8-30.38-31.53M1179.24 1065.47c.14-.34 13.89-33.52-1.17-52.72-10.36-13.211-32.15-17.254-64.75-12.02l-1.26-7.851c35.69-5.727 60.01-.684 72.29 14.991 17.93 22.9 2.86 59.17 2.21 60.69z" style="fill:#3245a1;fill-opacity:1;fill-rule:evenodd;stroke:none" transform="matrix(.13333 0 0 -.13333 0 257.333)"></path><path d="M1164.45 1035.65c.02-.07 1.53-7.11-2.43-12.06-2.97-3.71-8.42-5.59-16.22-5.59v-7.95c10.38 0 17.94 2.9 22.49 8.65 6.34 8.01 4.01 18.32 3.91 18.75zM986.055 1019.85c.629-.46 63.105-46.698 73.685-115.061l7.85 1.211c-11.09 71.703-74.18 118.32-76.86 120.27zM999.914 963.523c.336-.335 33.286-33.605 33.286-58.132h7.95c0 27.82-34.16 62.293-35.61 63.75zM989.32 944.969c14.95-14.969 28.43-34.832 23.84-39.422l5.63-5.621c12.44 12.445-15.11 41.922-23.849 50.664zM972.465 927.43c.223-.184 22.312-17.598 22.312-33.961h7.953c0 20.254-24.347 39.422-25.382 40.23zM753.867 1184.08l4.899-6.27c1.89 1.48 46.703 35.8 79.527 2.98l5.621 5.61c-37.82 37.82-89.531-1.92-90.047-2.32M781.004 1160.13l3.613-11.37c21.215 6.74 59.196 13.1 70.821 1.47l8.429 8.43c-20.523 20.52-76.543 3.48-82.863 1.47M802.441 1136.9l3.133-7.3c7.055 3.01 27.176 9.03 35.367.85l5.622 5.61c-13.668 13.67-42.883 1.38-44.122.84M827.695 1043.01c1.055-1.06 1.082-1.8.957-2.43-1.203-6.12-17.582-15.53-28.828-20.25l3.071-7.32c5.179 2.16 31.113 13.62 33.554 26.03.485 2.46.332 6.12-3.133 9.59zM860.977 1035.21c0-8.1-31.668-25-61.012-36.011l2.789-7.445c15.527 5.82 66.172 26.156 66.172 43.456z" style="fill:#3245a1;fill-opacity:1;fill-rule:evenodd;stroke:none" transform="matrix(.13333 0 0 -.13333 0 257.333)"></path><path d="M839.316 628.441v95.387s51.114-5.269 120.129 109.242c-24.425-14.324-88.945-44.129-132.777 9.321-1.41 1.828-13.754 18.75-13.754 49.418 0 26.312 9.035 54.8 26.602 84.894-84.137-48.211-131.055-13.664-133.293-11.93-20.184 16.555-30.422 37.857-30.422 63.297 0 31.32 15.387 59.94 23.933 73.47-8.539 13.51-23.89 42.1-23.89 73.41 0 25.5 10.269 46.85 30.656 63.57 2.109 1.63 48.914 36.06 132.996-12.14-17.543 30.07-26.566 58.54-26.566 84.83 0 30.8 12.437 47.77 13.855 49.6l.106.14c46.461 56.64 116.543 19.18 136.765 6.49.043.02.094.05.141.08v170.84H388.824c7.129-80.77 20.399-180.28 44.528-293.13 38.418-179.64 96.433-357.449 172.441-528.488 93-209.265 213.52-408.832 358.004-593.59v660.286c-44.992-103.317-124.481-154.997-124.481-154.997" style="fill:#fff;fill-opacity:1;fill-rule:evenodd;stroke:none" transform="matrix(.13333 0 0 -.13333 0 257.333)" data-source="https://football-logos.cc"></path><!-- source: https://football-logos.cc --></svg>