<svg xmlns="http://www.w3.org/2000/svg" viewBox="226.51 304.87 9335.68 9889.82"><!-- Source: https://football-logos.cc --><path d="M8428.415 700.913c1.353 4.228 2.143 9.866 2.368 16.8 3.721 128.819 12.855 257.976 27.457 387.584q40.002 355.167 158.485 693.084c147.828 421.409 378.648 791.009 692.402 1108.855q5.328 5.413 13.362 13.53c31.066 31.627 70.87 71.88 119.357 120.645 1.635 1.635.45 4.454-1.86 4.454h-4.962a5.95 5.95 0 0 1-3.608-1.24c-174.102-135.98-375.21-241.12-581.11-324.162-216.442-87.213-456.959-140.714-691.443-139.755-90.152.394-165.589 4.623-226.253 12.74-92.35 12.347-184.645 33.77-276.826 64.326q-5.497 1.775-8.119 5.073c-1.579 1.917 0 4.792 2.48 4.51 129.393-14.15 261.097-15.841 395.112-5.186 229.861 18.322 446.135 81.406 648.82 189.366 111.464 59.364 219.15 136.148 309.978 226.123 1.24 1.24.338 3.383-1.466 3.327-2.368-.113-4.848-.846-7.386-2.255-220.896-121.265-454.93-205.321-702.043-252.057-216.387-40.928-477.426-32.98-622.154 160.446-70.644 94.43-108.7 207.576-117.947 322.808-3.044 38.11-4.397 87.72-4.115 148.832.62 128.65 12.29 258.99 41.608 384.877 81.526 349.812 237.642 678.032 440.215 976.091 88.066 129.608 186.787 260.174 296.108 391.643 75.831 91.216 133.17 159.825 171.959 205.771 200.374 237.624 376.618 488.891 500.485 769.361 67.262 152.215 107.066 306.402 119.526 462.507 1.86 23.96 1.353 44.199 3.383 64.156 1.07 10.993 1.635 19.618 1.635 25.763-.057 341.187-111.746 639.133-335.18 893.839-12.008 13.643-33.095 34.84-63.37 63.592-1.24 1.184-1.41 3.1-.339 4.397l.057.113c1.014 1.296 2.875 1.522 4.115.507 27.006-22.043 51.7-43.86 73.97-65.509 202.461-196.244 353.109-453.261 404.978-731.701 9.078-48.99 14.772-100.349 17.027-154.132 10.43-249.575-48.656-488.834-152.226-715.916-91.054-199.627-205.787-386.681-337.772-560.995-158.936-209.944-329.316-407.654-511.029-593.074-1.635-1.635-2.03-4.172-1.071-6.258l.056-.169c.902-1.86 3.327-2.367 4.962-1.07 113.267 93.358 204.546 170.085 273.725 230.125 285.564 247.885 531.381 531.511 737.563 850.88q134.381 208.196 212.609 420.113c149.012 403.82 92.745 862.267-138.92 1223.862-60.383 94.204-132.042 186.04-214.977 275.452-134.58 145.111-281.618 271.506-441.005 379.184-19.113 12.91-45.95 30.724-80.51 53.388-8.006 5.242-11.22 26.327-11.164 37.264.282 47.186.226 118.502-.282 213.946-.056 9.753 1.128 17.364 3.609 22.72a13.12 13.12 0 0 0 6.99 6.596q311.98 122.616 604 278.552c103.457 55.305 207.478 113.88 311.95 175.724 27.176 16.067 49.84 30.668 67.938 43.804 3.947 2.875 3.327 8.907-1.127 10.88-171.79 76.164-340.48 159.995-506.01 251.605-5.977 3.327-9.134 8.062-9.529 14.15a6.2 6.2 0 0 0 .79 3.327c131.365 215.017 265.436 440.351 402.214 675.946 27.063 46.679 50.178 95.839 69.348 147.535 1.747 4.736-3.552 8.964-7.78 6.202-57.565-37.885-119.188-73.458-184.814-106.72-308.004-156.104-607.833-292.872-921.08-410.077q-211.848-79.237-418.115-146.126c-147.49-47.864-304.62-91.555-471.393-131.13a6.215 6.215 0 0 1-4.736-6.033c-.056-128.48-.056-290.955-.056-487.425 0-9.81-4.454-15.165-13.362-16.01a10 10 0 0 0-3.89.281c-766.317 205.32-1494.014 533.879-2159.805 968.085-148.449 96.798-288.61 200.304-420.595 310.518-4.962 4.172-12.066 4.736-17.59 1.353-6.484-3.89-12.01-7.667-16.52-11.331-183.517-148.889-369.12-281.372-556.809-397.337-179.176-110.665-376.675-219.302-592.497-326.021-343.185-169.578-696.237-311.815-1059.155-426.765-93.309-29.54-205.392-63.648-336.363-102.266-8.965-2.65-18.493-4.679-28.472-6.032-4.962-.676-9.36 3.157-9.36 8.118v482.577c0 2.875-1.916 5.469-4.735 6.258-144.22 40.985-306.538 79.94-455.55 127.296-122.965 39.013-234.823 76.22-335.63 111.68-288.835 101.477-562.673 220.543-842.318 355.394-139.991 67.482-259.404 130.115-358.238 187.844-8.401 4.905-15.11 12.008-23.116 13.925-3.44.79-6.258-2.65-4.792-5.863 29.092-63.648 61.06-127.015 95.846-190.043 18.943-34.22 54.688-95.5 107.178-183.841 89.08-149.904 181.995-298.68 278.686-446.44 3.214-4.905 1.692-11.557-3.383-14.545-37.887-22.494-78.65-45.045-122.344-67.764-119.864-62.295-250.835-125.944-392.969-190.945-5.694-2.65-6.765-10.317-1.917-14.32 7.273-6.032 13.588-10.654 19-13.924q465.727-282.697 987.778-493.514c2.03-.846 3.326-2.762 3.326-4.905v-239.146c0-1.466-.394-2.931-1.07-4.228-4.286-8.005-8.627-13.474-13.08-16.462-50.574-34.107-94.888-64.945-132.889-92.456-263.238-190.776-508.322-433.586-662.86-722.625-49.783-93.076-88.347-193.087-115.747-300.032-78.087-304.88-57.282-601.868 62.412-890.907 53.787-130.002 122.401-253.353 199.698-374.11 185.209-289.433 413.999-554.005 672.896-784.3 93.196-82.872 198.4-171.89 315.502-266.996 1.466-1.183 3.552-1.296 5.13-.169l.113.113c1.523 1.128 1.635 3.326.282 4.623-79.44 75.374-168.632 171.777-267.58 289.095-80.115 95.05-139.37 166.816-177.878 215.243-150.648 189.704-275.416 386.23-374.307 589.634-108.757 223.587-176.075 467.074-177.146 718.454-.113 37.771 2.82 63.704 5.92 107.17 2.763 39.012 10.825 88.51 24.074 148.437 49.22 222.347 162.205 432.346 310.71 606.66 46.12 54.178 93.14 103.168 148.223 142.518 1.184.846 2.876.62 3.834-.507l.113-.113c.902-1.127.846-2.762-.17-3.777-238.205-237.85-366.187-527.677-384.003-869.54-1.297-25.313-2.255-40.253-2.763-44.763-.846-7.103-.733-21.535.338-43.353 1.128-23.847 1.805-38.279 1.974-43.296 5.807-157.57 40.03-312.266 102.555-464.142 43.525-105.705 92.52-204.306 146.983-295.691 69.629-116.924 145.234-228.266 226.93-334.027 166.095-215.243 348.033-418.026 510.915-637.723 76.056-102.548 145.122-207.294 207.253-314.295 128.546-221.444 226.534-456.982 294.021-706.558 53.618-198.5 74.59-398.182 62.808-599.106-4.116-70.131-13.193-126.62-27.345-169.522-59.819-181.473-183.799-315.253-376.28-351.108-91.956-17.082-184.08-19.224-276.375-6.314-200.882 28.131-397.253 84.507-589.114 169.184-58.297 25.763-119.92 55.755-184.814 90.088q-6.173 3.298-10.487 4.06c-3.382.563-5.468-3.609-2.931-5.92 176.3-164.223 381.016-279.624 614.09-346.148 167.957-47.92 339.746-71.202 515.314-69.85 20.24.17 36.816.903 49.727 2.143 21.593 2.03 43.018-.451 66.303 2.199 31.234 3.608 56.267 6.765 75.042 9.414 9.528 1.41 19.225 1.015 29.148-1.07 1.522-.339 1.635-2.481.17-2.989q-398.664-137.584-813.057-52.26c-349.443 71.992-666.919 215.637-952.37 431.05-1.41 1.07-3.496.056-3.496-1.748v-2.932a8.95 8.95 0 0 1 2.819-6.54q27.315-25.96 39.41-39.575c57.45-64.381 134.804-133.554 195.75-201.656 294.699-329.235 510.634-722.907 634.163-1147.586 71.546-246.137 115.748-497.742 132.493-754.816 4.228-64.888 8.513-124.985 12.798-180.346.282-3.27 3.89-5.074 6.597-3.27 1.86 1.184 2.988 2.03 3.439 2.424 322.324 312.942 740.27 514.993 1187.645 548.537 290.413 21.817 572.538-17.702 846.376-118.446 323.001-118.896 620.518-309.277 886.914-528.974 3.1-2.537 7.442 1.015 5.525 4.567-3.665 6.652-9.19 14.545-16.576 23.621-61.736 76.446-117.552 140.489-167.392 192.072-79.496 82.365-158.935 153.68-238.374 214.06-222.532 169.183-469.646 289.771-741.341 361.65q-57.085 15.137-126.179 26.722c-58.41 9.753-101.089 15.56-128.039 17.308-51.023 3.27-96.973 6.652-137.961 10.147-.902.057-1.579.846-1.635 1.748 0 .902.676 1.635 1.578 1.748 23.398 2.367 46.852 3.72 70.362 4.002q55.394.677 172.185-5.243c147.152-7.385 296.39-32.021 447.657-74.021 352.995-98.038 666.355-267.616 940.024-508.735 60.665-53.501 118.398-108.918 173.143-166.253q182.079-190.86 340.479-405.567c2.311-3.214 7.104-3.157 9.359.113 142.247 204.136 305.636 394.405 491.182 559.191q484.671 430.176 1122.92 558.966c106.503 21.48 212.779 34.277 318.83 38.336 51.193 1.917 79.326 3.044 84.457 3.439 18.605 1.353 37.436 1.24 56.493-.282 8.851-.733 27.795-1.917 56.718-3.552 1.41-.113 2.48-1.24 2.48-2.593v-1.466c0-.79-.62-1.41-1.409-1.466q-82.287-6.004-132.605-10.147-157.386-12.94-320.013-61.9c-308.399-92.852-600.842-255.214-830.421-474.854-82.428-78.926-171.508-179.726-267.298-302.4-.564-.677-.902-1.522-1.071-2.424-.113-.677-.113-1.24.056-1.635.959-2.706 4.454-3.552 6.822-1.579q79.75 67.229 146.814 119.743c224.336 176.005 474.325 319.087 741.791 415.546 80.004 28.808 158.146 52.26 234.485 70.3 362.692 85.748 717.604 69.06 1064.736-50.005 140.33-48.089 273.5-111.004 399.452-188.69q189.352-116.867 349.444-270.773c2.255-2.142 5.976-1.184 6.934 1.804" data-source="https://football-logos.cc"></path><path fill="#fff" d="M4537.913 1367.162c-253.71 179.783-540.458 310.124-847.222 383.581-244.069 58.462-490.619 70.47-739.536 35.968-1.128-.17-1.917-1.071-1.917-2.199v-1.635c0-.62.507-1.127 1.127-1.183 215.992-5.694 431.307-42.113 645.946-109.144 503.135-157.063 948.03-446.722 1285.633-848.794 2.82-3.383 8.006-3.383 10.882-.056 193.947 228.209 417.099 418.026 669.4 569.452 296.784 178.147 635.064 300.032 977.967 361.425 58.466 10.43 104.472 17.194 138.018 20.182 40.143 3.608 85.021 7.216 134.58 10.88a1.334 1.334 0 0 1 1.24 1.241c.056.677-.395 1.24-1.015 1.41-29.318 6.708-64.443 8.625-122.401 12.853q-61.736 4.482-102.5 4.228-213.369-1.183-410.164-39.745c-180.98-35.46-360.437-93.583-538.316-174.37-281.449-127.804-529.352-303.978-743.765-528.523-2.424-2.537-6.54-2.48-8.908.17-101.202 114.386-223.49 215.298-349.049 304.26M4299.933 1924.042c.395 0 .677.057.846.226.17.17.057.451-.225.564q-29.938 10.063-46.852 40.083c-8.57 15.109-15.956 28.695-22.214 40.703-6.991 13.53-18.041 18.04-32.136 13.474-37.437-12.12-13.363-60.153-.564-82.365 25.202-43.748 63.37-67.425 114.62-71.09.057 0 .057-.113 0-.169l-.112-.113c-.057-.056-.17-.056-.282-.056a320 320 0 0 1-14.66-1.015c30.22-2.988 60.271-2.142 90.209 2.537 1.86.282 3.665.79 5.412 1.466 8.908 3.551 15.561 6.032 19.902 7.498 18.211 6.201 37.268 21.479 48.093 36.137q6.426 8.71 13.7 18.604a25 25 0 0 1 3.044 5.525c21.82 55.417 18.944 106.775-8.513 154.018-19.17 33.036-47.472 72.725-84.965 119.01-45.216 55.868-86.092 108.297-122.682 157.232-1.748 2.367-.508 5.58 2.593 5.637 24.75.508 95.395 2.312 212.045 5.412 15.166.395 26.95 13.474 25.71 28.583l-.113 1.973c-1.072 13.812-12.573 24.523-26.443 24.523h-291.202c-1.804 0-3.496-.62-4.905-1.747-19.17-15.334 1.917-51.979 12.967-66.806 82.935-111.793 149.238-198.273 198.796-259.328 2.988-3.665 10.712-15.447 23.229-35.404 9.697-15.39 15.786-28.019 18.323-37.885 8.908-34.784-.564-64.945-28.36-90.54-4.51-4.115-14.038-9.527-28.527-16.18-1.579-.732-3.327-1.07-5.075-1.07-5.243.056-9.979-.846-14.207-2.82a14.3 14.3 0 0 0-5.638-1.352c-19.79-.846-36.816.507-51.193 4.172-.226.056-.508.225-.677.338-.17.17-.113.225.056.225M4929.642 1999.079c-.395 3.551 0 7.554 1.296 12.064 14.885 52.937 20.861 107.001 17.93 162.137-.734 14.037-4.173 39.576-10.206 76.502-8.457 51.81-34.73 115.796-75.38 150.692-46.175 39.633-112.252 48.822-166.715 26.497-71.039-29.09-106.953-109.03-117.947-181.981-6.371-42.113-8.006-95.952-4.792-161.63.169-3.382.845-6.652 2.03-9.753 2.31-5.919 3.27-12.684 2.93-20.351-.112-2.142.114-4.341.621-6.37 9.472-36.814 20.973-68.272 34.561-94.261 7.386-14.15 18.436-29.09 33.039-44.819 12.854-13.812 28.02-24.467 45.555-31.852 39.466-16.744 78.312-19.619 116.537-8.738 3.947 1.127 12.517 4.679 25.653 10.598 16.012 7.216 26.217 14.32 30.558 21.367a5.64 5.64 0 0 0 3.496 2.48c1.86.395 5.863 4.398 12.009 11.896 21.142 25.876 36.59 54.966 46.344 87.382.338 1.071 1.748 1.353 2.424.395.282-.395.339-1.184.282-2.255a.12.12 0 0 0-.113-.113.12.12 0 0 0-.112.113M5574.065 2258.746c.056 3.326 2.875 5.863 6.146 5.58l50.403-4.397c.846-.056 1.635 0 2.48.17 21.087 4.34 20.862 19.675 19.452 38.899-.62 8.344-5.638 14.601-15.166 18.717a7.3 7.3 0 0 1-3.101.676l-58.635 1.015a3.71 3.71 0 0 0-3.609 3.608l-.112 99.109c0 6.878-4.285 13.079-10.713 15.56-6.427 2.536-16.97 3.438-31.685 2.762a8.87 8.87 0 0 1-6.54-3.326c-5.187-6.427-7.837-11.106-7.893-14.094-.62-21.367-1.128-55.305-1.579-101.815-.056-2.593-2.199-4.736-4.792-4.68-127.25.96-202.066 1.41-224.505 1.297-40.932-.169-21.2-51.076-9.247-67.481 95.113-130.285 184.87-253.973 269.215-371.122a13.15 13.15 0 0 1 8.739-5.3c13.587-1.804 20.41 5.13 20.41 20.86-.057 91.948.225 213.27.732 363.962M5013.479 1973.428c2.199-1.917 7.442-4.398 15.786-7.442 42.51-15.56 84.232-47.017 114.452-79.264 4.284-4.567 11.557-4.849 16.519-.62 2.988 2.48 4.68 6.37 5.13 11.726q3.468 38.984 3.89 80.166c.452 35.348.677 53.952.734 55.869 3.044 122.504 3.664 248.448 1.804 377.887-.226 14.883-6.879 23.846-19.902 26.89-21.594 5.018-36.93-2.198-36.873-25.143q.17-266.46-.338-428.569c0-3.27-3.496-5.412-6.427-3.89-14.49 7.33-29.374 13.869-44.71 19.676-19.169 7.216-27.852 7.047-48.994 8.738-4.961.394-9.36-3.157-10.148-8.062-1.184-7.893.902-16.067 6.145-24.467.79-1.297 1.748-2.48 2.932-3.495"></path><path d="M4737.724 1919.702c30.614-5.243 56.606.789 77.917 18.096 22.721 18.322 40.312 43.41 52.772 75.205 9.472 24.073 19.226 53.445 21.932 81.576 2.65 26.948 3.552 51.866 2.706 74.811-.056 1.635-.338 2.875-.79 3.608-1.127 1.917-1.86 3.664-2.029 4.961-6.258 46.115-11.501 75.43-15.617 87.946-13.7 41.38-37.944 81.689-75.719 104.634-16.519 9.978-37.887 12.29-64.104 6.821-1.973-.394-9.02-3.326-21.255-8.682a19.9 19.9 0 0 1-5.187-3.326c-20.127-18.04-34.335-34.615-42.567-49.723-20.297-37.208-32.25-75.657-35.914-115.289-.507-5.13-1.41-25.03-2.706-59.814-.62-16.293.113-30.95 2.312-44.086 5.638-34.559 14.997-66.016 28.02-94.486 16.238-35.46 40.932-62.183 74.027-80.167 1.917-1.07 4.06-1.747 6.202-2.085M5518.813 2019.261v239.823a5.053 5.053 0 0 1-5.075 5.074H5339.75c-4.172 0-6.597-4.68-4.116-8.062l173.989-239.823c2.875-3.946 9.19-1.916 9.19 2.988"></path><path fill="#fff" d="M5003.387 2770.3c704.299 32.81 1363.437 386.4 1773.602 956.979 463.838 645.334 555.907 1497.06 249.989 2228.366-288.722 690.096-901.911 1204.582-1632.99 1369.594-195.414 44.086-403.23 64.945-605.07 55.53-201.898-9.358-406.839-49.385-597.347-111.455-712.587-232.156-1275.372-801.382-1498.806-1515.269-236.683-756.563-65.908-1596.055 455.832-2195.555 461.358-530.046 1150.49-820.945 1854.79-788.19"></path><path d="M2916.594 4173.042c8.119-19.957 13.418-32.585 15.955-37.94 172.974-365.316 428.545-657.624 766.768-876.926 229.692-148.945 492.705-256.341 763.837-310.462 345.214-68.947 687.554-55.925 1027.13 39.012 387.05 108.185 748.389 324.274 1019.802 626.56q411.348 458.083 522.135 1050.62c48.318 258.202 49.276 518.77 2.932 781.65-33.208 188.747-90.941 370.503-173.087 545.211-82.258 174.878-184.757 335.774-307.553 482.633-207.14 247.716-471.957 445.877-765.866 577.796q-278.657 125.07-586.07 170.65c-82.54 12.233-175.229 19.055-260.87 23.452-33.208 1.748-68.445 1.86-105.656.338-333.826-13.36-644.31-95.106-931.398-245.235-119.807-62.69-235.837-137.67-348.033-224.94-461.753-359.17-757.015-894.965-818.864-1475.41-29.994-281.146-5.525-561.052 73.464-839.718 24.638-87.1 58.071-179.726 100.243-277.876.564-1.24 1.353-2.762 2.368-4.51a278 278 0 0 0 2.763-4.905"></path><path fill="#fff" d="M4655.24 3327.518h453.86c1.69 0 3.213.902 4.059 2.311l352.487 610.438a4.74 4.74 0 0 1 0 4.735L5075.78 4620.16c-1.805 3.157-6.315 3.157-8.12 0l-377.407-653.678c-.846-1.465-2.368-2.367-4.06-2.367h-455.155c-1.691 0-3.27-.959-4.116-2.481l-160.175-296.086c-1.692-3.1.564-6.878 4.116-6.878h403.004a4.62 4.62 0 0 0 4.115-2.48l173.143-326.19a4.62 4.62 0 0 1 4.116-2.481M6213.583 5532.94c-.845-.283-1.522-.903-2.142-1.917q-8.71-14.292-233.244-403.538c-2.143-3.721-6.033-5.976-10.261-5.976h-491.014a18.02 18.02 0 0 1-15.56-8.964l-249.538-432.233a12.63 12.63 0 0 1-.113-12.403q19.197-34.67 43.976-77.63c191.41-331.433 337.209-583.94 437.453-757.521q8.034-13.953 26.724-13.869c144.333.17 313.416.113 507.194-.056a8.83 8.83 0 0 1 7.668 4.454 914696 914696 0 0 1 227.099 393.221c7.047 12.177 6.822 24.693-.62 37.603-88.235 152.89-166.773 288.982-235.669 408.217-5.356 9.302-5.187 18.773.451 28.47 131.309 226.969 204.49 354.322 219.657 382.002 12.798 23.452 10.824 35.46-2.763 59.59a849822 849822 0 0 0-224.11 398.35c-1.185 2.143-2.932 2.876-5.188 2.2"></path><path fill="#fff" d="M4887.977 4661.088a11.86 11.86 0 0 1-.057 12.064c-19.676 32.642-120.54 199.74-302.535 501.237-4.454 7.33-14.94 9.753-24.017 9.922-365.738 5.694-565.548 8.908-599.32 9.528-8.119.169-13.926 3.27-17.478 9.358a972202 972202 0 0 0-306.538 530.835c-1.804 3.157-6.202 3.551-8.513.79-1.86-2.2-4.229-5.864-7.16-10.881-76.395-131.13-175.342-296.706-296.728-496.671q-11.756-19.28 1.015-41.606c93.421-164.448 193.721-337.07 300.787-517.868 4.172-6.934-2.143-16.518-6.146-23.396-186.11-322.356-283.196-490.864-291.146-505.521-1.071-1.974-1.635-3.665-1.635-5.018.056-2.706 2.255-4.905 4.961-4.905h1226.266c16.35-.056 22.27 2.143 30.84 17.026 124.092 215.074 223.208 386.738 297.404 515.106M5087.618 4785.396c.282.113.79.733 1.466 1.86 20.24 33.488 126.235 216.878 318.096 550.172 1.072 1.917 1.24 4.172.395 6.709-.677 2.255-2.82 3.777-5.187 3.777h-332.022c-4.736 0-7.724 5.13-5.356 9.246 168.52 291.857 273.894 474.402 316.123 547.69q3.805 6.681-.339 21.48c-.225.733-.507 1.465-.902 2.142l-297.179 514.88c-3.1 5.3-2.931 11.952.451 17.082.677 1.015 29.544 45.946 86.656 134.738 6.822 10.655 16.238 15.898 28.247 15.785 65.683-.507 136.44-.507 212.27-.056 12.235.113 21.989 9.076 30.051 20.013 35.125 48.033 77.579 100.35 127.363 157.007 15.053 17.082 27.006 27.455 35.914 31.12 23.34 9.527 47.923 4.791 71.94-3.327 4.06-1.41 7.217 3.665 4.173 6.709-29.825 29.372-73.238 41.83-115.749 50.738-52.264 10.937-116.424 19.732-192.425 26.384-301.181 26.328-592.44 32.303-893.96 11.444-87.672-6.032-171.17-19.957-255.515-40.421-23.398-5.694-45.442-14.432-66.19-26.215-3.045-1.747-2.255-6.314 1.184-6.934 27.739-5.13 44.54-16.405 63.597-39.238 48.374-58.123 91.786-114.668 130.237-169.69 7.78-11.163 17.196-16.744 28.303-16.8 19.564-.057 101.484-.114 245.873-.226 5.807-.057 11.445-4.454 16.97-13.192 123.586-195.962 268.426-425.13 434.521-687.447 2.932-4.679 3.045-10.598.282-15.447-92.745-158.528-191.635-326.36-296.615-503.436-13.588-22.888-8.908-37.884 4.285-61.506a48464 48464 0 0 0 299.209-543.575c.845-1.579 2.142-2.086 3.833-1.466"></path><path fill="#fff" d="M5353.563 5436.931c-1.353-2.537.564-5.58 3.495-5.525l217.458 5.864c5.469.169 10.543-2.932 12.855-7.893 54.012-115.232 81.525-174.145 82.596-176.738 7.78-18.83 17.31-16.575 38.734-16.631 85.077-.226 137.172-.17 156.172.113 15.448.225 23.398 6.821 31.347 20.69 29.938 52.26 54.633 96.008 74.084 131.13 8.964 16.292 5.92 29.202-2.255 46.51-13.814 29.259-40.989 84.62-81.526 165.97-8.682 17.533-20.353 15.334-40.255 15.39-61.06.113-130.858.113-209.508.057-3.327 0-6.315 1.917-7.78 4.905l-81.3 173.186c-1.636 3.44-6.484 3.552-8.232.17zM4211.812 5342.05l362.241-5.919c1.635-.056 3.157.846 4.003 2.255l214.413 371.404a4.5 4.5 0 0 1-.113 4.68l-202.46 319.988c-1.86 2.988-6.202 2.763-7.78-.281l-178.443-342.822c-.79-1.522-2.368-2.48-4.06-2.424l-405.541 6.652c-3.608.057-5.807-3.89-3.89-6.934l217.908-344.456c.79-1.297 2.2-2.086 3.722-2.142M1266.859 9099.103q-.508-1.606-.508-5.412c.338-238.808-.282-472.71-1.804-701.766-.507-75.487-1.635-138.459-3.383-188.859-3.495-99.108-5.13-162.193-4.848-189.253a12.245 12.245 0 0 1 8.4-11.5c80.736-26.441 169.31-51.698 265.72-75.714 551.903-137.557 1106.908-233.565 1665.013-288.08 167.844-16.405 368.444-33.825 601.688-52.26 65.119-5.13 131.534-4.68 197.837-12.065 43.356-4.792 99.567-2.311 139.428-6.088 65.57-6.145 106.332-9.133 122.288-8.851 50.516.902 97.481.225 140.95-2.086 112.253-6.032 207.197-9.133 284.719-9.359 27.232-.056 200.656.057 520.331.339 76.451.112 153.58 3.89 224.449 7.723 74.196 4.06 149.689 3.44 219.205 5.412 36.93 1.071 69.63 7.273 105.374 7.216 66.924-.056 126.348 2.706 178.218 8.344 47.866 5.243 96.466 4.623 140.724 8.062 201.784 15.56 368.105 29.879 499.076 42.902 396.07 39.406 791.688 96.684 1186.855 171.89a9926 9926 0 0 1 774.436 179.782c10.487 2.875 12.798 12.91 12.798 23.565 0 527.001 0 891.076.057 1092.168 0 2.425-2.03 4.398-4.454 4.285-4.003-.17-8.74-.958-14.095-2.368-285.001-75.262-519.937-131.525-704.694-168.902-217.345-43.917-450.138-82.534-698.492-115.74-220.164-29.484-470.604-59.758-751.207-90.82-131.535-14.546-274.852-26.61-430.01-36.194-111.125-6.934-180.303-10.655-207.535-11.219-44.991-1.014-107.066-9.527-150.366-9.302-49.501.282-99.285-.958-149.407-3.664-86.6-4.68-162.036-8.006-249.988-8.006-33.434 0-194.117-.056-481.937-.225-82.202-.056-141.119.62-176.807 1.917-98.102 3.664-198.627 9.189-313.304 10.317-28.02.281-52.377 1.522-73.181 3.777-71.434 7.723-132.662 7.949-202.968 13.53a328370 328370 0 0 0-400.411 32.021c-108.306 8.739-282.013 25.99-521.064 51.753-517.738 55.756-1029.048 147.536-1533.874 275.283-66.19 16.744-140.5 38.618-207.986 60.097-2.199.676-4.51-.507-5.243-2.65"></path><path d="M8454.688 8973.893c-.62 2.424-2.988 3.946-5.525 3.608-20.917-2.932-43.412-5.976-61.736-10.204-475.283-108.636-969.849-203.179-1447.049-262.542-363.256-45.214-668.667-76.22-916.231-92.964-270.004-18.322-447.996-28.808-534.088-31.401-162.262-4.905-255.627-7.78-280.04-8.739-232.51-8.85-558.725 2.594-701.649 4.623-82.822 1.184-177.315 12.12-256.698 11.275-72.9-.789-141.57 8.006-216.217 9.584-28.81.62-67.036 3.044-114.79 7.273-19.225 1.69-57.507 4.171-114.959 7.498-44.99 2.593-168.407 12.571-370.247 29.992-358.577 30.95-699.958 76.953-1063.327 135.64-337.096 54.402-658.18 129.382-963.365 224.94-15.674 4.904-31.122 7.723-50.686 11.725-2.48.508-4.792-1.41-4.792-3.946v-935.782a17.16 17.16 0 0 1 10.261-15.729c7.442-3.326 15.505-6.088 24.13-8.287 236.91-61.393 468.068-115.063 693.475-160.953 363.03-73.852 731.587-130.172 1105.724-168.902 284.889-29.54 549.31-52.091 793.38-67.594 73.914-4.68 145.404-5.187 215.54-10.994 76.114-6.314 170.437-3.777 250.102-7.78 108.7-5.412 177.203-8.061 205.449-7.892 136.327.846 460.23-4.06 688.569 4.397 123.754 4.567 210.692 7.216 260.701 7.95 33.828.507 67.149 2.592 99.905 6.257 48.205 5.412 88.63 2.255 133.283 7.667 32.757 4.003 64.047 6.258 93.985 6.765 29.6.507 60.947 2.142 93.986 4.961q180.81 15.306 293.796 25.031c569.776 48.765 1137.41 132.427 1702.845 250.872 162.769 34.108 290.019 65.396 421.779 87.834 10.374 1.747 15.56 7.441 15.504 17.082q-.423 278.298-.169 921.744c0 2.593-.282 4.905-.846 6.99"></path><path fill="#fff" d="M8427.006 8945.141c-23.905-3.664-46.57-7.893-67.994-12.628-135.538-29.936-213.399-46.961-233.64-51.02-116.537-23.453-244.237-49.442-383.101-77.912-123.472-25.312-239.502-46.51-348.034-63.535-518.922-81.294-1037.618-138.29-1556.032-170.988-43.807-2.762-72.955-4.34-87.445-4.848-68.784-2.255-122.514-9.528-188.817-10.655-94.436-1.522-237.078-10.092-290.413-10.88q-81.44-1.185-494.227-.508c-119.47.225-234.428 7.667-358.633 10.317-27.006.563-74.817 2.536-143.487 5.975-235.387 11.67-440.215 24.524-614.542 38.449-283.705 22.72-568.649 53.162-854.834 91.441-275.867 36.87-498.625 71.597-668.385 104.183-252.075 48.427-500.88 111.004-746.358 187.731-4.003 1.24-8.063-1.691-8.175-5.863-4.736-146.182-8.852-306.402-5.244-460.985 3.158-134.85 5.807-296.537 4.285-422.65-.169-15.108 8.626-14.882 22.158-18.49q771.701-203.207 1564.375-297.665c238.431-28.47 415.126-47.243 529.972-56.376 245.648-19.562 399.622-32.867 514.863-37.208 58.635-2.198 118.172-8.625 173.143-9.583 110.504-1.974 257.036-11.332 387.105-12.572 207.478-1.973 419.974-2.086 637.432-.282 123.303 1.015 211.763.169 318.829 7.78 58.184 4.115 133.113 3.326 195.526 9.245 33.602 3.214 71.208 6.822 112.929 6.878 39.015.057 75.662 2.368 109.884 6.934 32.475 4.341 70.87 2.086 95.79 4.849 31.404 3.495 98.045 8.907 199.98 16.236 56.662 4.059 123.36 9.866 199.98 17.476 511.14 50.682 1000.294 116.924 1476.028 216.202 165.194 34.445 333.995 70.751 506.462 108.918 3.777.845 6.427 4.228 6.427 8.061v879.012c0 3.1-2.763 5.412-5.807 4.961"></path><path d="M4931.565 7935.732c88.51 2.143 158.196 88.736 155.61 193.34-2.545 104.606-76.346 187.648-164.87 185.506-88.51-2.143-158.195-88.736-155.61-193.339 2.546-104.607 76.347-187.649 164.87-185.507M4553.587 8105.93l120.259-4.678c3.777-.17 6.934 2.818 6.99 6.596l.508 29.597a6.69 6.69 0 0 1-6.596 6.821l-119.075 1.917a6.69 6.69 0 0 0-6.596 6.822l2.537 156.273c.056 3.608-2.82 6.653-6.428 6.765l-36.14 1.41a6.685 6.685 0 0 1-6.99-6.709V7949.15a6.7 6.7 0 0 1 6.596-6.709l220.897-3.608a6.68 6.68 0 0 1 6.822 6.709v31.345a6.69 6.69 0 0 1-6.71 6.708h-176.356a6.69 6.69 0 0 0-6.709 6.71v108.917a6.685 6.685 0 0 0 6.991 6.709M5293.628 7939.707c88.125 3.41 156.345 91.526 152.28 196.822-4.054 105.324-78.758 187.97-166.932 184.56-88.126-3.41-156.346-91.526-152.281-196.822 4.054-105.324 78.758-187.971 166.933-184.56M5619.225 8006.766v315.253a6.69 6.69 0 0 1-6.709 6.709h-34.166c-3.778 0-6.822-3.1-6.71-6.878l8.683-319.594c.113-3.777-2.932-6.878-6.709-6.878h-86.769c-3.89 0-6.935-3.27-6.709-7.16l2.199-33.6c.282-3.72 3.439-6.54 7.16-6.258l234.315 15.278c3.721.282 6.54 3.44 6.259 7.16l-1.861 29.203c-.282 3.72-3.44 6.54-7.16 6.257l-94.662-6.2c-3.89-.226-7.16 2.818-7.16 6.708M4056.034 8126c-5.977 2.538-5.357 7.442 1.916 14.602.113.113 0 .395-.225.733-.056.056-.056.113-.113.169-.056.056-.113 0-.113-.056-2.537-68.835-3.833-105.649-3.89-110.384-.056-2.65.226-4.736.733-6.145v-.17l-2.368-56.995c-.113-2.424 1.804-4.454 4.229-4.567l217.232-8.512c3.495-.113 6.484 2.65 6.596 6.145l1.24 31.795c.113 3.27-2.424 6.033-5.637 6.145l-169.76 6.653c-3.947.169-6.992 3.439-6.822 7.385l3.608 92.795c.113 3.382 2.988 5.975 6.37 5.863l123.98-4.849c3.27-.112 6.033 2.424 6.146 5.694l1.297 31.965c.112 2.988-2.256 5.469-5.187 5.582l-121.894 4.792c-2.593.112-4.623 2.255-4.51 4.848l4.736 120.757c.112 2.311 2.03 4.172 4.34 4.059l166.265-6.483c3.722-.17 6.822 2.706 6.992 6.426l1.184 30.049a6.97 6.97 0 0 1-6.766 7.272l-214.808 8.4c-2.65.113-4.905-1.973-5.018-4.623l-7.724-198.048c-.056-1.015-1.071-1.691-2.03-1.296M5981.072 8149.848c0 .112.17.676.508 1.634.225.677.564 1.24 1.07 1.692 31.405 29.428 56.606 59.702 47.586 105.084-6.991 35.235-24.356 59.815-52.04 73.853-14.827 7.498-44.708 10.88-89.643 10.09-8.063-.168-39.184-1.014-93.253-2.536a8.227 8.227 0 0 1-7.95-8.738l23.455-358.438c.169-2.255 1.917-4.115 4.172-4.34 47.246-4.793 92.068-3.101 134.41 5.073 38.113 7.385 67.769 36.363 75.887 74.303 8.288 38.956-5.187 71.034-40.537 96.234a9.03 9.03 0 0 0-3.665 6.089M3727.169 7989.233c-.338-8.23 6.09-15.165 14.32-15.503l88.235-3.383c89.983-3.495 165.701 67.425 169.197 158.303l1.578 41.55c3.496 90.877-66.584 167.379-156.51 170.818l-88.235 3.382c-8.232.339-15.223-6.088-15.505-14.375z"></path><path fill="#fff" d="M4927.838 7976.943c59.537 0 107.798 65.565 107.798 146.464 0 80.9-48.261 146.465-107.798 146.465s-107.799-65.565-107.799-146.465c0-80.899 48.261-146.464 107.799-146.464M5288.738 7983.265c59.356.612 106.772 66.685 105.92 147.582-.84 80.901-49.665 145.959-108.988 145.33-59.357-.611-106.772-66.684-105.921-147.58.84-80.902 49.665-145.96 108.989-145.332"></path><path d="m6070.491 8340.849 139.71-345.584c.789-1.917 2.086-3.608 3.833-4.735 3.327-2.255 10.262-3.27 20.748-2.988 19.959.507 32.25 10.542 36.816 30.16 35.463 151.82 62.526 266.094 81.131 342.822 2.086 8.682-4.848 16.856-13.756 16.293l-16.689-1.072c-9.19-.62-16.858-7.328-18.662-16.349-8.739-43.69-15.222-74.528-19.507-92.512q-2.283-9.725-16.069-10.317c-38.563-1.579-72.617-3.664-102.104-6.258-5.412-.45-10.543 2.65-12.572 7.724l-35.125 86.931c-2.255 5.525-7.837 9.02-13.813 8.626l-27.063-1.748c-5.412-.338-8.908-5.92-6.878-10.993M3560.679 7998.93l135.932 340.848c1.973 5.017-1.466 10.486-6.822 10.824l-26.668 1.578c-5.863.339-11.332-3.1-13.53-8.569l-34.167-85.747a12.35 12.35 0 0 0-12.347-7.668c-29.092 2.425-62.582 4.341-100.582 5.694-9.021.339-14.32 3.721-15.843 10.092q-6.427 26.553-19.62 90.99c-1.804 8.908-9.36 15.447-18.437 16.011l-16.462 1.015c-8.796.507-15.561-7.611-13.475-16.124 18.661-75.487 45.837-187.844 81.469-337.127 4.567-19.28 16.745-29.146 36.365-29.54 10.317-.226 17.14.788 20.41 3.043 1.69 1.128 2.988 2.763 3.777 4.68M6624.537 8401.284c-.338 3.382-3.439 5.863-6.822 5.468l-210.692-24.241a4.576 4.576 0 0 1-4.06-5.074l40.82-364.526c.507-4.51 4.398-7.95 8.908-7.836l31.29.62c4.342.112 7.669 3.833 7.161 8.118l-34.955 320.383c-.395 3.383 2.03 6.37 5.356 6.822l161.698 19.731c3.326.395 5.637 3.383 5.3 6.71z"></path><path fill="#fff" d="M5853.766 8018.943c0-3.495 2.876-6.314 6.371-6.258l40.988.395c41.778.45 75.437 26.102 75.099 57.278v2.931c-.339 31.232-34.505 56.15-76.339 55.7l-40.988-.395c-3.496-.056-6.258-2.932-6.258-6.37zM3773.739 8032.248c-.395-7.555 5.412-13.982 12.967-14.376l41.383-2.086c63.146-3.213 116.932 45.89 120.146 109.65l2.48 48.653c3.214 63.818-45.329 118.107-108.474 121.265l-41.383 2.142c-7.555.338-13.983-5.469-14.377-13.023z"></path><path d="M3122.55 8252.17c-2.763-39.858-4.623-62.24-5.525-67.144-.113-.62-.846-3.495-2.256-8.569-.056-.056-.056-.17-.056-.226l-10.261-129.608c-.226-2.593 1.466-4.96 4.06-5.637 46.626-11.388 90.997-15.954 133.112-13.756 57.395 3.1 97.2 31.458 102.105 91.78q5.328 65.03-47.19 101.646c-3.327 2.311-4.229 6.877-2.03 10.26l88.122 137.05c4.792 7.498 0 17.42-8.852 18.265l-21.142 2.086a28.3 28.3 0 0 1-27.683-14.714c-7.724-14.207-31.63-55.643-71.602-124.309-4.793-8.23-12.799-11.726-24.075-10.429-20.41 2.255-36.703 3.834-48.825 4.792-4.623.338-8.062 4.397-7.611 9.02l13.7 140.15c.62 6.145-3.89 11.614-10.035 12.234l-26.612 2.593c-6.37.62-12.009-4.115-12.46-10.486-1.917-26.27-5.581-62.182-11.05-107.79-1.466-12.29.902-24.13-2.988-33.6a9.9 9.9 0 0 1-.846-3.608M6676.689 8404.892l47.415-359.565a6.344 6.344 0 0 1 6.54-5.581l34.392.958c3.778.056 6.653 3.439 6.146 7.216l-41.834 317.227c-.451 3.495 2.03 6.765 5.525 7.216l159.16 20.972c3.496.45 5.977 3.72 5.526 7.216l-4.341 33.149c-.451 3.495-3.721 5.976-7.217 5.525l-205.787-27.117c-3.496-.451-5.976-3.721-5.525-7.216" data-source="https://football-logos.cc"></path><path fill="#fff" d="M6232.922 8055.587c2.311.17 3.946 2.368 4.961 6.653 5.638 23.621 16.632 70.864 32.983 141.616.676 2.988-1.636 5.863-4.736 5.863a876 876 0 0 1-43.357-1.748c-14.602-1.015-29.035-2.311-43.187-4.059-3.044-.338-4.961-3.495-3.89-6.37 25.597-67.99 42.736-113.316 51.419-136.035 1.578-4.116 3.495-6.089 5.807-5.92"></path><path d="M2932.718 8284.304c-7.103 1.24-13.869-3.608-15.11-10.712l-2.65-15.672c-1.352-7.893 3.947-15.39 11.84-16.744l108.983-18.49c4.736-.79 9.246 2.254 10.205 6.933 8.682 41.437 10.374 89.412-4.849 129.214-11.952 31.175-50.798 59.927-76.846 67.03-57.451 15.617-107.46 4.003-149.914-34.84-55.253-50.625-66.021-130.002-53.843-200.19q9.81-56.742 50.404-96.065c50.29-48.708 132.436-47.58 189.38-11.838 6.54 4.115 8.457 12.797 4.229 19.28l-12.686 19.337c-4.341 6.596-13.418 8.005-19.564 3.044-22.946-18.547-51.531-24.354-85.754-17.476-65.062 13.079-80.736 79.208-79.777 135.696 1.296 72.894 63.709 169.015 148.843 137.614 44.765-16.462 57.113-55.249 49.558-99.39-.846-4.85-5.47-8.12-10.318-7.33z"></path><path fill="#fff" d="m3497.759 8205.547 34.335-142.744c.959-4.171 6.71-4.566 8.232-.563l53.392 136.767c1.07 2.706-.79 5.694-3.722 5.863l-87.727 6.033c-2.932.169-5.187-2.537-4.51-5.356M3157.28 8084.395c-.338-3.833 2.424-7.16 6.202-7.498l55.365-5.13c41.045-3.833 76.733 18.83 79.665 50.626l1.015 10.655c2.931 31.796-27.965 60.66-69.01 64.437l-55.365 5.13c-3.777.339-7.103-2.424-7.498-6.201z"></path><path d="m7376.76 8197.26-28.416 15.39a8.925 8.925 0 0 1-12.01-3.439c-22.946-40.083-64.667-68.553-112.14-53.613-87.444 27.568-123.02 148.381-81.637 224.206 18.492 33.882 59.255 70.245 102.047 61.281 29.318-6.089 47.19-21.987 70.701-41.098 5.412-4.397 13.475-3.157 17.252 2.706l11.276 17.59c3.947 6.144 2.82 14.206-2.65 19.054-24.412 21.48-47.077 35.066-67.881 40.816-62.638 17.308-114.79.395-156.567-50.738-34.223-41.943-48.77-91.103-41.834-145.957 11.952-94.486 87.332-188.746 192.876-177.245 47.979 5.243 85.359 31.796 112.252 79.659 2.312 4.059.79 9.189-3.27 11.388M2522.385 8341.694l23.172 136.092c.564 3.551-1.804 6.934-5.3 7.498l-34.955 5.919a7.105 7.105 0 0 1-8.232-5.807l-59.255-348.571c-.62-3.496 1.522-6.878 4.905-7.893 75.718-22.776 230.143-56.827 240.855 65.396 3.665 41.605-9.753 75.093-40.199 100.405-2.762 2.312-3.326 6.258-1.41 9.302l94.72 147.31c.337.508 0 1.184-.565 1.24l-47.64 8.119a1.49 1.49 0 0 1-1.523-.62c-40.424-59.815-69.686-102.717-87.727-128.763-4.962-7.216-12.968-9.922-24.075-8.118-6.483 1.071-21.368 3.495-44.709 7.273a9.694 9.694 0 0 0-8.062 11.218M7606.508 8543.238l-207.76-34.784c-5.582-.902-9.36-6.258-8.458-11.839l57.79-344.963c.902-5.638 6.258-9.415 11.896-8.513l26.724 4.51c5.582.902 9.36 6.258 8.457 11.839l-50.685 302.569c-.903 5.581 2.875 10.937 8.457 11.839l156.961 26.27c4.962.846 8.627 5.131 8.627 10.205v22.72c0 6.37-5.751 11.218-12.01 10.147"></path><path fill="#fff" d="M2492.334 8171.834c-.733-3.946 1.86-7.723 5.751-8.456l64.048-11.952c36.14-6.765 70.362 14.207 76.507 46.848l1.24 6.878c6.146 32.698-18.21 64.607-54.293 71.372l-64.048 12.008c-3.946.733-7.724-1.86-8.457-5.75z"></path><path d="M2232.51 8154.174c87.64-13.403 171.59 59.773 187.445 163.404 15.887 103.663-42.354 198.543-130 211.975-87.64 13.403-171.59-59.773-187.445-163.403-15.886-103.664 42.354-198.544 130-211.976"></path><path fill="#fff" d="M5846.437 8176.57c.169-2.424 2.199-4.285 4.623-4.172l67.374 3.777c35.858 2.03 63.484 29.823 61.68 62.183l-.282 5.186c-1.86 32.303-32.362 56.883-68.276 54.91l-67.318-3.777c-2.424-.17-4.285-2.199-4.116-4.623z"></path><path d="M7745.09 8183.899c7.33.507 12.572 7.16 11.389 14.319-10.487 62.295-21.65 130.735-33.49 205.433-4.793 30.387-12.347 86.199 18.436 107.735 20.917 14.6 42.003 21.873 63.258 21.76 55.76-.281 72.392-45.438 81.413-91.892 15.11-78.193 26.611-144.773 34.561-199.852 1.635-11.67 12.404-19.844 24.074-18.322l1.128.169c11.445 1.466 19.564 12.008 17.985 23.452-11.558 85.071-25.484 163.66-41.89 235.707-13.193 58.124-48.769 89.694-106.671 94.712-36.253 3.157-68.164-5.018-95.733-24.467-46.909-33.15-52.208-88.454-43.357-141.053a7237 7237 0 0 0 33.04-216.877c1.014-7.33 7.554-12.628 14.94-12.177z"></path><path fill="#fff" d="M2237.745 8197.325c58.443-9.875 116.74 46.332 130.121 125.623 13.4 79.294-23.135 151.511-81.567 161.425-58.443 9.874-116.74-46.332-130.121-125.623-13.4-79.294 23.135-151.512 81.567-161.425"></path><path d="M1922.784 8591.496c-3.045-.959-5.244-3.552-5.808-6.71l-59.706-351.333c-1.128-6.483 3.214-12.628 9.697-13.7l22.665-3.833c6.54-1.128 12.742 3.27 13.87 9.81l51.982 305.894c1.015 5.92 6.766 9.866 12.685 8.626l147.378-30.725c6.934-1.41 13.7 2.988 15.11 9.866l4.059 19.393c1.466 6.934-3.045 13.756-10.036 15.165-115.522 23.058-174.158 34.671-175.793 34.953-8.513 1.24-18.605 5.018-26.103 2.594M1684.465 8647.026l-26.386 6.257c-6.145 1.41-12.29-2.367-13.7-8.512l-81.976-347.388c-1.072-4.454 1.747-8.907 6.258-9.866l216.273-45.044c6.71-1.41 13.25 2.875 14.66 9.584l3.777 18.153a11.64 11.64 0 0 1-9.078 13.868l-165.531 34.559c-5.525 1.127-8.965 6.596-7.724 12.064l22.044 93.246c1.24 5.186 6.371 8.456 11.558 7.385l108.024-22.55a12.02 12.02 0 0 1 14.264 9.47l3.834 19.62c1.24 6.37-2.875 12.571-9.246 13.868-.451.056-35.181 7.216-104.19 21.423-12.235 2.537-8.626 12.797-6.09 23.734a11111 11111 0 0 0 32.025 135.81c1.578 6.37-2.425 12.853-8.796 14.319M7964.464 8600.29l71.998-351.785c.733-3.495 3.777-6.088 7.329-6.201 50.347-1.522 96.24 7.892 137.68 28.131 48.938 23.96 67.487 62.408 55.647 115.233-4.51 20.07-29.543 39.8-46.965 54.29-2.875 2.367-3.157 6.708-.62 9.47 30.502 33.037 43.582 65.904 25.822 112.188-12.234 31.796-32.926 55.7-65.964 63.423-21.65 5.074-40.932 5.863-57.79 2.368q-66.218-13.615-123.641-22.156c-2.368-.338-4.003-2.593-3.496-4.96"></path><path fill="#fff" d="M8074.97 8300.766c1.07-5.582 6.483-9.19 12.064-8.062l47.36 9.358c34.842 6.878 58.466 35.404 52.884 63.649l-1.353 6.708c-5.582 28.245-38.282 45.608-73.125 38.73l-47.36-9.414c-5.58-1.071-9.189-6.484-8.061-12.065zM8046.046 8454.84c.959-4.679 5.582-7.666 10.205-6.652l58.071 12.347c39.635 8.4 66.134 41.38 59.312 73.626l-1.353 6.37c-6.878 32.248-44.54 51.585-84.119 43.185l-58.071-12.347c-4.68-1.014-7.668-5.58-6.653-10.26zM577.557 9785.084l-.62 1.522c-.057.113-.057.226-.113.282L447.263 9983.64a2.72 2.72 0 0 0-.395 1.634q.084 1.438 0 1.523c-2.03 3.495 2.086 7.328 5.469 5.073a252 252 0 0 1 24.13-14.319q614.402-320.412 1251.806-522.942c117.552-37.377 246.662-75.487 387.443-114.33 28.19-7.724 55.083-13.756 80.623-18.04 3.44-.564 5.977-3.496 5.977-6.99.056-14.94.056-145.225.056-390.854 0-12.46 3.552-16.237 15.392-18.548 19.79-3.89 36.252-6.54 49.332-7.836 5.413-.508 10.092 3.89 9.81 9.358q-10.995 232.042 2.368 454.276c.79 13.136-4.51 20.972-15.899 23.622-76.057 17.758-179.74 45.1-311.105 82.027-200.769 56.488-400.805 129.72-580.037 193.876-211.707 75.825-395.731 160.84-626.777 268.18-153.071 71.09-295.318 144.04-426.74 218.738-3.552 2.03-6.427 3.1-8.626 3.157-2.763.113-4.68-2.763-3.496-5.243 19.226-41.493 39.748-80.674 61.511-117.6 51.362-87.27 96.579-164.223 135.594-230.803 90.659-154.751 182.615-302.287 275.81-442.606 1.185-1.748.677-4.172-1.07-5.356q-82.625-54.374-180.134-105.704a3605 3605 0 0 0-334.785-154.808c-3.834-1.579-5.018-6.483-2.199-9.584 1.072-1.184 3.383-2.875 7.048-5.018 310.992-184.348 633.824-344.681 968.552-481.054 1.748-.733 3.72.564 3.72 2.48v77.855c0 2.988-1.803 5.638-4.566 6.709-264.366 104.633-527.999 229.168-790.786 373.659-2.988 1.635-4.961 3.157-5.863 4.51a3.897 3.897 0 0 0 1.353 5.694L885.56 9300.42c3.552 1.917 4.736 6.427 2.537 9.81L578.233 9783.9q-.423.59-.676 1.183M8567.674 8605.533c0-1.691 1.691-2.819 3.27-2.198 327.286 133.103 642.563 290.955 945.774 473.669 4.173 2.537 7.499 4.792 9.98 6.878 2.142 1.86 1.578 5.3-1.071 6.37-177.936 69.286-347.583 154.244-509 254.875-1.747 1.071-2.254 3.326-1.24 5.074 107.743 179.219 218.53 365.484 332.417 558.797 46.683 79.152 92.689 157.289 131.084 235.99 1.07 2.254-.508 4.904-2.989 5.017-.338 0-.958-.057-1.917-.17-.507-.056-.958-.225-1.465-.45-118.793-64.269-198.514-110.102-303.55-159.882-105.656-50.062-184.532-87.1-236.627-111.06-456.17-210.057-920.065-373.716-1391.74-490.977-8.401-2.086-12.63-7.893-12.573-17.42.169-132.991.169-285.206.113-456.645 0-4.002.281-7.16.789-9.583.733-3.27 3.946-5.413 7.273-4.849l54.463 9.133c5.976.958 10.374 6.145 10.374 12.234v393.39a7.24 7.24 0 0 0 5.356 6.99c590.693 154.02 1161.09 374.11 1711.302 660.33 2.65 1.41 5.018 1.41 6.991.057 2.368-1.635 2.763-3.608 1.24-6.033-141.344-219.752-283.76-440.746-427.134-662.979-1.748-2.706-.79-6.314 2.03-7.836l442.808-239.485c2.932-1.578 3.1-5.75.282-7.554-13.362-8.456-30.107-18.153-50.291-29.146-233.3-126.902-474.1-239.71-722.34-338.537-2.2-.846-3.61-2.931-3.61-5.3z"></path><path fill="#fff" d="M2100.324 9318.462c2.424 1.578 1.86 5.186-.902 5.919-549.987 144.604-1080.748 351.221-1587.21 610.212-1.07.563-2.424.507-4.003-.113-2.03-.846-2.819-3.27-1.635-5.074 107.855-166.816 213.173-326.247 315.841-478.405 36.196-53.726 71.208-102.435 105.036-146.182 2.875-3.778 1.691-9.246-2.48-11.445l-437.228-232.042c-2.65-1.41-2.706-5.243-.056-6.71 207.986-113.71 427.642-219.301 658.913-316.718 29.712-12.572 58.917-23.847 87.615-33.939 2.875-1.014 5.92 1.128 5.92 4.228v424.68c0 5.13 3.608 9.583 8.682 10.598 439.538 90.258 721.438 147.93 845.644 173.017 2.762.564 4.68 1.24 5.863 1.974M7681.775 9318.743c-.733-1.465.113-3.213 1.691-3.551 237.868-47.187 529.465-105.198 874.68-173.976 4.736-.902 8.175-5.074 8.175-9.922V8715.41c0-3.721 3.777-6.314 7.216-4.905 247.847 100.236 489.604 214.96 725.216 344.23 2.086 1.128 2.086 4.116 0 5.243L8863.05 9295.63c-3.89 2.086-5.018 7.216-2.368 10.768a2732 2732 0 0 1 83.048 116.698c25.596 38.054 133 203.178 322.155 495.374 2.03 3.1 2.875 5.412 2.593 6.934-.45 2.368-3.044 3.665-5.243 2.594-505.616-253.804-1036.039-461.887-1576.498-606.548-2.762-.732-4.397-1.634-4.961-2.706M6697.944 8785.316c-.338 1.24-1.24 2.085-2.706 2.48-265.155 75.882-523.714 173.13-775.564 291.745-269.327 126.845-512.663 262.091-729.951 405.68-102.16 67.538-186.449 128.988-281.731 202.051-7.386 5.694-14.434 6.032-21.03 1.015-487.067-369.77-1038.745-650.182-1616.978-842.931-62.582-20.86-117.327-36.137-178.443-53.5-3.552-1.016-6.202-2.932-7.893-5.695-1.297-2.142.112-4.848 2.593-5.074 30.276-2.593 58.86-3.551 83.443-6.088 151.154-15.616 285.79-28.977 403.85-40.083 24.187-2.255 38.282-.902 61.961 8.118 144.897 54.966 298.532 121.49 460.963 199.57 278.686 133.949 542.883 289.32 792.534 466.059 3.834 2.762 9.02 2.762 12.91 0 299.153-211.748 616.46-390.74 951.92-536.923 109.04-47.525 209.34-90.878 318.04-132.145q21.058-8.034 46.852-7.95c30.502.17 64.33 2.369 101.484 6.71a62828 62828 0 0 0 374.814 42.45c2.086.226 3.496 2.368 2.932 4.51"></path><path fill="#fff" d="m8499.849 9119.511-866.392 180.628c-2.368.508-4.566-1.296-4.566-3.664v-381.439c0-2.424 2.255-4.228 4.623-3.664l866.391 200.754c3.947.902 3.89 6.54-.056 7.385M1305.704 9120.019c-.958-1.466-.225-3.383 1.41-3.89 284.437-82.704 573.385-150.016 866.955-201.826 1.579-.281 3.157.339 4.06 1.635.676.959 1.014 1.973 1.07 3.045.452 15.447.508 136.034.226 361.763 0 14.094-4.905 18.83-18.549 16.01a1839663 1839663 0 0 0-853.988-175.102c-.112-.057-.225-.113-.282-.17z" data-source="https://football-logos.cc"></path><!-- source: https://football-logos.cc --></svg>