<svg xmlns="http://www.w3.org/2000/svg" xml:space="preserve" viewBox="1.21 0.12 377.95 453.23"><!-- Source: https://football-logos.cc --><path d="m915.93 3389.89-37.942-58.66c-2.652-4.07-276.867-419.11-799.863-794.19l-69.07-49.54 11.394-84.23c2.113-15.59 53.852-387.43 240.918-860.06 110.082-278.11 244.625-534.01 399.899-760.565C857.016 497.012 1086.45 257.383 1343.2 70.406l83.18-60.578 83.18 60.57c256.75 186.985 486.19 426.618 681.93 712.247 155.28 226.565 289.82 482.465 399.9 760.565 187.06 472.58 238.81 844.47 240.91 860.07l11.4 84.22-69.06 49.54c-522.66 374.83-797.25 790.16-799.96 794.32l-50.14 77.66-91.48-15.07c-1.43-.22-157.67-24.63-402.59-17.52l-4.12.11-4.16-.12c-244.67-7.09-401.15 17.31-402.7 17.56l-91.146 15.09z" style="fill:#ee2722;fill-opacity:1;fill-rule:evenodd;stroke:none" transform="matrix(.13333 0 0 -.13333 0 454.667)" data-source="https://football-logos.cc"></path><path d="M118.734 2480.42c535.793 384.26 814.961 808.66 817.719 812.9 0 0 22.59 34.91 25.582 39.54l46.245-7.65c1.74-.28 163.06-25.77 415.97-18.44 0 0 1.2.03 2.14.07.91-.03 2.05-.07 2.05-.07 254.16-7.36 414.3 18.16 415.89 18.42 0 0 26.01 4.29 46.45 7.65 11.2-17.36 25.45-39.41 25.45-39.41 2.84-4.36 283.02-429.49 817.79-813.01 0 0 19.6-14.06 35.01-25.11-2.54-18.8-5.78-42.69-5.78-42.69-2.06-15.25-52.68-378.98-236.65-843.76-108.17-273.27-240.25-524.54-392.59-746.821-191.25-279.066-415.15-513-665.47-695.305 0 0-23.6-17.183-42.16-30.699-18.56 13.516-42.16 30.699-42.16 30.699-250.32 182.301-474.216 416.231-665.478 695.305C566.41 1044.31 434.324 1295.59 326.16 1568.86c-183.984 464.82-234.594 828.51-236.656 843.76 0 0-3.23 23.89-5.777 42.69 15.417 11.05 35.007 25.11 35.007 25.11" style="fill:#231f20;fill-opacity:1;fill-rule:evenodd;stroke:none" transform="matrix(.13333 0 0 -.13333 0 454.667)"></path><path d="M987.309 3275.71c6.027-1 12.55-2.08 12.55-2.08 1.621-.26 164.891-26.66 425.961-19.1l.56.02.54-.02c261.09-7.56 424.36 18.84 425.97 19.1 0 0 6.54 1.08 12.57 2.07 3.32-5.13 6.9-10.68 6.9-10.68 2.78-4.31 284.27-434.82 831.21-827.07 0 0 4.91-3.53 9.45-6.79-.74-5.53-1.56-11.53-1.56-11.53-2.02-15-51.67-372.27-233.45-831.54-106.74-269.66-236.98-517.45-387.11-736.508-187.88-274.156-407.63-503.809-653.13-682.598l-11.39-8.304c-5.47 3.988-11.4 8.304-11.4 8.304-245.5 178.789-465.242 408.442-653.128 682.598C611.73 1070.64 481.488 1318.44 374.754 1588.09c-181.719 459.11-231.434 816.54-233.461 831.54 0 0-.809 6-1.559 11.53l9.461 6.79c546.934 392.25 828.414 822.76 831.196 827.07l-.012-.02s3.601 5.57 6.93 10.71" style="fill:#ee2722;fill-opacity:1;fill-rule:evenodd;stroke:none" transform="matrix(.13333 0 0 -.13333 0 454.667)"></path><path d="M438.715 1612.51c104.902-264.55 232.726-507.47 379.914-722.002C994.605 634 1198.99 417.727 1426.38 246.922 1653.77 417.727 1858.15 634 2034.13 890.508c147.19 214.532 275.01 457.452 379.91 722.002 24.23 61.1 46.1 120.56 65.82 177.73H372.898c19.723-57.17 41.586-116.63 65.817-177.73M2639.93 2402.45c-472.32 344.35-738.65 703.25-807.05 801.91-59.72-7.52-202.56-21.48-406.5-15.65-203.94-5.83-346.79 8.13-406.5 15.65-68.4-98.66-334.732-457.56-807.04-801.91 11.066-66.63 44.558-246.29 117.215-481.2H2522.71c72.65 234.91 106.15 414.57 117.22 481.2" style="fill:#fff;fill-opacity:1;fill-rule:evenodd;stroke:none" transform="matrix(.13333 0 0 -.13333 0 454.667)"></path><path d="M2104.82 1817.28c0-374.69-303.75-678.44-678.44-678.44s-678.439 303.75-678.439 678.44 303.749 678.44 678.439 678.44 678.44-303.75 678.44-678.44" style="fill:#231f20;fill-opacity:1;fill-rule:evenodd;stroke:none" transform="matrix(.13333 0 0 -.13333 0 454.667)" data-source="https://football-logos.cc"></path><path d="M1459.35 1908.18v-433.9c40.99-.17 129.42-.55 140.42-.61 141.52 74.73 169.17 297.74 169.17 459.61 0 48.61-2.48 91.56-5.09 123.41-.47-.42-.95-.91-1.41-1.33-118.93-108.02-245.13-138.55-303.09-147.18M1093.58 2056.69c-2.6-31.85-5.08-74.8-5.08-123.41 0-161.87 27.64-384.88 169.17-459.61 10.99.06 99.43.44 140.42.61v433.9c-57.97 8.63-184.16 39.16-303.09 147.18-.46.42-.95.91-1.42 1.33M1132.33 2096.46c129.54-117.65 271.57-133.98 296.38-135.98 24.83 2 166.85 18.33 296.39 135.98 41.78 37.95 91.86 94.72 130.45 172.29-111.72 106.23-262.83 171.44-429.17 171.44-164.79 0-314.59-64-425.99-168.48 38.78-79.11 89.63-136.81 131.94-175.25M2042.78 1907.4c-17.55 121.06-69.89 230.85-146.58 318.87-24.95-46.41-53.49-85.49-81.62-117.68 3.35-26.98 10.34-92.81 10.34-175.08 0-36.42-1.41-92.41-5.11-132.92 25.77-1.38 95.55 22.26 222.97 106.81M959.484 2229.57c-77.679-87.89-130.937-197.87-149.105-319.34 130.168-87.28 201.191-111.03 227.241-109.64-3.71 40.51-5.1 96.5-5.1 132.92 0 82.27 6.98 148.1 10.34 175.08-28.8 32.95-58.001 73.13-83.376 120.98M1197.32 1446.01c-92.55 68.72-135.18 176.11-153.16 299.25-37.01-3.05-113.09 22.63-239.933 102.77-.5-10.19-.758-20.44-.758-30.75 0-208.31 102.265-392.71 259.311-505.8zM1813.27 1745.26c-17.97-123.14-60.6-230.53-153.15-299.25l132.56-132.55c155.52 113.25 256.61 296.72 256.61 503.82 0 9.35-.24 18.66-.65 27.91-124.08-77.48-198.8-102.94-235.37-99.93M1609.5 1418.11l-180.79.78-180.78-.78-137.64-137.65c92.67-54.69 200.7-86.1 316.09-86.1 116.6 0 225.71 32.08 319.03 87.84z" style="fill:#fff200;fill-opacity:1;fill-rule:evenodd;stroke:none" transform="matrix(.13333 0 0 -.13333 0 454.667)"></path><path d="M1896.91 2959.3v-632.93l-167.84 166.29h-151.6v-150.18l168.97-168.24h-635.32l167.47 168.24v150.18h-150.15l-172.592-172.58v645.51l172.592-172.58h150.15v150.15l-172.1 172.13h644.09l-173.11-172.13v-150.15h151.6c52.6 52.57 105.18 105.09 159.23 157.69z" style="fill:#ee2722;fill-opacity:1;fill-rule:evenodd;stroke:none" transform="matrix(.13333 0 0 -.13333 0 454.667)"></path><path d="M1127.56 2680.77v-72.06h262.81v-262.78h72.08v262.78h262.75v72.06h-262.75v262.84h-72.08v-262.84z" style="fill:#fff;fill-opacity:1;fill-rule:evenodd;stroke:none" transform="matrix(.13333 0 0 -.13333 0 454.667)"></path><path d="M676.25 2550.97h28.996l27.984-102.31-38.027-11.03c-12.676 24.41-24.605 41.71-35.781 51.94-15.535 14.03-32.371 21.06-50.5 21.06q-19.83 0-37.106-11.04c-11.519-7.36-20.652-18.2-27.394-32.51-6.75-14.31-10.125-31.08-10.125-50.3 0-29.3 7.738-54.52 23.207-75.65q23.205-31.68 60.824-31.68c15.949 0 31.285 4.56 46 13.69 18.402 11.31 34.281 26.51 47.641 45.59l31.691-23.53c-20.57-28.09-39.359-47.66-56.379-58.71-26.293-17.05-55.57-25.57-87.84-25.57-26.828 0-51.097 6.43-72.82 19.31q-32.586 19.305-51.98 54.06-19.402 34.755-19.403 75.84c0 27.25 6.301 52.08 18.899 74.5q18.885 33.63 51.468 52.44 32.573 18.81 72.618 18.81c27.09 0 50.851-5.72 71.281-17.13zM821.793 2338.89q15.754 0 26.914-11.19c7.43-7.45 11.148-16.45 11.148-26.98 0-10.54-3.718-19.54-11.148-26.99-7.441-7.45-16.41-11.18-26.914-11.18-10.645 0-19.688 3.73-27.117 11.18-7.434 7.45-11.149 16.45-11.149 26.99 0 10.53 3.715 19.53 11.149 26.98 7.429 7.46 16.472 11.19 27.117 11.19M2070.56 2552.61h236.4l32.4-90.87-37.22-12.86c-6.02 13.26-11.75 23.26-17.21 30.02a73.7 73.7 0 0 1-19.47 16.91c-7.51 4.51-15.64 7.51-24.38 9.02-5.88.96-16.25 1.43-31.14 1.43h-35.24v-75.78h17.88c6.77 0 12.09 1.02 15.96 3.07 3.85 2.04 6.64 4.7 8.33 7.97 1.68 3.27 2.54 8.72 2.54 16.36v15.13h37.07v-127.58h-37.07v18.42c0 5.33-.48 9.22-1.43 11.69-1.22 3.26-2.92 5.92-5.08 7.98-2.16 2.04-4.64 3.48-7.42 4.3-2.77.82-7.82 1.22-15.13 1.22h-15.65v-60.15c0-7.26.61-12.16 1.84-14.69 1.24-2.52 3.24-4.41 5.99-5.63 2.74-1.24 8.03-1.86 15.86-1.86h11.75v-39.25h-139.58v39.25h9.26c10.28 0 17.03 1.34 20.25 4 3.23 2.66 4.84 8.02 4.84 16.08v164.24c0 7.51-.62 12.49-1.86 14.95-1.23 2.45-3.28 4.3-6.16 5.52-2.88 1.23-8.57 1.85-17.07 1.85h-9.26zM2410.54 2340.52c10.5 0 19.47-3.73 26.91-11.18 7.43-7.46 11.15-16.45 11.15-26.98 0-10.54-3.72-19.54-11.15-26.99-7.44-7.46-16.41-11.18-26.91-11.18-10.65 0-19.69 3.72-27.12 11.18-7.43 7.45-11.15 16.45-11.15 26.99 0 10.53 3.72 19.52 11.15 26.98 7.43 7.45 16.47 11.18 27.12 11.18M961.211 1029.1h139.029v-39.252h-13.54c-6.2 0-10.61-.754-13.24-2.258-2.62-1.496-4.55-3.652-5.76-6.445-1.2-2.793-1.81-8.485-1.81-17.071V860.176c0-19.363 1.95-33.824 5.84-43.363s9.76-16.809 17.61-21.778c7.86-4.976 17.38-7.465 28.59-7.465 11.19 0 21.16 2.727 29.89 8.18 8.75 5.449 14.99 12.375 18.75 20.758 3.75 8.383 5.64 22.262 5.64 41.625V972.66c0 4.774-.62 8.188-1.87 10.227-1.65 2.73-3.86 4.64-6.62 5.726-1.93.821-6.83 1.235-14.68 1.235h-11.18v39.252h117.77v-39.252h-9.04c-8.98 0-14.54-.551-16.68-1.637-3.21-1.637-5.56-4.031-7.02-7.168q-1.62-3.07-1.62-16.98V851.551c0-20.731-3-38.121-9.01-52.16-8.33-19.098-21.61-33.926-39.84-44.496-18.23-10.567-39.83-15.848-64.82-15.848-17.62 0-33.4 2.699-47.32 8.074-13.93 5.387-26.11 13.098-36.56 23.117-10.44 10.024-17.75 20.625-21.92 31.813q-6.243 16.769-6.241 49.5v110.262c0 10.089-.547 16.605-1.633 19.539-1.094 2.929-2.867 5.086-5.321 6.445-2.453 1.363-7.222 2.051-14.308 2.051h-13.086zM1334.85 817.008c10.51 0 19.48-3.731 26.91-11.18 7.43-7.457 11.15-16.453 11.15-26.98 0-10.539-3.72-19.535-11.15-26.989q-11.145-11.18-26.91-11.179c-10.65 0-19.69 3.726-27.11 11.179-7.44 7.454-11.15 16.45-11.15 26.989 0 10.527 3.71 19.523 11.15 26.98 7.42 7.449 16.46 11.18 27.11 11.18M1530.82 1029.1h139.03v-39.252h-12.19c-6.78 0-11.05-.348-12.81-1.024-3.26-1.367-5.62-3.441-7.12-6.238-1.48-2.797-2.23-7.27-2.23-13.402V806.18q0-9.822.93-12.067.915-2.25 3.78-3.582 2.865-1.324 11.04-1.324c18.26 0 32.95 2.383 44.05 7.156 11.11 4.766 21.14 12.446 30.06 23.008 8.93 10.563 16.6 24.922 23 43.051l37.62-12.887-37.59-105.582h-217.57v39.254h13.62c5.55 0 9.76.746 12.61 2.25 2.84 1.5 4.9 3.52 6.19 6.039 1.29 2.52 1.93 6.926 1.93 13.211v161.781c0 6.828-.64 11.742-1.93 14.75-1.29 3-3.12 5.188-5.49 6.551-2.36 1.363-6.34 2.059-11.89 2.059h-15.04zM1853.49 817.008c10.5 0 19.47-3.731 26.91-11.18 7.42-7.457 11.15-16.453 11.15-26.98 0-10.539-3.73-19.535-11.15-26.989q-11.16-11.18-26.91-11.179-15.975 0-27.12 11.179c-7.44 7.454-11.15 16.45-11.15 26.989 0 10.527 3.71 19.523 11.15 26.98 7.43 7.449 16.47 11.18 27.12 11.18" style="fill:#231f20;fill-opacity:1;fill-rule:evenodd;stroke:none" transform="matrix(.13333 0 0 -.13333 0 454.667)" data-source="https://football-logos.cc"></path><!-- source: https://football-logos.cc --></svg>