<svg xmlns="http://www.w3.org/2000/svg" xml:space="preserve" viewBox="36.76 11.66 183.49 234.33"><!-- Source: https://football-logos.cc --><path d="M782.035 1372.93c-126.961-39.94-204.984-110.59-205.797-111.34-8.55-7.84-25.5-10.93-25.5-10.93h829.942c-10-2.81-12.25 1.37-21.52 7.97-183.62 130.87-370.699 171.41-556.027 120.51a574 574 0 0 1-21.098-6.21" style="fill:#7dc39b;fill-opacity:1;fill-rule:evenodd;stroke:none" transform="matrix(.13333 0 0 -.13333 0 257.333)" data-source="https://football-logos.cc"></path><path d="M1402.59 1332.15a1054 1054 0 0 1-29.11 19.98l97.62 93.33-11.94-1.21-72.96-2.21-.51-.14c-.57-.16-57.87-15.39-100.73 17.29-32.16 24.5-48.46 69.33-48.46 133.22l-7.89 2.64c-.67-.9-67.83-89.07-143.05-80.63-45 5.04-84.27 43.6-116.9 114.12.262.56.528 1.03.778 1.59l-4.008 6.18h-3.293l-4.004-6.18c.25-.56.523-1.03.769-1.59-32.617-70.52-71.89-109.08-116.886-114.12-75.223-8.44-142.379 79.73-143.047 80.63l-7.903-2.64c0-63.89-16.3-108.72-48.453-133.22-42.867-32.68-100.16-17.45-100.734-17.29l-.504.14-81.738 6.6 5.617-11.95 88.121-83.89c-18.18-13.57-28.371-22.87-29.617-24.03-17.098-15.82-18.906-43.48-4.031-61.66 7.308-8.94 17.492-14.31 28.675-15.1 11.082-.8 21.797 3 30.176 10.68.852.78 87.02 78.63 225.094 116.55 183.988 50.53 369.818 10.21 552.318-119.86 9.12-6.49 20.1-8.9 30.92-6.78 11.13 2.19 20.71 8.85 27 18.79 12.66 20.02 7.59 47.28-11.32 60.76" style="fill:#231f20;fill-opacity:1;fill-rule:evenodd;stroke:none" transform="matrix(.13333 0 0 -.13333 0 257.333)"></path><path d="M779.117 1463.22c-101.125-28.37-176.754-74.91-218.551-105.15-11.156 10.63-68.558 65.27-80.945 77.06 16.125-.49 59.645-1.81 60.465-1.84 5.785-1.52 62.836-15.34 107.781 18.86 32.375 24.64 49.559 67.96 51.574 128.41 20.094-23.42 77.668-82.24 143.528-74.87 46.828 5.24 87.375 43.45 120.812 112.86 33.449-69.41 73.989-107.62 120.829-112.86 65.85-7.37 123.43 51.45 143.52 74.87 2.01-60.45 19.2-103.77 51.57-128.41 44.94-34.2 102-20.38 107.79-18.86.82.03 44.34 1.35 60.46 1.84-12.84-12.23-74.09-70.52-82-78.05-239.5 155.48-449.895 144.56-586.833 106.14" style="fill:#e5e4e4;fill-opacity:1;fill-rule:evenodd;stroke:none" transform="matrix(.13333 0 0 -.13333 0 257.333)"></path><path d="M997.113 1703.04c50.297 31.61 78.657 57.25 64.637 89.84-12.3 28.55-53.5 54.64-100.41 42.22h.59c-46.91 12.42-88.117-13.67-100.41-42.22-14.028-32.59 14.347-58.23 64.632-89.84h-1.285l8.238-2.29s-150.16 59.13-105.519-74.45c0 0 70.434-133.48 137.488 8.77h-3.734c7.277-14.88 14.57-26.71 21.769-35.96 60.761-78.04 115.711 27.19 115.711 27.19 16.74 50.09 6.09 73.08-13.77 82.26-33.08 15.29-91.737-7.81-91.737-7.81z" style="fill:#fff;fill-opacity:1;fill-rule:evenodd;stroke:none" transform="matrix(.13333 0 0 -.13333 0 257.333)"></path><path d="M961.633 1839.62c-47.297 11.78-90.77-13.95-104.149-45.01-2.656-6.18-3.875-12.12-3.875-17.85 0-23.65 20.848-43.7 47.028-62.1-24.078 4.95-54.989 6.88-72.492-9.73-15.852-15.04-17.438-41.96-4.723-80.02l.117-.34.168-.32c1.293-2.45 32.199-60.08 74.34-59.13 23.789.53 45.719 19.83 65.34 56.99 5.301-9.68 10.711-18.57 16.261-25.7 17.016-21.85 35.422-32.05 54.712-30.3 39.41 3.56 67.19 55.93 68.35 58.16l.17.31.11.33c15.4 46.1 9.99 75.58-16.09 87.63-19.11 8.83-45.5 5.76-65.7 1.13 26.85 18.67 48.45 39.01 48.45 63.08 0 5.74-1.21 11.68-3.87 17.86-13.37 31.07-56.85 56.79-104.147 45.01" style="fill:#231f20;fill-opacity:1;fill-rule:evenodd;stroke:none" transform="matrix(.13333 0 0 -.13333 0 257.333)"></path><path d="M1057.71 1791.14c2.15-4.99 3.19-9.82 3.19-14.54 0-23.22-25.01-44-66.123-69.85 0 0 .336-.54.403-.63-1.805-.65-3.18-1.17-3.481-1.28l3.215-8.17c.574.22 57.316 22.22 88.296 7.9 13-6 19.52-17.94 19.52-35.66 0-11.29-2.67-24.95-7.97-40.91-1.84-3.41-27.66-50.13-61.21-53.15-16.11-1.45-31.91 7.62-46.976 26.96-6.25 8.03-12.386 18.25-18.359 29.77.277.57.562 1.04.828 1.62l-3.969 6.26h-3.734l-3.945-6.32c.3-.62.621-1.09.918-1.69-18.715-37.57-39.024-57.06-60.446-57.56-35.64-.82-64.277 50.57-66.215 54.13-5.316 15.98-7.988 29.68-7.988 41 0 13.01 3.504 22.88 10.52 29.54 21.523 20.43 70.648 7.02 89.55.81.008-.01.016-.01.036-.02-.008-.07-.079-.55-.079-.55l8.243-2.28 2.773 8.32c-.527.21-3.207 1.23-7.301 2.61-40.429 25.52-65.035 46.16-65.035 69.16 0 4.72 1.035 9.54 3.18 14.53 12.074 28.03 51.926 51.18 95.258 39.72 0 0 .164 1.27.257 1.96l.274-2.11h.59l.277 2.11.254-1.96c43.339 11.46 83.179-11.69 95.249-39.72" style="fill:#e5e4e4;fill-opacity:1;fill-rule:evenodd;stroke:none" transform="matrix(.13333 0 0 -.13333 0 257.333)"></path><path d="M699.813 1676.01c37.257 46.27 55.73 79.74 31.859 105.99-20.918 22.99-68.375 34.24-108.684 7.23l.559.2c-48.395-3.54-78.863-41.63-81.195-72.62-2.645-35.38 32.527-50.38 90.359-63.9l-1.215-.43 8.539.53s-161.23 7.02-75.531-104.75c0 0 110.055-103.27 127.141 53.05l-3.536-1.21c11.735-11.69 22.473-20.51 32.297-26.91 82.86-54 100.563 63.37 100.563 63.37-.485 52.82-18.043 71.09-39.805 73.3-36.266 3.68-84.211-37.25-84.211-37.25z" style="fill:#fff;fill-opacity:1;fill-rule:evenodd;stroke:none" transform="matrix(.13333 0 0 -.13333 0 257.333)"></path><path d="M621.75 1793.55c-48.523-4.28-81.238-42.71-83.773-76.41a52 52 0 0 1-.153-3.92c0-31.68 30.149-47.04 66.801-57.63-24.344-3.18-54.082-11.46-65.195-32.8-2.938-5.64-4.407-11.84-4.407-18.59 0-16.42 8.692-36.04 25.997-58.61l.218-.29.262-.25c2.023-1.89 50.008-46.32 89.543-31.7 22.32 8.25 36.773 33.63 43.223 75.16 8.175-7.43 16.183-14.08 23.746-19 23.207-15.13 43.929-18.78 61.593-10.85 36.106 16.2 45.325 74.76 45.7 77.25l.054.34-.004.35c-.445 48.61-15.164 74.72-43.75 77.63-20.851 2.12-44.742-9.29-62.316-20.21 15.481 21.18 27.359 42.28 27.359 61.55 0 10.42-3.472 20.31-11.726 29.38-22.77 25.03-72.277 35.18-113.172 8.6" style="fill:#231f20;fill-opacity:1;fill-rule:evenodd;stroke:none" transform="matrix(.13333 0 0 -.13333 0 257.333)"></path><path d="M728.426 1779.04c6.531-7.18 9.539-15.03 9.539-23.74 0-20.09-16.004-44.78-41.574-76.53 0 0 .488-.4.578-.47-1.594-1.28-2.61-2.14-2.864-2.35l5.7-6.68c.465.4 46.953 39.67 80.914 36.23 23.336-2.37 35.386-25.49 35.84-68.66-.645-3.93-9.86-56.41-40.563-70.18-14.762-6.61-32.66-3.18-53.191 10.21-8.52 5.54-17.649 13.21-27.051 22.17.07.62.187 1.16.254 1.8l-5.789 4.62-3.531-1.21-1.676-7.26c.48-.48.937-.83 1.422-1.31-5.469-41.6-18.321-66.65-38.418-74.09-33.797-12.52-78.11 27.67-80.219 29.61-15.961 20.89-24.012 38.59-24.012 52.86q.001 8.085 3.43 14.67c13.64 26.22 64.262 29.64 84.332 29.94l.113-.03.11-.54 8.535.53-.078 8.76c-.571.03-3.446.13-7.747.1-54.148 12.76-85.875 26.24-85.875 55.74 0 1.06.043 2.15.125 3.25 2.286 30.43 32.434 65.3 77.137 68.56l-.402 1.96c.351-.71.957-1.92.957-1.92l.558.19s-.269 1.32-.429 2.09c.308-.63.883-1.78.883-1.78 37.234 24.96 82.453 16.04 102.992-6.54" style="fill:#e5e4e4;fill-opacity:1;fill-rule:evenodd;stroke:none" transform="matrix(.13333 0 0 -.13333 0 257.333)"></path><path d="M1290.25 1649.02c57.84 13.52 93.01 28.52 90.36 63.9-2.34 31-32.8 69.08-81.2 72.62l.56-.2c-40.31 27.01-87.76 15.76-108.68-7.23-23.88-26.25-5.39-59.72 31.85-105.99l-1.21.42 7.05-4.84s-122.73 104.79-124.01-36.05c0 0 23.15-149.13 132.85-36.47l-3.53 1.22c2.04-16.44 5.08-29.99 8.88-41.08 32.04-93.57 118.26-11.97 118.26-11.97 32.14 41.91 29.55 67.12 13.77 82.26-26.31 25.23-89.3 22.48-89.3 22.48z" style="fill:#fff;fill-opacity:1;fill-rule:evenodd;stroke:none" transform="matrix(.13333 0 0 -.13333 0 257.333)"></path><path d="M1188.04 1781.06c-8.25-9.07-11.73-18.95-11.73-29.38 0-18.84 11.39-39.44 26.37-60.15-21.13 12.49-49.69 24.26-71.59 14.29-19.88-9.05-30.14-34-30.51-74.12v-.36l.05-.36c.43-2.74 10.89-67.29 51.05-80.12 22.67-7.23 49.68 3.76 80.34 32.53 1.86-10.84 4.08-20.98 7-29.5 8.97-26.21 23.06-41.84 41.86-46.47 38.42-9.46 81.75 31.02 83.57 32.74l.25.24.22.28c17.4 22.69 26.11 42.3 26.11 58.64 0 11.43-4.26 21.27-12.8 29.45-15.18 14.57-41.06 20.22-61.66 22.42 37.45 10.61 68.57 25.95 68.57 58.14 0 1.28-.06 2.58-.16 3.92-2.53 33.71-35.24 72.13-83.77 76.42-40.89 26.57-90.4 16.41-113.17-8.61" style="fill:#231f20;fill-opacity:1;fill-rule:evenodd;stroke:none" transform="matrix(.13333 0 0 -.13333 0 257.333)"></path><path d="M1185 1751.42c0 8.71 3 16.55 9.54 23.74 20.53 22.57 65.76 31.48 102.99 6.54l.88 1.76c-.16-.76-.43-2.07-.43-2.07l.56-.2s.6 1.21.96 1.92c-.15-.69-.41-1.95-.41-1.95 44.71-3.27 74.85-38.13 77.14-68.57.08-1.11.13-2.19.13-3.25 0-29.74-32.17-43.21-87.11-56.05 0 0 .14-.61.17-.73-1.92-.02-3.38-.06-3.71-.08l.39-8.77c.61.03 61.42 2.36 86.05-21.27 6.64-6.36 9.95-14.15 9.95-23.35 0-14.28-8.02-31.94-23.97-52.81-1.96-1.82-42.07-38.49-75.17-30.33-15.7 3.87-27.69 17.6-35.63 40.79-3.3 9.62-5.78 21.27-7.67 34.11.45.44.87.81 1.3 1.27l-1.71 7.21-3.53 1.22-5.78-4.69c.08-.69.23-1.26.32-1.94-29.94-29.44-55.48-41.21-75.9-34.7-33.96 10.83-44.32 68.73-44.99 72.73.38 36.21 8.91 58.38 25.36 65.88 26.93 12.28 68.95-16.26 84.91-28.35a.2.2 0 0 0 .05-.07c-.03-.05-.24-.49-.24-.49l7.04-4.84 5.34 6.96c-.44.37-2.64 2.21-6.07 4.85-25.08 31.26-40.76 55.66-40.76 75.53M549.027 1260.76c-8.746.63-16.738 4.86-22.504 11.91-11.988 14.65-10.554 36.93 3.196 49.66 3.922 3.62 97.828 89.25 251.769 132.43 142.035 39.86 364.212 49.69 616.012-129.76 15.18-10.82 19.2-32.77 8.98-48.92-4.97-7.87-12.53-13.15-21.27-14.87-8.42-1.65-17 .24-24.13 5.32-184.75 131.67-373.072 172.44-559.732 121.18-140.422-38.58-227.84-117.76-228.707-118.55-6.578-6.03-14.961-9.02-23.614-8.4" style="fill:#e5e4e4;fill-opacity:1;fill-rule:evenodd;stroke:none" transform="matrix(.13333 0 0 -.13333 0 257.333)"></path><path d="M1478.61 1645.86c-2.66-19.48-16.27-38.31 12.38-109.55 2.58-4.29 4-6.98 4-6.98l-4.76 7.11.97-.84-.21.71c-16.23 27.01-78.61 117.89-124.56 5.35 0 0-31.93-129.21 99.82-91.66 0 0 129.13 181.77 171.88 159.12 42.74-22.66-68.53 135.73-159.52 36.74" style="fill:#fff;fill-opacity:1;fill-rule:evenodd;stroke:none" transform="matrix(.13333 0 0 -.13333 0 257.333)"></path><path d="m1475.38 1648.83-.83-.9-.29-1.48-1.96-9.69c-1.69-7.24-3.63-15.59-3.63-27.13 0-11.2 1.93-25.54 7.6-44.68-15.25 18.76-36.41 37.66-59.22 35.91-21.36-1.65-39.76-21-54.68-57.55l-.12-.29-.08-.31c-.59-2.39-14.18-59.11 15.75-88 18.28-17.64 48.4-20.65 89.53-8.93l1.48.43.9 1.25c49.06 69.06 137.59 172.96 166.25 157.78 8.94-4.74 12.94-2.45 14.71.3 5.98 9.27-13.93 34.32-35.53 51.01-23.34 18.04-83.69 53.41-139.88-7.72" style="fill:#231f20;fill-opacity:1;fill-rule:evenodd;stroke:none" transform="matrix(.13333 0 0 -.13333 0 257.333)"></path><path d="M1583.71 1665.56c33.06-15.01 56.04-44.1 58.9-53.62-.68.26-1.31.46-2.42 1.06-44.1 23.37-159.89-135.75-176.55-159.09-37.11-10.32-63.94-8-79.6 7.1-13.29 12.81-16.58 32.83-16.58 49.59 0 15.45 2.77 27.98 3.16 29.67 13.53 33.02 29.38 50.47 47.11 51.84 30.44 2.34 60.4-43.01 69.22-57.63.03-.06.03-.09.04-.12-.05-.04-.41-.37-.41-.37l4.76-7.1 7.53 4.49s-3.3 5.77-3.82 6.67l-.03.09s-.04.09-.09.15c-13.66 34.07-17.44 55.85-17.44 71.35 0 10.71 1.8 18.43 3.36 25.13 0 0 1.33 6.64 1.79 8.92 36.7 39.24 75.17 33.62 101.07 21.87" style="fill:#e5e4e4;fill-opacity:1;fill-rule:evenodd;stroke:none" transform="matrix(.13333 0 0 -.13333 0 257.333)"></path><path d="m1490.99 1536.31.21-.71s2.37-3.58-.21.71" style="fill:#fff;fill-opacity:1;fill-rule:evenodd;stroke:none" transform="matrix(.13333 0 0 -.13333 0 257.333)"></path><path d="M1490.91 1535.7c-1.82-.82-3.68-1.65-3.68-1.65s.22-.39.45-.77c0-.01-.14-.1-.14-.1.82-1.24 3.32-5.01 7-2.69 3.67 2.33 1.51 5.93.21 8.08 0 0-1.92-1.44-3.84-2.87" style="fill:#231f20;fill-opacity:1;fill-rule:evenodd;stroke:none" transform="matrix(.13333 0 0 -.13333 0 257.333)"></path><path d="M1639.04 1607.92c-.09.04-.18.1-.27.14zM448.953 1645.86c2.66-19.48 16.274-38.31-12.379-109.55-2.578-4.29-4-6.98-4-6.98l4.762 7.11-.973-.84c.075.24.137.47.211.71 16.231 27.01 78.617 117.89 124.551 5.35 0 0 31.941-129.21-99.809-91.66 0 0-129.136 181.77-171.882 159.12-42.743-22.66 68.531 135.73 159.519 36.74" style="fill:#fff;fill-opacity:1;fill-rule:evenodd;stroke:none" transform="matrix(.13333 0 0 -.13333 0 257.333)"></path><path d="M312.301 1656.55c-21.598-16.69-41.5-41.74-35.528-51.01 1.774-2.75 5.77-5.04 14.715-.3 28.657 15.18 117.18-88.72 166.246-157.78l.899-1.25 1.476-.43c41.125-11.72 71.25-8.71 89.532 8.93 29.929 28.89 16.339 85.6 15.746 88l-.074.31-.125.29c-14.911 36.55-33.313 55.9-54.684 57.55-22.793 1.75-43.965-17.15-59.215-35.91 5.676 19.14 7.606 33.48 7.606 44.68 0 11.54-1.946 19.89-3.629 27.13l-2.207 10.9-.875 1.17c-56.188 61.13-116.543 25.76-139.883 7.72" style="fill:#231f20;fill-opacity:1;fill-rule:evenodd;stroke:none" transform="matrix(.13333 0 0 -.13333 0 257.333)"></path><path d="M343.859 1665.56c25.891 11.75 64.36 17.37 101.063-21.87l1.789-8.92c1.562-6.7 3.359-14.42 3.359-25.13 0-15.5-3.773-37.3-17.457-71.4-.039-.06-.09-.15-.09-.15l-.011-.04c-.52-.91-3.821-6.67-3.821-6.67l7.532-4.49 4.761 7.1s-.386.35-.441.39c8.762 14.53 38.789 60.07 69.289 57.73 17.731-1.37 33.578-18.82 47.109-51.84.391-1.69 3.168-14.22 3.168-29.67 0-16.76-3.304-36.78-16.582-49.59-15.664-15.1-42.496-17.42-79.609-7.1-16.656 23.34-132.441 182.46-176.543 159.09-1.117-.6-1.738-.8-2.422-1.06 2.856 9.52 25.844 38.61 58.906 53.62" style="fill:#e5e4e4;fill-opacity:1;fill-rule:evenodd;stroke:none" transform="matrix(.13333 0 0 -.13333 0 257.333)"></path><path d="M999.113 1695.91c0-17.24-13.98-31.23-31.226-31.23-17.242 0-31.223 13.99-31.223 31.23 0 17.25 13.981 31.23 31.223 31.23 17.246 0 31.226-13.98 31.226-31.23" style="fill:#fddd04;fill-opacity:1;fill-rule:evenodd;stroke:none" transform="matrix(.13333 0 0 -.13333 0 257.333)"></path><path d="M999.113 1695.91c0-17.24-13.98-31.23-31.227-31.23-17.242 0-31.222 13.99-31.222 31.23 0 17.25 13.98 31.23 31.222 31.23 17.247 0 31.227-13.98 31.227-31.23z" style="fill:none;stroke:#231f20;stroke-width:4.86681986;stroke-linecap:butt;stroke-linejoin:miter;stroke-miterlimit:2.61310005;stroke-dasharray:none;stroke-opacity:1" transform="matrix(.13333 0 0 -.13333 0 257.333)"></path><path d="M696.512 1662.59c0-17.24-13.981-31.23-31.227-31.23-17.242 0-31.222 13.99-31.222 31.23 0 17.25 13.98 31.22 31.222 31.22 17.246 0 31.227-13.97 31.227-31.22" style="fill:#fddd04;fill-opacity:1;fill-rule:evenodd;stroke:none" transform="matrix(.13333 0 0 -.13333 0 257.333)"></path><path d="M696.512 1662.59c0-17.24-13.981-31.23-31.227-31.23-17.242 0-31.223 13.99-31.223 31.23 0 17.25 13.981 31.22 31.223 31.22 17.246 0 31.227-13.97 31.227-31.22z" style="fill:none;stroke:#231f20;stroke-width:4.86681986;stroke-linecap:butt;stroke-linejoin:miter;stroke-miterlimit:2.61310005;stroke-dasharray:none;stroke-opacity:1" transform="matrix(.13333 0 0 -.13333 0 257.333)"></path><path d="M1286.08 1663.7c0-17.25-13.98-31.23-31.23-31.23-17.24 0-31.22 13.98-31.22 31.23 0 17.24 13.98 31.22 31.22 31.22 17.25 0 31.23-13.98 31.23-31.22" style="fill:#fddd04;fill-opacity:1;fill-rule:evenodd;stroke:none" transform="matrix(.13333 0 0 -.13333 0 257.333)"></path><path d="M1286.08 1663.7c0-17.25-13.98-31.23-31.23-31.23-17.24 0-31.23 13.98-31.23 31.23 0 17.24 13.99 31.22 31.23 31.22 17.25 0 31.23-13.98 31.23-31.22z" style="fill:none;stroke:#231f20;stroke-width:4.86681986;stroke-linecap:butt;stroke-linejoin:miter;stroke-miterlimit:2.61310005;stroke-dasharray:none;stroke-opacity:1" transform="matrix(.13333 0 0 -.13333 0 257.333)" data-source="https://football-logos.cc"></path><path d="m998.027 1533.9-36.754-36.76-36.757 36.76 36.757 36.76z" style="fill:#fddd04;fill-opacity:1;fill-rule:evenodd;stroke:none" transform="matrix(.13333 0 0 -.13333 0 257.333)"></path><path d="m959.805 1573.76-39.86-39.86 42.965-42.96 42.97 42.96-42.97 42.97z" style="fill:#231f20;fill-opacity:1;fill-rule:evenodd;stroke:none" transform="matrix(.13333 0 0 -.13333 0 257.333)"></path><path d="M962.91 1564.45c4.723-4.73 25.824-25.82 30.547-30.55-4.723-4.72-25.824-25.83-30.547-30.55-4.726 4.72-25.824 25.83-30.551 30.55 4.727 4.73 25.825 25.82 30.551 30.55M1186 1462.89l-25.2 45.46 45.46 25.21 25.2-45.47z" style="fill:#fddd04;fill-opacity:1;fill-rule:evenodd;stroke:none" transform="matrix(.13333 0 0 -.13333 0 257.333)"></path><path d="m1206.77 1537.4-49.3-27.34 29.45-53.13 53.15 29.45-29.46 53.14z" style="fill:#231f20;fill-opacity:1;fill-rule:evenodd;stroke:none" transform="matrix(.13333 0 0 -.13333 0 257.333)"></path><path d="M1207.19 1527.59c3.24-5.84 17.7-31.94 20.94-37.79-5.84-3.23-31.94-17.7-37.79-20.94-3.23 5.84-17.7 31.94-20.94 37.78 5.84 3.24 31.94 17.71 37.79 20.95M736.551 1462.89l25.199 45.46-45.465 25.21-25.199-45.47z" style="fill:#fddd04;fill-opacity:1;fill-rule:evenodd;stroke:none" transform="matrix(.13333 0 0 -.13333 0 257.333)"></path><path d="m712.449 1535.68-27.328-49.3 53.141-29.45 29.457 53.13-53.141 29.46z" style="fill:#231f20;fill-opacity:1;fill-rule:evenodd;stroke:none" transform="matrix(.13333 0 0 -.13333 0 257.333)"></path><path d="M718 1527.59c5.84-3.24 31.941-17.71 37.785-20.95-3.242-5.84-17.707-31.94-20.941-37.78-5.844 3.24-31.949 17.71-37.789 20.94A74556 74556 0 0 0 718 1527.59M1501.07 1493.09c12.61-11.76 32.38-11.07 44.13 1.54 11.76 12.62 11.08 32.37-1.54 44.14z" style="fill:#fddd04;fill-opacity:1;fill-rule:evenodd;stroke:none" transform="matrix(.13333 0 0 -.13333 0 257.333)"></path><path d="M1501.07 1493.09c12.61-11.76 32.37-11.07 44.13 1.54 11.76 12.62 11.08 32.37-1.54 44.14z" style="fill:none;stroke:#231f20;stroke-width:4.86681986;stroke-linecap:butt;stroke-linejoin:miter;stroke-miterlimit:2.61310005;stroke-dasharray:none;stroke-opacity:1" transform="matrix(.13333 0 0 -.13333 0 257.333)"></path><path d="M388.625 1538.46c-13.781-10.35-16.57-29.93-6.219-43.72 10.36-13.79 29.934-16.58 43.727-6.22z" style="fill:#fddd04;fill-opacity:1;fill-rule:evenodd;stroke:none" transform="matrix(.13333 0 0 -.13333 0 257.333)"></path><path d="M388.625 1538.47c-13.781-10.36-16.57-29.94-6.219-43.73 10.36-13.79 29.934-16.58 43.727-6.22z" style="fill:none;stroke:#231f20;stroke-width:4.86681986;stroke-linecap:butt;stroke-linejoin:miter;stroke-miterlimit:2.61310005;stroke-dasharray:none;stroke-opacity:1" transform="matrix(.13333 0 0 -.13333 0 257.333)"></path><path d="m1427.75 1413.28-51.17 1.79-1.78-51.17z" style="fill:#fddd04;fill-opacity:1;fill-rule:evenodd;stroke:none" transform="matrix(.13333 0 0 -.13333 0 257.333)"></path><path d="m1372.19 1415.21-1.78-51.15 8.78-.31s1.37 39.44 1.62 46.77c7.34-.25 46.78-1.63 46.78-1.63l.31 8.77-55.55 1.94z" style="fill:#231f20;fill-opacity:1;fill-rule:evenodd;stroke:none" transform="matrix(.13333 0 0 -.13333 0 257.333)"></path><path d="M498.043 1417.33v.78h51.988l-.004-51.97h-.793z" style="fill:#fddd04;fill-opacity:1;fill-rule:evenodd;stroke:none" transform="matrix(.13333 0 0 -.13333 0 257.333)"></path><path d="M493.664 1422.5h60.754v-60.77l-5.195.01c-.008-2.1-.012-6.49.023 3.6-1.07-1.06-3.609.8-3.609.8l.004 47.58h-47.598s-6.23 2.55-5.172 3.6c-1.301 0 .781.02.781.02l.004.79zM1016.55 1443.91c0-8.49-6.88-15.36-15.36-15.36h-70.237c-8.484 0-15.367 6.87-15.367 15.36 0 8.48 6.883 15.36 15.367 15.36h70.237c8.48 0 15.36-6.88 15.36-15.36M1209.47 1391.88c-2.62-8.07-11.29-12.49-19.36-9.87l-66.8 21.71c-8.07 2.62-12.49 11.29-9.86 19.36 2.62 8.07 11.28 12.49 19.36 9.86l66.8-21.7c8.06-2.62 12.48-11.29 9.86-19.36M709.578 1396.27c2.621-8.07 11.293-12.49 19.36-9.87l66.8 21.71c8.071 2.62 12.485 11.29 9.867 19.36-2.625 8.07-11.292 12.48-19.363 9.86l-66.797-21.7c-8.07-2.63-12.484-11.29-9.867-19.36M1376.9 1300.83c-4.5-7.2-13.98-9.38-21.18-4.88l-59.56 37.21c-7.2 4.5-9.38 13.98-4.89 21.18 4.5 7.19 13.98 9.38 21.18 4.88l59.56-37.22c7.2-4.5 9.39-13.97 4.89-21.17M553.777 1300.83c4.496-7.2 13.973-9.38 21.172-4.88l59.567 37.21c7.195 4.5 9.382 13.98 4.886 21.18-4.496 7.19-13.972 9.38-21.172 4.88L558.664 1322c-7.199-4.5-9.383-13.97-4.887-21.17M976.113 1695.91c0-4.54-3.683-8.22-8.218-8.22-4.547 0-8.231 3.68-8.231 8.22s3.684 8.23 8.231 8.23c4.535 0 8.218-3.69 8.218-8.23" style="fill:#231f20;fill-opacity:1;fill-rule:evenodd;stroke:none" transform="matrix(.13333 0 0 -.13333 0 257.333)"></path><path d="M976.113 1695.91c0-4.54-3.684-8.22-8.219-8.22-4.547 0-8.23 3.68-8.23 8.22s3.683 8.23 8.23 8.23c4.535 0 8.219-3.69 8.219-8.23z" style="fill:none;stroke:#231f20;stroke-width:4.86681986;stroke-linecap:butt;stroke-linejoin:miter;stroke-miterlimit:2.61310005;stroke-dasharray:none;stroke-opacity:1" transform="matrix(.13333 0 0 -.13333 0 257.333)"></path><path d="M1263.63 1663.2c0-4.55-3.68-8.22-8.22-8.22s-8.23 3.67-8.23 8.22c0 4.54 3.69 8.22 8.23 8.22a8.22 8.22 0 0 0 8.22-8.22" style="fill:#231f20;fill-opacity:1;fill-rule:evenodd;stroke:none" transform="matrix(.13333 0 0 -.13333 0 257.333)"></path><path d="M1263.63 1663.2c0-4.55-3.68-8.22-8.22-8.22s-8.23 3.67-8.23 8.22c0 4.54 3.69 8.22 8.23 8.22a8.22 8.22 0 0 0 8.22-8.22z" style="fill:none;stroke:#231f20;stroke-width:4.86681986;stroke-linecap:butt;stroke-linejoin:miter;stroke-miterlimit:2.61310005;stroke-dasharray:none;stroke-opacity:1" transform="matrix(.13333 0 0 -.13333 0 257.333)"></path><path d="M673.176 1663.4a8.22 8.22 0 0 0-8.223-8.22c-4.539 0-8.223 3.68-8.223 8.22a8.222 8.222 0 1 0 16.446 0" style="fill:#231f20;fill-opacity:1;fill-rule:evenodd;stroke:none" transform="matrix(.13333 0 0 -.13333 0 257.333)"></path><path d="M673.176 1663.4a8.22 8.22 0 0 0-8.223-8.22c-4.539 0-8.223 3.68-8.223 8.22a8.222 8.222 0 1 0 16.446 0z" style="fill:none;stroke:#231f20;stroke-width:4.86681986;stroke-linecap:butt;stroke-linejoin:miter;stroke-miterlimit:2.61310005;stroke-dasharray:none;stroke-opacity:1" transform="matrix(.13333 0 0 -.13333 0 257.333)"></path><path d="M833.781 1229.94H448.488c-.133-1.55-.269-3.31-.414-5.21h385.707zM1277.45 1229.94h-62.74v-5.21h62.74zM1086.99 1229.94h-62.74v-5.21h62.74zM896.523 1224.73v5.21h-62.742v-5.21zM1467.92 1229.94h-62.74v-5.21h62.74z" style="fill:#fff;fill-opacity:1;fill-rule:evenodd;stroke:none" transform="matrix(.13333 0 0 -.13333 0 257.333)"></path><path d="M1484.87 1251.88H434.816l-1.253-9.53c-.821-6.23-19.399-154.94 35.632-372.28 50.692-200.203 176.516-497.757 488.098-778.414l7.348-6.617 7.375 6.617C1283.6 372.313 1409.43 669.867 1460.12 870.07c55.03 217.34 36.45 366.05 35.63 372.28l-1.25 9.53z" style="fill:#231f20;fill-opacity:1;fill-rule:evenodd;stroke:none" transform="matrix(.13333 0 0 -.13333 0 257.333)"></path><path d="M1477.23 1168.9c0 29.07-1.34 49.83-2.29 61.04h-1.13v-144.51c2.55 32.34 3.42 60.49 3.42 83.47M1220.61 404.738c22.93 32.95 43.78 65.551 62.73 97.625v573.117h-62.73zM1030.14 177.449a1779 1779 0 0 1 62.74 66.293v831.738h-62.74zM1411.07 780.883c11.02 33.027 20.09 64.324 27.5 93.5 19.44 76.512 29.48 144.797 34.41 201.097h-61.91zM1411.07 1237.9H453.965c-.891-11.91-1.883-30.76-1.883-55.83 0-25.31 1.055-56.87 4.254-93.43H1472.98c.29 3.36.57 6.69.83 9.96v139.3z" style="fill:#fff;fill-opacity:1;fill-rule:evenodd;stroke:none" transform="matrix(.13333 0 0 -.13333 0 257.333)"></path><path d="M657.605 869.348c-.578 0-1.05-.469-1.05-1.055a1.054 1.054 0 1 1 1.05 1.055" style="fill:#e01e25;fill-opacity:1;fill-rule:evenodd;stroke:none" transform="matrix(.13333 0 0 -.13333 0 257.333)"></path><path d="M839.672 1075.48H456.336c4.922-56.3 14.969-124.589 34.41-201.097 42.117-165.781 136.902-399.453 348.926-634.207 19.863-21.992 40.762-43.988 62.742-65.953v901.257zm-31.535-104.57c-.008-.18-.032-.34-.043-.523a18 18 0 0 0-.121-1.586c-1.422-25.774-10.207-44.617-26.254-55.922-15.356-10.824-33.844-12.07-47.598-10.953L720.52 425.965l-13.7 479.316c-16.808-.207-29.879-4.367-38.84-12.508a37.7 37.7 0 0 1-4.375-4.71c8.477-2.575 14.661-10.461 14.661-19.77 0-11.387-9.266-20.652-20.661-20.652-5.816 0-11.078 2.425-14.835 6.32-5.579.504-9.922 5.133-9.868 10.816.012 1.039.473 25.629 20.141 43.766 12.973 11.965 30.844 18.109 53.156 18.453l-1.859 64.961a139 139 0 0 0-.902 15.913c0 27.49 7.652 49.77 17.082 49.77s17.082-22.28 17.082-49.77c0-5.56-.329-10.89-.903-15.882l-1.957-68.324c10.215-.992 24.012-.449 34.547 7.012 6.41 4.543 11.016 11.414 13.852 20.465-9.309 1.996-16.317 10.289-16.317 20.191 0 11.387 9.27 20.656 20.656 20.656 11.395 0 20.661-9.269 20.661-20.656 0-.102-.012-.199-.012-.297 0-.043.008-.082.008-.125" style="fill:#e01e25;fill-opacity:1;fill-rule:evenodd;stroke:none" transform="matrix(.13333 0 0 -.13333 0 257.333)"></path><path d="m659.41 1212.05-14.039-27.69-2.414 1.37c.055.57.086 1.04.086 1.38 0 1.95-1.668 4.05-4.996 6.28-10.223 7.13-22.231 10.69-36.004 10.69q-9.211 0-16.242-2.25c-3.422-1.15-6.192-2.88-8.305-5.18-2.109-2.3-3.164-4.81-3.164-7.51 0-4.43 2.668-7.46 8.02-9.07 2.761-.8 8.679-1.67 17.765-2.59l13.543-1.38q12.072-1.305 19.531-3.54c4.973-1.5 9.391-3.6 13.243-6.3 3.91-2.82 6.996-6.54 9.269-11.14 2.27-4.61 3.406-9.53 3.406-14.77 0-8.29-2.679-15.65-8.027-22.1-4.836-5.87-12.352-10.22-22.543-13.04-7.598-2.13-15.746-3.19-24.437-3.19-15.606 0-31 3.73-46.2 11.21q-4.834 2.25-5.785 2.25c-.754 0-1.933-.63-3.543-1.9l-2.504 1.3 12.782 28.87 2.5-1.21v-1.11c0-2.59 1.238-4.98 3.714-7.16 3.739-3.33 9.528-6.2 17.356-8.61 7.824-2.41 15.254-3.62 22.277-3.62 7.656 0 14.188 1.3 19.602 3.91 2.988 1.44 5.379 3.37 7.16 5.77q2.679 3.6 2.68 7.5c0 3.94-2.102 6.74-6.293 8.42-2.938 1.16-8.86 2.23-17.778 3.21l-13.285 1.39c-8.918.92-15.215 1.8-18.89 2.63q-5.525 1.245-11.043 4.02c-5.239 2.58-9.348 6.46-12.336 11.64q-4.055 6.99-4.055 16.05c0 9.94 3.437 18.17 10.312 24.67 9.02 8.57 22.543 12.86 40.575 12.86 7.523 0 14.527-.77 21.019-2.3 6.492-1.54 14.586-4.35 24.293-8.45 3.332-1.33 5.371-2 6.117-2 1.203 0 2.61.67 4.219 2zM714.438 1130.27c3.964 0 7.312-1.38 10.039-4.13 2.726-2.76 4.093-6.12 4.093-10.08 0-3.85-1.394-7.16-4.183-9.91-2.785-2.76-6.098-4.13-9.949-4.13q-5.861 0-9.993 4.17c-2.761 2.79-4.132 6.13-4.132 10.04 0 3.85 1.363 7.14 4.089 9.86 2.723 2.73 6.071 4.12 10.036 4.18M887.078 1144.52l16.34-24.54-2.234-1.55q-2.41 2.25-3.957 2.25c-1.032 0-3.926-1.39-8.68-4.15-9.859-5.7-18.156-9.55-24.887-11.54q-10.096-2.97-24.019-2.97c-18.512 0-33.696 4.4-45.555 13.21-6.988 5.13-12.492 11.49-16.5 19.1-4.645 8.7-6.961 18.29-6.961 28.77 0 14.29 4.156 26.7 12.465 37.24 12.488 15.84 31.367 23.77 56.637 23.77 9.281 0 17.246-.98 23.89-2.93 6.649-1.96 14.957-5.8 24.93-11.55 4.754-2.7 7.648-4.04 8.68-4.04 1.031 0 2.351.75 3.957 2.23l2.234-1.55-16.34-24.54-2.32 1.54c.109.91.172 1.68.172 2.31 0 1.65-.723 3.21-2.153 4.66-1.433 1.46-3.984 3.21-7.652 5.27-10.152 5.71-20.898 8.57-32.25 8.57-13.422 0-24.113-3.37-32.082-10.1-9.406-7.89-14.105-18.2-14.105-30.92s4.699-23.03 14.105-30.92c7.969-6.73 18.66-10.1 32.082-10.1 11.352 0 22.098 2.87 32.25 8.62 3.668 2.06 6.219 3.83 7.652 5.29 1.43 1.47 2.153 3.03 2.153 4.7 0 .63-.063 1.37-.172 2.24zM958.828 1130.27c3.961 0 7.309-1.38 10.035-4.13q4.095-4.14 4.094-10.08c0-3.85-1.394-7.16-4.18-9.91-2.785-2.76-6.101-4.13-9.949-4.13q-5.864 0-10 4.17c-2.754 2.79-4.133 6.13-4.133 10.04 0 3.85 1.364 7.14 4.094 9.86 2.727 2.73 6.074 4.12 10.039 4.18M1075.79 1138.31l31 69.21c1.32 2.94 1.99 5.2 1.99 6.82 0 2.46-1.9 4.08-5.69 4.83v2.74h40.33v-2.74c-2.53-.35-4.28-1.07-5.26-2.16-.97-1.09-2.66-4.26-5.07-9.49l-40.7-88.06c-1.72-3.74-2.58-6.18-2.58-7.33 0-2.93 1.81-4.66 5.42-5.18v-2.74h-40.47v2.74c3.62.52 5.43 2.27 5.43 5.26 0 1.1-.86 3.51-2.58 7.25l-40.76 88.06c-2.42 5.23-4.11 8.4-5.08 9.49-.98 1.09-2.74 1.81-5.26 2.16v2.74h41.85v-2.74c-3.79-.75-5.69-2.37-5.69-4.83 0-1.62.66-3.88 1.99-6.82zM1175.82 1130.27c3.97 0 7.31-1.38 10.04-4.13 2.73-2.76 4.09-6.12 4.09-10.08 0-3.85-1.39-7.16-4.17-9.91-2.8-2.76-6.1-4.13-9.96-4.13q-5.85 0-9.99 4.17c-2.76 2.79-4.13 6.13-4.13 10.04 0 3.85 1.36 7.14 4.09 9.86 2.72 2.73 6.07 4.12 10.03 4.18M1266.03 1202.43h39.51c5.96 0 10.1-.16 12.41-.47 2.33-.32 4.52-1.05 6.58-2.19 4.35-2.35 6.52-6.58 6.52-12.7s-2.17-10.36-6.52-12.7c-2.01-1.09-4.21-1.81-6.62-2.16-2.4-.33-6.53-.51-12.37-.51h-39.51zm30.98-50.21 23.78-34.66c2.71-3.97 4.07-6.47 4.07-7.51 0-1.6-1.47-2.64-4.41-3.1v-2.74h42.71v2.74c-2.71.18-4.99 1.08-6.86 2.71-1.87 1.64-4.81 5.31-8.83 11l-22.84 32.39c21.29 3.28 31.94 14.54 31.94 33.78q0 8.46-3.18 15.9c-2.24 5.13-5.62 9.18-10.15 12.18-3.9 2.59-8.48 4.41-13.72 5.45-5.25 1.03-12.35 1.55-21.3 1.55h-73.47v-2.74c2.06-.58 3.49-1.33 4.29-2.24.8-.93 1.2-2.27 1.2-4.06v-99.71c0-1.72-.4-3.05-1.2-3.96-.8-.93-2.23-1.67-4.29-2.25v-2.74h36.77v2.74c-2 .52-3.42 1.25-4.25 2.2s-1.24 2.29-1.24 4.01v39.06zM1414.87 1130.27c3.96 0 7.31-1.38 10.04-4.13 2.73-2.76 4.09-6.12 4.09-10.08 0-3.85-1.39-7.16-4.18-9.91-2.78-2.76-6.1-4.13-9.95-4.13q-5.865 0-9.99 4.17c-2.76 2.79-4.14 6.13-4.14 10.04 0 3.85 1.37 7.14 4.09 9.86 2.73 2.73 6.08 4.12 10.04 4.18" style="fill:#231f20;fill-opacity:1;fill-rule:evenodd;stroke:none" transform="matrix(.13333 0 0 -.13333 0 257.333)" data-source="https://football-logos.cc"></path><!-- source: https://football-logos.cc --></svg>