<svg xmlns="http://www.w3.org/2000/svg" viewBox="23.88 99.76 547.51 642.37"><!-- Source: https://football-logos.cc --><path d="m75.673 325.887 29.818-17.916 10.527 17.521c1.678 2.791 2.522 5.295 2.542 7.506.019 2.211-.437 4.007-1.358 5.392q-1.396 2.073-3.066 3.08-2.504 1.504-5.293 1.242c-1.852-.168-3.531-.955-5.026-2.345.244 1.331.323 2.434.221 3.316-.099.87-.524 1.76-1.286 2.656q-1.141 1.342-3.85 2.97-2.532 1.522-3.527 2.218c-.663.465-1.117.901-1.35 1.327-.242.429-.281.945-.133 1.568l-.789.474-4.82-8.02c1.185-1.402 3.037-2.865 5.564-4.383q2.305-1.383 3.232-2.38c.624-.671.874-1.51.766-2.52-.111-1.016-.695-2.395-1.748-4.15l-4.491-7.473-11.67 7.012zm20.958-2.936 5.1 8.487c1.15 1.915 2.319 3.14 3.495 3.67 1.171.523 2.492.353 3.939-.516 1.03-.62 1.722-1.539 2.06-2.749q.507-1.816-1.202-4.665l-5.419-9.018zm45.112 45.354-5.274 3.17-11.05-18.39-6.27 3.767 10.15 16.894-5.274 3.169-10.15-16.894-7.725 4.641 11.547 19.219-5.274 3.17-15.81-26.315 29.817-17.916zm-25.786 24.626 29.817-17.916 10.122 16.845c1.58 2.63 2.453 4.975 2.614 7.046s-.138 3.784-.907 5.122c-.765 1.346-1.748 2.375-2.939 3.09-1.862 1.119-3.457 1.52-4.79 1.214q-2.008-.468-3.862-1.785c.993 4.254-.343 7.487-4.018 9.695a8.8 8.8 0 0 1-3.83 1.23 10 10 0 0 1-4.108-.533c-1.112-.394-2.081-.862-2.912-1.414-.833-.54-1.76-1.44-2.791-2.67-1.025-1.235-2.216-2.982-3.58-5.251zm17.3-.935-7.974 4.791 5.336 8.881q3.336 5.55 7.696 2.931 1.828-1.096 1.816-3.139-.014-2.044-1.34-4.253zm11.544-6.937-6.52 3.918 5.105 8.495c.918 1.528 1.934 2.593 3.047 3.205 1.112.613 2.228.589 3.356-.09 1.163-.698 1.714-1.631 1.662-2.815-.048-1.176-.598-2.641-1.656-4.403zm6.07 32.222c3.266-1.963 6.316-2.985 9.161-3.063 2.846-.078 5.362.457 7.533 1.594 2.177 1.144 3.995 2.494 5.454 4.059 1.454 1.557 2.648 3.106 3.562 4.626.923 1.537 1.73 3.318 2.417 5.325.688 2.006 1.032 4.242 1.023 6.688-.01 2.46-.717 4.92-2.124 7.408q-2.116 3.722-7.015 6.668c-3.254 1.955-6.315 2.973-9.167 3.055-2.858.075-5.374-.46-7.548-1.618q-3.27-1.73-5.456-4.079-2.18-2.337-3.526-4.582c-.894-1.488-1.686-3.246-2.384-5.269-.702-2.03-1.044-4.278-1.038-6.745.001-2.475.71-4.948 2.115-7.423 1.404-2.476 3.739-4.69 6.992-6.644m4.35 7.24q-2.96 1.779-4.483 3.876-1.524 2.1-1.869 4.211c-.228 1.407-.18 2.758.136 4.035a12.9 12.9 0 0 0 1.45 3.542 13.1 13.1 0 0 0 2.444 2.955c.972.882 2.142 1.559 3.499 2.013 1.361.463 2.896.57 4.607.33q2.568-.36 5.527-2.137 2.969-1.785 4.502-3.888 1.524-2.099 1.876-4.215c.229-1.407.185-2.75-.142-4.031a13.2 13.2 0 0 0-1.466-3.554 12.9 12.9 0 0 0-2.447-2.942c-.99-.895-2.147-1.568-3.497-2.027s-2.88-.558-4.59-.318q-2.58.366-5.547 2.15m4.239 40.811 29.817-17.916 10.528 17.52q2.514 4.19 2.542 7.507c.019 2.21-.438 4.007-1.358 5.392-.932 1.38-1.952 2.41-3.066 3.08q-2.505 1.504-5.293 1.242c-1.853-.168-3.531-.955-5.026-2.345.244 1.331.322 2.434.221 3.316-.099.87-.525 1.76-1.286 2.656q-1.141 1.342-3.85 2.97-2.532 1.522-3.527 2.218c-.664.464-1.117.901-1.351 1.327-.241.429-.28.945-.132 1.568l-.789.474-4.82-8.02q1.775-2.104 5.563-4.383 2.307-1.383 3.233-2.38c.624-.671.873-1.51.766-2.52-.111-1.016-.695-2.396-1.749-4.15l-4.49-7.473-11.67 7.012zm20.958-2.936 5.1 8.487c1.15 1.915 2.319 3.14 3.495 3.67 1.171.523 2.492.353 3.938-.516 1.032-.62 1.723-1.539 2.06-2.749q.509-1.816-1.201-4.665l-5.419-9.018zm-.019 37.785 29.818-17.916 9.193 15.3c1.663 2.768 2.612 5.351 2.846 7.762q.349 3.614-.853 6.435c-.8 1.883-1.888 3.522-3.26 4.905a23 23 0 0 1-4.467 3.526 24.8 24.8 0 0 1-5.754 2.528c-2.047.606-4.18.835-6.408.686-2.235-.146-4.401-.882-6.506-2.19-2.098-1.312-3.96-3.314-5.589-6.025zm28.932-7.727-19.519 11.728 4.234 7.047q1.654 2.751 4.139 3.69 2.489.92 5.228.329 2.754-.591 5.37-2.165 4.029-2.418 5.401-4.932c.914-1.677 1.229-3.223.953-4.623q-.413-2.098-1.63-4.123zm5.982 32.078c3.266-1.963 6.317-2.986 9.162-3.064s5.361.457 7.533 1.594c2.176 1.145 3.995 2.494 5.453 4.06 1.454 1.556 2.649 3.105 3.562 4.625.924 1.537 1.73 3.319 2.418 5.325.687 2.007 1.032 4.242 1.023 6.688-.011 2.46-.718 4.92-2.125 7.408q-2.115 3.722-7.015 6.668c-3.253 1.955-6.315 2.973-9.167 3.056-2.857.074-5.374-.462-7.547-1.618-2.182-1.153-3.998-2.514-5.457-4.08-1.454-1.557-2.626-3.086-3.526-4.582-.894-1.488-1.686-3.246-2.384-5.268-.701-2.031-1.044-4.278-1.038-6.745.001-2.475.71-4.949 2.115-7.424s3.74-4.689 6.993-6.643m4.35 7.24q-2.96 1.778-4.483 3.875-1.524 2.1-1.868 4.211c-.229 1.407-.18 2.758.135 4.035.32 1.286.802 2.464 1.45 3.542a13 13 0 0 0 2.444 2.955c.973.882 2.143 1.559 3.5 2.014 1.36.463 2.895.57 4.606.33q2.568-.36 5.527-2.138 2.97-1.784 4.503-3.888 1.522-2.098 1.876-4.215c.228-1.407.185-2.75-.143-4.031a13.2 13.2 0 0 0-1.466-3.554 12.9 12.9 0 0 0-2.446-2.942c-.99-.895-2.148-1.567-3.497-2.026-1.35-.46-2.88-.559-4.591-.319q-2.578.368-5.547 2.15m12.344 33.51 4.181 6.958q-1.79 1.14-2.344 3.61c-.38 1.64.267 3.846 1.93 6.613q4.35 7.24 8.213 4.92 1.579-.947 1.415-2.865c-.117-1.277-.615-3.156-1.482-5.635l-1.493-4.161c-.995-2.786-1.681-5.056-2.043-6.787a9.7 9.7 0 0 1 .293-5.126c.561-1.683 1.865-3.135 3.9-4.357 1.384-.832 2.984-1.29 4.801-1.385q2.726-.144 6.002 1.945c2.184 1.392 4.31 3.804 6.38 7.247 1.508 2.51 2.489 4.832 2.931 6.964q.67 3.212.122 5.643-.556 2.438-1.806 4.096c-.83 1.112-1.754 1.973-2.768 2.605l-4.181-6.959a7.2 7.2 0 0 0 1.611-1.833c.439-.712.607-1.733.507-3.075q-.152-1.994-1.885-4.878c-.976-1.625-2.106-2.862-3.4-3.716-1.295-.853-2.565-.912-3.797-.172q-1.537.922-1.545 2.32-.003 1.38.632 3.232l3.292 9.508q1.671 4.827 1.38 8.27-.288 3.425-3.942 5.62-3.125 1.878-6.072 1.513c-1.957-.247-3.718-.92-5.272-2.033-1.556-1.1-2.882-2.32-3.985-3.638q-1.645-1.984-2.638-3.637c-1.78-2.961-2.942-5.634-3.497-8.016-.556-2.382-.638-4.401-.261-6.062.38-1.673 1.006-3.046 1.88-4.13.875-1.084 1.854-1.946 2.941-2.6m21.794 43.138-7.596 1.28-4.582-7.626 37.237-5.568 5.022 8.358-22.48 30.128-4.723-7.86 4.808-5.92zm20.77-3.797-14.455 2.642 5.302 8.825 9.211-11.37zM489.264 309.442l5.194 3.121-10.736 17.869 6.176 3.71 9.863-16.414 5.194 3.12-9.863 16.416 7.608 4.57 11.22-18.673 5.195 3.121-15.363 25.568-29.367-17.645zM455.94 376.39l6.422 3.858 4.96-8.254c.892-1.485 1.338-2.845 1.348-4.083.012-1.238-.53-2.19-1.64-2.858-1.146-.689-2.209-.742-3.207-.16-.994.572-2.003 1.71-3.031 3.422zm11.37 6.832 7.854 4.719 5.185-8.63q3.241-5.393-1.054-7.974c-1.2-.72-2.384-.773-3.557-.148q-1.76.938-3.05 3.083zm8.867 14.52-29.367-17.646 9.835-16.368c1.536-2.556 3.155-4.37 4.87-5.447 1.713-1.077 3.332-1.594 4.846-1.535 1.519.051 2.865.435 4.038 1.14 1.834 1.101 2.923 2.299 3.28 3.588q.531 1.947.257 4.143c3.213-2.783 6.628-3.092 10.247-.917a8.76 8.76 0 0 1 2.846 2.752 9.9 9.9 0 0 1 1.454 3.789c.178 1.139.225 2.188.135 3.156-.078.963-.423 2.171-1.006 3.619q-.882 2.164-2.868 5.468zM435.44 399.02l19.1 11.477c3.757 2.257 5.808 5.128 6.168 8.621q.538 5.239-3.437 11.85-1.704 2.835-4.255 5.274c-1.696 1.619-3.614 2.711-5.735 3.277-2.62.67-5.519.12-8.689-1.646l-19.469-11.698 4.312-7.176 19.06 11.453q2.913 1.75 5.418.957 2.5-.796 4.079-3.421 4.087-6.8-1.524-10.172l-19.34-11.62ZM399.081 459.53l24.05 14.452 10.06-16.744 5.318 3.195-14.287 23.778-29.368-17.646zM394.03 489.71l-4.232 7.042c-1.685-.406-3.317-.408-4.9.002-1.583.411-3.135 1.883-4.652 4.408-1.301 2.165-1.682 4.574-1.14 7.209.549 2.638 2.675 5.075 6.39 7.307 1.848 1.11 3.698 1.829 5.57 2.156q2.798.486 5.274-.576c1.653-.699 3.052-2.007 4.193-3.907.784-1.305 1.273-2.597 1.468-3.863a7.43 7.43 0 0 0-.35-3.678c-.43-1.184-1.146-2.263-2.16-3.233l4.233-7.043q2.813 2.68 4.142 6c.883 2.221 1.162 4.613.852 7.182q-.482 3.86-2.948 7.963c-1.812 3.017-4 5.33-6.58 6.951-2.567 1.617-5.408 2.378-8.513 2.279q-4.658-.15-9.567-3.1c-3.32-1.995-5.739-4.363-7.264-7.12-1.53-2.75-2.174-5.647-1.933-8.704q.347-4.581 2.992-8.98c1.433-2.383 3.021-4.301 4.76-5.745 1.734-1.448 3.47-2.438 5.21-2.987 1.736-.543 3.39-.762 4.95-.643 1.567.111 2.971.476 4.205 1.08zM361.032 575.85l5.972 3.588-4.227 7.034-5.972-3.588zM320.743 604.932l9.016 11.29 5.153-8.574-14.113-2.81zm12.956 16.222 4.645 5.982-4.453 7.41-22.158-29.644 4.88-8.121 36.497 5.78-4.589 7.637-7.354-1.473z" style="fill:#4e3f9f;fill-rule:evenodd" data-source="https://football-logos.cc"></path><path d="M132.58 446.724c-2.337 3.951-4.632 7.98-6.787 12.018a221 221 0 0 0-5.345 10.677 2381 2381 0 0 1 15.898 10.17c5.948 3.828 11.897 7.656 17.644 11.278l1.612 1.016-.624 1.799a183 183 0 0 0-3.843 12.59 239 239 0 0 0-2.971 12.469l-.352 1.665-1.69.226-40.574 5.429c-.2 6.728-.39 14.6-.312 21.88.074 6.99.39 13.438 1.17 17.773 6.376.76 12.738 1.535 19.1 2.309 6.93.844 13.862 1.688 20.812 2.513l1.832.217.267 1.835c.606 4.16 1.4 8.293 2.457 12.374a91 91 0 0 0 4.059 12.167l.704 1.693-1.457 1.13-31.95 24.787a198 198 0 0 0 9.012 17.408c3.232 5.566 6.713 10.981 10.396 16.274l35.718-17.965 1.793-.903 1.209 1.608a112 112 0 0 0 8.54 10.078c3 3.142 6.137 6.056 9.403 8.746l1.363 1.122-.657 1.626-15.121 37.428a148.5 148.5 0 0 0 16.262 11.254 150.5 150.5 0 0 0 17.493 8.95l22.883-32.75 1.122-1.607 1.796.778a107 107 0 0 0 11.886 4.322c4.1 1.225 8.357 2.233 12.777 3.01l1.684.294.274 1.7c1.083 6.725 2.38 14.032 3.675 21.338 1.124 6.336 2.248 12.673 3.362 19.482 6.265.286 12.496.412 18.68.395a422 422 0 0 0 18.528-.468c.996-6.184 1.931-12.568 2.866-18.95 1.006-6.867 2.013-13.735 3.198-20.944l.29-1.767 1.78-.228a115 115 0 0 0 11.934-2.176 110 110 0 0 0 11.343-3.336l1.702-.603 1.055 1.478 23.36 32.746a164 164 0 0 0 19.181-9.151 160 160 0 0 0 18.04-11.752l-17.012-35.74-.821-1.726 1.499-1.191c4.261-3.389 8.319-6.92 12.112-10.63 3.805-3.724 7.355-7.633 10.593-11.766l1.197-1.529 1.74.842c6.249 3.025 12.593 6.088 18.937 9.15 5.72 2.761 11.44 5.524 17.093 8.258a246 246 0 0 0 11.572-18.49 213 213 0 0 0 9.286-18.467l-33.263-22.688-1.539-1.05.635-1.755a152 152 0 0 0 4.022-12.88 161 161 0 0 0 3.14-14.672l.302-1.809 1.834-.186c6.761-.686 13.811-1.356 20.86-2.025 6.262-.595 12.527-1.19 18.89-1.829.677-6.771.868-13.6.648-20.456-.221-6.86-.857-13.797-1.833-20.77l-39.005-1.356-1.99-.069-.307-1.964c-1.202-7.684-3.7-13.92-6.581-21.112-.208-.519-.428-1.067-1.152-2.895l-.662-1.67 1.405-1.107c5.608-4.416 11.223-9.226 16.837-14.034 5.23-4.48 10.462-8.96 15.581-13.05a101 101 0 0 0-3.967-8.576 122 122 0 0 0-6.393-10.856l4.01-2.635c2.58 3.915 4.783 7.666 6.655 11.27a104 104 0 0 1 4.838 10.716l.633 1.65-1.395 1.099c-5.608 4.416-11.223 9.225-16.837 14.034-5.23 4.48-10.46 8.96-15.58 13.049l.488 1.217c2.744 6.849 5.152 12.86 6.526 20.201l39.067 1.357 2.01.07.295 1.982c1.155 7.754 1.907 15.532 2.157 23.298.25 7.768-.007 15.471-.872 23.065l-.22 1.93-1.936.197c-6.763.686-13.81 1.356-20.859 2.025-6.304.6-12.607 1.198-19.015 1.841a165 165 0 0 1-2.923 13.293 156 156 0 0 1-3.528 11.533l33.383 22.77 1.64 1.118-.784 1.818c-2.997 6.954-6.45 13.868-10.322 20.732-3.934 6.973-8.275 13.83-12.985 20.567l-1.175 1.68-1.837-.89c-6.25-3.024-12.594-6.087-18.937-9.15-5.76-2.78-11.522-5.562-17.213-8.315a126 126 0 0 1-9.795 10.714c-3.491 3.416-7.168 6.661-10.994 9.768l17.033 35.784.833 1.75-1.539 1.187a165 165 0 0 1-20.167 13.322 169 169 0 0 1-21.535 10.116l-1.74.674-1.084-1.52-23.404-32.81a115 115 0 0 1-10.12 2.897 119 119 0 0 1-10.657 2.009c-1.006 6.235-1.95 12.676-2.894 19.115-1.005 6.867-2.012 13.735-3.197 20.944l-.316 1.915-1.934.1c-6.82.348-13.729.543-20.71.562-6.963.02-13.921-.136-20.85-.488l-1.949-.099-.31-1.925c-1.084-6.724-2.38-14.031-3.675-21.337-1.138-6.412-2.275-12.823-3.402-19.725a117 117 0 0 1-11.64-2.833 112 112 0 0 1-10.607-3.765l-22.889 32.758-1.11 1.59-1.78-.743a156 156 0 0 1-19.885-10.023 153.4 153.4 0 0 1-18.207-12.76l-1.377-1.121.661-1.637 15.135-37.462a112 112 0 0 1-8.478-8.005 116 116 0 0 1-7.674-8.91l-35.797 18.005-1.852.932-1.198-1.694c-4.19-5.924-8.15-12.02-11.813-18.329-3.67-6.321-7.034-12.836-10.023-19.585l-.758-1.713 1.492-1.158 32.01-24.832a97 97 0 0 1-3.579-11.102 119 119 0 0 1-2.29-11.065c-6.34-.756-12.667-1.527-18.993-2.297-6.931-.843-13.863-1.688-20.813-2.512l-1.656-.197-.396-1.63c-1.125-4.634-1.553-12.232-1.64-20.486-.087-8.147.152-16.932.375-24.094l.063-2.044 2.026-.271 40.915-5.475c.805-3.699 1.684-7.389 2.67-11.066a189 189 0 0 1 3.342-11.107c-5.556-3.514-10.817-6.9-16.078-10.285-5.948-3.828-11.895-7.655-17.644-11.278l-1.774-1.119.861-1.903c1.956-4.32 4.107-8.62 6.366-12.854a318 318 0 0 1 6.881-12.206z" style="fill:#243030;fill-rule:evenodd"></path><path d="M203.362 559.462a56 56 0 0 0-3.738 7.705c-5.767 14.776-2.891 28.305 4.238 39.777 7.276 11.707 18.949 21.33 30.5 28.035 4.715 2.737 9.407 4.985 13.77 6.688 15.747 6.146 33.28 9.231 50.79 9.18 17.34-.05 34.656-3.183 50.182-9.47a101 101 0 0 0 13.705-6.838c11.977-7.145 23.353-17.176 30.183-29.145 6.71-11.76 9.009-25.45 3.055-40.151a58 58 0 0 0-3.963-7.928l4.123-2.466c1.735 2.91 3.162 5.773 4.3 8.586 6.585 16.26 4.06 31.368-3.336 44.33-7.277 12.753-19.288 23.374-31.896 30.897-4.793 2.86-9.656 5.27-14.363 7.175-16.082 6.513-34.022 9.758-51.99 9.81-18.106.053-36.244-3.14-52.54-9.5-4.573-1.785-9.49-4.14-14.43-7.008-12.142-7.049-24.444-17.215-32.174-29.654-7.877-12.674-11.041-27.653-4.634-44.069a60.5 60.5 0 0 1 4.058-8.363z" style="fill:#243030;fill-rule:evenodd"></path><path d="m38.936 280.377 258.761 425.984 258.65-425.73Zm255.14 436.33L27.788 278.33l-3.907-6.432 7.527.004 532.463.262 7.524.004-3.903 6.424-266.175 438.113-3.62 5.96z" style="fill:#483e8e;fill-rule:evenodd"></path><path d="m104.778 275.764 192.77 317.422 195.075-319.09 6.341 3.893-197.627 323.664-3.64 5.961-3.618-5.977L98.403 278.348Z" style="fill:#483e8e;fill-rule:evenodd"></path><path d="M297.5 293.442h.001c18.686 0 33.975 15.289 33.975 33.974v75.335h8.887v19.35h-8.887v85.167h-20.59v-85.167h-26.55v85.167h-20.81v-85.167h-8.663v-19.35h8.663v-75.335c0-18.685 15.289-33.974 33.975-33.974m-13.164 109.31h26.55V327.15c0-7.301-5.974-13.275-13.275-13.275s-13.275 5.974-13.275 13.275z" style="fill:none"></path><path d="M359.385 293.442h42.036c8.574 0 15.59 7.026 15.59 15.593v21.417h-20.55v-5.965c0-2.802-2.554-6.472-5.355-6.479l-12.926-.03c-3.958-.008-5.844 2.867-5.843 5.476l.051 93.12 44.623-69.922v43.585l-42.74 68.919c-4.53 7.306-9.024 7.05-14.886 7.05-6.236 0-11.338-5.101-11.338-11.336V304.779c0-6.236 5.102-11.337 11.338-11.337" style="fill:#483e8e;fill-rule:evenodd"></path><path d="M205.491 357.88h12.378c7.795 0 13.039-6.377 13.039-14.172v-17.374c0-4.677-2.695-8.504-7.37-8.504H205.49zm-24.96-64.438h57.793c8.59 0 15.62 7.03 15.62 15.621v41.392c0 7-3.375 16.1-12.6 20.85 10.95 6 12.6 14.85 12.6 22.2v74.163h-23.286l.124-74.213c.013-7.412-5.735-13.924-12.544-13.887l-12.607.07.063 22.569h-25.162z" style="fill:#fff;fill-rule:evenodd"></path><path d="M310.886 327.151v75.6h-13.24v19.35h13.24v85.167h20.59v-85.167h8.887v-19.35h-8.887v-75.335c0-18.637-15.21-33.895-33.83-33.973v20.433c7.285.02 13.24 5.985 13.24 13.275M297.645 313.876h-.034zm0 88.875V293.443h-.144c-18.686 0-33.975 15.288-33.975 33.973v75.335h-8.663v19.35h8.663v85.167h20.81v-85.167h13.31z" style="fill:#483e8e;fill-rule:evenodd"></path><path d="M284.336 402.751v-75.6c0-7.301 5.974-13.275 13.275-13.275h.034v-20.433h-.144c-18.686 0-33.975 15.288-33.975 33.973v75.335h-8.663v19.35h8.663v85.167h20.81v-85.167h13.31v-19.35z" style="fill:#fff;fill-rule:evenodd"></path><path d="M297.645 313.876v88.875h13.24v-75.6c0-7.29-5.954-13.256-13.24-13.275" style="fill:#fff;fill-rule:evenodd"></path><path d="M310.886 422.101h-13.24v170.926l191.002-312.429-191.003-.093v12.937c18.621.079 33.831 15.336 33.831 33.974v75.335h8.887v19.35h-8.887v85.167h-20.59zm37.16 32.769V304.779c0-6.236 5.103-11.337 11.339-11.337h42.036c8.574 0 15.59 7.026 15.59 15.593v21.417h-20.55v-5.965c0-2.802-2.554-6.472-5.355-6.479l-12.926-.03c-3.958-.008-5.844 2.867-5.843 5.476l.051 93.12 44.623-69.922v43.585l-42.74 68.919c-4.53 7.306-9.024 7.05-14.886 7.05-6.236 0-11.338-5.101-11.338-11.336" style="fill:#fff;fill-rule:evenodd"></path><path d="M263.526 402.752v-75.336c0-18.685 15.289-33.974 33.975-33.974h.144v-12.937l-190.044-.094 72.93 120.092v-107.06h57.793c8.59 0 15.62 7.03 15.62 15.62v41.392c0 7-3.375 16.1-12.6 20.85 10.95 6 12.6 14.85 12.6 22.2v74.163h-23.286l.124-74.213c.013-7.412-5.735-13.924-12.544-13.887l-12.607.07.063 22.569h-24.127l115.981 190.98.097-.16V422.101h-13.309v85.167h-20.81v-85.167h-8.663v-19.35z" style="fill:#483e8e;fill-rule:evenodd" data-source="https://football-logos.cc"></path><path d="m294.079 601.637-194.43-321.23-60.713-.03 258.761 425.984 258.65-425.73-58.979-.028-196.031 321.05-3.64 5.961zm-10.197 3.227-22.48 30.128-4.723-7.86 4.808-5.92-7.686-12.792-7.596 1.28-4.582-7.626 37.237-5.568zm-20.875-21.902c-.83 1.112-1.754 1.973-2.768 2.605l-4.181-6.959a7.2 7.2 0 0 0 1.611-1.833c.439-.712.607-1.733.507-3.075q-.152-1.994-1.885-4.878c-.976-1.625-2.106-2.862-3.4-3.716-1.295-.853-2.565-.912-3.797-.172q-1.537.922-1.545 2.32-.003 1.38.632 3.232l3.292 9.508q1.671 4.827 1.38 8.27-.288 3.425-3.942 5.62-3.125 1.878-6.072 1.513c-1.957-.247-3.718-.92-5.272-2.033-1.556-1.1-2.882-2.32-3.985-3.638q-1.645-1.984-2.638-3.637c-1.78-2.961-2.942-5.634-3.497-8.016-.556-2.382-.638-4.401-.261-6.062.38-1.673 1.006-3.046 1.88-4.13.875-1.084 1.854-1.946 2.941-2.6l4.181 6.96q-1.79 1.141-2.344 3.608c-.38 1.641.267 3.847 1.93 6.614q4.35 7.24 8.213 4.92c1.052-.632 1.525-1.584 1.415-2.865-.117-1.277-.615-3.156-1.482-5.635l-1.493-4.161c-.995-2.786-1.681-5.056-2.043-6.787a9.7 9.7 0 0 1 .293-5.125c.561-1.684 1.865-3.136 3.9-4.358 1.384-.832 2.984-1.29 4.801-1.385q2.726-.144 6.002 1.945c2.184 1.392 4.31 3.804 6.38 7.247 1.508 2.51 2.489 4.833 2.931 6.964.448 2.14.486 4.023.122 5.643q-.556 2.438-1.806 4.096m-20.668-31.794q-2.115 3.722-7.015 6.668c-3.253 1.955-6.315 2.973-9.167 3.056-2.857.074-5.374-.462-7.547-1.618-2.182-1.153-3.998-2.514-5.457-4.08-1.454-1.557-2.626-3.086-3.526-4.582-.894-1.488-1.686-3.246-2.384-5.268-.701-2.031-1.044-4.278-1.038-6.745.001-2.475.71-4.949 2.115-7.424s3.74-4.689 6.993-6.643c3.266-1.963 6.317-2.986 9.162-3.064s5.361.457 7.533 1.594c2.176 1.145 3.995 2.494 5.453 4.06 1.454 1.556 2.649 3.105 3.562 4.625.924 1.537 1.73 3.319 2.418 5.325.687 2.007 1.032 4.242 1.023 6.688-.011 2.46-.718 4.92-2.125 7.408m-24.197-34.5a23 23 0 0 1-4.466 3.526 24.8 24.8 0 0 1-5.754 2.527c-2.047.606-4.18.836-6.408.686-2.235-.146-4.401-.881-6.506-2.19-2.098-1.312-3.96-3.314-5.589-6.025l-9.02-15.01 29.818-17.917 9.193 15.3c1.663 2.768 2.612 5.351 2.846 7.762q.349 3.613-.853 6.435c-.8 1.883-1.888 3.522-3.26 4.905m-20.22-35.753q-2.504 1.505-5.292 1.242c-1.853-.168-3.531-.955-5.026-2.345.244 1.331.322 2.434.221 3.316-.099.87-.525 1.76-1.286 2.656q-1.141 1.343-3.85 2.97-2.532 1.522-3.527 2.218c-.664.464-1.117.901-1.351 1.327-.241.429-.28.945-.132 1.568l-.789.474-4.82-8.02q1.775-2.104 5.563-4.383 2.307-1.383 3.233-2.38c.624-.671.873-1.51.766-2.52-.111-1.016-.695-2.396-1.749-4.15l-4.49-7.473-11.67 7.012-4.263-7.095 29.817-17.916 10.528 17.52q2.514 4.19 2.542 7.507c.019 2.21-.438 4.007-1.358 5.392-.932 1.38-1.952 2.41-3.066 3.08m-20.025-36.997q-2.116 3.722-7.015 6.668c-3.254 1.955-6.315 2.973-9.167 3.055-2.858.075-5.374-.46-7.548-1.618q-3.27-1.73-5.456-4.079-2.18-2.337-3.526-4.582c-.894-1.488-1.686-3.246-2.384-5.269-.702-2.03-1.044-4.278-1.038-6.745.001-2.475.71-4.948 2.115-7.423 1.404-2.476 3.739-4.69 6.992-6.644 3.267-1.963 6.317-2.985 9.163-3.063s5.36.457 7.533 1.594c2.176 1.144 3.994 2.494 5.453 4.059 1.454 1.557 2.648 3.106 3.562 4.626.923 1.537 1.73 3.318 2.417 5.325.688 2.006 1.032 4.242 1.023 6.688-.01 2.46-.717 4.92-2.124 7.408m-31.885-37.371c.993 4.254-.343 7.487-4.018 9.695a8.8 8.8 0 0 1-3.83 1.23 10 10 0 0 1-4.108-.533c-1.113-.394-2.081-.862-2.913-1.414-.832-.54-1.759-1.44-2.79-2.67-1.025-1.235-2.216-2.982-3.58-5.251l-8.816-14.673 29.817-17.916 10.122 16.845c1.58 2.63 2.453 4.975 2.614 7.046s-.138 3.784-.907 5.122c-.765 1.346-1.748 2.375-2.939 3.09-1.862 1.119-3.457 1.52-4.79 1.214q-2.008-.467-3.862-1.785M129.3 373.746l-5.274 3.169-10.15-16.894-7.725 4.641 11.547 19.219-5.274 3.17-15.81-26.315 29.817-17.916 15.313 25.485-5.274 3.17-11.05-18.39-6.27 3.767zm-25.482-33.379c.244 1.331.323 2.434.221 3.316-.099.87-.524 1.76-1.286 2.656q-1.141 1.343-3.85 2.97-2.532 1.522-3.527 2.218c-.663.465-1.117.901-1.35 1.327-.242.429-.281.945-.133 1.568l-.789.474-4.82-8.02c1.185-1.402 3.037-2.865 5.564-4.383q2.305-1.383 3.232-2.38c.624-.671.874-1.51.766-2.52-.111-1.016-.695-2.395-1.749-4.15l-4.49-7.473-11.67 7.012-4.263-7.095 29.817-17.916 10.528 17.521c1.678 2.791 2.522 5.295 2.542 7.506.019 2.211-.437 4.007-1.358 5.392q-1.396 2.073-3.066 3.08-2.504 1.504-5.293 1.242c-1.852-.168-3.531-.955-5.026-2.345m230.074 294.18-22.158-29.645 4.88-8.121 36.497 5.78-4.589 7.636-7.354-1.472-7.468 12.429 4.645 5.982zm28.886-48.075-5.972-3.588 4.227-7.034 5.972 3.588zm18.333-63.663c-3.32-1.995-5.739-4.362-7.264-7.12-1.53-2.75-2.174-5.647-1.933-8.704.23-3.053 1.231-6.048 2.992-8.98 1.433-2.383 3.021-4.301 4.76-5.745 1.734-1.448 3.47-2.437 5.21-2.987 1.736-.542 3.39-.762 4.95-.643 1.567.112 2.972.477 4.205 1.08l-4.232 7.042c-1.685-.406-3.317-.408-4.9.002q-2.376.618-4.652 4.408c-1.3 2.165-1.682 4.574-1.14 7.208.549 2.639 2.675 5.076 6.39 7.308 1.848 1.11 3.698 1.829 5.57 2.156q2.797.486 5.274-.577c1.653-.698 3.052-2.006 4.193-3.905.784-1.306 1.273-2.597 1.468-3.864a7.4 7.4 0 0 0-.351-3.678c-.43-1.184-1.145-2.263-2.158-3.233l4.232-7.043q2.813 2.68 4.142 6c.882 2.221 1.162 4.613.852 7.182q-.482 3.86-2.948 7.963c-1.812 3.017-4 5.33-6.58 6.952-2.567 1.617-5.408 2.377-8.513 2.278q-4.658-.15-9.567-3.1zm43.111-38.598-29.367-17.646 4.227-7.034 24.05 14.45 10.06-16.743 5.318 3.195zm14.372-46.338-19.47-11.698 4.312-7.176 19.06 11.453q2.913 1.75 5.418.957 2.5-.796 4.079-3.421 4.087-6.8-1.524-10.172l-19.34-11.62 4.311-7.176 19.101 11.477c3.757 2.257 5.808 5.128 6.168 8.621q.538 5.239-3.437 11.85-1.704 2.835-4.255 5.274c-1.696 1.619-3.614 2.711-5.735 3.277-2.62.67-5.519.12-8.688-1.646m37.584-40.131-29.367-17.646 9.835-16.368c1.536-2.556 3.155-4.37 4.869-5.447s3.333-1.594 4.847-1.535c1.519.051 2.866.435 4.038 1.14 1.834 1.101 2.924 2.299 3.28 3.588q.531 1.947.257 4.143c3.213-2.783 6.628-3.092 10.247-.917a8.75 8.75 0 0 1 2.846 2.752 9.9 9.9 0 0 1 1.454 3.789c.178 1.139.225 2.188.135 3.156-.078.963-.423 2.171-1.005 3.619-.59 1.444-1.544 3.264-2.869 5.468zm27.575-45.892-29.367-17.645 14.879-24.763 5.194 3.121-10.736 17.869 6.176 3.71 9.863-16.414 5.195 3.121-9.864 16.415 7.608 4.57 11.22-18.673 5.195 3.121z" style="fill:#fff;fill-rule:evenodd"></path><path d="M109.165 334.592c1.03-.62 1.722-1.539 2.06-2.748q.507-1.816-1.202-4.666l-5.419-9.018-7.973 4.791 5.1 8.487c1.15 1.915 2.319 3.14 3.495 3.67 1.171.523 2.492.353 3.939-.516M133.256 391.996l-7.973 4.791 5.336 8.881q3.336 5.55 7.696 2.931c1.218-.732 1.825-1.775 1.816-3.139q-.013-2.044-1.34-4.253zM138.281 388.977l5.105 8.495c.918 1.529 1.934 2.593 3.047 3.205 1.112.613 2.228.589 3.356-.09 1.163-.698 1.714-1.631 1.662-2.815q-.07-1.762-1.656-4.403l-4.994-8.31zM160.768 422.371q-2.58.366-5.547 2.15-2.96 1.779-4.483 3.876-1.524 2.1-1.869 4.211c-.228 1.407-.18 2.758.136 4.035a12.9 12.9 0 0 0 1.45 3.542 13.1 13.1 0 0 0 2.444 2.955c.972.882 2.142 1.559 3.499 2.013 1.361.463 2.896.57 4.607.33q2.568-.36 5.527-2.137 2.969-1.785 4.502-3.888 1.524-2.099 1.876-4.215c.229-1.407.185-2.75-.142-4.031a13.2 13.2 0 0 0-1.466-3.554 12.9 12.9 0 0 0-2.447-2.942c-.99-.895-2.147-1.568-3.497-2.027s-2.88-.558-4.59-.318M188.391 457.605l-7.973 4.79 5.1 8.488c1.15 1.915 2.319 3.14 3.495 3.67 1.171.523 2.492.353 3.938-.516 1.032-.62 1.723-1.539 2.06-2.749q.509-1.816-1.201-4.665zM209.33 492.454l-19.518 11.728 4.235 7.047q1.653 2.751 4.138 3.69 2.489.92 5.228.329 2.754-.591 5.37-2.165 4.029-2.418 5.401-4.932c.914-1.677 1.229-3.223.953-4.623q-.413-2.098-1.63-4.123zM219.663 531.772q-2.96 1.778-4.483 3.875-1.524 2.1-1.868 4.211c-.229 1.407-.18 2.758.135 4.035q.479 1.927 1.45 3.542a13 13 0 0 0 2.444 2.955c.973.882 2.143 1.559 3.5 2.014 1.36.463 2.895.57 4.606.33q2.568-.36 5.527-2.138 2.97-1.784 4.503-3.888 1.522-2.098 1.876-4.215c.228-1.407.185-2.75-.142-4.031a13.2 13.2 0 0 0-1.467-3.554 12.9 12.9 0 0 0-2.446-2.942c-.99-.895-2.148-1.567-3.497-2.026-1.35-.46-2.88-.559-4.591-.319q-2.578.368-5.547 2.15M274.571 604.623l-14.455 2.642 5.302 8.825 9.211-11.37zM320.743 604.932l9.016 11.29 5.153-8.574-14.113-2.81zM455.94 376.39l6.422 3.858 4.96-8.254c.892-1.485 1.338-2.845 1.348-4.083.012-1.238-.53-2.19-1.64-2.858-1.146-.688-2.209-.742-3.207-.161q-1.49.858-3.031 3.423zM472.688 374.272l-5.377 8.95 7.853 4.719 5.185-8.63q3.24-5.392-1.054-7.974c-1.2-.72-2.384-.773-3.557-.148q-1.76.938-3.05 3.083" style="fill:#fff;fill-rule:evenodd"></path><path d="M198.192 558.858 131.35 448.819a301 301 0 0 0-5.557 9.923 221 221 0 0 0-5.345 10.677 2381 2381 0 0 1 15.898 10.17c5.948 3.828 11.897 7.656 17.644 11.278l1.612 1.016-.624 1.799a183 183 0 0 0-3.843 12.59 239 239 0 0 0-2.971 12.469l-.352 1.665-1.69.226-40.574 5.429c-.2 6.728-.39 14.6-.312 21.88.074 6.99.39 13.438 1.17 17.773 6.376.76 12.738 1.535 19.1 2.309 6.93.844 13.862 1.688 20.812 2.513l1.832.217.267 1.835c.606 4.16 1.4 8.293 2.457 12.374a91 91 0 0 0 4.059 12.167l.704 1.693-1.457 1.13-31.95 24.787a198 198 0 0 0 9.012 17.408c3.232 5.566 6.713 10.981 10.396 16.274l35.718-17.965 1.793-.903 1.209 1.608a112 112 0 0 0 8.54 10.078c3 3.142 6.137 6.056 9.403 8.746l1.363 1.122-.657 1.626-15.121 37.428a148.5 148.5 0 0 0 16.262 11.254 150.5 150.5 0 0 0 17.493 8.95l22.883-32.75 1.122-1.607 1.796.778a107 107 0 0 0 11.886 4.322c4.1 1.225 8.357 2.233 12.777 3.01l1.684.294.274 1.7c1.083 6.725 2.38 14.032 3.675 21.338 1.124 6.336 2.248 12.673 3.362 19.482 6.265.286 12.496.412 18.68.395a422 422 0 0 0 18.528-.468c.996-6.184 1.931-12.568 2.866-18.95 1.006-6.867 2.013-13.735 3.198-20.944l.29-1.767 1.78-.228a115 115 0 0 0 11.934-2.176 110 110 0 0 0 11.343-3.336l1.702-.603 1.055 1.478 23.36 32.746a164 164 0 0 0 19.181-9.151 160 160 0 0 0 18.04-11.752l-17.012-35.74-.821-1.726 1.499-1.191c4.261-3.389 8.319-6.92 12.112-10.63 3.805-3.724 7.355-7.633 10.593-11.766l1.197-1.529 1.74.842 18.937 9.15 17.093 8.258a246 246 0 0 0 11.572-18.49 213 213 0 0 0 9.286-18.467l-33.263-22.688-1.539-1.05.635-1.755a152 152 0 0 0 4.022-12.88 161 161 0 0 0 3.14-14.672l.302-1.809 1.834-.186c6.761-.686 13.811-1.356 20.86-2.025 6.262-.595 12.527-1.19 18.89-1.829.677-6.771.868-13.6.648-20.456-.221-6.86-.857-13.797-1.833-20.77l-39.005-1.356-1.99-.069-.307-1.964c-1.202-7.684-3.7-13.92-6.581-21.112l-1.152-2.895-.662-1.67 1.405-1.107c5.608-4.416 11.223-9.226 16.837-14.034 5.23-4.48 10.462-8.96 15.581-13.05a101 101 0 0 0-3.967-8.576 119 119 0 0 0-4.225-7.451L397.866 557.79a60 60 0 0 1 2.642 5.644c6.585 16.26 4.058 31.368-3.337 44.33-7.276 12.753-19.288 23.374-31.896 30.896-4.792 2.86-9.656 5.27-14.363 7.176a125 125 0 0 1-8.392 3.051l-41.203 67.818-3.62 5.96-3.62-5.96-41.504-68.324q-3.136-1.043-6.191-2.235c-4.573-1.785-9.49-4.14-14.43-7.008-12.142-7.049-24.444-17.215-32.174-29.654-7.877-12.674-11.041-27.653-4.634-44.069a59 59 0 0 1 3.048-6.559" style="fill:#cf2435;fill-rule:evenodd"></path><path d="M124.174 212.054c2.682 2.242 4.507 5.105 5.418 8.248.92 3.178.903 6.63-.113 10.004-.086.286-.083.55-.01.803.096.331.309.694.608 1.09 2.455 3.258 3.164 6.358 2.96 9.39-.196 2.927-1.243 5.686-2.364 8.457a1.416 1.416 0 0 1-2.7-.255h-.001c-.348-1.746-1.297-3.382-2.889-4.537-1.442-1.046-3.422-1.716-5.976-1.753a9.05 9.05 0 0 0-6.634 2.706c-1.744 1.765-2.823 4.244-2.888 6.997v.006l-.001.044v.004a8.64 8.64 0 0 0 2.2 5.944c1.364 1.51 3.24 2.465 5.267 2.513h.032c2.397.044 5.035-1.012 7.746-2.83 3.172-2.128 6.41-5.285 9.485-8.966 4.459-5.34 7.39-13.039 8.293-20.71.864-7.348-.135-14.62-3.443-19.682a1.416 1.416 0 0 1 2.22-1.741 32 32 0 0 1 2.59 2.636c.727.818 1.605 1.856 2.784 3.289 2.75-11.669 7.685-22.205 14.636-29.746 6.826-7.405 15.577-11.937 26.099-11.874 7.701.046 13.392 2.616 17.406 6.226 5.385 4.844 7.723 11.576 7.85 16.603q.014.564.014 1.151c-.01 7.053-1.765 12.997-4.874 17.234-3.195 4.356-7.788 6.913-13.373 7.054q-.236.006-.504.006-.93-.001-1.788-.079c-4.485-.4-7.592-2.283-9.587-5.051-1.95-2.704-2.784-6.217-2.779-9.98q.002-1.188.11-2.399a1.412 1.412 0 0 1 2.17-1.066v-.002c1.747 1.126 3.418 1.944 5.087 2.48a16.8 16.8 0 0 0 5.068.805c2.254.017 4.116-.478 5.378-1.704 1.289-1.253 2.048-3.343 2.092-6.52q.003-.253 0-.498c-.04-3.077-.87-5.455-2.394-7.044-1.511-1.575-3.762-2.427-6.658-2.467a16 16 0 0 0-.432 0c-3.773.05-7.311 1.2-10.593 3.13-3.764 2.215-7.202 5.462-10.284 9.269-2.774 3.425-4.627 7.065-5.68 10.778-1.005 3.542-1.283 7.155-.937 10.713 2.984-.092 5.827.272 8.695.639.186.023-.591-.075 1.253.153a1.417 1.417 0 0 1 .383 2.71c-3.633 1.84-6.063 3.608-7.971 5.676-1.937 2.098-3.386 4.554-5.033 7.73-3.404 6.566-7.037 12.763-11.117 18.558-4.093 5.813-8.639 11.226-13.859 16.207-3.339 3.185-8.775 4.534-14.28 4.563-6.28.033-12.75-1.664-16.267-4.307-3.412-2.565-5.92-5.595-7.608-9.224-1.669-3.588-2.524-7.747-2.65-12.61-.155-5.95 2.199-11.125 6.059-15.347 4.296-4.701 10.464-8.206 17.075-10.262a9 9 0 0 0 2.927-1.596c.642-.533 1.112-1.092 1.204-1.562.212-1.07.354-2.502.401-4.067a39 39 0 0 0-.137-4.724 1.412 1.412 0 0 1 2.312-1.21zm2.705 9.034a13.8 13.8 0 0 0-2.039-4.197q-.001.598-.02 1.177c-.052 1.75-.21 3.345-.444 4.532-.229 1.156-1.07 2.268-2.178 3.19-1.13.937-2.576 1.718-3.891 2.127-6.172 1.92-11.896 5.155-15.835 9.464-3.386 3.705-5.452 8.218-5.318 13.377.116 4.461.889 8.252 2.396 11.492 1.488 3.198 3.707 5.875 6.733 8.15 3.058 2.297 8.851 3.772 14.562 3.743 4.852-.026 9.573-1.146 12.342-3.789 5.073-4.84 9.5-10.114 13.494-15.786 4.005-5.69 7.573-11.776 10.918-18.225 1.757-3.389 3.32-6.027 5.464-8.351 1.394-1.51 3.015-2.868 5.069-4.184-2.134-.227-4.278-.356-6.484-.18v-.003a1.414 1.414 0 0 1-1.511-1.216c-.608-4.352-.374-8.801.86-13.156 1.155-4.07 3.183-8.056 6.212-11.798 3.278-4.048 6.967-7.52 11.048-9.921 3.687-2.17 7.688-3.462 11.989-3.518q.251-.003.498 0c3.69.051 6.62 1.201 8.663 3.33 2.029 2.116 3.13 5.145 3.18 8.97q.003.28 0 .566c-.056 4.002-1.125 6.743-2.945 8.513-1.849 1.797-4.382 2.523-7.36 2.5a19.6 19.6 0 0 1-5.92-.937 22.4 22.4 0 0 1-3.68-1.57c.014 3.15.692 6.04 2.247 8.197 1.53 2.121 3.966 3.57 7.538 3.888a18 18 0 0 0 1.983.062c4.651-.117 8.484-2.256 11.159-5.902 2.761-3.765 4.322-9.13 4.33-15.562q0-.522-.013-1.085c-.111-4.394-2.172-10.294-6.921-14.565-3.55-3.192-8.617-5.466-15.523-5.507-9.65-.057-17.703 4.128-24.007 10.967-7.153 7.76-12.08 18.922-14.57 31.221a1.413 1.413 0 0 1-2.49.66c-.607-.75-1.151-1.417-1.642-2.016 1.026 4.264 1.206 9.022.647 13.783-.964 8.188-4.122 16.44-8.936 22.206-3.229 3.866-6.667 7.206-10.083 9.497-3.172 2.127-6.348 3.361-9.362 3.307l-.036-.001h-.019c-2.829-.067-5.425-1.375-7.293-3.443a11.45 11.45 0 0 1-2.93-7.88v-.078c.082-3.494 1.464-6.653 3.697-8.912a11.84 11.84 0 0 1 8.682-3.548c3.197.047 5.722.92 7.604 2.285a10.1 10.1 0 0 1 2.559 2.688c.47-1.426.817-2.843.911-4.25.16-2.396-.414-4.866-2.396-7.496-.49-.652-.86-1.308-1.062-2.009a4.13 4.13 0 0 1 .01-2.398c.86-2.856.881-5.757.113-8.41zm-20.117 32.059v-.003m-.001.071v-.01" style="fill:#2a2b2e;fill-rule:evenodd"></path><path d="M145.42 229.529c-.964 8.189-4.122 16.44-8.936 22.206-3.229 3.866-6.667 7.206-10.083 9.497-3.172 2.128-6.348 3.362-9.362 3.307h-.036l-.019-.001c-2.829-.066-5.425-1.375-7.293-3.443a11.45 11.45 0 0 1-2.93-7.88v-.078c.082-3.494 1.464-6.653 3.696-8.912a11.84 11.84 0 0 1 8.683-3.548c3.197.047 5.722.92 7.604 2.285a10.1 10.1 0 0 1 2.559 2.688c.47-1.426.817-2.843.911-4.25.16-2.396-.414-4.866-2.396-7.496-.49-.652-.86-1.308-1.062-2.009a4.13 4.13 0 0 1 .01-2.398c.86-2.856.881-5.757.113-8.41a13.8 13.8 0 0 0-2.039-4.197l-.02 1.178c-.052 1.75-.21 3.345-.444 4.531-.229 1.156-1.07 2.268-2.179 3.19-1.129.938-2.575 1.719-3.89 2.128-6.173 1.92-11.897 5.154-15.836 9.464-3.386 3.704-5.45 8.218-5.317 13.377.116 4.46.889 8.252 2.396 11.491 1.488 3.199 3.707 5.876 6.733 8.15.756.567 1.678 1.085 2.724 1.542l21.962.01c.829-.454 1.576-.985 2.218-1.598 5.073-4.84 9.5-10.114 13.494-15.786 4.005-5.689 7.573-11.776 10.917-18.225 1.757-3.388 3.32-6.027 5.465-8.35 1.394-1.511 3.015-2.869 5.069-4.185-2.134-.226-4.278-.355-6.484-.182a1.414 1.414 0 0 1-1.512-1.216c-.607-4.352-.373-8.802.862-13.157 1.154-4.07 3.182-8.056 6.211-11.797 3.278-4.048 6.967-7.52 11.048-9.922 3.687-2.169 7.687-3.461 11.988-3.517q.252-.003.5 0c3.69.05 6.619 1.2 8.662 3.33 2.028 2.115 3.13 5.145 3.18 8.97q.003.28 0 .565c-.056 4.002-1.125 6.744-2.945 8.513-1.849 1.798-4.383 2.523-7.36 2.501a19.6 19.6 0 0 1-5.92-.938 22.4 22.4 0 0 1-3.68-1.57c.014 3.151.692 6.04 2.247 8.197 1.53 2.122 3.966 3.57 7.538 3.889q.742.066 1.545.068l.438-.006c4.651-.118 8.484-2.257 11.158-5.902 2.762-3.765 4.323-9.13 4.331-15.563l-.013-1.085c-.111-4.393-2.172-10.294-6.921-14.565-3.55-3.192-8.617-5.465-15.524-5.506-9.649-.058-17.702 4.127-24.006 10.966-7.153 7.76-12.08 18.922-14.57 31.222a1.413 1.413 0 0 1-2.49.66l-1.642-2.017c1.025 4.264 1.206 9.023.646 13.783z" style="fill:#fff300;fill-rule:evenodd"></path><path d="M471.48 212.054c-2.682 2.242-4.508 5.105-5.418 8.248-.921 3.178-.903 6.63.112 10.004.086.286.084.55.01.803-.095.331-.308.694-.607 1.09-2.455 3.258-3.164 6.358-2.96 9.39.195 2.927 1.243 5.686 2.363 8.457a1.416 1.416 0 0 0 2.701-.255h.001c.348-1.746 1.297-3.382 2.889-4.537 1.442-1.046 3.421-1.716 5.976-1.753a9.05 9.05 0 0 1 6.634 2.706c1.744 1.765 2.823 4.244 2.888 6.997v.054a8.63 8.63 0 0 1-2.199 5.944c-1.364 1.51-3.24 2.465-5.267 2.513h-.032c-2.397.044-5.035-1.012-7.746-2.83-3.172-2.128-6.41-5.285-9.485-8.966-4.459-5.34-7.39-13.039-8.293-20.71-.865-7.348.134-14.62 3.443-19.682a1.416 1.416 0 0 0-2.22-1.741c-.83.755-1.55 1.464-2.591 2.636-.726.818-1.605 1.856-2.783 3.289-2.75-11.669-7.685-22.205-14.636-29.746-6.826-7.405-15.578-11.937-26.1-11.874-7.7.046-13.392 2.616-17.405 6.226-5.385 4.844-7.723 11.576-7.85 16.603q-.014.564-.014 1.151c.01 7.053 1.765 12.997 4.873 17.234 3.196 4.356 7.79 6.913 13.373 7.054q.237.006.504.006.93-.001 1.79-.079c4.484-.4 7.59-2.283 9.586-5.051 1.95-2.704 2.784-6.217 2.779-9.98q-.003-1.188-.111-2.399a1.412 1.412 0 0 0-2.169-1.066l-.001-.002c-1.746 1.126-3.417 1.944-5.086 2.48a16.8 16.8 0 0 1-5.068.805c-2.255.017-4.116-.478-5.378-1.704-1.29-1.253-2.049-3.343-2.092-6.52a22 22 0 0 1 0-.498c.04-3.077.869-5.455 2.394-7.044 1.51-1.575 3.761-2.427 6.658-2.467q.214-.003.432 0c3.773.05 7.311 1.2 10.593 3.13 3.764 2.215 7.202 5.462 10.284 9.269 2.773 3.425 4.627 7.065 5.68 10.778 1.004 3.542 1.282 7.155.937 10.713-2.984-.092-5.828.272-8.695.639-.186.023.59-.075-1.253.153a1.417 1.417 0 0 0-.383 2.71c3.633 1.84 6.062 3.608 7.971 5.676 1.936 2.098 3.386 4.554 5.033 7.73 3.404 6.566 7.037 12.763 11.117 18.558 4.093 5.813 8.639 11.226 13.859 16.207 3.338 3.185 8.775 4.534 14.28 4.563 6.28.033 12.75-1.664 16.267-4.307 3.412-2.565 5.92-5.595 7.608-9.224 1.669-3.588 2.524-7.747 2.65-12.61.155-5.95-2.199-11.125-6.059-15.347-4.296-4.701-10.464-8.206-17.075-10.262a9 9 0 0 1-2.928-1.596c-.641-.533-1.11-1.092-1.204-1.562-.211-1.07-.353-2.502-.4-4.067a39 39 0 0 1 .137-4.724 1.412 1.412 0 0 0-2.312-1.21zm-2.705 9.034a13.8 13.8 0 0 1 2.039-4.197q.001.598.019 1.177c.053 1.75.21 3.345.445 4.532.229 1.156 1.069 2.268 2.178 3.19 1.13.937 2.575 1.718 3.891 2.127 6.172 1.92 11.896 5.155 15.835 9.464 3.386 3.705 5.451 8.218 5.317 13.377-.115 4.461-.888 8.252-2.396 11.492-1.487 3.198-3.707 5.875-6.733 8.15-3.058 2.297-8.85 3.772-14.56 3.743-4.854-.026-9.574-1.146-12.343-3.789-5.073-4.84-9.5-10.114-13.494-15.786-4.006-5.69-7.574-11.776-10.918-18.225-1.757-3.389-3.32-6.027-5.464-8.351-1.394-1.51-3.015-2.868-5.07-4.184 2.135-.227 4.279-.356 6.485-.18v-.003c.74.059 1.408-.47 1.511-1.216.608-4.352.374-8.801-.86-13.156-1.155-4.07-3.183-8.056-6.213-11.798-3.278-4.048-6.966-7.52-11.048-9.921-3.686-2.17-7.687-3.462-11.988-3.518a21 21 0 0 0-.499 0c-3.69.051-6.619 1.201-8.662 3.33-2.029 2.116-3.13 5.145-3.18 8.97a25 25 0 0 0 0 .566c.056 4.002 1.124 6.743 2.945 8.513 1.848 1.797 4.382 2.523 7.36 2.5a19.6 19.6 0 0 0 5.92-.937c1.23-.394 2.45-.916 3.68-1.57-.014 3.15-.692 6.04-2.247 8.197-1.53 2.121-3.966 3.57-7.539 3.888a18 18 0 0 1-1.982.062c-4.652-.117-8.485-2.256-11.159-5.902-2.762-3.765-4.322-9.13-4.33-15.562q0-.522.013-1.085c.11-4.394 2.172-10.294 6.92-14.565 3.55-3.192 8.618-5.466 15.524-5.507 9.65-.057 17.702 4.128 24.006 10.967 7.154 7.76 12.08 18.922 14.57 31.221a1.413 1.413 0 0 0 2.49.66c.607-.75 1.152-1.417 1.643-2.016-1.026 4.264-1.207 9.022-.647 13.783.964 8.188 4.122 16.44 8.936 22.206 3.228 3.866 6.667 7.206 10.083 9.497 3.172 2.127 6.348 3.361 9.362 3.307l.036-.001h.019c2.828-.067 5.425-1.375 7.293-3.443a11.45 11.45 0 0 0 2.93-7.88v-.078c-.083-3.494-1.464-6.653-3.697-8.912a11.84 11.84 0 0 0-8.683-3.548c-3.196.047-5.721.92-7.603 2.285a10.1 10.1 0 0 0-2.56 2.688c-.469-1.426-.816-2.843-.91-4.25-.16-2.396.414-4.866 2.395-7.496.492-.652.86-1.308 1.062-2.009.226-.78.24-1.567-.01-2.398-.86-2.856-.88-5.757-.112-8.41zm20.117 32.059v-.003m.001.071v-.01" style="fill:#2a2b2e;fill-rule:evenodd"></path><path d="M450.234 229.529c.964 8.189 4.122 16.44 8.936 22.206 3.228 3.866 6.667 7.206 10.083 9.497 3.172 2.128 6.348 3.362 9.362 3.307h.036l.019-.001c2.828-.066 5.425-1.375 7.293-3.443a11.45 11.45 0 0 0 2.93-7.88v-.078c-.083-3.494-1.464-6.653-3.697-8.912a11.84 11.84 0 0 0-8.683-3.548c-3.196.047-5.721.92-7.603 2.285a10.1 10.1 0 0 0-2.56 2.688c-.469-1.426-.816-2.843-.91-4.25-.16-2.396.414-4.866 2.395-7.496.492-.652.86-1.308 1.063-2.009.225-.78.24-1.567-.01-2.398-.86-2.856-.881-5.757-.113-8.41a13.8 13.8 0 0 1 2.039-4.197l.019 1.178c.053 1.75.21 3.345.445 4.531.229 1.156 1.069 2.268 2.178 3.19 1.13.938 2.575 1.719 3.891 2.128 6.172 1.92 11.896 5.154 15.835 9.464 3.386 3.704 5.451 8.218 5.317 13.377-.115 4.46-.888 8.252-2.395 11.491-1.488 3.199-3.708 5.876-6.734 8.15-.755.567-1.677 1.085-2.724 1.542l-21.961.01a10.5 10.5 0 0 1-2.218-1.598c-5.073-4.84-9.5-10.114-13.494-15.786-4.006-5.689-7.574-11.776-10.918-18.225-1.757-3.388-3.32-6.027-5.464-8.35-1.394-1.511-3.015-2.869-5.07-4.185 2.135-.226 4.279-.355 6.485-.182.74.058 1.408-.47 1.511-1.216.608-4.352.374-8.802-.86-13.157-1.155-4.07-3.183-8.056-6.213-11.797-3.277-4.048-6.966-7.52-11.047-9.922-3.687-2.169-7.688-3.461-11.989-3.517a21 21 0 0 0-.499 0c-3.69.05-6.619 1.2-8.662 3.33-2.029 2.115-3.13 5.145-3.18 8.97a25 25 0 0 0 0 .565c.056 4.002 1.125 6.744 2.945 8.513 1.849 1.798 4.382 2.523 7.36 2.501a19.6 19.6 0 0 0 5.92-.938c1.23-.394 2.45-.915 3.68-1.57-.014 3.151-.692 6.04-2.247 8.197-1.53 2.122-3.966 3.57-7.538 3.889q-.742.066-1.545.068l-.438-.006c-4.651-.118-8.484-2.257-11.159-5.902-2.761-3.765-4.322-9.13-4.33-15.563l.013-1.085c.111-4.393 2.172-10.294 6.921-14.565 3.549-3.192 8.617-5.465 15.523-5.506 9.65-.058 17.702 4.127 24.006 10.966 7.154 7.76 12.08 18.922 14.571 31.222a1.413 1.413 0 0 0 2.49.66l1.642-2.017c-1.026 4.264-1.207 9.023-.647 13.783z" style="fill:#fff300;fill-rule:evenodd"></path><path d="M297.816 105.43c-18.254 0-35.125 5.917-48.801 15.936 17.12 11.782 33.837 17.207 50.194 16.956 16.153-.247 32.067-6.031 47.767-16.691-13.74-10.18-30.747-16.2-49.16-16.2m-40.895 27.43c-7.844 18.911-11.448 37.656-11.218 56.254.228 18.43 4.223 36.749 11.586 54.973q12.81-6.304 25.657-8.583c-5.667-15.816-8.706-31.544-8.802-47.171-.094-15.445 2.687-30.746 8.647-45.887-8.556-1.714-17.178-4.883-25.87-9.586m-4.66 113.857c-4.42-10.847-7.688-21.74-9.726-32.68l-19.61 9.102a82.9 82.9 0 0 0 21.656 28.2q3.84-2.492 7.68-4.622m-10.69-38.471a144 144 0 0 1-1.515-19.066 140 140 0 0 1 .675-15.592l-21.49-11.244a82.6 82.6 0 0 0-4.09 25.752c0 10.52 1.966 20.582 5.55 29.838zm-.117-40.651c1.775-12.464 5.248-24.984 10.532-37.566a129 129 0 0 1-7.614-5.001 83 83 0 0 0-5.01 4.614 82.8 82.8 0 0 0-18.162 27.355zm47.065-24.217c-6.015 14.85-8.82 29.834-8.728 44.933.094 15.293 3.164 30.76 8.883 46.377a83 83 0 0 1 8.58-.478 83 83 0 0 1 11.378.747c5.272-13.436 8.456-27.54 8.602-42.607.148-15.188-2.79-31.397-9.781-48.942a76.99 76.99 0 0 1-18.934-.03m24.649-.88c6.941 17.806 9.865 34.34 9.713 49.897-.15 15.397-3.312 29.805-8.57 43.523q12.615 2.573 25.198 9.003c7.448-18.49 11.202-36.918 10.91-55.28-.294-18.518-4.703-37.003-13.582-55.453-7.814 3.95-15.702 6.743-23.67 8.31m28.646-10.987c5.59 11.567 9.49 23.158 11.784 34.772l20.98-8.922a82.76 82.76 0 0 0-22.987-32.05 128 128 0 0 1-9.778 6.2m12.784 40.493a130 130 0 0 1 1.468 17.548c.11 6.956-.334 13.915-1.315 20.877l19.598 8.97c3.953-9.655 6.132-20.225 6.132-31.303a82.6 82.6 0 0 0-3.978-25.408zm-.785 44.208c-1.92 10.465-5.042 20.936-9.307 31.415a132 132 0 0 1 6.348 3.877 82.882 82.882 0 0 0 21.175-26.955zm-104.515 38.82c13.626 9.894 30.39 15.73 48.518 15.73 18.031 0 34.713-5.775 48.3-15.573-16.331-10.265-32.62-15.388-48.861-15.332-15.938.056-31.924 5.104-47.957 15.175m-13.944-129.398c15.985-15.985 38.07-25.873 62.462-25.873s46.476 9.888 62.461 25.873c15.986 15.985 25.873 38.07 25.873 62.462s-9.887 46.476-25.873 62.461c-15.985 15.986-38.069 25.873-62.461 25.873-24.393 0-46.477-9.887-62.462-25.873-15.985-15.985-25.873-38.07-25.873-62.461 0-24.393 9.888-46.477 25.873-62.462" style="fill:#2a2b2e;fill-rule:evenodd"></path><path d="M297.816 105.43c-18.254 0-35.125 5.917-48.801 15.936 17.12 11.782 33.837 17.207 50.194 16.956 16.153-.247 32.067-6.031 47.767-16.691-13.74-10.18-30.747-16.2-49.16-16.2M241.454 167.595c1.775-12.464 5.248-24.984 10.532-37.566a129 129 0 0 1-7.614-5.001 83 83 0 0 0-5.01 4.614 82.8 82.8 0 0 0-18.162 27.355zM256.921 132.86c-7.844 18.911-11.448 37.656-11.218 56.254.228 18.43 4.223 36.749 11.586 54.973q12.81-6.304 25.657-8.583c-5.667-15.816-8.706-31.544-8.802-47.171-.094-15.445 2.687-30.747 8.647-45.888-8.556-1.713-17.178-4.882-25.87-9.585" style="fill:#fff;fill-rule:evenodd"></path><path d="M288.519 143.378c-6.015 14.85-8.82 29.834-8.728 44.933.094 15.293 3.164 30.76 8.883 46.377a83 83 0 0 1 8.58-.478 83 83 0 0 1 11.378.747c5.272-13.436 8.456-27.54 8.602-42.607.148-15.188-2.79-31.397-9.781-48.942a76.99 76.99 0 0 1-18.934-.03" style="fill:#fff;fill-rule:evenodd"></path><path d="M313.168 142.497c6.941 17.807 9.865 34.34 9.713 49.897-.15 15.398-3.312 29.806-8.57 43.524q12.615 2.573 25.198 9.003c7.448-18.49 11.202-36.918 10.91-55.28-.294-18.518-4.703-37.003-13.582-55.453-7.814 3.95-15.702 6.743-23.67 8.31M341.814 131.51c5.59 11.568 9.49 23.16 11.784 34.773l20.98-8.922a82.76 82.76 0 0 0-22.987-32.05 128 128 0 0 1-9.778 6.2M354.598 172.004a130 130 0 0 1 1.468 17.548c.11 6.956-.334 13.915-1.315 20.877l19.598 8.97c3.953-9.655 6.132-20.225 6.132-31.303a82.6 82.6 0 0 0-3.978-25.408zM372.029 224.55l-18.217-8.338c-1.92 10.465-5.041 20.936-9.307 31.415a132 132 0 0 1 6.35 3.877 82.882 82.882 0 0 0 21.175-26.955M346.116 255.189c-16.331-10.265-32.62-15.388-48.861-15.332-15.938.056-31.924 5.104-47.957 15.175 13.626 9.894 30.39 15.73 48.518 15.73 18.031 0 34.713-5.775 48.3-15.573M252.262 246.717c-4.42-10.847-7.69-21.74-9.727-32.68l-19.61 9.102a82.9 82.9 0 0 0 21.656 28.2q3.84-2.492 7.68-4.622M220.7 217.934l20.872-9.688a144 144 0 0 1-1.516-19.066 140 140 0 0 1 .675-15.592l-21.49-11.244a82.6 82.6 0 0 0-4.09 25.752c0 10.52 1.966 20.582 5.55 29.838" style="fill:#fff;fill-rule:evenodd"></path><path d="M223.538 317.83H205.49v40.05h12.378c7.795 0 13.039-6.377 13.039-14.172v-17.374c0-4.677-2.695-8.504-7.37-8.504" style="fill:#483e8e;fill-rule:evenodd" data-source="https://football-logos.cc"></path><!-- source: https://football-logos.cc --></svg>