<svg xmlns="http://www.w3.org/2000/svg" viewBox="0 0 488 488.4"><!-- Source: https://football-logos.cc --><path d="M99.602 433.156c-3.677-3.722-7.426-7.543-11.211-11.328a74347 74347 0 0 1-57.954-58.017l-54.866-54.857-63.134-63.034a243718 243718 0 0 0-55.952-55.935c-.907-.907-.743-1.386.068-2.183a12955 12955 0 0 0 32.817-32.771l49.885-49.895 53.037-53.019 64.6-64.618 41.564-41.555c.435-.435.907-.842 1.24-1.188L343.871 188.87Z" class="a" style="fill:#fff;fill-opacity:1;stroke-width:.264583" transform="translate(144.128 55.244)" data-source="https://football-logos.cc"></path><path d="M179.574 195.617h6.116a4.67 4.67 0 0 1 5.108 4.428 36 36 0 0 1 .541 5.425c.005 2.664 1.411 3.504 3.609 2.006a34.6 34.6 0 0 0 5.011-4.406c1.584-1.617 2.956-3.494 4.6-5.075a7.3 7.3 0 0 1 3.176-1.721 21 21 0 0 1 5.117-.638c22.425 0 44.85-.044 67.273 0a29.8 29.8 0 0 1 7.89 1.314 3.058 3.058 0 0 1 1.919 4.81 25.3 25.3 0 0 1-3.897 5.415c-8.494 8.643-17.105 17.18-25.684 25.737l-62.645 62.441c-9.704 9.673-19.355 19.398-29.112 29.018a16.5 16.5 0 0 1-4.512 3.005 2.824 2.824 0 0 1-4.025-1.635 43 43 0 0 1-2.108-6.02q-4.883-18.305-9.651-36.641-4.322-16.489-8.61-32.978-1.945-7.507-3.928-15.003a7.68 7.68 0 0 1 2.19-8.058c5.658-5.51 11.2-11.127 16.763-16.733 4.194-4.247 8.324-8.494 12.53-12.741a9.28 9.28 0 0 1 6.54-1.997c1.92-.001 3.852.003 5.787.003zm41.313 44.466a6 6 0 0 0-.007-1.062c-1.477-4.629-2.728-9.343-4.5-13.855-1.53-3.865-3.928-4.247-7.317-1.796a9 9 0 0 0-.95.733c-5.044 4.958-10.098 9.906-15.11 14.864-8.196 8.155-16.298 16.415-24.579 24.474a7.21 7.21 0 0 0-2.132 7.708q2.223 8.313 4.44 16.627c.514 1.942 1.704 2.675 3.527 1.825a12.9 12.9 0 0 0 3.26-2.613q6.888-6.71 13.706-13.484 13.153-13.102 26.256-26.267a10.4 10.4 0 0 0 3.58-7.157zm-65.967-5.818c.507 1.487 1.207 3.653 2.003 5.786.774 2.134 2.29 2.581 3.98.965q7.315-6.912 14.45-14.015a4.45 4.45 0 0 0 1.309-4.47 31.7 31.7 0 0 0-1.96-5.224 2.43 2.43 0 0 0-3.357-1.209 14.2 14.2 0 0 0-3.724 2.273c-3.499 3.333-6.891 6.785-10.28 10.235a7.37 7.37 0 0 0-2.407 5.617zM94.326 358.628c1.071 1.062 1.945 2.25 3.055 3.28 1.717 1.657 3.528 3.186 5.309 4.842q4.448 4.172 8.843 8.398a7.8 7.8 0 0 1 1.532 1.89 2.346 2.346 0 0 1-.014 3.046c-3.581 3.547-7.125 7.135-10.703 10.681a3.9 3.9 0 0 1-4.789.33 18.5 18.5 0 0 1-2.45-2.03q-34.256-34.23-68.487-68.482c-2.319-2.325-2.338-3.95 0-6.37q8.431-8.633 16.99-17.19 17.964-18.05 35.971-35.962l18.049-18.05c1.33-1.326 2.617-2.697 3.993-3.97a1.68 1.68 0 0 1 1.45-.393 1.76 1.76 0 0 1 .567 1.413c-.009 3.641-.43 7.284-.764 10.926-.014 4.247-.716 8.59-1.07 12.879-.016 4.29-.777 8.494-1.154 12.74-.016 4.248-.612 8.388-.945 12.572-.015 4.183-.774 8.674-1.154 13.017-.013 3.13-.39 6.264-.698 9.396-.016 4.65-.775 9.29-1.16 13.94-.01 2.984-.507 5.968-.642 8.952a3.44 3.44 0 0 0 3.579 4.002c3.339.27 6.668.464 10.003.711l14.099 1.062c4.45.339 8.897.626 13.348 1.002 2.75.247 5.562.434 8.301.887 2.728.46 3.294 2.25 1.413 4.248a402 402 0 0 1-12.443 12.4 5.7 5.7 0 0 1-3.318 1.327 59.4 59.4 0 0 1-9.099.133c-5.81-.477-11.585-1.255-17.382-1.9-2.118-.255-4.301-.552-6.467-.68a16.6 16.6 0 0 0-3.175.414zm-17.135-61.401h-.007a13 13 0 0 0 0-2.283c-.006-.593-.016-1.454-.776-1.621a2.2 2.2 0 0 0-1.75.54 38 38 0 0 0-2.939 2.848q-8.621 8.844-17.232 17.71c-1.691 1.74-1.766 2.589-.009 4.427.013.324.568.582.84.885q5.808 6.042 11.68 12.083c1.51 1.541 2.956 3.1 4.554 4.512a2.58 2.58 0 0 0 2.132.656c.52-.247.77-1.284 1.002-2.017a7.4 7.4 0 0 0 .004-1.518c.387-4.438.776-8.876 1.154-13.315.012-3.387.387-6.784.677-10.17.012-4.259.695-8.495 1.057-12.731zM-42.544 195.628c15.799 0 31.597-.088 47.397 0a31.6 31.6 0 0 1 20.396 6.838 28.04 28.04 0 0 1 9.269 14.546 46.1 46.1 0 0 1-.493 26.735c-3.072 9.63-6.762 19.11-10.033 28.667-2.314 6.774-4.363 13.632-6.583 20.438a25 25 0 0 1-1.822 4.343 5.595 5.595 0 0 1-8.857 2.122 92 92 0 0 1-10.032-8.59q-44.062-43.914-87.998-87.955a33 33 0 0 1-3.104-3.556c-1.071-1.477-.632-2.761 1.156-3.186a15 15 0 0 1 3.32-.415q23.708 0 47.395.003zm-4.246 21.511-.009.501c.587.693 1.073 1.425 1.718 2.047q14.949 14.97 29.92 29.92c4.607 4.597 9.215 9.205 13.93 13.696 2.829 2.697 4.714 2.122 6.008-1.549.004-.248.01-.463.01-.712 1.7-5.043 3.41-10.097 5.13-15.14a39.3 39.3 0 0 0 3.417-14.43 13.803 13.803 0 0 0-14.642-14.694c-14.364-.17-28.73 0-43.097 0a15.6 15.6 0 0 0-2.462.364zM90.281 222.703c-8.154 0-16.309-.13-24.42 0a33.2 33.2 0 0 1-17.498-4.906 42.66 42.66 0 0 1-17.604-18.474 30.6 30.6 0 0 1-3.242-12.285 52.3 52.3 0 0 1 .79-15.331 37.16 37.16 0 0 1 8.633-15.926 42.9 42.9 0 0 1 19.663-12.837 27 27 0 0 1 7.431-1.18c17.128-.085 34.252 0 51.379-.043a46.97 46.97 0 0 1 24.791 6.317 39.9 39.9 0 0 1 16.68 19.112 7.1 7.1 0 0 1 .514 1.9c.007 1.431-.39 2.122-1.904 2.122h-22.477a2.46 2.46 0 0 1-2.57-1.74 18.43 18.43 0 0 0-12.742-11.074 40.4 40.4 0 0 0-12.623-1.647c-5.649 0-11.318-.085-16.988.217a35.8 35.8 0 0 0-16.893 3.95 22.15 22.15 0 0 0-10.32 10.819 22.7 22.7 0 0 0-1.434 7.549 63.3 63.3 0 0 0 .774 11.68 16.67 16.67 0 0 0 5.977 9.172 28.98 28.98 0 0 0 19.25 7.22c6.954.255 13.92.594 20.872.501a30.84 30.84 0 0 0 14.632-2.994 25.3 25.3 0 0 0 10.841-12.38c1.287-2.866 1.173-2.897 4.331-2.897 6.828 0 13.666.077 20.494 0 2.72 0 3.079.957 2.247 3.43a40.7 40.7 0 0 1-7.305 12.401 43.7 43.7 0 0 1-24.675 16.064 57.3 57.3 0 0 1-11.148 1.314c-8.505.088-17.02 0-25.535 0z" class="b" style="fill:#000;fill-opacity:1;stroke-width:.264583" transform="translate(144.128 55.244)"></path><path d="M99.602 433.156c-3.677-3.722-7.426-7.543-11.211-11.328q-28.977-28.977-57.954-58.017l-54.866-54.857-63.134-63.034q-27.972-27.972-55.952-55.935c-.907-.907-.743-1.386.068-2.183q16.436-16.354 32.817-32.771l49.885-49.895 53.037-53.019 64.6-64.618 41.564-41.555c.435-.435.907-.842 1.24-1.188L343.871 188.87Zm212.844-244.285L99.982-23.593-112.474 188.87 100 401.354Z" class="a" style="fill:#096532;fill-opacity:1;stroke-width:.264583" transform="translate(144.128 55.244)"></path><g style="fill:#096534;fill-opacity:1;stroke-width:.0323828"><path d="M-20.088 20.292a1.74 1.74 0 0 0 .557-1.319 7 7 0 0 1-.098-1.113 2.65 2.65 0 0 1 .604-1.35c.103-.148.221-.284.336-.423.078-.093.156-.105.213.024a3.05 3.05 0 0 1 .325 1.644.89.89 0 0 0 .403-.679 4.4 4.4 0 0 0 .026-.952 2.43 2.43 0 0 1 .374-1.642c.13-.215.242-.45.373-.67.131-.218.262-.21.35.025a6 6 0 0 1 .183.758c.017.074.024.152.034.229l.055.026a4 4 0 0 0 .382-.393 3.4 3.4 0 0 1 1.361-1.107 2.3 2.3 0 0 1 .478-.143c.131-.026.209.048.2.195a1.83 1.83 0 0 1-.345.877 2.1 2.1 0 0 1-1.04.849c-.121.047-.234.114-.394.193a5 5 0 0 1 .548.057c.284.066.338.22.185.465a1.83 1.83 0 0 1-1.483.847.69.69 0 0 0-.509.238c-.188.237-.37.478-.555.718l.025.042q.402-.086.806-.17c.145-.03.292-.065.44-.08.268-.028.393.14.245.367a13 13 0 0 1-.841 1.138 1.65 1.65 0 0 1-1.502.554c-.462-.041-.821.35-1.057.8a1.66 1.66 0 0 1 1.484-.189.4.4 0 0 1 .28.173c.024.075-.066.212-.14.292a3.8 3.8 0 0 1-1.24.979 1.8 1.8 0 0 1-.587.15 1 1 0 0 0-.933.656c-.25.576-.524 1.144-.786 1.712a.8.8 0 0 1-.455.418c-.315.122-.621.262-.933.393a1 1 0 0 1-.219.034.86.86 0 0 1 .262-.536c.485-.647.978-1.289 1.457-1.94a.69.69 0 0 0 .03-.803 2.8 2.8 0 0 1-.406-.936 2.2 2.2 0 0 1 .406-1.712 6 6 0 0 1 .421-.524.31.31 0 0 1 .262-.076c.047.01.1.16.084.233-.118.599.24 1.103.334 1.67zM1.39 20.22a1.06 1.06 0 0 0-.917-.719 1.87 1.87 0 0 1-1.449-.41 5.4 5.4 0 0 1-.879-1.088c-.094-.152-.24-.335-.111-.493.13-.159.338-.073.513-.035.327.069.656.144 1.03.229-.07-.109-.111-.181-.16-.247-.107-.145-.22-.285-.327-.43a.8.8 0 0 0-.613-.339 1.88 1.88 0 0 1-1.373-.705c-.101-.13-.238-.272-.155-.45s.27-.18.439-.189a1 1 0 0 0 .314-.04c-.13-.062-.251-.132-.38-.185a2.31 2.31 0 0 1-1.326-1.53c-.031-.103-.034-.281.027-.328a.44.44 0 0 1 .344-.013 3.28 3.28 0 0 1 1.621 1.179 3 3 0 0 0 .307.328.4.4 0 0 0 .13.055 1 1 0 0 0 .05-.131c.067-.282.11-.573.203-.846.08-.231.21-.24.332-.027a7.6 7.6 0 0 1 .663 1.272 3.3 3.3 0 0 1 .076 1.07A2.5 2.5 0 0 0-.05 17.51a.9.9 0 0 0 .215.22 3.3 3.3 0 0 1 .281-1.457.7.7 0 0 1 .092-.182c.056-.076.117-.097.194 0a3.4 3.4 0 0 1 .91 1.646 3.6 3.6 0 0 1-.065 1.105 1.75 1.75 0 0 0 .592 1.481c.102-.48.206-.95.299-1.423.014-.075-.034-.161-.024-.238a.45.45 0 0 1 .101-.274c.044-.033.185.026.262.077a.8.8 0 0 1 .224.248 4.4 4.4 0 0 1 .55.988 1.97 1.97 0 0 1-.198 1.658 4 4 0 0 0-.196.363.6.6 0 0 0 .036.655c.452.625.917 1.242 1.374 1.864.118.16.24.318.35.483.026.04.014.105.02.157-.053 0-.113.029-.158.012a9 9 0 0 1-1.213-.524 1.4 1.4 0 0 1-.393-.595q-.336-.707-.634-1.433a.87.87 0 0 0-.818-.61 2.2 2.2 0 0 1-1.369-.613 8 8 0 0 1-.584-.553c-.209-.21-.17-.378.118-.43a4.7 4.7 0 0 1 .964-.089 1.7 1.7 0 0 1 .51.173" class="a" style="fill:#096532;fill-opacity:1;stroke-width:.0323827" transform="translate(317.153 4.076)scale(8.17048)"></path></g><path d="M271.76 61.785v42.858l25.193 31.785h15.012l-15.012 170.715h-16.775l-11.07 121.072h217.691l-11.072-121.072H458.95l-15.01-170.715h15.01l25.195-31.785V61.785h-25.195v21.43h-21.603v-21.43h-25.192v21.43h-21.605v-21.43h-25.196v21.43H343.75v-21.43h-25.193v21.43h-21.604v-21.43Z" style="fill:none;fill-opacity:1;stroke:#000;stroke-width:11.3386;stroke-linecap:square;stroke-linejoin:round;stroke-miterlimit:4;stroke-dasharray:none;stroke-opacity:1;paint-order:markers fill stroke" transform="matrix(.26458 0 0 .26458 144.128 55.244)"></path><path d="M78.569 81.265H100M72.95 104.369h11.335M72.95 96.904h14.079M74.036 88.163h8.951" style="fill:none;fill-opacity:1;stroke:#000;stroke-width:3;stroke-linecap:square;stroke-linejoin:round;stroke-miterlimit:4;stroke-dasharray:none;stroke-opacity:1;paint-order:markers fill stroke" transform="translate(144.128 55.244)" data-source="https://football-logos.cc"></path><path d="M77.532 81.265v9.166M76.54 104.369v4.292M80.482 94.647v9.722M82.987 88.163v2.174M82.987 88.163v-2.174M75.704 96.904v-2.175M85.125 95.433V93.26M80.482 73.533H100M85.125 81.265v-7.732M95.18 73.533v7.732M89.887 60.476h-9.405M89.155 58.067v11.48M87.1 66.996H100M96.94 66.358v6.166M94.33 60.476H100M94.83 58.281v2.195M94.83 59.773v2.195M87.798 54.222H100M90.02 36.097v18.125M86.077 47.841H100M86.077 36.097V47.84M82.37 43.532H100M82.987 36.097H100M72.95 27.596H100M82.386 27.662l1.298 8.502M89.922 27.855l.763 7.532M97.205 27.705l.763 7.532M87.856 86.037v-4.772M87.856 85.375h4.276M92.132 82.163v7.217M78.811 80.582h20.947M85.059 112.888c0-12.924 3.759-25.959 14.974-25.959" style="fill:none;fill-opacity:1;stroke:#000;stroke-width:3;stroke-linecap:round;stroke-linejoin:round;stroke-miterlimit:4;stroke-dasharray:none;stroke-opacity:1;paint-order:markers fill stroke" transform="translate(144.128 55.244)"></path><path d="M100 91.44c-7.868 0-10.765 9.857-10.765 21.749" style="fill:none;fill-opacity:1;stroke:#000;stroke-width:3;stroke-linecap:round;stroke-linejoin:round;stroke-miterlimit:4;stroke-dasharray:none;stroke-opacity:1;paint-order:markers fill stroke" transform="translate(144.128 55.244)"></path><path d="M121.431 81.265H100M127.05 104.369h-11.335M127.05 96.904h-14.079M125.964 88.163h-8.951" style="fill:none;fill-opacity:1;stroke:#000;stroke-width:3;stroke-linecap:square;stroke-linejoin:round;stroke-miterlimit:4;stroke-dasharray:none;stroke-opacity:1;paint-order:markers fill stroke" transform="translate(144.128 55.244)"></path><path d="M122.468 81.265v9.166M123.46 104.369v4.292M119.518 94.647v9.722M117.013 88.163v2.174M117.013 88.163v-2.174M124.296 96.904v-2.175M114.875 95.433V93.26M119.518 73.533H100M114.875 81.265v-7.732M104.82 73.533v7.732M110.113 60.476h9.405M110.845 58.067v11.48M112.9 66.996H100M103.06 66.358v6.166M105.67 60.476H100M105.17 58.281v2.195M105.17 59.773v2.195M112.202 54.222H100M109.98 36.097v18.125M113.923 47.841H100M113.923 36.097V47.84M117.63 43.532H100M117.013 36.097H100M127.05 27.596H100M117.614 27.662l-1.298 8.502M110.078 27.855l-.763 7.532M102.795 27.705l-.763 7.532M112.144 86.037v-4.772M112.144 85.375h-4.276M107.868 82.163v7.217M121.189 80.582h-20.947M114.941 112.888c0-12.924-3.759-25.959-14.974-25.959" style="fill:none;fill-opacity:1;stroke:#000;stroke-width:3;stroke-linecap:round;stroke-linejoin:round;stroke-miterlimit:4;stroke-dasharray:none;stroke-opacity:1;paint-order:markers fill stroke" transform="translate(144.128 55.244)"></path><path d="M100 91.44c7.868 0 10.765 9.857 10.765 21.749M100 57.004v-3.568" style="fill:none;fill-opacity:1;stroke:#000;stroke-width:3;stroke-linecap:round;stroke-linejoin:round;stroke-miterlimit:4;stroke-dasharray:none;stroke-opacity:1;paint-order:markers fill stroke" transform="translate(144.128 55.244)" data-source="https://football-logos.cc"></path><!-- source: https://football-logos.cc --></svg>