<svg xmlns="http://www.w3.org/2000/svg" xml:space="preserve" viewBox="40.61 11.66 175.78 234.33"><!-- Source: https://football-logos.cc --><path d="M964.914 88.914c-.394 0-.781.008-1.176.012-.39-.004-.781-.012-1.175-.012zM508.98 564.844s39.883-475.02 454.758-475.918c414.872.898 454.762 475.918 454.762 475.918v744.596H508.98zM1617.79 1691.83l-22.19 9.83c-9.15 5.08-12.01-7.65-12.01-7.65l-5.84-11.65c-2.14-8.35-8.09-5.38-8.09-5.38-6.21 3.63-3.58 7.57-3.58 7.57l5.57 13.66c8.52 12.15 1.53 14.64 1.53 14.64l-15.09 6.62c-10.88 6.92-13.82-7.27-13.82-7.27l-5.49-13.09c-3.21-8.38-10.14-3.27-10.14-3.27-6.18 2.54-1.46 7.27-1.46 7.27l5.12 12.71c7.5 11.68 0 13.85 0 13.85l-24.78 8.74c-4.61-.78-6.62-12.42-6.62-12.42-9.32-21.62-17.03-11.61-17.03-11.61-8.37 3.28 1.36 19.7 1.36 19.7 7.1 13.13 2.29 14.14 2.29 14.14l-23.31 8.76c-10.92 6.55-12.73-7.68-12.73-7.68l-20.03-60.01c-8.36-11.64 8.39-14.18 8.39-14.18 10.21-3.66 10.21-9.83 10.21-9.83l-.24-23.65c1.06-14.93-5.22-12.39-5.22-12.39l-22.22 6.9c-12.01 8.02-12.73-7.26-12.73-7.26-6.21-15.27-13.48-8.38-13.48-8.38-8.84 1.45-3.62 11.66-3.62 11.66 9.12 11.26-1.46 13.8-1.46 13.8l-22.08 8.02c-10.07 3.63-10.28-13.84-10.28-13.84-4.74-10.9-14.23-2.16-14.23-2.16-12.72 1.44-3.61 14.19-3.61 14.19 5.46 11.26-4.37 11.64-4.37 11.64l-26.58 7.64c-9.46 4.37-9.84-9.09-9.84-9.09-3.64-14.93-9.07-9.1-9.07-9.1-7.31.36 0 12.73 0 12.73 4.33 9.83-4 11.66-4 11.66l-21.5 4.35c-7.98 5.1-9.42-10.55-9.42-10.55-.74-12.37-8.73-8.36-8.73-8.36-9.11 2.19-1.85 11.64-1.85 11.64 5.12 13.09-3.65 12.01-3.65 12.01l-15.25 5.83c-10.58 3.63-5.12 14.17-5.12 14.17l11.67 14.2c3.62 10.54 19.25 6.89 19.25 6.89 13.85-6.89 15.32 8.02 15.32 8.02l12.01 57.51c7.99 17.11-2.21 16.72-2.21 16.72l-19.63 5.46c-13.1 4.74-10.95-6.56-10.95-6.56l-3.24-17.47c-1.09-10.53-9.12-5.78-9.12-5.78-7.98 1.79-4.71 7.97-4.71 7.97l2.19 14.94c3.62 14.56-6.56 13.45-6.56 13.45l-21.49 3.31c-9.05 2.51-7.99-6.94-7.99-6.94l-1.81-18.57c-.75-7.66-6.93-5.1-6.93-5.1-5.8 0-3.61 6.58-3.61 6.58l1.05 15.28c6.18 13.8-5.8 13.08-5.8 13.08l-21.87 1.47c-10.55 1.45-7.61-6.92-7.61-6.92l-1.47-17.48c-1.47-8.34-6.9-4.35-6.9-4.35-8.02.73-4.74 6.19-4.74 6.19l1.1 13.45c4.36 12.77-5.13 13.11-5.13 13.11l-24.02 2.52c-13.07 2.2-10.14-7.61-10.14-7.61l-1.46-17.13c1.46-9.8-9.46-6.54-9.46-6.54-9.08 0-5.11 10.94-5.11 10.94 7.64 26.57-6.18 23.65-6.18 23.65l-20.75 1.43c-15.25.38-11.27-8.74-11.27-8.74l-2.18-67.29c-2.56-11.66 9.08-9.83 9.08-9.83 11.67-.72 12.76-5.46 12.76-5.46l11.64-15.29c6.55-6.89 2.15-13.07 2.15-13.07-.72-10.58-18.19-9.11-18.19-9.11-8.71-.4-8.36-9.85-8.36-9.85-4.74-16.72-5.8 2.92-5.8 2.92 1.43 11.99-8.37 9.08-8.37 9.08l-18.56.41c-12.01 2.5-10.54-11.66-10.54-11.66 1.8-15.28-8.021-11.65-8.021-11.65-10.547-3.28-7.273 15.29-7.273 15.29 1.468 11.26-9.075 9.83-9.075 9.83l-16.414-.74c-13.789 1.79-9.832-11.28-9.832-11.28 3.653-16.73-7.644-12.38-7.644-12.38-10.172-2.91-6.176 13.1-6.176 13.1 1.469 12.73-6.18 10.92-6.18 10.92l-27.672-2.56c-6.898 1.49-3.964-12.35-3.964-12.35 2.152-14.21-8.051-10.18-8.051-10.18-9.453-1.48-5.426 11.25-5.426 11.25 1.809 15.27-9.832 12-9.832 12l-18.187-.72c-12.731.72-6.555 17.13-6.555 17.13l6.555 10.89c4.746 13.14 13.789 12.41 13.789 12.41 13.476-2.92 9.144 12.72 9.144 12.72l-4.027 62.57c1.847 16.04-7.645 10.93-7.645 10.93l-23.273-1.83c-10.957 1.47-6.176-6.53-6.176-6.53l1.773-18.94c3.684-9.46-6.554-7.65-6.554-7.65-9.418-1.81-6.516 5.84-6.516 5.84l-2.187 14.91c2.562 13.84-8.36 9.86-8.36 9.86l-24.398-2.21c-10.922-.34-6.555-6.54-6.555-6.54l2.555-18.58c4-9.46-4.363-7.99-4.363-7.99-8.329-2.56-7.27 3.63-7.27 3.63l-1.469 13.84c.41 16.37-8.019 12.38-8.019 12.38l-23.274-3.28c-9.793 0-6.172-8.38-6.172-8.38l2.18-18.55c1.809-10.94-7.988-8.75-7.988-8.75-10.953-2.9-10.199 6.19-10.199 6.19l-2.563 14.56c.34 14.18-9.078 9.11-9.078 9.11l-19.656-4.38c-12.762-2.17-6.926-9.48-6.926-9.48l3.273-16c3.653-6.89-5.086-7.25-5.086-7.25-10.203-2.2-7.98 3.24-7.98 3.24l-4.031 16.02c.343 13.47-7.61 7.99-7.61 7.99l-22.254-3.62c-10.882-1.43-6.171-10.9-6.171-10.9l15.664-65.51c3.238-10.58 12.011-6.56 12.011-6.56 7.645 3.28 12.391-.35 12.391-.35l31.633-25.85-.344-8.02c2.496-11.27-4.059-5.07-4.059-5.07 0 7.62-9.418 3.99-9.418 3.99l-26.21-7.63c-10.512-1.46-5.086-9.84-5.086-9.84 6.929-16.37-2.223-15.29-2.223-15.29-7.981-2.53-9.043 8.74-9.043 8.74-.746 14.93-9.484 11.29-9.484 11.29l-25.457-7.27c-10.239-2.91-3.278-16.02-3.278-16.02 2.903-9.11-3.992-9.83-3.992-9.83-9.148-1.82-8.769 8.74-8.769 8.74-2.149 12.73-9.422 9.45-9.422 9.45l-24.77-6.54c-12.019-3.27-5.09-13.47-5.09-13.47 4.778-13.46-4.746-12.73-4.746-12.73-7.609-2.92-9.074 8-9.074 8-2.184 9.47-8.359 7.27-8.359 7.27l-26.215-9.45c-4.367-1.81-2.934-6.55-2.934-6.55l2.934-8.75c2.906-7.25-4.367-7.25-4.367-7.25-5.461-2.19-8.36 3.27-8.36 3.27l-17.476 24.4c-4.743 21.46 5.464 29.82 5.464 29.82 7.649 4.71 4.372 9.83 4.372 9.83l-25.497 66.58c-2.898 8.74-10.543 5.84-10.543 5.84l-24.746-9.83c-6.171-3.28-2.902-7.66-2.902-7.66l8.367-20.39c1.434-5.46-3.652-6.54-3.652-6.54-4.367-2.54-6.555 0-6.555 0l-9.797 18.92c-3.273 10.21-10.953 6.18-10.953 6.18l-16.722-8.34c-7.266-3.67-3.614-8.74-3.614-8.74l7.645-20.01c2.179-5.84-3.278-6.2-3.278-6.2-4.746-3.27-6.929-.36-6.929-.36l-9.828 19.31c-3.278 9.8-9.453 6.19-9.453 6.19l-20.036-9.11c-5.457-2.91-2.898-7.29-2.898-7.29l9.109-20c4.711-8-1.468-8.74-1.468-8.74-7.641-3.67-9.825.74-9.825.74l-8.363 17.1c-2.527 9.82-10.922 6.17-10.922 6.17l-13.476-7.28c-7.985-2.92-5.805-9.82-5.805-9.82l23.312-51.66c11.258-22.18 28.356-30.92 28.356-30.92 12.016-10.58 25.117-3.28 25.117-3.28 7.27 4 11.641-.41 11.641-.41 4.746-3.62 32.726-53.46 32.726-53.46 5.086-5.1 3.313-10.56 3.313-10.56-4.746-5.08.336-11.66.336-11.66 4-6.91 8.023-7.98 8.023-7.98 6.895-.36 9.453-5.48 9.453-5.48l39.657-68.39c4.027-5.46.75-8 .75-8l-6.586-4.76c-6.18-3.26-3.622-10.17-3.622-10.17l8.364-19.28c3.277-9.47 11.301-6.57 11.301-6.57 5.425 1.11 6.171-.72 6.171-.72l9.829-20.35c3.652-5.84 0-7.65 0-7.65l-13.821-10.58c-5.117-2.91-1.84-7.27-1.84-7.27l9.106-18.9c4.371-13.11 13.445-5.13 13.445-5.13 6.93 3.66 11.953-2.02 11.953-2.02v-1.94h872.627c.07 4.12 4.44 3.96 4.44 3.96 3.99-6.89 12.35.38 12.35.38l10.95 21.83c6.9 8.73-1.84 14.19-1.84 14.19l-6.55 5.1c-8.74 3.28-3.28 8.74-3.28 8.74l9.08 19.99c9.11-1.8 10.54 4.04 10.54 4.04l9.15 18.19c8.71 12.38.72 16.36.72 16.36-6.55 5.82-1.84 10.9-1.84 10.9l38.59 68.43c2.15 5.1 6.18 6.17 6.18 6.17 5.83.38 9.08 6.18 9.08 6.18 5.8 3.67 3.65 10.22 3.65 10.22-4.74 10.53 1.43 14.53 1.43 14.53l28.77 49.51c3.66 7.27 9.83 5.09 9.83 5.09 6.52-1.81 7.99-.38 7.99-.38 1.09 1.85 8.73 4.03 8.73 4.03 6.18 1.09 10.55 7.27 10.55 7.27 2.22 4.74 6.55 6.18 6.55 6.18 6.21.71 9.86 6.91 9.86 6.91l28.37 55.33c11.63 12.37 0 17.82 0 17.82" style="fill:#231f20;fill-opacity:1;fill-rule:evenodd;stroke:none" transform="matrix(.13333 0 0 -.13333 0 257.333)" data-source="https://football-logos.cc"></path><path d="M1418.5 1313.31H505.422V564.668l.016-.176c.101-1.199 10.769-121.183 72.421-239.527 36.27-69.617 82.825-125.11 138.368-164.922 68.855-49.359 151.734-74.555 246.336-74.965v-.039h2.351v.04c94.606.41 177.476 25.605 246.336 74.964 55.54 39.812 102.1 95.305 138.37 164.922 61.65 118.344 72.33 238.328 72.42 239.527l.02.176v748.642z" style="fill:#231f20;fill-opacity:1;fill-rule:evenodd;stroke:none" transform="matrix(.13333 0 0 -.13333 0 257.333)"></path><path d="M519.105 520.914c5.946-31.84 16.821-77.844 36.063-127.844h817.142c19.24 50 30.12 96.004 36.07 127.844z" style="fill:#fff;fill-opacity:1;fill-rule:evenodd;stroke:none" transform="matrix(.13333 0 0 -.13333 0 257.333)"></path><path d="M647.934 408.566h-20.047v95.961h68.297v-16.972h-48.25v-21.653h42.234V448.93h-42.234zM731.289 408.566h-20.051v19.512h20.051zM986.75 473.121c-1.602 5.742-4.68 16.574-21.25 16.574-9.625 0-23.789-6.418-23.789-33.55 0-17.239 6.812-32.743 23.789-32.743 11.094 0 18.844 6.278 21.25 18.043h20.05c-4.01-20.851-17.644-35.418-41.702-35.418-25.528 0-43.836 17.239-43.836 50.383 0 33.551 19.379 50.656 44.101 50.656 28.739 0 40.367-19.781 41.437-33.945zM1055.2 408.566h-20.05v19.512h20.05zM1278.79 408.566h-20.06v78.989h-29v16.972h78.06v-16.972h-29zM1342.16 408.566h-20.05v19.512h20.05z" style="fill:#231f20;fill-opacity:1;fill-rule:evenodd;stroke:none" transform="matrix(.13333 0 0 -.13333 0 257.333)"></path><path d="M1205.17 599.793c-6.44 7.758-14.61 16.062-9.33 25.656-.61 4.735 3.68 11.903-6.22 10.571-20.82 8.503-13.05 35.675-12.45 48.304-11.1-14.144-30.15-20.179-48.21-16.605-9.92 5.105-16.93 11.898-21.77 21.133-3.71 26.234 27.79 34.156 41.99 46.793 2.9 8.875 1.34 19.07-4.66 25.668 14.93 7.742 32.83 15.281 43.54 27.187 3.67 7.719 12.23 16.023 14 25.664 16.51 33.383 3.28 73.375-12.44 102.652-17.72 28.461-39.87 59.399-32.67 96.614 4.85 8.44 10.68 19.01 23.35 16.6 6.37-3.26 11.43-9.67 12.42-16.6 3.29-14.188-7.59-31.934 3.12-45.289 11.44-9.278 8.72 26.191 17.12 10.558 4.04-16.449-2.96-39.082 6.2-52.832.17 23.551 5.61 41.668 1.57 64.91-5.28 9.593-3.35 25.063-12.45 30.193-1.77 1.29-1.77 2.04 0 3.02-7.23 6.94-17.72 19.39-31.11 16.6-11.49-.23-15-9.66-23.33-16.6-29.36-73.431 60.05-110.408 49.78-184.17-2.17-7.746-2.17-18.316-6.23-24.152-12.66-16.805-32.1-44.355-59.1-37.742-23.92 31.5-69.8 42.816-74.66 86.047-14.2 22.433-11.86 51.492-14 78.492-4.47 5.074-7.2 10.734-7.77 16.617 11.46 23.172 13.02-10.035 26.44-9.066 7.96-5.125 5.25 3.183 0 4.535-4.47 25.054 14.18 46.569 7.77 72.459 11.86 6.56 20.41-10.8 29.56-15.09.18 15.24-1.13 42.24 1.81 56.44 5.61 9.19 8.87-15.16 15.29-14.18 23.13-2.49-5.25 8.06 1.56 19.63 3.3 5.8-8.37 15.99 4.67 13.59 11.84-8.16-3.32 4.29-1.56 7.54.57 11.08-8.36 21.65-3.11 30.2 2.51 1.26 4.07-1.38 6.22-3.02 4.47-3.26 12.63-6.28 17.12-3.01-18.49 14.84-20.83 31.82-34.22 48.3-5.26 5.78-11.09 9.56-15.56 16.61-14.2 1.62-27.42 9.93-41.98 4.53-18.48-6.3-41.41-6.3-60.667-6.04 9.537-5.54 1.363-12.71-6.219-12.07 2.137-11.21 16.536-13.86 23.326-24.17 7.19-8.17 3.7-17.99 4.66-27.16-6.01-19.5-17.681 5.03-27.986 3.01-1.746-4.02-1.746-8.55-4.668-12.07-9.515-16.86 15.372-4.03 17.104-16.61 3.32-6.28.19-13.83-3.119-19.63 14.589-.24 25.879 12.58 38.899 12.08-4.47-10.44-5.26-25.53-4.67-34.71 8.76 7.68 24.29 12.21 24.88 27.16 3.3 2.78 5.25 14.85 10.89 7.55-5.25-14.96.97-28.92 12.45-39.25-3.71 14.48 7.88 47.04 13.91 60.5 4.08 1.64 6.4-2.14 9.34-4.54-16.93-14.58-8.68-45.63-13.93-65.02-1.36-.99-2.14-1.74-3.11-3.03-4.48 1.67-9.14 1.67-12.43 4.54-14.98 36-34.03-10.79-55.99 3.02 6.41 9.19 6.03 22.78 7.77 31.7-2.13-2.5-13.01-6.65-20.23-7.55-15.342 1.28-41.006-6.65-51.318 12.08-7.559 6.17-6.785-4.01-9.328-7.54-.18-8.56 19.254-18.35 4.664-24.16-11.844-3.64-24.282-.24-32.668 7.54-.559-2.88-5.996-5.89-1.543-9.05 7.976-16.83-7.176-7.41-15.555-7.55-.176-4.38-.57-9.67 1.555-13.59 1.773-7.02 14.597-9.66 7.781-16.6-39.844 7.69-47.223-34.57-77.77-45.288-4.832-4.75-17.269 4.3-15.562-4.532 6.461-6.254 17.34-6.254 24.887-6.039-6.383-27.023 2.175-64.371-23.328-80.015 16.55-3.235 25.503 12.996 37.332 18.129 6.824-13.047-6-32.286-7.786-39.258 11.895 5.074 23.168 18.293 37.332 22.633-4.835-18.305-21.773-42.856-30.152-61.899-11.828-4.351-26.086-25.488-43.805-22.648-3.433 1.695-6.757 2.851-9.996 3.449v-.457h-20.675v-57.277c5.941.492 13.414.769 20.675.574v-.024c4.754-5.07 7.973-11.226 6.887-18.73 8.777 9.633 13.441 16.801 20.219 27.172-5.61 35.66 63.676 37.945 75.512 64.937 13.046-.949 16.542 11.129 21.777 19.629 3.32 6.586 9.922 5.457 15.555 7.535 11.085.934 7.976 13.012 10.878 19.629 3.317 9.235 13.817 18.668 21.778 6.035-1.738-9.625-9.121-17.179-10.883-27.164-2.91-11.523 10.703-14.164 13.992-22.648 24.685-23.965 68.625-6.231 88.655-39.246 11.07-16.418-.59-34.903-7.78-49.824-28.57-23.946-18.85-65.844-18.66-98.122 7.19 2.844 5.24 13.805 12.45 16.602 17.69-8.465 20.01-27.348 26.44-40.75 7.97 10.766-2.93 25.117 3.11 34.711 5.62-3.184 13.79-13.363 23.32-7.547 13.79 9.641 30.51 16.809 48.21 13.586 9.13-1.289 14.18-8.844 18.67-16.602 6.78-12.617 2.11-29.597-12.42-36.234-12.29-3.93-23.95 1.356-35.8 1.516 4.47-4.313 2.52-12.993 10.9-15.098 16.89-10.352-12.65-15.25-15.55-25.668 7.17-.156 12.23-5.059 20.21-4.531 11.84 6.269 25.84 11.551 34.23 22.644 3.66-8.074-1.79-19.773 4.65-27.175 2.51-.528.96 3.257 1.56 4.531 7.56 17.586 23.5 30.039 37.32 42.273 10.67 10.781-8.77 6.246-10.88 13.594" style="fill:#fff;fill-opacity:1;fill-rule:evenodd;stroke:none" transform="matrix(.13333 0 0 -.13333 0 257.333)"></path><path d="M755.684 1102.5c-1.704-3.65 2.957-4.79 4.66-7.56 15.797-8.15-.145-17.97 9.332-28.68 4.91-7.4-7.141-3.26-10.887-4.53-3.258-.61-5.98-3.63-4.664-7.55 12.684-4.37 4.516-17.59 9.332-25.66 3.332-7.66 9.523-10.56 16.688-11.61v87.18c-7.977 2.21-16.114 3.74-24.461-1.59M1226.95 583.176c-13.06-11.098-24.72-26.571-37.33-37.746-4.89-6.18-2.56-19.766-14-19.617-6.05 5.89-7.61 13.437-10.89 19.617-7.99-13.727-27.03-10.707-40.44-9.043-4.87 5.879-12.65 5.129-18.66 7.539-.2 14.949 37.1 22.871 12.45 39.25-4.87 2.867-9.93 7.769-9.34 13.59 17.28 14.933 42.94-17.137 54.44 9.062 2.89 10.027-7.6 14.176-10.9 21.129-24.69 13.035-35.97-13.762-60.64-9.051-1.39-14.883-7.99-28.101-20.22-39.258-13.03-3.55-2.15 9.282-3.12 13.59-1.75 11.922-1.75 25.121-14 30.192-10.31-7.332-24.68-9.985-35.76-10.567 22.75 16.809 1.74 44.742 6.22 67.934-2.91 17.57 16.13 26.238 17.1 42.266-13.8.578-34.01 7.371-43.559-6.04-10.676-11.128-10.281-22.816-7.766-37.75 3.703-11.101 27.795-7.707 12.325-22.828 2.34-17.617 4.03-37.168-10.18-52.726-9.102-10.801-10.379-24.836-15.254-37.414-9.957 3.644-12.918 12.578-23.742 11.898-8.258-21.863-39.625 2.805-45.786-23.808-6.558-2.297-12.48-6.559-20.351-5.094-12.899 13.426-30.277-18.887-40.695 1.687-3.571 15.985 29.492 19.383 13.566 32.321-9.512 1.093-26.039-3.153-30.531 10.211 7.457 12.988 10.847 29.996 27.133 35.714 4.062.243 7.449 1.938 10.175 5.11.664 7.043-8.66 9.586-5.086 17.008 24.825 3.195 35.004-23.153 54.262-35.723 16.762-2.731 21.426 17.242 32.219 25.512-1.031 5.336 1.918 12.988-5.082 13.605-8.258-1.887-12.918-11.238-22.043-10.203 4.89 17.234 20.68 37.219 9.965 52.863-6.004 1.324-12.992-5.468-20.215-7.554-7.555.589-15.723-.93-21.777 1.507 15.769 12.282 20.445 31.524 20.23 51.329-6.008 6.23-17.293 8.871-17.121 18.109 6.055-3.199 14.207-6.211 21.781-3 16.16 13.008 34.817 30.746 57.543 27.168 5.652 5.461 16.93-1.703 23.332 4.535-15.738 11.496-39.066 19.039-45.105 39.246-6.008 2.067-9.121-2.469-12.438-6.039-4.457-26.238-37.898-13.031-46.668-37.742-6.383-3.977-41.465-16.067-49.066-19.645 6.445-18.683-7.567-33.027-18.672-46.804-7.234-5.332-14.035-10.778-22.434-12.996v30.218c4.754-5.07 7.973-11.226 6.887-18.73 8.777 9.633 13.441 16.801 20.219 27.172-5.61 35.66 63.676 37.945 75.512 64.937 13.046-.949 16.542 11.129 21.777 19.629 3.32 6.586 9.922 5.457 15.555 7.535 11.085.934 7.976 13.012 10.878 19.629 3.317 9.235 13.817 18.668 21.778 6.035-1.738-9.625-9.121-17.179-10.883-27.164-2.91-11.523 10.703-14.164 13.992-22.648 24.685-23.965 68.625-6.231 88.655-39.246 11.07-16.418-.59-34.903-7.78-49.824-28.57-23.946-18.85-65.844-18.66-98.122 7.19 2.844 5.24 13.805 12.45 16.602 17.69-8.465 20.01-27.348 26.44-40.75 7.97 10.766-2.93 25.117 3.11 34.711 5.62-3.184 13.79-13.363 23.32-7.547 13.79 9.641 30.51 16.809 48.21 13.586 9.13-1.289 14.18-8.844 18.67-16.602 6.78-12.617 2.11-29.597-12.42-36.234-12.29-3.93-23.95 1.356-35.8 1.516 4.47-4.313 2.52-12.993 10.9-15.098 16.89-10.352-12.65-15.25-15.55-25.668 7.17-.156 12.23-5.059 20.21-4.531 11.84 6.269 25.84 11.551 34.23 22.644 3.66-8.074-1.79-19.773 4.65-27.175 2.51-.528.96 3.257 1.56 4.531 7.56 17.586 23.5 30.039 37.32 42.273 10.67 10.781-8.77 6.246-10.88 13.594-6.44 7.758-14.61 16.062-9.33 25.656-.61 4.735 3.68 11.903-6.22 10.571-20.82 8.503-13.05 35.675-12.45 48.304-11.1-14.144-30.15-20.179-48.21-16.605-9.92 5.105-16.93 11.898-21.77 21.133-3.71 26.234 27.79 34.156 41.99 46.793 2.9 8.875 1.34 19.07-4.66 25.668 14.93 7.742 32.83 15.281 43.54 27.187 3.67 7.719 12.23 16.023 14 25.664 16.51 33.383 3.28 73.375-12.44 102.652-17.72 28.461-39.87 59.399-32.67 96.614 4.85 8.44 10.68 19.01 23.35 16.6 6.37-3.26 11.43-9.67 12.42-16.6 3.29-14.188-7.59-31.934 3.12-45.289 11.44-9.278 8.72 26.191 17.12 10.558 4.04-16.449-2.96-39.082 6.2-52.832.17 23.551 5.61 41.668 1.57 64.91-5.28 9.593-3.35 25.063-12.45 30.193-1.77 1.29-1.77 2.04 0 3.02-7.23 6.94-17.72 19.39-31.11 16.6-11.49-.23-15-9.66-23.33-16.6-29.36-73.431 60.05-110.408 49.78-184.17-2.17-7.746-2.17-18.316-6.23-24.152-12.66-16.805-32.1-44.355-59.1-37.742-23.92 31.5-69.8 42.816-74.66 86.047-14.2 22.433-11.86 51.492-14 78.492-4.47 5.074-7.2 10.734-7.77 16.617 11.46 23.172 13.02-10.035 26.44-9.066 7.96-5.125 5.25 3.183 0 4.535-4.47 25.054 14.18 46.569 7.77 72.459 11.86 6.56 20.41-10.8 29.56-15.09.18 15.24-1.13 42.24 1.81 56.44 5.61 9.19 8.87-15.16 15.29-14.18 23.13-2.49-5.25 8.06 1.56 19.63 3.3 5.8-8.37 15.99 4.67 13.59 11.84-8.16-3.32 4.29-1.56 7.54.57 11.08-8.36 21.65-3.11 30.2 2.51 1.26 4.07-1.38 6.22-3.02 4.47-3.26 12.63-6.28 17.12-3.01-18.49 14.84-20.83 31.82-34.22 48.3-5.26 5.78-11.09 9.56-15.56 16.61-14.2 1.62-27.42 9.93-41.98 4.53-18.48-6.3-41.41-6.3-60.667-6.04 9.537-5.54 1.363-12.71-6.219-12.07 2.137-11.21 16.536-13.86 23.326-24.17 7.19-8.17 3.7-17.99 4.66-27.16-6.01-19.5-17.681 5.03-27.986 3.01-1.746-4.02-1.746-8.55-4.668-12.07-9.515-16.86 15.372-4.03 17.104-16.61 3.32-6.28.19-13.83-3.119-19.63 14.589-.24 25.879 12.58 38.899 12.08-4.47-10.44-5.26-25.53-4.67-34.71 8.76 7.68 24.29 12.21 24.88 27.16 3.3 2.78 5.25 14.85 10.89 7.55-5.25-14.96.97-28.92 12.45-39.25-3.71 14.48 7.88 47.04 13.91 60.5 4.08 1.64 6.4-2.14 9.34-4.54-16.93-14.58-8.68-45.63-13.93-65.02-1.36-.99-2.14-1.74-3.11-3.03-4.48 1.67-9.14 1.67-12.43 4.54-14.98 36-34.03-10.79-55.99 3.02 6.41 9.19 6.03 22.78 7.77 31.7-2.13-2.5-13.01-6.65-20.23-7.55-15.342 1.28-41.006-6.65-51.318 12.08-7.559 6.17-6.785-4.01-9.328-7.54-.18-8.56 19.254-18.35 4.664-24.16-11.844-3.64-24.282-.24-32.668 7.54-.559-2.88-5.996-5.89-1.543-9.05 7.976-16.83-7.176-7.41-15.555-7.55-.176-4.38-.57-9.67 1.555-13.59 1.773-7.02 14.597-9.66 7.781-16.6-39.844 7.69-47.223-34.57-77.77-45.288-4.832-4.75-17.269 4.3-15.562-4.532 6.461-6.254 17.34-6.254 24.887-6.039-6.383-27.023 2.175-64.371-23.328-80.015 16.55-3.235 25.503 12.996 37.332 18.129 6.824-13.047-6-32.286-7.786-39.258 11.895 5.074 23.168 18.293 37.332 22.633-4.835-18.305-8.125-24.657-16.503-43.704-11.829-4.347-39.735-43.683-57.454-40.843-3.433 1.695-6.757 2.851-9.996 3.449v12.777a22.3 22.3 0 0 0 3.778-1.133c2.547-2.457 7.222-.945 10.882-1.507 9.176 8.851 37.243 26.992 45.961 34.734 4.891 5.848-2.105 12.633-7.781 7.551-7.926-3.215-17.648-6.235-26.433-3.008 8.386 3.945 13.062 14.512 17.109 22.637-11.824-2.848-28.93-1.332-40.438 4.523 28.614 14.895 15.782 48.488 28 70.961-13.386-.219-22.714 5.434-28 16.606-.332 4.863-2.421 9.804-3.078 14.664v5.203a13 13 0 0 0 1.52 4.285c8.793-1.735 11.508-13.434 21.773-7.551-7.449 11.684-16.711 22.348-23.293 33.996v94.16c2.598.45 5.176 1.42 7.743 3.18-2.266 4.95-5.833 10.8-7.743 16.96v14.76c16.145 5.74 20.809-18.37 34.184-16.61 14.223-34.97 5.668-83.66 43.551-105.68 4.492 1.27 11.105-2.5 13.992 3.02-4.055 11.46-2.887 22.78 1.558 33.21 4.11-1 7.614-4.01 12.442-4.53 2.551 7.69-.172 19.01 9.34 22.64 9.929.14 7.976-14.57 20.211-13.59 4.093-.98 11.105 1.66 6.226 6.05-5.234 5.79-3.676 15.99-1.554 22.64 5.253 3.52 6.82 11.46 13.992 6.04 4.484-6.66 12.644-10.81 20.226-15.1 7.981-1.74 15.352 2.41 18.657 9.06.98 5.04-2.122 9.58-6.223 10.57-4.848-.25-13.402-.25-17.102 6.04 2.532 10.32 7.203 19.38 7.778 30.18-18.852-1.38-42.961-24.02-60.668-1.5-4.836 8.43-7.172 21.63-1.543 30.19 6.035 3.52 6.035 12.2 13.988 12.09-3.676-10.83-2.508-25.18 10.895-30.21 13.82 2.02 21.968 21.64 38.867 12.09 11.101-5.54 14.988-18.37 26.443-24.16 7.6 23.9-37.494 24.28-24.877 49.82 1.371 5.78 6.035 10.31 9.332 15.09 14.985-7.05 30.915 1.25 48.215-1.5 8.37 12.56 37.91-2.16 37.32 19.62 5.25 7.29-5.64 30.68 9.34 24.16q9.03-6.63 18.66-13.59c.2-7.81-1.36-16.87 1.56-24.15 6.01 3.51 12.23 11.06 17.1 15.09 8.74-8.57 17.29-16.86 26.45-25.66-2.16-6.68-18.1-15.15-3.9-14.14 7.18-.25 9.13 15.76 14.78.55 4.45-11.2 7.57-23.27 9.34-36.22-6.44-1.39-12.66-2.9-18.66-4.54 6.39-6.67 15.33-10.06 18.66-18.12-8.76-10.81-42.98 5.04-31.11-19.63 4.07-5.89 9.89-11.18 12.45-18.11-11.1 3.54-18.1-4.39-12.45-13.58 2.51-4.39 6.78-8.16 10.89-12.07-8.76-4.02-18.1-10.82-28-6.05-8.37-14.2-4.48-34.95-3.1-51.325-10.71.902-34.81 30.325-32.67 0-5.64-10.414-8.75-22.121-9.34-34.723 1.36-9.281 22.35-5.504 14-16.617-9.14-2.848-21.58-.586-29.54-1.5 4.46-34.942-.2-79.082 28-105.684 8.73-5.105 9.51-16.422 21.77-18.105 11.84-11.903 27.79-18.313 38.88-30.192 20.39 1.688 28.95 20.184 40.44 33.211.94 13.379 11.04 26.215 3.1 39.254 3.67 17.906-12.64 27.34-15.55 42.262-3.72 5.078-12.27 8.09-10.88 15.105-20.83 29.59-36.37 64.301-24.89 102.644 2.9 13.74 15.73 20.9 26.44 30.2 19.22 3.16 35.55-3.26 46.66-16.61 21.55-35.702 17.66-80.23 9.34-119.261-1.4-6.242 2.49-17.566-3.11-19.629-8.39 8.473-2.94 22.063-10.89 30.199-2.17 9.59-1.39 23.942-12.45 25.657-26.66 16.765-6.43 49.593-23.33 66.434-11.49 1.28-8.38-10.8-12.43-16.606-.99-19.852 12.22-37.965 18.67-57.379 32.42-32.289 40.99-85.106 32.66-131.332-6.85-23.59-28.61-39.434-48.23-51.336.17-12.637.56-25.449-7.78-34.715-16.15-8.113-36.37-15.656-38.87-36.23 6-8.09 14.56-11.489 23.32-15.094 17.29-1.676 27.4 13.41 40.45 22.648 15.71-15.273-13.05-40.941 12.43-52.836 5.61-.172 12.23 1.34 17.11-1.515-2.17-8.473-11.5-14.508-7.77-25.66 3.66-16.391 33.6-12.633 23.33-33.219" style="fill:#cfa550;fill-opacity:1;fill-rule:evenodd;stroke:none" transform="matrix(.13333 0 0 -.13333 0 257.333)"></path><path d="M1099.41 1212.7c-.99-6.68 3.3-21.4-9.34-13.59-2.52 2.76-6.42 1.25-9.32 1.52 4.86 6.52-5.26 41.24 14 19.62 3.67-1.39 1.73-5.55 4.66-7.55M1138.29 1187.04c-5.25-4.04 5.28-19.54-11.93-21.34-6.44 4.64-12.38 20.7-17.62 24.35 5.63 2.01 8.74 10.31 15.55 10.58 5.23-5.18 8.35-8.19 14-13.59" style="fill:#fff;fill-opacity:1;fill-rule:evenodd;stroke:none" transform="matrix(.13333 0 0 -.13333 0 257.333)"></path><path d="M1076.07 1149.29c-2.13-1.39-3.69-4.03-6.21-3.02-1.09 1.77 1.26 9.71-12.45 15.1-6.79-2.52-7.87-10.26-12.34 2.06.58 8.43.33 9.87 9.48 13.53 19.22 2.38 13.94-16.97 21.52-27.67" style="fill:#231f20;fill-opacity:1;fill-rule:evenodd;stroke:none" transform="matrix(.13333 0 0 -.13333 0 257.333)"></path><path d="M1161.63 1144.77c-5.28-2.9-24.49-6.29-30.11-7.91-1.77 7.66-7.26 8.79-8.6 16.22 5.23 5.02 29.55 10.3 30.92 18.86 2.9-8.93 6.4-17.23 7.79-27.17" style="fill:#fff;fill-opacity:1;fill-rule:evenodd;stroke:none" transform="matrix(.13333 0 0 -.13333 0 257.333)"></path><path d="M934.551 1135.71c17.304-2.89 33.25 24.65 46.652 6.04-19.625-1.76-30.504-22.51-51.328-12.09-14.172 5.8-12.223 18.24-7.773 28.69 4.097-5.91 3.324-16.85 12.449-22.64" style="fill:#ed1639;fill-opacity:1;fill-rule:evenodd;stroke:none" transform="matrix(.13333 0 0 -.13333 0 257.333)"></path><path d="M816.336 1122.12c-.156-3.26.625-7.04-3.109-9.05-4.434 4.65-10.266 8.04-7.77 15.09 5.281 2.39 7.227-3.64 10.879-6.04M833.449 1084.38c4.899-27.04 11.114-53.45 29.539-75.49-3.261-10.402-14.925-18.71-24.875-27.171-12.992 12.222-26.207 23.181-27.996 40.771-13.762 8.81-40.976-.62-38.879 24.15-1.707 3.17-11.816 14.1 0 7.54 2.571-.98 4.121-4 7.77-3 10.347 7.68-6.758 15.22-3.113 25.65 8.011 5.05 10.351 16.36 20.226 16.61 8.785-7.8-10.652-14.2-1.558-24.15 5.292-5.9 8.398-14.2 18.664-13.59 4.898 10.7-22.704 20.52-1.555 27.17 4.898 9.19 1.012 27.31 15.555 27.18 4.117-7.42 4.117-16.86 6.222-25.67M777.457 1093.44c.238-7.8-6.375-5.53-7.781 0-11.809 10.7 8.019 5.04 7.781 0" style="fill:#fff;fill-opacity:1;fill-rule:evenodd;stroke:none" transform="matrix(.13333 0 0 -.13333 0 257.333)"></path><path d="M1048.09 1004.37c4.85-1.37 9.52-4 15.54-3.02-9.92-8.526-17.3-26.639-35.77-19.631.59-17.199-15.75-31.547-29.559-39.254-8.735-2.485-18.836-.961-27.981-1.5-6.793 3.555-11.847 9.965-12.449 16.605 8.375 5.442 19.652 11.102 18.664 22.645-4.847-.988-11.847-6.641-18.664-7.551-20.781-.98-44.504-.223-52.879 16.606 14.215 6.953 36.762 10.718 38.875 30.19 2.543 1.27 4.11-1.37 6.231-3.01 2.925-11.55-10.293-17.962-17.11-24.161-6.394-.98-11.84-3.617-17.101-6.035 18.086-7.774 37.918-11.543 54.433 3.016.985 3.168 3.7 5.437 6.215 7.554 4.098 1.281 4.098-4.754 6.227-7.554 1.754-11.547-2.516-20.985-7.774-30.188-3.3-.219-5.238-3.242-7.781-4.531 8.367-10.031 21.199-6.633 31.094-1.516 13.039 9.977 19.259 24.317 18.669 42.274 6.42-7.391 18.87-6.637 28-4.532 1.74 1.661 2.15 3.93 3.12 6.047-13.04 3.164-25.09 16.756-26.45 28.686 10.7-2.13 14.59-17.97 26.45-21.14M883.785 956.598c-3.273-12.668-5.808-45.34-12.246-55.688-8.711 8.074-5.223 21.664-1.555 31.695.219 5.813 8.579 31.692 13.801 23.993M906.813 929.309c.984-3.989 2.16-8.895 6.226-10.571-.18 11.492 4.473 22.055 12.438 28.696 1.375.156 3.718.527 4.671-1.516.973-5.125-3.683-9.656-6.234-12.074-6.004-7.395 6.43-43.235-10.875-25.664-13.789 8.461-18.84 24.304-14.004 39.254 11.883 5.058 2.551-12.676 7.778-18.125" style="fill:#cfa550;fill-opacity:1;fill-rule:evenodd;stroke:none" transform="matrix(.13333 0 0 -.13333 0 257.333)"></path><path d="M1049.63 768.871c4.87-8.879 3.31-22.836 1.57-33.226-25.86 1.71-58.911.957-71.563-22.629-7.172-8.489-5.231-22.836-3.102-33.219 14.203-10.742 18.059-28.363 16.145-48.164-7.407-15.918-29.875-29.52-18.653-49.324-8.254 4.082-18.429 7.476-27.132 3.398-9.942-21.43-37.922 8.324-42.395-18.699-4.855-4.852-11.633-5.281-18.641-5.098-8.668 15.117-13.754-9.535-23.75-6.808 6.18 9.175 14.235 24.906 20.352 37.418.668 5.347-1.465 9.171-5.09 11.902-6.539-12.086-21.797-13.785-33.906-10.199 5.332 10.445 12.531 27.023 27.125 25.507 8.711 4.075 4.476 14.696 3.39 20.411-.605.664-1.445 1.511-1.699 1.699 15.934-12.516 30.762-49.504 59.348-34.012 10.836 6.184 22.703 18.098 28.836 28.902.64 10.872-.621 20.661-8.473 27.227-8.254 2.359-13.765-2.332-18.656-8.512 4.035 9.16 17.75 23.414 12.098 36.43-4.848 6.242-7.559 18.316-17.121 16.609-5.606-3.957-11.055-8.113-18.645-7.554 3.699 6.234 7.984 14.914 10.875 22.64 3.32 12.274-2.105 30.766 14.008 34.731 17.304 19.804 50.351 18.293 71.529 16.597 13.42-4.343 28.97-3.585 43.55-6.027" style="fill:#fff;fill-opacity:1;fill-rule:evenodd;stroke:none" transform="matrix(.13333 0 0 -.13333 0 257.333)"></path><path d="M780.145 770.426v-37.758c-4.411.184-8.887-.48-12.883-1.57-2.09 4.347 3.738 10.765 6.226 13.586-.547 7.75 1.789 22.836-7.777 25.664-.934-.559-1.707-1.703-3.109-1.508-7.153 13.394 13.062 16.793 13.996 28.691a34 34 0 0 0 3.547 2.637v-13.191a40 40 0 0 1-1.985-1.524c-.164-3.973-10.66-13.406 0-12.078a23.4 23.4 0 0 0 1.985-2.949" style="fill:#cfa550;fill-opacity:1;fill-rule:evenodd;stroke:none" transform="matrix(.13333 0 0 -.13333 0 257.333)"></path><path d="M780.145 786.977v-16.551a23.4 23.4 0 0 1-1.985 2.949c-10.66-1.328-.164 8.105 0 12.078a40 40 0 0 0 1.985 1.524" style="fill:#fff;fill-opacity:1;fill-rule:evenodd;stroke:none" transform="matrix(.13333 0 0 -.13333 0 257.333)"></path><path d="M798.375 703.934c.84.148 1.641.371 2.445.586V525.813h-20.675v206.855c7.003-.293 13.835-2.742 18.23-9.117 3.723-6.59 1.395-12.258 0-19.617M780.145 786.977v13.191c5.941 3.863 13.414 6.039 20.675 4.531v-12.777c-7.199 1.34-13.992-.133-20.675-4.945M800.82 1120.96v14.76c-.011 0-.023-.01-.031-.01-1.949-4.91-1.465-9.93.031-14.75" style="fill:#cfa550;fill-opacity:1;fill-rule:evenodd;stroke:none" transform="matrix(.13333 0 0 -.13333 0 257.333)" data-source="https://football-logos.cc"></path><path d="M790.598 743.18c-4.047 1.336-6.383-1.696-9.332-3.012.91 11.074 4.136 21.055-1.121 30.258v-37.758c7.003-.293 13.835-2.742 18.23-9.117 3.723-6.59 1.395-12.258 0-19.617.84.148 1.641.371 2.445.586v30.218c-3.019 3.227-6.66 6.024-10.222 8.442M800.82 970.727v5.203c-.285-1.723-.234-3.457 0-5.203" style="fill:#cfa550;fill-opacity:1;fill-rule:evenodd;stroke:none" transform="matrix(.13333 0 0 -.13333 0 257.333)"></path><path d="M811.988 1185.47c0 8.25-7.14 14.96-15.922 14.96h-11.375c-5.101 0-9.64-2.28-12.554-5.8-29.621 3.66-53.324 24.55-55.543 51.16-2.043 24.54 19.527 45.86 48.183 47.61 22.926 1.41 42.84-13.38 44.473-33.01l-1.277 14.81c-9.313 25.53-39.504 39.33-67.438 30.82-34.918-10.64-53.785-45.14-42.144-77.06 10.972-30.11 40.535-49.76 73.136-51.89 2.036-2.81 5.071-4.93 8.618-5.93V800.168c5.941 3.316 13.414 5.184 20.675 3.891v142.492c-.234 1.5-.285 2.992 0 4.461v124.47800000000001c-1.496 4.14-1.98 8.44-.031 12.66.008.01.02.01.031.01v83.04c6.469 1.9 11.168 7.58 11.168 14.27M1231 1495.25l-24.85 196.56s4.3 15.08-22.01 14.54l-84.7 11.58s-9.01 5.19-14.37-11.87l-72.8-174.67 44.37-4.8s11.09-3.25 12.32 8.88c0 0 14.88 101.86 60.34 97.01 0 0 36.38.38 36.48-108.8 0 0-4.33-16.55 8.8-17.37zM1535.28 1599.14l-66.18 30.3s-7.06 6.08-15.66-7.56l-120.81-149.59 53.1-23.76s3-1.53 8.06 6.06c0 0 23.75 45.48 58.66 67.21 0 0 8.06 12.15 36.85 12.67 0 0 3.52-4.07 7.62 4.53zM401.16 1600.66l66.211 30.32s7.063 6.07 15.699-7.6l120.774-149.56-53.067-23.78s-3.043-1.51-8.086 6.07c0 0-23.757 45.46-58.628 67.2 0 0-8.09 12.13-36.895 12.66 0 0-3.547-4.06-7.578 4.55zM695.309 1499.06l28.324 196.11s-4.067 15.13 22.215 14.15l84.906 10.12s9.078 5.04 14.199-12.15l69.688-175.86-44.438-4.06s-11.121-3.04-12.144 9.11c0 0-13.106 102.07-58.633 98.04 0 0-36.414 1-38.426-108.17 0 0 2.801-17.68-9.078-17.17zM1213.56 1719.8s6.07 1.14 11.77 8.34c0 0 6.42 5.32-4.57 6.07 0 0-87.19 18.58-141.76 19.69 0 0-9.86 1.54-4.17-6.04 0 0 1.88-12.52 10.24-13.27l118.25-16.69s6.07 0 10.24 1.9M1245.23 1742.92s13.24-6.42 17.64 8.73l10.04 45.49s3.79 5.66-8.02 7.2c0 0-11.33 4.19-11.74-1.54l-4.92-23.47s-4.54-7.24-9.86-6.09l-14.98 3.05s-3.96 3.41-2.08 10.96l2.28 18.97s1.54 6.83-6.41 6.83c0 0-13.69 3.79-14.81-.76l-2.7-16.68s1.16-15.53-10.21-13.64l-9.07 1.9s-8.74.38-6.83 10.24l1.5 15.53s4.58 11.36-1.87 11.75c0 0-15.19 3.79-15.94-3.01l-3.41-22.77s-3.96-7.2-10.79-6.08l-18.94 3.43s-3.79 1.9-2.29 10.99l2.67 17.44s-.38 5.68-6.45 5.68c0 0-11.75 3.79-12.5-4.18l-2.66-22.34s-.78-4.16-8.32-3.8l-20.86 1.52s-4.95-.77-6.07 6.82l2.66 20.09s1.5 6.46-7.57 6.05c0 0-9.11 1.51-9.86-7.55l-2.25-47.77s-.79-6.86 7.16-6.07c0 0 134.73-14.4 187.46-26.92M711.859 1718.68s-6.043 1.12-11.742 8.33c0 0-6.449 5.29 4.535 6.04 0 0 87.2 18.6 141.766 19.74 0 0 9.863 1.5 4.199-6.07 0 0-1.91-12.51-10.242-13.26l-118.281-16.69s-6.039 0-10.235 1.91M675.48 1740.66s-11.371-5.7-12.871 9.83l-11.738 45.49s-2.316 5.33 9.832 5.33c0 0 6.449 2.25 6.82-3.42l6.079-22.36s1.125-5.32 6.449-4.19l21.976 3.79s4.164 4.2.344 11.03l-2.629 19.69s.785 4.16 8.699 4.16c0 0 6.829 2.28 7.989-2.29l4.914-21.23s1.16-7.54 8.707-6.41l24.262 4.17s6.445.74 4.574 10.61l-3.039 17.79s-1.879 6.47 4.539 6.84c0 0 9.144 4.19 9.828-2.65l4.574-23.88s.785-5.71 7.574-4.55l18.973 3.41s3.793 1.88 2.285 10.98l-2.656 17.44s.371 5.69 6.445 5.69c0 0 11.742 3.77 12.496-4.18l2.66-22.32s.747-4.19 8.329-3.82l20.851 1.53s4.914-.75 6.078 6.81l-2.668 20.08s-1.5 6.46 7.578 6.08c0 0 9.114 1.53 9.86-7.58l2.289-47.76s.715-6.81-7.235-6.07c0 0-139.48-15.54-192.168-28.04" style="fill:#cfa550;fill-opacity:1;fill-rule:evenodd;stroke:none" transform="matrix(.13333 0 0 -.13333 0 257.333)"></path><path d="M1109.44 1677.05s1.19 9.09-4.89 10.2l-7.03 1.13s-7.06 2.15-9.21-5.9l-4.37-19.13s.82-12.17 7.92-11.26c0 0 12.05-3.23 13.21 4.84zM1199.26 1661.59s1.23 9.08-4.85 10.2l-7.02 1.13s-7.07 2.13-9.22-5.9l-4.37-19.13s.78-12.17 7.88-11.26c0 0 12.05-3.23 13.21 4.79z" style="fill:#231f20;fill-opacity:1;fill-rule:evenodd;stroke:none" transform="matrix(.13333 0 0 -.13333 0 257.333)"></path><path d="M1156.53 1514.74s10.79 95.86-28.39 110.7c0 0-34.2 10.67-55.25-96.13l6.04-1.09s17.85 95.74 48.05 87.13c0 0 30.27-2.56 23.55-98.49z" style="fill:#cfa550;fill-opacity:1;fill-rule:evenodd;stroke:none" transform="matrix(.13333 0 0 -.13333 0 257.333)"></path><path d="M820.004 1678.72s-.988 9.13 5.086 10.12l7.066 1.01s7.059 2.01 9.114-6.04l4.023-19.22s-1.023-12.14-8.086-11.13c0 0-12.117-3.03-13.141 5.06zM729.945 1664.85s-1.023 9.1 5.051 10.08l7.059 1.03s7.101 2.01 9.117-6.08l4.058-19.21s-1.019-12.12-8.121-11.09c0 0-12.113-3.04-13.105 5.03z" style="fill:#231f20;fill-opacity:1;fill-rule:evenodd;stroke:none" transform="matrix(.13333 0 0 -.13333 0 257.333)"></path><path d="M770.109 1517.27s-9.109 96.03 30.34 110.18c0 0 34.367 10.08 53.547-97.05l-6.074-1.02s-16.145 96.06-46.445 87.94c0 0-30.344-2.01-25.293-98.06zM1394.91 1582.28s-93.91 39.04-156.3 48.97l-.48-3s64.02-9.66 155.52-48.77zM1274.98 1505.19s12.09-4.51 6.11-8.58c-2-1.38-2.49-9.55-8.36-6.59l-15.08 5.03s-2.15-1.74-4.61 5.77c-2.45 7.47-.34-1.09-.34-1.09s-4.13 12.35 5.29 9.48c0 0 11.78-5.59 16.99-4.02M1316.48 1491.71s6.73-1.27 2.29-6.64c0 0-.68-6.16-9.66-5.75 0 0-16.23 6.52-17.43 6.5-1.2-.03-8.3-1.06-5.09 5.51 0 0 1.57 10.22 11.26 6.89zM1259.32 1532.96s2.36 6.42-6.79 7.62c0 0-7.1.22-5.73-5.77 0 0 3.27-16.45 6.17-12.18 0 0 4.44 1.42 4.82 4.05 0 0 1.53 5.11 1.53 6.28M1277.27 1534.6s-9.34 3.28-10.3-3.95c0 0-5.29-10.69 1.43-11.95l26.99-9.04s6.32-2.73 7.45 4.88c0 0 6.37 13.1-4.27 14.74 0 0-11.74 1.63-21.3 5.32M1322.7 1519.93s-7.41 4.27-9.83-3.72c0 0-8.87-10.78 1.88-13.24 0 0 12.86-7.12 18.01-.75 0 0 11.26 9.6 4.1 12.18zM1292.98 1548.46s4.36 2.97-2.67 6.76c-1.7.92-26.62 7.73-26.62 7.73s-5.46 2.85-6.83-3.06c0 0-5.45-7.44 1.89-9.32l25.96-8.34s6.62-4.39 8.27 6.23M1308.54 1550.03s-5.84 2.97-7.68-4.37c0 0-5.16-5.17 1.5-8.02l25.63-8.22s6.31-3.93 6.55 1.94l1.91 4.99s.65.98-2.79 5.18c-.83 1.09-25.12 8.5-25.12 8.5M1351.23 1535.39s-5.09 1.57-6.55-1.95c0 0-5.46-7.46-.28-8.65 0 0 3.41-3.02 6.59.79 0 0 6.82 5.42 3.51 7.63zM1271.03 1586.88l-20.41 5.83s-9.08 2.74-6.24-4.83c2.87-7.61-.31-1.1-.31-1.1l1.23-6.32s-.68-2.17 3.07-2.92l17.84-5.07s6.83-3.67 7.28 1.76l2.35 7.61s1.54 5.08-4.81 5.04M1320.28 1565.08s5.9 7.68-3.45 8.19l-26.62 8.94s-7.14 2.56-7.58-4.03c0 0-6.45-10.71 3.66-11.45l26.2-7.59s7.81-5.58 7.79 5.94M1359.59 1560.2l-24.06 8.12s-7.78 4.38-7.1-3.75l-2.39-5.22s-4.57-4.56 3-5.67l23.96-8.53s5.94-2.63 6.49 4.35c0 0 7.13 7.74.1 10.7M1256.69 1608.68s3.63 4.05-3.03 5.7l-8.71 2.64s-7.74-.79-4.29-5.02l1.22-5.12s.52-2.13 3.52-2.69l5.46-1.64s5.25-4.81 5.83 6.13M1295.05 1604.5l-18.97 5.41s-9.32 4.41-9.55-5.41c0 0-5.4-5.87 3.92-7.92l17.85-5.09s8.18-5.67 10.61 3.5c0 0 5.43 7.47-3.86 9.51M1344.95 1588.83l-25.05 8.86s-11.98 4.83-12.19-4.98c0 0-5.39-4.7 5.23-8.74l25.15-8.5s7.78-4.35 9.14 3.96c0 0 5.36 7.09-2.28 9.4M1373.62 1564.6s6.48-4.74 8.32 3.83c0 0 5.56 6.61-2.52 8.7l-15.73 5.58s-6.9 3.29-7.07-4.97c0 0-6.8-6.65 1.29-8.72zM1399.89 1592.24s1.54-2.83 7.75 3.21l20.54 18.84s5.53 5.09-1.05 10.12l-6.55 1.5s-7.31-1.69-7.31-6.81l-5.32-8.36s-3.63-5.31-10.1-4.52l-9.12 3.53s-8.08 1.5-7.57 11.64l3.51 12.11s6.11 5.56-8.43 8.42l-9.17 2.4s-3.01 1.71-3.62-4.06l-3.96-13.05s.3-6.83-9.01-4.78l-20.07 6.93s-6.72-1.15-3 9.64l3.41 12.42s1.57 3.89-3.99 5.19l-3.86 1.57s-15.43 8.45-16.11 1.09l-6.04-15.68s-1.53-5.51-10.64-2.47l-8.57 2.98s-7.82-.2-5.29 9.3l3.04 11.37s3.44 3.32-3.11 5.32l-4.61 1.81s-8.36 3.27-8.77-4.52l-3-13.68s-.44-5.73-8.6-4.05l-7.13 2.12s-6.96 3.34-6.63-4.72c0 0-3.95-5.13 5.29-5.97 0 0 69.59-14.93 157.09-48.84M690.012 1627.96s-99.992-18.45-157.699-44.05l1.195-2.83s58.972 26.8 156.984 43.82zM633.434 1498.12s12.558 2.8 9.761-3.89c-.925-2.25 3.102-9.37-3.414-10.07l-15.426-4.02s-.82-2.6-6.957 2.35c-6.179 4.95.336-1.09.336-1.09s-10.238 8.12-.75 10.82c0 0 12.899 1.73 16.45 5.9M675.547 1509.42s6.312 2.59 5.562-4.34c0 0 2.797-5.51-5.015-10.1 0 0-17.133-3.34-18.121-4.03-1.024-.68-6.383-5.37-7.239 1.88 0 0-4.3 9.42 5.629 11.88zM605.145 1512.86s-1.54 6.68-9.868 2.72c0 0-6.035-3.71-1.632-7.95 0 0 11.699-12.02 11.804-6.88 0 0 2.899 3.59 1.809 6.06 0 0-1.434 5.06-2.113 6.05M619.27 1524.02s-9.555-2.32-6.485-8.97c0 0 1.399-11.78 7.746-9.18l27.543 7.09s6.754 1.17 3.617 8.13c0 0-1.808 14.47-11.57 10.1 0 0-10.785-5.05-20.851-7.17M665.375 1536.48s-8.496-.48-6.246-8.52c0 0-1.504-13.83 8.84-10.08 0 0 14.672 1.06 15.496 9.18 0 0 4.195 14.21-3.176 12.49zM624.934 1544.19s2.011 4.85-5.969 4.23c-1.914-.19-26.485-8.02-26.485-8.02s-6.109-.58-4.062-6.31c0 0-.543-9.21 6.656-6.75l26.344 7.18s7.887-.12 3.516 9.67M637.117 1554s-6.515-.68-4.054-7.86c0 0-1.508-7.14 5.625-5.89l26.003 7.05s7.411.17 4.403 5.2l-1.125 5.24s.035 1.2-5.156 2.83c-1.293.41-25.696-6.57-25.696-6.57M680.871 1564.96s-5.086-1.45-4.406-5.21c0 0-.512-9.19 4.476-7.36 0 0 4.536-.71 5.114 4.19 0 0 2.765 8.3-1.227 8.36zM585.586 1564.45l-20.305-6.2s-9.078-2.62-2.558-7.46c6.515-4.82.273-1.09.273-1.09l4.504-4.62s.613-2.18 4.164-.78l17.777 5.45s7.684.66 5.122 5.47l-2.184 7.64s-1.434 5.1-6.793 1.59M638.758 1573s.75 9.69-7.336 5l-27.199-7s-7.375-1.74-4.133-7.51c0 0 .414-12.51 9.285-7.59l26.105 7.88s9.59-.41 3.278 9.22M674.418 1590.3l-24.637-6.25s-8.91-.59-3.894-7.05l.82-5.64s-1.297-6.35 5.633-3.13l24.703 5.89s6.422 1.06 3.145 7.2c0 0 1.703 10.36-5.77 8.98M561.699 1574.96s.817 5.37-5.629 3.12l-8.738-2.53s-6.078-4.87-.891-6.53l3.825-3.67s1.601-1.5 4.402-.31l5.496 1.57s6.996-1.14 1.535 8.35M596.168 1592.35l-18.871-5.83s-10.274-1.36-5.121-9.74c0 0-1.266-7.84 7.64-4.53l17.75 5.49s9.93-.29 6.965 8.72c0 0 .508 9.21-8.363 5.89M646.539 1606.37l-25.801-6.23s-12.73-2.43-7.543-10.84c0 0-1.976-6.87 9.145-4.46l25.699 6.6s8.945.56 5.531 8.29c0 0 .614 8.86-7.031 6.64M683.77 1601.68s8.019-.46 4.878 7.73c0 0 1.094 8.57-6.824 5.9l-16.242-3.87s-7.578-.99-3.211-8.02c0 0-2.078-9.28 5.836-6.6zM688.48 1636.68s2.833-1.56 4.711 6.89l3.481 27.8s2.285 2.22-2.219 3.88l-6.863-1.63s-9.078 1.43-10.063-5.34l2.25-11.88s2.489-6.86-3.382-9.72l-14.809-4.29s-5.625-4.52-8.633 7l-2.695 8.82s.137 9.61-9.59 7.19l-8.836-3.13s-9.012-1.84-6.352-6.99l2.735-8.44s3.242-6.3-5.637-9.65l-13.414-4.1s-6.48-4.26-9.242 6.8l-2.082 5.75s-2.766 8.27-8.09 6.32l-8.84-2.33s-9.383-1.62-5.937-8.14l2.867-14.13s1.742-5.36-4.777-6.65l-13.411-4.83s-6.793-4.84-11.261 3.78l-2.664 10.33s-1.606 7.12-8.192 5.22l-6.519-2.8s-8.328.11-4.403-6.67l5.157-14.21s2.421-6.9-2.528-8.26l-3.851-1.54s-7.614-.99-2.973-7.52c0 0-.512-6.47 7.715-2.14 0 0 66.445 25.38 158.347 44.61M885.117 1655s101.188 9.85 163.743 1.11l-.38-3.02s-64.05 9.48-163.019-1.16zM977.227 1546.21s-12.868-.79-8.356-6.47c1.5-1.9-.348-9.85 6.07-8.7l15.903.39s1.539-2.29 6.074 4.13c4.582 6.46 0-1.09 0-1.09s7.582 10.57-2.285 10.57c0 0-12.863-1.87-17.406 1.17M933.613 1545.46s-6.859.75-4.164-5.72c0 0-1.125-6.06 7.614-8.31 0 0 17.406 1.5 18.531 1.14 1.125-.39 7.57-3.43 6.414 3.78 0 0 1.57 10.23-8.703 9.86zM1000.33 1568.18s-.342 6.82 8.71 5.3c0 0 6.85-1.89 3.82-7.21 0 0-7.95-14.77-9.49-9.83 0 0-3.819 2.63-3.382 5.28 0 0 0 5.32.342 6.46M983.645 1575s9.828.38 8.738-6.82c0 0 1.875-11.74-4.949-10.98l-28.43-.76s-6.82-.75-5.699 6.81c0 0-2.254 14.42 8.363 12.88 0 0 11.773-1.89 21.977-1.13M935.902 1574.24s8.36 1.89 8.36-6.43c0 0 5.254-12.9-5.699-12.12 0 0-14.434-3.03-17.407 4.54 0 0-8.015 12.5-.445 12.87zM972.656 1592.82s-3.312 4.12 4.571 5.67c1.878.41 27.683-.34 27.683-.34s6.07 1.13 5.63-4.97c0 0 3.07-8.7-4.54-8.31l-27.27-.39s-7.578-2.27-6.074 8.34M958.223 1598.9s6.48 1.12 6.074-6.45c0 0 3.445-6.47-3.793-7.22l-26.891-.36s-7.199-1.89-5.699 3.79l-.34 5.3s-.371 1.15 4.129 4.19c1.16.75 26.52.75 26.52.75M913.141 1597.37s5.324 0 5.695-3.8c0 0 3.004-8.7-2.285-8.34 0 0-4.164-1.89-6.039 2.68 0 0-4.946 7.17-1.16 8.33zM1004.91 1623.14l21.19-.39s9.49 0 4.58-6.41c-4.95-6.45 0-1.14 0-1.14l-3.05-5.72s0-2.26-3.78-1.88l-18.57.38s-7.573-1.54-6.452 3.79v7.96s0 5.31 6.082 3.41M951.426 1616.68s-3.414 9.11 5.707 6.82l28.047.79s7.578.36 6.074-6.07c0 0 3.004-12.12-6.824-9.87l-27.297.38s-9.121-3.02-5.707 7.95M912.387 1623.5l25.39.79s8.7 1.89 5.696-5.7l.789-5.68s3.008-5.69-4.578-4.56l-25.383-1.13s-6.453-.78-4.949 6.08c0 0-4.539 9.45 3.035 10.2M1024.97 1639.82s-2.25 4.91 4.54 4.57h9.11s7.2-3.04 2.63-6.07l-2.63-4.57s-1.16-1.9-4.19-1.51h-5.67s-6.45-3.04-3.79 7.58M987.059 1647.02l19.691-.38s10.27 1.52 7.61-7.98c0 0 3.41-7.17-6.07-6.42l-18.563.37s-9.497-3.03-9.082 6.45c0 0-3.075 8.74 6.414 7.96M934.777 1646.64l26.543 1.16s12.871 1.09 10.211-8.36c0 0 3.785-6.04-7.578-6.83l-26.551-.76s-8.707-1.89-7.543 6.47c0 0-3.105 8.32 4.918 8.32M900.273 1631.85s-7.613-2.65-6.824 6.07c0 0-3.414 7.97 4.914 7.6l16.688.74s7.609 1.14 5.289-6.82c0 0 4.57-8.33-3.789-7.95zM883.172 1665.99s-2.25-2.29-6.414 5.29l-10.985 25.79s-1.914 4.93 4.165 4.54l5.66-.37s4.195-.78 2.699-5.71v-11.72s-.75-3.79 5.66-4.94h23.52s8.324-1.53 8.324 9.85l.75 13.28s-1.125 4.54 3.789 4.54l9.519-.38s3.411.75 2.25-4.92v-13.66s-2.25-6.47 7.168-7.21l21.227.74s6.078-2.99 5.734 8.36l.344 12.88s-.344 4.19 5.324 3.81l4.16.38s4.164.37 2.664-6.83l1.915-15.56s-2.29-5.67 9.082-5.28l23.473.76s5.69-1.15 6.07 8.7l.41 11.78s-2.28 4.16 4.51 4.16l4.95.36s5.29 0 3.41-7.56v-12.92s-1.87-5.28 6.45-6.03l10.61-.78s7.58 1.14 4.95-6.42c0 0 2.25-6.07-6.86-4.18 0 0-70.845 6.08-164.528-.75" style="fill:#cfa550;fill-opacity:1;fill-rule:evenodd;stroke:none" transform="matrix(.13333 0 0 -.13333 0 257.333)"></path><path d="M494.676 1407.1s447.301 233.47 938.554 3.04l-1.53-6.07s-436.692 230.45-935.528-3.04z" style="fill:#cfa550;fill-opacity:1;fill-rule:evenodd;stroke:none" transform="matrix(.13333 0 0 -.13333 0 257.333)"></path><path d="M514.398 1393.44s432.079 216.82 902.112-1.52l-13.61-28.8s-413.931 203.15-873.353-1.54z" style="fill:#cfa550;fill-opacity:1;fill-rule:evenodd;stroke:none" transform="matrix(.13333 0 0 -.13333 0 257.333)"></path><path d="M514.398 1344.92s394.168 221.35 894.572 6.08v-7.58s-424.54 218.3-893.072-4.57z" style="fill:#cfa550;fill-opacity:1;fill-rule:evenodd;stroke:none" transform="matrix(.13333 0 0 -.13333 0 257.333)"></path><path d="M520.473 1325.2s409.386 221.38 888.497 3.05l3.04 7.56s-415.463 216.85-897.612-4.52zM1486.78 1519.26s-27.82 13.67-87.43-75.81l-3.04 2.05s57.13 89.94 93.54 77.81z" style="fill:#cfa550;fill-opacity:1;fill-rule:evenodd;stroke:none" transform="matrix(.13333 0 0 -.13333 0 257.333)"></path><path d="m1462.04 1598.63-9.59 3.01s-5.09 4.58-7.61-3.49l-8.6-22.77s-4.03-6.58 1.5-8.07l10.62-4.06s6.1-3.02 7.6 3.55l8.09 21.74s5.05 7.05-2.01 10.09" style="fill:#231f20;fill-opacity:1;fill-rule:evenodd;stroke:none" transform="matrix(.13333 0 0 -.13333 0 257.333)"></path><path d="M1440.77 1695.17c-4.53-8.1 2.05-9.1 2.05-9.1l125.32-55.61s8.6-8.07 12.63 2.02l23.27 44.98s7.1 6.07-.51 9.61c0 0-8.06 7.08-10.62-1.5l-13.68-24.25-27.23 13.1 13.11 30.85s0 1.03-7.07 4.05c0 0-4.54 4.53-6.56-.52l-11.6-26.77-25.83 12.12 8.09 22.22s3.07 3.58 2.04 8.63l-11.09 4.5s-3.07 1.55-4.57-3.02l-12.12-24.72-31.36 12.59 8.6 21.24s4.06 5.07-1.5 7.6l-7.1 3.53s-3.55 4.52-6.55-3.53zM1549.43 1606.61s10.89 2.8 17.21 10.84c0 0-46.35 21.07-106.75 47.73 0 0-2.12-12.79 1.77-19.12 0 0 78.36-33 87.77-39.45M449.691 1520.8s27.782 13.67 87.438-75.82l3.035 2.02s-57.094 89.97-93.508 77.84z" style="fill:#cfa550;fill-opacity:1;fill-rule:evenodd;stroke:none" transform="matrix(.13333 0 0 -.13333 0 257.333)"></path><path d="m474.434 1600.14 9.629 3.04s5.05 4.54 7.574-3.53l8.597-22.76s4.063-6.55-1.5-8.09l-10.648-4.02s-6.039-3.06-7.578 3.51l-8.086 21.73s-5.051 7.11 2.012 10.12" style="fill:#231f20;fill-opacity:1;fill-rule:evenodd;stroke:none" transform="matrix(.13333 0 0 -.13333 0 257.333)"></path><path d="M479.52 1690.1c4.543-8.07-2.047-9.09-2.047-9.09l-125.313-55.57s-8.601-8.12-12.629 2.01l-23.273 44.96s-7.067 6.07.512 9.62c0 0 8.089 7.08 10.609-1.53l13.652-24.27 27.301 13.16-13.137 30.83s0 1.02 7.063 4.05c0 0 4.539 4.53 6.551-.5l11.644-26.79 29.824 14.13-8.597 22.74s-4.028 5.59 1.019 7.6l4.539 3.03s3.039 1.51 4.543-3.03l12.149-24.77 31.328 12.64-8.602 21.23s-4.027 5.04 1.535 7.56l7.067 3.54s3.512 4.57 6.582-3.54zM372.875 1602.18s-13.141 2.01-21.23 9.59c0 0 53.066 24.26 122.312 55.1 0 0 3.516-12.65-.516-19.23 0 0-89.953-38.38-100.566-45.46" style="fill:#cfa550;fill-opacity:1;fill-rule:evenodd;stroke:none" transform="matrix(.13333 0 0 -.13333 0 257.333)"></path><path d="M547.484 1322s390.598 194.93 832.506 0z" style="fill:#fff;fill-opacity:1;fill-rule:evenodd;stroke:none" transform="matrix(.13333 0 0 -.13333 0 257.333)" data-source="https://football-logos.cc"></path><!-- source: https://football-logos.cc --></svg>