<svg xmlns="http://www.w3.org/2000/svg" viewBox="27.53 175.76 735.18 735.18"><!-- Source: https://football-logos.cc --><path d="M572.537 433.375c0-152.26-123.432-275.693-275.694-275.693-152.261 0-275.693 123.432-275.693 275.693 0 152.262 123.432 275.694 275.693 275.694 152.262 0 275.694-123.432 275.694-275.694" style="fill:#279838;fill-opacity:1;fill-rule:nonzero;stroke:none" transform="matrix(1.33333 0 0 -1.33333 -.667 1121.186)" data-source="https://football-logos.cc"></path><path d="M506.828 433.375c0-115.972-94.014-209.984-209.985-209.984S86.858 317.403 86.858 433.375s94.014 209.986 209.985 209.986 209.985-94.014 209.985-209.986M296.843 172.631c35.208 0 69.352 6.891 101.489 20.484 31.047 13.133 58.934 31.935 82.885 55.887 23.952 23.95 42.754 51.838 55.887 82.884 13.591 32.136 20.484 66.283 20.484 101.49s-6.893 69.352-20.484 101.488c-13.133 31.048-31.935 58.934-55.887 82.886-23.951 23.95-51.838 42.753-82.885 55.885-32.137 13.593-66.281 20.485-101.489 20.485s-69.352-6.892-101.489-20.485c-31.047-13.132-58.934-31.934-82.885-55.885-23.95-23.952-42.753-51.838-55.885-82.886-13.592-32.136-20.485-66.281-20.485-101.489 0-35.206 6.893-69.353 20.485-101.49 13.132-31.045 31.935-58.933 55.885-82.883 23.951-23.952 51.838-42.754 82.885-55.887 32.137-13.593 66.282-20.484 101.49-20.484" style="fill:#fff;fill-opacity:1;fill-rule:nonzero;stroke:none" transform="matrix(1.33333 0 0 -1.33333 -.667 1121.186)"></path><path d="m71.12 376.165.163 7.587q3.133.123 5.525-.832a9.96 9.96 0 0 0 4.02-2.905q1.628-1.954 2.597-5.405 1.175-4.186.703-7.182-.471-2.996-2.997-5.783-2.523-2.788-7.306-4.13-6.375-1.791-10.75.633-4.376 2.425-6.114 8.618-1.36 4.847-.176 8.17 1.185 3.325 4.874 5.815l3.537-6.623q-1.068-.691-1.497-1.245a4.7 4.7 0 0 1-.944-2.006q-.222-1.092.11-2.273.75-2.674 3.321-3.487 1.913-.625 5.36.343 4.274 1.199 5.495 2.935t.564 4.075q-.634 2.267-2.254 3.065-1.62.797-4.232.63M52.557 386.698l-1.222 8.175 19.904 2.974-1.912 12.795 6.54.977L79 390.65ZM48.347 432.41l-.204 8.263 15.91.392q2.367.059 4.487-.629a9.65 9.65 0 0 0 3.735-2.227q1.614-1.541 2.292-3.26.952-2.39 1.036-5.764a37 37 0 0 0-.168-4.27q-.214-2.318-.988-3.89-.772-1.57-2.232-2.895-1.462-1.324-3.033-1.837-2.53-.83-4.496-.878l-15.91-.393-.204 8.263 16.272.401q2.183.054 3.38 1.296t1.144 3.39q-.051 2.13-1.292 3.313-1.238 1.181-3.457 1.127zM48.61 449.45l1.71 15.39q.428 3.848 2.563 5.696 2.134 1.849 4.946 1.536 2.36-.262 3.883-1.922 1.015-1.106 1.459-3.07 1.007 2.783 2.832 3.948 1.825 1.163 4.36.881 2.066-.23 3.607-1.374a7.1 7.1 0 0 0 2.315-2.919q.482-1.1.521-3.217.055-2.814-.046-3.72l-1.576-14.182zm11.35 7.128.397 3.572q.214 1.923-.368 2.748-.584.829-1.842.968-1.167.13-1.907-.55-.74-.681-.95-2.547l-.402-3.628zm10.43-1.159.466 4.2q.236 2.126-.415 3.082-.65.956-1.915 1.097-1.172.13-1.98-.655-.81-.784-1.05-2.948l-.464-4.18zM56.886 498.235l2.007 8.018 15.438-3.864q2.298-.576 4.157-1.804a9.65 9.65 0 0 0 3.006-3.143q1.145-1.914 1.34-3.752.281-2.556-.54-5.832a37 37 0 0 0-1.3-4.072q-.824-2.175-1.989-3.483-1.163-1.31-2.923-2.196t-3.413-.961q-2.659-.127-4.568.352l-15.438 3.863 2.006 8.019 15.79-3.953q2.12-.53 3.603.348 1.486.877 2.007 2.963.518 2.066-.361 3.537-.879 1.468-3.032 2.008zM61.959 515.157l3.025 7.692 18.729-7.366 4.735 12.04 6.154-2.42-7.76-19.731zM94.331 544.409l3.711 6.918q1.758-.789 3.023-.646 2.052.237 3.306 2.262.936 1.51.738 2.764-.197 1.254-1.126 1.83-.882.547-2.056.209-1.175-.34-3.545-2.78-3.905-3.985-6.844-4.89-2.947-.925-5.608.724-1.748 1.083-2.672 3.065-.924 1.98-.547 4.575.377 2.593 2.581 6.152 2.707 4.364 5.744 5.654 3.036 1.289 6.832-.462l-3.701-6.838q-1.702.684-2.931.26-1.23-.421-2.165-1.932-.768-1.241-.64-2.191.13-.951.872-1.41.544-.336 1.302-.078.767.233 2.307 1.857 3.85 3.995 6.1 5.362t4.314 1.344q2.065-.023 3.924-1.175a8.44 8.44 0 0 0 3.273-3.706q1.094-2.352.699-5.116-.397-2.763-2.446-6.07-3.6-5.807-7.213-6.662t-7.232.98M96.629 580.955l8.64 10.693q2.823 3.493 5.889 3.89 3.066.4 6.13-2.077 3.15-2.545 3.395-5.87.244-3.326-2.892-7.208l-2.84-3.514 7.715-6.233-5.24-6.486zm14.129-.698 1.267 1.569q1.498 1.852 1.456 3.123-.038 1.27-1.047 2.086-.98.789-2.186.69t-2.656-1.895l-1.474-1.824zM124.99 594.358q-4.503 4.738-4.369 9.888.133 5.148 4.849 9.628 4.833 4.592 9.913 4.482 5.078-.109 9.518-4.78 3.223-3.393 4.143-6.65.92-3.256-.093-6.515-1.012-3.26-4.234-6.32-3.275-3.112-6.41-4.109-3.14-.996-6.616-.007-3.48.99-6.702 4.383m6.018 5.668q2.78-2.928 5.083-3.175 2.3-.245 4.172 1.533 1.924 1.827 1.787 4.08-.135 2.255-3.216 5.498-2.592 2.73-4.889 2.941-2.296.214-4.18-1.575-1.806-1.714-1.684-4.033.12-2.318 2.927-5.27M158.235 606.857l-15.592 21.72 11.161 8.013q3.104 2.228 5.13 2.873 2.022.645 4.066-.078 2.041-.722 3.532-2.798 1.298-1.81 1.471-3.67a7.4 7.4 0 0 0-.587-3.644q-.484-1.133-1.732-2.545 1.483.459 2.315.454.56-.002 1.886-.369 1.328-.369 1.903-.67l7.758-3.986-7.589-5.449-8.306 4.096q-1.6.805-2.402.814a3.4 3.4 0 0 1-1.986-.662l-.585-.42 6.33-8.817zm-2.49 17.766 2.78 1.997q.452.323 1.535 1.55.558.605.578 1.455a2.53 2.53 0 0 1-.494 1.564q-.76 1.056-1.82 1.152-1.063.094-2.867-1.2l-2.898-2.08zM167.779 646.12l22.077 11.907 3.14-5.82-7.402-3.992 9.552-17.713-7.274-3.923-9.553 17.712-7.401-3.992zM196.749 660.879l7.62 3.204 10.363-24.647-7.62-3.204zM210.477 666.858l8.268 2.525 11.408-16.635.07 20.14 8.026 2.45-1.697-28.474-8.581-2.62zM278.954 665.5l7.445-1.467q-.416-3.106-1.767-5.3a9.96 9.96 0 0 0-3.555-3.46q-2.202-1.268-5.77-1.629-4.325-.437-7.196.543-2.87.979-5.181 3.946-2.313 2.966-2.813 7.908-.667 6.588 2.473 10.481t9.54 4.541q5.008.507 8.08-1.232 3.07-1.74 4.889-5.8l-7.132-2.346q-.5 1.17-.968 1.689a4.7 4.7 0 0 1-1.815 1.274q-1.039.406-2.258.283-2.764-.28-4.006-2.673-.944-1.777-.584-5.34.447-4.414 1.947-5.916t3.917-1.258q2.343.238 3.407 1.695 1.065 1.46 1.347 4.06M291.28 668.784q.222 6.532 3.99 10.046 3.765 3.515 10.265 3.29 6.663-.228 10.146-3.928 3.483-3.698 3.26-10.14-.16-4.676-1.837-7.615-1.68-2.938-4.712-4.501-3.034-1.562-7.477-1.41-4.514.154-7.422 1.693-2.911 1.54-4.643 4.715-1.731 3.173-1.57 7.85m8.26-.32q-.14-4.035 1.298-5.849t4.017-1.902q2.652-.091 4.164 1.585 1.512 1.677 1.667 6.148.128 3.762-1.33 5.548-1.457 1.79-4.053 1.878-2.49.085-4.057-1.626t-1.707-5.781M328.092 680.23l7.588-1.35 7.363-16.37 2.598 14.598 7.642-1.36-4.684-26.324-7.643 1.36-7.323 16.28-2.583-14.517-7.643 1.36zM374.595 652.87l6.217-4.35q-1.637-2.674-3.76-4.133a9.95 9.95 0 0 0-4.65-1.728q-2.526-.27-5.935.841-4.135 1.35-6.363 3.405-2.23 2.057-3.145 5.705-.915 3.647.625 8.37 2.052 6.296 6.498 8.587t10.562.297q4.785-1.561 6.891-4.393t2.127-7.282l-7.47.738q.016 1.272-.204 1.935a4.7 4.7 0 0 1-1.144 1.9q-.786.792-1.951 1.171-2.641.86-4.745-.825-1.582-1.244-2.692-4.649-1.376-4.217-.611-6.198.764-1.98 3.074-2.733 2.24-.731 3.802.173 1.564.903 2.874 3.17M387.207 650.887q2.856 5.878 7.727 7.559 4.868 1.68 10.716-1.163 5.996-2.916 7.676-7.711t-1.139-10.59q-2.046-4.208-4.772-6.212-2.728-2.005-6.135-2.2-3.408-.195-7.403 1.748-4.063 1.976-6.097 4.563-2.034 2.589-2.327 6.193t1.754 7.813m7.418-3.647q-1.767-3.632-1.19-5.873t2.899-3.37q2.384-1.16 4.45-.243 2.06.918 4.018 4.941 1.644 3.384 1.04 5.61-.607 2.226-2.942 3.362-2.24 1.09-4.367.162-2.127-.925-3.908-4.59M409.793 624.71l14.895 22.204 11.41-7.656q3.174-2.129 4.486-3.8t1.35-3.836q.035-2.167-1.386-4.288-1.242-1.849-2.925-2.663a7.4 7.4 0 0 0-3.618-.723c-.82.038-1.82.282-2.991.732q.948-1.23 1.234-2.01.194-.525.314-1.897.119-1.371.038-2.016l-1.022-8.662-7.759 5.204.934 9.214q.194 1.78-.077 2.535a3.4 3.4 0 0 1-1.316 1.63l-.596.4-6.047-9.013zm15.772 8.546 2.844-1.908q.461-.308 1.99-.894a2.15 2.15 0 0 1 1.565-.033q.8.278 1.292 1.01.724 1.08.442 2.109-.281 1.027-2.128 2.265l-2.96 1.987zM452.56 627.362l9.187-8.125q2.715-2.402 3.733-4.618 1.02-2.218.892-4.563-.13-2.345-1.257-4.612-1.128-2.264-2.94-4.313-2.841-3.21-5.135-4.333-2.295-1.123-4.65-1.17-2.353-.05-4.19.87-2.52 1.253-4.169 2.713l-9.185 8.125zm2.19-9.998-9.666-10.928 1.504-1.33q1.924-1.703 3.117-1.992 1.192-.29 2.6.374t3.534 3.064q2.81 3.18 2.818 5.264.01 2.085-2.376 4.194zM476.429 605.132l5.616-6.065-19.618-18.166-5.616 6.064zM480.348 565.618l-5.621 7.458-4.307-1.57-5.082 6.743 27.396 8.074 5.487-7.281-15.362-24.039-5.209 6.911zm3.542 4.856 5.962 8.116-9.477-3.455zM508.928 529.495l1.176-7.496q-3.06-.675-5.583-.157a9.96 9.96 0 0 0-4.47 2.15q-1.947 1.635-3.51 4.86-1.896 3.916-1.96 6.946-.065 3.033 1.929 6.222t6.464 5.355q5.959 2.887 10.693 1.273 4.732-1.613 7.54-7.403 2.192-4.53 1.613-8.012-.58-3.48-3.772-6.582l-4.65 5.893q.93.871 1.254 1.49.55 1.028.576 2.141.024 1.115-.51 2.218-1.212 2.5-3.884 2.847-1.994.277-5.217-1.284-3.993-1.935-4.89-3.859-.894-1.923.164-4.11 1.026-2.12 2.761-2.62 1.736-.498 4.276.128M529.32 522.146l2.551-7.862-8.956-2.906 2.773-8.545 8.957 2.906 2.572-7.93-25.432-8.252-2.572 7.93 10.254 3.327-2.773 8.546-10.255-3.327-2.55 7.862zM539.169 489.261l1.696-8.09-26.167-5.488-1.696 8.09zM522.183 452.786l-.975 9.288-4.5.874-.882 8.397 27.64-7.196.952-9.066-25.553-12.688-.903 8.607zm5.537 2.338 9.293 3.883-9.903 1.922zM545.424 426.864l-.145-8.265-14.51.254q-4.57.078-6.942.932-2.369.854-3.985 3.333-1.614 2.48-1.545 6.307.069 4.046 1.201 6.25 1.135 2.205 3.26 3.38 2.128 1.175 5.231 1.34l.927-7.924q-1.75.013-2.604-.263a2.8 2.8 0 0 1-1.388-.961q-.352-.466-.366-1.342-.023-1.383.99-2.048 1.016-.666 3.452-.707zM544.531 410.506l-1.115-7.626-16.135-7.867 14.672-2.144-1.122-7.682-26.456 3.866 1.122 7.68 16.046 7.826-14.59 2.131 1.121 7.682zM512.77 365.913l2.604 8.968-3.837 2.508 2.355 8.108 22.877-17.1-2.543-8.754-28.452-2.1 2.414 8.31zm6.01.073 10.07.087-8.444 5.519z" style="fill:#279838;fill-opacity:1;fill-rule:nonzero;stroke:none" transform="matrix(1.33333 0 0 -1.33333 -.667 1121.186)"></path><path d="M158.933 295.465c-36.838 36.837-57.125 85.815-57.125 137.91s20.287 101.074 57.125 137.911 85.815 57.125 137.91 57.125 101.073-20.287 137.91-57.125c36.839-36.837 57.126-85.815 57.126-137.91s-20.287-101.074-57.125-137.911c-36.836-36.837-85.815-57.124-137.91-57.124-52.097 0-101.075 20.287-137.911 57.124" style="fill:#fff;fill-opacity:1;fill-rule:nonzero;stroke:none" transform="matrix(1.33333 0 0 -1.33333 -.667 1121.186)"></path><path d="M257.558 310.485c-9.587-5.46-13.764-.511-15.999 4.36-2.3 5.01-1.396 9.117-1.396 9.117 3.367-5.422 8.953-10.596 12.485-10.843 2.34-.163 4.032.648 4.907 1.213l.053.38q.14 2.624.569 5.182l-.134.234c-.464.844-1.302 2.558-2.027 5.066-1.068 3.697-1.89 7.312-1.15 8.625.739 1.315 2.628 2.135 2.628 3.203s-.41.822-2.464-1.149-2.875-2.546-3.203-.329c-.329 2.218-1.972 4.188-2.054 2.218-.083-1.971.576-3.943 1.56-7.146.986-3.204 1.808-10.186.904-11.336s-2.3-.41-5.421 2.63c-3.122 3.038-4.765 6.077-5.34 8.131-.574 2.053-1.067 2.546-2.463 1.643-1.397-.904-2.219-2.054-.083-5.422 0 0-2.874-2.71-5.75-4.026-2.875-1.313-6.982-1.395-9.282-3.12s-2.464-4.19-2.464-4.19-2.49.959-3.204 3.943c-.903 3.78.494 8.954.494 8.954s-2.516-1.026-5.258-.41c-4.764 1.066-5.586 7.885-5.586 7.885s4.828-1.578 8.626-.493c6.325 1.806 12.814 8.214 16.264 18.646 0 0 2.628.33 4.271 2.956 1.643 2.63 3.614 3.532 5.175 2.711s1.89-2.135 1.807-4.681-.164-4.106.822-4.436c.985-.328 2.792-.082 3.86.985 1.068 1.068.986 3.615-.657 7.31-1.643 3.697-2.464 6.655-3.778 8.133s-2.464 1.807-1.89 3.45 2.711 2.3 2.793 6.653c.082 4.354-1.068 7.722-2.71 10.022-1.496 2.093-3.4 2.35-6.33 1.078-.29-.126-.606-.042-.233.764.44.954.994 2.503 1.305 4.73.575 4.107 0 5.996-2.875 5.75 0 0-.082 2.956-2.136 2.956-2.053 0-2.874 1.644-4.27 3.696-1.397 2.054-2.793 3.533-2.958 1.069-.164-2.465.904-4.354 2.136-6.572s2.793-8.05 5.339-9.036c0 0-.575-2.792.164-3.532a3.44 3.44 0 0 0 .658-3.86s-1.068 1.725-1.725-.245c-.657-1.972-3.369-5.26-5.586-6.655s-3.121-1.067-4.436-.493c-1.314.575-2.546.328-2.218-1.725.329-2.053 1.068-3.039 2.055-4.353.984-1.314.656-3.45 1.889-4.437 1.231-.985 2.792-1.56 4.682.576 1.889 2.136 7.145 6.489 6.98 11.5 0 0 1.398 1.15 2.22 2.218.82 1.067 1.888 1.56 2.381-.41.494-1.971.329-3.615-1.97-4.847 0 0 .41-2.054-.74-2.711s-2.382-1.808-2.546-5.093c-.165-3.285.081-6.982-2.547-7.72-2.629-.74-2.957.574-4.271 1.806s-3.375 2.338-2.876.74c.821-2.629 1.233-7.805-2.546-14.375s-6.9-9.036-8.543-9.036-2.217.657-2.792 2.957c-.576 2.3-2.711 2.546-4.354.575-1.643-1.972-5.504-3.861-9.2-.657-3.696 3.203-5.175 7.228-5.996 9.774-.822 2.547-3.532 4.437-3.532 1.562s.821-6.653.574-8.297c-.246-1.643-1.56-1.725-4.025.904-2.464 2.628-5.667 6.406-7.146 8.378-1.478 1.972-3.286 2.465-3.286.247 0-2.22.822-5.258 3.04-7.885 2.218-2.63 7.557-6.327 10.843-8.708s8.05-5.584 8.05-14.292c0 0 5.586-5.586 7.72-9.365 2.137-3.778 3.534-8.624 4.437-14.62.903-5.997 2.053-9.366 2.957-12.076s1.807-4.353 1.068-4.682c-.74-.329-7.804 7.064-13.636 12.568s-17.864 17.21-24.068 27.845c-6.133 10.515-11.883 20.537-16.291 38.746-4.409 18.208-4.792 47.533-3.834 63.057.959 15.525 4.121 34.307 4.696 38.715.575 4.41-2.204 2.684-4.887-7.475s-5.559-32.008-6.516-45.04c-.959-13.033 1.34-26.258 4.024-40.25 2.684-13.99 8.05-31.05 10.733-39.483 2.684-8.433.192-6.324-1.917-3.64-2.108 2.682-4.791 8.432-10.35 23.382s-9.199 34.115-9.774 59.224 6.133 45.615 9.008 53.474 8.338 15.62 15.525 25.874c6.79 9.686 7.187 12.65 10.925 21.18 3.738 8.528 5.462 10.158 5.462 10.158s-6.325-14.088-10.254-27.216c-3.93-13.13-3.354-20.509-3.066-28.558.288-8.05 2.204-10.925 2.97-11.021.767-.096 1.15.287 2.684 2.874 1.533 2.588 2.3 4.41 4.695 7.86 2.397 3.449 5.463 8.432 7.57 12.265 2.11 3.834 2.588 3.067 2.588 1.15 0-1.916-.67-10.733 0-19.357.671-8.625 2.875-13.13 4.792-16.196s4.409-3.259 6.804-.767 4.409 7.57 6.517 12.076c2.108 4.504 5.75 7.09 7.475 7.09s2.108-3.066 2.204-8.241 1.82-8.242 4.627-13.076c3.079-5.301 9.447-7.967 13.883-7.474 4.435.492 5.174 2.464 5.421 4.682s.41 4.846.41 4.846 1.233-3.696 2.465-5.586 2.464-.575 3.614 4.107c1.06 4.317 1.97 9.53 1.97 9.53 1.316-9.693-2.134-16.43-4.188-16.84-1.328-.265-2.793 1.15-2.793 1.15-4.025-5.75-12.239-3.45-14.292-2.3-2.054 1.15-3.204 2.054-4.108 1.889s-.903-1.808-.575-7.146c.329-5.34.658-7.967 1.561-10.678.904-2.71 3.615-6.243 5.422-9.283s3.45-2.628 4.764-2.791c1.314-.165 1.972-.247 2.875-1.316.904-1.067 2.3-.985 4.353.246 2.054 1.233 3.04 2.054 3.943 4.026.904 1.971-.082 4.435-1.396 7.147-1.315 2.71-2.053 4.188-1.725 5.831s1.725 2.135 2.218 1.232 1.231-1.478 2.053-.822c.821.658 1.068 2.219.329 4.518s-.821 2.875-.083 3.943c.74 1.069 2.218-.082 5.75-6.078s8.543-18.235 10.268-23.082 2.875-17.907 3.122-23.985.164-14.13.657-17.66c.493-3.533 1.725-7.64 2.3-9.036s1.232-1.396 2.875-1.396 1.89.575 1.97 1.15c.083.575-2.381 6.654-3.367 11.5-.985 4.846-.904 10.513-1.067 21.356-.165 10.844-.329 15.525-2.3 21.193-1.972 5.667-5.01 11.581-9.118 18.317-1.107 1.815-1.759 2.914-2.158 3.516-.334.503-.281.753-.013.907.593.34 1.564 1.047 1.678 2.067.101.912-1.15 3.449-2.546 8.213-1.397 4.764-2.383 10.843-2.547 14.293s.74 3.532 1.233 3.204c.492-.329 1.396-2.383 3.038-5.504 1.643-3.121 5.832-6.324 8.297-7.803 2.464-1.478 4.271-1.396 5.421.328 1.15 1.725 1.56 3.697 1.89 8.05.148 1.967 1.396 1.643 1.232 4.6-.083 1.486-2.3 2.793-5.996 5.504-3.698 2.71-5.094 4.107-6.408 6.489s-.986 6.243.082 8.378c1.068 2.136.657 2.629-1.889.657-2.547-1.97-3.121-3.285-3.121-6.817s1.15-8.79 1.15-11.336-1.15-1.725-2.465-.328c-1.314 1.396-2.218 1.807-3.203 1.067-.986-.74-1.396-1.807-1.972-1.725-.575.082.986 2.3 1.972 3.45.985 1.15 2.218.247 2.71.33.493.082.165 7.063.165 10.924s3.203 5.996 4.6 7.063c1.396 1.068 1.396 2.137.575 4.19-.822 2.053-.493 3.86 0 5.504.492 1.642 1.068.328 1.15-2.3.082-2.629.164-4.354 1.314-4.6s1.643.903 3.368 2.628 1.314-.328 1.15-4.353-.164-6.243.575-8.215c.74-1.971 3.121-3.942 4.518-3.942s2.792 1.889 4.764 6.16c1.97 4.272 2.3 5.997 3.285 6.161.987.164 1.397-.575 2.711-7.804 1.314-7.228.657-11.335.822-18.317.098-4.188 1.15-3.203 2.3-2.629 1.15.575 1.15 1.397 2.382.411 1.231-.985.656-3.368.246-7.886-.41-4.517-.41-7.146 0-7.803.41-.658.986-2.054.986-4.436 0-1.322.43-1.555.814-1.502.306.043.565-.254.584-.969.036-1.512.23-3.88 1.066-3.936 1.232-.081 2.464 1.561 4.6 7.229s3.943 13.8 3.943 13.8 1.478-12.075-5.503-25.3c-3.414-6.464-6.654-9.693-10.269-14.54-3.094-4.149-3.532-6.817-2.3-7.393.58-.27 1.415-.376 2.136-.414.812-.04 1.026-.685.828-1.023-2.276-3.887-2.077-7.245-1.32-13.594.821-6.9 2.546-10.35 4.435-12.403 1.89-2.054 3.45-1.807 5.914.492 2.465 2.3 3.203 2.712 4.107 2.054.904-.657 1.643-1.89 1.314-3.697-.327-1.806-1.642-3.285-1.232-5.257.41-1.97 2.054-3.285 4.847-3.285s1.396 2.3.657 3.121c-.74.822-.985 2.136-.329 3.368.657 1.232.985 3.369 0 4.189-.985.821-2.3 2.136-2.875 4.435-.575 2.301 1.15 3.123 5.01 8.873a186 186 0 0 1 6.655 10.677s-.083-1.724-1.068-4.68c-.987-2.957.657-4.355 2.793-5.34 2.135-.986 3.86-2.63 4.024-4.272s-1.395-2.218-1.56-4.107c-.143-1.639.082-3.368 1.806-5.914 2.103-3.103 1.809-6.9-.656-8.953-2.15-1.791-1.644-2.793.656-3.368 2.301-.575 4.19-.329 6.49-1.478s3.76-2.93 5.34-4.272c1.642-1.396 3.202-2.465 3.285-.575s.082 3.367-.986 4.436c-1.067 1.067-2.136 1.724-.574 1.806 1.56.082 2.956.33 1.395 1.89s-2.978.42-3.614 4.929c-.903 6.406-.41 22.507-2.956 35.24-1.467 7.33-5.34 14.785-6.49 17.002-1.15 2.218-.411 3.122.164 3.696.576.575 1.48 1.069 1.396 2.219-.082 1.15-.738 1.888-3.12 5.01s-3.04 5.257-3.04 6.9c0 1.642 1.725 1.068 2.71-.492.987-1.561 3.533-4.519 5.915-6.408 2.381-1.89 6.585-3.871 7.721-3.696 2.136.329 3.204 1.807 5.094 3.532 1.887 1.725 1.724 2.629.656 2.547-1.067-.083-2.136-.822-4.025-1.973-1.89-1.149-4.107-.738-6.407.905s-2.135 4.024-2.053 8.624c.083 4.6.328 6.9 1.232 9.282 1.161 3.06 1.726 5.012.903 4.929-.82-.083-1.724-2.875-3.039-4.846-1.313-1.973-1.396-4.93-1.396-4.93s-3.45-1.642-5.34-3.038c-1.889-1.397-3.121-1.397-3.777-.575-.659.821-.164 2.71-.987 4.847-.821 2.135-2.71 3.696-4.681 4.6-1.973.903-6.326.575-6.326.575 1.725 2.382 4.272 2.135 5.422 3.039 1.15.902.985 3.285 1.15 6.16s-.575 3.45-1.479 2.957c-.903-.492-3.449-3.121-6.736-8.871-3.285-5.75-5.503-12.486-5.503-12.486.165 4.108 2.793 9.61 5.996 15.77 2.403 4.621 4.806 8.18 5.857 9.67.35.497.947.31 1.183.075.908-.899 2.19-1.792 3.885-1.858 2.136-.081 4.353.74 6.654 2.628 2.3 1.89 4.025 4.6 4.107 6.08.082 1.477-.33 1.478-.658 1.478s-1.642-1.89-3.203-4.108-3.614-3.285-5.996-3.696c-2.382-.41-3.204.329-3.614 1.314-.411.987.164 2.464 1.395 4.93 1.233 2.463 2.383 4.517 4.437 10.595s1.725 13.964.493 17.414-2.547 4.354-2.547 4.354.987 1.068 1.889.41c.903-.657 1.808-1.067 2.547-.575.74.493 1.15 1.726.41 2.547s-1.97 1.807-1.97 1.807-.412 2.875-2.219 4.847c-1.807 1.97-4.435 4.518-11.582 10.76-7.146 6.243-11.746 11.17-13.06 12.65-1.314 1.479-1.807.903-2.711-.246s-1.889-.986-2.875-.412-1.89 1.233-4.518 2.218c-2.628.987-4.271 1.89-5.339 3.696-1.068 1.808-.985 3.45-.575 4.437.41.985 2.134 1.97 3.78 1.97 1.805 0 2.955.658 4.27 1.48 1.314.821 1.971.903 3.943 1.231 1.972.33 3.203.74 7.475 3.615 4.271 2.875 6.905 4.634 9.775 3.039 3.696-2.053 3.696-5.34 3.696-5.34s-3.04.658-6.16-.328c-3.122-.986-5.34-3.532-6.9-5.914s-1.643-4.518-1.315-6.325 1.807-3.943 6.078-7.886 9.94-8.542 13.554-11.746c3.614-3.203 6.489-6.653 8.544-10.02 1.731-2.84 1.805-4.354 2.134-7.804.33-3.45 1.15-4.929 2.383-6.161 1.232-1.232 3.372-2.15 7.803 1.889 6.49 5.914 10.021 9.693 13.8 15.853s4.435 9.858 4.846 15.443c.41 5.586.246 9.364.246 9.364s1.232-1.068 2.218-2.793.165-4.846.165-8.953-.247-7.393.246-10.103c.494-2.712 1.478-4.108 1.478-5.094 0-.985-1.15-1.806-1.806-2.628-.658-.821-.987-2.135-1.07-4.353-.08-2.218-.327-3.614-2.052-4.929-1.725-1.314-2.874-1.314-3.86-5.75-.986-4.435-2.218-6.489-4.6-7.885-2.383-1.396-3.615-.904-5.586-.657-1.971.246-2.793.575-4.846-1.561-2.055-2.136-4.436-3.45-6.326-3.121-1.888.328-2.628.328-3.203-.165s-.328-1.807 1.069-4.107c1.395-2.3 2.875-4.025 5.174-4.353 2.449-.35 5.552 1.807 7.03 2.978.534.424 1.04.425 1.438-.095.52-.68 1.4-1.746 2.703-3.048 2.3-2.3 4.863-2.118 7.639-.328 2.464 1.587 3.066 4.925 3.195 6.977.063 1.026.826 1.63 1.91 1.847 2 .399 4.912 1.875 5.29 7.04.033.46.475 1.727 1.07 2.1.865.545 2.064 1.33 2.746 1.914 1.15.986 1.56 2.629.41 4.6-1.15 1.972-1.478 4.19-.246 4.928 1.146.688 3.925.026 6.291 2.968.179.222.872.644 1.562.39 1.663-.613 5.325-2.211 10.958-5.986 7.967-5.339 12.896-15.69 15.03-20.207 2.138-4.517 3.37-11.746 2.22-15.114s-5.422-5.421-6.326-5.421-1.404 1.26-3.449 6.406c-2.712 6.818-7.782 11.94-12.321 15.361-5.34 4.025-7.065 5.01-8.05 4.929-.986-.083-.617-1.235.821-2.793 2.957-3.204 6.572-6.243 10.185-9.775 3.615-3.533 5.258-7.392 6.325-11.5s.246-10.02-.821-13.225c-1.068-3.204-4.026-6.653-9.2-9.118-5.175-2.464-7.063-2.706-8.542.329-1.643 3.368-1.562 6.243-2.22 13.47-.727 8.008-3.038 15.033-4.927 17.251-1.89 2.218-2.957 1.97-2.793-.411.164-2.382 2.598-6.052 3.368-13.47.904-8.708 1.068-13.883.575-19.222s-1.807-8.624-5.668-10.268c-3.86-1.643-6.9-.74-7.557.985s-.657 6.08-.164 14.21c.493 8.133.821 11.994 0 11.83-.821-.165-2.219-3.614-3.203-8.379-.987-4.764-1.397-11.171-1.315-14.867s.493-7.558 6.818-8.708c5.977-1.088 13.13 2.156 14.036 12.988.052.628.407.918 1.016-.25.506-.97 1.214-2.022 2.116-2.634 2.3-1.56 6.638-1.948 14.21 2.957 11.665 7.557 11.746 17.085 11.746 17.085s3.935-3.553 7.803 1.397c3.533 4.518 2.382 11.992 2.382 11.992s3.615-1.56 5.833 2.382 2.218 12.24-.41 19.304c-2.63 7.064-4.354 10.842-6.572 21.357-1.616 7.662-5.334 16.06-12.24 25.3-6.078 8.131-10.352 12.475-12.075 12.978-1.971.575-1.807-1.068-.328-3.45 1.598-2.574 5.585-5.997 10.02-12.322 4.437-6.324 6.409-9.035 5.916-12.156 0 0-.493.41-3.696 5.174-3.205 4.765-9.94 13.8-15.362 17.497-5.42 3.696-9.85 5.765-12.977 5.914-5.175.246-9.447-2.958-9.447-2.958s-1.068 7.311-4.517 14.704-7.147 17.332-17.168 19.385c-10.022 2.054-13.776 9.962-13.226 14.293.658 5.175 9.54 9.976 19.058 10.432 12.033.576 32.205-1.968 60.332-31.911 26.738-28.462 45.137-79.54 48.588-91.328 3.449-11.787 6.515-30.666 15.524-36.608 0 0-2.11-1.341-4.983 1.343-2.875 2.682-5.559 4.983-4.6.957.958-4.025 7.666-28.75 7.858-47.724.192-18.975-3.45-62.482-22.424-95.448 0 0 4.118 16.136 3.258 26.258-.47 5.52-2.739 9.89-4.426 12.444-1.067 1.614-1.022 3.76-.019 6.734.75 2.226 1.57 5.414 2.145 9.763 1.34 10.158 0 16.482-1.534 16.675-1.533.191-2.683-1.725-4.6-2.109s-4.982.576-6.133 7.284-2.683 20.7-1.724 30.474c.957 9.775 2.464 17.439.464 16.673-.857-.328-1.313-1.725-5.42-18.234-4.107-16.512-8.051-32.776-9.037-35.405-.985-2.629-2.298-3.532-2.464 1.725-.163 5.259 1.479 26.203 1.479 30.885s-.33 7.887-1.89 8.38-1.724-.247-1.642-3.615-.41-11.746-2.546-18.236c-2.135-6.488-6.407-17.084-8.297-21.11-1.889-4.025-3.531-4.845-3.86-3.45-.328 1.396-1.068 4.683 1.314 10.351 2.383 5.667 4.6 11.17 4.847 12.896.246 1.724-.575 2.547-2.382.083s-4.19-8.133-9.693-12.979c-5.504-4.847-9.118-7.886-11.007-6.571-1.89 1.313-2.547 6.077-.74 11.007 1.808 4.927 4.026 10.677 5.421 18.152 1.397 7.475 1.069 9.611-.492 9.446-1.561-.164-1.397-.903-2.546-8.296-1.15-7.392-4.108-16.756-10.514-23.493-6.168-6.482-11.83-9.528-13.554-8.378s-1.251 5.263.411 11.911c2.957 11.829 3.368 19.056 3.203 22.014-.163 2.957-.821 4.929-1.642 4.929-.822 0-1.315 0-4.19-9.612-2.875-9.609-4.928-16.263-5.586-19.22-.656-2.957-1.724-3.615-2.546-3.615s-3.614 3.697-3.614 15.033.903 19.795 0 21.85c-.903 2.052-4.188 2.463-6.243 1.478-2.054-.986-3.285-1.644-1.97-4.683 1.313-3.038 2.873-5.749 3.696-14.949.628-7.055 1.066-16.96 1.236-21.195.052-1.287.358-2.954 1.15-3.937a6.4 6.4 0 0 1 2.131-1.728c2.273-1.137 5.8-1.365 8.526 2.146.23.298.632.606.623-.164-.011-.771.01-1.941.133-3.543.246-3.203 1.807-6.9 7.065-7.887 4.803-.9 11.596.875 16.43 5.325.456.42 1.438.668 1.536-.465.22-2.52.301-7.371-1.456-12.416-2.494-7.158-9.556-16.208-20.493-18.895l.053-.257a46.7 46.7 0 0 0 2.959-10.584c3.981-25.449-13.482-49.391-38.93-53.373-25.449-3.981-49.392 13.482-53.374 38.932a47 47 0 0 0-.52 5.182zm53.131 43.142c3.604-1.309 14.754-5.646 22.91-11.901l.229-.028 4.493-.579-.134.192c-7.605 8.842-18.536 14.563-30.489 15.485l.234-.202 2.568-2.743zm18.11-64.27 10.598 5.114.252.114c2.78 8.165 3.63 18.06 3.886 22.787l-.006.397-9.145 8.819-.184.179-16.512-5.018-.022-.35-2.477-15.453-.037-.342 13.368-16.355zm13.652-.323c5.297 8.71 7.666 19.262 5.97 30.098a46 46 0 0 1-.584 3.046l-.119.481-2.082-3.774-.032-.471c-.17-4.267-.922-15.611-4.196-24.907l.031-.359.838-4.446zm-39.834 41.679 13.633-6.979.354-.21 16.96 5.154-.043.303-1.535 11.276-.035.186c-7.089 5.298-16.53 9.227-20.796 10.856l-.309-.157-10.742-5.721.032-.349 2.221-14.192zm-4.049-57.766c4.553.212 14.78.991 23.188 3.818l.157.328 5.102 10.474.105.214-13.45 16.454-.27-.064-15.673-2.452-.172-.43-7.601-19.327.256-.26 8.175-8.539zm-4.922-4.148a44.4 44.4 0 0 1 17.522-.74 44.5 44.5 0 0 1 16.224 5.914l.241.137-4.443.855-.332.046c-9.638-3.36-21.473-4.004-25.368-4.126l-.236-.116-3.274-1.791zm-33.964 40.056q.135-1.765.412-3.541c1.713-10.949 7.286-20.352 15.116-27.04l-.039.496-.521 4.173-.185.293c-6.067 8.073-10.268 18.921-11.596 22.603l-.229.26-2.66 2.51zm28.823 8.338-16.746-.258-.459-.018-5.973-11.117-.18-.3c1.586-4.208 5.406-13.5 10.586-20.59l.194-.282 11.862-1.661.388-.022 7.652 19.451.091.195-7.203 14.205zm.77 2.286 10.836 10.795.27.217-2.253 14.4-.03.207-12.321 2.226-.221-.158c-3.657-2.942-11.283-9.478-16.32-16.575l.062-.177 2.02-11.42.405-.046 17.357.268zm-25.931 10.019 3.712 1.74.314.201c5.683 8.165 14.553 15.46 17.834 18.024l.23.152 1.754 3.704.12.273c-11.154-4.572-19.837-13.444-24.343-24.277zm54.277 147.496c-1.385-.199-2.137-.576-2.218-1.808-.082-1.232.082-2.054 1.807-1.396 1.725.656 2.218 1.396 2.218 2.3s-.657 1.068-1.807.904m75.9-36.637c-.9-1.317-.494-8.378.738-13.306 1.232-4.929 3.696-7.065 7.967-11.09 4.273-4.024 6.325-5.584 7.968-7.146 1.643-1.561 2.629-.575.986 1.89-1.642 2.464-6.079 7.72-9.2 11.5-3.121 3.777-5.504 8.46-6.078 11.992s-1.15 7.967-2.382 6.16m-58.965-92.605a47 47 0 0 0 7.412-7.966l.195-.266c.992.084 1.728.38 2.565 1.282 1.068 1.15 2.465.575 3.532 1.807s.493 2.792-.575 3.943c-1.067 1.15-.492 2.793.657 4.846s-.493 3.204-1.89 3.368c-1.396.165-2.216-.904-2.463-4.764s-.164-7.229-.164-7.229c-1.15.33-1.972 3.45-1.972 6.079s.822 5.256 2.054 6.9c1.232 1.643.247 2.628-1.314 4.435s-3.696 2.136-5.504.575c-1.806-1.56-.575-4.929.658-6.242 1.231-1.315-.328-1.808-2.383-3.122-1.427-.914-1.267-2.542-1.036-3.45zm9.358-10.837a46 46 0 0 0 2.155-3.846l.092-.18c.84.235 2.28.815 2.51 2.08.31 1.702-1.71 2.529-4.894 2.14zm-101.945 62.208c-1.944-.846-2.3-2.137-2.218-4.19.083-2.054.493-2.711 1.89-3.45s2.053-1.313 3.039.412.493 3.86.328 5.174-1.15 2.875-3.04 2.054m5.34-10.35c-1.398 0-2.3-.658-2.135-2.053.164-1.397 1.396-3.287 1.725-3.368.328-.082 1.068-.165 2.136 1.068 1.067 1.23 1.314 4.352-1.725 4.352m1.97-9.199c-1.216.192-2.299-.822-2.545-3.45-.247-2.629-.493-4.025-.247-5.34.247-1.313.821-2.135 2.382-.082 1.56 2.054 2.547 4.272 2.629 6.16.081 1.89-.658 2.465-2.219 2.712m-.164-13.143c-1.15.033-2.217-.164-1.068-3.698 1.15-3.53 2.3-5.174 3.04-5.174s1.889 1.561 1.643 4.353c-.246 2.794-.822 4.437-3.615 4.519m19.621-23.902a47 47 0 0 0 3.1 3.302l-.22.015c-.256.027-.583.05-.98.05-1.005 0-2.883-1.165-2.072-3.563zm10.933 9.413q1.3.809 2.663 1.534l.202.117c-.446 1.433-2.354 7.7-3.437 13.33-1.232 6.408-2.382 10.68-3.367 11.09-.987.41-1.233-.081-1.15-3.285.08-3.144 1.188-15.297 4.875-22.891zm-19-22.953a47 47 0 0 0 3.926 7.87l.171.208c-.07.712-.208 2.36-.208 4.147 0 2.382 1.232 2.135 1.396 3.45.165 1.315-.246 2.382-.74 3.614-.492 1.232-.41 3.04-.41 4.518 0 1.479-.41 3.78-3.531 4.764-3.122.986-5.175-.493-6.161-1.807s-.986-2.382.657-3.121c1.643-.74 2.382-1.725 1.479-2.547-.904-.821-.822-1.725-.822-3.696s.493-3.285 1.56-3.614c1.069-.33 2.63-1.725 2.63-2.546 0-.822-.575-.822-1.233-.74-.657.081-.657-.904.329-1.478.985-.575 2.136-2.219 1.889-3.286-.246-1.068-1.478-1.397-2.383-1.643-.903-.247-2.628-.658-2.628-2.793 0-2.068.155-4.06 3.895-1.72zm-7.282 23.396c-.74.836-.74-.33-.657-2.71.082-2.383-.576-4.519.41-4.355.986.165 2.136 4.93.247 7.065m2.382-9.775c-.17 1.156-1.067-.164-1.972-1.725-.903-1.56-1.15-3.121-.246-2.874s2.628 1.806 2.218 4.6m-11.336-10.761c-1.9-1.63-2.546-1.972-1.642-3.862.903-1.888 2.135-2.792 3.038-2.792.904 0 1.89.576.822 2.054-1.068 1.479-.821 2.382-.329 3.45.494 1.068.411 3.121-1.889 1.15m-1.724 7.31s-.658 3.285 1.15 4.6 2.463 1.151 3.285 1.232c.821.083 1.48 1.068.657 2.136-.82 1.067-2.053.082-3.203-.246s-1.396 0-2.3.328c-.904.33-1.89.165-3.122-2.957s-2.71-4.682-1.89-5.832c.822-1.15 2.137-.903 3.122-2.218.986-1.314 1.068-2.218 2.219-2.382s1.15-.412 2.381 2.218c1.233 2.628 2.055 3.86 1.15 3.86-.903 0-2.874-1.149-3.45-.739m44.028 206.011c.822.165.74-.492-.493-1.478-1.232-.985-1.97-1.807-2.135-2.875s.492-1.725 2.053-1.232 2.711 2.382 2.793 4.764-.821 2.875-1.971 2.629c-1.15-.247-1.725-1.314-1.725-1.314s.657-.658 1.478-.494m72.531 36.554c-5.557 1.725-11.691 5.175-15.141 7.283s-5.367 1.534-7.859.767-8.432-1.342-14.182.959c-3.546 1.417-5.75-.575-3.26-2.684 2.493-2.108 11.118-6.9 16.293-9.007 5.175-2.11 9.966-2.685 19.166-6.901 9.2-4.217 19.87-9.922 27.408-17.058 7.187-6.804 16.292-16.866 24.15-35.074 7.858-18.209 16.674-41.017 22.04-64.4 5.368-23.382 7.092-42.167 7.86-54.05.765-11.882-.384-15.907.765-17.057s2.301 1.533 2.493 10.158c.19 8.625-.958 29.708-4.217 50.408s-8.817 55.007-17.25 75.516c-8.434 20.507-15.848 33.948-27.599 44.849-13.225 12.266-25.108 14.566-30.667 16.29m-12.937-8.91c-2.374.756-3.45.766-3.45.095s1.341-1.054 2.682-2.108c1.343-1.055 5.56-6.517 8.722-11.021s4.217-6.23 9.775-9.296 7.57-3.354 7.475-2.108c-.097 1.245-1.438 3.45-7.283 9.008-5.847 5.558-13.417 13.992-17.921 15.43M200.378 437.017c-1.576.562-3.642-2.013-4.503-10.446-.863-8.433-.863-17.633-.384-23.288.48-5.654 2.874-10.445 6.516-16.195s6.9-7.283 8.05-7.571 3.737.382.767 2.876c-2.971 2.49-9.391 10.158-10.926 19.166-1.532 9.007-1.437 15.045-.191 22.52 1.247 7.475 2.013 12.46.671 12.938m-37.183-24.15c-.965 1.24-.958-.767-1.437-5.08-.48-4.311-.863-8.145-.096-10.925.767-2.778 2.3-4.312 2.588-.383.287 3.93.287 14.663-1.055 16.387m23.766 57.02c.07 4.317.097 5.559-.766 3.067-.862-2.491-1.724-5.942-2.396-10.733s-1.342-7.858-3.546-14.566-5.366-15.526-6.133-24.725c-.766-9.2-1.437-15.429.288-27.216s2.779-16.484 4.887-23.671c2.108-7.188 3.545-9.87 4.409-9.966.862-.097.574 1.342-.672 8.146-1.245 6.803-4.504 24.437-3.928 39.483.574 15.044.845 17.969 3.545 28.557 3.642 14.279 4.121 19.549 4.312 31.625M162.785 255.386l16.81-11.577-3.26-4.736-9.945 6.849-2.65-3.849 8.465-5.829-3.058-4.44-8.464 5.83-6.197-8.998-6.866 4.73zM177.338 229.371q2.967 5.823 7.867 7.413 4.899 1.59 10.694-1.364 5.94-3.026 7.53-7.853 1.588-4.825-1.338-10.567-2.125-4.168-4.888-6.122-2.766-1.95-6.175-2.084-3.41-.13-7.37 1.888-4.024 2.05-6.009 4.675-1.984 2.628-2.211 6.236-.225 3.61 1.9 7.778m7.348-3.785q-1.833-3.598-1.299-5.85.535-2.25 2.835-3.423 2.363-1.206 4.443-.327 2.08.878 4.112 4.866 1.709 3.352 1.144 5.588-.563 2.238-2.878 3.417-2.218 1.131-4.363.245-2.144-.886-3.994-4.516M213.234 226.634l7.298-2.48 4.81-17.294 4.77 14.04 7.349-2.498-8.6-25.315-7.35 2.497-4.785 17.197-4.743-13.96-7.35 2.496zM243.905 216.793l12.052-2.27q3.562-.673 5.574-2.053 2.01-1.381 3.102-3.461 1.091-2.08 1.283-4.604t-.314-5.212q-.795-4.21-2.188-6.351-1.397-2.141-3.393-3.387-1.998-1.249-4.046-1.4c-1.869-.145-3.527-.078-4.97.193l-12.05 2.27zm7.005-7.463-2.702-14.339 1.973-.37q2.525-.477 3.697-.114 1.173.362 2.042 1.654.87 1.29 1.463 4.442.785 4.171-.276 5.964-1.06 1.795-4.189 2.385zM287.003 188.586l-9.323.538-1.59-4.299-8.428.487 11.567 26.112 9.102-.526 8.391-27.266-8.64.499zm-1.411 5.84-2.331 9.798-3.497-9.46zM297.792 210.438l25.04 1.497.395-6.602-8.395-.501 1.2-20.089-8.25-.492-1.2 20.089-8.395-.502zM356.821 219.318l6.618-26.35-7.318-1.837-4.336 17.258q-1.44-1.78-2.892-3.02-1.454-1.24-3.768-2.624l-1.47 5.857q3.393 2.115 5.017 4.295a12.05 12.05 0 0 1 2.163 4.917zM371.813 201.318l6.587 3.5q.82-1.335 1.69-1.678.871-.345 1.805.011 1.664.635 1.952 2.682.202 1.507-.996 5.67-.758-1.755-1.841-2.852-1.085-1.097-2.805-1.754-3.359-1.282-6.575.22-3.218 1.498-4.606 5.139-.947 2.482-.547 4.972.4 2.489 2.065 4.324 1.666 1.833 4.788 3.025 3.754 1.432 6.514 1.014t5.185-2.7q2.423-2.279 4.175-6.871 2.577-6.754.926-10.978-1.652-4.226-6.701-6.152-2.987-1.14-4.969-1.112-1.986.029-3.633.911-1.646.882-3.014 2.63m8.521 16.014q-.769 2.01-2.228 2.76-1.46.749-2.926.188-1.386-.526-1.906-1.906-.519-1.378.266-3.44.793-2.075 2.16-2.813 1.366-.737 2.782-.195 1.47.56 2.037 1.996.567 1.434-.185 3.41M392.895 232.365l15.671 8.188 2.762-5.287-10.625-5.551 1.259-3.823q.835 1.093 1.78 1.919.946.822 2.002 1.375 3.575 1.868 6.925.882 3.348-.983 5.052-4.245 1.199-2.293 1.16-5.005-.036-2.711-1.552-4.922-1.515-2.209-4.789-3.92-2.348-1.225-4.257-1.659t-3.543-.165q-1.635.265-2.946.998-1.312.734-2.665 2.144l6.31 4.218q1.075-1.467 2.4-1.83 1.323-.362 2.557.283 1.377.72 1.732 2.228.358 1.51-.72 3.572-1.103 2.11-2.531 2.616-1.429.505-2.948-.29a4.5 4.5 0 0 1-1.618-1.44q-.494-.69-.83-1.992l-6.035-2.127zM413.406 243.383l17.918 12.25 2.822-4.126q-.89-3.705-.778-7.233.144-4.279 1.547-8.691 1.073-3.446 3.43-7.538l-6.11-4.179q-2.978 5.904-3.932 10.626-.952 4.723-.45 11.194l-10.917-7.465zM84.709 344.19l3.5-10.771h11.325l-9.163-6.657 3.5-10.772-9.162 6.658-9.162-6.658 3.5 10.772-9.163 6.657H81.21zM103.684 313.427l3.5-10.77h11.324l-9.162-6.658 3.5-10.77-9.162 6.657-9.162-6.657L98.021 296l-9.162 6.657h11.325zM128.695 284.965l3.5-10.77h11.325l-9.162-6.657 3.5-10.771-9.163 6.657-9.16-6.657 3.499 10.771-9.163 6.656h11.325zM508.978 344.19l-3.5-10.771h-11.326l9.163-6.657-3.5-10.772 9.163 6.658 9.162-6.658-3.5 10.772 9.162 6.657h-11.324zM490.003 313.427l-3.5-10.77h-11.324l9.16-6.658-3.497-10.77 9.16 6.657 9.163-6.657-3.5 10.77 9.162 6.657h-11.325zM464.991 284.965l-3.5-10.77h-11.325l9.162-6.657-3.499-10.771 9.162 6.657 9.161-6.657-3.5 10.771 9.163 6.656H468.49z" style="fill:#279838;fill-opacity:1;fill-rule:nonzero;stroke:none" transform="matrix(1.33333 0 0 -1.33333 -.667 1121.186)"></path><path d="M256.919 568.643c-1.34 1.089-3.163 1.485-3.163 1.485s-.382.575-.287 2.395c.096 1.822.84 1.781 2.683.768 4.792-2.636 7.452-4.074 8.817-4.433s1.725-.862.072-1.365c-1.653-.504-5.391-.576-5.391-.576s-1.581.791-2.731 1.726" style="fill:#279838;fill-opacity:1;fill-rule:nonzero;stroke:none" transform="matrix(1.33333 0 0 -1.33333 -.667 1121.186)" data-source="https://football-logos.cc"></path><path d="M245.749 568.005c1.313-2.054 2.71-2.957 3.778-3.121 1.067-.164 1.396-2.053 2.464-2.793 1.068-.738 5.01-.821 7.064-.41 2.053.41 2.958 1.068 5.339 1.56 2.382.493 4.107-.986 6.243-2.382s3.779-1.068 5.01-.657c1.233.41 2.137 1.479 2.219 2.464.081.986-.905 1.643-2.136 2.793s-.658 1.479 1.314 1.56c1.971.083 1.89 0 2.054-1.231s1.068-1.068 2.135 0c1.068 1.067 1.15 1.56 2.793 1.643 1.642.081 1.397-.165.493-1.068-.904-.904-3.286-2.547-3.697-3.614-.41-1.068-1.15-1.233-2.382-2.055-1.232-.82-1.232-1.231-1.479-2.217-.246-.986.658-1.89 1.233-2.136s-1.15-.903-2.218-2.3c-1.067-1.396-.657-2.875-1.478-3.04-.822-.163-.904.658-1.068 1.89s-1.396.74-3.204-.328c-1.807-1.068-2.793-1.479-3.696-.986-.904.493-.821 2.218-.41 3.368.41 1.15.492 2.054.492 2.054s-1.314.164-3.286-.658c-2.001-.834-1.56-1.725-1.56-4.025s-.493-4.517-1.15-4.928-1.643 1.314-1.725 2.793c-.083 1.478-.74 2.217-1.972 1.889-1.232-.33-2.628-.246-2.628-.246s.41 1.15 1.971 2.628c1.56 1.479 1.232 2.3.575 2.875s-1.643.903-2.463 0c-.822-.903-1.973-1.314-2.712-1.314s-.246.575.575.739c.822.164 1.068.903.493 1.643-.575.739-3.121 1.479-5.996 2.958-2.875 1.478-2.382 2.874-3.532 4.435s-1.664 2.855-1.592 4.148.754 2.457 1.653 1.725c.553-.451 1.17-1.602 2.486-3.656m22.424-11.5s-1.15-1.314-.822-2.3c.329-.985 1.808-1.642 3.122-.492s2.628 2.382 2.465 3.039c-.165.657-.822.493-1.48 0-.657-.493-1.478-.575-3.285-.246M281.726 560.777c-1.284-.917-1.56-2.957-.493-2.793s3.532.658 4.354 1.725 1.478 1.89-.411 1.89-2.875-.411-3.45-.822M356.886 542.458c-1.917 0-2.957-1.725-2.546-2.3.41-.575 1.478-1.067 2.3-1.888.82-.822.164-1.808-.904-2.629-1.068-.822-.33-1.314.246-2.382s1.15-2.3 1.89-2.3c.738 0 1.643.985 3.121 2.053 1.479 1.069 2.217.986 3.121.986s2.875 1.232 1.56 2.957-4.353 5.503-8.788 5.503M363.128 518.062c-5.014 0-6.16-1.314-6.077-2.875.08-1.56.984-1.806 1.642-1.971.657-.164.986-.986.904-2.546-.082-1.561-.33-1.89-1.479-2.958-1.15-1.067-1.725-2.628-1.725-4.025 0-1.396 1.15-1.97 2.3-1.231s1.397 1.231 2.628 1.314c1.233.082 2.547.493 2.547 2.875s0 4.436 2.218 5.585 4.6 1.808 3.532 3.615-2.3 2.217-6.49 2.217M355.818 500.648c-.575 0-.903-1.643-2.218-2.71-1.315-1.068-2.628-2.218-2.628-2.793s.493-.822 2.3-.904 3.943-.327 4.681-.41c.74-.082.74.82-.328 1.56-1.067.74-1.396 1.643-1.396 2.876s.246 2.381-.41 2.381M352.04 490.791c-1.404 1.307-2.137.986-2.465-.081-.328-1.068-1.232-1.972-1.806-2.136-.576-.164-.905-1.069.164-2.711 1.067-1.643 2.628-2.793 3.86-2.218s3.778 3.86.246 7.146M346.043 483.563c-.766.443-1.889-1.15-3.121-2.136-1.233-.986-1.89-.903-2.957-.328-1.068.574-2.218.657-2.218-1.15s-.165-4.518 2.054-5.914c2.217-1.397 4.26-.563 5.585.656 2.053 1.89 2.218 7.968.657 8.872M333.804 480.852c-.598 0-1.123-1.19-2.956-2.382-1.644-1.068-3.37-1.478-4.6-1.478-.658 0-1.068-.658 0-1.725 1.066-1.068 2.559-1.35 4.928-.164 3.12 1.56 3.86 5.75 2.628 5.75" style="fill:#279838;fill-opacity:1;fill-rule:nonzero;stroke:none" transform="matrix(1.33333 0 0 -1.33333 -.667 1121.186)"></path><path d="M372.985 533.752c-2.691 2.417-3.614 2.135-3.532 1.067s.986-1.807 1.972-3.285c.985-1.479.821-3.203.74-4.764-.083-1.561 0-3.86 1.15-5.915 1.15-2.053 1.724-5.257.246-7.475-1.479-2.217-3.86-2.875-4.93-3.45-1.067-.575-1.806-1.642-1.642-2.135s2.464-1.068 4.929-1.972c2.464-.903 7.885-3.696 11.089-6.571 3.203-2.875 8.379-8.378 11.417-14.704 3.04-6.324 4.107-9.445 5.34-12.485s3.039-4.106 4.271-2.875c1.233 1.232 1.314 5.504-.083 10.596-1.395 5.093-5.42 13.06-7.803 16.018-2.381 2.957-5.668 5.75-6.899 7.147-1.232 1.396-1.56 2.546-.985 3.285s1.641.493 3.367-1.396c1.724-1.89 3.203-3.532 3.778-3.615.575-.082.377 1.393-.657 4.025-2.71 6.9-11.253 19.057-21.768 28.504M326.494 359.53c-1.964-1.227-2.3-1.89-.329-2.22 1.97-.328 3.285-.327 3.285.412s-.821 1.478-1.314 2.053c-.492.576-.986.164-1.642-.246M304.726 567.184c-.765-.875.493-1.89 1.56-2.957 1.068-1.068 1.725-2.137 1.644-7.804-.082-5.668-.165-8.297-.082-10.103.082-1.808-.33-3.286.903-1.972 1.231 1.315 3.613 4.6 3.86 11.007s-1.314 9.118-3.532 10.679-3.778 1.806-4.353 1.15M218.203 575.398c3.555 3.353 4.812 7.014 3.067 9.009-2.013 2.3-6.421 3.354-6.421 3.354s.862 1.533 7.283 1.533c3.929 0 7.571-.958 10.158-6.612 2.588-5.655 1.917-15.141-.096-23.287s-6.42-18.4-8.433-22.233-2.204-5.367-1.82-7.475c.383-2.109 4.312-7.284 8.05-11.692 3.737-4.408 7.57-10.062 9.87-14.183 2.3-4.12 4.025-5.27 5.462-4.791 1.438.479 1.63 1.916 1.63 1.916-1.15.191-2.204 2.205-5.08 6.996-2.874 4.791-6.037 7.666-10.83 13.991-3.903 5.155-4.982 6.23-4.982 10.254 0 2.875 4.887 14.854 6.517 19.071 1.629 4.216 6.133 17.633 3.929 28.654-2.205 11.02-10.35 12.266-16.963 11.691-6.612-.575-10.637-4.408-10.637-4.408s6.037-1.246 7.762-2.684c1.726-1.437 2.397-3.354-.479-6.133-2.874-2.78-10.856-5.804-22.903-15.237-22.52-17.633-33.733-34.883-33.733-34.883s3.57 2.983 8.146 7.283c6.883 6.47 12.457 13.033 19.453 18.304 5.812 4.379 13.513 10.541 18.208 13.416 4.696 2.875 9.488 4.984 12.842 8.146" style="fill:#279838;fill-opacity:1;fill-rule:nonzero;stroke:none" transform="matrix(1.33333 0 0 -1.33333 -.667 1121.186)"></path><path d="M277.235 518.762c6.683-4.21 8.53-5.75 8.912-8.05.144-.856-1.437-.767-3.258 0s-2.3.288-1.533-1.054 4.12-3.067 6.23-5.08c2.108-2.012 4.6-5.94 5.27-11.02s-.959-18.879-2.108-24.054-2.684-6.612-3.163-6.23c-.479.385-.67 2.972-.67 7.955s-1.726 10.158-4.792 13.033c-2.474 2.32-3.833 1.438-6.709-1.916-2.874-3.355-2.874-6.038-3.353-8.242s-2.109-3.45-2.684-2.108c-.575 1.34-.383 5.08-.191 7.283.191 2.204 1.245 4.791.67 6.709-.575 1.916-2.491 1.437-4.313.766-1.82-.67-2.683.575-3.066 2.3s-.766 3.641-2.684 4.6c-.497.25-.885.492-1.187.714-.858.634-.517 1.064.23 1.057 1.498-.014 3.992.113 5.462 1.008 2.204 1.341 3.737 3.354 2.875 6.709-.862 3.353-3.93 5.558-9.392 9.295s-6.9 6.038-9.391 9.775c-2.492 3.737-1.63 5.558-.48 7.092s1.534 2.778 1.15 3.832c-.383 1.055-2.012-.191-3.832-1.916-1.822-1.725-2.78-3.929-3.259-6.708s-.48-3.642-1.054-3.642-2.108 1.054-2.491 3.067c-.384 2.012.191 4.504 2.012 6.325 1.82 1.82 3.354 3.45 4.121 5.175.766 1.725-.192 1.917-1.63.575s-3.64-3.067-4.312-3.259c-.671-.191-.671 1.725.096 3.354s3.737 5.271 4.024 6.038c.288.766-1.437.575-3.545.767-2.109.191-3.258.862-3.258 1.34 0 .48 2.588.192 6.324 0 3.738-.19 4.121.097 6.9 2.493s3.356 3.305 4.218 2.874c.574-.287.574-1.916.478-4.6s-.04-5.515 2.684-9.103c3.929-5.175 11.116-11.117 20.7-17.154" style="fill:#279838;fill-opacity:1;fill-rule:nonzero;stroke:none" transform="matrix(1.33333 0 0 -1.33333 -.667 1121.186)"></path><path d="M255.386 485.316c1.859 2.561 3.928 4.025 3.066 5.175s-2.587 2.78-4.025 3.738c-1.437.958-2.97.191-5.366-1.821s-6.613-3.642-9.2-2.875c-2.588.766-4.887 4.6-5.75 9.009-.862 4.408-1.63 8.624-4.025 10.637s-4.504 2.3-8.625 2.491c-4.12.192-8.529 1.821-10.83 5.367-2.299 3.546-3.545 8.146-3.161 14.758s1.437 9.967 3.45 13.129 2.492 4.504 1.629 4.504c-.862 0-3.067-1.533-9.296-9.008-6.23-7.475-16.195-18.017-22.808-34.404s-7.474-29.324-6.804-34.787c.671-5.462 1.054-5.941 2.109-3.354 1.053 2.587 3.641 6.133 5.558 10.254s2.587 5.941 2.012 8.72-.767 4.6.767 3.259c1.533-1.341 2.491-2.491 3.545-2.204 1.055.287 4.217 4.312 4.984 8.241.766 3.93.095 8.53.383 11.692s1.533 7.283 3.355 9.966c1.82 2.684 3.161 2.875 3.544 1.246.384-1.63-.766-3.833-1.34-8.145-.576-4.313-1.438-10.734-2.492-15.047-1.054-4.311-3.163-10.062-3.259-19.549s-.096-14.183.863-19.262c.958-5.08 2.108-8.625 3.162-8.72 1.054-.097 3.066 2.778 4.888 7.761 1.82 4.984 3.258 9.2 2.587 12.363s-1.15 5.558 0 5.175 2.588-1.15 4.025-1.15 2.492 1.15 4.888 3.737 3.833 3.354 3.929 2.396-.671-2.012-2.588-4.504c-1.916-2.491-2.97-3.737-1.533-4.025 1.437-.287 4.12.48 4.888-.862.766-1.342.287-3.258.575-6.133.287-2.875 1.82-4.696 1.916-8.721s.575-9.2 3.354-12.554 7.187-6.613 9.008-6.613 3.546 1.342 3.738 5.846c.191 4.504-.383 9.87 1.245 11.02 1.63 1.15 1.726-.095 2.396-2.203.671-2.109 2.013-4.409 2.78-4.409s1.437 1.342 1.437 5.271c0 3.93-.192 5.175 1.342 8.53 1.533 3.353 1.054 5.366.479 7.378s.383 2.97 1.82 2.3 1.438-2.108 2.205-3.833 1.82-1.341 1.725.575c-.096 1.916-.767 4.217-1.342 6.229-.574 2.012-.287 6.42 4.792 13.416M150.93 499.979c3.083 5.108 6.42 9.774 7.474 11.787s1.629 3.067.67 3.163c-.958.095-5.462-4.025-8.05-8.338-2.587-4.312-5.941-10.253-8.72-18.016s-2.971-11.116-3.929-11.02c-.959.095-.863 1.245-2.012 1.82-1.15.576-1.822.863-.096 4.792 1.724 3.929 8.528 19.358 15.045 28.654s13.704 16.483 20.891 21.849c7.188 5.367 15.716 11.596 18.688 12.842 2.97 1.245 3.641 1.533 3.545 0s-.288-1.917-3.545-3.93c-3.259-2.012-8.05-6.42-10.446-11.404-2.396-4.983-6.421-14.758-9.679-22.712s-5.367-11.212-8.337-14.95c-2.971-3.737-5.463-5.558-8.338-7.666s-4.12-3.546-5.654-5.942c-1.533-2.395-3.354-4.696-3.45-1.054s-.48 9.487 5.942 20.125M302.75 427.14c-.653 1.68-1.5-1.375-3-5.5s-4.25-10-7.625-14-5.875-5.375-4.5-7 1.75-3.125 1.75-4.5 1.875-2.625 4.125-.75 7.375 10.5 9.125 16.375 1 13.125.125 15.375" style="fill:#279838;fill-opacity:1;fill-rule:nonzero;stroke:none" transform="matrix(1.33333 0 0 -1.33333 -.667 1121.186)"></path><path d="M308.375 420.265c-1.434 2.662-2.375 2.375-2.25-1s-.75-13.25-3.375-17.625-4.875-7.875-8.375-9.5-6-2.25-5.75-5.75 1.375-7.75 2.375-8.5 6.125 1.125 8.125 3.125 10.25 11.25 11.75 19.75-.75 16.25-2.5 19.5" style="fill:#279838;fill-opacity:1;fill-rule:nonzero;stroke:none" transform="matrix(1.33333 0 0 -1.33333 -.667 1121.186)" data-source="https://football-logos.cc"></path><!-- source: https://football-logos.cc --></svg>