<svg xmlns="http://www.w3.org/2000/svg" xml:space="preserve" viewBox="0 0 250 284.92"><!-- Source: https://football-logos.cc --><path d="M119.193 491.93c2.588 0 3.24 3.312 6.47 5.662 5.339 3.882 37.646 11.494 52.736 29.603 22.647 27.177 21.676 61.795 20.22 83.471-.976 14.54-6.167 31.668-2.264 46.427 3.53 13.347 10.703 20.557 14.91 23.793 1.962 1.51 2.357 3.027.356 4.904l-21.09 19.833s-11-11.971-27.823-11.162c-14.874.715-22.162 11-22.162 11H97.839s-7.289-10.285-22.162-11c-16.824-.81-27.823 11.162-27.823 11.162l-21.09-19.833c-2.002-1.877-1.606-3.394.356-4.904 4.207-3.236 11.38-10.446 14.91-23.793 3.903-14.759-1.288-31.886-2.265-46.427-1.456-21.676-2.426-56.294 20.221-83.471 15.09-18.109 47.397-25.72 52.735-29.603 3.232-2.35 3.883-5.662 6.471-5.662z" style="fill:#3078c6;fill-opacity:1;fill-rule:nonzero;stroke:none;stroke-width:.346641" transform="matrix(1.33333 0 0 -1.33333 -33.923 940.83)" data-source="https://football-logos.cc"></path><path d="m119.19 681.242-1.88.566q-.159-.74-.511-1.129-.353-.388-1.042-.388-.71 0-1.103.482-.392.48-.392 1.78 0 1.047.329 1.537.434.66 1.25.66.36 0 .652-.15.292-.151.493-.43.122-.168.233-.527l1.97.44.003-.081v-2.685zM119.192 535.283v.593c-28.078 0-51.634 19.363-58.045 45.463l-.047.209a15.5 15.5 0 0 0-2.276-.161h-8.291c-2.093-.01-3.124 1.435-3.12 3.8v37.278l-.025.726c-.672-4.562-1.298-8.878-1.57-12.932-.355-5.277-.6-10.71-.6-16.219 0-21.514 3.75-44.149 19.428-62.962 9.874-11.848 29.02-19.181 40.46-23.562 5.946-2.277 9.143-3.534 11.183-5.019a17.7 17.7 0 0 0 2.903-2.67z" style="fill:#feea13;fill-opacity:1;fill-rule:nonzero;stroke:none;stroke-width:.346641" transform="matrix(1.33333 0 0 -1.33333 -33.923 940.83)"></path><path d="M71.468 631.631c10.91 14.445 28.227 23.782 47.724 23.782v3.297h-.783v15.924h.783v5.789a3.4 3.4 0 0 0-.43-.745q-.458-.599-1.137-.902-.68-.305-1.729-.305-1.274 0-2.08.37-.808.371-1.394 1.303-.585.933-.586 2.387 0 1.94 1.03 2.982 1.032 1.041 2.917 1.041 1.476 0 2.32-.597.69-.489 1.09-1.403v14.481l.01.36h-18.61c-3.64-3.76-11.803-10.377-24.624-10.993-12.747-.614-22.555 4.97-27.95 9.05L33.3 683.606c4.742-4.313 11.216-12.182 14.596-24.963 1.198-4.53 1.647-9.137 1.647-13.767 0-4.676-.458-9.376-1.067-14.041l.294.215c.41.21.925.324 1.556.321h8.5c3.072 0 6.486-.808 8.814-3.721 0 0 0 .698.092 1.274.09.576.85 2.457 2.578 2.447h.98z" style="fill:#feea13;fill-opacity:1;fill-rule:nonzero;stroke:none;stroke-width:.346641" transform="matrix(1.33333 0 0 -1.33333 -33.923 940.83)"></path><path d="M177.488 582.337c.383.41.573.972.68 1.721l.643 5.404h1.324l.565-4.841c.247-2.305 1.217-3.234 3.078-3.234h6.227c2.144 0 2.79 1.415 2.447 3.55l-5.822 44.132c-.221 1.62-1.397 2.303-2.857 2.303h-8.367c-1.618 0-2.25-.641-2.48-2.302l-.8-5.658-.076.157a60 60 0 0 1-.945 1.716l-.075.13v3.126c-.032 2.467-1.165 2.831-2.912 2.831h-1.007l-.187.25c-10.91 14.45-28.23 23.791-47.732 23.791v3.298h7.649v2.7h-6.036v13.223h-1.613v5.789q.146.343.242.746l-.243.073.001.075v2.685l-.002.081.168.038q-.076.227-.165.433v14.482l.01.359h18.59c3.639-3.76 11.802-10.377 24.624-10.993 12.747-.613 22.554 4.97 27.949 9.05l14.721-13.845c-4.742-4.313-11.216-12.182-14.596-24.963-1.198-4.53-1.648-9.137-1.648-13.766 0-7.088 1.053-14.227 2.085-21.223.698-4.734 1.358-9.205 1.64-13.395.354-5.278.6-10.712.6-16.22 0-21.514-3.752-44.149-19.43-62.962-9.873-11.848-29.02-19.181-40.46-23.562-5.944-2.277-9.142-3.534-11.183-5.019a17.8 17.8 0 0 1-2.903-2.67v36.049c28.314 0 52.03 19.689 58.204 46.12z" style="fill:#52a5e0;fill-opacity:1;fill-rule:nonzero;stroke:none;stroke-width:.346641" transform="matrix(1.33333 0 0 -1.33333 -33.923 940.83)"></path><path d="M50.325 628.46h8.5c4.502 0 8.711-1.892 8.711-10.977v-22.207c0-9.085-4.209-10.978-8.712-10.978h-8.5zm5.754-6.547v-31.068h2.152c2.552 0 3.552 1.18 3.552 4.411v22.245c0 3.231-1 4.412-3.552 4.412zM76.21 628.46v-34.053c0-2.811.863-4.123 2.877-4.123 1.966 0 2.83 1.312 2.83 4.123v34.054h5.437v-33.816c0-7.634-3.008-11.041-8.382-11.041-5.375 0-8.432 3.407-8.432 11.041v33.816zM103.424 603.653v24.808h5.16v-44.163h-5.932l-6.636 30.695v-30.695h-5.264v44.163h7.337zM138.342 602.263v-17.965h-5.593v44.163h8.316c4.376 0 8.461-1.136 8.461-10.22v-3.281c0-5.426-1.414-7.956-3.602-8.965 2.237-1.136 3.602-3.4 3.602-8.953v-1.325c0-8.012.033-9.463.81-11.42h-6.029c-.34 1.326-.373 3.534-.373 9.023v3.28c-.012 3.875-1.021 5.663-4.23 5.663zm2.188 6.599c2.426 0 3.283 1.053 3.283 4.408v4.408c0 3.355-.857 4.474-3.283 4.474h-2.188v-13.29ZM158.823 590.814h9.577v-6.516h-15.514v44.163h15.232v-6.399h-9.295V609.89h7.548v-6.372h-7.548zM100.686 560.268c0 7.338 5.444 7.995 5.444 13.849 0 1.7-.364 2.487-1.303 2.487-1.028 0-1.477-.923-1.477-2.474v-2.087h-2.48v2.567c0 3.5 1.451 5.157 4.036 5.157 1.781 0 2.985-.785 3.632-2.37.534-1.309.522-3.286.337-4.678-.35-2.636-1.047-3.788-2.654-6.124-1.608-2.336-2.579-2.982-2.609-5.556h5.198v-3.1h-8.124s.014.8 0 2.329M123.953 557.6c-2.63 0-4.088 1.597-4.088 5.067v12.035c0 3.469 1.458 5.065 4.088 5.065 2.604 0 4.062-1.596 4.062-5.065v-12.035c0-3.47-1.458-5.067-4.062-5.067m0 18.943c-.983 0-1.376-.63-1.376-1.835v-12.041c0-1.204.393-1.835 1.375-1.835.933 0 1.35.63 1.35 1.835v12.041c0 1.205-.417 1.835-1.35 1.835M114.323 557.6c-2.63 0-4.088 1.597-4.088 5.067v12.035c0 3.469 1.458 5.065 4.088 5.065 2.604 0 4.062-1.596 4.062-5.065v-12.035c0-3.47-1.458-5.067-4.062-5.067m0 18.943c-.982 0-1.375-.63-1.375-1.835v-12.041c0-1.204.393-1.835 1.374-1.835.933 0 1.35.63 1.35 1.835v12.041c0 1.205-.417 1.835-1.35 1.835M133.174 572.585c.444.352.989.56 1.619.56 1.666 0 2.89-1.063 2.89-4.407v-5.98c0-3.5-1.433-5.158-3.984-5.158-2.576 0-3.982 1.659-3.982 5.159v2.25h2.447v-1.589c0-1.555.416-2.481 1.431-2.481s1.458.926 1.458 2.481v4.032c0 1.678-.468 2.148-1.301 2.148-.938 0-1.588-1.04-1.588-2.35v-.246h-2.447v12.426h7.783v-3.303h-5.061v-4.345s.543.652.735.803" style="fill:#feea13;fill-opacity:1;fill-rule:nonzero;stroke:none;stroke-width:.346641" transform="matrix(1.33333 0 0 -1.33333 -33.923 940.83)"></path><path d="M144.832 631.15c-3.143 2.673-8.283 6.92-9.301 7.502l-.203.12a122 122 0 0 1-5.826-.393l-.282-.03q.042-.295.042-.628c0-2.733-.667-5.073-1.851-6.84l-.136-.278 2.53-19.17.033 1.093v15.975c.009 1.981.88 2.911 2.912 2.871h8.315c1.225 0 2.624-.073 4.022-.442z" style="fill:#fff;fill-opacity:1;fill-rule:nonzero;stroke:none;stroke-width:.346641" transform="matrix(1.33333 0 0 -1.33333 -33.923 940.83)" data-source="https://football-logos.cc"></path><path d="m117.31 681.808 2.124-.64q-.214-.89-.672-1.49-.458-.599-1.137-.902-.68-.305-1.73-.305-1.272 0-2.08.37-.808.371-1.393 1.303-.586.933-.586 2.387 0 1.94 1.03 2.982 1.032 1.041 2.917 1.041 1.476 0 2.32-.597.844-.598 1.255-1.836l-2.139-.478q-.111.36-.233.526a1.4 1.4 0 0 1-.493.43q-.291.15-.651.15-.817 0-1.251-.659-.33-.49-.329-1.538 0-1.298.392-1.78.393-.48 1.103-.481.69 0 1.042.388.352.39.511 1.129M118.409 658.71v15.924h2.396V661.41h6.036v-2.7z" style="fill:#231f20;fill-opacity:1;fill-rule:nonzero;stroke:none;stroke-width:.346641" transform="matrix(1.33333 0 0 -1.33333 -33.923 940.83)"></path><path d="m179.493 619.944-2.55-21.462h5.065zm3.233-27.57h-6.501l-.96-8.076h-5.724l6.24 44.163h7.992l5.826-44.163h-5.93zM120.34 619.944l-2.55-21.462h5.065zm3.233-27.57h-6.5l-.961-8.076h-5.723l6.239 44.163h7.992l5.827-44.163h-5.93zm-8.708 45.347c0-4.154 1.837-7.522 5.743-7.522 3.905 0 5.743 3.368 5.743 7.522h-3.492c0-1.586-.72-2.871-2.251-2.871s-2.252 1.285-2.252 2.871z" style="fill:#feea13;fill-opacity:1;fill-rule:nonzero;stroke:none;stroke-width:.346641" transform="matrix(1.33333 0 0 -1.33333 -33.923 940.83)"></path><path d="M119.465 580.526a6 6 0 0 1-.34-.365l-.26.292a5.5 5.5 0 0 1-1.476 1.075s1.276.82 1.697 3.12l.572 4.814h1.324l-.038-.16a68 68 0 0 1-1.461-8.603zM110.986 581.391a5.5 5.5 0 0 1-1.203-.918l-.205-.207q-.616.679-1.402 1.125s1.017.157 1.35.642c0 0 .19-.465 1.46-.642M171.087 616.05l-3.16-22.364-.407.04h-5.785v6.879h4.292c2.31.009 3.273 1.123 3.255 4.076v4.61c.024 2.224-1.034 3.478-2.8 3.51h-4.747v6.35h6.313q.487.008.888.116l.074-.102a151 151 0 0 0 2.002-2.994zM171.31 618.364c-.323.483-.68 1.011-1.06 1.567l-.06.083c.582.637.844 1.58.84 2.663v2.737l.075-.13q.487-.85.945-1.715l.077-.157-.733-5.185zM150.474 581.387h.89l.06-.197c.317-1.217.445-1.987.445-1.987s-.545.882-1.253 1.97zM98.544 563.229a14.8 14.8 0 0 1-.285-2.961c-.016-3.025.541-4.749 2.427-4.756h7.95c.772-.003 1.298.239 1.64.5l.255.251c1.016-.71 2.293-1.089 3.792-1.089 2.037 0 3.663.704 4.777 1.998l.227-.188c1.111-1.174 2.682-1.81 4.626-1.81 1.98 0 3.573.666 4.684 1.892l.244.25c1.57-1.925 3.87-2.142 4.818-2.142.768 0 2.423.143 3.86 1.22l.005-.364c-.05-3.557-.389-8.183-1.569-12.214l-.15-.112c-1.755-1.34-7.715-5.143-20.223-6.508l-.257.07c-1.702.469-5.279 1.63-10.732 4.245-5.083 2.437-8.403 4.875-10.131 6.31l.017.22c.14 1.088.428 3.803.489 8.11.048 3.428.068 5.242.075 6.147l.005.188c.81.137 1.94.353 3.132.65zM78.427 580.702q.28-.01.545-.009c2.556 0 6.163.666 8.608 3.894l.26.359s-.012-1.537.758-2.518c.667-.85 1.304-1.051 2.427-1.04h4.64c2.154-.011 3.246 1.404 3.262 3.486v2.872l.639-2.955c.625-2.884 2.117-3.389 2.117-3.389-1.652-.901-3.24-2.805-3.24-6.792v-2.08c.003-2.264 1.124-2.914 3.333-2.913l-.075-.1c-.941-1.247-2.024-2.681-2.72-4.688l-.266-.056c-1.862-.52-3.755-.84-4.588-.968l-.074.065c-1.638 1.247-4.955 3.933-8.023 7.406a264 264 0 0 1-7.659 8.296l.035.905zM62.05 581.725c2.609.587 5.116 2.041 6.7 5.106l.144.29c1.793-4.36 5.175-5.862 8.062-6.285l-.001-.198-.032-.81s-.647-.154-.864-.21c-1.156-.299-2.723-.885-4.426-2.034-2.298-1.55-3.573-2.429-4.079-3.5l-.17.183c-1.443 1.607-4.06 4.697-5.244 7.227zM73.156 557.525a59.6 59.6 0 0 0-11.448 21.698l.26-.383c1.818-2.836 4.422-5.664 5.17-6.457l.208-.218c.263-1.84 2.45-9.238 5.517-14.158zM77.227 553.24c4.036-3.205 9.934-6.203 15.451-5.944l.184.013c1.527-1.356 5.144-4.234 11.142-7.111 4.493-2.155 7.75-3.345 9.772-3.98l.442-.138c-14.777 1.218-28.03 7.81-37.8 17.82zM150.594 544.9c-6.924-2.199-11.078-1.684-12.962-1.17l-.134.044c1.337 4.798 1.567 10.256 1.53 13.934l.001.343c.386.657.696 1.462.883 2.449l.271.205c3.476 2.278 6.4 5.38 9.745 9.358 1.995 2.373 4.562 5.101 5.566 7.285l.096.19c3.738.065 11.939.209 16.156.277l.003-.088c-.132-5.056-.854-10.182-1.223-12.513l-.037-.261a60.1 60.1 0 0 0-19.507-19.931zM172.793 581.146a308 308 0 0 0-.684-1.68l-.08-.19-15.833-.272-.283.037c-.02.61-.187 1.375-.396 2.12l-.069.226h11.789c1.375-.001 1.941.849 1.941.849s.466-.855 3.72-.85zM160.64 638.707a60 60 0 0 0 6.284-7.086l.187-.249h-2.654l-.073.165c-1.006 2.35-2.489 5.03-3.592 6.922zM130.848 654.277a59.55 59.55 0 0 0 26.73-12.818l-.52.347c-7.238 4.771-13.913 6.579-17.322 7.198l-.271.159c-2.86 1.84-6.324 3.83-8.424 5.012zM81.562 631.372c-1.637-.025-2.223-.745-2.548-1.87 0 0-.91 1.861-2.64 1.87H71.29l.18.26a60 60 0 0 0 22.96 18.425l-.087-.13c-1.407-2.145-3.006-5.525-3.06-9.86l-.014-.205c-1.494-.497-4.262-2.296-9.55-8.306zM103.785 631.514c-2.51 1.123-7.13 3.094-11.527 4.468 0 0 3.317.81 8.25-.566 4.422-1.232 6.05-1.425 5.467-3.84l-.047-.204h-1.881zM108.874 631.604q.114.491.208 1.062.038.235.056.445s.365.23.47.302c.707.483 1.531.924 2.442 1.325l.176.086c.3-1.506.836-2.834 1.575-3.938l.189-.284-2.486-17.59-.008 1.415v14.074c-.002 1.714-.917 2.789-2.677 2.867zM128.62 639.767c-.506.584-1.29.866-2.27.866h-3.114c-1.617.08-2.304-.566-2.628-1.051 0 0-.77 1.01-2.144 1.051h-3.882c-1.982 0-2.629-1.294-2.629-2.912q0-.726.062-1.415l-.147-.07c-1.133-.472-2.158-.999-3.03-1.587l-.113.185c-.65.81-2.08 1.334-4.577 2.362-3.787 1.559-8.597 2.846-11.425 2.858l.019.215c.153 5.69 3.222 9.596 4.325 10.82l.15.155a59.6 59.6 0 0 0 21.975 4.17c2.51 0 4.985-.155 7.414-.456l.197-.113c2.277-1.258 7.917-4.402 11.268-6.52l-.067-.13c-.344-.612-.696-1.592-1.26-3.073-.737-1.933-1.395-3.553-1.616-4.708l-.041-.194c-1.35-.058-3.564-.181-6.187-.432z" style="fill:#fff;fill-opacity:1;fill-rule:nonzero;stroke:none;stroke-width:.346641" transform="matrix(1.33333 0 0 -1.33333 -33.923 940.83)"></path><path d="M126.803 654.845c2.277-1.258 7.917-4.402 11.268-6.52l-.067-.13c-.344-.612-.696-1.592-1.26-3.073-.737-1.933-1.395-3.553-1.616-4.708l-.041-.194c-1.35-.058-3.564-.181-6.187-.432l-.28-.02c.31-.359.517-.83.6-1.42l.282.031c2.503.229 4.592.34 5.826.393l.203-.12c1.018-.582 6.158-4.828 9.301-7.501l.255-.22c1.319-.348 2.636-.958 3.804-2.015a8.7 8.7 0 0 0 1.081-1.18l.001.563c-.006 2.102.561 3.073 2.421 3.073h12.062l-.073.165c-1.005 2.35-2.488 5.03-3.592 6.922l-.152.248a60 60 0 0 1-3.061 2.752l-.52.347c-7.239 4.771-13.913 6.579-17.322 7.199l-.272.158c-2.86 1.84-6.323 3.83-8.423 5.012l-.193.103a60 60 0 0 1-4.243.68zM112.05 634.738c-.91-.4-1.735-.841-2.441-1.325-.106-.072-.47-.302-.47-.302a6 6 0 0 0-.057-.445q-.093-.57-.208-1.062l-.055-.236a5 5 0 0 1-.235.004h-2.656l.047.205c.583 2.414-1.045 2.606-5.467 3.839-4.933 1.375-8.25.566-8.25.566 4.397-1.374 9.017-3.345 11.527-4.468l.262-.142h-1.193c-1.304.01-2.123-.718-2.245-1.598 0 0-.636 1.589-2.305 1.598h-7.522c-1.243.01-1.577-.506-1.85-1.113 0 0-.213 1.104-1.578 1.113h-5.792l.155.184c5.289 6.01 8.057 7.81 9.551 8.306l.013.204c.055 4.336 1.654 7.715 3.06 9.86l.088.131q1.376.627 2.788 1.186l-.15-.154c-1.103-1.224-4.172-5.13-4.325-10.82l-.019-.215c2.828-.013 7.638-1.3 11.425-2.859 2.497-1.028 3.927-1.552 4.577-2.362l.113-.184c.872.588 1.897 1.114 3.03 1.586l.147.07q.07-.765.211-1.48zM171.012 616.171c-.5.768-1.195 1.818-2.002 2.994l-.074.102c.52.14.935.397 1.254.746l.06-.081c.38-.557.737-1.085 1.06-1.568l.084-.137-.308-2.177zM78.406 580.476l-.035-.904c1.02-1.055 4.15-4.323 7.66-8.296 3.067-3.473 6.384-6.16 8.022-7.406l.074-.065c.833.128 2.726.447 4.589.968l.265.055a12.5 12.5 0 0 1-.437-1.6l-.323-.091a43 43 0 0 0-3.132-.651l-.005-.188c-.008-.906-.028-2.72-.076-6.147-.06-4.307-.349-7.022-.489-8.11l-.017-.22c1.728-1.435 5.049-3.873 10.131-6.31 5.454-2.616 9.03-3.776 10.733-4.246l.256-.07c12.508 1.366 18.468 5.169 20.224 6.51l.15.111c1.18 4.031 1.519 8.657 1.569 12.214l-.006.363a5.6 5.6 0 0 1 1.47 1.658v-.343c.036-3.678-.194-9.137-1.53-13.934l.133-.044c1.885-.515 6.038-1.03 12.963 1.17l.387.122c-9.207-5.795-20.107-9.146-31.79-9.146q-2.512.001-4.974.203l-.442.139c-2.022.635-5.278 1.825-9.772 3.98-5.998 2.877-9.615 5.755-11.142 7.11l-.184-.012c-5.517-.26-11.414 2.738-15.45 5.944l-.81.66a60 60 0 0 0-3.261 3.625l-.293.482c-3.068 4.92-5.254 12.318-5.517 14.158l-.209.218c-.748.793-3.351 3.621-5.169 6.457l-.26.383q-.3 1.05-.562 2.116l-.047.209q.476.07.95.176l.09-.23c1.184-2.53 3.801-5.62 5.245-7.227l.17-.183c.506 1.071 1.78 1.95 4.079 3.5 1.702 1.149 3.269 1.735 4.425 2.034.218.056.865.21.865.21l.031.81.001.198c.51-.075 1.004-.116 1.472-.134zM170.526 565.214c.369 2.331 1.091 7.457 1.223 12.513l-.003.088c-4.217-.068-12.418-.212-16.156-.277l-.095-.19c-1.005-2.184-3.572-4.912-5.567-7.285-3.345-3.979-6.269-7.08-9.745-9.358l-.271-.205c.127.666.197 1.416.197 2.259v5.979c0 2.387-.56 3.943-1.335 4.963 0 0 1.124 1.174 1.152 2.792v2.952a2.74 2.74 0 0 1-.56 1.602l-.357.34c1.9.04 2.426 2.062 2.426 2.062s.647-2.062 2.386-2.062h6.653l.142-.214c.708-1.088 1.253-1.97 1.253-1.97s-.128.77-.446 1.987l-.06.197h4.085l.07-.226c.208-.745.374-1.51.395-2.12l.283-.037 15.833.272.08.19c.175.427.41 1.002.684 1.68l.106.24h.202c2.449-.025 3.715.228 4.387.95l-.092-.34a59.4 59.4 0 0 0-6.906-17.043zM91.35 679.897h-2.73l-.391-1.29h-2.467l2.928 7.81h2.655l2.925-7.81h-2.53zm-.514 1.683-.85 2.81-.854-2.81zM94.652 681.193l2.305.144q.075-.562.304-.857.371-.477 1.064-.477.515 0 .795.242.28.243.28.564 0 .303-.267.544-.267.24-1.24.453-1.59.358-2.269.95a1.9 1.9 0 0 0-.684 1.51q0 .602.35 1.139.35.535 1.052.843.702.306 1.925.306 1.5 0 2.288-.556.787-.555.937-1.768l-2.275-.132q-.091.524-.384.762t-.809.238q-.424 0-.64-.178a.55.55 0 0 1-.214-.435q0-.187.18-.336.175-.156.816-.288 1.586-.342 2.273-.691.686-.35.998-.866.313-.517.313-1.157 0-.751-.417-1.386a2.6 2.6 0 0 0-1.163-.962q-.747-.327-1.884-.328-1.995 0-2.764.769-.768.768-.87 1.953M102.692 682.507q0 1.914 1.066 2.98t2.97 1.067q1.95 0 3.007-1.047 1.055-1.048 1.055-2.935 0-1.37-.46-2.248a3.3 3.3 0 0 0-1.334-1.365q-.871-.488-2.172-.488-1.322 0-2.189.421t-1.405 1.333-.538 2.282m2.411-.015q0-1.182.44-1.7.442-.516 1.2-.516.78 0 1.208.506t.428 1.817q0 1.102-.446 1.611-.447.51-1.21.51-.733 0-1.176-.517-.444-.517-.444-1.71M120.74 686.418h2.427v-7.81h-2.426zM129.73 679.897H127l-.39-1.29h-2.467l2.928 7.81h2.655l2.925-7.81h-2.53zm-.514 1.683-.85 2.81-.854-2.81zM140.715 686.418h2.427v-7.81h-2.427zM149.705 679.897h-2.73l-.39-1.29h-2.467l2.928 7.81h2.655l2.925-7.81h-2.53zm-.514 1.683-.85 2.81-.855-2.81zM61.058 658.71v16.046h8.189v-2.7h-5.793v-3.822h5.004v-2.7h-5.004v-6.824zM70.682 666.634q0 2.868.772 4.723t2.017 2.763 3.02.909q2.57-.001 4.189-2.156 1.619-2.157 1.619-6.14 0-4.028-1.714-6.293-1.504-2.003-4.085-2.003-2.6 0-4.104 1.981-1.714 2.265-1.714 6.216m2.487.11q0-2.774.959-4.16.96-1.386 2.378-1.386 1.427 0 2.367 1.375.938 1.375.939 4.226 0 2.794-.914 4.132-.915 1.337-2.392 1.337-1.48 0-2.408-1.348-.93-1.348-.929-4.176M86.834 658.71v13.346h-3.549v2.7h9.494v-2.7h-3.55V658.71zM94.305 674.756h4.786q1.96 0 2.756-.394.795-.393 1.343-1.388t.548-2.25q0-1.16-.471-2.094-.472-.934-1.224-1.382a3.3 3.3 0 0 0 1.668-1.425q.603-1.008.603-2.455 0-1.754-.765-2.964-.766-1.212-1.81-1.496-.725-.198-3.369-.198h-4.065zm2.396-2.67v-3.7h1.59q1.43 0 1.77.055.614.108.963.572.348.465.348 1.262 0 .71-.283 1.15-.285.443-.686.552-.404.11-2.31.11zm0-6.37v-4.307h2.244q1.475 0 1.895.17.418.17.702.67.285.5.285 1.27 0 .79-.304 1.301a1.6 1.6 0 0 1-.808.704q-.504.192-2.06.192zM117.094 658.71h-2.618l-1.025 3.64h-4.785l-.986-3.64h-2.567l4.63 16.046h2.58zm-4.434 6.34-1.647 5.96-1.615-5.96zM140.769 664.595l2.366-1.001q-.549-2.682-1.825-3.92-1.275-1.236-3.138-1.237-2.342 0-3.797 1.981-1.675 2.287-1.674 6.173-.001 4.103 1.684 6.424 1.464 2.014 3.936 2.014 2.013 0 3.368-1.513.967-1.074 1.415-3.189l-2.366-.758q-.23 1.305-.917 2.002t-1.618.697q-1.332 0-2.174-1.271-.84-1.272-.841-4.198 0-3.037.814-4.32.814-1.281 2.115-1.281.954 0 1.648.813.695.813 1.004 2.584M145.208 658.71v15.924h2.396V661.41h6.035v-2.7zM155.287 674.756h2.396v-8.696q0-2.025.09-2.64.162-1.062.769-1.642.608-.58 1.603-.58.843 0 1.375.41.532.411.729 1.14t.196 3.126v8.882h2.396v-8.428q0-3.228-.314-4.667-.314-1.44-1.414-2.332-1.103-.892-2.904-.892-1.874 0-2.925.74-1.05.737-1.524 2.078t-.473 4.942zM167.339 674.756h4.786q1.96 0 2.756-.394.795-.393 1.343-1.388t.548-2.25q0-1.16-.471-2.094t-1.224-1.382a3.3 3.3 0 0 0 1.668-1.425q.603-1.008.603-2.455 0-1.754-.765-2.964-.765-1.212-1.81-1.496-.724-.198-3.369-.198h-4.065zm2.396-2.67v-3.7h1.59q1.43 0 1.769.055.615.108.964.572.348.465.348 1.262 0 .71-.284 1.15-.282.443-.685.552t-2.31.11zm0-6.37v-4.307h2.244q1.475 0 1.895.17.418.17.703.67t.284 1.27q0 .79-.304 1.301a1.6 1.6 0 0 1-.808.704q-.504.192-2.06.192zM132.16 686.418h7.325v-1.926h-2.457v-5.884h-2.41v5.884h-2.458zm3.148-10.328.38-.485c1.06.5.94 1.32.94 2.457h-1.41v-1.198h.682s.045-.425-.592-.774M69.325 539.602c-1.107-.451-4.582-1.842-7.497 2.004-2.416 3.19-1.743 7.116 1.923 9.894 3.272 2.478 7.44 3.023 10.342-.807.498-.658 1.678-2.352 1.38-4.622-.144-1.04-.61-1.859-1.257-2.712l-2.34 1.927c1.057 1.267 1.013 2.76.091 3.977-2.217 2.926-5.439.485-6.195-.088-1.102-.835-2.103-1.801-2.486-2.867-.334-.926-.229-2.088.568-3.14 1.196-1.579 2.944-1.393 4.45-.717zM94.17 533.552l2.762-1.093-4.513-11.412 6.904-2.73-.918-2.322-9.666 3.824zM123.754 527.78l6.158 1.181c2.168.416 2.92.33 3.392.273 1.802-.305 2.809-1.834 3.08-3.252.304-1.58-.218-3.13-1.523-3.989a5.6 5.6 0 0 0-1.535-.756l.008-.04c1.347-.456 2.016-.874 3.92-2.924l2.307-2.498-3.504-.672-2.713 2.756c-2.263 2.275-2.5 2.524-4.465 2.146l-.587-.112 1.162-6.056-2.917-.56zm4.094-5.579 2.167.416c.892.17 2.127.408 2.598.687.947.54.87 1.49.788 1.916-.113.587-.424 1.115-1.033 1.334-.61.22-.974.15-2.938-.227l-2.29-.44zM155.714 523.113l-2.681 2.368-5.227-2.734.47-3.525-2.814-1.472-1.746 15.752 2.796 1.463 12.09-10.342zm-4.678 4.14-4.353 3.915.77-5.79zM164.954 551.127l1.723 2.419 12.027-8.57-1.723-2.418zM115.86 513.067l-.935 3.454-5.868.596-1.549-3.201-3.16.32 7.218 14.11 3.14-.318 4.396-15.29zm-1.626 6.03-1.477 5.666-2.545-5.256zm-3.593 13.567c-.172-1.59 1.086-3.031 2.81-3.218s3.26.952 3.432 2.543l-1.447.156c-.086-.79-.906-1.35-1.829-1.251s-1.604.823-1.519 1.613zM79.67 525.013l.988 3.438L75.946 532l-2.982-1.938-2.538 1.911 13.48 8.337 2.52-1.898-4.153-15.358zm1.731 6.003 1.669 5.61-4.898-3.179zm3.852 13.487c-.967-1.275-.63-3.157.751-4.205s3.285-.864 4.252.411l-1.16.88c-.48-.633-1.473-.692-2.212-.131s-.951 1.532-.471 2.165zM162.497 534.307c.629-.456 2.329-1.688 4.28.15 1.516 1.429 1.367 2.79.716 3.481-.849.9-1.783.388-4.217-.999-1.32-.733-4.244-2.383-6.479-.012-1.103 1.171-2.063 3.724 1.09 6.694 2.1 1.98 4.8 2.965 7.181.619l-2.091-2.142c-.614.47-1.726 1.321-3.438-.291-.645-.608-1.632-1.907-.812-2.778.65-.69 1.61-.354 3.718.868 2.003 1.151 4.72 2.72 7.21.078 1.23-1.306 1.437-3.18.903-4.477-.537-1.356-1.59-2.404-2.084-2.87-1.157-1.09-4.107-3.673-7.894-.496zm7.482-5.074.901-.899c2.085 2.09 1.172 3.4-.735 5.304l-2.286-2.29 1.272-1.269 1.172 1.174s.309-.366.266-.952-.59-1.068-.59-1.068M120.982 589.462l.62-5.309c.148-1.331.512-1.756 1.058-2.12 0 0-.513-.016-1.151-.235a5.6 5.6 0 0 1-2.044-1.272l.018.174a68 68 0 0 0 1.461 8.603z" style="fill:#231f20;fill-opacity:1;fill-rule:nonzero;stroke:none;stroke-width:.346641" transform="matrix(1.33333 0 0 -1.33333 -33.923 940.83)"></path><path d="M140.869 644.556s11-6.066 16.662-8.978c0 0-1.133 3.882-7.118 6.875s-9.544 2.103-9.544 2.103M91.045 560.923s-3.559 4.448-8.17 9.544-5.5 6.228-6.146 6.228c-.647 0-3.802-2.103-5.258-4.206 0 0 3.963 1.699 4.853 1.941 0 0 2.427-3.478 6.956-8.007 4.53-4.53 7.765-5.5 7.765-5.5" style="fill:#fff;fill-opacity:1;fill-rule:nonzero;stroke:none;stroke-width:.346641" transform="matrix(1.33333 0 0 -1.33333 -33.923 940.83)" data-source="https://football-logos.cc"></path><!-- source: https://football-logos.cc --></svg>