<svg xmlns="http://www.w3.org/2000/svg" xml:space="preserve" viewBox="135.22 19.45 523.27 755.9"><!-- Source: https://football-logos.cc --><path d="M4844.44 2312.07c-44.26-94.2-93.16-186.28-146.76-275.85-311.54-520.71-746.7-958.54-1254.78-1287.341h1326.18V144.805H1185.5v604.074h1308.63c-403.5 261.851-759.02 591.081-1046.08 978.951-143.85 194.38-261.98 402.57-358.75 621.3-26.48 59.88-50.42 120.74-75.18 181.33l531.42 244.62a3768 3768 0 0 0-70.82 179.44c-292.61 800.87-306.36 1660.14-205.91 2366.53 660.64-206.04 1245.83-12.07 1699.45 493.04 459.12-507.85 1045.55-696.98 1699.44-493.04 100.44-706.39 86.69-1565.67-205.91-2366.53a3764 3764 0 0 0-67.35-171.3l544.2-250.81c-29.76-74.19-60.19-147.96-94.2-220.34M2405.71 696.422H1237.96v-499.16h3478.66v499.16H3497.48v.687h-238.5c577.8 338.821 1060.38 808.961 1393.68 1366.041 85.03 142.12 157.72 289.92 218.81 442.62l-497.77 229.26c-292.85-667.72-768.72-1214.37-1405.45-1582.89-634.12 368.64-1108.4 910.14-1401.82 1574.79l-485-223.38c105.07-265.58 238.71-514.7 408.78-744.51 315.06-425.72 717.59-785.431 1187.38-1061.931h-271.88ZM4624 5253.49c-280.35-77.86-570.78-90.54-854.42-14.34-313.12 84.12-580.12 265.15-801.2 497.65-213.49-225.92-470.81-403.45-772.34-490.64-292.52-84.58-593.13-73.41-883.52 7.33-46.77-355.99-60.19-718.7-35.82-1076.71 27.92-409.92 106.11-817.87 247.29-1204.26 272.36-745.47 761.65-1354.6 1444.32-1759.58 682.64 403.31 1172.3 1015.34 1444.21 1759.58 141.17 386.39 219.37 794.34 247.28 1204.26 24.39 358.01 10.96 720.73-35.8 1076.71" style="fill:#ed1c2a;fill-opacity:1;fill-rule:evenodd;stroke:none" transform="matrix(.13333 0 0 -.13333 0 794.667)" data-source="https://football-logos.cc"></path><path d="M4624 5253.49c-280.35-77.86-570.78-90.54-854.42-14.34-313.12 84.12-580.12 265.15-801.2 497.65-213.49-225.92-470.81-403.45-772.34-490.64-292.52-84.58-593.13-73.41-883.52 7.33-46.77-355.99-60.19-718.7-35.82-1076.71 27.92-409.92 106.11-817.87 247.29-1204.26 272.36-745.47 761.65-1354.6 1444.32-1759.58 682.64 403.31 1172.3 1015.34 1444.21 1759.58 141.17 386.39 219.37 794.34 247.28 1204.26 24.39 358.01 10.96 720.73-35.8 1076.71z" style="fill:none;stroke:#ed1c24;stroke-width:2.16000009;stroke-linecap:butt;stroke-linejoin:miter;stroke-miterlimit:22.92560005;stroke-dasharray:none;stroke-opacity:1" transform="matrix(.13333 0 0 -.13333 0 794.667)"></path><path d="M4514.32 5096.48c-289.6-76.93-579.35-62.05-835.6 6.79-293 78.72-520.36 239-710.09 444.1-187.86-201.59-404.93-355.21-685.83-436.43-266.66-77.1-595.3-90.79-860.63-14.58-31.91-302.29-39.01-607.8-18.37-910.93 27.1-397.93 102.8-794.09 239.85-1169.2 253.23-693.1 700.66-1264.29 1324.78-1654.23 623.96 388.59 1071.65 962.36 1324.43 1654.23 137.05 375.11 212.75 771.27 239.84 1169.2 20.65 303.16 13.56 608.72-18.38 911.05" style="fill:#ed1c2a;fill-opacity:1;fill-rule:evenodd;stroke:none" transform="matrix(.13333 0 0 -.13333 0 794.667)" data-source="https://football-logos.cc"></path><path d="M2764.16 3531.29c-79.6 261.19-159.22 522.37-238.82 783.56-5.15 16.91-16.08 39.29-34.24 45.39-267.78 89.97-563.65 164.72-796.15 267.52-29.14 12.88-52.64 4.48-37.77-36.67 12.65-34.97 57.05-81.18 120.57-103.99 167.18-60.03 315.1-97.62 491.89-148.04 27.43-7.81 29.48-48.94-2.61-41.72-148.64 33.49-297.28 75.55-445.95 126.16-62.52 21.28-37.99-59.94 14.52-79.02 147.05-53.43 312.48-90.69 495.36-128.6 24.22-5.01 34.69-58.88-5.09-53.25-94.48 13.35-224.4 46.94-331.76 79.64-40.99 12.48-29.9-55.97 20.59-74.35 84.35-30.7 218.34-54.32 335.08-77.65 38.99-7.79 42.75-58.06 11.77-56.68-69.1 3.07-166.74 27.97-245.96 41.46-50.42 8.58-29.37-54.97 26.67-74.28 89.44-30.83 256.97-38.87 307.41-50.52 23.79-5.49 53.43-65.32 5.79-60.49-68.75 6.98-106.67 11.19-195.92 28.99-50.94 10.16-35.56-58.88 16.11-69.95 89.48-19.16 160.55-17.21 243.19-21.44 26.91-1.38 52.15-48.81 14.56-53.43-33.34-4.1-101.02-1.16-152.69 4.83-28.15 3.27-24.99-46.01 5.29-56.15 25.8-8.63 67.95 1.69 92.88-9.15 12.14-5.3 14.76-25.21 3.87-32.74-15.36-10.62-58.54-49.29-65.55-77.79-5.2-21.19-.9-52.24 20.91-51.26 35.21 1.58 58.85 72.8 94.09 73.84 23.74.69 23.48-31.58 18.09-52.26-12.58-48.24-71.96-105.96-79.66-155.21-5.52-35.38 2.48-101.51 34.26-85.04 22.89 11.87 31.89 40.09 50.93 68.27 24.61 36.43 59.21 90.96 72.9 99.91 22.45 14.66 34.98-10.86 36.17-28.74.68-10.08-6.14-31.38-13.45-43.93l-57.47-98.69c-28.93-49.69-50.4-115.97-38.68-185.62 2.04-12.19 119.76-15.63 144.88.69 58.92 38.27 13.13 110.18 59.3 136.4 17.65 10.02 59.46 3.73 64.26-21.23 7.39-38.45-34.99-138.62 13.87-138.5l42.2.1c25.72-4.93 35.86-25.52 31.77-44.96-5.24-25.02-32.98-42.74-70.28-86.75 30.57-45.99 67.04-80.16 106.2-108.99l-.28-115.89c-52.32-156.84-59.26-323.37 26.29-470.58 85.21 147.8 80.52 312.81 27.89 470.58l-.28 115.89c39.16 28.83 75.63 63 106.2 108.99-37.3 44.01-65.04 61.73-70.29 86.75-4.07 19.44 6.07 40.03 31.78 44.96l42.2-.1c48.86-.12 6.48 100.05 13.87 138.5 4.8 24.96 46.61 31.25 64.26 21.23 46.16-26.22.38-98.13 59.3-136.4 25.12-16.32 142.84-12.88 144.89-.69 11.71 69.65-9.76 135.93-38.69 185.62l-57.47 98.69c-7.3 12.55-14.13 33.85-13.46 43.93 1.2 17.88 13.73 43.4 36.18 28.74 13.69-8.95 48.28-63.48 72.89-99.91 19.05-28.18 28.05-56.4 50.94-68.27 31.77-16.47 39.78 49.66 34.25 85.04-7.69 49.25-67.07 106.97-79.65 155.21-5.39 20.68-5.65 52.95 18.09 52.26 35.24-1.04 58.88-72.26 94.09-73.84 21.8-.98 26.11 30.07 20.9 51.26-7 28.5-50.18 67.17-65.54 77.79-10.89 7.53-8.28 27.44 3.87 32.74 24.93 10.84 67.08.52 92.88 9.15 30.28 10.14 33.44 59.42 5.29 56.15-51.67-5.99-119.35-8.93-152.69-4.83-37.59 4.62-12.35 52.05 14.56 53.43 82.64 4.23 153.72 2.28 243.19 21.44 51.67 11.07 67.05 80.11 16.12 69.95-89.27-17.8-127.18-22.01-195.94-28.99-47.63-4.83-17.99 55 5.8 60.49 50.43 11.65 217.97 19.69 307.41 50.52 56.04 19.31 77.09 82.86 26.66 74.28-79.21-13.49-176.85-38.39-245.96-41.46-30.97-1.38-27.22 48.89 11.78 56.68 116.73 23.33 250.72 46.95 335.08 77.65 50.49 18.38 61.58 86.83 20.59 74.35-107.36-32.7-237.28-66.29-331.76-79.64-39.78-5.63-29.32 48.24-5.1 53.25 182.89 37.91 348.32 75.17 495.37 128.6 52.51 19.08 77.04 100.3 14.52 79.02-148.66-50.61-297.31-92.67-445.95-126.16-32.09-7.22-30.04 33.91-2.61 41.72 176.79 50.42 324.72 88.01 491.89 148.04 63.51 22.81 107.92 69.02 120.56 103.99 14.88 41.15-8.62 49.55-37.76 36.67-232.51-102.8-528.37-177.55-796.15-267.52-18.16-6.1-29.09-28.49-34.24-45.39-75.23-246.88-182.05-599.76-260.73-858.26-30.34-1.18-51.73-12.88-61.04 52.16-3.62 25.32 5.14 98.89-11.17 125.39-16.29 26.49-32.64 33.99-33.82 59.43-3.17 69.07 17.07 157.38-32.11 178.3-28.64 12.19-59.88 11.19-86.82 1.38-23.75-8.66-35.78-40-60.57-41.31-33.3-1.76-51.7-20.51-46.98-51.76 42.34 20.33 78.58-1.84 75.49-70.55-.47-10.3.11-29.7-11.28-45.61-8.21-11.48-20.08-18.51-23.76-25.78-11.03-21.81-5.06-38.04-15.68-77.15-17.07-62.83-77.67-72.34-90.63-29.8m293.07-700.84c133.11-27.84 263.58-158.27 279.62-276.91-132.94 23.62-255.46 134.18-279.62 276.91m114.09 164.23 202.48-180.33c43.86-39.06 108.98-44.03 141.43-24.14 35.71 21.88 47.68 65.47 32.14 96.6-28.93-37.04-89.67-34.07-118.92-16.11l-228.18 140.08c-28.45 18.09-43.95-2.74-28.95-16.1m-392.34 0-202.47-180.33c-43.87-39.06-108.97-44.03-141.43-24.14-35.71 21.88-47.68 65.47-32.15 96.6 28.94-37.04 89.68-34.07 118.93-16.11l228.18 140.08c28.44 18.09 43.95-2.74 28.94-16.1m114.09-164.23c-133.1-27.84-263.57-158.27-279.61-276.91 132.93 23.62 255.45 134.18 279.61 276.91m85.51 1004.65c16.19 0 29.33-6.49 29.33-14.48 0-8.01-13.14-14.5-29.33-14.5s-29.32 6.49-29.32 14.5c0 7.99 13.13 14.48 29.32 14.48" style="fill:#fff;fill-opacity:1;fill-rule:evenodd;stroke:none" transform="matrix(.13333 0 0 -.13333 0 794.667)"></path><path d="M1600.2 489.301h-13.28c-3.35 9.758-9.23 20.113-17.63 31.137-8.47 11.023-16.46 17.039-24.03 18.066-3.47.48-8.05.906-13.76 1.266-5.75.363-11.04.539-15.86.539h-38.01v-98.278h24.26c6.87 0 12.81.778 17.86 2.344 5.06 1.625 9.52 4.457 13.46 8.551 2.88 2.953 5.64 7.89 8.34 14.754 2.7 6.867 4.35 12.769 4.88 17.711h13.11V380.055h-13.11c-.41 5.3-2.23 11.746-5.29 19.336-3.12 7.582-5.76 12.64-7.93 15.113-3.35 3.73-7.58 6.566-12.75 8.371-5.17 1.809-11.35 2.715-18.57 2.715h-24.26v-82.934q0-6.317 2.28-10.836c1.53-3.015 4.53-5.425 8.88-7.293 2.53-1.078 5.99-2.047 10.39-2.945 4.42-.848 8.82-1.566 13.17-1.992v-13.789h-131.68v13.789c3.34.305 7.76.844 13.28 1.445 5.46.668 9.34 1.445 11.52 2.414 4.1 1.625 6.99 3.91 8.63 6.864 1.59 2.953 2.42 6.746 2.42 11.324v176.574c0 4.031-.77 7.523-2.18 10.535-1.48 2.953-4.4 5.481-8.87 7.473-3.23 1.445-7.47 2.707-12.76 3.914-5.28 1.144-9.28 1.922-12.04 2.285v13.734h219.53zM1843.05 528.27c12.04-11.262 21.62-24.934 28.66-40.895 7.06-16.02 10.59-34.27 10.59-54.742 0-18.188-3-35.535-8.93-52.039-5.99-16.442-14.58-30.649-25.86-42.512-11.81-12.348-25.68-21.984-41.66-28.852-15.91-6.863-34.95-10.292-56.99-10.292-17.75 0-34.55 3.011-50.41 8.968-15.82 6.028-29.8 14.696-41.84 26.137-11.93 11.145-21.4 24.754-28.39 40.773-6.99 15.965-10.51 33.786-10.51 53.418 0 20.481 3.41 39.028 10.22 55.707 6.87 16.622 16.21 30.899 28.15 42.758 11.87 11.625 25.85 20.594 42.13 26.918 16.22 6.266 33.49 9.403 51.88 9.403 18.21 0 35.37-3.016 51.36-9.161 16.04-6.078 29.91-14.636 41.6-25.589m-44.25-179.051c5.17 10.664 8.88 22.828 11.17 36.316 2.34 13.555 3.46 28.852 3.46 45.891 0 14.457-.99 28.543-3 42.281-1.99 13.668-5.4 25.891-10.27 36.613-4.94 10.657-11.46 19.274-19.63 25.719-8.1 6.496-18.28 9.691-30.44 9.691-20.8 0-36.54-10.058-47.36-30.23-10.75-20.172-16.16-48.66-16.16-85.461 0-15.652 1.18-30.41 3.54-44.324 2.34-13.848 6.03-25.953 11.09-36.317 5.18-10.476 11.7-18.605 19.63-24.445 7.94-5.844 17.69-8.734 29.26-8.734 11.34 0 21.1 2.949 29.27 8.797 8.16 5.894 14.62 13.964 19.44 24.203M2132.09 528.27c12.04-11.262 21.62-24.934 28.66-40.895 7.06-16.02 10.58-34.27 10.58-54.742 0-18.188-2.99-35.535-8.93-52.039-5.99-16.442-14.58-30.649-25.85-42.512-11.81-12.348-25.68-21.984-41.66-28.852-15.92-6.863-34.96-10.292-57-10.292-17.74 0-34.54 3.011-50.41 8.968-15.81 6.028-29.79 14.696-41.84 26.137-11.93 11.145-21.39 24.754-28.39 40.773-6.98 15.965-10.51 33.786-10.51 53.418 0 20.481 3.41 39.028 10.22 55.707 6.88 16.622 16.22 30.899 28.15 42.758 11.87 11.625 25.85 20.594 42.14 26.918 16.21 6.266 33.48 9.403 51.88 9.403 18.21 0 35.37-3.016 51.35-9.161 16.05-6.078 29.91-14.636 41.61-25.589m-44.25-179.051c5.17 10.664 8.87 22.828 11.16 36.316 2.35 13.555 3.46 28.852 3.46 45.891 0 14.457-.98 28.543-2.99 42.281-2 13.668-5.4 25.891-10.27 36.613-4.95 10.657-11.47 19.274-19.63 25.719-8.11 6.496-18.28 9.691-30.44 9.691-20.81 0-36.55-10.058-47.36-30.23-10.75-20.172-16.16-48.66-16.16-85.461 0-15.652 1.17-30.41 3.53-44.324q3.51-20.771 11.1-36.317c5.17-10.476 11.7-18.605 19.63-24.445 7.93-5.844 17.69-8.734 29.26-8.734 11.33 0 21.09 2.949 29.26 8.797 8.17 5.894 14.63 13.964 19.45 24.203M2422.47 484.543h-13.22c-3.58 10.723-9.28 22.164-17.15 34.387-7.82 12.23-15.1 18.855-21.74 19.758-3.7.476-8.23.902-13.63 1.261-5.41.36-10.06.485-13.93.485h-8.11V344.102c0-4.274.76-8.012 2.24-11.204 1.52-3.253 4.46-5.777 8.81-7.703 2.64-1.027 6.76-2.117 12.28-3.254 5.58-1.086 10.34-1.925 14.21-2.351v-13.789h-136.14v13.789c3.29.305 8 .844 13.99 1.445 6.05.668 10.17 1.445 12.34 2.414 4.47 1.864 7.47 4.391 8.94 7.582 1.51 3.196 2.23 6.926 2.23 11.266v198.137h-8.06c-3.94 0-8.57-.125-13.98-.485-5.41-.359-9.93-.785-13.57-1.261-6.64-.903-13.94-7.528-21.8-19.758-7.88-12.223-13.57-23.664-17.11-34.387h-13.27v71.609h236.67zM2652.29 420.652c7.35-5.187 13.34-11.687 17.91-19.457 4.59-7.832 6.89-17.047 6.89-27.644 0-12.707-2.66-23.426-7.82-32.215-5.23-8.738-12.75-15.664-22.51-20.719-10.27-5.422-22.21-9.219-35.72-11.445-13.46-2.223-29.32-3.371-47.59-3.371h-126.87v13.789c3.59.305 8.05.844 13.46 1.566 5.34.723 9.16 1.504 11.34 2.469 4.23 1.746 7.16 4.094 8.69 6.988 1.53 2.832 2.36 6.563 2.36 11.203v176.395c0 4.273-.66 7.766-1.95 10.598-1.22 2.832-4.28 5.296-9.1 7.41-3.58 1.566-7.7 2.828-12.4 3.793-4.7 1.027-8.81 1.804-12.4 2.406v13.734h132.74c33.38 0 57.47-4.699 72.28-14.097 14.8-9.395 22.21-23.301 22.21-41.672 0-8.43-1.65-15.903-5.01-22.285-3.29-6.438-8.04-11.981-14.26-16.68-5.59-4.332-12.35-8.133-20.16-11.324-7.76-3.125-16.16-5.778-25.1-7.887v-3.367c8.94-.969 18.23-2.957 27.86-6.086 9.64-3.133 18.04-7.164 25.15-12.102m-55.41 75.332c0 13.914-3.82 24.692-11.46 32.461-7.64 7.774-19.1 11.688-34.38 11.688-2.17 0-5-.121-8.52-.301-3.46-.18-6.46-.301-8.98-.422v-92.808h8.92c18.58 0 32.32 4.461 41.15 13.308 8.8 8.918 13.27 20.903 13.27 36.074m12.04-120.144c0 17.406-5.05 30.773-15.15 40.051-10.11 9.269-24.62 13.968-43.54 13.968-2.18 0-5.12-.121-8.7-.3-3.65-.18-6.29-.297-7.99-.418v-91.606c1-4.332 4.23-8.008 9.63-11.015 5.35-3.012 11.93-4.457 19.63-4.457 13.62 0 24.73 4.699 33.31 14.085 8.53 9.399 12.81 22.649 12.81 39.692M2968.71 305.801h-133.1v13.789c6.24.426 13.52 1.566 21.87 3.43 8.4 1.816 12.57 4.101 12.57 6.753 0 .961-.06 2.047-.23 3.184-.18 1.207-.65 2.773-1.47 4.762l-20.86 51.914h-84.33a536 536 0 0 1-6.46-16.981c-2.34-6.445-4.4-12.23-6.1-17.289-2.19-6.566-3.47-11.32-3.89-14.273-.41-2.945-.58-5-.58-6.199 0-3.739 2.76-6.934 8.34-9.578 5.58-2.653 14.81-4.579 27.8-5.723v-13.789h-100.19v13.789c3.76.18 8.05.844 12.81 1.805q7.14 1.54 11.28 4.16c4.7 2.832 8.69 6.324 11.98 10.418 3.23 4.097 6 8.976 8.17 14.632 13.29 33.063 26.62 66.184 40.02 99.368 13.4 33.121 28.15 69.746 44.3 109.73h34.44c22.5-56.726 40.12-101.539 52.88-134.484 12.75-32.879 23.57-60.219 32.49-81.836 1.53-3.555 3.41-6.746 5.71-9.641 2.28-2.832 5.57-5.594 9.8-8.187 3.24-1.867 6.93-3.313 11.23-4.219 4.24-.961 8.05-1.566 11.52-1.746zm-128.28 101.293L2805 497.789l-34.96-90.695zM3200.75 386.082l-4.82-80.281h-224.99v13.789c4.06.305 8.76.906 14.11 1.625 5.4.789 8.99 1.508 10.69 2.234 4.11 1.625 6.99 3.91 8.63 6.864 1.59 2.953 2.42 6.746 2.42 11.324v176.574c0 4.273-.66 7.766-1.95 10.535-1.22 2.774-4.28 5.238-9.1 7.473-3.58 1.687-7.82 2.945-12.81 3.972-5 1.028-8.99 1.747-11.99 2.227v13.734h134.1v-13.734c-3.65-.363-8-.84-12.99-1.508-5.01-.66-9.28-1.558-12.99-2.765-4.46-1.504-7.46-3.918-8.93-7.106-1.53-3.25-2.23-6.93-2.23-11.023V355.363c0-7.769.46-13.847 1.53-18.304 1.04-4.52 3.05-7.774 5.98-9.879 3-2.285 7.17-3.731 12.52-4.34 5.35-.66 12.7-.961 22.1-.961 9.22 0 18.1.543 26.79 1.629 8.64 1.14 14.86 3.613 18.69 7.344q8.715 9.035 17.97 25.3c6.12 10.895 11.05 20.891 14.69 29.93zM3442.42 386.082l-4.82-80.281h-224.98v13.789c4.05.305 8.75.906 14.1 1.625 5.4.789 8.99 1.508 10.69 2.234 4.11 1.625 7 3.91 8.64 6.864 1.58 2.953 2.41 6.746 2.41 11.324v176.574c0 4.273-.65 7.766-1.94 10.535-1.23 2.774-4.29 5.238-9.11 7.473-3.58 1.687-7.81 2.945-12.8 3.972-5 1.028-9 1.747-11.99 2.227v13.734h134.09v-13.734c-3.65-.363-8-.84-12.98-1.508-5.01-.66-9.29-1.558-12.99-2.765-4.47-1.504-7.47-3.918-8.94-7.106-1.52-3.25-2.23-6.93-2.23-11.023V355.363c0-7.769.47-13.847 1.53-18.304 1.05-4.52 3.05-7.774 5.99-9.879q4.5-3.427 12.51-4.34c5.35-.66 12.7-.961 22.1-.961 9.22 0 18.1.543 26.79 1.629 8.64 1.14 14.87 3.613 18.69 7.344 5.82 6.023 11.8 14.457 17.98 25.3 6.11 10.895 11.05 20.891 14.69 29.93zM3671.87 299.117c-17.92 0-34.66 2.953-50.29 8.906-15.57 5.911-29.2 14.52-40.79 25.844-11.33 11.02-20.32 24.688-26.84 41.012-6.53 16.262-9.81 34.211-9.81 53.715 0 19.394 3.28 37.398 9.87 53.902 6.63 16.5 15.87 30.836 27.85 42.942 11.69 11.921 25.73 21.136 42.13 27.64 16.45 6.508 34.02 9.82 52.7 9.82q20.28 0 37.02-5.058c11.11-3.375 20.51-7.172 28.21-11.383l10.69 9.695h14.98l1.53-91.363h-15.16c-8.57 27.883-18.92 48.305-30.96 61.375-12.05 13.059-26.74 19.566-44.07 19.566-21.57 0-38.02-9.691-49.24-29.144-11.23-19.516-16.87-46.801-16.87-81.969 0-19.875 1.93-36.851 5.77-50.949 3.87-14.027 8.86-25.352 15.04-33.902 6.69-8.977 14.56-15.539 23.62-19.692 9.04-4.219 19.09-6.265 30.14-6.265 16.05 0 30.38 4.457 42.89 13.367 12.58 8.972 24.03 22.527 34.38 40.594l14.81-9.157c-4.94-10.355-10.58-19.633-16.87-27.761-6.35-8.196-13.63-15.239-21.86-21.141-9.1-6.438-19.1-11.504-30.09-15.18-10.92-3.609-23.85-5.414-38.78-5.414M4025.78 386.082l-4.82-80.281h-224.98v13.789c4.05.305 8.75.906 14.1 1.625 5.4.789 8.99 1.508 10.69 2.234 4.11 1.625 7 3.91 8.64 6.864 1.59 2.953 2.41 6.746 2.41 11.324v176.574c0 4.273-.65 7.766-1.94 10.535-1.23 2.774-4.29 5.238-9.11 7.473-3.57 1.687-7.81 2.945-12.81 3.972-4.99 1.028-8.98 1.747-11.98 2.227v13.734h134.09v-13.734c-3.65-.363-8-.84-12.99-1.508-5-.66-9.28-1.558-12.98-2.765-4.47-1.504-7.47-3.918-8.93-7.106-1.53-3.25-2.24-6.93-2.24-11.023V355.363c0-7.769.47-13.847 1.53-18.304 1.05-4.52 3.05-7.774 5.99-9.879q4.5-3.427 12.51-4.34c5.35-.66 12.7-.961 22.1-.961 9.22 0 18.1.543 26.79 1.629 8.64 1.14 14.87 3.613 18.69 7.344 5.82 6.023 11.8 14.457 17.98 25.3 6.11 10.895 11.05 20.891 14.69 29.93zM4318.93 542.418c-3.29-.363-8.11-1.141-14.33-2.406-6.29-1.207-11.52-3.371-15.76-6.446-4.39-2.953-7.45-8.187-9.21-15.843-1.76-7.641-2.71-19.145-2.71-34.442v-93.168c0-27.406-9.05-49.445-27.15-66.125-18.16-16.742-42.13-25.05-71.98-25.05-34.78 0-61.7 8.07-80.74 24.14-19.03 16.145-28.55 38.613-28.55 67.395V518.57c0 4.153-.82 7.653-2.35 10.598-1.53 2.953-4.52 5.605-8.87 7.949-3 1.508-6.65 2.774-10.99 3.672-4.41.969-7.93 1.629-10.7 1.996v13.367h128.1v-13.367c-3.7-.25-7.4-.73-11.22-1.328a77 77 0 0 1-11.52-2.953c-4.35-1.387-7.29-3.731-8.75-7.043-1.54-3.313-2.29-6.984-2.29-11.086V394.023c0-24.808 5.34-42.878 16.04-54.195 10.69-11.262 26.14-16.926 46.48-16.926 19.97 0 35.6 6.262 47 18.735 11.35 12.461 17.04 30.769 17.04 55.043v84.855c0 15.055-.99 26.313-3 33.785-2.05 7.469-5.11 12.828-9.22 16.141-3 2.586-8.16 4.937-15.57 7.043s-12.64 3.434-15.58 3.914v13.734h105.83zM4547.21 420.652c7.36-5.187 13.35-11.687 17.92-19.457 4.59-7.832 6.89-17.047 6.89-27.644 0-12.707-2.65-23.426-7.82-32.215-5.23-8.738-12.75-15.664-22.51-20.719-10.27-5.422-22.21-9.219-35.72-11.445-13.46-2.223-29.32-3.371-47.59-3.371h-126.86v13.789c3.58.305 8.04.844 13.45 1.566 5.34.723 9.16 1.504 11.34 2.469 4.23 1.746 7.17 4.094 8.69 6.988 1.53 2.832 2.36 6.563 2.36 11.203v176.395c0 4.273-.66 7.766-1.95 10.598-1.22 2.832-4.28 5.296-9.1 7.41-3.58 1.566-7.7 2.828-12.4 3.793a259 259 0 0 1-12.39 2.406v13.734h132.73c33.38 0 57.47-4.699 72.28-14.097 14.8-9.395 22.21-23.301 22.21-41.672 0-8.43-1.65-15.903-5.01-22.285-3.29-6.438-8.04-11.981-14.26-16.68-5.59-4.332-12.35-8.133-20.16-11.324-7.76-3.125-16.16-5.778-25.1-7.887v-3.367c8.94-.969 18.23-2.957 27.86-6.086 9.64-3.133 18.04-7.164 25.14-12.102m-55.41 75.332c0 13.914-3.81 24.692-11.45 32.461-7.64 7.774-19.1 11.688-34.37 11.688-2.18 0-5.01-.121-8.53-.301-3.46-.18-6.46-.301-8.98-.422v-92.808h8.92c18.58 0 32.32 4.461 41.15 13.308 8.8 8.918 13.26 20.903 13.26 36.074m12.05-120.144c0 17.406-5.05 30.773-15.15 40.051-10.11 9.269-24.62 13.968-43.54 13.968-2.18 0-5.12-.121-8.7-.3-3.65-.18-6.29-.297-7.99-.418v-91.606c.99-4.332 4.23-8.008 9.64-11.015 5.34-3.012 11.92-4.457 19.62-4.457 13.63 0 24.73 4.699 33.31 14.085 8.53 9.399 12.81 22.649 12.81 39.692M1521.54 2621.57l123.03-231.41c26.43-49.72 29.32-94.39 8.66-134.01-20.65-39.61-48.57-68.74-83.67-87.4-37.34-19.86-78.83-27.04-124.19-21.51-45.47 5.57-79.17 28.96-101.06 70.13l-128.48 241.67 10.74 5.71 18.78-35.32 284.24 151.11-18.78 35.32zm-131.35-359.65 197.41 104.94c17.97 9.55 28.73 17.48 32.48 23.76 3.66 6.24 1.22 17.41-7.34 33.52l-12.37 23.26-284.24-151.11 9.97-18.75c7.98-15.02 16.2-23.72 24.7-26.19 8.45-2.39 21.65 1.13 39.39 10.57M1630.05 1755.01l-197.97 282.75 9.97 6.98 22.63-32.35 263.71 184.64-22.64 32.33 9.95 6.97 191.6-273.66-89.07-62.37-6.67 9.53c19.4 14.99 31.38 36.61 36.02 64.7 4.67 28.22-5.06 59.49-29.13 93.85l-3.58 5.13-122.87-86.02 6.12-8.73c8.94-12.79 22.1-20.68 39.4-23.73 17.38-3 38.03 3.93 62 20.71l6.37-9.1-141.28-98.9-6.36 9.08c20.43 14.31 32.92 30.27 37.48 47.88 4.68 17.58 2.07 33.29-7.58 47.08l-6.11 8.73-130.88-91.63c21.13-30.17 47.72-50.17 79.72-59.94 32.03-9.63 64.6-6.83 97.69 8.59l6.36-9.09zM2181.61 1617.64q-31.725 17.01-109.65-7.14l-256.77-79.17-54.19 62.99 176.84 306.72-18.04 20.97 9.21 7.92 142.11-165.2-9.22-7.93-21.72 25.25-112.32-198.45 127.23 40.99c8.15 2.7 16.02 6.1 23.77 10.21 7.62 4.11 13.53 7.92 17.6 11.42 23.18 19.94 25.04 41.3 5.5 64.01l9.21 7.93 79.65-92.59zM2243.89 1114.61l-257.23 230.15 8.11 9.06 29.42-26.32 214.64 239.9-29.42 26.33 8.11 9.06 248.96-222.76-72.51-81.04-8.67 7.76c15.49 19.02 22.22 42.8 20.33 71.21-1.9 28.54-18.5 56.76-49.77 84.74l-4.66 4.16-100.01-111.77 7.94-7.12c11.63-10.4 26.25-15.07 43.79-14.1 17.6 1.04 36.12 12.49 55.63 34.29l8.27-7.39-114.99-128.53-8.26 7.4c16.63 18.59 25.14 36.98 25.57 55.16.55 18.2-5.57 32.89-18.12 44.11l-7.94 7.11-106.53-119.06c27.45-24.56 57.91-37.97 91.29-40.17 33.38-2.08 64.46 8.07 93.16 30.64l8.27-7.41zM2679.75 790.676l-135.8 100.238 27.91 197.026c-6.8 5.04-7.98 7.46-11.66 9.74l-97.53-131.715 28.03-20.766-7.23-9.769-181.94 134.71 7.24 9.78 32.72-24.23 191.56 258.7-32.72 24.23 7.24 9.77 230.87-170.95c46.29-34.28 57.59-93.69 27.01-136.63-16.48-23.13-42.09-44.705-79.31-33.93l-19.05-190.642 20.58-16.179zm-45.72 313.424 43.47 58.71c8.71 11.75 12.44 20.94 11.18 27.68-1.18 6.69-8.11 14.67-20.5 23.85l-13.95 10.32-86.79-117.2 8.1-7.01c13.64-11.82 25.18-14.17 33.65-13.6 8.49.57 16.71 6.27 24.84 17.25M2990.69 1074.07c60.09 0 107.41-16.57 142.13-49.61 34.64-33.046 52-78.167 52-135.269 0-54.015-17.01-98.078-51.11-132.093-34.11-33.93-80.73-50.934-139.94-50.934-59.22 0-106.72 16.738-142.5 50.231-35.77 33.48-53.66 78.601-53.66 135.351 0 55.434 17.44 99.668 52.52 132.714 34.99 33.04 81.87 49.61 140.56 49.61m29.16-317.593v267.453c0 22.56-8.81 33.84-26.6 33.84-19.22 0-28.91-11.81-28.91-35.34V754.715c0-11.719 2.2-20.09 6.61-25.199 4.4-5.114 11.8-7.578 22.3-7.578 17.79 0 26.6 11.457 26.6 34.539M3475.8 1349.57c-28.1-23.72-24.16-60.69 11.88-110.97l138.05-192.59-67.75-48.572-331.66 110.412 96.11-134.069c40.92-57.086 78.93-73.207 114.09-48.441l7.09-9.883-108.66-77.883-7.09 9.883c15.63 12.387 21.62 28.387 18 47.805-3.69 19.363-11.71 37.804-24.13 55.14L3203.5 1115.34l-36.96 12.54-26.22-18.78-7.08 9.87 162.8 116.69 232.39-77.35-49.33 68.83c-19.92 27.79-38.7 45.66-56.26 53.67-17.51 7.94-34.28 6.23-50.04-5.08l-9.45-6.77-7.08 9.89 112.44 80.59zM3809.53 1662.56q-15.24-32.61 13.14-109.08l93.14-252.05-59.93-57.56-315.95 159.75-19.95-19.17-8.42 8.76 157.17 150.97 8.41-8.77-24.01-23.07 204.31-101.28-47.9 124.8c-3.15 7.98-6.98 15.65-11.5 23.17-4.53 7.38-8.66 13.07-12.37 16.94-21.19 22.07-42.62 22.74-64.22 1.99l-8.42 8.77 88.08 84.6zM4314.52 1727.54l-135.13-163.38-9.38 7.75 24.88 30.08-93.47 34.79-76.56-92.56c5.98-8.95 12.63-16.39 19.96-22.45 14.06-11.64 28.73-17.82 44.07-18.62 15.41-.74 30.56 7.9 45.63 25.85l9.37-7.75-85.93-103.9-9.37 7.75c3.86 10.06 3.32 23.79-1.53 41.29-4.79 17.57-12.38 34.95-22.64 52.13l-138.44 234.13 75.37 91.12 331.61-123.22 12.19 14.74zm-224.78-85.81-159.84 59.5-.69-.83 88.75-145.45zM4536.56 2056.28l-190.86-283.9-10.09 6.79 23.01 34.22-267.16 179.6-23.01-34.22-10.09 6.77 132.21 196.66 10.09-6.79-25.08-37.29 267.15-179.6c17.32 32.53 24.26 66.09 20.73 100.64-3.59 34.48-17.34 60.92-41.26 79.35l6.78 10.09zM4745.64 2421.89l-165.67-302.81-10.67 5.84 18.94 34.63-282.4 154.51-18.95-34.63-10.66 5.83 160.34 293.08 95.41-52.2-5.59-10.2c-22.04 10.76-46.73 11.9-73.96 3.6-27.37-8.33-51.08-30.91-71.22-67.72l-3-5.48 131.59-72 5.11 9.36c7.48 13.68 8.73 28.98 3.79 45.84-5.01 16.91-20.38 32.35-46.04 46.39l5.33 9.73 151.28-82.77-5.32-9.73c-21.88 11.97-41.72 16.09-59.53 12.37-17.83-3.6-30.76-12.9-38.84-27.67l-5.12-9.35 140.16-76.69c17.68 32.32 23.82 65.03 18.38 98.03-5.57 32.98-22.52 60.94-51.01 83.76l5.33 9.73z" style="fill:#ed1c2a;fill-opacity:1;fill-rule:nonzero;stroke:none" transform="matrix(.13333 0 0 -.13333 0 794.667)" data-source="https://football-logos.cc"></path><!-- source: https://football-logos.cc --></svg>