<svg xmlns="http://www.w3.org/2000/svg" xml:space="preserve" version="1.0" viewBox="0 0 396.85 420.84"><!-- Source: https://football-logos.cc --><path fill="#FFD300" d="m138.574 0-3.355 6.066c-5.16 9.326-12.263 15.367-20.542 17.471-7.591 1.929-15.582.41-23.111-4.392l-8.042-5.129L0 99.213l6.412 9.913c8.452 13.053 16.435 25.381 16.435 41.646 0 10.177-3.496 25.529-7.544 43.305-5.873 25.791-13.182 57.888-13.182 90.241 0 32.26 14.644 58.349 27.184 70.888 26.627 26.627 51.595 29.299 78.03 32.128 8.792.941 17.883 1.913 27.386 3.843 19.932 4.046 38.054 12.015 57.034 25.077l6.667 4.589 6.667-4.589c18.98-13.062 37.104-21.031 57.034-25.077 9.504-1.93 18.595-2.902 27.387-3.843 26.435-2.829 51.402-5.501 78.031-32.128 12.54-12.539 27.183-38.627 27.183-70.888 0-32.353-7.309-64.45-13.183-90.241-4.048-17.776-7.543-33.127-7.543-43.305 0-16.265 7.983-28.593 16.435-41.646l6.419-9.923-83.53-85.188-8.042 5.129c-7.53 4.802-15.521 6.321-23.111 4.392-8.28-2.104-15.382-8.145-20.541-17.471L258.269 0z" data-source="https://football-logos.cc"></path><path d="M358.61 199.298c-4.364-19.159-8.131-35.706-8.131-48.526 0-20.146 8.088-35.295 16.418-48.511-9.77-9.965-48.587-49.562-57.651-58.806-10.654 4.531-22.034 5.629-32.871 2.875-12.45-3.164-23.427-11.184-31.518-22.812h-92.87c-8.09 11.628-19.068 19.648-31.518 22.812-10.837 2.754-22.217 1.656-32.872-2.875l-57.65 58.806c8.33 13.216 16.418 28.366 16.418 48.511 0 12.821-3.768 29.368-8.131 48.526-5.904 25.926-12.595 55.312-12.595 85.02 0 23.463 10.193 44.157 20.295 54.258 20.756 20.757 39.797 22.794 63.904 25.374 9.33.998 18.979 2.03 29.562 4.18 20.758 4.213 39.696 12.038 59.022 24.367 19.327-12.329 38.264-20.153 59.021-24.367 10.585-2.149 20.233-3.182 29.563-4.18 24.107-2.579 43.148-4.616 63.905-25.374 10.102-10.101 20.294-30.794 20.294-54.258 0-29.708-6.691-59.094-12.595-85.02m-157.248 62.001h-9.872V143.374h9.872z"></path><path fill="#FFD300" d="M256.095 302.802c-.33-8.095-.703-14.579-1.625-23.757l-.785-6.727-.656-5.998c2.044 1.108 3.527 3.177 5.028 7.569 2.024 5.921 4.374 17.964 4.74 28.622l.087 2.546h21.018l5.935-.685c4.35-.46 8.106-.858 13.065-1.927l4.449-.96-2.606-14.338c-3.123-17.035-7.4-40.365-8.042-53.604-.358-7.382-.488-16.669-.626-26.502l-.077-5.417c-.111-7.41-.89-14.19-2.313-20.155-2.412-10.108-5.66-13.718-10.76-18.771l-.15-.147c-3.427-3.397-8.606-8.531-22.791-14.409-11.931-4.944-19.724-5.824-35.695-5.824-10.455 0-16.244-.009-20.579-.042v82.25h13.817c5.071 0 9.77-7.183 9.77-14.018v-58.769c12.78.111 19.285 1.033 29.085 5.094 12.477 5.17 16.693 9.349 19.771 12.399l.15.15c4.495 4.453 6.392 6.567 8.231 14.271 1.246 5.221 1.957 11.484 2.056 18.112l.078 5.41c.139 9.916.27 19.282.636 26.824.672 13.866 4.839 36.589 8.185 54.846l.951 5.229c-2.509.393-4.878.658-7.594.945l-7.811.902-9.15 1.146c-.829-10.173-2.962-20.464-4.929-26.219-2.28-6.667-5.756-13.083-15.671-14.866-5.024-.904-9.576-1.547-15.469-1.747-9.164-.31-24.73-.804-32.105-.938v9.407c3.489.066 8.835.212 14.463.38-.634 7.911-.667 14.33-.692 20.061-.031 6.675-.056 12.441-.957 19.232l-.356 2.681h40.017zm-29.677-4.511c.427-5.228.45-10.061.473-15.104.026-5.938.061-12.079.7-19.81 2.886.093 5.602.183 7.909.261 2.894.098 5.397.311 7.84.62l1.01 9.222.76 6.508a338 338 0 0 1 1.364 18.304zM165.27 294.354c.271-4.738.45-7.868.784-11.145l.456-6.853c.202-3.784.454-8.327.982-13.52 6.16.191 13.412.22 21.646.093v-9.405c-10.158.16-18.746.076-25.61-.252l-4.346-.208-.545 4.316c-.931 7.37-1.258 13.528-1.521 18.478l-.42 6.396c-.355 3.484-.54 6.698-.817 11.562l-.23 3.876c-4.905.053-13.374.145-19.598.211.307-1.569.541-3.005.625-4.18.364-5.072.458-15.266.458-49.58 0-5.523-.271-10.02-3.686-13.435-2.981-2.981-7.722-4.043-11.165-4.043-7.877 0-14.787 6.396-14.787 13.688 0 4.023.936 6.101 3.196 11.119l1.775 3.946c.86 1.902 1.502 3.343 1.925 4.438-2.188-.56-4.705-2.445-10.155-7.895-4.623-4.623-9.356-15.617-10.912-19.23-2.492-5.788-3.379-15.287-3.379-22.246 0-6.007 1.427-13.74 4.017-21.769 2.967-9.201 6.713-16.133 10.546-19.519 9.181-8.11 16.671-10.313 26.253-12.54q2.853-.661 5.577-1.204c-1.358 5.496-3.854 15.658-5.12 21.401-1.183 5.366-2.022 11.027-2.022 15.138 0 5.491 1.681 11.417 3.521 13.936 2.817 3.854 7.031 5.868 9.778 5.868 1.994 0 3.37-.557 5.127-2.041 2.979-2.516 5.55-12.688 5.55-19.555 0-6.735-1.229-14.338-10.912-35.831 8.526-1.423 15.617-2.011 20.237-2.249v59.393c0 10.639 9.024 13.008 14.757 13.008h11.883v-82.484c-8.198-.104-12.895.093-19.533.372l-5.679.23c-6.443.248-19.597 1.207-35.293 4.855-10.584 2.459-19.54 5.1-30.352 14.651-6.511 5.752-10.811 16.053-13.271 23.681-2.04 6.323-4.471 15.733-4.471 24.657 0 3.832.299 17.03 4.146 25.966 4.777 11.095 8.876 18.138 12.9 22.161 6.568 6.568 11.406 10.873 18.524 10.873 4.923 0 8.231-3.094 8.231-7.702 0-2.934-1.103-5.374-3.3-10.238l-1.771-3.938c-2.133-4.733-2.367-5.317-2.367-7.255 0-1.684 2.311-4.281 5.38-4.281 1.929 0 3.891.666 4.513 1.287.687.688.931 2.463.931 6.784 0 33.644-.094 44.157-.435 48.905-.143 1.985-1.112 6.089-1.691 8.541l-.818 3.466h39.854z"></path><path fill="#CD071E" d="M203.713 152.972v67.91h9.37c2.719 0 8.748-2.07 8.748-11.808v-56.102zM172.842 192.259c-3.887 2.907-4.823 4.003-4.823 7.719v11.391c0 6.523 3.542 9.512 10.291 9.512h10.83v-39.629c-4.711 2.83-11.054 7.085-16.298 11.007"></path><path fill="#FFF" d="M105.792 211.234c-2.519.438-5.188 5.673-12.582 9.778-6.032 3.349-11.465 4.821-17.961 4.821-4.973 0-9.31-.811-11.348-1.217.298 1.485 1.221 2.447 2.969 3.599 3.98 2.624 11.44 4.879 18.689 4.879 8.038 0 14.021-3.004 18.616-6.291 4.928-3.525 8.142-7.514 8.142-10.319 0-1.628-3.463-5.781-6.525-5.25"></path><path fill="#FFD300" d="M116.6 187.808c-.804-1.957-4.08-2.465-7.31-1.13-3.23 1.33-5.191 3.999-4.387 5.958.808 1.957 4.081 2.464 7.312 1.132 3.227-1.332 5.194-3.998 4.385-5.96M96.24 78.446H82.167v36.217h13.66c10.864 0 20.489-5.898 20.489-19.143-.001-8.744-5.588-17.074-20.076-17.074m-.361 29.44h-2.794V85.225h3.155c4.76 0 8.848 3.777 8.848 10.348 0 7.295-2.949 12.313-9.209 12.313M209.416 49.36v-6.778h-21.988v36.217h10.916V65.14h10.865v-6.778h-10.865V49.36zM310.82 106.903c-1.656.414-3.829.828-6.157.828-5.691 0-11.02-3.415-11.02-11.125 0-7.864 5.277-11.227 10.503-11.227 1.036 0 4.242.155 6 .672l2.692-6.415c-2.588-1.139-6.881-1.811-9.263-1.811-12.312 0-21.315 7.398-21.315 18.367 0 11.848 9.883 19.092 21.938 19.092 3.309 0 6.725-.827 8.743-1.604zM249.713 204.447c-.326-9.738-2.407-29.058-4.185-32.56-.506-.996-1.052-1.541-1.621-1.541-.572 0-2.706 1.921-3.209 2.917-1.769 3.488-1.863 11.563-1.507 21.918q.046 1.371.076 2.741c.2 9.442 1.396 17.283 3.015 20.475.508.995 1.052 1.537 1.625 1.537.569 0 2.703-.462 3.208-1.458 1.622-3.193 2.427-2.518 2.625-11.961.012-.512.003-1.209-.027-2.068M265.493 195.722c-2.579-11.399-6.363-21.03-9.505-24.621-.82-.938-1.305-1.77-2.01-1.843-1.401-.15-2.34 1.819-2.643 2.894-1.295 4.593 2.248 20.337 4.823 31.737 2.572 11.401 4.609 18.987 7.751 22.581.738.841 2.042 2.079 3.243 1.342.604-.368.491-8.193.829-9.392-.157-6.945.085-11.293-2.488-22.698"></path><path fill="#FFF" d="m90.535 322.877-7.385-1.466-4.308 21.706 7.596 1.507c2.821.56 4.694-.072 6.343-1.461 2.354-1.959 3.416-4.791 4.084-8.155.877-4.421.419-7.621-1.613-9.803-1.439-1.55-3.276-2.044-4.717-2.328m.453 10.771c-1.193 6.01-2.548 6.549-4.049 6.251l-1.802-.356 2.478-12.489 1.651.328c1.622.323 2.723 1.22 1.722 6.266M110.375 341.083c-.331 2.133-1.051 3.179-2.986 2.878-1.906-.297-2.301-1.739-1.99-3.746l2.216-14.276-5.444-.845-2.308 14.871c-.453 2.919-.294 3.488.308 4.804.992 1.985 3.146 3.282 6.472 3.799 4.173.648 6.795-.679 7.955-2.363.59-.809.782-1.646 1.075-3.527l2.347-15.124-5.413-.841zM133.71 337.922c-.583 1.693-.942 2.74-1.306 4.394l-.031-.005c.009-1.786-.079-2.978-.25-4.242l-1.126-8.936-6.664-.721-4.449 21.778 5.478.591 1.375-8.728c.242-1.38.371-2.579.583-4.536l.03.002c-.06 1.975.051 3.231.222 4.495l1.29 9.145 4.625.501 3.576-8.875c.461-1.133.733-2.221 1.177-4.056l.031.002a60 60 0 0 0-.326 4.437l-.442 8.925 5.295.571.432-22.21-6.452-.699zM160.749 342.023c2.403-.638 3.335-2.675 3.466-4.671.267-4.056-2.149-5.583-5.233-5.785l-9.437-.618-1.449 22.08 8.643.567c4.856.319 7.33-2.319 7.594-6.344.173-2.658-1.545-4.521-3.584-5.229m-2.697 4.628c-.089 1.362-.729 2.245-2.104 2.152l-2.077-.136.287-4.373 2.015.133c1.681.112 1.953 1.115 1.879 2.224m.478-8.685c-.075 1.139-.595 2.06-1.909 1.975l-2.168-.143.251-3.835 2.107.14c1.284.083 1.795.721 1.719 1.863M172.641 332.24l-7.567 21.896 5.75.186 1.3-4.214 5.047.163.965 4.289 5.934.19-5.74-22.326zm.817 13.528.973-3.59c.416-1.481.608-2.68.695-3.504.004.827.115 2.133.297 3.124l.788 4.058zM198.197 345.136c2.51-.446 4.438-2.385 4.438-6.194-.003-3.682-2.023-6.315-8.297-6.313l-7.346.002.008 22.128 5.479-.002-.005-8.762c1.194 0 1.684.285 2.512 2.57l2.236 6.191 6.334-.004c-.705-1.649-2.512-5.744-3.215-7.237-.521-1.141-1.409-2.159-2.144-2.379m-4.163-3.332h-1.561l-.002-4.508h1.531c1.714 0 2.539.507 2.542 2.094-.001 1.493-.643 2.414-2.51 2.414M204.524 337.286l4.956-.156.549 17.42 5.537-.175-.548-17.419 4.954-.157.496-4.717-16.091.507zM231.092 331.051c-5.621.363-9.506 4.751-8.999 12.608.43 6.622 4.125 10.646 10.293 10.246 7.604-.491 9.146-6.541 8.734-12.877-.311-4.849-2.789-10.446-10.028-9.977m1.098 18.382c-2.26.144-3.663-1.165-4.028-6.803-.273-4.214.59-6.975 3.063-7.135 2.353-.152 3.478 1.111 3.834 6.625.366 5.671-.55 7.161-2.869 7.313M254.481 329.416l.705 6.821c.149 1.451.404 3.628.691 4.908-.671-1.431-1.47-2.912-2.2-4.02l-4.644-7.147-5.236.54 2.271 22.012 5.177-.533-.641-6.189c-.28-2.717-.67-4.72-.882-5.561a35 35 0 0 0 2.072 3.969l4.534 7.255 5.602-.579-2.271-22.011zM283.01 334.029l-4.749.724-.561-3.672 5.841-.89-.311-4.673-11.619 1.768 3.331 21.876 5.417-.822-1.391-9.134 4.72-.719zM290.708 340.648c-1.688.296-2.821 1.979-2.517 3.699.314 1.782 1.955 2.977 3.642 2.679 1.688-.299 2.851-1.987 2.536-3.769-.303-1.72-1.972-2.907-3.661-2.609M306.334 339.289c-1.108.228-2.087-.124-2.948-.824-1.087-.88-1.585-2.559-2.315-6.137-.521-2.552-.42-3.739.377-5.035.417-.703 1.238-1.127 2.166-1.318 1.14-.232 2.271-.044 3.356.515l1.438-4.573c-1.155-.767-3.532-.93-5.662-.496-3.659.749-6.375 2.892-7.451 6.642-.62 2.168-.62 4.309-.066 7.014.629 3.081 1.956 5.758 3.993 7.317 2.364 1.787 4.87 2.118 7.447 1.589 3.059-.625 4.997-1.994 6.056-3.537l-3.084-3.323c-.947 1.328-1.957 1.89-3.307 2.166M320.104 337.816c-.4-1.701-2.131-2.794-3.801-2.404-1.669.39-2.708 2.133-2.308 3.833.411 1.762 2.115 2.864 3.783 2.474 1.669-.391 2.737-2.141 2.326-3.903M175.965 132.371h8.682v9.641c1.594-.001 3.32.011 5.228.039v-14.024h13.103v14.242c1.521.015 3.215.024 5.228.032v-9.929h8.682v9.944l5.266.003v-27.956h5.951V93.779h-15.276v12.863h-9.811V93.779h-13.183v12.863h-9.81V93.779h-15.276v20.583h5.951v28.004c1.846-.077 3.561-.146 5.266-.202z" data-source="https://football-logos.cc"></path><path fill="#FFD300" d="m79.787 312.372-4.174-6.139h39.056l4.175 6.139z"></path><path fill="#003883" d="m120.267 312.372-4.176-6.139h39.055l4.174 6.139z"></path><path fill="#FFD300" d="m160.743 312.372-4.176-6.139h39.055l4.177 6.139z"></path><path fill="#003883" d="m201.221 312.372-4.176-6.139h39.056l4.175 6.139z"></path><path fill="#FFD300" d="m241.698 312.372-4.175-6.139h39.056l4.175 6.139z"></path><path fill="#003883" d="m282.176 312.372-4.175-6.139h39.055l4.175 6.139z" data-source="https://football-logos.cc"></path><!-- source: https://football-logos.cc --></svg>