<svg xmlns="http://www.w3.org/2000/svg" viewBox="47.94 137.48 499.39 566.93"><!-- Source: https://football-logos.cc --><path d="M295.11 703.74c-60.79-16.84-121.444-64.715-162.735-111.24-43.864-49.424-84.431-117.793-84.431-185.777V137.48h499.388v268.81c0 124.64-132.948 262.603-247.405 297.39l-2.4.73z" style="fill:#008535;fill-rule:evenodd" data-source="https://football-logos.cc"></path><path d="M56.582 146.119h482.111v256.306c-55.44-42.746-119.447-70.654-187.901-80.004l-10.759-81.952 1.032.16.605-3.911 9.672-12.696V174.73l-27.836-4.337-.045 15.691-12.128-.909V169.96h-26.882v15.214l-12.308.909v-15.646l-27.657 3.77.477 50.113 10.49 13.783-10.584 84.332c-69.103 9.046-130.954 35.682-188.287 80.01zm286.679 175.35a378 378 0 0 0-44.321-2.525c-15.886.026-31.395.887-46.556 2.58l10.286-81.953c23.758-3.498 46.139-3.395 69.812-.21zm-55.86-66.155h20.981v34.809h-20.98zm-35.134-35.087c16.798-3.464 34.946-4.38 51.944-3.954 13.238.333 26.687 1.516 39.789 3.766v-39.023l-13.176-2.052-.043 15.03-26.79-2.007v-14.684h-12.198v14.692l-26.993 1.992v-15.139l-12.91 1.76zm90.383 3.088c-12.696-2.138-25.712-3.266-38.526-3.588-16.53-.414-34.195.453-50.565 3.762l8.339 10.957c24.596-3.624 47.781-3.469 72.331-.078zm195.962 187.817c-.695 24.182-6.549 48.931-16.37 73.295V431.2c0-12.407-10.178-21.27-22.556-21.27s-22.557 8.935-22.557 21.27v57.714h-13.994v-62.95c0-13.986-11.475-23.978-25.429-23.978s-25.429 10.063-25.429 23.979v62.949h-14.056v-68.158c0-15.513-12.728-26.596-28.206-26.596s-28.205 11.158-28.205 26.596v68.158h-13.788V415.65c0-16.654-13.663-28.551-30.279-28.551-16.615 0-30.279 11.978-30.279 28.551v73.262h-13.873v-68.158c0-15.438-12.727-26.596-28.205-26.596s-28.206 11.083-28.206 26.596v68.158h-14.056v-62.95c0-13.915-11.475-23.978-25.43-23.978-13.953 0-25.428 9.992-25.428 23.979v62.949h-13.994v-57.714c0-12.335-10.178-21.27-22.557-21.27S73.16 418.794 73.16 431.2v53.014c-9.906-24.369-15.844-49.058-16.5-73.054 71.793-56.814 150.574-85.151 242.292-85.305 88.155-.147 170.804 30.823 239.661 85.278m-22.848 88.098a305 305 0 0 1-5.09 10.298c-5.167 1.584-9.673 4.55-14.18 8.121-4.409 3.492-10.243 9.07-15.806 10.29q-1.257.278-2.543.28c-4.836 0-8.827-1.378-12.834-4.02-4.623-3.047-8.54-7.126-13.112-10.31-5.918-4.122-11.882-6.094-19.138-6.032-8.794.075-15.952 2.404-23.032 7.564-2.599 1.894-4.983 4.01-7.442 6.072-2.129 1.786-4.358 3.561-6.832 4.846-2.594 1.348-5.228 2.021-8.157 2.021-1.806 0-3.552-.312-5.26-.897-5.825-1.998-11.358-7.325-16.25-11.036-6.816-5.17-13.513-8.57-22.285-8.57-8.26 0-15.159 2.018-21.948 6.702-4.783 3.3-8.975 7.732-13.896 10.683-3.424 2.053-6.855 3.073-10.864 3.073-1.373 0-2.716-.203-4.032-.589-5.804-1.697-11.637-7.293-16.439-10.932-7.181-5.443-14.206-8.938-23.435-8.938-8.678 0-15.527 2.572-22.44 7.672-4.766 3.516-9.537 8.478-14.83 11.023-2.482 1.194-5.013 1.81-7.772 1.81-2.246 0-4.349-.46-6.407-1.35-5.344-2.31-10.387-7.552-15.097-11.074-7.183-5.371-14.291-8.08-23.358-8.08-8.684 0-15.468 2.726-22.366 7.808-4.81 3.545-9.76 8.551-15.182 10.978-2.321 1.04-4.692 1.583-7.24 1.583-11.499 0-21.188-15.683-33.53-18.607a310 310 0 0 1-5.33-10.71v-67.71c0-8.972 7.47-14.79 16.078-14.79 8.573 0 16.078 5.856 16.078 14.79v64.192h26.952v-69.427c0-10.574 8.788-17.5 18.95-17.5 10.126 0 18.95 6.965 18.95 17.5v69.427h27.014v-74.636c0-12.121 10.063-20.118 21.727-20.118 11.627 0 21.726 8.038 21.726 20.118v74.636h26.831v-79.74c0-13.232 11.055-22.072 23.8-22.072 12.786 0 23.8 8.795 23.8 22.072v79.74h26.746v-74.636c0-12.08 10.1-20.118 21.726-20.118 11.665 0 21.727 7.997 21.727 20.118v74.636h27.014v-69.427c0-10.535 8.824-17.5 18.95-17.5 10.162 0 18.95 6.926 18.95 17.5v69.427h26.952V431.2c0-8.934 7.505-14.79 16.078-14.79 8.608 0 16.078 5.818 16.078 14.79zm-7.557 14.968c-9.946 18.457-21.962 36.45-35.5 53.539-2.584-.65-4.987-1.781-7.396-3.37-4.623-3.047-8.54-7.126-13.112-10.31-5.918-4.122-11.882-6.094-19.138-6.032-8.794.075-15.952 2.404-23.032 7.564-2.599 1.894-4.983 4.01-7.442 6.072-2.129 1.786-4.358 3.561-6.832 4.847-2.594 1.347-5.228 2.02-8.157 2.02-1.806 0-3.552-.311-5.26-.897-5.825-1.998-11.358-7.325-16.25-11.035-6.816-5.172-13.513-8.571-22.285-8.571-8.26 0-15.159 2.018-21.948 6.702-4.783 3.3-8.975 7.732-13.896 10.683-3.424 2.053-6.855 3.074-10.864 3.074-1.373 0-2.716-.204-4.032-.59-5.804-1.697-11.637-7.292-16.439-10.932-7.181-5.443-14.206-8.937-23.435-8.937-8.678 0-15.527 2.572-22.44 7.67-4.766 3.517-9.537 8.479-14.83 11.025-2.482 1.193-5.013 1.808-7.772 1.808-2.246 0-4.349-.46-6.407-1.35-5.344-2.31-10.387-7.551-15.097-11.073-7.183-5.371-14.291-8.08-23.358-8.08-8.684 0-15.468 2.726-22.366 7.809-4.81 3.544-9.76 8.55-15.182 10.978-.908.406-1.824.737-2.756.989-13.545-17.159-25.631-35.232-35.658-53.75 10.07 4.444 19.314 17.63 31.175 17.63 3.034 0 5.885-.646 8.65-1.884 5.846-2.616 10.69-7.57 15.821-11.35 6.3-4.642 12.377-7.135 20.316-7.135 8.317 0 14.705 2.47 21.29 7.392 5.072 3.794 9.96 8.956 15.793 11.478 2.492 1.077 5.061 1.634 7.779 1.634 3.278 0 6.32-.732 9.27-2.15 5.671-2.728 10.334-7.632 15.384-11.358 6.316-4.66 12.452-6.996 20.388-6.996 8.443 0 14.788 3.263 21.348 8.236 5.33 4.039 11.05 9.592 17.556 11.495 1.63.477 3.301.728 5.002.728 4.635 0 8.68-1.19 12.64-3.566 5.058-3.033 9.217-7.444 14.083-10.802 6.211-4.285 12.427-6.091 19.985-6.091 19.846 0 27.41 20.504 43.795 20.504 3.484 0 6.664-.807 9.75-2.41 5.383-2.797 9.805-7.613 14.716-11.192 6.497-4.735 12.954-6.834 21.027-6.902 6.537-.056 11.803 1.7 17.133 5.413 4.595 3.2 8.507 7.276 13.185 10.36 4.573 3.014 9.22 4.59 14.736 4.59 11.09 0 18.562-12.146 30.062-17.477m-37.838 56.462a422 422 0 0 1-20.126 23.147c-5.29-3.25-10.724-4.805-17.182-4.75-8.794.075-15.952 2.404-23.032 7.564-2.599 1.894-4.983 4.01-7.442 6.072-2.129 1.786-4.358 3.561-6.832 4.847-2.594 1.347-5.228 2.02-8.157 2.02-1.806 0-3.552-.311-5.26-.897-5.825-1.998-11.358-7.325-16.25-11.036-6.816-5.17-13.513-8.57-22.285-8.57-8.26 0-15.159 2.018-21.948 6.702-4.783 3.3-8.975 7.732-13.896 10.683-3.424 2.053-6.855 3.073-10.864 3.073-1.373 0-2.716-.203-4.032-.589-5.804-1.697-11.637-7.293-16.439-10.932-7.181-5.443-14.206-8.937-23.435-8.937-8.678 0-15.527 2.572-22.44 7.67-4.766 3.517-9.537 8.479-14.83 11.025-2.482 1.193-5.013 1.808-7.772 1.808-2.246 0-4.349-.46-6.407-1.35-5.344-2.31-10.387-7.551-15.097-11.073-7.183-5.371-14.291-8.08-23.358-8.08-6.822 0-12.472 1.682-17.925 4.868a435 435 0 0 1-20.068-23.223 23 23 0 0 0 1.857-.737c5.845-2.616 10.69-7.57 15.82-11.35 6.3-4.642 12.377-7.135 20.316-7.135 8.317 0 14.705 2.47 21.29 7.393 5.072 3.793 9.96 8.955 15.793 11.477 2.492 1.078 5.061 1.634 7.779 1.634 3.278 0 6.32-.732 9.27-2.15 5.671-2.728 10.334-7.632 15.384-11.357 6.316-4.66 12.452-6.997 20.388-6.997 8.443 0 14.788 3.263 21.348 8.236 5.33 4.039 11.05 9.593 17.556 11.495 1.63.477 3.301.728 5.002.728 4.635 0 8.68-1.19 12.64-3.566 5.058-3.032 9.217-7.444 14.083-10.801 6.211-4.286 12.427-6.092 19.985-6.092 19.846 0 27.41 20.504 43.795 20.504 3.484 0 6.664-.807 9.75-2.41 5.383-2.797 9.805-7.613 14.716-11.192 6.497-4.735 12.954-6.833 21.027-6.902 6.537-.056 11.803 1.7 17.133 5.413 4.595 3.2 8.507 7.276 13.185 10.36 2.27 1.495 4.557 2.637 6.96 3.407m-22.557 25.718c-44.428 46.746-99.234 83.487-150.397 99.037-48.978-13.568-104.345-50.84-149.631-98.896 4.708-2.624 9.589-4.007 15.501-4.007 8.317 0 14.705 2.47 21.29 7.393 5.072 3.793 9.96 8.955 15.793 11.477 2.492 1.078 5.061 1.634 7.779 1.634 3.278 0 6.32-.732 9.27-2.15 5.671-2.728 10.334-7.632 15.384-11.357 6.316-4.66 12.452-6.997 20.388-6.997 8.443 0 14.788 3.263 21.348 8.236 5.33 4.039 11.05 9.593 17.556 11.495 1.63.477 3.301.728 5.002.728 4.635 0 8.68-1.19 12.64-3.566 5.058-3.032 9.217-7.444 14.083-10.801 6.211-4.286 12.427-6.092 19.985-6.092 19.846 0 27.41 20.504 43.795 20.504 3.484 0 6.664-.807 9.75-2.41 5.383-2.797 9.805-7.613 14.716-11.192 6.497-4.735 12.954-6.833 21.027-6.902 5.551-.048 10.185 1.212 14.72 3.866" style="fill:#fff;fill-rule:evenodd"></path><path d="M229.03 542.323c4.995-.638 11.405-1.154 16.747-1.177v-5.93c15.321 8.594 24.227 4.658 34.144 3.953 4.156-.295 8.854.336 12.982 2.364h9.516c3.703-2.008 7.786-2.662 11.64-2.499 10.568.45 20.822 5.285 36.112-3.818v5.914c5.401-.016 11.653.589 16.612 1.193v103.874c-22.186 1.907-42.892-4.788-60.663-2.238-3.665 5.228-12.2 5.307-16.363.011-21.334-2.996-34.865 4.266-60.727 2.227zM81.457 188.081c4.995-.638 11.404-1.154 16.747-1.178v-5.93c15.32 8.595 24.226 4.659 34.143 3.954 4.156-.296 8.854.336 12.982 2.363h9.516c3.703-2.007 7.786-2.662 11.64-2.498 10.568.449 20.822 5.285 36.112-3.819v5.914c5.401-.015 11.653.59 16.612 1.194v103.874c-22.186 1.907-42.891-4.788-60.663-2.238-3.665 5.228-12.2 5.306-16.363.011-21.334-2.997-34.865 4.266-60.726 2.227zM376.455 188.081c4.995-.638 11.404-1.154 16.747-1.178v-5.93c15.32 8.595 24.226 4.659 34.143 3.954 4.156-.296 8.854.336 12.982 2.363h9.516c3.703-2.007 7.786-2.662 11.64-2.498 10.568.449 20.822 5.285 36.113-3.819v5.914c5.4-.015 11.652.59 16.612 1.194v103.874c-22.187 1.907-42.892-4.788-60.663-2.238-3.666 5.228-12.201 5.306-16.364.011-21.334-2.997-34.865 4.266-60.726 2.227z" style="fill:#008535;fill-rule:evenodd" data-source="https://football-logos.cc"></path><path d="M160.314 283.416c7.67-.756 15.518-.108 23.137.689 9.921 1.037 19.759 2.35 29.712 2.121v-92.742c-3.429-.344-7.155-.615-10.566-.588v73.908c-4.183 3.55-13.664 6.23-20.053 6.186-6.638-.045-12.88-2.81-19.18-2.934-3.371-.066-6.877.664-10.133 2.859 4.418 2.396 6.949 6.314 7.083 10.5m31.057-38.91c-4.991 3.35-8.672 3.212-14.372 2.311-6.594-1.043-13.305-3.212-19.19 1.307l-1.028.79 1.578 2.055 1.027-.789c5.012-3.847 11.594-1.69 17.209-.803 6.378 1.008 10.633 1.03 16.22-2.72l1.076-.722-1.444-2.152zm0-20.3c-4.991 3.349-8.672 3.212-14.372 2.311-6.594-1.043-13.305-3.212-19.19 1.307l-1.028.79 1.578 2.055 1.027-.789c5.012-3.848 11.594-1.69 17.209-.803 6.378 1.008 10.633 1.03 16.22-2.72l1.076-.722-1.444-2.152zm0-19.869c-4.991 3.35-8.672 3.213-14.372 2.312-6.594-1.043-13.305-3.212-19.19 1.307l-1.028.79 1.578 2.055 1.027-.79c5.012-3.847 11.594-1.69 17.209-.802 6.378 1.008 10.633 1.03 16.22-2.72l1.076-.722-1.444-2.152zM109.2 244.505c4.991 3.35 8.672 3.213 14.372 2.312 6.594-1.043 13.305-3.212 19.191 1.307l1.028.79-1.578 2.055-1.028-.789c-5.011-3.847-11.593-1.69-17.209-.803-6.378 1.008-10.632 1.03-16.22-2.72l-1.076-.722 1.444-2.152zm0-20.3c4.991 3.35 8.672 3.213 14.372 2.312 6.594-1.043 13.305-3.212 19.191 1.307l1.028.79-1.578 2.055-1.028-.789c-5.011-3.848-11.593-1.69-17.209-.803-6.378 1.008-10.632 1.03-16.22-2.72l-1.076-.722 1.444-2.152zm0-19.868c4.991 3.35 8.672 3.213 14.372 2.312 6.594-1.043 13.305-3.212 19.191 1.307l1.028.79-1.578 2.055-1.028-.79c-5.011-3.847-11.593-1.69-17.209-.802-6.378 1.008-10.632 1.03-16.22-2.72l-1.076-.722 1.444-2.152zm41.082 71.373c-3.278 1.465-5.51 4.202-5.548 7.067-.033 2.528 2.072 5.204 5.486 5.258 2.238.035 5.465-1.035 5.848-4.91.294-2.98-2.605-6.279-5.787-7.415m-48.622-89.165v78.37c5.217 3.148 11.141 4.764 17.282 4.526 5.006-.194 9.745-1.969 14.696-2.538 5.359-.617 10.583-.181 15.033 2.325v-75.23l-.808-.783c-3.957-3.833-9.899-5.223-15.27-4.842a58 58 0 0 0-3.098.316c-4.83.606-9.27 1.406-14.193 1.153-4.83-.249-9.326-1.439-13.642-3.297m50.566 82.918c3.333-1.992 7.11-2.941 11.208-2.861 6.556.128 12.742 2.889 19.134 2.932 4.51.03 12.301-1.731 16.575-4.472v-78.415c-5.166 2.27-10.518 3.402-16.448 3.272-5.56-.122-10.882-1.442-16.355-1.675-5.106-.217-9.962 1.227-13.617 4.92l-.497.502zm-54.021-76.551c-2.447.017-4.928.168-7.04.309q-1.83.12-3.66.285v92.717c4.91.137 9.784-.053 14.73-.514 5.923-.553 11.797-1.465 17.71-2.088 7.165-.755 13.73-.898 20.395-.2.327-3.896 2.832-8.15 7.386-10.725-3.858-2.493-8.587-2.948-13.694-2.36-4.705.54-9.522 2.346-14.956 2.558-6.983.27-14.23-1.582-20.871-6.09zM455.312 283.416c7.67-.756 15.518-.108 23.137.689 9.922 1.037 19.759 2.35 29.712 2.121v-92.742c-3.428-.344-7.154-.615-10.565-.588v73.908c-4.184 3.55-13.665 6.23-20.054 6.186-6.637-.045-12.88-2.81-19.179-2.934-3.372-.066-6.878.664-10.134 2.859 4.418 2.396 6.949 6.314 7.083 10.5m31.058-38.91c-4.992 3.35-8.672 3.212-14.372 2.311-6.595-1.043-13.305-3.212-19.191 1.307l-1.028.79 1.578 2.055 1.028-.789c5.01-3.847 11.593-1.69 17.208-.803 6.378 1.008 10.633 1.03 16.22-2.72l1.077-.722-1.445-2.152zm0-20.3c-4.992 3.349-8.672 3.212-14.372 2.311-6.595-1.043-13.305-3.212-19.191 1.307l-1.028.79 1.578 2.055 1.028-.789c5.01-3.848 11.593-1.69 17.208-.803 6.378 1.008 10.633 1.03 16.22-2.72l1.077-.722-1.445-2.152zm0-19.869c-4.992 3.35-8.672 3.213-14.372 2.312-6.595-1.043-13.305-3.212-19.191 1.307l-1.028.79 1.578 2.055 1.028-.79c5.01-3.847 11.593-1.69 17.208-.802 6.378 1.008 10.633 1.03 16.22-2.72l1.077-.722-1.445-2.152zm-82.172 40.168c4.99 3.35 8.672 3.213 14.372 2.312 6.594-1.043 13.304-3.212 19.19 1.307l1.028.79-1.578 2.055-1.028-.789c-5.01-3.847-11.593-1.69-17.208-.803-6.378 1.008-10.633 1.03-16.22-2.72l-1.077-.722 1.445-2.152zm0-20.3c4.99 3.35 8.672 3.213 14.372 2.312 6.594-1.043 13.304-3.212 19.19 1.307l1.028.79-1.578 2.055-1.028-.789c-5.01-3.848-11.593-1.69-17.208-.803-6.378 1.008-10.633 1.03-16.22-2.72l-1.077-.722 1.445-2.152zm0-19.868c4.99 3.35 8.672 3.213 14.372 2.312 6.594-1.043 13.304-3.212 19.19 1.307l1.028.79-1.578 2.055-1.028-.79c-5.01-3.847-11.593-1.69-17.208-.802-6.378 1.008-10.633 1.03-16.22-2.72l-1.077-.722 1.445-2.152zm41.08 71.373c-3.277 1.465-5.51 4.202-5.547 7.067-.033 2.528 2.072 5.204 5.486 5.258 2.238.035 5.466-1.035 5.848-4.91.294-2.98-2.605-6.279-5.786-7.415m-48.62-89.165v78.37c5.216 3.148 11.14 4.764 17.281 4.526 5.006-.194 9.746-1.969 14.696-2.538 5.36-.617 10.583-.181 15.033 2.325v-75.23l-.808-.783c-3.957-3.833-9.899-5.223-15.27-4.842a58 58 0 0 0-3.097.316c-4.831.606-9.27 1.406-14.193 1.153-4.83-.249-9.327-1.439-13.643-3.297m50.566 82.918c3.332-1.992 7.11-2.941 11.207-2.861 6.557.128 12.742 2.889 19.135 2.932 4.509.03 12.3-1.731 16.575-4.472v-78.415c-5.167 2.27-10.519 3.402-16.448 3.272-5.562-.122-10.883-1.442-16.356-1.675-5.106-.217-9.962 1.227-13.617 4.92l-.496.502zm-54.022-76.551c-2.447.017-4.928.168-7.04.309q-1.83.12-3.66.285v92.717c4.91.137 9.784-.053 14.73-.514 5.923-.553 11.797-1.465 17.71-2.088 7.165-.755 13.73-.898 20.395-.2.327-3.896 2.832-8.15 7.386-10.725-3.857-2.493-8.587-2.948-13.693-2.36-4.706.54-9.523 2.346-14.957 2.558-6.983.27-14.23-1.582-20.871-6.09zM307.888 637.658c7.67-.756 15.518-.108 23.137.69 9.921 1.037 19.758 2.349 29.712 2.12v-92.742c-3.429-.344-7.155-.615-10.566-.587v73.907c-4.183 3.55-13.664 6.23-20.053 6.186-6.638-.045-12.88-2.81-19.18-2.933-3.371-.066-6.877.663-10.133 2.858 4.417 2.397 6.948 6.315 7.083 10.5m31.057-38.91c-4.991 3.35-8.672 3.213-14.372 2.312-6.594-1.043-13.305-3.213-19.19 1.307l-1.028.789 1.577 2.055 1.028-.789c5.012-3.847 11.594-1.69 17.209-.803 6.378 1.009 10.633 1.03 16.22-2.72l1.076-.722-1.444-2.152zm0-20.3c-4.991 3.35-8.672 3.213-14.372 2.312-6.594-1.043-13.305-3.213-19.19 1.307l-1.028.789 1.577 2.055 1.028-.789c5.012-3.847 11.594-1.69 17.209-.803 6.378 1.009 10.633 1.03 16.22-2.72l1.076-.722-1.444-2.152zm0-19.869c-4.991 3.35-8.672 3.213-14.372 2.312-6.594-1.042-13.305-3.212-19.19 1.307l-1.028.79 1.577 2.055 1.028-.789c5.012-3.847 11.594-1.69 17.209-.803 6.378 1.008 10.633 1.03 16.22-2.72l1.076-.722-1.444-2.152zm-82.172 40.169c4.991 3.35 8.672 3.212 14.372 2.311 6.594-1.042 13.305-3.212 19.191 1.307l1.028.79-1.578 2.055-1.028-.789c-5.011-3.847-11.593-1.69-17.209-.803-6.378 1.009-10.632 1.03-16.22-2.72l-1.076-.722 1.444-2.152zm0-20.3c4.991 3.35 8.672 3.212 14.372 2.311 6.594-1.042 13.305-3.212 19.191 1.307l1.028.79-1.578 2.055-1.028-.789c-5.011-3.847-11.593-1.69-17.209-.803-6.378 1.008-10.632 1.03-16.22-2.72l-1.076-.722 1.444-2.152zm0-19.869c4.991 3.35 8.672 3.213 14.372 2.312 6.594-1.042 13.305-3.212 19.191 1.307l1.028.79-1.578 2.055-1.028-.789c-5.011-3.847-11.593-1.69-17.209-.803-6.378 1.008-10.632 1.03-16.22-2.72l-1.076-.722 1.444-2.152zm41.081 71.373c-3.277 1.465-5.51 4.203-5.547 7.067-.033 2.528 2.072 5.205 5.486 5.258 2.237.035 5.465-1.034 5.848-4.91.294-2.98-2.605-6.279-5.787-7.415m-48.621-89.165v78.37c5.217 3.148 11.141 4.765 17.281 4.526 5.006-.194 9.746-1.968 14.696-2.538 5.36-.616 10.584-.181 15.034 2.325v-75.23l-.808-.783c-3.957-3.833-9.899-5.223-15.27-4.841a58 58 0 0 0-3.098.315c-4.83.607-9.27 1.406-14.193 1.153-4.83-.249-9.327-1.439-13.642-3.297m50.566 82.918c3.333-1.991 7.11-2.941 11.208-2.86 6.556.128 12.741 2.888 19.134 2.932 4.51.03 12.301-1.732 16.575-4.473V540.89c-5.167 2.27-10.518 3.402-16.448 3.272-5.561-.123-10.883-1.443-16.356-1.675-5.106-.217-9.961 1.227-13.616 4.92l-.497.501zm-54.022-76.55c-2.446.016-4.927.168-7.039.308q-1.83.12-3.66.286v92.716c4.91.137 9.784-.053 14.73-.514 5.923-.552 11.797-1.465 17.71-2.088 7.165-.755 13.73-.898 20.395-.2.327-3.895 2.832-8.15 7.386-10.725-3.858-2.492-8.587-2.948-13.694-2.36-4.705.54-9.523 2.347-14.956 2.558-6.983.271-14.23-1.581-20.872-6.09z" style="fill:#fff;fill-rule:evenodd" data-source="https://football-logos.cc"></path><!-- source: https://football-logos.cc --></svg>