<svg xmlns="http://www.w3.org/2000/svg" xml:space="preserve" viewBox="0 0 728.94 828.37"><!-- Source: https://football-logos.cc --><defs data-source="https://football-logos.cc"><clipPath id="a" clipPathUnits="userSpaceOnUse"><path d="M0 841.89h595.28V0H0Z"></path></clipPath></defs><g clip-path="url(#a)" transform="matrix(1.33333 0 0 -1.33333 -31.551 976.329)" data-source="https://football-logos.cc"><path d="m0 0-4.805-23.122c-.964-4.64-3.123-8.992-6.452-12.365-3.484-3.528-8.813-6.751-16.692-6.862-6.453-.09-12.725 2.052-18.058 5.687-6.51 4.437-14.657 12.453-14.456 24.703-.008-.036 2.083 22.083 17.333 75.333 0 0 12.25 25.084 40.333 18.834 0 0 17.5-2.834 34.5-18.834 9.51-8.95 32.693-32.412 55.584-54.833 18.422-18.045 35.333-34.417 47.305-42.455 23.454-15.747 42.945-33.878 90.445-29.545 39.083 2.583 80.166 41 80.166 41l18.242 15.747a51 51 0 0 1 2.443 2.252l67.767 66.676a67 67 0 0 0 11.102 8.82c14.208 9.019 40.129 25.624 63.696-5.495 0 0 18.75-67 17.75-79.5 0 0-.265-17.096-19.23-25.525-5.729-2.546-12.086-3.515-18.239-2.315-6.343 1.237-13.785 4.831-16.864 14.507l-6 27.083s-44.75-48.917-71.333-71.917c-25.718-22.251-72.417-65.75-136.334-68.333-60.083-2.167-110.166 36-139.166 61S0 0 0 0" style="fill:#da2128;fill-opacity:1;fill-rule:nonzero;stroke:none" transform="translate(84.13 251.516)"></path><path d="M0 0s12.833 16.5 31.333 10.167S61.5-7.5 61.5-7.5l70-69.167s37.667-36.166 73.167-52c35.5-15.833 84.166 0 84.166 0S318-117.167 360.5-79c0 0 63.667 65.5 79.167 77.333 15.5 11.834 37.117 21.61 52.666 2.334 0 0-18.166 4.166-31.5-3.834 0 0 31.834 4.5 36.667-7.833 0 0-18 6.167-34.667-4.333 0 0 26.667 7.5 39.5-7.167 0 0-20.333 7.667-37.5-4.833 0 0 30.167 9 41.667-6.334 0 0-20.5 7.667-39.667-6.833 0 0 20.834 9.5 38.667-.5l2.333-8.167s-28.833 18-59.333-15S379.5-141.5 324.333-174c-55.166-32.5-101.333-23.833-136-9.833-34.666 14-77.5 53.833-77.5 53.833S74-97.667 53.333-72.833C32.667-48 13-37.5-13.333-48.833L-11.5-40.5S3-30.667 27.833-41c0 0-11.259 11.698-35.968 8.112-1.616-.234-2.478 1.875-1.156 2.834 5.713 4.144 17.821 9.341 38.458 2.387 0 0-11.677 11.527-34.746 5.78-1.179-.293-1.958 1.195-1.033 1.982 4.912 4.178 16.606 10.33 38.945 3.238 0 0-12.515 11.611-35.107 5.43-1.051-.287-1.775 1.042-.954 1.758C.745-5.576 11.617.509 33.667-3.5 33.667-3.5 24.5 4.167 0 0" style="fill:#fff;fill-opacity:1;fill-rule:nonzero;stroke:none" transform="translate(50.167 315.39)"></path><path d="M0 0s14.5 9.667 26.5 7.167c0 0-.167-8.834-2.333-15.167 0 0 11.666-4.667 13.666-11.333S35.333-35.667 28-37.667 7.667-41.167-2.167-20.5c0 0 0 14.667 2.167 20.5" style="fill:#fff;fill-opacity:1;fill-rule:nonzero;stroke:none" transform="translate(33.833 255.723)"></path><path d="m0 0-2-9s6-3.667 7.833-6.667L8.167-4.5S6.167-1.833 0 0" style="fill:#fff;fill-opacity:1;fill-rule:nonzero;stroke:none" transform="translate(69 261.057)"></path><path d="M0 0s-14.5 9.667-26.5 7.167c0 0 .167-8.834 2.333-15.167 0 0-11.666-4.667-13.666-11.333s2.5-16.334 9.833-18.334 20.333-3.5 30.167 17.167c0 0 0 14.667-2.167 20.5" style="fill:#fff;fill-opacity:1;fill-rule:nonzero;stroke:none" transform="translate(560.528 255.723)"></path><path d="m0 0 2-9s-6-3.667-7.833-6.667L-8.167-4.5S-6.167-1.833 0 0" style="fill:#fff;fill-opacity:1;fill-rule:nonzero;stroke:none" transform="translate(525.361 261.057)"></path><path d="m0 0-6.86 7.37L7.72 14.5Zm10.62 23.02L-25.79 6.75l5.59-5.9 7.41 3.62 9.6-10.44-3.79-7.13 5.61-5.92 17.99 35.71z" style="fill:#da2128;fill-opacity:1;fill-rule:nonzero;stroke:none" transform="translate(129.47 245.95)"></path><path d="m0 0-7.845-6.311-6.061 15.055zm-22.195 12.25L-8.59-25.237l6.288 5.151-3.077 7.651L5.725-3.612l6.838-4.293 6.309 5.169-34.322 20.515z" style="fill:#da2128;fill-opacity:1;fill-rule:nonzero;stroke:none" transform="translate(414.47 197.646)"></path><path d="m0 0-5.657 5.657 26.625 26.625 5.657-5.657z" style="fill:#da2128;fill-opacity:1;fill-rule:nonzero;stroke:none" transform="translate(137.677 217.713)"></path><path d="m0 0-7.342 2.478L4.699 38.154l7.342-2.478Z" style="fill:#da2128;fill-opacity:1;fill-rule:nonzero;stroke:none" transform="translate(254.137 136.273)"></path><path d="m0 0-6.292-4.522-21.975 30.576 6.292 4.522z" style="fill:#da2128;fill-opacity:1;fill-rule:nonzero;stroke:none" transform="translate(399.517 168.47)"></path><path d="M0 0a5.33 5.33 0 0 0-3.9-1.69c-1.31 0-2.62.48-3.65 1.45l-7.23 6.78 7.31 7.79 7.23-6.78C1.91 5.53 2.02 2.15 0 0m6.04 10.06-9.32 8.73-5.26 4.93-13.17-14.05-12.61-13.45 4.88-4.57.37-.35 10.46 11.15 4.87-4.57 1.59-1.49a5.206 5.206 0 0 0 .238-7.361l-5.548-5.918a1.783 1.783 0 0 1 .081-2.521l2.539-2.38 1.83-1.71 1.71-1.58-.031.869a6.2 6.2 0 0 0 1.753 4.542l4.138 4.249c2.54 2.7 1.953 6.667 1.296 8.511C-.769-8.659 2.46-8.34 5.23-5.38l1.26 1.35c3.77 4.01 3.56 10.32-.45 14.09" style="fill:#da2128;fill-opacity:1;fill-rule:nonzero;stroke:none" transform="translate(178.55 214.83)"></path><path d="M0 0a5.33 5.33 0 0 0-3.438-2.499 5.3 5.3 0 0 0-3.878.62l-8.534 5.041 5.437 9.196 8.534-5.042A5.34 5.34 0 0 0 0 0m3.703 11.134-10.998 6.49-6.208 3.665-9.792-16.582-9.377-15.874 5.759-3.397.437-.261 7.779 13.161 5.749-3.399 1.877-1.108a5.207 5.207 0 0 0 1.836-7.132l-4.126-6.985a1.783 1.783 0 0 1 .629-2.442l2.996-1.77 2.159-1.27 2.013-1.17-.219.842a6.2 6.2 0 0 0 .721 4.815l3.113 5.048c1.89 3.189.452 6.933-.59 8.589 3.675-.972 6.757.042 8.816 3.535l.935 1.592c2.806 4.735 1.226 10.848-3.509 13.653" style="fill:#da2128;fill-opacity:1;fill-rule:nonzero;stroke:none" transform="translate(240.954 169.463)"></path><path d="m0 0-4.34-5.77c-3.15-4.19-9.1-5.03-13.29-1.89l-5.7 4.29 14.94 19.86 6.77-5.09C1.98 8.7 2.7 3.6 0 0m2.56 16.01-13.03 9.8-22.58-30.03 10.97-8.25c7.93-5.96 16.9-6.26 25.17 3.57l2.53 3.37c5.37 9.05 3.73 16.44-3.06 21.54" style="fill:#da2128;fill-opacity:1;fill-rule:nonzero;stroke:none" transform="translate(207.93 187.45)"></path><path d="m0 0-.98-8.35 18.64-2.19-.59-6.21-18.78 2.21-1.18-9.99 20.61-2.43-.6-6.22-27.77 3.28 4.37 37.08L20.71 4l-.61-6.37Z" style="fill:#da2128;fill-opacity:1;fill-rule:nonzero;stroke:none" transform="translate(278.4 162.7)"></path><path d="M0 0c-6.51-2.06-12.45 2.71-14.31 10.12-2.2 8.79.86 13.96 6.43 16.04C-.97 28.74 3.76 23.79 6 16.48 8.62 7.9 5.67 1.79 0 0m12.76 18.53C9.49 29.17 1.92 36.19-9.74 31.94c-9.41-3.42-14.84-11.25-11.72-24.09C-18.84-2.97-9.24-9.64 1.73-6.19c9.55 3 14.86 12.22 11.03 24.72" style="fill:#da2128;fill-opacity:1;fill-rule:nonzero;stroke:none" transform="translate(327.41 138.78)"></path><path d="m0 0-6.59-3.805-27.143 15.518 13.688-23.286-6.4-3.695-18.925 32.78 7.422 4.285L-11.816 5.88-25.21 29.151l6.285 3.629z" style="fill:#da2128;fill-opacity:1;fill-rule:nonzero;stroke:none" transform="translate(384.983 157.677)"></path><path d="m0 0-5.503-5.256L-35.546 3.4l18.808-19.387-5.344-5.104-26.143 27.372 6.197 5.919 29.156-9.282-18.519 19.441 5.248 5.013z" style="fill:#da2128;fill-opacity:1;fill-rule:nonzero;stroke:none" transform="translate(461.034 221.5)"></path><path d="M0 0s-4.333 4.833-9.333-.833c-3.064-3.473-2.999-6.006-2.489-7.448.367-1.037 1.304-1.767 2.395-1.908 1.128-.145 2.819.034 4.927 1.439 4 2.667 9.333 5.833 9.333 5.833s7.082 4.307 12.584-1.666c5.833-6.334 2.166-12.584 2.166-12.584s-3-7.583-12.5-11.833c0 0-6.666-2.917-12.083 2.917L.333-20.92S5.917-25.75 11.5-18s-.75 9.167-.75 9.167S9-8.167 6.833-9.75s-10.916-6.833-10.916-6.833-6.5-4.337-12 2c-5.247 6.044-2 12.416-2 12.416s6.233 12.25 16.7 11.084c0 0 3.716-.5 6.383-3.5z" style="fill:#da2128;fill-opacity:1;fill-rule:nonzero;stroke:none" transform="translate(462.417 261.057)"></path><path d="m0 0-129.917-68.083L-259.833 0l-.334 37.833 130.25-68.916L0 37.833Z" style="fill:#da2128;fill-opacity:1;fill-rule:nonzero;stroke:none" transform="translate(427 326.223)"></path><path d="M0 0s.484 2.148 5.234.461c0 0 1.394 3.421-2.919 2.733 0 0 1.648 1.989 4.974-.116.438-.277.961-.373 1.478-.326l.031.003c.847.081 1.273 1.085.73 1.741-.494.595-.929 1.129-1.938 1.158 0 0 2.988 1.432 4.801-2.256l.259-.168A3.3 3.3 0 0 0 14.145.786l.07-.692a7.5 7.5 0 0 1 .797-2.678l.065-.126c.166-.32.384-.605.652-.846 1.886-1.697 9.456-8.379 12.454-11.531a1.73 1.73 0 0 1 2.325-.181c.776.603 1.749 1.386 2.485 2.068.586.542.243 1.511-.552 1.576a3.7 3.7 0 0 1-.99-.042c-.182-.035-.299.181-.16.303l4.756 4.168s1.219 1.75-.281 2.437c0 0-1.219 0-1.782 1.063l-2.218.156s-1.022-1.929-3.606-1.339a4.13 4.13 0 0 0-2.572 1.863c-.222.361-.239 1.038-.26 1.413 0 0-4.094-1.781-5.344 2.344 0 0 .125 1.344.813.281.687-1.062 1.344-2 5.562-.656 0 0 1.5.688 2.438.563 0 0 1.625 1.625 3.125 1.187l-.546.655c-.25.3-.612.486-1.003.515l-2.764.205s-2.312-1.187-1.687-2.5c0 0-1.202.901-1.946 1.83a2.9 2.9 0 0 0-.583 1.336c-.2 1.187-.188 2.401.036 3.584l.009.046c.176.931 1.091 1.683 2.039 1.669 1.5-.021 3.571-.026 4.426-.027.219 0 .432-.035.632-.123.57-.251 2.11-.69 4.074.685 0 0 2.147.119 3.397-.816.442-.332 1.034-.148 1.272.351.831 1.735 2.16 4.296 4.439 4.553 0 0-.643-1.124-.708-2.844-.016-.423.476-.673.815-.419 1.416 1.06 5.272 2.733 9.973 1.842 0 0-1.13-.209-1.993-.977-.402-.358-.07-1.019.461-.931 2.632.436 5.042.549 8.865-.301 0 0-1.954-.446-3.418-1.225-.569-.303-.51-1.14.104-1.338 1.875-.604 4.786-2.03 7.064-5.645.394-.625.109-1.258-.583-1l-1.25.25s-.732-1.964.643-2.839c0 0 .482-2.098.607-3.411 0 0-.459-.433-1.051-.502-.399-.047-.642-.463-.521-.846.325-1.036.41-2.8.376-5.743a1.186 1.186 0 0 1-1.329-1.026c-.094-.742.616-1.34 1.323-1.097q.305.104.652.272c.994.488 2.103.695 3.211.697l17.952.044c3.596.008 7.178.403 10.685 1.198 2.812.637 6.452 1.396 9.885 1.919a14.5 14.5 0 0 0 6.146-.367c3.376-.959 8.842-3.117 14.546-6.841 5.162-3.369 8.247-3.867 9.94-3.679 1.178.131 2.112.99 2.371 2.147.4 1.79-.322 5.47-6.27 8.157-8.666 3.917-16.291 3.667-16.291 3.667l-19-.583s-10.5.083-10.875 6.333 9.416 6.792 9.416 6.792 11.843 1.553 26.333-3.176c.822-.268 1.663.451 1.449 1.288-.295 1.156-.99 2.596-6.24 2.346 0 0 2.168 1.247 5.083 1.083 1.504-.084 3.122-.733 4.206-1.777a16.9 16.9 0 0 0 2.443-3.044 1.55 1.55 0 0 1 1.456-.72l1.128.092c.474.038.891.336 1.065.779.449 1.137.56 3.575-4.339 4.879 0 0 1.687 1.166 6.25-1.209S137.963.45 137.963.45s1.334-4.208 4.334-3.733c2.572.406 2.596 3.354 1.971 5.791 0 0 5.529-4.363 1.536-8.14a2.254 2.254 0 0 1-.349-2.859c.92-1.428 1.578-3.126 2.207-6.442 0 0-9.79 12.111-32.428 16.425C90.963 6.117 90.949.161 90.949.161s-.652-4.002 5.16-4.231c6.621-.261 26.463.99 34.68-2.847.454-.212.913-.416 1.386-.582 7.279-2.55 12.797-7.06 10.497-12.509-1.188-2.812-4.235-3.594-6.985-3.672-2.71-.077-5.383.645-7.765 1.94l-8.938 4.857s-.104-1.083-.854-1.583c0 0 7.167-7.917 8.417-10.667 0 0 5.75-.625 6.375.938 0 0 4.661-.267 6.405.596.362.179.792.124 1.131-.095 1.429-.925 4.333-2.93 6.151-5.501l1.396-.396-1.021-1.167.077-.992s1.402-.383 2.902-2.883l-1.854-.625s.834-.958.896-1.583c0 0 1.383-1.042 1.383-2.532l-1.258-.218s-1.25-2.813-2.125-3c-1.375-.875-5.458.521-6.208-2.542 0 0-1.125.5-.563 2.563 0 0-4.437-.5-6.812 0 0 0-2.063-.25-1.688-1.625 0 0-1.229 1.916.479 2.354 0 0-.52.521.646 1.708 0 0-2.479 1.417-4.707-.147 0 0 .145 2.751 3.541 2.418 0 0 1.74.846 4.602.612a.99.99 0 0 1 1.076 1.069l-.033 2.048s-.664.051-1.164 1.488c0 0-4.94-.3-7.252.137l-.027-1.665-2.344.438c-1.223.196-1.94-.258-1.838-1.148 0 0-7.106.812-9.197 1.844-3.219 1.531-8.25 7.437-8.25 7.437l-.536.009a1.813 1.813 0 0 1-1.839-1.68c-.101-1.356.213-3.079 1.062-4.141l2.716-2.946.315-4.71-1.343.5s-1.438 1.937-2.313 2.125l-.383-.778a6.9 6.9 0 0 0-1.986-2.418l-1.131-.867-.194.389a1.317 1.317 0 0 1-2.06.389l-.521-.626c-.585-.703-1.361-1.112-2.1-1.652l-1.5-1a1.467 1.467 0 0 1-2.096 1.069l-1.185-.586a2.2 2.2 0 0 0-.571-.195c-1.726-.326-8.842-1.262-13.585-.194 0 0-1.532.344-1.907.906 0 0-2.75.813-3.562-.687 0 0-1.094 2.406 3.219 2.593 0 0 .406 1.875 5.593 1.407 4.689-.424 10.75 2.25 10.75 2.25s.287.947.383 1.933a2.58 2.58 0 0 1-.997 2.292c-1.868 1.437-6.183 4.806-6.573 5.587 0 0-2.688-.125-4.688.938 0 0-11.5-.5-13.625.062 0 0-7.497-2.981-9.185-4.356l-.071.629a1.01 1.01 0 0 1-1.161.888c-1.549-.245-4.39-.78-5.458-1.536l-.183 1.707-.474-.15a1.39 1.39 0 0 1-.968-1.322v-2.428c0-.841-.315-1.65-.883-2.269l-2.835-2.663-.332 2.065s-3.731-4.315-5.793-5.127l-.25 2.187s-2.135-3.38-4.635-4.443c-.507 1.054-2.011 1.538-2.709.599l-2.156-2.531s-.438.66-1.125.722l-.407.903-2.937-.031s-.625-1.406-3.063-1.406l-3.625.125s-1.959-.911-2.647-2.473c0 0-1.04 2.004-.415 2.816 0 0-2.406-.718-5.25-.093 0 0-2.875.406-2.063-1.157 0 0-1.949 1.493.301 2.243l.152.442c.233.678-.096 1.447-.772 1.685-.894.315-1.606 1.094-2.493.349l-1.483-.336.724.633a3.44 3.44 0 0 0 2.203.851l2.181.04a3.32 3.32 0 0 0 2.749 1.227l1.846-.094a5.45 5.45 0 0 0 2.6-.812l.617-.384S32.062-29.228 34.75-28.291l-1.247.343a2.04 2.04 0 0 1-1.983-.524 2.73 2.73 0 0 1-2.27 2.117c-3.604.526-11.114 1.644-12.968 4.02l2.14.64-.469.32a5.4 5.4 0 0 1-1.922.806c-.896.191-2.003.658-2.684 1.036.663.753.318 1.94-.646 2.219-.961.277-1.952.625-2.275.948l1.683.421-3.78 7.143a10.6 10.6 0 0 1-2.758 3.325l2.467.327c.452.06.648.611.329.937-1.091 1.111-1.413 2.586-3.789 2.461 0 0-.547 3.096-4.578 1.752" style="fill:#da2128;fill-opacity:1;fill-rule:nonzero;stroke:none" transform="translate(222.446 394.31)"></path><path d="M426.667 416.807h-259.5v101.25h259.5z" style="fill:#da2128;fill-opacity:1;fill-rule:nonzero;stroke:none"></path><path d="M419 424.64H175v85.75h244z" style="fill:#fff;fill-opacity:1;fill-rule:nonzero;stroke:none"></path><path d="m0 0 7.45 21.49L14.83 0Zm25.04 34.17H-9.05l-22.91-61.83h24.34L-3.42-14h21.41l4.25-13.66h26.13z" style="fill:#da2128;fill-opacity:1;fill-rule:nonzero;stroke:none" transform="translate(219.88 464.22)"></path><path d="M0 0v-10.75h30.38v-14.87H0v-22.21h-23.24V14h54.87V0Z" style="fill:#da2128;fill-opacity:1;fill-rule:nonzero;stroke:none" transform="translate(302.12 484.39)"></path><path d="M0 0s-43.297 10.968-54.279-18.8c-1.739-4.713-2.312-9.802-1.767-14.795C-52.564-65.471-10.26-64.008 0-59.5v16.333s-25.887-9.725-30.097 9.51c-.734 3.352-.614 6.871.469 10.127C-23.9-6.318 0-15.667 0-15.667Z" style="fill:#da2128;fill-opacity:1;fill-rule:nonzero;stroke:none" transform="translate(401 497.223)"></path><path d="M0 0s.484 2.148 5.234.461c0 0 1.394 3.421-2.919 2.733 0 0 1.648 1.99 4.974-.116.438-.277.961-.373 1.478-.326l.031.003c.847.081 1.273 1.086.73 1.741-.494.595-.929 1.129-1.938 1.158 0 0 2.988 1.432 4.801-2.256l.259-.168A3.3 3.3 0 0 0 14.145.787l.07-.693a7.5 7.5 0 0 1 .797-2.678l.065-.126c.166-.32.384-.605.652-.846 1.911-1.719 9.659-8.558 12.572-11.655a1.54 1.54 0 0 1 2.072-.162c.795.615 1.84 1.451 2.62 2.173.586.542.243 1.511-.552 1.576a3.7 3.7 0 0 1-.99-.042c-.182-.035-.299.181-.16.303l4.756 4.168s1.219 1.75-.281 2.437c0 0-1.219 0-1.782 1.063l-2.218.156s-1.022-1.929-3.606-1.339a4.13 4.13 0 0 0-2.571 1.863c-.223.361-.24 1.038-.261 1.413 0 0-4.094-1.781-5.344 2.344 0 0 .125 1.344.813.281.687-1.062 1.344-2 5.562-.656 0 0 1.5.688 2.438.563 0 0 1.625 1.625 3.125 1.187l-.546.655c-.25.3-.612.486-1.003.515l-2.764.205s-2.312-1.187-1.687-2.5c0 0-1.202.901-1.946 1.83a2.9 2.9 0 0 0-.583 1.336c-.2 1.187-.188 2.401.036 3.584l.009.046c.176.931 1.091 1.683 2.039 1.67 1.5-.022 3.571-.027 4.426-.028.219 0 .432-.035.632-.123.57-.251 2.11-.69 4.074.685 0 0 2.147.119 3.397-.816.442-.332 1.034-.148 1.272.351.831 1.735 2.16 4.296 4.439 4.553 0 0-.643-1.124-.708-2.844-.016-.423.476-.673.815-.419 1.416 1.06 5.272 2.734 9.973 1.842 0 0-1.13-.209-1.993-.977-.402-.358-.07-1.019.461-.931 2.632.436 5.042.549 8.865-.3 0 0-1.954-.447-3.418-1.226-.569-.303-.51-1.14.104-1.338 1.875-.603 4.786-2.03 7.064-5.645.394-.625.109-1.258-.583-1l-1.25.25s-.732-1.964.643-2.839c0 0 .482-2.098.607-3.411 0 0-.459-.433-1.051-.502-.399-.047-.642-.463-.521-.846.325-1.036.41-2.8.376-5.743a1.186 1.186 0 0 1-1.329-1.026c-.094-.742.616-1.34 1.323-1.097q.305.104.652.272c.994.488 2.103.695 3.211.697l17.952.044c3.596.008 7.178.403 10.685 1.198 2.812.637 6.452 1.396 9.885 1.919a14.5 14.5 0 0 0 6.146-.367c3.376-.959 8.842-3.117 14.546-6.84 5.162-3.37 8.247-3.868 9.94-3.68 1.178.131 2.112.99 2.371 2.147.4 1.79-.322 5.47-6.27 8.158-8.666 3.916-16.291 3.666-16.291 3.666l-19-.583s-10.5.083-10.875 6.333 9.416 6.792 9.416 6.792 11.843 1.553 26.333-3.176c.822-.268 1.663.451 1.449 1.288-.295 1.156-.99 2.596-6.24 2.346 0 0 2.168 1.247 5.083 1.084 1.504-.085 3.122-.734 4.206-1.778a16.9 16.9 0 0 0 2.443-3.044 1.55 1.55 0 0 1 1.456-.72l1.128.092c.474.038.891.336 1.065.779.449 1.137.56 3.575-4.339 4.879 0 0 1.687 1.167 6.25-1.208s3.666-5.875 3.666-5.875 1.334-4.209 4.334-3.734c2.572.406 2.596 3.354 1.971 5.791 0 0 5.529-4.363 1.536-8.14a2.254 2.254 0 0 1-.349-2.859c.92-1.428 1.578-3.126 2.207-6.442 0 0-9.79 12.111-32.428 16.425C90.963 6.117 90.949.161 90.949.161s-.652-4.002 5.16-4.231c6.621-.261 26.463.99 34.68-2.847.454-.212.913-.416 1.386-.582 7.279-2.55 12.797-7.06 10.497-12.509-1.188-2.812-4.235-3.594-6.985-3.672-2.71-.077-5.383.645-7.765 1.94l-8.938 4.857s-.104-1.083-.854-1.583c0 0 7.167-7.917 8.417-10.667 0 0 5.75-.625 6.375.938 0 0 4.661-.266 6.405.596.362.179.792.124 1.131-.095 1.429-.925 4.333-2.93 6.151-5.501l1.396-.396-1.021-1.167.077-.992s1.402-.383 2.902-2.883l-1.854-.625s.834-.958.896-1.583c0 0 1.383-1.042 1.383-2.532l-1.258-.218s-1.25-2.813-2.125-3c-1.375-.875-5.458.521-6.208-2.542 0 0-1.125.5-.563 2.563 0 0-4.437-.5-6.812 0 0 0-2.063-.25-1.688-1.625 0 0-1.229 1.916.479 2.354 0 0-.52.521.646 1.708 0 0-2.479 1.417-4.707-.147 0 0 .145 2.751 3.541 2.418 0 0 1.74.846 4.602.612a.99.99 0 0 1 1.076 1.07l-.033 2.047s-.664.051-1.164 1.488c0 0-4.94-.3-7.252.137l-.027-1.665-2.344.438c-1.223.196-1.94-.258-1.838-1.148 0 0-7.106.812-9.197 1.844-3.219 1.531-8.25 7.437-8.25 7.437l-.536.009a1.814 1.814 0 0 1-1.839-1.68c-.101-1.356.213-3.079 1.062-4.141l2.716-2.946.315-4.71-1.343.5s-1.438 1.937-2.313 2.125l-.383-.778a6.9 6.9 0 0 0-1.986-2.418l-1.131-.867-.194.389a1.317 1.317 0 0 1-2.06.389l-.521-.626c-.585-.703-1.361-1.112-2.1-1.652l-1.5-1a1.466 1.466 0 0 1-2.096 1.069l-1.185-.586a2.2 2.2 0 0 0-.571-.195c-1.726-.326-8.842-1.262-13.585-.194 0 0-1.532.344-1.907.906 0 0-2.75.813-3.562-.687 0 0-1.094 2.406 3.219 2.593 0 0 .406 1.875 5.593 1.407 4.689-.424 10.75 2.25 10.75 2.25s.287.947.383 1.933a2.58 2.58 0 0 1-.997 2.292c-1.868 1.437-6.183 4.806-6.573 5.587 0 0-2.688-.125-4.688.938 0 0-11.5-.5-13.625.062 0 0-7.497-2.981-9.185-4.356l-.071.629a1.01 1.01 0 0 1-1.161.888c-1.549-.245-4.39-.78-5.458-1.536l-.183 1.707-.474-.15a1.39 1.39 0 0 1-.968-1.322v-2.428c0-.841-.315-1.65-.883-2.269l-2.835-2.663-.332 2.065s-3.731-4.315-5.793-5.127l-.25 2.187s-2.135-3.38-4.635-4.443c-.507 1.054-2.011 1.538-2.709.599l-2.156-2.531s-.438.66-1.125.722l-.407.903-2.937-.031s-.625-1.406-3.063-1.406l-3.625.125s-1.959-.911-2.647-2.473c0 0-1.04 2.004-.415 2.816 0 0-2.406-.718-5.25-.093 0 0-2.875.406-2.063-1.157 0 0-1.949 1.493.301 2.243l.152.443c.233.677-.096 1.446-.772 1.684-.894.315-1.606 1.094-2.493.349l-1.483-.336.724.633a3.44 3.44 0 0 0 2.204.851l2.18.04a3.32 3.32 0 0 0 2.749 1.227l1.846-.094a5.45 5.45 0 0 0 2.6-.812l.617-.384S32.062-29.228 34.75-28.291l-1.247.343a2.04 2.04 0 0 1-1.983-.524 2.73 2.73 0 0 1-2.27 2.117c-3.604.526-11.114 1.644-12.968 4.02l2.14.64-.469.32a5.4 5.4 0 0 1-1.922.806c-.896.191-2.003.658-2.684 1.036.663.753.318 1.94-.646 2.219-.961.277-1.952.625-2.275.948l1.683.421-3.78 7.143a10.6 10.6 0 0 1-2.758 3.325l2.467.327c.452.06.648.611.329.937-1.091 1.111-1.413 2.586-3.789 2.461 0 0-.547 3.096-4.578 1.752" style="fill:#da2128;fill-opacity:1;fill-rule:nonzero;stroke:none" transform="translate(222.453 576.898)"></path><path d="M0 0c-1.13 7.6 3.83 14.94 3.83 14.94C7.2 8.77 6.06 2.89 5.11 0Zm84.36 63.36c-.65 17.95-4.5 23.8-5.85 25.31-.4.44-.74.92-1.07 1.42-2.64 4.09-14.03 19.51-32.8 14.29-21.56-6-23.06-19.44-25.5-28.76-2.43-9.31-5.81-9.9-9.93-10.24-4-.34-12.38 5.5-13.63 16.74-1.25 11.26-11.25 18.57-11.25 18.57 10.38 3 4.56 12.69 4.56 12.69-1.64-3.09-4.02-3.83-5.03-4.01a.49.49 0 0 0-.57.44c-.24 2.51 3.16 5.75 3.16 5.75-3.69 1.57-7.64-1.66-9-2.94-.18-.17-.47-.02-.43.22.23 1.31.94 2.95 1.41 3.91.15.34-.17.71-.52.58-2.58-.9-4.12-3.69-4.75-5.09-.13-.28-.54-.24-.62.06-.25 1.07-.15 2.1-.04 2.73.06.3-.27.5-.53.34-.76-.46-1.31-1.4-1.6-1.98-.14-.3-.47-.44-.92-.3 0 0-.57.18-1.05.34-.3.09-.61-.11-.65-.41-.1-.92-.47-2.27-.71-3.06a.736.736 0 0 0-.87-.48l-.9.23a.447.447 0 0 1-.56-.48l.37-2.11c-.31-1.62-.19-3.81-.19-3.81 0-3 .88-3.75.88-3.75-4.19-3.87-3.32-5.44-3.32-5.44.757.212 1.29 1.269 1.963 1.422 4.334.75 5.877-.042 5.877-.042s-3.29-6.67-2.13-11.83c1.17-5.17 4-3.5 4-3.5-6.5-14.17-6-23.5-6-23.5 1.34-22 20.5-28.84 20.5-28.84 2.84-8 9.84-17.16 9.84-17.16C-3.21 4.55-4.56 1.49-5.74 0h-19.1c-5.66 0-9-6.83-9-6.83h74.17c-.88 3.42-4.47 5.31-6.8 6.19-1.14.43-2.34.64-3.56.64H11.02c-.59 2.84-1.2 6.68-.57 8.31 1.07 2.75.82 12.5.82 12.5 12.5 7.88 19.56 16.74 21.85 20.86.53.95.88 2.25 2.51 1.06 2.45-1.78 5.53-3.24 6.64-2.79 1.37.56 2.62 3.12 3 4.37.22.74.13 3.37.03 5.39-.05 1.01 1.24 1.47 1.84.66.22-.31.42-.62.59-.9.34-.58.62-1.21.74-1.88.34-1.98 1.66-3.62 2.69-4.64.7-.71 1.91-.53 2.36.36.87 1.71 1.37 4.12 1.6 5.46.11.67.41 1.3.86 1.82l.06.07c.56.66 1.63.23 1.59-.64-.46-9.79 2.33-15.17 4.37-17.76.59-.74 1.79-.4 1.92.53.14 1.04.5 1.85.88 2.45.4.63 1.36.41 1.48-.33.72-4.56 2.67-6.21 2.67-6.21 1.13-.25 3.69.56 3.69.56-.22-4.94 1.51-9.66 2.98-12.73.67-1.39 2.74-1.07 2.98.46.63 3.93.48 8.22.24 11.11-.19 2.33.06 4.67.73 6.91.96 3.23 2.15 7.57 2.9 10.56 1.46 5.82 2.1 11.81 1.89 17.8" style="fill:#da2128;fill-opacity:1;fill-rule:nonzero;stroke:none" transform="translate(288.17 614.89)"></path></g><!-- source: https://football-logos.cc --></svg>