<svg xmlns="http://www.w3.org/2000/svg" viewBox="0 -0.01 755.91 766.91"><!-- Source: https://football-logos.cc --><path d="M2826.2 4985.67c466.63 0 897.51-152.8 1245.5-411.05 10.25-2.13 20.14-6.71 28.77-13.85a66.1 66.1 0 0 0 16.74-20.82c487.81-383.03 801.15-978.13 801.15-1646.43 0-260.62-47.79-510.04-134.86-740.15-.9-6.32-2.72-12.6-5.57-18.68a66 66 0 0 0-4.79-8.54C4467.11 1350.33 3710.76 801.352 2826.2 801.352c-1155.46 0-2092.157 936.698-2092.157 2092.168 0 1155.46 936.697 2092.15 2092.157 2092.15" style="fill:#fff;fill-opacity:1;fill-rule:evenodd;stroke:none" transform="matrix(.13333 0 0 -.13333 0 766.907)" data-source="https://football-logos.cc"></path><path d="m76.148 2051.21 527.661 217.51 149.14-361.8-89.316-36.82-105.188 255.17-124.816-51.46 90.801-220.28-89.317-36.82-90.812 220.28-224.199-92.43zm467.915-317.24c51.304 27.48 98.371 42.9 141.386 46.18 31.684 2.21 63.098-1.01 94.086-9.88 30.871-8.94 57.594-22.52 80.035-40.79 30.18-24.24 56.059-56.81 78.024-97.8 39.726-74.15 48.515-145.72 26.312-214.89-22.07-69.11-74.101-125.62-155.984-169.48-81.285-43.56-156.637-55.42-226.192-35.86-69.464 19.63-124.054 66.36-163.589 140.16-40.098 74.84-49.125 146.59-27.203 215.16 22.015 68.63 73.121 124.34 153.125 167.2m59.429-102.78c-56.929-30.5-93.062-66.89-108.402-108.87-15.289-42.1-12.031-83.34 9.66-123.87 21.66-40.4 53.988-65.9 97.215-76.21 43.031-10.26 93.683.13 152.019 31.39 57.649 30.87 93.848 66.55 108.813 106.99 14.801 40.48 10.957 81.7-11.445 123.51-22.45 41.93-54.93 67.94-97.368 78.24-42.382 10.15-92.504-.13-150.492-31.18m255.453-437.84c37.571 44.47 75.633 76.15 114.41 95.05 28.645 13.72 59.045 22.31 91.125 25.47 31.98 3.08 61.83.29 89.43-8.42 36.98-11.41 73.05-32.14 108.58-62.15 64.24-54.3 98.79-117.59 103.64-190.07 4.95-72.39-22.59-144.089-82.55-215.039-59.51-70.441-125.18-109.25-197.06-116.691-71.8-7.359-139.778 15.969-203.727 70.012-64.848 54.789-99.691 118.148-104.586 189.988-4.812 71.9 22.164 142.53 80.738 211.85m93.129-73.64c-41.679-49.32-61.859-96.46-60.648-141.159 1.301-44.781 19.515-81.899 54.625-111.571 35.019-29.589 74.479-41.371 118.459-35.031 43.79 6.321 87.05 34.653 129.76 85.192 42.2 49.941 62.7 96.469 61.73 139.559-1.17 43.09-19.93 79.98-56.16 110.6-36.33 30.71-76.12 42.93-119.36 36.84-43.14-6.17-85.945-34.17-128.406-84.43m384.876-680.198 237.48 410.359-146.52 84.789 48.38 83.63 392.55-227.169-48.4-83.629-146.18 84.598-237.48-410.36zm581.8 326.359 218.16-66.769c43.21-13.223 74.94-24.883 95.03-35.063 20.14-10.051 36.77-23.328 50.04-39.91 13.28-16.59 22.49-35.918 27.85-58.399 5.37-22.371 4.44-45.421-2.75-68.941-7.82-25.539-21.88-46.937-42.13-64.078-20.39-17.121-43.97-27.41-70.74-30.891 30.21-19.8 50.82-44.179 61.5-72.871 10.75-28.859 11.25-59.039 1.6-90.547-7.57-24.781-20.69-47.172-39.44-67.14-18.71-19.832-40.23-33.832-64.45-41.703-24.24-7.879-51.53-8.957-81.89-3.289-18.88 3.699-63.61 16-134.04 37.011l-185.77 56.84zm82.48-124.621-38.61-126.168L2034.78 493c42.95-13.141 69.83-20.68 80.64-22.602 19.48-3.589 36.32-1.656 50.43 5.821 14.09 7.511 23.8 20.113 29.19 37.781 5.17 16.891 4.8 32.012-1.23 45.398-6.18 13.434-18.1 24.004-35.73 31.774-10.54 4.617-41.73 14.848-93.57 30.726zm-66.43-217.02-44.62-145.871 101.9-31.187c39.78-12.16 65.25-18.852 76.6-19.82 17.3-2.114 32.89 1.187 46.69 9.468 13.83 8.399 23.77 22.321 29.69 41.641 5.01 16.379 5.18 31.48.81 45.309-4.51 13.902-13.37 25.789-26.78 35.601-13.38 9.777-45.27 22.32-95.34 37.641zM2860.12 0l-125.14 8.719-40.68 132.851-227.62 15.871-55.95-126.12-121.95 8.519 261.45 553.879 121.57-8.457zm-196 239.98-63.75 216.782-91.62-205.953zM3022.3 28.27l-60.87 562.8 114.55 12.379 50.52-467.14 284.83 30.8 10.37-95.648zm495.83 88.132-139.77 548.559L3490 693.398l116.02-455.316 277.63 70.738 23.75-93.23zm878.2 658.629 101.03 59.149c34.79-54.481 50.02-106.578 45.8-156.469-4.23-49.699-26.91-97.441-67.96-142.891-50.77-56.23-111.78-85.129-182.82-86.672-71.15-1.468-140.09 27.864-206.68 87.973-70.5 63.68-108.77 131.348-114.98 203.008-6.09 71.582 17.58 137.043 71.19 196.41 46.76 51.781 100.08 80.081 159.97 84.741 35.48 3.03 74.53-6.08 117.18-27.05l-56.29-102.98c-26.42 14.941-53.24 20.141-80.39 15.66-27.05-4.39-50.84-18.019-71.31-40.699-28.32-31.359-40.13-67.063-35.19-106.981 4.86-39.832 32.54-82.539 83.03-128.148 53.57-48.363 100.37-73.262 140.5-74.402 40.14-1.348 74.11 13.461 101.9 44.242 20.57 22.789 30.99 48.808 31.29 78.269.39 29.368-11.82 61.668-36.27 96.84m346.66-32.949-420.16 379.398 77.23 85.51 348.71-314.92 192.01 212.65 71.41-64.48zm-124.9 681.368 64.43 95.52 256.27-172.79c40.62-27.42 67.91-44.03 81.48-49.83 22.15-8.98 44.28-9.65 66.31-2.21 22.15 7.48 42.21 24.58 60.18 51.25 18.26 27.09 26.58 51.31 24.74 72.56-1.73 21.22-9.8 38.69-24.06 52.28-14.26 13.8-40.15 33.18-77.6 58.43l-261.77 176.51 64.39 95.53 248.58-167.61c56.83-38.33 95.23-67.9 115.21-88.9 19.98-20.98 33.32-43.77 40.14-68.56 6.75-24.75 7.07-52.05 1.05-81.65-6.09-29.72-21.85-63.31-47.11-100.78-30.47-45.17-58.75-75.95-84.96-92.25s-52.19-25.56-77.95-27.91c-25.78-2.32-49.31.57-70.51 8.6-31.34 12-73.41 35.87-126.4 71.63zm284.82 441.27 88.28 210.38c17.46 41.67 32.23 72.07 44.38 91.05 12.01 19.02 26.89 34.24 44.72 45.8 17.82 11.55 37.99 18.78 60.9 21.85 22.79 3.12 45.65-.1 68.3-9.64 24.63-10.33 44.51-26.45 59.55-48.31 15-22 22.89-46.49 23.66-73.47 22.73 28.07 49.06 46.14 78.67 53.87 29.78 7.83 59.86 5.3 90.25-7.44 23.89-10.04 44.84-25.31 62.85-45.95 17.87-20.63 29.63-43.43 35.04-68.31 5.41-24.92 3.77-52.17-4.92-81.82-5.59-18.42-22.29-61.69-50.21-129.66l-75.18-179.16zm132.25 69.59 121.66-51.04 29.2 69.61c17.38 41.42 27.55 67.4 30.54 77.95 5.55 19.02 5.3 35.98-.74 50.78-6.03 14.77-17.62 25.67-34.65 32.82-16.29 6.83-31.37 7.97-45.29 3.3-13.99-4.8-25.72-15.6-35.2-32.36-5.64-10.02-18.96-40.03-39.94-90.02zm209.29-87.79 140.65-59.02 41.25 98.28c16.09 38.36 25.29 63.03 27.38 74.23 3.83 17 2.11 32.83-4.77 47.4-6.95 14.61-19.82 25.89-38.43 33.7-15.8 6.64-30.8 8.33-45 5.36-14.3-3.1-27.01-10.74-38.09-23.08-11.09-12.35-26.76-42.82-47.01-91.09z" style="fill:#b71d23;fill-opacity:1;fill-rule:evenodd;stroke:none" transform="matrix(.13333 0 0 -.13333 0 766.907)"></path><path d="m3329.02 4503.73 451.64-225.83 193.05 233.76c-200.14 142.2-427.81 248.17-673.46 308.41zm-1420.33-218.99 441.54 228.65 48.42 317.47c-250.51-55.05-483.27-157.46-688.43-297.34zm394.4-1411.88-82.4 158.45 323.66 243.85-941.34 1179.99c-171.97-134.89-321.06-297.59-440.59-481.28l456.93-99 175.4-684.87-551.23-350.78-393.547 225.93a2007 2007 0 0 1-7.352-171.63c0-219.48 35.719-430.62 101.539-627.96zm815.84 395.23 296.09-228.43-72.48-162.02L4700.8 2243.8c70.53 203.58 108.99 422.14 108.99 649.72 0 53.95-2.21 107.38-6.43 160.23l-402.79-231.23-551.23 350.78 175.39 684.87 473.61 102.62c-113.98 178.18-255.64 336.99-418.96 470.25zm-288.54 222.59 183.32-141.44 702.07 850.09-376.19 188.12.27-3.11-484.41-392.55-526.18 384.19 2.4 15.79-359.75-186.31 678.44-850.42zM1645.65 1973.71l564.8 20.67L2503.23 2488l-138.91 267.09-962.07-429.94zm-281.87-420.06 183.32 387.78-237.18 342.45-319.467-142.76c89.447-218 216.627-416.5 373.327-587.47m1999.56 355.91-148.75-381.59 317.91-488.5c-219.41-83.661-457.5-129.529-706.3-129.529-243.86 0-477.42 44.039-693.19 124.569l304.83 468.39-159.89 410.17 291.72 491.85 518.49-.01zm668.07 88.31-615.96 22.54-252.79 455.06 125.8 281.27 978.67-456.69zm265.07-435.72-180.74 382.33 243.75 312.47 293.73-137.08c-87.36-206.08-208.63-394.26-356.74-557.72M2826.2 4985.67c466.63 0 897.51-152.8 1245.5-411.05 10.25-2.13 20.14-6.71 28.77-13.85a66.1 66.1 0 0 0 16.74-20.82c487.81-383.03 801.15-978.13 801.15-1646.43 0-260.62-47.79-510.04-134.86-740.15-.9-6.32-2.72-12.6-5.57-18.68a66 66 0 0 0-4.79-8.54C4467.11 1350.33 3710.76 801.352 2826.2 801.352c-1155.46 0-2092.157 936.698-2092.157 2092.168 0 1155.46 936.697 2092.15 2092.157 2092.15" style="fill:#b91d24;fill-opacity:1;fill-rule:evenodd;stroke:none" transform="matrix(.13333 0 0 -.13333 0 766.907)"></path><path d="M2624.9 2954.36c-30.57 262.5 4.24 574.99 208.32 574.99s245.82-258.32 212.5-574.99c39.61-552.36 63.26-906.93 169.59-1426.01l253.6-398.67-423.19-116.9H2624.9l-440.89 106.91 254.22 382.22c110.86 515.35 131.35 914.88 186.67 1452.45" style="fill:#100f0d;fill-opacity:1;fill-rule:evenodd;stroke:none" transform="matrix(.13333 0 0 -.13333 0 766.907)" data-source="https://football-logos.cc"></path><path d="M2601.61 3242.89h486.87v-299h-486.87z" style="fill:#bd1d24;fill-opacity:1;fill-rule:evenodd;stroke:none" transform="matrix(.13333 0 0 -.13333 0 766.907)"></path><path d="M3505.7 3118.69c18.5-.36 33.25-19.62 32.97-43-.29-23.38-15.51-42.04-34-41.68l-461.19 9.52 602.98-240.45c17.7-6.97 27.58-30.77 22.08-53.13-5.53-22.37-24.36-34.87-42.04-27.89l-812.71 324.07-812.71-324.07c-17.69-6.98-36.51 5.52-42.02 27.89-5.52 22.36 4.37 46.16 22.05 53.13l625.62 249.49-515.65 10.64c-18.49.36-33.24 19.63-32.95 43.01.28 23.38 15.51 42.04 33.99 41.68l491.98-10.16-603.01 240.45c-17.68 6.97-27.56 30.77-22.05 53.14 5.51 22.36 24.34 34.86 42.02 27.88l812.73-324.09 812.73 324.09c17.68 6.98 36.51-5.52 42.02-27.88 5.52-22.37-4.36-46.17-22.06-53.14l-625.62-249.48z" style="fill:#fbc907;fill-opacity:1;fill-rule:nonzero;stroke:none" transform="matrix(.13333 0 0 -.13333 0 766.907)"></path><path d="M554.555 3231.7 0 3345.36l23.129 112.87 460.312-94.35 57.512 280.67 94.258-19.32zm-102.5 606.11c-52.844 24.38-93.516 52.64-122.059 84.98-20.848 23.96-37.223 50.99-48.805 81.06-11.472 30.02-16.753 59.52-15.687 88.45 1.156 38.69 11.535 78.97 31.016 121.21 35.234 76.37 87.05 126.53 155.625 150.5 68.441 24.02 144.91 16.57 229.25-22.34 83.742-38.63 138.625-91.61 164.933-158.9 26.199-67.25 21.801-138.99-13.258-215-35.554-77.11-87.367-127.56-155.3-151.39-68.043-23.8-143.293-16.58-225.715 21.43m46.211 109.38c58.652-27.06 109.453-33.96 152.207-20.92 42.808 13.2 73.757 40.63 93.007 82.38 19.211 41.62 20.067 82.79 2.247 123.5-17.743 40.53-56.582 74.68-116.672 102.41-59.371 27.38-109.664 34.77-150.957 22.35-41.211-12.59-71.793-40.49-91.653-83.56-19.929-43.2-21.129-84.8-3.75-124.87 17.426-39.94 55.836-73.75 115.571-101.29m397.16 499.25 71.832 86.82c31.293-22.1 60.472-32.09 87.632-30.01 26.98 2.06 52.97 15.29 77.87 40.01 26.31 26.11 40.68 51.42 42.85 75.86 2.34 24.41-3.87 44.07-18.67 58.98-9.54 9.62-20.42 14.91-32.73 16-12.31 1.26-27.92-2.62-46.84-11.66-12.91-6.06-40.57-21.94-83.046-47.24-54.64-32.67-98.66-49.78-132.043-51.47-46.984-2.44-86.386 12.38-118.215 44.43-20.496 20.66-33.753 45.71-39.933 75.33-6.074 29.52-2.781 59.96 9.836 91.2 12.804 31.25 34.617 62.26 65.754 93.17 50.918 50.53 100.175 77.3 148.007 80.6 47.852 3.11 90.81-13.21 129.12-49.15l-78.229-84.76c-24.183 17.38-46.594 24.9-67.113 22.54-20.567-2.27-42.328-14.88-65.324-37.71-23.774-23.6-37.676-46.95-41.336-70.03-2.5-14.85 1.492-27.56 11.886-38.02 9.543-9.63 21.739-13.8 36.602-12.54 18.875 1.52 52.965 17.38 102.035 47.53 49.159 30.07 88.229 49.56 117.199 58.47 29.08 8.81 57.56 9.93 85.71 3.24 28.07-6.76 54.79-22.93 80.16-48.49 23.02-23.2 38.23-51.36 45.34-84.37 7.2-33.11 3.98-66.26-9.87-99.46-13.73-33.31-38.3-67.42-73.48-102.34-51.21-50.84-102.25-78.06-153.19-81.63-50.935-3.57-101.615 14.67-151.814 54.7m470.164 453.42 91.61 65.63c24.62-29.36 50.29-46.46 77.08-51.39 26.6-4.9 55.11 1.29 85.5 18.83 32.09 18.52 52.46 39.33 60.78 62.4 8.5 23.03 7.51 43.62-2.99 61.79-6.78 11.75-15.94 19.65-27.57 23.83-11.59 4.37-27.66 4.6-48.26.67-14.02-2.56-44.85-10.83-92.36-24.47-61.16-17.66-108.1-22.97-140.79-16.08-46.05 9.63-80.39 34-102.98 73.13-14.55 25.2-20.96 52.8-19.38 83.01 1.65 30.11 12.61 58.69 32.78 85.68 20.36 26.95 49.35 51.37 87.33 73.29 62.14 35.89 116.61 49.21 163.7 40.18 47.05-9.2 84.43-35.95 112.28-80.48l-97.24-61.97c-18.95 22.97-38.7 35.96-59.14 38.9-20.47 3.05-44.72-3.58-72.8-19.79-29.01-16.75-48.4-35.77-57.83-57.16-6.21-13.72-5.58-27.03 1.78-39.79 6.78-11.74 17.51-18.9 32.2-21.46 18.65-3.35 55.64 3.27 110.78 19.92 55.22 16.53 97.97 25.4 128.26 26.64 30.35 1.08 58.16-5.1 83.69-18.75 25.42-13.71 47.13-36.16 65.12-67.35 16.36-28.3 23.87-59.41 22.33-93.14-1.49-33.85-13.07-65.08-34.94-93.66-21.78-28.68-54.23-55.41-97.16-80.19-62.48-36.08-118.79-49.39-168.95-39.83-50.15 9.53-94.51 40.09-132.83 91.61m654.27 124.33-185.81 539.64 108.93 37.52 185.82-539.65zm240.97 86.04-79.42 565.18 418.97 58.88 13.44-95.66-304.88-42.85 17.6-125.27 283.7 39.88 13.38-95.16-283.7-39.86 21.61-153.82 315.7 44.36 13.38-95.28zm556.89 76.99 83.22 564.63 198.32-29.26 62.22-402.73 174.42 367.83 198.77-29.33-83.22-564.63-123.01 18.15 65.51 444.48-195.81-425.26-127.59 18.82-64.36 463.63-65.49-444.47zm950.64 126.23c29.1 50.42 60.98 88.33 95.78 113.8 25.76 18.59 54.16 32.41 85.16 41.2 30.95 8.68 60.8 11.25 89.51 7.55 38.42-4.68 77.6-18.7 117.87-41.95 72.83-42.05 118.05-98.23 135.66-168.71 17.7-70.37 3.29-145.81-43.16-226.26-46.11-79.88-103.87-129.67-173.3-149.74-69.36-19.96-140.39-9.02-212.89 32.83-73.54 42.46-119.04 98.66-136.58 168.48-17.46 69.92-3.42 144.21 41.95 222.8m104.71-55.99c-32.29-55.94-43.83-105.89-34.71-149.67 9.2-43.84 33.71-77.15 73.53-100.14 39.69-22.92 80.61-27.53 122.78-13.51 41.97 13.98 79.53 49.53 112.62 106.84 32.69 56.62 44.64 106.04 36.05 148.29-8.79 42.19-33.77 75.19-74.86 98.91-41.19 23.78-82.52 28.77-123.99 15.12-41.36-13.71-78.53-48.88-111.42-105.84m796.23-155.5 78.57-84.26-226.05-210.79c-35.84-33.45-58.19-56.27-66.88-68.19-13.75-19.55-19.37-40.96-17.09-64.1 2.29-23.29 14.44-46.66 36.39-70.18 22.28-23.9 44-37.45 65.14-40.44 21.05-3.09 39.9.86 56.34 11.66 16.66 10.81 41.37 31.65 74.4 62.47l230.92 215.33 78.57-84.26-219.26-204.45c-50.14-46.76-87.6-77.51-112.56-92.26-24.96-14.74-50.15-22.6-75.86-23.67-25.6-.99-52.28 4.82-79.78 17.36-27.58 12.61-56.76 35.54-87.58 68.59-37.15 39.84-60.78 74.33-70.74 103.55-10 29.2-13.17 56.58-9.65 82.22 3.53 25.64 11.64 47.92 24.24 66.74 18.75 27.84 51.48 63.46 98.24 107.05zm117.54-1010.24 414.68 229.87-82.09 148.06 84.52 46.83 219.88-396.65-84.51-46.84-81.88 147.72-414.67-229.86zm213.06-406.42 551.27 147.71 29.87-111.41-216.92-58.13 58.42-218.07 216.93 58.12 29.83-111.29-551.31-147.71-29.83 111.29 241.08 64.58-58.44 218.07-241.05-64.58z" style="fill:#bd1e24;fill-opacity:1;fill-rule:nonzero;stroke:none" transform="matrix(.13333 0 0 -.13333 0 766.907)" data-source="https://football-logos.cc"></path><!-- source: https://football-logos.cc --></svg>