<svg xmlns="http://www.w3.org/2000/svg" viewBox="14.17 137.48 566.93 566.93"><!-- Source: https://football-logos.cc --><path d="M297.638 137.48a283.465 283.465 0 0 1 283.464 283.465A283.465 283.465 0 1 1 297.638 137.48" style="fill:#ffe600;fill-rule:evenodd" data-source="https://football-logos.cc"></path><path d="M374.729 490.195c0 26.835-13.644 50.483-34.371 64.39v8.214c2.914-2.824 6.863-5.598 10.767-6.967 8.799-3.08 17.45-1.86 31.26-5.196-6.364 8.624-16.243 15.927-28.754 20.45 11.633 2.155 14.2 7.536 25.832 11.533-12.246 7.495-25.77 4.937-39.105-3.782v6.996c5.482 2.122 8.031 3.177 11.658 6.766 2.851 2.82 10.968 15.61 16.376 25.232-10.189-3.417-21.33-8.505-28.034-12.63v8.196h-26.867v11.56h-32.49v-11.56H256.01v-8.718c-11.013 7.786-17.573 10.886-27.488 14.213 5.528-14.767 15.35-27.36 27.488-32.485v-6.159c-13.238 8.457-27.092 10.979-39.174 3.586 11.633-3.998 15.89-8.61 26.447-11.687-12.511-4.523-22.39-11.826-28.754-20.45 13.81 3.336 22.461 2.115 31.26 5.197 3.666 1.283 7.37 3.807 10.22 6.448v-7.532c-21.78-13.716-36.258-37.974-36.258-65.614 0-10.716 2.177-20.924 6.11-30.207-14.755-9.451-31.848-26.097-33.444-45.909-1.429-17.76 14.103-60.968 30.293-71.347 2.01-1.289 3.244-5.444-1.648-6.596-4.41-1.038-15.45-1.043-19.652-3.984-1.826-1.278-1.308-2.886.545-4.123 18.019-12.013 40.772-16.899 57.583-9.07 27.412-12.41 62.989-8.031 90.532 3.978 15.691 6.843 34.4 18.73 34.386 42.333-10.607-3.893-24.641-5.367-32.02-3.158 4.491 1.315 26.735 4.856 32.456 12.497.935 1.25 1.02 2.62.938 4.128 4.35 4.718 8.019 10.35 8.243 15.803-1.171-1.161-3.173-2.798-5.76-4.761-3.752-2.847-10.9-6.728-14.764-9.44-9.944-6.986-17.055-11.821-27.025-19.046-1.07-.776-1.634-.783-2.964-.911l-3.49-.335c-1.44-.139-2.34 2.431-.002 2.815l4.521.743c6.476 4.47 12.26 9.081 18.734 13.552 8.326 5.748 18.04 12.193 26.366 17.94 1.85 1.279 1.686 2.293-.382 2.5-2.658.265-8.101-.852-12.616-3.361-20.74-11.526-45.556-16.623-77.987-20.171l41.91-3.782-.37-1.062-49.923-18.656c-29.362-.006-47.218 19.61-42.6 44.113-14.09 11.3-20.78 27.048-13.626 50.594a78 78 0 0 1 3.569-4.627c-1.087-11.987 1.596-24.575 9.965-33.825l3.466 4.165c-5.715 6.24-8.38 14.388-8.412 24.185 14.004-13.887 33.278-22.467 54.557-22.467 42.796 0 77.49 34.696 77.49 77.491m-89.225 50.229h23.485v80.03h-23.485zm9.584 20.49h4.062v38.738h-4.062zm-34.577-9.87h20.49v57.851h-20.49zm8.224 9.87h4.062v38.738h-4.062zm53.527 0h4.06v38.738h-4.06zm-8.77-9.87h22.364v57.851h-22.365zm-32.49-15.123h32.49v10.622h2.005q3.916-.51 7.8-1.237l1.126-.398 4.826-16.5-.647-.646-14.68-14.824-.957-1.092h-31.454l-1.02 1.163-14.62 14.758-.64.642 4.867 16.641.836.191q4.086.771 8.186 1.302h1.881zm50.636-9.8 17.37-4.486.603-1.158c3.79-9.661 5.653-19.275 5.653-29.063 0-2.873-.16-5.758-.478-8.67l-.457-1.836-9.517-6.615-.809.44-20.039 9.536s-.475.21-1.241.545l-7.028 25.133.645.736 14.608 14.745zm-12.108-93.868.82.298c9.108 3.787 16.74 9.65 22.722 17.466l9.899-7.777c-9.06-10.522-21.042-18.447-34.691-22.518zm-68.128 17.761.092-.103c7.22-7.746 14.594-13.41 22.602-17.344l.859-.38 1.244-12.465c-13.65 4.07-25.628 12-34.69 22.518zm101.313 71.569 9.512 3.042a73.2 73.2 0 0 0 8.556-34.43 73 73 0 0 0-.547-8.82l-12.195.849c1.483 13.474-.24 26.304-5.326 39.359m-98.768-69.451s-.615.693-1.43 1.618l-1.204 17.678.585.317 19.95 9.493.864.38 22.872-16.943v-24.942l-18.287-4.964-1.803.797c-7.581 3.722-14.64 9.155-21.547 16.566m-17.5 30.093-12.208-.85a74 74 0 0 0-.543 8.82 73.2 73.2 0 0 0 8.558 34.43l9.497-3.04c-4.166-12.53-5.952-25.718-5.304-39.36m42.333 27.717-7.024-25.131-1.287-.565-20.07-9.553-.73-.396-9.731 6.756c-.117.802-.196 1.366-.196 1.366a108 108 0 0 0-.127 5.253c0 11.293 1.769 22.319 5.242 32.778 0-.001.19.46.478 1.15l17.508 4.52.681-.685 14.546-14.68zm20.114-45.267v-24.942l18.052-4.901 2.204.802c8.523 3.548 15.713 9.078 21.309 16.41l1.535 2.184 1.175 17.195-.668.362-19.913 9.474-.817.36zm35.762-124.724c4.515 0 8.207 3.304 8.244 7.378s-3.597 7.377-8.112 7.377-8.208-3.304-8.244-7.377c-.037-4.074 3.596-7.378 8.112-7.378m0 2.488c-2.763 0-5.65 1.895-5.624 4.867.027 2.989 2.972 4.912 5.756 4.912 2.762 0 5.65-1.895 5.623-4.867-.027-2.988-2.971-4.912-5.755-4.912m-47.897 13.226c-1.895 9.83-2.265 19.464.278 27.444-10.041 4.243-21.848 11.17-26.893 20.928l-.108 6.082c-.021 1.205-1.417 3.478-2.383 1.68l-1.735-3.222c-1.545-3.661-2.076-8.373-2.506-11.737-3.383-26.47 16.04-38.515 33.347-41.175" style="fill:#000200;fill-rule:evenodd" data-source="https://football-logos.cc"></path><path d="M371.686 571.975c2.882 1.772 8.89 2.237 15.345 1.096 2.825-3.852 11.329-6.521 28.41-7.344-14.103-8.977-28.718-6.692-43.34 2.625-1.915 1.22-3.131 1.952-.415 3.623M393.409 554.509l18.613.79c6.514.275 19.624-13.752 30.448-21.096-21.751-1.924-38.94 3.128-50.492 17.804-1.007 1.28-.569 2.417 1.431 2.502M405.916 504.7c5.508 12.764-1.742 27.575-16.492 42.207-1.143-19.796 7.943-34.124 16.492-42.208M427.578 479.787c1.78 16.587 3.143 32.836-8.056 41.43-8.527-15.493-1.477-29.398 8.056-41.43M463.83 500.91c-7.413 8.614-13.102 18.042-20.564 22.15-5.105 2.81-11.906 4.248-19.222 3.475 6.131-15.972 21.999-24.565 39.787-25.625M440.538 450.12c6.066 13.46 7.49 28.392-1.724 44.213-.589-14.797-4.407-20.353-4.047-27.698.26-5.295 3.021-11.393 5.771-16.515M440.997 419.154c14.642 17.39 17.29 24.182 13.199 39.991-5.728-13.361-17.203-18.627-13.2-39.99M436.382 388.594c6.785 8.858 12.734 13.513 15.495 18.25 2.938 5.041 3.676 9.643 3.885 17.278-8.457-9.293-21.16-8.953-19.38-35.528M430.297 362.503c8.204 7.565 14.07 10.19 17.604 14.384 3.761 4.465 5.6 9.19 7.598 17-10.94-9.413-16.111-9.972-20.652-14.457-3.162-3.124-4.054-9.029-4.55-16.927M418.273 331.463c6.493 10.186 14.477 10.058 20.517 15.567 4.463 4.072 5.704 5.975 8.264 14.601-10.468-6.94-27.017-5.691-28.78-30.168M391.472 305.413c8.373 5.649 19.129 4.938 25.512 10.045 3.781 3.025 6.358 6.555 9.863 12.542-14.738-9.478-28.704-2.388-35.375-22.587M355.172 281.098c9.117 4.323 21.058 1.006 28.13 5.095 4.189 2.422 8.327 5.87 13.005 10.957-7.062-3.132-18.257-2.463-21.81-2.963-5.984-1.355-10.145-3.567-19.325-13.09M325.64 256.164c6.262 1.681 14.252 2.44 20.69 3.1 5.333.546 9.356.927 12.661 2.59 4.814 2.42 11.682 8.681 16.36 13.767-6.894-2.204-10.364-4.177-14.34-4.952-6.625-1.292-11.608-.473-13.829-.785-5.984-1.356-10.147-3.887-21.542-13.72M474.222 467.489c-7.578 15.348-13.393 23.082-30.057 29.538 3.565-13.12 13.717-22.679 30.057-29.538M482.746 429.046c-3.949 13.112-6.783 27.315-22.61 36.008.805-15.035 7.127-24.738 22.61-36.008M474.497 358.265c-.139 9.114 1.068 11.134-.99 17.838-2.018 6.577-4.156 7.593-11.643 23.05-2.41-16.93 1.099-31.499 12.633-40.888M463.585 328.562c1.137 18.052-.112 25.062-9.204 41.532-4.14-16.608-1.29-30.995 9.204-41.532M446.839 302.672c1.135 5.632 2.896 12.019 3.664 18.506.986 8.341-3.1 11.36-5.413 24.137-2.933-7.342-6.408-16.075-6.335-23.422s3.349-13.65 8.084-19.221M409.251 279.755c4.282 4.439 8.49 8.306 12.323 13.951 4.343 6.398 5.609 16.16 7.192 25.254-9.924-12.917-21.74-21.206-19.515-39.205M378.556 258.19c4.8 3.872 10.265 8.123 14.772 13.251 5.108 5.812 5.898 12.065 9.276 21.546-5.965-6.363-11.663-8.653-15.703-13.331-5.904-6.838-8.318-13.357-8.345-21.466M481.555 387.06c-2.067 14.667-1.687 24.516-5.108 31.21-3.018 5.908-7.05 9.363-11.89 11.507-2.234.99-1.904-1.055-1.867-1.596.845-12.17 11.013-28.504 18.865-41.122M224.922 573.035c-2.868 1.773-8.872 2.237-15.337 1.096-2.854-3.851-11.38-6.52-28.467-7.343 14.034-8.978 28.666-6.692 43.36 2.624 1.925 1.22 3.147 1.953.444 3.623M203.063 555.57l-18.607.789c-6.511.276-19.73-13.75-30.611-21.095 21.736-1.924 38.964 3.128 50.63 17.803 1.017 1.28.587 2.418-1.412 2.502M190.17 505.76c-5.409 12.764 1.955 27.575 16.819 42.208.99-19.796-8.207-34.125-16.82-42.208M168.315 480.848c-1.652 16.586-2.888 32.836 8.378 41.43 8.406-15.493 1.248-29.398-8.378-41.43M132.226 501.97c7.48 8.614 13.243 18.043 20.736 22.15 5.127 2.81 11.94 4.248 19.25 3.475-6.256-15.971-22.19-24.564-39.986-25.625M155.125 451.18c-5.962 13.461-7.27 28.393 2.066 44.213.475-14.797 4.25-20.353 3.833-27.697-.3-5.295-3.11-11.393-5.9-16.515M154.426 420.215c-14.508 17.39-17.103 24.182-12.889 39.99 5.624-13.361 17.059-18.626 12.89-39.99M158.804 389.654c-6.716 8.859-12.63 13.514-15.354 18.25-2.899 5.042-3.601 9.644-3.75 17.278 8.384-9.292 21.09-8.953 19.104-35.528M164.687 363.563c-8.146 7.565-13.992 10.19-17.493 14.385-3.727 4.465-5.528 9.19-7.466 17 10.866-9.414 16.034-9.972 20.54-14.458 3.137-3.123 3.983-9.028 4.418-16.927M176.47 332.523c-6.414 10.186-14.4 10.058-20.397 15.568-4.431 4.071-5.657 5.975-8.15 14.6 10.414-6.94 26.973-5.69 28.546-30.168M203.069 306.474c-8.33 5.648-19.09 4.937-25.434 10.044-3.758 3.026-6.307 6.555-9.766 12.543 14.665-9.478 28.686-2.389 35.2-22.587M239.18 282.158c-9.083 4.324-21.05 1.006-28.09 5.095-4.17 2.422-8.281 5.871-12.92 10.957 7.037-3.131 18.237-2.463 21.786-2.962 5.974-1.356 10.118-3.568 19.224-13.09M268.52 257.225c-6.25 1.68-14.235 2.44-20.667 3.1-5.33.546-9.35.926-12.642 2.589-4.794 2.42-11.614 8.682-16.252 13.768 6.876-2.204 10.331-4.178 14.3-4.953 6.617-1.291 11.606-.473 13.824-.785 5.974-1.355 10.117-3.887 21.436-13.72M121.576 468.55c7.697 15.347 13.572 23.081 30.285 29.537-3.666-13.119-13.892-22.678-30.285-29.538M112.754 430.107c4.05 13.112 6.994 27.314 22.888 36.008-.921-15.036-7.319-24.739-22.888-36.008M120.454 359.326c.21 9.113-.982 11.133 1.127 17.837 2.07 6.577 4.215 7.593 11.823 23.051 2.279-16.93-1.344-31.5-12.95-40.888M131.135 329.622c-.997 18.052.306 25.063 9.526 41.532 4.01-16.608 1.05-30.995-9.526-41.532M147.68 303.732c-1.09 5.632-2.803 12.02-3.52 18.507-.922 8.341 3.189 11.36 5.6 24.137 2.876-7.342 6.283-16.075 6.153-23.422s-3.454-13.651-8.232-19.222M185.09 280.815c-4.247 4.44-8.426 8.307-12.214 13.952-4.294 6.398-5.483 16.16-6.996 25.253 9.824-12.916 21.575-21.205 19.21-39.205M215.618 259.25c-4.77 3.873-10.202 8.123-14.669 13.252-5.063 5.811-5.804 12.064-9.108 21.545 5.915-6.363 11.595-8.653 15.599-13.33 5.851-6.838 8.214-13.357 8.178-21.467M113.619 388.12c2.18 14.668 1.877 24.517 5.35 31.211 3.064 5.908 7.123 9.362 11.978 11.507 2.243.99 1.897-1.056 1.856-1.597-.94-12.17-11.235-28.503-19.184-41.121M267.413 636.855v24.654q.002 2.777.248 3.551.256.763 1.048 1.252c.527.327 1.38.494 2.545.494h.706v.819h-16.231v-.82h.822q1.98-.001 2.816-.447.842-.446 1.133-1.222c.202-.516.303-1.73.303-3.627v-15.624q0-2.097-.21-2.61c-.131-.35-.388-.646-.76-.896a2.3 2.3 0 0 0-1.28-.364c-.776 0-1.715.235-2.824.713l-.404-.804 11.335-5.07zM276.963 668.247v-.622c2.514-.561 4.647-1.396 6.393-2.49 1.754-1.1 3.143-2.45 4.159-4.066 1.024-1.616 1.745-3.475 2.149-5.585-.939.478-1.738.804-2.398.994a7.8 7.8 0 0 1-2.079.273q-3.501.001-5.826-2.466c-1.56-1.647-2.336-3.893-2.336-6.753 0-1.989.427-3.81 1.265-5.464q1.259-2.47 3.6-3.847 2.34-1.365 4.865-1.366c1.807 0 3.506.508 5.112 1.517 1.606 1.002 2.894 2.467 3.849 4.379.954 1.912 1.427 4.09 1.427 6.533q0 4.756-2.328 9.114c-1.551 2.906-3.871 5.236-6.944 6.996-3.08 1.753-6.71 2.701-10.908 2.853m13.042-14.63c.156-1.654.233-3.118.233-4.378 0-2.694-.318-5.206-.962-7.536-.357-1.29-.9-2.238-1.614-2.845-.372-.326-.87-.486-1.474-.486-.76 0-1.35.32-1.77.95-.596.88-.891 2.541-.891 5.007q.002 6.159 1.505 8.491c.651 1.01 1.529 1.51 2.63 1.51.598 0 1.373-.235 2.343-.713M313.964 636.855v24.654q.001 2.777.248 3.551.256.763 1.047 1.252c.528.327 1.38.494 2.545.494h.706v.819h-16.23v-.82h.822q1.978-.001 2.815-.447.841-.446 1.134-1.222c.202-.516.302-1.73.302-3.627v-15.624q0-2.097-.21-2.61c-.131-.35-.387-.646-.76-.896a2.3 2.3 0 0 0-1.28-.364c-.775 0-1.714.235-2.824.713l-.403-.804 11.335-5.07zM323.234 656.266l14.64-19.411h2.778v19.41h2.816v4.6h-2.816v6.76H334.4v-6.76h-11.165zm2.211 0h8.954v-11.891ZM164.125 576.064c7.283 9.251 8.856 17.241 17.505 21.612 3.384 1.71 10.017 3.427 15.913 3.607-6.23-9.475-9.892-15.032-15.118-18.114-5.641-3.328-12.018-5.061-18.3-7.105M124.593 603.428c5.75-4.304 12.117-5.269 18.094-5.733 7.213-.56 14.852 1.387 20.906 6.005-4.136 2.51-7.872 3.887-11.342 4.506-10.411 1.856-15.12-3.776-27.658-4.778M97.045 576.213c8.405-2.334 19.89 2.36 30.774 2.044 4.875-.142 7.123 2.541 8.578 4.513-.532 2.303-2.522 3.552-6.126 4.807-2.82.983-8.132 1.644-12.264.678-2.97-.695-9.988-6.652-20.962-12.042M62.27 518.74c6.292-.415 10.741-.877 15.396 1.957 7.122 4.336 15.822 10.805 19.833 18.675-27.83-6.5-29.332-11.039-35.229-20.631M52.344 485.46c9.374.205 15.103 1.662 19.886 5.71 3.401 2.88 4.843 12.972 12.465 23.495-6.879-4.621-20.575-9.355-22.143-11.803-4.024-6.283-6.512-12.204-10.208-17.402M56.048 435.624c3.904 4.372 8.68 6.076 11.464 12.915 1.35 3.318-.294 14.612 8.345 32.648-6.983-5.076-12.806-13.234-16.242-23.61-2.508-7.57-3.415-16.568-3.567-21.953M56.482 393.29c4.44 5.299 7.87 8.829 9.973 18.211 1.635 7.298 1.472 17.267 3.02 29.522-4.1-6.759-9.314-15.489-11.44-24.99-1.163-5.19-1.56-10.808-1.644-15.522-.05-2.828.013-5.331.091-7.22M76.843 548.716c9.08-.745 17.935-1.433 22.69 1.296 4.032 2.312 11.572 7.032 15.89 13.915-8.317-2.667-17.654-4.757-22.517-5.144-5.091-.405-9.26-3.328-16.063-10.067M156.984 621.238c13.243-13.897 24.268-15.63 38.565-12.65-3.495 6.042-9.617 10.314-14.938 12.015-3.45 1.103-12.62.99-23.627.635M191.863 580.476c12.45 10.925 13.397 21.372 35.321 20.488-8.413-14.798-20.466-19.573-35.32-20.488M186.687 631.1c5.964-8.67 14.658-16.051 22.052-19.768 5.751-2.89 9.671-3.042 17.65-3.23-6.686 8.801-6.499 14.28-14.568 17.928-8.59 3.885-12.83-.142-25.134 5.07M106.018 507.514c2.551 11.172-.508 20.11.02 25.788.532 5.718 3.633 14.185 8.892 20.74-.661-5.609-.24-11.763.156-16.24.94-10.608 2.094-17.923-9.068-30.288M89.205 477.494c5.332 18.788-5.128 37.608 8.308 49.733-.87-6.448.753-17.216.944-25.723.216-9.642-2.019-18.056-9.252-24.01M83.012 436.47c-.345 14.153-7.844 31.703-.988 48.132 3.374-15.799 12.001-36.576.988-48.132M86.719 385.362c-3.536 9.25-10.082 19.063-11.49 27.98-1.166 7.387.04 15.607 2.557 22.972.849-15.965 12.72-34.542 8.933-50.952M82.812 344.747c-4.244 12.22-10.95 22.654-12.257 28.204-1.315 5.59-1.65 16.879.743 30.094 5.422-24.769 8.423-25.158 10.79-32.15 2.32-6.85 1.023-17.048.724-26.149M123.147 536.113c3.6 12.372.627 16.154 2.206 21.633 1.59 5.518 5.182 9.787 10.535 15.106-2.14-13.562 4.824-20.94-12.741-36.739M141.851 557.25c4.91 12.855 3.245 18.398 6.06 23.356 2.837 4.992 8.759 10.609 15.03 13.568-8.841-15.42-.443-22.56-21.09-36.923M432.502 574.473c-7.283 9.251-8.856 17.241-17.505 21.613-3.384 1.71-10.018 3.427-15.913 3.606 6.23-9.475 9.892-15.031 15.118-18.114 5.64-3.328 12.018-5.061 18.3-7.105M472.034 601.837c-5.75-4.304-12.118-5.269-18.094-5.733-7.214-.56-14.852 1.387-20.906 6.005 4.136 2.51 7.872 3.887 11.342 4.506 10.41 1.856 15.12-3.776 27.658-4.778M499.582 574.622c-8.405-2.334-19.891 2.36-30.774 2.044-4.875-.142-7.124 2.541-8.578 4.513.532 2.304 2.522 3.552 6.126 4.808 2.82.983 8.132 1.643 12.264.677 2.97-.695 9.988-6.652 20.962-12.042M534.357 517.15c-6.293-.415-10.742-.878-15.397 1.956-7.121 4.336-15.821 10.805-19.833 18.676 27.83-6.501 29.333-11.04 35.23-20.632M544.282 483.869c-9.374.205-15.102 1.662-19.886 5.71-3.4 2.88-4.842 12.972-12.465 23.495 6.88-4.621 20.576-9.355 22.144-11.803 4.023-6.283 6.511-12.204 10.207-17.402M540.58 434.033c-3.906 4.372-8.682 6.077-11.466 12.916-1.35 3.317.295 14.611-8.344 32.647 6.983-5.076 12.805-13.234 16.242-23.609 2.508-7.57 3.414-16.57 3.567-21.954M540.144 391.7c-4.439 5.298-7.87 8.828-9.972 18.21-1.635 7.298-1.473 17.267-3.02 29.522 4.1-6.759 9.313-15.488 11.44-24.99 1.162-5.19 1.56-10.808 1.644-15.522.05-2.828-.013-5.33-.092-7.22M519.784 547.125c-9.08-.745-17.935-1.432-22.69 1.296-4.032 2.313-11.572 7.032-15.89 13.915 8.317-2.666 17.653-4.757 22.517-5.144 5.09-.405 9.26-3.328 16.063-10.067M439.643 619.648c-13.243-13.897-24.268-15.631-38.565-12.65 3.494 6.04 9.617 10.313 14.937 12.014 3.45 1.104 12.62.99 23.628.636M404.764 578.885c-12.45 10.926-13.397 21.373-35.322 20.488 8.414-14.797 20.467-19.573 35.322-20.488M409.94 629.51c-5.964-8.671-14.658-16.052-22.052-19.769-5.751-2.89-9.672-3.042-17.65-3.23 6.686 8.801 6.498 14.28 14.568 17.929 8.59 3.884 12.83-.143 25.134 5.07M490.609 505.923c-2.551 11.173.508 20.11-.02 25.788-.533 5.718-3.634 14.185-8.892 20.74.66-5.609.24-11.762-.156-16.24-.94-10.608-2.094-17.923 9.068-30.288M507.422 475.903c-5.332 18.789 5.128 37.609-8.308 49.733.87-6.447-.753-17.216-.944-25.723-.217-9.642 2.019-18.056 9.252-24.01M513.615 434.88c.345 14.152 7.844 31.703.987 48.132-3.374-15.8-12-36.577-.987-48.133M509.908 383.77c3.535 9.25 10.082 19.064 11.49 27.98 1.165 7.388-.04 15.608-2.557 22.973-.85-15.965-12.72-34.542-8.933-50.952M513.815 343.156c4.244 12.22 10.95 22.654 12.256 28.204 1.316 5.59 1.651 16.88-.742 30.094-5.422-24.769-8.423-25.158-10.79-32.15-2.32-6.85-1.023-17.048-.724-26.148M473.48 534.522c-3.601 12.372-.627 16.154-2.206 21.633-1.59 5.518-5.182 9.787-10.535 15.106 2.14-13.562-4.824-20.94 12.741-36.739M454.775 555.66c-4.909 12.854-3.244 18.397-6.06 23.355-2.836 4.992-8.758 10.609-15.029 13.568 8.84-15.42.443-22.56 21.09-36.923M89.278 299.876a9.67 9.67 0 0 1 9.67 9.67 9.67 9.67 0 1 1-9.67-9.67M502.354 297.225a9.67 9.67 0 0 1 9.67 9.669 9.67 9.67 0 1 1-9.67-9.67M358.389 174.713l-5.121 19.874 8.22 2.183c4.002 1.061 6.914 1.527 8.713 1.4 1.798-.128 3.13-.91 4.01-2.32l.99-1.588c.957-1.533 1.712-1.965 2.989-1.63 1.408.369 1.98 1.787 1.594 3.24-1.224 4.595-1.525 8.984-2.006 13.437-.209 1.936-1.367 2.491-2.83 2.108-1.22-.319-1.625-1.16-1.837-2.459-.353-2.166-.863-3.635-3.409-5.428-1.305-.92-4.347-1.992-9.116-3.258l-8.22-2.182-3.83 14.863c-.926 3.594-1.019 5.92-.279 7 .746 1.088.36 1.698 4.968 3.57l3.143 1.277c1.142.463 1.621 1.03 1.428 1.778q-.147.568-.955.826a2.85 2.85 0 0 1-1.618.05c-.45-.117-1.29-.39-2.553-.841l-3.438-1.228c-3.341-1.195-4.338-1.655-9.13-2.916-4.038-1.062-8.012-2.036-11.947-2.701l-3.337-.564a29 29 0 0 1-2.567-.55c-.658-.173-1.201-.485-1.61-.915-.428-.447-.58-.867-.475-1.274.206-.8 1.24-1.07 3.093-.866l3.2.353c2.282.252 2.911-.21 3.923-.934 1.004-.718 1.799-2.23 2.394-4.54l8.278-32.125c.62-2.568.886-4.375.81-5.405-.18-1.013-.585-1.778-1.227-2.326-.645-.534-2.175-1.372-4.594-2.5l-2.373-1.074c-1.054-.501-1.478-1.118-1.286-1.865q.395-1.535 2.934-.866l10.243 3.4 45.97 12.15c2.109.398 2.494.546 2.167 2.455l-1.387 8.085c-.279 1.626-.558 2.975-2.554 2.46-2.147-.556-2.025-2.66-2.646-4.416-1.348-3.812-3.546-5.253-7.045-6.969-3.106-1.523-5.652-2.545-16.66-5.446zM292.906 204.02c-7.853 10.825-18.355 17.006-31.149 19.094-12.046 1.966-24.224.86-32.298-2.61q-11.744-5.05-14.073-16.219c-1.07-5.132-.42-10.232 1.95-15.312 2.616-5.604 7.271-11.216 14.264-15.332 9.184-5.407 18.292-7.748 26.323-8.413 5.147-.426 5.836-.165 11.922.376 1.2.106 7.047 1.38 8.24.855 1.533-.675 1.532-3.183 3.037-3.592 4.214-1.146 4.02 1.435 4.993 4.232l3.258 9.359c.49 1.408.01 2.291-1.568 2.62-1.162.243-2.678-1.434-3.565-2.167-9.498-7.847-19.719-9.509-28.992-7.575-7.438 1.552-13.293 4.124-18.465 10.208-2.941 3.46-5.784 9.443-4.126 17.393 1.707 8.182 7.92 14.933 15.061 17.892 5.433 2.252 11.935 3.114 18.342 1.967 10.804-1.934 16.79-7.248 24.237-14.868 1.428-1.461 4.67-.748 2.61 2.092M463.813 285.451c-13.374.04-24.559-4.797-33.789-13.898-8.691-8.57-14.979-19.058-16.937-27.626q-2.847-12.462 4.8-20.93c3.514-3.89 8.017-6.372 13.518-7.453 6.069-1.192 13.346-.741 20.793 2.48 9.783 4.23 17.044 10.205 22.317 16.298 3.379 3.906 3.575 4.617 6.726 9.85.622 1.033 3.04 6.507 4.168 7.16 1.45.84 3.474-.639 4.692.335 3.41 2.728 1.212 4.093-.474 6.528l-5.637 8.15c-.848 1.226-1.845 1.36-3.041.279-.881-.796-.42-3.009-.352-4.157.737-12.298-3.947-21.533-10.977-27.882-5.64-5.092-11.17-8.305-19.133-8.894-4.53-.335-11.037.896-16.48 6.923-5.602 6.204-7.39 15.203-5.57 22.715 1.385 5.715 4.522 11.475 9.227 15.973 7.933 7.585 15.754 9.287 26.3 10.808 2.022.292 3.357 3.33-.151 3.341M179.19 235.989l-20.385-20.88c-.949-.972-1.536-1.468-1.642-1.57-1.115-1.078-2.068-1.576-2.885-1.501-.814.074-2.26.713-4.287 2.12l-2.966 2.056c-1.638 1.136-2.75 1.376-3.276.845-.334-.338-.398-.814-.199-1.438.224-.628.645-1.234 1.303-1.836.306-.28.575-.509.793-.671l2.423-1.795a86 86 0 0 0 6.716-5.557c1.101-1.009 3.645-2.793 6.207-6.16l.82-1.079c.957-1.257 1.766-1.78 1.889-1.893.474-.434.994-.706 1.529-.81.56-.11.969-.023 1.246.257.603.609.356 1.625-.769 3.023l-1.686 2.096c-1.99 2.473-1.381 2.823-1.393 3.83-.01.996 1.001 2.53 2.83 4.772l28.785 35.316c.652.799.723 1.437.187 1.927-.26.238-1.047.475-2.298.595l-71.826 6.904c-1.433.137-3.742.167-6.92.02l21.058 21.526c1.044 1.066 1.832 1.713 2.223 2.07 1.896 1.725 2.958 2.723 3.216 2.984 1.298 1.37 2.61 2.047 3.941 2.007q1.995-.06 5.1-2.183l2.508-1.707c1.765-1.192 2.966-1.481 3.588-.854.296.3.355.742.183 1.305-.163.572-.532 1.113-1.067 1.602-.29.266-.81.686-1.525 1.23l-2.97 2.241c-2.634 2.024-4.85 3.85-6.67 5.516-1.775 1.624-3.499 3.199-4.89 4.899l-1.344 1.643c-1.107 1.353-1.89 2.098-2.134 2.322-1.637 1.498-2.855 1.858-3.639 1.066-.583-.589-.204-1.605 1.039-3.104l1.515-1.828c2.124-2.564 2.15-3.855 1.638-5.263-.516-1.417-2.687-4.663-7.83-10.733l-13.467-15.895-1.256-1.446-3.59-3.892c-1.325-1.437-2.57-2.032-3.543-1.93s-1.54.03-4.109 1.868l-2.491 1.783c-2.029 1.452-3.379 1.86-4 1.232q-1.004-1.014 1.153-2.989c.138-.126.254-.244.352-.322l2.589-2.038c2.62-2.063 3.536-2.798 5.158-4.283 2.387-2.184 5.342-5.132 8.097-8.097l1.37-1.474c.129-.14.23-.267.322-.35.215-.197.637-.337 1.249-.39l58.778-4.974c1.861-.158 3.646-.263 5.252-.113" style="fill:#000200;fill-rule:evenodd" data-source="https://football-logos.cc"></path><!-- source: https://football-logos.cc --></svg>