<svg xmlns="http://www.w3.org/2000/svg" viewBox="0.73 0.84 90.92 92.74"><!-- Source: https://football-logos.cc --><defs data-source="https://football-logos.cc"><clipPath id="a" transform="translate(-3.91 -2.05)"><path d="m71.58 63.39-.19 3.89-3.83-.12-.7 1.38-4.42 2.99-6 2.62-8.82.68-8.18-2.2-6.29-4.31-.64-1.43-3.96.48-.22-3.65 21.77-2.66z" class="a"></path></clipPath><style>.a{fill:none}.d,.g,.h{stroke:#1d1d1b}.c{fill:#1d1d1b}.d,.g,.h{fill:#e30613;stroke-width:.5px}.d{stroke-linecap:round;stroke-linejoin:round}.f{fill:#c6c6c6}.g{fill-rule:evenodd}</style></defs><path d="M0 0h92.37v94.27H0z" class="a"></path><path d="M5.15 48.35a44.95 44.95 0 1 1 45 44.95 44.94 44.94 0 0 1-45-44.95Z" style="fill:#fff;stroke:#1d1d1b;stroke-miterlimit:11.47;stroke-width:1.02px" transform="translate(-3.91 -2.05)"></path><path d="M70.57 53.87c-16.06 4.19-38.18 1.62-49.56-1.13 2.94 4.5 5 6.49 7.16 8.06a23.6 23.6 0 0 1 5.92-.56c5.94 0 5.9 1 11.91 1s6.19-.85 12-.85a31.8 31.8 0 0 1 6.7.54c3.09-2.38 3.69-3.98 5.87-7.06" class="c"></path><path d="M57.76 56.43c-.19-8.28-.37-35.3-.37-35.56s-.63-.38-.63 0V56.3c0 .51 1 .13 1 .13M36.58 55.76c-.19-7.17-.38-30.57-.38-30.79s-.62-.34-.62 0v30.68c0 .44 1 .11 1 .11M47.09 56.46c-.18-10.33-.37-44-.37-44.34s-.62-.48-.62 0V56.3c-.01.65.99.16.99.16" class="c"></path><path d="M46.46 15.26c-2.22-1.61-3.74-1.7-4.5-1.44s-2.7 1.06-4.07 4.77-3 4.57-5.33 3.9c1.17 1.67 2.84 1.58 4.45 1 .93-.32 3.42-3.48 5.33-3.51a5.85 5.85 0 0 1 4 2c-2.19-4.03.12-6.72.12-6.72" class="c"></path><path d="M64.81 27.4c-3.72.22-13.49 1.21-16.36 1.55-3.51 3.22-4 9.49-1 13.6 5.71-3.87 13.53-3.68 19.44-1.4-3.93-5.14-3.97-10.2-2.08-13.75" class="d"></path><path d="M68.3 40.95c-3.69.23-14.26 1.22-17.13 1.57-3.71 2.39-4.31 9.6.5 12.81.54-4.5 8.74-3.5 16.84-.5-3.93-5.12-3.42-10.45-.21-13.88M55.48 23.37c-4.74.34-12.94.87-15.81 1.22-3.51 3.22-2.87 11.48 1.42 15.26 5.7-3.86 9.92-3.75 16.91.09-5.39-5.24-4.91-13.26-2.52-16.57" class="d"></path><path d="M43.09 28.22c-4.3.33-11 .77-13.91 1.12-3.22 2.46-2.92 9.07 1.09 11.06-.65-4.07 6.23-3.6 15-.35-3.37-4.74-3.58-7.96-2.18-11.83M57 39.08c-3.69.22-14.14 1.25-17 1.6-3.71 2.39-5.21 9.78.36 13.41 5.34-4.14 9.19-4.1 18.54.4-3.94-5.16-4.65-11.1-1.9-15.41" class="d"></path><path d="M43.09 38.75c-4.3.33-15.29.76-18.16 1.11-4.31 2.35-2.6 11.63 3.83 14.88-1-4.71 8.94-6.92 17.83.07-3.37-4.74-6.6-11.1-3.5-16.06" class="d"></path><path d="m30.11 54.51-3.94-.67 2.36 2.12z" class="c"></path><g style="clip-path:url(#a)"><path d="M51.84 61.53a32.3 32.3 0 0 1-6.25.52 30.5 30.5 0 0 1-6.11-.52 28.6 28.6 0 0 0-5.69-.5 30.3 30.3 0 0 0-5.7.49 32.8 32.8 0 0 1-6.42.53v3a35.5 35.5 0 0 0 6.91-.57 27.5 27.5 0 0 1 5.21-.45 25.7 25.7 0 0 1 5.18.46 33.2 33.2 0 0 0 6.62.56 35 35 0 0 0 6.74-.56 28.7 28.7 0 0 1 5.42-.46 36.5 36.5 0 0 1 6.14.51 35 35 0 0 0 5.89.51v-3a31.4 31.4 0 0 1-5.44-.48 40 40 0 0 0-6.59-.54 31.7 31.7 0 0 0-5.91.5" class="f"></path><path d="M51.84 65.25a33.3 33.3 0 0 1-6.25.51 30.7 30.7 0 0 1-6.11-.51 28.5 28.5 0 0 0-5.69-.51 29.3 29.3 0 0 0-5.7.5 34 34 0 0 1-6.42.52v3a36.5 36.5 0 0 0 6.91-.56 26.5 26.5 0 0 1 5.21-.46 25.7 25.7 0 0 1 5.18.46 32.5 32.5 0 0 0 6.62.56 36 36 0 0 0 6.74-.55 28.5 28.5 0 0 1 5.42-.47 36.5 36.5 0 0 1 6.14.51 35 35 0 0 0 5.89.51v-3a32.6 32.6 0 0 1-5.44-.47 38.5 38.5 0 0 0-6.59-.55 31.5 31.5 0 0 0-5.91.51" class="f"></path><path d="M51.84 69.1a33.3 33.3 0 0 1-6.25.51 30.7 30.7 0 0 1-6.11-.51 28.6 28.6 0 0 0-5.69-.5 30.3 30.3 0 0 0-5.7.49 33 33 0 0 1-6.42.52v3a35.7 35.7 0 0 0 6.91-.56 27.5 27.5 0 0 1 5.21-.45 25.7 25.7 0 0 1 5.18.46 33.5 33.5 0 0 0 6.62.55 36 36 0 0 0 6.74-.55 28.7 28.7 0 0 1 5.42-.46 36.5 36.5 0 0 1 6.14.51 35 35 0 0 0 5.89.5v-3a31.5 31.5 0 0 1-5.44-.47 38.7 38.7 0 0 0-6.59-.54 31.7 31.7 0 0 0-5.91.5" class="f"></path></g><path d="M67.32 13.43c1.14-1.36.13-3-1.07-4.42-1.63-1.93-6-1-8-3-.27 3.5 3.32 5 4.5 6.22s3.26 2.72 4.57 1.2Z" class="g"></path><path d="M65.88 14.95c-.37 1.73-1.7 2.18-3.56 2.06-4.53-.27-3.84-4.32-7-4.43 2.15-2 5.79-.48 7.47-.3s3.52.67 3.09 2.67Z" class="g"></path><path d="M66.46 14.02c.47-.92-1-3.08-2.51-3.82s-7-1.63-9.53-2c2.18 2 5.9 5.54 7.42 6.27s4.15.48 4.62-.45Z" class="h"></path><path d="M73.65 18.69c1.4-1.18.56-2.89-.41-4.54-1.31-2.24-3.94-1.6-5.57-4.44-1.66 3.14.51 5.68 1.48 7.13s2.94 3.19 4.5 1.85Z" class="g"></path><path d="M71.83 20.08c-.69 1.7-2.11 1.87-4 1.46-2.52-.59-2.74-3.26-5.92-3.93 2.47-2.54 5.55-1.27 7.23-.79s3.48 1.32 2.69 3.26Z" class="g"></path><path d="M72.58 19.27c.63-.84-.47-3.3-1.88-4.32s-4.67-1.93-7.19-2.31c1.08 2.36 2.88 5.24 4.3 6.25s4.12 1.24 4.77.38Z" class="h"></path><path d="M79.41 26.32c1.78-.88 1.15-3.41.56-5.4-.81-2.7-3.76-2.69-4.74-6.11-2.55 2.89-.92 6.12-.26 7.89s2.4 4.63 4.44 3.62Z" class="g"></path><path d="M76.96 26.81c-1.17 1.61-2.71 1.44-4.58.52-2.53-1.23-2.05-4.14-5.25-5.67 3.25-2 6.18.09 7.83 1s3.32 2.29 2 4.15Z" class="g"></path><path d="M77.95 26.15c.89-.73.36-3.6-.87-5s-4.43-3.23-7-4.28c.54 2.77 1.69 6.27 2.93 7.7s4.08 2.38 4.94 1.58Z" class="h"></path><path d="M82.34 36.48c2.18-.27 2.43-3 2.55-5.3.16-3.11-2.92-4.2-2.68-8.12-3.72 2.06-3.22 6-3.19 8.13s.82 5.59 3.32 5.29Z" class="g"></path><path d="M79.57 36.2c-1.81 1.25-3.35.5-5-1.14-2.18-2.23-.6-5.08-3.37-7.86 4.15-.92 6.41 2.38 7.77 4s2.67 3.57.6 5Z" class="g"></path><path d="M80.85 35.88c1.2-.43 1.7-3.61 1-5.57s-3.42-5-5.7-7c-.47 3.09-.56 7.16.21 9.11s3.28 3.91 4.49 3.46Z" class="h"></path><path d="M83.09 48.35c2.45.22 3.73-3.16 4.4-5.66.9-3.38-2.22-5.29-1.05-9.54-4.56 1.39-4.95 5.87-5.4 8.17s-.77 6.77 2.05 7.03Z" class="g"></path><path d="M80.47 46.95c-2.28 1-3.8-.24-5.18-2.43-1.87-2.95.53-5.71-1.86-9.41 4.77 0 6.48 4.12 7.6 6.18s2.06 4.58-.56 5.66Z" class="g"></path><path d="M81.95 46.95c1.41-.19 2.72-3.57 2.36-5.9s-2.59-6.33-4.61-9.1c-1.23 3.28-2.29 7.73-1.91 10s2.72 5.16 4.16 5Z" class="h"></path><path d="M78.72 60.95c2.39 1.2 5.1-1.9 6.77-4.15 2.26-3.05-.13-6.22 2.75-10-5.17-.42-7.33 4-8.72 6.09s-3.54 6.67-.8 8.06Z" class="g"></path><path d="M76.7 58.3c-3.16.84-3.73-1.75-4.26-4.51-.71-3.72 2.81-5.55 1.88-10.24 4.83 1.86 4.9 6.74 5.21 9.27s.14 4.7-2.83 5.48Z" class="g" data-source="https://football-logos.cc"></path><path d="M78.22 58.84c1.5.37 4.17-2.52 4.73-5s-.1-7.39-1-11c-2.55 2.82-5.38 6.89-5.92 9.38s.66 6.25 2.19 6.62Z" class="h"></path><path d="M71.93 70.19c1.93 2 4 1.42 6.39-.22 3.22-2.21 2-6.1 6-8.85-4.88-2.14-8.46 1.39-10.53 3s-4.06 3.83-1.86 6.07Z" class="g"></path><path d="M69.26 68.5c-2.63-.85-3-3-2.64-5.82.56-3.86 4.6-4.46 5.26-9.34 4.08 3.43 2.51 8.2 2 10.77s-1.62 5.36-4.62 4.39Z" class="g"></path><path d="M70.55 69.53c1.34.87 4.91-1 6.29-3.28s2.38-7.23 2.68-11.06c-3.43 1.89-7.56 4.91-8.92 7.15s-1.41 6.32-.05 7.19Z" class="h"></path><path d="M24.97 13.43c-1.14-1.36-.13-3 1.07-4.42 1.63-1.93 6-1 8-3 .27 3.5-3.32 5-4.49 6.22s-3.27 2.72-4.58 1.2Z" class="g"></path><path d="M26.41 14.95c.37 1.73 1.7 2.18 3.56 2.06 4.53-.27 3.85-4.32 7-4.43-2.15-2-5.79-.48-7.47-.3s-3.52.67-3.09 2.67Z" class="g"></path><path d="M25.83 14.02c-.47-.92 1-3.08 2.51-3.82s7-1.63 9.53-2c-2.18 2-5.89 5.54-7.42 6.27s-4.15.48-4.62-.45Z" class="h"></path><path d="M18.64 18.69c-1.4-1.18-.56-2.89.41-4.54 1.31-2.24 3.95-1.6 5.57-4.44 1.66 3.14-.51 5.68-1.48 7.13s-2.9 3.19-4.5 1.85Z" class="g"></path><path d="M20.46 20.08c.69 1.7 2.11 1.87 4 1.46 2.53-.55 2.73-3.26 5.93-3.93-2.47-2.54-5.55-1.27-7.23-.79s-3.48 1.32-2.7 3.26Z" class="g"></path><path d="M19.72 19.27c-.63-.84.46-3.32 1.87-4.32s4.67-1.93 7.19-2.31c-1.08 2.36-2.88 5.24-4.3 6.25s-4.12 1.24-4.76.38Z" class="h"></path><path d="M12.88 26.32c-1.79-.88-1.15-3.37-.56-5.37.77-2.73 3.77-2.72 4.77-6.14 2.54 2.89.91 6.12.26 7.89s-2.43 4.63-4.47 3.62Z" class="g"></path><path d="M15.34 26.81c1.16 1.61 2.7 1.44 4.57.52 2.53-1.23 2.05-4.14 5.25-5.67-3.25-2-6.18.09-7.83 1s-3.32 2.29-1.99 4.15Z" class="g"></path><path d="M14.34 26.15c-.89-.73-.36-3.6.87-5s4.43-3.23 7-4.28c-.54 2.77-1.69 6.27-2.93 7.7s-4.04 2.38-4.94 1.58Z" class="h"></path><path d="M9.95 36.48c-2.18-.27-2.43-3-2.55-5.3-.16-3.11 2.92-4.2 2.69-8.12 3.72 2.06 3.21 6 3.18 8.13s-.82 5.59-3.32 5.29Z" class="g"></path><path d="M12.72 36.2c1.81 1.25 3.35.5 5-1.14 2.18-2.23.6-5.08 3.38-7.86-4.15-.92-6.42 2.38-7.78 4s-2.67 3.57-.6 5Z" class="g"></path><path d="M11.44 35.88c-1.2-.43-1.7-3.61-1-5.57s3.42-5 5.7-7c.47 3.09.56 7.16-.2 9.11s-3.29 3.91-4.5 3.46Z" class="h"></path><path d="M9.2 48.35c-2.45.22-3.73-3.16-4.39-5.66-.91-3.38 2.21-5.29 1-9.54 4.57 1.39 5 5.87 5.41 8.17s.8 6.77-2.02 7.03Z" class="g"></path><path d="M11.83 46.95c2.27 1 3.79-.24 5.18-2.43 1.87-2.95-.54-5.71 1.85-9.41-4.77 0-6.48 4.12-7.6 6.18s-2.04 4.58.57 5.66Z" class="g"></path><path d="M10.34 46.95c-1.41-.19-2.72-3.57-2.36-5.9s2.59-6.33 4.61-9.1c1.23 3.28 2.29 7.73 1.91 10s-2.72 5.16-4.16 5Z" class="h"></path><path d="M13.58 60.95c-2.39 1.2-5.11-1.9-6.78-4.15-2.25-3.05.13-6.22-2.74-10 5.16-.42 7.33 4 8.71 6.09s3.54 6.67.81 8.06Z" class="g"></path><path d="M15.59 58.3c3.16.84 3.73-1.75 4.26-4.51.71-3.72-2.81-5.55-1.88-10.24-4.83 1.86-4.89 6.74-5.21 9.27s-.13 4.7 2.83 5.48Z" class="g"></path><path d="M14.09 58.84c-1.5.37-4.16-2.52-4.73-5s.1-7.39 1-11c2.55 2.82 5.38 6.89 5.93 9.38s-.69 6.25-2.2 6.62Z" class="h"></path><path d="M20.36 70.19c-1.92 2-4 1.42-6.39-.22-3.21-2.21-2-6.1-6-8.85 4.89-2.14 8.46 1.39 10.53 3s4.06 3.83 1.86 6.07Z" class="g"></path><path d="M23.03 68.5c2.63-.85 3-3 2.64-5.82-.56-3.86-4.6-4.46-5.26-9.34-4.08 3.43-2.51 8.2-2 10.77s1.62 5.36 4.62 4.39Z" class="g"></path><path d="M21.74 69.53c-1.34.87-4.9-1-6.29-3.28s-2.36-7.23-2.68-11.06c3.43 1.89 7.56 4.91 8.92 7.15s1.4 6.32.05 7.19Z" class="h"></path><path d="M67.43 68.05A26.16 26.16 0 0 1 32.7 68L19.19 83.36a46.59 46.59 0 0 0 61.72.07Z" style="fill:#fff" transform="translate(-3.91 -2.05)"></path><path d="M67.43 68.05A26.16 26.16 0 0 1 32.7 68L19.19 83.36a46.59 46.59 0 0 0 61.72.07Z" style="fill:none;stroke:#1d1d1b;stroke-width:1.1px" transform="translate(-3.91 -2.05)"></path><path d="M30.09 74.74s0-.36-.14-.66a2.5 2.5 0 0 0-.76-.77 1.83 1.83 0 0 0-1.26-.36 1.65 1.65 0 0 0-1.08.77 1.6 1.6 0 0 0-.26 1.23 1.7 1.7 0 0 0 .82 1.06 2.6 2.6 0 0 0 .72.34 2.5 2.5 0 0 0 .75.08.3.3 0 0 0 .16 0 .18.18 0 0 0 .09-.08.2.2 0 0 0 0-.08v-.09h.14l-.18 2.12h-.14a2 2 0 0 0 0-.16v-.07h-.25a4.1 4.1 0 0 1-2.1-.64 3.2 3.2 0 0 1-1.5-2 3.65 3.65 0 0 1 2.56-4 2.94 2.94 0 0 1 2.39.47 4.1 4.1 0 0 1 1.09 1q.47.63.48.63a.3.3 0 0 0 .12 0 .7.7 0 0 0 .19-.06l.06.11-1.76 1.26ZM35.25 79.81a.21.21 0 0 0 .19 0 .55.55 0 0 0 .17-.19h.13l-.77 1.94h-.13a.6.6 0 0 0 0-.26.28.28 0 0 0-.15-.13l-4.42-1.76.06-.15a.33.33 0 0 0 .22 0 .47.47 0 0 0 .13-.21l1.95-4.88a.5.5 0 0 0 .06-.22.4.4 0 0 0-.14-.17l.06-.16 1.77.7-.07.16a.4.4 0 0 0-.23 0 .5.5 0 0 0-.13.2l-1.59 4ZM39.77 76.63a2 2 0 0 0 .15-.18.6.6 0 0 0 .07-.13.14.14 0 0 0 0-.11.15.15 0 0 0-.09-.06h-.06V76l1.76.43v.15a1.7 1.7 0 0 0-.35.28l-.06.06-2.34 2.51-.52 2.14a.55.55 0 0 0 0 .24.37.37 0 0 0 .17.15v.17l-1.86-.45v-.17a.35.35 0 0 0 .21-.06c.05 0 .08-.11.11-.22l.46-1.9-.95-3.49a.5.5 0 0 1 0-.09.8.8 0 0 0-.27-.5v-.16l2.06.51v.15a.23.23 0 0 0-.12 0 .15.15 0 0 0-.06.09.16.16 0 0 0 0 .1v.24l.43 1.77ZM44.49 76.59a5 5 0 0 1 1.39.23 2.2 2.2 0 0 1 .83.59 2.7 2.7 0 0 1 .55 1.07 4.3 4.3 0 0 1 .14 1.4 4.6 4.6 0 0 1-.28 1.4 2.54 2.54 0 0 1-.66 1 2.14 2.14 0 0 1-.89.5 4.8 4.8 0 0 1-1.41.09l-2.59-.13v-.17a.34.34 0 0 0 .2-.1.5.5 0 0 0 .06-.24l.26-5.28a.7.7 0 0 0 0-.24.44.44 0 0 0-.19-.12v-.14Zm-1 1.39-.17 3.39h.93a1.64 1.64 0 0 0 1.26-.34 1.82 1.82 0 0 0 .46-1.28 1.84 1.84 0 0 0-.32-1.3 1.7 1.7 0 0 0-1.23-.47ZM52.6 80.95a.3.3 0 0 0 .17-.08.45.45 0 0 0 .07-.26h.14l.26 2.08h-.15a.5.5 0 0 0-.12-.23.3.3 0 0 0-.2 0l-4.5.57v-.18a.35.35 0 0 0 .17-.12.45.45 0 0 0 0-.25l-.66-5.22a.5.5 0 0 0-.07-.24.4.4 0 0 0-.21-.09v-.15l4.52-.57a.2.2 0 0 0 .17-.09.5.5 0 0 0 0-.26h.15l.26 2.09h-.14a.5.5 0 0 0-.12-.23.21.21 0 0 0-.18 0l-2.84.23.11.88 1.73-.22a.25.25 0 0 0 .18-.08.6.6 0 0 0 .07-.25h.12l.25 1.94h-.13a.6.6 0 0 0-.13-.23.27.27 0 0 0-.19 0l-1.73.21.13 1.07ZM57.77 81.16l-.06-.16a.3.3 0 0 0 .13-.17.4.4 0 0 0 0-.24l-2-4.87a.38.38 0 0 0-.13-.2.34.34 0 0 0-.22 0l-.06-.16 4.32-1.76a.24.24 0 0 0 .15-.12.47.47 0 0 0 0-.26l.13-.06.78 1.94h-.12a.7.7 0 0 0-.18-.19.22.22 0 0 0-.19 0l-2.83 1.17.41 1 1.82-.74a.27.27 0 0 0 .16-.13.47.47 0 0 0 0-.26h.13l.74 1.81h-.13a.7.7 0 0 0-.18-.19.25.25 0 0 0-.2 0l-1.83.74.68 1.75c0 .1.08.17.13.19a.36.36 0 0 0 .23 0l.06.16ZM65.24 72.84c-.09-.15-.31-.2-.66-.16a2.3 2.3 0 0 0-1 .37 1.77 1.77 0 0 0-.86 1.08 1.6 1.6 0 0 0 .24 1.29 1.62 1.62 0 0 0 1 .78 1.73 1.73 0 0 0 1.31-.3 2.28 2.28 0 0 0 1-1.15.5.5 0 0 0 0-.16.3.3 0 0 0 0-.12v-.06l-.07-.08v-.13l1.89 1.05-.07.13h-.15a.13.13 0 0 0-.09 0 .6.6 0 0 0-.13.2 3.94 3.94 0 0 1-1.47 1.63 3.12 3.12 0 0 1-2.48.5 3.2 3.2 0 0 1-2-1.55 3.3 3.3 0 0 1-.61-2.47 3 3 0 0 1 1.44-2 4.2 4.2 0 0 1 1.39-.56l.78-.16a.23.23 0 0 0 .08-.11.8.8 0 0 0 0-.19h.13l.41 2.14ZM22.39 81.37a.33.33 0 0 0-.06.15.22.22 0 0 0 .06.13l-.05.08-.69-.46.05-.07a.3.3 0 0 0 .14 0 .26.26 0 0 0 .11-.12l1.94-3a.5.5 0 0 0 .07-.15.22.22 0 0 0-.06-.13v-.07l2.34 1.52a.2.2 0 0 0 .12 0 .3.3 0 0 0 .14-.1h.07l-.5.76.02.04a.27.27 0 0 0 0-.16s0-.06-.08-.1l-1.77-1.15-.69 1 1.17.77a.24.24 0 0 0 .13 0 .4.4 0 0 0 .13-.09h.06l-.5.76h-.05a.24.24 0 0 0 0-.15s0-.07-.09-.1l-1.17-.77ZM26.71 84.37a1.72 1.72 0 0 1-.93-1.17 2.26 2.26 0 0 1 .22-1.63 2.37 2.37 0 0 1 1.18-1.14 1.84 1.84 0 0 1 2.44 1.25 2.52 2.52 0 0 1-1.41 2.76 1.72 1.72 0 0 1-1.5-.07m-.23-2.54a1.7 1.7 0 0 0-.19 1.2 1.27 1.27 0 0 0 .68.84 1.22 1.22 0 0 0 1.12.08 1.75 1.75 0 0 0 .86-.86 1.78 1.78 0 0 0 .14-1.22 1.2 1.2 0 0 0-.68-.84 1.23 1.23 0 0 0-1.07-.08 1.75 1.75 0 0 0-.86.88M30.36 84.24l.78-2.12a.27.27 0 0 0 0-.16.24.24 0 0 0-.09-.12v-.08l.79.3v.07a.2.2 0 0 0-.14 0 .34.34 0 0 0-.08.14l-.79 2.12a1.14 1.14 0 0 0-.05.86 1.1 1.1 0 0 0 .67.53 1.08 1.08 0 0 0 .84 0 1.22 1.22 0 0 0 .53-.7l.78-2.12a.26.26 0 0 0 0-.16.2.2 0 0 0-.08-.12v-.07l.78.29v.07a.18.18 0 0 0-.14 0 .33.33 0 0 0-.09.14l-.78 2.12a1.84 1.84 0 0 1-.8 1.07 1.6 1.6 0 0 1-1.28-.06 1.64 1.64 0 0 1-1-.79 1.77 1.77 0 0 1 .15-1.21M37.09 88v-.05h.11a.12.12 0 0 0 0-.08v-.06a.13.13 0 0 0 0-.06l-1.43-3.58-.68 3.02a.3.3 0 0 0 0 .16s.05.06.1.1v.09l-.7-.17v-.09a.2.2 0 0 0 .13 0 .35.35 0 0 0 .07-.15l.82-3.45a.5.5 0 0 0 0-.16.3.3 0 0 0-.1-.11v-.08l1.11.26v.09h-.11a.2.2 0 0 0 0 .09v.12l1.3 3.12.65-2.69a.5.5 0 0 0 0-.17.24.24 0 0 0-.1-.1v-.09l.7.17v.08a.3.3 0 0 0-.13 0 .35.35 0 0 0-.07.15l-.82 3.45a.3.3 0 0 0 0 .16s0 .07.1.1v.09ZM39.55 88.49v-.1a.17.17 0 0 0 .12-.06.4.4 0 0 0 0-.15l.4-3.52a.33.33 0 0 0 0-.18.22.22 0 0 0-.1-.09v-.08l1.56.18a3.1 3.1 0 0 1 .91.22 1.6 1.6 0 0 1 .54.42 1.8 1.8 0 0 1 .31.73 3 3 0 0 1 0 1 3.2 3.2 0 0 1-.24.92 1.8 1.8 0 0 1-.48.64 1.4 1.4 0 0 1-.61.29 2.9 2.9 0 0 1-.94 0Zm1.09-3.54-.36 3.12 1.08.12a1.23 1.23 0 0 0 1-.28 1.7 1.7 0 0 0 .47-1.12 1.72 1.72 0 0 0-.21-1.2 1.24 1.24 0 0 0-.95-.52ZM47.31 88.45a.2.2 0 0 0 .13 0 .5.5 0 0 0 .08-.15h.06v.9h-.07a.2.2 0 0 0-.06-.15s-.07 0-.13 0h-2.84v-.1a.23.23 0 0 0 .11-.07.3.3 0 0 0 0-.16l.06-3.55a.3.3 0 0 0 0-.16.2.2 0 0 0-.11-.07v-.1h2.69a.17.17 0 0 0 .13 0 .4.4 0 0 0 .06-.15h.08v.9h-.07a.4.4 0 0 0 0-.15.22.22 0 0 0-.13 0h-2v1.25h1.32a.23.23 0 0 0 .13 0 .6.6 0 0 0 .06-.15h.08v.91h-.2c0-.08 0-.13-.06-.15s-.06 0-.12 0h-1.33v1.37ZM48.96 88.95v-.09a.26.26 0 0 0 .11-.09.25.25 0 0 0 0-.16l-.36-3.52a.4.4 0 0 0 0-.17.17.17 0 0 0-.12-.06v-.08l1.5-.21a3.2 3.2 0 0 1 .94 0 1.45 1.45 0 0 1 .61.3 1.9 1.9 0 0 1 .47.64 3.2 3.2 0 0 1 .23.91 3 3 0 0 1 0 1 1.75 1.75 0 0 1-.32.73 1.4 1.4 0 0 1-.54.42 2.9 2.9 0 0 1-.92.21Zm.3-3.73.32 3.13 1.08-.11a1.27 1.27 0 0 0 1-.51 1.77 1.77 0 0 0 .22-1.2 1.73 1.73 0 0 0-.47-1.12 1.3 1.3 0 0 0-1-.3ZM56.85 83.26v.09a.2.2 0 0 0-.1.1.4.4 0 0 0 0 .17l.93 3.41a.4.4 0 0 0 .07.15.24.24 0 0 0 .14 0v.1l-.79.22v-.1a.17.17 0 0 0 .09-.1.3.3 0 0 0 0-.16l-.76-2.77-.18.16a.3.3 0 0 0-.09.1.4.4 0 0 0 0 .13h-.07l-.21-.77h.07s.05.06.06.06h.08l.08-.05.14-.13-.05-.15a.35.35 0 0 0-.07-.15.22.22 0 0 0-.13 0v-.09ZM59.87 84.37a.9.9 0 0 1-.45-.2 1 1 0 0 1-.27-.42 1.11 1.11 0 0 1 0-1 1.64 1.64 0 0 1 .86-.68A1.55 1.55 0 0 1 61.1 82a1.08 1.08 0 0 1 .67.68 1.2 1.2 0 0 1 .09.5 1 1 0 0 1-.2.44 1.3 1.3 0 0 1 .55.24 1.13 1.13 0 0 1 .34.48 1.2 1.2 0 0 1 0 1 1.68 1.68 0 0 1-.94.74 1.7 1.7 0 0 1-1.2.09 1.18 1.18 0 0 1-.73-.75 1.11 1.11 0 0 1 .18-1.14Zm.35-1.8a1 1 0 0 0-.56.43.6.6 0 0 0-.06.55.55.55 0 0 0 .39.35 1.2 1.2 0 0 0 .71-.1 1.25 1.25 0 0 0 .59-.4.56.56 0 0 0 0-.52.6.6 0 0 0-.42-.37 1.1 1.1 0 0 0-.65.06m0 2.76a.66.66 0 0 0 .46.44 1.27 1.27 0 0 0 .79-.09 1.34 1.34 0 0 0 .65-.47.67.67 0 0 0 .05-.63.63.63 0 0 0-.46-.41 1.3 1.3 0 0 0-.79.1 1.33 1.33 0 0 0-.65.46.61.61 0 0 0-.09.6ZM64.78 84.71v-.09a.5.5 0 0 0 .09-.15.4.4 0 0 0 0-.13l-.22-3.63-1.92 1a.15.15 0 0 0-.1.09.5.5 0 0 0 0 .16h-.06l-.48-.83h.06a.34.34 0 0 0 .13.11.16.16 0 0 0 .13 0l2.22-1.13a.17.17 0 0 0 .09-.1.3.3 0 0 0 0-.16h.06l.29.56.25 3.73a.07.07 0 0 0 0 .05.24.24 0 0 0 .12 0l.05.09ZM68.57 82.63l-.06-.09a.4.4 0 0 0 .08-.15.4.4 0 0 0 0-.15l-.58-3.58-1.81 1.17a.19.19 0 0 0-.11.12.3.3 0 0 0 0 .17h-.06l-.52-.8h.06a.4.4 0 0 0 .14.1.24.24 0 0 0 .13 0l2.09-1.35.16-.12a.26.26 0 0 0 0-.16h.06l.34.53.6 3.63a.1.1 0 0 0 .06 0 .4.4 0 0 0 .12 0v.09Z" class="c" data-source="https://football-logos.cc"></path><!-- source: https://football-logos.cc --></svg>