<svg xmlns="http://www.w3.org/2000/svg" xml:space="preserve" viewBox="1.21 0.43 377.95 377.95"><!-- Source: https://football-logos.cc --><path d="M1426.38 2836.77c782.76 0 1417.32-634.56 1417.32-1417.32 0-782.766-634.56-1417.325-1417.32-1417.325C643.613 2.125 9.055 636.684 9.055 1419.45c0 782.76 634.558 1417.32 1417.325 1417.32" style="fill:#231f20;fill-opacity:1;fill-rule:evenodd;stroke:none" transform="matrix(.13333 0 0 -.13333 0 378.667)" data-source="https://football-logos.cc"></path><path d="M1426.38 2447.78c567.93 0 1028.33-460.4 1028.33-1028.33S1994.31 391.117 1426.38 391.117c-567.931 0-1028.333 460.403-1028.333 1028.333S858.449 2447.78 1426.38 2447.78" style="fill:#fff;fill-opacity:1;fill-rule:evenodd;stroke:none" transform="matrix(.13333 0 0 -.13333 0 378.667)"></path><path d="M1426.38 2413.12c548.78 0 993.67-444.88 993.67-993.67s-444.89-993.669-993.67-993.669c-548.79 0-993.669 444.879-993.669 993.669s444.879 993.67 993.669 993.67" style="fill:#f0a200;fill-opacity:1;fill-rule:evenodd;stroke:none" transform="matrix(.13333 0 0 -.13333 0 378.667)"></path><path d="M1426.38 2765.62c371.73 0 708.28-150.67 951.89-394.28s394.28-580.16 394.28-951.89c0-371.74-150.67-708.278-394.28-951.887-243.61-243.61-580.16-394.286-951.89-394.286-371.74 0-708.282 150.676-951.892 394.286C230.883 711.172 80.203 1047.71 80.203 1419.45c0 371.73 150.68 708.28 394.285 951.89 243.61 243.61 580.152 394.28 951.892 394.28m921.79-424.37c-235.9 235.9-561.81 381.81-921.79 381.81-359.99 0-685.888-145.91-921.798-381.81-235.902-235.91-381.816-561.82-381.816-921.8 0-359.99 145.914-685.887 381.816-921.798 235.91-235.902 561.808-381.816 921.798-381.816 359.98 0 685.89 145.914 921.79 381.816 235.9 235.911 381.82 561.808 381.82 921.798 0 359.98-145.92 685.89-381.82 921.8" style="fill:#fff;fill-opacity:1;fill-rule:nonzero;stroke:none" transform="matrix(.13333 0 0 -.13333 0 378.667)"></path><path d="m585.949 2065.11-155.14 139.68 93.781 104.16 19.488-17.54-74.816-83.1 46.562-41.92 65.328 72.56 18.946-17.06-65.328-72.56 70.144-63.15zm67.512 222.86c16.102-21.37 33.586-34.36 52.519-39 18.907-4.59 37.133-.31 54.555 12.82 17.352 13.08 26.371 29.32 27.09 48.71.691 19.42-6.98 39.81-23.078 61.18-16.133 21.4-33.645 34.43-52.449 39.05-18.828 4.65-36.907.41-54.25-12.66-17.43-13.13-26.598-29.43-27.395-48.87-.824-19.4 6.879-39.83 23.008-61.23m-23.418-17.65c-20.73 27.51-29.98 54.34-27.668 80.38 2.348 26.06 15.855 48.41 40.617 67.07 24.692 18.61 49.797 25.41 75.383 20.4 25.594-4.94 48.797-21.27 69.586-48.85 20.758-27.55 30.047-54.35 27.773-80.36-2.226-25.97-15.66-48.27-40.347-66.87-24.77-18.66-49.977-25.49-75.68-20.56-25.664 4.95-48.902 21.24-69.664 48.79m187.84 231.42 33.211-62.45 42.801 22.76c15.46 8.22 25.015 16.53 28.765 24.94 3.711 8.38 2.485 18.42-3.738 30.12-5.813 10.93-12.895 17.03-21.324 18.35-8.407 1.29-20.723-2.35-36.907-10.96zm-36.031 8.62 71.464 38c11.579 6.16 20.395 10.19 26.379 12.11 6.016 1.88 11.813 2.83 17.356 2.82 10.047-.14 19.097-2.94 27.179-8.35 8.098-5.44 14.856-13.31 20.305-23.56 5.289-9.95 7.676-19.59 7.195-28.88-.523-9.32-3.917-18.2-10.199-26.68 8.203 1.78 15.125 1.13 20.676-2 5.555-3.12 11.727-10.2 18.516-21.11l18.308-29.28c3.879-6.27 7.329-10.68 10.309-13.21 3.03-2.5 6.18-3.78 9.49-3.72l2.72-5.12-28.917-15.38c-4.399 2.59-10.379 9.93-17.977 22.06l-.406.76-14.305 23.2c-7.418 11.89-14.273 18.49-20.668 19.8-6.355 1.34-18.394-2.71-36.078-12.11l-40.543-21.56 41.977-78.94-24.774-13.17zm316.458-85.98-50.55 176.3-63.342-18.16-6.988 24.37 154.07 44.18 6.99-24.37-63.34-18.17 50.55-176.3zm226.42 50.8-54.29 208.76h27.63l42.67-166.96 44.12 166.96h29.61l45.62-165.8 43.25 165.8h26.95l-55.44-208.76h-27.92l-47.51 172.03-45.62-172.03zm229.43-6.11 29.06 206.73 28.07-3.94-29.05-206.73zm73.72-13.07 43.4 204.2 28.01-5.95-37.92-178.41 101.74-21.63-5.48-25.78zm148.68-40.74 71.4 196.17 26.91-9.79-62.38-171.4 97.74-35.57-9.02-24.78zm142.78-61.53 101.21 182.58 24.8-13.74-101.21-182.59zm144.25 13.23 53.31-37.32 26.36 93.99zm-99.21-36.43 183.27 126.53 25.64-17.96-56.01-215.62-25.21 17.65 17.66 63.76-67.3 47.12-53.99-38.32zm310.87-16.42-125.75-125.76-18.44 18.44 147.62 147.62 28.66-28.67-76.35-149.5c-2.16-4.28-3.87-7.56-5.17-9.82a81 81 0 0 0-3.49-5.81c3.01 1.91 5.75 3.62 8.21 4.99 2.5 1.4 4.89 2.7 7.25 3.83l150.84 75.03 28.73-28.74-147.61-147.61-19.44 19.43 125.76 125.75c-2.6-1.64-5.27-3.28-8.07-4.86-2.74-1.57-5.55-3.08-8.35-4.51l-150.83-74.89-18.96 18.95 75.82 149.91c1.16 2.53 2.59 5.13 4.17 7.8 1.61 2.7 3.42 5.48 5.4 8.42M354.016 736.691l171.007 119.743 80.395-114.813-21.484-15.043-64.133 91.59-51.317-35.938 55.996-79.976-20.882-14.621-55.996 79.976-77.325-54.14zm201.632-98.855c-18.585-19.246-28.683-38.547-30.296-57.977-1.575-19.394 5.5-36.718 21.199-51.875 15.625-15.093 33.082-21.461 52.336-19.14 19.293 2.359 38.234 13.125 56.82 32.367 18.617 19.281 28.746 38.617 30.359 57.91 1.649 19.324-5.359 36.516-20.984 51.606-15.695 15.16-33.223 21.664-52.551 19.41-19.297-2.219-38.265-13.02-56.883-32.301m-21.093 20.367c23.933 24.777 48.984 38.113 75.058 39.902 26.11 1.758 50.301-8.085 72.61-29.625 22.238-21.476 32.886-45.21 31.937-71.265-.883-26.051-13.371-51.52-37.367-76.367-23.965-24.817-48.98-38.188-75.02-40.008-26.003-1.86-50.128 7.918-72.363 29.398-22.312 21.535-32.992 45.371-32.144 71.524.875 26.121 13.328 51.625 37.289 76.441m191.64-175.707c-14.57-22.437-20.8-43.308-18.675-62.687 2.148-19.34 12.402-34.996 30.703-46.879 18.218-11.832 36.57-14.754 55.031-8.801 18.488 5.992 35.023 20.176 49.594 42.613 14.601 22.477 20.851 43.395 18.754 62.637-2.067 19.285-12.223 34.824-30.442 46.652-18.305 11.891-36.75 14.926-55.289 9.028-18.519-5.86-35.078-20.082-49.676-42.563m-24.59 15.969c18.762 28.887 40.805 46.762 66.063 53.492 25.297 6.711 50.918 1.66 76.926-15.227 25.929-16.839 40.91-38.101 44.949-63.859 4.105-25.742-3.293-53.125-22.109-82.094-18.786-28.933-40.793-46.832-66.004-53.589-25.176-6.786-50.719-1.793-76.645 15.046-26.008 16.887-41.043 38.246-45.203 64.079-4.121 25.808 3.234 53.222 22.023 82.152m210.059-239.711 77.516 166.223-59.723 27.851 10.715 22.977 145.268-67.742-10.71-22.977-59.72 27.848-77.518-166.223zm134.446-54.488 46.96 203.41 82.02-18.934c21.07-4.867 35.95-12.668 44.6-23.406 8.6-10.723 11.02-24.293 7.21-40.793-2.45-10.605-6.97-19.043-13.54-25.324-6.61-6.27-15.18-10.293-25.77-12.024 11.74-5.093 20-12.761 24.8-22.953 4.85-10.16 5.73-21.832 2.69-34.98-4.29-18.621-13.87-31.949-28.75-40.039-14.84-8.141-32.88-9.735-54.05-4.848zm54.84 111.527 48.46-11.191c14.28-3.297 25.39-3.133 33.27.461 7.94 3.628 13.15 10.914 15.68 21.851 2.38 10.324.93 18.703-4.37 25.191-5.31 6.442-14.63 11.223-27.98 14.301l-50.67 11.703zm-21.55-93.34 56.05-12.941c14.09-3.254 25.47-2.602 34.21 1.929 8.7 4.547 14.41 12.715 17.15 24.594 2.72 11.785 1 21.317-5.13 28.543-6.13 7.223-17.13 12.692-33.06 16.371l-52.9 12.211zm224.51 18.735 64.82-5.672-24.17 94.586zm-67.71-81.153 95.45 201.211 31.18-2.73 59.31-214.75-30.66 2.683-16.59 64.051-81.84 7.16-27.6-60.183zm234.51-12.637-18.19 207.969 28.53 2.492 15.9-181.699 103.61 9.07 2.3-26.269zm181.24 20.508-46.97 203.407 27.91 6.445 41.03-177.719 101.35 23.399 5.93-25.692zm350.53 203.164 24.91 11.614c9.64-23.532 10.32-45.586 2.09-66.075-8.19-20.425-23.91-36.074-47.01-46.851-26.62-12.41-51.72-13.07-75.32-1.965-23.59 11.098-42.84 32.703-57.83 64.844-13.82 29.64-16.84 56.84-9.15 81.676 7.71 24.789 25.04 43.496 51.92 56.027 21.39 9.976 41.51 12.629 60.3 7.937 18.83-4.668 33.75-16.07 44.8-34.14l-25.17-11.739c-8.23 11.372-18.44 18.36-30.55 20.875-12.12 2.52-25.36.457-39.74-6.25-19.2-8.953-30.94-22.597-35.23-40.984s-.76-39.805 10.67-64.312c10.77-23.11 24.9-39.102 42.4-47.914 17.54-8.852 35.39-9.016 53.54-.555 15.48 7.219 25.95 17.972 31.31 32.215 5.44 14.23 4.75 29.437-1.94 45.597m108.39-23.773-122.71 168.891 23.17 16.832 107.21-147.555 84.15 61.137 15.5-21.332zm86.85 160.156-90 93.195 20.39 19.696 90.21-93.41c13.57-14.055 26.72-21.473 39.44-22.172 12.71-.703 25.62 5.23 38.67 17.836 12.91 12.468 19.22 25.156 19 38.129-.25 13.003-7.07 26.398-20.44 40.253l-90.2 93.403 20.5 19.797 90-93.203c19.42-20.114 28.92-40.329 28.53-60.676-.39-20.356-10.66-40.227-30.77-59.653-18.76-18.113-37.73-26.609-56.97-25.484-19.21 1.152-38.7 11.93-58.36 32.289m218.01 109.184-171.01 119.742 48.28 68.957c12.41 17.711 25.22 28.59 38.41 32.582 13.16 3.953 26.66 1.121 40.53-8.59 8.92-6.246 15.04-13.605 18.4-22.043 3.34-8.48 3.86-17.941 1.5-28.398 9.12 8.976 19.32 13.758 30.57 14.39 11.24.696 22.39-2.863 33.45-10.601 15.65-10.965 24.42-24.84 26.34-41.664 2-16.805-3.29-34.133-15.75-51.93zm-82.86 92.625 28.52 40.742c8.41 12.004 12.43 22.371 12.04 31.023-.39 8.719-5.19 16.282-14.39 22.715-8.68 6.078-16.99 7.879-24.99 5.395-7.96-2.52-15.89-9.371-23.74-20.582l-29.83-42.606zm78.47-54.942 32.99 47.118c8.3 11.851 11.96 22.64 11.03 32.445-.96 9.765-6.39 18.117-16.38 25.109-9.91 6.942-19.39 8.918-28.39 5.938-8.99-2.973-18.18-11.125-27.56-24.52l-31.14-44.469z" style="fill:#fff;fill-opacity:1;fill-rule:nonzero;stroke:none" transform="matrix(.13333 0 0 -.13333 0 378.667)" data-source="https://football-logos.cc"></path><path d="m1274.68 2145.38-62.25 56.83c52.3 60.86 129.85 99.4 216.4 99.4 10.24 0 20.35-.54 30.31-1.59zm76.24-73.43-59.16 56 199.71 166.76c30.33-6.8 58.84-18.43 84.68-34.04zm76.85-70.22-57.06 56.22 224.85 189.88a287 287 0 0 0 60.16-58.58zm213.58 135.88 32.37 25.08c25.61-42.78 40.33-92.83 40.33-146.31 0-72.52-27.06-138.73-71.65-189.06zm-95.74-77.3 74.59 62.15.95-316.72a285.6 285.6 0 0 0-75.59-49.68zm-20.77-18.43-1.54-294.7c-22.83-8.02-47-13.21-72.07-15.16l-.23 251.55zm-96.01-310.73c-144.58 0-264.03 107.56-282.7 247.03zm-4.38 27.29-280.74 249.67c-.79 28.73 2.61 57.31 10.33 85l270.55-241.56zm-.67 121.95-263.18 233.23c8.71 24.02 20.56 46.53 35.04 67.05l229.22-206.26z" style="fill:#fff;fill-opacity:1;fill-rule:evenodd;stroke:none" transform="matrix(.13333 0 0 -.13333 0 378.667)"></path><path d="M1118.2 2110.19c-55.95 53.01-133.364 64.32-236.634 38.45-136.464-175.29-84.386-391.63 177.474-470.3-51.18 111.02-77.181 207.54-66.778 283.09l402.328-730.31-373.16-688.593 38.46-17.754 361.91 656.957 361.91-656.957 38.45 17.754-373.15 688.593 402.33 730.31c10.4-75.55-15.6-172.07-66.78-283.09 261.86 78.67 313.94 295.01 177.48 470.3-103.28 25.87-180.69 14.56-236.63-38.45 48.41-18.3 81.89-45.21 102.46-79.53l-406.07-749.33-406.07 749.33c20.57 34.32 54.04 61.23 102.47 79.53" style="fill:#fff;fill-opacity:1;fill-rule:evenodd;stroke:none" transform="matrix(.13333 0 0 -.13333 0 378.667)"></path><path d="M1056.35 1507.07c-36.57-37.28-67.291-80.33-90.69-127.65 16.969 23.67 43.02 49.24 65.36 62.21 53.37 30.97 110.08 46.48 177.79 40.16-32.03-49.24-65.75-96.45-117.46-126.45-41.18-23.9-128.604-41.74-141.741-22.78-1.125 1.63-1.746 3.61-1.945 5.88-16.055-41.61-26.664-85.94-30.937-132.12 12.562 26.89 55.683 68 88.753 84.12 55.47 27.02 112.56 38.35 178.16 27.11-36.48-46.8-74.4-91.45-128.14-117.62-41.85-20.39-126.391-31.77-140.227-13.64-.457-8.71-.683-17.47-.683-26.3 0-45.95 6.262-90.43 17.961-132.66 1.105 26.73 42.152 83.44 76.019 106.99 50.92 35.4 106.18 55.27 173.84 53.68-28.5-52.49-58.8-103.04-108.13-137.32-38.8-26.98-122.811-51.168-138.643-34.02 23.902-79.242 67.093-150.113 124.123-207.144 89.69-89.692 213.61-145.172 350.48-145.172 18.9 0 37.56 1.066 55.91 3.125-1.16.812-2.14 1.769-2.9 2.886-13.01 19.2 30 95.348 64.19 125.661 42.94 38.066 95.81 52.972 150 65.558-15.19-66.199-46.62-114.172-90.96-153.472-9.61-8.52-22.59-16.77-36.55-23.789 80.71 23.664 152.89 67.3 210.79 125.203a497 497 0 0 1 36.47 40.711c-28.32.644-92.09 46.261-117.64 80.722-35.73 48.176-46.05 104.181-53.81 161.291 68.15-22.51 115.48-59.86 152.36-109.595 20.99-28.321 37.66-80.274 36.11-109.907 28.77 40.391 51.63 85.274 67.33 133.402-28.85-4.54-94.09 16.29-126.94 39.13-49.33 34.29-79.63 84.84-108.13 137.32 67.66 1.59 122.92-18.28 173.84-53.68 27.22-18.93 59.08-59.27 71.11-88.26 9.45 38.23 14.47 78.2 14.47 119.34 0 5.21-.08 10.39-.24 15.55-25.77-9.89-95.5 1.07-132.28 18.99-53.73 26.17-91.65 70.82-128.13 117.62 65.6 11.24 122.7-.1 178.16-27.12 27.15-13.23 61.08-43.32 79.31-68.54-4.28 37.75-12.78 74.2-25.04 108.86-17.43-15.94-100.36 1.5-140.14 24.58-51.71 30.01-85.42 77.22-117.46 126.46 67.72 6.31 124.41-9.19 177.79-40.17 16.26-9.43 34.49-25.55 49.75-42.76-21.11 39.45-47.43 75.74-78.04 107.93-29.44-1.6-92.48 24.47-123.18 49.59-46.28 37.85-72.04 89.83-95.83 143.54 67.86-4.55 121.36-28.88 169.13-67.96 32.01-26.19 68.27-85.83 66.4-111.67a519 519 0 0 0 36.27-42.82c-3.22 10.62-5.45 21.11-6.25 30.61-5.05 59.89 5.45 118.83 40.63 182.55 30.99-44.18 59.39-89.43 64.28-147.45 3.89-46.2-17.82-135.45-40.82-143.04-3.03-1-6.31-.65-9.73.8a519 519 0 0 0 17.53-37.89c5.6-13.53 10.64-27.35 15.11-41.42.24 23.7 4.67 50.14 12.82 69.23 23.62 55.27 60.53 102.4 121.48 142.19 6.66-53.54 10.53-106.84-12.36-160.38-18.21-42.63-79.24-111.28-103.12-107.2-1.75.3-3.37 1.01-4.87 2.07 6.63-33.03 10.11-67.19 10.11-102.15 0-72.68-15.01-141.85-42.08-204.599 16.64 18.898 39.51 37.468 59.44 46.559 53.08 24.23 109.53 33.18 177.04 19.94-31.73-44.077-65.16-86.019-116.58-109.476-40.95-18.68-128.01-26.641-141.17-6.98-.72 1.082-1.23 2.281-1.57 3.578-21.88-39.321-48.75-75.485-79.73-107.645 14.79 6.481 30.07 11.336 43.27 13.215 58.41 8.301 115.49 1.148 176.6-30.191-43.77-33.121-88.53-63.746-145.1-71.782-45.06-6.406-131.34 10.192-138.15 32.555l-.07.262c-51.94-38.75-111.41-67.973-175.82-85.074a124 124 0 0 0 11.02-2.411c57.18-15.484 106.66-44.476 149.71-97.019-54.13-12.817-108.12-22.977-163.5-7.977-44.11 11.946-116.5 61.024-113.37 84.008.3 2.301 1.4 4.465 3.14 6.492q-9.96-.38-20.01-.379c-2.88 0-5.74.032-8.61.079q.09-.393.15-.786c3.12-22.988-69.26-72.062-113.37-84.007-55.39-15-109.38-4.84-163.51 7.976 42 51.266 90.14 80.11 145.57 95.863-60.56 16.965-116.62 44.692-166 80.969-20.71-18.441-92.97-30.816-132.88-25.148-56.578 8.039-101.328 38.664-145.098 71.781 61.106 31.344 118.192 38.496 176.588 30.195 7.05-1.004 14.69-2.851 22.53-5.343a517.8 517.8 0 0 0-65.801 91.562c-23.18-13.508-98.645-5.391-135.918 11.613-51.422 23.457-84.848 65.395-116.578 109.47 67.503 13.25 123.953 4.29 177.035-19.93 13.48-6.15 28.308-16.637 41.644-28.626a513.6 513.6 0 0 0-26.898 103.716c-1.574-3.01-3.664-5.25-6.332-6.5-22.106-10.37-96.114 40.32-123.114 77.07-33.914 46.15-42 99.21-47.445 153.27 67.543-22.53 113.547-58.67 148.555-106.31 8.976-12.22 16.875-28.96 22.59-46.21-.024 2.07-.039 4.15-.039 6.22 0 36.1 3.707 71.32 10.754 105.34-25.575 1.26-82.711 66.33-100.239 107.35-22.879 53.54-19.011 106.83-12.355 160.37 60.949-39.78 97.859-86.92 121.476-142.19 6.27-14.67 10.34-33.68 12-52.47 2.606 7.09 5.364 14.1 8.266 21.04a516 516 0 0 0 18.883 40.15 11.6 11.6 0 0 0-3.41.56c-23 7.6-44.715 96.84-40.821 143.04 4.887 58.02 33.289 103.28 64.274 147.45 35.183-63.71 45.683-122.65 40.633-182.54-.59-7.05-1.97-14.64-3.96-22.43a520 520 0 0 0 33.94 37.84c1.02 27.28 35.69 83.3 66.44 108.46 47.77 39.08 101.27 63.42 169.13 67.97-23.78-53.72-49.55-105.7-95.83-143.55-31.77-25.99-98.19-53.01-126.14-49.31m879.77-436.52c-22.1 10.37-4.88 87.43 22.01 124.02 35 47.64 81.01 83.79 148.55 106.32-5.45-54.06-13.54-107.13-47.45-153.27-27-36.75-101.01-87.44-123.11-77.07m-912.58-213.339c-21.54 11.414-1.08 92.633 27.24 130.84 36.88 49.739 84.2 87.079 152.36 109.589-7.75-57.1-18.08-113.113-53.81-161.285-28.44-38.363-104.26-90.558-125.79-79.144m342.09-181.453c-13.02-19.203-89.18 7.574-123.24 37.75-44.33 39.297-75.76 87.273-90.95 153.472 54.19-12.585 107.06-27.492 150-65.562 34.19-30.309 77.2-106.457 64.19-125.66" style="fill:#004028;fill-opacity:1;fill-rule:nonzero;stroke:none" transform="matrix(.13333 0 0 -.13333 0 378.667)" data-source="https://football-logos.cc"></path><!-- source: https://football-logos.cc --></svg>