<svg xmlns="http://www.w3.org/2000/svg" viewBox="0 0 566.93 566.93"><!-- Source: https://football-logos.cc --><path d="M297.637 14.59c156.527 0 283.465 126.937 283.465 283.465S454.164 581.52 297.637 581.52c-156.528 0-283.465-126.938-283.465-283.465 0-156.528 126.937-283.465 283.465-283.465" style="fill:#fff;fill-opacity:1;fill-rule:evenodd;stroke:none" transform="translate(-14.172 -14.59)" data-source="https://football-logos.cc"></path><path d="M297.637 14.59c156.527 0 283.465 126.937 283.465 283.465S454.164 581.52 297.637 581.52c-156.528 0-283.465-126.938-283.465-283.465 0-156.528 126.937-283.465 283.465-283.465m0 44.078c132.191 0 239.39 107.2 239.39 239.387s-107.199 239.39-239.39 239.39c-132.188 0-239.387-107.203-239.387-239.39 0-132.188 107.2-239.387 239.387-239.387" style="fill:#bd282e;fill-opacity:1;fill-rule:evenodd;stroke:none" transform="translate(-14.172 -14.59)"></path><path d="M297.637 133.598c90.812 0 164.46 73.644 164.46 164.457s-73.648 164.46-164.46 164.46-164.457-73.648-164.457-164.46 73.644-164.457 164.457-164.457" style="fill:#bd282e;fill-opacity:1;fill-rule:evenodd;stroke:none" transform="translate(-14.172 -14.59)"></path><path d="m76.621 264.605 4.184-18.12q1.049-4.543 3.257-6.66c1.461-1.41 3.012-2.212 4.626-2.41a14.1 14.1 0 0 1 4.882.276q6.201 1.431 6.989 7.875l.054.012q1.26-2.643 4.114-4.57c1.914-1.278 4.546-1.531 7.914-.75 3.113.715 5.332 1.98 6.664 3.781 1.343 1.816 2.035 3.777 2.093 5.914.063 2.133-.183 4.375-.726 6.723l-3.969 17.183zm9.754-6.714 8.016 1.851 1.812-7.851c.332-1.45.172-2.61-.504-3.489-.66-.879-1.543-1.445-2.64-1.699-.868-.2-1.805-.105-2.797.27-1.004.379-1.719 1.523-2.16 3.433zm15.395 3.55 9.113 2.106 2.035-8.813q.357-1.535-.293-3.347c-.426-1.215-1.477-2.008-3.156-2.395a4.93 4.93 0 0 0-3.352.363c-1.054.52-1.773 1.47-2.16 2.864q-.14.61-.25.969a6 6 0 0 0-.152.515zM126.578 232.531l-35.976-19.945 9.195-16.59c1.586-2.855 3.738-5.004 6.441-6.43 2.711-1.433 6.016-1.066 9.895 1.082q6.859 3.809 5.867 10.63l.102.058c1.203-1.121 2.445-1.762 3.742-1.922a7.9 7.9 0 0 1 3.707.383c1.172.414 2.449 1 3.851 1.758 2.649 1.41 4.461 2.3 5.422 2.664.961.37 2.02.523 3.192.465l-4.313 7.78c-.992.036-2.07-.148-3.215-.538-1.16-.399-2.867-1.215-5.14-2.446-2.457-1.332-4.278-1.703-5.45-1.101-1.18.594-2.214 1.687-3.09 3.27l-3.261 5.882 13.27 7.356zm-24.75-23.715 9.149 5.075 3.882-7.004c1.813-3.274 1.215-5.742-1.812-7.418q-2.636-1.464-4.363-.676c-1.153.523-2.2 1.625-3.133 3.309zM158.777 182.684c-2.48 2.656-5.078 4.425-7.789 5.289q-4.061 1.301-7.941.547c-2.582-.504-4.965-1.383-7.121-2.645a32.4 32.4 0 0 1-5.844-4.316 32.6 32.6 0 0 1-4.723-5.54q-2.113-3.119-3.136-6.917c-.68-2.532-.68-5.172-.004-7.938.68-2.754 2.261-5.469 4.754-8.14 2.238-2.403 4.605-4.094 7.101-5.06 2.488-.96 4.984-1.312 7.496-1.034 2.5.28 4.938 1.054 7.305 2.308s4.621 2.883 6.777 4.895c2.157 2.012 3.942 4.148 5.36 6.422 1.414 2.273 2.351 4.644 2.808 7.125.457 2.484.285 5.008-.5 7.558q-1.184 3.84-4.543 7.446m-5.847-5.454c1.586-1.695 2.37-3.875 2.36-6.55-.005-2.668-2.024-5.883-6.067-9.649-2.61-2.433-4.961-4.015-7.07-4.738q-3.16-1.097-5.423-.348a9.3 9.3 0 0 0-3.914 2.532q-2.952 3.163-2.25 7.195c.465 2.687 2.461 5.672 5.98 8.953q3.902 3.633 7.048 4.734c2.101.735 3.902.856 5.414.368a9.05 9.05 0 0 0 3.922-2.497M176.3 160.91l-23.003-34.101 15.726-10.61c2.707-1.828 5.598-2.762 8.66-2.804 3.067-.047 5.84 1.78 8.32 5.457 2.927 4.335 3.06 8.382.403 12.132l.067.102c1.578-.453 2.98-.465 4.207-.016a7.9 7.9 0 0 1 3.132 2.024c.852.898 1.723 2.004 2.63 3.316 1.722 2.453 2.93 4.074 3.62 4.832.692.766 1.563 1.383 2.633 1.867l-7.375 4.973c-.902-.418-1.777-1.07-2.62-1.941-.848-.88-2-2.383-3.47-4.512-1.582-2.3-3.035-3.457-4.351-3.457-1.328-.004-2.742.504-4.242 1.512l-5.575 3.761 8.485 12.578zm-11.288-32.363 5.847 8.672 6.637-4.477q4.658-3.14 1.758-7.433-1.682-2.496-3.582-2.582c-1.262-.059-2.7.449-4.293 1.527zM205.781 94.922l8.016-3.738 30.02 31.39-8.403 3.918-5.426-5.976-12.18 5.683 1.145 7.969-8.351 3.894zm10.809 24.14 8.73-4.07-10.965-12.215zM276.66 116.707V75.57h18.969c3.266 0 6.187.84 8.75 2.516 2.566 1.676 3.848 4.742 3.848 9.176 0 5.23-2.157 8.66-6.454 10.285v.117c1.563.512 2.727 1.285 3.497 2.344a7.9 7.9 0 0 1 1.464 3.426c.203 1.226.305 2.625.325 4.222.054 2.996.152 5.016.3 6.031.145 1.02.524 2.02 1.137 3.02h-8.894c-.512-.852-.875-1.883-1.086-3.074-.211-1.207-.329-3.098-.356-5.684-.023-2.793-.582-4.562-1.676-5.297-1.093-.746-2.55-1.117-4.359-1.117h-6.727v15.172zm8.738-33.144V94.02h8.004c3.746 0 5.618-1.723 5.618-5.18q-.002-3.01-1.528-4.145-1.524-1.132-4.414-1.132zM340.309 79.25l8.652 1.84 5.078 43.137-9.066-1.926-.735-8.04-13.148-2.796-3.883 7.058-9.016-1.918zm-5.895 25.785 9.418 2-1.406-16.347zM379.98 107.61l-.093-.048-10.88 23.333-7.921-3.696 17.387-37.281 8.015 3.738 2.438 29.356.144.066 10.809-23.18 7.918 3.696-17.383 37.281-8.062-3.758zM428.613 141.7l11.91 10.355-14.644 16.847-4.918-4.273 2.89-3.328-.078-.07c-2.28.769-4.398.847-6.335.253-1.942-.593-3.875-1.73-5.81-3.41-3.487-3.035-5.554-6.27-6.183-9.703-.632-3.418-.273-6.71 1.075-9.86q2.02-4.729 5.664-8.925c2.062-2.371 4.504-4.453 7.336-6.246 2.828-1.8 6.14-2.66 9.918-2.594q5.665.115 11.683 5.34c1.824 1.586 3.219 3.293 4.168 5.105.965 1.813 1.516 3.664 1.668 5.551a15.4 15.4 0 0 1-.602 5.63 20 20 0 0 1-2.492 5.343l-6.918-6.012c.989-1.308 1.532-2.82 1.618-4.55q.134-2.59-2.727-5.067-3.265-2.843-6.555-2.469c-2.187.25-4.11 1.012-5.765 2.27a29.6 29.6 0 0 0-4.41 4.105q-5.14 5.912-4.72 10.07c.274 2.782 1.34 4.985 3.216 6.61 1.265 1.101 2.609 1.789 4.015 2.066a7.85 7.85 0 0 0 4.121-.285c1.34-.469 2.528-1.23 3.575-2.27l-5.59-4.855zM458.668 168.465l11.148 14.273-5.964 4.66-11.153-14.273-7.27 5.68 12.977 16.61-6.3 4.92-18.352-23.495 32.414-25.324 18.031 23.078-6.297 4.918-12.652-16.192zM456.93 208.457l37.285-17.387 8.015 17.196c1.38 2.957 1.852 5.96 1.415 8.992-.43 3.035-2.668 5.488-6.692 7.363-4.738 2.211-8.754 1.707-12.047-1.5l-.105.05c.199 1.63-.012 3.013-.645 4.157a7.9 7.9 0 0 1-2.488 2.777c-1.023.7-2.25 1.387-3.688 2.079-2.695 1.316-4.484 2.257-5.34 2.824-.867.558-1.609 1.324-2.253 2.305l-3.762-8.063c.559-.824 1.336-1.59 2.328-2.285 1.004-.7 2.668-1.606 5-2.723 2.52-1.199 3.89-2.453 4.094-3.758.21-1.304-.067-2.785-.832-4.421l-2.84-6.098-13.75 6.414zm33.734-6.086-9.48 4.418 3.382 7.258c1.582 3.39 3.934 4.36 7.07 2.898q2.725-1.272 3.106-3.136c.254-1.239-.02-2.735-.832-4.48zM485.508 241.863l1.988 8.606q-2.348.543-4 2.539-1.651 1.981-.683 6.172 1.488 6.449 5.613 5.5c1.066-.246 1.902-.73 2.488-1.453.598-.727.992-1.57 1.203-2.536.223-.964.344-1.78.367-2.457.024-.687.043-2.078.067-4.191.047-2.121.14-3.828.293-5.133a13.2 13.2 0 0 1 1.144-3.926c.606-1.304 1.567-2.46 2.895-3.457q1.973-1.488 5.277-2.25c3.379-.78 6.469-.289 9.258 1.47 2.789 1.757 4.789 5.288 6.016 10.597q1.029 4.47.136 7.91c-.605 2.305-1.699 4.172-3.308 5.61-1.606 1.44-3.535 2.449-5.797 3.015l-1.86-8.05c2.844-.919 3.817-3.325 2.918-7.204-.464-2.031-1.168-3.371-2.109-4.055-.937-.668-1.941-.882-3.004-.636-1.562.363-2.52 1.234-2.84 2.62-.332 1.391-.484 3.266-.449 5.641q.065 4.918-.574 8.22c-.43 2.202-1.32 4.038-2.688 5.515q-2.035 2.22-6.004 3.132c-3.757.868-7.199.415-10.304-1.363-3.114-1.77-5.293-5.379-6.551-10.824q-2.108-9.135 1.602-13.441c2.472-2.871 5.445-4.727 8.906-5.57M100.965 338.488l3.195 15.032-7.816 1.66-3.196-15.032-15.406 3.278-1.816-8.547 40.238-8.555 5.594 26.324-7.817 1.664-3.78-17.777zM94.2 396.785q-2.393-4.906-2.15-9.168c.165-2.84.938-5.379 2.337-7.61 1.398-2.234 3.07-4.14 5.023-5.698a32.4 32.4 0 0 1 6.121-3.91 32.4 32.4 0 0 1 6.864-2.426c2.445-.575 4.976-.72 7.582-.446 2.609.27 5.074 1.215 7.41 2.836q3.497 2.433 5.898 7.356c1.442 2.953 2.172 5.77 2.18 8.445.004 2.668-.563 5.125-1.723 7.371-1.156 2.23-2.754 4.23-4.77 5.988-2.019 1.762-4.35 3.282-7.003 4.575-2.649 1.293-5.281 2.195-7.91 2.699-2.63.508-5.18.531-7.66.074q-3.727-.703-6.88-3.176c-2.101-1.656-3.878-3.96-5.32-6.91m7.183-3.504c1.02 2.086 2.77 3.598 5.27 4.547 2.492.957 6.218.219 11.183-2.203q4.81-2.341 6.96-4.906 2.153-2.554 2.266-4.938a9.36 9.36 0 0 0-.96-4.558c-1.266-2.594-3.235-4.157-5.91-4.68q-4.016-.79-10.504 2.375c-3.196 1.559-5.508 3.187-6.946 4.879-1.437 1.703-2.195 3.34-2.285 4.926a9.06 9.06 0 0 0 .926 4.558M126.445 445.367c-2.336-2.785-3.773-5.578-4.3-8.375-.528-2.793-.391-5.445.425-7.945.813-2.508 1.977-4.762 3.493-6.746a32.5 32.5 0 0 1 4.996-5.278 32.7 32.7 0 0 1 6.074-4.011c2.23-1.149 4.652-1.903 7.25-2.27 2.594-.367 5.215-.047 7.875.961q3.977 1.517 7.504 5.711c2.11 2.516 3.5 5.07 4.156 7.664.648 2.59.695 5.113.11 7.57-.579 2.446-1.645 4.774-3.18 6.97-1.532 2.195-3.426 4.234-5.688 6.128-2.258 1.895-4.594 3.406-7.023 4.535q-3.637 1.695-7.414 1.922c-2.524.149-5.004-.328-7.442-1.418q-3.663-1.642-6.836-5.418m6.125-5.137c1.493 1.778 3.559 2.825 6.215 3.141q3.972.478 10.317-4.844c2.734-2.293 4.59-4.437 5.566-6.445.98-2 1.316-3.777 1.004-5.34a9.35 9.35 0 0 0-2.035-4.191q-2.784-3.318-6.867-3.11c-2.723.133-5.93 1.754-9.618 4.844-2.722 2.285-4.57 4.426-5.558 6.418q-1.476 2.993-1.024 5.328a9 9 0 0 0 2 4.2M180.848 449.867l-9.075-6.594 4.7-6.464 25.199 18.308-4.7 6.465-9.054-6.578-19.48 26.816-7.07-5.136zM212.078 460.754l16.992 7.562c2.836 1.262 4.813 2.754 5.914 4.47 1.106 1.698 1.598 3.378 1.485 5a14.1 14.1 0 0 1-1.203 4.741c-1.727 3.871-4.743 5.66-9.063 5.356l-.023.055c1.57 1.16 2.804 2.792 3.699 4.906.89 2.12.637 4.754-.77 7.914-1.296 2.914-2.964 4.855-4.988 5.82-2.035.969-4.094 1.274-6.2.926q-3.159-.524-6.46-1.996l-16.113-7.176zm4.735 10.851-3.348 7.52 7.363 3.277c1.356.602 2.527.664 3.52.172.984-.48 1.71-1.242 2.168-2.27.363-.816.453-1.753.27-2.8-.177-1.055-1.169-1.977-2.958-2.774zm-6.426 14.434-3.805 8.547 8.266 3.68c.96.425 2.074.546 3.34.351 1.273-.187 2.253-1.066 2.953-2.64a4.93 4.93 0 0 0 .28-3.364c-.308-1.133-1.1-2.02-2.398-2.664a12 12 0 0 1-.902-.433 9 9 0 0 0-.476-.246zM259.688 477.695l8.683 1.688 5.832 43.043-9.098-1.77-.878-8.023-13.196-2.567-3.758 7.125-9.046-1.757zm-5.446 25.883 9.453 1.84-1.691-16.324zM319.21 513.613l.423 7.98-25.961 1.36-2.152-41.078 8.722-.46 1.735 33.1zM361.063 505.695l1.8 7.79-25.332 5.847-9.254-40.086 8.516-1.965 7.457 32.297zM436.285 455.484l6.649-5.578c1.328 1.938 2.37 4.106 3.129 6.516.753 2.394.765 5.047.011 7.941-.746 2.887-2.726 5.688-5.953 8.395a23 23 0 0 1-5.687 3.547c-2.02.875-4.192 1.28-6.543 1.207-2.34-.07-4.797-.82-7.364-2.274-2.57-1.449-5.175-3.738-7.804-6.875-2.536-3.015-4.47-6.16-5.817-9.441-1.34-3.274-1.68-6.594-1.047-9.953q.974-5.05 6.067-9.32c2.914-2.446 5.789-3.91 8.605-4.395 2.824-.48 5.406-.219 7.758.8a18 18 0 0 1 6.207 4.446l-6.578 5.52c-3.496-3.301-7.008-3.477-10.531-.52-2.668 2.238-3.52 4.867-2.547 7.906.969 3.035 2.59 5.903 4.875 8.63 1.566 1.866 3.25 3.359 5.039 4.491 1.789 1.13 3.601 1.723 5.433 1.77 1.825.039 3.52-.586 5.086-1.906 2.004-1.68 2.934-3.508 2.797-5.5-.136-1.985-.734-3.786-1.785-5.407M475.2 421.348l6.464 4.699-15.281 21.031-33.278-24.18 5.137-7.07 26.813 19.48zM454.031 395.617l3.828-7.855 21.551 10.511q2.989 1.461 5.32 1.88c1.547.284 2.926.12 4.133-.481q1.817-.908 3.047-3.434c.809-1.656 1.086-3.14.836-4.46-.242-1.329-.957-2.512-2.125-3.571q-1.76-1.594-4.797-3.078l-21.55-10.512 3.828-7.855 22.976 11.21a32 32 0 0 1 4.117 2.419c1.387.953 2.692 2.285 3.926 4.015 1.23 1.723 1.942 3.883 2.121 6.489.184 2.593-.531 5.539-2.144 8.847q-7.038 14.425-22.09 7.082zM472.633 354.305l4.18-18.121q1.055-4.543 3.257-6.66c1.461-1.41 3.016-2.212 4.63-2.41a14 14 0 0 1 4.878.277c4.137.953 6.465 3.574 6.988 7.875l.059.011c.84-1.761 2.207-3.289 4.11-4.57 1.913-1.277 4.546-1.531 7.913-.754 3.114.719 5.332 1.984 6.668 3.785 1.34 1.817 2.032 3.778 2.094 5.91.059 2.133-.187 4.38-.73 6.727l-3.965 17.184zm9.75-6.715 8.015 1.848 1.817-7.852c.332-1.445.168-2.606-.504-3.484-.66-.88-1.547-1.446-2.645-1.7-.867-.199-1.804-.105-2.796.27-1 .375-1.72 1.523-2.16 3.433zm15.394 3.55 9.114 2.106 2.039-8.816c.234-1.024.14-2.14-.297-3.348-.422-1.21-1.477-2.008-3.153-2.395-1.175-.269-2.289-.148-3.355.368-1.055.52-1.773 1.465-2.156 2.863-.098.402-.18.73-.254.965a8 8 0 0 0-.149.52z" style="fill:#bd282e;fill-opacity:1;fill-rule:nonzero;stroke:none" transform="translate(-14.172 -14.59)" data-source="https://football-logos.cc"></path><path d="M95.094 285.496c4.539 0 8.215 3.68 8.215 8.215a8.215 8.215 0 0 1-8.215 8.215c-4.535 0-8.211-3.68-8.211-8.215s3.676-8.215 8.21-8.215M505.664 285.496a8.217 8.217 0 0 1 8.215 8.215 8.217 8.217 0 0 1-8.215 8.215c-4.535 0-8.21-3.68-8.21-8.215s3.675-8.215 8.21-8.215" style="fill:#bd282e;fill-opacity:1;fill-rule:evenodd;stroke:none" transform="translate(-14.172 -14.59)"></path><path d="M298.887 216.563c-1.266.68-4.649 4.843-10.63 6.878-5.62 1.91-15.788 1.875-16.288.907-5.09-9.84 5.039-29.758 8.738-36.825-2.754-4.09-5.285-6.742-2.598-11.562 2.457-4.406 11.02-5.367 16.055-3.316-2.512-7.391 1.723-11.86 4.016-13.45 3.07-2.132 10.593-4.562 12.71-1.617 3.657 5.086 6.934 8.328 10.895 11.676 7.223 6.094 14.664 14.043 19.383 22.797 5.562 10.316 6.652 33.816-5.781 47.59-8.059 8.93-14.801 10.316-13.836 19.414 3.754 35.379 48.14 35.11 48.16 68.933 10.387 3.14 26.668-9.383 29.277-21.242 2.27-10.312 2.657-20.437 2.02-30.547-.637-10.101-2.305-21.136-4.14-31.37-1.223-6.817-3.473-13.282-4.493-20.243-1.3-8.887 4.336-11.477 9.41-8.035 6.527 4.426 12.445 17.445 4.758 19.832-.156 20.305 2.95 41.488 6.668 61.465 3.71 19.972 9.45 39.215-7.145 50.91-5.035 3.547-15.812 6.234-29.27 3.078-8.737 11.281-18.542 17.656-28.452 22.523-2.942 1.446-3.473 6.504-3.66 7.926-1.043 7.961.035 22.336.328 29.93.113 2.973.308 4.91-.09 5.015-4.153 1.11-13.153 4.47-18.32 7.137-11.375 5.875-23.875 15.492-32.204 16.469-10.168 1.195-10.945-9.883-6.37-14.402 8.03-7.938 24.878-10.27 34.515-16.563 5.402-3.527 6.86-6.43 7.742-12.7 3.266-23.14-29.32-22.476-29.742-52.874-.168-12.035 8.262-18.676 14.281-25.277.746-.82-2.129-4.497-1.539-5.438-1.965 2.441-4.824 5.465-7.082 6.617-10.45 5.352-19.039-8.765-20.773-18.648-1.543-8.797 2.754-14.168 6.847-20.781-1.258-.317-1.336-2.993-2.597-3.305-5.188 7.164-13.86 18.41-27.621 17.473-12.122-.825-24.762-13.692-36.829-12.274-13.918 1.637-14.093 14.106-21.722 21.719-3.778 3.77-15.977 1.254-11.332-9.445 2.273-5.235 6.144-8.563 10.164-12.696 4.023-4.129 8.199-9.066 12.972-11.855 10.598-6.196 25.102 6.664 35.415 0 12.832-8.293 14.195-30.758 24.55-38.719 1.434-1.102 6.969-1.082 12.59-2.684 5.617-1.601 10.543-4.144 13.383-10.554 1.281-2.89.434-3.371-2.363-1.867m-1.332-23.028c3.797-1.719 10.836-1.676 10.695.102-.137 1.777-1.145 6.515-5.645 8.707-4.503 2.195-7.289-.93-8.097-2.707-.805-1.778-.746-4.383 3.047-6.102" style="fill:#fff;fill-opacity:1;fill-rule:evenodd;stroke:none" transform="translate(-14.172 -14.59)"></path><path d="M216.96 198.64c2.962-2.413 12.157-3.234 18.2-1.316 3.16 1.004 4.945 3.453 5.621 5.336 2.594 7.235 2.364 8.613 4.09 11.965 1.035 2.012 2.188 3.887 3.77 6.285 4.785 7.262 11.445 12.098 14.304 18.29 1.403 3.03-.554 9.905-4.656 13.398-4.094 3.492-11.766 4.57-14.21 1.695-10.599-12.438-6.4-27.531-10.61-39.61-1.52-4.363-11.653-1.788-15.567-4.25-2.933-1.843-3.625-9.605-.941-11.792M276.434 300.543c3.687 13.43 8.48 24.488 21.03 28.41-.98 5.29-8.573 28.02-14.105 34.356-1.093 1.253-5.148 3.011-8.379 4.847-11.535 6.563-26.668 13.016-34.703 15.012-4.148 1.027-8.484 1.64-9.984-2.508-1.762-4.87.824-8.648 3.844-9.805 13.472-5.171 18.586-7.207 28.308-11.867 3.551-1.699 5.918-2.136 7.61-5.18 1.047-1.886 1.625-10.788 1.191-21.519-.406-10.078-5.086-23.91 5.188-31.746" style="fill:#fff;fill-opacity:1;fill-rule:evenodd;stroke:none" transform="translate(-14.172 -14.59)" data-source="https://football-logos.cc"></path><!-- source: https://football-logos.cc --></svg>