<svg xmlns="http://www.w3.org/2000/svg" xml:space="preserve" viewBox="0 0 755.91 755.91"><!-- Source: https://football-logos.cc --><path d="M2834.64 5669.29c1565.54 0 2834.65-1269.11 2834.65-2834.64C5669.29 1269.11 4400.18 0 2834.64 0 1269.12 0 0 1269.11 0 2834.65c0 1565.53 1269.12 2834.64 2834.64 2834.64" style="fill:#e9e9e7;fill-opacity:1;fill-rule:evenodd;stroke:none" transform="matrix(.13333 0 0 -.13333 0 755.907)" data-source="https://football-logos.cc"></path><path d="M2834.64 5523.39c1484.95 0 2688.75-1203.8 2688.75-2688.74 0-1484.95-1203.8-2688.748-2688.75-2688.748-1484.94 0-2688.738 1203.798-2688.738 2688.748 0 1484.94 1203.798 2688.74 2688.738 2688.74" style="fill:#171717;fill-opacity:1;fill-rule:evenodd;stroke:none" transform="matrix(.13333 0 0 -.13333 0 755.907)"></path><path d="M1969.66 4575.03V1062.99c-263.73 115.48-500.51 311.81-708.66 594.02v2313.58c206.2 276.52 446.88 466.87 708.66 604.44m1774.48 0V1062.99c263.74 115.48 500.52 311.81 708.66 594.02v2313.58c-206.2 276.52-446.87 466.87-708.66 604.44" style="fill:#ef3032;fill-opacity:1;fill-rule:evenodd;stroke:none" transform="matrix(.13333 0 0 -.13333 0 755.907)"></path><path d="M2834.64 4752.2c1059.04 0 1917.56-858.52 1917.56-1917.55 0-1059.04-858.52-1917.56-1917.56-1917.56-1059.03 0-1917.55 858.52-1917.55 1917.56 0 1059.03 858.52 1917.55 1917.55 1917.55m0 93.8c1110.84 0 2011.35-900.52 2011.35-2011.35 0-1110.84-900.51-2011.361-2011.35-2011.361-1110.83 0-2011.339 900.521-2011.339 2011.361C823.301 3945.48 1723.81 4846 2834.64 4846" style="fill:#e9e9e7;fill-opacity:1;fill-rule:evenodd;stroke:none" transform="matrix(.13333 0 0 -.13333 0 755.907)"></path><path d="M2740.93 4296.09c53.85 11.89 109.1 24.47 165.04 20.28 48.95-5.6 97.2-13.99 143.36-30.77-1.4-20.98-13.29-39.16-20.99-58.04-43.35-3.49-85.31-18.89-129.37-21.68-16.77-2.79-30.77 8.39-44.75 15.38-37.76 20.98-74.83 43.36-113.99 61.55 0 3.49.7 9.79.7 13.28" style="fill:#e3e0e1;fill-opacity:1;fill-rule:evenodd;stroke:none" transform="matrix(.13333 0 0 -.13333 0 755.907)"></path><path d="M2740.93 4296.09c53.85 11.89 109.1 24.47 165.04 20.28 48.95-5.6 97.2-13.99 143.36-30.77-1.4-20.98-13.29-39.16-20.99-58.04-43.35-3.49-85.31-18.89-129.37-21.68-16.77-2.79-30.77 8.39-44.75 15.38-37.76 20.98-74.83 43.36-113.99 61.55 0 3.49.7 9.79.7 13.28z" style="fill:none;stroke:#e3e0e1;stroke-width:.65412199;stroke-linecap:butt;stroke-linejoin:miter;stroke-miterlimit:10;stroke-dasharray:none;stroke-opacity:1" transform="matrix(.13333 0 0 -.13333 0 755.907)"></path><path d="M2673.8 4268.12c19.58 9.09 39.16-4.2 55.95-12.59 38.46-20.28 76.22-41.26 114.68-60.14 9.79-5.59 22.38-9.79 24.48-22.37 6.99-29.38 3.49-60.15 4.89-90.22.7-11.88-11.19-18.88-18.88-25.17-60.14-41.96-118.18-86.71-178.32-128.67-10.49-7.69-20.98 2.8-30.07 6.99-24.47 15.39-50.35 27.97-72.73 46.15-9.09 18.19-4.89 39.87-6.99 59.45.7 54.54-3.5 109.79 6.99 163.63 32.87 21.68 63.64 46.85 100 62.94" style="fill:#e3e0e1;fill-opacity:1;fill-rule:evenodd;stroke:none" transform="matrix(.13333 0 0 -.13333 0 755.907)"></path><path d="M2673.8 4268.12c19.58 9.09 39.16-4.2 55.95-12.59 38.46-20.28 76.22-41.26 114.68-60.14 9.79-5.59 22.38-9.79 24.48-22.37 6.99-29.38 3.49-60.15 4.89-90.22.7-11.88-11.19-18.88-18.88-25.17-60.14-41.96-118.18-86.71-178.32-128.67-10.49-7.69-20.98 2.8-30.07 6.99-24.47 15.39-50.35 27.97-72.73 46.15-9.09 18.19-4.89 39.87-6.99 59.45.7 54.54-3.5 109.79 6.99 163.63 32.87 21.68 63.64 46.85 100 62.94z" style="fill:none;stroke:#e3e0e1;stroke-width:.65412199;stroke-linecap:butt;stroke-linejoin:miter;stroke-miterlimit:10;stroke-dasharray:none;stroke-opacity:1" transform="matrix(.13333 0 0 -.13333 0 755.907)"></path><path d="M3079.39 4271.62c101.4-46.16 183.92-129.38 230.07-230.07 4.2-10.49 7-20.99 9.79-32.17-50.34 31.47-104.19 56.64-154.54 88.11-41.96 34.26-72.02 79.02-108.39 118.18 7.69 18.88 15.38 37.06 23.07 55.95" style="fill:#e3e0e1;fill-opacity:1;fill-rule:evenodd;stroke:none" transform="matrix(.13333 0 0 -.13333 0 755.907)"></path><path d="M3079.39 4271.62c101.4-46.16 183.92-129.38 230.07-230.07 4.2-10.49 7-20.99 9.79-32.17-50.34 31.47-104.19 56.64-154.54 88.11-41.96 34.26-72.02 79.02-108.39 118.18 7.69 18.88 15.38 37.06 23.07 55.95z" style="fill:none;stroke:#e3e0e1;stroke-width:.65412199;stroke-linecap:butt;stroke-linejoin:miter;stroke-miterlimit:10;stroke-dasharray:none;stroke-opacity:1" transform="matrix(.13333 0 0 -.13333 0 755.907)"></path><path d="M2415.06 3915.67c10.49 90.91 55.95 174.13 113.28 244.05 2.81-.69 9.1-1.4 12.6-2.09-6.3-61.54-.7-123.78-2.1-186.02-16.08-38.46-34.97-75.52-52.45-113.28-5.59-12.58-11.19-25.88-21.68-35.67-18.88.7-37.76 6.3-57.34 7.69 1.4 27.98 5.59 56.65 7.69 85.32" style="fill:#e3e0e1;fill-opacity:1;fill-rule:evenodd;stroke:none" transform="matrix(.13333 0 0 -.13333 0 755.907)"></path><path d="M2415.06 3915.67c10.49 90.91 55.95 174.13 113.28 244.05 2.81-.69 9.1-1.4 12.6-2.09-6.3-61.54-.7-123.78-2.1-186.02-16.08-38.46-34.97-75.52-52.45-113.28-5.59-12.58-11.19-25.88-21.68-35.67-18.88.7-37.76 6.3-57.34 7.69 1.4 27.98 5.59 56.65 7.69 85.32z" style="fill:none;stroke:#e3e0e1;stroke-width:.65412199;stroke-linecap:butt;stroke-linejoin:miter;stroke-miterlimit:10;stroke-dasharray:none;stroke-opacity:1" transform="matrix(.13333 0 0 -.13333 0 755.907)"></path><path d="M3137.43 4061.83c10.5 11.88 27.28 3.49 38.47-2.8 44.05-25.18 87.41-52.45 132.17-77.63 9.09-5.59 20.97-10.48 27.97-19.58 17.48-51.74 16.08-106.98 13.29-160.83-47.56-39.17-99.31-74.13-153.15-104.9-7.69-4.89-15.39 3.5-22.38 5.6-30.07 18.18-61.53 33.56-89.51 54.54 4.2 55.25-7.7 110.49-7 166.43 0 24.48-6.28 48.95-8.38 73.43 23.78 20.98 44.75 44.76 68.52 65.74" style="fill:#e3e0e1;fill-opacity:1;fill-rule:evenodd;stroke:none" transform="matrix(.13333 0 0 -.13333 0 755.907)"></path><path d="M3137.43 4061.83c10.5 11.88 27.28 3.49 38.47-2.8 44.05-25.18 87.41-52.45 132.17-77.63 9.09-5.59 20.97-10.48 27.97-19.58 17.48-51.74 16.08-106.98 13.29-160.83-47.56-39.17-99.31-74.13-153.15-104.9-7.69-4.89-15.39 3.5-22.38 5.6-30.07 18.18-61.53 33.56-89.51 54.54 4.2 55.25-7.7 110.49-7 166.43 0 24.48-6.28 48.95-8.38 73.43 23.78 20.98 44.75 44.76 68.52 65.74z" style="fill:none;stroke:#e3e0e1;stroke-width:.65412199;stroke-linecap:butt;stroke-linejoin:miter;stroke-miterlimit:10;stroke-dasharray:none;stroke-opacity:1" transform="matrix(.13333 0 0 -.13333 0 755.907)"></path><path d="M2763.32 3953.44c42.65 30.06 82.51 65.03 127.27 91.6 48.94-20.98 100.69-36.36 150.35-56.64 3.49-37.76 9.08-75.53 8.39-113.99 0-40.55 7.69-80.42 7.69-121.67-44.75-36.37-90.21-73.43-137.07-107.7-72.02 32.87-139.15 76.22-210.48 109.79-12.59 45.46-15.39 92.31-21.68 139.16 20.97 24.48 50.35 39.16 75.53 59.45" style="fill:#e3e0e1;fill-opacity:1;fill-rule:evenodd;stroke:none" transform="matrix(.13333 0 0 -.13333 0 755.907)"></path><path d="M2763.32 3953.44c42.65 30.06 82.51 65.03 127.27 91.6 48.94-20.98 100.69-36.36 150.35-56.64 3.49-37.76 9.08-75.53 8.39-113.99 0-40.55 7.69-80.42 7.69-121.67-44.75-36.37-90.21-73.43-137.07-107.7-72.02 32.87-139.15 76.22-210.48 109.79-12.59 45.46-15.39 92.31-21.68 139.16 20.97 24.48 50.35 39.16 75.53 59.45z" style="fill:none;stroke:#e3e0e1;stroke-width:.65412199;stroke-linecap:butt;stroke-linejoin:miter;stroke-miterlimit:10;stroke-dasharray:none;stroke-opacity:1" transform="matrix(.13333 0 0 -.13333 0 755.907)"></path><path d="M2415.76 3798.19c17.48 4.89 40.56 4.89 53.15-11.19 25.87-30.77 47.55-64.34 72.03-96.5 15.38-18.89 17.48-44.76 17.48-68.53-.7-39.16.7-77.62-.7-116.79-36.36 24.48-59.44 62.94-82.52 98.61-26.57 44.05-45.45 93.7-56.64 144.05-1.4 16.78-9.09 34.27-2.8 50.35" style="fill:#e3e0e1;fill-opacity:1;fill-rule:evenodd;stroke:none" transform="matrix(.13333 0 0 -.13333 0 755.907)"></path><path d="M2415.76 3798.19c17.48 4.89 40.56 4.89 53.15-11.19 25.87-30.77 47.55-64.34 72.03-96.5 15.38-18.89 17.48-44.76 17.48-68.53-.7-39.16.7-77.62-.7-116.79-36.36 24.48-59.44 62.94-82.52 98.61-26.57 44.05-45.45 93.7-56.64 144.05-1.4 16.78-9.09 34.27-2.8 50.35z" style="fill:none;stroke:#e3e0e1;stroke-width:.65412199;stroke-linecap:butt;stroke-linejoin:miter;stroke-miterlimit:10;stroke-dasharray:none;stroke-opacity:1" transform="matrix(.13333 0 0 -.13333 0 755.907)"></path><path d="M3221.36 3677.91c41.25 23.07 78.32 53.15 120.97 74.12-18.18-99.29-72.03-190.9-146.85-258.03-7.7-6.3-13.99-13.99-23.78-15.39-13.28 12.59-24.47 26.57-37.06 39.86 11.19 34.97 29.36 67.13 44.75 100.7 10.49 21.68 18.88 46.85 41.97 58.74" style="fill:#e3e0e1;fill-opacity:1;fill-rule:evenodd;stroke:none" transform="matrix(.13333 0 0 -.13333 0 755.907)"></path><path d="M3221.36 3677.91c41.25 23.07 78.32 53.15 120.97 74.12-18.18-99.29-72.03-190.9-146.85-258.03-7.7-6.3-13.99-13.99-23.78-15.39-13.28 12.59-24.47 26.57-37.06 39.86 11.19 34.97 29.36 67.13 44.75 100.7 10.49 21.68 18.88 46.85 41.97 58.74z" style="fill:none;stroke:#e3e0e1;stroke-width:.65412199;stroke-linecap:butt;stroke-linejoin:miter;stroke-miterlimit:10;stroke-dasharray:none;stroke-opacity:1" transform="matrix(.13333 0 0 -.13333 0 755.907)"></path><path d="M2656.32 3703.08c17.48 10.5 39.16 31.47 60.84 16.79 64.33-39.16 132.17-71.33 197.9-107.69 4.2-31.47 16.08-60.84 18.18-93.01-61.53-40.56-125.17-76.92-188.11-113.99-19.58-11.88-41.96 1.4-60.84 9.1-32.86 17.48-66.43 34.96-94.4 59.43-4.9 59.45-2.1 120.29-2.1 180.42 19.58 20.98 46.16 32.17 68.53 48.95" style="fill:#e3e0e1;fill-opacity:1;fill-rule:evenodd;stroke:none" transform="matrix(.13333 0 0 -.13333 0 755.907)"></path><path d="M2656.32 3703.08c17.48 10.5 39.16 31.47 60.84 16.79 64.33-39.16 132.17-71.33 197.9-107.69 4.2-31.47 16.08-60.84 18.18-93.01-61.53-40.56-125.17-76.92-188.11-113.99-19.58-11.88-41.96 1.4-60.84 9.1-32.86 17.48-66.43 34.96-94.4 59.43-4.9 59.45-2.1 120.29-2.1 180.42 19.58 20.98 46.16 32.17 68.53 48.95z" style="fill:none;stroke:#e3e0e1;stroke-width:.65412199;stroke-linecap:butt;stroke-linejoin:miter;stroke-miterlimit:10;stroke-dasharray:none;stroke-opacity:1" transform="matrix(.13333 0 0 -.13333 0 755.907)"></path><path d="M2943.73 3493.3c10.49 9.09 25.88 6.29 38.46 7.69 41.96 0 83.91 10.49 125.17 3.5 15.39-13.99 27.98-30.07 41.26-45.46-64.33-48.95-142.65-74.83-221.67-84.61-48.95 0-99.3-5.6-146.86 10.49 1.4 2.09 3.5 6.29 4.9 9.08 53.14 32.17 107.7 63.64 158.74 99.31" style="fill:#e3e0e1;fill-opacity:1;fill-rule:evenodd;stroke:none" transform="matrix(.13333 0 0 -.13333 0 755.907)"></path><path d="M2943.73 3493.3c10.49 9.09 25.88 6.29 38.46 7.69 41.96 0 83.91 10.49 125.17 3.5 15.39-13.99 27.98-30.07 41.26-45.46-64.33-48.95-142.65-74.83-221.67-84.61-48.95 0-99.3-5.6-146.86 10.49 1.4 2.09 3.5 6.29 4.9 9.08 53.14 32.17 107.7 63.64 158.74 99.31z" style="fill:none;stroke:#e3e0e1;stroke-width:.65412199;stroke-linecap:butt;stroke-linejoin:miter;stroke-miterlimit:10;stroke-dasharray:none;stroke-opacity:1" transform="matrix(.13333 0 0 -.13333 0 755.907)"></path><path d="M2855.03 2973.68c28.68-17.49 72.73-21.68 83.92-58.04-17.49 9.79-33.57 22.37-51.75 30.76 6.3-26.57 30.08-42.66 43.36-65.73-13.99 5.59-26.58 13.29-39.87 20.98 13.29-36.36 46.86-58.74 68.54-89.51-36.37 6.29-67.83 33.57-82.52 66.43-10.49 30.77-14.69 63.64-21.68 95.11m402-1353.75c-10.49 13.99-28.67 20.98-45.46 23.08 17.48-23.08 39.87-48.95 30.77-80.42-15.39-46.15-59.44-92.3-39.86-143.36 18.18 9.09 37.06 18.18 52.45 33.57 16.78 19.58 14.69 47.55 15.38 72.03 0 32.17 2.81 66.43-13.28 95.1m79.01-243.35c-11.88 18.18-29.36 32.16-45.44 46.85-13.3-17.48-32.17-28.67-51.75-38.47 20.97-13.98 41.26-30.06 65.73-39.16 17.48-5.58 28.67 16.09 31.46 30.78m-61.29 334.87c-32.3.14-69.04 17.43-103.3 37.71-2.15-13-6.35-21.2 9.78-35.32 1.18-.76-2.5-11.95 1.66-19.75.79-1.49 4.75 15.85 6.17 15.07 3.86-2.11 7.65-3.89 11.4-5.48-.51-6.54-.28-7.83 1.43-12.83.5-1.46 5.48 10.1 6.91 9.59 13.33-4.8 26.09-7.88 38.68-14.17 19.31-18.37 12.03-27.22 10.91-39.16-40.56-6.3-76.64 23.08-115.1 30.77-2.17-20.97 19-21.63 32.34-31.33 16.72-12.17 36.99-31.26 50.12-46.95 7.7-25.16.94-48.57-13.75-70.24-22.37-34.27-37.25-75.26-33.76-115.81-15.38-13.99-40.93-12.31-46.51-36.78-4.2-33.57-5.23-86.82 34.63-86.99 3.43 9.44 2.4 21.86-1.99 31.92-4.25 9.76-14.57 21.21-13.43 42.94.79 15.38 18.91 17.44 34.3 19.54 18.18-47.56 8.39-101.4-22.38-141.96 18.18-11.89 51.05-6.99 51.05 18.18-2.09 37.06 11.19 72.02 11.19 109.1 25.31-17.08 50.02-33.86 78.32-40.56-.7-32.17 15.39-60.15 30.77-86.72-9.22-6.27-29.26-1.69-44.27.12-16.02 1.92-33.51-7.67-31.86-30.37 19.21-5.55 38.37 2.97 58.65 2.97 24.47.71 53.1-8.38 75.48-16.77-19.58-50.35-61.59-65.2-113.9-70.14-15.39-2.8-117.44 19.06-198.31 40.4-4.69 1.76-9.02 2.82-12.98 3.3-11.59 4.36-22.77 9.51-32.25 17.34-20.28 15.39-34.26 36.36-53.15 52.45-16.78 13.98-36.36 23.78-50.34 40.56-10.49 41.25 16.78 82.51 3.5 123.07-9.1 39.86-39.87 71.33-46.86 111.89-12.59 47.55 2.1 96.51 17.48 141.96 17.48 42.65 25.18 88.11 44.06 130.77 16.78 37.76 5.59 79.72 9.79 119.58 34.27 7.68 65.03 23.77 93.71 43.36 25.87 17.48 23.08 58.74 53.84 70.62 25.17 11.19 50.35 20.98 75.52 30.76-15.38 8.4-31.46 17.49-44.05 29.38 6.29 12.59 14.68 23.78 21.68 35.66-37.76-10.48-65.04-37.76-94.4-61.53 5.58 35.66 15.38 71.33 9.78 107.69-25.17-47.55-23.78-106.29-58.74-148.95-13.29-18.18-37.06-20.98-57.34-24.48 0 29.37-2.79 58.75 2.79 87.41 17.49 27.98 44.06 50.35 53.16 83.22 4.89 36.36-7.01 78.32 17.48 110.49 18.87 22.37 46.15-3.49 69.93.7 23.07 4.9 46.84 16.78 58.04 38.46-25.87-8.39-53.15-12.59-79.72-8.39 25.17 20.29 51.04 39.86 73.42 62.93-51.74-32.86-112.58-47.55-165.73-78.32-11.89-8.39-23.07-18.17-31.47-30.07-16.09-30.06 11.19-76.22-22.37-97.19-18.19 21.68-25.88 50.35-32.88 76.92-8.38 29.37 2.81 60.84-11.19 88.81-11.18 32.17-45.45 48.25-59.43 78.32-13.29 25.18-13.29 55.24-30.07 78.32-2.8-63.63 26.57-123.08 27.97-186.02-37.76 17.49-55.95 60.84-95.11 73.43 10.5-83.21 103.5-119.58 126.58-197.21 3.49-27.26 2.09-55.93-1.4-83.21-5.6-25.87 0-53.14-13.29-76.92-17.48 20.98-36.36 42.66-41.96 70.63-4.89 24.48-9.09 48.96-13.28 73.43-4.2-1.41-7.69-2.1-11.19-3.5 4.19-20.98 4.89-42.65 2.79-63.64-21.67 19.59-35.66 46.16-58.74 63.64 18.18-52.45 61.54-95.1 69.23-151.74-14.68 0-28.66-1.4-43.35 0-25.18 28.67-36.36 66.42-55.94 98.6-14.69 20.98-39.16 31.46-61.54 42.66-4.89 24.47-10.49 50.34-28.67 69.22-23.08 23.77-35.67 58.04-66.43 74.13 5.59-19.58 17.48-36.37 25.17-54.55 13.28-27.27 18.88-56.64 29.37-85.31-23.78 6.29-47.55 13.28-70.63 20.28-1.4 19.58 0 39.86-2.1 59.44-9.79-16.08-13.28-34.96-18.88-52.45l-6.99 2.1c-.7-6.29-1.4-18.88-1.4-25.18 43.35-24.47 94.4-34.26 136.36-61.53 44.75-30.08 26.58-95.81 62.24-132.17 25.17-15.39 54.55-25.18 83.92-25.18 29.37 1.4 48.25-27.96 54.54-53.14-.7-25.88-26.57-41.96-35.67-65.04-3.49-18.88 1.4-39.16-6.29-58.04-8.39-24.47-23.78-46.15-33.57-70.63-13.28-32.17-25.86-65.03-44.75-93.7-21.68-32.87-13.99-74.13-1.4-108.4 12.59-30.07 11.19-62.93 9.79-94.4-1.4-25.18-12.59-48.95-9.79-74.83 2.8-26.57 25.88-51.75 14.69-78.32-16.79-24.47-35.66-48.94-60.14-65.73-30.07-11.19-58.74-26.57-88.82-36.36.42-.22.84-.46 1.25-.68-56.96-17.72-111.1-17.61-123.24-15.4-52.31 4.93-109.74 30.07-129.32 80.42 22.37 8.39 51 17.48 75.48 16.77 20.28 0 39.44-8.52 58.64-2.97 1.66 22.7-15.83 32.29-31.86 30.37-15.01-1.81-35.05-6.39-44.27-.12 15.39 26.57 31.47 54.55 30.77 86.72 28.31 6.7 53.01 23.48 78.33 40.56 0-37.08 13.28-72.04 11.18-109.1 0-25.17 32.87-30.07 51.05-18.18-30.77 40.56-40.55 94.4-22.38 141.96 15.39-2.1 33.52-4.16 34.31-19.54 1.12-21.73-9.18-33.18-13.43-42.94-4.39-10.06-5.43-22.48-1.99-31.92 39.85.17 38.82 53.42 34.63 86.99-5.59 24.47-31.14 22.79-46.52 36.78 3.49 40.55-11.38 81.54-33.76 115.81-14.68 21.67-21.44 45.08-13.75 70.24 13.14 15.69 33.4 34.78 50.12 46.95 13.35 9.7 34.51 10.36 32.35 31.33-38.46-7.69-74.55-37.07-115.11-30.77-1.12 11.94-8.39 20.79 10.91 39.16 12.59 6.29 25.35 9.37 38.68 14.17 1.43.51 6.41-11.05 6.91-9.59 1.72 5 1.95 6.29 1.43 12.83 3.75 1.59 7.55 3.37 11.41 5.48 1.42.78 5.38-16.56 6.17-15.07 4.15 7.8.47 18.99 1.65 19.75 16.14 14.12 11.94 22.32 9.79 35.32-34.27-20.28-71.01-37.57-103.3-37.71-30.08 3.49-54.55-16.09-77.63-31.47-19.73-19.15-49.21-63.98-50.82-91.99 9.75 1.23 34.97 13.76 41.73 19.27-.69-13.29-1.55-33.02-8.82-45.04-14.06-23.28-38.03-26.29-54.12-47.97-10.48-11.19-17.48-27.97-33.56-31.47-49.65-11.19-96.5-48.26-105.6-100.7-3.49-33.56-5.59-69.93 10.49-100.7 10.5-24.47 30.77-44.05 50.35-60.84 24.48-22.37 32.17-56.64 52.45-81.82 49.65-69.93 141.71-108.39 224.47-89.51 44.09 10.06 85.57 18.57 116.66 54.85 1.27 1.22 2.42 2.37 3.24 3.19 2.1 2.1 6.99 6.3 9.09 7.69 20.98-.7 41.26-8.38 59.44-18.87-11.19-7-23.07-13.29-34.97-19.58 35.67 0 71.34 0 107-6.99 28.67-11.9 57.35-27.98 89.51-32.17 30.07-1.41 60.84-2.1 90.91 4.89 34.97 6.99 69.93.7 104.89-2.1 29.37 5.6 58.75 5.6 88.82 5.6-.71 2.79-2.8 8.38-3.5 10.48-47.56 11.2-102.8 7.7-142.65 41.96 24.47 10.5 51.74 14.68 78.32 10.5 8.99-1.13 17.98-5.87 26.98-4.78 59.79-30.36 139.36-60.21 190.67-59.42 68.93 1.05 137.75 37.17 178.28 94.26 20.29 25.18 27.97 59.45 52.45 81.82 19.58 16.79 39.86 36.37 50.36 60.84 16.07 30.77 13.97 67.14 10.48 100.7-9.09 52.44-55.94 89.51-105.59 100.7-16.09 3.5-23.08 20.28-33.58 31.47-16.08 21.68-40.04 24.69-54.11 47.97-7.26 12.02-8.12 31.75-8.82 45.04 6.77-5.51 31.98-18.04 41.73-19.27-1.6 28.01-31.09 72.84-50.82 91.99-23.07 15.38-47.56 34.96-77.62 31.47m64.47-37.54c16.76-7.6 28.78-21.51 36.58-41.07-18.75 6.7-32.49 25.7-36.58 41.07m-72.43 23.14c9.09 0 17.32 4.45 24.65.76 5.86-2.98 9.95-14.07 11.19-20.54-7.96-1.5-15.54-3.56-22.4-.37-7.53 3.48-11.07 12.18-13.44 20.15m-99.98-561.64c-33.49.57-74.79 15.99-94.92 18.78-4.16-2.11-8.29-4.33-12.41-6.7 1.55-17.97 41.72-46.81 96.79-54.21 1.22 16.66 4.17 29.52 10.54 42.13m-385.9 1801.9c9.79 6.3 22.38 3.5 33.56 4.9 8.4-18.18 11.19-41.26-2.8-57.34-30.76-13.99-45.45 31.47-30.76 52.44m196.5-57.34c-13.29 24.48.7 64.34 32.17 62.94 17.48-19.58 17.48-44.76 6.29-67.14-13.28-2.79-27.97-7.69-38.46 4.2m65.03-6.99c11.9 33.57 52.45 32.87 81.83 31.47 23.77-2.1 55.94-5.6 64.32-31.47-21.67-6.3-43.35-11.89-66.42-9.1-21.68 2.8-41.26-6.99-62.25-9.79 16.1 17.49 38.47 25.88 58.05 38.47-26.57-1.4-50.35-13.29-75.53-19.58m-417.47-8.39c27.97 25.87 61.53 43.35 97.9 55.24-.7-2.8-1.4-9.09-2.1-11.89-6.3-4.19-11.89-8.39-18.18-12.59 5.59-.69 16.08-3.49 21.67-4.19v-15.39c-16.08 0-32.17-1.39-48.25-1.39 8.39-8.39 15.39-18.19 23.08-27.98-22.38 2.8-46.85 2.8-65.74 16.09zm196.5-29.37c6.29 18.88 13.28 39.86 34.26 46.85-.7-15.39-2.8-30.77-6.3-46.15-9.08 0-18.87-.71-27.96-.7m162.23-16.09c2.1 4.2 6.3 12.59 8.4 16.08 23.77-6.29 50.34-13.27 66.43-34.26 20.28-25.18 36.36-53.85 55.24-79.72-39.85 6.29-79.72-3.49-119.58-2.8 6.3-9.08 12.59-18.18 17.49-27.97-16.79-.7-33.57-1.39-50.35-.7-.7 5.59-1.4 11.89-1.4 17.49 10.49 4.19 21.67 9.08 32.17 13.98-34.97 15.38-54.55 50.35-63.64 86.02 24.48-12.59 32.17-40.57 54.55-55.95-.71 12.59-2.8 24.47-3.5 37.06 16.78-16.08 32.17-34.27 53.15-45.45-6.3 15.38-13.29 30.76-19.58 46.16 17.48-15.4 31.46-36.37 53.14-45.46-7.69 23.07-15.39 48.95-37.06 62.94-12.59 9.78-30.07 9.09-45.46 12.58m-302.79-6.29c23.07 13.29 50.34 8.39 74.82-.01.71-3.49 2.8-10.48 3.5-13.98-23.08 2.1-47.55 5.6-71.33 0-14.68-6.99-27.27-17.48-37.76-30.07 25.88 2.8 51.74 12.59 77.62 4.89-25.87-9.78-53.84-15.38-79.02-25.86 25.87-10.49 53.85-9.8 81.82-10.49v-2.88h.01v-1.74l.01-.31v-.62h.01v-.62h.01v-.65l.01-.32v-.32l.01-.33.01-.32v-.33l.01-.33v-.32l.01-.34.01-.32.01-.33.01-.32.01-.33.01-.32.02-.33.01-.32.01-.31.02-.32.01-.32.02-.31.01-.3.02-.31.01-.3.02-.29.02-.3.02-.29.02-.28.02-.28.02-.28h.01l.02-.26.02-.27.03-.25.02-.25.03-.25.03-.23.02-.24.04-.22.03-.22.03-.21.02-.2c-53.84-11.88-109.08 3.5-160.13 20.28 39.16 20.98 71.33 52.45 109.79 73.43m434.27 7.69c8.38.7 17.48 1.41 25.86 2.1 7.7-17.48 8.39-35.66 1.4-53.85-9.78 1.4-18.88 2.1-27.26 3.5-7 16.08-7 32.87 0 48.25m-518.89-5.6c9.79.71 20.28 1.4 30.07 2.1-.7-4.19-2.09-11.88-2.8-16.08-9.78-1.4-18.88-2.79-28.67-4.2v.24l.01.24v.49l.01.25v.27l.01.26.01.26v.29l.01.27.01.28.02.29.01.29.01.29.01.3.01.3.02.3.01.31.02.31.02.31.02.31.01.31.02.32.02.32h.01l.02.31.02.32.01.31.02.33h.01l.02.32.02.32.03.31.02.33.03.32.02.31.03.32.02.33.03.31.03.31.02.31h.01l.02.32h.01l.02.3.03.3.03.3.03.31.03.3.03.28.03.3.03.29.03.28.03.28.03.27.03.27.04.27.03.26.03.25.04.25.02.24.04.25.03.23.03.22.04.23.03.21.03.21zm286.01 0c35.67 11.9 40.56-65.03 4.2-57.34-22.38 9.8-23.78 45.46-4.2 57.34m288.12.71c6.29-.71 13.28-.71 19.58-.71 1.4-13.28 2.09-25.86 2.79-38.45-6.99 1.39-13.98 2.1-20.97 3.49-.71 11.89-.71 23.77-1.4 35.67m-372.03-23.08c3.5.69 11.19 1.4 15.38 1.4-.69-6.29-1.4-13.28-2.1-20.29-7.69-1.39-15.38-2.79-23.07-4.89 2.8 8.39 6.29 16.09 9.79 23.78m303.49-116.08c8.39 37.06 46.86 66.43 85.32 62.23 14.68.7 29.37 0 44.75-.7-24.47-23.77-40.55-53.14-59.44-80.42-6.99-13.28-23.08-16.08-36.36-19.58 19.58 22.38 39.16 45.46 51.75 72.74-27.97-13.3-37.07-51.06-69.23-56.66 14.68 29.38 40.56 49.66 62.24 74.14-30.07-11.2-53.16-33.57-79.03-51.75m-369.92-32.87c33.56 56.65 97.2 103.49 165.73 94.4 0-2.09.7-6.29.7-8.39-13.28 0-25.87-.69-39.16-1.39 1.4-6.3 2.79-13.3 3.49-19.58-12.58-3.5-25.87-6.3-39.16-9.1-5.59-5.59-11.19-11.19-16.78-17.48 13.99 2.1 27.97 4.9 41.96 7.69 0-4.89-.7-13.28-.7-18.18-3.5.7-11.19.7-15.38 1.4-18.89-3.49-39.87-5.59-54.55-19.58 39.16-6.99 77.62 4.19 114.68 16.09-40.55-45.46-107.69-41.97-160.83-25.88m448.25-22.38c17.48 53.85 76.22 88.81 132.16 82.52-20.97-25.17-27.97-58.75-42.65-88.11-13.99-25.18-46.86-26.57-72.03-21.68 18.18 13.29 41.26 20.28 56.65 37.76 11.18 13.28 18.87 29.37 26.57 44.76-18.88-6.99-41.96-5.6-56.65-20.99-13.99-11.88-27.97-25.16-44.05-34.26m-132.87 71.33c5.6 7.7 15.38 5.6 23.08 2.79 14.68-18.87 10.49-43.35 2.79-64.33l-35.66 2.1c0 19.58-9.79 46.15 9.79 59.44m-370.63-14.69c7.69 2.81 16.09 4.2 23.78 5.6 5.59-15.38 16.08-30.07 13.98-46.86-2.79-11.88-7.69-22.37-12.59-34.26-13.28 0-27.27 0-33.56 13.29-2.8 20.97-6.29 45.45 8.39 62.23m274.13-24.47c3.5 0 10.49 0 14.68-.7 10.5-23.78 20.98-48.25 39.17-67.83-1.4 20.28-6.3 40.56-7.7 60.84 22.38-23.08 28.67-55.25 44.05-82.52 2.81 10.49 5.6 20.98 9.1 31.47 10.49-17.48 17.48-37.07 16.08-58.05-22.37 4.9-47.56 8.39-64.34 25.88-26.57 23.78-41.95 57.35-51.04 90.91m-422.38-58.74c-7.69 25.18 5.6 62.24 38.46 54.54 4.2-23.07 2.1-46.15-6.99-67.83-11.19 2.1-29.37-3.5-31.47 13.29m80.42-4.89c-6.29 22.37-10.49 49.64 5.59 69.92 5.6-25.87 9.09-51.75 13.99-77.62 5.6 7.7 10.49 16.09 16.09 23.77 6.29-31.46 16.08-61.53 25.87-91.6-33.57 11.18-50.35 44.05-61.54 75.53m689.51 50.34c4.89 0 15.38-.7 20.98-.7 2.09-8.39 4.89-17.48 6.99-27.27h-18.19c-3.49 9.09-6.99 18.88-9.78 27.97m-428.67-22.37c42.65 16.77 48.95-78.32 4.2-70.64-27.28 10.49-27.28 55.25-4.2 70.64m234.97-13.29h17.48v-20.98h-16.79c0 6.99 0 13.98-.69 20.98m-187.41-7.69c4.89 1.4 13.98 4.89 18.87 6.99 8.39-19.58 16.09-39.16 15.38-60.84-27.26 2.8-25.87 34.26-34.25 53.85m-177.63-13.98c16.08 2.09 32.17 1.39 48.25-2.11-11.19-8.39-23.08-15.38-35.66-20.28-4.2 7.7-8.4 15.38-12.59 22.39m406.99-58.05c-8.39 20.28-10.49 44.76 4.19 62.94 23.09-11.19 25.18-36.37 17.49-58.05-6.99-2.1-14.69-3.49-21.68-4.89m129.37 44.05c8.39 4.9 18.88 2.1 28.67 3.5 12.59-20.98 14.69-45.45 1.4-66.43-9.09 0-18.18 0-27.27-.7-11.89 18.18-17.48 44.76-2.8 63.63m-556.64-7.68c2.8 0 8.39.69 11.19 1.39-2.8-16.78-7-32.87-11.89-48.95 4.89-2.09 14.68-6.99 18.88-9.09-8.39-25.87-17.48-52.45-18.18-80.42 28.67 24.48 39.16 60.84 52.45 94.4 12.58-53.14-26.58-95.8-50.35-138.46-3.5-.69-9.79-.7-13.29-1.39-6.99 32.17-16.09 63.63-13.99 96.5 0 30.77 16.09 57.34 25.18 86.02m-288.11-46.86c28.67 21.68 62.24 47.55 100.7 39.16 3.49-5.59 6.29-10.49 9.79-16.08-25.18-3.5-58.04 4.89-71.33-23.78 7.7.7 24.47 1.39 32.17 1.39-.7-2.79-2.8-9.78-4.2-12.58-20.98 11.19-44.05 12.58-67.13 11.89m897.9 20.27c4.19 0 12.58.71 16.78.71 0-6.99 0-14.69-.7-22.38-3.5.7-10.49 2.09-13.29 2.8-1.39 6.3-2.1 12.59-2.79 18.87m-255.24-51.73c6.29 19.57 18.87 36.35 34.26 49.64 0-.62-.01-1.25-.03-1.86-.01-.62-.03-1.24-.05-1.86-.03-.61-.07-1.23-.11-1.84-.05-.61-.09-1.22-.15-1.84l-.18-1.82c-.07-.61-.14-1.21-.22-1.82-.09-.61-.17-1.2-.26-1.81-.09-.6-.19-1.2-.3-1.79l-.32-1.8-.35-1.79-.38-1.78-.42-1.77-.44-1.77-.46-1.76h-.01l-.49-1.76-.5-1.75-.54-1.75-.56-1.74-.57-1.74-.59-1.74-.61-1.73h-.01l-.61-1.73-.64-1.73-.64-1.72-.65-1.73h-.01l-.67-1.72-.66-1.72-.69-1.72-.68-1.71-.68-1.72-.7-1.73-.68-1.72-.69-1.72-.69-1.72-.67-1.73-.68-1.72-.67-1.73-.66-1.73-.66-1.74-.63-1.74-.64-1.74-.61-1.74-.6-1.75-.58-1.76-.57-1.77-.55-1.77-.52-1.76-.5-1.78-.48-1.79-.46-1.79-.43-1.8-.4-1.81-.37-1.81-.34-1.83c-.11-.61-.21-1.22-.3-1.84-.1-.61-.2-1.22-.28-1.83l-.24-1.86c-.07-.61-.15-1.24-.21-1.86s-.11-1.25-.16-1.87c-.05-.63-.09-1.26-.13-1.88-.04-.64-.07-1.26-.09-1.9-.02-.62-.04-1.27-.05-1.9v-1.92c.01-.64.02-1.28.04-1.92 2.8-3.51 7-11.19 9.8-14.69 7.69 19.58 16.08 39.16 20.28 60.14 4.2.69 11.88 1.4 16.08 2.1-6.99-23.78-18.18-46.15-26.57-69.93 44.05 20.28 57.35 70.62 59.44 115.38 8.39-37.06 5.59-81.82-23.08-109.79-23.78-16.78-49.65-30.77-69.92-51.74 2.79 44.05-8.4 90.2 8.39 132.87m-246.86-30.08c-4.89 29.37-11.88 59.44-4.89 88.11 18.18-28.67 18.88-62.94 32.17-93.71 2.79 11.9 7.68 23.08 12.58 34.27 6.29-20.98 7.69-43.36 10.49-65.73 7.7 15.38 13.28 31.46 20.98 46.15 4.2-33.56 4.89-67.83 3.49-101.4-9.09-1.39-16.77.71-23.07 7.7-24.47 22.37-46.85 50.35-51.75 84.61m159.44 3.49c-11.89 21.68-20.28 62.94 11.89 70.64 30.77-7.7 28.67-46.15 19.58-69.93-10.49-.71-20.98-.71-31.47-.71m-409.09 60.84c7.7-37.06-.7-75.52 5.6-112.58 6.29-13.29 12.59-26.58 18.18-40.56-16.79 10.49-33.57 23.77-39.16 43.36-4.2 30.07-2.1 60.84 0 90.91l.17.03-.17-.03c4.89 6.29 9.79 12.59 15.38 18.87m33.57-23.77c9.09 10.49 23.78 5.59 32.87-2.1 11.88-16.78 6.29-41.96-9.09-55.24-33.57-7.69-43.36 37.06-23.78 57.34m623.78 3.5c15.38-6.99 28.67-17.49 44.05-25.18 29.36-4.89 52.44 18.88 79.72 26.58-14.68-34.27-57.35-55.95-93.01-42.66-16.78 7.69-27.27 23.77-30.76 41.26m-642.34-1383.21a57.7 57.7 0 0 1-5.33 8.03c-29.45-7.41-60.15-10.7-92.66-12.61 6.37-12.62 12.25-25.47 10.54-42.13 42.08 14.28 71.57 29.81 87.45 46.71m338.14 1362.93c27.27-28.67 20.97-71.33 32.87-106.3 4.89 17.49 7.69 36.37 9.78 55.24l3.5-.69c-.69-38.47.7-86.02-37.06-109.09q.36 1.26.69 2.52c.23.85.43 1.69.64 2.53q.3 1.26.57 2.52c.19.84.36 1.68.53 2.52s.32 1.68.47 2.52c.16.83.29 1.67.43 2.51.13.84.25 1.68.37 2.52s.22 1.68.32 2.52c.11.84.2 1.67.29 2.51.07.84.15 1.68.23 2.52.07.84.13 1.68.19 2.51a225 225 0 0 1 .25 5.03c.03.84.05 1.68.07 2.52l.03 2.51c0 .84 0 1.68-.01 2.51-.01.84-.02 1.68-.04 2.51l-.08 2.52c-.03.83-.06 1.67-.11 2.51l-.13 2.51-.17 2.51-.2 2.51-.21 2.51-.24 2.5-.28 2.51-.28 2.51-.31 2.51-.33 2.51h-.01l-.34 2.51-.36 2.5-.37 2.51-.39 2.51-.4 2.51-.4 2.51-.42 2.5-.42 2.51-.43 2.51-.44 2.51-.43 2.51h-.01l-.43 2.51-.44 2.5-.43 2.52-.43 2.5-.43 2.51-.42 2.5-.41 2.51-.4 2.52-.39 2.51-.38 2.51-.36 2.51-.35 2.52-.34 2.51-.31 2.51-.29 2.52-.28 2.52-.25 2.51-.22 2.52h-.01l-.2 2.52-.17 2.52-.15 2.52-.12 2.52-.08 2.52-.05 2.53c-.01.84-.02 1.68-.02 2.52m-569.93-132.17c25.87 46.85 55.24 94.4 101.4 123.78-4.2-11.19-6.3-23.78-8.39-35.68-16.78-7.68-30.07-19.57-43.36-32.86 11.89 2.81 23.08 5.6 34.96 7.7-15.38-17.48-37.06-27.98-50.34-46.86 18.18 4.9 35.66 11.19 54.54 14.69-20.98-27.27-58.04-29.37-88.81-30.77m146.15 93.01c-4.89 13.98 13.99 17.48 21.68 23.78-.7-14.69-4.2-27.98-21.68-23.78m709.09 22.37c16.08-5.6 34.97-10.49 38.47-30.07h-25.18c-4.89 9.8-9.09 19.58-13.29 30.07m143.36-6.99c11.19 2.8 21.68 6.99 32.87 4.2 8.39-7.7 14.68-16.79 20.97-26.57-4.9-.71-15.38-2.1-20.28-2.81 0 4.2 0 13.29.71 17.49-11.89 2.8-23.08 4.9-34.27 7.69m-699.3-38.46c4.2.69 11.89 2.1 15.38 2.79.71-7.68.7-16.08 1.4-24.47-4.89 0-13.99.7-18.88 1.4.7 7 1.4 13.29 2.1 20.28m687.41 18.18c16.78-15.39 34.96-30.77 45.45-51.74 13.99-32.87 12.59-69.24 23.08-103.5-24.47 15.38-47.55 32.86-72.03 47.55-33.57 18.88-61.54 55.95-55.24 95.8 18.88-35.66 43.35-67.83 76.92-90.91-5.59 18.19-14.69 35.67-21.67 53.15 11.88-6.29 23.07-22.38 38.45-14.68-11.19 22.37-24.47 42.66-34.96 64.33m-355.24-9.79c8.39-9.09 13.98-20.27 18.88-31.47 4.89 4.9 9.79 9.79 14.68 13.99-.7-23.78-1.4-47.55-4.2-72.03-2.79 0-8.38-.7-11.19-1.4-11.18 29.38-16.77 60.14-18.17 90.91m-393.01-13.98c4.89 0 15.38.7 20.28 1.39v-1.28l-.01-.43v-.42l-.01-.43v-.43l-.01-.42-.01-.43-.01-.42-.01-.43-.01-.43-.01-.42-.01-.42-.01-.42-.02-.43-.01-.43h-.01l-.01-.42-.02-.43-.02-.42-.01-.43-.02-.43-.02-.42-.02-.43-.02-.43-.02-.43-.02-.42-.02-.43-.03-.42-.02-.43-.02-.42-.02-.43-.03-.43-.03-.42-.02-.43-.03-.43-.03-.42-.02-.43-.03-.43-.03-.42-.03-.43-.03-.42-.02-.43-.04-.43-.03-.42-.03-.43-.02-.43-.03-.42-.04-.43-.03-.43-.03-.42-.03-.43-.03-.42-.03-.43-.03-.43-.04-.42-.03-.43-.03-.42-.04-.42-.03-.43-.03-.43-.03-.42-.03-.43-.04-.43c-6.3 8.39-12.58 16.78-18.88 25.88m598.6 2.8c10.49 13.98 27.97 0 32.16-12.6 6.3-19.57 7-48.24-16.08-58.04-8.39-6.99-18.17 6.29-23.77 11.89-13.29 18.18-9.79 44.75 7.69 58.75m-699.99-15.39c18.17 13.98 43.35-6.99 44.05-26.57 2.8-23.08-16.09-47.56-39.86-46.16-22.38 17.48-26.58 53.85-4.19 72.73m772.02-17.48c23.07-13.99 32.16-41.26 26.57-67.14-16.08 18.89-22.37 43.36-26.57 67.14m-671.33-33.57c16.08-22.38 11.19-52.45 25.88-75.52 1.39 14.68 1.39 29.37 1.39 44.05 2.8-.7 9.1-.7 11.89-1.4 0-18.18 2.1-36.37 7.69-53.85 6.3 4.91 12.59 9.1 19.58 13.99 1.41-17.48 2.8-34.26 6.3-50.34 13.28 32.86 1.39 67.13 2.09 101.39 4.9-7.69 9.09-14.68 12.59-22.38 3.5-43.35 1.4-86.01-.69-129.37-27.28 20.29-52.45 43.36-72.03 71.33-19.58 30.07-17.48 67.84-14.69 102.1m583.21-15.39c17.49-16.08 29.38-36.37 44.06-54.54 10.49-7.69 23.77-11.89 34.97-17.48-5.6 20.98-10.49 43.35-9.1 65.03 25.88-30.07 14.69-71.33 16.79-107.69-39.16 27.27-83.92 62.24-86.72 114.68m-782.51-13.28c6.99 0 13.99-.7 20.98-.7 1.4-14.69 2.1-30.07 1.4-44.76-16.08 9.8-20.28 27.98-22.38 45.46m92.31-24.48c6.99 0 13.99 0 20.98-.7-.7-7.69-.7-15.39-.7-23.07-6.29.7-12.59 1.4-18.18 1.4-.7 7.69-1.4 14.67-2.1 22.37m830.77-13.28c6.29 7.69 24.47 6.29 28.66-2.81 13.99-21.67 14.69-56.64-9.79-71.31-34.96 2.79-44.75 53.14-18.87 74.12m-887.41-40.56c-2.1 13.98 9.79 23.08 18.17 32.86 2.11-25.87.71-51.75 2.8-77.62 6.3 13.29 12.59 26.58 20.29 39.16 4.89-27.96-.71-57.34 1.39-86.01-.7-27.28 6.99-54.54 4.89-81.82-23.77 20.28-23.77 53.85-28.66 81.82-3.5 31.46-22.38 59.44-18.88 91.61m-41.96 29.37c-11.19-34.97-4.2-72.03-9.79-107.69-7.33 17.3-13.54 25.85-24.48 26.57-.7-22.38.7-45.46-7.69-66.43l2.8-11.19c-40.95 18.9 1.02 128.31 39.16 158.74m759.44.7c-.71-2.8-.71-9.09-1.41-12.59 8.4-34.27 5.61-69.93-4.89-103.5-30.5 15.27-41.92 77.37-39.16 109.1 12.03-16.4 15.03-31.28 27.27-49.66 0 12.72 10.58 45.9 18.19 56.65m-417.48-48.25h13.98c7.7-28.68 19.58-57.35 14.69-88.12-20.98 24.47-21.69 58.04-28.67 88.12m638.45-18.89c6.29-.69 12.59-2.1 19.58-2.79 0-9.8.71-18.89 1.4-28.67-6.29 1.39-13.28 2.09-19.58 2.79-.69 9.79-.69 19.59-1.4 28.67m-978.31-48.25c4.19 13.99 14.68 24.48 23.07 35.66 21.68-13.28 20.28-40.55 16.08-62.93-7.68-11.19-20.97-4.9-31.46-4.2-2.8 10.49-6.3 20.98-7.69 31.47m781.81-5.59c12.59 16.08 15.38 52.44 44.05 44.76 27.98-.71 29.38-34.97 18.89-53.85-4.2-3.5-12.59-9.79-16.79-13.29 2.8-9.09 6.3-18.18 9.8-26.57l-4.9 1.39c-20.28-3.49-25.88-21.68-30.77-39.16-11.19 30.77-27.27 62.24-24.48 95.11zm18.89 31.47v-.79zm.23-7.08.05-.78zm.84-8.64.11-.78zm.55-3.91.12-.78zm.91-5.46.14-.78zm101.66 11.1h17.48c2.1-10.49 6.99-20.28 6.29-30.77 3.5-4.89 9.79-14.69 13.29-20.28 1.4 13.29 2.1 25.88 2.1 38.46 3.49 0 9.79 0 12.58.7l.71-5.59v-.01c16.08-31.46 29.36-65.73 29.36-102.79-29.36 12.59-46.15 40.56-62.23 65.74-8.39 17.48-14.69 35.66-19.58 54.54m-18.19-35.66c4.2 0 12.59.69 16.79 1.4v-23.78c-4.2 0-13.29.7-17.48 1.39v4.6l.01.32v1.31h.01v.99h.01v.33l.01.32v.66l.01.33.01.32v.33l.01.34.01.32v.33l.01.32h.01v.33l.01.33.01.33.01.32.01.33.01.34.01.32.02.33.01.32.01.33.02.34.02.32.01.33.02.32.02.33.02.33.02.33.02.32.02.33.02.33.03.33.02.33.03.32.02.33.03.34.03.32.02.33.03.32.03.33.03.33zm-48.94-81.12c2.1 26.57 13.28 51.74 26.57 74.82 1.4-25.87-9.09-50.34-6.99-76.22 4.19-2.79 11.88-8.39 15.38-11.19-2.1-21.67 2.1-44.76-8.39-64.34-13.99 23.08-28.67 48.25-26.57 76.93m73.42-61.54c-27.27 18.88-20.98 55.25 0 76.22 18.18-11.88 27.97-32.87 22.38-54.54-6.29-8.4-14.69-14.69-22.38-21.68m-849.72-366.34c10.49 13.99 28.67 20.98 45.45 23.08-17.48-23.08-39.86-48.95-30.77-80.42 15.39-46.15 59.44-92.3 39.86-143.36-18.18 9.09-37.06 18.18-52.44 33.57-16.79 19.58-14.69 47.55-15.39 72.03 0 32.17-2.8 66.43 13.29 95.1m-79.02-243.35c11.88 18.18 29.37 32.16 45.45 46.85 13.28-17.48 32.17-28.67 51.75-38.47-20.98-13.98-41.26-30.06-65.73-39.16-17.49-5.58-28.67 16.09-31.47 30.78m-3.17 297.33c-16.76-7.6-28.78-21.51-36.59-41.07 18.75 6.7 32.49 25.7 36.59 41.07m72.42 23.14c-9.08 0-17.32 4.45-24.64.76-5.87-2.98-9.95-14.07-11.2-20.54 7.97-1.5 15.54-3.56 22.4-.37 7.53 3.48 11.07 12.18 13.44 20.15" style="fill:#e3e0e1;fill-opacity:1;fill-rule:evenodd;stroke:none" transform="matrix(.13333 0 0 -.13333 0 755.907)"></path><path d="M2855.03 2973.68c28.68-17.49 72.73-21.68 83.92-58.04-17.49 9.79-33.57 22.37-51.75 30.76 6.3-26.57 30.08-42.66 43.36-65.73-13.99 5.59-26.58 13.29-39.87 20.98 13.29-36.36 46.86-58.74 68.54-89.51-36.37 6.29-67.83 33.57-82.52 66.43-10.49 30.77-14.69 63.64-21.68 95.11zm402-1353.75c-10.49 13.99-28.67 20.98-45.46 23.08 17.48-23.08 39.87-48.95 30.77-80.42-15.39-46.15-59.44-92.3-39.86-143.36 18.18 9.09 37.06 18.18 52.45 33.57 16.78 19.58 14.69 47.55 15.38 72.03 0 32.17 2.81 66.43-13.28 95.1zm79.01-243.35c-11.88 18.18-29.36 32.16-45.44 46.85-13.3-17.48-32.17-28.67-51.75-38.47 20.97-13.98 41.26-30.06 65.73-39.16 17.48-5.58 28.67 16.09 31.46 30.78zm-61.29 334.87c-32.3.14-69.04 17.43-103.3 37.71-2.15-13-6.35-21.2 9.78-35.32 1.18-.76-2.5-11.95 1.66-19.75.79-1.49 4.75 15.85 6.17 15.07 3.86-2.11 7.65-3.89 11.4-5.48-.51-6.54-.28-7.83 1.43-12.83.5-1.46 5.48 10.1 6.91 9.59 13.33-4.8 26.09-7.88 38.68-14.17 19.31-18.37 12.03-27.22 10.91-39.16-40.56-6.3-76.64 23.08-115.1 30.77-2.17-20.97 19-21.63 32.34-31.33 16.72-12.17 36.99-31.26 50.12-46.95 7.7-25.16.94-48.57-13.75-70.24-22.37-34.27-37.25-75.26-33.76-115.81-15.38-13.99-40.93-12.31-46.51-36.78-4.2-33.57-5.23-86.82 34.63-86.99 3.43 9.44 2.4 21.86-1.99 31.92-4.25 9.76-14.57 21.21-13.43 42.94.79 15.38 18.91 17.44 34.3 19.54 18.18-47.56 8.39-101.4-22.38-141.96 18.18-11.89 51.05-6.99 51.05 18.18-2.09 37.06 11.19 72.02 11.19 109.1 25.31-17.08 50.02-33.86 78.32-40.56-.7-32.17 15.39-60.15 30.77-86.72-9.22-6.27-29.26-1.69-44.27.12-16.02 1.92-33.51-7.67-31.86-30.37 19.21-5.55 38.37 2.97 58.65 2.97 24.47.71 53.1-8.38 75.48-16.77-19.58-50.35-61.59-65.2-113.9-70.14-15.39-2.8-117.44 19.06-198.31 40.4-4.69 1.76-9.02 2.82-12.98 3.3-11.59 4.36-22.77 9.51-32.25 17.34-20.28 15.39-34.26 36.36-53.15 52.45-16.78 13.98-36.36 23.78-50.34 40.56-10.49 41.25 16.78 82.51 3.5 123.07-9.1 39.86-39.87 71.33-46.86 111.89-12.59 47.55 2.1 96.51 17.48 141.96 17.48 42.65 25.18 88.11 44.06 130.77 16.78 37.76 5.59 79.72 9.79 119.58 34.27 7.68 65.03 23.77 93.71 43.36 25.87 17.48 23.08 58.74 53.84 70.62 25.17 11.19 50.35 20.98 75.52 30.76-15.38 8.4-31.46 17.49-44.05 29.38 6.29 12.59 14.68 23.78 21.68 35.66-37.76-10.48-65.04-37.76-94.4-61.53 5.58 35.66 15.38 71.33 9.78 107.69-25.17-47.55-23.78-106.29-58.74-148.95-13.29-18.18-37.06-20.98-57.34-24.48 0 29.37-2.79 58.75 2.79 87.41 17.49 27.98 44.06 50.35 53.16 83.22 4.89 36.36-7.01 78.32 17.48 110.49 18.87 22.37 46.15-3.49 69.93.7 23.07 4.9 46.84 16.78 58.04 38.46-25.87-8.39-53.15-12.59-79.72-8.39 25.17 20.29 51.04 39.86 73.42 62.93-51.74-32.86-112.58-47.55-165.73-78.32-11.89-8.39-23.07-18.17-31.47-30.07-16.09-30.06 11.19-76.22-22.37-97.19-18.19 21.68-25.88 50.35-32.88 76.92-8.38 29.37 2.81 60.84-11.19 88.81-11.18 32.17-45.45 48.25-59.43 78.32-13.29 25.18-13.29 55.24-30.07 78.32-2.8-63.63 26.57-123.08 27.97-186.02-37.76 17.49-55.95 60.84-95.11 73.43 10.5-83.21 103.5-119.58 126.58-197.21 3.49-27.26 2.09-55.93-1.4-83.21-5.6-25.87 0-53.14-13.29-76.92-17.48 20.98-36.36 42.66-41.96 70.63-4.89 24.48-9.09 48.96-13.28 73.43-4.2-1.41-7.69-2.1-11.19-3.5 4.19-20.98 4.89-42.65 2.79-63.64-21.67 19.59-35.66 46.16-58.74 63.64 18.18-52.45 61.54-95.1 69.23-151.74-14.68 0-28.66-1.4-43.35 0-25.18 28.67-36.36 66.42-55.94 98.6-14.69 20.98-39.16 31.46-61.54 42.66-4.89 24.47-10.49 50.34-28.67 69.22-23.08 23.77-35.67 58.04-66.43 74.13 5.59-19.58 17.48-36.37 25.17-54.55 13.28-27.27 18.88-56.64 29.37-85.31-23.78 6.29-47.55 13.28-70.63 20.28-1.4 19.58 0 39.86-2.1 59.44-9.79-16.08-13.28-34.96-18.88-52.45l-6.99 2.1c-.7-6.29-1.4-18.88-1.4-25.18 43.35-24.47 94.4-34.26 136.36-61.53 44.75-30.08 26.58-95.81 62.24-132.17 25.17-15.39 54.55-25.18 83.92-25.18 29.37 1.4 48.25-27.96 54.54-53.14-.7-25.88-26.57-41.96-35.67-65.04-3.49-18.88 1.4-39.16-6.29-58.04-8.39-24.47-23.78-46.15-33.57-70.63-13.28-32.17-25.86-65.03-44.75-93.7-21.68-32.87-13.99-74.13-1.4-108.4 12.59-30.07 11.19-62.93 9.79-94.4-1.4-25.18-12.59-48.95-9.79-74.83 2.8-26.57 25.88-51.75 14.69-78.32-16.79-24.47-35.66-48.94-60.14-65.73-30.07-11.19-58.74-26.57-88.82-36.36.42-.22.84-.46 1.25-.68-56.96-17.72-111.1-17.61-123.24-15.4-52.31 4.93-109.74 30.07-129.32 80.42 22.37 8.39 51 17.48 75.48 16.77 20.28 0 39.44-8.52 58.64-2.97 1.66 22.7-15.83 32.29-31.86 30.37-15.01-1.81-35.05-6.39-44.27-.12 15.39 26.57 31.47 54.55 30.77 86.72 28.31 6.7 53.01 23.48 78.33 40.56 0-37.08 13.28-72.04 11.18-109.1 0-25.17 32.87-30.07 51.05-18.18-30.77 40.56-40.55 94.4-22.38 141.96 15.39-2.1 33.52-4.16 34.31-19.54 1.12-21.73-9.18-33.18-13.43-42.94-4.39-10.06-5.43-22.48-1.99-31.92 39.85.17 38.82 53.42 34.63 86.99-5.59 24.47-31.14 22.79-46.52 36.78 3.49 40.55-11.38 81.54-33.76 115.81-14.68 21.67-21.44 45.08-13.75 70.24 13.14 15.69 33.4 34.78 50.12 46.95 13.35 9.7 34.51 10.36 32.35 31.33-38.46-7.69-74.55-37.07-115.11-30.77-1.12 11.94-8.39 20.79 10.91 39.16 12.59 6.29 25.35 9.37 38.68 14.17 1.43.51 6.41-11.05 6.91-9.59 1.72 5 1.95 6.29 1.43 12.83 3.75 1.59 7.55 3.37 11.41 5.48 1.42.78 5.38-16.56 6.17-15.07 4.15 7.8.47 18.99 1.65 19.75 16.14 14.12 11.94 22.32 9.79 35.32-34.27-20.28-71.01-37.57-103.3-37.71-30.08 3.49-54.55-16.09-77.63-31.47-19.73-19.15-49.21-63.98-50.82-91.99 9.75 1.23 34.97 13.76 41.73 19.27-.69-13.29-1.55-33.02-8.82-45.04-14.06-23.28-38.03-26.29-54.12-47.97-10.48-11.19-17.48-27.97-33.56-31.47-49.65-11.19-96.5-48.26-105.6-100.7-3.49-33.56-5.59-69.93 10.49-100.7 10.5-24.47 30.77-44.05 50.35-60.84 24.48-22.37 32.17-56.64 52.45-81.82 49.65-69.93 141.71-108.39 224.47-89.51 44.09 10.06 85.57 18.57 116.66 54.85 1.27 1.22 2.42 2.37 3.24 3.19 2.1 2.1 6.99 6.3 9.09 7.69 20.98-.7 41.26-8.38 59.44-18.87-11.19-7-23.07-13.29-34.97-19.58 35.67 0 71.34 0 107-6.99 28.67-11.9 57.35-27.98 89.51-32.17 30.07-1.41 60.84-2.1 90.91 4.89 34.97 6.99 69.93.7 104.89-2.1 29.37 5.6 58.75 5.6 88.82 5.6-.71 2.79-2.8 8.38-3.5 10.48-47.56 11.2-102.8 7.7-142.65 41.96 24.47 10.5 51.74 14.68 78.32 10.5 8.99-1.13 17.98-5.87 26.98-4.78 59.79-30.36 139.36-60.21 190.67-59.42 68.93 1.05 137.75 37.17 178.28 94.26 20.29 25.18 27.97 59.45 52.45 81.82 19.58 16.79 39.86 36.37 50.36 60.84 16.07 30.77 13.97 67.14 10.48 100.7-9.09 52.44-55.94 89.51-105.59 100.7-16.09 3.5-23.08 20.28-33.58 31.47-16.08 21.68-40.04 24.69-54.11 47.97-7.26 12.02-8.12 31.75-8.82 45.04 6.77-5.51 31.98-18.04 41.73-19.27-1.6 28.01-31.09 72.84-50.82 91.99-23.07 15.38-47.56 34.96-77.62 31.47zm64.47-37.54c16.76-7.6 28.78-21.51 36.58-41.07-18.75 6.7-32.49 25.7-36.58 41.07zm-72.43 23.14c9.09 0 17.32 4.45 24.65.76 5.86-2.98 9.95-14.07 11.19-20.54-7.96-1.5-15.54-3.56-22.4-.37-7.53 3.48-11.07 12.18-13.44 20.15zm-99.98-561.64c-33.49.57-74.79 15.99-94.92 18.78-4.16-2.11-8.29-4.33-12.41-6.7 1.55-17.97 41.72-46.81 96.79-54.21 1.22 16.66 4.17 29.52 10.54 42.13zm-385.9 1801.9c9.79 6.3 22.38 3.5 33.56 4.9 8.4-18.18 11.19-41.26-2.8-57.34-30.76-13.99-45.45 31.47-30.76 52.44zm196.5-57.34c-13.29 24.48.7 64.34 32.17 62.94 17.48-19.58 17.48-44.76 6.29-67.14-13.28-2.79-27.97-7.69-38.46 4.2zm65.03-6.99c11.9 33.57 52.45 32.87 81.83 31.47 23.77-2.1 55.94-5.6 64.32-31.47-21.67-6.3-43.35-11.89-66.42-9.1-21.68 2.8-41.26-6.99-62.25-9.79 16.1 17.49 38.47 25.88 58.05 38.47-26.57-1.4-50.35-13.29-75.53-19.58zm-417.47-8.39c27.97 25.87 61.53 43.35 97.9 55.24-.7-2.8-1.4-9.09-2.1-11.89-6.3-4.19-11.89-8.39-18.18-12.59 5.59-.69 16.08-3.49 21.67-4.19v-15.39c-16.08 0-32.17-1.39-48.25-1.39 8.39-8.39 15.39-18.19 23.08-27.98-22.38 2.8-46.85 2.8-65.74 16.09zm196.5-29.37c6.29 18.88 13.28 39.86 34.26 46.85-.7-15.39-2.8-30.77-6.3-46.15-9.08 0-18.87-.71-27.96-.7zm162.23-16.09c2.1 4.2 6.3 12.59 8.4 16.08 23.77-6.29 50.34-13.27 66.43-34.26 20.28-25.18 36.36-53.85 55.24-79.72-39.85 6.29-79.72-3.49-119.58-2.8 6.3-9.08 12.59-18.18 17.49-27.97-16.79-.7-33.57-1.39-50.35-.7-.7 5.59-1.4 11.89-1.4 17.49 10.49 4.19 21.67 9.08 32.17 13.98-34.97 15.38-54.55 50.35-63.64 86.02 24.48-12.59 32.17-40.57 54.55-55.95-.71 12.59-2.8 24.47-3.5 37.06 16.78-16.08 32.17-34.27 53.15-45.45-6.3 15.38-13.29 30.76-19.58 46.16 17.48-15.4 31.46-36.37 53.14-45.46-7.69 23.07-15.39 48.95-37.06 62.94-12.59 9.78-30.07 9.09-45.46 12.58zm-302.79-6.29c23.07 13.29 50.34 8.39 74.82-.01.71-3.49 2.8-10.48 3.5-13.98-23.08 2.1-47.55 5.6-71.33 0-14.68-6.99-27.27-17.48-37.76-30.07 25.88 2.8 51.74 12.59 77.62 4.89-25.87-9.78-53.84-15.38-79.02-25.86 25.87-10.49 53.85-9.8 81.82-10.49v-2.88h.01v-1.74l.01-.31v-.62h.01v-.62h.01v-.65l.01-.32v-.32l.01-.33.01-.32v-.33l.01-.33v-.32l.01-.34.01-.32.01-.33.01-.32.01-.33.01-.32.02-.33.01-.32.01-.31.02-.32.01-.32.02-.31.01-.3.02-.31.01-.3.02-.29.02-.3.02-.29.02-.28.02-.28.02-.28h.01l.02-.26.02-.27.03-.25.02-.25.03-.25.03-.23.02-.24.04-.22.03-.22.03-.21.02-.2c-53.84-11.88-109.08 3.5-160.13 20.28 39.16 20.98 71.33 52.45 109.79 73.43zm434.27 7.69c8.38.7 17.48 1.41 25.86 2.1 7.7-17.48 8.39-35.66 1.4-53.85-9.78 1.4-18.88 2.1-27.26 3.5-7 16.08-7 32.87 0 48.25zm-518.89-5.6c9.79.71 20.28 1.4 30.07 2.1-.7-4.19-2.09-11.88-2.8-16.08-9.78-1.4-18.88-2.79-28.67-4.2v.24l.01.24v.49l.01.25v.27l.01.26.01.26v.29l.01.27.01.28.02.29.01.29.01.29.01.3.01.3.02.3.01.31.02.31.02.31.02.31.01.31.02.32.02.32h.01l.02.31.02.32.01.31.02.33h.01l.02.32.02.32.03.31.02.33.03.32.02.31.03.32.02.33.03.31.03.31.02.31h.01l.02.32h.01l.02.3.03.3.03.3.03.31.03.3.03.28.03.3.03.29.03.28.03.28.03.27.03.27.04.27.03.26.03.25.04.25.02.24.04.25.03.23.03.22.04.23.03.21.03.21zm286.01 0c35.67 11.9 40.56-65.03 4.2-57.34-22.38 9.8-23.78 45.46-4.2 57.34zm288.12.71c6.29-.71 13.28-.71 19.58-.71 1.4-13.28 2.09-25.86 2.79-38.45-6.99 1.39-13.98 2.1-20.97 3.49-.71 11.89-.71 23.77-1.4 35.67zm-372.03-23.08c3.5.69 11.19 1.4 15.38 1.4-.69-6.29-1.4-13.28-2.1-20.29-7.69-1.39-15.38-2.79-23.07-4.89 2.8 8.39 6.29 16.09 9.79 23.78zm303.49-116.08c8.39 37.06 46.86 66.43 85.32 62.23 14.68.7 29.37 0 44.75-.7-24.47-23.77-40.55-53.14-59.44-80.42-6.99-13.28-23.08-16.08-36.36-19.58 19.58 22.38 39.16 45.46 51.75 72.74-27.97-13.3-37.07-51.06-69.23-56.66 14.68 29.38 40.56 49.66 62.24 74.14-30.07-11.2-53.16-33.57-79.03-51.75zm-369.92-32.87c33.56 56.65 97.2 103.49 165.73 94.4 0-2.09.7-6.29.7-8.39-13.28 0-25.87-.69-39.16-1.39 1.4-6.3 2.79-13.3 3.49-19.58-12.58-3.5-25.87-6.3-39.16-9.1-5.59-5.59-11.19-11.19-16.78-17.48 13.99 2.1 27.97 4.9 41.96 7.69 0-4.89-.7-13.28-.7-18.18-3.5.7-11.19.7-15.38 1.4-18.89-3.49-39.87-5.59-54.55-19.58 39.16-6.99 77.62 4.19 114.68 16.09-40.55-45.46-107.69-41.97-160.83-25.88zm448.25-22.38c17.48 53.85 76.22 88.81 132.16 82.52-20.97-25.17-27.97-58.75-42.65-88.11-13.99-25.18-46.86-26.57-72.03-21.68 18.18 13.29 41.26 20.28 56.65 37.76 11.18 13.28 18.87 29.37 26.57 44.76-18.88-6.99-41.96-5.6-56.65-20.99-13.99-11.88-27.97-25.16-44.05-34.26zm-132.87 71.33c5.6 7.7 15.38 5.6 23.08 2.79 14.68-18.87 10.49-43.35 2.79-64.33l-35.66 2.1c0 19.58-9.79 46.15 9.79 59.44zm-370.63-14.69c7.69 2.81 16.09 4.2 23.78 5.6 5.59-15.38 16.08-30.07 13.98-46.86-2.79-11.88-7.69-22.37-12.59-34.26-13.28 0-27.27 0-33.56 13.29-2.8 20.97-6.29 45.45 8.39 62.23zm274.13-24.47c3.5 0 10.49 0 14.68-.7 10.5-23.78 20.98-48.25 39.17-67.83-1.4 20.28-6.3 40.56-7.7 60.84 22.38-23.08 28.67-55.25 44.05-82.52 2.81 10.49 5.6 20.98 9.1 31.47 10.49-17.48 17.48-37.07 16.08-58.05-22.37 4.9-47.56 8.39-64.34 25.88-26.57 23.78-41.95 57.35-51.04 90.91zm-422.38-58.74c-7.69 25.18 5.6 62.24 38.46 54.54 4.2-23.07 2.1-46.15-6.99-67.83-11.19 2.1-29.37-3.5-31.47 13.29zm80.42-4.89c-6.29 22.37-10.49 49.64 5.59 69.92 5.6-25.87 9.09-51.75 13.99-77.62 5.6 7.7 10.49 16.09 16.09 23.77 6.29-31.46 16.08-61.53 25.87-91.6-33.57 11.18-50.35 44.05-61.54 75.53zm689.51 50.34c4.89 0 15.38-.7 20.98-.7 2.09-8.39 4.89-17.48 6.99-27.27h-18.19c-3.49 9.09-6.99 18.88-9.78 27.97zm-428.67-22.37c42.65 16.77 48.95-78.32 4.2-70.64-27.28 10.49-27.28 55.25-4.2 70.64zm234.97-13.29h17.48v-20.98h-16.79c0 6.99 0 13.98-.69 20.98zm-187.41-7.69c4.89 1.4 13.98 4.89 18.87 6.99 8.39-19.58 16.09-39.16 15.38-60.84-27.26 2.8-25.87 34.26-34.25 53.85zm-177.63-13.98c16.08 2.09 32.17 1.39 48.25-2.11-11.19-8.39-23.08-15.38-35.66-20.28-4.2 7.7-8.4 15.38-12.59 22.39zm406.99-58.05c-8.39 20.28-10.49 44.76 4.19 62.94 23.09-11.19 25.18-36.37 17.49-58.05-6.99-2.1-14.69-3.49-21.68-4.89zm129.37 44.05c8.39 4.9 18.88 2.1 28.67 3.5 12.59-20.98 14.69-45.45 1.4-66.43-9.09 0-18.18 0-27.27-.7-11.89 18.18-17.48 44.76-2.8 63.63zm-556.64-7.68c2.8 0 8.39.69 11.19 1.39-2.8-16.78-7-32.87-11.89-48.95 4.89-2.09 14.68-6.99 18.88-9.09-8.39-25.87-17.48-52.45-18.18-80.42 28.67 24.48 39.16 60.84 52.45 94.4 12.58-53.14-26.58-95.8-50.35-138.46-3.5-.69-9.79-.7-13.29-1.39-6.99 32.17-16.09 63.63-13.99 96.5 0 30.77 16.09 57.34 25.18 86.02zm-288.11-46.86c28.67 21.68 62.24 47.55 100.7 39.16 3.49-5.59 6.29-10.49 9.79-16.08-25.18-3.5-58.04 4.89-71.33-23.78 7.7.7 24.47 1.39 32.17 1.39-.7-2.79-2.8-9.78-4.2-12.58-20.98 11.19-44.05 12.58-67.13 11.89zm897.9 20.27c4.19 0 12.58.71 16.78.71 0-6.99 0-14.69-.7-22.38-3.5.7-10.49 2.09-13.29 2.8-1.39 6.3-2.1 12.59-2.79 18.87zm-255.24-51.73c6.29 19.57 18.87 36.35 34.26 49.64 0-.62-.01-1.25-.03-1.86-.01-.62-.03-1.24-.05-1.86-.03-.61-.07-1.23-.11-1.84-.05-.61-.09-1.22-.15-1.84l-.18-1.82c-.07-.61-.14-1.21-.22-1.82-.09-.61-.17-1.2-.26-1.81-.09-.6-.19-1.2-.3-1.79l-.32-1.8-.35-1.79-.38-1.78-.42-1.77-.44-1.77-.46-1.76h-.01l-.49-1.76-.5-1.75-.54-1.75-.56-1.74-.57-1.74-.59-1.74-.61-1.73h-.01l-.61-1.73-.64-1.73-.64-1.72-.65-1.73h-.01l-.67-1.72-.66-1.72-.69-1.72-.68-1.71-.68-1.72-.7-1.73-.68-1.72-.69-1.72-.69-1.72-.67-1.73-.68-1.72-.67-1.73-.66-1.73-.66-1.74-.63-1.74-.64-1.74-.61-1.74-.6-1.75-.58-1.76-.57-1.77-.55-1.77-.52-1.76-.5-1.78-.48-1.79-.46-1.79-.43-1.8-.4-1.81-.37-1.81-.34-1.83c-.11-.61-.21-1.22-.3-1.84-.1-.61-.2-1.22-.28-1.83l-.24-1.86c-.07-.61-.15-1.24-.21-1.86s-.11-1.25-.16-1.87c-.05-.63-.09-1.26-.13-1.88-.04-.64-.07-1.26-.09-1.9-.02-.62-.04-1.27-.05-1.9v-1.92c.01-.64.02-1.28.04-1.92 2.8-3.51 7-11.19 9.8-14.69 7.69 19.58 16.08 39.16 20.28 60.14 4.2.69 11.88 1.4 16.08 2.1-6.99-23.78-18.18-46.15-26.57-69.93 44.05 20.28 57.35 70.62 59.44 115.38 8.39-37.06 5.59-81.82-23.08-109.79-23.78-16.78-49.65-30.77-69.92-51.74 2.79 44.05-8.4 90.2 8.39 132.87zm-246.86-30.08c-4.89 29.37-11.88 59.44-4.89 88.11 18.18-28.67 18.88-62.94 32.17-93.71 2.79 11.9 7.68 23.08 12.58 34.27 6.29-20.98 7.69-43.36 10.49-65.73 7.7 15.38 13.28 31.46 20.98 46.15 4.2-33.56 4.89-67.83 3.49-101.4-9.09-1.39-16.77.71-23.07 7.7-24.47 22.37-46.85 50.35-51.75 84.61zm159.44 3.49c-11.89 21.68-20.28 62.94 11.89 70.64 30.77-7.7 28.67-46.15 19.58-69.93-10.49-.71-20.98-.71-31.47-.71zm-409.09 60.84c7.7-37.06-.7-75.52 5.6-112.58 6.29-13.29 12.59-26.58 18.18-40.56-16.79 10.49-33.57 23.77-39.16 43.36-4.2 30.07-2.1 60.84 0 90.91l.17.03-.17-.03c4.89 6.29 9.79 12.59 15.38 18.87zm33.57-23.77c9.09 10.49 23.78 5.59 32.87-2.1 11.88-16.78 6.29-41.96-9.09-55.24-33.57-7.69-43.36 37.06-23.78 57.34zm623.78 3.5c15.38-6.99 28.67-17.49 44.05-25.18 29.36-4.89 52.44 18.88 79.72 26.58-14.68-34.27-57.35-55.95-93.01-42.66-16.78 7.69-27.27 23.77-30.76 41.26zm-642.34-1383.21a57.7 57.7 0 0 1-5.33 8.03c-29.45-7.41-60.15-10.7-92.66-12.61 6.37-12.62 12.25-25.47 10.54-42.13 42.08 14.28 71.57 29.81 87.45 46.71zm338.14 1362.93c27.27-28.67 20.97-71.33 32.87-106.3 4.89 17.49 7.69 36.37 9.78 55.24l3.5-.69c-.69-38.47.7-86.02-37.06-109.09q.36 1.26.69 2.52c.23.85.43 1.69.64 2.53q.3 1.26.57 2.52c.19.84.36 1.68.53 2.52s.32 1.68.47 2.52c.16.83.29 1.67.43 2.51.13.84.25 1.68.37 2.52s.22 1.68.32 2.52c.11.84.2 1.67.29 2.51.07.84.15 1.68.23 2.52.07.84.13 1.68.19 2.51a225 225 0 0 1 .25 5.03c.03.84.05 1.68.07 2.52l.03 2.51c0 .84 0 1.68-.01 2.51-.01.84-.02 1.68-.04 2.51l-.08 2.52c-.03.83-.06 1.67-.11 2.51l-.13 2.51-.17 2.51-.2 2.51-.21 2.51-.24 2.5-.28 2.51-.28 2.51-.31 2.51-.33 2.51h-.01l-.34 2.51-.36 2.5-.37 2.51-.39 2.51-.4 2.51-.4 2.51-.42 2.5-.42 2.51-.43 2.51-.44 2.51-.43 2.51h-.01l-.43 2.51-.44 2.5-.43 2.52-.43 2.5-.43 2.51-.42 2.5-.41 2.51-.4 2.52-.39 2.51-.38 2.51-.36 2.51-.35 2.52-.34 2.51-.31 2.51-.29 2.52-.28 2.52-.25 2.51-.22 2.52h-.01l-.2 2.52-.17 2.52-.15 2.52-.12 2.52-.08 2.52-.05 2.53c-.01.84-.02 1.68-.02 2.52zm-569.93-132.17c25.87 46.85 55.24 94.4 101.4 123.78-4.2-11.19-6.3-23.78-8.39-35.68-16.78-7.68-30.07-19.57-43.36-32.86 11.89 2.81 23.08 5.6 34.96 7.7-15.38-17.48-37.06-27.98-50.34-46.86 18.18 4.9 35.66 11.19 54.54 14.69-20.98-27.27-58.04-29.37-88.81-30.77zm146.15 93.01c-4.89 13.98 13.99 17.48 21.68 23.78-.7-14.69-4.2-27.98-21.68-23.78zm709.09 22.37c16.08-5.6 34.97-10.49 38.47-30.07h-25.18c-4.89 9.8-9.09 19.58-13.29 30.07zm143.36-6.99c11.19 2.8 21.68 6.99 32.87 4.2 8.39-7.7 14.68-16.79 20.97-26.57-4.9-.71-15.38-2.1-20.28-2.81 0 4.2 0 13.29.71 17.49-11.89 2.8-23.08 4.9-34.27 7.69zm-699.3-38.46c4.2.69 11.89 2.1 15.38 2.79.71-7.68.7-16.08 1.4-24.47-4.89 0-13.99.7-18.88 1.4.7 7 1.4 13.29 2.1 20.28zm687.41 18.18c16.78-15.39 34.96-30.77 45.45-51.74 13.99-32.87 12.59-69.24 23.08-103.5-24.47 15.38-47.55 32.86-72.03 47.55-33.57 18.88-61.54 55.95-55.24 95.8 18.88-35.66 43.35-67.83 76.92-90.91-5.59 18.19-14.69 35.67-21.67 53.15 11.88-6.29 23.07-22.38 38.45-14.68-11.19 22.37-24.47 42.66-34.96 64.33zm-355.24-9.79c8.39-9.09 13.98-20.27 18.88-31.47 4.89 4.9 9.79 9.79 14.68 13.99-.7-23.78-1.4-47.55-4.2-72.03-2.79 0-8.38-.7-11.19-1.4-11.18 29.38-16.77 60.14-18.17 90.91zm-393.01-13.98c4.89 0 15.38.7 20.28 1.39v-1.28l-.01-.43v-.42l-.01-.43v-.43l-.01-.42-.01-.43-.01-.42-.01-.43-.01-.43-.01-.42-.01-.42-.01-.42-.02-.43-.01-.43h-.01l-.01-.42-.02-.43-.02-.42-.01-.43-.02-.43-.02-.42-.02-.43-.02-.43-.02-.43-.02-.42-.02-.43-.03-.42-.02-.43-.02-.42-.02-.43-.03-.43-.03-.42-.02-.43-.03-.43-.03-.42-.02-.43-.03-.43-.03-.42-.03-.43-.03-.42-.02-.43-.04-.43-.03-.42-.03-.43-.02-.43-.03-.42-.04-.43-.03-.43-.03-.42-.03-.43-.03-.42-.03-.43-.03-.43-.04-.42-.03-.43-.03-.42-.04-.42-.03-.43-.03-.43-.03-.42-.03-.43-.04-.43c-6.3 8.39-12.58 16.78-18.88 25.88zm598.6 2.8c10.49 13.98 27.97 0 32.16-12.6 6.3-19.57 7-48.24-16.08-58.04-8.39-6.99-18.17 6.29-23.77 11.89-13.29 18.18-9.79 44.75 7.69 58.75zm-699.99-15.39c18.17 13.98 43.35-6.99 44.05-26.57 2.8-23.08-16.09-47.56-39.86-46.16-22.38 17.48-26.58 53.85-4.19 72.73zm772.02-17.48c23.07-13.99 32.16-41.26 26.57-67.14-16.08 18.89-22.37 43.36-26.57 67.14zm-671.33-33.57c16.08-22.38 11.19-52.45 25.88-75.52 1.39 14.68 1.39 29.37 1.39 44.05 2.8-.7 9.1-.7 11.89-1.4 0-18.18 2.1-36.37 7.69-53.85 6.3 4.91 12.59 9.1 19.58 13.99 1.41-17.48 2.8-34.26 6.3-50.34 13.28 32.86 1.39 67.13 2.09 101.39 4.9-7.69 9.09-14.68 12.59-22.38 3.5-43.35 1.4-86.01-.69-129.37-27.28 20.29-52.45 43.36-72.03 71.33-19.58 30.07-17.48 67.84-14.69 102.1zm583.21-15.39c17.49-16.08 29.38-36.37 44.06-54.54 10.49-7.69 23.77-11.89 34.97-17.48-5.6 20.98-10.49 43.35-9.1 65.03 25.88-30.07 14.69-71.33 16.79-107.69-39.16 27.27-83.92 62.24-86.72 114.68zm-782.51-13.28c6.99 0 13.99-.7 20.98-.7 1.4-14.69 2.1-30.07 1.4-44.76-16.08 9.8-20.28 27.98-22.38 45.46zm92.31-24.48c6.99 0 13.99 0 20.98-.7-.7-7.69-.7-15.39-.7-23.07-6.29.7-12.59 1.4-18.18 1.4-.7 7.69-1.4 14.67-2.1 22.37zm830.77-13.28c6.29 7.69 24.47 6.29 28.66-2.81 13.99-21.67 14.69-56.64-9.79-71.31-34.96 2.79-44.75 53.14-18.87 74.12zm-887.41-40.56c-2.1 13.98 9.79 23.08 18.17 32.86 2.11-25.87.71-51.75 2.8-77.62 6.3 13.29 12.59 26.58 20.29 39.16 4.89-27.96-.71-57.34 1.39-86.01-.7-27.28 6.99-54.54 4.89-81.82-23.77 20.28-23.77 53.85-28.66 81.82-3.5 31.46-22.38 59.44-18.88 91.61zm-41.96 29.37c-11.19-34.97-4.2-72.03-9.79-107.69-7.33 17.3-13.54 25.85-24.48 26.57-.7-22.38.7-45.46-7.69-66.43l2.8-11.19c-40.95 18.9 1.02 128.31 39.16 158.74zm759.44.7c-.71-2.8-.71-9.09-1.41-12.59 8.4-34.27 5.61-69.93-4.89-103.5-30.5 15.27-41.92 77.37-39.16 109.1 12.03-16.4 15.03-31.28 27.27-49.66 0 12.72 10.58 45.9 18.19 56.65zm-417.48-48.25h13.98c7.7-28.68 19.58-57.35 14.69-88.12-20.98 24.47-21.69 58.04-28.67 88.12zm638.45-18.89c6.29-.69 12.59-2.1 19.58-2.79 0-9.8.71-18.89 1.4-28.67-6.29 1.39-13.28 2.09-19.58 2.79-.69 9.79-.69 19.59-1.4 28.67zm-978.31-48.25c4.19 13.99 14.68 24.48 23.07 35.66 21.68-13.28 20.28-40.55 16.08-62.93-7.68-11.19-20.97-4.9-31.46-4.2-2.8 10.49-6.3 20.98-7.69 31.47zm781.81-5.59c12.59 16.08 15.38 52.44 44.05 44.76 27.98-.71 29.38-34.97 18.89-53.85-4.2-3.5-12.59-9.79-16.79-13.29 2.8-9.09 6.3-18.18 9.8-26.57l-4.9 1.39c-20.28-3.49-25.88-21.68-30.77-39.16-11.19 30.77-27.27 62.24-24.48 95.11zm18.89 31.47v-.79zm.23-7.08.05-.78-.05.78zm.84-8.64.11-.78-.11.78zm.55-3.91.12-.78-.12.78zm.91-5.46.14-.78-.14.78zm101.66 11.1h17.48c2.1-10.49 6.99-20.28 6.29-30.77 3.5-4.89 9.79-14.69 13.29-20.28 1.4 13.29 2.1 25.88 2.1 38.46 3.49 0 9.79 0 12.58.7l.71-5.59v-.01c16.08-31.46 29.36-65.73 29.36-102.79-29.36 12.59-46.15 40.56-62.23 65.74-8.39 17.48-14.69 35.66-19.58 54.54zm-18.19-35.66c4.2 0 12.59.69 16.79 1.4v-23.78c-4.2 0-13.29.7-17.48 1.39v4.6l.01.32v1.31h.01v.99h.01v.33l.01.32v.66l.01.33.01.32v.33l.01.34.01.32v.33l.01.32h.01v.33l.01.33.01.33.01.32.01.33.01.34.01.32.02.33.01.32.01.33.02.34.02.32.01.33.02.32.02.33.02.33.02.33.02.32.02.33.02.33.03.33.02.33.03.32.02.33.03.34.03.32.02.33.03.32.03.33.03.33zm-48.94-81.12c2.1 26.57 13.28 51.74 26.57 74.82 1.4-25.87-9.09-50.34-6.99-76.22 4.19-2.79 11.88-8.39 15.38-11.19-2.1-21.67 2.1-44.76-8.39-64.34-13.99 23.08-28.67 48.25-26.57 76.93zm73.42-61.54c-27.27 18.88-20.98 55.25 0 76.22 18.18-11.88 27.97-32.87 22.38-54.54-6.29-8.4-14.69-14.69-22.38-21.68zm-849.72-366.34c10.49 13.99 28.67 20.98 45.45 23.08-17.48-23.08-39.86-48.95-30.77-80.42 15.39-46.15 59.44-92.3 39.86-143.36-18.18 9.09-37.06 18.18-52.44 33.57-16.79 19.58-14.69 47.55-15.39 72.03 0 32.17-2.8 66.43 13.29 95.1zm-79.02-243.35c11.88 18.18 29.37 32.16 45.45 46.85 13.28-17.48 32.17-28.67 51.75-38.47-20.98-13.98-41.26-30.06-65.73-39.16-17.49-5.58-28.67 16.09-31.47 30.78zm-3.17 297.33c-16.76-7.6-28.78-21.51-36.59-41.07 18.75 6.7 32.49 25.7 36.59 41.07zm72.42 23.14c-9.08 0-17.32 4.45-24.64.76-5.87-2.98-9.95-14.07-11.2-20.54 7.97-1.5 15.54-3.56 22.4-.37 7.53 3.48 11.07 12.18 13.44 20.15z" style="fill:none;stroke:#e3e0e1;stroke-width:.65412199;stroke-linecap:butt;stroke-linejoin:miter;stroke-miterlimit:10;stroke-dasharray:none;stroke-opacity:1" transform="matrix(.13333 0 0 -.13333 0 755.907)"></path><path d="M5160.84 2435.9c27.97 39.16 56.64 79.72 90.2 115.38 2.8-51.04-1.4-102.1.7-153.14 46.16-13.99 90.91-34.96 138.46-46.86 1.4-2.79 2.8-8.39 4.19-11.19-49.64-14.68-100.69-24.47-147.54-45.45-2.8-50.35-2.1-100.69-2.1-151.04-2.8.69-8.39 1.39-11.19 2.1-20.28 35.66-44.76 68.52-67.13 102.79-5.59 6.99-10.49 20.28-21.68 16.79-48.95-9.1-94.41-34.27-144.76-37.07 29.38 41.96 66.44 79.02 93.01 123.07-25.18 46.86-60.84 88.12-88.12 132.87 53.16-10.49 101.41-40.56 155.96-48.25M497.922 2591.84c34.965-36.36 62.234-79.72 90.906-120.27 53.149 12.58 102.797 37.76 156.641 50.35-32.164-43.36-64.332-86.72-95.801-130.07 32.164-44.06 62.234-90.92 100.699-130.77-54.547 9.09-104.898 32.86-159.437 42.65-28.672-37.76-56.649-75.52-81.825-116.08-2.792-.69-9.089-2.1-12.585-2.79.703 50.34 2.796 101.39-.7 151.74-39.16 16.78-81.117 25.17-121.675 39.16-9.793 2.8-17.485 9.79-25.176 16.09 50.347 12.59 98.597 31.46 148.254 46.84 0 51.06-3.5 102.1.699 153.15" style="fill:#be9468;fill-opacity:1;fill-rule:evenodd;stroke:none" transform="matrix(.13333 0 0 -.13333 0 755.907)"></path><text style="font-variant:normal;font-weight:700;font-size:18.18139648px;font-family:TimesNewRomanPSMT;-inkscape-font-specification:TimesNewRomanPSMT-Bold;writing-mode:lr-tb;fill:#fff;fill-opacity:1;fill-rule:nonzero;stroke:none" transform="scale(-1.33333)rotate(56 78.893 -342.38)"><tspan x="0" y="0">U</tspan></text><text style="font-variant:normal;font-weight:700;font-size:18.18139648px;font-family:TimesNewRomanPSMT;-inkscape-font-specification:TimesNewRomanPSMT-Bold;writing-mode:lr-tb;fill:#fff;fill-opacity:1;fill-rule:nonzero;stroke:none" transform="scale(-1.33333)rotate(72 20.123 -268.276)"><tspan x="0" y="0">N</tspan></text><text style="font-variant:normal;font-weight:700;font-size:18.18140221px;font-family:TimesNewRomanPSMT;-inkscape-font-specification:TimesNewRomanPSMT-Bold;writing-mode:lr-tb;fill:#fff;fill-opacity:1;fill-rule:nonzero;stroke:none" transform="scale(-1.33333)rotate(84 -12.599 -227.165)"><tspan x="0" y="0">I</tspan></text><text style="font-variant:normal;font-weight:700;font-size:18.18140602px;font-family:TimesNewRomanPSMT;-inkscape-font-specification:TimesNewRomanPSMT-Bold;writing-mode:lr-tb;fill:#fff;fill-opacity:1;fill-rule:nonzero;stroke:none" transform="scale(1.33333)rotate(-85 217.984 -37.545)"><tspan x="0" y="0">T</tspan></text><text style="font-variant:normal;font-weight:700;font-size:18.18139458px;font-family:TimesNewRomanPSMT;-inkscape-font-specification:TimesNewRomanPSMT-Bold;writing-mode:lr-tb;fill:#fff;fill-opacity:1;fill-rule:nonzero;stroke:none" transform="scale(1.33333)rotate(-70 240.798 -83.903)"><tspan x="0" y="0">A</tspan></text><text style="font-variant:normal;font-weight:700;font-size:18.18139648px;font-family:TimesNewRomanPSMT;-inkscape-font-specification:TimesNewRomanPSMT-Bold;writing-mode:lr-tb;fill:#fff;fill-opacity:1;fill-rule:nonzero;stroke:none" transform="scale(1.33333)rotate(-56 269.647 -149.16)" data-source="https://football-logos.cc"><tspan x="0" y="0">S</tspan></text><text style="font-variant:normal;font-weight:700;font-size:18.18139648px;font-family:TimesNewRomanPSMT;-inkscape-font-specification:TimesNewRomanPSMT-Bold;writing-mode:lr-tb;fill:#fff;fill-opacity:1;fill-rule:nonzero;stroke:none" transform="scale(1.33333)rotate(-37 342.972 -303.726)"><tspan x="0" y="0">E</tspan></text><text style="font-variant:normal;font-weight:700;font-size:18.18140221px;font-family:TimesNewRomanPSMT;-inkscape-font-specification:TimesNewRomanPSMT-Bold;writing-mode:lr-tb;fill:#fff;fill-opacity:1;fill-rule:nonzero;stroke:none" transform="scale(1.33333)rotate(-23 468.953 -576.27)"><tspan x="0" y="0">S</tspan></text><text style="font-variant:normal;font-weight:700;font-size:18.18139267px;font-family:TimesNewRomanPSMT;-inkscape-font-specification:TimesNewRomanPSMT-Bold;writing-mode:lr-tb;fill:#fff;fill-opacity:1;fill-rule:nonzero;stroke:none" transform="scale(1.33333)rotate(-9 980.559 -1665.806)"><tspan x="0" y="0">T</tspan></text><text style="font-variant:normal;font-weight:700;font-size:18.18139648px;font-family:TimesNewRomanPSMT;-inkscape-font-specification:TimesNewRomanPSMT-Bold;writing-mode:lr-tb;fill:#fff;fill-opacity:1;fill-rule:nonzero;stroke:none" transform="scale(1.33333)rotate(7 -926.447 2436.58)"><tspan x="0" y="0">F</tspan></text><text style="font-variant:normal;font-weight:700;font-size:18.18139458px;font-family:TimesNewRomanPSMT;-inkscape-font-specification:TimesNewRomanPSMT-Bold;writing-mode:lr-tb;fill:#fff;fill-opacity:1;fill-rule:nonzero;stroke:none" transform="scale(1.33333)rotate(24 -161.093 777.14)"><tspan x="0" y="0">O</tspan></text><text style="font-variant:normal;font-weight:700;font-size:18.18139076px;font-family:TimesNewRomanPSMT;-inkscape-font-specification:TimesNewRomanPSMT-Bold;writing-mode:lr-tb;fill:#fff;fill-opacity:1;fill-rule:nonzero;stroke:none" transform="scale(1.33333)rotate(41 -28.277 492.05)"><tspan x="0" y="0">R</tspan></text><text style="font-variant:normal;font-weight:700;font-size:18.18139458px;font-family:TimesNewRomanPSMT;-inkscape-font-specification:TimesNewRomanPSMT-Bold;writing-mode:lr-tb;fill:#fff;fill-opacity:1;fill-rule:nonzero;stroke:none" transform="scale(1.33333)rotate(55 20.75 387.316)"><tspan x="0" y="0">T</tspan></text><text style="font-variant:normal;font-weight:700;font-size:18.18139458px;font-family:TimesNewRomanPSMT;-inkscape-font-specification:TimesNewRomanPSMT-Bold;writing-mode:lr-tb;fill:#fff;fill-opacity:1;fill-rule:nonzero;stroke:none" transform="scale(1.33333)rotate(66 44.024 336.214)"><tspan x="0" y="0">I</tspan></text><text style="font-variant:normal;font-weight:700;font-size:18.18140411px;font-family:TimesNewRomanPSMT;-inkscape-font-specification:TimesNewRomanPSMT-Bold;writing-mode:lr-tb;fill:#fff;fill-opacity:1;fill-rule:nonzero;stroke:none" transform="scale(1.33333)rotate(80 68.984 283.955)"><tspan x="0" y="0">T</tspan></text><text style="font-variant:normal;font-weight:700;font-size:18.18139839px;font-family:TimesNewRomanPSMT;-inkscape-font-specification:TimesNewRomanPSMT-Bold;writing-mode:lr-tb;fill:#fff;fill-opacity:1;fill-rule:nonzero;stroke:none" transform="scale(-1.33333)rotate(-86 -265.744 91.902)"><tspan x="0" y="0">U</tspan></text><text style="font-variant:normal;font-weight:700;font-size:18.18140602px;font-family:TimesNewRomanPSMT;-inkscape-font-specification:TimesNewRomanPSMT-Bold;writing-mode:lr-tb;fill:#fff;fill-opacity:1;fill-rule:nonzero;stroke:none" transform="matrix(-.4341 1.2607 -1.2607 -.4341 450.1 258.401)"><tspan x="0" y="0">D</tspan></text><text style="font-variant:normal;font-weight:700;font-size:18.18139458px;font-family:TimesNewRomanPSMT;-inkscape-font-specification:TimesNewRomanPSMT-Bold;writing-mode:lr-tb;fill:#fff;fill-opacity:1;fill-rule:nonzero;stroke:none" transform="scale(-1.33333)rotate(-55 -365.118 215.791)"><tspan x="0" y="0">E</tspan></text><text style="font-variant:normal;font-weight:700;font-size:48.94991302px;font-family:ArialMT;-inkscape-font-specification:ArialMT-Bold;writing-mode:lr-tb;fill:#e9e9e7;fill-opacity:1;fill-rule:nonzero;stroke:none" transform="scale(1.33333)rotate(-85 193.26 107.036)"><tspan x="0" y="0">G</tspan></text><text style="font-variant:normal;font-weight:700;font-size:48.9498024px;font-family:ArialMT;-inkscape-font-specification:ArialMT-Bold;writing-mode:lr-tb;fill:#e9e9e7;fill-opacity:1;fill-rule:nonzero;stroke:none" transform="scale(1.33333)rotate(-76 196.66 78.19)"><tspan x="0" y="0">A</tspan></text><text style="font-variant:normal;font-weight:700;font-size:48.9498024px;font-family:ArialMT;-inkscape-font-specification:ArialMT-Bold;writing-mode:lr-tb;fill:#e9e9e7;fill-opacity:1;fill-rule:nonzero;stroke:none" transform="scale(1.33333)rotate(-65 208.981 42.38)"><tspan x="0" y="0">L</tspan></text><text style="font-variant:normal;font-weight:700;font-size:48.94981766px;font-family:ArialMT;-inkscape-font-specification:ArialMT-Bold;writing-mode:lr-tb;fill:#e9e9e7;fill-opacity:1;fill-rule:nonzero;stroke:none" transform="scale(1.33333)rotate(-57 217.477 4.636)"><tspan x="0" y="0">A</tspan></text><text style="font-variant:normal;font-weight:700;font-size:48.94989395px;font-family:ArialMT;-inkscape-font-specification:ArialMT-Bold;writing-mode:lr-tb;fill:#e9e9e7;fill-opacity:1;fill-rule:nonzero;stroke:none" transform="scale(1.33333)rotate(-46 231.945 -73.642)"><tspan x="0" y="0">F</tspan></text><text style="font-variant:normal;font-weight:700;font-size:48.94988632px;font-family:ArialMT;-inkscape-font-specification:ArialMT-Bold;writing-mode:lr-tb;fill:#e9e9e7;fill-opacity:1;fill-rule:nonzero;stroke:none" transform="scale(1.33333)rotate(-35 266.66 -166.57)"><tspan x="0" y="0">A</tspan></text><text style="font-variant:normal;font-weight:700;font-size:48.94982529px;font-family:ArialMT;-inkscape-font-specification:ArialMT-Bold;writing-mode:lr-tb;fill:#e9e9e7;fill-opacity:1;fill-rule:nonzero;stroke:none" transform="scale(1.33333)rotate(-30 277.297 -275.34)"><tspan x="0" y="0">I</tspan></text><text style="font-variant:normal;font-weight:700;font-size:48.94979858px;font-family:ArialMT;-inkscape-font-specification:ArialMT-Bold;writing-mode:lr-tb;fill:#e9e9e7;fill-opacity:1;fill-rule:nonzero;stroke:none" transform="scale(1.33333)rotate(-21 346.108 -460.588)"><tspan x="0" y="0">R</tspan></text><text style="font-variant:normal;font-weight:700;font-size:48.94991302px;font-family:ArialMT;-inkscape-font-specification:ArialMT-Bold;writing-mode:lr-tb;fill:#e9e9e7;fill-opacity:1;fill-rule:nonzero;stroke:none" transform="scale(1.33333)rotate(-12 492.295 -1012.228)"><tspan x="0" y="0">Y</tspan></text><text style="font-variant:normal;font-weight:700;font-size:48.94979858px;font-family:ArialMT;-inkscape-font-specification:ArialMT-Bold;writing-mode:lr-tb;fill:#e9e9e7;fill-opacity:1;fill-rule:nonzero;stroke:none" transform="matrix(1.33009 -.093 .093 1.33009 340.592 97.195)"><tspan x="0" y="0">D</tspan></text><text style="font-variant:normal;font-weight:700;font-size:48.94989014px;font-family:ArialMT;-inkscape-font-specification:ArialMT-Bold;writing-mode:lr-tb;fill:#e9e9e7;fill-opacity:1;fill-rule:nonzero;stroke:none" transform="scale(1.33333)rotate(7 -429.387 2429.367)"><tspan x="0" y="0">E</tspan></text><text style="font-variant:normal;font-weight:700;font-size:48.94982147px;font-family:ArialMT;-inkscape-font-specification:ArialMT-Bold;writing-mode:lr-tb;fill:#e9e9e7;fill-opacity:1;fill-rule:nonzero;stroke:none" transform="scale(1.33333)rotate(15 -120.745 1279.69)"><tspan x="0" y="0">A</tspan></text><text style="font-variant:normal;font-weight:700;font-size:48.94979477px;font-family:ArialMT;-inkscape-font-specification:ArialMT-Bold;writing-mode:lr-tb;fill:#e9e9e7;fill-opacity:1;fill-rule:nonzero;stroke:none" transform="scale(1.33333)rotate(26 -1.524 829.665)"><tspan x="0" y="0">N</tspan></text><text style="font-variant:normal;font-weight:700;font-size:48.94979477px;font-family:ArialMT;-inkscape-font-specification:ArialMT-Bold;writing-mode:lr-tb;fill:#e9e9e7;fill-opacity:1;fill-rule:nonzero;stroke:none" transform="scale(1.33333)rotate(38 45.653 647.325)"><tspan x="0" y="0">R</tspan></text><text style="font-variant:normal;font-weight:700;font-size:48.94977951px;font-family:ArialMT;-inkscape-font-specification:ArialMT-Bold;writing-mode:lr-tb;fill:#e9e9e7;fill-opacity:1;fill-rule:nonzero;stroke:none" transform="scale(1.33333)rotate(49 72.617 546.359)"><tspan x="0" y="0">O</tspan></text><text style="font-variant:normal;font-weight:700;font-size:48.9498291px;font-family:ArialMT;-inkscape-font-specification:ArialMT-Bold;writing-mode:lr-tb;fill:#e9e9e7;fill-opacity:1;fill-rule:nonzero;stroke:none" transform="scale(1.33333)rotate(59 86.502 490.955)"><tspan x="0" y="0">V</tspan></text><text style="font-variant:normal;font-weight:700;font-size:48.94979477px;font-family:ArialMT;-inkscape-font-specification:ArialMT-Bold;writing-mode:lr-tb;fill:#e9e9e7;fill-opacity:1;fill-rule:nonzero;stroke:none" transform="scale(1.33333)rotate(68 96.283 452.618)"><tspan x="0" y="0">E</tspan></text><text style="font-variant:normal;font-weight:700;font-size:48.94979095px;font-family:ArialMT;-inkscape-font-specification:ArialMT-Bold;writing-mode:lr-tb;fill:#e9e9e7;fill-opacity:1;fill-rule:nonzero;stroke:none" transform="scale(1.33333)rotate(79 109.39 412.13)"><tspan x="0" y="0">R</tspan></text><text style="font-variant:normal;font-weight:700;font-size:48.94981003px;font-family:ArialMT;-inkscape-font-specification:ArialMT-Bold;writing-mode:lr-tb;fill:#e9e9e7;fill-opacity:1;fill-rule:nonzero;stroke:none" transform="scale(1.33333)rotate(88 113.493 390.363)"><tspan x="0" y="0">S</tspan></text><path d="M2177.29 442.34c58.03 30.351 213.5 75.359 216.9 132.082 3.4 56.726-81.32 75.16-112.78 24.699l-54.76 50.469c34.64 26.351 67.51 55.66 135.86 51.492 54.54-3.332 124.5-51.883 114.04-120.781-15.6-102.809-129.47-132.84-195.63-161.121l150.88-33.95-15.43-64.019-254.51 57.129zM2707.56 576.609c44.23-.109 79.93-50.05 79.76-111.527-.17-61.48-36.14-111.23-80.36-111.102-44.22.11-79.92 50.059-79.76 111.54.17 61.48 36.15 111.21 80.36 111.089m-2.07 76.25c87.58-.23 158.36-84.398 158.07-187.988-.28-103.59-71.51-187.371-159.1-187.133-87.58.242-158.36 84.403-158.08 188.004.29 103.578 71.52 187.36 159.11 187.117M3000.48 640.102l73.06 4.648 22.16-348.5-73.04-4.648-17.5 274.98-63.61-24.16-21.19 59.539 79.4 37.91 1.1-5.691zM3160.25 658.43l239 46.129 12.99-67.289-2.43-.469-75.56-91.871c67.16 6.14 122.85-43.91 120.64-97.598-2.65-64.953-58.27-125.902-144.2-124.703-39.24.562-75.63 15.402-109.2 38.312l42.47 58.399c43.46-42.039 129.8-30.231 135.01 14.742 4.21 36.258-36.84 74.906-110.67 42.27l-23.65 45.64 70.03 96.449-141.44-27.3z" style="fill:#e9e9e7;fill-opacity:1;fill-rule:evenodd;stroke:none" transform="matrix(.13333 0 0 -.13333 0 755.907)" data-source="https://football-logos.cc"></path><!-- source: https://football-logos.cc --></svg>