<svg xmlns="http://www.w3.org/2000/svg" xml:space="preserve" version="1.0" viewBox="0 0 398.09 398.12"><!-- Source: https://football-logos.cc --><path fill="#0F618C" d="M199.049 0C89.116 0 0 89.117 0 199.08c0 109.923 89.116 199.043 199.049 199.043 109.93 0 199.043-89.12 199.043-199.043C398.092 89.117 308.979 0 199.049 0" data-source="https://football-logos.cc"></path><path fill="#FFF" d="M199.047 56.681c-78.631 0-142.372 63.741-142.372 142.392 0 78.628 63.741 142.37 142.372 142.37 78.629 0 142.368-63.742 142.368-142.37.001-78.651-63.738-142.392-142.368-142.392"></path><path fill="#0F618C" d="M287.068 93.943c-.213.114-21.743 11.524-46.949 11.524-18.459 0-32.939-6.831-39.928-10.902l-1.146-.667-1.146.667c-6.989 4.072-21.468 10.902-39.928 10.902-25.207 0-46.735-11.41-46.95-11.525l-3.352-1.8-.001 3.804v165.137c0 34.677 42.162 77.142 91.371 77.265 49.219-.123 91.381-42.587 91.381-77.265V92.137z"></path><path fill="#0093D2" d="M196.771 212.968v-112.6c-8.173 4.244-21.886 9.649-38.798 9.649-20.693 0-38.56-7.115-45.753-10.425v113.376z"></path><path fill="#FFF" d="M201.32 212.968h84.552V99.592c-7.193 3.311-25.061 10.425-45.752 10.425-16.913 0-30.625-5.405-38.799-9.65v112.601z"></path><path fill="#0093D2" d="M201.32 217.518v116.214c45.77-1.377 84.552-40.547 84.552-72.649v-43.565z"></path><path fill="#FFF" d="M196.771 217.518H112.22v43.565c0 32.1 38.774 71.266 84.551 72.649zM25.297 128.328l10.129-21.319 3.75 1.782-8.153 17.158 9.35 4.443 7.176-15.103 3.648 1.733-7.176 15.103 13.973 6.639-1.977 4.161zM59.626 80.785q5.642-.058 11.321 4.103 6.148 4.504 7.935 10.605 2.1 7.164-2.866 13.946-4.639 6.333-11.479 6.89-6.403.276-12.569-4.241-5.567-4.079-7.503-9.745-2.483-7.272 2.608-14.221 5.324-7.265 12.553-7.337m15.127 16.052q-1.914-4.782-6.497-8.14-4.845-3.549-9.659-3.177-4.813.372-8.036 4.771-3.127 4.27-2.174 9.109.951 4.84 6.658 9.018 4.564 3.343 9.391 3.328 4.827-.018 8.625-5.203 3.607-4.922 1.692-9.706M63.874 68.865l11.433-10.343q2.824-2.556 5.418-3.372 4.941-1.534 8.874 2.814 2.052 2.267 2.423 4.555.373 2.289-.513 4.684 2.015-.725 3.646-.416t3.697 2.421l3.176 3.256q1.363 1.403 2.195 1.938 1.404.928 2.512.552l.497.548-4.189 3.79q-.468-.17-1.036-.59t-1.973-1.831l-4.052-3.97q-2.349-2.363-4.763-1.706-1.363.39-3.381 2.218l-7.498 6.782 9.768 10.797-3.416 3.091zm21.525 1.54q2.33-2.107 2.817-4.293t-1.777-4.689q-2.435-2.69-5.215-1.952-1.48.404-3.177 1.94l-8.086 7.315 7.784 8.604zM91.538 45.39l20.047-12.46 2.191 3.526-16.133 10.028 5.464 8.792 14.201-8.827 2.132 3.429-14.202 8.827 8.167 13.139-3.913 2.432zM124.335 27.285l4.794-2.022 24.583 26.543-4.65 1.962-7.223-8.002-12.281 5.181.565 10.811-4.35 1.835zm14.842 15.528-10.664-11.812.835 15.958zM147.457 18.509l15.081-3.199q3.726-.79 6.379-.192 5.042 1.155 6.259 6.892.634 2.991-.194 5.156-.827 2.165-2.797 3.792 2.106.385 3.361 1.472t1.98 3.952l1.111 4.411q.474 1.899.923 2.778.749 1.508 1.896 1.74l.152.723-5.525 1.172q-.32-.38-.6-1.03c-.28-.65-.449-1.291-.786-2.575l-1.509-5.467q-.844-3.223-3.261-3.868-1.375-.345-4.038.219L156 36.581l3.021 14.243-4.506.957zm17.836 12.146q3.073-.651 4.593-2.296 1.522-1.646.82-4.947-.754-3.55-3.528-4.309-1.483-.393-3.722.081l-10.667 2.263 2.408 11.35zM202.461 11.768l5.201.156 11.306 34.367-5.046-.152-3.236-10.282-13.324-.402-3.986 10.065-4.719-.141zm7.031 20.297-4.779-15.178-5.883 14.857zM246.488 17.309l-.727 3.972-11.3-2.07-5.403 29.481-4.532-.83 5.403-29.482-11.3-2.07.729-3.973zM252.925 19.146l4.307 1.638-4.994 13.13 16.426 6.249 4.994-13.13 4.307 1.638-12.093 31.789-4.305-1.638 5.661-14.885-16.426-6.248-5.661 14.884-4.307-1.638zM286.318 33.074l3.96 2.354-15.318 25.764 14.666 8.72-2.064 3.471-18.626-11.075zM310.602 48.212l18.917 15.943-2.676 3.174-15.482-13.048-6.671 7.916 14.308 12.058-2.527 3.001-14.31-12.059-7.439 8.828 15.7 13.231-2.603 3.088-19.135-16.126zM351.289 89.179l-3.09 2.6-7.398-8.79-22.933 19.298-2.967-3.524 22.933-19.3-7.397-8.79 3.09-2.601zM354.246 94.273l2.543 3.842-28.361 18.775-2.542-3.842zM369.959 127.976q-1.522 4.662-5.249 6.907l-1.965-4.041q2.641-2.123 3.396-4.989.752-2.866-1.023-6.52-2.168-4.454-6.674-5.651-4.507-1.196-11.066 1.993-5.37 2.612-7.509 6.706-2.142 4.095.24 8.992c1.463 3.006 3.739 4.729 6.836 5.166q2.448.354 5.748-.49l1.964 4.041q-5.085 1.811-9.809.396-5.682-1.688-8.652-7.796-2.561-5.266-1.072-10.415 1.978-6.787 10.893-11.122 6.77-3.293 12.826-1.857 6.57 1.54 9.845 8.276 2.793 5.74 1.271 10.404M64.575 275.019l13.006 19.697-3.464 2.287-10.468-15.853-8.638 5.706 9.215 13.952-3.37 2.226-9.215-13.952-12.908 8.524-2.539-3.845zM93.833 318.889q-.904 5.57-5.971 10.456-5.484 5.291-11.801 6.013-7.419.85-13.255-5.199-5.45-5.65-4.834-12.484.819-6.356 6.32-11.663 4.967-4.792 10.88-5.733 7.588-1.21 13.569 4.99 6.251 6.482 5.092 13.62m-18.395 12.172q5.039-1.07 9.127-5.016 4.323-4.17 4.775-8.976.453-4.808-3.333-8.732-3.673-3.808-8.605-3.693t-10.021 5.024q-4.072 3.927-4.877 8.688-.805 4.758 3.657 9.384 4.239 4.391 9.277 3.321M120.959 338.163q.26 5.636-3.694 11.461-4.28 6.306-10.313 8.312-7.086 2.356-14.041-2.363-6.495-4.407-7.297-11.224-.506-6.387 3.786-12.714 3.875-5.708 9.468-7.848 7.178-2.74 14.306 2.095 7.452 5.058 7.785 12.281m-15.498 15.695q4.71-2.086 7.901-6.786 3.372-4.97 2.827-9.767t-5.056-7.859q-4.379-2.97-9.182-1.845t-8.774 6.978q-3.177 4.68-2.986 9.505.19 4.822 5.509 8.431 5.049 3.428 9.761 1.343M172.377 359.93q.656-2.68-.289-5.085-1.616-4.071-7.453-5.502l-14.276-3.5-.029.119-25.247-11.012-1.614 3.703 10.53 4.592-11.982 27.474 4.222 1.841 11.983-27.474 10.531 4.595 1.519-3.482-8.012 32.677 14.048 3.444q6.56 1.609 10.516-1.518 2.648-2.088 3.429-5.279.93-3.794-.789-6.503-.973-1.525-3.304-3.119 1.969-.448 3.161-1.278 2.29-1.564 3.056-4.693m-6.608 14.293q-.523 2.133-2.001 3.363-2.35 1.946-6.494.93l-9.716-2.382 2.844-11.601 8.946 2.193q2.831.693 4.383 1.813 2.916 2.097 2.038 5.684m1.945-14.858q-.787 3.212-3.583 3.835-1.779.4-4.634-.302l-8.202-2.01 2.506-10.22 8.043 1.973q2.944.721 4.287 1.717 2.376 1.773 1.583 5.007M187.028 352.746l5.193.325 10.189 34.713-5.037-.314-2.903-10.382-13.305-.832-4.308 9.932-4.713-.294zm6.371 20.514-4.286-15.326-6.36 14.661zM204.672 353.386l4.583-.448 2.913 29.831 16.983-1.658.392 4.019-21.566 2.106zM226.975 350.964l4.471-1.112 7.234 29.087 16.558-4.118.974 3.919-21.028 5.229zM279.153 334.021q4.688 1.439 6.998 5.126l-4.004 2.037q-2.17-2.605-5.05-3.308-2.878-.702-6.5 1.138-4.416 2.244-5.534 6.771-1.118 4.53 2.186 11.028 2.707 5.323 6.837 7.392 4.132 2.07 8.986-.397 4.47-2.272 5.044-6.926.312-2.453-.59-5.737l4.006-2.035q1.901 5.052.567 9.8-1.587 5.711-7.643 8.788-5.222 2.654-10.396 1.256-6.819-1.861-11.311-10.697-3.41-6.712-2.082-12.79 1.426-6.596 8.101-9.991 5.697-2.894 10.385-1.455M283.054 328.569l3.697-2.748 17.873 24.062 13.698-10.173 2.408 3.242-17.396 12.921zM304.385 311.774l15.149 14.518c1.782 1.705 3.582 2.785 5.409 3.24q4.106 1.06 7.513-2.497 4.085-4.263 2.668-8.563-.778-2.329-3.43-4.87l-15.15-14.518 3.187-3.325 13.794 13.216q4.532 4.344 5.803 7.902 2.302 6.502-3.656 12.721t-12.538 4.18q-3.609-1.117-8.142-5.46l-13.794-13.216zM321.267 293.641l8.061-12.294q3.297-5.027 7.675-5.191 2.58-.09 4.89 1.423 2.694 1.768 3.403 4.447.387 1.402.151 3.405 2.28-1.664 4.043-2.074 3.125-.717 6.395 1.425 2.746 1.8 3.832 4.993 1.628 4.771-2.076 10.42l-7.932 12.095zm19.129-2.93q1.612-2.458 1.831-4.268.343-2.844-2.421-4.656-2.785-1.826-5.248-.178-1.386.932-3.05 3.468l-4.541 6.926 8.8 5.77zm13.982 7.303q2.338-3.566 1.289-6.432-.666-1.804-2.503-3.007-3.09-2.026-6.04.026-1.57 1.09-3.169 3.526l-5.051 7.703 9.987 6.549z" data-source="https://football-logos.cc"></path><path fill="#0F618C" d="M280.34 113.527c-3.209 0-3.588 8.216-12.466 8.216v-.188s2.835-6.139.38-6.139c-1.419 0-1.229 1.512-2.834 3.873-.903 1.328-2.551 2.645-2.551 2.645.473 1.984.379 4.771.379 4.771-1.111 2.717-5.8 6.667-6.914 6.667-1.111 0-3.407-.615-3.407-3.95s2.79-5.187.566-6.297c-3.261-1.632-5.556 2.716-5.556 8.89 0 1.816 1.891 4.648 4.198 5.68 3.027 1.35 6.667.617 6.667.617s0 2.964 3.951 4.445c0 0-.739.494-3.58.494s-11.606-7.655-16.051-7.655c-2.835 0-14.533 6.893-14.569 6.914-.958.563-1.39 2.271-.947 3.21.585 1.234 2.211 2.012 3.504 1.396 1.018-.483 1.892-2.115 3.038-.93 1.13 1.168-.749 2.63.057 4.004.702 1.203 2.011 1.55 3.242.689.772-.539 2.061-3.365 3.061-2.021.622.838-.482 2.419.018 3.286.671 1.177 2.978 1.064 3.866.272 1.162-1.038.892-2.847 1.077-4.227.283-2.088 1.813-1.518 2.694-.351.459 2.135 1.387 2.843 2.862 4.3-4.568 0-4.692 4.11-8.862 4.11-4.168 0-3.625-3.224-6.648-3.224-3.02 0-4.431 1.01-4.431 1.01s.681-3.254-.8-4.119c-1.484-.863-6.668-3.208-6.668-5.185s-.248-4.197-2.84-4.197c-2.594 0-8.89 2.469-8.89 6.789 0 4.323 7.163 4.816 9.015 4.816s4.814-.617 4.814.618-2.587 2.51-2.587 7.119c0 10.074 6.864 15.498 8.277 19.931 1.41 4.432.386 8.68.386 11.097 0 2.418 2.168 8.067 6.905 8.067 2.03 0 2.753-.631 3.544-1.106v-3.201h-.627a5.01 5.01 0 0 1-5.005-5.005v-21.194c0-1.005-1.875-2.102-3.157-3.528-1.283-1.428-1.971-3.185-1.971-3.185s-1.061-2.274.759-3.336c.858-.502 3.673.005 5.156 2.426 1.656 2.706 1.943 7.39 1.943 7.39v21.427a2.277 2.277 0 0 0 2.275 2.275h1.992q.08 0 .16.009.08-.008.16-.009h1.993a2.277 2.277 0 0 0 2.275-2.275v-21.427s.286-4.684 1.943-7.39c1.482-2.421 4.297-2.928 5.156-2.426 1.82 1.062.759 3.336.759 3.336s-.688 1.757-1.971 3.185c-1.282 1.426-3.157 2.523-3.157 3.528v21.194a5.01 5.01 0 0 1-5.004 5.005h-.627v2.929c1.068.451 1.612 1.378 4.077 1.378 4.735 0 6.904-5.649 6.904-8.067 0-2.417-1.024-6.665.385-11.097 1.413-4.434 8.277-9.857 8.277-19.931 0-6.648-3.64-7.45-2.821-9.065 1.138-2.244 2.553-.451 5.009-.451s5.478-1.7 5.478-6.421c0-4.723-4.28-4-6.235-4.912-2.83-1.323-3.208-3.211-3.208-3.211s5.664-3.588 8.783-9.632c0 0 5.479-1.418 7.648-4.535s3.962-8.121.751-8.121"></path><path fill="#0F618C" d="M228.229 140.662s8.13-4.668 9.37-5.383c0 0 .462-12.939-4.311-12.939-4.776 0-1.977 9.549-1.977 9.549-.493 2.47-2.227 1.832-2.227 1.832-2.751-2.472-4.1-5.174-5.368-8.374-1.634-4.121-1.145-8.516-3.864-8.516-1.788 0-2.218 1.718-2.218 4.15s1.423 5.724 1.423 5.724c-2.934-2.002-4.583-3.841-6.178-6.18-2.387-3.499-4.012-6.891-5.376-6.353-5.576 2.193 1.189 10.34 5.376 14.924 4.188 4.588 15.35 11.566 15.35 11.566"></path><path fill="#00953D" d="M181.211 138.005c1.859-17.699-8.385-17.699-8.385-17.699-4.969-8.071-16.145-2.482-16.145-2.482-10.867-6.831-17.696 2.796-17.696 2.796s-6.519-.933-10.247 3.414c-3.194 3.728-1.242 10.866-1.242 10.866s-8.073 6.831-8.693 20.182 14.592 10.867 14.592 10.867c1.241 10.244 14.282 7.761 14.282 7.761v13.039s-9.314 1.244-12.109 8.385c-.528 3.475 3.725 2.792 4.658 1.241.929-1.553 6.689-6.382 8.072-5.589 1.384.792-3.416 4.969-1.862 7.451 1.55 2.482 6.986-6.83 10.244-6.83 3.26 0 4.709.943 7.169 2.788 1.241.932 7.734 6.524 7.422 2.801-.537-6.46-13.66-10.556-13.66-10.556v-13.041c10.245 7.143 18.94-5.278 18.94-5.278 9-2.483 6.517-10.244 6.517-10.244 8.698-12.731-1.857-19.872-1.857-19.872"></path><path fill="#E2001A" d="M268.157 247.392v5.151h-7.009v-5.151h-7.006v5.151h-7.01v-5.151h-7.01v5.151h-7.01v-5.151h-7.006v5.151h-7.01v-5.151h-6.036v71.301c7.728-1.855 14.852-4.604 21.309-8.019V280.82a8.94 8.94 0 0 1 8.941-8.942 8.94 8.94 0 0 1 8.942 8.942v17.228c14.002-12.975 21.941-29.595 21.941-45.197v-5.459zm-39.272 18.926h-8.702v-7.251h8.702zm19.092 0h-8.702v-7.251h8.702zm19.092 0h-8.702v-7.251h8.702zM258.234 237.065h14.103v7.053h-14.103zM214.803 237.065h14.103v7.053h-14.103zM236.428 237.065h14.104v7.053h-14.104zM215.928 234.858h11.851l-5.925-10.263zM237.554 234.858h11.852l-5.926-10.263zM265.287 224.595l-5.926 10.263h11.851z"></path><path fill="#0F618C" d="m166.155 257.428-7.888 5.46a1.14 1.14 0 0 0-.489.935v13.955a1.138 1.138 0 0 0 2.275 0v-8.51c1.818-.201 3.236-.889 4.177-2.114 1.693-2.207 1.246-5.301 1.031-6.339 1.23-.851 2.189-1.517 2.189-1.517a1.136 1.136 0 0 0-1.295-1.87m-3.734 8.348c-.508.66-1.305 1.068-2.367 1.229v-2.586c.355-.247 1.685-1.167 3.118-2.158.088 1.031.04 2.49-.751 3.515M147.769 269.268v8.51a1.138 1.138 0 0 0 2.275 0v-13.955c0-.373-.183-.723-.49-.935l-7.886-5.46a1.139 1.139 0 0 0-1.786.933c0 .361.17.717.49.937 0 0 .958.666 2.188 1.517-.213 1.038-.661 4.132 1.033 6.339.937 1.225 2.356 1.912 4.176 2.114m-3.12-7.007c1.435.991 2.762 1.911 3.119 2.158v2.586c-1.063-.16-1.859-.569-2.367-1.229-.791-1.025-.84-2.484-.752-3.515M158.396 282.102h-8.97c-2.636 0-5.458 2.101-5.458 5.229 0 5.225 2.558 7.31 2.666 7.397a1.13 1.13 0 0 0 1.58-.178 1.145 1.145 0 0 0-.153-1.596c-.028-.023-.288-.251-.604-.734l3.233-2.669 2.278 3.383a1.138 1.138 0 0 0 1.888 0l2.278-3.383c1.031.85 2.842 2.346 3.231 2.669-.315.483-.576.711-.603.734a1.147 1.147 0 0 0-.155 1.596c.393.48 1.093.563 1.58.178.108-.087 2.666-2.172 2.666-7.397.001-3.128-2.822-5.229-5.457-5.229m2.877 7.916-3.658-3.021a1.137 1.137 0 0 0-1.669.241s-1.153 1.715-2.035 3.023l-2.037-3.023a1.137 1.137 0 0 0-1.667-.241l-3.66 3.021a11.3 11.3 0 0 1-.305-2.687c0-1.831 1.854-2.955 3.183-2.955h8.97c1.33 0 3.183 1.124 3.183 2.955a11 11 0 0 1-.305 2.687M140.461 240.961a3.066 3.066 0 0 0 .001-4.338c-1.199-1.198-9.896-7.117-11.095-5.918s5.559 9.061 6.757 10.259a3.065 3.065 0 0 0 4.337-.003M171.697 240.963c1.199-1.198 7.954-9.061 6.755-10.259s-9.895 4.72-11.094 5.918a3.065 3.065 0 0 0 0 4.338 3.066 3.066 0 0 0 4.339.003M169.97 248.645c-.524.226-.969.254-1.358.092-.741-.311-1.247-1.26-1.379-1.6a1.37 1.37 0 0 0-1.318-.873 1.365 1.365 0 0 0-1.259.949c-.652 2.067-1.311 2.646-1.567 2.664-.688.049-2.232-1.773-3.179-3.751a1.365 1.365 0 0 0-2.572.329c-.772 3.988-1.864 5.54-2.627 5.662-1.213.195-3.333-2.341-4.396-4.248a1.364 1.364 0 0 0-2.394.018c-.879 1.631-1.541 2.044-1.768 2.034-.345-.015-.956-.813-1.232-1.461a1.374 1.374 0 0 0-1.836-.707c-5.387 2.515-7.922-2.412-8.198-2.986a1.365 1.365 0 0 0-2.471 1.161c.038.081.954 2.015 2.835 3.506 1.625 1.289 4.266 2.399 7.803 1.209.583.879 1.535 1.936 2.963 2.005 1.34.067 2.357-.761 3.1-1.654 1.321 1.834 3.515 4.221 6.021 3.821 1.765-.281 3.105-1.827 4.066-4.682 1.043 1.335 2.447 2.583 4.072 2.471 1.414-.099 2.338-1.12 2.969-2.206.36.329.782.631 1.286.846 1.083.462 2.298.432 3.514-.089a1.365 1.365 0 1 0-1.075-2.51" data-source="https://football-logos.cc"></path><!-- source: https://football-logos.cc --></svg>