<svg xmlns="http://www.w3.org/2000/svg" xml:space="preserve" viewBox="0 0 740.15 740.97"><!-- Source: https://football-logos.cc --><defs data-source="https://football-logos.cc"><clipPath id="a" clipPathUnits="userSpaceOnUse"><path d="M0 841.89h595.28V0H0Z"></path></clipPath><clipPath id="b" clipPathUnits="userSpaceOnUse"><path d="M222.885 539.444h125.617V427.35H222.885Z"></path></clipPath><clipPath id="c" clipPathUnits="userSpaceOnUse"><path d="M225.158 426.193h3.238v-3.238h-3.238z"></path></clipPath><clipPath id="d" clipPathUnits="userSpaceOnUse"><path d="M254.412 424.078h3.633v-3.633h-3.633z"></path></clipPath><clipPath id="e" clipPathUnits="userSpaceOnUse"><path d="M260.04 424.078h3.633v-3.633h-3.633z"></path></clipPath><clipPath id="f" clipPathUnits="userSpaceOnUse"><path d="M265.669 424.078h3.633v-3.633h-3.633z"></path></clipPath><clipPath id="g" clipPathUnits="userSpaceOnUse"><path d="M271.605 424.078h3.633v-3.633h-3.633z"></path></clipPath><clipPath id="h" clipPathUnits="userSpaceOnUse"><path d="M277.422 423.74h3.632v-3.632h-3.632z"></path></clipPath><clipPath id="i" clipPathUnits="userSpaceOnUse"><path d="M283.17 423.74h3.633v-3.632h-3.633z"></path></clipPath><clipPath id="j" clipPathUnits="userSpaceOnUse"><path d="M288.798 423.509h3.633v-3.633h-3.633z"></path></clipPath><clipPath id="k" clipPathUnits="userSpaceOnUse"><path d="M295.318 423.509h3.633v-3.633h-3.633z"></path></clipPath><clipPath id="l" clipPathUnits="userSpaceOnUse"><path d="M301.837 423.509h3.633v-3.633h-3.633z"></path></clipPath><clipPath id="m" clipPathUnits="userSpaceOnUse"><path d="M307.465 423.74h3.633v-3.632h-3.633z"></path></clipPath><clipPath id="n" clipPathUnits="userSpaceOnUse"><path d="M310.035 461.365h3.633v-3.633h-3.633z"></path></clipPath><clipPath id="o" clipPathUnits="userSpaceOnUse"><path d="M370.687 460.748h3.632v-3.633h-3.632z"></path></clipPath><clipPath id="p" clipPathUnits="userSpaceOnUse"><path d="M308.219 477.504h3.633v-3.633h-3.633z"></path></clipPath><clipPath id="q" clipPathUnits="userSpaceOnUse"><path d="M306.403 499.977h3.632v-8.938h-3.632z"></path></clipPath><clipPath id="r" clipPathUnits="userSpaceOnUse"><path d="M341.654 425.894h3.633v-3.633h-3.633z"></path></clipPath><clipPath id="s" clipPathUnits="userSpaceOnUse"><path d="M347.976 426.588h3.633v-3.633h-3.633z"></path></clipPath><clipPath id="t" clipPathUnits="userSpaceOnUse"><path d="M354.298 427.436h3.633v-3.633h-3.633z"></path></clipPath></defs><g clip-path="url(#a)" transform="matrix(1.33333 0 0 -1.33333 -26.779 931.08)" data-source="https://football-logos.cc"><path d="M0 0c0-153.29-124.266-278.173-277.556-278.173S-555.112-153.29-555.112 0s124.266 277.556 277.556 277.556S0 153.29 0 0" style="fill:#010101;fill-opacity:1;fill-rule:nonzero;stroke:none" transform="translate(575.196 420.753)"></path><path d="M0 0c-107.242 0-194.178 87.369-194.178 194.604 0 107.241 86.936 194.178 194.178 194.178s194.178-86.937 194.178-194.178C194.178 87.369 107.242 0 0 0m0 460.41c-146.753 0-265.726-118.967-265.726-265.726C-265.726 47.931-146.753-71.628 0-71.628S265.726 47.931 265.726 194.684C265.726 341.443 146.753 460.41 0 460.41" style="fill:#fefefe;fill-opacity:1;fill-rule:nonzero;stroke:none" transform="translate(297.64 226.054)"></path><path d="M0 0c0-102.118-82.783-185.312-184.901-185.312S-369.802-102.118-369.802 0s82.783 184.901 184.901 184.901S0 102.118 0 0" style="fill:#002bfe;fill-opacity:1;fill-rule:nonzero;stroke:none" transform="translate(482.54 420.65)"></path><path d="M0 0c-31.654-31.654-69.019-47.499-79.486-51.527a7.57 7.57 0 0 0-5.656.087c-10.633 4.471-49.146 21.927-73.836 49.62-20.311 22.785-29.402 42.066-30.321 69.408l.727 145.606a4.105 4.105 0 0 0 3.51 4.034c37.686 5.434 75.723 10.294 105.397 40.233a3.024 3.024 0 0 0 4.096.173c32.153-27.262 55.542-33.036 104.287-39.068a3.384 3.384 0 0 0 2.967-3.33l.869-134.665C33.461 47.956 20.718 20.718 0 0m42.139 220.922a7.52 7.52 0 0 1-6.729 7.427c-51.576 5.489-78.992 10.454-111.133 42.774a4.74 4.74 0 0 1-6.983-.278c-26.411-31.203-65.416-41.183-111.077-42.959a7.615 7.615 0 0 1-7.316-7.636l.407-151.576C-200.451-.259-149.93-34.281-97.607-58.891l13.785-6.341a5.32 5.32 0 0 1 4.626.093l15.407 7.827C-7.118-28.977 43.589 9.696 43.04 80.639Z" style="fill:#000;fill-opacity:1;fill-rule:nonzero;stroke:none" transform="translate(379.124 320.337)"></path><path d="M0 0c-37.081-37.088-82.502-52.581-82.958-52.736l-.599-.203-.592.228c-.481.185-48.554 18.639-77.37 50.966-21.23 23.814-29.853 43.582-30.76 70.505l.747 149.202a1.74 1.74 0 0 0 1.492 1.721l6.138.888c36.791 5.292 74.841 10.769 103.682 41.337a1.75 1.75 0 0 0 2.418.123c16.882-14.636 31.314-23.308 47.875-29.094 16.555-5.785 35.225-8.678 60.569-11.762a1.737 1.737 0 0 0 1.536-1.727l.888-137.637C33.93 50.799 22.501 22.494 0 0m39.16 222.131a5.796 5.796 0 0 1-5.175 5.718c-52.791 5.631-79.806 10.806-111.898 42.99a3.374 3.374 0 0 1-4.959-.197c-29.489-34.479-73.818-41.794-111.541-43.256-3.454-.135-6.18-2.997-6.174-6.458l.414-151.015c.234-68.827 51.73-102.313 102.066-125.985l14.47-6.656a2.02 2.02 0 0 1 1.746.037l16.092 8.179C-32.018-37.624-8.395-20.909 8.549-1.918c21.452 24.055 31.758 51.459 31.512 83.779z" style="fill:#f3c302;fill-opacity:1;fill-rule:nonzero;stroke:none" transform="translate(380.358 319.103)"></path><path d="M0 0s11.719-17.013 27.293-17.013c11.992 0 22.613 9.782 26.864 14.282a2.343 2.343 0 0 0 3.592-.23c3.38-4.594 12.083-14.052 26.443-14.052 13.51 0 21.308 8.371 24.677 13.188.998 1.427 3.093 1.468 4.139.076 3.61-4.805 11.816-13.264 24.845-13.264 13.459 0 22.278 9.449 25.957 14.369a2.596 2.596 0 0 0 4.075.107c4.066-4.887 13.772-14.476 27.329-14.476 18.196 0 29.874 21.022 29.874 21.022s.354-9.406-1.033-12.027c0 0-13.575-15.934-28.995-15.934S165.917-8.841 165.917-8.841s-11.719-15.111-28.527-15.111c-16.807 0-26.83 14.803-26.83 14.803S99.92-23.952 84.038-23.952c-15.883 0-28.373 14.803-28.373 14.803s-11.41-14.803-29.143-14.803C10.794-23.952 0-8.738 0-8.738Z" style="fill:#fefefe;fill-opacity:1;fill-rule:nonzero;stroke:none" transform="translate(188.382 394.711)"></path><path d="M0 0s21.944-21.655 45.018 4.74a3.18 3.18 0 0 0 4.702.082c7.023-7.462 28.462-25.961 49.179-.247 1.149 1.426 3.304 1.466 4.48.061 6.44-7.691 26.197-26.115 50.508 1.133a1.96 1.96 0 0 0 2.973-.042c6.003-7.218 34.962-30.09 59.171 10.001 0 0-4.472-16.962-9.56-20.971 0 0-21.048-25.828-51.194 4.318 0 0-23.369-32.281-54.432-1.218 0 0-24.038-31.042-53.352-.049 0 0-20.508-22.634-41.017-9.219C6.476-11.411 0-3.855 0 0" style="fill:#fefefe;fill-opacity:1;fill-rule:nonzero;stroke:none" transform="translate(194.55 355.031)"></path><path d="M0 0s16.361-6.17 27.774 9.038c.853 1.137 2.515 1.263 3.488.227 5.528-5.882 22.55-20.53 40.069-.392 1.07 1.23 3 1.213 4.06-.026 5.39-6.297 21.094-20.575 39.55-.092 1.191 1.323 3.266 1.325 4.483.026 5.043-5.382 19.006-15.387 34.465-5.08 0 0-6.322-7.864-12.49-10.023 0 0-12.798-2.159-24.517 10.948 0 0-20.123-24.132-43.484-.771 0 0-18.195-23.13-43.792 0 0 0-8.327-10.31-21.896-10.31 0 0-5.551 2.446-7.71 6.455" style="fill:#fefefe;fill-opacity:1;fill-rule:nonzero;stroke:none" transform="translate(222.922 314.015)"></path><path d="M0 0s7.608 2.398 11.328 6.824c.625.744 1.76.769 2.426.06C17.065 3.361 26.214-4.165 36.42 6.6c.847.893 2.27.9 3.107-.002 3.418-3.681 12.297-10.724 23.065.358.758.78 2.005.811 2.802.071C68.079 4.532 73.867-.385 77.407 0c0 0-3.906-3.187-6.476-2.056l-6.887 6.168S51.675-8.962 38.019 3.906c0 0-12.628-13.877-25.478-.102 0 0-6.681-5.757-8.121-5.757 0 0-3.135.668-4.42 1.953" style="fill:#af79ff;fill-opacity:1;fill-rule:nonzero;stroke:none" transform="translate(259.621 285.642)"></path><path d="M0 0s-2.319 1.85-.16 3.547c0 0 17.418 1.899 32.683-1.018C34.035 2.239 33.813 0 32.271 0Zm-5.403 18.09c-.123.346-.099.734.049 1.068 1.437 3.17 4.219.024 4.275-.037-.037.049-.259.659 14.18 1.233 6.359.253 10.904-.074 14.13-.641 2.159-.377 1.949-3.547-.246-3.639-7.217-.321-16.506-.303-16.506-.303l-7.784.771c-1.387.136-2.806.013-4.107-.493-2.597-1.012-3.646 1.018-3.991 2.041m-31.216-2.208-28.921-.401s-4.318.247-2.005 4.873h33.695s3.041-.074 3.041-3.047c0-2.967-5.81-1.425-5.81-1.425m-33.856 24.364s26.06 7.71 37.779 0c0 0 1.085-6.168-1.154-7.248 0 0-23.826 2.776-30.765 0 0 0-4.348 1.117-5.86 7.248M59.36-44.563H42.861s.925 9.406 11.41 13.569l.309 3.238 6.014 6.785 12.952 7.247-15.111-6.63-5.706-4.318h-1.696l-2.239-2.232-3.312 4.545-4.317-2.775-4.935 1.079-1.696 1.696-5.551-2.467H12.175v7.71s13.86 1.036 23.531-3.417c1.264-.586 2.726.265 2.893 1.647l.493 4.028c.222 1.856 2.437 2.701 3.843 1.467l2.819-2.473c1.036-.907 2.658-.173 2.658 1.203v1.166a1.962 1.962 0 0 0 2.757 1.794l1.203-.536a2.546 2.546 0 0 1 3.472 1.628l.74 2.591 4.299-.956a6.6 6.6 0 0 1 2.517-.074l6.445 1.03S51.65 13.261 36.385 29.606l-.155-9.869-2.467 4.164s1.851 10.331-4.626 10.331c-6.476 0-39.474-.771-39.474-.771l-3.239 4.626s11.103 6.785 19.121 3.392h3.238s7.247 4.318 22.359-3.392c0 0-.925 12.644-5.089 19.737 0 0-23.592 3.393-37.47 0 0 0-4.472-12.644-3.546-17.887l-16.5 20.2-3.164-3.158s-15.339 3.467-35.077.691l-3.084-15.266s-4.471 6.939-7.401 9.869c0 0-.154-14.34 3.392-20.508l-6.858 6.865s-.697-6.865 1.924-9.487c0 0 .154-8.789 1.85-10.485l.463-10.331 1.77-1.777s-.771-8.012 4.244-3.003c0 0 10.331-1.388 13.415 1.696h13.723l12.416-2.005c.093 0 2.542-.018 2.542-1.918 0-1.937-3.004-1.937-3.004-1.937h-42.331s-3.083 5.86-4.471 2.93 1.233-5.551 1.233-5.551l.771-14.495s0-4.397 4.392-4.397h11.182s2.776 1.622 1.388 3.935l1.314 1.307s4.7-2.387 6.088 0l21.896-.691 8.789-3.392s.925.925.925 5.551.771 9.56.771 9.56 2.005-7.247 2.005-14.032c0 0 10.794-.925 16.036 3.239H8.012l.308-7.093-2.004-2.313h-32.998l1.752-4.06a1.95 1.95 0 0 0-1.791-2.725h-18.157s-1.079 7.556-4.163.771c0 0-7.482-2.702-9.098 4.009l-31.61.771s-1.542 16.191-3.393.308l-18.041.771v2.159s-12.872-1.307-15.42 1.234c0 0-2.004-7.864 3.393-11.565s4.009-9.715 4.009-9.715-5.705-6.784-15.266 0l-11.41 5.434.925-4.508s23.352-27.818 52.069-2.492a4.635 4.635 0 0 0 6.008.086c7.975-6.581 30.229-21.285 49.09.555h5.706s21.125-28.526 48.264-.154l7.753.043s25.553-28.724 52.384 5.046z" style="fill:#fefefe;fill-opacity:1;fill-rule:nonzero;stroke:none" transform="translate(334.259 459.423)"></path><path d="m0 0-12.323-32.536a4.18 4.18 0 0 1 .736-4.198l6.19-7.212-.925-2.776s-2.887 4.301-6.44 8.933c-1.792 2.338-5.516.705-4.999-2.195l.953-5.35s-4.36-18.123-6.42-30.415a15 15 0 0 0-1.487-4.441l-.562-1.084c-1.295-2.496.451-5.487 3.26-5.594 1.332-.051 2.697-.047 3.865.071a13.4 13.4 0 0 0 4.821-.414c1.35-.365 3.028-.724 4.608-.799 2.331-.11 4.275 1.782 4.356 4.114l.443 12.691a1.245 1.245 0 0 0 1.818 1.061L0-71.239s3.392 6.013 0 14.186c0 0 1.85 5.705-4.163 9.714 0 0 2.158-1.079 4.163 47.339" style="fill:#fefefe;fill-opacity:1;fill-rule:nonzero;stroke:none" transform="translate(238.033 525.42)"></path><path d="M0 0c.868 4.767 3.324 12.25 4.403 14.84l24.749.848S32.866 11.824 36.386.31c.567-1.853-1.132-3.6-3.006-3.106-5.798 1.531-17.036 3.41-30.666.223C1.145-2.94-.289-1.585 0 0" style="fill:#fefefe;fill-opacity:1;fill-rule:nonzero;stroke:none" transform="translate(323.296 522.993)"></path><path d="M0 0c.185 3.364.81 9.219 2.898 13.504a3.57 3.57 0 0 0 3.201 2.019h4.716a3.29 3.29 0 0 1 2.925 1.776c.312.603.695 1.309 1.127 2.032 1.14 1.908 3.942 1.714 4.864-.309.163-.36.314-.731.441-1.107a2.95 2.95 0 0 1 3.06-2.001l4.293.383c1.2.107 2.377-.4 3.098-1.365 1.102-1.476 2.453-4.045 2.453-7.768 0 0 1.967-3.128 2.885-7.06.389-1.666-1.204-3.121-2.829-2.583-4.261 1.413-11.547 3.483-14.959 2.428 0 0-9.14.492-15.927-1.707C1.094-2.132-.067-1.208 0 0" style="fill:#fefefe;fill-opacity:1;fill-rule:nonzero;stroke:none" transform="translate(265.403 522.232)"></path><path d="m0 0 1.234-15.831s20.765 2.468 18.503 27.242C17.476 36.185 0 34.129 0 34.129s-12.953.617-16.242-19.326c0 0-.206-13.981-7.196-11.925s-2.673 14.803 4.523 14.803l-.411 15.626s-19.943-1.028-16.653-26.933C-32.69-19.532-14.803-12.13-14.803-12.13s9.869 4.435 12.336 23.908c0 0 1.028 7.754 6.168 7.754S15.42 4.729 0 0" style="fill:#010101;fill-opacity:1;fill-rule:nonzero;stroke:none" transform="translate(76.228 412.084)"></path><path d="m0 0-2.86-8.773a3.366 3.366 0 0 0-4.244-2.157L-40.159-.146a3.365 3.365 0 0 1-4.244-2.156l-3.378-10.363a3.366 3.366 0 0 0-4.244-2.157l-5.344 1.743a3.366 3.366 0 0 0-2.156 4.243l13.617 41.761a3.366 3.366 0 0 0 4.242 2.157l5.343-1.74a3.366 3.366 0 0 0 2.158-4.244l-3.205-9.827a3.366 3.366 0 0 1 2.156-4.243L-2.156 4.243A3.366 3.366 0 0 0 0 0" style="fill:#010101;fill-opacity:1;fill-rule:nonzero;stroke:none" transform="translate(104.874 480.15)"></path><path d="m0 0-5.403-8.9-10.307 6.26 5.477 9.024a5.957 5.957 0 0 0 8.185 1.998A6.09 6.09 0 0 0 .888 3.164C.888 2.085.598.987 0 0m5.095-10.189c.21.132 5.356 3.297 24.196.248a2.33 2.33 0 0 1 2.343 1.06l7.23 11.524c.879 1.4.064 3.245-1.564 3.531-4.928.864-14.067 2.188-19.29 1.209 0 0-3.546-.655-6.174-3.966.278 1.412.307 2.854.414 4.281.513 6.86-1.795 12.203-8.484 15.472-6.744 3.296-14.375 1.344-18.273-5.07L-31.424-8.898a2.33 2.33 0 0 1 .765-3.227l42.09-25.567a2.33 2.33 0 0 1 3.199.782l5.817 9.582a2.33 2.33 0 0 1-.781 3.199L4.824-15.113a2.33 2.33 0 0 0-.78 3.202l1.045 1.715z" style="fill:#010101;fill-opacity:1;fill-rule:nonzero;stroke:none" transform="translate(101.599 546.41)"></path><path d="m0 0-10.376-.858-.992 12.018 10.52.871a5.957 5.957 0 0 0 6.427-5.448 6.09 6.09 0 0 0-2.497-5.442A6.1 6.1 0 0 0 0 0m-5.251-10.11c.231-.092 5.816-2.396 14.42-19.432a2.33 2.33 0 0 1 2.234-1.272l13.574.921c1.649.112 2.663 1.855 1.937 3.341-2.196 4.495-6.495 12.667-10.357 16.318 0 0-2.614 2.484-6.837 2.665 1.306.605 2.489 1.429 3.707 2.181 5.852 3.616 8.819 8.623 7.533 15.957-1.296 7.393-7.359 12.42-14.84 11.805l-31.785-2.177a2.33 2.33 0 0 1-2.162-2.515l4.047-49.08a2.33 2.33 0 0 1 2.513-2.129l11.171.924a2.33 2.33 0 0 1 2.129 2.512l-1.427 17.307a2.33 2.33 0 0 0 2.132 2.513l2.003.162z" style="fill:#010101;fill-opacity:1;fill-rule:nonzero;stroke:none" transform="translate(274.807 652.573)"></path><path d="m0 0-7.729 6.976 8.081 8.95 7.837-7.072A5.956 5.956 0 0 0 8.617.44a6.09 6.09 0 0 0-5.676-1.906A6.1 6.1 0 0 0 0 0m-10.964-3.094c.09-.231 2.235-5.88-4.293-23.814a2.33 2.33 0 0 1 .602-2.5l9.964-9.263c1.211-1.125 3.176-.671 3.762.875 1.773 4.678 4.787 13.407 4.804 18.721 0 0 .021 3.606-2.738 6.808 1.336-.537 2.746-.836 4.127-1.209 6.643-1.79 12.324-.524 16.789 5.433 4.502 6.007 4.016 13.867-1.554 18.899L-2.848 32.535a2.33 2.33 0 0 1-3.313-.146l-33.005-36.55a2.327 2.327 0 0 1 .168-3.289l8.321-7.511a2.33 2.33 0 0 1 3.289.168l11.639 12.889a2.33 2.33 0 0 0 3.291.165l1.489-1.348z" style="fill:#010101;fill-opacity:1;fill-rule:nonzero;stroke:none" transform="translate(457.058 591.164)"></path><path d="M0 0a1.805 1.805 0 0 0-2.84.602L-9.389 14.96c-.592 1.307.876 2.59 2.091 1.819l13.21-8.351a1.866 1.866 0 0 0 .241-2.973Zm-14.097 33.367-10.796-9.838a2.6 2.6 0 0 1-.678-2.847l18.787-49.173a2.598 2.598 0 0 1 4.162-1.007l8.163 7.323c.846.758 1.1 1.978.629 3.011l-2.55 5.595a2.6 2.6 0 0 0 .641 3.022L15.98-.159c.865.768 2.134.87 3.112.252l4.947-3.129a2.6 2.6 0 0 1 3.124.262l8.193 7.353a2.597 2.597 0 0 1-.497 4.217L-11.109 33.73a2.6 2.6 0 0 1-2.988-.363" style="fill:#010101;fill-opacity:1;fill-rule:nonzero;stroke:none" transform="translate(148.896 584.993)"></path><path d="M0 0a1.806 1.806 0 0 0-1.389 2.55l6.652 14.309c.609 1.3 2.538 1.019 2.742-.405L10.248.987a1.867 1.867 0 0 0-2.104-2.116Zm16.189 32.403L1.695 34.212a2.6 2.6 0 0 1-2.604-1.337l-25.15-46.242a2.598 2.598 0 0 1 1.94-3.817l10.871-1.443a2.6 2.6 0 0 1 2.698 1.48l2.593 5.575a2.6 2.6 0 0 0 2.712 1.478l15.513-2.151a2.6 2.6 0 0 0 2.214-2.202l.839-5.793a2.596 2.596 0 0 1 2.23-2.203l10.913-1.445a2.598 2.598 0 0 1 2.882 3.119L18.408 30.369a2.6 2.6 0 0 1-2.219 2.034" style="fill:#010101;fill-opacity:1;fill-rule:nonzero;stroke:none" transform="translate(332.26 639.275)"></path><path d="m0 0-10.246-4.264a2.84 2.84 0 0 0-2.688.274l-26.349 17.933c-1.296.882-2.937-.483-2.307-1.917l9.729-22.15a2.84 2.84 0 0 0-1.509-3.763l-9.367-3.898a2.84 2.84 0 0 0-3.712 1.53l-19.052 45.782a2.84 2.84 0 0 0 1.53 3.712l10.515 4.376a2.84 2.84 0 0 0 2.705-.286l25.797-17.825c1.204-.832 2.744.432 2.165 1.775l-9.503 22.028a2.84 2.84 0 0 0 1.516 3.746l9.542 3.971a2.84 2.84 0 0 0 3.712-1.53L1.53 3.712A2.84 2.84 0 0 0 0 0" style="fill:#010101;fill-opacity:1;fill-rule:nonzero;stroke:none" transform="translate(238.047 613.53)"></path><path d="m0 0-2.489-5.17a1.934 1.934 0 0 1 .904-2.583l20.252-9.75a1.936 1.936 0 0 0 .904-2.584l-3.143-6.523a1.935 1.935 0 0 0-2.583-.904L-6.402-17.77a1.934 1.934 0 0 1-2.583-.904l-3.096-6.431a1.936 1.936 0 0 1 .905-2.583l22.997-11.076a1.935 1.935 0 0 0 .904-2.584L9.279-48.5a1.935 1.935 0 0 0-2.583-.904l-37.948 18.268a1.936 1.936 0 0 0-.905 2.584l21.882 45.447a1.937 1.937 0 0 0 2.585.904L29.165.02a1.935 1.935 0 0 0 .904-2.582l-2.99-6.213a1.936 1.936 0 0 0-2.586-.904L2.586.903A1.935 1.935 0 0 1 0 0" style="fill:#010101;fill-opacity:1;fill-rule:nonzero;stroke:none" transform="translate(400.593 641.425)"></path><path d="m0 0-5.169-2.816a2.22 2.22 0 0 1-.887-3.011l8.485-15.574a2.22 2.22 0 0 0-.888-3.011l-5.199-2.83a2.22 2.22 0 0 0-3.01.887l-8.485 15.575a2.22 2.22 0 0 1-3.011.887l-15.605-8.503a2.22 2.22 0 0 0-3.011.887l-5.396 9.911a2.22 2.22 0 0 0 .888 3.011L1.974 18.979a2.22 2.22 0 0 0 3.011-.888l17.694-32.485a2.22 2.22 0 0 0-.888-3.011l-5.594-3.046a2.22 2.22 0 0 0-3.011.887L3.011-.887A2.22 2.22 0 0 1 0 0" style="fill:#010101;fill-opacity:1;fill-rule:nonzero;stroke:none" transform="translate(515.707 527.917)"></path><path d="m0 0-9.79-3.447a2.295 2.295 0 0 0-2.927 1.402l-3.678 10.447a2.295 2.295 0 0 0 1.402 2.927l9.79 3.447a2.295 2.295 0 0 0 2.927-1.403L1.403 2.927A2.296 2.296 0 0 0 0 0" style="fill:#010101;fill-opacity:1;fill-rule:nonzero;stroke:none" transform="translate(505.545 476.859)"></path><path d="m0 0-10.266 1.526a2.296 2.296 0 0 0-1.933 2.608l1.629 10.955a2.294 2.294 0 0 0 2.607 1.932l10.267-1.526a2.295 2.295 0 0 0 1.932-2.608L2.608 1.933A2.296 2.296 0 0 0 0 0" style="fill:#010101;fill-opacity:1;fill-rule:nonzero;stroke:none" transform="translate(510.619 386.325)"></path><path d="m0 0-3.337 7.886c-.55 1.299-.146 2.829 1.013 3.633 3.523 2.442 5.647 5.974 5.406 9.762-.419 6.655-7.987 11.589-16.9 11.022s-15.796-6.421-15.37-13.076c.307-4.836 4.386-8.76 10.013-10.327a3.02 3.02 0 0 0 2.11-3.672l-2.097-8.066c-.457-1.759-2.343-2.702-4.042-2.058-9.703 3.683-16.817 11.734-17.524 22.865-.987 15.457 10.738 28.779 26.195 29.766 15.451.981 28.779-10.744 29.76-26.201.601-9.381-3.741-17.374-10.573-22.746C3.088-2.442.776-1.834 0 0" style="fill:#010101;fill-opacity:1;fill-rule:nonzero;stroke:none" transform="translate(538.869 420.693)"></path><path d="M0 0v-47.435a3.113 3.113 0 0 0-3.113-3.113h-8.267a3.113 3.113 0 0 0-3.113 3.113v29.793c0 1.148-1.333 1.796-2.226 1.073-3.384-2.738-7.866-5.587-11.806-6.197-1.166-.181-2.21.747-2.21 1.926v7.12c0 1.276.774 2.42 1.96 2.891 3.301 1.312 9.982 4.405 13.768 9.177a14 14 0 0 1 1.793 2.871c.521 1.134 1.616 1.894 2.864 1.894h7.237A3.113 3.113 0 0 0 0 0" style="fill:#010101;fill-opacity:1;fill-rule:nonzero;stroke:none" transform="translate(230.219 227.326)"></path><path d="M0 0c-4.176 0-7.556 3.96-7.556 8.845 0 4.879 3.38 8.838 7.556 8.838 4.17 0 7.556-3.959 7.556-8.838C7.556 3.96 4.17 0 0 0m-.105 38.5a6.73 6.73 0 1 0 0-13.464 6.73 6.73 0 0 0-6.735 6.729A6.736 6.736 0 0 0-.105 38.5m15.482-18.46c-1.4.869-1.616 2.824-.37 3.904 2.794 2.411 4.471 5.495 4.471 8.851 0 7.722-8.857 13.982-19.786 13.982s-19.793-6.26-19.793-13.982c0-3.343 1.659-6.409 4.435-8.814 1.295-1.129 1.338-3.152-.007-4.219-3.694-2.936-5.97-6.945-5.97-11.38 0-8.999 9.431-15.339 20.971-16.295C14.236-9.147 21.742-.617 21.742 8.382c0 4.299-2.171 9.067-6.365 11.658" style="fill:#010101;fill-opacity:1;fill-rule:nonzero;stroke:none" transform="translate(269.44 172.973)"></path><path d="M0 0v-4.932a2.55 2.55 0 0 0-.818-1.875c-.813-.755-2.099-2.026-3.224-3.489-5.422-7.032-12.823-19.239-14.765-37.592a2.556 2.556 0 0 0-2.541-2.289h-9.106a2.56 2.56 0 0 0-2.533 2.924c.895 6.334 4.175 21.858 15.693 35.605.894 1.066.133 2.691-1.259 2.691H-40a2.56 2.56 0 0 0-2.559 2.559V0A2.56 2.56 0 0 0-40 2.559h37.441A2.56 2.56 0 0 0 0 0" style="fill:#010101;fill-opacity:1;fill-rule:nonzero;stroke:none" transform="translate(339.804 216.267)"></path><path d="M0 0c0-4.058-2.726-8.378-6.785-8.378-4.058 0-6.682 4.32-6.682 8.378v22.1c0 4.058 2.624 8.38 6.682 8.38C-1.773 30.48 0 24.129 0 22.1Zm8.623 32.215a21.7 21.7 0 0 1-15.408 6.384c-12.033 0-21.791-9.758-21.791-21.791V4.577c0-12.04 9.758-21.798 21.791-21.798S15.007-7.463 15.007 4.577v12.231a21.7 21.7 0 0 1-6.384 15.407" style="fill:#010101;fill-opacity:1;fill-rule:nonzero;stroke:none" transform="translate(378.662 190.81)"></path><g clip-path="url(#b)" opacity=".49"><path d="m0 0-1.568-19.712-7.915-40.965 2.159-.308 6.013 35.311v-47.824c0-.924.749-1.673 1.674-1.673h.624c.939 0 1.694.772 1.673 1.711l-.733 32.212 1.08-18.812h4.472L3.007-25.057.78 36.922Z" style="fill:#010101;fill-opacity:1;fill-rule:nonzero;stroke:none" transform="translate(282.057 502.521)"></path><path d="m0 0-2.262-19.018-7.915-40.965 2.159-.308 6.013 35.311-.383-43.381h4.009l-.387 27.807 1.079-18.812 2.508-.193.809-8.211 2.222.046-5.539 43.361-.925 59.674z" style="fill:#010101;fill-opacity:1;fill-rule:nonzero;stroke:none" transform="translate(340.65 501.827)"></path><path d="M0 0s3.701-33.512 1.85-44.82l1.44-21.177-17.476 1.44s-1.851 4.317 1.233 4.317h9.458v18.709s4.934 10.28 3.289 18.504l-2.364 2.364z" style="fill:#010101;fill-opacity:1;fill-rule:nonzero;stroke:none" transform="translate(237.622 497.818)"></path></g><g clip-path="url(#c)" opacity=".05"><path d="M0 0a1.62 1.62 0 1 0-3.238 0A1.62 1.62 0 0 0 0 0" style="fill:#1d1d1b;fill-opacity:1;fill-rule:nonzero;stroke:none" transform="translate(228.396 424.574)"></path></g><g clip-path="url(#d)" opacity=".05"><path d="M0 0a1.816 1.816 0 1 0-3.632 0A1.816 1.816 0 0 0 0 0" style="fill:#1d1d1b;fill-opacity:1;fill-rule:nonzero;stroke:none" transform="translate(258.045 422.261)"></path></g><g clip-path="url(#e)" opacity=".05"><path d="M0 0a1.816 1.816 0 1 0-3.632 0A1.816 1.816 0 0 0 0 0" style="fill:#1d1d1b;fill-opacity:1;fill-rule:nonzero;stroke:none" transform="translate(263.673 422.261)"></path></g><g clip-path="url(#f)" opacity=".05"><path d="M0 0a1.816 1.816 0 1 0-3.632 0A1.816 1.816 0 0 0 0 0" style="fill:#1d1d1b;fill-opacity:1;fill-rule:nonzero;stroke:none" transform="translate(269.301 422.261)"></path></g><g clip-path="url(#g)" opacity=".05"><path d="M0 0a1.816 1.816 0 1 0-3.632 0A1.816 1.816 0 0 0 0 0" style="fill:#1d1d1b;fill-opacity:1;fill-rule:nonzero;stroke:none" transform="translate(275.238 422.261)"></path></g><g clip-path="url(#h)" opacity=".05"><path d="M0 0a1.816 1.816 0 1 0-3.632 0A1.816 1.816 0 0 0 0 0" style="fill:#1d1d1b;fill-opacity:1;fill-rule:nonzero;stroke:none" transform="translate(281.055 421.924)"></path></g><g clip-path="url(#i)" opacity=".05"><path d="M0 0a1.816 1.816 0 1 0-3.632 0A1.816 1.816 0 0 0 0 0" style="fill:#1d1d1b;fill-opacity:1;fill-rule:nonzero;stroke:none" transform="translate(286.803 421.924)"></path></g><g clip-path="url(#j)" opacity=".05"><path d="M0 0a1.816 1.816 0 1 0-3.632 0A1.816 1.816 0 0 0 0 0" style="fill:#1d1d1b;fill-opacity:1;fill-rule:nonzero;stroke:none" transform="translate(292.431 421.693)"></path></g><g clip-path="url(#k)" opacity=".05"><path d="M0 0a1.816 1.816 0 1 0-3.632 0A1.816 1.816 0 0 0 0 0" style="fill:#1d1d1b;fill-opacity:1;fill-rule:nonzero;stroke:none" transform="translate(298.95 421.693)"></path></g><g clip-path="url(#l)" opacity=".05"><path d="M0 0a1.816 1.816 0 1 0-3.632 0A1.816 1.816 0 0 0 0 0" style="fill:#1d1d1b;fill-opacity:1;fill-rule:nonzero;stroke:none" transform="translate(305.47 421.693)"></path></g><g clip-path="url(#m)" opacity=".05"><path d="M0 0a1.816 1.816 0 1 0-3.632 0A1.816 1.816 0 0 0 0 0" style="fill:#1d1d1b;fill-opacity:1;fill-rule:nonzero;stroke:none" transform="translate(311.098 421.924)"></path></g><g clip-path="url(#n)" opacity=".05"><path d="M0 0a1.816 1.816 0 1 0-3.632 0A1.816 1.816 0 0 0 0 0" style="fill:#1d1d1b;fill-opacity:1;fill-rule:nonzero;stroke:none" transform="translate(313.668 459.548)"></path></g><g clip-path="url(#o)" opacity=".05"><path d="M0 0a1.816 1.816 0 1 0-3.632 0A1.816 1.816 0 0 0 0 0" style="fill:#1d1d1b;fill-opacity:1;fill-rule:nonzero;stroke:none" transform="translate(374.32 458.931)"></path></g><g clip-path="url(#p)" opacity=".05"><path d="M0 0a1.816 1.816 0 1 0-3.632 0A1.816 1.816 0 0 0 0 0" style="fill:#1d1d1b;fill-opacity:1;fill-rule:nonzero;stroke:none" transform="translate(311.852 475.688)"></path></g><g clip-path="url(#q)" opacity=".05"><path d="M0 0c0-2.468-.813-4.469-1.816-4.469S-3.633-2.468-3.633 0s.813 4.469 1.817 4.469C-.813 4.469 0 2.468 0 0" style="fill:#1d1d1b;fill-opacity:1;fill-rule:nonzero;stroke:none" transform="translate(310.035 495.508)"></path></g><g clip-path="url(#r)" opacity=".05"><path d="M0 0a1.816 1.816 0 1 0-3.632 0A1.816 1.816 0 0 0 0 0" style="fill:#1d1d1b;fill-opacity:1;fill-rule:nonzero;stroke:none" transform="translate(345.287 424.078)"></path></g><g clip-path="url(#s)" opacity=".05"><path d="M0 0a1.816 1.816 0 1 0-3.632 0A1.816 1.816 0 0 0 0 0" style="fill:#1d1d1b;fill-opacity:1;fill-rule:nonzero;stroke:none" transform="translate(351.61 424.772)"></path></g><g clip-path="url(#t)" opacity=".05"><path d="M0 0a1.816 1.816 0 1 0-3.632 0A1.816 1.816 0 0 0 0 0" style="fill:#1d1d1b;fill-opacity:1;fill-rule:nonzero;stroke:none" transform="translate(357.931 425.62)"></path></g></g><!-- source: https://football-logos.cc --></svg>