<svg xmlns="http://www.w3.org/2000/svg" viewBox="1.63 0.48 420.88 566.93"><!-- Source: https://football-logos.cc --><rect width="100%" height="100%" fill="none" data-source="https://football-logos.cc"></rect><g class="currentLayer" data-source="https://football-logos.cc"><g><path d="M102.644 37.5 33.107 2.954C10.243 16.616 0 48.403 1.836 51.4l26.613 43.46C14.058 145.783 6.246 198.066 6.588 256.113c.647 109.968 53.277 259.97 204.814 300.58 156.205-39.846 204.621-187.966 206.017-300.16.724-58.236-5.316-111.227-22.21-161.07L422.184 52.2c1.92-3.08-4.154-32.098-30.152-49.353l-73.45 33.799C282.913 11.473 244.271.965 209.889.497 173.285 0 138.233 11.52 102.644 37.501" style="fill:#1b1918;fill-rule:evenodd"></path><path d="M38.407 102.681 15.985 67.844c-4.743-7.366 1.535-21.06 5.131-28.083 5.955-11.634 14.63-22.696 25.66-29.884l4.827-3.147 63.675 33.221c29.131-19.584 61.312-31.62 96.866-31.09 34.107.507 67.892 11.864 96.19 30.76l62.65-33.74 5.002 3.62c11.022 7.978 20.371 18.617 26.758 30.638 3.656 6.885 9.318 19.452 4.69 26.772l-23.345 36.927c12.517 53.087 23.018 107.084 20.612 161.902-5.713 130.15-64.856 248.472-189.795 300.062L211 567.414l-3.863-1.718C85.702 511.62 23.39 397.244 18.659 267.453c-.714-19.617.163-39.296 1.926-58.837a703.4 703.4 0 0 1 17.822-105.935" style="fill:#fff;fill-rule:evenodd"></path><path d="m43.704 101.808-23.576-36.63c-3.327-5.168 2.962-18.46 5.375-23.172 5.554-10.85 13.673-21.295 23.963-28l2.413-1.574 63.736 33.253c28.965-20.012 60.864-32.428 96.456-31.898 34.197.51 68.026 12.268 95.968 31.59l62.56-33.693 2.498 1.808c10.404 7.532 19.264 17.606 25.295 28.96 2.49 4.685 8.173 16.613 4.877 21.826l-24.452 38.678c12.622 53.292 23.378 107.507 20.962 162.568-5.613 127.864-63.37 244.776-186.753 295.723l-1.953.806-1.932-.859C89.293 507.825 28.24 394.988 23.584 267.274c-.706-19.37.167-38.92 1.909-58.215 3.218-35.673 9.45-72.448 18.211-107.25" style="fill:#1b1918;fill-rule:evenodd"></path><path d="M117.682 52.282 52.156 18.133C31.767 31.423 22.46 59.698 24.271 62.511l24.736 38.432c-10.822 42.398-22.555 109.729-20.499 166.151 4.099 112.436 54.546 232.558 182.638 289.598 125.72-51.912 178.439-171.295 183.71-291.384 2.484-56.593-9.263-112.562-21.312-163.232l25.56-40.431c1.845-2.917-5.714-27.38-28.897-44.162L305.715 52c-30.8-22.016-62.492-31.138-93.154-31.595-32.643-.486-63.143 9.35-94.879 31.877" style="fill:#fff;fill-rule:evenodd"></path><path d="m145.24 97.658-44.135-23.025c-14.083 9.18-22.204 30.967-20.954 32.909L97.24 134.09c-9.168 30.978-16.145 72.98-14.725 111.954 2.83 77.666 35.988 158.39 128.417 200.61 96.426-47.134 126.082-128.475 128.029-201.28 1.046-39.115-3.582-70.99-14.723-108.246l17.658-30.184c1.203-2.057-5.075-20.605-21.09-32.197l-42.858 22.716c-17.894-16.335-45.987-22.075-67.167-22.389-22.547-.334-46.437 5.895-65.54 22.584" style="fill:#1b1918;fill-rule:evenodd"></path><path d="m151.29 111.11-39.95-20.303c-13.108 8.543-20.555 27.066-19.501 28.937l14.212 25.27c-7.968 29.96-13.898 69.616-12.577 105.886 1.969 54.072 20.531 108.048 64.705 147.4l18.142-50.359c-14.342-1.766-38.622-8.946-54.096-46.009l2.632-.96 7.626 8.577 1.936-1.033L129.396 298l2.321-.457 6.964 3.854 4.236-.484c1.822-.208 3.676-2.608 5.42-5.876l-.16-.213c-1.068-1.438-4.925-.049-5.925-.59-2.71-1.467-.636-3.89-4.778-5.623l4.335-5.134c.873 2.684 4.851 2.955 5.7 4.445 1.06 1.86.147 4.437 2.024 4.712 1.603-3.426 3.078-7.358 4.298-10.658v-6.293l-6.396.138-1.018 2.623-11.672.936-4.753-1.487-4.74-.126-4.796-2.936c-1.34-17.975.67-43.033 16.579-55.626l36.49 8.512a41 41 0 0 1 5.157-5.427l-34.34-8.273 3.074-3.722 38.241 7.075c3.842-2.16 8.11-3.792 12.785-4.918l-6.15-2.33c-12.6-.113-29.43-4.733-41.75-8.79l-.307-5.13 75.558 14.41 5.3-14.711-60.064-62.112-9.76-15.511 7.915 1.569 64.001 70.247 31.045-86.177c-16.114-9.034-36.5-13.033-51.945-13.262-20.983-.31-43.218 4.923-60.996 20.455m101.612 203.043 12.857 20.388c8.123-.587 15.028-1.142 21.9-5.68 9.276-8.935 7.215-18.437 13.627-30.146l-8.819-17.884.024-.134-18.236 1.686zm10.778 23.998-10.093 16.829c1.285 8.032 4.587 9.271 9.775 8.926 3.626-.241 6.971-1.345 10.426-2.605 2.547-1.59 5.24-3.261 6.928-4.774 5.249-4.7 7.852-11.51 15.097-16.062l-8.13-7.565c-7.445 4.253-14.884 4.558-24.003 5.25m32.378-57.837 8.214 16.23c4.464-.323 9.584-2.154 14.235-4.646.89-15.006-2.074-28.371-8.464-41.08-3.151-.09-6.444 1.517-9.736 4.4zm-118.402 63.92 2.827-7.847-9.929-2.736 12.16-3.457 4.67-12.966-9.292.619-7.278-5.68c-10.422 1.313-22.442 3.38-32.113 6.2.46 1.61 1.384 3.273 2.51 4.79l34.547-.652-24.275 6.687c2.735 2.462 5.623 4.767 8.628 6.817 2.178 1.485 7.112-.318 8.117 2.052.895 2.113 2.188 3.832 4.119 4.563a41 41 0 0 0 5.309 1.61m20.528-56.98 3.602-10.004c1.911-7.119 1.16-9.299-3.94-11.59-6.689 1.643-16.302 8.97-22.356 13.253-6.636 4.695-4.69 11.429 1.985 14.837 3.709 1.895 15.755-3.154 20.709-6.497m16.669-46.275 9.14-25.37a64.5 64.5 0 0 0-10.855-.603c-4.995 2.571-3.894 6.507-3.252 9.487 1.081 5.018 3.444 7.456 4.967 16.486m-7.918 1.502c-2.016.403-4.034-.146-5.28-1.303-3.646-3.382-5.031-11.96-11.087-17.092-10.239 9.225-18.464 24.639-21.065 38.145 8.334-4.2 21.486-3 18.759 2.725l-20.45 12.991-1.919 17.534-8.186 1.21-.285-26.44-13.386.484-17.99-6.303c-.449-2.738-.292-5.626.019-8.616l39.318 1.957c4.096-19.607 13.362-33.445 26.944-38.706a57 57 0 0 1 5.115-1.7c7.143 5.367 9.802 14.602 9.493 25.114m-78.275 10.78c-.333-3.452.131-8.07 1.17-12.751l35.307 3.712a71 71 0 0 0-1.721 6.86zm38.278-14.095-37.072-1.458c1.02-3.975 3.145-7.84 4.874-10.909l26.832 3.733 7.363 4.314a52 52 0 0 0-1.997 4.32m-50.216 42.061-1.796 4c4.28 6.125 9.032 7.085 17.354 5.13l-.322-6.724q-8.183 2.177-15.236-2.406M166.61 134.01l-4.947-.218-3.913 7.494-15.025 18.833 1.775 1.119 15.11-18.005 54.756 57.716 12.155-3.315-6.49-7.437-5.609.827-48.044-48.913zm-7.021-7.478-47.442-8.35.518-4.219 4.381-4.024 38.879 7.76zm-4.201 3.934 1.772 3.745-31.019 40.933-1.608 5.61-10.05 9.76-.592-13.383zm40.595 294.232a227 227 0 0 0 15.88 7.833c50.137-24.36 82.304-59.362 100.01-101.378-19.98 39.436-60.95 41.95-94.215 33.378zm124.013-116.696c5.058-17.752 7.908-36.519 8.766-56.074 1.595-36.38-3.333-70.053-12.128-104.726l13.167-25.274c.997-1.913-.148-19.192-13.915-30.064l-42.601 118.255c40.144 20.118 54.94 60.045 46.71 97.883m-52.57-81.621-12.677 35.193 19.84 16.93 18.515-1.325 4.359-25.007c-7.508-10.576-17.656-18.865-30.036-25.791m-31.545 87.563-12.144 33.713c8.573 1.349 17.926 2.458 28.024 3.66l9.877-16.467.185-.015-13.23-20.096z" style="fill:#ffe635;fill-rule:evenodd"></path><path d="m48.535 245.341 17.97 22.59v-15.659q0-3.273-.936-4.427c-.862-1.036-2.3-1.54-4.327-1.504v-1H73.27v1c-1.54.193-2.567.45-3.098.76q-.797.471-1.238 1.532c-.294.706-.44 1.926-.44 3.64V282.6h-.917l-24.625-30.329v23.16c0 2.09.477 3.5 1.44 4.235.952.742 2.053 1.109 3.281 1.109h.862v.99H35.618v-.99c2.007-.018 3.4-.431 4.189-1.238.788-.806 1.182-2.172 1.182-4.107v-25.707l-.778-.972c-.77-.963-1.449-1.595-2.045-1.907-.586-.302-1.44-.468-2.548-.504v-1zM366.512 259.286l12.807 16.035q2.723 3.383 4.676 4.593c.954.569 1.953.862 3.007.862v.99h-18.959v-.99c1.2-.11 1.971-.303 2.319-.569.358-.265.532-.595.532-.99 0-.751-.825-2.172-2.475-4.245l-8.352-10.506-1.348 1.128v9.938q0 2.846.33 3.548c.211.468.623.862 1.228 1.192.614.34 1.587.504 2.934.504v.99H344.84v-.99h1.21c1.054 0 1.907-.193 2.548-.569q.702-.37 1.074-1.292c.2-.422.292-1.55.292-3.383v-23.956c0-1.86-.091-3.026-.292-3.493-.193-.468-.597-.871-1.193-1.22-.605-.348-1.411-.522-2.429-.522h-1.21v-1h18.125v1c-1.229 0-2.173.174-2.815.532q-.702.384-1.1 1.265-.33.673-.33 3.438v11.332l13.513-10.928c1.88-1.523 2.825-2.742 2.825-3.65 0-.687-.386-1.219-1.156-1.613-.394-.202-1.375-.321-2.934-.376v-1h14.21v1c-1.273.091-2.264.312-2.988.679-.733.366-2.402 1.613-5.014 3.722zM82.455 381.26l-9.573 4.064q-2.771 1.177-3.337 1.813c-.383.437-.602.996-.645 1.682-.039.697.268 1.825.93 3.388l-.928.394-7.417-17.478.927-.393c.671 1.58 1.27 2.585 1.812 3.023.53.436 1.073.67 1.645.702.568.022 1.767-.356 3.614-1.14l22.152-9.402q2.768-1.175 3.345-1.815c.384-.436.595-.992.633-1.688.051-.69-.263-1.815-.927-3.38l.936-.397 6.733 15.862c1.755 4.133 2.742 7.273 2.989 9.43.242 2.147-.15 4.16-1.175 6.025-1.019 1.852-2.564 3.228-4.626 4.103-2.518 1.068-4.984 1.04-7.403-.072-1.531-.718-3-2.002-4.398-3.862l-8.073 13.11c-1.04 1.71-1.643 2.869-1.822 3.473-.23.918-.178 1.828.157 2.761l-.927.393-4.563-10.748 10.893-17.603zm16.737-7.104-14.95 6.346.609 1.436c.988 2.329 1.934 3.985 2.857 4.963q1.381 1.466 3.48 1.748c1.398.186 2.991-.095 4.788-.857 2.602-1.105 4.26-2.528 4.988-4.277q1.095-2.609-.63-6.67zM108.733 440.006l-7.083-11.017-3.882.642q-1.933.33-2.918.966-1.32.85-1.251 2.303c.013.57.488 1.706 1.407 3.413l-.849.545-6.668-10.372.848-.545c.89 1.003 1.949 1.632 3.17 1.856 1.219.238 3.364.124 6.419-.353l32.064-4.846.282.44-18.352 27.69c-1.735 2.636-2.691 4.496-2.876 5.59-.14.834.06 1.748.592 2.75l-.849.544-9.702-15.09.848-.547.399.622c.776 1.208 1.5 1.953 2.15 2.223.461.18.925.126 1.388-.171q.413-.265.757-.687c.123-.122.548-.718 1.284-1.8zm1.198-1.882 7.759-11.546-13.822 2.117zM123.171 474.051l.652-.77.94.796c.82.693 1.564 1.1 2.222 1.205a3.03 3.03 0 0 0 1.86-.236q.564-.276 2.417-2.468l15.744-18.629q1.835-2.17 2.062-2.914c.157-.49.115-1.063-.125-1.731-.235-.663-.755-1.335-1.547-2.004l-.942-.795.658-.778 12.675 10.715q5.079 4.295 7.002 8.288c1.564 3.253 2.042 6.578 1.411 9.956-.63 3.391-2.162 6.52-4.596 9.4q-2.53 2.992-5.615 4.69-3.094 1.709-5.994 2.06a15.9 15.9 0 0 1-5.75-.339q-2.834-.704-6.173-2.59c-.986-.553-2.4-1.6-4.223-3.141zm33.38-17.584-18.681 22.1c-.988 1.17-1.533 1.93-1.649 2.285-.108.36-.099.724.051 1.082.198.533.655 1.091 1.368 1.695q3.485 2.946 7.337 2.12c3.483-.736 7.125-3.355 10.939-7.867 3.074-3.636 4.955-7.02 5.654-10.158q.792-3.692-.56-6.411c-.638-1.285-2.123-2.895-4.46-4.846M202.089 484.774c5.654 1.731 9.617 4.942 11.904 9.613 2.275 4.676 2.513 9.612.7 14.814-1.547 4.442-4.204 7.896-7.98 10.366q-7.508 4.915-16.937 1.633c-6.294-2.193-10.425-6.024-12.382-11.5-1.54-4.322-1.513-8.8.1-13.429 1.812-5.2 5.094-8.92 9.836-11.153 4.752-2.239 9.668-2.356 14.759-.344m-.256 1.759c-3.209-1.119-6.213-.327-9.027 2.36-2.292 2.207-4.315 5.832-6.066 10.857q-3.121 8.964-1.468 14.345c.767 2.51 2.473 4.222 5.11 5.14 1.771.618 3.402.702 4.89.261q2.84-.865 5.377-4.057c1.687-2.12 3.21-5.129 4.564-9.016q2.424-6.956 2.326-10.845c-.063-2.602-.592-4.604-1.599-6.023-1.003-1.407-2.37-2.417-4.107-3.022M259.619 491.987l-6.043-25.74 12.271-8.79.592.828-.978.701c-.89.636-1.494 1.3-1.802 1.99-.22.48-.265 1.04-.146 1.689q.143.708 1.748 2.952l14.233 19.876q1.657 2.31 2.313 2.718c.445.268 1.018.361 1.725.292.721-.068 1.49-.403 2.341-1.012l.98-.7.586.82-15.747 11.277-.587-.82.978-.701c.896-.642 1.487-1.306 1.805-2.004.216-.466.265-1.04.12-1.705q-.134-.698-1.762-2.975l-16-22.344 8.137 35.782-.538.386-31.296-18.899 15.206 21.234c1.06 1.482 1.757 2.372 2.077 2.66.716.6 1.577.902 2.553.903q1.471.014 3.541-1.468l.588.82-10.322 7.39-.587-.818.31-.223a5.8 5.8 0 0 0 1.634-1.664c.414-.64.63-1.267.655-1.857.02-.6-.144-1.309-.471-2.119-.09-.19-.613-.952-1.58-2.303l-13.664-19.079c-1.092-1.526-1.855-2.415-2.286-2.68q-.658-.389-1.72-.283-1.07.111-2.335 1.017l-.956.686-.592-.827 12.316-8.821zM314.652 438.344l8.765 9.729-21.988 24.518-.75-.673.823-.919c.716-.798 1.15-1.576 1.302-2.318q.193-.781-.245-1.699c-.189-.432-.975-1.276-2.364-2.521l-18.16-16.286q-2.116-1.896-2.845-2.152c-.492-.165-1.067-.14-1.742.08-.669.217-1.356.717-2.048 1.488l-.822.918-.757-.68 13.206-14.726.757.68-1.078 1.202c-.722.806-1.157 1.57-1.315 2.32-.117.52-.047 1.086.233 1.711q.291.661 2.364 2.524l17.588 15.773c1.41 1.265 2.389 1.992 2.914 2.175.54.183 1.113.132 1.729-.18.43-.227 1.223-.999 2.387-2.298l2.063-2.3q1.972-2.199 2.52-4.362c.358-1.434.306-3.01-.178-4.722-.47-1.713-1.506-3.858-3.107-6.448zM302.517 416.368l-.889-.493 9.557-17.242.89.493-.584 1.052c-.53.956-.791 1.814-.774 2.571.007.527.206 1.054.623 1.593q.426.59 2.863 1.94l15.88 8.802q4.665 2.585 6.267 4.692c1.069 1.403 1.634 3.156 1.707 5.278q.102 3.164-1.752 6.51-2.268 4.09-5.822 5.418c-2.374.894-4.423.858-6.162-.107-1.119-.62-1.826-1.46-2.14-2.532-.315-1.07-.2-2.105.348-3.093q.807-1.457 2.289-1.934c.995-.312 1.94-.226 2.854.281.44.244.8.518 1.072.819.132.147.392.622.792 1.42.401.8.74 1.264 1.018 1.418q.614.342 1.413-.027c.785-.355 1.452-1.021 1.991-1.992.38-.687.513-1.35.41-1.993-.106-.635-.477-1.257-1.116-1.856-.635-.587-2.65-1.822-6.03-3.695l-17.341-9.612q-2.487-1.378-3.26-1.456-.779-.062-1.684.476c-.609.368-1.161 1-1.664 1.906zM324.485 377.23l13.464 6.82.333-.657c1.064-2.098 1.173-3.947.338-5.563-.837-1.608-2.484-3.194-4.913-4.76l.469-.924 17.319 8.776-.467.923c-1.993-.758-3.74-1.13-5.263-1.116-1.528.02-2.704.336-3.54.957-.827.617-1.647 1.72-2.444 3.293l9.317 4.722c1.823.923 2.97 1.409 3.457 1.458.484.057.965-.066 1.439-.36.477-.283.948-.9 1.428-1.85l1-1.974c1.566-3.089 2.103-5.924 1.614-8.516-.477-2.586-1.984-5.024-4.501-7.325l.455-.899 9.765 6.81-14.486 28.595-.9-.456.558-1.1c.484-.956.701-1.82.656-2.575q-.015-.808-.681-1.57-.435-.566-2.933-1.831l-21.757-11.024q-2.248-1.14-2.82-1.271c-.646-.13-1.245-.045-1.772.232-.773.393-1.425 1.119-1.97 2.193l-.557 1.099-.906-.46 14.027-27.686 9.784 4.957-.468.924c-2.63-.735-4.68-.946-6.154-.616-1.472.321-2.85 1.141-4.126 2.462-.76.755-1.767 2.39-3.036 4.897z" style="fill:#1b1918;fill-rule:evenodd"></path></g></g><!-- source: https://football-logos.cc --></svg>