<svg xmlns="http://www.w3.org/2000/svg" xml:space="preserve" version="1.0" viewBox="0 0 333.57 373.17"><!-- Source: https://football-logos.cc --><circle cx="166.787" cy="192.169" r="114.334" data-source="https://football-logos.cc"></circle><path fill="#E2001E" d="M166.787 80.715c-29.771 0-57.759 11.593-78.81 32.644s-32.644 49.04-32.644 78.81 11.593 57.759 32.644 78.81 49.04 32.645 78.81 32.645z"></path><path d="m166.787 80.668 27.55 74.033 78.291 2.865-60.771 48.975 20.343 75.448-65.413-42.906-65.413 42.906 22.163-75.688-62.591-48.735 79.391-2.865z"></path><path fill="#FFF" d="m141.879 156.807-74.919 2.704 59.063 45.988-20.927 71.466 61.691-40.464 61.85 40.567-19.231-71.325 57.364-46.229-73.953-2.707-25.988-69.834z"></path><path d="m16.488 91.744-9.582-5.356L0 98.79l9.584 5.215zM43.687 106.823 20.716 94.139l-6.905 12.262 22.971 12.823zM48.62 55.947c-3.664-3.241-7.187-4.648-10.569-4.086-3.523.424-7.046 2.819-10.852 7.187L14.233 73.986l31.709 27.624 9.301-10.571-23.394-20.575 2.818-3.241c1.27-1.41 2.114-1.975 2.82-1.69l1.126.562 1.128.845 20.716 18.039 9.301-10.568zM78.636 31.427l-6.199-9.018-24.803 17.05 6.199 9.02zM81.737 53.835c-1.408.985-2.536 1.41-3.241 1.267l-2.678-2.817-6.06-8.88L58.202 51.3l6.342 9.299 4.509 5.075c1.268 1.126 2.818 1.831 4.509 2.255 3.523.846 7.328-.14 11.556-3.101l10.005-6.906-6.2-9.021zM123.17 30.722l-3.946-10.288-29.313 10.993 9.302 24.663 29.313-10.992-3.805-10.287-16.066 6.058-1.551-4.087zM113.728 5.637 84.415 16.628l3.805 10.289 29.314-10.993zM145.155 14.093q.212 1.479-.423 2.115l-2.677.705-15.079 1.691 1.268 10.992 11.133-1.269 4.792.424c.987.705 1.55 1.972 1.692 4.086l1.127 10.147 13.951-1.55-1.269-11.416c-.282-2.396-.987-4.227-1.973-5.497-.987-1.267-2.678-2.252-4.791-2.676l2.676-1.551 1.692-1.55q2.749-3.382 2.113-8.032c-.422-3.381-2.113-6.061-4.791-7.892-1.551-.986-3.241-1.55-5.356-1.834l-8.032.144-15.924 1.83 1.269 10.852 15.361-1.691 2.396.281q.633.422.845 1.691"></path><path fill="#E2001E" d="M202.652 21.42c1.129-1.267 1.834-2.816 2.114-4.932.281-2.112.141-4.086-.563-5.917-.706-1.833-1.831-3.241-3.382-4.37-1.27-.986-2.677-1.831-4.37-2.396l-7.608-1.55L173.621 0l-1.69 10.852 15.783 2.396c1.975.14 2.82.986 2.396 2.536l-.985 1.833-2.819.141-15.079-2.255-1.55 10.852 14.938 2.255c1.27.14 1.975.281 2.396.705l.425 1.832-.986 1.831-2.538.14-14.938-2.252-1.691 10.708 16.772 2.68 7.327.562 4.932-1.407 4.086-3.524c.988-1.55 1.691-3.101 1.976-4.932q1.056-6.554-4.651-10.147l4.932-3.381v-.005zM215.759 7.892l-14.938 39.462 26.916 10.144 3.806-10.288-13.669-5.212 10.992-29.172zM270.016 33.822c-3.805-2.676-7.611-4.227-11.557-4.651-3.945-.421-7.752.143-11.273 1.693-3.524 1.55-6.622 4.086-9.021 7.608-3.522 5.356-4.648 10.853-3.382 16.629 1.27 5.639 4.651 10.571 10.429 14.657 5.779 3.806 11.416 5.355 17.053 4.51 5.779-.986 10.57-4.086 14.373-9.442 3.525-5.355 4.795-10.852 3.525-16.488-1.269-5.778-4.651-10.57-10.147-14.516m-19.025 27.2c-2.255-1.69-3.381-3.806-3.524-6.201-.14-2.536.705-5.355 2.819-8.316 1.972-2.816 4.228-4.647 6.623-5.496 2.396-.702 4.65-.421 6.766 1.129q3.594 2.537 3.805 6.342c.141 2.536-.705 5.215-2.819 8.173-2.115 2.96-4.227 4.791-6.623 5.496-2.396.704-4.791.423-7.047-1.127M302.992 66.799c-2.819-1.551-5.917-2.396-9.302-2.537-2.535-.14-5.071.281-7.607 1.126a23.5 23.5 0 0 0-6.625 3.665c-1.972 1.691-3.522 3.665-4.791 5.92a20 20 0 0 0-2.256 7.327c-.845 6.342 1.41 12.684 6.766 18.884l4.367 5.215L292 99.355l-3.241-3.806q-2.325-2.536-2.959-4.651c-.564-1.41-.705-2.96-.421-4.51.421-2.396 1.549-4.508 3.521-6.201 2.115-1.831 4.37-2.676 7.047-2.536 1.55 0 2.819.424 4.086 1.129l3.806 3.381 3.524 4.086 8.313-7.046-4.087-4.932c-2.819-3.241-5.637-5.779-8.597-7.47M307.362 104.567l26.212 5.64-8.032-14.377-21.14-4.508-7.751 4.227-7.892 20.859 8.597 15.359z"></path><path fill="#E74829" d="M163.053 339.772c0-5.777-1.55-10.001-4.65-12.683-3.242-2.676-8.174-3.943-14.938-3.943H120.07v50.026h16.771V336.11h5.214q3.17 0 3.805 1.266l.281 1.41.142 1.69v32.695h16.771v-33.399zM181.938 346.958l20.855-23.812h-19.446l-16.913 19.309v10.425l16.913 20.292h20.856z" data-source="https://football-logos.cc"></path><path d="M146.387 110.133c-.161.337-.064.898.273 1.701a40.9 40.9 0 0 0 9.467 3.819 5.3 5.3 0 0 0 1.605.369l1.637.337c.497.161.93.545 1.267 1.155.289 1.428.417 2.984.401 4.637a47 47 0 0 0 0 4.766c.08 1.589.449 2.985 1.123 4.172.112 1.476.16 2.888.112 4.252a38 38 0 0 0 .096 4.252c.112 1.428.417 3 .915 4.702-.176.866-.24 1.685-.16 2.455a8.2 8.2 0 0 1 .064 2.054c-.048.594-.385 1.091-1.027 1.524l-.514.353a2.7 2.7 0 0 0-.77.915c-.112.208-.16.417-.145.642l.145.578c.305.722.69 1.235 1.123 1.54q.553.506 1.396.481c.609-.048 1.171-.289 1.701-.689.562-.466.915-.915 1.027-1.332l.305-1.364.193-.818.241-.915.176-.85c.048-.048.064-.097.064-.177a9.4 9.4 0 0 0 .112-3.226l-.449-3.305c-.16-1.076-.128-2.054.097-2.969.112-.593.385-1.123.786-1.604l1.781 1.332.032.882-.545 1.027c-.306.545-.417 1.075-.354 1.604.369.337.674.754.931 1.251l.24.61c.209.802.498 1.492.883 2.054.386.529 1.092.738 2.118.642.514-.434.754-.931.738-1.525-.017-.625-.145-1.251-.369-1.909-.225-.69-.354-1.316-.369-1.909.818-.851 1.3-1.717 1.46-2.632.113-.915.032-1.829-.208-2.76l-.723-2.888a7.3 7.3 0 0 1-.16-3.033c.049-.208.049-.433.032-.689a4.5 4.5 0 0 0-.401-1.188l-.754-1.701c-.112-.465.257-.53 1.123-.209l.979.032a6.5 6.5 0 0 0 .898-.369c.065-2.487-.465-4.878-1.572-7.188-1.139-2.327-2.743-4.204-4.846-5.664l1.171-1.604c.37-.562.594-1.172.707-1.797.16-.609.048-1.252-.337-1.942a4.8 4.8 0 0 0-1.461-1.733c-.658-.497-1.444-.658-2.327-.481-.61.337-1.107.69-1.492 1.026-.401.386-.674.915-.786 1.589-.385.481-.498.979-.337 1.477l.337 1.524q.168.698-.337 1.155c-.161-.305-.385-.449-.69-.401l-.851.064c-1.22.4-2.327.577-3.337.513a20 20 0 0 1-3.129-.481 14.3 14.3 0 0 0-3.338-.434 3.7 3.7 0 0 1-1.717-.93 7.5 7.5 0 0 0-1.588-1.22q-.819-.553-2.022-.144c-.288.081-.497.273-.641.594M246.604 158.425a109 109 0 0 0-3.251-3.945l.005-1.353c.077-.513-.116-.907-.59-1.167-.552-.304-1.088-.374-1.642-.226-.585.13-1.051.49-1.436 1.079q-.384 1.144-.008 2.029c.234.581.601 1.111 1.072 1.597l1.425 1.441 1.512 2.105a8.3 8.3 0 0 1 1.293 2.354c.278.873.16 1.834-.363 2.86-.37-.224-.605-.58-.699-1.042a1.93 1.93 0 0 0-.911-1.22c-.875-.461-1.691-.582-2.464-.412-.812.17-1.516.665-2.104 1.512a2.4 2.4 0 0 0 .1 1.76l.692 1.428q.37.727.047 1.258c-.604.838-1.409 1.442-2.433 1.845a11 11 0 0 1-3.296.692c-1.137.011-2.131-.084-3.016-.304-4.321-.509-8.361.041-12.146 1.655-.362.211-.81.314-1.356.301l-1.595.211c-.552.107-1.031.418-1.43.917-1.838.242-3.503.619-5.015 1.164-1.51.504-3.15.874-4.939 1.102l-.893.166-1.094.158-1.192.042a49 49 0 0 0-2.361.036l-2.417.025-1.313.037c-.266-.002-.462.054-.603.162-.157.099-.229.305-.233.61.03.654.219.983.55.98.185-.001.472.075.877.195l1.04.387.918.608 1.215.442q.713-.008 1.802-.364 1.163-.377 1.535-.326c.182.08.337.021.498-.158.144-.188.404-.25.772-.211l1.698.236 2.69.187c.918.012 1.58-.035 2.026-.138q1.04-.321 2.528-1.011c1.024-.443 1.856-.724 2.531-.866l1.883-.586c.799-.259 1.942-.246 3.438.023 1.533.31 3.551 1.235 6.019 2.758l-1.882.957-4.354 2.163-4.681 2.086-1.544.567.004-.306a.98.98 0 0 0-.646-.767l-.793-.313-.085-.293c-.14-.344-.36-.65-.646-.952l-.818-.491a3 3 0 0 0-1.089.263c-.321.173-.462.465-.397.871.068.325.308.97.745 1.93l1.247 2.698.638 1.378 1.157.288c1.066.114 2.415.015 4.062-.291a45 45 0 0 0 5.15-1.335 59 59 0 0 0 5.068-1.708l3.583-1.437q.32.76.932.882c.391.112.821 0 1.31-.327.927-.825 1.74-1.445 2.433-1.845.709-.431 1.332-.89 1.873-1.352.593-.516 1.171-1.307 1.729-2.396 1.612-.653 3.076-1.634 4.409-2.975a23 23 0 0 0 3.386-4.36c.924-1.606 1.605-3.142 2.059-4.638.531-1.823.558-3.513.103-5.038q-.757-2.26-2.319-4.292M219.646 231.021c-.198-.145-.432-.181-.72-.108-1.907.414-3.742.396-5.488-.054l-5.218-1.367v-.216l-7.629-1.044-2.033 1.529-.773-.378-.882-1.926-1.421-.665-1.368-.108-1.439.773-.989 1.313.449 1.926c.252.432.612.738 1.098.936l1.421.486c.486.144.882.414 1.206.827-.63.45-1.007 1.044-1.151 1.817a7.5 7.5 0 0 0 0 2.195l.774 1.709c.287.612.665 1.044 1.15 1.313.469.288.99.162 1.584-.396l.666 1.871.558 1.764c.216.647.432 1.512.647 2.572.359.99.63 2.195.828 3.635l.485 4.553c.181 1.529.396 2.969.665 4.282.073.144.253.162.559.054q.432-.16.594 0l.558 4.336v.881c.217 1.422.359 2.681.433 3.743.071 1.098.216 2.356.449 3.778q.378 1.593.378 3.238c0 1.645.216 2.087.666 2.969.468.18.845.108 1.15-.216.253-.342.559-.576.919-.719.179-.45.27-.937.287-1.477-.018-.593-.108-1.098-.287-1.547.413-.45.575-.954.503-1.529l-.27-1.71a4.27 4.27 0 0 1-.989-2.627q-.028-1.484.161-3.076a10.5 10.5 0 0 0-.054-3.185l-.449-1.764c-.217-.737-.306-1.277-.271-1.637.108-.306.216-.433.324-.396a.9.9 0 0 1 .342.162q.161.107.162-.108a15 15 0 0 1-.162-1.853c-.018-.666.216-1.188.702-1.602l.449.432.666 1.17c.216.359.396.827.54 1.421q.215.594.323.432c.072-.144.234-.233.504-.27.252-.072.468.072.647.449l.558 1.206.379 1.044c.107 1.062.396 2.123.881 3.185l1.313 3.239a8.6 8.6 0 0 1 .666 3.292c.521.81.773 1.529.773 2.195l-.054 2.033c-.055.666.108 1.422.485 2.303a2.54 2.54 0 0 0 1.71.162c.54-.18.972-.54 1.313-1.098a12.7 12.7 0 0 0-.486-2.735 13.5 13.5 0 0 0-1.169-2.536c0-1.836-.181-3.689-.54-5.542-.342-1.907-.863-3.707-1.602-5.38a18 18 0 0 0-.485-2.033 9 9 0 0 1-.324-1.655q0-.27.378-.486c.252-.197.378-.359.378-.503l-.647-2.142-.828-2.357a11 11 0 0 1-.485-2.356 11 11 0 0 0-.72-2.699c-.342-.882-.937-1.602-1.817-2.195a35 35 0 0 1-1.926-4.498c-.521-1.493-1.025-2.681-1.529-3.563a3.3 3.3 0 0 0-.558-1.152 4.7 4.7 0 0 1-.647-1.277l4.606.72 4.731.721c.54.179 1.079.413 1.638.701l1.602-.054c.09-.253.035-.45-.181-.595a.94.94 0 0 1-.323-.558c.252-.287.594-.449 1.043-.485.45 0 .81-.072 1.098-.216.288-.162.36-.54.216-1.17q-.432.113-.701-.104M150.378 224.314l-.618-1.781-.945-.381-1.381.49-.545.563-.127.653.109.128c.255.254.309.708.164 1.382l-.436 2.053c-.182.672-.254 1.126-.218 1.381a9.3 9.3 0 0 1-.4 2.89c-.291.999-.708 1.854-1.271 2.563-.891.617-1.872 1-2.944 1.163l-3.271.108c.854-.563 1.417-1.235 1.727-2.053a3.46 3.46 0 0 0 0-2.563c-.454-.49-1-.818-1.671-1-.673-.146-1.291-.091-1.872.182-.636.328-.981.601-1.054.818-.091.218-.254.363-.509.454q.11-1.39.055-3.054c0-1.107.309-2.217.945-3.324.672-1.146 2.036-2.218 4.107-3.217l.618-1.109c.254-.526.545-.963.872-1.326q.273-.273.545-.327l.8-.69 2.054-.219-.055-1.217-.945-1.399-.945-.219-1.163.109-1.49.563-.672 1.055c-.455.653-1.072 1.399-1.89 2.217a11.5 11.5 0 0 0-1.835 1.381 3.37 3.37 0 0 1-1.817.891l-3.108 7.76-1.563 5.725-.491 3.053c-.091 1-.237 1.854-.455 2.599l-.545 1.89a2.67 2.67 0 0 0 .054 1.6l-.672.944c-1.108.183-2.145.637-3.107 1.382l-2.98 2.234-5.27 6.252c-1.036-.254-1.981-.218-2.835.127a9 9 0 0 0-2.217 1.272l-1.835 1.162-1.545-.054c-.236.927-.618 1.472-1.163 1.653a7.8 7.8 0 0 1-1.672.347c-.563.018-.981.309-1.272.872-.491 1.072-.745 1.816-.782 2.234-.036.399.382.764 1.272 1.108l.945-.054c.291-.091.491-.236.618-.454.473-.255.836-.563 1.109-.946a3.5 3.5 0 0 1 1.108-.944c.436-.291 1.163-.437 2.163-.437 1.036-1.108 2.199-1.854 3.489-2.217a32 32 0 0 1 3.998-.891 8.3 8.3 0 0 1 3.943-1.49c1.363-.199 2.744.036 4.107.709-.236.109-.327.254-.291.455v.599c1.29-.145 2.108.2 2.453 1.055q.436 1.225.382 2.89-.055 1.717.272 2.889c-.636.146-1.199.546-1.708 1.218l-1.454 1.945c-.527.581-1.036.871-1.545.871-1.072.709-1.635 1.473-1.672 2.29-.072.764.073 1.617.455 2.544q.491 1.337.763 2.891l.782.763c.327.182.727.271 1.217.291.491-.02.763-.273.835-.781q-.054-1.554-.436-2.617c-.273-.709-.437-1.29-.509-1.764-.073-.526.145-.98.672-1.38.291-.418.799-.854 1.544-1.345.709-.455 1.417-.909 2.163-1.382.781-.491 1.345-.963 1.726-1.436a9.2 9.2 0 0 0 1.054-2.054c.582-1.708.873-3.526.891-5.433-.018-1.928-.146-3.709-.4-5.325.254-.272.491-.745.727-1.454.254-.709.436-1.417.563-2.163.146-.745.218-1.289.218-1.653 1.217-2.563 2.671-4.779 4.379-6.669 1.69-1.836 3.943-3.381 6.76-4.598 1.218-.491 2.035-1.2 2.435-2.163.418-.999.636-2.071.673-3.216q.054-1.773.272-3.381zM98.378 151.551q-.027.216-.036.43c-.012.259.013.52.001.779-.01.237.036.546-.032.774-.059.196-.269.374-.402.531-.13.154-.271.248-.433.36-.276.191-.489.453-.756.652-.231.172-.497.303-.72.491-.199.168-.379.354-.576.525-.352.308-.676.615-1.06.885-.453.318-.906.635-1.391.913-.244.14-.441.322-.675.466-.538.331-1.154.556-1.725.831-.684.33-1.346.346-1.995.64-.332.15-.534.521-.687.832-.182.37-.426.717-.593 1.093-.202.456-.374.945-.521 1.421-.082.266-.143.629-.085.903.029.137.128.279.175.41.087.246.134.502.191.751.128.556.162 1.142.312 1.682.159.575.377 1.189.411 1.786.014.25.17.446.209.683.041.25.043.465.136.717.11.298.195.609.356.887.239.414.557.771.784 1.197.2.375.46.712.714 1.051.111.148.123.258.194.414.078.171.258.28.392.403.19.176.349.359.523.545.178.19.434.281.605.474.169.19.362.373.53.568.145.168.299.344.452.497.164.164.353.31.52.466.164.154.39.22.55.378.175.173.356.369.521.557.351.397.636.857.977 1.269.201.243.383.473.493.754.114.292.392.573.65.744q.364.244.735.48c.23.145.371.307.575.469.189.149.468.309.699.381.237.075.495.047.735.107.502.125.958.235 1.482.235.896 0 1.847.129 2.721-.134.361-.109.729-.194 1.089-.292.397-.107.813-.131 1.217-.203.728-.129 1.418-.315 2.162-.349.394-.018.79-.029 1.18-.08.414-.054.816-.187 1.234-.207-.353.277-.408 1.099-.426 1.505a5 5 0 0 0 .061.862c.043.322.119.689.229.989.089.241.327.433.495.619.213.234.431.484.623.738.407.535 1.015.866 1.486 1.343.368.373.67.786.978 1.214.171.237.367.445.551.673.2.249.536.546.612.857.107.433.254.843.411 1.264.451 1.204.239 3.318 1.81 3.748.397.109.92-.039 1.33.017.858.118 2.126.36 2.92.676.713.283 2.75 1.727 3.173.295.247-.834-.599-1.301-1.074-1.809-1.006-1.078-1.882-2.299-3.128-3.116-.302-.198-.61-.386-.917-.575-.265-.162-.531-.379-.819-.496-.255-.104-.365-.142-.538-.378-.187-.255-.426-.45-.631-.688-.497-.578-.763-1.362-1.024-2.066-.106-.287-.148-.589-.239-.885a23 23 0 0 0-.438-1.294 5.2 5.2 0 0 1-.298-1.046c-.051-.318-.16-.659-.254-.964-.177-.574-.274-1.172-.497-1.731-.103-.259-.266-.47-.379-.716-.127-.277-.231-.563-.369-.836-.323-.645-.846-.942-1.379-1.397-.451-.385.429-.563.687-.588a7.9 7.9 0 0 0 2.226-.559c.621-.252 1.251-.336 1.882-.53.218-.067.396-.175.628-.222.66-.132 1.287-.277 1.882-.614.252-.143.443-.145.72-.214.271-.068.525-.215.797-.275.242-.053.474-.061.698-.177s.43-.256.662-.36c.256-.115.537-.211.814-.244.336-.04.703-.078 1.006-.241.156-.083.275-.226.444-.295q.518-.216 1.037-.429c.275-.112.572-.165.843-.283.232-.102.438-.253.665-.352.226-.098.443-.192.663-.3.156-.077.318-.101.479-.156.194-.066.377-.167.553-.262.447-.241 1.01-.38 1.502-.499.415-.1.816-.006 1.137-.36.197-.217.425-.488.566-.748.134-.245.222-.512.355-.761.487-.907 1.032-1.77 1.234-2.798.14-.711.58-1.703-.183-2.145-.593-.344-1.246-.09-1.863.008-.114.018-.242-.012-.354.016-.251.063-.478.289-.68.445a5 5 0 0 0-.719.681 3.5 3.5 0 0 0-.346.443c-.094.148-.17.319-.23.483-.182.5-.2 1.024-.489 1.471-.329.508-.706 1.041-1.198 1.405-.342.254-.61.346-1.001.475-.22.072-.427.203-.651.26-.173.044-.334-.002-.513.009-.503.029-1 .146-1.489.262-.901.212-1.82.218-2.728.424-.505.114-.995.299-1.51.374-.386.056-.79.037-1.166.142-1.324.367-2.726.378-4.091.467-1.399.092-2.807.148-4.207.043.04.003-.058-.396-.078-.436-.068-.141-.178-.261-.272-.383-.081-.104-.172-.206-.254-.314-.167-.22-.325-.267-.58-.392-.258-.127-.456-.216-.751-.234-.352-.021-.711-.004-1.064 0-.634.007-1.279.309-1.9.443-.444.096-.88.172-1.328.258-.233.045-.476.062-.705.109-.329.069-.595.148-.934.17-.303.02-.605.046-.909.042-.593-.011-1.202-.161-1.509-.718-.301-.546-.542-1.114-.852-1.655-.414-.722-.718-1.458-1.234-2.123-.481-.621-1.078-1.148-1.82-1.43-.365-.139-.659-.117-.9-.474.083.123 1.082-1.728 1.129-1.934.042-.186.118-.428.089-.617-.027-.178-.176-.319-.24-.484-.201-.524-.594-.792-1.03-1.103-.216-.154-.682-.368-.4-.664.318-.333.729-.594 1.067-.921.239-.233.433-.506.633-.772.187-.248.301-.397.57-.527.253-.122.353-.37.527-.572q.244-.285.489-.59c.503-.623.992-1.223 1.549-1.799.177-.183.359-.345.53-.535.161-.179.372-.297.512-.484.302-.401.513-.821.553-1.32.033-.4.061-.908-.141-1.274-.153-.279-.304-.671-.518-.908a.93.93 0 0 0-.784-.287c-.608.076-1.01.222-1.295.808a3.9 3.9 0 0 0-.319 1.155"></path><ellipse cx="167.457" cy="192.592" rx="43.92" ry="43.907"></ellipse><path fill="#E2001E" d="M167.458 148.685q-.336.002-.67.008v87.798q.334.007.67.009c24.256 0 43.919-19.658 43.919-43.908 0-24.249-19.663-43.907-43.919-43.907"></path><path fill="#FFF" d="m125.611 179.23 30.806-1.249 10.621-29.113 10.98 29.353 31.554.921-25.075 19.238 8.789 29.725-26.499-17.244-25.472 17.015 8.382-29.496z"></path><path d="m183.438 195.188-4.886-14.567h24.905zm-32.801-.161 4.743-14.406h-24.403zm24.87-14.406h-17.089l-5.29 16.232 13.962 10.23 13.955-10.154zm-.932-2.743-7.788-22.938-7.475 22.938zm7.409 21.821-12.396 9.217 20.668 15.146zm-17.46 9.252-12.375-9.094-7.731 23.724z" data-source="https://football-logos.cc"></path><!-- source: https://football-logos.cc --></svg>