<svg xmlns="http://www.w3.org/2000/svg" viewBox="1 1 194.69 250"><!-- Source: https://football-logos.cc --><path d="m35.267 221.467 220.74-41.735 220.76 41.735V527.89c0 34.165-17.828 75.018-74.335 125.338-33.544 29.871-86.882 65.198-145.893 93.433-48.415-21.398-118.222-67.386-153.595-100.614-22.935-21.544-44.332-46.174-56.593-73.671-7.604-17.055-11.084-34.725-11.084-54.925z" style="opacity:1;fill:#0061a1;fill-opacity:1;stroke:none;stroke-opacity:1;paint-order:markers stroke fill" transform="translate(-14.552 -78.257)scale(.44097)" data-source="https://football-logos.cc"></path><path d="m256.166 199.207-.178-.033-201.602 37.09v289.959c0 21.683 6.167 36.602 17.232 54.978 6.642 11.03 14.81 21.376 23.59 31.039l18.954-53.29c-25.82-31.61-41.314-71.984-41.314-115.974 0-101.263 82.076-183.393 183.318-183.485zM153.52 558.396l-43.1 69.486a487 487 0 0 0 5.614 5.355 331 331 0 0 0 13.53 12l34.934-78.039zm79.449 46.207-46.339 82.133a668 668 0 0 0 24.896 15.22l38.56-96.04zm-82.863 56.86c8.66 6.462 17.54 12.677 26.347 18.59q.738.496 1.479.99l22.235-63.355a182 182 0 0 1-17.68-6.713zm75.823 48.658a749 749 0 0 0 30.237 15.8v-64.567z" style="opacity:1;fill:#ffd204;fill-opacity:1;stroke:none;stroke-opacity:1;paint-order:markers stroke fill" transform="translate(-14.552 -78.257)scale(.44097)"></path><path d="M256.09 341.075c8.529 0 16.81 1.053 24.73 3.024l-2.802 15.626c-.468 2.608-1.52 4.107-4.097 4.718-17.349 4.109-24.948 7.6-32.405 11.67-2.396 1.308-4.728 2.454-7.325 1.614-8.51-2.75-16.896-5.043-25.825-7.325-3.188-.815-3.547-3.496-3.973-7.822l-.692-7.042c15.316-9.18 33.236-14.463 52.39-14.463m86.091 47.222c10.117 15.842 15.982 34.663 15.982 54.851 0 7.435-.803 14.681-2.313 21.665-4.16 2.385-8.397 4.504-12.353 5.878-2.294.797-4.077 1.359-5.548.605-1.006-.515-1.226-1.652-1.908-3.27-3.07-7.29-8.752-14.966-13.451-22.137-1.969-3.004-3.008-5.246-2.607-8.815 1.328-11.836 2.437-23.672 3.103-35.509.232-4.11 2.135-5.494 5.587-7.076zm10.792 87.05c-7.957 23.946-24.541 43.957-46.068 56.342 1.117-4.566 2.449-9.339 4.635-14.783.92-2.29 2.585-4.639 4.336-6.379 9.323-9.264 16.089-19.357 20.4-28.5.628-1.331 2.062-2.227 3.476-2.636 4.42-1.278 8.732-2.233 13.22-4.043m-55.046 60.928c-12.768 5.747-26.93 8.946-41.837 8.946a102 102 0 0 1-29.131-4.227c-.02-4.666.073-9.948.526-14.538.335-3.393 1.598-4.672 5.317-5.766 10.924-3.212 20.694-6.565 32.304-12.226 1.711-.835 3.22-.969 5.043-.42 9.439 2.842 20.095 6.324 29.855 7.259 3.504.336 2.712 2.642 2.348 4.831-1.046 6.307-2.684 11.328-4.425 16.141m-129.716-41.194c-9.014-15.215-14.194-32.97-14.194-51.933 0-7.484.812-14.778 2.343-21.803l7.931-1.529c4.464-.86 6.406-.496 9.436 5.09l10.305 18.997c1.15 2.12 1.666 4.298 1.49 6.704l-2.483 33.77c-.352 4.788-2.227 5.888-5.34 7.077zm-9.924-81.209c6.588-22.031 20.413-40.942 38.719-53.963l1.304 8.258c.285 1.81-.253 2.872-1.49 4.222-8.054 8.786-21.148 25.34-27.19 36.253-1.696 3.063-3.17 4.141-6.734 4.616zm86.34-31.525c-2.848 1.421-5.46 2.439-5.97 5.58-1.76 10.858-3.038 21.701-4.282 30.888-.422 3.12.073 5.83 2.725 7.527 10 6.401 21.726 14.843 33.353 24.14 2.624 2.096 5.624 2.575 8.825 1.556 10.25-3.26 21.005-7.47 28.941-11.55 2.955-1.52 4.696-2.814 5.191-6.1 1.533-10.178 1.934-23.209 2.077-33.872.055-4.095-1.103-5-2.596-6.359-8.353-7.601-17.012-13.977-27.383-21.284-2.333-1.643-3.922-2.069-6.749-1.687-11.457 1.547-24.973 6.591-34.132 11.161M198.875 444.6c-4.87 2.644-5.5 4.306-6.197 8.817-1.434 9.293-2.601 23.081-2.025 33.344.164 2.924.845 4.087 3.098 5.956 7.5 6.224 17.92 14.4 24.65 18.22 5.688 3.23 10.015 3.861 16.214 1.774 9.138-3.077 20.87-7.687 28.568-12.372 2.03-1.236 3.036-3.238 3.32-5.598 1.139-9.4 2.006-18.206 2.634-28.556.272-4.473-.292-6.865-3.574-9.915-8.386-7.795-20.01-16.69-30.38-22.73-3.499-2.039-5.45-1.326-9.28-.014-7.803 2.673-20.76 7.671-27.028 11.074" style="opacity:1;fill:#ffd204;fill-opacity:1;stroke:none;stroke-opacity:1;paint-order:markers stroke fill" transform="translate(-14.552 -78.257)scale(.44097)" data-source="https://football-logos.cc"></path><path d="m137.831 425.533-.51-17.54 6.33-.184.136 4.716 11.17-.325-.221-7.594-11.387-7.163.135 4.657-6.33.184-.487-16.773 6.33-.185.152 5.261 12.36 7.5 15.095-9.693-.132-4.542 6.329-.184.339 11.64-16.797 9.892.198 6.838 10.742-.313-.137-4.716 6.329-.184.51 17.54-6.33.184-.135-4.656-27.495.8.135 4.656zM165.262 493.89l-8.006-15.383 22.257-29.51-23.993 12.506 2.153 4.13-5.615 2.928-7.903-15.162 5.615-2.927 2.285 4.384 29.994-15.666 6.047 11.6-22.6 29.779 24.363-12.699-2.181-4.183 5.614-2.927 7.695 14.762-5.614 2.927-2.05-3.932-24.392 12.715 1.946 3.732zM151.824 330.016l11.456-18.234c3.682-5.86 9.425-8.355 14.563-5.452 4.294 2.425 5.35 6.605 4.978 9.166 1.74-1.84 7.68-4.742 13.302-.293 3.003 2.376 7.624 7.68 1.166 17.957l-11.332 18.036-5.36-3.368 2.478-3.945-23.292-14.634-2.598 4.135zm30.467-6.524-4.498 7.158 9.748 6.124 4.53-7.21c1.956-3.112 1.302-6.442-1.453-8.17-2.755-1.73-6.292-1.14-8.327 2.098m-14.04-7.72-4 6.368 8.726 5.484 4.134-6.58c2.136-3.4-.263-5.827-1.866-6.835s-4.876-1.808-6.993 1.562M186.89 282.028l15.589-11.82c6.667-5.057 13.994-6.2 19.459.619 3.642 4.544 3.395 9.256 1.169 13.297l9.467 5.557 3.978-3.017 3.962 5.224-8.92 6.763-13.875-8.423-.234.18-5.168 3.919 5.242 6.912 3.76-2.85 3.825 5.045-13.982 10.602-3.826-5.045 3.712-2.814-16.62-21.918-3.712 2.814zm19.52-6.855-5.471 4.149 7.627 10.059 4.877-3.699c3.2-2.426 4.816-5.528 2.368-8.962s-5.901-4.202-9.402-1.547M376.01 257.477c11.1 5.797 13.261 17.4 7.963 27.549-5.302 10.148-15.86 15.11-27.16 9.206-11.3-5.902-13.26-17.4-7.96-27.549s16.058-15.004 27.158-9.206m-3.037 5.697c5.983 3.124 6.422 10.282 2.788 17.24s-9.755 10.942-15.846 7.761-6.318-10.481-2.684-17.44c3.635-6.958 9.76-10.687 15.742-7.562M245.508 281.567l4.238-1.07 3.176-35.45 12.284-3.101 19.421 29.742 4.5-1.136 1.55 6.139-17.668 4.461-1.55-6.138 4.439-1.121-3.87-6.266-13.727 3.466-.64 7.405 5.079-1.283 1.55 6.14-17.232 4.35zm23.508-18.814-8.983-14.136-1.233 16.716zM293.895 243.286l5.99.69 6.863 34.603 11.693 1.346 15.522-32.028 4.625.532.723-6.29-18.102-2.083-.724 6.29 5.602.645-12.415 25.67-6.08-34.219-12.973-1.446zM365.519 503.757c9.35-6.012 19.282-1.21 25.558 8.551 6.276 9.762 6.685 20.687-2.827 26.803s-19.282 1.21-25.559-8.551c-6.276-9.761-6.522-20.791 2.828-26.803m3.5 5.53c5.024-3.23 10.665.542 14.968 7.234s5.606 13.527.494 16.814c-5.113 3.287-10.79-.734-15.092-7.427-4.304-6.692-5.395-13.39-.37-16.621M396.591 474.306c6.405-9.085 17.414-8.368 26.899-1.682 9.484 6.687 13.97 16.658 7.454 25.9-6.516 9.243-17.415 8.369-26.9 1.682s-13.858-16.815-7.453-25.9m5.322 3.809c3.442-4.883 10.087-3.507 16.59 1.078 6.503 4.584 10.279 10.427 6.777 15.395-3.503 4.968-10.274 3.375-16.777-1.21-6.503-4.584-10.032-10.381-6.59-15.263M414.883 435.142c1.167-4.362 3.466-7.759 6.567-9.943l3.927 4.612c-2.262 1.471-3.966 3.584-4.528 6.66-1.145 6.262 3.776 9.732 10.028 11.904-1.331-3.065-1.52-5.469-1.289-8.453.47-6.053 5.279-12.68 14.477-11.038 3.45.616 6.705 2.83 8.778 5.651 2.073 2.822 2.919 6.483 2.274 10.914-.675 4.643-3.366 8.21-6.789 10.207-4.334 2.528-10.031 2.707-16.344 1.228-5.286-1.24-9.643-3.218-12.848-6.509-3.87-3.972-5.823-9.36-4.253-15.233m20.777 14.552c2.736.569 5.834.886 8.675-.016 2.507-.795 4.785-2.67 4.781-6.19-.004-3.454-2.344-6.28-6.131-6.877-3.134-.495-6.285-.328-8.187 3.59-1.44 2.967-.294 6.997.861 9.493M350.61 549.997l-18.06 4.264c6.379-5.06 14.114-14.661 12.932-23.707-.429-3.271-1.538-6.152-3.098-7.768-3.676-3.807-9.474-3.883-14.328-2.625-4.264 1.105-8.837 3.298-11.563 5.552l2.133 9.169 7.328-1.73-1.35-5.718c1.786-1.002 2.8-1.509 4.331-1.895 2.963-.748 6.549-.572 8.124 4.123 1.764 5.257-.901 11.573-3.778 15.844-3.473 5.155-8.187 9.46-10.604 12.01l1.275 5.397 28.139-6.643zM296.543 538.93a6.19 6.19 0 0 1 7.445 4.6 6.189 6.189 0 1 1-7.445-4.6M438.821 398.137a6.19 6.19 0 0 1 7.445 4.601 6.189 6.189 0 1 1-7.445-4.6" style="fill:#ffd100;fill-rule:evenodd" transform="translate(-32.906 -59.625)scale(.44097)" data-source="https://football-logos.cc"></path><!-- source: https://football-logos.cc --></svg>