<svg xmlns="http://www.w3.org/2000/svg" viewBox="44.14 206.93 714.54 727.47"><!-- Source: https://football-logos.cc --><path d="M503.477 344.115c74.856 121.015 65.12 283.314 65.12 283.314-65.937 34.46-158.537 59.26-267.537 59.26s-201.6-24.8-267.538-59.26c0 0-9.736-162.299 65.122-283.314C177.1 217.282 301.06 141.09 301.06 141.09s123.959 76.192 202.416 203.025" style="fill:#1c7648;fill-opacity:1;fill-rule:nonzero;stroke:none" transform="matrix(1.33333 0 0 -1.33333 0 1122.52)" data-source="https://football-logos.cc"></path><path d="M301.06 678.69c96.31 0 188.293-20 259.737-56.31.1-3.133.202-7.775.202-13.759 0-16.957-.823-44.394-4.873-76.824-6.233-49.93-21.607-122.292-59.454-183.473-39.918-64.532-92.059-115.55-128.77-146.985-31.359-26.854-57.105-44.381-66.841-50.748-9.738 6.367-35.483 23.894-66.844 50.748-36.711 31.435-88.851 82.453-128.77 146.985-37.845 61.18-53.22 133.543-59.454 183.473-4.049 32.43-4.872 59.867-4.872 76.824 0 5.984.102 10.626.202 13.76 71.444 36.308 163.427 56.308 259.737 56.308" style="fill:#fff;fill-opacity:1;fill-rule:nonzero;stroke:none" transform="matrix(1.33333 0 0 -1.33333 0 1122.52)"></path><path d="m234.427 468.594 12.12 4.095h8.37v-38.6h9.2v-6.2h-28v6.2h9.4v30.67q-.294-.03-2.723-.36-2.428-.328-4.66-.606-2.23-.28-2.69-.311zM263.753 458.174q0 7.128 4.694 11.122 4.695 3.994 12.26 3.994 4.687-.001 8.098-1.586 3.41-1.588 5.379-4.494 1.965-2.908 2.868-6.573.9-3.669.901-8.293 0-4.29-.688-7.975-.689-3.685-2.195-6.845t-3.784-5.386q-2.277-2.226-5.617-3.488-3.342-1.26-7.502-1.26-6.41 0-10.793 1.476l1.497 6.175a33.8 33.8 0 0 1 8.776-1.151q2.376-.001 4.282.917 1.903.918 3.076 2.28 1.171 1.36 2.002 3.196.83 1.835 1.188 3.443.36 1.605.49 3.212l-.327.194q-4.917-2.843-10.256-2.842-2.993-.001-5.542.851a13.8 13.8 0 0 0-4.54 2.52q-1.989 1.67-3.127 4.372-1.14 2.7-1.14 6.14m9.4.2q0-7.884 7.13-7.883.945-.001 1.857.115.911.115 1.676.347.764.233 1.4.482t1.221.562q.587.315.927.514.342.197.75.464.405.264.44.298v1.291q0 11.726-7.911 11.727-3.552-.002-5.52-2.153-1.97-2.154-1.97-5.764" style="fill:#1c7648;fill-opacity:1;fill-rule:nonzero;stroke:none" transform="matrix(1.33333 0 0 -1.33333 0 1122.52)" data-source="https://football-logos.cc"></path><path d="M297.637 427.89v5.606q7.804 6.555 10.374 8.95 10.373 9.606 11.395 15.704.13.72.131 1.41 0 6.43-7.58 6.43-5.282 0-11.222-3.477-.525.91-1.46 2.78a123 123 0 0 1-1.427 2.787q7.384 4.909 15.652 4.91 7.176 0 11.306-3.365 4.13-3.362 4.131-9.54 0-2.655-1.168-5.556a26.4 26.4 0 0 0-2.829-5.279q-1.662-2.376-4.205-5.08-2.542-2.706-4.544-4.541a351 351 0 0 0-4.593-4.13q-1.05-.918-1.542-1.344v-.065q2.264 0 6.89-.033 4.628-.033 6.89-.033v5.165h7v-11.3zM334.374 427.89v5.606q7.805 6.555 10.373 8.95 10.373 9.606 11.396 15.704.13.72.13 1.41 0 6.43-7.579 6.43-5.283 0-11.221-3.477-.526.91-1.461 2.78a127 127 0 0 1-1.427 2.787q7.383 4.909 15.651 4.91 7.177 0 11.307-3.365 4.13-3.362 4.13-9.54 0-2.655-1.168-5.556a26.4 26.4 0 0 0-2.828-5.279q-1.662-2.376-4.204-5.08-2.543-2.706-4.544-4.541a364 364 0 0 0-4.594-4.13q-1.05-.918-1.542-1.344v-.065q2.264 0 6.89-.033 4.627-.033 6.891-.033v5.165h7v-11.3zM530.413 497.402c9.098 47.889 10.563 89.889 10.563 111.951l-.002.5c-67.068 31.56-151.502 48.836-239.914 48.836s-172.847-17.277-239.914-48.836l-.002-.5c0-22.066 1.466-64.077 10.568-111.976l.065-.287h458.6zM190.085 271.09v127.586h-44.39V324.29l-.522.962c-7.895 10.748-15.517 21.954-22.717 33.593-9.249 14.953-17.116 30.654-23.806 46.641l-.123.404h405.067l-.091-.326c-6.697-16.013-14.575-31.743-23.839-46.72-7.273-11.756-14.976-23.07-22.957-33.917l-.281-.438v74.187h-44.39v-127.32l-.216-.301c-14.887-15.94-29.773-30.292-43.817-42.91l-.358-.322v170.853h-44.39V191.09l-.483-.437a643 643 0 0 0-21.711-15.884 641 641 0 0 0-21.83 15.972l-.365.215v207.72h-44.389V227.688l-.184.3c-13.976 12.547-28.79 26.814-43.612 42.658z" style="fill:#1c7648;fill-opacity:1;fill-rule:nonzero;stroke:none" transform="matrix(1.33333 0 0 -1.33333 0 1122.52)"></path><path d="M131.97 545.913v24.077h-5.306v9.7h24.813v-9.7h-5.307v-44.9h-14.937l-12.567 19.422-6.718 10.612-3.478 5.624q-.1-.001-.1-.04 0-.041-.1-.04v-25.979h5.386v-9.6h-24.93v9.6h5.545v35.3h-5.465v9.7h21.746l4.623-7.353q2.174-3.456 4.308-6.821a730.71 730.71 0 0 0 8.694-14.058q.868-1.348 1.698-2.733t1.7-2.81zM192.171 558.443l15.999-23.653h4.434v-9.7h-25.66l-.079 9.7h4.197l-9.9 14.731-5.306-4.594V534.71h4.831v-9.62h-25.413v9.62h5.782v35.48h-5.782v9.5h25.81v-9.5h-5.228v-13.085l14.89 13.084h-4.198v9.5h24.474v-9.5h-5.07zM273.192 558.443l15.998-23.653h4.435v-9.7h-25.661l-.078 9.7h4.197l-9.9 14.731-5.307-4.594V534.71h4.832v-9.62h-25.414v9.62h5.782v35.48h-5.782v9.5h25.81v-9.5h-5.228v-13.085l14.89 13.084h-4.198v9.5h24.474v-9.5h-5.07zM315.983 546.59v-11.8h5.306v-9.7h-25.612v9.7h5.306v35.3h-5.306v9.7h30.178q5.465 0 9.149-1.347 3.683-1.348 5.941-3.685 2.258-2.339 3.247-5.348.991-3.011.992-6.34 0-1.901-.477-3.921a15 15 0 0 0-1.547-3.922 15.4 15.4 0 0 0-2.7-3.486q-1.625-1.584-4.005-2.536l7.063-14.815 6.417-.87v-8.23a28 28 0 0 0-2.615-.675q-1.425-.3-2.773-.488-1.35-.187-2.578-.262-1.23-.075-2.024-.075-4.204 0-6.346 1.774t-3.73 5.326l-6.903 15.7zm13 16.746q-.001 3.575-1.994 5.164-1.994 1.59-5.024 1.59h-5.982v-14.3h5.423q1.515 0 2.911.357t2.432 1.232q1.035.872 1.636 2.342.598 1.47.598 3.615M362.37 542.29l.08-5.73a15 15 0 0 1 2.53-.747 50 50 0 0 1 2.693-.47 32 32 0 0 1 2.533-.275q1.186-.079 2.058-.078 4.826-.001 6.767 1.582 1.938 1.581 1.939 3.8 0 1.976-1.108 3.005t-3.008 1.663a2349 2349 0 0 0-10.168 3.362q-4.63 1.543-7.952 3.442t-5.144 4.59q-1.82 2.689-1.82 6.884 0 8.07 5.725 12.621 5.725 4.55 17.02 4.55 2.21 0 4.699-.198a53 53 0 0 0 4.976-.633 42 42 0 0 0 4.857-1.146 34 34 0 0 0 4.423-1.66q-.001-3.483.05-6.883.05-3.4.05-6.88h-10.5q0 1.428-.05 2.855t-.05 2.777q-1.576.633-3.82.951-2.246.317-3.74.318-4.176-.001-5.907-1.507-1.733-1.507-1.733-3.487 0-1.349.949-2.38.945-1.03 2.53-1.823a27 27 0 0 1 3.596-1.466q2.016-.675 4.151-1.307a104 104 0 0 0 7.47-2.498q3.44-1.308 6.009-3.21 2.568-1.904 4.033-4.638 1.461-2.735 1.462-6.778 0-8.166-6.173-12.486-6.174-4.32-18.598-4.32-5.145.001-10.643.83a45 45 0 0 0-10.486 2.889q0 3.56-.05 7.2-.051 3.639-.05 7.28zM438.242 558.443l15.998-23.653h4.435v-9.7h-25.661l-.078 9.7h4.197l-9.9 14.731-5.307-4.594V534.71h4.832v-9.62h-25.413v9.62h5.781v35.48h-5.781v9.5h25.81v-9.5h-5.23v-13.085l14.89 13.084h-4.197v9.5h24.474v-9.5h-5.069zM513.352 552.54q-.001-6.099-1.742-11.285-1.74-5.188-5.138-8.989-3.402-3.801-8.541-5.939-5.14-2.136-11.86-2.138-7.04 0-12.18 2.1-5.14 2.097-8.579 5.82-3.44 3.72-5.1 8.948-1.661 5.225-1.661 11.403 0 6.019 1.66 11.205 1.661 5.187 5.062 9.028 3.399 3.84 8.58 6.018 5.18 2.178 12.217 2.179 7.036 0 12.176-2.179 5.141-2.177 8.502-6.018 3.36-3.841 4.981-9.028 1.623-5.187 1.623-11.125m-16.301-.09q0 3.648-.473 6.859t-1.733 5.668q-1.262 2.457-3.35 3.884t-5.397 1.429-5.516-1.468q-2.207-1.467-3.506-3.925-1.301-2.458-1.812-5.669-.513-3.21-.513-6.777 0-4.204.59-7.494t1.93-5.55q1.34-2.26 3.508-3.49 2.166-1.227 5.319-1.228 2.994 0 5.082 1.309 2.087 1.307 3.388 3.647 1.301 2.338 1.893 5.588.59 3.251.59 7.218M360.344 600.09l13.7-8 13.465 7.92 3.327-3.961-12.357-12.197h-9.028l-12.672 12.119Z" style="fill:#fff;fill-opacity:1;fill-rule:nonzero;stroke:none" transform="matrix(1.33333 0 0 -1.33333 0 1122.52)" data-source="https://football-logos.cc"></path><!-- source: https://football-logos.cc --></svg>