<svg xmlns="http://www.w3.org/2000/svg" viewBox="0 0 212.82 70"><!-- Source: https://football-logos.cc --><defs data-source="https://football-logos.cc"><style>.cls-1{fill:#027dc5}.cls-2{fill:#231f20}</style></defs><g id="Layer_2" data-name="Layer 2" data-source="https://football-logos.cc"><g id="Sekundarni_lezeci"><path d="m116.1 54.12-4.23-14.4c2.56-.92 3.84-3.1 3.84-6.58V23c0-4.75-2.37-7.1-7.15-7.1h-9.24v38.22h5.88V40.24h.72L110 54.12ZM105.2 21h2.42c1.49 0 2.2.71 2.2 2.24v9.61c0 1.53-.71 2.24-2.2 2.24h-2.42Zm107.62 33.1h-2l-1.46-8.1h-9.19l-1.37 8.14h-2.1l6.94-38.4h2.2ZM200.55 44H209l-4.26-24.3Zm-14.16-7.5v-2h7.32v13.66c0 4.1-2.14 6.23-6.32 6.23h-1.71c-4.24 0-6.38-2.13-6.38-6.23V21.78c0-4 2.14-6.17 6.38-6.17h1.71c4.18 0 6.27 2.13 6.27 6.17v7.32h-2.15v-7.38c0-2.73-1.37-4.15-4.18-4.15h-1.6c-2.86 0-4.29 1.42-4.29 4.15v26.55c0 2.73 1.43 4.15 4.29 4.15h1.6c2.86 0 4.24-1.42 4.24-4.15V36.5Zm-14.67-20.62h2.15v38.24h-2.15Zm-12.1 0V52.1h8.48v2h-10.62V15.88Zm-5.21 38.24h-5.83l-.77-6h-6.11l-.71 6h-5.45L141 15.83h7.82Zm-12-11.2h4.79l-2.42-19.34Zm-18.56 11.25-5.67-38.29h5.94l3.47 28.51 3.57-28.51h5.61l-5.72 38.29ZM86 54.12h-5.88V15.88h9.24c4.79 0 7.15 2.35 7.15 7.1v10.16c0 4.75-2.36 7.1-7.15 7.1H86ZM88.42 21H86v14.11h2.42c1.49 0 2.2-.71 2.2-2.24v-9.62c0-1.53-.71-2.23-2.2-2.23M34.92 0A35 35 0 0 0 .38 30.08L0 32.76 37.63 0Z" class="cls-1"></path><path d="M.35 39.66a34.5 34.5 0 0 0 2.53 9.16l.55 1.27L24.27 32l7.16-20L.27 39.12Z" class="cls-2"></path><path d="M6.49 55.24c.67.94 1.39 1.85 2.14 2.71a35 35 0 0 0 3.57 3.56l1.12 1 7.51-20.92L6 54.49ZM63.11 14.14C62.56 13.41 62 12.7 61.4 12a35.5 35.5 0 0 0-5-4.69l-1.1-.85-22.71 63.45L34 70h2.11a35 35 0 0 0 7.36-1l.53-.13 19.43-54.29ZM67.67 22.43l-1-2.54-16.79 46.89 2.37-1.35A35.6 35.6 0 0 0 58 61.37a35.09 35.09 0 0 0 9.69-38.94" class="cls-1"></path><path d="M50.17 3.46A35 35 0 0 0 42.05.72l-.86-.17-23.3 65 .77.41a35.2 35.2 0 0 0 8 3l.88.22L51 3.85Z" class="cls-2"></path></g></g><!-- source: https://football-logos.cc --></svg>