<svg xmlns="http://www.w3.org/2000/svg" xml:space="preserve" fill-rule="evenodd" stroke-linejoin="round" stroke-width="28.222" preserveAspectRatio="xMidYMid" version="1.2" viewBox="0 0 16940.86 19267.98"><!-- Source: https://football-logos.cc --><defs class="ClipPathGroup" data-source="https://football-logos.cc"><clipPath id="a" clipPathUnits="userSpaceOnUse"><path d="M0 0h21000v29700H0z"></path></clipPath></defs><g class="SlideGroup" data-source="https://football-logos.cc"><g class="Slide" clip-path="url(#a)" transform="translate(-1756.788 -5334)"><g class="Page"><g class="Group"><g class="com.sun.star.drawing.ClosedBezierShape"><path fill="none" d="M2400 5966h15664v14637H2400z" class="BoundingBox"></path><path fill="#044d92" d="M13909 19776c-268 32-239-214-119-257 149-52 251 93 119 257m-9226-475-31-1023 969-195c-97-135-200-224-301-360-344-465-500-662-778-1241-1016-2124-704-4487 521-6284 713-1045 1823-1884 3029-2329 1446-534 3111-472 4516 96 1298 524 2260 1425 2921 2438 1182 1813 1339 4275 264 6319-329 626-734 1125-1142 1536-413 415-1008 855-1552 1127-312 155-597 277-947 392-79 26-177 47-256 74-100 36-94 113-130 222-45 139-140 393-158 528 941-8 1978-192 2824-439 576-169 604-146 1051-578 610-589 1019-1017 1477-1800 206-354 376-700 544-1105 390-936 482-1722 550-2724 58-863-182-2052-448-2785-1550-4263-6242-6361-10518-4553-1514 641-2754 1819-3513 3041-891 1436-1381 3272-1090 5294 122 845 435 1803 807 2470 303 542 749 1240 1189 1675 74 73 113 155 202 204"></path></g><g class="com.sun.star.drawing.ClosedBezierShape"><path fill="none" d="M2004 5561h16450v16407H2004z" class="BoundingBox"></path><path fill="#fdfdfe" d="m6776 20809 256-498c118 14 392 131 516 172 418 139 1275 352 1681 399l-190 639c-349-29-892-169-1215-282-210-72-930-324-1048-430m4507 729 144-503c472-3 796-25 1271-90 353-48 719-143 1048-178l-121 73c-624 300-1719 687-2342 698m-4083-1636c26-67 227-412 271-450 292 100 488 225 919 354 383 115 693 147 1068 229 33 89-70 260-107 432-386-26-1957-401-2151-565m-116-660 24 21c-40 131-610 1116-703 1344-241-61-948-609-1185-803-91-75-162-93-167-230-10-257 3-535 1-795 112 55 281 209 385 290 62 48 125 91 188 142 388 310 241 146 299 363 19 70 80 150 137 191 166 118 364 44 458-70 115-139 97-347-28-464-204-191-305-2-487-131-133-94-258-178-391-268-97-66-310-195-371-267 937-159 660-179 1033 120 350 280 654 439 807 557m3025-11341c737-68 1836 201 2443 470 363 160 669 331 961 524 351 234 911 711 1168 1038 358 454 601 752 874 1331 724 1530 751 3323 81 4868-308 710-741 1318-1186 1762-560 557-970 862-1718 1229-1465 719-3383 737-4846 76-819-371-1548-884-2126-1564-931-1094-1339-2238-1424-3730-87-1536 656-3217 1672-4224 332-331 430-421 796-688 568-414 1298-754 2003-925 682-166 679-110 1302-167M4683 19303c-89-49-128-132-202-204-440-435-886-1133-1189-1677-372-666-685-1625-807-2469-292-2021 199-3857 1090-5294 759-1222 1999-2401 3513-3042 4276-1808 8968 291 10518 4555 266 733 506 1922 448 2784-68 1002-160 1788-550 2724-168 404-338 751-544 1104-458 785-867 1213-1477 1802-447 432-475 409-1051 578-846 247-1882 431-2824 438 18-135 113-388 158-527 36-109 30-187 130-222 79-28 177-48 256-74 350-116 635-237 947-393 544-272 1139-711 1552-1126 408-412 813-911 1143-1538 1074-2043 917-4504-265-6318-661-1014-1623-1914-2920-2438-1406-568-3071-630-4517-97-1206 446-2315 1284-3029 2331-1224 1796-1536 4159-521 6283 278 579 435 776 778 1241 101 136 204 226 301 361l-969 195zm6372 2664c1066-47 2279-522 3085-942 855-444 1870-1287 2465-2048 1272-1631 1946-3428 1836-5608-290-5746-6263-9416-11526-7109-654 286-1631 876-2134 1370-80 78-145 120-258 236-364 376-378 386-717 788-330 391-731 1038-970 1524-992 2026-1115 4501-271 6611 195 486 416 925 670 1331 296 470 708 1018 1102 1412 258 257 502 479 782 702 372 295 755 549 1204 795 444 243 901 431 1403 595 373 122 1254 352 1662 338 119-149 166-211 439-201l58-149-413-33 393-1507c745-25 572 23 1415-76l-495 1597-221 22 62 142c212-1 366 46 429 210"></path></g><g class="com.sun.star.drawing.ClosedBezierShape"><path fill="none" d="M4500 8057h11452v11461H4500z" class="BoundingBox"></path><path fill="#fdfdfe" d="M9990 9306c613-63 1388 105 1898 308 597 238 1143 617 1528 1007l391 454c156 195 303 442 428 684 256 496 450 1127 476 1775 31 749-73 1314-315 1935-108 277-247 525-387 747-425 677-1059 1216-1769 1592-456 241-1164 445-1758 468-3447 133-5615-3222-4421-6172 112-278 241-512 388-746 411-652 1088-1255 1771-1588 666-325 1045-390 1770-464m-287-1215c-883 104-1506 285-2196 658-699 377-1087 734-1591 1273-459 491-819 1153-1068 1796-574 1487-422 3298 342 4698 186 342 354 570 568 853 92 121 388 453 513 560 593 506 1081 923 1993 1242 782 273 1599 407 2507 320 3003-288 5417-2900 5161-6211-63-810-327-1585-661-2206-358-668-804-1172-1274-1591-934-831-2539-1597-4294-1392"></path></g><g class="com.sun.star.drawing.ClosedBezierShape"><path fill="none" d="M6221 9782h8016v8011H6221z" class="BoundingBox"></path><path fill="#044d92" d="M11850 15822c112-81 265-140 375-216l340-267c76 199 415 648 461 798l-648-67-331 577c-59-108-144-665-197-825m-3002 62 134-489c234 21 367 146 1065 181 687 33 1684-242 2126-723 43-47 96-136 153-176 256-174 639 164-102 722-631 475-1448 604-2238 626-427 11-759-78-1138-141m-1109-2161c-516-34-487 580-1 531 90 294 176 389 329 577-21 84-251 471-308 538-201-96-500-445-619-639-212-345-274-694-540-742 145-102 185-39 346-361 253-503 409-804 978-1144 565-339 1496-597 2314-516l62 444c-590-37-1166 97-1624 308-368 170-874 590-937 1004m3616-1565c162 10 417 85 596 112 238 36 434 46 679 69 142 320 124 677 38 1031-79-50-259-314-712-548-624-322-458-45-601-664m786 2467c-78 116-375 377-547 434-73-244-385-855-520-1023-346 282-562 435-806 828-196-238-52-118-366-443-71-74-364-346-460-383-24 68-118 208-158 278-56 98-99 190-154 299-309 610-508 1348-631 2037-132-143-210-415-348-579l-648 68c84-251 1191-1733 1726-3506 210-67 557-115 791-102-58 254-226 624-253 753 96 87 188 170 273 275 70 86 170 286 237 344 118-279 297-433 489-617l-285-846c-85-294-165-641-200-961-74 99-37 306-93 359l-789 34c11-217 35-389 24-629-9-209-66-411-75-594 330 37 379 140 522 207 80-359 598-496 797-7 124-52 306-219 523-192-93 242-86 865-54 1149 41 358 124 717 232 1045 104 319 218 612 352 905zM9852 9801c-2100 202-3824 2035-3614 4371 195 2171 2118 3786 4366 3605 2068-166 3838-2065 3612-4367-203-2079-2032-3832-4364-3609"></path></g><g class="com.sun.star.drawing.ClosedBezierShape"><path fill="none" d="M1757 5334h16942v19269H1757z" class="BoundingBox"></path><path fill="#044d92" d="M9785 24187c-113-624 764-744 884-204 138 619-784 758-884 204m635-3173c-119 211-463 60-336-190 103-200 466-40 336 190m635 952c-63-165-217-212-429-210l-62-143 221-21 495-1597c-843 99-670 51-1415 75l-393 1508 413 33-58 149c-273-10-320 52-439 201-408 14-1289-217-1662-338-502-164-959-352-1403-595-449-246-832-500-1204-796-280-222-524-444-782-701-394-395-806-942-1102-1412-254-405-475-844-670-1331-844-2111-722-4585 271-6611 239-486 640-1132 970-1523 339-402 353-412 717-788 113-116 178-158 258-237 503-493 1480-1083 2134-1370 5263-2307 11236 1364 11526 7109 110 2181-564 3978-1836 5607-595 762-1610 1604-2465 2049-806 419-2019 895-3085 942m106 1523-27-41c-54 110-66 206-141 302-62 79-139 162-244 214-43-58-129-394-515-397-270-2-464 177-511 402-182-57-309-269-372-445-68-189-156-422-314-491-176 60-348 181-578 43-172-103-173-331-79-537 174-385 513-528 1033-348 7-319 199-395 480-342 66-508 645-432 662 1 311-64 510 73 480 362 183-71 251-113 499-91 90 8 158 29 228 64 60 30 125 99 164 106l40-5c-38-93-141-111-189-178 137-38 287-64 429-94 629-130 1255-409 1834-679 318-148 653-361 947-556 303-201 855-638 1112-908 316-332 369-361 710-775 85-103 154-180 225-290 58-91 147-199 205-288 268-412 521-836 720-1300 534-1240 875-2779 686-4241-12-94-14-149-21-247-5-68-28-141-36-210-72-571-221-1081-410-1616-343-970-1005-2082-1698-2811-67-70-172-174-242-253-65-74-173-163-253-241-661-640-1519-1190-2431-1588-961-419-2095-677-3342-677-611 0-853 36-1404 117-860 127-1870 491-2605 899-1504 833-2671 1979-3484 3545-712 1370-1162 3364-874 4996 15 83 8 155 27 241s28 113 40 212c26 222 242 992 308 1173 96 260 176 482 286 724l252 509c433 785 578 963 1129 1633l494 516c287 259 479 444 817 688 790 573 1711 1065 2675 1324 116 31 254 78 386 107 101 22 341 58 407 89-15 26-479 337-402 771 94 523 770 224 794 232 307 258 137 651 658 936 21 187 32 296 150 406 226 210 538 199 747-30 112-122 106-202 146-392 158-75 401-326 402-541"></path></g><g class="com.sun.star.drawing.ClosedBezierShape"><path fill="none" d="M7503 10535h4639v6118H7503z" class="BoundingBox"></path><path fill="#fdfdfe" d="M11720 13758c-135-294-248-587-352-906-108-328-191-686-232-1045-32-283-40-906 54-1147-217-27-400 139-523 192-199-489-716-352-796 7-144-68-193-170-523-208 9 184 66 385 75 594 11 240-13 413-24 629l790-35c55-52 19-259 92-358 34 319 115 666 200 960l285 846c-192 184-372 339-489 618-66-58-167-258-236-344-85-106-178-189-274-276 27-129 196-499 254-752-236-14-582 34-792 102-535 1773-1642 3254-1726 3505l648-68c138 164 216 436 348 580 123-690 322-1427 630-2037 56-109 99-200 155-299 40-70 134-210 157-277 97 36 390 308 462 382 314 325 170 205 365 443 244-392 460-546 806-828 134 169 447 779 520 1023 172-57 469-318 547-433z"></path></g><g class="com.sun.star.drawing.ClosedBezierShape"><path fill="none" d="M5899 9458h8660v8657H5899z" class="BoundingBox"></path><path fill="#fdfdfe" d="M9853 9801c2331-224 4161 1530 4364 3608 226 2303-1544 4201-3613 4367-2247 181-4171-1434-4366-3604-211-2337 1514-4169 3615-4371m-3954 4021c0 1311 621 2373 1259 3012 624 624 1683 1282 2994 1280 1341-3 2476-511 3329-1480 1137-1291 1412-3206 640-4740-128-253-257-460-406-666-278-385-694-790-1097-1046-1313-834-2762-953-4203-322-323 142-725 398-981 627l-284 252c-669 727-1251 1680-1251 3083"></path></g><g class="com.sun.star.drawing.ClosedBezierShape"><path fill="none" d="M4330 7891h11792v11790H4330z" class="BoundingBox"></path><path fill="#044d92" d="M9705 8091c1754-206 3359 560 4294 1392 470 418 916 922 1274 1591 334 622 599 1396 661 2207 257 3310-2158 5923-5162 6211-907 86-1724-48-2506-321-912-319-1400-736-1994-1242-125-107-420-439-512-560-215-283-383-511-569-854-764-1400-916-3210-342-4696 249-644 609-1307 1068-1798 504-539 892-896 1592-1273 690-373 1313-553 2196-657m406-190c-623 57-620 2-1302 167-705 171-1435 511-2004 925-366 267-464 357-796 687-1016 1007-1758 2690-1672 4225 86 1492 493 2636 1424 3731 578 679 1307 1192 2127 1563 1464 661 3380 643 4845-76 749-367 1160-672 1719-1229 445-443 878-1050 1186-1762 670-1545 643-3338-81-4867-273-580-516-879-874-1333-257-326-816-803-1168-1036-292-194-599-365-962-525-607-269-1706-537-2442-470"></path></g><g class="com.sun.star.drawing.ClosedBezierShape"><path fill="none" d="M8318 21495h3820v2475H8318z" class="BoundingBox"></path><path fill="#fdfdfe" d="M9317 23034c139 51 305 156 453 9 102-102 152-302 143-476 17 198 86 447-81 580-154 123-448 58-515-113m-605 57c-11-183 171-307 375-285-68 51-43 26-121 54-44 15-67 30-106 57-90 65-80 79-148 174m2915-99c101-70 180-6 282-99 86-78 79-182 72-318 118 86 103 252 35 343-90 120-224 99-389 74m297-369c32 113 5 233-164 241 145-110 143-107 100-327 6 4 42 7 64 86m-1850 311c-19-30-20-3-19-59 0-25 6-22 10-50 22-156-9-228-78-347 179 88 174 290 87 456m1172-483c213 193 17 673-222 685 124-161 298-364 222-685m103 446c45-157 108-301 9-454 155 63 155 376-9 454m-2804-309c36-139 143-214 285-258 136-42 344-34 413 79-217-34-379-24-564 80-78 43-68 56-134 99m2490-377c-299 279-296 706 48 615-31 91-81 133-189 130-219-54-217-604 141-745m-2257 73c60-70 97-109 239-102 120 6 195 52 224 131-228-94-232-86-463-29m635-93c147 50 244 162 299 312 147 396-230 601-310 329l157 14c221-222 63-485-146-655m0 0c-520-182-858-38-1033 348-93 206-92 434 79 536 230 138 402 17 579-43 157 69 246 302 313 492 63 176 190 388 372 445 47-225 241-404 511-402 386 3 472 340 516 398 104-52 182-136 243-214 75-96 87-192 141-303 41-167 144-348 275-414 13-2 488 256 675-47 166-269-106-585-158-696-39-7-104-76-163-106-70-36-139-57-229-65-248-23-316 20-499 91 30-289-168-426-480-363-17-431-595-508-662-1-281-52-473 24-480 344"></path></g><g class="com.sun.star.drawing.ClosedBezierShape"><path fill="none" d="M5731 9291h8989v8989H5731z" class="BoundingBox"></path><path fill="#044d92" d="M5899 13822c1-1403 582-2356 1252-3083l284-251c256-229 657-486 981-628 1440-630 2890-513 4203 322 403 257 818 661 1097 1047 148 205 278 412 405 665 772 1535 497 3449-639 4741-853 968-1989 1477-3330 1479-1311 2-2369-656-2993-1280-638-639-1260-1700-1260-3012m4093-4517c-725 74-1105 139-1771 464-683 333-1361 936-1771 1588-147 234-276 468-389 746-1193 2950 975 6305 4422 6172 594-23 1302-227 1758-468 711-376 1344-915 1770-1592 139-222 278-470 386-747 243-621 347-1186 316-1935-27-648-220-1279-476-1775-125-242-273-489-428-684l-392-454c-384-390-930-769-1529-1007-509-203-1285-370-1896-308"></path></g><g class="com.sun.star.drawing.ClosedBezierShape"><path fill="none" d="M6601 11951h3701v3420H6601z" class="BoundingBox"></path><path fill="#fdfdfe" d="M7740 13724c63-415 570-835 938-1005 457-211 1035-345 1623-308l-62-445c-817-80-1749 178-2314 517-570 340-726 641-978 1144-162 323-201 259-346 362 265 48 328 396 539 742 120 194 419 543 621 639 56-67 286-455 307-538-152-188-239-283-329-577-487 49-516-565 1-531"></path></g><g class="com.sun.star.drawing.ClosedBezierShape"><path fill="none" d="M5049 18449h2063v2158H5049z" class="BoundingBox"></path><path fill="#044d92" d="M5244 18562c61 73 274 202 372 267 133 90 259 175 391 269 182 129 283-60 487 131 126 117 144 326 29 465-94 114-293 187-459 69-56-40-118-120-137-191-58-218 89-54-298-364-65-51-128-93-190-141-104-82-273-236-385-291 3 261-10 538-1 797 5 136 76 154 167 229 238 194 946 742 1187 804 93-229 663-1214 703-1345l-24-22c-153-118-457-277-808-557-372-298-96-277-1034-120"></path></g><g class="com.sun.star.drawing.ClosedBezierShape"><path fill="none" d="M8848 14631h3810v1396H8848z" class="BoundingBox"></path><path fill="#fdfdfe" d="M8849 15885c379 62 711 152 1137 140 791-21 1607-150 2239-626 741-558 358-896 102-722-58 39-111 128-154 175-441 483-1440 758-2125 724-699-34-831-159-1065-181z"></path></g><g class="com.sun.star.drawing.ClosedBezierShape"><path fill="none" d="M6777 20310h2454v1212H6777z" class="BoundingBox"></path><path fill="#044d92" d="M8303 21055c-284 16-215-234-103-265 78-21 151 26 171 89 28 91-28 131-68 176m-1526-247c118 106 838 358 1047 432 324 112 868 252 1216 281l190-640c-405-47-1264-260-1681-399-124-42-399-159-517-172z"></path></g><g class="com.sun.star.drawing.ClosedBezierShape"><path fill="none" d="M7200 19450h2267v1017H7200z" class="BoundingBox"></path><path fill="#044d92" d="M7201 19900c193 165 1765 539 2151 566 37-172 140-344 107-433-374-82-685-114-1068-229-432-129-628-254-920-354-44 38-245 383-270 450"></path></g><g class="com.sun.star.drawing.ClosedBezierShape"><path fill="none" d="M11355 12157h1383v1214h-1383z" class="BoundingBox"></path><path fill="#fdfdfe" d="M11355 12157c143 620-22 342 601 665 455 234 635 498 714 548 86-354 104-712-39-1032-246-24-442-33-680-69-179-27-435-103-596-112"></path></g><g class="com.sun.star.drawing.ClosedBezierShape"><path fill="none" d="M11282 20766h2466v773h-2466z" class="BoundingBox"></path><path fill="#044d92" d="M11282 21538c623-11 1719-399 2343-700l121-72c-329 34-695 129-1048 177-476 66-800 88-1272 91z"></path></g><g class="com.sun.star.drawing.ClosedBezierShape"><path fill="none" d="M11850 15339h1178v1309h-1178z" class="BoundingBox"></path><path fill="#fdfdfe" d="M11850 15821c52 160 137 718 197 826l331-578 649 67c-47-150-386-598-462-797l-341 266c-110 78-263 136-374 216"></path></g><g class="com.sun.star.drawing.ClosedBezierShape"><path fill="none" d="M9775 23639h910v896h-910z" class="BoundingBox"></path><path fill="#fdfdfe" d="M10259 24310c178-125 74-69 164-137-20 87-90 169-164 137m76 83c3-4 8-9 11-11 2-2 8-7 11-10 117-95 122-95 199-279 60 158-95 355-221 300m-550-207c100 555 1022 415 884-205-121-539-997-418-884 205"></path></g><g class="com.sun.star.drawing.ClosedBezierShape"><path fill="none" d="M11134 22285h1060v1204h-1060z" class="BoundingBox"></path><path fill="#27537c" d="M11926 22290c52 110 324 427 158 696-187 304-663 46-676 48-131 65-234 247-274 413l26 41c87-99 59-199 248-388 100 25 158 107 404 87 138-11 264-58 326-167 147-260-38-663-172-735z"></path></g><g class="com.sun.star.drawing.ClosedBezierShape"><path fill="none" d="M10057 20732h394v383h-394z" class="BoundingBox"></path><path fill="#fdfdfe" d="M10422 21013c131-231-233-390-337-190-127 251 217 401 337 190"></path></g><g class="com.sun.star.drawing.ClosedBezierShape"><path fill="none" d="M9318 22567h626v645h-626z" class="BoundingBox"></path><path fill="#044d92" d="M9318 23034c66 172 361 236 515 113 167-133 98-383 81-580 9 173-41 374-143 476-149 147-315 42-453-9"></path></g><g class="com.sun.star.drawing.ClosedBezierShape"><path fill="none" d="M9403 22191h347v768h-347z" class="BoundingBox"></path><path fill="#044d92" d="M9414 22191c209 170 368 434 146 657l-157-15c79 273 459 67 312-330-57-150-154-262-301-312"></path></g><g class="com.sun.star.drawing.ClosedBezierShape"><path fill="none" d="M10744 22211h340v748h-340z" class="BoundingBox"></path><path fill="#044d92" d="M11035 22211c-359 140-361 692-142 746 109 3 159-39 189-129-344 90-347-338-47-617"></path></g><g class="com.sun.star.drawing.ClosedBezierShape"><path fill="none" d="M8102 20784h277v273h-277z" class="BoundingBox"></path><path fill="#fdfdfe" d="M8302 21055c40-44 96-86 68-176-20-65-93-110-172-90-111 30-180 283 104 266"></path></g><g class="com.sun.star.drawing.ClosedBezierShape"><path fill="none" d="M13702 19508h270v275h-270z" class="BoundingBox"></path><path fill="#fdfdfe" d="M13910 19778c132-166 29-311-120-260-120 43-149 291 120 260"></path></g><g class="com.sun.star.drawing.ClosedBezierShape"><path fill="none" d="M11023 22450h317v687h-317z" class="BoundingBox"></path><path fill="#044d92" d="M11246 22450c77 322-98 526-223 686 241-11 438-493 223-686"></path></g><g class="com.sun.star.drawing.ClosedBezierShape"><path fill="none" d="M8545 22305h701v285h-701z" class="BoundingBox"></path><path fill="#044d92" d="M8546 22589c66-43 56-56 133-100 187-104 349-115 566-80-69-113-278-121-414-80-142 44-249 120-285 260"></path></g><g class="com.sun.star.drawing.ClosedBezierShape"><path fill="none" d="M11627 22575h444v438h-444z" class="BoundingBox"></path><path fill="#044d92" d="M11627 22992c165 25 299 46 390-74 68-91 83-258-35-343 7 136 15 240-73 319-102 92-182 29-282 98"></path></g><g class="com.sun.star.drawing.ClosedBezierShape"><path fill="none" d="M8779 22181h465v135h-465z" class="BoundingBox"></path><path fill="#27537c" d="M8779 22286c232-58 235-66 464 29-29-80-104-127-224-133-144-6-181 32-240 104"></path></g><g class="com.sun.star.drawing.ClosedBezierShape"><path fill="none" d="M11348 22443h128v456h-128z" class="BoundingBox"></path><path fill="#27537c" d="M11348 22898c167-77 167-392 9-455 101 154 37 298-9 455"></path></g><g class="com.sun.star.drawing.ClosedBezierShape"><path fill="none" d="M9987 22477h149v458h-149z" class="BoundingBox"></path><path fill="#27537c" d="M10075 22934c88-166 93-369-88-456 70 118 101 190 79 347-4 28-10 25-10 51-1 55 0 28 19 58"></path></g><g class="com.sun.star.drawing.ClosedBezierShape"><path fill="none" d="M8712 22803h378v290h-378z" class="BoundingBox"></path><path fill="#27537c" d="M8712 23091c68-95 57-109 149-174 38-27 62-43 106-58 79-28 54-3 121-54-204-21-386 103-376 286"></path></g><g class="com.sun.star.drawing.ClosedBezierShape"><path fill="none" d="M10334 24093h238v312h-238z" class="BoundingBox"></path><path fill="#27537c" d="M10334 24394c127 55 283-143 223-301-79 184-83 184-201 280-3 3-9 8-12 10-2 2-7 7-10 11"></path></g><g class="com.sun.star.drawing.ClosedBezierShape"><path fill="none" d="M11758 22536h180v330h-180z" class="BoundingBox"></path><path fill="#27537c" d="M11759 22865c170-9 198-129 166-242-22-80-59-83-65-87 43 221 46 218-101 329"></path></g><g class="com.sun.star.drawing.ClosedBezierShape"><path fill="none" d="M10259 24172h166v147h-166z" class="BoundingBox"></path><path fill="#27537c" d="M10259 24311c73 31 144-50 165-138-92 68 13 11-165 138"></path></g></g></g></g></g><!-- source: https://football-logos.cc --></svg>