<svg xmlns="http://www.w3.org/2000/svg" viewBox="111.68 83.94 563.5 813.89"><!-- Source: https://football-logos.cc --><path d="M294.678 174.265c-10.416 0-65.627 7.137-130.209 64.583-49.478 44.01-73.957 104.742-73.957 129.742l.004 403.591H500.63l.002-403.591c0-25-24.478-85.731-73.958-129.742-64.58-57.446-119.792-64.583-130.209-64.583z" style="fill:#fff;fill-opacity:1;fill-rule:nonzero;stroke:none" transform="matrix(1.33333 0 0 -1.33333 -.667 1121.853)" data-source="https://football-logos.cc"></path><path d="m394.464 214.109 33.829 24.805v533.692h-33.829zM462.111 278.367l29.833 48.437 3.995 19.922v425.898h-33.828zM191.474 216.973l33.827-21.354v577.149h-33.827zM326.786 179.889l33.825 13.75v579.114h-33.825zM123.817 284.682l33.829-39.584V772.77h-33.83zM259.107 182.078l33.828-7.188v597.846h-33.828z" style="fill:#ed1b29;fill-opacity:1;fill-rule:nonzero;stroke:none" transform="matrix(1.33333 0 0 -1.33333 -.667 1121.853)"></path><path d="M92.334 352.39 497.56 769.7l-405.225 1.44s-2.343-360.156-2.343-382.812 2.343-35.938 2.343-35.938" style="fill:#2e58b0;fill-opacity:1;fill-rule:nonzero;stroke:none" transform="matrix(1.33333 0 0 -1.33333 -.667 1121.853)"></path><path d="M149.366 493.015 364.429 714.5H149.366Z" style="fill:#fff;fill-opacity:1;fill-rule:nonzero;stroke:none" transform="matrix(1.33333 0 0 -1.33333 -.667 1121.853)"></path><path d="M202.49 656.225c-.621-1.347-.948-3.388-.283-4.83.852-1.847 2.13-2.415 2.698-3.124s.568-2.699.284-5.54c-.284-2.84-.852-5.824-1.136-7.67-.283-1.848-.284-3.836-2.273-3.978-1.988-.142-2.983.852-4.545 2.699-1.563 1.846-2.7 3.408-2.984 5.398-.283 1.988-.426 2.982-1.562 2.982s-1.563-.426-1.563-3.693v-15.057c0-3.834.286-8.523 1.706-9.09 1.42-.569 3.266 0 4.544.283 1.28.285 1.848-.283 3.41-3.834s2.131-5.399 4.546-8.24c2.414-2.84 3.268-3.266 3.125-6.39-.143-3.126-.568-5.542.71-8.24s2.982-3.835 4.545-5.398 2.7-2.557 2.13-4.26c-.568-1.706-1.42-2.274-1.988-2.842s-.994-1.42-.71-1.989c.284-.568 6.107-.71 9.801-.71s4.261.994 4.119 2.273c-.142 1.278-.993 2.84-1.42 4.687s-.71 6.818-.426 8.239c.283 1.42 1.42 2.557 1.846 3.693s1.706 2.13 2.7 1.989c.994-.142 2.415 0 2.982.71s.712 2.84-.142 5.255c-.853 2.415-1.988 2.984-1.988 5.398 0 2.415-.852 5.115-2.699 7.245s-5.256 7.812-5.966 10.937-1.42 6.82-1.42 10.227c0 3.41.283 6.109 2.272 8.523 1.989 2.415 3.125 4.687 2.557 5.966s-1.705 1.136-3.125.71c-1.421-.426-2.984 1.28-3.977 2.274-.994.993-3.696 1.816-5.824 1.704-2.7-.142-3.315.36-4.688 1.989-2.272 2.698-4.403 3.55-5.255 1.704" style="fill:#3c4143;fill-opacity:1;fill-rule:nonzero;stroke:none" transform="matrix(1.33333 0 0 -1.33333 -.667 1121.853)"></path><path d="M184.744 655.417s-.027-67.87-.027-75.097c0-6.258-12.597-5.469-18.066-5.664-5.469-.196-5.469-2.93-5.469-2.93h63.736s1.206.684.782 1.563c-.749 1.555-3.178 2.46-6.705 2.441-17.48-.098-26.781-1.668-26.781 4.59 0 7.226-.026 75.097-.026 75.097" style="fill:#85463d;fill-opacity:1;fill-rule:nonzero;stroke:none" transform="matrix(1.33333 0 0 -1.33333 -.667 1121.853)"></path><path d="M500.63 776.869H85.829l-.004-408.28c0-27.695 26.247-89.408 75.53-133.244 73.093-65.015 132.73-65.767 133.324-65.767h1.788c.595 0 60.233.752 133.326 65.767 49.281 43.835 75.529 105.549 75.529 133.245l-.002 408.279h-4.688m-4.687-9.375.002-398.904c0-25.28-25.777-84.783-72.386-126.24-58.469-52.008-111.568-63.397-127.094-63.397h-1.788c-15.526 0-68.624 11.389-127.094 63.397C120.976 283.807 95.2 343.31 95.2 368.59l.004 398.904z" style="fill:#f5911c;fill-opacity:1;fill-rule:nonzero;stroke:none" transform="matrix(1.33333 0 0 -1.33333 -.667 1121.853)" data-source="https://football-logos.cc"></path><path d="M500.63 778.431H85.829c-.863 0-1.562-.7-1.562-1.562l-.004-408.28c0-27.99 26.43-90.271 76.054-134.41 73.532-65.407 133.762-66.164 134.362-66.164h1.788c.6 0 60.832.757 134.364 66.163 49.624 44.138 76.053 106.421 76.053 134.412l-.002 408.279c0 .862-.7 1.562-1.562 1.562h-4.688m0-3.125h3.125l.002-406.716c0-27.402-26.066-88.547-75.005-132.077-72.402-64.402-131.697-65.371-132.288-65.373h-1.787c-.59.001-59.883.971-132.285 65.373-48.94 43.53-75.006 104.674-75.006 132.077l.004 406.716z" style="fill:#231f20;fill-opacity:1;fill-rule:nonzero;stroke:none" transform="matrix(1.33333 0 0 -1.33333 -.667 1121.853)"></path><path d="M95.203 769.056c-.863 0-1.562-.7-1.562-1.562l-.004-398.904c0-25.568 25.964-85.65 72.91-127.408 58.832-52.332 112.44-63.792 128.131-63.792h1.788c15.692 0 69.3 11.46 128.132 63.792 46.947 41.757 72.91 101.84 72.91 127.408l-.002 398.904c0 .862-.7 1.562-1.562 1.562zm399.177-3.125.002-397.341c0-24.994-25.59-83.916-71.862-125.073-58.104-51.684-110.694-63.002-126.055-63.002h-1.788c-15.36 0-67.95 11.318-126.055 63.002-46.27 41.158-71.861 100.08-71.861 125.073l.004 397.341z" style="fill:#231f20;fill-opacity:1;fill-rule:nonzero;stroke:none" transform="matrix(1.33333 0 0 -1.33333 -.667 1121.853)"></path><path d="m426.774 760.723 5.292-16.283h17.122l-13.851-10.064 5.29-16.283-13.853 10.064-13.85-10.064 5.29 16.283-13.852 10.064h17.123zM328.574 659.71l5.292-16.284h17.121l-13.851-10.063 5.29-16.284-13.852 10.065-13.85-10.065 5.29 16.284-13.852 10.063h17.121zM277.23 760.723l5.292-16.283h17.123l-13.853-10.064 5.29-16.283-13.852 10.064-13.85-10.064 5.29 16.283-13.852 10.064h17.122zM123.877 760.723l5.292-16.283h17.123l-13.854-10.064 5.291-16.283-13.852 10.064-13.85-10.064 5.29 16.283-13.852 10.064h17.122zM123.877 604.817l5.292-16.283h17.123l-13.854-10.064 5.291-16.283-13.852 10.064-13.85-10.064 5.29 16.283-13.852 10.064h17.122zM123.877 448.912l5.292-16.283h17.123l-13.854-10.065 5.291-16.282-13.852 10.063-13.85-10.063 5.29 16.282-13.852 10.065h17.122zM224.505 552.419l5.292-16.284h17.122l-13.852-10.063 5.29-16.284-13.852 10.064-13.85-10.064 5.29 16.284-13.852 10.063h17.122z" style="fill:#fff;fill-opacity:1;fill-rule:nonzero;stroke:none" transform="matrix(1.33333 0 0 -1.33333 -.667 1121.853)"></path><path d="M187.842 706.296c-2.831-.056-6.64.098-9.375-.781-2.636-.848-5.24-.895-7.52-1.953-2.734-1.27-2.831-2.149-5.273-3.516s-4.297-2.05-6.836-4.297-3.613-5.371-4.687-7.324-2.344-4.395-2.344-8.399.488-5.859 1.563-7.91c1.074-2.05 2.539-3.027 3.906-5.566s3.808-3.125 5.176-4.59c1.367-1.464 3.71-1.855 5.37-2.734s3.516-.976 5.47-2.148 4.199-1.953 5.664-1.953 5.078-.586 6.836-.782c1.757-.195 3.906.098 6.738.196 2.832.097 4.101.097 5.664.78 1.562.684 3.027.88 4.883 1.563 1.855.684 3.808 1.856 7.03 3.516 3.224 1.66 4.59 2.832 7.716 6.055 3.125 3.222 4.883 5.37 5.86 8.496.976 3.124 1.269 5.566.292 9.667-.976 4.102-2.637 7.031-4.883 9.18s-4.394 4.883-7.129 6.445-6.152 3.418-9.375 4.297-9.765 1.856-14.746 1.758" style="fill:#1eaf47;fill-opacity:1;fill-rule:nonzero;stroke:none" transform="matrix(1.33333 0 0 -1.33333 -.667 1121.853)"></path><path d="M185.303 695.287c0-1.568-1.303-2.84-2.911-2.84-1.61 0-2.913 1.272-2.913 2.84 0 1.57 1.304 2.841 2.913 2.841s2.911-1.271 2.911-2.84M183.172 671.85c0-1.569-1.303-2.84-2.911-2.84s-2.912 1.271-2.912 2.84 1.303 2.84 2.912 2.84 2.911-1.271 2.911-2.84M169.395 687.901c0-1.568-1.304-2.84-2.912-2.84-1.609 0-2.912 1.272-2.912 2.84 0 1.57 1.303 2.842 2.912 2.842s2.912-1.272 2.912-2.842M196.099 683.498c0-1.569-1.303-2.84-2.912-2.84s-2.912 1.271-2.912 2.84 1.303 2.84 2.912 2.84 2.912-1.271 2.912-2.84M214.422 688.185c0-1.568-1.303-2.84-2.911-2.84s-2.912 1.272-2.912 2.84c0 1.57 1.303 2.841 2.912 2.841s2.911-1.272 2.911-2.84M206.468 671.85c0-1.569-1.303-2.84-2.912-2.84s-2.911 1.271-2.911 2.84 1.302 2.84 2.911 2.84 2.912-1.271 2.912-2.84" style="fill:#c41521;fill-opacity:1;fill-rule:nonzero;stroke:none" transform="matrix(1.33333 0 0 -1.33333 -.667 1121.853)" data-source="https://football-logos.cc"></path><!-- source: https://football-logos.cc --></svg>