<svg xmlns="http://www.w3.org/2000/svg" viewBox="23.42 28.6 509.81 762.79"><!-- Source: https://football-logos.cc --><path d="M369.667 269.223s-24.334 1.667-60.334-12.333c-33.311-12.954-54-33.667-54-33.667s37.559-10.115 66 3.667c32.334 15.667 48.334 42.333 48.334 42.333" style="fill:#a86b3f;fill-opacity:1;fill-rule:nonzero;stroke:none" transform="matrix(1.96333 0 0 -1.96333 -298.89 1198.826)" data-source="https://football-logos.cc"></path><path d="m213.728 578.081-48-332a6 6 0 0 1 11.877-1.717l48 332a6 6 0 0 1-11.877 1.717" style="fill:#b48d3e;fill-opacity:1;fill-rule:nonzero;stroke:none" transform="matrix(1.96333 0 0 -1.96333 -298.89 1198.826)"></path><path d="M215.177 583.23a7.45 7.45 0 0 1-2.933-4.934l-48-332c-.592-4.093 2.256-7.904 6.35-8.496 4.092-.591 7.903 2.257 8.495 6.35l48 332c.592 4.092-2.256 7.903-6.35 8.496a7.45 7.45 0 0 1-5.562-1.416M171.022 240.77a4.506 4.506 0 0 0-3.81 5.097l48 332a4.47 4.47 0 0 0 1.76 2.961 4.47 4.47 0 0 0 3.338.85 4.506 4.506 0 0 0 3.81-5.098l-48-332a4.507 4.507 0 0 0-5.098-3.81" style="fill:#231f20;fill-opacity:1;fill-rule:nonzero;stroke:none" transform="matrix(1.96333 0 0 -1.96333 -298.89 1198.826)"></path><path d="M245.219 577.648c-1.153-6.612-12.867-10.094-26.165-7.775-13.299 2.318-23.145 9.56-21.99 16.173 1.152 6.613 12.867 10.094 26.165 7.774 13.297-2.318 23.144-9.558 21.99-16.172" style="fill:#b48d3e;fill-opacity:1;fill-rule:nonzero;stroke:none" transform="matrix(1.96333 0 0 -1.96333 -298.89 1198.826)"></path><path d="M199.635 592.16c-2.258-1.586-3.658-3.612-4.05-5.856-.391-2.245.24-4.624 1.828-6.882 3.606-5.131 11.8-9.356 21.383-11.027 9.581-1.67 18.72-.469 23.851 3.139 2.258 1.587 3.658 3.612 4.05 5.857q.112.649.112 1.31c0 1.846-.659 3.749-1.94 5.571-3.606 5.13-11.8 9.355-21.382 11.026-9.582 1.672-18.722.47-23.852-3.137m19.677-20.81c-8.695 1.515-16.327 5.36-19.445 9.796-1.136 1.615-1.581 3.177-1.326 4.641s1.204 2.783 2.82 3.919c4.434 3.117 12.917 4.152 21.61 2.636 8.695-1.516 16.326-5.361 19.444-9.796 1.135-1.615 1.582-3.176 1.326-4.64-.255-1.465-1.204-2.783-2.82-3.92-4.434-3.117-12.917-4.153-21.61-2.637m27.385 6.04" style="fill:#231f20;fill-opacity:1;fill-rule:nonzero;stroke:none" transform="matrix(1.96333 0 0 -1.96333 -298.89 1198.826)"></path><path d="M235 230.89s-31.134 16.608-42 41.667c-16.333 37.667-13.99 75.102 7 103 26.334 35 66.988 51.624 104.333 41C343 405.557 353 389.89 353 389.89s-15.999.334-23.333-2.666-18.334-9.333-19.667-15-1.334-13.667-6.667-29.667-14.333-41-26.667-54.333c-12.333-13.334-18.333-18-18.333-18s-.927-6.965-8.963-19.15C241.333 238.89 238 234.556 235 230.89" style="fill:#a86b3f;fill-opacity:1;fill-rule:nonzero;stroke:none" transform="matrix(1.96333 0 0 -1.96333 -298.89 1198.826)"></path><path d="M402.333 448.89c-13.324 10.151-23.565 10.525-26.666 12.333-4 2.334-7.333 5.667-20.667 16.334s-31.085 19.406-45 23.666c-16.333 5-31.147 10.645-51 25-21.666 15.667-34 42-34 42s16.165-34.686 13.667-92.333c-2.292-52.875-10.042-72.625-10.042-72.625S254.334 418.89 289 418.89s64.667-29.666 64.667-29.666 14.339-4.017 30.666-.667c13 2.667 35.334 8.333 37.334 25 2 16.666-12.334 30-19.334 35.333" style="fill:#ed1b29;fill-opacity:1;fill-rule:nonzero;stroke:none" transform="matrix(1.96333 0 0 -1.96333 -298.89 1198.826)"></path><path d="M378.333 386.89c-14.634-1.926-22.333 2-36 2-24 0-32.599-17.94-32.666-18.333-1.667-9.667-4-27.667-15.667-54.333s-35.666-46-35.666-46-3.334-8.667-8.334-18-17-24.667-21.666-30-4.667-7.667 2-11.334c6.014-3.308 13-1.666 15 .334s13.724 19.115 36 32c33.999 19.666 63.333 26 87.333 25.666 14.665-.204 21.854 1.393 27 6.334 8.333 8 7.286 12.61 6 22.666-3.667 28.667-2.143 53.496 6.333 80.334 4 12.666 9.667 24 9.667 24s-14.001-12.001-39.334-15.334M273.603 460.228l-3.243-4.63c-2.141-2.896-6.09-.193-4.1 2.862l12.044 17.193c2.801 3.947 6.071 5.362 9.993 4.329 4.66-1.227 4.422-5.99 4.333-7.785-.196-3.921-1.59-22.85-1.65-23.654a2.5 2.5 0 1 0-4.986.367c.005.076.222 3.018.498 6.825zm13.256.631c.349 4.905.69 9.841.777 11.587.125 2.507-.301 2.619-.612 2.701-1.048.276-2.483.654-4.644-2.389l-5.842-8.341z" style="fill:#fff;fill-opacity:1;fill-rule:nonzero;stroke:none" transform="matrix(1.96333 0 0 -1.96333 -298.89 1198.826)"></path><path d="m277.896 475.943-12.046-17.196c-1.213-1.861-.526-3.56.62-4.357 1.189-.825 3.044-.777 4.292.911l3.033 4.33 12.17-4.242-.47-6.444a3.004 3.004 0 0 1 2.772-3.21 2.98 2.98 0 0 1 2.18.72 2.98 2.98 0 0 1 1.032 2.051c.015.194 1.452 19.688 1.65 23.666.086 1.724.345 6.964-4.704 8.293-4.149 1.093-7.595-.383-10.529-4.522m.817-.577c2.665 3.754 5.759 5.106 9.457 4.133 3.781-.996 4.103-4.411 3.96-7.275-.197-3.969-1.634-23.45-1.648-23.644a2 2 0 0 0-.688-1.368c-.405-.349-.92-.52-1.453-.48a2.003 2.003 0 0 0-1.848 2.142l.498 6.825a.5.5 0 0 1-.334.509l-12.89 4.492a.5.5 0 0 1-.573-.185l-3.243-4.63c-.907-1.226-2.117-1.224-2.91-.674-.788.548-1.206 1.68-.362 2.976z" style="fill:#231f20;fill-opacity:1;fill-rule:nonzero;stroke:none" transform="matrix(1.96333 0 0 -1.96333 -298.89 1198.826)"></path><path d="m281.973 473.048-5.845-8.344a.5.5 0 0 1 .247-.76l10.32-3.557a.498.498 0 0 1 .662.437l.778 11.597c.122 2.448-.251 3.017-.984 3.21-1.122.295-2.817.742-5.178-2.583m.817-.576c1.958 2.757 3.15 2.444 4.106 2.192.07-.026.261-.215.261-1.425q0-.329-.02-.768l-.733-10.926-9.076 3.128z" style="fill:#231f20;fill-opacity:1;fill-rule:nonzero;stroke:none" transform="matrix(1.96333 0 0 -1.96333 -298.89 1198.826)"></path><path d="M410.25 384.89s-10.875-5.625-24.75-7-26.125-1.375-32.5-1.25-17.402-1.159-26.125-4c-11.125-3.625-18-9.25-18-9.25s-.75-2.875-1.625-6.5-1.375-7.75-1.375-7.75 11.625 7.625 22 10.125 25.375 3.125 33.5 2.5 18.125-.125 25.875 1.625 17.875 6 17.875 6 3.125 10.25 5.125 15.5" style="fill:#ed1b29;fill-opacity:1;fill-rule:nonzero;stroke:none" transform="matrix(1.96333 0 0 -1.96333 -298.89 1198.826)"></path><path d="M410.02 385.334c-.108-.056-10.957-5.598-24.569-6.946-13.116-1.3-24.88-1.397-32.441-1.248-6.532.128-17.66-1.213-26.29-4.025-11.086-3.612-18.092-9.282-18.161-9.339a.48.48 0 0 1-.167-.26l-1.628-6.51c-.871-3.61-1.38-7.765-1.385-7.806a.5.5 0 0 1 .77-.478c.116.075 11.674 7.606 21.843 10.056 9.95 2.398 24.767 3.148 33.345 2.489 8.64-.665 18.61-.04 26.023 1.635 7.703 1.74 17.857 5.984 17.958 6.027a.5.5 0 0 1 .286.315c.03.102 3.142 10.294 5.113 15.468a.5.5 0 0 1-.696.622m-24.472-7.942c11.273 1.117 20.674 5.07 23.81 6.516-1.851-5.08-4.312-13.067-4.643-14.146-1.447-.598-10.548-4.297-17.576-5.885-7.322-1.652-17.18-2.271-25.727-1.614-8.655.666-23.611-.092-33.655-2.512-8.694-2.095-18.32-7.802-21.244-9.617.204 1.447.624 4.16 1.222 6.639l1.582 6.329c.665.527 7.324 5.677 17.712 9.062 8.524 2.778 19.512 4.103 25.96 3.976 7.587-.149 19.397-.054 32.559 1.252" style="fill:#231f20;fill-opacity:1;fill-rule:nonzero;stroke:none" transform="matrix(1.96333 0 0 -1.96333 -298.89 1198.826)"></path><path d="M402.25 357.89s-4.625-2-14.5-4-20.125-2.5-26.375-2.875-16.5-.875-26.5-3-20.75-5.875-26.75-8.125l-6-2.25s-.375-2.5-2.625-8-4.375-10.25-4.375-10.25 14.43 7.155 27.875 10.625c15.5 4 22.25 4.875 37.75 5.625 11.76.569 23 2.125 29.5 3.75s10 2.75 10 2.75.625 5.75 1.375 9.625.625 6.125.625 6.125" style="fill:#ed1b29;fill-opacity:1;fill-rule:nonzero;stroke:none" transform="matrix(1.96333 0 0 -1.96333 -298.89 1198.826)"></path><path d="M402.052 358.349c-.046-.02-4.706-2.006-14.402-3.97-9.172-1.858-18.688-2.417-24.985-2.787l-2.55-.152c-6.347-.373-15.938-.938-25.344-2.936-10.239-2.176-21.2-6.038-26.822-8.147l-6-2.25a.5.5 0 0 1-.318-.392c-.004-.026-.402-2.528-2.594-7.886l-4.369-10.235a.51.51 0 0 1 .115-.564.5.5 0 0 1 .564-.089c.144.072 14.54 7.173 27.778 10.59 15.695 4.05 22.477 4.875 37.65 5.61 10.953.53 22.57 2.007 29.596 3.763 6.442 1.61 9.997 2.748 10.032 2.76a.5.5 0 0 1 .344.422c.006.057.632 5.773 1.37 9.584.752 3.89.638 6.153.632 6.247a.498.498 0 0 1-.697.432M308.3 339.422c5.595 2.098 16.503 5.941 26.678 8.103 9.332 1.984 18.877 2.545 25.195 2.917l2.55.152c6.325.372 15.882.933 25.126 2.805 7.852 1.591 12.312 3.148 13.899 3.755-.017-.92-.117-2.721-.615-5.295-.646-3.334-1.202-8.085-1.345-9.34-.946-.292-4.268-1.296-9.66-2.644-6.968-1.742-18.509-3.209-29.403-3.736-15.251-.738-22.07-1.568-37.851-5.64-11.142-2.876-23.05-8.32-26.768-10.083l3.856 9.034c1.863 4.554 2.445 7.036 2.6 7.82z" style="fill:#231f20;fill-opacity:1;fill-rule:nonzero;stroke:none" transform="matrix(1.96333 0 0 -1.96333 -298.89 1198.826)"></path><path d="M287.75 304.015s17.25 10.5 35.75 16c11.86 3.525 24.875 6.5 34.875 7.25s21.75 1.375 28.75 2.75 12.375 3.125 12.375 3.125.125-7 .125-10.375v-7s-7.845-2.313-19.25-3.25c-9.125-.75-20.75-1.375-32-3.5s-25.25-5.75-37.25-11.25-18.75-9.75-23.75-12.75-12-4.75-15.5-5.125l-3.5-.375s6.25 6.375 10.375 11.5 9 13 9 13" style="fill:#ed1b29;fill-opacity:1;fill-rule:nonzero;stroke:none" transform="matrix(1.96333 0 0 -1.96333 -298.89 1198.826)"></path><path d="M399.346 333.615c-.054-.017-5.431-1.757-12.318-3.11-5.666-1.112-14.458-1.732-22.96-2.33l-5.73-.411c-9.08-.682-21.502-3.263-34.98-7.27-18.35-5.456-35.695-15.947-35.868-16.053a.5.5 0 0 1-.165-.164c-.049-.078-4.907-7.907-8.965-12.949-4.062-5.047-10.28-11.4-10.342-11.464a.5.5 0 0 1 .41-.846l3.5.375c3.318.355 10.515 2.08 15.704 5.193l1.424.857c4.813 2.906 11.404 6.883 22.277 11.868 12.88 5.903 27.304 9.355 37.135 11.212 9.297 1.756 18.731 2.476 27.054 3.11l4.894.384c11.325.93 19.271 3.245 19.35 3.268a.5.5 0 0 1 .359.48v7L400 333.148a.497.497 0 0 1-.654.467m-75.703-14.08c13.412 3.987 25.76 6.556 34.77 7.23l5.725.413c8.533.6 17.357 1.221 23.084 2.346a122 122 0 0 1 11.786 2.939l.117-9.698v-6.621c-1.616-.443-8.88-2.317-18.791-3.131l-4.888-.382c-8.35-.637-17.812-1.359-27.164-3.125-9.886-1.867-24.393-5.34-37.365-11.287-10.926-5.007-17.544-9.002-22.377-11.92l-1.422-.856c-5.052-3.03-12.063-4.71-15.296-5.056l-2.13-.228c1.907 1.985 6.302 6.634 9.448 10.542 3.955 4.914 8.606 12.36 8.97 12.946 1.067.642 17.81 10.62 35.533 15.888" style="fill:#231f20;fill-opacity:1;fill-rule:nonzero;stroke:none" transform="matrix(1.96333 0 0 -1.96333 -298.89 1198.826)" data-source="https://football-logos.cc"></path><path d="M231.25 225.64c5.625.375 13.565 5.696 20.125 11.125 10.875 9 23.75 16.75 48.875 29.25 21.321 10.607 63.25 21 75.75 22.75 9.08 1.271 26.25 4.125 26.25 4.125l-1.75 12.875s-16.207-1.61-29.375-3.875C351.5 298.515 319.85 290.027 298 280.265c-29.375-13.125-46.5-26-46.5-26s-5.375-8.875-10.875-16.375-9.375-12.25-9.375-12.25" style="fill:#ed1b29;fill-opacity:1;fill-rule:nonzero;stroke:none" transform="matrix(1.96333 0 0 -1.96333 -298.89 1198.826)"></path><path d="M400.45 306.262c-.162-.016-16.375-1.638-29.41-3.88-20.007-3.44-51.59-11.986-73.244-21.661-29.09-12.997-46.425-25.928-46.596-26.057a.5.5 0 0 1-.128-.14c-.053-.088-5.427-8.943-10.85-16.338-5.429-7.403-9.32-12.183-9.36-12.23a.5.5 0 0 1 .421-.815c6.14.409 14.489 6.338 20.41 11.239 11.005 9.106 23.77 16.744 48.78 29.187 21.091 10.494 62.86 20.92 75.596 22.703 8.983 1.257 26.091 4.098 26.263 4.126a.5.5 0 0 1 .413.561l-1.75 12.875a.5.5 0 0 1-.545.43m-102.246-26.453c21.578 9.641 53.06 18.158 73.006 21.587 11.8 2.03 26.18 3.547 28.86 3.822.116-.854 1.502-11.057 1.62-11.914-2.738-.453-17.594-2.9-25.76-4.044-12.785-1.79-54.72-12.259-75.903-22.798-25.087-12.48-37.902-20.151-48.97-29.313-7.525-6.225-14.045-9.993-18.614-10.822a364 364 0 0 1 8.585 11.267c5.314 7.246 10.538 15.816 10.847 16.326.847.629 17.94 13.203 46.33 25.889" style="fill:#231f20;fill-opacity:1;fill-rule:nonzero;stroke:none" transform="matrix(1.96333 0 0 -1.96333 -298.89 1198.826)"></path><path d="M414 400.64s-16.625 17.75-43.5 34.125c-15.604 9.507-39.125 19.25-39.125 19.25s.375 1.375.625 5.25.25 6.5.25 6.5 24.475-9.368 46.75-23c22.875-14 41.625-33 41.625-33s-.75-3.25-2.5-5.375-4.125-3.75-4.125-3.75" style="fill:#fff;fill-opacity:1;fill-rule:nonzero;stroke:none" transform="matrix(1.96333 0 0 -1.96333 -298.89 1198.826)"></path><path d="M331.967 466.177a.5.5 0 0 1-.217-.412c0-.026-.003-2.656-.249-6.468-.242-3.752-.605-5.138-.608-5.152a.5.5 0 0 1 .29-.592c.236-.097 23.665-9.837 39.057-19.215 26.502-16.149 43.229-33.863 43.395-34.04a.5.5 0 0 1 .647-.071c.1.068 2.454 1.69 4.229 3.845 1.804 2.19 2.57 5.443 2.601 5.58a.5.5 0 0 1-.132.464c-.187.19-19.054 19.204-41.72 33.075-22.059 13.5-46.586 22.947-46.831 23.04a.5.5 0 0 1-.462-.054m.532-6.945a121 121 0 0 1 .241 5.803c3.918-1.543 25.953-10.429 46-22.697 21.424-13.112 39.412-30.814 41.328-32.724-.208-.774-.944-3.224-2.329-4.907-1.304-1.584-2.977-2.89-3.68-3.407-2.313 2.395-18.559 18.818-43.3 33.891-14.403 8.777-35.768 17.848-38.81 19.125.13.653.37 2.13.55 4.916" style="fill:#231f20;fill-opacity:1;fill-rule:nonzero;stroke:none" transform="matrix(1.96333 0 0 -1.96333 -298.89 1198.826)"></path><path d="M402 393.015s-9.115 9.615-29.875 22.875c-19.375 12.375-41.875 21.375-41.875 21.375l-.125-15.75s21.25-8.25 33.5-16.75 19.5-17.125 19.5-17.125 5.5.75 10 2.125 8.875 3.25 8.875 3.25" style="fill:#fff;fill-opacity:1;fill-rule:nonzero;stroke:none" transform="matrix(1.96333 0 0 -1.96333 -298.89 1198.826)"></path><path d="M329.972 437.68a.5.5 0 0 1-.222-.411l-.125-15.75a.5.5 0 0 1 .32-.47c.211-.083 21.335-8.327 33.395-16.695 12.048-8.36 19.33-16.95 19.402-17.037a.5.5 0 0 1 .45-.172c.056.007 5.592.77 10.08 2.141 4.473 1.367 8.881 3.25 8.925 3.269.15.064.26.198.292.358a.5.5 0 0 1-.126.445c-.092.097-9.395 9.812-29.968 22.953-19.194 12.258-41.734 21.328-41.96 21.418a.5.5 0 0 1-.463-.05m.772-1.157c3.76-1.548 23.782-9.985 41.111-21.054 17.788-11.36 27.082-20.12 29.266-22.278-1.387-.57-4.735-1.906-8.142-2.947-3.853-1.178-8.506-1.901-9.655-2.07-1.154 1.327-8.254 9.259-19.414 17.003-11.353 7.878-30.608 15.62-33.282 16.678z" style="fill:#231f20;fill-opacity:1;fill-rule:nonzero;stroke:none" transform="matrix(1.96333 0 0 -1.96333 -298.89 1198.826)"></path><path d="M262.42 492.573c-10.87-9.427-16.496-23.359-15.046-37.267 1.515-14.54 10.541-25.444 24.145-29.17 16.11-4.41 31.71 8.011 32.366 8.542 3.21 2.598 3.705 7.294 1.119 10.515-2.585 3.222-7.3 3.737-10.532 1.164-2.847-2.266-11.81-7.719-18.992-5.753-7.518 2.06-12.325 7.984-13.187 16.256-.942 9.044 2.779 18.158 9.954 24.38 5.483 4.755 11.645 6.055 18.837 3.977 6.855-1.98 10.078-9.754 10.11-9.832 1.548-3.817 5.896-5.7 9.725-4.182 3.83 1.518 5.73 5.81 4.242 9.651-.231.6-5.838 14.706-19.912 18.773-12.117 3.502-23.468 1.062-32.83-7.054" style="fill:#fff;fill-opacity:1;fill-rule:nonzero;stroke:none" transform="matrix(1.96333 0 0 -1.96333 -298.89 1198.826)"></path><path d="M262.092 492.95c-10.994-9.534-16.682-23.626-15.215-37.696 1.537-14.752 10.7-25.817 24.51-29.6 16.35-4.475 32.148 8.098 32.812 8.636 3.41 2.758 3.946 7.79 1.195 11.216-2.75 3.427-7.789 3.984-11.233 1.243-2.793-2.223-11.569-7.573-18.549-5.662-7.308 2-11.982 7.769-12.822 15.825-.925 8.881 2.732 17.835 9.785 23.95 5.344 4.635 11.354 5.902 18.37 3.875 6.567-1.898 9.755-9.466 9.787-9.543 1.65-4.068 6.303-6.068 10.372-4.456 4.068 1.613 6.097 6.232 4.523 10.297-.234.608-5.92 14.935-20.24 19.073-12.286 3.55-23.8 1.076-33.295-7.157m33.018 6.196c13.849-4.002 19.357-17.884 19.584-18.473 1.377-3.555-.398-7.596-3.96-9.006-3.56-1.41-7.63.34-9.077 3.905-.136.332-3.41 8.095-10.434 10.125-7.368 2.129-13.683.793-19.304-4.08-7.298-6.33-11.083-15.604-10.123-24.81.885-8.488 5.824-14.57 13.553-16.686 7.38-2.02 16.531 3.533 19.435 5.844 3.014 2.4 7.424 1.913 9.83-1.086 2.407-2.998 1.939-7.4-1.044-9.813-.648-.525-16.058-12.79-31.92-8.448-13.396 3.67-22.286 14.412-23.779 28.738-1.433 13.747 4.129 27.518 14.877 36.838 9.226 8 20.417 10.404 32.362 6.952" style="fill:#231f20;fill-opacity:1;fill-rule:nonzero;stroke:none" transform="matrix(1.96333 0 0 -1.96333 -298.89 1198.826)"></path><path d="M275.834 419.39s-13.67 3.36-22.5 7.166c-9.667 4.167-18 9.667-18 9.667s-.334-4.333-1.667-12c-1.334-7.666-5-21-5-21s6.666 5.335 21.333 10c14.667 4.667 25.834 6.167 25.834 6.167" style="fill:#fff;fill-opacity:1;fill-rule:nonzero;stroke:none" transform="matrix(1.96333 0 0 -1.96333 -298.89 1198.826)"></path><path d="M235.114 436.672a.5.5 0 0 1-.279-.41c-.003-.044-.348-4.404-1.661-11.953-1.314-7.555-4.953-20.82-4.99-20.953a.5.5 0 0 1 .794-.523c.067.053 6.784 5.337 21.173 9.914 14.452 4.598 25.638 6.132 25.749 6.148a.499.499 0 0 1 .053.98c-.137.034-13.73 3.394-22.422 7.14-9.512 4.1-17.84 9.57-17.922 9.626a.5.5 0 0 1-.495.031m-.955-12.534c.993 5.71 1.436 9.614 1.597 11.221 2.132-1.355 9.299-5.778 17.38-9.262 6.587-2.84 15.942-5.453 20.246-6.592-4.053-.694-12.908-2.425-23.534-5.805-11.409-3.63-17.891-7.58-20.332-9.252.964 3.596 3.57 13.52 4.643 19.69M271.288 379.877c-24.91-13.439-47.026-46.91-41.103-84.885 4.936-31.652 18.605-43.431 19.185-43.918l1.93 2.297c-.134.112-13.406 11.658-18.152 42.084-5.707 36.598 15.583 68.844 39.564 81.781 24.508 13.222 51.666 6.927 51.937 6.863l.703 2.916c-1.153.278-28.519 6.643-54.064-7.138" style="fill:#231f20;fill-opacity:1;fill-rule:nonzero;stroke:none" transform="matrix(1.96333 0 0 -1.96333 -298.89 1198.826)"></path><path d="M210.72 290.593c-9.349-4.192-21.466-5.866-21.588-5.883l.402-2.973c.513.07 12.66 1.746 22.413 6.117 9.647 4.325 19.413 10.368 19.51 10.428l-1.582 2.549c-.095-.06-9.696-5.999-19.155-10.238M265.255 417.382c.032-.09 3.23-9.03 4.596-18.05 1.628-10.75 1.649-20.017 1.649-20.108h3c0 .094-.019 9.573-1.684 20.557-1.411 9.319-4.603 18.241-4.738 18.617zM250.306 401.887c-.953-.498-23.517-12.44-37.572-34.525-16.996-26.709-12.417-55.508-12.213-56.72a1.5 1.5 0 0 1 2.958.495c-.047.286-4.573 28.906 11.787 54.614 13.61 21.388 36.202 33.357 36.428 33.476a1.501 1.501 0 0 1-1.388 2.66" style="fill:#231f20;fill-opacity:1;fill-rule:nonzero;stroke:none" transform="matrix(1.96333 0 0 -1.96333 -298.89 1198.826)"></path><path d="M201.259 327.055c-6.923-.346-12.082-3.06-12.299-3.175a1.499 1.499 0 0 1 1.41-2.648c.048.025 4.814 2.516 11.038 2.827 6.393.319 12.9-.96 12.965-.973a1.5 1.5 0 0 1 .587 2.941c-.279.056-6.926 1.367-13.701 1.028M192.703 346.165a1.5 1.5 0 0 1 .648-2.93c.056.013 5.609 1.213 11.56.495 5.951-.717 11.256-3.3 11.31-3.327a1.5 1.5 0 0 1 1.325 2.692c-.233.115-5.8 2.833-12.276 3.614-6.477.781-12.323-.49-12.567-.544M201.055 364.527a1.5 1.5 0 0 1 1.482-1.514c.029 0 2.942-.058 8.487-1.695 5.561-1.641 11.17-5.57 11.225-5.61a1.5 1.5 0 0 1 1.73 2.451c-.244.172-6.06 4.252-12.106 6.036-6.011 1.776-9.179 1.817-9.31 1.818a1.5 1.5 0 0 1-1.508-1.486M213.895 382.647a1.5 1.5 0 0 1 1.014-1.862c.054-.016 5.427-1.628 9.13-4.714 3.798-3.164 6.39-6.695 6.415-6.73a1.5 1.5 0 0 1 2.426 1.764c-.114.157-2.824 3.858-6.92 7.271-4.19 3.492-9.96 5.215-10.203 5.287a1.5 1.5 0 0 1-1.862-1.016M230.107 397.085a1.5 1.5 0 0 1 .364-2.089c.031-.021 3.167-2.257 5.962-6.293 2.914-4.209 5.223-8.482 5.246-8.524a1.5 1.5 0 1 1 2.642 1.422c-.097.18-2.408 4.458-5.421 8.81-3.117 4.501-6.561 6.94-6.706 7.041a1.5 1.5 0 0 1-2.087-.367M245.768 405.09a1.5 1.5 0 0 1-.302-2.1c.02-.026 1.974-2.654 4.544-7.472 2.554-4.789 3.868-9.329 3.881-9.373a1.5 1.5 0 0 1 2.885.824c-.056.196-1.408 4.879-4.119 9.96-2.69 5.045-4.706 7.748-4.79 7.861a1.5 1.5 0 0 1-2.1.3" style="fill:#231f20;fill-opacity:1;fill-rule:nonzero;stroke:none" transform="matrix(1.96333 0 0 -1.96333 -298.89 1198.826)"></path><path d="M181.104 319.056c0-37.52 20.577-71.815 53.702-89.502l1.413 2.646c-32.146 17.165-52.115 50.446-52.115 86.856 0 54.257 44.14 98.397 98.397 98.397 27.068 0 52.296-10.764 71.035-30.308l2.166 2.076c-19.311 20.14-45.307 31.232-73.201 31.232-55.91 0-101.397-45.486-101.397-101.397M282.501 220.658a98.6 98.6 0 0 0-26.674 3.658l-.811-2.888a101.6 101.6 0 0 1 27.485-3.77c35.884 0 69.443 19.263 87.584 50.27l-2.59 1.516c-17.603-30.092-50.172-48.786-84.994-48.786" style="fill:#231f20;fill-opacity:1;fill-rule:nonzero;stroke:none" transform="matrix(1.96333 0 0 -1.96333 -298.89 1198.826)"></path><path d="M224.366 569.582a1.5 1.5 0 0 1-.726-1.992c.16-.344 15.98-35.074 13.528-91.635-2.25-51.9-9.863-71.947-9.94-72.143a1.499 1.499 0 1 1 2.793-1.095c.32.815 7.868 20.587 10.144 73.108.178 4.102.26 8.091.26 11.963 0 29.533-4.797 52.164-8.79 65.934 5.847-8.875 14.773-20.245 26.486-28.714 19-13.738 33.248-19.65 51.44-25.219 15.234-4.664 32.286-13.631 44.502-23.404l11.31-9.212c4.614-3.811 6.93-5.724 9.538-7.245 1.028-.6 2.479-.968 4.487-1.477 4.786-1.213 12.795-3.243 21.988-10.724 13.632-11.095 19.447-20.118 19.447-30.17 0-2.389-.91-5.478-2.316-9.154-.084-.11-.204-.185-.255-.321-.06-.158-6.417-15.876-40.098-19.702-8.374-.951-14.38-.13-20.74.74-4.571.623-9.299 1.27-15.091 1.27-25.577 0-34.11-19.384-34.145-19.58l-.437-2.604c-1.686-10.14-4.507-27.113-15.125-51.38-11.378-26.007-34.997-45.243-35.234-45.434a1.5 1.5 0 0 1-.458-.63c-.034-.085-3.362-8.694-8.256-17.83-5.098-9.516-17.26-24.906-21.473-29.721-2.463-2.814-4.015-5.189-3.584-7.63.376-2.133 2.111-3.872 5.99-6.006 6.378-3.508 14.2-1.995 16.783.588l1.696 2.012c4.198 5.186 15.348 18.965 33.994 29.75 29.876 17.281 59 25.848 86.562 25.465 15.302-.213 22.645 1.553 28.06 6.752 8.5 8.16 7.833 13.289 6.622 22.6l-.173 1.338c-3.92 30.64-1.987 55.21 6.266 79.664 2.661 7.885 5.58 14.64 8.156 20.6 3.495 8.089 6.256 14.477 6.256 19.213 0 11.052-6.146 20.77-20.553 32.497-9.707 7.9-18.119 10.031-23.145 11.305-1.636.415-3.05.773-3.712 1.16-2.398 1.398-4.65 3.26-9.14 6.967l-11.346 9.242c-12.493 9.993-29.926 19.163-45.498 23.93-17.89 5.476-31.898 11.286-50.56 24.78-21.088 15.249-33.399 41.162-33.52 41.422a1.5 1.5 0 0 1-1.993.722m154.136-184.183c19.282 2.19 30.03 8.107 35.923 13.207-2.501-5.79-5.28-12.298-7.846-19.903-5.634-16.69-8.378-33.415-8.378-51.997 0-9.146.665-18.743 1.978-29.007l.174-1.345c.381-2.936.692-5.32.692-7.44 0-4.483-1.388-7.78-6.417-12.608-4.759-4.569-11.547-6.117-25.94-5.916-28.112.39-57.754-8.313-88.105-25.868-19.128-11.063-30.532-25.156-34.825-30.46l-1.485-1.778c-1.418-1.418-7.625-3.155-13.217-.08-2.866 1.576-4.29 2.816-4.48 3.899q-.025.135-.025.283c0 1.05.916 2.57 2.911 4.85 4.28 4.89 16.647 20.548 21.86 30.28 4.442 8.29 7.6 16.116 8.266 17.798 2.871 2.397 24.829 21.263 35.786 46.308 10.768 24.61 13.628 41.814 15.336 52.093 0 0 .36 2.137.407 2.424.4.862 8.464 17.25 31.216 17.25 5.588 0 10.213-.631 14.686-1.243 6.55-.895 12.737-1.74 21.483-.747" style="fill:#231f20;fill-opacity:1;fill-rule:nonzero;stroke:none" transform="matrix(1.96333 0 0 -1.96333 -298.89 1198.826)" data-source="https://football-logos.cc"></path><!-- source: https://football-logos.cc --></svg>