<svg xmlns="http://www.w3.org/2000/svg" viewBox="0 -0.01 35.72 48"><!-- Source: https://football-logos.cc --><defs data-source="https://football-logos.cc"><radialGradient id="a" cx="0" cy="0" r="1" gradientTransform="matrix(25.995 0 0 26.048 61.545 132.38)" gradientUnits="userSpaceOnUse"><stop offset="0" stop-color="#DAD8D8"></stop><stop offset=".59" stop-color="#DBD9D9"></stop><stop offset=".8" stop-color="#E1E0E0"></stop><stop offset=".95" stop-color="#ECECEC"></stop><stop offset="1" stop-color="#F2F2F2"></stop></radialGradient><radialGradient id="b" cx="0" cy="0" r="1" gradientTransform="matrix(18.896 10.289 -12.425 22.91 49.554 148.94)" gradientUnits="userSpaceOnUse"><stop offset="0" stop-color="#DAD8D8" stop-opacity="0"></stop><stop offset=".16" stop-color="#D1CFCF" stop-opacity=".04"></stop><stop offset=".21" stop-color="#CFCDCD" stop-opacity=".07"></stop><stop offset=".25" stop-color="#CCCACA" stop-opacity=".13"></stop><stop offset=".29" stop-color="#C7C5C5" stop-opacity=".25"></stop><stop offset=".33" stop-color="#C0BEBE" stop-opacity=".41"></stop><stop offset=".37" stop-color="#B7B5B5" stop-opacity=".62"></stop><stop offset=".41" stop-color="#ACAAAA" stop-opacity=".87"></stop><stop offset=".43" stop-color="#A6A4A4"></stop><stop offset=".52" stop-color="#F2F2F2"></stop><stop offset=".59" stop-color="#F3F3F3"></stop><stop offset=".61" stop-color="#fff"></stop><stop offset=".63" stop-color="#E9E8E8"></stop><stop offset=".66" stop-color="#E6E5E5" stop-opacity=".82"></stop><stop offset=".71" stop-color="#E3E1E1" stop-opacity=".61"></stop><stop offset=".75" stop-color="#E0DEDE" stop-opacity=".42"></stop><stop offset=".8" stop-color="#DEDCDC" stop-opacity=".27"></stop><stop offset=".84" stop-color="#DCDADA" stop-opacity=".15"></stop><stop offset=".89" stop-color="#DBD9D9" stop-opacity=".07"></stop><stop offset=".94" stop-color="#DAD8D8" stop-opacity=".02"></stop><stop offset=".99" stop-color="#DAD8D8" stop-opacity="0"></stop></radialGradient><radialGradient id="c" cx="0" cy="0" r="1" gradientTransform="matrix(6.6754 0 0 6.6889 63.341 151.67)" gradientUnits="userSpaceOnUse"><stop offset="0" stop-color="#F2F2F2"></stop><stop offset=".62" stop-color="#DAD8D8"></stop><stop offset="1" stop-color="#A6A4A4"></stop></radialGradient><radialGradient id="d" cx="0" cy="0" r="1" gradientTransform="matrix(8.5141 0 0 8.5312 63.375 132.42)" gradientUnits="userSpaceOnUse"><stop offset="0" stop-color="#A6A4A4"></stop><stop offset=".5" stop-color="#817E7D"></stop><stop offset="1" stop-color="#363432"></stop></radialGradient><radialGradient id="e" cx="0" cy="0" r="1" gradientTransform="matrix(22.058 0 0 22.103 67.345 143.28)" gradientUnits="userSpaceOnUse"><stop offset="0" stop-color="#F2F2F2"></stop><stop offset=".37" stop-color="#DAD8D8"></stop><stop offset=".72" stop-color="#A6A4A4"></stop><stop offset="1" stop-color="#363432"></stop></radialGradient><radialGradient id="f" cx="0" cy="0" r="1" gradientTransform="matrix(13.517 0 0 13.544 67.064 137.91)" gradientUnits="userSpaceOnUse"><stop offset="0" stop-color="#DAD8D8"></stop><stop offset=".5" stop-color="#817E7D"></stop><stop offset="1" stop-color="#363432"></stop></radialGradient><radialGradient id="g" cx="0" cy="0" r="1" gradientTransform="matrix(9.8939 0 0 9.9138 64.721 135.45)" gradientUnits="userSpaceOnUse"><stop offset="0" stop-color="#A6A4A4"></stop><stop offset=".5" stop-color="#817E7D"></stop><stop offset="1" stop-color="#363432"></stop></radialGradient><radialGradient id="h" cx="0" cy="0" r="1" gradientTransform="matrix(12.261 0 0 12.286 66.503 137.11)" gradientUnits="userSpaceOnUse"><stop offset="0" stop-color="#DAD8D8"></stop><stop offset=".3" stop-color="#A6A4A4"></stop><stop offset=".7" stop-color="#817E7D"></stop><stop offset="1" stop-color="#363432"></stop></radialGradient><radialGradient id="i" cx="0" cy="0" r="1" gradientTransform="matrix(6.292 0 0 6.3046 67.218 130.38)" gradientUnits="userSpaceOnUse"><stop offset="0" stop-color="#A6A4A4"></stop><stop offset=".2" stop-color="#817E7D"></stop><stop offset="1" stop-color="#363432"></stop></radialGradient><radialGradient id="j" cx="0" cy="0" r="1" gradientTransform="matrix(25.479 0 0 25.53 55.404 144.26)" gradientUnits="userSpaceOnUse"><stop offset="0" stop-color="#DAD8D8"></stop><stop offset=".3" stop-color="#A6A4A4"></stop><stop offset=".7" stop-color="#817E7D"></stop><stop offset="1" stop-color="#363432"></stop></radialGradient><radialGradient id="k" cx="0" cy="0" r="1" gradientTransform="matrix(13.647 0 0 13.674 72.912 154.37)" gradientUnits="userSpaceOnUse"><stop offset="0" stop-color="#DAD8D8"></stop><stop offset=".3" stop-color="#A6A4A4"></stop><stop offset=".7" stop-color="#817E7D"></stop><stop offset="1" stop-color="#363432"></stop></radialGradient><radialGradient id="l" cx="0" cy="0" r="1" gradientTransform="matrix(20.585 0 0 20.626 68.22 126.46)" gradientUnits="userSpaceOnUse"><stop offset="0" stop-color="#DAD8D8" stop-opacity="0"></stop><stop offset=".08" stop-color="#D1CFCF" stop-opacity=".04"></stop><stop offset=".1" stop-color="#C9C7C7" stop-opacity=".04"></stop><stop offset=".27" stop-color="#A6A4A4" stop-opacity="0"></stop><stop offset=".46" stop-color="#F2F2F2"></stop><stop offset=".51" stop-color="#F0F0F0"></stop><stop offset=".53" stop-color="#EAE9E9"></stop><stop offset=".54" stop-color="#DFDDDD"></stop><stop offset=".55" stop-color="#DAD8D8"></stop><stop offset=".67" stop-color="#DAD8D8"></stop><stop offset=".8" stop-color="#F2F2F2"></stop><stop offset=".99" stop-color="#F2F2F2" stop-opacity="0"></stop></radialGradient><radialGradient id="m" cx="0" cy="0" r="1" gradientTransform="matrix(14.22 0 0 14.249 66.907 122.39)" gradientUnits="userSpaceOnUse"><stop offset="0" stop-color="#DAD8D8" stop-opacity="0"></stop><stop offset=".17" stop-color="#D1CFCF" stop-opacity=".04"></stop><stop offset=".19" stop-color="#C4C2C2" stop-opacity=".32"></stop><stop offset=".23" stop-color="#B7B5B5" stop-opacity=".61"></stop><stop offset=".25" stop-color="#ADABAB" stop-opacity=".82"></stop><stop offset=".28" stop-color="#A8A6A6" stop-opacity=".95"></stop><stop offset=".29" stop-color="#A6A4A4"></stop><stop offset=".51" stop-color="#F2F2F2"></stop><stop offset=".54" stop-color="#F3F3F3"></stop><stop offset=".55" stop-color="#fff"></stop><stop offset=".71" stop-color="#DAD8D8"></stop><stop offset=".99" stop-color="#DAD8D8" stop-opacity="0"></stop></radialGradient><radialGradient id="n" cx="0" cy="0" r="1" gradientTransform="matrix(9.8154 0 0 9.8351 67.843 126.84)" gradientUnits="userSpaceOnUse"><stop offset=".31" stop-color="#F2F2F2"></stop><stop offset=".57" stop-color="#DAD8D8"></stop><stop offset="1" stop-color="#817E7D" stop-opacity=".5"></stop></radialGradient><radialGradient id="o" cx="0" cy="0" r="1" gradientTransform="matrix(17.652 -3.5632 2.9871 14.857 63.362 134.02)" gradientUnits="userSpaceOnUse"><stop offset="0" stop-color="#DAD8D8" stop-opacity="0"></stop><stop offset=".16" stop-color="#D1CFCF" stop-opacity=".04"></stop><stop offset=".42" stop-color="#BFBDBD" stop-opacity=".03"></stop><stop offset=".56" stop-color="#A6A4A4" stop-opacity="0"></stop><stop offset=".61" stop-color="#DAD8D8"></stop><stop offset=".63" stop-color="#DEDCDC" stop-opacity=".71"></stop><stop offset=".64" stop-color="#E2E0E0" stop-opacity=".46"></stop><stop offset=".66" stop-color="#E5E3E3" stop-opacity=".26"></stop><stop offset=".67" stop-color="#E7E6E6" stop-opacity=".12"></stop><stop offset=".68" stop-color="#E8E7E7" stop-opacity=".03"></stop><stop offset=".69" stop-color="#E9E8E8" stop-opacity=".06"></stop><stop offset=".7" stop-color="#E9E8E8" stop-opacity=".25"></stop><stop offset=".71" stop-color="#E9E8E8" stop-opacity=".4"></stop><stop offset=".72" stop-color="#E9E8E8" stop-opacity=".58"></stop><stop offset=".73" stop-color="#E9E8E8" stop-opacity=".6"></stop><stop offset=".74" stop-color="#E7E6E6" stop-opacity=".54"></stop><stop offset=".78" stop-color="#E3E2E2" stop-opacity=".38"></stop><stop offset=".81" stop-color="#E0DEDE" stop-opacity=".24"></stop><stop offset=".85" stop-color="#DDDBDB" stop-opacity=".13"></stop><stop offset=".89" stop-color="#DBD9D9" stop-opacity=".06"></stop><stop offset=".94" stop-color="#DAD8D8" stop-opacity=".01"></stop><stop offset=".99" stop-color="#DAD8D8" stop-opacity="0"></stop></radialGradient><radialGradient id="p" cx="0" cy="0" r="1" gradientTransform="matrix(13.462 -9.5227 7.2227 10.252 62.913 134.29)" gradientUnits="userSpaceOnUse"><stop offset="0" stop-color="#DAD8D8" stop-opacity="0"></stop><stop offset=".16" stop-color="#D1CFCF" stop-opacity=".04"></stop><stop offset=".2" stop-color="#CFCDCD" stop-opacity=".07"></stop><stop offset=".24" stop-color="#CCCACA" stop-opacity=".13"></stop><stop offset=".28" stop-color="#C7C5C5" stop-opacity=".25"></stop><stop offset=".31" stop-color="#C0BEBE" stop-opacity=".41"></stop><stop offset=".35" stop-color="#B7B5B5" stop-opacity=".62"></stop><stop offset=".38" stop-color="#ACAAAA" stop-opacity=".87"></stop><stop offset=".4" stop-color="#A6A4A4"></stop><stop offset=".56" stop-color="#F2F2F2"></stop><stop offset=".6" stop-color="#F3F3F3"></stop><stop offset=".61" stop-color="#FAFAFA"></stop><stop offset=".62" stop-color="#fff"></stop><stop offset=".63" stop-color="#EBEAEA"></stop><stop offset=".65" stop-color="#DAD8D8"></stop><stop offset=".66" stop-color="#DEDCDC" stop-opacity=".71"></stop><stop offset=".68" stop-color="#E2E0E0" stop-opacity=".46"></stop><stop offset=".69" stop-color="#E5E3E3" stop-opacity=".26"></stop><stop offset=".71" stop-color="#E7E6E6" stop-opacity=".12"></stop><stop offset=".72" stop-color="#E9E8E8" stop-opacity="0"></stop><stop offset=".99" stop-color="#DAD8D8" stop-opacity="0"></stop></radialGradient></defs><path fill="#181210" d="M0 41.14h1.015v-1.178h.73l.26-.713h-.99v-.66h1.23l.26-.71H0zM7.816 40.07l.392-1.359.406 1.359zm.936-2.197H7.696l-1.188 3.262h1l.127-.438h1.147l.133.438H9.94zM2.815 41.14H3.83v-3.262H2.815zM5.544 39.24v-.66h1.23l.26-.71H4.528v3.26h1.015v-1.177h.731l.26-.713zM31.833 39.75q0 .163-.026.306a.8.8 0 0 1-.088.252q-.064.11-.171.173c-.107.063-.164.063-.276.063a.464.464 0 0 1-.447-.236.8.8 0 0 1-.088-.252 2 2 0 0 1-.025-.306v-1.88h-.87v2.025q0 .336.103.58.103.242.292.401t.453.236q.264.078.582.078t.582-.078.453-.236.293-.402.103-.579v-2.024h-.87zM34.805 39.14a.4.4 0 0 1-.114.14.44.44 0 0 1-.171.075 1 1 0 0 1-.21.021h-.225v-.888h.225q.111 0 .21.021a.5.5 0 0 1 .17.073q.073.051.115.135a.5.5 0 0 1 .042.21.5.5 0 0 1-.042.213m.556-1.01q-.355-.26-1.107-.259h-1.038v3.263h.87v-1.141h.336q.612 0 .953-.278.342-.278.342-.774 0-.55-.356-.81M29.061 40.5q-.21.049-.425.049-.24 0-.44-.07a.95.95 0 0 1-.343-.203.95.95 0 0 1-.225-.325 1.1 1.1 0 0 1-.081-.43q0-.23.072-.423.073-.194.206-.334a.75.75 0 0 1 .32-.22q.188-.08.42-.08.225 0 .433.057.208.055.419.172l.07-.705a6 6 0 0 0-.477-.12 2.5 2.5 0 0 0-.49-.049q-.403 0-.747.105t-.593.319q-.25.212-.39.532t-.14.746q0 .463.17.783t.44.516c.27.196.38.226.602.285q.334.09.662.09.33 0 .556-.043.225-.042.411-.089l-.042-.682a3 3 0 0 1-.388.119M23.919 40.34a.35.35 0 0 1-.15.115.7.7 0 0 1-.21.05 2 2 0 0 1-.233.012h-.258v-.766h.267q.112 0 .227.011a.8.8 0 0 1 .205.05q.09.038.15.117a.35.35 0 0 1 .058.21.33.33 0 0 1-.056.201m-.85-1.851h.252q.107 0 .21.01.104.009.182.041a.24.24 0 0 1 .13.099.3.3 0 0 1 .048.177.28.28 0 0 1-.051.17.34.34 0 0 1-.134.106q-.081.037-.184.054c-.103.017-.139.016-.21.016h-.244zm1.116.981v-.009q.277-.093.426-.273c.149-.18.15-.283.15-.489q0-.21-.08-.366a.56.56 0 0 0-.222-.258 1 1 0 0 0-.336-.152 1.7 1.7 0 0 0-.423-.051h-1.501v3.262h1.374q.22 0 .447-.037.226-.037.409-.142a.9.9 0 0 0 .299-.288.87.87 0 0 0 .117-.477q0-.584-.66-.72M19.661 39.82l.42-1.276h.01l.388 1.276zm.963-1.95h-1.066l-1.239 3.263h.884l.257-.696h1.224l.244.696h.953zM17.119 39.06a.4.4 0 0 1-.152.113.6.6 0 0 1-.205.044 3 3 0 0 1-.218.007h-.229v-.739h.23q.125 0 .24.014t.201.052q.087.037.14.11c.053.073.054.11.054.184q0 .14-.061.215m.767 1.183q-.061-.15-.101-.269a1 1 0 0 0-.086-.21.6.6 0 0 0-.11-.152.4.4 0 0 0-.166-.09v-.008q.319-.075.472-.285a.9.9 0 0 0 .154-.538.8.8 0 0 0-.082-.364.7.7 0 0 0-.226-.258 1 1 0 0 0-.337-.152 1.6 1.6 0 0 0-.406-.049h-1.552v3.263h.869v-1.29h.182q.122 0 .209.03.086.03.154.11c.068.08.087.125.126.215q.058.136.124.346l.187.589h.906zM12.908 39.82l.42-1.276h.01l.388 1.276zm.963-1.95h-1.066l-1.239 3.263h.884l.257-.696h1.224l.243.696h.954zM29.668 45.95l-.767-.001c.217-.196 1.567-1.443 1.567-2.054 0-.747-.552-1.168-1.256-1.168-.797 0-1.293.553-1.35 1.024l-.065.411.373.06c.239.037.404-.106.477-.333.088-.273.264-.383.509-.383.251 0 .542.165.49.465-.053.302-1.81 1.984-1.81 1.984 0 .453.366.816.817.816h1.831a.82.82 0 0 0-.816-.821M25.447 46.15c-.74 0-1.29-.555-1.29-1.308 0-.767.55-1.328 1.29-1.328s1.296.561 1.296 1.328c0 .753-.556 1.308-1.296 1.308m0-3.422a2.13 2.13 0 0 0-2.12 2.114c0 1.161.964 2.094 2.12 2.094 1.143 0 2.126-.933 2.126-2.094 0-1.163-.983-2.114-2.126-2.114M22.276 45.95l-.767-.001c.217-.196 1.567-1.443 1.567-2.054 0-.747-.552-1.168-1.255-1.168-.798 0-1.294.553-1.35 1.024l-.066.411.373.06c.239.037.404-.106.477-.333.088-.273.264-.383.51-.383.25 0 .541.165.489.465-.053.302-1.81 1.984-1.81 1.984 0 .453.366.816.817.816h1.831a.82.82 0 0 0-.816-.821M7.644 42.88l-1.626 3.897h.223c.788 0 .917-.664 1.19-1.369l.556-1.446.601 1.564c-.565-.316-.979-.183-1.152.444 0 0 .776.088 1.421.584.28.216.301.223.684.223h.444l-1.412-3.285a1.01 1.01 0 0 0-.929-.612M12.528 42.88h-2.457a.78.78 0 0 0-.78.78h1.067v3.117a.844.844 0 0 0 .844-.844V43.66h.982zM13.118 42.88l-1.626 3.897h.223c.789 0 .917-.664 1.19-1.369l.556-1.446.601 1.564c-.565-.316-.979-.183-1.152.444 0 0 .776.088 1.421.584.28.216.301.223.684.223h.444l-1.412-3.285a1.01 1.01 0 0 0-.929-.612M4.43 46.13c.202.185.35.428.417.702 1.026-.34 1.484-1.195 1.484-2.038 0-.93-.83-2.068-2.126-2.068-1.255 0-2.119 1.009-2.119 2.163 0 .855.64 1.738 1.608 1.982.097.621.595 1.128 1.242 1.123l-.298-1.149a1.24 1.24 0 0 0-.893-.887c-.369-.094-.83-.387-.83-1.119 0-.727.506-1.328 1.29-1.328.82 0 1.296.655 1.296 1.269 0 .61-.321 1.229-1.071 1.35M18.777 44.41c-.008-.853-.717-1.535-1.57-1.535H15.69l-.01 3.896a.843.843 0 0 0 .843-.845l-.003-2.286h.662c.4 0 .742.306.764.705.026.454-.267.8-.712.8l-.383.002s-.23.849.875 1.624h1.051s-.809-.565-.94-.977c.558-.224.946-.745.94-1.384M32.212 44.15c-.11.01-.267.042-.367.064l.028-.437.007-.123.151.001h.767c.341 0 .631-.212.754-.51a.8.8 0 0 0 .062-.271h-1.747a.815.815 0 0 0-.816.815l-.081 1.14h.69c.921-.21 1.268.257 1.169.767-.059.3-.348.538-.707.538-.246 0-.564-.116-.635-.44-.05-.235-.156-.373-.43-.373l-.335-.004-.004.362c-.023.475.604 1.24 1.414 1.24.762 0 1.364-.466 1.48-1.207.111-.705-.35-1.667-1.4-1.562" data-source="https://football-logos.cc"></path><g stroke-width=".784" data-source="https://football-logos.cc"><path fill="#dad8d8" d="M21.031 19.84c1.703-3.322 3.798-7.27 4.746-10.452.951-3.192-.284-8.846-7.853-9.393-4.734.127-6.883 2.108-7.765 4.292-.722 1.58-.625 3.268-.405 4.496.493 2.747 4.402 9.348 4.463 9.463.404.817 1.386 3.2 1.11 5.818a9 9 0 0 1-.044.363s-.049.302-.064.372c-.09.453-.214.91-.362 1.355-1.039 3.128-3.264 5.911-3.258 6.317.006.254.3.65.65.995.298.29.61.526.854.62 0 0 .078.03.115.037 1.008.208 2.765.36 5.072.36 3.061 0 6.376-.406 6.376-.984 0-.535-2.635-3.324-4.36-8.5-.126-1.422-.169-3.41.707-5.122zm-.92-6.928c-1.266 2.48-2.054 4.266-2.54 5.548-1.61-2.62-3.75-5.333-4.197-6.05-.537-.862-.842-1.655-.987-2.363-.507-2.892.975-4.468 4.387-5.7.23.055 1.977.49 3.288 1.707.755.702 1.606 1.8 1.117 4.05-.172.787-.504 1.71-1.066 2.811z"></path><path fill="url(#a)" d="M58.103 127.31c-.722 1.58-.625 3.267-.405 4.496.493 2.746 4.402 9.348 4.463 9.463.404.816 1.386 3.2 1.11 5.817a9 9 0 0 1-.044.363s-.049.303-.064.372c-.09.454-.214.91-.362 1.356-1.039 3.128-3.264 5.91-3.258 6.316.006.254.3.65.65.996.298.29.61.526.854.62 0 0 .078.03.115.036 1.008.209 2.765.36 5.072.36 3.061 0 6.376-.405 6.376-.983 0-.535-2.635-3.325-4.36-8.501-.658-1.933-1.624-4.804-2.732-6.54-1.61-2.62-3.75-5.334-4.197-6.051-.537-.862-.842-1.655-.987-2.363 0 0-1.971-5.542 6.645-8.11l-1.108-1.94c-4.737.127-6.886 2.109-7.768 4.293" transform="translate(-47.944 -123.02)"></path><path fill="url(#b)" d="M58.103 127.31c-.722 1.58-.625 3.267-.405 4.496.493 2.746 4.402 9.348 4.463 9.463.404.816 1.386 3.2 1.11 5.817a9 9 0 0 1-.044.363s-.049.303-.064.372c-.09.454-.214.91-.362 1.356-1.039 3.128-3.264 5.91-3.258 6.316.006.254.3.65.65.996.298.29.61.526.854.62 0 0 .078.03.115.036 1.008.209 2.765.36 5.072.36 3.061 0 6.376-.405 6.376-.983 0-.535-2.635-3.325-4.36-8.501-.658-1.933-1.624-4.804-2.732-6.54-1.61-2.62-3.75-5.334-4.197-6.051-.537-.862-.842-1.655-.987-2.363 0 0-1.971-5.542 6.645-8.11l-1.108-1.94c-4.737.127-6.886 2.109-7.768 4.293" transform="translate(-47.944 -123.02)"></path><path fill="url(#c)" d="M62.532 151.88c.269-1.25.595-3.198.728-4.674q-.015.119-.034.242s-.048.302-.063.372c-.09.454-.214.91-.362 1.355-1.039 3.128-3.264 5.912-3.258 6.317.006.254.299.65.65.995.298.29.609.527.85.62a.3.3 0 0 1-.081-.117.25.25 0 0 1 0-.143c.103-.447 1.217-3.333 1.567-4.967z" transform="translate(-47.944 -123.02)"></path><path fill="url(#d)" d="M69.12 133.13c.018-.051 1.431-4.299-2.147-8.168l-2.258 2.41c.23.055 1.978.491 3.288 1.707.755.702 1.606 1.8 1.117 4.05" transform="translate(-47.944 -123.02)"></path><path fill="url(#e)" d="M66.973 124.96c3.599 3.894 2.147 8.168 2.147 8.168-.172.787-.505 1.71-1.066 2.81-1.265 2.481-2.053 4.266-2.54 5.549 1.109 1.737 2.075 4.605 2.733 6.54-.127-1.421-.17-3.409.707-5.121l.018-.037c.299-.58 4.12-8.159 3.375-12.366-.68-3.843-5.377-5.54-5.377-5.54z" transform="translate(-47.944 -123.02)"></path><path fill="url(#f)" d="M68.248 148.02c-.109-1.237-.157-2.904.41-4.444 0 0-.567.874-1.732-1.122-.656-1.123-.755-2.09-.725-2.648a34 34 0 0 0-.685 1.673c1.108 1.737 2.074 4.605 2.732 6.541" transform="translate(-47.944 -123.02)"></path><path fill="url(#g)" d="m69.325 129.76-.027-.006.015-.06-.018-.118-.227-.061.06-.227-.271-.072.066-.252-.102-.027.042-.166.054.015.058-.215-.055-.015.043-.166.054.015a4 4 0 0 0-.057-.173l-.55-.145.042-.166-.271-.073.06-.227-.272-.072.067-.251-.103-.028.042-.166.055.015.057-.215-.054-.015.042-.166.103.027.039-.148-.076-.124-.03.118-.594-.158.042-.166-.272-.073.06-.227-.271-.072.066-.251-.103-.027.043-.167.054.015.058-.215-.055-.015.024-.093q-.091-.105-.187-.21l-.773.827.157.042.055-.206.594.158-.054.205.254.067-.06.227.283.075-.054.203.1.027-.043.167-.054-.015-.058.214.055.016-.043.166-.1-.027-.066.25-.283-.075-.06.227-.254-.066-.043.166-.595-.157.043-.167-.272-.072.06-.227-.271-.073.066-.251-.103-.027.019-.073-.182.194.127.033-.054.206.253.066-.06.227.284.076-.054.203.1.027-.04.148c.193.079.404.176.622.284l.024-.096-.054-.015.042-.167.103.027.054-.202.272.072.06-.227.272.073.054-.206.595.158-.054.205.253.067-.06.227.284.075-.055.203.1.027-.042.167-.055-.015-.057.214.054.015-.042.167-.1-.027-.066.25-.172-.045.12.11.028.026.108.028.055-.206.595.157-.055.206.254.067-.06.226.283.076-.054.203.1.027-.043.166-.054-.015-.057.215.054.015-.042.167-.1-.028-.012.052q.035.085.066.175l.012-.045.323.085a8 8 0 0 0-.081-.908zm-.127 2.94.03.01q.029-.132.06-.3l-.05-.012q-.016.148-.04.306z" transform="translate(-47.944 -123.02)"></path><path fill="url(#h)" d="M72.445 131.93a7 7 0 0 0 0-.36l-.22-.057.066-.252-.103-.027.043-.166.054.015.057-.215-.054-.015.042-.166.052.012c-.006-.049-.016-.097-.022-.145l-.588-.155.042-.166-.272-.073.06-.227-.271-.072.066-.251-.102-.028.042-.166.054.015.058-.215-.055-.015.043-.166.102.027.055-.203.223.058q-.035-.07-.075-.14l-.218-.057-.042.167-.595-.158.042-.166-.271-.073.06-.227-.272-.072.067-.251-.103-.027.042-.167.055.015.057-.215-.054-.015.042-.166.103.027.015-.051-.109-.112-.565-.148.043-.167-.272-.072.06-.227-.271-.073.039-.151q-.322-.241-.634-.442l-.042.157-.1-.027-.066.251-.284-.075-.06.227-.254-.067-.012.048c.024.043.051.082.075.125l.015-.055.272.073.06-.227.272.072.054-.205.595.157-.054.206.253.066-.06.227.284.076-.054.202.1.028-.043.166-.054-.015-.058.215.055.015-.043.166-.1-.027-.066.251-.284-.076-.06.227-.254-.066-.042.166-.045-.012q.032.087.057.173l.046.012.054-.203.272.073.06-.227.272.072.054-.206.595.158-.054.206.253.066-.06.227.284.076-.055.202.1.028-.042.166-.055-.015-.057.215.054.015-.042.166-.1-.027-.066.251-.284-.076-.06.227-.254-.066-.042.166-.568-.148q.066.476.082.907l.268.07-.054.206.254.066-.06.227.283.076-.054.202.1.028-.043.166-.054-.015-.058.215.055.015-.043.166-.1-.027-.066.251-.283-.075-.06.226-.206-.054q-.03.168-.06.3l.033.008.054-.202.272.072.06-.227.272.073.054-.206.595.158-.054.205.253.067-.06.227.284.075-.055.203.1.027-.042.167-.055-.015-.057.214.054.016-.042.166-.1-.027-.066.25-.284-.075-.06.227-.254-.066-.042.166-.595-.157.043-.167-.272-.072.06-.227s-.214-.055-.302-.079l-.03.109.184.048-.06.227.284.076-.055.203.1.027-.042.166-.055-.015-.057.215.054.015-.042.166-.1-.027-.066.251-.284-.075-.06.227-.254-.067-.042.166-.09-.024c-.106.24-.227.484-.357.741q-.006.013-.012.025l.248.066-.055.206.254.066-.06.227.283.076-.054.203.1.027-.043.166-.054-.015-.057.215.054.015-.079.3.601.16-.054.206.253.066-.06.227.284.076-.055.202.1.028-.042.166-.054-.015-.058.215.054.015-.087.317.604.16-.055.206.254.067-.06.227.133.036.045-.109-.03-.009.06-.227-.272-.072.067-.251-.103-.028.042-.166.055.015.057-.215-.054-.015.042-.166.103.027.054-.203.272.073.06-.227.2.051.12-.332-.066-.018-.067.25-.284-.075-.06.227-.254-.067-.042.167-.595-.158.043-.166-.272-.073.06-.226-.271-.073.066-.251-.103-.027.043-.167.054.015.057-.215-.054-.015.042-.166.103.027.054-.202.272.072.06-.227.272.073.054-.206.595.157-.054.206.253.067-.06.227.284.075-.054.203.111.03q.05-.141.097-.287l-.296-.079.06-.227-.271-.072.066-.252-.103-.027.043-.166.054.015.057-.215-.054-.015.042-.166.103.027.054-.203.272.073.06-.227.272.073.055-.206.087.024q.114-.416.208-.832l-.078-.021.042-.167-.272-.072.06-.227-.27-.073.066-.25-.103-.028.042-.166.054.015.058-.215-.054-.015.042-.167.102.028.055-.203.272.073.06-.227.226.06c.003-.03.01-.06.012-.094l-.332-.087-.06.227-.254-.067-.042.166-.595-.157.043-.166-.272-.073.06-.227-.272-.072.067-.252-.103-.027.043-.166.054.015.057-.215-.054-.015.042-.166.103.027.054-.203.272.073.06-.227.272.073.054-.206.595.157-.054.206.253.066-.06.227.15.04zm-2.144 4.075-.054-.015-.057.215.054.015-.042.166-.1-.027-.066.251-.284-.075-.06.226-.254-.066-.042.166-.595-.157.042-.166-.272-.073.06-.227-.271-.073.066-.25-.102-.028.042-.166.054.015.058-.215-.055-.015.043-.167.102.028.055-.203.271.073.06-.227.272.072.055-.205.595.157-.055.206.254.066-.06.227.283.076-.054.202.1.028zm1.157-1.96-.055.205.254.067-.06.227.283.075-.054.203.1.027-.043.167-.054-.015-.057.214.054.016-.042.166-.1-.027-.066.25-.284-.075-.06.227-.254-.066-.042.166-.595-.157.042-.167-.272-.072.06-.227-.271-.073.066-.251-.102-.027.042-.167.054.015.058-.214-.055-.015.043-.167.102.027.055-.202.271.072.06-.227.273.073.054-.206zm.235-3.346-.054-.015-.058.215.055.015-.042.166-.1-.027-.066.25-.284-.075-.06.227-.254-.066-.043.166-.594-.157.042-.167-.272-.072.06-.227-.271-.073.066-.25-.102-.028.042-.167.054.016.058-.215-.055-.015.043-.167.102.027.055-.202.271.072.06-.227.272.073.055-.206.594.158-.054.205.254.067-.06.227.283.075-.054.203.1.027zm-2.397-1.123.018.118.027-.106z" transform="translate(-47.944 -123.02)"></path><path fill="url(#i)" d="m64.718 127.37 2.258-2.411c-8.616 2.568-6.645 8.11-6.645 8.11-.507-2.891.975-4.468 4.387-5.699" transform="translate(-47.944 -123.02)"></path><path fill="url(#j)" d="M64.875 148.83c-.734-1.51-1.268-.644-1.72-.644l-.05.38c.707.787 1.097-.67 1.77.267zm-1.235 5.137v-.003zc-.646-1.365 1.108-1.092.52-2.783 1.126 1.195 1.358-.754 2.288.018-1.256-1.685-1.745.66-2.527-.463.47 1.286-1.256 1.038-.577 2.747-.501-.602-.842-.56-1.126-.402-.094.314-.196.64-.305.965a1 1 0 0 0 .208.057c.686-.009.773-1.028 1.522-.133zm-.875-1.564v-.003zc-.48-1.389 1.135-.932.688-2.653.987 1.322 1.334-.59 2.17.33-1.122-1.882-1.702.408-2.366-.8.193.688-.151.896-.45 1.193-.09.517-.187 1.001-.275 1.41v.018s0-.003-.003-.006q-.017.085-.04.175c.085.064.173.17.276.33zm1.455-4.907c-.326-.844-.631-.998-.906-.974a9 9 0 0 1-.04.569q-.004.058-.014.12c0 .028-.006.055-.01.085.318-.118.616-.414.97.2m-.912-1.794c.124.027.245.136.368.408-.13-.444-.265-.708-.401-.856q.021.222.033.448m7.068 8.477c-.254-.224-1.498-.887-2.017.036-.462.82-.984.684-1.322.448.996 1.137-.834 1.464.03 2.837q.194-.004.392-.012c.006-.72 1.084-1.18.04-2.444 1.868.85 1.413-1.38 2.877-.865zm-5.57 1.304v-.003c-.903-1.359 1.014-1.232.199-2.956 1.373 1.083 1.364-.995 2.527-.272-1.594-1.595-1.872.877-2.811-.143.592 1.28-1.274 1.201-.314 2.905-1.516-1.356-1.507 1.055-2.49-.282.19.53.663 1.086 1.243 1.09.758-.11.68-1.18 1.646-.34m6.844-.566-.088-.13c-.534-.206-1.24-.073-1.573.293-.456.505-.546 1.168-1.449.75.643.63.26 1.074.033 1.607q.5-.033.967-.079c.045-.333-.052-.71-.499-1.183 1.8.639 1.422-1.325 2.609-1.255zm.383.575c-.797.447-.79 1.79-1.902 1.373.148.133.245.263.302.39.529-.072.988-.157 1.35-.25.253-.27.39-.672.586-.99q-.138-.219-.339-.52zm-5.92-1.68c1.697.987 1.4-1.197 2.771-.55-1.983-1.537-1.95 1.116-3.158.145.873 1.274-1.204 1.362.043 3.074-1.812-1.234-1.504 1.292-2.742.033.227.436.661.853 1.148.947q.163.008.332.015.057-.006.114-.021c.686-.387.595-1.22 1.622-.532v-.003h.003c-1.114-1.335 1.026-1.404-.127-3.113z" transform="translate(-47.944 -123.02)"></path><path fill="url(#k)" d="M61.898 151.34q-.263.527-.534 1.014c.486.066.715-.596 1.123-.279q.022-.09.039-.175c-.239-.366-.444-.518-.628-.56m-.8 1.594c.103.442.39.935.812 1.108.106-.324.208-.65.305-.965-.396.217-.68.653-1.117-.143m1.92-4.474q.043.058.088.106.026-.19.048-.381-.033.001-.066-.006-.033.14-.07.281m-.489 3.434v-.01c.088-.408.181-.892.275-1.41-.269.267-.501.606-.278 1.423zm.719-4.599c0-.027.006-.057.009-.084z" transform="translate(-47.944 -123.02)"></path><path fill="url(#l)" d="M58.103 127.31c-.722 1.58-.625 3.267-.405 4.496.493 2.746 4.402 9.348 4.463 9.463.404.816 1.386 3.2 1.11 5.817a9 9 0 0 1-.044.363s-.049.303-.064.372c-.09.454-.214.91-.362 1.356-1.039 3.128-3.264 5.91-3.258 6.316.006.254.3.65.65.996.298.29.61.526.854.62 0 0 .078.03.115.036 1.008.209 2.765.36 5.072.36 3.061 0 6.376-.405 6.376-.983 0-.535-2.635-3.325-4.36-8.501-.658-1.933-1.624-4.804-2.732-6.54-1.61-2.62-3.75-5.334-4.197-6.051-.537-.862-.842-1.655-.987-2.363 0 0-1.971-5.542 6.645-8.11l-1.108-1.94c-4.737.127-6.886 2.109-7.768 4.293" transform="translate(-47.944 -123.02)"></path><path fill="url(#m)" d="M58.103 127.31c-.722 1.58-.625 3.267-.405 4.496.493 2.746 4.402 9.348 4.463 9.463.404.816 1.386 3.2 1.11 5.817a9 9 0 0 1-.044.363s-.049.303-.064.372c-.09.454-.214.91-.362 1.356-1.039 3.128-3.264 5.91-3.258 6.316.006.254.3.65.65.996.298.29.61.526.854.62 0 0 .078.03.115.036 1.008.209 2.765.36 5.072.36 3.061 0 6.376-.405 6.376-.983 0-.535-2.635-3.325-4.36-8.501-.658-1.933-1.624-4.804-2.732-6.54-1.61-2.62-3.75-5.334-4.197-6.051-.537-.862-.842-1.655-.987-2.363 0 0-1.971-5.542 6.645-8.11l-1.108-1.94c-4.737.127-6.886 2.109-7.768 4.293" transform="translate(-47.944 -123.02)"></path><path fill="#f2f2f2" d="M14.782 14.37c-.673-.926-1.208-1.64-1.407-1.96-.537-.863-.842-1.655-.987-2.363 0 0-1.51-4.248 3.892-7.028-5.661 2.678-4.593 6.837-3.128 9.164.217.345.854 1.152 1.63 2.187"></path><path fill="url(#n)" d="m65.868 123.02 1.108 1.94s4.698 1.696 5.377 5.538c.743 4.206-3.076 11.78-3.375 12.364 1.703-3.321 3.798-7.27 4.746-10.449.95-3.191-.284-8.846-7.853-9.393z" transform="translate(-47.944 -123.02)"></path><path fill="url(#o)" d="m65.868 123.02 1.108 1.94s4.698 1.696 5.377 5.538c.743 4.206-3.076 11.78-3.375 12.364 1.703-3.321 3.798-7.27 4.746-10.449.95-3.191-.284-8.846-7.853-9.393z" transform="translate(-47.944 -123.02)"></path><path fill="url(#p)" d="m65.868 123.02 1.108 1.94s4.698 1.696 5.377 5.538c.743 4.206-3.076 11.78-3.375 12.364 1.703-3.321 3.798-7.27 4.746-10.449.95-3.191-.284-8.846-7.853-9.393z" transform="translate(-47.944 -123.02)"></path><path fill="#181210" d="m23.927 30.04-.124-.218.088-.051.308.535-.088.052-.124-.218-.613.357-.06-.103zM24.259 30.41l.097.166-.456.557.706-.12.097.168-.7.406-.061-.103.607-.35-.743.117-.054-.1.47-.584-.606.351-.058-.103z"></path></g><!-- source: https://football-logos.cc --></svg>