<svg xmlns="http://www.w3.org/2000/svg" viewBox="261.67 165 556.66 750"><!-- Source: https://football-logos.cc --><path fill="#FFF" d="M815.633 629.082c-4.317 28.711-13.801 56.27-28.969 84.254-15.68 28.797-37 57.383-65.2 87.375-.769.809-19.097 20.336-50.843 44.39-28.84 21.79-74.426 51.356-129.117 69.387-.512.168-1.024.34-1.492.512l-1.54-.512c-54.687-18.031-100.277-47.597-129.117-69.386-31.746-24.055-50.074-43.582-50.843-44.434-28.2-29.95-49.52-58.535-65.157-87.332-15.207-27.984-24.695-55.543-29.007-84.254-7.692-51.27 1.023-104.719 28.242-173.25 24.223-60.969 22.086-108.437 16.02-137.535-6.579-31.488-19.012-48.832-19.141-49.004l-2.434-3.29 2.09-3.546 32.176-54.219 4.742 1.582c25.25 8.246 52.082 11.067 79.809 8.457 22.304-2.136 45.203-7.773 68.105-16.789 39.18-15.425 65.027-35.675 65.285-35.847l.77-.641.722.64c.172.173 6.754 5.255 18.118 12.262 11.41 7.008 27.644 15.895 47.21 23.586 22.86 9.016 45.801 14.653 68.063 16.79 27.73 2.609 54.559-.212 79.813-8.458l4.742-1.582 34.304 57.766-2.476 3.289c-.086.172-12.563 17.516-19.14 49.004-6.067 29.098-8.204 76.566 16.023 137.535 27.257 68.531 35.972 121.98 28.242 173.25" data-source="https://football-logos.cc"></path><path d="M787.39 455.832c-24.226-60.969-22.09-108.437-16.023-137.535 6.582-31.488 19.055-48.832 19.14-49.004l2.481-3.29-34.312-57.765-4.739 1.582c-25.253 8.246-52.082 11.067-79.812 8.457-22.258-2.136-45.203-7.773-68.062-16.789-19.567-7.691-35.805-16.578-47.211-23.586-11.364-7.007-17.946-12.09-18.114-12.261l-.73-.641-.766.64c-.258.173-26.105 20.423-65.285 35.848-22.902 9.016-45.8 14.653-68.105 16.79-27.727 2.609-54.559-.212-79.809-8.458l-4.742-1.582-32.176 54.219-2.09 3.547 2.434 3.289c.129.172 12.562 17.516 19.14 49.004 6.067 29.098 8.204 76.566-16.023 137.535-27.215 68.531-35.93 121.98-28.238 173.25 4.312 28.711 13.8 56.27 28.964 84.254 15.68 28.797 37 57.383 65.2 87.332.77.852 19.101 20.379 50.843 44.434 28.84 21.789 74.43 51.355 129.118 69.386l1.535.512a51 51 0 0 1 1.496-.512c54.691-18.031 100.277-47.597 129.117-69.386 31.746-24.055 50.074-43.582 50.844-44.391 28.2-29.992 49.52-58.578 65.2-87.375 15.167-27.984 24.651-55.543 28.964-84.254 7.734-51.27-.98-104.719-28.238-173.25m15.894 171.414c-4.062 27.258-13.117 53.45-27.601 80.152-15.125 27.813-35.848 55.543-63.32 84.766-.212.215-18.544 19.781-49.52 43.152-27.559 20.895-70.965 49.008-122.836 66.524-51.91-17.516-95.274-45.63-122.875-66.524-30.977-23.37-49.305-42.937-49.52-43.152-27.472-29.223-48.195-56.953-63.32-84.766-14.48-26.703-23.496-52.894-27.598-80.152-3.504-23.328-3.418-47.215.47-72.976.17-1.11.339-2.18.51-3.247.173-1.195.387-2.433.598-3.632.215-1.239.43-2.477.684-3.715.086-.387.129-.77.215-1.156.172-.81.3-1.622.469-2.477.086-.344.171-.727.257-1.11.215-1.113.426-2.265.684-3.374.043-.086.043-.172.043-.258.297-1.324.598-2.692.898-4.016.297-1.238.555-2.437.852-3.633.129-.468.215-.98.344-1.453.21-.855.426-1.707.64-2.562.172-.64.301-1.282.47-1.922.171-.602.3-1.2.468-1.797.215-.77.387-1.492.601-2.262.086-.258.168-.515.211-.812.301-1.028.555-2.051.856-3.078.984-3.547 2.008-7.09 3.12-10.68.384-1.238.728-2.438 1.153-3.633.254-.894.512-1.75.813-2.605.469-1.496.937-2.95 1.41-4.403.812-2.347 1.578-4.742 2.434-7.132.214-.598.43-1.2.64-1.797 2.606-7.477 5.512-15.164 8.633-23.07.852-2.137 1.664-4.231 2.434-6.325.3-.812.597-1.578.898-2.348.383-1.156.813-2.265 1.195-3.375.297-.898.598-1.753.942-2.648 0-.043 0-.086.039-.129.344-.984.644-1.926.984-2.906l.77-2.309c.043-.21.086-.383.172-.554.296-.985.597-1.922.894-2.864 16.535-53.105 13.93-94.976 8.164-122.023-5.512-25.762-14.57-42.598-18.844-49.52l25.122-42.297c25.55 7.649 52.554 10.168 80.324 7.52 23.5-2.266 47.597-8.203 71.61-17.73 29.007-11.45 50.628-25.122 61.136-32.43 10.469 7.308 32.09 20.98 61.101 32.43 24.008 9.527 48.106 15.464 71.606 17.73 27.773 2.648 54.773.129 80.324-7.52l25.121 42.297c-4.273 6.922-13.332 23.758-18.84 49.52-5.77 27.176-8.375 69.344 8.414 122.793.301.898.598 1.84.899 2.734q.446 1.414.898 2.82c.297.813.555 1.625.852 2.438.043.125.086.254.086.34l1.027 2.82c.34.985.684 1.965 1.067 2.988.3.856.64 1.754.984 2.653.726 1.965 1.496 3.93 2.265 5.894 2.477 6.239 4.825 12.348 6.965 18.328.34.899.637 1.797.938 2.653.3.808.597 1.578.855 2.39a154 154 0 0 1 1.582 4.528c.512 1.496.98 2.992 1.493 4.488q.578 1.791 1.156 3.59c.77 2.262 1.449 4.57 2.136 6.836.383 1.11.723 2.262 1.024 3.375.684 2.176 1.281 4.312 1.879 6.449.043.172.086.344.129.473.258.937.511 1.836.77 2.734a183.488 183.488 0 0 0 .898 3.375c.082.426.21.852.297 1.281.214.813.43 1.621.64 2.39.258 1.114.512 2.18.77 3.294.3 1.066.554 2.176.77 3.246.257 1.023.468 2.05.726 3.074 0 .086.043.215.043.301.254 1.023.469 2.05.683 3.031a282 282 0 0 1 1.836 9.489c.172.894.344 1.75.47 2.648.085.555.171 1.066.257 1.621.129.684.258 1.324.344 1.969.172 1.023.297 2.05.468 3.074 3.762 25.465 3.844 49.094.344 72.164"></path><path fill="#E22726" d="M767.566 467.496c-48.324-108.351 1.579-199.527 1.579-199.527l-19.48-34.309c-100.15 25.25-180.517-22.73-204.911-39.562-.473-.344-.899-.688-1.328-.985a47 47 0 0 1-2.262-1.582c-.684.473-1.453 1.028-2.266 1.582-.425.297-.894.64-1.367.985-24.394 16.832-104.718 64.812-204.867 39.562L313.18 267.97s49.863 91.176 1.539 199.527c-49.989 112.067-44.39 207.047 60.715 319.754 0 0 66.093 71.61 162.695 104.848.941.3 1.922.64 2.906.984h.215a77 77 0 0 1 2.95-.984c96.597-33.239 162.695-104.848 162.695-104.848 105.062-112.707 110.66-207.687 60.671-319.754"></path><path fill="#E2BB23" d="m759.79 269.508-14.06-24.953c-105.187 19.484-167.566-21.02-201.875-39.606-.468-.344-.898-.64-1.324-.941a15 15 0 0 1-1.027-.727c-.211-.129-.383-.258-.555-.383-.215.125-.383.254-.597.383a6 6 0 0 1-1.028.727c-.426.3-.851.597-1.32.941-34.313 18.586-96.649 59.09-201.879 39.606l-14.059 24.953s30.04 59.258 20.723 130.183l395.938.77c-10.125-73.277 21.062-130.953 21.062-130.953"></path><path fill="#184890" d="M760.516 476.809c-9.528-19.997-13.973-40.032-17.004-58.407H338.176c-3.035 18.375-7.434 38.41-17.004 58.407-49.137 102.925-43.067 198.757 58.875 306.941 0 0 64.172 68.7 157.91 100.617.898.297 1.84.64 2.738.938h.082l.086.043.043-.043h.086c.942-.297 1.836-.64 2.778-.938C637.508 852.45 701.64 783.75 701.64 783.75c101.985-108.184 108.008-204.016 58.876-306.941"></path><path fill="#E12826" d="M757.441 508.809V448.78l-2.351-5.469-1.54 62.38s-81.093-13.247-129.413-16.364c0 0-132.492-14.828-300.059 16.363l-.812-49.902-3.121 8.586.812 43.668 79.469 21.02s-100.36 18.714-123.262 25.207c2.606-17.305 6.922-35.418 13.074-54.817l2.649-.77-1.836-1.835c3.715-11.664 8.117-23.754 13.117-36.403a318 318 0 0 0 8.328-23.457l7.649-1.453v4.703l3.12-9.36-.769-30.421s103.524-23.965 216.617-22.129c113.094 1.879 158.297 10.426 215.977 22.129v16.367s4.7 17.176 5.469 17.942c.382.386 3.8 1.71 7.175 2.992q3.463 11.021 8.075 22.687c4.957 12.477 9.273 24.438 12.992 35.977l-4.059 1.492 6.192 5.344c5.597 18.285 9.57 35.418 12.007 51.824-14.738-3.46-105.062-24.523-125.78-25.207Zm0 0"></path><path d="M670.152 497.105v30.29l73.274-20.165ZM407.477 527.14v-30.804l-74.043 10.894Zm0 0"></path><path fill="#FFF" d="m379.703 418.402-.64-7.902-7.262.64a21.7 21.7 0 0 1-1.067 3.419 8.7 8.7 0 0 1-1.84 2.906c-.296.34-.64.64-.98.937-.598.43-1.328.856-2.094 1.2-1.324.554-2.992.937-5.086 1.109l.641 7.648 8.29-.726 4.487 52.168 10.723-.899ZM427.984 458.094l-2.992-34.989c-.125-1.71-.383-3.293-.812-4.703-.852-3.246-2.348-5.765-4.485-7.687-3.03-2.692-7.18-3.848-12.476-3.418-5.254.469-9.184 2.305-11.75 5.512-1.239 1.578-2.133 3.418-2.649 5.593-.554 2.18-.683 4.703-.468 7.52l1.066 12.476c.473 5.086 1.754 8.887 3.977 11.368 2.218 2.52 5.34 3.586 9.27 3.246 4.784-.387 7.905-2.692 9.483-6.88l1.07 12.477q.384 4.936-1.027 6.793c-.937 1.282-2.347 1.965-4.23 2.137-1.707.125-3.074-.258-4.184-1.156-1.113-.938-1.754-2.649-1.968-5.125l-.211-2.438-10.172.856.172 1.793c.472 5.515 2.18 9.656 5.129 12.394 2.945 2.73 7.09 3.887 12.347 3.418 5.598-.472 9.613-2.351 12.047-5.597 2.395-3.25 3.375-7.778 2.863-13.59m-13.8-17.09c-.938 1.113-2.223 1.71-3.93 1.883-1.711.129-3.078-.258-4.188-1.157-1.109-.937-1.753-2.648-1.964-5.125l-1.028-12.304c-.21-2.48.13-4.23 1.07-5.301a4 4 0 0 1 .598-.598c.856-.726 1.965-1.109 3.332-1.238 1.668-.129 3.078.258 4.188 1.156l.086.082c1.023.899 1.664 2.567 1.836 4.957l1.07 12.305c.21 2.48-.172 4.274-1.07 5.34M678.441 418.402q-.707-3.65-2.691-6.28c-2.523-3.247-6.367-5.126-11.664-5.638q-7.887-.832-12.563 3.204-3.525 3.077-4.87 8.714a29 29 0 0 0-.598 3.59l-1.282 12.477c-.515 5.086.086 9.058 1.793 11.922 1.711 2.859 4.57 4.484 8.547 4.91 4.742.472 8.246-1.196 10.551-5.04l-1.281 12.477c-.297 3.246-1.067 5.426-2.223 6.492-1.152 1.067-2.691 1.497-4.57 1.282-1.711-.168-2.992-.813-3.887-1.922-.898-1.11-1.242-2.906-.984-5.383l.258-2.437-10.172-1.024-.168 1.75c-.555 5.555.34 9.914 2.777 13.16 2.39 3.246 6.195 5.13 11.492 5.64 5.598.599 9.871-.51 12.817-3.245q4.486-4.167 5.386-12.82l3.543-34.95c.258-2.52.172-4.828-.21-6.879m-10.47 5.13-1.238 12.261c-.257 2.477-.941 4.187-2.05 5.086-1.114.894-2.524 1.281-4.188 1.11-1.71-.173-2.992-.813-3.887-1.923-.941-1.113-1.242-2.906-.984-5.382l1.238-12.305q.257-2.565 1.153-3.977.387-.637.898-1.023c1.07-.899 2.477-1.238 4.188-1.07 1.664.171 2.992.812 3.886 1.882a.7.7 0 0 0 .172.211c.77 1.07 1.067 2.778.813 5.13M711.422 458.695l4.105-40.293.598-5.851-11.707-1.196-3.89 7.047-20.337 37.13-.984 9.741 20.68 2.094-1.239 12.39 10.512 1.067 1.281-12.39 5.043.515 1.024-9.742Zm-10.55-1.07-10.81-1.11 13.415-24.566Zm0 0"></path><path fill="#1A1B16" d="M485.32 312.488c-1.367-3.207-3.117-6.066-5.21-8.59-2.051-2.52-4.317-4.828-6.708-6.96-2.351-2.137-4.617-4.274-6.668-6.368-2.09-2.136-3.843-4.402-5.21-6.793-1.41-2.394-2.094-5.129-2.094-8.246 0-3.289.64-5.64 1.879-6.965 1.285-1.324 3.035-2.007 5.3-2.007 2.22 0 3.973.683 5.254 2.007 1.239 1.325 1.88 3.676 1.88 6.965v3.758h13.542v-2.86c0-7.35-1.75-13.03-5.254-16.964-3.547-3.93-8.8-5.938-15.808-5.938-7.051 0-12.305 2.008-15.809 5.938-3.547 3.933-5.297 9.613-5.297 16.965 0 4.355.684 8.117 2.094 11.32 1.367 3.203 3.117 6.066 5.21 8.586a65 65 0 0 0 6.708 6.965c2.351 2.137 4.617 4.23 6.668 6.367 2.094 2.137 3.844 4.402 5.21 6.75 1.411 2.394 2.095 5.172 2.095 8.289 0 3.29-.684 5.598-2.008 6.879-1.367 1.324-3.16 1.965-5.426 1.965s-4.059-.64-5.383-1.965c-1.324-1.281-2.008-3.59-2.008-6.879v-6.496h-13.543v5.598c0 7.351 1.793 13.035 5.383 16.964 3.63 3.93 8.93 5.895 15.934 5.895 7.05 0 12.347-1.965 15.98-5.895 3.59-3.93 5.383-9.613 5.383-16.964 0-4.356-.684-8.118-2.094-11.32M526.168 254.594v39.008H509.93v-39.008h-14.313v91.047h14.313v-39.008h16.238v39.008h14.566v-91.047ZM589.016 267.582v-12.988H551.16v91.047h14.313v-37.598h18.457v-12.988h-18.457v-27.473ZM637.422 285.273v-8.843c0-7.352-1.836-13.032-5.426-16.965-3.59-3.93-8.887-5.938-15.933-5.938-7.008 0-12.352 2.008-15.938 5.938-3.59 3.933-5.383 9.613-5.383 16.965v47.379c0 7.351 1.793 13.03 5.383 16.964 3.586 3.93 8.93 5.895 15.938 5.895 7.046 0 12.343-1.965 15.933-5.895 3.59-3.933 5.426-9.613 5.426-16.964v-12.133h-13.543v13.031c0 3.29-.684 5.598-2.008 6.879-1.367 1.324-3.16 1.965-5.426 1.965s-4.058-.64-5.383-1.965c-1.324-1.281-2.007-3.59-2.007-6.879v-49.176c0-3.289.683-5.597 2.008-6.965 1.324-1.324 3.117-2.007 5.382-2.007 2.266 0 4.059.683 5.426 2.007 1.324 1.368 2.008 3.676 2.008 6.965v9.742Zm0 0"></path><path fill="#FFF" d="M633.492 447.242c0 22.434-7.86 42.985-21.02 59.09-5.468 6.707-11.835 12.606-18.925 17.602h-.043c-15.168 10.597-33.625 16.836-53.535 16.836a93.6 93.6 0 0 1-28.242-4.36 92.7 92.7 0 0 1-34.993-20.293c-18.629-17.047-30.293-41.613-30.293-68.875 0-11.96 2.223-23.41 6.325-33.879 1.367-3.59 2.992-7.05 4.785-10.383 12.52-23.242 34.562-40.59 60.883-46.785a94.2 94.2 0 0 1 21.535-2.52c4.996 0 9.867.427 14.61 1.153 26.53 4.188 49.347 19.485 63.53 40.973a93.9 93.9 0 0 1 13.973 34.949c.941 5.344 1.41 10.852 1.41 16.492"></path><path d="M540.223 400.074h-3.118l.813 18.328h3.117Zm91.859 30.676c-.77-4.227-1.793-8.332-3.117-12.348a90.3 90.3 0 0 0-8.117-18.156c-.856-1.539-1.797-2.992-2.735-4.445-3.676-5.512-7.863-10.637-12.562-15.25-13.586-13.375-31.23-22.602-50.973-25.723a97 97 0 0 0-14.61-1.11c-7.394 0-14.613.856-21.534 2.477-16.579 3.887-31.446 12.22-43.282 23.63-6.195 5.894-11.535 12.687-15.851 20.077a55 55 0 0 0-1.75 3.036c-1.797 3.375-3.418 6.835-4.785 10.382a106 106 0 0 0-1.797 5.082c-2.946 9.059-4.528 18.758-4.528 28.84 0 14.957 3.504 29.098 9.743 41.617 5.168 10.34 12.132 19.567 20.55 27.258a93.4 93.4 0 0 0 34.993 20.336c8.93 2.777 18.414 4.317 28.242 4.317 19.906 0 38.367-6.239 53.531-16.832h.043a93.7 93.7 0 0 0 18.93-17.606 94.4 94.4 0 0 0 11.066-17.09c6.367-12.605 9.953-26.918 9.953-42 0-5.637-.469-11.148-1.41-16.492m-69.512-65.367-5.215-6.88c16.407 3.247 31.192 10.938 43.067 21.79a87.6 87.6 0 0 1 13.246 15.125l-4.313-.426-.558 5.211-1.965 18.2-.555 5.085-35.12 16.106-30.036-19.781-.086-1.41-.812-18.329-.98-21.574.296-.129Zm-95.11 38.195-6.022-.383c.64-1.113 1.238-2.18 1.921-3.293 4.614-7.605 10.383-14.484 17.008-20.379 10.082-9.015 22.215-15.765 35.633-19.441l-4.871 7.648 23.969 10.555 1.066.469.941 21.32.813 18.328.082 1.797-27.344 21.961-37.082-9.57-2.992-14.188Zm9.36 102.883-.043 3.59a91.4 91.4 0 0 1-15.98-21.535c-6.664-12.52-10.469-26.875-10.469-42.082 0-.77 0-1.582.043-2.395l6.965 10.211 14.7-18.844 38.577 9.957 11.965 31.875-5.426 8.801-14.656 24.012Zm100.063 21.703c-11.238 5.086-23.758 7.906-36.914 7.906a89.8 89.8 0 0 1-23.887-3.207l3.633-2.988-14.653-18.031 15.81-25.848 4.226-6.965 34.097-1.582 7.004 8.633 18.031 22.215-12.304 18.457Zm42.082-39.348a87 87 0 0 1-6.363 10.211v-.64l-26.493 7.261-15.808-19.441-8.074-9.953 8.972-33.285 35.848-16.446 17.902 19.141 4.14-8.719q.517 4.68.516 9.489c0 15.336-3.847 29.777-10.64 42.382"></path><path fill="#FDFDFD" d="M595.21 675.824s-6.023 11.965-13.456 11.922c-5.899-.043-10.086 4.613-10.086 4.613.3-4.316 1.195-7.648 2.48-10.21 1.196-2.438 2.778-4.145 4.485-5.344.941-.68 1.965-1.153 2.992-1.535 1.75-.641 3.504-.899 5.21-.899 4.571-.086 8.376 1.453 8.376 1.453"></path><path fill="#044694" d="M587.605 677.703c0 4.102-3.332 7.434-7.476 7.434a7.43 7.43 0 0 1-5.98-2.989c1.195-2.437 2.777-4.144 4.484-5.34.941-.683 1.965-1.156 2.992-1.538 1.75-.641 3.504-.899 5.21-.899.513.98.77 2.137.77 3.332"></path><path fill="#FDFDFD" d="M584.23 678.219a2.97 2.97 0 0 1-2.988 2.988c-1.625 0-2.992-1.324-2.992-2.988 0-.516.125-.985.383-1.41.941-.688 1.965-1.157 2.992-1.54 1.453.172 2.605 1.454 2.605 2.95M482.29 675.824s5.98 11.965 13.456 11.922c5.895-.043 10.086 4.613 10.086 4.613-.344-4.316-1.242-7.648-2.48-10.21-1.239-2.438-2.778-4.145-4.485-5.344-.941-.68-1.969-1.153-2.992-1.535-1.75-.641-3.547-.899-5.215-.899-4.57-.086-8.37 1.453-8.37 1.453"></path><path fill="#044694" d="M489.895 677.703a7.44 7.44 0 0 0 7.433 7.434c2.477 0 4.656-1.153 6.024-2.989-1.239-2.437-2.778-4.144-4.485-5.34-.941-.683-1.969-1.156-2.992-1.538-1.75-.641-3.547-.899-5.215-.899-.512.98-.765 2.137-.765 3.332"></path><path fill="#FDFDFD" d="M493.27 678.219a2.97 2.97 0 0 0 2.988 2.988c1.625 0 2.949-1.324 2.949-2.988 0-.516-.129-.985-.34-1.41-.941-.688-1.969-1.157-2.992-1.54-1.453.172-2.605 1.454-2.605 2.95"></path><path fill="#FFF" d="m563.125 596.695 4.355-10.894 1.114 15.039 3.418-4.145.937 9.485 4.957-4.485-.597 16.836 9.402-12.605 1.32 4.656c2.782-4.957 1.324-13.16 1.324-13.16l-8.285 9.656-.77-11.152-4.612 3.035-3.122-12.649-2.347 5.985-1.367-13.16c-6.922 7.05-5.727 17.558-5.727 17.558M574.105 663.86l3.118-5.255c-7.86 4.188-16.149 15.98-16.149 15.98l6.324-3.929.34 5.254c2.778-6.238 13.032-11.707 13.032-11.707Zm0 0"></path><path fill="#FFF" d="m604.57 660.316 9.227-.601c-19.313-8.887-37.172 2.437-37.172 2.437 17.133 1.41 28.668 9.953 28.668 9.953l-3.29-5.683h14.27ZM553.723 696.203l-2.094-11.75-8.031 22.09-.684-12.945c-3.543 4.613-2.094 37.77-2.094 37.77l8.844-33.626 1.582 19.738 13.629-41.57c-5 3.246-11.152 20.293-11.152 20.293"></path><path fill="#FFF" d="M546.719 722.266c-4.446 6.41-4.614 22.261-4.614 22.261h9.954c-4.489-3.375-5.34-22.261-5.34-22.261M554.621 710.473 552.7 722.78l-5.64-9.445c1.754 16.238 7.476 31.191 7.476 31.191v-7.394l7.48 8.633c-.171-.344-.3-.684-.472-1.067-5.895-13.93-6.922-34.226-6.922-34.226M584.402 706.117l-4.101-3.547 4.57 12.133 7.18-20.293 3.715 7.176 4.187-20.293-6.023 10.34-2.051-3.121Zm0 0" data-source="https://football-logos.cc"></path><path fill="#FFF" d="M588.59 732.18c-.985-7.051 4.527-24.356 4.527-24.356l4.828 13.418 4.36-36.445c-2.653 2.82-6.88 19.781-6.88 19.781l-3.374-5.469-6.75 20.723-7.906-13.246c-7.133 22.348-3.29 33.84-3.29 33.84l4.528-24.91ZM593.93 607.422h7.605l-5.086 17.898s23.754-5.68 30.551 19.614c6.836 25.293 15.55 33.242 19.355 36.359 0 0-17.69-39.05-16.324-75.797 0 0-20.933 12.266-25.035 13.031 0 0 .98-10.082 5.297-14.054 4.316-3.93 3.289-4.446 3.289-4.446l-9.996 1.2s26.191-37.473 34.18-45.375c2.863-2.82 10.425-9.442 15.297 5.043 4.87 14.437 6.578 27.726 6.578 27.726s4.015-42.254-5.98-49.73c-10.684-7.993-33.071 1.75-72.891 53.406 0 0 14.527.64 13.16 15.125"></path><path fill="#FFF" d="M661.563 691.332c1.882 1.113 12.773 21.277 12.773 21.277s5.812-10.55-10.465-39.18c-16.32-28.581-7.39-76.777-7.39-76.777-20.168 44.82 6.664 89.895 6.664 89.895-7.008-7.133-14.184-5.938-14.184-5.938 21.406 39.606 24.137 92.5 24.137 92.5 13.586-10.254-11.535-81.777-11.535-81.777M641.738 752.387l-7.176-11.278s-.683 48.235 0 46.786c.641-1.454 6.536-28.114 6.536-28.114l3.078 10.637c7.261-33.668-3.078-63.66-3.078-63.66ZM608.5 811.988l-.77-14.011c-12.433 12.773-11.62 26.234-11.62 26.234l-5.087-17.094c-16.105 23.457-14.738 44.309-14.738 44.309l13.969-24.313-1.664 14.91c6.406-7.476 16.574-31.144 16.574-31.144l-1.281 24.996c30.465-39.61 22.39-91.348 22.39-91.348-2.05 3.672-17.773 67.461-17.773 67.461M521.469 587.125l9.699 9.016.555-2.434 5.722 24.14 1.239-1.581 1.242 1.582 5.722-24.141.559 2.434 9.695-9.016.942 4.531s9.484-20.383 8.8-20.937c-.726-.555-7.39 11.023-7.39 11.023s-1.195-6.406-3.93-.64c-2.691 5.77-4.144 6.496-4.144 6.496s.726-14.828.254-15.04c-.512-.171-4.996 10.212-7.133 16.919 0 0-1.41-9.059-2.008-9.446-.602-.34-2.438 14.446-2.61 15.98-.124-1.534-2.007-16.32-2.605-15.98-.598.387-2.008 9.446-2.008 9.446-2.136-6.707-6.62-17.09-7.133-16.918-.472.21.254 15.039.254 15.039s-1.453-.727-4.144-6.496c-2.735-5.766-3.93.64-3.93.64s-6.664-11.578-7.347-11.023c-.727.554 8.757 20.937 8.757 20.937ZM488.012 597.422s-1.453 8.203 1.367 13.16l1.285-4.656 9.399 12.601-.598-16.832 4.957 4.489.937-9.489 3.418 4.145 1.11-15.04 4.36 10.895s1.194-10.508-5.727-17.558l-1.325 13.16-2.39-5.98-3.078 12.644-4.657-3.031-.77 11.191ZM513.05 659.758s-13.542-12.477-24.226-12.688c0 0 30.422 20.977 34.61 39.18l.425-12.305 7.477 19.653 2.351-16.235 2.864 17.774 2.133-3.934 2.136 3.934 2.864-17.774 2.351 16.235 7.52-19.653.383 12.305c4.23-18.203 34.652-39.18 34.652-39.18-10.727.211-24.27 12.688-24.27 12.688l-1.28-19.098-10.47 22.176v-32.43s-8.074 12.477-9.91 23.371c-1.324 7.692-3.078 10.512-3.976 11.493-.895-.98-2.649-3.801-3.93-11.493-1.879-10.894-9.953-23.37-9.953-23.37v32.429l-10.469-22.176Zm0 0"></path><path fill="#FFF" d="m500.148 658.605 3.118 5.254-6.664.344s10.296 5.469 13.03 11.707l.34-5.254 6.325 3.93s-8.246-11.793-16.149-15.98"></path><path fill="#FFF" d="m463.574 659.715 9.23.601-11.706 6.106h14.27l-3.247 5.683s11.535-8.543 28.625-9.953c0 0-17.86-11.324-37.172-2.437M533.773 706.543l-8.035-22.09-2.093 11.75s-6.153-17.047-11.106-20.293l13.629 41.57 1.535-19.738 8.848 33.625s1.453-33.156-2.051-37.77Zm0 0"></path><path fill="#FFF" d="M525.355 744.527h9.915s-.172-15.851-4.618-22.261c0 0-.851 18.886-5.297 22.261M530.313 713.336l-5.641 9.441-1.922-12.304s-1.027 20.297-6.922 34.222c-.172.387-.3.727-.469 1.07l7.477-8.628v7.39s5.723-14.957 7.476-31.191M477.418 681.293l4.23 20.293 3.715-7.176 7.18 20.293 4.527-12.133-4.101 3.547-7.477-17.605-2.05 3.12Zm0 0"></path><path fill="#FFF" d="m492.074 719.832-6.71-20.723-3.419 5.47s-4.187-16.962-6.879-19.782l4.36 36.445 4.828-13.418s5.512 17.305 4.57 24.356l9.914-16.664 4.528 24.91s3.843-11.492-3.246-33.84ZM424.309 560.895c4.87-14.485 12.433-7.864 15.296-5.043 7.989 7.902 34.18 45.375 34.18 45.375l-9.996-1.196s-1.027.512 3.29 4.442c4.316 3.972 5.296 14.058 5.296 14.058-4.059-.773-25.035-13.035-25.035-13.035 1.367 36.746-16.32 75.797-16.32 75.797 3.8-3.121 12.515-11.066 19.351-36.36 6.836-25.292 30.55-19.609 30.55-19.609l-5.042-17.902h7.562c-1.367-14.485 13.16-15.125 13.16-15.125-39.82-51.656-62.206-61.399-72.89-53.406-9.996 7.476-5.98 49.73-5.98 49.73s1.707-13.289 6.578-27.726"></path><path fill="#FFF" d="M414.227 686.547s26.875-45.074 6.664-89.895c0 0 8.93 48.196-7.348 76.778-16.32 28.629-10.512 39.18-10.512 39.18s10.895-20.208 12.82-21.278c0 0-25.167 71.523-11.578 81.777 0 0 2.73-52.894 24.18-92.5 0 0-7.219-1.195-14.226 5.938M435.676 752.387l.597-45.63s-10.34 29.993-3.078 63.661l3.078-10.637s5.895 26.66 6.579 28.114c.64 1.449 0-46.786 0-46.786ZM481.262 824.21s.812-13.46-11.621-26.233l-.77 14.011s-15.723-63.789-17.773-67.46c0 0-8.075 51.738 22.39 91.343l-1.285-24.992s10.172 23.668 16.621 31.144l-1.707-14.91 13.969 24.313s1.367-20.852-14.738-44.309ZM556.504 753.668c-4.488-6.836-15.254-6.707-18.629-6.492-3.375-.215-14.145-.344-18.629 6.492-5.555 8.375-.258 17.902-.258 17.902s3.164-4.101 7.477-2.992c4.316 1.07 4.316 5.215 4.316 5.215h-6.152s.726 10.125 12.219 10.852v.043c.343 0 .683.042 1.027 0 .34.042.684 0 1.023 0v-.043c11.497-.727 12.22-10.852 12.22-10.852h-6.153s0-4.145 4.316-5.215c4.317-1.11 7.477 2.992 7.477 2.992s5.258-9.527-.254-17.902"></path><path fill="#FFF" d="M586.324 751.918s-4.742 19.695-14.398 31.66c-9.188 11.32-30.25 9.91-33.114 9.738-.042-.043-.085-.043-.128-.043s-.082 0-.168.043c-2.864.172-23.883 1.582-33.07-9.738-9.7-11.965-14.4-31.66-14.4-31.66s-4.526 13.8 2.95 27.941c7.52 14.145 20.934 16.75 20.934 16.75 9.57 15.422 21.535 16.664 23.586 16.746h.297c2.093-.082 14.058-1.324 23.585-16.746 0 0 13.457-2.605 20.934-16.75 7.52-14.14 2.992-27.941 2.992-27.941m-47.511 55.371h-.297c-12.137.3-19.27-9.312-19.27-9.312 7.649 1.41 18.07-1.2 19.438-1.54 1.37.34 11.793 2.95 19.441 1.54 0 0-7.137 9.613-19.312 9.312"></path><path fill="#FFF" d="M578.336 751.875a2.1 2.1 0 0 1-2.094 2.094 2.1 2.1 0 0 1-2.094-2.094c0-1.152.942-2.094 2.094-2.094 1.153 0 2.094.942 2.094 2.094M580.086 758.496a2.096 2.096 0 0 1-2.094 2.094 2.1 2.1 0 0 1-2.094-2.094c0-1.152.942-2.094 2.094-2.094 1.156 0 2.094.942 2.094 2.094M577.734 764.906c0 .938-.808 1.754-1.75 1.754-.98 0-1.75-.816-1.75-1.754 0-.98.77-1.75 1.75-1.75.942 0 1.75.77 1.75 1.75M578.676 770.031c0 .813-.64 1.496-1.496 1.496-.813 0-1.45-.683-1.45-1.496 0-.808.637-1.449 1.45-1.449.855 0 1.496.64 1.496 1.45M575.855 775.074a1.44 1.44 0 0 1-1.449 1.453c-.816 0-1.496-.64-1.496-1.453 0-.812.68-1.496 1.496-1.496.809 0 1.45.684 1.45 1.496M572.098 778.32c0 .645-.516 1.196-1.153 1.196-.687 0-1.199-.551-1.199-1.196 0-.64.512-1.195 1.2-1.195.636 0 1.152.555 1.152 1.195M569.578 774.348c0 .515-.387.941-.898.941a.95.95 0 0 1-.942-.941c0-.512.43-.938.942-.938.511 0 .898.426.898.938M565.945 783.578a1.15 1.15 0 0 1-1.152 1.152c-.602 0-1.113-.511-1.113-1.152a1.13 1.13 0 0 1 1.113-1.113c.637 0 1.152.512 1.152 1.113M568.04 779.434a1.9 1.9 0 0 1-1.884 1.879 1.897 1.897 0 0 1-1.879-1.88c0-1.027.856-1.882 1.88-1.882a1.9 1.9 0 0 1 1.882 1.883M562.441 785.844a1.825 1.825 0 0 1-1.84 1.836c-.98 0-1.792-.813-1.792-1.836 0-.985.812-1.797 1.793-1.797 1.027 0 1.84.812 1.84 1.797M498.867 751.875c0 1.152.938 2.094 2.09 2.094a2.096 2.096 0 0 0 2.094-2.094 2.096 2.096 0 0 0-2.094-2.094c-1.152 0-2.09.942-2.09 2.094M497.113 758.496c0 1.152.942 2.094 2.094 2.094a2.1 2.1 0 0 0 2.094-2.094 2.1 2.1 0 0 0-2.094-2.094 2.1 2.1 0 0 0-2.094 2.094M499.465 764.906c0 .938.812 1.754 1.793 1.754.941 0 1.754-.816 1.754-1.754 0-.98-.813-1.75-1.754-1.75-.98 0-1.793.77-1.793 1.75M498.523 770.031c0 .813.684 1.496 1.497 1.496.812 0 1.453-.683 1.453-1.496 0-.808-.641-1.449-1.453-1.449s-1.497.64-1.497 1.45M501.344 775.074c0 .813.64 1.453 1.496 1.453a1.44 1.44 0 0 0 1.453-1.453c0-.812-.64-1.496-1.453-1.496-.856 0-1.496.684-1.496 1.496M505.102 778.32c0 .645.515 1.196 1.199 1.196.64 0 1.152-.551 1.152-1.196 0-.64-.512-1.195-1.152-1.195-.684 0-1.2.555-1.2 1.195M507.625 774.348c0 .515.383.941.895.941a.947.947 0 0 0 .94-.941.946.946 0 0 0-.94-.938c-.512 0-.895.426-.895.938M511.258 783.578c0 .64.512 1.152 1.152 1.152s1.11-.511 1.11-1.152c0-.601-.47-1.113-1.11-1.113s-1.152.512-1.152 1.113M509.16 779.434c0 1.023.856 1.879 1.883 1.879a1.87 1.87 0 0 0 1.879-1.88 1.87 1.87 0 0 0-1.879-1.882 1.9 1.9 0 0 0-1.883 1.883M514.8 785.844c0 1.023.813 1.836 1.798 1.836.98 0 1.793-.813 1.793-1.836 0-.985-.813-1.797-1.793-1.797-.985 0-1.797.812-1.797 1.797M538.684 623.016l6.152-12.73-3.074 19.308s3.074-2.477 3.074-6.578c0-4.145 2.266-15.04 4.66-20.168 0 0 2.39-9.016 3.16-9.825.813-.77 0 10.211 0 10.211s7.864-14.91 8.633-17.261c.766-2.352.766 3.93-2.351 10.98s-9.399 21.918-9.399 21.918 7.047-9.398 7.816-9.398c.813 0-2.347 16.488-2.347 18.027v11.75l6.281-13.29s-5.469 21.153-6.281 21.923c-.77.77-2.352-26.664-2.352-26.664s-6.281 4.742-7.82 14.144c-1.578 9.399-5.211 20.082-6.152 20.211-.895.125 0-32.558 0-32.558"></path><path fill="#FFF" d="M566.758 591.7s-8.676 17.343-7.906 33.667c0 0 10.382-19.312 10.382-24.527l-4.445 5.215s2.223-12.864 1.969-14.356M576.41 603.617s-14.012 19.781-14.695 37.598v2.265s1.836-8.203 3.547-8.46c0 0 0 3.46.765 3.718.73.258 1.453-4.187 1.97-6.449.51-2.223 3.972-15.598 4.698-19.059.727-3.46 3.715-9.613 3.715-9.613M571.668 627.46s8.719-17.944 12.562-17.433l-1.878 6.196s10.894-4.489 12.39-3.977c1.492.516-7.949 7.692-7.949 7.692s-3.504-.766-5.598.597c-2.047 1.367-9.312 8.762-9.527 6.926"></path><path fill="#FFF" d="M571.969 632.543s2.476-9.91 15.34-10.125c12.859-.258 8.671 5.937 8.671 5.937s13.63.215 21.278 7.434c0 0-20.04-5.469-29.438-2.988 0 0 1.965-5.215 5.426-5.942 0 0-8.93-4.957-21.277 5.684"></path><path fill="#FFF" d="M567.27 650.402s0-14.738 16.96-20.765c0 0 .344 4.402-1.878 7.136 0 0 20.55-3.89 34.906 5.727 0 0-15.637-1.84-27.133 6.105 0 0 2.695-5.253 4.79-6.96 0 0-11.626-1.668-23.97 10.082 0 0-1.539-.813 4.442-8.247ZM581.238 656.297s14.742-14.48 39.395-7.477c0 0-5.727 2.778-7.906 2.907 0 0 15.168 10.554 18.16 14.484 2.992 3.973-11.88-2.223-15.594-6.664 0 0-7.691-6.453-10.895-5.942 0 0 0-2.132 1.88-3.03 0 0-13.247.98-25.04 5.722"></path><path fill="#FFF" d="M621.742 672.105s-4.484-6.066-4.484-7.476c0-1.367 17.601 12.262 20.55 15.723 0 0-3.93 1.71-10.636-2.223 0 0 10.89 9.871 12.984 14.23 0 0-5.039.598-8.031-.64 0 0 4.188 6.96 4.957 12.902 0 0-6.453-.516-7.434-2.48 0 0 5.938 12.394 6.664 16.578 0 0-13.332-12.133-14.824-14.356 0 0-.515 4.7-1.496 5.426 0 0-7.137-18.414-13.715-25.89 0 0-2.136-3.801 1.325-1.325 3.46 2.477 13.628 11.153 13.628 11.153s-2.136-9.829-1.453-10.383c.727-.512 6.664 1.664 7.907 1.793 1.238.172-2.008-9.27-9.446-10.508 0 0 2.735 6.195 2.395 6.578-.383.383-7.563-2.605-8.29-2.992-.769-.34 3.677 8.547 2.95 8.8-.77.258-6.453-6.19-7.95-6.663-1.452-.512-7.09-2.778-7.39-2.778-.258.043.985-1.195 3.93-.683 2.992.472 5.941 2.222 5.941 2.222s.98-2.18-.258-3.203c-1.195-1.027-1.964-3.719 1.282-2.008 0 0 2.265 1.793 3.332 2.008 1.113.215-.895-3.633-1.496-3.805-.594-.171-2.09-2.648 2.351-1.41 4.445 1.239 3.973 1.84 6.707 1.41M603.883 730.34s1.496-23.969 1.367-26.703c-.129-2.735 2.523-3.93 2.438 0-.086 3.933 1.152 5.941 1.152 5.941s.984-13.676 0-15.254c-.98-1.582 9.398 17.73 2.734 42 0 0-4.914-8.59-5.297-12.992ZM538.727 623.016l-6.11-12.73 3.078 19.308s-3.078-2.477-3.078-6.578c0-4.145-2.304-15.04-4.699-20.168 0 0-2.348-9.016-3.16-9.825-.77-.77 0 10.211 0 10.211s-7.82-14.91-8.59-17.261c-.813-2.352-.813 3.93 2.352 10.98 3.117 7.05 9.398 21.918 9.398 21.918s-7.05-9.398-7.86-9.398c-.769 0 2.348 16.488 2.348 18.027v11.75l-6.238-13.29s5.469 21.153 6.238 21.923c.813.77 2.352-26.664 2.352-26.664s6.281 4.742 7.86 14.144c1.538 9.399 5.214 20.082 6.109 20.211.941.125 0-32.558 0-32.558"></path><path fill="#FFF" d="M510.7 591.7s8.632 17.343 7.905 33.667c0 0-10.382-19.312-10.382-24.527l4.441 5.215s-2.219-12.864-1.965-14.356M501.043 603.617s14.016 19.781 14.656 37.598v2.265s-1.793-8.203-3.547-8.46c0 0 0 3.46-.726 3.718-.727.258-1.496-4.187-1.965-6.449-.512-2.223-3.973-15.598-4.742-19.059-.727-3.46-3.676-9.613-3.676-9.613M505.742 627.46s-8.715-17.944-12.515-17.433l1.836 6.196s-10.895-4.489-12.348-3.977c-1.496.516 7.902 7.692 7.902 7.692s3.547-.766 5.598.597c2.094 1.367 9.36 8.762 9.527 6.926"></path><path fill="#FFF" d="M505.488 632.543s-2.476-9.91-15.383-10.125c-12.859-.258-8.628 5.937-8.628 5.937s-13.63.215-21.32 7.434c0 0 20.081-5.469 29.48-2.988 0 0-1.965-5.215-5.469-5.942 0 0 8.93-4.957 21.32 5.684"></path><path fill="#FFF" d="M510.188 650.402s-.043-14.738-16.961-20.765c0 0-.387 4.402 1.836 7.136 0 0-20.551-3.89-34.907 5.727 0 0 15.637-1.84 27.133 6.105 0 0-2.695-5.253-4.746-6.96 0 0 11.621-1.668 23.969 10.082 0 0 1.496-.813-4.485-8.247ZM496.172 656.297s-14.695-14.48-39.348-7.477c0 0 5.723 2.778 7.86 2.907 0 0-15.164 10.554-18.157 14.484-2.949 3.973 11.918-2.223 15.637-6.664 0 0 7.649-6.453 10.895-5.942 0 0-.043-2.132-1.88-3.03 0 0 13.243.98 24.993 5.722"></path><path fill="#FFF" d="M455.715 672.105s4.441-6.066 4.441-7.476c0-1.367-17.558 12.262-20.55 15.723 0 0 3.972 1.71 10.636-2.223 0 0-10.894 9.871-12.988 14.23 0 0 5.086.598 8.035-.64 0 0-4.187 6.96-4.914 12.902 0 0 6.406-.516 7.39-2.48 0 0-5.937 12.394-6.663 16.578 0 0 13.37-12.133 14.867-14.356 0 0 .472 4.7 1.453 5.426 0 0 7.18-18.414 13.758-25.89 0 0 2.093-3.801-1.368-1.325-3.46 2.477-13.628 11.153-13.628 11.153s2.18-9.829 1.453-10.383c-.684-.512-6.625 1.664-7.864 1.793-1.238.172 1.965-9.27 9.403-10.508 0 0-2.735 6.195-2.352 6.578s7.52-2.605 8.29-2.992c.769-.34-3.72 8.547-2.95 8.8.727.258 6.41-6.19 7.906-6.663 1.493-.512 7.09-2.778 7.39-2.778.298.043-.94-1.195-3.933-.683-2.945.472-5.937 2.222-5.937 2.222s-.98-2.18.258-3.203c1.238-1.027 1.964-3.719-1.239-2.008 0 0-2.265 1.793-3.375 2.008-1.07.215.895-3.633 1.493-3.805.64-.171 2.136-2.648-2.348-1.41-4.445 1.239-3.973 1.84-6.664 1.41M473.531 730.34s-1.453-23.969-1.367-26.703c.125-2.735-2.48-3.93-2.437 0 .086 3.933-1.153 5.941-1.153 5.941s-.984-13.676 0-15.254c.98-1.582-9.398 17.73-2.691 42 0 0 4.914-8.59 5.297-12.992Zm0 0" data-source="https://football-logos.cc"></path><!-- source: https://football-logos.cc --></svg>