<svg xmlns="http://www.w3.org/2000/svg" xml:space="preserve" viewBox="186.67 186.67 1066.67 1066.67"><!-- Source: https://football-logos.cc --><defs data-source="https://football-logos.cc"><clipPath id="a" clipPathUnits="userSpaceOnUse"><path d="M0 1080h1080V0H0Z"></path></clipPath></defs><g clip-path="url(#a)" transform="matrix(1.33333 0 0 -1.33333 0 1440)" data-source="https://football-logos.cc"><path d="M0 0c0-207.864-168.497-376.419-376.42-376.419S-752.839-207.864-752.839 0c0 207.923 168.496 376.42 376.419 376.42S0 207.923 0 0" style="fill:#044694;fill-opacity:1;fill-rule:nonzero;stroke:none" transform="translate(916.16 538.412)"></path><path d="M0 0c-.289 20.031-2.366 39.83-5.772 59.572-6.927 40.003-19.742 78.043-38.387 114.063-21.589 41.677-49.643 78.562-84.22 110.426-42.139 38.906-90.395 67.538-144.772 85.721-36.367 12.122-73.657 18.933-112.042 20.088-1.444 0-2.829.346-4.273.519h-20.03c-1.443-.173-2.828-.404-4.271-.577-13.046-1.039-26.15-1.732-39.137-3.291-33.654-4.098-66.095-12.93-97.439-25.802-61.303-25.168-113.312-63.208-155.913-114.063-37.463-44.794-63.843-95.418-79.14-151.815-8.139-29.901-12.757-60.38-13.507-91.435-.058-1.616-.347-3.233-.577-4.906v-16.221c.173-1.327.404-2.655.519-3.983 1.328-15.124 2.078-30.305 3.983-45.314 4.271-32.902 13.219-64.535 25.918-95.129 22.57-54.318 55.473-101.537 98.767-141.425 47.968-44.159 103.441-74.868 166.36-92.011 29.497-8.025 59.572-12.584 90.166-13.451 1.443-.057 2.828-.346 4.271-.577h20.03c1.328.231 2.656.462 3.984.577 12.237.924 24.533 1.386 36.712 2.828 25.572 3.118 50.567 8.832 75.041 17.03 34.405 11.487 66.788 27.303 96.919 47.622 30.941 20.781 58.475 45.429 82.546 73.887 28.516 33.71 50.856 71.058 66.96 112.1C-10.679-113.024-1.443-68.98-.115-23.262c.057 2.886.404 5.772.635 8.658v9.986C.347-3.059.058-1.5 0 0m-399.509-395.757c-8.255 0-16.394.231-24.475.751C-618.111-383-773.504-227.145-784.876-32.383a383 383 0 0 0-.693 23.147c.173 212.83 172.249 385.54 385.771 385.771 213.522.173 386.406-172.768 386.348-386.117 0-213.291-172.769-386.118-386.059-386.175" style="fill:#044694;fill-opacity:1;fill-rule:nonzero;stroke:none" transform="translate(939.48 549.61)"></path><path d="M0 0c-213.522-.231-385.598-172.941-385.771-385.771 0-7.793.231-15.527.692-23.147 11.372-194.762 166.766-350.617 360.892-362.624 8.082-.519 16.221-.75 24.476-.75 213.29.057 386.059 172.884 386.059 386.175C386.406-172.769 213.521.173 0 0m.173-751.743c-15.932-.057-31.575.924-46.987 2.945-164.168 20.954-295.144 151.988-315.694 317.194v.058a361 361 0 0 0-2.829 47.68c1.155 200.361 164.919 364.124 367.184 363.49 200.707-.635 364.009-164.457 364.067-365.972.058-201.804-164.399-365.914-365.741-365.395" style="fill:#f6f6f6;fill-opacity:1;fill-rule:nonzero;stroke:none" transform="translate(539.683 926.146)"></path><path d="M0 0c-148.409.173-269.053-119.893-270.149-268.071-1.097-150.776 120.816-272.17 269.399-272.227 149.736-.117 270.899 120.469 270.899 269.456C270.149-120.817 149.622 0 0 0m176.809-110.888c5.773-.116 10.621-1.385 14.027-6.754 7.389-11.487 15.124-22.686 22.744-34 .404-.634.692-1.442 1.327-2.655-54.087 8.139-104.596.116-151.006-29.439 9.005 18.933 25.571 30.882 40.522 44.274l-.346 1.039c-5.08-.808-10.217-1.27-15.182-2.539-14.315-3.695-26.495-11.257-37.059-21.532-.634-.577-1.211-1.501-1.328-2.309-4.386-26.784-21.531-42.485-45.371-52.298-8.947-3.694-18.125-6.176-27.938-5.483-1.674.115-3.348.75-5.888 1.327 3.06 5.022 5.368 9.698 8.485 13.796 17.606 23.378 40.638 40.58 65.459 56.281.809-1.443 1.501-2.54 2.136-3.694.693-1.155 1.386-2.309 2.136-3.579.519.231.924.347 1.213.577 18.587 16.914 40.465 27.997 64.015 35.962 20.088 6.754 40.638 11.545 62.054 11.026m66.095-184.141c-21.012 20.492-44.968 34.462-74.118 38.734.577-.405 1.154-.867 1.789-1.27 19.395-12.296 36.597-26.843 48.892-46.526 6.408-10.391 11.083-21.474 14.49-33.076.288-.982.345-2.136.057-3.06-10.044-33.364-26.554-63.208-49.239-89.646-.115-.115-.346-.115-.924-.288v4.907c-.058 28.862-2.424 57.435-10.679 85.201-7.504 25.456-19.395 48.257-40.522 65.286-15.182 12.295-32.787 19.049-52.067 21.589-29.958 3.925-58.706-1.328-86.644-11.776-11.834-4.445-23.09-10.448-34.635-15.759-.808-.404-1.558-.981-2.655-1.674 2.655-2.136 5.08-4.04 7.793-6.176-.924-.809-1.79-1.501-2.598-2.194-14.546-12.122-29.67-23.609-43.524-36.482-22.108-20.434-37.983-45.371-48.719-73.598-.347-.923-.75-1.847-1.386-3.406-2.424 3.233-4.617 6.177-6.869 9.063-12.006 15.528-21.242 32.326-25.225 51.778-3.29 15.817-3.81 31.864-1.905 47.854 1.558 12.757 4.272 25.399 6.408 38.098.057.288 0 .577-.116 1.616-1.385-2.078-2.482-3.636-3.464-5.252-10.852-17.203-19.222-35.444-22.858-55.647-4.791-26.553.231-51.316 13.623-74.521 9.466-16.395 22.05-30.191 35.615-43.237 4.618-4.444 9.236-8.888 14.143-13.622 2.424 7.1 4.502 13.796 6.927 20.376 13.565 36.886 31.806 71.001 58.936 99.863 19.107 20.435 41.446 35.962 68.519 44.102 19.915 6.061 40.234 7.1 60.842 4.444 13.564-1.731 26.09-6.118 37.289-14.027 13.392-9.466 22.05-22.454 27.303-37.809 6.697-19.453 7.678-39.541 6.639-59.86-1.386-26.899-7.62-53.049-12.931-79.313-1.154-5.599-3.578-8.659-8.311-11.025-7.678-3.868-15.182-8.024-23.148-11.776 16.105 36.251 25.514 73.309 17.317 113.197-.288-.75-.635-1.443-.808-2.136-6.119-25.168-15.182-49.065-29.439-70.827-11.892-18.183-26.957-33.538-43.12-47.911-3.463-3.002-6.985-6.004-10.275-9.179-1.848-1.789-3.926-2.885-6.523-3.059-8.312-.52-16.624-1.097-25.11-1.039 2.251 1.155 4.502 2.194 6.638 3.406 11.949 6.696 21.936 15.816 30.998 25.976 16.336 18.183 29.324 38.502 39.773 60.552.288.635.519 1.328.288 2.367-2.829-2.655-5.715-5.252-8.543-7.85-15.529-14.547-31.403-28.574-49.355-40.177-24.533-15.989-51.374-25.86-80.236-30.189-4.214-.635-8.486-1.444-12.7-1.617-3.117-.115-6.522 0-9.466 1.04-38.734 13.623-72.04 35.673-99.633 66.036-27.014 29.671-45.659 63.901-55.761 102.691-7.216 27.65-9.525 55.704-6.811 84.22 4.617 49.123 22.397 93.052 53.51 131.265 34.519 42.37 78.447 70.193 131.553 83.469 22.051 5.484 44.448 7.677 67.192 6.869 6.58-.231 13.218-.923 20.03-2.193-5.08-2.482-10.102-5.022-15.182-7.504-23.436-11.545-46.468-23.84-67.826-39.022-41.331-29.439-72.848-67.248-95.303-112.562-4.502-9.121-8.6-18.472-12.526-27.881-1.443-3.406-2.02-7.216-2.482-10.91-.577-4.791 2.309-8.658 7.1-9.582 7.389-1.443 14.893-2.54 23.321-3.868-1.905 3.637-3.117 6.812-5.022 9.525-3.002 4.329-2.713 7.966-.289 12.757 18.357 35.789 42.254 67.249 72.444 93.859C-34.808-95.418 1.385-74.753 40.638-59.398c14.661 5.657 29.67 10.448 44.447 15.758 2.483.867 4.676.751 7.159-.288 22.569-9.236 43.293-21.704 62.284-37.059.462-.404 1.039-.693 2.251-1.443-35.789-9.121-66.325-26.091-93.917-49.47-1.559 10.852-2.945 21.069-4.503 32.326-24.417-26.092-48.257-51.548-72.04-77.005 2.078 7.793 5.311 15.124 10.102 21.416 9.525 12.469 19.684 24.476 29.497 36.77 4.676 5.773 9.178 11.719 13.739 17.549-.232.288-.462.519-.694.808-1.096-.462-2.193-.866-3.29-1.328-25.513-10.794-45.775-27.881-60.61-51.259-8.312-13.045-15.99-26.553-24.013-39.83-12.988-21.358-30.363-37.636-54.146-46.41-.173-.057-.288-.288-.865-.808 2.309-.404 4.271-.866 6.234-1.039 18.529-2.078 36.366.231 53.048 9.005 2.656 1.443 4.618.924 7.158-.231 13.392-6.003 27.188-6.061 41.215-2.424 15.009 3.983 28.17 11.718 41.158 19.915 23.667 15.008 49.181 25.687 76.657 31.575 36.194 7.735 71.751 4.675 106.848-6.292 1.212-.404 2.598-1.79 3.002-2.944 7.099-20.723 11.545-41.966 12.295-63.843.404-12.238-.288-24.533-.52-36.77 0-.694-.115-1.386-.23-2.31" style="fill:#f6f6f6;fill-opacity:1;fill-rule:nonzero;stroke:none" transform="translate(539.971 810.178)"></path><path d="M0 0c-5.715-7.389-11.314-14.373-16.625-21.531-1.847-2.482-3.579-2.886-6.234-1.732-2.367 1.097-4.849 1.906-7.389 2.54-1.962.52-2.655 1.501-2.597 3.522.058 9.35 0 18.702 0 28.92-5.368-13.104-10.448-25.4-15.586-38.041-5.484 1.847-10.621 3.636-16.162 5.542C-55.3.751-46.122 21.993-36.886 43.467c5.484-1.848 10.737-3.522 15.874-5.426.636-.231 1.27-1.559 1.27-2.367.116-13.219.058-26.438.058-40.695.519.981.693 1.673 1.097 2.193 7.389 9.929 14.835 19.8 22.166 29.786 1.212 1.674 2.309 2.193 4.444 1.385 4.041-1.559 8.198-2.886 12.353-4.214 1.675-.462 2.194-1.27 1.79-2.886A21669 21669 0 0 1 5.542-44.505c-5.369 1.789-10.506 3.522-16.048 5.311C-6.984-26.091-3.579-13.276 0 0" style="fill:#f6f6f6;fill-opacity:1;fill-rule:nonzero;stroke:none" transform="translate(449.17 241.825)"></path><path d="M0 0c-3.579 4.155-6.984 7.908-10.159 11.833-.52.692-.462 2.136-.174 3.06C-5.368 29.439-.289 43.928 4.561 57.781c-9.814-8.6-20.262-17.778-31.056-27.187-3.752 4.386-7.274 8.427-11.083 12.872 17.49 15.181 34.923 30.248 52.702 45.718 3.637-4.157 7.158-8.198 10.506-12.354.462-.577.173-1.962-.173-2.886-5.08-14.2-10.275-28.342-15.413-42.485-.058-.173 0-.403.058-.52 10.39 9.122 20.838 18.242 31.517 27.593 3.753-4.33 7.274-8.37 11.141-12.815C35.154 30.478 17.664 15.354 0 0" style="fill:#f6f6f6;fill-opacity:1;fill-rule:nonzero;stroke:none" transform="translate(291.526 287.774)"></path><path d="M0 0c3.348 4.271 6.292 8.254 9.524 12.064.635.75 2.194 1.155 3.233 1.04 15.181-2.195 30.421-4.503 44.968-6.697-10.391 8.081-21.359 16.624-32.731 25.456 3.522 4.503 6.928 8.775 10.506 13.393 18.356-14.432 36.482-28.69 54.896-43.12-3.406-4.329-6.523-8.428-9.813-12.411-.52-.578-1.905-.693-2.828-.52-15.009 2.251-29.959 4.618-44.968 6.927-.173 0-.403-.058-.519-.058a7870 7870 0 0 1 33.133-25.803c-3.636-4.618-6.984-8.889-10.505-13.334C36.424-28.632 18.299-14.374 0 0" style="fill:#f6f6f6;fill-opacity:1;fill-rule:nonzero;stroke:none" transform="translate(747.259 350.001)"></path><path d="M0 0c5.772.981 11.083 1.963 16.683 2.944 4.098-22.974 8.139-45.66 12.237-68.634-5.483-.981-10.621-2.02-15.816-2.771-.693-.115-1.79.924-2.367 1.674-9.524 11.545-19.049 23.09-28.573 34.692a2.7 2.7 0 0 1-.578.405 38296 38296 0 0 0 7.505-41.158 2034 2034 0 0 0-16.683-2.944c-4.098 22.917-8.138 45.66-12.237 68.635 5.368.98 10.217 2.019 15.123 2.713.981.115 2.367-.694 3.06-1.501 9.524-11.545 18.991-23.148 28.515-34.75.232-.347.347-.75.751-.75C5.138-27.823 2.598-14.143 0 0" style="fill:#f6f6f6;fill-opacity:1;fill-rule:nonzero;stroke:none" transform="translate(596.31 264.396)"></path><path d="M0 0c-2.309-1.097-4.444-2.193-6.695-2.944-.694-.231-2.252.289-2.54.866-1.848 3.694-3.464 7.504-5.369 11.718A4254 4254 0 0 0 7.735 19.8C13.277 7.678 18.588-4.099 24.071-16.278c-4.386-1.963-8.485-3.81-12.757-5.773-.693 1.386-1.27 2.425-1.905 3.579-1.963-2.308-3.694-4.733-5.888-6.696-11.544-10.332-28.63-11.025-41.157-1.847-10.91 8.024-21.473 28.169-11.891 46.988 5.657 11.083 15.239 16.74 26.899 19.338 7.216 1.558 13.508.981 18.241-1.213-.634-4.734-1.328-9.525-1.963-14.316-3.232.174-6.175.462-9.177.462-5.658 0-10.564-2.193-14.835-5.772-6.409-5.311-7.563-13.969-3.349-22.801C-27.015-18.183-10.217-20.55-.635-8.89 2.598-5.021 2.598-4.906 0 0" style="fill:#f6f6f6;fill-opacity:1;fill-rule:nonzero;stroke:none" transform="translate(689.996 250.138)"></path><path d="M0 0c4.907 1.905 9.409 3.81 14.027 5.368.75.289 2.194-.23 2.944-.866 11.314-8.773 22.57-17.663 33.307-26.033-4.56 11.314-9.351 23.378-14.316 35.731 5.196 2.021 9.987 3.868 15.124 5.888C59.052-.058 66.845-19.973 74.869-40.234c-4.849-1.905-9.41-3.809-14.085-5.484-.751-.23-2.136.462-2.944 1.097-11.257 8.659-22.513 17.433-33.134 25.687 4.445-11.198 9.294-23.205 14.2-35.5-5.137-2.02-9.928-3.925-15.123-5.945C15.816-40.234 8.024-20.319 0 0" style="fill:#f6f6f6;fill-opacity:1;fill-rule:nonzero;stroke:none" transform="translate(381.807 851.797)"></path><path d="M0 0c-17.548.75-34.173-14.777-35.154-32.557-.75-14.488 11.661-35.558 33.365-35.962 17.26-.808 33.941 14.085 34.923 31.229C34.173-18.299 18.703-.866 0 0m-2.713-52.356c-8.89-.058-16.624 7.62-16.683 16.452-.057 10.159 9.641 19.568 20.031 19.568 9.236-.058 16.798-7.677 16.798-17.029 0-9.986-9.525-18.991-20.146-18.991" style="fill:#f6f6f6;fill-opacity:1;fill-rule:nonzero;stroke:none" transform="translate(793.207 760.65)"></path><path d="M0 0c.52 7.792-3.001 14.027-11.198 16.798-9.698 3.29-19.742 5.426-30.074 8.139a66303 66303 0 0 0-14.663-63.612c9.294-2.021 18.242-4.041 27.304-5.946 5.022-1.039 9.986-.462 14.662 1.443C-3.81-39.08-.288-24.013-7.619-16.452c-.809.808-1.674 1.559-2.598 2.367C-3.867-10.852-.404-6.003 0 0m-20.261-26.496c-.808-2.712-3.348-4.848-6.004-4.444-3.52.519-7.042 1.443-10.794 2.251 1.039 4.445 1.905 8.197 3.002 12.757 3.925-1.039 7.85-1.847 11.487-3.29 2.597-1.039 3.291-4.041 2.309-7.274m3.348 25.515c-.924-3.233-3.117-4.734-6.292-4.157-2.54.52-5.022 1.097-7.966 1.79.866 3.637 1.616 7.1 2.483 10.91 3.174-.809 5.83-1.328 8.37-2.194 3.058-.981 4.214-3.348 3.405-6.349" style="fill:#f6f6f6;fill-opacity:1;fill-rule:nonzero;stroke:none" transform="translate(642.027 857.512)"></path><path d="M0 0c4.329-3.406 8.313-6.523 12.757-9.929-2.713-3.463-5.311-6.753-7.908-10.101s-5.196-6.696-7.966-10.275c6.06-4.791 11.891-9.409 18.01-14.2 5.368 6.754 10.563 13.334 15.99 20.203 4.271-3.29 8.311-6.465 12.757-9.928C30.247-51.259 17.028-68.114 3.521-85.316c-4.33 3.405-8.37 6.58-12.7 9.986A4729 4729 0 0 1 6.35-55.415C.288-50.624-5.542-46.064-11.718-41.157c-5.253-6.638-10.39-13.104-15.643-19.8-4.272 3.349-8.37 6.523-12.757 9.929A40057 40057 0 0 1 0 0" style="fill:#f6f6f6;fill-opacity:1;fill-rule:nonzero;stroke:none" transform="translate(735.08 827.091)"></path><path d="M0 0c-3.29 9.929-6.984 19.684-10.621 29.786-20.55-8.082-40.407-15.932-60.668-23.898 2.019-5.08 3.867-9.871 5.888-15.009 6.869 2.656 13.449 5.196 20.03 7.736 3.175-6.004 3.175-6.004-.866-10.737-3.637-4.214-7.274-8.37-10.794-12.584-.636-.751-1.271-2.193-1.039-2.944 1.846-5.022 3.924-9.986 6.175-15.528 6.582 8.024 12.874 15.643 19.338 23.552.635-.404 1.155-.751 1.674-1.04 11.141-7.1 28.401 0 30.998 12.989C.635-5.253.75-2.367 0 0m-19.164-6.696c-4.156-1.789-7.389-1.097-9.467 2.425-1.386 2.424-2.309 5.079-3.694 8.081 4.964 1.962 9.582 3.81 14.43 5.714.982-2.712 2.079-5.31 2.829-7.965 1.154-3.926-.231-6.581-4.098-8.255" style="fill:#f6f6f6;fill-opacity:1;fill-rule:nonzero;stroke:none" transform="translate(861.495 665.29)"></path><path d="M0 0c-19.453 12.873-38.848 25.803-58.358 38.56-.751.519-2.598.231-3.407-.346-3.232-2.251-6.176-4.965-9.409-7.216-2.193-1.559-2.424-3.002-1.501-5.483 7.216-19.8 14.317-39.715 21.474-59.514.751-2.021 1.616-3.983 2.482-6.234 4.329 3.405 8.428 6.464 12.295 9.697.577.462.751 1.905.462 2.655-1.212 3.349-2.598 6.581-4.041 9.814-.75 1.673-.692 2.77.924 3.982 4.329 3.176 8.543 6.581 12.757 9.986 1.328 1.039 2.252.982 3.521 0a130 130 0 0 1 8.601-6.233c.808-.462 2.367-.809 2.944-.404C-7.1-7.677-3.116-4.387 1.386-.808.693-.404.347-.23 0 0m-46.353-2.021c-3.232 7.563-6.407 14.952-9.697 22.628 6.523-5.021 12.872-9.87 19.511-14.95-3.232-2.54-6.35-5.022-9.814-7.678" style="fill:#f6f6f6;fill-opacity:1;fill-rule:nonzero;stroke:none" transform="translate(783.278 287.6)"></path><path d="M0 0c-3.175 1.963-6.234 4.214-9.178 6.523-1.963 1.617-3.464 1.674-5.599.058-1.675-1.27-3.348-2.482-5.022-3.752-7.851-5.83-15.759-11.545-23.667-17.375-9.121-6.696-18.242-13.45-27.824-20.492 3.983-2.887 7.62-5.311 11.026-7.966 2.251-1.848 3.925-1.963 6.118.173 2.713 2.655 5.888 4.849 8.833 7.216 5.252-3.81 10.274-7.274 15.181-10.968.693-.52 1.212-2.078.924-2.944-1.04-3.578-2.425-7.042-3.58-10.621-.231-.75-.172-2.079.289-2.424 4.214-3.117 8.543-6.119 13.161-9.352.693 2.136 1.27 3.867 1.79 5.656 5.253 17.03 10.506 34 15.816 51.029 1.097 3.521 2.194 7.1 3.291 10.622C2.193-2.539 2.02-1.212 0 0m-23.667-33.826c-3.463 2.425-6.754 4.791-10.217 7.216a3859 3859 0 0 1 18.991 15.701c-3.002-7.736-5.83-15.182-8.774-22.917" style="fill:#f6f6f6;fill-opacity:1;fill-rule:nonzero;stroke:none" transform="translate(382.73 305.033)"></path><path d="M0 0c-5.368.462-10.39.809-15.354 1.386-1.963.173-2.656-.809-3.349-2.425-8.658-20.896-17.432-41.85-26.091-62.746-.346-.75-.462-1.501-.866-2.713 5.484-.347 10.679-.75 15.817-.981.693 0 1.674 1.096 2.02 1.847 1.328 3.29 2.367 6.695 3.695 9.929.346.807 1.5 1.904 2.251 1.904 6.407-.346 12.814-.865 19.222-1.327.924-4.503 1.732-8.659 2.655-12.815.173-.75.924-1.905 1.501-1.962 5.253-.52 10.506-.924 16.22-1.386C11.718-47.16 5.83-23.551 0 0m-18.241-39.887c2.829 7.966 5.484 15.47 8.197 23.263a6683 6683 0 0 0 4.272-24.187c-4.156.289-8.14.578-12.469.924" style="fill:#f6f6f6;fill-opacity:1;fill-rule:nonzero;stroke:none" transform="translate(524.27 258.68)"></path><path d="M0 0c-3.349 1.616-6.696 3.29-9.986 5.137-1.848 1.039-3.002.866-4.561-.635-8.543-8.485-17.432-16.682-25.918-25.283-6.811-6.811-13.219-14.085-19.857-21.3 3.175-1.616 7.273-3.637 11.256-5.83 1.674-.924 2.771-.52 3.983.808 1.963 2.309 4.156 4.387 6.119 6.696 1.097 1.27 2.02 1.674 3.636.75a365 365 0 0 1 13.335-6.869c1.904-.866 2.251-2.078 1.847-3.925-.635-2.944-1.328-5.888-1.674-8.889-.173-.924.231-2.425.924-2.829 4.213-2.367 8.6-4.502 13.391-6.985.751 5.311 1.501 10.217 2.193 15.124 2.425 16.74 4.85 33.48 7.389 50.22C2.424-1.674 1.731-.808 0 0m-17.202-34.346c-3.522 1.847-6.927 3.579-10.621 5.484 5.253 5.715 10.217 11.198 15.412 16.855-1.616-7.504-3.175-14.777-4.791-22.339" style="fill:#f6f6f6;fill-opacity:1;fill-rule:nonzero;stroke:none" transform="translate(697.501 848.854)"></path><path d="M0 0c-10.448 18.934-20.838 37.867-31.402 56.743-.519.866-2.194 1.501-3.233 1.385-3.925-.461-7.792-1.327-11.66-1.962-2.078-.289-2.829-1.27-3.175-3.406-1.905-13.277-3.983-26.495-5.946-39.772-1.269-8.139-2.481-16.336-3.751-25.052 4.964.866 9.466 1.79 14.084 2.424 1.848.289 2.367 1.155 2.482 2.829.347 3.81.751 7.62 1.155 11.545 6.061 1.154 11.949 2.308 17.894 3.232.751.058 2.078-.808 2.54-1.558 1.559-2.829 2.829-5.773 4.329-8.601.405-.751 1.329-1.848 1.848-1.79C-9.755-3.232-4.733-2.366.404-1.5.173-.577.173-.289 0 0m-39.83 18.299a3065 3065 0 0 0 2.136 22.743c3.175-6.812 6.292-13.507 9.582-20.607-4.04-.751-7.677-1.386-11.718-2.136" style="fill:#f6f6f6;fill-opacity:1;fill-rule:nonzero;stroke:none" transform="translate(521.788 825.59)"></path><path d="M0 0c1.154 3.001 2.193 5.83 3.29 8.601 5.195 12.872.404 24.244-12.411 29.439-12.699 5.138-24.07.346-29.208-12.353a1723 1723 0 0 1-7.215-18.298c-.751-1.905-1.386-3.81-2.194-6.004 6.407-2.54 12.584-4.964 18.76-7.388 12.931-5.08 25.861-10.218 38.849-15.24.923-.346 2.886-.173 3.059.289 1.963 4.387 3.637 8.947 5.484 13.565C12.064-4.849 6.119-2.482 0 0m-9.986 13.334c-.808-2.655-1.905-5.195-3.002-8.254-5.368 2.135-10.448 4.156-15.99 6.349 1.328 3.175 2.309 6.292 3.983 9.121 1.963 3.347 6.004 3.983 10.218 1.962 4.214-1.962 6.003-5.31 4.791-9.178" style="fill:#f6f6f6;fill-opacity:1;fill-rule:nonzero;stroke:none" transform="translate(256.834 650.513)"></path><path d="M0 0c1.155-4.271 2.309-8.659 3.579-13.276-2.136-.578-4.041-.982-5.888-1.559-6.465-2.02-11.545-5.888-14.316-12.122-3.29-7.446.174-16.625 8.024-21.877 12.584-8.371 28.054-.231 29.151 15.296.116 1.443.173 2.887.288 4.849 4.849-.692 9.41-1.385 13.912-2.02C37.521-46.756 21.705-66.44 4.733-68.461c-18.76-2.193-36.943 12.757-38.097 31.344C-34.519-18.241-18.414-.115 0 0" style="fill:#f6f6f6;fill-opacity:1;fill-rule:nonzero;stroke:none" transform="translate(316.232 798.402)"></path><path d="M0 0c5.715 0 11.025.115 16.278-.116.635 0 1.559-1.443 1.847-2.424 4.041-14.373 8.082-28.804 11.949-42.773 2.251 6.753 4.618 13.969 7.042 21.184 2.31 6.927 4.792 13.796 7.043 20.723.635 1.963 1.501 2.829 3.752 2.713 4.618-.173 9.294 0 14.547 0-2.078-5.599-3.753-10.275-5.484-14.892-6.003-15.759-12.065-31.518-18.01-47.277-.75-1.905-1.559-2.77-3.81-2.597-3.868.346-7.735.115-11.545.404-1.039.115-2.54 1.039-2.828 1.962C13.796-42.254 6.984-21.3 0 0" style="fill:#f6f6f6;fill-opacity:1;fill-rule:nonzero;stroke:none" transform="translate(519.71 887.529)"></path><path d="M0 0c7.273 11.314 14.316 22.281 21.589 33.595 3.983-2.597 7.677-4.964 11.661-7.504-4.272-6.696-8.371-13.161-12.7-19.972 3.579-2.309 7.1-4.619 10.968-7.1C35.097 4.56 38.56 9.928 42.197 15.528c3.925-2.54 7.619-4.849 11.66-7.447A9172 9172 0 0 1 43.351-8.486c6.638-4.329 13.161-8.543 20.03-12.988-2.886-4.502-5.656-8.832-8.716-13.565C36.424-23.321 18.356-11.776 0 0" style="fill:#f6f6f6;fill-opacity:1;fill-rule:nonzero;stroke:none" transform="translate(237.785 714.991)"></path><path d="M0 0c4.156 3.001 8.082 5.772 12.353 8.832C15.297 4.675 18.125.75 21.185-3.521c-4.156-2.944-8.197-5.831-12.411-8.832C5.772-8.139 3.001-4.214 0 0" style="fill:#f6f6f6;fill-opacity:1;fill-rule:nonzero;stroke:none" transform="translate(355.946 775.544)"></path><path d="M0 0v31.402h-.578l-8.485-4.907L-13.508 34 0 41.677h9.813V0Z" style="fill:#f6f6f6;fill-opacity:1;fill-rule:nonzero;stroke:none" transform="translate(201.246 517.574)"></path><path d="M0 0h10.159c0-3.405 1.963-5.021 4.734-5.021 3.982 0 6.58 4.156 6.58 10.967h-.577c-2.136-1.905-4.445-3.232-8.832-3.232-7.158 0-13.392 3.982-13.392 13.68 0 8.139 6.581 14.2 16.105 14.2 13.219 0 17.029-9.582 17.029-20.376 0-13.912-5.426-22.917-16.567-22.917C4.906-12.699 0-7.33 0 0m20.838 16.336c0 3.521-1.789 6.754-6.061 6.754-4.271 0-6.003-3.233-6.003-6.754s1.732-6.523 6.003-6.523c4.387 0 6.061 3.002 6.061 6.523" style="fill:#f6f6f6;fill-opacity:1;fill-rule:nonzero;stroke:none" transform="translate(217.062 529.465)"></path><path d="m0 0 15.297 32.441v.577H-3.521v8.659h29.439v-7.966L10.679 0Z" style="fill:#f6f6f6;fill-opacity:1;fill-rule:nonzero;stroke:none" transform="translate(827.9 517.574)"></path><path d="M0 0c0 5.021 3.463 8.947 8.312 10.043v.636c-4.272 1.385-7.1 4.214-7.1 8.716 0 8.716 8.312 11.141 15.354 11.141s15.413-2.425 15.413-11.141c0-4.502-2.886-7.331-7.1-8.716v-.636C29.728 8.947 33.075 5.021 33.075 0c0-8.947-8.023-12.758-16.509-12.758C8.139-12.758 0-8.947 0 0m22.974.577c0 3.867-3.637 5.368-6.408 5.368-2.712 0-6.407-1.501-6.407-5.368 0-2.944 2.483-5.195 6.407-5.195 3.984 0 6.408 2.251 6.408 5.195m-1.212 17.49c0 2.887-2.136 4.388-5.196 4.388s-5.195-1.501-5.195-4.388c0-2.597 2.425-4.329 5.195-4.329 2.829 0 5.196 1.732 5.196 4.329" style="fill:#f6f6f6;fill-opacity:1;fill-rule:nonzero;stroke:none" transform="translate(855.55 529.523)"></path></g><!-- source: https://football-logos.cc --></svg>