<svg xmlns="http://www.w3.org/2000/svg" viewBox="259.36 140 561.28 800"><!-- Source: https://football-logos.cc --><path fill="#274689" d="M820.64 140v600.945c0 47.328-28.109 90.078-71.55 108.817L540.027 940 330.91 849.762c-43.441-18.739-71.55-61.489-71.55-108.817V140Zm0 0" data-source="https://football-logos.cc"></path><path fill="#FFF" d="m540.027 924.668-1.492-.64L336.5 836.823a104.29 104.29 0 0 1-63.035-95.879V154.11h533.12v586.836c0 41.739-24.753 79.325-63.03 95.88ZM280.973 161.613v579.332a96.79 96.79 0 0 0 58.507 88.961l200.547 86.563 200.547-86.563c35.508-15.336 58.508-50.258 58.508-88.96V161.612Zm0 0"></path><path fill="#FFF" d="M531.242 308.445c-38.117 22.52-53.398 68.516 1.383 133.785l66.281 75.543c28.961 33.274 41.844 66.332 40.356 99.13 49.828-57.551 39.023-111.852-2.504-164.344l-69.367-78.153c-17.993-20.816-30.133-42.804-36.149-65.96" data-source="https://football-logos.cc"></path><path fill="#FFF" d="M481.254 389.043c-38.121 22.523-53.453 68.52 1.383 133.789l66.281 75.543c28.906 33.273 41.844 66.332 40.352 99.129 49.832-57.55 38.972-111.852-2.555-164.344l-69.313-78.152c-17.996-20.817-30.187-42.805-36.148-65.965"></path><path fill="#FFF" d="M432.379 470.816c-38.117 22.524-53.395 68.52 1.387 133.79l66.332 75.542c28.91 33.274 41.847 66.332 40.355 99.13 49.832-57.551 38.969-111.852-2.555-164.344l-69.316-78.157c-17.996-20.812-30.187-42.8-36.203-65.96M464.96 817.023v5.375l10.65-7.082h.265v38.067h5.27V809.78h-5.27ZM517.828 813.508c-1.492-1.543-3.09-2.61-4.898-3.301-1.813-.691-3.567-1.012-5.38-1.012-2.925-.05-5.48.586-7.663 1.918-2.184 1.332-3.887 3.086-5.114 5.324-1.168 2.18-1.753 4.63-1.753 7.293 0 2.82.585 5.325 1.863 7.504q1.832 3.275 4.949 5.114c2.078 1.277 4.367 1.863 6.867 1.863 1.492 0 2.93-.215 4.258-.691 1.332-.48 2.559-1.122 3.676-1.973 1.066-.902 2.023-1.914 2.82-3.086h.32c0 5.324-.957 9.476-2.93 12.457-1.913 2.93-4.577 4.363-7.984 4.363-2.289 0-4.152-.636-5.535-1.914a9.54 9.54 0 0 1-2.77-4.953h-5.218c.32 2.29 1.117 4.313 2.344 6.07 1.226 1.703 2.77 3.086 4.683 4.047 1.918.957 4.102 1.438 6.496 1.438 2.504 0 4.684-.48 6.657-1.598 1.914-1.012 3.566-2.61 4.949-4.683 1.387-2.024 2.45-4.579 3.14-7.563.747-3.031 1.122-6.441 1.122-10.328 0-3.992-.43-7.348-1.332-10.008-.907-2.61-2.079-4.738-3.567-6.281m-1.547 13.894c-.531 1.172-1.168 2.239-2.074 3.141-.852.957-1.863 1.652-3.035 2.184a9.1 9.1 0 0 1-3.781.8c-1.809 0-3.407-.43-4.79-1.28-1.386-.903-2.503-2.075-3.3-3.567-.801-1.438-1.172-3.086-1.172-4.95 0-1.812.371-3.46 1.223-4.953.851-1.492 1.972-2.715 3.41-3.566 1.383-.902 3.031-1.332 4.789-1.332 1.812 0 3.46.43 4.898 1.387 1.383.902 2.504 2.129 3.356 3.62.797 1.489 1.222 3.087 1.222 4.79 0 1.277-.265 2.504-.746 3.726M555.68 832.727c-1.227-1.012-2.664-1.704-4.262-1.97v-.265c2.078-.535 3.73-1.703 4.953-3.515 1.223-1.809 1.863-3.887 1.863-6.23 0-2.18-.586-4.153-1.703-5.907-1.172-1.758-2.715-3.14-4.738-4.153-1.969-1.011-4.207-1.492-6.762-1.492s-4.793.48-6.816 1.492c-1.969 1.012-3.567 2.395-4.684 4.153-1.117 1.754-1.703 3.726-1.703 5.906 0 2.344.586 4.422 1.863 6.23 1.223 1.813 2.875 2.981 4.954 3.516v.266c-1.598.265-3.036.957-4.317 1.969-1.277 1.062-2.289 2.394-3.031 3.937-.746 1.598-1.067 3.3-1.067 5.168 0 2.34.586 4.418 1.864 6.281 1.226 1.809 2.98 3.301 5.218 4.309 2.235 1.066 4.79 1.547 7.72 1.547 2.925 0 5.484-.48 7.718-1.547a12.64 12.64 0 0 0 5.219-4.309c1.222-1.863 1.863-3.941 1.914-6.281-.051-1.867-.426-3.57-1.172-5.168-.742-1.543-1.754-2.875-3.031-3.937m-17.73-7.664c-.692-1.122-1.013-2.45-1.013-3.942s.32-2.77 1.012-3.887c.64-1.066 1.598-1.918 2.824-2.554 1.223-.586 2.66-.907 4.258-.907s3.035.32 4.207.907q1.833.954 2.875 2.554c.637 1.118 1.008 2.395 1.008 3.887s-.371 2.82-1.062 3.942c-.692 1.113-1.653 1.968-2.875 2.605q-1.757.958-4.153.957c-1.597 0-2.98-.316-4.207-.957-1.222-.637-2.18-1.492-2.875-2.606m15.547 20.602c-.797 1.168-1.918 2.074-3.355 2.66q-2.157.96-5.11.961c-1.968 0-3.672-.32-5.164-.96-1.437-.587-2.554-1.493-3.3-2.66-.797-1.173-1.172-2.556-1.172-4.102 0-1.649.425-3.086 1.226-4.364a8.25 8.25 0 0 1 3.457-2.984c1.442-.742 3.09-1.117 4.953-1.117s3.512.375 4.953 1.117c1.434.695 2.551 1.707 3.407 2.984.851 1.278 1.277 2.715 1.277 4.364 0 1.546-.426 2.93-1.172 4.101M598.535 839.754h-5.965V809.78h-6.386l-19.168 30.344v4.313h20.55v8.945h5.004v-8.946h5.965Zm-25.82-.32 14.48-22.946h.371v23.266h-14.851ZM331.656 267.824h12.883v-21.402h21.133v-10.488h-21.133V225.02h23.477v-10.434h-36.36ZM418.805 214.586h-15.118l-17.625 22.52h-.69v-22.52h-12.884v53.238h12.883v-14.43l5.113-6.492 13.254 20.922h15.438l-19.219-29.496ZM465.813 247.54h-.637l-13.524-32.954H435.68v53.238h12.566v-32.902h.426l12.828 32.582h7.988l12.778-32.367h.476v32.687h12.512v-53.238h-15.918ZM517.027 214.586l-17.992 53.238h13.84l3.516-11.18h18.367l3.512 11.18h13.84l-17.938-53.238Zm2.395 32.262L525.387 228h.37l5.966 18.848ZM591.879 242.055c-1.383-1.328-3.086-2.45-5.11-3.407-2.023-.957-4.367-1.703-6.976-2.289l-4.574-1.062a17.7 17.7 0 0 1-3.305-.906 12.2 12.2 0 0 1-2.5-1.172c-.64-.48-1.172-1.012-1.543-1.598-.375-.637-.531-1.332-.48-2.129 0-.957.32-1.808.851-2.61.586-.745 1.383-1.327 2.504-1.753q1.675-.64 4.152-.64c2.5 0 4.47.53 5.801 1.597 1.383 1.062 2.13 2.555 2.344 4.473h12.297c0-3.356-.852-6.23-2.555-8.786-1.703-2.503-4.047-4.472-7.082-5.855-3.035-1.387-6.652-2.078-10.754-2.078-4.047 0-7.664.691-10.804 2.078-3.145 1.383-5.645 3.3-7.403 5.8-1.808 2.45-2.66 5.38-2.66 8.68 0 4.043 1.277 7.239 3.938 9.582 2.664 2.395 6.285 4.098 10.914 5.165l5.539 1.277c1.968.48 3.566.957 4.843 1.492 1.223.531 2.184 1.117 2.766 1.863.64.692.906 1.598.961 2.555-.055 1.117-.375 2.074-1.012 2.875-.691.852-1.597 1.488-2.824 1.969-1.223.48-2.715.691-4.469.691-1.863 0-3.515-.32-4.953-.902-1.437-.586-2.555-1.442-3.406-2.559-.797-1.172-1.227-2.605-1.332-4.312h-12.352c.055 4.152 1.012 7.613 2.825 10.328 1.863 2.715 4.418 4.738 7.718 6.07 3.356 1.332 7.242 2.024 11.66 2.024 4.47 0 8.25-.641 11.391-1.918 3.14-1.278 5.54-3.141 7.242-5.536 1.703-2.449 2.555-5.324 2.555-8.68 0-2.128-.371-4.042-1.117-5.8-.692-1.703-1.758-3.195-3.09-4.527M634.523 235.934h-21.027v-21.348h-12.883v53.238h12.883v-21.402h21.027v21.402h12.829v-53.238h-12.829ZM660.504 230.184c1.062-1.489 1.914-3.036 2.555-4.739q.955-2.474.957-4.949v-5.91h-9.157v5.91c0 2.29-.32 4.258-.906 5.961a26 26 0 0 1-2.18 4.418l5.43 2.984a20.2 20.2 0 0 0 3.3-3.675M674.879 214.586l-17.942 53.238h13.84l3.461-11.18h18.418l3.516 11.18h13.844l-17.996-53.238Zm2.445 32.262 5.91-18.848h.426l5.91 18.848ZM726.676 257.39v-42.804h-12.883v53.238h35.031v-10.433Zm0 0" data-source="https://football-logos.cc"></path><!-- source: https://football-logos.cc --></svg>