<svg xmlns="http://www.w3.org/2000/svg" viewBox="231.43 140 617.14 800"><!-- Source: https://football-logos.cc --><path fill="#00226B" fill-rule="evenodd" d="M536.344 766.777h18.195l-.016 89.825h-18.171Zm0 0" data-source="https://football-logos.cc"></path><path fill="#DAB171" d="M568.492 752.82h-46.105l.004 13.957.007 89.828v13.954h46.075l.004-13.954.015-89.828Zm-13.953 13.953-.016 89.829h-18.171l-.008-89.829Zm0 0"></path><path fill="#00226B" fill-rule="evenodd" d="m286.34 856.57-19.68.032 2.656-5.735c6.012-13.285 13.02-27.168 18.938-40.367 5.07-11.32 11.11-23.215 16.21-34.55l4.067-8.669c.207-.465.45-.902.68-1.402.332-.711.41-1.336.902-1.375.567-.04.446.21.899 1.21l26.445 56.208c1.82 3.894 3.527 7.691 5.41 11.515 1.863 3.79 3.492 7.676 5.41 11.512l5.418 11.63c-5.261.198-14.101.023-19.75.023l-5.675-12.543-36.207-.012Zm0 0"></path><path fill="#DAB171" d="M310.215 750.547c-.348 0-.707.015-1.063.039h-.023c-4.45.316-8.445 2.625-10.965 6.332a16 16 0 0 0-1.687 3.242l-.047.098c-.153.3-.356.699-.575 1.187l-4.023 8.578-.047.098-.043.102c-2.445 5.43-5.195 11.168-7.855 16.718-2.813 5.871-5.719 11.946-8.367 17.848-2.997 6.688-6.375 13.75-9.645 20.586-3.094 6.477-6.297 13.168-9.246 19.688l-2.629 5.68-9.191 19.855 21.879-.04 19.675-.035 8.95-.015 3.718-8.14 1.996-4.364 18.239.008 1.964 4.343 3.711 8.204h9c1.653 0 3.614.015 5.688.03 2.383.02 4.844.036 7.23.036 3.121 0 5.461-.031 7.36-.102l21-.789-8.875-19.05-5.418-11.63-.082-.171-.086-.176c-.903-1.8-1.754-3.664-2.656-5.637-.856-1.879-1.743-3.82-2.715-5.793-1.242-2.527-2.41-5.054-3.649-7.734a756 756 0 0 0-1.64-3.527l-.004-.016-.008-.016-26.316-55.93c-.29-.769-1-2.558-2.524-4.386-2.726-3.254-6.746-5.121-11.031-5.121m0 13.953c.453 0 .37.277.797 1.215l26.449 56.21c1.816 3.891 3.523 7.688 5.406 11.516 1.863 3.786 3.492 7.672 5.41 11.508l5.418 11.63c-1.914.073-4.3.097-6.836.097-4.433 0-9.32-.07-12.918-.07l-5.675-12.547-36.207-.016-5.72 12.527-19.679.035 2.656-5.738c6.012-13.285 13.02-27.168 18.938-40.37 5.074-11.317 11.11-23.212 16.21-34.552l4.067-8.664c.207-.465.45-.902.68-1.398.332-.715.41-1.344.898-1.375q.06-.007.106-.008"></path><path fill="#00226B" fill-rule="evenodd" d="M451.313 766.86c4.91 0 9.828.054 14.738-.04 4.726-.09 10.043-.148 14.738.059 12.824.558 25.633 4.875 33.77 14.531 7.09 8.422 10.097 18.477 10.097 30.363-.008 29.133-18.894 43.707-43.953 44.782-4.824.207-9.965.047-14.832.047h-14.648Zm0 0"></path><path fill="#DAB171" d="M473.43 752.785c-2.817 0-5.563.043-7.64.082-1.911.04-3.935.055-6.571.055-1.297 0-2.63-.004-3.914-.008a1339 1339 0 0 0-3.993-.008h-13.94l-.017 13.942-.085 89.742-.016 13.969h28.617c1.395 0 2.809.011 4.305.027 1.523.012 3.097.027 4.68.027 2.496 0 4.546-.035 6.449-.117 16.285-.7 30.242-6.113 40.351-15.664 5.516-5.21 9.766-11.535 12.633-18.8 2.863-7.259 4.316-15.419 4.32-24.255 0-7.617-1.004-14.418-3.07-20.789a55 55 0 0 0-10.309-18.566c-9.914-11.766-25.48-18.684-43.835-19.485a185 185 0 0 0-7.965-.152m0 13.953c2.507 0 5.011.035 7.36.14 12.823.56 25.632 4.876 33.769 14.532 7.09 8.422 10.097 18.477 10.097 30.363-.008 29.133-18.894 43.707-43.949 44.782-1.914.082-3.875.105-5.852.105-3.007 0-6.046-.058-8.984-.058h-14.648l.09-89.743c2.632 0 5.269.016 7.906.016 2.277 0 4.554-.012 6.832-.055 2.363-.047 4.875-.082 7.379-.082"></path><path fill="#00226B" fill-rule="evenodd" d="M632.758 813.172c0-8.582 1.027-13.574 4.398-21.11 1.637-3.671 4.203-7.457 6.715-10.37 8.277-9.594 21.063-16.66 34.625-16.66 8.227 0 13.77 1.042 20.969 4.316 2.547 1.156 5.183 2.664 7.203 4.136 2.953 2.149 3.824 2.809 6.254 5.262.445.45.984.879 1.43 1.36 3.617 3.863 5.562 7.218 8 11.886 2.355 4.508 4.46 12.516 4.46 18.387v2.793c0 9.515-4.152 19.957-9.789 27.012-4.464 5.593-10.46 10.773-17.41 13.812-15.957 6.984-32.379 5.664-46.84-4.113-2.046-1.383-6.035-4.73-7.597-6.531l-2.547-3.04c-2.055-2.73-3.984-5.472-5.48-8.816-2.36-5.273-4.391-11.61-4.391-18.324"></path><path fill="#DAB171" d="M678.496 751.078c-4.445 0-8.941.563-13.363 1.672a59.8 59.8 0 0 0-12.176 4.535 64.1 64.1 0 0 0-19.652 15.293c-3.653 4.235-6.805 9.129-8.883 13.781-4.149 9.27-5.617 16.286-5.617 26.813 0 7.726 1.832 15.582 5.601 24.02l.004.003.004.008c2.063 4.602 4.617 8.25 7.074 11.508l.215.285.23.274 2.544 3.043.164.187c2.699 3.11 7.722 7.191 10.312 8.941 5.277 3.57 10.879 6.301 16.649 8.13a59.2 59.2 0 0 0 17.894 2.773c8.625 0 17.274-1.871 25.711-5.563 10.719-4.691 18.27-12.316 22.719-17.89 3.758-4.703 6.933-10.383 9.183-16.422 2.391-6.43 3.657-13.102 3.657-19.297v-2.793c0-7.813-2.485-18.027-6.043-24.844-2.543-4.867-5.23-9.672-10.164-14.945-.649-.7-1.243-1.235-1.633-1.59l-.156-.14c-3.016-3.04-4.493-4.188-7.895-6.66-2.773-2.02-6.195-3.993-9.637-5.56-8.808-4.003-16.308-5.562-26.742-5.562m0 13.953c8.227 0 13.77 1.043 20.969 4.317 2.547 1.156 5.18 2.664 7.203 4.136 2.953 2.149 3.824 2.809 6.258 5.262.441.45.98.879 1.426 1.36 3.617 3.863 5.562 7.218 8 11.886 2.355 4.508 4.46 12.516 4.46 18.387v2.793c0 9.512-4.152 19.957-9.789 27.012-4.464 5.59-10.464 10.773-17.41 13.816-6.683 2.922-13.449 4.39-20.117 4.39-9.254 0-18.32-2.824-26.726-8.507-2.043-1.383-6.032-4.73-7.594-6.531l-2.543-3.04c-2.059-2.73-3.988-5.472-5.485-8.816-2.359-5.273-4.39-11.61-4.39-18.324 0-8.582 1.027-13.574 4.398-21.113 1.637-3.668 4.203-7.454 6.715-10.368 8.277-9.593 21.063-16.66 34.625-16.66"></path><path fill="#00226B" fill-rule="evenodd" d="M756.852 856.777h-18.18v-91.656c1.75 0 1.93 1.18 3.754 2.781.597.524 1.152 1.051 1.722 1.598.598.582 1.137 1.012 1.696 1.617 1.246 1.34 2.144 2.086 3.363 3.266.594.582 1.145 1.015 1.695 1.62l10.121 9.759c3.157 3.199 7.235 6.812 10.114 9.77l11.738 11.46c1.168 1.055 2.32 2.086 3.438 3.188.57.566 1.042 1.18 1.617 1.699 1.18 1.07 3.207 2.855 4.195 4.004.559.648.48.597 1.055.84v-50.035l18.23-.09v91.574c-1.043-.004-.777.086-2.117-1.2l-11.863-11.335c-.578-.559-1.032-1.168-1.621-1.692-3.864-3.468-8.094-7.968-11.86-11.343-2.344-2.09-4.457-4.368-6.703-6.551-1.156-1.11-2.312-2.047-3.45-3.176l-10.085-9.797c-.906-1.023-2.352-2.305-3.406-3.226-1.059-.934-2.367-2.637-3.438-3.266Zm0 0"></path><path fill="#DAB171" d="M738.672 751.164h-13.953V870.73h46.086l.004-13.949.004-17.433a93 93 0 0 0 3.832 3.656c1.636 1.465 3.472 3.27 5.414 5.183 2.023 1.997 4.117 4.055 6.214 5.95.024.027.047.05.07.078.313.347.79.875 1.395 1.46l.028.024.023.028 11.844 11.316.375.363c.719.707 1.922 1.883 3.789 2.907 3.316 1.812 6.34 1.812 7.332 1.812h.203l14.027.066.004-14.02V752.575l-14.023.07-18.227.086-13.886.07v31.09c-1.172-1.14-2.403-2.296-3.606-3.433-1.625-1.531-3.305-3.117-4.672-4.5l-.12-.121-.122-.117-9.867-9.52c-.645-.676-1.219-1.191-1.621-1.554-.121-.114-.246-.227-.309-.286a89 89 0 0 0-1.351-1.28c-.614-.567-1.016-.946-1.496-1.466a30 30 0 0 0-1.844-1.8 9 9 0 0 1-.328-.301l-.028-.028-.027-.023a60 60 0 0 0-2.113-1.965c-.051-.055-.125-.14-.184-.207-1.328-1.516-5.367-6.125-12.867-6.125m0 13.953c1.75 0 1.93 1.184 3.754 2.785a48 48 0 0 1 1.722 1.598c.598.582 1.137 1.016 1.696 1.617 1.246 1.34 2.144 2.086 3.36 3.27.6.578 1.148 1.011 1.698 1.617l10.121 9.758c3.157 3.199 7.239 6.812 10.114 9.77l11.738 11.46c1.168 1.055 2.32 2.086 3.438 3.192.574.562 1.042 1.175 1.617 1.695 1.18 1.07 3.207 2.855 4.195 4.004.559.648.48.597 1.055.84v-50.035l18.23-.09v91.574h-.281c-.727 0-.633-.043-1.836-1.195l-11.86-11.34c-.581-.559-1.035-1.168-1.624-1.692-3.864-3.468-8.094-7.968-11.86-11.343-2.344-2.09-4.457-4.368-6.707-6.547-1.148-1.114-2.308-2.047-3.445-3.184l-10.086-9.793c-.902-1.023-2.352-2.305-3.406-3.226-1.059-.938-2.367-2.637-3.438-3.266l-.012 50.191h-18.183z"></path><path fill="#00226B" fill-rule="evenodd" d="M380.797 856.777H362.66l-.043-91.656c1.29 0 1.508.465 2.11 1.11l8.421 8.152c.598.582 1.145 1.015 1.696 1.62 2.332 2.536 7.531 7.134 10.12 9.759.614.62 1.009 1.148 1.626 1.687 2.555 2.235 4.422 4.266 6.789 6.473 3.297 3.074 6.676 6.66 10.11 9.773.57.516 1.179 1.059 1.71 1.602l10.871 10.586c.114.133.285.351.407.453.445.383.136.168.644.387v-50.035l18.23-.09v91.574c-1.042-.004-.777.086-2.117-1.2-.597-.57-1.097-1.05-1.707-1.609l-5.082-4.86c-.62-.546-1.027-1.093-1.625-1.687-1.136-1.129-2.293-2.062-3.445-3.18-2.25-2.179-4.363-4.46-6.707-6.55-3.762-3.36-7.996-7.863-11.867-11.336-.582-.531-1.035-1.133-1.613-1.7-1.153-1.109-2.31-2.046-3.45-3.175l-16.93-16.29Zm0 0"></path><path fill="#DAB171" d="M362.617 751.164h-13.96l.003 13.961.047 91.656.004 13.95h46.035l.004-13.95.004-17.476c1.32 1.234 2.723 2.613 4.183 4.05 2.11 2.079 4.29 4.223 6.442 6.141 1.183 1.055 2.402 2.285 3.691 3.586.828.832 1.684 1.695 2.59 2.574.746.723 1.434 1.34 2.043 1.883.492.438.918.816 1.254 1.149.043.042.117.125.172.19.387.427 1.004 1.106 1.84 1.868l4.918 4.7.097.097.106.094c.48.441.898.843 1.433 1.355l.055.055.371.36c.719.706 1.922 1.882 3.79 2.905 3.316 1.813 6.34 1.813 7.335 1.813h.203l14.024.066.004-14.02V752.575l-14.024.07-18.226.086-13.887.07v31.169q-.134-.127-.273-.254l-.008-.008c-.809-.754-1.586-1.52-2.407-2.328-1.289-1.274-2.738-2.703-4.48-4.238a1 1 0 0 1-.066-.078c-.25-.274-.59-.649-1.024-1.09l-.008-.004-.007-.008c-1.31-1.328-2.98-2.89-4.75-4.547-1.797-1.684-4.036-3.777-5.02-4.848a28 28 0 0 0-1.965-1.921c-.125-.118-.254-.235-.312-.29l-8.063-7.808a16 16 0 0 0-4.215-3.395c-2.382-1.316-5.058-1.988-7.953-1.988m0 13.953c1.29 0 1.508.469 2.11 1.113l8.421 8.157c.598.578 1.145 1.011 1.696 1.617 2.332 2.535 7.527 7.133 10.12 9.758.614.625 1.009 1.144 1.626 1.683 2.558 2.239 4.422 4.27 6.789 6.477 3.297 3.074 6.676 6.656 10.11 9.773.57.516 1.179 1.059 1.71 1.602l10.871 10.586c.114.133.285.351.41.453.442.383.133.168.641.387v-50.035l18.23-.09v91.574h-.277c-.73 0-.633-.043-1.84-1.195a83 83 0 0 0-1.707-1.614l-5.082-4.86c-.62-.546-1.027-1.093-1.625-1.687-1.136-1.129-2.293-2.062-3.445-3.18-2.25-2.179-4.363-4.456-6.707-6.55-3.762-3.36-7.996-7.86-11.867-11.34-.582-.527-1.035-1.129-1.613-1.691-1.153-1.114-2.313-2.047-3.45-3.184l-16.925-16.285-.016 50.191H362.66z"></path><path fill="#00226B" fill-rule="evenodd" d="M603.145 770.957v-4.184l18.16.051.37 56.989c.013 7.156-2.737 14.015-6.476 19.55-.633.946-1.246 1.606-1.894 2.465-2.63 3.5-8.012 7.309-12.403 9.402-8.199 3.907-19.3 4.375-27.933 1.375-2.297-.8-7.04-2.988-8.305-4.343l9.145-15.684c.601.262.605.39 1.125.785 7.125 5.465 19.03 3.883 24.898-4.133 4.066-5.546 3.867-10.43 3.594-18.492-.242-7.21.086-14.55-.137-21.8-.223-7.184-.144-14.727-.144-21.981"></path><path fill="#DAB171" d="M589.191 752.781v18.176c0 1.492-.004 2.996-.007 4.504-.012 5.887-.024 11.976.156 17.906.101 3.301.082 6.653.058 10.203-.023 3.782-.05 7.692.082 11.637l.008.188c.25 7.437.106 8.203-.91 9.59-.558.757-1.844 1.64-3.644 1.64-.7 0-1.207-.156-1.434-.285a16.2 16.2 0 0 0-4.09-2.543l-11.39-4.988-6.262 10.742-9.149 15.68-5.23 8.972 7.09 7.586c1.785 1.91 4.164 3.555 7.718 5.332 2.075 1.035 4.391 2.031 6.192 2.66h.008c5.125 1.782 10.918 2.727 16.758 2.727 7.808 0 15.332-1.621 21.757-4.68 3.07-1.465 6.246-3.39 9.18-5.566 3.5-2.598 6.32-5.305 8.379-8.051.101-.133.25-.316.418-.527a33 33 0 0 0 1.902-2.54c2.645-3.921 4.742-8.074 6.235-12.347 1.742-4.985 2.62-10.031 2.613-15.004v-.07l-.371-56.989-.09-13.824-13.824-.039-18.16-.05Zm13.954 13.992 18.16.051.37 56.989c.013 7.156-2.737 14.019-6.476 19.55-.633.942-1.246 1.606-1.894 2.469-2.63 3.5-8.012 7.305-12.403 9.395-4.648 2.214-10.226 3.328-15.757 3.328-4.23 0-8.434-.653-12.176-1.953-2.297-.797-7.04-2.985-8.305-4.34l9.145-15.684c.601.262.605.39 1.125.785 2.812 2.157 6.363 3.215 10 3.215 5.578 0 11.347-2.492 14.898-7.348 4.063-5.546 3.867-10.43 3.594-18.492-.242-7.21.086-14.55-.137-21.804-.223-7.18-.144-14.723-.144-21.977z"></path><path fill="#00226B" fill-rule="evenodd" d="M335.926 750.816c.039-6.425.523-13.355.96-19.77.419-6.276.923-12.6 1.47-18.874 1.062-12.227 2.617-24.613 4.39-36.602 6.793-45.953 17.684-87.5 33.39-130.57 8.708-23.883 19.872-49.012 31.364-71.2l7.059-13.343c1.148-2.281 2.449-4.355 3.66-6.637 1.203-2.257 2.488-4.355 3.722-6.57 3.528-6.285 7.668-13.105 11.508-19.187 3.703-5.875 8.2-13.176 12.043-18.657a78 78 0 0 0 2.11-3.117c2.734-4.32 7.511-10.703 10.562-15.086 1.402-2.02 2.832-3.844 4.277-5.836l20.235-25.98c.797-.965 1.457-1.84 2.285-2.782.781-.882 1.562-1.937 2.375-2.859l9.414-10.996c.258-.305.43-.406.688-.7.222-.253.32-.433.539-.69l7.28-8.067c.497-.59.63-.746 1.263-1.348.453-.43.82-.941 1.214-1.406.418-.484.801-.75 1.22-1.219l9.921-10.488c1.719-1.793 3.309-3.48 5.063-5.23 2.593-2.598 5.023-5.13 7.753-7.594.993-.903 7.04-7.035 7.793-7.36 1.86 1.555 3.485 3.34 5.309 4.957.965.848 1.68 1.774 2.625 2.598 3.477 3.043 14.578 14.43 17.898 18.043.864.945 1.707 1.707 2.559 2.672l20.621 22.984c2.48 2.72 5.844 6.934 8.203 9.762.465.559.785.867 1.2 1.406.351.461.71.918 1.09 1.368 3.179 3.78 6.015 7.562 9.116 11.46 13.735 17.278 30.954 42.594 41.887 60.672 9.051 14.961 17.809 30.551 25.64 46.211a663 663 0 0 1 16.263 35.028c29.582 68.847 46.261 140.343 51.418 215.472.433 6.352.945 13.176.945 19.535Zm0 0"></path><path fill="#DAB171" d="m541.86 282.457-7.864 3.363c-2.95 1.262-4.75 3.032-10.094 8.297a148 148 0 0 1-1.617 1.582c-2.43 2.2-4.578 4.371-6.66 6.469l-1.55 1.562c-1.493 1.489-2.86 2.922-4.184 4.31l-1.09 1.136-.031.031-.032.035-9.922 10.485-.003.007c-.36.336-.981.918-1.672 1.727l-.016.016-.016.02c-.222.26-.414.495-.554.671a24 24 0 0 0-1.828 1.969l-7.106 7.87-.152.165-.145.172q-.201.24-.367.445c-.246.254-.523.55-.816.895l-9.36 10.933c-.57.653-1.062 1.266-1.5 1.809-.289.355-.586.726-.773.937-.758.86-1.371 1.625-1.91 2.297q-.358.446-.68.84l-.125.156-.125.153-20.234 25.984-.149.191-.144.196c-.512.71-1.036 1.41-1.59 2.152a142 142 0 0 0-2.84 3.898 440 440 0 0 1-3.473 4.88c-2.656 3.699-5.402 7.519-7.414 10.699h-.004c-.523.832-1.078 1.625-1.75 2.582-3.394 4.836-7.156 10.836-10.476 16.129l-1.95 3.101c-3.136 4.969-7.742 12.442-11.87 19.8l-.016.032c-.438.781-.899 1.574-1.383 2.414a138 138 0 0 0-2.477 4.403 86 86 0 0 1-1.402 2.515c-.723 1.266-1.535 2.695-2.328 4.258l-7.004 13.234-.027.051-.028.055c-12.035 23.238-23.43 49.101-32.082 72.836-16.496 45.238-27.328 87.597-34.086 133.308-2.02 13.68-3.488 25.922-4.488 37.434a997 997 0 0 0-1.492 19.156l-.043.633c-.422 6.254-.906 13.34-.945 19.98l-.086 14.04H758.21v-13.954c0-6.328-.445-12.75-.871-18.957l-.11-1.53a715 715 0 0 0-6.168-56.798 677 677 0 0 0-10.722-55.562 660 660 0 0 0-15.406-54.39 662 662 0 0 0-20.22-53.278 681 681 0 0 0-16.597-35.758c-7.476-14.95-16.285-30.828-26.183-47.195-12.141-20.078-29.786-45.63-42.907-62.133a625 625 0 0 1-2.992-3.809c-2.004-2.57-4.078-5.226-6.34-7.918a26 26 0 0 1-.703-.886l-.039-.047c-.543-.703-1-1.22-1.305-1.559-.109-.129-.18-.203-.222-.258l-.004-.008-.008-.003c-.617-.743-1.332-1.61-2.086-2.528-2.086-2.547-4.453-5.43-6.488-7.66l-20.547-22.902a47 47 0 0 0-1.906-2.012c-.309-.312-.578-.582-.782-.805l-.007-.007-.008-.012c-3.383-3.676-14.774-15.403-18.938-19.059-.09-.086-.277-.285-.422-.437-.53-.559-1.257-1.328-2.203-2.164a56 56 0 0 1-1.832-1.735c-1.09-1.058-2.32-2.258-3.77-3.465Zm-2.376 16.191c1.856 1.555 3.485 3.34 5.309 4.954.965.851 1.68 1.777 2.625 2.601 3.477 3.043 14.578 14.43 17.898 18.043.864.945 1.707 1.707 2.559 2.672l20.621 22.984c2.48 2.72 5.844 6.934 8.203 9.762.465.559.785.867 1.2 1.406.351.461.71.918 1.09 1.364 3.179 3.785 6.015 7.566 9.116 11.464 13.735 17.278 30.954 42.594 41.887 60.672 9.051 14.961 17.809 30.551 25.64 46.211a663 663 0 0 1 16.263 35.028c29.582 68.847 46.261 140.343 51.418 215.472.433 6.352.945 13.176.945 19.535H335.926c.039-6.425.523-13.355.96-19.77.419-6.276.923-12.6 1.47-18.874 1.062-12.227 2.617-24.613 4.39-36.602 6.793-45.953 17.684-87.5 33.39-130.57 8.708-23.883 19.872-49.012 31.364-71.2l7.059-13.343c1.148-2.281 2.449-4.355 3.66-6.637 1.203-2.257 2.488-4.355 3.722-6.57 3.528-6.285 7.668-13.105 11.508-19.187 3.703-5.875 8.2-13.176 12.043-18.657a78 78 0 0 0 2.11-3.117c2.734-4.32 7.511-10.703 10.562-15.086 1.402-2.02 2.832-3.844 4.277-5.836l20.235-25.98c.797-.965 1.457-1.84 2.285-2.782.781-.882 1.562-1.937 2.375-2.859l9.414-10.996c.258-.305.43-.406.688-.7.222-.253.32-.433.539-.69l7.28-8.067c.497-.59.63-.746 1.263-1.348.453-.43.82-.941 1.214-1.406.418-.484.801-.75 1.22-1.219l9.921-10.488c1.719-1.793 3.309-3.48 5.063-5.23 2.59-2.598 5.023-5.13 7.753-7.594.993-.903 7.04-7.035 7.793-7.36"></path><path fill="#00226B" fill-rule="evenodd" d="M397.578 324.34C297.918 473.7 246.703 646.7 245.414 818.578c-.469 60.512 4.223 95.086 5.106 107.414l86.761.055 406.145-.035 86.465-.028c.23-.449 6.64-50.054 4.164-134.793-3.336-115.539-37.098-255.886-97.094-371.89-29.129-56.328-53.945-91.746-53.934-91.727-61.207-92.039-141.851-166.82-143.894-168.738-42.383 37.121-98.563 101.016-141.555 165.504"></path><path fill="#DAB171" d="m539.457 140-9.52 8.34c-10.875 9.523-22.566 20.7-34.753 33.21-12.239 12.567-24.747 26.25-37.168 40.665-26.348 30.562-51.262 63.2-72.051 94.387-49.887 74.761-88.48 156.3-114.707 242.343-12.82 42.067-22.692 85.399-29.332 128.79-6.617 43.23-10.137 87.214-10.465 130.738-.39 50.379 2.71 82.687 4.375 100.05.344 3.586.617 6.422.766 8.465l.925 12.95 12.98.007 86.766.055h.008l406.145-.035 86.469-.024 8.507-.004 3.895-7.562c1.2-2.332 1.422-4.137 1.789-7.129.172-1.394.45-3.781.789-7.226.54-5.497 1.336-14.645 2.043-27.024 1.215-21.144 2.383-55.691 1.082-100.215-.848-29.414-3.633-60.422-8.281-92.148-4.676-31.95-11.219-64.473-19.442-96.664-8.425-32.969-18.593-65.516-30.226-96.739-12.078-32.418-25.77-63.484-40.692-92.34-15.25-29.484-29.312-53.206-38.422-67.913-5.18-8.36-9.355-14.782-11.945-18.692a435 435 0 0 0-3.316-4.941c-.528-.774-.88-1.293-1.153-1.68-13.98-21.012-30.09-42.816-47.882-64.82-14.356-17.754-29.868-35.719-46.11-53.395-26.172-28.48-46.199-47.508-51.71-52.66l-.137-.125Zm-.324 18.836c2.043 1.918 82.687 76.7 143.894 168.738.004.004 24.813 35.418 53.934 91.727 59.996 116.008 93.758 256.351 97.094 371.89 2.476 84.739-3.93 134.344-4.164 134.793l-86.465.028-406.145.035-86.761-.055c-.883-12.328-5.575-46.902-5.106-107.414 1.29-171.879 52.504-344.883 152.164-494.238 42.992-64.488 99.172-128.383 141.555-165.504" data-source="https://football-logos.cc"></path><path fill="#E4252B" fill-rule="evenodd" d="M335.926 750.816h408.332c0-6.359-.512-13.183-.946-19.535-9.5-138.394-61.105-264.156-135.207-357.383-25.597-32.168-55.957-64.671-68.62-75.25-5.462 2.336-85.82 84.11-124.926 161.809-2.188 4.348-21.743 38.797-38.422 84.543-19.422 53.258-32.715 108.871-37.782 167.172-2.109 24.316-2.582 38.644-2.43 38.644m210.118-385.39c2.191 0 6.168-.106 8.129.074l-7.149 12.68 1.88-.196c5.843-.3 10.636 4.883 10.636 10.465 0 16.297-24.68 15.817-24.68 1.047 0-6.008 8.657-18.234 11.184-24.07m27.21-.176c2.161 0 5.466-.094 7.47.074l-8.809 20.38 7.469-.06-.004-9.578h7.02v9.637l3.492-.004.039 6.938h-3.532l-.003 7.5h-7.012v-7.5l-18.031-.016Zm-79.823 2.55c4.093-.952 6.89-2.769 10.992-2.769l.004 35.106h-7.024l-.02-26.102-3.952 1.094Zm27.605 19.95c-8.754 1.246-13.652-7.168-11.726-13.941 1.753-6.172 8.648-11.122 16.671-7.973 5.704 2.242 9.79 9.312 5.766 17.488-2.016 4.106-7.082 12.504-8.355 14.848-1.461 2.68-.172 1.984-9.118 1.875Zm-39.945 19.406c1.629-.148 2.226.274 3.426.852 2.148 1.035 7.023 2.93 9.015 4.058 8.332 4.72 11.45 1.52 29.48 9.418 1.044.457 2.063.754 3.098 1.266 1.621.8 1.16 1.219 5.262 3.281 2.942 1.496 4.336.645 7.492.371 6.813-.59 6.711 2.727 13.817-2.597 1.172-.875 1.726-.778 3.09-1.27 5.015-1.82 7.007-4.172 23.57-6.601 2.512-.372 4.238-1.325 6.586-1.973 16.597-4.574 16.39-7.742 18.453-7.707 1.121.008 1.836 1.691-2.879 3.926-4.012 1.882-1.375 2.402-11.844 5.418-9.125 2.648-14.414 6.894-17.933 8.058-2.149.711-4.418 1.301-6.594 1.953-5.613 1.688-7.035 3.051-11.875 5.383-5.61 2.703-6.488 2.387-6.77 6.297-.125 1.645-.144 2.047-.91 3.3-1.168 1.907.426 3.454-2.406 6.317-2.691 2.723-1.422 3.07-2.598 5.926-1.363.125-1.492-.637-2.199-1.352-4.48-4.492-1.937-2-5.863-4.601-5.746-3.805.824-3.348.785-8.719-.043-6.687-3.816-3.828-7.68-6.367-5.066-3.324-12.422-6.258-13.847-6.906-5.493-2.492-4.012-.864-9.278-4.68-6.949-3.75-16.918-9.469-17.812-9.918-4.551-2.277-3.176-3.133-3.586-3.133m-1.317 71.57c-2.039.301-3.734.903-5.703.903-2.254 0-1.722-1.867-.832-3.059 1.035-1.382.996-2.097 1.715-3.683.79-1.73.082-2.676-.246-4.489-.309-1.722-2.039-7.972-6.48-14.972-4.957-7.778-19.688-15.051-19.82-17.735-.09-1.648 2.823.133 3.675.387 1.316.395 2.824.676 4.063 1.172 3.59 1.422 11.023 5.273 13.964 7.492 6.395 4.824 5.329 5.61 9.309 17.551 1.371 4.105 2.707 3.125 4.332 3.86.703.316 1.129.921 1.563 1.097 1.34.535 2.343-1.496 3.027-2.098 3.34-2.937 8.351-5.75 8.027-5.562 4.754-2.82 17.34-.567 17.34 2.289 0 1.289-.898 1.332-2.105 1.594-4.414.96-5.47-.02-9.45-.09-4.304-.074-9.02.965-12.754 3.008-4.199 2.289-.886 6.535-5.582 10.12-2.71 2.071-3.308 2.106-4.043 2.216m94.356 5.484c1.855-.082 10.406-1.09 11.262.66.656 1.356-.559 3.89-.727 5.277-.285 2.387.965 3.664.774 5.489l-1.047.52c-.157 1.034-.41 2.152-.493 3.156-.125 1.44.075 2.066-.308 3.535-3.774.511-7.692-2.309-9.543-5.067-.559-.836-1.012-2.867-1.578-3.41-1.957 4.012 4.738 7.024 5.312 8.586 1.977 5.313-13.093-5.195 18.957 28.816l.785-.62c1.196 1.046-.289 1.511 12.778 2.597 4.73.39 9.695.809 14.469.957 1.925.059 5.257.852 6.812-.082 1.238-.746 2.535-3.219 5.14-2.367 2.65.867 5.75 3.012 5.524 6.027-.101 1.324-.738 2.016-.937 3.18 2.82 1.484 6.816 6.148 7.527 9.754l-1.367.543c-1.61-2.387-1.907-4.266-4.973-7.137-3.281-3.066-3.933-3.965-7.984-2.398.633 5.605 3.289 10.757 4 13.011 2.148 0 4.136-.16 6.234.219 1.473.266 4.008 1.371 5.024 1.191-.243-1.113-1.88-2.53-4.614-2.543 1.352-2.835 8.055-3.562 11.164-2.902 1.625.344 4.657 1.68 3.614.766-.68-.578-1.871-.785-1.832-1.828 2.257-.934 7.101.808 9.046 1.558-.382-.945-.582-.426-1.878-1.414-.528-.406-.473-.465-.547-.668 3.12-1.039 9.039 0 13.355 3.91.524.477 6.547 6.657 7.004 7.004.461-.379 3.363-4.898 5.027-6.804 2.442-2.809 3.703-4.418 7.88-3.872 2.91.38 4.906 9.407 4.976 12.149.125 4.976.418 8.527-4.922 8.937 1.727 3.266 7.578 5.438 7.578 12.426 1.516 1.164 6.508 4.113 7.637 5.32-2.875 1.426-6.942.118-8.074 2.622-.434.957-.848 1.418-1.356 2.296-1.707 2.95-3.277 7.067-5.316 9.168-2.196 2.262-4.38 1.137-6.692 4.13-7.527 9.734-8.254 13.206-9.863 15.421-1.383 1.899-3.113.688-5.805 1.172-2.586.469-3.547-.344-4.601-2.047-5.617-9.078 3.945-7.37 2.23-22.824-.304-2.734-.472-4.055.29-6.555-1.587.426-3.618 3.196-10.063 10.739-4.555 5.289-9.934 10.496-13.028 16.625-2.316 4.586-1.613 12.273-2.832 14.12-1.39-.687-.218-2.132-2.671 2.005-.489.82-.637.613-.504 1.636.343 2.63-2.067 5.828-3.164 8.88 3.097 4.445 21.32 13.421 26.484 16.827 14.676 9.7-10.387 25.684-15.66 40.68-1.68 4.781-.39 3.406-6.156 6.926-1.692 1.035-3.18 2.808-5.336 3.387-1.645.44-5.567 1.613-7.114 1.59-1.183-3.739 2.473-10.86 3.743-13.946 2.843.082 4.48 2.188 6.953 1.813 1.293-1.079 1.047-2.825.601-4.559-.648-2.543.184-2.895 2.14-3.508 2.02-.633 1.88-1.531 2.731-3.219 7.168-14.21 10.598-17.82 7.914-20.375-4.007-3.804-15.109-2.058-34.367-12.035-.637-.328-.57-.136-.625-.937l-2.695-.5c-9.192 20.332-9.895 19.593-12.277 25.472-1.207 2.97.011 2.993-.387 5.211-.278 1.54-1.887 2.903-2.672 3.762-1.207 1.316-.715 2.074-3.191 9.371-6.016 17.91-3.665 17.078-2.567 32.656 2.64.047 2.879.016 4.254 2.52.64 1.16 1.898 3.422 2.05 4.98-4.07.743-8.234.45-12.312 1.153l.285.625-5.605.281c-1.668-4.922 3.281-6.2 3.121-8.332-.082-1.117-1.355-3.477-1.86-4.273-.69-1.086-2.952-2.665-3.073-3.067-.176-2.223 3.933-12.371 4.828-14.922 5.023-14.355 1.855-15.754 3.523-25.965.527-3.25 4.242-13.879 3.211-26.273-.406-4.879-.473-4.195-4.832-4.95-10.98-1.905-27.758-2.378-48.688-10.784-1.359-.547-2.464-.813-4.05-.864-2.305-.07-2.47.301-3.598 1.364.066-1.493 3.813-16.29-9.676-28-.46-.399-.996-.84-1.617-1.133l1.3 1.62c9.9 11.087 7.04 24.372 6.466 30.368-.207 2.168-.89 2.602-1.676 4.285-8.063 17.2-22.664 27.512-21.027 26.278-.895-1.43-1.489-5.125-2.063-7.04-.39-1.296-.465-1.16-.031-2.417.781-2.27 2.52-7.06 2.953-9.247-1.102-.93-1.172-1.191-3.45-4.902-4.574-7.363-3.538-2.973-4.116-21.469-.797-25.187.27-20.382-3.68-26.207-.828-1.222-.547-1.57-2.305-2.058-3.234-.883-10.34-3.367-7.433-7.871 3.168-4.88 7.058-2.996 9.464-7.637 1.442-2.781-.304-1.625 3.758-13.324.914-2.633 4.004-10.492 4.395-12.575-6.035-.96-12.586-2.093-18.664-2.46.91-1.704 7.98-8.715 11.199-13.41l-3.379 2.98c-8.145 7.37-15.738 11.012-16.781 11.902l24.148 2.738c-.015.704-1.691 5.692-2.02 6.754-4.495 14.422-2.206 15.934-8.417 18.442-2.243.906-4.34 1.898-5.567 3.328-6.41 7.433-2.226 12.64 6.867 13.922-1.136.855-37.789 6.43-45.84 8.851 2.512.332 19.247-2.703 47.235-4.488 1.031 2.727 2.938 5.457 4.121 8.082.774 1.73-.57 27.156.027 30.133.32 1.59.918 3.328 1.168 4.91l-.484.066c1.164.63 5.356 3.602 7.824 5.11-.328 1.496-1.676 4.344-2.308 5.922-1.551 3.863-1.961 1.394 1.78 12.3 3.583 6.56 2.579 4.34 3.102 5.399l-1.71-.434c.464 1.149 8.695 14.676 8.984 14.809 1.047.113 2.047.164 3.055.289 1.949.242 2.011 2.21 4.988 4.957 1.883 1.742 4.223 2.805 5.504 4.434.48.609 1.047 1.39 1.586 1.886.05 1.16-.559 2.754-.82 3.91l2.714-.18c1.645 3.97 3.332 5.63 9.582 8.356 9.094 3.98 24.395 6.961 31.696 8.778 1.75.437 2.046.226 2.37 2.175.137.829.993 7.625.938 7.965-4.398.817-25.894-.324-31.144-.316-11.77.008-34.012.8-45.02-2.735-12.285-3.945-11.562-1.214-35.152-12.992-4.965-2.492-9.293-4.926-10.406-5.468l-21.375-10.72c-5.762-2.878-5.454-1.933-8.137-7.902-7.965-17.683 2.113-30.832-10.727-45.27-3.074-3.472-3.722-3.312-3.957-3.917l22.707 4.254c.633-.867 9.598-13.73 10.551-14.465 11.832 3.75 13.227 4.332 23.188 6.813 3.437.859 21.394 5.042 24.94 4.992l-51.67-17.653c-.474 1.207-6.247 9.22-7.438 10.926-.743 1.055-.375 1.055-1.926 1.16-25.488 1.723-22.035 2.68-24.77.574-5.414-4.136-7.172-4.437-11.199-7.117-3.379-2.254-3.004-5.55-5.176-10.175-.312-.66-.816-1.434-1.066-2.067-.567-1.418.547-3.883.422-5.418-.125-1.625-2.54-1.785-3.196-3.129.504-.304 50.664-15.445 53.817-16.46 14.75-4.72 13.488-3.634-56.176 12.55-3.2.746-2.836.926-9.723 2.484-2.12.477-2.941 1.688-4.484 1.598-1.918-5.66.215-23.531-1.492-25.394-.547-.598-5.52-3.496-5.54-3.504-.046-2.2.497-6.91 2.13-7.555l60.457 1.242c-2.703 2.344-10.305 7.32-11.82 8.88-.946.968 8.796-4.118 29.187-10.267 17.465-5.27 30.996-7.058 32.379-7.484-1.02-.055-61.11 7.395-109.117 6.18.14-.387 4.628-5.043 3.53-16.989-.245-2.714.97-3.07 3.196-3.75 6.777-2.054 15.465-3.656 22.727-5.699 9.101-2.566 9.316-1.566 9.996-4.133 1.293-4.84.785-21.449 8.457-19.59 4.125.997 8.793 6.712 11.726 9.555 9.399 9.094 9.946 4.067 12.43 1.48 4.48-4.66 5.5 7.544 29.563-11.6 7.253-5.759 5.093-4.473 6.027-6.356 1.508-3.07 4.887-5.989 8.316-7.735 2.684-1.363 9.692-2.32 11.114-3.156l-2.82-2.058c17.855-2.508 18.53-4.434 24.765-5.5 3.562-.602 5.926.308 9.309.324 3.515.011 5.257-1.043 8.195-1.836 10.05-2.719 8.097-.203 15.832 2.308 1.848.606 6.277 1.778 8.348 1.618-4.082-.895-10.676-3.063-13.508-6.016.5-5.582 5.328-5.7 10.75-4.332 3.441.871 3.761 1.91 6.355.539 1.512-.8 1.125-.871 1.531-2.66.25-1.086.633-2.38.735-3.492-2.973-.711-2.668-.196-3.723-.493-1.129-.32-5.875-5.242-6.531-6.39-.93-1.645.183-2.059.426-3.258.722-3.547-1.793-5.219 3.93-9.144 12.898-8.864 16.28-6.141 24.855-2.344-.04-1.637-.055-1.54-.817-2.66-1.398-2.063.399-2.82 1.52-4.329.59-.789.777-1.394 1.973-1.636.453 1.875.066 2.242-.914 3.398-1.368 1.606-.497 1.91.336 3.145 1.171 1.734-.153 2.234.355 3.832.598 1.875.937 1.46.871 4.008-.18 6.945-6.004 2.378-12.789 4.296Zm0 0"></path><path fill="#FFF" fill-rule="evenodd" d="M575.871 483.273c.684-.191 1.356-.28 2.098-.343 6.816-.63 10.543 2.011 10.695-3.953.066-2.543-.273-2.133-.871-4.008-.508-1.598.816-2.098-.356-3.832-.832-1.239-1.703-1.54-.335-3.145.976-1.156 1.37-1.523.914-3.398-1.196.246-1.383.847-1.973 1.636-1.121 1.508-2.918 2.266-1.52 4.329.762 1.12.778 1.023.817 2.66-3.442-1.524-8.73-4.504-13.29-3.352-4.14 1.047-8.609 3.66-11.566 5.695-5.722 3.926-3.207 5.598-3.93 9.145-.241 1.2-1.355 1.613-.425 3.262.652 1.144 5.398 6.066 6.531 6.386.63.176 1.25.07 1.945.114.668.043 1.18.238 1.782.379-.106 1.113-.489 2.406-.739 3.492-.406 1.789-.02 1.86-1.535 2.66-2.59 1.371-2.91.332-6.351-.54-2.059-.519-5.227-.972-7.367-.444-1.938.476-3.184 2.566-3.383 4.777 2.836 2.95 9.426 5.121 13.508 6.016-2.07.16-6.5-1.012-8.348-1.618-7.735-2.511-5.781-5.027-15.832-2.308-2.938.793-4.68 1.851-8.195 1.836-3.38-.016-5.747-.926-9.31-.32-2.694.456-5.405 1.402-7.929 2.18-6.101 1.886-10.566 2.437-16.836 3.316l2.825 2.058c-.868.508-4.438 1.219-5.614 1.5-1.87.457-3.965.875-5.504 1.656-3.43 1.746-6.808 4.664-8.316 7.735-.281.57-.195.816-.414 1.336-.54 1.28-4.367 4.027-5.613 5.015-4.5 3.582-11.954 9.106-17.754 10.676-6.696 1.817-9.098-1.887-11.809.93-1 1.039-1.848 3.101-3.535 3.613-1.805.555-4.055-1.035-5.066-1.773l-3.829-3.325c-1.226-1.183-2.234-2.328-3.445-3.535-1.637-1.633-5.105-5.25-8.281-6.015-7.676-1.86-7.164 14.75-8.453 19.59-.657 2.46-2.117 2.085-4.489 2.656-1.836.441-3.707.968-5.511 1.476-7.262 2.043-15.95 3.645-22.727 5.703-2.226.676-3.441 1.032-3.195 3.746.465 5.047.086 10.32-2.2 14.918-.367.727-1.187 1.665-1.331 2.07 9.37.24 19.277.02 28.562-.273 22.656-.707 45.195-2.164 67.695-4.539 2.684-.281 10.832-1.476 12.86-1.367-1.043.32-2.985.527-4.203.762-1.45.273-2.828.527-4.258.808-8.04 1.61-16.168 3.579-23.918 5.914a305 305 0 0 0-25.82 9.07c-1.204.477-2.372 1.098-3.563 1.419l.195-.223c1.516-1.558 9.118-6.539 11.82-8.883l-60.456-1.238c-.664.262-.786.695-1.082 1.36-.313.699-.446 1.109-.625 1.816-.368 1.46-.454 2.777-.418 4.379.773.398 1.855 1.152 2.8 1.707.856.504 2.137 1.144 2.735 1.797 1.707 1.867-.426 19.734 1.492 25.394 1.543.09 2.363-1.121 4.484-1.598 1.637-.37 3.325-.73 4.93-1.18 1.57-.44 3.164-.925 4.793-1.304 1.746-.406 3.328-.621 5.063-1.05 6.472-1.61 13.097-3.055 19.613-4.634 2.219-.539 37.738-9.152 39.129-9.136-.453-.067-6.532 1.918-7.63 2.27-2.589.835-5.155 1.554-7.757 2.359-5.172 1.601-10.238 3.175-15.371 4.687l-23.133 7.043c-1.476.465-6.578 1.781-7.555 2.371.657 1.344 3.07 1.5 3.2 3.13.12 1.53-.993 4-.426 5.417.25.633.754 1.406 1.066 2.067 2.172 4.625 1.793 7.921 5.176 10.175 4.027 2.68 5.785 2.985 11.2 7.117.476.364 1.312 1.141 1.921 1.196 1.184.11 18.195-1.418 19.887-1.543.984-.074 1.937-.156 2.965-.227 1.547-.105 1.18-.105 1.922-1.164 1.191-1.703 6.964-9.715 7.437-10.922l51.672 17.653c-3.547.05-21.504-4.133-24.941-4.992-3.97-.993-7.915-2.008-11.786-3.2l-11.402-3.617c-.953.738-9.918 13.606-10.55 14.469l-22.712-4.25c.203.512 1.555 1.183 3.078 2.887.34.378.465.55.883 1.027 1.547 1.738 2.203 2.715 3.364 4.672 7.605 12.832.199 24.687 7.363 40.597 2.683 5.97 2.379 5.024 8.137 7.903l21.375 10.719c1.77.863 3.437 1.933 5.242 2.793 1.777.843 3.422 1.8 5.164 2.675 3.496 1.746 7.27 3.54 10.894 5.153 14.422 6.422 12.278 3.992 24.254 7.84 11.012 3.535 33.25 2.746 45.024 2.734 5.254-.012 26.746 1.133 31.144.316.055-.34-.8-7.133-.937-7.965-.325-1.949-.617-1.742-2.371-2.175-6.02-1.496-12.22-2.72-18.164-4.336-4.582-1.25-9.461-2.66-13.532-4.442-2.187-.953-4.21-1.96-5.879-3.187-1.695-1.246-2.726-2.809-3.703-5.168l-2.715.18c.262-1.157.871-2.75.82-3.915-.538-.492-1.109-1.273-1.585-1.882-1.281-1.63-3.621-2.696-5.504-4.434-2.977-2.742-3.04-4.719-4.988-4.96-1.008-.122-2.008-.173-3.055-.286-.29-.133-8.52-13.66-8.984-14.809l1.71.438c-.351-.715-.55-.7-.886-1.348l-2.215-4.054c-.711-2.075-1.414-4.196-2.106-6.262-1.222-3.637-1.09-2.524.325-6.04.632-1.573 1.98-4.425 2.308-5.921-1.238-.758-2.562-1.672-3.86-2.508-1.316-.844-2.608-1.867-3.964-2.602l.484-.07c-.25-1.582-.847-3.316-1.168-4.906-.597-2.977.747-28.402-.03-30.133-1.18-2.625-3.09-5.351-4.118-8.082a654 654 0 0 0-24.09 2.008c-3.207.324-21.687 2.676-23.14 2.48 7.585-2.285 43.472-7.886 45.57-8.707.035-.008.11-.004.133-.07.023-.059.093-.043.132-.07-2.664-.38-4.957-.989-6.816-2.262-1.523-1.043-3.418-2.813-3.144-5.711.222-2.406 2.011-4.695 3.093-5.953 1.227-1.43 3.325-2.422 5.567-3.328 4.746-1.918 4.625-3.723 5.613-7.989l2.805-10.453c.328-1.062 2.004-6.05 2.02-6.754l-24.15-2.738c.7-.594 1.907-1.168 2.762-1.68 5.016-3.003 9.723-6.335 14.02-10.222l3.379-2.98c-1.219 1.777-4.617 5.804-6.262 7.605-.39.433-.418.43-.726.828-1.141 1.488-3.43 3.516-4.211 4.977 6.078.37 12.629 1.503 18.664 2.46-.39 2.082-3.48 9.946-4.395 12.575-.793 2.277-2.676 7.562-2.863 10.035-.098 1.308-.36 2.262-.895 3.289-1.187 2.289-2.09 2.726-4.726 3.82-1.945.817-3.77 2.324-4.738 3.82-2.907 4.504 4.199 6.985 7.433 7.872 1.758.484 1.477.836 2.305 2.054 3.578 5.278 3.027 3.739 3.21 9.496.18 5.559.294 11.102.47 16.707.085 2.707.156 5.536.238 8.235.277 8.8-.438 6.285 3.879 13.234.586.961 1.043 1.653 1.593 2.586.641 1.074.954 1.559 1.856 2.32-.434 2.184-2.172 6.977-2.953 9.247-.434 1.253-.36 1.12.031 2.418.574 1.914 1.168 5.613 2.063 7.039l.918-.692c2.12-1.644 6.558-5.914 8.203-8.02l2.718-3.202c3.25-4.168 6.582-8.805 9.188-14.364.785-1.68 1.469-2.117 1.676-4.289.172-1.808.316-3.508.593-5.312 1.344-8.82-1.191-18.477-7.058-25.047l-1.3-1.621c.62.289 1.155.73 1.612 1.129 6.79 5.894 10.688 14.242 10.192 23.53-.082 1.571-.45 3.067-.512 4.47 1.129-1.063 1.293-1.434 3.598-1.364 1.586.047 2.687.317 4.05.864 7.336 2.949 14.926 5.148 22.813 6.843 9.91 2.133 16.992 2.399 25.871 3.942 4.363.758 4.434.066 4.836 4.949.488 5.898-.195 12.594-1.316 18.254-.54 2.758-1.442 5.226-1.899 8.02-1.664 10.21 1.504 11.609-3.52 25.96-.894 2.551-5 12.703-4.827 14.922.125.406 2.382 1.985 3.074 3.074.504.793 1.773 3.153 1.86 4.27.07.926-.68 1.594-1.126 2.012-1.762 1.668-2.922 3.59-1.996 6.32l5.605-.281-.285-.625c4.078-.7 8.242-.41 12.313-1.153-.153-1.554-1.41-3.82-2.055-4.984-1.371-2.5-1.61-2.473-4.25-2.516-.598-8.476-2.414-14.175-.43-22.918.743-3.265 1.954-6.632 2.997-9.738a129 129 0 0 0 1.511-4.777c.5-1.692.633-3.453 1.68-4.594.785-.86 2.394-2.223 2.672-3.762.394-2.218-.82-2.246.387-5.21.87-2.145 2.988-6.29 4.136-8.419a159 159 0 0 0 4.203-8.347l3.938-8.707 2.691.5c.059.8-.008.605.63.937 5.077 2.633 10.448 4.828 15.902 6.606 4.632 1.515 15.738 2.84 18.464 5.43 2.328 2.218-.64 6.628-1.742 8.59l-6.172 11.784c-.851 1.688-.71 2.586-2.73 3.22-1.957.612-2.785.964-2.14 3.503.445 1.738.695 3.484-.602 4.563-2.473.375-4.11-1.735-6.953-1.813-1.27 3.086-4.922 10.207-3.743 13.945 1.547.024 5.47-1.148 7.118-1.586 2.152-.582 3.64-2.355 5.332-3.386 5.765-3.524 4.476-2.149 6.156-6.93 3.547-10.082 14.906-19.484 19.219-28.578.843-1.785 1.168-5.438.503-7.442-.683-2.05-2.62-3.707-4.066-4.664-5.16-3.406-23.383-12.378-26.48-16.824.796-2.219 2.097-4.097 2.945-6.715.25-.789.336-1.289.223-2.164-.137-1.023.011-.816.5-1.636.382-.645 1.355-2.461 1.796-2.852.403.531.227.527.875.852.813-1.235.875-5.618 1.133-7.434.324-2.36.73-4.77 1.7-6.687 2.394-4.743 5.722-8.293 9.039-12.254.343-.414.671-.645 1.035-1.047l1.96-2.227c.376-.488.594-.637.997-1.101.402-.477.441-.61.965-1.13l2.933-3.34c1.227-1.562 4.465-5.816 6.16-6.269-.761 2.5-.593 3.82-.293 6.555 1.72 15.45-7.843 13.746-2.226 22.824 1.054 1.703 2.015 2.516 4.601 2.047 2.692-.484 4.422.727 5.805-1.172 1.004-1.383 1.637-3.05 2.543-4.605 1.844-3.157 3.668-6.035 5.71-8.766l1.61-2.05c2.317-2.993 4.496-1.872 6.692-4.13 2.043-2.101 3.61-6.218 5.312-9.168.512-.878.926-1.34 1.36-2.296 1.132-2.504 5.199-1.2 8.078-2.621-1.133-1.208-6.121-4.16-7.64-5.32 0-3.466-1.22-5.317-2.845-7.27-1.23-1.473-3.933-3.645-4.738-5.157 5.344-.41 5.05-3.96 4.926-8.937-.07-2.738-2.067-11.77-4.977-12.149-4.176-.543-5.433 1.063-7.879 3.872-1.664 1.91-4.566 6.425-5.027 6.8-.613-.457-1.418-1.304-1.969-1.925l-3.988-4.032c-.348-.336-.672-.703-1.05-1.043-1.75-1.586-3.79-2.84-6.348-3.593-1.793-.532-5.18-.926-7.004-.317.125.34.007.153.261.43.153.168.07.07.286.238.187.145.406.29.632.414.825.469.942.246 1.246 1-1.949-.754-6.789-2.492-9.046-1.558-.04 1.043 1.152 1.254 1.836 1.832.16.14.16.152.289.297-1.54-.196-2.504-.77-3.907-1.067-3.11-.66-9.812.067-11.164 2.902 1.215.004 1.969.118 2.895.66.75.442 1.527 1.005 1.719 1.883-1.016.176-3.551-.925-5.024-1.191-2.098-.383-4.09-.219-6.234-.219-.633-2.011-1.75-4.125-2.364-6.18-.617-2.085-1.378-4.554-1.636-6.831 1.418-.551 2.914-1.258 4.765-.313.852.438 2.473 2.012 3.22 2.707 3.066 2.875 3.362 4.754 4.976 7.14l1.363-.542c-.543-2.766-3.09-6.285-5.184-7.926-.789-.617-1.507-1.39-2.34-1.828.196-1.164.833-1.856.934-3.18.227-3.015-2.875-5.164-5.523-6.027-2.606-.852-3.903 1.62-5.145 2.367-1.55.938-4.883.14-6.808.078-4.774-.144-9.739-.562-14.47-.953-3.452-.285-6.952-.527-10.323-1.207-1.91-.379-1.34-.418-2.454-1.395l-.785.625-7.105-7.539c-1.086-1.02-1.778-2.12-2.79-3.144-.573-.578-.722-.828-1.308-1.477l-2.707-3.226c-1.441-1.676-7.64-9.13-6.902-10.57.62-.54 2.465-1.223 1.855-2.86-.574-1.562-7.27-4.574-5.308-8.586.562.543 1.015 2.574 1.574 3.41 1.851 2.758 5.77 5.578 9.543 5.067.383-1.465.183-2.094.308-3.536.082-1 .336-2.12.493-3.156l1.047-.52c.19-1.824-1.06-3.1-.774-5.488.168-1.386 1.383-3.921.727-5.277-.856-1.75-9.407-.742-11.262-.664Zm-11.297 27.602c-.562.594-1.566 1.77-1.808 2.777.07-1.109.703-2.53 1.175-3.406 1.032-1.894 2.008-1.402 2.278-2.492-.66-.61-1.809-.617-2.875-.719 2.351-1.723 4.465-.133 6.656.027 1.309.094 4.281-.636 5.262 2.59-1.235-.488-2-1.023-3.621-1.254-1.442-.21-2.961-.011-4.172.485-1.34.547-2.094 1.16-2.895 1.992m-61.027 8.695c3.316 0 6.414-.332 9.656-.77 3.29-.445 6.012-.362 9.207-1.245 5.133-1.426 8.348-5.043 15.672-5.043 10.895 0 8.941 9.176 24.348 7.933l-.223.215c-.633.524-2.004 1.05-2.762 1.309a13.4 13.4 0 0 1-3.406.73c-2.746.223-4.848-.476-6.934-1.535-6.406-3.234-6.66-4.555-14.859-4.555-4.933 0-5.687.985-8.691 2.508-6.29 3.176-18.016 1.805-24.938.957-.625-.074-1.355-.172-1.984-.25-.711-.094-1.219-.082-1.828-.398Zm53.812 8.223c2.036-1.023 6.176-1.426 8.809-1.375 6.086.125 9.941 1.453 13.77 6.285.875 1.102 2.957 4.89 3.324 6.637-.453-.375-.797-.77-1.242-1.215-.47-.473-.805-.715-1.278-1.164l-2.164-2.543c-1.308-1.348-3.351-2.906-5.394-4.027-6.043-3.32-9.762-2.828-15.825-2.598m-158.156 35.605c.2-.168-.148.024.332-.234.137-.074.211-.098.38-.156l2.358-.602c6.66-1.55 16.684-3.23 23.364-4.363l44.191-7.277c1.777-.29 1.695-.016 2.742-1.078 1.297-1.333 2.614-2.532 3.965-3.887 2.688-2.688 5.168-5.34 7.848-8.02l7.773-7.797c-.754 1.512-13.672 20.614-15.531 23.403-2.148 3.222-1.043 2.504-4.91 2.926l-42.184 4.55c-5.476.621-26.222 3.14-30.328 2.535m113.735 6.868c.285-.72.398-.493 1.308-1.578 1.746-2.102 4.781-4.883 6.664-6.942 1.594-1.734 9.246-4 11.692-4.523 3.402-.735 6.511-.45 9.902-.907 10.75-1.433 14.437-6.398 17.668-14.789.66-1.718.601-2.472 2.336-3.074 1-.348 3.101-1.055 4.129-1.121-.852.14-2.809 1.555-3.348 2.078-1.098 1.074-1.457 1.68-1.836 3.578-1.012 5.121-4.676 9.864-9.398 12.227-2.754 1.383-4.957 2.02-8.301 2.5-9.684 1.39-17.219 2.062-24.762 7.7-1.777 1.327-4.469 3.831-6.054 4.85m87.937-25.097c2.625 0 5.86-.113 8.36-.45 5.542-.741 10.003-1.07 15.374-1.695 1.325-.156 6.852-1.41 7.84-1.125 1.137.723 2.188 6.461 2.473 8.207.832 5.04 1.644 4.762 2.738 7.653-2.586-.238-4.12-.383-6.758.953-.918.465-2.535 1.488-3.02 2.426.954.176 1.923.562 2.852.836 1.098.32 2.192.422 2.578.957-1.109 1.12-5.593.156-8.437.918-1.937.52-4.727 2.215-5.848 3.558l.211.133c.04.024.184.09.239.106.168.062.367.097.546.14 2.407.613 4.383 1.367 6.637 2.36-3.164-.336-4.172-1.204-8.648-.43-1.91.336-5.852 1.691-6.824 2.75 2.48.453 3.59 1.25 3.656 3.972 1.758-.55 4.074-1.671 5.902-2.414 6.02-2.457 11.738-4.496 17.871-6.726 11.172-4.063 20.422-6.602 33.082-5.442 1.043.094 4.754.743 5.117.727-4.91.43-9.504.195-14.402.934-4.316.648-8.465 1.757-12.39 2.976-11.657 3.613-20.149 9.246-33.395 12.649-2.098.539-4.043 1.043-6.106 1.578-1.554.398-1.472.105-2.836-.407-1.625-.613-7.519-2.734-8.269-3.246-.445-.3-1.668-1.386-2.043-1.796-1.133-1.247-5.04-4.63-5.93-5.582-3.718-4.012-3.226-1.293-3.039-7.684.078-2.734-.86-4.367-1.25-6.664-.558-3.285-.402-8.965-.234-12.57 5.027.937 1.047 2.398 13.953 2.398m90.57 18.926c0-7.36 6.825-1.485 7.317 1.402.37 2.137-2.106 4.54-4.051 3.309-2.043-1.29-3.266-1.535-3.266-4.711m-130.78 15.781c-.743-.09-3.15-1.742-3.755-2.344-.453-.441-.527-.597-.941-.972-1.059-.954-2.43-3.223-2.934-5.086-1.164-4.309.004-9.977 2.102-12.95.027 4.743.027 7.883 1.363 12.278.547 1.777 1.098 3.285 1.86 4.941.421.914 1.882 3.73 2.304 4.133m28.262 47.27c-.446.605-2.067 2.816-2.719 3.253l10.59-32.015c1.43-4.297 2.738-7.305-1.11-12.004-1.117-1.371-.863-.848-2.34-2.895-2.921-4.039-2.574-2.543-5-5.64-.796-1.012-3.331-5.375-3.769-6.817 1.172.41 2.027 1.434 2.79 2.04l2.437 2.101c.57.512.925.95 1.511 1.45 1.13.968 2.04 1.987 3.149 2.96 2.203 1.953 3.87 3.906 6.234 5.98 4.688 4.106 4.446 6.508 1.992 12.79-1.191 3.043-2.437 5.605-3.695 8.511-2.441 5.641-6.676 15.653-10.07 20.286m83.75-10.7c.328-.707 1.613-2.386 2.304-3.715 3.762-7.168 2.528-7.699 1.82-14.117-.374-3.414-.484-7.77 1.286-10.168 1.316-1.78 4.855-3.511 7.902-3.715-2.504 1.586-6.187 4.825-6.148 9.192.055 5.555 5.297 7.187 6.965 8.336-.551.68-1.168 1.164-1.778 1.86-.59.679-1.086 1.144-1.715 1.773l-7.058 7.062c-.629.621-1.125 1.121-1.746 1.746-.735.727-1.094 1.367-1.832 1.746m-166.399-14.773c.133-2.363.72-5.035 1.461-7.047 2.926-7.922 8.235-8.86 16.219-8.86 4.594 0 21.387.391 23.848 1.356-.852.363-22.36 2.344-25.36 2.7-4.086.472-7.52 1.824-10.004 3.925-1.433 1.211-2.254 1.961-3.433 3.54a23 23 0 0 0-1.39 2.089c-.259.434-.423.715-.622 1.129l-.512.945c-.02.028-.086.145-.097.114-.02-.036-.075.074-.11.109m136.403 31.09c-1.543 3.039-3.258 5.156-4.883 7.847-1.988 3.286-.156 7.286.527 10.47-1.5-.84-5.465-4.75-5.969-6.31-.69-2.12 2.09-7.398 2.922-9.12 2.868-5.946 4.996-13.012 1.43-19.477a45 45 0 0 0-2.418-3.86c-2.437-3.5-8.406-10.082-11.562-12.855-.59-.516-1.098-.934-1.618-1.523l-4.015-3.657c-.309-.254-.485-.363-.766-.629-1.777-1.699-2.805-1.718-2.633-3.304 1.617.82 9.367 6.703 11.075 8.113l13.5 11.969c6.585 6.14 9.046 13.219 4.41 22.336m55.668-34.871c-.184.398-1.73 2.457-2.09 2.797-.426.41-2.469 1.285-3.113 1.542-.301-.375-1.649-3.128-1.352-3.675Zm-92.22 83.07c-.679 1.39-3.362 6.914-3.995 7.805.043-.965.703-3.125.965-4.2.355-1.43.683-2.75 1.047-4.183 2.039-8.156 4.136-16.906 6.304-24.914 2.84-10.516 4.352-15.852 1.524-26.778-.957-3.695-2.024-5.683-2.578-7.734 1.039.871 4.043 5.688 4.87 7.195 1.403 2.555 2.735 5.094 3.747 8.11 2.765 8.195 1.593 12.265-.973 19.87-2.59 7.696-7.273 17.38-10.91 24.829m-6.297-33.496c-.504-.535-1.492-2.274-1.898-2.985-.496-.851-.38-.554-1.489-.957-3.851-1.398-8.074-3.18-11.73-5.007-1.906-.953-1.5-.41-2.195-2.516-.672-2.047-.09-1.785-2.254-2.453-1.16-.356-2.61-.703-3.528-1.29l8.528 1.173c.05.863-.203.144 1.46 1.851 3.704 3.813 5.852 2.692 11.258 5.305 2.024.98 2.328 1.348 2.328 4.09 0 .875-.097 2.16-.48 2.789m-28.836-5.738c.293-1.352.91-2.75 1.293-4.184.313-1.156.547-3.117.953-4.113.336.699.504 2.504.723 3.453.265 1.152.648 2.062.926 3.12 5.351 1.259 12.937 4.638 16.566 7.423-1.402-.293-3.418-1.13-4.95-1.633-4.862-1.594-6.116-1.531-10.456-2.621-1.672-.418-3.48-1.121-5.055-1.445m-137.129 42.96c.41-.007 5.84-1.84 6.738-2.144l47.766-15.34c-1.473 1.063-3.351 2.063-4.902 3.094-1.582 1.055-3.164 2.055-4.742 3.105l-7.02 4.84c-.703.485-1.637 1.063-2.21 1.668.14.156.034.074.265.29l4.347 3.16c1.575 1.113 2.989 2.175 4.559 3.292l23.008 16.762c.832.61 1.46 1.078 2.3 1.707.68.504 1.516 1.047 2.145 1.66l-16.445-8.453c-2.703-1.46-5.5-2.765-8.18-4.219-1.426-.777-2.785-1.449-4.14-2.14-1.352-.692-2.59-1.43-4.004-2.094L461.07 683.5c-2.355-1.258-1.734-1.223-4.73-.918-2.957.305-21.152 2.285-22.473 2.106m205.82 23c.75.101 1.458.875 2.012.91l6.938-2.098c-.934.656-8.383 5.504-8.95 5.602Zm-45.828 32.027 3.7-2.399-1.446-6.886 2.364 5.78 2.28 2.419c-.284.273.02.09-.378.27l-3.047.41c-1.184.144-2.3.316-3.473.406"></path><path fill="#E4252B" fill-rule="evenodd" d="m337.281 926.047 406.145-.035V872.39h.304-406.449Zm236.211-44.68c1.649 0 5.88-.14 7.242.09v15.031c.614-.426 2.266-3.168 2.68-3.797l7.348-11.316 8.422-.008c-1.043 2.145-9.965 14.692-11.43 17.446.262.69 5.844 8.472 6.367 9.195l6.336 9.062-8.875.055c-.535-1.086-3.031-4.34-4.035-5.848l-6.813-9.5.004 15.285-7.246.063Zm-194.656-.172c3.937 0 19.027-.172 21.762.047v7.145l-14.473.004-.05 7.28c2.616 0 10.374-.116 12.425.048v7.074c-2.625.148-9.379.027-12.426.027l.008 14.242-7.246.063Zm56.863.18 25.074.04v7.073l-8.855.032v28.605l-7.281-.043V888.52l-8.895-.04Zm29.13-.008h10.288c7.332 0 12.055 7.52 9.043 13.235-.652 1.23-.902 1.214-1.656 2.015-.016.016-.024.531-.192.211-.015-.031-.066.07-.093.11 10.613 1.515 10.55 20.234-4.309 20.234h-13.082Zm198.308 0h10.3c5.184 0 9.946 4.145 9.946 9.246 0 3.32-.957 4.305-2.563 6.004-.008.016-.02.531-.187.211-.016-.031-.063.07-.102.11 10.621 1.515 10.555 20.234-4.293 20.234h-13.09Zm-170.922 17.274c0-5.426 2.898-9.95 5.465-12.5 3.55-3.516 7.593-5.47 13.894-5.47 9.504 0 18.137 8.5 18.137 17.97v1.394c0 9.36-8.742 17.79-18.137 17.79h-1.394c-9.313 0-17.965-8.5-17.965-17.79Zm-74.656 19.27c-6.461 0-12.297-5.044-13.254-11.786-.364-2.602-.133-20.54-.133-24.746l7.281-.012v22.156c0 9.489 13.258 9.395 13.258 0l.012-22.156 7.27.047c0 4.106.234 22.18-.138 24.719-.558 3.808-2.343 6.441-4.343 8.219-2.73 2.43-5.543 3.558-9.953 3.558m225.351 0c-6.457 0-12.293-5.043-13.25-11.785-.37-2.602-.133-20.54-.133-24.746l7.278-.012v22.156c0 9.489 13.261 9.395 13.261 0v-22.156l7.286.047v12.516c0 7.96 1.414 15.168-4.489 20.422-2.726 2.43-5.539 3.558-9.953 3.558m-108.484-36.543 6.629-.012.61.102v28.52l13.862-.008.653.054.004 7.07-.657.032h-21.101Zm69.59 0 6.629-.012.613.102-.004 28.52 13.867-.008.656.054v7.07l-.656.032H604.02Zm88.09 0 6.628-.012.61.102v35.606l-.614.062h-6.625Zm0 0"></path><path fill="#FFF" fill-rule="evenodd" d="M632.758 813.172c0 6.715 2.031 13.05 4.39 18.324 1.497 3.344 3.426 6.086 5.48 8.817l2.548 3.039c1.562 1.8 5.55 5.148 7.597 6.53 14.461 9.778 30.883 11.098 46.84 4.114 6.95-3.039 12.946-8.219 17.41-13.812 5.637-7.055 9.79-17.496 9.79-27.012v-2.793c0-5.871-2.106-13.879-4.461-18.387-2.438-4.668-4.383-8.023-8-11.887-.446-.48-.985-.91-1.43-1.359-2.43-2.453-3.3-3.113-6.254-5.262-2.02-1.472-4.656-2.98-7.203-4.136-7.2-3.274-12.742-4.317-20.969-4.317-13.562 0-26.348 7.067-34.625 16.66-2.512 2.914-5.078 6.7-6.715 10.371-3.37 7.536-4.398 12.528-4.398 21.11m46.96-29.91c15.692 0 28.727 12.828 28.677 28.511-.043 15.688-13.028 28.262-28.676 28.286-15.598.027-28.742-12.77-28.594-28.457.148-15.586 12.852-28.34 28.594-28.34M451.223 856.602h14.648c4.867 0 10.008.16 14.836-.047 25.055-1.075 43.941-15.649 43.95-44.782 0-11.886-3.009-21.941-10.098-30.363-8.137-9.656-20.946-13.972-33.77-14.531-4.695-.207-10.012-.149-14.738-.059-4.91.094-9.828.04-14.738.04Zm18.214-18.04-.03-53.78c3.44-.337 11.804-.044 15.25.558 8.058 1.406 15.05 5.7 18.675 13.058 1.95 3.957 2.926 8.106 2.922 13.204-.008 15.082-8.477 24.12-21.48 26.39-3.598.63-11.723.856-15.336.57M756.867 806.586c1.07.629 2.38 2.328 3.438 3.266 1.05.921 2.5 2.203 3.406 3.226l10.086 9.793c1.137 1.137 2.297 2.07 3.45 3.184 2.245 2.18 4.358 4.457 6.702 6.55 3.766 3.372 7.992 7.872 11.86 11.34.59.524 1.043 1.133 1.62 1.692l11.864 11.34c1.34 1.285 1.07 1.187 2.117 1.195v-91.574l-18.23.09v50.035c-.575-.243-.496-.192-1.055-.84-.988-1.149-3.016-2.934-4.195-4.008-.575-.516-1.043-1.129-1.617-1.691-1.118-1.106-2.27-2.137-3.438-3.192l-11.738-11.46c-2.875-2.958-6.957-6.571-10.117-9.77L750.898 776c-.546-.602-1.093-1.035-1.691-1.613-1.219-1.184-2.117-1.93-3.363-3.27-.559-.601-1.098-1.035-1.7-1.617a45 45 0 0 0-1.718-1.598c-1.824-1.601-2-2.785-3.75-2.785v91.66h18.176ZM380.809 806.586l16.93 16.285c1.136 1.137 2.296 2.07 3.445 3.184.582.562 1.035 1.164 1.617 1.691 3.87 3.48 8.105 7.984 11.867 11.34 2.344 2.09 4.457 4.371 6.707 6.55 1.152 1.118 2.309 2.052 3.445 3.18.598.594 1.004 1.141 1.625 1.684l5.082 4.863c.61.559 1.11 1.035 1.707 1.614 1.34 1.285 1.075 1.187 2.118 1.195v-91.574l-18.23.09v50.035c-.509-.22-.2-.004-.645-.387-.122-.102-.293-.32-.407-.453l-10.87-10.586c-.532-.543-1.141-1.09-1.712-1.602-3.433-3.117-6.812-6.699-10.11-9.777-2.366-2.203-4.23-4.234-6.788-6.473-.617-.539-1.012-1.058-1.625-1.683-2.594-2.625-7.79-7.223-10.121-9.762-.551-.602-1.098-1.035-1.696-1.613l-8.421-8.157c-.602-.648-.82-1.113-2.11-1.113l.043 91.66h18.137ZM292.059 844.043l36.207.016 5.68 12.546c5.648 0 14.488.172 19.75-.027l-5.419-11.629c-1.918-3.836-3.547-7.722-5.41-11.508-1.883-3.828-3.59-7.625-5.41-11.515l-26.445-56.211c-.453-1-.332-1.246-.899-1.207-.492.031-.57.66-.902 1.375-.23.496-.473.933-.68 1.398l-4.066 8.664c-5.102 11.34-11.137 23.235-16.211 34.551-5.918 13.203-12.926 27.086-18.938 40.371l-2.656 5.738 19.68-.039Zm18.187-39.215 10.942 23.863-21.993-.007ZM603.145 770.957c0 7.254-.079 14.797.144 21.98.223 7.25-.105 14.59.137 21.801.273 8.063.472 12.946-3.594 18.492-5.867 8.016-17.773 9.598-24.898 4.133-.52-.394-.524-.523-1.125-.785l-9.145 15.684c1.266 1.355 6.008 3.543 8.305 4.343 8.633 3 19.734 2.532 27.933-1.375 4.391-2.093 9.774-5.902 12.403-9.402.648-.86 1.261-1.52 1.894-2.465 3.739-5.535 6.489-12.394 6.477-19.55l-.371-56.989-18.16-.05ZM536.352 856.602h18.171l.016-89.825h-18.195Zm0 0"></path><path fill="#E4252B" fill-rule="evenodd" d="M600.875 545.168c-12.906 0-8.926-1.457-13.953-2.398-.168 3.605-.324 9.285.234 12.57.39 2.297 1.328 3.93 1.25 6.664-.187 6.39-.68 3.672 3.04 7.683.89.954 4.796 4.336 5.929 5.583.375.41 1.598 1.496 2.043 1.796.75.512 6.644 2.633 8.27 3.246 1.363.512 1.28.805 2.835.407 2.063-.535 4.008-1.04 6.106-1.578 13.246-3.403 21.738-9.036 33.394-12.649 3.926-1.219 8.075-2.328 12.391-2.976 4.899-.739 9.492-.504 14.402-.934-.363.016-4.074-.633-5.117-.727-12.66-1.16-21.91 1.38-33.082 5.442-6.133 2.23-11.851 4.27-17.87 6.726-1.829.743-4.142 1.864-5.903 2.414-.067-2.722-1.176-3.515-3.657-3.972.973-1.059 4.915-2.414 6.825-2.75 4.476-.778 5.484.094 8.648.43-2.254-.993-4.23-1.747-6.637-2.36-.18-.043-.378-.078-.546-.14a2 2 0 0 1-.239-.106l-.21-.133c1.12-1.343 3.91-3.039 5.847-3.558 2.844-.762 7.328.203 8.438-.918-.387-.535-1.481-.637-2.579-.957-.93-.274-1.898-.66-2.851-.836.484-.938 2.101-1.961 3.02-2.426 2.636-1.336 4.171-1.191 6.757-.953-1.094-2.89-1.906-2.613-2.738-7.653-.285-1.746-1.336-7.484-2.473-8.207-.988-.285-6.515.97-7.84 1.122-5.37.628-9.832.957-15.375 1.699-2.5.336-5.734.449-8.359.449"></path><path fill="#00226B" fill-rule="evenodd" d="M481.09 407.156c.262 1.469 2.262 2.469 3.586 3.133 1.527.77 3.031 1.734 4.465 2.516 3.046 1.656 5.945 3.304 8.93 5.015l4.417 2.387c5.266 3.816 3.785 2.188 9.278 4.68 1.554.707 3.308 1.379 4.836 2.133l6.902 3.386c.68.356 1.46.965 2.11 1.39 3.863 2.536 7.632-.323 7.679 6.36.039 5.375-6.531 4.918-.785 8.723 3.926 2.601 1.383.11 5.863 4.605.707.711.836 1.473 2.2 1.348 1.175-2.855-.094-3.203 2.593-5.93 2.836-2.859 1.242-4.406 2.41-6.312.766-1.254.785-1.656.91-3.3.282-3.911 1.16-3.599 6.77-6.298 4.84-2.332 6.262-3.695 11.875-5.383 2.176-.652 4.445-1.242 6.598-1.953 1.253-.414 9.18-4.707 11.507-5.765 2.313-1.043 3.817-1.54 6.422-2.293 10.469-3.016 7.832-3.536 11.844-5.418.844-.403 3.242-1.743 3.61-2.688.245-.64-.028-1.234-.735-1.238-.934-.016-4.059 2.379-5.559 3.148-3.437 1.774-9.07 3.504-12.89 4.559-2.352.648-4.074 1.601-6.586 1.973-8.86 1.3-9.215 1.214-17.563 4.058l-6.007 2.543c-1.368.492-1.918.395-3.09 1.27-7.106 5.324-7 2.007-13.817 2.593-3.16.278-4.55 1.13-7.496-.367a40 40 0 0 1-2.683-1.488c-.965-.602-1.461-1.242-2.575-1.793-1.035-.512-2.05-.809-3.097-1.266-1.035-.453-1.844-.976-2.942-1.414a73 73 0 0 0-6.37-2.18c-2.079-.609-4.723-1.472-6.805-1.921-2.602-.559-4.54-.469-7.157-1.387-2.406-.84-4.043-1.289-6.207-2.516-1.992-1.128-6.867-3.023-9.015-4.058-1.2-.578-1.797-1-3.426-.852"></path><path fill="#FFF" fill-rule="evenodd" d="M492.215 898.64v1.395c0 9.29 8.652 17.79 17.96 17.79h1.4c9.39 0 18.14-8.43 18.14-17.79v-1.394c0-9.47-8.633-17.97-18.14-17.97-6.302 0-10.348 1.954-13.895 5.47-2.567 2.55-5.465 7.074-5.465 12.5m16.887-10.551c6.816-1.195 12.175 3.832 13.105 9.344 1.137 6.726-3.762 12.011-9.32 12.964-6.813 1.168-12.297-3.699-13.219-9.28-1.133-6.806 3.777-12.044 9.434-13.028M663.148 917.172h13.09c14.848 0 14.914-18.719 4.297-20.235.035-.039.082-.14.098-.109.168.32.176-.195.187-.21 1.606-1.7 2.563-2.684 2.563-6.005 0-5.101-4.762-9.246-9.946-9.246h-10.304Zm7.258-28.719c3.18-.555 6.235.145 6.192 3.383-.04 3.055-3.118 4.078-6.215 3.402Zm0 21.586-.023-8.348c.972-.214 6.101-.132 7.074.07 4.766.985 4.477 6.938.082 8.126-1.074.293-5.965.355-7.133.152M464.828 917.172h13.082c14.86 0 14.922-18.719 4.309-20.235.027-.039.078-.14.094-.109.167.32.175-.195.19-.21.755-.802 1.005-.786 1.657-2.016 3.012-5.715-1.71-13.235-9.043-13.235h-10.289Zm7.258-28.719c3.18-.555 6.234.145 6.191 3.383-.039 3.055-3.113 4.078-6.214 3.402Zm-.02 13.238c1.055-.234 6.176-.144 7.215.098 4.653 1.074 4.266 7.035-.203 8.133-1 .246-5.914.308-7.012.117ZM417.555 917.91c4.41 0 7.226-1.129 9.953-3.558 2.004-1.778 3.789-4.41 4.347-8.22.372-2.538.137-20.616.137-24.718l-7.273-.047-.008 22.156c0 9.395-13.258 9.489-13.258 0v-22.156l-7.281.012c0 4.207-.23 22.144.133 24.746.953 6.742 6.793 11.785 13.25 11.785M642.91 917.91c4.41 0 7.227-1.129 9.953-3.558 5.903-5.254 4.489-12.461 4.489-20.422v-12.516l-7.286-.047v22.156c0 9.395-13.261 9.489-13.261 0v-22.156l-7.278.012c0 4.207-.234 22.144.133 24.746.957 6.742 6.797 11.785 13.25 11.785M573.492 917.129l7.246-.067-.004-15.285 6.813 9.5c1.004 1.508 3.5 4.762 4.035 5.852l8.875-.059-6.336-9.062c-.523-.723-6.105-8.504-6.367-9.196 1.465-2.753 10.387-15.3 11.43-17.445l-8.422.008-7.348 11.316c-.41.63-2.066 3.371-2.68 3.797v-15.031c-1.359-.23-5.593-.09-7.242-.09Zm0 0"></path><path fill="#00226B" fill-rule="evenodd" d="M474.07 479.633c1.97 0 3.664-.606 5.707-.906 1.125-.168 1.364-.356 2.172-.942.578-.418 1.32-.86 1.867-1.273 4.696-3.586 1.383-7.832 5.582-10.121 3.739-2.043 8.45-3.082 12.754-3.008 3.98.07 5.036 1.05 9.45.09 1.207-.262 2.105-.305 2.105-1.59 0-2.86-12.586-5.113-17.34-2.293l-3.375 2.027c-1.367 1.192-2.074 1.266-4.652 3.535-.684.598-1.688 2.633-3.027 2.098-.434-.18-.86-.781-1.563-1.098-.676-.304-1.516-.32-2.16-.62-1.188-.555-1.672-1.743-2.172-3.243-.469-1.406-.969-2.59-1.395-4.008-2.257-7.554-1.941-9.035-7.914-13.539-2.941-2.219-10.37-6.07-13.96-7.496-1.243-.492-2.75-.773-4.067-1.168-.852-.254-3.766-2.035-3.68-.387.082 1.551 7.157 6.305 8.72 7.387 1.737 1.207 3.073 1.992 4.562 3.461.476.469.898.797 1.472 1.309l2.883 2.535c.816.777 1.508 1.98 2.188 3.043 2.808 4.426 3.367 5.375 5.304 10.918.414 1.191.946 2.754 1.176 4.054.328 1.813 1.035 2.758.246 4.489-.719 1.586-.68 2.3-1.715 3.683-.89 1.192-1.422 3.063.832 3.063"></path><path fill="#FFF" fill-rule="evenodd" d="m521.035 387.75-6.762 12.297c8.946.11 7.657.808 9.118-1.875.402-.746.765-1.36 1.199-2.11 2.039-3.527 5.574-9.511 7.156-12.738 1.66-3.375 2.469-6.894.824-10.816-1.242-2.957-3.578-5.488-6.59-6.668-8.027-3.152-14.918 1.797-16.671 7.969-1.926 6.773 2.972 15.187 11.726 13.941m-1.187-15.719c6.488-1.832 9.324 8.11 2.715 9.961-6.477 1.809-9.547-8.031-2.715-9.96M534.86 388.625v.871c0 6.442 5.308 11.164 11.773 11.164h.867c6.324 0 12.035-5.078 12.035-12.21 0-5.583-4.789-10.766-10.633-10.466l-1.879.196 7.149-12.68c-1.965-.18-5.938-.07-8.129-.07-.758 1.742-1.992 3.75-2.977 5.496l-5.964 11.129c-.868 1.726-2.243 4.328-2.243 6.57m10.95-5.09c3.168-.945 5.847 1.18 6.535 3.567.91 3.168-1.266 5.699-3.61 6.41-6.586 1.996-9.824-7.926-2.925-9.977M561.352 392.621l18.03.016v7.5h7.013l.003-7.5h3.532l-.04-6.938-3.492.004v-9.637h-7.02l.005 9.579-7.469.058 8.809-20.379c-2.004-.168-5.309-.074-7.473-.074ZM378.84 917.129l7.242-.067-.008-14.242c3.047 0 9.801.121 12.426-.027v-7.074c-2.05-.164-9.809-.047-12.426-.047l.051-7.281 14.473-.004v-7.145c-2.735-.219-17.825-.047-21.758-.047Zm0 0"></path><path fill="#E4252B" fill-rule="evenodd" d="M509.102 888.09c-5.657.98-10.567 6.222-9.434 13.027.922 5.582 6.406 10.45 13.219 9.281 5.558-.957 10.457-6.238 9.32-12.964-.93-5.512-6.289-10.54-13.105-9.344M433.867 684.684c1.32.183 19.516-1.797 22.473-2.102 2.996-.305 2.37-.34 4.73.918l12.282 6.375c1.414.664 2.652 1.402 4.007 2.094 1.352.691 2.715 1.363 4.137 2.14 2.68 1.453 5.477 2.758 8.176 4.22l16.453 8.452c-.633-.613-1.469-1.156-2.148-1.66-.84-.629-1.47-1.098-2.305-1.707l-23.004-16.762c-1.574-1.117-2.984-2.18-4.559-3.293l-4.343-3.156c-.235-.219-.133-.137-.27-.293.574-.605 1.508-1.183 2.211-1.668l7.02-4.84c1.578-1.054 3.16-2.05 4.742-3.105 1.554-1.031 3.43-2.031 4.906-3.094l-47.77 15.34c-.898.3-6.328 2.137-6.738 2.14"></path><path fill="#FFF" fill-rule="evenodd" d="m435.742 888.48 8.895.04v28.562l7.281.043V888.52l8.855-.032v-7.074l-25.074-.039Zm0 0"></path><path fill="#E4252B" fill-rule="evenodd" d="M399.203 563.398c4.106.606 24.852-1.914 30.328-2.53l42.184-4.556c3.867-.421 2.762.297 4.91-2.93 1.86-2.788 14.777-21.886 15.531-23.398l-7.773 7.797c-2.68 2.68-5.16 5.336-7.848 8.02-1.351 1.355-2.668 2.554-3.965 3.886-1.047 1.063-.965.79-2.742 1.079l-44.191 7.277c-6.68 1.133-16.703 2.812-23.364 4.367l-2.359.598c-.168.058-.242.082-.379.156-.48.258-.133.063-.332.234"></path><path fill="#FFF" fill-rule="evenodd" d="M534.426 917.129h21.101l.657-.035-.004-7.07-.653-.055-13.863.008v-28.52l-.61-.102-6.628.012ZM604.02 917.129h21.105l.652-.035v-7.07l-.652-.055-13.871.008.004-28.52-.613-.102-6.63.012Zm0 0"></path><path fill="#E4252B" fill-rule="evenodd" d="M602.133 688.766c.633-.891 3.316-6.414 3.992-7.805 3.64-7.45 8.324-17.133 10.914-24.828 2.566-7.606 3.738-11.676.973-19.871-1.012-3.016-2.344-5.555-3.746-8.11-.825-1.507-3.832-6.324-4.871-7.195.554 2.047 1.62 4.04 2.578 7.734 2.824 10.926 1.316 16.262-1.524 26.778-2.168 8.004-4.265 16.758-6.304 24.914-.364 1.433-.692 2.754-1.047 4.183-.266 1.075-.922 3.235-.965 4.2M638.324 651.078c-.683-3.183-2.515-7.183-.527-10.473 1.625-2.687 3.34-4.804 4.883-7.843 4.636-9.117 2.175-16.196-4.41-22.336l-13.5-11.969c-1.711-1.41-9.457-7.293-11.075-8.113-.172 1.586.856 1.605 2.633 3.3.281.27.461.376.766.633l4.015 3.657c.52.586 1.028 1.007 1.614 1.523 3.16 2.773 9.129 9.352 11.566 12.852a47 47 0 0 1 2.418 3.863c3.566 6.465 1.438 13.535-1.43 19.476-.832 1.727-3.613 7-2.922 9.122.504 1.558 4.473 5.468 5.97 6.308"></path><path fill="#FFF" fill-rule="evenodd" d="M493.43 367.8v7.329l3.953-1.094.02 26.102h7.023l-.004-35.106c-4.102 0-6.895 1.817-10.992 2.77M692.102 917.129h6.625l.613-.067v-35.605l-.606-.102-6.632.012Zm0 0"></path><path fill="#E4252B" fill-rule="evenodd" d="M586.207 630.398c.652-.437 2.273-2.648 2.719-3.253 3.394-4.633 7.629-14.645 10.07-20.286 1.258-2.902 2.504-5.472 3.695-8.511 2.454-6.282 2.696-8.68-1.992-12.79-2.363-2.074-4.031-4.027-6.234-5.976-1.11-.977-2.02-1.996-3.149-2.965-.586-.5-.941-.937-1.511-1.449l-2.438-2.098c-.762-.61-1.617-1.633-2.785-2.043.434 1.442 2.969 5.805 3.766 6.817 2.425 3.097 2.078 1.601 5 5.64 1.476 2.047 1.222 1.524 2.34 2.895 3.847 4.703 2.539 7.707 1.109 12.004ZM503.547 519.57l-6.742-.144c.613.316 1.117.304 1.828.398.629.078 1.36.176 1.984.25 6.922.848 18.649 2.219 24.938-.957 3.004-1.523 3.758-2.508 8.691-2.508 8.2 0 8.457 1.32 14.86 4.555 2.085 1.059 4.187 1.758 6.937 1.535 1.21-.097 2.281-.344 3.406-.73.754-.258 2.125-.785 2.758-1.309l.223-.215c-15.407 1.242-13.453-7.933-24.348-7.933-7.328 0-10.539 3.617-15.672 5.043-3.195.883-5.918.8-9.207 1.246-3.242.437-6.336.77-9.656.77M506.277 601.672c.036-.035.09-.145.11-.11.015.032.078-.085.097-.113l.516-.945c.195-.414.36-.695.617-1.129.418-.707.906-1.445 1.39-2.09 1.18-1.578 2-2.328 3.434-3.539 2.485-2.101 5.918-3.453 10.004-3.926 3-.355 24.508-2.336 25.36-2.699-2.461-.965-19.254-1.355-23.848-1.355-7.984 0-13.293.937-16.219 8.859-.738 2.012-1.328 4.684-1.46 7.047M672.676 616.445c.738-.379 1.097-1.02 1.832-1.746.62-.62 1.117-1.12 1.742-1.746l7.063-7.066c.628-.625 1.128-1.09 1.714-1.77.61-.695 1.227-1.18 1.778-1.86-1.668-1.152-6.91-2.78-6.965-8.335-.04-4.371 3.644-7.606 6.148-9.192-3.047.204-6.586 1.934-7.902 3.715-1.77 2.399-1.66 6.754-1.285 10.172.707 6.418 1.941 6.946-1.82 14.113-.692 1.325-1.977 3.008-2.305 3.715M512.938 570.266c1.585-1.02 4.277-3.524 6.054-4.852 7.543-5.637 15.078-6.309 24.762-7.7 3.344-.476 5.547-1.116 8.3-2.5 4.723-2.362 8.387-7.105 9.4-12.226.378-1.902.737-2.504 1.835-3.578.54-.523 2.496-1.937 3.348-2.078-1.028.066-3.13.773-4.13 1.121-1.734.602-1.675 1.356-2.335 3.074-3.23 8.391-6.918 13.356-17.668 14.79-3.39.456-6.5.175-9.902.906-2.446.523-10.098 2.785-11.692 4.523-1.883 2.055-4.918 4.84-6.664 6.942-.91 1.09-1.023.859-1.308 1.578M545.805 383.535c-6.895 2.05-3.657 11.973 2.93 9.977 2.343-.711 4.519-3.242 3.609-6.41-.688-2.387-3.367-4.512-6.54-3.567M519.848 372.031c-6.832 1.93-3.762 11.77 2.715 9.961 6.613-1.851 3.773-11.793-2.715-9.96M472.066 910.04c1.098.19 6.012.132 7.012-.118 4.469-1.098 4.856-7.059.203-8.133-1.039-.242-6.16-.332-7.215-.098ZM670.406 910.04c1.168.202 6.059.14 7.133-.153 4.395-1.188 4.684-7.14-.082-8.125-.973-.203-6.102-.285-7.074-.07ZM599.832 647.465c.383-.63.48-1.914.48-2.79 0-2.741-.304-3.109-2.328-4.09-5.406-2.612-7.554-1.491-11.257-5.304-1.664-1.707-1.41-.988-1.461-1.851l-8.528-1.176c.918.59 2.367.937 3.528 1.293 2.164.668 1.582.406 2.254 2.453.695 2.105.289 1.563 2.195 2.516 3.656 1.828 7.879 3.609 11.73 5.007 1.11.403.992.106 1.489.957.406.711 1.394 2.45 1.898 2.985M560.664 579.875c-.422-.402-1.883-3.219-2.305-4.133-.761-1.656-1.312-3.164-1.859-4.941-1.332-4.395-1.332-7.535-1.363-12.278-2.098 2.973-3.262 8.641-2.102 12.95.504 1.863 1.875 4.132 2.934 5.086.414.375.488.53.941.972.606.602 3.012 2.254 3.754 2.344M557.36 527.793c6.062-.23 9.78-.723 15.824 2.598 2.039 1.12 4.086 2.68 5.394 4.027l2.164 2.543c.473.45.805.691 1.278 1.164.445.445.789.836 1.238 1.215-.363-1.746-2.446-5.535-3.32-6.637-3.829-4.832-7.684-6.16-13.77-6.285-2.629-.05-6.773.352-8.809 1.375M570.996 641.723c1.574.328 3.383 1.03 5.055 1.449 4.34 1.09 5.594 1.031 10.457 2.621 1.531.504 3.547 1.34 4.949 1.633-3.629-2.785-11.215-6.168-16.566-7.422-.278-1.059-.66-1.969-.926-3.121-.219-.95-.387-2.754-.723-3.457-.406 1-.64 2.957-.953 4.117-.383 1.434-1 2.832-1.293 4.18M691.445 564.094c0 3.176 1.223 3.422 3.266 4.71 1.945 1.231 4.422-1.171 4.05-3.308-.491-2.883-7.316-8.762-7.316-1.402M472.063 895.238c3.101.676 6.175-.347 6.214-3.402.043-3.238-3.011-3.938-6.191-3.383ZM670.383 895.238c3.101.676 6.176-.347 6.215-3.402.047-3.238-3.012-3.938-6.192-3.383ZM563.344 507.035c1.066.102 2.215.11 2.87.719-.265 1.09-1.245.598-2.273 2.492-.472.875-1.105 2.3-1.175 3.406.242-1.007 1.246-2.183 1.808-2.777.801-.832 1.555-1.445 2.895-1.992 1.21-.496 2.73-.695 4.172-.488 1.62.234 2.386.77 3.617 1.257-.977-3.226-3.95-2.496-5.258-2.59-2.191-.16-4.3-1.75-6.656-.027M691.793 598.555c-.297.547 1.05 3.3 1.352 3.675.644-.257 2.687-1.132 3.113-1.543.36-.343 1.906-2.398 2.09-2.796ZM639.688 707.688v4.414c.562-.098 8.015-4.946 8.949-5.602l-6.934 2.094c-.562-.032-1.27-.805-2.015-.907M597.559 737.316l-3.7 2.399c1.172-.09 2.29-.262 3.473-.406l3.043-.41c.402-.184.094.007.383-.27l-2.281-2.418-2.364-5.781Zm0 0" data-source="https://football-logos.cc"></path><!-- source: https://football-logos.cc --></svg>