<svg xmlns="http://www.w3.org/2000/svg" fill="none" viewBox="1 3 39.34 33.36"><!-- Source: https://football-logos.cc --><g clip-path="url(#a)" data-source="https://football-logos.cc"><g clip-path="url(#b)"><path fill="#fff" d="M40.341 14.016a3.752 3.752 0 0 0-4.512-3.672A16.68 16.68 0 0 0 9.14 9.065l-.017.002-1.675.894-.815 1.658.207 1.836.467.817-1.75 1.315-1.04 1.685-.934 1.511.056.441-1.193 1.757-.398 4.507L1 27.048l.18 1.972 2.131 1.662 2.083-2.122.008-1.291.69-2.574a16.684 16.684 0 0 0 32.416-7.458 3.75 3.75 0 0 0 1.833-3.221"></path><path fill="#FC0" d="m26.862 32.826.497 1.348a15.46 15.46 0 0 0 5.993-4.013l-1.054-.975a14 14 0 0 1-5.436 3.64"></path><path fill="#E60000" d="M22.006 33.69a14 14 0 0 1-3.8-.521l-.39 1.383a15.55 15.55 0 0 0 8.39-.003l-.39-1.383c-1.24.35-2.522.526-3.81.524"></path><path fill="#000" d="m11.72 29.193-1.054.975a15.46 15.46 0 0 0 5.997 4.01l.497-1.348a14 14 0 0 1-5.44-3.637"></path><path fill="#878787" d="m9.877 29.246 1.128-.89a13.95 13.95 0 0 1-2.803-6.27l-1.36.55a15.4 15.4 0 0 0 3.035 6.61M22.006 5.672a14 14 0 0 1 11.615 6.175c.288-.394.651-.728 1.068-.981a15.444 15.444 0 0 0-23.67-2.039l1.194.838a13.96 13.96 0 0 1 9.793-3.993M35.863 17.617q.152 1.026.152 2.064a13.95 13.95 0 0 1-3.003 8.668l1.128.89a15.38 15.38 0 0 0 3.312-9.558q0-1.035-.138-2.062a3.7 3.7 0 0 1-1.45-.002"></path><path fill="#000" d="M36.591 11.473a2.54 2.54 0 0 0-2.532 2.72l-.44.123-.71.36-2.777.293-2.074 1.534-.86-.021.407-.439-.357-.763-2.254.777.457.149.128.429-2.896 1.204-.639-.052-1.386.462.621-.994c-.8.208-2.544.675-2.544.675l-1.64.257-.356-.024-1.066-.64-.324-1.133 1.436-.983-.015-.273.556-.098 2.698.187.304.326.717.26.543-.064-.087-.305.413-.478-.587-1.064-1.086.174-3.309-.773-4.589.51-.074-.949-.423-.761.136-.694-.574-.91-.905-.373-1.07.134-1.075.662-.39.9.138 1.227.916 1.606-.087.023-.566.426.177.239.419.167-.8.465-.508-.337-1.117.84-.913 1.477.495.091-1.954 2.652-.112.395-.347.413-.391 4.431-.978 1.456.087.956.78.608.908-.925.006-.981 1.724-4.962.806-.676.23.109 2.096-1.219 2.331 1.34 2.377 2.11 1.633.967 3.752 3.255.721-.413.846.222 1.338-.278.502-.419 2.008-1.505 3.36.529.61-.192.206-.426-.073-.508-.618-.448-2.57-.914-.87-.427-.71.107-.445.416-.198.695-1.01.19-.537-.305.143-.425-.53-.597 1.542-1.138-.023-.399 2.617-2.147 1.685-1.35 1.956-.46 3.868-1.874.88.428.75-.13.418-.265a2.54 2.54 0 1 0 1.655-4.465m-27.12 2.92-.64-1.263h.388l.522-.632.18.434-.234.297.293.456-.195.293.25.272.096.533z"></path></g></g><defs data-source="https://football-logos.cc"><clipPath id="a"><path fill="#fff" d="M0 0h40v40H0z"></path></clipPath><clipPath id="b"><path fill="#fff" d="M1 0h39.341v40H1z"></path></clipPath></defs><!-- source: https://football-logos.cc --></svg>