<svg xmlns="http://www.w3.org/2000/svg" viewBox="34.48 231.82 719.04 719.04"><!-- Source: https://football-logos.cc --><path d="M544.86 397.89c0-137.443-111.417-248.86-248.86-248.86-137.442 0-248.86 111.417-248.86 248.86 0 137.442 111.418 248.86 248.86 248.86 137.443 0 248.86-111.418 248.86-248.86" style="fill:#ecb329;fill-opacity:1;fill-rule:nonzero;stroke:none" transform="matrix(1.33333 0 0 -1.33333 -.667 1121.853)" data-source="https://football-logos.cc"></path><path d="M29.824 397.89c0-146.77 119.406-266.176 266.176-266.176S562.175 251.12 562.175 397.89 442.77 664.065 296 664.065 29.824 544.66 29.824 397.89m34.633 0c0 127.673 103.87 231.543 231.543 231.543s231.543-103.87 231.543-231.543S423.673 166.347 296 166.347c-127.674 0-231.543 103.87-231.543 231.543" style="fill:#231f20;fill-opacity:1;fill-rule:nonzero;stroke:none" transform="matrix(1.33333 0 0 -1.33333 -.667 1121.853)"></path><path d="M27.054 397.89c0-148.297 120.649-268.947 268.946-268.947 148.296 0 268.946 120.65 268.946 268.947S444.296 666.835 296 666.835 27.054 546.187 27.054 397.89m5.541 0c0 145.242 118.163 263.404 263.405 263.404S559.405 543.132 559.405 397.89c0-145.243-118.163-263.405-263.405-263.405S32.595 252.647 32.595 397.89" style="fill:#97821f;fill-opacity:1;fill-rule:nonzero;stroke:none" transform="matrix(1.33333 0 0 -1.33333 -.667 1121.853)"></path><path d="M26.362 397.89C26.362 249.21 147.32 128.25 296 128.25S565.639 249.21 565.639 397.89 444.679 667.528 296 667.528 26.362 546.57 26.362 397.89m1.385 0c0 147.915 120.337 268.253 268.253 268.253S564.253 545.805 564.253 397.89c0-147.916-120.337-268.253-268.253-268.253S27.747 249.974 27.747 397.89" style="fill:#231f20;fill-opacity:1;fill-rule:nonzero;stroke:none" transform="matrix(1.33333 0 0 -1.33333 -.667 1121.853)"></path><path d="M31.902 397.89c0-145.624 118.474-264.098 264.098-264.098S560.097 252.266 560.097 397.89c0 145.623-118.473 264.097-264.097 264.097S31.902 543.513 31.902 397.89m1.386 0c0 144.859 117.853 262.712 262.712 262.712 144.86 0 262.712-117.853 262.712-262.712 0-144.86-117.853-262.713-262.712-262.713-144.86 0-262.712 117.853-262.712 262.713" style="fill:#231f20;fill-opacity:1;fill-rule:nonzero;stroke:none" transform="matrix(1.33333 0 0 -1.33333 -.667 1121.853)"></path><path d="M61.686 397.89C61.686 268.688 166.8 163.576 296 163.576c129.202 0 234.314 105.112 234.314 234.314 0 129.2-105.112 234.314-234.314 234.314-129.2 0-234.314-105.114-234.314-234.314m5.54 0c0 126.145 102.628 228.773 228.774 228.773S524.773 524.035 524.773 397.89c0-126.146-102.627-228.773-228.773-228.773S67.227 271.744 67.227 397.89" style="fill:#97821f;fill-opacity:1;fill-rule:nonzero;stroke:none" transform="matrix(1.33333 0 0 -1.33333 -.667 1121.853)"></path><path d="M60.993 397.89c0-129.583 105.424-235.007 235.007-235.007S531.006 268.307 531.006 397.89 425.583 632.896 296 632.896 60.993 527.473 60.993 397.89m1.386 0c0 128.819 104.802 233.62 233.621 233.62S529.621 526.71 529.621 397.89 424.82 164.269 296 164.269 62.379 269.07 62.379 397.889" style="fill:#231f20;fill-opacity:1;fill-rule:nonzero;stroke:none" transform="matrix(1.33333 0 0 -1.33333 -.667 1121.853)"></path><path d="M66.535 397.89c0-126.529 102.937-229.466 229.465-229.466S525.465 271.361 525.465 397.89c0 126.527-102.937 229.465-229.465 229.465S66.535 524.417 66.535 397.89m1.385 0c0 125.763 102.316 228.08 228.08 228.08s228.08-102.317 228.08-228.08S421.765 169.81 296 169.81 67.92 272.125 67.92 397.89" style="fill:#231f20;fill-opacity:1;fill-rule:nonzero;stroke:none" transform="matrix(1.33333 0 0 -1.33333 -.667 1121.853)"></path><path d="M245.715 303.69v-42.854c0-10.503 8.465-19.047 18.869-19.047s18.87 8.544 18.87 19.047v42.854c0 10.504-8.465 19.048-18.87 19.048-10.404 0-18.869-8.544-18.869-19.048m13.853-42.854v42.854c0 2.865 2.25 5.195 5.016 5.195s5.017-2.33 5.017-5.195v-42.854c0-2.864-2.25-5.195-5.017-5.195-2.765 0-5.016 2.331-5.016 5.195" style="fill:#231f20;fill-opacity:1;fill-rule:nonzero;stroke:none" transform="matrix(1.33333 0 0 -1.33333 -.667 1121.853)"></path><path d="M242.945 303.69v-42.854c0-12.03 9.708-21.818 21.639-21.818 11.932 0 21.64 9.788 21.64 21.818v42.854c0 12.031-9.708 21.819-21.64 21.819-11.931 0-21.64-9.788-21.64-21.819m5.542-42.854v42.854c0 8.976 7.222 16.278 16.098 16.278 8.877 0 16.099-7.302 16.099-16.278v-42.854c0-8.975-7.222-16.277-16.099-16.277s-16.098 7.302-16.098 16.277" style="fill:#97821f;fill-opacity:1;fill-rule:nonzero;stroke:none" transform="matrix(1.33333 0 0 -1.33333 -.667 1121.853)"></path><path d="M242.252 303.69v-42.854c0-12.412 10.018-22.51 22.332-22.51s22.332 10.098 22.332 22.51v42.854c0 12.413-10.018 22.511-22.332 22.511s-22.332-10.098-22.332-22.51m1.385-42.855v42.854c0 11.649 9.397 21.126 20.947 21.126s20.947-9.477 20.947-21.126v-42.854c0-11.648-9.397-21.125-20.947-21.125s-20.947 9.477-20.947 21.125" style="fill:#231f20;fill-opacity:1;fill-rule:nonzero;stroke:none" transform="matrix(1.33333 0 0 -1.33333 -.667 1121.853)"></path><path d="M247.793 303.69v-42.854c0-9.357 7.532-16.97 16.791-16.97s16.791 7.613 16.791 16.97v42.854c0 9.358-7.532 16.97-16.791 16.97s-16.791-7.612-16.791-16.97m1.386-42.854v42.854c0 8.594 6.91 15.585 15.405 15.585 8.496 0 15.406-6.991 15.406-15.585v-42.854c0-8.593-6.91-15.584-15.406-15.584-8.495 0-15.405 6.991-15.405 15.584" style="fill:#231f20;fill-opacity:1;fill-rule:nonzero;stroke:none" transform="matrix(1.33333 0 0 -1.33333 -.667 1121.853)"></path><path d="M256.798 303.69v-42.854c0-4.392 3.492-7.965 7.786-7.965s7.787 3.573 7.787 7.965v42.854c0 4.393-3.493 7.966-7.787 7.966s-7.786-3.573-7.786-7.966m5.54-42.854v42.854c0 1.337 1.008 2.425 2.246 2.425 1.239 0 2.246-1.088 2.246-2.425v-42.854c0-1.336-1.007-2.424-2.246-2.424-1.238 0-2.245 1.088-2.245 2.424" style="fill:#97821f;fill-opacity:1;fill-rule:nonzero;stroke:none" transform="matrix(1.33333 0 0 -1.33333 -.667 1121.853)"></path><path d="M256.105 303.69v-42.854c0-4.774 3.804-8.658 8.479-8.658 4.676 0 8.48 3.884 8.48 8.658v42.854c0 4.775-3.804 8.659-8.48 8.659-4.675 0-8.479-3.884-8.479-8.659m1.385-42.854v42.854c0 4.011 3.182 7.273 7.094 7.273s7.095-3.262 7.095-7.273v-42.854c0-4.01-3.182-7.272-7.095-7.272s-7.094 3.262-7.094 7.272" style="fill:#231f20;fill-opacity:1;fill-rule:nonzero;stroke:none" transform="matrix(1.33333 0 0 -1.33333 -.667 1121.853)"></path><path d="M261.646 303.69v-42.854c0-1.718 1.318-3.117 2.938-3.117s2.939 1.399 2.939 3.117v42.854c0 1.72-1.319 3.118-2.939 3.118s-2.938-1.399-2.938-3.118m1.385-42.854v42.854c0 .956.697 1.732 1.553 1.732s1.553-.776 1.553-1.732v-42.854c0-.955-.697-1.732-1.553-1.732s-1.553.777-1.553 1.732M308.543 303.69V287.75c0-8.156 8.289-14.545 18.87-14.545 1.71 0 3.394.182 5.019.514v-12.882c0-2.864-2.252-5.195-5.019-5.195s-5.017 2.331-5.017 5.195h-13.853c0-10.503 8.465-19.047 18.87-19.047s18.871 8.544 18.871 19.047v42.854c0 10.504-8.466 19.048-18.87 19.048-10.406 0-18.87-8.544-18.87-19.048m13.852-13.138v13.138c0 2.865 2.25 5.195 5.017 5.195s5.019-2.33 5.019-5.195v-13.099c-.012-1.576-.35-2.504-1.079-2.797-1.103-.477-2.502-.737-3.94-.737-1.757 0-3.077.358-3.951.747-.776.367-1.085 1.103-1.066 2.748" style="fill:#231f20;fill-opacity:1;fill-rule:nonzero;stroke:none" transform="matrix(1.33333 0 0 -1.33333 -.667 1121.853)"></path><path d="M305.773 303.69V287.75c0-9.71 9.505-17.316 21.64-17.316.744 0 1.497.168 2.248.23v-9.827c0-1.336-1.008-2.424-2.248-2.424-1.238 0-2.247 1.088-2.247 2.424a2.77 2.77 0 0 1-2.77 2.77h-13.853a2.77 2.77 0 0 1-2.77-2.77c0-12.03 9.707-21.818 21.64-21.818s21.642 9.788 21.642 21.818v42.854c0 12.031-9.708 21.819-21.642 21.819s-21.64-9.788-21.64-21.819m5.54-15.941v15.941c0 8.976 7.224 16.278 16.1 16.278 8.878 0 16.1-7.302 16.1-16.278v-42.854c0-8.975-7.222-16.277-16.1-16.277-7.938 0-14.513 5.853-15.822 13.507h8.583c1.108-3.02 3.906-5.195 7.24-5.195 4.294 0 7.788 3.573 7.788 7.965v12.882a2.772 2.772 0 0 1-3.325 2.714 22.4 22.4 0 0 0-4.464-.458c-9.027 0-16.1 5.172-16.1 11.775" style="fill:#97821f;fill-opacity:1;fill-rule:nonzero;stroke:none" transform="matrix(1.33333 0 0 -1.33333 -.667 1121.853)"></path><path d="M305.08 303.69V287.75c0-10.098 9.81-18.008 22.333-18.008l1.47.132.085.01v-9.047c0-.955-.697-1.731-1.555-1.731-.856 0-1.554.776-1.554 1.731a3.467 3.467 0 0 1-3.463 3.463h-13.853a3.467 3.467 0 0 1-3.463-3.463c0-12.412 10.019-22.51 22.333-22.51 12.315 0 22.335 10.098 22.335 22.51v42.854c0 12.413-10.02 22.511-22.335 22.511-12.314 0-22.333-10.098-22.333-22.51m1.385-15.942v15.941c0 11.649 9.398 21.126 20.948 21.126 11.552 0 20.948-9.477 20.948-21.126v-42.854c0-11.648-9.396-21.125-20.948-21.125-11.55 0-20.948 9.477-20.948 21.125a2.08 2.08 0 0 0 2.078 2.078h13.853a2.08 2.08 0 0 0 2.078-2.078c0-1.718 1.319-3.117 2.939-3.117 1.622 0 2.94 1.399 2.94 3.117v9.827a.68.68 0 0 1-.22.519.66.66 0 0 1-.53.172l-.909-.108-1.281-.12c-11.746 0-20.948 7.301-20.948 16.623" style="fill:#231f20;fill-opacity:1;fill-rule:nonzero;stroke:none" transform="matrix(1.33333 0 0 -1.33333 -.667 1121.853)"></path><path d="M310.621 303.69V287.75c0-6.991 7.377-12.468 16.792-12.468 1.518 0 3.066.16 4.603.472a2.08 2.08 0 0 0 2.493-2.035v-12.882c0-4.01-3.183-7.272-7.096-7.272-2.946 0-5.531 1.86-6.59 4.74a.69.69 0 0 1-.649.455h-8.583a.695.695 0 0 1-.683-.81c1.397-8.16 8.338-14.083 16.505-14.083 9.26 0 16.793 7.613 16.793 16.97v42.854c0 9.358-7.533 16.97-16.793 16.97s-16.792-7.612-16.792-16.97m1.386-15.941v15.941c0 8.594 6.91 15.585 15.406 15.585s15.408-6.991 15.408-15.585v-42.854c0-8.593-6.912-15.584-15.408-15.584-7.21 0-13.332 5.06-14.926 12.121h7.284c1.365-3.149 4.282-5.195 7.642-5.195 4.677 0 8.481 3.884 8.481 8.658v12.882a3.45 3.45 0 0 1-1.272 2.682c-.81.66-1.86.92-2.884.71a21.8 21.8 0 0 0-4.325-.443c-8.64 0-15.406 4.868-15.406 11.082" style="fill:#231f20;fill-opacity:1;fill-rule:nonzero;stroke:none" transform="matrix(1.33333 0 0 -1.33333 -.667 1121.853)"></path><path d="m319.626 303.69-.002-13.385c0-1.249.16-3.826 2.652-5.006 1.074-.477 2.775-1.013 5.138-1.013 1.808 0 3.596.342 5.037.964 1.786.718 2.731 2.518 2.751 5.322v13.118c0 4.393-3.494 7.966-7.788 7.966s-7.788-3.573-7.788-7.966m5.54 0c0 1.337 1.01 2.425 2.248 2.425 1.24 0 2.247-1.088 2.247-2.425v-13.099c0-.203-.016-.301-.027-.429a8 8 0 0 0-2.22-.335c-1.033 0-1.71.156-2.224.317l-.023.377c.004-.058 0 .088 0 .03z" style="fill:#97821f;fill-opacity:1;fill-rule:nonzero;stroke:none" transform="matrix(1.33333 0 0 -1.33333 -.667 1121.853)"></path><path d="m318.933 303.69-.002-13.385c0-2.778 1.025-4.673 3.048-5.631 1.615-.72 3.438-1.08 5.434-1.08 1.9 0 3.787.362 5.312 1.02 1.421.572 3.142 2.074 3.169 5.953v13.123c0 4.775-3.804 8.659-8.48 8.659s-8.481-3.884-8.481-8.659m3.625-17.758c-1.504.713-2.242 2.145-2.242 4.373l.002 13.385c0 4.011 3.183 7.273 7.095 7.273s7.095-3.262 7.095-7.273v-13.118c-.017-2.492-.796-4.07-2.317-4.68-1.371-.592-3.064-.914-4.778-.914-1.8 0-3.435.32-4.855.954z" style="fill:#231f20;fill-opacity:1;fill-rule:nonzero;stroke:none" transform="matrix(1.33333 0 0 -1.33333 -.667 1121.853)"></path><path d="M324.474 303.69v-13.138c.001-.073.024-.45.024-.45a.69.69 0 0 1 .486-.62c.521-.162 1.269-.348 2.43-.348.775 0 1.587.122 2.413.364.281.081.486.38.503.673l.023.416v13.103c0 1.72-1.318 3.118-2.94 3.118-1.62 0-2.939-1.399-2.939-3.118m1.385 0c0 .956.698 1.732 1.554 1.732.858 0 1.555-.776 1.555-1.732v-12.934c-.53-.12-1.06-.236-1.555-.236-.693 0-1.163.082-1.555.174zM225.029 573.042l70.97-208.838 70.98 208.858-26.34-.003-44.64-131.36-44.643 131.352z" style="fill:#231f20;fill-opacity:1;fill-rule:nonzero;stroke:none" transform="matrix(1.33333 0 0 -1.33333 -.667 1121.853)"></path><path d="m366.98 575.832-26.341-.002a2.77 2.77 0 0 1-2.623-1.88L295.999 450.31l-42.02 123.634a2.77 2.77 0 0 1-2.624 1.88l-26.327-.011a2.771 2.771 0 0 1-2.622-3.662l70.97-208.838a2.772 2.772 0 0 1 5.246 0l70.98 208.858a2.77 2.77 0 0 1-2.623 3.662m-3.867-5.542c-2.314-6.803-62.337-183.419-67.113-197.475l-67.103 197.457 20.476.008 44.003-129.473a2.77 2.77 0 0 1 5.247 0s42.76 125.83 44.002 129.481z" style="fill:#97821f;fill-opacity:1;fill-rule:nonzero;stroke:none" transform="matrix(1.33333 0 0 -1.33333 -.667 1121.853)" data-source="https://football-logos.cc"></path><path d="m366.98 576.524-26.341-.002a3.46 3.46 0 0 1-3.28-2.35L296 452.463l-41.363 121.703a3.46 3.46 0 0 1-3.282 2.35l-26.326-.01a3.47 3.47 0 0 1-2.815-1.447 3.47 3.47 0 0 1-.463-3.131l70.97-208.838a3.462 3.462 0 0 1 6.558 0l70.98 208.858a3.48 3.48 0 0 1-.463 3.13 3.47 3.47 0 0 1-2.816 1.448m-70.324-126.44 42.016 123.643a2.08 2.08 0 0 0 1.968 1.409l26.34.003c.669 0 1.3-.325 1.69-.869a2.09 2.09 0 0 0 .278-1.878l-70.981-208.858a2.076 2.076 0 0 0-3.934 0l-70.97 208.837a2.08 2.08 0 0 0 .278 1.88 2.08 2.08 0 0 0 1.688.867l26.327.01c.891 0 1.682-.566 1.97-1.41l42.018-123.634a.693.693 0 0 1 1.312 0z" style="fill:#231f20;fill-opacity:1;fill-rule:nonzero;stroke:none" transform="matrix(1.33333 0 0 -1.33333 -.667 1121.853)"></path><path d="M363.112 570.982h-20.488a.69.69 0 0 1-.656-.47L297.966 441.03a2.076 2.076 0 0 0-3.934 0l-44.004 129.472a.695.695 0 0 1-.657.47l-20.475-.007a.693.693 0 0 1-.656-.916l67.103-197.457a.693.693 0 0 1 1.312 0l67.112 197.475a.693.693 0 0 1-.655.916m-.967-1.385-66.146-194.631-66.137 194.613c1.358 0 18.088.006 19.014.008l43.844-129.004a3.463 3.463 0 0 1 6.558.001l43.842 129.01zM183.018 407.125c16.94 0 23.253-15.7 23.253-25.598v-.159c0-9.898-6.313-25.598-23.253-25.598h-32.909l.013 51.349h28.342zm29.101 15.007c7.098 8.247 10.948 18.908 10.948 29.395 0 21.965-16.684 44.544-44.603 44.544h-53.29V330.834h57.844c30.163 0 48.188 25.693 48.188 50.534v.159c0 15.253-6.796 30.827-19.024 40.576m-33.718 49.033c14.328 0 19.668-11.944 19.668-19.473 0-7.664-5.34-19.61-19.668-19.61H150.11v39.083z" style="fill:#231f20;fill-opacity:1;fill-rule:nonzero;stroke:none" transform="matrix(1.33333 0 0 -1.33333 -.667 1121.853)"></path><path d="m183.014 409.896-4.554-.007h-28.338c-1.53 0-2.77-1.24-2.77-2.77l-.013-51.348a2.77 2.77 0 0 1 2.77-2.772h32.909c18.958 0 26.023 17.4 26.023 28.369v.16c0 10.967-7.065 28.368-26.023 28.368zm-4.55-5.548 4.553.007c14.922 0 20.483-14.002 20.483-22.828v-.159c0-8.827-5.56-22.828-20.483-22.828H152.88l.012 45.808z" style="fill:#97821f;fill-opacity:1;fill-rule:nonzero;stroke:none" transform="matrix(1.33333 0 0 -1.33333 -.667 1121.853)"></path><path d="m183.013 410.588-4.555-.006h-28.336a3.47 3.47 0 0 1-3.463-3.463l-.013-51.348c0-.925.36-1.796 1.014-2.45a3.44 3.44 0 0 1 2.45-1.014h32.908c19.463 0 26.716 17.826 26.716 29.062v.159c0 11.236-7.253 29.06-26.716 29.06zm.005-1.385c18.454 0 25.33-16.975 25.33-27.675v-.16c0-10.7-6.876-27.675-25.33-27.675h-32.909c-.555 0-1.078.216-1.47.609a2.06 2.06 0 0 0-.607 1.47l.012 51.347a2.08 2.08 0 0 0 2.078 2.078h28.338l4.554.007z" style="fill:#231f20;fill-opacity:1;fill-rule:nonzero;stroke:none" transform="matrix(1.33333 0 0 -1.33333 -.667 1121.853)"></path><path d="M178.463 405.04h.001-25.571a.69.69 0 0 1-.694-.692l-.011-45.808a.69.69 0 0 1 .692-.692h30.138c15.426 0 21.174 14.426 21.174 23.52v.16c0 9.093-5.748 23.52-21.174 23.52zm.001-1.384 4.555.007c14.416 0 19.789-13.578 19.789-22.136v-.159c0-8.558-5.373-22.135-19.79-22.135h-29.445l.012 44.422z" style="fill:#231f20;fill-opacity:1;fill-rule:nonzero;stroke:none" transform="matrix(1.33333 0 0 -1.33333 -.667 1121.853)"></path><path d="M125.174 498.842c-1.53 0-2.77-1.24-2.77-2.77V330.833a2.77 2.77 0 0 1 2.77-2.77h57.844c31.897 0 50.958 27.103 50.958 53.304v.16c0 15.811-6.749 30.874-18.073 40.947 6.319 8.285 9.934 18.707 9.934 29.053 0 23.258-17.719 47.314-47.373 47.314zm53.29-5.542c26.185 0 41.833-21.238 41.833-41.772 0-9.943-3.746-19.998-10.278-27.588a2.75 2.75 0 0 1-.64-1.795q0-.142.013-.286c.07-.75.474-1.452 1.063-1.921 11.09-8.844 17.98-23.56 17.98-38.41v-.16c0-23.478-16.989-47.763-45.417-47.763h-55.074V493.3z" style="fill:#97821f;fill-opacity:1;fill-rule:nonzero;stroke:none" transform="matrix(1.33333 0 0 -1.33333 -.667 1121.853)"></path><path d="M125.174 499.534a3.467 3.467 0 0 1-3.463-3.463V330.834a3.47 3.47 0 0 1 3.463-3.463h57.844c32.33 0 51.651 27.455 51.651 53.997v.16c0 15.8-6.524 30.71-17.883 41.044 6.263 8.429 9.744 18.672 9.744 28.956 0 23.598-17.978 48.006-48.066 48.006zm-2.077-168.7v165.237a2.08 2.08 0 0 0 2.077 2.078h53.29c29.22 0 46.682-23.704 46.682-46.621 0-10.185-3.479-20.353-9.794-28.633a.69.69 0 0 1 .09-.938c11.339-10.085 17.842-24.82 17.842-40.43v-.159c0-25.861-18.802-52.611-50.266-52.611h-57.844a2.08 2.08 0 0 0-2.077 2.077" style="fill:#231f20;fill-opacity:1;fill-rule:nonzero;stroke:none" transform="matrix(1.33333 0 0 -1.33333 -.667 1121.853)"></path><path d="M127.944 493.994a.69.69 0 0 1-.692-.694V333.605c0-.383.31-.692.692-.692h55.074c28.862 0 46.11 24.636 46.11 48.455v.16c0 15.054-6.99 29.98-18.241 38.95-.453.362-.755.902-.805 1.446l-.01.221c0 .512.167.988.472 1.344 6.638 7.713 10.445 17.932 10.445 28.039 0 20.874-15.905 42.466-42.525 42.466zm50.52-1.386c25.751 0 41.14-20.886 41.14-41.08 0-9.78-3.685-19.67-10.11-27.136a3.44 3.44 0 0 1-.808-2.247l.016-.35c.087-.925.569-1.8 1.321-2.4 10.93-8.714 17.72-23.224 17.72-37.868v-.159c0-23.137-16.73-47.07-44.725-47.07h-54.38v158.31z" style="fill:#231f20;fill-opacity:1;fill-rule:nonzero;stroke:none" transform="matrix(1.33333 0 0 -1.33333 -.667 1121.853)"></path><path d="M150.11 473.907a2.77 2.77 0 0 1-2.771-2.77v-39.083a2.77 2.77 0 0 1 2.77-2.77h28.355c16.347 0 22.439 13.726 22.439 22.38 0 8.6-6.092 22.243-22.439 22.243zm28.355-5.542c12.31 0 16.898-10.245 16.898-16.702 0-4.684-3.036-16.838-16.898-16.838H152.88v33.54z" style="fill:#97821f;fill-opacity:1;fill-rule:nonzero;stroke:none" transform="matrix(1.33333 0 0 -1.33333 -.667 1121.853)"></path><path d="M150.11 474.6a3.467 3.467 0 0 1-3.464-3.463v-39.083a3.467 3.467 0 0 1 3.463-3.463h28.355c16.852 0 23.131 14.152 23.131 23.072 0 8.867-6.28 22.937-23.13 22.937zm-2.077-42.546v39.083a2.08 2.08 0 0 0 2.077 2.077h28.355c15.843 0 21.746-13.219 21.746-21.55 0-8.387-5.903-21.688-21.746-21.688H150.11a2.08 2.08 0 0 0-2.077 2.078" style="fill:#231f20;fill-opacity:1;fill-rule:nonzero;stroke:none" transform="matrix(1.33333 0 0 -1.33333 -.667 1121.853)"></path><path d="M152.88 469.058a.69.69 0 0 1-.693-.693v-33.54c0-.383.31-.693.693-.693h25.584c14.43 0 17.59 12.655 17.59 17.531 0 6.725-4.775 17.395-17.59 17.395zm25.584-1.385c11.806 0 16.204-9.82 16.204-16.01 0-4.491-2.91-16.145-16.204-16.145h-24.892v32.155zM418.623 407.125c16.94 0 23.254-15.7 23.254-25.598v-.159c0-9.898-6.314-25.598-23.254-25.598h-32.908l.013 51.349h28.341zm29.102 15.007c7.096 8.247 10.948 18.908 10.948 29.395 0 21.965-16.684 44.544-44.604 44.544h-53.29V330.834h57.844c30.164 0 48.189 25.693 48.189 50.534v.159c0 15.253-6.796 30.827-19.025 40.576m-33.718 49.033c14.33 0 19.668-11.944 19.668-19.473 0-7.664-5.339-19.61-19.668-19.61h-28.354v39.083z" style="fill:#231f20;fill-opacity:1;fill-rule:nonzero;stroke:none" transform="matrix(1.33333 0 0 -1.33333 -.667 1121.853)"></path><path d="m418.62 409.896-4.555-.007h-28.337a2.77 2.77 0 0 1-2.77-2.77l-.014-51.348a2.77 2.77 0 0 1 2.77-2.772h32.909c18.958 0 26.024 17.4 26.024 28.369v.16c0 10.967-7.066 28.368-26.024 28.368zm-4.55-5.548 4.554.007c14.921 0 20.483-14.002 20.483-22.828v-.159c0-8.827-5.562-22.828-20.483-22.828h-30.137c0 4.678.011 41.132.011 45.808z" style="fill:#97821f;fill-opacity:1;fill-rule:nonzero;stroke:none" transform="matrix(1.33333 0 0 -1.33333 -.667 1121.853)"></path><path d="m418.618 410.588-4.554-.006h-28.336a3.466 3.466 0 0 1-3.463-3.462l-.014-51.349c0-.925.36-1.796 1.015-2.45a3.44 3.44 0 0 1 2.449-1.014h32.908c19.463 0 26.717 17.826 26.717 29.062v.159c0 11.236-7.254 29.06-26.717 29.06zm.005-1.385c18.455 0 25.331-16.975 25.331-27.675v-.16c0-10.7-6.876-27.675-25.331-27.675h-32.908c-.547 0-1.082.22-1.47.609a2.06 2.06 0 0 0-.609 1.47l.014 51.348a2.08 2.08 0 0 0 2.078 2.077h28.337l4.555.007z" style="fill:#231f20;fill-opacity:1;fill-rule:nonzero;stroke:none" transform="matrix(1.33333 0 0 -1.33333 -.667 1121.853)"></path><path d="M414.068 405.04h-25.57a.69.69 0 0 1-.693-.692l-.01-45.808a.69.69 0 0 1 .691-.692h30.137c15.427 0 21.175 14.426 21.175 23.52v.16c0 9.093-5.748 23.52-21.175 23.52zm0-1.384 4.555.007c14.417 0 19.79-13.578 19.79-22.136v-.159c0-8.558-5.373-22.135-19.79-22.135h-29.444l.01 44.422z" style="fill:#231f20;fill-opacity:1;fill-rule:nonzero;stroke:none" transform="matrix(1.33333 0 0 -1.33333 -.667 1121.853)"></path><path d="M360.78 498.842a2.77 2.77 0 0 1-2.771-2.77V330.833a2.77 2.77 0 0 1 2.77-2.77h57.844c31.898 0 50.959 27.103 50.959 53.304v.16c0 15.811-6.75 30.874-18.074 40.947 6.32 8.285 9.935 18.708 9.935 29.053 0 23.258-17.72 47.314-47.374 47.314zm53.29-5.542c26.185 0 41.833-21.238 41.833-41.772 0-9.943-3.746-19.998-10.277-27.588a2.74 2.74 0 0 1-.641-1.795q0-.142.014-.286c.07-.75.473-1.452 1.062-1.921 11.09-8.844 17.98-23.56 17.98-38.41v-.16c0-23.478-16.988-47.763-45.417-47.763H363.55V493.3z" style="fill:#97821f;fill-opacity:1;fill-rule:nonzero;stroke:none" transform="matrix(1.33333 0 0 -1.33333 -.667 1121.853)"></path><path d="M360.78 499.534a3.467 3.467 0 0 1-3.464-3.463V330.834a3.47 3.47 0 0 1 3.464-3.463h57.843c32.332 0 51.652 27.455 51.652 53.997v.16c0 15.8-6.524 30.71-17.883 41.044 6.262 8.43 9.744 18.673 9.744 28.956 0 23.598-17.98 48.006-48.067 48.006zm-2.077-168.7v165.237a2.08 2.08 0 0 0 2.078 2.078h53.29c29.22 0 46.681-23.704 46.681-46.621 0-10.184-3.479-20.352-9.793-28.633a.693.693 0 0 1 .09-.938c11.338-10.085 17.841-24.82 17.841-40.43v-.159c0-25.861-18.802-52.611-50.266-52.611H360.78a2.08 2.08 0 0 0-2.078 2.077" style="fill:#231f20;fill-opacity:1;fill-rule:nonzero;stroke:none" transform="matrix(1.33333 0 0 -1.33333 -.667 1121.853)"></path><path d="M363.55 493.994a.693.693 0 0 1-.693-.694V333.605c0-.383.31-.692.693-.692h55.073c28.862 0 46.11 24.636 46.11 48.455v.16c0 15.055-6.99 29.98-18.242 38.95-.452.362-.753.902-.803 1.446l-.012.22c0 .512.169.989.474 1.344 6.638 7.714 10.445 17.934 10.445 28.04 0 20.874-15.906 42.466-42.526 42.466zm50.52-1.386c25.753 0 41.141-20.886 41.141-41.08 0-9.78-3.685-19.67-10.11-27.136a3.44 3.44 0 0 1-.808-2.247l.016-.354c.087-.92.568-1.796 1.32-2.395 10.93-8.715 17.72-23.225 17.72-37.869v-.159c0-23.137-16.73-47.07-44.725-47.07h-54.38v158.31z" style="fill:#231f20;fill-opacity:1;fill-rule:nonzero;stroke:none" transform="matrix(1.33333 0 0 -1.33333 -.667 1121.853)"></path><path d="M385.715 473.907a2.77 2.77 0 0 1-2.77-2.77v-39.083a2.77 2.77 0 0 1 2.77-2.77h28.354c16.347 0 22.44 13.726 22.44 22.38 0 8.6-6.092 22.243-22.44 22.243zm28.354-5.542c12.311 0 16.898-10.245 16.898-16.702 0-4.684-3.035-16.838-16.898-16.838h-25.584v33.54z" style="fill:#97821f;fill-opacity:1;fill-rule:nonzero;stroke:none" transform="matrix(1.33333 0 0 -1.33333 -.667 1121.853)"></path><path d="M385.715 474.6a3.467 3.467 0 0 1-3.464-3.463v-39.083a3.467 3.467 0 0 1 3.464-3.463h28.354c16.853 0 23.132 14.152 23.132 23.072 0 8.867-6.28 22.937-23.132 22.937zm-2.079-42.546v39.083a2.08 2.08 0 0 0 2.079 2.077h28.354c15.843 0 21.747-13.219 21.747-21.55 0-8.387-5.904-21.688-21.747-21.688h-28.354a2.08 2.08 0 0 0-2.079 2.078" style="fill:#231f20;fill-opacity:1;fill-rule:nonzero;stroke:none" transform="matrix(1.33333 0 0 -1.33333 -.667 1121.853)"></path><path d="M388.485 469.058a.69.69 0 0 1-.693-.693v-33.54c0-.383.31-.693.693-.693h25.584c14.431 0 17.591 12.655 17.591 17.531 0 6.725-4.775 17.395-17.59 17.395zm25.584-1.385c11.806 0 16.206-9.82 16.206-16.01 0-4.491-2.911-16.145-16.206-16.145h-24.89v32.155z" style="fill:#231f20;fill-opacity:1;fill-rule:nonzero;stroke:none" transform="matrix(1.33333 0 0 -1.33333 -.667 1121.853)" data-source="https://football-logos.cc"></path><!-- source: https://football-logos.cc --></svg>