<svg xmlns="http://www.w3.org/2000/svg" xml:space="preserve" viewBox="40.48 470.58 708.46 268.96"><!-- Source: https://football-logos.cc --><defs data-source="https://football-logos.cc"><clipPath id="a" clipPathUnits="userSpaceOnUse"><path d="M.5-.5h595.446v841.89H.5Z"></path></clipPath></defs><g clip-path="url(#a)" transform="matrix(1.33333 0 0 -1.33333 -.667 1121.853)" data-source="https://football-logos.cc"><path d="M364.165 314.702c5.049-.012 130.144-.312 130.482-.314l3.199-1.158 1.2-.484-132.673-.009c-.267.236-1.12.996-2.208 1.965zM513.427 305.08a24.4 24.4 0 0 0 4.762-4.302l-139.376.949c-.314.295-1.54 1.448-2.875 2.7 4.813.024 136.81.648 137.489.652M520.657 293.24c-.047-.73-.097-1.463-.293-2.194-.771-2.901-2.81-4.364-11.807-4.309h-105.41c-6.597-.052-10.328 1.16-13.316 4.32 0 0-.418.437-.912.95 4.426.043 129.62 1.213 131.738 1.232M251.492 360.002c-.364 1.004.562 2.666 2.418 4.34l37.044 33.1c28.454 25.362 60.704 54.107 70.21 63.135 17.424 16.553 25.15 21.004 46.296 20.784h145.645c7.166.066 8.727-1.294 9.019-2.11.05-.138.082-.305.082-.507 0-1.366-1.474-4.318-9.063-10.462l-8.318-6.313c-5.353-3.927-12.015-8.815-22.741-18.091-16.248-14.052-32.272-21.48-46.34-21.48-14.356 0-25.697 0-46.827-22.03l-12.055-12.11c-11.783-11.603-21.21-20.888-21.21-27.631q0-.519.076-1.018c.35-2.307 1.91-4.191 4.635-5.596 22.438-11.569 53.422-24.037 72.708-31.473l-116.963-.014c-18.112 15.433-32.245 26.233-39.044 31.428-4.56 3.485-7.476 4.604-12.003 4.604h-49.874c-2.03.075-3.39.602-3.695 1.444M35.403 488.455h176.952c14.464-.338 21.69-2.805 29.71-10.154l44.702-37.157-4.225-.234c-.248-.014-6.196-.335-16.717-.335-10.794 0-16.312-3.936-17.756-7.305-1.398-3.259-1.548-6.4-1.548-7.598l.016-.608.094-1.475-1.453-.277c-.147-.029-3.646-.723-10.224-3.856-4.592-2.185-7.332-6.633-7.332-11.894l.182-1.954.023-.16a.996.996 0 0 1 1.497-.719 15.9 15.9 0 0 0 8.239 2.263c6.677 0 8.56-2.09 11.682-5.555l1.172-1.292 4.311-4.948 1.026-1.173-29.673-26.57c-1.329-1.186-4.268-1.271-6.21.394-6.483 5.553-22.96 19.58-35.878 29.864-16.045 12.768-26.066 14.625-43.612 15.6l-.63.035c-18.098 1.002-35.192 1.949-61.92 26.673L43.26 472.386l-10.13 9.53c-1.334 1.244-2.776 2.892-2.093 4.626.675 1.714 2.816 1.913 4.367 1.913" style="fill:#1d55a2;fill-opacity:1;fill-rule:nonzero;stroke:none"></path><path d="M257.432 423.644c0 .118.16.513.282.589 1.504.335 3.672.987 5.255 2.119.538.383.783.364.786.364-.042-.058-.052-.833-.89-1.769-1.256-1.404-2.086-3-2.576-4.128-.881.426-2.29 1.305-2.857 2.825" style="fill:#1d55a2;fill-opacity:1;fill-rule:nonzero;stroke:none"></path></g><!-- source: https://football-logos.cc --></svg>