<svg xmlns="http://www.w3.org/2000/svg" xml:space="preserve" viewBox="0 0 560.84 774.56"><!-- Source: https://football-logos.cc --><defs data-source="https://football-logos.cc"><clipPath id="a" clipPathUnits="userSpaceOnUse"><path d="M0 600h800V0H0Z"></path></clipPath></defs><g clip-path="url(#a)" transform="matrix(2.21508 0 0 -2.21508 -605.614 1051.803)" data-source="https://football-logos.cc"><path d="M0 0c-37.424 37.425-69.364 40.896-80.936 62.981-5.386 10.279-6.339 22.598-6.339 47.891 0 42.036-8.879 53.813-15.128 70.697-9.168 24.764-24.192 39.832-24.192 69.165 0 24.871 16.628 40.995 38.053 40.995 18.24 0 25.334-6.02 25.334-6.02l-14.694 55.437s34.843 8.528 77.902 8.528c43.06 0 77.903-8.528 77.903-8.528l-14.694-55.437s7.094 6.02 25.334 6.02c21.424 0 38.052-16.124 38.052-40.995 0-29.333-15.024-44.401-24.192-69.165-6.249-16.884-15.128-28.661-15.128-70.697 0-25.293-.953-37.612-6.338-47.891C69.363 40.896 37.425 37.425 0 0" style="fill:#000;fill-opacity:1;fill-rule:nonzero;stroke:none" transform="translate(400 125.163)"></path><path d="M0 0c5.083 0 8.517-3.022 9.198-8.278C7.393 17.523 1.667 41.967-6.538 62.486c-16.817 42.062-40.955 69.749-40.955 100.393 0 18.117 12.543 32.777 36.791 32.777 16.823 0 30.435-12.715 30.435-28.428 0-10.445-8.451-18.897-18.896-18.897-7.025 0-12.71 3.665-12.71 8.194 0 3.11 2.181 2.933 2.181 5.281 0 .906-.912 1.639-2.038 1.639-2.131 0-3.855-2.735-3.855-6.114 0-6.576 8.168-13.097 18.261-13.097 15.113 0 27.342 10.938 27.342 24.457 0 19.942-19.942 43.27-19.942 59.073 0 8.596 7.253 15.301 16.681 15.301 9.281 0 14.674-8.653 14.674-8.653 1.129 6.862 7.629 12.416 17.057 12.416 8.457 0 14.299-4.656 15.301-10.41 1.002 5.754 6.843 10.41 15.3 10.41 9.428 0 15.928-5.554 17.057-12.416 0 0 5.394 8.653 14.674 8.653 9.429 0 16.681-6.705 16.681-15.301 0-15.803-19.941-39.131-19.941-59.073 0-13.519 12.229-24.457 27.342-24.457 10.093 0 18.261 6.521 18.261 13.097 0 3.379-1.725 6.114-3.855 6.114-1.127 0-2.038-.733-2.038-1.639 0-2.348 2.181-2.171 2.181-5.281 0-4.529-5.685-8.194-12.71-8.194-10.445 0-18.897 8.452-18.897 18.897 0 15.713 13.613 28.428 30.436 28.428 24.248 0 36.79-14.66 36.79-32.777 0-30.644-24.137-58.331-40.955-100.393-8.203-20.519-13.93-44.963-15.735-70.764.68 5.256 4.114 8.278 9.198 8.278 4.714 0 8.528-1.506 8.528-7.024 0-7.764-4.013-14.047-11.873-14.047-14.716 0-19.399 14.564-19.399 32.358 0 60.704 29.6 92.812 32.861 127.679 0 0-6.844-3.512-15.301-3.512-18.511 0-28.723 11.5-33.488 25.712 0 0-15.707 2.132-35.117 2.132-19.411 0-35.117-2.132-35.117-2.132-4.766-14.212-14.978-25.712-33.487-25.712-8.458 0-15.302 3.512-15.302 3.512 3.261-34.867 32.861-66.975 32.861-127.679 0-17.794-4.683-32.358-19.399-32.358-7.86 0-11.874 6.283-11.874 14.047C-8.529-1.506-4.714 0 0 0" style="fill:#fff;fill-opacity:1;fill-rule:nonzero;stroke:none" transform="translate(326.211 215.216)"></path><path d="M0 0c0 4.014-3.512 5.644-3.512 5.644C.752 9.908 8.329 8.896 14.179 9.33c5.346.398 17.051 9.608 17.051 13.998 0 1.872-1.402 3.387-3.136 3.387-4.515 0-8.483-8.747-14.913-10.333-5.422-1.338-12.206-1.685-17.564-3.93-4.427-1.853-8.786-5.91-8.786-11.072 0-4.367 3.085-7.901 6.898-7.901C-2.805-6.521 0-3.604 0 0" style="fill:#fff;fill-opacity:1;fill-rule:nonzero;stroke:none" transform="translate(431.103 163.918)"></path><path d="M0 0c0 4.014 3.512 5.644 3.512 5.644C-.752 9.908-8.329 8.896-14.178 9.33c-5.347.398-17.051 9.608-17.051 13.998 0 1.872 1.402 3.387 3.135 3.387 4.515 0 8.483-8.747 14.913-10.333 5.423-1.338 12.207-1.685 17.565-3.93 4.426-1.853 8.785-5.91 8.785-11.072 0-4.367-3.085-7.901-6.898-7.901C2.805-6.521 0-3.604 0 0" style="fill:#fff;fill-opacity:1;fill-rule:nonzero;stroke:none" transform="translate(368.897 163.918)"></path><path d="M0 0s3.01 7.348 3.01 16.43c0 6.898-3.086 8.654-6.899 8.654-6.521 0-9.658-10.603-9.03-23.705C-5.273 1.886 0 0 0 0" style="fill:#000;fill-opacity:1;fill-rule:nonzero;stroke:none" transform="translate(416.932 410.496)"></path><path d="M0 0c-6.725 0-11.287-9.705-12.166-21.698 7.65-1.327 11.414-3.386 11.414-3.386s7.525 9.908 7.525 19.189C6.773-2.637 3.744 0 0 0" style="fill:#000;fill-opacity:1;fill-rule:nonzero;stroke:none" transform="translate(441.012 431.943)"></path><path d="M0 0c.627 13.102-2.508 23.705-9.03 23.705-3.813 0-6.898-1.756-6.898-8.654 0-9.082 3.01-16.43 3.01-16.43S-7.646.506 0 0" style="fill:#000;fill-opacity:1;fill-rule:nonzero;stroke:none" transform="translate(395.988 411.875)"></path><path d="M0 0c-3.743 0-6.772-2.637-6.772-5.895 0-9.281 7.525-19.189 7.525-19.189s3.763 2.059 11.413 3.386C11.288-9.705 6.725 0 0 0" style="fill:#000;fill-opacity:1;fill-rule:nonzero;stroke:none" transform="translate(358.988 431.943)"></path><path d="M0 0c2.697-2.696 4.014-6.844 4.014-15.301h3.26c-1.375 8.03 2.007 12.04 8.278 12.04 4.73 0 9.17-2.784 8.952-12.465q3.115.163 6.682.26c-1.635 9.544 4.273 13.209 8.697 13.209s10.332-3.665 8.697-13.209a267 267 0 0 0 6.682-.26c-.218 9.681 4.221 12.465 8.952 12.465 6.27 0 9.653-4.01 8.278-12.04h3.261c0 8.457 1.316 12.605 4.013 15.301 0 0-11.037 3.512-39.883 3.512S0 0 0 0" style="fill:#000;fill-opacity:1;fill-rule:nonzero;stroke:none" transform="translate(360.117 399.96)"></path><path d="M0 0c.964-9.692 1.557-20.895 1.557-33.794 0-25.673-2.509-46.447-2.509-46.447L35.94-99.148V0Z" style="fill:#fff;fill-opacity:1;fill-rule:nonzero;stroke:none" transform="translate(350.784 275.538)"></path><path d="m0 0-20.477 9.561-30.964-26.536s6.358-7.607 11.311-29.287H0Z" style="fill:#fff;fill-opacity:1;fill-rule:nonzero;stroke:none" transform="translate(386.724 348.353)"></path><path d="M0 0c4.953 21.68 11.312 29.288 11.312 29.288l-30.964 26.535-20.477-9.561V0Z" style="fill:#fff;fill-opacity:1;fill-rule:nonzero;stroke:none" transform="translate(453.406 302.091)"></path><path d="M0 0v-99.148l36.891 18.907s-2.508 20.774-2.508 46.447c0 12.899.593 24.102 1.555 33.794z" style="fill:#fff;fill-opacity:1;fill-rule:nonzero;stroke:none" transform="translate(413.277 275.538)"></path><path d="M0 0c1.052 10.567 2.543 19.34 4.19 26.553h-40.128v46.262l-13.278 11.594-13.276-11.594V26.553h-40.13c1.648-7.213 3.14-15.986 4.19-26.553h35.94v-99.148l13.276-6.804 13.278 6.804V0Z" style="fill:red;fill-opacity:1;fill-rule:nonzero;stroke:none" transform="translate(449.216 275.538)"></path></g><!-- source: https://football-logos.cc --></svg>