<svg xmlns="http://www.w3.org/2000/svg" xml:space="preserve" viewBox="0 0 704 800"><!-- Source: https://football-logos.cc --><path d="M-374.525 1.836c-1.237.34-3.481.657-4.986.706-1.595.051-5.505 1.478-9.375 3.42-15.005 7.527-25.092 19.569-29.694 35.444l-1.695 5.85v216.942l-11.06-10.597c-14.273-13.673-17.245-15.266-24.645-13.21-5.254 1.459-11.74 6.682-29.727 23.938-16.815 16.133-18.39 17.867-20.969 23.084-2.477 5.012-2.82 6.411-3.09 12.57-.217 4.95.045 8.13.916 11.125.67 2.307 6.995 16.446 14.054 31.421s13.97 29.683 15.357 32.686l2.521 5.46-2.053.915c-1.5.669-9.939.921-31.304.936-32.111.023-32.749.093-42.166 4.645-10.779 5.209-20.328 15.009-33.21 34.08-11.216 16.606-17.059 24.34-23.767 31.464-15.97 16.96-21.782 32.896-19.82 54.356.876 9.584 2.108 12.743 5.634 14.447 2.967 1.433 6.66-.131 15.895-6.733 19.96-14.268 37.325-22.654 69.993-33.798 29.89-10.196 40.359-16.003 56.609-31.4l6.667-6.319-.526 5.994c-1.302 14.828-3.718 26.022-10.258 47.515-6.584 21.637-8.581 33.365-9.413 55.266-.9 23.668 2.623 38.204 11.095 45.796 4.948 4.434 14.05 4.19 19.083-.51 1.074-1.003 3.932-5.03 6.35-8.949 6.777-10.978 11.092-15.917 34.724-39.75 12.268-12.372 24.015-24.935 26.65-28.5 13.046-17.653 15.596-30.785 14.889-76.687l-.413-26.813 2.367.006c1.302.004 7.092.823 12.867 1.82 25.938 4.48 36.18 4.223 47.03-1.183 5.324-2.652 9.228-6.026 11.977-10.352 4.005-6.304 2.364-9.243-6.974-12.494-3.266-1.137-5.678-2.298-5.36-2.581s3.227-.927 6.467-1.432c10.299-1.605 17.91-4.84 23.492-9.986 5.453-5.026 6.862-9.109 4.01-11.618-.817-.718-4.25-2.317-7.63-3.555s-6.272-2.631-6.424-3.098c-.156-.474.938-1.076 2.478-1.365 5.471-1.026 12.781-4.278 17.62-7.837 5.354-3.939 11.19-11.667 11.19-14.82 0-3.026-3.077-5.253-10.23-7.404-9.493-2.855-14.52-6.038-14.52-9.194 0-.38 2.615-.878 5.812-1.104 17.337-1.23 27.525-12.109 17.575-18.766-1.52-1.017-5.2-3.396-8.179-5.288-5.748-3.651-7.051-5.754-5.754-9.283.369-1.003 14.845-20.08 32.17-42.394l31.5-40.57.444 29.561c.469 31.16.572 32.147 4.39 41.834 9.036 22.924 34.227 37.478 59.913 34.614 10.177-1.135 15.136-2.552 24.059-6.873 6.833-3.309 8.66-4.635 14.67-10.646 7.709-7.709 11.176-13.486 14.047-23.4l1.727-5.967v-216l-1.727-5.966c-4.584-15.831-14.591-27.402-30.056-34.752-7.681-3.65-11.262-4.39-24.842-5.124-15.997-.866-25.897 2.065-39.75 11.77-7.09 4.967-24.357 22.191-31.182 31.104-2.856 3.73-20.202 28.594-38.547 55.254s-33.616 48.31-33.937 48.112-.584-22.73-.584-50.072c0-47.166-.076-50.014-1.494-55.643-2.455-9.743-6.19-16.262-13.496-23.558-8.962-8.948-18.865-14.39-28.879-15.873-6.404-.947-25.83-1.405-28.506-.67m-72.226 317.41c3.945 3.787 4.944 9.994 2.922 14.489-1.648 3.538-4.815 6.395-7.987 6.395-1.613 0-1.668-.161-.948-2.77.964-3.49-.14-7.517-2.724-9.945-2.61-2.452-8.097-2.874-11.854-.913-1.649.861-3.001 1.173-3.262.751-.887-1.436.52-5.655 2.526-7.573 1.96-1.874 4.012-3.41 6.333-4.177 5.268-1.255 11.209.4 14.994 3.743m-48.52-114.151c-2.697 1.405-3.389 1.473-6.936.68-7.015-1.57-12.253 1.29-13.382 7.307-.366 1.952-.853 2.55-2.082 2.553-6.111.016-13.78 5.806-15.39 11.62-1.75 6.321-.598 13.447 2.987 18.482 1.473 2.068 1.537 2.611.766 6.451-2.653 13.21 1.423 23.822 9.145 23.814 6.11-.007 14.386-5.305 29.401-18.824 22.526-20.28 31.221-32.034 29.316-39.625-1.153-4.596-6.752-7.908-13.381-7.918-2.27-.004-3.285-.531-5.342-2.775-2.336-2.55-2.921-2.793-7.323-3.049-3.766-.219-5.42.054-7.779 1.284" style="fill:#519cdb;fill-opacity:1;stroke-width:.99986446" transform="matrix(1.33313 0 0 -1.3339 839.346 801.692)" data-source="https://football-logos.cc"></path><!-- source: https://football-logos.cc --></svg>