<svg xmlns="http://www.w3.org/2000/svg" viewBox="0 0 540 676.36"><!-- Source: https://football-logos.cc --><defs data-source="https://football-logos.cc"><linearGradient id="Dégradé_sans_nom_77" x1="269.75" x2="269.75" y1="702.83" y2="83" gradientUnits="userSpaceOnUse"><stop offset="0" stop-color="#00527c"></stop><stop offset=".29" stop-color="#00527c"></stop><stop offset=".53" stop-color="#006e9d"></stop><stop offset="1" stop-color="#00527c"></stop></linearGradient><linearGradient id="Dégradé_sans_nom_76" x1="2399.99" x2="2399.99" y1="1071.1" y2="1070.1" gradientTransform="matrix(-347.35 0 0 372.21 833893.39 -398260.99)" gradientUnits="userSpaceOnUse"><stop offset="0" stop-color="#7b0606"></stop><stop offset=".5" stop-color="#9d1217"></stop><stop offset="1" stop-color="#cb1c27"></stop></linearGradient><style>.cls-2{fill:#fff}.cls-2,.cls-3,.cls-4{fill-rule:evenodd}.cls-3{fill:#c1ad7b}.cls-4{fill:#00527c}</style></defs><g id="svg42" data-source="https://football-logos.cc"><g id="Layer1000"><path id="path4" d="M269.75 229.06C172.14 229.06 93 308.32 93 406.1c0 23.58 3.99 46.25 12.03 66.95 26.29 67.63 90.74 110.81 164.81 110.81s135.21-38.74 163.77-111.29c8.11-20.6 12.88-42.97 12.88-66.48 0-97.78-79.13-177.04-176.75-177.04Z" style="fill:url(#Dégradé_sans_nom_77)"></path><path id="path5" d="M309.34 518.4h-.16l-6.27 18.59 11.85.14-5.42-18.74Zm-12.3 34.6-2.83 9.63h-17.08l23.99-72.36 16.34-.11 22.99 72.42-17.07.05-3.44-9.47-22.91-.16Z" class="cls-2"></path><path id="path6" d="m255.56 535.24 14.73-45.09h17.42l-24.67 72.46h-15.21l-23.7-72.47 17.75-.02 13.69 45.12Z" class="cls-2"></path><path id="path7" d="M189.89 506.24c-11.29.19-19.6 7.46-19.69 19.67-.08 10 8.29 20.01 19.54 20.01s19.22-9.8 19.22-19.79c0-9.41-9.13-20.06-19.07-19.89m-.21-16.09c20.15 0 36.08 16.27 36.08 35.4 0 20.29-15.35 37.07-35.87 37.07-22.25 0-36.52-17.21-36.52-37.5 0-19.13 16.17-34.97 36.32-34.97Z" class="cls-2"></path><path id="path8" d="M85.04 490.15h17.69l24.33 43.05h.16v-43.05h16.23v72.43h-17.69l-23.96-43.51h-.16v43.51h-16.6z" class="cls-2"></path><path id="path9" d="M359.48 603.69v-27.2h5.98v21.76h13.56v5.44z" class="cls-3"></path><path id="path10" d="M335.02 603.69v-27.2H341v21.76h13.56v5.44z" class="cls-3"></path><path id="path11" d="M312.31 592.31h7.23l-3.61-8.82-3.61 8.82Zm-10.73 11.38 11.66-27.39h5.52l11.66 27.39h-6.25l-2.49-6.1h-11.5l-2.49 6.1h-6.1Z" class="cls-3"></path><path id="path12" d="M281.28 598.45h7.11q4.23 0 4.23-3.03c0-3.03-1.48-2.95-4.43-2.95h-6.92v5.98Zm0-10.96h5.52c2.87 0 4.31-.98 4.31-2.95 0-.91-.34-1.6-1.01-2.08q-1.005-.72-2.91-.72h-5.91zm-5.83 16.2v-27.2h12.63c3.13 0 5.5.8 7.11 2.41 1.24 1.24 1.86 2.81 1.86 4.7 0 2.56-1.19 4.52-3.57 5.87 1.68.65 2.95 1.5 3.81 2.54.85 1.05 1.28 2.45 1.28 4.22 0 2.43-.91 4.29-2.72 5.56s-4.3 1.9-7.46 1.9z" class="cls-3"></path><path id="path13" d="M256.56 603.69v-21.68h-8.28v-5.52h22.53v5.52h-8.28v21.68h-5.98Z" class="cls-3"></path><path id="path14" d="M225.34 596.16q2.325 2.49 5.91 2.49c3.585 0 4.34-.82 5.87-2.47 1.53-1.64 2.29-3.67 2.29-6.08s-.78-4.4-2.33-6.06q-2.325-2.49-5.91-2.49c-3.585 0-4.34.82-5.87 2.47-1.53 1.64-2.29 3.67-2.29 6.08s.78 4.4 2.33 6.06m16.18 3.9c-2.76 2.73-6.21 4.1-10.35 4.1s-7.58-1.36-10.32-4.08c-2.73-2.72-4.1-6.05-4.1-9.98s1.38-7.23 4.14-9.97c2.76-2.73 6.21-4.1 10.35-4.1s7.58 1.36 10.32 4.08c2.73 2.72 4.1 6.05 4.1 9.98s-1.38 7.23-4.14 9.97" class="cls-3"></path><path id="path15" d="M191.9 596.16q2.325 2.49 5.91 2.49c3.585 0 4.34-.82 5.87-2.47 1.53-1.64 2.29-3.67 2.29-6.08s-.78-4.4-2.33-6.06q-2.325-2.49-5.91-2.49c-3.585 0-4.34.82-5.87 2.47-1.53 1.64-2.29 3.67-2.29 6.08s.78 4.4 2.33 6.06m16.18 3.9c-2.76 2.73-6.21 4.1-10.35 4.1s-7.58-1.36-10.32-4.08c-2.73-2.72-4.1-6.05-4.1-9.98s1.38-7.23 4.14-9.97c2.76-2.73 6.21-4.1 10.35-4.1s7.58 1.36 10.32 4.08c2.73 2.72 4.1 6.05 4.1 9.98s-1.38 7.23-4.14 9.97" class="cls-3"></path><path id="path16" d="M158.99 603.69v-27.2h20.71v5.44h-14.72v5.79h12.98v5.44h-12.98v10.53H159Z" class="cls-3"></path><path id="path17" d="M361.99 527.3c6.34 0 13.47-3.68 13.63-10.44.14-6.09-7.4-9.72-13.63-9.72zm4.95 16.19c-1.23.4-3.97.67-5.19.69v18.38h-16.59v-72.55h16.41c5.27 0 10.28 1.59 15.07 3.92 11.05 5.37 15.78 14.63 15.67 24.5-.1 8.78-6.56 16.91-10.04 18.44l16.35 25.58-19.4.1-12.29-19.05Z" class="cls-2"></path><path id="path18" d="M433.62 518.4h-.16l-6.27 18.59 11.85.14-5.42-18.74Zm-12.3 34.6-2.83 9.63h-17.08l23.99-72.36 16.34-.11 22.99 72.42-17.07.05-3.44-9.47-22.91-.16Z" class="cls-2"></path><path id="path19" d="M303.97 634.43h7.11q4.23 0 4.23-3.03c0-3.03-1.48-2.95-4.43-2.95h-6.92v5.98Zm0-10.96h5.52c2.87 0 4.31-.98 4.31-2.95 0-.91-.34-1.6-1.01-2.08q-1.005-.72-2.91-.72h-5.91zm-5.82 16.2v-27.2h12.63c3.13 0 5.5.8 7.11 2.41 1.24 1.24 1.86 2.81 1.86 4.7 0 2.56-1.19 4.52-3.57 5.87 1.68.65 2.95 1.5 3.81 2.54.85 1.05 1.28 2.45 1.28 4.22 0 2.43-.91 4.29-2.72 5.56s-4.3 1.9-7.46 1.9z" class="cls-3"></path><path id="path20" d="M279.71 640.1c-3.7 0-6.59-1.03-8.66-3.09s-3.11-5.06-3.11-8.99v-15.54h5.98v15.39c0 2.18.51 3.84 1.53 4.99s2.47 1.73 4.33 1.73 3.31-.56 4.33-1.67q1.53-1.665 1.53-4.86v-15.58h5.98v15.35c0 4.04-1.06 7.1-3.17 9.17s-5.03 3.11-8.76 3.11Z" class="cls-3"></path><path id="path21" d="M244.68 639.67v-27.2h5.98v21.76h13.56v5.44z" class="cls-3"></path><path id="path22" d="M228.7 640.14c-3.99 0-7.31-1.35-9.97-4.06-2.65-2.71-3.98-6.04-3.98-10s1.33-7.27 4-9.98c2.67-2.72 6.06-4.08 10.18-4.08 2.36 0 4.34.38 5.94 1.15 1.61.76 3.13 1.86 4.58 3.28l-3.57 4.12c-1.17-1.06-2.26-1.83-3.28-2.31s-2.26-.72-3.71-.72c-2.28 0-4.16.82-5.65 2.47-1.49 1.64-2.23 3.67-2.23 6.08s.74 4.4 2.23 6.06 3.37 2.49 5.65 2.49c1.45 0 2.71-.26 3.77-.78s2.19-1.32 3.38-2.41l3.81 4.08c-1.48 1.58-3.08 2.75-4.8 3.5s-3.84 1.13-6.35 1.13Z" class="cls-3"></path><path id="path23" d="M270 146.11c-71.95 0-137.09 29.14-184.24 76.26C38.63 269.48 9.47 334.58 9.47 406.49S38.62 543.5 85.76 590.61c47.14 47.12 112.28 76.26 184.24 76.26s137.09-29.14 184.24-76.26c47.13-47.11 76.29-112.21 76.29-184.12s-29.15-137.01-76.29-184.12C407.1 175.25 341.96 146.11 270 146.11M79.1 215.68c48.86-48.84 116.36-79.04 190.9-79.04s142.04 30.21 190.9 79.04C509.77 264.53 540 331.99 540 406.5s-30.23 141.97-79.1 190.82c-48.86 48.84-116.36 79.04-190.9 79.04s-142.04-30.21-190.9-79.04C30.23 548.47 0 481.01 0 406.5s30.23-141.97 79.1-190.82" class="cls-3"></path><path id="path24" d="M268.65 11.31h-.04c-.52.04-.87.07-1.15.11a375 375 0 0 0-60.06 14.57c-19.28 6.4-37.93 14.33-56.05 23.64-18.79 9.67-34.3 20.44-46.53 32.08-12.35 11.74-21.35 24.35-27.04 37.56-4.77 11.09-7.21 22.91-7.99 35.13-.79 12.39.14 25.26 2.1 38.22 3.54 23.44 9.27 45.81 17.18 67.22s18.01 41.9 30.28 61.59c19.04 30.53 39.3 57.92 61.91 80.56 22.44 22.47 47.22 40.29 75.46 51.9 1.87.77 3.94 1.4 6.05 1.83 1.98.4 3.96.63 5.79.62h.04c2.01.01 4.37-.19 6.72-.58 2.24-.37 4.39-.88 6.17-1.52 24.88-8.95 48.42-25.03 70.31-45.81 24.95-23.69 47.72-53.47 67.9-85.83 12.28-19.69 22.3-40.28 30.13-61.78s13.48-43.98 17.03-67.46c1.96-12.99 3.3-25.76 2.52-38.1-.76-12.11-3.56-23.94-9.82-35.4-7.68-14.06-18.01-25.91-30.7-36.61-12.85-10.84-28.17-20.51-45.65-30.1-17.07-9.36-35.15-17.31-54.1-24.15s-38.96-12.61-59.82-17.58a4 4 0 0 0-.63-.1ZM267.82.06l.44-.03.41-.03.41.03.29.02c.95.07 1.42.11 2.52.37 21.03 5.01 41.41 10.91 61.01 17.98s38.24 15.26 55.73 24.86c18.07 9.9 33.98 19.97 47.5 31.38 13.69 11.54 24.88 24.43 33.3 39.83 7.15 13.08 10.33 26.46 11.19 40.08.84 13.38-.55 26.87-2.61 40.49-3.65 24.14-9.49 47.35-17.6 69.62a340.7 340.7 0 0 1-31.14 63.9c-20.64 33.1-44.01 63.64-69.71 88.04-22.96 21.8-47.81 38.71-74.28 48.24-2.48.89-5.32 1.59-8.15 2.05-2.9.48-5.89.72-8.56.71-2.64.02-5.39-.29-8.07-.84a45.4 45.4 0 0 1-8.08-2.45c-29.72-12.21-55.7-30.88-79.16-54.37-23.29-23.32-44.06-51.36-63.5-82.55-12.68-20.33-23.12-41.51-31.3-63.66S64.35 218.48 60.7 194.3c-2.06-13.65-3.03-27.29-2.18-40.6.86-13.48 3.57-26.56 8.87-38.88 6.28-14.59 16.15-28.44 29.64-41.27 13.01-12.37 29.38-23.77 49.14-33.93 18.55-9.54 37.74-17.69 57.68-24.31C223.75 8.7 244.35 3.65 265.72.3c1.05-.16 1.47-.2 2.08-.24Z" class="cls-3"></path><path id="path25" d="M100.29 215.36c44.07 6.86 88.98 12.66 133.93 15.36 24.32 1.46 47.63 2.23 71.92.38 44.22-3.37 89.25-9.09 132.85-16.03" style="fill:none"></path><path id="path27" d="M305.92 47.67c-.27 39-.93 78.03-.75 116.8 46.18-3.52 92.6-8.3 138.03-15.91-2.54-12.62-17-36.87-44.22-56.25-28.49-20.29-64.81-36.51-93.06-44.63Zm-71.34 116.8c-.17-39.11-.95-78.27-.33-117.42-19.27 4.52-40 12.12-58.46 21.2-31.09 15.31-69.65 40.09-79.94 80.18 45.76 8.05 92.05 12.77 138.73 16.04m-.36 66.25c-44.95-2.71-89.86-8.51-133.93-15.36 6.08 29.3 20.88 70.24 43.15 103.85 23.12 34.91 62.99 82.31 96.32 100.06-2.71-62.95-4.01-125.49-5.54-188.55m71.92.38c-.59 62.65-3.02 124.99-4.85 187.19 32.43-17.29 76.84-67.54 99.9-108.33 20.52-36.28 30.59-67.75 37.8-94.89-43.6 6.94-88.63 12.66-132.85 16.03" style="fill:url(#Dégradé_sans_nom_76)"></path><path id="path28" d="M234.58 164.47c-46.68-3.27-92.97-7.99-138.73-16.04 10.29-40.09 48.85-64.87 79.94-80.18 18.46-9.09 39.18-16.68 58.46-21.2-.62 39.15.16 78.31.33 117.42m70.59.01c-.18-38.77.48-77.8.75-116.8 28.25 8.12 64.57 24.34 93.06 44.63 27.22 19.38 41.68 43.64 44.22 56.25-45.43 7.62-91.85 12.39-138.03 15.91Zm.97 66.62c44.22-3.37 89.25-9.09 132.85-16.03-7.21 27.14-17.29 58.6-37.8 94.89-23.07 40.79-67.47 91.04-99.9 108.33 1.84-62.2 4.26-124.54 4.85-187.19m-205.85-15.74c44.07 6.86 88.98 12.66 133.93 15.36 1.52 63.05 2.83 125.6 5.54 188.55-33.33-17.75-73.2-65.15-96.32-100.06-22.27-33.61-37.07-74.56-43.15-103.85M268.65 11.31h-.04c-.52.04-.87.07-1.15.11a375 375 0 0 0-60.06 14.57c-19.28 6.4-37.93 14.33-56.05 23.64-18.79 9.67-34.3 20.44-46.53 32.08-12.35 11.74-21.35 24.35-27.04 37.56-4.77 11.09-7.21 22.91-7.99 35.13-.79 12.39.14 25.26 2.1 38.22 3.54 23.44 9.27 45.81 17.18 67.22s18.01 41.9 30.28 61.59c19.04 30.53 39.3 57.92 61.91 80.56 22.44 22.47 47.22 40.29 75.46 51.9 1.87.77 3.94 1.4 6.05 1.83 1.98.4 3.96.63 5.79.62h.04c2.01.01 4.37-.19 6.72-.58 2.24-.37 4.39-.88 6.17-1.52 24.88-8.95 48.42-25.03 70.31-45.81 24.95-23.69 47.72-53.47 67.9-85.83 12.28-19.69 22.3-40.28 30.13-61.78s13.48-43.98 17.03-67.46c1.96-12.99 3.3-25.76 2.52-38.1-.76-12.11-3.56-23.94-9.82-35.4-7.68-14.06-18.01-25.91-30.7-36.61-12.85-10.84-28.17-20.51-45.65-30.1-17.07-9.36-35.15-17.31-54.1-24.15s-38.96-12.61-59.82-17.58a4 4 0 0 0-.63-.1Z" class="cls-2"></path><path id="path29" d="M110.35 470.99c-4.12-10.15-7.3-20.77-9.44-31.75-2.08-10.7-3.17-21.78-3.17-33.15 0-25.91 5.71-50.48 15.93-72.53-1-1.57-2-3.15-2.99-4.73-.3-.48-.61-.97-.91-1.45-.68-1.09-1.36-2.19-2.02-3.29-12.46 24.64-19.48 52.5-19.48 82 0 11.92 1.15 23.6 3.36 34.92 2.25 11.57 5.59 22.74 9.9 33.39l4.41-1.71 4.41-1.71Z" class="cls-3"></path><path id="path30" d="M438.61 439.15a171 171 0 0 1-9.38 31.66c0 .02-.02.04-.02.06l4.34 1.9 4.34 1.9.12-.3c4.32-10.66 7.65-21.85 9.9-33.43 2.19-11.3 3.34-22.94 3.34-34.82 0-29.41-6.98-57.2-19.37-81.78-.85 1.42-1.72 2.83-2.6 4.23-.11.18-.22.35-.33.53-.99 1.59-1.99 3.17-2.99 4.74 10.15 21.98 15.81 46.47 15.81 72.28 0 11.33-1.08 22.38-3.15 33.05Z" class="cls-3"></path><path id="path31" d="M88.27 406.1c0-29.5 7.02-57.36 19.48-82-11.77-19.33-21.53-39.41-29.27-60.37-2.99-8.08-5.67-16.29-8.05-24.63C32.4 284.35 9.49 342.74 9.49 406.49c0 71.92 29.15 137.01 76.29 184.12 47.14 47.12 112.28 76.26 184.24 76.26s137.09-29.14 184.24-76.26c47.13-47.11 76.29-112.21 76.29-184.12 0-64.16-23.2-122.89-61.67-168.26a346 346 0 0 1-8.44 26.42 340.3 340.3 0 0 1-28.55 59.67c12.39 24.58 19.37 52.37 19.37 81.78 0 11.88-1.15 23.53-3.34 34.82a180.6 180.6 0 0 1-9.9 33.43l-.12.3-4.34-1.9c-10.71 26.39-27.6 49.61-48.87 67.86l13.95 21.83-19.4.1-7.59-11.76c-3.22 2.28-6.52 4.45-9.89 6.52v5.25h-9.2a175.6 175.6 0 0 1-33.98 13.75h.19l11.66 27.39h-6.25l-2.49-6.1h-11.5l-2.49 6.1h-6.1l10.97-25.78c-5.22 1.3-10.53 2.37-15.93 3.19.29.76.43 1.59.43 2.5 0 2.56-1.19 4.52-3.57 5.87 1.68.65 2.95 1.5 3.81 2.54.85 1.05 1.28 2.45 1.28 4.22 0 2.43-.91 4.29-2.72 5.56s-4.3 1.9-7.46 1.9h-12.94v-20.64q-2.835.09-5.7.09c-2.41 0-4.82-.05-7.21-.14v20.7h-5.98v-21.04c-2.3-.17-4.6-.38-6.87-.64h-1.4v-.16c-1.97-.24-3.92-.51-5.87-.81q3.24 3.81 3.24 9.06c0 3.91-1.38 7.23-4.14 9.97-2.76 2.73-6.21 4.1-10.35 4.1s-7.58-1.36-10.32-4.08c-2.73-2.72-4.1-6.05-4.1-9.98s1.38-7.23 4.14-9.97q1.77-1.755 3.93-2.76c-13.33-3.5-26.05-8.52-37.95-14.86-13.84-1-24.26-8.86-29.57-19.81-4.84-4-9.46-8.25-13.84-12.74v32.62h-17.69l-23.96-43.51h-.16v43.51h-16.6v-72.43h17.69l24.33 43.05h.16v-22.38A176.7 176.7 0 0 1 106 472.8c0-.02-.02-.04-.03-.06l-4.41 1.71a181 181 0 0 1-9.9-33.39c-2.2-11.33-3.36-23-3.36-34.92Zm70.72 170.4h20.71v5.44h-14.72v5.79h12.98v5.44h-12.98v10.53H159v-27.2Zm38.82-.47q6.21 0 10.32 4.08c2.73 2.72 4.1 6.05 4.1 9.98s-1.38 7.23-4.14 9.97c-2.76 2.73-6.21 4.1-10.35 4.1s-7.58-1.36-10.32-4.08c-2.73-2.72-4.1-6.05-4.1-9.98s1.38-7.23 4.14-9.97c2.76-2.73 6.21-4.1 10.35-4.1m137.21.47H341v21.76h13.56v5.44h-19.54zm24.46 0h5.98v21.76h13.56v5.44h-19.54zm41.93-13.87 23.99-72.36 16.34-.11 22.99 72.42-17.07.05-3.44-9.47-22.91-.16-2.83 9.63H401.4Zm-186.66 63.45c0-3.94 1.33-7.27 4-9.98 2.67-2.72 6.06-4.08 10.18-4.08 2.36 0 4.34.38 5.94 1.15 1.61.76 3.13 1.86 4.58 3.28l-3.57 4.12c-1.17-1.06-2.26-1.83-3.28-2.31s-2.26-.72-3.71-.72c-2.28 0-4.16.82-5.65 2.47-1.49 1.64-2.23 3.67-2.23 6.08s.74 4.4 2.23 6.06 3.37 2.49 5.65 2.49c1.45 0 2.71-.26 3.77-.78s2.19-1.32 3.38-2.41l3.81 4.08c-1.48 1.58-3.08 2.75-4.8 3.5s-3.84 1.13-6.35 1.13c-3.99 0-7.31-1.35-9.97-4.06-2.65-2.71-3.98-6.04-3.98-10Zm29.93 13.59v-27.2h5.98v21.76h13.56v5.44zm26.36-2.66c-2.07-2.06-3.11-5.06-3.11-8.99v-15.54h5.98v15.39c0 2.18.51 3.84 1.53 4.99s2.47 1.73 4.33 1.73 3.31-.56 4.33-1.67q1.53-1.665 1.53-4.86v-15.58h5.98v15.35c0 4.04-1.06 7.1-3.17 9.17s-5.03 3.11-8.76 3.11-6.59-1.03-8.66-3.09Zm27.11 2.66v-27.2h12.63c3.13 0 5.5.8 7.11 2.41 1.24 1.24 1.86 2.81 1.86 4.7 0 2.56-1.19 4.52-3.57 5.87 1.68.65 2.95 1.5 3.81 2.54.85 1.05 1.28 2.45 1.28 4.22 0 2.43-.91 4.29-2.72 5.56s-4.3 1.9-7.46 1.9z" class="cls-4"></path><path id="path32" d="M197.73 581.55c-2.38 0-4.34.82-5.87 2.47-1.53 1.64-2.29 3.67-2.29 6.08s.78 4.4 2.33 6.06q2.325 2.49 5.91 2.49c3.585 0 4.34-.82 5.87-2.47 1.53-1.64 2.29-3.67 2.29-6.08s-.78-4.4-2.33-6.06q-2.325-2.49-5.91-2.49" class="cls-4"></path><path id="path33" d="M223.01 590.1c0 2.38.78 4.4 2.33 6.06q2.325 2.49 5.91 2.49c3.585 0 4.34-.82 5.87-2.47 1.53-1.64 2.29-3.67 2.29-6.08s-.78-4.4-2.33-6.06q-2.325-2.49-5.91-2.49c-3.585 0-4.34.82-5.87 2.47-1.53 1.64-2.29 3.67-2.29 6.08" class="cls-4"></path><path id="path34" d="M281.28 592.47v5.98h7.11q4.23 0 4.23-3.03c0-3.03-1.48-2.95-4.43-2.95h-6.92Z" class="cls-4"></path><path id="path35" d="m315.92 583.49-3.61 8.82h7.23l-3.61-8.82Z" class="cls-4"></path><path id="path36" d="M309.88 617.72h-5.91v5.75h5.52c2.87 0 4.31-.98 4.31-2.95 0-.91-.34-1.6-1.01-2.08q-1.005-.72-2.91-.72" class="cls-4"></path><path id="path37" d="M310.89 628.45h-6.92v5.98h7.11q4.23 0 4.23-3.03c0-3.03-1.48-2.95-4.43-2.95Z" class="cls-4"></path><path id="path38" d="M281.28 587.49h5.52c2.87 0 4.31-.98 4.31-2.95 0-.91-.34-1.6-1.01-2.08-.22-.16-.47-.29-.76-.39-.59-.22-1.37-.33-2.07-.33h-6v5.75Z" class="cls-4"></path><path id="path39" d="M189.73 545.92c11.25 0 19.22-9.8 19.22-19.79 0-9.41-9.13-20.06-19.07-19.89-11.29.19-19.6 7.46-19.69 19.67-.08 10 8.29 20.01 19.54 20.01" class="cls-4"></path><path id="path40" d="m309.18 518.4-6.27 18.59 11.85.14-5.42-18.74h-.16Z" class="cls-4"></path><path id="path41" d="M361.99 507.15v20.16c6.34 0 13.47-3.68 13.63-10.44.14-6.09-7.4-9.72-13.63-9.72" class="cls-4"></path><path id="path42" d="m433.46 518.4-6.27 18.59 11.85.14-5.42-18.74h-.16Z" class="cls-4"></path></g></g><!-- source: https://football-logos.cc --></svg>