<svg xmlns="http://www.w3.org/2000/svg" xml:space="preserve" viewBox="-121.2 280 213.2 284.8"><!-- Source: https://football-logos.cc --><g fill-rule="evenodd" clip-rule="evenodd" data-source="https://football-logos.cc"><path fill="#239DD1" d="M-14.6 564.8c58.7 0 106.6-64 106.6-142.4C92 343.9 44.1 280-14.6 280s-106.6 64-106.6 142.4 47.9 142.4 106.6 142.4"></path><path fill="#FFF" d="M-14.6 562.1c57.2 0 103.9-62.8 103.9-139.7 0-77-46.7-139.7-103.9-139.7s-103.9 62.8-103.9 139.7 46.7 139.7 103.9 139.7"></path><path d="M-14.6 556.6c54.2 0 98.4-60.3 98.4-134.3S39.6 288-14.6 288-113 348.3-113 422.3c-.1 74 44.2 134.3 98.4 134.3"></path><path fill="#239DD1" d="m77.9 435.7-88.2 106.6-91.3-98.8 35.8-1.6L-9 503l53.3-65.8z"></path><path fill="#FFF" d="M-108.2 405.3h32.3L-9 479.6l60.6-74.3h26.8L-9.7 511.9z"></path><g fill="#FFF"><path d="M-26.2 429.6V440c0 .4 0 .7.1.8.1.2.1.3.3.3.1.1.4.1.8.1h1.3v1.8h-7.6v-1.8h1.3c.4 0 .7 0 .9-.1l.3-.3c.1-.1.1-.4.1-.9v-7.4h-2.5v-1.8c.7-.1 1.3-.2 1.6-.2.6-.1 1.2-.3 1.8-.5.4-.1.7-.2 1-.4zM-20.9 443.2v-1.8q1.65-.15 2.7-.3c.7-.2 1.2-.4 1.7-.7s.8-.7 1.1-1.1q.45-.6.6-1.5c-.5.4-1 .7-1.5.8-.5.2-1 .2-1.5.2-.9 0-1.6-.2-2.3-.6s-1.2-.9-1.6-1.5-.5-1.4-.5-2.2c0-1.4.5-2.6 1.4-3.5s2.2-1.4 3.8-1.4 2.9.5 3.8 1.4c1.1 1.1 1.6 2.6 1.6 4.5q0 1.95-.6 3.3c-.4.9-.9 1.7-1.7 2.4q-1.2 1.05-2.7 1.5c-1 .4-2.5.5-4.3.5m3.9-6.6c.4 0 .8-.1 1.1-.3s.6-.5.8-.9.3-.8.3-1.3q0-1.05-.6-1.8c-.4-.5-.9-.7-1.5-.7s-1.1.2-1.6.7q-.6.75-.6 1.8t.6 1.8c.4.5.9.7 1.5.7M-4.8 429.6c1.1 0 2 .3 2.8.8s1.4 1.3 1.9 2.2c.4 1 .7 2.2.7 3.7q0 2.55-.6 3.9c-.5 1-1.1 1.8-1.9 2.3s-1.8.8-2.9.8-2.1-.3-2.9-.8-1.4-1.3-1.8-2.3c-.5-1-.7-2.3-.7-3.8s.2-2.8.7-3.8 1.1-1.7 1.9-2.3c.8-.5 1.7-.7 2.8-.7m2.3 6.8c0-1.7-.2-3-.7-3.8-.4-.7-1-1-1.7-1-.6 0-1.2.4-1.6 1.1s-.7 1.9-.7 3.7.2 3 .7 3.7c.4.7 1 1.1 1.7 1.1s1.2-.4 1.7-1.1c.4-.7.6-2 .6-3.7M3.1 443.2v-1.8q1.65-.15 2.7-.3c.7-.2 1.2-.4 1.7-.7s.8-.7 1.1-1.1q.45-.6.6-1.5c-.5.4-1 .7-1.5.8-.5.2-1 .2-1.5.2-.9 0-1.6-.2-2.3-.6s-1.2-.9-1.6-1.5-.5-1.4-.5-2.2c0-1.4.5-2.6 1.4-3.5s2.2-1.4 3.8-1.4 2.9.5 3.8 1.4c1.1 1.1 1.6 2.6 1.6 4.5q0 1.95-.6 3.3c-.4.9-.9 1.7-1.7 2.4q-1.2 1.05-2.7 1.5c-1 .4-2.5.5-4.3.5m3.9-6.6c.4 0 .8-.1 1.1-.3s.6-.5.8-.9.3-.8.3-1.3q0-1.05-.6-1.8c-.4-.5-.9-.7-1.5-.7s-1.1.2-1.6.7q-.6.75-.6 1.8t.6 1.8c.4.5.9.7 1.5.7M-28.2 328.2h3.3l4.5 12.8c.2.7.5 1.1.6 1.3.2.2.5.2 1 .2v2.3h-7.1v-2.3h.4c.4 0 .7-.1.8-.2.2-.1.2-.3.2-.4s-.1-.4-.2-.9l-.4-1.5h-4.5l-.6 1.7c-.1.4-.2.6-.2.7s0 .2.1.3.2.2.4.2h1v2.3h-5.8v-2.3c.4 0 .6 0 .8-.1s.3-.2.4-.3.2-.4.4-.8zm-.5 9h3l-1.5-4.6zM-15 340.6c.6 0 1 .2 1.4.7.4.4.6 1 .6 1.6s-.2 1.1-.6 1.6c-.4.4-.9.7-1.4.7-.6 0-1-.2-1.4-.7-.4-.4-.6-1-.6-1.6s.2-1.1.6-1.6.9-.7 1.4-.7M.8 328.2l1.3 5.6-2 .6c-.7-1.3-1.4-2.3-2.3-2.9q-1.2-.9-2.7-.9c-.6 0-1.1.1-1.4.4-.4.3-.5.6-.5.9 0 .4.2.8.5 1.1s.9.6 1.7.9l2.9.9c1.6.5 2.7 1.2 3.4 2 .7.9 1 1.8 1 3 0 1.4-.5 2.7-1.5 3.6-1.1 1.1-2.6 1.6-4.3 1.6-.8 0-1.5-.1-2.2-.3s-1.4-.6-2.1-1.1l-.5 1.2h-1.6l-1.1-6.5 2-.5c.5 1.3 1.2 2.4 2.2 3.3s2.1 1.3 3.3 1.3c.5 0 1-.1 1.3-.2.3-.2.6-.4.8-.6.2-.3.3-.5.3-.8q0-.75-.6-1.2c-.4-.3-1.2-.7-2.2-1l-2.5-.8c-.4-.1-.9-.3-1.5-.7-.6-.3-1.1-.7-1.5-1-.3-.4-.6-.8-.9-1.4q-.3-.9-.3-1.8c0-.9.2-1.7.7-2.4.4-.7 1.1-1.3 2-1.8s1.9-.7 2.9-.7c1.3 0 2.5.4 3.5 1.1l.4-.8H.8zM6.9 340.6c.6 0 1 .2 1.4.7.4.4.6 1 .6 1.6s-.2 1.1-.6 1.6c-.4.4-.9.7-1.4.7-.6 0-1-.2-1.4-.7-.4-.4-.6-1-.6-1.6s.2-1.1.6-1.6.9-.7 1.4-.7M-88 363.9h6.9v2.2h-.5c-.3 0-.6 0-.7.1l-.3.3c-.1.1-.1.4-.1.8v4.8h-2.1l-.5-1.1c-.6.5-1.3.8-2 1q-1.05.3-2.1.3c-1.3 0-2.5-.3-3.6-1s-1.9-1.6-2.5-2.9c-.6-1.2-.9-2.6-.9-4.1s.3-2.9.9-4c.6-1.2 1.5-2.1 2.6-2.8s2.3-1 3.6-1c.6 0 1.2.1 1.9.3.6.2 1.2.4 1.6.7l.4-.7h1.4l1.3 5.1-1.9.7c-.6-1.1-1.1-1.9-1.5-2.3s-.8-.7-1.3-.9-.9-.3-1.4-.3q-.9 0-1.8.6c-.6.4-1 1-1.3 1.8s-.5 1.7-.5 2.8c0 1.2.2 2.3.5 3.2.4.9.8 1.6 1.4 2s1.2.6 1.9.6c.5 0 1-.1 1.4-.3s.7-.5.9-.7c.2-.3.2-.6.2-1.1v-.6c0-.4 0-.6-.1-.7s-.2-.3-.3-.3c-.1-.1-.4-.1-.7-.1h-.8zM-80.1 356.7h6.9v2.1h-.6c-.4 0-.6 0-.7.1l-.3.3c-.1.2-.1.4-.1.9v8.5c0 .5 0 .8.1.9 0 .1.1.2.2.3s.4.1.6.1h.8v2.1h-6.9v-2h.6c.4 0 .7 0 .8-.1l.3-.3c.1-.1.1-.4.1-.8v-8.6c0-.5 0-.8-.1-.9q-.15-.3-.3-.3c-.1-.1-.3-.1-.7-.1h-.6v-2.2zM-66.5 356.7h3.2l4.3 11.9q.3.9.6 1.2c.2.1.5.2 1 .2v2.1h-6.7V370h.4c.4 0 .6-.1.8-.2.1-.1.2-.2.2-.4 0-.1-.1-.4-.2-.8l-.4-1.4h-4.3l-.5 1.6c-.1.3-.2.5-.2.7 0 .1 0 .2.1.3s.2.2.4.2h1v2.1h-5.5V370c.4 0 .6 0 .8-.1s.3-.2.4-.3.2-.4.4-.7zm-.5 8.3h2.8l-1.4-4.2zM-56.7 356.7h5.8l4.2 9v-5.5c0-.5 0-.8-.1-.9-.1-.2-.2-.3-.3-.4s-.3-.1-.7-.1h-.7v-2.1h5.9v2.1h-.7c-.3 0-.6 0-.7.1l-.3.3c-.1.1-.1.4-.1.9V372h-2.9l-5.3-11.3v7.9c0 .5 0 .7.1.9q0 .15.3.3c.1.1.4.1.7.1h.7v2.1h-5.9v-2h.6c.3 0 .6 0 .7-.1l.3-.3c.1-.2.1-.4.1-.7v-8.8c0-.3 0-.6-.1-.7q-.15-.3-.3-.3c-.1-.1-.3-.1-.6-.1h-.8v-2.3zM-36.1 356.7h3.2l4.3 11.9q.3.9.6 1.2c.2.1.5.2 1 .2v2.1h-6.7V370h.4c.4 0 .6-.1.8-.2.1-.1.2-.2.2-.4 0-.1-.1-.4-.2-.8l-.4-1.4h-4.3l-.5 1.6c-.1.3-.2.5-.2.7 0 .1 0 .2.1.3s.2.2.4.2h1v2.1H-42V370c.4 0 .6 0 .8-.1s.3-.2.4-.3.2-.4.4-.7zm-.4 8.3h2.8l-1.4-4.2zM-19.1 356.7h11.9l1.6 4.9-1.8.7c-.3-.8-.7-1.4-1.1-1.9s-.9-.8-1.4-1-1.1-.2-1.8-.2h-2.2v3.8h.7c.5 0 .9 0 1.1-.1s.3-.2.4-.4.1-.5.1-1.1v-.6h1.8v6.5h-1.8v-.7c0-.5 0-.8-.1-1s-.2-.3-.4-.4-.5-.1-1.1-.1h-.6v4.2c0 .1.1.1.2.2.1 0 .3.1.6.1h1.2c.9 0 1.6-.1 2.3-.4.6-.3 1.2-.7 1.6-1.3.5-.6.8-1.3 1.1-2.2l1.9.7-1.9 5.7h-12.3V370h.4c.5 0 .8 0 1-.1s.3-.2.3-.4c0-.1.1-.4.1-.9v-8.4c0-.5 0-.8-.1-.9s-.1-.2-.3-.3c-.1-.1-.4-.1-.7-.1h-.6v-2.2zM.5 360.9v1.6c.5-.6 1-1 1.4-1.3.4-.2.8-.3 1.1-.3s.6.1.9.2c.3.2.5.4.6.7.2.3.2.6.2 1 0 .5-.1.9-.4 1.3q-.45.6-1.2.6h-.4c-.1 0-.3-.1-.7-.2-.2-.1-.3-.1-.4-.1-.2 0-.5.1-.9.4v4.3c0 .4 0 .6.1.7s.1.2.3.2c.1.1.4.1.8.1h.4v2.1H-4V370h.5c.4 0 .6 0 .7-.1.1 0 .2-.1.2-.2s.1-.4.1-.7v-5.1H-4v-2.1c1.1-.1 2.3-.4 3.5-.9zM10.2 360.9v1.5c.6-.5 1.2-.9 1.8-1.1s1.2-.4 1.9-.4c.4 0 .8.1 1.2.2s.7.3.9.5c.3.2.5.5.7.8.7-.5 1.3-.9 1.9-1.2.6-.2 1.2-.4 1.8-.4q.75 0 1.5.3c.4.2.8.5 1.1.9s.5.8.5 1.2c.1.3.1.7.1 1.2v4.6c0 .4 0 .6.1.7q0 .15.3.3c.1 0 .3.1.7.1h.4v2.1h-6V370c.4 0 .7 0 .8-.1.1 0 .2-.1.3-.2s.1-.3.1-.7v-4c0-.5 0-.8-.1-.9-.1-.2-.2-.3-.3-.4-.2-.1-.4-.2-.6-.2-.3 0-.5.1-.9.2-.3.1-.8.4-1.4.8v4.3c0 .4 0 .7.1.8s.1.2.3.3c.1 0 .3.1.8.1v2.1h-5.6V370c.5 0 .7 0 .8-.1.1 0 .2-.1.2-.2.1-.1.1-.4.1-.8v-3.8c0-.6 0-1-.1-1.2-.1-.3-.4-.4-.8-.4-.2 0-.4 0-.6.1s-.4.1-.6.2c-.1.1-.4.2-.8.6l-.2.2v4.3c0 .4 0 .7.1.8 0 .1.1.2.2.3s.3.1.6.1h.3v2.1h-6V370h.4c.4 0 .7 0 .8-.1.1 0 .2-.1.2-.3.1-.1.1-.4.1-.8v-5H5.8v-2.1c1.2-.1 2.4-.4 3.4-.9h1zM29.6 355.9c.5 0 1 .2 1.3.6.4.4.5.9.5 1.4 0 .6-.2 1-.5 1.4-.4.4-.8.6-1.3.6s-1-.2-1.3-.6c-.4-.4-.5-.9-.5-1.4s.2-1 .6-1.4c.2-.4.7-.6 1.2-.6m1.6 5v8.2c0 .4 0 .6.1.7 0 .1.1.2.2.2s.3.1.7.1h.6v2.1h-6.3V370h.5c.4 0 .6 0 .7-.1.1 0 .2-.1.2-.2s.1-.3.1-.6v-5.3h-1.5v-2.1c.5 0 1.1-.1 1.5-.2.5-.1.9-.2 1.3-.3.3-.1.6-.2.9-.4h1zM38.5 360.9v1.5c.8-.6 1.4-.9 2-1.2.5-.2 1.1-.3 1.7-.3.7 0 1.2.2 1.8.5.5.3.9.7 1.1 1.1.2.5.3 1.1.3 1.9v4.6c0 .4 0 .6.1.7s.1.2.2.2.3.1.7.1h.5v2.1h-6V370h.8c.2-.1.3-.1.3-.3.1-.1.1-.4.1-.8v-4c0-.5-.1-.9-.2-1-.2-.3-.4-.4-.8-.4-.3 0-.6.1-.9.2s-.8.4-1.3.9v4.4c0 .5 0 .8.1.9s.3.2.7.2h.3v2.1h-5.9V370h.3c.5 0 .8 0 .9-.1.1 0 .2-.1.3-.2s.1-.3.1-.6V364h-1.5v-2.1c1.2-.2 2.4-.5 3.4-.9h.9zM51.3 355.9c.5 0 1 .2 1.3.6.4.4.5.9.5 1.4 0 .6-.2 1-.5 1.4-.4.4-.8.6-1.3.6s-1-.2-1.3-.6c-.4-.4-.5-.9-.5-1.4s.2-1 .6-1.4q.45-.6 1.2-.6m1.6 5v8.2c0 .4 0 .6.1.7 0 .1.1.2.2.2s.3.1.7.1h.5v2.1h-6.3V370h.5c.4 0 .6 0 .7-.1.1 0 .2-.1.2-.2s.1-.3.1-.6v-5.3h-1.5v-2.1c.5 0 1.1-.1 1.5-.2.5-.1.9-.2 1.3-.3.3-.1.6-.2.9-.4h1.1zM61.3 360.9c1.2 0 2.2.2 3 .7.9.5 1.5 1.2 2 2s.7 1.8.7 3q0 2.55-1.5 4.2c-1 1.1-2.4 1.6-4.1 1.6-1.8 0-3.2-.5-4.2-1.6q-1.5-1.5-1.5-4.2c0-1.2.2-2.1.7-3 .5-.8 1.1-1.5 2-2 .8-.5 1.8-.7 2.9-.7m.1 2.4c-.4 0-.8.1-1.1.4-.3.2-.6.6-.8 1.1s-.3 1.1-.3 1.9.1 1.4.3 1.9.4.9.8 1.1c.3.2.7.4 1.1.4.6 0 1.1-.3 1.5-.8s.6-1.4.6-2.6c0-1.1-.2-2-.6-2.5q-.6-.9-1.5-.9"></path></g><path fill="#FFF" d="M-9.7 423.7c12.7 0 23.1-10 23.1-22.3S3 379.1-9.7 379.1s-23.1 10-23.1 22.3c-.1 12.3 10.3 22.3 23.1 22.3"></path><path d="M-9.7 423.1c12.5 0 22.7-9.7 22.7-21.7 0-11.9-10.2-21.7-22.7-21.7s-22.7 9.7-22.7 21.7 10.2 21.7 22.7 21.7"></path><path fill="#FFF" d="M-11.1 396.7c1.2 3 2 6.4 2.2 8.9-.8.9-1.6 1.8-2.4 2.6-1.1 1.2-2.3 2.3-3.5 3.3-2.6-.2-6.6-1.6-9.4-3-1-1.8-1.5-4.7-2-8.1 1.6-2.2 4.5-4.9 6.4-6.3 2.8.5 5.9 1.4 8.7 2.6m4.4-16.1c5.5.7 10.3 3.3 13.7 7.1 0 .7.1 1.4 0 2.1-1 .9-2 1.8-3 2.6-2.7-1-5.3-2-8.4-2.3-1-2.2-2.5-4.6-4.2-6.4zm14.2 7.7c1 1.2 1.9 2.5 2.6 3.9-.9-1.1-1.9-2.1-2.6-2.6.1-.4.1-.8 0-1.3m3.6 6c-1.1-1.5-2.7-3.3-3.7-4.1-.9.9-1.9 1.8-3 2.6.9 2.9 1.5 5.5 1.7 8.9 1.6.3 3.2.6 4.5 1 .4-2 .8-4.5.9-6.8-.1-.6-.2-1.1-.4-1.6m.9 3.3c.2 1.3.4 2.6.4 3.9 0 1.6-.2 3.2-.6 4.7-.2-1.1-.4-2.1-.7-3.2v-.1c.4-1.6.7-3.5.9-5.3m-.5 9.8C10.1 412 7 416 2.9 418.7l-3.3-2c.4-2.9.7-5.7 1-8.6 2.1-1.8 3.5-3.6 5.3-5.8 1.7.3 3.3.6 4.8 1 .2 1.3.5 2.7.8 4.1m-26.3 14.5 4.3-3.5c-1.6-1.9-3.1-4.2-4.4-6.3-2.7-.2-6.6-1.5-9.4-3l-2.4 2.7c.1 1.1.2 2.3.3 3.4 3 3.3 7 5.7 11.6 6.7m-12.3-7.4c-1.3-1.5-2.3-3.2-3.1-5l2.8 2.4c.2.8.2 1.7.3 2.6m-4.6-11c-.1-.7-.1-1.4-.1-2.1 0-1.5.2-3 .5-4.4.2.8.5 1.6.8 2.5zm.7-7.5c.3 1.1.6 2.2 1 3.2l3.4.8c1.6-2.2 4.5-4.9 6.4-6.4v-.2c0-2.4.4-5 .8-7.4l-3.9-1.1c-3.8 2.8-6.5 6.7-7.7 11.1m26-5.7c-1-2.2-2.6-4.6-4.3-6.3-3.6 0-7 .8-9.6 2-.4 2.4-.8 5.1-.8 7.5 2.8.6 5.7 1.4 8.4 2.5 1.9-2.1 4-4.1 6.3-5.7m4.1 26.3c.4-2.8.7-5.6 1-8.4-3-.6-5.8-1.3-8.6-2.2-.8.9-1.6 1.8-2.4 2.6-1.1 1.1-2.3 2.3-3.5 3.3 1.4 2.2 2.9 4.4 4.6 6.4 2.7.2 6.1-.5 8.9-1.7"></path></g><!-- source: https://football-logos.cc --></svg>