<svg xmlns="http://www.w3.org/2000/svg" xml:space="preserve" version="1.0" viewBox="0 0 368.64 368.64"><!-- Source: https://football-logos.cc --><path d="M0 184.32C.004 82.522 82.522.004 184.32 0c101.798.003 184.317 82.522 184.32 184.32-.003 101.798-82.522 184.317-184.32 184.32C82.522 368.637.004 286.118 0 184.32" style="fill:#fff;fill-opacity:1;stroke-width:1" data-source="https://football-logos.cc"></path><path d="M59.253 59.253C27.238 91.271 7.45 135.466 7.448 184.32c.002 48.854 19.79 93.048 51.805 125.067 32.019 32.014 76.213 51.803 125.067 51.805 48.854-.002 93.048-19.79 125.068-51.805 32.014-32.019 51.802-76.213 51.804-125.067-.002-48.853-19.79-93.047-51.805-125.067C277.369 27.238 233.175 7.45 184.32 7.448c-48.854.002-93.048 19.79-125.067 51.805" style="fill:#199fd6;stroke-width:1" data-source="https://football-logos.cc"></path><path d="M67.202 288.276c20.515-2.394 30.088-4.787 30.088-27.353V98.857C78.143 75.265 72.673 74.239 68.227 74.239v-8.548h72.143l118.644 145.996h.684V108.088c0-20.515-4.103-31.797-31.798-33.849v-8.548h73.511v8.548c-24.618 3.077-26.669 10.941-26.669 27.353v201.386h-9.574l-152.15-185.316h-.684v136.764c0 24.618 7.181 31.114 32.482 33.85v8.548H67.202Z" style="fill:#fff" data-source="https://football-logos.cc"></path><!-- source: https://football-logos.cc --></svg>