<svg xmlns="http://www.w3.org/2000/svg" viewBox="0 0 529.34 587.25"><!-- Source: https://football-logos.cc --><path d="M171.23 617.93c-40.228-41.452-70.723-88.82-95.135-141.58-20.25-43.762-32.974-89.938-38.912-137.792-3.858-31.096-7.702-87.234 1.318-154.195.668-4.957.857-5.475 4.763-7.189 37.965-16.653 85.537-31.002 126.211-39.003 42.303-8.32 85.423-10.364 128.099-10.364 42.628 0 85.37 3.287 127.246 11.44 40.623 7.91 86.037 18.37 123.32 36.396 6.408 3.098 7.924 3.398 8.343 9.762 8.4 49.059 6.85 104.911.824 153.045-5.993 47.87-19.685 94.415-39.22 138.529-23.334 52.696-55.035 99.684-95.102 141.22-34.456 35.72-73.047 65.221-115.07 90.84-3.347 2.04-8.42 5.502-10.502 5.53-1.968.028-7.534-3.302-11.174-5.46-40.917-24.26-80.423-55.54-115.009-91.179m113.427-261.255q-1.334.2-2.723.27c-6.992.352-13.604-2.189-20.22-4.104l-.007.016c10.476 2.87 17.722 11.125 17.549 23.518-.148 10.599-5.273 17.998-12.068 25.513-7.716 8.536-16.226 18.447-21.624 28.65-5.953 11.252-8.186 23.348-3.67 35.487 6.203 16.675 24.971 28.25 42.764 35.758z" style="fill:none" transform="translate(-32.968 -127.32)" data-source="https://football-logos.cc"></path><path d="M278.773 188.117V168.65h15.518v4.796h-10.044v5.059h8.49v4.542h-8.49v5.07zM307.381 188.205c-5.188 0-10.25-4.176-10.1-9.605.162-5.927 4.814-10.036 9.914-9.961 3.517.051 5.692 1.157 7.892 3.791l-3.883 3.285c-.89-1.124-2.092-2.319-3.653-2.3-2.948.034-4.71 2.296-4.684 4.848.031 3.093 1.803 5.22 4.43 5.164 1.995-.042 3.019-.966 3.973-2.326l3.877 3.46c-2.546 3.062-4.767 3.645-7.766 3.644" style="fill:#1d1d1b;fill-rule:evenodd" transform="translate(-32.968 -127.32)"></path><path d="m209.412 281.031-11.515-17.479 6.06-.883 5.737 9.571 2.232-10.64 6.068-.888-5.793 19.84zM219.456 279.37l6.76-19.67 3.191-.241 10.893 17.816-5.561.536-1.688-3.079-7.05.553-1.039 3.557zm7.623-7.993 4.106-.388-2.583-3.95zM242.614 276.92l-1.332-18.77 5.811-.354.929 14.32 9.043-.507.288 4.282zM268.053 275.719c-5.635.01-9.796-4.237-9.808-9.851-.011-4.948 4.413-9.739 9.883-9.75 3.38-.006 5.304 1.086 7.871 3.495l-3.885 3.55c-1.253-1.462-2.301-2.17-3.721-2.18-2.458-.016-4.505 2.15-4.5 4.817.005 2.685 1.81 5.15 4.548 5.194 1.59.027 2.902-1.02 3.828-2.568l4.235 3.124c-1.966 2.692-5.179 4.162-8.451 4.169M280.22 274.98V256h5.26v8.521h6.752V256h5.26v18.98h-5.26v-5.795h-6.752v5.796zM300.52 274.935l.32-18.979 5.287.09-.32 18.978zM331.218 275.588l1.143-18.686 3.211.137 6.436 9.85 8.04-8.792 2.732.148-1.613 18.701-5.214-.45.612-7.096-5.15 5.209-.107-.01-3.988-5.812-.538 7.113zM355.48 277.885l1.892-18.889 7.792.65c5.219.434 7.668 3.65 7.342 8.969-.286 4.669-4.685 5.926-8.57 5.61l-2.772-.226-.498 4.319zm6.03-7.752 2.35.253c1.603.172 3.185-.869 3.406-2.9.2-1.823-1.345-3.586-2.875-3.713l-2.327-.194zM382 281.097c-5.517-1.301-8.567-5.762-7.246-11.366 1.319-5.594 6.75-8.55 12.242-7.254 5.517 1.3 8.66 6.417 7.339 12.022-1.32 5.593-6.843 7.893-12.335 6.598m1.216-4.42c2.841.671 5.438-.773 6.086-3.523.642-2.726-.624-5.49-3.422-6.15-2.825-.667-5.23 1.238-5.874 3.965-.641 2.722 1.046 5.198 3.21 5.709M130.075 264.854l7.111-39.426 5.104-1.724 26.67 30.003-10.555 3.058-4.154-5.001-12.765 3.674-.826 6.17zm12.412-17.89 6.51-1.948-5.155-6.31zM172.612 252.787l-6.793-35.014 18.109-3.466c6.907-1.322 14.214 2.773 15.667 10.433.986 5.201.828 10.891-4.254 13.932l9.708 8.203-12.141 2.549-7.277-7.18c-1.605.312-2.947.606-4.551.918l1.498 7.723zm6.846-17.165 5.508-1.068c2.97-.576 4.773-3.102 4.26-6.531-.472-3.15-3.173-5.677-6.917-4.907l-4.819.99zM208.29 246.329l-.441-4.558 14.385-24.838-16.533 1.934-.96-8.3 31.022-3.614.528 4.569-14.215 24.73 16.827-2.17.82 8.216zM246.627 241.779l-2.443-35.583 9.913-.68 2.442 35.582zM281.6 241.06c-10.475 0-19.332-7.35-19.413-18.547-.074-10.37 8.925-18.321 19.631-18.321 5.639 0 9.82 1.517 13.828 4.981l-6.338 7.234c-2.533-2.392-4.767-3.017-7.823-2.95-5.125.112-8.67 4.532-8.67 9.809 0 5.705 4.81 9.227 8.968 9.152 2.309-.042 4.4-.772 5.537-1.907l.02-.506-6.62-.038-.037-8.285 17.006-.338-.075 13.8c-4.45 3.669-10.138 5.915-16.014 5.915M303.215 240.133l1.28-35.745 5.107.191 17.763 18.766.585-18.122 10.379.388-1.28 35.613-5.302-.064-17.51-18.65-.475 18.076zM441.696 259.536c-10.357-2.478-16.876-11.831-14.358-22.354 2.512-10.503 12.734-16.023 23.046-13.556 10.358 2.478 16.553 11.953 14.035 22.476-2.512 10.503-12.41 15.901-22.723 13.434m2.113-8.732c4.36.927 9.357-2.092 10.555-6.955 1.258-5.11-1.734-9.984-6.397-11.125-4.99-1.22-9.543 2.971-10.525 7.005-1.241 5.104 1.572 10.054 6.367 11.074M340.309 241.558l21.136-34.033 5.38.278 13.74 37.718-10.939-1.045-2.019-6.18-13.22-1.288-3.042 5.432zm18.13-12.06 6.769.589-2.467-7.765zM384.071 246.694l6.073-35.248 5.035.876 15.08 20.983 3.015-17.88 10.233 1.78-6.056 35.118-5.245-.776-14.844-20.834-2.9 17.848zM308.027 274.533l9.57-18.467 3.193.23 8.163 19.22-5.58-.285-1.218-3.293-7.054-.487-1.55 3.366zm8.713-6.79 4.119.218-1.977-4.286z" style="fill:#211c16;fill-rule:evenodd" transform="translate(-32.968 -127.32)"></path><path d="M297.545 698.827c-1.103.104-2.54.157-4.4-.946-39.976-23.686-78.742-51.496-113.885-87.71-35.185-36.255-66.67-80.858-91.998-138.057a479.4 479.4 0 0 1-37.42-135.126c-5.652-45.552-4.893-92.9 3.159-140.973.17-1.025.462-2.104 1.033-3.203l-.017-.009c.782-1.503 1.96-2.774 3.759-3.597l-.005-.008c36.757-16.722 75.11-28.885 115.1-36.867 39.94-7.97 81.493-11.767 124.703-11.767 43.164 0 84.87 3.429 124.808 11.205 40.014 7.79 78.214 19.945 114.28 37.383 1.021.493 2.016 1.137 2.882 2.021 1.135 1.159 1.955 2.593 2.252 4.401 7.909 48.115 8.573 95.607 2.854 141.292-5.939 47.439-18.751 92.964-37.476 135.248-25.324 57.19-56.654 102.078-91.72 138.43s-73.79 64.101-113.943 87.045h-.022c-.418.238-.764.43-1.21.625-.907.398-1.756.608-2.734.613zm-110.18-96.54c33.8 34.83 71.147 61.77 109.73 84.775 38.913-22.347 76.374-49.282 110.21-84.358 34.186-35.44 64.755-79.258 89.505-135.152 18.28-41.283 30.79-85.734 36.59-132.06 5.536-44.22 4.968-90.12-2.517-136.569-34.893-16.77-71.872-28.492-110.627-36.038-39.148-7.622-80.152-10.983-122.682-10.983-42.484 0-83.301 3.725-122.488 11.546-38.577 7.7-75.591 19.372-111.08 35.372-7.712 46.608-8.404 92.551-2.914 136.794a468.1 468.1 0 0 0 36.534 131.938c24.747 55.884 55.453 99.406 89.739 134.736" style="fill:#171717;fill-rule:evenodd" transform="translate(-32.968 -127.32)"></path><path d="M297.926 332.093c-1.618-4.495-5.435-8.036-11.466-9.91-.823-.255-.678.198-.329.572 3.121 3.34 5.539 6.108 5.363 11.626-.198 6.205-4.413 9.534-10.2 9.825-5.175.26-13.686-3.118-19.575-4.575-2.84-.702-6.27-.922-8.775-.3-1.458.362-2.755.947-2.878 2.925-.085 1.37.343 3.044.215 4.387-.084.888-.119 1.692-1.35 1.65-7.048-.24-15.264-.184-21.825 1.313-9.345 2.132-11.4 7.428-10.332 15.788.139 1.081.582.9 1.032.281 7.155-9.845 18.587-10.164 29.963-8.4.702.11.904.447.431.798-4.536 3.367-10.03 6.782-13.518 10.285-.431.433-.112.749.319.506 4.566-2.572 11.225-4.526 18.525-4.368 6.977.151 13.095 3.121 12.975 11.7-.1 7.145-4.352 12.245-8.775 17.138-9.847 10.891-18.159 21.261-23.437 31.238-8.028 15.174-9.937 30.886-4.351 45.9 10.27 27.608 44.755 42.406 67.8 49.65" style="fill:none" transform="translate(-32.968 -127.32)"></path><path d="M297.413 330.856c-1.84-3.907-5.486-6.975-10.953-8.672-.823-.256-.678.197-.329.571 3.121 3.34 5.539 6.108 5.363 11.625-.198 6.206-4.413 9.535-10.2 9.826-5.175.26-13.686-3.118-19.575-4.575-2.84-.702-6.27-.922-8.775-.3-1.458.362-2.755.947-2.878 2.925-.085 1.37.343 3.044.215 4.387-.084.888-.119 1.692-1.35 1.65-7.048-.24-15.264-.184-21.825 1.313-9.345 2.132-11.4 7.428-10.332 15.788.139 1.081.582.9 1.032.281 7.155-9.845 18.587-10.164 29.963-8.4.702.11.904.447.431.798-4.536 3.367-10.03 6.782-13.518 10.285-.431.433-.112.749.319.506 4.566-2.572 11.225-4.526 18.525-4.368 6.977.151 13.095 3.121 12.975 11.7-.1 7.145-4.352 12.245-8.775 17.138-9.847 10.891-18.159 21.261-23.437 31.238-8.028 15.174-9.937 30.886-4.351 45.9 10.223 27.478 44.432 42.267 67.475 49.548z" style="fill:#171717;fill-rule:evenodd" transform="translate(-32.968 -127.32)"></path><path d="M217.781 431.337c1.47-.491 3.731-.474 4.575.825 1.805 2.776 2.025 6.372 2.25 9.675.265 3.869-2.075 7.665-4.547 10.669-5.586 6.787-11.552 13.51-19.153 18.13-2.51 1.527-5.168 2.83-8.147 3.076-2.176.18-4.759-.254-6.328-1.772-1.652-1.598-2.671-3.333-2.194-6.244.034-.208-.316-.257-.525-.225-.94.144-2.035.507-3 .198-1.613-.518-2.627-2.791-3.6-4.238-.92-1.369-1.555-3.074-2.925-3.994-.814-.547-2.072-.394-2.943.056-1.272.658-2.09 2.023-2.972 3.15-1.416 1.81-2.05 3.345-3.552 5.274-.582.748-.894.275-.902.051-.034-1.017-.053-1.646-.224-2.475-.632-3.053-.76-7.053-.525-9.187.836-7.615 3.786-14.722 7.47-21.854.175-.337.304-.608.666-.722 6.388-2.027 11.616-5.585 15.113-10.678.272-.396.488.028.488.028.148 2.34-.898 4.626-1.35 6.938-.647 3.3-1.649 6.55-1.95 9.899-.166 1.839-.101 3.789.562 5.512 1.948 5.063 3.054 9.209 7.387 13.387 3.542-3.107 4.093-3.986 5.054-4.964 1.648-1.677 2.346-3.403 3.909-5.16 3.126-3.519 6.037-7.27 9.562-10.388 2.31-2.042 4.878-3.989 7.801-4.967M140.353 393.02c-.225.475-.717.368-.755 0-.052-3.378 1.172-6.412 5.217-9.056 4.128-2.697 8.753-3.845 13.388-3.413 8.574.8 19.06 4.49 18.488 13.5-.39 6.158-3.316 7.417-5.83 9.703-.515.39-.71.093-.47-.262 1.599-2.373 1.136-2.862 1.313-4.979.35-4.198-2.412-7.665-5.925-10.086-2.441-1.683-6.186-3.003-9.825-3.563-5.932-.912-13.706 3.072-15.601 8.156" style="fill:#171717;fill-rule:evenodd" transform="translate(-32.968 -127.32)"></path><path d="M129.357 409.69c-.245.44-.588.455-.525-.188.44-4.509 2.19-7.493 6.451-9.788 3.979-2.142 8.876-3.003 13.275-2.578 5.521.533 10.53 2.258 14.325 6.703 1.613 1.89 2.452 4.192 2.475 6.9.038 4.489-2.43 6.88-5.16 9.41-.755.7-.876.376-.465-.41 1.177-2.248 1.33-5.482.675-8.1-.67-2.675-3.93-6.602-8.4-8.474-2.968-1.244-6.122-1.681-9.525-1.575-5.61.174-9.944 2.39-13.126 8.1" style="fill:#171717;fill-rule:evenodd" transform="translate(-32.968 -127.32)" data-source="https://football-logos.cc"></path><path d="M174.872 406.391c-.298-.415.082-.336.263-.188 3.266 2.681 6.853 4.903 6.6 10.5-.24 5.288-3.264 8.43-7.388 10.613-3.301 1.957-7.013 2.95-11.4 2.813-11.408-.358-16.105-4.341-18.563-12-.408-1.275.114-1.056.675-.376 3.674 4.451 9.296 7.148 17.307 7.276 6.818.108 12.946-2.209 15.244-7.088 1.277-2.712.36-7.229-2.738-11.55M331.465 499.672c2.485.022 4.99 1.324 6.826 3 2.07 1.89 4.35 4.396 4.35 7.2-.001 6.767-8.147 11.906-14.4 16.124-6.59 4.446-14.11 7.647-21.226 10.875-1.843.837-4.615 2.726-4.2 4.388.818 3.28 4.96 3.712 8.85 4.95.63.2.482.347-.113.525-21.306 6.37-42.331 12.006-64.03 17.043-1.274.298-1.545-.013.396-.657 31.384-10.408 54.522-36.987 68.547-53.774 4.16-4.979 9.31-9.726 15-9.675M208.749 575.757c.355.553-.032.587-.413.394-2.254-1.145-4.183-4.194-4.162-7.38.03-4.324 2.707-8.124 8.887-10.809 4.33-1.88 12.25-1.495 16.341.319 3.398 1.507 6.716 3.551 6.816 9.431 5.18.188 8.328.301 11.907 2.232 3.658 1.973 5.52 4.832 6.412 8.437.136.547-.313.737-.637.15-2.68-4.848-8.68-6.423-14.02-6.356-4.479.056-9.04 1.398-11.743 3.768-1.903 1.54-2.75 3.536-2.766 5.184-.026 2.665 1.154 4.424 2.804 6.59.138.183-.068.672-.45.526-3.223-1.232-5.341-3.624-5.4-7.5-.056-3.636 1.188-7.02 4.238-9.863 2.271-2.117 5.593-2.81 7.99-3.064-1.995-4.277-7.423-6.266-13.083-6.416-5.388-.144-9.508 1.318-12.383 4.418-2.285 2.464-2.535 6.52-.338 9.939" style="fill:#171717;fill-rule:evenodd" transform="translate(-32.968 -127.32)"></path><path d="M260.57 565.34c-.575-.47-1.262-.706-.037-.75 10.453-.214 17.367 3.685 17.25 12.15-.066 4.864-3.222 7.842-7.2 9.9-5.223 2.704-11.702 2.153-18.506-.224-.26-.09-2.038-.771.037-.826 6.142-.16 11.642-.53 16.173-3.29 2.429-1.48 4.367-3.983 4.35-6.867-.036-6.012-5.274-8.293-12.066-10.093M342.902 520.862c.883-.712 1.5-.19 1.087.6-1.892 3.623-2.78 7.739-2.832 11.775-.067 5.212 2.454 8.618 6.75 8.25 4.774-.408 9.357-1.765 13.875-3.75 7.651-3.36 16.139-7.894 23.775-7.95 2.493-.018 5.251 1.098 6.835 2.906.642.733.072 1.124-.047 2.091-.469 3.808-1.519 8.667-3.787 11.578-6.436 8.26-12.498 12.57-23.4 18.675-3.906 2.188-7.59 4.23-10.93 7.388-1.066 1.007-2.195 2.686-2.176 3.825.038 2.297 3.073 3.085 5.588 3.08 4.758-.012 7.387-1.653 10.05-2.883 4.727-2.182 8.978-6.42 14.213-6.422 4.9-.002 9.342 1.487 11.972 7.308.323.714.138.864-.333.426-2.905-2.704-5.292-3.722-8.489-3.572-7 .33-13.006 3.16-20.344 5.307-2.835.83-5.828 1.354-8.813.937-1.945-.271-3.86-.794-5.587-1.875-.209-.13-.328-.43-.3-.675.474-4.09 3.455-8.48 7.181-11.606 3.73-3.129 7.87-5.074 12.169-7.97 4.855-3.267 8.585-7.566 12.881-11.896 1.946-1.962 4.087-4.803 4.013-7.566-.051-1.874-1.82-3.733-4.369-3.788-3.953-.085-7.672 1.714-11.325 3.526-5.9 2.925-11.806 5.98-18.15 7.8-3.964 1.137-7.298 1.764-12.263 1.574-5.098-.194-10.364-3.615-12.562-8.624-.814-1.855-.575-4.125.009-5.982.797-2.536 3.552-3.773 5.802-5.306 3.394-2.312 6.053-4.397 9.507-7.18M331.128 312.438c-.162-.138-.927-1.097.488-.413 16.309 7.893 28.846 20.712 28.846 48.478 0 .87.546.652.532-.442-.117-9.201.148-17.93.526-27.205.043-1.058.152-.602.375-.187 7.196 13.377 10.604 25.877 10.837 34.537.029 1.075.117.987.525 0 2.137-5.167 3.678-12.973 4.689-20.24.124-.896.777-1.148 1.012.067 2.28 11.822 3.588 27.762 1.612 34.5-.217.74.457.742.76.702 1.338-.174 4.031-3.177 5.728-5.203 1.496-1.785 2.585-3.554 4.51-5.025.576-.44.863-.313.798.2-1.754 13.907-4.94 22.962-10.594 29.538-.519.603-.18.867.45.464 6.04-3.875 11.687-7.787 16.819-12.426.56-.506.874-.062.637.488-3.698 8.59-9.815 16.998-12.937 20.794-.447.543-.096.72.15.9 1.296.948 3.046.91 4.612.9 2.521-.015 4.636-.916 7.327-.877.869.013.638.282.21.652-5.262 4.56-12.054 8.948-17.962 12.45-.588.348-.417.383-.074.862 2.284 3.197 8.627 5.006 11.213 6.357.867.453.636.681-.038.675-5.93-.05-10.437.261-13.257.994-1.832.476-4.04 1.651-4.8 2.372-.187.177-.234.521-.225.778.072 1.963.884 3.854 2.026 5.4 1.68 2.277 4.19 3.568 6.225 5.775.637.692.066.663-.15.638-4.763-.56-8.212-2.352-12.6-2.49-2.754-.085-3.806.515-4.782 1.411-.324.298-.507.799-.469 1.238.12 1.377.814 2.498 1.716 3.459 1.27 1.351 2.454 1.989 4.11 3.26.402.31.476.715-.932.799-4.176.25-7.082-.938-8.657-.947-2.18-.012-4.298.001-6.099 1.266-.334.234-.534.68-.563 1.087-.485 6.987 2.68 10.022 3.713 11.513.534.77-.022.808-.6.337-3.696-3.012-6.888-8.112-13.013-11.512-.653-.363-1.018.049-1.012.413.134 8.653 6.376 16.515 9.638 24 .463 1.064-.256.9-.75.375-4.625-4.914-8.425-10.29-12.263-15.525-1.618-2.206-4.22-4.797-5.706-5.702-.55-.335-.73.428-.655.601 5.432 12.555 10.775 22.427 18.638 35.85 1.013 1.73.116 1.702-.975.775-5.763-4.895-12.429-13.5-19.245-19.61-2.507-2.247-5.784-3.18-9.665-2.953-4.488.262-8.408 1.507-12.675 1.8-6.244.43-8.277-2.59-9-6.074-.873-4.2.321-10.27 1.949-15.526 3.204-10.346 8.154-19.889 12.56-29.787 9.07-20.378 18.754-40.688 26.588-61.564 3.166-8.436 5.309-17.426 5.362-27.6.054-10.17-3.841-15.505-15.483-25.398" style="fill:#171717;fill-rule:evenodd" transform="translate(-32.968 -127.32)"></path><path d="M286.131 322.755c-.35-.374-.494-.827.33-.571 5.466 1.697 9.113 4.765 10.952 8.672V274.98h-5.181v-5.796h-6.752v5.796h-5.26V256h5.26v8.521h6.752V256h5.181v-20.692c-4.419 3.572-10.025 5.751-15.813 5.751-10.475 0-19.332-7.349-19.413-18.546-.074-10.37 8.925-18.321 19.631-18.321 5.639 0 9.82 1.516 13.828 4.981l-6.338 7.234c-2.533-2.392-4.767-3.017-7.823-2.95-5.125.112-8.67 4.532-8.67 9.809 0 5.705 4.81 9.226 8.968 9.152 2.309-.042 4.4-.773 5.537-1.907l.02-.506-6.62-.038-.037-8.285 16.73-.332v-41.006a8.4 8.4 0 0 1-.133-1.744q.022-.745.133-1.45v-25.248c-42.426.009-83.19 3.734-122.327 11.546-38.577 7.7-75.591 19.372-111.08 35.372-7.713 46.608-8.404 92.551-2.914 136.794a468.1 468.1 0 0 0 36.534 131.938c24.746 55.884 55.453 99.406 89.739 134.736 33.8 34.828 71.147 61.77 109.73 84.774l.318-.183V550.864a1035 1035 0 0 1-49.892 12.913c-1.273.299-1.544-.013.397-.656 19.88-6.594 36.453-19.676 49.495-32.648V520.02c-23.043-7.281-57.253-22.07-67.475-49.547-5.586-15.015-3.677-30.727 4.35-45.9 5.28-9.978 13.591-20.348 23.438-31.239 4.423-4.893 8.675-9.993 8.775-17.137.12-8.58-5.998-11.55-12.975-11.701-7.3-.158-13.959 1.796-18.525 4.368-.432.243-.75-.074-.32-.506 3.489-3.503 8.983-6.918 13.52-10.285.472-.35.27-.689-.432-.797-11.376-1.765-22.808-1.446-29.963 8.4-.45.619-.893.8-1.032-.282-1.069-8.36.987-13.656 10.332-15.788 6.561-1.497 14.777-1.554 21.825-1.313 1.231.042 1.266-.762 1.35-1.65.128-1.343-.3-3.018-.215-4.387.123-1.978 1.42-2.563 2.878-2.925 2.505-.622 5.934-.402 8.775.3 5.89 1.457 14.4 4.835 19.575 4.575 5.787-.29 10.002-3.62 10.2-9.826.176-5.517-2.242-8.286-5.363-11.625m-68.35 108.582c1.47-.491 3.731-.474 4.575.825 1.805 2.776 2.025 6.372 2.25 9.675.265 3.869-2.075 7.665-4.547 10.669-5.586 6.787-11.552 13.51-19.153 18.13-2.51 1.527-5.168 2.83-8.147 3.076-2.176.18-4.759-.254-6.328-1.772-1.652-1.598-2.671-3.333-2.194-6.244.034-.208-.316-.257-.525-.225-.94.144-2.035.507-3 .198-1.613-.518-2.627-2.791-3.6-4.238-.92-1.369-1.555-3.074-2.925-3.994-.814-.547-2.072-.394-2.943.056-1.272.658-2.09 2.023-2.972 3.15-1.416 1.81-2.05 3.345-3.552 5.274-.582.748-.894.275-.902.051-.034-1.017-.053-1.646-.224-2.475-.632-3.053-.76-7.053-.525-9.187.836-7.615 3.786-14.722 7.47-21.854.175-.337.304-.608.666-.722 6.388-2.027 11.616-5.585 15.113-10.678.272-.396.488.028.488.028.148 2.34-.898 4.626-1.35 6.938-.647 3.3-1.649 6.55-1.95 9.899-.166 1.839-.101 3.789.562 5.512 1.948 5.063 3.054 9.209 7.387 13.387 3.542-3.107 4.093-3.986 5.054-4.964 1.648-1.677 2.346-3.403 3.909-5.16 3.126-3.519 6.037-7.27 9.562-10.388 2.31-2.042 4.878-3.989 7.801-4.967m-13.607 137.435c.03-4.325 2.707-8.125 8.887-10.81 4.33-1.88 12.25-1.495 16.341.319 3.398 1.507 6.716 3.551 6.816 9.431 5.18.188 8.328.301 11.907 2.232 3.658 1.973 5.52 4.832 6.412 8.437.136.547-.313.737-.637.15-2.68-4.848-8.68-6.423-14.02-6.356-4.479.056-9.04 1.398-11.743 3.768-1.903 1.54-2.75 3.536-2.766 5.184-.026 2.665 1.154 4.424 2.804 6.59.138.183-.068.672-.45.526-3.223-1.232-5.341-3.624-5.4-7.5-.056-3.636 1.188-7.02 4.238-9.863 2.271-2.117 5.593-2.81 7.99-3.064-1.995-4.277-7.423-6.266-13.083-6.416-5.388-.144-9.508 1.318-12.383 4.418-2.285 2.464-2.535 6.52-.338 9.939.355.553-.032.587-.413.394-2.254-1.145-4.183-4.194-4.162-7.38m-45.971-188.22c8.574.798 19.06 4.488 18.488 13.499-.39 6.158-3.316 7.417-5.83 9.703-.515.39-.71.093-.47-.262 1.599-2.373 1.136-2.862 1.313-4.979.35-4.198-2.412-7.665-5.925-10.086-2.441-1.683-6.186-3.003-9.825-3.563-5.932-.912-13.706 3.072-15.601 8.156-.225.475-.717.368-.755 0-.052-3.378 1.172-6.412 5.217-9.056 4.128-2.697 8.753-3.845 13.388-3.413m16.67 25.839c-.299-.415.081-.336.262-.188 3.266 2.681 6.853 4.903 6.6 10.5-.24 5.288-3.264 8.43-7.388 10.613-3.301 1.957-7.013 2.95-11.4 2.813-11.408-.358-16.105-4.341-18.563-12-.408-1.275.114-1.056.675-.376 3.674 4.451 9.296 7.148 17.307 7.276 6.818.108 12.946-2.209 15.244-7.088 1.277-2.712.36-7.229-2.738-11.55m-39.59-6.676c3.979-2.143 8.876-3.003 13.275-2.579 5.521.533 10.53 2.258 14.325 6.704 1.613 1.89 2.452 4.191 2.475 6.9.038 4.488-2.43 6.88-5.16 9.41-.755.699-.876.375-.465-.41 1.177-2.249 1.33-5.483.675-8.1-.67-2.676-3.93-6.603-8.4-8.475-2.968-1.244-6.122-1.681-9.525-1.575-5.61.175-9.944 2.39-13.126 8.1-.245.44-.588.455-.525-.188.44-4.509 2.19-7.493 6.451-9.787M260.571 565.34c-.576-.47-1.263-.706-.038-.75 10.453-.214 17.367 3.685 17.25 12.15-.067 4.864-3.222 7.842-7.2 9.9-5.223 2.704-11.702 2.153-18.507-.224-.26-.09-2.037-.771.038-.826 6.142-.16 11.642-.53 16.173-3.29 2.428-1.48 4.367-3.983 4.35-6.867-.036-6.012-5.274-8.293-12.066-10.093m-41.115-285.97 6.76-19.67 3.191-.241 10.893 17.816-5.561.536-1.689-3.079-7.048.553-1.04 3.557zm20.268-37.072-31.433 4.03-.442-4.557 14.385-24.838-16.533 1.934-.96-8.3 31.022-3.614.528 4.57-14.215 24.729 16.827-2.17zm6.903-.52-2.443-35.582 9.912-.68 2.443 35.582zm-74.016 11.009-6.792-35.014 18.109-3.466c6.907-1.322 14.214 2.773 15.667 10.433.986 5.201.828 10.891-4.255 13.933l9.71 8.202-12.142 2.549-7.277-7.18c-1.605.312-2.947.606-4.551.918l1.498 7.723zm70.003 24.132-1.332-18.769 5.811-.354.929 14.32 9.043-.507.288 4.282zm-33.202 4.112-11.516-17.479 6.06-.883 5.738 9.57 2.232-10.64 6.068-.887-5.793 19.84zm-68.752-19.423-10.585 3.246 7.111-39.426 5.104-1.724 26.67 30.003-10.555 3.059-4.154-5.002-12.765 3.674zm127.393 14.11c-5.635.012-9.796-4.236-9.808-9.85-.011-4.948 4.413-9.74 9.883-9.75 3.38-.006 5.304 1.086 7.871 3.495l-3.886 3.55c-1.252-1.462-2.3-2.17-3.72-2.18-2.458-.016-4.505 2.15-4.5 4.818.005 2.684 1.81 5.148 4.548 5.193 1.59.027 2.902-1.02 3.828-2.568l4.235 3.124c-1.966 2.692-5.18 4.162-8.451 4.169m10.72-87.6V168.65h15.518v4.796h-10.044v5.059h8.49v4.543h-8.49v5.07z" style="fill:#aedef5;fill-rule:evenodd" transform="translate(-32.968 -127.32)"></path><path d="m142.487 246.963 6.51-1.947-5.155-6.31zM177.49 224.106l1.968 11.516 5.508-1.068c2.97-.576 4.773-3.102 4.26-6.531-.471-3.15-3.173-5.677-6.917-4.907zM228.602 267.038l-1.523 4.34 4.106-.39z" style="fill:#aedef5;fill-rule:evenodd" transform="translate(-32.968 -127.32)"></path><path d="M297.413 274.98v255.493c7.547-7.506 13.912-14.974 19.052-21.127 4.16-4.979 9.31-9.726 15-9.674 2.485.022 4.99 1.324 6.826 3 2.07 1.89 4.35 4.396 4.35 7.2-.001 6.767-8.147 11.906-14.4 16.124-6.59 4.446-14.11 7.647-21.226 10.875-1.843.837-4.615 2.726-4.2 4.388.818 3.28 4.96 3.712 8.85 4.95.63.2.482.347-.113.525a1146 1146 0 0 1-14.139 4.13v136.015c38.8-22.312 76.148-49.195 109.892-84.175 34.186-35.44 64.755-79.258 89.505-135.152 18.28-41.283 30.79-85.734 36.59-132.06 5.536-44.22 4.968-90.12-2.517-136.569-34.893-16.77-71.872-28.492-110.627-36.038-39.148-7.622-80.152-10.983-122.682-10.983h-.16v25.248c.812-5.136 5.108-8.58 9.78-8.512 3.518.052 5.693 1.158 7.893 3.792l-3.883 3.285c-.89-1.124-2.092-2.319-3.653-2.3-2.948.034-4.71 2.296-4.684 4.848.031 3.093 1.803 5.22 4.43 5.164 1.995-.042 3.019-.966 3.973-2.326l3.877 3.46c-2.546 3.062-4.767 3.645-7.766 3.644-4.617 0-9.135-3.307-9.968-7.861v41.006l.276-.005-.075 13.8-.2.164V256h.078v18.981zm34.203 37.045c16.309 7.893 28.846 20.712 28.846 48.478 0 .87.546.652.532-.442-.117-9.201.148-17.93.526-27.205.043-1.058.152-.602.375-.187 7.196 13.377 10.604 25.877 10.837 34.537.029 1.075.117.987.525 0 2.137-5.167 3.678-12.973 4.689-20.24.124-.896.777-1.148 1.012.067 2.28 11.822 3.588 27.762 1.612 34.5-.217.74.457.742.76.702 1.338-.174 4.031-3.177 5.728-5.203 1.496-1.785 2.585-3.554 4.51-5.025.576-.44.863-.313.798.2-1.754 13.907-4.94 22.962-10.594 29.538-.519.603-.18.867.45.464 6.04-3.875 11.687-7.787 16.819-12.426.56-.506.874-.062.637.488-3.698 8.59-9.815 16.998-12.937 20.794-.447.543-.096.72.15.9 1.296.948 3.046.91 4.612.9 2.521-.015 4.636-.916 7.327-.877.869.013.638.282.21.652-5.262 4.56-12.054 8.948-17.962 12.45-.588.348-.417.383-.074.862 2.284 3.197 8.627 5.006 11.213 6.357.867.453.636.681-.038.675-5.93-.05-10.437.261-13.257.994-1.832.476-4.04 1.651-4.8 2.372-.187.177-.234.521-.225.778.072 1.963.884 3.854 2.026 5.4 1.68 2.277 4.19 3.568 6.225 5.775.637.692.066.663-.15.638-4.763-.56-8.212-2.352-12.6-2.49-2.754-.085-3.806.515-4.782 1.411-.324.298-.507.799-.469 1.238.12 1.377.814 2.498 1.716 3.459 1.27 1.351 2.454 1.989 4.11 3.26.402.31.476.715-.932.799-4.176.25-7.082-.938-8.657-.947-2.18-.012-4.298.001-6.099 1.266-.334.234-.534.68-.563 1.087-.485 6.987 2.68 10.022 3.713 11.513.534.77-.022.808-.6.337-3.696-3.012-6.888-8.112-13.013-11.512-.653-.363-1.018.049-1.012.413.134 8.653 6.376 16.515 9.638 24 .463 1.064-.256.9-.75.375-4.625-4.914-8.425-10.29-12.263-15.525-1.618-2.206-4.22-4.797-5.706-5.702-.55-.335-.73.428-.655.601 5.432 12.555 10.775 22.427 18.638 35.85 1.013 1.73.116 1.702-.975.775-5.763-4.895-12.429-13.5-19.245-19.61-2.507-2.247-5.784-3.18-9.665-2.953-4.488.262-8.408 1.507-12.675 1.8-6.244.43-8.277-2.59-9-6.074-.873-4.2.321-10.27 1.949-15.526 3.204-10.346 8.154-19.889 12.56-29.787 9.07-20.378 18.754-40.688 26.588-61.564 3.166-8.436 5.309-17.426 5.362-27.6.054-10.17-3.841-15.505-15.483-25.398-.162-.137-.927-1.097.488-.412m-9.461-40.087-7.054-.487-1.55 3.366-5.524-.284 9.57-18.467 3.193.23 8.163 19.22-5.58-.285zM382 281.097c-5.517-1.301-8.568-5.762-7.246-11.366 1.319-5.594 6.75-8.55 12.242-7.254 5.516 1.3 8.66 6.417 7.339 12.022-1.319 5.593-6.843 7.893-12.335 6.598m-20.836-7.098-.498 4.319-5.186-.433 1.892-18.889 7.792.65c5.219.434 7.668 3.65 7.342 8.969-.286 4.669-4.685 5.926-8.57 5.61zm-23.844-5.212-.538 7.112-5.564-.311 1.143-18.686 3.211.137 6.436 9.85 8.04-8.793 2.732.149-1.613 18.701-5.214-.45.612-7.096-5.15 5.209-.108-.01zm-31.193-12.741-.32 18.978-5.287-.09.32-18.978zm36.775 264.816c.883-.712 1.5-.19 1.087.6-1.892 3.623-2.78 7.739-2.832 11.775-.067 5.212 2.454 8.618 6.75 8.25 4.774-.408 9.357-1.765 13.875-3.75 7.651-3.36 16.139-7.894 23.775-7.95 2.493-.018 5.251 1.098 6.835 2.906.642.733.072 1.124-.047 2.091-.469 3.808-1.519 8.667-3.787 11.578-6.436 8.26-12.498 12.57-23.4 18.675-3.906 2.188-7.59 4.23-10.93 7.388-1.066 1.007-2.195 2.686-2.176 3.825.038 2.297 3.073 3.085 5.588 3.08 4.758-.012 7.387-1.653 10.05-2.883 4.727-2.182 8.978-6.42 14.213-6.422 4.9-.002 9.342 1.487 11.972 7.308.323.714.138.864-.333.426-2.905-2.704-5.293-3.722-8.489-3.572-7 .33-13.006 3.16-20.344 5.307-2.835.83-5.828 1.354-8.813.937-1.945-.271-3.86-.794-5.587-1.875-.209-.13-.328-.43-.3-.675.474-4.09 3.455-8.48 7.181-11.606 3.73-3.129 7.87-5.074 12.169-7.97 4.855-3.267 8.585-7.566 12.881-11.896 1.946-1.962 4.087-4.803 4.013-7.566-.051-1.874-1.82-3.733-4.369-3.788-3.953-.085-7.672 1.714-11.325 3.526-5.9 2.925-11.807 5.98-18.15 7.8-3.964 1.137-7.298 1.764-12.263 1.574-5.098-.194-10.364-3.615-12.562-8.624-.814-1.855-.575-4.125.009-5.982.797-2.536 3.552-3.773 5.802-5.306 3.394-2.312 6.053-4.397 9.507-7.18m51.56-272.301-10.39-1.867 6.072-35.248 5.035.876 15.08 20.983 3.015-17.88 10.233 1.78-6.056 35.118-5.245-.776-14.844-20.834zm47.234 10.975c-10.357-2.478-16.876-11.831-14.358-22.354 2.512-10.503 12.734-16.024 23.046-13.556 10.358 2.478 16.553 11.953 14.036 22.476-2.513 10.503-12.412 15.901-22.724 13.434m-74.089-21.24-13.22-1.288-3.042 5.432-11.036-.882 21.136-34.033 5.38.278 13.74 37.718-10.94-1.045zm-53.37-15.786-.475 18.076-10.547-.453 1.28-35.745 5.107.191 17.763 18.766.585-18.122 10.379.387-1.28 35.614-5.302-.064z" style="fill:#fde314;fill-rule:evenodd" transform="translate(-32.968 -127.32)"></path><path d="m358.439 229.498 6.77.589-2.469-7.765zM437.443 239.729c-1.242 5.104 1.571 10.054 6.366 11.074 4.36.928 9.357-2.09 10.555-6.955 1.258-5.11-1.734-9.983-6.397-11.124-4.99-1.22-9.543 2.971-10.524 7.005M389.302 273.154c.642-2.726-.624-5.49-3.422-6.15-2.825-.667-5.23 1.238-5.874 3.965-.641 2.722 1.046 5.198 3.21 5.709 2.841.67 5.438-.774 6.086-3.524M363.86 270.386c1.603.172 3.185-.869 3.406-2.9.2-1.823-1.345-3.586-2.875-3.713l-2.327-.194-.553 6.554zM320.859 267.961l-1.977-4.286-2.142 4.068zM53 196.015c.172-1.025.463-2.104 1.034-3.203l-.017-.009c.782-1.503 1.96-2.774 3.759-3.597l-.005-.008c36.757-16.722 75.11-28.886 115.1-36.867 39.89-7.96 81.39-11.758 124.542-11.768V127.32c-42.624.005-85.689 2.542-127.938 10.852-40.674 8-88.246 22.35-126.21 39.003-3.907 1.713-4.096 2.232-4.764 7.188-9.02 66.962-5.176 123.099-1.318 154.196 5.938 47.854 18.663 94.03 38.912 137.792 24.412 52.76 54.907 100.127 95.135 141.58 34.586 35.639 74.092 66.919 115.01 91.178 3.639 2.158 9.205 5.489 11.173 5.461V698.84c-1.085.095-2.48.102-4.268-.957-39.976-23.687-78.742-51.497-113.885-87.71-35.185-36.255-66.67-80.86-91.998-138.058a479.4 479.4 0 0 1-37.42-135.126c-5.652-45.552-4.893-92.9 3.159-140.973" style="fill:#fde314;fill-rule:evenodd" transform="translate(-32.968 -127.32)"></path><path d="M422.382 151.768c40.014 7.79 78.214 19.945 114.28 37.383 1.021.493 2.016 1.138 2.882 2.022 1.135 1.158 1.955 2.592 2.252 4.4 7.909 48.115 8.573 95.608 2.854 141.293-5.939 47.438-18.751 92.964-37.476 135.248-25.324 57.19-56.654 102.078-91.72 138.43-35.066 36.351-73.79 64.1-113.943 87.044h-.022c-.418.239-.764.43-1.21.626-.907.398-1.756.608-2.734.613l-.132.012v15.73c2.083-.028 7.156-3.49 10.501-5.53 42.024-25.619 80.615-55.12 115.071-90.84 40.067-41.536 71.768-88.524 95.103-141.22 19.534-44.114 33.226-90.66 39.219-138.529 6.026-48.134 7.576-103.986-.824-153.045-.42-6.364-1.935-6.664-8.343-9.762-37.283-18.026-82.11-30.077-123.085-37.492-42.083-7.616-84.544-10.681-127.642-10.831v13.243h.161c43.164 0 84.87 3.43 124.808 11.205" style="fill:#aedef5;fill-rule:evenodd" transform="translate(-32.968 -127.32)" data-source="https://football-logos.cc"></path><!-- source: https://football-logos.cc --></svg>