<svg xmlns="http://www.w3.org/2000/svg" xml:space="preserve" viewBox="0.37 0.38 719.25 719.25"><!-- Source: https://football-logos.cc --><path d="M270.5 538.375c-148.259 0-268.875-120.618-268.875-268.876S122.241.625 270.499.625s268.876 120.616 268.876 268.874-120.618 268.876-268.876 268.876z" style="fill:#fff;fill-opacity:1;fill-rule:nonzero;stroke:#2a7fff;stroke-width:2.25;stroke-miterlimit:4;stroke-dasharray:none;stroke-opacity:1" transform="matrix(1.33333 0 0 -1.33333 -.667 719.333)" data-source="https://football-logos.cc"></path><path d="M270.499 502C142.299 502 38 397.7 38 269.498 38 141.298 142.298 37 270.499 37 398.699 37 503 141.298 503 269.498 503 397.7 398.698 502 270.499 502" style="fill:#2a7fff;fill-opacity:1;fill-rule:nonzero;stroke:none;stroke-width:14.99999809;stroke-miterlimit:4;stroke-dasharray:none;stroke-opacity:1" transform="matrix(1.33333 0 0 -1.33333 -.667 719.333)"></path><path d="M270.499 487C150.569 487 53 389.429 53 269.498 53 149.57 150.57 52 270.499 52 390.427 52 488 149.57 488 269.498 488 389.428 390.427 487 270.499 487" style="fill:#fff;fill-opacity:1;fill-rule:nonzero;stroke:none;stroke-width:15;stroke-miterlimit:4;stroke-dasharray:none;stroke-opacity:1" transform="matrix(1.33333 0 0 -1.33333 -.667 719.333)" data-source="https://football-logos.cc"></path><path d="M143 112v315h68.661l58.839-90.262 58.84-90.262V427H398V112h-68.661L270.5 203.237l-58.84 91.236V112z" style="fill:#2a7fff;fill-opacity:1;stroke-width:.99999988" transform="matrix(1.33333 0 0 -1.33333 -.667 719.333)" data-source="https://football-logos.cc"></path><!-- source: https://football-logos.cc --></svg>