<svg xmlns="http://www.w3.org/2000/svg" xml:space="preserve" viewBox="0.39 0.38 699.23 798.84"><!-- Source: https://football-logos.cc --><path d="M13.964 574.52C9.897 524.783-5.75 428.138 5.819 356.659c4.895-80.94 42.054-148.015 91.558-205.783S208.73 44.646 263 .935c67.798 52.685 126.845 102.834 171.566 159.203s75.117 118.957 85.615 196.52c11.569 71.48-4.078 168.124-8.145 217.863 0 0-111.652 23.777-145.998 23.788l-206.076.066c-34.346.011-145.998-23.854-145.998-23.854z" style="fill:#fff;fill-opacity:1;stroke:#2a7fff;stroke-width:2.25000072;stroke-miterlimit:4;stroke-dasharray:none;stroke-opacity:1" transform="matrix(1.33333 0 0 -1.33333 -.667 799.333)" data-source="https://football-logos.cc"></path><path d="M131.75 187v322.499h70.68L263 417.09l60.57-92.412V509.5h70.68V187h-70.68L263 280.409l-60.57 93.409V187z" style="fill:#2a7fff;fill-opacity:1;stroke-width:.99999988" transform="matrix(1.33333 0 0 -1.33333 -.667 799.333)" data-source="https://football-logos.cc"></path><!-- source: https://football-logos.cc --></svg>