<svg xmlns="http://www.w3.org/2000/svg" id="uuid-87d6d768-b118-4181-a066-29e4fdaf77ce" viewBox="540.67 0 253.38 321.64"><!-- Source: https://football-logos.cc --><defs data-source="https://football-logos.cc"><clipPath id="uuid-3b4b2594-55e1-43c7-a8a9-eb0ab4c299de"><path d="M623.089 49.033c-27.228 13.582-62.314 23.962-62.314 23.962-10.574 48.437-.898 84.918 38.85 140.997h158.73c27.586-57.096 26.098-90.29 22.604-140.597 0 0-29.606-7.585-56.819-21.167-39.145-19.545-53.823-36.598-53.823-36.598-.004 0-8.098 13.859-47.228 33.403" style="fill:none;stroke-width:0"></path></clipPath><style>.uuid-094b6ee6-db60-42bd-912f-874fa5cbb482,.uuid-28eb5c93-24cc-4569-bd57-bee6a739d22f,.uuid-413c1110-ff40-4b60-a939-4e0f2db86b9b,.uuid-7b8af33d-8a45-4c60-a072-c446039bae0e,.uuid-c30bfc58-a65e-4e8e-af26-700aa4659768,.uuid-e01ea7e7-42d8-4272-8949-aecdd7a29716{stroke-width:0}.uuid-c30bfc58-a65e-4e8e-af26-700aa4659768{fill:#1d1d1b}.uuid-7b8af33d-8a45-4c60-a072-c446039bae0e{fill:#2c2353}.uuid-e01ea7e7-42d8-4272-8949-aecdd7a29716{fill:#ffec00}.uuid-094b6ee6-db60-42bd-912f-874fa5cbb482{fill:#e20613}.uuid-413c1110-ff40-4b60-a939-4e0f2db86b9b{fill:#c6c6c5}.uuid-28eb5c93-24cc-4569-bd57-bee6a739d22f{fill:#fff}</style></defs><path d="m789.639 68.351-.865-4.59-4.585-.969c-.307-.082-30.598-6.4-57.545-21.474-38.43-21.512-51.37-35.071-51.496-35.199l-5.125-5.6-5.132 5.56c-.13.126-13.11 13.768-51.466 35.24-26.966 15.032-57.264 21.391-57.6 21.474l-4.58.968-.856 4.59c-5.349 28.758-5.428 57.683-.206 86.104l2.316 11.326.65 2.608c7.332 29.812 20.274 57.683 38.55 82.823 19.777 27.239 44.925 50.1 74.733 67.913l3.576 2.103 3.584-2.103c29.804-17.812 54.945-40.674 74.777-67.913 18.22-25.14 31.155-52.97 38.524-82.823l2.959-13.934c5.21-28.42 5.124-57.347-.22-86.104z" class="uuid-28eb5c93-24cc-4569-bd57-bee6a739d22f"></path><path d="m670.008 321.636-3.754-2.208c-29.843-17.833-55.022-40.714-74.838-68.01-18.259-25.116-31.249-53.024-38.608-82.945l-.65-2.607-2.32-11.34c-5.22-28.424-5.152-57.437.205-86.24l.9-4.82 4.92-1.042c5.226-1.147 32.554-7.567 57.39-21.412 36.51-20.438 49.952-33.71 51.365-35.157L670.024 0l5.383 5.882c1.4 1.436 14.673 14.565 51.408 35.13 24.597 13.758 52.027 20.239 57.276 21.4q.17.035.19.041l4.795 1.013.986 5.236h-.008c5.278 28.673 5.327 57.544.143 85.816l-2.96 13.944c-7.383 29.91-20.363 57.816-38.583 82.956-19.891 27.32-45.085 50.201-74.882 68.009zm-118.46-257.58-.814 4.359c-5.34 28.718-5.41 57.645-.205 85.977l2.315 11.319.646 2.593c7.338 29.834 20.29 57.659 38.494 82.7 19.761 27.219 44.87 50.036 74.63 67.82l3.394 1.995 3.406-1.998c29.712-17.756 54.836-40.574 74.67-67.816 18.167-25.065 31.11-52.89 38.468-82.7l2.956-13.923c5.191-28.315 5.117-57.242-.223-85.967l-.077-.416h.007l-.743-3.941-4.533-.96c-5.265-1.163-32.785-7.665-57.467-21.473C689.65 21.013 676.31 7.816 674.91 6.38l-4.888-5.34-4.872 5.276c-1.449 1.484-14.957 14.824-51.554 35.309-24.923 13.895-52.34 20.336-57.583 21.486z" class="uuid-7b8af33d-8a45-4c60-a072-c446039bae0e"></path><path d="m785.45 71.123-.83-4.425-4.425-.935c-.295-.079-29.505-6.172-55.491-20.708-37.058-20.745-49.536-33.818-49.66-33.942l-4.94-5.401-4.95 5.36c-.123.124-12.643 13.28-49.63 33.983-26.004 14.498-55.217 20.63-55.543 20.708l-4.417.935-.827 4.425c-5.158 27.732-5.233 55.626-.198 83.03l2.233 10.921.624 2.518c7.074 28.746 19.556 55.626 37.178 79.864 19.07 26.27 43.323 48.317 72.066 65.494l3.448 2.027 3.457-2.027c28.742-17.177 52.985-39.224 72.106-65.493 17.573-24.24 30.048-51.078 37.152-79.865l2.854-13.44c5.023-27.403 4.94-55.296-.214-83.029z" class="uuid-7b8af33d-8a45-4c60-a072-c446039bae0e"></path><path d="M780.958 73.395s-29.603-7.586-56.82-21.168c-39.144-19.544-53.822-36.597-53.822-36.597-.004 0-8.098 13.859-47.232 33.4-27.22 13.585-62.31 23.965-62.31 23.965-10.574 48.436-.898 84.918 38.85 140.996h158.734c27.582-57.096 26.094-90.29 22.6-140.596" class="uuid-e01ea7e7-42d8-4272-8949-aecdd7a29716"></path><g style="clip-path:url(#uuid-3b4b2594-55e1-43c7-a8a9-eb0ab4c299de)"><path d="M789.407.521v210.694c-.082.48-.183.95-.24 1.433-.119.931-.149 1.885-.329 2.805-2.296 11.824-8.191 21.456-17.782 28.743-8.166 6.202-17.435 9.325-27.703 9.347-12.28.023-24.56.004-36.84.004-.49 0-.988-.011-1.478.03-4.814.36-9.441 1.552-13.948 3.24-4.92 1.836-9.471 4.316-13.384 7.873-1.896 1.728-3.535 3.666-4.773 5.918-.797 1.447-1.388 2.973-1.317 4.68h-.246a12.26 12.26 0 0 0-2.065-5.728c-2.207-3.273-4.897-6.108-8.222-8.21-8.233-5.203-17.266-7.893-27-7.968-11.457-.097-22.91-.052-34.364-.003-3.55.011-7.02-.43-10.466-1.242-18.628-4.395-32.872-20.326-35.236-39.403-.063-.516-.292-1.014-.441-1.519V.521z" class="uuid-7b8af33d-8a45-4c60-a072-c446039bae0e"></path><path d="M647.88 58.173a3252 3252 0 0 0-3.89 3.778c-1.167-.91-2.29-1.785-3.483-2.712.887-1.616 1.766-3.22 2.697-4.938-1.694-.98-3.273-1.893-4.979-2.876a371 371 0 0 1-1.414 2.371c-.456.778-.92 1.552-1.428 2.405l-4.093-1.71c.434-1.832.853-3.609 1.295-5.471-1.874-.502-3.602-.962-5.417-1.452-.849 1.72-.998 3.595-1.664 5.364-1.41-.172-2.817-.344-4.362-.531-.164-1.784.019-3.621-.1-5.491h-5.563v5.461c-1.586.217-3.067.419-4.672.64-.516-1.785-1.028-3.573-1.578-5.465-1.852.486-3.576.942-5.44 1.429.132 1.948.944 3.718 1.269 5.625-1.343.573-2.656 1.126-4.062 1.725l-2.936-4.908c-1.68.961-3.236 1.855-4.93 2.824.744 1.814 1.862 3.378 2.745 5.155-1.11.897-2.222 1.784-3.415 2.745-1.373-1.35-2.738-2.693-3.999-3.931-1.339 1.35-2.596 2.618-3.968 4.006 1.178 1.216 2.532 2.618 3.942 4.074l-2.596 3.527c-1.743-.954-3.46-1.89-5.296-2.884-.965 1.676-1.882 3.258-2.884 4.986 1.784 1.051 3.5 2.057 5.296 3.105-.49 1.279-.969 2.525-1.481 3.867-.31-.026-.629-.015-.924-.086-1.354-.321-2.7-.677-4.051-1.002-.344-.079-.7-.101-1.141-.16-.486 1.832-.946 3.556-1.444 5.43 2.061.576 4.018 1.119 6.086 1.699-.135 1.365-.27 2.696-.415 4.155-2.132.146-4.25-.018-6.34.09-.262.928-.307 4.358-.057 5.787h6.498c.22 1.47.419 2.79.62 4.144-2.203.625-4.312 1.22-6.49 1.833.285 1.2.536 2.26.812 3.412h-33.956c-.251-.846 27.003-89.157 27.265-91.764h100.8V104.2h-7.25l.839-3.318c-1.975-.845-4.021-1.092-6.011-1.836.198-1.336.392-2.664.613-4.141 2.039-.169 4.122.048 6.243-.131v-5.738h-6.074c-.18-1.493-.34-2.858-.517-4.343 1.882-.527 3.745-1.047 5.765-1.616-.487-1.84-.936-3.565-1.418-5.397-1.983.097-3.76.886-5.742 1.208-.512-1.298-1.032-2.615-1.586-4.01 1.627-.965 3.228-1.923 4.982-2.966-.965-1.68-1.87-3.255-2.85-4.957-1.713.924-3.321 1.8-5.012 2.716-.872-1.156-1.758-2.323-2.697-3.569a2831 2831 0 0 1 3.826-3.938c-1.339-1.347-2.6-2.619-3.968-3.992" class="uuid-e01ea7e7-42d8-4272-8949-aecdd7a29716"></path><path d="M603.046 91.263c-2.596 4.208-5.143 8.326-7.676 12.452-.24.393-.527.561-.995.557-2.297-.018-4.597-.007-6.875-.007-4.71-9.344-4.447-25.488 6.946-36.934 11.525-11.581 29.61-13.294 43.058-3.928 13.765 9.583 17.801 26.906 11.805 40.79-.28.023-.598.068-.92.068-1.93.007-3.86 0-5.787.004-.456 0-.86.007-1.16-.475-2.57-4.156-5.165-8.293-7.746-12.438-.019-.026-.004-.074-.004-.232 3.483-3.691 7.021-7.443 10.593-11.232-1.002-.307-48.384-.434-51.743-.173-.018.038-.045.072-.052.113-.011.033-.019.093 0 .112 3.497 3.752 6.991 7.496 10.556 11.323" class="uuid-e01ea7e7-42d8-4272-8949-aecdd7a29716"></path><path d="M751.27 238.266c3.778-1.055 7.294-2.664 10.567-5.031 10.522-6.576 13.343-22.65 13.343-22.65.074-1.731.187-3.119.187-4.51.018-7.803-.064-71.19-.064-89.052h-1.534c-14.573 0-91.123-.004-98.552.004-.355 0-.71.048-1.156.078v29.674c0 3.696.041 38.02.041 38.02v64.655c.42-.24.696-.39.965-.554 10.71-6.426 22.275-9.808 34.803-9.774 4.967.011 9.934-.026 14.902.022 0 0 14.147.4 26.498-.882" class="uuid-094b6ee6-db60-42bd-912f-874fa5cbb482"></path><path d="M602.61 104.212c.48-.811.782-1.429 1.182-1.978 2.443-3.356 5.765-5.432 9.737-6.438 6.763-1.713 12.916-.471 18.243 4.133 1.002.868 1.747 2.046 2.57 3.112.235.304.325.715.523 1.171zM786.75 109.343l-112.651-.078V12.32H775.43z" class="uuid-e01ea7e7-42d8-4272-8949-aecdd7a29716"></path><path d="M729.695 109.1V98.946h-10.23l.003 10.347c-3.744.018-6.138-.027-9.348.018 1.452-3.905 3.079-7.638 4.497-11.36-2.926-1.2-5.79-2.375-8.806-3.61-1.496 3.704-3.04 7.53-4.63 11.454 2.637 1.4 5.674 2.413 8.408 3.498l-27.25-.02c-.01-.021-.1.027-.172-.179-.007-.037-.022-.086-.007-.116.07-.093.142-.198.232-.284q9.001-9.033 17.995-18.067c.027-.022.015-.075-.015.127-1.814-1.791-3.53-3.486-5.337-5.274-6.786 6.786-13.758 13.765-20.903 20.906V87.595c5.81-2.47 11.675-4.96 17.454-7.422-1.235-2.94-2.417-5.76-3.655-8.715-4.507 1.908-9.086 3.841-13.787 5.831V66.375h12.74V56.195h-12.763V46.078c2.413.76 4.654 1.818 6.954 2.723 2.278.898 4.548 1.822 6.733 2.701 1.204-2.97 2.371-5.843 3.58-8.817-5.682-2.304-11.48-4.649-17.29-7.002V16.45c.072-.033.106-.063.143-.067s.082.007.105.03c.157.13.314.262.46.404 6.778 6.759 13.544 13.522 20.322 20.281.023.022.071.03-.033-.011 1.72-1.766 3.4-3.486 5.203-5.334-6.24-6.243-12.7-12.7-19.137-19.14.041-.098.049-.143.071-.173.023-.03.056-.067.086-.067 8.704-.011 17.412-.026 26.117-.034 3.935-.007 7.87 0 11.94 0v11.237h10.26V12.417h9.217c-1.628 4.05-3.244 8.064-4.837 12.037 2.918 1.156 5.802 2.304 8.854 3.516 1.601-3.95 3.254-8.035 4.945-12.21-2.618-1.398-5.349-2.315-8.046-3.37h28.017c.011.02.037.053.048.09.012.034.023.083.004.105-.063.101-.134.21-.22.292-6.33 6.333-12.662 12.662-19.085 19.08.913.865 1.814 1.669 2.667 2.53.864.867 1.687 1.787 2.607 2.771 7.122-7.126 14.226-14.225 21.359-21.362.27 1.002.367 15.654.138 18.478-5.996 2.551-12.044 5.12-18.007 7.657 1.268 2.947 2.477 5.76 3.733 8.685 4.665-1.975 9.4-3.98 14.256-6.033v11.472h-13.103v10.156l19.177 1.092.06 11.622c-4.735-1.825-15.49-6.265-20.135-8.12-1.19 2.954-2.342 5.827-3.554 8.842 5.787 2.342 21.407 8.727 27.321 11.124l1.5 18.673c-.07.03-2.66-.306-2.697-.303s-5.468.124-5.49.101c-7.03-7.08-17.338-17.004-24.195-23.92-1.859 1.866-3.58 3.587-5.382 5.39 5.91 5.913 13.013 12.35 19.189 18.53-2.795 0-36.587.011-38.292-.048m29.247-48.018c.105-19.062-15.65-34.335-34.2-34.443-18.362-.108-34.413 14.723-34.619 34.047-.21 19.611 15.875 34.776 34.342 34.813 18.733.034 34.574-15.329 34.477-34.417m-44.823-36.564c-1.71-4.032-3.43-8.09-5.192-12.235a45 45 0 0 0-8.79 3.527c1.803 4.257 3.553 8.383 5.27 12.426zm34.27 80.871c-1.641-3.871-3.25-7.66-4.84-11.412-2.94 1.241-5.79 2.442-8.73 3.68 1.552 3.655 3.127 7.373 4.736 11.158a48.6 48.6 0 0 0 8.835-3.426" style="stroke-width:0;fill:#1d70b7"></path><path d="M758.933 61.275c.09 19.085-15.744 34.443-34.476 34.406-18.471-.034-34.556-15.194-34.346-34.802.21-19.32 16.26-34.144 34.619-34.04 18.553.11 34.308 15.378 34.203 34.436M714.109 24.722l-8.712 3.714c-1.717-4.04-3.468-8.165-5.274-12.418a45 45 0 0 1 8.794-3.528c1.762 4.145 3.482 8.2 5.192 12.232M748.378 105.571a48.3 48.3 0 0 1-8.835 3.423c-1.608-3.782-3.183-7.496-4.735-11.154 2.94-1.235 5.79-2.435 8.73-3.674 1.59 3.745 3.198 7.542 4.84 11.406" class="uuid-e01ea7e7-42d8-4272-8949-aecdd7a29716"></path><path d="m685.134 120.794-6.007 5.95c-1.593-1.593-3.142-3.119-4.664-4.675-.206-.21-.374-.554-.386-.842-.037-1.342-.015-2.693-.015-4.118.445-.034.8-.082 1.152-.082 7.433-.004 14.865.003 22.298-.019.714 0 1.223.21 1.72.722 4.257 4.335 8.536 8.648 12.812 12.965.426.43.886.827 1.425 1.324 2.132-2.11 4.197-4.144 6.359-6.28 6.65 6.721 13.226 13.368 19.847 20.057l-6.138 6.194c6.67 6.662 13.249 13.238 19.915 19.9l6.086-6.03c.796.748 1.526 1.403 2.218 2.095 4.275 4.264 8.532 8.543 12.819 12.792.557.558.826 1.107.823 1.92-.03 7.802-.012 15.605-.03 23.408 0 1.391-.113 2.779-.187 4.51-3.651-3.515-6.932-6.968-10.466-10.357-2.189 1.971-4.111 4.092-6.023 5.903-6.703-6.531-13.365-13.032-20.087-19.586l5.982-6.033-19.908-19.904c-1.859 1.837-3.864 3.816-5.947 5.877-6.546-6.603-13.043-13.152-19.623-19.788 2.024-2.046 4.032-4.073 5.944-6.003-6.659-6.651-13.234-13.223-19.919-19.9M727.005 198.104c2.046-2.031 4.107-4.085 6.112-6.078 6.632 6.632 13.215 13.204 19.847 19.832-2.009 2.028-4.051 4.081-6.206 6.254 2.555 2.634 5.065 5.095 7.549 7.59 2.491 2.495 4.986 4.99 7.53 7.53-3.273 2.371-6.786 3.98-10.567 5.034-.472.128-.767-.052-1.078-.366-.916-.943-1.855-1.863-2.787-2.794-2.465-2.465-4.94-4.927-7.395-7.407-.374-.381-.643-.86-1.024-1.376-2.465 2.023-4.298 4.234-6.539 6.246-6.624-6.616-13.25-13.204-19.847-20.011 2.008-2.028 4.006-4.051 5.917-5.982-6.643-6.65-13.196-13.215-19.836-19.866-2.065 1.706-3.879 3.88-6.03 5.832-.25-.202-.508-.382-.725-.602q-8.64-8.698-17.263-17.402c-.91-.92-.875-2.794.06-3.729 1.126-1.137 2.263-2.263 3.389-3.4.314-.314.602-.655.972-1.066-.905-.928-1.762-1.796-2.618-2.667-.774-.793-1.863-1.455-2.248-2.402-.404-.995-.154-2.259-.154-3.407-.007-3.696-.003-7.391-.003-11.087v-1.534c4.544 4.452 8.782 8.806 13.249 13.174 2.132-2.102 4.189-4.133 6.153-6.078 6.602 6.602 13.125 13.13 19.709 19.709-1.975 1.99-4.021 4.055-6.049 6.1.561 1.026 18.662 19.182 19.881 19.953M674.104 249.455v-64.659c4.444 4.507 8.72 8.835 13.07 13.245-2.076 2.099-4.141 4.186-6.187 6.25.58.985 18.403 18.902 19.85 19.957l6.233-6.161c6.688 6.636 13.323 13.22 19.94 19.78-.508.991-1.211 1.294-2.236 1.283-4.968-.052-9.935-.011-14.906-.026-12.527-.03-24.09 3.355-34.799 9.778-.269.16-.55.314-.965.553M776.8 170.71c-3.513-3.565-8.342-6.946-11.727-10.384 2.023-2.046 4.01-4.05 5.88-5.936-6.651-6.647-13.227-13.227-19.904-19.903-1.863 1.836-3.867 3.819-5.944 5.868-6.605-6.658-13.163-13.26-19.817-19.963 1.044-1.043 2.069-2.083 3.116-3.097.157-.15.426-.225.655-.255.321-.044.654-.015.983-.015h63.234z" class="uuid-413c1110-ff40-4b60-a939-4e0f2db86b9b"></path></g><path d="M668.92 116.055v97.939h-84.144c-17.978-35.21-26.2-56.382-27.471-103.603 60.986 0 111.614.124 111.614.124z" class="uuid-094b6ee6-db60-42bd-912f-874fa5cbb482" data-source="https://football-logos.cc"></path><path d="m634.949 196.196-1.571.015c-16.212.142-32.423.273-48.639.449-.954.007-1.638-.266-2.289-.936-1.504-1.54-3.067-3.022-4.59-4.544-.793-.793-.811-.992-.052-1.78 1.646-1.722 3.33-3.408 4.997-5.107.333-.34.715-.535 1.212-.478.262.022.528 0 .797 0l48.519-.427 1.503-.011c-.007-1.081-.022-2.087-.026-3.094-.003-1.253.176-1.436 1.444-1.455a608 608 0 0 1 5.21-.045c1.269-.003 1.463.18 1.482 1.418.015.976.019 1.956.026 3.052.468.015.864.042 1.264.038 4.646-.038 9.3-.03 13.945-.146 1.68-.041 2.723.703 3.423 2.095.92 1.81 1.114 3.763.856 5.738a11 11 0 0 1-.867 3.022c-.603 1.34-1.658 2.024-3.236 2.016-4.724-.022-9.449.056-14.17.101-.332.004-.661.041-1.103.068.011 1.26.026 2.46.03 3.662.008 1.309-.172 1.492-1.507 1.507-1.743.022-3.479.041-5.218.049-1.156 0-1.384-.236-1.407-1.392-.018-1.234-.022-2.469-.033-3.815" class="uuid-c30bfc58-a65e-4e8e-af26-700aa4659768"></path><path d="M579.268 190.26c1.492-1.503 2.895-2.932 4.324-4.327.22-.213.572-.307.883-.397.21-.063.449-.018.677-.018 16.129-.143 32.258-.281 48.388-.423l1.114-.011c.247.83.37 7.694.172 9.347-.348.026-.714.064-1.077.068-16.242.145-32.483.284-48.728.44-.696.008-1.205-.164-1.695-.672-1.283-1.332-2.63-2.6-4.058-4.007M636.524 180.574l4.594-.041c.246.871.43 17.865.21 19.054l-4.64.041zM654.506 184.955l2.199-.019c.804 3.064 1.612 6.127 2.442 9.284l-2.218.019c-.8-3.06-1.593-6.1-2.424-9.284M647.59 185.013l1.735-.015c.8 3.053 1.597 6.094 2.42 9.247l-1.746.015c-.793-3.045-1.586-6.09-2.41-9.247M648.242 194.327l-1.743.015c-.793-3.042-1.59-6.094-2.416-9.247l1.735-.015c.79 3.003 1.586 6.052 2.424 9.246M655.16 194.258l-1.628.015-2.424-9.262 1.627-.015c.793 3.026 1.586 6.067 2.424 9.262M660.391 192.176c-.654-2.49-1.264-4.81-1.881-7.144.53-.266.883-.064 1.137.284.243.333.464.7.613 1.078.64 1.66.726 3.374.404 5.113-.03.172-.13.333-.273.67M643.215 188.59c.49 1.89.988 3.778 1.5 5.753l-1.586.015-.052-5.738q.069-.017.138-.03" class="uuid-28eb5c93-24cc-4569-bd57-bee6a739d22f"></path><path d="m634.949 163.001-1.571.015c-16.212.142-32.423.273-48.639.45-.954.007-1.638-.267-2.289-.936-1.504-1.541-3.067-3.022-4.59-4.545-.793-.793-.811-.991-.052-1.78 1.646-1.721 3.33-3.408 4.997-5.106.333-.34.715-.535 1.212-.479.262.023.528 0 .797 0l48.519-.426 1.503-.011c-.007-1.081-.022-2.088-.026-3.094-.003-1.253.176-1.436 1.444-1.455a608 608 0 0 1 5.21-.045c1.269-.004 1.463.18 1.482 1.418.015.976.019 1.956.026 3.052.468.015.864.041 1.264.037 4.646-.037 9.3-.03 13.945-.146 1.68-.04 2.723.704 3.423 2.095.92 1.81 1.114 3.763.856 5.738a11 11 0 0 1-.867 3.023c-.603 1.339-1.658 2.023-3.236 2.016-4.724-.023-9.449.056-14.17.1-.332.004-.661.042-1.103.068.011 1.26.026 2.461.03 3.662.008 1.31-.172 1.493-1.507 1.507-1.743.023-3.479.042-5.218.05-1.156 0-1.384-.237-1.407-1.392-.018-1.235-.022-2.47-.033-3.816" class="uuid-c30bfc58-a65e-4e8e-af26-700aa4659768"></path><path d="M579.268 157.066c1.492-1.504 2.895-2.932 4.324-4.328.22-.213.572-.306.883-.396.21-.064.449-.019.677-.019 16.129-.142 32.258-.28 48.388-.423l1.114-.01c.247.83.37 7.694.172 9.347-.348.026-.714.063-1.077.067-16.242.146-32.483.284-48.728.442-.696.007-1.205-.165-1.695-.674-1.283-1.331-2.63-2.6-4.058-4.006M636.524 147.38l4.594-.042c.246.872.43 17.865.21 19.055l-4.64.04zM654.506 151.76l2.199-.018c.804 3.063 1.612 6.127 2.442 9.284l-2.218.019c-.8-3.06-1.593-6.101-2.424-9.284M647.59 151.819l1.735-.015c.8 3.052 1.597 6.093 2.42 9.247l-1.746.015c-.793-3.045-1.586-6.09-2.41-9.247M648.242 161.132l-1.743.015c-.793-3.041-1.59-6.093-2.416-9.247l1.735-.015c.79 3.004 1.586 6.053 2.424 9.247M655.16 161.063l-1.628.015-2.424-9.261 1.627-.015c.793 3.026 1.586 6.067 2.424 9.261M660.391 158.982c-.654-2.491-1.264-4.81-1.881-7.144.53-.266.883-.064 1.137.284.243.333.464.7.613 1.077.64 1.66.726 3.374.404 5.113-.03.173-.13.333-.273.67M643.215 155.396c.49 1.889.988 3.782 1.5 5.753l-1.586.015-.052-5.738q.069-.017.138-.03" class="uuid-28eb5c93-24cc-4569-bd57-bee6a739d22f"></path><path d="m634.949 129.807-1.571.015c-16.212.142-32.423.273-48.639.449-.954.007-1.638-.266-2.289-.935-1.504-1.542-3.067-3.023-4.59-4.545-.793-.793-.811-.991-.052-1.78 1.646-1.721 3.33-3.408 4.997-5.106.333-.34.715-.535 1.212-.48.262.027.528 0 .797 0q24.26-.212 48.519-.426l1.503-.01c-.007-1.082-.022-2.088-.026-3.094-.003-1.253.176-1.437 1.444-1.455a608 608 0 0 1 5.21-.045c1.269-.004 1.463.18 1.482 1.417.015.977.019 1.957.026 3.053.468.015.864.04 1.264.037 4.646-.037 9.3-.03 13.945-.146 1.68-.041 2.723.703 3.423 2.095.92 1.81 1.114 3.763.856 5.738a11 11 0 0 1-.867 3.022c-.603 1.34-1.658 2.024-3.236 2.016-4.724-.022-9.449.057-14.17.101-.332.004-.661.042-1.103.068.011 1.26.026 2.461.03 3.662.008 1.309-.172 1.492-1.507 1.507-1.743.023-3.479.041-5.218.049-1.156 0-1.384-.236-1.407-1.392-.018-1.234-.022-2.469-.033-3.815" class="uuid-c30bfc58-a65e-4e8e-af26-700aa4659768"></path><path d="M579.268 123.872c1.492-1.504 2.895-2.933 4.324-4.328.22-.213.572-.307.883-.397.21-.063.449-.018.677-.018 16.129-.142 32.258-.28 48.388-.423l1.114-.011c.247.83.37 7.694.172 9.347-.348.027-.714.064-1.077.068-16.242.146-32.483.284-48.728.441-.696.008-1.205-.165-1.695-.673-1.283-1.332-2.63-2.6-4.058-4.006M636.524 114.185l4.594-.041c.246.871.43 17.865.21 19.054l-4.64.042zM654.506 118.566l2.199-.019c.804 3.064 1.612 6.127 2.442 9.285l-2.218.018c-.8-3.06-1.593-6.1-2.424-9.284M647.59 118.624l1.735-.015c.8 3.052 1.597 6.093 2.42 9.247l-1.746.015c-.793-3.045-1.586-6.09-2.41-9.247M648.242 127.938l-1.743.015c-.793-3.041-1.59-6.094-2.416-9.247l1.735-.015c.79 3.004 1.586 6.052 2.424 9.247M655.16 127.869l-1.628.015-2.424-9.262 1.627-.015c.793 3.026 1.586 6.067 2.424 9.262M660.391 125.788c-.654-2.492-1.264-4.81-1.881-7.145.53-.265.883-.063 1.137.284.243.333.464.7.613 1.078.64 1.66.726 3.374.404 5.113-.03.172-.13.333-.273.67M643.215 122.201c.49 1.89.988 3.778 1.5 5.753l-1.586.015-.052-5.738q.069-.017.138-.03M603.717 226.878v2.562h-5.895v3.647h4.907v2.566h-4.907v5.588h-3.352v-14.363zM603.105 239.693q0-.355.135-.658a1.66 1.66 0 0 1 .909-.894c.213-.09.44-.135.692-.135q.365 0 .68.135t.55.359c.16.153.28.33.37.535q.135.304.135.658c0 .354-.045.46-.135.666a1.63 1.63 0 0 1-.92.89 1.8 1.8 0 0 1-.68.131q-.375-.001-.692-.13a1.6 1.6 0 0 1-.547-.353 1.7 1.7 0 0 1-.362-.538 1.7 1.7 0 0 1-.135-.666M617.528 237.524a.7.7 0 0 1 .236.045c.078.03.157.083.228.154l1.32 1.387c-.58.756-1.301 1.328-2.173 1.714s-1.9.576-3.09.576q-1.637 0-2.932-.558-1.296-.556-2.2-1.537c-.904-.981-1.062-1.43-1.384-2.327q-.487-1.347-.486-2.925.002-1.604.554-2.951a6.9 6.9 0 0 1 1.54-2.323 7 7 0 0 1 2.372-1.519q1.381-.54 3.049-.542.805 0 1.522.146.712.14 1.335.393.624.25 1.145.602.521.348.924.774l-1.122 1.507a1.3 1.3 0 0 1-.258.251q-.147.112-.412.112a.8.8 0 0 1-.336-.075 5 5 0 0 1-.333-.194l-.393-.247a3 3 0 0 0-.501-.247 4 4 0 0 0-.68-.19 4.7 4.7 0 0 0-.914-.08q-.904-.001-1.653.319c-.501.217-.928.52-1.287.92q-.54.595-.838 1.444-.303.846-.303 1.9 0 1.105.303 1.964c.199.572.472 1.05.816 1.444q.52.588 1.208.89.69.308 1.481.307.45 0 .827-.045a3.3 3.3 0 0 0 1.305-.434 4 4 0 0 0 .588-.427q.117-.1.258-.164a.7.7 0 0 1 .284-.064M620.239 239.693q0-.355.134-.658a1.66 1.66 0 0 1 .91-.894q.316-.135.691-.135.365 0 .68.135t.55.359c.162.153.281.33.371.535q.135.304.135.658c0 .354-.045.46-.135.666a1.63 1.63 0 0 1-.92.89 1.8 1.8 0 0 1-.68.131q-.375-.001-.693-.13a1.6 1.6 0 0 1-.546-.353 1.7 1.7 0 0 1-.363-.538 1.7 1.7 0 0 1-.134-.666M632.62 238.58h5.323v2.662h-8.655V226.88h3.333zM645.496 238.609q.668-.001 1.197-.221.527-.224.894-.636.363-.415.557-1.01c.127-.4.19-.849.19-1.358v-8.506h3.334v8.506q0 1.324-.43 2.428a5.4 5.4 0 0 1-1.228 1.9q-.796.801-1.94 1.242-1.144.445-2.574.445-1.443-.001-2.581-.445a5.5 5.5 0 0 1-1.945-1.242 5.4 5.4 0 0 1-1.224-1.9 6.8 6.8 0 0 1-.422-2.428v-8.506h3.333v8.499q0 .758.19 1.354c.131.396.315.737.558 1.014q.365.419.894.643.525.22 1.197.22M661.56 235.454q.184.405.351.83.165-.436.352-.845.19-.408.385-.793l3.688-7.257c.067-.123.131-.22.202-.288a.6.6 0 0 1 .232-.153 1 1 0 0 1 .292-.06q.163-.011.378-.011h2.543v14.363h-2.936v-8.259c0-.404.018-.834.06-1.301l-3.808 7.383a1.2 1.2 0 0 1-.479.52q-.297.18-.685.18h-.452q-.387 0-.685-.18a1.25 1.25 0 0 1-.478-.52l-3.827-7.395c.026.232.049.457.06.685q.022.342.022.628v8.26h-2.94v-14.364h2.544q.219 0 .381.01a1 1 0 0 1 .288.06.6.6 0 0 1 .232.154q.107.102.202.288l3.696 7.287q.202.374.381.778M681.596 226.878v2.562H675.7v3.351h4.514v2.465h-4.514v3.423h5.895v2.562h-9.247v-14.363zM693.998 226.878v1.204q0 .254-.083.501a2 2 0 0 1-.232.464l-6.744 9.632h6.842v2.562H682.7v-1.283q0-.225.079-.449c.052-.145.123-.284.217-.407l6.762-9.662h-6.508v-2.563zM706.024 226.878v1.204q.001.254-.082.501a2 2 0 0 1-.232.464l-6.744 9.632h6.841v2.562h-11.08v-1.283q0-.225.08-.449c.052-.145.123-.284.216-.407l6.763-9.662h-6.509v-2.563zM720.91 241.24h-2.58q-.438 0-.719-.201a1.06 1.06 0 0 1-.389-.516l-.845-2.506h-5.465l-.845 2.506a1.13 1.13 0 0 1-.386.497q-.284.22-.7.22h-2.603l5.563-14.363h3.407zm-9.227-5.49h3.923l-1.32-3.935a71 71 0 0 1-.3-.88q-.174-.51-.34-1.099-.162.599-.325 1.115-.167.51-.318.886zM724.193 226.897a1 1 0 0 1 .265.075.8.8 0 0 1 .228.153q.108.097.247.266l6.82 8.626a16 16 0 0 1-.057-.805 13 13 0 0 1-.022-.733v-7.6h2.94v14.363h-1.736q-.387 0-.65-.12c-.18-.078-.348-.224-.513-.434l-6.774-8.554q.031.373.052.733.018.359.019.677v7.698h-2.94v-14.364h1.754q.22-.002.367.02M746.227 226.878v2.562h-5.896v3.351h4.515v2.465h-4.515v3.423h5.895v2.562h-9.246v-14.363z" class="uuid-28eb5c93-24cc-4569-bd57-bee6a739d22f" data-source="https://football-logos.cc"></path><!-- source: https://football-logos.cc --></svg>