<svg xmlns="http://www.w3.org/2000/svg" id="Livello_1" style="max-height:500px" viewBox="-230.5 156.3 189.3 283"><!-- Source: https://football-logos.cc --><style data-source="https://football-logos.cc">.st0{fill:#245c9d}.st3{fill-rule:evenodd;clip-rule:evenodd;fill:#986632}</style><path d="M-211.3 164.8c2.3-.4 8.6-1.5 18.6-2.5 11.7-1.2 31-2.7 56.6-2.7s44.9 1.5 56.6 2.7c10 1 16.3 2.1 18.6 2.5l15.3 44.7c-16.4-2.4-30.7-4.4-43.8-5.5-26.5-2.2-45.5-1.7-46.6-1.7s-20.1-.5-46.6 1.7c-13.2 1.1-27.4 3.1-43.8 5.5z" class="st0"></path><path fill="#fff" d="m-43.8 212.1-44.8-6.5-47.3-1.6-46.8.7-45.2 7.9s-1.4 36.7 18 101 74 123.2 74 123.2 86.1-85.1 92.1-224.7"></path><path d="m-123.7 421.9-12.2 14-.2-14zm-12.3-21 .1-23.1 42.2 1.2-14.5 22.6zm52.9-42.1-52.8-1.2-.1-21.1 62 2.6zm16.7-38.9-69.6-3.3-.1-22.7 48.2 1.6 29 2.6zm12.5-38.6-37.5-4.1-44.4-1.3-.3-24.1 51.3 2.1 35.4 4.1zm7.1-38.7-48.2-5.5-40.8-.5-.3-18.9 49.2 2.2 41.9 4.9z" class="st0"></path><path fill="#245c9d" fill-rule="evenodd" d="M-153.1 335.1c-.9-4-2.6-7.2-5.3-9.3-.7-.5-1.4-1.3-2.3-1.6v-.1c2-1.1 4.3-3.7 5.1-5.9 1.4-3.5-.3-5.9-2.8-7-2-.8-5-.6-7.8-.6h-14.6v39.3c4.2 0 8.3-.1 12.5-.1h2.1c1.9 0 3.9.1 5.5-.3 2-.5 3.4-1.4 4.8-2.5 2.6-2.2 3.9-7.1 2.8-11.9m-19.1-19.5c.9-.3 2.3-.1 3.2-.5 2 0 4.2 0 5.1 1.1 1.5 1.9-.3 5.6-1.7 6.4-2.2-.8-4.4-1.7-6.6-2.5zm6.9 25.1c-1.9.8-5.6 1.2-6.7-.7-.4-.7-.2-3.2-.2-4.3V325c1 .1 1.8.6 2.6.9 3 1.3 5.5 3.6 6.6 6.8 1.2 3.4.3 6.9-2.3 8" clip-rule="evenodd"></path><path d="m-152.8 415.4 15.3 18.4.1-24s-.7-2-3-3.5l-.3 4.7-2.7-6.2s-.9-1.5-.9-9c0 0-5 2.4-5 11.8 0 0-.4-1.6-2-2.5 0-.2-1 1.4-1.5 10.3" class="st3" data-source="https://football-logos.cc"></path><path d="m-148.7 414.1.6 3.3v-.1c1.5-1.9 2-4.9 2.5-7.6.1-1 .1-1.9.2-2.9h.1c.3.5.7 1 1 1.6.8 1.7 1.4 4.4.9 6.9.3-.2 1.1-1 1.6-.6.4.2.5.7.6 1.3v-.1c.2-.4.5-2.9.3-3.5-.3-.6-.5-1.2-.8-1.8-.6-1.4-1.2-2.9-1.8-4.3-.5-1.1-1.1-2.2-1.4-3.5-.3-1.2-.1-2.7-.1-4.1 0-.4.2-1.3 0-1.6-.3.3-.6.5-.9.8-.5.7-1.1 1.4-1.5 2.2-1 2.3-1.2 4.8-1.6 7.8v2.5h-.3c-.4-1.5-.8-3.5-1.8-4.4-.2 1.2-.3 2.4-.5 3.6-.1 1.2-.2 2.5-.3 3.7-.1 1-.2 1.9-.2 2.9.5.6 1 1.3 1.5 1.9h.1c.4-1.4 1.3-2.6 1.8-4m9.6-5.7c-.3-.3-.6-.8-1-.9v5.8c.3 1.1.7 2.4.3 3.8h-1.2c.1 1.5.1 3 .2 4.5l.2-.2c.6-.5 1.2-1.1 1.8-1.6v4c.3.4.6.8.9 1.3-.1.1-.1.2-.2.2l-.1-.1c-.3-.4-.6-.9-.9-1.3v-3.2c-.7.6-1.3 1.2-2 1.8h-.1c.3-1.6 0-6.6-.7-7.3-.8.1-1.3.9-1.8 1.3.3-2.3.2-5-.4-6.9-.2-.5-.5-1-.7-1.5h-.1c.1 3.3-1.2 7.1-2.4 9.3l-1.8 2.7c.9 1.1 1.8 2.3 2.7 3.4 1.9 2.5 4.2 4.8 6.1 7.3 1 1.1 2 2.2 2.9 3.3v-18.7c-.1-3.8.2-5.1-1.7-7m3.2-204.4s-43.3-2.9-92 8.6c0 0-1.3 36 14.6 89.3 0 0 40.1 1.8 77.2.9z" style="fill-rule:evenodd;clip-rule:evenodd;fill:#e72325"></path><path fill="#986632" d="m-58.4 161.9-.9-.2c-.3-.1-6.9-1.4-19.7-2.7-11.8-1.2-31.3-2.7-57-2.7s-45.2 1.5-57 2.7c-12.8 1.3-19.5 2.7-19.7 2.7l-.9.2-16.9 49.4v.3c1.5 31.7 7.4 63.3 17.4 94.1 8 24.6 18.7 48.6 31.7 71.5 11.6 20.3 22.9 35.9 30.4 45.5 8.1 10.3 13.4 15.7 13.7 16 .2.2.7.6 1.4.6h.1c.5 0 1-.2 1.4-.6.2-.2 5.5-5.7 13.7-16 7.5-9.5 18.8-25.1 30.4-45.5 13-22.9 23.7-46.9 31.7-71.5 10-30.7 15.9-62.4 17.4-94.1v-.3zM-45 213c-.2 3.5-.4 7.1-.7 10.5-3.1-.4-13.9-1.9-28.4-3.4-15.7-1.6-38.9-3.5-60.8-3.5v-11c4.7-.1 22-.2 45 1.7 13.3 1.1 27.8 3.2 44.6 5.6zm-89.8 165.9c5.4 0 30.5.1 38.7 1-4.4 7.5-8.7 14.2-12.7 20.2l-26-.3zm0-41.2c6.2 0 44.4.3 59.1 2.5-2.7 6.2-5.5 12-8.2 17.5-12.1-1.1-44.6-1.2-50.9-1.2zm0-2.2v-17.6c23.5.1 58.4 2.4 67 3-2.3 6-4.6 11.7-7 17.2-14.6-2.3-53.6-2.6-60-2.6m0-19.8V295c23.6 0 43 1.2 55.2 2.2 9.5.8 16.2 1.6 19.2 1.9-2.1 6.8-4.3 13.3-6.6 19.6-7.4-.5-43.6-2.9-67.8-3m55.3-20.7c-12.2-1-31.7-2.2-55.4-2.2V277c3.2 0 14.3.1 28 .6 14.5.6 35 1.8 51.2 4.5-1.3 5.1-2.7 10-4.2 14.9-2.7-.4-9.6-1.2-19.6-2m-27.2-19.6c-13.8-.6-24.9-.6-28.1-.6V253c3.9.1 16.1.4 30.7 1.1 16 .8 38.2 2.3 53.7 4.9-1.4 7.2-2.9 14.3-4.6 21.1-16.4-2.8-37.1-4.1-51.7-4.7m2.7-23.6c-14.6-.7-26.9-1-30.8-1.1v-13.1c30.4 0 52.6 1.6 65.9 3 11.6 1.2 18.6 2.4 21 2.8-.6 4.5-1.4 8.9-2.1 13.2-15.7-2.5-37.9-4-54-4.8m35.3-13.3c-13.4-1.4-35.6-3-66.2-3v-16.7c21.8 0 45 1.9 60.6 3.5 14.6 1.5 25.5 3 28.4 3.4q-.75 7.95-1.8 15.6c-2.5-.4-9.5-1.6-21-2.8m-142.6-73.7c2.3-.4 8.6-1.5 18.6-2.5 11.7-1.2 31-2.7 56.6-2.7s44.9 1.5 56.6 2.7c10 1 16.3 2.1 18.6 2.5l15.3 44.7c-16.4-2.4-30.7-4.4-43.8-5.5-26.5-2.2-45.5-1.7-46.6-1.7s-20.1-.5-46.6 1.7c-13.2 1.1-27.4 3.1-43.8 5.5zm-16 48.2h.3c16.8-2.4 31.3-4.5 44.6-5.6 23-1.9 40.3-1.8 45-1.7v96.1c-7.1.1-59.9.5-73.9-1.1-8.2-25.9-14.3-55.4-16-87.7m78.7 207.5c-7.4-9.4-18.7-24.9-30.1-45.1-10.6-18.6-22.5-43.3-31.9-72.7 9.4 1 31.9 1.2 49.6 1.2 11.3 0 20.8-.1 23.6-.1v130.1c-2.4-2.6-6.3-7.1-11.2-13.4m13.8 13.4v-11.1h9.4c-4.1 5.1-7.4 8.8-9.4 11.1m11.2-13.4c-.1 0-.1.1 0 0h-11.2V402l24.5.3c-5.1 7.5-9.7 13.6-13.3 18.2m30.1-45.1c-.5.8-.9 1.6-1.4 2.5-7.3-1.1-34.2-1.2-39.9-1.2v-18.1c6.1 0 37.2 0 49.8 1.1-2.9 5.7-5.7 10.9-8.5 15.7"></path><path d="M-123.9 169.5c-.8-.5-1.8-.6-3.1-.5-1 .4-1.8.4-2.6.9-2.1 1.4-2.8 3.6-3.3 6.8-.2 1.1.2 2.2.2 3.1.4-.2 1.3-1.8 1.6-2.2l-.3-1.5v-2c.4-1.7 1.5-3 3.2-3.4-.2 2.3-.4 4.7-.5 7-.1 1.7-.2 3.3-.3 5q-.3 1.65-.9 3c-.3.2-.5 0-1 0-.4.4-1 1.4-1.2 2 1.3.1 2.6.3 3.8.4.4-.6.8-1.2 1.1-1.8-.6-.1-1.2-.2-1.7-.3h-.1c.3-.4.8-.8 1-1.3.4-.9.4-3.2.5-4.3 1.4-.9 3.1-1.1 4-2.5 1.4-2.1 2-6.9-.4-8.4m-1.3 9c-.5.4-1.3.4-2.1.3-.1-.6.1-1.7.2-2.4.1-2 .3-3.9.4-5.9 3.6.1 3.7 6.5 1.5 8m-29.3-8.9c-.4 0-.8.1-1.1.1-.7.1-1.4.4-2 .7-2.2 1.2-4.2 4.6-3.7 8.3.1.9 0 1.7.3 2.4v.1c.5-.8 1-1.6 1.4-2.4-.8-3.7-.6-5.6 2.5-7.1 0 1.9-.1 3.8-.1 5.6v3.5c0 1-.1 2.1-.1 3.1-.2 1.2-.4 2.2-.8 3.2-.3 0-.6-.1-.8-.1-.4.5-1 1.5-1.1 2.1h3.9c.3-.6.6-1.3 1-1.9h-1.7l-.1-.1c.4-.5.8-1 1-1.6.3-1.2.1-3 .3-4.1 1.3-.7 2.9-1.3 3.7-2.6 1.3-2 1.8-6.2 0-8.1-.6-.8-1.5-.8-2.6-1.1m1 9.5c-.5.4-1.2.5-2 .5 0-2.7.1-5.5.1-8.2v-.1c3.7-.1 3.9 6.3 1.9 7.8m56.5-6.7c.2-.4.4-1.4 0-1.7-.3.5-.7 1-1.1 1.3-.2.1-.4.3-.6.4-.3 1.1-.7 2.2-1 3.3 1.1-.6 2.3-2 2.7-3.3m-14.6 5.4c.8.1 1.6.1 2.4.2l1.2-1.8c-1.1-.1-2.2-.2-3.4-.3.1-1 .2-2.1.3-3.1-.2-.1-1.1.5-1.5.6-.1.8-.2 1.5-.3 2.3-.2.2-.5.1-.8 0-.4.6-.8 1.2-1.1 1.7.6.1 1.2.1 1.7.2-.3 2.5-.5 4.9-.8 7.4 0 1.1-.3 2.6.2 3.4 1 1.7 2.9-.8 3.2-1.8.2-.5-.1-1-.2-1.4-.5.7-.6 1.4-1.3 2h-.2c-.7-.4-.3-2-.2-2.8.3-2.2.6-4.4.8-6.6m-28.6-3.1c-2.8 1.4-3.4 4.6-4 8.1-.3 2 .2 5.1 1.5 5.4 1.2.3 1.9-.7 2.3-1.3 1-1.4 1.6-3.1 2.1-5.1.1-.9.2-1.7.3-2.6.2-1.5-.2-3.7-1-4.3-.4-.2-.8-.2-1.2-.2m-1 11.7c-1.4 0-1.2-1.7-1.4-3-.4-2.5.1-5.9 1.6-6.9 1.3.1 1.2 1.6 1.4 2.7.4 2.4-.1 6.5-1.6 7.2m-3.6-11.6c-1.4.7-2.6 2.7-2.8 4.4-.5-1.3.7-3.5-.6-4.2-1.5 0-2.8 3.2-2.2 4.5.1 0 .1.1.2.1.5-.8.5-1.8 1-2.5h.1c.3.9 0 2.2 0 3.2-.1 2.8-.2 5.5-.3 8.3.4-.3.9-.5 1.3-.8.5-.8.1-2.7.2-3.8.3-2.2.8-5.8 2.4-6.7.3.1.4.2.6.3.4-.8.8-1.6 1.3-2.4-.2-.2-.6-.4-1.2-.4m29.3 9.2c-.4.7-.7 1.6-.9 2.3-.2.1-.2.2-.4.3-.1-.8.1-2 .3-2.8.2-1.6.3-3.1.5-4.7.2-1.1.3-2.1.5-3.2-.6-.3-1.2-.5-2.1-.5-.4.1-.8.3-1.2.4-2.5 1.5-3.2 4.6-3.8 8-.2 1.3-.3 3.9.5 4.6.6.4 1.2-.1 1.6-.4 1-.8 2-2.4 2.4-3.8.2 1-1 3.9.2 4.4 1.1.5 2.7-2.8 2.9-3.7 0-.4-.3-.6-.5-.9.1.1.1 0 0 0m-5.1 2.1h-.1c-.5-.3-.4-2.2-.3-3 .2-2.4.6-5.3 2.4-6.2.7 0 1 .3 1.4.7-.5 2.6-1.4 7.9-3.4 8.5m19.2-9.1c-1.9-1.9-4 1.7-4.3 3.3-.4-1.2.9-3.1-.3-4.3h-.5c-1.2.8-2.8 2.5-2 4.3.1 0 1-2 1.2-2.3h.2c.2 3.8-1.2 7.5-1.2 11.3.5-.2 1-.4 1.4-.6.4-.9.2-2.1.4-3.1.4-2.3 1.1-5.9 2.9-6.8.5 0 .6.2.8.4.5-.7.9-1.4 1.4-2.2m2.7 8.7c-.3.9-.6 2-1.3 2.5-.1-1.1.2-2.2.4-3.2.2-1.6.5-3.2.7-4.8.2-.8.5-2.6 0-3.2q-.15-.3-.6-.3c-1.2.7-3 2.4-2.3 4.3l.1.1c.3-.9.7-1.6 1.2-2.3h.2c0 1.4-.3 2.6-.5 3.8-.2 1.5-.4 3-.7 4.5-.2 1-.4 2.7.4 3.1 1.4 0 3.2-3.1 2.6-4.3zm-67.6-.4c-.1.4-.2.9-.3 1.3-.1.5-.4 1-.6 1.4h-.2c-.2-1.7-.1-3.9 0-5.7.1-1.7 0-3.5.2-5.1-.4-.2-.8-.3-1.5-.3-.5.2-1 .2-1.3.4-2.5 1.5-2.9 4.7-3.5 8.1-.3 1.8.2 4.8 1.2 5.4 1.5 0 3.2-3.5 3.3-4.9.1.2.1.6.1.9 0 1.3-.2 3 .6 3.4 1.2 0 2.7-3.3 2.4-4.6-.1 0-.3-.1-.4-.3m-2.5-3.5c-.3 2-.9 5.9-2.4 6.6h-.3c-1-1.7-.4-7.2.4-8.6.3-.5.5-.7 1-1 .6 0 .8.2 1.2.3.3.6.2 2 .1 2.7m-5.9-4.2c-1.3.8-2.4 2.8-2.5 4.7-.5-1.4.5-3.4-.8-4.1-1 0-2.6 2.9-2.3 4.1.1.3.3.5.5.7.2-.8.2-2.4 1-2.6.4 2.3-.1 5.2.3 7.6 0 1.3.1 2.5.1 3.8h.1c.4-.3 1.1-.7 1.3-1.1 0-1.5-.1-3-.1-4.4.2-1.4.4-2.9.8-4.1.3-.8.5-1.8 1.3-2 .2-.1.4.1.6.3.4-.8.7-1.7 1.1-2.5-.4-.3-.8-.4-1.4-.4m84.4 1.2c-.5-.6-1.4-.8-2.5-.7-.4.2-.8.3-1.2.5-2.3 1.4-3.1 4.2-3.8 7.2-.4 1.6-.4 3.9.4 4.9 1.8.5 3.2-2.5 4-3.7v-.1c.3.9-1.1 3.8 0 4.3.5.4 1.2-.3 1.4-.5.8-.9 2-2.4 1.3-3.7-.3 0-.8 2.2-1.6 2.4 0-1.5.4-3 .7-4.3.7-2.2.9-4.3 1.3-6.3m-4.1 8.2c-.3.4-.9 1.7-1.6 1.5-.5-.4-.2-1.9-.2-2.5 0-2.4 1-5.4 2.5-6.4.9 0 1.1.4 1.6.8-.3 2.5-1.1 4.9-2.3 6.6m14.3 4.9c-.7-.1-1.3-.3-2-.4.6-3.2 1.1-6.5 1.7-9.7.1-.5.6-3.4.5-3.5-.7.9-2.8 2.5-4 2.8-.2.4-.3 1.3-.4 1.8l2.1-1.5.3-.3c-.6 3.4-1.1 6.7-1.7 10.1l-1.2-.3c-.4.4-.8.7-1.1 1.1v.1l4.8.9c.3-.3.6-.7 1-1.1m-122.7 2.7c-1.3-2.2-1.3-5.4-1.9-8.3-.2-1-.5-2.7-.5-3.8 0-1.2-.3-2.7.1-3.8l-.1-.1c-.6.4-1.7.3-2.5.5-1 .2-2 .6-2.8 1-2.4 1.2-4 4.5-3.2 8.2.2 1 .6 1.9.9 2.9h.1c.4-.9.7-1.9 1.1-2.8-.4-.7-.5-1.4-.8-2.4-.8-3.7 1.8-4.9 4.8-5.1-.2.4-.4.8-.6 1.1-.4.9-.6 2-.8 3.1-.7 3.8-.3 8.4-1.3 11.7-.3.1-.5.1-.8.2-.3.7-.6 1.5-.9 2.2 1.1-.3 2.2-.5 3.3-.8.4-.2.7-1.6.8-2.1-.5.1-.9.2-1.4.3.1-.9.6-1.9.8-3 .1-.5.1-1.1.2-1.6.6-.6 2.4-.1 2.7-1.1h.1c.3 1.4.7 2.9 1 4.3.2.7.5 1.5.7 2.2h.1c.6-.8 2.2-2 2.4-3 .1-.4-.1-.7-.2-1-.5.6-.5 1.1-1.3 1.2m-5.4-4.2c-.1-.1.1-1.9.1-2.3 0-1.6.1-3.2.5-4.5.2-.6.4-1.2.6-1.9.3.3.1 1.5.3 2.1.3 2 .7 4 .9 5.8-.8.3-1.6.6-2.4.8m25-11.4c-.5.3-1 .4-1.3.8-1.2 1.5-2.5 5.3-2.1 8.1.3 1.9.1 4.5 1.8 4.9 1.3.3 2.1-1.1 2.4-1.8 1.2-2.3 2-5.9 1.4-9.2-.2-1.3-.4-2.8-2.2-2.8m-.6 11.9c-1.7-1.5-2.2-8.5-.1-9.9 1.1 0 1.3 1.1 1.5 2 .4 1.9.8 7.9-1.4 7.9m-6.6-6.2c-.4-1.1.3-3.8-1-4-.8-.2-2.3 3-2.2 4 .1.4.3.5.5.8h.1c.1-.5.2-1 .3-1.6.1-.3.3-.6.4-1 .1 0 .1-.1.2-.1.5.6.1 1.9.3 2.8.1 1.4.1 2.9.2 4.3.2 1.3.3 3.2.3 4.3.4-.4.9-.8 1.3-1.2 0-1-.1-1.9-.1-2.9-.3-2.1.5-7 1.6-7.6.3-.2.6-.1.8.1.3-.3 1-2.1 1-2.6-.3-.2-.6-.3-1.2-.3-1.4 1.1-2.2 3-2.5 5m-3.1 5.4q-.15 0 0 0c-.4.7-.2 2.4-1 2.7-.5-2.8 0-5.8-.5-8.9-.1-.6.2-2.5 0-2.7-.5.4-1 .9-1.5 1.3.4 3 .1 6.3-.6 8.6-.3.9-.5 2.2-1.3 2.5-.1.1-.1.1-.2.1-.4-.7-.2-1.6-.4-2.6-.2-2-.3-3.9-.5-5.9-.1-1 0-2.1-.7-2.4-1.1-.5-2 2.3-2.2 3.1-.2.5-.2 1.4.2 1.6l.2.2c.3-.9.2-2.2.8-2.7h.1c.4 2.4.3 5.2.7 7.6.2 1.4-.1 2.9 1 3.5 1.9 0 2.3-3.8 3.1-5.2v-.1c.5 1.3-.3 3.4.8 4.3 1.6.4 3.1-4.5 2-5m119.7-8.7c-.4.2-.7.3-1.1.5-1.6 1.1-2.4 3.2-2.8 5.6-.4 2.2.5 5.1 2.8 4.5 1.4-.4 1.7-1.6 2.6-2.2-.9 2.7-1.2 5.4-3 7.2-1.2 1.2-3 .6-3.5-.8h-.1c-.4.6-.9 1.1-1.3 1.7l-.1.1c5 3.3 8.1-3.2 9.3-7.1.2-1 .4-2.1.5-3.1.5-2.9-.6-6.4-3.3-6.4m-1 8.9c-1.7-.4-1.7-4.4-1-6 .3-.8.8-1.2 1.5-1.6 3.3 0 2.4 8.3-.5 7.6m10.2 5.2c-.7-.2-1.3-.4-2-.5.9-4.4 1.8-8.7 2.7-13.1h-.1c-.7.9-2.9 2.3-4.2 2.6-.1.6-.2 1.2-.3 1.7.8-.5 1.7-1.1 2.5-1.6l-2.1 9.9v.1c-.4-.1-.9-.2-1.3-.3l-1.1 1.1c1.6.4 3.1.8 4.7 1.2.4-.3.8-.7 1.2-1.1 0 .1 0 0 0 0m6.4-10c-2.1 1.1-3.1 2.5-3.8 4.9-.6 2.3-.1 6.3 2.7 5.4 1.1-.3 1.8-1.2 2.4-2 .2.6-.5 1.8-.6 2.4-.6 1.8-1.3 3.8-2.7 4.8-1.3.9-2.8 0-3.3-1.2h-.1c-.4.5-.8 1-1.2 1.4-.7.6 1.4 1.4 2.1 1.5 1.2.2 2.3-.6 3-1.1 2.7-2.1 4-5.8 4.8-9.9.5-2.9-.4-6.3-3.3-6.2m-1 8.8c-1.7-.4-1.7-4.5-.9-6 .3-.7.8-1.1 1.4-1.6 3.5 0 2.4 8.3-.5 7.6m-89.1 59.3c-1.1-4.8-3.2-8.7-6.5-11.2-.8-.7-1.7-1.5-2.7-1.9v-.1c2.4-1.3 5.2-4.5 6.2-7.1 1.6-4.2-.3-7.2-3.4-8.5-2.4-1-6.1-.8-9.5-.8h-17.7v47.5c5-.1 10.1-.1 15.1-.2h2.6c2.2 0 4.8.1 6.6-.4 2.4-.6 4.2-1.7 5.8-3 3.3-2.6 4.8-8.4 3.5-14.3m-1.3 8.4c-.8 2.7-2.6 4.9-4.7 6.3-1.6 1-3.4 1.4-5.6 1.8-1.9 0-15.7.2-20.8.2v-45h17.8c1.9 0 4.1-.2 5.8.2 1.3.3 2.5.8 3.5 1.5 1.5 1.1 2 3.6 1.1 5.8-1.1 2.7-5 6.9-7.7 7.8.8.4 1.5.7 2.3 1.1 2 1.2 3.9 2.8 5.2 4.7 2.3 3.2 4.8 10 3.1 15.6m-12.5-22.8c1.9-1.5 4-6.4 1.8-9.1-1.3-1.6-4-1.9-6.9-1.8-.7.1-1.4.1-2.1.2l-3.3.6v7.4l9.3 3.6c.4-.1 1-.7 1.2-.9m-9.3-3.7V230c1.1-.4 2.8-.1 3.9-.5 2.5 0 5.1 0 6.2 1.3 1.8 2.3-.4 6.7-2.1 7.7-2.6-1-5.3-2-8-3m3.1 5.6c-1.2-.5-2.7-1.2-4.3-1.2v14.3c0 1.9-.3 4.8.4 6.1 1.1 1.8 3.8 2.7 6.7 2.1 1-.2 2-.4 2.9-.8 4-1.7 5.2-6.8 3.4-11.7-1.5-4.1-5.1-7.1-9.1-8.8m5.2 19.4c-2.3 1-6.8 1.4-8.1-.8-.5-.9-.2-3.9-.2-5.2v-13c1.2.1 2.2.7 3.1 1.1 3.6 1.6 6.7 4.4 8 8.2 1.4 4.1.4 8.3-2.8 9.7" class="st3"></path><path fill="#fff" fill-rule="evenodd" d="M-152.7 246.3c-1.3-1.9-3.2-3.5-5.2-4.7-.8-.4-1.5-.7-2.3-1.1 2.8-.9 6.7-5.1 7.7-7.8.9-2.2.3-4.7-1.1-5.8-.9-.7-2.1-1.2-3.5-1.5-1.7-.4-3.9-.2-5.8-.2h-17.8v45c5-.1 18.9-.2 20.8-.2 2.3-.4 4-.8 5.6-1.8 2.2-1.4 3.9-3.5 4.7-6.3 1.7-5.5-.8-12.3-3.1-15.6m-19.9-17.3 3.3-.6c.7-.1 1.4-.1 2.1-.2 2.9-.1 5.7.2 6.9 1.8 2.1 2.8.1 7.6-1.8 9.1-.2.2-.9.8-1.2.7l-9.3-3.6zm10 32.7c-.9.4-1.9.5-2.9.8-2.9.6-5.7-.3-6.7-2.1-.8-1.3-.4-4.1-.4-6.1V240c1.6 0 3.1.7 4.3 1.2 4.1 1.7 7.6 4.6 9.1 8.8 1.8 4.8.6 9.9-3.4 11.7" clip-rule="evenodd" data-source="https://football-logos.cc"></path><!-- source: https://football-logos.cc --></svg>