<svg xmlns="http://www.w3.org/2000/svg" viewBox="10.19 9.99 464.6 580"><!-- Source: https://football-logos.cc --><path fill="#46a4fe" d="M141.68 502.96C65.829 418.162 30.91 303.2 22.05 189.77a814 814 0 0 1-.868-114.48 270 270 0 0 0 57.707 6.584c36.846.209 73.943-7.322 106.93-23.732a211.2 211.2 0 0 0 56.679-41.208 211.2 211.2 0 0 0 56.679 41.208c32.99 16.41 70.087 23.94 106.93 23.732a270 270 0 0 0 57.707-6.584 814 814 0 0 1-.868 114.48c-8.863 113.43-43.779 228.39-119.63 313.19a387 387 0 0 1-100.82 80.405 387 387 0 0 1-100.82-80.405z" data-source="https://football-logos.cc"></path><path fill="#fff" d="M170.38 65.07c-28.914 11.615-60.296 16.987-91.496 16.81a270 270 0 0 1-45.169-4.072l290.68 444.85a385 385 0 0 0 18.922-19.696c22.959-25.667 42.168-54.097 58.039-84.41z" data-source="https://football-logos.cc"></path><path d="M231.78 14.416c-14.941 14.08-31.825 25.842-50.136 35.339-31.505 15.673-67.174 22.954-102.71 22.753-18.55-.105-32.73-1.906-46.141-4.45-11.249-2.134-20.88 4.944-21.429 16.38-2.241 46.742-.99 76.22 1.342 106.06 8.974 114.84 44.282 231.84 121.98 318.7 34.759 38.858 69.48 62.566 95.385 77.794 6.803 3.999 18.029 3.998 24.832 0 26.022-15.299 60.682-38.999 95.385-77.795 77.703-86.868 113.01-203.86 121.98-318.7 3.193-40.866 3.001-72.828 1.362-106.07-.564-11.435-10.169-18.353-21.44-16.356a292 292 0 0 1-46.15 4.429c-35.533.201-71.203-7.08-102.71-22.753-18.757-8.84-35.016-21.429-49.964-35.505-6.137-5.78-15.468-5.614-21.602.167zm10.716 15.349c15.643 14.683 33.293 27.202 52.507 36.76 34.473 17.149 73 24.93 111.16 24.714 16.364-.093 32.698-1.708 48.791-4.662 1.691 34.142 1.32 68.388-1.343 102.46-8.753 112.01-43.275 224.94-117.27 307.67-26.922 30.098-58.783 55.77-93.839 75.818-35.057-20.047-66.918-45.72-93.839-75.818-73.999-82.727-108.52-195.66-117.27-307.67-2.663-34.08-3.033-68.326-1.342-102.46 16.093 2.954 32.427 4.57 48.79 4.662 38.158.216 76.684-7.565 111.16-24.714 19.216-9.558 36.867-22.077 52.51-36.76z" data-source="https://football-logos.cc"></path><!-- source: https://football-logos.cc --></svg>