<svg xmlns="http://www.w3.org/2000/svg" xml:space="preserve" viewBox="0 0 700 700"><!-- Source: https://football-logos.cc --><path d="M700 350a350 350 0 0 1-350 350A350 350 0 0 1 0 350 350 350 0 0 1 350 0a350 350 0 0 1 350 350" style="fill:#d4c16b;fill-opacity:1;stroke:none;stroke-width:1.77305138;stroke-linecap:round;stroke-linejoin:round;stroke-miterlimit:10" data-source="https://football-logos.cc"></path><path d="M675 350a325 325 0 0 1-325 325A325 325 0 0 1 25 350 325 325 0 0 1 350 25a325 325 0 0 1 325 325" style="fill:#28a0ff;fill-opacity:1;stroke:none;stroke-width:1.70104229;stroke-linecap:round;stroke-linejoin:round;stroke-miterlimit:10" data-source="https://football-logos.cc"></path><g style="fill:#d4c16b;fill-opacity:1;stroke-width:.50606489" data-source="https://football-logos.cc"><path d="M139.421 62.43 243.4 244.416V98.196c0-33.09-24.575-31.7-24.575-31.7V62.43h61.214v4.066s-20.423-3.435-20.423 31.7V279.5H210.41L103.993 95.344v154.068c0 29.407 20.88 24.697 20.88 24.697v5.392H61.891v-5.392s23.191 6.855 23.191-24.697V98.146c0-29.393-23.191-30.655-23.191-30.655V62.43z" style="fill:#d4c16b;fill-opacity:1;stroke:none;stroke-width:.89727914;stroke-linecap:round;stroke-linejoin:round;stroke-miterlimit:10" transform="matrix(1.97115 0 0 1.98092 13.001 11.331)"></path></g><!-- source: https://football-logos.cc --></svg>