<svg xmlns="http://www.w3.org/2000/svg" viewBox="183.6 23 1235 1234.9"><!-- Source: https://football-logos.cc --><defs data-source="https://football-logos.cc"><style>.cls-2{fill:#fff}</style></defs><g id="Laag_1" data-source="https://football-logos.cc"><g id="Laag_1-2"><path d="M1418.5 640.4c0 341-276.5 617.5-617.5 617.5S183.6 981.5 183.6 640.4 460.1 23 801.1 23s617.5 276.5 617.5 617.5Z" class="cls-2"></path><path d="M783.3 1230.3c-317.8-9.4-572.4-269.9-572.4-589.9S447 79.5 748 52.6c0 0-25.8 36.4-25.8 65.9s13.9 53.3 23.8 49.3c9.9-3.9-3.9-45.3 9.9-55.2 13.8-9.8 47.3-33.5 73-15.7 25.7 17.7 47.3 53.3 7.9 88.8-39.6 35.5-65.2 49.3-61.3 55.2 4 5.9 86.9 4 106.6 5.9 19.8 2 37.5 0 45.3 15.8 7.9 15.7 19.7 41.4 9.8 55.2-9.8 13.9-31.6 57.3-33.5 65.2-2 7.9 0 41.4-13.9 47.4-13.8 5.9-102.5 25.7-126.3 25.7s-69-2-71-9.8c-2-7.9-2-31.6-5.9-39.5s-25.6-47.3-43.4-43.4c-17.8 4-35.5 37.5-33.5 49.3 2 11.9 23.7 41.5 35.5 53.2 11.9 11.9 21.7 23.7 15.9 25.7-6 2-37.6 3.9-43.4 15.8-5.9 11.9-21.7 98.6-3.9 173.7 17.7 74.9 35.5 118.4 35.5 136.1s-3.9 94.7 3.9 116.4c8 21.7 55.4 76.9 63.2 96.7 7.9 19.8 17.8 51.3 29.6 63.1 11.9 11.8 19.8 17.8 19.8 31.6s3.9 65.1 7.9 78.9 9.8 26.6 9.8 26.6" style="fill:#010101"></path><path d="M856.5 1228c300-27.9 534.7-280.5 534.7-587.6s-231.8-556.6-529-587.1c0 0 21.9 11.9 19.8 61.2-1.9 49.3-15.8 53.3-10 67.1 6.1 13.9 57.4 25.7 75 31.6 17.8 5.9 37.6 45.3 21.8 82.9-15.7 37.5-27.6 80.8-31.6 102.6-3.9 21.7-11.8 57.2-35.5 73-23.6 15.7-84.9 13.9-110.5 9.8-25.7-3.9-73-7.9-69.1 5.9 4.1 13.9 33.7 55.2 39.5 69.1 5.9 13.8 21.6 25.7 5.9 35.6-8.6 5.4-31.6-27.7-43.4-35.6s-49.3-7.9-69 11.8c-19.8 19.8-37.5 61.1-17.7 102.6 19.8 41.4 41.4 104.6 37.5 116.4-3.9 11.9-5.9 29.6 0 39.5 6 9.8 21.7 25.7 17.8 35.4-3.9 9.9-21.8 47.4-7.9 69.1 13.7 21.7 33.4 45.4 45.4 57.2 11.8 11.9 33.4 39.5 39.4 55.2 5.8 15.8 39.4 53.3 47.3 61.1 7.9 7.9 29.6 49.3 33.6 65.2 4 15.7 6.1 57.8 6.1 57.8" style="fill:#bc181b"></path><path d="M661.1 333.6c8.7-1.3 0-19.8-6-37.5-5.9-17.8-3.9-51.3 4-65.2 7.8-13.9 23.7-35.5 27.5-53.3 3.9-17.8 9.8-33.6-2-43.4-11.9-9.8-29.7-17.8-55.3-19.8s-59.2-7.9-65.1 3.9-29.6 41.4-29.6 88.8-4 120.3 9.8 128.3c13.9 7.9 33.6 23.7 47.4 21.7 13.9-2 21.7-19.8 17.8-43.4-4-23.7-8-31.6-13.9-31.6s-11.8 2-17.8-9.8-19.7-29.6-19.7-51.3 7.9-43.4 33.4-43.4 39.5-5.9 39.5 11.8-7.9 51.3-4 69.1c4 17.8 19.7 77 33.7 75M917.5 493.4c-9 4.5 11.9 104.5 19.8 126.2s13.9 92.7 2 106.6-25.7 41.5-45.4 43.4c-19.7 2-49.3-17.8-63-31.6-13.9-13.8-27.7-23.6-25.7-13.8s7.9 45.4 23.7 65.1c15.7 19.7 55.2 47.3 53.2 61.1-1.9 13.8-13.9 25.7-27.5 27.6-13.9 2-33.6 23.7-13.9 43.4 19.7 19.8 35.5 35.5 51.2 29.6 15.8-6 31.6-27.7 31.6-49.3s-29.6-45.4-21.6-57.3c7.9-11.9 13.8-11.9 27.6-21.7 13.7-9.8 27.6-37.5 33.5-98.6 5.8-61.1 1.9-132.2-5.9-153.9-7.9-21.7-31.6-81-39.5-76.9M957 986.1c-49.3 0-89.3 40-89.3 89.3s39.9 89.3 89.3 89.3 89.3-40 89.3-89.3-40-89.3-89.3-89.3" class="cls-2"></path></g></g><!-- source: https://football-logos.cc --></svg>