<svg xmlns="http://www.w3.org/2000/svg" viewBox="92.9 103.74 551.03 828.15"><!-- Source: https://football-logos.cc --><path d="M158.449 220.536C101.086 277.032 75.71 335.583 75.71 335.583v364.998s6.952 16.076 6.952 29.448c0 14.723-10.43 31.5-10.43 31.5h409.166s-10.429-16.777-10.429-31.5c0-13.372 6.952-29.448 6.952-29.448V335.583s-25.377-58.55-82.735-115.047c-54.234-53.414-118.37-76.012-118.37-76.012s-64.14 22.598-118.368 76.012" style="fill:#ee203d;fill-opacity:1;fill-rule:nonzero;stroke:none" transform="matrix(1.33333 0 0 -1.33333 -.667 1121.853)" data-source="https://football-logos.cc"></path><path d="M477.122 701.78s-7.19 19.003-6.164 30.302c1.027 11.3 10.44 29.447 10.44 29.447H72.233s9.932-17.12 10.444-28.42c.514-11.299-7.19-31.843-7.19-31.843z" style="fill:#fff;fill-opacity:1;fill-rule:nonzero;stroke:none" transform="matrix(1.33333 0 0 -1.33333 -.667 1121.853)"></path><path d="M276.818 144.492v556.71l201.104-.62.226-363.458s-26.193-58.55-72.417-104.774c-66.768-66.768-128.913-87.858-128.913-87.858" style="fill:#346abc;fill-opacity:1;fill-rule:nonzero;stroke:none" transform="matrix(1.33333 0 0 -1.33333 -.667 1121.853)"></path><path d="M72.232 763.583a2.06 2.06 0 0 1-2.055-2.055c0-.376.106-.752.31-1.083.102-.163 10.121-16.465 10.121-30.416 0-12.78-6.714-28.476-6.782-28.633a2 2 0 0 1-.17-.815V335.583c0-.281.057-.56.17-.816.254-.59 26.193-59.566 83.18-115.695 53.932-53.122 118.483-76.258 119.13-76.486a2.06 2.06 0 0 1 1.364 0c.646.228 65.193 23.364 119.129 76.486 56.983 56.13 82.922 115.105 83.18 115.695.11.256.167.535.167.816v364.998c0 .28-.058.558-.167.815-.07.157-6.784 15.854-6.784 28.633 0 13.951 10.017 30.253 10.12 30.416a2.054 2.054 0 0 1-1.746 3.138zm405.627-4.108c-3.059-5.65-8.943-17.994-8.943-29.446 0-12.901 6.043-27.707 6.952-29.858V336.022c-1.756-3.93-27.462-60.184-82.124-114.021-50.554-49.791-110.422-72.877-116.926-75.289-6.505 2.412-66.377 25.498-116.93 75.289-54.661 53.837-80.367 110.089-82.122 114.021v364.149c.906 2.152 6.951 16.957 6.951 29.858 0 11.452-5.884 23.797-8.944 29.446zM157.006 219.072" style="fill:#231f20;fill-opacity:1;fill-rule:nonzero;stroke:none" transform="matrix(1.33333 0 0 -1.33333 -.667 1121.853)"></path><path d="M76.514 703.064v-4.11h401.892v4.11zM121.618 709.84q-6.985 0-11.15 5.552-4.166 5.552-4.166 15.027t4.166 15.026q4.165 5.55 11.15 5.55 5.367 0 9.14-3.5 3.772-3.504 4.245-9.23h-4.491q-.271 3.772-2.708 5.999-2.436 2.226-6.14 2.226-5.01 0-7.929-4.167-2.919-4.168-2.919-11.904 0-7.711 2.897-11.89 2.897-4.182 7.861-4.181 3.862 0 6.242 2.28t2.696 6.515h4.49q-.47-6.353-4.132-9.827-3.66-3.475-9.252-3.475M147.127 710.57h-5.47v5.566h5.47zM187.59 745.63h-19.97v-12.325h17.306v-4.723h-17.305v-18.026h-4.875v39.798h24.844zM197.743 710.57h-5.47v5.566h5.47zM234.6 709.84q-7.048 0-11.25 5.552-4.203 5.552-4.203 15.027t4.203 15.026q4.202 5.55 11.25 5.55 5.416 0 9.22-3.5 3.807-3.504 4.284-9.23h-4.532q-.272 3.772-2.731 5.999t-6.196 2.226q-5.053 0-7.999-4.167-2.945-4.168-2.945-11.904 0-7.711 2.924-11.89 2.922-4.182 7.93-4.181 3.895 0 6.299 2.28 2.4 2.28 2.718 6.515h4.532q-.476-6.353-4.17-9.827-3.692-3.475-9.334-3.475M284.951 710.556h-4.724v18.731H261.77v-18.731h-4.7v39.798h4.7v-16.343h18.457v16.343h4.724zM302.634 710.556h-5.202v39.798h5.202zM346.274 710.556h-5.309l-20.487 31.41v-31.41h-4.91v39.798h5.283l20.487-31.41v31.41h4.936zM357.086 750.354h11.32q18.188 0 18.188-19.682 0-20.116-18.189-20.116h-11.32zm4.726-35.074h6.5q7.767 0 10.588 4.03 2.826 4.031 2.827 11.362 0 7.14-2.812 11.05-2.814 3.908-10.603 3.908h-6.5zM403.42 710.556h-5.202v39.798h5.202zM446.932 710.556h-5.843l-4.536 12.108h-16.379l-4.321-12.108h-5.47l15.02 39.798h5.575zm-11.9 16.289-6.881 18.46-6.563-18.46z" style="fill:#231f20;fill-opacity:1;fill-rule:nonzero;stroke:none" transform="matrix(1.33333 0 0 -1.33333 -.667 1121.853)"></path><path d="M377.52 355.1c0-33.185-44.79-60.092-100.042-60.092-55.25 0-100.042 26.907-100.042 60.092s44.792 60.09 100.042 60.09c55.252 0 100.042-26.905 100.042-60.09" style="fill:#ec9623;fill-opacity:1;fill-rule:nonzero;stroke:none" transform="matrix(1.33333 0 0 -1.33333 -.667 1121.853)"></path><path d="M176.409 355.1c0-33.701 45.34-61.119 101.069-61.119s101.068 27.418 101.068 61.12c0 33.7-45.339 61.118-101.068 61.118S176.408 388.8 176.408 355.1m2.055 0c0 32.568 44.417 59.064 99.015 59.064s99.014-26.496 99.014-59.064c0-32.569-44.417-59.064-99.014-59.064-54.598 0-99.015 26.495-99.015 59.064" style="fill:#231f20;fill-opacity:1;fill-rule:nonzero;stroke:none" transform="matrix(1.33333 0 0 -1.33333 -.667 1121.853)"></path><path d="M324.326 328.992v-25.937h2.054v25.937zM228.282 328.734v-25.68h2.054v25.68z" style="fill:#231f20;fill-opacity:1;fill-rule:nonzero;stroke:none" transform="matrix(1.33333 0 0 -1.33333 -.667 1121.853)"></path><path d="M164.493 328.778c-9.607 0-12.96 6.44-7.446 14.31L267.48 500.773c5.511 7.871 14.532 7.871 20.045 0l110.434-157.685c5.512-7.87 2.161-14.31-7.45-14.31z" style="fill:#ec9623;fill-opacity:1;fill-rule:nonzero;stroke:none" transform="matrix(1.33333 0 0 -1.33333 -.667 1121.853)"></path><path d="M266.64 501.362 156.204 343.678c-2.897-4.137-3.612-8.103-2.016-11.17 1.595-3.068 5.256-4.758 10.304-4.758H390.51c5.05 0 8.709 1.69 10.306 4.758s.88 7.034-2.016 11.17L288.366 501.362c-2.863 4.09-6.721 6.342-10.865 6.342-4.14 0-7.998-2.252-10.862-6.342M156.011 333.456c-1.225 2.354-.56 5.565 1.876 9.044l110.434 157.685c2.468 3.524 5.729 5.464 9.18 5.464 3.454 0 6.714-1.94 9.182-5.464L397.118 342.5c2.434-3.478 3.1-6.69 1.876-9.044s-4.24-3.651-8.484-3.651H164.493c-4.244 0-7.257 1.296-8.482 3.65" style="fill:#231f20;fill-opacity:1;fill-rule:nonzero;stroke:none" transform="matrix(1.33333 0 0 -1.33333 -.667 1121.853)"></path><path d="M376.97 595.208v-129.17H177.18v131.738l32.614 18.232h129.94z" style="fill:#ec9623;fill-opacity:1;fill-rule:nonzero;stroke:none" transform="matrix(1.33333 0 0 -1.33333 -.667 1121.853)"></path><path d="M209.794 617.036a1.03 1.03 0 0 1-.502-.13l-32.614-18.233a1.03 1.03 0 0 1-.526-.897V466.037c0-.568.46-1.027 1.027-1.027h199.79c.568 0 1.028.46 1.028 1.027v129.171c0 .372-.202.715-.527.896l-37.235 20.801c-.152.086-.325.131-.5.131zm129.672-2.055c.457-.253 35.46-19.808 36.476-20.377v-127.54H178.207v130.11c1.01.565 31.401 17.555 31.855 17.807z" style="fill:#231f20;fill-opacity:1;fill-rule:nonzero;stroke:none" transform="matrix(1.33333 0 0 -1.33333 -.667 1121.853)"></path><path d="M196.696 593.667v-2.055h158.959v2.055zM177.436 562.337v-2.054h199.02v2.054zM177.693 528.44v-2.055H376.97v2.055zM205.684 355.356V329.42h2.054v25.936zM346.667 354.586v-24.823h2.055v24.823z" style="fill:#231f20;fill-opacity:1;fill-rule:nonzero;stroke:none" transform="matrix(1.33333 0 0 -1.33333 -.667 1121.853)"></path><path d="M286.576 611.387v-18.491h2.054v18.49zM247.028 592.64v-31.33h2.056v31.33zM218.267 560.54v-32.87h2.055v32.87zM330.746 592.64v-31.073h2.054v31.073zM218.267 601.628v-8.475h2.055v8.475zM361.048 560.54v-32.87h2.054v32.87z" style="fill:#231f20;fill-opacity:1;fill-rule:nonzero;stroke:none" transform="matrix(1.33333 0 0 -1.33333 -.667 1121.853)"></path><path d="m327.958 633.542 2.367 10.526c.232 1.026 2.509 2.91 5.053 4.799 3.054 2.27 6.439 4.49 6.439 4.49l3.634 16.166s-8.29 7.892-16.11 9.628l-.208.046c-7.821 1.736-18.704-1.9-18.704-1.9l-3.635-16.166s2.112-3.44 3.903-6.786c1.491-2.786 2.747-5.453 2.516-6.48l-2.366-10.525" style="fill:#ec9623;fill-opacity:1;fill-rule:nonzero;stroke:none" transform="matrix(1.33333 0 0 -1.33333 -.667 1121.853)"></path><path d="M310.103 678.27a1.02 1.02 0 0 1-.675-.748l-3.636-16.165c-.056-.252 0-.541.126-.763l3.873-6.734c2.4-4.48 2.458-5.55 2.419-5.771l-2.365-10.524a1.028 1.028 0 0 0 2.004-.45l2.366 10.525c.035.154.055.322.055.515 0 1.037-.584 2.782-2.667 6.675l-3.72 6.466c.162.715 3.181 14.144 3.418 15.195 2.194.667 11.087 3.15 17.61 1.703 6.664-1.48 13.655-7.455 15.408-9.027l-3.417-15.195-6.137-4.28c-4.211-3.127-5.221-4.42-5.442-5.398l-2.367-10.526a1.027 1.027 0 0 0 2.004-.452l2.368 10.526c.059.215.57 1.162 4.662 4.2l6.39 4.457a1.1 1.1 0 0 1 .44.633l3.634 16.165c.079.354-.032.718-.295.97-.346.33-8.589 8.109-16.595 9.887-8.217 1.823-19.01-1.727-19.46-1.884" style="fill:#231f20;fill-opacity:1;fill-rule:nonzero;stroke:none" transform="matrix(1.33333 0 0 -1.33333 -.667 1121.853)"></path><path d="m366.274 616.718 5.137 9.502c.5.926 3.206 2.13 6.168 3.267 3.557 1.367 7.42 2.6 7.42 2.6l7.89 14.592s-5.843 9.82-12.9 13.587l-.189.102c-7.06 3.766-18.526 3.18-18.526 3.18l-7.89-14.592s1.1-3.88 1.916-7.581c.682-3.08 1.166-5.986.664-6.912l-5.135-9.503" style="fill:#ec9623;fill-opacity:1;fill-rule:nonzero;stroke:none" transform="matrix(1.33333 0 0 -1.33333 -.667 1121.853)"></path><path d="M361.221 664.574a1.03 1.03 0 0 1-.851-.538l-7.89-14.591a1.1 1.1 0 0 1-.084-.769l1.9-7.523c1.098-4.953.863-6 .764-6.203l-5.136-9.5a1.027 1.027 0 0 0 1.808-.978l5.136 9.503c.202.373.334.88.334 1.728 0 1.156-.246 2.947-.899 5.893l-1.825 7.223c.348.646 6.907 12.776 7.418 13.72 2.316.054 11.548.056 17.421-3.078 6.013-3.21 11.123-10.834 12.384-12.82-.515-.95-7.07-13.077-7.418-13.717l-7.073-2.478c-4.905-1.885-6.227-2.857-6.703-3.737l-5.136-9.502a1.028 1.028 0 0 0 1.807-.978l5.137 9.502c.114.191.863.963 5.631 2.797l7.365 2.58c.241.085.47.266.591.49l7.89 14.592c.171.319.164.704-.022 1.014-.244.411-6.07 10.11-13.298 13.968-7.416 3.957-18.771 3.426-19.25 3.402" style="fill:#231f20;fill-opacity:1;fill-rule:nonzero;stroke:none" transform="matrix(1.33333 0 0 -1.33333 -.667 1121.853)"></path><path d="m401.767 591.262 7.138 8.127c.696.792 3.604 1.367 6.745 1.821 3.775.545 7.816.892 7.816.892l10.963 12.48s-3.493 10.867-9.53 16.102l-.162.14c-6.039 5.234-17.349 7.2-17.349 7.2l-10.96-12.481s.2-4.026.169-7.816c-.028-3.154-.207-6.092-.903-6.885l-7.138-8.127" style="fill:#ec9623;fill-opacity:1;fill-rule:nonzero;stroke:none" transform="matrix(1.33333 0 0 -1.33333 -.667 1121.853)"></path><path d="m406.617 638.701-10.96-12.48a1.1 1.1 0 0 1-.255-.729l.167-7.756c-.045-5.079-.508-6.044-.649-6.218l-7.136-8.124a1.027 1.027 0 0 0 1.543-1.357l7.138 8.126c.662.754 1.113 2.327 1.159 7.555l-.16 7.447c.483.55 9.6 10.934 10.307 11.737 2.302-.467 11.284-2.512 16.292-6.855 5.143-4.46 8.415-13.021 9.2-15.235l-10.307-11.736-7.453-.848c-5.203-.753-6.709-1.409-7.37-2.161l-7.138-8.126a1.026 1.026 0 0 0 1.45.093c.426-.374.469-1.023.093-1.45l7.138 8.127c.155.162 1.057.75 6.121 1.483l7.756.884c.255.028.517.154.684.345l10.963 12.481c.239.272.317.65.207.992-.147.455-3.653 11.202-9.835 16.564-6.345 5.5-17.535 7.493-18.009 7.575a1.03 1.03 0 0 1-.946-.334z" style="fill:#231f20;fill-opacity:1;fill-rule:nonzero;stroke:none" transform="matrix(1.33333 0 0 -1.33333 -.667 1121.853)" data-source="https://football-logos.cc"></path><path d="m225.998 633.542-2.367 10.526c-.232 1.026-2.508 2.91-5.053 4.799-3.053 2.27-6.438 4.49-6.438 4.49l-3.635 16.166s8.29 7.892 16.11 9.628l.209.046c7.821 1.736 18.703-1.9 18.703-1.9l3.635-16.166s-2.112-3.44-3.903-6.786c-1.491-2.786-2.746-5.453-2.516-6.48l2.366-10.525" style="fill:#ec9623;fill-opacity:1;fill-rule:nonzero;stroke:none" transform="matrix(1.33333 0 0 -1.33333 -.667 1121.853)"></path><path d="M224.601 680.2c-8.216-1.824-16.457-9.602-16.805-9.932a1.03 1.03 0 0 1-.294-.97l3.636-16.166c.056-.25.228-.486.439-.633l6.388-4.457c4.093-3.038 4.604-3.985 4.664-4.203l2.368-10.523a1.027 1.027 0 1 0 2.003.452l-2.367 10.526c-.22.978-1.231 2.27-5.443 5.397l-6.135 4.28-3.418 15.196c1.75 1.572 8.718 7.542 15.2 8.981 6.705 1.488 15.623-.992 17.818-1.657l3.417-15.195-3.718-6.466c-2.084-3.893-2.668-5.638-2.668-6.675 0-.193.022-.361.055-.515l2.366-10.526a1.028 1.028 0 0 0 2.005.451l-2.366 10.527c-.04.217.02 1.287 2.42 5.768l3.872 6.734c.129.223.182.511.126.763l-3.635 16.165c-.079.35-.335.635-.676.748-.456.153-11.245 3.707-19.252 1.93" style="fill:#231f20;fill-opacity:1;fill-rule:nonzero;stroke:none" transform="matrix(1.33333 0 0 -1.33333 -.667 1121.853)"></path><path d="m187.682 616.718-5.137 9.502c-.5.926-3.206 2.13-6.167 3.267-3.559 1.367-7.421 2.6-7.421 2.6l-7.89 14.592s5.842 9.82 12.9 13.587l.19.102c7.059 3.766 18.526 3.18 18.526 3.18l7.889-14.592s-1.1-3.88-1.916-7.581c-.682-3.08-1.166-5.986-.664-6.912l5.136-9.503" style="fill:#ec9623;fill-opacity:1;fill-rule:nonzero;stroke:none" transform="matrix(1.33333 0 0 -1.33333 -.667 1121.853)"></path><path d="M173.672 661.274c-7.415-3.96-13.242-13.659-13.487-14.07a1.03 1.03 0 0 1-.02-1.014l7.889-14.592c.121-.224.35-.405.592-.49l7.363-2.58c4.77-1.834 5.517-2.606 5.633-2.798l5.136-9.501a1.029 1.029 0 0 0 1.808.978l-5.137 9.502c-.476.88-1.798 1.852-6.703 3.737l-7.074 2.478-7.417 13.72c1.26 1.983 6.348 9.595 12.196 12.716 6.042 3.224 15.298 3.23 17.61 3.178l7.418-13.72c-.19-.745-1.826-7.222-1.826-7.222-.652-2.946-.9-4.736-.9-5.892 0-.849.134-1.356.336-1.73l5.135-9.502a1.028 1.028 0 0 0 1.808.978l-5.136 9.502c-.099.201-.333 1.248.763 6.2l1.902 7.524c.063.25.036.543-.085.769l-7.89 14.59c-.17.316-.494.52-.852.539-.48.024-11.833.557-19.062-3.3" style="fill:#231f20;fill-opacity:1;fill-rule:nonzero;stroke:none" transform="matrix(1.33333 0 0 -1.33333 -.667 1121.853)"></path><path d="m152.19 591.262-7.14 8.127c-.695.792-3.602 1.367-6.744 1.821-3.775.545-7.816.892-7.816.892l-10.962 12.48s3.493 10.867 9.53 16.102l.162.14c6.037 5.234 17.348 7.2 17.348 7.2l10.96-12.481s-.2-4.026-.17-7.816c.03-3.154.208-6.092.904-6.885l7.139-8.127" style="fill:#ec9623;fill-opacity:1;fill-rule:nonzero;stroke:none" transform="matrix(1.33333 0 0 -1.33333 -.667 1121.853)"></path><path d="M146.392 639.035c-.473-.082-11.663-2.075-17.846-7.435-6.344-5.502-9.85-16.249-9.996-16.704-.11-.344-.032-.72.206-.992l10.962-12.481c.168-.192.43-.317.684-.345l7.758-.885c5.064-.732 5.965-1.32 6.12-1.484l7.137-8.125a1.028 1.028 0 0 0 1.543 1.357l-7.137 8.126c-.662.752-2.167 1.408-7.37 2.16l-7.453.85-10.307 11.735c.783 2.212 4.036 10.758 9.037 15.095 5.15 4.465 14.15 6.525 16.456 6.994.706-.802 9.824-11.185 10.307-11.736l-.16-7.447c.045-5.228.496-6.801 1.157-7.553l7.138-8.128a1.027 1.027 0 0 0 1.544 1.356l-7.138 8.126c-.14.173-.602 1.138-.647 6.217l.168 7.756a1.1 1.1 0 0 1-.256.73l-10.96 12.48a1.03 1.03 0 0 1-.947.333" style="fill:#231f20;fill-opacity:1;fill-rule:nonzero;stroke:none" transform="matrix(1.33333 0 0 -1.33333 -.667 1121.853)"></path><path d="M285.82 639.89v10.787c0 1.052 1.81 3.383 3.878 5.778 2.483 2.876 5.298 5.778 5.298 5.778v16.563s-9.822 5.907-17.835 5.907h-.215c-8.013 0-17.836-5.907-17.836-5.907v-16.563s2.817-2.902 5.3-5.778c2.066-2.395 3.877-4.726 3.877-5.778V639.89" style="fill:#ec9623;fill-opacity:1;fill-rule:nonzero;stroke:none" transform="matrix(1.33333 0 0 -1.33333 -.667 1121.853)"></path><path d="M258.58 679.677a1.03 1.03 0 0 1-.496-.881v-16.563c0-.257.116-.526.29-.716l5.258-5.734c3.326-3.854 3.618-4.885 3.628-5.11v-10.782a1.027 1.027 0 0 1 2.054 0v10.786c0 1-.702 2.48-4.127 6.449l-5.05 5.506v15.57c2.051 1.154 10.166 5.473 16.81 5.473 6.83 0 14.968-4.319 17.022-5.474v-15.57l-5.049-5.505c-3.425-3.968-4.128-5.448-4.128-6.45v-10.785a1.027 1.027 0 0 1 2.055 0v10.786c.01.221.302 1.253 3.629 5.106l5.257 5.734c.174.19.29.459.29.716v16.563c0 .36-.188.694-.497.88-.411.248-10.162 6.054-18.365 6.054-8.418 0-18.169-5.806-18.58-6.053" style="fill:#231f20;fill-opacity:1;fill-rule:nonzero;stroke:none" transform="matrix(1.33333 0 0 -1.33333 -.667 1121.853)"></path><path d="M150.294 597.943a15.326 15.326 0 0 1-2.071-21.66c5.44-6.557 15.207-7.494 21.82-2.104.47.383 47.657 38.29 106.496 38.16h.844c58.873.13 106.06-37.777 106.53-38.16 6.612-5.39 16.38-4.453 21.82 2.105a15.324 15.324 0 0 1-2.072 21.659c-2.253 1.853-56.01 45.367-126.311 45.212h-.777c-70.268.155-124.024-43.36-126.279-45.212" style="fill:#ec9623;fill-opacity:1;fill-rule:nonzero;stroke:none" transform="matrix(1.33333 0 0 -1.33333 -.667 1121.853)"></path><path d="M149.643 598.737c-3.399-2.794-5.5-6.735-5.917-11.096-.417-4.362.9-8.628 3.707-12.013 5.785-6.976 16.22-7.983 23.26-2.245.465.381 47.304 38.057 105.844 37.929h.846c58.576.128 105.415-37.548 105.88-37.928 7.042-5.739 17.476-4.732 23.26 2.244 2.808 3.385 4.124 7.652 3.708 12.014-.417 4.362-2.519 8.302-5.918 11.095-2.265 1.861-56.267 45.6-126.965 45.446h-.775c-70.64.155-124.666-43.585-126.93-45.446m127.707 43.39c69.97.154 123.418-43.134 125.659-44.978 2.973-2.442 4.812-5.888 5.177-9.702a14.24 14.24 0 0 0-3.244-10.508c-5.068-6.112-14.21-6.992-20.38-1.963-.472.384-47.88 38.52-107.18 38.39h-.843c-59.264.13-106.674-38.006-107.146-38.391-6.169-5.028-15.312-4.148-20.38 1.964a14.23 14.23 0 0 0-3.243 10.507 14.24 14.24 0 0 0 5.176 9.703c2.242 1.844 55.713 45.132 125.625 44.979z" style="fill:#231f20;fill-opacity:1;fill-rule:nonzero;stroke:none" transform="matrix(1.33333 0 0 -1.33333 -.667 1121.853)"></path><path d="M392.042 443.905c0-63.165-51.2-114.361-114.361-114.361-63.16 0-114.361 51.196-114.361 114.36 0 63.16 51.201 114.362 114.36 114.362 63.161 0 114.362-51.202 114.362-114.361" style="fill:#fff;fill-opacity:1;fill-rule:nonzero;stroke:none" transform="matrix(1.33333 0 0 -1.33333 -.667 1121.853)"></path><path d="M162.292 443.905c0-63.626 51.764-115.388 115.389-115.388 63.626 0 115.389 51.762 115.389 115.388 0 63.625-51.763 115.389-115.39 115.389-63.624 0-115.388-51.764-115.388-115.39m2.056 0c0 62.493 50.841 113.336 113.333 113.336 62.493 0 113.334-50.843 113.334-113.335 0-62.493-50.841-113.333-113.334-113.333-62.492 0-113.333 50.84-113.333 113.333" style="fill:#231f20;fill-opacity:1;fill-rule:nonzero;stroke:none" transform="matrix(1.33333 0 0 -1.33333 -.667 1121.853)"></path><path d="m303.782 479.21 16.068-49.825-42.069-30.794-42.064 30.794 16.066 49.825zM277.688 542.82c-12.859 0-20.75-2.043-20.75-2.043l-13.942 11.93s15.001 6.42 34.424 6.163h.668c19.424.257 34.425-6.162 34.425-6.162l-13.942-11.931s-7.891 2.043-20.75 2.043zM370.435 473.948c4.316-13.214 5.022-21.954 5.022-21.954l16.018-10.62s1.069 17.407-5.692 37.283l-.224.685c-6.274 20.038-17.413 33.457-17.413 33.457l-6.66-18.029s4.59-7.473 8.904-20.684zM334.419 363.738c10.53 7.38 15.817 13.585 15.817 13.585l18.265-1.764s-8.596-13.867-24.647-24.809l-.549-.383c-15.755-11.362-31.723-14.714-31.723-14.714l4.566 17.77s7.632 2.859 18.16 10.237z" style="fill:#231f20;fill-opacity:1;fill-rule:nonzero;stroke:none" transform="matrix(1.33333 0 0 -1.33333 -.667 1121.853)"></path><path d="M295.246 544.015s25.24-34.796 26.038-35.898l-19.222-29.882 1.728-1.111 19.982 31.063-26.863 37.034zM351.152 420.751 312.3 432.608l-.6-1.964 40.241-12.282 25.983 35.123-1.65 1.222z" style="fill:#231f20;fill-opacity:1;fill-rule:nonzero;stroke:none" transform="matrix(1.33333 0 0 -1.33333 -.667 1121.853)"></path><path d="m322.194 507.182 40.318-13.868.668 1.942-40.318 13.868zM349.665 375.32l2.054-.04.855 44.256-2.055.04zM185.034 473.946c-4.317-13.213-5.022-21.956-5.022-21.956l-16.019-10.617s-1.068 17.405 5.693 37.28l.224.688c6.275 20.036 17.412 33.455 17.412 33.455l6.66-18.029s-4.589-7.472-8.903-20.683zM221.05 363.737c-10.529 7.379-15.817 13.582-15.817 13.582l-18.265-1.761s8.597-13.868 24.647-24.81l.548-.385c15.756-11.36 31.725-14.714 31.725-14.714l-4.566 17.771s-7.634 2.857-18.162 10.236zM232.11 508.752l-.413-.567 19.983-31.063 1.727 1.112-19.222 29.88c.798 1.102 26.038 35.898 26.038 35.898l-1.663 1.206z" style="fill:#231f20;fill-opacity:1;fill-rule:nonzero;stroke:none" transform="matrix(1.33333 0 0 -1.33333 -.667 1121.853)"></path><path d="m177.545 453.481 25.983-35.12 40.242 12.28-.6 1.963s-37.514-11.447-38.853-11.854l-25.12 33.953zM192.29 495.253l.667-1.942 40.318 13.868-.668 1.942z" style="fill:#231f20;fill-opacity:1;fill-rule:nonzero;stroke:none" transform="matrix(1.33333 0 0 -1.33333 -.667 1121.853)"></path><path d="m202.896 419.534.854-44.258 2.055.04-.855 44.258zM276.753 400.33v-35.183h2.055v35.182z" style="fill:#231f20;fill-opacity:1;fill-rule:nonzero;stroke:none" transform="matrix(1.33333 0 0 -1.33333 -.667 1121.853)"></path><path d="m277.408 365.999-40.025-12.618.617-1.96 39.716 12.52c.609-.19 39.752-12.518 39.752-12.518l.618 1.96-40.37 12.713z" style="fill:#231f20;fill-opacity:1;fill-rule:nonzero;stroke:none" transform="matrix(1.33333 0 0 -1.33333 -.667 1121.853)"></path><path d="M136.034 305.149a213 213 0 0 0-8.289 7.818v10.785a212 212 0 0 1 24.356-20.824v-10.785a209 209 0 0 0-8.73 6.742v-44.554a211 211 0 0 0-7.337 6.263zM162.22 295.973a208 208 0 0 1 8.114-4.976 8278 8278 0 0 1 11.883-61.757 210 210 0 0 0-8.69 4.594q-1.012 5.766-2.019 11.544a210 210 0 0 0-10.486 6.433q-.953-4.576-1.9-9.142a211 211 0 0 0-8.17 5.765q5.535 23.565 11.269 47.539m.336-35.783q3.6-2.314 7.274-4.467a12166 12166 0 0 0-3.655 22.865q-1.82-9.22-3.62-18.398M184.152 228.287v55.34a210 210 0 0 1 17.164-7.416c4.358-1.653 7.569-4.435 9.577-8.517 1.526-3.08 2.294-6.847 2.294-11.328 0-3.16-.487-5.856-1.456-8.077-1.17-2.575-2.865-3.735-5.071-3.437v-.474c1.982-.956 3.32-2.316 3.997-4.12q.778-2.15.779-6.26v-4.507q0-4.743.443-7.377a30.4 30.4 0 0 1 1.454-5.4q-4.454 1.391-8.853 2.983a17 17 0 0 0-.807 2.984q-.27 1.522-.27 3.5-.067 4.022-.131 8.043c0 2.215-.395 3.966-1.175 5.263s-2.073 2.285-3.865 2.999a212 212 0 0 0-5.648 2.346v-20.415a208 208 0 0 0-8.432 3.87m8.432 40.684v-13.995a209 209 0 0 1 6.495-2.68c1.476-.583 2.56-.65 3.242-.224 1.163.664 1.749 2.42 1.749 5.252q-.001 4.087-1.327 6.07c-.886 1.325-2.21 2.321-3.963 3.015q-3.116 1.23-6.196 2.562M235.447 241.143a211 211 0 0 1 15.671-2.486v-30.046c-10.766.113-14.98.797-17.24 1.26-4.729.972-8.441 3.422-11.167 7.187-4.107 5.77-6.14 14.666-6.143 26.503q0 6.154.848 10.685c.566 3.02 1.474 5.612 2.731 7.792 3.08 5.525 8.017 7.399 14.879 6.024 4.23-.842 7.577-2.568 10.02-5.304 3.142-3.527 5.032-9.069 5.654-16.732q-4.736.58-9.447 1.374c0 2.883-.537 5.122-1.61 6.727-.99 1.697-2.539 2.735-4.632 3.152-2.386.475-4.313-.15-5.783-1.911-2.09-2.514-3.126-7.423-3.126-14.774 0-6.455.704-11.278 2.118-14.444 1.414-3.165 3.761-4.547 6.572-5.679 1.964-.79 3.164-.962 6.587-.962 1.38 0 .982 7.434.982 10.373q-3.465.566-6.914 1.245zM274.062 205.557c-4.983.06-9.022 2.17-12.115 6.172-2.383 3.165-4.072 7.396-5.076 12.649a68 68 0 0 0-.75 5.4q-.25 2.59-.25 5.984c0 4.106.333 7.807 1 11.115 1.001 5.119 2.671 9.047 5.012 11.83 3.052 3.633 7.113 5.333 12.179 5.272 6.701-.075 11.598-3.077 14.693-9.376 2.343-4.811 3.514-11.216 3.514-19.271 0-8.102-1.15-14.672-3.45-19.647-3.052-6.699-7.973-10.203-14.757-10.128m-.03 10.786c2.39-.028 4.26.985 5.605 2.998 1.887 2.968 2.832 8.144 2.832 15.493 0 7.403-.965 12.514-2.895 15.374-1.346 1.976-3.193 2.958-5.542 2.985-2.397.03-4.243-.88-5.543-2.774-1.89-2.764-2.832-7.879-2.831-15.386 0-7.401.922-12.573 2.769-15.477 1.259-2.097 3.125-3.183 5.605-3.213M309.599 226.347q3.197 19.83 6.381 39.757a211 211 0 0 1 9.854 2.104q-5.857-29.067-11.772-57.797a215 215 0 0 0-9.5-1.48 35748 35748 0 0 0-11.861 54.104q5.161.39 10.303 1.035 3.303-18.914 6.595-37.723M327.896 268.71q4.444 1.106 8.846 2.408v-55.34a210 210 0 0 0-8.846-2.409zM341.851 235.31q4.44 1.437 8.828 3.077c0-3.661.757-5.894 2.266-6.671.831-.463 2.16-.337 3.977.408 1.575.647 2.754 1.413 3.538 2.278 1.29 1.45 1.935 3.37 1.935 5.737-.001 3.103-1.204 4.818-3.632 5.212q-2.234-.035-4.485-.017c-4.267-.103-7.246.815-8.887 2.56-1.64 1.751-2.465 5.22-2.464 10.373-.001 4.469.803 8.277 2.406 11.456 2.282 4.572 6.223 7.837 11.735 10.097 5.071 2.09 8.65 1.596 10.81-1.735 1.35-2.136 2.021-5.192 2.021-9.186a210 210 0 0 0-8.025-3.74c0 2.338-.61 3.728-1.833 4.19-.832.265-1.957.1-3.384-.483-1.391-.569-2.538-1.375-3.436-2.434-.897-1.058-1.346-2.634-1.346-4.738 0-1.892.396-3.123 1.19-3.683.793-.557 2.482-.786 5.04-.615 5.037.531 8.417.1 10.236-1.552 1.812-1.648 2.712-4.873 2.712-9.708 0-5.047-.763-9.406-2.302-13.043-1.103-2.623-2.596-4.924-4.492-6.864-.59-.603 1.24-1.584 1.24-3.638 0-3.77-1.883-5.65-5.478-6.335-1.109-.211 1.712 5.48-.863 6.145-.812.211-1.512-.765-2.321-1.097-4.524-1.85-7.995-1.863-10.353-.218-3.082 2.085-4.633 6.863-4.633 14.224M381.729 279.58a210 210 0 0 0-9.61-5.19v10.785a209 209 0 0 1 26.706 16.146v-10.785a210 210 0 0 0-9.056-6.095v-44.555a210 210 0 0 0-8.04-4.862zM409.61 287.573a213 213 0 0 1 13.68 12.144v-10.143a212 212 0 0 0-13.68-12.144v-12.455a212 212 0 0 1 15.799 14.222v-10.785a212 212 0 0 0-23.355-20.088v55.341a212 212 0 0 1 22.971 19.707v-10.786a213 213 0 0 0-15.416-13.842zM170.674 293.549l-2.398 5.833-2.054.934-3.424-2.054-4.964 2.765 8.046 4.767 5.478-3.082 6.163-12.155z" style="fill:#fff;fill-opacity:1;fill-rule:nonzero;stroke:none" transform="matrix(1.33333 0 0 -1.33333 -.667 1121.853)" data-source="https://football-logos.cc"></path><!-- source: https://football-logos.cc --></svg>