<svg xmlns="http://www.w3.org/2000/svg" data-name="Capa 2" viewBox="0 0 400 398.64"><!-- Source: https://football-logos.cc --><defs data-source="https://football-logos.cc"><linearGradient id="a" x1="200" x2="200" y1="207.36" y2="606" data-name="Degradado sin nombre" gradientTransform="matrix(1 0 0 -1 0 606)" gradientUnits="userSpaceOnUse"><stop offset="0" stop-color="#ff0b32"></stop><stop offset="1" stop-color="#ff5907"></stop></linearGradient></defs><g data-name="Livello 1" data-source="https://football-logos.cc"><path d="M200 398.64C89.73 398.64 0 309.2 0 199.27S89.73 0 200 0s200 89.45 200 199.27-89.73 199.37-200 199.37" style="fill:#fff;fill-opacity:1"></path><path d="M377.84 199.27c0-97.5-80-177.19-177.84-177.19S22.16 101.77 22.16 199.27s80 177.3 177.84 177.3c97.85 0 177.84-79.8 177.84-177.3M200 398.64C89.73 398.64 0 309.2 0 199.27S89.73 0 200 0s200 89.45 200 199.27-89.73 199.37-200 199.37M77.18 95.7a159.6 159.6 0 0 0-29.39 51.45c13.15 17.44 19.72 39.8 16.51 63.02-2.1 15.16-8.11 28.81-16.86 40.18 6.2 18.48 15.87 36.01 28.99 51.64 23.1-21.42 39.21-50.61 43.85-84.14 6.51-46.91-11.01-91.73-43.1-122.15m18.55 225.72c15.53 13.17 32.95 23.02 51.34 29.37 17.54-13.45 40.24-20.09 63.82-16.86 15.49 2.08 29.43 8.24 40.94 17.24a160.8 160.8 0 0 0 51.56-28.99c-21.56-23.22-50.98-39.42-84.79-44.07-47.28-6.44-92.39 11.08-122.88 43.31zm224.42-21.03c.86.85 1.74 1.7 2.62 2.55a159.7 159.7 0 0 0 29.4-51.45c-13.18-17.34-19.72-39.8-16.51-63.02 2.1-15.16 8.12-28.9 16.88-40.27-6.2-18.48-15.87-36.01-28.99-51.65-23.11 21.51-39.24 50.7-43.88 84.25-6.31 45.67 10.05 89.26 40.48 119.59M179.78 119.86c-31.85-4.36-59.82-18.95-80.98-40.08-.94-.95-1.86-1.9-2.79-2.84 15.6-13.18 33.13-23.03 51.58-29.29 11.31 8.53 24.87 14.41 39.89 16.4 23.55 3.31 46.21-3.42 63.75-16.77 18.52 6.15 36.12 15.82 51.83 28.9-30.5 32.41-75.79 50.22-123.27 43.68z" style="fill:url(#a)"></path><path d="M226.25 170.66h30.37v-8.91h-30.37v-8.24h33.66v-9.29h-45.2v43.58h11.54zm0 66.71h30.37v-9.01h-30.37v-8.24h33.66v-9.28h-45.2v43.58h11.54zm-36.43 7.77h-35.84v-8.53h30.99v-8.91h-30.99v-7.58h35.49v-9.28h-47.03v43.58h47.38zm-11.66-85.95c0 1.9-.7 3.22-2.13 4.07-1.42.85-3.65 1.23-6.69 1.23h-15.97v-10.98h16.59c2.92 0 5.02.38 6.29 1.23 1.28.85 1.91 2.18 1.91 4.07zm2.89 13.08c2.58-1.14 4.47-2.55 5.7-4.45 1.55-2.37 2.35-5.21 2.35-8.53v-.38c0-4.65-1.6-8.24-4.8-10.89-3.2-2.56-7.88-3.79-14.04-3.79h-27.83v43.58h10.94v-13.93h16.4l8.14 13.93h13.18z" style="fill:#221c35"></path></g><!-- source: https://football-logos.cc --></svg>