<svg xmlns="http://www.w3.org/2000/svg" viewBox="46 113.33 700 896"><!-- Source: https://football-logos.cc --><defs data-source="https://football-logos.cc"><clipPath id="a" clipPathUnits="userSpaceOnUse"><path d="M-297 757h595.28V-84.89H-297Z"></path></clipPath><clipPath id="b" clipPathUnits="userSpaceOnUse"><path d="M-544.832 99.834h595.28v-841.89h-595.28Z"></path></clipPath><clipPath id="c" clipPathUnits="userSpaceOnUse"><path d="M-544.832 99.834h595.28v-841.89h-595.28Z"></path></clipPath><clipPath id="d" clipPathUnits="userSpaceOnUse"><path d="M-109.25 126.75h595.28v-841.89h-595.28Z"></path></clipPath><clipPath id="e" clipPathUnits="userSpaceOnUse"><path d="M-297.327 126.75h595.28v-841.89h-595.28Z"></path></clipPath><clipPath id="f" clipPathUnits="userSpaceOnUse"><path d="M-486.223 126.75h595.28v-841.89h-595.28Z"></path></clipPath><clipPath id="g" clipPathUnits="userSpaceOnUse"><path d="M-360.528 255.51h595.28v-841.89h-595.28Z"></path></clipPath><clipPath id="h" clipPathUnits="userSpaceOnUse"><path d="M-235.155 383.855h595.28v-841.89h-595.28Z"></path></clipPath><clipPath id="i" clipPathUnits="userSpaceOnUse"><path d="M-109.071 512.45h595.28v-841.89h-595.28Z"></path></clipPath><clipPath id="j" clipPathUnits="userSpaceOnUse"><path d="M-109.071 319.444h595.28v-841.89h-595.28Z"></path></clipPath><clipPath id="k" clipPathUnits="userSpaceOnUse"><path d="M-119 169.667h595.28v-841.89H-119Z"></path></clipPath><clipPath id="l" clipPathUnits="userSpaceOnUse"><path d="M-164 179.5h595.28v-841.89H-164Z"></path></clipPath><clipPath id="m" clipPathUnits="userSpaceOnUse"><path d="M-154.615 192.875h595.28v-841.89h-595.28Z"></path></clipPath><clipPath id="n" clipPathUnits="userSpaceOnUse"><path d="M-167.518 206.667h595.28v-841.89h-595.28Z"></path></clipPath><clipPath id="o" clipPathUnits="userSpaceOnUse"><path d="M-189.814 200.988h595.28v-841.89h-595.28Z"></path></clipPath><clipPath id="p" clipPathUnits="userSpaceOnUse"><path d="M-180.13 220.43h595.28v-841.89h-595.28Z"></path></clipPath><clipPath id="q" clipPathUnits="userSpaceOnUse"><path d="M-152.192 220.742h595.28v-841.89h-595.28Z"></path></clipPath><clipPath id="r" clipPathUnits="userSpaceOnUse"><path d="M-135.773 201.184h595.28v-841.89h-595.28Z"></path></clipPath><clipPath id="s" clipPathUnits="userSpaceOnUse"><path d="M-179.812 335.813h595.28v-841.89h-595.28Z"></path></clipPath><clipPath id="t" clipPathUnits="userSpaceOnUse"><path d="M-177.219 278.75h595.28v-841.89h-595.28Z"></path></clipPath><clipPath id="u" clipPathUnits="userSpaceOnUse"><path d="M-80.244 572.637h595.28v-841.89h-595.28Z"></path></clipPath><clipPath id="v" clipPathUnits="userSpaceOnUse"><path d="M-200.666 450.085h595.28v-841.89h-595.28Z"></path></clipPath><clipPath id="w" clipPathUnits="userSpaceOnUse"><path d="M-315 333.73h595.28v-841.89H-315Z"></path></clipPath><clipPath id="x" clipPathUnits="userSpaceOnUse"><path d="M-429 637.71h595.28v-841.89H-429Z"></path></clipPath></defs><path d="M0 0c138.267 104.42 138.476 104.068 174 132.75 55.295 44.646 88.5 53.5 88.5 124.25v415h-525V257c0-70.75 33.205-79.604 88.5-124.25C-148.239 111.95 0 0 0 0" clip-path="url(#a)" style="fill:#fbc715;fill-opacity:1;fill-rule:nonzero;stroke:none" transform="matrix(1.33333 0 0 -1.33333 396 1009.334)"></path><path d="M0 0v-401.5c0-49.167-19-62.333-49.833-86.167-30.833-23.833-197.999-150-197.999-150s-167.167 126.167-198 150c-30.834 23.834-49.833 37-49.833 86.167V0Z" clip-path="url(#b)" style="fill:#ee2c29;fill-opacity:1;fill-rule:nonzero;stroke:none" transform="matrix(1.33333 0 0 -1.33333 726.443 133.112)"></path><path d="M0 0h-495.665v-401.5c0-38.212 11.481-54.68 31.071-71.309z" clip-path="url(#c)" style="fill:#2c3892;fill-opacity:1;fill-rule:nonzero;stroke:none" transform="matrix(1.33333 0 0 -1.33333 726.443 133.112)"></path><path d="M0 0c0 .464-8.714.779-18.955.91-3.295 9.659-6.258 17.84-6.67 17.84-.464 0-3.374-8.144-6.571-17.774C-42.479.945-51.25.715-51.25.25c0-.458 6.87-5.669 15.053-11.642-3.083-9.781-5.543-18.253-5.178-18.618.37-.369 7.731 4.67 16.145 10.721C-16.797-25.28-9.51-30.26-9.25-30c.258.258-2.323 8.629-5.511 18.363C-6.729-5.677 0-.458 0 0" clip-path="url(#d)" style="fill:#f4f1f0;fill-opacity:1;fill-rule:nonzero;stroke:none" transform="matrix(1.33333 0 0 -1.33333 145.667 169)"></path><path d="M0 0c0 .464-8.714.779-18.955.91-3.295 9.659-6.258 17.84-6.67 17.84-.464 0-3.374-8.144-6.571-17.774C-42.479.945-51.25.715-51.25.25c0-.458 6.87-5.669 15.053-11.642-3.083-9.781-5.543-18.253-5.178-18.618.37-.369 7.731 4.67 16.145 10.721C-16.797-25.28-9.51-30.26-9.25-30c.258.258-2.323 8.629-5.511 18.363C-6.729-5.677 0-.458 0 0" clip-path="url(#e)" style="fill:#f4f1f0;fill-opacity:1;fill-rule:nonzero;stroke:none" transform="matrix(1.33333 0 0 -1.33333 396.436 169)"></path><path d="M0 0c0 .464-8.715.779-18.955.91-3.295 9.659-6.258 17.84-6.67 17.84-.464 0-3.373-8.144-6.57-17.774C-42.479.945-51.25.715-51.25.25c0-.458 6.87-5.669 15.053-11.642-3.082-9.781-5.543-18.253-5.178-18.618.369-.369 7.731 4.67 16.145 10.721C-16.797-25.28-9.51-30.26-9.25-30c.258.258-2.323 8.629-5.512 18.363C-6.729-5.677 0-.458 0 0" clip-path="url(#f)" style="fill:#f4f1f0;fill-opacity:1;fill-rule:nonzero;stroke:none" transform="matrix(1.33333 0 0 -1.33333 648.297 169)"></path><path d="M0 0c0 .464-8.715.779-18.955.91-3.295 9.659-6.258 17.84-6.67 17.84-.464 0-3.373-8.144-6.57-17.774C-42.479.945-51.25.715-51.25.25c0-.458 6.87-5.669 15.053-11.642-3.082-9.781-5.543-18.253-5.178-18.618.369-.369 7.731 4.67 16.145 10.721C-16.797-25.28-9.51-30.26-9.25-30c.258.258-2.323 8.629-5.512 18.363C-6.729-5.677 0-.458 0 0" clip-path="url(#g)" style="fill:#f4f1f0;fill-opacity:1;fill-rule:nonzero;stroke:none" transform="matrix(1.33333 0 0 -1.33333 480.704 340.679)"></path><path d="M0 0c0 .464-8.715.779-18.955.91-3.295 9.659-6.258 17.84-6.67 17.84-.464 0-3.373-8.144-6.57-17.774C-42.479.945-51.25.715-51.25.25c0-.458 6.87-5.669 15.053-11.642-3.082-9.781-5.543-18.253-5.178-18.618.369-.369 7.731 4.67 16.145 10.721C-16.797-25.28-9.51-30.26-9.25-30c.258.258-2.323 8.629-5.512 18.363C-6.729-5.677 0-.458 0 0" clip-path="url(#h)" style="fill:#f4f1f0;fill-opacity:1;fill-rule:nonzero;stroke:none" transform="matrix(1.33333 0 0 -1.33333 313.54 511.806)"></path><path d="M0 0c0 .464-8.715.778-18.955.91-3.295 9.659-6.258 17.84-6.67 17.84-.464 0-3.373-8.144-6.57-17.774C-42.479.945-51.25.716-51.25.25c0-.458 6.87-5.669 15.053-11.642-3.082-9.781-5.543-18.253-5.178-18.618.369-.37 7.731 4.669 16.145 10.722C-16.797-25.28-9.51-30.26-9.25-30c.258.259-2.323 8.63-5.512 18.362C-6.729-5.677 0-.458 0 0" clip-path="url(#i)" style="fill:#f4f1f0;fill-opacity:1;fill-rule:nonzero;stroke:none" transform="matrix(1.33333 0 0 -1.33333 145.428 683.267)"></path><path d="M0 0c0 .464-8.715.778-18.955.91-3.295 9.659-6.258 17.84-6.67 17.84-.464 0-3.373-8.144-6.57-17.774C-42.479.945-51.25.716-51.25.25c0-.458 6.87-5.669 15.053-11.642-3.082-9.781-5.543-18.253-5.178-18.618.369-.37 7.731 4.669 16.145 10.722C-16.797-25.28-9.51-30.26-9.25-30c.258.259-2.323 8.63-5.512 18.362C-6.729-5.677 0-.458 0 0" clip-path="url(#j)" style="fill:#f4f1f0;fill-opacity:1;fill-rule:nonzero;stroke:none" transform="matrix(1.33333 0 0 -1.33333 145.428 425.926)"></path><path d="M0 0h259.333L0-266Z" clip-path="url(#k)" style="fill:#f4f1f0;fill-opacity:1;fill-rule:nonzero;stroke:none" transform="matrix(1.33333 0 0 -1.33333 158.667 226.223)"></path><path d="M0 0c24.875 0 44.375-14.5 44.375-31.375 0-13.75-16.25-31.25-44.375-31.25-22.375 0-43 14-43 31.313C-43-12.875-21.5 0 0 0" clip-path="url(#l)" style="fill:#05a861;fill-opacity:1;fill-rule:nonzero;stroke:none" transform="matrix(1.33333 0 0 -1.33333 218.667 239.334)" data-source="https://football-logos.cc"></path><path d="M0 0a3 3 0 1 1 6 0 3 3 0 0 1-6 0" clip-path="url(#m)" style="fill:#ee2c29;fill-opacity:1;fill-rule:nonzero;stroke:none" transform="matrix(1.33333 0 0 -1.33333 206.154 257.167)"></path><path d="M0 0a3 3 0 1 1 6 0 3 3 0 0 1-6 0" clip-path="url(#n)" style="fill:#ee2c29;fill-opacity:1;fill-rule:nonzero;stroke:none" transform="matrix(1.33333 0 0 -1.33333 223.357 275.556)"></path><path d="M0 0a3 3 0 1 1 6 0 3 3 0 0 1-6 0" clip-path="url(#o)" style="fill:#ee2c29;fill-opacity:1;fill-rule:nonzero;stroke:none" transform="matrix(1.33333 0 0 -1.33333 253.085 267.984)"></path><path d="M0 0a3 3 0 1 1 6 0 3 3 0 0 1-6 0" clip-path="url(#p)" style="fill:#ee2c29;fill-opacity:1;fill-rule:nonzero;stroke:none" transform="matrix(1.33333 0 0 -1.33333 240.173 293.907)"></path><path d="M0 0a3 3 0 1 1 6 0 3 3 0 0 1-6 0" clip-path="url(#q)" style="fill:#ee2c29;fill-opacity:1;fill-rule:nonzero;stroke:none" transform="matrix(1.33333 0 0 -1.33333 202.923 294.323)"></path><path d="M0 0a3 3 0 1 1 6 0 3 3 0 0 1-6 0" clip-path="url(#r)" style="fill:#ee2c29;fill-opacity:1;fill-rule:nonzero;stroke:none" transform="matrix(1.33333 0 0 -1.33333 181.03 268.245)"></path><path d="M0 0c-5.75 0-9.25 1.812-9.25 9v82c0 1.465.509 2.465 1.134 3.146a64 64 0 0 0-7.697-.458c-1.676 0-3.341.087-4.99.24.499-.713.866-1.68.866-2.99V8.875c0-7.313-3.375-8.625-5.438-8.625C-27.875.25-47 .25-47-4.125c0-.979.812-1.146 2.896-1.146H31.4L35.915-.64C25.823-.432 4.365 0 0 0" clip-path="url(#s)" style="fill:#733223;fill-opacity:1;fill-rule:nonzero;stroke:none" transform="matrix(1.33333 0 0 -1.33333 239.75 447.75)"></path><path d="M0 0c-1.539 0-2.592 1.165-3.246 2.262.973-.261 3.326-.184 3.944-.184.729 0 .943-.406.943-1.297C1.641.094 1.052 0 0 0m38.115-21.375c0 8.937-10.917 11.052-10.917 31.958 0 12.198 5.646 13.479 5.646 17.823 0 2.457-3.688 2.489-6.125 1.875 0 0-3.969 5.125-7.157 5.125-2.125 0-2.25-.906-4.468-.906-3.656 0-6.063 5.156-8.375 5.156-1.157 0-3.281-3-3.281-4.468 0-2.5 4.406-4.469 4.406-8.376 0-2.718-2.157-9.375-2.157-13.124 0-2.667-.614-3.594-3.062-3.594-3.531 0-4.375 3.625-6.063 7.156-.858 1.797-2.153 3.947-3.218 5.629v-33.367c1.795-.995 4.37-1.887 7.479-1.887 4.417-12.708 10.625-16.75 10.625-17.292 0-.541-.667-2.958-.667-5.614 0-11.375 9.125-11.625 9.125-17.657 0-1.104-1.449-3.322-2.168-4.354 2.449-.045 4.992-.094 7.491-.143-.11.986-.401 2.077-.401 2.779 0 .859.391 1.703 1.375 1.703.891 0 1.125-.5 1.125-1.203 0-.461-.739-1.918-.935-3.302 2.746-.054 5.408-.107 7.789-.156.08 3.252-2.526 8.388-2.526 12.281 0 3.583 3.084 8.791 3.084 8.791 5.166-1.208 7.166 1.261 7.166 3.917 0 5.25-3.791 4.542-3.791 11.25" clip-path="url(#t)" style="fill:#0e0f0e;fill-opacity:1;fill-rule:nonzero;stroke:none" transform="matrix(1.33333 0 0 -1.33333 236.292 371.667)"></path><path d="M0 0c5.615-4.77 11.885-9.552 18.756-14.863 8.77-6.78 28.572-21.838 52.417-39.917V72.432Z" clip-path="url(#u)" style="fill:#f4f1f0;fill-opacity:1;fill-rule:nonzero;stroke:none" transform="matrix(1.33333 0 0 -1.33333 106.992 763.516)"></path><path d="M0 0v-214.623c23.302-17.628 46.242-34.962 63.889-48.292h.778V65.811Z" clip-path="url(#v)" style="fill:#f4f1f0;fill-opacity:1;fill-rule:nonzero;stroke:none" transform="matrix(1.33333 0 0 -1.33333 267.555 600.114)"></path><path d="M0 0v-390.181c15.472 11.684 39.255 29.65 64.667 48.866V65.811Z" clip-path="url(#w)" style="fill:#f4f1f0;fill-opacity:1;fill-rule:nonzero;stroke:none" transform="matrix(1.33333 0 0 -1.33333 420 444.973)"></path><path d="M0 0c28.543 21.622 53.519 40.591 64.667 49.183v436.624L0 419.996Z" clip-path="url(#x)" style="fill:#f4f1f0;fill-opacity:1;fill-rule:nonzero;stroke:none" transform="matrix(1.33333 0 0 -1.33333 572 850.28)" data-source="https://football-logos.cc"></path><!-- source: https://football-logos.cc --></svg>