<svg xmlns="http://www.w3.org/2000/svg" viewBox="40.09 112.26 713.93 907.37"><!-- Source: https://football-logos.cc --><path d="m58.468 377.522 27.9 37.434-14.415 55.102 6.277 22.552s-1.453 15.088-12.09 46.733c-9.3 27.667-22.087 55.335-22.087 55.335l-13.485 67.425 27.9 39.06 44.175 13.95 47.662-17.67 13.718-66.03 7.672-15.345 1.86 23.25-11.392 55.335s3.487 6.975 9.532 19.995 11.16 24.877 11.16 24.877l54.405 17.67 59.753-25.807s-2.137-32.075-1.86-52.545c.232-17.205 4.65-41.385 8.137-53.01l1.86 2.79 8.834 71.61s27.9 13.485 40.455 18.368c11.65 4.53 33.016 9.067 33.016 9.067s36.037-14.88 61.612-32.783c0 0-10.587-41.218-17.67-67.425-6.975-25.807-7.672-39.292-7.672-39.292l8.602 19.297 53.708 30.458 46.733-7.905 33.247-54.638-40.92-44.174-.233-14.648s-12.322-17.437-20.227-32.55c-8.964-17.138-12.555-35.572-12.555-35.572l3.487-13.718c-3.72-8.137-35.34-67.425-35.34-67.425l-5.347-56.032c-9.3-14.648-22.785-48.36-22.785-48.36s13.02-17.903 21.855-41.153c0 0-37.245-46.946-79.515-83.933-42.78-37.432-88.118-61.147-88.118-61.147s-47.443 16.856-105.09 57.893c-41.152 29.294-62.774 52.312-62.774 52.312l7.672 35.107S97.76 247.788 76.37 293.59s-17.902 83.932-17.902 83.932" style="fill:#feea13;fill-opacity:1;fill-rule:nonzero;stroke:none" transform="matrix(1.33333 0 0 -1.33333 -.667 1121.853)" data-source="https://football-logos.cc"></path><path d="m447.188 593.975 42.353 24.019 31.464-5.322 21.237-34.9-36.095-38.966-.255-16.189c-4.44-6.565-12.311-18.61-18.15-29.773-10.138-19.378-14.207-39.9-14.376-40.764l-.817-4.198 2.8-11.011c-6.56-12.81-21.968-41.902-31.944-60.606l-1.794-3.365-5.303-55.566c-9.516-16.603-20.584-44.027-21.914-47.354l-3.896-9.739 6.16-8.53c.097-.133 8.097-11.304 15.25-26.755-12.558-14.98-40.181-46.678-70.027-72.793-30.482-26.67-62.714-46.298-76.93-54.446-15.275 6.388-51.368 22.976-92.667 52.375-25.953 18.475-43.847 34.378-52.96 42.99l7.763 35.52-8.093 7.445c-.258.237-26.013 24.205-45.35 65.61-14.547 31.15-16.27 58.48-16.305 69.282l29.793 39.973L91.7 469.904l5.847 21.007-.34 3.527c-.17 1.767-1.98 18.21-12.996 50.98-8.162 24.284-18.707 48.105-21.895 55.157-.71 3.544-9.017 45.084-11.434 57.168L70.281 684.9c7.555 2.387 24.14 7.623 31.867 10.063l31.637-11.729 12.076-58.128s13.611-24.35 16.534-32.985c10.23-30.225 20.925-51.383 26.04-60.45.893-1.582 6.278-4.186 6.278-4.186 1.627 7.673-.233 51.616-1.628 63.24-1.395 11.626-2.557 18.368-2.092 26.97s1.783 22.808 1.783 22.808l-10.63 51.63a1122.626 1122.626 0 0 1 14.734 31.901l39.426 12.806 40.9-17.665c-.534-10.245-1.143-24.533-1.143-36.484 0-1.404.008-2.776.026-4.106.252-18.636 4.744-44.242 8.94-58.23 1.056-4.287.59-13.82 2.683-32.187 2.093-18.368 5.58-41.385 8.138-49.058 0 0 9.532 20.693 12.322 28.133s9.3 43.71 9.3 43.71 6.101 11.302 6.204 12.13l7.951 64.439c9.032 4.266 22.394 10.46 29.724 13.31 6.266 2.437 16.954 5.167 24.234 6.874 8.538-3.783 25.807-11.809 41.589-21.356-3.705-14.314-9.683-37.274-14.182-53.915-3.945-14.598-6.028-25.601-7.124-32.88-1.906-12.317-1.44-22.315-1.44-22.315s-7.906-21.622-9.998-38.13c-2.093-16.507-2.325-35.107-2.325-35.107l3.254-4.418s7.732 10.33 25.576 41.618c16.972 29.76 26.253 52.772 26.253 52.772" style="fill:#231f20;fill-opacity:1;fill-rule:nonzero;stroke:none" transform="matrix(1.33333 0 0 -1.33333 -.667 1121.853)"></path><path d="m366.53 677.68-1.395-36.037 3.72-7.44s8.137-1.86 13.02-1.628 9.997 2.79 9.997 2.79l11.625 40.455s-13.484 6.51-16.274 6.51-20.694-4.65-20.694-4.65M213.08 704.883l16.043-42.083 6.277-2.557 16.508 5.58s2.79 5.115 3.487 15.113c.633 9.071.698 24.412.698 24.412s-10.928 6.51-18.833 7.207c-2.558.226-24.18-7.672-24.18-7.672M74.975 651.175s13.95-22.087 16.973-25.342 6.975-6.045 9.067-6.743l16.74 5.348s.465 4.417 3.255 10.23l-8.602 33.248s-12.788 1.627-19.53-.93-9.068-4.883-17.903-15.81M495.103 596.073l15.81-1.628 9.299-16.275-25.808-28.132-9.532 7.44-3.72 11.857z" style="fill:#d0d6d7;fill-opacity:1;fill-rule:nonzero;stroke:none" transform="matrix(1.33333 0 0 -1.33333 -.667 1121.853)"></path><path d="M370.482 517.953s-9.075 5.065-17.205 6.277c-26.505 3.953-40.687-7.44-40.687-7.44s9.3 27.436 15.112 46.733c5.813 19.297 10.695 42.082 10.695 42.082s5.116 9.068 5.116 9.766c0 .697 6.742 56.497 6.742 56.497l4.65 3.255-1.395-37.2 9.3-17.205s11.625-.233 15.344 0c3.721.232 10.928 3.022 10.928 3.022l-3.487-39.757s-8.205-18.086-11.393-38.362c-2.557-16.276-3.72-27.668-3.72-27.668M264.23 616.533s-5.115 18.367-5.58 23.482-1.395 16.276-1.395 16.276l-24.18-9.068-12.322 4.882-15.345 39.758s-2.558-3.953-2.558-6.278c0-5.115 9.3-35.805 9.3-35.805s-1.162-30.922-1.162-35.572c0 0 2.324-19.298 3.952-30.225s3.023-41.85 3.023-41.85l36.021 2.721 16.291 1.231s-4.185 36.503-6.045 70.448M143.796 526.788c6.052 1.56 12.657 3.221 19.53 4.882 0 0-6.976 13.718-10.696 25.11-3.72 11.393-8.835 26.97-11.16 32.783-2.325 5.812-10.23 18.6-12.322 22.32-2.093 3.72-4.123 7.672-4.123 7.672s-1.69-1.627-2.62-3.72-3.022-2.79-9.067-4.882c-6.045-2.093-13.02-4.65-13.02-4.65l-11.16 6.742-10.463 13.485s-1.162-1.395-.232-4.417c.93-3.023 2.79-12.555 2.79-12.555s2.274-4.066 4.946-9.271c2.237-4.356 4.752-9.51 6.446-13.746 3.72-9.3 7.673-20.46 8.37-23.483.698-3.023.233-6.51 3.953-19.298s6.975-25.574 6.975-25.574 13.338 3.83 31.853 8.602M455.81 469.36s7.672 18.368 10.927 25.576c2.102 4.651 22.32 36.037 22.32 36.037l-.232 8.835-13.718 9.3-6.277 20.227 9.067 20.46-14.182-9.532s-.938-1.97-2.63-5.427c-4.211-8.597-13.097-26.39-23.875-45.956-15.112-27.435-22.785-38.595-22.785-38.595s19.298-9.997 29.527-15.345c10.23-5.347 11.858-5.58 11.858-5.58M148.678 336.37c-6.035 19.612-7.44 37.665-7.44 37.665l-18.135 13.95c-9.765-8.37-21.158-25.575-21.158-25.575s4.883-41.385 29.993-79.98c20.924-32.16 45.802-48.127 45.802-48.127l-6.742-28.365c52.312-45.57 112.53-73.703 112.53-73.703 74.4 49.29 112.297 98.116 112.297 98.116-3.72 7.905-13.02 20.924-13.02 20.924s1.162 5.813 9.067 27.203 19.53 45.105 19.53 45.105c2.79 18.135 4.883 45.803 4.883 45.803s-20.227 9.532-34.875 16.507c0 0 1.627-14.183-13.485-31.155 0 0 2.074 24.517-5.326 39.07-.818 1.606-1.75 3.09-2.812 4.408 0 0-8.835-3.953-22.785-3.953s-26.273 7.208-26.273 7.208-1.162-23.25-13.95-36.968c0 0-1.55 7.756-4.026 15.317-1.359 4.149-2.996 8.237-4.808 10.955l-59.752-6.742s2.325-23.482-4.418-33.945c0 0-.642 2.678-2.25 6.773-2.493 6.357-7.31 16.131-15.652 24.615l-42.78-10.463s1.395-32.55 2.79-48.36 3.72-26.97 3.72-26.97-12.555 13.485-20.925 40.687" style="fill:#fff;fill-opacity:1;fill-rule:nonzero;stroke:none" transform="matrix(1.33333 0 0 -1.33333 -.667 1121.853)"></path><path d="M321.27 418.134c3.565-1.706 6.822-3.012 10.384-3.644 23.849-4.228 46.966 11.16 52.501 38.405 4.787 23.566-4.568 47.818-33.9 53.2-19.007 3.488-36.5-5.38-45.943-20.673l8.045-51.401s10.462-10.23 24.18-10.696c0 0-2.01-1.677-5.348-2.79-4.881-1.628-9.918-2.401-9.918-2.401M438.855 413.21l-11.72-19.877-16.43-3.1-35.34 17.825 30.38 51.925-6.045 2.79 3.875 14.415 45.88-23.25 4.185-15.655-8.508-14.428-7.922-3.862zm-32.696 14.008-8.164-14.2 16.12-8.525 8.175 14.195zm23.412 4.116 7.484 12.994-16.48 7.963-7.18-12.489z" style="fill:#feea13;fill-opacity:1;fill-rule:nonzero;stroke:none" transform="matrix(1.33333 0 0 -1.33333 -.667 1121.853)"></path><path d="m357.734 452.843-4.224-15.955-10.074-3.72-20.15 5.735-5.27 9.145 11.314 42.625 9.765 5.735 20.615-5.735 5.58-9.3-3.8-14.351-13.67 3.991 2.28 8.5-8.525 2.325-8.68-31.775 8.68-2.325 2.359 8.79z" style="fill:#231f20;fill-opacity:1;fill-rule:nonzero;stroke:none" transform="matrix(1.33333 0 0 -1.33333 -.667 1121.853)"></path><path d="M287.635 411.313s1.24 13.33 2.48 23.715 8.37 12.09 8.37 12.09l-9.61 67.89s-6.51-1.085-10.23 3.1c-2.77 3.117-2.48 8.99-2.48 8.99l-50.065-3.875s.31-6.51-2.325-10.075c-2.634-3.565-7.75-3.41-7.75-3.41l10.23-70.68s5.89.465 9.766-2.79c3.875-3.255 4.185-9.145 4.185-9.145l35.184 2.635-40.455-18.6-.62-4.496z" style="fill:#feea13;fill-opacity:1;fill-rule:nonzero;stroke:none" transform="matrix(1.33333 0 0 -1.33333 -.667 1121.853)" data-source="https://football-logos.cc"></path><path d="m257.45 465.235 3.06-21.682-15.034-1.395-8.07 54.252-8.516-.622 2.635 14.105 35.185 2.635 10.23-6.665 4.185-30.07-8.525-9.455zm8.796 13.658-3.41 19.375-9.947-.726 2.654-18.805z" style="fill:#231f20;fill-opacity:1;fill-rule:nonzero;stroke:none" transform="matrix(1.33333 0 0 -1.33333 -.667 1121.853)"></path><path d="m215.25 429.603-20.46 74.555-16.12 11.47-54.87-15.345-6.51-12.4-1.705-31 .729-.12 6.247 12.21 14.26-53.63-2.48-24.645 10.54 16.276 4.96-4.65-2.79-23.716 1.86 2.015 12.4 19.994 40.765 11.006 3.72-16.12 1.142.342z" style="fill:#feea13;fill-opacity:1;fill-rule:nonzero;stroke:none" transform="matrix(1.33333 0 0 -1.33333 -.667 1121.853)"></path><path d="m146.43 411.777 21.804 5.917-8.177 29.843 26.075-24.985 12.844 3.486v14.26l-9.61-2.79-22.786 22.94 6.045 24.18 7.905 2.325-.31 13.484-17.579-4.734-7.94-28.62-6.758 24.661-17.788-4.791.776-13.95 7.594 2.17 13.485-47.585-5.735-2.015z" style="fill:#231f20;fill-opacity:1;fill-rule:nonzero;stroke:none" transform="matrix(1.33333 0 0 -1.33333 -.667 1121.853)"></path><path d="M353.277 524.23c-26.505 3.953-40.687-7.44-40.687-7.44s9.3 27.436 15.112 46.733c5.813 19.297 10.695 42.082 10.695 42.082s5.116 9.068 5.116 9.766l.465-2.093s6.51-10.927 14.182-17.205l-5.115-69.518zM253.535 546.318l-16.973 66.495-23.714 35.805-.698 1.162s-1.162-30.922-1.162-35.572c0 0 2.324-19.298 3.952-30.225s3.023-41.85 3.023-41.85l36.021 2.721zM87.995 599.095l23.948-15.81 31.155-55.102.698-1.395c-18.515-4.773-31.853-8.602-31.853-8.602s-3.256 12.787-6.975 25.574c-3.72 12.788-3.255 16.275-3.953 19.298-.697 3.023-4.65 14.182-8.37 23.483-1.694 4.236-4.21 9.39-6.446 13.746zM443.952 474.94c-10.23 5.348-29.527 15.345-29.527 15.345s7.673 11.16 22.785 38.595c10.778 19.567 19.664 37.36 23.875 45.956l.072-2.943.465-47.663-16.74-48.36zM415.122 368.223l-26.97-40.92-21.855-4.417 1.628 30.224v1.628c15.112 16.972 13.485 31.155 13.485 31.155 14.648-6.975 34.875-16.507 34.875-16.507zM283.527 132.235s-60.217 28.133-112.53 73.703l6.743 28.365s-24.878 15.967-45.803 48.128c-25.11 38.594-29.992 79.98-29.992 79.98s11.393 17.204 21.158 25.574l18.135-13.95s1.405-18.053 7.44-37.665c8.37-27.202 20.925-40.687 20.925-40.687s-2.325 11.16-3.72 26.97-2.79 48.36-2.79 48.36l42.78 10.463c8.342-8.484 13.159-18.258 15.652-24.615l-1.237-1.193-13.718-26.505 33.945-134.152 40.92-60.45z" style="fill:#d0d6d7;fill-opacity:1;fill-rule:nonzero;stroke:none" transform="matrix(1.33333 0 0 -1.33333 -.667 1121.853)"></path><path d="M291.432 377.756 267.02 333.58l2.325-108.112-20.692 27.668-24.645 95.324-.233 1.628c6.743 10.463 4.418 33.945 4.418 33.945l59.752 6.742c1.812-2.718 3.449-6.806 4.808-10.955zM361.88 392.868l-31.155-51.615-5.348-35.34-17.205-25.11-11.393 82.304v1.396c12.788 13.718 13.95 36.968 13.95 36.968s12.324-7.208 26.273-7.208 22.785 3.953 22.785 3.953c1.063-1.318 1.994-2.802 2.812-4.407z" style="fill:#d0d6d7;fill-opacity:1;fill-rule:nonzero;stroke:none" transform="matrix(1.33333 0 0 -1.33333 -.667 1121.853)" data-source="https://football-logos.cc"></path><!-- source: https://football-logos.cc --></svg>