<svg xmlns="http://www.w3.org/2000/svg" viewBox="0 0 255 255.24"><!-- Source: https://football-logos.cc --><g transform="translate(27.438 -18.308)" data-source="https://football-logos.cc"><circle cx="100.062" cy="145.808" r="127.072" style="fill:#fff;fill-opacity:1;fill-rule:evenodd;stroke:#fff;stroke-width:.856328;stroke-dasharray:none;stroke-opacity:1;paint-order:markers stroke fill"></circle><path d="M377.953 69.195A482.35 482.35 0 0 0-94.04 452.143H81.594A312.137 316.683 0 0 1 377.61 234.86a312.137 316.683 0 0 1 .342 0 312.137 316.683 0 0 1 296.361 217.282h175.633A482.35 482.35 0 0 0 377.953 69.195m-479.35 428.662a482 482 0 0 0-2.304 27.858H66.857a312.137 316.683 0 0 1 3.477-27.858zm786.97 0a312.137 316.683 0 0 1 3.476 27.858h170.558a482 482 0 0 0-2.304-27.858zm173.706 85.038-170.787.64a312.137 316.683 0 0 1-4.035 27.893h172.11a482 482 0 0 0 2.712-28.533m-962.652.013a482 482 0 0 0 2.71 28.52H71.45a312.137 316.683 0 0 1-4.035-27.88zm187.057 74.24-176.086 1.272a482.35 482.35 0 0 0 470.355 375.47 482.35 482.35 0 0 0 470.35-375.443l-176.09-1.273a312.137 316.683 0 0 1-294.26 211.053 312.137 316.683 0 0 1-294.27-211.079" style="fill:#02944a;fill-opacity:1;stroke:none;stroke-width:5.00001;paint-order:stroke markers fill" transform="scale(.26458)"></path><g style="fill:#02944a;fill-opacity:1;stroke-width:2.79594"><path d="M377.75 17.88c1.45-4.01 4.09-7.95 8.27-9.44 5.9-2.08 12.19-.18 17.87 1.71 29.55 9.89 60.08 16.35 90.36 23.54 82.13 19.29 164.29 38.47 246.41 57.82 10.53 2.44 20.91 5.5 31.4 8.04 4.51.48 5.93-4.46 7.76-7.54 7.87-14.08 15.99-29.28 30.21-37.92 10.81-6.67 24.3-5.52 36.11-2.55 14.31 3.7 26.4 13.8 33.75 26.48 6.69 10.55 7.86 23.84 4.87 35.8-2.82 11.95-10.61 22.25-20.38 29.49-1.17.96-3.88 2.54-1.62 3.93 9.29 8.33 17.13 18.48 21.71 30.15 2.97 7.74 3.09 16.53.19 24.3-4.58 11.79-12.67 21.74-17.88 33.22-4.71 10.23-9.2 20.77-10.58 32.06-2.87 19.72 1.46 39.44 4.52 58.87.95 5.64 1.16 11.37 1.56 17.08 7.66-1.57 15.09-4.1 22.67-6.02 39.78-10.5 82.25-9.51 121.94.85 12.47 3.48 24.1 9.46 34.93 16.46 4.68 3.09 10.07 4.82 15.34 6.64 7.4 2.49 15.23.37 22.83.44 17.51-1.24 35.8.83 51.37 9.44 13.87 7.43 24.46 20.08 30.56 34.47 9.41 21.58 10.3 46.11 5.57 68.96-6.23 29.93-20.8 58.21-41.99 80.3-10.9 11.03-24.02 19.88-38.39 25.72-1.68.75-4.09 1.47-4.14 3.7-.55 11.78 3.84 22.94 7.07 34.06 4.67 15.77 10.47 31.46 11.2 48.05-.1 3.55 1.23 7.47-.5 10.76-.27 4.72.31 9.49-.48 14.18-2.1 12.53-6.02 24.63-9 36.96-3.01 12.19-3.21 25.08-.51 37.35 1.69 7.68 3.78 15.26 5.89 22.84 1.34 4.92 3.03 9.81 3.46 14.93.9 9.12-1.07 18.28-4.38 26.75-5.04 12.98-9.74 26.18-12.26 39.9-2.64 2.71-6.89 2.89-10.45 3.33-12.81 1.04-25.72 1.27-38.54.34-2.49-.35-2.25-3.46-2.36-5.3-.26-6.77 4.3-12.5 9.4-16.4 5.82-4.44 12.35-8.52 16.04-15.08 2.97-4.96 3.52-10.87 3.38-16.52-.07-23.26-2.9-46.52-8.84-69.01-5.04-19.76-13.33-38.51-22.63-56.59-7.44-14.33-15.52-28.35-24.53-41.75-11.56 13.58-16.59 31.23-19.76 48.44-2.94 15.81-2.51 31.94-2.84 47.95-.08 13.98-.26 27.95-.34 41.93-.17 12.04.75 24.4-2.9 36.07-1.61 5.1-4.27 10.42-9.22 12.98-5 2.49-10.87.98-16.04 2.73-3.15 1.27-3.15 5.23-2.55 8.04.79 4.79 3.07 10.23.21 14.76-2.92 4.38-8.62 5-13.39 5.63-11.96 1.15-24.6 2.49-36.03-2.12-2.68-1.23-6.38-2.63-6.52-6.09 1.28-7.12 7.94-11.02 12.66-15.77 10.66-10.37 22.15-20.47 29.18-33.81 3.78-6.89 5.94-14.49 8.17-21.98 7.19-24.75 9.83-50.78 7.87-76.47-1.15-18.71-6.46-36.79-10.83-54.91-3.74-14.97-7.18-30.01-10.05-45.17-2.03-11.82-4.46-23.62-8.39-34.98-3.75-11.3-9.75-22.42-19.58-29.54-9.34-6.76-21.6-8.12-32.7-5.99-15.44 2.92-29.26 10.86-42.54 18.9-9.72 5.68-19.37 11.5-29.25 16.9a118.9 118.9 0 0 1-43.07 12.86c-16.33 1.39-32.77.42-49.06-1.15-25.65-2.6-51.07-7.73-76.91-8.23-2.2.15-2.19 2.82-2.36 4.46-2.21 25.69-4.69 51.36-6.92 77.06-1.16 27.58-2.32 55.42 2.14 82.79 1.4 8.06 2.69 16.34 6.6 23.65 3.05 6.76 8.71 12.62 8.92 20.41.43 11.12-6.66 20.52-9.25 30.96-.8 8.34 4.01 15.89 4.8 24.06.08 3.69-2.91 6.48-6.07 7.85-9.29 4.5-19.87 3.64-29.87 3.68-7.73-.04-14.33 4.39-21.16 7.38-7.03 3.12-13.8 7.15-21.45 8.61-8.07 1.51-16.68.5-24.09-3.05-3.86-1.85-6.73-6.13-5.64-10.5 1.39-5.83 5.25-10.78 9.65-14.71 8.16-7.16 16.46-14.18 24.51-21.47 7.75-7.11 12.47-17.31 12.96-27.81.51-14.3-2.58-28.4-6.22-42.15-2.73-11.16-5.56-22.28-8.18-33.46-5.18-24.87-6.26-50.32-9.4-75.47-2.23-15.83-5.06-31.81-11.54-46.54-4.25-9.66-10.22-18.67-18.07-25.79-7.21-6.48-14.71-12.65-21.58-19.5-8.68-8.72-13.97-20.69-14.49-33-.39-11.39-.06-22.78.12-34.17.34-8.35-1.71-16.55-4.03-24.49-3.55-10.7-9.39-20.41-14.37-30.46-8.16-16.26-16.83-32.28-24.08-48.98-8.07-18.66-16.09-37.45-20.8-57.3-10.27.17-20.54 1.79-30.3 5.01-15.16 4.89-27.98 14.66-41.66 22.5-7.67 4.34-15.18 10.57-24.37 10.77-7.2-1.56-13.01-6.84-17.56-12.38-6.09-7.45-7.76-17.89-4.93-27.01 3.14-9.81 7.71-19.21 13.77-27.57 6.29-8.91 12.86-17.66 20.24-25.71 10.21-11.16 20.36-22.38 30.3-33.78.84-.67.89-1.62.6-2.59-4.7 6.3-10 12.34-16.62 16.66-2.21 1.51-5.18.39-6.48-1.76-4.12-6.16-3.25-13.98-2.65-20.97 1.66-17.08 11.06-31.89 16.57-47.81 1.94-7.29 1.69-14.92 2.52-22.35 3.34-2.45 8.57-1.65 11.49 1.23 5 4.62 5.64 11.96 9.96 17.05 3.2 4.44 10.89 2.86 13.17-1.77 2.08-4.15 1.37-8.92 1.93-13.37.26-2.05 1.71-4.15 3.89-4.4 6.42-.52 12.57 3.31 15.62 8.85 5.13 8.15 4.89 18.31 9.2 26.74 3.83 6.33 12 4.69 18.19 5.81 15.72 1.72 29.81 9.31 43.68 16.37 18.31 9.51 35.94 20.34 52.67 32.42 13.49 9.58 26.07 20.45 37.38 32.53 8.51 8.9 15.86 18.79 23.65 28.31 5.42 6.64 11.65 12.72 19.02 17.19 13.05 7.98 24.45 18.3 37.55 26.2 13.1 8.22 26.97 15.21 41.38 20.83 2.09.88 4.31 1.41 6.57 1.69 5.07-39.83 10.03-79.67 14.82-119.53.52-4.91 1.58-9.87.79-14.82-.76-5.65-3.63-10.95-7.91-14.71-5.69-5.06-13.11-7.76-20.56-8.88-14.96-2-30.04-2.87-45.11-3.52-11.6-1.09-23.51-2.48-34.05-7.81-13.43-6.52-23.66-18.2-30.73-31.15-9.77-17.73-14.89-37.48-19.99-56.93-2.77-11-6.35-21.83-11.28-32.06-1.66-3.44-4.4-6.43-7.95-7.94-10.01-4.63-21.25-4.59-32.03-5.29-11.05-.64-22.09-1.65-33.06-3.13-21.01-2.52-42.01-5.06-63.02-7.48-10.25-1.14-20.57-1.29-30.87-1-3.23.19-6.63-.93-8.66-3.55-3.2-4.11-3.54-9.6-3.55-14.61.22-8.24 2.06-16.42 4.95-24.12m214.27 66.09c2.15 12.29 5.78 24.28 10.16 35.94 4.17 11.17 9.33 22.45 18.31 30.61 6.93 6.56 15.92 10.19 24.83 13.18 13.42 4.55 27.51 7.25 41.69 7.58 5.73.11 11.45-1.1 16.65-3.51 13.12-5.93 25.5-13.33 38.35-19.79 9.15-4.77 18.42-9.49 28.42-12.22-1.77-4.44-3.55-8.98-3.65-13.83-.44-5.24 1.19-10.3 2.91-15.18-8.23-1.07-16.49-1.81-24.72-2.8-51.12-5.61-101.92-13.75-152.95-19.98m494.57 310.82c.87 3.1 2.59 5.85 3.86 8.79 7.32 16.68 8.19 35.47 5.76 53.32-2.76 18.82-6.16 37.54-9.66 56.23-2.58 14.29-3.62 28.8-4.73 43.26 1.19-.68 2.26-1.59 2.95-2.8 6.43-10.12 13.19-20.02 19.87-29.97 9.24-13.34 16.98-27.71 23.14-42.72 4.43-11.29 7.83-23.59 5.73-35.78-1.98-13.55-9.69-25.78-19.98-34.62-7.93-6.79-17.1-12.23-26.94-15.71" style="fill:#02944a;fill-opacity:1;stroke-width:5.93666" transform="matrix(.12602 0 0 .12633 7.322 81.751)"></path></g><path d="m6.775 72.813 15.397 28.9 4.505-5.674-3.652-6.536 4.03-5.073 4.028-5.072 7.193 2.076 4.506-5.673-31.636-8.453-2.186 2.753zm7.94 1.818 11.01 3.179-2.71 3.412-2.71 3.413zM162.298 42.846 135.302 60.79l6.022 3.894 6.09-4.225 5.384 3.482 5.385 3.482-1.356 7.287 6.022 3.894 5.292-31.98-2.922-1.89zm-1.029 7.998-2.075 11.153-3.623-2.343-3.622-2.342zM111 235.195l-8.47 29.783 6.79-.908 1.8-6.847 6.072-.813 6.072-.812 3.537 6.133 6.79-.908-16.002-26.51-3.294.441zm4.216 6.447 5.414 9.387-4.085.547-4.084.546zM158.326 216.236l9.827 29.363 5.091-4.584-2.38-6.667 4.552-4.1 4.552-4.098 6.382 3.064 5.091-4.584-28.176-12.842-2.47 2.224zm7.12 2.94 9.768 4.69-3.062 2.758-3.062 2.757zM31.325 50.17l5.389-3.338 6.43 10.378 4.293-17.022 7.39-4.579-4.592 15.776 20.442 7.81-7.47 4.628-14.259-6.65-1.888 6.358 4.61 7.44-5.388 3.34z" style="fill:#fff;fill-opacity:1;stroke:none;stroke-width:1.32292;paint-order:stroke markers fill"></path><path d="m126.273 232.81 5.88-2.809 5.41 11.325 6.292-16.915 8.065-3.852-6.459 15.608 20.016 10.27-8.15 3.893-13.829-8.392-2.64 6.286 3.878 8.12-5.88 2.808z" style="fill:#fff;fill-opacity:1;stroke:none;stroke-width:1.32291;paint-order:stroke markers fill"></path><path d="M328.588 104.28a44 44 0 0 0-6.57.585l-59.159 9.598 17.188 105.943 25.008-4.056-6.916-42.627c12.677-2.06 20.882-3.39 33.53-5.442 26.644-4.322 30.707-22.81 28.51-36.347-2.052-12.651-11.527-27.88-31.591-27.655m-12.465 20.822c11.535-.287 16.982 5.525 17.883 11.078 1.03 6.345-3.468 14.89-18.674 17.357l-19.943 3.234-2.266-13.958-2.264-13.961 19.942-3.235c1.9-.308 3.674-.475 5.322-.515" style="fill:#fff;fill-opacity:1;stroke:none;stroke-width:5.00001;paint-order:stroke markers fill" transform="scale(.26458)"></path><path d="m78.915 233.237-3.456 30.598 6.922.852 1.39-12.311c3.51.431 5.78.712 9.28 1.143 7.375.908 9.846-3.875 10.288-7.785.455-4.032-1.243-9.643-8.05-10.48zm6.32 6.18 5.52.68c4.208.518 5.546 2.913 5.339 4.745s-2.042 3.836-6.25 3.318l-5.52-.68.455-4.031zM103.632 26.66l6.967.119-.486 28.393-6.966-.119zM120.211 27.354l-1.214 4.793 9 2.28-5.76 22.735 3.365.853 3.366.852 5.76-22.734 9 2.28 1.215-4.793-12.366-3.133zM187.053 63.15l-4.123 3.173-2.182 11.815-11.98-.914-4.124 3.173 13.487 17.523 4.123-3.174-8.588-11.157 12.038.99 2.125-11.891 8.588 11.158 4.123-3.174zM169.196 205.433l4.416 2.75 11.832-2.092 3.339 11.542 4.416 2.75 11.69-18.768-4.416-2.75-7.444 11.95-3.288-11.622-11.882 2.173 7.444-11.951-4.416-2.75zM17.204 185.024l-6.68 15.924-17.256-.644 4.322 6.77 11.191-.052-4.758 10.13 4.322 6.77 6.68-15.924 17.256.643-4.322-6.77-11.191.052 4.758-10.129zM37.95 212.772l-27.228 14.37 5.572 4.586 19.838-11.28-7.249 21.639 5.572 4.585 8.86-29.485-2.683-2.208zM63.942 227.506c-6.023-2.639-16.005-3.78-20.474 6.42-1.3 2.981-.604 7.236 1.045 12.232l-5.372-2.354-2.012 4.593 13.82 6.054 2.012-4.592c-4.847-3.912-4.163-8.884-2.43-12.84 2.011-4.592 6.257-6.605 11.19-4.444s6.332 6.647 4.32 11.24c-1.732 3.954-4.924 7.828-11.086 6.917l-2.012 4.593 13.82 6.054 2.013-4.592-5.373-2.354c4.791-2.174 8.39-4.547 9.7-7.524 4.469-10.2-3.138-16.764-9.161-19.403" style="fill:#fff;fill-opacity:1;stroke:none;stroke-width:1.32292;paint-order:stroke markers fill"></path><text xml:space="preserve" x="71.661" y="219.782" style="font-weight:700;font-size:27.0412px;font-family:Symbol;-inkscape-font-specification:&quot;Symbol Bold&quot;;fill:#02944a;fill-opacity:1;stroke:none;stroke-width:1.32291;paint-order:stroke markers fill" transform="scale(1.02396 .9766)"><tspan x="71.661" y="219.782" style="font-style:normal;font-variant:normal;font-weight:700;font-stretch:normal;font-family:Arial;-inkscape-font-specification:&quot;Arial Bold&quot;;fill:#02944a;fill-opacity:1;stroke-width:1.32291">1971</tspan></text></g><!-- source: https://football-logos.cc --></svg>