<svg xmlns="http://www.w3.org/2000/svg" viewBox="115.73 19.45 562.24 755.9"><!-- Source: https://football-logos.cc --><path d="M5084.76 5310.93c-778.74-148.74-1481.53 18.98-2108.39 503.16-546.12-419.33-1228.33-669.29-2108.378-503.16C993.25 3394.27 1699.21 1710.2 2976.37 144.805 3963.57 1350.91 4934.95 3024.85 5084.76 5310.93" style="fill:#fff;fill-opacity:1;fill-rule:evenodd;stroke:none" transform="matrix(.13333 0 0 -.13333 0 794.667)" data-source="https://football-logos.cc"></path><path d="M5084.76 5310.93c-778.74-148.74-1481.53 18.98-2108.39 503.16-546.12-419.33-1228.33-669.29-2108.378-503.16C993.25 3394.27 1699.21 1710.2 2976.37 144.805 3963.57 1350.91 4934.95 3024.85 5084.76 5310.93M3110.1 1726.57v-29.81h-122.47l-3.11 13.85c21.4 25.82 74.27 75.7 74.27 111.16 0 15.96-4.88 24.64-17.66 26.59-15.73 2.39-25.53-12.75-28.74-18.57l-27.01 11.78c14.93 32.6 41.64 37.08 60.51 37.35 29.8.42 67.34-15.24 66.57-60.2-.58-33.55-42.95-70.99-68.19-92.15zm138.95 90.66c0 18.81-9.14 32.96-24.99 33.31-15.85.34-24.83-13.9-25.82-31.74-1.08-19.49 12.22-32.07 25.92-32.07 13.71 0 24.89 12.65 24.89 30.5m-21.28-54.63c-4.5-.89-9.73-1.31-15.54-1.31-19.1 0-34.7 5.22-46.83 15.64-12.09 10.43-18.16 23.84-18.16 40.15 0 18.58 7.38 33.51 22.09 44.86 14.7 11.31 34.21 16.98 58.55 16.98 22.97 0 41.39-5.63 55.25-16.85 13.86-11.27 20.76-26.16 20.76-44.73 0-52.19-60.46-99.65-90.62-120.58h-36.26c25.27 22.74 43.87 45.47 50.76 65.84m-337.44 54.63c0 18.81-9.13 32.96-24.99 33.31-15.85.34-24.83-13.9-25.82-31.74-1.07-19.49 12.23-32.07 25.93-32.07s24.88 12.65 24.88 30.5m-21.27-54.63c-4.51-.89-9.74-1.31-15.55-1.31-19.1 0-34.69 5.22-46.83 15.64-12.09 10.43-18.15 23.84-18.15 40.15 0 18.58 7.38 33.51 22.08 44.86 14.7 11.31 34.22 16.98 58.55 16.98 22.97 0 41.39-5.63 55.25-16.85 13.87-11.27 20.77-26.16 20.77-44.73 0-52.19-60.47-99.65-90.63-120.58h-36.25c25.27 22.74 43.86 45.47 50.76 65.84m-196.67-65.84v148.28h-46.12l19.35 30.31h81.82v-178.59Zm436.91-113.78V674.277c87.51 117.411 172.02 235.903 253.49 355.553v531.19c103.04-13.42 204.43-32.09 303.86-55.81 11.9 19.9 23.71 39.81 35.45 59.76-232.52 57.18-475.57 87.54-725.71 87.54-250.01 0-492.94-30.31-725.36-87.43 11.76-19.96 23.61-39.88 35.53-59.79 100.02 23.85 201.98 42.62 305.64 56.05v-533.66c80.75-118.504 164.53-235.977 251.28-352.508v907.808c44.08 1.94 88.36 3.1 132.91 3.1 44.56 0 88.83-1.16 132.91-3.1m-132.91 376.76c305.35 0 601.06-41.15 882.05-118.02 533.95 985.15 870.88 2047.8 983.22 3210.29-674.33-66.89-1301.6 96.85-1865.57 487.9-566.6-391.73-1187.68-554.78-1865.1-487.61 112.08-1164.76 448.12-2224.51 983.46-3210.49 280.97 76.83 576.64 117.93 881.94 117.93" style="fill:#2a83c8;fill-opacity:1;fill-rule:evenodd;stroke:none" transform="matrix(.13333 0 0 -.13333 0 794.667)"></path><path d="M1185.12 4979.25a8635 8635 0 0 1 23-196.39c563.08 155.18 1155.93 238.48 1768.27 238.48 612.26 0 1205.02-83.28 1768.03-238.43a8520 8520 0 0 1 23.08 196.06c-289.18-21.02-578.1-.52-861 67.04-334.66 79.92-645.75 222.07-930.46 413.5-282.96-189.83-591.02-331.83-923.27-412.12-285.17-68.93-576.08-89.41-867.65-68.14m2689.97-736.15 50.85-7.75 32.72-96.35 59.62 82.27 50.21-7.66-94.24-129.97-16.43-107.7-47.67 7.27 16.43 107.7zm-149.53 31.59c34.8-7.58 61.95-26.7 81.46-57.3 19.55-30.66 25.36-64.07 17.48-100.24-7.8-35.88-26.74-63.61-56.85-83.04-30.12-19.49-62.76-25.36-97.96-17.69-36.85 8.03-64.71 27.42-83.56 58.29-18.87 30.81-24.49 63.76-16.84 98.85 5.11 23.5 15.51 43.88 31.17 61.15 15.65 17.26 34.69 29.49 57.1 36.68 22.37 7.2 45.07 8.29 68 3.3m-10.42-45.71c-22.77 4.95-43.6 1.24-62.51-11.25-18.95-12.43-31.1-30.87-36.4-55.23-5.93-27.21-.85-50.85 15.22-70.89 12.47-15.68 28.48-25.62 48.1-29.9 22.19-4.83 42.82-.95 61.87 11.68 19.14 12.69 31.25 30.72 36.37 54.23 5.11 23.45 1.54 44.96-10.68 64.58-12.16 19.63-29.5 31.88-51.97 36.78m-371.23 79.75 180.25-18.22-25.31-250.36-48.15 4.87 20.78 205.74-83.75 8.47-20.8-205.75-48.33 4.89zm-260.15 15.04 181-7.7-10.68-251.4-48.37 2.06 8.79 206.61-84.11 3.57-8.78-206.61-48.54 2.07zm-119.35 1.61h47.52v-251.63h-47.52zm-208.62-5.66 39.07 1.7 105.56-248.09-232.74-8.49zm23.8-67.41-47.96-142.54 100.57 3.33zm-314.63 49.73 48.42 3.91 116.72-243.04-49.64-4-23.78 50.09-102.25-8.25-16.32-53.32-49.57-4zm29.92-64.53-26.51-88.77 66.69 5.39zm-294.82 29.54 50.21 7.7c27.18 4.18 47.14 4.64 59.9 1.46 12.78-3.17 23.54-9.8 32.2-19.98 8.64-10.13 14.17-23.05 16.56-38.69 2.67-17.36.33-32.49-6.97-45.37-7.29-12.93-18.41-22.79-33.25-29.67-8.71-4-25.13-7.88-49.25-11.58l16.17-105.32-47.38-7.27zm62.31-89.96 15.01 2.3c11.82 1.81 19.95 3.95 24.3 6.32 4.36 2.39 7.56 5.78 9.63 10.05 2.06 4.28 2.65 9.21 1.81 14.75-1.48 9.58-6.3 15.99-14.36 19.24-5.92 2.45-16.22 2.53-30.88.27l-13.33-2.04zm-269.67 51.75 47.6 9.68 145-227.3-48.8-9.92-29.62 46.88-100.52-20.44-9.81-54.9-48.74-9.91zm37.44-60.48-15.69-91.31 65.57 13.33zm-200.68 595.15c59.26 10.45 113.95-2.05 164.06-37.38 50.21-35.42 80.7-83.94 91.56-145.52 10.78-61.11-1.08-116.59-35.69-166.26-34.59-49.78-81.88-79.85-141.82-90.42-62.75-11.07-118.75 1.4-167.99 37.59-49.24 36.09-79.13 84.01-89.66 143.76-7.06 40.02-3.83 78.55 9.57 115.57 13.41 37.03 35.33 68.33 65.77 93.94 30.35 25.59 65.15 41.84 104.2 48.72m12.98-78.15c-38.76-6.83-68.95-25.97-90.51-57.62-21.68-31.57-28.84-68.19-21.53-109.68 8.17-46.33 31.24-80.03 69.21-101.08 29.55-16.52 60.94-21.81 94.36-15.92 37.79 6.67 67.55 25.94 89.26 57.91 21.79 32.1 29.16 68.05 22.11 108.07-7.05 39.93-26.39 71.28-58.07 94.14-31.58 22.88-66.56 30.93-104.83 24.18m354.52 131.71 78.9 6.9 123.73-286.83 73.5 304.09 77.73 6.8 108.4-417.31-77.72-6.8-68.91 263.51-66.71-275.37-71.05-6.22-112.34 259.71-22.97-271.55-78.63-6.87zm733.97 62c60.17 1.06 112.23-19.84 156.19-62.57 44.06-42.84 66.59-95.54 67.68-158.06 1.08-62.04-19.3-114.98-61.26-158.63-41.96-43.75-93.37-66.06-154.22-67.12-63.71-1.12-117.07 19.96-160.05 63.41-42.98 43.35-65 95.35-66.06 156.01-.71 40.63 8.5 78.19 27.53 112.65q28.545 51.705 79.65 82.5c33.98 20.53 70.9 31.12 110.54 31.81m.6-79.2c-39.35-.69-72.16-14.88-98.41-42.76-26.35-27.79-39.16-62.84-38.42-104.96.82-47.04 18.34-83.93 52.54-110.66 26.62-20.95 56.78-31.08 90.71-30.49 38.37.67 70.77 15.05 97.21 43.23 26.55 28.29 39.47 62.65 38.75 103.29-.7 40.54-14.91 74.52-42.62 102.06-27.62 27.54-60.9 40.96-99.76 40.29m374.54 59.83 77.25-5.4 162.43-291.8 19.52 279.07 80.69-5.64-29.66-424.12-77.54 5.42-162.2 290.89-19.45-278.19-80.69 5.64zm507-45.37 79.7-9.79-51.82-421.99-79.7 9.78zm332.32-52.67 80.83-14.26 87.24-447.1-82.87 14.61-17.52 92.05-170.68 30.09-49.42-80.23-82.76 14.59zm21.42-118.27-81.19-133.83 111.33-19.63zm-2949.87 73.02c47.63-348.05 115.97-686.57 204.19-1016.43 485.76 174.79 1009.36 270.26 1555.26 270.26 545.66 0 1069.01-95.39 1554.61-270.04 88.36 330.17 156.83 668.72 204.57 1016.28-560.01 155.16-1149.85 238.43-1759.18 238.43-609.42 0-1199.37-83.3-1759.45-238.5" style="fill:#2a83c8;fill-opacity:1;fill-rule:evenodd;stroke:none" transform="matrix(.13333 0 0 -.13333 0 794.667)" data-source="https://football-logos.cc"></path><path d="M3882.06 2703.29c-1.61-49.03-.08-144.43-112.73-185.66-3.58-93.6-61.01-107.98-111.69-115.6-20.05-77.99-80.53-97.85-149.27-91.86-23.04-46.81-74.48-39.62-106.86-39.31-22.4 97.81-90.82 148.33-161.12 142.21-25.43-2.21-74.79-29.2-98.62-46.69 22.94-14.17 60.36-14.51 88.97-11.86 18.35 1.7 21.67-12.44 14.54-25.87-30.4-4.2-68.1-.99-95.01 7.76-11.03 3.58-12.88-7.28-3.72-10.25 25.94-8.43 62.81-10.11 93.3-7.43-3.58-4.86-9.11-11.28-13.97-15.68-.96-.87-4.71-3.29-5.7-4.12-33.35-1.88-70.9 1.22-99.23 13.97-8.7 3.91-14.26-4.88-3.48-9.73 24.06-10.83 56.59-14.71 86.19-15.19-18.15-8.43-40.49-13.06-54.94-13.25-52.07-.66-95.32 30.11-128.72 63.29-26.79-4.26-61.16-9.83-84.43-10.56-163.02-5.12-247.53 71.84-354.08 168.92-74.48 67.87-123.84 127.49-231.42 152.44-52.53 12.19-117.16 10.7-208.86 8.33 44.45 33.83 68.39 69.14 82.33 104.14 23.24 58.35 34.26 116.47 100.43 152.03-40.79 9.46-114.87 11.82-204.13 2.33 122.95 115.92 78.66 257.44 240.76 298.88 123.96 31.69 221.26-56.18 292.12-75.08 18.34-4.89 21.13-2.45 28.06 15.84 31.46 82.89-51.11 255.12 20.18 343.84 57.47 71.5 105.7 114.5 150.66 175.74 57.93 78.91 129.88 176.57 202.82 289.22 59.61-126.21 47.74-313.59 23.71-517.09 11.19 10.02 22.22 20.28 32.98 30.77 89.53 86.98 179.03 200.73 256.41 313.16 14.25-103.59 18.23-213.5 7.12-310.73 85.39 27.68 177.89 77.48 263.3 130.45-14.5-135.7-47.85-275.84-112.96-392.54 79.23 26.09 156.83 57.3 226.82 96.05-29.86-186.82-155.89-346.88-264-440.4 90.09 3.19 186.53 33.2 268.74 63.22 21.9-49.53 18.11-135.78-20.8-185.3-.11-38.52-24.85-66.9-61.61-81.65.4-8.46-4.94-22.64-14.84-27.17 14.98-5.1 140.92 26.8 222.75 60.43m-1481.1 396.12c-23.74 1.58-48.71 10.31-74.8-4.16-13.43-7.45-23.53-30.12-23.73-46.98 13.46-2.38 34.88-3.92 52.23 4.77 7.79 3.89 5.55 17.44 5.94 26.16 6.53 10.11 25.52 10.7 40.36 20.21m21.33-270.1c-23.75 1.58-48.72 10.32-74.8-4.16-13.44-7.45-23.53-30.12-23.73-46.98 13.45-2.38 34.87-3.92 52.22 4.76 7.8 3.9 5.56 17.45 5.95 26.17 6.52 10.11 25.52 10.7 40.36 20.21m1302.99-303.9c-84.23-13.43-190.1-6.02-259.22 28.82l-12.36 6.23 12.46 24.72 12.36-6.24c49.25-24.82 120.16-34.37 186.06-31.69 41.83 1.68 94.98 4.42 129.08 32.14 16.61 13.52 29.01 32.8 34.64 59.2-89.65-25.94-186.53-56.74-280.52-45.11-62.43 7.73-115.73 46.91-193.08 83.68-39.26 18.67-83.37 31.26-127.47 23.55-54.33-9.49-98.2-40.75-131.14-84.21l-22.87-31.92-12.43 58.67c7.64 10.06 15.79 19.58 24.42 28.45-7.71-1.46-15.4-2.72-22.94-3.91l-31.99-5.07 3.51 45.57 21.9 3.29c80.44 12.1 171.59 44.24 252.5 87.82-80.92-21.5-165.2-29.49-250.73-27.61l-13.83.29.6 27.67 13.84-.3c121.86-2.67 241.12 15.19 351.29 65.2 32.52 25.23 64.97 53.31 94.31 82.24-116.42-55.47-242.73-76.13-375.13-73.23l-13.83.3.6 27.68 13.84-.31c156.01-3.41 303.19 26.67 435.06 110.74 30.37 35.67 56.92 73.32 78.97 114.16-139.84-96.03-296.75-133.21-471.99-129.36l-13.83.29.6 27.68 13.84-.3c186.71-4.1 351.42 39.44 496.67 154.82 7.46 17.96 14.1 36.55 19.89 55.83-90.75-37.2-185.44-72.78-280.37-97.3-142.16-36.71-286.41-53.15-435.6-68.66-57.9-6.02-118.2-60.22-129.85-117.44-24.53-120.43-9.97-222.68-162.71-247.27l-21.87-3.52-7.03 43.73 21.86 3.52c33.44 5.38 67.78 16.25 87.47 45.76 13.09 19.62 18.83 45.23 22.88 68.15 5.79 32.8 9.33 65.73 16 98.47 15.51 76.16 91.49 144.63 168.67 152.66 19.47 2.02 38.87 4.05 58.19 6.14 112.72 77.96 212.41 188.21 293.31 297.82l1.27 1.71c5.6 28.08 9.46 56.18 11.42 83.82-81.82-92.86-169.73-177.15-268.61-252.74l-10.99-8.4-16.81 21.99 10.99 8.4c106.92 81.74 200.78 173.8 288.03 276.01 1.93 40.34 2.58 80.42.32 121.27-61.89-82.86-127.79-161.9-203.05-233.04-33.28-31.91-67.64-62.73-102.73-93.32-62.51-54.5-129.02-97.42-203.24-134.13-42.77-21.15-73.69-58.8-79.01-106.97-3.39-30.69 4.21-72.03 8.4-102.88 5.34-39.27 12.03-90.24-1.22-128.24-16.95-48.63-77.45-68.84-118.77-36.13-52.31 41.4-111.32 84.4-181.57 80.42-19.19-1.09-37.77-5.49-55.61-12.13l-53.2-28.59c-51.15-27.48-60.43-79.63-80.25-129.39a265.4 265.4 0 0 0-20.92-41.57c40.2-.39 80.42-3.05 116.32-11.38 116.16-26.94 168.07-87.05 251.24-162.85 45.79-41.72 94.29-87.16 148.65-117.43 77.68-43.24 146.1-48.42 232.55-34.66-60.92 52.21-51.98 44.35-36.64 48.26 23.73 6.04 99.55-6.19 144.93-34.02l38.43 28.19c40.3 29.56 89.14 44.03 138.96 36.4 77.51-11.86 130.46-70.25 156.11-140.09 23.36 2.17 36.07 11.53 43.53 25.88-14.51 38.83-36.37 68.6-61.96 99.1-15.83 18.87-29.63 34.81-46.65 52.59 27.55 5.14 52.59 12.84 80.7 13.78 66.87 2.23 119.33-18.11 177.53-64.84l23.59 3.55c49.13 7.39 71.86 16.78 74.02 73.5zm-302.69-48.23c35.1-38.11 63.12-74.55 80.89-123.9 51.35-6.28 95.37 10.89 112.66 62.52-63.51 52.7-116.47 70.93-193.55 61.38m85.08 342.81c64.97-19.22 126.71-29.2 193.67-37.6l2.51-.31c18.1 26.93 24.28 62.79 21.2 98.75-98.96-32.35-175.24-44.49-277.51-42.66-42.81-34.61-93.65-66.23-147.61-92.83 81.4-8.68 158.4-88.05 232.28-103.45 35.45-7.39 85.69-16.97 85.67 35.57-60.5 32.88-142.17 62.22-205.05 76.52l-13.49 3.07 6.14 26.99 13.49-3.07c67.54-15.36 154.85-47.07 218.23-82.57 29.4 9.08 49.74 25.94 53.64 57.41-65.78 8.41-126.87 18.66-191.02 37.64l-13.27 3.93 7.85 26.54zm13.71 494.35c-76.99-48.16-156.02-90.5-239.24-127.63a684 684 0 0 0-21.12-35.28c67.55 12.03 134.42 27.22 200.85 47.67l25.93 46.49c12.45 22.31 23.61 45.27 33.58 68.75m-218.58-87.76c81.74 38.31 159.55 81.93 235.63 131.47 10.12 28.36 18.73 57.31 26.05 86.6-71.84-51.13-147.11-95.98-227.16-133.47-9.87-28.91-21.42-57.28-34.52-84.6m45.88 120.74c79.37 39.06 153.94 85.57 225.21 138.38 2.77 13.3 5.3 26.65 7.61 40.02-62.08-34.83-127.31-66.3-193.18-87.65l-20.4-6.61c-4.78-28.11-11.23-56.3-19.24-84.14m-45.06 3.8c-64.99-82.05-139.82-161.55-222.34-225.47 39.98 4.69 79.65 9.83 119.09 15.81l3.4 4.68c43.43 59.59 77.53 130.89 99.85 204.98m-271.53 83.48c-18.75-26.72-39.36-51.01-65.21-77.08l-9.74-9.83-19.66 19.49 9.75 9.82c39.13 39.48 65.41 74.33 92.27 121.09 2.94 26.24 5.83 54.31 8.25 83.37-30.72-50.25-68.53-99.33-106.7-139.63l-9.51-10.04-20.1 19.03 9.52 10.05c49.49 52.27 98.65 120.19 131.12 185.25 1.22 25.55 1.85 51.39 1.59 76.99-49.19-73.83-104.42-142.09-167.31-205.65l-9.73-9.84-19.68 19.47 9.74 9.83c70.92 71.69 131.86 149.46 185.33 234.62-1.91 31.83-5.54 62.76-11.46 91.73-49.53-72.62-101.1-143.57-153.24-214.6-45.94-62.59-103.06-116.59-151.84-177.28-48.1-59.86 4.34-188.6-3.98-286.97 18.31 27.01 44.12 48.94 74.79 64.11 70.78 35.01 134.12 75.81 193.76 127.79 9.41 8.21 18.77 16.42 28.08 24.67zm-648.13-489.74c21.59 7.91 44.05 13.06 67.28 14.37 82.72 4.7 149.65-40.91 211.56-89.91 17.38-13.76 42.52-3.93 49.47 15.99 18.64 53.47-17.83 156.78-11.01 220.87-3.5-9.38-12.53-16.03-34.99-14.04-47.59 4.19-101.68 38.47-145.55 58.1-48.25 21.58-96.45 34.86-149.15 21.38-34.2-8.74-60.88-22.99-81.49-52.15-20.52-29.02-34.05-68.97-48.54-101.59-8.09-18.2-16.65-35.38-26.15-51.72 41.68.68 83.82-1.64 118.59-9.7z" style="fill:#2a83c8;fill-opacity:1;fill-rule:evenodd;stroke:none" transform="matrix(.13333 0 0 -.13333 0 794.667)" data-source="https://football-logos.cc"></path><!-- source: https://football-logos.cc --></svg>