<svg xmlns="http://www.w3.org/2000/svg" viewBox="0.02 -0.1 586.84 467.08"><!-- Source: https://football-logos.cc --><path d="M238.414 210.754c-8.43 0-16.059 3.418-21.582 8.941s-8.941 13.153-8.941 21.582 3.418 16.059 8.941 21.582c5.523 5.524 13.152 8.938 21.582 8.938s16.059-3.414 21.582-8.938c5.524-5.523 8.942-13.156 8.942-21.582 0-8.43-3.418-16.058-8.942-21.582-5.523-5.523-13.152-8.941-21.582-8.941m-24.191 6.332c6.191-6.191 14.746-10.02 24.191-10.02s18 3.829 24.191 10.02c6.188 6.191 10.02 14.746 10.02 24.191 0 9.446-3.832 18-10.02 24.192-6.19 6.187-14.746 10.02-24.19 10.02-9.446 0-18-3.833-24.192-10.02-6.192-6.192-10.02-14.746-10.02-24.192s3.828-18 10.02-24.191m0 0" style="stroke:none;fill-rule:evenodd;fill:#fff;fill-opacity:1" data-source="https://football-logos.cc"></path><path d="M282.914 181.867c-8.43 0-16.059 3.418-21.582 8.942-5.523 5.523-8.941 13.152-8.941 21.582s3.418 16.058 8.941 21.582c5.523 5.523 13.152 8.941 21.582 8.941 8.426 0 16.059-3.418 21.582-8.941 5.524-5.524 8.938-13.153 8.938-21.582s-3.414-16.059-8.938-21.582c-5.523-5.524-13.156-8.942-21.582-8.942m-24.191 6.332c6.191-6.187 14.742-10.02 24.191-10.02 9.445 0 18 3.833 24.188 10.02 6.191 6.192 10.023 14.746 10.023 24.192s-3.832 18-10.023 24.191c-6.188 6.191-14.743 10.02-24.188 10.02-9.45 0-18-3.829-24.191-10.02-6.192-6.191-10.02-14.746-10.02-24.191 0-9.446 3.828-18 10.02-24.192m0 0" style="stroke:none;fill-rule:evenodd;fill:#fff;fill-opacity:1"></path><path d="M312.578 222.984c-8.426 0-16.058 3.418-21.582 8.942-5.523 5.523-8.937 13.152-8.937 21.582s3.414 16.058 8.937 21.582a30.43 30.43 0 0 0 21.582 8.937c8.43 0 16.059-3.414 21.582-8.937 5.524-5.524 8.942-13.156 8.942-21.582 0-8.43-3.418-16.059-8.942-21.582-5.523-5.524-13.152-8.942-21.582-8.942m-24.187 6.332c6.187-6.191 14.742-10.02 24.187-10.02 9.45 0 18 3.829 24.192 10.02 6.19 6.192 10.02 14.743 10.02 24.192 0 9.445-3.83 18-10.02 24.187-6.192 6.192-14.743 10.024-24.192 10.024-9.445 0-18-3.832-24.187-10.024-6.192-6.187-10.024-14.742-10.024-24.187 0-9.45 3.832-18 10.024-24.192m0 0" style="stroke:none;fill-rule:evenodd;fill:#fff;fill-opacity:1"></path><path d="M356.297 193.84a30.43 30.43 0 0 0-21.582 8.937 30.43 30.43 0 0 0-8.938 21.586 30.43 30.43 0 0 0 8.938 21.582 30.43 30.43 0 0 0 21.582 8.938c8.43 0 16.058-3.414 21.582-8.938 5.523-5.523 8.941-13.156 8.941-21.582 0-8.43-3.418-16.062-8.941-21.586s-13.152-8.937-21.582-8.937m-24.192 6.332c6.192-6.192 14.747-10.02 24.192-10.02 9.45 0 18 3.828 24.191 10.02 6.192 6.191 10.02 14.742 10.02 24.191 0 9.446-3.828 17.996-10.02 24.188-6.191 6.191-14.742 10.02-24.191 10.02-9.445 0-18-3.829-24.192-10.02-6.187-6.192-10.02-14.742-10.02-24.188 0-9.449 3.833-18 10.02-24.191m0 0" style="stroke:none;fill-rule:evenodd;fill:#fff;fill-opacity:1"></path><path d="m448.676.746 138.18 162.973-1.364 1.195c-33.457 29.305-52.273 65.262-57.52 102.531-5.488 38.996 3.876 79.457 26.872 115.274l1.453 2.261c-135.61 27.348-271.223 54.672-406.832 82.004A740623 740623 0 0 1 .02 303.54l1.316-1.242c28.277-26.688 47.7-58.555 54.078-95.969 5.793-33.98.836-72.578-18.004-116.07l-.894-2.055C173.664 58.762 310.805 29.31 447.96-.097Zm133.039 162.602L446.578 3.965 41.664 90.863c18.418 43.36 23.195 81.969 17.379 116.086-6.418 37.672-25.742 69.813-53.875 96.781L150.77 462.977l399.546-80.536c-22.43-36-31.484-76.457-25.988-115.5 5.293-37.613 24.074-73.89 57.387-103.593m0 0" style="stroke:none;fill-rule:evenodd;fill:#33ad58;fill-opacity:1"></path><path d="M350.492 151.09c-1.664.316-3.387-.336-5.164-1.75-.984-.785-1.574-1.445-2.973-1.426-.082-1.601.13-3.223 1.024-5.61.75-1.886.937-3.917-.692-5.59-.183-.187-.433-.155-.664.114-2.222 2.586-2.847 5.875-2.773 9.29-5.426.003-10.477-1.54-15.574-3.274-5.356-1.82-10.516-3.168-15.004-2.926-.379-5.07-.082-10.004 1.707-14.637-2.285-.187-4.027.188-4.758 2.684-.426 1.453-.11 5.8-.164 8.7-4.187.995-9.34.132-14.598-1.18-6.035-1.508-11.914-2.555-17.441-2.07-.04-1.575-.223-3.821-.04-5.442.247-2.168.364-4.133.138-6.598-.082-.937-.735-1.98-1.645-2.398-.984.355-1.32 1.964-1.508 3.293-.277 1.98-.363 4.238-.61 6.425-.233 2.094-1.8 3.793-4.3 3.73-1.164-.027-2.328-.355-3.465-.597 1.594-.914 2.914-1.871 2.926-3.172.016-1.285-1.004-2.261-2.289-3.129-.426-.285-.61.176-.758.77-1.336 5.3-9.418 3.828-16.246 3.031-3.059-.36-6.14-.476-9.21-.71-.372-2.223-.153-4.395.937-6.509 1.054-2.05 1.007-4.18.832-6.343-2.836.058-3.801 2.476-4.149 5.836-.273 2.68-.73 5.293-2.215 6.87-8.98-1.894-18.183-1.695-27.382-1.503-.692-2.578-.211-4.758.566-6.91.633-1.75 1.145-3.637 1.121-5.774-2.996-.574-4.18 2.227-4.617 5.653-.285 2.257-.27 4.57-1.18 6.218-.418.762-1.254 1.031-2.355 1.059-4.516.105-9.028-.328-13.52-1.25-2.215-.457-4.66-.461-7.234-.52-.453-2.57-.278-4.144 1.336-5.55 1.582-1.372 3.304-2.618 3.48-4.118-4.187.141-8.187.137-9.863-1.687 2.148-.656 3.32-2.473 4.168-4.938 1.035-3.011 2.414-5.879 5.574-6.265.024 2.09 0 4.14.012 6.226.004.582.844.512 1.48.2.63-.31.489-1.11.375-1.954-.12-.941-.203-1.918-.324-2.886-.133-1.051-.035-1.684.961-1.645.774.027 1.563.04 2.332.02 1.027-.024 1.645 1.093 1.8 2.277.157 1.18.165 2.309.165 3.5-.004 1.465.601 2.395 1.695 2.39 8.934-.046 17.906-.171 26.836-.117 1.598-1.89 2.047-4.332 2.645-6.87.742-3.157 2.234-6.548 5.562-6.075.473.07.906.266 1.188.547 1.308 1.297 1.718 3.184 3.418 2.64-.035 2.93-1.637 6.458-3.274 9.86 4.633.45 8.274 1.59 13.399 1.566 4.828-.023 6.738-2.16 9.304-8.101-1.773-.414-7.07 3.7-12.558 3.77-3.27.046-5.45-2.364-5.285-4.868.16-2.43 1.93-3.613 4.636-3.812 4.051-.297 8.43.636 13.133.285 2.227 1.703 3.613 7.058 4.75 12.8 9.137-.234 17.117 1.075 23.988 3.243 1.204-.473 1.817-2.375 2.188-4.88.242-1.648.418-3.76 1.055-4.882 5.07-.566 9.129.602 13.05 1.93 4.973 1.687 9.395 2.031 12.61 1.164 2.304 11.93 12.086 18.105 25.433 20.96 1.243.294 1.817-1.214 1.84-2.765.04-1.41-.039-2.172.004-3.582 4.938-2.617 9.813-1.734 14.645 1.61.343 1.156-.02 2.195-.532 2.683-.543.524-1.683.79-2.574 1.047-1.215.352-2.203 1.324-1.867 2.754 6.57 6.508 6.492 10.586 6.492 19.168m0 0" style="stroke:none;fill-rule:evenodd;fill:#fff;fill-opacity:1"></path><path d="m40.586 87.414 481.25.348V92l-482.742-.352Zm0 0" style="stroke:none;fill-rule:evenodd;fill:#33ad58;fill-opacity:1"></path><path d="m5532.969 832.852-4766.29-9.375" style="fill:none;stroke-width:28.346;stroke-linecap:butt;stroke-linejoin:miter;stroke:#33ad58;stroke-opacity:1;stroke-miterlimit:4" transform="matrix(.1 0 0 -.1 0 467)"></path><path d="M286.266 117.285c1.207-.52 2.78-.523 4.586-.605 1.601-.075 3.62-1.77 3.546-3.989-.015-.574-.105-1.14-.16-1.71 1.508.015 1.977.921 1.91 2.402-.093 2.074-.77 3.965-1.789 5.773-3.105.153-6.074.043-8.093-1.87M246.129 123.688c.008 1.058.012 2.117.02 3.171q2.429.032 4.859.063c.273-2.832-1.63-3.652-4.88-3.234m0 0" style="stroke:none;fill-rule:evenodd;fill:#2baa4d;fill-opacity:1"></path><path d="M180.258 141.418c.039 1.863-.953 3.516-1.301 5.328-.383 1.992-.562 4.035-.121 6.098-3.254.34-6.008-.164-8.176-1.668.559-6.465 4.05-9.363 9.598-9.758m0 0" style="stroke:none;fill-rule:evenodd;fill:#fff;fill-opacity:1" data-source="https://football-logos.cc"></path><path d="M345.64 160.602c.762-9.899-7.98-11.387-16.765-13.184-2.223-.453-4.445-.922-6.668-1.383-7.21-1.476-15.64-5.883-29.437-6.137.43 5.415-.075 10.012-3.254 9.434-.11-4.121.421-8.941-1.504-11.062-10.395-2.122-21.461-2.997-32.207-4.938.136 3.465-.532 7.195-1.282 10.691-.828 3.872-.812 9.094-.242 11.875 9.903-.12 18.887.551 25.535 3.25-.336 2.415-3.824 1.754-7.054 1.426-1.528-.156-3.29-.504-4.145.067.168 5.765-.254 9.687-4.66 9.672-.273 0-.234-.239-.266-.528-.168-1.586.239-3.36 1.282-5.387.754-1.468.933-3.207.406-5.289-9.465-.129-18.535-.625-25.39-3.14-.305-.11-.239-.48-.075-.73.836-1.262 3.02-1.165 5.215-1.067 1.851.078 3.746.266 5.207-.664.512-.324.652-.793.547-1.422-.617-3.758.273-7.879 1.222-12.117.41-1.844.668-3.856.407-6.63-22.098-2.628-41.41-3.722-59.078-3.128-3.325.113-8.82-.633-13.176-.102-4.196.512-7.266 2.098-7.848 6.028-.058.406.176.566.356.773.898 1.02 4.363 1.293 7.027 1.82 2.332.461 3.914 1.454 4.023 4.25.063 1.52-.73 2.918-1.543 4.34-.77 1.348-.695 2.614-.246 3.813 2.762 1.742 6.348 1.754 9.883 1.789 10.8.105 23.227-2.602 28.414 2.523.422.418-.043.528-.304.52-5.942-.227-12.239-.649-16.196.02-3.191.538-5.562 2.257-5.793 6.019-1.734-6.34-9.39-7.027-17.18-6.832-7.269.183-13.18 1.558-18.175 3.781.71 2.973.523 9.227.082 15.047-.281 3.746-.535 7.313-.04 10.715-1.956 2.316-6.554 1.336-12.91 1.707-.203 3.824-2.363 7.473-4.917 10.941-2.301 3.114-4.047 6.239-4.618 9.7.946.64 1.836.34 2.48-.165 1.118-.867.806-2.98 1.364-4.617.375-1.086.969-1.66 2.34-1.605.191-.016.207.234.14.61-.554 3.175.118 4.948 1.669 5.937 2.117 1.351 4.746 1.367 7.398 1.402 3.02.043 6.066.11 8.418 1.465.512.293.176.45-.203.469-7.14.343-12.445 3.402-16.832 7.734-.277.277-.473.187-.832.023-2.219-1.023-3.559-3.48-5.735-4.504-.5-.109-1-.222-1.503-.324-.985-.199-2.207-.152-3.465-.07-.336 4.172-2.473 7.273-4.84 10.387-2.75 3.62-3.73 7.03-3.25 10.632 3.738 1.418 8.14 1.774 12.746 1.762 5.394-.015 10.871-.332 16.184-.101 1.418-1.243 1.937-3.453 2.074-5.996.234-4.391 1.668-7.446 5.449-6.997.43.051.52.286.355.555-.988 1.61-1.605 4.098-1.964 6.332-.243 1.512-.707 2.977-1.098 4.453 1.758.48 4.207.22 6.789-.02 3.441-.312 7-.628 8.988 1.2.328.305.301.703.078 1.04-2.09 3.198-5.863 3.788-10 3.76-7.16-.695-14.265-1.187-20.328-1.343-2.832-.07-5.761.676-8.836 1.973a27.7 27.7 0 0 1-5.558 1.687c-.758-3.215-5.727-4.57-8.395-2.554-1.68 1.269-2.035 3.933-1.344 5.375 2.543 2.25 5.887 1.765 9.008 4.46.614.532.72 2.543-.894 3.782-.184.086-.461-.172-.774-.262-3.754-1.133-7.527-2.11-11.234-1.148-2.191.566-2.754 2.457-2.45 4.609 2.56.996 5.536.906 8.79.156 5.074-1.168 10.199-2.75 15.156-5.105.426 2.011-3.543 4.922-7.39 5.8-5.56 1.262-12.122 2.848-13.419 5.653l22.497-.094c-.063-4.953.8-8.945 3.234-11.3 2.855 1.53 6.305 2 9.918 1.89 4.23-.129 7.594.469 9.434 2.93-7.227.234-13.977.16-18.051-1.668 1.187 3.316-.121 4.937-1.508 6.504 3.059 1.148 6.488 1.605 10.25 1.707 7.414.203 15.844-.797 22.242-.04 0-1.894-.203-3.66-.328-5.246-.164-2.12-.496-4.554 2.094-4.675.386-.016.754.02 1.101.183.371.18.422.531.465.895.645 5.191.563 9.676-.078 13.195-.086.465-.336.547-.754.57-9.766.563-19.441-.289-29.133-.55-8.41-.227-16.351.12-21.61 3.601-3.823-4.344-11.577-4.176-18.116-.61-5.082 2.774-7.567 6.403-4.715 11.61.09.164.433.16.426.02-.094-2.063.96-3.52 2.625-4.72 5.164-3.722 14.824-4.245 21.386-1.42-2.12.96-4.738 1.48-7.62 1.624-5.368.274-11.052.098-12.915 3.844-.949 1.906-.793 3.82-.32 5.703 2.223 1.61 5.621 1.555 9.535 1.586 3.75.031 8.098-.324 11.262.062-.29-3.328-.313-6.382 1.508-7.605 1.02-.684 2.152-.664 3.324-.496.097 1.094.043 2.133-.551 2.926-1.137 1.527-1.918 2.5-1.059 5.097 4.868-.375 9.657-.27 14.207.567 4.594.843 8.864 1.21 13.032 1.101 1.16-1.683 1.48-5.066 1.566-9.234.102-4.957 1.192-8.785 6.426-8.64.21 3.1-.871 5.378-1.934 7.706-1.906 4.18-1.933 7.29-1.218 10.125 3.625.93 9.816-.398 16.105-.488 3.66-.05 6.168 1.402 6.344 3.82-27.395.907-54.473-.703-81.832-.281-.54 3.02-1.684 6.176-3.574 7.031-2.125.961-5.118-.156-7.75-2.074.289 1.707-.41 3.238-1.891 4.7-1.48 1.464-1.793 3.46-1.442 5.773.102.66.27.66.852.406 4.941-2.156 9.793-3.133 14.883-3.242 3.777-.082 7.344.336 10.074 1.8.344.18.23.31-.191.458-2.524.867-7.352 1.015-10.774 1.086-3.172.066-6.172.418-8.144 1.773.508 3.203 5.398 3.129 9.039 3.117 4.722-.015 10.246-.816 11.668 3.172.11.3-.09.328-.364.344-5.984.351-11.921-.016-17.851-.446-6.527-.312-12.262.332-15.125 3.243-.164.168-.14.394.14.425 3.915.473 7.91.184 11.997-.12 6.941-.52 14.668-1.641 17.75 2.663v.832c-3.102 3.192-9.176 3.829-15.786 3.754-4.554-.054-11.41-.222-13.628.11-2.973.445-4.157 1.601-3.934 3.418.406-.805 1.238-1.246 2.305-1.375 1.957-.235 3.863-.258 5.308.664.606.383.653 1.008.285 1.422-4.171 4.683-5.52 9.379-4.675 14.109 3.39.172 6.328.781 8.945 1.34 2.96.637 6.539.824 10.148.402-.125-3.312.164-6.34 1.204-7.238.832-.715 1.8-1.137 3.265-1.031.297.023.422.187.469.488.234 1.5-.156 3.45-.754 4.539-1.004 1.836-.754 3.332.613 4.68 5.403 1.07 13.418 2.078 16.223 2.156 6.453.184 10.637-1.379 11.164-6.75.031-.328.234-.29.488-.184 1.711.707 1.031 3.946 1.219 6.465l71.547-.039.02 3.149-110.547-.266c1.394 2.46 1.93 4.379 1.94 5.918.024 3.152-2.019 3.328-4.53 3.172-3.938-.246-9.996-4.203-16.266-7.969-.836-.504-1.793-.539-2.64.02-1.844 1.214-3.376 2.773-4.88 4.351-.94.98-1.32 1.879-.652 2.945 1.242.786 2.746 1.098 4.39 1.243 6.243.55 13.27.945 16.184 2.644 1.61.934 3.313 1.703 3.223 3.324-.086 1.59-1.312 2.567-3.078 2.704-2.195.167-9.914-1.856-13.637-2.32-3.547-.442-7.004-.52-8.156.628-.559.55-.434 1.277-.02 1.977 1.73 2.937 4.766 4.804 5.977 8.007 2.363.235 4.738.254 7.094-.039 1.43-.18 2.894-.941 2.808-2.175a2.85 2.85 0 0 0-.406-1.32c-.246-.391.188-.856.73-1.079 3.989-1.633 8.754-1.613 13.868-.754.683.117 1.16.594.719 1.09-.786.883-.653 1.676.078 2.402 1.941 1.93 5.273 2.254 8.57 2.36.816-2.043 1.402-4.563 1.281-6.953-.21-4.082-1.578-8.227-1.972-12.098a15.6 15.6 0 0 1 .101-3.719c5.3 0 6.445 3.606 6.324 8.008-.058 2.219-.367 4.57-.629 6.629-.441 3.457-.347 6.113.692 8.133q15.007.15 30.008.305c1.504-2.563 1.593-5.22 1.629-7.891.07-5.211.183-9.445 4.718-10.328.63-.121 1.317-.246 1.969-.14.48.077.41.273.43.792.093 2.414-.985 4.621-2.094 6.84-1.941 3.887-2.305 7.723-1.281 10.41l39.117.11c-.168-5.836-.695-12.055 3.437-13.864 1.016-.445 2.106-.668 2.196.406.203 2.36-.207 4.516-.864 6.118-1.234 2.863-1.082 5.199.926 7.078l85.88.304c.312-1.085.62-2.171.933-3.253q.262-2.99.531-5.977 2.076-.84 4.156-1.68l.477.48q-.359 2.463-.719 4.93-.034 2.725-.062 5.45l41.574-.082 1.586-1.528c.011-.394.02-.793.03-1.187l.946-.57c.328.246.656.496.985.742q-.119.332-.243.672c.012.363.028.722.04 1.086.433.246.863.496 1.292.742 10.098.164 20.196.324 30.293.488-24.203-4.121-47.183-9.309-68.757-15.898-2.024-.618-3.868-1.485-5.266-2.563-.207-.504.02-.684.508-.672q6.083.07 12.164.133c1.5-.918 2.258-2.883 2.562-5.48.23-2.305.817-4.348 2.45-5.633.3-.235.492-.09.636.144.95 1.551.61 3.063.149 4.543-.922 2.078-1.594 3.309.05 6.117 1.641 2.809 4.516 4.864 12.157 6.72 15.328 3.73 29.703 6.116 45.781 6.71 1.316.047 1.996-.734 2.195-1.809.668-3.57-1.324-8.425-2.754-12.972-.82-2.613-4.265-10.98-.05-11.387-22.618-4.27-45.235-8.55-67.852-12.808-1.238-.235-2.078-.028-2.828.03-2.254.177-4.48.376-5.469-1.394-.308-.496-.625-.992-.926-1.492-.128-.215-.093-.55.223-.613 1.375-.274 2.305-2.031 3.254-4.29.785-1.874 1.922-3.363 4.055-3.546.414-.035.558.09.597.449.2 1.691-.05 3.035-.687 4.004-.442.664-.856 1.383-.54 2.023.329.66.614 1.192 1.048 1.614 6.117-.172 12.714.48 19.777 2.175 5.832 1.399 11.488 2.383 17.16 2.684.973-.836 1.652-3.336 1.79-5.164.25-3.316.683-7.445 4.167-7.785.387-.04.5-.004.54.367.25 2.309-.419 4.734-1.243 7.258-.969 2.965-.68 4.965-.539 6.87 5.047.63 11.57 2.259 18.207 3.962 5.066 1.305 9.988 2.293 13.988 2.441-.257-2.11-2.425-3.058-4.332-3.082-3.675-.043-6.12-1.304-6.953-4.633-.078-.308.16-.414.527-.5 3.993-.925 7.133-2.367 8.274-4.816.52-1.113.867-2.5.875-4.047 0-.3-.211-.539-.512-.808-2.941-1.954-5.879-3.872-8.476-6.188-2.059-1.84-3.188-3.652-3.871-6.293-17.215-.043-32.586-2.086-41.77-9.726 6.14-.372 10.582-2.915 14.336-6.325.176-.16.36.016.371.313.2 5.515 5.738 8.074 9.379 8.633 7.902 1.21 13.691.906 19.289 2.152-.2-.598-.281-1.227-.14-1.91.163-.797.831-1.215 1.644-1.465 1.226-.371 2.516-.637 3.336-1.36.61-2.816-.649-4.18-3.496-4.68-1.848-.32-3.559-.651-4.29-1.968-.187-.332-.273-.707-.284-1.203-.008-.285.203-.43.546-.484 1.61-.258 3.239-.125 4.903.648 1.156.535 2.285.938 3.394 1.2.961.226 1.528-.122 1.93-.833.738-1.312.648-2.746-.426-4.21-.43-.583-1.101-.716-1.55-.368-.637.602-1.137 1.098-1.786 1.688-.629.574-1.445.898-2.152.55-.543-.265-1.277-.855-1.566-1.32a1.09 1.09 0 0 1 .265-1.426c.723-.574 1.668-1.011 2.578-1.504.43-.23.446-.523-.16-.68-3.312-.85-7.926-.94-10.351-1.863-1.98-.753-3.391-1.957-3.61-4.168-.035-.351.301-.351.54-.253 1.363.558 2.683.558 3.976.03 1.168-.476 1.898-1.609 2.48-2.917.543-1.223 1.157-2.438 2.133-3.438.383-.39.578-.168.73.328.458 1.465.59 2.957.59 4.45.008 3.496 1.73 4.64 4.188 4.757 1.004.047 2.008.043 3.012.063.07-3.902-2-7.129-4.473-10.246-2.137-2.695-3.594-5.652-3.602-9.293a37 37 0 0 1-4.918.039c-7.007 12.664-20.902 21.508-40.05 27.45-9.442 13.155-21.989 18.718-35.336 22.32-5.801 6.722-9.211 25.066-15.25 43.996-11.11-3.055-23.39-4.864-36.13-6.18 1.032-1.758 2.126-3.477 3.095-5.266 3-5.558 3.386-13.035 3.457-20.699.035-3.902 0-7.808 0-11.71-5.914-11.044-14.809-13.641-22.809-22.61-1.54-1.723-2.488-4.031-3.621-6.426-7.992-16.898-17.297-33.758-18.582-47.937-.7-7.7.062-14.508 2.195-20.208 2.875-7.675 6.422-14.992 11.914-21.511 7.524-8.39 15.145-16.742 22.567-25.168 1.39-1.578 3.55-2.602 5.207-3.903.468-2.437.043-4.757-.676-7.46-1.195-4.489-2.36-8.81.676-11.649 4.52 5.902 9.992 10.8 15.105 16.059 4.84 4.976 8.645 10.433 10.594 16.12 18.168-23.64 54.016-25.03 91.387-24.241M184.3 221.48c-5.523-5.523-8.937-13.152-8.937-21.582a30.43 30.43 0 0 1 8.938-21.582 30.43 30.43 0 0 1 21.586-8.937c6.699 0 12.89 2.156 17.926 5.816q1.95 1.421 3.656 3.121a30.43 30.43 0 0 1 8.937 21.582 30.5 30.5 0 0 1-2.09 11.13 30.6 30.6 0 0 1-6.847 10.452 30.43 30.43 0 0 1-21.508 8.942h-.074a30.4 30.4 0 0 1-17.801-5.723 30.7 30.7 0 0 1-3.785-3.219m24.466 12.508c8.297-.691 15.754-4.343 21.308-9.898a34.17 34.17 0 0 0 9.266-17.012c.496-2.312.754-4.715.754-7.18 0-9.445-3.828-18-10.02-24.187a34.087 34.087 0 0 0-24.187-10.02c-9.45 0-18 3.829-24.192 10.02-6.191 6.187-10.02 14.742-10.02 24.187 0 9.45 3.829 18 10.02 24.192a34.5 34.5 0 0 0 5.477 4.453 34.04 34.04 0 0 0 18.715 5.566q1.454 0 2.879-.12m0 0" style="stroke:none;fill-rule:evenodd;fill:#fff;fill-opacity:1"></path><path d="m137.344 337.16-3.914-.308 2.082-23.493c-1.02.782-2.332 1.528-3.934 2.254-1.601.727-3.035 1.254-4.289 1.575l.316-3.563q3.411-1.19 6.047-3.07 2.644-1.867 3.84-3.735l2.52.196Zm11.25-6.125 3.761.004q.26 2.531 1.504 3.754c.832.82 1.946 1.285 3.356 1.398q1.8.143 3.234-.535a6.5 6.5 0 0 0 2.406-1.906q.974-1.235 1.758-3.402c.524-1.442.848-2.93.985-4.461q.02-.242.043-.742c-.883 1.113-2.036 1.988-3.45 2.605a9.1 9.1 0 0 1-4.484.754q-3.942-.312-6.437-3.23c-1.657-1.938-2.36-4.387-2.098-7.333.27-3.046 1.437-5.418 3.504-7.128q3.091-2.551 7.39-2.22c2.063.165 3.907.837 5.532 2.028 1.62 1.184 2.785 2.777 3.5 4.797q1.077 3.023.586 8.547-.505 5.754-2.13 9.055c-1.081 2.21-2.554 3.832-4.402 4.882q-2.769 1.577-6.277 1.301c-2.492-.195-4.465-1.008-5.93-2.437-1.453-1.43-2.242-3.344-2.351-5.73m17.136-11.984q.281-3.166-1.332-5.16c-1.07-1.332-2.453-2.067-4.14-2.2-1.75-.136-3.32.407-4.715 1.641-1.398 1.234-2.191 2.918-2.379 5.043q-.252 2.86 1.406 4.79c1.11 1.288 2.567 2 4.368 2.144 1.808.14 3.343-.336 4.613-1.438q1.905-1.649 2.18-4.82m7.11 12.879 3.957-.196c.266 2.133.887 3.704 1.883 4.711q1.488 1.507 3.832 1.692c1.855.148 3.472-.332 4.84-1.434q2.045-1.651 2.285-4.316c.148-1.692-.313-3.133-1.395-4.332-1.074-1.188-2.515-1.856-4.332-2q-1.107-.088-2.8.195l.722-3.195c.258.05.473.082.629.093 1.676.133 3.207-.164 4.621-.875q2.108-1.067 2.336-3.617.176-2.021-1.164-3.469c-.89-.96-2.106-1.5-3.64-1.62-1.528-.122-2.833.234-3.93 1.062q-1.642 1.243-2.317 3.933l-3.855-.98c.699-2.434 1.953-4.27 3.77-5.5 1.812-1.23 3.984-1.742 6.503-1.543q2.604.204 4.703 1.434c1.407.812 2.438 1.859 3.102 3.129.672 1.277.941 2.593.824 3.957a6.2 6.2 0 0 1-1.418 3.441c-.836 1-2.008 1.762-3.508 2.277 1.848.551 3.23 1.52 4.16 2.895.926 1.367 1.301 3.027 1.13 4.965-.231 2.62-1.446 4.77-3.63 6.433q-3.286 2.495-7.933 2.125c-2.797-.218-5.047-1.191-6.754-2.91q-2.567-2.571-2.621-6.355m24.73 1.949 3.957-.195c.27 2.128.891 3.699 1.883 4.707.992 1.004 2.274 1.57 3.836 1.695 1.852.144 3.469-.332 4.836-1.438q2.05-1.651 2.285-4.316c.149-1.687-.312-3.133-1.394-4.328q-1.605-1.788-4.328-2.004c-.743-.059-1.672.012-2.801.195l.722-3.191c.258.047.47.078.625.09 1.676.133 3.211-.164 4.625-.875q2.11-1.068 2.332-3.614c.122-1.351-.27-2.507-1.16-3.468q-1.34-1.445-3.64-1.625-2.29-.18-3.93 1.062-1.647 1.242-2.32 3.934l-3.856-.977c.703-2.437 1.953-4.273 3.774-5.504 1.808-1.226 3.98-1.738 6.5-1.543q2.603.205 4.703 1.434 2.109 1.225 3.105 3.129 1.003 1.914.82 3.957a6.13 6.13 0 0 1-1.417 3.441q-1.25 1.505-3.508 2.278 2.77.832 4.164 2.894c.922 1.367 1.297 3.031 1.129 4.965-.235 2.621-1.446 4.77-3.633 6.434q-3.287 2.494-7.934 2.125c-2.793-.22-5.043-1.192-6.75-2.907-1.715-1.718-2.586-3.836-2.625-6.355m149.676-32.059h3.215v3.211h-3.215Zm3.375 23.602c-.418.144-.508.453-.144.57 1.222.387 2.273.903 3.152 1.668 1.32 1.145 2.992 1.516 4.816 1.504.418-1.648-.16-2.43-1.117-2.91-2.195-1.098-4.433-1.613-6.707-.832m-244.117 5.332h9.738c.871 3.61-.707 6.351-3.8 6.324-2.958-.027-6.087-1.8-5.938-6.324m-13.14 12.808c-1.212.692.241 3.2 1.238 3.192.757-.004 1.507-.484 2.277-1.23.25-.243.144-.473-.195-.715-1.16-.809-2.32-1.82-3.32-1.247m21.234-41.675h3.312v3.23h-3.312Zm6.535-15.953c-.324-1.192.87-1.63 2.715-1.72.632-.03 1.265-.042 1.902-.062-.41-2.203.707-3.148 3.008-3.183.176 0 .328.238.281.433-.941 4.043-3.73 5.344-7.906 4.532m22.394-1.739c-.18.758-.55 1.461-1.156 2.114-.226.242-.43.503-.457.906-.039.527.41.402.77.363.656-.066 1.3-.137 1.953-.262 1.883-.367 2.484-1.312 2.175-3.082-1.05.008-2.234-.046-3.285-.039m-3.234-14.5c4.262-.53 5.422 2.649 4.8 7.973-1.788.293-3.644.082-4.35-3.05-.364-1.606-.5-3.24-.45-4.923m4.539-20.968c.027-1.125.727-1.618 1.898-1.504 1.125.109 2.25.203 3.375.304.45-.062.895-.12 1.344-.183-.187 2.629-2.398 3.414-5.734 3.336-.55-.016-.844-.13-.832-.57.012-.47-.063-.919-.051-1.383m-14.203-19.133c-.016 1.11-.027 2.222-.043 3.332q2.42-.02 4.84-.04c.41-3.238-1.844-3.64-4.797-3.292m4.824-3.125c-.418-2.192.563-3.297 3.18-3.13.453.028.867-.058 1.25-.226.183-.074.414.254.328.461-.922 2.156-2.371 3.328-4.758 2.895m6.461-4.797c.129-1.293 1.254-1.418 2.399-1.484 1.23-.075 3.19.046 3.734-.286.703 1.543-1.242 3.215-2.758 3.274-1.492.058-2.594-.453-3.375-1.504m1.531 9.344c-.093.308.266.578.47.574.76-.008 4.124 1.133 6.253 1.297 2.582.199 4.55-.797 4.555-3.164 0-.18-.192-.22-.278-.176-.906.473-3.027.23-4.543.148-2.672-.144-5.761-.972-6.457 1.32m17.739-15.895c1.824-.973 3.554.281 3.496 2.48-.047 1.899-1.825 3.942-3.555 2.36zm-9.786-14.312h3.293v3.132h-3.293Zm-1.16-5.621c-.332.464-.43.875-.062 1.32 1.457 1.773 3.527 2.394 5.734 2.36 3.867-.063 7.738-2.528 8.45-6.13-5.673-.043-11.942-.629-14.122 2.45m18.64-28.008c1.25.004 2.38.308 3.15 1.222.386.457.324.922.081 1.258-.668.934-2.062 1.336-3.191 1.363-1.129.028-1.371-.367-1.18-1.199.215-.933.63-1.781 1.14-2.644m152.56-17.13c-.211-.538.16-.714.804-.78 1.262-.133 1.977.433 1.676 1.046-.84 1.711-2.203 3.028-3.965 3.942-.555.289-.918.004-.558-.598.515-.867 1.261-1.578 1.89-2.37.274-.4.324-.806.152-1.24m-104.145-15.077c2.543.168 3.727 2.078 3.09 6.14-.61 3.895-1.75 7.258-4.676 8.54-.617-2.653-.281-5.63.57-8.7.536-1.937 1.078-3.867 1.016-5.98m0 0" style="stroke:none;fill-rule:evenodd;fill:#33ad58;fill-opacity:1"></path><path d="M230.469 285.695c-.48.047-.23.211.066.325 2.824 1.066 4.598 2.402 4.39 4.21-.187 1.63-.304 3.313-.241 5.028 3.976 2.949 9.777 5.12 16.004 6.57 10.671 2.485 23.257 3.95 32.625 6.54-3.325.593-6.965 1.312-8.278 2.976.781 1.281 2.828 1.672 5.09 1.66 4.473-.031 7.984-1.984 10.977-4.734-.762-1.473.054-2.985 2.18-4.422 4.261-2.887 9.187-4.828 14.085-6.801-18.414-3.121-36.777-9.336-57.512-11.45-6.058-.613-12.453-.605-19.386.098M243.8 339.54c2.554-1.184 3.988.387 5.062 2.379 2.399 4.437 3.192 9.855 2.871 15.98-4.238-.804-8.906-.996-13.793-.875-.773-3.476.985-6.511 3.63-9.394 2.003-2.188 3.32-4.652 2.23-8.09m3.976-21.816c-.14.343-.086.785-.254 1.117-.496.969-1.523 1.7-2.886 2.277.12 2.883 2.55 5.567 5.183 8.235 3.34 2.687 5.899 5.847 5.875 10.57 0 .144.293.418.368.242.37-.894 1.69-1.723 2.335-.566 1.157 2.054.43 6.757 1.73 11.414.157.55.4.695.876.449 2.367-1.223 4.535-5.672 4.7-9.172.273-5.93.108-15.45.081-23.176-.008-2.11.485-4.129 1.383-6.02-2.5.227-5.027.02-7.582-.507-3.379-.695-6.356-.25-8.652 2.094.73.14 1.464.285 2.195.425 1.426 1.024 1.543 3.036 1.547 5.31a7 7 0 0 0 1.097 3.82c-1.07.312-2.562-.868-3.128-2.825-.48-1.656-1.75-3.61-2.84-3.625-.676-.008-1.352-.07-2.028-.062m-22.644-33.633c.707 1.848-1.625 2.637-4.738 1.566-1.13-.32-2.192-.707-3.051-1.3-.153-1.485.914-1.97 2.277-1.993 2.356-.043 4.133.59 5.512 1.727M77.53 334.21c.082-.347.43-.151.754 0 2.3 1.06 4.14 3.095 4.086 4.9-.023.788-.453 1.683-.937 2.378-.297.434-.891.469-1.38.477-1.433.031-2.831-.313-3.296-1.371-.711-1.633.281-4.25.773-6.383m0 0" style="stroke:none;fill-rule:evenodd;fill:#fff;fill-opacity:1"></path><path d="M356.852 316.414c.683 2.64 1.812 4.453 3.87 6.293 2.598 2.316 5.536 4.234 8.477 6.188.301.27.516.507.512.808-.008 1.547-.356 2.934-.875 4.047-1.14 2.45-4.281 3.89-8.274 4.816-.367.086-.605.192-.527.5.832 3.329 3.277 4.59 6.953 4.633 1.907.024 4.075.973 4.332 3.082-4-.148-8.922-1.136-13.988-2.441-6.637-1.703-13.16-3.332-18.207-3.961-.14-1.906-.43-3.906.54-6.871.823-2.524 1.491-4.95 1.241-7.258-.039-.371-.152-.406-.539-.367-3.484.34-3.918 4.469-4.168 7.785-.137 1.828-.816 4.328-1.789 5.164-5.672-.3-11.328-1.285-17.16-2.684-7.062-1.695-13.66-2.347-19.777-2.175-.434-.422-.72-.953-1.047-1.614-.317-.64.097-1.359.539-2.023.637-.969.887-2.313.687-4.004-.039-.36-.183-.484-.597-.45-2.133.184-3.27 1.673-4.055 3.548-.95 2.257-1.879 4.015-3.254 4.289-.316.062-.351.398-.223.613.301.5.618.996.926 1.492.988 1.77 3.215 1.57 5.469 1.395.75-.059 1.59-.266 2.828-.031 22.617 4.257 45.234 8.539 67.852 12.808-4.215.406-.77 8.774.05 11.387 1.43 4.547 3.422 9.402 2.754 12.972-.199 1.075-.879 1.856-2.195 1.81-16.078-.595-30.453-2.981-45.781-6.712-7.64-1.855-10.516-3.91-12.156-6.719-1.645-2.808-.973-4.039-.051-6.117.46-1.48.8-2.992-.149-4.543-.144-.234-.336-.379-.636-.144-1.633 1.285-2.22 3.328-2.45 5.632-.304 2.598-1.062 4.563-2.562 5.481l-12.164-.133c-.488-.012-.715.168-.508.672 1.398 1.078 3.242 1.945 5.266 2.563 21.574 6.59 44.554 11.777 68.757 15.898l-30.293-.488-1.293-.743-.039-1.085.243-.672-.985-.743-.945.57-.031 1.188-1.586 1.528-41.574.082.062-5.45.719-4.93-.477-.48-4.156 1.68-.531 5.977-.934 3.253-85.879-.304c-2.008-1.88-2.16-4.215-.926-7.078.657-1.602 1.067-3.758.864-6.118-.09-1.074-1.18-.851-2.196-.406-4.132 1.809-3.605 8.028-3.437 13.863l-39.117-.109c-1.024-2.687-.66-6.523 1.281-10.41 1.11-2.219 2.187-4.426 2.094-6.84-.02-.52.05-.715-.43-.793-.652-.105-1.34.02-1.969.14-4.535.884-4.648 5.118-4.718 10.329-.036 2.672-.125 5.328-1.63 7.89l-30.007-.304c-1.04-2.02-1.133-4.676-.692-8.133.262-2.059.57-4.41.63-6.629.12-4.402-1.024-8.008-6.325-8.008a15.6 15.6 0 0 0-.101 3.72c.394 3.87 1.761 8.015 1.972 12.097.121 2.39-.465 4.91-1.281 6.953-3.297-.106-6.629-.43-8.57-2.36-.73-.726-.864-1.52-.079-2.402.442-.496-.035-.973-.718-1.09-5.114-.86-9.88-.879-13.867.754-.543.223-.977.688-.73 1.078.241.387.37.836.405 1.32.086 1.235-1.379 1.997-2.808 2.176-2.356.293-4.73.274-7.094.04-1.21-3.204-4.246-5.07-5.977-8.008-.414-.7-.539-1.426.02-1.977 1.152-1.148 4.61-1.07 8.156-.629 3.723.465 11.442 2.488 13.637 2.32 1.766-.136 2.992-1.113 3.078-2.703.09-1.62-1.613-2.39-3.223-3.324-2.914-1.7-9.941-2.094-16.183-2.644-1.645-.145-3.149-.457-4.39-1.243-.669-1.066-.29-1.964.652-2.945 1.503-1.578 3.035-3.137 4.878-4.351.848-.559 1.805-.524 2.641-.02 6.27 3.766 12.328 7.723 16.266 7.969 2.511.156 4.554-.02 4.53-3.172-.01-1.54-.546-3.457-1.94-5.918l110.546.266-.02-3.149-71.546.04c-.187-2.52.492-5.759-1.219-6.466-.254-.105-.457-.144-.488.184-.527 5.371-4.711 6.934-11.164 6.75-2.805-.078-10.82-1.086-16.223-2.156-1.367-1.348-1.617-2.844-.613-4.68.598-1.09.988-3.04.754-4.54-.047-.3-.172-.464-.469-.487-1.465-.106-2.433.316-3.266 1.03-1.039.9-1.328 3.927-1.203 7.24-3.609.421-7.187.234-10.148-.403-2.617-.559-5.555-1.168-8.945-1.34-.844-4.73.504-9.426 4.675-14.11.368-.413.32-1.038-.285-1.421-1.445-.922-3.351-.899-5.308-.664-1.067.129-1.899.57-2.305 1.375-.223-1.817.96-2.973 3.934-3.418 2.218-.332 9.074-.164 13.628-.11 6.61.075 12.684-.562 15.786-3.754v-.832c-3.082-4.304-10.809-3.183-17.75-2.664-4.086.305-8.082.594-11.996.121-.282-.03-.305-.257-.141-.425 2.863-2.91 8.598-3.555 15.125-3.243 5.93.43 11.867.797 17.851.446.274-.016.473-.043.364-.344-1.422-3.988-6.946-3.187-11.668-3.172-3.64.012-8.531.086-9.04-3.117 1.973-1.356 4.973-1.707 8.145-1.773 3.422-.07 8.25-.22 10.774-1.086.422-.149.535-.278.191-.457-2.73-1.465-6.297-1.883-10.074-1.801-5.09.11-9.942 1.086-14.883 3.242-.582.254-.75.254-.852-.406-.351-2.313-.039-4.309 1.442-5.774 1.48-1.46 2.18-2.992 1.89-4.699 2.633 1.918 5.626 3.035 7.75 2.074 1.891-.855 3.036-4.011 3.575-7.031 27.36-.422 54.437 1.188 81.832.281-.176-2.418-2.684-3.87-6.344-3.82-6.289.09-12.48 1.418-16.105.488-.715-2.836-.688-5.945 1.218-10.125 1.063-2.328 2.145-4.605 1.934-7.707-5.234-.144-6.324 3.684-6.426 8.64-.086 4.169-.406 7.552-1.566 9.235-4.168.11-8.438-.258-13.032-1.101-4.55-.836-9.34-.942-14.207-.567-.859-2.597-.078-3.57 1.059-5.097.594-.793.648-1.832.55-2.926-1.171-.168-2.304-.188-3.323.496-1.82 1.223-1.797 4.277-1.508 7.605-3.164-.386-7.512-.03-11.262-.062-3.914-.031-7.312.023-9.535-1.586-.473-1.883-.629-3.797.32-5.703 1.864-3.746 7.547-3.57 12.914-3.844 2.883-.144 5.5-.664 7.621-1.625-6.562-2.824-16.222-2.3-21.386 1.422-1.664 1.2-2.72 2.656-2.625 4.719.007.14-.336.144-.426-.02-2.852-5.207-.367-8.836 4.715-11.61 6.539-3.566 14.293-3.734 18.117.61 5.258-3.48 13.2-3.828 21.61-3.601 9.69.261 19.366 1.113 29.132.55.418-.023.668-.105.754-.57.64-3.52.723-8.004.078-13.195-.043-.364-.094-.715-.465-.895-.347-.164-.715-.199-1.101-.183-2.59.12-2.258 2.554-2.094 4.675.125 1.586.328 3.352.328 5.247-6.398-.758-14.828.242-22.242.039-3.762-.102-7.191-.559-10.25-1.707 1.387-1.567 2.695-3.188 1.508-6.504 4.074 1.828 10.824 1.902 18.05 1.668-1.84-2.461-5.203-3.059-9.433-2.93-3.613.11-7.063-.36-9.918-1.89-2.434 2.355-3.297 6.347-3.234 11.3l-22.497.094c1.297-2.805 7.86-4.39 13.418-5.653 3.848-.878 7.817-3.789 7.391-5.8-4.957 2.355-10.082 3.937-15.156 5.105-3.254.75-6.23.84-8.79-.156-.304-2.152.259-4.043 2.45-4.61 3.707-.96 7.48.016 11.234 1.149.313.09.59.348.774.262 1.613-1.239 1.508-3.25.894-3.782-3.12-2.695-6.465-2.21-9.007-4.46-.692-1.442-.336-4.106 1.343-5.375 2.668-2.016 7.637-.66 8.395 2.554a27.7 27.7 0 0 0 5.558-1.687c3.075-1.297 6.004-2.043 8.836-1.973 6.063.156 13.168.648 20.328 1.344 4.137.027 7.91-.563 10-3.762.223-.336.25-.734-.078-1.039-1.988-1.828-5.547-1.512-8.988-1.2-2.582.24-5.031.5-6.789.02.39-1.476.855-2.941 1.098-4.453.359-2.234.976-4.722 1.964-6.332.165-.27.075-.504-.355-.555-3.781-.449-5.215 2.606-5.45 6.997-.136 2.543-.655 4.753-2.073 5.996-5.313-.23-10.79.086-16.184.101-4.606.012-9.008-.344-12.746-1.762-.48-3.601.5-7.011 3.25-10.632 2.367-3.114 4.504-6.215 4.84-10.387 1.258-.082 2.48-.129 3.465.07.503.102 1.003.215 1.503.325 2.176 1.023 3.516 3.48 5.735 4.503.36.164.555.254.832-.023 4.387-4.332 9.691-7.39 16.832-7.734.379-.02.715-.176.203-.47-2.352-1.355-5.398-1.421-8.418-1.464-2.652-.035-5.281-.05-7.398-1.402-1.551-.989-2.223-2.762-1.668-5.938.066-.375.05-.625-.141-.61-1.371-.054-1.965.52-2.34 1.606-.558 1.637-.246 3.75-1.363 4.617-.645.504-1.535.805-2.48.165.57-3.461 2.316-6.586 4.617-9.7 2.554-3.468 4.714-7.117 4.918-10.941 6.355-.371 10.953.61 12.91-1.707-.496-3.403-.242-6.969.039-10.715.441-5.82.629-12.074-.082-15.047 4.996-2.223 10.906-3.598 18.176-3.781 7.789-.195 15.445.492 17.18 6.832.23-3.762 2.6-5.48 5.792-6.02 3.957-.668 10.254-.246 16.196-.02.261.009.726-.1.304-.519-5.187-5.125-17.613-2.418-28.414-2.523-3.535-.035-7.12-.047-9.883-1.79-.449-1.198-.523-2.464.246-3.812.813-1.422 1.606-2.82 1.543-4.34-.109-2.796-1.691-3.789-4.023-4.25-2.664-.527-6.129-.8-7.027-1.82-.18-.207-.414-.367-.356-.773.582-3.93 3.653-5.516 7.848-6.028 4.355-.53 9.851.215 13.176.102 17.668-.594 36.98.5 59.078 3.129.261 2.773.004 4.785-.407 6.629-.949 4.238-1.84 8.36-1.222 12.117.105.629-.035 1.098-.547 1.422-1.461.93-3.356.742-5.207.664-2.195-.098-4.379-.195-5.215 1.066-.164.25-.23.621.074.73 6.856 2.516 15.926 3.012 25.39 3.141.528 2.082.349 3.82-.405 5.29-1.043 2.027-1.45 3.8-1.282 5.386.032.29-.007.528.266.528 4.406.015 4.828-3.907 4.66-9.672.856-.57 2.617-.223 4.145-.067 3.23.328 6.718.988 7.054-1.426-6.648-2.699-15.632-3.37-25.535-3.25-.57-2.78-.586-8.003.242-11.875.75-3.496 1.418-7.226 1.282-10.691 10.746 1.941 21.812 2.816 32.207 4.938 1.925 2.12 1.394 6.94 1.504 11.062 3.18.578 3.683-4.02 3.254-9.434 13.796.254 22.226 4.66 29.437 6.137 2.223.461 4.445.93 6.668 1.383 8.785 1.797 17.527 3.285 16.766 13.184-37.371-.79-73.22.601-91.387 24.242-1.95-5.688-5.754-11.145-10.594-16.121-5.113-5.258-10.586-10.157-15.105-16.059-3.035 2.84-1.871 7.16-.676 11.649.719 2.703 1.144 5.023.676 7.46-.508.399-1.067.774-1.633 1.145a35 35 0 0 1 3.152 2.793c6.192 6.187 10.02 14.742 10.02 24.187 0 2.465-.258 4.868-.754 7.18 3.328.09 6.535.652 9.558 1.625.856-7.973 4.45-15.129 9.825-20.504 6.191-6.187 14.742-10.02 24.191-10.02 9.445 0 18 3.833 24.188 10.02 6.191 6.192 10.023 14.746 10.023 24.192 0 2.441-.258 4.82-.742 7.113 2.023.226 3.996.625 5.898 1.187.852-7.98 4.45-15.14 9.824-20.52 6.192-6.19 14.747-10.019 24.192-10.019 9.45 0 18 3.828 24.191 10.02 6.192 6.191 10.02 14.742 10.02 24.191 0 9.446-3.828 17.996-10.02 24.188-6.191 6.191-14.742 10.02-24.191 10.02-3.371 0-6.625-.485-9.703-1.395a34.1 34.1 0 0 1-9.824 20.52c-6.192 6.19-14.743 10.023-24.192 10.023-9.445 0-18-3.832-24.187-10.024-6.192-6.187-10.024-14.742-10.024-24.187 0-2.442.258-4.82.742-7.117a34 34 0 0 1-6.683-1.426c-.852 7.972-4.45 15.129-9.82 20.504-6.192 6.187-14.747 10.02-24.192 10.02s-18-3.833-24.191-10.02c-6.192-6.192-10.02-14.746-10.02-24.192 0-2.464.262-4.863.754-7.18a34.04 34.04 0 0 1-17.785-5.554c-.785 4.242-.961 8.937-.5 14.02 1.285 14.18 10.59 31.039 18.582 47.937 1.133 2.395 2.082 4.703 3.621 6.426 8 8.969 16.895 11.566 22.809 22.61 0 3.901.035 7.808 0 11.71-.07 7.664-.457 15.14-3.457 20.7-.97 1.788-2.063 3.507-3.094 5.265 12.738 1.316 25.02 3.125 36.129 6.18 6.039-18.93 9.449-37.274 15.25-43.996 13.347-3.602 25.894-9.165 35.336-22.32 19.148-5.942 33.043-14.786 40.05-27.45 1.653.105 3.293.074 4.918-.04.008 3.642 1.465 6.599 3.602 9.294 2.473 3.117 4.543 6.344 4.473 10.246-1.004-.02-2.008-.016-3.012-.062-2.457-.118-4.18-1.262-4.188-4.758 0-1.493-.132-2.985-.59-4.45-.152-.496-.347-.718-.73-.328-.976 1-1.59 2.215-2.133 3.438-.582 1.308-1.312 2.441-2.48 2.918-1.293.527-2.613.527-3.977-.031-.238-.098-.574-.098-.539.253.219 2.211 1.63 3.415 3.61 4.168 2.425.922 7.039 1.012 10.351 1.864.606.156.59.449.16.68-.91.492-1.855.93-2.578 1.503a1.09 1.09 0 0 0-.265 1.426c.289.465 1.023 1.055 1.566 1.32.707.348 1.523.024 2.152-.55.649-.59 1.149-1.086 1.785-1.688.45-.348 1.122-.215 1.551.367 1.074 1.465 1.164 2.899.426 4.211-.402.711-.969 1.059-1.93.832a18 18 0 0 1-3.394-1.199c-1.664-.773-3.293-.906-4.903-.648-.343.054-.554.199-.546.484.011.496.097.871.285 1.203.73 1.317 2.441 1.649 4.289 1.969 2.847.5 4.105 1.863 3.496 4.68-.82.722-2.11.988-3.336 1.359-.813.25-1.48.668-1.645 1.465-.14.683-.058 1.312.141 1.91-5.598-1.246-11.387-.941-19.289-2.152-3.64-.559-9.18-3.118-9.379-8.633-.012-.297-.195-.473-.371-.313-3.754 3.41-8.195 5.953-14.336 6.325 9.184 7.64 24.555 9.683 41.77 9.726m-49.485-19.367c-4.898 1.973-9.824 3.914-14.086 6.8-2.125 1.438-2.941 2.95-2.18 4.423-2.992 2.75-6.503 4.703-10.976 4.734-2.262.012-4.309-.379-5.09-1.66 1.313-1.664 4.953-2.383 8.277-2.977-9.367-2.59-21.953-4.055-32.625-6.539-6.226-1.45-12.027-3.621-16.003-6.57-.063-1.715.054-3.399.242-5.028.207-1.808-1.567-3.144-4.39-4.21-.298-.114-.548-.278-.067-.325 6.933-.703 13.328-.71 19.386-.097 20.735 2.113 39.098 8.328 57.512 11.449m-41.582 22.066c.027 7.727.192 17.246-.082 23.176-.164 3.5-2.332 7.95-4.7 9.172-.476.246-.718.101-.874-.45-1.3-4.656-.574-9.359-1.73-11.413-.645-1.157-1.965-.328-2.337.566-.074.176-.367-.098-.367-.242.024-4.723-2.535-7.883-5.875-10.57-2.632-2.668-5.062-5.352-5.183-8.235 1.363-.578 2.39-1.308 2.886-2.277.168-.332.114-.774.254-1.117.676-.004 1.352.054 2.028.062 1.09.016 2.36 1.969 2.84 3.625.566 1.957 2.058 3.137 3.128 2.824a7 7 0 0 1-1.097-3.82c-.004-2.273-.121-4.285-1.547-5.309l-2.195-.425c2.296-2.344 5.273-2.79 8.652-2.094 2.555.527 5.082.734 7.582.508-.898 1.89-1.39 3.91-1.383 6.02m-21.984 20.426c2.554-1.184 3.988.387 5.062 2.379 2.399 4.437 3.192 9.855 2.871 15.98-4.238-.804-8.906-.996-13.793-.875-.773-3.476.985-6.511 3.63-9.394 2.003-2.188 3.32-4.652 2.23-8.09m-18.668-55.45c.707 1.849-1.625 2.638-4.738 1.567-1.13-.32-2.192-.707-3.051-1.3-.153-1.485.914-1.97 2.277-1.993 2.356-.043 4.133.59 5.512 1.727M77.53 334.212c.082-.348.43-.152.754 0 2.3 1.059 4.14 3.094 4.086 4.898-.023.79-.453 1.684-.937 2.38-.297.433-.891.468-1.38.476-1.433.031-2.831-.313-3.296-1.371-.711-1.633.281-4.25.773-6.383m475.766 49.504c-61.965-37.277-123.29-74.188-187.078-110.8 4.554-1.267 8.219-2.895 12.488-4.09 61.668-17.294 95.555-57.786 107.777-109.134 3.348-14.07 4.735-29.3 5.293-45.402-31.156 47.695-58.453 52.582-78.71 53.957-11.032.746-22.938.336-33.587 6.871-.78-5.3 7.114-15.703 9.922-21.351 2.133-4.286 3.223-5.832 4.457-12.313-6.703 1.953-12.09 6.652-19.152 10.555-4.684 2.59-9.746 5.77-16.273 7.05-3.637-2.581-2.032-11.683-.73-18.644 1.269-6.797 1.265-9.371.8-15.027-1.645-1.946-4.305-3.86-13.055-6.98-4.605-1.641-9.367-3.22-12.316-5.727-.301-.254-1.598-.364-2.54.394-1.866 1.5-2.663 6.414-3.448 8.692-.336.976-.754 1.703-1.688 1.718-.684.012-1.352-.207-2.152-1.351-4.907 1.258-6.973-1.715-6.762-6.43.14-3.164.27-5.824.394-7.95-4.761-1.382-26.992-6.003-33.652-8.003-1.719-.516-4.223-.305-4.637 2.102-.117.671-.37 1.14-.441 4.078-.105 4.168-1.32 4.953-3.996 5.148-3.824.285-6.375-.789-8.36-1.336-1.894-.523-3.644-.726-7.046-.43-1.696-2.136-1.196-3.894-.317-6.207.969-2.554 1.02-6.605.242-6.75-12.351-1.664-26.46-.593-37.058-2.87-1.098-.235-1.746-.196-2.258.468-1.11 1.426-1.812 2.617-2.148 6.29-.227 2.472-.621 4.812-1.465 7.503-5.371-.055-12.29-.074-17.903.063.16-3.125-.011-8.547.27-12.364.039-.547-.059-.672-.86-.71-3.605-.172-8.874-.13-16.265 1.14-3.094.531-7.012.836-10.418.594-5.031 14.355-9.145 31.66-12.61 59.547C117.849 133.5 79.048 112.344 39.095 89.53c39.933 92.184 17.969 162.7-36.496 214.106l74.07 81.015ZM350.492 151.09c-1.664.316-3.387-.336-5.164-1.75-.984-.785-1.574-1.445-2.973-1.426-.082-1.601.13-3.223 1.024-5.61.75-1.886.937-3.917-.692-5.59-.183-.187-.433-.155-.664.114-2.222 2.586-2.847 5.875-2.773 9.29-5.426.003-10.477-1.54-15.574-3.274-5.356-1.82-10.516-3.168-15.004-2.926-.379-5.07-.082-10.004 1.707-14.637-2.285-.187-4.027.188-4.758 2.684-.426 1.453-.11 5.8-.164 8.7-4.187.995-9.34.132-14.598-1.18-6.035-1.508-11.914-2.555-17.441-2.07-.04-1.575-.223-3.821-.04-5.442.247-2.168.364-4.133.138-6.598-.082-.937-.735-1.98-1.645-2.398-.984.355-1.32 1.964-1.508 3.293-.277 1.98-.363 4.238-.61 6.425-.233 2.094-1.8 3.793-4.3 3.73-1.164-.027-2.328-.355-3.465-.597 1.594-.914 2.914-1.871 2.926-3.172.016-1.285-1.004-2.261-2.289-3.129-.426-.285-.61.176-.758.77-1.336 5.3-9.418 3.828-16.246 3.031-3.059-.36-6.14-.476-9.21-.71-.372-2.223-.153-4.395.937-6.509 1.054-2.05 1.007-4.18.832-6.343-2.836.058-3.801 2.476-4.149 5.836-.273 2.68-.73 5.293-2.215 6.87-8.98-1.894-18.183-1.695-27.382-1.503-.692-2.578-.211-4.758.566-6.91.633-1.75 1.145-3.637 1.121-5.774-2.996-.574-4.18 2.227-4.617 5.653-.285 2.257-.27 4.57-1.18 6.218-.418.762-1.254 1.031-2.355 1.059-4.516.105-9.028-.328-13.52-1.25-2.215-.457-4.66-.461-7.234-.52-.453-2.57-.278-4.144 1.336-5.55 1.582-1.372 3.304-2.618 3.48-4.118-4.187.141-8.187.137-9.863-1.687 2.148-.656 3.32-2.473 4.168-4.938 1.035-3.011 2.414-5.879 5.574-6.265.024 2.09 0 4.14.012 6.226.004.582.844.512 1.48.2.63-.31.489-1.11.375-1.954-.12-.941-.203-1.918-.324-2.886-.133-1.051-.035-1.684.961-1.645.774.027 1.563.04 2.332.02 1.027-.024 1.645 1.093 1.8 2.277.157 1.18.165 2.309.165 3.5-.004 1.465.601 2.395 1.695 2.39 8.934-.046 17.906-.171 26.836-.117 1.598-1.89 2.047-4.332 2.645-6.87.742-3.157 2.234-6.548 5.562-6.075.473.07.906.266 1.188.547 1.308 1.297 1.718 3.184 3.418 2.64-.035 2.93-1.637 6.458-3.274 9.86 4.633.45 8.274 1.59 13.399 1.566 4.828-.023 6.738-2.16 9.304-8.101-1.773-.414-7.07 3.7-12.558 3.77-3.27.046-5.45-2.364-5.285-4.868.16-2.43 1.93-3.613 4.636-3.812 4.051-.297 8.43.636 13.133.285 2.227 1.703 3.613 7.058 4.75 12.8 9.137-.234 17.117 1.075 23.988 3.243 1.204-.473 1.817-2.375 2.188-4.88.242-1.648.418-3.76 1.055-4.882 5.07-.566 9.129.602 13.05 1.93 4.973 1.687 9.395 2.031 12.61 1.164 2.304 11.93 12.086 18.105 25.433 20.96 1.243.294 1.817-1.214 1.84-2.765.04-1.41-.039-2.172.004-3.582 4.938-2.617 9.813-1.734 14.645 1.61.343 1.156-.02 2.195-.532 2.683-.543.524-1.683.79-2.574 1.047-1.215.352-2.203 1.324-1.867 2.754 6.57 6.508 6.492 10.586 6.492 19.168m-171.535-4.344c-.383 1.992-.562 4.035-.121 6.098-3.254.34-6.008-.164-8.176-1.668.559-6.465 4.05-9.363 9.598-9.758.039 1.863-.953 3.516-1.301 5.328m0 0" style="stroke:none;fill-rule:evenodd;fill:#33ad58;fill-opacity:1"></path><path d="M259.996 262.86c5.016-5.016 8.293-11.766 8.852-19.274a34.3 34.3 0 0 1-10.125-7.004c-6.16-6.16-9.98-14.66-10.02-24.05a30.5 30.5 0 0 0-10.289-1.778h-.078a34.2 34.2 0 0 1-8.262 13.336c-5.554 5.555-13.012 9.207-21.308 9.898a30.7 30.7 0 0 0-.875 7.29c0 8.429 3.418 16.058 8.941 21.581 5.523 5.524 13.152 8.938 21.582 8.938s16.059-3.414 21.582-8.938M282.059 253.508c0 8.43 3.414 16.058 8.937 21.582a30.43 30.43 0 0 0 21.582 8.937c8.43 0 16.059-3.414 21.582-8.937 4.996-4.996 8.27-11.719 8.848-19.195a34.3 34.3 0 0 1-10.903-7.344c-6.16-6.16-9.98-14.66-10.02-24.055a30.5 30.5 0 0 0-6.675-1.383 34.2 34.2 0 0 1-8.308 13.469c-6.188 6.191-14.743 10.02-24.188 10.02h-.074a30.7 30.7 0 0 0-.781 6.906M336.77 229.316c6.16 6.16 9.984 14.664 10.02 24.059a30.6 30.6 0 0 0 9.507 1.508c8.43 0 16.058-3.414 21.582-8.938 5.523-5.523 8.941-13.156 8.941-21.582 0-8.43-3.418-16.062-8.941-21.586s-13.152-8.937-21.582-8.937a30.43 30.43 0 0 0-21.582 8.937c-4.996 5-8.27 11.72-8.848 19.196a34.3 34.3 0 0 1 10.903 7.343M312.648 219.297c.516-2.219.786-4.531.786-6.906 0-8.43-3.414-16.059-8.938-21.582-5.523-5.524-13.156-8.942-21.582-8.942-8.43 0-16.059 3.418-21.582 8.942-5.016 5.015-8.293 11.765-8.855 19.273a34.3 34.3 0 0 1 10.128 7.004c6.157 6.16 9.98 14.66 10.02 24.05a30.6 30.6 0 0 0 7.457 1.65 34.2 34.2 0 0 1 8.309-13.47c6.187-6.191 14.742-10.02 24.187-10.02zM214.223 217.086c5.554-5.555 13.011-9.207 21.308-9.899.574-2.335.875-4.777.875-7.289a30.43 30.43 0 0 0-8.937-21.582 31 31 0 0 0-3.656-3.12q-.242.234-.465.48c-7.422 8.426-15.043 16.777-22.567 25.168-5.492 6.52-9.039 13.836-11.914 21.511a36 36 0 0 0-.781 2.344 30.4 30.4 0 0 0 17.8 5.723h.075a34.2 34.2 0 0 1 8.262-13.336m0 0" style="stroke:none;fill-rule:evenodd;fill:#33ad58;fill-opacity:1"></path><path d="M234.316 211.027a30.43 30.43 0 0 0-17.484 8.668 30.5 30.5 0 0 0-6.848 10.453 30.43 30.43 0 0 0 17.485-8.668c2.949-2.949 5.297-6.5 6.847-10.453M252.441 214.16c.442 7.727 3.754 14.68 8.891 19.813a30.5 30.5 0 0 0 7.555 5.53 30.44 30.44 0 0 0-8.89-19.808 30.6 30.6 0 0 0-7.556-5.535M290.996 231.926a30.5 30.5 0 0 0-7.043 10.969c8.016-.266 15.246-3.625 20.543-8.922a30.5 30.5 0 0 0 7.043-10.97c-8.016.267-15.246 3.626-20.543 8.923M325.82 226c.41 7.773 3.73 14.781 8.895 19.945a30.6 30.6 0 0 0 8.344 5.926c-.41-7.777-3.735-14.781-8.899-19.945a30.6 30.6 0 0 0-8.34-5.926M184.3 221.48c-5.523-5.523-8.937-13.152-8.937-21.582a30.43 30.43 0 0 1 8.938-21.582 30.43 30.43 0 0 1 21.586-8.937c6.699 0 12.89 2.156 17.926 5.816.902-.863 2.023-1.566 3.109-2.277a34.1 34.1 0 0 0-21.035-7.227c-9.45 0-18 3.829-24.192 10.02-6.191 6.187-10.02 14.742-10.02 24.187 0 9.45 3.829 18 10.02 24.192a34.5 34.5 0 0 0 5.477 4.453q.369-1.993.914-3.844a30.7 30.7 0 0 1-3.785-3.219M384.457 402.102v-.004h.008c-.05-2.11-.809-3.957-2-5.262-1.13-1.234-2.66-1.977-4.34-1.941l-.047.007v-.004c-1.598.043-2.969.813-3.941 2.032-1.106 1.375-1.73 3.324-1.688 5.515l.008.047h-.008c.051 2.145.73 4.04 1.848 5.371 1.015 1.211 2.422 1.946 4.047 1.91l.043-.007v.007c1.652-.046 3.152-.875 4.246-2.18 1.172-1.398 1.875-3.327 1.832-5.448Zm4.426-.004v.004h-.008c.055 3.214-1.04 6.164-2.855 8.328-1.895 2.261-4.575 3.691-7.59 3.754l-.043.007v-.007c-3.04.046-5.633-1.286-7.48-3.489-1.747-2.086-2.802-4.965-2.868-8.16l-.008-.047h.008c-.055-3.218.93-6.152 2.656-8.308 1.785-2.235 4.332-3.633 7.34-3.696l.047-.007v.007c2.984-.046 5.676 1.239 7.633 3.38 1.898 2.074 3.094 4.956 3.16 8.187Zm-246.098 24.449 23.055-2.043-12.559-27.254Zm24.985 2.23-26.61 2.356-4.105 11.578-4.168-1.469 17.836-50.422 4.464-.21 27.747 60.984-4.028 1.816Zm16.863-10.105 38.203-2.211c-.691-6.543-3.195-12.3-6.781-16.43-3.72-4.273-8.598-6.761-13.762-6.453h-.02c-5.164.317-9.714 3.39-12.894 8.102-3.04 4.5-4.824 10.468-4.746 16.992m38.383 2.203-38.051 2.203c.855 6.05 3.27 11.363 6.637 15.238 3.718 4.278 8.601 6.766 13.77 6.454h.01c5.165-.317 9.712-3.391 12.895-8.102 2.852-4.223 4.598-9.738 4.739-15.793m-37.301-21.668c3.93-5.82 9.672-9.629 16.289-10.035h.02c6.605-.402 12.757 2.676 17.367 7.973 4.464 5.136 7.476 12.398 7.98 20.566v.023c.496 8.176-1.617 15.758-5.43 21.407-3.933 5.824-9.675 9.632-16.296 10.035l-.016.004c-6.606.398-12.758-2.676-17.363-7.977-4.465-5.137-7.48-12.398-7.98-20.566v-.024c-.497-8.175 1.616-15.758 5.429-21.406m49.5-7.863 1.27 21.062 26.011-6.758-1.113-14.003 4.41-.348 3.383 42.55-4.41.344-1.914-24.074-26.098 6.778 1.324 21.937-4.41.262-2.863-47.492Zm41.2 41.59 8.62-43.102 3.672.734.07-.046.043.066.555.113-.113.578 21.34 33.453-3.72 2.372-7.347-11.52-15.14.016-3.641 18.203Zm11.597-35.418-2.735 13.671 11.45-.011Zm30.699-5.621 3.125 32.918-4.39.414-3.126-32.918Zm18.762.074 17.48 17.27.024-17.305h4.406l-.031 24.464h-4.41l.003-.964-16.882-16.68 1.867 21.52-4.407.382-2.539-29.21 4.41-.384Zm61.386-4.262 6.66 7.566 6.204-5.53 2.941 3.3-7.129 6.36v9.214h-4.41v-9.37l-7.586-8.618ZM203.438 63.492c-1.735.02-3.333.946-4.504 2.422-1.278 1.606-2.051 3.836-2.02 6.305.031 2.465.86 4.672 2.172 6.246 1.21 1.45 2.828 2.336 4.566 2.312 1.739-.02 3.336-.945 4.508-2.422 1.278-1.605 2.05-3.835 2.02-6.304-.032-2.465-.86-4.672-2.172-6.246-1.211-1.45-2.832-2.336-4.57-2.313m-7.961-.324c1.972-2.488 4.77-4.047 7.91-4.086s5.972 1.45 8.008 3.887c1.933 2.312 3.148 5.508 3.195 9.031.043 3.523-1.098 6.742-2.973 9.102-1.976 2.488-4.77 4.046-7.91 4.085-3.144.04-5.973-1.449-8.008-3.886-1.933-2.313-3.152-5.508-3.195-9.031s1.098-6.743 2.973-9.102m28.175 4.715 18.364.086c-.356-2.477-1.317-4.684-2.692-6.38-1.672-2.062-3.953-3.343-6.445-3.355-2.488-.011-4.781 1.25-6.473 3.297-1.39 1.684-2.375 3.88-2.754 6.352m18.34 4.492-18.363-.086c.355 2.477 1.32 4.684 2.691 6.379 1.676 2.062 3.953 3.344 6.446 3.355 2.488.012 4.78-1.25 6.472-3.296 1.39-1.684 2.375-3.88 2.754-6.352M223 58.711c2.512-3.035 6.008-4.902 9.898-4.887 3.887.02 7.368 1.922 9.848 4.98 2.383 2.942 3.848 6.97 3.828 11.387-.02 4.426-1.52 8.442-3.93 11.356-2.511 3.035-6.007 4.902-9.898 4.883-3.887-.016-7.363-1.918-9.848-4.98-2.382-2.938-3.847-6.966-3.828-11.384.02-4.425 1.52-8.441 3.93-11.355m62.797 21.934 13.844-39.489 3.882.742 17.72 38.938-4.032 1.812-15.61-34.316-11.62 33.75ZM276.684 49.3l-17.79 4.558.063 9.965 13.992-1.246.383 4.39-14.348 1.278.075 11.172 20.523.297-.05 4.406-24.966-.058.059-34.102 20.969-4.93Zm51.64 32.465 7.918-48.25 3.57.582 1.06-.578 25.155 45.921-3.875 2.11-22.562-41.188-6.91 42.114Zm61.168-55.176c-5.187.183-9.832 3.254-13.144 8.066-3.442 5.004-5.438 11.852-5.172 19.364l.008.078h-.004c.277 7.472 2.754 14.136 6.53 18.875 3.642 4.562 8.49 7.297 13.677 7.113s9.828-3.254 13.14-8.066c3.446-5.004 5.442-11.856 5.176-19.364l-.008-.078h.004c-.277-7.473-2.754-14.137-6.531-18.875-3.645-4.566-8.488-7.297-13.676-7.113m-16.773 5.558c4.086-5.941 9.949-9.73 16.617-9.968 6.672-.235 12.789 3.136 17.289 8.773 4.348 5.45 7.188 13.063 7.488 21.547l.008.078h-.008c.285 8.45-2.011 16.215-5.953 21.95-4.09 5.937-9.953 9.73-16.62 9.964-6.669.238-12.79-3.133-17.286-8.773-4.348-5.45-7.188-13.063-7.488-21.543l-.008-.078h.004c-.282-8.453 2.011-16.22 5.957-21.95m43.68-11 35.124 23.282-23.546 34.957 36.195.097v4.407l-41.09.093-.691-3.597 22.98-34.739-35.894-23.554.523-.875-.707-2.766 34.535-9.055 1.106 4.27Zm0 0" style="stroke:none;fill-rule:evenodd;fill:#33ad58;fill-opacity:1"></path><path d="m543.91 383.73-464.758.915 71.618 78.332Zm-411.023 57.512 17.836-50.422 4.464-.21 27.747 60.984-4.028 1.816-11.136-24.637-26.61 2.36-4.105 11.578Zm47.398-20.629c-.496-8.175 1.617-15.758 5.43-21.406 3.93-5.824 9.672-9.629 16.289-10.035h.02c6.605-.402 12.757 2.672 17.367 7.973 4.464 5.136 7.476 12.398 7.98 20.566v.023c.496 8.176-1.617 15.758-5.43 21.407-3.933 5.824-9.675 9.629-16.3 10.035h-.012c-6.606.402-12.758-2.676-17.363-7.973-4.465-5.137-7.48-12.398-7.98-20.566Zm53.383 18.48-2.863-47.491 4.41-.258 1.27 21.062 26.011-6.758-1.113-14.003 4.41-.348 3.383 42.55-4.41.344-1.914-24.074-26.098 6.778 1.324 21.94Zm42.746-6.16 8.621-43.101 3.672.734.07-.046.043.066.555.113-.117.578 21.344 33.453-3.72 2.372-7.347-11.52-15.14.016-3.641 18.203Zm41.031-7.706-3.125-32.918 4.39-.414 3.126 32.918Zm18.078-4.57-2.539-29.212 4.41-.382.079.906 17.48 17.27.024-17.305h4.406l-.031 24.464h-4.41l.003-.964-16.882-16.68 1.867 21.52Zm35.383-9.962c-1.75-2.086-2.8-4.965-2.867-8.16l-.008-.047h.008c-.055-3.218.93-6.156 2.656-8.308 1.785-2.235 4.332-3.633 7.34-3.696l.047-.007v.007c2.984-.046 5.676 1.239 7.633 3.38 1.898 2.074 3.094 4.956 3.16 8.187l.008.043v.004h-.008c.055 3.218-1.04 6.168-2.855 8.332-1.895 2.261-4.575 3.691-7.59 3.754l-.043.007-.004-.007c-3.035.046-5.63-1.286-7.477-3.489m32.219-11.449-7.586-8.617 3.316-2.922 6.665 7.566 6.203-5.53 2.941 3.3-7.129 6.36v9.214h-4.41Zm0 0" style="stroke:none;fill-rule:evenodd;fill:#fff;fill-opacity:1"></path><path d="M165.84 424.504 153.28 397.25l-10.496 29.297ZM189.379 401.68c-3.04 4.5-4.824 10.468-4.746 16.992l38.203-2.211c-.691-6.543-3.195-12.3-6.781-16.43-3.72-4.273-8.598-6.761-13.762-6.453h-.02c-5.164.317-9.714 3.39-12.894 8.098ZM223.016 420.875l-38.047 2.203c.851 6.05 3.265 11.363 6.633 15.238 3.718 4.278 8.601 6.766 13.77 6.454h.01c5.165-.317 9.712-3.391 12.891-8.102 2.856-4.223 4.602-9.738 4.743-15.793M288.012 397.516l-2.735 13.671 11.45-.011ZM372.45 402.492c.05 2.145.73 4.035 1.847 5.367 1.015 1.215 2.422 1.946 4.047 1.914l.043-.007.004.007c1.648-.05 3.148-.875 4.242-2.18 1.172-1.398 1.875-3.327 1.832-5.452l-.008-.043v-.004h.008c-.05-2.106-.809-3.957-2-5.258-1.13-1.234-2.66-1.977-4.34-1.941l-.047.007v-.007c-1.598.046-2.969.812-3.941 2.03-1.106 1.38-1.73 3.329-1.688 5.52l.008.047ZM377.71 72.973c3.642 4.562 8.49 7.297 13.673 7.113 5.187-.184 9.832-3.254 13.144-8.066 3.446-5.004 5.442-11.856 5.176-19.364l-.008-.078h.004c-.277-7.473-2.754-14.137-6.531-18.875-3.64-4.566-8.488-7.297-13.676-7.113-5.187.183-9.832 3.254-13.14 8.066-3.446 5.004-5.442 11.852-5.176 19.364l.008.078h-.008c.281 7.472 2.754 14.136 6.535 18.875M242.016 67.969c-.356-2.477-1.317-4.684-2.692-6.38-1.672-2.062-3.953-3.343-6.445-3.355-2.488-.011-4.781 1.25-6.473 3.297-1.39 1.684-2.375 3.88-2.754 6.352ZM241.992 72.375l-18.363-.086c.355 2.477 1.32 4.684 2.691 6.379 1.676 2.062 3.953 3.344 6.446 3.355 2.488.012 4.78-1.25 6.472-3.296 1.39-1.684 2.375-3.88 2.754-6.352M208.16 78.355c1.278-1.605 2.05-3.835 2.02-6.304-.032-2.465-.86-4.672-2.172-6.246-1.211-1.45-2.828-2.336-4.57-2.313-1.735.02-3.333.946-4.504 2.422-1.278 1.606-2.051 3.836-2.02 6.305.031 2.465.86 4.672 2.172 6.246 1.21 1.45 2.828 2.336 4.566 2.312 1.739-.02 3.336-.945 4.508-2.422m0 0" style="stroke:none;fill-rule:evenodd;fill:#fff;fill-opacity:1"></path><path d="M195.7 81.3c-1.934-2.312-3.153-5.507-3.196-9.03-.043-3.524 1.098-6.743 2.973-9.102 1.972-2.488 4.77-4.047 7.91-4.086s5.972 1.45 8.008 3.887c1.933 2.312 3.152 5.508 3.19 9.031.048 3.523-1.093 6.742-2.968 9.102-1.976 2.488-4.77 4.046-7.91 4.085-3.144.04-5.973-1.449-8.008-3.886m23.37-11.234c.02-4.425 1.524-8.441 3.93-11.355 2.512-3.035 6.008-4.902 9.898-4.887 3.887.02 7.368 1.922 9.848 4.98 2.383 2.942 3.848 6.97 3.828 11.387-.02 4.426-1.52 8.442-3.93 11.356-2.511 3.035-6.007 4.902-9.898 4.887-3.887-.02-7.367-1.922-9.848-4.98-2.382-2.942-3.847-6.97-3.828-11.388m35.496 13.996.059-34.101 20.969-4.93 1.09 4.27-17.79 4.558.063 9.965 13.992-1.246.383 4.39-14.348 1.278.07 11.172 20.528.297-.055 4.406Zm31.23-3.417 13.845-39.489 3.882.742 17.715 38.938-4.027 1.812-15.61-34.316-11.62 33.75Zm42.528 1.12 7.918-48.25 3.57.583 1.06-.578 25.151 45.921-3.87 2.11-22.563-41.188-6.906 42.114Zm44.395-49.617c4.086-5.937 9.949-9.73 16.617-9.968 6.672-.235 12.789 3.136 17.289 8.773 4.348 5.45 7.188 13.063 7.488 21.547l.008.078h-.008c.285 8.45-2.011 16.215-5.953 21.95-4.09 5.937-9.95 9.73-16.62 9.964-6.669.238-12.79-3.133-17.286-8.773-4.348-5.45-7.188-13.063-7.488-21.543l-.008-.078h.004c-.282-8.453 2.011-16.22 5.957-21.95m72.652 13.5-35.894-23.554.523-.875-.707-2.766 34.535-9.055 1.106 4.27-28.536 7.48 35.125 23.282-23.546 34.957 36.195.097v4.407l-41.09.093-.691-3.597Zm-387.7 41.778 459.954.336-71.047-83.797ZM521.219 91.996l-478.407-.344c38.645 22.008 76.286 42.547 115.204 64.364 3.464-27.887 7.578-45.192 12.609-59.547 3.406.242 7.324-.063 10.418-.594 7.39-1.27 12.66-1.312 16.266-1.14.8.038.898.163.859.71-.281 3.817-.11 9.239-.27 12.36 5.614-.133 12.532-.114 17.903-.059.844-2.691 1.238-5.031 1.465-7.504.336-3.672 1.039-4.863 2.144-6.293.516-.66 1.164-.699 2.258-.465 10.602 2.278 24.71 1.207 37.062 2.871.778.145.727 4.196-.242 6.75-.879 2.313-1.379 4.07.317 6.207 3.402-.296 5.152-.093 7.047.43 1.984.547 4.535 1.621 8.359 1.336 2.676-.195 3.89-.98 3.992-5.148.074-2.938.328-3.407.445-4.078.414-2.407 2.918-2.618 4.637-2.102 6.66 2 28.89 6.621 33.652 8.004a525 525 0 0 0-.394 7.95c-.211 4.714 1.855 7.687 6.758 6.429.804 1.144 1.472 1.363 2.156 1.351.934-.015 1.352-.742 1.688-1.718.789-2.278 1.582-7.192 3.449-8.692.941-.758 2.238-.648 2.539-.394 2.949 2.507 7.71 4.086 12.316 5.726 8.75 3.121 11.41 5.035 13.055 6.98.465 5.653.469 8.231-.8 15.028-1.302 6.961-2.907 16.063.73 18.645 6.527-1.282 11.59-4.461 16.273-7.051 7.063-3.903 12.45-8.602 19.152-10.555-1.234 6.48-2.324 8.027-4.457 12.313-2.808 5.648-10.703 16.05-9.922 21.351 10.649-6.535 22.555-6.125 33.586-6.87 20.258-1.376 47.555-6.263 78.711-53.958-.558 16.102-1.945 31.332-5.293 45.402-12.222 51.348-46.109 91.84-107.78 109.133-4.267 1.196-7.93 2.824-12.485 4.09 62.59 35.922 122.804 72.137 183.582 108.695-22.051-35.789-30.926-75.921-25.473-114.668 5.293-37.613 24.074-73.89 57.387-103.593Zm0 0" style="stroke:none;fill-rule:evenodd;fill:#fff;fill-opacity:1" data-source="https://football-logos.cc"></path><!-- source: https://football-logos.cc --></svg>