<svg xmlns="http://www.w3.org/2000/svg" id="svg42" version="1.1" viewBox="0 0 346.07 380.17"><!-- Source: https://football-logos.cc --><defs id="defs1" data-source="https://football-logos.cc"><style id="style1">.cls-2{fill:#06c}.cls-4{fill:#ed8b00}</style></defs><g id="_레이어_1" data-name="레이어 1" transform="translate(-157.161 -74.825)" data-source="https://football-logos.cc"><g id="g19"><path id="path1" d="M356.27 97.48c2.69-7.99 6.56-14.23 11.59-18.72 5.3-4.74 11.26-5.2 17.88-1.37 5.4 3.13 10.37 12.19 12.64 18.2 6.03 15.9 7.62 32.98 6.76 50.14-.73 14.4-3.81 29.04-10.7 41.43-.03.06-.11.09-.18.06-.07-.04-.1-.12-.07-.19 6.1-16.24 7.77-32.96 6.97-50.34-.71-15.41-6.14-46.17-22.72-52.66-8.19-3.21-15.95 3.59-19.93 10.32-1 1.69-1.68 2.77-2.03 3.24-.03.05-.09.06-.14.03s-.08-.09-.06-.14m-83.45 86.37c-5.52-8.7-8.92-15.94-10.69-25.57-2.51-13.7-2.38-27.52-1.19-42.45 1.18-14.85 7.1-36.99 27.56-31.74 8.51 2.18 15.32 11.29 18.85 19.25.03.08 0 .17-.08.21-.07.04-.16.02-.2-.04-6.22-9.4-17.25-17.07-27.8-7.83-8.19 7.19-12.14 19.96-13.7 30.42-2.99 20.15-.5 39.36 7.48 57.63.03.06 0 .13-.06.17-.06.03-.13.01-.17-.05" class="cls-4"></path><path id="path2" d="M350.54 99.99c.06.09.06.21-.02.28-.07.08-.19.09-.28.03-13.25-9.16-28.17-6.52-37.74 6.03-.06.08-.18.1-.27.05a.21.21 0 0 1-.07-.27c5.72-11.46 18.07-23.64 31.41-13.25 2.63 2.06 4.97 4.46 6.97 7.13" class="cls-2"></path><path id="path3" d="M350.5 312.41c-4.69-6.63-7.61-13.56-8.77-20.79-2.39-14.98 1.91-30.86 8.13-44.46 4.65-10.18 8.3-18.7 10.95-25.57a223.6 223.6 0 0 0 13.99-59.13c1.13-11.76 1.53-19.93-.42-30.4-1.84-9.92-5.94-16.37-17.33-15.09-5.06.58-10.05 1.65-14.91 3.19-3.19.71-6.45 1.37-9.79 1.99-13.31 2.46-31.44-2.04-34.76-17.39-.06-.29.28-.49.5-.29 8.27 7.51 18.77 12.06 30.06 9.74 7.97-1.65 16.7-6.49 23.44-9.53 16.89-7.64 34.48-7.56 37.29 15.21 4.72 38.2-.64 80.13-19.13 114.19-11.13 20.5-25.46 40.4-21.14 65.75.44 2.59 1.86 7.23 4.26 13.93.09.25-.14.49-.4.42-1.25-.35-1.9-.94-1.97-1.77m-39.41 1.49c2.09-4.49 3.51-7.01 4.3-10.76 3.64-17.35-.81-33.43-9.25-48.66-7.24-13.07-10.95-19.77-11.13-20.08-17.39-31.4-22.08-69.05-19.59-104.44.47-6.75.99-29.45 14.31-23.1 3.87 1.85 5.54 5.26 5 10.25-.16 1.48-.96 5.82-2.41 13.01q-.885 4.395-1.71 16.47-.585 8.43-.03 16.56c1.18 17.48 4.68 34.63 10.49 51.46 3.09 8.95 7.54 20.06 13.36 33.34 9.14 20.86 13.84 47.61-2.94 66.21-.08.09-.21.11-.31.04a.24.24 0 0 1-.09-.3" class="cls-2"></path><path id="path4" d="M350.5 312.41c-3.04-2.27-5.56-5.18-7.56-8.71-10.34-18.28-8.79-41.15-1.02-60.06 6.32-15.41 12.34-31.13 16.68-46.48 3.15-11.16 4.94-22.63 5.37-34.4.64-17.18-2.59-37.21-21.83-42.6 4.86-1.54 9.85-2.61 14.91-3.19 11.39-1.28 15.49 5.17 17.33 15.09 1.95 10.47 1.55 18.64.42 30.4a223.6 223.6 0 0 1-13.99 59.13c-2.65 6.87-6.3 15.39-10.95 25.57-6.22 13.6-10.52 29.48-8.13 44.46 1.16 7.23 4.08 14.16 8.77 20.79" style="fill:#dbdbdb"></path><path id="path5" d="M345.97 147.85c-.09-.22.17-.43.36-.28 13.31 10.14 12.5 29.76 3.36 42.31-6.19 8.49-16.86 12.85-26.67 7.89-.07-.03-.1-.11-.07-.18.02-.07.09-.11.16-.1 5.09.87 10.48-3.72 13.38-7.46 6.11-7.87 9.88-16.83 11.33-26.89.77-5.39.16-10.49-1.85-15.29m-12.61 3.49c-9.82 5.25-15.4 18.79-16 29.52-.15 2.7.36 5.09 1.54 7.18.03.05.02.11-.03.15s-.11.03-.15-.01c-11.17-11.26-2.76-38.01 14.52-37.36.28.01.37.39.12.52" class="cls-2"></path><path id="path6" d="m212.6 361.12 12.22 7.92c.32.2.39.64.15.93-7.59 9.44-17.64 13.37-30.17 11.78-11.7-1.48-21.8-9.2-23.41-21.39-3.01-22.79 16.98-38.16 38.39-34.99 10.57 1.56 17.57 7.39 20.98 17.48.08.25-.05.51-.3.59l-14.92 4.88a.8.8 0 0 1-1-.49c-2.09-5.79-6.26-8.4-12.52-7.83-9.14.84-16.15 11.56-12.45 20.15 4.14 9.6 16.53 8.58 22.09 1.14.22-.3.63-.37.94-.17m246.15-1.2c.9.84 1.3 1.45 2.4 2.29 4.67 3.57 10.04 5.46 16.13 5.66 1.62.05 2.95-.4 3.98-1.35.64-.58.67-1.63.07-2.41-.89-1.17-2.15-1.99-3.8-2.47-10.88-3.16-23.58-8.14-21.21-21.72 1.49-8.54 10.78-13.84 19.03-14.66 10.66-1.07 19.87 1.74 27.64 8.43.28.24.32.67.08.96l-9.06 10.8c-.21.25-.59.27-.83.05-4.29-4.02-9.51-6.16-15.67-6.43-1.18-.05-2.28.24-3.29.89-1.05.68-1.24 2.13-.39 2.98 1.94 1.93 6.28 2.99 11.91 4.96 6.62 2.32 13.42 7.18 13.62 14.87.37 14.32-13.79 20.17-25.83 19.28-9.45-.7-18.27-3.54-24.72-10.3a.643.643 0 0 1-.03-.86l9.16-10.93c.21-.24.58-.26.81-.04m-199.36-.63-4.75 21.55c-.03.16-.18.27-.34.27h-16.24c-.2 0-.36-.16-.36-.36v-.07l4.71-21.32c.01-.07 0-.14-.02-.21l-13.11-32.81c-.09-.23.08-.48.33-.48h17.49c.15 0 .28.1.33.24l5.7 17.48c.09.27.44.32.61.1L267.25 326a.35.35 0 0 1 .28-.14h19.09c.3 0 .46.35.27.57l-27.43 32.71s-.07.1-.08.15m31.11-33.42c2.09-.03 11.2-.03 27.32 0 10.93.03 18.73 7.79 17.37 18.97-1.5 12.39-11.79 19.27-23.65 19.27-7.33 0-11.51 0-12.54-.02-.33 0-.62.22-.69.55l-3.52 15.95c-.06.3-.33.52-.64.52h-15.95c-.24 0-.42-.22-.37-.45l11.95-54.2c.08-.34.37-.58.72-.59m11.46 23.52c5.94-.03 17.47 1.42 15.72-6.41-.96-4.33-9.18-3.15-13.69-3.09a.28.28 0 0 0-.27.21l-1.94 9.07c-.03.11.06.22.18.22m74.73 13.77 5.11 17.42c.08.26-.12.53-.4.53h-17.42c-.38 0-.71-.27-.79-.64l-3.48-16.56a.72.72 0 0 0-.7-.57h-5.23c-.33 0-.62.23-.69.56l-3.66 16.59c-.08.36-.4.62-.77.62h-15.96c-.18 0-.32-.17-.28-.35l12-54.44a.59.59 0 0 1 .59-.46c3.1.03 11.14.02 24.11-.02 4.29-.02 7.49.38 9.6 1.19 17.16 6.64 13.27 29-1.61 35.24-.35.15-.53.53-.42.89m-20.15-13.79c5.95 0 17.48 1.53 15.78-6.32-.94-4.34-9.18-3.21-13.69-3.18-.13 0-.25.09-.27.21l-2 9.07c-.03.11.06.22.18.22m96.32-23.55c.35 0 .62.32.55.67-1.82 8.73-4.31 19.99-7.48 33.8-4.05 17.68-18.33 24.14-35.24 21.23-12.47-2.14-19.76-11.29-17.16-23.98 1.8-8.72 4.09-19.19 6.89-31.41.04-.17.18-.28.35-.28h16.4c.25-.01.44.22.38.46-4.26 19.17-6.57 29.64-6.92 31.42-.75 3.78.75 7.65 4.69 8.98 6.75 2.27 12.42-1.75 13.9-8.43 4.07-18.41 6.44-29.12 7.12-32.15.04-.17.2-.3.38-.3h16.14zm-81.14 96.22-4.67 21.16c-.09.38-.26.73-.5 1.03-10.34 12.74-31.1 14.25-43.67 3.97-8.97-7.33-10.51-19.2-6.73-29.71 5.43-15.11 21.27-22.26 36.83-20.48 9.25 1.06 15.89 5.73 19.93 14.02.1.2 0 .44-.21.53l-14.93 5.96a.52.52 0 0 1-.66-.26c-.76-1.65-1.84-2.85-3.25-3.6-5.71-3.06-11.05-2.66-16.04 1.2-10.65 8.25-6.78 26.21 8.83 23.84a9.7 9.7 0 0 0 5.17-2.46c.74-.67.27-1.9-.73-1.9h-8.93c-.27 0-.47-.25-.41-.51l2.82-12.8c.09-.39.43-.66.82-.66h25.79c.35 0 .61.32.54.67m-202.18-23.42h16.28c.21 0 .38.2.33.41l-8.75 39.68c-.05.21.12.41.33.41h20.02c.21 0 .38.2.33.41l-3.1 14.06c-.03.16-.17.27-.33.27H157.5c-.21 0-.38-.2-.33-.41l12.03-54.56c.03-.16.17-.27.33-.27m79.61 34.49h-23.96c-.16 0-.29.11-.33.26l-1.34 6.09c-.05.2.11.4.32.4h24.24c.21 0 .37.19.32.4l-2.93 13.34c-.04.15-.17.26-.33.26h-41.36c-.21 0-.37-.2-.32-.4l12.02-54.59c.04-.15.17-.26.33-.26h41.37c.21 0 .37.2.32.4l-2.99 13.59c-.04.15-.17.26-.33.26h-24.52c-.16 0-.29.11-.33.26l-1.17 5.34c-.05.21.11.4.32.4h23.67c.21 0 .37.2.32.4l-2.99 13.59c-.04.15-.17.26-.33.26m43.8 20.41-.6-6.32a.38.38 0 0 0-.38-.34h-20.19a.4.4 0 0 0-.34.2l-3.47 6.59a.4.4 0 0 1-.34.2h-18.4c-.29 0-.47-.32-.32-.57L281 398.8c.07-.12.19-.19.33-.19h20.63c.19 0 .35.14.38.32l8.1 54.49c.03.21-.12.41-.34.44h-16.78a.38.38 0 0 1-.38-.34m-13.42-20.91h11.14c.26 0 .46-.23.43-.49l-1.71-18.15c-.02-.24-.35-.3-.46-.09l-9.66 18.29c-.1.2.04.44.26.44m159.49-33.3c-1.82 8.73-4.32 19.99-7.5 33.8-4.07 17.68-18.36 24.13-35.27 21.21-12.47-2.15-19.75-11.31-17.14-24 1.8-8.72 4.1-19.19 6.91-31.41.04-.16.19-.28.35-.28h16.41c.25 0 .44.23.38.47-4.28 19.17-6.6 29.65-6.95 31.43-.75 3.78.74 7.65 4.68 8.98 6.75 2.28 12.43-1.74 13.91-8.42 4.09-18.41 6.47-29.12 7.15-32.15.04-.18.2-.3.38-.3h16.14c.36 0 .62.32.55.67m47.2 19.55c.35 0 .61.31.53.65l-2.85 13.01c-.08.34-.38.58-.73.58h-23.42a.6.6 0 0 0-.59.48l-1.3 5.8a.4.4 0 0 0 .31.47h24c.34 0 .59.3.52.63l-2.81 12.79c-.07.34-.37.58-.72.57h-41.14c-.16 0-.27-.13-.24-.29l12.03-54.63c.04-.19.2-.31.39-.31h41.12c.31-.01.54.27.47.58l-2.91 13.14c-.06.3-.33.52-.65.52h-24.07a.52.52 0 0 0-.53.42l-1.13 5.15c-.05.22.12.43.35.43h23.37z" class="cls-4"></path></g></g><!-- source: https://football-logos.cc --></svg>