<svg xmlns="http://www.w3.org/2000/svg" xml:space="preserve" width="289.68" height="289.68"><!-- Source: https://football-logos.cc --><path d="M2063.88 1086.33c0-539.9-437.68-977.568-977.57-977.568-539.9 0-977.576 437.668-977.576 977.568 0 539.89 437.676 977.56 977.576 977.56 539.89 0 977.57-437.67 977.57-977.56" style="fill:#f1511b;fill-opacity:1;fill-rule:nonzero;stroke:none" transform="matrix(.13333 0 0 -.13333 0 289.68)" data-source="https://football-logos.cc"></path><path d="M1795.38 1086.32c0-391.601-317.47-709.07-709.07-709.07-391.619 0-709.08 317.469-709.08 709.07 0 391.62 317.461 709.08 709.08 709.08 391.6 0 709.07-317.46 709.07-709.08" style="fill:#fff;fill-opacity:1;fill-rule:nonzero;stroke:none" transform="matrix(.13333 0 0 -.13333 0 289.68)"></path><path d="M1732.16 949.531v-21.23c0-7.531-.25-15.012-.64-22.442-106.05.411-160.15 69.219-315.82 69.371-97.34.098-201.28-68.089-329.93-69.378-128.661-1.293-207.911 68.097-346.461 69.378-121.504 1.129-200.176-69.378-300.262-69.378v43.679c101.187 0 171.074 68.149 300.266 69.379 134.164 1.29 237.015-68.101 346.457-69.379 109.44-1.269 213.91 69.379 333.23 69.379 148.83 0 205.57-69.238 313.16-69.379" style="fill:#f1511b;fill-opacity:1;fill-rule:evenodd;stroke:none" transform="matrix(.13333 0 0 -.13333 0 289.68)"></path><path d="M1728.39 872.578c-2-14.719-4.76-29.207-8.28-43.41-98.73 5.043-154.43 68.91-304.41 69.07-97.34.082-201.28-68.097-329.93-69.386-128.661-1.282-207.911 68.097-346.461 69.386-117.2 1.071-194.563-64.476-289.723-69.117-3.555 14.219-6.332 28.699-8.348 43.438 100.008.972 169.821 68.132 298.075 69.363 134.164 1.277 237.015-68.113 346.457-69.383 109.44-1.289 213.91 69.383 333.23 69.383 147.08 0 204.23-67.613 309.39-69.344" style="fill:#f1511b;fill-opacity:1;fill-rule:evenodd;stroke:none" transform="matrix(.13333 0 0 -.13333 0 289.68)"></path><path d="M1710.5 796.52c-4.82-14.168-10.36-28.04-16.67-41.559-83.51 13.461-141.95 66.141-278.13 66.258-97.34.101-201.28-68.09-329.93-69.379-128.661-1.281-207.911 68.101-346.461 69.379-106.18.992-179.657-52.731-263.293-66.289a414 414 0 0 0-16.758 41.511c90.738 8.059 159.644 67.321 280.055 68.481 134.164 1.269 237.015-68.102 346.457-69.391 109.44-1.293 213.91 69.391 333.23 69.391 138.54 0 197.28-59.981 291.5-68.402" style="fill:#f1511b;fill-opacity:1;fill-rule:evenodd;stroke:none" transform="matrix(.13333 0 0 -.13333 0 289.68)"></path><path d="M1678.13 724.531c-7.25-12.75-15.19-25.152-23.75-37.211-65.27 19.942-124.79 56.801-238.68 56.899-97.34.101-201.28-68.098-329.93-69.379-128.661-1.281-207.911 68.101-346.461 69.379-89.129.832-155.215-36.879-223.61-57.039-8.625 12.101-16.633 24.531-23.929 37.34 75.882 16.628 141.882 62.378 247.543 63.39 134.164 1.281 237.015-68.101 346.457-69.379 109.44-1.293 213.91 69.379 333.23 69.379 122.04 0 182.14-46.519 259.13-63.379" style="fill:#f1511b;fill-opacity:1;fill-rule:evenodd;stroke:none" transform="matrix(.13333 0 0 -.13333 0 289.68)"></path><path d="M1633.81 660.418c-9.22-11.156-19.02-21.949-29.35-32.398-49.33 18.679-103.96 39.128-188.76 39.199-97.34.101-201.28-68.098-329.93-69.367-128.661-1.293-207.911 68.097-346.461 69.367-67.168.633-121.258-20.629-173.098-39.778a489 489 0 0 0-29.895 32.899c59.192 20.25 118.379 49.762 202.997 50.57 134.164 1.281 237.015-68.09 346.457-69.379 109.44-1.281 213.91 69.379 333.23 69.379 97.88 0 155.92-29.949 214.81-50.492" style="fill:#f1511b;fill-opacity:1;fill-rule:evenodd;stroke:none" transform="matrix(.13333 0 0 -.13333 0 289.68)"></path><path d="M1578.81 603.789a548 548 0 0 0-38.25-30.769c-34.42 9.851-74.25 17.152-124.86 17.191-97.34.098-201.28-68.09-329.93-69.383-128.661-1.277-207.911 68.113-346.461 69.383-40.403.391-76.071-7.152-109.364-17.402a553 553 0 0 0-38.289 30.722c42.657 15.5 89.063 29.809 147.657 30.367 134.164 1.282 237.015-68.097 346.457-69.378 109.44-1.282 213.91 69.378 333.23 69.378 67.92 0 116.66-14.41 159.81-30.109" style="fill:#f1511b;fill-opacity:1;fill-rule:evenodd;stroke:none" transform="matrix(.13333 0 0 -.13333 0 289.68)" data-source="https://football-logos.cc"></path><path d="M1504.32 548.539c-20.95-13.059-43.03-25.039-66.11-35.828-7.27.328-14.75.508-22.51.508-93.46.082-193.02-62.77-314.7-68.91h-37.15c-116.147 6.07-194.026 67.703-324.541 68.91-2.793.031-5.559.011-8.301-.047-22.801 10.726-44.613 22.598-65.328 35.519 22.519 4.809 46.804 7.95 73.633 8.207 134.164 1.293 237.015-68.097 346.457-69.378 109.44-1.282 213.91 69.378 333.23 69.378 32.3 0 60.23-3.25 85.32-8.359M1427.26 1383.18c-5.55-1.91-16.57-7.51-27.46-11.65-10.9-4.15-21.69-6.86-27.01-9.37-8.17-3.84-15.9-13.48-24.44-17.69-9.09-4.48-19.03-3.54-28.58-8.19-11.98-5.82-23.77-16.26-35.66-22.23-16.29-8.2-32.65-12.06-49.55-18.83-9.55-3.83-22.95-1.81-32.63-5.2-15.84-5.56-30.39-11.21-46.81-14.93-43-9.75-78.15-3.96-123.5 8.8-6.65 1.88-9.65-1.54-17.53.05-11.51 2.32-28.238 9.79-39.051 14.19-1.094.43-1.992-1.99-1.68-3.12 6.563-23.42.95-48.46-9.304-69.49-4.082-8.41-10.754-9.59-20.09-8.89-15.203 1.14-23.875 17.44-51.895 14.3-7.304-.82-23.769-3.45-28.039-9.44-14.258-19.99-19.152-31.28-38.39-36.07-11.086-2.76-18.922 7.69-27.235 16.7-2.797 3.03-9.539-1.43-8.093-5.3 11.976-32.06 9.359-67.27 30.394-80.21.063-10.78 3.492-25.39 11.285-32.88 15.813-15.2 21.629-10.25 34.375-15.83 14.434-6.32 15.703-14.99 42.434-18.13 15.867-1.87 27.398 11.2 41.226 4.92 13.078-5.95 15.918-16.99 20.434-31.56.934-3.02 5.934.84 10.957-.22 5.027-1.06 7.273-6.61 9.512-4.38 2.207 2.19-.664 10.72-3.43 16.19-4.082 8.06 4.863 16.55 11.688 20.02 6.772 3.45 13.732 6.37 20.872 8.88 10.9 3.84 29.04-1.38 40.46 1.18 20.3 4.55 38.67 10.81 56.75 18.44 6.17 2.6 14.04 10.07 20.22 12.97 6.18 2.91 10.64 1.27 16.95 4.45 14.54 7.36 4.39 37.04 18.83 44.62 15.47 8.11 39.77 4.55 52.93-6.4 2.88-2.42 15.72 11.18 20.55 11.5 22.02 1.49 25.53-2.2 35.84-8.5 11.71-7.15 7.5 2.4.21 17.95-5.53 11.77-16.98 16.84-24.96 27.7-13.34 18.08-25.71 23.68-15.05 51.52 2.85 7.47 6.62 14.26 11.15 20.53 6.32 8.77 19.02-4.28 27.86 2.71 4.66 3.68 5.85 15.45 10.9 19.22 7.09 5.27 11.53 11.28 19.36 16.29 10.64 6.8 21.95 10.18 33.58 16.67 12.06 6.74 21.19 14.05 33.07 21.52 4.22 2.63 7.75 10.89 11.81 13.58 12.73 8.44 22.03 12.54 34.64 17.02 3.66 1.31 9.73 19.22 2.1 16.59" style="fill:#f1511b;fill-opacity:1;fill-rule:evenodd;stroke:none" transform="matrix(.13333 0 0 -.13333 0 289.68)"></path><path d="m315.465 1388.49-53.313 3.33 42.317-32.52zm31.945-2.31-17.562-46.63 19.504-14.74-15.797-41.93-114.102 100.02 16.875 44.8 151.735-.12-16.204-43.01zM381.719 1527.44l-20.047-33.16-22.973 13.88 20.051 33.16zm13.687-31.48q7.618 12.6 3.418 23.91c-2.801 7.54-10.832 15.33-24.097 23.34-22.168 13.4-38.414 11.56-48.735-5.51-10.129-16.75-3.527-32.18 19.801-46.28 22.883-13.83 39.422-12.33 49.613 4.54m-97.609 58.77q18.394 30.435 44.547 36.99c17.429 4.36 35.992.6 55.668-11.3 20.508-12.39 32.98-27.31 37.422-44.75 4.437-17.44.757-35.92-11.036-55.43-13.23-21.89-28.785-34.56-46.648-38.03-17.871-3.46-36.148.45-54.828 11.75-19.625 11.86-31.762 26.59-36.402 44.19-4.645 17.6-.883 36.46 11.277 56.58M555.371 1650.11l-30.449-34.31-97.949 43.91 55.855-91.36-29.637-33.4-71.214 133.75 31.543 35.55z" style="fill:#fff;fill-opacity:1;fill-rule:nonzero;stroke:none" transform="matrix(.13333 0 0 -.13333 0 289.68)"></path><path d="m465.043 1758.18 34.59 27.02 30.597-39.18 37.797 29.53-30.593 39.17 34.738 27.14 87.433-111.95-34.742-27.13-35.367 45.28-37.797-29.52 35.367-45.29-34.589-27.01zM593.07 1855.32l117.907 62.44 16.41-30.99-39.555-20.95 50.059-94.53-38.789-20.54-50.059 94.53-39.555-20.96zM730.859 1923.89l41.075 15.74L822.77 1807l-41.075-15.74zM802.203 1952.21l42.731 10.02 12.254-52.26 32.507 62.76 56.821 13.33-38.203-64.04 72.91-73.72-52.618-12.34-42.5 50.04-16.664-28.31 7.93-33.74-42.738-10.02zM1011.62 1918.42c.59-14.33 3.67-24.51 9.25-30.56 5.59-6.04 12.95-8.87 22.12-8.5 9.42.39 16.59 3.75 21.5 10.09s7.04 17.45 6.4 33.33c-.55 13.36-3.64 23.01-9.28 28.95-5.64 5.95-13.07 8.73-22.3 8.35-8.85-.36-15.81-3.78-20.92-10.26-5.1-6.48-7.35-16.94-6.77-31.4m-43.854-1.6c-.95 23.17 4.773 41.48 17.156 54.91 12.375 13.43 30.088 20.62 53.128 21.56 23.62.96 42.08-4.63 55.38-16.8 13.29-12.15 20.41-29.66 21.34-52.51.67-16.59-1.57-30.3-6.71-41.14-5.15-10.84-12.88-19.44-23.2-25.77-10.31-6.34-23.34-9.82-39.08-10.47-16-.65-29.35 1.36-40.06 6.03q-16.038 7.005-26.49 23.16c-6.964 10.77-10.792 24.45-11.464 41.03M1240.67 1834.45l-118.79 15.91 4.08 30.44 47.35 36.82-36.47 44.42 3.89 29.1 116.58-15.61-4.05-30.25-69.62 9.32 36.25-43.22-46.78-35.43 71.83-9.62zM1354.65 1873.21c-5.27-13.34-6.57-23.91-3.92-31.69 2.66-7.78 8.25-13.36 16.79-16.73 8.77-3.46 16.68-3.28 23.74.53s13.51 13.1 19.35 27.88c4.9 12.44 5.98 22.51 3.23 30.23-2.76 7.72-8.42 13.28-17.01 16.67-8.24 3.25-16 2.94-23.29-.92-7.28-3.86-13.58-12.52-18.89-25.97m-40.75 16.29c8.51 21.57 21.15 35.99 37.91 43.26 16.75 7.28 35.86 6.68 57.31-1.79 21.98-8.68 36.6-21.27 43.84-37.77 7.23-16.5 6.65-35.39-1.75-56.66-6.09-15.44-13.69-27.08-22.79-34.91-9.09-7.83-19.64-12.55-31.63-14.17-12-1.62-25.33.46-39.98 6.25-14.91 5.88-26.3 13.13-34.18 21.72-7.89 8.61-12.84 19.24-14.86 31.91-2.01 12.67.03 26.72 6.13 42.16M1505.56 1887.43l48.27-31.64-28.76-84.48 65.86 60.16 48.24-31.63-77.86-118.79-30.07 19.71 59.39 90.59-82.55-75.4-27.21 17.83 36.26 105.75-59.39-90.59-30.05 19.7zM1661.94 1776.98l32.85-29.27-94.52-106.02-32.84 29.27z" style="fill:#fff;fill-opacity:1;fill-rule:nonzero;stroke:none" transform="matrix(.13333 0 0 -.13333 0 289.68)"></path><path d="m1703.13 1528.71-30.12 34.61 56.14 91.49-97.77-43.64-29.31 33.68 141.79 53.43 31.2-35.86zM1780.02 1535.16c-12.34-7.3-19.86-14.83-22.55-22.6-2.68-7.77-1.69-15.61 2.97-23.51 4.8-8.12 11.15-12.84 19.06-14.17s18.71 2.05 32.39 10.13c11.52 6.8 18.56 14.09 21.13 21.87 2.56 7.78 1.5 15.65-3.21 23.6-4.49 7.62-10.81 12.15-18.92 13.57-8.13 1.43-18.41-1.53-30.87-8.89m-22.16 37.89q29.955 17.685 56.49 10.86c17.69-4.55 32.41-16.76 44.14-36.61 12.02-20.35 15.82-39.26 11.39-56.73-4.42-17.47-16.48-32.02-36.17-43.65-14.29-8.44-27.43-12.96-39.42-13.55s-23.22 2.15-33.67 8.24c-10.46 6.09-19.7 15.91-27.72 29.48-8.14 13.8-12.69 26.51-13.63 38.14-.95 11.63 1.68 23.07 7.87 34.31 6.19 11.23 16.43 21.06 30.72 29.51M1813.99 1293.67l-41.9 112.29 28.78 10.73 54.77-24.44 22.03 53.1 27.5 10.26 41.12-110.2-28.59-10.66-24.57 65.8-21.06-52.32-53.28 24.59 25.34-67.91zM625.039 362.77l14.707 51.339-40.851-34.328zm-9.121-30.711-41.762 27.179-18.59-15.879-37.562 24.442 122.211 89.929 40.129-26.109-32.731-148.152-38.527 25.062zM807.539 330.672l-62.773 27.887-43.512-97.93-40.02 17.781 57.672 129.809 102.797-45.68z" style="fill:#fff;fill-opacity:1;fill-rule:nonzero;stroke:none" transform="matrix(.13333 0 0 -.13333 0 289.68)"></path><path d="m817.23 366.359 41.813-13.66-44.125-135.008-41.809 13.661zM923.223 247.441l-5.352 53.137-25.226-47.019zm2.898-31.902-48.855 9.77-11.387-21.629-43.945 8.789 80.222 128.801 46.946-9.391 24.461-149.75-45.067 9.019zM1029.67 320.211l40.97 1.141 55.64-77.071-2.18 78.547 41.36 1.152 3.93-141.98-41.35-1.148-55.33 76.476 2.15-77.957-41.26-1.141zM1269.2 255.809l-25.97 46.679-4.55-53.168zm15.29-28.149-48.74-10.371-1.88-24.371-43.84-9.328 22.66 150.039 46.82 9.973 81.77-127.832-44.96-9.559zM1486.15 274.941l-40.44-16.82-41.13 98.949-44.55-18.531 41.13-98.937-40.44-16.813-54.52 131.152 125.43 52.149zM1553.17 379.941l-40.99 34.227 14.86-51.25zm24.4-20.773-41.76-27.188 6.99-23.421-37.55-24.457-32.77 148.16 40.12 26.117 122.23-89.899-38.51-25.07z" style="fill:#fff;fill-opacity:1;fill-rule:nonzero;stroke:none" transform="matrix(.13333 0 0 -.13333 0 289.68)"></path><path d="m901.926 1440.77-105.149 150.58 21.637 15.11 105.149-150.57zM1009.65 1624.68c-2.19 8.7-6.94 15.46-14.267 20.28-7.539 4.95-15.403 6.4-23.586 4.34-8.359-2.1-14.668-6.46-18.914-13.09-4.172-6.98-5.246-14.47-3.235-22.47 1.973-7.84 6.575-13.62 13.809-17.35 7.488-4.04 15.332-5.03 23.516-2.97q13.84 3.48 24.987 16.56c-.17 2.18-.43 4.48-.76 6.9-.33 2.41-.85 5.01-1.55 7.8m28.54-1.98c5.39-21.42 4.19-44.96-3.6-70.61q-5.73-19.215-15.39-35.4a162 162 0 0 0-22.911-29.78l-20.398 14.86c25.769 27.77 38.269 54.62 37.489 80.52-7.27-7.2-15.853-12.04-25.782-14.54-14.278-3.59-27.469-1.55-39.578 6.14-12.344 7.82-20.305 18.87-23.899 33.15-3.547 14.1-1.633 27.44 5.75 40.04 7.688 13.6 19.445 22.39 35.297 26.38 16.355 4.12 31.387 1.42 45.072-8.1 13.91-9.65 23.23-23.86 27.95-42.66M1199.1 1621.42c1.44 8.86-.26 16.95-5.08 24.28-4.97 7.53-11.62 11.96-19.95 13.31-8.5 1.37-16.02-.14-22.55-4.55-6.59-4.75-10.53-11.21-11.85-19.35-1.29-7.98.64-15.11 5.82-21.41 5.28-6.67 12.09-10.67 20.42-12.02 9.39-1.52 19.23.26 29.5 5.33.7 2.07 1.38 4.28 2.03 6.63.66 2.35 1.2 4.94 1.66 7.78m25.44-13.11c-3.52-21.8-13.93-42.94-31.24-63.42-8.57-10.26-17.95-19.07-28.13-26.43a162 162 0 0 0-32.83-18.29l-12.86 21.72c34.66 15.31 56.75 35.03 66.28 59.13-9.51-3.74-19.31-4.8-29.42-3.16-14.53 2.34-25.85 9.44-33.94 21.29-8.23 12.06-11.18 25.36-8.83 39.89 2.32 14.36 9.36 25.86 21.12 34.51 12.44 9.45 26.72 12.88 42.85 10.27 16.65-2.69 29.38-11.11 38.2-25.26 8.96-14.36 11.89-31.11 8.8-50.25M1356.41 1507.57c12.02 17.65 19.15 33.22 21.37 46.69 2.08 13.57-1.1 23.24-9.56 29-8.45 5.76-18.5 5.22-30.11-1.64-11.88-6.91-23.88-19.25-36.01-37.06-12.03-17.66-19.16-33.22-21.38-46.69-2.08-13.57 1.12-23.24 9.57-29 8.46-5.76 18.49-5.22 30.12 1.64 11.87 6.9 23.87 19.25 36 37.06m21.8-14.86c-15.87-23.3-33.1-39.03-51.71-47.21q-28.275-12.345-50.31 2.67c-14.69 10.01-21.63 25.16-20.83 45.47.74 20.56 9.06 42.48 24.93 65.78 15.97 23.44 33.25 39.25 51.87 47.43 18.89 7.98 35.61 7.02 50.15-2.89 14.69-10.01 21.65-25.17 20.84-45.48-.55-20.25-8.86-42.18-24.94-65.77" style="fill:#f1511b;fill-opacity:1;fill-rule:nonzero;stroke:none" transform="matrix(.13333 0 0 -.13333 0 289.68)"></path><path d="M2144.27 1086.33c0-584.299-473.64-1057.978-1057.96-1057.978C501.988 28.352 28.344 502.03 28.344 1086.33S501.988 2144.3 1086.31 2144.3c584.32 0 1057.96-473.67 1057.96-1057.97z" style="fill:none;stroke:#f1511b;stroke-width:56.69290161;stroke-linecap:butt;stroke-linejoin:miter;stroke-miterlimit:10;stroke-dasharray:none;stroke-opacity:1" transform="matrix(.13333 0 0 -.13333 0 289.68)" data-source="https://football-logos.cc"></path><!-- source: https://football-logos.cc --></svg>