<svg xmlns="http://www.w3.org/2000/svg" viewBox="66.38 146.04 644.58 839.11"><!-- Source: https://football-logos.cc --><path d="M450.585 233.164c61.632 91.473 101.161 268.334 74.865 423.028 0 0-19.431-24.572-62.79-37.433-47.495-14.087-86.899 1.657-122.36 33.408-34.614 30.992-48.3 79.694-48.3 79.694s-13.685-48.702-48.3-79.694c-35.461-31.751-74.865-47.495-122.36-33.408-43.358 12.86-62.79 37.433-62.79 37.433-26.297-154.694 13.233-331.555 74.865-423.028C192.717 145.15 292 102.526 292 102.526s99.282 42.624 158.585 130.638" style="fill:#231f20;fill-opacity:1;fill-rule:nonzero;stroke:none" transform="matrix(1.33333 0 0 -1.33333 -.667 1121.853)" data-source="https://football-logos.cc"></path><path d="M246.385 649.169c25.187 22.55 39.376 53.648 45.615 70.198 6.24-16.55 20.429-47.648 45.615-70.198 40.474-36.24 81.751-47.45 126.19-34.27 31.016 9.2 50.015 24.118 58.865 32.53 4.65-30.037 7.083-61.305 7.083-93.33 0-43.349-4.248-87.97-12.716-132.374-14.19-74.41-38.975-140.576-69.79-186.312C393.327 155.388 304.777 112.787 292 106.94c-12.775 5.847-101.327 48.448-155.247 128.473-30.815 45.736-55.6 111.902-69.79 186.312-8.468 44.404-12.716 89.024-12.716 132.371 0 32.026 2.434 63.296 7.083 93.334 8.85-8.413 27.85-23.33 58.866-32.53 44.438-13.18 85.716-1.97 126.189 34.269" style="fill:#fff;fill-opacity:1;fill-rule:nonzero;stroke:none" transform="matrix(1.33333 0 0 -1.33333 -.667 1121.853)"></path><path d="M291.999 681.684c8.428-14.882 19.848-31.057 34.874-44.51 44.982-40.275 91.27-52.61 141.509-37.709 17.164 5.091 30.995 11.8 41.87 18.461 2.186-20.832 3.403-42.136 3.403-63.835 0-14.382-.48-28.911-1.438-43.53H71.782a666 666 0 0 0-1.438 43.53c0 21.699 1.216 43.003 3.403 63.835 10.874-6.66 24.706-13.37 41.87-18.46 50.239-14.902 96.526-2.567 141.508 37.707 15.027 13.454 26.446 29.629 34.875 44.511zM292 124.794c-23.855 11.858-96.163 51.742-141.894 119.615-29.627 43.972-53.538 108.013-67.328 180.331a708 708 0 0 0-9.634 68.427h437.711a709 709 0 0 0-9.635-68.427c-13.79-72.318-37.701-136.36-67.327-180.33-45.731-67.874-118.04-107.758-141.894-119.616Z" style="fill:#231f20;fill-opacity:1;fill-rule:nonzero;stroke:none" transform="matrix(1.33333 0 0 -1.33333 -.667 1121.853)"></path><path d="M505.5 488.338c-2.062-20.858-5.062-41.915-9.025-62.694-13.67-71.687-37.318-135.093-66.588-178.535C385.744 181.59 315.609 142.179 292 130.212c-23.61 11.965-93.743 51.377-137.889 116.897-29.27 43.442-52.918 106.848-66.589 178.535-3.961 20.774-6.961 41.833-9.022 62.694z" style="fill:#248555;fill-opacity:1;fill-rule:nonzero;stroke:none" transform="matrix(1.33333 0 0 -1.33333 -.667 1121.853)" data-source="https://football-logos.cc"></path><path d="m366.042 400.21-83.94-61.628c-.827-.608-2.166-.675-3.05-.154l-97.04 57.223c-.245.144-.712.12-.94-.049l-1.62-1.196 100.021-60.203c.622-.375 1.682-.328 2.27.099l88.963 64.761-3.35 1.32c-.363.14-1.002.057-1.315-.173" style="fill:#231f20;fill-opacity:1;fill-rule:nonzero;stroke:none" transform="matrix(1.33333 0 0 -1.33333 -.667 1121.853)"></path><path d="m223.027 455.566-84.735-40.161c-.579-.274-.873-1.01-.644-1.606l2.568-6.696a1.075 1.075 0 0 1 1.424-.614l65.366 26.96c.294.122 1.074.444 1.447-.173.373-.615-.276-1.16-.52-1.362l-93.878-78.4a1.385 1.385 0 0 1-.185-1.932l3.21-3.938c.48-.59 1.413-.719 2.035-.28l43.4 30.493c.435.305.909.365 1.301.161.392-.202.618-.625.618-1.157V347.34c0-.9.65-2.136 1.39-2.647l61.912-42.739c.582-.402.92-.99.93-1.613.01-.624-.312-1.222-.882-1.64l-50.357-36.974c-1.661-1.22-2.508-3.125-1.812-4.077l4.466-6.11a1.21 1.21 0 0 1 1.628-.28l58.14 39.731c1.065.729 2.734.725 3.797-.009l30.786-21.251c.57-.395 1.67-.623 2.351-.49l133.897 26.216a.695.695 0 0 0 .753-.366l16.17-31.555c.142-.275.33-.441.53-.466.199-.026.422.088.628.319l4.88 5.496c.566.64.759 1.886.412 2.666l-19.105 42.918a.7.7 0 0 0-.06.293l.714 47.224a.699.699 0 0 0 1.074.576l46.488-29.878c.252-.161.45-.192.525-.152.077.041.161.223.167.522l.171 8.808c.017.893-.615 2.116-1.354 2.618l-87.508 59.472c-1.363.926-3.858 2.17-5.448 2.716l-142.995 49.105c-1.006.346-2.733.25-3.695-.207m-42.956-195.274 89.632 65.246c.787.574 1.203 1.283 1.173 2-.03.716-.505 1.387-1.338 1.89l-95.413 57.806c-1.308.792-3.451.694-4.68-.212l-49.283-36.335a1.775 1.775 0 0 0-2.398.299l-.44.536c-.594.726-.489 1.8.236 2.396l102.295 84.02c1.068.878 1.59 2.341 1.117 3.132-.471.789-1.994 1.003-3.259.46l-73.756-31.608c-.862-.308-1.821-.195-2.386 1l-.501 1.283a1.9 1.9 0 0 0-.126.672c0 .727.418 1.436 1.104 1.754L223.9 452.21c.956.439 2.485.51 3.48.165l144.245-50.385c.893-.312 2.208-.967 2.994-1.492l85.54-57.15c.725-.487 1.252-1.507 1.229-2.374l-.036-1.47c-.016-.56-.263-1.006-.676-1.224s-.92-.17-1.39.132l-79.214 51.001c-.711.458-1.947.439-2.644-.041l-194.76-134.22c-.723-.5-1.7-.37-2.18.286l-1.518 2.078c-.556.855-.349 1.685 1.101 2.775m51.054 43.576L168.5 346.655c-.819.558-1.435 1.726-1.435 2.717v30.305c0 .779.481 1.703 1.12 2.15l3.309 2.32c.681.478 1.732.51 2.443.077l90.11-55.086c.713-.436 1.138-1.093 1.168-1.803.03-.711-.339-1.401-1.01-1.895l-29.296-21.509c-1.049-.77-2.71-.798-3.784-.064m51.897-27.51c.008 6.3.021 32.204-.342 37.708-.047.699-.766.62-1.074.414l-1.8-1.208c-.265-.18-.526-.667-.526-.987v-38.72a.7.7 0 0 0-.56-.683l-.73-.145c-.668-.134-1.556.166-2.09.53l-29.317 20.045c-.41.28-.645.696-.646 1.141 0 .445.235.861.646 1.143l131.323 89.746c.419.285.924.375 1.387.246.462-.13.847-.468 1.056-.928l50.889-112.323c.375-.829.201-1.965-.404-2.643l-.754-.847c-.354-.397-.828-.591-1.3-.53-.469.059-.879.366-1.122.839l-54.974 106.977c-.297.577-.786.984-1.377 1.141-.592.158-1.218.05-1.764-.304l-.725-.47c-1.28-.83-2.362-2.82-2.362-4.347v-74.854c0-.213.073-.39.207-.502.135-.11.324-.15.533-.11l2.261.433c.527.1.977.658.963 1.194l-1.806 71.333c-.053 2.147.36 3.303 1.268 3.534.906.231 1.824-.586 2.803-2.496l36.731-71.658a.696.696 0 0 0-.488-1.003l-124.309-24.01c-1.393-.258-1.574.558-1.597 2.344m102.666 103.849c-.352.79-.066 1.199.136 1.372.201.172.65.394 1.376-.072l24.661-15.851c.74-.474 1.282-1.495 1.262-2.374l-.865-38.297c-.02-.854-.4-1.109-.716-1.172s-.766.024-1.112.806v-.001zM271.5 282.14c0-.326.26-.832.524-1.023l2.1-1.51.006 30.871c-.686-.008-1.59.1-2.63.376zm3.25 28.368.063.003c-.018 0-.045 0-.063-.003" style="fill:#231f20;fill-opacity:1;fill-rule:nonzero;stroke:none" transform="matrix(1.33333 0 0 -1.33333 -.667 1121.853)"></path><path d="M88.538 572.734q5.663 8.425 15 8.425h.551q9.722 0 15.191-8.733t5.47-21.098-5.47-21.059c-3.431-5.456-8.122-8.33-14.066-8.663-1.793-.1-2.414-.09-2.622-.079q-9.047.478-14.248 8.742-5.468 8.693-5.468 21.059 0 12.982 5.662 21.406m5.081-25.695q.083-2.281.306-4.598.66-6.338 2.815-11.708 2.156-5.372 7.073-5.525 4.86.152 7.043 5.525 2.182 5.37 2.79 11.708.275 2.316.36 4.598.083 2.28.083 4.289t-.084 4.29a81 81 0 0 1-.303 4.598q-.664 6.334-2.82 11.707-2.154 5.37-7.07 5.527-4.863-.157-7.043-5.527-2.183-5.373-2.789-11.707a55 55 0 0 1-.36-4.599q-.083-2.28-.082-4.29 0-2.01.081-4.288M134.589 534.013c-.28-1.037-.968-3.795-1.054-4.245-.05-.257-.165-1.263-.165-1.469q-.001-2.087 1.27-2.704a7.1 7.1 0 0 1 2.762-.697h.884v-2.24H125.47v2.24h.332q1.215 0 2.044.58.828.58 1.547 2.28.33.694.635 1.66.303.968.635 2.205l13.756 49.536h1.877l15.438-51.89s.518-1.604.639-1.872q.345-.77.8-1.455.69-1.044 2.072-1.044h.165v-2.24H146.24v2.24h1.712q2.598 0 3.178.966t.58 2.125q0 .619-.083.967c-.057.231-.695 2.464-.695 2.464l-8.78 30.109-7.001-25.439s-.272-.996-.562-2.077M187.263 551.072s6.843 19.498 7.05 20.092c.1.284.243.754.374 1.202.143.49.387 1.549.421 2.508.034.925-.202 1.584-.608 1.97a3.45 3.45 0 0 1-1.325.811q-.443.077-.83.116a7 7 0 0 1-.662.039h-.884v2.242h12.154v-2.242q-1.548 0-2.653-1.43a14 14 0 0 1-1.822-3.13 29 29 0 0 1-.773-1.932 44 44 0 0 1-.553-1.623l-8.23-22.796v-16.925q0-2.32.69-3.362t1.464-1.43q.331-.154.662-.193.33-.04.608-.039h2.266v-2.24h-20.993000000000002v2.24h2.264q.276-.001.608.04.33.037.664.193.772.386 1.464 1.429.69 1.043.69 3.362v14.065l-8.703 25.227c-.365 1.056-1.175 3.383-1.328 3.757q-.745 1.809-1.57 3.048-1.162 1.739-3.094 1.739h-.277v2.242h18.451v-2.242h-.22q-1.936-.001-2.487-.695-.552-.696-.552-1.7c0-.516.045-1.024.193-1.508.359-1.167 7.541-22.835 7.541-22.835M223.79 580.052l11.325-38.487 12.153 38.487h15.469000000000001v-2.242h-1.879q-.278 0-.608-.04a2.2 2.2 0 0 1-.662-.191q-.774-.388-1.465-1.432-.69-1.042-.69-3.36v-42.813q0-2.32.69-3.362.691-1.043 1.465-1.43a2.1 2.1 0 0 1 .662-.193q.33-.04.608-.039h1.88v-2.24h-20.22v2.24h1.877q.276-.001.609.04.33.037.663.193.772.386 1.462 1.429.692 1.043.692 3.362v41.963l-15.358-49.228h-2.044l-14.694 50.464v-43.2q0-2.318.69-3.361t1.464-1.43q.33-.154.663-.193.33-.04.607-.039h1.879v-2.24h-13.866000000000001v2.24h1.878q.276-.001.608.04.331.037.662.193.773.386 1.464 1.429t.692 3.362v42.812q-.001 2.32-.692 3.361-.69 1.044-1.464 1.432-.331.153-.662.191-.333.04-.608.04h-1.878v2.242h.552zM266.605 524.95h1.878q.276-.001.608.04.331.037.662.193.773.386 1.464 1.429t.692 3.362v42.812q0 2.32-.692 3.362-.69 1.044-1.464 1.43-.33.154-.662.193-.332.038-.608.039h-1.878v2.242h45.244v-2.242h-1.879q-.276 0-.607-.04a2.2 2.2 0 0 1-.663-.191q-.775-.388-1.464-1.432-.69-1.042-.69-3.36v-42.813q0-2.32.69-3.362t1.464-1.43q.33-.154.663-.193.33-.04.607-.039h1.88v-2.24h-20.220000000000002v2.24h1.879q.276-.001.607.04.33.037.663.193.773.386 1.464 1.429.69 1.043.69 3.362v46.367h-15.412v-46.367q0-2.32.69-3.362.691-1.043 1.465-1.43.331-.154.662-.193.33-.04.608-.039h1.877v-2.24h-20.218zM315.72 524.95h1.877q.275-.001.608.04.331.037.662.193.773.386 1.464 1.429t.692 3.362v42.812q-.001 2.32-.692 3.362-.69 1.044-1.464 1.43-.331.154-.662.193-.332.038-.608.039h-1.878v2.242h20.218v-2.242h-1.877a5 5 0 0 1-.608-.04 2.2 2.2 0 0 1-.662-.191q-.775-.388-1.466-1.432-.69-1.042-.69-3.36v-42.813q0-2.32.69-3.362.692-1.043 1.466-1.43.33-.154.662-.193.33-.04.608-.039h1.877v-2.24h-20.218zM347.8 536.094a377 377 0 0 1-1.112-4.125c-.137-.517-.354-1.657-.505-2.532-.102-.587-.17-1.415-.162-1.546q.115-1.742 1.257-2.296a7.1 7.1 0 0 1 2.762-.697h.884v-2.24h-12.818v2.24h.332q1.216 0 2.044.58.619.433 1.175 1.49c.127.239.805 1.805 1.008 2.45q.303.967.635 2.205l13.756 49.536h1.877s9.738-32.701 13.543-45.432c.9-3.013 2.75-9.006 3.334-9.785.5-.668 1.15-1.044 2.072-1.044h.165v-2.24h-19.169v2.24h1.712q2.596 0 3.178.966a4 4 0 0 1 .58 2.125c-.01 1.067-.292 1.75-.642 3.01l-2.672 9.202h-12.099zm2.185 7.816h10.165l-5.359 17.619zM404.404 530.746c-.173.381-8.194 18.624-8.194 18.624l-.995-1.545v-17.851q0-2.32.69-3.362.691-1.043 1.466-1.43.331-.154.661-.193t.609-.039h1.547v-2.24H380.3v2.24h1.877q.276-.001.61.04.33.037.661.193.772.386 1.464 1.429.691 1.043.692 3.362v42.812q0 2.32-.692 3.361-.692 1.044-1.464 1.432-.331.153-.662.192-.333.038-.609.039H380.3v2.242h20.218v-2.242h-1.877q-.279 0-.609-.04a2.2 2.2 0 0 1-.661-.191q-.775-.388-1.466-1.432-.69-1.042-.69-3.36v-19.398l11.492 19.012c.33.566.904 1.877.959 2.086.105.405.146.853.127 1.381a2.4 2.4 0 0 1-.425 1.284q-.442.658-1.602.658h-2.044v2.242h15.745000000000001v-2.242q-3.095-.079-5-1.275-1.906-1.198-3.508-3.516a65 65 0 0 1-1.325-2.01l-7.07-11.436s13.525-29.833 13.76-30.326c.315-.657.702-1.46.806-1.65q.473-.864.983-1.526.801-1.043 2.183-1.12v-2.242h-17.954v2.241h1.27q.828-.001 1.464.31.635.31.635 1.546c0 .153-.04.385-.11.694-.28 1.25-1.089 3.003-1.197 3.246M439.03 521.617c-5.507.596-9.886 3.484-13.137 8.652q-5.469 8.693-5.469 21.059 0 12.982 5.662 21.406 5.662 8.425 15 8.425h.552q9.721 0 15.19-8.733 5.47-8.733 5.47-21.098 0-12.366-5.47-21.059c-3.252-5.17-7.637-8-13.144-8.591-1.911-.206-3.622-.173-4.654-.06m-7.862 25.421a78 78 0 0 1 .305-4.598q.66-6.339 2.816-11.708 2.155-5.372 7.072-5.525 4.86.152 7.043 5.525 2.182 5.37 2.79 11.708.276 2.316.36 4.598.082 2.28.083 4.289-.001 2.01-.083 4.29a81 81 0 0 1-.304 4.598q-.664 6.334-2.818 11.707-2.157 5.37-7.071 5.527-4.863-.157-7.044-5.527-2.183-5.373-2.79-11.707a55 55 0 0 1-.359-4.599q-.082-2.28-.082-4.29t.082-4.288M499.6 543.648h1.584l-1.221-20.794H464.75v1.533l13.037 26.08-13.649 27.1v2.558h33.511l1.341-15.512h-1.34c-.975 4.433-2.316 7.5-4.023 9.545-1.706 1.876-4.142 2.9-7.431 2.9h-10.724l9.138-18.922-11.697-23.01h19.74c2.193 0 3.655.512 4.51 1.705.852 1.192 1.705 3.408 2.436 6.817" style="fill:#248555;fill-opacity:1;fill-rule:nonzero;stroke:none" transform="matrix(1.33333 0 0 -1.33333 -.667 1121.853)" data-source="https://football-logos.cc"></path><!-- source: https://football-logos.cc --></svg>