<svg xmlns="http://www.w3.org/2000/svg" xml:space="preserve" viewBox="0 0.45 64.9 84.84"><!-- Source: https://football-logos.cc --><defs data-source="https://football-logos.cc"><clipPath id="a" clipPathUnits="userSpaceOnUse"><path d="M2026.088 426.625h36.505v48.016h-36.505z"></path></clipPath><clipPath id="b" clipPathUnits="userSpaceOnUse"><path d="M0 0h1191v842H0Z"></path></clipPath><clipPath id="c" clipPathUnits="userSpaceOnUse"><path d="M2026.088 426.625h36.505v48.016h-36.505z"></path></clipPath><clipPath id="d" clipPathUnits="userSpaceOnUse"><path d="M0 0h1191v842H0Z"></path></clipPath><clipPath id="e" clipPathUnits="userSpaceOnUse"><path d="M2012.88 426.625h62.917v48.016h-62.917Z"></path></clipPath><clipPath id="f" clipPathUnits="userSpaceOnUse"><path d="M0 0h1191v842H0Z"></path></clipPath><clipPath id="g" clipPathUnits="userSpaceOnUse"><path d="M2012.88 426.625h62.917v48.016h-62.917Z"></path></clipPath><clipPath id="h" clipPathUnits="userSpaceOnUse"><path d="M0 0h1191v842H0Z"></path></clipPath><clipPath id="i" clipPathUnits="userSpaceOnUse"><path d="M2012.88 426.625h62.917v48.016h-62.917Z"></path></clipPath><clipPath id="j" clipPathUnits="userSpaceOnUse"><path d="M0 0h1191v842H0Z"></path></clipPath><clipPath id="k" clipPathUnits="userSpaceOnUse"><path d="M2012.88 426.625h62.917v48.016h-62.917Z"></path></clipPath><clipPath id="l" clipPathUnits="userSpaceOnUse"><path d="M0 0h1191v842H0Z"></path></clipPath><clipPath id="m" clipPathUnits="userSpaceOnUse"><path d="M2012.88 426.625h62.917v48.016h-62.917Z"></path></clipPath><clipPath id="n" clipPathUnits="userSpaceOnUse"><path d="M0 0h1191v842H0Z"></path></clipPath><clipPath id="o" clipPathUnits="userSpaceOnUse"><path d="M2012.88 426.625h62.917v48.016h-62.917Z"></path></clipPath><clipPath id="p" clipPathUnits="userSpaceOnUse"><path d="M0 0h1191v842H0Z"></path></clipPath><clipPath id="q" clipPathUnits="userSpaceOnUse"><path d="M2012.88 426.625h62.917v48.016h-62.917Z"></path></clipPath><clipPath id="r" clipPathUnits="userSpaceOnUse"><path d="M0 0h1191v842H0Z"></path></clipPath><clipPath id="s" clipPathUnits="userSpaceOnUse"><path d="M2012.88 426.625h62.917v48.016h-62.917Z"></path></clipPath><clipPath id="t" clipPathUnits="userSpaceOnUse"><path d="M0 0h1191v842H0Z"></path></clipPath><clipPath id="u" clipPathUnits="userSpaceOnUse"><path d="M2012.88 426.625h62.917v48.016h-62.917Z"></path></clipPath><clipPath id="v" clipPathUnits="userSpaceOnUse"><path d="M0 0h1191v842H0Z"></path></clipPath><clipPath id="w" clipPathUnits="userSpaceOnUse"><path d="M2012.88 426.625h62.917v48.016h-62.917Z"></path></clipPath><clipPath id="x" clipPathUnits="userSpaceOnUse"><path d="M0 0h1191v842H0Z"></path></clipPath><clipPath id="y" clipPathUnits="userSpaceOnUse"><path d="M2012.88 426.625h62.917v48.016h-62.917Z"></path></clipPath><clipPath id="z" clipPathUnits="userSpaceOnUse"><path d="M0 0h1191v842H0Z"></path></clipPath><clipPath id="A" clipPathUnits="userSpaceOnUse"><path d="M2012.88 426.625h62.917v48.016h-62.917Z"></path></clipPath><clipPath id="B" clipPathUnits="userSpaceOnUse"><path d="M0 0h1191v842H0Z"></path></clipPath><clipPath id="C" clipPathUnits="userSpaceOnUse"><path d="M2012.88 426.625h62.917v48.016h-62.917Z"></path></clipPath><clipPath id="D" clipPathUnits="userSpaceOnUse"><path d="M0 0h1191v842H0Z"></path></clipPath><clipPath id="E" clipPathUnits="userSpaceOnUse"><path d="M2012.88 426.625h62.917v48.016h-62.917Z"></path></clipPath><clipPath id="F" clipPathUnits="userSpaceOnUse"><path d="M0 0h1191v842H0Z"></path></clipPath><clipPath id="G" clipPathUnits="userSpaceOnUse"><path d="M2012.88 426.625h62.917v48.016h-62.917Z"></path></clipPath><clipPath id="H" clipPathUnits="userSpaceOnUse"><path d="M0 0h1191v842H0Z"></path></clipPath><clipPath id="I" clipPathUnits="userSpaceOnUse"><path d="M2012.88 426.625h62.917v48.016h-62.917Z"></path></clipPath><clipPath id="J" clipPathUnits="userSpaceOnUse"><path d="M0 0h1191v842H0Z"></path></clipPath><clipPath id="K" clipPathUnits="userSpaceOnUse"><path d="M2012.88 426.625h62.917v48.016h-62.917Z"></path></clipPath><clipPath id="L" clipPathUnits="userSpaceOnUse"><path d="M0 0h1191v842H0Z"></path></clipPath><clipPath id="M" clipPathUnits="userSpaceOnUse"><path d="M2012.88 426.625h62.917v48.016h-62.917Z"></path></clipPath><clipPath id="N" clipPathUnits="userSpaceOnUse"><path d="M0 0h1191v842H0Z"></path></clipPath><clipPath id="O" clipPathUnits="userSpaceOnUse"><path d="M2012.88 426.625h62.917v48.016h-62.917Z"></path></clipPath><clipPath id="P" clipPathUnits="userSpaceOnUse"><path d="M0 0h1191v842H0Z"></path></clipPath><clipPath id="Q" clipPathUnits="userSpaceOnUse"><path d="M2012.88 426.625h62.917v48.016h-62.917Z"></path></clipPath><clipPath id="R" clipPathUnits="userSpaceOnUse"><path d="M0 0h1191v842H0Z"></path></clipPath><clipPath id="S" clipPathUnits="userSpaceOnUse"><path d="M2012.88 426.625h62.917v48.016h-62.917Z"></path></clipPath><clipPath id="T" clipPathUnits="userSpaceOnUse"><path d="M0 0h1191v842H0Z"></path></clipPath><clipPath id="U" clipPathUnits="userSpaceOnUse"><path d="M2012.88 426.625h62.917v48.016h-62.917Z"></path></clipPath><clipPath id="V" clipPathUnits="userSpaceOnUse"><path d="M0 0h1191v842H0Z"></path></clipPath><clipPath id="W" clipPathUnits="userSpaceOnUse"><path d="M2012.88 426.625h62.917v48.016h-62.917Z"></path></clipPath><clipPath id="X" clipPathUnits="userSpaceOnUse"><path d="M0 0h1191v842H0Z"></path></clipPath><clipPath id="Y" clipPathUnits="userSpaceOnUse"><path d="M2012.88 426.625h62.917v48.016h-62.917Z"></path></clipPath><clipPath id="Z" clipPathUnits="userSpaceOnUse"><path d="M0 0h1191v842H0Z"></path></clipPath><clipPath id="aa" clipPathUnits="userSpaceOnUse"><path d="M2012.88 426.625h62.917v48.016h-62.917Z"></path></clipPath><clipPath id="ab" clipPathUnits="userSpaceOnUse"><path d="M0 0h1191v842H0Z"></path></clipPath><clipPath id="ac" clipPathUnits="userSpaceOnUse"><path d="M2012.88 426.625h62.917v48.016h-62.917Z"></path></clipPath><clipPath id="ad" clipPathUnits="userSpaceOnUse"><path d="M0 0h1191v842H0Z"></path></clipPath><clipPath id="ae" clipPathUnits="userSpaceOnUse"><path d="M2012.88 426.625h62.917v48.016h-62.917Z"></path></clipPath><clipPath id="af" clipPathUnits="userSpaceOnUse"><path d="M0 0h1191v842H0Z"></path></clipPath><clipPath id="ag" clipPathUnits="userSpaceOnUse"><path d="M2012.88 426.625h62.917v48.016h-62.917Z"></path></clipPath><clipPath id="ah" clipPathUnits="userSpaceOnUse"><path d="M0 0h1191v842H0Z"></path></clipPath><clipPath id="ai" clipPathUnits="userSpaceOnUse"><path d="M2012.88 426.625h62.917v48.016h-62.917Z"></path></clipPath><clipPath id="aj" clipPathUnits="userSpaceOnUse"><path d="M0 0h1191v842H0Z"></path></clipPath><clipPath id="ak" clipPathUnits="userSpaceOnUse"><path d="M2012.88 426.625h62.917v48.016h-62.917Z"></path></clipPath><clipPath id="al" clipPathUnits="userSpaceOnUse"><path d="M0 0h1191v842H0Z"></path></clipPath><clipPath id="am" clipPathUnits="userSpaceOnUse"><path d="M2012.88 426.625h62.917v48.016h-62.917Z"></path></clipPath><clipPath id="an" clipPathUnits="userSpaceOnUse"><path d="M0 0h1191v842H0Z"></path></clipPath><clipPath id="ao" clipPathUnits="userSpaceOnUse"><path d="M2012.88 426.625h62.917v48.016h-62.917Z"></path></clipPath><clipPath id="ap" clipPathUnits="userSpaceOnUse"><path d="M0 0h1191v842H0Z"></path></clipPath><clipPath id="aq" clipPathUnits="userSpaceOnUse"><path d="M2012.88 426.625h62.917v48.016h-62.917Z"></path></clipPath><clipPath id="ar" clipPathUnits="userSpaceOnUse"><path d="M0 0h1191v842H0Z"></path></clipPath><clipPath id="as" clipPathUnits="userSpaceOnUse"><path d="M2012.88 426.625h62.917v48.016h-62.917Z"></path></clipPath><clipPath id="at" clipPathUnits="userSpaceOnUse"><path d="M0 0h1191v842H0Z"></path></clipPath><clipPath id="au" clipPathUnits="userSpaceOnUse"><path d="M2012.88 426.625h62.917v48.016h-62.917Z"></path></clipPath><clipPath id="av" clipPathUnits="userSpaceOnUse"><path d="M0 0h1191v842H0Z"></path></clipPath><clipPath id="aw" clipPathUnits="userSpaceOnUse"><path d="M2012.88 426.625h62.917v48.016h-62.917Z"></path></clipPath><clipPath id="ax" clipPathUnits="userSpaceOnUse"><path d="M0 0h1191v842H0Z"></path></clipPath><clipPath id="ay" clipPathUnits="userSpaceOnUse"><path d="M2012.88 426.625h62.917v48.016h-62.917Z"></path></clipPath><clipPath id="az" clipPathUnits="userSpaceOnUse"><path d="M0 0h1191v842H0Z"></path></clipPath><clipPath id="aA" clipPathUnits="userSpaceOnUse"><path d="M2012.88 426.625h62.917v48.016h-62.917Z"></path></clipPath><clipPath id="aB" clipPathUnits="userSpaceOnUse"><path d="M0 0h1191v842H0Z"></path></clipPath><clipPath id="aC" clipPathUnits="userSpaceOnUse"><path d="M2012.88 426.625h62.917v48.016h-62.917Z"></path></clipPath><clipPath id="aD" clipPathUnits="userSpaceOnUse"><path d="M0 0h1191v842H0Z"></path></clipPath><clipPath id="aE" clipPathUnits="userSpaceOnUse"><path d="M2012.88 426.625h62.917v48.016h-62.917Z"></path></clipPath><clipPath id="aF" clipPathUnits="userSpaceOnUse"><path d="M0 0h1191v842H0Z"></path></clipPath><clipPath id="aG" clipPathUnits="userSpaceOnUse"><path d="M2012.88 426.625h62.917v48.016h-62.917Z"></path></clipPath><clipPath id="aH" clipPathUnits="userSpaceOnUse"><path d="M0 0h1191v842H0Z"></path></clipPath><clipPath id="aI" clipPathUnits="userSpaceOnUse"><path d="M2012.88 426.625h62.917v48.016h-62.917Z"></path></clipPath><clipPath id="aJ" clipPathUnits="userSpaceOnUse"><path d="M0 0h1191v842H0Z"></path></clipPath><clipPath id="aK" clipPathUnits="userSpaceOnUse"><path d="M2012.88 426.625h62.917v48.016h-62.917Z"></path></clipPath><clipPath id="aL" clipPathUnits="userSpaceOnUse"><path d="M0 0h1191v842H0Z"></path></clipPath><clipPath id="aM" clipPathUnits="userSpaceOnUse"><path d="M2012.88 426.625h62.917v48.016h-62.917Z"></path></clipPath><clipPath id="aN" clipPathUnits="userSpaceOnUse"><path d="M0 0h1191v842H0Z"></path></clipPath><clipPath id="aO" clipPathUnits="userSpaceOnUse"><path d="M2012.88 426.625h62.917v48.016h-62.917Z"></path></clipPath><clipPath id="aP" clipPathUnits="userSpaceOnUse"><path d="M0 0h1191v842H0Z"></path></clipPath><clipPath id="aQ" clipPathUnits="userSpaceOnUse"><path d="M2012.88 426.625h62.917v48.016h-62.917Z"></path></clipPath><clipPath id="aR" clipPathUnits="userSpaceOnUse"><path d="M0 0h1191v842H0Z"></path></clipPath><clipPath id="aS" clipPathUnits="userSpaceOnUse"><path d="M2012.88 426.625h62.917v48.016h-62.917Z"></path></clipPath><clipPath id="aT" clipPathUnits="userSpaceOnUse"><path d="M0 0h1191v842H0Z"></path></clipPath><clipPath id="aU" clipPathUnits="userSpaceOnUse"><path d="M2012.88 426.625h62.917v48.016h-62.917Z"></path></clipPath><clipPath id="aV" clipPathUnits="userSpaceOnUse"><path d="M0 0h1191v842H0Z"></path></clipPath><clipPath id="aW" clipPathUnits="userSpaceOnUse"><path d="M2012.88 426.625h62.917v48.016h-62.917Z"></path></clipPath><clipPath id="aX" clipPathUnits="userSpaceOnUse"><path d="M0 0h1191v842H0Z"></path></clipPath><clipPath id="aY" clipPathUnits="userSpaceOnUse"><path d="M2012.88 426.625h62.917v48.016h-62.917Z"></path></clipPath><clipPath id="aZ" clipPathUnits="userSpaceOnUse"><path d="M0 0h1191v842H0Z"></path></clipPath><clipPath id="ba" clipPathUnits="userSpaceOnUse"><path d="M2012.88 426.625h62.917v48.016h-62.917Z"></path></clipPath><clipPath id="bb" clipPathUnits="userSpaceOnUse"><path d="M0 0h1191v842H0Z"></path></clipPath><clipPath id="bc" clipPathUnits="userSpaceOnUse"><path d="M2012.88 426.625h62.917v48.016h-62.917Z"></path></clipPath><clipPath id="bd" clipPathUnits="userSpaceOnUse"><path d="M0 0h1191v842H0Z"></path></clipPath><clipPath id="be" clipPathUnits="userSpaceOnUse"><path d="M2012.88 426.625h62.917v48.016h-62.917Z"></path></clipPath><clipPath id="bf" clipPathUnits="userSpaceOnUse"><path d="M0 0h1191v842H0Z"></path></clipPath><clipPath id="bg" clipPathUnits="userSpaceOnUse"><path d="M2012.88 426.625h62.917v48.016h-62.917Z"></path></clipPath><clipPath id="bh" clipPathUnits="userSpaceOnUse"><path d="M0 0h1191v842H0Z"></path></clipPath><clipPath id="bi" clipPathUnits="userSpaceOnUse"><path d="M2012.88 426.625h62.917v48.016h-62.917Z"></path></clipPath><clipPath id="bj" clipPathUnits="userSpaceOnUse"><path d="M0 0h1191v842H0Z"></path></clipPath><clipPath id="bk" clipPathUnits="userSpaceOnUse"><path d="M2012.88 426.625h62.917v48.016h-62.917Z"></path></clipPath><clipPath id="bl" clipPathUnits="userSpaceOnUse"><path d="M0 0h1191v842H0Z"></path></clipPath><clipPath id="bm" clipPathUnits="userSpaceOnUse"><path d="M2012.88 426.625h62.917v48.016h-62.917Z"></path></clipPath><clipPath id="bn" clipPathUnits="userSpaceOnUse"><path d="M0 0h1191v842H0Z"></path></clipPath><clipPath id="bo" clipPathUnits="userSpaceOnUse"><path d="M2012.88 426.625h62.917v48.016h-62.917Z"></path></clipPath><clipPath id="bp" clipPathUnits="userSpaceOnUse"><path d="M0 0h1191v842H0Z"></path></clipPath><clipPath id="bq" clipPathUnits="userSpaceOnUse"><path d="M2012.88 426.625h62.917v48.016h-62.917Z"></path></clipPath><clipPath id="br" clipPathUnits="userSpaceOnUse"><path d="M0 0h1191v842H0Z"></path></clipPath><clipPath id="bs" clipPathUnits="userSpaceOnUse"><path d="M2012.88 426.625h62.917v48.016h-62.917Z"></path></clipPath><clipPath id="bt" clipPathUnits="userSpaceOnUse"><path d="M0 0h1191v842H0Z"></path></clipPath><clipPath id="bu" clipPathUnits="userSpaceOnUse"><path d="M2012.88 426.625h62.917v48.016h-62.917Z"></path></clipPath><clipPath id="bv" clipPathUnits="userSpaceOnUse"><path d="M0 0h1191v842H0Z"></path></clipPath><clipPath id="bw" clipPathUnits="userSpaceOnUse"><path d="M2012.88 426.625h62.917v48.016h-62.917Z"></path></clipPath><clipPath id="bx" clipPathUnits="userSpaceOnUse"><path d="M0 0h1191v842H0Z"></path></clipPath><clipPath id="by" clipPathUnits="userSpaceOnUse"><path d="M2012.88 426.625h62.917v48.016h-62.917Z"></path></clipPath><clipPath id="bz" clipPathUnits="userSpaceOnUse"><path d="M0 0h1191v842H0Z"></path></clipPath><clipPath id="bA" clipPathUnits="userSpaceOnUse"><path d="M2012.88 426.625h62.917v48.016h-62.917Z"></path></clipPath><clipPath id="bB" clipPathUnits="userSpaceOnUse"><path d="M0 0h1191v842H0Z"></path></clipPath><clipPath id="bC" clipPathUnits="userSpaceOnUse"><path d="M2012.88 426.625h62.917v48.016h-62.917Z"></path></clipPath><clipPath id="bD" clipPathUnits="userSpaceOnUse"><path d="M0 0h1191v842H0Z"></path></clipPath><clipPath id="bE" clipPathUnits="userSpaceOnUse"><path d="M2012.88 426.625h62.917v48.016h-62.917Z"></path></clipPath><clipPath id="bF" clipPathUnits="userSpaceOnUse"><path d="M0 0h1191v842H0Z"></path></clipPath><clipPath id="bG" clipPathUnits="userSpaceOnUse"><path d="M2012.88 426.625h62.917v48.016h-62.917Z"></path></clipPath><clipPath id="bH" clipPathUnits="userSpaceOnUse"><path d="M0 0h1191v842H0Z"></path></clipPath><clipPath id="bI" clipPathUnits="userSpaceOnUse"><path d="M2012.88 426.625h62.917v48.016h-62.917Z"></path></clipPath><clipPath id="bJ" clipPathUnits="userSpaceOnUse"><path d="M0 0h1191v842H0Z"></path></clipPath><clipPath id="bK" clipPathUnits="userSpaceOnUse"><path d="M2012.88 426.625h62.917v48.016h-62.917Z"></path></clipPath><clipPath id="bL" clipPathUnits="userSpaceOnUse"><path d="M0 0h1191v842H0Z"></path></clipPath><clipPath id="bM" clipPathUnits="userSpaceOnUse"><path d="M2012.88 426.625h62.917v48.016h-62.917Z"></path></clipPath><clipPath id="bN" clipPathUnits="userSpaceOnUse"><path d="M0 0h1191v842H0Z"></path></clipPath><clipPath id="bO" clipPathUnits="userSpaceOnUse"><path d="M2012.88 426.625h62.917v48.016h-62.917Z"></path></clipPath><clipPath id="bP" clipPathUnits="userSpaceOnUse"><path d="M0 0h1191v842H0Z"></path></clipPath><clipPath id="bQ" clipPathUnits="userSpaceOnUse"><path d="M2012.88 426.625h62.917v48.016h-62.917Z"></path></clipPath><clipPath id="bR" clipPathUnits="userSpaceOnUse"><path d="M0 0h1191v842H0Z"></path></clipPath></defs><g clip-path="url(#a)" transform="matrix(1.77769 0 0 1.77769 -3601.746 -758.479)"><path d="M327.254 355.707c7.348-1.293 13.418-6.695 13.418-13.633v-17.523l-2.891-.36c-1.488-3.05-7.187-3.734-10.527-3.734-3.336 0-9.039.684-10.524 3.734l-2.894.36v17.523c0 6.938 6.07 12.34 13.418 13.633" clip-path="url(#b)" style="fill:#fff;fill-opacity:1;fill-rule:nonzero;stroke:none" transform="matrix(1.33333 0 0 1.33333 1608 0)"></path></g><g clip-path="url(#c)" transform="matrix(1.77769 0 0 1.77769 -3601.746 -758.479)"><path d="m327.254 355.707.047.266c3.726-.657 7.129-2.352 9.609-4.77 2.477-2.422 4.035-5.578 4.035-9.129v-17.762l-3.133-.39-.031.269.242-.117c-.398-.824-1.078-1.472-1.902-1.984-1.242-.766-2.824-1.238-4.414-1.524a26 26 0 0 0-4.453-.378c-1.688 0-3.965.167-6.027.73-1.032.281-2.012.66-2.84 1.172-.825.512-1.5 1.16-1.903 1.984l.246.117-.035-.269-3.129.39v17.762c0 3.551 1.555 6.707 4.036 9.129 2.476 2.418 5.878 4.113 9.605 4.77l.047.007.047-.007zl.047-.269c-3.621-.637-6.93-2.29-9.321-4.626-2.39-2.335-3.871-5.347-3.871-8.738v-17.281l2.801-.348.063-.133c.343-.703.937-1.285 1.703-1.757 1.144-.715 2.672-1.176 4.222-1.453a25.4 25.4 0 0 1 4.356-.372c1.648 0 3.894.168 5.887.715.996.27 1.929.633 2.691 1.11.77.472 1.359 1.054 1.703 1.757l.063.133 2.8.348v17.281c0 3.391-1.476 6.403-3.871 8.738-2.39 2.336-5.695 3.989-9.32 4.626zl.047-.269z" clip-path="url(#d)" style="fill:#000;fill-opacity:1;fill-rule:nonzero;stroke:none" transform="matrix(1.33333 0 0 1.33333 1608 0)"></path></g><path d="m73.545 118.715-.204-1.193.93.774.42-1.135.42 1.135.93-.774-.205 1.193 1.192-.204-.773.93 1.136.42-1.136.418.773.93-1.192-.203.204 1.192-.93-.774-.419 1.136-.42-1.136-.93.774.204-1.192-1.192.204.773-.93-1.136-.42 1.136-.419-.773-.93z" style="fill:#ffed00;fill-opacity:1;fill-rule:nonzero;stroke:none;stroke-width:.352778" transform="matrix(6.71881 0 0 6.71881 -469.309 -782.181)"></path><path d="m73.545 118.715.027-.006-.191-1.119.902.751.408-1.1.407 1.1.902-.75-.197 1.157 1.158-.198-.751.903 1.1.407-1.1.407.75.904-1.157-.199.197 1.156-.902-.75-.407 1.102-.408-1.102-.902.75.198-1.156-1.159.199.751-.904-1.101-.407 1.101-.407-.75-.903 1.158.198-.007-.039zl.005-.027-1.266-.217.796.958-1.168.432 1.168.43-.796.958 1.227-.21-.21 1.227.957-.796.433 1.169.432-1.17.957.797-.21-1.227 1.227.21-.796-.957 1.168-.431-1.168-.432.796-.958-1.228.211.211-1.228-.957.795-.432-1.167-.433 1.167-.957-.795.217 1.265zl.005-.027z" style="fill:#000;fill-opacity:1;fill-rule:nonzero;stroke:none;stroke-width:.352778" transform="matrix(6.71881 0 0 6.71881 -469.309 -782.181)"></path><g clip-path="url(#e)" transform="matrix(1.77769 0 0 1.77769 -3601.746 -758.479)"><path d="M331.738 330.957a4.6 4.6 0 0 1-5.644 3.258 4.604 4.604 0 0 1-3.258-5.641 4.605 4.605 0 0 1 5.644-3.258 4.604 4.604 0 0 1 3.258 5.641" clip-path="url(#f)" style="fill:#fff;fill-opacity:1;fill-rule:nonzero;stroke:none" transform="matrix(1.33333 0 0 1.33333 1608 0)"></path></g><g clip-path="url(#g)" transform="matrix(1.77769 0 0 1.77769 -3601.746 -758.479)"><path d="m331.738 330.957-.074-.019a4.537 4.537 0 0 1-5.551 3.203 4.53 4.53 0 0 1-3.203-5.547 4.536 4.536 0 0 1 4.375-3.36q.582-.001 1.176.157a4.53 4.53 0 0 1 3.203 5.547zl.078.02q.16-.611.161-1.215a4.694 4.694 0 0 0-4.692-4.684 4.686 4.686 0 0 0-4.523 3.477 4.6 4.6 0 0 0-.164 1.215 4.693 4.693 0 0 0 4.691 4.683 4.694 4.694 0 0 0 4.527-3.476z" clip-path="url(#h)" style="fill:#000;fill-opacity:1;fill-rule:nonzero;stroke:none" transform="matrix(1.33333 0 0 1.33333 1608 0)"></path></g><g clip-path="url(#i)" transform="matrix(1.77769 0 0 1.77769 -3601.746 -758.479)"><path d="m331.062 330.777-.074-.019a3.83 3.83 0 0 1-3.699 2.84q-.493.001-.992-.133a3.83 3.83 0 0 1-2.844-3.695 3.832 3.832 0 1 1 7.535.988l.149.039c.093-.344.14-.692.14-1.035a3.993 3.993 0 0 0-3.992-3.985 3.985 3.985 0 0 0-3.984 3.993 3.99 3.99 0 0 0 3.988 3.984 3.99 3.99 0 0 0 3.848-2.957z" clip-path="url(#j)" style="fill:#000;fill-opacity:1;fill-rule:nonzero;stroke:none" transform="matrix(1.33333 0 0 1.33333 1608 0)"></path></g><g clip-path="url(#k)" transform="matrix(1.77769 0 0 1.77769 -3601.746 -758.479)"><path d="m326.383 325.961-.582 1.281-1.43-.078s.277-.457.93-.766c.652-.304.679-.363 1.082-.437" clip-path="url(#l)" style="fill:#000;fill-opacity:1;fill-rule:nonzero;stroke:none" transform="matrix(1.33333 0 0 1.33333 1608 0)"></path></g><g clip-path="url(#m)" transform="matrix(1.77769 0 0 1.77769 -3601.746 -758.479)"><path d="m329.121 327.902-.414-1.777s.75.254 1.207.746c.457.488.879 1.164.879 1.164z" clip-path="url(#n)" style="fill:#000;fill-opacity:1;fill-rule:nonzero;stroke:none" transform="matrix(1.33333 0 0 1.33333 1608 0)"></path></g><g clip-path="url(#o)" transform="matrix(1.77769 0 0 1.77769 -3601.746 -758.479)"><path d="m329.168 332.695-.348-1.578 1.446-.84.718.754s-.129.59-.574 1.09c-.449.496-.601.633-.601.633z" clip-path="url(#p)" style="fill:#000;fill-opacity:1;fill-rule:nonzero;stroke:none" transform="matrix(1.33333 0 0 1.33333 1608 0)"></path></g><g clip-path="url(#q)" transform="matrix(1.77769 0 0 1.77769 -3601.746 -758.479)"><path d="m325.949 332.352 1.055 1.093v.219s-.399.016-1.141-.258c-.738-.277-1.039-.605-1.039-.605z" clip-path="url(#r)" style="fill:#000;fill-opacity:1;fill-rule:nonzero;stroke:none" transform="matrix(1.33333 0 0 1.33333 1608 0)"></path></g><g clip-path="url(#s)" transform="matrix(1.77769 0 0 1.77769 -3601.746 -758.479)"><path d="m324.074 329.523-.609-.578c-.086.715-.188 1.27.074 1.926z" clip-path="url(#t)" style="fill:#000;fill-opacity:1;fill-rule:nonzero;stroke:none" transform="matrix(1.33333 0 0 1.33333 1608 0)"></path></g><g clip-path="url(#u)" transform="matrix(1.77769 0 0 1.77769 -3601.746 -758.479)"><path d="m326.281 328.188 1.578.48.075 1.609-1.551.594-1.008-1.281z" clip-path="url(#v)" style="fill:#000;fill-opacity:1;fill-rule:nonzero;stroke:none" transform="matrix(1.33333 0 0 1.33333 1608 0)"></path></g><g clip-path="url(#w)" transform="matrix(1.77769 0 0 1.77769 -3601.746 -758.479)"><path d="m325.598 327.117.808 1.528.141-.075-.813-1.527" clip-path="url(#x)" style="fill:#000;fill-opacity:1;fill-rule:nonzero;stroke:none" transform="matrix(1.33333 0 0 1.33333 1608 0)"></path></g><g clip-path="url(#y)" transform="matrix(1.77769 0 0 1.77769 -3601.746 -758.479)"><path d="m327.602 328.945 1.937-1.218-.082-.133-1.941 1.218" clip-path="url(#z)" style="fill:#000;fill-opacity:1;fill-rule:nonzero;stroke:none" transform="matrix(1.33333 0 0 1.33333 1608 0)"></path></g><g clip-path="url(#A)" transform="matrix(1.77769 0 0 1.77769 -3601.746 -758.479)"><path d="m329.113 331.242-1.5-1.39-.105.113 1.5 1.39" clip-path="url(#B)" style="fill:#000;fill-opacity:1;fill-rule:nonzero;stroke:none" transform="matrix(1.33333 0 0 1.33333 1608 0)"></path></g><g clip-path="url(#C)" transform="matrix(1.77769 0 0 1.77769 -3601.746 -758.479)"><path d="m326.461 330.375-.766 2.609.149.043.769-2.609" clip-path="url(#D)" style="fill:#000;fill-opacity:1;fill-rule:nonzero;stroke:none" transform="matrix(1.33333 0 0 1.33333 1608 0)"></path></g><g clip-path="url(#E)" transform="matrix(1.77769 0 0 1.77769 -3601.746 -758.479)"><path d="M323.723 329.605h2.515v-.152h-2.515" clip-path="url(#F)" style="fill:#000;fill-opacity:1;fill-rule:nonzero;stroke:none" transform="matrix(1.33333 0 0 1.33333 1608 0)"></path></g><g clip-path="url(#G)" transform="matrix(1.77769 0 0 1.77769 -3601.746 -758.479)"><path d="M316.137 344.832h22.168v.156h-22.168z" clip-path="url(#H)" style="fill:#000;fill-opacity:1;fill-rule:nonzero;stroke:none" transform="matrix(1.33333 0 0 1.33333 1608 0)"></path></g><g clip-path="url(#I)" transform="matrix(1.77769 0 0 1.77769 -3601.746 -758.479)"><path d="M317.113 338.656h1.844l4.16 4.199v-3.226q-.001-.516-.137-.645-.187-.175-.589-.175h-.235v-.153h2.367v.153h-.238q-.433.002-.613.214c-.074.09-.11.289-.11.606v4.715h-.183l-4.484-4.508v3.449q0 .516.132.645.193.17.59.172h.238v.152h-2.367v-.152h.235q.44 0 .617-.215.11-.13.109-.602v-3.894a3 3 0 0 0-.445-.375 2 2 0 0 0-.453-.168 2 2 0 0 0-.438-.039z" clip-path="url(#J)" style="fill:#000;fill-opacity:1;fill-rule:nonzero;stroke:none" transform="matrix(1.33333 0 0 1.33333 1608 0)"></path></g><g clip-path="url(#K)" transform="matrix(1.77769 0 0 1.77769 -3601.746 -758.479)"><path d="M326.98 338.961v2.203h1.239c.285 0 .492-.055.625-.156s.218-.309.261-.613h.188v1.894h-.188q-.006-.323-.101-.477a.6.6 0 0 0-.274-.23q-.17-.077-.511-.078h-1.239v1.758q0 .427.063.562.052.105.211.18.221.098.461.098h.246v.152h-2.922v-.152h.242q.421 0 .614-.204c.078-.086.121-.3.121-.636v-3.614c0-.285-.024-.468-.067-.562a.4.4 0 0 0-.207-.176 1.1 1.1 0 0 0-.461-.101h-.242v-.153h5.066l.067 1.231h-.176q-.134-.392-.305-.575a1 1 0 0 0-.425-.265q-.258-.084-.786-.086z" clip-path="url(#L)" style="fill:#000;fill-opacity:1;fill-rule:nonzero;stroke:none" transform="matrix(1.33333 0 0 1.33333 1608 0)"></path></g><g clip-path="url(#M)" transform="matrix(1.77769 0 0 1.77769 -3601.746 -758.479)"><path d="m334.598 342.074-1.153-2.262-1.183 2.262zm.14.305h-2.633l-.46.883c-.118.218-.172.383-.172.488q0 .128.148.227.148.094.641.125v.152h-2.145v-.152q.428-.06.551-.161c.172-.132.359-.402.57-.804l2.391-4.606h.176l2.371 4.653q.286.562.519.73.234.17.649.188v.152h-2.684v-.152q.405-.017.547-.11c.098-.066.145-.14.145-.234q0-.182-.2-.574z" clip-path="url(#N)" style="fill:#000;fill-opacity:1;fill-rule:nonzero;stroke:none" transform="matrix(1.33333 0 0 1.33333 1608 0)"></path></g><g clip-path="url(#O)" transform="matrix(1.77769 0 0 1.77769 -3601.746 -758.479)"><path d="M316.156 345.699h.403l.902 1.086v-.836q.002-.133-.031-.168-.037-.042-.125-.043h-.051v-.039h.516v.039h-.055q-.093.001-.133.055-.024.034-.023.156v1.223h-.039l-.977-1.168v.894q0 .134.027.168a.18.18 0 0 0 .129.043h.055v.039h-.516v-.039h.051c.063 0 .106-.015.133-.054q.024-.035.023-.157v-1.007a1 1 0 0 0-.097-.102c-.02-.016-.055-.027-.098-.043a.5.5 0 0 0-.094-.008z" clip-path="url(#P)" style="fill:#000;fill-opacity:1;fill-rule:nonzero;stroke:none" transform="matrix(1.33333 0 0 1.33333 1608 0)"></path></g><g clip-path="url(#Q)" transform="matrix(1.77769 0 0 1.77769 -3601.746 -758.479)"><path d="m318.797 346.586-.25-.59-.258.59zm.031.078h-.574l-.098.227a.3.3 0 0 0-.039.129l.031.058a.3.3 0 0 0 .141.031v.039h-.465v-.039c.059-.011.102-.023.117-.039a.7.7 0 0 0 .125-.211l.52-1.195h.039l.516 1.207c.043.098.078.16.113.191a.25.25 0 0 0 .141.047v.039h-.583v-.039q.088-.002.118-.027l.031-.062a.5.5 0 0 0-.043-.149z" clip-path="url(#R)" style="fill:#000;fill-opacity:1;fill-rule:nonzero;stroke:none" transform="matrix(1.33333 0 0 1.33333 1608 0)"></path></g><g clip-path="url(#S)" transform="matrix(1.77769 0 0 1.77769 -3601.746 -758.479)"><path d="m320.34 347.148-.57-1.222v.972q-.002.134.027.168.04.043.129.043h.051v.039h-.516v-.039h.055q.092 0 .132-.054.024-.035.024-.157v-.949a.3.3 0 0 0-.024-.137q-.012-.033-.054-.054a.4.4 0 0 0-.133-.02v-.039h.422l.535 1.133.531-1.133h.418v.039h-.051c-.062 0-.109.016-.132.055q-.029.034-.028.156v.949q.001.134.032.168.04.043.128.043h.051v.039h-.629v-.039h.051q.098 0 .133-.054.028-.035.027-.157v-.972l-.574 1.222z" clip-path="url(#T)" style="fill:#000;fill-opacity:1;fill-rule:nonzero;stroke:none" transform="matrix(1.33333 0 0 1.33333 1608 0)"></path></g><g clip-path="url(#U)" transform="matrix(1.77769 0 0 1.77769 -3601.746 -758.479)"><path d="M322.109 347.109v.039h-.636v-.039h.054q.093.001.133-.05.029-.036.028-.164v-.938a.4.4 0 0 0-.016-.148l-.043-.047a.24.24 0 0 0-.102-.024h-.054v-.039h.636v.039h-.054c-.059 0-.106.016-.133.051q-.025.034-.027.168v.938c0 .07.007.121.015.144l.047.047a.2.2 0 0 0 .098.023z" clip-path="url(#V)" style="fill:#000;fill-opacity:1;fill-rule:nonzero;stroke:none" transform="matrix(1.33333 0 0 1.33333 1608 0)"></path></g><g clip-path="url(#W)" transform="matrix(1.77769 0 0 1.77769 -3601.746 -758.479)"><path d="M322.629 347.043q.128.03.25.031a.47.47 0 0 0 .301-.086.28.28 0 0 0 .105-.218.3.3 0 0 0-.047-.161.3.3 0 0 0-.152-.125.7.7 0 0 0-.262-.043h-.117q-.048.004-.078.008zm0-.691.094.011c.035 0 .07.004.113.004a.6.6 0 0 0 .238-.035.3.3 0 0 0 .125-.102.3.3 0 0 0 .043-.152.28.28 0 0 0-.105-.219.5.5 0 0 0-.313-.089.8.8 0 0 0-.195.023zm.574.058q.154.03.231.102.105.097.105.242 0 .106-.07.207a.4.4 0 0 1-.192.144 1.1 1.1 0 0 1-.371.043h-.699v-.039h.055q.092 0 .133-.054a.4.4 0 0 0 .023-.16v-.942q.002-.133-.031-.168-.043-.047-.125-.047h-.055v-.039h.637q.18 0 .289.024.162.039.25.136a.334.334 0 0 1 .019.422.43.43 0 0 1-.199.129" clip-path="url(#X)" style="fill:#000;fill-opacity:1;fill-rule:nonzero;stroke:none" transform="matrix(1.33333 0 0 1.33333 1608 0)"></path></g><g clip-path="url(#Y)" transform="matrix(1.77769 0 0 1.77769 -3601.746 -758.479)"><path d="M324.355 347.109v.039h-.636v-.039h.054q.094.001.133-.05.029-.036.028-.164v-.938a.4.4 0 0 0-.016-.148l-.043-.047a.23.23 0 0 0-.102-.024h-.054v-.039h.636v.039h-.054q-.087 0-.133.051-.024.034-.023.168v.938c0 .07.003.121.011.144l.047.047a.2.2 0 0 0 .098.023z" clip-path="url(#Z)" style="fill:#000;fill-opacity:1;fill-rule:nonzero;stroke:none" transform="matrix(1.33333 0 0 1.33333 1608 0)"></path></g><g clip-path="url(#aa)" transform="matrix(1.77769 0 0 1.77769 -3601.746 -758.479)"><path d="m325.406 346.586-.25-.59-.258.59zm.032.078h-.575l-.097.227a.3.3 0 0 0-.039.129l.031.058q.035.024.14.031v.039h-.464v-.039c.058-.011.101-.023.117-.039a.7.7 0 0 0 .125-.211l.519-1.195h.039l.516 1.207c.043.098.078.16.113.191a.25.25 0 0 0 .141.047v.039h-.582v-.039q.088-.002.117-.027l.031-.062a.4.4 0 0 0-.043-.149z" clip-path="url(#ab)" style="fill:#000;fill-opacity:1;fill-rule:nonzero;stroke:none" transform="matrix(1.33333 0 0 1.33333 1608 0)"></path></g><g clip-path="url(#ac)" transform="matrix(1.77769 0 0 1.77769 -3601.746 -758.479)"><path d="M326.934 345.777v.571h.269q.093 0 .137-.039.042-.042.055-.161h.043v.493h-.043a.3.3 0 0 0-.02-.125.13.13 0 0 0-.063-.059c-.023-.016-.058-.019-.109-.019h-.269v.457c0 .07.004.121.011.144l.047.047a.2.2 0 0 0 .102.023h.054v.039h-.636v-.039h.05q.094.001.133-.05.029-.036.028-.164v-.938a.6.6 0 0 0-.012-.148l-.047-.047a.2.2 0 0 0-.102-.024h-.05v-.039h1.101l.016.317h-.039a.5.5 0 0 0-.067-.149.2.2 0 0 0-.093-.07.6.6 0 0 0-.172-.02z" clip-path="url(#ad)" style="fill:#000;fill-opacity:1;fill-rule:nonzero;stroke:none" transform="matrix(1.33333 0 0 1.33333 1608 0)"></path></g><g clip-path="url(#ae)" transform="matrix(1.77769 0 0 1.77769 -3601.746 -758.479)"><path d="M328.52 345.742a.39.39 0 0 0-.317.145q-.15.182-.148.527 0 .355.152.547a.38.38 0 0 0 .316.144c.137 0 .254-.05.344-.16q.136-.159.137-.5 0-.374-.152-.554c-.079-.102-.188-.149-.332-.149m.023-.078q.287-.001.5.215a.73.73 0 0 1 .211.535q.001.334-.215.551a.7.7 0 0 1-.516.219.68.68 0 0 1-.511-.215c-.141-.141-.207-.324-.207-.551q-.001-.345.238-.563a.71.71 0 0 1 .5-.191" clip-path="url(#af)" style="fill:#000;fill-opacity:1;fill-rule:nonzero;stroke:none" transform="matrix(1.33333 0 0 1.33333 1608 0)"></path></g><g clip-path="url(#ag)" transform="matrix(1.77769 0 0 1.77769 -3601.746 -758.479)"><path d="M330.141 345.742a.4.4 0 0 0-.321.145q-.147.182-.148.527 0 .355.156.547a.38.38 0 0 0 .313.144.43.43 0 0 0 .347-.16q.136-.159.137-.5 0-.374-.152-.554a.4.4 0 0 0-.332-.149m.023-.078q.285-.001.5.215c.137.144.211.32.211.535a.76.76 0 0 1-.215.551.7.7 0 0 1-.515.219.68.68 0 0 1-.512-.215.74.74 0 0 1-.211-.551q.001-.345.242-.563a.7.7 0 0 1 .5-.191" clip-path="url(#ah)" style="fill:#000;fill-opacity:1;fill-rule:nonzero;stroke:none" transform="matrix(1.33333 0 0 1.33333 1608 0)"></path></g><g clip-path="url(#ai)" transform="matrix(1.77769 0 0 1.77769 -3601.746 -758.479)"><path d="m332.258 345.699.015.34h-.039a.3.3 0 0 0-.035-.129.2.2 0 0 0-.09-.094.4.4 0 0 0-.148-.027h-.207v1.109q-.002.134.031.168.041.043.125.043h.051v.039h-.625v-.039h.051c.062 0 .109-.015.133-.054q.023-.035.023-.157v-1.109h-.176a.4.4 0 0 0-.148.016.2.2 0 0 0-.098.078.3.3 0 0 0-.047.156h-.043l.02-.34z" clip-path="url(#aj)" style="fill:#000;fill-opacity:1;fill-rule:nonzero;stroke:none" transform="matrix(1.33333 0 0 1.33333 1608 0)"></path></g><g clip-path="url(#ak)" transform="matrix(1.77769 0 0 1.77769 -3601.746 -758.479)"><path d="M332.797 347.043c.082.019.168.031.25.031.133 0 .23-.031.301-.086a.28.28 0 0 0 .105-.218.309.309 0 0 0-.203-.286.65.65 0 0 0-.262-.043h-.113q-.048.004-.078.008zm0-.691.09.011q.053.002.117.004a.6.6 0 0 0 .238-.035.3.3 0 0 0 .125-.102.28.28 0 0 0-.066-.371.47.47 0 0 0-.309-.089.8.8 0 0 0-.195.023zm.57.058c.106.02.18.055.235.102a.35.35 0 0 1 .035.449.4.4 0 0 1-.192.144c-.082.032-.207.043-.375.043h-.699v-.039h.059q.092 0 .132-.054a.4.4 0 0 0 .024-.16v-.942q.002-.133-.031-.168-.043-.047-.125-.047h-.059v-.039h.641q.18 0 .289.024.162.039.25.136a.334.334 0 0 1 .019.422.4.4 0 0 1-.203.129" clip-path="url(#al)" style="fill:#000;fill-opacity:1;fill-rule:nonzero;stroke:none" transform="matrix(1.33333 0 0 1.33333 1608 0)"></path></g><g clip-path="url(#am)" transform="matrix(1.77769 0 0 1.77769 -3601.746 -758.479)"><path d="m334.824 346.586-.25-.59-.258.59zm.031.078h-.574l-.097.227a.3.3 0 0 0-.039.129l.031.058q.035.024.14.031v.039h-.464v-.039c.058-.011.101-.023.117-.039a.7.7 0 0 0 .125-.211l.519-1.195h.039l.516 1.207c.043.098.078.16.113.191a.25.25 0 0 0 .141.047v.039h-.582v-.039q.088-.002.117-.027l.031-.062a.5.5 0 0 0-.043-.149z" clip-path="url(#an)" style="fill:#000;fill-opacity:1;fill-rule:nonzero;stroke:none" transform="matrix(1.33333 0 0 1.33333 1608 0)"></path></g><g clip-path="url(#ao)" transform="matrix(1.77769 0 0 1.77769 -3601.746 -758.479)"><path d="m336.734 346.75.036.008-.125.39h-1.149v-.039h.055c.066 0 .109-.019.137-.058q.023-.036.023-.16v-.934c0-.094-.012-.148-.031-.172q-.042-.047-.129-.047h-.055v-.039h.672v.039a.5.5 0 0 0-.164.02.12.12 0 0 0-.066.058.4.4 0 0 0-.02.164v.911a.3.3 0 0 0 .02.125l.039.031a.7.7 0 0 0 .171.012h.11a.8.8 0 0 0 .238-.024.3.3 0 0 0 .125-.09.7.7 0 0 0 .113-.195" clip-path="url(#ap)" style="fill:#000;fill-opacity:1;fill-rule:nonzero;stroke:none" transform="matrix(1.33333 0 0 1.33333 1608 0)"></path></g><g clip-path="url(#aq)" transform="matrix(1.77769 0 0 1.77769 -3601.746 -758.479)"><path d="m338.105 346.75.036.008-.125.39h-1.149v-.039h.055q.097 0 .137-.058.023-.036.023-.16v-.934c0-.094-.012-.148-.031-.172q-.042-.047-.129-.047h-.055v-.039h.672v.039a.5.5 0 0 0-.164.02.14.14 0 0 0-.066.058.4.4 0 0 0-.02.164v.911a.3.3 0 0 0 .02.125l.039.031a.7.7 0 0 0 .172.012h.109a.8.8 0 0 0 .238-.024.3.3 0 0 0 .125-.09.7.7 0 0 0 .113-.195" clip-path="url(#ar)" style="fill:#000;fill-opacity:1;fill-rule:nonzero;stroke:none" transform="matrix(1.33333 0 0 1.33333 1608 0)"></path></g><g clip-path="url(#as)" transform="matrix(1.77769 0 0 1.77769 -3601.746 -758.479)" data-source="https://football-logos.cc"><path d="m320.781 348.641-.25-.586-.258.586zm.031.078h-.574l-.097.23a.3.3 0 0 0-.039.125l.031.059c.023.019.07.027.14.035v.039h-.464v-.039c.058-.012.101-.027.117-.043a.7.7 0 0 0 .125-.211l.519-1.195h.039l.516 1.211c.043.097.078.16.113.187a.23.23 0 0 0 .141.051v.039h-.582v-.039q.088-.007.117-.031l.031-.059a.5.5 0 0 0-.043-.148z" clip-path="url(#at)" style="fill:#000;fill-opacity:1;fill-rule:nonzero;stroke:none" transform="matrix(1.33333 0 0 1.33333 1608 0)"></path></g><g clip-path="url(#au)" transform="matrix(1.77769 0 0 1.77769 -3601.746 -758.479)"><path d="M322.434 347.719v.504h-.039a.6.6 0 0 0-.071-.231.4.4 0 0 0-.144-.137.45.45 0 0 0-.196-.05.27.27 0 0 0-.187.07.2.2 0 0 0-.074.152c0 .047.015.086.047.125q.067.076.324.211.204.111.281.168a.4.4 0 0 1 .117.137.36.36 0 0 1-.09.453.48.48 0 0 1-.336.117q-.063-.001-.121-.008c-.023-.003-.07-.019-.14-.039a.6.6 0 0 0-.133-.035l-.043.016q-.018.019-.024.066h-.043v-.496h.043a.6.6 0 0 0 .075.231.36.36 0 0 0 .148.132.5.5 0 0 0 .215.051.32.32 0 0 0 .219-.07.23.23 0 0 0 .078-.168.24.24 0 0 0-.031-.109.3.3 0 0 0-.094-.102 4 4 0 0 0-.231-.137 2 2 0 0 1-.269-.164.5.5 0 0 1-.125-.14.3.3 0 0 1-.039-.164.36.36 0 0 1 .121-.27.44.44 0 0 1 .312-.113q.117 0 .25.058.058.029.086.028l.047-.016q.017-.018.028-.07z" clip-path="url(#av)" style="fill:#000;fill-opacity:1;fill-rule:nonzero;stroke:none" transform="matrix(1.33333 0 0 1.33333 1608 0)"></path></g><g clip-path="url(#aw)" transform="matrix(1.77769 0 0 1.77769 -3601.746 -758.479)"><path d="M323.684 347.719v.504h-.039a.8.8 0 0 0-.071-.231.4.4 0 0 0-.144-.137.45.45 0 0 0-.196-.05.26.26 0 0 0-.187.07.2.2 0 0 0-.074.152c0 .047.015.086.047.125.042.051.152.121.32.211q.21.111.285.168a.4.4 0 0 1 .117.137.381.381 0 0 1-.09.453.48.48 0 0 1-.336.117q-.063-.001-.121-.008c-.023-.003-.07-.019-.14-.039a.6.6 0 0 0-.137-.035l-.043.016a.2.2 0 0 0-.023.066h-.04v-.496h.04q.03.154.078.231a.37.37 0 0 0 .144.132.5.5 0 0 0 .219.051.3.3 0 0 0 .215-.07.22.22 0 0 0 .082-.168.24.24 0 0 0-.031-.109.3.3 0 0 0-.094-.102 4 4 0 0 0-.235-.137 3 3 0 0 1-.269-.164.45.45 0 0 1-.121-.14.3.3 0 0 1-.043-.164q.001-.153.125-.27a.43.43 0 0 1 .308-.113q.123 0 .25.058.064.029.086.028l.047-.016c.016-.012.024-.035.032-.07z" clip-path="url(#ax)" style="fill:#000;fill-opacity:1;fill-rule:nonzero;stroke:none" transform="matrix(1.33333 0 0 1.33333 1608 0)"></path></g><g clip-path="url(#ay)" transform="matrix(1.77769 0 0 1.77769 -3601.746 -758.479)"><path d="M324.703 347.797a.39.39 0 0 0-.316.148q-.151.175-.149.528 0 .352.153.547a.4.4 0 0 0 .316.144.44.44 0 0 0 .344-.16q.136-.159.137-.504 0-.374-.153-.555a.4.4 0 0 0-.332-.148m.024-.078a.7.7 0 0 1 .5.215q.21.216.211.539a.75.75 0 0 1-.215.547.7.7 0 0 1-.516.218.69.69 0 0 1-.512-.211.76.76 0 0 1-.211-.55q0-.351.243-.567a.72.72 0 0 1 .5-.191" clip-path="url(#az)" style="fill:#000;fill-opacity:1;fill-rule:nonzero;stroke:none" transform="matrix(1.33333 0 0 1.33333 1608 0)"></path></g><g clip-path="url(#aA)" transform="matrix(1.77769 0 0 1.77769 -3601.746 -758.479)"><path d="m326.875 347.719.035.496h-.035c-.047-.149-.109-.254-.195-.32a.5.5 0 0 0-.301-.098.48.48 0 0 0-.266.074.5.5 0 0 0-.187.234 1 1 0 0 0-.071.399q.001.2.067.34a.46.46 0 0 0 .191.222.59.59 0 0 0 .551.02.9.9 0 0 0 .246-.242l.031.023a.75.75 0 0 1-.257.281.7.7 0 0 1-.356.09.69.69 0 0 1-.57-.265.78.78 0 0 1-.149-.469.83.83 0 0 1 .098-.402.7.7 0 0 1 .273-.282.726.726 0 0 1 .7-.023.2.2 0 0 0 .066.023l.051-.019a.2.2 0 0 0 .039-.082z" clip-path="url(#aB)" style="fill:#000;fill-opacity:1;fill-rule:nonzero;stroke:none" transform="matrix(1.33333 0 0 1.33333 1608 0)"></path></g><g clip-path="url(#aC)" transform="matrix(1.77769 0 0 1.77769 -3601.746 -758.479)"><path d="M327.715 349.168v.039h-.633v-.039h.051q.092-.001.133-.055.028-.035.027-.164v-.937a.4.4 0 0 0-.016-.149l-.047-.043a.17.17 0 0 0-.097-.027h-.051v-.039h.633v.039h-.055c-.058 0-.105.019-.133.055-.015.019-.027.078-.027.164v.937c0 .074.008.121.016.145l.046.047a.2.2 0 0 0 .098.027z" clip-path="url(#aD)" style="fill:#000;fill-opacity:1;fill-rule:nonzero;stroke:none" transform="matrix(1.33333 0 0 1.33333 1608 0)"></path></g><g clip-path="url(#aE)" transform="matrix(1.77769 0 0 1.77769 -3601.746 -758.479)"><path d="m328.766 348.641-.25-.586-.258.586zm.031.078h-.574l-.098.23a.3.3 0 0 0-.039.125l.031.059c.024.019.071.027.141.035v.039h-.465v-.039c.059-.012.102-.027.117-.043a.7.7 0 0 0 .125-.211l.52-1.195h.039l.515 1.211a.5.5 0 0 0 .114.187.23.23 0 0 0 .14.051v.039h-.582v-.039q.089-.007.117-.031l.032-.059a.5.5 0 0 0-.043-.148z" clip-path="url(#aF)" style="fill:#000;fill-opacity:1;fill-rule:nonzero;stroke:none" transform="matrix(1.33333 0 0 1.33333 1608 0)"></path></g><g clip-path="url(#aG)" transform="matrix(1.77769 0 0 1.77769 -3601.746 -758.479)"><path d="m330.441 347.754.016.34h-.043a.5.5 0 0 0-.031-.129.23.23 0 0 0-.09-.09.3.3 0 0 0-.148-.031h-.211v1.109q0 .134.031.168.04.045.129.043h.051v.043h-.629v-.043h.054q.093.002.133-.055.024-.034.024-.156v-1.109h-.18a.7.7 0 0 0-.149.015.2.2 0 0 0-.093.079.3.3 0 0 0-.051.156h-.039l.015-.34z" clip-path="url(#aH)" style="fill:#000;fill-opacity:1;fill-rule:nonzero;stroke:none" transform="matrix(1.33333 0 0 1.33333 1608 0)"></path></g><g clip-path="url(#aI)" transform="matrix(1.77769 0 0 1.77769 -3601.746 -758.479)"><path d="M331.207 349.168v.039h-.633v-.039h.051q.093-.001.133-.055.028-.035.027-.164v-.937a.5.5 0 0 0-.015-.149l-.043-.043a.2.2 0 0 0-.102-.027h-.051v-.039h.633v.039h-.055q-.087 0-.129.055c-.019.019-.027.078-.027.164v.937q0 .11.012.145l.047.047a.2.2 0 0 0 .097.027z" clip-path="url(#aJ)" style="fill:#000;fill-opacity:1;fill-rule:nonzero;stroke:none" transform="matrix(1.33333 0 0 1.33333 1608 0)"></path></g><g clip-path="url(#aK)" transform="matrix(1.77769 0 0 1.77769 -3601.746 -758.479)"><path d="M332.062 347.797a.39.39 0 0 0-.316.148q-.152.175-.152.528.001.352.156.547a.4.4 0 0 0 .316.144.44.44 0 0 0 .344-.16q.136-.159.137-.504 0-.374-.152-.555a.41.41 0 0 0-.333-.148m.024-.078a.7.7 0 0 1 .5.215.74.74 0 0 1 .211.539q.001.328-.215.547a.7.7 0 0 1-.516.218.68.68 0 0 1-.511-.211.75.75 0 0 1-.211-.55q.001-.351.242-.567a.73.73 0 0 1 .5-.191" clip-path="url(#aL)" style="fill:#000;fill-opacity:1;fill-rule:nonzero;stroke:none" transform="matrix(1.33333 0 0 1.33333 1608 0)"></path></g><g clip-path="url(#aM)" transform="matrix(1.77769 0 0 1.77769 -3601.746 -758.479)"><path d="M332.855 347.754h.403l.906 1.09v-.84c0-.086-.008-.145-.031-.164q-.037-.047-.125-.047h-.055v-.039h.52v.039h-.055q-.093 0-.133.055-.023.034-.023.156v1.226h-.039l-.977-1.171v.894q0 .134.027.168.042.045.129.043h.051v.043h-.515v-.043h.054q.094.002.133-.055.024-.034.023-.156v-1.008a.6.6 0 0 0-.097-.097.4.4 0 0 0-.098-.047.5.5 0 0 0-.098-.008z" clip-path="url(#aN)" style="fill:#000;fill-opacity:1;fill-rule:nonzero;stroke:none" transform="matrix(1.33333 0 0 1.33333 1608 0)"></path></g><g clip-path="url(#aO)" transform="matrix(1.77769 0 0 1.77769 -3601.746 -758.479)"><path d="m320.309 350.816.058.008a1 1 0 0 0 .078.004.5.5 0 0 0 .168-.023.3.3 0 0 0 .102-.071.3.3 0 0 0 .055-.105q.024-.089-.032-.149-.054-.062-.191-.062a.5.5 0 0 0-.137.016zm-.129.477a.6.6 0 0 0 .164.023q.133-.002.218-.062a.25.25 0 0 0 .11-.149.2.2 0 0 0 0-.109q-.018-.057-.082-.086a.4.4 0 0 0-.168-.031h-.078l-.055.008zm.504-.434q.094.018.136.071.052.064.028.164a.38.38 0 0 1-.243.242 1 1 0 0 1-.257.031h-.473l.008-.027h.039a.13.13 0 0 0 .098-.039.3.3 0 0 0 .046-.11l.172-.644q.024-.094.012-.117c-.016-.024-.039-.035-.078-.035h-.039l.008-.028h.433q.117.001.188.02a.22.22 0 0 1 .144.093.2.2 0 0 1 .016.157.26.26 0 0 1-.082.133.4.4 0 0 1-.156.089" clip-path="url(#aP)" style="fill:#000;fill-opacity:1;fill-rule:nonzero;stroke:none" transform="matrix(1.33333 0 0 1.33333 1608 0)"></path></g><g clip-path="url(#aQ)" transform="matrix(1.77769 0 0 1.77769 -3601.746 -758.479)"><path d="m321.285 350.672-.039.152q.122-.152.215-.152.04 0 .059.027l.011.055-.031.051-.051.019-.051-.027-.043-.024-.031.012a.7.7 0 0 0-.094.102l-.085.324a.2.2 0 0 0-.012.082l.027.035q.019.012.067.012l-.008.027h-.348l.008-.027a.16.16 0 0 0 .082-.016l.035-.039a1 1 0 0 0 .024-.07l.07-.262q.03-.117.031-.141l-.008-.031-.031-.011-.055.011v-.023l.227-.086z" clip-path="url(#aR)" style="fill:#000;fill-opacity:1;fill-rule:nonzero;stroke:none" transform="matrix(1.33333 0 0 1.33333 1608 0)"></path></g><g clip-path="url(#aS)" transform="matrix(1.77769 0 0 1.77769 -3601.746 -758.479)"><path d="m321.855 350.32.047.024.008.051-.035.054-.059.02-.046-.02-.008-.054.035-.051zm-.031.352-.144.543a.4.4 0 0 0-.016.086l.02.031a.2.2 0 0 0 .062.008l-.004.027h-.328l.004-.027a.2.2 0 0 0 .07-.008l.035-.031a.2.2 0 0 0 .032-.086l.07-.262a.7.7 0 0 0 .031-.141l-.008-.031-.027-.011-.051.011-.004-.027.223-.082z" clip-path="url(#aT)" style="fill:#000;fill-opacity:1;fill-rule:nonzero;stroke:none" transform="matrix(1.33333 0 0 1.33333 1608 0)"></path></g><g clip-path="url(#aU)" transform="matrix(1.77769 0 0 1.77769 -3601.746 -758.479)"><path d="M322.168 350.816c.105-.097.191-.144.266-.144.035 0 .066.012.086.027q.034.03.039.094a.4.4 0 0 1-.02.133l-.078.289q-.018.063-.012.086l.02.031a.2.2 0 0 0 .062.008l-.008.027h-.332l.008-.027h.012a.2.2 0 0 0 .07-.012l.039-.043a.3.3 0 0 0 .02-.07l.074-.277a.3.3 0 0 0 .012-.133q-.011-.043-.071-.043c-.058 0-.125.035-.199.097l-.094.356c-.011.047-.019.074-.015.086l.019.031a.3.3 0 0 0 .071.008l-.008.027h-.332l.008-.027h.015q.05 0 .075-.024a.4.4 0 0 0 .046-.101l.067-.25.035-.149-.008-.035-.027-.011-.055.011-.004-.027.227-.082h.031z" clip-path="url(#aV)" style="fill:#000;fill-opacity:1;fill-rule:nonzero;stroke:none" transform="matrix(1.33333 0 0 1.33333 1608 0)"></path></g><g clip-path="url(#aW)" transform="matrix(1.77769 0 0 1.77769 -3601.746 -758.479)"><path d="M323.062 350.707a.16.16 0 0 0-.101.043.3.3 0 0 0-.074.137q-.031.113.004.179.023.047.082.047a.14.14 0 0 0 .105-.043.25.25 0 0 0 .07-.129q.03-.118-.003-.183-.024-.052-.083-.051m-.312.66a1 1 0 0 0-.07.071l-.032.058.024.063q.064.046.199.046t.211-.046a.2.2 0 0 0 .09-.102c.008-.023-.004-.043-.024-.055a.5.5 0 0 0-.148-.019q-.162-.002-.25-.016m.074-.246a.17.17 0 0 1-.074-.082.2.2 0 0 1 0-.121.33.33 0 0 1 .121-.172.34.34 0 0 1 .215-.074q.093 0 .152.047h.145l.035.004.008.004-.004.023-.012.027-.008.008h-.125q.026.053.004.137a.28.28 0 0 1-.113.16.34.34 0 0 1-.215.066.4.4 0 0 1-.098-.011c-.027.015-.043.035-.054.047l-.024.035.008.027.043.016c.012 0 .047.004.102.004q.151.006.191.011a.13.13 0 0 1 .098.051q.029.039.011.102-.017.08-.117.156a.55.55 0 0 1-.328.105c-.094 0-.172-.019-.223-.062q-.046-.037-.035-.078l.016-.035q.023-.026.074-.075l.094-.082-.043-.039-.004-.043.039-.058a.7.7 0 0 1 .121-.098" clip-path="url(#aX)" style="fill:#000;fill-opacity:1;fill-rule:nonzero;stroke:none" transform="matrix(1.33333 0 0 1.33333 1608 0)"></path></g><g clip-path="url(#aY)" transform="matrix(1.77769 0 0 1.77769 -3601.746 -758.479)"><path d="m323.785 350.32.047.024.004.051-.035.054-.059.02-.047-.02-.007-.054.035-.051zm-.035.352-.145.543a.2.2 0 0 0-.011.086l.015.031a.2.2 0 0 0 .067.008l-.008.027h-.328l.008-.027a.2.2 0 0 0 .066-.008l.035-.031a.3.3 0 0 0 .035-.086l.067-.262a1 1 0 0 0 .035-.141l-.008-.031-.031-.011-.051.011-.004-.027.227-.082z" clip-path="url(#aZ)" style="fill:#000;fill-opacity:1;fill-rule:nonzero;stroke:none" transform="matrix(1.33333 0 0 1.33333 1608 0)"></path></g><g clip-path="url(#ba)" transform="matrix(1.77769 0 0 1.77769 -3601.746 -758.479)"><path d="M324.094 350.816q.159-.145.265-.144c.036 0 .067.012.086.027q.035.03.039.094a.4.4 0 0 1-.019.133l-.074.289a.4.4 0 0 0-.016.086l.02.031a.2.2 0 0 0 .062.008l-.004.027h-.336l.008-.027h.016c.031 0 .05-.004.07-.012l.035-.043a.3.3 0 0 0 .02-.07l.074-.277c.015-.059.023-.106.012-.133q-.013-.043-.067-.043c-.058 0-.125.035-.203.097l-.094.356a.5.5 0 0 0-.015.086l.019.031a.2.2 0 0 0 .07.008l-.003.027h-.336l.007-.027h.016q.052 0 .074-.024a.2.2 0 0 0 .047-.101l.067-.25c.019-.082.035-.129.035-.149l-.008-.035-.027-.011-.055.011-.004-.027.227-.082h.031z" clip-path="url(#bb)" style="fill:#000;fill-opacity:1;fill-rule:nonzero;stroke:none" transform="matrix(1.33333 0 0 1.33333 1608 0)"></path></g><g clip-path="url(#bc)" transform="matrix(1.77769 0 0 1.77769 -3601.746 -758.479)"><path d="M324.988 350.707a.16.16 0 0 0-.101.043.3.3 0 0 0-.071.137q-.035.113 0 .179.026.047.086.047a.14.14 0 0 0 .102-.043.25.25 0 0 0 .07-.129c.024-.078.02-.14 0-.183-.015-.035-.047-.051-.086-.051m-.312.66a.4.4 0 0 0-.067.071l-.035.058.028.063q.058.046.199.046a.4.4 0 0 0 .207-.046q.077-.049.09-.102.011-.036-.024-.055a.5.5 0 0 0-.144-.019q-.166-.002-.254-.016m.074-.246a.14.14 0 0 1-.07-.082.2.2 0 0 1-.004-.121.32.32 0 0 1 .121-.172.34.34 0 0 1 .215-.074.23.23 0 0 1 .152.047h.145l.035.004.008.004-.004.023-.008.027-.012.008h-.125q.029.053.004.137a.3.3 0 0 1-.113.16.33.33 0 0 1-.211.066.4.4 0 0 1-.098-.011.2.2 0 0 0-.058.047l-.02.035.004.027.043.016c.016 0 .047.004.101.004q.151.006.196.011a.13.13 0 0 1 .094.051q.028.039.015.102a.3.3 0 0 1-.121.156.53.53 0 0 1-.328.105.35.35 0 0 1-.223-.062q-.047-.037-.035-.078l.02-.035a.5.5 0 0 1 .07-.075q.005-.005.098-.082l-.043-.039-.008-.043.039-.058c.019-.024.062-.055.121-.098" clip-path="url(#bd)" style="fill:#000;fill-opacity:1;fill-rule:nonzero;stroke:none" transform="matrix(1.33333 0 0 1.33333 1608 0)"></path></g><g clip-path="url(#be)" transform="matrix(1.77769 0 0 1.77769 -3601.746 -758.479)"><path d="m326.035 350.859.067.008.05.004a.24.24 0 0 0 .149-.059.28.28 0 0 0 .094-.152.3.3 0 0 0 .007-.121.13.13 0 0 0-.054-.082.2.2 0 0 0-.102-.027 1 1 0 0 0-.101.011zm-.012.039-.078.293q-.023.094-.011.118.021.03.078.031h.035l-.004.027h-.43l.008-.027h.039a.14.14 0 0 0 .102-.043.4.4 0 0 0 .043-.106l.172-.644q.023-.094.011-.117-.018-.036-.078-.035h-.035l.008-.028h.363q.137.001.203.031a.2.2 0 0 1 .106.09.21.21 0 0 1 .011.157.35.35 0 0 1-.132.199.4.4 0 0 1-.246.074c-.028 0-.051 0-.079-.004q-.04-.005-.086-.016" clip-path="url(#bf)" style="fill:#000;fill-opacity:1;fill-rule:nonzero;stroke:none" transform="matrix(1.33333 0 0 1.33333 1608 0)"></path></g><g clip-path="url(#bg)" transform="matrix(1.77769 0 0 1.77769 -3601.746 -758.479)"><path d="M326.711 350.902h.312c.012-.043.012-.07.012-.09a.1.1 0 0 0-.039-.062.1.1 0 0 0-.07-.027.18.18 0 0 0-.121.05.3.3 0 0 0-.094.129m-.012.043q-.04.152.012.239a.16.16 0 0 0 .148.086.23.23 0 0 0 .125-.04.4.4 0 0 0 .118-.125l.019.016a.47.47 0 0 1-.141.184.3.3 0 0 1-.207.082.21.21 0 0 1-.183-.094q-.06-.095-.02-.254a.54.54 0 0 1 .16-.269.38.38 0 0 1 .25-.098q.114-.001.168.074.052.076.02.199z" clip-path="url(#bh)" style="fill:#000;fill-opacity:1;fill-rule:nonzero;stroke:none" transform="matrix(1.33333 0 0 1.33333 1608 0)"></path></g><g clip-path="url(#bi)" transform="matrix(1.77769 0 0 1.77769 -3601.746 -758.479)"><path d="M327.625 350.723a.2.2 0 0 0-.086.019.25.25 0 0 0-.086.082.6.6 0 0 0-.062.153.46.46 0 0 0-.012.253q.03.106.125.106.075 0 .137-.059a.4.4 0 0 0 .097-.203c.035-.121.032-.215 0-.281-.023-.051-.058-.07-.113-.07m.035-.051q.152 0 .215.117a.3.3 0 0 1 .016.231.56.56 0 0 1-.246.32.4.4 0 0 1-.184.047q-.153.001-.211-.121a.33.33 0 0 1-.012-.231.6.6 0 0 1 .094-.183.45.45 0 0 1 .328-.18" clip-path="url(#bj)" style="fill:#000;fill-opacity:1;fill-rule:nonzero;stroke:none" transform="matrix(1.33333 0 0 1.33333 1608 0)"></path></g><g clip-path="url(#bk)" transform="matrix(1.77769 0 0 1.77769 -3601.746 -758.479)"><path d="m328.215 350.875-.067.254a.5.5 0 0 0-.019.105c-.004.032.008.055.027.078q.036.031.094.032.075 0 .133-.059a.4.4 0 0 0 .117-.211q.041-.15-.004-.238c-.019-.039-.055-.055-.098-.055a.2.2 0 0 0-.074.016 1 1 0 0 0-.109.078m-.203-.117.23-.082h.028l-.043.156a.6.6 0 0 1 .14-.125.23.23 0 0 1 .117-.035c.071 0 .118.027.149.082.039.062.047.148.015.25a.54.54 0 0 1-.175.289.35.35 0 0 1-.235.094.2.2 0 0 1-.09-.016l-.054-.043-.055.203a.5.5 0 0 0-.016.09l.024.031c.012.008.035.008.074.008l-.008.031h-.351l.004-.031h.019a.15.15 0 0 0 .074-.012l.028-.027a.4.4 0 0 0 .031-.094l.172-.636a.4.4 0 0 0 .015-.082l-.011-.028-.032-.008-.046.012z" clip-path="url(#bl)" style="fill:#000;fill-opacity:1;fill-rule:nonzero;stroke:none" transform="matrix(1.33333 0 0 1.33333 1608 0)"></path></g><g clip-path="url(#bm)" transform="matrix(1.77769 0 0 1.77769 -3601.746 -758.479)"><path d="m329.164 350.32-.238.895a.4.4 0 0 0-.016.082l.024.031q.012.012.066.012l-.008.027h-.328l.004-.027a.2.2 0 0 0 .066-.008l.036-.031a.2.2 0 0 0 .031-.086l.164-.613c.023-.075.031-.122.035-.141l-.008-.035-.027-.008-.051.012-.008-.028.223-.082z" clip-path="url(#bn)" style="fill:#000;fill-opacity:1;fill-rule:nonzero;stroke:none" transform="matrix(1.33333 0 0 1.33333 1608 0)"></path></g><g clip-path="url(#bo)" transform="matrix(1.77769 0 0 1.77769 -3601.746 -758.479)"><path d="M329.309 350.902h.312a.3.3 0 0 0 .008-.09.09.09 0 0 0-.039-.062.1.1 0 0 0-.067-.027.2.2 0 0 0-.125.05.3.3 0 0 0-.089.129m-.012.043q-.04.152.008.239a.18.18 0 0 0 .152.086.24.24 0 0 0 .125-.04.35.35 0 0 0 .113-.125l.02.016a.5.5 0 0 1-.137.184.33.33 0 0 1-.211.082.2.2 0 0 1-.179-.094q-.062-.095-.02-.254a.53.53 0 0 1 .16-.269.37.37 0 0 1 .25-.098q.111-.001.164.074.054.076.02.199z" clip-path="url(#bp)" style="fill:#000;fill-opacity:1;fill-rule:nonzero;stroke:none" transform="matrix(1.33333 0 0 1.33333 1608 0)"></path></g><g clip-path="url(#bq)" transform="matrix(1.77769 0 0 1.77769 -3601.746 -758.479)"><path d="m330.039 350.727.008-.036a.5.5 0 0 0 .129-.082.2.2 0 0 0 .035-.066v-.035l-.016-.012-.023.008-.031.004-.047-.024-.008-.054.039-.055a.12.12 0 0 1 .078-.027q.051-.001.078.039.03.04.012.105a.3.3 0 0 1-.105.156.5.5 0 0 1-.149.079" clip-path="url(#br)" style="fill:#000;fill-opacity:1;fill-rule:nonzero;stroke:none" transform="matrix(1.33333 0 0 1.33333 1608 0)"></path></g><g clip-path="url(#bs)" transform="matrix(1.77769 0 0 1.77769 -3601.746 -758.479)"><path d="m330.781 350.672-.062.23h-.024q0-.11-.031-.144a.13.13 0 0 0-.102-.043.16.16 0 0 0-.089.027.12.12 0 0 0-.051.063.1.1 0 0 0 .004.07.17.17 0 0 0 .078.063l.094.054q.128.07.097.192a.25.25 0 0 1-.109.148.32.32 0 0 1-.305.031l-.039-.004-.031.02h-.023l.062-.242h.023c-.003.066.008.121.039.156q.042.052.118.051a.13.13 0 0 0 .09-.032.12.12 0 0 0 .05-.07.1.1 0 0 0-.011-.086.5.5 0 0 0-.121-.086c-.063-.035-.098-.066-.114-.097q-.021-.042-.004-.106a.26.26 0 0 1 .094-.137.25.25 0 0 1 .164-.058.3.3 0 0 1 .09.019l.047.008.019-.004.024-.023z" clip-path="url(#bt)" style="fill:#000;fill-opacity:1;fill-rule:nonzero;stroke:none" transform="matrix(1.33333 0 0 1.33333 1608 0)"></path></g><g clip-path="url(#bu)" transform="matrix(1.77769 0 0 1.77769 -3601.746 -758.479)"><path d="m332.273 350.348-.058.312h-.024a.3.3 0 0 0-.054-.176q-.066-.087-.207-.086a.43.43 0 0 0-.328.153.7.7 0 0 0-.164.301.53.53 0 0 0-.016.261q.023.118.098.172.074.054.168.055a.4.4 0 0 0 .113-.016.4.4 0 0 0 .109-.039l.078-.289a.5.5 0 0 0 .016-.098l-.027-.035a.2.2 0 0 0-.082-.011l.007-.032h.387l-.008.032h-.019c-.035 0-.067.011-.086.035a.3.3 0 0 0-.043.109l-.082.305a1 1 0 0 1-.188.066.7.7 0 0 1-.187.024q-.292 0-.391-.188a.42.42 0 0 1-.027-.32.7.7 0 0 1 .133-.254.8.8 0 0 1 .265-.219.6.6 0 0 1 .274-.062c.035 0 .07 0 .097.007q.042.008.118.04c.023.007.039.015.05.015l.028-.015a.2.2 0 0 0 .023-.047z" clip-path="url(#bv)" style="fill:#000;fill-opacity:1;fill-rule:nonzero;stroke:none" transform="matrix(1.33333 0 0 1.33333 1608 0)"></path></g><g clip-path="url(#bw)" transform="matrix(1.77769 0 0 1.77769 -3601.746 -758.479)"><path d="m332.633 351.223.07-.258q-.124.046-.16.062a.4.4 0 0 0-.102.067.2.2 0 0 0-.046.078q-.014.053.007.09a.07.07 0 0 0 .063.035q.058-.002.168-.074m-.012.047a2 2 0 0 1-.156.093.2.2 0 0 1-.09.02.12.12 0 0 1-.102-.051.15.15 0 0 1-.011-.125.2.2 0 0 1 .043-.086.6.6 0 0 1 .133-.094q.082-.046.277-.105l.008-.027c.015-.071.015-.114.004-.137q-.024-.04-.082-.039a.15.15 0 0 0-.083.023l-.042.059-.012.043-.031.051-.047.019-.043-.019v-.051c.008-.043.043-.082.093-.117a.34.34 0 0 1 .196-.055c.062 0 .105.012.14.031a.1.1 0 0 1 .043.07.4.4 0 0 1-.019.129l-.063.231c-.015.062-.023.105-.027.117l.004.031.019.004.02-.004a.4.4 0 0 0 .074-.051l-.012.04q-.112.11-.183.109l-.051-.024c-.012-.015-.012-.046 0-.085" clip-path="url(#bx)" style="fill:#000;fill-opacity:1;fill-rule:nonzero;stroke:none" transform="matrix(1.33333 0 0 1.33333 1608 0)"></path></g><g clip-path="url(#by)" transform="matrix(1.77769 0 0 1.77769 -3601.746 -758.479)"><path d="M333.23 350.816q.093-.075.11-.086.041-.024.082-.042a.3.3 0 0 1 .078-.016q.065 0 .102.039.036.035.031.105a1 1 0 0 1 .16-.117.3.3 0 0 1 .113-.027c.039 0 .067.012.09.027.024.02.035.051.043.09a.5.5 0 0 1-.023.137l-.078.289a1 1 0 0 0-.012.086l.019.027q.017.012.063.012l-.008.027h-.332l.008-.027h.012a.14.14 0 0 0 .074-.016l.035-.039a.3.3 0 0 0 .019-.07l.079-.289q.023-.082.011-.117-.015-.047-.078-.047a.2.2 0 0 0-.086.019.6.6 0 0 0-.113.071l-.004.011-.008.032-.086.32a.5.5 0 0 0-.015.086l.023.027q.018.012.07.012l-.007.027h-.34l.004-.027a.2.2 0 0 0 .082-.012l.039-.039q.006-.014.023-.074l.078-.289a.2.2 0 0 0 .008-.121c-.016-.032-.039-.047-.078-.047a.2.2 0 0 0-.086.023.5.5 0 0 0-.113.071l-.098.363q-.018.066-.012.086l.02.031a.2.2 0 0 0 .07.008l-.008.027h-.332l.004-.027a.3.3 0 0 0 .071-.008l.035-.031a.3.3 0 0 0 .031-.086l.07-.258a1 1 0 0 0 .032-.145l-.008-.031-.028-.011-.05.011-.004-.027.222-.082h.032z" clip-path="url(#bz)" style="fill:#000;fill-opacity:1;fill-rule:nonzero;stroke:none" transform="matrix(1.33333 0 0 1.33333 1608 0)"></path></g><g clip-path="url(#bA)" transform="matrix(1.77769 0 0 1.77769 -3601.746 -758.479)"><path d="M334.293 350.902h.312a.3.3 0 0 0 .008-.09.1.1 0 0 0-.039-.062.1.1 0 0 0-.07-.027.18.18 0 0 0-.121.05.3.3 0 0 0-.09.129m-.012.043q-.04.152.008.239a.18.18 0 0 0 .152.086.24.24 0 0 0 .125-.04.35.35 0 0 0 .114-.125l.019.016a.5.5 0 0 1-.137.184.33.33 0 0 1-.21.082.21.21 0 0 1-.184-.094c-.039-.063-.047-.148-.016-.254a.5.5 0 0 1 .16-.269.37.37 0 0 1 .25-.098q.112-.001.165.074.054.076.019.199z" clip-path="url(#bB)" style="fill:#000;fill-opacity:1;fill-rule:nonzero;stroke:none" transform="matrix(1.33333 0 0 1.33333 1608 0)"></path></g><g clip-path="url(#bC)" transform="matrix(1.77769 0 0 1.77769 -3601.746 -758.479)"><path d="m324.48 352.117-.058.219h.156l-.016.055h-.156l-.117.433c-.012.047-.012.074-.004.09l.039.024.055-.016.047-.043h.027a.4.4 0 0 1-.101.109.2.2 0 0 1-.106.035l-.062-.019-.036-.055a.24.24 0 0 1 .016-.105l.121-.453h-.105l.004-.028a.3.3 0 0 0 .097-.054.6.6 0 0 0 .102-.09l.074-.102z" clip-path="url(#bD)" style="fill:#000;fill-opacity:1;fill-rule:nonzero;stroke:none" transform="matrix(1.33333 0 0 1.33333 1608 0)"></path></g><g clip-path="url(#bE)" transform="matrix(1.77769 0 0 1.77769 -3601.746 -758.479)"><path d="M324.941 352.367a.2.2 0 0 0-.082.024.2.2 0 0 0-.086.078.5.5 0 0 0-.066.152.5.5 0 0 0-.008.254q.031.105.125.105a.19.19 0 0 0 .133-.058.43.43 0 0 0 .102-.203q.048-.182-.004-.281-.03-.07-.114-.071m.036-.051q.154 0 .214.118a.3.3 0 0 1 .02.23.55.55 0 0 1-.25.32.4.4 0 0 1-.184.047q-.15.001-.207-.121a.3.3 0 0 1-.015-.23.5.5 0 0 1 .097-.184.4.4 0 0 1 .157-.133.35.35 0 0 1 .168-.047" clip-path="url(#bF)" style="fill:#000;fill-opacity:1;fill-rule:nonzero;stroke:none" transform="matrix(1.33333 0 0 1.33333 1608 0)"></path></g><g clip-path="url(#bG)" transform="matrix(1.77769 0 0 1.77769 -3601.746 -758.479)"><path d="m325.992 352.504.067.008.05.004q.074 0 .149-.059a.3.3 0 0 0 .094-.152.3.3 0 0 0 .007-.121.13.13 0 0 0-.054-.082.17.17 0 0 0-.102-.028 1 1 0 0 0-.101.012zm-.012.039-.078.293q-.023.094-.011.117.021.03.078.031h.039l-.008.028h-.43l.008-.028h.039a.15.15 0 0 0 .102-.039.5.5 0 0 0 .043-.109l.172-.645q.023-.093.011-.117-.018-.035-.078-.035h-.035l.008-.027h.363q.137 0 .203.031a.2.2 0 0 1 .11.09.2.2 0 0 1 .007.156.33.33 0 0 1-.132.199.4.4 0 0 1-.246.078c-.028 0-.051-.004-.079-.007q-.04-.005-.086-.016" clip-path="url(#bH)" style="fill:#000;fill-opacity:1;fill-rule:nonzero;stroke:none" transform="matrix(1.33333 0 0 1.33333 1608 0)"></path></g><g clip-path="url(#bI)" transform="matrix(1.77769 0 0 1.77769 -3601.746 -758.479)"><path d="M326.668 352.551h.312c.012-.047.012-.074.012-.094a.12.12 0 0 0-.039-.066.13.13 0 0 0-.07-.024.2.2 0 0 0-.121.051.3.3 0 0 0-.094.133m-.012.039q-.04.151.012.238a.16.16 0 0 0 .148.082.24.24 0 0 0 .125-.035.4.4 0 0 0 .118-.125l.019.016a.5.5 0 0 1-.14.183.3.3 0 0 1-.208.082.2.2 0 0 1-.183-.093q-.06-.096-.02-.254a.5.5 0 0 1 .164-.27.36.36 0 0 1 .247-.098.2.2 0 0 1 .167.075q.054.076.02.199z" clip-path="url(#bJ)" style="fill:#000;fill-opacity:1;fill-rule:nonzero;stroke:none" transform="matrix(1.33333 0 0 1.33333 1608 0)"></path></g><g clip-path="url(#bK)" transform="matrix(1.77769 0 0 1.77769 -3601.746 -758.479)"><path d="M327.582 352.367a.2.2 0 0 0-.086.024c-.031.011-.058.043-.086.078a.6.6 0 0 0-.062.152.47.47 0 0 0-.012.254c.023.07.062.105.129.105q.07 0 .133-.058a.47.47 0 0 0 .101-.203q.045-.182-.004-.281a.115.115 0 0 0-.113-.071m.035-.051q.152 0 .215.118a.3.3 0 0 1 .016.23.522.522 0 0 1-.246.32.4.4 0 0 1-.184.047q-.153.001-.211-.121a.33.33 0 0 1-.012-.23.6.6 0 0 1 .094-.184.5.5 0 0 1 .156-.133.4.4 0 0 1 .172-.047" clip-path="url(#bL)" style="fill:#000;fill-opacity:1;fill-rule:nonzero;stroke:none" transform="matrix(1.33333 0 0 1.33333 1608 0)"></path></g><g clip-path="url(#bM)" transform="matrix(1.77769 0 0 1.77769 -3601.746 -758.479)"><path d="m328.172 352.52-.067.253a.5.5 0 0 0-.019.106c-.004.031.008.055.027.078q.036.03.094.031a.18.18 0 0 0 .133-.058.4.4 0 0 0 .117-.211q.042-.152-.004-.239a.11.11 0 0 0-.098-.054.2.2 0 0 0-.074.015 1 1 0 0 0-.109.079m-.203-.114.23-.086h.028l-.043.157a.6.6 0 0 1 .14-.125.24.24 0 0 1 .121-.036q.1 0 .145.082.06.095.019.254a.58.58 0 0 1-.179.286.35.35 0 0 1-.231.093.2.2 0 0 1-.094-.015l-.05-.043-.059.203q-.018.071-.012.09l.02.031q.017.01.074.008l-.008.031h-.351l.004-.031h.019c.028.004.051-.004.074-.012l.028-.027a.5.5 0 0 0 .035-.094l.168-.637a.3.3 0 0 0 .015-.082l-.011-.027-.031-.008-.047.012z" clip-path="url(#bN)" style="fill:#000;fill-opacity:1;fill-rule:nonzero;stroke:none" transform="matrix(1.33333 0 0 1.33333 1608 0)"></path></g><g clip-path="url(#bO)" transform="matrix(1.77769 0 0 1.77769 -3601.746 -758.479)"><path d="m329.121 351.965-.238.894a.4.4 0 0 0-.016.082l.024.032q.012.01.066.011l-.008.028h-.328l.004-.028a.3.3 0 0 0 .066-.007l.036-.032a.3.3 0 0 0 .035-.086l.16-.613c.023-.074.031-.121.035-.141l-.008-.035-.027-.008-.051.012-.008-.027.227-.082z" clip-path="url(#bP)" style="fill:#000;fill-opacity:1;fill-rule:nonzero;stroke:none" transform="matrix(1.33333 0 0 1.33333 1608 0)"></path></g><g clip-path="url(#bQ)" transform="matrix(1.77769 0 0 1.77769 -3601.746 -758.479)" data-source="https://football-logos.cc"><path d="M329.266 352.551h.312a.3.3 0 0 0 .008-.094.1.1 0 0 0-.035-.066c-.024-.012-.043-.024-.071-.024a.2.2 0 0 0-.121.051.25.25 0 0 0-.093.133m-.012.039q-.041.151.012.238a.16.16 0 0 0 .148.082.25.25 0 0 0 .125-.035.4.4 0 0 0 .117-.125l.02.016a.55.55 0 0 1-.141.183.32.32 0 0 1-.207.082q-.124 0-.183-.093-.062-.096-.02-.254a.5.5 0 0 1 .16-.27.38.38 0 0 1 .25-.098c.074 0 .129.028.164.075q.054.076.02.199z" clip-path="url(#bR)" style="fill:#000;fill-opacity:1;fill-rule:nonzero;stroke:none" transform="matrix(1.33333 0 0 1.33333 1608 0)"></path></g><!-- source: https://football-logos.cc --></svg>